<?xml version="1.0" encoding="utf-8" standalone="no"?>
<!DOCTYPE svg PUBLIC "-//W3C//DTD SVG 1.1//EN"
  "http://www.w3.org/Graphics/SVG/1.1/DTD/svg11.dtd">
<svg xmlns:xlink="http://www.w3.org/1999/xlink" width="418.95pt" height="360pt" viewBox="0 0 418.95 360" xmlns="http://www.w3.org/2000/svg" version="1.1">
 <metadata>
  <rdf:RDF xmlns:dc="http://purl.org/dc/elements/1.1/" xmlns:cc="http://creativecommons.org/ns#" xmlns:rdf="http://www.w3.org/1999/02/22-rdf-syntax-ns#">
   <cc:Work>
    <dc:type rdf:resource="http://purl.org/dc/dcmitype/StillImage"/>
    <dc:date>2024-09-10T22:07:23.102647</dc:date>
    <dc:format>image/svg+xml</dc:format>
    <dc:creator>
     <cc:Agent>
      <dc:title>Matplotlib v3.8.3, https://matplotlib.org/</dc:title>
     </cc:Agent>
    </dc:creator>
   </cc:Work>
  </rdf:RDF>
 </metadata>
 <defs>
  <style type="text/css">*{stroke-linejoin: round; stroke-linecap: butt}</style>
 </defs>
 <g id="figure_1">
  <g id="patch_1">
   <path d="M 0 360 
L 418.95 360 
L 418.95 0 
L 0 0 
z
" style="fill: #ffffff"/>
  </g>
  <g id="axes_1">
   <g id="patch_2">
    <path d="M 56.581525 318.04 
L 355.8105 318.04 
L 355.8105 10.8 
L 56.581525 10.8 
z
" style="fill: #ffffff"/>
   </g>
   <g id="matplotlib.axis_1">
    <g id="xtick_1">
     <g id="text_1">
      <!-- f -->
      <g style="fill: #262626" transform="translate(129.999706 332.197812) scale(0.1 -0.1)">
       <defs>
        <path id="ArialMT-66" d="M 556 0 
L 556 2881 
L 59 2881 
L 59 3319 
L 556 3319 
L 556 3672 
Q 556 4006 616 4169 
Q 697 4388 901 4523 
Q 1106 4659 1475 4659 
Q 1713 4659 2000 4603 
L 1916 4113 
Q 1741 4144 1584 4144 
Q 1328 4144 1222 4034 
Q 1116 3925 1116 3625 
L 1116 3319 
L 1763 3319 
L 1763 2881 
L 1116 2881 
L 1116 0 
L 556 0 
z
" transform="scale(0.015625)"/>
       </defs>
       <use xlink:href="#ArialMT-66"/>
      </g>
     </g>
    </g>
    <g id="xtick_2">
     <g id="text_2">
      <!-- m -->
      <g style="fill: #262626" transform="translate(276.838413 332.197812) scale(0.1 -0.1)">
       <defs>
        <path id="ArialMT-6d" d="M 422 0 
L 422 3319 
L 925 3319 
L 925 2853 
Q 1081 3097 1340 3245 
Q 1600 3394 1931 3394 
Q 2300 3394 2536 3241 
Q 2772 3088 2869 2813 
Q 3263 3394 3894 3394 
Q 4388 3394 4653 3120 
Q 4919 2847 4919 2278 
L 4919 0 
L 4359 0 
L 4359 2091 
Q 4359 2428 4304 2576 
Q 4250 2725 4106 2815 
Q 3963 2906 3769 2906 
Q 3419 2906 3187 2673 
Q 2956 2441 2956 1928 
L 2956 0 
L 2394 0 
L 2394 2156 
Q 2394 2531 2256 2718 
Q 2119 2906 1806 2906 
Q 1569 2906 1367 2781 
Q 1166 2656 1075 2415 
Q 984 2175 984 1722 
L 984 0 
L 422 0 
z
" transform="scale(0.015625)"/>
       </defs>
       <use xlink:href="#ArialMT-6d"/>
      </g>
     </g>
    </g>
    <g id="text_3">
     <!-- sex -->
     <g style="fill: #262626" transform="translate(198.415544 345.343125) scale(0.1 -0.1)">
      <defs>
       <path id="ArialMT-73" d="M 197 991 
L 753 1078 
Q 800 744 1014 566 
Q 1228 388 1613 388 
Q 2000 388 2187 545 
Q 2375 703 2375 916 
Q 2375 1106 2209 1216 
Q 2094 1291 1634 1406 
Q 1016 1563 777 1677 
Q 538 1791 414 1992 
Q 291 2194 291 2438 
Q 291 2659 392 2848 
Q 494 3038 669 3163 
Q 800 3259 1026 3326 
Q 1253 3394 1513 3394 
Q 1903 3394 2198 3281 
Q 2494 3169 2634 2976 
Q 2775 2784 2828 2463 
L 2278 2388 
Q 2241 2644 2061 2787 
Q 1881 2931 1553 2931 
Q 1166 2931 1000 2803 
Q 834 2675 834 2503 
Q 834 2394 903 2306 
Q 972 2216 1119 2156 
Q 1203 2125 1616 2013 
Q 2213 1853 2448 1751 
Q 2684 1650 2818 1456 
Q 2953 1263 2953 975 
Q 2953 694 2789 445 
Q 2625 197 2315 61 
Q 2006 -75 1616 -75 
Q 969 -75 630 194 
Q 291 463 197 991 
z
" transform="scale(0.015625)"/>
       <path id="ArialMT-65" d="M 2694 1069 
L 3275 997 
Q 3138 488 2766 206 
Q 2394 -75 1816 -75 
Q 1088 -75 661 373 
Q 234 822 234 1631 
Q 234 2469 665 2931 
Q 1097 3394 1784 3394 
Q 2450 3394 2872 2941 
Q 3294 2488 3294 1666 
Q 3294 1616 3291 1516 
L 816 1516 
Q 847 969 1125 678 
Q 1403 388 1819 388 
Q 2128 388 2347 550 
Q 2566 713 2694 1069 
z
M 847 1978 
L 2700 1978 
Q 2663 2397 2488 2606 
Q 2219 2931 1791 2931 
Q 1403 2931 1139 2672 
Q 875 2413 847 1978 
z
" transform="scale(0.015625)"/>
       <path id="ArialMT-78" d="M 47 0 
L 1259 1725 
L 138 3319 
L 841 3319 
L 1350 2541 
Q 1494 2319 1581 2169 
Q 1719 2375 1834 2534 
L 2394 3319 
L 3066 3319 
L 1919 1756 
L 3153 0 
L 2463 0 
L 1781 1031 
L 1600 1309 
L 728 0 
L 47 0 
z
" transform="scale(0.015625)"/>
      </defs>
      <use xlink:href="#ArialMT-73"/>
      <use xlink:href="#ArialMT-65" x="50"/>
      <use xlink:href="#ArialMT-78" x="105.615234"/>
     </g>
    </g>
   </g>
   <g id="matplotlib.axis_2">
    <g id="ytick_1">
     <g id="line2d_1">
      <path d="M 56.581525 273.337943 
L 355.8105 273.337943 
" clip-path="url(#p6fd2f60873)" style="fill: none; stroke: #cccccc; stroke-width: 0.8; stroke-linecap: round"/>
     </g>
     <g id="text_4">
      <!-- 20 -->
      <g style="fill: #262626" transform="translate(38.45965 276.916849) scale(0.1 -0.1)">
       <defs>
        <path id="ArialMT-32" d="M 3222 541 
L 3222 0 
L 194 0 
Q 188 203 259 391 
Q 375 700 629 1000 
Q 884 1300 1366 1694 
Q 2113 2306 2375 2664 
Q 2638 3022 2638 3341 
Q 2638 3675 2398 3904 
Q 2159 4134 1775 4134 
Q 1369 4134 1125 3890 
Q 881 3647 878 3216 
L 300 3275 
Q 359 3922 746 4261 
Q 1134 4600 1788 4600 
Q 2447 4600 2831 4234 
Q 3216 3869 3216 3328 
Q 3216 3053 3103 2787 
Q 2991 2522 2730 2228 
Q 2469 1934 1863 1422 
Q 1356 997 1212 845 
Q 1069 694 975 541 
L 3222 541 
z
" transform="scale(0.015625)"/>
        <path id="ArialMT-30" d="M 266 2259 
Q 266 3072 433 3567 
Q 600 4063 929 4331 
Q 1259 4600 1759 4600 
Q 2128 4600 2406 4451 
Q 2684 4303 2865 4023 
Q 3047 3744 3150 3342 
Q 3253 2941 3253 2259 
Q 3253 1453 3087 958 
Q 2922 463 2592 192 
Q 2263 -78 1759 -78 
Q 1097 -78 719 397 
Q 266 969 266 2259 
z
M 844 2259 
Q 844 1131 1108 757 
Q 1372 384 1759 384 
Q 2147 384 2411 759 
Q 2675 1134 2675 2259 
Q 2675 3391 2411 3762 
Q 2147 4134 1753 4134 
Q 1366 4134 1134 3806 
Q 844 3388 844 2259 
z
" transform="scale(0.015625)"/>
       </defs>
       <use xlink:href="#ArialMT-32"/>
       <use xlink:href="#ArialMT-30" x="55.615234"/>
      </g>
     </g>
    </g>
    <g id="ytick_2">
     <g id="line2d_2">
      <path d="M 56.581525 227.037547 
L 355.8105 227.037547 
" clip-path="url(#p6fd2f60873)" style="fill: none; stroke: #cccccc; stroke-width: 0.8; stroke-linecap: round"/>
     </g>
     <g id="text_5">
      <!-- 40 -->
      <g style="fill: #262626" transform="translate(38.45965 230.616453) scale(0.1 -0.1)">
       <defs>
        <path id="ArialMT-34" d="M 2069 0 
L 2069 1097 
L 81 1097 
L 81 1613 
L 2172 4581 
L 2631 4581 
L 2631 1613 
L 3250 1613 
L 3250 1097 
L 2631 1097 
L 2631 0 
L 2069 0 
z
M 2069 1613 
L 2069 3678 
L 634 1613 
L 2069 1613 
z
" transform="scale(0.015625)"/>
       </defs>
       <use xlink:href="#ArialMT-34"/>
       <use xlink:href="#ArialMT-30" x="55.615234"/>
      </g>
     </g>
    </g>
    <g id="ytick_3">
     <g id="line2d_3">
      <path d="M 56.581525 180.737151 
L 355.8105 180.737151 
" clip-path="url(#p6fd2f60873)" style="fill: none; stroke: #cccccc; stroke-width: 0.8; stroke-linecap: round"/>
     </g>
     <g id="text_6">
      <!-- 60 -->
      <g style="fill: #262626" transform="translate(38.45965 184.316058) scale(0.1 -0.1)">
       <defs>
        <path id="ArialMT-36" d="M 3184 3459 
L 2625 3416 
Q 2550 3747 2413 3897 
Q 2184 4138 1850 4138 
Q 1581 4138 1378 3988 
Q 1113 3794 959 3422 
Q 806 3050 800 2363 
Q 1003 2672 1297 2822 
Q 1591 2972 1913 2972 
Q 2475 2972 2870 2558 
Q 3266 2144 3266 1488 
Q 3266 1056 3080 686 
Q 2894 316 2569 119 
Q 2244 -78 1831 -78 
Q 1128 -78 684 439 
Q 241 956 241 2144 
Q 241 3472 731 4075 
Q 1159 4600 1884 4600 
Q 2425 4600 2770 4297 
Q 3116 3994 3184 3459 
z
M 888 1484 
Q 888 1194 1011 928 
Q 1134 663 1356 523 
Q 1578 384 1822 384 
Q 2178 384 2434 671 
Q 2691 959 2691 1453 
Q 2691 1928 2437 2201 
Q 2184 2475 1800 2475 
Q 1419 2475 1153 2201 
Q 888 1928 888 1484 
z
" transform="scale(0.015625)"/>
       </defs>
       <use xlink:href="#ArialMT-36"/>
       <use xlink:href="#ArialMT-30" x="55.615234"/>
      </g>
     </g>
    </g>
    <g id="ytick_4">
     <g id="line2d_4">
      <path d="M 56.581525 134.436756 
L 355.8105 134.436756 
" clip-path="url(#p6fd2f60873)" style="fill: none; stroke: #cccccc; stroke-width: 0.8; stroke-linecap: round"/>
     </g>
     <g id="text_7">
      <!-- 80 -->
      <g style="fill: #262626" transform="translate(38.45965 138.015662) scale(0.1 -0.1)">
       <defs>
        <path id="ArialMT-38" d="M 1131 2484 
Q 781 2613 612 2850 
Q 444 3088 444 3419 
Q 444 3919 803 4259 
Q 1163 4600 1759 4600 
Q 2359 4600 2725 4251 
Q 3091 3903 3091 3403 
Q 3091 3084 2923 2848 
Q 2756 2613 2416 2484 
Q 2838 2347 3058 2040 
Q 3278 1734 3278 1309 
Q 3278 722 2862 322 
Q 2447 -78 1769 -78 
Q 1091 -78 675 323 
Q 259 725 259 1325 
Q 259 1772 486 2073 
Q 713 2375 1131 2484 
z
M 1019 3438 
Q 1019 3113 1228 2906 
Q 1438 2700 1772 2700 
Q 2097 2700 2305 2904 
Q 2513 3109 2513 3406 
Q 2513 3716 2298 3927 
Q 2084 4138 1766 4138 
Q 1444 4138 1231 3931 
Q 1019 3725 1019 3438 
z
M 838 1322 
Q 838 1081 952 856 
Q 1066 631 1291 507 
Q 1516 384 1775 384 
Q 2178 384 2440 643 
Q 2703 903 2703 1303 
Q 2703 1709 2433 1975 
Q 2163 2241 1756 2241 
Q 1359 2241 1098 1978 
Q 838 1716 838 1322 
z
" transform="scale(0.015625)"/>
       </defs>
       <use xlink:href="#ArialMT-38"/>
       <use xlink:href="#ArialMT-30" x="55.615234"/>
      </g>
     </g>
    </g>
    <g id="ytick_5">
     <g id="line2d_5">
      <path d="M 56.581525 88.13636 
L 355.8105 88.13636 
" clip-path="url(#p6fd2f60873)" style="fill: none; stroke: #cccccc; stroke-width: 0.8; stroke-linecap: round"/>
     </g>
     <g id="text_8">
      <!-- 100 -->
      <g style="fill: #262626" transform="translate(32.898713 91.715266) scale(0.1 -0.1)">
       <defs>
        <path id="ArialMT-31" d="M 2384 0 
L 1822 0 
L 1822 3584 
Q 1619 3391 1289 3197 
Q 959 3003 697 2906 
L 697 3450 
Q 1169 3672 1522 3987 
Q 1875 4303 2022 4600 
L 2384 4600 
L 2384 0 
z
" transform="scale(0.015625)"/>
       </defs>
       <use xlink:href="#ArialMT-31"/>
       <use xlink:href="#ArialMT-30" x="55.615234"/>
       <use xlink:href="#ArialMT-30" x="111.230469"/>
      </g>
     </g>
    </g>
    <g id="ytick_6">
     <g id="line2d_6">
      <path d="M 56.581525 41.835964 
L 355.8105 41.835964 
" clip-path="url(#p6fd2f60873)" style="fill: none; stroke: #cccccc; stroke-width: 0.8; stroke-linecap: round"/>
     </g>
     <g id="text_9">
      <!-- 120 -->
      <g style="fill: #262626" transform="translate(32.898713 45.41487) scale(0.1 -0.1)">
       <use xlink:href="#ArialMT-31"/>
       <use xlink:href="#ArialMT-32" x="55.615234"/>
       <use xlink:href="#ArialMT-30" x="111.230469"/>
      </g>
     </g>
    </g>
    <g id="text_10">
     <!-- Carbohydrates energy % -->
     <g style="fill: #262626" transform="translate(26.794025 219.723906) rotate(-90) scale(0.1 -0.1)">
      <defs>
       <path id="ArialMT-43" d="M 3763 1606 
L 4369 1453 
Q 4178 706 3683 314 
Q 3188 -78 2472 -78 
Q 1731 -78 1267 223 
Q 803 525 561 1097 
Q 319 1669 319 2325 
Q 319 3041 592 3573 
Q 866 4106 1370 4382 
Q 1875 4659 2481 4659 
Q 3169 4659 3637 4309 
Q 4106 3959 4291 3325 
L 3694 3184 
Q 3534 3684 3231 3912 
Q 2928 4141 2469 4141 
Q 1941 4141 1586 3887 
Q 1231 3634 1087 3207 
Q 944 2781 944 2328 
Q 944 1744 1114 1308 
Q 1284 872 1643 656 
Q 2003 441 2422 441 
Q 2931 441 3284 734 
Q 3638 1028 3763 1606 
z
" transform="scale(0.015625)"/>
       <path id="ArialMT-61" d="M 2588 409 
Q 2275 144 1986 34 
Q 1697 -75 1366 -75 
Q 819 -75 525 192 
Q 231 459 231 875 
Q 231 1119 342 1320 
Q 453 1522 633 1644 
Q 813 1766 1038 1828 
Q 1203 1872 1538 1913 
Q 2219 1994 2541 2106 
Q 2544 2222 2544 2253 
Q 2544 2597 2384 2738 
Q 2169 2928 1744 2928 
Q 1347 2928 1158 2789 
Q 969 2650 878 2297 
L 328 2372 
Q 403 2725 575 2942 
Q 747 3159 1072 3276 
Q 1397 3394 1825 3394 
Q 2250 3394 2515 3294 
Q 2781 3194 2906 3042 
Q 3031 2891 3081 2659 
Q 3109 2516 3109 2141 
L 3109 1391 
Q 3109 606 3145 398 
Q 3181 191 3288 0 
L 2700 0 
Q 2613 175 2588 409 
z
M 2541 1666 
Q 2234 1541 1622 1453 
Q 1275 1403 1131 1340 
Q 988 1278 909 1158 
Q 831 1038 831 891 
Q 831 666 1001 516 
Q 1172 366 1500 366 
Q 1825 366 2078 508 
Q 2331 650 2450 897 
Q 2541 1088 2541 1459 
L 2541 1666 
z
" transform="scale(0.015625)"/>
       <path id="ArialMT-72" d="M 416 0 
L 416 3319 
L 922 3319 
L 922 2816 
Q 1116 3169 1280 3281 
Q 1444 3394 1641 3394 
Q 1925 3394 2219 3213 
L 2025 2691 
Q 1819 2813 1613 2813 
Q 1428 2813 1281 2702 
Q 1134 2591 1072 2394 
Q 978 2094 978 1738 
L 978 0 
L 416 0 
z
" transform="scale(0.015625)"/>
       <path id="ArialMT-62" d="M 941 0 
L 419 0 
L 419 4581 
L 981 4581 
L 981 2947 
Q 1338 3394 1891 3394 
Q 2197 3394 2470 3270 
Q 2744 3147 2920 2923 
Q 3097 2700 3197 2384 
Q 3297 2069 3297 1709 
Q 3297 856 2875 390 
Q 2453 -75 1863 -75 
Q 1275 -75 941 416 
L 941 0 
z
M 934 1684 
Q 934 1088 1097 822 
Q 1363 388 1816 388 
Q 2184 388 2453 708 
Q 2722 1028 2722 1663 
Q 2722 2313 2464 2622 
Q 2206 2931 1841 2931 
Q 1472 2931 1203 2611 
Q 934 2291 934 1684 
z
" transform="scale(0.015625)"/>
       <path id="ArialMT-6f" d="M 213 1659 
Q 213 2581 725 3025 
Q 1153 3394 1769 3394 
Q 2453 3394 2887 2945 
Q 3322 2497 3322 1706 
Q 3322 1066 3130 698 
Q 2938 331 2570 128 
Q 2203 -75 1769 -75 
Q 1072 -75 642 372 
Q 213 819 213 1659 
z
M 791 1659 
Q 791 1022 1069 705 
Q 1347 388 1769 388 
Q 2188 388 2466 706 
Q 2744 1025 2744 1678 
Q 2744 2294 2464 2611 
Q 2184 2928 1769 2928 
Q 1347 2928 1069 2612 
Q 791 2297 791 1659 
z
" transform="scale(0.015625)"/>
       <path id="ArialMT-68" d="M 422 0 
L 422 4581 
L 984 4581 
L 984 2938 
Q 1378 3394 1978 3394 
Q 2347 3394 2619 3248 
Q 2891 3103 3008 2847 
Q 3125 2591 3125 2103 
L 3125 0 
L 2563 0 
L 2563 2103 
Q 2563 2525 2380 2717 
Q 2197 2909 1863 2909 
Q 1613 2909 1392 2779 
Q 1172 2650 1078 2428 
Q 984 2206 984 1816 
L 984 0 
L 422 0 
z
" transform="scale(0.015625)"/>
       <path id="ArialMT-79" d="M 397 -1278 
L 334 -750 
Q 519 -800 656 -800 
Q 844 -800 956 -737 
Q 1069 -675 1141 -563 
Q 1194 -478 1313 -144 
Q 1328 -97 1363 -6 
L 103 3319 
L 709 3319 
L 1400 1397 
Q 1534 1031 1641 628 
Q 1738 1016 1872 1384 
L 2581 3319 
L 3144 3319 
L 1881 -56 
Q 1678 -603 1566 -809 
Q 1416 -1088 1222 -1217 
Q 1028 -1347 759 -1347 
Q 597 -1347 397 -1278 
z
" transform="scale(0.015625)"/>
       <path id="ArialMT-64" d="M 2575 0 
L 2575 419 
Q 2259 -75 1647 -75 
Q 1250 -75 917 144 
Q 584 363 401 755 
Q 219 1147 219 1656 
Q 219 2153 384 2558 
Q 550 2963 881 3178 
Q 1213 3394 1622 3394 
Q 1922 3394 2156 3267 
Q 2391 3141 2538 2938 
L 2538 4581 
L 3097 4581 
L 3097 0 
L 2575 0 
z
M 797 1656 
Q 797 1019 1065 703 
Q 1334 388 1700 388 
Q 2069 388 2326 689 
Q 2584 991 2584 1609 
Q 2584 2291 2321 2609 
Q 2059 2928 1675 2928 
Q 1300 2928 1048 2622 
Q 797 2316 797 1656 
z
" transform="scale(0.015625)"/>
       <path id="ArialMT-74" d="M 1650 503 
L 1731 6 
Q 1494 -44 1306 -44 
Q 1000 -44 831 53 
Q 663 150 594 308 
Q 525 466 525 972 
L 525 2881 
L 113 2881 
L 113 3319 
L 525 3319 
L 525 4141 
L 1084 4478 
L 1084 3319 
L 1650 3319 
L 1650 2881 
L 1084 2881 
L 1084 941 
Q 1084 700 1114 631 
Q 1144 563 1211 522 
Q 1278 481 1403 481 
Q 1497 481 1650 503 
z
" transform="scale(0.015625)"/>
       <path id="ArialMT-20" transform="scale(0.015625)"/>
       <path id="ArialMT-6e" d="M 422 0 
L 422 3319 
L 928 3319 
L 928 2847 
Q 1294 3394 1984 3394 
Q 2284 3394 2536 3286 
Q 2788 3178 2913 3003 
Q 3038 2828 3088 2588 
Q 3119 2431 3119 2041 
L 3119 0 
L 2556 0 
L 2556 2019 
Q 2556 2363 2490 2533 
Q 2425 2703 2258 2804 
Q 2091 2906 1866 2906 
Q 1506 2906 1245 2678 
Q 984 2450 984 1813 
L 984 0 
L 422 0 
z
" transform="scale(0.015625)"/>
       <path id="ArialMT-67" d="M 319 -275 
L 866 -356 
Q 900 -609 1056 -725 
Q 1266 -881 1628 -881 
Q 2019 -881 2231 -725 
Q 2444 -569 2519 -288 
Q 2563 -116 2559 434 
Q 2191 0 1641 0 
Q 956 0 581 494 
Q 206 988 206 1678 
Q 206 2153 378 2554 
Q 550 2956 876 3175 
Q 1203 3394 1644 3394 
Q 2231 3394 2613 2919 
L 2613 3319 
L 3131 3319 
L 3131 450 
Q 3131 -325 2973 -648 
Q 2816 -972 2473 -1159 
Q 2131 -1347 1631 -1347 
Q 1038 -1347 672 -1080 
Q 306 -813 319 -275 
z
M 784 1719 
Q 784 1066 1043 766 
Q 1303 466 1694 466 
Q 2081 466 2343 764 
Q 2606 1063 2606 1700 
Q 2606 2309 2336 2618 
Q 2066 2928 1684 2928 
Q 1309 2928 1046 2623 
Q 784 2319 784 1719 
z
" transform="scale(0.015625)"/>
       <path id="ArialMT-25" d="M 372 3481 
Q 372 3972 619 4315 
Q 866 4659 1334 4659 
Q 1766 4659 2048 4351 
Q 2331 4044 2331 3447 
Q 2331 2866 2045 2552 
Q 1759 2238 1341 2238 
Q 925 2238 648 2547 
Q 372 2856 372 3481 
z
M 1350 4272 
Q 1141 4272 1002 4090 
Q 863 3909 863 3425 
Q 863 2984 1003 2804 
Q 1144 2625 1350 2625 
Q 1563 2625 1702 2806 
Q 1841 2988 1841 3469 
Q 1841 3913 1700 4092 
Q 1559 4272 1350 4272 
z
M 1353 -169 
L 3859 4659 
L 4316 4659 
L 1819 -169 
L 1353 -169 
z
M 3334 1075 
Q 3334 1569 3581 1911 
Q 3828 2253 4300 2253 
Q 4731 2253 5014 1945 
Q 5297 1638 5297 1041 
Q 5297 459 5011 145 
Q 4725 -169 4303 -169 
Q 3888 -169 3611 142 
Q 3334 453 3334 1075 
z
M 4316 1866 
Q 4103 1866 3964 1684 
Q 3825 1503 3825 1019 
Q 3825 581 3965 400 
Q 4106 219 4313 219 
Q 4528 219 4667 400 
Q 4806 581 4806 1063 
Q 4806 1506 4665 1686 
Q 4525 1866 4316 1866 
z
" transform="scale(0.015625)"/>
      </defs>
      <use xlink:href="#ArialMT-43"/>
      <use xlink:href="#ArialMT-61" x="72.216797"/>
      <use xlink:href="#ArialMT-72" x="127.832031"/>
      <use xlink:href="#ArialMT-62" x="161.132812"/>
      <use xlink:href="#ArialMT-6f" x="216.748047"/>
      <use xlink:href="#ArialMT-68" x="272.363281"/>
      <use xlink:href="#ArialMT-79" x="327.978516"/>
      <use xlink:href="#ArialMT-64" x="377.978516"/>
      <use xlink:href="#ArialMT-72" x="433.59375"/>
      <use xlink:href="#ArialMT-61" x="466.894531"/>
      <use xlink:href="#ArialMT-74" x="522.509766"/>
      <use xlink:href="#ArialMT-65" x="550.292969"/>
      <use xlink:href="#ArialMT-73" x="605.908203"/>
      <use xlink:href="#ArialMT-20" x="655.908203"/>
      <use xlink:href="#ArialMT-65" x="683.691406"/>
      <use xlink:href="#ArialMT-6e" x="739.306641"/>
      <use xlink:href="#ArialMT-65" x="794.921875"/>
      <use xlink:href="#ArialMT-72" x="850.537109"/>
      <use xlink:href="#ArialMT-67" x="883.837891"/>
      <use xlink:href="#ArialMT-79" x="939.453125"/>
      <use xlink:href="#ArialMT-20" x="989.453125"/>
      <use xlink:href="#ArialMT-25" x="1017.236328"/>
     </g>
    </g>
   </g>
   <g id="PolyCollection_1">
    <defs>
     <path id="m29258340ff" d="M 101.896279 -151.865316 
L 101.035464 -151.865316 
L 100.943674 -153.413734 
L 100.837502 -154.962152 
L 100.715933 -156.510569 
L 100.578163 -158.058987 
L 100.423666 -159.607405 
L 100.252262 -161.155822 
L 100.064184 -162.70424 
L 99.860137 -164.252658 
L 99.641343 -165.801075 
L 99.409577 -167.349493 
L 99.167177 -168.897911 
L 98.917036 -170.446329 
L 98.662567 -171.994746 
L 98.407646 -173.543164 
L 98.156524 -175.091582 
L 97.913718 -176.639999 
L 97.683885 -178.188417 
L 97.471673 -179.736835 
L 97.281568 -181.285252 
L 97.117736 -182.83367 
L 96.983871 -184.382088 
L 96.883051 -185.930505 
L 96.817621 -187.478923 
L 96.789093 -189.027341 
L 96.798084 -190.575759 
L 96.844279 -192.124176 
L 96.926437 -193.672594 
L 97.042429 -195.221012 
L 97.189298 -196.769429 
L 97.363361 -198.317847 
L 97.560318 -199.866265 
L 97.775381 -201.414682 
L 98.003408 -202.9631 
L 98.239026 -204.511518 
L 98.476762 -206.059936 
L 98.711133 -207.608353 
L 98.93674 -209.156771 
L 99.148314 -210.705189 
L 99.340752 -212.253606 
L 99.509114 -213.802024 
L 99.648606 -215.350442 
L 99.754534 -216.898859 
L 99.822246 -218.447277 
L 99.847069 -219.995695 
L 99.82424 -221.544113 
L 99.748846 -223.09253 
L 99.615787 -224.640948 
L 99.419755 -226.189366 
L 99.15525 -227.737783 
L 98.816639 -229.286201 
L 98.398249 -230.834619 
L 97.894526 -232.383036 
L 97.300224 -233.931454 
L 96.610656 -235.479872 
L 95.821984 -237.02829 
L 94.931543 -238.576707 
L 93.938192 -240.125125 
L 92.842671 -241.673543 
L 91.647954 -243.22196 
L 90.35957 -244.770378 
L 88.985875 -246.318796 
L 87.538246 -247.867213 
L 86.031184 -249.415631 
L 84.482293 -250.964049 
L 82.912138 -252.512466 
L 81.343941 -254.060884 
L 79.80315 -255.609302 
L 78.31685 -257.15772 
L 76.913048 -258.706137 
L 75.619861 -260.254555 
L 74.464609 -261.802973 
L 73.472892 -263.35139 
L 72.667658 -264.899808 
L 72.068331 -266.448226 
L 71.690037 -267.996643 
L 71.542974 -269.545061 
L 71.631958 -271.093479 
L 71.956185 -272.641897 
L 72.509207 -274.190314 
L 73.279143 -275.738732 
L 74.249108 -277.28715 
L 75.397838 -278.835567 
L 76.700482 -280.383985 
L 78.129511 -281.932403 
L 79.655711 -283.48082 
L 81.24919 -285.029238 
L 82.880366 -286.577656 
L 84.52088 -288.126074 
L 86.144403 -289.674491 
L 87.727295 -291.222909 
L 89.249104 -292.771327 
L 90.692899 -294.319744 
L 92.045424 -295.868162 
L 93.297101 -297.41658 
L 94.441876 -298.964997 
L 95.476966 -300.513415 
L 96.402492 -302.061833 
L 97.221068 -303.61025 
L 97.937343 -305.158668 
L 104.994399 -305.158668 
L 104.994399 -305.158668 
L 105.710675 -303.61025 
L 106.529251 -302.061833 
L 107.454777 -300.513415 
L 108.489866 -298.964997 
L 109.634642 -297.41658 
L 110.886318 -295.868162 
L 112.238844 -294.319744 
L 113.682639 -292.771327 
L 115.204448 -291.222909 
L 116.787339 -289.674491 
L 118.410862 -288.126074 
L 120.051377 -286.577656 
L 121.682552 -285.029238 
L 123.276031 -283.48082 
L 124.802231 -281.932403 
L 126.231261 -280.383985 
L 127.533904 -278.835567 
L 128.682635 -277.28715 
L 129.6526 -275.738732 
L 130.422535 -274.190314 
L 130.975557 -272.641897 
L 131.299784 -271.093479 
L 131.388769 -269.545061 
L 131.241705 -267.996643 
L 130.863411 -266.448226 
L 130.264084 -264.899808 
L 129.45885 -263.35139 
L 128.467133 -261.802973 
L 127.311882 -260.254555 
L 126.018694 -258.706137 
L 124.614893 -257.15772 
L 123.128592 -255.609302 
L 121.587801 -254.060884 
L 120.019605 -252.512466 
L 118.449449 -250.964049 
L 116.900559 -249.415631 
L 115.393496 -247.867213 
L 113.945867 -246.318796 
L 112.572172 -244.770378 
L 111.283788 -243.22196 
L 110.089071 -241.673543 
L 108.99355 -240.125125 
L 108.000199 -238.576707 
L 107.109758 -237.02829 
L 106.321087 -235.479872 
L 105.631519 -233.931454 
L 105.037217 -232.383036 
L 104.533493 -230.834619 
L 104.115104 -229.286201 
L 103.776492 -227.737783 
L 103.511987 -226.189366 
L 103.315955 -224.640948 
L 103.182897 -223.09253 
L 103.107503 -221.544113 
L 103.084673 -219.995695 
L 103.109496 -218.447277 
L 103.177209 -216.898859 
L 103.283136 -215.350442 
L 103.422628 -213.802024 
L 103.59099 -212.253606 
L 103.783428 -210.705189 
L 103.995002 -209.156771 
L 104.220609 -207.608353 
L 104.454981 -206.059936 
L 104.692716 -204.511518 
L 104.928335 -202.9631 
L 105.156361 -201.414682 
L 105.371425 -199.866265 
L 105.568382 -198.317847 
L 105.742445 -196.769429 
L 105.889314 -195.221012 
L 106.005305 -193.672594 
L 106.087464 -192.124176 
L 106.133659 -190.575759 
L 106.142649 -189.027341 
L 106.114122 -187.478923 
L 106.048692 -185.930505 
L 105.947872 -184.382088 
L 105.814006 -182.83367 
L 105.650174 -181.285252 
L 105.460069 -179.736835 
L 105.247857 -178.188417 
L 105.018024 -176.639999 
L 104.775219 -175.091582 
L 104.524097 -173.543164 
L 104.269175 -171.994746 
L 104.014707 -170.446329 
L 103.764565 -168.897911 
L 103.522165 -167.349493 
L 103.290399 -165.801075 
L 103.071606 -164.252658 
L 102.867559 -162.70424 
L 102.679481 -161.155822 
L 102.508077 -159.607405 
L 102.353579 -158.058987 
L 102.215809 -156.510569 
L 102.094241 -154.962152 
L 101.988069 -153.413734 
L 101.896279 -151.865316 
z
" style="stroke: #3f3f3f; stroke-width: 1.25"/>
    </defs>
    <g clip-path="url(#p6fd2f60873)">
     <use xlink:href="#m29258340ff" x="0" y="360" style="fill: #3274a1; stroke: #3f3f3f; stroke-width: 1.25"/>
    </g>
   </g>
   <g id="PolyCollection_2">
    <defs>
     <path id="ma91df51a3f" d="M 161.590171 -55.925455 
L 161.033161 -55.925455 
L 160.976577 -58.746758 
L 160.911194 -61.568062 
L 160.836195 -64.389366 
L 160.750782 -67.21067 
L 160.654185 -70.031974 
L 160.545682 -72.853278 
L 160.424607 -75.674582 
L 160.29036 -78.495886 
L 160.14242 -81.31719 
L 159.980352 -84.138494 
L 159.803811 -86.959798 
L 159.612552 -89.781102 
L 159.406431 -92.602406 
L 159.18542 -95.42371 
L 158.94961 -98.245014 
L 158.699229 -101.066318 
L 158.434658 -103.887622 
L 158.156454 -106.708926 
L 157.865378 -109.53023 
L 157.562425 -112.351534 
L 157.248858 -115.172837 
L 156.926244 -117.994141 
L 156.596479 -120.815445 
L 156.261816 -123.636749 
L 155.924876 -126.458053 
L 155.588649 -129.279357 
L 155.256468 -132.100661 
L 154.931971 -134.921965 
L 154.619034 -137.743269 
L 154.32168 -140.564573 
L 154.043963 -143.385877 
L 153.789836 -146.207181 
L 153.562995 -149.028485 
L 153.366719 -151.849789 
L 153.203705 -154.671093 
L 153.075902 -157.492397 
L 152.984369 -160.313701 
L 152.929144 -163.135005 
L 152.909156 -165.956309 
L 152.92216 -168.777612 
L 152.964725 -171.598916 
L 153.032262 -174.42022 
L 153.1191 -177.241524 
L 153.218602 -180.062828 
L 153.323333 -182.884132 
L 153.425249 -185.705436 
L 153.515927 -188.52674 
L 153.586811 -191.348044 
L 153.629473 -194.169348 
L 153.635875 -196.990652 
L 153.598628 -199.811956 
L 153.511244 -202.63326 
L 153.368362 -205.454564 
L 153.165953 -208.275868 
L 152.901494 -211.097172 
L 152.574108 -213.918476 
L 152.18467 -216.73978 
L 151.735861 -219.561084 
L 151.232191 -222.382388 
L 150.679964 -225.203691 
L 150.087208 -228.024995 
L 149.463542 -230.846299 
L 148.820004 -233.667603 
L 148.168827 -236.488907 
L 147.523168 -239.310211 
L 146.896793 -242.131515 
L 146.303737 -244.952819 
L 145.757925 -247.774123 
L 145.272782 -250.595427 
L 144.860844 -253.416731 
L 144.533374 -256.238035 
L 144.300008 -259.059339 
L 144.168439 -261.880643 
L 144.144165 -264.701947 
L 144.230294 -267.523251 
L 144.427441 -270.344555 
L 144.733697 -273.165859 
L 145.144697 -275.987163 
L 145.65377 -278.808466 
L 146.252167 -281.62977 
L 146.92936 -284.451074 
L 147.673405 -287.272378 
L 148.471332 -290.093682 
L 149.309566 -292.914986 
L 150.17435 -295.73629 
L 151.052151 -298.557594 
L 151.930036 -301.378898 
L 152.795999 -304.200202 
L 153.639237 -307.021506 
L 154.450356 -309.84281 
L 155.22151 -312.664114 
L 155.946475 -315.485418 
L 156.620657 -318.306722 
L 157.241035 -321.128026 
L 157.806069 -323.94933 
L 158.315552 -326.770634 
L 158.770444 -329.591938 
L 159.172682 -332.413242 
L 159.52499 -335.234545 
L 163.098342 -335.234545 
L 163.098342 -335.234545 
L 163.45065 -332.413242 
L 163.852889 -329.591938 
L 164.30778 -326.770634 
L 164.817263 -323.94933 
L 165.382297 -321.128026 
L 166.002676 -318.306722 
L 166.676857 -315.485418 
L 167.401823 -312.664114 
L 168.172977 -309.84281 
L 168.984095 -307.021506 
L 169.827333 -304.200202 
L 170.693296 -301.378898 
L 171.571181 -298.557594 
L 172.448982 -295.73629 
L 173.313767 -292.914986 
L 174.152001 -290.093682 
L 174.949927 -287.272378 
L 175.693972 -284.451074 
L 176.371166 -281.62977 
L 176.969562 -278.808466 
L 177.478635 -275.987163 
L 177.889636 -273.165859 
L 178.195891 -270.344555 
L 178.393038 -267.523251 
L 178.479168 -264.701947 
L 178.454893 -261.880643 
L 178.323325 -259.059339 
L 178.089958 -256.238035 
L 177.762488 -253.416731 
L 177.350551 -250.595427 
L 176.865408 -247.774123 
L 176.319595 -244.952819 
L 175.726539 -242.131515 
L 175.100165 -239.310211 
L 174.454505 -236.488907 
L 173.803328 -233.667603 
L 173.159791 -230.846299 
L 172.536125 -228.024995 
L 171.943368 -225.203691 
L 171.391142 -222.382388 
L 170.887471 -219.561084 
L 170.438662 -216.73978 
L 170.049224 -213.918476 
L 169.721839 -211.097172 
L 169.45738 -208.275868 
L 169.25497 -205.454564 
L 169.112088 -202.63326 
L 169.024705 -199.811956 
L 168.987458 -196.990652 
L 168.993859 -194.169348 
L 169.036521 -191.348044 
L 169.107405 -188.52674 
L 169.198083 -185.705436 
L 169.299999 -182.884132 
L 169.40473 -180.062828 
L 169.504233 -177.241524 
L 169.591071 -174.42022 
L 169.658608 -171.598916 
L 169.701173 -168.777612 
L 169.714177 -165.956309 
L 169.694188 -163.135005 
L 169.638964 -160.313701 
L 169.54743 -157.492397 
L 169.419628 -154.671093 
L 169.256613 -151.849789 
L 169.060338 -149.028485 
L 168.833497 -146.207181 
L 168.579369 -143.385877 
L 168.301652 -140.564573 
L 168.004298 -137.743269 
L 167.691361 -134.921965 
L 167.366865 -132.100661 
L 167.034684 -129.279357 
L 166.698456 -126.458053 
L 166.361517 -123.636749 
L 166.026854 -120.815445 
L 165.697089 -117.994141 
L 165.374474 -115.172837 
L 165.060908 -112.351534 
L 164.757955 -109.53023 
L 164.466879 -106.708926 
L 164.188675 -103.887622 
L 163.924104 -101.066318 
L 163.673723 -98.245014 
L 163.437913 -95.42371 
L 163.216901 -92.602406 
L 163.010781 -89.781102 
L 162.819521 -86.959798 
L 162.64298 -84.138494 
L 162.480912 -81.31719 
L 162.332973 -78.495886 
L 162.198726 -75.674582 
L 162.07765 -72.853278 
L 161.969147 -70.031974 
L 161.872551 -67.21067 
L 161.787137 -64.389366 
L 161.712139 -61.568062 
L 161.646755 -58.746758 
L 161.590171 -55.925455 
z
" style="stroke: #3f3f3f; stroke-width: 1.25"/>
    </defs>
    <g clip-path="url(#p6fd2f60873)">
     <use xlink:href="#ma91df51a3f" x="0" y="360" style="fill: #e1812c; stroke: #3f3f3f; stroke-width: 1.25"/>
    </g>
   </g>
   <g id="PolyCollection_3">
    <defs>
     <path id="m4c1f8ac750" d="M 251.272807 -105.9354 
L 250.88791 -105.9354 
L 250.842389 -108.022286 
L 250.788864 -110.109172 
L 250.726614 -112.196058 
L 250.65501 -114.282944 
L 250.573546 -116.36983 
L 250.481871 -118.456717 
L 250.379825 -120.543603 
L 250.26746 -122.630489 
L 250.14506 -124.717375 
L 250.013149 -126.804261 
L 249.872491 -128.891147 
L 249.724074 -130.978033 
L 249.56909 -133.064919 
L 249.408901 -135.151805 
L 249.244997 -137.238691 
L 249.07895 -139.325577 
L 248.912368 -141.412463 
L 248.746849 -143.499349 
L 248.583935 -145.586235 
L 248.425075 -147.673121 
L 248.271602 -149.760007 
L 248.124707 -151.846893 
L 247.985432 -153.933779 
L 247.854664 -156.020665 
L 247.733135 -158.107551 
L 247.621423 -160.194437 
L 247.519953 -162.281323 
L 247.428994 -164.36821 
L 247.348643 -166.455096 
L 247.278809 -168.541982 
L 247.219185 -170.628868 
L 247.169218 -172.715754 
L 247.12807 -174.80264 
L 247.094584 -176.889526 
L 247.067265 -178.976412 
L 247.044259 -181.063298 
L 247.023363 -183.150184 
L 247.002047 -185.23707 
L 246.977504 -187.323956 
L 246.946723 -189.410842 
L 246.906571 -191.497728 
L 246.853905 -193.584614 
L 246.785673 -195.6715 
L 246.699022 -197.758386 
L 246.591386 -199.845272 
L 246.460558 -201.932158 
L 246.304722 -204.019044 
L 246.122458 -206.10593 
L 245.912708 -208.192816 
L 245.674701 -210.279703 
L 245.407864 -212.366589 
L 245.111699 -214.453475 
L 244.785674 -216.540361 
L 244.429111 -218.627247 
L 244.041115 -220.714133 
L 243.620544 -222.801019 
L 243.166038 -224.887905 
L 242.676115 -226.974791 
L 242.149344 -229.061677 
L 241.584581 -231.148563 
L 240.98127 -233.235449 
L 240.339785 -235.322335 
L 239.661794 -237.409221 
L 238.950608 -239.496107 
L 238.211497 -241.582993 
L 237.451928 -243.669879 
L 236.681695 -245.756765 
L 235.912925 -247.843651 
L 235.159922 -249.930537 
L 234.438858 -252.017423 
L 233.767299 -254.104309 
L 233.163591 -256.191195 
L 232.646122 -258.278082 
L 232.232509 -260.364968 
L 231.938757 -262.451854 
L 231.778432 -264.53874 
L 231.761921 -266.625626 
L 231.89581 -268.712512 
L 232.18245 -270.799398 
L 232.61972 -272.886284 
L 233.201022 -274.97317 
L 233.915512 -277.060056 
L 234.748536 -279.146942 
L 235.682267 -281.233828 
L 236.696483 -283.320714 
L 237.769443 -285.4076 
L 238.878798 -287.494486 
L 240.002496 -289.581372 
L 241.119603 -291.668258 
L 242.211026 -293.755144 
L 243.260079 -295.84203 
L 244.25289 -297.928916 
L 245.178626 -300.015802 
L 246.029556 -302.102688 
L 246.800953 -304.189575 
L 247.490881 -306.276461 
L 248.099863 -308.363347 
L 248.6305 -310.450233 
L 249.087042 -312.537119 
L 253.073676 -312.537119 
L 253.073676 -312.537119 
L 253.530218 -310.450233 
L 254.060854 -308.363347 
L 254.669837 -306.276461 
L 255.359764 -304.189575 
L 256.131162 -302.102688 
L 256.982091 -300.015802 
L 257.907827 -297.928916 
L 258.900638 -295.84203 
L 259.949692 -293.755144 
L 261.041115 -291.668258 
L 262.158222 -289.581372 
L 263.281919 -287.494486 
L 264.391275 -285.4076 
L 265.464234 -283.320714 
L 266.478451 -281.233828 
L 267.412182 -279.146942 
L 268.245205 -277.060056 
L 268.959695 -274.97317 
L 269.540998 -272.886284 
L 269.978268 -270.799398 
L 270.264908 -268.712512 
L 270.398797 -266.625626 
L 270.382285 -264.53874 
L 270.221961 -262.451854 
L 269.928209 -260.364968 
L 269.514596 -258.278082 
L 268.997126 -256.191195 
L 268.393418 -254.104309 
L 267.72186 -252.017423 
L 267.000796 -249.930537 
L 266.247793 -247.843651 
L 265.479023 -245.756765 
L 264.70879 -243.669879 
L 263.94922 -241.582993 
L 263.210109 -239.496107 
L 262.498923 -237.409221 
L 261.820932 -235.322335 
L 261.179448 -233.235449 
L 260.576137 -231.148563 
L 260.011373 -229.061677 
L 259.484602 -226.974791 
L 258.99468 -224.887905 
L 258.540173 -222.801019 
L 258.119603 -220.714133 
L 257.731607 -218.627247 
L 257.375044 -216.540361 
L 257.049018 -214.453475 
L 256.752854 -212.366589 
L 256.486016 -210.279703 
L 256.24801 -208.192816 
L 256.038259 -206.10593 
L 255.855996 -204.019044 
L 255.70016 -201.932158 
L 255.569331 -199.845272 
L 255.461696 -197.758386 
L 255.375044 -195.6715 
L 255.306812 -193.584614 
L 255.254146 -191.497728 
L 255.213995 -189.410842 
L 255.183213 -187.323956 
L 255.158671 -185.23707 
L 255.137355 -183.150184 
L 255.116459 -181.063298 
L 255.093453 -178.976412 
L 255.066134 -176.889526 
L 255.032648 -174.80264 
L 254.991499 -172.715754 
L 254.941532 -170.628868 
L 254.881909 -168.541982 
L 254.812075 -166.455096 
L 254.731723 -164.36821 
L 254.640764 -162.281323 
L 254.539295 -160.194437 
L 254.427583 -158.107551 
L 254.306054 -156.020665 
L 254.175286 -153.933779 
L 254.036011 -151.846893 
L 253.889116 -149.760007 
L 253.735643 -147.673121 
L 253.576783 -145.586235 
L 253.413868 -143.499349 
L 253.248349 -141.412463 
L 253.081768 -139.325577 
L 252.915721 -137.238691 
L 252.751816 -135.151805 
L 252.591627 -133.064919 
L 252.436644 -130.978033 
L 252.288227 -128.891147 
L 252.147569 -126.804261 
L 252.015658 -124.717375 
L 251.893257 -122.630489 
L 251.780892 -120.543603 
L 251.678846 -118.456717 
L 251.587172 -116.36983 
L 251.505707 -114.282944 
L 251.434104 -112.196058 
L 251.371854 -110.109172 
L 251.318328 -108.022286 
L 251.272807 -105.9354 
z
" style="stroke: #3f3f3f; stroke-width: 1.25"/>
    </defs>
    <g clip-path="url(#p6fd2f60873)">
     <use xlink:href="#m4c1f8ac750" x="0" y="360" style="fill: #3274a1; stroke: #3f3f3f; stroke-width: 1.25"/>
    </g>
   </g>
   <g id="PolyCollection_4">
    <defs>
     <path id="m61141b554c" d="M 311.211894 -100.240578 
L 310.640414 -100.240578 
L 310.56626 -102.329049 
L 310.479217 -104.41752 
L 310.378901 -106.505991 
L 310.265456 -108.594462 
L 310.139657 -110.682933 
L 310.002995 -112.771404 
L 309.857713 -114.859875 
L 309.706791 -116.948347 
L 309.553872 -119.036818 
L 309.403123 -121.125289 
L 309.259028 -123.21376 
L 309.126133 -125.302231 
L 309.008745 -127.390702 
L 308.910617 -129.479173 
L 308.834631 -131.567644 
L 308.782515 -133.656115 
L 308.754618 -135.744587 
L 308.749752 -137.833058 
L 308.765131 -139.921529 
L 308.796413 -142.01 
L 308.837832 -144.098471 
L 308.882439 -146.186942 
L 308.922413 -148.275413 
L 308.949447 -150.363884 
L 308.95517 -152.452356 
L 308.931596 -154.540827 
L 308.871567 -156.629298 
L 308.769168 -158.717769 
L 308.620098 -160.80624 
L 308.42196 -162.894711 
L 308.174464 -164.983182 
L 307.879512 -167.071653 
L 307.541155 -169.160124 
L 307.165415 -171.248596 
L 306.759955 -173.337067 
L 306.333621 -175.425538 
L 305.895861 -177.514009 
L 305.456055 -179.60248 
L 305.022798 -181.690951 
L 304.603179 -183.779422 
L 304.202123 -185.867893 
L 303.821849 -187.956364 
L 303.46149 -190.044836 
L 303.116929 -192.133307 
L 302.780868 -194.221778 
L 302.443141 -196.310249 
L 302.091258 -198.39872 
L 301.711144 -200.487191 
L 301.288026 -202.575662 
L 300.807393 -204.664133 
L 300.255977 -206.752605 
L 299.622668 -208.841076 
L 298.899312 -210.929547 
L 298.081339 -213.018018 
L 297.168181 -215.106489 
L 296.163469 -217.19496 
L 295.075003 -219.283431 
L 293.914513 -221.371902 
L 292.69724 -223.460373 
L 291.441363 -225.548845 
L 290.167323 -227.637316 
L 288.897094 -229.725787 
L 287.653427 -231.814258 
L 286.459126 -233.902729 
L 285.336386 -235.9912 
L 284.306213 -238.079671 
L 283.387969 -240.168142 
L 282.599017 -242.256614 
L 281.954497 -244.345085 
L 281.46719 -246.433556 
L 281.147463 -248.522027 
L 281.003256 -250.610498 
L 281.040077 -252.698969 
L 281.260978 -254.78744 
L 281.666489 -256.875911 
L 282.254497 -258.964382 
L 283.020089 -261.052854 
L 283.955369 -263.141325 
L 285.049303 -265.229796 
L 286.28763 -267.318267 
L 287.652888 -269.406738 
L 289.124609 -271.495209 
L 290.679691 -273.58368 
L 292.292978 -275.672151 
L 293.938008 -277.760622 
L 295.587911 -279.849094 
L 297.216383 -281.937565 
L 298.798667 -284.026036 
L 300.312473 -286.114507 
L 301.738757 -288.202978 
L 303.062302 -290.291449 
L 304.272073 -292.37992 
L 305.361312 -294.468391 
L 306.327407 -296.556863 
L 307.171532 -298.645334 
L 307.89814 -300.733805 
L 308.514325 -302.822276 
L 309.029141 -304.910747 
L 309.452915 -306.999218 
L 312.399393 -306.999218 
L 312.399393 -306.999218 
L 312.823166 -304.910747 
L 313.337982 -302.822276 
L 313.954167 -300.733805 
L 314.680775 -298.645334 
L 315.524901 -296.556863 
L 316.490995 -294.468391 
L 317.580235 -292.37992 
L 318.790005 -290.291449 
L 320.113551 -288.202978 
L 321.539835 -286.114507 
L 323.053641 -284.026036 
L 324.635925 -281.937565 
L 326.264396 -279.849094 
L 327.914299 -277.760622 
L 329.559329 -275.672151 
L 331.172616 -273.58368 
L 332.727699 -271.495209 
L 334.199419 -269.406738 
L 335.564678 -267.318267 
L 336.803005 -265.229796 
L 337.896939 -263.141325 
L 338.832219 -261.052854 
L 339.597811 -258.964382 
L 340.185819 -256.875911 
L 340.59133 -254.78744 
L 340.812231 -252.698969 
L 340.849051 -250.610498 
L 340.704844 -248.522027 
L 340.385117 -246.433556 
L 339.89781 -244.345085 
L 339.25329 -242.256614 
L 338.464339 -240.168142 
L 337.546094 -238.079671 
L 336.515922 -235.9912 
L 335.393181 -233.902729 
L 334.198881 -231.814258 
L 332.955214 -229.725787 
L 331.684985 -227.637316 
L 330.410945 -225.548845 
L 329.155067 -223.460373 
L 327.937794 -221.371902 
L 326.777305 -219.283431 
L 325.688838 -217.19496 
L 324.684126 -215.106489 
L 323.770968 -213.018018 
L 322.952996 -210.929547 
L 322.22964 -208.841076 
L 321.596331 -206.752605 
L 321.044914 -204.664133 
L 320.564282 -202.575662 
L 320.141163 -200.487191 
L 319.76105 -198.39872 
L 319.409167 -196.310249 
L 319.071439 -194.221778 
L 318.735378 -192.133307 
L 318.390817 -190.044836 
L 318.030458 -187.956364 
L 317.650184 -185.867893 
L 317.249129 -183.779422 
L 316.829509 -181.690951 
L 316.396252 -179.60248 
L 315.956447 -177.514009 
L 315.518687 -175.425538 
L 315.092353 -173.337067 
L 314.686892 -171.248596 
L 314.311152 -169.160124 
L 313.972796 -167.071653 
L 313.677844 -164.983182 
L 313.430348 -162.894711 
L 313.23221 -160.80624 
L 313.08314 -158.717769 
L 312.980741 -156.629298 
L 312.920711 -154.540827 
L 312.897137 -152.452356 
L 312.902861 -150.363884 
L 312.929895 -148.275413 
L 312.969869 -146.186942 
L 313.014475 -144.098471 
L 313.055895 -142.01 
L 313.087176 -139.921529 
L 313.102556 -137.833058 
L 313.097689 -135.744587 
L 313.069792 -133.656115 
L 313.017677 -131.567644 
L 312.94169 -129.479173 
L 312.843562 -127.390702 
L 312.726175 -125.302231 
L 312.59328 -123.21376 
L 312.449185 -121.125289 
L 312.298435 -119.036818 
L 312.145517 -116.948347 
L 311.994594 -114.859875 
L 311.849312 -112.771404 
L 311.712651 -110.682933 
L 311.586852 -108.594462 
L 311.473406 -106.505991 
L 311.37309 -104.41752 
L 311.286048 -102.329049 
L 311.211894 -100.240578 
z
" style="stroke: #3f3f3f; stroke-width: 1.25"/>
    </defs>
    <g clip-path="url(#p6fd2f60873)">
     <use xlink:href="#m61141b554c" x="0" y="360" style="fill: #e1812c; stroke: #3f3f3f; stroke-width: 1.25"/>
    </g>
   </g>
   <g id="patch_3">
    <path d="M 131.388769 319.638339 
L 131.388769 319.638339 
L 131.388769 319.638339 
L 131.388769 319.638339 
z
" clip-path="url(#p6fd2f60873)" style="fill: #3274a1; stroke: #3f3f3f; stroke-width: 1.25; stroke-linejoin: miter"/>
   </g>
   <g id="patch_4">
    <path d="M 131.388769 319.638339 
L 131.388769 319.638339 
L 131.388769 319.638339 
L 131.388769 319.638339 
z
" clip-path="url(#p6fd2f60873)" style="fill: #e1812c; stroke: #3f3f3f; stroke-width: 1.25; stroke-linejoin: miter"/>
   </g>
   <g id="line2d_7">
    <path d="M 101.465871 105.183213 
L 101.465871 88.13636 
" clip-path="url(#p6fd2f60873)" style="fill: none; stroke: #3f3f3f; stroke-width: 1.875; stroke-linecap: round"/>
   </g>
   <g id="line2d_8">
    <path d="M 101.465871 96.845183 
L 101.465871 88.13636 
" clip-path="url(#p6fd2f60873)" style="fill: none; stroke: #3f3f3f; stroke-width: 5.625; stroke-linecap: round"/>
   </g>
   <g id="line2d_9">
    <path d="M 101.465871 88.13636 
" clip-path="url(#p6fd2f60873)" style="fill: none; stroke: #3f3f3f; stroke-width: 1.5; stroke-linecap: round"/>
    <defs>
     <path id="m1404079c18" d="M 2.34375 0 
L -2.34375 -0 
" style="stroke: #ffffff; stroke-width: 1.125"/>
    </defs>
    <g clip-path="url(#p6fd2f60873)">
     <use xlink:href="#m1404079c18" x="101.465871" y="88.13636" style="fill: #ffffff; stroke: #ffffff; stroke-width: 1.125"/>
    </g>
   </g>
   <g id="line2d_10">
    <path d="M 161.311666 240.70364 
L 161.311666 88.13636 
" clip-path="url(#p6fd2f60873)" style="fill: none; stroke: #3f3f3f; stroke-width: 1.875; stroke-linecap: round"/>
   </g>
   <g id="line2d_11">
    <path d="M 161.311666 188.48588 
L 161.311666 88.13636 
" clip-path="url(#p6fd2f60873)" style="fill: none; stroke: #3f3f3f; stroke-width: 5.625; stroke-linecap: round"/>
   </g>
   <g id="line2d_12">
    <path d="M 161.311666 102.899574 
" clip-path="url(#p6fd2f60873)" style="fill: none; stroke: #3f3f3f; stroke-width: 1.5; stroke-linecap: round"/>
    <g clip-path="url(#p6fd2f60873)">
     <use xlink:href="#m1404079c18" x="161.311666" y="102.899574" style="fill: #ffffff; stroke: #ffffff; stroke-width: 1.125"/>
    </g>
   </g>
   <g id="line2d_13">
    <path d="M 251.080359 196.805363 
L 251.080359 88.13636 
" clip-path="url(#p6fd2f60873)" style="fill: none; stroke: #3f3f3f; stroke-width: 1.875; stroke-linecap: round"/>
   </g>
   <g id="line2d_14">
    <path d="M 251.080359 132.06401 
L 251.080359 88.13636 
" clip-path="url(#p6fd2f60873)" style="fill: none; stroke: #3f3f3f; stroke-width: 5.625; stroke-linecap: round"/>
   </g>
   <g id="line2d_15">
    <path d="M 251.080359 96.38924 
" clip-path="url(#p6fd2f60873)" style="fill: none; stroke: #3f3f3f; stroke-width: 1.5; stroke-linecap: round"/>
    <g clip-path="url(#p6fd2f60873)">
     <use xlink:href="#m1404079c18" x="251.080359" y="96.38924" style="fill: #ffffff; stroke: #ffffff; stroke-width: 1.125"/>
    </g>
   </g>
   <g id="line2d_16">
    <path d="M 310.926154 174.930894 
L 310.926154 88.13636 
" clip-path="url(#p6fd2f60873)" style="fill: none; stroke: #3f3f3f; stroke-width: 1.875; stroke-linecap: round"/>
   </g>
   <g id="line2d_17">
    <path d="M 310.926154 133.347889 
L 310.926154 99.236213 
" clip-path="url(#p6fd2f60873)" style="fill: none; stroke: #3f3f3f; stroke-width: 5.625; stroke-linecap: round"/>
   </g>
   <g id="line2d_18">
    <path d="M 310.926154 114.144925 
" clip-path="url(#p6fd2f60873)" style="fill: none; stroke: #3f3f3f; stroke-width: 1.5; stroke-linecap: round"/>
    <g clip-path="url(#p6fd2f60873)">
     <use xlink:href="#m1404079c18" x="310.926154" y="114.144925" style="fill: #ffffff; stroke: #ffffff; stroke-width: 1.125"/>
    </g>
   </g>
   <g id="patch_5">
    <path d="M 56.581525 318.04 
L 56.581525 10.8 
" style="fill: none; stroke: #cccccc; stroke-width: 0.8; stroke-linejoin: miter; stroke-linecap: square"/>
   </g>
   <g id="patch_6">
    <path d="M 56.581525 318.04 
L 355.8105 318.04 
" style="fill: none; stroke: #cccccc; stroke-width: 0.8; stroke-linejoin: miter; stroke-linecap: square"/>
   </g>
  </g>
  <g id="legend_1">
   <g id="text_11">
    <!-- Time -->
    <g style="fill: #262626" transform="translate(373.633594 168.439844) scale(0.1 -0.1)">
     <defs>
      <path id="ArialMT-54" d="M 1659 0 
L 1659 4041 
L 150 4041 
L 150 4581 
L 3781 4581 
L 3781 4041 
L 2266 4041 
L 2266 0 
L 1659 0 
z
" transform="scale(0.015625)"/>
      <path id="ArialMT-69" d="M 425 3934 
L 425 4581 
L 988 4581 
L 988 3934 
L 425 3934 
z
M 425 0 
L 425 3319 
L 988 3319 
L 988 0 
L 425 0 
z
" transform="scale(0.015625)"/>
     </defs>
     <use xlink:href="#ArialMT-54"/>
     <use xlink:href="#ArialMT-69" x="57.333984"/>
     <use xlink:href="#ArialMT-6d" x="79.550781"/>
     <use xlink:href="#ArialMT-65" x="162.851562"/>
    </g>
   </g>
   <g id="patch_7">
    <path d="M 359.1625 182.585156 
L 379.1625 182.585156 
L 379.1625 175.585156 
L 359.1625 175.585156 
z
" style="fill: #3274a1; stroke: #3f3f3f; stroke-width: 1.25; stroke-linejoin: miter"/>
   </g>
   <g id="text_12">
    <!-- initial -->
    <g style="fill: #262626" transform="translate(387.1625 182.585156) scale(0.1 -0.1)">
     <defs>
      <path id="ArialMT-6c" d="M 409 0 
L 409 4581 
L 972 4581 
L 972 0 
L 409 0 
z
" transform="scale(0.015625)"/>
     </defs>
     <use xlink:href="#ArialMT-69"/>
     <use xlink:href="#ArialMT-6e" x="22.216797"/>
     <use xlink:href="#ArialMT-69" x="77.832031"/>
     <use xlink:href="#ArialMT-74" x="100.048828"/>
     <use xlink:href="#ArialMT-69" x="127.832031"/>
     <use xlink:href="#ArialMT-61" x="150.048828"/>
     <use xlink:href="#ArialMT-6c" x="205.664062"/>
    </g>
   </g>
   <g id="patch_8">
    <path d="M 359.1625 196.730469 
L 379.1625 196.730469 
L 379.1625 189.730469 
L 359.1625 189.730469 
z
" style="fill: #e1812c; stroke: #3f3f3f; stroke-width: 1.25; stroke-linejoin: miter"/>
   </g>
   <g id="text_13">
    <!-- final -->
    <g style="fill: #262626" transform="translate(387.1625 196.730469) scale(0.1 -0.1)">
     <use xlink:href="#ArialMT-66"/>
     <use xlink:href="#ArialMT-69" x="27.783203"/>
     <use xlink:href="#ArialMT-6e" x="50"/>
     <use xlink:href="#ArialMT-61" x="105.615234"/>
     <use xlink:href="#ArialMT-6c" x="161.230469"/>
    </g>
   </g>
  </g>
 </g>
 <defs>
  <clipPath id="p6fd2f60873">
   <rect x="56.581525" y="10.8" width="299.228975" height="307.24"/>
  </clipPath>
 </defs>
</svg>
