<?xml version="1.0" encoding="utf-8" standalone="no"?>
<!DOCTYPE svg PUBLIC "-//W3C//DTD SVG 1.1//EN"
  "http://www.w3.org/Graphics/SVG/1.1/DTD/svg11.dtd">
<svg xmlns:xlink="http://www.w3.org/1999/xlink" width="418.95pt" height="360pt" viewBox="0 0 418.95 360" xmlns="http://www.w3.org/2000/svg" version="1.1">
 <metadata>
  <rdf:RDF xmlns:dc="http://purl.org/dc/elements/1.1/" xmlns:cc="http://creativecommons.org/ns#" xmlns:rdf="http://www.w3.org/1999/02/22-rdf-syntax-ns#">
   <cc:Work>
    <dc:type rdf:resource="http://purl.org/dc/dcmitype/StillImage"/>
    <dc:date>2024-09-10T22:07:21.786637</dc:date>
    <dc:format>image/svg+xml</dc:format>
    <dc:creator>
     <cc:Agent>
      <dc:title>Matplotlib v3.8.3, https://matplotlib.org/</dc:title>
     </cc:Agent>
    </dc:creator>
   </cc:Work>
  </rdf:RDF>
 </metadata>
 <defs>
  <style type="text/css">*{stroke-linejoin: round; stroke-linecap: butt}</style>
 </defs>
 <g id="figure_1">
  <g id="patch_1">
   <path d="M 0 360 
L 418.95 360 
L 418.95 0 
L 0 0 
z
" style="fill: #ffffff"/>
  </g>
  <g id="axes_1">
   <g id="patch_2">
    <path d="M 63.389463 318.04 
L 355.8105 318.04 
L 355.8105 10.8 
L 63.389463 10.8 
z
" style="fill: #ffffff"/>
   </g>
   <g id="matplotlib.axis_1">
    <g id="xtick_1">
     <g id="text_1">
      <!-- f -->
      <g style="fill: #262626" transform="translate(135.105659 332.197812) scale(0.1 -0.1)">
       <defs>
        <path id="ArialMT-66" d="M 556 0 
L 556 2881 
L 59 2881 
L 59 3319 
L 556 3319 
L 556 3672 
Q 556 4006 616 4169 
Q 697 4388 901 4523 
Q 1106 4659 1475 4659 
Q 1713 4659 2000 4603 
L 1916 4113 
Q 1741 4144 1584 4144 
Q 1328 4144 1222 4034 
Q 1116 3925 1116 3625 
L 1116 3319 
L 1763 3319 
L 1763 2881 
L 1116 2881 
L 1116 0 
L 556 0 
z
" transform="scale(0.015625)"/>
       </defs>
       <use xlink:href="#ArialMT-66"/>
      </g>
     </g>
    </g>
    <g id="xtick_2">
     <g id="text_2">
      <!-- m -->
      <g style="fill: #262626" transform="translate(278.540397 332.197812) scale(0.1 -0.1)">
       <defs>
        <path id="ArialMT-6d" d="M 422 0 
L 422 3319 
L 925 3319 
L 925 2853 
Q 1081 3097 1340 3245 
Q 1600 3394 1931 3394 
Q 2300 3394 2536 3241 
Q 2772 3088 2869 2813 
Q 3263 3394 3894 3394 
Q 4388 3394 4653 3120 
Q 4919 2847 4919 2278 
L 4919 0 
L 4359 0 
L 4359 2091 
Q 4359 2428 4304 2576 
Q 4250 2725 4106 2815 
Q 3963 2906 3769 2906 
Q 3419 2906 3187 2673 
Q 2956 2441 2956 1928 
L 2956 0 
L 2394 0 
L 2394 2156 
Q 2394 2531 2256 2718 
Q 2119 2906 1806 2906 
Q 1569 2906 1367 2781 
Q 1166 2656 1075 2415 
Q 984 2175 984 1722 
L 984 0 
L 422 0 
z
" transform="scale(0.015625)"/>
       </defs>
       <use xlink:href="#ArialMT-6d"/>
      </g>
     </g>
    </g>
    <g id="text_3">
     <!-- sex -->
     <g style="fill: #262626" transform="translate(201.819513 345.343125) scale(0.1 -0.1)">
      <defs>
       <path id="ArialMT-73" d="M 197 991 
L 753 1078 
Q 800 744 1014 566 
Q 1228 388 1613 388 
Q 2000 388 2187 545 
Q 2375 703 2375 916 
Q 2375 1106 2209 1216 
Q 2094 1291 1634 1406 
Q 1016 1563 777 1677 
Q 538 1791 414 1992 
Q 291 2194 291 2438 
Q 291 2659 392 2848 
Q 494 3038 669 3163 
Q 800 3259 1026 3326 
Q 1253 3394 1513 3394 
Q 1903 3394 2198 3281 
Q 2494 3169 2634 2976 
Q 2775 2784 2828 2463 
L 2278 2388 
Q 2241 2644 2061 2787 
Q 1881 2931 1553 2931 
Q 1166 2931 1000 2803 
Q 834 2675 834 2503 
Q 834 2394 903 2306 
Q 972 2216 1119 2156 
Q 1203 2125 1616 2013 
Q 2213 1853 2448 1751 
Q 2684 1650 2818 1456 
Q 2953 1263 2953 975 
Q 2953 694 2789 445 
Q 2625 197 2315 61 
Q 2006 -75 1616 -75 
Q 969 -75 630 194 
Q 291 463 197 991 
z
" transform="scale(0.015625)"/>
       <path id="ArialMT-65" d="M 2694 1069 
L 3275 997 
Q 3138 488 2766 206 
Q 2394 -75 1816 -75 
Q 1088 -75 661 373 
Q 234 822 234 1631 
Q 234 2469 665 2931 
Q 1097 3394 1784 3394 
Q 2450 3394 2872 2941 
Q 3294 2488 3294 1666 
Q 3294 1616 3291 1516 
L 816 1516 
Q 847 969 1125 678 
Q 1403 388 1819 388 
Q 2128 388 2347 550 
Q 2566 713 2694 1069 
z
M 847 1978 
L 2700 1978 
Q 2663 2397 2488 2606 
Q 2219 2931 1791 2931 
Q 1403 2931 1139 2672 
Q 875 2413 847 1978 
z
" transform="scale(0.015625)"/>
       <path id="ArialMT-78" d="M 47 0 
L 1259 1725 
L 138 3319 
L 841 3319 
L 1350 2541 
Q 1494 2319 1581 2169 
Q 1719 2375 1834 2534 
L 2394 3319 
L 3066 3319 
L 1919 1756 
L 3153 0 
L 2463 0 
L 1781 1031 
L 1600 1309 
L 728 0 
L 47 0 
z
" transform="scale(0.015625)"/>
      </defs>
      <use xlink:href="#ArialMT-73"/>
      <use xlink:href="#ArialMT-65" x="50"/>
      <use xlink:href="#ArialMT-78" x="105.615234"/>
     </g>
    </g>
   </g>
   <g id="matplotlib.axis_2">
    <g id="ytick_1">
     <g id="line2d_1">
      <path d="M 63.389463 316.484125 
L 355.8105 316.484125 
" clip-path="url(#p0aef160cbf)" style="fill: none; stroke: #cccccc; stroke-width: 0.8; stroke-linecap: round"/>
     </g>
     <g id="text_4">
      <!-- −100 -->
      <g style="fill: #262626" transform="translate(33.866025 320.063032) scale(0.1 -0.1)">
       <defs>
        <path id="ArialMT-2212" d="M 3381 1997 
L 356 1997 
L 356 2522 
L 3381 2522 
L 3381 1997 
z
" transform="scale(0.015625)"/>
        <path id="ArialMT-31" d="M 2384 0 
L 1822 0 
L 1822 3584 
Q 1619 3391 1289 3197 
Q 959 3003 697 2906 
L 697 3450 
Q 1169 3672 1522 3987 
Q 1875 4303 2022 4600 
L 2384 4600 
L 2384 0 
z
" transform="scale(0.015625)"/>
        <path id="ArialMT-30" d="M 266 2259 
Q 266 3072 433 3567 
Q 600 4063 929 4331 
Q 1259 4600 1759 4600 
Q 2128 4600 2406 4451 
Q 2684 4303 2865 4023 
Q 3047 3744 3150 3342 
Q 3253 2941 3253 2259 
Q 3253 1453 3087 958 
Q 2922 463 2592 192 
Q 2263 -78 1759 -78 
Q 1097 -78 719 397 
Q 266 969 266 2259 
z
M 844 2259 
Q 844 1131 1108 757 
Q 1372 384 1759 384 
Q 2147 384 2411 759 
Q 2675 1134 2675 2259 
Q 2675 3391 2411 3762 
Q 2147 4134 1753 4134 
Q 1366 4134 1134 3806 
Q 844 3388 844 2259 
z
" transform="scale(0.015625)"/>
       </defs>
       <use xlink:href="#ArialMT-2212"/>
       <use xlink:href="#ArialMT-31" x="58.398438"/>
       <use xlink:href="#ArialMT-30" x="114.013672"/>
       <use xlink:href="#ArialMT-30" x="169.628906"/>
      </g>
     </g>
    </g>
    <g id="ytick_2">
     <g id="line2d_2">
      <path d="M 63.389463 276.271423 
L 355.8105 276.271423 
" clip-path="url(#p0aef160cbf)" style="fill: none; stroke: #cccccc; stroke-width: 0.8; stroke-linecap: round"/>
     </g>
     <g id="text_5">
      <!-- 0 -->
      <g style="fill: #262626" transform="translate(50.828525 279.850329) scale(0.1 -0.1)">
       <use xlink:href="#ArialMT-30"/>
      </g>
     </g>
    </g>
    <g id="ytick_3">
     <g id="line2d_3">
      <path d="M 63.389463 236.058721 
L 355.8105 236.058721 
" clip-path="url(#p0aef160cbf)" style="fill: none; stroke: #cccccc; stroke-width: 0.8; stroke-linecap: round"/>
     </g>
     <g id="text_6">
      <!-- 100 -->
      <g style="fill: #262626" transform="translate(39.70665 239.637627) scale(0.1 -0.1)">
       <use xlink:href="#ArialMT-31"/>
       <use xlink:href="#ArialMT-30" x="55.615234"/>
       <use xlink:href="#ArialMT-30" x="111.230469"/>
      </g>
     </g>
    </g>
    <g id="ytick_4">
     <g id="line2d_4">
      <path d="M 63.389463 195.846018 
L 355.8105 195.846018 
" clip-path="url(#p0aef160cbf)" style="fill: none; stroke: #cccccc; stroke-width: 0.8; stroke-linecap: round"/>
     </g>
     <g id="text_7">
      <!-- 200 -->
      <g style="fill: #262626" transform="translate(39.70665 199.424925) scale(0.1 -0.1)">
       <defs>
        <path id="ArialMT-32" d="M 3222 541 
L 3222 0 
L 194 0 
Q 188 203 259 391 
Q 375 700 629 1000 
Q 884 1300 1366 1694 
Q 2113 2306 2375 2664 
Q 2638 3022 2638 3341 
Q 2638 3675 2398 3904 
Q 2159 4134 1775 4134 
Q 1369 4134 1125 3890 
Q 881 3647 878 3216 
L 300 3275 
Q 359 3922 746 4261 
Q 1134 4600 1788 4600 
Q 2447 4600 2831 4234 
Q 3216 3869 3216 3328 
Q 3216 3053 3103 2787 
Q 2991 2522 2730 2228 
Q 2469 1934 1863 1422 
Q 1356 997 1212 845 
Q 1069 694 975 541 
L 3222 541 
z
" transform="scale(0.015625)"/>
       </defs>
       <use xlink:href="#ArialMT-32"/>
       <use xlink:href="#ArialMT-30" x="55.615234"/>
       <use xlink:href="#ArialMT-30" x="111.230469"/>
      </g>
     </g>
    </g>
    <g id="ytick_5">
     <g id="line2d_5">
      <path d="M 63.389463 155.633316 
L 355.8105 155.633316 
" clip-path="url(#p0aef160cbf)" style="fill: none; stroke: #cccccc; stroke-width: 0.8; stroke-linecap: round"/>
     </g>
     <g id="text_8">
      <!-- 300 -->
      <g style="fill: #262626" transform="translate(39.70665 159.212222) scale(0.1 -0.1)">
       <defs>
        <path id="ArialMT-33" d="M 269 1209 
L 831 1284 
Q 928 806 1161 595 
Q 1394 384 1728 384 
Q 2125 384 2398 659 
Q 2672 934 2672 1341 
Q 2672 1728 2419 1979 
Q 2166 2231 1775 2231 
Q 1616 2231 1378 2169 
L 1441 2663 
Q 1497 2656 1531 2656 
Q 1891 2656 2178 2843 
Q 2466 3031 2466 3422 
Q 2466 3731 2256 3934 
Q 2047 4138 1716 4138 
Q 1388 4138 1169 3931 
Q 950 3725 888 3313 
L 325 3413 
Q 428 3978 793 4289 
Q 1159 4600 1703 4600 
Q 2078 4600 2393 4439 
Q 2709 4278 2876 4000 
Q 3044 3722 3044 3409 
Q 3044 3113 2884 2869 
Q 2725 2625 2413 2481 
Q 2819 2388 3044 2092 
Q 3269 1797 3269 1353 
Q 3269 753 2831 336 
Q 2394 -81 1725 -81 
Q 1122 -81 723 278 
Q 325 638 269 1209 
z
" transform="scale(0.015625)"/>
       </defs>
       <use xlink:href="#ArialMT-33"/>
       <use xlink:href="#ArialMT-30" x="55.615234"/>
       <use xlink:href="#ArialMT-30" x="111.230469"/>
      </g>
     </g>
    </g>
    <g id="ytick_6">
     <g id="line2d_6">
      <path d="M 63.389463 115.420614 
L 355.8105 115.420614 
" clip-path="url(#p0aef160cbf)" style="fill: none; stroke: #cccccc; stroke-width: 0.8; stroke-linecap: round"/>
     </g>
     <g id="text_9">
      <!-- 400 -->
      <g style="fill: #262626" transform="translate(39.70665 118.99952) scale(0.1 -0.1)">
       <defs>
        <path id="ArialMT-34" d="M 2069 0 
L 2069 1097 
L 81 1097 
L 81 1613 
L 2172 4581 
L 2631 4581 
L 2631 1613 
L 3250 1613 
L 3250 1097 
L 2631 1097 
L 2631 0 
L 2069 0 
z
M 2069 1613 
L 2069 3678 
L 634 1613 
L 2069 1613 
z
" transform="scale(0.015625)"/>
       </defs>
       <use xlink:href="#ArialMT-34"/>
       <use xlink:href="#ArialMT-30" x="55.615234"/>
       <use xlink:href="#ArialMT-30" x="111.230469"/>
      </g>
     </g>
    </g>
    <g id="ytick_7">
     <g id="line2d_7">
      <path d="M 63.389463 75.207911 
L 355.8105 75.207911 
" clip-path="url(#p0aef160cbf)" style="fill: none; stroke: #cccccc; stroke-width: 0.8; stroke-linecap: round"/>
     </g>
     <g id="text_10">
      <!-- 500 -->
      <g style="fill: #262626" transform="translate(39.70665 78.786818) scale(0.1 -0.1)">
       <defs>
        <path id="ArialMT-35" d="M 266 1200 
L 856 1250 
Q 922 819 1161 601 
Q 1400 384 1738 384 
Q 2144 384 2425 690 
Q 2706 997 2706 1503 
Q 2706 1984 2436 2262 
Q 2166 2541 1728 2541 
Q 1456 2541 1237 2417 
Q 1019 2294 894 2097 
L 366 2166 
L 809 4519 
L 3088 4519 
L 3088 3981 
L 1259 3981 
L 1013 2750 
Q 1425 3038 1878 3038 
Q 2478 3038 2890 2622 
Q 3303 2206 3303 1553 
Q 3303 931 2941 478 
Q 2500 -78 1738 -78 
Q 1113 -78 717 272 
Q 322 622 266 1200 
z
" transform="scale(0.015625)"/>
       </defs>
       <use xlink:href="#ArialMT-35"/>
       <use xlink:href="#ArialMT-30" x="55.615234"/>
       <use xlink:href="#ArialMT-30" x="111.230469"/>
      </g>
     </g>
    </g>
    <g id="ytick_8">
     <g id="line2d_8">
      <path d="M 63.389463 34.995209 
L 355.8105 34.995209 
" clip-path="url(#p0aef160cbf)" style="fill: none; stroke: #cccccc; stroke-width: 0.8; stroke-linecap: round"/>
     </g>
     <g id="text_11">
      <!-- 600 -->
      <g style="fill: #262626" transform="translate(39.70665 38.574115) scale(0.1 -0.1)">
       <defs>
        <path id="ArialMT-36" d="M 3184 3459 
L 2625 3416 
Q 2550 3747 2413 3897 
Q 2184 4138 1850 4138 
Q 1581 4138 1378 3988 
Q 1113 3794 959 3422 
Q 806 3050 800 2363 
Q 1003 2672 1297 2822 
Q 1591 2972 1913 2972 
Q 2475 2972 2870 2558 
Q 3266 2144 3266 1488 
Q 3266 1056 3080 686 
Q 2894 316 2569 119 
Q 2244 -78 1831 -78 
Q 1128 -78 684 439 
Q 241 956 241 2144 
Q 241 3472 731 4075 
Q 1159 4600 1884 4600 
Q 2425 4600 2770 4297 
Q 3116 3994 3184 3459 
z
M 888 1484 
Q 888 1194 1011 928 
Q 1134 663 1356 523 
Q 1578 384 1822 384 
Q 2178 384 2434 671 
Q 2691 959 2691 1453 
Q 2691 1928 2437 2201 
Q 2184 2475 1800 2475 
Q 1419 2475 1153 2201 
Q 888 1928 888 1484 
z
" transform="scale(0.015625)"/>
       </defs>
       <use xlink:href="#ArialMT-36"/>
       <use xlink:href="#ArialMT-30" x="55.615234"/>
       <use xlink:href="#ArialMT-30" x="111.230469"/>
      </g>
     </g>
    </g>
    <g id="text_12">
     <!-- Carbohydrates energy (kcal/h) -->
     <g style="fill: #262626" transform="translate(27.761337 231.668438) rotate(-90) scale(0.1 -0.1)">
      <defs>
       <path id="ArialMT-43" d="M 3763 1606 
L 4369 1453 
Q 4178 706 3683 314 
Q 3188 -78 2472 -78 
Q 1731 -78 1267 223 
Q 803 525 561 1097 
Q 319 1669 319 2325 
Q 319 3041 592 3573 
Q 866 4106 1370 4382 
Q 1875 4659 2481 4659 
Q 3169 4659 3637 4309 
Q 4106 3959 4291 3325 
L 3694 3184 
Q 3534 3684 3231 3912 
Q 2928 4141 2469 4141 
Q 1941 4141 1586 3887 
Q 1231 3634 1087 3207 
Q 944 2781 944 2328 
Q 944 1744 1114 1308 
Q 1284 872 1643 656 
Q 2003 441 2422 441 
Q 2931 441 3284 734 
Q 3638 1028 3763 1606 
z
" transform="scale(0.015625)"/>
       <path id="ArialMT-61" d="M 2588 409 
Q 2275 144 1986 34 
Q 1697 -75 1366 -75 
Q 819 -75 525 192 
Q 231 459 231 875 
Q 231 1119 342 1320 
Q 453 1522 633 1644 
Q 813 1766 1038 1828 
Q 1203 1872 1538 1913 
Q 2219 1994 2541 2106 
Q 2544 2222 2544 2253 
Q 2544 2597 2384 2738 
Q 2169 2928 1744 2928 
Q 1347 2928 1158 2789 
Q 969 2650 878 2297 
L 328 2372 
Q 403 2725 575 2942 
Q 747 3159 1072 3276 
Q 1397 3394 1825 3394 
Q 2250 3394 2515 3294 
Q 2781 3194 2906 3042 
Q 3031 2891 3081 2659 
Q 3109 2516 3109 2141 
L 3109 1391 
Q 3109 606 3145 398 
Q 3181 191 3288 0 
L 2700 0 
Q 2613 175 2588 409 
z
M 2541 1666 
Q 2234 1541 1622 1453 
Q 1275 1403 1131 1340 
Q 988 1278 909 1158 
Q 831 1038 831 891 
Q 831 666 1001 516 
Q 1172 366 1500 366 
Q 1825 366 2078 508 
Q 2331 650 2450 897 
Q 2541 1088 2541 1459 
L 2541 1666 
z
" transform="scale(0.015625)"/>
       <path id="ArialMT-72" d="M 416 0 
L 416 3319 
L 922 3319 
L 922 2816 
Q 1116 3169 1280 3281 
Q 1444 3394 1641 3394 
Q 1925 3394 2219 3213 
L 2025 2691 
Q 1819 2813 1613 2813 
Q 1428 2813 1281 2702 
Q 1134 2591 1072 2394 
Q 978 2094 978 1738 
L 978 0 
L 416 0 
z
" transform="scale(0.015625)"/>
       <path id="ArialMT-62" d="M 941 0 
L 419 0 
L 419 4581 
L 981 4581 
L 981 2947 
Q 1338 3394 1891 3394 
Q 2197 3394 2470 3270 
Q 2744 3147 2920 2923 
Q 3097 2700 3197 2384 
Q 3297 2069 3297 1709 
Q 3297 856 2875 390 
Q 2453 -75 1863 -75 
Q 1275 -75 941 416 
L 941 0 
z
M 934 1684 
Q 934 1088 1097 822 
Q 1363 388 1816 388 
Q 2184 388 2453 708 
Q 2722 1028 2722 1663 
Q 2722 2313 2464 2622 
Q 2206 2931 1841 2931 
Q 1472 2931 1203 2611 
Q 934 2291 934 1684 
z
" transform="scale(0.015625)"/>
       <path id="ArialMT-6f" d="M 213 1659 
Q 213 2581 725 3025 
Q 1153 3394 1769 3394 
Q 2453 3394 2887 2945 
Q 3322 2497 3322 1706 
Q 3322 1066 3130 698 
Q 2938 331 2570 128 
Q 2203 -75 1769 -75 
Q 1072 -75 642 372 
Q 213 819 213 1659 
z
M 791 1659 
Q 791 1022 1069 705 
Q 1347 388 1769 388 
Q 2188 388 2466 706 
Q 2744 1025 2744 1678 
Q 2744 2294 2464 2611 
Q 2184 2928 1769 2928 
Q 1347 2928 1069 2612 
Q 791 2297 791 1659 
z
" transform="scale(0.015625)"/>
       <path id="ArialMT-68" d="M 422 0 
L 422 4581 
L 984 4581 
L 984 2938 
Q 1378 3394 1978 3394 
Q 2347 3394 2619 3248 
Q 2891 3103 3008 2847 
Q 3125 2591 3125 2103 
L 3125 0 
L 2563 0 
L 2563 2103 
Q 2563 2525 2380 2717 
Q 2197 2909 1863 2909 
Q 1613 2909 1392 2779 
Q 1172 2650 1078 2428 
Q 984 2206 984 1816 
L 984 0 
L 422 0 
z
" transform="scale(0.015625)"/>
       <path id="ArialMT-79" d="M 397 -1278 
L 334 -750 
Q 519 -800 656 -800 
Q 844 -800 956 -737 
Q 1069 -675 1141 -563 
Q 1194 -478 1313 -144 
Q 1328 -97 1363 -6 
L 103 3319 
L 709 3319 
L 1400 1397 
Q 1534 1031 1641 628 
Q 1738 1016 1872 1384 
L 2581 3319 
L 3144 3319 
L 1881 -56 
Q 1678 -603 1566 -809 
Q 1416 -1088 1222 -1217 
Q 1028 -1347 759 -1347 
Q 597 -1347 397 -1278 
z
" transform="scale(0.015625)"/>
       <path id="ArialMT-64" d="M 2575 0 
L 2575 419 
Q 2259 -75 1647 -75 
Q 1250 -75 917 144 
Q 584 363 401 755 
Q 219 1147 219 1656 
Q 219 2153 384 2558 
Q 550 2963 881 3178 
Q 1213 3394 1622 3394 
Q 1922 3394 2156 3267 
Q 2391 3141 2538 2938 
L 2538 4581 
L 3097 4581 
L 3097 0 
L 2575 0 
z
M 797 1656 
Q 797 1019 1065 703 
Q 1334 388 1700 388 
Q 2069 388 2326 689 
Q 2584 991 2584 1609 
Q 2584 2291 2321 2609 
Q 2059 2928 1675 2928 
Q 1300 2928 1048 2622 
Q 797 2316 797 1656 
z
" transform="scale(0.015625)"/>
       <path id="ArialMT-74" d="M 1650 503 
L 1731 6 
Q 1494 -44 1306 -44 
Q 1000 -44 831 53 
Q 663 150 594 308 
Q 525 466 525 972 
L 525 2881 
L 113 2881 
L 113 3319 
L 525 3319 
L 525 4141 
L 1084 4478 
L 1084 3319 
L 1650 3319 
L 1650 2881 
L 1084 2881 
L 1084 941 
Q 1084 700 1114 631 
Q 1144 563 1211 522 
Q 1278 481 1403 481 
Q 1497 481 1650 503 
z
" transform="scale(0.015625)"/>
       <path id="ArialMT-20" transform="scale(0.015625)"/>
       <path id="ArialMT-6e" d="M 422 0 
L 422 3319 
L 928 3319 
L 928 2847 
Q 1294 3394 1984 3394 
Q 2284 3394 2536 3286 
Q 2788 3178 2913 3003 
Q 3038 2828 3088 2588 
Q 3119 2431 3119 2041 
L 3119 0 
L 2556 0 
L 2556 2019 
Q 2556 2363 2490 2533 
Q 2425 2703 2258 2804 
Q 2091 2906 1866 2906 
Q 1506 2906 1245 2678 
Q 984 2450 984 1813 
L 984 0 
L 422 0 
z
" transform="scale(0.015625)"/>
       <path id="ArialMT-67" d="M 319 -275 
L 866 -356 
Q 900 -609 1056 -725 
Q 1266 -881 1628 -881 
Q 2019 -881 2231 -725 
Q 2444 -569 2519 -288 
Q 2563 -116 2559 434 
Q 2191 0 1641 0 
Q 956 0 581 494 
Q 206 988 206 1678 
Q 206 2153 378 2554 
Q 550 2956 876 3175 
Q 1203 3394 1644 3394 
Q 2231 3394 2613 2919 
L 2613 3319 
L 3131 3319 
L 3131 450 
Q 3131 -325 2973 -648 
Q 2816 -972 2473 -1159 
Q 2131 -1347 1631 -1347 
Q 1038 -1347 672 -1080 
Q 306 -813 319 -275 
z
M 784 1719 
Q 784 1066 1043 766 
Q 1303 466 1694 466 
Q 2081 466 2343 764 
Q 2606 1063 2606 1700 
Q 2606 2309 2336 2618 
Q 2066 2928 1684 2928 
Q 1309 2928 1046 2623 
Q 784 2319 784 1719 
z
" transform="scale(0.015625)"/>
       <path id="ArialMT-28" d="M 1497 -1347 
Q 1031 -759 709 28 
Q 388 816 388 1659 
Q 388 2403 628 3084 
Q 909 3875 1497 4659 
L 1900 4659 
Q 1522 4009 1400 3731 
Q 1209 3300 1100 2831 
Q 966 2247 966 1656 
Q 966 153 1900 -1347 
L 1497 -1347 
z
" transform="scale(0.015625)"/>
       <path id="ArialMT-6b" d="M 425 0 
L 425 4581 
L 988 4581 
L 988 1969 
L 2319 3319 
L 3047 3319 
L 1778 2088 
L 3175 0 
L 2481 0 
L 1384 1697 
L 988 1316 
L 988 0 
L 425 0 
z
" transform="scale(0.015625)"/>
       <path id="ArialMT-63" d="M 2588 1216 
L 3141 1144 
Q 3050 572 2676 248 
Q 2303 -75 1759 -75 
Q 1078 -75 664 370 
Q 250 816 250 1647 
Q 250 2184 428 2587 
Q 606 2991 970 3192 
Q 1334 3394 1763 3394 
Q 2303 3394 2647 3120 
Q 2991 2847 3088 2344 
L 2541 2259 
Q 2463 2594 2264 2762 
Q 2066 2931 1784 2931 
Q 1359 2931 1093 2626 
Q 828 2322 828 1663 
Q 828 994 1084 691 
Q 1341 388 1753 388 
Q 2084 388 2306 591 
Q 2528 794 2588 1216 
z
" transform="scale(0.015625)"/>
       <path id="ArialMT-6c" d="M 409 0 
L 409 4581 
L 972 4581 
L 972 0 
L 409 0 
z
" transform="scale(0.015625)"/>
       <path id="ArialMT-2f" d="M 0 -78 
L 1328 4659 
L 1778 4659 
L 453 -78 
L 0 -78 
z
" transform="scale(0.015625)"/>
       <path id="ArialMT-29" d="M 791 -1347 
L 388 -1347 
Q 1322 153 1322 1656 
Q 1322 2244 1188 2822 
Q 1081 3291 891 3722 
Q 769 4003 388 4659 
L 791 4659 
Q 1378 3875 1659 3084 
Q 1900 2403 1900 1659 
Q 1900 816 1576 28 
Q 1253 -759 791 -1347 
z
" transform="scale(0.015625)"/>
      </defs>
      <use xlink:href="#ArialMT-43"/>
      <use xlink:href="#ArialMT-61" x="72.216797"/>
      <use xlink:href="#ArialMT-72" x="127.832031"/>
      <use xlink:href="#ArialMT-62" x="161.132812"/>
      <use xlink:href="#ArialMT-6f" x="216.748047"/>
      <use xlink:href="#ArialMT-68" x="272.363281"/>
      <use xlink:href="#ArialMT-79" x="327.978516"/>
      <use xlink:href="#ArialMT-64" x="377.978516"/>
      <use xlink:href="#ArialMT-72" x="433.59375"/>
      <use xlink:href="#ArialMT-61" x="466.894531"/>
      <use xlink:href="#ArialMT-74" x="522.509766"/>
      <use xlink:href="#ArialMT-65" x="550.292969"/>
      <use xlink:href="#ArialMT-73" x="605.908203"/>
      <use xlink:href="#ArialMT-20" x="655.908203"/>
      <use xlink:href="#ArialMT-65" x="683.691406"/>
      <use xlink:href="#ArialMT-6e" x="739.306641"/>
      <use xlink:href="#ArialMT-65" x="794.921875"/>
      <use xlink:href="#ArialMT-72" x="850.537109"/>
      <use xlink:href="#ArialMT-67" x="883.837891"/>
      <use xlink:href="#ArialMT-79" x="939.453125"/>
      <use xlink:href="#ArialMT-20" x="989.453125"/>
      <use xlink:href="#ArialMT-28" x="1017.236328"/>
      <use xlink:href="#ArialMT-6b" x="1050.537109"/>
      <use xlink:href="#ArialMT-63" x="1100.537109"/>
      <use xlink:href="#ArialMT-61" x="1150.537109"/>
      <use xlink:href="#ArialMT-6c" x="1206.152344"/>
      <use xlink:href="#ArialMT-2f" x="1228.369141"/>
      <use xlink:href="#ArialMT-68" x="1256.152344"/>
      <use xlink:href="#ArialMT-29" x="1311.767578"/>
     </g>
    </g>
   </g>
   <g id="PolyCollection_1">
    <defs>
     <path id="m37c2164e4b" d="M 107.783595 -118.578005 
L 106.721641 -118.578005 
L 106.587617 -120.296808 
L 106.428545 -122.015611 
L 106.241923 -123.734415 
L 106.025414 -125.453218 
L 105.776904 -127.172021 
L 105.494524 -128.890824 
L 105.176658 -130.609628 
L 104.821911 -132.328431 
L 104.429049 -134.047234 
L 103.996914 -135.766037 
L 103.524329 -137.484841 
L 103.010004 -139.203644 
L 102.452473 -140.922447 
L 101.850063 -142.64125 
L 101.200942 -144.360054 
L 100.503236 -146.078857 
L 99.755236 -147.79766 
L 98.955677 -149.516463 
L 98.104087 -151.235267 
L 97.20116 -152.95407 
L 96.249124 -154.672873 
L 95.252045 -156.391676 
L 94.216035 -158.110479 
L 93.149294 -159.829283 
L 92.061983 -161.548086 
L 90.96589 -163.266889 
L 89.87391 -164.985692 
L 88.799363 -166.704496 
L 87.755218 -168.423299 
L 86.753275 -170.142102 
L 85.803411 -171.860905 
L 84.912965 -173.579709 
L 84.086347 -175.298512 
L 83.324914 -177.017315 
L 82.627163 -178.736118 
L 81.989224 -180.454922 
L 81.40561 -182.173725 
L 80.870169 -183.892528 
L 80.377118 -185.611331 
L 79.922072 -187.330135 
L 79.502929 -189.048938 
L 79.120538 -190.767741 
L 78.779041 -192.486544 
L 78.485878 -194.205347 
L 78.251428 -195.924151 
L 78.088323 -197.642954 
L 78.010514 -199.361757 
L 78.032171 -201.08056 
L 78.166526 -202.799364 
L 78.42477 -204.518167 
L 78.815109 -206.23697 
L 79.342032 -207.955773 
L 80.005867 -209.674577 
L 80.802621 -211.39338 
L 81.724107 -213.112183 
L 82.758309 -214.830986 
L 83.889946 -216.54979 
L 85.101165 -218.268593 
L 86.372299 -219.987396 
L 87.682641 -221.706199 
L 89.011195 -223.425003 
L 90.337357 -225.143806 
L 91.641526 -226.862609 
L 92.905631 -228.581412 
L 94.113573 -230.300215 
L 95.251592 -232.019019 
L 96.308559 -233.737822 
L 97.276191 -235.456625 
L 98.149186 -237.175428 
L 98.925278 -238.894232 
L 99.60519 -240.613035 
L 100.192487 -242.331838 
L 100.693323 -244.050641 
L 101.116074 -245.769445 
L 101.470882 -247.488248 
L 101.769119 -249.207051 
L 102.022798 -250.925854 
L 102.24397 -252.644658 
L 102.44414 -254.363461 
L 102.633738 -256.082264 
L 102.82168 -257.801067 
L 103.015046 -259.519871 
L 103.218893 -261.238674 
L 103.436197 -262.957477 
L 103.66794 -264.67628 
L 103.913306 -266.395084 
L 104.169976 -268.113887 
L 104.434484 -269.83269 
L 104.702603 -271.551493 
L 104.96974 -273.270296 
L 105.231294 -274.9891 
L 105.482967 -276.707903 
L 105.721012 -278.426706 
L 105.9424 -280.145509 
L 106.144921 -281.864313 
L 106.327205 -283.583116 
L 106.488689 -285.301919 
L 106.629534 -287.020722 
L 106.750511 -288.739526 
L 107.754725 -288.739526 
L 107.754725 -288.739526 
L 107.875703 -287.020722 
L 108.016547 -285.301919 
L 108.178031 -283.583116 
L 108.360315 -281.864313 
L 108.562836 -280.145509 
L 108.784224 -278.426706 
L 109.022269 -276.707903 
L 109.273942 -274.9891 
L 109.535496 -273.270296 
L 109.802633 -271.551493 
L 110.070753 -269.83269 
L 110.33526 -268.113887 
L 110.59193 -266.395084 
L 110.837296 -264.67628 
L 111.069039 -262.957477 
L 111.286343 -261.238674 
L 111.49019 -259.519871 
L 111.683557 -257.801067 
L 111.871499 -256.082264 
L 112.061096 -254.363461 
L 112.261266 -252.644658 
L 112.482439 -250.925854 
L 112.736118 -249.207051 
L 113.034354 -247.488248 
L 113.389163 -245.769445 
L 113.811913 -244.050641 
L 114.312749 -242.331838 
L 114.900046 -240.613035 
L 115.579958 -238.894232 
L 116.35605 -237.175428 
L 117.229045 -235.456625 
L 118.196677 -233.737822 
L 119.253644 -232.019019 
L 120.391664 -230.300215 
L 121.599605 -228.581412 
L 122.86371 -226.862609 
L 124.167879 -225.143806 
L 125.494041 -223.425003 
L 126.822595 -221.706199 
L 128.132937 -219.987396 
L 129.404071 -218.268593 
L 130.61529 -216.54979 
L 131.746928 -214.830986 
L 132.78113 -213.112183 
L 133.702615 -211.39338 
L 134.49937 -209.674577 
L 135.163204 -207.955773 
L 135.690128 -206.23697 
L 136.080466 -204.518167 
L 136.338711 -202.799364 
L 136.473065 -201.08056 
L 136.494722 -199.361757 
L 136.416914 -197.642954 
L 136.253809 -195.924151 
L 136.019358 -194.205347 
L 135.726196 -192.486544 
L 135.384699 -190.767741 
L 135.002307 -189.048938 
L 134.583165 -187.330135 
L 134.128118 -185.611331 
L 133.635067 -183.892528 
L 133.099626 -182.173725 
L 132.516012 -180.454922 
L 131.878073 -178.736118 
L 131.180323 -177.017315 
L 130.41889 -175.298512 
L 129.592271 -173.579709 
L 128.701826 -171.860905 
L 127.751961 -170.142102 
L 126.750018 -168.423299 
L 125.705873 -166.704496 
L 124.631327 -164.985692 
L 123.539346 -163.266889 
L 122.443253 -161.548086 
L 121.355942 -159.829283 
L 120.289201 -158.110479 
L 119.253191 -156.391676 
L 118.256113 -154.672873 
L 117.304076 -152.95407 
L 116.401149 -151.235267 
L 115.549559 -149.516463 
L 114.75 -147.79766 
L 114.002 -146.078857 
L 113.304294 -144.360054 
L 112.655173 -142.64125 
L 112.052763 -140.922447 
L 111.495232 -139.203644 
L 110.980908 -137.484841 
L 110.508322 -135.766037 
L 110.076187 -134.047234 
L 109.683325 -132.328431 
L 109.328578 -130.609628 
L 109.010713 -128.890824 
L 108.728333 -127.172021 
L 108.479822 -125.453218 
L 108.263314 -123.734415 
L 108.076691 -122.015611 
L 107.917619 -120.296808 
L 107.783595 -118.578005 
z
" style="stroke: #3f3f3f; stroke-width: 1.25"/>
    </defs>
    <g clip-path="url(#p0aef160cbf)">
     <use xlink:href="#m37c2164e4b" x="0" y="360" style="fill: #3274a1; stroke: #3f3f3f; stroke-width: 1.25"/>
    </g>
   </g>
   <g id="PolyCollection_2">
    <defs>
     <path id="m095e114b70" d="M 166.084474 -55.925455 
L 165.389177 -55.925455 
L 165.303622 -58.523254 
L 165.201651 -61.121053 
L 165.08128 -63.718853 
L 164.940551 -66.316652 
L 164.777583 -68.914451 
L 164.590647 -71.512251 
L 164.378242 -74.11005 
L 164.139166 -76.70785 
L 163.872603 -79.305649 
L 163.578195 -81.903448 
L 163.256114 -84.501248 
L 162.907126 -87.099047 
L 162.53264 -89.696847 
L 162.134745 -92.294646 
L 161.716221 -94.892445 
L 161.280533 -97.490245 
L 160.831796 -100.088044 
L 160.374708 -102.685843 
L 159.914456 -105.283643 
L 159.456586 -107.881442 
L 159.006843 -110.479242 
L 158.570981 -113.077041 
L 158.154546 -115.67484 
L 157.762644 -118.27264 
L 157.399696 -120.870439 
L 157.069204 -123.468239 
L 156.773519 -126.066038 
L 156.513657 -128.663837 
L 156.28915 -131.261637 
L 156.09796 -133.859436 
L 155.936467 -136.457236 
L 155.799545 -139.055035 
L 155.680713 -141.652834 
L 155.572388 -144.250634 
L 155.466213 -146.848433 
L 155.353452 -149.446232 
L 155.225452 -152.044032 
L 155.07412 -154.641831 
L 154.892419 -157.239631 
L 154.674829 -159.83743 
L 154.417769 -162.435229 
L 154.119926 -165.033029 
L 153.782487 -167.630828 
L 153.409248 -170.228628 
L 153.006582 -172.826427 
L 152.58327 -175.424226 
L 152.15019 -178.022026 
L 151.719888 -180.619825 
L 151.306034 -183.217624 
L 150.922811 -185.815424 
L 150.584257 -188.413223 
L 150.303601 -191.011023 
L 150.092631 -193.608822 
L 149.961132 -196.206621 
L 149.916429 -198.804421 
L 149.963054 -201.40222 
L 150.102566 -204.00002 
L 150.333524 -206.597819 
L 150.651621 -209.195618 
L 151.049956 -211.793418 
L 151.519438 -214.391217 
L 152.049278 -216.989016 
L 152.627552 -219.586816 
L 153.241784 -222.184615 
L 153.879525 -224.782415 
L 154.52888 -227.380214 
L 155.178974 -229.978013 
L 155.820306 -232.575813 
L 156.445011 -235.173612 
L 157.046993 -237.771412 
L 157.621949 -240.369211 
L 158.167292 -242.96701 
L 158.681982 -245.56481 
L 159.166294 -248.162609 
L 159.621538 -250.760409 
L 160.049762 -253.358208 
L 160.453454 -255.956007 
L 160.835268 -258.553807 
L 161.197786 -261.151606 
L 161.543322 -263.749405 
L 161.873791 -266.347205 
L 162.190626 -268.945004 
L 162.494748 -271.542804 
L 162.786588 -274.140603 
L 163.06614 -276.738402 
L 163.333048 -279.336202 
L 163.586709 -281.934001 
L 163.826378 -284.531801 
L 164.051279 -287.1296 
L 164.260697 -289.727399 
L 164.454059 -292.325199 
L 164.630995 -294.922998 
L 164.791374 -297.520797 
L 164.935325 -300.118597 
L 165.063231 -302.716396 
L 165.175715 -305.314196 
L 165.273604 -307.911995 
L 165.357894 -310.509794 
L 165.429702 -313.107594 
L 166.04395 -313.107594 
L 166.04395 -313.107594 
L 166.115757 -310.509794 
L 166.200047 -307.911995 
L 166.297937 -305.314196 
L 166.41042 -302.716396 
L 166.538327 -300.118597 
L 166.682277 -297.520797 
L 166.842656 -294.922998 
L 167.019592 -292.325199 
L 167.212954 -289.727399 
L 167.422372 -287.1296 
L 167.647273 -284.531801 
L 167.886942 -281.934001 
L 168.140603 -279.336202 
L 168.407511 -276.738402 
L 168.687063 -274.140603 
L 168.978903 -271.542804 
L 169.283026 -268.945004 
L 169.599861 -266.347205 
L 169.93033 -263.749405 
L 170.275866 -261.151606 
L 170.638383 -258.553807 
L 171.020197 -255.956007 
L 171.42389 -253.358208 
L 171.852113 -250.760409 
L 172.307357 -248.162609 
L 172.791669 -245.56481 
L 173.306359 -242.96701 
L 173.851703 -240.369211 
L 174.426659 -237.771412 
L 175.02864 -235.173612 
L 175.653345 -232.575813 
L 176.294678 -229.978013 
L 176.944771 -227.380214 
L 177.594127 -224.782415 
L 178.231867 -222.184615 
L 178.8461 -219.586816 
L 179.424373 -216.989016 
L 179.954213 -214.391217 
L 180.423695 -211.793418 
L 180.82203 -209.195618 
L 181.140127 -206.597819 
L 181.371085 -204.00002 
L 181.510597 -201.40222 
L 181.557222 -198.804421 
L 181.512519 -196.206621 
L 181.38102 -193.608822 
L 181.17005 -191.011023 
L 180.889394 -188.413223 
L 180.550841 -185.815424 
L 180.167618 -183.217624 
L 179.753763 -180.619825 
L 179.323461 -178.022026 
L 178.890382 -175.424226 
L 178.467069 -172.826427 
L 178.064404 -170.228628 
L 177.691164 -167.630828 
L 177.353725 -165.033029 
L 177.055882 -162.435229 
L 176.798822 -159.83743 
L 176.581233 -157.239631 
L 176.399531 -154.641831 
L 176.2482 -152.044032 
L 176.120199 -149.446232 
L 176.007439 -146.848433 
L 175.901263 -144.250634 
L 175.792938 -141.652834 
L 175.674106 -139.055035 
L 175.537184 -136.457236 
L 175.375692 -133.859436 
L 175.184501 -131.261637 
L 174.959994 -128.663837 
L 174.700132 -126.066038 
L 174.404448 -123.468239 
L 174.073955 -120.870439 
L 173.711007 -118.27264 
L 173.319105 -115.67484 
L 172.90267 -113.077041 
L 172.466808 -110.479242 
L 172.017065 -107.881442 
L 171.559195 -105.283643 
L 171.098943 -102.685843 
L 170.641855 -100.088044 
L 170.193118 -97.490245 
L 169.75743 -94.892445 
L 169.338906 -92.294646 
L 168.941011 -89.696847 
L 168.566525 -87.099047 
L 168.217537 -84.501248 
L 167.895456 -81.903448 
L 167.601048 -79.305649 
L 167.334485 -76.70785 
L 167.09541 -74.11005 
L 166.883004 -71.512251 
L 166.696069 -68.914451 
L 166.5331 -66.316652 
L 166.392371 -63.718853 
L 166.272001 -61.121053 
L 166.170029 -58.523254 
L 166.084474 -55.925455 
z
" style="stroke: #3f3f3f; stroke-width: 1.25"/>
    </defs>
    <g clip-path="url(#p0aef160cbf)">
     <use xlink:href="#m095e114b70" x="0" y="360" style="fill: #e1812c; stroke: #3f3f3f; stroke-width: 1.25"/>
    </g>
   </g>
   <g id="PolyCollection_3">
    <defs>
     <path id="m89a7bc475b" d="M 253.670781 -63.212568 
L 253.255493 -63.212568 
L 253.202436 -65.960264 
L 253.139713 -68.707961 
L 253.066578 -71.455658 
L 252.982443 -74.203355 
L 252.886905 -76.951051 
L 252.77976 -79.698748 
L 252.660989 -82.446445 
L 252.530725 -85.194142 
L 252.389188 -87.941838 
L 252.236603 -90.689535 
L 252.07309 -93.437232 
L 251.898553 -96.184929 
L 251.71257 -98.932625 
L 251.514296 -101.680322 
L 251.302404 -104.428019 
L 251.075064 -107.175716 
L 250.829987 -109.923412 
L 250.564518 -112.671109 
L 250.275789 -115.418806 
L 249.960927 -118.166503 
L 249.617282 -120.914199 
L 249.242673 -123.661896 
L 248.835619 -126.409593 
L 248.395529 -129.15729 
L 247.922824 -131.904986 
L 247.418996 -134.652683 
L 246.886563 -137.40038 
L 246.328948 -140.148077 
L 245.750292 -142.895773 
L 245.1552 -145.64347 
L 244.548483 -148.391167 
L 243.934896 -151.138864 
L 243.31892 -153.88656 
L 242.704619 -156.634257 
L 242.095568 -159.381954 
L 241.49489 -162.12965 
L 240.905372 -164.877347 
L 240.329656 -167.625044 
L 239.77048 -170.372741 
L 239.230929 -173.120437 
L 238.714661 -175.868134 
L 238.226082 -178.615831 
L 237.770422 -181.363528 
L 237.353709 -184.111224 
L 236.982623 -186.858921 
L 236.664234 -189.606618 
L 236.405639 -192.354315 
L 236.21354 -195.102011 
L 236.093773 -197.849708 
L 236.050856 -200.597405 
L 236.087577 -203.345102 
L 236.204675 -206.092798 
L 236.400627 -208.840495 
L 236.67158 -211.588192 
L 237.011417 -214.335889 
L 237.411973 -217.083585 
L 237.863364 -219.831282 
L 238.354429 -222.578979 
L 238.873228 -225.326676 
L 239.407589 -228.074372 
L 239.945648 -230.822069 
L 240.476366 -233.569766 
L 240.989985 -236.317463 
L 241.478414 -239.065159 
L 241.935518 -241.812856 
L 242.357314 -244.560553 
L 242.742053 -247.30825 
L 243.090206 -250.055946 
L 243.40434 -252.803643 
L 243.688905 -255.55134 
L 243.94993 -258.299037 
L 244.194636 -261.046733 
L 244.431008 -263.79443 
L 244.667303 -266.542127 
L 244.911567 -269.289824 
L 245.171145 -272.03752 
L 245.452242 -274.785217 
L 245.759556 -277.532914 
L 246.095999 -280.280611 
L 246.462538 -283.028307 
L 246.858162 -285.776004 
L 247.279978 -288.523701 
L 247.723422 -291.271398 
L 248.182577 -294.019094 
L 248.65056 -296.766791 
L 249.119953 -299.514488 
L 249.583244 -302.262185 
L 250.033239 -305.009881 
L 250.463423 -307.757578 
L 250.86825 -310.505275 
L 251.24334 -313.252971 
L 251.585585 -316.000668 
L 251.893162 -318.748365 
L 252.165475 -321.496062 
L 252.403023 -324.243758 
L 252.607234 -326.991455 
L 252.78026 -329.739152 
L 252.924774 -332.486849 
L 253.043768 -335.234545 
L 253.882506 -335.234545 
L 253.882506 -335.234545 
L 254.0015 -332.486849 
L 254.146013 -329.739152 
L 254.319039 -326.991455 
L 254.52325 -324.243758 
L 254.760799 -321.496062 
L 255.033112 -318.748365 
L 255.340689 -316.000668 
L 255.682933 -313.252971 
L 256.058024 -310.505275 
L 256.462851 -307.757578 
L 256.893035 -305.009881 
L 257.343029 -302.262185 
L 257.80632 -299.514488 
L 258.275714 -296.766791 
L 258.743697 -294.019094 
L 259.202852 -291.271398 
L 259.646296 -288.523701 
L 260.068112 -285.776004 
L 260.463736 -283.028307 
L 260.830274 -280.280611 
L 261.166717 -277.532914 
L 261.474032 -274.785217 
L 261.755129 -272.03752 
L 262.014707 -269.289824 
L 262.25897 -266.542127 
L 262.495266 -263.79443 
L 262.731637 -261.046733 
L 262.976344 -258.299037 
L 263.237368 -255.55134 
L 263.521934 -252.803643 
L 263.836068 -250.055946 
L 264.18422 -247.30825 
L 264.56896 -244.560553 
L 264.990756 -241.812856 
L 265.44786 -239.065159 
L 265.936289 -236.317463 
L 266.449908 -233.569766 
L 266.980625 -230.822069 
L 267.518685 -228.074372 
L 268.053046 -225.326676 
L 268.571845 -222.578979 
L 269.062909 -219.831282 
L 269.514301 -217.083585 
L 269.914856 -214.335889 
L 270.254694 -211.588192 
L 270.525646 -208.840495 
L 270.721599 -206.092798 
L 270.838697 -203.345102 
L 270.875418 -200.597405 
L 270.832501 -197.849708 
L 270.712733 -195.102011 
L 270.520634 -192.354315 
L 270.26204 -189.606618 
L 269.943651 -186.858921 
L 269.572565 -184.111224 
L 269.155852 -181.363528 
L 268.700192 -178.615831 
L 268.211613 -175.868134 
L 267.695345 -173.120437 
L 267.155793 -170.372741 
L 266.596618 -167.625044 
L 266.020902 -164.877347 
L 265.431384 -162.12965 
L 264.830706 -159.381954 
L 264.221655 -156.634257 
L 263.607353 -153.88656 
L 262.991378 -151.138864 
L 262.37779 -148.391167 
L 261.771073 -145.64347 
L 261.175982 -142.895773 
L 260.597325 -140.148077 
L 260.039711 -137.40038 
L 259.507277 -134.652683 
L 259.003449 -131.904986 
L 258.530745 -129.15729 
L 258.090654 -126.409593 
L 257.683601 -123.661896 
L 257.308992 -120.914199 
L 256.965347 -118.166503 
L 256.650485 -115.418806 
L 256.361756 -112.671109 
L 256.096286 -109.923412 
L 255.85121 -107.175716 
L 255.62387 -104.428019 
L 255.411977 -101.680322 
L 255.213703 -98.932625 
L 255.027721 -96.184929 
L 254.853184 -93.437232 
L 254.689671 -90.689535 
L 254.537086 -87.941838 
L 254.395549 -85.194142 
L 254.265285 -82.446445 
L 254.146514 -79.698748 
L 254.039369 -76.951051 
L 253.943831 -74.203355 
L 253.859696 -71.455658 
L 253.786561 -68.707961 
L 253.723838 -65.960264 
L 253.670781 -63.212568 
z
" style="stroke: #3f3f3f; stroke-width: 1.25"/>
    </defs>
    <g clip-path="url(#p0aef160cbf)">
     <use xlink:href="#m89a7bc475b" x="0" y="360" style="fill: #3274a1; stroke: #3f3f3f; stroke-width: 1.25"/>
    </g>
   </g>
   <g id="PolyCollection_4">
    <defs>
     <path id="m4c03eb7db8" d="M 312.255058 -101.85039 
L 311.639631 -101.85039 
L 311.551711 -103.681076 
L 311.445643 -105.511763 
L 311.319626 -107.342449 
L 311.172088 -109.173136 
L 311.001728 -111.003822 
L 310.807508 -112.834509 
L 310.588591 -114.665195 
L 310.344215 -116.495882 
L 310.07351 -118.326568 
L 309.775251 -120.157255 
L 309.447601 -121.987941 
L 309.087839 -123.818627 
L 308.692141 -125.649314 
L 308.255439 -127.48 
L 307.771404 -129.310687 
L 307.23258 -131.141373 
L 306.630684 -132.97206 
L 305.957083 -134.802746 
L 305.203411 -136.633433 
L 304.362289 -138.464119 
L 303.428104 -140.294806 
L 302.397759 -142.125492 
L 301.271349 -143.956179 
L 300.052678 -145.786865 
L 298.749583 -147.617552 
L 297.374019 -149.448238 
L 295.94191 -151.278925 
L 294.472767 -153.109611 
L 292.989104 -154.940298 
L 291.515699 -156.770984 
L 290.078753 -158.601671 
L 288.704993 -160.432357 
L 287.420774 -162.263044 
L 286.251202 -164.09373 
L 285.219335 -165.924417 
L 284.345446 -167.755103 
L 283.646396 -169.58579 
L 283.135092 -171.416476 
L 282.820078 -173.247163 
L 282.705241 -175.077849 
L 282.789668 -176.908535 
L 283.067678 -178.739222 
L 283.52902 -180.569908 
L 284.159282 -182.400595 
L 284.940471 -184.231281 
L 285.851781 -186.061968 
L 286.870469 -187.892654 
L 287.972825 -189.723341 
L 289.135137 -191.554027 
L 290.334598 -193.384714 
L 291.550085 -195.2154 
L 292.762754 -197.046087 
L 293.95642 -198.876773 
L 295.117725 -200.70746 
L 296.236091 -202.538146 
L 297.30352 -204.368833 
L 298.314269 -206.199519 
L 299.264482 -208.030206 
L 300.151812 -209.860892 
L 300.975091 -211.691579 
L 301.734073 -213.522265 
L 302.429253 -215.352952 
L 303.061769 -217.183638 
L 303.633364 -219.014325 
L 304.146382 -220.845011 
L 304.603773 -222.675698 
L 305.009099 -224.506384 
L 305.366501 -226.337071 
L 305.680641 -228.167757 
L 305.956622 -229.998444 
L 306.199866 -231.82913 
L 306.415992 -233.659816 
L 306.610684 -235.490503 
L 306.789561 -237.321189 
L 306.958049 -239.151876 
L 307.121267 -240.982562 
L 307.283914 -242.813249 
L 307.450155 -244.643935 
L 307.623518 -246.474622 
L 307.806788 -248.305308 
L 308.001911 -250.135995 
L 308.209924 -251.966681 
L 308.430903 -253.797368 
L 308.663967 -255.628054 
L 308.907315 -257.458741 
L 309.158333 -259.289427 
L 309.413745 -261.120114 
L 309.669814 -262.9508 
L 309.922574 -264.781487 
L 310.168067 -266.612173 
L 310.402588 -268.44286 
L 310.622884 -270.273546 
L 310.826323 -272.104233 
L 311.010997 -273.934919 
L 311.175771 -275.765606 
L 311.320271 -277.596292 
L 311.444817 -279.426979 
L 311.550326 -281.257665 
L 311.638177 -283.088352 
L 312.256511 -283.088352 
L 312.256511 -283.088352 
L 312.344363 -281.257665 
L 312.449872 -279.426979 
L 312.574418 -277.596292 
L 312.718917 -275.765606 
L 312.883692 -273.934919 
L 313.068365 -272.104233 
L 313.271804 -270.273546 
L 313.492101 -268.44286 
L 313.726622 -266.612173 
L 313.972115 -264.781487 
L 314.224874 -262.9508 
L 314.480944 -261.120114 
L 314.736356 -259.289427 
L 314.987374 -257.458741 
L 315.230722 -255.628054 
L 315.463785 -253.797368 
L 315.684765 -251.966681 
L 315.892778 -250.135995 
L 316.087901 -248.305308 
L 316.27117 -246.474622 
L 316.444533 -244.643935 
L 316.610775 -242.813249 
L 316.773421 -240.982562 
L 316.93664 -239.151876 
L 317.105128 -237.321189 
L 317.284005 -235.490503 
L 317.478697 -233.659816 
L 317.694823 -231.82913 
L 317.938067 -229.998444 
L 318.214047 -228.167757 
L 318.528188 -226.337071 
L 318.885589 -224.506384 
L 319.290915 -222.675698 
L 319.748307 -220.845011 
L 320.261324 -219.014325 
L 320.832919 -217.183638 
L 321.465436 -215.352952 
L 322.160616 -213.522265 
L 322.919597 -211.691579 
L 323.742877 -209.860892 
L 324.630207 -208.030206 
L 325.58042 -206.199519 
L 326.591169 -204.368833 
L 327.658598 -202.538146 
L 328.776964 -200.70746 
L 329.938269 -198.876773 
L 331.131935 -197.046087 
L 332.344603 -195.2154 
L 333.56009 -193.384714 
L 334.759552 -191.554027 
L 335.921864 -189.723341 
L 337.02422 -187.892654 
L 338.042908 -186.061968 
L 338.954217 -184.231281 
L 339.735407 -182.400595 
L 340.365668 -180.569908 
L 340.827011 -178.739222 
L 341.10502 -176.908535 
L 341.189448 -175.077849 
L 341.07461 -173.247163 
L 340.759596 -171.416476 
L 340.248293 -169.58579 
L 339.549242 -167.755103 
L 338.675354 -165.924417 
L 337.643487 -164.09373 
L 336.473915 -162.263044 
L 335.189695 -160.432357 
L 333.815936 -158.601671 
L 332.37899 -156.770984 
L 330.905585 -154.940298 
L 329.421922 -153.109611 
L 327.952779 -151.278925 
L 326.52067 -149.448238 
L 325.145106 -147.617552 
L 323.84201 -145.786865 
L 322.62334 -143.956179 
L 321.49693 -142.125492 
L 320.466585 -140.294806 
L 319.532399 -138.464119 
L 318.691278 -136.633433 
L 317.937605 -134.802746 
L 317.264005 -132.97206 
L 316.662109 -131.141373 
L 316.123284 -129.310687 
L 315.63925 -127.48 
L 315.202548 -125.649314 
L 314.80685 -123.818627 
L 314.447088 -121.987941 
L 314.119437 -120.157255 
L 313.821179 -118.326568 
L 313.550473 -116.495882 
L 313.306098 -114.665195 
L 313.087181 -112.834509 
L 312.892961 -111.003822 
L 312.722601 -109.173136 
L 312.575063 -107.342449 
L 312.449046 -105.511763 
L 312.342978 -103.681076 
L 312.255058 -101.85039 
z
" style="stroke: #3f3f3f; stroke-width: 1.25"/>
    </defs>
    <g clip-path="url(#p0aef160cbf)">
     <use xlink:href="#m4c03eb7db8" x="0" y="360" style="fill: #e1812c; stroke: #3f3f3f; stroke-width: 1.25"/>
    </g>
   </g>
   <g id="patch_3">
    <path d="M 136.494722 276.271423 
L 136.494722 276.271423 
L 136.494722 276.271423 
L 136.494722 276.271423 
z
" clip-path="url(#p0aef160cbf)" style="fill: #3274a1; stroke: #3f3f3f; stroke-width: 1.25; stroke-linejoin: miter"/>
   </g>
   <g id="patch_4">
    <path d="M 136.494722 276.271423 
L 136.494722 276.271423 
L 136.494722 276.271423 
L 136.494722 276.271423 
z
" clip-path="url(#p0aef160cbf)" style="fill: #e1812c; stroke: #3f3f3f; stroke-width: 1.25; stroke-linejoin: miter"/>
   </g>
   <g id="line2d_9">
    <path d="M 107.252618 210.363849 
L 107.252618 135.993863 
" clip-path="url(#p0aef160cbf)" style="fill: none; stroke: #3f3f3f; stroke-width: 1.875; stroke-linecap: round"/>
   </g>
   <g id="line2d_10">
    <path d="M 107.252618 181.296251 
L 107.252618 152.074928 
" clip-path="url(#p0aef160cbf)" style="fill: none; stroke: #3f3f3f; stroke-width: 5.625; stroke-linecap: round"/>
   </g>
   <g id="line2d_11">
    <path d="M 107.252618 159.671842 
" clip-path="url(#p0aef160cbf)" style="fill: none; stroke: #3f3f3f; stroke-width: 1.5; stroke-linecap: round"/>
    <defs>
     <path id="m6ac4d84157" d="M 2.34375 0 
L -2.34375 -0 
" style="stroke: #ffffff; stroke-width: 1.125"/>
    </defs>
    <g clip-path="url(#p0aef160cbf)">
     <use xlink:href="#m6ac4d84157" x="107.252618" y="159.671842" style="fill: #ffffff; stroke: #ffffff; stroke-width: 1.125"/>
    </g>
   </g>
   <g id="line2d_12">
    <path d="M 165.736826 253.035407 
L 165.736826 97.931545 
" clip-path="url(#p0aef160cbf)" style="fill: none; stroke: #3f3f3f; stroke-width: 1.875; stroke-linecap: round"/>
   </g>
   <g id="line2d_13">
    <path d="M 165.736826 215.485421 
L 165.736826 151.998961 
" clip-path="url(#p0aef160cbf)" style="fill: none; stroke: #3f3f3f; stroke-width: 5.625; stroke-linecap: round"/>
   </g>
   <g id="line2d_14">
    <path d="M 165.736826 166.938891 
" clip-path="url(#p0aef160cbf)" style="fill: none; stroke: #3f3f3f; stroke-width: 1.5; stroke-linecap: round"/>
    <g clip-path="url(#p0aef160cbf)">
     <use xlink:href="#m6ac4d84157" x="165.736826" y="166.938891" style="fill: #ffffff; stroke: #ffffff; stroke-width: 1.125"/>
    </g>
   </g>
   <g id="line2d_15">
    <path d="M 253.463137 248.734429 
L 253.463137 72.818458 
" clip-path="url(#p0aef160cbf)" style="fill: none; stroke: #3f3f3f; stroke-width: 1.875; stroke-linecap: round"/>
   </g>
   <g id="line2d_16">
    <path d="M 253.463137 183.498778 
L 253.463137 121.887812 
" clip-path="url(#p0aef160cbf)" style="fill: none; stroke: #3f3f3f; stroke-width: 5.625; stroke-linecap: round"/>
   </g>
   <g id="line2d_17">
    <path d="M 253.463137 154.640765 
" clip-path="url(#p0aef160cbf)" style="fill: none; stroke: #3f3f3f; stroke-width: 1.5; stroke-linecap: round"/>
    <g clip-path="url(#p0aef160cbf)">
     <use xlink:href="#m6ac4d84157" x="253.463137" y="154.640765" style="fill: #ffffff; stroke: #ffffff; stroke-width: 1.125"/>
    </g>
   </g>
   <g id="line2d_18">
    <path d="M 311.947344 228.868992 
L 311.947344 137.97229 
" clip-path="url(#p0aef160cbf)" style="fill: none; stroke: #3f3f3f; stroke-width: 1.875; stroke-linecap: round"/>
   </g>
   <g id="line2d_19">
    <path d="M 311.947344 193.639637 
L 311.947344 167.138354 
" clip-path="url(#p0aef160cbf)" style="fill: none; stroke: #3f3f3f; stroke-width: 5.625; stroke-linecap: round"/>
   </g>
   <g id="line2d_20">
    <path d="M 311.947344 180.993226 
" clip-path="url(#p0aef160cbf)" style="fill: none; stroke: #3f3f3f; stroke-width: 1.5; stroke-linecap: round"/>
    <g clip-path="url(#p0aef160cbf)">
     <use xlink:href="#m6ac4d84157" x="311.947344" y="180.993226" style="fill: #ffffff; stroke: #ffffff; stroke-width: 1.125"/>
    </g>
   </g>
   <g id="patch_5">
    <path d="M 63.389463 318.04 
L 63.389463 10.8 
" style="fill: none; stroke: #cccccc; stroke-width: 0.8; stroke-linejoin: miter; stroke-linecap: square"/>
   </g>
   <g id="patch_6">
    <path d="M 63.389463 318.04 
L 355.8105 318.04 
" style="fill: none; stroke: #cccccc; stroke-width: 0.8; stroke-linejoin: miter; stroke-linecap: square"/>
   </g>
  </g>
  <g id="legend_1">
   <g id="text_13">
    <!-- Time -->
    <g style="fill: #262626" transform="translate(373.633594 168.439844) scale(0.1 -0.1)">
     <defs>
      <path id="ArialMT-54" d="M 1659 0 
L 1659 4041 
L 150 4041 
L 150 4581 
L 3781 4581 
L 3781 4041 
L 2266 4041 
L 2266 0 
L 1659 0 
z
" transform="scale(0.015625)"/>
      <path id="ArialMT-69" d="M 425 3934 
L 425 4581 
L 988 4581 
L 988 3934 
L 425 3934 
z
M 425 0 
L 425 3319 
L 988 3319 
L 988 0 
L 425 0 
z
" transform="scale(0.015625)"/>
     </defs>
     <use xlink:href="#ArialMT-54"/>
     <use xlink:href="#ArialMT-69" x="57.333984"/>
     <use xlink:href="#ArialMT-6d" x="79.550781"/>
     <use xlink:href="#ArialMT-65" x="162.851562"/>
    </g>
   </g>
   <g id="patch_7">
    <path d="M 359.1625 182.585156 
L 379.1625 182.585156 
L 379.1625 175.585156 
L 359.1625 175.585156 
z
" style="fill: #3274a1; stroke: #3f3f3f; stroke-width: 1.25; stroke-linejoin: miter"/>
   </g>
   <g id="text_14">
    <!-- initial -->
    <g style="fill: #262626" transform="translate(387.1625 182.585156) scale(0.1 -0.1)">
     <use xlink:href="#ArialMT-69"/>
     <use xlink:href="#ArialMT-6e" x="22.216797"/>
     <use xlink:href="#ArialMT-69" x="77.832031"/>
     <use xlink:href="#ArialMT-74" x="100.048828"/>
     <use xlink:href="#ArialMT-69" x="127.832031"/>
     <use xlink:href="#ArialMT-61" x="150.048828"/>
     <use xlink:href="#ArialMT-6c" x="205.664062"/>
    </g>
   </g>
   <g id="patch_8">
    <path d="M 359.1625 196.730469 
L 379.1625 196.730469 
L 379.1625 189.730469 
L 359.1625 189.730469 
z
" style="fill: #e1812c; stroke: #3f3f3f; stroke-width: 1.25; stroke-linejoin: miter"/>
   </g>
   <g id="text_15">
    <!-- final -->
    <g style="fill: #262626" transform="translate(387.1625 196.730469) scale(0.1 -0.1)">
     <use xlink:href="#ArialMT-66"/>
     <use xlink:href="#ArialMT-69" x="27.783203"/>
     <use xlink:href="#ArialMT-6e" x="50"/>
     <use xlink:href="#ArialMT-61" x="105.615234"/>
     <use xlink:href="#ArialMT-6c" x="161.230469"/>
    </g>
   </g>
  </g>
 </g>
 <defs>
  <clipPath id="p0aef160cbf">
   <rect x="63.389463" y="10.8" width="292.421038" height="307.24"/>
  </clipPath>
 </defs>
</svg>
