<?xml version="1.0" encoding="utf-8" standalone="no"?>
<!DOCTYPE svg PUBLIC "-//W3C//DTD SVG 1.1//EN"
  "http://www.w3.org/Graphics/SVG/1.1/DTD/svg11.dtd">
<svg xmlns:xlink="http://www.w3.org/1999/xlink" width="418.95pt" height="360pt" viewBox="0 0 418.95 360" xmlns="http://www.w3.org/2000/svg" version="1.1">
 <metadata>
  <rdf:RDF xmlns:dc="http://purl.org/dc/elements/1.1/" xmlns:cc="http://creativecommons.org/ns#" xmlns:rdf="http://www.w3.org/1999/02/22-rdf-syntax-ns#">
   <cc:Work>
    <dc:type rdf:resource="http://purl.org/dc/dcmitype/StillImage"/>
    <dc:date>2024-09-10T22:07:22.373387</dc:date>
    <dc:format>image/svg+xml</dc:format>
    <dc:creator>
     <cc:Agent>
      <dc:title>Matplotlib v3.8.3, https://matplotlib.org/</dc:title>
     </cc:Agent>
    </dc:creator>
   </cc:Work>
  </rdf:RDF>
 </metadata>
 <defs>
  <style type="text/css">*{stroke-linejoin: round; stroke-linecap: butt}</style>
 </defs>
 <g id="figure_1">
  <g id="patch_1">
   <path d="M 0 360 
L 418.95 360 
L 418.95 0 
L 0 0 
z
" style="fill: #ffffff"/>
  </g>
  <g id="axes_1">
   <g id="patch_2">
    <path d="M 56.895738 318.04 
L 355.8105 318.04 
L 355.8105 10.8 
L 56.895738 10.8 
z
" style="fill: #ffffff"/>
   </g>
   <g id="matplotlib.axis_1">
    <g id="xtick_1">
     <g id="text_1">
      <!-- f -->
      <g style="fill: #262626" transform="translate(130.235366 332.197812) scale(0.1 -0.1)">
       <defs>
        <path id="ArialMT-66" d="M 556 0 
L 556 2881 
L 59 2881 
L 59 3319 
L 556 3319 
L 556 3672 
Q 556 4006 616 4169 
Q 697 4388 901 4523 
Q 1106 4659 1475 4659 
Q 1713 4659 2000 4603 
L 1916 4113 
Q 1741 4144 1584 4144 
Q 1328 4144 1222 4034 
Q 1116 3925 1116 3625 
L 1116 3319 
L 1763 3319 
L 1763 2881 
L 1116 2881 
L 1116 0 
L 556 0 
z
" transform="scale(0.015625)"/>
       </defs>
       <use xlink:href="#ArialMT-66"/>
      </g>
     </g>
    </g>
    <g id="xtick_2">
     <g id="text_2">
      <!-- m -->
      <g style="fill: #262626" transform="translate(276.916966 332.197812) scale(0.1 -0.1)">
       <defs>
        <path id="ArialMT-6d" d="M 422 0 
L 422 3319 
L 925 3319 
L 925 2853 
Q 1081 3097 1340 3245 
Q 1600 3394 1931 3394 
Q 2300 3394 2536 3241 
Q 2772 3088 2869 2813 
Q 3263 3394 3894 3394 
Q 4388 3394 4653 3120 
Q 4919 2847 4919 2278 
L 4919 0 
L 4359 0 
L 4359 2091 
Q 4359 2428 4304 2576 
Q 4250 2725 4106 2815 
Q 3963 2906 3769 2906 
Q 3419 2906 3187 2673 
Q 2956 2441 2956 1928 
L 2956 0 
L 2394 0 
L 2394 2156 
Q 2394 2531 2256 2718 
Q 2119 2906 1806 2906 
Q 1569 2906 1367 2781 
Q 1166 2656 1075 2415 
Q 984 2175 984 1722 
L 984 0 
L 422 0 
z
" transform="scale(0.015625)"/>
       </defs>
       <use xlink:href="#ArialMT-6d"/>
      </g>
     </g>
    </g>
    <g id="text_3">
     <!-- sex -->
     <g style="fill: #262626" transform="translate(198.57265 345.343125) scale(0.1 -0.1)">
      <defs>
       <path id="ArialMT-73" d="M 197 991 
L 753 1078 
Q 800 744 1014 566 
Q 1228 388 1613 388 
Q 2000 388 2187 545 
Q 2375 703 2375 916 
Q 2375 1106 2209 1216 
Q 2094 1291 1634 1406 
Q 1016 1563 777 1677 
Q 538 1791 414 1992 
Q 291 2194 291 2438 
Q 291 2659 392 2848 
Q 494 3038 669 3163 
Q 800 3259 1026 3326 
Q 1253 3394 1513 3394 
Q 1903 3394 2198 3281 
Q 2494 3169 2634 2976 
Q 2775 2784 2828 2463 
L 2278 2388 
Q 2241 2644 2061 2787 
Q 1881 2931 1553 2931 
Q 1166 2931 1000 2803 
Q 834 2675 834 2503 
Q 834 2394 903 2306 
Q 972 2216 1119 2156 
Q 1203 2125 1616 2013 
Q 2213 1853 2448 1751 
Q 2684 1650 2818 1456 
Q 2953 1263 2953 975 
Q 2953 694 2789 445 
Q 2625 197 2315 61 
Q 2006 -75 1616 -75 
Q 969 -75 630 194 
Q 291 463 197 991 
z
" transform="scale(0.015625)"/>
       <path id="ArialMT-65" d="M 2694 1069 
L 3275 997 
Q 3138 488 2766 206 
Q 2394 -75 1816 -75 
Q 1088 -75 661 373 
Q 234 822 234 1631 
Q 234 2469 665 2931 
Q 1097 3394 1784 3394 
Q 2450 3394 2872 2941 
Q 3294 2488 3294 1666 
Q 3294 1616 3291 1516 
L 816 1516 
Q 847 969 1125 678 
Q 1403 388 1819 388 
Q 2128 388 2347 550 
Q 2566 713 2694 1069 
z
M 847 1978 
L 2700 1978 
Q 2663 2397 2488 2606 
Q 2219 2931 1791 2931 
Q 1403 2931 1139 2672 
Q 875 2413 847 1978 
z
" transform="scale(0.015625)"/>
       <path id="ArialMT-78" d="M 47 0 
L 1259 1725 
L 138 3319 
L 841 3319 
L 1350 2541 
Q 1494 2319 1581 2169 
Q 1719 2375 1834 2534 
L 2394 3319 
L 3066 3319 
L 1919 1756 
L 3153 0 
L 2463 0 
L 1781 1031 
L 1600 1309 
L 728 0 
L 47 0 
z
" transform="scale(0.015625)"/>
      </defs>
      <use xlink:href="#ArialMT-73"/>
      <use xlink:href="#ArialMT-65" x="50"/>
      <use xlink:href="#ArialMT-78" x="105.615234"/>
     </g>
    </g>
   </g>
   <g id="matplotlib.axis_2">
    <g id="ytick_1">
     <g id="line2d_1">
      <path d="M 56.895738 287.004036 
L 355.8105 287.004036 
" clip-path="url(#p138233a67f)" style="fill: none; stroke: #cccccc; stroke-width: 0.8; stroke-linecap: round"/>
     </g>
     <g id="text_4">
      <!-- −20 -->
      <g style="fill: #262626" transform="translate(32.933238 290.582942) scale(0.1 -0.1)">
       <defs>
        <path id="ArialMT-2212" d="M 3381 1997 
L 356 1997 
L 356 2522 
L 3381 2522 
L 3381 1997 
z
" transform="scale(0.015625)"/>
        <path id="ArialMT-32" d="M 3222 541 
L 3222 0 
L 194 0 
Q 188 203 259 391 
Q 375 700 629 1000 
Q 884 1300 1366 1694 
Q 2113 2306 2375 2664 
Q 2638 3022 2638 3341 
Q 2638 3675 2398 3904 
Q 2159 4134 1775 4134 
Q 1369 4134 1125 3890 
Q 881 3647 878 3216 
L 300 3275 
Q 359 3922 746 4261 
Q 1134 4600 1788 4600 
Q 2447 4600 2831 4234 
Q 3216 3869 3216 3328 
Q 3216 3053 3103 2787 
Q 2991 2522 2730 2228 
Q 2469 1934 1863 1422 
Q 1356 997 1212 845 
Q 1069 694 975 541 
L 3222 541 
z
" transform="scale(0.015625)"/>
        <path id="ArialMT-30" d="M 266 2259 
Q 266 3072 433 3567 
Q 600 4063 929 4331 
Q 1259 4600 1759 4600 
Q 2128 4600 2406 4451 
Q 2684 4303 2865 4023 
Q 3047 3744 3150 3342 
Q 3253 2941 3253 2259 
Q 3253 1453 3087 958 
Q 2922 463 2592 192 
Q 2263 -78 1759 -78 
Q 1097 -78 719 397 
Q 266 969 266 2259 
z
M 844 2259 
Q 844 1131 1108 757 
Q 1372 384 1759 384 
Q 2147 384 2411 759 
Q 2675 1134 2675 2259 
Q 2675 3391 2411 3762 
Q 2147 4134 1753 4134 
Q 1366 4134 1134 3806 
Q 844 3388 844 2259 
z
" transform="scale(0.015625)"/>
       </defs>
       <use xlink:href="#ArialMT-2212"/>
       <use xlink:href="#ArialMT-32" x="58.398438"/>
       <use xlink:href="#ArialMT-30" x="114.013672"/>
      </g>
     </g>
    </g>
    <g id="ytick_2">
     <g id="line2d_2">
      <path d="M 56.895738 240.70364 
L 355.8105 240.70364 
" clip-path="url(#p138233a67f)" style="fill: none; stroke: #cccccc; stroke-width: 0.8; stroke-linecap: round"/>
     </g>
     <g id="text_5">
      <!-- 0 -->
      <g style="fill: #262626" transform="translate(44.3348 244.282547) scale(0.1 -0.1)">
       <use xlink:href="#ArialMT-30"/>
      </g>
     </g>
    </g>
    <g id="ytick_3">
     <g id="line2d_3">
      <path d="M 56.895738 194.403244 
L 355.8105 194.403244 
" clip-path="url(#p138233a67f)" style="fill: none; stroke: #cccccc; stroke-width: 0.8; stroke-linecap: round"/>
     </g>
     <g id="text_6">
      <!-- 20 -->
      <g style="fill: #262626" transform="translate(38.773862 197.982151) scale(0.1 -0.1)">
       <use xlink:href="#ArialMT-32"/>
       <use xlink:href="#ArialMT-30" x="55.615234"/>
      </g>
     </g>
    </g>
    <g id="ytick_4">
     <g id="line2d_4">
      <path d="M 56.895738 148.102849 
L 355.8105 148.102849 
" clip-path="url(#p138233a67f)" style="fill: none; stroke: #cccccc; stroke-width: 0.8; stroke-linecap: round"/>
     </g>
     <g id="text_7">
      <!-- 40 -->
      <g style="fill: #262626" transform="translate(38.773862 151.681755) scale(0.1 -0.1)">
       <defs>
        <path id="ArialMT-34" d="M 2069 0 
L 2069 1097 
L 81 1097 
L 81 1613 
L 2172 4581 
L 2631 4581 
L 2631 1613 
L 3250 1613 
L 3250 1097 
L 2631 1097 
L 2631 0 
L 2069 0 
z
M 2069 1613 
L 2069 3678 
L 634 1613 
L 2069 1613 
z
" transform="scale(0.015625)"/>
       </defs>
       <use xlink:href="#ArialMT-34"/>
       <use xlink:href="#ArialMT-30" x="55.615234"/>
      </g>
     </g>
    </g>
    <g id="ytick_5">
     <g id="line2d_5">
      <path d="M 56.895738 101.802453 
L 355.8105 101.802453 
" clip-path="url(#p138233a67f)" style="fill: none; stroke: #cccccc; stroke-width: 0.8; stroke-linecap: round"/>
     </g>
     <g id="text_8">
      <!-- 60 -->
      <g style="fill: #262626" transform="translate(38.773862 105.381359) scale(0.1 -0.1)">
       <defs>
        <path id="ArialMT-36" d="M 3184 3459 
L 2625 3416 
Q 2550 3747 2413 3897 
Q 2184 4138 1850 4138 
Q 1581 4138 1378 3988 
Q 1113 3794 959 3422 
Q 806 3050 800 2363 
Q 1003 2672 1297 2822 
Q 1591 2972 1913 2972 
Q 2475 2972 2870 2558 
Q 3266 2144 3266 1488 
Q 3266 1056 3080 686 
Q 2894 316 2569 119 
Q 2244 -78 1831 -78 
Q 1128 -78 684 439 
Q 241 956 241 2144 
Q 241 3472 731 4075 
Q 1159 4600 1884 4600 
Q 2425 4600 2770 4297 
Q 3116 3994 3184 3459 
z
M 888 1484 
Q 888 1194 1011 928 
Q 1134 663 1356 523 
Q 1578 384 1822 384 
Q 2178 384 2434 671 
Q 2691 959 2691 1453 
Q 2691 1928 2437 2201 
Q 2184 2475 1800 2475 
Q 1419 2475 1153 2201 
Q 888 1928 888 1484 
z
" transform="scale(0.015625)"/>
       </defs>
       <use xlink:href="#ArialMT-36"/>
       <use xlink:href="#ArialMT-30" x="55.615234"/>
      </g>
     </g>
    </g>
    <g id="ytick_6">
     <g id="line2d_6">
      <path d="M 56.895738 55.502057 
L 355.8105 55.502057 
" clip-path="url(#p138233a67f)" style="fill: none; stroke: #cccccc; stroke-width: 0.8; stroke-linecap: round"/>
     </g>
     <g id="text_9">
      <!-- 80 -->
      <g style="fill: #262626" transform="translate(38.773862 59.080963) scale(0.1 -0.1)">
       <defs>
        <path id="ArialMT-38" d="M 1131 2484 
Q 781 2613 612 2850 
Q 444 3088 444 3419 
Q 444 3919 803 4259 
Q 1163 4600 1759 4600 
Q 2359 4600 2725 4251 
Q 3091 3903 3091 3403 
Q 3091 3084 2923 2848 
Q 2756 2613 2416 2484 
Q 2838 2347 3058 2040 
Q 3278 1734 3278 1309 
Q 3278 722 2862 322 
Q 2447 -78 1769 -78 
Q 1091 -78 675 323 
Q 259 725 259 1325 
Q 259 1772 486 2073 
Q 713 2375 1131 2484 
z
M 1019 3438 
Q 1019 3113 1228 2906 
Q 1438 2700 1772 2700 
Q 2097 2700 2305 2904 
Q 2513 3109 2513 3406 
Q 2513 3716 2298 3927 
Q 2084 4138 1766 4138 
Q 1444 4138 1231 3931 
Q 1019 3725 1019 3438 
z
M 838 1322 
Q 838 1081 952 856 
Q 1066 631 1291 507 
Q 1516 384 1775 384 
Q 2178 384 2440 643 
Q 2703 903 2703 1303 
Q 2703 1709 2433 1975 
Q 2163 2241 1756 2241 
Q 1359 2241 1098 1978 
Q 838 1716 838 1322 
z
" transform="scale(0.015625)"/>
       </defs>
       <use xlink:href="#ArialMT-38"/>
       <use xlink:href="#ArialMT-30" x="55.615234"/>
      </g>
     </g>
    </g>
    <g id="text_10">
     <!-- Fat energy % -->
     <g style="fill: #262626" transform="translate(26.82855 194.154375) rotate(-90) scale(0.1 -0.1)">
      <defs>
       <path id="ArialMT-46" d="M 525 0 
L 525 4581 
L 3616 4581 
L 3616 4041 
L 1131 4041 
L 1131 2622 
L 3281 2622 
L 3281 2081 
L 1131 2081 
L 1131 0 
L 525 0 
z
" transform="scale(0.015625)"/>
       <path id="ArialMT-61" d="M 2588 409 
Q 2275 144 1986 34 
Q 1697 -75 1366 -75 
Q 819 -75 525 192 
Q 231 459 231 875 
Q 231 1119 342 1320 
Q 453 1522 633 1644 
Q 813 1766 1038 1828 
Q 1203 1872 1538 1913 
Q 2219 1994 2541 2106 
Q 2544 2222 2544 2253 
Q 2544 2597 2384 2738 
Q 2169 2928 1744 2928 
Q 1347 2928 1158 2789 
Q 969 2650 878 2297 
L 328 2372 
Q 403 2725 575 2942 
Q 747 3159 1072 3276 
Q 1397 3394 1825 3394 
Q 2250 3394 2515 3294 
Q 2781 3194 2906 3042 
Q 3031 2891 3081 2659 
Q 3109 2516 3109 2141 
L 3109 1391 
Q 3109 606 3145 398 
Q 3181 191 3288 0 
L 2700 0 
Q 2613 175 2588 409 
z
M 2541 1666 
Q 2234 1541 1622 1453 
Q 1275 1403 1131 1340 
Q 988 1278 909 1158 
Q 831 1038 831 891 
Q 831 666 1001 516 
Q 1172 366 1500 366 
Q 1825 366 2078 508 
Q 2331 650 2450 897 
Q 2541 1088 2541 1459 
L 2541 1666 
z
" transform="scale(0.015625)"/>
       <path id="ArialMT-74" d="M 1650 503 
L 1731 6 
Q 1494 -44 1306 -44 
Q 1000 -44 831 53 
Q 663 150 594 308 
Q 525 466 525 972 
L 525 2881 
L 113 2881 
L 113 3319 
L 525 3319 
L 525 4141 
L 1084 4478 
L 1084 3319 
L 1650 3319 
L 1650 2881 
L 1084 2881 
L 1084 941 
Q 1084 700 1114 631 
Q 1144 563 1211 522 
Q 1278 481 1403 481 
Q 1497 481 1650 503 
z
" transform="scale(0.015625)"/>
       <path id="ArialMT-20" transform="scale(0.015625)"/>
       <path id="ArialMT-6e" d="M 422 0 
L 422 3319 
L 928 3319 
L 928 2847 
Q 1294 3394 1984 3394 
Q 2284 3394 2536 3286 
Q 2788 3178 2913 3003 
Q 3038 2828 3088 2588 
Q 3119 2431 3119 2041 
L 3119 0 
L 2556 0 
L 2556 2019 
Q 2556 2363 2490 2533 
Q 2425 2703 2258 2804 
Q 2091 2906 1866 2906 
Q 1506 2906 1245 2678 
Q 984 2450 984 1813 
L 984 0 
L 422 0 
z
" transform="scale(0.015625)"/>
       <path id="ArialMT-72" d="M 416 0 
L 416 3319 
L 922 3319 
L 922 2816 
Q 1116 3169 1280 3281 
Q 1444 3394 1641 3394 
Q 1925 3394 2219 3213 
L 2025 2691 
Q 1819 2813 1613 2813 
Q 1428 2813 1281 2702 
Q 1134 2591 1072 2394 
Q 978 2094 978 1738 
L 978 0 
L 416 0 
z
" transform="scale(0.015625)"/>
       <path id="ArialMT-67" d="M 319 -275 
L 866 -356 
Q 900 -609 1056 -725 
Q 1266 -881 1628 -881 
Q 2019 -881 2231 -725 
Q 2444 -569 2519 -288 
Q 2563 -116 2559 434 
Q 2191 0 1641 0 
Q 956 0 581 494 
Q 206 988 206 1678 
Q 206 2153 378 2554 
Q 550 2956 876 3175 
Q 1203 3394 1644 3394 
Q 2231 3394 2613 2919 
L 2613 3319 
L 3131 3319 
L 3131 450 
Q 3131 -325 2973 -648 
Q 2816 -972 2473 -1159 
Q 2131 -1347 1631 -1347 
Q 1038 -1347 672 -1080 
Q 306 -813 319 -275 
z
M 784 1719 
Q 784 1066 1043 766 
Q 1303 466 1694 466 
Q 2081 466 2343 764 
Q 2606 1063 2606 1700 
Q 2606 2309 2336 2618 
Q 2066 2928 1684 2928 
Q 1309 2928 1046 2623 
Q 784 2319 784 1719 
z
" transform="scale(0.015625)"/>
       <path id="ArialMT-79" d="M 397 -1278 
L 334 -750 
Q 519 -800 656 -800 
Q 844 -800 956 -737 
Q 1069 -675 1141 -563 
Q 1194 -478 1313 -144 
Q 1328 -97 1363 -6 
L 103 3319 
L 709 3319 
L 1400 1397 
Q 1534 1031 1641 628 
Q 1738 1016 1872 1384 
L 2581 3319 
L 3144 3319 
L 1881 -56 
Q 1678 -603 1566 -809 
Q 1416 -1088 1222 -1217 
Q 1028 -1347 759 -1347 
Q 597 -1347 397 -1278 
z
" transform="scale(0.015625)"/>
       <path id="ArialMT-25" d="M 372 3481 
Q 372 3972 619 4315 
Q 866 4659 1334 4659 
Q 1766 4659 2048 4351 
Q 2331 4044 2331 3447 
Q 2331 2866 2045 2552 
Q 1759 2238 1341 2238 
Q 925 2238 648 2547 
Q 372 2856 372 3481 
z
M 1350 4272 
Q 1141 4272 1002 4090 
Q 863 3909 863 3425 
Q 863 2984 1003 2804 
Q 1144 2625 1350 2625 
Q 1563 2625 1702 2806 
Q 1841 2988 1841 3469 
Q 1841 3913 1700 4092 
Q 1559 4272 1350 4272 
z
M 1353 -169 
L 3859 4659 
L 4316 4659 
L 1819 -169 
L 1353 -169 
z
M 3334 1075 
Q 3334 1569 3581 1911 
Q 3828 2253 4300 2253 
Q 4731 2253 5014 1945 
Q 5297 1638 5297 1041 
Q 5297 459 5011 145 
Q 4725 -169 4303 -169 
Q 3888 -169 3611 142 
Q 3334 453 3334 1075 
z
M 4316 1866 
Q 4103 1866 3964 1684 
Q 3825 1503 3825 1019 
Q 3825 581 3965 400 
Q 4106 219 4313 219 
Q 4528 219 4667 400 
Q 4806 581 4806 1063 
Q 4806 1506 4665 1686 
Q 4525 1866 4316 1866 
z
" transform="scale(0.015625)"/>
      </defs>
      <use xlink:href="#ArialMT-46"/>
      <use xlink:href="#ArialMT-61" x="61.083984"/>
      <use xlink:href="#ArialMT-74" x="116.699219"/>
      <use xlink:href="#ArialMT-20" x="144.482422"/>
      <use xlink:href="#ArialMT-65" x="172.265625"/>
      <use xlink:href="#ArialMT-6e" x="227.880859"/>
      <use xlink:href="#ArialMT-65" x="283.496094"/>
      <use xlink:href="#ArialMT-72" x="339.111328"/>
      <use xlink:href="#ArialMT-67" x="372.412109"/>
      <use xlink:href="#ArialMT-79" x="428.027344"/>
      <use xlink:href="#ArialMT-20" x="478.027344"/>
      <use xlink:href="#ArialMT-25" x="505.810547"/>
     </g>
    </g>
   </g>
   <g id="PolyCollection_1">
    <defs>
     <path id="m7349e3d39f" d="M 105.117577 -95.837681 
L 98.348327 -95.837681 
L 97.542156 -97.101628 
L 96.6023 -98.365575 
L 95.522096 -99.629521 
L 94.298534 -100.893468 
L 92.93312 -102.157415 
L 91.432634 -103.421362 
L 89.80971 -104.685309 
L 88.083157 -105.949255 
L 86.277966 -107.213202 
L 84.424954 -108.477149 
L 82.560034 -109.741096 
L 80.723101 -111.005042 
L 78.956594 -112.268989 
L 77.303801 -113.532936 
L 75.80699 -114.796883 
L 74.505501 -116.060829 
L 73.43392 -117.324776 
L 72.62046 -118.588723 
L 72.085656 -119.85267 
L 71.841476 -121.116616 
L 71.890893 -122.380563 
L 72.227944 -123.64451 
L 72.838256 -124.908457 
L 73.699987 -126.172404 
L 74.785101 -127.43635 
L 76.060874 -128.700297 
L 77.491511 -129.964244 
L 79.039787 -131.228191 
L 80.668576 -132.492137 
L 82.342221 -133.756084 
L 84.027655 -135.020031 
L 85.695264 -136.283978 
L 87.319463 -137.547924 
L 88.879006 -138.811871 
L 90.357058 -140.075818 
L 91.741062 -141.339765 
L 93.022456 -142.603712 
L 94.196279 -143.867658 
L 95.260708 -145.131605 
L 96.216573 -146.395552 
L 97.066863 -147.659499 
L 97.816266 -148.923445 
L 98.47073 -150.187392 
L 99.037086 -151.451339 
L 99.522702 -152.715286 
L 99.935197 -153.979232 
L 100.282198 -155.243179 
L 100.571134 -156.507126 
L 100.809078 -157.771073 
L 101.002618 -159.03502 
L 101.157763 -160.298966 
L 101.279877 -161.562913 
L 101.373639 -162.82686 
L 101.443029 -164.090807 
L 101.49133 -165.354753 
L 101.521156 -166.6187 
L 101.534497 -167.882647 
L 101.532771 -169.146594 
L 101.516905 -170.41054 
L 101.487418 -171.674487 
L 101.444524 -172.938434 
L 101.38824 -174.202381 
L 101.318501 -175.466328 
L 101.235285 -176.730274 
L 101.138732 -177.994221 
L 101.029256 -179.258168 
L 100.907651 -180.522115 
L 100.775171 -181.786061 
L 100.63359 -183.050008 
L 100.485221 -184.313955 
L 100.332908 -185.577902 
L 100.179969 -186.841848 
L 100.030107 -188.105795 
L 99.887276 -189.369742 
L 99.755523 -190.633689 
L 99.6388 -191.897635 
L 99.540777 -193.161582 
L 99.464652 -194.425529 
L 99.412975 -195.689476 
L 99.387513 -196.953423 
L 99.389145 -198.217369 
L 99.417815 -199.481316 
L 99.472535 -200.745263 
L 99.551441 -202.00921 
L 99.651898 -203.273156 
L 99.770649 -204.537103 
L 99.903986 -205.80105 
L 100.047943 -207.064997 
L 100.198491 -208.328943 
L 100.351721 -209.59289 
L 100.504003 -210.856837 
L 100.65212 -212.120784 
L 100.79336 -213.384731 
L 100.925572 -214.648677 
L 101.047191 -215.912624 
L 101.157214 -217.176571 
L 101.255165 -218.440518 
L 101.34103 -219.704464 
L 101.415175 -220.968411 
L 102.050729 -220.968411 
L 102.050729 -220.968411 
L 102.124874 -219.704464 
L 102.210738 -218.440518 
L 102.30869 -217.176571 
L 102.418713 -215.912624 
L 102.540331 -214.648677 
L 102.672544 -213.384731 
L 102.813784 -212.120784 
L 102.961901 -210.856837 
L 103.114183 -209.59289 
L 103.267413 -208.328943 
L 103.417961 -207.064997 
L 103.561918 -205.80105 
L 103.695254 -204.537103 
L 103.814005 -203.273156 
L 103.914463 -202.00921 
L 103.993369 -200.745263 
L 104.048089 -199.481316 
L 104.076759 -198.217369 
L 104.078391 -196.953423 
L 104.052928 -195.689476 
L 104.001252 -194.425529 
L 103.925126 -193.161582 
L 103.827104 -191.897635 
L 103.710381 -190.633689 
L 103.578627 -189.369742 
L 103.435797 -188.105795 
L 103.285935 -186.841848 
L 103.132996 -185.577902 
L 102.980683 -184.313955 
L 102.832314 -183.050008 
L 102.690732 -181.786061 
L 102.558253 -180.522115 
L 102.436648 -179.258168 
L 102.327172 -177.994221 
L 102.230619 -176.730274 
L 102.147403 -175.466328 
L 102.077664 -174.202381 
L 102.021379 -172.938434 
L 101.978486 -171.674487 
L 101.948999 -170.41054 
L 101.933133 -169.146594 
L 101.931407 -167.882647 
L 101.944747 -166.6187 
L 101.974574 -165.354753 
L 102.022875 -164.090807 
L 102.092265 -162.82686 
L 102.186027 -161.562913 
L 102.308141 -160.298966 
L 102.463286 -159.03502 
L 102.656826 -157.771073 
L 102.89477 -156.507126 
L 103.183706 -155.243179 
L 103.530707 -153.979232 
L 103.943202 -152.715286 
L 104.428818 -151.451339 
L 104.995173 -150.187392 
L 105.649638 -148.923445 
L 106.399041 -147.659499 
L 107.249331 -146.395552 
L 108.205196 -145.131605 
L 109.269625 -143.867658 
L 110.443447 -142.603712 
L 111.724842 -141.339765 
L 113.108846 -140.075818 
L 114.586898 -138.811871 
L 116.146441 -137.547924 
L 117.77064 -136.283978 
L 119.438249 -135.020031 
L 121.123683 -133.756084 
L 122.797328 -132.492137 
L 124.426117 -131.228191 
L 125.974393 -129.964244 
L 127.40503 -128.700297 
L 128.680802 -127.43635 
L 129.765917 -126.172404 
L 130.627648 -124.908457 
L 131.23796 -123.64451 
L 131.575011 -122.380563 
L 131.624428 -121.116616 
L 131.380248 -119.85267 
L 130.845444 -118.588723 
L 130.031984 -117.324776 
L 128.960403 -116.060829 
L 127.658914 -114.796883 
L 126.162102 -113.532936 
L 124.509309 -112.268989 
L 122.742803 -111.005042 
L 120.905869 -109.741096 
L 119.040949 -108.477149 
L 117.187938 -107.213202 
L 115.382747 -105.949255 
L 113.656194 -104.685309 
L 112.03327 -103.421362 
L 110.532784 -102.157415 
L 109.167369 -100.893468 
L 107.943808 -99.629521 
L 106.863604 -98.365575 
L 105.923747 -97.101628 
L 105.117577 -95.837681 
z
" style="stroke: #3f3f3f; stroke-width: 1.25"/>
    </defs>
    <g clip-path="url(#p138233a67f)">
     <use xlink:href="#m7349e3d39f" x="0" y="360" style="fill: #3274a1; stroke: #3f3f3f; stroke-width: 1.25"/>
    </g>
   </g>
   <g id="PolyCollection_2">
    <defs>
     <path id="m6ddaf0e309" d="M 163.300704 -55.925455 
L 159.731104 -55.925455 
L 159.379166 -58.746758 
L 158.97735 -61.568062 
L 158.522936 -64.389366 
L 158.013989 -67.21067 
L 157.449548 -70.031974 
L 156.829821 -72.853278 
L 156.156347 -75.674582 
L 155.432143 -78.495886 
L 154.661799 -81.31719 
L 153.851532 -84.138494 
L 153.009179 -86.959798 
L 152.144126 -89.781102 
L 151.267163 -92.602406 
L 150.390283 -95.42371 
L 149.526407 -98.245014 
L 148.689053 -101.066318 
L 147.891964 -103.887622 
L 147.148701 -106.708926 
L 146.472218 -109.53023 
L 145.87445 -112.351534 
L 145.365912 -115.172837 
L 144.955343 -117.994141 
L 144.649409 -120.815445 
L 144.452469 -123.636749 
L 144.36643 -126.458053 
L 144.390679 -129.279357 
L 144.522109 -132.100661 
L 144.755231 -134.921965 
L 145.082357 -137.743269 
L 145.493862 -140.564573 
L 145.978495 -143.385877 
L 146.523735 -146.207181 
L 147.116168 -149.028485 
L 147.741885 -151.849789 
L 148.386867 -154.671093 
L 149.03736 -157.492397 
L 149.680221 -160.313701 
L 150.303232 -163.135005 
L 150.895366 -165.956309 
L 151.447013 -168.777612 
L 151.950155 -171.598916 
L 152.398492 -174.42022 
L 152.787522 -177.241524 
L 153.114563 -180.062828 
L 153.378745 -182.884132 
L 153.580941 -185.705436 
L 153.723673 -188.52674 
L 153.810965 -191.348044 
L 153.848173 -194.169348 
L 153.841778 -196.990652 
L 153.799161 -199.811956 
L 153.728351 -202.63326 
L 153.637769 -205.454564 
L 153.53596 -208.275868 
L 153.431339 -211.097172 
L 153.33194 -213.918476 
L 153.245194 -216.73978 
L 153.177728 -219.561084 
L 153.135207 -222.382388 
L 153.122217 -225.203691 
L 153.142185 -228.024995 
L 153.197351 -230.846299 
L 153.288788 -233.667603 
L 153.416457 -236.488907 
L 153.5793 -239.310211 
L 153.775369 -242.131515 
L 154.001972 -244.952819 
L 154.255833 -247.774123 
L 154.533258 -250.595427 
L 154.8303 -253.416731 
L 155.142908 -256.238035 
L 155.467064 -259.059339 
L 155.798897 -261.880643 
L 156.134771 -264.701947 
L 156.471356 -267.523251 
L 156.805668 -270.344555 
L 157.135087 -273.165859 
L 157.457363 -275.987163 
L 157.7706 -278.808466 
L 158.073235 -281.62977 
L 158.364005 -284.451074 
L 158.641917 -287.272378 
L 158.90621 -290.093682 
L 159.156328 -292.914986 
L 159.391891 -295.73629 
L 159.61267 -298.557594 
L 159.818574 -301.378898 
L 160.009633 -304.200202 
L 160.185988 -307.021506 
L 160.347886 -309.84281 
L 160.495671 -312.664114 
L 160.629777 -315.485418 
L 160.750725 -318.306722 
L 160.859114 -321.128026 
L 160.955609 -323.94933 
L 161.040933 -326.770634 
L 161.115853 -329.591938 
L 161.181167 -332.413242 
L 161.237692 -335.234545 
L 161.794117 -335.234545 
L 161.794117 -335.234545 
L 161.850642 -332.413242 
L 161.915956 -329.591938 
L 161.990876 -326.770634 
L 162.0762 -323.94933 
L 162.172695 -321.128026 
L 162.281084 -318.306722 
L 162.402032 -315.485418 
L 162.536138 -312.664114 
L 162.683922 -309.84281 
L 162.84582 -307.021506 
L 163.022176 -304.200202 
L 163.213235 -301.378898 
L 163.419139 -298.557594 
L 163.639918 -295.73629 
L 163.87548 -292.914986 
L 164.125598 -290.093682 
L 164.389892 -287.272378 
L 164.667804 -284.451074 
L 164.958574 -281.62977 
L 165.261209 -278.808466 
L 165.574446 -275.987163 
L 165.896722 -273.165859 
L 166.226141 -270.344555 
L 166.560452 -267.523251 
L 166.897038 -264.701947 
L 167.232912 -261.880643 
L 167.564744 -259.059339 
L 167.8889 -256.238035 
L 168.201508 -253.416731 
L 168.498551 -250.595427 
L 168.775976 -247.774123 
L 169.029837 -244.952819 
L 169.256439 -242.131515 
L 169.452509 -239.310211 
L 169.615352 -236.488907 
L 169.74302 -233.667603 
L 169.834458 -230.846299 
L 169.889624 -228.024995 
L 169.909592 -225.203691 
L 169.896601 -222.382388 
L 169.854081 -219.561084 
L 169.786615 -216.73978 
L 169.699868 -213.918476 
L 169.60047 -211.097172 
L 169.495849 -208.275868 
L 169.39404 -205.454564 
L 169.303457 -202.63326 
L 169.232648 -199.811956 
L 169.190031 -196.990652 
L 169.183636 -194.169348 
L 169.220844 -191.348044 
L 169.308135 -188.52674 
L 169.450867 -185.705436 
L 169.653064 -182.884132 
L 169.917246 -180.062828 
L 170.244287 -177.241524 
L 170.633316 -174.42022 
L 171.081654 -171.598916 
L 171.584796 -168.777612 
L 172.136443 -165.956309 
L 172.728576 -163.135005 
L 173.351587 -160.313701 
L 173.994449 -157.492397 
L 174.644942 -154.671093 
L 175.289924 -151.849789 
L 175.915641 -149.028485 
L 176.508074 -146.207181 
L 177.053313 -143.385877 
L 177.537947 -140.564573 
L 177.949452 -137.743269 
L 178.276578 -134.921965 
L 178.509699 -132.100661 
L 178.64113 -129.279357 
L 178.665379 -126.458053 
L 178.579339 -123.636749 
L 178.3824 -120.815445 
L 178.076466 -117.994141 
L 177.665897 -115.172837 
L 177.157358 -112.351534 
L 176.55959 -109.53023 
L 175.883108 -106.708926 
L 175.139844 -103.887622 
L 174.342756 -101.066318 
L 173.505402 -98.245014 
L 172.641526 -95.42371 
L 171.764646 -92.602406 
L 170.887683 -89.781102 
L 170.022629 -86.959798 
L 169.180277 -84.138494 
L 168.37001 -81.31719 
L 167.599666 -78.495886 
L 166.875462 -75.674582 
L 166.201988 -72.853278 
L 165.582261 -70.031974 
L 165.01782 -67.21067 
L 164.508872 -64.389366 
L 164.054459 -61.568062 
L 163.652642 -58.746758 
L 163.300704 -55.925455 
z
" style="stroke: #3f3f3f; stroke-width: 1.25"/>
    </defs>
    <g clip-path="url(#p138233a67f)">
     <use xlink:href="#m6ddaf0e309" x="0" y="360" style="fill: #e1812c; stroke: #3f3f3f; stroke-width: 1.25"/>
    </g>
   </g>
   <g id="PolyCollection_3">
    <defs>
     <path id="mf18b3a9cfe" d="M 252.555573 -78.622881 
L 249.825093 -78.622881 
L 249.512404 -80.709767 
L 249.148966 -82.796653 
L 248.731869 -84.883539 
L 248.259332 -86.970425 
L 247.730995 -89.057312 
L 247.148186 -91.144198 
L 246.514141 -93.231084 
L 245.834156 -95.31797 
L 245.115651 -97.404856 
L 244.368126 -99.491742 
L 243.603009 -101.578628 
L 242.833379 -103.665514 
L 242.073572 -105.7524 
L 241.338693 -107.839286 
L 240.644047 -109.926172 
L 240.004527 -112.013058 
L 239.433982 -114.099944 
L 238.944622 -116.18683 
L 238.546482 -118.273716 
L 238.246993 -120.360602 
L 238.05067 -122.447488 
L 237.958968 -124.534374 
L 237.970277 -126.62126 
L 238.080085 -128.708146 
L 238.281278 -130.795032 
L 238.564565 -132.881918 
L 238.918985 -134.968805 
L 239.33247 -137.055691 
L 239.792426 -139.142577 
L 240.286289 -141.229463 
L 240.802027 -143.316349 
L 241.328564 -145.403235 
L 241.856103 -147.490121 
L 242.376339 -149.577007 
L 242.882563 -151.663893 
L 243.36966 -153.750779 
L 243.834022 -155.837665 
L 244.27338 -157.924551 
L 244.686593 -160.011437 
L 245.073404 -162.098323 
L 245.434194 -164.185209 
L 245.769747 -166.272095 
L 246.081042 -168.358981 
L 246.369094 -170.445867 
L 246.634836 -172.532753 
L 246.879049 -174.619639 
L 247.102347 -176.706525 
L 247.305192 -178.793411 
L 247.487952 -180.880297 
L 247.650964 -182.967184 
L 247.794624 -185.05407 
L 247.919458 -187.140956 
L 248.026192 -189.227842 
L 248.115797 -191.314728 
L 248.189518 -193.401614 
L 248.248866 -195.4885 
L 248.295599 -197.575386 
L 248.33167 -199.662272 
L 248.35917 -201.749158 
L 248.380253 -203.836044 
L 248.397062 -205.92293 
L 248.411662 -208.009816 
L 248.425974 -210.096702 
L 248.44173 -212.183588 
L 248.460442 -214.270474 
L 248.483376 -216.35736 
L 248.511559 -218.444246 
L 248.545782 -220.531132 
L 248.586619 -222.618018 
L 248.634449 -224.704904 
L 248.689482 -226.79179 
L 248.751781 -228.878677 
L 248.821278 -230.965563 
L 248.897791 -233.052449 
L 248.981027 -235.139335 
L 249.070591 -237.226221 
L 249.165982 -239.313107 
L 249.266591 -241.399993 
L 249.371706 -243.486879 
L 249.480511 -245.573765 
L 249.592092 -247.660651 
L 249.705458 -249.747537 
L 249.819551 -251.834423 
L 249.933278 -253.921309 
L 250.045538 -256.008195 
L 250.155252 -258.095081 
L 250.261402 -260.181967 
L 250.363054 -262.268853 
L 250.459392 -264.355739 
L 250.549739 -266.442625 
L 250.633572 -268.529511 
L 250.710532 -270.616397 
L 250.780424 -272.703283 
L 250.843213 -274.79017 
L 250.899008 -276.877056 
L 250.94805 -278.963942 
L 250.990686 -281.050828 
L 251.027346 -283.137714 
L 251.058523 -285.2246 
L 251.322143 -285.2246 
L 251.322143 -285.2246 
L 251.35332 -283.137714 
L 251.389981 -281.050828 
L 251.432616 -278.963942 
L 251.481658 -276.877056 
L 251.537454 -274.79017 
L 251.600242 -272.703283 
L 251.670135 -270.616397 
L 251.747094 -268.529511 
L 251.830927 -266.442625 
L 251.921274 -264.355739 
L 252.017612 -262.268853 
L 252.119264 -260.181967 
L 252.225414 -258.095081 
L 252.335129 -256.008195 
L 252.447388 -253.921309 
L 252.561115 -251.834423 
L 252.675208 -249.747537 
L 252.788574 -247.660651 
L 252.900155 -245.573765 
L 253.00896 -243.486879 
L 253.114075 -241.399993 
L 253.214685 -239.313107 
L 253.310075 -237.226221 
L 253.399639 -235.139335 
L 253.482876 -233.052449 
L 253.559388 -230.965563 
L 253.628885 -228.878677 
L 253.691184 -226.79179 
L 253.746218 -224.704904 
L 253.794048 -222.618018 
L 253.834884 -220.531132 
L 253.869107 -218.444246 
L 253.89729 -216.35736 
L 253.920225 -214.270474 
L 253.938936 -212.183588 
L 253.954693 -210.096702 
L 253.969005 -208.009816 
L 253.983604 -205.92293 
L 254.000413 -203.836044 
L 254.021496 -201.749158 
L 254.048996 -199.662272 
L 254.085068 -197.575386 
L 254.1318 -195.4885 
L 254.191149 -193.401614 
L 254.264869 -191.314728 
L 254.354474 -189.227842 
L 254.461208 -187.140956 
L 254.586042 -185.05407 
L 254.729702 -182.967184 
L 254.892715 -180.880297 
L 255.075474 -178.793411 
L 255.278319 -176.706525 
L 255.501617 -174.619639 
L 255.74583 -172.532753 
L 256.011572 -170.445867 
L 256.299624 -168.358981 
L 256.61092 -166.272095 
L 256.946472 -164.185209 
L 257.307262 -162.098323 
L 257.694073 -160.011437 
L 258.107286 -157.924551 
L 258.546644 -155.837665 
L 259.011006 -153.750779 
L 259.498104 -151.663893 
L 260.004327 -149.577007 
L 260.524563 -147.490121 
L 261.052102 -145.403235 
L 261.578639 -143.316349 
L 262.094378 -141.229463 
L 262.588241 -139.142577 
L 263.048197 -137.055691 
L 263.461681 -134.968805 
L 263.816101 -132.881918 
L 264.099388 -130.795032 
L 264.300581 -128.708146 
L 264.410389 -126.62126 
L 264.421698 -124.534374 
L 264.329996 -122.447488 
L 264.133674 -120.360602 
L 263.834184 -118.273716 
L 263.436045 -116.18683 
L 262.946684 -114.099944 
L 262.376139 -112.013058 
L 261.736619 -109.926172 
L 261.041973 -107.839286 
L 260.307094 -105.7524 
L 259.547287 -103.665514 
L 258.777657 -101.578628 
L 258.012541 -99.491742 
L 257.265016 -97.404856 
L 256.54651 -95.31797 
L 255.866525 -93.231084 
L 255.23248 -91.144198 
L 254.649672 -89.057312 
L 254.121335 -86.970425 
L 253.648797 -84.883539 
L 253.2317 -82.796653 
L 252.868263 -80.709767 
L 252.555573 -78.622881 
z
" style="stroke: #3f3f3f; stroke-width: 1.25"/>
    </defs>
    <g clip-path="url(#p138233a67f)">
     <use xlink:href="#mf18b3a9cfe" x="0" y="360" style="fill: #3274a1; stroke: #3f3f3f; stroke-width: 1.25"/>
    </g>
   </g>
   <g id="PolyCollection_4">
    <defs>
     <path id="m2067d027eb" d="M 312.444977 -84.160782 
L 309.501594 -84.160782 
L 309.078265 -86.249253 
L 308.56399 -88.337724 
L 307.948452 -90.426195 
L 307.222607 -92.514666 
L 306.379367 -94.603137 
L 305.414288 -96.691609 
L 304.326192 -98.78008 
L 303.117692 -100.868551 
L 301.795536 -102.957022 
L 300.37075 -105.045493 
L 298.858533 -107.133964 
L 297.277911 -109.222435 
L 295.65115 -111.310906 
L 294.002979 -113.399378 
L 292.359676 -115.487849 
L 290.748084 -117.57632 
L 289.194634 -119.664791 
L 287.724459 -121.753262 
L 286.360634 -123.841733 
L 285.123607 -125.930204 
L 284.030822 -128.018675 
L 283.096524 -130.107146 
L 282.331736 -132.195618 
L 281.744345 -134.284089 
L 281.33926 -136.37256 
L 281.118591 -138.461031 
L 281.081809 -140.549502 
L 281.225865 -142.637973 
L 281.545256 -144.726444 
L 282.032051 -146.814915 
L 282.675894 -148.903386 
L 283.464018 -150.991858 
L 284.381298 -153.080329 
L 285.410389 -155.1688 
L 286.53195 -157.257271 
L 287.724997 -159.345742 
L 288.967358 -161.434213 
L 290.236253 -163.522684 
L 291.508955 -165.611155 
L 292.763514 -167.699627 
L 293.979509 -169.788098 
L 295.138779 -171.876569 
L 296.226103 -173.96504 
L 297.22976 -176.053511 
L 298.141959 -178.141982 
L 298.959073 -180.230453 
L 299.681669 -182.318924 
L 300.314313 -184.407395 
L 300.865151 -186.495867 
L 301.345279 -188.584338 
L 301.767952 -190.672809 
L 302.147667 -192.76128 
L 302.49918 -194.849751 
L 302.836553 -196.938222 
L 303.172261 -199.026693 
L 303.516461 -201.115164 
L 303.876441 -203.203636 
L 304.256316 -205.292107 
L 304.65695 -207.380578 
L 305.076129 -209.469049 
L 305.508931 -211.55752 
L 305.948275 -213.645991 
L 306.385575 -215.734462 
L 306.811462 -217.822933 
L 307.216496 -219.911404 
L 307.591842 -221.999876 
L 307.929843 -224.088347 
L 308.224485 -226.176818 
L 308.471721 -228.265289 
L 308.669651 -230.35376 
L 308.818565 -232.442231 
L 308.920856 -234.530702 
L 308.980823 -236.619173 
L 309.004372 -238.707644 
L 308.998654 -240.796116 
L 308.971649 -242.884587 
L 308.931717 -244.973058 
L 308.887157 -247.061529 
L 308.845781 -249.15 
L 308.814533 -251.238471 
L 308.799169 -253.326942 
L 308.80403 -255.415413 
L 308.831898 -257.503885 
L 308.883959 -259.592356 
L 308.959865 -261.680827 
L 309.05789 -263.769298 
L 309.175155 -265.857769 
L 309.30791 -267.94624 
L 309.451854 -270.034711 
L 309.602445 -272.123182 
L 309.755203 -274.211653 
L 309.905967 -276.300125 
L 310.051096 -278.388596 
L 310.187614 -280.477067 
L 310.313281 -282.565538 
L 310.426608 -284.654009 
L 310.526818 -286.74248 
L 310.61377 -288.830951 
L 310.687846 -290.919422 
L 311.258725 -290.919422 
L 311.258725 -290.919422 
L 311.332801 -288.830951 
L 311.419753 -286.74248 
L 311.519963 -284.654009 
L 311.63329 -282.565538 
L 311.758957 -280.477067 
L 311.895475 -278.388596 
L 312.040604 -276.300125 
L 312.191368 -274.211653 
L 312.344126 -272.123182 
L 312.494717 -270.034711 
L 312.638661 -267.94624 
L 312.771417 -265.857769 
L 312.888681 -263.769298 
L 312.986706 -261.680827 
L 313.062612 -259.592356 
L 313.114673 -257.503885 
L 313.142541 -255.415413 
L 313.147402 -253.326942 
L 313.132039 -251.238471 
L 313.10079 -249.15 
L 313.059414 -247.061529 
L 313.014855 -244.973058 
L 312.974922 -242.884587 
L 312.947917 -240.796116 
L 312.9422 -238.707644 
L 312.965749 -236.619173 
L 313.025715 -234.530702 
L 313.128006 -232.442231 
L 313.27692 -230.35376 
L 313.47485 -228.265289 
L 313.722086 -226.176818 
L 314.016729 -224.088347 
L 314.35473 -221.999876 
L 314.730075 -219.911404 
L 315.13511 -217.822933 
L 315.560996 -215.734462 
L 315.998297 -213.645991 
L 316.43764 -211.55752 
L 316.870442 -209.469049 
L 317.289621 -207.380578 
L 317.690255 -205.292107 
L 318.07013 -203.203636 
L 318.430111 -201.115164 
L 318.77431 -199.026693 
L 319.110018 -196.938222 
L 319.447391 -194.849751 
L 319.798905 -192.76128 
L 320.178619 -190.672809 
L 320.601293 -188.584338 
L 321.081421 -186.495867 
L 321.632258 -184.407395 
L 322.264902 -182.318924 
L 322.987498 -180.230453 
L 323.804612 -178.141982 
L 324.716811 -176.053511 
L 325.720468 -173.96504 
L 326.807792 -171.876569 
L 327.967063 -169.788098 
L 329.183057 -167.699627 
L 330.437616 -165.611155 
L 331.710318 -163.522684 
L 332.979213 -161.434213 
L 334.221574 -159.345742 
L 335.414621 -157.257271 
L 336.536183 -155.1688 
L 337.565273 -153.080329 
L 338.482554 -150.991858 
L 339.270677 -148.903386 
L 339.91452 -146.814915 
L 340.401315 -144.726444 
L 340.720706 -142.637973 
L 340.864762 -140.549502 
L 340.82798 -138.461031 
L 340.607311 -136.37256 
L 340.202226 -134.284089 
L 339.614835 -132.195618 
L 338.850047 -130.107146 
L 337.915749 -128.018675 
L 336.822964 -125.930204 
L 335.585938 -123.841733 
L 334.222113 -121.753262 
L 332.751937 -119.664791 
L 331.198488 -117.57632 
L 329.586895 -115.487849 
L 327.943592 -113.399378 
L 326.295422 -111.310906 
L 324.66866 -109.222435 
L 323.088038 -107.133964 
L 321.575821 -105.045493 
L 320.151035 -102.957022 
L 318.828879 -100.868551 
L 317.620379 -98.78008 
L 316.532283 -96.691609 
L 315.567204 -94.603137 
L 314.723965 -92.514666 
L 313.998119 -90.426195 
L 313.382581 -88.337724 
L 312.868306 -86.249253 
L 312.444977 -84.160782 
z
" style="stroke: #3f3f3f; stroke-width: 1.25"/>
    </defs>
    <g clip-path="url(#p138233a67f)">
     <use xlink:href="#m2067d027eb" x="0" y="360" style="fill: #e1812c; stroke: #3f3f3f; stroke-width: 1.25"/>
    </g>
   </g>
   <g id="patch_3">
    <path d="M 131.624428 240.70364 
L 131.624428 240.70364 
L 131.624428 240.70364 
L 131.624428 240.70364 
z
" clip-path="url(#p138233a67f)" style="fill: #3274a1; stroke: #3f3f3f; stroke-width: 1.25; stroke-linejoin: miter"/>
   </g>
   <g id="patch_4">
    <path d="M 131.624428 240.70364 
L 131.624428 240.70364 
L 131.624428 240.70364 
L 131.624428 240.70364 
z
" clip-path="url(#p138233a67f)" style="fill: #e1812c; stroke: #3f3f3f; stroke-width: 1.25; stroke-linejoin: miter"/>
   </g>
   <g id="line2d_7">
    <path d="M 101.732952 240.70364 
L 101.732952 223.656787 
" clip-path="url(#p138233a67f)" style="fill: none; stroke: #3f3f3f; stroke-width: 1.875; stroke-linecap: round"/>
   </g>
   <g id="line2d_8">
    <path d="M 101.732952 240.70364 
L 101.732952 233.678598 
" clip-path="url(#p138233a67f)" style="fill: none; stroke: #3f3f3f; stroke-width: 5.625; stroke-linecap: round"/>
   </g>
   <g id="line2d_9">
    <path d="M 101.732952 240.70364 
" clip-path="url(#p138233a67f)" style="fill: none; stroke: #3f3f3f; stroke-width: 1.5; stroke-linecap: round"/>
    <defs>
     <path id="m2ccf8f0703" d="M 2.34375 0 
L -2.34375 -0 
" style="stroke: #ffffff; stroke-width: 1.125"/>
    </defs>
    <g clip-path="url(#p138233a67f)">
     <use xlink:href="#m2ccf8f0703" x="101.732952" y="240.70364" style="fill: #ffffff; stroke: #ffffff; stroke-width: 1.125"/>
    </g>
   </g>
   <g id="line2d_10">
    <path d="M 161.515904 240.70364 
L 161.515904 88.13636 
" clip-path="url(#p138233a67f)" style="fill: none; stroke: #3f3f3f; stroke-width: 1.875; stroke-linecap: round"/>
   </g>
   <g id="line2d_11">
    <path d="M 161.515904 240.70364 
L 161.515904 140.35412 
" clip-path="url(#p138233a67f)" style="fill: none; stroke: #3f3f3f; stroke-width: 5.625; stroke-linecap: round"/>
   </g>
   <g id="line2d_12">
    <path d="M 161.515904 225.940426 
" clip-path="url(#p138233a67f)" style="fill: none; stroke: #3f3f3f; stroke-width: 1.5; stroke-linecap: round"/>
    <g clip-path="url(#p138233a67f)">
     <use xlink:href="#m2ccf8f0703" x="161.515904" y="225.940426" style="fill: #ffffff; stroke: #ffffff; stroke-width: 1.125"/>
    </g>
   </g>
   <g id="line2d_13">
    <path d="M 251.190333 240.70364 
L 251.190333 132.034637 
" clip-path="url(#p138233a67f)" style="fill: none; stroke: #3f3f3f; stroke-width: 1.875; stroke-linecap: round"/>
   </g>
   <g id="line2d_14">
    <path d="M 251.190333 240.70364 
L 251.190333 196.77599 
" clip-path="url(#p138233a67f)" style="fill: none; stroke: #3f3f3f; stroke-width: 5.625; stroke-linecap: round"/>
   </g>
   <g id="line2d_15">
    <path d="M 251.190333 232.45076 
" clip-path="url(#p138233a67f)" style="fill: none; stroke: #3f3f3f; stroke-width: 1.5; stroke-linecap: round"/>
    <g clip-path="url(#p138233a67f)">
     <use xlink:href="#m2ccf8f0703" x="251.190333" y="232.45076" style="fill: #ffffff; stroke: #ffffff; stroke-width: 1.125"/>
    </g>
   </g>
   <g id="line2d_16">
    <path d="M 310.973286 240.70364 
L 310.973286 153.909106 
" clip-path="url(#p138233a67f)" style="fill: none; stroke: #3f3f3f; stroke-width: 1.875; stroke-linecap: round"/>
   </g>
   <g id="line2d_17">
    <path d="M 310.973286 229.603787 
L 310.973286 195.492111 
" clip-path="url(#p138233a67f)" style="fill: none; stroke: #3f3f3f; stroke-width: 5.625; stroke-linecap: round"/>
   </g>
   <g id="line2d_18">
    <path d="M 310.973286 214.695075 
" clip-path="url(#p138233a67f)" style="fill: none; stroke: #3f3f3f; stroke-width: 1.5; stroke-linecap: round"/>
    <g clip-path="url(#p138233a67f)">
     <use xlink:href="#m2ccf8f0703" x="310.973286" y="214.695075" style="fill: #ffffff; stroke: #ffffff; stroke-width: 1.125"/>
    </g>
   </g>
   <g id="patch_5">
    <path d="M 56.895738 318.04 
L 56.895738 10.8 
" style="fill: none; stroke: #cccccc; stroke-width: 0.8; stroke-linejoin: miter; stroke-linecap: square"/>
   </g>
   <g id="patch_6">
    <path d="M 56.895738 318.04 
L 355.8105 318.04 
" style="fill: none; stroke: #cccccc; stroke-width: 0.8; stroke-linejoin: miter; stroke-linecap: square"/>
   </g>
  </g>
  <g id="legend_1">
   <g id="text_11">
    <!-- Time -->
    <g style="fill: #262626" transform="translate(373.633594 168.439844) scale(0.1 -0.1)">
     <defs>
      <path id="ArialMT-54" d="M 1659 0 
L 1659 4041 
L 150 4041 
L 150 4581 
L 3781 4581 
L 3781 4041 
L 2266 4041 
L 2266 0 
L 1659 0 
z
" transform="scale(0.015625)"/>
      <path id="ArialMT-69" d="M 425 3934 
L 425 4581 
L 988 4581 
L 988 3934 
L 425 3934 
z
M 425 0 
L 425 3319 
L 988 3319 
L 988 0 
L 425 0 
z
" transform="scale(0.015625)"/>
     </defs>
     <use xlink:href="#ArialMT-54"/>
     <use xlink:href="#ArialMT-69" x="57.333984"/>
     <use xlink:href="#ArialMT-6d" x="79.550781"/>
     <use xlink:href="#ArialMT-65" x="162.851562"/>
    </g>
   </g>
   <g id="patch_7">
    <path d="M 359.1625 182.585156 
L 379.1625 182.585156 
L 379.1625 175.585156 
L 359.1625 175.585156 
z
" style="fill: #3274a1; stroke: #3f3f3f; stroke-width: 1.25; stroke-linejoin: miter"/>
   </g>
   <g id="text_12">
    <!-- initial -->
    <g style="fill: #262626" transform="translate(387.1625 182.585156) scale(0.1 -0.1)">
     <defs>
      <path id="ArialMT-6c" d="M 409 0 
L 409 4581 
L 972 4581 
L 972 0 
L 409 0 
z
" transform="scale(0.015625)"/>
     </defs>
     <use xlink:href="#ArialMT-69"/>
     <use xlink:href="#ArialMT-6e" x="22.216797"/>
     <use xlink:href="#ArialMT-69" x="77.832031"/>
     <use xlink:href="#ArialMT-74" x="100.048828"/>
     <use xlink:href="#ArialMT-69" x="127.832031"/>
     <use xlink:href="#ArialMT-61" x="150.048828"/>
     <use xlink:href="#ArialMT-6c" x="205.664062"/>
    </g>
   </g>
   <g id="patch_8">
    <path d="M 359.1625 196.730469 
L 379.1625 196.730469 
L 379.1625 189.730469 
L 359.1625 189.730469 
z
" style="fill: #e1812c; stroke: #3f3f3f; stroke-width: 1.25; stroke-linejoin: miter"/>
   </g>
   <g id="text_13">
    <!-- final -->
    <g style="fill: #262626" transform="translate(387.1625 196.730469) scale(0.1 -0.1)">
     <use xlink:href="#ArialMT-66"/>
     <use xlink:href="#ArialMT-69" x="27.783203"/>
     <use xlink:href="#ArialMT-6e" x="50"/>
     <use xlink:href="#ArialMT-61" x="105.615234"/>
     <use xlink:href="#ArialMT-6c" x="161.230469"/>
    </g>
   </g>
  </g>
 </g>
 <defs>
  <clipPath id="p138233a67f">
   <rect x="56.895738" y="10.8" width="298.914762" height="307.24"/>
  </clipPath>
 </defs>
</svg>
