<?xml version="1.0" encoding="utf-8" standalone="no"?>
<!DOCTYPE svg PUBLIC "-//W3C//DTD SVG 1.1//EN"
  "http://www.w3.org/Graphics/SVG/1.1/DTD/svg11.dtd">
<svg xmlns:xlink="http://www.w3.org/1999/xlink" width="418.95pt" height="360pt" viewBox="0 0 418.95 360" xmlns="http://www.w3.org/2000/svg" version="1.1">
 <metadata>
  <rdf:RDF xmlns:dc="http://purl.org/dc/elements/1.1/" xmlns:cc="http://creativecommons.org/ns#" xmlns:rdf="http://www.w3.org/1999/02/22-rdf-syntax-ns#">
   <cc:Work>
    <dc:type rdf:resource="http://purl.org/dc/dcmitype/StillImage"/>
    <dc:date>2024-09-10T22:07:15.028855</dc:date>
    <dc:format>image/svg+xml</dc:format>
    <dc:creator>
     <cc:Agent>
      <dc:title>Matplotlib v3.8.3, https://matplotlib.org/</dc:title>
     </cc:Agent>
    </dc:creator>
   </cc:Work>
  </rdf:RDF>
 </metadata>
 <defs>
  <style type="text/css">*{stroke-linejoin: round; stroke-linecap: butt}</style>
 </defs>
 <g id="figure_1">
  <g id="patch_1">
   <path d="M 0 360 
L 418.95 360 
L 418.95 0 
L 0 0 
z
" style="fill: #ffffff"/>
  </g>
  <g id="axes_1">
   <g id="patch_2">
    <path d="M 56.581525 318.04 
L 355.8105 318.04 
L 355.8105 10.8 
L 56.581525 10.8 
z
" style="fill: #ffffff"/>
   </g>
   <g id="matplotlib.axis_1">
    <g id="xtick_1">
     <g id="text_1">
      <!-- f -->
      <g style="fill: #262626" transform="translate(129.999706 332.197812) scale(0.1 -0.1)">
       <defs>
        <path id="ArialMT-66" d="M 556 0 
L 556 2881 
L 59 2881 
L 59 3319 
L 556 3319 
L 556 3672 
Q 556 4006 616 4169 
Q 697 4388 901 4523 
Q 1106 4659 1475 4659 
Q 1713 4659 2000 4603 
L 1916 4113 
Q 1741 4144 1584 4144 
Q 1328 4144 1222 4034 
Q 1116 3925 1116 3625 
L 1116 3319 
L 1763 3319 
L 1763 2881 
L 1116 2881 
L 1116 0 
L 556 0 
z
" transform="scale(0.015625)"/>
       </defs>
       <use xlink:href="#ArialMT-66"/>
      </g>
     </g>
    </g>
    <g id="xtick_2">
     <g id="text_2">
      <!-- m -->
      <g style="fill: #262626" transform="translate(276.838413 332.197812) scale(0.1 -0.1)">
       <defs>
        <path id="ArialMT-6d" d="M 422 0 
L 422 3319 
L 925 3319 
L 925 2853 
Q 1081 3097 1340 3245 
Q 1600 3394 1931 3394 
Q 2300 3394 2536 3241 
Q 2772 3088 2869 2813 
Q 3263 3394 3894 3394 
Q 4388 3394 4653 3120 
Q 4919 2847 4919 2278 
L 4919 0 
L 4359 0 
L 4359 2091 
Q 4359 2428 4304 2576 
Q 4250 2725 4106 2815 
Q 3963 2906 3769 2906 
Q 3419 2906 3187 2673 
Q 2956 2441 2956 1928 
L 2956 0 
L 2394 0 
L 2394 2156 
Q 2394 2531 2256 2718 
Q 2119 2906 1806 2906 
Q 1569 2906 1367 2781 
Q 1166 2656 1075 2415 
Q 984 2175 984 1722 
L 984 0 
L 422 0 
z
" transform="scale(0.015625)"/>
       </defs>
       <use xlink:href="#ArialMT-6d"/>
      </g>
     </g>
    </g>
    <g id="text_3">
     <!-- sex -->
     <g style="fill: #262626" transform="translate(198.415544 345.343125) scale(0.1 -0.1)">
      <defs>
       <path id="ArialMT-73" d="M 197 991 
L 753 1078 
Q 800 744 1014 566 
Q 1228 388 1613 388 
Q 2000 388 2187 545 
Q 2375 703 2375 916 
Q 2375 1106 2209 1216 
Q 2094 1291 1634 1406 
Q 1016 1563 777 1677 
Q 538 1791 414 1992 
Q 291 2194 291 2438 
Q 291 2659 392 2848 
Q 494 3038 669 3163 
Q 800 3259 1026 3326 
Q 1253 3394 1513 3394 
Q 1903 3394 2198 3281 
Q 2494 3169 2634 2976 
Q 2775 2784 2828 2463 
L 2278 2388 
Q 2241 2644 2061 2787 
Q 1881 2931 1553 2931 
Q 1166 2931 1000 2803 
Q 834 2675 834 2503 
Q 834 2394 903 2306 
Q 972 2216 1119 2156 
Q 1203 2125 1616 2013 
Q 2213 1853 2448 1751 
Q 2684 1650 2818 1456 
Q 2953 1263 2953 975 
Q 2953 694 2789 445 
Q 2625 197 2315 61 
Q 2006 -75 1616 -75 
Q 969 -75 630 194 
Q 291 463 197 991 
z
" transform="scale(0.015625)"/>
       <path id="ArialMT-65" d="M 2694 1069 
L 3275 997 
Q 3138 488 2766 206 
Q 2394 -75 1816 -75 
Q 1088 -75 661 373 
Q 234 822 234 1631 
Q 234 2469 665 2931 
Q 1097 3394 1784 3394 
Q 2450 3394 2872 2941 
Q 3294 2488 3294 1666 
Q 3294 1616 3291 1516 
L 816 1516 
Q 847 969 1125 678 
Q 1403 388 1819 388 
Q 2128 388 2347 550 
Q 2566 713 2694 1069 
z
M 847 1978 
L 2700 1978 
Q 2663 2397 2488 2606 
Q 2219 2931 1791 2931 
Q 1403 2931 1139 2672 
Q 875 2413 847 1978 
z
" transform="scale(0.015625)"/>
       <path id="ArialMT-78" d="M 47 0 
L 1259 1725 
L 138 3319 
L 841 3319 
L 1350 2541 
Q 1494 2319 1581 2169 
Q 1719 2375 1834 2534 
L 2394 3319 
L 3066 3319 
L 1919 1756 
L 3153 0 
L 2463 0 
L 1781 1031 
L 1600 1309 
L 728 0 
L 47 0 
z
" transform="scale(0.015625)"/>
      </defs>
      <use xlink:href="#ArialMT-73"/>
      <use xlink:href="#ArialMT-65" x="50"/>
      <use xlink:href="#ArialMT-78" x="105.615234"/>
     </g>
    </g>
   </g>
   <g id="matplotlib.axis_2">
    <g id="ytick_1">
     <g id="line2d_1">
      <path d="M 56.581525 285.041198 
L 355.8105 285.041198 
" clip-path="url(#p7c4be525bd)" style="fill: none; stroke: #cccccc; stroke-width: 0.8; stroke-linecap: round"/>
     </g>
     <g id="text_4">
      <!-- 80 -->
      <g style="fill: #262626" transform="translate(38.45965 288.620105) scale(0.1 -0.1)">
       <defs>
        <path id="ArialMT-38" d="M 1131 2484 
Q 781 2613 612 2850 
Q 444 3088 444 3419 
Q 444 3919 803 4259 
Q 1163 4600 1759 4600 
Q 2359 4600 2725 4251 
Q 3091 3903 3091 3403 
Q 3091 3084 2923 2848 
Q 2756 2613 2416 2484 
Q 2838 2347 3058 2040 
Q 3278 1734 3278 1309 
Q 3278 722 2862 322 
Q 2447 -78 1769 -78 
Q 1091 -78 675 323 
Q 259 725 259 1325 
Q 259 1772 486 2073 
Q 713 2375 1131 2484 
z
M 1019 3438 
Q 1019 3113 1228 2906 
Q 1438 2700 1772 2700 
Q 2097 2700 2305 2904 
Q 2513 3109 2513 3406 
Q 2513 3716 2298 3927 
Q 2084 4138 1766 4138 
Q 1444 4138 1231 3931 
Q 1019 3725 1019 3438 
z
M 838 1322 
Q 838 1081 952 856 
Q 1066 631 1291 507 
Q 1516 384 1775 384 
Q 2178 384 2440 643 
Q 2703 903 2703 1303 
Q 2703 1709 2433 1975 
Q 2163 2241 1756 2241 
Q 1359 2241 1098 1978 
Q 838 1716 838 1322 
z
" transform="scale(0.015625)"/>
        <path id="ArialMT-30" d="M 266 2259 
Q 266 3072 433 3567 
Q 600 4063 929 4331 
Q 1259 4600 1759 4600 
Q 2128 4600 2406 4451 
Q 2684 4303 2865 4023 
Q 3047 3744 3150 3342 
Q 3253 2941 3253 2259 
Q 3253 1453 3087 958 
Q 2922 463 2592 192 
Q 2263 -78 1759 -78 
Q 1097 -78 719 397 
Q 266 969 266 2259 
z
M 844 2259 
Q 844 1131 1108 757 
Q 1372 384 1759 384 
Q 2147 384 2411 759 
Q 2675 1134 2675 2259 
Q 2675 3391 2411 3762 
Q 2147 4134 1753 4134 
Q 1366 4134 1134 3806 
Q 844 3388 844 2259 
z
" transform="scale(0.015625)"/>
       </defs>
       <use xlink:href="#ArialMT-38"/>
       <use xlink:href="#ArialMT-30" x="55.615234"/>
      </g>
     </g>
    </g>
    <g id="ytick_2">
     <g id="line2d_2">
      <path d="M 56.581525 245.075253 
L 355.8105 245.075253 
" clip-path="url(#p7c4be525bd)" style="fill: none; stroke: #cccccc; stroke-width: 0.8; stroke-linecap: round"/>
     </g>
     <g id="text_5">
      <!-- 100 -->
      <g style="fill: #262626" transform="translate(32.898713 248.65416) scale(0.1 -0.1)">
       <defs>
        <path id="ArialMT-31" d="M 2384 0 
L 1822 0 
L 1822 3584 
Q 1619 3391 1289 3197 
Q 959 3003 697 2906 
L 697 3450 
Q 1169 3672 1522 3987 
Q 1875 4303 2022 4600 
L 2384 4600 
L 2384 0 
z
" transform="scale(0.015625)"/>
       </defs>
       <use xlink:href="#ArialMT-31"/>
       <use xlink:href="#ArialMT-30" x="55.615234"/>
       <use xlink:href="#ArialMT-30" x="111.230469"/>
      </g>
     </g>
    </g>
    <g id="ytick_3">
     <g id="line2d_3">
      <path d="M 56.581525 205.109308 
L 355.8105 205.109308 
" clip-path="url(#p7c4be525bd)" style="fill: none; stroke: #cccccc; stroke-width: 0.8; stroke-linecap: round"/>
     </g>
     <g id="text_6">
      <!-- 120 -->
      <g style="fill: #262626" transform="translate(32.898713 208.688214) scale(0.1 -0.1)">
       <defs>
        <path id="ArialMT-32" d="M 3222 541 
L 3222 0 
L 194 0 
Q 188 203 259 391 
Q 375 700 629 1000 
Q 884 1300 1366 1694 
Q 2113 2306 2375 2664 
Q 2638 3022 2638 3341 
Q 2638 3675 2398 3904 
Q 2159 4134 1775 4134 
Q 1369 4134 1125 3890 
Q 881 3647 878 3216 
L 300 3275 
Q 359 3922 746 4261 
Q 1134 4600 1788 4600 
Q 2447 4600 2831 4234 
Q 3216 3869 3216 3328 
Q 3216 3053 3103 2787 
Q 2991 2522 2730 2228 
Q 2469 1934 1863 1422 
Q 1356 997 1212 845 
Q 1069 694 975 541 
L 3222 541 
z
" transform="scale(0.015625)"/>
       </defs>
       <use xlink:href="#ArialMT-31"/>
       <use xlink:href="#ArialMT-32" x="55.615234"/>
       <use xlink:href="#ArialMT-30" x="111.230469"/>
      </g>
     </g>
    </g>
    <g id="ytick_4">
     <g id="line2d_4">
      <path d="M 56.581525 165.143363 
L 355.8105 165.143363 
" clip-path="url(#p7c4be525bd)" style="fill: none; stroke: #cccccc; stroke-width: 0.8; stroke-linecap: round"/>
     </g>
     <g id="text_7">
      <!-- 140 -->
      <g style="fill: #262626" transform="translate(32.898713 168.722269) scale(0.1 -0.1)">
       <defs>
        <path id="ArialMT-34" d="M 2069 0 
L 2069 1097 
L 81 1097 
L 81 1613 
L 2172 4581 
L 2631 4581 
L 2631 1613 
L 3250 1613 
L 3250 1097 
L 2631 1097 
L 2631 0 
L 2069 0 
z
M 2069 1613 
L 2069 3678 
L 634 1613 
L 2069 1613 
z
" transform="scale(0.015625)"/>
       </defs>
       <use xlink:href="#ArialMT-31"/>
       <use xlink:href="#ArialMT-34" x="55.615234"/>
       <use xlink:href="#ArialMT-30" x="111.230469"/>
      </g>
     </g>
    </g>
    <g id="ytick_5">
     <g id="line2d_5">
      <path d="M 56.581525 125.177418 
L 355.8105 125.177418 
" clip-path="url(#p7c4be525bd)" style="fill: none; stroke: #cccccc; stroke-width: 0.8; stroke-linecap: round"/>
     </g>
     <g id="text_8">
      <!-- 160 -->
      <g style="fill: #262626" transform="translate(32.898713 128.756324) scale(0.1 -0.1)">
       <defs>
        <path id="ArialMT-36" d="M 3184 3459 
L 2625 3416 
Q 2550 3747 2413 3897 
Q 2184 4138 1850 4138 
Q 1581 4138 1378 3988 
Q 1113 3794 959 3422 
Q 806 3050 800 2363 
Q 1003 2672 1297 2822 
Q 1591 2972 1913 2972 
Q 2475 2972 2870 2558 
Q 3266 2144 3266 1488 
Q 3266 1056 3080 686 
Q 2894 316 2569 119 
Q 2244 -78 1831 -78 
Q 1128 -78 684 439 
Q 241 956 241 2144 
Q 241 3472 731 4075 
Q 1159 4600 1884 4600 
Q 2425 4600 2770 4297 
Q 3116 3994 3184 3459 
z
M 888 1484 
Q 888 1194 1011 928 
Q 1134 663 1356 523 
Q 1578 384 1822 384 
Q 2178 384 2434 671 
Q 2691 959 2691 1453 
Q 2691 1928 2437 2201 
Q 2184 2475 1800 2475 
Q 1419 2475 1153 2201 
Q 888 1928 888 1484 
z
" transform="scale(0.015625)"/>
       </defs>
       <use xlink:href="#ArialMT-31"/>
       <use xlink:href="#ArialMT-36" x="55.615234"/>
       <use xlink:href="#ArialMT-30" x="111.230469"/>
      </g>
     </g>
    </g>
    <g id="ytick_6">
     <g id="line2d_6">
      <path d="M 56.581525 85.211473 
L 355.8105 85.211473 
" clip-path="url(#p7c4be525bd)" style="fill: none; stroke: #cccccc; stroke-width: 0.8; stroke-linecap: round"/>
     </g>
     <g id="text_9">
      <!-- 180 -->
      <g style="fill: #262626" transform="translate(32.898713 88.790379) scale(0.1 -0.1)">
       <use xlink:href="#ArialMT-31"/>
       <use xlink:href="#ArialMT-38" x="55.615234"/>
       <use xlink:href="#ArialMT-30" x="111.230469"/>
      </g>
     </g>
    </g>
    <g id="ytick_7">
     <g id="line2d_7">
      <path d="M 56.581525 45.245528 
L 355.8105 45.245528 
" clip-path="url(#p7c4be525bd)" style="fill: none; stroke: #cccccc; stroke-width: 0.8; stroke-linecap: round"/>
     </g>
     <g id="text_10">
      <!-- 200 -->
      <g style="fill: #262626" transform="translate(32.898713 48.824434) scale(0.1 -0.1)">
       <use xlink:href="#ArialMT-32"/>
       <use xlink:href="#ArialMT-30" x="55.615234"/>
       <use xlink:href="#ArialMT-30" x="111.230469"/>
      </g>
     </g>
    </g>
    <g id="text_11">
     <!-- Heart rate (beats/min) -->
     <g style="fill: #262626" transform="translate(26.794025 213.044219) rotate(-90) scale(0.1 -0.1)">
      <defs>
       <path id="ArialMT-48" d="M 513 0 
L 513 4581 
L 1119 4581 
L 1119 2700 
L 3500 2700 
L 3500 4581 
L 4106 4581 
L 4106 0 
L 3500 0 
L 3500 2159 
L 1119 2159 
L 1119 0 
L 513 0 
z
" transform="scale(0.015625)"/>
       <path id="ArialMT-61" d="M 2588 409 
Q 2275 144 1986 34 
Q 1697 -75 1366 -75 
Q 819 -75 525 192 
Q 231 459 231 875 
Q 231 1119 342 1320 
Q 453 1522 633 1644 
Q 813 1766 1038 1828 
Q 1203 1872 1538 1913 
Q 2219 1994 2541 2106 
Q 2544 2222 2544 2253 
Q 2544 2597 2384 2738 
Q 2169 2928 1744 2928 
Q 1347 2928 1158 2789 
Q 969 2650 878 2297 
L 328 2372 
Q 403 2725 575 2942 
Q 747 3159 1072 3276 
Q 1397 3394 1825 3394 
Q 2250 3394 2515 3294 
Q 2781 3194 2906 3042 
Q 3031 2891 3081 2659 
Q 3109 2516 3109 2141 
L 3109 1391 
Q 3109 606 3145 398 
Q 3181 191 3288 0 
L 2700 0 
Q 2613 175 2588 409 
z
M 2541 1666 
Q 2234 1541 1622 1453 
Q 1275 1403 1131 1340 
Q 988 1278 909 1158 
Q 831 1038 831 891 
Q 831 666 1001 516 
Q 1172 366 1500 366 
Q 1825 366 2078 508 
Q 2331 650 2450 897 
Q 2541 1088 2541 1459 
L 2541 1666 
z
" transform="scale(0.015625)"/>
       <path id="ArialMT-72" d="M 416 0 
L 416 3319 
L 922 3319 
L 922 2816 
Q 1116 3169 1280 3281 
Q 1444 3394 1641 3394 
Q 1925 3394 2219 3213 
L 2025 2691 
Q 1819 2813 1613 2813 
Q 1428 2813 1281 2702 
Q 1134 2591 1072 2394 
Q 978 2094 978 1738 
L 978 0 
L 416 0 
z
" transform="scale(0.015625)"/>
       <path id="ArialMT-74" d="M 1650 503 
L 1731 6 
Q 1494 -44 1306 -44 
Q 1000 -44 831 53 
Q 663 150 594 308 
Q 525 466 525 972 
L 525 2881 
L 113 2881 
L 113 3319 
L 525 3319 
L 525 4141 
L 1084 4478 
L 1084 3319 
L 1650 3319 
L 1650 2881 
L 1084 2881 
L 1084 941 
Q 1084 700 1114 631 
Q 1144 563 1211 522 
Q 1278 481 1403 481 
Q 1497 481 1650 503 
z
" transform="scale(0.015625)"/>
       <path id="ArialMT-20" transform="scale(0.015625)"/>
       <path id="ArialMT-28" d="M 1497 -1347 
Q 1031 -759 709 28 
Q 388 816 388 1659 
Q 388 2403 628 3084 
Q 909 3875 1497 4659 
L 1900 4659 
Q 1522 4009 1400 3731 
Q 1209 3300 1100 2831 
Q 966 2247 966 1656 
Q 966 153 1900 -1347 
L 1497 -1347 
z
" transform="scale(0.015625)"/>
       <path id="ArialMT-62" d="M 941 0 
L 419 0 
L 419 4581 
L 981 4581 
L 981 2947 
Q 1338 3394 1891 3394 
Q 2197 3394 2470 3270 
Q 2744 3147 2920 2923 
Q 3097 2700 3197 2384 
Q 3297 2069 3297 1709 
Q 3297 856 2875 390 
Q 2453 -75 1863 -75 
Q 1275 -75 941 416 
L 941 0 
z
M 934 1684 
Q 934 1088 1097 822 
Q 1363 388 1816 388 
Q 2184 388 2453 708 
Q 2722 1028 2722 1663 
Q 2722 2313 2464 2622 
Q 2206 2931 1841 2931 
Q 1472 2931 1203 2611 
Q 934 2291 934 1684 
z
" transform="scale(0.015625)"/>
       <path id="ArialMT-2f" d="M 0 -78 
L 1328 4659 
L 1778 4659 
L 453 -78 
L 0 -78 
z
" transform="scale(0.015625)"/>
       <path id="ArialMT-69" d="M 425 3934 
L 425 4581 
L 988 4581 
L 988 3934 
L 425 3934 
z
M 425 0 
L 425 3319 
L 988 3319 
L 988 0 
L 425 0 
z
" transform="scale(0.015625)"/>
       <path id="ArialMT-6e" d="M 422 0 
L 422 3319 
L 928 3319 
L 928 2847 
Q 1294 3394 1984 3394 
Q 2284 3394 2536 3286 
Q 2788 3178 2913 3003 
Q 3038 2828 3088 2588 
Q 3119 2431 3119 2041 
L 3119 0 
L 2556 0 
L 2556 2019 
Q 2556 2363 2490 2533 
Q 2425 2703 2258 2804 
Q 2091 2906 1866 2906 
Q 1506 2906 1245 2678 
Q 984 2450 984 1813 
L 984 0 
L 422 0 
z
" transform="scale(0.015625)"/>
       <path id="ArialMT-29" d="M 791 -1347 
L 388 -1347 
Q 1322 153 1322 1656 
Q 1322 2244 1188 2822 
Q 1081 3291 891 3722 
Q 769 4003 388 4659 
L 791 4659 
Q 1378 3875 1659 3084 
Q 1900 2403 1900 1659 
Q 1900 816 1576 28 
Q 1253 -759 791 -1347 
z
" transform="scale(0.015625)"/>
      </defs>
      <use xlink:href="#ArialMT-48"/>
      <use xlink:href="#ArialMT-65" x="72.216797"/>
      <use xlink:href="#ArialMT-61" x="127.832031"/>
      <use xlink:href="#ArialMT-72" x="183.447266"/>
      <use xlink:href="#ArialMT-74" x="216.748047"/>
      <use xlink:href="#ArialMT-20" x="244.53125"/>
      <use xlink:href="#ArialMT-72" x="272.314453"/>
      <use xlink:href="#ArialMT-61" x="305.615234"/>
      <use xlink:href="#ArialMT-74" x="361.230469"/>
      <use xlink:href="#ArialMT-65" x="389.013672"/>
      <use xlink:href="#ArialMT-20" x="444.628906"/>
      <use xlink:href="#ArialMT-28" x="472.412109"/>
      <use xlink:href="#ArialMT-62" x="505.712891"/>
      <use xlink:href="#ArialMT-65" x="561.328125"/>
      <use xlink:href="#ArialMT-61" x="616.943359"/>
      <use xlink:href="#ArialMT-74" x="672.558594"/>
      <use xlink:href="#ArialMT-73" x="700.341797"/>
      <use xlink:href="#ArialMT-2f" x="750.341797"/>
      <use xlink:href="#ArialMT-6d" x="778.125"/>
      <use xlink:href="#ArialMT-69" x="861.425781"/>
      <use xlink:href="#ArialMT-6e" x="883.642578"/>
      <use xlink:href="#ArialMT-29" x="939.257812"/>
     </g>
    </g>
   </g>
   <g id="PolyCollection_1">
    <defs>
     <path id="m35d3febf13" d="M 101.856794 -67.37505 
L 101.074949 -67.37505 
L 100.990163 -69.756207 
L 100.892004 -72.137364 
L 100.779493 -74.518521 
L 100.651795 -76.899678 
L 100.508246 -79.280835 
L 100.348372 -81.661992 
L 100.171905 -84.043149 
L 99.978766 -86.424305 
L 99.769046 -88.805462 
L 99.54296 -91.186619 
L 99.300784 -93.567776 
L 99.042779 -95.948933 
L 98.769096 -98.33009 
L 98.479684 -100.711247 
L 98.174196 -103.092404 
L 97.851896 -105.473561 
L 97.511602 -107.854718 
L 97.151633 -110.235875 
L 96.76981 -112.617032 
L 96.363485 -114.998188 
L 95.929616 -117.379345 
L 95.464883 -119.760502 
L 94.965856 -122.141659 
L 94.429184 -124.522816 
L 93.851829 -126.903973 
L 93.23131 -129.28513 
L 92.565958 -131.666287 
L 91.855164 -134.047444 
L 91.099616 -136.428601 
L 90.301495 -138.809758 
L 89.464636 -141.190914 
L 88.594636 -143.572071 
L 87.698892 -145.953228 
L 86.786578 -148.334385 
L 85.868541 -150.715542 
L 84.957121 -153.096699 
L 84.065894 -155.477856 
L 83.209341 -157.859013 
L 82.402442 -160.24017 
L 81.660217 -162.621327 
L 80.997221 -165.002484 
L 80.427 -167.38364 
L 79.96155 -169.764797 
L 79.610782 -172.145954 
L 79.382033 -174.527111 
L 79.27964 -176.908268 
L 79.304612 -179.289425 
L 79.454412 -181.670582 
L 79.722889 -184.051739 
L 80.10035 -186.432896 
L 80.573802 -188.814053 
L 81.127343 -191.19521 
L 81.742705 -193.576366 
L 82.399927 -195.957523 
L 83.078121 -198.33868 
L 83.75631 -200.719837 
L 84.41429 -203.100994 
L 85.033466 -205.482151 
L 85.597638 -207.863308 
L 86.093679 -210.244465 
L 86.512075 -212.625622 
L 86.847301 -215.006779 
L 87.098007 -217.387936 
L 87.267011 -219.769092 
L 87.361095 -222.150249 
L 87.390614 -224.531406 
L 87.368948 -226.912563 
L 87.311813 -229.29372 
L 87.23648 -231.674877 
L 87.16094 -234.056034 
L 87.10305 -236.437191 
L 87.07972 -238.818348 
L 87.10616 -241.199505 
L 87.195243 -243.580662 
L 87.357003 -245.961819 
L 87.598281 -248.342975 
L 87.922552 -250.724132 
L 88.329905 -253.105289 
L 88.817196 -255.486446 
L 89.378337 -257.867603 
L 90.004712 -260.24876 
L 90.685673 -262.629917 
L 91.40911 -265.011074 
L 92.162034 -267.392231 
L 92.931159 -269.773388 
L 93.703445 -272.154545 
L 94.466585 -274.535701 
L 95.209404 -276.916858 
L 95.922173 -279.298015 
L 96.596819 -281.679172 
L 97.227043 -284.060329 
L 97.80834 -286.441486 
L 98.337938 -288.822643 
L 98.814677 -291.2038 
L 99.238826 -293.584957 
L 99.611871 -295.966114 
L 99.936285 -298.347271 
L 100.215287 -300.728427 
L 100.452617 -303.109584 
L 102.479126 -303.109584 
L 102.479126 -303.109584 
L 102.716456 -300.728427 
L 102.995458 -298.347271 
L 103.319871 -295.966114 
L 103.692917 -293.584957 
L 104.117065 -291.2038 
L 104.593804 -288.822643 
L 105.123403 -286.441486 
L 105.704699 -284.060329 
L 106.334923 -281.679172 
L 107.00957 -279.298015 
L 107.722339 -276.916858 
L 108.465158 -274.535701 
L 109.228297 -272.154545 
L 110.000584 -269.773388 
L 110.769709 -267.392231 
L 111.522633 -265.011074 
L 112.24607 -262.629917 
L 112.927031 -260.24876 
L 113.553405 -257.867603 
L 114.114547 -255.486446 
L 114.601838 -253.105289 
L 115.00919 -250.724132 
L 115.333461 -248.342975 
L 115.57474 -245.961819 
L 115.736499 -243.580662 
L 115.825582 -241.199505 
L 115.852022 -238.818348 
L 115.828692 -236.437191 
L 115.770803 -234.056034 
L 115.695263 -231.674877 
L 115.61993 -229.29372 
L 115.562794 -226.912563 
L 115.541128 -224.531406 
L 115.570648 -222.150249 
L 115.664731 -219.769092 
L 115.833736 -217.387936 
L 116.084442 -215.006779 
L 116.419668 -212.625622 
L 116.838064 -210.244465 
L 117.334105 -207.863308 
L 117.898277 -205.482151 
L 118.517453 -203.100994 
L 119.175432 -200.719837 
L 119.853622 -198.33868 
L 120.531816 -195.957523 
L 121.189037 -193.576366 
L 121.804399 -191.19521 
L 122.35794 -188.814053 
L 122.831392 -186.432896 
L 123.208854 -184.051739 
L 123.477331 -181.670582 
L 123.627131 -179.289425 
L 123.652102 -176.908268 
L 123.54971 -174.527111 
L 123.320961 -172.145954 
L 122.970193 -169.764797 
L 122.504742 -167.38364 
L 121.934521 -165.002484 
L 121.271525 -162.621327 
L 120.529301 -160.24017 
L 119.722402 -157.859013 
L 118.865848 -155.477856 
L 117.974622 -153.096699 
L 117.063202 -150.715542 
L 116.145164 -148.334385 
L 115.23285 -145.953228 
L 114.337107 -143.572071 
L 113.467106 -141.190914 
L 112.630248 -138.809758 
L 111.832126 -136.428601 
L 111.076578 -134.047444 
L 110.365785 -131.666287 
L 109.700432 -129.28513 
L 109.079914 -126.903973 
L 108.502559 -124.522816 
L 107.965887 -122.141659 
L 107.466859 -119.760502 
L 107.002127 -117.379345 
L 106.568257 -114.998188 
L 106.161932 -112.617032 
L 105.78011 -110.235875 
L 105.420141 -107.854718 
L 105.079846 -105.473561 
L 104.757547 -103.092404 
L 104.452058 -100.711247 
L 104.162647 -98.33009 
L 103.888964 -95.948933 
L 103.630958 -93.567776 
L 103.388783 -91.186619 
L 103.162697 -88.805462 
L 102.952977 -86.424305 
L 102.759838 -84.043149 
L 102.58337 -81.661992 
L 102.423497 -79.280835 
L 102.279947 -76.899678 
L 102.152249 -74.518521 
L 102.039739 -72.137364 
L 101.94158 -69.756207 
L 101.856794 -67.37505 
z
" style="stroke: #3f3f3f; stroke-width: 1.25"/>
    </defs>
    <g clip-path="url(#p7c4be525bd)">
     <use xlink:href="#m35d3febf13" x="0" y="360" style="fill: #3274a1; stroke: #3f3f3f; stroke-width: 1.25"/>
    </g>
   </g>
   <g id="PolyCollection_2">
    <defs>
     <path id="m6f47611105" d="M 161.814538 -55.925455 
L 160.808794 -55.925455 
L 160.68904 -58.407462 
L 160.5488 -60.88947 
L 160.386619 -63.371478 
L 160.201404 -65.853486 
L 159.992533 -68.335494 
L 159.759931 -70.817502 
L 159.50415 -73.29951 
L 159.226396 -75.781518 
L 158.928543 -78.263526 
L 158.613095 -80.745534 
L 158.28311 -83.227542 
L 157.942084 -85.70955 
L 157.593799 -88.191558 
L 157.242135 -90.673566 
L 156.890867 -93.155574 
L 156.543449 -95.637582 
L 156.202798 -98.11959 
L 155.871098 -100.601598 
L 155.549623 -103.083606 
L 155.238606 -105.565614 
L 154.937143 -108.047622 
L 154.64315 -110.52963 
L 154.353384 -113.011637 
L 154.063502 -115.493645 
L 153.768187 -117.975653 
L 153.461315 -120.457661 
L 153.136167 -122.939669 
L 152.785674 -125.421677 
L 152.402693 -127.903685 
L 151.980285 -130.385693 
L 151.51201 -132.867701 
L 150.992197 -135.349709 
L 150.416203 -137.831717 
L 149.780629 -140.313725 
L 149.083505 -142.795733 
L 148.324411 -145.277741 
L 147.504563 -147.759749 
L 146.626836 -150.241757 
L 145.695748 -152.723765 
L 144.717396 -155.205773 
L 143.699371 -157.687781 
L 142.650649 -160.169789 
L 141.581458 -162.651797 
L 140.50315 -165.133804 
L 139.428058 -167.615812 
L 138.369342 -170.09782 
L 137.340821 -172.579828 
L 136.35678 -175.061836 
L 135.43174 -177.543844 
L 134.580188 -180.025852 
L 133.816253 -182.50786 
L 133.153341 -184.989868 
L 132.60373 -187.471876 
L 132.178144 -189.953884 
L 131.885319 -192.435892 
L 131.731617 -194.9179 
L 131.72068 -197.399908 
L 131.853194 -199.881916 
L 132.126767 -202.363924 
L 132.535946 -204.845932 
L 133.072389 -207.32794 
L 133.725181 -209.809948 
L 134.481291 -212.291956 
L 135.326127 -214.773964 
L 136.244168 -217.255971 
L 137.219622 -219.737979 
L 138.237071 -222.219987 
L 139.282045 -224.701995 
L 140.341513 -227.184003 
L 141.404231 -229.666011 
L 142.460955 -232.148019 
L 143.504505 -234.630027 
L 144.529676 -237.112035 
L 145.533042 -239.594043 
L 146.51265 -242.076051 
L 147.467661 -244.558059 
L 148.397963 -247.040067 
L 149.30379 -249.522075 
L 150.185386 -252.004083 
L 151.04273 -254.486091 
L 151.87534 -256.968099 
L 152.682173 -259.450107 
L 153.461605 -261.932115 
L 154.211497 -264.414123 
L 154.929318 -266.896131 
L 155.612319 -269.378138 
L 156.257736 -271.860146 
L 156.862985 -274.342154 
L 157.425857 -276.824162 
L 157.944673 -279.30617 
L 158.418403 -281.788178 
L 158.846739 -284.270186 
L 159.230115 -286.752194 
L 159.569687 -289.234202 
L 159.867269 -291.71621 
L 160.125236 -294.198218 
L 160.346416 -296.680226 
L 160.533957 -299.162234 
L 160.6912 -301.644242 
L 161.932133 -301.644242 
L 161.932133 -301.644242 
L 162.089376 -299.162234 
L 162.276916 -296.680226 
L 162.498096 -294.198218 
L 162.756064 -291.71621 
L 163.053645 -289.234202 
L 163.393217 -286.752194 
L 163.776594 -284.270186 
L 164.20493 -281.788178 
L 164.67866 -279.30617 
L 165.197476 -276.824162 
L 165.760347 -274.342154 
L 166.365597 -271.860146 
L 167.011013 -269.378138 
L 167.694015 -266.896131 
L 168.411835 -264.414123 
L 169.161727 -261.932115 
L 169.94116 -259.450107 
L 170.747993 -256.968099 
L 171.580603 -254.486091 
L 172.437946 -252.004083 
L 173.319542 -249.522075 
L 174.22537 -247.040067 
L 175.155672 -244.558059 
L 176.110683 -242.076051 
L 177.090291 -239.594043 
L 178.093656 -237.112035 
L 179.118828 -234.630027 
L 180.162377 -232.148019 
L 181.219102 -229.666011 
L 182.28182 -227.184003 
L 183.341287 -224.701995 
L 184.386262 -222.219987 
L 185.40371 -219.737979 
L 186.379164 -217.255971 
L 187.297205 -214.773964 
L 188.142041 -212.291956 
L 188.898151 -209.809948 
L 189.550944 -207.32794 
L 190.087386 -204.845932 
L 190.496565 -202.363924 
L 190.770138 -199.881916 
L 190.902653 -197.399908 
L 190.891715 -194.9179 
L 190.738013 -192.435892 
L 190.445189 -189.953884 
L 190.019602 -187.471876 
L 189.469992 -184.989868 
L 188.80708 -182.50786 
L 188.043144 -180.025852 
L 187.191592 -177.543844 
L 186.266553 -175.061836 
L 185.282512 -172.579828 
L 184.253991 -170.09782 
L 183.195274 -167.615812 
L 182.120182 -165.133804 
L 181.041875 -162.651797 
L 179.972684 -160.169789 
L 178.923961 -157.687781 
L 177.905937 -155.205773 
L 176.927585 -152.723765 
L 175.996496 -150.241757 
L 175.11877 -147.759749 
L 174.298922 -145.277741 
L 173.539828 -142.795733 
L 172.842703 -140.313725 
L 172.207129 -137.831717 
L 171.631135 -135.349709 
L 171.111322 -132.867701 
L 170.643047 -130.385693 
L 170.22064 -127.903685 
L 169.837658 -125.421677 
L 169.487166 -122.939669 
L 169.162017 -120.457661 
L 168.855145 -117.975653 
L 168.55983 -115.493645 
L 168.269949 -113.011637 
L 167.980182 -110.52963 
L 167.68619 -108.047622 
L 167.384726 -105.565614 
L 167.073709 -103.083606 
L 166.752235 -100.601598 
L 166.420535 -98.11959 
L 166.079883 -95.637582 
L 165.732465 -93.155574 
L 165.381197 -90.673566 
L 165.029533 -88.191558 
L 164.681248 -85.70955 
L 164.340223 -83.227542 
L 164.010237 -80.745534 
L 163.694789 -78.263526 
L 163.396937 -75.781518 
L 163.119183 -73.29951 
L 162.863401 -70.817502 
L 162.6308 -68.335494 
L 162.421928 -65.853486 
L 162.236714 -63.371478 
L 162.074532 -60.88947 
L 161.934293 -58.407462 
L 161.814538 -55.925455 
z
" style="stroke: #3f3f3f; stroke-width: 1.25"/>
    </defs>
    <g clip-path="url(#p7c4be525bd)">
     <use xlink:href="#m6f47611105" x="0" y="360" style="fill: #e1812c; stroke: #3f3f3f; stroke-width: 1.25"/>
    </g>
   </g>
   <g id="PolyCollection_3">
    <defs>
     <path id="m773cdc5231" d="M 251.560074 -113.355294 
L 250.600644 -113.355294 
L 250.450468 -115.596499 
L 250.26368 -117.837703 
L 250.034666 -120.078908 
L 249.757875 -122.320113 
L 249.428093 -124.561317 
L 249.040746 -126.802522 
L 248.592223 -129.043726 
L 248.080184 -131.284931 
L 247.503843 -133.526135 
L 246.864175 -135.76734 
L 246.164031 -138.008544 
L 245.408133 -140.249749 
L 244.602932 -142.490954 
L 243.756322 -144.732158 
L 242.877216 -146.973363 
L 241.975014 -149.214567 
L 241.058988 -151.455772 
L 240.137643 -153.696976 
L 239.218113 -155.938181 
L 238.305643 -158.179385 
L 237.40323 -160.42059 
L 236.511459 -162.661795 
L 235.628577 -164.902999 
L 234.750804 -167.144204 
L 233.87289 -169.385408 
L 232.988853 -171.626613 
L 232.092876 -173.867817 
L 231.180258 -176.109022 
L 230.248356 -178.350226 
L 229.297423 -180.591431 
L 228.331269 -182.832636 
L 227.357675 -185.07384 
L 226.38852 -187.315045 
L 225.439591 -189.556249 
L 224.530088 -191.797454 
L 223.681854 -194.038658 
L 222.91837 -196.279863 
L 222.263589 -198.521068 
L 221.740683 -200.762272 
L 221.370791 -203.003477 
L 221.171829 -205.244681 
L 221.157461 -207.485886 
L 221.336271 -209.72709 
L 221.711185 -211.968295 
L 222.279193 -214.209499 
L 223.031355 -216.450704 
L 223.953121 -218.691909 
L 225.024923 -220.933113 
L 226.223018 -223.174318 
L 227.520537 -225.415522 
L 228.888676 -227.656727 
L 230.297965 -229.897931 
L 231.719546 -232.139136 
L 233.126375 -234.38034 
L 234.494289 -236.621545 
L 235.802866 -238.86275 
L 237.036024 -241.103954 
L 238.182341 -243.345159 
L 239.235071 -245.586363 
L 240.191876 -247.827568 
L 241.054302 -250.068772 
L 241.827064 -252.309977 
L 242.517195 -254.551181 
L 243.13315 -256.792386 
L 243.683939 -259.033591 
L 244.178355 -261.274795 
L 244.624367 -263.516 
L 245.028715 -265.757204 
L 245.39671 -267.998409 
L 245.732261 -270.239613 
L 246.03807 -272.480818 
L 246.315966 -274.722022 
L 246.567318 -276.963227 
L 246.793456 -279.204432 
L 246.996044 -281.445636 
L 247.177358 -283.686841 
L 247.340425 -285.928045 
L 247.489019 -288.16925 
L 247.627517 -290.410454 
L 247.760631 -292.651659 
L 247.893063 -294.892863 
L 248.029138 -297.134068 
L 248.172443 -299.375273 
L 248.325538 -301.616477 
L 248.489766 -303.857682 
L 248.665172 -306.098886 
L 248.850562 -308.340091 
L 249.043654 -310.581295 
L 249.241332 -312.8225 
L 249.43995 -315.063704 
L 249.635658 -317.304909 
L 249.824713 -319.546114 
L 250.003749 -321.787318 
L 250.169984 -324.028523 
L 250.321348 -326.269727 
L 250.456545 -328.510932 
L 250.575029 -330.752136 
L 250.676945 -332.993341 
L 250.763007 -335.234545 
L 251.39771 -335.234545 
L 251.39771 -335.234545 
L 251.483773 -332.993341 
L 251.585688 -330.752136 
L 251.704173 -328.510932 
L 251.839369 -326.269727 
L 251.990734 -324.028523 
L 252.156968 -321.787318 
L 252.336004 -319.546114 
L 252.525059 -317.304909 
L 252.720767 -315.063704 
L 252.919385 -312.8225 
L 253.117063 -310.581295 
L 253.310155 -308.340091 
L 253.495545 -306.098886 
L 253.670952 -303.857682 
L 253.835179 -301.616477 
L 253.988275 -299.375273 
L 254.131579 -297.134068 
L 254.267654 -294.892863 
L 254.400087 -292.651659 
L 254.5332 -290.410454 
L 254.671698 -288.16925 
L 254.820293 -285.928045 
L 254.98336 -283.686841 
L 255.164673 -281.445636 
L 255.367262 -279.204432 
L 255.5934 -276.963227 
L 255.844752 -274.722022 
L 256.122648 -272.480818 
L 256.428456 -270.239613 
L 256.764007 -267.998409 
L 257.132003 -265.757204 
L 257.53635 -263.516 
L 257.982363 -261.274795 
L 258.476779 -259.033591 
L 259.027568 -256.792386 
L 259.643523 -254.551181 
L 260.333653 -252.309977 
L 261.106415 -250.068772 
L 261.968841 -247.827568 
L 262.925646 -245.586363 
L 263.978377 -243.345159 
L 265.124694 -241.103954 
L 266.357852 -238.86275 
L 267.666428 -236.621545 
L 269.034343 -234.38034 
L 270.441172 -232.139136 
L 271.862752 -229.897931 
L 273.272041 -227.656727 
L 274.64018 -225.415522 
L 275.937699 -223.174318 
L 277.135794 -220.933113 
L 278.207596 -218.691909 
L 279.129362 -216.450704 
L 279.881525 -214.209499 
L 280.449532 -211.968295 
L 280.824447 -209.72709 
L 281.003256 -207.485886 
L 280.988889 -205.244681 
L 280.789927 -203.003477 
L 280.420034 -200.762272 
L 279.897129 -198.521068 
L 279.242348 -196.279863 
L 278.478864 -194.038658 
L 277.63063 -191.797454 
L 276.721127 -189.556249 
L 275.772197 -187.315045 
L 274.803042 -185.07384 
L 273.829449 -182.832636 
L 272.863295 -180.591431 
L 271.912361 -178.350226 
L 270.980459 -176.109022 
L 270.067841 -173.867817 
L 269.171864 -171.626613 
L 268.287828 -169.385408 
L 267.409913 -167.144204 
L 266.532141 -164.902999 
L 265.649258 -162.661795 
L 264.757488 -160.42059 
L 263.855075 -158.179385 
L 262.942605 -155.938181 
L 262.023074 -153.696976 
L 261.10173 -151.455772 
L 260.185703 -149.214567 
L 259.283501 -146.973363 
L 258.404396 -144.732158 
L 257.557786 -142.490954 
L 256.752585 -140.249749 
L 255.996687 -138.008544 
L 255.296542 -135.76734 
L 254.656875 -133.526135 
L 254.080534 -131.284931 
L 253.568495 -129.043726 
L 253.119971 -126.802522 
L 252.732624 -124.561317 
L 252.402842 -122.320113 
L 252.126052 -120.078908 
L 251.897038 -117.837703 
L 251.71025 -115.596499 
L 251.560074 -113.355294 
z
" style="stroke: #3f3f3f; stroke-width: 1.25"/>
    </defs>
    <g clip-path="url(#p7c4be525bd)">
     <use xlink:href="#m773cdc5231" x="0" y="360" style="fill: #3274a1; stroke: #3f3f3f; stroke-width: 1.25"/>
    </g>
   </g>
   <g id="PolyCollection_4">
    <defs>
     <path id="m4f9826d2c6" d="M 311.61125 -77.718647 
L 310.241057 -77.718647 
L 310.062338 -79.729301 
L 309.849057 -81.739955 
L 309.597749 -83.750608 
L 309.305325 -85.761262 
L 308.96922 -87.771916 
L 308.587524 -89.782569 
L 308.159074 -91.793223 
L 307.683504 -93.803877 
L 307.16124 -95.814531 
L 306.593431 -97.825184 
L 305.981839 -99.835838 
L 305.328677 -101.846492 
L 304.636425 -103.857145 
L 303.907647 -105.867799 
L 303.144834 -107.878453 
L 302.350293 -109.889107 
L 301.52612 -111.89976 
L 300.674246 -113.910414 
L 299.796582 -115.921068 
L 298.895236 -117.931721 
L 297.972787 -119.942375 
L 297.032577 -121.953029 
L 296.078977 -123.963683 
L 295.117587 -125.974336 
L 294.15532 -127.98499 
L 293.200342 -129.995644 
L 292.261845 -132.006297 
L 291.349665 -134.016951 
L 290.473747 -136.027605 
L 289.643522 -138.038259 
L 288.867229 -140.048912 
L 288.151275 -142.059566 
L 287.49968 -144.07022 
L 286.913694 -146.080873 
L 286.391619 -148.091527 
L 285.928886 -150.102181 
L 285.51838 -152.112835 
L 285.151005 -154.123488 
L 284.816429 -156.134142 
L 284.503965 -158.144796 
L 284.203492 -160.155449 
L 283.906337 -162.166103 
L 283.606036 -164.176757 
L 283.298912 -166.187411 
L 282.984409 -168.198064 
L 282.665176 -170.208718 
L 282.346882 -172.219372 
L 282.037808 -174.230025 
L 281.748252 -176.240679 
L 281.489819 -178.251333 
L 281.274653 -180.261987 
L 281.114696 -182.27264 
L 281.021016 -184.283294 
L 281.003256 -186.293948 
L 281.069244 -188.304601 
L 281.224742 -190.315255 
L 281.473358 -192.325909 
L 281.816571 -194.336562 
L 282.253865 -196.347216 
L 282.782911 -198.35787 
L 283.399784 -200.368524 
L 284.099193 -202.379177 
L 284.874688 -204.389831 
L 285.71886 -206.400485 
L 286.623527 -208.411138 
L 287.579903 -210.421792 
L 288.578781 -212.432446 
L 289.610719 -214.4431 
L 290.666241 -216.453753 
L 291.736051 -218.464407 
L 292.81125 -220.475061 
L 293.883547 -222.485714 
L 294.945438 -224.496368 
L 295.990349 -226.507022 
L 297.012724 -228.517676 
L 298.00804 -230.528329 
L 298.972769 -232.538983 
L 299.904277 -234.549637 
L 300.800672 -236.56029 
L 301.660633 -238.570944 
L 302.483224 -240.581598 
L 303.267729 -242.592252 
L 304.013514 -244.602905 
L 304.71993 -246.613559 
L 305.386273 -248.624213 
L 306.011786 -250.634866 
L 306.595715 -252.64552 
L 307.137384 -254.656174 
L 307.636297 -256.666828 
L 308.09224 -258.677481 
L 308.505376 -260.688135 
L 308.876308 -262.698789 
L 309.206123 -264.709442 
L 309.496395 -266.720096 
L 309.749156 -268.73075 
L 309.966838 -270.741404 
L 310.152196 -272.752057 
L 310.308208 -274.762711 
L 310.437976 -276.773365 
L 311.414331 -276.773365 
L 311.414331 -276.773365 
L 311.544099 -274.762711 
L 311.700111 -272.752057 
L 311.885469 -270.741404 
L 312.103152 -268.73075 
L 312.355912 -266.720096 
L 312.646184 -264.709442 
L 312.976 -262.698789 
L 313.346932 -260.688135 
L 313.760067 -258.677481 
L 314.216011 -256.666828 
L 314.714923 -254.656174 
L 315.256592 -252.64552 
L 315.840521 -250.634866 
L 316.466035 -248.624213 
L 317.132377 -246.613559 
L 317.838793 -244.602905 
L 318.584578 -242.592252 
L 319.369084 -240.581598 
L 320.191675 -238.570944 
L 321.051635 -236.56029 
L 321.948031 -234.549637 
L 322.879538 -232.538983 
L 323.844268 -230.528329 
L 324.839584 -228.517676 
L 325.861958 -226.507022 
L 326.90687 -224.496368 
L 327.968761 -222.485714 
L 329.041058 -220.475061 
L 330.116257 -218.464407 
L 331.186066 -216.453753 
L 332.241588 -214.4431 
L 333.273526 -212.432446 
L 334.272404 -210.421792 
L 335.228781 -208.411138 
L 336.133447 -206.400485 
L 336.97762 -204.389831 
L 337.753115 -202.379177 
L 338.452523 -200.368524 
L 339.069397 -198.35787 
L 339.598442 -196.347216 
L 340.035736 -194.336562 
L 340.37895 -192.325909 
L 340.627565 -190.315255 
L 340.783063 -188.304601 
L 340.849051 -186.293948 
L 340.831292 -184.283294 
L 340.737611 -182.27264 
L 340.577654 -180.261987 
L 340.362489 -178.251333 
L 340.104055 -176.240679 
L 339.8145 -174.230025 
L 339.505425 -172.219372 
L 339.187131 -170.208718 
L 338.867898 -168.198064 
L 338.553396 -166.187411 
L 338.246271 -164.176757 
L 337.94597 -162.166103 
L 337.648815 -160.155449 
L 337.348343 -158.144796 
L 337.035879 -156.134142 
L 336.701303 -154.123488 
L 336.333927 -152.112835 
L 335.923422 -150.102181 
L 335.460689 -148.091527 
L 334.938614 -146.080873 
L 334.352627 -144.07022 
L 333.701033 -142.059566 
L 332.985079 -140.048912 
L 332.208786 -138.038259 
L 331.37856 -136.027605 
L 330.502642 -134.016951 
L 329.590462 -132.006297 
L 328.651965 -129.995644 
L 327.696987 -127.98499 
L 326.73472 -125.974336 
L 325.773331 -123.963683 
L 324.819731 -121.953029 
L 323.87952 -119.942375 
L 322.957071 -117.931721 
L 322.055725 -115.921068 
L 321.178061 -113.910414 
L 320.326187 -111.89976 
L 319.502014 -109.889107 
L 318.707474 -107.878453 
L 317.94466 -105.867799 
L 317.215883 -103.857145 
L 316.523631 -101.846492 
L 315.870469 -99.835838 
L 315.258877 -97.825184 
L 314.691068 -95.814531 
L 314.168803 -93.803877 
L 313.693234 -91.793223 
L 313.264784 -89.782569 
L 312.883088 -87.771916 
L 312.546983 -85.761262 
L 312.254559 -83.750608 
L 312.00325 -81.739955 
L 311.789969 -79.729301 
L 311.61125 -77.718647 
z
" style="stroke: #3f3f3f; stroke-width: 1.25"/>
    </defs>
    <g clip-path="url(#p7c4be525bd)">
     <use xlink:href="#m4f9826d2c6" x="0" y="360" style="fill: #e1812c; stroke: #3f3f3f; stroke-width: 1.25"/>
    </g>
   </g>
   <g id="patch_3">
    <path d="M 131.388769 444.904979 
L 131.388769 444.904979 
L 131.388769 444.904979 
L 131.388769 444.904979 
z
" clip-path="url(#p7c4be525bd)" style="fill: #3274a1; stroke: #3f3f3f; stroke-width: 1.25; stroke-linejoin: miter"/>
   </g>
   <g id="patch_4">
    <path d="M 131.388769 444.904979 
L 131.388769 444.904979 
L 131.388769 444.904979 
L 131.388769 444.904979 
z
" clip-path="url(#p7c4be525bd)" style="fill: #e1812c; stroke: #3f3f3f; stroke-width: 1.25; stroke-linejoin: miter"/>
   </g>
   <g id="line2d_8">
    <path d="M 101.465871 243.94483 
L 101.465871 105.570536 
" clip-path="url(#p7c4be525bd)" style="fill: none; stroke: #3f3f3f; stroke-width: 1.875; stroke-linecap: round"/>
   </g>
   <g id="line2d_9">
    <path d="M 101.465871 189.07563 
L 101.465871 123.009626 
" clip-path="url(#p7c4be525bd)" style="fill: none; stroke: #3f3f3f; stroke-width: 5.625; stroke-linecap: round"/>
   </g>
   <g id="line2d_10">
    <path d="M 101.465871 173.451128 
" clip-path="url(#p7c4be525bd)" style="fill: none; stroke: #3f3f3f; stroke-width: 1.5; stroke-linecap: round"/>
    <defs>
     <path id="m9c9406b75c" d="M 2.34375 0 
L -2.34375 -0 
" style="stroke: #ffffff; stroke-width: 1.125"/>
    </defs>
    <g clip-path="url(#p7c4be525bd)">
     <use xlink:href="#m9c9406b75c" x="101.465871" y="173.451128" style="fill: #ffffff; stroke: #ffffff; stroke-width: 1.125"/>
    </g>
   </g>
   <g id="line2d_11">
    <path d="M 161.311666 230.601018 
L 161.311666 105.03429 
" clip-path="url(#p7c4be525bd)" style="fill: none; stroke: #3f3f3f; stroke-width: 1.875; stroke-linecap: round"/>
   </g>
   <g id="line2d_12">
    <path d="M 161.311666 190.002057 
L 161.311666 149.690082 
" clip-path="url(#p7c4be525bd)" style="fill: none; stroke: #3f3f3f; stroke-width: 5.625; stroke-linecap: round"/>
   </g>
   <g id="line2d_13">
    <path d="M 161.311666 165.675306 
" clip-path="url(#p7c4be525bd)" style="fill: none; stroke: #3f3f3f; stroke-width: 1.5; stroke-linecap: round"/>
    <g clip-path="url(#p7c4be525bd)">
     <use xlink:href="#m9c9406b75c" x="161.311666" y="165.675306" style="fill: #ffffff; stroke: #ffffff; stroke-width: 1.125"/>
    </g>
   </g>
   <g id="line2d_14">
    <path d="M 251.080359 210.183011 
L 251.080359 93.289821 
" clip-path="url(#p7c4be525bd)" style="fill: none; stroke: #3f3f3f; stroke-width: 1.875; stroke-linecap: round"/>
   </g>
   <g id="line2d_15">
    <path d="M 251.080359 173.926284 
L 251.080359 138.534818 
" clip-path="url(#p7c4be525bd)" style="fill: none; stroke: #3f3f3f; stroke-width: 5.625; stroke-linecap: round"/>
   </g>
   <g id="line2d_16">
    <path d="M 251.080359 154.716621 
" clip-path="url(#p7c4be525bd)" style="fill: none; stroke: #3f3f3f; stroke-width: 1.5; stroke-linecap: round"/>
    <g clip-path="url(#p7c4be525bd)">
     <use xlink:href="#m9c9406b75c" x="251.080359" y="154.716621" style="fill: #ffffff; stroke: #ffffff; stroke-width: 1.125"/>
    </g>
   </g>
   <g id="line2d_17">
    <path d="M 310.926154 246.152971 
L 310.926154 119.355017 
" clip-path="url(#p7c4be525bd)" style="fill: none; stroke: #3f3f3f; stroke-width: 1.875; stroke-linecap: round"/>
   </g>
   <g id="line2d_18">
    <path d="M 310.926154 211.036392 
L 310.926154 158.023727 
" clip-path="url(#p7c4be525bd)" style="fill: none; stroke: #3f3f3f; stroke-width: 5.625; stroke-linecap: round"/>
   </g>
   <g id="line2d_19">
    <path d="M 310.926154 179.723725 
" clip-path="url(#p7c4be525bd)" style="fill: none; stroke: #3f3f3f; stroke-width: 1.5; stroke-linecap: round"/>
    <g clip-path="url(#p7c4be525bd)">
     <use xlink:href="#m9c9406b75c" x="310.926154" y="179.723725" style="fill: #ffffff; stroke: #ffffff; stroke-width: 1.125"/>
    </g>
   </g>
   <g id="patch_5">
    <path d="M 56.581525 318.04 
L 56.581525 10.8 
" style="fill: none; stroke: #cccccc; stroke-width: 0.8; stroke-linejoin: miter; stroke-linecap: square"/>
   </g>
   <g id="patch_6">
    <path d="M 56.581525 318.04 
L 355.8105 318.04 
" style="fill: none; stroke: #cccccc; stroke-width: 0.8; stroke-linejoin: miter; stroke-linecap: square"/>
   </g>
  </g>
  <g id="legend_1">
   <g id="text_12">
    <!-- Time -->
    <g style="fill: #262626" transform="translate(373.633594 168.439844) scale(0.1 -0.1)">
     <defs>
      <path id="ArialMT-54" d="M 1659 0 
L 1659 4041 
L 150 4041 
L 150 4581 
L 3781 4581 
L 3781 4041 
L 2266 4041 
L 2266 0 
L 1659 0 
z
" transform="scale(0.015625)"/>
     </defs>
     <use xlink:href="#ArialMT-54"/>
     <use xlink:href="#ArialMT-69" x="57.333984"/>
     <use xlink:href="#ArialMT-6d" x="79.550781"/>
     <use xlink:href="#ArialMT-65" x="162.851562"/>
    </g>
   </g>
   <g id="patch_7">
    <path d="M 359.1625 182.585156 
L 379.1625 182.585156 
L 379.1625 175.585156 
L 359.1625 175.585156 
z
" style="fill: #3274a1; stroke: #3f3f3f; stroke-width: 1.25; stroke-linejoin: miter"/>
   </g>
   <g id="text_13">
    <!-- initial -->
    <g style="fill: #262626" transform="translate(387.1625 182.585156) scale(0.1 -0.1)">
     <defs>
      <path id="ArialMT-6c" d="M 409 0 
L 409 4581 
L 972 4581 
L 972 0 
L 409 0 
z
" transform="scale(0.015625)"/>
     </defs>
     <use xlink:href="#ArialMT-69"/>
     <use xlink:href="#ArialMT-6e" x="22.216797"/>
     <use xlink:href="#ArialMT-69" x="77.832031"/>
     <use xlink:href="#ArialMT-74" x="100.048828"/>
     <use xlink:href="#ArialMT-69" x="127.832031"/>
     <use xlink:href="#ArialMT-61" x="150.048828"/>
     <use xlink:href="#ArialMT-6c" x="205.664062"/>
    </g>
   </g>
   <g id="patch_8">
    <path d="M 359.1625 196.730469 
L 379.1625 196.730469 
L 379.1625 189.730469 
L 359.1625 189.730469 
z
" style="fill: #e1812c; stroke: #3f3f3f; stroke-width: 1.25; stroke-linejoin: miter"/>
   </g>
   <g id="text_14">
    <!-- final -->
    <g style="fill: #262626" transform="translate(387.1625 196.730469) scale(0.1 -0.1)">
     <use xlink:href="#ArialMT-66"/>
     <use xlink:href="#ArialMT-69" x="27.783203"/>
     <use xlink:href="#ArialMT-6e" x="50"/>
     <use xlink:href="#ArialMT-61" x="105.615234"/>
     <use xlink:href="#ArialMT-6c" x="161.230469"/>
    </g>
   </g>
  </g>
 </g>
 <defs>
  <clipPath id="p7c4be525bd">
   <rect x="56.581525" y="10.8" width="299.228975" height="307.24"/>
  </clipPath>
 </defs>
</svg>
