<?xml version="1.0" encoding="utf-8" standalone="no"?>
<!DOCTYPE svg PUBLIC "-//W3C//DTD SVG 1.1//EN"
  "http://www.w3.org/Graphics/SVG/1.1/DTD/svg11.dtd">
<svg xmlns:xlink="http://www.w3.org/1999/xlink" width="418.95pt" height="360pt" viewBox="0 0 418.95 360" xmlns="http://www.w3.org/2000/svg" version="1.1">
 <metadata>
  <rdf:RDF xmlns:dc="http://purl.org/dc/elements/1.1/" xmlns:cc="http://creativecommons.org/ns#" xmlns:rdf="http://www.w3.org/1999/02/22-rdf-syntax-ns#">
   <cc:Work>
    <dc:type rdf:resource="http://purl.org/dc/dcmitype/StillImage"/>
    <dc:date>2024-09-10T22:07:24.274897</dc:date>
    <dc:format>image/svg+xml</dc:format>
    <dc:creator>
     <cc:Agent>
      <dc:title>Matplotlib v3.8.3, https://matplotlib.org/</dc:title>
     </cc:Agent>
    </dc:creator>
   </cc:Work>
  </rdf:RDF>
 </metadata>
 <defs>
  <style type="text/css">*{stroke-linejoin: round; stroke-linecap: butt}</style>
 </defs>
 <g id="figure_1">
  <g id="patch_1">
   <path d="M 0 360 
L 418.95 360 
L 418.95 0 
L 0 0 
z
" style="fill: #ffffff"/>
  </g>
  <g id="axes_1">
   <g id="patch_2">
    <path d="M 43.594075 318.04 
L 355.8105 318.04 
L 355.8105 10.8 
L 43.594075 10.8 
z
" style="fill: #ffffff"/>
   </g>
   <g id="matplotlib.axis_1">
    <g id="xtick_1">
     <g id="text_1">
      <!-- f -->
      <g style="fill: #262626" transform="translate(120.259119 332.197812) scale(0.1 -0.1)">
       <defs>
        <path id="ArialMT-66" d="M 556 0 
L 556 2881 
L 59 2881 
L 59 3319 
L 556 3319 
L 556 3672 
Q 556 4006 616 4169 
Q 697 4388 901 4523 
Q 1106 4659 1475 4659 
Q 1713 4659 2000 4603 
L 1916 4113 
Q 1741 4144 1584 4144 
Q 1328 4144 1222 4034 
Q 1116 3925 1116 3625 
L 1116 3319 
L 1763 3319 
L 1763 2881 
L 1116 2881 
L 1116 0 
L 556 0 
z
" transform="scale(0.015625)"/>
       </defs>
       <use xlink:href="#ArialMT-66"/>
      </g>
     </g>
    </g>
    <g id="xtick_2">
     <g id="text_2">
      <!-- m -->
      <g style="fill: #262626" transform="translate(273.59155 332.197812) scale(0.1 -0.1)">
       <defs>
        <path id="ArialMT-6d" d="M 422 0 
L 422 3319 
L 925 3319 
L 925 2853 
Q 1081 3097 1340 3245 
Q 1600 3394 1931 3394 
Q 2300 3394 2536 3241 
Q 2772 3088 2869 2813 
Q 3263 3394 3894 3394 
Q 4388 3394 4653 3120 
Q 4919 2847 4919 2278 
L 4919 0 
L 4359 0 
L 4359 2091 
Q 4359 2428 4304 2576 
Q 4250 2725 4106 2815 
Q 3963 2906 3769 2906 
Q 3419 2906 3187 2673 
Q 2956 2441 2956 1928 
L 2956 0 
L 2394 0 
L 2394 2156 
Q 2394 2531 2256 2718 
Q 2119 2906 1806 2906 
Q 1569 2906 1367 2781 
Q 1166 2656 1075 2415 
Q 984 2175 984 1722 
L 984 0 
L 422 0 
z
" transform="scale(0.015625)"/>
       </defs>
       <use xlink:href="#ArialMT-6d"/>
      </g>
     </g>
    </g>
    <g id="text_3">
     <!-- sex -->
     <g style="fill: #262626" transform="translate(191.921819 345.343125) scale(0.1 -0.1)">
      <defs>
       <path id="ArialMT-73" d="M 197 991 
L 753 1078 
Q 800 744 1014 566 
Q 1228 388 1613 388 
Q 2000 388 2187 545 
Q 2375 703 2375 916 
Q 2375 1106 2209 1216 
Q 2094 1291 1634 1406 
Q 1016 1563 777 1677 
Q 538 1791 414 1992 
Q 291 2194 291 2438 
Q 291 2659 392 2848 
Q 494 3038 669 3163 
Q 800 3259 1026 3326 
Q 1253 3394 1513 3394 
Q 1903 3394 2198 3281 
Q 2494 3169 2634 2976 
Q 2775 2784 2828 2463 
L 2278 2388 
Q 2241 2644 2061 2787 
Q 1881 2931 1553 2931 
Q 1166 2931 1000 2803 
Q 834 2675 834 2503 
Q 834 2394 903 2306 
Q 972 2216 1119 2156 
Q 1203 2125 1616 2013 
Q 2213 1853 2448 1751 
Q 2684 1650 2818 1456 
Q 2953 1263 2953 975 
Q 2953 694 2789 445 
Q 2625 197 2315 61 
Q 2006 -75 1616 -75 
Q 969 -75 630 194 
Q 291 463 197 991 
z
" transform="scale(0.015625)"/>
       <path id="ArialMT-65" d="M 2694 1069 
L 3275 997 
Q 3138 488 2766 206 
Q 2394 -75 1816 -75 
Q 1088 -75 661 373 
Q 234 822 234 1631 
Q 234 2469 665 2931 
Q 1097 3394 1784 3394 
Q 2450 3394 2872 2941 
Q 3294 2488 3294 1666 
Q 3294 1616 3291 1516 
L 816 1516 
Q 847 969 1125 678 
Q 1403 388 1819 388 
Q 2128 388 2347 550 
Q 2566 713 2694 1069 
z
M 847 1978 
L 2700 1978 
Q 2663 2397 2488 2606 
Q 2219 2931 1791 2931 
Q 1403 2931 1139 2672 
Q 875 2413 847 1978 
z
" transform="scale(0.015625)"/>
       <path id="ArialMT-78" d="M 47 0 
L 1259 1725 
L 138 3319 
L 841 3319 
L 1350 2541 
Q 1494 2319 1581 2169 
Q 1719 2375 1834 2534 
L 2394 3319 
L 3066 3319 
L 1919 1756 
L 3153 0 
L 2463 0 
L 1781 1031 
L 1600 1309 
L 728 0 
L 47 0 
z
" transform="scale(0.015625)"/>
      </defs>
      <use xlink:href="#ArialMT-73"/>
      <use xlink:href="#ArialMT-65" x="50"/>
      <use xlink:href="#ArialMT-78" x="105.615234"/>
     </g>
    </g>
   </g>
   <g id="matplotlib.axis_2">
    <g id="ytick_1">
     <g id="line2d_1">
      <path d="M 43.594075 312.820165 
L 355.8105 312.820165 
" clip-path="url(#pdb5f9f90e9)" style="fill: none; stroke: #cccccc; stroke-width: 0.8; stroke-linecap: round"/>
     </g>
     <g id="text_4">
      <!-- 1 -->
      <g style="fill: #262626" transform="translate(31.033138 316.399071) scale(0.1 -0.1)">
       <defs>
        <path id="ArialMT-31" d="M 2384 0 
L 1822 0 
L 1822 3584 
Q 1619 3391 1289 3197 
Q 959 3003 697 2906 
L 697 3450 
Q 1169 3672 1522 3987 
Q 1875 4303 2022 4600 
L 2384 4600 
L 2384 0 
z
" transform="scale(0.015625)"/>
       </defs>
       <use xlink:href="#ArialMT-31"/>
      </g>
     </g>
    </g>
    <g id="ytick_2">
     <g id="line2d_2">
      <path d="M 43.594075 273.589417 
L 355.8105 273.589417 
" clip-path="url(#pdb5f9f90e9)" style="fill: none; stroke: #cccccc; stroke-width: 0.8; stroke-linecap: round"/>
     </g>
     <g id="text_5">
      <!-- 2 -->
      <g style="fill: #262626" transform="translate(31.033138 277.168323) scale(0.1 -0.1)">
       <defs>
        <path id="ArialMT-32" d="M 3222 541 
L 3222 0 
L 194 0 
Q 188 203 259 391 
Q 375 700 629 1000 
Q 884 1300 1366 1694 
Q 2113 2306 2375 2664 
Q 2638 3022 2638 3341 
Q 2638 3675 2398 3904 
Q 2159 4134 1775 4134 
Q 1369 4134 1125 3890 
Q 881 3647 878 3216 
L 300 3275 
Q 359 3922 746 4261 
Q 1134 4600 1788 4600 
Q 2447 4600 2831 4234 
Q 3216 3869 3216 3328 
Q 3216 3053 3103 2787 
Q 2991 2522 2730 2228 
Q 2469 1934 1863 1422 
Q 1356 997 1212 845 
Q 1069 694 975 541 
L 3222 541 
z
" transform="scale(0.015625)"/>
       </defs>
       <use xlink:href="#ArialMT-32"/>
      </g>
     </g>
    </g>
    <g id="ytick_3">
     <g id="line2d_3">
      <path d="M 43.594075 234.358669 
L 355.8105 234.358669 
" clip-path="url(#pdb5f9f90e9)" style="fill: none; stroke: #cccccc; stroke-width: 0.8; stroke-linecap: round"/>
     </g>
     <g id="text_6">
      <!-- 3 -->
      <g style="fill: #262626" transform="translate(31.033138 237.937576) scale(0.1 -0.1)">
       <defs>
        <path id="ArialMT-33" d="M 269 1209 
L 831 1284 
Q 928 806 1161 595 
Q 1394 384 1728 384 
Q 2125 384 2398 659 
Q 2672 934 2672 1341 
Q 2672 1728 2419 1979 
Q 2166 2231 1775 2231 
Q 1616 2231 1378 2169 
L 1441 2663 
Q 1497 2656 1531 2656 
Q 1891 2656 2178 2843 
Q 2466 3031 2466 3422 
Q 2466 3731 2256 3934 
Q 2047 4138 1716 4138 
Q 1388 4138 1169 3931 
Q 950 3725 888 3313 
L 325 3413 
Q 428 3978 793 4289 
Q 1159 4600 1703 4600 
Q 2078 4600 2393 4439 
Q 2709 4278 2876 4000 
Q 3044 3722 3044 3409 
Q 3044 3113 2884 2869 
Q 2725 2625 2413 2481 
Q 2819 2388 3044 2092 
Q 3269 1797 3269 1353 
Q 3269 753 2831 336 
Q 2394 -81 1725 -81 
Q 1122 -81 723 278 
Q 325 638 269 1209 
z
" transform="scale(0.015625)"/>
       </defs>
       <use xlink:href="#ArialMT-33"/>
      </g>
     </g>
    </g>
    <g id="ytick_4">
     <g id="line2d_4">
      <path d="M 43.594075 195.127921 
L 355.8105 195.127921 
" clip-path="url(#pdb5f9f90e9)" style="fill: none; stroke: #cccccc; stroke-width: 0.8; stroke-linecap: round"/>
     </g>
     <g id="text_7">
      <!-- 4 -->
      <g style="fill: #262626" transform="translate(31.033138 198.706828) scale(0.1 -0.1)">
       <defs>
        <path id="ArialMT-34" d="M 2069 0 
L 2069 1097 
L 81 1097 
L 81 1613 
L 2172 4581 
L 2631 4581 
L 2631 1613 
L 3250 1613 
L 3250 1097 
L 2631 1097 
L 2631 0 
L 2069 0 
z
M 2069 1613 
L 2069 3678 
L 634 1613 
L 2069 1613 
z
" transform="scale(0.015625)"/>
       </defs>
       <use xlink:href="#ArialMT-34"/>
      </g>
     </g>
    </g>
    <g id="ytick_5">
     <g id="line2d_5">
      <path d="M 43.594075 155.897173 
L 355.8105 155.897173 
" clip-path="url(#pdb5f9f90e9)" style="fill: none; stroke: #cccccc; stroke-width: 0.8; stroke-linecap: round"/>
     </g>
     <g id="text_8">
      <!-- 5 -->
      <g style="fill: #262626" transform="translate(31.033138 159.47608) scale(0.1 -0.1)">
       <defs>
        <path id="ArialMT-35" d="M 266 1200 
L 856 1250 
Q 922 819 1161 601 
Q 1400 384 1738 384 
Q 2144 384 2425 690 
Q 2706 997 2706 1503 
Q 2706 1984 2436 2262 
Q 2166 2541 1728 2541 
Q 1456 2541 1237 2417 
Q 1019 2294 894 2097 
L 366 2166 
L 809 4519 
L 3088 4519 
L 3088 3981 
L 1259 3981 
L 1013 2750 
Q 1425 3038 1878 3038 
Q 2478 3038 2890 2622 
Q 3303 2206 3303 1553 
Q 3303 931 2941 478 
Q 2500 -78 1738 -78 
Q 1113 -78 717 272 
Q 322 622 266 1200 
z
" transform="scale(0.015625)"/>
       </defs>
       <use xlink:href="#ArialMT-35"/>
      </g>
     </g>
    </g>
    <g id="ytick_6">
     <g id="line2d_6">
      <path d="M 43.594075 116.666425 
L 355.8105 116.666425 
" clip-path="url(#pdb5f9f90e9)" style="fill: none; stroke: #cccccc; stroke-width: 0.8; stroke-linecap: round"/>
     </g>
     <g id="text_9">
      <!-- 6 -->
      <g style="fill: #262626" transform="translate(31.033138 120.245332) scale(0.1 -0.1)">
       <defs>
        <path id="ArialMT-36" d="M 3184 3459 
L 2625 3416 
Q 2550 3747 2413 3897 
Q 2184 4138 1850 4138 
Q 1581 4138 1378 3988 
Q 1113 3794 959 3422 
Q 806 3050 800 2363 
Q 1003 2672 1297 2822 
Q 1591 2972 1913 2972 
Q 2475 2972 2870 2558 
Q 3266 2144 3266 1488 
Q 3266 1056 3080 686 
Q 2894 316 2569 119 
Q 2244 -78 1831 -78 
Q 1128 -78 684 439 
Q 241 956 241 2144 
Q 241 3472 731 4075 
Q 1159 4600 1884 4600 
Q 2425 4600 2770 4297 
Q 3116 3994 3184 3459 
z
M 888 1484 
Q 888 1194 1011 928 
Q 1134 663 1356 523 
Q 1578 384 1822 384 
Q 2178 384 2434 671 
Q 2691 959 2691 1453 
Q 2691 1928 2437 2201 
Q 2184 2475 1800 2475 
Q 1419 2475 1153 2201 
Q 888 1928 888 1484 
z
" transform="scale(0.015625)"/>
       </defs>
       <use xlink:href="#ArialMT-36"/>
      </g>
     </g>
    </g>
    <g id="ytick_7">
     <g id="line2d_7">
      <path d="M 43.594075 77.435678 
L 355.8105 77.435678 
" clip-path="url(#pdb5f9f90e9)" style="fill: none; stroke: #cccccc; stroke-width: 0.8; stroke-linecap: round"/>
     </g>
     <g id="text_10">
      <!-- 7 -->
      <g style="fill: #262626" transform="translate(31.033138 81.014584) scale(0.1 -0.1)">
       <defs>
        <path id="ArialMT-37" d="M 303 3981 
L 303 4522 
L 3269 4522 
L 3269 4084 
Q 2831 3619 2401 2847 
Q 1972 2075 1738 1259 
Q 1569 684 1522 0 
L 944 0 
Q 953 541 1156 1306 
Q 1359 2072 1739 2783 
Q 2119 3494 2547 3981 
L 303 3981 
z
" transform="scale(0.015625)"/>
       </defs>
       <use xlink:href="#ArialMT-37"/>
      </g>
     </g>
    </g>
    <g id="ytick_8">
     <g id="line2d_8">
      <path d="M 43.594075 38.20493 
L 355.8105 38.20493 
" clip-path="url(#pdb5f9f90e9)" style="fill: none; stroke: #cccccc; stroke-width: 0.8; stroke-linecap: round"/>
     </g>
     <g id="text_11">
      <!-- 8 -->
      <g style="fill: #262626" transform="translate(31.033138 41.783836) scale(0.1 -0.1)">
       <defs>
        <path id="ArialMT-38" d="M 1131 2484 
Q 781 2613 612 2850 
Q 444 3088 444 3419 
Q 444 3919 803 4259 
Q 1163 4600 1759 4600 
Q 2359 4600 2725 4251 
Q 3091 3903 3091 3403 
Q 3091 3084 2923 2848 
Q 2756 2613 2416 2484 
Q 2838 2347 3058 2040 
Q 3278 1734 3278 1309 
Q 3278 722 2862 322 
Q 2447 -78 1769 -78 
Q 1091 -78 675 323 
Q 259 725 259 1325 
Q 259 1772 486 2073 
Q 713 2375 1131 2484 
z
M 1019 3438 
Q 1019 3113 1228 2906 
Q 1438 2700 1772 2700 
Q 2097 2700 2305 2904 
Q 2513 3109 2513 3406 
Q 2513 3716 2298 3927 
Q 2084 4138 1766 4138 
Q 1444 4138 1231 3931 
Q 1019 3725 1019 3438 
z
M 838 1322 
Q 838 1081 952 856 
Q 1066 631 1291 507 
Q 1516 384 1775 384 
Q 2178 384 2440 643 
Q 2703 903 2703 1303 
Q 2703 1709 2433 1975 
Q 2163 2241 1756 2241 
Q 1359 2241 1098 1978 
Q 838 1716 838 1322 
z
" transform="scale(0.015625)"/>
       </defs>
       <use xlink:href="#ArialMT-38"/>
      </g>
     </g>
    </g>
    <g id="text_12">
     <!-- Metabolic equivalent of task (MET) (3.5ml/kg/min) -->
     <g style="fill: #262626" transform="translate(24.92845 274.449688) rotate(-90) scale(0.1 -0.1)">
      <defs>
       <path id="ArialMT-4d" d="M 475 0 
L 475 4581 
L 1388 4581 
L 2472 1338 
Q 2622 884 2691 659 
Q 2769 909 2934 1394 
L 4031 4581 
L 4847 4581 
L 4847 0 
L 4263 0 
L 4263 3834 
L 2931 0 
L 2384 0 
L 1059 3900 
L 1059 0 
L 475 0 
z
" transform="scale(0.015625)"/>
       <path id="ArialMT-74" d="M 1650 503 
L 1731 6 
Q 1494 -44 1306 -44 
Q 1000 -44 831 53 
Q 663 150 594 308 
Q 525 466 525 972 
L 525 2881 
L 113 2881 
L 113 3319 
L 525 3319 
L 525 4141 
L 1084 4478 
L 1084 3319 
L 1650 3319 
L 1650 2881 
L 1084 2881 
L 1084 941 
Q 1084 700 1114 631 
Q 1144 563 1211 522 
Q 1278 481 1403 481 
Q 1497 481 1650 503 
z
" transform="scale(0.015625)"/>
       <path id="ArialMT-61" d="M 2588 409 
Q 2275 144 1986 34 
Q 1697 -75 1366 -75 
Q 819 -75 525 192 
Q 231 459 231 875 
Q 231 1119 342 1320 
Q 453 1522 633 1644 
Q 813 1766 1038 1828 
Q 1203 1872 1538 1913 
Q 2219 1994 2541 2106 
Q 2544 2222 2544 2253 
Q 2544 2597 2384 2738 
Q 2169 2928 1744 2928 
Q 1347 2928 1158 2789 
Q 969 2650 878 2297 
L 328 2372 
Q 403 2725 575 2942 
Q 747 3159 1072 3276 
Q 1397 3394 1825 3394 
Q 2250 3394 2515 3294 
Q 2781 3194 2906 3042 
Q 3031 2891 3081 2659 
Q 3109 2516 3109 2141 
L 3109 1391 
Q 3109 606 3145 398 
Q 3181 191 3288 0 
L 2700 0 
Q 2613 175 2588 409 
z
M 2541 1666 
Q 2234 1541 1622 1453 
Q 1275 1403 1131 1340 
Q 988 1278 909 1158 
Q 831 1038 831 891 
Q 831 666 1001 516 
Q 1172 366 1500 366 
Q 1825 366 2078 508 
Q 2331 650 2450 897 
Q 2541 1088 2541 1459 
L 2541 1666 
z
" transform="scale(0.015625)"/>
       <path id="ArialMT-62" d="M 941 0 
L 419 0 
L 419 4581 
L 981 4581 
L 981 2947 
Q 1338 3394 1891 3394 
Q 2197 3394 2470 3270 
Q 2744 3147 2920 2923 
Q 3097 2700 3197 2384 
Q 3297 2069 3297 1709 
Q 3297 856 2875 390 
Q 2453 -75 1863 -75 
Q 1275 -75 941 416 
L 941 0 
z
M 934 1684 
Q 934 1088 1097 822 
Q 1363 388 1816 388 
Q 2184 388 2453 708 
Q 2722 1028 2722 1663 
Q 2722 2313 2464 2622 
Q 2206 2931 1841 2931 
Q 1472 2931 1203 2611 
Q 934 2291 934 1684 
z
" transform="scale(0.015625)"/>
       <path id="ArialMT-6f" d="M 213 1659 
Q 213 2581 725 3025 
Q 1153 3394 1769 3394 
Q 2453 3394 2887 2945 
Q 3322 2497 3322 1706 
Q 3322 1066 3130 698 
Q 2938 331 2570 128 
Q 2203 -75 1769 -75 
Q 1072 -75 642 372 
Q 213 819 213 1659 
z
M 791 1659 
Q 791 1022 1069 705 
Q 1347 388 1769 388 
Q 2188 388 2466 706 
Q 2744 1025 2744 1678 
Q 2744 2294 2464 2611 
Q 2184 2928 1769 2928 
Q 1347 2928 1069 2612 
Q 791 2297 791 1659 
z
" transform="scale(0.015625)"/>
       <path id="ArialMT-6c" d="M 409 0 
L 409 4581 
L 972 4581 
L 972 0 
L 409 0 
z
" transform="scale(0.015625)"/>
       <path id="ArialMT-69" d="M 425 3934 
L 425 4581 
L 988 4581 
L 988 3934 
L 425 3934 
z
M 425 0 
L 425 3319 
L 988 3319 
L 988 0 
L 425 0 
z
" transform="scale(0.015625)"/>
       <path id="ArialMT-63" d="M 2588 1216 
L 3141 1144 
Q 3050 572 2676 248 
Q 2303 -75 1759 -75 
Q 1078 -75 664 370 
Q 250 816 250 1647 
Q 250 2184 428 2587 
Q 606 2991 970 3192 
Q 1334 3394 1763 3394 
Q 2303 3394 2647 3120 
Q 2991 2847 3088 2344 
L 2541 2259 
Q 2463 2594 2264 2762 
Q 2066 2931 1784 2931 
Q 1359 2931 1093 2626 
Q 828 2322 828 1663 
Q 828 994 1084 691 
Q 1341 388 1753 388 
Q 2084 388 2306 591 
Q 2528 794 2588 1216 
z
" transform="scale(0.015625)"/>
       <path id="ArialMT-20" transform="scale(0.015625)"/>
       <path id="ArialMT-71" d="M 2538 -1272 
L 2538 353 
Q 2406 169 2170 47 
Q 1934 -75 1669 -75 
Q 1078 -75 651 397 
Q 225 869 225 1691 
Q 225 2191 398 2587 
Q 572 2984 901 3189 
Q 1231 3394 1625 3394 
Q 2241 3394 2594 2875 
L 2594 3319 
L 3100 3319 
L 3100 -1272 
L 2538 -1272 
z
M 803 1669 
Q 803 1028 1072 708 
Q 1341 388 1716 388 
Q 2075 388 2334 692 
Q 2594 997 2594 1619 
Q 2594 2281 2320 2615 
Q 2047 2950 1678 2950 
Q 1313 2950 1058 2639 
Q 803 2328 803 1669 
z
" transform="scale(0.015625)"/>
       <path id="ArialMT-75" d="M 2597 0 
L 2597 488 
Q 2209 -75 1544 -75 
Q 1250 -75 995 37 
Q 741 150 617 320 
Q 494 491 444 738 
Q 409 903 409 1263 
L 409 3319 
L 972 3319 
L 972 1478 
Q 972 1038 1006 884 
Q 1059 663 1231 536 
Q 1403 409 1656 409 
Q 1909 409 2131 539 
Q 2353 669 2445 892 
Q 2538 1116 2538 1541 
L 2538 3319 
L 3100 3319 
L 3100 0 
L 2597 0 
z
" transform="scale(0.015625)"/>
       <path id="ArialMT-76" d="M 1344 0 
L 81 3319 
L 675 3319 
L 1388 1331 
Q 1503 1009 1600 663 
Q 1675 925 1809 1294 
L 2547 3319 
L 3125 3319 
L 1869 0 
L 1344 0 
z
" transform="scale(0.015625)"/>
       <path id="ArialMT-6e" d="M 422 0 
L 422 3319 
L 928 3319 
L 928 2847 
Q 1294 3394 1984 3394 
Q 2284 3394 2536 3286 
Q 2788 3178 2913 3003 
Q 3038 2828 3088 2588 
Q 3119 2431 3119 2041 
L 3119 0 
L 2556 0 
L 2556 2019 
Q 2556 2363 2490 2533 
Q 2425 2703 2258 2804 
Q 2091 2906 1866 2906 
Q 1506 2906 1245 2678 
Q 984 2450 984 1813 
L 984 0 
L 422 0 
z
" transform="scale(0.015625)"/>
       <path id="ArialMT-6b" d="M 425 0 
L 425 4581 
L 988 4581 
L 988 1969 
L 2319 3319 
L 3047 3319 
L 1778 2088 
L 3175 0 
L 2481 0 
L 1384 1697 
L 988 1316 
L 988 0 
L 425 0 
z
" transform="scale(0.015625)"/>
       <path id="ArialMT-28" d="M 1497 -1347 
Q 1031 -759 709 28 
Q 388 816 388 1659 
Q 388 2403 628 3084 
Q 909 3875 1497 4659 
L 1900 4659 
Q 1522 4009 1400 3731 
Q 1209 3300 1100 2831 
Q 966 2247 966 1656 
Q 966 153 1900 -1347 
L 1497 -1347 
z
" transform="scale(0.015625)"/>
       <path id="ArialMT-45" d="M 506 0 
L 506 4581 
L 3819 4581 
L 3819 4041 
L 1113 4041 
L 1113 2638 
L 3647 2638 
L 3647 2100 
L 1113 2100 
L 1113 541 
L 3925 541 
L 3925 0 
L 506 0 
z
" transform="scale(0.015625)"/>
       <path id="ArialMT-54" d="M 1659 0 
L 1659 4041 
L 150 4041 
L 150 4581 
L 3781 4581 
L 3781 4041 
L 2266 4041 
L 2266 0 
L 1659 0 
z
" transform="scale(0.015625)"/>
       <path id="ArialMT-29" d="M 791 -1347 
L 388 -1347 
Q 1322 153 1322 1656 
Q 1322 2244 1188 2822 
Q 1081 3291 891 3722 
Q 769 4003 388 4659 
L 791 4659 
Q 1378 3875 1659 3084 
Q 1900 2403 1900 1659 
Q 1900 816 1576 28 
Q 1253 -759 791 -1347 
z
" transform="scale(0.015625)"/>
       <path id="ArialMT-2e" d="M 581 0 
L 581 641 
L 1222 641 
L 1222 0 
L 581 0 
z
" transform="scale(0.015625)"/>
       <path id="ArialMT-2f" d="M 0 -78 
L 1328 4659 
L 1778 4659 
L 453 -78 
L 0 -78 
z
" transform="scale(0.015625)"/>
       <path id="ArialMT-67" d="M 319 -275 
L 866 -356 
Q 900 -609 1056 -725 
Q 1266 -881 1628 -881 
Q 2019 -881 2231 -725 
Q 2444 -569 2519 -288 
Q 2563 -116 2559 434 
Q 2191 0 1641 0 
Q 956 0 581 494 
Q 206 988 206 1678 
Q 206 2153 378 2554 
Q 550 2956 876 3175 
Q 1203 3394 1644 3394 
Q 2231 3394 2613 2919 
L 2613 3319 
L 3131 3319 
L 3131 450 
Q 3131 -325 2973 -648 
Q 2816 -972 2473 -1159 
Q 2131 -1347 1631 -1347 
Q 1038 -1347 672 -1080 
Q 306 -813 319 -275 
z
M 784 1719 
Q 784 1066 1043 766 
Q 1303 466 1694 466 
Q 2081 466 2343 764 
Q 2606 1063 2606 1700 
Q 2606 2309 2336 2618 
Q 2066 2928 1684 2928 
Q 1309 2928 1046 2623 
Q 784 2319 784 1719 
z
" transform="scale(0.015625)"/>
      </defs>
      <use xlink:href="#ArialMT-4d"/>
      <use xlink:href="#ArialMT-65" x="83.300781"/>
      <use xlink:href="#ArialMT-74" x="138.916016"/>
      <use xlink:href="#ArialMT-61" x="166.699219"/>
      <use xlink:href="#ArialMT-62" x="222.314453"/>
      <use xlink:href="#ArialMT-6f" x="277.929688"/>
      <use xlink:href="#ArialMT-6c" x="333.544922"/>
      <use xlink:href="#ArialMT-69" x="355.761719"/>
      <use xlink:href="#ArialMT-63" x="377.978516"/>
      <use xlink:href="#ArialMT-20" x="427.978516"/>
      <use xlink:href="#ArialMT-65" x="455.761719"/>
      <use xlink:href="#ArialMT-71" x="511.376953"/>
      <use xlink:href="#ArialMT-75" x="566.992188"/>
      <use xlink:href="#ArialMT-69" x="622.607422"/>
      <use xlink:href="#ArialMT-76" x="644.824219"/>
      <use xlink:href="#ArialMT-61" x="694.824219"/>
      <use xlink:href="#ArialMT-6c" x="750.439453"/>
      <use xlink:href="#ArialMT-65" x="772.65625"/>
      <use xlink:href="#ArialMT-6e" x="828.271484"/>
      <use xlink:href="#ArialMT-74" x="883.886719"/>
      <use xlink:href="#ArialMT-20" x="911.669922"/>
      <use xlink:href="#ArialMT-6f" x="939.453125"/>
      <use xlink:href="#ArialMT-66" x="995.068359"/>
      <use xlink:href="#ArialMT-20" x="1022.851562"/>
      <use xlink:href="#ArialMT-74" x="1050.634766"/>
      <use xlink:href="#ArialMT-61" x="1078.417969"/>
      <use xlink:href="#ArialMT-73" x="1134.033203"/>
      <use xlink:href="#ArialMT-6b" x="1184.033203"/>
      <use xlink:href="#ArialMT-20" x="1234.033203"/>
      <use xlink:href="#ArialMT-28" x="1261.816406"/>
      <use xlink:href="#ArialMT-4d" x="1295.117188"/>
      <use xlink:href="#ArialMT-45" x="1378.417969"/>
      <use xlink:href="#ArialMT-54" x="1445.117188"/>
      <use xlink:href="#ArialMT-29" x="1506.201172"/>
      <use xlink:href="#ArialMT-20" x="1539.501953"/>
      <use xlink:href="#ArialMT-28" x="1567.285156"/>
      <use xlink:href="#ArialMT-33" x="1600.585938"/>
      <use xlink:href="#ArialMT-2e" x="1656.201172"/>
      <use xlink:href="#ArialMT-35" x="1683.984375"/>
      <use xlink:href="#ArialMT-6d" x="1739.599609"/>
      <use xlink:href="#ArialMT-6c" x="1822.900391"/>
      <use xlink:href="#ArialMT-2f" x="1845.117188"/>
      <use xlink:href="#ArialMT-6b" x="1872.900391"/>
      <use xlink:href="#ArialMT-67" x="1922.900391"/>
      <use xlink:href="#ArialMT-2f" x="1978.515625"/>
      <use xlink:href="#ArialMT-6d" x="2006.298828"/>
      <use xlink:href="#ArialMT-69" x="2089.599609"/>
      <use xlink:href="#ArialMT-6e" x="2111.816406"/>
      <use xlink:href="#ArialMT-29" x="2167.431641"/>
     </g>
    </g>
   </g>
   <g id="PolyCollection_1">
    <defs>
     <path id="mf022089302" d="M 91.717326 -93.480043 
L 89.135751 -93.480043 
L 88.830105 -95.02677 
L 88.468228 -96.573496 
L 88.043852 -98.120223 
L 87.550942 -99.666949 
L 86.983929 -101.213676 
L 86.337979 -102.760402 
L 85.609258 -104.307129 
L 84.795216 -105.853855 
L 83.894845 -107.400582 
L 82.908919 -108.947308 
L 81.840183 -110.494035 
L 80.693494 -112.040761 
L 79.475875 -113.587488 
L 78.196505 -115.134214 
L 76.866606 -116.680941 
L 75.499244 -118.227667 
L 74.109043 -119.774394 
L 72.711812 -121.321121 
L 71.324116 -122.867847 
L 69.962785 -124.414574 
L 68.644401 -125.9613 
L 67.384782 -127.508027 
L 66.198479 -129.054753 
L 65.098316 -130.60148 
L 64.095 -132.148206 
L 63.196795 -133.694933 
L 62.409306 -135.241659 
L 61.73535 -136.788386 
L 61.174931 -138.335112 
L 60.725316 -139.881839 
L 60.381201 -141.428565 
L 60.134954 -142.975292 
L 59.976927 -144.522019 
L 59.895823 -146.068745 
L 59.879095 -147.615472 
L 59.913378 -149.162198 
L 59.984924 -150.708925 
L 60.080045 -152.255651 
L 60.185545 -153.802378 
L 60.289137 -155.349104 
L 60.379835 -156.895831 
L 60.448309 -158.442557 
L 60.487202 -159.989284 
L 60.491398 -161.53601 
L 60.458217 -163.082737 
L 60.387545 -164.629463 
L 60.281875 -166.17619 
L 60.14626 -167.722917 
L 59.988155 -169.269643 
L 59.817171 -170.81637 
L 59.644719 -172.363096 
L 59.483568 -173.909823 
L 59.347335 -175.456549 
L 59.249915 -177.003276 
L 59.204896 -178.550002 
L 59.22497 -180.096729 
L 59.321389 -181.643455 
L 59.503492 -183.190182 
L 59.778318 -184.736908 
L 60.15035 -186.283635 
L 60.62138 -187.830361 
L 61.190512 -189.377088 
L 61.854307 -190.923815 
L 62.607028 -192.470541 
L 63.441001 -194.017268 
L 64.347032 -195.563994 
L 65.314866 -197.110721 
L 66.33366 -198.657447 
L 67.392419 -200.204174 
L 68.480396 -201.7509 
L 69.587417 -203.297627 
L 70.704119 -204.844353 
L 71.822112 -206.39108 
L 72.934042 -207.937806 
L 74.033592 -209.484533 
L 75.115406 -211.031259 
L 76.174981 -212.577986 
L 77.208521 -214.124713 
L 78.212793 -215.671439 
L 79.184987 -217.218166 
L 80.122593 -218.764892 
L 81.023318 -220.311619 
L 81.885031 -221.858345 
L 82.705744 -223.405072 
L 83.48363 -224.951798 
L 84.217055 -226.498525 
L 84.904644 -228.045251 
L 85.545337 -229.591978 
L 86.138457 -231.138704 
L 86.683761 -232.685431 
L 87.181479 -234.232157 
L 87.632337 -235.778884 
L 88.037545 -237.325611 
L 88.398781 -238.872337 
L 88.718141 -240.419064 
L 88.99808 -241.96579 
L 89.241338 -243.512517 
L 89.450861 -245.059243 
L 89.629717 -246.60597 
L 91.223361 -246.60597 
L 91.223361 -246.60597 
L 91.402216 -245.059243 
L 91.611739 -243.512517 
L 91.854997 -241.96579 
L 92.134936 -240.419064 
L 92.454296 -238.872337 
L 92.815533 -237.325611 
L 93.220741 -235.778884 
L 93.671598 -234.232157 
L 94.169317 -232.685431 
L 94.71462 -231.138704 
L 95.30774 -229.591978 
L 95.948433 -228.045251 
L 96.636022 -226.498525 
L 97.369448 -224.951798 
L 98.147333 -223.405072 
L 98.968047 -221.858345 
L 99.82976 -220.311619 
L 100.730485 -218.764892 
L 101.668091 -217.218166 
L 102.640284 -215.671439 
L 103.644557 -214.124713 
L 104.678097 -212.577986 
L 105.737671 -211.031259 
L 106.819485 -209.484533 
L 107.919035 -207.937806 
L 109.030966 -206.39108 
L 110.148958 -204.844353 
L 111.265661 -203.297627 
L 112.372681 -201.7509 
L 113.460659 -200.204174 
L 114.519418 -198.657447 
L 115.538211 -197.110721 
L 116.506046 -195.563994 
L 117.412076 -194.017268 
L 118.24605 -192.470541 
L 118.998771 -190.923815 
L 119.662565 -189.377088 
L 120.231698 -187.830361 
L 120.702727 -186.283635 
L 121.074759 -184.736908 
L 121.349586 -183.190182 
L 121.531688 -181.643455 
L 121.628108 -180.096729 
L 121.648181 -178.550002 
L 121.603162 -177.003276 
L 121.505743 -175.456549 
L 121.36951 -173.909823 
L 121.208359 -172.363096 
L 121.035906 -170.81637 
L 120.864922 -169.269643 
L 120.706818 -167.722917 
L 120.571203 -166.17619 
L 120.465533 -164.629463 
L 120.39486 -163.082737 
L 120.361679 -161.53601 
L 120.365875 -159.989284 
L 120.404769 -158.442557 
L 120.473242 -156.895831 
L 120.56394 -155.349104 
L 120.667532 -153.802378 
L 120.773032 -152.255651 
L 120.868153 -150.708925 
L 120.939699 -149.162198 
L 120.973982 -147.615472 
L 120.957255 -146.068745 
L 120.876151 -144.522019 
L 120.718124 -142.975292 
L 120.471876 -141.428565 
L 120.127761 -139.881839 
L 119.678147 -138.335112 
L 119.117727 -136.788386 
L 118.443771 -135.241659 
L 117.656283 -133.694933 
L 116.758078 -132.148206 
L 115.754761 -130.60148 
L 114.654599 -129.054753 
L 113.468295 -127.508027 
L 112.208676 -125.9613 
L 110.890293 -124.414574 
L 109.528961 -122.867847 
L 108.141265 -121.321121 
L 106.744035 -119.774394 
L 105.353833 -118.227667 
L 103.986472 -116.680941 
L 102.656573 -115.134214 
L 101.377203 -113.587488 
L 100.159584 -112.040761 
L 99.012894 -110.494035 
L 97.944159 -108.947308 
L 96.958233 -107.400582 
L 96.057862 -105.853855 
L 95.24382 -104.307129 
L 94.515099 -102.760402 
L 93.869148 -101.213676 
L 93.302136 -99.666949 
L 92.809225 -98.120223 
L 92.384849 -96.573496 
L 92.022972 -95.02677 
L 91.717326 -93.480043 
z
" style="stroke: #3f3f3f; stroke-width: 1.25"/>
    </defs>
    <g clip-path="url(#pdb5f9f90e9)">
     <use xlink:href="#mf022089302" x="0" y="360" style="fill: #3274a1; stroke: #3f3f3f; stroke-width: 1.25"/>
    </g>
   </g>
   <g id="PolyCollection_2">
    <defs>
     <path id="mdadef3a8fd" d="M 153.474071 -64.910357 
L 152.265576 -64.910357 
L 152.109542 -67.076919 
L 151.923671 -69.243482 
L 151.705097 -71.410044 
L 151.45136 -73.576607 
L 151.16057 -75.743169 
L 150.831565 -77.909732 
L 150.464039 -80.076294 
L 150.058639 -82.242857 
L 149.617005 -84.409419 
L 149.141745 -86.575982 
L 148.636348 -88.742544 
L 148.105019 -90.909107 
L 147.552442 -93.075669 
L 146.983502 -95.242232 
L 146.402953 -97.408794 
L 145.815081 -99.575357 
L 145.223377 -101.741919 
L 144.630243 -103.908482 
L 144.036772 -106.075044 
L 143.442609 -108.241607 
L 142.845921 -110.408169 
L 142.243467 -112.574732 
L 141.630789 -114.741294 
L 141.002493 -116.907857 
L 140.352609 -119.074419 
L 139.675009 -121.240982 
L 138.963847 -123.407544 
L 138.213997 -125.574107 
L 137.421456 -127.740669 
L 136.583702 -129.907232 
L 135.699972 -132.073794 
L 134.77146 -134.240357 
L 133.801441 -136.406919 
L 132.795297 -138.573482 
L 131.760484 -140.740044 
L 130.706421 -142.906607 
L 129.644332 -145.073169 
L 128.587037 -147.239732 
L 127.548706 -149.406294 
L 126.54458 -151.572857 
L 125.590662 -153.739419 
L 124.703377 -155.905982 
L 123.899207 -158.072544 
L 123.194302 -160.239107 
L 122.604068 -162.405669 
L 122.142743 -164.572232 
L 121.822969 -166.738794 
L 121.655376 -168.905357 
L 121.648181 -171.071919 
L 121.806847 -173.238482 
L 122.133785 -175.405044 
L 122.628141 -177.571607 
L 123.28568 -179.738169 
L 124.098762 -181.904732 
L 125.056439 -184.071294 
L 126.144661 -186.237857 
L 127.346594 -188.404419 
L 128.643041 -190.570982 
L 130.01295 -192.737544 
L 131.433998 -194.904107 
L 132.88323 -197.070669 
L 134.337723 -199.237232 
L 135.775255 -201.403794 
L 137.174962 -203.570357 
L 138.517942 -205.736919 
L 139.787791 -207.903482 
L 140.97105 -210.070044 
L 142.057543 -212.236607 
L 143.04058 -214.403169 
L 143.917035 -216.569732 
L 144.687269 -218.736294 
L 145.354923 -220.902857 
L 145.926564 -223.069419 
L 146.41123 -225.235982 
L 146.819866 -227.402544 
L 147.164699 -229.569107 
L 147.458586 -231.735669 
L 147.714357 -233.902232 
L 147.944206 -236.068794 
L 148.159153 -238.235357 
L 148.368611 -240.401919 
L 148.58008 -242.568482 
L 148.79897 -244.735044 
L 149.028576 -246.901607 
L 149.270168 -249.068169 
L 149.52321 -251.234731 
L 149.785653 -253.401294 
L 150.054298 -255.567856 
L 150.325181 -257.734419 
L 150.593961 -259.900981 
L 150.856275 -262.067544 
L 151.108043 -264.234106 
L 151.34571 -266.400669 
L 151.566412 -268.567231 
L 151.768074 -270.733794 
L 151.949431 -272.900356 
L 152.109998 -275.066919 
L 152.249991 -277.233481 
L 152.370214 -279.400044 
L 153.369434 -279.400044 
L 153.369434 -279.400044 
L 153.489656 -277.233481 
L 153.629649 -275.066919 
L 153.790217 -272.900356 
L 153.971574 -270.733794 
L 154.173236 -268.567231 
L 154.393938 -266.400669 
L 154.631604 -264.234106 
L 154.883372 -262.067544 
L 155.145686 -259.900981 
L 155.414467 -257.734419 
L 155.68535 -255.567856 
L 155.953994 -253.401294 
L 156.216437 -251.234731 
L 156.469479 -249.068169 
L 156.711072 -246.901607 
L 156.940677 -244.735044 
L 157.159568 -242.568482 
L 157.371036 -240.401919 
L 157.580495 -238.235357 
L 157.795442 -236.068794 
L 158.025291 -233.902232 
L 158.281062 -231.735669 
L 158.574949 -229.569107 
L 158.919782 -227.402544 
L 159.328417 -225.235982 
L 159.813083 -223.069419 
L 160.384725 -220.902857 
L 161.052378 -218.736294 
L 161.822613 -216.569732 
L 162.699067 -214.403169 
L 163.682105 -212.236607 
L 164.768597 -210.070044 
L 165.951856 -207.903482 
L 167.221705 -205.736919 
L 168.564685 -203.570357 
L 169.964393 -201.403794 
L 171.401925 -199.237232 
L 172.856417 -197.070669 
L 174.305649 -194.904107 
L 175.726697 -192.737544 
L 177.096606 -190.570982 
L 178.393053 -188.404419 
L 179.594987 -186.237857 
L 180.683209 -184.071294 
L 181.640886 -181.904732 
L 182.453967 -179.738169 
L 183.111506 -177.571607 
L 183.605863 -175.405044 
L 183.9328 -173.238482 
L 184.091466 -171.071919 
L 184.084272 -168.905357 
L 183.916678 -166.738794 
L 183.596905 -164.572232 
L 183.13558 -162.405669 
L 182.545345 -160.239107 
L 181.84044 -158.072544 
L 181.03627 -155.905982 
L 180.148985 -153.739419 
L 179.195067 -151.572857 
L 178.190942 -149.406294 
L 177.152611 -147.239732 
L 176.095316 -145.073169 
L 175.033226 -142.906607 
L 173.979163 -140.740044 
L 172.94435 -138.573482 
L 171.938207 -136.406919 
L 170.968187 -134.240357 
L 170.039676 -132.073794 
L 169.155945 -129.907232 
L 168.318191 -127.740669 
L 167.525651 -125.574107 
L 166.7758 -123.407544 
L 166.064638 -121.240982 
L 165.387038 -119.074419 
L 164.737155 -116.907857 
L 164.108858 -114.741294 
L 163.496181 -112.574732 
L 162.893727 -110.408169 
L 162.297038 -108.241607 
L 161.702876 -106.075044 
L 161.109405 -103.908482 
L 160.51627 -101.741919 
L 159.924566 -99.575357 
L 159.336695 -97.408794 
L 158.756146 -95.242232 
L 158.187205 -93.075669 
L 157.634629 -90.909107 
L 157.103299 -88.742544 
L 156.597903 -86.575982 
L 156.122643 -84.409419 
L 155.681008 -82.242857 
L 155.275608 -80.076294 
L 154.908083 -77.909732 
L 154.579077 -75.743169 
L 154.288287 -73.576607 
L 154.03455 -71.410044 
L 153.815977 -69.243482 
L 153.630106 -67.076919 
L 153.474071 -64.910357 
z
" style="stroke: #3f3f3f; stroke-width: 1.25"/>
    </defs>
    <g clip-path="url(#pdb5f9f90e9)">
     <use xlink:href="#mdadef3a8fd" x="0" y="360" style="fill: #e1812c; stroke: #3f3f3f; stroke-width: 1.25"/>
    </g>
   </g>
   <g id="PolyCollection_3">
    <defs>
     <path id="m8967db937d" d="M 246.830418 -55.925455 
L 246.239085 -55.925455 
L 246.162039 -58.746758 
L 246.07011 -61.568062 
L 245.961805 -64.389366 
L 245.835792 -67.21067 
L 245.69096 -70.031974 
L 245.526472 -72.853278 
L 245.341801 -75.674582 
L 245.136739 -78.495886 
L 244.911379 -81.31719 
L 244.666068 -84.138494 
L 244.40132 -86.959798 
L 244.117708 -89.781102 
L 243.815735 -92.602406 
L 243.495689 -95.42371 
L 243.157508 -98.245014 
L 242.800668 -101.066318 
L 242.424102 -103.887622 
L 242.026182 -106.708926 
L 241.604758 -109.53023 
L 241.157281 -112.351534 
L 240.680984 -115.172837 
L 240.173148 -117.994141 
L 239.6314 -120.815445 
L 239.054045 -123.636749 
L 238.440403 -126.458053 
L 237.791096 -129.279357 
L 237.108288 -132.100661 
L 236.395823 -134.921965 
L 235.659248 -137.743269 
L 234.90572 -140.564573 
L 234.14378 -143.385877 
L 233.383027 -146.207181 
L 232.633695 -149.028485 
L 231.906183 -151.849789 
L 231.210565 -154.671093 
L 230.556124 -157.492397 
L 229.950944 -160.313701 
L 229.401592 -163.135005 
L 228.912902 -165.956309 
L 228.487879 -168.777612 
L 228.1277 -171.598916 
L 227.831824 -174.42022 
L 227.598169 -177.241524 
L 227.423337 -180.062828 
L 227.302869 -182.884132 
L 227.231498 -185.705436 
L 227.203396 -188.52674 
L 227.212395 -191.348044 
L 227.252189 -194.169348 
L 227.316513 -196.990652 
L 227.399311 -199.811956 
L 227.494899 -202.63326 
L 227.598126 -205.454564 
L 227.704545 -208.275868 
L 227.81058 -211.097172 
L 227.913691 -213.918476 
L 228.012526 -216.73978 
L 228.107039 -219.561084 
L 228.198569 -222.382388 
L 228.289856 -225.203691 
L 228.384986 -228.024995 
L 228.489256 -230.846299 
L 228.608966 -233.667603 
L 228.751127 -236.488907 
L 228.923119 -239.310211 
L 229.132296 -242.131515 
L 229.385579 -244.952819 
L 229.689052 -247.774123 
L 230.047593 -250.595427 
L 230.464567 -253.416731 
L 230.941588 -256.238035 
L 231.478389 -259.059339 
L 232.072785 -261.880643 
L 232.720732 -264.701947 
L 233.416495 -267.523251 
L 234.15288 -270.344555 
L 234.921531 -273.165859 
L 235.713272 -275.987163 
L 236.518456 -278.808466 
L 237.32732 -281.62977 
L 238.130311 -284.451074 
L 238.918381 -287.272378 
L 239.683231 -290.093682 
L 240.417515 -292.914986 
L 241.114974 -295.73629 
L 241.770532 -298.557594 
L 242.380335 -301.378898 
L 242.94175 -304.200202 
L 243.453318 -307.021506 
L 243.914678 -309.84281 
L 244.326468 -312.664114 
L 244.690196 -315.485418 
L 245.008104 -318.306722 
L 245.28302 -321.128026 
L 245.518209 -323.94933 
L 245.717229 -326.770634 
L 245.883792 -329.591938 
L 246.02164 -332.413242 
L 246.134438 -335.234545 
L 246.935064 -335.234545 
L 246.935064 -335.234545 
L 247.047863 -332.413242 
L 247.185711 -329.591938 
L 247.352273 -326.770634 
L 247.551293 -323.94933 
L 247.786483 -321.128026 
L 248.061398 -318.306722 
L 248.379306 -315.485418 
L 248.743034 -312.664114 
L 249.154824 -309.84281 
L 249.616185 -307.021506 
L 250.127752 -304.200202 
L 250.689167 -301.378898 
L 251.298971 -298.557594 
L 251.954529 -295.73629 
L 252.651988 -292.914986 
L 253.386271 -290.093682 
L 254.151122 -287.272378 
L 254.939191 -284.451074 
L 255.742182 -281.62977 
L 256.551047 -278.808466 
L 257.356231 -275.987163 
L 258.147971 -273.165859 
L 258.916623 -270.344555 
L 259.653007 -267.523251 
L 260.34877 -264.701947 
L 260.996718 -261.880643 
L 261.591113 -259.059339 
L 262.127915 -256.238035 
L 262.604936 -253.416731 
L 263.021909 -250.595427 
L 263.380451 -247.774123 
L 263.683924 -244.952819 
L 263.937207 -242.131515 
L 264.146384 -239.310211 
L 264.318376 -236.488907 
L 264.460537 -233.667603 
L 264.580246 -230.846299 
L 264.684516 -228.024995 
L 264.779646 -225.203691 
L 264.870933 -222.382388 
L 264.962464 -219.561084 
L 265.056977 -216.73978 
L 265.155811 -213.918476 
L 265.258922 -211.097172 
L 265.364957 -208.275868 
L 265.471376 -205.454564 
L 265.574604 -202.63326 
L 265.670191 -199.811956 
L 265.752989 -196.990652 
L 265.817313 -194.169348 
L 265.857107 -191.348044 
L 265.866107 -188.52674 
L 265.838005 -185.705436 
L 265.766634 -182.884132 
L 265.646165 -180.062828 
L 265.471333 -177.241524 
L 265.237678 -174.42022 
L 264.941803 -171.598916 
L 264.581624 -168.777612 
L 264.1566 -165.956309 
L 263.667911 -163.135005 
L 263.118559 -160.313701 
L 262.513379 -157.492397 
L 261.858937 -154.671093 
L 261.163319 -151.849789 
L 260.435807 -149.028485 
L 259.686476 -146.207181 
L 258.925723 -143.385877 
L 258.163783 -140.564573 
L 257.410254 -137.743269 
L 256.673679 -134.921965 
L 255.961214 -132.100661 
L 255.278407 -129.279357 
L 254.6291 -126.458053 
L 254.015457 -123.636749 
L 253.438103 -120.815445 
L 252.896354 -117.994141 
L 252.388518 -115.172837 
L 251.912222 -112.351534 
L 251.464744 -109.53023 
L 251.043321 -106.708926 
L 250.6454 -103.887622 
L 250.268835 -101.066318 
L 249.911994 -98.245014 
L 249.573814 -95.42371 
L 249.253768 -92.602406 
L 248.951795 -89.781102 
L 248.668183 -86.959798 
L 248.403434 -84.138494 
L 248.158123 -81.31719 
L 247.932764 -78.495886 
L 247.727702 -75.674582 
L 247.543031 -72.853278 
L 247.378543 -70.031974 
L 247.23371 -67.21067 
L 247.107697 -64.389366 
L 246.999392 -61.568062 
L 246.907463 -58.746758 
L 246.830418 -55.925455 
z
" style="stroke: #3f3f3f; stroke-width: 1.25"/>
    </defs>
    <g clip-path="url(#pdb5f9f90e9)">
     <use xlink:href="#m8967db937d" x="0" y="360" style="fill: #3274a1; stroke: #3f3f3f; stroke-width: 1.25"/>
    </g>
   </g>
   <g id="PolyCollection_4">
    <defs>
     <path id="mef2ef1761d" d="M 309.918433 -91.555747 
L 308.037639 -91.555747 
L 307.78815 -93.392593 
L 307.488128 -95.22944 
L 307.131699 -97.066286 
L 306.713391 -98.903133 
L 306.228425 -100.739979 
L 305.673036 -102.576826 
L 305.044775 -104.413672 
L 304.342806 -106.250519 
L 303.568144 -108.087365 
L 302.723833 -109.924212 
L 301.815035 -111.761058 
L 300.849008 -113.597905 
L 299.834975 -115.434751 
L 298.783868 -117.271598 
L 297.707967 -119.108444 
L 296.620435 -120.945291 
L 295.534791 -122.782137 
L 294.464334 -124.618984 
L 293.421574 -126.45583 
L 292.417696 -128.292677 
L 291.462103 -130.129523 
L 290.562073 -131.96637 
L 289.722552 -133.803216 
L 288.946099 -135.640063 
L 288.232994 -137.476909 
L 287.58149 -139.313756 
L 286.98819 -141.150602 
L 286.448518 -142.987449 
L 285.957237 -144.824295 
L 285.508976 -146.661142 
L 285.098707 -148.497988 
L 284.722147 -150.334835 
L 284.376047 -152.171681 
L 284.058338 -154.008528 
L 283.768145 -155.845374 
L 283.505664 -157.682221 
L 283.271932 -159.519067 
L 283.068512 -161.355914 
L 282.897148 -163.19276 
L 282.759418 -165.029607 
L 282.656425 -166.866453 
L 282.588574 -168.7033 
L 282.555439 -170.540146 
L 282.555751 -172.376993 
L 282.587489 -174.213839 
L 282.648073 -176.050686 
L 282.73463 -177.887532 
L 282.844306 -179.724379 
L 282.974592 -181.561225 
L 283.123623 -183.398072 
L 283.290433 -185.234918 
L 283.475126 -187.071765 
L 283.678969 -188.908611 
L 283.904372 -190.745458 
L 284.154786 -192.582304 
L 284.434499 -194.419151 
L 284.748374 -196.255998 
L 285.101521 -198.092844 
L 285.498949 -199.929691 
L 285.945199 -201.766537 
L 286.444006 -203.603384 
L 286.997986 -205.44023 
L 287.608395 -207.277077 
L 288.274942 -209.113923 
L 288.995705 -210.95077 
L 289.76712 -212.787616 
L 290.584072 -214.624463 
L 291.440068 -216.461309 
L 292.327484 -218.298156 
L 293.237872 -220.135002 
L 294.162305 -221.971849 
L 295.091735 -223.808695 
L 296.017349 -225.645542 
L 296.93088 -227.482388 
L 297.824874 -229.319235 
L 298.692893 -231.156081 
L 299.52963 -232.992928 
L 300.330951 -234.829774 
L 301.093869 -236.666621 
L 301.81645 -238.503467 
L 302.49767 -240.340314 
L 303.137255 -242.17716 
L 303.735496 -244.014007 
L 304.29309 -245.850853 
L 304.810985 -247.6877 
L 305.29027 -249.524546 
L 305.732091 -251.361393 
L 306.137612 -253.198239 
L 306.508 -255.035086 
L 306.844437 -256.871932 
L 307.148147 -258.708779 
L 307.420436 -260.545625 
L 307.662714 -262.382472 
L 307.876529 -264.219318 
L 308.063572 -266.056165 
L 308.225671 -267.893011 
L 308.364781 -269.729858 
L 308.482944 -271.566704 
L 308.582254 -273.403551 
L 309.373818 -273.403551 
L 309.373818 -273.403551 
L 309.473128 -271.566704 
L 309.591291 -269.729858 
L 309.730401 -267.893011 
L 309.892501 -266.056165 
L 310.079543 -264.219318 
L 310.293358 -262.382472 
L 310.535637 -260.545625 
L 310.807925 -258.708779 
L 311.111636 -256.871932 
L 311.448072 -255.035086 
L 311.81846 -253.198239 
L 312.223981 -251.361393 
L 312.665803 -249.524546 
L 313.145087 -247.6877 
L 313.662982 -245.850853 
L 314.220576 -244.014007 
L 314.818818 -242.17716 
L 315.458402 -240.340314 
L 316.139623 -238.503467 
L 316.862203 -236.666621 
L 317.625122 -234.829774 
L 318.426443 -232.992928 
L 319.263179 -231.156081 
L 320.131198 -229.319235 
L 321.025193 -227.482388 
L 321.938723 -225.645542 
L 322.864337 -223.808695 
L 323.793768 -221.971849 
L 324.718201 -220.135002 
L 325.628589 -218.298156 
L 326.516005 -216.461309 
L 327.372001 -214.624463 
L 328.188953 -212.787616 
L 328.960367 -210.95077 
L 329.68113 -209.113923 
L 330.347678 -207.277077 
L 330.958086 -205.44023 
L 331.512067 -203.603384 
L 332.010873 -201.766537 
L 332.457123 -199.929691 
L 332.854551 -198.092844 
L 333.207699 -196.255998 
L 333.521574 -194.419151 
L 333.801287 -192.582304 
L 334.0517 -190.745458 
L 334.277103 -188.908611 
L 334.480946 -187.071765 
L 334.66564 -185.234918 
L 334.832449 -183.398072 
L 334.98148 -181.561225 
L 335.111766 -179.724379 
L 335.221442 -177.887532 
L 335.307999 -176.050686 
L 335.368583 -174.213839 
L 335.400321 -172.376993 
L 335.400634 -170.540146 
L 335.367499 -168.7033 
L 335.299647 -166.866453 
L 335.196654 -165.029607 
L 335.058924 -163.19276 
L 334.887561 -161.355914 
L 334.684141 -159.519067 
L 334.450408 -157.682221 
L 334.187927 -155.845374 
L 333.897734 -154.008528 
L 333.580025 -152.171681 
L 333.233925 -150.334835 
L 332.857366 -148.497988 
L 332.447096 -146.661142 
L 331.998835 -144.824295 
L 331.507555 -142.987449 
L 330.967883 -141.150602 
L 330.374583 -139.313756 
L 329.723078 -137.476909 
L 329.009973 -135.640063 
L 328.23352 -133.803216 
L 327.393999 -131.96637 
L 326.49397 -130.129523 
L 325.538377 -128.292677 
L 324.534499 -126.45583 
L 323.491738 -124.618984 
L 322.421282 -122.782137 
L 321.335637 -120.945291 
L 320.248106 -119.108444 
L 319.172204 -117.271598 
L 318.121097 -115.434751 
L 317.107064 -113.597905 
L 316.141037 -111.761058 
L 315.232239 -109.924212 
L 314.387929 -108.087365 
L 313.613266 -106.250519 
L 312.911297 -104.413672 
L 312.283036 -102.576826 
L 311.727647 -100.739979 
L 311.242682 -98.903133 
L 310.824373 -97.066286 
L 310.467945 -95.22944 
L 310.167923 -93.392593 
L 309.918433 -91.555747 
z
" style="stroke: #3f3f3f; stroke-width: 1.25"/>
    </defs>
    <g clip-path="url(#pdb5f9f90e9)">
     <use xlink:href="#mef2ef1761d" x="0" y="360" style="fill: #e1812c; stroke: #3f3f3f; stroke-width: 1.25"/>
    </g>
   </g>
   <g id="patch_3">
    <path d="M 121.648181 352.050913 
L 121.648181 352.050913 
L 121.648181 352.050913 
L 121.648181 352.050913 
z
" clip-path="url(#pdb5f9f90e9)" style="fill: #3274a1; stroke: #3f3f3f; stroke-width: 1.25; stroke-linejoin: miter"/>
   </g>
   <g id="patch_4">
    <path d="M 121.648181 352.050913 
L 121.648181 352.050913 
L 121.648181 352.050913 
L 121.648181 352.050913 
z
" clip-path="url(#pdb5f9f90e9)" style="fill: #e1812c; stroke: #3f3f3f; stroke-width: 1.25; stroke-linejoin: miter"/>
   </g>
   <g id="line2d_9">
    <path d="M 90.426539 234.278189 
L 90.426539 145.635799 
" clip-path="url(#pdb5f9f90e9)" style="fill: none; stroke: #3f3f3f; stroke-width: 1.875; stroke-linecap: round"/>
   </g>
   <g id="line2d_10">
    <path d="M 90.426539 218.276585 
L 90.426539 173.559111 
" clip-path="url(#pdb5f9f90e9)" style="fill: none; stroke: #3f3f3f; stroke-width: 5.625; stroke-linecap: round"/>
   </g>
   <g id="line2d_11">
    <path d="M 90.426539 198.236401 
" clip-path="url(#pdb5f9f90e9)" style="fill: none; stroke: #3f3f3f; stroke-width: 1.5; stroke-linecap: round"/>
    <defs>
     <path id="mbfbac42f4b" d="M 2.34375 0 
L -2.34375 -0 
" style="stroke: #ffffff; stroke-width: 1.125"/>
    </defs>
    <g clip-path="url(#pdb5f9f90e9)">
     <use xlink:href="#mbfbac42f4b" x="90.426539" y="198.236401" style="fill: #ffffff; stroke: #ffffff; stroke-width: 1.125"/>
    </g>
   </g>
   <g id="line2d_12">
    <path d="M 152.869824 255.853882 
L 152.869824 119.835717 
" clip-path="url(#pdb5f9f90e9)" style="fill: none; stroke: #3f3f3f; stroke-width: 1.875; stroke-linecap: round"/>
   </g>
   <g id="line2d_13">
    <path d="M 152.869824 212.334212 
L 152.869824 175.037705 
" clip-path="url(#pdb5f9f90e9)" style="fill: none; stroke: #3f3f3f; stroke-width: 5.625; stroke-linecap: round"/>
   </g>
   <g id="line2d_14">
    <path d="M 152.869824 189.709798 
" clip-path="url(#pdb5f9f90e9)" style="fill: none; stroke: #3f3f3f; stroke-width: 1.5; stroke-linecap: round"/>
    <g clip-path="url(#pdb5f9f90e9)">
     <use xlink:href="#mbfbac42f4b" x="152.869824" y="189.709798" style="fill: #ffffff; stroke: #ffffff; stroke-width: 1.125"/>
    </g>
   </g>
   <g id="line2d_15">
    <path d="M 246.534751 253.795782 
L 246.534751 75.044218 
" clip-path="url(#pdb5f9f90e9)" style="fill: none; stroke: #3f3f3f; stroke-width: 1.875; stroke-linecap: round"/>
   </g>
   <g id="line2d_16">
    <path d="M 246.534751 196.204746 
L 246.534751 113.731088 
" clip-path="url(#pdb5f9f90e9)" style="fill: none; stroke: #3f3f3f; stroke-width: 5.625; stroke-linecap: round"/>
   </g>
   <g id="line2d_17">
    <path d="M 246.534751 162.520228 
" clip-path="url(#pdb5f9f90e9)" style="fill: none; stroke: #3f3f3f; stroke-width: 1.5; stroke-linecap: round"/>
    <g clip-path="url(#pdb5f9f90e9)">
     <use xlink:href="#mbfbac42f4b" x="246.534751" y="162.520228" style="fill: #ffffff; stroke: #ffffff; stroke-width: 1.125"/>
    </g>
   </g>
   <g id="line2d_18">
    <path d="M 308.978036 234.487872 
L 308.978036 120.55283 
" clip-path="url(#pdb5f9f90e9)" style="fill: none; stroke: #3f3f3f; stroke-width: 1.875; stroke-linecap: round"/>
   </g>
   <g id="line2d_19">
    <path d="M 308.978036 211.311033 
L 308.978036 162.089988 
" clip-path="url(#pdb5f9f90e9)" style="fill: none; stroke: #3f3f3f; stroke-width: 5.625; stroke-linecap: round"/>
   </g>
   <g id="line2d_20">
    <path d="M 308.978036 186.81914 
" clip-path="url(#pdb5f9f90e9)" style="fill: none; stroke: #3f3f3f; stroke-width: 1.5; stroke-linecap: round"/>
    <g clip-path="url(#pdb5f9f90e9)">
     <use xlink:href="#mbfbac42f4b" x="308.978036" y="186.81914" style="fill: #ffffff; stroke: #ffffff; stroke-width: 1.125"/>
    </g>
   </g>
   <g id="patch_5">
    <path d="M 43.594075 318.04 
L 43.594075 10.8 
" style="fill: none; stroke: #cccccc; stroke-width: 0.8; stroke-linejoin: miter; stroke-linecap: square"/>
   </g>
   <g id="patch_6">
    <path d="M 43.594075 318.04 
L 355.8105 318.04 
" style="fill: none; stroke: #cccccc; stroke-width: 0.8; stroke-linejoin: miter; stroke-linecap: square"/>
   </g>
  </g>
  <g id="legend_1">
   <g id="text_13">
    <!-- Time -->
    <g style="fill: #262626" transform="translate(373.633594 168.439844) scale(0.1 -0.1)">
     <use xlink:href="#ArialMT-54"/>
     <use xlink:href="#ArialMT-69" x="57.333984"/>
     <use xlink:href="#ArialMT-6d" x="79.550781"/>
     <use xlink:href="#ArialMT-65" x="162.851562"/>
    </g>
   </g>
   <g id="patch_7">
    <path d="M 359.1625 182.585156 
L 379.1625 182.585156 
L 379.1625 175.585156 
L 359.1625 175.585156 
z
" style="fill: #3274a1; stroke: #3f3f3f; stroke-width: 1.25; stroke-linejoin: miter"/>
   </g>
   <g id="text_14">
    <!-- initial -->
    <g style="fill: #262626" transform="translate(387.1625 182.585156) scale(0.1 -0.1)">
     <use xlink:href="#ArialMT-69"/>
     <use xlink:href="#ArialMT-6e" x="22.216797"/>
     <use xlink:href="#ArialMT-69" x="77.832031"/>
     <use xlink:href="#ArialMT-74" x="100.048828"/>
     <use xlink:href="#ArialMT-69" x="127.832031"/>
     <use xlink:href="#ArialMT-61" x="150.048828"/>
     <use xlink:href="#ArialMT-6c" x="205.664062"/>
    </g>
   </g>
   <g id="patch_8">
    <path d="M 359.1625 196.730469 
L 379.1625 196.730469 
L 379.1625 189.730469 
L 359.1625 189.730469 
z
" style="fill: #e1812c; stroke: #3f3f3f; stroke-width: 1.25; stroke-linejoin: miter"/>
   </g>
   <g id="text_15">
    <!-- final -->
    <g style="fill: #262626" transform="translate(387.1625 196.730469) scale(0.1 -0.1)">
     <use xlink:href="#ArialMT-66"/>
     <use xlink:href="#ArialMT-69" x="27.783203"/>
     <use xlink:href="#ArialMT-6e" x="50"/>
     <use xlink:href="#ArialMT-61" x="105.615234"/>
     <use xlink:href="#ArialMT-6c" x="161.230469"/>
    </g>
   </g>
  </g>
 </g>
 <defs>
  <clipPath id="pdb5f9f90e9">
   <rect x="43.594075" y="10.8" width="312.216425" height="307.24"/>
  </clipPath>
 </defs>
</svg>
