<?xml version="1.0" encoding="utf-8" standalone="no"?>
<!DOCTYPE svg PUBLIC "-//W3C//DTD SVG 1.1//EN"
  "http://www.w3.org/Graphics/SVG/1.1/DTD/svg11.dtd">
<svg xmlns:xlink="http://www.w3.org/1999/xlink" width="418.95pt" height="360pt" viewBox="0 0 418.95 360" xmlns="http://www.w3.org/2000/svg" version="1.1">
 <metadata>
  <rdf:RDF xmlns:dc="http://purl.org/dc/elements/1.1/" xmlns:cc="http://creativecommons.org/ns#" xmlns:rdf="http://www.w3.org/1999/02/22-rdf-syntax-ns#">
   <cc:Work>
    <dc:type rdf:resource="http://purl.org/dc/dcmitype/StillImage"/>
    <dc:date>2024-09-10T22:07:16.177103</dc:date>
    <dc:format>image/svg+xml</dc:format>
    <dc:creator>
     <cc:Agent>
      <dc:title>Matplotlib v3.8.3, https://matplotlib.org/</dc:title>
     </cc:Agent>
    </dc:creator>
   </cc:Work>
  </rdf:RDF>
 </metadata>
 <defs>
  <style type="text/css">*{stroke-linejoin: round; stroke-linecap: butt}</style>
 </defs>
 <g id="figure_1">
  <g id="patch_1">
   <path d="M 0 360 
L 418.95 360 
L 418.95 0 
L 0 0 
z
" style="fill: #ffffff"/>
  </g>
  <g id="axes_1">
   <g id="patch_2">
    <path d="M 59.828387 318.04 
L 355.8105 318.04 
L 355.8105 10.8 
L 59.828387 10.8 
z
" style="fill: #ffffff"/>
   </g>
   <g id="matplotlib.axis_1">
    <g id="xtick_1">
     <g id="text_1">
      <!-- f -->
      <g style="fill: #262626" transform="translate(132.434853 332.197812) scale(0.1 -0.1)">
       <defs>
        <path id="ArialMT-66" d="M 556 0 
L 556 2881 
L 59 2881 
L 59 3319 
L 556 3319 
L 556 3672 
Q 556 4006 616 4169 
Q 697 4388 901 4523 
Q 1106 4659 1475 4659 
Q 1713 4659 2000 4603 
L 1916 4113 
Q 1741 4144 1584 4144 
Q 1328 4144 1222 4034 
Q 1116 3925 1116 3625 
L 1116 3319 
L 1763 3319 
L 1763 2881 
L 1116 2881 
L 1116 0 
L 556 0 
z
" transform="scale(0.015625)"/>
       </defs>
       <use xlink:href="#ArialMT-66"/>
      </g>
     </g>
    </g>
    <g id="xtick_2">
     <g id="text_2">
      <!-- m -->
      <g style="fill: #262626" transform="translate(277.650128 332.197812) scale(0.1 -0.1)">
       <defs>
        <path id="ArialMT-6d" d="M 422 0 
L 422 3319 
L 925 3319 
L 925 2853 
Q 1081 3097 1340 3245 
Q 1600 3394 1931 3394 
Q 2300 3394 2536 3241 
Q 2772 3088 2869 2813 
Q 3263 3394 3894 3394 
Q 4388 3394 4653 3120 
Q 4919 2847 4919 2278 
L 4919 0 
L 4359 0 
L 4359 2091 
Q 4359 2428 4304 2576 
Q 4250 2725 4106 2815 
Q 3963 2906 3769 2906 
Q 3419 2906 3187 2673 
Q 2956 2441 2956 1928 
L 2956 0 
L 2394 0 
L 2394 2156 
Q 2394 2531 2256 2718 
Q 2119 2906 1806 2906 
Q 1569 2906 1367 2781 
Q 1166 2656 1075 2415 
Q 984 2175 984 1722 
L 984 0 
L 422 0 
z
" transform="scale(0.015625)"/>
       </defs>
       <use xlink:href="#ArialMT-6d"/>
      </g>
     </g>
    </g>
    <g id="text_3">
     <!-- sex -->
     <g style="fill: #262626" transform="translate(200.038975 345.343125) scale(0.1 -0.1)">
      <defs>
       <path id="ArialMT-73" d="M 197 991 
L 753 1078 
Q 800 744 1014 566 
Q 1228 388 1613 388 
Q 2000 388 2187 545 
Q 2375 703 2375 916 
Q 2375 1106 2209 1216 
Q 2094 1291 1634 1406 
Q 1016 1563 777 1677 
Q 538 1791 414 1992 
Q 291 2194 291 2438 
Q 291 2659 392 2848 
Q 494 3038 669 3163 
Q 800 3259 1026 3326 
Q 1253 3394 1513 3394 
Q 1903 3394 2198 3281 
Q 2494 3169 2634 2976 
Q 2775 2784 2828 2463 
L 2278 2388 
Q 2241 2644 2061 2787 
Q 1881 2931 1553 2931 
Q 1166 2931 1000 2803 
Q 834 2675 834 2503 
Q 834 2394 903 2306 
Q 972 2216 1119 2156 
Q 1203 2125 1616 2013 
Q 2213 1853 2448 1751 
Q 2684 1650 2818 1456 
Q 2953 1263 2953 975 
Q 2953 694 2789 445 
Q 2625 197 2315 61 
Q 2006 -75 1616 -75 
Q 969 -75 630 194 
Q 291 463 197 991 
z
" transform="scale(0.015625)"/>
       <path id="ArialMT-65" d="M 2694 1069 
L 3275 997 
Q 3138 488 2766 206 
Q 2394 -75 1816 -75 
Q 1088 -75 661 373 
Q 234 822 234 1631 
Q 234 2469 665 2931 
Q 1097 3394 1784 3394 
Q 2450 3394 2872 2941 
Q 3294 2488 3294 1666 
Q 3294 1616 3291 1516 
L 816 1516 
Q 847 969 1125 678 
Q 1403 388 1819 388 
Q 2128 388 2347 550 
Q 2566 713 2694 1069 
z
M 847 1978 
L 2700 1978 
Q 2663 2397 2488 2606 
Q 2219 2931 1791 2931 
Q 1403 2931 1139 2672 
Q 875 2413 847 1978 
z
" transform="scale(0.015625)"/>
       <path id="ArialMT-78" d="M 47 0 
L 1259 1725 
L 138 3319 
L 841 3319 
L 1350 2541 
Q 1494 2319 1581 2169 
Q 1719 2375 1834 2534 
L 2394 3319 
L 3066 3319 
L 1919 1756 
L 3153 0 
L 2463 0 
L 1781 1031 
L 1600 1309 
L 728 0 
L 47 0 
z
" transform="scale(0.015625)"/>
      </defs>
      <use xlink:href="#ArialMT-73"/>
      <use xlink:href="#ArialMT-65" x="50"/>
      <use xlink:href="#ArialMT-78" x="105.615234"/>
     </g>
    </g>
   </g>
   <g id="matplotlib.axis_2">
    <g id="ytick_1">
     <g id="line2d_1">
      <path d="M 59.828387 295.738539 
L 355.8105 295.738539 
" clip-path="url(#p0580cf46a6)" style="fill: none; stroke: #cccccc; stroke-width: 0.8; stroke-linecap: round"/>
     </g>
     <g id="text_4">
      <!-- 0.25 -->
      <g style="fill: #262626" transform="translate(33.36745 299.317445) scale(0.1 -0.1)">
       <defs>
        <path id="ArialMT-30" d="M 266 2259 
Q 266 3072 433 3567 
Q 600 4063 929 4331 
Q 1259 4600 1759 4600 
Q 2128 4600 2406 4451 
Q 2684 4303 2865 4023 
Q 3047 3744 3150 3342 
Q 3253 2941 3253 2259 
Q 3253 1453 3087 958 
Q 2922 463 2592 192 
Q 2263 -78 1759 -78 
Q 1097 -78 719 397 
Q 266 969 266 2259 
z
M 844 2259 
Q 844 1131 1108 757 
Q 1372 384 1759 384 
Q 2147 384 2411 759 
Q 2675 1134 2675 2259 
Q 2675 3391 2411 3762 
Q 2147 4134 1753 4134 
Q 1366 4134 1134 3806 
Q 844 3388 844 2259 
z
" transform="scale(0.015625)"/>
        <path id="ArialMT-2e" d="M 581 0 
L 581 641 
L 1222 641 
L 1222 0 
L 581 0 
z
" transform="scale(0.015625)"/>
        <path id="ArialMT-32" d="M 3222 541 
L 3222 0 
L 194 0 
Q 188 203 259 391 
Q 375 700 629 1000 
Q 884 1300 1366 1694 
Q 2113 2306 2375 2664 
Q 2638 3022 2638 3341 
Q 2638 3675 2398 3904 
Q 2159 4134 1775 4134 
Q 1369 4134 1125 3890 
Q 881 3647 878 3216 
L 300 3275 
Q 359 3922 746 4261 
Q 1134 4600 1788 4600 
Q 2447 4600 2831 4234 
Q 3216 3869 3216 3328 
Q 3216 3053 3103 2787 
Q 2991 2522 2730 2228 
Q 2469 1934 1863 1422 
Q 1356 997 1212 845 
Q 1069 694 975 541 
L 3222 541 
z
" transform="scale(0.015625)"/>
        <path id="ArialMT-35" d="M 266 1200 
L 856 1250 
Q 922 819 1161 601 
Q 1400 384 1738 384 
Q 2144 384 2425 690 
Q 2706 997 2706 1503 
Q 2706 1984 2436 2262 
Q 2166 2541 1728 2541 
Q 1456 2541 1237 2417 
Q 1019 2294 894 2097 
L 366 2166 
L 809 4519 
L 3088 4519 
L 3088 3981 
L 1259 3981 
L 1013 2750 
Q 1425 3038 1878 3038 
Q 2478 3038 2890 2622 
Q 3303 2206 3303 1553 
Q 3303 931 2941 478 
Q 2500 -78 1738 -78 
Q 1113 -78 717 272 
Q 322 622 266 1200 
z
" transform="scale(0.015625)"/>
       </defs>
       <use xlink:href="#ArialMT-30"/>
       <use xlink:href="#ArialMT-2e" x="55.615234"/>
       <use xlink:href="#ArialMT-32" x="83.398438"/>
       <use xlink:href="#ArialMT-35" x="139.013672"/>
      </g>
     </g>
    </g>
    <g id="ytick_2">
     <g id="line2d_2">
      <path d="M 59.828387 259.011916 
L 355.8105 259.011916 
" clip-path="url(#p0580cf46a6)" style="fill: none; stroke: #cccccc; stroke-width: 0.8; stroke-linecap: round"/>
     </g>
     <g id="text_5">
      <!-- 0.50 -->
      <g style="fill: #262626" transform="translate(33.36745 262.590822) scale(0.1 -0.1)">
       <use xlink:href="#ArialMT-30"/>
       <use xlink:href="#ArialMT-2e" x="55.615234"/>
       <use xlink:href="#ArialMT-35" x="83.398438"/>
       <use xlink:href="#ArialMT-30" x="139.013672"/>
      </g>
     </g>
    </g>
    <g id="ytick_3">
     <g id="line2d_3">
      <path d="M 59.828387 222.285294 
L 355.8105 222.285294 
" clip-path="url(#p0580cf46a6)" style="fill: none; stroke: #cccccc; stroke-width: 0.8; stroke-linecap: round"/>
     </g>
     <g id="text_6">
      <!-- 0.75 -->
      <g style="fill: #262626" transform="translate(33.36745 225.8642) scale(0.1 -0.1)">
       <defs>
        <path id="ArialMT-37" d="M 303 3981 
L 303 4522 
L 3269 4522 
L 3269 4084 
Q 2831 3619 2401 2847 
Q 1972 2075 1738 1259 
Q 1569 684 1522 0 
L 944 0 
Q 953 541 1156 1306 
Q 1359 2072 1739 2783 
Q 2119 3494 2547 3981 
L 303 3981 
z
" transform="scale(0.015625)"/>
       </defs>
       <use xlink:href="#ArialMT-30"/>
       <use xlink:href="#ArialMT-2e" x="55.615234"/>
       <use xlink:href="#ArialMT-37" x="83.398438"/>
       <use xlink:href="#ArialMT-35" x="139.013672"/>
      </g>
     </g>
    </g>
    <g id="ytick_4">
     <g id="line2d_4">
      <path d="M 59.828387 185.558671 
L 355.8105 185.558671 
" clip-path="url(#p0580cf46a6)" style="fill: none; stroke: #cccccc; stroke-width: 0.8; stroke-linecap: round"/>
     </g>
     <g id="text_7">
      <!-- 1.00 -->
      <g style="fill: #262626" transform="translate(33.36745 189.137577) scale(0.1 -0.1)">
       <defs>
        <path id="ArialMT-31" d="M 2384 0 
L 1822 0 
L 1822 3584 
Q 1619 3391 1289 3197 
Q 959 3003 697 2906 
L 697 3450 
Q 1169 3672 1522 3987 
Q 1875 4303 2022 4600 
L 2384 4600 
L 2384 0 
z
" transform="scale(0.015625)"/>
       </defs>
       <use xlink:href="#ArialMT-31"/>
       <use xlink:href="#ArialMT-2e" x="55.615234"/>
       <use xlink:href="#ArialMT-30" x="83.398438"/>
       <use xlink:href="#ArialMT-30" x="139.013672"/>
      </g>
     </g>
    </g>
    <g id="ytick_5">
     <g id="line2d_5">
      <path d="M 59.828387 148.832049 
L 355.8105 148.832049 
" clip-path="url(#p0580cf46a6)" style="fill: none; stroke: #cccccc; stroke-width: 0.8; stroke-linecap: round"/>
     </g>
     <g id="text_8">
      <!-- 1.25 -->
      <g style="fill: #262626" transform="translate(33.36745 152.410955) scale(0.1 -0.1)">
       <use xlink:href="#ArialMT-31"/>
       <use xlink:href="#ArialMT-2e" x="55.615234"/>
       <use xlink:href="#ArialMT-32" x="83.398438"/>
       <use xlink:href="#ArialMT-35" x="139.013672"/>
      </g>
     </g>
    </g>
    <g id="ytick_6">
     <g id="line2d_6">
      <path d="M 59.828387 112.105426 
L 355.8105 112.105426 
" clip-path="url(#p0580cf46a6)" style="fill: none; stroke: #cccccc; stroke-width: 0.8; stroke-linecap: round"/>
     </g>
     <g id="text_9">
      <!-- 1.50 -->
      <g style="fill: #262626" transform="translate(33.36745 115.684332) scale(0.1 -0.1)">
       <use xlink:href="#ArialMT-31"/>
       <use xlink:href="#ArialMT-2e" x="55.615234"/>
       <use xlink:href="#ArialMT-35" x="83.398438"/>
       <use xlink:href="#ArialMT-30" x="139.013672"/>
      </g>
     </g>
    </g>
    <g id="ytick_7">
     <g id="line2d_7">
      <path d="M 59.828387 75.378804 
L 355.8105 75.378804 
" clip-path="url(#p0580cf46a6)" style="fill: none; stroke: #cccccc; stroke-width: 0.8; stroke-linecap: round"/>
     </g>
     <g id="text_10">
      <!-- 1.75 -->
      <g style="fill: #262626" transform="translate(33.36745 78.95771) scale(0.1 -0.1)">
       <use xlink:href="#ArialMT-31"/>
       <use xlink:href="#ArialMT-2e" x="55.615234"/>
       <use xlink:href="#ArialMT-37" x="83.398438"/>
       <use xlink:href="#ArialMT-35" x="139.013672"/>
      </g>
     </g>
    </g>
    <g id="ytick_8">
     <g id="line2d_8">
      <path d="M 59.828387 38.652181 
L 355.8105 38.652181 
" clip-path="url(#p0580cf46a6)" style="fill: none; stroke: #cccccc; stroke-width: 0.8; stroke-linecap: round"/>
     </g>
     <g id="text_11">
      <!-- 2.00 -->
      <g style="fill: #262626" transform="translate(33.36745 42.231087) scale(0.1 -0.1)">
       <use xlink:href="#ArialMT-32"/>
       <use xlink:href="#ArialMT-2e" x="55.615234"/>
       <use xlink:href="#ArialMT-30" x="83.398438"/>
       <use xlink:href="#ArialMT-30" x="139.013672"/>
      </g>
     </g>
    </g>
    <g id="text_12">
     <!-- O2 intake (l/min) -->
     <g style="fill: #262626" transform="translate(27.262762 201.095) rotate(-90) scale(0.1 -0.1)">
      <defs>
       <path id="ArialMT-4f" d="M 309 2231 
Q 309 3372 921 4017 
Q 1534 4663 2503 4663 
Q 3138 4663 3647 4359 
Q 4156 4056 4423 3514 
Q 4691 2972 4691 2284 
Q 4691 1588 4409 1038 
Q 4128 488 3612 205 
Q 3097 -78 2500 -78 
Q 1853 -78 1343 234 
Q 834 547 571 1087 
Q 309 1628 309 2231 
z
M 934 2222 
Q 934 1394 1379 917 
Q 1825 441 2497 441 
Q 3181 441 3623 922 
Q 4066 1403 4066 2288 
Q 4066 2847 3877 3264 
Q 3688 3681 3323 3911 
Q 2959 4141 2506 4141 
Q 1863 4141 1398 3698 
Q 934 3256 934 2222 
z
" transform="scale(0.015625)"/>
       <path id="ArialMT-20" transform="scale(0.015625)"/>
       <path id="ArialMT-69" d="M 425 3934 
L 425 4581 
L 988 4581 
L 988 3934 
L 425 3934 
z
M 425 0 
L 425 3319 
L 988 3319 
L 988 0 
L 425 0 
z
" transform="scale(0.015625)"/>
       <path id="ArialMT-6e" d="M 422 0 
L 422 3319 
L 928 3319 
L 928 2847 
Q 1294 3394 1984 3394 
Q 2284 3394 2536 3286 
Q 2788 3178 2913 3003 
Q 3038 2828 3088 2588 
Q 3119 2431 3119 2041 
L 3119 0 
L 2556 0 
L 2556 2019 
Q 2556 2363 2490 2533 
Q 2425 2703 2258 2804 
Q 2091 2906 1866 2906 
Q 1506 2906 1245 2678 
Q 984 2450 984 1813 
L 984 0 
L 422 0 
z
" transform="scale(0.015625)"/>
       <path id="ArialMT-74" d="M 1650 503 
L 1731 6 
Q 1494 -44 1306 -44 
Q 1000 -44 831 53 
Q 663 150 594 308 
Q 525 466 525 972 
L 525 2881 
L 113 2881 
L 113 3319 
L 525 3319 
L 525 4141 
L 1084 4478 
L 1084 3319 
L 1650 3319 
L 1650 2881 
L 1084 2881 
L 1084 941 
Q 1084 700 1114 631 
Q 1144 563 1211 522 
Q 1278 481 1403 481 
Q 1497 481 1650 503 
z
" transform="scale(0.015625)"/>
       <path id="ArialMT-61" d="M 2588 409 
Q 2275 144 1986 34 
Q 1697 -75 1366 -75 
Q 819 -75 525 192 
Q 231 459 231 875 
Q 231 1119 342 1320 
Q 453 1522 633 1644 
Q 813 1766 1038 1828 
Q 1203 1872 1538 1913 
Q 2219 1994 2541 2106 
Q 2544 2222 2544 2253 
Q 2544 2597 2384 2738 
Q 2169 2928 1744 2928 
Q 1347 2928 1158 2789 
Q 969 2650 878 2297 
L 328 2372 
Q 403 2725 575 2942 
Q 747 3159 1072 3276 
Q 1397 3394 1825 3394 
Q 2250 3394 2515 3294 
Q 2781 3194 2906 3042 
Q 3031 2891 3081 2659 
Q 3109 2516 3109 2141 
L 3109 1391 
Q 3109 606 3145 398 
Q 3181 191 3288 0 
L 2700 0 
Q 2613 175 2588 409 
z
M 2541 1666 
Q 2234 1541 1622 1453 
Q 1275 1403 1131 1340 
Q 988 1278 909 1158 
Q 831 1038 831 891 
Q 831 666 1001 516 
Q 1172 366 1500 366 
Q 1825 366 2078 508 
Q 2331 650 2450 897 
Q 2541 1088 2541 1459 
L 2541 1666 
z
" transform="scale(0.015625)"/>
       <path id="ArialMT-6b" d="M 425 0 
L 425 4581 
L 988 4581 
L 988 1969 
L 2319 3319 
L 3047 3319 
L 1778 2088 
L 3175 0 
L 2481 0 
L 1384 1697 
L 988 1316 
L 988 0 
L 425 0 
z
" transform="scale(0.015625)"/>
       <path id="ArialMT-28" d="M 1497 -1347 
Q 1031 -759 709 28 
Q 388 816 388 1659 
Q 388 2403 628 3084 
Q 909 3875 1497 4659 
L 1900 4659 
Q 1522 4009 1400 3731 
Q 1209 3300 1100 2831 
Q 966 2247 966 1656 
Q 966 153 1900 -1347 
L 1497 -1347 
z
" transform="scale(0.015625)"/>
       <path id="ArialMT-6c" d="M 409 0 
L 409 4581 
L 972 4581 
L 972 0 
L 409 0 
z
" transform="scale(0.015625)"/>
       <path id="ArialMT-2f" d="M 0 -78 
L 1328 4659 
L 1778 4659 
L 453 -78 
L 0 -78 
z
" transform="scale(0.015625)"/>
       <path id="ArialMT-29" d="M 791 -1347 
L 388 -1347 
Q 1322 153 1322 1656 
Q 1322 2244 1188 2822 
Q 1081 3291 891 3722 
Q 769 4003 388 4659 
L 791 4659 
Q 1378 3875 1659 3084 
Q 1900 2403 1900 1659 
Q 1900 816 1576 28 
Q 1253 -759 791 -1347 
z
" transform="scale(0.015625)"/>
      </defs>
      <use xlink:href="#ArialMT-4f"/>
      <use xlink:href="#ArialMT-32" x="77.783203"/>
      <use xlink:href="#ArialMT-20" x="133.398438"/>
      <use xlink:href="#ArialMT-69" x="161.181641"/>
      <use xlink:href="#ArialMT-6e" x="183.398438"/>
      <use xlink:href="#ArialMT-74" x="239.013672"/>
      <use xlink:href="#ArialMT-61" x="266.796875"/>
      <use xlink:href="#ArialMT-6b" x="322.412109"/>
      <use xlink:href="#ArialMT-65" x="372.412109"/>
      <use xlink:href="#ArialMT-20" x="428.027344"/>
      <use xlink:href="#ArialMT-28" x="455.810547"/>
      <use xlink:href="#ArialMT-6c" x="489.111328"/>
      <use xlink:href="#ArialMT-2f" x="511.328125"/>
      <use xlink:href="#ArialMT-6d" x="539.111328"/>
      <use xlink:href="#ArialMT-69" x="622.412109"/>
      <use xlink:href="#ArialMT-6e" x="644.628906"/>
      <use xlink:href="#ArialMT-29" x="700.244141"/>
     </g>
    </g>
   </g>
   <g id="PolyCollection_1">
    <defs>
     <path id="m91cba0c116" d="M 104.711396 -78.049891 
L 103.740013 -78.049891 
L 103.616072 -79.999777 
L 103.469376 -81.949664 
L 103.298069 -83.89955 
L 103.100651 -85.849436 
L 102.876065 -87.799323 
L 102.623751 -89.749209 
L 102.343668 -91.699095 
L 102.036272 -93.648982 
L 101.702438 -95.598868 
L 101.343348 -97.548755 
L 100.960329 -99.498641 
L 100.554668 -101.448527 
L 100.127427 -103.398414 
L 99.679262 -105.3483 
L 99.210289 -107.298186 
L 98.719992 -109.248073 
L 98.20722 -111.197959 
L 97.670244 -113.147845 
L 97.106896 -115.097732 
L 96.514772 -117.047618 
L 95.891472 -118.997505 
L 95.234854 -120.947391 
L 94.543273 -122.897277 
L 93.815775 -124.847164 
L 93.052222 -126.79705 
L 92.253342 -128.746936 
L 91.42069 -130.696823 
L 90.556544 -132.646709 
L 89.663753 -134.596595 
L 88.745568 -136.546482 
L 87.805493 -138.496368 
L 86.847185 -140.446255 
L 85.874445 -142.396141 
L 84.891291 -144.346027 
L 83.902141 -146.295914 
L 82.912067 -148.2458 
L 81.927114 -150.195686 
L 80.954612 -152.145573 
L 80.00346 -154.095459 
L 79.084316 -156.045345 
L 78.209648 -157.995232 
L 77.393622 -159.945118 
L 76.651805 -161.895005 
L 76.000691 -163.844891 
L 75.457068 -165.794777 
L 75.037277 -167.744664 
L 74.756407 -169.69455 
L 74.627493 -171.644436 
L 74.660783 -173.594323 
L 74.863117 -175.544209 
L 75.237475 -177.494095 
L 75.78271 -179.443982 
L 76.493487 -181.393868 
L 77.360413 -183.343755 
L 78.37034 -185.293641 
L 79.506813 -187.243527 
L 80.750629 -189.193414 
L 82.08046 -191.1433 
L 83.473519 -193.093186 
L 84.906238 -195.043073 
L 86.354929 -196.992959 
L 87.796423 -198.942845 
L 89.208674 -200.892732 
L 90.571314 -202.842618 
L 91.866164 -204.792505 
L 93.07768 -206.742391 
L 94.193328 -208.692277 
L 95.203879 -210.642164 
L 96.103597 -212.59205 
L 96.890318 -214.541936 
L 97.565393 -216.491823 
L 98.133502 -218.441709 
L 98.602326 -220.391595 
L 98.982097 -222.341482 
L 99.285038 -224.291368 
L 99.524711 -226.241255 
L 99.715333 -228.191141 
L 99.871072 -230.141027 
L 100.005381 -232.090914 
L 100.130405 -234.0408 
L 100.256498 -235.990686 
L 100.391873 -237.940573 
L 100.542402 -239.890459 
L 100.711573 -241.840345 
L 100.900594 -243.790232 
L 101.108629 -245.740118 
L 101.33313 -247.690005 
L 101.570246 -249.639891 
L 101.815257 -251.589777 
L 102.063014 -253.539664 
L 102.308346 -255.48955 
L 102.546404 -257.439436 
L 102.772934 -259.389323 
L 102.984472 -261.339209 
L 103.178444 -263.289095 
L 103.353195 -265.238982 
L 103.507952 -267.188868 
L 103.64273 -269.138755 
L 103.758204 -271.088641 
L 104.693204 -271.088641 
L 104.693204 -271.088641 
L 104.808679 -269.138755 
L 104.943456 -267.188868 
L 105.098214 -265.238982 
L 105.272965 -263.289095 
L 105.466937 -261.339209 
L 105.678475 -259.389323 
L 105.905005 -257.439436 
L 106.143063 -255.48955 
L 106.388395 -253.539664 
L 106.636152 -251.589777 
L 106.881163 -249.639891 
L 107.118279 -247.690005 
L 107.34278 -245.740118 
L 107.550815 -243.790232 
L 107.739836 -241.840345 
L 107.909007 -239.890459 
L 108.059535 -237.940573 
L 108.19491 -235.990686 
L 108.321004 -234.0408 
L 108.446028 -232.090914 
L 108.580336 -230.141027 
L 108.736075 -228.191141 
L 108.926698 -226.241255 
L 109.166371 -224.291368 
L 109.469311 -222.341482 
L 109.849083 -220.391595 
L 110.317907 -218.441709 
L 110.886015 -216.491823 
L 111.56109 -214.541936 
L 112.347811 -212.59205 
L 113.24753 -210.642164 
L 114.258081 -208.692277 
L 115.373729 -206.742391 
L 116.585244 -204.792505 
L 117.880094 -202.842618 
L 119.242735 -200.892732 
L 120.654985 -198.942845 
L 122.09648 -196.992959 
L 123.54517 -195.043073 
L 124.97789 -193.093186 
L 126.370949 -191.1433 
L 127.70078 -189.193414 
L 128.944596 -187.243527 
L 130.081069 -185.293641 
L 131.090996 -183.343755 
L 131.957922 -181.393868 
L 132.668699 -179.443982 
L 133.213934 -177.494095 
L 133.588292 -175.544209 
L 133.790626 -173.594323 
L 133.823916 -171.644436 
L 133.695002 -169.69455 
L 133.414132 -167.744664 
L 132.994341 -165.794777 
L 132.450718 -163.844891 
L 131.799604 -161.895005 
L 131.057787 -159.945118 
L 130.24176 -157.995232 
L 129.367092 -156.045345 
L 128.447948 -154.095459 
L 127.496797 -152.145573 
L 126.524295 -150.195686 
L 125.539341 -148.2458 
L 124.549268 -146.295914 
L 123.560117 -144.346027 
L 122.576964 -142.396141 
L 121.604223 -140.446255 
L 120.645916 -138.496368 
L 119.70584 -136.546482 
L 118.787656 -134.596595 
L 117.894865 -132.646709 
L 117.030719 -130.696823 
L 116.198066 -128.746936 
L 115.399186 -126.79705 
L 114.635634 -124.847164 
L 113.908136 -122.897277 
L 113.216555 -120.947391 
L 112.559937 -118.997505 
L 111.936637 -117.047618 
L 111.344513 -115.097732 
L 110.781165 -113.147845 
L 110.244188 -111.197959 
L 109.731416 -109.248073 
L 109.24112 -107.298186 
L 108.772146 -105.3483 
L 108.323982 -103.398414 
L 107.896741 -101.448527 
L 107.49108 -99.498641 
L 107.108061 -97.548755 
L 106.748971 -95.598868 
L 106.415137 -93.648982 
L 106.10774 -91.699095 
L 105.827658 -89.749209 
L 105.575343 -87.799323 
L 105.350757 -85.849436 
L 105.15334 -83.89955 
L 104.982033 -81.949664 
L 104.835337 -79.999777 
L 104.711396 -78.049891 
z
" style="stroke: #3f3f3f; stroke-width: 1.25"/>
    </defs>
    <g clip-path="url(#p0580cf46a6)">
     <use xlink:href="#m91cba0c116" x="0" y="360" style="fill: #3274a1; stroke: #3f3f3f; stroke-width: 1.25"/>
    </g>
   </g>
   <g id="PolyCollection_2">
    <defs>
     <path id="m1c368745e7" d="M 163.968556 -72.271503 
L 162.875698 -72.271503 
L 162.733696 -74.498249 
L 162.563272 -76.724994 
L 162.360989 -78.95174 
L 162.123512 -81.178485 
L 161.847732 -83.405231 
L 161.530893 -85.631977 
L 161.170721 -87.858722 
L 160.765542 -90.085468 
L 160.314384 -92.312213 
L 159.817052 -94.538959 
L 159.274165 -96.765704 
L 158.687162 -98.99245 
L 158.058259 -101.219196 
L 157.390363 -103.445941 
L 156.686948 -105.672687 
L 155.951894 -107.899432 
L 155.189299 -110.126178 
L 154.403286 -112.352924 
L 153.5978 -114.579669 
L 152.776437 -116.806415 
L 151.942298 -119.03316 
L 151.097909 -121.259906 
L 150.245191 -123.486652 
L 149.385529 -125.713397 
L 148.519903 -127.940143 
L 147.649119 -130.166888 
L 146.774098 -132.393634 
L 145.896232 -134.620379 
L 145.01776 -136.847125 
L 144.142151 -139.073871 
L 143.274439 -141.300616 
L 142.421495 -143.527362 
L 141.592171 -145.754107 
L 140.797308 -147.980853 
L 140.049576 -150.207599 
L 139.363135 -152.434344 
L 138.753126 -154.66109 
L 138.235008 -156.887835 
L 137.823786 -159.114581 
L 137.533172 -161.341327 
L 137.374737 -163.568072 
L 137.357135 -165.794818 
L 137.485437 -168.021563 
L 137.760659 -170.248309 
L 138.179504 -172.475054 
L 138.734372 -174.7018 
L 139.413616 -176.928546 
L 140.202055 -179.155291 
L 141.081695 -181.382037 
L 142.032614 -183.608782 
L 143.033935 -185.835528 
L 144.064827 -188.062274 
L 145.105457 -190.289019 
L 146.13781 -192.515765 
L 147.146358 -194.74251 
L 148.118498 -196.969256 
L 149.04477 -199.196002 
L 149.918852 -201.422747 
L 150.737337 -203.649493 
L 151.499358 -205.876238 
L 152.206092 -208.102984 
L 152.860195 -210.329729 
L 153.465253 -212.556475 
L 154.025264 -214.783221 
L 154.544222 -217.009966 
L 155.025813 -219.236712 
L 155.47324 -221.463457 
L 155.889174 -223.690203 
L 156.275814 -225.916949 
L 156.635026 -228.143694 
L 156.968529 -230.37044 
L 157.278088 -232.597185 
L 157.565691 -234.823931 
L 157.833662 -237.050677 
L 158.084724 -239.277422 
L 158.321967 -241.504168 
L 158.548757 -243.730913 
L 158.768577 -245.957659 
L 158.984833 -248.184404 
L 159.200637 -250.41115 
L 159.418603 -252.637896 
L 159.640674 -254.864641 
L 159.867999 -257.091387 
L 160.100871 -259.318132 
L 160.338729 -261.544878 
L 160.580234 -263.771624 
L 160.823393 -265.998369 
L 161.065723 -268.225115 
L 161.304446 -270.45186 
L 161.536691 -272.678606 
L 161.75968 -274.905351 
L 161.970897 -277.132097 
L 162.168221 -279.358843 
L 162.350015 -281.585588 
L 162.515179 -283.812334 
L 162.663154 -286.039079 
L 162.793899 -288.265825 
L 162.907836 -290.492571 
L 163.005772 -292.719316 
L 163.838482 -292.719316 
L 163.838482 -292.719316 
L 163.936418 -290.492571 
L 164.050355 -288.265825 
L 164.1811 -286.039079 
L 164.329075 -283.812334 
L 164.494238 -281.585588 
L 164.676033 -279.358843 
L 164.873356 -277.132097 
L 165.084574 -274.905351 
L 165.307563 -272.678606 
L 165.539808 -270.45186 
L 165.778531 -268.225115 
L 166.020861 -265.998369 
L 166.264019 -263.771624 
L 166.505525 -261.544878 
L 166.743383 -259.318132 
L 166.976254 -257.091387 
L 167.20358 -254.864641 
L 167.425651 -252.637896 
L 167.643617 -250.41115 
L 167.859421 -248.184404 
L 168.075677 -245.957659 
L 168.295497 -243.730913 
L 168.522287 -241.504168 
L 168.75953 -239.277422 
L 169.010591 -237.050677 
L 169.278563 -234.823931 
L 169.566165 -232.597185 
L 169.875725 -230.37044 
L 170.209228 -228.143694 
L 170.56844 -225.916949 
L 170.95508 -223.690203 
L 171.371014 -221.463457 
L 171.818441 -219.236712 
L 172.300032 -217.009966 
L 172.81899 -214.783221 
L 173.379001 -212.556475 
L 173.984059 -210.329729 
L 174.638162 -208.102984 
L 175.344895 -205.876238 
L 176.106917 -203.649493 
L 176.925402 -201.422747 
L 177.799483 -199.196002 
L 178.725756 -196.969256 
L 179.697895 -194.74251 
L 180.706443 -192.515765 
L 181.738797 -190.289019 
L 182.779426 -188.062274 
L 183.810319 -185.835528 
L 184.81164 -183.608782 
L 185.762558 -181.382037 
L 186.642199 -179.155291 
L 187.430637 -176.928546 
L 188.109881 -174.7018 
L 188.664749 -172.475054 
L 189.083595 -170.248309 
L 189.358816 -168.021563 
L 189.487119 -165.794818 
L 189.469516 -163.568072 
L 189.311082 -161.341327 
L 189.020468 -159.114581 
L 188.609246 -156.887835 
L 188.091128 -154.66109 
L 187.481119 -152.434344 
L 186.794678 -150.207599 
L 186.046946 -147.980853 
L 185.252083 -145.754107 
L 184.422758 -143.527362 
L 183.569814 -141.300616 
L 182.702103 -139.073871 
L 181.826493 -136.847125 
L 180.948022 -134.620379 
L 180.070156 -132.393634 
L 179.195135 -130.166888 
L 178.324351 -127.940143 
L 177.458725 -125.713397 
L 176.599063 -123.486652 
L 175.746345 -121.259906 
L 174.901955 -119.03316 
L 174.067817 -116.806415 
L 173.246454 -114.579669 
L 172.440968 -112.352924 
L 171.654954 -110.126178 
L 170.89236 -107.899432 
L 170.157306 -105.672687 
L 169.453891 -103.445941 
L 168.785995 -101.219196 
L 168.157092 -98.99245 
L 167.570089 -96.765704 
L 167.027202 -94.538959 
L 166.529869 -92.312213 
L 166.078712 -90.085468 
L 165.673533 -87.858722 
L 165.313361 -85.631977 
L 164.996521 -83.405231 
L 164.720741 -81.178485 
L 164.483265 -78.95174 
L 164.280982 -76.724994 
L 164.110557 -74.498249 
L 163.968556 -72.271503 
z
" style="stroke: #3f3f3f; stroke-width: 1.25"/>
    </defs>
    <g clip-path="url(#p0580cf46a6)">
     <use xlink:href="#m1c368745e7" x="0" y="360" style="fill: #e1812c; stroke: #3f3f3f; stroke-width: 1.25"/>
    </g>
   </g>
   <g id="PolyCollection_3">
    <defs>
     <path id="m774068ac67" d="M 252.445356 -55.925455 
L 251.988165 -55.925455 
L 251.924587 -58.746758 
L 251.848271 -61.568062 
L 251.758061 -64.389366 
L 251.65303 -67.21067 
L 251.532545 -70.031974 
L 251.396313 -72.853278 
L 251.244412 -75.674582 
L 251.077285 -78.495886 
L 250.895704 -81.31719 
L 250.700701 -84.138494 
L 250.493476 -86.959798 
L 250.275267 -89.781102 
L 250.04722 -92.602406 
L 249.810245 -95.42371 
L 249.564871 -98.245014 
L 249.311118 -101.066318 
L 249.048372 -103.887622 
L 248.775286 -106.708926 
L 248.489688 -109.53023 
L 248.188517 -112.351534 
L 247.867781 -115.172837 
L 247.52255 -117.994141 
L 247.146997 -120.815445 
L 246.734514 -123.636749 
L 246.277904 -126.458053 
L 245.769694 -129.279357 
L 245.202551 -132.100661 
L 244.569835 -134.921965 
L 243.866233 -137.743269 
L 243.088472 -140.564573 
L 242.236043 -143.385877 
L 241.311866 -146.207181 
L 240.322828 -149.028485 
L 239.280116 -151.849789 
L 238.199274 -154.671093 
L 237.099954 -157.492397 
L 236.005332 -160.313701 
L 234.941211 -163.135005 
L 233.934866 -165.956309 
L 233.013698 -168.777612 
L 232.20381 -171.598916 
L 231.52861 -174.42022 
L 231.007553 -177.241524 
L 230.655117 -180.062828 
L 230.480096 -182.884132 
L 230.485245 -185.705436 
L 230.667285 -188.52674 
L 231.017268 -191.348044 
L 231.521221 -194.169348 
L 232.161023 -196.990652 
L 232.915424 -199.811956 
L 233.761121 -202.63326 
L 234.673823 -205.454564 
L 235.62923 -208.275868 
L 236.603901 -211.097172 
L 237.575966 -213.918476 
L 238.525701 -216.73978 
L 239.435951 -219.561084 
L 240.292433 -222.382388 
L 241.083933 -225.203691 
L 241.802412 -228.024995 
L 242.443037 -230.846299 
L 243.004129 -233.667603 
L 243.487041 -236.488907 
L 243.89594 -239.310211 
L 244.2375 -242.131515 
L 244.520494 -244.952819 
L 244.755297 -247.774123 
L 244.95332 -250.595427 
L 245.126391 -253.416731 
L 245.286134 -256.238035 
L 245.443377 -259.059339 
L 245.60764 -261.880643 
L 245.786726 -264.701947 
L 245.986451 -267.523251 
L 246.210526 -270.344555 
L 246.460569 -273.165859 
L 246.736266 -275.987163 
L 247.035614 -278.808466 
L 247.355246 -281.62977 
L 247.690788 -284.451074 
L 248.03722 -287.272378 
L 248.38921 -290.093682 
L 248.741416 -292.914986 
L 249.088726 -295.73629 
L 249.426449 -298.557594 
L 249.750456 -301.378898 
L 250.057264 -304.200202 
L 250.344091 -307.021506 
L 250.60887 -309.84281 
L 250.85024 -312.664114 
L 251.067514 -315.485418 
L 251.260629 -318.306722 
L 251.430078 -321.128026 
L 251.576836 -323.94933 
L 251.702268 -326.770634 
L 251.808038 -329.591938 
L 251.896014 -332.413242 
L 251.96818 -335.234545 
L 252.465341 -335.234545 
L 252.465341 -335.234545 
L 252.537507 -332.413242 
L 252.625483 -329.591938 
L 252.731253 -326.770634 
L 252.856685 -323.94933 
L 253.003443 -321.128026 
L 253.172892 -318.306722 
L 253.366007 -315.485418 
L 253.583281 -312.664114 
L 253.824652 -309.84281 
L 254.089431 -307.021506 
L 254.376257 -304.200202 
L 254.683066 -301.378898 
L 255.007072 -298.557594 
L 255.344796 -295.73629 
L 255.692105 -292.914986 
L 256.044311 -290.093682 
L 256.396301 -287.272378 
L 256.742733 -284.451074 
L 257.078275 -281.62977 
L 257.397907 -278.808466 
L 257.697255 -275.987163 
L 257.972952 -273.165859 
L 258.222996 -270.344555 
L 258.44707 -267.523251 
L 258.646795 -264.701947 
L 258.825881 -261.880643 
L 258.990144 -259.059339 
L 259.147387 -256.238035 
L 259.30713 -253.416731 
L 259.480201 -250.595427 
L 259.678224 -247.774123 
L 259.913027 -244.952819 
L 260.196021 -242.131515 
L 260.537581 -239.310211 
L 260.94648 -236.488907 
L 261.429392 -233.667603 
L 261.990484 -230.846299 
L 262.631109 -228.024995 
L 263.349588 -225.203691 
L 264.141088 -222.382388 
L 264.99757 -219.561084 
L 265.907821 -216.73978 
L 266.857556 -213.918476 
L 267.829621 -211.097172 
L 268.804291 -208.275868 
L 269.759698 -205.454564 
L 270.6724 -202.63326 
L 271.518098 -199.811956 
L 272.272498 -196.990652 
L 272.9123 -194.169348 
L 273.416253 -191.348044 
L 273.766236 -188.52674 
L 273.948277 -185.705436 
L 273.953425 -182.884132 
L 273.778405 -180.062828 
L 273.425969 -177.241524 
L 272.904911 -174.42022 
L 272.229711 -171.598916 
L 271.419823 -168.777612 
L 270.498655 -165.956309 
L 269.49231 -163.135005 
L 268.42819 -160.313701 
L 267.333567 -157.492397 
L 266.234248 -154.671093 
L 265.153406 -151.849789 
L 264.110693 -149.028485 
L 263.121656 -146.207181 
L 262.197478 -143.385877 
L 261.345049 -140.564573 
L 260.567288 -137.743269 
L 259.863686 -134.921965 
L 259.23097 -132.100661 
L 258.663828 -129.279357 
L 258.155617 -126.458053 
L 257.699007 -123.636749 
L 257.286524 -120.815445 
L 256.910972 -117.994141 
L 256.56574 -115.172837 
L 256.245004 -112.351534 
L 255.943833 -109.53023 
L 255.658235 -106.708926 
L 255.385149 -103.887622 
L 255.122403 -101.066318 
L 254.86865 -98.245014 
L 254.623276 -95.42371 
L 254.386301 -92.602406 
L 254.158254 -89.781102 
L 253.940046 -86.959798 
L 253.73282 -84.138494 
L 253.537818 -81.31719 
L 253.356236 -78.495886 
L 253.189109 -75.674582 
L 253.037208 -72.853278 
L 252.900976 -70.031974 
L 252.780491 -67.21067 
L 252.67546 -64.389366 
L 252.58525 -61.568062 
L 252.508934 -58.746758 
L 252.445356 -55.925455 
z
" style="stroke: #3f3f3f; stroke-width: 1.25"/>
    </defs>
    <g clip-path="url(#p0580cf46a6)">
     <use xlink:href="#m774068ac67" x="0" y="360" style="fill: #3274a1; stroke: #3f3f3f; stroke-width: 1.25"/>
    </g>
   </g>
   <g id="PolyCollection_4">
    <defs>
     <path id="m5fab8930eb" d="M 311.93944 -88.502548 
L 310.886926 -88.502548 
L 310.723928 -90.453895 
L 310.520882 -92.405243 
L 310.271222 -94.35659 
L 309.968212 -96.307937 
L 309.605195 -98.259284 
L 309.175881 -100.210632 
L 308.674689 -102.161979 
L 308.097093 -104.113326 
L 307.43998 -106.064674 
L 306.701968 -108.016021 
L 305.883674 -109.967368 
L 304.987897 -111.918715 
L 304.019688 -113.870063 
L 302.986287 -115.82141 
L 301.896924 -117.772757 
L 300.762481 -119.724105 
L 299.595032 -121.675452 
L 298.407289 -123.626799 
L 297.211995 -125.578146 
L 296.021325 -127.529494 
L 294.84633 -129.480841 
L 293.69649 -131.432188 
L 292.579426 -133.383536 
L 291.500781 -135.334883 
L 290.464313 -137.28623 
L 289.472169 -139.237578 
L 288.525332 -141.188925 
L 287.62419 -143.140272 
L 286.769174 -145.091619 
L 285.9614 -147.042967 
L 285.203256 -148.994314 
L 284.498855 -150.945661 
L 283.854331 -152.897009 
L 283.277916 -154.848356 
L 282.779788 -156.799703 
L 282.371696 -158.75105 
L 282.066362 -160.702398 
L 281.876713 -162.653745 
L 281.814972 -164.605092 
L 281.891698 -166.55644 
L 282.114816 -168.507787 
L 282.488738 -170.459134 
L 283.01364 -172.410481 
L 283.684963 -174.361829 
L 284.493197 -176.313176 
L 285.42399 -178.264523 
L 286.458584 -180.215871 
L 287.574582 -182.167218 
L 288.746991 -184.118565 
L 289.949483 -186.069912 
L 291.155791 -188.02126 
L 292.34112 -189.972607 
L 293.483484 -191.923954 
L 294.564843 -193.875302 
L 295.57196 -195.826649 
L 296.496898 -197.777996 
L 297.33712 -199.729343 
L 298.095181 -201.680691 
L 298.778046 -203.632038 
L 299.396099 -205.583385 
L 299.961934 -207.534733 
L 300.489043 -209.48608 
L 300.990523 -211.437427 
L 301.477923 -213.388774 
L 301.960328 -215.340122 
L 302.443751 -217.291469 
L 302.930894 -219.242816 
L 303.421246 -221.194164 
L 303.911518 -223.145511 
L 304.396323 -225.096858 
L 304.869023 -227.048205 
L 305.32264 -228.999553 
L 305.750725 -230.9509 
L 306.1481 -232.902247 
L 306.5114 -234.853595 
L 306.839373 -236.804942 
L 307.13293 -238.756289 
L 307.394956 -240.707637 
L 307.629923 -242.658984 
L 307.843378 -244.610331 
L 308.041348 -246.561678 
L 308.229755 -248.513026 
L 308.413897 -250.464373 
L 308.598027 -252.41572 
L 308.78509 -254.367068 
L 308.976604 -256.318415 
L 309.17269 -258.269762 
L 309.372238 -260.221109 
L 309.573155 -262.172457 
L 309.772683 -264.123804 
L 309.967729 -266.075151 
L 310.155183 -268.026499 
L 310.332188 -269.977846 
L 310.496353 -271.929193 
L 310.645888 -273.88054 
L 310.779671 -275.831888 
L 310.897248 -277.783235 
L 310.998774 -279.734582 
L 311.084927 -281.68593 
L 311.74144 -281.68593 
L 311.74144 -281.68593 
L 311.827592 -279.734582 
L 311.929118 -277.783235 
L 312.046695 -275.831888 
L 312.180479 -273.88054 
L 312.330014 -271.929193 
L 312.494178 -269.977846 
L 312.671184 -268.026499 
L 312.858637 -266.075151 
L 313.053684 -264.123804 
L 313.253212 -262.172457 
L 313.454129 -260.221109 
L 313.653676 -258.269762 
L 313.849763 -256.318415 
L 314.041276 -254.367068 
L 314.228339 -252.41572 
L 314.412469 -250.464373 
L 314.596611 -248.513026 
L 314.785018 -246.561678 
L 314.982988 -244.610331 
L 315.196443 -242.658984 
L 315.431411 -240.707637 
L 315.693436 -238.756289 
L 315.986993 -236.804942 
L 316.314966 -234.853595 
L 316.678266 -232.902247 
L 317.075641 -230.9509 
L 317.503726 -228.999553 
L 317.957343 -227.048205 
L 318.430043 -225.096858 
L 318.914848 -223.145511 
L 319.405121 -221.194164 
L 319.895473 -219.242816 
L 320.382615 -217.291469 
L 320.866039 -215.340122 
L 321.348443 -213.388774 
L 321.835843 -211.437427 
L 322.337324 -209.48608 
L 322.864432 -207.534733 
L 323.430267 -205.583385 
L 324.04832 -203.632038 
L 324.731185 -201.680691 
L 325.489246 -199.729343 
L 326.329468 -197.777996 
L 327.254406 -195.826649 
L 328.261523 -193.875302 
L 329.342882 -191.923954 
L 330.485246 -189.972607 
L 331.670575 -188.02126 
L 332.876883 -186.069912 
L 334.079376 -184.118565 
L 335.251784 -182.167218 
L 336.367782 -180.215871 
L 337.402377 -178.264523 
L 338.333169 -176.313176 
L 339.141403 -174.361829 
L 339.812726 -172.410481 
L 340.337628 -170.459134 
L 340.711551 -168.507787 
L 340.934669 -166.55644 
L 341.011394 -164.605092 
L 340.949654 -162.653745 
L 340.760004 -160.702398 
L 340.45467 -158.75105 
L 340.046578 -156.799703 
L 339.54845 -154.848356 
L 338.972035 -152.897009 
L 338.327511 -150.945661 
L 337.623111 -148.994314 
L 336.864966 -147.042967 
L 336.057193 -145.091619 
L 335.202176 -143.140272 
L 334.301034 -141.188925 
L 333.354197 -139.237578 
L 332.362053 -137.28623 
L 331.325585 -135.334883 
L 330.24694 -133.383536 
L 329.129876 -131.432188 
L 327.980036 -129.480841 
L 326.805041 -127.529494 
L 325.614371 -125.578146 
L 324.419078 -123.626799 
L 323.231334 -121.675452 
L 322.063885 -119.724105 
L 320.929443 -117.772757 
L 319.840079 -115.82141 
L 318.806678 -113.870063 
L 317.838469 -111.918715 
L 316.942692 -109.967368 
L 316.124399 -108.016021 
L 315.386386 -106.064674 
L 314.729273 -104.113326 
L 314.151678 -102.161979 
L 313.650485 -100.210632 
L 313.221172 -98.259284 
L 312.858154 -96.307937 
L 312.555145 -94.35659 
L 312.305485 -92.405243 
L 312.102438 -90.453895 
L 311.93944 -88.502548 
z
" style="stroke: #3f3f3f; stroke-width: 1.25"/>
    </defs>
    <g clip-path="url(#p0580cf46a6)">
     <use xlink:href="#m5fab8930eb" x="0" y="360" style="fill: #e1812c; stroke: #3f3f3f; stroke-width: 1.25"/>
    </g>
   </g>
   <g id="patch_3">
    <path d="M 133.823916 332.465161 
L 133.823916 332.465161 
L 133.823916 332.465161 
L 133.823916 332.465161 
z
" clip-path="url(#p0580cf46a6)" style="fill: #3274a1; stroke: #3f3f3f; stroke-width: 1.25; stroke-linejoin: miter"/>
   </g>
   <g id="patch_4">
    <path d="M 133.823916 332.465161 
L 133.823916 332.465161 
L 133.823916 332.465161 
L 133.823916 332.465161 
z
" clip-path="url(#p0580cf46a6)" style="fill: #e1812c; stroke: #3f3f3f; stroke-width: 1.25; stroke-linejoin: miter"/>
   </g>
   <g id="line2d_9">
    <path d="M 104.225704 247.568649 
L 104.225704 163.786156 
" clip-path="url(#p0580cf46a6)" style="fill: none; stroke: #3f3f3f; stroke-width: 1.875; stroke-linecap: round"/>
   </g>
   <g id="line2d_10">
    <path d="M 104.225704 208.217415 
L 104.225704 178.056708 
" clip-path="url(#p0580cf46a6)" style="fill: none; stroke: #3f3f3f; stroke-width: 5.625; stroke-linecap: round"/>
   </g>
   <g id="line2d_11">
    <path d="M 104.225704 191.789775 
" clip-path="url(#p0580cf46a6)" style="fill: none; stroke: #3f3f3f; stroke-width: 1.5; stroke-linecap: round"/>
    <defs>
     <path id="mc8846a831f" d="M 2.34375 0 
L -2.34375 -0 
" style="stroke: #ffffff; stroke-width: 1.125"/>
    </defs>
    <g clip-path="url(#p0580cf46a6)">
     <use xlink:href="#mc8846a831f" x="104.225704" y="191.789775" style="fill: #ffffff; stroke: #ffffff; stroke-width: 1.125"/>
    </g>
   </g>
   <g id="line2d_12">
    <path d="M 163.422127 246.303266 
L 163.422127 143.768262 
" clip-path="url(#p0580cf46a6)" style="fill: none; stroke: #3f3f3f; stroke-width: 1.875; stroke-linecap: round"/>
   </g>
   <g id="line2d_13">
    <path d="M 163.422127 212.375126 
L 163.422127 179.376729 
" clip-path="url(#p0580cf46a6)" style="fill: none; stroke: #3f3f3f; stroke-width: 5.625; stroke-linecap: round"/>
   </g>
   <g id="line2d_14">
    <path d="M 163.422127 195.780577 
" clip-path="url(#p0580cf46a6)" style="fill: none; stroke: #3f3f3f; stroke-width: 1.5; stroke-linecap: round"/>
    <g clip-path="url(#p0580cf46a6)">
     <use xlink:href="#mc8846a831f" x="163.422127" y="195.780577" style="fill: #ffffff; stroke: #ffffff; stroke-width: 1.125"/>
    </g>
   </g>
   <g id="line2d_15">
    <path d="M 252.216761 228.994818 
L 252.216761 95.522314 
" clip-path="url(#p0580cf46a6)" style="fill: none; stroke: #3f3f3f; stroke-width: 1.875; stroke-linecap: round"/>
   </g>
   <g id="line2d_16">
    <path d="M 252.216761 189.62885 
L 252.216761 146.824108 
" clip-path="url(#p0580cf46a6)" style="fill: none; stroke: #3f3f3f; stroke-width: 5.625; stroke-linecap: round"/>
   </g>
   <g id="line2d_17">
    <path d="M 252.216761 172.430615 
" clip-path="url(#p0580cf46a6)" style="fill: none; stroke: #3f3f3f; stroke-width: 1.5; stroke-linecap: round"/>
    <g clip-path="url(#p0580cf46a6)">
     <use xlink:href="#mc8846a831f" x="252.216761" y="172.430615" style="fill: #ffffff; stroke: #ffffff; stroke-width: 1.125"/>
    </g>
   </g>
   <g id="line2d_18">
    <path d="M 311.413183 238.835634 
L 311.413183 143.581446 
" clip-path="url(#p0580cf46a6)" style="fill: none; stroke: #3f3f3f; stroke-width: 1.875; stroke-linecap: round"/>
   </g>
   <g id="line2d_19">
    <path d="M 311.413183 208.527024 
L 311.413183 179.681661 
" clip-path="url(#p0580cf46a6)" style="fill: none; stroke: #3f3f3f; stroke-width: 5.625; stroke-linecap: round"/>
   </g>
   <g id="line2d_20">
    <path d="M 311.413183 190.992446 
" clip-path="url(#p0580cf46a6)" style="fill: none; stroke: #3f3f3f; stroke-width: 1.5; stroke-linecap: round"/>
    <g clip-path="url(#p0580cf46a6)">
     <use xlink:href="#mc8846a831f" x="311.413183" y="190.992446" style="fill: #ffffff; stroke: #ffffff; stroke-width: 1.125"/>
    </g>
   </g>
   <g id="patch_5">
    <path d="M 59.828387 318.04 
L 59.828387 10.8 
" style="fill: none; stroke: #cccccc; stroke-width: 0.8; stroke-linejoin: miter; stroke-linecap: square"/>
   </g>
   <g id="patch_6">
    <path d="M 59.828387 318.04 
L 355.8105 318.04 
" style="fill: none; stroke: #cccccc; stroke-width: 0.8; stroke-linejoin: miter; stroke-linecap: square"/>
   </g>
  </g>
  <g id="legend_1">
   <g id="text_13">
    <!-- Time -->
    <g style="fill: #262626" transform="translate(373.633594 168.439844) scale(0.1 -0.1)">
     <defs>
      <path id="ArialMT-54" d="M 1659 0 
L 1659 4041 
L 150 4041 
L 150 4581 
L 3781 4581 
L 3781 4041 
L 2266 4041 
L 2266 0 
L 1659 0 
z
" transform="scale(0.015625)"/>
     </defs>
     <use xlink:href="#ArialMT-54"/>
     <use xlink:href="#ArialMT-69" x="57.333984"/>
     <use xlink:href="#ArialMT-6d" x="79.550781"/>
     <use xlink:href="#ArialMT-65" x="162.851562"/>
    </g>
   </g>
   <g id="patch_7">
    <path d="M 359.1625 182.585156 
L 379.1625 182.585156 
L 379.1625 175.585156 
L 359.1625 175.585156 
z
" style="fill: #3274a1; stroke: #3f3f3f; stroke-width: 1.25; stroke-linejoin: miter"/>
   </g>
   <g id="text_14">
    <!-- initial -->
    <g style="fill: #262626" transform="translate(387.1625 182.585156) scale(0.1 -0.1)">
     <use xlink:href="#ArialMT-69"/>
     <use xlink:href="#ArialMT-6e" x="22.216797"/>
     <use xlink:href="#ArialMT-69" x="77.832031"/>
     <use xlink:href="#ArialMT-74" x="100.048828"/>
     <use xlink:href="#ArialMT-69" x="127.832031"/>
     <use xlink:href="#ArialMT-61" x="150.048828"/>
     <use xlink:href="#ArialMT-6c" x="205.664062"/>
    </g>
   </g>
   <g id="patch_8">
    <path d="M 359.1625 196.730469 
L 379.1625 196.730469 
L 379.1625 189.730469 
L 359.1625 189.730469 
z
" style="fill: #e1812c; stroke: #3f3f3f; stroke-width: 1.25; stroke-linejoin: miter"/>
   </g>
   <g id="text_15">
    <!-- final -->
    <g style="fill: #262626" transform="translate(387.1625 196.730469) scale(0.1 -0.1)">
     <use xlink:href="#ArialMT-66"/>
     <use xlink:href="#ArialMT-69" x="27.783203"/>
     <use xlink:href="#ArialMT-6e" x="50"/>
     <use xlink:href="#ArialMT-61" x="105.615234"/>
     <use xlink:href="#ArialMT-6c" x="161.230469"/>
    </g>
   </g>
  </g>
 </g>
 <defs>
  <clipPath id="p0580cf46a6">
   <rect x="59.828387" y="10.8" width="295.982112" height="307.24"/>
  </clipPath>
 </defs>
</svg>
