<?xml version="1.0" encoding="utf-8" standalone="no"?>
<!DOCTYPE svg PUBLIC "-//W3C//DTD SVG 1.1//EN"
  "http://www.w3.org/Graphics/SVG/1.1/DTD/svg11.dtd">
<svg xmlns:xlink="http://www.w3.org/1999/xlink" width="418.95pt" height="360pt" viewBox="0 0 418.95 360" xmlns="http://www.w3.org/2000/svg" version="1.1">
 <metadata>
  <rdf:RDF xmlns:dc="http://purl.org/dc/elements/1.1/" xmlns:cc="http://creativecommons.org/ns#" xmlns:rdf="http://www.w3.org/1999/02/22-rdf-syntax-ns#">
   <cc:Work>
    <dc:type rdf:resource="http://purl.org/dc/dcmitype/StillImage"/>
    <dc:date>2024-09-10T22:07:18.151627</dc:date>
    <dc:format>image/svg+xml</dc:format>
    <dc:creator>
     <cc:Agent>
      <dc:title>Matplotlib v3.8.3, https://matplotlib.org/</dc:title>
     </cc:Agent>
    </dc:creator>
   </cc:Work>
  </rdf:RDF>
 </metadata>
 <defs>
  <style type="text/css">*{stroke-linejoin: round; stroke-linecap: butt}</style>
 </defs>
 <g id="figure_1">
  <g id="patch_1">
   <path d="M 0 360 
L 418.95 360 
L 418.95 0 
L 0 0 
z
" style="fill: #ffffff"/>
  </g>
  <g id="axes_1">
   <g id="patch_2">
    <path d="M 50.0878 318.04 
L 355.8105 318.04 
L 355.8105 10.8 
L 50.0878 10.8 
z
" style="fill: #ffffff"/>
   </g>
   <g id="matplotlib.axis_1">
    <g id="xtick_1">
     <g id="text_1">
      <!-- f -->
      <g style="fill: #262626" transform="translate(125.129413 332.197812) scale(0.1 -0.1)">
       <defs>
        <path id="ArialMT-66" d="M 556 0 
L 556 2881 
L 59 2881 
L 59 3319 
L 556 3319 
L 556 3672 
Q 556 4006 616 4169 
Q 697 4388 901 4523 
Q 1106 4659 1475 4659 
Q 1713 4659 2000 4603 
L 1916 4113 
Q 1741 4144 1584 4144 
Q 1328 4144 1222 4034 
Q 1116 3925 1116 3625 
L 1116 3319 
L 1763 3319 
L 1763 2881 
L 1116 2881 
L 1116 0 
L 556 0 
z
" transform="scale(0.015625)"/>
       </defs>
       <use xlink:href="#ArialMT-66"/>
      </g>
     </g>
    </g>
    <g id="xtick_2">
     <g id="text_2">
      <!-- m -->
      <g style="fill: #262626" transform="translate(275.214981 332.197812) scale(0.1 -0.1)">
       <defs>
        <path id="ArialMT-6d" d="M 422 0 
L 422 3319 
L 925 3319 
L 925 2853 
Q 1081 3097 1340 3245 
Q 1600 3394 1931 3394 
Q 2300 3394 2536 3241 
Q 2772 3088 2869 2813 
Q 3263 3394 3894 3394 
Q 4388 3394 4653 3120 
Q 4919 2847 4919 2278 
L 4919 0 
L 4359 0 
L 4359 2091 
Q 4359 2428 4304 2576 
Q 4250 2725 4106 2815 
Q 3963 2906 3769 2906 
Q 3419 2906 3187 2673 
Q 2956 2441 2956 1928 
L 2956 0 
L 2394 0 
L 2394 2156 
Q 2394 2531 2256 2718 
Q 2119 2906 1806 2906 
Q 1569 2906 1367 2781 
Q 1166 2656 1075 2415 
Q 984 2175 984 1722 
L 984 0 
L 422 0 
z
" transform="scale(0.015625)"/>
       </defs>
       <use xlink:href="#ArialMT-6d"/>
      </g>
     </g>
    </g>
    <g id="text_3">
     <!-- sex -->
     <g style="fill: #262626" transform="translate(195.168681 345.343125) scale(0.1 -0.1)">
      <defs>
       <path id="ArialMT-73" d="M 197 991 
L 753 1078 
Q 800 744 1014 566 
Q 1228 388 1613 388 
Q 2000 388 2187 545 
Q 2375 703 2375 916 
Q 2375 1106 2209 1216 
Q 2094 1291 1634 1406 
Q 1016 1563 777 1677 
Q 538 1791 414 1992 
Q 291 2194 291 2438 
Q 291 2659 392 2848 
Q 494 3038 669 3163 
Q 800 3259 1026 3326 
Q 1253 3394 1513 3394 
Q 1903 3394 2198 3281 
Q 2494 3169 2634 2976 
Q 2775 2784 2828 2463 
L 2278 2388 
Q 2241 2644 2061 2787 
Q 1881 2931 1553 2931 
Q 1166 2931 1000 2803 
Q 834 2675 834 2503 
Q 834 2394 903 2306 
Q 972 2216 1119 2156 
Q 1203 2125 1616 2013 
Q 2213 1853 2448 1751 
Q 2684 1650 2818 1456 
Q 2953 1263 2953 975 
Q 2953 694 2789 445 
Q 2625 197 2315 61 
Q 2006 -75 1616 -75 
Q 969 -75 630 194 
Q 291 463 197 991 
z
" transform="scale(0.015625)"/>
       <path id="ArialMT-65" d="M 2694 1069 
L 3275 997 
Q 3138 488 2766 206 
Q 2394 -75 1816 -75 
Q 1088 -75 661 373 
Q 234 822 234 1631 
Q 234 2469 665 2931 
Q 1097 3394 1784 3394 
Q 2450 3394 2872 2941 
Q 3294 2488 3294 1666 
Q 3294 1616 3291 1516 
L 816 1516 
Q 847 969 1125 678 
Q 1403 388 1819 388 
Q 2128 388 2347 550 
Q 2566 713 2694 1069 
z
M 847 1978 
L 2700 1978 
Q 2663 2397 2488 2606 
Q 2219 2931 1791 2931 
Q 1403 2931 1139 2672 
Q 875 2413 847 1978 
z
" transform="scale(0.015625)"/>
       <path id="ArialMT-78" d="M 47 0 
L 1259 1725 
L 138 3319 
L 841 3319 
L 1350 2541 
Q 1494 2319 1581 2169 
Q 1719 2375 1834 2534 
L 2394 3319 
L 3066 3319 
L 1919 1756 
L 3153 0 
L 2463 0 
L 1781 1031 
L 1600 1309 
L 728 0 
L 47 0 
z
" transform="scale(0.015625)"/>
      </defs>
      <use xlink:href="#ArialMT-73"/>
      <use xlink:href="#ArialMT-65" x="50"/>
      <use xlink:href="#ArialMT-78" x="105.615234"/>
     </g>
    </g>
   </g>
   <g id="matplotlib.axis_2">
    <g id="ytick_1">
     <g id="line2d_1">
      <path d="M 50.0878 273.908217 
L 355.8105 273.908217 
" clip-path="url(#p337cf96936)" style="fill: none; stroke: #cccccc; stroke-width: 0.8; stroke-linecap: round"/>
     </g>
     <g id="text_4">
      <!-- 5 -->
      <g style="fill: #262626" transform="translate(37.526863 277.487123) scale(0.1 -0.1)">
       <defs>
        <path id="ArialMT-35" d="M 266 1200 
L 856 1250 
Q 922 819 1161 601 
Q 1400 384 1738 384 
Q 2144 384 2425 690 
Q 2706 997 2706 1503 
Q 2706 1984 2436 2262 
Q 2166 2541 1728 2541 
Q 1456 2541 1237 2417 
Q 1019 2294 894 2097 
L 366 2166 
L 809 4519 
L 3088 4519 
L 3088 3981 
L 1259 3981 
L 1013 2750 
Q 1425 3038 1878 3038 
Q 2478 3038 2890 2622 
Q 3303 2206 3303 1553 
Q 3303 931 2941 478 
Q 2500 -78 1738 -78 
Q 1113 -78 717 272 
Q 322 622 266 1200 
z
" transform="scale(0.015625)"/>
       </defs>
       <use xlink:href="#ArialMT-35"/>
      </g>
     </g>
    </g>
    <g id="ytick_2">
     <g id="line2d_2">
      <path d="M 50.0878 226.990634 
L 355.8105 226.990634 
" clip-path="url(#p337cf96936)" style="fill: none; stroke: #cccccc; stroke-width: 0.8; stroke-linecap: round"/>
     </g>
     <g id="text_5">
      <!-- 10 -->
      <g style="fill: #262626" transform="translate(31.965925 230.569541) scale(0.1 -0.1)">
       <defs>
        <path id="ArialMT-31" d="M 2384 0 
L 1822 0 
L 1822 3584 
Q 1619 3391 1289 3197 
Q 959 3003 697 2906 
L 697 3450 
Q 1169 3672 1522 3987 
Q 1875 4303 2022 4600 
L 2384 4600 
L 2384 0 
z
" transform="scale(0.015625)"/>
        <path id="ArialMT-30" d="M 266 2259 
Q 266 3072 433 3567 
Q 600 4063 929 4331 
Q 1259 4600 1759 4600 
Q 2128 4600 2406 4451 
Q 2684 4303 2865 4023 
Q 3047 3744 3150 3342 
Q 3253 2941 3253 2259 
Q 3253 1453 3087 958 
Q 2922 463 2592 192 
Q 2263 -78 1759 -78 
Q 1097 -78 719 397 
Q 266 969 266 2259 
z
M 844 2259 
Q 844 1131 1108 757 
Q 1372 384 1759 384 
Q 2147 384 2411 759 
Q 2675 1134 2675 2259 
Q 2675 3391 2411 3762 
Q 2147 4134 1753 4134 
Q 1366 4134 1134 3806 
Q 844 3388 844 2259 
z
" transform="scale(0.015625)"/>
       </defs>
       <use xlink:href="#ArialMT-31"/>
       <use xlink:href="#ArialMT-30" x="55.615234"/>
      </g>
     </g>
    </g>
    <g id="ytick_3">
     <g id="line2d_3">
      <path d="M 50.0878 180.073052 
L 355.8105 180.073052 
" clip-path="url(#p337cf96936)" style="fill: none; stroke: #cccccc; stroke-width: 0.8; stroke-linecap: round"/>
     </g>
     <g id="text_6">
      <!-- 15 -->
      <g style="fill: #262626" transform="translate(31.965925 183.651958) scale(0.1 -0.1)">
       <use xlink:href="#ArialMT-31"/>
       <use xlink:href="#ArialMT-35" x="55.615234"/>
      </g>
     </g>
    </g>
    <g id="ytick_4">
     <g id="line2d_4">
      <path d="M 50.0878 133.155469 
L 355.8105 133.155469 
" clip-path="url(#p337cf96936)" style="fill: none; stroke: #cccccc; stroke-width: 0.8; stroke-linecap: round"/>
     </g>
     <g id="text_7">
      <!-- 20 -->
      <g style="fill: #262626" transform="translate(31.965925 136.734375) scale(0.1 -0.1)">
       <defs>
        <path id="ArialMT-32" d="M 3222 541 
L 3222 0 
L 194 0 
Q 188 203 259 391 
Q 375 700 629 1000 
Q 884 1300 1366 1694 
Q 2113 2306 2375 2664 
Q 2638 3022 2638 3341 
Q 2638 3675 2398 3904 
Q 2159 4134 1775 4134 
Q 1369 4134 1125 3890 
Q 881 3647 878 3216 
L 300 3275 
Q 359 3922 746 4261 
Q 1134 4600 1788 4600 
Q 2447 4600 2831 4234 
Q 3216 3869 3216 3328 
Q 3216 3053 3103 2787 
Q 2991 2522 2730 2228 
Q 2469 1934 1863 1422 
Q 1356 997 1212 845 
Q 1069 694 975 541 
L 3222 541 
z
" transform="scale(0.015625)"/>
       </defs>
       <use xlink:href="#ArialMT-32"/>
       <use xlink:href="#ArialMT-30" x="55.615234"/>
      </g>
     </g>
    </g>
    <g id="ytick_5">
     <g id="line2d_5">
      <path d="M 50.0878 86.237886 
L 355.8105 86.237886 
" clip-path="url(#p337cf96936)" style="fill: none; stroke: #cccccc; stroke-width: 0.8; stroke-linecap: round"/>
     </g>
     <g id="text_8">
      <!-- 25 -->
      <g style="fill: #262626" transform="translate(31.965925 89.816793) scale(0.1 -0.1)">
       <use xlink:href="#ArialMT-32"/>
       <use xlink:href="#ArialMT-35" x="55.615234"/>
      </g>
     </g>
    </g>
    <g id="ytick_6">
     <g id="line2d_6">
      <path d="M 50.0878 39.320304 
L 355.8105 39.320304 
" clip-path="url(#p337cf96936)" style="fill: none; stroke: #cccccc; stroke-width: 0.8; stroke-linecap: round"/>
     </g>
     <g id="text_9">
      <!-- 30 -->
      <g style="fill: #262626" transform="translate(31.965925 42.89921) scale(0.1 -0.1)">
       <defs>
        <path id="ArialMT-33" d="M 269 1209 
L 831 1284 
Q 928 806 1161 595 
Q 1394 384 1728 384 
Q 2125 384 2398 659 
Q 2672 934 2672 1341 
Q 2672 1728 2419 1979 
Q 2166 2231 1775 2231 
Q 1616 2231 1378 2169 
L 1441 2663 
Q 1497 2656 1531 2656 
Q 1891 2656 2178 2843 
Q 2466 3031 2466 3422 
Q 2466 3731 2256 3934 
Q 2047 4138 1716 4138 
Q 1388 4138 1169 3931 
Q 950 3725 888 3313 
L 325 3413 
Q 428 3978 793 4289 
Q 1159 4600 1703 4600 
Q 2078 4600 2393 4439 
Q 2709 4278 2876 4000 
Q 3044 3722 3044 3409 
Q 3044 3113 2884 2869 
Q 2725 2625 2413 2481 
Q 2819 2388 3044 2092 
Q 3269 1797 3269 1353 
Q 3269 753 2831 336 
Q 2394 -81 1725 -81 
Q 1122 -81 723 278 
Q 325 638 269 1209 
z
" transform="scale(0.015625)"/>
       </defs>
       <use xlink:href="#ArialMT-33"/>
       <use xlink:href="#ArialMT-30" x="55.615234"/>
      </g>
     </g>
    </g>
    <g id="text_10">
     <!-- Relative CO2 expired (ml/kg/min) -->
     <g style="fill: #262626" transform="translate(25.861237 238.048906) rotate(-90) scale(0.1 -0.1)">
      <defs>
       <path id="ArialMT-52" d="M 503 0 
L 503 4581 
L 2534 4581 
Q 3147 4581 3465 4457 
Q 3784 4334 3975 4021 
Q 4166 3709 4166 3331 
Q 4166 2844 3850 2509 
Q 3534 2175 2875 2084 
Q 3116 1969 3241 1856 
Q 3506 1613 3744 1247 
L 4541 0 
L 3778 0 
L 3172 953 
Q 2906 1366 2734 1584 
Q 2563 1803 2427 1890 
Q 2291 1978 2150 2013 
Q 2047 2034 1813 2034 
L 1109 2034 
L 1109 0 
L 503 0 
z
M 1109 2559 
L 2413 2559 
Q 2828 2559 3062 2645 
Q 3297 2731 3419 2920 
Q 3541 3109 3541 3331 
Q 3541 3656 3305 3865 
Q 3069 4075 2559 4075 
L 1109 4075 
L 1109 2559 
z
" transform="scale(0.015625)"/>
       <path id="ArialMT-6c" d="M 409 0 
L 409 4581 
L 972 4581 
L 972 0 
L 409 0 
z
" transform="scale(0.015625)"/>
       <path id="ArialMT-61" d="M 2588 409 
Q 2275 144 1986 34 
Q 1697 -75 1366 -75 
Q 819 -75 525 192 
Q 231 459 231 875 
Q 231 1119 342 1320 
Q 453 1522 633 1644 
Q 813 1766 1038 1828 
Q 1203 1872 1538 1913 
Q 2219 1994 2541 2106 
Q 2544 2222 2544 2253 
Q 2544 2597 2384 2738 
Q 2169 2928 1744 2928 
Q 1347 2928 1158 2789 
Q 969 2650 878 2297 
L 328 2372 
Q 403 2725 575 2942 
Q 747 3159 1072 3276 
Q 1397 3394 1825 3394 
Q 2250 3394 2515 3294 
Q 2781 3194 2906 3042 
Q 3031 2891 3081 2659 
Q 3109 2516 3109 2141 
L 3109 1391 
Q 3109 606 3145 398 
Q 3181 191 3288 0 
L 2700 0 
Q 2613 175 2588 409 
z
M 2541 1666 
Q 2234 1541 1622 1453 
Q 1275 1403 1131 1340 
Q 988 1278 909 1158 
Q 831 1038 831 891 
Q 831 666 1001 516 
Q 1172 366 1500 366 
Q 1825 366 2078 508 
Q 2331 650 2450 897 
Q 2541 1088 2541 1459 
L 2541 1666 
z
" transform="scale(0.015625)"/>
       <path id="ArialMT-74" d="M 1650 503 
L 1731 6 
Q 1494 -44 1306 -44 
Q 1000 -44 831 53 
Q 663 150 594 308 
Q 525 466 525 972 
L 525 2881 
L 113 2881 
L 113 3319 
L 525 3319 
L 525 4141 
L 1084 4478 
L 1084 3319 
L 1650 3319 
L 1650 2881 
L 1084 2881 
L 1084 941 
Q 1084 700 1114 631 
Q 1144 563 1211 522 
Q 1278 481 1403 481 
Q 1497 481 1650 503 
z
" transform="scale(0.015625)"/>
       <path id="ArialMT-69" d="M 425 3934 
L 425 4581 
L 988 4581 
L 988 3934 
L 425 3934 
z
M 425 0 
L 425 3319 
L 988 3319 
L 988 0 
L 425 0 
z
" transform="scale(0.015625)"/>
       <path id="ArialMT-76" d="M 1344 0 
L 81 3319 
L 675 3319 
L 1388 1331 
Q 1503 1009 1600 663 
Q 1675 925 1809 1294 
L 2547 3319 
L 3125 3319 
L 1869 0 
L 1344 0 
z
" transform="scale(0.015625)"/>
       <path id="ArialMT-20" transform="scale(0.015625)"/>
       <path id="ArialMT-43" d="M 3763 1606 
L 4369 1453 
Q 4178 706 3683 314 
Q 3188 -78 2472 -78 
Q 1731 -78 1267 223 
Q 803 525 561 1097 
Q 319 1669 319 2325 
Q 319 3041 592 3573 
Q 866 4106 1370 4382 
Q 1875 4659 2481 4659 
Q 3169 4659 3637 4309 
Q 4106 3959 4291 3325 
L 3694 3184 
Q 3534 3684 3231 3912 
Q 2928 4141 2469 4141 
Q 1941 4141 1586 3887 
Q 1231 3634 1087 3207 
Q 944 2781 944 2328 
Q 944 1744 1114 1308 
Q 1284 872 1643 656 
Q 2003 441 2422 441 
Q 2931 441 3284 734 
Q 3638 1028 3763 1606 
z
" transform="scale(0.015625)"/>
       <path id="ArialMT-4f" d="M 309 2231 
Q 309 3372 921 4017 
Q 1534 4663 2503 4663 
Q 3138 4663 3647 4359 
Q 4156 4056 4423 3514 
Q 4691 2972 4691 2284 
Q 4691 1588 4409 1038 
Q 4128 488 3612 205 
Q 3097 -78 2500 -78 
Q 1853 -78 1343 234 
Q 834 547 571 1087 
Q 309 1628 309 2231 
z
M 934 2222 
Q 934 1394 1379 917 
Q 1825 441 2497 441 
Q 3181 441 3623 922 
Q 4066 1403 4066 2288 
Q 4066 2847 3877 3264 
Q 3688 3681 3323 3911 
Q 2959 4141 2506 4141 
Q 1863 4141 1398 3698 
Q 934 3256 934 2222 
z
" transform="scale(0.015625)"/>
       <path id="ArialMT-70" d="M 422 -1272 
L 422 3319 
L 934 3319 
L 934 2888 
Q 1116 3141 1344 3267 
Q 1572 3394 1897 3394 
Q 2322 3394 2647 3175 
Q 2972 2956 3137 2557 
Q 3303 2159 3303 1684 
Q 3303 1175 3120 767 
Q 2938 359 2589 142 
Q 2241 -75 1856 -75 
Q 1575 -75 1351 44 
Q 1128 163 984 344 
L 984 -1272 
L 422 -1272 
z
M 931 1641 
Q 931 1000 1190 694 
Q 1450 388 1819 388 
Q 2194 388 2461 705 
Q 2728 1022 2728 1688 
Q 2728 2322 2467 2637 
Q 2206 2953 1844 2953 
Q 1484 2953 1207 2617 
Q 931 2281 931 1641 
z
" transform="scale(0.015625)"/>
       <path id="ArialMT-72" d="M 416 0 
L 416 3319 
L 922 3319 
L 922 2816 
Q 1116 3169 1280 3281 
Q 1444 3394 1641 3394 
Q 1925 3394 2219 3213 
L 2025 2691 
Q 1819 2813 1613 2813 
Q 1428 2813 1281 2702 
Q 1134 2591 1072 2394 
Q 978 2094 978 1738 
L 978 0 
L 416 0 
z
" transform="scale(0.015625)"/>
       <path id="ArialMT-64" d="M 2575 0 
L 2575 419 
Q 2259 -75 1647 -75 
Q 1250 -75 917 144 
Q 584 363 401 755 
Q 219 1147 219 1656 
Q 219 2153 384 2558 
Q 550 2963 881 3178 
Q 1213 3394 1622 3394 
Q 1922 3394 2156 3267 
Q 2391 3141 2538 2938 
L 2538 4581 
L 3097 4581 
L 3097 0 
L 2575 0 
z
M 797 1656 
Q 797 1019 1065 703 
Q 1334 388 1700 388 
Q 2069 388 2326 689 
Q 2584 991 2584 1609 
Q 2584 2291 2321 2609 
Q 2059 2928 1675 2928 
Q 1300 2928 1048 2622 
Q 797 2316 797 1656 
z
" transform="scale(0.015625)"/>
       <path id="ArialMT-28" d="M 1497 -1347 
Q 1031 -759 709 28 
Q 388 816 388 1659 
Q 388 2403 628 3084 
Q 909 3875 1497 4659 
L 1900 4659 
Q 1522 4009 1400 3731 
Q 1209 3300 1100 2831 
Q 966 2247 966 1656 
Q 966 153 1900 -1347 
L 1497 -1347 
z
" transform="scale(0.015625)"/>
       <path id="ArialMT-2f" d="M 0 -78 
L 1328 4659 
L 1778 4659 
L 453 -78 
L 0 -78 
z
" transform="scale(0.015625)"/>
       <path id="ArialMT-6b" d="M 425 0 
L 425 4581 
L 988 4581 
L 988 1969 
L 2319 3319 
L 3047 3319 
L 1778 2088 
L 3175 0 
L 2481 0 
L 1384 1697 
L 988 1316 
L 988 0 
L 425 0 
z
" transform="scale(0.015625)"/>
       <path id="ArialMT-67" d="M 319 -275 
L 866 -356 
Q 900 -609 1056 -725 
Q 1266 -881 1628 -881 
Q 2019 -881 2231 -725 
Q 2444 -569 2519 -288 
Q 2563 -116 2559 434 
Q 2191 0 1641 0 
Q 956 0 581 494 
Q 206 988 206 1678 
Q 206 2153 378 2554 
Q 550 2956 876 3175 
Q 1203 3394 1644 3394 
Q 2231 3394 2613 2919 
L 2613 3319 
L 3131 3319 
L 3131 450 
Q 3131 -325 2973 -648 
Q 2816 -972 2473 -1159 
Q 2131 -1347 1631 -1347 
Q 1038 -1347 672 -1080 
Q 306 -813 319 -275 
z
M 784 1719 
Q 784 1066 1043 766 
Q 1303 466 1694 466 
Q 2081 466 2343 764 
Q 2606 1063 2606 1700 
Q 2606 2309 2336 2618 
Q 2066 2928 1684 2928 
Q 1309 2928 1046 2623 
Q 784 2319 784 1719 
z
" transform="scale(0.015625)"/>
       <path id="ArialMT-6e" d="M 422 0 
L 422 3319 
L 928 3319 
L 928 2847 
Q 1294 3394 1984 3394 
Q 2284 3394 2536 3286 
Q 2788 3178 2913 3003 
Q 3038 2828 3088 2588 
Q 3119 2431 3119 2041 
L 3119 0 
L 2556 0 
L 2556 2019 
Q 2556 2363 2490 2533 
Q 2425 2703 2258 2804 
Q 2091 2906 1866 2906 
Q 1506 2906 1245 2678 
Q 984 2450 984 1813 
L 984 0 
L 422 0 
z
" transform="scale(0.015625)"/>
       <path id="ArialMT-29" d="M 791 -1347 
L 388 -1347 
Q 1322 153 1322 1656 
Q 1322 2244 1188 2822 
Q 1081 3291 891 3722 
Q 769 4003 388 4659 
L 791 4659 
Q 1378 3875 1659 3084 
Q 1900 2403 1900 1659 
Q 1900 816 1576 28 
Q 1253 -759 791 -1347 
z
" transform="scale(0.015625)"/>
      </defs>
      <use xlink:href="#ArialMT-52"/>
      <use xlink:href="#ArialMT-65" x="72.216797"/>
      <use xlink:href="#ArialMT-6c" x="127.832031"/>
      <use xlink:href="#ArialMT-61" x="150.048828"/>
      <use xlink:href="#ArialMT-74" x="205.664062"/>
      <use xlink:href="#ArialMT-69" x="233.447266"/>
      <use xlink:href="#ArialMT-76" x="255.664062"/>
      <use xlink:href="#ArialMT-65" x="305.664062"/>
      <use xlink:href="#ArialMT-20" x="361.279297"/>
      <use xlink:href="#ArialMT-43" x="389.0625"/>
      <use xlink:href="#ArialMT-4f" x="461.279297"/>
      <use xlink:href="#ArialMT-32" x="539.0625"/>
      <use xlink:href="#ArialMT-20" x="594.677734"/>
      <use xlink:href="#ArialMT-65" x="622.460938"/>
      <use xlink:href="#ArialMT-78" x="678.076172"/>
      <use xlink:href="#ArialMT-70" x="728.076172"/>
      <use xlink:href="#ArialMT-69" x="783.691406"/>
      <use xlink:href="#ArialMT-72" x="805.908203"/>
      <use xlink:href="#ArialMT-65" x="839.208984"/>
      <use xlink:href="#ArialMT-64" x="894.824219"/>
      <use xlink:href="#ArialMT-20" x="950.439453"/>
      <use xlink:href="#ArialMT-28" x="978.222656"/>
      <use xlink:href="#ArialMT-6d" x="1011.523438"/>
      <use xlink:href="#ArialMT-6c" x="1094.824219"/>
      <use xlink:href="#ArialMT-2f" x="1117.041016"/>
      <use xlink:href="#ArialMT-6b" x="1144.824219"/>
      <use xlink:href="#ArialMT-67" x="1194.824219"/>
      <use xlink:href="#ArialMT-2f" x="1250.439453"/>
      <use xlink:href="#ArialMT-6d" x="1278.222656"/>
      <use xlink:href="#ArialMT-69" x="1361.523438"/>
      <use xlink:href="#ArialMT-6e" x="1383.740234"/>
      <use xlink:href="#ArialMT-29" x="1439.355469"/>
     </g>
    </g>
   </g>
   <g id="PolyCollection_1">
    <defs>
     <path id="m0aa8ad981a" d="M 96.562263 -97.380248 
L 95.330147 -97.380248 
L 95.182371 -99.393562 
L 95.00614 -101.406876 
L 94.797608 -103.42019 
L 94.552723 -105.433504 
L 94.267276 -107.446819 
L 93.936953 -109.460133 
L 93.557394 -111.473447 
L 93.124271 -113.486761 
L 92.633365 -115.500075 
L 92.080667 -117.513389 
L 91.462481 -119.526703 
L 90.775549 -121.540018 
L 90.017184 -123.553332 
L 89.185424 -125.566646 
L 88.27919 -127.57996 
L 87.298469 -129.593274 
L 86.244483 -131.606588 
L 85.119881 -133.619903 
L 83.928898 -135.633217 
L 82.677514 -137.646531 
L 81.373568 -139.659845 
L 80.026834 -141.673159 
L 78.649034 -143.686473 
L 77.253787 -145.699787 
L 75.856474 -147.713102 
L 74.474021 -149.726416 
L 73.124588 -151.73973 
L 71.827182 -153.753044 
L 70.601187 -155.766358 
L 69.465833 -157.779672 
L 68.439626 -159.792987 
L 67.53975 -161.806301 
L 66.781478 -163.819615 
L 66.177622 -165.832929 
L 65.738034 -167.846243 
L 65.469198 -169.859557 
L 65.373935 -171.872871 
L 65.451224 -173.886186 
L 65.69617 -175.8995 
L 66.100104 -177.912814 
L 66.650831 -179.926128 
L 67.332998 -181.939442 
L 68.128583 -183.952756 
L 69.017468 -185.966071 
L 69.978087 -187.979385 
L 70.988106 -189.992699 
L 72.02512 -192.006013 
L 73.067327 -194.019327 
L 74.09416 -196.032641 
L 75.086857 -198.045955 
L 76.028942 -200.05927 
L 76.906608 -202.072584 
L 77.708991 -204.085898 
L 78.428341 -206.099212 
L 79.060067 -208.112526 
L 79.602692 -210.12584 
L 80.057703 -212.139155 
L 80.429315 -214.152469 
L 80.724167 -216.165783 
L 80.950959 -218.179097 
L 81.120049 -220.192411 
L 81.243022 -222.205725 
L 81.332255 -224.219039 
L 81.400479 -226.232354 
L 81.460364 -228.245668 
L 81.524126 -230.258982 
L 81.603179 -232.272296 
L 81.707828 -234.28561 
L 81.847016 -236.298924 
L 82.028121 -238.312239 
L 82.256819 -240.325553 
L 82.537 -242.338867 
L 82.870738 -244.352181 
L 83.258322 -246.365495 
L 83.698335 -248.378809 
L 84.187779 -250.392123 
L 84.722241 -252.405438 
L 85.296093 -254.418752 
L 85.90272 -256.432066 
L 86.534765 -258.44538 
L 87.184387 -260.458694 
L 87.843516 -262.472008 
L 88.504108 -264.485323 
L 89.158378 -266.498637 
L 89.799014 -268.511951 
L 90.419366 -270.525265 
L 91.013586 -272.538579 
L 91.576748 -274.551893 
L 92.104912 -276.565207 
L 92.595162 -278.578522 
L 93.045589 -280.591836 
L 93.455256 -282.60515 
L 93.824121 -284.618464 
L 94.152941 -286.631778 
L 94.443159 -288.645092 
L 94.696778 -290.658407 
L 94.91623 -292.671721 
L 95.104253 -294.685035 
L 95.263768 -296.698349 
L 96.628642 -296.698349 
L 96.628642 -296.698349 
L 96.788157 -294.685035 
L 96.97618 -292.671721 
L 97.195632 -290.658407 
L 97.449251 -288.645092 
L 97.739469 -286.631778 
L 98.068289 -284.618464 
L 98.437154 -282.60515 
L 98.846821 -280.591836 
L 99.297248 -278.578522 
L 99.787498 -276.565207 
L 100.315662 -274.551893 
L 100.878824 -272.538579 
L 101.473044 -270.525265 
L 102.093396 -268.511951 
L 102.734032 -266.498637 
L 103.388302 -264.485323 
L 104.048894 -262.472008 
L 104.708023 -260.458694 
L 105.357645 -258.44538 
L 105.98969 -256.432066 
L 106.596317 -254.418752 
L 107.170169 -252.405438 
L 107.704631 -250.392123 
L 108.194075 -248.378809 
L 108.634088 -246.365495 
L 109.021672 -244.352181 
L 109.35541 -242.338867 
L 109.635591 -240.325553 
L 109.864289 -238.312239 
L 110.045394 -236.298924 
L 110.184582 -234.28561 
L 110.289231 -232.272296 
L 110.368284 -230.258982 
L 110.432046 -228.245668 
L 110.491931 -226.232354 
L 110.560155 -224.219039 
L 110.649388 -222.205725 
L 110.772361 -220.192411 
L 110.941451 -218.179097 
L 111.168243 -216.165783 
L 111.463095 -214.152469 
L 111.834707 -212.139155 
L 112.289718 -210.12584 
L 112.832343 -208.112526 
L 113.464069 -206.099212 
L 114.183419 -204.085898 
L 114.985802 -202.072584 
L 115.863468 -200.05927 
L 116.805553 -198.045955 
L 117.79825 -196.032641 
L 118.825083 -194.019327 
L 119.86729 -192.006013 
L 120.904304 -189.992699 
L 121.914323 -187.979385 
L 122.874942 -185.966071 
L 123.763827 -183.952756 
L 124.559412 -181.939442 
L 125.241579 -179.926128 
L 125.792306 -177.912814 
L 126.19624 -175.8995 
L 126.441186 -173.886186 
L 126.518475 -171.872871 
L 126.423212 -169.859557 
L 126.154376 -167.846243 
L 125.714788 -165.832929 
L 125.110932 -163.819615 
L 124.35266 -161.806301 
L 123.452784 -159.792987 
L 122.426577 -157.779672 
L 121.291223 -155.766358 
L 120.065228 -153.753044 
L 118.767822 -151.73973 
L 117.418389 -149.726416 
L 116.035936 -147.713102 
L 114.638623 -145.699787 
L 113.243376 -143.686473 
L 111.865576 -141.673159 
L 110.518842 -139.659845 
L 109.214896 -137.646531 
L 107.963512 -135.633217 
L 106.772529 -133.619903 
L 105.647927 -131.606588 
L 104.593941 -129.593274 
L 103.61322 -127.57996 
L 102.706986 -125.566646 
L 101.875226 -123.553332 
L 101.116861 -121.540018 
L 100.429929 -119.526703 
L 99.811743 -117.513389 
L 99.259045 -115.500075 
L 98.768139 -113.486761 
L 98.335016 -111.473447 
L 97.955457 -109.460133 
L 97.625134 -107.446819 
L 97.339687 -105.433504 
L 97.094802 -103.42019 
L 96.88627 -101.406876 
L 96.710039 -99.393562 
L 96.562263 -97.380248 
z
" style="stroke: #3f3f3f; stroke-width: 1.25"/>
    </defs>
    <g clip-path="url(#p337cf96936)">
     <use xlink:href="#m0aa8ad981a" x="0" y="360" style="fill: #3274a1; stroke: #3f3f3f; stroke-width: 1.25"/>
    </g>
   </g>
   <g id="PolyCollection_2">
    <defs>
     <path id="mafe89c1c7a" d="M 157.692049 -67.669329 
L 156.489441 -67.669329 
L 156.345521 -69.903096 
L 156.174962 -72.136863 
L 155.974768 -74.37063 
L 155.742029 -76.604397 
L 155.474012 -78.838164 
L 155.168264 -81.071932 
L 154.822716 -83.305699 
L 154.43578 -85.539466 
L 154.006442 -87.773233 
L 153.534336 -90.007 
L 153.019804 -92.240767 
L 152.46393 -94.474534 
L 151.868551 -96.708302 
L 151.236246 -98.942069 
L 150.570289 -101.175836 
L 149.874596 -103.409603 
L 149.153637 -105.64337 
L 148.412341 -107.877137 
L 147.65599 -110.110904 
L 146.890114 -112.344672 
L 146.120374 -114.578439 
L 145.352464 -116.812206 
L 144.592018 -119.045973 
L 143.844519 -121.27974 
L 143.115234 -123.513507 
L 142.409146 -125.747274 
L 141.730908 -127.981042 
L 141.084793 -130.214809 
L 140.47466 -132.448576 
L 139.903915 -134.682343 
L 139.375476 -136.91611 
L 138.891745 -139.149877 
L 138.45457 -141.383644 
L 138.065215 -143.617412 
L 137.724335 -145.851179 
L 137.431955 -148.084946 
L 137.187456 -150.318713 
L 136.989577 -152.55248 
L 136.83643 -154.786247 
L 136.725532 -157.020014 
L 136.653865 -159.253782 
L 136.617944 -161.487549 
L 136.613916 -163.721316 
L 136.637678 -165.955083 
L 136.685011 -168.18885 
L 136.751732 -170.422617 
L 136.833848 -172.656384 
L 136.927722 -174.890151 
L 137.030231 -177.123919 
L 137.138912 -179.357686 
L 137.252087 -181.591453 
L 137.368962 -183.82522 
L 137.489685 -186.058987 
L 137.615367 -188.292754 
L 137.748046 -190.526521 
L 137.890615 -192.760289 
L 138.046686 -194.994056 
L 138.220426 -197.227823 
L 138.41634 -199.46159 
L 138.639042 -201.695357 
L 138.893001 -203.929124 
L 139.182296 -206.162891 
L 139.510379 -208.396659 
L 139.879873 -210.630426 
L 140.292411 -212.864193 
L 140.748522 -215.09796 
L 141.247578 -217.331727 
L 141.787804 -219.565494 
L 142.366334 -221.799261 
L 142.979327 -224.033029 
L 143.62212 -226.266796 
L 144.289413 -228.500563 
L 144.975464 -230.73433 
L 145.674296 -232.968097 
L 146.379881 -235.201864 
L 147.086323 -237.435631 
L 147.787998 -239.669399 
L 148.479669 -241.903166 
L 149.156575 -244.136933 
L 149.814475 -246.3707 
L 150.449683 -248.604467 
L 151.059065 -250.838234 
L 151.640027 -253.072001 
L 152.190494 -255.305769 
L 152.708879 -257.539536 
L 153.194051 -259.773303 
L 153.645311 -262.00707 
L 154.062354 -264.240837 
L 154.445254 -266.474604 
L 154.794432 -268.708371 
L 155.110633 -270.942139 
L 155.394899 -273.175906 
L 155.648543 -275.409673 
L 155.873112 -277.64344 
L 156.070348 -279.877207 
L 156.242152 -282.110974 
L 156.390539 -284.344741 
L 156.517589 -286.578509 
L 156.625406 -288.812276 
L 157.556084 -288.812276 
L 157.556084 -288.812276 
L 157.663901 -286.578509 
L 157.790951 -284.344741 
L 157.939338 -282.110974 
L 158.111142 -279.877207 
L 158.308378 -277.64344 
L 158.532947 -275.409673 
L 158.786591 -273.175906 
L 159.070857 -270.942139 
L 159.387058 -268.708371 
L 159.736236 -266.474604 
L 160.119136 -264.240837 
L 160.536179 -262.00707 
L 160.987439 -259.773303 
L 161.472611 -257.539536 
L 161.990996 -255.305769 
L 162.541463 -253.072001 
L 163.122425 -250.838234 
L 163.731807 -248.604467 
L 164.367015 -246.3707 
L 165.024915 -244.136933 
L 165.701821 -241.903166 
L 166.393492 -239.669399 
L 167.095167 -237.435631 
L 167.801609 -235.201864 
L 168.507194 -232.968097 
L 169.206026 -230.73433 
L 169.892077 -228.500563 
L 170.55937 -226.266796 
L 171.202163 -224.033029 
L 171.815156 -221.799261 
L 172.393686 -219.565494 
L 172.933912 -217.331727 
L 173.432968 -215.09796 
L 173.889079 -212.864193 
L 174.301617 -210.630426 
L 174.671111 -208.396659 
L 174.999194 -206.162891 
L 175.288489 -203.929124 
L 175.542448 -201.695357 
L 175.76515 -199.46159 
L 175.961064 -197.227823 
L 176.134804 -194.994056 
L 176.290875 -192.760289 
L 176.433444 -190.526521 
L 176.566123 -188.292754 
L 176.691805 -186.058987 
L 176.812528 -183.82522 
L 176.929403 -181.591453 
L 177.042578 -179.357686 
L 177.151259 -177.123919 
L 177.253768 -174.890151 
L 177.347642 -172.656384 
L 177.429758 -170.422617 
L 177.496479 -168.18885 
L 177.543812 -165.955083 
L 177.567574 -163.721316 
L 177.563546 -161.487549 
L 177.527625 -159.253782 
L 177.455958 -157.020014 
L 177.34506 -154.786247 
L 177.191913 -152.55248 
L 176.994034 -150.318713 
L 176.749535 -148.084946 
L 176.457155 -145.851179 
L 176.116275 -143.617412 
L 175.72692 -141.383644 
L 175.289745 -139.149877 
L 174.806014 -136.91611 
L 174.277575 -134.682343 
L 173.70683 -132.448576 
L 173.096697 -130.214809 
L 172.450582 -127.981042 
L 171.772344 -125.747274 
L 171.066256 -123.513507 
L 170.336971 -121.27974 
L 169.589472 -119.045973 
L 168.829026 -116.812206 
L 168.061116 -114.578439 
L 167.291376 -112.344672 
L 166.5255 -110.110904 
L 165.769149 -107.877137 
L 165.027853 -105.64337 
L 164.306894 -103.409603 
L 163.611201 -101.175836 
L 162.945244 -98.942069 
L 162.312939 -96.708302 
L 161.71756 -94.474534 
L 161.161686 -92.240767 
L 160.647154 -90.007 
L 160.175048 -87.773233 
L 159.74571 -85.539466 
L 159.358774 -83.305699 
L 159.013226 -81.071932 
L 158.707478 -78.838164 
L 158.439461 -76.604397 
L 158.206722 -74.37063 
L 158.006528 -72.136863 
L 157.835969 -69.903096 
L 157.692049 -67.669329 
z
" style="stroke: #3f3f3f; stroke-width: 1.25"/>
    </defs>
    <g clip-path="url(#p337cf96936)">
     <use xlink:href="#mafe89c1c7a" x="0" y="360" style="fill: #e1812c; stroke: #3f3f3f; stroke-width: 1.25"/>
    </g>
   </g>
   <g id="PolyCollection_3">
    <defs>
     <path id="mb07e69e48f" d="M 249.070473 -55.925455 
L 248.544637 -55.925455 
L 248.479151 -58.746758 
L 248.401516 -61.568062 
L 248.310528 -64.389366 
L 248.205085 -67.21067 
L 248.084229 -70.031974 
L 247.947176 -72.853278 
L 247.793348 -75.674582 
L 247.622385 -78.495886 
L 247.434141 -81.31719 
L 247.228666 -84.138494 
L 247.00617 -86.959798 
L 246.76698 -89.781102 
L 246.511471 -92.602406 
L 246.240006 -95.42371 
L 245.952873 -98.245014 
L 245.650218 -101.066318 
L 245.332009 -103.887622 
L 244.998003 -106.708926 
L 244.647741 -109.53023 
L 244.280573 -112.351534 
L 243.895696 -115.172837 
L 243.492226 -117.994141 
L 243.069287 -120.815445 
L 242.626107 -123.636749 
L 242.162132 -126.458053 
L 241.677132 -129.279357 
L 241.171313 -132.100661 
L 240.645405 -134.921965 
L 240.100742 -137.743269 
L 239.539313 -140.564573 
L 238.963795 -143.385877 
L 238.377548 -146.207181 
L 237.784584 -149.028485 
L 237.189505 -151.849789 
L 236.597406 -154.671093 
L 236.013749 -157.492397 
L 235.444217 -160.313701 
L 234.894542 -163.135005 
L 234.370324 -165.956309 
L 233.876848 -168.777612 
L 233.418906 -171.598916 
L 233.000633 -174.42022 
L 232.625376 -177.241524 
L 232.295585 -180.062828 
L 232.012752 -182.884132 
L 231.77738 -185.705436 
L 231.588996 -188.52674 
L 231.446196 -191.348044 
L 231.346713 -194.169348 
L 231.287514 -196.990652 
L 231.264903 -199.811956 
L 231.274636 -202.63326 
L 231.312038 -205.454564 
L 231.372123 -208.275868 
L 231.449727 -211.097172 
L 231.539637 -213.918476 
L 231.636747 -216.73978 
L 231.736224 -219.561084 
L 231.833692 -222.382388 
L 231.925447 -225.203691 
L 232.008667 -228.024995 
L 232.081635 -230.846299 
L 232.143944 -233.667603 
L 232.196665 -236.488907 
L 232.242468 -239.310211 
L 232.285662 -242.131515 
L 232.332137 -244.952819 
L 232.389215 -247.774123 
L 232.465378 -250.595427 
L 232.569899 -253.416731 
L 232.712381 -256.238035 
L 232.902229 -259.059339 
L 233.148096 -261.880643 
L 233.457322 -264.701947 
L 233.835433 -267.523251 
L 234.28571 -270.344555 
L 234.808885 -273.165859 
L 235.402976 -275.987163 
L 236.063285 -278.808466 
L 236.78255 -281.62977 
L 237.551251 -284.451074 
L 238.358047 -287.272378 
L 239.190302 -290.093682 
L 240.034679 -292.914986 
L 240.877741 -295.73629 
L 241.706539 -298.557594 
L 242.509131 -301.378898 
L 243.275019 -304.200202 
L 243.995472 -307.021506 
L 244.663729 -309.84281 
L 245.27508 -312.664114 
L 245.826834 -315.485418 
L 246.31819 -318.306722 
L 246.750026 -321.128026 
L 247.124642 -323.94933 
L 247.445458 -326.770634 
L 247.716717 -329.591938 
L 247.943194 -332.413242 
L 248.129924 -335.234545 
L 249.485186 -335.234545 
L 249.485186 -335.234545 
L 249.671916 -332.413242 
L 249.898393 -329.591938 
L 250.169652 -326.770634 
L 250.490468 -323.94933 
L 250.865084 -321.128026 
L 251.29692 -318.306722 
L 251.788276 -315.485418 
L 252.34003 -312.664114 
L 252.951381 -309.84281 
L 253.619638 -307.021506 
L 254.340091 -304.200202 
L 255.105979 -301.378898 
L 255.908571 -298.557594 
L 256.737369 -295.73629 
L 257.580431 -292.914986 
L 258.424808 -290.093682 
L 259.257063 -287.272378 
L 260.063859 -284.451074 
L 260.83256 -281.62977 
L 261.551825 -278.808466 
L 262.212134 -275.987163 
L 262.806225 -273.165859 
L 263.3294 -270.344555 
L 263.779677 -267.523251 
L 264.157788 -264.701947 
L 264.467014 -261.880643 
L 264.712881 -259.059339 
L 264.902729 -256.238035 
L 265.045211 -253.416731 
L 265.149732 -250.595427 
L 265.225895 -247.774123 
L 265.282973 -244.952819 
L 265.329448 -242.131515 
L 265.372642 -239.310211 
L 265.418445 -236.488907 
L 265.471166 -233.667603 
L 265.533475 -230.846299 
L 265.606443 -228.024995 
L 265.689663 -225.203691 
L 265.781418 -222.382388 
L 265.878886 -219.561084 
L 265.978363 -216.73978 
L 266.075473 -213.918476 
L 266.165383 -211.097172 
L 266.242987 -208.275868 
L 266.303072 -205.454564 
L 266.340474 -202.63326 
L 266.350207 -199.811956 
L 266.327596 -196.990652 
L 266.268397 -194.169348 
L 266.168914 -191.348044 
L 266.026114 -188.52674 
L 265.83773 -185.705436 
L 265.602358 -182.884132 
L 265.319525 -180.062828 
L 264.989734 -177.241524 
L 264.614477 -174.42022 
L 264.196204 -171.598916 
L 263.738262 -168.777612 
L 263.244786 -165.956309 
L 262.720568 -163.135005 
L 262.170893 -160.313701 
L 261.601361 -157.492397 
L 261.017704 -154.671093 
L 260.425605 -151.849789 
L 259.830526 -149.028485 
L 259.237562 -146.207181 
L 258.651315 -143.385877 
L 258.075797 -140.564573 
L 257.514368 -137.743269 
L 256.969705 -134.921965 
L 256.443797 -132.100661 
L 255.937978 -129.279357 
L 255.452978 -126.458053 
L 254.989003 -123.636749 
L 254.545823 -120.815445 
L 254.122884 -117.994141 
L 253.719414 -115.172837 
L 253.334537 -112.351534 
L 252.967369 -109.53023 
L 252.617107 -106.708926 
L 252.283101 -103.887622 
L 251.964892 -101.066318 
L 251.662237 -98.245014 
L 251.375104 -95.42371 
L 251.103639 -92.602406 
L 250.84813 -89.781102 
L 250.60894 -86.959798 
L 250.386444 -84.138494 
L 250.180969 -81.31719 
L 249.992725 -78.495886 
L 249.821762 -75.674582 
L 249.667934 -72.853278 
L 249.530881 -70.031974 
L 249.410025 -67.21067 
L 249.304582 -64.389366 
L 249.213594 -61.568062 
L 249.135959 -58.746758 
L 249.070473 -55.925455 
z
" style="stroke: #3f3f3f; stroke-width: 1.25"/>
    </defs>
    <g clip-path="url(#p337cf96936)">
     <use xlink:href="#mb07e69e48f" x="0" y="360" style="fill: #3274a1; stroke: #3f3f3f; stroke-width: 1.25"/>
    </g>
   </g>
   <g id="PolyCollection_4">
    <defs>
     <path id="m0113dbfaf2" d="M 311.180142 -106.250651 
L 308.724048 -106.250651 
L 308.413409 -107.80885 
L 308.043722 -109.367049 
L 307.608976 -110.925248 
L 307.103782 -112.483446 
L 306.523696 -114.041645 
L 305.865533 -115.599844 
L 305.127675 -117.158043 
L 304.310333 -118.716242 
L 303.415752 -120.274441 
L 302.448339 -121.832639 
L 301.414695 -123.390838 
L 300.32354 -124.949037 
L 299.185539 -126.507236 
L 298.013016 -128.065435 
L 296.819589 -129.623634 
L 295.619731 -131.181832 
L 294.428292 -132.740031 
L 293.259996 -134.29823 
L 292.128967 -135.856429 
L 291.048281 -137.414628 
L 290.029587 -138.972827 
L 289.082801 -140.531025 
L 288.215886 -142.089224 
L 287.434711 -143.647423 
L 286.74299 -145.205622 
L 286.14228 -146.763821 
L 285.632032 -148.32202 
L 285.209665 -149.880218 
L 284.87067 -151.438417 
L 284.608716 -152.996616 
L 284.415769 -154.554815 
L 284.282224 -156.113014 
L 284.197061 -157.671213 
L 284.148042 -159.229411 
L 284.121967 -160.78761 
L 284.105006 -162.345809 
L 284.083116 -163.904008 
L 284.042556 -165.462207 
L 283.970482 -167.020406 
L 283.855617 -168.578604 
L 283.688952 -170.136803 
L 283.464438 -171.695002 
L 283.179622 -173.253201 
L 282.836158 -174.8114 
L 282.440141 -176.369599 
L 282.002211 -177.927797 
L 281.537388 -179.485996 
L 281.064614 -181.044195 
L 280.606005 -182.602394 
L 280.185849 -184.160593 
L 279.829377 -185.718792 
L 279.561409 -187.27699 
L 279.404949 -188.835189 
L 279.379825 -190.393388 
L 279.501491 -191.951587 
L 279.780068 -193.509786 
L 280.219705 -195.067985 
L 280.818317 -196.626183 
L 281.567707 -198.184382 
L 282.454072 -199.742581 
L 283.45886 -201.30078 
L 284.55988 -202.858979 
L 285.73262 -204.417178 
L 286.951632 -205.975376 
L 288.19191 -207.533575 
L 289.43015 -209.091774 
L 290.645814 -210.649973 
L 291.82193 -212.208172 
L 292.945606 -213.766371 
L 294.008226 -215.324569 
L 295.005351 -216.882768 
L 295.936368 -218.440967 
L 296.803918 -219.999166 
L 297.613184 -221.557365 
L 298.3711 -223.115563 
L 299.085542 -224.673762 
L 299.764568 -226.231961 
L 300.415753 -227.79016 
L 301.045659 -229.348359 
L 301.659451 -230.906558 
L 302.260682 -232.464756 
L 302.851229 -234.022955 
L 303.431369 -235.581154 
L 303.99997 -237.139353 
L 304.554765 -238.697552 
L 305.092677 -240.255751 
L 305.610166 -241.813949 
L 306.103565 -243.372148 
L 306.569386 -244.930347 
L 307.004574 -246.488546 
L 307.406704 -248.046745 
L 307.774101 -249.604944 
L 308.105906 -251.163142 
L 308.402075 -252.721341 
L 308.663327 -254.27954 
L 308.891056 -255.837739 
L 309.087213 -257.395938 
L 309.254171 -258.954137 
L 309.394594 -260.512335 
L 310.509596 -260.512335 
L 310.509596 -260.512335 
L 310.650019 -258.954137 
L 310.816977 -257.395938 
L 311.013134 -255.837739 
L 311.240863 -254.27954 
L 311.502115 -252.721341 
L 311.798284 -251.163142 
L 312.130089 -249.604944 
L 312.497486 -248.046745 
L 312.899616 -246.488546 
L 313.334804 -244.930347 
L 313.800625 -243.372148 
L 314.294024 -241.813949 
L 314.811513 -240.255751 
L 315.349425 -238.697552 
L 315.90422 -237.139353 
L 316.472821 -235.581154 
L 317.052961 -234.022955 
L 317.643508 -232.464756 
L 318.244739 -230.906558 
L 318.858531 -229.348359 
L 319.488437 -227.79016 
L 320.139622 -226.231961 
L 320.818648 -224.673762 
L 321.53309 -223.115563 
L 322.291006 -221.557365 
L 323.100272 -219.999166 
L 323.967822 -218.440967 
L 324.898839 -216.882768 
L 325.895964 -215.324569 
L 326.958584 -213.766371 
L 328.08226 -212.208172 
L 329.258376 -210.649973 
L 330.47404 -209.091774 
L 331.71228 -207.533575 
L 332.952558 -205.975376 
L 334.17157 -204.417178 
L 335.34431 -202.858979 
L 336.44533 -201.30078 
L 337.450118 -199.742581 
L 338.336483 -198.184382 
L 339.085873 -196.626183 
L 339.684485 -195.067985 
L 340.124122 -193.509786 
L 340.402699 -191.951587 
L 340.524365 -190.393388 
L 340.499241 -188.835189 
L 340.342781 -187.27699 
L 340.074813 -185.718792 
L 339.718341 -184.160593 
L 339.298185 -182.602394 
L 338.839576 -181.044195 
L 338.366802 -179.485996 
L 337.901979 -177.927797 
L 337.464049 -176.369599 
L 337.068032 -174.8114 
L 336.724568 -173.253201 
L 336.439752 -171.695002 
L 336.215238 -170.136803 
L 336.048573 -168.578604 
L 335.933708 -167.020406 
L 335.861634 -165.462207 
L 335.821074 -163.904008 
L 335.799184 -162.345809 
L 335.782223 -160.78761 
L 335.756148 -159.229411 
L 335.707129 -157.671213 
L 335.621966 -156.113014 
L 335.488421 -154.554815 
L 335.295474 -152.996616 
L 335.03352 -151.438417 
L 334.694525 -149.880218 
L 334.272158 -148.32202 
L 333.76191 -146.763821 
L 333.1612 -145.205622 
L 332.469479 -143.647423 
L 331.688304 -142.089224 
L 330.821389 -140.531025 
L 329.874603 -138.972827 
L 328.855909 -137.414628 
L 327.775223 -135.856429 
L 326.644194 -134.29823 
L 325.475898 -132.740031 
L 324.284459 -131.181832 
L 323.084601 -129.623634 
L 321.891174 -128.065435 
L 320.718651 -126.507236 
L 319.58065 -124.949037 
L 318.489495 -123.390838 
L 317.455851 -121.832639 
L 316.488438 -120.274441 
L 315.593857 -118.716242 
L 314.776515 -117.158043 
L 314.038657 -115.599844 
L 313.380494 -114.041645 
L 312.800408 -112.483446 
L 312.295214 -110.925248 
L 311.860468 -109.367049 
L 311.490781 -107.80885 
L 311.180142 -106.250651 
z
" style="stroke: #3f3f3f; stroke-width: 1.25"/>
    </defs>
    <g clip-path="url(#p337cf96936)">
     <use xlink:href="#m0113dbfaf2" x="0" y="360" style="fill: #e1812c; stroke: #3f3f3f; stroke-width: 1.25"/>
    </g>
   </g>
   <g id="patch_3">
    <path d="M 126.518475 320.8258 
L 126.518475 320.8258 
L 126.518475 320.8258 
L 126.518475 320.8258 
z
" clip-path="url(#p337cf96936)" style="fill: #3274a1; stroke: #3f3f3f; stroke-width: 1.25; stroke-linejoin: miter"/>
   </g>
   <g id="patch_4">
    <path d="M 126.518475 320.8258 
L 126.518475 320.8258 
L 126.518475 320.8258 
L 126.518475 320.8258 
z
" clip-path="url(#p337cf96936)" style="fill: #e1812c; stroke: #3f3f3f; stroke-width: 1.25; stroke-linejoin: miter"/>
   </g>
   <g id="line2d_7">
    <path d="M 95.946205 221.527118 
L 95.946205 104.394285 
" clip-path="url(#p337cf96936)" style="fill: none; stroke: #3f3f3f; stroke-width: 1.875; stroke-linecap: round"/>
   </g>
   <g id="line2d_8">
    <path d="M 95.946205 194.424732 
L 95.946205 143.256769 
" clip-path="url(#p337cf96936)" style="fill: none; stroke: #3f3f3f; stroke-width: 5.625; stroke-linecap: round"/>
   </g>
   <g id="line2d_9">
    <path d="M 95.946205 182.463597 
" clip-path="url(#p337cf96936)" style="fill: none; stroke: #3f3f3f; stroke-width: 1.5; stroke-linecap: round"/>
    <defs>
     <path id="m8b7c36534f" d="M 2.34375 0 
L -2.34375 -0 
" style="stroke: #ffffff; stroke-width: 1.125"/>
    </defs>
    <g clip-path="url(#p337cf96936)">
     <use xlink:href="#m8b7c36534f" x="95.946205" y="182.463597" style="fill: #ffffff; stroke: #ffffff; stroke-width: 1.125"/>
    </g>
   </g>
   <g id="line2d_10">
    <path d="M 157.090745 247.278089 
L 157.090745 116.240306 
" clip-path="url(#p337cf96936)" style="fill: none; stroke: #3f3f3f; stroke-width: 1.875; stroke-linecap: round"/>
   </g>
   <g id="line2d_11">
    <path d="M 157.090745 214.40348 
L 157.090745 154.182645 
" clip-path="url(#p337cf96936)" style="fill: none; stroke: #3f3f3f; stroke-width: 5.625; stroke-linecap: round"/>
   </g>
   <g id="line2d_12">
    <path d="M 157.090745 186.124692 
" clip-path="url(#p337cf96936)" style="fill: none; stroke: #3f3f3f; stroke-width: 1.5; stroke-linecap: round"/>
    <g clip-path="url(#p337cf96936)">
     <use xlink:href="#m8b7c36534f" x="157.090745" y="186.124692" style="fill: #ffffff; stroke: #ffffff; stroke-width: 1.125"/>
    </g>
   </g>
   <g id="line2d_13">
    <path d="M 248.807555 251.89065 
L 248.807555 76.94935 
" clip-path="url(#p337cf96936)" style="fill: none; stroke: #3f3f3f; stroke-width: 1.875; stroke-linecap: round"/>
   </g>
   <g id="line2d_14">
    <path d="M 248.807555 181.767942 
L 248.807555 105.027213 
" clip-path="url(#p337cf96936)" style="fill: none; stroke: #3f3f3f; stroke-width: 5.625; stroke-linecap: round"/>
   </g>
   <g id="line2d_15">
    <path d="M 248.807555 149.300394 
" clip-path="url(#p337cf96936)" style="fill: none; stroke: #3f3f3f; stroke-width: 1.5; stroke-linecap: round"/>
    <g clip-path="url(#p337cf96936)">
     <use xlink:href="#m8b7c36534f" x="248.807555" y="149.300394" style="fill: #ffffff; stroke: #ffffff; stroke-width: 1.125"/>
    </g>
   </g>
   <g id="line2d_16">
    <path d="M 309.952095 224.354398 
L 309.952095 128.882616 
" clip-path="url(#p337cf96936)" style="fill: none; stroke: #3f3f3f; stroke-width: 1.875; stroke-linecap: round"/>
   </g>
   <g id="line2d_17">
    <path d="M 309.952095 205.126181 
L 309.952095 164.914151 
" clip-path="url(#p337cf96936)" style="fill: none; stroke: #3f3f3f; stroke-width: 5.625; stroke-linecap: round"/>
   </g>
   <g id="line2d_18">
    <path d="M 309.952095 178.027868 
" clip-path="url(#p337cf96936)" style="fill: none; stroke: #3f3f3f; stroke-width: 1.5; stroke-linecap: round"/>
    <g clip-path="url(#p337cf96936)">
     <use xlink:href="#m8b7c36534f" x="309.952095" y="178.027868" style="fill: #ffffff; stroke: #ffffff; stroke-width: 1.125"/>
    </g>
   </g>
   <g id="patch_5">
    <path d="M 50.0878 318.04 
L 50.0878 10.8 
" style="fill: none; stroke: #cccccc; stroke-width: 0.8; stroke-linejoin: miter; stroke-linecap: square"/>
   </g>
   <g id="patch_6">
    <path d="M 50.0878 318.04 
L 355.8105 318.04 
" style="fill: none; stroke: #cccccc; stroke-width: 0.8; stroke-linejoin: miter; stroke-linecap: square"/>
   </g>
  </g>
  <g id="legend_1">
   <g id="text_11">
    <!-- Time -->
    <g style="fill: #262626" transform="translate(373.633594 168.439844) scale(0.1 -0.1)">
     <defs>
      <path id="ArialMT-54" d="M 1659 0 
L 1659 4041 
L 150 4041 
L 150 4581 
L 3781 4581 
L 3781 4041 
L 2266 4041 
L 2266 0 
L 1659 0 
z
" transform="scale(0.015625)"/>
     </defs>
     <use xlink:href="#ArialMT-54"/>
     <use xlink:href="#ArialMT-69" x="57.333984"/>
     <use xlink:href="#ArialMT-6d" x="79.550781"/>
     <use xlink:href="#ArialMT-65" x="162.851562"/>
    </g>
   </g>
   <g id="patch_7">
    <path d="M 359.1625 182.585156 
L 379.1625 182.585156 
L 379.1625 175.585156 
L 359.1625 175.585156 
z
" style="fill: #3274a1; stroke: #3f3f3f; stroke-width: 1.25; stroke-linejoin: miter"/>
   </g>
   <g id="text_12">
    <!-- initial -->
    <g style="fill: #262626" transform="translate(387.1625 182.585156) scale(0.1 -0.1)">
     <use xlink:href="#ArialMT-69"/>
     <use xlink:href="#ArialMT-6e" x="22.216797"/>
     <use xlink:href="#ArialMT-69" x="77.832031"/>
     <use xlink:href="#ArialMT-74" x="100.048828"/>
     <use xlink:href="#ArialMT-69" x="127.832031"/>
     <use xlink:href="#ArialMT-61" x="150.048828"/>
     <use xlink:href="#ArialMT-6c" x="205.664062"/>
    </g>
   </g>
   <g id="patch_8">
    <path d="M 359.1625 196.730469 
L 379.1625 196.730469 
L 379.1625 189.730469 
L 359.1625 189.730469 
z
" style="fill: #e1812c; stroke: #3f3f3f; stroke-width: 1.25; stroke-linejoin: miter"/>
   </g>
   <g id="text_13">
    <!-- final -->
    <g style="fill: #262626" transform="translate(387.1625 196.730469) scale(0.1 -0.1)">
     <use xlink:href="#ArialMT-66"/>
     <use xlink:href="#ArialMT-69" x="27.783203"/>
     <use xlink:href="#ArialMT-6e" x="50"/>
     <use xlink:href="#ArialMT-61" x="105.615234"/>
     <use xlink:href="#ArialMT-6c" x="161.230469"/>
    </g>
   </g>
  </g>
 </g>
 <defs>
  <clipPath id="p337cf96936">
   <rect x="50.0878" y="10.8" width="305.7227" height="307.24"/>
  </clipPath>
 </defs>
</svg>
