<?xml version="1.0" encoding="utf-8" standalone="no"?>
<!DOCTYPE svg PUBLIC "-//W3C//DTD SVG 1.1//EN"
  "http://www.w3.org/Graphics/SVG/1.1/DTD/svg11.dtd">
<svg xmlns:xlink="http://www.w3.org/1999/xlink" width="418.95pt" height="360pt" viewBox="0 0 418.95 360" xmlns="http://www.w3.org/2000/svg" version="1.1">
 <metadata>
  <rdf:RDF xmlns:dc="http://purl.org/dc/elements/1.1/" xmlns:cc="http://creativecommons.org/ns#" xmlns:rdf="http://www.w3.org/1999/02/22-rdf-syntax-ns#">
   <cc:Work>
    <dc:type rdf:resource="http://purl.org/dc/dcmitype/StillImage"/>
    <dc:date>2024-09-10T22:07:17.078114</dc:date>
    <dc:format>image/svg+xml</dc:format>
    <dc:creator>
     <cc:Agent>
      <dc:title>Matplotlib v3.8.3, https://matplotlib.org/</dc:title>
     </cc:Agent>
    </dc:creator>
   </cc:Work>
  </rdf:RDF>
 </metadata>
 <defs>
  <style type="text/css">*{stroke-linejoin: round; stroke-linecap: butt}</style>
 </defs>
 <g id="figure_1">
  <g id="patch_1">
   <path d="M 0 360 
L 418.95 360 
L 418.95 0 
L 0 0 
z
" style="fill: #ffffff"/>
  </g>
  <g id="axes_1">
   <g id="patch_2">
    <path d="M 50.0878 318.04 
L 355.8105 318.04 
L 355.8105 10.8 
L 50.0878 10.8 
z
" style="fill: #ffffff"/>
   </g>
   <g id="matplotlib.axis_1">
    <g id="xtick_1">
     <g id="text_1">
      <!-- f -->
      <g style="fill: #262626" transform="translate(125.129413 332.197812) scale(0.1 -0.1)">
       <defs>
        <path id="ArialMT-66" d="M 556 0 
L 556 2881 
L 59 2881 
L 59 3319 
L 556 3319 
L 556 3672 
Q 556 4006 616 4169 
Q 697 4388 901 4523 
Q 1106 4659 1475 4659 
Q 1713 4659 2000 4603 
L 1916 4113 
Q 1741 4144 1584 4144 
Q 1328 4144 1222 4034 
Q 1116 3925 1116 3625 
L 1116 3319 
L 1763 3319 
L 1763 2881 
L 1116 2881 
L 1116 0 
L 556 0 
z
" transform="scale(0.015625)"/>
       </defs>
       <use xlink:href="#ArialMT-66"/>
      </g>
     </g>
    </g>
    <g id="xtick_2">
     <g id="text_2">
      <!-- m -->
      <g style="fill: #262626" transform="translate(275.214981 332.197812) scale(0.1 -0.1)">
       <defs>
        <path id="ArialMT-6d" d="M 422 0 
L 422 3319 
L 925 3319 
L 925 2853 
Q 1081 3097 1340 3245 
Q 1600 3394 1931 3394 
Q 2300 3394 2536 3241 
Q 2772 3088 2869 2813 
Q 3263 3394 3894 3394 
Q 4388 3394 4653 3120 
Q 4919 2847 4919 2278 
L 4919 0 
L 4359 0 
L 4359 2091 
Q 4359 2428 4304 2576 
Q 4250 2725 4106 2815 
Q 3963 2906 3769 2906 
Q 3419 2906 3187 2673 
Q 2956 2441 2956 1928 
L 2956 0 
L 2394 0 
L 2394 2156 
Q 2394 2531 2256 2718 
Q 2119 2906 1806 2906 
Q 1569 2906 1367 2781 
Q 1166 2656 1075 2415 
Q 984 2175 984 1722 
L 984 0 
L 422 0 
z
" transform="scale(0.015625)"/>
       </defs>
       <use xlink:href="#ArialMT-6d"/>
      </g>
     </g>
    </g>
    <g id="text_3">
     <!-- sex -->
     <g style="fill: #262626" transform="translate(195.168681 345.343125) scale(0.1 -0.1)">
      <defs>
       <path id="ArialMT-73" d="M 197 991 
L 753 1078 
Q 800 744 1014 566 
Q 1228 388 1613 388 
Q 2000 388 2187 545 
Q 2375 703 2375 916 
Q 2375 1106 2209 1216 
Q 2094 1291 1634 1406 
Q 1016 1563 777 1677 
Q 538 1791 414 1992 
Q 291 2194 291 2438 
Q 291 2659 392 2848 
Q 494 3038 669 3163 
Q 800 3259 1026 3326 
Q 1253 3394 1513 3394 
Q 1903 3394 2198 3281 
Q 2494 3169 2634 2976 
Q 2775 2784 2828 2463 
L 2278 2388 
Q 2241 2644 2061 2787 
Q 1881 2931 1553 2931 
Q 1166 2931 1000 2803 
Q 834 2675 834 2503 
Q 834 2394 903 2306 
Q 972 2216 1119 2156 
Q 1203 2125 1616 2013 
Q 2213 1853 2448 1751 
Q 2684 1650 2818 1456 
Q 2953 1263 2953 975 
Q 2953 694 2789 445 
Q 2625 197 2315 61 
Q 2006 -75 1616 -75 
Q 969 -75 630 194 
Q 291 463 197 991 
z
" transform="scale(0.015625)"/>
       <path id="ArialMT-65" d="M 2694 1069 
L 3275 997 
Q 3138 488 2766 206 
Q 2394 -75 1816 -75 
Q 1088 -75 661 373 
Q 234 822 234 1631 
Q 234 2469 665 2931 
Q 1097 3394 1784 3394 
Q 2450 3394 2872 2941 
Q 3294 2488 3294 1666 
Q 3294 1616 3291 1516 
L 816 1516 
Q 847 969 1125 678 
Q 1403 388 1819 388 
Q 2128 388 2347 550 
Q 2566 713 2694 1069 
z
M 847 1978 
L 2700 1978 
Q 2663 2397 2488 2606 
Q 2219 2931 1791 2931 
Q 1403 2931 1139 2672 
Q 875 2413 847 1978 
z
" transform="scale(0.015625)"/>
       <path id="ArialMT-78" d="M 47 0 
L 1259 1725 
L 138 3319 
L 841 3319 
L 1350 2541 
Q 1494 2319 1581 2169 
Q 1719 2375 1834 2534 
L 2394 3319 
L 3066 3319 
L 1919 1756 
L 3153 0 
L 2463 0 
L 1781 1031 
L 1600 1309 
L 728 0 
L 47 0 
z
" transform="scale(0.015625)"/>
      </defs>
      <use xlink:href="#ArialMT-73"/>
      <use xlink:href="#ArialMT-65" x="50"/>
      <use xlink:href="#ArialMT-78" x="105.615234"/>
     </g>
    </g>
   </g>
   <g id="matplotlib.axis_2">
    <g id="ytick_1">
     <g id="line2d_1">
      <path d="M 50.0878 296.006987 
L 355.8105 296.006987 
" clip-path="url(#p2f644705ae)" style="fill: none; stroke: #cccccc; stroke-width: 0.8; stroke-linecap: round"/>
     </g>
     <g id="text_4">
      <!-- 5 -->
      <g style="fill: #262626" transform="translate(37.526863 299.585894) scale(0.1 -0.1)">
       <defs>
        <path id="ArialMT-35" d="M 266 1200 
L 856 1250 
Q 922 819 1161 601 
Q 1400 384 1738 384 
Q 2144 384 2425 690 
Q 2706 997 2706 1503 
Q 2706 1984 2436 2262 
Q 2166 2541 1728 2541 
Q 1456 2541 1237 2417 
Q 1019 2294 894 2097 
L 366 2166 
L 809 4519 
L 3088 4519 
L 3088 3981 
L 1259 3981 
L 1013 2750 
Q 1425 3038 1878 3038 
Q 2478 3038 2890 2622 
Q 3303 2206 3303 1553 
Q 3303 931 2941 478 
Q 2500 -78 1738 -78 
Q 1113 -78 717 272 
Q 322 622 266 1200 
z
" transform="scale(0.015625)"/>
       </defs>
       <use xlink:href="#ArialMT-35"/>
      </g>
     </g>
    </g>
    <g id="ytick_2">
     <g id="line2d_2">
      <path d="M 50.0878 239.963062 
L 355.8105 239.963062 
" clip-path="url(#p2f644705ae)" style="fill: none; stroke: #cccccc; stroke-width: 0.8; stroke-linecap: round"/>
     </g>
     <g id="text_5">
      <!-- 10 -->
      <g style="fill: #262626" transform="translate(31.965925 243.541968) scale(0.1 -0.1)">
       <defs>
        <path id="ArialMT-31" d="M 2384 0 
L 1822 0 
L 1822 3584 
Q 1619 3391 1289 3197 
Q 959 3003 697 2906 
L 697 3450 
Q 1169 3672 1522 3987 
Q 1875 4303 2022 4600 
L 2384 4600 
L 2384 0 
z
" transform="scale(0.015625)"/>
        <path id="ArialMT-30" d="M 266 2259 
Q 266 3072 433 3567 
Q 600 4063 929 4331 
Q 1259 4600 1759 4600 
Q 2128 4600 2406 4451 
Q 2684 4303 2865 4023 
Q 3047 3744 3150 3342 
Q 3253 2941 3253 2259 
Q 3253 1453 3087 958 
Q 2922 463 2592 192 
Q 2263 -78 1759 -78 
Q 1097 -78 719 397 
Q 266 969 266 2259 
z
M 844 2259 
Q 844 1131 1108 757 
Q 1372 384 1759 384 
Q 2147 384 2411 759 
Q 2675 1134 2675 2259 
Q 2675 3391 2411 3762 
Q 2147 4134 1753 4134 
Q 1366 4134 1134 3806 
Q 844 3388 844 2259 
z
" transform="scale(0.015625)"/>
       </defs>
       <use xlink:href="#ArialMT-31"/>
       <use xlink:href="#ArialMT-30" x="55.615234"/>
      </g>
     </g>
    </g>
    <g id="ytick_3">
     <g id="line2d_3">
      <path d="M 50.0878 183.919136 
L 355.8105 183.919136 
" clip-path="url(#p2f644705ae)" style="fill: none; stroke: #cccccc; stroke-width: 0.8; stroke-linecap: round"/>
     </g>
     <g id="text_6">
      <!-- 15 -->
      <g style="fill: #262626" transform="translate(31.965925 187.498042) scale(0.1 -0.1)">
       <use xlink:href="#ArialMT-31"/>
       <use xlink:href="#ArialMT-35" x="55.615234"/>
      </g>
     </g>
    </g>
    <g id="ytick_4">
     <g id="line2d_4">
      <path d="M 50.0878 127.875211 
L 355.8105 127.875211 
" clip-path="url(#p2f644705ae)" style="fill: none; stroke: #cccccc; stroke-width: 0.8; stroke-linecap: round"/>
     </g>
     <g id="text_7">
      <!-- 20 -->
      <g style="fill: #262626" transform="translate(31.965925 131.454117) scale(0.1 -0.1)">
       <defs>
        <path id="ArialMT-32" d="M 3222 541 
L 3222 0 
L 194 0 
Q 188 203 259 391 
Q 375 700 629 1000 
Q 884 1300 1366 1694 
Q 2113 2306 2375 2664 
Q 2638 3022 2638 3341 
Q 2638 3675 2398 3904 
Q 2159 4134 1775 4134 
Q 1369 4134 1125 3890 
Q 881 3647 878 3216 
L 300 3275 
Q 359 3922 746 4261 
Q 1134 4600 1788 4600 
Q 2447 4600 2831 4234 
Q 3216 3869 3216 3328 
Q 3216 3053 3103 2787 
Q 2991 2522 2730 2228 
Q 2469 1934 1863 1422 
Q 1356 997 1212 845 
Q 1069 694 975 541 
L 3222 541 
z
" transform="scale(0.015625)"/>
       </defs>
       <use xlink:href="#ArialMT-32"/>
       <use xlink:href="#ArialMT-30" x="55.615234"/>
      </g>
     </g>
    </g>
    <g id="ytick_5">
     <g id="line2d_5">
      <path d="M 50.0878 71.831285 
L 355.8105 71.831285 
" clip-path="url(#p2f644705ae)" style="fill: none; stroke: #cccccc; stroke-width: 0.8; stroke-linecap: round"/>
     </g>
     <g id="text_8">
      <!-- 25 -->
      <g style="fill: #262626" transform="translate(31.965925 75.410191) scale(0.1 -0.1)">
       <use xlink:href="#ArialMT-32"/>
       <use xlink:href="#ArialMT-35" x="55.615234"/>
      </g>
     </g>
    </g>
    <g id="ytick_6">
     <g id="line2d_6">
      <path d="M 50.0878 15.787359 
L 355.8105 15.787359 
" clip-path="url(#p2f644705ae)" style="fill: none; stroke: #cccccc; stroke-width: 0.8; stroke-linecap: round"/>
     </g>
     <g id="text_9">
      <!-- 30 -->
      <g style="fill: #262626" transform="translate(31.965925 19.366266) scale(0.1 -0.1)">
       <defs>
        <path id="ArialMT-33" d="M 269 1209 
L 831 1284 
Q 928 806 1161 595 
Q 1394 384 1728 384 
Q 2125 384 2398 659 
Q 2672 934 2672 1341 
Q 2672 1728 2419 1979 
Q 2166 2231 1775 2231 
Q 1616 2231 1378 2169 
L 1441 2663 
Q 1497 2656 1531 2656 
Q 1891 2656 2178 2843 
Q 2466 3031 2466 3422 
Q 2466 3731 2256 3934 
Q 2047 4138 1716 4138 
Q 1388 4138 1169 3931 
Q 950 3725 888 3313 
L 325 3413 
Q 428 3978 793 4289 
Q 1159 4600 1703 4600 
Q 2078 4600 2393 4439 
Q 2709 4278 2876 4000 
Q 3044 3722 3044 3409 
Q 3044 3113 2884 2869 
Q 2725 2625 2413 2481 
Q 2819 2388 3044 2092 
Q 3269 1797 3269 1353 
Q 3269 753 2831 336 
Q 2394 -81 1725 -81 
Q 1122 -81 723 278 
Q 325 638 269 1209 
z
" transform="scale(0.015625)"/>
       </defs>
       <use xlink:href="#ArialMT-33"/>
       <use xlink:href="#ArialMT-30" x="55.615234"/>
      </g>
     </g>
    </g>
    <g id="text_10">
     <!-- Relative O2 intake (ml/kg/min) -->
     <g style="fill: #262626" transform="translate(25.861237 231.381719) rotate(-90) scale(0.1 -0.1)">
      <defs>
       <path id="ArialMT-52" d="M 503 0 
L 503 4581 
L 2534 4581 
Q 3147 4581 3465 4457 
Q 3784 4334 3975 4021 
Q 4166 3709 4166 3331 
Q 4166 2844 3850 2509 
Q 3534 2175 2875 2084 
Q 3116 1969 3241 1856 
Q 3506 1613 3744 1247 
L 4541 0 
L 3778 0 
L 3172 953 
Q 2906 1366 2734 1584 
Q 2563 1803 2427 1890 
Q 2291 1978 2150 2013 
Q 2047 2034 1813 2034 
L 1109 2034 
L 1109 0 
L 503 0 
z
M 1109 2559 
L 2413 2559 
Q 2828 2559 3062 2645 
Q 3297 2731 3419 2920 
Q 3541 3109 3541 3331 
Q 3541 3656 3305 3865 
Q 3069 4075 2559 4075 
L 1109 4075 
L 1109 2559 
z
" transform="scale(0.015625)"/>
       <path id="ArialMT-6c" d="M 409 0 
L 409 4581 
L 972 4581 
L 972 0 
L 409 0 
z
" transform="scale(0.015625)"/>
       <path id="ArialMT-61" d="M 2588 409 
Q 2275 144 1986 34 
Q 1697 -75 1366 -75 
Q 819 -75 525 192 
Q 231 459 231 875 
Q 231 1119 342 1320 
Q 453 1522 633 1644 
Q 813 1766 1038 1828 
Q 1203 1872 1538 1913 
Q 2219 1994 2541 2106 
Q 2544 2222 2544 2253 
Q 2544 2597 2384 2738 
Q 2169 2928 1744 2928 
Q 1347 2928 1158 2789 
Q 969 2650 878 2297 
L 328 2372 
Q 403 2725 575 2942 
Q 747 3159 1072 3276 
Q 1397 3394 1825 3394 
Q 2250 3394 2515 3294 
Q 2781 3194 2906 3042 
Q 3031 2891 3081 2659 
Q 3109 2516 3109 2141 
L 3109 1391 
Q 3109 606 3145 398 
Q 3181 191 3288 0 
L 2700 0 
Q 2613 175 2588 409 
z
M 2541 1666 
Q 2234 1541 1622 1453 
Q 1275 1403 1131 1340 
Q 988 1278 909 1158 
Q 831 1038 831 891 
Q 831 666 1001 516 
Q 1172 366 1500 366 
Q 1825 366 2078 508 
Q 2331 650 2450 897 
Q 2541 1088 2541 1459 
L 2541 1666 
z
" transform="scale(0.015625)"/>
       <path id="ArialMT-74" d="M 1650 503 
L 1731 6 
Q 1494 -44 1306 -44 
Q 1000 -44 831 53 
Q 663 150 594 308 
Q 525 466 525 972 
L 525 2881 
L 113 2881 
L 113 3319 
L 525 3319 
L 525 4141 
L 1084 4478 
L 1084 3319 
L 1650 3319 
L 1650 2881 
L 1084 2881 
L 1084 941 
Q 1084 700 1114 631 
Q 1144 563 1211 522 
Q 1278 481 1403 481 
Q 1497 481 1650 503 
z
" transform="scale(0.015625)"/>
       <path id="ArialMT-69" d="M 425 3934 
L 425 4581 
L 988 4581 
L 988 3934 
L 425 3934 
z
M 425 0 
L 425 3319 
L 988 3319 
L 988 0 
L 425 0 
z
" transform="scale(0.015625)"/>
       <path id="ArialMT-76" d="M 1344 0 
L 81 3319 
L 675 3319 
L 1388 1331 
Q 1503 1009 1600 663 
Q 1675 925 1809 1294 
L 2547 3319 
L 3125 3319 
L 1869 0 
L 1344 0 
z
" transform="scale(0.015625)"/>
       <path id="ArialMT-20" transform="scale(0.015625)"/>
       <path id="ArialMT-4f" d="M 309 2231 
Q 309 3372 921 4017 
Q 1534 4663 2503 4663 
Q 3138 4663 3647 4359 
Q 4156 4056 4423 3514 
Q 4691 2972 4691 2284 
Q 4691 1588 4409 1038 
Q 4128 488 3612 205 
Q 3097 -78 2500 -78 
Q 1853 -78 1343 234 
Q 834 547 571 1087 
Q 309 1628 309 2231 
z
M 934 2222 
Q 934 1394 1379 917 
Q 1825 441 2497 441 
Q 3181 441 3623 922 
Q 4066 1403 4066 2288 
Q 4066 2847 3877 3264 
Q 3688 3681 3323 3911 
Q 2959 4141 2506 4141 
Q 1863 4141 1398 3698 
Q 934 3256 934 2222 
z
" transform="scale(0.015625)"/>
       <path id="ArialMT-6e" d="M 422 0 
L 422 3319 
L 928 3319 
L 928 2847 
Q 1294 3394 1984 3394 
Q 2284 3394 2536 3286 
Q 2788 3178 2913 3003 
Q 3038 2828 3088 2588 
Q 3119 2431 3119 2041 
L 3119 0 
L 2556 0 
L 2556 2019 
Q 2556 2363 2490 2533 
Q 2425 2703 2258 2804 
Q 2091 2906 1866 2906 
Q 1506 2906 1245 2678 
Q 984 2450 984 1813 
L 984 0 
L 422 0 
z
" transform="scale(0.015625)"/>
       <path id="ArialMT-6b" d="M 425 0 
L 425 4581 
L 988 4581 
L 988 1969 
L 2319 3319 
L 3047 3319 
L 1778 2088 
L 3175 0 
L 2481 0 
L 1384 1697 
L 988 1316 
L 988 0 
L 425 0 
z
" transform="scale(0.015625)"/>
       <path id="ArialMT-28" d="M 1497 -1347 
Q 1031 -759 709 28 
Q 388 816 388 1659 
Q 388 2403 628 3084 
Q 909 3875 1497 4659 
L 1900 4659 
Q 1522 4009 1400 3731 
Q 1209 3300 1100 2831 
Q 966 2247 966 1656 
Q 966 153 1900 -1347 
L 1497 -1347 
z
" transform="scale(0.015625)"/>
       <path id="ArialMT-2f" d="M 0 -78 
L 1328 4659 
L 1778 4659 
L 453 -78 
L 0 -78 
z
" transform="scale(0.015625)"/>
       <path id="ArialMT-67" d="M 319 -275 
L 866 -356 
Q 900 -609 1056 -725 
Q 1266 -881 1628 -881 
Q 2019 -881 2231 -725 
Q 2444 -569 2519 -288 
Q 2563 -116 2559 434 
Q 2191 0 1641 0 
Q 956 0 581 494 
Q 206 988 206 1678 
Q 206 2153 378 2554 
Q 550 2956 876 3175 
Q 1203 3394 1644 3394 
Q 2231 3394 2613 2919 
L 2613 3319 
L 3131 3319 
L 3131 450 
Q 3131 -325 2973 -648 
Q 2816 -972 2473 -1159 
Q 2131 -1347 1631 -1347 
Q 1038 -1347 672 -1080 
Q 306 -813 319 -275 
z
M 784 1719 
Q 784 1066 1043 766 
Q 1303 466 1694 466 
Q 2081 466 2343 764 
Q 2606 1063 2606 1700 
Q 2606 2309 2336 2618 
Q 2066 2928 1684 2928 
Q 1309 2928 1046 2623 
Q 784 2319 784 1719 
z
" transform="scale(0.015625)"/>
       <path id="ArialMT-29" d="M 791 -1347 
L 388 -1347 
Q 1322 153 1322 1656 
Q 1322 2244 1188 2822 
Q 1081 3291 891 3722 
Q 769 4003 388 4659 
L 791 4659 
Q 1378 3875 1659 3084 
Q 1900 2403 1900 1659 
Q 1900 816 1576 28 
Q 1253 -759 791 -1347 
z
" transform="scale(0.015625)"/>
      </defs>
      <use xlink:href="#ArialMT-52"/>
      <use xlink:href="#ArialMT-65" x="72.216797"/>
      <use xlink:href="#ArialMT-6c" x="127.832031"/>
      <use xlink:href="#ArialMT-61" x="150.048828"/>
      <use xlink:href="#ArialMT-74" x="205.664062"/>
      <use xlink:href="#ArialMT-69" x="233.447266"/>
      <use xlink:href="#ArialMT-76" x="255.664062"/>
      <use xlink:href="#ArialMT-65" x="305.664062"/>
      <use xlink:href="#ArialMT-20" x="361.279297"/>
      <use xlink:href="#ArialMT-4f" x="389.0625"/>
      <use xlink:href="#ArialMT-32" x="466.845703"/>
      <use xlink:href="#ArialMT-20" x="522.460938"/>
      <use xlink:href="#ArialMT-69" x="550.244141"/>
      <use xlink:href="#ArialMT-6e" x="572.460938"/>
      <use xlink:href="#ArialMT-74" x="628.076172"/>
      <use xlink:href="#ArialMT-61" x="655.859375"/>
      <use xlink:href="#ArialMT-6b" x="711.474609"/>
      <use xlink:href="#ArialMT-65" x="761.474609"/>
      <use xlink:href="#ArialMT-20" x="817.089844"/>
      <use xlink:href="#ArialMT-28" x="844.873047"/>
      <use xlink:href="#ArialMT-6d" x="878.173828"/>
      <use xlink:href="#ArialMT-6c" x="961.474609"/>
      <use xlink:href="#ArialMT-2f" x="983.691406"/>
      <use xlink:href="#ArialMT-6b" x="1011.474609"/>
      <use xlink:href="#ArialMT-67" x="1061.474609"/>
      <use xlink:href="#ArialMT-2f" x="1117.089844"/>
      <use xlink:href="#ArialMT-6d" x="1144.873047"/>
      <use xlink:href="#ArialMT-69" x="1228.173828"/>
      <use xlink:href="#ArialMT-6e" x="1250.390625"/>
      <use xlink:href="#ArialMT-29" x="1306.005859"/>
     </g>
    </g>
   </g>
   <g id="PolyCollection_1">
    <defs>
     <path id="m150147fbb7" d="M 97.210145 -93.480043 
L 94.682265 -93.480043 
L 94.382975 -95.02677 
L 94.028625 -96.573496 
L 93.613076 -98.120223 
L 93.130417 -99.666949 
L 92.575198 -101.213676 
L 91.942682 -102.760402 
L 91.229118 -104.307129 
L 90.432007 -105.853855 
L 89.550362 -107.400582 
L 88.584942 -108.947308 
L 87.538436 -110.494035 
L 86.415595 -112.040761 
L 85.223302 -113.587488 
L 83.970541 -115.134214 
L 82.668302 -116.680941 
L 81.32938 -118.227667 
L 79.968093 -119.774394 
L 78.599924 -121.321121 
L 77.24109 -122.867847 
L 75.908073 -124.414574 
L 74.61711 -125.9613 
L 73.383689 -127.508027 
L 72.222059 -129.054753 
L 71.144779 -130.60148 
L 70.16233 -132.148206 
L 69.282807 -133.694933 
L 68.511697 -135.241659 
L 67.851758 -136.788386 
L 67.302995 -138.335112 
L 66.862732 -139.881839 
L 66.525774 -141.428565 
L 66.284648 -142.975292 
L 66.129908 -144.522019 
L 66.050491 -146.068745 
L 66.034111 -147.615472 
L 66.067682 -149.162198 
L 66.137739 -150.708925 
L 66.230882 -152.255651 
L 66.334187 -153.802378 
L 66.435625 -155.349104 
L 66.524437 -156.895831 
L 66.591486 -158.442557 
L 66.629571 -159.989284 
L 66.633679 -161.53601 
L 66.601188 -163.082737 
L 66.531986 -164.629463 
L 66.428514 -166.17619 
L 66.295719 -167.722917 
L 66.140903 -169.269643 
L 65.973476 -170.81637 
L 65.80461 -172.363096 
L 65.646811 -173.909823 
L 65.513411 -175.456549 
L 65.418018 -177.003276 
L 65.373935 -178.550002 
L 65.393591 -180.096729 
L 65.488005 -181.643455 
L 65.66632 -183.190182 
L 65.935431 -184.736908 
L 66.299725 -186.283635 
L 66.760957 -187.830361 
L 67.318253 -189.377088 
L 67.968241 -190.923815 
L 68.705306 -192.470541 
L 69.521934 -194.017268 
L 70.40912 -195.563994 
L 71.356825 -197.110721 
L 72.354429 -198.657447 
L 73.391167 -200.204174 
L 74.456516 -201.7509 
L 75.540512 -203.297627 
L 76.633988 -204.844353 
L 77.728728 -206.39108 
L 78.817531 -207.937806 
L 79.894212 -209.484533 
L 80.953526 -211.031259 
L 81.991062 -212.577986 
L 83.003106 -214.124713 
L 83.986491 -215.671439 
L 84.938464 -217.218166 
L 85.856568 -218.764892 
L 86.73856 -220.311619 
L 87.58235 -221.858345 
L 88.385994 -223.405072 
L 89.1477 -224.951798 
L 89.865871 -226.498525 
L 90.539159 -228.045251 
L 91.166527 -229.591978 
L 91.74731 -231.138704 
L 92.281272 -232.685431 
L 92.768639 -234.232157 
L 93.210119 -235.778884 
L 93.606899 -237.325611 
L 93.960622 -238.872337 
L 94.27334 -240.419064 
L 94.547457 -241.96579 
L 94.785655 -243.512517 
L 94.99082 -245.059243 
L 95.165956 -246.60597 
L 96.726454 -246.60597 
L 96.726454 -246.60597 
L 96.90159 -245.059243 
L 97.106755 -243.512517 
L 97.344953 -241.96579 
L 97.61907 -240.419064 
L 97.931788 -238.872337 
L 98.285511 -237.325611 
L 98.682291 -235.778884 
L 99.123771 -234.232157 
L 99.611138 -232.685431 
L 100.1451 -231.138704 
L 100.725883 -229.591978 
L 101.353251 -228.045251 
L 102.026539 -226.498525 
L 102.74471 -224.951798 
L 103.506416 -223.405072 
L 104.31006 -221.858345 
L 105.15385 -220.311619 
L 106.035842 -218.764892 
L 106.953946 -217.218166 
L 107.905919 -215.671439 
L 108.889304 -214.124713 
L 109.901348 -212.577986 
L 110.938884 -211.031259 
L 111.998198 -209.484533 
L 113.074879 -207.937806 
L 114.163682 -206.39108 
L 115.258422 -204.844353 
L 116.351898 -203.297627 
L 117.435894 -201.7509 
L 118.501243 -200.204174 
L 119.537981 -198.657447 
L 120.535585 -197.110721 
L 121.48329 -195.563994 
L 122.370476 -194.017268 
L 123.187104 -192.470541 
L 123.924169 -190.923815 
L 124.574157 -189.377088 
L 125.131453 -187.830361 
L 125.592685 -186.283635 
L 125.956979 -184.736908 
L 126.22609 -183.190182 
L 126.404405 -181.643455 
L 126.498819 -180.096729 
L 126.518475 -178.550002 
L 126.474392 -177.003276 
L 126.378999 -175.456549 
L 126.245599 -173.909823 
L 126.0878 -172.363096 
L 125.918934 -170.81637 
L 125.751507 -169.269643 
L 125.596691 -167.722917 
L 125.463896 -166.17619 
L 125.360424 -164.629463 
L 125.291222 -163.082737 
L 125.258731 -161.53601 
L 125.262839 -159.989284 
L 125.300924 -158.442557 
L 125.367973 -156.895831 
L 125.456785 -155.349104 
L 125.558223 -153.802378 
L 125.661528 -152.255651 
L 125.754671 -150.708925 
L 125.824728 -149.162198 
L 125.858299 -147.615472 
L 125.841919 -146.068745 
L 125.762502 -144.522019 
L 125.607762 -142.975292 
L 125.366636 -141.428565 
L 125.029678 -139.881839 
L 124.589415 -138.335112 
L 124.040652 -136.788386 
L 123.380713 -135.241659 
L 122.609603 -133.694933 
L 121.73008 -132.148206 
L 120.747631 -130.60148 
L 119.670351 -129.054753 
L 118.508721 -127.508027 
L 117.2753 -125.9613 
L 115.984337 -124.414574 
L 114.65132 -122.867847 
L 113.292486 -121.321121 
L 111.924317 -119.774394 
L 110.56303 -118.227667 
L 109.224108 -116.680941 
L 107.921869 -115.134214 
L 106.669108 -113.587488 
L 105.476815 -112.040761 
L 104.353974 -110.494035 
L 103.307468 -108.947308 
L 102.342048 -107.400582 
L 101.460403 -105.853855 
L 100.663292 -104.307129 
L 99.949728 -102.760402 
L 99.317212 -101.213676 
L 98.761993 -99.666949 
L 98.279334 -98.120223 
L 97.863785 -96.573496 
L 97.509435 -95.02677 
L 97.210145 -93.480043 
z
" style="stroke: #3f3f3f; stroke-width: 1.25"/>
    </defs>
    <g clip-path="url(#p2f644705ae)">
     <use xlink:href="#m150147fbb7" x="0" y="360" style="fill: #3274a1; stroke: #3f3f3f; stroke-width: 1.25"/>
    </g>
   </g>
   <g id="PolyCollection_2">
    <defs>
     <path id="m2c0f4b4e1f" d="M 157.682425 -64.910357 
L 156.499065 -64.910357 
L 156.346276 -67.076919 
L 156.164271 -69.243482 
L 155.950243 -71.410044 
L 155.701784 -73.576607 
L 155.417042 -75.743169 
L 155.094879 -77.909732 
L 154.734998 -80.076294 
L 154.33803 -82.242857 
L 153.90558 -84.409419 
L 153.440206 -86.575982 
L 152.945321 -88.742544 
L 152.425042 -90.909107 
L 151.883958 -93.075669 
L 151.326852 -95.242232 
L 150.758377 -97.408794 
L 150.182733 -99.575357 
L 149.603335 -101.741919 
L 149.022538 -103.908482 
L 148.44141 -106.075044 
L 147.859605 -108.241607 
L 147.275327 -110.408169 
L 146.685403 -112.574732 
L 146.085469 -114.741294 
L 145.47024 -116.907857 
L 144.833873 -119.074419 
L 144.170367 -121.240982 
L 143.473996 -123.407544 
L 142.739742 -125.574107 
L 141.963685 -127.740669 
L 141.143355 -129.907232 
L 140.278005 -132.073794 
L 139.368806 -134.240357 
L 138.418962 -136.406919 
L 137.433745 -138.573482 
L 136.420454 -140.740044 
L 135.388314 -142.906607 
L 134.348315 -145.073169 
L 133.313011 -147.239732 
L 132.296276 -149.406294 
L 131.313035 -151.572857 
L 130.378957 -153.739419 
L 129.510127 -155.905982 
L 128.722683 -158.072544 
L 128.032439 -160.239107 
L 127.45448 -162.405669 
L 127.00275 -164.572232 
L 126.689628 -166.738794 
L 126.52552 -168.905357 
L 126.518475 -171.071919 
L 126.673841 -173.238482 
L 126.993979 -175.405044 
L 127.478053 -177.571607 
L 128.121916 -179.738169 
L 128.918086 -181.904732 
L 129.855845 -184.071294 
L 130.921433 -186.237857 
L 132.098368 -188.404419 
L 133.367851 -190.570982 
L 134.709267 -192.737544 
L 136.100759 -194.904107 
L 137.519849 -197.070669 
L 138.944089 -199.237232 
L 140.351722 -201.403794 
L 141.722318 -203.570357 
L 143.037365 -205.736919 
L 144.280803 -207.903482 
L 145.439452 -210.070044 
L 146.503347 -212.236607 
L 147.465938 -214.403169 
L 148.324163 -216.569732 
L 149.078378 -218.736294 
L 149.732145 -220.902857 
L 150.291897 -223.069419 
L 150.766482 -225.235982 
L 151.166619 -227.402544 
L 151.50428 -229.569107 
L 151.792054 -231.735669 
L 152.042505 -233.902232 
L 152.267574 -236.068794 
L 152.47805 -238.235357 
L 152.683152 -240.401919 
L 152.890222 -242.568482 
L 153.10456 -244.735044 
L 153.32939 -246.901607 
L 153.565958 -249.068169 
L 153.813737 -251.234732 
L 154.070722 -253.401294 
L 154.333779 -255.567856 
L 154.599028 -257.734419 
L 154.862218 -259.900981 
L 155.119076 -262.067544 
L 155.365607 -264.234106 
L 155.598331 -266.400669 
L 155.814443 -268.567231 
L 156.01191 -270.733794 
L 156.189495 -272.900356 
L 156.346723 -275.066919 
L 156.483804 -277.233481 
L 156.601526 -279.400044 
L 157.579964 -279.400044 
L 157.579964 -279.400044 
L 157.697686 -277.233481 
L 157.834767 -275.066919 
L 157.991995 -272.900356 
L 158.16958 -270.733794 
L 158.367047 -268.567231 
L 158.583159 -266.400669 
L 158.815883 -264.234106 
L 159.062414 -262.067544 
L 159.319272 -259.900981 
L 159.582462 -257.734419 
L 159.847711 -255.567856 
L 160.110768 -253.401294 
L 160.367753 -251.234732 
L 160.615532 -249.068169 
L 160.8521 -246.901607 
L 161.07693 -244.735044 
L 161.291268 -242.568482 
L 161.498338 -240.401919 
L 161.70344 -238.235357 
L 161.913916 -236.068794 
L 162.138985 -233.902232 
L 162.389436 -231.735669 
L 162.67721 -229.569107 
L 163.014871 -227.402544 
L 163.415008 -225.235982 
L 163.889593 -223.069419 
L 164.449345 -220.902857 
L 165.103112 -218.736294 
L 165.857327 -216.569732 
L 166.715552 -214.403169 
L 167.678143 -212.236607 
L 168.742038 -210.070044 
L 169.900687 -207.903482 
L 171.144125 -205.736919 
L 172.459172 -203.570357 
L 173.829768 -201.403794 
L 175.237401 -199.237232 
L 176.661641 -197.070669 
L 178.080731 -194.904107 
L 179.472223 -192.737544 
L 180.813639 -190.570982 
L 182.083122 -188.404419 
L 183.260057 -186.237857 
L 184.325645 -184.071294 
L 185.263404 -181.904732 
L 186.059574 -179.738169 
L 186.703437 -177.571607 
L 187.187511 -175.405044 
L 187.507649 -173.238482 
L 187.663015 -171.071919 
L 187.65597 -168.905357 
L 187.491862 -166.738794 
L 187.17874 -164.572232 
L 186.72701 -162.405669 
L 186.149051 -160.239107 
L 185.458807 -158.072544 
L 184.671363 -155.905982 
L 183.802533 -153.739419 
L 182.868455 -151.572857 
L 181.885214 -149.406294 
L 180.868479 -147.239732 
L 179.833175 -145.073169 
L 178.793176 -142.906607 
L 177.761036 -140.740044 
L 176.747745 -138.573482 
L 175.762528 -136.406919 
L 174.812684 -134.240357 
L 173.903485 -132.073794 
L 173.038135 -129.907232 
L 172.217805 -127.740669 
L 171.441748 -125.574107 
L 170.707494 -123.407544 
L 170.011123 -121.240982 
L 169.347617 -119.074419 
L 168.71125 -116.907857 
L 168.096021 -114.741294 
L 167.496087 -112.574732 
L 166.906163 -110.408169 
L 166.321885 -108.241607 
L 165.74008 -106.075044 
L 165.158952 -103.908482 
L 164.578155 -101.741919 
L 163.998757 -99.575357 
L 163.423113 -97.408794 
L 162.854638 -95.242232 
L 162.297532 -93.075669 
L 161.756448 -90.909107 
L 161.236169 -88.742544 
L 160.741284 -86.575982 
L 160.27591 -84.409419 
L 159.84346 -82.242857 
L 159.446492 -80.076294 
L 159.086611 -77.909732 
L 158.764448 -75.743169 
L 158.479706 -73.576607 
L 158.231247 -71.410044 
L 158.017219 -69.243482 
L 157.835214 -67.076919 
L 157.682425 -64.910357 
z
" style="stroke: #3f3f3f; stroke-width: 1.25"/>
    </defs>
    <g clip-path="url(#p2f644705ae)">
     <use xlink:href="#m2c0f4b4e1f" x="0" y="360" style="fill: #e1812c; stroke: #3f3f3f; stroke-width: 1.25"/>
    </g>
   </g>
   <g id="PolyCollection_3">
    <defs>
     <path id="md1d554998f" d="M 249.097072 -55.925455 
L 248.518038 -55.925455 
L 248.442595 -58.746758 
L 248.352578 -61.568062 
L 248.246526 -64.389366 
L 248.123133 -67.21067 
L 247.981313 -70.031974 
L 247.820247 -72.853278 
L 247.639417 -75.674582 
L 247.43862 -78.495886 
L 247.217947 -81.31719 
L 246.977738 -84.138494 
L 246.718496 -86.959798 
L 246.440783 -89.781102 
L 246.145091 -92.602406 
L 245.831701 -95.42371 
L 245.500554 -98.245014 
L 245.151136 -101.066318 
L 244.782403 -103.887622 
L 244.392759 -106.708926 
L 243.9801 -109.53023 
L 243.541929 -112.351534 
L 243.075539 -115.172837 
L 242.578266 -117.994141 
L 242.047785 -120.815445 
L 241.482439 -123.636749 
L 240.881559 -126.458053 
L 240.245757 -129.279357 
L 239.577151 -132.100661 
L 238.879505 -134.921965 
L 238.158249 -137.743269 
L 237.420393 -140.564573 
L 236.674301 -143.385877 
L 235.92937 -146.207181 
L 235.195624 -149.028485 
L 234.483244 -151.849789 
L 233.802094 -154.671093 
L 233.161264 -157.492397 
L 232.568671 -160.313701 
L 232.030744 -163.135005 
L 231.552219 -165.956309 
L 231.136036 -168.777612 
L 230.783348 -171.598916 
L 230.493626 -174.42022 
L 230.264831 -177.241524 
L 230.093635 -180.062828 
L 229.975673 -182.884132 
L 229.905786 -185.705436 
L 229.878268 -188.52674 
L 229.887081 -191.348044 
L 229.926047 -194.169348 
L 229.989033 -196.990652 
L 230.070109 -199.811956 
L 230.163708 -202.63326 
L 230.264789 -205.454564 
L 230.368995 -208.275868 
L 230.472824 -211.097172 
L 230.573791 -213.918476 
L 230.67057 -216.73978 
L 230.763117 -219.561084 
L 230.852743 -222.382388 
L 230.942132 -225.203691 
L 231.035283 -228.024995 
L 231.137384 -230.846299 
L 231.254604 -233.667603 
L 231.393809 -236.488907 
L 231.562223 -239.310211 
L 231.76705 -242.131515 
L 232.015065 -244.952819 
L 232.312226 -247.774123 
L 232.66331 -250.595427 
L 233.071611 -253.416731 
L 233.538711 -256.238035 
L 234.064347 -259.059339 
L 234.64638 -261.880643 
L 235.280851 -264.701947 
L 235.962143 -267.523251 
L 236.683212 -270.344555 
L 237.435876 -273.165859 
L 238.211149 -275.987163 
L 238.999587 -278.808466 
L 239.791627 -281.62977 
L 240.577917 -284.451074 
L 241.349596 -287.272378 
L 242.098539 -290.093682 
L 242.81755 -292.914986 
L 243.500502 -295.73629 
L 244.142425 -298.557594 
L 244.739546 -301.378898 
L 245.289284 -304.200202 
L 245.790212 -307.021506 
L 246.241976 -309.84281 
L 246.645202 -312.664114 
L 247.001365 -315.485418 
L 247.31266 -318.306722 
L 247.581858 -321.128026 
L 247.812156 -323.94933 
L 248.007037 -326.770634 
L 248.170135 -329.591938 
L 248.305115 -332.413242 
L 248.415568 -335.234545 
L 249.199542 -335.234545 
L 249.199542 -335.234545 
L 249.309995 -332.413242 
L 249.444975 -329.591938 
L 249.608073 -326.770634 
L 249.802954 -323.94933 
L 250.033252 -321.128026 
L 250.30245 -318.306722 
L 250.613745 -315.485418 
L 250.969908 -312.664114 
L 251.373134 -309.84281 
L 251.824898 -307.021506 
L 252.325826 -304.200202 
L 252.875564 -301.378898 
L 253.472685 -298.557594 
L 254.114608 -295.73629 
L 254.79756 -292.914986 
L 255.516571 -290.093682 
L 256.265514 -287.272378 
L 257.037193 -284.451074 
L 257.823483 -281.62977 
L 258.615523 -278.808466 
L 259.403961 -275.987163 
L 260.179234 -273.165859 
L 260.931898 -270.344555 
L 261.652967 -267.523251 
L 262.334259 -264.701947 
L 262.96873 -261.880643 
L 263.550763 -259.059339 
L 264.076399 -256.238035 
L 264.543499 -253.416731 
L 264.9518 -250.595427 
L 265.302884 -247.774123 
L 265.600045 -244.952819 
L 265.84806 -242.131515 
L 266.052887 -239.310211 
L 266.221301 -236.488907 
L 266.360506 -233.667603 
L 266.477726 -230.846299 
L 266.579827 -228.024995 
L 266.672978 -225.203691 
L 266.762367 -222.382388 
L 266.851993 -219.561084 
L 266.94454 -216.73978 
L 267.041319 -213.918476 
L 267.142286 -211.097172 
L 267.246115 -208.275868 
L 267.350321 -205.454564 
L 267.451402 -202.63326 
L 267.545001 -199.811956 
L 267.626077 -196.990652 
L 267.689063 -194.169348 
L 267.728029 -191.348044 
L 267.736842 -188.52674 
L 267.709324 -185.705436 
L 267.639437 -182.884132 
L 267.521475 -180.062828 
L 267.350279 -177.241524 
L 267.121484 -174.42022 
L 266.831762 -171.598916 
L 266.479074 -168.777612 
L 266.062891 -165.956309 
L 265.584366 -163.135005 
L 265.046439 -160.313701 
L 264.453846 -157.492397 
L 263.813016 -154.671093 
L 263.131866 -151.849789 
L 262.419486 -149.028485 
L 261.68574 -146.207181 
L 260.940809 -143.385877 
L 260.194717 -140.564573 
L 259.456861 -137.743269 
L 258.735605 -134.921965 
L 258.037959 -132.100661 
L 257.369353 -129.279357 
L 256.733551 -126.458053 
L 256.132671 -123.636749 
L 255.567325 -120.815445 
L 255.036844 -117.994141 
L 254.539571 -115.172837 
L 254.073181 -112.351534 
L 253.63501 -109.53023 
L 253.222351 -106.708926 
L 252.832707 -103.887622 
L 252.463974 -101.066318 
L 252.114556 -98.245014 
L 251.783409 -95.42371 
L 251.470019 -92.602406 
L 251.174327 -89.781102 
L 250.896614 -86.959798 
L 250.637372 -84.138494 
L 250.397163 -81.31719 
L 250.17649 -78.495886 
L 249.975693 -75.674582 
L 249.794863 -72.853278 
L 249.633797 -70.031974 
L 249.491977 -67.21067 
L 249.368584 -64.389366 
L 249.262532 -61.568062 
L 249.172515 -58.746758 
L 249.097072 -55.925455 
z
" style="stroke: #3f3f3f; stroke-width: 1.25"/>
    </defs>
    <g clip-path="url(#p2f644705ae)">
     <use xlink:href="#md1d554998f" x="0" y="360" style="fill: #3274a1; stroke: #3f3f3f; stroke-width: 1.25"/>
    </g>
   </g>
   <g id="PolyCollection_4">
    <defs>
     <path id="mcb9fe238e5" d="M 310.872933 -91.555747 
L 309.031257 -91.555747 
L 308.786957 -93.392593 
L 308.493175 -95.22944 
L 308.14416 -97.066286 
L 307.734551 -98.903133 
L 307.259673 -100.739979 
L 306.715835 -102.576826 
L 306.100641 -104.413672 
L 305.413272 -106.250519 
L 304.654722 -108.087365 
L 303.827972 -109.924212 
L 302.938076 -111.761058 
L 301.992141 -113.597905 
L 300.999198 -115.434751 
L 299.969953 -117.271598 
L 298.916429 -119.108444 
L 297.851517 -120.945291 
L 296.788453 -122.782137 
L 295.74026 -124.618984 
L 294.719188 -126.45583 
L 293.736189 -128.292677 
L 292.800472 -130.129523 
L 291.919162 -131.96637 
L 291.097102 -133.803216 
L 290.336798 -135.640063 
L 289.638525 -137.476909 
L 289.000571 -139.313756 
L 288.419611 -141.150602 
L 287.891163 -142.987449 
L 287.410101 -144.824295 
L 286.971163 -146.661142 
L 286.569427 -148.497988 
L 286.200699 -150.334835 
L 285.861798 -152.171681 
L 285.550697 -154.008528 
L 285.266539 -155.845374 
L 285.009518 -157.682221 
L 284.780646 -159.519067 
L 284.581457 -161.355914 
L 284.413658 -163.19276 
L 284.278792 -165.029607 
L 284.177942 -166.866453 
L 284.111501 -168.7033 
L 284.079056 -170.540146 
L 284.079361 -172.376993 
L 284.11044 -174.213839 
L 284.169764 -176.050686 
L 284.25452 -177.887532 
L 284.361915 -179.724379 
L 284.489491 -181.561225 
L 284.635423 -183.398072 
L 284.798763 -185.234918 
L 284.979615 -187.071765 
L 285.179218 -188.908611 
L 285.399933 -190.745458 
L 285.645138 -192.582304 
L 285.919033 -194.419151 
L 286.22638 -196.255997 
L 286.572183 -198.092844 
L 286.961345 -199.929691 
L 287.398313 -201.766537 
L 287.886745 -203.603384 
L 288.429203 -205.44023 
L 289.026916 -207.277077 
L 289.6796 -209.113923 
L 290.385372 -210.95077 
L 291.140743 -212.787616 
L 291.940703 -214.624463 
L 292.778895 -216.461309 
L 293.647854 -218.298156 
L 294.539307 -220.135002 
L 295.444513 -221.971849 
L 296.354613 -223.808695 
L 297.260975 -225.645542 
L 298.155505 -227.482388 
L 299.030905 -229.319235 
L 299.880871 -231.156081 
L 300.700204 -232.992928 
L 301.484858 -234.829774 
L 302.231909 -236.666621 
L 302.939461 -238.503467 
L 303.606513 -240.340314 
L 304.232795 -242.17716 
L 304.818594 -244.014007 
L 305.36459 -245.850853 
L 305.871714 -247.6877 
L 306.34103 -249.524546 
L 306.773662 -251.361393 
L 307.170749 -253.198239 
L 307.533433 -255.035086 
L 307.862872 -256.871932 
L 308.160266 -258.708779 
L 308.426891 -260.545625 
L 308.66413 -262.382472 
L 308.873498 -264.219318 
L 309.05665 -266.056165 
L 309.215378 -267.893011 
L 309.351595 -269.729858 
L 309.4673 -271.566704 
L 309.564545 -273.403551 
L 310.339645 -273.403551 
L 310.339645 -273.403551 
L 310.43689 -271.566704 
L 310.552595 -269.729858 
L 310.688812 -267.893011 
L 310.84754 -266.056165 
L 311.030692 -264.219318 
L 311.24006 -262.382472 
L 311.477299 -260.545625 
L 311.743924 -258.708779 
L 312.041318 -256.871932 
L 312.370757 -255.035086 
L 312.733441 -253.198239 
L 313.130528 -251.361393 
L 313.56316 -249.524546 
L 314.032476 -247.6877 
L 314.5396 -245.850853 
L 315.085596 -244.014007 
L 315.671395 -242.17716 
L 316.297677 -240.340314 
L 316.964729 -238.503467 
L 317.672281 -236.666621 
L 318.419332 -234.829774 
L 319.203986 -232.992928 
L 320.023319 -231.156081 
L 320.873285 -229.319235 
L 321.748685 -227.482388 
L 322.643215 -225.645542 
L 323.549577 -223.808695 
L 324.459677 -221.971849 
L 325.364883 -220.135002 
L 326.256336 -218.298156 
L 327.125295 -216.461309 
L 327.963487 -214.624463 
L 328.763447 -212.787616 
L 329.518818 -210.95077 
L 330.22459 -209.113923 
L 330.877274 -207.277077 
L 331.474987 -205.44023 
L 332.017445 -203.603384 
L 332.505877 -201.766537 
L 332.942845 -199.929691 
L 333.332007 -198.092844 
L 333.67781 -196.255997 
L 333.985157 -194.419151 
L 334.259052 -192.582304 
L 334.504257 -190.745458 
L 334.724972 -188.908611 
L 334.924575 -187.071765 
L 335.105427 -185.234918 
L 335.268767 -183.398072 
L 335.414699 -181.561225 
L 335.542275 -179.724379 
L 335.64967 -177.887532 
L 335.734426 -176.050686 
L 335.79375 -174.213839 
L 335.824829 -172.376993 
L 335.825134 -170.540146 
L 335.792689 -168.7033 
L 335.726248 -166.866453 
L 335.625398 -165.029607 
L 335.490532 -163.19276 
L 335.322733 -161.355914 
L 335.123544 -159.519067 
L 334.894672 -157.682221 
L 334.637651 -155.845374 
L 334.353493 -154.008528 
L 334.042392 -152.171681 
L 333.703491 -150.334835 
L 333.334763 -148.497988 
L 332.933027 -146.661142 
L 332.494089 -144.824295 
L 332.013027 -142.987449 
L 331.484579 -141.150602 
L 330.903619 -139.313756 
L 330.265665 -137.476909 
L 329.567392 -135.640063 
L 328.807088 -133.803216 
L 327.985028 -131.96637 
L 327.103718 -130.129523 
L 326.168001 -128.292677 
L 325.185002 -126.45583 
L 324.16393 -124.618984 
L 323.115737 -122.782137 
L 322.052673 -120.945291 
L 320.987761 -119.108444 
L 319.934237 -117.271598 
L 318.904992 -115.434751 
L 317.912049 -113.597905 
L 316.966114 -111.761058 
L 316.076218 -109.924212 
L 315.249468 -108.087365 
L 314.490918 -106.250519 
L 313.803549 -104.413672 
L 313.188355 -102.576826 
L 312.644517 -100.739979 
L 312.169639 -98.903133 
L 311.76003 -97.066286 
L 311.411015 -95.22944 
L 311.117233 -93.392593 
L 310.872933 -91.555747 
z
" style="stroke: #3f3f3f; stroke-width: 1.25"/>
    </defs>
    <g clip-path="url(#p2f644705ae)">
     <use xlink:href="#mcb9fe238e5" x="0" y="360" style="fill: #e1812c; stroke: #3f3f3f; stroke-width: 1.25"/>
    </g>
   </g>
   <g id="patch_3">
    <path d="M 126.518475 352.050913 
L 126.518475 352.050913 
L 126.518475 352.050913 
L 126.518475 352.050913 
z
" clip-path="url(#p2f644705ae)" style="fill: #3274a1; stroke: #3f3f3f; stroke-width: 1.25; stroke-linejoin: miter"/>
   </g>
   <g id="patch_4">
    <path d="M 126.518475 352.050913 
L 126.518475 352.050913 
L 126.518475 352.050913 
L 126.518475 352.050913 
z
" clip-path="url(#p2f644705ae)" style="fill: #e1812c; stroke: #3f3f3f; stroke-width: 1.25; stroke-linejoin: miter"/>
   </g>
   <g id="line2d_7">
    <path d="M 95.946205 234.278189 
L 95.946205 145.635799 
" clip-path="url(#p2f644705ae)" style="fill: none; stroke: #3f3f3f; stroke-width: 1.875; stroke-linecap: round"/>
   </g>
   <g id="line2d_8">
    <path d="M 95.946205 218.276585 
L 95.946205 173.559111 
" clip-path="url(#p2f644705ae)" style="fill: none; stroke: #3f3f3f; stroke-width: 5.625; stroke-linecap: round"/>
   </g>
   <g id="line2d_9">
    <path d="M 95.946205 198.236401 
" clip-path="url(#p2f644705ae)" style="fill: none; stroke: #3f3f3f; stroke-width: 1.5; stroke-linecap: round"/>
    <defs>
     <path id="me0d7a4f785" d="M 2.34375 0 
L -2.34375 -0 
" style="stroke: #ffffff; stroke-width: 1.125"/>
    </defs>
    <g clip-path="url(#p2f644705ae)">
     <use xlink:href="#me0d7a4f785" x="95.946205" y="198.236401" style="fill: #ffffff; stroke: #ffffff; stroke-width: 1.125"/>
    </g>
   </g>
   <g id="line2d_10">
    <path d="M 157.090745 255.853882 
L 157.090745 119.835717 
" clip-path="url(#p2f644705ae)" style="fill: none; stroke: #3f3f3f; stroke-width: 1.875; stroke-linecap: round"/>
   </g>
   <g id="line2d_11">
    <path d="M 157.090745 212.334212 
L 157.090745 175.037705 
" clip-path="url(#p2f644705ae)" style="fill: none; stroke: #3f3f3f; stroke-width: 5.625; stroke-linecap: round"/>
   </g>
   <g id="line2d_12">
    <path d="M 157.090745 189.709798 
" clip-path="url(#p2f644705ae)" style="fill: none; stroke: #3f3f3f; stroke-width: 1.5; stroke-linecap: round"/>
    <g clip-path="url(#p2f644705ae)">
     <use xlink:href="#me0d7a4f785" x="157.090745" y="189.709798" style="fill: #ffffff; stroke: #ffffff; stroke-width: 1.125"/>
    </g>
   </g>
   <g id="line2d_13">
    <path d="M 248.807555 253.795782 
L 248.807555 75.044218 
" clip-path="url(#p2f644705ae)" style="fill: none; stroke: #3f3f3f; stroke-width: 1.875; stroke-linecap: round"/>
   </g>
   <g id="line2d_14">
    <path d="M 248.807555 196.204746 
L 248.807555 113.731088 
" clip-path="url(#p2f644705ae)" style="fill: none; stroke: #3f3f3f; stroke-width: 5.625; stroke-linecap: round"/>
   </g>
   <g id="line2d_15">
    <path d="M 248.807555 162.520228 
" clip-path="url(#p2f644705ae)" style="fill: none; stroke: #3f3f3f; stroke-width: 1.5; stroke-linecap: round"/>
    <g clip-path="url(#p2f644705ae)">
     <use xlink:href="#me0d7a4f785" x="248.807555" y="162.520228" style="fill: #ffffff; stroke: #ffffff; stroke-width: 1.125"/>
    </g>
   </g>
   <g id="line2d_16">
    <path d="M 309.952095 234.487872 
L 309.952095 120.55283 
" clip-path="url(#p2f644705ae)" style="fill: none; stroke: #3f3f3f; stroke-width: 1.875; stroke-linecap: round"/>
   </g>
   <g id="line2d_17">
    <path d="M 309.952095 211.311033 
L 309.952095 162.089988 
" clip-path="url(#p2f644705ae)" style="fill: none; stroke: #3f3f3f; stroke-width: 5.625; stroke-linecap: round"/>
   </g>
   <g id="line2d_18">
    <path d="M 309.952095 186.81914 
" clip-path="url(#p2f644705ae)" style="fill: none; stroke: #3f3f3f; stroke-width: 1.5; stroke-linecap: round"/>
    <g clip-path="url(#p2f644705ae)">
     <use xlink:href="#me0d7a4f785" x="309.952095" y="186.81914" style="fill: #ffffff; stroke: #ffffff; stroke-width: 1.125"/>
    </g>
   </g>
   <g id="patch_5">
    <path d="M 50.0878 318.04 
L 50.0878 10.8 
" style="fill: none; stroke: #cccccc; stroke-width: 0.8; stroke-linejoin: miter; stroke-linecap: square"/>
   </g>
   <g id="patch_6">
    <path d="M 50.0878 318.04 
L 355.8105 318.04 
" style="fill: none; stroke: #cccccc; stroke-width: 0.8; stroke-linejoin: miter; stroke-linecap: square"/>
   </g>
  </g>
  <g id="legend_1">
   <g id="text_11">
    <!-- Time -->
    <g style="fill: #262626" transform="translate(373.633594 168.439844) scale(0.1 -0.1)">
     <defs>
      <path id="ArialMT-54" d="M 1659 0 
L 1659 4041 
L 150 4041 
L 150 4581 
L 3781 4581 
L 3781 4041 
L 2266 4041 
L 2266 0 
L 1659 0 
z
" transform="scale(0.015625)"/>
     </defs>
     <use xlink:href="#ArialMT-54"/>
     <use xlink:href="#ArialMT-69" x="57.333984"/>
     <use xlink:href="#ArialMT-6d" x="79.550781"/>
     <use xlink:href="#ArialMT-65" x="162.851562"/>
    </g>
   </g>
   <g id="patch_7">
    <path d="M 359.1625 182.585156 
L 379.1625 182.585156 
L 379.1625 175.585156 
L 359.1625 175.585156 
z
" style="fill: #3274a1; stroke: #3f3f3f; stroke-width: 1.25; stroke-linejoin: miter"/>
   </g>
   <g id="text_12">
    <!-- initial -->
    <g style="fill: #262626" transform="translate(387.1625 182.585156) scale(0.1 -0.1)">
     <use xlink:href="#ArialMT-69"/>
     <use xlink:href="#ArialMT-6e" x="22.216797"/>
     <use xlink:href="#ArialMT-69" x="77.832031"/>
     <use xlink:href="#ArialMT-74" x="100.048828"/>
     <use xlink:href="#ArialMT-69" x="127.832031"/>
     <use xlink:href="#ArialMT-61" x="150.048828"/>
     <use xlink:href="#ArialMT-6c" x="205.664062"/>
    </g>
   </g>
   <g id="patch_8">
    <path d="M 359.1625 196.730469 
L 379.1625 196.730469 
L 379.1625 189.730469 
L 359.1625 189.730469 
z
" style="fill: #e1812c; stroke: #3f3f3f; stroke-width: 1.25; stroke-linejoin: miter"/>
   </g>
   <g id="text_13">
    <!-- final -->
    <g style="fill: #262626" transform="translate(387.1625 196.730469) scale(0.1 -0.1)">
     <use xlink:href="#ArialMT-66"/>
     <use xlink:href="#ArialMT-69" x="27.783203"/>
     <use xlink:href="#ArialMT-6e" x="50"/>
     <use xlink:href="#ArialMT-61" x="105.615234"/>
     <use xlink:href="#ArialMT-6c" x="161.230469"/>
    </g>
   </g>
  </g>
 </g>
 <defs>
  <clipPath id="p2f644705ae">
   <rect x="50.0878" y="10.8" width="305.7227" height="307.24"/>
  </clipPath>
 </defs>
</svg>
