<?xml version="1.0" encoding="utf-8" standalone="no"?>
<!DOCTYPE svg PUBLIC "-//W3C//DTD SVG 1.1//EN"
  "http://www.w3.org/Graphics/SVG/1.1/DTD/svg11.dtd">
<svg xmlns:xlink="http://www.w3.org/1999/xlink" width="418.95pt" height="360pt" viewBox="0 0 418.95 360" xmlns="http://www.w3.org/2000/svg" version="1.1">
 <metadata>
  <rdf:RDF xmlns:dc="http://purl.org/dc/elements/1.1/" xmlns:cc="http://creativecommons.org/ns#" xmlns:rdf="http://www.w3.org/1999/02/22-rdf-syntax-ns#">
   <cc:Work>
    <dc:type rdf:resource="http://purl.org/dc/dcmitype/StillImage"/>
    <dc:date>2024-09-10T22:07:19.038875</dc:date>
    <dc:format>image/svg+xml</dc:format>
    <dc:creator>
     <cc:Agent>
      <dc:title>Matplotlib v3.8.3, https://matplotlib.org/</dc:title>
     </cc:Agent>
    </dc:creator>
   </cc:Work>
  </rdf:RDF>
 </metadata>
 <defs>
  <style type="text/css">*{stroke-linejoin: round; stroke-linecap: butt}</style>
 </defs>
 <g id="figure_1">
  <g id="patch_1">
   <path d="M 0 360 
L 418.95 360 
L 418.95 0 
L 0 0 
z
" style="fill: #ffffff"/>
  </g>
  <g id="axes_1">
   <g id="patch_2">
    <path d="M 53.334663 318.04 
L 355.8105 318.04 
L 355.8105 10.8 
L 53.334663 10.8 
z
" style="fill: #ffffff"/>
   </g>
   <g id="matplotlib.axis_1">
    <g id="xtick_1">
     <g id="text_1">
      <!-- f -->
      <g style="fill: #262626" transform="translate(127.564559 332.197812) scale(0.1 -0.1)">
       <defs>
        <path id="ArialMT-66" d="M 556 0 
L 556 2881 
L 59 2881 
L 59 3319 
L 556 3319 
L 556 3672 
Q 556 4006 616 4169 
Q 697 4388 901 4523 
Q 1106 4659 1475 4659 
Q 1713 4659 2000 4603 
L 1916 4113 
Q 1741 4144 1584 4144 
Q 1328 4144 1222 4034 
Q 1116 3925 1116 3625 
L 1116 3319 
L 1763 3319 
L 1763 2881 
L 1116 2881 
L 1116 0 
L 556 0 
z
" transform="scale(0.015625)"/>
       </defs>
       <use xlink:href="#ArialMT-66"/>
      </g>
     </g>
    </g>
    <g id="xtick_2">
     <g id="text_2">
      <!-- m -->
      <g style="fill: #262626" transform="translate(276.026697 332.197812) scale(0.1 -0.1)">
       <defs>
        <path id="ArialMT-6d" d="M 422 0 
L 422 3319 
L 925 3319 
L 925 2853 
Q 1081 3097 1340 3245 
Q 1600 3394 1931 3394 
Q 2300 3394 2536 3241 
Q 2772 3088 2869 2813 
Q 3263 3394 3894 3394 
Q 4388 3394 4653 3120 
Q 4919 2847 4919 2278 
L 4919 0 
L 4359 0 
L 4359 2091 
Q 4359 2428 4304 2576 
Q 4250 2725 4106 2815 
Q 3963 2906 3769 2906 
Q 3419 2906 3187 2673 
Q 2956 2441 2956 1928 
L 2956 0 
L 2394 0 
L 2394 2156 
Q 2394 2531 2256 2718 
Q 2119 2906 1806 2906 
Q 1569 2906 1367 2781 
Q 1166 2656 1075 2415 
Q 984 2175 984 1722 
L 984 0 
L 422 0 
z
" transform="scale(0.015625)"/>
       </defs>
       <use xlink:href="#ArialMT-6d"/>
      </g>
     </g>
    </g>
    <g id="text_3">
     <!-- sex -->
     <g style="fill: #262626" transform="translate(196.792113 345.343125) scale(0.1 -0.1)">
      <defs>
       <path id="ArialMT-73" d="M 197 991 
L 753 1078 
Q 800 744 1014 566 
Q 1228 388 1613 388 
Q 2000 388 2187 545 
Q 2375 703 2375 916 
Q 2375 1106 2209 1216 
Q 2094 1291 1634 1406 
Q 1016 1563 777 1677 
Q 538 1791 414 1992 
Q 291 2194 291 2438 
Q 291 2659 392 2848 
Q 494 3038 669 3163 
Q 800 3259 1026 3326 
Q 1253 3394 1513 3394 
Q 1903 3394 2198 3281 
Q 2494 3169 2634 2976 
Q 2775 2784 2828 2463 
L 2278 2388 
Q 2241 2644 2061 2787 
Q 1881 2931 1553 2931 
Q 1166 2931 1000 2803 
Q 834 2675 834 2503 
Q 834 2394 903 2306 
Q 972 2216 1119 2156 
Q 1203 2125 1616 2013 
Q 2213 1853 2448 1751 
Q 2684 1650 2818 1456 
Q 2953 1263 2953 975 
Q 2953 694 2789 445 
Q 2625 197 2315 61 
Q 2006 -75 1616 -75 
Q 969 -75 630 194 
Q 291 463 197 991 
z
" transform="scale(0.015625)"/>
       <path id="ArialMT-65" d="M 2694 1069 
L 3275 997 
Q 3138 488 2766 206 
Q 2394 -75 1816 -75 
Q 1088 -75 661 373 
Q 234 822 234 1631 
Q 234 2469 665 2931 
Q 1097 3394 1784 3394 
Q 2450 3394 2872 2941 
Q 3294 2488 3294 1666 
Q 3294 1616 3291 1516 
L 816 1516 
Q 847 969 1125 678 
Q 1403 388 1819 388 
Q 2128 388 2347 550 
Q 2566 713 2694 1069 
z
M 847 1978 
L 2700 1978 
Q 2663 2397 2488 2606 
Q 2219 2931 1791 2931 
Q 1403 2931 1139 2672 
Q 875 2413 847 1978 
z
" transform="scale(0.015625)"/>
       <path id="ArialMT-78" d="M 47 0 
L 1259 1725 
L 138 3319 
L 841 3319 
L 1350 2541 
Q 1494 2319 1581 2169 
Q 1719 2375 1834 2534 
L 2394 3319 
L 3066 3319 
L 1919 1756 
L 3153 0 
L 2463 0 
L 1781 1031 
L 1600 1309 
L 728 0 
L 47 0 
z
" transform="scale(0.015625)"/>
      </defs>
      <use xlink:href="#ArialMT-73"/>
      <use xlink:href="#ArialMT-65" x="50"/>
      <use xlink:href="#ArialMT-78" x="105.615234"/>
     </g>
    </g>
   </g>
   <g id="matplotlib.axis_2">
    <g id="ytick_1">
     <g id="line2d_1">
      <path d="M 53.334663 316.362388 
L 355.8105 316.362388 
" clip-path="url(#p1d2db546af)" style="fill: none; stroke: #cccccc; stroke-width: 0.8; stroke-linecap: round"/>
     </g>
     <g id="text_4">
      <!-- 0.4 -->
      <g style="fill: #262626" transform="translate(32.434663 319.941294) scale(0.1 -0.1)">
       <defs>
        <path id="ArialMT-30" d="M 266 2259 
Q 266 3072 433 3567 
Q 600 4063 929 4331 
Q 1259 4600 1759 4600 
Q 2128 4600 2406 4451 
Q 2684 4303 2865 4023 
Q 3047 3744 3150 3342 
Q 3253 2941 3253 2259 
Q 3253 1453 3087 958 
Q 2922 463 2592 192 
Q 2263 -78 1759 -78 
Q 1097 -78 719 397 
Q 266 969 266 2259 
z
M 844 2259 
Q 844 1131 1108 757 
Q 1372 384 1759 384 
Q 2147 384 2411 759 
Q 2675 1134 2675 2259 
Q 2675 3391 2411 3762 
Q 2147 4134 1753 4134 
Q 1366 4134 1134 3806 
Q 844 3388 844 2259 
z
" transform="scale(0.015625)"/>
        <path id="ArialMT-2e" d="M 581 0 
L 581 641 
L 1222 641 
L 1222 0 
L 581 0 
z
" transform="scale(0.015625)"/>
        <path id="ArialMT-34" d="M 2069 0 
L 2069 1097 
L 81 1097 
L 81 1613 
L 2172 4581 
L 2631 4581 
L 2631 1613 
L 3250 1613 
L 3250 1097 
L 2631 1097 
L 2631 0 
L 2069 0 
z
M 2069 1613 
L 2069 3678 
L 634 1613 
L 2069 1613 
z
" transform="scale(0.015625)"/>
       </defs>
       <use xlink:href="#ArialMT-30"/>
       <use xlink:href="#ArialMT-2e" x="55.615234"/>
       <use xlink:href="#ArialMT-34" x="83.398438"/>
      </g>
     </g>
    </g>
    <g id="ytick_2">
     <g id="line2d_2">
      <path d="M 53.334663 270.378457 
L 355.8105 270.378457 
" clip-path="url(#p1d2db546af)" style="fill: none; stroke: #cccccc; stroke-width: 0.8; stroke-linecap: round"/>
     </g>
     <g id="text_5">
      <!-- 0.6 -->
      <g style="fill: #262626" transform="translate(32.434663 273.957364) scale(0.1 -0.1)">
       <defs>
        <path id="ArialMT-36" d="M 3184 3459 
L 2625 3416 
Q 2550 3747 2413 3897 
Q 2184 4138 1850 4138 
Q 1581 4138 1378 3988 
Q 1113 3794 959 3422 
Q 806 3050 800 2363 
Q 1003 2672 1297 2822 
Q 1591 2972 1913 2972 
Q 2475 2972 2870 2558 
Q 3266 2144 3266 1488 
Q 3266 1056 3080 686 
Q 2894 316 2569 119 
Q 2244 -78 1831 -78 
Q 1128 -78 684 439 
Q 241 956 241 2144 
Q 241 3472 731 4075 
Q 1159 4600 1884 4600 
Q 2425 4600 2770 4297 
Q 3116 3994 3184 3459 
z
M 888 1484 
Q 888 1194 1011 928 
Q 1134 663 1356 523 
Q 1578 384 1822 384 
Q 2178 384 2434 671 
Q 2691 959 2691 1453 
Q 2691 1928 2437 2201 
Q 2184 2475 1800 2475 
Q 1419 2475 1153 2201 
Q 888 1928 888 1484 
z
" transform="scale(0.015625)"/>
       </defs>
       <use xlink:href="#ArialMT-30"/>
       <use xlink:href="#ArialMT-2e" x="55.615234"/>
       <use xlink:href="#ArialMT-36" x="83.398438"/>
      </g>
     </g>
    </g>
    <g id="ytick_3">
     <g id="line2d_3">
      <path d="M 53.334663 224.394527 
L 355.8105 224.394527 
" clip-path="url(#p1d2db546af)" style="fill: none; stroke: #cccccc; stroke-width: 0.8; stroke-linecap: round"/>
     </g>
     <g id="text_6">
      <!-- 0.8 -->
      <g style="fill: #262626" transform="translate(32.434663 227.973433) scale(0.1 -0.1)">
       <defs>
        <path id="ArialMT-38" d="M 1131 2484 
Q 781 2613 612 2850 
Q 444 3088 444 3419 
Q 444 3919 803 4259 
Q 1163 4600 1759 4600 
Q 2359 4600 2725 4251 
Q 3091 3903 3091 3403 
Q 3091 3084 2923 2848 
Q 2756 2613 2416 2484 
Q 2838 2347 3058 2040 
Q 3278 1734 3278 1309 
Q 3278 722 2862 322 
Q 2447 -78 1769 -78 
Q 1091 -78 675 323 
Q 259 725 259 1325 
Q 259 1772 486 2073 
Q 713 2375 1131 2484 
z
M 1019 3438 
Q 1019 3113 1228 2906 
Q 1438 2700 1772 2700 
Q 2097 2700 2305 2904 
Q 2513 3109 2513 3406 
Q 2513 3716 2298 3927 
Q 2084 4138 1766 4138 
Q 1444 4138 1231 3931 
Q 1019 3725 1019 3438 
z
M 838 1322 
Q 838 1081 952 856 
Q 1066 631 1291 507 
Q 1516 384 1775 384 
Q 2178 384 2440 643 
Q 2703 903 2703 1303 
Q 2703 1709 2433 1975 
Q 2163 2241 1756 2241 
Q 1359 2241 1098 1978 
Q 838 1716 838 1322 
z
" transform="scale(0.015625)"/>
       </defs>
       <use xlink:href="#ArialMT-30"/>
       <use xlink:href="#ArialMT-2e" x="55.615234"/>
       <use xlink:href="#ArialMT-38" x="83.398438"/>
      </g>
     </g>
    </g>
    <g id="ytick_4">
     <g id="line2d_4">
      <path d="M 53.334663 178.410597 
L 355.8105 178.410597 
" clip-path="url(#p1d2db546af)" style="fill: none; stroke: #cccccc; stroke-width: 0.8; stroke-linecap: round"/>
     </g>
     <g id="text_7">
      <!-- 1.0 -->
      <g style="fill: #262626" transform="translate(32.434663 181.989503) scale(0.1 -0.1)">
       <defs>
        <path id="ArialMT-31" d="M 2384 0 
L 1822 0 
L 1822 3584 
Q 1619 3391 1289 3197 
Q 959 3003 697 2906 
L 697 3450 
Q 1169 3672 1522 3987 
Q 1875 4303 2022 4600 
L 2384 4600 
L 2384 0 
z
" transform="scale(0.015625)"/>
       </defs>
       <use xlink:href="#ArialMT-31"/>
       <use xlink:href="#ArialMT-2e" x="55.615234"/>
       <use xlink:href="#ArialMT-30" x="83.398438"/>
      </g>
     </g>
    </g>
    <g id="ytick_5">
     <g id="line2d_5">
      <path d="M 53.334663 132.426666 
L 355.8105 132.426666 
" clip-path="url(#p1d2db546af)" style="fill: none; stroke: #cccccc; stroke-width: 0.8; stroke-linecap: round"/>
     </g>
     <g id="text_8">
      <!-- 1.2 -->
      <g style="fill: #262626" transform="translate(32.434663 136.005573) scale(0.1 -0.1)">
       <defs>
        <path id="ArialMT-32" d="M 3222 541 
L 3222 0 
L 194 0 
Q 188 203 259 391 
Q 375 700 629 1000 
Q 884 1300 1366 1694 
Q 2113 2306 2375 2664 
Q 2638 3022 2638 3341 
Q 2638 3675 2398 3904 
Q 2159 4134 1775 4134 
Q 1369 4134 1125 3890 
Q 881 3647 878 3216 
L 300 3275 
Q 359 3922 746 4261 
Q 1134 4600 1788 4600 
Q 2447 4600 2831 4234 
Q 3216 3869 3216 3328 
Q 3216 3053 3103 2787 
Q 2991 2522 2730 2228 
Q 2469 1934 1863 1422 
Q 1356 997 1212 845 
Q 1069 694 975 541 
L 3222 541 
z
" transform="scale(0.015625)"/>
       </defs>
       <use xlink:href="#ArialMT-31"/>
       <use xlink:href="#ArialMT-2e" x="55.615234"/>
       <use xlink:href="#ArialMT-32" x="83.398438"/>
      </g>
     </g>
    </g>
    <g id="ytick_6">
     <g id="line2d_6">
      <path d="M 53.334663 86.442736 
L 355.8105 86.442736 
" clip-path="url(#p1d2db546af)" style="fill: none; stroke: #cccccc; stroke-width: 0.8; stroke-linecap: round"/>
     </g>
     <g id="text_9">
      <!-- 1.4 -->
      <g style="fill: #262626" transform="translate(32.434663 90.021642) scale(0.1 -0.1)">
       <use xlink:href="#ArialMT-31"/>
       <use xlink:href="#ArialMT-2e" x="55.615234"/>
       <use xlink:href="#ArialMT-34" x="83.398438"/>
      </g>
     </g>
    </g>
    <g id="ytick_7">
     <g id="line2d_7">
      <path d="M 53.334663 40.458806 
L 355.8105 40.458806 
" clip-path="url(#p1d2db546af)" style="fill: none; stroke: #cccccc; stroke-width: 0.8; stroke-linecap: round"/>
     </g>
     <g id="text_10">
      <!-- 1.6 -->
      <g style="fill: #262626" transform="translate(32.434663 44.037712) scale(0.1 -0.1)">
       <use xlink:href="#ArialMT-31"/>
       <use xlink:href="#ArialMT-2e" x="55.615234"/>
       <use xlink:href="#ArialMT-36" x="83.398438"/>
      </g>
     </g>
    </g>
    <g id="text_11">
     <!-- Respiratory exchange ratio -->
     <g style="fill: #262626" transform="translate(26.329975 224.169219) rotate(-90) scale(0.1 -0.1)">
      <defs>
       <path id="ArialMT-52" d="M 503 0 
L 503 4581 
L 2534 4581 
Q 3147 4581 3465 4457 
Q 3784 4334 3975 4021 
Q 4166 3709 4166 3331 
Q 4166 2844 3850 2509 
Q 3534 2175 2875 2084 
Q 3116 1969 3241 1856 
Q 3506 1613 3744 1247 
L 4541 0 
L 3778 0 
L 3172 953 
Q 2906 1366 2734 1584 
Q 2563 1803 2427 1890 
Q 2291 1978 2150 2013 
Q 2047 2034 1813 2034 
L 1109 2034 
L 1109 0 
L 503 0 
z
M 1109 2559 
L 2413 2559 
Q 2828 2559 3062 2645 
Q 3297 2731 3419 2920 
Q 3541 3109 3541 3331 
Q 3541 3656 3305 3865 
Q 3069 4075 2559 4075 
L 1109 4075 
L 1109 2559 
z
" transform="scale(0.015625)"/>
       <path id="ArialMT-70" d="M 422 -1272 
L 422 3319 
L 934 3319 
L 934 2888 
Q 1116 3141 1344 3267 
Q 1572 3394 1897 3394 
Q 2322 3394 2647 3175 
Q 2972 2956 3137 2557 
Q 3303 2159 3303 1684 
Q 3303 1175 3120 767 
Q 2938 359 2589 142 
Q 2241 -75 1856 -75 
Q 1575 -75 1351 44 
Q 1128 163 984 344 
L 984 -1272 
L 422 -1272 
z
M 931 1641 
Q 931 1000 1190 694 
Q 1450 388 1819 388 
Q 2194 388 2461 705 
Q 2728 1022 2728 1688 
Q 2728 2322 2467 2637 
Q 2206 2953 1844 2953 
Q 1484 2953 1207 2617 
Q 931 2281 931 1641 
z
" transform="scale(0.015625)"/>
       <path id="ArialMT-69" d="M 425 3934 
L 425 4581 
L 988 4581 
L 988 3934 
L 425 3934 
z
M 425 0 
L 425 3319 
L 988 3319 
L 988 0 
L 425 0 
z
" transform="scale(0.015625)"/>
       <path id="ArialMT-72" d="M 416 0 
L 416 3319 
L 922 3319 
L 922 2816 
Q 1116 3169 1280 3281 
Q 1444 3394 1641 3394 
Q 1925 3394 2219 3213 
L 2025 2691 
Q 1819 2813 1613 2813 
Q 1428 2813 1281 2702 
Q 1134 2591 1072 2394 
Q 978 2094 978 1738 
L 978 0 
L 416 0 
z
" transform="scale(0.015625)"/>
       <path id="ArialMT-61" d="M 2588 409 
Q 2275 144 1986 34 
Q 1697 -75 1366 -75 
Q 819 -75 525 192 
Q 231 459 231 875 
Q 231 1119 342 1320 
Q 453 1522 633 1644 
Q 813 1766 1038 1828 
Q 1203 1872 1538 1913 
Q 2219 1994 2541 2106 
Q 2544 2222 2544 2253 
Q 2544 2597 2384 2738 
Q 2169 2928 1744 2928 
Q 1347 2928 1158 2789 
Q 969 2650 878 2297 
L 328 2372 
Q 403 2725 575 2942 
Q 747 3159 1072 3276 
Q 1397 3394 1825 3394 
Q 2250 3394 2515 3294 
Q 2781 3194 2906 3042 
Q 3031 2891 3081 2659 
Q 3109 2516 3109 2141 
L 3109 1391 
Q 3109 606 3145 398 
Q 3181 191 3288 0 
L 2700 0 
Q 2613 175 2588 409 
z
M 2541 1666 
Q 2234 1541 1622 1453 
Q 1275 1403 1131 1340 
Q 988 1278 909 1158 
Q 831 1038 831 891 
Q 831 666 1001 516 
Q 1172 366 1500 366 
Q 1825 366 2078 508 
Q 2331 650 2450 897 
Q 2541 1088 2541 1459 
L 2541 1666 
z
" transform="scale(0.015625)"/>
       <path id="ArialMT-74" d="M 1650 503 
L 1731 6 
Q 1494 -44 1306 -44 
Q 1000 -44 831 53 
Q 663 150 594 308 
Q 525 466 525 972 
L 525 2881 
L 113 2881 
L 113 3319 
L 525 3319 
L 525 4141 
L 1084 4478 
L 1084 3319 
L 1650 3319 
L 1650 2881 
L 1084 2881 
L 1084 941 
Q 1084 700 1114 631 
Q 1144 563 1211 522 
Q 1278 481 1403 481 
Q 1497 481 1650 503 
z
" transform="scale(0.015625)"/>
       <path id="ArialMT-6f" d="M 213 1659 
Q 213 2581 725 3025 
Q 1153 3394 1769 3394 
Q 2453 3394 2887 2945 
Q 3322 2497 3322 1706 
Q 3322 1066 3130 698 
Q 2938 331 2570 128 
Q 2203 -75 1769 -75 
Q 1072 -75 642 372 
Q 213 819 213 1659 
z
M 791 1659 
Q 791 1022 1069 705 
Q 1347 388 1769 388 
Q 2188 388 2466 706 
Q 2744 1025 2744 1678 
Q 2744 2294 2464 2611 
Q 2184 2928 1769 2928 
Q 1347 2928 1069 2612 
Q 791 2297 791 1659 
z
" transform="scale(0.015625)"/>
       <path id="ArialMT-79" d="M 397 -1278 
L 334 -750 
Q 519 -800 656 -800 
Q 844 -800 956 -737 
Q 1069 -675 1141 -563 
Q 1194 -478 1313 -144 
Q 1328 -97 1363 -6 
L 103 3319 
L 709 3319 
L 1400 1397 
Q 1534 1031 1641 628 
Q 1738 1016 1872 1384 
L 2581 3319 
L 3144 3319 
L 1881 -56 
Q 1678 -603 1566 -809 
Q 1416 -1088 1222 -1217 
Q 1028 -1347 759 -1347 
Q 597 -1347 397 -1278 
z
" transform="scale(0.015625)"/>
       <path id="ArialMT-20" transform="scale(0.015625)"/>
       <path id="ArialMT-63" d="M 2588 1216 
L 3141 1144 
Q 3050 572 2676 248 
Q 2303 -75 1759 -75 
Q 1078 -75 664 370 
Q 250 816 250 1647 
Q 250 2184 428 2587 
Q 606 2991 970 3192 
Q 1334 3394 1763 3394 
Q 2303 3394 2647 3120 
Q 2991 2847 3088 2344 
L 2541 2259 
Q 2463 2594 2264 2762 
Q 2066 2931 1784 2931 
Q 1359 2931 1093 2626 
Q 828 2322 828 1663 
Q 828 994 1084 691 
Q 1341 388 1753 388 
Q 2084 388 2306 591 
Q 2528 794 2588 1216 
z
" transform="scale(0.015625)"/>
       <path id="ArialMT-68" d="M 422 0 
L 422 4581 
L 984 4581 
L 984 2938 
Q 1378 3394 1978 3394 
Q 2347 3394 2619 3248 
Q 2891 3103 3008 2847 
Q 3125 2591 3125 2103 
L 3125 0 
L 2563 0 
L 2563 2103 
Q 2563 2525 2380 2717 
Q 2197 2909 1863 2909 
Q 1613 2909 1392 2779 
Q 1172 2650 1078 2428 
Q 984 2206 984 1816 
L 984 0 
L 422 0 
z
" transform="scale(0.015625)"/>
       <path id="ArialMT-6e" d="M 422 0 
L 422 3319 
L 928 3319 
L 928 2847 
Q 1294 3394 1984 3394 
Q 2284 3394 2536 3286 
Q 2788 3178 2913 3003 
Q 3038 2828 3088 2588 
Q 3119 2431 3119 2041 
L 3119 0 
L 2556 0 
L 2556 2019 
Q 2556 2363 2490 2533 
Q 2425 2703 2258 2804 
Q 2091 2906 1866 2906 
Q 1506 2906 1245 2678 
Q 984 2450 984 1813 
L 984 0 
L 422 0 
z
" transform="scale(0.015625)"/>
       <path id="ArialMT-67" d="M 319 -275 
L 866 -356 
Q 900 -609 1056 -725 
Q 1266 -881 1628 -881 
Q 2019 -881 2231 -725 
Q 2444 -569 2519 -288 
Q 2563 -116 2559 434 
Q 2191 0 1641 0 
Q 956 0 581 494 
Q 206 988 206 1678 
Q 206 2153 378 2554 
Q 550 2956 876 3175 
Q 1203 3394 1644 3394 
Q 2231 3394 2613 2919 
L 2613 3319 
L 3131 3319 
L 3131 450 
Q 3131 -325 2973 -648 
Q 2816 -972 2473 -1159 
Q 2131 -1347 1631 -1347 
Q 1038 -1347 672 -1080 
Q 306 -813 319 -275 
z
M 784 1719 
Q 784 1066 1043 766 
Q 1303 466 1694 466 
Q 2081 466 2343 764 
Q 2606 1063 2606 1700 
Q 2606 2309 2336 2618 
Q 2066 2928 1684 2928 
Q 1309 2928 1046 2623 
Q 784 2319 784 1719 
z
" transform="scale(0.015625)"/>
      </defs>
      <use xlink:href="#ArialMT-52"/>
      <use xlink:href="#ArialMT-65" x="72.216797"/>
      <use xlink:href="#ArialMT-73" x="127.832031"/>
      <use xlink:href="#ArialMT-70" x="177.832031"/>
      <use xlink:href="#ArialMT-69" x="233.447266"/>
      <use xlink:href="#ArialMT-72" x="255.664062"/>
      <use xlink:href="#ArialMT-61" x="288.964844"/>
      <use xlink:href="#ArialMT-74" x="344.580078"/>
      <use xlink:href="#ArialMT-6f" x="372.363281"/>
      <use xlink:href="#ArialMT-72" x="427.978516"/>
      <use xlink:href="#ArialMT-79" x="461.279297"/>
      <use xlink:href="#ArialMT-20" x="511.279297"/>
      <use xlink:href="#ArialMT-65" x="539.0625"/>
      <use xlink:href="#ArialMT-78" x="594.677734"/>
      <use xlink:href="#ArialMT-63" x="644.677734"/>
      <use xlink:href="#ArialMT-68" x="694.677734"/>
      <use xlink:href="#ArialMT-61" x="750.292969"/>
      <use xlink:href="#ArialMT-6e" x="805.908203"/>
      <use xlink:href="#ArialMT-67" x="861.523438"/>
      <use xlink:href="#ArialMT-65" x="917.138672"/>
      <use xlink:href="#ArialMT-20" x="972.753906"/>
      <use xlink:href="#ArialMT-72" x="1000.537109"/>
      <use xlink:href="#ArialMT-61" x="1033.837891"/>
      <use xlink:href="#ArialMT-74" x="1089.453125"/>
      <use xlink:href="#ArialMT-69" x="1117.236328"/>
      <use xlink:href="#ArialMT-6f" x="1139.453125"/>
     </g>
    </g>
   </g>
   <g id="PolyCollection_1">
    <defs>
     <path id="m5dead754c5" d="M 99.080175 -55.925455 
L 98.331901 -55.925455 
L 98.24033 -58.746758 
L 98.133547 -61.568062 
L 98.010995 -64.389366 
L 97.872621 -67.21067 
L 97.718972 -70.031974 
L 97.551272 -72.853278 
L 97.371449 -75.674582 
L 97.182132 -78.495886 
L 96.986577 -81.31719 
L 96.788542 -84.138494 
L 96.592101 -86.959798 
L 96.401403 -89.781102 
L 96.220396 -92.602406 
L 96.052526 -95.42371 
L 95.900433 -98.245014 
L 95.765674 -101.066318 
L 95.648491 -103.887622 
L 95.54764 -106.708926 
L 95.460312 -109.53023 
L 95.38214 -112.351534 
L 95.307303 -115.172837 
L 95.228713 -117.994141 
L 95.138287 -120.815445 
L 95.027265 -123.636749 
L 94.886567 -126.458053 
L 94.707159 -129.279357 
L 94.480411 -132.100661 
L 94.19842 -134.921965 
L 93.854291 -137.743269 
L 93.442371 -140.564573 
L 92.958421 -143.385877 
L 92.399746 -146.207181 
L 91.765273 -149.028485 
L 91.055596 -151.849789 
L 90.272981 -154.671093 
L 89.421362 -157.492397 
L 88.506306 -160.313701 
L 87.534962 -163.135005 
L 86.515995 -165.956309 
L 85.459499 -168.777612 
L 84.376882 -171.598916 
L 83.280733 -174.42022 
L 82.184657 -177.241524 
L 81.103074 -180.062828 
L 80.051001 -182.884132 
L 79.04379 -185.705436 
L 78.096845 -188.52674 
L 77.225312 -191.348044 
L 76.443739 -194.169348 
L 75.765722 -196.990652 
L 75.203532 -199.811956 
L 74.767742 -202.63326 
L 74.466855 -205.454564 
L 74.306956 -208.275868 
L 74.291415 -211.097172 
L 74.420638 -213.918476 
L 74.69192 -216.73978 
L 75.099394 -219.561084 
L 75.63411 -222.382388 
L 76.284245 -225.203691 
L 77.035457 -228.024995 
L 77.871358 -230.846299 
L 78.774112 -233.667603 
L 79.725104 -236.488907 
L 80.705665 -239.310211 
L 81.697802 -242.131515 
L 82.684885 -244.952819 
L 83.652255 -247.774123 
L 84.587709 -250.595427 
L 85.481841 -253.416731 
L 86.3282 -256.238035 
L 87.123283 -259.059339 
L 87.86635 -261.880643 
L 88.559092 -264.701947 
L 89.205171 -267.523251 
L 89.809689 -270.344555 
L 90.378601 -273.165859 
L 90.918147 -275.987163 
L 91.434318 -278.808466 
L 91.932413 -281.62977 
L 92.416688 -284.451074 
L 92.890145 -287.272378 
L 93.354433 -290.093682 
L 93.809878 -292.914986 
L 94.255614 -295.73629 
L 94.689803 -298.557594 
L 95.109899 -301.378898 
L 95.512951 -304.200202 
L 95.895899 -307.021506 
L 96.255848 -309.84281 
L 96.590294 -312.664114 
L 96.8973 -315.485418 
L 97.175607 -318.306722 
L 97.424681 -321.128026 
L 97.644704 -323.94933 
L 97.83652 -326.770634 
L 98.001542 -329.591938 
L 98.141634 -332.413242 
L 98.258985 -335.234545 
L 99.153092 -335.234545 
L 99.153092 -335.234545 
L 99.270443 -332.413242 
L 99.410534 -329.591938 
L 99.575556 -326.770634 
L 99.767373 -323.94933 
L 99.987396 -321.128026 
L 100.236469 -318.306722 
L 100.514776 -315.485418 
L 100.821782 -312.664114 
L 101.156228 -309.84281 
L 101.516177 -307.021506 
L 101.899126 -304.200202 
L 102.302178 -301.378898 
L 102.722273 -298.557594 
L 103.156462 -295.73629 
L 103.602198 -292.914986 
L 104.057643 -290.093682 
L 104.521931 -287.272378 
L 104.995388 -284.451074 
L 105.479664 -281.62977 
L 105.977758 -278.808466 
L 106.49393 -275.987163 
L 107.033475 -273.165859 
L 107.602387 -270.344555 
L 108.206905 -267.523251 
L 108.852985 -264.701947 
L 109.545726 -261.880643 
L 110.288793 -259.059339 
L 111.083876 -256.238035 
L 111.930235 -253.416731 
L 112.824367 -250.595427 
L 113.759822 -247.774123 
L 114.727191 -244.952819 
L 115.714274 -242.131515 
L 116.706411 -239.310211 
L 117.686973 -236.488907 
L 118.637964 -233.667603 
L 119.540718 -230.846299 
L 120.376619 -228.024995 
L 121.127831 -225.203691 
L 121.777966 -222.382388 
L 122.312682 -219.561084 
L 122.720156 -216.73978 
L 122.991438 -213.918476 
L 123.120661 -211.097172 
L 123.10512 -208.275868 
L 122.945222 -205.454564 
L 122.644334 -202.63326 
L 122.208544 -199.811956 
L 121.646355 -196.990652 
L 120.968337 -194.169348 
L 120.186764 -191.348044 
L 119.315231 -188.52674 
L 118.368286 -185.705436 
L 117.361075 -182.884132 
L 116.309002 -180.062828 
L 115.22742 -177.241524 
L 114.131343 -174.42022 
L 113.035195 -171.598916 
L 111.952578 -168.777612 
L 110.896081 -165.956309 
L 109.877114 -163.135005 
L 108.90577 -160.313701 
L 107.990714 -157.492397 
L 107.139096 -154.671093 
L 106.356481 -151.849789 
L 105.646803 -149.028485 
L 105.01233 -146.207181 
L 104.453656 -143.385877 
L 103.969705 -140.564573 
L 103.557785 -137.743269 
L 103.213656 -134.921965 
L 102.931665 -132.100661 
L 102.704917 -129.279357 
L 102.52551 -126.458053 
L 102.384811 -123.636749 
L 102.273789 -120.815445 
L 102.183363 -117.994141 
L 102.104774 -115.172837 
L 102.029936 -112.351534 
L 101.951764 -109.53023 
L 101.864436 -106.708926 
L 101.763585 -103.887622 
L 101.646402 -101.066318 
L 101.511643 -98.245014 
L 101.35955 -95.42371 
L 101.19168 -92.602406 
L 101.010673 -89.781102 
L 100.819975 -86.959798 
L 100.623534 -84.138494 
L 100.425499 -81.31719 
L 100.229944 -78.495886 
L 100.040627 -75.674582 
L 99.860804 -72.853278 
L 99.693104 -70.031974 
L 99.539456 -67.21067 
L 99.401081 -64.389366 
L 99.278529 -61.568062 
L 99.171746 -58.746758 
L 99.080175 -55.925455 
z
" style="stroke: #3f3f3f; stroke-width: 1.25"/>
    </defs>
    <g clip-path="url(#p1d2db546af)">
     <use xlink:href="#m5dead754c5" x="0" y="360" style="fill: #3274a1; stroke: #3f3f3f; stroke-width: 1.25"/>
    </g>
   </g>
   <g id="PolyCollection_2">
    <defs>
     <path id="m87619542f4" d="M 159.606839 -96.37773 
L 158.795572 -96.37773 
L 158.698942 -98.255769 
L 158.584128 -100.133808 
L 158.448941 -102.011847 
L 158.29122 -103.889886 
L 158.108902 -105.767924 
L 157.900109 -107.645963 
L 157.663241 -109.524002 
L 157.397076 -111.402041 
L 157.100865 -113.28008 
L 156.774427 -115.158119 
L 156.418232 -117.036158 
L 156.03347 -118.914196 
L 155.62209 -120.792235 
L 155.186818 -122.670274 
L 154.731139 -124.548313 
L 154.259243 -126.426352 
L 153.775934 -128.304391 
L 153.286508 -130.182429 
L 152.796586 -132.060468 
L 152.311938 -133.938507 
L 151.838272 -135.816546 
L 151.381032 -137.694585 
L 150.945187 -139.572624 
L 150.535044 -141.450662 
L 150.154089 -143.328701 
L 149.804867 -145.20674 
L 149.488912 -147.084779 
L 149.20673 -148.962818 
L 148.957841 -150.840857 
L 148.740877 -152.718895 
L 148.553725 -154.596934 
L 148.393719 -156.474973 
L 148.257853 -158.353012 
L 148.143011 -160.231051 
L 148.046193 -162.10909 
L 147.964723 -163.987129 
L 147.896425 -165.865167 
L 147.83975 -167.743206 
L 147.793854 -169.621245 
L 147.758614 -171.499284 
L 147.734582 -173.377323 
L 147.722889 -175.255362 
L 147.7251 -177.1334 
L 147.743031 -179.011439 
L 147.778549 -180.889478 
L 147.833369 -182.767517 
L 147.908856 -184.645556 
L 148.005859 -186.523595 
L 148.124581 -188.401633 
L 148.264497 -190.279672 
L 148.424331 -192.157711 
L 148.602081 -194.03575 
L 148.795107 -195.913789 
L 149.000257 -197.791828 
L 149.214042 -199.669866 
L 149.432824 -201.547905 
L 149.653024 -203.425944 
L 149.871327 -205.303983 
L 150.084866 -207.182022 
L 150.291381 -209.060061 
L 150.489341 -210.9381 
L 150.67802 -212.816138 
L 150.857517 -214.694177 
L 151.028736 -216.572216 
L 151.193314 -218.450255 
L 151.35351 -220.328294 
L 151.512055 -222.206333 
L 151.671989 -224.084371 
L 151.836473 -225.96241 
L 152.008609 -227.840449 
L 152.191263 -229.718488 
L 152.386906 -231.596527 
L 152.597481 -233.474566 
L 152.824306 -235.352604 
L 153.068004 -237.230643 
L 153.328474 -239.108682 
L 153.604904 -240.986721 
L 153.895807 -242.86476 
L 154.199094 -244.742799 
L 154.512172 -246.620837 
L 154.832057 -248.498876 
L 155.1555 -250.376915 
L 155.479118 -252.254954 
L 155.799524 -254.132993 
L 156.113443 -256.011032 
L 156.417825 -257.889071 
L 156.709933 -259.767109 
L 156.987413 -261.645148 
L 157.248343 -263.523187 
L 157.491264 -265.401226 
L 157.715183 -267.279265 
L 157.919562 -269.157304 
L 158.104294 -271.035342 
L 158.269652 -272.913381 
L 158.416249 -274.79142 
L 158.544972 -276.669459 
L 158.656929 -278.547498 
L 158.753384 -280.425537 
L 158.8357 -282.303575 
L 159.566711 -282.303575 
L 159.566711 -282.303575 
L 159.649028 -280.425537 
L 159.745482 -278.547498 
L 159.857439 -276.669459 
L 159.986163 -274.79142 
L 160.132759 -272.913381 
L 160.298118 -271.035342 
L 160.482849 -269.157304 
L 160.687229 -267.279265 
L 160.911148 -265.401226 
L 161.154068 -263.523187 
L 161.414999 -261.645148 
L 161.692478 -259.767109 
L 161.984586 -257.889071 
L 162.288968 -256.011032 
L 162.602887 -254.132993 
L 162.923293 -252.254954 
L 163.246911 -250.376915 
L 163.570355 -248.498876 
L 163.89024 -246.620837 
L 164.203318 -244.742799 
L 164.506605 -242.86476 
L 164.797507 -240.986721 
L 165.073937 -239.108682 
L 165.334408 -237.230643 
L 165.578105 -235.352604 
L 165.80493 -233.474566 
L 166.015506 -231.596527 
L 166.211148 -229.718488 
L 166.393802 -227.840449 
L 166.565938 -225.96241 
L 166.730423 -224.084371 
L 166.890356 -222.206333 
L 167.048902 -220.328294 
L 167.209097 -218.450255 
L 167.373675 -216.572216 
L 167.544894 -214.694177 
L 167.724391 -212.816138 
L 167.91307 -210.9381 
L 168.111031 -209.060061 
L 168.317546 -207.182022 
L 168.531084 -205.303983 
L 168.749387 -203.425944 
L 168.969587 -201.547905 
L 169.188369 -199.669866 
L 169.402154 -197.791828 
L 169.607305 -195.913789 
L 169.80033 -194.03575 
L 169.97808 -192.157711 
L 170.137914 -190.279672 
L 170.27783 -188.401633 
L 170.396552 -186.523595 
L 170.493556 -184.645556 
L 170.569043 -182.767517 
L 170.623863 -180.889478 
L 170.659381 -179.011439 
L 170.677311 -177.1334 
L 170.679522 -175.255362 
L 170.66783 -173.377323 
L 170.643798 -171.499284 
L 170.608557 -169.621245 
L 170.562662 -167.743206 
L 170.505986 -165.865167 
L 170.437688 -163.987129 
L 170.356218 -162.10909 
L 170.2594 -160.231051 
L 170.144558 -158.353012 
L 170.008693 -156.474973 
L 169.848687 -154.596934 
L 169.661535 -152.718895 
L 169.44457 -150.840857 
L 169.195681 -148.962818 
L 168.913499 -147.084779 
L 168.597544 -145.20674 
L 168.248322 -143.328701 
L 167.867367 -141.450662 
L 167.457224 -139.572624 
L 167.021379 -137.694585 
L 166.564139 -135.816546 
L 166.090473 -133.938507 
L 165.605825 -132.060468 
L 165.115903 -130.182429 
L 164.626477 -128.304391 
L 164.143169 -126.426352 
L 163.671273 -124.548313 
L 163.215593 -122.670274 
L 162.780321 -120.792235 
L 162.368941 -118.914196 
L 161.984179 -117.036158 
L 161.627985 -115.158119 
L 161.301546 -113.28008 
L 161.005335 -111.402041 
L 160.73917 -109.524002 
L 160.502303 -107.645963 
L 160.29351 -105.767924 
L 160.111191 -103.889886 
L 159.95347 -102.011847 
L 159.818284 -100.133808 
L 159.703469 -98.255769 
L 159.606839 -96.37773 
z
" style="stroke: #3f3f3f; stroke-width: 1.25"/>
    </defs>
    <g clip-path="url(#p1d2db546af)">
     <use xlink:href="#m87619542f4" x="0" y="360" style="fill: #e1812c; stroke: #3f3f3f; stroke-width: 1.25"/>
    </g>
   </g>
   <g id="PolyCollection_3">
    <defs>
     <path id="md9e4008875" d="M 250.666397 -113.576813 
L 249.221517 -113.576813 
L 249.027548 -115.230586 
L 248.793233 -116.884359 
L 248.513442 -118.538132 
L 248.183188 -120.191905 
L 247.797832 -121.845679 
L 247.353295 -123.499452 
L 246.846287 -125.153225 
L 246.274507 -126.806998 
L 245.636824 -128.460771 
L 244.933414 -130.114544 
L 244.165837 -131.768317 
L 243.337044 -133.42209 
L 242.451316 -135.075863 
L 241.51413 -136.729636 
L 240.531956 -138.38341 
L 239.512004 -140.037183 
L 238.461945 -141.690956 
L 237.389612 -143.344729 
L 236.302732 -144.998502 
L 235.208684 -146.652275 
L 234.114329 -148.306048 
L 233.025914 -149.959821 
L 231.949047 -151.613594 
L 230.888765 -153.267368 
L 229.849656 -154.921141 
L 228.836027 -156.574914 
L 227.852094 -158.228687 
L 226.902152 -159.88246 
L 225.990716 -161.536233 
L 225.122588 -163.190006 
L 224.302853 -164.843779 
L 223.536784 -166.497552 
L 222.829672 -168.151326 
L 222.186598 -169.805099 
L 221.61216 -171.458872 
L 221.110208 -173.112645 
L 220.683599 -174.766418 
L 220.334021 -176.420191 
L 220.061897 -178.073964 
L 219.866394 -179.727737 
L 219.74553 -181.38151 
L 219.696373 -183.035283 
L 219.715311 -184.689057 
L 219.798352 -186.34283 
L 219.941428 -187.996603 
L 220.14066 -189.650376 
L 220.39255 -191.304149 
L 220.694088 -192.957922 
L 221.042749 -194.611695 
L 221.436388 -196.265468 
L 221.873059 -197.919241 
L 222.350771 -199.573015 
L 222.867231 -201.226788 
L 223.419602 -202.880561 
L 224.004321 -204.534334 
L 224.617006 -206.188107 
L 225.252465 -207.84188 
L 225.904828 -209.495653 
L 226.567781 -211.149426 
L 227.234881 -212.803199 
L 227.899935 -214.456973 
L 228.557394 -216.110746 
L 229.202717 -217.764519 
L 229.832683 -219.418292 
L 230.445607 -221.072065 
L 231.041439 -222.725838 
L 231.621752 -224.379611 
L 232.189588 -226.033384 
L 232.749213 -227.687157 
L 233.305773 -229.34093 
L 233.864893 -230.994704 
L 234.432249 -232.648477 
L 235.013144 -234.30225 
L 235.612118 -235.956023 
L 236.232609 -237.609796 
L 236.876706 -239.263569 
L 237.544979 -240.917342 
L 238.236415 -242.571115 
L 238.948443 -244.224888 
L 239.677052 -245.878662 
L 240.416983 -247.532435 
L 241.161986 -249.186208 
L 241.905122 -250.839981 
L 242.639082 -252.493754 
L 243.356521 -254.147527 
L 244.050373 -255.8013 
L 244.714135 -257.455073 
L 245.342112 -259.108846 
L 245.929601 -260.76262 
L 246.473017 -262.416393 
L 246.969961 -264.070166 
L 247.419216 -265.723939 
L 247.820698 -267.377712 
L 248.175351 -269.031485 
L 248.485017 -270.685258 
L 248.752265 -272.339031 
L 248.980226 -273.992804 
L 249.172409 -275.646577 
L 249.332539 -277.300351 
L 250.555375 -277.300351 
L 250.555375 -277.300351 
L 250.715504 -275.646577 
L 250.907688 -273.992804 
L 251.135648 -272.339031 
L 251.402897 -270.685258 
L 251.712562 -269.031485 
L 252.067216 -267.377712 
L 252.468697 -265.723939 
L 252.917952 -264.070166 
L 253.414896 -262.416393 
L 253.958313 -260.76262 
L 254.545802 -259.108846 
L 255.173779 -257.455073 
L 255.837541 -255.8013 
L 256.531393 -254.147527 
L 257.248832 -252.493754 
L 257.982792 -250.839981 
L 258.725928 -249.186208 
L 259.470931 -247.532435 
L 260.210862 -245.878662 
L 260.939471 -244.224888 
L 261.651498 -242.571115 
L 262.342935 -240.917342 
L 263.011208 -239.263569 
L 263.655305 -237.609796 
L 264.275796 -235.956023 
L 264.874769 -234.30225 
L 265.455665 -232.648477 
L 266.023021 -230.994704 
L 266.582141 -229.34093 
L 267.1387 -227.687157 
L 267.698325 -226.033384 
L 268.266162 -224.379611 
L 268.846474 -222.725838 
L 269.442307 -221.072065 
L 270.05523 -219.418292 
L 270.685196 -217.764519 
L 271.330519 -216.110746 
L 271.987978 -214.456973 
L 272.653033 -212.803199 
L 273.320133 -211.149426 
L 273.983085 -209.495653 
L 274.635449 -207.84188 
L 275.270908 -206.188107 
L 275.883593 -204.534334 
L 276.468312 -202.880561 
L 277.020683 -201.226788 
L 277.537143 -199.573015 
L 278.014855 -197.919241 
L 278.451525 -196.265468 
L 278.845164 -194.611695 
L 279.193825 -192.957922 
L 279.495364 -191.304149 
L 279.747254 -189.650376 
L 279.946485 -187.996603 
L 280.089561 -186.34283 
L 280.172602 -184.689057 
L 280.191541 -183.035283 
L 280.142384 -181.38151 
L 280.02152 -179.727737 
L 279.826016 -178.073964 
L 279.553893 -176.420191 
L 279.204314 -174.766418 
L 278.777706 -173.112645 
L 278.275754 -171.458872 
L 277.701316 -169.805099 
L 277.058241 -168.151326 
L 276.35113 -166.497552 
L 275.58506 -164.843779 
L 274.765326 -163.190006 
L 273.897198 -161.536233 
L 272.985762 -159.88246 
L 272.03582 -158.228687 
L 271.051886 -156.574914 
L 270.038258 -154.921141 
L 268.999149 -153.267368 
L 267.938867 -151.613594 
L 266.862 -149.959821 
L 265.773584 -148.306048 
L 264.67923 -146.652275 
L 263.585182 -144.998502 
L 262.498301 -143.344729 
L 261.425969 -141.690956 
L 260.375909 -140.037183 
L 259.355958 -138.38341 
L 258.373784 -136.729636 
L 257.436598 -135.075863 
L 256.55087 -133.42209 
L 255.722077 -131.768317 
L 254.954499 -130.114544 
L 254.25109 -128.460771 
L 253.613407 -126.806998 
L 253.041627 -125.153225 
L 252.534619 -123.499452 
L 252.090082 -121.845679 
L 251.704725 -120.191905 
L 251.374472 -118.538132 
L 251.094681 -116.884359 
L 250.860366 -115.230586 
L 250.666397 -113.576813 
z
" style="stroke: #3f3f3f; stroke-width: 1.25"/>
    </defs>
    <g clip-path="url(#p1d2db546af)">
     <use xlink:href="#md9e4008875" x="0" y="360" style="fill: #3274a1; stroke: #3f3f3f; stroke-width: 1.25"/>
    </g>
   </g>
   <g id="PolyCollection_4">
    <defs>
     <path id="m3ee27847d7" d="M 310.752469 -123.001194 
L 310.125779 -123.001194 
L 310.038085 -124.124517 
L 309.933367 -125.247839 
L 309.810504 -126.371162 
L 309.668844 -127.494485 
L 309.508281 -128.617807 
L 309.329296 -129.74113 
L 309.13292 -130.864453 
L 308.920634 -131.987775 
L 308.694197 -133.111098 
L 308.4554 -134.23442 
L 308.205787 -135.357743 
L 307.946361 -136.481066 
L 307.677321 -137.604388 
L 307.397864 -138.727711 
L 307.106098 -139.851034 
L 306.799088 -140.974356 
L 306.473046 -142.097679 
L 306.123653 -143.221002 
L 305.746482 -144.344324 
L 305.33746 -145.467647 
L 304.893318 -146.590969 
L 304.411941 -147.714292 
L 303.892553 -148.837615 
L 303.335716 -149.960937 
L 302.743082 -151.08426 
L 302.116959 -152.207583 
L 301.459703 -153.330905 
L 300.773049 -154.454228 
L 300.05746 -155.577551 
L 299.311629 -156.700873 
L 298.53221 -157.824196 
L 297.713885 -158.947518 
L 296.849795 -160.070841 
L 295.932328 -161.194164 
L 294.954229 -162.317486 
L 293.909921 -163.440809 
L 292.796916 -164.564132 
L 291.617152 -165.687454 
L 290.378109 -166.810777 
L 289.093556 -167.9341 
L 287.783804 -169.057422 
L 286.475407 -170.180745 
L 285.20028 -171.304067 
L 283.994266 -172.42739 
L 282.895258 -173.550713 
L 281.94099 -174.674035 
L 281.166688 -175.797358 
L 280.602757 -176.920681 
L 280.272715 -178.044003 
L 280.191541 -179.167326 
L 280.364583 -180.290649 
L 280.78713 -181.413971 
L 281.444677 -182.537294 
L 282.313867 -183.660616 
L 283.364018 -184.783939 
L 284.559102 -185.907262 
L 285.860007 -187.030584 
L 287.226875 -188.153907 
L 288.621336 -189.27723 
L 290.00846 -190.400552 
L 291.358301 -191.523875 
L 292.646926 -192.647198 
L 293.856926 -193.77052 
L 294.977405 -194.893843 
L 296.003516 -196.017165 
L 296.935664 -197.140488 
L 297.77846 -198.263811 
L 298.539582 -199.387133 
L 299.228639 -200.510456 
L 299.856137 -201.633779 
L 300.432612 -202.757101 
L 300.96798 -203.880424 
L 301.471097 -205.003747 
L 301.949521 -206.127069 
L 302.409447 -207.250392 
L 302.855759 -208.373714 
L 303.292161 -209.497037 
L 303.721337 -210.62036 
L 304.14511 -211.743682 
L 304.564564 -212.867005 
L 304.980145 -213.990328 
L 305.391709 -215.11365 
L 305.798557 -216.236973 
L 306.199462 -217.360296 
L 306.5927 -218.483618 
L 306.976114 -219.606941 
L 307.347211 -220.730263 
L 307.703286 -221.853586 
L 308.041585 -222.976909 
L 308.35948 -224.100231 
L 308.654643 -225.223554 
L 308.925202 -226.346877 
L 309.169861 -227.470199 
L 309.387979 -228.593522 
L 309.579593 -229.716845 
L 309.745394 -230.840167 
L 309.886653 -231.96349 
L 310.00512 -233.086812 
L 310.102897 -234.210135 
L 310.775351 -234.210135 
L 310.775351 -234.210135 
L 310.873129 -233.086812 
L 310.991596 -231.96349 
L 311.132855 -230.840167 
L 311.298655 -229.716845 
L 311.49027 -228.593522 
L 311.708388 -227.470199 
L 311.953047 -226.346877 
L 312.223606 -225.223554 
L 312.518769 -224.100231 
L 312.836664 -222.976909 
L 313.174963 -221.853586 
L 313.531038 -220.730263 
L 313.902134 -219.606941 
L 314.285549 -218.483618 
L 314.678787 -217.360296 
L 315.079691 -216.236973 
L 315.48654 -215.11365 
L 315.898103 -213.990328 
L 316.313684 -212.867005 
L 316.733139 -211.743682 
L 317.156911 -210.62036 
L 317.586088 -209.497037 
L 318.02249 -208.373714 
L 318.468801 -207.250392 
L 318.928727 -206.127069 
L 319.407152 -205.003747 
L 319.910268 -203.880424 
L 320.445637 -202.757101 
L 321.022112 -201.633779 
L 321.649609 -200.510456 
L 322.338667 -199.387133 
L 323.099789 -198.263811 
L 323.942585 -197.140488 
L 324.874732 -196.017165 
L 325.900844 -194.893843 
L 327.021322 -193.77052 
L 328.231323 -192.647198 
L 329.519948 -191.523875 
L 330.869789 -190.400552 
L 332.256913 -189.27723 
L 333.651374 -188.153907 
L 335.018242 -187.030584 
L 336.319147 -185.907262 
L 337.514231 -184.783939 
L 338.564382 -183.660616 
L 339.433571 -182.537294 
L 340.091119 -181.413971 
L 340.513666 -180.290649 
L 340.686708 -179.167326 
L 340.605534 -178.044003 
L 340.275492 -176.920681 
L 339.711561 -175.797358 
L 338.937258 -174.674035 
L 337.982991 -173.550713 
L 336.883983 -172.42739 
L 335.677969 -171.304067 
L 334.402841 -170.180745 
L 333.094445 -169.057422 
L 331.784693 -167.9341 
L 330.50014 -166.810777 
L 329.261097 -165.687454 
L 328.081333 -164.564132 
L 326.968327 -163.440809 
L 325.92402 -162.317486 
L 324.945921 -161.194164 
L 324.028454 -160.070841 
L 323.164364 -158.947518 
L 322.346039 -157.824196 
L 321.56662 -156.700873 
L 320.820788 -155.577551 
L 320.1052 -154.454228 
L 319.418546 -153.330905 
L 318.76129 -152.207583 
L 318.135167 -151.08426 
L 317.542533 -149.960937 
L 316.985695 -148.837615 
L 316.466308 -147.714292 
L 315.98493 -146.590969 
L 315.540789 -145.467647 
L 315.131767 -144.344324 
L 314.754595 -143.221002 
L 314.405202 -142.097679 
L 314.07916 -140.974356 
L 313.77215 -139.851034 
L 313.480384 -138.727711 
L 313.200927 -137.604388 
L 312.931888 -136.481066 
L 312.672462 -135.357743 
L 312.422849 -134.23442 
L 312.184051 -133.111098 
L 311.957614 -131.987775 
L 311.745329 -130.864453 
L 311.548953 -129.74113 
L 311.369968 -128.617807 
L 311.209405 -127.494485 
L 311.067744 -126.371162 
L 310.944882 -125.247839 
L 310.840164 -124.124517 
L 310.752469 -123.001194 
z
" style="stroke: #3f3f3f; stroke-width: 1.25"/>
    </defs>
    <g clip-path="url(#p1d2db546af)">
     <use xlink:href="#m3ee27847d7" x="0" y="360" style="fill: #e1812c; stroke: #3f3f3f; stroke-width: 1.25"/>
    </g>
   </g>
   <g id="patch_3">
    <path d="M 128.953622 408.330248 
L 128.953622 408.330248 
L 128.953622 408.330248 
L 128.953622 408.330248 
z
" clip-path="url(#p1d2db546af)" style="fill: #3274a1; stroke: #3f3f3f; stroke-width: 1.25; stroke-linejoin: miter"/>
   </g>
   <g id="patch_4">
    <path d="M 128.953622 408.330248 
L 128.953622 408.330248 
L 128.953622 408.330248 
L 128.953622 408.330248 
z
" clip-path="url(#p1d2db546af)" style="fill: #e1812c; stroke: #3f3f3f; stroke-width: 1.25; stroke-linejoin: miter"/>
   </g>
   <g id="line2d_8">
    <path d="M 98.706038 201.714231 
L 98.706038 74.9759 
" clip-path="url(#p1d2db546af)" style="fill: none; stroke: #3f3f3f; stroke-width: 1.875; stroke-linecap: round"/>
   </g>
   <g id="line2d_9">
    <path d="M 98.706038 174.06464 
L 98.706038 128.989976 
" clip-path="url(#p1d2db546af)" style="fill: none; stroke: #3f3f3f; stroke-width: 5.625; stroke-linecap: round"/>
   </g>
   <g id="line2d_10">
    <path d="M 98.706038 146.304467 
" clip-path="url(#p1d2db546af)" style="fill: none; stroke: #3f3f3f; stroke-width: 1.5; stroke-linecap: round"/>
    <defs>
     <path id="m065559c491" d="M 2.34375 0 
L -2.34375 -0 
" style="stroke: #ffffff; stroke-width: 1.125"/>
    </defs>
    <g clip-path="url(#p1d2db546af)">
     <use xlink:href="#m065559c491" x="98.706038" y="146.304467" style="fill: #ffffff; stroke: #ffffff; stroke-width: 1.125"/>
    </g>
   </g>
   <g id="line2d_11">
    <path d="M 159.201206 223.867939 
L 159.201206 117.450755 
" clip-path="url(#p1d2db546af)" style="fill: none; stroke: #3f3f3f; stroke-width: 1.875; stroke-linecap: round"/>
   </g>
   <g id="line2d_12">
    <path d="M 159.201206 208.309685 
L 159.201206 153.534522 
" clip-path="url(#p1d2db546af)" style="fill: none; stroke: #3f3f3f; stroke-width: 5.625; stroke-linecap: round"/>
   </g>
   <g id="line2d_13">
    <path d="M 159.201206 178.248704 
" clip-path="url(#p1d2db546af)" style="fill: none; stroke: #3f3f3f; stroke-width: 1.5; stroke-linecap: round"/>
    <g clip-path="url(#p1d2db546af)">
     <use xlink:href="#m065559c491" x="159.201206" y="178.248704" style="fill: #ffffff; stroke: #ffffff; stroke-width: 1.125"/>
    </g>
   </g>
   <g id="line2d_14">
    <path d="M 249.943957 215.730188 
L 249.943957 113.392648 
" clip-path="url(#p1d2db546af)" style="fill: none; stroke: #3f3f3f; stroke-width: 1.875; stroke-linecap: round"/>
   </g>
   <g id="line2d_15">
    <path d="M 249.943957 189.473416 
L 249.943957 151.198706 
" clip-path="url(#p1d2db546af)" style="fill: none; stroke: #3f3f3f; stroke-width: 5.625; stroke-linecap: round"/>
   </g>
   <g id="line2d_16">
    <path d="M 249.943957 171.616721 
" clip-path="url(#p1d2db546af)" style="fill: none; stroke: #3f3f3f; stroke-width: 1.5; stroke-linecap: round"/>
    <g clip-path="url(#p1d2db546af)">
     <use xlink:href="#m065559c491" x="249.943957" y="171.616721" style="fill: #ffffff; stroke: #ffffff; stroke-width: 1.125"/>
    </g>
   </g>
   <g id="line2d_17">
    <path d="M 310.439124 204.270983 
L 310.439124 157.989595 
" clip-path="url(#p1d2db546af)" style="fill: none; stroke: #3f3f3f; stroke-width: 1.875; stroke-linecap: round"/>
   </g>
   <g id="line2d_18">
    <path d="M 310.439124 188.634301 
L 310.439124 175.278747 
" clip-path="url(#p1d2db546af)" style="fill: none; stroke: #3f3f3f; stroke-width: 5.625; stroke-linecap: round"/>
   </g>
   <g id="line2d_19">
    <path d="M 310.439124 181.084814 
" clip-path="url(#p1d2db546af)" style="fill: none; stroke: #3f3f3f; stroke-width: 1.5; stroke-linecap: round"/>
    <g clip-path="url(#p1d2db546af)">
     <use xlink:href="#m065559c491" x="310.439124" y="181.084814" style="fill: #ffffff; stroke: #ffffff; stroke-width: 1.125"/>
    </g>
   </g>
   <g id="patch_5">
    <path d="M 53.334663 318.04 
L 53.334663 10.8 
" style="fill: none; stroke: #cccccc; stroke-width: 0.8; stroke-linejoin: miter; stroke-linecap: square"/>
   </g>
   <g id="patch_6">
    <path d="M 53.334663 318.04 
L 355.8105 318.04 
" style="fill: none; stroke: #cccccc; stroke-width: 0.8; stroke-linejoin: miter; stroke-linecap: square"/>
   </g>
  </g>
  <g id="legend_1">
   <g id="text_12">
    <!-- Time -->
    <g style="fill: #262626" transform="translate(373.633594 168.439844) scale(0.1 -0.1)">
     <defs>
      <path id="ArialMT-54" d="M 1659 0 
L 1659 4041 
L 150 4041 
L 150 4581 
L 3781 4581 
L 3781 4041 
L 2266 4041 
L 2266 0 
L 1659 0 
z
" transform="scale(0.015625)"/>
     </defs>
     <use xlink:href="#ArialMT-54"/>
     <use xlink:href="#ArialMT-69" x="57.333984"/>
     <use xlink:href="#ArialMT-6d" x="79.550781"/>
     <use xlink:href="#ArialMT-65" x="162.851562"/>
    </g>
   </g>
   <g id="patch_7">
    <path d="M 359.1625 182.585156 
L 379.1625 182.585156 
L 379.1625 175.585156 
L 359.1625 175.585156 
z
" style="fill: #3274a1; stroke: #3f3f3f; stroke-width: 1.25; stroke-linejoin: miter"/>
   </g>
   <g id="text_13">
    <!-- initial -->
    <g style="fill: #262626" transform="translate(387.1625 182.585156) scale(0.1 -0.1)">
     <defs>
      <path id="ArialMT-6c" d="M 409 0 
L 409 4581 
L 972 4581 
L 972 0 
L 409 0 
z
" transform="scale(0.015625)"/>
     </defs>
     <use xlink:href="#ArialMT-69"/>
     <use xlink:href="#ArialMT-6e" x="22.216797"/>
     <use xlink:href="#ArialMT-69" x="77.832031"/>
     <use xlink:href="#ArialMT-74" x="100.048828"/>
     <use xlink:href="#ArialMT-69" x="127.832031"/>
     <use xlink:href="#ArialMT-61" x="150.048828"/>
     <use xlink:href="#ArialMT-6c" x="205.664062"/>
    </g>
   </g>
   <g id="patch_8">
    <path d="M 359.1625 196.730469 
L 379.1625 196.730469 
L 379.1625 189.730469 
L 359.1625 189.730469 
z
" style="fill: #e1812c; stroke: #3f3f3f; stroke-width: 1.25; stroke-linejoin: miter"/>
   </g>
   <g id="text_14">
    <!-- final -->
    <g style="fill: #262626" transform="translate(387.1625 196.730469) scale(0.1 -0.1)">
     <use xlink:href="#ArialMT-66"/>
     <use xlink:href="#ArialMT-69" x="27.783203"/>
     <use xlink:href="#ArialMT-6e" x="50"/>
     <use xlink:href="#ArialMT-61" x="105.615234"/>
     <use xlink:href="#ArialMT-6c" x="161.230469"/>
    </g>
   </g>
  </g>
 </g>
 <defs>
  <clipPath id="p1d2db546af">
   <rect x="53.334663" y="10.8" width="302.475838" height="307.24"/>
  </clipPath>
 </defs>
</svg>
