<?xml version="1.0" encoding="utf-8" standalone="no"?>
<!DOCTYPE svg PUBLIC "-//W3C//DTD SVG 1.1//EN"
  "http://www.w3.org/Graphics/SVG/1.1/DTD/svg11.dtd">
<svg xmlns:xlink="http://www.w3.org/1999/xlink" width="418.95pt" height="360pt" viewBox="0 0 418.95 360" xmlns="http://www.w3.org/2000/svg" version="1.1">
 <metadata>
  <rdf:RDF xmlns:dc="http://purl.org/dc/elements/1.1/" xmlns:cc="http://creativecommons.org/ns#" xmlns:rdf="http://www.w3.org/1999/02/22-rdf-syntax-ns#">
   <cc:Work>
    <dc:type rdf:resource="http://purl.org/dc/dcmitype/StillImage"/>
    <dc:date>2024-09-10T22:07:14.404492</dc:date>
    <dc:format>image/svg+xml</dc:format>
    <dc:creator>
     <cc:Agent>
      <dc:title>Matplotlib v3.8.3, https://matplotlib.org/</dc:title>
     </cc:Agent>
    </dc:creator>
   </cc:Work>
  </rdf:RDF>
 </metadata>
 <defs>
  <style type="text/css">*{stroke-linejoin: round; stroke-linecap: butt}</style>
 </defs>
 <g id="figure_1">
  <g id="patch_1">
   <path d="M 0 360 
L 418.95 360 
L 418.95 0 
L 0 0 
z
" style="fill: #ffffff"/>
  </g>
  <g id="axes_1">
   <g id="patch_2">
    <path d="M 50.0878 318.04 
L 355.8105 318.04 
L 355.8105 10.8 
L 50.0878 10.8 
z
" style="fill: #ffffff"/>
   </g>
   <g id="matplotlib.axis_1">
    <g id="xtick_1">
     <g id="text_1">
      <!-- f -->
      <g style="fill: #262626" transform="translate(125.129413 332.197812) scale(0.1 -0.1)">
       <defs>
        <path id="ArialMT-66" d="M 556 0 
L 556 2881 
L 59 2881 
L 59 3319 
L 556 3319 
L 556 3672 
Q 556 4006 616 4169 
Q 697 4388 901 4523 
Q 1106 4659 1475 4659 
Q 1713 4659 2000 4603 
L 1916 4113 
Q 1741 4144 1584 4144 
Q 1328 4144 1222 4034 
Q 1116 3925 1116 3625 
L 1116 3319 
L 1763 3319 
L 1763 2881 
L 1116 2881 
L 1116 0 
L 556 0 
z
" transform="scale(0.015625)"/>
       </defs>
       <use xlink:href="#ArialMT-66"/>
      </g>
     </g>
    </g>
    <g id="xtick_2">
     <g id="text_2">
      <!-- m -->
      <g style="fill: #262626" transform="translate(275.214981 332.197812) scale(0.1 -0.1)">
       <defs>
        <path id="ArialMT-6d" d="M 422 0 
L 422 3319 
L 925 3319 
L 925 2853 
Q 1081 3097 1340 3245 
Q 1600 3394 1931 3394 
Q 2300 3394 2536 3241 
Q 2772 3088 2869 2813 
Q 3263 3394 3894 3394 
Q 4388 3394 4653 3120 
Q 4919 2847 4919 2278 
L 4919 0 
L 4359 0 
L 4359 2091 
Q 4359 2428 4304 2576 
Q 4250 2725 4106 2815 
Q 3963 2906 3769 2906 
Q 3419 2906 3187 2673 
Q 2956 2441 2956 1928 
L 2956 0 
L 2394 0 
L 2394 2156 
Q 2394 2531 2256 2718 
Q 2119 2906 1806 2906 
Q 1569 2906 1367 2781 
Q 1166 2656 1075 2415 
Q 984 2175 984 1722 
L 984 0 
L 422 0 
z
" transform="scale(0.015625)"/>
       </defs>
       <use xlink:href="#ArialMT-6d"/>
      </g>
     </g>
    </g>
    <g id="text_3">
     <!-- sex -->
     <g style="fill: #262626" transform="translate(195.168681 345.343125) scale(0.1 -0.1)">
      <defs>
       <path id="ArialMT-73" d="M 197 991 
L 753 1078 
Q 800 744 1014 566 
Q 1228 388 1613 388 
Q 2000 388 2187 545 
Q 2375 703 2375 916 
Q 2375 1106 2209 1216 
Q 2094 1291 1634 1406 
Q 1016 1563 777 1677 
Q 538 1791 414 1992 
Q 291 2194 291 2438 
Q 291 2659 392 2848 
Q 494 3038 669 3163 
Q 800 3259 1026 3326 
Q 1253 3394 1513 3394 
Q 1903 3394 2198 3281 
Q 2494 3169 2634 2976 
Q 2775 2784 2828 2463 
L 2278 2388 
Q 2241 2644 2061 2787 
Q 1881 2931 1553 2931 
Q 1166 2931 1000 2803 
Q 834 2675 834 2503 
Q 834 2394 903 2306 
Q 972 2216 1119 2156 
Q 1203 2125 1616 2013 
Q 2213 1853 2448 1751 
Q 2684 1650 2818 1456 
Q 2953 1263 2953 975 
Q 2953 694 2789 445 
Q 2625 197 2315 61 
Q 2006 -75 1616 -75 
Q 969 -75 630 194 
Q 291 463 197 991 
z
" transform="scale(0.015625)"/>
       <path id="ArialMT-65" d="M 2694 1069 
L 3275 997 
Q 3138 488 2766 206 
Q 2394 -75 1816 -75 
Q 1088 -75 661 373 
Q 234 822 234 1631 
Q 234 2469 665 2931 
Q 1097 3394 1784 3394 
Q 2450 3394 2872 2941 
Q 3294 2488 3294 1666 
Q 3294 1616 3291 1516 
L 816 1516 
Q 847 969 1125 678 
Q 1403 388 1819 388 
Q 2128 388 2347 550 
Q 2566 713 2694 1069 
z
M 847 1978 
L 2700 1978 
Q 2663 2397 2488 2606 
Q 2219 2931 1791 2931 
Q 1403 2931 1139 2672 
Q 875 2413 847 1978 
z
" transform="scale(0.015625)"/>
       <path id="ArialMT-78" d="M 47 0 
L 1259 1725 
L 138 3319 
L 841 3319 
L 1350 2541 
Q 1494 2319 1581 2169 
Q 1719 2375 1834 2534 
L 2394 3319 
L 3066 3319 
L 1919 1756 
L 3153 0 
L 2463 0 
L 1781 1031 
L 1600 1309 
L 728 0 
L 47 0 
z
" transform="scale(0.015625)"/>
      </defs>
      <use xlink:href="#ArialMT-73"/>
      <use xlink:href="#ArialMT-65" x="50"/>
      <use xlink:href="#ArialMT-78" x="105.615234"/>
     </g>
    </g>
   </g>
   <g id="matplotlib.axis_2">
    <g id="ytick_1">
     <g id="line2d_1">
      <path d="M 50.0878 301.355224 
L 355.8105 301.355224 
" clip-path="url(#pe077d5f5b7)" style="fill: none; stroke: #cccccc; stroke-width: 0.8; stroke-linecap: round"/>
     </g>
     <g id="text_4">
      <!-- 0 -->
      <g style="fill: #262626" transform="translate(37.526863 304.93413) scale(0.1 -0.1)">
       <defs>
        <path id="ArialMT-30" d="M 266 2259 
Q 266 3072 433 3567 
Q 600 4063 929 4331 
Q 1259 4600 1759 4600 
Q 2128 4600 2406 4451 
Q 2684 4303 2865 4023 
Q 3047 3744 3150 3342 
Q 3253 2941 3253 2259 
Q 3253 1453 3087 958 
Q 2922 463 2592 192 
Q 2263 -78 1759 -78 
Q 1097 -78 719 397 
Q 266 969 266 2259 
z
M 844 2259 
Q 844 1131 1108 757 
Q 1372 384 1759 384 
Q 2147 384 2411 759 
Q 2675 1134 2675 2259 
Q 2675 3391 2411 3762 
Q 2147 4134 1753 4134 
Q 1366 4134 1134 3806 
Q 844 3388 844 2259 
z
" transform="scale(0.015625)"/>
       </defs>
       <use xlink:href="#ArialMT-30"/>
      </g>
     </g>
    </g>
    <g id="ytick_2">
     <g id="line2d_2">
      <path d="M 50.0878 266.340896 
L 355.8105 266.340896 
" clip-path="url(#pe077d5f5b7)" style="fill: none; stroke: #cccccc; stroke-width: 0.8; stroke-linecap: round"/>
     </g>
     <g id="text_5">
      <!-- 10 -->
      <g style="fill: #262626" transform="translate(31.965925 269.919802) scale(0.1 -0.1)">
       <defs>
        <path id="ArialMT-31" d="M 2384 0 
L 1822 0 
L 1822 3584 
Q 1619 3391 1289 3197 
Q 959 3003 697 2906 
L 697 3450 
Q 1169 3672 1522 3987 
Q 1875 4303 2022 4600 
L 2384 4600 
L 2384 0 
z
" transform="scale(0.015625)"/>
       </defs>
       <use xlink:href="#ArialMT-31"/>
       <use xlink:href="#ArialMT-30" x="55.615234"/>
      </g>
     </g>
    </g>
    <g id="ytick_3">
     <g id="line2d_3">
      <path d="M 50.0878 231.326569 
L 355.8105 231.326569 
" clip-path="url(#pe077d5f5b7)" style="fill: none; stroke: #cccccc; stroke-width: 0.8; stroke-linecap: round"/>
     </g>
     <g id="text_6">
      <!-- 20 -->
      <g style="fill: #262626" transform="translate(31.965925 234.905475) scale(0.1 -0.1)">
       <defs>
        <path id="ArialMT-32" d="M 3222 541 
L 3222 0 
L 194 0 
Q 188 203 259 391 
Q 375 700 629 1000 
Q 884 1300 1366 1694 
Q 2113 2306 2375 2664 
Q 2638 3022 2638 3341 
Q 2638 3675 2398 3904 
Q 2159 4134 1775 4134 
Q 1369 4134 1125 3890 
Q 881 3647 878 3216 
L 300 3275 
Q 359 3922 746 4261 
Q 1134 4600 1788 4600 
Q 2447 4600 2831 4234 
Q 3216 3869 3216 3328 
Q 3216 3053 3103 2787 
Q 2991 2522 2730 2228 
Q 2469 1934 1863 1422 
Q 1356 997 1212 845 
Q 1069 694 975 541 
L 3222 541 
z
" transform="scale(0.015625)"/>
       </defs>
       <use xlink:href="#ArialMT-32"/>
       <use xlink:href="#ArialMT-30" x="55.615234"/>
      </g>
     </g>
    </g>
    <g id="ytick_4">
     <g id="line2d_4">
      <path d="M 50.0878 196.312241 
L 355.8105 196.312241 
" clip-path="url(#pe077d5f5b7)" style="fill: none; stroke: #cccccc; stroke-width: 0.8; stroke-linecap: round"/>
     </g>
     <g id="text_7">
      <!-- 30 -->
      <g style="fill: #262626" transform="translate(31.965925 199.891147) scale(0.1 -0.1)">
       <defs>
        <path id="ArialMT-33" d="M 269 1209 
L 831 1284 
Q 928 806 1161 595 
Q 1394 384 1728 384 
Q 2125 384 2398 659 
Q 2672 934 2672 1341 
Q 2672 1728 2419 1979 
Q 2166 2231 1775 2231 
Q 1616 2231 1378 2169 
L 1441 2663 
Q 1497 2656 1531 2656 
Q 1891 2656 2178 2843 
Q 2466 3031 2466 3422 
Q 2466 3731 2256 3934 
Q 2047 4138 1716 4138 
Q 1388 4138 1169 3931 
Q 950 3725 888 3313 
L 325 3413 
Q 428 3978 793 4289 
Q 1159 4600 1703 4600 
Q 2078 4600 2393 4439 
Q 2709 4278 2876 4000 
Q 3044 3722 3044 3409 
Q 3044 3113 2884 2869 
Q 2725 2625 2413 2481 
Q 2819 2388 3044 2092 
Q 3269 1797 3269 1353 
Q 3269 753 2831 336 
Q 2394 -81 1725 -81 
Q 1122 -81 723 278 
Q 325 638 269 1209 
z
" transform="scale(0.015625)"/>
       </defs>
       <use xlink:href="#ArialMT-33"/>
       <use xlink:href="#ArialMT-30" x="55.615234"/>
      </g>
     </g>
    </g>
    <g id="ytick_5">
     <g id="line2d_5">
      <path d="M 50.0878 161.297914 
L 355.8105 161.297914 
" clip-path="url(#pe077d5f5b7)" style="fill: none; stroke: #cccccc; stroke-width: 0.8; stroke-linecap: round"/>
     </g>
     <g id="text_8">
      <!-- 40 -->
      <g style="fill: #262626" transform="translate(31.965925 164.87682) scale(0.1 -0.1)">
       <defs>
        <path id="ArialMT-34" d="M 2069 0 
L 2069 1097 
L 81 1097 
L 81 1613 
L 2172 4581 
L 2631 4581 
L 2631 1613 
L 3250 1613 
L 3250 1097 
L 2631 1097 
L 2631 0 
L 2069 0 
z
M 2069 1613 
L 2069 3678 
L 634 1613 
L 2069 1613 
z
" transform="scale(0.015625)"/>
       </defs>
       <use xlink:href="#ArialMT-34"/>
       <use xlink:href="#ArialMT-30" x="55.615234"/>
      </g>
     </g>
    </g>
    <g id="ytick_6">
     <g id="line2d_6">
      <path d="M 50.0878 126.283586 
L 355.8105 126.283586 
" clip-path="url(#pe077d5f5b7)" style="fill: none; stroke: #cccccc; stroke-width: 0.8; stroke-linecap: round"/>
     </g>
     <g id="text_9">
      <!-- 50 -->
      <g style="fill: #262626" transform="translate(31.965925 129.862492) scale(0.1 -0.1)">
       <defs>
        <path id="ArialMT-35" d="M 266 1200 
L 856 1250 
Q 922 819 1161 601 
Q 1400 384 1738 384 
Q 2144 384 2425 690 
Q 2706 997 2706 1503 
Q 2706 1984 2436 2262 
Q 2166 2541 1728 2541 
Q 1456 2541 1237 2417 
Q 1019 2294 894 2097 
L 366 2166 
L 809 4519 
L 3088 4519 
L 3088 3981 
L 1259 3981 
L 1013 2750 
Q 1425 3038 1878 3038 
Q 2478 3038 2890 2622 
Q 3303 2206 3303 1553 
Q 3303 931 2941 478 
Q 2500 -78 1738 -78 
Q 1113 -78 717 272 
Q 322 622 266 1200 
z
" transform="scale(0.015625)"/>
       </defs>
       <use xlink:href="#ArialMT-35"/>
       <use xlink:href="#ArialMT-30" x="55.615234"/>
      </g>
     </g>
    </g>
    <g id="ytick_7">
     <g id="line2d_7">
      <path d="M 50.0878 91.269258 
L 355.8105 91.269258 
" clip-path="url(#pe077d5f5b7)" style="fill: none; stroke: #cccccc; stroke-width: 0.8; stroke-linecap: round"/>
     </g>
     <g id="text_10">
      <!-- 60 -->
      <g style="fill: #262626" transform="translate(31.965925 94.848165) scale(0.1 -0.1)">
       <defs>
        <path id="ArialMT-36" d="M 3184 3459 
L 2625 3416 
Q 2550 3747 2413 3897 
Q 2184 4138 1850 4138 
Q 1581 4138 1378 3988 
Q 1113 3794 959 3422 
Q 806 3050 800 2363 
Q 1003 2672 1297 2822 
Q 1591 2972 1913 2972 
Q 2475 2972 2870 2558 
Q 3266 2144 3266 1488 
Q 3266 1056 3080 686 
Q 2894 316 2569 119 
Q 2244 -78 1831 -78 
Q 1128 -78 684 439 
Q 241 956 241 2144 
Q 241 3472 731 4075 
Q 1159 4600 1884 4600 
Q 2425 4600 2770 4297 
Q 3116 3994 3184 3459 
z
M 888 1484 
Q 888 1194 1011 928 
Q 1134 663 1356 523 
Q 1578 384 1822 384 
Q 2178 384 2434 671 
Q 2691 959 2691 1453 
Q 2691 1928 2437 2201 
Q 2184 2475 1800 2475 
Q 1419 2475 1153 2201 
Q 888 1928 888 1484 
z
" transform="scale(0.015625)"/>
       </defs>
       <use xlink:href="#ArialMT-36"/>
       <use xlink:href="#ArialMT-30" x="55.615234"/>
      </g>
     </g>
    </g>
    <g id="ytick_8">
     <g id="line2d_8">
      <path d="M 50.0878 56.254931 
L 355.8105 56.254931 
" clip-path="url(#pe077d5f5b7)" style="fill: none; stroke: #cccccc; stroke-width: 0.8; stroke-linecap: round"/>
     </g>
     <g id="text_11">
      <!-- 70 -->
      <g style="fill: #262626" transform="translate(31.965925 59.833837) scale(0.1 -0.1)">
       <defs>
        <path id="ArialMT-37" d="M 303 3981 
L 303 4522 
L 3269 4522 
L 3269 4084 
Q 2831 3619 2401 2847 
Q 1972 2075 1738 1259 
Q 1569 684 1522 0 
L 944 0 
Q 953 541 1156 1306 
Q 1359 2072 1739 2783 
Q 2119 3494 2547 3981 
L 303 3981 
z
" transform="scale(0.015625)"/>
       </defs>
       <use xlink:href="#ArialMT-37"/>
       <use xlink:href="#ArialMT-30" x="55.615234"/>
      </g>
     </g>
    </g>
    <g id="ytick_9">
     <g id="line2d_9">
      <path d="M 50.0878 21.240603 
L 355.8105 21.240603 
" clip-path="url(#pe077d5f5b7)" style="fill: none; stroke: #cccccc; stroke-width: 0.8; stroke-linecap: round"/>
     </g>
     <g id="text_12">
      <!-- 80 -->
      <g style="fill: #262626" transform="translate(31.965925 24.81951) scale(0.1 -0.1)">
       <defs>
        <path id="ArialMT-38" d="M 1131 2484 
Q 781 2613 612 2850 
Q 444 3088 444 3419 
Q 444 3919 803 4259 
Q 1163 4600 1759 4600 
Q 2359 4600 2725 4251 
Q 3091 3903 3091 3403 
Q 3091 3084 2923 2848 
Q 2756 2613 2416 2484 
Q 2838 2347 3058 2040 
Q 3278 1734 3278 1309 
Q 3278 722 2862 322 
Q 2447 -78 1769 -78 
Q 1091 -78 675 323 
Q 259 725 259 1325 
Q 259 1772 486 2073 
Q 713 2375 1131 2484 
z
M 1019 3438 
Q 1019 3113 1228 2906 
Q 1438 2700 1772 2700 
Q 2097 2700 2305 2904 
Q 2513 3109 2513 3406 
Q 2513 3716 2298 3927 
Q 2084 4138 1766 4138 
Q 1444 4138 1231 3931 
Q 1019 3725 1019 3438 
z
M 838 1322 
Q 838 1081 952 856 
Q 1066 631 1291 507 
Q 1516 384 1775 384 
Q 2178 384 2440 643 
Q 2703 903 2703 1303 
Q 2703 1709 2433 1975 
Q 2163 2241 1756 2241 
Q 1359 2241 1098 1978 
Q 838 1716 838 1322 
z
" transform="scale(0.015625)"/>
       </defs>
       <use xlink:href="#ArialMT-38"/>
       <use xlink:href="#ArialMT-30" x="55.615234"/>
      </g>
     </g>
    </g>
    <g id="text_13">
     <!-- Respiratory rate (breaths/min) -->
     <g style="fill: #262626" transform="translate(25.861237 230.82625) rotate(-90) scale(0.1 -0.1)">
      <defs>
       <path id="ArialMT-52" d="M 503 0 
L 503 4581 
L 2534 4581 
Q 3147 4581 3465 4457 
Q 3784 4334 3975 4021 
Q 4166 3709 4166 3331 
Q 4166 2844 3850 2509 
Q 3534 2175 2875 2084 
Q 3116 1969 3241 1856 
Q 3506 1613 3744 1247 
L 4541 0 
L 3778 0 
L 3172 953 
Q 2906 1366 2734 1584 
Q 2563 1803 2427 1890 
Q 2291 1978 2150 2013 
Q 2047 2034 1813 2034 
L 1109 2034 
L 1109 0 
L 503 0 
z
M 1109 2559 
L 2413 2559 
Q 2828 2559 3062 2645 
Q 3297 2731 3419 2920 
Q 3541 3109 3541 3331 
Q 3541 3656 3305 3865 
Q 3069 4075 2559 4075 
L 1109 4075 
L 1109 2559 
z
" transform="scale(0.015625)"/>
       <path id="ArialMT-70" d="M 422 -1272 
L 422 3319 
L 934 3319 
L 934 2888 
Q 1116 3141 1344 3267 
Q 1572 3394 1897 3394 
Q 2322 3394 2647 3175 
Q 2972 2956 3137 2557 
Q 3303 2159 3303 1684 
Q 3303 1175 3120 767 
Q 2938 359 2589 142 
Q 2241 -75 1856 -75 
Q 1575 -75 1351 44 
Q 1128 163 984 344 
L 984 -1272 
L 422 -1272 
z
M 931 1641 
Q 931 1000 1190 694 
Q 1450 388 1819 388 
Q 2194 388 2461 705 
Q 2728 1022 2728 1688 
Q 2728 2322 2467 2637 
Q 2206 2953 1844 2953 
Q 1484 2953 1207 2617 
Q 931 2281 931 1641 
z
" transform="scale(0.015625)"/>
       <path id="ArialMT-69" d="M 425 3934 
L 425 4581 
L 988 4581 
L 988 3934 
L 425 3934 
z
M 425 0 
L 425 3319 
L 988 3319 
L 988 0 
L 425 0 
z
" transform="scale(0.015625)"/>
       <path id="ArialMT-72" d="M 416 0 
L 416 3319 
L 922 3319 
L 922 2816 
Q 1116 3169 1280 3281 
Q 1444 3394 1641 3394 
Q 1925 3394 2219 3213 
L 2025 2691 
Q 1819 2813 1613 2813 
Q 1428 2813 1281 2702 
Q 1134 2591 1072 2394 
Q 978 2094 978 1738 
L 978 0 
L 416 0 
z
" transform="scale(0.015625)"/>
       <path id="ArialMT-61" d="M 2588 409 
Q 2275 144 1986 34 
Q 1697 -75 1366 -75 
Q 819 -75 525 192 
Q 231 459 231 875 
Q 231 1119 342 1320 
Q 453 1522 633 1644 
Q 813 1766 1038 1828 
Q 1203 1872 1538 1913 
Q 2219 1994 2541 2106 
Q 2544 2222 2544 2253 
Q 2544 2597 2384 2738 
Q 2169 2928 1744 2928 
Q 1347 2928 1158 2789 
Q 969 2650 878 2297 
L 328 2372 
Q 403 2725 575 2942 
Q 747 3159 1072 3276 
Q 1397 3394 1825 3394 
Q 2250 3394 2515 3294 
Q 2781 3194 2906 3042 
Q 3031 2891 3081 2659 
Q 3109 2516 3109 2141 
L 3109 1391 
Q 3109 606 3145 398 
Q 3181 191 3288 0 
L 2700 0 
Q 2613 175 2588 409 
z
M 2541 1666 
Q 2234 1541 1622 1453 
Q 1275 1403 1131 1340 
Q 988 1278 909 1158 
Q 831 1038 831 891 
Q 831 666 1001 516 
Q 1172 366 1500 366 
Q 1825 366 2078 508 
Q 2331 650 2450 897 
Q 2541 1088 2541 1459 
L 2541 1666 
z
" transform="scale(0.015625)"/>
       <path id="ArialMT-74" d="M 1650 503 
L 1731 6 
Q 1494 -44 1306 -44 
Q 1000 -44 831 53 
Q 663 150 594 308 
Q 525 466 525 972 
L 525 2881 
L 113 2881 
L 113 3319 
L 525 3319 
L 525 4141 
L 1084 4478 
L 1084 3319 
L 1650 3319 
L 1650 2881 
L 1084 2881 
L 1084 941 
Q 1084 700 1114 631 
Q 1144 563 1211 522 
Q 1278 481 1403 481 
Q 1497 481 1650 503 
z
" transform="scale(0.015625)"/>
       <path id="ArialMT-6f" d="M 213 1659 
Q 213 2581 725 3025 
Q 1153 3394 1769 3394 
Q 2453 3394 2887 2945 
Q 3322 2497 3322 1706 
Q 3322 1066 3130 698 
Q 2938 331 2570 128 
Q 2203 -75 1769 -75 
Q 1072 -75 642 372 
Q 213 819 213 1659 
z
M 791 1659 
Q 791 1022 1069 705 
Q 1347 388 1769 388 
Q 2188 388 2466 706 
Q 2744 1025 2744 1678 
Q 2744 2294 2464 2611 
Q 2184 2928 1769 2928 
Q 1347 2928 1069 2612 
Q 791 2297 791 1659 
z
" transform="scale(0.015625)"/>
       <path id="ArialMT-79" d="M 397 -1278 
L 334 -750 
Q 519 -800 656 -800 
Q 844 -800 956 -737 
Q 1069 -675 1141 -563 
Q 1194 -478 1313 -144 
Q 1328 -97 1363 -6 
L 103 3319 
L 709 3319 
L 1400 1397 
Q 1534 1031 1641 628 
Q 1738 1016 1872 1384 
L 2581 3319 
L 3144 3319 
L 1881 -56 
Q 1678 -603 1566 -809 
Q 1416 -1088 1222 -1217 
Q 1028 -1347 759 -1347 
Q 597 -1347 397 -1278 
z
" transform="scale(0.015625)"/>
       <path id="ArialMT-20" transform="scale(0.015625)"/>
       <path id="ArialMT-28" d="M 1497 -1347 
Q 1031 -759 709 28 
Q 388 816 388 1659 
Q 388 2403 628 3084 
Q 909 3875 1497 4659 
L 1900 4659 
Q 1522 4009 1400 3731 
Q 1209 3300 1100 2831 
Q 966 2247 966 1656 
Q 966 153 1900 -1347 
L 1497 -1347 
z
" transform="scale(0.015625)"/>
       <path id="ArialMT-62" d="M 941 0 
L 419 0 
L 419 4581 
L 981 4581 
L 981 2947 
Q 1338 3394 1891 3394 
Q 2197 3394 2470 3270 
Q 2744 3147 2920 2923 
Q 3097 2700 3197 2384 
Q 3297 2069 3297 1709 
Q 3297 856 2875 390 
Q 2453 -75 1863 -75 
Q 1275 -75 941 416 
L 941 0 
z
M 934 1684 
Q 934 1088 1097 822 
Q 1363 388 1816 388 
Q 2184 388 2453 708 
Q 2722 1028 2722 1663 
Q 2722 2313 2464 2622 
Q 2206 2931 1841 2931 
Q 1472 2931 1203 2611 
Q 934 2291 934 1684 
z
" transform="scale(0.015625)"/>
       <path id="ArialMT-68" d="M 422 0 
L 422 4581 
L 984 4581 
L 984 2938 
Q 1378 3394 1978 3394 
Q 2347 3394 2619 3248 
Q 2891 3103 3008 2847 
Q 3125 2591 3125 2103 
L 3125 0 
L 2563 0 
L 2563 2103 
Q 2563 2525 2380 2717 
Q 2197 2909 1863 2909 
Q 1613 2909 1392 2779 
Q 1172 2650 1078 2428 
Q 984 2206 984 1816 
L 984 0 
L 422 0 
z
" transform="scale(0.015625)"/>
       <path id="ArialMT-2f" d="M 0 -78 
L 1328 4659 
L 1778 4659 
L 453 -78 
L 0 -78 
z
" transform="scale(0.015625)"/>
       <path id="ArialMT-6e" d="M 422 0 
L 422 3319 
L 928 3319 
L 928 2847 
Q 1294 3394 1984 3394 
Q 2284 3394 2536 3286 
Q 2788 3178 2913 3003 
Q 3038 2828 3088 2588 
Q 3119 2431 3119 2041 
L 3119 0 
L 2556 0 
L 2556 2019 
Q 2556 2363 2490 2533 
Q 2425 2703 2258 2804 
Q 2091 2906 1866 2906 
Q 1506 2906 1245 2678 
Q 984 2450 984 1813 
L 984 0 
L 422 0 
z
" transform="scale(0.015625)"/>
       <path id="ArialMT-29" d="M 791 -1347 
L 388 -1347 
Q 1322 153 1322 1656 
Q 1322 2244 1188 2822 
Q 1081 3291 891 3722 
Q 769 4003 388 4659 
L 791 4659 
Q 1378 3875 1659 3084 
Q 1900 2403 1900 1659 
Q 1900 816 1576 28 
Q 1253 -759 791 -1347 
z
" transform="scale(0.015625)"/>
      </defs>
      <use xlink:href="#ArialMT-52"/>
      <use xlink:href="#ArialMT-65" x="72.216797"/>
      <use xlink:href="#ArialMT-73" x="127.832031"/>
      <use xlink:href="#ArialMT-70" x="177.832031"/>
      <use xlink:href="#ArialMT-69" x="233.447266"/>
      <use xlink:href="#ArialMT-72" x="255.664062"/>
      <use xlink:href="#ArialMT-61" x="288.964844"/>
      <use xlink:href="#ArialMT-74" x="344.580078"/>
      <use xlink:href="#ArialMT-6f" x="372.363281"/>
      <use xlink:href="#ArialMT-72" x="427.978516"/>
      <use xlink:href="#ArialMT-79" x="461.279297"/>
      <use xlink:href="#ArialMT-20" x="511.279297"/>
      <use xlink:href="#ArialMT-72" x="539.0625"/>
      <use xlink:href="#ArialMT-61" x="572.363281"/>
      <use xlink:href="#ArialMT-74" x="627.978516"/>
      <use xlink:href="#ArialMT-65" x="655.761719"/>
      <use xlink:href="#ArialMT-20" x="711.376953"/>
      <use xlink:href="#ArialMT-28" x="739.160156"/>
      <use xlink:href="#ArialMT-62" x="772.460938"/>
      <use xlink:href="#ArialMT-72" x="828.076172"/>
      <use xlink:href="#ArialMT-65" x="861.376953"/>
      <use xlink:href="#ArialMT-61" x="916.992188"/>
      <use xlink:href="#ArialMT-74" x="972.607422"/>
      <use xlink:href="#ArialMT-68" x="1000.390625"/>
      <use xlink:href="#ArialMT-73" x="1056.005859"/>
      <use xlink:href="#ArialMT-2f" x="1106.005859"/>
      <use xlink:href="#ArialMT-6d" x="1133.789062"/>
      <use xlink:href="#ArialMT-69" x="1217.089844"/>
      <use xlink:href="#ArialMT-6e" x="1239.306641"/>
      <use xlink:href="#ArialMT-29" x="1294.921875"/>
     </g>
    </g>
   </g>
   <g id="PolyCollection_1">
    <defs>
     <path id="m38c9458ced" d="M 96.377093 -55.925455 
L 95.515317 -55.925455 
L 95.39973 -58.746758 
L 95.260306 -61.568062 
L 95.094076 -64.389366 
L 94.898159 -67.21067 
L 94.669861 -70.031974 
L 94.406788 -72.853278 
L 94.106946 -75.674582 
L 93.768841 -78.495886 
L 93.391547 -81.31719 
L 92.974758 -84.138494 
L 92.518811 -86.959798 
L 92.024667 -89.781102 
L 91.493869 -92.602406 
L 90.928469 -95.42371 
L 90.330934 -98.245014 
L 89.70403 -101.066318 
L 89.050718 -103.887622 
L 88.374045 -106.708926 
L 87.677061 -109.53023 
L 86.962764 -112.351534 
L 86.234083 -115.172837 
L 85.493896 -117.994141 
L 84.745098 -120.815445 
L 83.990692 -123.636749 
L 83.233921 -126.458053 
L 82.478408 -129.279357 
L 81.728301 -132.100661 
L 80.988399 -134.921965 
L 80.264257 -137.743269 
L 79.562233 -140.564573 
L 78.889488 -143.385877 
L 78.253912 -146.207181 
L 77.663982 -149.028485 
L 77.128553 -151.849789 
L 76.656589 -154.671093 
L 76.256847 -157.492397 
L 75.937526 -160.313701 
L 75.705922 -163.135005 
L 75.568083 -165.956309 
L 75.528518 -168.777612 
L 75.589948 -171.598916 
L 75.753148 -174.42022 
L 76.016865 -177.241524 
L 76.37783 -180.062828 
L 76.830865 -182.884132 
L 77.36906 -185.705436 
L 77.984028 -188.52674 
L 78.666207 -191.348044 
L 79.405192 -194.169348 
L 80.190075 -196.990652 
L 81.009772 -199.811956 
L 81.853329 -202.63326 
L 82.710176 -205.454564 
L 83.570332 -208.275868 
L 84.424556 -211.097172 
L 85.264436 -213.918476 
L 86.082434 -216.73978 
L 86.871887 -219.561084 
L 87.626971 -222.382388 
L 88.342664 -225.203691 
L 89.014689 -228.024995 
L 89.639481 -230.846299 
L 90.214163 -233.667603 
L 90.736547 -236.488907 
L 91.205163 -239.310211 
L 91.619311 -242.131515 
L 91.979119 -244.952819 
L 92.285612 -247.774123 
L 92.540765 -250.595427 
L 92.747536 -253.416731 
L 92.909856 -256.238035 
L 93.032577 -259.059339 
L 93.121361 -261.880643 
L 93.182521 -264.701947 
L 93.222805 -267.523251 
L 93.249144 -270.344555 
L 93.268377 -273.165859 
L 93.286963 -275.987163 
L 93.310715 -278.808466 
L 93.344557 -281.62977 
L 93.392341 -284.451074 
L 93.456717 -287.272378 
L 93.539089 -290.093682 
L 93.639627 -292.914986 
L 93.757367 -295.73629 
L 93.890362 -298.557594 
L 94.035881 -301.378898 
L 94.190637 -304.200202 
L 94.351035 -307.021506 
L 94.513402 -309.84281 
L 94.674202 -312.664114 
L 94.830219 -315.485418 
L 94.97869 -318.306722 
L 95.117398 -321.128026 
L 95.244714 -323.94933 
L 95.359602 -326.770634 
L 95.46158 -329.591938 
L 95.55066 -332.413242 
L 95.627267 -335.234545 
L 96.265143 -335.234545 
L 96.265143 -335.234545 
L 96.34175 -332.413242 
L 96.43083 -329.591938 
L 96.532808 -326.770634 
L 96.647696 -323.94933 
L 96.775012 -321.128026 
L 96.91372 -318.306722 
L 97.062191 -315.485418 
L 97.218208 -312.664114 
L 97.379008 -309.84281 
L 97.541375 -307.021506 
L 97.701773 -304.200202 
L 97.856529 -301.378898 
L 98.002048 -298.557594 
L 98.135043 -295.73629 
L 98.252783 -292.914986 
L 98.353321 -290.093682 
L 98.435693 -287.272378 
L 98.500069 -284.451074 
L 98.547853 -281.62977 
L 98.581695 -278.808466 
L 98.605447 -275.987163 
L 98.624033 -273.165859 
L 98.643266 -270.344555 
L 98.669605 -267.523251 
L 98.709889 -264.701947 
L 98.771049 -261.880643 
L 98.859833 -259.059339 
L 98.982554 -256.238035 
L 99.144874 -253.416731 
L 99.351645 -250.595427 
L 99.606798 -247.774123 
L 99.913291 -244.952819 
L 100.273099 -242.131515 
L 100.687247 -239.310211 
L 101.155863 -236.488907 
L 101.678247 -233.667603 
L 102.252929 -230.846299 
L 102.877721 -228.024995 
L 103.549746 -225.203691 
L 104.265439 -222.382388 
L 105.020523 -219.561084 
L 105.809976 -216.73978 
L 106.627974 -213.918476 
L 107.467854 -211.097172 
L 108.322078 -208.275868 
L 109.182234 -205.454564 
L 110.039081 -202.63326 
L 110.882638 -199.811956 
L 111.702335 -196.990652 
L 112.487218 -194.169348 
L 113.226203 -191.348044 
L 113.908382 -188.52674 
L 114.52335 -185.705436 
L 115.061545 -182.884132 
L 115.51458 -180.062828 
L 115.875545 -177.241524 
L 116.139262 -174.42022 
L 116.302462 -171.598916 
L 116.363892 -168.777612 
L 116.324327 -165.956309 
L 116.186488 -163.135005 
L 115.954884 -160.313701 
L 115.635563 -157.492397 
L 115.235821 -154.671093 
L 114.763857 -151.849789 
L 114.228428 -149.028485 
L 113.638498 -146.207181 
L 113.002922 -143.385877 
L 112.330177 -140.564573 
L 111.628153 -137.743269 
L 110.904011 -134.921965 
L 110.164109 -132.100661 
L 109.414002 -129.279357 
L 108.658489 -126.458053 
L 107.901718 -123.636749 
L 107.147312 -120.815445 
L 106.398514 -117.994141 
L 105.658327 -115.172837 
L 104.929646 -112.351534 
L 104.215349 -109.53023 
L 103.518365 -106.708926 
L 102.841692 -103.887622 
L 102.18838 -101.066318 
L 101.561476 -98.245014 
L 100.963941 -95.42371 
L 100.398541 -92.602406 
L 99.867743 -89.781102 
L 99.373599 -86.959798 
L 98.917652 -84.138494 
L 98.500863 -81.31719 
L 98.123569 -78.495886 
L 97.785464 -75.674582 
L 97.485622 -72.853278 
L 97.222549 -70.031974 
L 96.994251 -67.21067 
L 96.798334 -64.389366 
L 96.632104 -61.568062 
L 96.49268 -58.746758 
L 96.377093 -55.925455 
z
" style="stroke: #3f3f3f; stroke-width: 1.25"/>
    </defs>
    <g clip-path="url(#pe077d5f5b7)">
     <use xlink:href="#m38c9458ced" x="0" y="360" style="fill: #3274a1; stroke: #3f3f3f; stroke-width: 1.25"/>
    </g>
   </g>
   <g id="PolyCollection_2">
    <defs>
     <path id="mfdcbb3eeb7" d="M 157.83023 -81.220172 
L 156.35126 -81.220172 
L 156.157485 -83.068446 
L 155.923363 -84.91672 
L 155.643383 -86.764994 
L 155.312003 -88.613268 
L 154.923846 -90.461542 
L 154.473928 -92.309816 
L 153.957914 -94.15809 
L 153.372395 -96.006364 
L 152.71517 -97.854638 
L 151.985517 -99.702912 
L 151.184451 -101.551186 
L 150.314925 -103.39946 
L 149.381982 -105.247734 
L 148.39283 -107.096008 
L 147.356817 -108.944282 
L 146.285322 -110.792555 
L 145.191524 -112.640829 
L 144.090084 -114.489103 
L 142.996724 -116.337377 
L 141.927727 -118.185651 
L 140.899388 -120.033925 
L 139.927426 -121.882199 
L 139.026403 -123.730473 
L 138.209174 -125.578747 
L 137.486405 -127.427021 
L 136.866189 -129.275295 
L 136.35377 -131.123569 
L 135.951423 -132.971843 
L 135.658464 -134.820117 
L 135.471415 -136.668391 
L 135.384306 -138.516665 
L 135.389087 -140.364939 
L 135.476139 -142.213213 
L 135.634838 -144.061487 
L 135.85414 -145.909761 
L 136.123157 -147.758035 
L 136.431671 -149.606309 
L 136.770573 -151.454583 
L 137.132198 -153.302857 
L 137.510528 -155.151131 
L 137.901269 -156.999405 
L 138.301812 -158.847678 
L 138.71106 -160.695952 
L 139.129178 -162.544226 
L 139.557268 -164.3925 
L 139.996998 -166.240774 
L 140.450237 -168.089048 
L 140.918695 -169.937322 
L 141.403617 -171.785596 
L 141.905543 -173.63387 
L 142.42414 -175.482144 
L 142.958124 -177.330418 
L 143.505267 -179.178692 
L 144.062468 -181.026966 
L 144.625903 -182.87524 
L 145.191205 -184.723514 
L 145.753688 -186.571788 
L 146.308564 -188.420062 
L 146.851173 -190.268336 
L 147.377177 -192.11661 
L 147.882732 -193.964884 
L 148.36462 -195.813158 
L 148.82035 -197.661432 
L 149.248203 -199.509706 
L 149.64726 -201.35798 
L 150.017388 -203.206254 
L 150.359194 -205.054528 
L 150.673973 -206.902801 
L 150.963621 -208.751075 
L 151.230546 -210.599349 
L 151.477561 -212.447623 
L 151.707776 -214.295897 
L 151.924474 -216.144171 
L 152.130986 -217.992445 
L 152.330574 -219.840719 
L 152.526299 -221.688993 
L 152.720914 -223.537267 
L 152.916754 -225.385541 
L 153.115654 -227.233815 
L 153.318887 -229.082089 
L 153.527124 -230.930363 
L 153.740426 -232.778637 
L 153.958274 -234.626911 
L 154.179616 -236.475185 
L 154.402946 -238.323459 
L 154.626408 -240.171733 
L 154.847908 -242.020007 
L 155.065236 -243.868281 
L 155.276183 -245.716555 
L 155.478661 -247.564829 
L 155.670793 -249.413103 
L 155.850993 -251.261377 
L 156.018022 -253.109651 
L 156.171019 -254.957924 
L 156.309506 -256.806198 
L 156.433378 -258.654472 
L 156.54287 -260.502746 
L 156.638512 -262.35102 
L 156.721076 -264.199294 
L 157.460414 -264.199294 
L 157.460414 -264.199294 
L 157.542978 -262.35102 
L 157.63862 -260.502746 
L 157.748112 -258.654472 
L 157.871984 -256.806198 
L 158.010471 -254.957924 
L 158.163468 -253.109651 
L 158.330497 -251.261377 
L 158.510697 -249.413103 
L 158.702829 -247.564829 
L 158.905307 -245.716555 
L 159.116254 -243.868281 
L 159.333582 -242.020007 
L 159.555082 -240.171733 
L 159.778544 -238.323459 
L 160.001874 -236.475185 
L 160.223216 -234.626911 
L 160.441064 -232.778637 
L 160.654366 -230.930363 
L 160.862603 -229.082089 
L 161.065836 -227.233815 
L 161.264736 -225.385541 
L 161.460576 -223.537267 
L 161.655191 -221.688993 
L 161.850916 -219.840719 
L 162.050504 -217.992445 
L 162.257016 -216.144171 
L 162.473714 -214.295897 
L 162.703929 -212.447623 
L 162.950944 -210.599349 
L 163.217869 -208.751075 
L 163.507517 -206.902801 
L 163.822296 -205.054528 
L 164.164102 -203.206254 
L 164.53423 -201.35798 
L 164.933287 -199.509706 
L 165.36114 -197.661432 
L 165.81687 -195.813158 
L 166.298758 -193.964884 
L 166.804313 -192.11661 
L 167.330317 -190.268336 
L 167.872926 -188.420062 
L 168.427802 -186.571788 
L 168.990285 -184.723514 
L 169.555587 -182.87524 
L 170.119022 -181.026966 
L 170.676223 -179.178692 
L 171.223366 -177.330418 
L 171.75735 -175.482144 
L 172.275947 -173.63387 
L 172.777873 -171.785596 
L 173.262795 -169.937322 
L 173.731253 -168.089048 
L 174.184492 -166.240774 
L 174.624222 -164.3925 
L 175.052312 -162.544226 
L 175.47043 -160.695952 
L 175.879678 -158.847678 
L 176.280221 -156.999405 
L 176.670962 -155.151131 
L 177.049292 -153.302857 
L 177.410917 -151.454583 
L 177.749819 -149.606309 
L 178.058333 -147.758035 
L 178.32735 -145.909761 
L 178.546652 -144.061487 
L 178.705351 -142.213213 
L 178.792403 -140.364939 
L 178.797184 -138.516665 
L 178.710075 -136.668391 
L 178.523026 -134.820117 
L 178.230067 -132.971843 
L 177.82772 -131.123569 
L 177.315301 -129.275295 
L 176.695085 -127.427021 
L 175.972316 -125.578747 
L 175.155087 -123.730473 
L 174.254064 -121.882199 
L 173.282102 -120.033925 
L 172.253763 -118.185651 
L 171.184766 -116.337377 
L 170.091406 -114.489103 
L 168.989966 -112.640829 
L 167.896168 -110.792555 
L 166.824673 -108.944282 
L 165.78866 -107.096008 
L 164.799508 -105.247734 
L 163.866565 -103.39946 
L 162.997039 -101.551186 
L 162.195973 -99.702912 
L 161.46632 -97.854638 
L 160.809095 -96.006364 
L 160.223576 -94.15809 
L 159.707562 -92.309816 
L 159.257644 -90.461542 
L 158.869487 -88.613268 
L 158.538107 -86.764994 
L 158.258127 -84.91672 
L 158.024005 -83.068446 
L 157.83023 -81.220172 
z
" style="stroke: #3f3f3f; stroke-width: 1.25"/>
    </defs>
    <g clip-path="url(#pe077d5f5b7)">
     <use xlink:href="#mfdcbb3eeb7" x="0" y="360" style="fill: #e1812c; stroke: #3f3f3f; stroke-width: 1.25"/>
    </g>
   </g>
   <g id="PolyCollection_3">
    <defs>
     <path id="m8ff476155b" d="M 249.202848 -97.956469 
L 248.412262 -97.956469 
L 248.297277 -99.655126 
L 248.158365 -101.353782 
L 247.993235 -103.052438 
L 247.799947 -104.751094 
L 247.576945 -106.44975 
L 247.323027 -108.148406 
L 247.03722 -109.847062 
L 246.718568 -111.545718 
L 246.365829 -113.244374 
L 245.97711 -114.94303 
L 245.549489 -116.641686 
L 245.078677 -118.340342 
L 244.558782 -120.038998 
L 243.982251 -121.737654 
L 243.340038 -123.43631 
L 242.622033 -125.134966 
L 241.817762 -126.833622 
L 240.917325 -128.532278 
L 239.912508 -130.230934 
L 238.797968 -131.929591 
L 237.572381 -133.628247 
L 236.239421 -135.326903 
L 234.808456 -137.025559 
L 233.294858 -138.724215 
L 231.719859 -140.422871 
L 230.109941 -142.121527 
L 228.495756 -143.820183 
L 226.91065 -145.518839 
L 225.388876 -147.217495 
L 223.963619 -148.916151 
L 222.664973 -150.614807 
L 221.518018 -152.313463 
L 220.54115 -154.012119 
L 219.744798 -155.710775 
L 219.130666 -157.409431 
L 218.691585 -159.108087 
L 218.412021 -160.806743 
L 218.269274 -162.505399 
L 218.235285 -164.204056 
L 218.278952 -165.902712 
L 218.368782 -167.601368 
L 218.475643 -169.300024 
L 218.575384 -170.99868 
L 218.651044 -172.697336 
L 218.694435 -174.395992 
L 218.706916 -176.094648 
L 218.699276 -177.793304 
L 218.690708 -179.49196 
L 218.706996 -181.190616 
L 218.778092 -182.889272 
L 218.935334 -184.587928 
L 219.208613 -186.286584 
L 219.623733 -187.98524 
L 220.200247 -189.683896 
L 220.949919 -191.382552 
L 221.875914 -193.081208 
L 222.97272 -194.779864 
L 224.226736 -196.47852 
L 225.617384 -198.177177 
L 227.118593 -199.875833 
L 228.700464 -201.574489 
L 230.33098 -203.273145 
L 231.977607 -204.971801 
L 233.608717 -206.670457 
L 235.194775 -208.369113 
L 236.709277 -210.067769 
L 238.129459 -211.766425 
L 239.43679 -213.465081 
L 240.61729 -215.163737 
L 241.661687 -216.862393 
L 242.56544 -218.561049 
L 243.328628 -220.259705 
L 243.955713 -221.958361 
L 244.455155 -223.657017 
L 244.838906 -225.355673 
L 245.121763 -227.054329 
L 245.320606 -228.752985 
L 245.453545 -230.451642 
L 245.539026 -232.150298 
L 245.594921 -233.848954 
L 245.637682 -235.54761 
L 245.681611 -237.246266 
L 245.738277 -238.944922 
L 245.816147 -240.643578 
L 245.920437 -242.342234 
L 246.053191 -244.04089 
L 246.213566 -245.739546 
L 246.3983 -247.438202 
L 246.602292 -249.136858 
L 246.819255 -250.835514 
L 247.04237 -252.53417 
L 247.264885 -254.232826 
L 247.480617 -255.931482 
L 247.684333 -257.630138 
L 247.871983 -259.328794 
L 248.0408 -261.02745 
L 248.189278 -262.726107 
L 248.317053 -264.424763 
L 248.424712 -266.123419 
L 249.190398 -266.123419 
L 249.190398 -266.123419 
L 249.298057 -264.424763 
L 249.425832 -262.726107 
L 249.57431 -261.02745 
L 249.743127 -259.328794 
L 249.930777 -257.630138 
L 250.134493 -255.931482 
L 250.350225 -254.232826 
L 250.57274 -252.53417 
L 250.795855 -250.835514 
L 251.012818 -249.136858 
L 251.21681 -247.438202 
L 251.401544 -245.739546 
L 251.561919 -244.04089 
L 251.694673 -242.342234 
L 251.798963 -240.643578 
L 251.876833 -238.944922 
L 251.933499 -237.246266 
L 251.977428 -235.54761 
L 252.020189 -233.848954 
L 252.076084 -232.150298 
L 252.161565 -230.451642 
L 252.294504 -228.752985 
L 252.493347 -227.054329 
L 252.776204 -225.355673 
L 253.159955 -223.657017 
L 253.659397 -221.958361 
L 254.286482 -220.259705 
L 255.04967 -218.561049 
L 255.953423 -216.862393 
L 256.99782 -215.163737 
L 258.17832 -213.465081 
L 259.485651 -211.766425 
L 260.905833 -210.067769 
L 262.420335 -208.369113 
L 264.006393 -206.670457 
L 265.637503 -204.971801 
L 267.28413 -203.273145 
L 268.914646 -201.574489 
L 270.496517 -199.875833 
L 271.997726 -198.177177 
L 273.388374 -196.47852 
L 274.64239 -194.779864 
L 275.739196 -193.081208 
L 276.665191 -191.382552 
L 277.414863 -189.683896 
L 277.991377 -187.98524 
L 278.406497 -186.286584 
L 278.679776 -184.587928 
L 278.837018 -182.889272 
L 278.908114 -181.190616 
L 278.924402 -179.49196 
L 278.915834 -177.793304 
L 278.908194 -176.094648 
L 278.920675 -174.395992 
L 278.964066 -172.697336 
L 279.039726 -170.99868 
L 279.139467 -169.300024 
L 279.246328 -167.601368 
L 279.336158 -165.902712 
L 279.379825 -164.204056 
L 279.345836 -162.505399 
L 279.203089 -160.806743 
L 278.923525 -159.108087 
L 278.484444 -157.409431 
L 277.870312 -155.710775 
L 277.07396 -154.012119 
L 276.097092 -152.313463 
L 274.950137 -150.614807 
L 273.651491 -148.916151 
L 272.226234 -147.217495 
L 270.70446 -145.518839 
L 269.119354 -143.820183 
L 267.505169 -142.121527 
L 265.895251 -140.422871 
L 264.320252 -138.724215 
L 262.806654 -137.025559 
L 261.375689 -135.326903 
L 260.042729 -133.628247 
L 258.817142 -131.929591 
L 257.702602 -130.230934 
L 256.697785 -128.532278 
L 255.797348 -126.833622 
L 254.993077 -125.134966 
L 254.275072 -123.43631 
L 253.632859 -121.737654 
L 253.056328 -120.038998 
L 252.536433 -118.340342 
L 252.065621 -116.641686 
L 251.638 -114.94303 
L 251.249281 -113.244374 
L 250.896542 -111.545718 
L 250.57789 -109.847062 
L 250.292083 -108.148406 
L 250.038165 -106.44975 
L 249.815163 -104.751094 
L 249.621875 -103.052438 
L 249.456745 -101.353782 
L 249.317833 -99.655126 
L 249.202848 -97.956469 
z
" style="stroke: #3f3f3f; stroke-width: 1.25"/>
    </defs>
    <g clip-path="url(#pe077d5f5b7)">
     <use xlink:href="#m8ff476155b" x="0" y="360" style="fill: #3274a1; stroke: #3f3f3f; stroke-width: 1.25"/>
    </g>
   </g>
   <g id="PolyCollection_4">
    <defs>
     <path id="m72ae83fc43" d="M 310.63312 -92.364151 
L 309.27107 -92.364151 
L 309.073526 -93.872816 
L 308.834504 -95.381481 
L 308.550079 -96.890146 
L 308.217233 -98.39881 
L 307.83416 -99.907475 
L 307.400529 -101.41614 
L 306.917654 -102.924805 
L 306.388539 -104.43347 
L 305.817759 -105.942135 
L 305.211174 -107.4508 
L 304.575456 -108.959464 
L 303.917473 -110.468129 
L 303.243562 -111.976794 
L 302.558751 -113.485459 
L 301.866031 -114.994124 
L 301.165751 -116.502789 
L 300.455231 -118.011454 
L 299.728671 -119.520119 
L 298.977409 -121.028783 
L 298.190547 -122.537448 
L 297.355932 -124.046113 
L 296.461422 -125.554778 
L 295.496361 -127.063443 
L 294.453102 -128.572108 
L 293.328453 -130.080773 
L 292.124878 -131.589437 
L 290.851304 -133.098102 
L 289.523423 -134.606767 
L 288.163412 -136.115432 
L 286.799064 -137.624097 
L 285.462354 -139.132762 
L 284.187563 -140.641427 
L 283.009111 -142.150091 
L 281.959283 -143.658756 
L 281.066069 -145.167421 
L 280.351318 -146.676086 
L 279.829367 -148.184751 
L 279.506294 -149.693416 
L 279.379825 -151.202081 
L 279.439918 -152.710745 
L 279.669927 -154.21941 
L 280.048226 -155.728075 
L 280.550117 -157.23674 
L 281.149838 -158.745405 
L 281.822476 -160.25407 
L 282.545628 -161.762735 
L 283.300675 -163.2714 
L 284.073604 -164.780064 
L 284.855335 -166.288729 
L 285.641593 -167.797394 
L 286.432369 -169.306059 
L 287.231074 -170.814724 
L 288.043486 -172.323389 
L 288.8766 -173.832054 
L 289.737484 -175.340718 
L 290.632226 -176.849383 
L 291.56505 -178.358048 
L 292.537642 -179.866713 
L 293.548708 -181.375378 
L 294.593794 -182.884043 
L 295.665341 -184.392708 
L 296.752976 -185.901372 
L 297.843989 -187.410037 
L 298.923983 -188.918702 
L 299.977625 -190.427367 
L 300.989475 -191.936032 
L 301.944823 -193.444697 
L 302.830487 -194.953362 
L 303.635525 -196.462026 
L 304.351813 -197.970691 
L 304.974462 -199.479356 
L 305.502035 -200.988021 
L 305.936565 -202.496686 
L 306.283371 -204.005351 
L 306.550684 -205.514016 
L 306.749112 -207.022681 
L 306.890979 -208.531345 
L 306.989588 -210.04001 
L 307.058453 -211.548675 
L 307.110554 -213.05734 
L 307.15767 -214.566005 
L 307.20982 -216.07467 
L 307.274863 -217.583335 
L 307.358266 -219.091999 
L 307.463049 -220.600664 
L 307.5899 -222.109329 
L 307.737442 -223.617994 
L 307.902616 -225.126659 
L 308.081129 -226.635324 
L 308.267946 -228.143989 
L 308.457762 -229.652653 
L 308.645427 -231.161318 
L 308.826296 -232.669983 
L 308.996485 -234.178648 
L 309.153021 -235.687313 
L 309.293905 -237.195978 
L 309.418079 -238.704643 
L 309.525338 -240.213307 
L 309.616187 -241.721972 
L 310.288003 -241.721972 
L 310.288003 -241.721972 
L 310.378852 -240.213307 
L 310.486111 -238.704643 
L 310.610285 -237.195978 
L 310.751169 -235.687313 
L 310.907705 -234.178648 
L 311.077894 -232.669983 
L 311.258763 -231.161318 
L 311.446428 -229.652653 
L 311.636244 -228.143989 
L 311.823061 -226.635324 
L 312.001574 -225.126659 
L 312.166748 -223.617994 
L 312.31429 -222.109329 
L 312.441141 -220.600664 
L 312.545924 -219.091999 
L 312.629327 -217.583335 
L 312.69437 -216.07467 
L 312.74652 -214.566005 
L 312.793636 -213.05734 
L 312.845737 -211.548675 
L 312.914602 -210.04001 
L 313.013211 -208.531345 
L 313.155078 -207.022681 
L 313.353506 -205.514016 
L 313.620819 -204.005351 
L 313.967625 -202.496686 
L 314.402155 -200.988021 
L 314.929728 -199.479356 
L 315.552377 -197.970691 
L 316.268665 -196.462026 
L 317.073703 -194.953362 
L 317.959367 -193.444697 
L 318.914715 -191.936032 
L 319.926565 -190.427367 
L 320.980207 -188.918702 
L 322.060201 -187.410037 
L 323.151214 -185.901372 
L 324.238849 -184.392708 
L 325.310396 -182.884043 
L 326.355482 -181.375378 
L 327.366548 -179.866713 
L 328.33914 -178.358048 
L 329.271964 -176.849383 
L 330.166706 -175.340718 
L 331.02759 -173.832054 
L 331.860704 -172.323389 
L 332.673116 -170.814724 
L 333.471821 -169.306059 
L 334.262597 -167.797394 
L 335.048855 -166.288729 
L 335.830586 -164.780064 
L 336.603515 -163.2714 
L 337.358562 -161.762735 
L 338.081714 -160.25407 
L 338.754352 -158.745405 
L 339.354073 -157.23674 
L 339.855964 -155.728075 
L 340.234263 -154.21941 
L 340.464272 -152.710745 
L 340.524365 -151.202081 
L 340.397896 -149.693416 
L 340.074823 -148.184751 
L 339.552872 -146.676086 
L 338.838121 -145.167421 
L 337.944907 -143.658756 
L 336.895079 -142.150091 
L 335.716627 -140.641427 
L 334.441836 -139.132762 
L 333.105126 -137.624097 
L 331.740778 -136.115432 
L 330.380767 -134.606767 
L 329.052886 -133.098102 
L 327.779312 -131.589437 
L 326.575737 -130.080773 
L 325.451088 -128.572108 
L 324.407829 -127.063443 
L 323.442768 -125.554778 
L 322.548258 -124.046113 
L 321.713643 -122.537448 
L 320.926781 -121.028783 
L 320.175519 -119.520119 
L 319.448959 -118.011454 
L 318.738439 -116.502789 
L 318.038159 -114.994124 
L 317.345439 -113.485459 
L 316.660628 -111.976794 
L 315.986717 -110.468129 
L 315.328734 -108.959464 
L 314.693016 -107.4508 
L 314.086431 -105.942135 
L 313.515651 -104.43347 
L 312.986536 -102.924805 
L 312.503661 -101.41614 
L 312.07003 -99.907475 
L 311.686957 -98.39881 
L 311.354111 -96.890146 
L 311.069686 -95.381481 
L 310.830664 -93.872816 
L 310.63312 -92.364151 
z
" style="stroke: #3f3f3f; stroke-width: 1.25"/>
    </defs>
    <g clip-path="url(#pe077d5f5b7)">
     <use xlink:href="#m72ae83fc43" x="0" y="360" style="fill: #e1812c; stroke: #3f3f3f; stroke-width: 1.25"/>
    </g>
   </g>
   <g id="patch_3">
    <path d="M 126.518475 301.355224 
L 126.518475 301.355224 
L 126.518475 301.355224 
L 126.518475 301.355224 
z
" clip-path="url(#pe077d5f5b7)" style="fill: #3274a1; stroke: #3f3f3f; stroke-width: 1.25; stroke-linejoin: miter"/>
   </g>
   <g id="patch_4">
    <path d="M 126.518475 301.355224 
L 126.518475 301.355224 
L 126.518475 301.355224 
L 126.518475 301.355224 
z
" clip-path="url(#pe077d5f5b7)" style="fill: #e1812c; stroke: #3f3f3f; stroke-width: 1.25; stroke-linejoin: miter"/>
   </g>
   <g id="line2d_10">
    <path d="M 95.946205 253.044275 
L 95.946205 133.827517 
" clip-path="url(#pe077d5f5b7)" style="fill: none; stroke: #3f3f3f; stroke-width: 1.875; stroke-linecap: round"/>
   </g>
   <g id="line2d_11">
    <path d="M 95.946205 212.424244 
L 95.946205 167.531972 
" clip-path="url(#pe077d5f5b7)" style="fill: none; stroke: #3f3f3f; stroke-width: 5.625; stroke-linecap: round"/>
   </g>
   <g id="line2d_12">
    <path d="M 95.946205 190.768076 
" clip-path="url(#pe077d5f5b7)" style="fill: none; stroke: #3f3f3f; stroke-width: 1.5; stroke-linecap: round"/>
    <defs>
     <path id="m6da6a8ec06" d="M 2.34375 0 
L -2.34375 -0 
" style="stroke: #ffffff; stroke-width: 1.125"/>
    </defs>
    <g clip-path="url(#pe077d5f5b7)">
     <use xlink:href="#m6da6a8ec06" x="95.946205" y="190.768076" style="fill: #ffffff; stroke: #ffffff; stroke-width: 1.125"/>
    </g>
   </g>
   <g id="line2d_13">
    <path d="M 157.090745 242.36296 
L 157.090745 132.217574 
" clip-path="url(#pe077d5f5b7)" style="fill: none; stroke: #3f3f3f; stroke-width: 1.875; stroke-linecap: round"/>
   </g>
   <g id="line2d_14">
    <path d="M 157.090745 229.946795 
L 157.090745 187.423573 
" clip-path="url(#pe077d5f5b7)" style="fill: none; stroke: #3f3f3f; stroke-width: 5.625; stroke-linecap: round"/>
   </g>
   <g id="line2d_15">
    <path d="M 157.090745 214.74651 
" clip-path="url(#pe077d5f5b7)" style="fill: none; stroke: #3f3f3f; stroke-width: 1.5; stroke-linecap: round"/>
    <g clip-path="url(#pe077d5f5b7)">
     <use xlink:href="#m6da6a8ec06" x="157.090745" y="214.74651" style="fill: #ffffff; stroke: #ffffff; stroke-width: 1.125"/>
    </g>
   </g>
   <g id="line2d_16">
    <path d="M 248.807555 235.483953 
L 248.807555 153.152259 
" clip-path="url(#pe077d5f5b7)" style="fill: none; stroke: #3f3f3f; stroke-width: 1.875; stroke-linecap: round"/>
   </g>
   <g id="line2d_17">
    <path d="M 248.807555 201.412593 
L 248.807555 172.207375 
" clip-path="url(#pe077d5f5b7)" style="fill: none; stroke: #3f3f3f; stroke-width: 5.625; stroke-linecap: round"/>
   </g>
   <g id="line2d_18">
    <path d="M 248.807555 187.88387 
" clip-path="url(#pe077d5f5b7)" style="fill: none; stroke: #3f3f3f; stroke-width: 1.5; stroke-linecap: round"/>
    <g clip-path="url(#pe077d5f5b7)">
     <use xlink:href="#m6da6a8ec06" x="248.807555" y="187.88387" style="fill: #ffffff; stroke: #ffffff; stroke-width: 1.125"/>
    </g>
   </g>
   <g id="line2d_19">
    <path d="M 309.952095 243.186412 
L 309.952095 172.985792 
" clip-path="url(#pe077d5f5b7)" style="fill: none; stroke: #3f3f3f; stroke-width: 1.875; stroke-linecap: round"/>
   </g>
   <g id="line2d_20">
    <path d="M 309.952095 215.213374 
L 309.952095 189.77518 
" clip-path="url(#pe077d5f5b7)" style="fill: none; stroke: #3f3f3f; stroke-width: 5.625; stroke-linecap: round"/>
   </g>
   <g id="line2d_21">
    <path d="M 309.952095 207.557055 
" clip-path="url(#pe077d5f5b7)" style="fill: none; stroke: #3f3f3f; stroke-width: 1.5; stroke-linecap: round"/>
    <g clip-path="url(#pe077d5f5b7)">
     <use xlink:href="#m6da6a8ec06" x="309.952095" y="207.557055" style="fill: #ffffff; stroke: #ffffff; stroke-width: 1.125"/>
    </g>
   </g>
   <g id="patch_5">
    <path d="M 50.0878 318.04 
L 50.0878 10.8 
" style="fill: none; stroke: #cccccc; stroke-width: 0.8; stroke-linejoin: miter; stroke-linecap: square"/>
   </g>
   <g id="patch_6">
    <path d="M 50.0878 318.04 
L 355.8105 318.04 
" style="fill: none; stroke: #cccccc; stroke-width: 0.8; stroke-linejoin: miter; stroke-linecap: square"/>
   </g>
  </g>
  <g id="legend_1">
   <g id="text_14">
    <!-- Time -->
    <g style="fill: #262626" transform="translate(373.633594 168.439844) scale(0.1 -0.1)">
     <defs>
      <path id="ArialMT-54" d="M 1659 0 
L 1659 4041 
L 150 4041 
L 150 4581 
L 3781 4581 
L 3781 4041 
L 2266 4041 
L 2266 0 
L 1659 0 
z
" transform="scale(0.015625)"/>
     </defs>
     <use xlink:href="#ArialMT-54"/>
     <use xlink:href="#ArialMT-69" x="57.333984"/>
     <use xlink:href="#ArialMT-6d" x="79.550781"/>
     <use xlink:href="#ArialMT-65" x="162.851562"/>
    </g>
   </g>
   <g id="patch_7">
    <path d="M 359.1625 182.585156 
L 379.1625 182.585156 
L 379.1625 175.585156 
L 359.1625 175.585156 
z
" style="fill: #3274a1; stroke: #3f3f3f; stroke-width: 1.25; stroke-linejoin: miter"/>
   </g>
   <g id="text_15">
    <!-- initial -->
    <g style="fill: #262626" transform="translate(387.1625 182.585156) scale(0.1 -0.1)">
     <defs>
      <path id="ArialMT-6c" d="M 409 0 
L 409 4581 
L 972 4581 
L 972 0 
L 409 0 
z
" transform="scale(0.015625)"/>
     </defs>
     <use xlink:href="#ArialMT-69"/>
     <use xlink:href="#ArialMT-6e" x="22.216797"/>
     <use xlink:href="#ArialMT-69" x="77.832031"/>
     <use xlink:href="#ArialMT-74" x="100.048828"/>
     <use xlink:href="#ArialMT-69" x="127.832031"/>
     <use xlink:href="#ArialMT-61" x="150.048828"/>
     <use xlink:href="#ArialMT-6c" x="205.664062"/>
    </g>
   </g>
   <g id="patch_8">
    <path d="M 359.1625 196.730469 
L 379.1625 196.730469 
L 379.1625 189.730469 
L 359.1625 189.730469 
z
" style="fill: #e1812c; stroke: #3f3f3f; stroke-width: 1.25; stroke-linejoin: miter"/>
   </g>
   <g id="text_16">
    <!-- final -->
    <g style="fill: #262626" transform="translate(387.1625 196.730469) scale(0.1 -0.1)">
     <use xlink:href="#ArialMT-66"/>
     <use xlink:href="#ArialMT-69" x="27.783203"/>
     <use xlink:href="#ArialMT-6e" x="50"/>
     <use xlink:href="#ArialMT-61" x="105.615234"/>
     <use xlink:href="#ArialMT-6c" x="161.230469"/>
    </g>
   </g>
  </g>
 </g>
 <defs>
  <clipPath id="pe077d5f5b7">
   <rect x="50.0878" y="10.8" width="305.7227" height="307.24"/>
  </clipPath>
 </defs>
</svg>
