<?xml version="1.0" encoding="utf-8" standalone="no"?>
<!DOCTYPE svg PUBLIC "-//W3C//DTD SVG 1.1//EN"
  "http://www.w3.org/Graphics/SVG/1.1/DTD/svg11.dtd">
<svg xmlns:xlink="http://www.w3.org/1999/xlink" width="418.95pt" height="360pt" viewBox="0 0 418.95 360" xmlns="http://www.w3.org/2000/svg" version="1.1">
 <metadata>
  <rdf:RDF xmlns:dc="http://purl.org/dc/elements/1.1/" xmlns:cc="http://creativecommons.org/ns#" xmlns:rdf="http://www.w3.org/1999/02/22-rdf-syntax-ns#">
   <cc:Work>
    <dc:type rdf:resource="http://purl.org/dc/dcmitype/StillImage"/>
    <dc:date>2024-09-10T22:07:19.622344</dc:date>
    <dc:format>image/svg+xml</dc:format>
    <dc:creator>
     <cc:Agent>
      <dc:title>Matplotlib v3.8.3, https://matplotlib.org/</dc:title>
     </cc:Agent>
    </dc:creator>
   </cc:Work>
  </rdf:RDF>
 </metadata>
 <defs>
  <style type="text/css">*{stroke-linejoin: round; stroke-linecap: butt}</style>
 </defs>
 <g id="figure_1">
  <g id="patch_1">
   <path d="M 0 360 
L 418.95 360 
L 418.95 0 
L 0 0 
z
" style="fill: #ffffff"/>
  </g>
  <g id="axes_1">
   <g id="patch_2">
    <path d="M 50.0878 318.04 
L 355.8105 318.04 
L 355.8105 10.8 
L 50.0878 10.8 
z
" style="fill: #ffffff"/>
   </g>
   <g id="matplotlib.axis_1">
    <g id="xtick_1">
     <g id="text_1">
      <!-- f -->
      <g style="fill: #262626" transform="translate(125.129413 332.197812) scale(0.1 -0.1)">
       <defs>
        <path id="ArialMT-66" d="M 556 0 
L 556 2881 
L 59 2881 
L 59 3319 
L 556 3319 
L 556 3672 
Q 556 4006 616 4169 
Q 697 4388 901 4523 
Q 1106 4659 1475 4659 
Q 1713 4659 2000 4603 
L 1916 4113 
Q 1741 4144 1584 4144 
Q 1328 4144 1222 4034 
Q 1116 3925 1116 3625 
L 1116 3319 
L 1763 3319 
L 1763 2881 
L 1116 2881 
L 1116 0 
L 556 0 
z
" transform="scale(0.015625)"/>
       </defs>
       <use xlink:href="#ArialMT-66"/>
      </g>
     </g>
    </g>
    <g id="xtick_2">
     <g id="text_2">
      <!-- m -->
      <g style="fill: #262626" transform="translate(275.214981 332.197812) scale(0.1 -0.1)">
       <defs>
        <path id="ArialMT-6d" d="M 422 0 
L 422 3319 
L 925 3319 
L 925 2853 
Q 1081 3097 1340 3245 
Q 1600 3394 1931 3394 
Q 2300 3394 2536 3241 
Q 2772 3088 2869 2813 
Q 3263 3394 3894 3394 
Q 4388 3394 4653 3120 
Q 4919 2847 4919 2278 
L 4919 0 
L 4359 0 
L 4359 2091 
Q 4359 2428 4304 2576 
Q 4250 2725 4106 2815 
Q 3963 2906 3769 2906 
Q 3419 2906 3187 2673 
Q 2956 2441 2956 1928 
L 2956 0 
L 2394 0 
L 2394 2156 
Q 2394 2531 2256 2718 
Q 2119 2906 1806 2906 
Q 1569 2906 1367 2781 
Q 1166 2656 1075 2415 
Q 984 2175 984 1722 
L 984 0 
L 422 0 
z
" transform="scale(0.015625)"/>
       </defs>
       <use xlink:href="#ArialMT-6d"/>
      </g>
     </g>
    </g>
    <g id="text_3">
     <!-- sex -->
     <g style="fill: #262626" transform="translate(195.168681 345.343125) scale(0.1 -0.1)">
      <defs>
       <path id="ArialMT-73" d="M 197 991 
L 753 1078 
Q 800 744 1014 566 
Q 1228 388 1613 388 
Q 2000 388 2187 545 
Q 2375 703 2375 916 
Q 2375 1106 2209 1216 
Q 2094 1291 1634 1406 
Q 1016 1563 777 1677 
Q 538 1791 414 1992 
Q 291 2194 291 2438 
Q 291 2659 392 2848 
Q 494 3038 669 3163 
Q 800 3259 1026 3326 
Q 1253 3394 1513 3394 
Q 1903 3394 2198 3281 
Q 2494 3169 2634 2976 
Q 2775 2784 2828 2463 
L 2278 2388 
Q 2241 2644 2061 2787 
Q 1881 2931 1553 2931 
Q 1166 2931 1000 2803 
Q 834 2675 834 2503 
Q 834 2394 903 2306 
Q 972 2216 1119 2156 
Q 1203 2125 1616 2013 
Q 2213 1853 2448 1751 
Q 2684 1650 2818 1456 
Q 2953 1263 2953 975 
Q 2953 694 2789 445 
Q 2625 197 2315 61 
Q 2006 -75 1616 -75 
Q 969 -75 630 194 
Q 291 463 197 991 
z
" transform="scale(0.015625)"/>
       <path id="ArialMT-65" d="M 2694 1069 
L 3275 997 
Q 3138 488 2766 206 
Q 2394 -75 1816 -75 
Q 1088 -75 661 373 
Q 234 822 234 1631 
Q 234 2469 665 2931 
Q 1097 3394 1784 3394 
Q 2450 3394 2872 2941 
Q 3294 2488 3294 1666 
Q 3294 1616 3291 1516 
L 816 1516 
Q 847 969 1125 678 
Q 1403 388 1819 388 
Q 2128 388 2347 550 
Q 2566 713 2694 1069 
z
M 847 1978 
L 2700 1978 
Q 2663 2397 2488 2606 
Q 2219 2931 1791 2931 
Q 1403 2931 1139 2672 
Q 875 2413 847 1978 
z
" transform="scale(0.015625)"/>
       <path id="ArialMT-78" d="M 47 0 
L 1259 1725 
L 138 3319 
L 841 3319 
L 1350 2541 
Q 1494 2319 1581 2169 
Q 1719 2375 1834 2534 
L 2394 3319 
L 3066 3319 
L 1919 1756 
L 3153 0 
L 2463 0 
L 1781 1031 
L 1600 1309 
L 728 0 
L 47 0 
z
" transform="scale(0.015625)"/>
      </defs>
      <use xlink:href="#ArialMT-73"/>
      <use xlink:href="#ArialMT-65" x="50"/>
      <use xlink:href="#ArialMT-78" x="105.615234"/>
     </g>
    </g>
   </g>
   <g id="matplotlib.axis_2">
    <g id="ytick_1">
     <g id="line2d_1">
      <path d="M 50.0878 304.20591 
L 355.8105 304.20591 
" clip-path="url(#pcb2d35a298)" style="fill: none; stroke: #cccccc; stroke-width: 0.8; stroke-linecap: round"/>
     </g>
     <g id="text_4">
      <!-- 10 -->
      <g style="fill: #262626" transform="translate(31.965925 307.784816) scale(0.1 -0.1)">
       <defs>
        <path id="ArialMT-31" d="M 2384 0 
L 1822 0 
L 1822 3584 
Q 1619 3391 1289 3197 
Q 959 3003 697 2906 
L 697 3450 
Q 1169 3672 1522 3987 
Q 1875 4303 2022 4600 
L 2384 4600 
L 2384 0 
z
" transform="scale(0.015625)"/>
        <path id="ArialMT-30" d="M 266 2259 
Q 266 3072 433 3567 
Q 600 4063 929 4331 
Q 1259 4600 1759 4600 
Q 2128 4600 2406 4451 
Q 2684 4303 2865 4023 
Q 3047 3744 3150 3342 
Q 3253 2941 3253 2259 
Q 3253 1453 3087 958 
Q 2922 463 2592 192 
Q 2263 -78 1759 -78 
Q 1097 -78 719 397 
Q 266 969 266 2259 
z
M 844 2259 
Q 844 1131 1108 757 
Q 1372 384 1759 384 
Q 2147 384 2411 759 
Q 2675 1134 2675 2259 
Q 2675 3391 2411 3762 
Q 2147 4134 1753 4134 
Q 1366 4134 1134 3806 
Q 844 3388 844 2259 
z
" transform="scale(0.015625)"/>
       </defs>
       <use xlink:href="#ArialMT-31"/>
       <use xlink:href="#ArialMT-30" x="55.615234"/>
      </g>
     </g>
    </g>
    <g id="ytick_2">
     <g id="line2d_2">
      <path d="M 50.0878 249.304323 
L 355.8105 249.304323 
" clip-path="url(#pcb2d35a298)" style="fill: none; stroke: #cccccc; stroke-width: 0.8; stroke-linecap: round"/>
     </g>
     <g id="text_5">
      <!-- 20 -->
      <g style="fill: #262626" transform="translate(31.965925 252.883229) scale(0.1 -0.1)">
       <defs>
        <path id="ArialMT-32" d="M 3222 541 
L 3222 0 
L 194 0 
Q 188 203 259 391 
Q 375 700 629 1000 
Q 884 1300 1366 1694 
Q 2113 2306 2375 2664 
Q 2638 3022 2638 3341 
Q 2638 3675 2398 3904 
Q 2159 4134 1775 4134 
Q 1369 4134 1125 3890 
Q 881 3647 878 3216 
L 300 3275 
Q 359 3922 746 4261 
Q 1134 4600 1788 4600 
Q 2447 4600 2831 4234 
Q 3216 3869 3216 3328 
Q 3216 3053 3103 2787 
Q 2991 2522 2730 2228 
Q 2469 1934 1863 1422 
Q 1356 997 1212 845 
Q 1069 694 975 541 
L 3222 541 
z
" transform="scale(0.015625)"/>
       </defs>
       <use xlink:href="#ArialMT-32"/>
       <use xlink:href="#ArialMT-30" x="55.615234"/>
      </g>
     </g>
    </g>
    <g id="ytick_3">
     <g id="line2d_3">
      <path d="M 50.0878 194.402735 
L 355.8105 194.402735 
" clip-path="url(#pcb2d35a298)" style="fill: none; stroke: #cccccc; stroke-width: 0.8; stroke-linecap: round"/>
     </g>
     <g id="text_6">
      <!-- 30 -->
      <g style="fill: #262626" transform="translate(31.965925 197.981642) scale(0.1 -0.1)">
       <defs>
        <path id="ArialMT-33" d="M 269 1209 
L 831 1284 
Q 928 806 1161 595 
Q 1394 384 1728 384 
Q 2125 384 2398 659 
Q 2672 934 2672 1341 
Q 2672 1728 2419 1979 
Q 2166 2231 1775 2231 
Q 1616 2231 1378 2169 
L 1441 2663 
Q 1497 2656 1531 2656 
Q 1891 2656 2178 2843 
Q 2466 3031 2466 3422 
Q 2466 3731 2256 3934 
Q 2047 4138 1716 4138 
Q 1388 4138 1169 3931 
Q 950 3725 888 3313 
L 325 3413 
Q 428 3978 793 4289 
Q 1159 4600 1703 4600 
Q 2078 4600 2393 4439 
Q 2709 4278 2876 4000 
Q 3044 3722 3044 3409 
Q 3044 3113 2884 2869 
Q 2725 2625 2413 2481 
Q 2819 2388 3044 2092 
Q 3269 1797 3269 1353 
Q 3269 753 2831 336 
Q 2394 -81 1725 -81 
Q 1122 -81 723 278 
Q 325 638 269 1209 
z
" transform="scale(0.015625)"/>
       </defs>
       <use xlink:href="#ArialMT-33"/>
       <use xlink:href="#ArialMT-30" x="55.615234"/>
      </g>
     </g>
    </g>
    <g id="ytick_4">
     <g id="line2d_4">
      <path d="M 50.0878 139.501148 
L 355.8105 139.501148 
" clip-path="url(#pcb2d35a298)" style="fill: none; stroke: #cccccc; stroke-width: 0.8; stroke-linecap: round"/>
     </g>
     <g id="text_7">
      <!-- 40 -->
      <g style="fill: #262626" transform="translate(31.965925 143.080054) scale(0.1 -0.1)">
       <defs>
        <path id="ArialMT-34" d="M 2069 0 
L 2069 1097 
L 81 1097 
L 81 1613 
L 2172 4581 
L 2631 4581 
L 2631 1613 
L 3250 1613 
L 3250 1097 
L 2631 1097 
L 2631 0 
L 2069 0 
z
M 2069 1613 
L 2069 3678 
L 634 1613 
L 2069 1613 
z
" transform="scale(0.015625)"/>
       </defs>
       <use xlink:href="#ArialMT-34"/>
       <use xlink:href="#ArialMT-30" x="55.615234"/>
      </g>
     </g>
    </g>
    <g id="ytick_5">
     <g id="line2d_5">
      <path d="M 50.0878 84.599561 
L 355.8105 84.599561 
" clip-path="url(#pcb2d35a298)" style="fill: none; stroke: #cccccc; stroke-width: 0.8; stroke-linecap: round"/>
     </g>
     <g id="text_8">
      <!-- 50 -->
      <g style="fill: #262626" transform="translate(31.965925 88.178467) scale(0.1 -0.1)">
       <defs>
        <path id="ArialMT-35" d="M 266 1200 
L 856 1250 
Q 922 819 1161 601 
Q 1400 384 1738 384 
Q 2144 384 2425 690 
Q 2706 997 2706 1503 
Q 2706 1984 2436 2262 
Q 2166 2541 1728 2541 
Q 1456 2541 1237 2417 
Q 1019 2294 894 2097 
L 366 2166 
L 809 4519 
L 3088 4519 
L 3088 3981 
L 1259 3981 
L 1013 2750 
Q 1425 3038 1878 3038 
Q 2478 3038 2890 2622 
Q 3303 2206 3303 1553 
Q 3303 931 2941 478 
Q 2500 -78 1738 -78 
Q 1113 -78 717 272 
Q 322 622 266 1200 
z
" transform="scale(0.015625)"/>
       </defs>
       <use xlink:href="#ArialMT-35"/>
       <use xlink:href="#ArialMT-30" x="55.615234"/>
      </g>
     </g>
    </g>
    <g id="ytick_6">
     <g id="line2d_6">
      <path d="M 50.0878 29.697973 
L 355.8105 29.697973 
" clip-path="url(#pcb2d35a298)" style="fill: none; stroke: #cccccc; stroke-width: 0.8; stroke-linecap: round"/>
     </g>
     <g id="text_9">
      <!-- 60 -->
      <g style="fill: #262626" transform="translate(31.965925 33.27688) scale(0.1 -0.1)">
       <defs>
        <path id="ArialMT-36" d="M 3184 3459 
L 2625 3416 
Q 2550 3747 2413 3897 
Q 2184 4138 1850 4138 
Q 1581 4138 1378 3988 
Q 1113 3794 959 3422 
Q 806 3050 800 2363 
Q 1003 2672 1297 2822 
Q 1591 2972 1913 2972 
Q 2475 2972 2870 2558 
Q 3266 2144 3266 1488 
Q 3266 1056 3080 686 
Q 2894 316 2569 119 
Q 2244 -78 1831 -78 
Q 1128 -78 684 439 
Q 241 956 241 2144 
Q 241 3472 731 4075 
Q 1159 4600 1884 4600 
Q 2425 4600 2770 4297 
Q 3116 3994 3184 3459 
z
M 888 1484 
Q 888 1194 1011 928 
Q 1134 663 1356 523 
Q 1578 384 1822 384 
Q 2178 384 2434 671 
Q 2691 959 2691 1453 
Q 2691 1928 2437 2201 
Q 2184 2475 1800 2475 
Q 1419 2475 1153 2201 
Q 888 1928 888 1484 
z
" transform="scale(0.015625)"/>
       </defs>
       <use xlink:href="#ArialMT-36"/>
       <use xlink:href="#ArialMT-30" x="55.615234"/>
      </g>
     </g>
    </g>
    <g id="text_10">
     <!-- Ventilation oxygen equivalent (l) -->
     <g style="fill: #262626" transform="translate(25.861237 235.016875) rotate(-90) scale(0.1 -0.1)">
      <defs>
       <path id="ArialMT-56" d="M 1803 0 
L 28 4581 
L 684 4581 
L 1875 1253 
Q 2019 853 2116 503 
Q 2222 878 2363 1253 
L 3600 4581 
L 4219 4581 
L 2425 0 
L 1803 0 
z
" transform="scale(0.015625)"/>
       <path id="ArialMT-6e" d="M 422 0 
L 422 3319 
L 928 3319 
L 928 2847 
Q 1294 3394 1984 3394 
Q 2284 3394 2536 3286 
Q 2788 3178 2913 3003 
Q 3038 2828 3088 2588 
Q 3119 2431 3119 2041 
L 3119 0 
L 2556 0 
L 2556 2019 
Q 2556 2363 2490 2533 
Q 2425 2703 2258 2804 
Q 2091 2906 1866 2906 
Q 1506 2906 1245 2678 
Q 984 2450 984 1813 
L 984 0 
L 422 0 
z
" transform="scale(0.015625)"/>
       <path id="ArialMT-74" d="M 1650 503 
L 1731 6 
Q 1494 -44 1306 -44 
Q 1000 -44 831 53 
Q 663 150 594 308 
Q 525 466 525 972 
L 525 2881 
L 113 2881 
L 113 3319 
L 525 3319 
L 525 4141 
L 1084 4478 
L 1084 3319 
L 1650 3319 
L 1650 2881 
L 1084 2881 
L 1084 941 
Q 1084 700 1114 631 
Q 1144 563 1211 522 
Q 1278 481 1403 481 
Q 1497 481 1650 503 
z
" transform="scale(0.015625)"/>
       <path id="ArialMT-69" d="M 425 3934 
L 425 4581 
L 988 4581 
L 988 3934 
L 425 3934 
z
M 425 0 
L 425 3319 
L 988 3319 
L 988 0 
L 425 0 
z
" transform="scale(0.015625)"/>
       <path id="ArialMT-6c" d="M 409 0 
L 409 4581 
L 972 4581 
L 972 0 
L 409 0 
z
" transform="scale(0.015625)"/>
       <path id="ArialMT-61" d="M 2588 409 
Q 2275 144 1986 34 
Q 1697 -75 1366 -75 
Q 819 -75 525 192 
Q 231 459 231 875 
Q 231 1119 342 1320 
Q 453 1522 633 1644 
Q 813 1766 1038 1828 
Q 1203 1872 1538 1913 
Q 2219 1994 2541 2106 
Q 2544 2222 2544 2253 
Q 2544 2597 2384 2738 
Q 2169 2928 1744 2928 
Q 1347 2928 1158 2789 
Q 969 2650 878 2297 
L 328 2372 
Q 403 2725 575 2942 
Q 747 3159 1072 3276 
Q 1397 3394 1825 3394 
Q 2250 3394 2515 3294 
Q 2781 3194 2906 3042 
Q 3031 2891 3081 2659 
Q 3109 2516 3109 2141 
L 3109 1391 
Q 3109 606 3145 398 
Q 3181 191 3288 0 
L 2700 0 
Q 2613 175 2588 409 
z
M 2541 1666 
Q 2234 1541 1622 1453 
Q 1275 1403 1131 1340 
Q 988 1278 909 1158 
Q 831 1038 831 891 
Q 831 666 1001 516 
Q 1172 366 1500 366 
Q 1825 366 2078 508 
Q 2331 650 2450 897 
Q 2541 1088 2541 1459 
L 2541 1666 
z
" transform="scale(0.015625)"/>
       <path id="ArialMT-6f" d="M 213 1659 
Q 213 2581 725 3025 
Q 1153 3394 1769 3394 
Q 2453 3394 2887 2945 
Q 3322 2497 3322 1706 
Q 3322 1066 3130 698 
Q 2938 331 2570 128 
Q 2203 -75 1769 -75 
Q 1072 -75 642 372 
Q 213 819 213 1659 
z
M 791 1659 
Q 791 1022 1069 705 
Q 1347 388 1769 388 
Q 2188 388 2466 706 
Q 2744 1025 2744 1678 
Q 2744 2294 2464 2611 
Q 2184 2928 1769 2928 
Q 1347 2928 1069 2612 
Q 791 2297 791 1659 
z
" transform="scale(0.015625)"/>
       <path id="ArialMT-20" transform="scale(0.015625)"/>
       <path id="ArialMT-79" d="M 397 -1278 
L 334 -750 
Q 519 -800 656 -800 
Q 844 -800 956 -737 
Q 1069 -675 1141 -563 
Q 1194 -478 1313 -144 
Q 1328 -97 1363 -6 
L 103 3319 
L 709 3319 
L 1400 1397 
Q 1534 1031 1641 628 
Q 1738 1016 1872 1384 
L 2581 3319 
L 3144 3319 
L 1881 -56 
Q 1678 -603 1566 -809 
Q 1416 -1088 1222 -1217 
Q 1028 -1347 759 -1347 
Q 597 -1347 397 -1278 
z
" transform="scale(0.015625)"/>
       <path id="ArialMT-67" d="M 319 -275 
L 866 -356 
Q 900 -609 1056 -725 
Q 1266 -881 1628 -881 
Q 2019 -881 2231 -725 
Q 2444 -569 2519 -288 
Q 2563 -116 2559 434 
Q 2191 0 1641 0 
Q 956 0 581 494 
Q 206 988 206 1678 
Q 206 2153 378 2554 
Q 550 2956 876 3175 
Q 1203 3394 1644 3394 
Q 2231 3394 2613 2919 
L 2613 3319 
L 3131 3319 
L 3131 450 
Q 3131 -325 2973 -648 
Q 2816 -972 2473 -1159 
Q 2131 -1347 1631 -1347 
Q 1038 -1347 672 -1080 
Q 306 -813 319 -275 
z
M 784 1719 
Q 784 1066 1043 766 
Q 1303 466 1694 466 
Q 2081 466 2343 764 
Q 2606 1063 2606 1700 
Q 2606 2309 2336 2618 
Q 2066 2928 1684 2928 
Q 1309 2928 1046 2623 
Q 784 2319 784 1719 
z
" transform="scale(0.015625)"/>
       <path id="ArialMT-71" d="M 2538 -1272 
L 2538 353 
Q 2406 169 2170 47 
Q 1934 -75 1669 -75 
Q 1078 -75 651 397 
Q 225 869 225 1691 
Q 225 2191 398 2587 
Q 572 2984 901 3189 
Q 1231 3394 1625 3394 
Q 2241 3394 2594 2875 
L 2594 3319 
L 3100 3319 
L 3100 -1272 
L 2538 -1272 
z
M 803 1669 
Q 803 1028 1072 708 
Q 1341 388 1716 388 
Q 2075 388 2334 692 
Q 2594 997 2594 1619 
Q 2594 2281 2320 2615 
Q 2047 2950 1678 2950 
Q 1313 2950 1058 2639 
Q 803 2328 803 1669 
z
" transform="scale(0.015625)"/>
       <path id="ArialMT-75" d="M 2597 0 
L 2597 488 
Q 2209 -75 1544 -75 
Q 1250 -75 995 37 
Q 741 150 617 320 
Q 494 491 444 738 
Q 409 903 409 1263 
L 409 3319 
L 972 3319 
L 972 1478 
Q 972 1038 1006 884 
Q 1059 663 1231 536 
Q 1403 409 1656 409 
Q 1909 409 2131 539 
Q 2353 669 2445 892 
Q 2538 1116 2538 1541 
L 2538 3319 
L 3100 3319 
L 3100 0 
L 2597 0 
z
" transform="scale(0.015625)"/>
       <path id="ArialMT-76" d="M 1344 0 
L 81 3319 
L 675 3319 
L 1388 1331 
Q 1503 1009 1600 663 
Q 1675 925 1809 1294 
L 2547 3319 
L 3125 3319 
L 1869 0 
L 1344 0 
z
" transform="scale(0.015625)"/>
       <path id="ArialMT-28" d="M 1497 -1347 
Q 1031 -759 709 28 
Q 388 816 388 1659 
Q 388 2403 628 3084 
Q 909 3875 1497 4659 
L 1900 4659 
Q 1522 4009 1400 3731 
Q 1209 3300 1100 2831 
Q 966 2247 966 1656 
Q 966 153 1900 -1347 
L 1497 -1347 
z
" transform="scale(0.015625)"/>
       <path id="ArialMT-29" d="M 791 -1347 
L 388 -1347 
Q 1322 153 1322 1656 
Q 1322 2244 1188 2822 
Q 1081 3291 891 3722 
Q 769 4003 388 4659 
L 791 4659 
Q 1378 3875 1659 3084 
Q 1900 2403 1900 1659 
Q 1900 816 1576 28 
Q 1253 -759 791 -1347 
z
" transform="scale(0.015625)"/>
      </defs>
      <use xlink:href="#ArialMT-56"/>
      <use xlink:href="#ArialMT-65" x="61.199219"/>
      <use xlink:href="#ArialMT-6e" x="116.814453"/>
      <use xlink:href="#ArialMT-74" x="172.429688"/>
      <use xlink:href="#ArialMT-69" x="200.212891"/>
      <use xlink:href="#ArialMT-6c" x="222.429688"/>
      <use xlink:href="#ArialMT-61" x="244.646484"/>
      <use xlink:href="#ArialMT-74" x="300.261719"/>
      <use xlink:href="#ArialMT-69" x="328.044922"/>
      <use xlink:href="#ArialMT-6f" x="350.261719"/>
      <use xlink:href="#ArialMT-6e" x="405.876953"/>
      <use xlink:href="#ArialMT-20" x="461.492188"/>
      <use xlink:href="#ArialMT-6f" x="489.275391"/>
      <use xlink:href="#ArialMT-78" x="544.890625"/>
      <use xlink:href="#ArialMT-79" x="594.890625"/>
      <use xlink:href="#ArialMT-67" x="644.890625"/>
      <use xlink:href="#ArialMT-65" x="700.505859"/>
      <use xlink:href="#ArialMT-6e" x="756.121094"/>
      <use xlink:href="#ArialMT-20" x="811.736328"/>
      <use xlink:href="#ArialMT-65" x="839.519531"/>
      <use xlink:href="#ArialMT-71" x="895.134766"/>
      <use xlink:href="#ArialMT-75" x="950.75"/>
      <use xlink:href="#ArialMT-69" x="1006.365234"/>
      <use xlink:href="#ArialMT-76" x="1028.582031"/>
      <use xlink:href="#ArialMT-61" x="1078.582031"/>
      <use xlink:href="#ArialMT-6c" x="1134.197266"/>
      <use xlink:href="#ArialMT-65" x="1156.414062"/>
      <use xlink:href="#ArialMT-6e" x="1212.029297"/>
      <use xlink:href="#ArialMT-74" x="1267.644531"/>
      <use xlink:href="#ArialMT-20" x="1295.427734"/>
      <use xlink:href="#ArialMT-28" x="1323.210938"/>
      <use xlink:href="#ArialMT-6c" x="1356.511719"/>
      <use xlink:href="#ArialMT-29" x="1378.728516"/>
     </g>
    </g>
   </g>
   <g id="PolyCollection_1">
    <defs>
     <path id="m8888699d9d" d="M 96.295156 -55.925455 
L 95.597254 -55.925455 
L 95.513823 -58.746758 
L 95.415414 -61.568062 
L 95.300494 -64.389366 
L 95.167571 -67.21067 
L 95.015219 -70.031974 
L 94.842079 -72.853278 
L 94.646855 -75.674582 
L 94.42829 -78.495886 
L 94.185127 -81.31719 
L 93.916058 -84.138494 
L 93.619655 -86.959798 
L 93.294307 -89.781102 
L 92.938161 -92.602406 
L 92.549069 -95.42371 
L 92.124578 -98.245014 
L 91.661944 -101.066318 
L 91.158198 -103.887622 
L 90.610265 -106.708926 
L 90.015136 -109.53023 
L 89.37009 -112.351534 
L 88.67296 -115.172837 
L 87.922432 -117.994141 
L 87.118353 -120.815445 
L 86.262032 -123.636749 
L 85.356511 -126.458053 
L 84.406783 -129.279357 
L 83.419932 -132.100661 
L 82.405186 -134.921965 
L 81.373858 -137.743269 
L 80.339188 -140.564573 
L 79.316057 -143.385877 
L 78.320617 -146.207181 
L 77.369817 -149.028485 
L 76.480868 -151.849789 
L 75.670661 -154.671093 
L 74.955171 -157.492397 
L 74.348872 -160.313701 
L 73.864203 -163.135005 
L 73.511099 -165.956309 
L 73.296626 -168.777612 
L 73.224735 -171.598916 
L 73.296134 -174.42022 
L 73.508311 -177.241524 
L 73.855675 -180.062828 
L 74.329829 -182.884132 
L 74.919933 -185.705436 
L 75.613156 -188.52674 
L 76.395163 -191.348044 
L 77.250628 -194.169348 
L 78.16373 -196.990652 
L 79.118612 -199.811956 
L 80.099772 -202.63326 
L 81.092388 -205.454564 
L 82.082559 -208.275868 
L 83.05747 -211.097172 
L 84.005487 -213.918476 
L 84.916201 -216.73978 
L 85.780435 -219.561084 
L 86.590243 -222.382388 
L 87.338903 -225.203691 
L 88.02093 -228.024995 
L 88.632109 -230.846299 
L 89.169554 -233.667603 
L 89.631784 -236.488907 
L 90.018811 -239.310211 
L 90.332208 -242.131515 
L 90.575165 -244.952819 
L 90.752491 -247.774123 
L 90.870559 -250.595427 
L 90.937181 -253.416731 
L 90.961404 -256.238035 
L 90.953235 -259.059339 
L 90.923296 -261.880643 
L 90.882429 -264.701947 
L 90.841276 -267.523251 
L 90.809848 -270.344555 
L 90.797119 -273.165859 
L 90.810674 -275.987163 
L 90.856418 -278.808466 
L 90.938385 -281.62977 
L 91.058641 -284.451074 
L 91.217299 -287.272378 
L 91.412634 -290.093682 
L 91.641284 -292.914986 
L 91.898539 -295.73629 
L 92.178664 -298.557594 
L 92.475269 -301.378898 
L 92.781671 -304.200202 
L 93.091243 -307.021506 
L 93.397721 -309.84281 
L 93.69546 -312.664114 
L 93.979624 -315.485418 
L 94.246312 -318.306722 
L 94.492614 -321.128026 
L 94.716604 -323.94933 
L 94.917291 -326.770634 
L 95.094515 -329.591938 
L 95.24883 -332.413242 
L 95.38136 -335.234545 
L 96.51105 -335.234545 
L 96.51105 -335.234545 
L 96.64358 -332.413242 
L 96.797895 -329.591938 
L 96.975119 -326.770634 
L 97.175806 -323.94933 
L 97.399796 -321.128026 
L 97.646098 -318.306722 
L 97.912786 -315.485418 
L 98.19695 -312.664114 
L 98.494689 -309.84281 
L 98.801167 -307.021506 
L 99.110739 -304.200202 
L 99.417141 -301.378898 
L 99.713746 -298.557594 
L 99.993871 -295.73629 
L 100.251126 -292.914986 
L 100.479776 -290.093682 
L 100.675111 -287.272378 
L 100.833769 -284.451074 
L 100.954025 -281.62977 
L 101.035992 -278.808466 
L 101.081736 -275.987163 
L 101.095291 -273.165859 
L 101.082562 -270.344555 
L 101.051134 -267.523251 
L 101.009981 -264.701947 
L 100.969114 -261.880643 
L 100.939175 -259.059339 
L 100.931006 -256.238035 
L 100.955229 -253.416731 
L 101.021851 -250.595427 
L 101.139919 -247.774123 
L 101.317245 -244.952819 
L 101.560202 -242.131515 
L 101.873599 -239.310211 
L 102.260626 -236.488907 
L 102.722856 -233.667603 
L 103.260301 -230.846299 
L 103.87148 -228.024995 
L 104.553507 -225.203691 
L 105.302167 -222.382388 
L 106.111975 -219.561084 
L 106.976209 -216.73978 
L 107.886923 -213.918476 
L 108.83494 -211.097172 
L 109.809851 -208.275868 
L 110.800022 -205.454564 
L 111.792638 -202.63326 
L 112.773798 -199.811956 
L 113.72868 -196.990652 
L 114.641782 -194.169348 
L 115.497247 -191.348044 
L 116.279254 -188.52674 
L 116.972477 -185.705436 
L 117.562581 -182.884132 
L 118.036735 -180.062828 
L 118.384099 -177.241524 
L 118.596276 -174.42022 
L 118.667675 -171.598916 
L 118.595784 -168.777612 
L 118.381311 -165.956309 
L 118.028207 -163.135005 
L 117.543538 -160.313701 
L 116.937239 -157.492397 
L 116.221749 -154.671093 
L 115.411542 -151.849789 
L 114.522593 -149.028485 
L 113.571793 -146.207181 
L 112.576353 -143.385877 
L 111.553222 -140.564573 
L 110.518552 -137.743269 
L 109.487224 -134.921965 
L 108.472478 -132.100661 
L 107.485627 -129.279357 
L 106.535899 -126.458053 
L 105.630378 -123.636749 
L 104.774057 -120.815445 
L 103.969978 -117.994141 
L 103.21945 -115.172837 
L 102.52232 -112.351534 
L 101.877274 -109.53023 
L 101.282145 -106.708926 
L 100.734212 -103.887622 
L 100.230466 -101.066318 
L 99.767832 -98.245014 
L 99.343341 -95.42371 
L 98.954249 -92.602406 
L 98.598103 -89.781102 
L 98.272755 -86.959798 
L 97.976352 -84.138494 
L 97.707283 -81.31719 
L 97.46412 -78.495886 
L 97.245555 -75.674582 
L 97.050331 -72.853278 
L 96.877191 -70.031974 
L 96.724839 -67.21067 
L 96.591916 -64.389366 
L 96.476996 -61.568062 
L 96.378587 -58.746758 
L 96.295156 -55.925455 
z
" style="stroke: #3f3f3f; stroke-width: 1.25"/>
    </defs>
    <g clip-path="url(#pcb2d35a298)">
     <use xlink:href="#m8888699d9d" x="0" y="360" style="fill: #3274a1; stroke: #3f3f3f; stroke-width: 1.25"/>
    </g>
   </g>
   <g id="PolyCollection_2">
    <defs>
     <path id="mca1b73474b" d="M 157.689225 -73.483946 
L 156.492265 -73.483946 
L 156.348126 -75.219783 
L 156.177982 -76.95562 
L 155.979409 -78.691457 
L 155.750294 -80.427294 
L 155.488972 -82.163131 
L 155.194361 -83.898968 
L 154.866087 -85.634805 
L 154.504591 -87.370642 
L 154.111205 -89.106479 
L 153.688185 -90.842316 
L 153.238693 -92.578153 
L 152.766724 -94.31399 
L 152.276975 -96.049827 
L 151.774656 -97.785664 
L 151.265249 -99.521501 
L 150.754234 -101.257337 
L 150.246787 -102.993174 
L 149.747479 -104.729011 
L 149.259997 -106.464848 
L 148.78691 -108.200685 
L 148.329494 -109.936522 
L 147.887646 -111.672359 
L 147.459893 -113.408196 
L 147.043503 -115.144033 
L 146.634695 -116.87987 
L 146.228941 -118.615707 
L 145.821334 -120.351544 
L 145.407013 -122.087381 
L 144.981597 -123.823218 
L 144.541609 -125.559055 
L 144.084856 -127.294892 
L 143.610729 -129.030729 
L 143.120414 -130.766566 
L 142.616979 -132.502403 
L 142.105342 -134.23824 
L 141.592118 -135.974077 
L 141.085355 -137.709914 
L 140.594167 -139.445751 
L 140.128308 -141.181588 
L 139.697692 -142.917425 
L 139.311911 -144.653262 
L 138.979769 -146.389099 
L 138.708859 -148.124936 
L 138.505219 -149.860773 
L 138.373076 -151.59661 
L 138.314693 -153.332447 
L 138.330322 -155.068284 
L 138.41827 -156.804121 
L 138.575056 -158.539958 
L 138.795657 -160.275795 
L 139.073817 -162.011632 
L 139.402401 -163.747469 
L 139.773768 -165.483306 
L 140.180143 -167.219142 
L 140.61396 -168.954979 
L 141.068164 -170.690816 
L 141.536451 -172.426653 
L 142.013442 -174.16249 
L 142.494778 -175.898327 
L 142.977144 -177.634164 
L 143.458227 -179.370001 
L 143.936616 -181.105838 
L 144.411655 -182.841675 
L 144.883273 -184.577512 
L 145.351804 -186.313349 
L 145.817803 -188.049186 
L 146.281888 -189.785023 
L 146.744605 -191.52086 
L 147.206326 -193.256697 
L 147.667183 -194.992534 
L 148.127039 -196.728371 
L 148.585483 -198.464208 
L 149.041857 -200.200045 
L 149.495289 -201.935882 
L 149.94474 -203.671719 
L 150.389053 -205.407556 
L 150.826991 -207.143393 
L 151.257278 -208.87923 
L 151.678618 -210.615067 
L 152.08972 -212.350904 
L 152.489303 -214.086741 
L 152.876112 -215.822578 
L 153.24892 -217.558415 
L 153.606545 -219.294252 
L 153.947864 -221.030089 
L 154.271832 -222.765926 
L 154.577512 -224.501763 
L 154.864103 -226.2376 
L 155.13097 -227.973437 
L 155.377677 -229.709274 
L 155.604003 -231.445111 
L 155.809965 -233.180948 
L 155.995825 -234.916784 
L 156.162084 -236.652621 
L 156.309469 -238.388458 
L 156.438912 -240.124295 
L 156.551517 -241.860132 
L 156.648526 -243.595969 
L 156.731273 -245.331806 
L 157.450217 -245.331806 
L 157.450217 -245.331806 
L 157.532964 -243.595969 
L 157.629973 -241.860132 
L 157.742578 -240.124295 
L 157.872021 -238.388458 
L 158.019406 -236.652621 
L 158.185665 -234.916784 
L 158.371525 -233.180948 
L 158.577487 -231.445111 
L 158.803813 -229.709274 
L 159.05052 -227.973437 
L 159.317387 -226.2376 
L 159.603978 -224.501763 
L 159.909658 -222.765926 
L 160.233626 -221.030089 
L 160.574945 -219.294252 
L 160.93257 -217.558415 
L 161.305378 -215.822578 
L 161.692187 -214.086741 
L 162.09177 -212.350904 
L 162.502872 -210.615067 
L 162.924212 -208.87923 
L 163.354499 -207.143393 
L 163.792437 -205.407556 
L 164.23675 -203.671719 
L 164.686201 -201.935882 
L 165.139633 -200.200045 
L 165.596007 -198.464208 
L 166.054451 -196.728371 
L 166.514307 -194.992534 
L 166.975164 -193.256697 
L 167.436885 -191.52086 
L 167.899602 -189.785023 
L 168.363687 -188.049186 
L 168.829686 -186.313349 
L 169.298217 -184.577512 
L 169.769835 -182.841675 
L 170.244874 -181.105838 
L 170.723263 -179.370001 
L 171.204346 -177.634164 
L 171.686712 -175.898327 
L 172.168048 -174.16249 
L 172.645039 -172.426653 
L 173.113326 -170.690816 
L 173.56753 -168.954979 
L 174.001347 -167.219142 
L 174.407722 -165.483306 
L 174.779089 -163.747469 
L 175.107673 -162.011632 
L 175.385833 -160.275795 
L 175.606434 -158.539958 
L 175.76322 -156.804121 
L 175.851168 -155.068284 
L 175.866797 -153.332447 
L 175.808414 -151.59661 
L 175.676271 -149.860773 
L 175.472631 -148.124936 
L 175.201721 -146.389099 
L 174.869579 -144.653262 
L 174.483798 -142.917425 
L 174.053182 -141.181588 
L 173.587323 -139.445751 
L 173.096135 -137.709914 
L 172.589372 -135.974077 
L 172.076148 -134.23824 
L 171.564511 -132.502403 
L 171.061076 -130.766566 
L 170.570761 -129.030729 
L 170.096634 -127.294892 
L 169.639881 -125.559055 
L 169.199893 -123.823218 
L 168.774477 -122.087381 
L 168.360156 -120.351544 
L 167.952549 -118.615707 
L 167.546795 -116.87987 
L 167.137987 -115.144033 
L 166.721597 -113.408196 
L 166.293844 -111.672359 
L 165.851996 -109.936522 
L 165.39458 -108.200685 
L 164.921493 -106.464848 
L 164.434011 -104.729011 
L 163.934703 -102.993174 
L 163.427256 -101.257337 
L 162.916241 -99.521501 
L 162.406834 -97.785664 
L 161.904515 -96.049827 
L 161.414766 -94.31399 
L 160.942797 -92.578153 
L 160.493305 -90.842316 
L 160.070285 -89.106479 
L 159.676899 -87.370642 
L 159.315403 -85.634805 
L 158.987129 -83.898968 
L 158.692518 -82.163131 
L 158.431196 -80.427294 
L 158.202081 -78.691457 
L 158.003508 -76.95562 
L 157.833364 -75.219783 
L 157.689225 -73.483946 
z
" style="stroke: #3f3f3f; stroke-width: 1.25"/>
    </defs>
    <g clip-path="url(#pcb2d35a298)">
     <use xlink:href="#mca1b73474b" x="0" y="360" style="fill: #e1812c; stroke: #3f3f3f; stroke-width: 1.25"/>
    </g>
   </g>
   <g id="PolyCollection_3">
    <defs>
     <path id="mfd51842ced" d="M 249.87445 -89.01765 
L 247.74066 -89.01765 
L 247.469989 -90.784806 
L 247.147827 -92.551961 
L 246.768935 -94.319116 
L 246.328595 -96.086272 
L 245.822863 -97.853427 
L 245.248819 -99.620582 
L 244.604779 -101.387737 
L 243.890475 -103.154893 
L 243.107167 -104.922048 
L 242.257681 -106.689203 
L 241.346362 -108.456358 
L 240.37894 -110.223514 
L 239.362313 -111.990669 
L 238.30427 -113.757824 
L 237.213157 -115.52498 
L 236.097532 -117.292135 
L 234.965827 -119.05929 
L 233.826051 -120.826445 
L 232.685559 -122.593601 
L 231.550915 -124.360756 
L 230.427851 -126.127911 
L 229.32133 -127.895066 
L 228.235713 -129.662222 
L 227.174993 -131.429377 
L 226.143084 -133.196532 
L 225.144136 -134.963688 
L 224.182823 -136.730843 
L 223.264592 -138.497998 
L 222.395836 -140.265153 
L 221.58396 -142.032309 
L 220.837351 -143.799464 
L 220.165223 -145.566619 
L 219.577356 -147.333774 
L 219.083754 -149.10093 
L 218.69422 -150.868085 
L 218.417894 -152.63524 
L 218.262781 -154.402395 
L 218.235285 -156.169551 
L 218.339797 -157.936706 
L 218.578347 -159.703861 
L 218.950349 -161.471017 
L 219.452444 -163.238172 
L 220.078469 -165.005327 
L 220.819526 -166.772482 
L 221.664181 -168.539638 
L 222.598755 -170.306793 
L 223.607706 -172.073948 
L 224.674084 -173.841103 
L 225.780032 -175.608259 
L 226.907315 -177.375414 
L 228.037843 -179.142569 
L 229.154188 -180.909725 
L 230.240048 -182.67688 
L 231.280666 -184.444035 
L 232.263183 -186.21119 
L 233.176911 -187.978346 
L 234.01354 -189.745501 
L 234.767266 -191.512656 
L 235.434837 -193.279811 
L 236.015546 -195.046967 
L 236.51114 -196.814122 
L 236.92568 -198.581277 
L 237.265341 -200.348432 
L 237.538157 -202.115588 
L 237.753722 -203.882743 
L 237.922848 -205.649898 
L 238.057191 -207.417054 
L 238.168848 -209.184209 
L 238.269944 -210.951364 
L 238.372223 -212.718519 
L 238.486645 -214.485675 
L 238.623021 -216.25283 
L 238.789692 -218.019985 
L 238.993274 -219.78714 
L 239.238463 -221.554296 
L 239.527939 -223.321451 
L 239.862344 -225.088606 
L 240.240348 -226.855762 
L 240.658799 -228.622917 
L 241.112946 -230.390072 
L 241.596716 -232.157227 
L 242.103034 -233.924383 
L 242.624178 -235.691538 
L 243.152127 -237.458693 
L 243.678905 -239.225848 
L 244.196896 -240.993004 
L 244.699114 -242.760159 
L 245.179427 -244.527314 
L 245.632713 -246.29447 
L 246.054958 -248.061625 
L 246.443302 -249.82878 
L 246.79601 -251.595935 
L 247.112413 -253.363091 
L 247.392799 -255.130246 
L 247.638281 -256.897401 
L 247.850639 -258.664556 
L 248.032169 -260.431712 
L 248.185519 -262.198867 
L 248.313547 -263.966022 
L 249.301563 -263.966022 
L 249.301563 -263.966022 
L 249.429591 -262.198867 
L 249.582941 -260.431712 
L 249.764471 -258.664556 
L 249.976829 -256.897401 
L 250.222311 -255.130246 
L 250.502697 -253.363091 
L 250.8191 -251.595935 
L 251.171808 -249.82878 
L 251.560152 -248.061625 
L 251.982397 -246.29447 
L 252.435683 -244.527314 
L 252.915996 -242.760159 
L 253.418214 -240.993004 
L 253.936205 -239.225848 
L 254.462983 -237.458693 
L 254.990932 -235.691538 
L 255.512076 -233.924383 
L 256.018394 -232.157227 
L 256.502164 -230.390072 
L 256.956311 -228.622917 
L 257.374762 -226.855762 
L 257.752766 -225.088606 
L 258.087171 -223.321451 
L 258.376647 -221.554296 
L 258.621836 -219.78714 
L 258.825418 -218.019985 
L 258.992089 -216.25283 
L 259.128465 -214.485675 
L 259.242887 -212.718519 
L 259.345166 -210.951364 
L 259.446262 -209.184209 
L 259.557919 -207.417054 
L 259.692262 -205.649898 
L 259.861388 -203.882743 
L 260.076953 -202.115588 
L 260.349769 -200.348432 
L 260.68943 -198.581277 
L 261.10397 -196.814122 
L 261.599564 -195.046967 
L 262.180273 -193.279811 
L 262.847844 -191.512656 
L 263.60157 -189.745501 
L 264.438199 -187.978346 
L 265.351927 -186.21119 
L 266.334444 -184.444035 
L 267.375062 -182.67688 
L 268.460922 -180.909725 
L 269.577267 -179.142569 
L 270.707795 -177.375414 
L 271.835078 -175.608259 
L 272.941026 -173.841103 
L 274.007404 -172.073948 
L 275.016355 -170.306793 
L 275.950929 -168.539638 
L 276.795584 -166.772482 
L 277.536641 -165.005327 
L 278.162666 -163.238172 
L 278.664761 -161.471017 
L 279.036763 -159.703861 
L 279.275313 -157.936706 
L 279.379825 -156.169551 
L 279.352329 -154.402395 
L 279.197216 -152.63524 
L 278.92089 -150.868085 
L 278.531356 -149.10093 
L 278.037754 -147.333774 
L 277.449887 -145.566619 
L 276.777759 -143.799464 
L 276.03115 -142.032309 
L 275.219274 -140.265153 
L 274.350518 -138.497998 
L 273.432287 -136.730843 
L 272.470974 -134.963688 
L 271.472026 -133.196532 
L 270.440117 -131.429377 
L 269.379397 -129.662222 
L 268.29378 -127.895066 
L 267.187259 -126.127911 
L 266.064195 -124.360756 
L 264.929551 -122.593601 
L 263.789059 -120.826445 
L 262.649283 -119.05929 
L 261.517578 -117.292135 
L 260.401953 -115.52498 
L 259.31084 -113.757824 
L 258.252797 -111.990669 
L 257.23617 -110.223514 
L 256.268748 -108.456358 
L 255.357429 -106.689203 
L 254.507943 -104.922048 
L 253.724635 -103.154893 
L 253.010331 -101.387737 
L 252.366291 -99.620582 
L 251.792247 -97.853427 
L 251.286515 -96.086272 
L 250.846175 -94.319116 
L 250.467283 -92.551961 
L 250.145121 -90.784806 
L 249.87445 -89.01765 
z
" style="stroke: #3f3f3f; stroke-width: 1.25"/>
    </defs>
    <g clip-path="url(#pcb2d35a298)">
     <use xlink:href="#mfd51842ced" x="0" y="360" style="fill: #3274a1; stroke: #3f3f3f; stroke-width: 1.25"/>
    </g>
   </g>
   <g id="PolyCollection_4">
    <defs>
     <path id="mb2354161ee" d="M 310.417975 -87.760283 
L 309.486215 -87.760283 
L 309.34457 -89.076496 
L 309.170543 -90.392708 
L 308.960105 -91.708921 
L 308.709666 -93.025133 
L 308.416368 -94.341346 
L 308.078367 -95.657559 
L 307.695099 -96.973771 
L 307.2675 -98.289984 
L 306.798127 -99.606196 
L 306.291182 -100.922409 
L 305.752387 -102.238622 
L 305.188725 -103.554834 
L 304.608031 -104.871047 
L 304.018456 -106.187259 
L 303.42785 -107.503472 
L 302.843096 -108.819684 
L 302.269468 -110.135897 
L 301.71007 -111.45211 
L 301.165426 -112.768322 
L 300.633255 -114.084535 
L 300.108492 -115.400747 
L 299.58353 -116.71696 
L 299.04871 -118.033173 
L 298.492983 -119.349385 
L 297.904713 -120.665598 
L 297.272545 -121.98181 
L 296.586257 -123.298023 
L 295.837544 -124.614236 
L 295.020667 -125.930448 
L 294.132941 -127.246661 
L 293.17505 -128.562873 
L 292.151179 -129.879086 
L 291.069002 -131.195299 
L 289.939532 -132.511511 
L 288.776869 -133.827724 
L 287.597851 -135.143936 
L 286.421624 -136.460149 
L 285.269127 -137.776362 
L 284.162481 -139.092574 
L 283.124277 -140.408787 
L 282.176776 -141.724999 
L 281.341021 -143.041212 
L 280.635931 -144.357424 
L 280.077405 -145.673637 
L 279.677542 -146.98985 
L 279.444034 -148.306062 
L 279.379825 -149.622275 
L 279.483082 -150.938487 
L 279.747502 -152.2547 
L 280.162941 -153.570913 
L 280.716318 -154.887125 
L 281.392681 -156.203338 
L 282.176338 -157.51955 
L 283.051916 -158.835763 
L 284.005229 -160.151976 
L 285.023859 -161.468188 
L 286.097403 -162.784401 
L 287.217371 -164.100613 
L 288.376771 -165.416826 
L 289.569476 -166.733039 
L 290.789465 -168.049251 
L 292.030079 -169.365464 
L 293.283391 -170.681676 
L 294.539811 -171.997889 
L 295.787956 -173.314102 
L 297.014847 -174.630314 
L 298.206378 -175.946527 
L 299.348028 -177.262739 
L 300.425721 -178.578952 
L 301.426741 -179.895164 
L 302.340595 -181.211377 
L 303.159747 -182.52759 
L 303.880132 -183.843802 
L 304.501411 -185.160015 
L 305.026952 -186.476227 
L 305.46353 -187.79244 
L 305.820796 -189.108653 
L 306.110555 -190.424865 
L 306.345926 -191.741078 
L 306.540456 -193.05729 
L 306.707265 -194.373503 
L 306.858288 -195.689716 
L 307.003659 -197.005928 
L 307.151294 -198.322141 
L 307.306676 -199.638353 
L 307.472839 -200.954566 
L 307.650549 -202.270779 
L 307.838624 -203.586991 
L 308.034371 -204.903204 
L 308.23407 -206.219416 
L 308.433466 -207.535629 
L 308.628233 -208.851842 
L 308.814351 -210.168054 
L 308.988405 -211.484267 
L 309.147771 -212.800479 
L 309.290704 -214.116692 
L 309.416339 -215.432904 
L 309.524611 -216.749117 
L 309.616136 -218.06533 
L 310.288054 -218.06533 
L 310.288054 -218.06533 
L 310.379579 -216.749117 
L 310.487851 -215.432904 
L 310.613486 -214.116692 
L 310.756419 -212.800479 
L 310.915785 -211.484267 
L 311.089839 -210.168054 
L 311.275957 -208.851842 
L 311.470724 -207.535629 
L 311.67012 -206.219416 
L 311.869819 -204.903204 
L 312.065566 -203.586991 
L 312.253641 -202.270779 
L 312.431351 -200.954566 
L 312.597514 -199.638353 
L 312.752896 -198.322141 
L 312.900531 -197.005928 
L 313.045902 -195.689716 
L 313.196925 -194.373503 
L 313.363734 -193.05729 
L 313.558264 -191.741078 
L 313.793635 -190.424865 
L 314.083394 -189.108653 
L 314.44066 -187.79244 
L 314.877238 -186.476227 
L 315.402779 -185.160015 
L 316.024058 -183.843802 
L 316.744443 -182.52759 
L 317.563595 -181.211377 
L 318.477449 -179.895164 
L 319.478469 -178.578952 
L 320.556162 -177.262739 
L 321.697812 -175.946527 
L 322.889343 -174.630314 
L 324.116234 -173.314102 
L 325.364379 -171.997889 
L 326.620799 -170.681676 
L 327.874111 -169.365464 
L 329.114725 -168.049251 
L 330.334714 -166.733039 
L 331.527419 -165.416826 
L 332.686819 -164.100613 
L 333.806787 -162.784401 
L 334.880331 -161.468188 
L 335.898961 -160.151976 
L 336.852274 -158.835763 
L 337.727852 -157.51955 
L 338.511509 -156.203338 
L 339.187872 -154.887125 
L 339.741249 -153.570913 
L 340.156688 -152.2547 
L 340.421108 -150.938487 
L 340.524365 -149.622275 
L 340.460156 -148.306062 
L 340.226648 -146.98985 
L 339.826785 -145.673637 
L 339.268259 -144.357424 
L 338.563169 -143.041212 
L 337.727414 -141.724999 
L 336.779913 -140.408787 
L 335.741709 -139.092574 
L 334.635063 -137.776362 
L 333.482566 -136.460149 
L 332.306339 -135.143936 
L 331.127321 -133.827724 
L 329.964658 -132.511511 
L 328.835188 -131.195299 
L 327.753011 -129.879086 
L 326.72914 -128.562873 
L 325.771249 -127.246661 
L 324.883523 -125.930448 
L 324.066646 -124.614236 
L 323.317933 -123.298023 
L 322.631645 -121.98181 
L 321.999477 -120.665598 
L 321.411207 -119.349385 
L 320.85548 -118.033173 
L 320.32066 -116.71696 
L 319.795698 -115.400747 
L 319.270935 -114.084535 
L 318.738764 -112.768322 
L 318.19412 -111.45211 
L 317.634722 -110.135897 
L 317.061094 -108.819684 
L 316.47634 -107.503472 
L 315.885734 -106.187259 
L 315.296159 -104.871047 
L 314.715465 -103.554834 
L 314.151803 -102.238622 
L 313.613008 -100.922409 
L 313.106063 -99.606196 
L 312.63669 -98.289984 
L 312.209091 -96.973771 
L 311.825823 -95.657559 
L 311.487822 -94.341346 
L 311.194524 -93.025133 
L 310.944085 -91.708921 
L 310.733647 -90.392708 
L 310.55962 -89.076496 
L 310.417975 -87.760283 
z
" style="stroke: #3f3f3f; stroke-width: 1.25"/>
    </defs>
    <g clip-path="url(#pcb2d35a298)">
     <use xlink:href="#mb2354161ee" x="0" y="360" style="fill: #e1812c; stroke: #3f3f3f; stroke-width: 1.25"/>
    </g>
   </g>
   <g id="patch_3">
    <path d="M 126.518475 359.107497 
L 126.518475 359.107497 
L 126.518475 359.107497 
L 126.518475 359.107497 
z
" clip-path="url(#pcb2d35a298)" style="fill: #3274a1; stroke: #3f3f3f; stroke-width: 1.25; stroke-linejoin: miter"/>
   </g>
   <g id="patch_4">
    <path d="M 126.518475 359.107497 
L 126.518475 359.107497 
L 126.518475 359.107497 
L 126.518475 359.107497 
z
" clip-path="url(#pcb2d35a298)" style="fill: #e1812c; stroke: #3f3f3f; stroke-width: 1.25; stroke-linejoin: miter"/>
   </g>
   <g id="line2d_7">
    <path d="M 95.946205 250.180605 
L 95.946205 144.491541 
" clip-path="url(#pcb2d35a298)" style="fill: none; stroke: #3f3f3f; stroke-width: 1.875; stroke-linecap: round"/>
   </g>
   <g id="line2d_8">
    <path d="M 95.946205 201.08613 
L 95.946205 162.339118 
" clip-path="url(#pcb2d35a298)" style="fill: none; stroke: #3f3f3f; stroke-width: 5.625; stroke-linecap: round"/>
   </g>
   <g id="line2d_9">
    <path d="M 95.946205 181.374222 
" clip-path="url(#pcb2d35a298)" style="fill: none; stroke: #3f3f3f; stroke-width: 1.5; stroke-linecap: round"/>
    <defs>
     <path id="m77bbfe9695" d="M 2.34375 0 
L -2.34375 -0 
" style="stroke: #ffffff; stroke-width: 1.125"/>
    </defs>
    <g clip-path="url(#pcb2d35a298)">
     <use xlink:href="#m77bbfe9695" x="95.946205" y="181.374222" style="fill: #ffffff; stroke: #ffffff; stroke-width: 1.125"/>
    </g>
   </g>
   <g id="line2d_10">
    <path d="M 157.090745 252.080348 
L 157.090745 149.103899 
" clip-path="url(#pcb2d35a298)" style="fill: none; stroke: #3f3f3f; stroke-width: 1.875; stroke-linecap: round"/>
   </g>
   <g id="line2d_11">
    <path d="M 157.090745 219.896705 
L 157.090745 186.77918 
" clip-path="url(#pcb2d35a298)" style="fill: none; stroke: #3f3f3f; stroke-width: 5.625; stroke-linecap: round"/>
   </g>
   <g id="line2d_12">
    <path d="M 157.090745 208.065525 
" clip-path="url(#pcb2d35a298)" style="fill: none; stroke: #3f3f3f; stroke-width: 1.5; stroke-linecap: round"/>
    <g clip-path="url(#pcb2d35a298)">
     <use xlink:href="#m77bbfe9695" x="157.090745" y="208.065525" style="fill: #ffffff; stroke: #ffffff; stroke-width: 1.125"/>
    </g>
   </g>
   <g id="line2d_13">
    <path d="M 248.807555 237.874539 
L 248.807555 137.063102 
" clip-path="url(#pcb2d35a298)" style="fill: none; stroke: #3f3f3f; stroke-width: 1.875; stroke-linecap: round"/>
   </g>
   <g id="line2d_14">
    <path d="M 248.807555 215.463368 
L 248.807555 182.882034 
" clip-path="url(#pcb2d35a298)" style="fill: none; stroke: #3f3f3f; stroke-width: 5.625; stroke-linecap: round"/>
   </g>
   <g id="line2d_15">
    <path d="M 248.807555 199.099715 
" clip-path="url(#pcb2d35a298)" style="fill: none; stroke: #3f3f3f; stroke-width: 1.5; stroke-linecap: round"/>
    <g clip-path="url(#pcb2d35a298)">
     <use xlink:href="#m77bbfe9695" x="248.807555" y="199.099715" style="fill: #ffffff; stroke: #ffffff; stroke-width: 1.125"/>
    </g>
   </g>
   <g id="line2d_16">
    <path d="M 309.952095 251.006779 
L 309.952095 185.259612 
" clip-path="url(#pcb2d35a298)" style="fill: none; stroke: #3f3f3f; stroke-width: 1.875; stroke-linecap: round"/>
   </g>
   <g id="line2d_17">
    <path d="M 309.952095 223.702318 
L 309.952095 201.035289 
" clip-path="url(#pcb2d35a298)" style="fill: none; stroke: #3f3f3f; stroke-width: 5.625; stroke-linecap: round"/>
   </g>
   <g id="line2d_18">
    <path d="M 309.952095 210.888087 
" clip-path="url(#pcb2d35a298)" style="fill: none; stroke: #3f3f3f; stroke-width: 1.5; stroke-linecap: round"/>
    <g clip-path="url(#pcb2d35a298)">
     <use xlink:href="#m77bbfe9695" x="309.952095" y="210.888087" style="fill: #ffffff; stroke: #ffffff; stroke-width: 1.125"/>
    </g>
   </g>
   <g id="patch_5">
    <path d="M 50.0878 318.04 
L 50.0878 10.8 
" style="fill: none; stroke: #cccccc; stroke-width: 0.8; stroke-linejoin: miter; stroke-linecap: square"/>
   </g>
   <g id="patch_6">
    <path d="M 50.0878 318.04 
L 355.8105 318.04 
" style="fill: none; stroke: #cccccc; stroke-width: 0.8; stroke-linejoin: miter; stroke-linecap: square"/>
   </g>
  </g>
  <g id="legend_1">
   <g id="text_11">
    <!-- Time -->
    <g style="fill: #262626" transform="translate(373.633594 168.439844) scale(0.1 -0.1)">
     <defs>
      <path id="ArialMT-54" d="M 1659 0 
L 1659 4041 
L 150 4041 
L 150 4581 
L 3781 4581 
L 3781 4041 
L 2266 4041 
L 2266 0 
L 1659 0 
z
" transform="scale(0.015625)"/>
     </defs>
     <use xlink:href="#ArialMT-54"/>
     <use xlink:href="#ArialMT-69" x="57.333984"/>
     <use xlink:href="#ArialMT-6d" x="79.550781"/>
     <use xlink:href="#ArialMT-65" x="162.851562"/>
    </g>
   </g>
   <g id="patch_7">
    <path d="M 359.1625 182.585156 
L 379.1625 182.585156 
L 379.1625 175.585156 
L 359.1625 175.585156 
z
" style="fill: #3274a1; stroke: #3f3f3f; stroke-width: 1.25; stroke-linejoin: miter"/>
   </g>
   <g id="text_12">
    <!-- initial -->
    <g style="fill: #262626" transform="translate(387.1625 182.585156) scale(0.1 -0.1)">
     <use xlink:href="#ArialMT-69"/>
     <use xlink:href="#ArialMT-6e" x="22.216797"/>
     <use xlink:href="#ArialMT-69" x="77.832031"/>
     <use xlink:href="#ArialMT-74" x="100.048828"/>
     <use xlink:href="#ArialMT-69" x="127.832031"/>
     <use xlink:href="#ArialMT-61" x="150.048828"/>
     <use xlink:href="#ArialMT-6c" x="205.664062"/>
    </g>
   </g>
   <g id="patch_8">
    <path d="M 359.1625 196.730469 
L 379.1625 196.730469 
L 379.1625 189.730469 
L 359.1625 189.730469 
z
" style="fill: #e1812c; stroke: #3f3f3f; stroke-width: 1.25; stroke-linejoin: miter"/>
   </g>
   <g id="text_13">
    <!-- final -->
    <g style="fill: #262626" transform="translate(387.1625 196.730469) scale(0.1 -0.1)">
     <use xlink:href="#ArialMT-66"/>
     <use xlink:href="#ArialMT-69" x="27.783203"/>
     <use xlink:href="#ArialMT-6e" x="50"/>
     <use xlink:href="#ArialMT-61" x="105.615234"/>
     <use xlink:href="#ArialMT-6c" x="161.230469"/>
    </g>
   </g>
  </g>
 </g>
 <defs>
  <clipPath id="pcb2d35a298">
   <rect x="50.0878" y="10.8" width="305.7227" height="307.24"/>
  </clipPath>
 </defs>
</svg>
