<?xml version="1.0" encoding="utf-8" standalone="no"?>
<!DOCTYPE svg PUBLIC "-//W3C//DTD SVG 1.1//EN"
  "http://www.w3.org/Graphics/SVG/1.1/DTD/svg11.dtd">
<svg xmlns:xlink="http://www.w3.org/1999/xlink" width="418.95pt" height="360pt" viewBox="0 0 418.95 360" xmlns="http://www.w3.org/2000/svg" version="1.1">
 <metadata>
  <rdf:RDF xmlns:dc="http://purl.org/dc/elements/1.1/" xmlns:cc="http://creativecommons.org/ns#" xmlns:rdf="http://www.w3.org/1999/02/22-rdf-syntax-ns#">
   <cc:Work>
    <dc:type rdf:resource="http://purl.org/dc/dcmitype/StillImage"/>
    <dc:date>2024-09-10T22:07:15.617133</dc:date>
    <dc:format>image/svg+xml</dc:format>
    <dc:creator>
     <cc:Agent>
      <dc:title>Matplotlib v3.8.3, https://matplotlib.org/</dc:title>
     </cc:Agent>
    </dc:creator>
   </cc:Work>
  </rdf:RDF>
 </metadata>
 <defs>
  <style type="text/css">*{stroke-linejoin: round; stroke-linecap: butt}</style>
 </defs>
 <g id="figure_1">
  <g id="patch_1">
   <path d="M 0 360 
L 418.95 360 
L 418.95 0 
L 0 0 
z
" style="fill: #ffffff"/>
  </g>
  <g id="axes_1">
   <g id="patch_2">
    <path d="M 50.0878 318.04 
L 355.8105 318.04 
L 355.8105 10.8 
L 50.0878 10.8 
z
" style="fill: #ffffff"/>
   </g>
   <g id="matplotlib.axis_1">
    <g id="xtick_1">
     <g id="text_1">
      <!-- f -->
      <g style="fill: #262626" transform="translate(125.129413 332.197812) scale(0.1 -0.1)">
       <defs>
        <path id="ArialMT-66" d="M 556 0 
L 556 2881 
L 59 2881 
L 59 3319 
L 556 3319 
L 556 3672 
Q 556 4006 616 4169 
Q 697 4388 901 4523 
Q 1106 4659 1475 4659 
Q 1713 4659 2000 4603 
L 1916 4113 
Q 1741 4144 1584 4144 
Q 1328 4144 1222 4034 
Q 1116 3925 1116 3625 
L 1116 3319 
L 1763 3319 
L 1763 2881 
L 1116 2881 
L 1116 0 
L 556 0 
z
" transform="scale(0.015625)"/>
       </defs>
       <use xlink:href="#ArialMT-66"/>
      </g>
     </g>
    </g>
    <g id="xtick_2">
     <g id="text_2">
      <!-- m -->
      <g style="fill: #262626" transform="translate(275.214981 332.197812) scale(0.1 -0.1)">
       <defs>
        <path id="ArialMT-6d" d="M 422 0 
L 422 3319 
L 925 3319 
L 925 2853 
Q 1081 3097 1340 3245 
Q 1600 3394 1931 3394 
Q 2300 3394 2536 3241 
Q 2772 3088 2869 2813 
Q 3263 3394 3894 3394 
Q 4388 3394 4653 3120 
Q 4919 2847 4919 2278 
L 4919 0 
L 4359 0 
L 4359 2091 
Q 4359 2428 4304 2576 
Q 4250 2725 4106 2815 
Q 3963 2906 3769 2906 
Q 3419 2906 3187 2673 
Q 2956 2441 2956 1928 
L 2956 0 
L 2394 0 
L 2394 2156 
Q 2394 2531 2256 2718 
Q 2119 2906 1806 2906 
Q 1569 2906 1367 2781 
Q 1166 2656 1075 2415 
Q 984 2175 984 1722 
L 984 0 
L 422 0 
z
" transform="scale(0.015625)"/>
       </defs>
       <use xlink:href="#ArialMT-6d"/>
      </g>
     </g>
    </g>
    <g id="text_3">
     <!-- sex -->
     <g style="fill: #262626" transform="translate(195.168681 345.343125) scale(0.1 -0.1)">
      <defs>
       <path id="ArialMT-73" d="M 197 991 
L 753 1078 
Q 800 744 1014 566 
Q 1228 388 1613 388 
Q 2000 388 2187 545 
Q 2375 703 2375 916 
Q 2375 1106 2209 1216 
Q 2094 1291 1634 1406 
Q 1016 1563 777 1677 
Q 538 1791 414 1992 
Q 291 2194 291 2438 
Q 291 2659 392 2848 
Q 494 3038 669 3163 
Q 800 3259 1026 3326 
Q 1253 3394 1513 3394 
Q 1903 3394 2198 3281 
Q 2494 3169 2634 2976 
Q 2775 2784 2828 2463 
L 2278 2388 
Q 2241 2644 2061 2787 
Q 1881 2931 1553 2931 
Q 1166 2931 1000 2803 
Q 834 2675 834 2503 
Q 834 2394 903 2306 
Q 972 2216 1119 2156 
Q 1203 2125 1616 2013 
Q 2213 1853 2448 1751 
Q 2684 1650 2818 1456 
Q 2953 1263 2953 975 
Q 2953 694 2789 445 
Q 2625 197 2315 61 
Q 2006 -75 1616 -75 
Q 969 -75 630 194 
Q 291 463 197 991 
z
" transform="scale(0.015625)"/>
       <path id="ArialMT-65" d="M 2694 1069 
L 3275 997 
Q 3138 488 2766 206 
Q 2394 -75 1816 -75 
Q 1088 -75 661 373 
Q 234 822 234 1631 
Q 234 2469 665 2931 
Q 1097 3394 1784 3394 
Q 2450 3394 2872 2941 
Q 3294 2488 3294 1666 
Q 3294 1616 3291 1516 
L 816 1516 
Q 847 969 1125 678 
Q 1403 388 1819 388 
Q 2128 388 2347 550 
Q 2566 713 2694 1069 
z
M 847 1978 
L 2700 1978 
Q 2663 2397 2488 2606 
Q 2219 2931 1791 2931 
Q 1403 2931 1139 2672 
Q 875 2413 847 1978 
z
" transform="scale(0.015625)"/>
       <path id="ArialMT-78" d="M 47 0 
L 1259 1725 
L 138 3319 
L 841 3319 
L 1350 2541 
Q 1494 2319 1581 2169 
Q 1719 2375 1834 2534 
L 2394 3319 
L 3066 3319 
L 1919 1756 
L 3153 0 
L 2463 0 
L 1781 1031 
L 1600 1309 
L 728 0 
L 47 0 
z
" transform="scale(0.015625)"/>
      </defs>
      <use xlink:href="#ArialMT-73"/>
      <use xlink:href="#ArialMT-65" x="50"/>
      <use xlink:href="#ArialMT-78" x="105.615234"/>
     </g>
    </g>
   </g>
   <g id="matplotlib.axis_2">
    <g id="ytick_1">
     <g id="line2d_1">
      <path d="M 50.0878 302.348019 
L 355.8105 302.348019 
" clip-path="url(#p1036491171)" style="fill: none; stroke: #cccccc; stroke-width: 0.8; stroke-linecap: round"/>
     </g>
     <g id="text_4">
      <!-- 0 -->
      <g style="fill: #262626" transform="translate(37.526863 305.926925) scale(0.1 -0.1)">
       <defs>
        <path id="ArialMT-30" d="M 266 2259 
Q 266 3072 433 3567 
Q 600 4063 929 4331 
Q 1259 4600 1759 4600 
Q 2128 4600 2406 4451 
Q 2684 4303 2865 4023 
Q 3047 3744 3150 3342 
Q 3253 2941 3253 2259 
Q 3253 1453 3087 958 
Q 2922 463 2592 192 
Q 2263 -78 1759 -78 
Q 1097 -78 719 397 
Q 266 969 266 2259 
z
M 844 2259 
Q 844 1131 1108 757 
Q 1372 384 1759 384 
Q 2147 384 2411 759 
Q 2675 1134 2675 2259 
Q 2675 3391 2411 3762 
Q 2147 4134 1753 4134 
Q 1366 4134 1134 3806 
Q 844 3388 844 2259 
z
" transform="scale(0.015625)"/>
       </defs>
       <use xlink:href="#ArialMT-30"/>
      </g>
     </g>
    </g>
    <g id="ytick_2">
     <g id="line2d_2">
      <path d="M 50.0878 261.803314 
L 355.8105 261.803314 
" clip-path="url(#p1036491171)" style="fill: none; stroke: #cccccc; stroke-width: 0.8; stroke-linecap: round"/>
     </g>
     <g id="text_5">
      <!-- 10 -->
      <g style="fill: #262626" transform="translate(31.965925 265.38222) scale(0.1 -0.1)">
       <defs>
        <path id="ArialMT-31" d="M 2384 0 
L 1822 0 
L 1822 3584 
Q 1619 3391 1289 3197 
Q 959 3003 697 2906 
L 697 3450 
Q 1169 3672 1522 3987 
Q 1875 4303 2022 4600 
L 2384 4600 
L 2384 0 
z
" transform="scale(0.015625)"/>
       </defs>
       <use xlink:href="#ArialMT-31"/>
       <use xlink:href="#ArialMT-30" x="55.615234"/>
      </g>
     </g>
    </g>
    <g id="ytick_3">
     <g id="line2d_3">
      <path d="M 50.0878 221.258609 
L 355.8105 221.258609 
" clip-path="url(#p1036491171)" style="fill: none; stroke: #cccccc; stroke-width: 0.8; stroke-linecap: round"/>
     </g>
     <g id="text_6">
      <!-- 20 -->
      <g style="fill: #262626" transform="translate(31.965925 224.837515) scale(0.1 -0.1)">
       <defs>
        <path id="ArialMT-32" d="M 3222 541 
L 3222 0 
L 194 0 
Q 188 203 259 391 
Q 375 700 629 1000 
Q 884 1300 1366 1694 
Q 2113 2306 2375 2664 
Q 2638 3022 2638 3341 
Q 2638 3675 2398 3904 
Q 2159 4134 1775 4134 
Q 1369 4134 1125 3890 
Q 881 3647 878 3216 
L 300 3275 
Q 359 3922 746 4261 
Q 1134 4600 1788 4600 
Q 2447 4600 2831 4234 
Q 3216 3869 3216 3328 
Q 3216 3053 3103 2787 
Q 2991 2522 2730 2228 
Q 2469 1934 1863 1422 
Q 1356 997 1212 845 
Q 1069 694 975 541 
L 3222 541 
z
" transform="scale(0.015625)"/>
       </defs>
       <use xlink:href="#ArialMT-32"/>
       <use xlink:href="#ArialMT-30" x="55.615234"/>
      </g>
     </g>
    </g>
    <g id="ytick_4">
     <g id="line2d_4">
      <path d="M 50.0878 180.713904 
L 355.8105 180.713904 
" clip-path="url(#p1036491171)" style="fill: none; stroke: #cccccc; stroke-width: 0.8; stroke-linecap: round"/>
     </g>
     <g id="text_7">
      <!-- 30 -->
      <g style="fill: #262626" transform="translate(31.965925 184.29281) scale(0.1 -0.1)">
       <defs>
        <path id="ArialMT-33" d="M 269 1209 
L 831 1284 
Q 928 806 1161 595 
Q 1394 384 1728 384 
Q 2125 384 2398 659 
Q 2672 934 2672 1341 
Q 2672 1728 2419 1979 
Q 2166 2231 1775 2231 
Q 1616 2231 1378 2169 
L 1441 2663 
Q 1497 2656 1531 2656 
Q 1891 2656 2178 2843 
Q 2466 3031 2466 3422 
Q 2466 3731 2256 3934 
Q 2047 4138 1716 4138 
Q 1388 4138 1169 3931 
Q 950 3725 888 3313 
L 325 3413 
Q 428 3978 793 4289 
Q 1159 4600 1703 4600 
Q 2078 4600 2393 4439 
Q 2709 4278 2876 4000 
Q 3044 3722 3044 3409 
Q 3044 3113 2884 2869 
Q 2725 2625 2413 2481 
Q 2819 2388 3044 2092 
Q 3269 1797 3269 1353 
Q 3269 753 2831 336 
Q 2394 -81 1725 -81 
Q 1122 -81 723 278 
Q 325 638 269 1209 
z
" transform="scale(0.015625)"/>
       </defs>
       <use xlink:href="#ArialMT-33"/>
       <use xlink:href="#ArialMT-30" x="55.615234"/>
      </g>
     </g>
    </g>
    <g id="ytick_5">
     <g id="line2d_5">
      <path d="M 50.0878 140.169199 
L 355.8105 140.169199 
" clip-path="url(#p1036491171)" style="fill: none; stroke: #cccccc; stroke-width: 0.8; stroke-linecap: round"/>
     </g>
     <g id="text_8">
      <!-- 40 -->
      <g style="fill: #262626" transform="translate(31.965925 143.748105) scale(0.1 -0.1)">
       <defs>
        <path id="ArialMT-34" d="M 2069 0 
L 2069 1097 
L 81 1097 
L 81 1613 
L 2172 4581 
L 2631 4581 
L 2631 1613 
L 3250 1613 
L 3250 1097 
L 2631 1097 
L 2631 0 
L 2069 0 
z
M 2069 1613 
L 2069 3678 
L 634 1613 
L 2069 1613 
z
" transform="scale(0.015625)"/>
       </defs>
       <use xlink:href="#ArialMT-34"/>
       <use xlink:href="#ArialMT-30" x="55.615234"/>
      </g>
     </g>
    </g>
    <g id="ytick_6">
     <g id="line2d_6">
      <path d="M 50.0878 99.624494 
L 355.8105 99.624494 
" clip-path="url(#p1036491171)" style="fill: none; stroke: #cccccc; stroke-width: 0.8; stroke-linecap: round"/>
     </g>
     <g id="text_9">
      <!-- 50 -->
      <g style="fill: #262626" transform="translate(31.965925 103.203401) scale(0.1 -0.1)">
       <defs>
        <path id="ArialMT-35" d="M 266 1200 
L 856 1250 
Q 922 819 1161 601 
Q 1400 384 1738 384 
Q 2144 384 2425 690 
Q 2706 997 2706 1503 
Q 2706 1984 2436 2262 
Q 2166 2541 1728 2541 
Q 1456 2541 1237 2417 
Q 1019 2294 894 2097 
L 366 2166 
L 809 4519 
L 3088 4519 
L 3088 3981 
L 1259 3981 
L 1013 2750 
Q 1425 3038 1878 3038 
Q 2478 3038 2890 2622 
Q 3303 2206 3303 1553 
Q 3303 931 2941 478 
Q 2500 -78 1738 -78 
Q 1113 -78 717 272 
Q 322 622 266 1200 
z
" transform="scale(0.015625)"/>
       </defs>
       <use xlink:href="#ArialMT-35"/>
       <use xlink:href="#ArialMT-30" x="55.615234"/>
      </g>
     </g>
    </g>
    <g id="ytick_7">
     <g id="line2d_7">
      <path d="M 50.0878 59.079789 
L 355.8105 59.079789 
" clip-path="url(#p1036491171)" style="fill: none; stroke: #cccccc; stroke-width: 0.8; stroke-linecap: round"/>
     </g>
     <g id="text_10">
      <!-- 60 -->
      <g style="fill: #262626" transform="translate(31.965925 62.658696) scale(0.1 -0.1)">
       <defs>
        <path id="ArialMT-36" d="M 3184 3459 
L 2625 3416 
Q 2550 3747 2413 3897 
Q 2184 4138 1850 4138 
Q 1581 4138 1378 3988 
Q 1113 3794 959 3422 
Q 806 3050 800 2363 
Q 1003 2672 1297 2822 
Q 1591 2972 1913 2972 
Q 2475 2972 2870 2558 
Q 3266 2144 3266 1488 
Q 3266 1056 3080 686 
Q 2894 316 2569 119 
Q 2244 -78 1831 -78 
Q 1128 -78 684 439 
Q 241 956 241 2144 
Q 241 3472 731 4075 
Q 1159 4600 1884 4600 
Q 2425 4600 2770 4297 
Q 3116 3994 3184 3459 
z
M 888 1484 
Q 888 1194 1011 928 
Q 1134 663 1356 523 
Q 1578 384 1822 384 
Q 2178 384 2434 671 
Q 2691 959 2691 1453 
Q 2691 1928 2437 2201 
Q 2184 2475 1800 2475 
Q 1419 2475 1153 2201 
Q 888 1928 888 1484 
z
" transform="scale(0.015625)"/>
       </defs>
       <use xlink:href="#ArialMT-36"/>
       <use xlink:href="#ArialMT-30" x="55.615234"/>
      </g>
     </g>
    </g>
    <g id="ytick_8">
     <g id="line2d_8">
      <path d="M 50.0878 18.535085 
L 355.8105 18.535085 
" clip-path="url(#p1036491171)" style="fill: none; stroke: #cccccc; stroke-width: 0.8; stroke-linecap: round"/>
     </g>
     <g id="text_11">
      <!-- 70 -->
      <g style="fill: #262626" transform="translate(31.965925 22.113991) scale(0.1 -0.1)">
       <defs>
        <path id="ArialMT-37" d="M 303 3981 
L 303 4522 
L 3269 4522 
L 3269 4084 
Q 2831 3619 2401 2847 
Q 1972 2075 1738 1259 
Q 1569 684 1522 0 
L 944 0 
Q 953 541 1156 1306 
Q 1359 2072 1739 2783 
Q 2119 3494 2547 3981 
L 303 3981 
z
" transform="scale(0.015625)"/>
       </defs>
       <use xlink:href="#ArialMT-37"/>
       <use xlink:href="#ArialMT-30" x="55.615234"/>
      </g>
     </g>
    </g>
    <g id="text_12">
     <!-- Ventilation (l/min) -->
     <g style="fill: #262626" transform="translate(25.861237 202.768438) rotate(-90) scale(0.1 -0.1)">
      <defs>
       <path id="ArialMT-56" d="M 1803 0 
L 28 4581 
L 684 4581 
L 1875 1253 
Q 2019 853 2116 503 
Q 2222 878 2363 1253 
L 3600 4581 
L 4219 4581 
L 2425 0 
L 1803 0 
z
" transform="scale(0.015625)"/>
       <path id="ArialMT-6e" d="M 422 0 
L 422 3319 
L 928 3319 
L 928 2847 
Q 1294 3394 1984 3394 
Q 2284 3394 2536 3286 
Q 2788 3178 2913 3003 
Q 3038 2828 3088 2588 
Q 3119 2431 3119 2041 
L 3119 0 
L 2556 0 
L 2556 2019 
Q 2556 2363 2490 2533 
Q 2425 2703 2258 2804 
Q 2091 2906 1866 2906 
Q 1506 2906 1245 2678 
Q 984 2450 984 1813 
L 984 0 
L 422 0 
z
" transform="scale(0.015625)"/>
       <path id="ArialMT-74" d="M 1650 503 
L 1731 6 
Q 1494 -44 1306 -44 
Q 1000 -44 831 53 
Q 663 150 594 308 
Q 525 466 525 972 
L 525 2881 
L 113 2881 
L 113 3319 
L 525 3319 
L 525 4141 
L 1084 4478 
L 1084 3319 
L 1650 3319 
L 1650 2881 
L 1084 2881 
L 1084 941 
Q 1084 700 1114 631 
Q 1144 563 1211 522 
Q 1278 481 1403 481 
Q 1497 481 1650 503 
z
" transform="scale(0.015625)"/>
       <path id="ArialMT-69" d="M 425 3934 
L 425 4581 
L 988 4581 
L 988 3934 
L 425 3934 
z
M 425 0 
L 425 3319 
L 988 3319 
L 988 0 
L 425 0 
z
" transform="scale(0.015625)"/>
       <path id="ArialMT-6c" d="M 409 0 
L 409 4581 
L 972 4581 
L 972 0 
L 409 0 
z
" transform="scale(0.015625)"/>
       <path id="ArialMT-61" d="M 2588 409 
Q 2275 144 1986 34 
Q 1697 -75 1366 -75 
Q 819 -75 525 192 
Q 231 459 231 875 
Q 231 1119 342 1320 
Q 453 1522 633 1644 
Q 813 1766 1038 1828 
Q 1203 1872 1538 1913 
Q 2219 1994 2541 2106 
Q 2544 2222 2544 2253 
Q 2544 2597 2384 2738 
Q 2169 2928 1744 2928 
Q 1347 2928 1158 2789 
Q 969 2650 878 2297 
L 328 2372 
Q 403 2725 575 2942 
Q 747 3159 1072 3276 
Q 1397 3394 1825 3394 
Q 2250 3394 2515 3294 
Q 2781 3194 2906 3042 
Q 3031 2891 3081 2659 
Q 3109 2516 3109 2141 
L 3109 1391 
Q 3109 606 3145 398 
Q 3181 191 3288 0 
L 2700 0 
Q 2613 175 2588 409 
z
M 2541 1666 
Q 2234 1541 1622 1453 
Q 1275 1403 1131 1340 
Q 988 1278 909 1158 
Q 831 1038 831 891 
Q 831 666 1001 516 
Q 1172 366 1500 366 
Q 1825 366 2078 508 
Q 2331 650 2450 897 
Q 2541 1088 2541 1459 
L 2541 1666 
z
" transform="scale(0.015625)"/>
       <path id="ArialMT-6f" d="M 213 1659 
Q 213 2581 725 3025 
Q 1153 3394 1769 3394 
Q 2453 3394 2887 2945 
Q 3322 2497 3322 1706 
Q 3322 1066 3130 698 
Q 2938 331 2570 128 
Q 2203 -75 1769 -75 
Q 1072 -75 642 372 
Q 213 819 213 1659 
z
M 791 1659 
Q 791 1022 1069 705 
Q 1347 388 1769 388 
Q 2188 388 2466 706 
Q 2744 1025 2744 1678 
Q 2744 2294 2464 2611 
Q 2184 2928 1769 2928 
Q 1347 2928 1069 2612 
Q 791 2297 791 1659 
z
" transform="scale(0.015625)"/>
       <path id="ArialMT-20" transform="scale(0.015625)"/>
       <path id="ArialMT-28" d="M 1497 -1347 
Q 1031 -759 709 28 
Q 388 816 388 1659 
Q 388 2403 628 3084 
Q 909 3875 1497 4659 
L 1900 4659 
Q 1522 4009 1400 3731 
Q 1209 3300 1100 2831 
Q 966 2247 966 1656 
Q 966 153 1900 -1347 
L 1497 -1347 
z
" transform="scale(0.015625)"/>
       <path id="ArialMT-2f" d="M 0 -78 
L 1328 4659 
L 1778 4659 
L 453 -78 
L 0 -78 
z
" transform="scale(0.015625)"/>
       <path id="ArialMT-29" d="M 791 -1347 
L 388 -1347 
Q 1322 153 1322 1656 
Q 1322 2244 1188 2822 
Q 1081 3291 891 3722 
Q 769 4003 388 4659 
L 791 4659 
Q 1378 3875 1659 3084 
Q 1900 2403 1900 1659 
Q 1900 816 1576 28 
Q 1253 -759 791 -1347 
z
" transform="scale(0.015625)"/>
      </defs>
      <use xlink:href="#ArialMT-56"/>
      <use xlink:href="#ArialMT-65" x="61.199219"/>
      <use xlink:href="#ArialMT-6e" x="116.814453"/>
      <use xlink:href="#ArialMT-74" x="172.429688"/>
      <use xlink:href="#ArialMT-69" x="200.212891"/>
      <use xlink:href="#ArialMT-6c" x="222.429688"/>
      <use xlink:href="#ArialMT-61" x="244.646484"/>
      <use xlink:href="#ArialMT-74" x="300.261719"/>
      <use xlink:href="#ArialMT-69" x="328.044922"/>
      <use xlink:href="#ArialMT-6f" x="350.261719"/>
      <use xlink:href="#ArialMT-6e" x="405.876953"/>
      <use xlink:href="#ArialMT-20" x="461.492188"/>
      <use xlink:href="#ArialMT-28" x="489.275391"/>
      <use xlink:href="#ArialMT-6c" x="522.576172"/>
      <use xlink:href="#ArialMT-2f" x="544.792969"/>
      <use xlink:href="#ArialMT-6d" x="572.576172"/>
      <use xlink:href="#ArialMT-69" x="655.876953"/>
      <use xlink:href="#ArialMT-6e" x="678.09375"/>
      <use xlink:href="#ArialMT-29" x="733.708984"/>
     </g>
    </g>
   </g>
   <g id="PolyCollection_1">
    <defs>
     <path id="meb806490ba" d="M 96.548834 -75.098153 
L 95.343576 -75.098153 
L 95.195424 -77.725793 
L 95.018194 -80.353434 
L 94.807923 -82.981074 
L 94.560453 -85.608714 
L 94.271471 -88.236355 
L 93.936565 -90.863995 
L 93.551288 -93.491635 
L 93.111218 -96.119276 
L 92.612042 -98.746916 
L 92.049639 -101.374556 
L 91.42018 -104.002197 
L 90.720241 -106.629837 
L 89.946934 -109.257477 
L 89.09806 -111.885118 
L 88.172276 -114.512758 
L 87.169294 -117.140398 
L 86.090082 -119.768039 
L 84.937091 -122.395679 
L 83.714473 -125.023319 
L 82.428291 -127.65096 
L 81.086701 -130.2786 
L 79.700083 -132.90624 
L 78.281115 -135.533881 
L 76.844748 -138.161521 
L 75.408091 -140.789161 
L 73.99017 -143.416802 
L 72.611571 -146.044442 
L 71.293958 -148.672082 
L 70.059481 -151.299723 
L 68.930093 -153.927363 
L 67.926797 -156.555003 
L 67.068861 -159.182643 
L 66.373048 -161.810284 
L 65.852895 -164.437924 
L 65.51808 -167.065564 
L 65.373935 -169.693205 
L 65.421112 -172.320845 
L 65.655453 -174.948485 
L 66.068047 -177.576126 
L 66.645507 -180.203766 
L 67.370427 -182.831406 
L 68.222012 -185.459047 
L 69.176845 -188.086687 
L 70.209747 -190.714327 
L 71.294699 -193.341968 
L 72.405757 -195.969608 
L 73.517944 -198.597248 
L 74.608057 -201.224889 
L 75.655376 -203.852529 
L 76.642227 -206.480169 
L 77.554406 -209.10781 
L 78.381439 -211.73545 
L 79.116687 -214.36309 
L 79.757297 -216.990731 
L 80.304014 -219.618371 
L 80.760876 -222.246011 
L 81.134803 -224.873652 
L 81.435114 -227.501292 
L 81.672986 -230.128932 
L 81.860889 -232.756573 
L 82.01201 -235.384213 
L 82.139704 -238.011853 
L 82.256975 -240.639494 
L 82.376018 -243.267134 
L 82.507832 -245.894774 
L 82.661914 -248.522415 
L 82.846046 -251.150055 
L 83.066166 -253.777695 
L 83.326331 -256.405336 
L 83.628759 -259.032976 
L 83.973942 -261.660616 
L 84.360809 -264.288257 
L 84.786942 -266.915897 
L 85.248799 -269.543537 
L 85.741963 -272.171178 
L 86.261376 -274.798818 
L 86.801563 -277.426458 
L 87.356831 -280.054099 
L 87.921442 -282.681739 
L 88.48976 -285.309379 
L 89.056364 -287.93702 
L 89.616143 -290.56466 
L 90.164362 -293.1923 
L 90.696724 -295.819941 
L 91.209402 -298.447581 
L 91.699075 -301.075221 
L 92.162952 -303.702862 
L 92.598782 -306.330502 
L 93.004867 -308.958142 
L 93.380058 -311.585783 
L 93.723747 -314.213423 
L 94.035841 -316.841063 
L 94.316739 -319.468703 
L 94.567279 -322.096344 
L 94.788692 -324.723984 
L 94.98254 -327.351624 
L 95.150646 -329.979265 
L 95.295027 -332.606905 
L 95.417825 -335.234545 
L 96.474585 -335.234545 
L 96.474585 -335.234545 
L 96.597383 -332.606905 
L 96.741764 -329.979265 
L 96.90987 -327.351624 
L 97.103718 -324.723984 
L 97.325131 -322.096344 
L 97.575671 -319.468703 
L 97.856569 -316.841063 
L 98.168663 -314.213423 
L 98.512352 -311.585783 
L 98.887543 -308.958142 
L 99.293628 -306.330502 
L 99.729458 -303.702862 
L 100.193335 -301.075221 
L 100.683008 -298.447581 
L 101.195686 -295.819941 
L 101.728048 -293.1923 
L 102.276267 -290.56466 
L 102.836046 -287.93702 
L 103.40265 -285.309379 
L 103.970968 -282.681739 
L 104.535579 -280.054099 
L 105.090847 -277.426458 
L 105.631034 -274.798818 
L 106.150447 -272.171178 
L 106.643611 -269.543537 
L 107.105468 -266.915897 
L 107.531601 -264.288257 
L 107.918468 -261.660616 
L 108.263651 -259.032976 
L 108.566079 -256.405336 
L 108.826244 -253.777695 
L 109.046364 -251.150055 
L 109.230496 -248.522415 
L 109.384578 -245.894774 
L 109.516392 -243.267134 
L 109.635435 -240.639494 
L 109.752706 -238.011853 
L 109.8804 -235.384213 
L 110.031521 -232.756573 
L 110.219424 -230.128932 
L 110.457296 -227.501292 
L 110.757607 -224.873652 
L 111.131534 -222.246011 
L 111.588396 -219.618371 
L 112.135113 -216.990731 
L 112.775723 -214.36309 
L 113.510971 -211.73545 
L 114.338004 -209.10781 
L 115.250183 -206.480169 
L 116.237034 -203.852529 
L 117.284353 -201.224889 
L 118.374466 -198.597248 
L 119.486653 -195.969608 
L 120.597711 -193.341968 
L 121.682663 -190.714327 
L 122.715565 -188.086687 
L 123.670398 -185.459047 
L 124.521983 -182.831406 
L 125.246903 -180.203766 
L 125.824363 -177.576126 
L 126.236957 -174.948485 
L 126.471298 -172.320845 
L 126.518475 -169.693205 
L 126.37433 -167.065564 
L 126.039515 -164.437924 
L 125.519362 -161.810284 
L 124.823549 -159.182643 
L 123.965613 -156.555003 
L 122.962317 -153.927363 
L 121.832929 -151.299723 
L 120.598452 -148.672082 
L 119.280839 -146.044442 
L 117.90224 -143.416802 
L 116.484319 -140.789161 
L 115.047662 -138.161521 
L 113.611295 -135.533881 
L 112.192327 -132.90624 
L 110.805709 -130.2786 
L 109.464119 -127.65096 
L 108.177937 -125.023319 
L 106.955319 -122.395679 
L 105.802328 -119.768039 
L 104.723116 -117.140398 
L 103.720134 -114.512758 
L 102.79435 -111.885118 
L 101.945476 -109.257477 
L 101.172169 -106.629837 
L 100.47223 -104.002197 
L 99.842771 -101.374556 
L 99.280368 -98.746916 
L 98.781192 -96.119276 
L 98.341122 -93.491635 
L 97.955845 -90.863995 
L 97.620939 -88.236355 
L 97.331957 -85.608714 
L 97.084487 -82.981074 
L 96.874216 -80.353434 
L 96.696986 -77.725793 
L 96.548834 -75.098153 
z
" style="stroke: #3f3f3f; stroke-width: 1.25"/>
    </defs>
    <g clip-path="url(#p1036491171)">
     <use xlink:href="#meb806490ba" x="0" y="360" style="fill: #3274a1; stroke: #3f3f3f; stroke-width: 1.25"/>
    </g>
   </g>
   <g id="PolyCollection_2">
    <defs>
     <path id="m43c588f574" d="M 157.492386 -56.813348 
L 156.689104 -56.813348 
L 156.586298 -59.324477 
L 156.463165 -61.835606 
L 156.317227 -64.346735 
L 156.146034 -66.857864 
L 155.947241 -69.368993 
L 155.718678 -71.880122 
L 155.458419 -74.391251 
L 155.164856 -76.90238 
L 154.836755 -79.413509 
L 154.47331 -81.924638 
L 154.074183 -84.435767 
L 153.639534 -86.946896 
L 153.170047 -89.458025 
L 152.666938 -91.969154 
L 152.131973 -94.480283 
L 151.567471 -96.991412 
L 150.976321 -99.502541 
L 150.361983 -102.01367 
L 149.728499 -104.524799 
L 149.080497 -107.035928 
L 148.423172 -109.547057 
L 147.762259 -112.058186 
L 147.103966 -114.569315 
L 146.454877 -117.080444 
L 145.821802 -119.591573 
L 145.211594 -122.102702 
L 144.630907 -124.613831 
L 144.085933 -127.12496 
L 143.582109 -129.636089 
L 143.123828 -132.147218 
L 142.714174 -134.658347 
L 142.354706 -137.169476 
L 142.045314 -139.680605 
L 141.784176 -142.191734 
L 141.567828 -144.702863 
L 141.391351 -147.213992 
L 141.248678 -149.725121 
L 141.133003 -152.23625 
L 141.037267 -154.747379 
L 140.954692 -157.258508 
L 140.879318 -159.769637 
L 140.806508 -162.280766 
L 140.733373 -164.791895 
L 140.659081 -167.303024 
L 140.585033 -169.814153 
L 140.514868 -172.325282 
L 140.454316 -174.836411 
L 140.410889 -177.34754 
L 140.39343 -179.858669 
L 140.411566 -182.369798 
L 140.475086 -184.880927 
L 140.59329 -187.392056 
L 140.77436 -189.903185 
L 141.024786 -192.414314 
L 141.34889 -194.925443 
L 141.748471 -197.436572 
L 142.222599 -199.947701 
L 142.767565 -202.45883 
L 143.376988 -204.969959 
L 144.04207 -207.481088 
L 144.751984 -209.992217 
L 145.494365 -212.503346 
L 146.255879 -215.014475 
L 147.022831 -217.525604 
L 147.781779 -220.036733 
L 148.520119 -222.547862 
L 149.22661 -225.058991 
L 149.8918 -227.57012 
L 150.508356 -230.081249 
L 151.071254 -232.592378 
L 151.577849 -235.103507 
L 152.027806 -237.614636 
L 152.422923 -240.125765 
L 152.766844 -242.636894 
L 153.064697 -245.148023 
L 153.322674 -247.659152 
L 153.547599 -250.170281 
L 153.74649 -252.68141 
L 153.926157 -255.192539 
L 154.092854 -257.703668 
L 154.252003 -260.214797 
L 154.407994 -262.725926 
L 154.564082 -265.237056 
L 154.72236 -267.748185 
L 154.88381 -270.259314 
L 155.048423 -272.770443 
L 155.215361 -275.281572 
L 155.383155 -277.792701 
L 155.549911 -280.30383 
L 155.713521 -282.814959 
L 155.871849 -285.326088 
L 156.022891 -287.837217 
L 156.164905 -290.348346 
L 156.296498 -292.859475 
L 156.416674 -295.370604 
L 156.524854 -297.881733 
L 156.620854 -300.392862 
L 156.704854 -302.903991 
L 156.777337 -305.41512 
L 157.404153 -305.41512 
L 157.404153 -305.41512 
L 157.476636 -302.903991 
L 157.560636 -300.392862 
L 157.656636 -297.881733 
L 157.764816 -295.370604 
L 157.884992 -292.859475 
L 158.016585 -290.348346 
L 158.158599 -287.837217 
L 158.309641 -285.326088 
L 158.467969 -282.814959 
L 158.631579 -280.30383 
L 158.798335 -277.792701 
L 158.966129 -275.281572 
L 159.133067 -272.770443 
L 159.29768 -270.259314 
L 159.45913 -267.748185 
L 159.617408 -265.237056 
L 159.773496 -262.725926 
L 159.929487 -260.214797 
L 160.088636 -257.703668 
L 160.255333 -255.192539 
L 160.435 -252.68141 
L 160.633891 -250.170281 
L 160.858816 -247.659152 
L 161.116793 -245.148023 
L 161.414646 -242.636894 
L 161.758567 -240.125765 
L 162.153684 -237.614636 
L 162.603641 -235.103507 
L 163.110236 -232.592378 
L 163.673134 -230.081249 
L 164.28969 -227.57012 
L 164.95488 -225.058991 
L 165.661371 -222.547862 
L 166.399711 -220.036733 
L 167.158659 -217.525604 
L 167.925611 -215.014475 
L 168.687125 -212.503346 
L 169.429506 -209.992217 
L 170.13942 -207.481088 
L 170.804502 -204.969959 
L 171.413925 -202.45883 
L 171.958891 -199.947701 
L 172.433019 -197.436572 
L 172.8326 -194.925443 
L 173.156704 -192.414314 
L 173.40713 -189.903185 
L 173.5882 -187.392056 
L 173.706404 -184.880927 
L 173.769924 -182.369798 
L 173.78806 -179.858669 
L 173.770601 -177.34754 
L 173.727174 -174.836411 
L 173.666622 -172.325282 
L 173.596457 -169.814153 
L 173.522409 -167.303024 
L 173.448117 -164.791895 
L 173.374982 -162.280766 
L 173.302172 -159.769637 
L 173.226798 -157.258508 
L 173.144223 -154.747379 
L 173.048487 -152.23625 
L 172.932812 -149.725121 
L 172.790139 -147.213992 
L 172.613662 -144.702863 
L 172.397314 -142.191734 
L 172.136176 -139.680605 
L 171.826784 -137.169476 
L 171.467316 -134.658347 
L 171.057662 -132.147218 
L 170.599381 -129.636089 
L 170.095557 -127.12496 
L 169.550583 -124.613831 
L 168.969896 -122.102702 
L 168.359688 -119.591573 
L 167.726613 -117.080444 
L 167.077524 -114.569315 
L 166.419231 -112.058186 
L 165.758318 -109.547057 
L 165.100993 -107.035928 
L 164.452991 -104.524799 
L 163.819507 -102.01367 
L 163.205169 -99.502541 
L 162.614019 -96.991412 
L 162.049517 -94.480283 
L 161.514552 -91.969154 
L 161.011443 -89.458025 
L 160.541956 -86.946896 
L 160.107307 -84.435767 
L 159.70818 -81.924638 
L 159.344735 -79.413509 
L 159.016634 -76.90238 
L 158.723071 -74.391251 
L 158.462812 -71.880122 
L 158.234249 -69.368993 
L 158.035456 -66.857864 
L 157.864263 -64.346735 
L 157.718325 -61.835606 
L 157.595192 -59.324477 
L 157.492386 -56.813348 
z
" style="stroke: #3f3f3f; stroke-width: 1.25"/>
    </defs>
    <g clip-path="url(#p1036491171)">
     <use xlink:href="#m43c588f574" x="0" y="360" style="fill: #e1812c; stroke: #3f3f3f; stroke-width: 1.25"/>
    </g>
   </g>
   <g id="PolyCollection_3">
    <defs>
     <path id="me96ebda6ca" d="M 249.148353 -55.925455 
L 248.466757 -55.925455 
L 248.381851 -58.540539 
L 248.281588 -61.155624 
L 248.164648 -63.770709 
L 248.029888 -66.385794 
L 247.876385 -69.000879 
L 247.703448 -71.615963 
L 247.510608 -74.231048 
L 247.297584 -76.846133 
L 247.0642 -79.461218 
L 246.810281 -82.076303 
L 246.53552 -84.691387 
L 246.239325 -87.306472 
L 245.920661 -89.921557 
L 245.577917 -92.536642 
L 245.208793 -95.151727 
L 244.810249 -97.766811 
L 244.378525 -100.381896 
L 243.909237 -102.996981 
L 243.397567 -105.612066 
L 242.838541 -108.227151 
L 242.227376 -110.842235 
L 241.559896 -113.45732 
L 240.832966 -116.072405 
L 240.044926 -118.68749 
L 239.19599 -121.302575 
L 238.288561 -123.917659 
L 237.327446 -126.532744 
L 236.319931 -129.147829 
L 235.275715 -131.762914 
L 234.206687 -134.377999 
L 233.126555 -136.993083 
L 232.050361 -139.608168 
L 230.993893 -142.223253 
L 229.973043 -144.838338 
L 229.003151 -147.453423 
L 228.098377 -150.068507 
L 227.271135 -152.683592 
L 226.531636 -155.298677 
L 225.88754 -157.913762 
L 225.343754 -160.528847 
L 224.902361 -163.143932 
L 224.562686 -165.759016 
L 224.321469 -168.374101 
L 224.173131 -170.989186 
L 224.110122 -173.604271 
L 224.123296 -176.219356 
L 224.202329 -178.83444 
L 224.336125 -181.449525 
L 224.513236 -184.06461 
L 224.722245 -186.679695 
L 224.952146 -189.29478 
L 225.192683 -191.909864 
L 225.434668 -194.524949 
L 225.670264 -197.140034 
L 225.893214 -199.755119 
L 226.099035 -202.370204 
L 226.285142 -204.985288 
L 226.450901 -207.600373 
L 226.597613 -210.215458 
L 226.728412 -212.830543 
L 226.848083 -215.445628 
L 226.962817 -218.060712 
L 227.0799 -220.675797 
L 227.20737 -223.290882 
L 227.353647 -225.905967 
L 227.527174 -228.521052 
L 227.73607 -231.136136 
L 227.987831 -233.751221 
L 228.289068 -236.366306 
L 228.645303 -238.981391 
L 229.06082 -241.596476 
L 229.53855 -244.21156 
L 230.080012 -246.826645 
L 230.685268 -249.44173 
L 231.352911 -252.056815 
L 232.080076 -254.6719 
L 232.862463 -257.286984 
L 233.694392 -259.902069 
L 234.568889 -262.517154 
L 235.477804 -265.132239 
L 236.41198 -267.747324 
L 237.361469 -270.362408 
L 238.31579 -272.977493 
L 239.264236 -275.592578 
L 240.196197 -278.207663 
L 241.101508 -280.822748 
L 241.970778 -283.437833 
L 242.795694 -286.052917 
L 243.569273 -288.668002 
L 244.286052 -291.283087 
L 244.942202 -293.898172 
L 245.535551 -296.513257 
L 246.065542 -299.128341 
L 246.533108 -301.743426 
L 246.940492 -304.358511 
L 247.291024 -306.973596 
L 247.58887 -309.588681 
L 247.83878 -312.203765 
L 248.045835 -314.81885 
L 249.569275 -314.81885 
L 249.569275 -314.81885 
L 249.77633 -312.203765 
L 250.02624 -309.588681 
L 250.324086 -306.973596 
L 250.674618 -304.358511 
L 251.082002 -301.743426 
L 251.549568 -299.128341 
L 252.079559 -296.513257 
L 252.672908 -293.898172 
L 253.329058 -291.283087 
L 254.045837 -288.668002 
L 254.819416 -286.052917 
L 255.644332 -283.437833 
L 256.513602 -280.822748 
L 257.418913 -278.207663 
L 258.350874 -275.592578 
L 259.29932 -272.977493 
L 260.253641 -270.362408 
L 261.20313 -267.747324 
L 262.137306 -265.132239 
L 263.046221 -262.517154 
L 263.920718 -259.902069 
L 264.752647 -257.286984 
L 265.535034 -254.6719 
L 266.262199 -252.056815 
L 266.929842 -249.44173 
L 267.535098 -246.826645 
L 268.07656 -244.21156 
L 268.55429 -241.596476 
L 268.969807 -238.981391 
L 269.326042 -236.366306 
L 269.627279 -233.751221 
L 269.87904 -231.136136 
L 270.087936 -228.521052 
L 270.261463 -225.905967 
L 270.40774 -223.290882 
L 270.53521 -220.675797 
L 270.652293 -218.060712 
L 270.767027 -215.445628 
L 270.886698 -212.830543 
L 271.017497 -210.215458 
L 271.164209 -207.600373 
L 271.329968 -204.985288 
L 271.516075 -202.370204 
L 271.721896 -199.755119 
L 271.944846 -197.140034 
L 272.180442 -194.524949 
L 272.422427 -191.909864 
L 272.662964 -189.29478 
L 272.892865 -186.679695 
L 273.101874 -184.06461 
L 273.278985 -181.449525 
L 273.412781 -178.83444 
L 273.491814 -176.219356 
L 273.504988 -173.604271 
L 273.441979 -170.989186 
L 273.293641 -168.374101 
L 273.052424 -165.759016 
L 272.712749 -163.143932 
L 272.271356 -160.528847 
L 271.72757 -157.913762 
L 271.083474 -155.298677 
L 270.343975 -152.683592 
L 269.516733 -150.068507 
L 268.611959 -147.453423 
L 267.642067 -144.838338 
L 266.621217 -142.223253 
L 265.564749 -139.608168 
L 264.488555 -136.993083 
L 263.408423 -134.377999 
L 262.339395 -131.762914 
L 261.295179 -129.147829 
L 260.287664 -126.532744 
L 259.326549 -123.917659 
L 258.41912 -121.302575 
L 257.570184 -118.68749 
L 256.782144 -116.072405 
L 256.055214 -113.45732 
L 255.387734 -110.842235 
L 254.776569 -108.227151 
L 254.217543 -105.612066 
L 253.705873 -102.996981 
L 253.236585 -100.381896 
L 252.804861 -97.766811 
L 252.406317 -95.151727 
L 252.037193 -92.536642 
L 251.694449 -89.921557 
L 251.375785 -87.306472 
L 251.07959 -84.691387 
L 250.804829 -82.076303 
L 250.55091 -79.461218 
L 250.317526 -76.846133 
L 250.104502 -74.231048 
L 249.911662 -71.615963 
L 249.738725 -69.000879 
L 249.585222 -66.385794 
L 249.450462 -63.770709 
L 249.333522 -61.155624 
L 249.233259 -58.540539 
L 249.148353 -55.925455 
z
" style="stroke: #3f3f3f; stroke-width: 1.25"/>
    </defs>
    <g clip-path="url(#p1036491171)">
     <use xlink:href="#me96ebda6ca" x="0" y="360" style="fill: #3274a1; stroke: #3f3f3f; stroke-width: 1.25"/>
    </g>
   </g>
   <g id="PolyCollection_4">
    <defs>
     <path id="me218525fbb" d="M 310.721386 -97.541948 
L 309.182804 -97.541948 
L 308.946569 -99.258629 
L 308.653103 -100.975311 
L 308.293338 -102.691993 
L 307.858085 -104.408674 
L 307.338394 -106.125356 
L 306.725983 -107.842038 
L 306.013694 -109.558719 
L 305.195982 -111.275401 
L 304.269377 -112.992083 
L 303.232918 -114.708764 
L 302.088497 -116.425446 
L 300.841115 -118.142128 
L 299.499003 -119.858809 
L 298.073609 -121.575491 
L 296.579439 -123.292173 
L 295.033758 -125.008854 
L 293.456168 -126.725536 
L 291.868078 -128.442217 
L 290.292096 -130.158899 
L 288.75137 -131.875581 
L 287.268902 -133.592262 
L 285.866864 -135.308944 
L 284.565941 -137.025626 
L 283.384715 -138.742307 
L 282.339118 -140.458989 
L 281.441968 -142.175671 
L 280.702612 -143.892352 
L 280.126696 -145.609034 
L 279.716075 -147.325716 
L 279.468892 -149.042397 
L 279.379825 -150.759079 
L 279.440504 -152.475761 
L 279.640085 -154.192442 
L 279.965953 -155.909124 
L 280.404498 -157.625806 
L 280.941922 -159.342487 
L 281.56499 -161.059169 
L 282.261673 -162.775851 
L 283.021617 -164.492532 
L 283.836384 -166.209214 
L 284.699458 -167.925896 
L 285.606005 -169.642577 
L 286.552434 -171.359259 
L 287.535801 -173.075941 
L 288.55314 -174.792622 
L 289.600811 -176.509304 
L 290.67394 -178.225985 
L 291.766027 -179.942667 
L 292.868773 -181.659349 
L 293.972153 -183.37603 
L 295.064723 -185.092712 
L 296.134129 -186.809394 
L 297.16776 -188.526075 
L 298.15347 -190.242757 
L 299.080295 -191.959439 
L 299.939086 -193.67612 
L 300.723 -195.392802 
L 301.427809 -197.109484 
L 302.052002 -198.826165 
L 302.596697 -200.542847 
L 303.065367 -202.259529 
L 303.463445 -203.97621 
L 303.797835 -205.692892 
L 304.07639 -207.409574 
L 304.307407 -209.126255 
L 304.499173 -210.842937 
L 304.659603 -212.559619 
L 304.795965 -214.2763 
L 304.914727 -215.992982 
L 305.021488 -217.709664 
L 305.121003 -219.426345 
L 305.217259 -221.143027 
L 305.313597 -222.859708 
L 305.412835 -224.57639 
L 305.517386 -226.293072 
L 305.629348 -228.009753 
L 305.750545 -229.726435 
L 305.882539 -231.443117 
L 306.026587 -233.159798 
L 306.183577 -234.87648 
L 306.353944 -236.593162 
L 306.537588 -238.309843 
L 306.733815 -240.026525 
L 306.941297 -241.743207 
L 307.158095 -243.459888 
L 307.381712 -245.17657 
L 307.6092 -246.893252 
L 307.837308 -248.609933 
L 308.062654 -250.326615 
L 308.281898 -252.043297 
L 308.491928 -253.759978 
L 308.690007 -255.47666 
L 308.873901 -257.193342 
L 309.041955 -258.910023 
L 309.193128 -260.626705 
L 309.326993 -262.343387 
L 309.443683 -264.060068 
L 309.543822 -265.77675 
L 309.62843 -267.493432 
L 310.27576 -267.493432 
L 310.27576 -267.493432 
L 310.360368 -265.77675 
L 310.460507 -264.060068 
L 310.577197 -262.343387 
L 310.711062 -260.626705 
L 310.862235 -258.910023 
L 311.030289 -257.193342 
L 311.214183 -255.47666 
L 311.412262 -253.759978 
L 311.622292 -252.043297 
L 311.841536 -250.326615 
L 312.066882 -248.609933 
L 312.29499 -246.893252 
L 312.522478 -245.17657 
L 312.746095 -243.459888 
L 312.962893 -241.743207 
L 313.170375 -240.026525 
L 313.366602 -238.309843 
L 313.550246 -236.593162 
L 313.720613 -234.87648 
L 313.877603 -233.159798 
L 314.021651 -231.443117 
L 314.153645 -229.726435 
L 314.274842 -228.009753 
L 314.386804 -226.293072 
L 314.491355 -224.57639 
L 314.590593 -222.859708 
L 314.686931 -221.143027 
L 314.783187 -219.426345 
L 314.882702 -217.709664 
L 314.989463 -215.992982 
L 315.108225 -214.2763 
L 315.244587 -212.559619 
L 315.405017 -210.842937 
L 315.596783 -209.126255 
L 315.8278 -207.409574 
L 316.106355 -205.692892 
L 316.440745 -203.97621 
L 316.838823 -202.259529 
L 317.307493 -200.542847 
L 317.852188 -198.826165 
L 318.476381 -197.109484 
L 319.18119 -195.392802 
L 319.965104 -193.67612 
L 320.823895 -191.959439 
L 321.75072 -190.242757 
L 322.73643 -188.526075 
L 323.770061 -186.809394 
L 324.839467 -185.092712 
L 325.932037 -183.37603 
L 327.035417 -181.659349 
L 328.138163 -179.942667 
L 329.23025 -178.225985 
L 330.303379 -176.509304 
L 331.35105 -174.792622 
L 332.368389 -173.075941 
L 333.351756 -171.359259 
L 334.298185 -169.642577 
L 335.204732 -167.925896 
L 336.067806 -166.209214 
L 336.882573 -164.492532 
L 337.642517 -162.775851 
L 338.3392 -161.059169 
L 338.962268 -159.342487 
L 339.499692 -157.625806 
L 339.938237 -155.909124 
L 340.264105 -154.192442 
L 340.463686 -152.475761 
L 340.524365 -150.759079 
L 340.435298 -149.042397 
L 340.188115 -147.325716 
L 339.777494 -145.609034 
L 339.201578 -143.892352 
L 338.462222 -142.175671 
L 337.565072 -140.458989 
L 336.519475 -138.742307 
L 335.338249 -137.025626 
L 334.037326 -135.308944 
L 332.635288 -133.592262 
L 331.15282 -131.875581 
L 329.612094 -130.158899 
L 328.036112 -128.442217 
L 326.448022 -126.725536 
L 324.870432 -125.008854 
L 323.324751 -123.292173 
L 321.830581 -121.575491 
L 320.405187 -119.858809 
L 319.063075 -118.142128 
L 317.815693 -116.425446 
L 316.671272 -114.708764 
L 315.634813 -112.992083 
L 314.708208 -111.275401 
L 313.890496 -109.558719 
L 313.178207 -107.842038 
L 312.565796 -106.125356 
L 312.046105 -104.408674 
L 311.610852 -102.691993 
L 311.251087 -100.975311 
L 310.957621 -99.258629 
L 310.721386 -97.541948 
z
" style="stroke: #3f3f3f; stroke-width: 1.25"/>
    </defs>
    <g clip-path="url(#p1036491171)">
     <use xlink:href="#me218525fbb" x="0" y="360" style="fill: #e1812c; stroke: #3f3f3f; stroke-width: 1.25"/>
    </g>
   </g>
   <g id="patch_3">
    <path d="M 126.518475 302.348019 
L 126.518475 302.348019 
L 126.518475 302.348019 
L 126.518475 302.348019 
z
" clip-path="url(#p1036491171)" style="fill: #3274a1; stroke: #3f3f3f; stroke-width: 1.25; stroke-linejoin: miter"/>
   </g>
   <g id="patch_4">
    <path d="M 126.518475 302.348019 
L 126.518475 302.348019 
L 126.518475 302.348019 
L 126.518475 302.348019 
z
" clip-path="url(#p1036491171)" style="fill: #e1812c; stroke: #3f3f3f; stroke-width: 1.25; stroke-linejoin: miter"/>
   </g>
   <g id="line2d_9">
    <path d="M 95.946205 232.664791 
L 95.946205 77.002511 
" clip-path="url(#p1036491171)" style="fill: none; stroke: #3f3f3f; stroke-width: 1.875; stroke-linecap: round"/>
   </g>
   <g id="line2d_10">
    <path d="M 95.946205 195.017711 
L 95.946205 136.60461 
" clip-path="url(#p1036491171)" style="fill: none; stroke: #3f3f3f; stroke-width: 5.625; stroke-linecap: round"/>
   </g>
   <g id="line2d_11">
    <path d="M 95.946205 186.717634 
" clip-path="url(#p1036491171)" style="fill: none; stroke: #3f3f3f; stroke-width: 1.5; stroke-linecap: round"/>
    <defs>
     <path id="m4efa075958" d="M 2.34375 0 
L -2.34375 -0 
" style="stroke: #ffffff; stroke-width: 1.125"/>
    </defs>
    <g clip-path="url(#p1036491171)">
     <use xlink:href="#m4efa075958" x="95.946205" y="186.717634" style="fill: #ffffff; stroke: #ffffff; stroke-width: 1.125"/>
    </g>
   </g>
   <g id="line2d_12">
    <path d="M 157.090745 255.998591 
L 157.090745 101.772942 
" clip-path="url(#p1036491171)" style="fill: none; stroke: #3f3f3f; stroke-width: 1.875; stroke-linecap: round"/>
   </g>
   <g id="line2d_13">
    <path d="M 157.090745 219.729775 
L 157.090745 164.206659 
" clip-path="url(#p1036491171)" style="fill: none; stroke: #3f3f3f; stroke-width: 5.625; stroke-linecap: round"/>
   </g>
   <g id="line2d_14">
    <path d="M 157.090745 184.275499 
" clip-path="url(#p1036491171)" style="fill: none; stroke: #3f3f3f; stroke-width: 1.5; stroke-linecap: round"/>
    <g clip-path="url(#p1036491171)">
     <use xlink:href="#m4efa075958" x="157.090745" y="184.275499" style="fill: #ffffff; stroke: #ffffff; stroke-width: 1.125"/>
    </g>
   </g>
   <g id="line2d_15">
    <path d="M 248.807555 256.802055 
L 248.807555 92.45364 
" clip-path="url(#p1036491171)" style="fill: none; stroke: #3f3f3f; stroke-width: 1.875; stroke-linecap: round"/>
   </g>
   <g id="line2d_16">
    <path d="M 248.807555 197.385908 
L 248.807555 126.758682 
" clip-path="url(#p1036491171)" style="fill: none; stroke: #3f3f3f; stroke-width: 5.625; stroke-linecap: round"/>
   </g>
   <g id="line2d_17">
    <path d="M 248.807555 167.80823 
" clip-path="url(#p1036491171)" style="fill: none; stroke: #3f3f3f; stroke-width: 1.5; stroke-linecap: round"/>
    <g clip-path="url(#p1036491171)">
     <use xlink:href="#m4efa075958" x="248.807555" y="167.80823" style="fill: #ffffff; stroke: #ffffff; stroke-width: 1.125"/>
    </g>
   </g>
   <g id="line2d_18">
    <path d="M 309.952095 233.120581 
L 309.952095 141.163014 
" clip-path="url(#p1036491171)" style="fill: none; stroke: #3f3f3f; stroke-width: 1.875; stroke-linecap: round"/>
   </g>
   <g id="line2d_19">
    <path d="M 309.952095 215.746178 
L 309.952095 184.214395 
" clip-path="url(#p1036491171)" style="fill: none; stroke: #3f3f3f; stroke-width: 5.625; stroke-linecap: round"/>
   </g>
   <g id="line2d_20">
    <path d="M 309.952095 205.72804 
" clip-path="url(#p1036491171)" style="fill: none; stroke: #3f3f3f; stroke-width: 1.5; stroke-linecap: round"/>
    <g clip-path="url(#p1036491171)">
     <use xlink:href="#m4efa075958" x="309.952095" y="205.72804" style="fill: #ffffff; stroke: #ffffff; stroke-width: 1.125"/>
    </g>
   </g>
   <g id="patch_5">
    <path d="M 50.0878 318.04 
L 50.0878 10.8 
" style="fill: none; stroke: #cccccc; stroke-width: 0.8; stroke-linejoin: miter; stroke-linecap: square"/>
   </g>
   <g id="patch_6">
    <path d="M 50.0878 318.04 
L 355.8105 318.04 
" style="fill: none; stroke: #cccccc; stroke-width: 0.8; stroke-linejoin: miter; stroke-linecap: square"/>
   </g>
  </g>
  <g id="legend_1">
   <g id="text_13">
    <!-- Time -->
    <g style="fill: #262626" transform="translate(373.633594 168.439844) scale(0.1 -0.1)">
     <defs>
      <path id="ArialMT-54" d="M 1659 0 
L 1659 4041 
L 150 4041 
L 150 4581 
L 3781 4581 
L 3781 4041 
L 2266 4041 
L 2266 0 
L 1659 0 
z
" transform="scale(0.015625)"/>
     </defs>
     <use xlink:href="#ArialMT-54"/>
     <use xlink:href="#ArialMT-69" x="57.333984"/>
     <use xlink:href="#ArialMT-6d" x="79.550781"/>
     <use xlink:href="#ArialMT-65" x="162.851562"/>
    </g>
   </g>
   <g id="patch_7">
    <path d="M 359.1625 182.585156 
L 379.1625 182.585156 
L 379.1625 175.585156 
L 359.1625 175.585156 
z
" style="fill: #3274a1; stroke: #3f3f3f; stroke-width: 1.25; stroke-linejoin: miter"/>
   </g>
   <g id="text_14">
    <!-- initial -->
    <g style="fill: #262626" transform="translate(387.1625 182.585156) scale(0.1 -0.1)">
     <use xlink:href="#ArialMT-69"/>
     <use xlink:href="#ArialMT-6e" x="22.216797"/>
     <use xlink:href="#ArialMT-69" x="77.832031"/>
     <use xlink:href="#ArialMT-74" x="100.048828"/>
     <use xlink:href="#ArialMT-69" x="127.832031"/>
     <use xlink:href="#ArialMT-61" x="150.048828"/>
     <use xlink:href="#ArialMT-6c" x="205.664062"/>
    </g>
   </g>
   <g id="patch_8">
    <path d="M 359.1625 196.730469 
L 379.1625 196.730469 
L 379.1625 189.730469 
L 359.1625 189.730469 
z
" style="fill: #e1812c; stroke: #3f3f3f; stroke-width: 1.25; stroke-linejoin: miter"/>
   </g>
   <g id="text_15">
    <!-- final -->
    <g style="fill: #262626" transform="translate(387.1625 196.730469) scale(0.1 -0.1)">
     <use xlink:href="#ArialMT-66"/>
     <use xlink:href="#ArialMT-69" x="27.783203"/>
     <use xlink:href="#ArialMT-6e" x="50"/>
     <use xlink:href="#ArialMT-61" x="105.615234"/>
     <use xlink:href="#ArialMT-6c" x="161.230469"/>
    </g>
   </g>
  </g>
 </g>
 <defs>
  <clipPath id="p1036491171">
   <rect x="50.0878" y="10.8" width="305.7227" height="307.24"/>
  </clipPath>
 </defs>
</svg>
