<?xml version="1.0" encoding="utf-8" standalone="no"?>
<!DOCTYPE svg PUBLIC "-//W3C//DTD SVG 1.1//EN"
  "http://www.w3.org/Graphics/SVG/1.1/DTD/svg11.dtd">
<svg xmlns:xlink="http://www.w3.org/1999/xlink" width="778.95pt" height="360pt" viewBox="0 0 778.95 360" xmlns="http://www.w3.org/2000/svg" version="1.1">
 <metadata>
  <rdf:RDF xmlns:dc="http://purl.org/dc/elements/1.1/" xmlns:cc="http://creativecommons.org/ns#" xmlns:rdf="http://www.w3.org/1999/02/22-rdf-syntax-ns#">
   <cc:Work>
    <dc:type rdf:resource="http://purl.org/dc/dcmitype/StillImage"/>
    <dc:date>2024-09-11T14:57:38.949880</dc:date>
    <dc:format>image/svg+xml</dc:format>
    <dc:creator>
     <cc:Agent>
      <dc:title>Matplotlib v3.8.3, https://matplotlib.org/</dc:title>
     </cc:Agent>
    </dc:creator>
   </cc:Work>
  </rdf:RDF>
 </metadata>
 <defs>
  <style type="text/css">*{stroke-linejoin: round; stroke-linecap: butt}</style>
 </defs>
 <g id="figure_1">
  <g id="patch_1">
   <path d="M 0 360 
L 778.95 360 
L 778.95 0 
L 0 0 
z
" style="fill: #ffffff"/>
  </g>
  <g id="axes_1">
   <g id="patch_2">
    <path d="M 52.7955 318.04 
L 377.111054 318.04 
L 377.111054 24.72 
L 52.7955 24.72 
z
" style="fill: #ffffff"/>
   </g>
   <g id="matplotlib.axis_1">
    <g id="xtick_1">
     <g id="text_1">
      <!-- 1 -->
      <g style="fill: #262626" transform="translate(104.067624 332.197812) scale(0.1 -0.1)">
       <defs>
        <path id="ArialMT-31" d="M 2384 0 
L 1822 0 
L 1822 3584 
Q 1619 3391 1289 3197 
Q 959 3003 697 2906 
L 697 3450 
Q 1169 3672 1522 3987 
Q 1875 4303 2022 4600 
L 2384 4600 
L 2384 0 
z
" transform="scale(0.015625)"/>
       </defs>
       <use xlink:href="#ArialMT-31"/>
      </g>
     </g>
    </g>
    <g id="xtick_2">
     <g id="text_2">
      <!-- 2 -->
      <g style="fill: #262626" transform="translate(212.172808 332.197812) scale(0.1 -0.1)">
       <defs>
        <path id="ArialMT-32" d="M 3222 541 
L 3222 0 
L 194 0 
Q 188 203 259 391 
Q 375 700 629 1000 
Q 884 1300 1366 1694 
Q 2113 2306 2375 2664 
Q 2638 3022 2638 3341 
Q 2638 3675 2398 3904 
Q 2159 4134 1775 4134 
Q 1369 4134 1125 3890 
Q 881 3647 878 3216 
L 300 3275 
Q 359 3922 746 4261 
Q 1134 4600 1788 4600 
Q 2447 4600 2831 4234 
Q 3216 3869 3216 3328 
Q 3216 3053 3103 2787 
Q 2991 2522 2730 2228 
Q 2469 1934 1863 1422 
Q 1356 997 1212 845 
Q 1069 694 975 541 
L 3222 541 
z
" transform="scale(0.015625)"/>
       </defs>
       <use xlink:href="#ArialMT-32"/>
      </g>
     </g>
    </g>
    <g id="xtick_3">
     <g id="text_3">
      <!-- 3 -->
      <g style="fill: #262626" transform="translate(320.277993 332.197812) scale(0.1 -0.1)">
       <defs>
        <path id="ArialMT-33" d="M 269 1209 
L 831 1284 
Q 928 806 1161 595 
Q 1394 384 1728 384 
Q 2125 384 2398 659 
Q 2672 934 2672 1341 
Q 2672 1728 2419 1979 
Q 2166 2231 1775 2231 
Q 1616 2231 1378 2169 
L 1441 2663 
Q 1497 2656 1531 2656 
Q 1891 2656 2178 2843 
Q 2466 3031 2466 3422 
Q 2466 3731 2256 3934 
Q 2047 4138 1716 4138 
Q 1388 4138 1169 3931 
Q 950 3725 888 3313 
L 325 3413 
Q 428 3978 793 4289 
Q 1159 4600 1703 4600 
Q 2078 4600 2393 4439 
Q 2709 4278 2876 4000 
Q 3044 3722 3044 3409 
Q 3044 3113 2884 2869 
Q 2725 2625 2413 2481 
Q 2819 2388 3044 2092 
Q 3269 1797 3269 1353 
Q 3269 753 2831 336 
Q 2394 -81 1725 -81 
Q 1122 -81 723 278 
Q 325 638 269 1209 
z
" transform="scale(0.015625)"/>
       </defs>
       <use xlink:href="#ArialMT-33"/>
      </g>
     </g>
    </g>
    <g id="text_4">
     <!-- Effort level -->
     <g style="fill: #262626" transform="translate(191.421246 345.343125) scale(0.1 -0.1)">
      <defs>
       <path id="ArialMT-45" d="M 506 0 
L 506 4581 
L 3819 4581 
L 3819 4041 
L 1113 4041 
L 1113 2638 
L 3647 2638 
L 3647 2100 
L 1113 2100 
L 1113 541 
L 3925 541 
L 3925 0 
L 506 0 
z
" transform="scale(0.015625)"/>
       <path id="ArialMT-66" d="M 556 0 
L 556 2881 
L 59 2881 
L 59 3319 
L 556 3319 
L 556 3672 
Q 556 4006 616 4169 
Q 697 4388 901 4523 
Q 1106 4659 1475 4659 
Q 1713 4659 2000 4603 
L 1916 4113 
Q 1741 4144 1584 4144 
Q 1328 4144 1222 4034 
Q 1116 3925 1116 3625 
L 1116 3319 
L 1763 3319 
L 1763 2881 
L 1116 2881 
L 1116 0 
L 556 0 
z
" transform="scale(0.015625)"/>
       <path id="ArialMT-6f" d="M 213 1659 
Q 213 2581 725 3025 
Q 1153 3394 1769 3394 
Q 2453 3394 2887 2945 
Q 3322 2497 3322 1706 
Q 3322 1066 3130 698 
Q 2938 331 2570 128 
Q 2203 -75 1769 -75 
Q 1072 -75 642 372 
Q 213 819 213 1659 
z
M 791 1659 
Q 791 1022 1069 705 
Q 1347 388 1769 388 
Q 2188 388 2466 706 
Q 2744 1025 2744 1678 
Q 2744 2294 2464 2611 
Q 2184 2928 1769 2928 
Q 1347 2928 1069 2612 
Q 791 2297 791 1659 
z
" transform="scale(0.015625)"/>
       <path id="ArialMT-72" d="M 416 0 
L 416 3319 
L 922 3319 
L 922 2816 
Q 1116 3169 1280 3281 
Q 1444 3394 1641 3394 
Q 1925 3394 2219 3213 
L 2025 2691 
Q 1819 2813 1613 2813 
Q 1428 2813 1281 2702 
Q 1134 2591 1072 2394 
Q 978 2094 978 1738 
L 978 0 
L 416 0 
z
" transform="scale(0.015625)"/>
       <path id="ArialMT-74" d="M 1650 503 
L 1731 6 
Q 1494 -44 1306 -44 
Q 1000 -44 831 53 
Q 663 150 594 308 
Q 525 466 525 972 
L 525 2881 
L 113 2881 
L 113 3319 
L 525 3319 
L 525 4141 
L 1084 4478 
L 1084 3319 
L 1650 3319 
L 1650 2881 
L 1084 2881 
L 1084 941 
Q 1084 700 1114 631 
Q 1144 563 1211 522 
Q 1278 481 1403 481 
Q 1497 481 1650 503 
z
" transform="scale(0.015625)"/>
       <path id="ArialMT-20" transform="scale(0.015625)"/>
       <path id="ArialMT-6c" d="M 409 0 
L 409 4581 
L 972 4581 
L 972 0 
L 409 0 
z
" transform="scale(0.015625)"/>
       <path id="ArialMT-65" d="M 2694 1069 
L 3275 997 
Q 3138 488 2766 206 
Q 2394 -75 1816 -75 
Q 1088 -75 661 373 
Q 234 822 234 1631 
Q 234 2469 665 2931 
Q 1097 3394 1784 3394 
Q 2450 3394 2872 2941 
Q 3294 2488 3294 1666 
Q 3294 1616 3291 1516 
L 816 1516 
Q 847 969 1125 678 
Q 1403 388 1819 388 
Q 2128 388 2347 550 
Q 2566 713 2694 1069 
z
M 847 1978 
L 2700 1978 
Q 2663 2397 2488 2606 
Q 2219 2931 1791 2931 
Q 1403 2931 1139 2672 
Q 875 2413 847 1978 
z
" transform="scale(0.015625)"/>
       <path id="ArialMT-76" d="M 1344 0 
L 81 3319 
L 675 3319 
L 1388 1331 
Q 1503 1009 1600 663 
Q 1675 925 1809 1294 
L 2547 3319 
L 3125 3319 
L 1869 0 
L 1344 0 
z
" transform="scale(0.015625)"/>
      </defs>
      <use xlink:href="#ArialMT-45"/>
      <use xlink:href="#ArialMT-66" x="66.699219"/>
      <use xlink:href="#ArialMT-66" x="92.732422"/>
      <use xlink:href="#ArialMT-6f" x="120.515625"/>
      <use xlink:href="#ArialMT-72" x="176.130859"/>
      <use xlink:href="#ArialMT-74" x="209.431641"/>
      <use xlink:href="#ArialMT-20" x="237.214844"/>
      <use xlink:href="#ArialMT-6c" x="264.998047"/>
      <use xlink:href="#ArialMT-65" x="287.214844"/>
      <use xlink:href="#ArialMT-76" x="342.830078"/>
      <use xlink:href="#ArialMT-65" x="392.830078"/>
      <use xlink:href="#ArialMT-6c" x="448.445312"/>
     </g>
    </g>
   </g>
   <g id="matplotlib.axis_2">
    <g id="ytick_1">
     <g id="line2d_1">
      <path d="M 52.7955 305.199246 
L 377.111054 305.199246 
" clip-path="url(#p9753c8297b)" style="fill: none; stroke: #cccccc; stroke-width: 0.8; stroke-linecap: round"/>
     </g>
     <g id="text_5">
      <!-- −50 -->
      <g style="fill: #262626" transform="translate(28.833 308.778152) scale(0.1 -0.1)">
       <defs>
        <path id="ArialMT-2212" d="M 3381 1997 
L 356 1997 
L 356 2522 
L 3381 2522 
L 3381 1997 
z
" transform="scale(0.015625)"/>
        <path id="ArialMT-35" d="M 266 1200 
L 856 1250 
Q 922 819 1161 601 
Q 1400 384 1738 384 
Q 2144 384 2425 690 
Q 2706 997 2706 1503 
Q 2706 1984 2436 2262 
Q 2166 2541 1728 2541 
Q 1456 2541 1237 2417 
Q 1019 2294 894 2097 
L 366 2166 
L 809 4519 
L 3088 4519 
L 3088 3981 
L 1259 3981 
L 1013 2750 
Q 1425 3038 1878 3038 
Q 2478 3038 2890 2622 
Q 3303 2206 3303 1553 
Q 3303 931 2941 478 
Q 2500 -78 1738 -78 
Q 1113 -78 717 272 
Q 322 622 266 1200 
z
" transform="scale(0.015625)"/>
        <path id="ArialMT-30" d="M 266 2259 
Q 266 3072 433 3567 
Q 600 4063 929 4331 
Q 1259 4600 1759 4600 
Q 2128 4600 2406 4451 
Q 2684 4303 2865 4023 
Q 3047 3744 3150 3342 
Q 3253 2941 3253 2259 
Q 3253 1453 3087 958 
Q 2922 463 2592 192 
Q 2263 -78 1759 -78 
Q 1097 -78 719 397 
Q 266 969 266 2259 
z
M 844 2259 
Q 844 1131 1108 757 
Q 1372 384 1759 384 
Q 2147 384 2411 759 
Q 2675 1134 2675 2259 
Q 2675 3391 2411 3762 
Q 2147 4134 1753 4134 
Q 1366 4134 1134 3806 
Q 844 3388 844 2259 
z
" transform="scale(0.015625)"/>
       </defs>
       <use xlink:href="#ArialMT-2212"/>
       <use xlink:href="#ArialMT-35" x="58.398438"/>
       <use xlink:href="#ArialMT-30" x="114.013672"/>
      </g>
     </g>
    </g>
    <g id="ytick_2">
     <g id="line2d_2">
      <path d="M 52.7955 256.954968 
L 377.111054 256.954968 
" clip-path="url(#p9753c8297b)" style="fill: none; stroke: #cccccc; stroke-width: 0.8; stroke-linecap: round"/>
     </g>
     <g id="text_6">
      <!-- 0 -->
      <g style="fill: #262626" transform="translate(40.234562 260.533875) scale(0.1 -0.1)">
       <use xlink:href="#ArialMT-30"/>
      </g>
     </g>
    </g>
    <g id="ytick_3">
     <g id="line2d_3">
      <path d="M 52.7955 208.710691 
L 377.111054 208.710691 
" clip-path="url(#p9753c8297b)" style="fill: none; stroke: #cccccc; stroke-width: 0.8; stroke-linecap: round"/>
     </g>
     <g id="text_7">
      <!-- 50 -->
      <g style="fill: #262626" transform="translate(34.673625 212.289597) scale(0.1 -0.1)">
       <use xlink:href="#ArialMT-35"/>
       <use xlink:href="#ArialMT-30" x="55.615234"/>
      </g>
     </g>
    </g>
    <g id="ytick_4">
     <g id="line2d_4">
      <path d="M 52.7955 160.466414 
L 377.111054 160.466414 
" clip-path="url(#p9753c8297b)" style="fill: none; stroke: #cccccc; stroke-width: 0.8; stroke-linecap: round"/>
     </g>
     <g id="text_8">
      <!-- 100 -->
      <g style="fill: #262626" transform="translate(29.112687 164.04532) scale(0.1 -0.1)">
       <use xlink:href="#ArialMT-31"/>
       <use xlink:href="#ArialMT-30" x="55.615234"/>
       <use xlink:href="#ArialMT-30" x="111.230469"/>
      </g>
     </g>
    </g>
    <g id="ytick_5">
     <g id="line2d_5">
      <path d="M 52.7955 112.222137 
L 377.111054 112.222137 
" clip-path="url(#p9753c8297b)" style="fill: none; stroke: #cccccc; stroke-width: 0.8; stroke-linecap: round"/>
     </g>
     <g id="text_9">
      <!-- 150 -->
      <g style="fill: #262626" transform="translate(29.112687 115.801043) scale(0.1 -0.1)">
       <use xlink:href="#ArialMT-31"/>
       <use xlink:href="#ArialMT-35" x="55.615234"/>
       <use xlink:href="#ArialMT-30" x="111.230469"/>
      </g>
     </g>
    </g>
    <g id="ytick_6">
     <g id="line2d_6">
      <path d="M 52.7955 63.977859 
L 377.111054 63.977859 
" clip-path="url(#p9753c8297b)" style="fill: none; stroke: #cccccc; stroke-width: 0.8; stroke-linecap: round"/>
     </g>
     <g id="text_10">
      <!-- 200 -->
      <g style="fill: #262626" transform="translate(29.112687 67.556766) scale(0.1 -0.1)">
       <use xlink:href="#ArialMT-32"/>
       <use xlink:href="#ArialMT-30" x="55.615234"/>
       <use xlink:href="#ArialMT-30" x="111.230469"/>
      </g>
     </g>
    </g>
    <g id="text_11">
     <!-- Heart rate (beats/min) -->
     <g style="fill: #262626" transform="translate(22.728312 220.004219) rotate(-90) scale(0.1 -0.1)">
      <defs>
       <path id="ArialMT-48" d="M 513 0 
L 513 4581 
L 1119 4581 
L 1119 2700 
L 3500 2700 
L 3500 4581 
L 4106 4581 
L 4106 0 
L 3500 0 
L 3500 2159 
L 1119 2159 
L 1119 0 
L 513 0 
z
" transform="scale(0.015625)"/>
       <path id="ArialMT-61" d="M 2588 409 
Q 2275 144 1986 34 
Q 1697 -75 1366 -75 
Q 819 -75 525 192 
Q 231 459 231 875 
Q 231 1119 342 1320 
Q 453 1522 633 1644 
Q 813 1766 1038 1828 
Q 1203 1872 1538 1913 
Q 2219 1994 2541 2106 
Q 2544 2222 2544 2253 
Q 2544 2597 2384 2738 
Q 2169 2928 1744 2928 
Q 1347 2928 1158 2789 
Q 969 2650 878 2297 
L 328 2372 
Q 403 2725 575 2942 
Q 747 3159 1072 3276 
Q 1397 3394 1825 3394 
Q 2250 3394 2515 3294 
Q 2781 3194 2906 3042 
Q 3031 2891 3081 2659 
Q 3109 2516 3109 2141 
L 3109 1391 
Q 3109 606 3145 398 
Q 3181 191 3288 0 
L 2700 0 
Q 2613 175 2588 409 
z
M 2541 1666 
Q 2234 1541 1622 1453 
Q 1275 1403 1131 1340 
Q 988 1278 909 1158 
Q 831 1038 831 891 
Q 831 666 1001 516 
Q 1172 366 1500 366 
Q 1825 366 2078 508 
Q 2331 650 2450 897 
Q 2541 1088 2541 1459 
L 2541 1666 
z
" transform="scale(0.015625)"/>
       <path id="ArialMT-28" d="M 1497 -1347 
Q 1031 -759 709 28 
Q 388 816 388 1659 
Q 388 2403 628 3084 
Q 909 3875 1497 4659 
L 1900 4659 
Q 1522 4009 1400 3731 
Q 1209 3300 1100 2831 
Q 966 2247 966 1656 
Q 966 153 1900 -1347 
L 1497 -1347 
z
" transform="scale(0.015625)"/>
       <path id="ArialMT-62" d="M 941 0 
L 419 0 
L 419 4581 
L 981 4581 
L 981 2947 
Q 1338 3394 1891 3394 
Q 2197 3394 2470 3270 
Q 2744 3147 2920 2923 
Q 3097 2700 3197 2384 
Q 3297 2069 3297 1709 
Q 3297 856 2875 390 
Q 2453 -75 1863 -75 
Q 1275 -75 941 416 
L 941 0 
z
M 934 1684 
Q 934 1088 1097 822 
Q 1363 388 1816 388 
Q 2184 388 2453 708 
Q 2722 1028 2722 1663 
Q 2722 2313 2464 2622 
Q 2206 2931 1841 2931 
Q 1472 2931 1203 2611 
Q 934 2291 934 1684 
z
" transform="scale(0.015625)"/>
       <path id="ArialMT-73" d="M 197 991 
L 753 1078 
Q 800 744 1014 566 
Q 1228 388 1613 388 
Q 2000 388 2187 545 
Q 2375 703 2375 916 
Q 2375 1106 2209 1216 
Q 2094 1291 1634 1406 
Q 1016 1563 777 1677 
Q 538 1791 414 1992 
Q 291 2194 291 2438 
Q 291 2659 392 2848 
Q 494 3038 669 3163 
Q 800 3259 1026 3326 
Q 1253 3394 1513 3394 
Q 1903 3394 2198 3281 
Q 2494 3169 2634 2976 
Q 2775 2784 2828 2463 
L 2278 2388 
Q 2241 2644 2061 2787 
Q 1881 2931 1553 2931 
Q 1166 2931 1000 2803 
Q 834 2675 834 2503 
Q 834 2394 903 2306 
Q 972 2216 1119 2156 
Q 1203 2125 1616 2013 
Q 2213 1853 2448 1751 
Q 2684 1650 2818 1456 
Q 2953 1263 2953 975 
Q 2953 694 2789 445 
Q 2625 197 2315 61 
Q 2006 -75 1616 -75 
Q 969 -75 630 194 
Q 291 463 197 991 
z
" transform="scale(0.015625)"/>
       <path id="ArialMT-2f" d="M 0 -78 
L 1328 4659 
L 1778 4659 
L 453 -78 
L 0 -78 
z
" transform="scale(0.015625)"/>
       <path id="ArialMT-6d" d="M 422 0 
L 422 3319 
L 925 3319 
L 925 2853 
Q 1081 3097 1340 3245 
Q 1600 3394 1931 3394 
Q 2300 3394 2536 3241 
Q 2772 3088 2869 2813 
Q 3263 3394 3894 3394 
Q 4388 3394 4653 3120 
Q 4919 2847 4919 2278 
L 4919 0 
L 4359 0 
L 4359 2091 
Q 4359 2428 4304 2576 
Q 4250 2725 4106 2815 
Q 3963 2906 3769 2906 
Q 3419 2906 3187 2673 
Q 2956 2441 2956 1928 
L 2956 0 
L 2394 0 
L 2394 2156 
Q 2394 2531 2256 2718 
Q 2119 2906 1806 2906 
Q 1569 2906 1367 2781 
Q 1166 2656 1075 2415 
Q 984 2175 984 1722 
L 984 0 
L 422 0 
z
" transform="scale(0.015625)"/>
       <path id="ArialMT-69" d="M 425 3934 
L 425 4581 
L 988 4581 
L 988 3934 
L 425 3934 
z
M 425 0 
L 425 3319 
L 988 3319 
L 988 0 
L 425 0 
z
" transform="scale(0.015625)"/>
       <path id="ArialMT-6e" d="M 422 0 
L 422 3319 
L 928 3319 
L 928 2847 
Q 1294 3394 1984 3394 
Q 2284 3394 2536 3286 
Q 2788 3178 2913 3003 
Q 3038 2828 3088 2588 
Q 3119 2431 3119 2041 
L 3119 0 
L 2556 0 
L 2556 2019 
Q 2556 2363 2490 2533 
Q 2425 2703 2258 2804 
Q 2091 2906 1866 2906 
Q 1506 2906 1245 2678 
Q 984 2450 984 1813 
L 984 0 
L 422 0 
z
" transform="scale(0.015625)"/>
       <path id="ArialMT-29" d="M 791 -1347 
L 388 -1347 
Q 1322 153 1322 1656 
Q 1322 2244 1188 2822 
Q 1081 3291 891 3722 
Q 769 4003 388 4659 
L 791 4659 
Q 1378 3875 1659 3084 
Q 1900 2403 1900 1659 
Q 1900 816 1576 28 
Q 1253 -759 791 -1347 
z
" transform="scale(0.015625)"/>
      </defs>
      <use xlink:href="#ArialMT-48"/>
      <use xlink:href="#ArialMT-65" x="72.216797"/>
      <use xlink:href="#ArialMT-61" x="127.832031"/>
      <use xlink:href="#ArialMT-72" x="183.447266"/>
      <use xlink:href="#ArialMT-74" x="216.748047"/>
      <use xlink:href="#ArialMT-20" x="244.53125"/>
      <use xlink:href="#ArialMT-72" x="272.314453"/>
      <use xlink:href="#ArialMT-61" x="305.615234"/>
      <use xlink:href="#ArialMT-74" x="361.230469"/>
      <use xlink:href="#ArialMT-65" x="389.013672"/>
      <use xlink:href="#ArialMT-20" x="444.628906"/>
      <use xlink:href="#ArialMT-28" x="472.412109"/>
      <use xlink:href="#ArialMT-62" x="505.712891"/>
      <use xlink:href="#ArialMT-65" x="561.328125"/>
      <use xlink:href="#ArialMT-61" x="616.943359"/>
      <use xlink:href="#ArialMT-74" x="672.558594"/>
      <use xlink:href="#ArialMT-73" x="700.341797"/>
      <use xlink:href="#ArialMT-2f" x="750.341797"/>
      <use xlink:href="#ArialMT-6d" x="778.125"/>
      <use xlink:href="#ArialMT-69" x="861.425781"/>
      <use xlink:href="#ArialMT-6e" x="883.642578"/>
      <use xlink:href="#ArialMT-29" x="939.257812"/>
     </g>
    </g>
   </g>
   <g id="PolyCollection_1">
    <defs>
     <path id="m04de0c7018" d="M 86.213099 -197.195894 
L 84.241012 -197.195894 
L 84.029353 -198.036308 
L 83.78293 -198.876722 
L 83.498478 -199.717136 
L 83.172932 -200.55755 
L 82.803532 -201.397964 
L 82.387951 -202.238378 
L 81.924405 -203.078792 
L 81.41177 -203.919206 
L 80.849682 -204.759621 
L 80.238623 -205.600035 
L 79.579984 -206.440449 
L 78.876096 -207.280863 
L 78.130244 -208.121277 
L 77.346633 -208.961691 
L 76.530335 -209.802105 
L 75.687203 -210.642519 
L 74.823752 -211.482933 
L 73.94703 -212.323347 
L 73.064469 -213.163761 
L 72.183727 -214.004175 
L 71.312534 -214.844589 
L 70.458547 -215.685003 
L 69.629213 -216.525417 
L 68.831655 -217.365831 
L 68.072578 -218.206245 
L 67.358192 -219.046659 
L 66.694159 -219.887073 
L 66.085554 -220.727487 
L 65.536836 -221.567901 
L 65.051827 -222.408315 
L 64.633687 -223.248729 
L 64.284888 -224.089143 
L 64.007175 -224.929557 
L 63.801517 -225.769971 
L 63.668052 -226.610385 
L 63.606018 -227.450799 
L 63.613693 -228.291213 
L 63.688328 -229.131627 
L 63.826107 -229.972041 
L 64.022124 -230.812455 
L 64.270395 -231.652869 
L 64.563913 -232.493283 
L 64.894741 -233.333698 
L 65.254163 -234.174112 
L 65.632876 -235.014526 
L 66.021221 -235.85494 
L 66.40946 -236.695354 
L 66.788069 -237.535768 
L 67.148044 -238.376182 
L 67.481206 -239.216596 
L 67.780491 -240.05701 
L 68.040205 -240.897424 
L 68.256237 -241.737838 
L 68.426221 -242.578252 
L 68.54963 -243.418666 
L 68.627812 -244.25908 
L 68.663946 -245.099494 
L 68.662949 -245.939908 
L 68.631302 -246.780322 
L 68.576836 -247.620736 
L 68.508468 -248.46115 
L 68.435895 -249.301564 
L 68.369276 -250.141978 
L 68.318892 -250.982392 
L 68.29481 -251.822806 
L 68.306556 -252.66322 
L 68.362815 -253.503634 
L 68.471149 -254.344048 
L 68.637773 -255.184462 
L 68.867362 -256.024876 
L 69.162922 -256.86529 
L 69.525708 -257.705704 
L 69.955208 -258.546118 
L 70.449181 -259.386532 
L 71.00375 -260.226946 
L 71.613551 -261.06736 
L 72.271922 -261.907775 
L 72.971136 -262.748189 
L 73.702654 -263.588603 
L 74.457402 -264.429017 
L 75.226051 -265.269431 
L 75.999296 -266.109845 
L 76.768115 -266.950259 
L 77.524005 -267.790673 
L 78.259191 -268.631087 
L 78.96679 -269.471501 
L 79.640931 -270.311915 
L 80.276839 -271.152329 
L 80.870868 -271.992743 
L 81.420495 -272.833157 
L 81.924278 -273.673571 
L 82.381776 -274.513985 
L 82.793455 -275.354399 
L 83.160565 -276.194813 
L 83.485007 -277.035227 
L 83.769205 -277.875641 
L 84.015966 -278.716055 
L 84.228354 -279.556469 
L 84.409573 -280.396883 
L 86.044538 -280.396883 
L 86.044538 -280.396883 
L 86.225757 -279.556469 
L 86.438145 -278.716055 
L 86.684905 -277.875641 
L 86.969104 -277.035227 
L 87.293546 -276.194813 
L 87.660656 -275.354399 
L 88.072335 -274.513985 
L 88.529833 -273.673571 
L 89.033616 -272.833157 
L 89.583243 -271.992743 
L 90.177272 -271.152329 
L 90.81318 -270.311915 
L 91.487321 -269.471501 
L 92.194919 -268.631087 
L 92.930106 -267.790673 
L 93.685996 -266.950259 
L 94.454815 -266.109845 
L 95.228059 -265.269431 
L 95.996709 -264.429017 
L 96.751457 -263.588603 
L 97.482975 -262.748189 
L 98.182188 -261.907775 
L 98.84056 -261.06736 
L 99.450361 -260.226946 
L 100.00493 -259.386532 
L 100.498902 -258.546118 
L 100.928403 -257.705704 
L 101.291189 -256.86529 
L 101.586749 -256.024876 
L 101.816338 -255.184462 
L 101.982962 -254.344048 
L 102.091296 -253.503634 
L 102.147554 -252.66322 
L 102.159301 -251.822806 
L 102.135219 -250.982392 
L 102.084835 -250.141978 
L 102.018216 -249.301564 
L 101.945643 -248.46115 
L 101.877274 -247.620736 
L 101.822809 -246.780322 
L 101.791162 -245.939908 
L 101.790165 -245.099494 
L 101.826299 -244.25908 
L 101.90448 -243.418666 
L 102.02789 -242.578252 
L 102.197873 -241.737838 
L 102.413906 -240.897424 
L 102.67362 -240.05701 
L 102.972905 -239.216596 
L 103.306067 -238.376182 
L 103.666042 -237.535768 
L 104.044651 -236.695354 
L 104.43289 -235.85494 
L 104.821235 -235.014526 
L 105.199947 -234.174112 
L 105.55937 -233.333698 
L 105.890198 -232.493283 
L 106.183716 -231.652869 
L 106.431987 -230.812455 
L 106.628004 -229.972041 
L 106.765782 -229.131627 
L 106.840417 -228.291213 
L 106.848092 -227.450799 
L 106.786059 -226.610385 
L 106.652594 -225.769971 
L 106.446936 -224.929557 
L 106.169223 -224.089143 
L 105.820424 -223.248729 
L 105.402284 -222.408315 
L 104.917275 -221.567901 
L 104.368557 -220.727487 
L 103.759952 -219.887073 
L 103.095919 -219.046659 
L 102.381533 -218.206245 
L 101.622456 -217.365831 
L 100.824898 -216.525417 
L 99.995564 -215.685003 
L 99.141577 -214.844589 
L 98.270384 -214.004175 
L 97.389641 -213.163761 
L 96.50708 -212.323347 
L 95.630359 -211.482933 
L 94.766908 -210.642519 
L 93.923776 -209.802105 
L 93.107478 -208.961691 
L 92.323867 -208.121277 
L 91.578015 -207.280863 
L 90.874127 -206.440449 
L 90.215488 -205.600035 
L 89.604429 -204.759621 
L 89.042341 -203.919206 
L 88.529706 -203.078792 
L 88.06616 -202.238378 
L 87.650578 -201.397964 
L 87.281179 -200.55755 
L 86.955632 -199.717136 
L 86.671181 -198.876722 
L 86.424758 -198.036308 
L 86.213099 -197.195894 
z
" style="stroke: #3f3f3f; stroke-width: 1.25"/>
    </defs>
    <g clip-path="url(#p9753c8297b)">
     <use xlink:href="#m04de0c7018" x="0" y="360" style="fill: #3274a1; stroke: #3f3f3f; stroke-width: 1.25"/>
    </g>
   </g>
   <g id="PolyCollection_2">
    <defs>
     <path id="m3efbb7cd48" d="M 129.401601 -190.042395 
L 127.536657 -190.042395 
L 127.316648 -190.963421 
L 127.058774 -191.884448 
L 126.760092 -192.805475 
L 126.418249 -193.726501 
L 126.031666 -194.647528 
L 125.599706 -195.568554 
L 125.122809 -196.489581 
L 124.602581 -197.410607 
L 124.041832 -198.331634 
L 123.444537 -199.25266 
L 122.81573 -200.173687 
L 122.16132 -201.094714 
L 121.487847 -202.01574 
L 120.802175 -202.936767 
L 120.11116 -203.857793 
L 119.421311 -204.77882 
L 118.738459 -205.699846 
L 118.067488 -206.620873 
L 117.412123 -207.541899 
L 116.774825 -208.462926 
L 116.156773 -209.383953 
L 115.557969 -210.304979 
L 114.977431 -211.226006 
L 114.413467 -212.147032 
L 113.864007 -213.068059 
L 113.32695 -213.989085 
L 112.800505 -214.910112 
L 112.283478 -215.831138 
L 111.775487 -216.752165 
L 111.277087 -217.673192 
L 110.789779 -218.594218 
L 110.31594 -219.515245 
L 109.858646 -220.436271 
L 109.421456 -221.357298 
L 109.00815 -222.278324 
L 108.622485 -223.199351 
L 108.267974 -224.120378 
L 107.947745 -225.041404 
L 107.664459 -225.962431 
L 107.420327 -226.883457 
L 107.2172 -227.804484 
L 107.056715 -228.72551 
L 106.940479 -229.646537 
L 106.870251 -230.567563 
L 106.848092 -231.48859 
L 106.87646 -232.409617 
L 106.95821 -233.330643 
L 107.096512 -234.25167 
L 107.29467 -235.172696 
L 107.555851 -236.093723 
L 107.882767 -237.014749 
L 108.277317 -237.935776 
L 108.740245 -238.856802 
L 109.270831 -239.777829 
L 109.86666 -240.698856 
L 110.523497 -241.619882 
L 111.235265 -242.540909 
L 111.994158 -243.461935 
L 112.790858 -244.382962 
L 113.614867 -245.303988 
L 114.454903 -246.225015 
L 115.299351 -247.146042 
L 116.136743 -248.067068 
L 116.956208 -248.988095 
L 117.747893 -249.909121 
L 118.503324 -250.830148 
L 119.215673 -251.751174 
L 119.879941 -252.672201 
L 120.493042 -253.593227 
L 121.053788 -254.514254 
L 121.562783 -255.435281 
L 122.022244 -256.356307 
L 122.435746 -257.277334 
L 122.807933 -258.19836 
L 123.144192 -259.119387 
L 123.450318 -260.040413 
L 123.732187 -260.96144 
L 123.995456 -261.882466 
L 124.2453 -262.803493 
L 124.4862 -263.72452 
L 124.721791 -264.645546 
L 124.95477 -265.566573 
L 125.18687 -266.487599 
L 125.418889 -267.408626 
L 125.650775 -268.329652 
L 125.88175 -269.250679 
L 126.110462 -270.171705 
L 126.335156 -271.092732 
L 126.553852 -272.013759 
L 126.764507 -272.934785 
L 126.965168 -273.855812 
L 127.154096 -274.776838 
L 127.329859 -275.697865 
L 127.491394 -276.618891 
L 127.638039 -277.539918 
L 127.769535 -278.460945 
L 127.886 -279.381971 
L 127.98789 -280.302998 
L 128.075943 -281.224024 
L 128.862316 -281.224024 
L 128.862316 -281.224024 
L 128.950368 -280.302998 
L 129.052259 -279.381971 
L 129.168723 -278.460945 
L 129.300219 -277.539918 
L 129.446865 -276.618891 
L 129.6084 -275.697865 
L 129.784162 -274.776838 
L 129.97309 -273.855812 
L 130.173752 -272.934785 
L 130.384407 -272.013759 
L 130.603102 -271.092732 
L 130.827797 -270.171705 
L 131.056509 -269.250679 
L 131.287484 -268.329652 
L 131.51937 -267.408626 
L 131.751389 -266.487599 
L 131.983488 -265.566573 
L 132.216467 -264.645546 
L 132.452058 -263.72452 
L 132.692958 -262.803493 
L 132.942802 -261.882466 
L 133.206072 -260.96144 
L 133.487941 -260.040413 
L 133.794067 -259.119387 
L 134.130326 -258.19836 
L 134.502513 -257.277334 
L 134.916015 -256.356307 
L 135.375475 -255.435281 
L 135.884471 -254.514254 
L 136.445217 -253.593227 
L 137.058318 -252.672201 
L 137.722586 -251.751174 
L 138.434935 -250.830148 
L 139.190365 -249.909121 
L 139.982051 -248.988095 
L 140.801515 -248.067068 
L 141.638907 -247.146042 
L 142.483356 -246.225015 
L 143.323391 -245.303988 
L 144.1474 -244.382962 
L 144.944101 -243.461935 
L 145.702993 -242.540909 
L 146.414762 -241.619882 
L 147.071598 -240.698856 
L 147.667428 -239.777829 
L 148.198013 -238.856802 
L 148.660941 -237.935776 
L 149.055492 -237.014749 
L 149.382407 -236.093723 
L 149.643589 -235.172696 
L 149.841746 -234.25167 
L 149.980049 -233.330643 
L 150.061799 -232.409617 
L 150.090166 -231.48859 
L 150.068008 -230.567563 
L 149.997779 -229.646537 
L 149.881543 -228.72551 
L 149.721059 -227.804484 
L 149.517932 -226.883457 
L 149.2738 -225.962431 
L 148.990514 -225.041404 
L 148.670284 -224.120378 
L 148.315774 -223.199351 
L 147.930108 -222.278324 
L 147.516803 -221.357298 
L 147.079612 -220.436271 
L 146.622319 -219.515245 
L 146.148479 -218.594218 
L 145.661172 -217.673192 
L 145.162771 -216.752165 
L 144.654781 -215.831138 
L 144.137754 -214.910112 
L 143.611309 -213.989085 
L 143.074252 -213.068059 
L 142.524791 -212.147032 
L 141.960827 -211.226006 
L 141.380289 -210.304979 
L 140.781486 -209.383953 
L 140.163434 -208.462926 
L 139.526135 -207.541899 
L 138.870771 -206.620873 
L 138.1998 -205.699846 
L 137.516948 -204.77882 
L 136.827098 -203.857793 
L 136.136084 -202.936767 
L 135.450411 -202.01574 
L 134.776938 -201.094714 
L 134.122529 -200.173687 
L 133.493722 -199.25266 
L 132.896427 -198.331634 
L 132.335678 -197.410607 
L 131.81545 -196.489581 
L 131.338552 -195.568554 
L 130.906592 -194.647528 
L 130.52001 -193.726501 
L 130.178167 -192.805475 
L 129.879484 -191.884448 
L 129.621611 -190.963421 
L 129.401601 -190.042395 
z
" style="stroke: #3f3f3f; stroke-width: 1.25"/>
    </defs>
    <g clip-path="url(#p9753c8297b)">
     <use xlink:href="#m3efbb7cd48" x="0" y="360" style="fill: #e1812c; stroke: #3f3f3f; stroke-width: 1.25"/>
    </g>
   </g>
   <g id="PolyCollection_3">
    <defs>
     <path id="m95b3023fac" d="M 194.175387 -197.34222 
L 192.489093 -197.34222 
L 192.300292 -198.307295 
L 192.078493 -199.27237 
L 191.820105 -200.237445 
L 191.521597 -201.20252 
L 191.179603 -202.167595 
L 190.791028 -203.13267 
L 190.353174 -204.097745 
L 189.863854 -205.06282 
L 189.32152 -206.027895 
L 188.725373 -206.99297 
L 188.075474 -207.958045 
L 187.372835 -208.92312 
L 186.619495 -209.888195 
L 185.818576 -210.85327 
L 184.974318 -211.818345 
L 184.09208 -212.78342 
L 183.178326 -213.748495 
L 182.240577 -214.71357 
L 181.287336 -215.678645 
L 180.327984 -216.64372 
L 179.372656 -217.608795 
L 178.432079 -218.57387 
L 177.517398 -219.538945 
L 176.639962 -220.50402 
L 175.811105 -221.469095 
L 175.041896 -222.43417 
L 174.34288 -223.399245 
L 173.723806 -224.36432 
L 173.193362 -225.329395 
L 172.758899 -226.29447 
L 172.42619 -227.259545 
L 172.199199 -228.22462 
L 172.079897 -229.189695 
L 172.068119 -230.15477 
L 172.161481 -231.119845 
L 172.355366 -232.08492 
L 172.642973 -233.049995 
L 173.015449 -234.01507 
L 173.462086 -234.980145 
L 173.970597 -235.94522 
L 174.527443 -236.910295 
L 175.118219 -237.87537 
L 175.728067 -238.840445 
L 176.342122 -239.80552 
L 176.945948 -240.770595 
L 177.525969 -241.73567 
L 178.069866 -242.700745 
L 178.566933 -243.66582 
L 179.008366 -244.630896 
L 179.387498 -245.595971 
L 179.69995 -246.561046 
L 179.943705 -247.526121 
L 180.119111 -248.491196 
L 180.228799 -249.456271 
L 180.277536 -250.421346 
L 180.272016 -251.386421 
L 180.22059 -252.351496 
L 180.13296 -253.316571 
L 180.019834 -254.281646 
L 179.892564 -255.246721 
L 179.762772 -256.211796 
L 179.641982 -257.176871 
L 179.54127 -258.141946 
L 179.470927 -259.107021 
L 179.440175 -260.072096 
L 179.456916 -261.037171 
L 179.527531 -262.002246 
L 179.656743 -262.967321 
L 179.847532 -263.932396 
L 180.10111 -264.897471 
L 180.416959 -265.862546 
L 180.792916 -266.827621 
L 181.225312 -267.792696 
L 181.709153 -268.757771 
L 182.238326 -269.722846 
L 182.80584 -270.687921 
L 183.404069 -271.652996 
L 184.025008 -272.618071 
L 184.660517 -273.583146 
L 185.302555 -274.548221 
L 185.943389 -275.513296 
L 186.575779 -276.478371 
L 187.19313 -277.443446 
L 187.789611 -278.408521 
L 188.360237 -279.373596 
L 188.900921 -280.338671 
L 189.408489 -281.303746 
L 189.880665 -282.268821 
L 190.316035 -283.233896 
L 190.713988 -284.198971 
L 191.074631 -285.164046 
L 191.398709 -286.129121 
L 191.687501 -287.094196 
L 191.942721 -288.059271 
L 192.166421 -289.024346 
L 192.360894 -289.989421 
L 192.528584 -290.954496 
L 192.672008 -291.919571 
L 192.793684 -292.884646 
L 193.870796 -292.884646 
L 193.870796 -292.884646 
L 193.992472 -291.919571 
L 194.135896 -290.954496 
L 194.303586 -289.989421 
L 194.498059 -289.024346 
L 194.72176 -288.059271 
L 194.97698 -287.094196 
L 195.265771 -286.129121 
L 195.589849 -285.164046 
L 195.950493 -284.198971 
L 196.348445 -283.233896 
L 196.783816 -282.268821 
L 197.255992 -281.303746 
L 197.763559 -280.338671 
L 198.304243 -279.373596 
L 198.87487 -278.408521 
L 199.47135 -277.443446 
L 200.088701 -276.478371 
L 200.721091 -275.513296 
L 201.361925 -274.548221 
L 202.003963 -273.583146 
L 202.639472 -272.618071 
L 203.260411 -271.652996 
L 203.85864 -270.687921 
L 204.426154 -269.722846 
L 204.955327 -268.757771 
L 205.439168 -267.792696 
L 205.871565 -266.827621 
L 206.247522 -265.862546 
L 206.56337 -264.897471 
L 206.816949 -263.932396 
L 207.007737 -262.967321 
L 207.136949 -262.002246 
L 207.207565 -261.037171 
L 207.224305 -260.072096 
L 207.193554 -259.107021 
L 207.123211 -258.141946 
L 207.022498 -257.176871 
L 206.901709 -256.211796 
L 206.771916 -255.246721 
L 206.644646 -254.281646 
L 206.53152 -253.316571 
L 206.44389 -252.351496 
L 206.392464 -251.386421 
L 206.386944 -250.421346 
L 206.435681 -249.456271 
L 206.545369 -248.491196 
L 206.720775 -247.526121 
L 206.964531 -246.561046 
L 207.276982 -245.595971 
L 207.656115 -244.630896 
L 208.097548 -243.66582 
L 208.594614 -242.700745 
L 209.138511 -241.73567 
L 209.718532 -240.770595 
L 210.322358 -239.80552 
L 210.936413 -238.840445 
L 211.546262 -237.87537 
L 212.137037 -236.910295 
L 212.693883 -235.94522 
L 213.202394 -234.980145 
L 213.649031 -234.01507 
L 214.021507 -233.049995 
L 214.309114 -232.08492 
L 214.502999 -231.119845 
L 214.596362 -230.15477 
L 214.584583 -229.189695 
L 214.465281 -228.22462 
L 214.23829 -227.259545 
L 213.905581 -226.29447 
L 213.471119 -225.329395 
L 212.940674 -224.36432 
L 212.321601 -223.399245 
L 211.622584 -222.43417 
L 210.853375 -221.469095 
L 210.024518 -220.50402 
L 209.147082 -219.538945 
L 208.232401 -218.57387 
L 207.291825 -217.608795 
L 206.336496 -216.64372 
L 205.377145 -215.678645 
L 204.423903 -214.71357 
L 203.486154 -213.748495 
L 202.572401 -212.78342 
L 201.690163 -211.818345 
L 200.845904 -210.85327 
L 200.044986 -209.888195 
L 199.291646 -208.92312 
L 198.589006 -207.958045 
L 197.939107 -206.99297 
L 197.34296 -206.027895 
L 196.800626 -205.06282 
L 196.311306 -204.097745 
L 195.873452 -203.13267 
L 195.484878 -202.167595 
L 195.142883 -201.20252 
L 194.844376 -200.237445 
L 194.585987 -199.27237 
L 194.364188 -198.307295 
L 194.175387 -197.34222 
z
" style="stroke: #3f3f3f; stroke-width: 1.25"/>
    </defs>
    <g clip-path="url(#p9753c8297b)">
     <use xlink:href="#m95b3023fac" x="0" y="360" style="fill: #3274a1; stroke: #3f3f3f; stroke-width: 1.25"/>
    </g>
   </g>
   <g id="PolyCollection_4">
    <defs>
     <path id="m523fccf887" d="M 236.844581 -156.893683 
L 236.304047 -156.893683 
L 236.240586 -158.291518 
L 236.166897 -159.689352 
L 236.082553 -161.087186 
L 235.987415 -162.485021 
L 235.881689 -163.882855 
L 235.765964 -165.28069 
L 235.641246 -166.678524 
L 235.508949 -168.076359 
L 235.370873 -169.474193 
L 235.229144 -170.872027 
L 235.086122 -172.269862 
L 234.944288 -173.667696 
L 234.806109 -175.065531 
L 234.673882 -176.463365 
L 234.549588 -177.861199 
L 234.434746 -179.259034 
L 234.330291 -180.656868 
L 234.236486 -182.054703 
L 234.152866 -183.452537 
L 234.078227 -184.850371 
L 234.010663 -186.248206 
L 233.947627 -187.64604 
L 233.886039 -189.043875 
L 233.822401 -190.441709 
L 233.752924 -191.839543 
L 233.673646 -193.237378 
L 233.580535 -194.635212 
L 233.469567 -196.033047 
L 233.336775 -197.430881 
L 233.17827 -198.828716 
L 232.990243 -200.22655 
L 232.768955 -201.624384 
L 232.510737 -203.022219 
L 232.212 -204.420053 
L 231.869292 -205.817888 
L 231.47939 -207.215722 
L 231.039454 -208.613556 
L 230.547233 -210.011391 
L 230.001319 -211.409225 
L 229.401439 -212.80706 
L 228.748756 -214.204894 
L 228.046163 -215.602728 
L 227.298535 -217.000563 
L 226.512903 -218.398397 
L 225.698535 -219.796232 
L 224.866882 -221.194066 
L 224.031396 -222.5919 
L 223.20719 -223.989735 
L 222.410562 -225.387569 
L 221.658397 -226.785404 
L 220.967473 -228.183238 
L 220.353709 -229.581073 
L 219.831412 -230.978907 
L 219.412557 -232.376741 
L 219.106171 -233.774576 
L 218.917844 -235.17241 
L 218.849431 -236.570245 
L 218.89895 -237.968079 
L 219.060699 -239.365913 
L 219.32559 -240.763748 
L 219.68167 -242.161582 
L 220.114811 -243.559417 
L 220.609499 -244.957251 
L 221.149698 -246.355085 
L 221.719695 -247.75292 
L 222.304902 -249.150754 
L 222.892531 -250.548589 
L 223.472126 -251.946423 
L 224.035902 -253.344257 
L 224.578882 -254.742092 
L 225.098844 -256.139926 
L 225.596068 -257.537761 
L 226.072942 -258.935595 
L 226.533444 -260.33343 
L 226.982558 -261.731264 
L 227.425669 -263.129098 
L 227.867983 -264.526933 
L 228.31402 -265.924767 
L 228.767208 -267.322602 
L 229.229597 -268.720436 
L 229.701719 -270.11827 
L 230.182576 -271.516105 
L 230.669749 -272.913939 
L 231.159623 -274.311774 
L 231.647669 -275.709608 
L 232.128792 -277.107442 
L 232.597674 -278.505277 
L 233.04912 -279.903111 
L 233.478357 -281.300946 
L 233.881276 -282.69878 
L 234.254615 -284.096614 
L 234.596058 -285.494449 
L 234.904275 -286.892283 
L 235.178893 -288.290118 
L 235.420414 -289.687952 
L 235.630095 -291.085787 
L 235.809806 -292.483621 
L 235.961874 -293.881455 
L 236.088925 -295.27929 
L 237.059703 -295.27929 
L 237.059703 -295.27929 
L 237.186754 -293.881455 
L 237.338822 -292.483621 
L 237.518534 -291.085787 
L 237.728214 -289.687952 
L 237.969735 -288.290118 
L 238.244353 -286.892283 
L 238.55257 -285.494449 
L 238.894013 -284.096614 
L 239.267352 -282.69878 
L 239.670271 -281.300946 
L 240.099508 -279.903111 
L 240.550954 -278.505277 
L 241.019836 -277.107442 
L 241.500959 -275.709608 
L 241.989005 -274.311774 
L 242.478879 -272.913939 
L 242.966052 -271.516105 
L 243.446909 -270.11827 
L 243.919031 -268.720436 
L 244.38142 -267.322602 
L 244.834608 -265.924767 
L 245.280646 -264.526933 
L 245.72296 -263.129098 
L 246.16607 -261.731264 
L 246.615184 -260.33343 
L 247.075687 -258.935595 
L 247.552561 -257.537761 
L 248.049784 -256.139926 
L 248.569746 -254.742092 
L 249.112727 -253.344257 
L 249.676502 -251.946423 
L 250.256097 -250.548589 
L 250.843726 -249.150754 
L 251.428933 -247.75292 
L 251.99893 -246.355085 
L 252.539129 -244.957251 
L 253.033818 -243.559417 
L 253.466958 -242.161582 
L 253.823038 -240.763748 
L 254.087929 -239.365913 
L 254.249678 -237.968079 
L 254.299197 -236.570245 
L 254.230784 -235.17241 
L 254.042457 -233.774576 
L 253.736071 -232.376741 
L 253.317216 -230.978907 
L 252.794919 -229.581073 
L 252.181155 -228.183238 
L 251.490231 -226.785404 
L 250.738067 -225.387569 
L 249.941438 -223.989735 
L 249.117232 -222.5919 
L 248.281746 -221.194066 
L 247.450093 -219.796232 
L 246.635725 -218.398397 
L 245.850093 -217.000563 
L 245.102465 -215.602728 
L 244.399873 -214.204894 
L 243.747189 -212.80706 
L 243.147309 -211.409225 
L 242.601395 -210.011391 
L 242.109174 -208.613556 
L 241.669238 -207.215722 
L 241.279336 -205.817888 
L 240.936628 -204.420053 
L 240.637892 -203.022219 
L 240.379673 -201.624384 
L 240.158385 -200.22655 
L 239.970358 -198.828716 
L 239.811853 -197.430881 
L 239.679061 -196.033047 
L 239.568093 -194.635212 
L 239.474982 -193.237378 
L 239.395704 -191.839543 
L 239.326227 -190.441709 
L 239.262589 -189.043875 
L 239.201002 -187.64604 
L 239.137966 -186.248206 
L 239.070401 -184.850371 
L 238.995762 -183.452537 
L 238.912142 -182.054703 
L 238.818337 -180.656868 
L 238.713882 -179.259034 
L 238.59904 -177.861199 
L 238.474746 -176.463365 
L 238.342519 -175.065531 
L 238.20434 -173.667696 
L 238.062507 -172.269862 
L 237.919484 -170.872027 
L 237.777755 -169.474193 
L 237.639679 -168.076359 
L 237.507382 -166.678524 
L 237.382664 -165.28069 
L 237.266939 -163.882855 
L 237.161213 -162.485021 
L 237.066075 -161.087186 
L 236.981732 -159.689352 
L 236.908042 -158.291518 
L 236.844581 -156.893683 
z
" style="stroke: #3f3f3f; stroke-width: 1.25"/>
    </defs>
    <g clip-path="url(#p9753c8297b)">
     <use xlink:href="#m523fccf887" x="0" y="360" style="fill: #e1812c; stroke: #3f3f3f; stroke-width: 1.25"/>
    </g>
   </g>
   <g id="PolyCollection_5">
    <defs>
     <path id="m98c08800ef" d="M 301.597755 -55.292727 
L 301.277094 -55.292727 
L 301.237789 -57.986208 
L 301.191991 -60.679688 
L 301.139503 -63.373168 
L 301.080362 -66.066648 
L 301.014893 -68.760129 
L 300.943743 -71.453609 
L 300.867906 -74.147089 
L 300.788727 -76.840569 
L 300.707884 -79.53405 
L 300.627342 -82.22753 
L 300.549282 -84.92101 
L 300.476013 -87.61449 
L 300.40986 -90.307971 
L 300.353043 -93.001451 
L 300.307554 -95.694931 
L 300.275042 -98.388411 
L 300.256714 -101.081892 
L 300.253257 -103.775372 
L 300.2648 -106.468852 
L 300.290898 -109.162332 
L 300.330565 -111.855813 
L 300.382329 -114.549293 
L 300.444319 -117.242773 
L 300.514375 -119.936253 
L 300.590155 -122.629734 
L 300.669262 -125.323214 
L 300.749344 -128.016694 
L 300.828184 -130.710174 
L 300.903769 -133.403655 
L 300.97432 -136.097135 
L 301.038308 -138.790615 
L 301.09442 -141.484096 
L 301.141519 -144.177576 
L 301.178569 -146.871056 
L 301.204544 -149.564536 
L 301.218336 -152.258017 
L 301.218652 -154.951497 
L 301.203919 -157.644977 
L 301.172201 -160.338457 
L 301.121141 -163.031938 
L 301.047921 -165.725418 
L 300.949268 -168.418898 
L 300.821491 -171.112378 
L 300.660568 -173.805859 
L 300.46228 -176.499339 
L 300.222398 -179.192819 
L 299.936906 -181.886299 
L 299.602272 -184.57978 
L 299.215741 -187.27326 
L 298.775643 -189.96674 
L 298.281686 -192.66022 
L 297.735226 -195.353701 
L 297.13948 -198.047181 
L 296.499648 -200.740661 
L 295.822958 -203.434141 
L 295.11857 -206.127622 
L 294.39738 -208.821102 
L 293.671688 -211.514582 
L 292.954772 -214.208062 
L 292.260366 -216.901543 
L 291.602098 -219.595023 
L 290.992916 -222.288503 
L 290.444538 -224.981983 
L 289.966988 -227.675464 
L 289.568229 -230.368944 
L 289.253942 -233.062424 
L 289.027447 -235.755904 
L 288.889772 -238.449385 
L 288.839855 -241.142865 
L 288.874848 -243.836345 
L 288.990488 -246.529826 
L 289.181487 -249.223306 
L 289.441907 -251.916786 
L 289.765482 -254.610266 
L 290.14586 -257.303747 
L 290.576755 -259.997227 
L 291.052005 -262.690707 
L 291.565555 -265.384187 
L 292.11139 -268.077668 
L 292.683429 -270.771148 
L 293.275441 -273.464628 
L 293.880974 -276.158108 
L 294.493354 -278.851589 
L 295.105729 -281.545069 
L 295.711192 -284.238549 
L 296.30294 -286.932029 
L 296.874488 -289.62551 
L 297.419886 -292.31899 
L 297.933929 -295.01247 
L 298.412346 -297.70595 
L 298.851926 -300.399431 
L 299.250599 -303.092911 
L 299.607444 -305.786391 
L 299.922636 -308.479871 
L 300.197341 -311.173352 
L 300.433566 -313.866832 
L 300.633984 -316.560312 
L 300.801743 -319.253792 
L 300.940281 -321.947273 
L 301.934569 -321.947273 
L 301.934569 -321.947273 
L 302.073107 -319.253792 
L 302.240866 -316.560312 
L 302.441284 -313.866832 
L 302.677509 -311.173352 
L 302.952214 -308.479871 
L 303.267406 -305.786391 
L 303.624251 -303.092911 
L 304.022924 -300.399431 
L 304.462504 -297.70595 
L 304.940921 -295.01247 
L 305.454964 -292.31899 
L 306.000361 -289.62551 
L 306.57191 -286.932029 
L 307.163658 -284.238549 
L 307.76912 -281.545069 
L 308.381496 -278.851589 
L 308.993876 -276.158108 
L 309.599409 -273.464628 
L 310.19142 -270.771148 
L 310.76346 -268.077668 
L 311.309294 -265.384187 
L 311.822845 -262.690707 
L 312.298095 -259.997227 
L 312.728989 -257.303747 
L 313.109368 -254.610266 
L 313.432943 -251.916786 
L 313.693363 -249.223306 
L 313.884361 -246.529826 
L 314.000002 -243.836345 
L 314.034995 -241.142865 
L 313.985078 -238.449385 
L 313.847403 -235.755904 
L 313.620908 -233.062424 
L 313.306621 -230.368944 
L 312.907862 -227.675464 
L 312.430311 -224.981983 
L 311.881934 -222.288503 
L 311.272751 -219.595023 
L 310.614484 -216.901543 
L 309.920078 -214.208062 
L 309.203162 -211.514582 
L 308.47747 -208.821102 
L 307.75628 -206.127622 
L 307.051892 -203.434141 
L 306.375201 -200.740661 
L 305.73537 -198.047181 
L 305.139623 -195.353701 
L 304.593164 -192.66022 
L 304.099207 -189.96674 
L 303.659109 -187.27326 
L 303.272578 -184.57978 
L 302.937944 -181.886299 
L 302.652452 -179.192819 
L 302.41257 -176.499339 
L 302.214282 -173.805859 
L 302.053359 -171.112378 
L 301.925581 -168.418898 
L 301.826929 -165.725418 
L 301.753709 -163.031938 
L 301.702649 -160.338457 
L 301.670931 -157.644977 
L 301.656198 -154.951497 
L 301.656514 -152.258017 
L 301.670306 -149.564536 
L 301.696281 -146.871056 
L 301.733331 -144.177576 
L 301.78043 -141.484096 
L 301.836542 -138.790615 
L 301.900529 -136.097135 
L 301.971081 -133.403655 
L 302.046666 -130.710174 
L 302.125506 -128.016694 
L 302.205588 -125.323214 
L 302.284695 -122.629734 
L 302.360475 -119.936253 
L 302.43053 -117.242773 
L 302.492521 -114.549293 
L 302.544285 -111.855813 
L 302.583952 -109.162332 
L 302.61005 -106.468852 
L 302.621593 -103.775372 
L 302.618136 -101.081892 
L 302.599808 -98.388411 
L 302.567296 -95.694931 
L 302.521807 -93.001451 
L 302.46499 -90.307971 
L 302.398837 -87.61449 
L 302.325568 -84.92101 
L 302.247508 -82.22753 
L 302.166965 -79.53405 
L 302.086123 -76.840569 
L 302.006944 -74.147089 
L 301.931107 -71.453609 
L 301.859957 -68.760129 
L 301.794488 -66.066648 
L 301.735347 -63.373168 
L 301.682859 -60.679688 
L 301.637061 -57.986208 
L 301.597755 -55.292727 
z
" style="stroke: #3f3f3f; stroke-width: 1.25"/>
    </defs>
    <g clip-path="url(#p9753c8297b)">
     <use xlink:href="#m98c08800ef" x="0" y="360" style="fill: #3274a1; stroke: #3f3f3f; stroke-width: 1.25"/>
    </g>
   </g>
   <g id="PolyCollection_6">
    <defs>
     <path id="ma8977b1d23" d="M 344.957605 -163.024864 
L 344.401393 -163.024864 
L 344.338447 -164.358764 
L 344.265267 -165.692664 
L 344.181164 -167.026563 
L 344.085625 -168.360463 
L 343.978349 -169.694363 
L 343.859289 -171.028263 
L 343.728684 -172.362163 
L 343.587079 -173.696063 
L 343.435329 -175.029963 
L 343.27459 -176.363862 
L 343.106293 -177.697762 
L 342.932099 -179.031662 
L 342.753839 -180.365562 
L 342.573441 -181.699462 
L 342.392848 -183.033362 
L 342.213927 -184.367262 
L 342.03838 -185.701162 
L 341.867654 -187.035061 
L 341.702868 -188.368961 
L 341.544737 -189.702861 
L 341.393526 -191.036761 
L 341.249009 -192.370661 
L 341.110456 -193.704561 
L 340.976629 -195.038461 
L 340.845804 -196.37236 
L 340.715812 -197.70626 
L 340.584089 -199.04016 
L 340.44775 -200.37406 
L 340.303675 -201.70796 
L 340.148604 -203.04186 
L 339.979252 -204.37576 
L 339.79242 -205.70966 
L 339.585119 -207.043559 
L 339.35469 -208.377459 
L 339.098924 -209.711359 
L 338.816161 -211.045259 
L 338.505386 -212.379159 
L 338.166289 -213.713059 
L 337.799308 -215.046959 
L 337.405636 -216.380858 
L 336.987195 -217.714758 
L 336.546575 -219.048658 
L 336.086948 -220.382558 
L 335.611953 -221.716458 
L 335.125565 -223.050358 
L 334.631959 -224.384258 
L 334.135366 -225.718158 
L 333.639957 -227.052057 
L 333.149732 -228.385957 
L 332.668449 -229.719857 
L 332.199579 -231.053757 
L 331.746301 -232.387657 
L 331.311527 -233.721557 
L 330.897953 -235.055457 
L 330.508134 -236.389356 
L 330.144571 -237.723256 
L 329.809791 -239.057156 
L 329.506429 -240.391056 
L 329.237279 -241.724956 
L 329.005324 -243.058856 
L 328.813732 -244.392756 
L 328.665819 -245.726656 
L 328.564974 -247.060555 
L 328.514557 -248.394455 
L 328.517773 -249.728355 
L 328.577522 -251.062255 
L 328.696254 -252.396155 
L 328.875814 -253.730055 
L 329.1173 -255.063955 
L 329.420945 -256.397854 
L 329.786021 -257.731754 
L 330.210775 -259.065654 
L 330.692401 -260.399554 
L 331.22705 -261.733454 
L 331.809874 -263.067354 
L 332.435115 -264.401254 
L 333.096219 -265.735154 
L 333.78598 -267.069053 
L 334.496715 -268.402953 
L 335.220449 -269.736853 
L 335.949116 -271.070753 
L 336.674758 -272.404653 
L 337.38972 -273.738553 
L 338.08684 -275.072453 
L 338.759608 -276.406352 
L 339.402307 -277.740252 
L 340.010118 -279.074152 
L 340.579199 -280.408052 
L 341.106716 -281.741952 
L 341.590843 -283.075852 
L 342.030735 -284.409752 
L 342.426457 -285.743652 
L 342.778896 -287.077551 
L 343.089651 -288.411451 
L 343.360905 -289.745351 
L 343.595302 -291.079251 
L 343.795807 -292.413151 
L 343.965587 -293.747051 
L 344.107891 -295.080951 
L 345.251107 -295.080951 
L 345.251107 -295.080951 
L 345.393411 -293.747051 
L 345.56319 -292.413151 
L 345.763695 -291.079251 
L 345.998092 -289.745351 
L 346.269347 -288.411451 
L 346.580101 -287.077551 
L 346.932541 -285.743652 
L 347.328263 -284.409752 
L 347.768155 -283.075852 
L 348.252282 -281.741952 
L 348.779798 -280.408052 
L 349.348879 -279.074152 
L 349.956691 -277.740252 
L 350.59939 -276.406352 
L 351.272157 -275.072453 
L 351.969277 -273.738553 
L 352.68424 -272.404653 
L 353.409881 -271.070753 
L 354.138548 -269.736853 
L 354.862283 -268.402953 
L 355.573018 -267.069053 
L 356.262779 -265.735154 
L 356.923882 -264.401254 
L 357.549123 -263.067354 
L 358.131948 -261.733454 
L 358.666596 -260.399554 
L 359.148222 -259.065654 
L 359.572976 -257.731754 
L 359.938053 -256.397854 
L 360.241698 -255.063955 
L 360.483184 -253.730055 
L 360.662743 -252.396155 
L 360.781476 -251.062255 
L 360.841225 -249.728355 
L 360.84444 -248.394455 
L 360.794024 -247.060555 
L 360.693178 -245.726656 
L 360.545265 -244.392756 
L 360.353674 -243.058856 
L 360.121719 -241.724956 
L 359.852569 -240.391056 
L 359.549207 -239.057156 
L 359.214427 -237.723256 
L 358.850863 -236.389356 
L 358.461044 -235.055457 
L 358.04747 -233.721557 
L 357.612696 -232.387657 
L 357.159419 -231.053757 
L 356.690549 -229.719857 
L 356.209265 -228.385957 
L 355.71904 -227.052057 
L 355.223631 -225.718158 
L 354.727039 -224.384258 
L 354.233432 -223.050358 
L 353.747045 -221.716458 
L 353.27205 -220.382558 
L 352.812423 -219.048658 
L 352.371803 -217.714758 
L 351.953361 -216.380858 
L 351.55969 -215.046959 
L 351.192709 -213.713059 
L 350.853612 -212.379159 
L 350.542836 -211.045259 
L 350.260073 -209.711359 
L 350.004307 -208.377459 
L 349.773879 -207.043559 
L 349.566578 -205.70966 
L 349.379745 -204.37576 
L 349.210393 -203.04186 
L 349.055323 -201.70796 
L 348.911247 -200.37406 
L 348.774908 -199.04016 
L 348.643185 -197.70626 
L 348.513193 -196.37236 
L 348.382369 -195.038461 
L 348.248542 -193.704561 
L 348.109988 -192.370661 
L 347.965472 -191.036761 
L 347.814261 -189.702861 
L 347.65613 -188.368961 
L 347.491343 -187.035061 
L 347.320618 -185.701162 
L 347.14507 -184.367262 
L 346.966149 -183.033362 
L 346.785556 -181.699462 
L 346.605159 -180.365562 
L 346.426899 -179.031662 
L 346.252705 -177.697762 
L 346.084408 -176.363862 
L 345.923669 -175.029963 
L 345.771918 -173.696063 
L 345.630313 -172.362163 
L 345.499709 -171.028263 
L 345.380649 -169.694363 
L 345.273372 -168.360463 
L 345.177833 -167.026563 
L 345.093731 -165.692664 
L 345.02055 -164.358764 
L 344.957605 -163.024864 
z
" style="stroke: #3f3f3f; stroke-width: 1.25"/>
    </defs>
    <g clip-path="url(#p9753c8297b)">
     <use xlink:href="#ma8977b1d23" x="0" y="360" style="fill: #e1812c; stroke: #3f3f3f; stroke-width: 1.25"/>
    </g>
   </g>
   <g id="line2d_7">
    <path d="M 85.227055 144.22783 
L 85.227055 98.179393 
" clip-path="url(#p9753c8297b)" style="fill: none; stroke: #3f3f3f; stroke-width: 1.875; stroke-linecap: round"/>
   </g>
   <g id="line2d_8">
    <path d="M 85.227055 134.752139 
L 85.227055 108.674003 
" clip-path="url(#p9753c8297b)" style="fill: none; stroke: #3f3f3f; stroke-width: 5.625; stroke-linecap: round"/>
   </g>
   <g id="line2d_9">
    <path d="M 85.227055 127.037311 
" clip-path="url(#p9753c8297b)" style="fill: none; stroke: #3f3f3f; stroke-width: 1.5; stroke-linecap: round"/>
    <defs>
     <path id="m1d6d86383d" d="M 2.34375 0 
L -2.34375 -0 
" style="stroke: #ffffff; stroke-width: 1.125"/>
    </defs>
    <g clip-path="url(#p9753c8297b)">
     <use xlink:href="#m1d6d86383d" x="85.227055" y="127.037311" style="fill: #ffffff; stroke: #ffffff; stroke-width: 1.125"/>
    </g>
   </g>
   <g id="line2d_10">
    <path d="M 128.469129 151.970533 
L 128.469129 96.763048 
" clip-path="url(#p9753c8297b)" style="fill: none; stroke: #3f3f3f; stroke-width: 1.875; stroke-linecap: round"/>
   </g>
   <g id="line2d_11">
    <path d="M 128.469129 137.963977 
L 128.469129 120.128197 
" clip-path="url(#p9753c8297b)" style="fill: none; stroke: #3f3f3f; stroke-width: 5.625; stroke-linecap: round"/>
   </g>
   <g id="line2d_12">
    <path d="M 128.469129 132.604903 
" clip-path="url(#p9753c8297b)" style="fill: none; stroke: #3f3f3f; stroke-width: 1.5; stroke-linecap: round"/>
    <g clip-path="url(#p9753c8297b)">
     <use xlink:href="#m1d6d86383d" x="128.469129" y="132.604903" style="fill: #ffffff; stroke: #ffffff; stroke-width: 1.125"/>
    </g>
   </g>
   <g id="line2d_13">
    <path d="M 193.33224 141.659825 
L 193.33224 88.113309 
" clip-path="url(#p9753c8297b)" style="fill: none; stroke: #3f3f3f; stroke-width: 1.875; stroke-linecap: round"/>
   </g>
   <g id="line2d_14">
    <path d="M 193.33224 129.87595 
L 193.33224 100.847083 
" clip-path="url(#p9753c8297b)" style="fill: none; stroke: #3f3f3f; stroke-width: 5.625; stroke-linecap: round"/>
   </g>
   <g id="line2d_15">
    <path d="M 193.33224 125.904077 
" clip-path="url(#p9753c8297b)" style="fill: none; stroke: #3f3f3f; stroke-width: 1.5; stroke-linecap: round"/>
    <g clip-path="url(#p9753c8297b)">
     <use xlink:href="#m1d6d86383d" x="193.33224" y="125.904077" style="fill: #ffffff; stroke: #ffffff; stroke-width: 1.125"/>
    </g>
   </g>
   <g id="line2d_16">
    <path d="M 236.574314 153.345533 
L 236.574314 90.641898 
" clip-path="url(#p9753c8297b)" style="fill: none; stroke: #3f3f3f; stroke-width: 1.875; stroke-linecap: round"/>
   </g>
   <g id="line2d_17">
    <path d="M 236.574314 129.932906 
L 236.574314 112.952694 
" clip-path="url(#p9753c8297b)" style="fill: none; stroke: #3f3f3f; stroke-width: 5.625; stroke-linecap: round"/>
   </g>
   <g id="line2d_18">
    <path d="M 236.574314 123.183885 
" clip-path="url(#p9753c8297b)" style="fill: none; stroke: #3f3f3f; stroke-width: 1.5; stroke-linecap: round"/>
    <g clip-path="url(#p9753c8297b)">
     <use xlink:href="#m1d6d86383d" x="236.574314" y="123.183885" style="fill: #ffffff; stroke: #ffffff; stroke-width: 1.125"/>
    </g>
   </g>
   <g id="line2d_19">
    <path d="M 301.437425 144.63674 
L 301.437425 85.805032 
" clip-path="url(#p9753c8297b)" style="fill: none; stroke: #3f3f3f; stroke-width: 1.875; stroke-linecap: round"/>
   </g>
   <g id="line2d_20">
    <path d="M 301.437425 131.347978 
L 301.437425 96.576088 
" clip-path="url(#p9753c8297b)" style="fill: none; stroke: #3f3f3f; stroke-width: 5.625; stroke-linecap: round"/>
   </g>
   <g id="line2d_21">
    <path d="M 301.437425 122.838298 
" clip-path="url(#p9753c8297b)" style="fill: none; stroke: #3f3f3f; stroke-width: 1.5; stroke-linecap: round"/>
    <g clip-path="url(#p9753c8297b)">
     <use xlink:href="#m1d6d86383d" x="301.437425" y="122.838298" style="fill: #ffffff; stroke: #ffffff; stroke-width: 1.125"/>
    </g>
   </g>
   <g id="line2d_22">
    <path d="M 344.679499 155.116355 
L 344.679499 91.136337 
" clip-path="url(#p9753c8297b)" style="fill: none; stroke: #3f3f3f; stroke-width: 1.875; stroke-linecap: round"/>
   </g>
   <g id="line2d_23">
    <path d="M 344.679499 129.648731 
L 344.679499 103.416253 
" clip-path="url(#p9753c8297b)" style="fill: none; stroke: #3f3f3f; stroke-width: 5.625; stroke-linecap: round"/>
   </g>
   <g id="line2d_24">
    <path d="M 344.679499 115.90623 
" clip-path="url(#p9753c8297b)" style="fill: none; stroke: #3f3f3f; stroke-width: 1.5; stroke-linecap: round"/>
    <g clip-path="url(#p9753c8297b)">
     <use xlink:href="#m1d6d86383d" x="344.679499" y="115.90623" style="fill: #ffffff; stroke: #ffffff; stroke-width: 1.125"/>
    </g>
   </g>
   <g id="patch_3">
    <path d="M 52.7955 318.04 
L 52.7955 24.72 
" style="fill: none; stroke: #cccccc; stroke-width: 0.8; stroke-linejoin: miter; stroke-linecap: square"/>
   </g>
   <g id="patch_4">
    <path d="M 52.7955 318.04 
L 377.111054 318.04 
" style="fill: none; stroke: #cccccc; stroke-width: 0.8; stroke-linejoin: miter; stroke-linecap: square"/>
   </g>
   <g id="text_12">
    <!-- sex = f -->
    <g style="fill: #262626" transform="translate(200.085308 18.72) scale(0.1 -0.1)">
     <defs>
      <path id="ArialMT-78" d="M 47 0 
L 1259 1725 
L 138 3319 
L 841 3319 
L 1350 2541 
Q 1494 2319 1581 2169 
Q 1719 2375 1834 2534 
L 2394 3319 
L 3066 3319 
L 1919 1756 
L 3153 0 
L 2463 0 
L 1781 1031 
L 1600 1309 
L 728 0 
L 47 0 
z
" transform="scale(0.015625)"/>
      <path id="ArialMT-3d" d="M 3381 2694 
L 356 2694 
L 356 3219 
L 3381 3219 
L 3381 2694 
z
M 3381 1303 
L 356 1303 
L 356 1828 
L 3381 1828 
L 3381 1303 
z
" transform="scale(0.015625)"/>
     </defs>
     <use xlink:href="#ArialMT-73"/>
     <use xlink:href="#ArialMT-65" x="50"/>
     <use xlink:href="#ArialMT-78" x="105.615234"/>
     <use xlink:href="#ArialMT-20" x="155.615234"/>
     <use xlink:href="#ArialMT-3d" x="183.398438"/>
     <use xlink:href="#ArialMT-20" x="241.796875"/>
     <use xlink:href="#ArialMT-66" x="269.580078"/>
    </g>
   </g>
  </g>
  <g id="axes_2">
   <g id="patch_5">
    <path d="M 387.894946 318.04 
L 712.2105 318.04 
L 712.2105 24.72 
L 387.894946 24.72 
z
" style="fill: #ffffff"/>
   </g>
   <g id="matplotlib.axis_3">
    <g id="xtick_4">
     <g id="text_13">
      <!-- 1 -->
      <g style="fill: #262626" transform="translate(439.167069 332.197812) scale(0.1 -0.1)">
       <use xlink:href="#ArialMT-31"/>
      </g>
     </g>
    </g>
    <g id="xtick_5">
     <g id="text_14">
      <!-- 2 -->
      <g style="fill: #262626" transform="translate(547.272254 332.197812) scale(0.1 -0.1)">
       <use xlink:href="#ArialMT-32"/>
      </g>
     </g>
    </g>
    <g id="xtick_6">
     <g id="text_15">
      <!-- 3 -->
      <g style="fill: #262626" transform="translate(655.377439 332.197812) scale(0.1 -0.1)">
       <use xlink:href="#ArialMT-33"/>
      </g>
     </g>
    </g>
    <g id="text_16">
     <!-- Effort level -->
     <g style="fill: #262626" transform="translate(526.520692 345.343125) scale(0.1 -0.1)">
      <use xlink:href="#ArialMT-45"/>
      <use xlink:href="#ArialMT-66" x="66.699219"/>
      <use xlink:href="#ArialMT-66" x="92.732422"/>
      <use xlink:href="#ArialMT-6f" x="120.515625"/>
      <use xlink:href="#ArialMT-72" x="176.130859"/>
      <use xlink:href="#ArialMT-74" x="209.431641"/>
      <use xlink:href="#ArialMT-20" x="237.214844"/>
      <use xlink:href="#ArialMT-6c" x="264.998047"/>
      <use xlink:href="#ArialMT-65" x="287.214844"/>
      <use xlink:href="#ArialMT-76" x="342.830078"/>
      <use xlink:href="#ArialMT-65" x="392.830078"/>
      <use xlink:href="#ArialMT-6c" x="448.445312"/>
     </g>
    </g>
   </g>
   <g id="matplotlib.axis_4">
    <g id="ytick_7">
     <g id="line2d_25">
      <path d="M 387.894946 305.199246 
L 712.2105 305.199246 
" clip-path="url(#pa72adb45f0)" style="fill: none; stroke: #cccccc; stroke-width: 0.8; stroke-linecap: round"/>
     </g>
    </g>
    <g id="ytick_8">
     <g id="line2d_26">
      <path d="M 387.894946 256.954968 
L 712.2105 256.954968 
" clip-path="url(#pa72adb45f0)" style="fill: none; stroke: #cccccc; stroke-width: 0.8; stroke-linecap: round"/>
     </g>
    </g>
    <g id="ytick_9">
     <g id="line2d_27">
      <path d="M 387.894946 208.710691 
L 712.2105 208.710691 
" clip-path="url(#pa72adb45f0)" style="fill: none; stroke: #cccccc; stroke-width: 0.8; stroke-linecap: round"/>
     </g>
    </g>
    <g id="ytick_10">
     <g id="line2d_28">
      <path d="M 387.894946 160.466414 
L 712.2105 160.466414 
" clip-path="url(#pa72adb45f0)" style="fill: none; stroke: #cccccc; stroke-width: 0.8; stroke-linecap: round"/>
     </g>
    </g>
    <g id="ytick_11">
     <g id="line2d_29">
      <path d="M 387.894946 112.222137 
L 712.2105 112.222137 
" clip-path="url(#pa72adb45f0)" style="fill: none; stroke: #cccccc; stroke-width: 0.8; stroke-linecap: round"/>
     </g>
    </g>
    <g id="ytick_12">
     <g id="line2d_30">
      <path d="M 387.894946 63.977859 
L 712.2105 63.977859 
" clip-path="url(#pa72adb45f0)" style="fill: none; stroke: #cccccc; stroke-width: 0.8; stroke-linecap: round"/>
     </g>
    </g>
   </g>
   <g id="PolyCollection_7">
    <defs>
     <path id="m2097907ac2" d="M 420.667324 -197.167648 
L 419.985679 -197.167648 
L 419.875465 -198.234283 
L 419.737101 -199.300918 
L 419.565781 -200.367554 
L 419.356533 -201.434189 
L 419.104389 -202.500824 
L 418.804588 -203.56746 
L 418.452809 -204.634095 
L 418.045426 -205.70073 
L 417.579763 -206.767366 
L 417.054343 -207.834001 
L 416.469115 -208.900636 
L 415.825625 -209.967272 
L 415.127133 -211.033907 
L 414.37864 -212.100542 
L 413.586822 -213.167178 
L 412.759859 -214.233813 
L 411.907155 -215.300448 
L 411.038968 -216.367084 
L 410.16595 -217.433719 
L 409.298647 -218.500354 
L 408.446981 -219.56699 
L 407.619757 -220.633625 
L 406.824245 -221.70026 
L 406.065881 -222.766896 
L 405.348103 -223.833531 
L 404.672367 -224.900166 
L 404.038324 -225.966802 
L 403.444168 -227.033437 
L 402.887102 -228.100072 
L 402.363906 -229.166708 
L 401.871527 -230.233343 
L 401.407656 -231.299978 
L 400.971223 -232.366614 
L 400.562777 -233.433249 
L 400.184705 -234.499884 
L 399.841286 -235.56652 
L 399.538579 -236.633155 
L 399.28415 -237.69979 
L 399.086688 -238.766426 
L 398.955514 -239.833061 
L 398.900055 -240.899696 
L 398.929287 -241.966332 
L 399.051195 -243.032967 
L 399.272269 -244.099602 
L 399.597056 -245.166238 
L 400.027782 -246.232873 
L 400.564055 -247.299508 
L 401.20268 -248.366144 
L 401.937579 -249.432779 
L 402.759851 -250.499414 
L 403.657979 -251.56605 
L 404.618178 -252.632685 
L 405.624897 -253.69932 
L 406.661439 -254.765956 
L 407.710669 -255.832591 
L 408.755753 -256.899226 
L 409.780877 -257.965862 
L 410.771884 -259.032497 
L 411.716766 -260.099132 
L 412.605983 -261.165768 
L 413.432577 -262.232403 
L 414.192101 -263.299038 
L 414.882366 -264.365674 
L 415.503078 -265.432309 
L 416.055398 -266.498944 
L 416.541504 -267.56558 
L 416.9642 -268.632215 
L 417.326617 -269.69885 
L 417.632031 -270.765486 
L 417.883804 -271.832121 
L 418.085429 -272.898756 
L 418.240651 -273.965392 
L 418.353622 -275.032027 
L 418.429044 -276.098662 
L 418.472268 -277.165298 
L 418.489303 -278.231933 
L 418.486735 -279.298568 
L 418.471535 -280.365204 
L 418.450791 -281.431839 
L 418.431367 -282.498474 
L 418.419544 -283.56511 
L 418.420674 -284.631745 
L 418.438884 -285.69838 
L 418.476873 -286.765016 
L 418.535808 -287.831651 
L 418.615345 -288.898286 
L 418.713764 -289.964922 
L 418.828196 -291.031557 
L 418.954925 -292.098192 
L 419.08973 -293.164828 
L 419.228226 -294.231463 
L 419.366189 -295.298098 
L 419.499814 -296.364734 
L 419.625922 -297.431369 
L 419.742071 -298.498004 
L 419.846606 -299.56464 
L 419.938635 -300.631275 
L 420.017948 -301.69791 
L 420.084911 -302.764546 
L 420.568092 -302.764546 
L 420.568092 -302.764546 
L 420.635054 -301.69791 
L 420.714368 -300.631275 
L 420.806396 -299.56464 
L 420.910931 -298.498004 
L 421.02708 -297.431369 
L 421.153188 -296.364734 
L 421.286814 -295.298098 
L 421.424776 -294.231463 
L 421.563273 -293.164828 
L 421.698077 -292.098192 
L 421.824806 -291.031557 
L 421.939238 -289.964922 
L 422.037657 -288.898286 
L 422.117195 -287.831651 
L 422.176129 -286.765016 
L 422.214118 -285.69838 
L 422.232329 -284.631745 
L 422.233459 -283.56511 
L 422.221636 -282.498474 
L 422.202212 -281.431839 
L 422.181467 -280.365204 
L 422.166268 -279.298568 
L 422.163699 -278.231933 
L 422.180734 -277.165298 
L 422.223958 -276.098662 
L 422.299381 -275.032027 
L 422.412351 -273.965392 
L 422.567574 -272.898756 
L 422.769199 -271.832121 
L 423.020972 -270.765486 
L 423.326385 -269.69885 
L 423.688802 -268.632215 
L 424.111498 -267.56558 
L 424.597604 -266.498944 
L 425.149925 -265.432309 
L 425.770636 -264.365674 
L 426.460902 -263.299038 
L 427.220425 -262.232403 
L 428.04702 -261.165768 
L 428.936236 -260.099132 
L 429.881118 -259.032497 
L 430.872125 -257.965862 
L 431.897249 -256.899226 
L 432.942333 -255.832591 
L 433.991563 -254.765956 
L 435.028106 -253.69932 
L 436.034825 -252.632685 
L 436.995023 -251.56605 
L 437.893151 -250.499414 
L 438.715424 -249.432779 
L 439.450323 -248.366144 
L 440.088948 -247.299508 
L 440.625221 -246.232873 
L 441.055946 -245.166238 
L 441.380733 -244.099602 
L 441.601808 -243.032967 
L 441.723716 -241.966332 
L 441.752947 -240.899696 
L 441.697489 -239.833061 
L 441.566315 -238.766426 
L 441.368852 -237.69979 
L 441.114424 -236.633155 
L 440.811716 -235.56652 
L 440.468297 -234.499884 
L 440.090225 -233.433249 
L 439.681779 -232.366614 
L 439.245347 -231.299978 
L 438.781475 -230.233343 
L 438.289096 -229.166708 
L 437.7659 -228.100072 
L 437.208834 -227.033437 
L 436.614678 -225.966802 
L 435.980636 -224.900166 
L 435.304899 -223.833531 
L 434.587122 -222.766896 
L 433.828757 -221.70026 
L 433.033246 -220.633625 
L 432.206021 -219.56699 
L 431.354355 -218.500354 
L 430.487053 -217.433719 
L 429.614035 -216.367084 
L 428.745847 -215.300448 
L 427.893144 -214.233813 
L 427.06618 -213.167178 
L 426.274363 -212.100542 
L 425.52587 -211.033907 
L 424.827378 -209.967272 
L 424.183888 -208.900636 
L 423.598659 -207.834001 
L 423.073239 -206.767366 
L 422.607576 -205.70073 
L 422.200193 -204.634095 
L 421.848415 -203.56746 
L 421.548613 -202.500824 
L 421.296469 -201.434189 
L 421.087221 -200.367554 
L 420.915902 -199.300918 
L 420.777538 -198.234283 
L 420.667324 -197.167648 
z
" style="stroke: #3f3f3f; stroke-width: 1.25"/>
    </defs>
    <g clip-path="url(#pa72adb45f0)">
     <use xlink:href="#m2097907ac2" x="0" y="360" style="fill: #3274a1; stroke: #3f3f3f; stroke-width: 1.25"/>
    </g>
   </g>
   <g id="PolyCollection_8">
    <defs>
     <path id="mc5069830a7" d="M 463.841006 -173.934499 
L 463.296144 -173.934499 
L 463.220596 -175.008737 
L 463.128971 -176.082975 
L 463.01916 -177.157213 
L 462.889066 -178.231451 
L 462.736659 -179.305689 
L 462.560025 -180.379927 
L 462.357423 -181.454166 
L 462.127323 -182.528404 
L 461.868445 -183.602642 
L 461.579782 -184.67688 
L 461.260623 -185.751118 
L 460.910563 -186.825356 
L 460.529514 -187.899594 
L 460.117713 -188.973833 
L 459.675739 -190.048071 
L 459.204526 -191.122309 
L 458.705384 -192.196547 
L 458.180027 -193.270785 
L 457.630592 -194.345023 
L 457.059667 -195.419261 
L 456.470292 -196.4935 
L 455.865966 -197.567738 
L 455.250617 -198.641976 
L 454.628564 -199.716214 
L 454.004441 -200.790452 
L 453.383111 -201.86469 
L 452.76954 -202.938928 
L 452.168667 -204.013166 
L 451.58524 -205.087405 
L 451.023656 -206.161643 
L 450.487793 -207.235881 
L 449.98085 -208.310119 
L 449.50521 -209.384357 
L 449.062328 -210.458595 
L 448.652679 -211.532833 
L 448.275744 -212.607072 
L 447.930083 -213.68131 
L 447.613463 -214.755548 
L 447.323064 -215.829786 
L 447.055741 -216.904024 
L 446.808338 -217.978262 
L 446.578012 -219.0525 
L 446.362557 -220.126739 
L 446.160689 -221.200977 
L 445.97226 -222.275215 
L 445.798384 -223.349453 
L 445.641452 -224.423691 
L 445.505033 -225.497929 
L 445.393664 -226.572167 
L 445.312553 -227.646406 
L 445.267209 -228.720644 
L 445.263054 -229.794882 
L 445.305028 -230.86912 
L 445.397241 -231.943358 
L 445.542708 -233.017596 
L 445.743158 -234.091834 
L 445.998966 -235.166072 
L 446.309177 -236.240311 
L 446.671622 -237.314549 
L 447.083109 -238.388787 
L 447.539649 -239.463025 
L 448.036698 -240.537263 
L 448.569385 -241.611501 
L 449.132703 -242.685739 
L 449.721656 -243.759978 
L 450.33135 -244.834216 
L 450.957038 -245.908454 
L 451.594125 -246.982692 
L 452.238157 -248.05693 
L 452.884802 -249.131168 
L 453.529844 -250.205406 
L 454.169201 -251.279645 
L 454.798961 -252.353883 
L 455.415455 -253.428121 
L 456.015328 -254.502359 
L 456.595632 -255.576597 
L 457.153894 -256.650835 
L 457.688169 -257.725073 
L 458.197058 -258.799312 
L 458.679694 -259.87355 
L 459.135686 -260.947788 
L 459.565042 -262.022026 
L 459.968067 -263.096264 
L 460.345264 -264.170502 
L 460.697235 -265.24474 
L 461.024608 -266.318979 
L 461.327979 -267.393217 
L 461.607892 -268.467455 
L 461.864842 -269.541693 
L 462.099304 -270.615931 
L 462.311768 -271.690169 
L 462.502791 -272.764407 
L 462.67304 -273.838645 
L 462.823324 -274.912884 
L 462.954619 -275.987122 
L 463.068066 -277.06136 
L 463.164958 -278.135598 
L 463.246715 -279.209836 
L 463.31484 -280.284074 
L 463.82231 -280.284074 
L 463.82231 -280.284074 
L 463.890436 -279.209836 
L 463.972192 -278.135598 
L 464.069084 -277.06136 
L 464.182531 -275.987122 
L 464.313826 -274.912884 
L 464.46411 -273.838645 
L 464.634359 -272.764407 
L 464.825382 -271.690169 
L 465.037846 -270.615931 
L 465.272308 -269.541693 
L 465.529258 -268.467455 
L 465.809171 -267.393217 
L 466.112542 -266.318979 
L 466.439915 -265.24474 
L 466.791887 -264.170502 
L 467.169084 -263.096264 
L 467.572108 -262.022026 
L 468.001464 -260.947788 
L 468.457456 -259.87355 
L 468.940092 -258.799312 
L 469.448981 -257.725073 
L 469.983256 -256.650835 
L 470.541518 -255.576597 
L 471.121822 -254.502359 
L 471.721695 -253.428121 
L 472.338189 -252.353883 
L 472.967949 -251.279645 
L 473.607306 -250.205406 
L 474.252348 -249.131168 
L 474.898993 -248.05693 
L 475.543025 -246.982692 
L 476.180112 -245.908454 
L 476.8058 -244.834216 
L 477.415494 -243.759978 
L 478.004448 -242.685739 
L 478.567765 -241.611501 
L 479.100452 -240.537263 
L 479.597501 -239.463025 
L 480.054041 -238.388787 
L 480.465529 -237.314549 
L 480.827974 -236.240311 
L 481.138184 -235.166072 
L 481.393992 -234.091834 
L 481.594442 -233.017596 
L 481.739909 -231.943358 
L 481.832123 -230.86912 
L 481.874096 -229.794882 
L 481.869941 -228.720644 
L 481.824598 -227.646406 
L 481.743486 -226.572167 
L 481.632117 -225.497929 
L 481.495698 -224.423691 
L 481.338766 -223.349453 
L 481.164891 -222.275215 
L 480.976462 -221.200977 
L 480.774593 -220.126739 
L 480.559138 -219.0525 
L 480.328812 -217.978262 
L 480.081409 -216.904024 
L 479.814086 -215.829786 
L 479.523687 -214.755548 
L 479.207067 -213.68131 
L 478.861406 -212.607072 
L 478.484472 -211.532833 
L 478.074822 -210.458595 
L 477.631941 -209.384357 
L 477.1563 -208.310119 
L 476.649357 -207.235881 
L 476.113494 -206.161643 
L 475.55191 -205.087405 
L 474.968483 -204.013166 
L 474.36761 -202.938928 
L 473.75404 -201.86469 
L 473.132709 -200.790452 
L 472.508587 -199.716214 
L 471.886533 -198.641976 
L 471.271184 -197.567738 
L 470.666858 -196.4935 
L 470.077484 -195.419261 
L 469.506558 -194.345023 
L 468.957124 -193.270785 
L 468.431766 -192.196547 
L 467.932624 -191.122309 
L 467.461411 -190.048071 
L 467.019437 -188.973833 
L 466.607637 -187.899594 
L 466.226587 -186.825356 
L 465.876527 -185.751118 
L 465.557368 -184.67688 
L 465.268706 -183.602642 
L 465.009827 -182.528404 
L 464.779727 -181.454166 
L 464.577125 -180.379927 
L 464.400492 -179.305689 
L 464.248084 -178.231451 
L 464.11799 -177.157213 
L 464.008179 -176.082975 
L 463.916554 -175.008737 
L 463.841006 -173.934499 
z
" style="stroke: #3f3f3f; stroke-width: 1.25"/>
    </defs>
    <g clip-path="url(#pa72adb45f0)">
     <use xlink:href="#mc5069830a7" x="0" y="360" style="fill: #e1812c; stroke: #3f3f3f; stroke-width: 1.25"/>
    </g>
   </g>
   <g id="PolyCollection_9">
    <defs>
     <path id="m62bac34ff3" d="M 528.730331 -196.464379 
L 528.133041 -196.464379 
L 528.040513 -197.58952 
L 527.925959 -198.714661 
L 527.786179 -199.839802 
L 527.618041 -200.964943 
L 527.418621 -202.090084 
L 527.185346 -203.215225 
L 526.916135 -204.340366 
L 526.609523 -205.465507 
L 526.264762 -206.590648 
L 525.881875 -207.715789 
L 525.461671 -208.84093 
L 525.005707 -209.966071 
L 524.5162 -211.091212 
L 523.995891 -212.216353 
L 523.447878 -213.341494 
L 522.875424 -214.466635 
L 522.281759 -215.591776 
L 521.66989 -216.716917 
L 521.042442 -217.842058 
L 520.401533 -218.967199 
L 519.748706 -220.09234 
L 519.084915 -221.217481 
L 518.410571 -222.342622 
L 517.725649 -223.467763 
L 517.029846 -224.592904 
L 516.32279 -225.718045 
L 515.604291 -226.843185 
L 514.874616 -227.968326 
L 514.134798 -229.093467 
L 513.386944 -230.218608 
L 512.634542 -231.343749 
L 511.882739 -232.46889 
L 511.138567 -233.594031 
L 510.41108 -234.719172 
L 509.711374 -235.844313 
L 509.05246 -236.969454 
L 508.448954 -238.094595 
L 507.916592 -239.219736 
L 507.471546 -240.344877 
L 507.129605 -241.470018 
L 506.905243 -242.595159 
L 506.810649 -243.7203 
L 506.85482 -244.845441 
L 507.042777 -245.970582 
L 507.375009 -247.095723 
L 507.847195 -248.220864 
L 508.450246 -249.346005 
L 509.170683 -250.471146 
L 509.991311 -251.596287 
L 510.892142 -252.721428 
L 511.851487 -253.846569 
L 512.847121 -254.97171 
L 513.857426 -256.096851 
L 514.862418 -257.221992 
L 515.844594 -258.347133 
L 516.789539 -259.472274 
L 517.68627 -260.597414 
L 518.527312 -261.722555 
L 519.308538 -262.847696 
L 520.028794 -263.972837 
L 520.689381 -265.097978 
L 521.29343 -266.223119 
L 521.845252 -267.34826 
L 522.349706 -268.473401 
L 522.811633 -269.598542 
L 523.235417 -270.723683 
L 523.624666 -271.848824 
L 523.982067 -272.973965 
L 524.309377 -274.099106 
L 524.607561 -275.224247 
L 524.877035 -276.349388 
L 525.117979 -277.474529 
L 525.330678 -278.59967 
L 525.515839 -279.724811 
L 525.674847 -280.849952 
L 525.80993 -281.975093 
L 525.924198 -283.100234 
L 526.021566 -284.225375 
L 526.106559 -285.350516 
L 526.184032 -286.475657 
L 526.258827 -287.600798 
L 526.335426 -288.725939 
L 526.417615 -289.85108 
L 526.508231 -290.976221 
L 526.608982 -292.101362 
L 526.720387 -293.226503 
L 526.841815 -294.351644 
L 526.971632 -295.476784 
L 527.107417 -296.601925 
L 527.246232 -297.727066 
L 527.384903 -298.852207 
L 527.520299 -299.977348 
L 527.649564 -301.102489 
L 527.770302 -302.22763 
L 527.880689 -303.352771 
L 527.979529 -304.477912 
L 528.066245 -305.603053 
L 528.140822 -306.728194 
L 528.203719 -307.853335 
L 528.659653 -307.853335 
L 528.659653 -307.853335 
L 528.72255 -306.728194 
L 528.797127 -305.603053 
L 528.883843 -304.477912 
L 528.982683 -303.352771 
L 529.09307 -302.22763 
L 529.213808 -301.102489 
L 529.343073 -299.977348 
L 529.478469 -298.852207 
L 529.61714 -297.727066 
L 529.755954 -296.601925 
L 529.89174 -295.476784 
L 530.021557 -294.351644 
L 530.142985 -293.226503 
L 530.254389 -292.101362 
L 530.355141 -290.976221 
L 530.445757 -289.85108 
L 530.527946 -288.725939 
L 530.604544 -287.600798 
L 530.67934 -286.475657 
L 530.756813 -285.350516 
L 530.841806 -284.225375 
L 530.939174 -283.100234 
L 531.053442 -281.975093 
L 531.188525 -280.849952 
L 531.347533 -279.724811 
L 531.532694 -278.59967 
L 531.745393 -277.474529 
L 531.986337 -276.349388 
L 532.255811 -275.224247 
L 532.553995 -274.099106 
L 532.881305 -272.973965 
L 533.238706 -271.848824 
L 533.627955 -270.723683 
L 534.051738 -269.598542 
L 534.513666 -268.473401 
L 535.01812 -267.34826 
L 535.569942 -266.223119 
L 536.173991 -265.097978 
L 536.834578 -263.972837 
L 537.554834 -262.847696 
L 538.33606 -261.722555 
L 539.177102 -260.597414 
L 540.073833 -259.472274 
L 541.018778 -258.347133 
L 542.000954 -257.221992 
L 543.005946 -256.096851 
L 544.01625 -254.97171 
L 545.011885 -253.846569 
L 545.97123 -252.721428 
L 546.872061 -251.596287 
L 547.692689 -250.471146 
L 548.413126 -249.346005 
L 549.016177 -248.220864 
L 549.488363 -247.095723 
L 549.820595 -245.970582 
L 550.008552 -244.845441 
L 550.052723 -243.7203 
L 549.958129 -242.595159 
L 549.733767 -241.470018 
L 549.391826 -240.344877 
L 548.94678 -239.219736 
L 548.414418 -238.094595 
L 547.810912 -236.969454 
L 547.151998 -235.844313 
L 546.452292 -234.719172 
L 545.724805 -233.594031 
L 544.980633 -232.46889 
L 544.22883 -231.343749 
L 543.476428 -230.218608 
L 542.728574 -229.093467 
L 541.988756 -227.968326 
L 541.259081 -226.843185 
L 540.540582 -225.718045 
L 539.833526 -224.592904 
L 539.137723 -223.467763 
L 538.452801 -222.342622 
L 537.778457 -221.217481 
L 537.114666 -220.09234 
L 536.461839 -218.967199 
L 535.82093 -217.842058 
L 535.193481 -216.716917 
L 534.581613 -215.591776 
L 533.987948 -214.466635 
L 533.415494 -213.341494 
L 532.867481 -212.216353 
L 532.347172 -211.091212 
L 531.857664 -209.966071 
L 531.401701 -208.84093 
L 530.981497 -207.715789 
L 530.59861 -206.590648 
L 530.253849 -205.465507 
L 529.947237 -204.340366 
L 529.678026 -203.215225 
L 529.444751 -202.090084 
L 529.245331 -200.964943 
L 529.077193 -199.839802 
L 528.937413 -198.714661 
L 528.822859 -197.58952 
L 528.730331 -196.464379 
z
" style="stroke: #3f3f3f; stroke-width: 1.25"/>
    </defs>
    <g clip-path="url(#pa72adb45f0)">
     <use xlink:href="#m62bac34ff3" x="0" y="360" style="fill: #3274a1; stroke: #3f3f3f; stroke-width: 1.25"/>
    </g>
   </g>
   <g id="PolyCollection_10">
    <defs>
     <path id="m95b456b59c" d="M 572.001432 -172.133239 
L 571.346087 -172.133239 
L 571.252197 -173.268598 
L 571.138128 -174.403957 
L 571.001573 -175.539316 
L 570.840513 -176.674675 
L 570.653377 -177.810034 
L 570.439205 -178.945393 
L 570.197802 -180.080752 
L 569.929858 -181.216112 
L 569.637031 -182.351471 
L 569.321961 -183.48683 
L 568.988221 -184.622189 
L 568.640177 -185.757548 
L 568.282774 -186.892907 
L 567.921244 -188.028266 
L 567.560758 -189.163625 
L 567.20604 -190.298984 
L 566.86098 -191.434343 
L 566.528283 -192.569702 
L 566.20918 -193.705061 
L 565.903252 -194.84042 
L 565.608375 -195.97578 
L 565.320819 -197.111139 
L 565.035494 -198.246498 
L 564.746329 -199.381857 
L 564.446757 -200.517216 
L 564.130273 -201.652575 
L 563.790989 -202.787934 
L 563.424157 -203.923293 
L 563.026585 -205.058652 
L 562.59691 -206.194011 
L 562.13569 -207.32937 
L 561.645317 -208.464729 
L 561.129747 -209.600088 
L 560.594086 -210.735448 
L 560.044089 -211.870807 
L 559.485627 -213.006166 
L 558.924192 -214.141525 
L 558.364516 -215.276884 
L 557.810329 -216.412243 
L 557.264317 -217.547602 
L 556.728253 -218.682961 
L 556.20331 -219.81832 
L 555.690479 -220.953679 
L 555.191058 -222.089038 
L 554.707125 -223.224397 
L 554.241922 -224.359756 
L 553.800112 -225.495116 
L 553.387846 -226.630475 
L 553.012649 -227.765834 
L 552.683116 -228.901193 
L 552.408466 -230.036552 
L 552.198003 -231.171911 
L 552.060536 -232.30727 
L 552.003825 -233.442629 
L 552.034101 -234.577988 
L 552.155702 -235.713347 
L 552.370838 -236.848706 
L 552.679494 -237.984065 
L 553.079453 -239.119424 
L 553.56643 -240.254784 
L 554.134267 -241.390143 
L 554.775183 -242.525502 
L 555.480052 -243.660861 
L 556.238684 -244.79622 
L 557.040107 -245.931579 
L 557.872859 -247.066938 
L 558.725274 -248.202297 
L 559.585772 -249.337656 
L 560.443158 -250.473015 
L 561.286921 -251.608374 
L 562.107522 -252.743733 
L 562.896659 -253.879092 
L 563.647493 -255.014452 
L 564.354809 -256.149811 
L 565.015105 -257.28517 
L 565.626596 -258.420529 
L 566.189118 -259.555888 
L 566.703957 -260.691247 
L 567.173595 -261.826606 
L 567.601409 -262.961965 
L 567.991342 -264.097324 
L 568.34757 -265.232683 
L 568.674202 -266.368042 
L 568.975023 -267.503401 
L 569.253308 -268.63876 
L 569.511707 -269.77412 
L 569.752207 -270.909479 
L 569.976159 -272.044838 
L 570.184367 -273.180197 
L 570.377205 -274.315556 
L 570.554766 -275.450915 
L 570.717004 -276.586274 
L 570.863865 -277.721633 
L 570.995398 -278.856992 
L 571.111828 -279.992351 
L 571.213599 -281.12771 
L 571.301385 -282.263069 
L 571.376073 -283.398428 
L 571.438724 -284.533788 
L 571.908795 -284.533788 
L 571.908795 -284.533788 
L 571.971447 -283.398428 
L 572.046134 -282.263069 
L 572.13392 -281.12771 
L 572.235691 -279.992351 
L 572.352121 -278.856992 
L 572.483655 -277.721633 
L 572.630516 -276.586274 
L 572.792754 -275.450915 
L 572.970315 -274.315556 
L 573.163153 -273.180197 
L 573.37136 -272.044838 
L 573.595313 -270.909479 
L 573.835813 -269.77412 
L 574.094212 -268.63876 
L 574.372497 -267.503401 
L 574.673318 -266.368042 
L 574.99995 -265.232683 
L 575.356178 -264.097324 
L 575.74611 -262.961965 
L 576.173924 -261.826606 
L 576.643562 -260.691247 
L 577.158401 -259.555888 
L 577.720924 -258.420529 
L 578.332415 -257.28517 
L 578.992711 -256.149811 
L 579.700027 -255.014452 
L 580.45086 -253.879092 
L 581.239998 -252.743733 
L 582.060598 -251.608374 
L 582.904362 -250.473015 
L 583.761747 -249.337656 
L 584.622245 -248.202297 
L 585.47466 -247.066938 
L 586.307413 -245.931579 
L 587.108836 -244.79622 
L 587.867467 -243.660861 
L 588.572337 -242.525502 
L 589.213253 -241.390143 
L 589.781089 -240.254784 
L 590.268066 -239.119424 
L 590.668026 -237.984065 
L 590.976681 -236.848706 
L 591.191817 -235.713347 
L 591.313418 -234.577988 
L 591.343695 -233.442629 
L 591.286983 -232.30727 
L 591.149516 -231.171911 
L 590.939054 -230.036552 
L 590.664404 -228.901193 
L 590.334871 -227.765834 
L 589.959673 -226.630475 
L 589.547408 -225.495116 
L 589.105597 -224.359756 
L 588.640395 -223.224397 
L 588.156461 -222.089038 
L 587.657041 -220.953679 
L 587.14421 -219.81832 
L 586.619267 -218.682961 
L 586.083203 -217.547602 
L 585.53719 -216.412243 
L 584.983004 -215.276884 
L 584.423327 -214.141525 
L 583.861893 -213.006166 
L 583.30343 -211.870807 
L 582.753433 -210.735448 
L 582.217772 -209.600088 
L 581.702202 -208.464729 
L 581.21183 -207.32937 
L 580.75061 -206.194011 
L 580.320934 -205.058652 
L 579.923363 -203.923293 
L 579.556531 -202.787934 
L 579.217247 -201.652575 
L 578.900763 -200.517216 
L 578.601191 -199.381857 
L 578.312025 -198.246498 
L 578.0267 -197.111139 
L 577.739145 -195.97578 
L 577.444268 -194.84042 
L 577.13834 -193.705061 
L 576.819237 -192.569702 
L 576.486539 -191.434343 
L 576.14148 -190.298984 
L 575.786761 -189.163625 
L 575.426276 -188.028266 
L 575.064746 -186.892907 
L 574.707343 -185.757548 
L 574.359299 -184.622189 
L 574.025558 -183.48683 
L 573.710489 -182.351471 
L 573.417661 -181.216112 
L 573.149718 -180.080752 
L 572.908315 -178.945393 
L 572.694143 -177.810034 
L 572.507007 -176.674675 
L 572.345947 -175.539316 
L 572.209392 -174.403957 
L 572.095323 -173.268598 
L 572.001432 -172.133239 
z
" style="stroke: #3f3f3f; stroke-width: 1.25"/>
    </defs>
    <g clip-path="url(#pa72adb45f0)">
     <use xlink:href="#m95b456b59c" x="0" y="360" style="fill: #e1812c; stroke: #3f3f3f; stroke-width: 1.25"/>
    </g>
   </g>
   <g id="PolyCollection_11">
    <defs>
     <path id="mdab6ab6262" d="M 637.053005 -201.232067 
L 636.020737 -201.232067 
L 635.878093 -202.316373 
L 635.705529 -203.400679 
L 635.499528 -204.484986 
L 635.256865 -205.569292 
L 634.974812 -206.653599 
L 634.65133 -207.737905 
L 634.285269 -208.822212 
L 633.876528 -209.906518 
L 633.426172 -210.990825 
L 632.936491 -212.075131 
L 632.410978 -213.159437 
L 631.85422 -214.243744 
L 631.271703 -215.32805 
L 630.669533 -216.412357 
L 630.054087 -217.496663 
L 629.431621 -218.58097 
L 628.807855 -219.665276 
L 628.187584 -220.749582 
L 627.574337 -221.833889 
L 626.97013 -222.918195 
L 626.37534 -224.002502 
L 625.788725 -225.086808 
L 625.207596 -226.171115 
L 624.628144 -227.255421 
L 624.045911 -228.339728 
L 623.456363 -229.424034 
L 622.855535 -230.50834 
L 622.240695 -231.592647 
L 621.610965 -232.676953 
L 620.96786 -233.76126 
L 620.315668 -234.845566 
L 619.661652 -235.929873 
L 619.016033 -237.014179 
L 618.39174 -238.098485 
L 617.803936 -239.182792 
L 617.269338 -240.267098 
L 616.805378 -241.351405 
L 616.429254 -242.435711 
L 616.156931 -243.520018 
L 616.002176 -244.604324 
L 615.975683 -245.688631 
L 616.084354 -246.772937 
L 616.330788 -247.857243 
L 616.713019 -248.94155 
L 617.224515 -250.025856 
L 617.854434 -251.110163 
L 618.588131 -252.194469 
L 619.40786 -253.278776 
L 620.293637 -254.363082 
L 621.224193 -255.447388 
L 622.177962 -256.531695 
L 623.134033 -257.616001 
L 624.073013 -258.700308 
L 624.977756 -259.784614 
L 625.833908 -260.868921 
L 626.630268 -261.953227 
L 627.358939 -263.037534 
L 628.015289 -264.12184 
L 628.597736 -265.206146 
L 629.107394 -266.290453 
L 629.547619 -267.374759 
L 629.923495 -268.459066 
L 630.241302 -269.543372 
L 630.50802 -270.627679 
L 630.730882 -271.711985 
L 630.917018 -272.796291 
L 631.073191 -273.880598 
L 631.205643 -274.964904 
L 631.320022 -276.049211 
L 631.421394 -277.133517 
L 631.514301 -278.217824 
L 631.602855 -279.30213 
L 631.690818 -280.386437 
L 631.781678 -281.470743 
L 631.878675 -282.555049 
L 631.984786 -283.639356 
L 632.102668 -284.723662 
L 632.234564 -285.807969 
L 632.382187 -286.892275 
L 632.5466 -287.976582 
L 632.728119 -289.060888 
L 632.926245 -290.145194 
L 633.139645 -291.229501 
L 633.366194 -292.313807 
L 633.603063 -293.398114 
L 633.846868 -294.48242 
L 634.093851 -295.566727 
L 634.340081 -296.651033 
L 634.581671 -297.73534 
L 634.814972 -298.819646 
L 635.036745 -299.903952 
L 635.244294 -300.988259 
L 635.435556 -302.072565 
L 635.609137 -303.156872 
L 635.76431 -304.241178 
L 635.900973 -305.325485 
L 636.019567 -306.409791 
L 636.12099 -307.494097 
L 636.20648 -308.578404 
L 636.867261 -308.578404 
L 636.867261 -308.578404 
L 636.952752 -307.494097 
L 637.054174 -306.409791 
L 637.172769 -305.325485 
L 637.309431 -304.241178 
L 637.464605 -303.156872 
L 637.638186 -302.072565 
L 637.829447 -300.988259 
L 638.036996 -299.903952 
L 638.258769 -298.819646 
L 638.49207 -297.73534 
L 638.73366 -296.651033 
L 638.979891 -295.566727 
L 639.226873 -294.48242 
L 639.470678 -293.398114 
L 639.707547 -292.313807 
L 639.934096 -291.229501 
L 640.147497 -290.145194 
L 640.345622 -289.060888 
L 640.527142 -287.976582 
L 640.691555 -286.892275 
L 640.839177 -285.807969 
L 640.971074 -284.723662 
L 641.088956 -283.639356 
L 641.195067 -282.555049 
L 641.292063 -281.470743 
L 641.382923 -280.386437 
L 641.470887 -279.30213 
L 641.55944 -278.217824 
L 641.652347 -277.133517 
L 641.753719 -276.049211 
L 641.868098 -274.964904 
L 642.00055 -273.880598 
L 642.156724 -272.796291 
L 642.342859 -271.711985 
L 642.565722 -270.627679 
L 642.83244 -269.543372 
L 643.150247 -268.459066 
L 643.526122 -267.374759 
L 643.966347 -266.290453 
L 644.476006 -265.206146 
L 645.058452 -264.12184 
L 645.714803 -263.037534 
L 646.443474 -261.953227 
L 647.239834 -260.868921 
L 648.095986 -259.784614 
L 649.000728 -258.700308 
L 649.939708 -257.616001 
L 650.895779 -256.531695 
L 651.849549 -255.447388 
L 652.780105 -254.363082 
L 653.665882 -253.278776 
L 654.485611 -252.194469 
L 655.219308 -251.110163 
L 655.849227 -250.025856 
L 656.360722 -248.94155 
L 656.742954 -247.857243 
L 656.989387 -246.772937 
L 657.098058 -245.688631 
L 657.071565 -244.604324 
L 656.916811 -243.520018 
L 656.644488 -242.435711 
L 656.268363 -241.351405 
L 655.804403 -240.267098 
L 655.269805 -239.182792 
L 654.682001 -238.098485 
L 654.057708 -237.014179 
L 653.412089 -235.929873 
L 652.758073 -234.845566 
L 652.105881 -233.76126 
L 651.462776 -232.676953 
L 650.833047 -231.592647 
L 650.218206 -230.50834 
L 649.617378 -229.424034 
L 649.02783 -228.339728 
L 648.445598 -227.255421 
L 647.866146 -226.171115 
L 647.285016 -225.086808 
L 646.698401 -224.002502 
L 646.103611 -222.918195 
L 645.499404 -221.833889 
L 644.886157 -220.749582 
L 644.265886 -219.665276 
L 643.64212 -218.58097 
L 643.019654 -217.496663 
L 642.404208 -216.412357 
L 641.802038 -215.32805 
L 641.219521 -214.243744 
L 640.662763 -213.159437 
L 640.13725 -212.075131 
L 639.64757 -210.990825 
L 639.197214 -209.906518 
L 638.788472 -208.822212 
L 638.422411 -207.737905 
L 638.09893 -206.653599 
L 637.816876 -205.569292 
L 637.574214 -204.484986 
L 637.368212 -203.400679 
L 637.195649 -202.316373 
L 637.053005 -201.232067 
z
" style="stroke: #3f3f3f; stroke-width: 1.25"/>
    </defs>
    <g clip-path="url(#pa72adb45f0)">
     <use xlink:href="#mdab6ab6262" x="0" y="360" style="fill: #3274a1; stroke: #3f3f3f; stroke-width: 1.25"/>
    </g>
   </g>
   <g id="PolyCollection_12">
    <defs>
     <path id="m27db59331c" d="M 680.270783 -181.599433 
L 679.287106 -181.599433 
L 679.159016 -182.617837 
L 679.007085 -183.636241 
L 678.829518 -184.654645 
L 678.625049 -185.673049 
L 678.393086 -186.691454 
L 678.133831 -187.709858 
L 677.84837 -188.728262 
L 677.538699 -189.746666 
L 677.207684 -190.76507 
L 676.858956 -191.783474 
L 676.496722 -192.801878 
L 676.125517 -193.820283 
L 675.749901 -194.838687 
L 675.374132 -195.857091 
L 675.001831 -196.875495 
L 674.635693 -197.893899 
L 674.277252 -198.912303 
L 673.92675 -199.930708 
L 673.58311 -200.949112 
L 673.244048 -201.967516 
L 672.906297 -202.98592 
L 672.56594 -204.004324 
L 672.218821 -205.022728 
L 671.860983 -206.041133 
L 671.489089 -207.059537 
L 671.100789 -208.077941 
L 670.694956 -209.096345 
L 670.271787 -210.114749 
L 669.832739 -211.133153 
L 669.380289 -212.151557 
L 668.917564 -213.169962 
L 668.447869 -214.188366 
L 667.974171 -215.20677 
L 667.498619 -216.225174 
L 667.02217 -217.243578 
L 666.544367 -218.261982 
L 666.06334 -219.280387 
L 665.576031 -220.298791 
L 665.078646 -221.317195 
L 664.567286 -222.335599 
L 664.038707 -223.354003 
L 663.49111 -224.372407 
L 662.924865 -225.390811 
L 662.343088 -226.409216 
L 661.751984 -227.42762 
L 661.160895 -228.446024 
L 660.582044 -229.464428 
L 660.029974 -230.482832 
L 659.52074 -231.501236 
L 659.070924 -232.519641 
L 658.696576 -233.538045 
L 658.412168 -234.556449 
L 658.229686 -235.574853 
L 658.157908 -236.593257 
L 658.201955 -237.611661 
L 658.363123 -238.630065 
L 658.638984 -239.64847 
L 659.023748 -240.666874 
L 659.508794 -241.685278 
L 660.083334 -242.703682 
L 660.735113 -243.722086 
L 661.451102 -244.74049 
L 662.218103 -245.758895 
L 663.023266 -246.777299 
L 663.854463 -247.795703 
L 664.700557 -248.814107 
L 665.55155 -249.832511 
L 666.398652 -250.850915 
L 667.234282 -251.86932 
L 668.052042 -252.887724 
L 668.846665 -253.906128 
L 669.613959 -254.924532 
L 670.350753 -255.942936 
L 671.054831 -256.96134 
L 671.724866 -257.979744 
L 672.36033 -258.998149 
L 672.961394 -260.016553 
L 673.528803 -261.034957 
L 674.063729 -262.053361 
L 674.567622 -263.071765 
L 675.042054 -264.090169 
L 675.488581 -265.108574 
L 675.908616 -266.126978 
L 676.30335 -267.145382 
L 676.673699 -268.163786 
L 677.020297 -269.18219 
L 677.343524 -270.200594 
L 677.643562 -271.218998 
L 677.920479 -272.237403 
L 678.174315 -273.255807 
L 678.405174 -274.274211 
L 678.6133 -275.292615 
L 678.799137 -276.311019 
L 678.963368 -277.329423 
L 679.106927 -278.347828 
L 679.230985 -279.366232 
L 679.336926 -280.384636 
L 679.426293 -281.40304 
L 679.50074 -282.421444 
L 680.057149 -282.421444 
L 680.057149 -282.421444 
L 680.131596 -281.40304 
L 680.220963 -280.384636 
L 680.326904 -279.366232 
L 680.450962 -278.347828 
L 680.594521 -277.329423 
L 680.758752 -276.311019 
L 680.94459 -275.292615 
L 681.152715 -274.274211 
L 681.383574 -273.255807 
L 681.637411 -272.237403 
L 681.914327 -271.218998 
L 682.214365 -270.200594 
L 682.537592 -269.18219 
L 682.88419 -268.163786 
L 683.25454 -267.145382 
L 683.649274 -266.126978 
L 684.069309 -265.108574 
L 684.515835 -264.090169 
L 684.990268 -263.071765 
L 685.494161 -262.053361 
L 686.029086 -261.034957 
L 686.596495 -260.016553 
L 687.19756 -258.998149 
L 687.833023 -257.979744 
L 688.503058 -256.96134 
L 689.207136 -255.942936 
L 689.94393 -254.924532 
L 690.711224 -253.906128 
L 691.505847 -252.887724 
L 692.323607 -251.86932 
L 693.159237 -250.850915 
L 694.006339 -249.832511 
L 694.857332 -248.814107 
L 695.703427 -247.795703 
L 696.534624 -246.777299 
L 697.339786 -245.758895 
L 698.106787 -244.74049 
L 698.822776 -243.722086 
L 699.474556 -242.703682 
L 700.049095 -241.685278 
L 700.534141 -240.666874 
L 700.918905 -239.64847 
L 701.194766 -238.630065 
L 701.355934 -237.611661 
L 701.399982 -236.593257 
L 701.328203 -235.574853 
L 701.145721 -234.556449 
L 700.861314 -233.538045 
L 700.486965 -232.519641 
L 700.037149 -231.501236 
L 699.527915 -230.482832 
L 698.975845 -229.464428 
L 698.396994 -228.446024 
L 697.805905 -227.42762 
L 697.214801 -226.409216 
L 696.633024 -225.390811 
L 696.066779 -224.372407 
L 695.519182 -223.354003 
L 694.990604 -222.335599 
L 694.479243 -221.317195 
L 693.981858 -220.298791 
L 693.494549 -219.280387 
L 693.013522 -218.261982 
L 692.535719 -217.243578 
L 692.05927 -216.225174 
L 691.583719 -215.20677 
L 691.11002 -214.188366 
L 690.640325 -213.169962 
L 690.177601 -212.151557 
L 689.72515 -211.133153 
L 689.286102 -210.114749 
L 688.862933 -209.096345 
L 688.4571 -208.077941 
L 688.0688 -207.059537 
L 687.696907 -206.041133 
L 687.339068 -205.022728 
L 686.991949 -204.004324 
L 686.651592 -202.98592 
L 686.313841 -201.967516 
L 685.974779 -200.949112 
L 685.631139 -199.930708 
L 685.280637 -198.912303 
L 684.922196 -197.893899 
L 684.556058 -196.875495 
L 684.183757 -195.857091 
L 683.807988 -194.838687 
L 683.432372 -193.820283 
L 683.061167 -192.801878 
L 682.698933 -191.783474 
L 682.350205 -190.76507 
L 682.01919 -189.746666 
L 681.709519 -188.728262 
L 681.424058 -187.709858 
L 681.164804 -186.691454 
L 680.93284 -185.673049 
L 680.728371 -184.654645 
L 680.550804 -183.636241 
L 680.398873 -182.617837 
L 680.270783 -181.599433 
z
" style="stroke: #3f3f3f; stroke-width: 1.25"/>
    </defs>
    <g clip-path="url(#pa72adb45f0)">
     <use xlink:href="#m27db59331c" x="0" y="360" style="fill: #e1812c; stroke: #3f3f3f; stroke-width: 1.25"/>
    </g>
   </g>
   <g id="patch_6">
    <path d="M 441.947538 256.954968 
L 441.947538 256.954968 
L 441.947538 256.954968 
L 441.947538 256.954968 
z
" clip-path="url(#pa72adb45f0)" style="fill: #3274a1; stroke: #3f3f3f; stroke-width: 1.25; stroke-linejoin: miter"/>
   </g>
   <g id="patch_7">
    <path d="M 441.947538 256.954968 
L 441.947538 256.954968 
L 441.947538 256.954968 
L 441.947538 256.954968 
z
" clip-path="url(#pa72adb45f0)" style="fill: #e1812c; stroke: #3f3f3f; stroke-width: 1.25; stroke-linejoin: miter"/>
   </g>
   <g id="line2d_31">
    <path d="M 420.326501 145.932975 
L 420.326501 94.615585 
" clip-path="url(#pa72adb45f0)" style="fill: none; stroke: #3f3f3f; stroke-width: 1.875; stroke-linecap: round"/>
   </g>
   <g id="line2d_32">
    <path d="M 420.326501 131.557073 
L 420.326501 110.615183 
" clip-path="url(#pa72adb45f0)" style="fill: none; stroke: #3f3f3f; stroke-width: 5.625; stroke-linecap: round"/>
   </g>
   <g id="line2d_33">
    <path d="M 420.326501 119.490132 
" clip-path="url(#pa72adb45f0)" style="fill: none; stroke: #3f3f3f; stroke-width: 1.5; stroke-linecap: round"/>
    <g clip-path="url(#pa72adb45f0)">
     <use xlink:href="#m1d6d86383d" x="420.326501" y="119.490132" style="fill: #ffffff; stroke: #ffffff; stroke-width: 1.125"/>
    </g>
   </g>
   <g id="line2d_34">
    <path d="M 463.568575 167.540682 
L 463.568575 98.240745 
" clip-path="url(#pa72adb45f0)" style="fill: none; stroke: #3f3f3f; stroke-width: 1.875; stroke-linecap: round"/>
   </g>
   <g id="line2d_35">
    <path d="M 463.568575 145.81747 
L 463.568575 122.818697 
" clip-path="url(#pa72adb45f0)" style="fill: none; stroke: #3f3f3f; stroke-width: 5.625; stroke-linecap: round"/>
   </g>
   <g id="line2d_36">
    <path d="M 463.568575 132.633273 
" clip-path="url(#pa72adb45f0)" style="fill: none; stroke: #3f3f3f; stroke-width: 1.5; stroke-linecap: round"/>
    <g clip-path="url(#pa72adb45f0)">
     <use xlink:href="#m1d6d86383d" x="463.568575" y="132.633273" style="fill: #ffffff; stroke: #ffffff; stroke-width: 1.125"/>
    </g>
   </g>
   <g id="line2d_37">
    <path d="M 528.431686 145.56826 
L 528.431686 87.320708 
" clip-path="url(#pa72adb45f0)" style="fill: none; stroke: #3f3f3f; stroke-width: 1.875; stroke-linecap: round"/>
   </g>
   <g id="line2d_38">
    <path d="M 528.431686 126.765783 
L 528.431686 109.889477 
" clip-path="url(#pa72adb45f0)" style="fill: none; stroke: #3f3f3f; stroke-width: 5.625; stroke-linecap: round"/>
   </g>
   <g id="line2d_39">
    <path d="M 528.431686 115.896586 
" clip-path="url(#pa72adb45f0)" style="fill: none; stroke: #3f3f3f; stroke-width: 1.5; stroke-linecap: round"/>
    <g clip-path="url(#pa72adb45f0)">
     <use xlink:href="#m1d6d86383d" x="528.431686" y="115.896586" style="fill: #ffffff; stroke: #ffffff; stroke-width: 1.125"/>
    </g>
   </g>
   <g id="line2d_40">
    <path d="M 571.67376 168.584658 
L 571.67376 94.748316 
" clip-path="url(#pa72adb45f0)" style="fill: none; stroke: #3f3f3f; stroke-width: 1.875; stroke-linecap: round"/>
   </g>
   <g id="line2d_41">
    <path d="M 571.67376 142.855759 
L 571.67376 118.837593 
" clip-path="url(#pa72adb45f0)" style="fill: none; stroke: #3f3f3f; stroke-width: 5.625; stroke-linecap: round"/>
   </g>
   <g id="line2d_42">
    <path d="M 571.67376 128.966173 
" clip-path="url(#pa72adb45f0)" style="fill: none; stroke: #3f3f3f; stroke-width: 1.5; stroke-linecap: round"/>
    <g clip-path="url(#pa72adb45f0)">
     <use xlink:href="#m1d6d86383d" x="571.67376" y="128.966173" style="fill: #ffffff; stroke: #ffffff; stroke-width: 1.125"/>
    </g>
   </g>
   <g id="line2d_43">
    <path d="M 636.536871 139.354445 
L 636.536871 87.42519 
" clip-path="url(#pa72adb45f0)" style="fill: none; stroke: #3f3f3f; stroke-width: 1.875; stroke-linecap: round"/>
   </g>
   <g id="line2d_44">
    <path d="M 636.536871 122.235808 
L 636.536871 107.089492 
" clip-path="url(#pa72adb45f0)" style="fill: none; stroke: #3f3f3f; stroke-width: 5.625; stroke-linecap: round"/>
   </g>
   <g id="line2d_45">
    <path d="M 636.536871 114.003956 
" clip-path="url(#pa72adb45f0)" style="fill: none; stroke: #3f3f3f; stroke-width: 1.5; stroke-linecap: round"/>
    <g clip-path="url(#pa72adb45f0)">
     <use xlink:href="#m1d6d86383d" x="636.536871" y="114.003956" style="fill: #ffffff; stroke: #ffffff; stroke-width: 1.125"/>
    </g>
   </g>
   <g id="line2d_46">
    <path d="M 679.778945 160.580479 
L 679.778945 95.398644 
" clip-path="url(#pa72adb45f0)" style="fill: none; stroke: #3f3f3f; stroke-width: 1.875; stroke-linecap: round"/>
   </g>
   <g id="line2d_47">
    <path d="M 679.778945 140.405061 
L 679.778945 117.082207 
" clip-path="url(#pa72adb45f0)" style="fill: none; stroke: #3f3f3f; stroke-width: 5.625; stroke-linecap: round"/>
   </g>
   <g id="line2d_48">
    <path d="M 679.778945 125.037009 
" clip-path="url(#pa72adb45f0)" style="fill: none; stroke: #3f3f3f; stroke-width: 1.5; stroke-linecap: round"/>
    <g clip-path="url(#pa72adb45f0)">
     <use xlink:href="#m1d6d86383d" x="679.778945" y="125.037009" style="fill: #ffffff; stroke: #ffffff; stroke-width: 1.125"/>
    </g>
   </g>
   <g id="patch_8">
    <path d="M 387.894946 318.04 
L 387.894946 24.72 
" style="fill: none; stroke: #cccccc; stroke-width: 0.8; stroke-linejoin: miter; stroke-linecap: square"/>
   </g>
   <g id="patch_9">
    <path d="M 387.894946 318.04 
L 712.2105 318.04 
" style="fill: none; stroke: #cccccc; stroke-width: 0.8; stroke-linejoin: miter; stroke-linecap: square"/>
   </g>
   <g id="text_17">
    <!-- sex = m -->
    <g style="fill: #262626" transform="translate(532.408973 18.72) scale(0.1 -0.1)">
     <use xlink:href="#ArialMT-73"/>
     <use xlink:href="#ArialMT-65" x="50"/>
     <use xlink:href="#ArialMT-78" x="105.615234"/>
     <use xlink:href="#ArialMT-20" x="155.615234"/>
     <use xlink:href="#ArialMT-3d" x="183.398438"/>
     <use xlink:href="#ArialMT-20" x="241.796875"/>
     <use xlink:href="#ArialMT-6d" x="269.580078"/>
    </g>
   </g>
  </g>
  <g id="legend_1">
   <g id="text_18">
    <!-- Time -->
    <g style="fill: #262626" transform="translate(733.633594 168.439844) scale(0.1 -0.1)">
     <defs>
      <path id="ArialMT-54" d="M 1659 0 
L 1659 4041 
L 150 4041 
L 150 4581 
L 3781 4581 
L 3781 4041 
L 2266 4041 
L 2266 0 
L 1659 0 
z
" transform="scale(0.015625)"/>
     </defs>
     <use xlink:href="#ArialMT-54"/>
     <use xlink:href="#ArialMT-69" x="57.333984"/>
     <use xlink:href="#ArialMT-6d" x="79.550781"/>
     <use xlink:href="#ArialMT-65" x="162.851562"/>
    </g>
   </g>
   <g id="patch_10">
    <path d="M 719.1625 182.585156 
L 739.1625 182.585156 
L 739.1625 175.585156 
L 719.1625 175.585156 
z
" style="fill: #3274a1; stroke: #3f3f3f; stroke-width: 1.25; stroke-linejoin: miter"/>
   </g>
   <g id="text_19">
    <!-- initial -->
    <g style="fill: #262626" transform="translate(747.1625 182.585156) scale(0.1 -0.1)">
     <use xlink:href="#ArialMT-69"/>
     <use xlink:href="#ArialMT-6e" x="22.216797"/>
     <use xlink:href="#ArialMT-69" x="77.832031"/>
     <use xlink:href="#ArialMT-74" x="100.048828"/>
     <use xlink:href="#ArialMT-69" x="127.832031"/>
     <use xlink:href="#ArialMT-61" x="150.048828"/>
     <use xlink:href="#ArialMT-6c" x="205.664062"/>
    </g>
   </g>
   <g id="patch_11">
    <path d="M 719.1625 196.730469 
L 739.1625 196.730469 
L 739.1625 189.730469 
L 719.1625 189.730469 
z
" style="fill: #e1812c; stroke: #3f3f3f; stroke-width: 1.25; stroke-linejoin: miter"/>
   </g>
   <g id="text_20">
    <!-- final -->
    <g style="fill: #262626" transform="translate(747.1625 196.730469) scale(0.1 -0.1)">
     <use xlink:href="#ArialMT-66"/>
     <use xlink:href="#ArialMT-69" x="27.783203"/>
     <use xlink:href="#ArialMT-6e" x="50"/>
     <use xlink:href="#ArialMT-61" x="105.615234"/>
     <use xlink:href="#ArialMT-6c" x="161.230469"/>
    </g>
   </g>
  </g>
 </g>
 <defs>
  <clipPath id="p9753c8297b">
   <rect x="52.7955" y="24.72" width="324.315554" height="293.32"/>
  </clipPath>
  <clipPath id="pa72adb45f0">
   <rect x="387.894946" y="24.72" width="324.315554" height="293.32"/>
  </clipPath>
 </defs>
</svg>
