<?xml version="1.0" encoding="utf-8" standalone="no"?>
<!DOCTYPE svg PUBLIC "-//W3C//DTD SVG 1.1//EN"
  "http://www.w3.org/Graphics/SVG/1.1/DTD/svg11.dtd">
<svg xmlns:xlink="http://www.w3.org/1999/xlink" width="778.95pt" height="360pt" viewBox="0 0 778.95 360" xmlns="http://www.w3.org/2000/svg" version="1.1">
 <metadata>
  <rdf:RDF xmlns:dc="http://purl.org/dc/elements/1.1/" xmlns:cc="http://creativecommons.org/ns#" xmlns:rdf="http://www.w3.org/1999/02/22-rdf-syntax-ns#">
   <cc:Work>
    <dc:type rdf:resource="http://purl.org/dc/dcmitype/StillImage"/>
    <dc:date>2024-09-11T14:57:41.870979</dc:date>
    <dc:format>image/svg+xml</dc:format>
    <dc:creator>
     <cc:Agent>
      <dc:title>Matplotlib v3.8.3, https://matplotlib.org/</dc:title>
     </cc:Agent>
    </dc:creator>
   </cc:Work>
  </rdf:RDF>
 </metadata>
 <defs>
  <style type="text/css">*{stroke-linejoin: round; stroke-linecap: butt}</style>
 </defs>
 <g id="figure_1">
  <g id="patch_1">
   <path d="M 0 360 
L 778.95 360 
L 778.95 0 
L 0 0 
z
" style="fill: #ffffff"/>
  </g>
  <g id="axes_1">
   <g id="patch_2">
    <path d="M 46.5639 318.04 
L 373.991362 318.04 
L 373.991362 24.72 
L 46.5639 24.72 
z
" style="fill: #ffffff"/>
   </g>
   <g id="matplotlib.axis_1">
    <g id="xtick_1">
     <g id="text_1">
      <!-- 1 -->
      <g style="fill: #262626" transform="translate(98.354675 332.197812) scale(0.1 -0.1)">
       <defs>
        <path id="ArialMT-31" d="M 2384 0 
L 1822 0 
L 1822 3584 
Q 1619 3391 1289 3197 
Q 959 3003 697 2906 
L 697 3450 
Q 1169 3672 1522 3987 
Q 1875 4303 2022 4600 
L 2384 4600 
L 2384 0 
z
" transform="scale(0.015625)"/>
       </defs>
       <use xlink:href="#ArialMT-31"/>
      </g>
     </g>
    </g>
    <g id="xtick_2">
     <g id="text_2">
      <!-- 2 -->
      <g style="fill: #262626" transform="translate(207.497162 332.197812) scale(0.1 -0.1)">
       <defs>
        <path id="ArialMT-32" d="M 3222 541 
L 3222 0 
L 194 0 
Q 188 203 259 391 
Q 375 700 629 1000 
Q 884 1300 1366 1694 
Q 2113 2306 2375 2664 
Q 2638 3022 2638 3341 
Q 2638 3675 2398 3904 
Q 2159 4134 1775 4134 
Q 1369 4134 1125 3890 
Q 881 3647 878 3216 
L 300 3275 
Q 359 3922 746 4261 
Q 1134 4600 1788 4600 
Q 2447 4600 2831 4234 
Q 3216 3869 3216 3328 
Q 3216 3053 3103 2787 
Q 2991 2522 2730 2228 
Q 2469 1934 1863 1422 
Q 1356 997 1212 845 
Q 1069 694 975 541 
L 3222 541 
z
" transform="scale(0.015625)"/>
       </defs>
       <use xlink:href="#ArialMT-32"/>
      </g>
     </g>
    </g>
    <g id="xtick_3">
     <g id="text_3">
      <!-- 3 -->
      <g style="fill: #262626" transform="translate(316.639649 332.197812) scale(0.1 -0.1)">
       <defs>
        <path id="ArialMT-33" d="M 269 1209 
L 831 1284 
Q 928 806 1161 595 
Q 1394 384 1728 384 
Q 2125 384 2398 659 
Q 2672 934 2672 1341 
Q 2672 1728 2419 1979 
Q 2166 2231 1775 2231 
Q 1616 2231 1378 2169 
L 1441 2663 
Q 1497 2656 1531 2656 
Q 1891 2656 2178 2843 
Q 2466 3031 2466 3422 
Q 2466 3731 2256 3934 
Q 2047 4138 1716 4138 
Q 1388 4138 1169 3931 
Q 950 3725 888 3313 
L 325 3413 
Q 428 3978 793 4289 
Q 1159 4600 1703 4600 
Q 2078 4600 2393 4439 
Q 2709 4278 2876 4000 
Q 3044 3722 3044 3409 
Q 3044 3113 2884 2869 
Q 2725 2625 2413 2481 
Q 2819 2388 3044 2092 
Q 3269 1797 3269 1353 
Q 3269 753 2831 336 
Q 2394 -81 1725 -81 
Q 1122 -81 723 278 
Q 325 638 269 1209 
z
" transform="scale(0.015625)"/>
       </defs>
       <use xlink:href="#ArialMT-33"/>
      </g>
     </g>
    </g>
    <g id="text_4">
     <!-- Effort level -->
     <g style="fill: #262626" transform="translate(186.7456 345.343125) scale(0.1 -0.1)">
      <defs>
       <path id="ArialMT-45" d="M 506 0 
L 506 4581 
L 3819 4581 
L 3819 4041 
L 1113 4041 
L 1113 2638 
L 3647 2638 
L 3647 2100 
L 1113 2100 
L 1113 541 
L 3925 541 
L 3925 0 
L 506 0 
z
" transform="scale(0.015625)"/>
       <path id="ArialMT-66" d="M 556 0 
L 556 2881 
L 59 2881 
L 59 3319 
L 556 3319 
L 556 3672 
Q 556 4006 616 4169 
Q 697 4388 901 4523 
Q 1106 4659 1475 4659 
Q 1713 4659 2000 4603 
L 1916 4113 
Q 1741 4144 1584 4144 
Q 1328 4144 1222 4034 
Q 1116 3925 1116 3625 
L 1116 3319 
L 1763 3319 
L 1763 2881 
L 1116 2881 
L 1116 0 
L 556 0 
z
" transform="scale(0.015625)"/>
       <path id="ArialMT-6f" d="M 213 1659 
Q 213 2581 725 3025 
Q 1153 3394 1769 3394 
Q 2453 3394 2887 2945 
Q 3322 2497 3322 1706 
Q 3322 1066 3130 698 
Q 2938 331 2570 128 
Q 2203 -75 1769 -75 
Q 1072 -75 642 372 
Q 213 819 213 1659 
z
M 791 1659 
Q 791 1022 1069 705 
Q 1347 388 1769 388 
Q 2188 388 2466 706 
Q 2744 1025 2744 1678 
Q 2744 2294 2464 2611 
Q 2184 2928 1769 2928 
Q 1347 2928 1069 2612 
Q 791 2297 791 1659 
z
" transform="scale(0.015625)"/>
       <path id="ArialMT-72" d="M 416 0 
L 416 3319 
L 922 3319 
L 922 2816 
Q 1116 3169 1280 3281 
Q 1444 3394 1641 3394 
Q 1925 3394 2219 3213 
L 2025 2691 
Q 1819 2813 1613 2813 
Q 1428 2813 1281 2702 
Q 1134 2591 1072 2394 
Q 978 2094 978 1738 
L 978 0 
L 416 0 
z
" transform="scale(0.015625)"/>
       <path id="ArialMT-74" d="M 1650 503 
L 1731 6 
Q 1494 -44 1306 -44 
Q 1000 -44 831 53 
Q 663 150 594 308 
Q 525 466 525 972 
L 525 2881 
L 113 2881 
L 113 3319 
L 525 3319 
L 525 4141 
L 1084 4478 
L 1084 3319 
L 1650 3319 
L 1650 2881 
L 1084 2881 
L 1084 941 
Q 1084 700 1114 631 
Q 1144 563 1211 522 
Q 1278 481 1403 481 
Q 1497 481 1650 503 
z
" transform="scale(0.015625)"/>
       <path id="ArialMT-20" transform="scale(0.015625)"/>
       <path id="ArialMT-6c" d="M 409 0 
L 409 4581 
L 972 4581 
L 972 0 
L 409 0 
z
" transform="scale(0.015625)"/>
       <path id="ArialMT-65" d="M 2694 1069 
L 3275 997 
Q 3138 488 2766 206 
Q 2394 -75 1816 -75 
Q 1088 -75 661 373 
Q 234 822 234 1631 
Q 234 2469 665 2931 
Q 1097 3394 1784 3394 
Q 2450 3394 2872 2941 
Q 3294 2488 3294 1666 
Q 3294 1616 3291 1516 
L 816 1516 
Q 847 969 1125 678 
Q 1403 388 1819 388 
Q 2128 388 2347 550 
Q 2566 713 2694 1069 
z
M 847 1978 
L 2700 1978 
Q 2663 2397 2488 2606 
Q 2219 2931 1791 2931 
Q 1403 2931 1139 2672 
Q 875 2413 847 1978 
z
" transform="scale(0.015625)"/>
       <path id="ArialMT-76" d="M 1344 0 
L 81 3319 
L 675 3319 
L 1388 1331 
Q 1503 1009 1600 663 
Q 1675 925 1809 1294 
L 2547 3319 
L 3125 3319 
L 1869 0 
L 1344 0 
z
" transform="scale(0.015625)"/>
      </defs>
      <use xlink:href="#ArialMT-45"/>
      <use xlink:href="#ArialMT-66" x="66.699219"/>
      <use xlink:href="#ArialMT-66" x="92.732422"/>
      <use xlink:href="#ArialMT-6f" x="120.515625"/>
      <use xlink:href="#ArialMT-72" x="176.130859"/>
      <use xlink:href="#ArialMT-74" x="209.431641"/>
      <use xlink:href="#ArialMT-20" x="237.214844"/>
      <use xlink:href="#ArialMT-6c" x="264.998047"/>
      <use xlink:href="#ArialMT-65" x="287.214844"/>
      <use xlink:href="#ArialMT-76" x="342.830078"/>
      <use xlink:href="#ArialMT-65" x="392.830078"/>
      <use xlink:href="#ArialMT-6c" x="448.445312"/>
     </g>
    </g>
   </g>
   <g id="matplotlib.axis_2">
    <g id="ytick_1">
     <g id="line2d_1">
      <path d="M 46.5639 271.595464 
L 373.991362 271.595464 
" clip-path="url(#pc8a244d6d8)" style="fill: none; stroke: #cccccc; stroke-width: 0.8; stroke-linecap: round"/>
     </g>
     <g id="text_5">
      <!-- 0 -->
      <g style="fill: #262626" transform="translate(34.002963 275.17437) scale(0.1 -0.1)">
       <defs>
        <path id="ArialMT-30" d="M 266 2259 
Q 266 3072 433 3567 
Q 600 4063 929 4331 
Q 1259 4600 1759 4600 
Q 2128 4600 2406 4451 
Q 2684 4303 2865 4023 
Q 3047 3744 3150 3342 
Q 3253 2941 3253 2259 
Q 3253 1453 3087 958 
Q 2922 463 2592 192 
Q 2263 -78 1759 -78 
Q 1097 -78 719 397 
Q 266 969 266 2259 
z
M 844 2259 
Q 844 1131 1108 757 
Q 1372 384 1759 384 
Q 2147 384 2411 759 
Q 2675 1134 2675 2259 
Q 2675 3391 2411 3762 
Q 2147 4134 1753 4134 
Q 1366 4134 1134 3806 
Q 844 3388 844 2259 
z
" transform="scale(0.015625)"/>
       </defs>
       <use xlink:href="#ArialMT-30"/>
      </g>
     </g>
    </g>
    <g id="ytick_2">
     <g id="line2d_2">
      <path d="M 46.5639 207.538294 
L 373.991362 207.538294 
" clip-path="url(#pc8a244d6d8)" style="fill: none; stroke: #cccccc; stroke-width: 0.8; stroke-linecap: round"/>
     </g>
     <g id="text_6">
      <!-- 10 -->
      <g style="fill: #262626" transform="translate(28.442025 211.117201) scale(0.1 -0.1)">
       <use xlink:href="#ArialMT-31"/>
       <use xlink:href="#ArialMT-30" x="55.615234"/>
      </g>
     </g>
    </g>
    <g id="ytick_3">
     <g id="line2d_3">
      <path d="M 46.5639 143.481125 
L 373.991362 143.481125 
" clip-path="url(#pc8a244d6d8)" style="fill: none; stroke: #cccccc; stroke-width: 0.8; stroke-linecap: round"/>
     </g>
     <g id="text_7">
      <!-- 20 -->
      <g style="fill: #262626" transform="translate(28.442025 147.060031) scale(0.1 -0.1)">
       <use xlink:href="#ArialMT-32"/>
       <use xlink:href="#ArialMT-30" x="55.615234"/>
      </g>
     </g>
    </g>
    <g id="ytick_4">
     <g id="line2d_4">
      <path d="M 46.5639 79.423956 
L 373.991362 79.423956 
" clip-path="url(#pc8a244d6d8)" style="fill: none; stroke: #cccccc; stroke-width: 0.8; stroke-linecap: round"/>
     </g>
     <g id="text_8">
      <!-- 30 -->
      <g style="fill: #262626" transform="translate(28.442025 83.002862) scale(0.1 -0.1)">
       <use xlink:href="#ArialMT-33"/>
       <use xlink:href="#ArialMT-30" x="55.615234"/>
      </g>
     </g>
    </g>
    <g id="text_9">
     <!-- Relative O2 intake (ml/kg/min) -->
     <g style="fill: #262626" transform="translate(22.337337 238.341719) rotate(-90) scale(0.1 -0.1)">
      <defs>
       <path id="ArialMT-52" d="M 503 0 
L 503 4581 
L 2534 4581 
Q 3147 4581 3465 4457 
Q 3784 4334 3975 4021 
Q 4166 3709 4166 3331 
Q 4166 2844 3850 2509 
Q 3534 2175 2875 2084 
Q 3116 1969 3241 1856 
Q 3506 1613 3744 1247 
L 4541 0 
L 3778 0 
L 3172 953 
Q 2906 1366 2734 1584 
Q 2563 1803 2427 1890 
Q 2291 1978 2150 2013 
Q 2047 2034 1813 2034 
L 1109 2034 
L 1109 0 
L 503 0 
z
M 1109 2559 
L 2413 2559 
Q 2828 2559 3062 2645 
Q 3297 2731 3419 2920 
Q 3541 3109 3541 3331 
Q 3541 3656 3305 3865 
Q 3069 4075 2559 4075 
L 1109 4075 
L 1109 2559 
z
" transform="scale(0.015625)"/>
       <path id="ArialMT-61" d="M 2588 409 
Q 2275 144 1986 34 
Q 1697 -75 1366 -75 
Q 819 -75 525 192 
Q 231 459 231 875 
Q 231 1119 342 1320 
Q 453 1522 633 1644 
Q 813 1766 1038 1828 
Q 1203 1872 1538 1913 
Q 2219 1994 2541 2106 
Q 2544 2222 2544 2253 
Q 2544 2597 2384 2738 
Q 2169 2928 1744 2928 
Q 1347 2928 1158 2789 
Q 969 2650 878 2297 
L 328 2372 
Q 403 2725 575 2942 
Q 747 3159 1072 3276 
Q 1397 3394 1825 3394 
Q 2250 3394 2515 3294 
Q 2781 3194 2906 3042 
Q 3031 2891 3081 2659 
Q 3109 2516 3109 2141 
L 3109 1391 
Q 3109 606 3145 398 
Q 3181 191 3288 0 
L 2700 0 
Q 2613 175 2588 409 
z
M 2541 1666 
Q 2234 1541 1622 1453 
Q 1275 1403 1131 1340 
Q 988 1278 909 1158 
Q 831 1038 831 891 
Q 831 666 1001 516 
Q 1172 366 1500 366 
Q 1825 366 2078 508 
Q 2331 650 2450 897 
Q 2541 1088 2541 1459 
L 2541 1666 
z
" transform="scale(0.015625)"/>
       <path id="ArialMT-69" d="M 425 3934 
L 425 4581 
L 988 4581 
L 988 3934 
L 425 3934 
z
M 425 0 
L 425 3319 
L 988 3319 
L 988 0 
L 425 0 
z
" transform="scale(0.015625)"/>
       <path id="ArialMT-4f" d="M 309 2231 
Q 309 3372 921 4017 
Q 1534 4663 2503 4663 
Q 3138 4663 3647 4359 
Q 4156 4056 4423 3514 
Q 4691 2972 4691 2284 
Q 4691 1588 4409 1038 
Q 4128 488 3612 205 
Q 3097 -78 2500 -78 
Q 1853 -78 1343 234 
Q 834 547 571 1087 
Q 309 1628 309 2231 
z
M 934 2222 
Q 934 1394 1379 917 
Q 1825 441 2497 441 
Q 3181 441 3623 922 
Q 4066 1403 4066 2288 
Q 4066 2847 3877 3264 
Q 3688 3681 3323 3911 
Q 2959 4141 2506 4141 
Q 1863 4141 1398 3698 
Q 934 3256 934 2222 
z
" transform="scale(0.015625)"/>
       <path id="ArialMT-6e" d="M 422 0 
L 422 3319 
L 928 3319 
L 928 2847 
Q 1294 3394 1984 3394 
Q 2284 3394 2536 3286 
Q 2788 3178 2913 3003 
Q 3038 2828 3088 2588 
Q 3119 2431 3119 2041 
L 3119 0 
L 2556 0 
L 2556 2019 
Q 2556 2363 2490 2533 
Q 2425 2703 2258 2804 
Q 2091 2906 1866 2906 
Q 1506 2906 1245 2678 
Q 984 2450 984 1813 
L 984 0 
L 422 0 
z
" transform="scale(0.015625)"/>
       <path id="ArialMT-6b" d="M 425 0 
L 425 4581 
L 988 4581 
L 988 1969 
L 2319 3319 
L 3047 3319 
L 1778 2088 
L 3175 0 
L 2481 0 
L 1384 1697 
L 988 1316 
L 988 0 
L 425 0 
z
" transform="scale(0.015625)"/>
       <path id="ArialMT-28" d="M 1497 -1347 
Q 1031 -759 709 28 
Q 388 816 388 1659 
Q 388 2403 628 3084 
Q 909 3875 1497 4659 
L 1900 4659 
Q 1522 4009 1400 3731 
Q 1209 3300 1100 2831 
Q 966 2247 966 1656 
Q 966 153 1900 -1347 
L 1497 -1347 
z
" transform="scale(0.015625)"/>
       <path id="ArialMT-6d" d="M 422 0 
L 422 3319 
L 925 3319 
L 925 2853 
Q 1081 3097 1340 3245 
Q 1600 3394 1931 3394 
Q 2300 3394 2536 3241 
Q 2772 3088 2869 2813 
Q 3263 3394 3894 3394 
Q 4388 3394 4653 3120 
Q 4919 2847 4919 2278 
L 4919 0 
L 4359 0 
L 4359 2091 
Q 4359 2428 4304 2576 
Q 4250 2725 4106 2815 
Q 3963 2906 3769 2906 
Q 3419 2906 3187 2673 
Q 2956 2441 2956 1928 
L 2956 0 
L 2394 0 
L 2394 2156 
Q 2394 2531 2256 2718 
Q 2119 2906 1806 2906 
Q 1569 2906 1367 2781 
Q 1166 2656 1075 2415 
Q 984 2175 984 1722 
L 984 0 
L 422 0 
z
" transform="scale(0.015625)"/>
       <path id="ArialMT-2f" d="M 0 -78 
L 1328 4659 
L 1778 4659 
L 453 -78 
L 0 -78 
z
" transform="scale(0.015625)"/>
       <path id="ArialMT-67" d="M 319 -275 
L 866 -356 
Q 900 -609 1056 -725 
Q 1266 -881 1628 -881 
Q 2019 -881 2231 -725 
Q 2444 -569 2519 -288 
Q 2563 -116 2559 434 
Q 2191 0 1641 0 
Q 956 0 581 494 
Q 206 988 206 1678 
Q 206 2153 378 2554 
Q 550 2956 876 3175 
Q 1203 3394 1644 3394 
Q 2231 3394 2613 2919 
L 2613 3319 
L 3131 3319 
L 3131 450 
Q 3131 -325 2973 -648 
Q 2816 -972 2473 -1159 
Q 2131 -1347 1631 -1347 
Q 1038 -1347 672 -1080 
Q 306 -813 319 -275 
z
M 784 1719 
Q 784 1066 1043 766 
Q 1303 466 1694 466 
Q 2081 466 2343 764 
Q 2606 1063 2606 1700 
Q 2606 2309 2336 2618 
Q 2066 2928 1684 2928 
Q 1309 2928 1046 2623 
Q 784 2319 784 1719 
z
" transform="scale(0.015625)"/>
       <path id="ArialMT-29" d="M 791 -1347 
L 388 -1347 
Q 1322 153 1322 1656 
Q 1322 2244 1188 2822 
Q 1081 3291 891 3722 
Q 769 4003 388 4659 
L 791 4659 
Q 1378 3875 1659 3084 
Q 1900 2403 1900 1659 
Q 1900 816 1576 28 
Q 1253 -759 791 -1347 
z
" transform="scale(0.015625)"/>
      </defs>
      <use xlink:href="#ArialMT-52"/>
      <use xlink:href="#ArialMT-65" x="72.216797"/>
      <use xlink:href="#ArialMT-6c" x="127.832031"/>
      <use xlink:href="#ArialMT-61" x="150.048828"/>
      <use xlink:href="#ArialMT-74" x="205.664062"/>
      <use xlink:href="#ArialMT-69" x="233.447266"/>
      <use xlink:href="#ArialMT-76" x="255.664062"/>
      <use xlink:href="#ArialMT-65" x="305.664062"/>
      <use xlink:href="#ArialMT-20" x="361.279297"/>
      <use xlink:href="#ArialMT-4f" x="389.0625"/>
      <use xlink:href="#ArialMT-32" x="466.845703"/>
      <use xlink:href="#ArialMT-20" x="522.460938"/>
      <use xlink:href="#ArialMT-69" x="550.244141"/>
      <use xlink:href="#ArialMT-6e" x="572.460938"/>
      <use xlink:href="#ArialMT-74" x="628.076172"/>
      <use xlink:href="#ArialMT-61" x="655.859375"/>
      <use xlink:href="#ArialMT-6b" x="711.474609"/>
      <use xlink:href="#ArialMT-65" x="761.474609"/>
      <use xlink:href="#ArialMT-20" x="817.089844"/>
      <use xlink:href="#ArialMT-28" x="844.873047"/>
      <use xlink:href="#ArialMT-6d" x="878.173828"/>
      <use xlink:href="#ArialMT-6c" x="961.474609"/>
      <use xlink:href="#ArialMT-2f" x="983.691406"/>
      <use xlink:href="#ArialMT-6b" x="1011.474609"/>
      <use xlink:href="#ArialMT-67" x="1061.474609"/>
      <use xlink:href="#ArialMT-2f" x="1117.089844"/>
      <use xlink:href="#ArialMT-6d" x="1144.873047"/>
      <use xlink:href="#ArialMT-69" x="1228.173828"/>
      <use xlink:href="#ArialMT-6e" x="1250.390625"/>
      <use xlink:href="#ArialMT-29" x="1306.005859"/>
     </g>
    </g>
   </g>
   <g id="PolyCollection_1">
    <defs>
     <path id="m758a3173bf" d="M 79.919302 -135.496172 
L 78.693991 -135.496172 
L 78.540995 -136.443811 
L 78.35788 -137.391451 
L 78.140855 -138.339091 
L 77.886168 -139.286731 
L 77.590239 -140.234371 
L 77.249816 -141.18201 
L 76.862149 -142.12965 
L 76.425167 -143.07729 
L 75.937662 -144.02493 
L 75.399459 -144.972569 
L 74.811563 -145.920209 
L 74.176284 -146.867849 
L 73.497305 -147.815489 
L 72.779705 -148.763129 
L 72.029918 -149.710768 
L 71.255619 -150.658408 
L 70.465548 -151.606048 
L 69.669261 -152.553688 
L 68.876826 -153.501327 
L 68.098469 -154.448967 
L 67.344198 -155.396607 
L 66.623407 -156.344247 
L 65.944501 -157.291887 
L 65.314552 -158.239526 
L 64.739021 -159.187166 
L 64.221546 -160.134806 
L 63.76383 -161.082446 
L 63.365628 -162.030085 
L 63.024829 -162.977725 
L 62.737647 -163.925365 
L 62.498881 -164.873005 
L 62.302257 -165.820645 
L 62.140801 -166.768284 
L 62.007238 -167.715924 
L 61.894385 -168.663564 
L 61.795516 -169.611204 
L 61.704671 -170.558843 
L 61.616912 -171.506483 
L 61.528498 -172.454123 
L 61.436984 -173.401763 
L 61.341255 -174.349403 
L 61.241478 -175.297042 
L 61.139017 -176.244682 
L 61.036285 -177.192322 
L 60.936583 -178.139962 
L 60.843913 -179.087601 
L 60.762783 -180.035241 
L 60.698022 -180.982881 
L 60.654595 -181.930521 
L 60.637435 -182.878161 
L 60.651286 -183.8258 
L 60.700555 -184.77344 
L 60.789189 -185.72108 
L 60.920552 -186.66872 
L 61.097321 -187.616359 
L 61.321402 -188.563999 
L 61.593851 -189.511639 
L 61.914825 -190.459279 
L 62.283555 -191.406919 
L 62.69834 -192.354558 
L 63.156579 -193.302198 
L 63.654828 -194.249838 
L 64.188895 -195.197478 
L 64.753957 -196.145117 
L 65.344706 -197.092757 
L 65.955519 -198.040397 
L 66.58063 -198.988037 
L 67.214312 -199.935677 
L 67.851053 -200.883316 
L 68.485706 -201.830956 
L 69.113626 -202.778596 
L 69.730769 -203.726236 
L 70.333752 -204.673875 
L 70.919879 -205.621515 
L 71.48713 -206.569155 
L 72.034106 -207.516795 
L 72.55996 -208.464434 
L 73.064291 -209.412074 
L 73.547043 -210.359714 
L 74.008385 -211.307354 
L 74.448611 -212.254994 
L 74.868046 -213.202633 
L 75.266977 -214.150273 
L 75.645603 -215.097913 
L 76.004016 -216.045553 
L 76.342197 -216.993192 
L 76.660041 -217.940832 
L 76.957394 -218.888472 
L 77.234096 -219.836112 
L 77.490037 -220.783752 
L 77.725203 -221.731391 
L 77.939718 -222.679031 
L 78.13388 -223.626671 
L 78.308174 -224.574311 
L 78.463287 -225.52195 
L 78.600091 -226.46959 
L 78.719629 -227.41723 
L 78.823089 -228.36487 
L 78.911763 -229.31251 
L 79.701529 -229.31251 
L 79.701529 -229.31251 
L 79.790203 -228.36487 
L 79.893663 -227.41723 
L 80.013202 -226.46959 
L 80.150005 -225.52195 
L 80.305118 -224.574311 
L 80.479413 -223.626671 
L 80.673574 -222.679031 
L 80.888089 -221.731391 
L 81.123255 -220.783752 
L 81.379196 -219.836112 
L 81.655898 -218.888472 
L 81.953251 -217.940832 
L 82.271095 -216.993192 
L 82.609276 -216.045553 
L 82.967689 -215.097913 
L 83.346316 -214.150273 
L 83.745246 -213.202633 
L 84.164681 -212.254994 
L 84.604907 -211.307354 
L 85.066249 -210.359714 
L 85.549001 -209.412074 
L 86.053333 -208.464434 
L 86.579186 -207.516795 
L 87.126163 -206.569155 
L 87.693413 -205.621515 
L 88.279541 -204.673875 
L 88.882523 -203.726236 
L 89.499666 -202.778596 
L 90.127586 -201.830956 
L 90.762239 -200.883316 
L 91.39898 -199.935677 
L 92.032662 -198.988037 
L 92.657773 -198.040397 
L 93.268586 -197.092757 
L 93.859335 -196.145117 
L 94.424397 -195.197478 
L 94.958464 -194.249838 
L 95.456714 -193.302198 
L 95.914952 -192.354558 
L 96.329737 -191.406919 
L 96.698467 -190.459279 
L 97.019441 -189.511639 
L 97.29189 -188.563999 
L 97.515971 -187.616359 
L 97.692741 -186.66872 
L 97.824103 -185.72108 
L 97.912737 -184.77344 
L 97.962007 -183.8258 
L 97.975857 -182.878161 
L 97.958697 -181.930521 
L 97.915271 -180.982881 
L 97.85051 -180.035241 
L 97.76938 -179.087601 
L 97.676709 -178.139962 
L 97.577007 -177.192322 
L 97.474276 -176.244682 
L 97.371814 -175.297042 
L 97.272038 -174.349403 
L 97.176308 -173.401763 
L 97.084795 -172.454123 
L 96.99638 -171.506483 
L 96.908621 -170.558843 
L 96.817776 -169.611204 
L 96.718907 -168.663564 
L 96.606055 -167.715924 
L 96.472491 -166.768284 
L 96.311035 -165.820645 
L 96.114411 -164.873005 
L 95.875646 -163.925365 
L 95.588463 -162.977725 
L 95.247665 -162.030085 
L 94.849462 -161.082446 
L 94.391747 -160.134806 
L 93.874271 -159.187166 
L 93.29874 -158.239526 
L 92.668792 -157.291887 
L 91.989885 -156.344247 
L 91.269094 -155.396607 
L 90.514823 -154.448967 
L 89.736467 -153.501327 
L 88.944031 -152.553688 
L 88.147744 -151.606048 
L 87.357673 -150.658408 
L 86.583374 -149.710768 
L 85.833587 -148.763129 
L 85.115988 -147.815489 
L 84.437008 -146.867849 
L 83.801729 -145.920209 
L 83.213834 -144.972569 
L 82.67563 -144.02493 
L 82.188126 -143.07729 
L 81.751144 -142.12965 
L 81.363476 -141.18201 
L 81.023053 -140.234371 
L 80.727124 -139.286731 
L 80.472437 -138.339091 
L 80.255413 -137.391451 
L 80.072297 -136.443811 
L 79.919302 -135.496172 
z
" style="stroke: #3f3f3f; stroke-width: 1.25"/>
    </defs>
    <g clip-path="url(#pc8a244d6d8)">
     <use xlink:href="#m758a3173bf" x="0" y="360" style="fill: #3274a1; stroke: #3f3f3f; stroke-width: 1.25"/>
    </g>
   </g>
   <g id="PolyCollection_2">
    <defs>
     <path id="mb4e16c4d4f" d="M 123.403226 -113.604742 
L 122.524056 -113.604742 
L 122.407853 -115.041944 
L 122.267388 -116.479147 
L 122.099344 -117.91635 
L 121.900371 -119.353553 
L 121.667188 -120.790756 
L 121.396704 -122.227958 
L 121.08615 -123.665161 
L 120.733217 -125.102364 
L 120.336201 -126.539567 
L 119.894135 -127.97677 
L 119.406909 -129.413972 
L 118.87537 -130.851175 
L 118.301382 -132.288378 
L 117.687856 -133.725581 
L 117.038729 -135.162783 
L 116.358894 -136.599986 
L 115.654087 -138.037189 
L 114.930724 -139.474392 
L 114.195697 -140.911595 
L 113.456148 -142.348797 
L 112.719227 -143.786 
L 111.991852 -145.223203 
L 111.28049 -146.660406 
L 110.590973 -148.097609 
L 109.928372 -149.534811 
L 109.296925 -150.972014 
L 108.700041 -152.409217 
L 108.140369 -153.84642 
L 107.619926 -155.283623 
L 107.140272 -156.720825 
L 106.702711 -158.158028 
L 106.308497 -159.595231 
L 105.959022 -161.032434 
L 105.655953 -162.469637 
L 105.401314 -163.906839 
L 105.197492 -165.344042 
L 105.047162 -166.781245 
L 104.953138 -168.218448 
L 104.918159 -169.655651 
L 104.944629 -171.092853 
L 105.03435 -172.530056 
L 105.188249 -173.967259 
L 105.406153 -175.404462 
L 105.686626 -176.841665 
L 106.026883 -178.278867 
L 106.422798 -179.71607 
L 106.869012 -181.153273 
L 107.359121 -182.590476 
L 107.885946 -184.027679 
L 108.441838 -185.464881 
L 109.019024 -186.902084 
L 109.609933 -188.339287 
L 110.20749 -189.77649 
L 110.805363 -191.213692 
L 111.398119 -192.650895 
L 111.98131 -194.088098 
L 112.551466 -195.525301 
L 113.106018 -196.962504 
L 113.643156 -198.399706 
L 114.16165 -199.836909 
L 114.660658 -201.274112 
L 115.139537 -202.711315 
L 115.597694 -204.148518 
L 116.034476 -205.58572 
L 116.449129 -207.022923 
L 116.840804 -208.460126 
L 117.20863 -209.897329 
L 117.551824 -211.334532 
L 117.869829 -212.771734 
L 118.162452 -214.208937 
L 118.429999 -215.64614 
L 118.67336 -217.083343 
L 118.894065 -218.520546 
L 119.094263 -219.957748 
L 119.276662 -221.394951 
L 119.444403 -222.832154 
L 119.600897 -224.269357 
L 119.749625 -225.70656 
L 119.893945 -227.143762 
L 120.036887 -228.580965 
L 120.180989 -230.018168 
L 120.32816 -231.455371 
L 120.479606 -232.892574 
L 120.635793 -234.329776 
L 120.796477 -235.766979 
L 120.960775 -237.204182 
L 121.127278 -238.641385 
L 121.294187 -240.078588 
L 121.459467 -241.51579 
L 121.621002 -242.952993 
L 121.776737 -244.390196 
L 121.9248 -245.827399 
L 122.063601 -247.264601 
L 122.191898 -248.701804 
L 122.308831 -250.139007 
L 122.41393 -251.57621 
L 122.507093 -253.013413 
L 122.588552 -254.450615 
L 122.658818 -255.887818 
L 123.268464 -255.887818 
L 123.268464 -255.887818 
L 123.33873 -254.450615 
L 123.420189 -253.013413 
L 123.513353 -251.57621 
L 123.618451 -250.139007 
L 123.735384 -248.701804 
L 123.863681 -247.264601 
L 124.002483 -245.827399 
L 124.150545 -244.390196 
L 124.30628 -242.952993 
L 124.467815 -241.51579 
L 124.633095 -240.078588 
L 124.800004 -238.641385 
L 124.966507 -237.204182 
L 125.130805 -235.766979 
L 125.291489 -234.329776 
L 125.447676 -232.892574 
L 125.599122 -231.455371 
L 125.746294 -230.018168 
L 125.890395 -228.580965 
L 126.033337 -227.143762 
L 126.177657 -225.70656 
L 126.326386 -224.269357 
L 126.482879 -222.832154 
L 126.65062 -221.394951 
L 126.833019 -219.957748 
L 127.033218 -218.520546 
L 127.253922 -217.083343 
L 127.497283 -215.64614 
L 127.76483 -214.208937 
L 128.057453 -212.771734 
L 128.375458 -211.334532 
L 128.718652 -209.897329 
L 129.086479 -208.460126 
L 129.478153 -207.022923 
L 129.892806 -205.58572 
L 130.329588 -204.148518 
L 130.787745 -202.711315 
L 131.266624 -201.274112 
L 131.765632 -199.836909 
L 132.284126 -198.399706 
L 132.821265 -196.962504 
L 133.375817 -195.525301 
L 133.945973 -194.088098 
L 134.529163 -192.650895 
L 135.121919 -191.213692 
L 135.719792 -189.77649 
L 136.317349 -188.339287 
L 136.908258 -186.902084 
L 137.485444 -185.464881 
L 138.041336 -184.027679 
L 138.568161 -182.590476 
L 139.058271 -181.153273 
L 139.504485 -179.71607 
L 139.9004 -178.278867 
L 140.240656 -176.841665 
L 140.521129 -175.404462 
L 140.739033 -173.967259 
L 140.892932 -172.530056 
L 140.982653 -171.092853 
L 141.009124 -169.655651 
L 140.974144 -168.218448 
L 140.88012 -166.781245 
L 140.72979 -165.344042 
L 140.525968 -163.906839 
L 140.271329 -162.469637 
L 139.96826 -161.032434 
L 139.618785 -159.595231 
L 139.224571 -158.158028 
L 138.78701 -156.720825 
L 138.307356 -155.283623 
L 137.786913 -153.84642 
L 137.227241 -152.409217 
L 136.630357 -150.972014 
L 135.99891 -149.534811 
L 135.336309 -148.097609 
L 134.646792 -146.660406 
L 133.93543 -145.223203 
L 133.208055 -143.786 
L 132.471134 -142.348797 
L 131.731585 -140.911595 
L 130.996558 -139.474392 
L 130.273195 -138.037189 
L 129.568388 -136.599986 
L 128.888553 -135.162783 
L 128.239426 -133.725581 
L 127.6259 -132.288378 
L 127.051912 -130.851175 
L 126.520373 -129.413972 
L 126.033147 -127.97677 
L 125.591081 -126.539567 
L 125.194065 -125.102364 
L 124.841132 -123.665161 
L 124.530578 -122.227958 
L 124.260094 -120.790756 
L 124.026911 -119.353553 
L 123.827938 -117.91635 
L 123.659894 -116.479147 
L 123.519429 -115.041944 
L 123.403226 -113.604742 
z
" style="stroke: #3f3f3f; stroke-width: 1.25"/>
    </defs>
    <g clip-path="url(#pc8a244d6d8)">
     <use xlink:href="#mb4e16c4d4f" x="0" y="360" style="fill: #e1812c; stroke: #3f3f3f; stroke-width: 1.25"/>
    </g>
   </g>
   <g id="PolyCollection_3">
    <defs>
     <path id="m834739a211" d="M 189.28788 -144.72388 
L 187.610387 -144.72388 
L 187.407222 -145.536175 
L 187.165382 -146.348469 
L 186.880196 -147.160763 
L 186.547048 -147.973058 
L 186.161537 -148.785352 
L 185.719656 -149.597646 
L 185.217988 -150.40994 
L 184.653914 -151.222235 
L 184.025823 -152.034529 
L 183.333314 -152.846823 
L 182.577376 -153.659118 
L 181.76055 -154.471412 
L 180.887033 -155.283706 
L 179.962741 -156.096 
L 178.995309 -156.908295 
L 177.994016 -157.720589 
L 176.969634 -158.532883 
L 175.934211 -159.345178 
L 174.900762 -160.157472 
L 173.882908 -160.969766 
L 172.894452 -161.78206 
L 171.948906 -162.594355 
L 171.059007 -163.406649 
L 170.236231 -164.218943 
L 169.490321 -165.031238 
L 168.828881 -165.843532 
L 168.257037 -166.655826 
L 167.777196 -167.46812 
L 167.388928 -168.280415 
L 167.088978 -169.092709 
L 166.871415 -169.905003 
L 166.727928 -170.717298 
L 166.648237 -171.529592 
L 166.620636 -172.341886 
L 166.632604 -173.15418 
L 166.671488 -173.966475 
L 166.725188 -174.778769 
L 166.782839 -175.591063 
L 166.835409 -176.403358 
L 166.876217 -177.215652 
L 166.901303 -178.027946 
L 166.909646 -178.840241 
L 166.903206 -179.652535 
L 166.886779 -180.464829 
L 166.867685 -181.277123 
L 166.855292 -182.089418 
L 166.860416 -182.901712 
L 166.894622 -183.714006 
L 166.969478 -184.526301 
L 167.095807 -185.338595 
L 167.282983 -186.150889 
L 167.538308 -186.963183 
L 167.866528 -187.775478 
L 168.269497 -188.587772 
L 168.746017 -189.400066 
L 169.291867 -190.212361 
L 169.900013 -191.024655 
L 170.560972 -191.836949 
L 171.263327 -192.649243 
L 171.994337 -193.461538 
L 172.740615 -194.273832 
L 173.488815 -195.086126 
L 174.226309 -195.898421 
L 174.941785 -196.710715 
L 175.625755 -197.523009 
L 176.270927 -198.335303 
L 176.872442 -199.147598 
L 177.427948 -199.959892 
L 177.937531 -200.772186 
L 178.40351 -201.584481 
L 178.830107 -202.396775 
L 179.223038 -203.209069 
L 179.589039 -204.021363 
L 179.935367 -204.833658 
L 180.269315 -205.645952 
L 180.597756 -206.458246 
L 180.92676 -207.270541 
L 181.261281 -208.082835 
L 181.604951 -208.895129 
L 181.959963 -209.707423 
L 182.32706 -210.519718 
L 182.705609 -211.332012 
L 183.093747 -212.144306 
L 183.488596 -212.956601 
L 183.88651 -213.768895 
L 184.283344 -214.581189 
L 184.674724 -215.393483 
L 185.056302 -216.205778 
L 185.423983 -217.018072 
L 185.774107 -217.830366 
L 186.103593 -218.642661 
L 186.410029 -219.454955 
L 186.691719 -220.267249 
L 186.947684 -221.079544 
L 187.177624 -221.891838 
L 187.381862 -222.704132 
L 187.561249 -223.516426 
L 187.717076 -224.328721 
L 187.850959 -225.141015 
L 189.047307 -225.141015 
L 189.047307 -225.141015 
L 189.181191 -224.328721 
L 189.337017 -223.516426 
L 189.516405 -222.704132 
L 189.720643 -221.891838 
L 189.950583 -221.079544 
L 190.206547 -220.267249 
L 190.488238 -219.454955 
L 190.794674 -218.642661 
L 191.12416 -217.830366 
L 191.474284 -217.018072 
L 191.841964 -216.205778 
L 192.223543 -215.393483 
L 192.614922 -214.581189 
L 193.011756 -213.768895 
L 193.409671 -212.956601 
L 193.80452 -212.144306 
L 194.192658 -211.332012 
L 194.571206 -210.519718 
L 194.938304 -209.707423 
L 195.293316 -208.895129 
L 195.636986 -208.082835 
L 195.971507 -207.270541 
L 196.30051 -206.458246 
L 196.628952 -205.645952 
L 196.9629 -204.833658 
L 197.309228 -204.021363 
L 197.675229 -203.209069 
L 198.06816 -202.396775 
L 198.494757 -201.584481 
L 198.960736 -200.772186 
L 199.470319 -199.959892 
L 200.025825 -199.147598 
L 200.627339 -198.335303 
L 201.272512 -197.523009 
L 201.956481 -196.710715 
L 202.671958 -195.898421 
L 203.409452 -195.086126 
L 204.157652 -194.273832 
L 204.903929 -193.461538 
L 205.63494 -192.649243 
L 206.337295 -191.836949 
L 206.998254 -191.024655 
L 207.606399 -190.212361 
L 208.15225 -189.400066 
L 208.62877 -188.587772 
L 209.031739 -187.775478 
L 209.359959 -186.963183 
L 209.615284 -186.150889 
L 209.802459 -185.338595 
L 209.928789 -184.526301 
L 210.003645 -183.714006 
L 210.03785 -182.901712 
L 210.042974 -182.089418 
L 210.030582 -181.277123 
L 210.011488 -180.464829 
L 209.995061 -179.652535 
L 209.98862 -178.840241 
L 209.996964 -178.027946 
L 210.02205 -177.215652 
L 210.062858 -176.403358 
L 210.115428 -175.591063 
L 210.173078 -174.778769 
L 210.226779 -173.966475 
L 210.265662 -173.15418 
L 210.277631 -172.341886 
L 210.25003 -171.529592 
L 210.170339 -170.717298 
L 210.026851 -169.905003 
L 209.809289 -169.092709 
L 209.509339 -168.280415 
L 209.121071 -167.46812 
L 208.64123 -166.655826 
L 208.069386 -165.843532 
L 207.407946 -165.031238 
L 206.662036 -164.218943 
L 205.83926 -163.406649 
L 204.949361 -162.594355 
L 204.003815 -161.78206 
L 203.015358 -160.969766 
L 201.997505 -160.157472 
L 200.964056 -159.345178 
L 199.928632 -158.532883 
L 198.904251 -157.720589 
L 197.902957 -156.908295 
L 196.935526 -156.096 
L 196.011234 -155.283706 
L 195.137717 -154.471412 
L 194.32089 -153.659118 
L 193.564953 -152.846823 
L 192.872443 -152.034529 
L 192.244353 -151.222235 
L 191.680279 -150.40994 
L 191.178611 -149.597646 
L 190.73673 -148.785352 
L 190.351219 -147.973058 
L 190.018071 -147.160763 
L 189.732885 -146.348469 
L 189.491045 -145.536175 
L 189.28788 -144.72388 
z
" style="stroke: #3f3f3f; stroke-width: 1.25"/>
    </defs>
    <g clip-path="url(#pc8a244d6d8)">
     <use xlink:href="#m834739a211" x="0" y="360" style="fill: #3274a1; stroke: #3f3f3f; stroke-width: 1.25"/>
    </g>
   </g>
   <g id="PolyCollection_4">
    <defs>
     <path id="m3051b198a1" d="M 232.519315 -118.435771 
L 231.692941 -118.435771 
L 231.598921 -119.707647 
L 231.48897 -120.979524 
L 231.361718 -122.2514 
L 231.215963 -123.523276 
L 231.050735 -124.795152 
L 230.865351 -126.067029 
L 230.659462 -127.338905 
L 230.43309 -128.610781 
L 230.186635 -129.882658 
L 229.92087 -131.154534 
L 229.636898 -132.42641 
L 229.336084 -133.698286 
L 229.019957 -134.970163 
L 228.690087 -136.242039 
L 228.347937 -137.513915 
L 227.994713 -138.785792 
L 227.631205 -140.057668 
L 227.257642 -141.329544 
L 226.873576 -142.60142 
L 226.477807 -143.873297 
L 226.068357 -145.145173 
L 225.642512 -146.417049 
L 225.196933 -147.688926 
L 224.727841 -148.960802 
L 224.231267 -150.232678 
L 223.703366 -151.504554 
L 223.140776 -152.776431 
L 222.540993 -154.048307 
L 221.902758 -155.320183 
L 221.226405 -156.59206 
L 220.514167 -157.863936 
L 219.770389 -159.135812 
L 219.001652 -160.407688 
L 218.216763 -161.679565 
L 217.426635 -162.951441 
L 216.644019 -164.223317 
L 215.883127 -165.495194 
L 215.15914 -166.76707 
L 214.487636 -168.038946 
L 213.88396 -169.310822 
L 213.362574 -170.582699 
L 212.936421 -171.854575 
L 212.616334 -173.126451 
L 212.410524 -174.398328 
L 212.324178 -175.670204 
L 212.359183 -176.94208 
L 212.513988 -178.213956 
L 212.783619 -179.485833 
L 213.159837 -180.757709 
L 213.631434 -182.029585 
L 214.184649 -183.301462 
L 214.803684 -184.573338 
L 215.471303 -185.845214 
L 216.169474 -187.11709 
L 216.880034 -188.388967 
L 217.585354 -189.660843 
L 218.268962 -190.932719 
L 218.916116 -192.204596 
L 219.514294 -193.476472 
L 220.053588 -194.748348 
L 220.526991 -196.020224 
L 220.930552 -197.292101 
L 221.263424 -198.563977 
L 221.527768 -199.835853 
L 221.728556 -201.10773 
L 221.873248 -202.379606 
L 221.971388 -203.651482 
L 222.034119 -204.923358 
L 222.073641 -206.195235 
L 222.102649 -207.467111 
L 222.133762 -208.738987 
L 222.178977 -210.010864 
L 222.249168 -211.28274 
L 222.353661 -212.554616 
L 222.499891 -213.826492 
L 222.693163 -215.098369 
L 222.936521 -216.370245 
L 223.230729 -217.642121 
L 223.574357 -218.913998 
L 223.963965 -220.185874 
L 224.394368 -221.45775 
L 224.858965 -222.729626 
L 225.35011 -224.001503 
L 225.859503 -225.273379 
L 226.378579 -226.545255 
L 226.898876 -227.817132 
L 227.412367 -229.089008 
L 227.911731 -230.360884 
L 228.390577 -231.63276 
L 228.843588 -232.904637 
L 229.266608 -234.176513 
L 229.656664 -235.448389 
L 230.011933 -236.720266 
L 230.331659 -237.992142 
L 230.61604 -239.264018 
L 230.866089 -240.535894 
L 231.083475 -241.807771 
L 231.270369 -243.079647 
L 231.42929 -244.351523 
L 232.782966 -244.351523 
L 232.782966 -244.351523 
L 232.941887 -243.079647 
L 233.128782 -241.807771 
L 233.346168 -240.535894 
L 233.596216 -239.264018 
L 233.880598 -237.992142 
L 234.200324 -236.720266 
L 234.555592 -235.448389 
L 234.945648 -234.176513 
L 235.368669 -232.904637 
L 235.821679 -231.63276 
L 236.300525 -230.360884 
L 236.79989 -229.089008 
L 237.313381 -227.817132 
L 237.833678 -226.545255 
L 238.352754 -225.273379 
L 238.862147 -224.001503 
L 239.353292 -222.729626 
L 239.817889 -221.45775 
L 240.248292 -220.185874 
L 240.637899 -218.913998 
L 240.981527 -217.642121 
L 241.275735 -216.370245 
L 241.519094 -215.098369 
L 241.712366 -213.826492 
L 241.858596 -212.554616 
L 241.963089 -211.28274 
L 242.03328 -210.010864 
L 242.078495 -208.738987 
L 242.109608 -207.467111 
L 242.138616 -206.195235 
L 242.178138 -204.923358 
L 242.240868 -203.651482 
L 242.339009 -202.379606 
L 242.483701 -201.10773 
L 242.684488 -199.835853 
L 242.948833 -198.563977 
L 243.281704 -197.292101 
L 243.685266 -196.020224 
L 244.158668 -194.748348 
L 244.697963 -193.476472 
L 245.296141 -192.204596 
L 245.943295 -190.932719 
L 246.626903 -189.660843 
L 247.332223 -188.388967 
L 248.042783 -187.11709 
L 248.740953 -185.845214 
L 249.408572 -184.573338 
L 250.027608 -183.301462 
L 250.580822 -182.029585 
L 251.05242 -180.757709 
L 251.428638 -179.485833 
L 251.698269 -178.213956 
L 251.853074 -176.94208 
L 251.888078 -175.670204 
L 251.801733 -174.398328 
L 251.595923 -173.126451 
L 251.275836 -171.854575 
L 250.849683 -170.582699 
L 250.328297 -169.310822 
L 249.72462 -168.038946 
L 249.053116 -166.76707 
L 248.329129 -165.495194 
L 247.568238 -164.223317 
L 246.785622 -162.951441 
L 245.995494 -161.679565 
L 245.210605 -160.407688 
L 244.441867 -159.135812 
L 243.69809 -157.863936 
L 242.985851 -156.59206 
L 242.309499 -155.320183 
L 241.671263 -154.048307 
L 241.07148 -152.776431 
L 240.50889 -151.504554 
L 239.98099 -150.232678 
L 239.484416 -148.960802 
L 239.015324 -147.688926 
L 238.569745 -146.417049 
L 238.1439 -145.145173 
L 237.73445 -143.873297 
L 237.33868 -142.60142 
L 236.954615 -141.329544 
L 236.581051 -140.057668 
L 236.217543 -138.785792 
L 235.86432 -137.513915 
L 235.52217 -136.242039 
L 235.192299 -134.970163 
L 234.876173 -133.698286 
L 234.575359 -132.42641 
L 234.291387 -131.154534 
L 234.025622 -129.882658 
L 233.779167 -128.610781 
L 233.552794 -127.338905 
L 233.346905 -126.067029 
L 233.161521 -124.795152 
L 232.996293 -123.523276 
L 232.850539 -122.2514 
L 232.723287 -120.979524 
L 232.613336 -119.707647 
L 232.519315 -118.435771 
z
" style="stroke: #3f3f3f; stroke-width: 1.25"/>
    </defs>
    <g clip-path="url(#pc8a244d6d8)">
     <use xlink:href="#m3051b198a1" x="0" y="360" style="fill: #e1812c; stroke: #3f3f3f; stroke-width: 1.25"/>
    </g>
   </g>
   <g id="PolyCollection_5">
    <defs>
     <path id="md43c92e069" d="M 297.805404 -55.292727 
L 297.377837 -55.292727 
L 297.327149 -57.103544 
L 297.268334 -58.91436 
L 297.201138 -60.725176 
L 297.125583 -62.535992 
L 297.042024 -64.346809 
L 296.951191 -66.157625 
L 296.854219 -67.968441 
L 296.75266 -69.779258 
L 296.648464 -71.590074 
L 296.543935 -73.40089 
L 296.441656 -75.211707 
L 296.344398 -77.022523 
L 296.254991 -78.833339 
L 296.176195 -80.644155 
L 296.110554 -82.454972 
L 296.060259 -84.265788 
L 296.027023 -86.076604 
L 296.011977 -87.887421 
L 296.015597 -89.698237 
L 296.037671 -91.509053 
L 296.077293 -93.319869 
L 296.132906 -95.130686 
L 296.202369 -96.941502 
L 296.283053 -98.752318 
L 296.371951 -100.563135 
L 296.465797 -102.373951 
L 296.56118 -104.184767 
L 296.654644 -105.995584 
L 296.742773 -107.8064 
L 296.822243 -109.617216 
L 296.889864 -111.428032 
L 296.942579 -113.238849 
L 296.977464 -115.049665 
L 296.991697 -116.860481 
L 296.98254 -118.671298 
L 296.947309 -120.482114 
L 296.883369 -122.29293 
L 296.788139 -124.103746 
L 296.659128 -125.914563 
L 296.493987 -127.725379 
L 296.290593 -129.536195 
L 296.047144 -131.347012 
L 295.762275 -133.157828 
L 295.435162 -134.968644 
L 295.065631 -136.779461 
L 294.654236 -138.590277 
L 294.202312 -140.401093 
L 293.711986 -142.211909 
L 293.18615 -144.022726 
L 292.628389 -145.833542 
L 292.042869 -147.644358 
L 291.434197 -149.455175 
L 290.807272 -151.265991 
L 290.167115 -153.076807 
L 289.518738 -154.887624 
L 288.867018 -156.69844 
L 288.216631 -158.509256 
L 287.572026 -160.320072 
L 286.937454 -162.130889 
L 286.317048 -163.941705 
L 285.714947 -165.752521 
L 285.135435 -167.563338 
L 284.583096 -169.374154 
L 284.062959 -171.18497 
L 283.58059 -172.995786 
L 283.142148 -174.806603 
L 282.75436 -176.617419 
L 282.424414 -178.428235 
L 282.159774 -180.239052 
L 281.96791 -182.049868 
L 281.855969 -183.860684 
L 281.83039 -185.671501 
L 281.896506 -187.482317 
L 282.058148 -189.293133 
L 282.317288 -191.103949 
L 282.673746 -192.914766 
L 283.125001 -194.725582 
L 283.666098 -196.536398 
L 284.289693 -198.347215 
L 284.986221 -200.158031 
L 285.744185 -201.968847 
L 286.550553 -203.779663 
L 287.391234 -205.59048 
L 288.25161 -207.401296 
L 289.117087 -209.212112 
L 289.97363 -211.022929 
L 290.808251 -212.833745 
L 291.609428 -214.644561 
L 292.36742 -216.455378 
L 293.074486 -218.266194 
L 293.724982 -220.07701 
L 294.315353 -221.887826 
L 294.844031 -223.698643 
L 295.311246 -225.509459 
L 295.718781 -227.320275 
L 296.069685 -229.131092 
L 296.367969 -230.941908 
L 296.61831 -232.752724 
L 296.825766 -234.56354 
L 298.357475 -234.56354 
L 298.357475 -234.56354 
L 298.564931 -232.752724 
L 298.815272 -230.941908 
L 299.113556 -229.131092 
L 299.46446 -227.320275 
L 299.871995 -225.509459 
L 300.33921 -223.698643 
L 300.867888 -221.887826 
L 301.45826 -220.07701 
L 302.108755 -218.266194 
L 302.815821 -216.455378 
L 303.573813 -214.644561 
L 304.37499 -212.833745 
L 305.209612 -211.022929 
L 306.066155 -209.212112 
L 306.931632 -207.401296 
L 307.792008 -205.59048 
L 308.632688 -203.779663 
L 309.439056 -201.968847 
L 310.19702 -200.158031 
L 310.893548 -198.347215 
L 311.517143 -196.536398 
L 312.05824 -194.725582 
L 312.509495 -192.914766 
L 312.865954 -191.103949 
L 313.125093 -189.293133 
L 313.286735 -187.482317 
L 313.352852 -185.671501 
L 313.327273 -183.860684 
L 313.215331 -182.049868 
L 313.023467 -180.239052 
L 312.758827 -178.428235 
L 312.428881 -176.617419 
L 312.041093 -174.806603 
L 311.602652 -172.995786 
L 311.120283 -171.18497 
L 310.600145 -169.374154 
L 310.047807 -167.563338 
L 309.468294 -165.752521 
L 308.866193 -163.941705 
L 308.245788 -162.130889 
L 307.611216 -160.320072 
L 306.96661 -158.509256 
L 306.316223 -156.69844 
L 305.664503 -154.887624 
L 305.016126 -153.076807 
L 304.37597 -151.265991 
L 303.749044 -149.455175 
L 303.140373 -147.644358 
L 302.554852 -145.833542 
L 301.997091 -144.022726 
L 301.471255 -142.211909 
L 300.98093 -140.401093 
L 300.529005 -138.590277 
L 300.117611 -136.779461 
L 299.748079 -134.968644 
L 299.420967 -133.157828 
L 299.136097 -131.347012 
L 298.892648 -129.536195 
L 298.689254 -127.725379 
L 298.524113 -125.914563 
L 298.395102 -124.103746 
L 298.299872 -122.29293 
L 298.235932 -120.482114 
L 298.200701 -118.671298 
L 298.191544 -116.860481 
L 298.205778 -115.049665 
L 298.240662 -113.238849 
L 298.293378 -111.428032 
L 298.360998 -109.617216 
L 298.440469 -107.8064 
L 298.528597 -105.995584 
L 298.622061 -104.184767 
L 298.717444 -102.373951 
L 298.81129 -100.563135 
L 298.900188 -98.752318 
L 298.980872 -96.941502 
L 299.050335 -95.130686 
L 299.105948 -93.319869 
L 299.14557 -91.509053 
L 299.167644 -89.698237 
L 299.171265 -87.887421 
L 299.156218 -86.076604 
L 299.122982 -84.265788 
L 299.072687 -82.454972 
L 299.007046 -80.644155 
L 298.92825 -78.833339 
L 298.838843 -77.022523 
L 298.741585 -75.211707 
L 298.639307 -73.40089 
L 298.534777 -71.590074 
L 298.430581 -69.779258 
L 298.329022 -67.968441 
L 298.232051 -66.157625 
L 298.141217 -64.346809 
L 298.057658 -62.535992 
L 297.982104 -60.725176 
L 297.914908 -58.91436 
L 297.856092 -57.103544 
L 297.805404 -55.292727 
z
" style="stroke: #3f3f3f; stroke-width: 1.25"/>
    </defs>
    <g clip-path="url(#pc8a244d6d8)">
     <use xlink:href="#md43c92e069" x="0" y="360" style="fill: #3274a1; stroke: #3f3f3f; stroke-width: 1.25"/>
    </g>
   </g>
   <g id="PolyCollection_6">
    <defs>
     <path id="m2214a38351" d="M 341.801072 -122.411002 
L 340.696159 -122.411002 
L 340.562779 -123.586548 
L 340.405805 -124.762093 
L 340.223298 -125.937639 
L 340.013678 -127.113184 
L 339.775845 -128.28873 
L 339.509286 -129.464275 
L 339.214166 -130.63982 
L 338.891384 -131.815366 
L 338.542592 -132.990911 
L 338.170168 -134.166457 
L 337.777134 -135.342002 
L 337.367028 -136.517548 
L 336.943721 -137.693093 
L 336.511201 -138.868639 
L 336.073331 -140.044184 
L 335.633598 -141.21973 
L 335.194872 -142.395275 
L 334.759205 -143.570821 
L 334.327671 -144.746366 
L 333.900283 -145.921912 
L 333.475978 -147.097457 
L 333.052692 -148.273002 
L 332.627512 -149.448548 
L 332.196891 -150.624093 
L 331.756921 -151.799639 
L 331.303633 -152.975184 
L 330.833304 -154.15073 
L 330.342749 -155.326275 
L 329.829565 -156.501821 
L 329.292329 -157.677366 
L 328.730723 -158.852912 
L 328.145589 -160.028457 
L 327.538921 -161.204003 
L 326.913797 -162.379548 
L 326.274274 -163.555093 
L 325.625258 -164.730639 
L 324.97237 -165.906184 
L 324.321823 -167.08173 
L 323.680314 -168.257275 
L 323.054947 -169.432821 
L 322.453172 -170.608366 
L 321.882746 -171.783912 
L 321.351684 -172.959457 
L 320.868208 -174.135003 
L 320.440652 -175.310548 
L 320.077332 -176.486094 
L 319.78636 -177.661639 
L 319.575399 -178.837184 
L 319.451368 -180.01273 
L 319.420118 -181.188275 
L 319.486084 -182.363821 
L 319.651952 -183.539366 
L 319.918368 -184.714912 
L 320.283711 -185.890457 
L 320.743972 -187.066003 
L 321.292739 -188.241548 
L 321.921317 -189.417094 
L 322.618971 -190.592639 
L 323.373296 -191.768185 
L 324.170686 -192.94373 
L 324.996871 -194.119275 
L 325.837509 -195.294821 
L 326.678763 -196.470366 
L 327.507858 -197.645912 
L 328.313561 -198.821457 
L 329.086568 -199.997003 
L 329.819765 -201.172548 
L 330.508366 -202.348094 
L 331.149908 -203.523639 
L 331.744132 -204.699185 
L 332.29274 -205.87473 
L 332.79907 -207.050276 
L 333.267707 -208.225821 
L 333.704059 -209.401366 
L 334.113933 -210.576912 
L 334.503126 -211.752457 
L 334.877067 -212.928003 
L 335.240517 -214.103548 
L 335.597352 -215.279094 
L 335.950414 -216.454639 
L 336.301461 -217.630185 
L 336.651174 -218.80573 
L 336.999248 -219.981276 
L 337.344523 -221.156821 
L 337.685165 -222.332367 
L 338.018859 -223.507912 
L 338.34302 -224.683457 
L 338.654992 -225.859003 
L 338.952226 -227.034548 
L 339.232439 -228.210094 
L 339.493728 -229.385639 
L 339.734657 -230.561185 
L 339.954298 -231.73673 
L 340.152246 -232.912276 
L 340.328591 -234.087821 
L 340.483882 -235.263367 
L 340.619051 -236.438912 
L 340.735349 -237.614458 
L 340.834255 -238.790003 
L 341.662976 -238.790003 
L 341.662976 -238.790003 
L 341.761882 -237.614458 
L 341.87818 -236.438912 
L 342.013349 -235.263367 
L 342.16864 -234.087821 
L 342.344986 -232.912276 
L 342.542933 -231.73673 
L 342.762574 -230.561185 
L 343.003503 -229.385639 
L 343.264792 -228.210094 
L 343.545005 -227.034548 
L 343.842239 -225.859003 
L 344.154211 -224.683457 
L 344.478372 -223.507912 
L 344.812066 -222.332367 
L 345.152708 -221.156821 
L 345.497983 -219.981276 
L 345.846057 -218.80573 
L 346.19577 -217.630185 
L 346.546817 -216.454639 
L 346.89988 -215.279094 
L 347.256714 -214.103548 
L 347.620165 -212.928003 
L 347.994105 -211.752457 
L 348.383298 -210.576912 
L 348.793172 -209.401366 
L 349.229524 -208.225821 
L 349.698161 -207.050276 
L 350.204491 -205.87473 
L 350.753099 -204.699185 
L 351.347323 -203.523639 
L 351.988866 -202.348094 
L 352.677466 -201.172548 
L 353.410663 -199.997003 
L 354.18367 -198.821457 
L 354.989373 -197.645912 
L 355.818468 -196.470366 
L 356.659722 -195.294821 
L 357.50036 -194.119275 
L 358.326545 -192.94373 
L 359.123935 -191.768185 
L 359.87826 -190.592639 
L 360.575914 -189.417094 
L 361.204492 -188.241548 
L 361.753259 -187.066003 
L 362.21352 -185.890457 
L 362.578863 -184.714912 
L 362.845279 -183.539366 
L 363.011147 -182.363821 
L 363.077113 -181.188275 
L 363.045863 -180.01273 
L 362.921832 -178.837184 
L 362.710871 -177.661639 
L 362.419899 -176.486094 
L 362.056579 -175.310548 
L 361.629023 -174.135003 
L 361.145547 -172.959457 
L 360.614485 -171.783912 
L 360.044059 -170.608366 
L 359.442284 -169.432821 
L 358.816917 -168.257275 
L 358.175408 -167.08173 
L 357.524861 -165.906184 
L 356.871973 -164.730639 
L 356.222957 -163.555093 
L 355.583434 -162.379548 
L 354.95831 -161.204003 
L 354.351642 -160.028457 
L 353.766508 -158.852912 
L 353.204902 -157.677366 
L 352.667666 -156.501821 
L 352.154482 -155.326275 
L 351.663927 -154.15073 
L 351.193598 -152.975184 
L 350.74031 -151.799639 
L 350.30034 -150.624093 
L 349.869719 -149.448548 
L 349.444539 -148.273002 
L 349.021253 -147.097457 
L 348.596948 -145.921912 
L 348.16956 -144.746366 
L 347.738026 -143.570821 
L 347.302359 -142.395275 
L 346.863633 -141.21973 
L 346.4239 -140.044184 
L 345.98603 -138.868639 
L 345.55351 -137.693093 
L 345.130203 -136.517548 
L 344.720097 -135.342002 
L 344.327063 -134.166457 
L 343.954639 -132.990911 
L 343.605847 -131.815366 
L 343.283065 -130.63982 
L 342.987945 -129.464275 
L 342.721386 -128.28873 
L 342.483553 -127.113184 
L 342.273933 -125.937639 
L 342.091426 -124.762093 
L 341.934453 -123.586548 
L 341.801072 -122.411002 
z
" style="stroke: #3f3f3f; stroke-width: 1.25"/>
    </defs>
    <g clip-path="url(#pc8a244d6d8)">
     <use xlink:href="#m2214a38351" x="0" y="360" style="fill: #e1812c; stroke: #3f3f3f; stroke-width: 1.25"/>
    </g>
   </g>
   <g id="line2d_5">
    <path d="M 79.306646 205.44773 
L 79.306646 149.743589 
" clip-path="url(#pc8a244d6d8)" style="fill: none; stroke: #3f3f3f; stroke-width: 1.875; stroke-linecap: round"/>
   </g>
   <g id="line2d_6">
    <path d="M 79.306646 195.995902 
L 79.306646 170.004827 
" clip-path="url(#pc8a244d6d8)" style="fill: none; stroke: #3f3f3f; stroke-width: 5.625; stroke-linecap: round"/>
   </g>
   <g id="line2d_7">
    <path d="M 79.306646 182.591625 
" clip-path="url(#pc8a244d6d8)" style="fill: none; stroke: #3f3f3f; stroke-width: 1.5; stroke-linecap: round"/>
    <defs>
     <path id="m58d6278a44" d="M 2.34375 0 
L -2.34375 -0 
" style="stroke: #ffffff; stroke-width: 1.125"/>
    </defs>
    <g clip-path="url(#pc8a244d6d8)">
     <use xlink:href="#m58d6278a44" x="79.306646" y="182.591625" style="fill: #ffffff; stroke: #ffffff; stroke-width: 1.125"/>
    </g>
   </g>
   <g id="line2d_8">
    <path d="M 122.963641 219.239721 
L 122.963641 156.709498 
" clip-path="url(#pc8a244d6d8)" style="fill: none; stroke: #3f3f3f; stroke-width: 1.875; stroke-linecap: round"/>
   </g>
   <g id="line2d_9">
    <path d="M 122.963641 203.740113 
L 122.963641 175.707788 
" clip-path="url(#pc8a244d6d8)" style="fill: none; stroke: #3f3f3f; stroke-width: 5.625; stroke-linecap: round"/>
   </g>
   <g id="line2d_10">
    <path d="M 122.963641 188.326292 
" clip-path="url(#pc8a244d6d8)" style="fill: none; stroke: #3f3f3f; stroke-width: 1.5; stroke-linecap: round"/>
    <g clip-path="url(#pc8a244d6d8)">
     <use xlink:href="#m58d6278a44" x="122.963641" y="188.326292" style="fill: #ffffff; stroke: #ffffff; stroke-width: 1.125"/>
    </g>
   </g>
   <g id="line2d_11">
    <path d="M 188.449133 198.569503 
L 188.449133 151.565602 
" clip-path="url(#pc8a244d6d8)" style="fill: none; stroke: #3f3f3f; stroke-width: 1.875; stroke-linecap: round"/>
   </g>
   <g id="line2d_12">
    <path d="M 188.449133 190.423404 
L 188.449133 170.86049 
" clip-path="url(#pc8a244d6d8)" style="fill: none; stroke: #3f3f3f; stroke-width: 5.625; stroke-linecap: round"/>
   </g>
   <g id="line2d_13">
    <path d="M 188.449133 176.443323 
" clip-path="url(#pc8a244d6d8)" style="fill: none; stroke: #3f3f3f; stroke-width: 1.5; stroke-linecap: round"/>
    <g clip-path="url(#pc8a244d6d8)">
     <use xlink:href="#m58d6278a44" x="188.449133" y="176.443323" style="fill: #ffffff; stroke: #ffffff; stroke-width: 1.125"/>
    </g>
   </g>
   <g id="line2d_14">
    <path d="M 232.106128 215.624708 
L 232.106128 141.587997 
" clip-path="url(#pc8a244d6d8)" style="fill: none; stroke: #3f3f3f; stroke-width: 1.875; stroke-linecap: round"/>
   </g>
   <g id="line2d_15">
    <path d="M 232.106128 188.59887 
L 232.106128 162.638943 
" clip-path="url(#pc8a244d6d8)" style="fill: none; stroke: #3f3f3f; stroke-width: 5.625; stroke-linecap: round"/>
   </g>
   <g id="line2d_16">
    <path d="M 232.106128 182.252503 
" clip-path="url(#pc8a244d6d8)" style="fill: none; stroke: #3f3f3f; stroke-width: 1.5; stroke-linecap: round"/>
    <g clip-path="url(#pc8a244d6d8)">
     <use xlink:href="#m58d6278a44" x="232.106128" y="182.252503" style="fill: #ffffff; stroke: #ffffff; stroke-width: 1.125"/>
    </g>
   </g>
   <g id="line2d_17">
    <path d="M 297.591621 205.969521 
L 297.591621 158.548269 
" clip-path="url(#pc8a244d6d8)" style="fill: none; stroke: #3f3f3f; stroke-width: 1.875; stroke-linecap: round"/>
   </g>
   <g id="line2d_18">
    <path d="M 297.591621 194.730579 
L 297.591621 166.689194 
" clip-path="url(#pc8a244d6d8)" style="fill: none; stroke: #3f3f3f; stroke-width: 5.625; stroke-linecap: round"/>
   </g>
   <g id="line2d_19">
    <path d="M 297.591621 179.870422 
" clip-path="url(#pc8a244d6d8)" style="fill: none; stroke: #3f3f3f; stroke-width: 1.5; stroke-linecap: round"/>
    <g clip-path="url(#pc8a244d6d8)">
     <use xlink:href="#m58d6278a44" x="297.591621" y="179.870422" style="fill: #ffffff; stroke: #ffffff; stroke-width: 1.125"/>
    </g>
   </g>
   <g id="line2d_20">
    <path d="M 341.248616 214.994823 
L 341.248616 143.804171 
" clip-path="url(#pc8a244d6d8)" style="fill: none; stroke: #3f3f3f; stroke-width: 1.875; stroke-linecap: round"/>
   </g>
   <g id="line2d_21">
    <path d="M 341.248616 192.491593 
L 341.248616 172.013708 
" clip-path="url(#pc8a244d6d8)" style="fill: none; stroke: #3f3f3f; stroke-width: 5.625; stroke-linecap: round"/>
   </g>
   <g id="line2d_22">
    <path d="M 341.248616 180.27217 
" clip-path="url(#pc8a244d6d8)" style="fill: none; stroke: #3f3f3f; stroke-width: 1.5; stroke-linecap: round"/>
    <g clip-path="url(#pc8a244d6d8)">
     <use xlink:href="#m58d6278a44" x="341.248616" y="180.27217" style="fill: #ffffff; stroke: #ffffff; stroke-width: 1.125"/>
    </g>
   </g>
   <g id="patch_3">
    <path d="M 46.5639 318.04 
L 46.5639 24.72 
" style="fill: none; stroke: #cccccc; stroke-width: 0.8; stroke-linejoin: miter; stroke-linecap: square"/>
   </g>
   <g id="patch_4">
    <path d="M 46.5639 318.04 
L 373.991362 318.04 
" style="fill: none; stroke: #cccccc; stroke-width: 0.8; stroke-linejoin: miter; stroke-linecap: square"/>
   </g>
   <g id="text_10">
    <!-- sex = f -->
    <g style="fill: #262626" transform="translate(195.409662 18.72) scale(0.1 -0.1)">
     <defs>
      <path id="ArialMT-73" d="M 197 991 
L 753 1078 
Q 800 744 1014 566 
Q 1228 388 1613 388 
Q 2000 388 2187 545 
Q 2375 703 2375 916 
Q 2375 1106 2209 1216 
Q 2094 1291 1634 1406 
Q 1016 1563 777 1677 
Q 538 1791 414 1992 
Q 291 2194 291 2438 
Q 291 2659 392 2848 
Q 494 3038 669 3163 
Q 800 3259 1026 3326 
Q 1253 3394 1513 3394 
Q 1903 3394 2198 3281 
Q 2494 3169 2634 2976 
Q 2775 2784 2828 2463 
L 2278 2388 
Q 2241 2644 2061 2787 
Q 1881 2931 1553 2931 
Q 1166 2931 1000 2803 
Q 834 2675 834 2503 
Q 834 2394 903 2306 
Q 972 2216 1119 2156 
Q 1203 2125 1616 2013 
Q 2213 1853 2448 1751 
Q 2684 1650 2818 1456 
Q 2953 1263 2953 975 
Q 2953 694 2789 445 
Q 2625 197 2315 61 
Q 2006 -75 1616 -75 
Q 969 -75 630 194 
Q 291 463 197 991 
z
" transform="scale(0.015625)"/>
      <path id="ArialMT-78" d="M 47 0 
L 1259 1725 
L 138 3319 
L 841 3319 
L 1350 2541 
Q 1494 2319 1581 2169 
Q 1719 2375 1834 2534 
L 2394 3319 
L 3066 3319 
L 1919 1756 
L 3153 0 
L 2463 0 
L 1781 1031 
L 1600 1309 
L 728 0 
L 47 0 
z
" transform="scale(0.015625)"/>
      <path id="ArialMT-3d" d="M 3381 2694 
L 356 2694 
L 356 3219 
L 3381 3219 
L 3381 2694 
z
M 3381 1303 
L 356 1303 
L 356 1828 
L 3381 1828 
L 3381 1303 
z
" transform="scale(0.015625)"/>
     </defs>
     <use xlink:href="#ArialMT-73"/>
     <use xlink:href="#ArialMT-65" x="50"/>
     <use xlink:href="#ArialMT-78" x="105.615234"/>
     <use xlink:href="#ArialMT-20" x="155.615234"/>
     <use xlink:href="#ArialMT-3d" x="183.398438"/>
     <use xlink:href="#ArialMT-20" x="241.796875"/>
     <use xlink:href="#ArialMT-66" x="269.580078"/>
    </g>
   </g>
  </g>
  <g id="axes_2">
   <g id="patch_5">
    <path d="M 384.783038 318.04 
L 712.2105 318.04 
L 712.2105 24.72 
L 384.783038 24.72 
z
" style="fill: #ffffff"/>
   </g>
   <g id="matplotlib.axis_3">
    <g id="xtick_4">
     <g id="text_11">
      <!-- 1 -->
      <g style="fill: #262626" transform="translate(436.573813 332.197812) scale(0.1 -0.1)">
       <use xlink:href="#ArialMT-31"/>
      </g>
     </g>
    </g>
    <g id="xtick_5">
     <g id="text_12">
      <!-- 2 -->
      <g style="fill: #262626" transform="translate(545.7163 332.197812) scale(0.1 -0.1)">
       <use xlink:href="#ArialMT-32"/>
      </g>
     </g>
    </g>
    <g id="xtick_6">
     <g id="text_13">
      <!-- 3 -->
      <g style="fill: #262626" transform="translate(654.858788 332.197812) scale(0.1 -0.1)">
       <use xlink:href="#ArialMT-33"/>
      </g>
     </g>
    </g>
    <g id="text_14">
     <!-- Effort level -->
     <g style="fill: #262626" transform="translate(524.964738 345.343125) scale(0.1 -0.1)">
      <use xlink:href="#ArialMT-45"/>
      <use xlink:href="#ArialMT-66" x="66.699219"/>
      <use xlink:href="#ArialMT-66" x="92.732422"/>
      <use xlink:href="#ArialMT-6f" x="120.515625"/>
      <use xlink:href="#ArialMT-72" x="176.130859"/>
      <use xlink:href="#ArialMT-74" x="209.431641"/>
      <use xlink:href="#ArialMT-20" x="237.214844"/>
      <use xlink:href="#ArialMT-6c" x="264.998047"/>
      <use xlink:href="#ArialMT-65" x="287.214844"/>
      <use xlink:href="#ArialMT-76" x="342.830078"/>
      <use xlink:href="#ArialMT-65" x="392.830078"/>
      <use xlink:href="#ArialMT-6c" x="448.445312"/>
     </g>
    </g>
   </g>
   <g id="matplotlib.axis_4">
    <g id="ytick_5">
     <g id="line2d_23">
      <path d="M 384.783038 271.595464 
L 712.2105 271.595464 
" clip-path="url(#p8d8ac7915c)" style="fill: none; stroke: #cccccc; stroke-width: 0.8; stroke-linecap: round"/>
     </g>
    </g>
    <g id="ytick_6">
     <g id="line2d_24">
      <path d="M 384.783038 207.538294 
L 712.2105 207.538294 
" clip-path="url(#p8d8ac7915c)" style="fill: none; stroke: #cccccc; stroke-width: 0.8; stroke-linecap: round"/>
     </g>
    </g>
    <g id="ytick_7">
     <g id="line2d_25">
      <path d="M 384.783038 143.481125 
L 712.2105 143.481125 
" clip-path="url(#p8d8ac7915c)" style="fill: none; stroke: #cccccc; stroke-width: 0.8; stroke-linecap: round"/>
     </g>
    </g>
    <g id="ytick_8">
     <g id="line2d_26">
      <path d="M 384.783038 79.423956 
L 712.2105 79.423956 
" clip-path="url(#p8d8ac7915c)" style="fill: none; stroke: #cccccc; stroke-width: 0.8; stroke-linecap: round"/>
     </g>
    </g>
   </g>
   <g id="PolyCollection_7">
    <defs>
     <path id="m1ba03bfa40" d="M 417.860925 -109.833381 
L 417.190644 -109.833381 
L 417.084993 -111.975945 
L 416.953834 -114.11851 
L 416.793385 -116.261075 
L 416.599884 -118.403639 
L 416.369706 -120.546204 
L 416.099476 -122.688768 
L 415.786156 -124.831333 
L 415.427111 -126.973897 
L 415.020137 -129.116462 
L 414.563461 -131.259026 
L 414.055722 -133.401591 
L 413.495937 -135.544156 
L 412.883493 -137.68672 
L 412.218164 -139.829285 
L 411.500174 -141.971849 
L 410.730335 -144.114414 
L 409.910229 -146.256978 
L 409.04245 -148.399543 
L 408.130858 -150.542108 
L 407.180828 -152.684672 
L 406.199439 -154.827237 
L 405.195584 -156.969801 
L 404.179942 -159.112366 
L 403.164822 -161.25493 
L 402.163854 -163.397495 
L 401.191541 -165.54006 
L 400.262707 -167.682624 
L 399.391877 -169.825189 
L 398.592626 -171.967753 
L 397.87696 -174.110318 
L 397.254768 -176.252882 
L 396.733391 -178.395447 
L 396.317346 -180.538011 
L 396.008216 -182.680576 
L 395.804742 -184.823141 
L 395.703089 -186.965705 
L 395.697287 -189.10827 
L 395.779802 -191.250834 
L 395.942195 -193.393399 
L 396.175802 -195.535963 
L 396.47238 -197.678528 
L 396.824645 -199.821093 
L 397.226648 -201.963657 
L 397.673957 -204.106222 
L 398.16364 -206.248786 
L 398.694045 -208.391351 
L 399.26443 -210.533915 
L 399.87451 -212.67648 
L 400.523962 -214.819044 
L 401.211984 -216.961609 
L 401.936944 -219.104174 
L 402.696153 -221.246738 
L 403.485786 -223.389303 
L 404.300926 -225.531867 
L 405.135703 -227.674432 
L 405.983499 -229.816996 
L 406.837166 -231.959561 
L 407.689234 -234.102126 
L 408.532087 -236.24469 
L 409.358098 -238.387255 
L 410.159737 -240.529819 
L 410.929663 -242.672384 
L 411.660823 -244.814948 
L 412.346569 -246.957513 
L 412.98081 -249.100078 
L 413.558195 -251.242642 
L 414.074319 -253.385207 
L 414.525936 -255.527771 
L 414.911165 -257.670336 
L 415.229651 -259.8129 
L 415.482683 -261.955465 
L 415.673239 -264.098029 
L 415.805945 -266.240594 
L 415.886957 -268.383159 
L 415.923755 -270.525723 
L 415.924853 -272.668288 
L 415.899457 -274.810852 
L 415.857053 -276.953417 
L 415.806987 -279.095981 
L 415.758025 -281.238546 
L 415.717956 -283.381111 
L 415.693235 -285.523675 
L 415.688721 -287.66624 
L 415.707511 -289.808804 
L 415.750894 -291.951369 
L 415.818429 -294.093933 
L 415.908129 -296.236498 
L 416.016743 -298.379063 
L 416.140106 -300.521627 
L 416.273515 -302.664192 
L 416.412109 -304.806756 
L 416.551218 -306.949321 
L 416.686645 -309.091885 
L 416.81488 -311.23445 
L 416.933224 -313.377014 
L 417.039834 -315.519579 
L 417.133697 -317.662144 
L 417.214538 -319.804708 
L 417.282703 -321.947273 
L 417.768866 -321.947273 
L 417.768866 -321.947273 
L 417.837031 -319.804708 
L 417.917872 -317.662144 
L 418.011735 -315.519579 
L 418.118345 -313.377014 
L 418.236689 -311.23445 
L 418.364924 -309.091885 
L 418.500351 -306.949321 
L 418.63946 -304.806756 
L 418.778054 -302.664192 
L 418.911463 -300.521627 
L 419.034826 -298.379063 
L 419.14344 -296.236498 
L 419.23314 -294.093933 
L 419.300675 -291.951369 
L 419.344058 -289.808804 
L 419.362848 -287.66624 
L 419.358334 -285.523675 
L 419.333613 -283.381111 
L 419.293544 -281.238546 
L 419.244582 -279.095981 
L 419.194516 -276.953417 
L 419.152112 -274.810852 
L 419.126715 -272.668288 
L 419.127814 -270.525723 
L 419.164612 -268.383159 
L 419.245624 -266.240594 
L 419.37833 -264.098029 
L 419.568886 -261.955465 
L 419.821918 -259.8129 
L 420.140404 -257.670336 
L 420.525632 -255.527771 
L 420.97725 -253.385207 
L 421.493374 -251.242642 
L 422.070759 -249.100078 
L 422.705 -246.957513 
L 423.390746 -244.814948 
L 424.121906 -242.672384 
L 424.891832 -240.529819 
L 425.693471 -238.387255 
L 426.519482 -236.24469 
L 427.362335 -234.102126 
L 428.214403 -231.959561 
L 429.06807 -229.816996 
L 429.915866 -227.674432 
L 430.750643 -225.531867 
L 431.565783 -223.389303 
L 432.355416 -221.246738 
L 433.114625 -219.104174 
L 433.839584 -216.961609 
L 434.527607 -214.819044 
L 435.177059 -212.67648 
L 435.787139 -210.533915 
L 436.357524 -208.391351 
L 436.887929 -206.248786 
L 437.377612 -204.106222 
L 437.824921 -201.963657 
L 438.226924 -199.821093 
L 438.579189 -197.678528 
L 438.875767 -195.535963 
L 439.109374 -193.393399 
L 439.271767 -191.250834 
L 439.354282 -189.10827 
L 439.34848 -186.965705 
L 439.246827 -184.823141 
L 439.043353 -182.680576 
L 438.734223 -180.538011 
L 438.318178 -178.395447 
L 437.796801 -176.252882 
L 437.174609 -174.110318 
L 436.458943 -171.967753 
L 435.659692 -169.825189 
L 434.788862 -167.682624 
L 433.860028 -165.54006 
L 432.887715 -163.397495 
L 431.886747 -161.25493 
L 430.871627 -159.112366 
L 429.855985 -156.969801 
L 428.85213 -154.827237 
L 427.870741 -152.684672 
L 426.920711 -150.542108 
L 426.009119 -148.399543 
L 425.14134 -146.256978 
L 424.321234 -144.114414 
L 423.551395 -141.971849 
L 422.833405 -139.829285 
L 422.168075 -137.68672 
L 421.555632 -135.544156 
L 420.995847 -133.401591 
L 420.488107 -131.259026 
L 420.031432 -129.116462 
L 419.624458 -126.973897 
L 419.265413 -124.831333 
L 418.952093 -122.688768 
L 418.681863 -120.546204 
L 418.451685 -118.403639 
L 418.258184 -116.261075 
L 418.097735 -114.11851 
L 417.966576 -111.975945 
L 417.860925 -109.833381 
z
" style="stroke: #3f3f3f; stroke-width: 1.25"/>
    </defs>
    <g clip-path="url(#p8d8ac7915c)">
     <use xlink:href="#m1ba03bfa40" x="0" y="360" style="fill: #3274a1; stroke: #3f3f3f; stroke-width: 1.25"/>
    </g>
   </g>
   <g id="PolyCollection_8">
    <defs>
     <path id="m272f6102fd" d="M 461.475049 -116.504651 
L 460.89051 -116.504651 
L 460.806017 -117.90674 
L 460.703706 -119.30883 
L 460.58182 -120.71092 
L 460.438965 -122.11301 
L 460.274249 -123.5151 
L 460.087408 -124.91719 
L 459.878892 -126.319279 
L 459.649916 -127.721369 
L 459.402433 -129.123459 
L 459.139045 -130.525549 
L 458.862835 -131.927639 
L 458.577122 -133.329728 
L 458.285163 -134.731818 
L 457.98982 -136.133908 
L 457.693214 -137.535998 
L 457.39642 -138.938088 
L 457.099216 -140.340177 
L 456.799947 -141.742267 
L 456.495503 -143.144357 
L 456.181446 -144.546447 
L 455.852273 -145.948537 
L 455.501809 -147.350627 
L 455.123691 -148.752716 
L 454.7119 -150.154806 
L 454.261292 -151.556896 
L 453.768069 -152.958986 
L 453.230143 -154.361076 
L 452.647346 -155.763165 
L 452.021475 -157.165255 
L 451.356159 -158.567345 
L 450.656573 -159.969435 
L 449.929028 -161.371525 
L 449.180509 -162.773614 
L 448.418204 -164.175704 
L 447.6491 -165.577794 
L 446.879694 -166.979884 
L 446.11586 -168.381974 
L 445.362893 -169.784063 
L 444.625702 -171.186153 
L 443.909151 -172.588243 
L 443.218465 -173.990333 
L 442.559638 -175.392423 
L 441.939787 -176.794513 
L 441.367362 -178.196602 
L 440.85217 -179.598692 
L 440.405172 -181.000782 
L 440.038064 -182.402872 
L 439.762649 -183.804962 
L 439.590055 -185.207051 
L 439.529885 -186.609141 
L 439.589364 -188.011231 
L 439.77259 -189.413321 
L 440.079967 -190.815411 
L 440.507884 -192.2175 
L 441.048694 -193.61959 
L 441.690994 -195.02168 
L 442.420198 -196.42377 
L 443.219354 -197.82586 
L 444.070122 -199.22795 
L 444.953832 -200.630039 
L 445.852519 -202.032129 
L 446.749837 -203.434219 
L 447.631779 -204.836309 
L 448.487144 -206.238399 
L 449.307732 -207.640488 
L 450.088273 -209.042578 
L 450.826119 -210.444668 
L 451.520783 -211.846758 
L 452.173375 -213.248848 
L 452.786029 -214.650937 
L 453.36138 -216.053027 
L 453.902151 -217.455117 
L 454.410878 -218.857207 
L 454.889766 -220.259297 
L 455.340684 -221.661387 
L 455.765233 -223.063476 
L 456.16488 -224.465566 
L 456.541084 -225.867656 
L 456.895395 -227.269746 
L 457.229502 -228.671836 
L 457.545211 -230.073925 
L 457.844372 -231.476015 
L 458.128754 -232.878105 
L 458.399915 -234.280195 
L 458.659074 -235.682285 
L 458.907018 -237.084374 
L 459.14406 -238.486464 
L 459.37005 -239.888554 
L 459.584446 -241.290644 
L 459.786424 -242.692734 
L 459.975015 -244.094823 
L 460.149256 -245.496913 
L 460.308324 -246.899003 
L 460.451651 -248.301093 
L 460.578998 -249.703183 
L 460.690497 -251.105273 
L 460.786645 -252.507362 
L 460.868271 -253.909452 
L 460.936475 -255.311542 
L 461.429084 -255.311542 
L 461.429084 -255.311542 
L 461.497288 -253.909452 
L 461.578914 -252.507362 
L 461.675062 -251.105273 
L 461.786561 -249.703183 
L 461.913908 -248.301093 
L 462.057235 -246.899003 
L 462.216302 -245.496913 
L 462.390543 -244.094823 
L 462.579135 -242.692734 
L 462.781112 -241.290644 
L 462.995509 -239.888554 
L 463.221499 -238.486464 
L 463.458541 -237.084374 
L 463.706485 -235.682285 
L 463.965644 -234.280195 
L 464.236805 -232.878105 
L 464.521187 -231.476015 
L 464.820347 -230.073925 
L 465.136057 -228.671836 
L 465.470164 -227.269746 
L 465.824475 -225.867656 
L 466.200678 -224.465566 
L 466.600326 -223.063476 
L 467.024875 -221.661387 
L 467.475792 -220.259297 
L 467.954681 -218.857207 
L 468.463408 -217.455117 
L 469.004179 -216.053027 
L 469.57953 -214.650937 
L 470.192183 -213.248848 
L 470.844776 -211.846758 
L 471.53944 -210.444668 
L 472.277286 -209.042578 
L 473.057826 -207.640488 
L 473.878415 -206.238399 
L 474.73378 -204.836309 
L 475.615722 -203.434219 
L 476.51304 -202.032129 
L 477.411727 -200.630039 
L 478.295437 -199.22795 
L 479.146205 -197.82586 
L 479.94536 -196.42377 
L 480.674564 -195.02168 
L 481.316864 -193.61959 
L 481.857675 -192.2175 
L 482.285592 -190.815411 
L 482.592969 -189.413321 
L 482.776195 -188.011231 
L 482.835674 -186.609141 
L 482.775504 -185.207051 
L 482.60291 -183.804962 
L 482.327494 -182.402872 
L 481.960387 -181.000782 
L 481.513389 -179.598692 
L 480.998196 -178.196602 
L 480.425772 -176.794513 
L 479.805921 -175.392423 
L 479.147094 -173.990333 
L 478.456407 -172.588243 
L 477.739857 -171.186153 
L 477.002666 -169.784063 
L 476.249698 -168.381974 
L 475.485865 -166.979884 
L 474.716459 -165.577794 
L 473.947355 -164.175704 
L 473.18505 -162.773614 
L 472.436531 -161.371525 
L 471.708986 -159.969435 
L 471.009399 -158.567345 
L 470.344084 -157.165255 
L 469.718213 -155.763165 
L 469.135416 -154.361076 
L 468.597489 -152.958986 
L 468.104266 -151.556896 
L 467.653658 -150.154806 
L 467.241867 -148.752716 
L 466.863749 -147.350627 
L 466.513286 -145.948537 
L 466.184113 -144.546447 
L 465.870055 -143.144357 
L 465.565612 -141.742267 
L 465.266343 -140.340177 
L 464.969139 -138.938088 
L 464.672344 -137.535998 
L 464.375739 -136.133908 
L 464.080396 -134.731818 
L 463.788437 -133.329728 
L 463.502724 -131.927639 
L 463.226514 -130.525549 
L 462.963126 -129.123459 
L 462.715643 -127.721369 
L 462.486666 -126.319279 
L 462.278151 -124.91719 
L 462.091309 -123.5151 
L 461.926594 -122.11301 
L 461.783738 -120.71092 
L 461.661852 -119.30883 
L 461.559541 -117.90674 
L 461.475049 -116.504651 
z
" style="stroke: #3f3f3f; stroke-width: 1.25"/>
    </defs>
    <g clip-path="url(#p8d8ac7915c)">
     <use xlink:href="#m272f6102fd" x="0" y="360" style="fill: #e1812c; stroke: #3f3f3f; stroke-width: 1.25"/>
    </g>
   </g>
   <g id="PolyCollection_9">
    <defs>
     <path id="mb14cfeb3f6" d="M 527.22838 -113.737906 
L 526.108163 -113.737906 
L 525.967024 -115.425982 
L 525.800237 -117.114057 
L 525.605792 -118.802132 
L 525.382151 -120.490207 
L 525.12839 -122.178282 
L 524.844312 -123.866358 
L 524.530538 -125.554433 
L 524.188549 -127.242508 
L 523.820672 -128.930583 
L 523.430012 -130.618659 
L 523.020313 -132.306734 
L 522.595767 -133.994809 
L 522.160772 -135.682884 
L 521.719655 -137.370959 
L 521.276383 -139.059035 
L 520.834291 -140.74711 
L 520.395829 -142.435185 
L 519.962382 -144.12326 
L 519.534155 -145.811335 
L 519.110149 -147.499411 
L 518.688238 -149.187486 
L 518.265334 -150.875561 
L 517.837634 -152.563636 
L 517.400943 -154.251711 
L 516.951034 -155.939787 
L 516.484029 -157.627862 
L 515.996776 -159.315937 
L 515.487181 -161.004012 
L 514.954483 -162.692087 
L 514.399448 -164.380163 
L 513.824463 -166.068238 
L 513.233519 -167.756313 
L 512.632096 -169.444388 
L 512.026935 -171.132463 
L 511.425722 -172.820539 
L 510.836703 -174.508614 
L 510.26824 -176.196689 
L 509.728349 -177.884764 
L 509.224248 -179.572839 
L 508.761934 -181.260915 
L 508.345834 -182.94899 
L 507.978546 -184.637065 
L 507.660694 -186.32514 
L 507.390917 -188.013215 
L 507.165991 -189.701291 
L 506.981089 -191.389366 
L 506.830163 -193.077441 
L 506.706425 -194.765516 
L 506.602903 -196.453591 
L 506.513024 -198.141667 
L 506.431196 -199.829742 
L 506.353335 -201.517817 
L 506.277296 -203.205892 
L 506.203177 -204.893967 
L 506.133467 -206.582043 
L 506.073014 -208.270118 
L 506.028818 -209.958193 
L 506.009653 -211.646268 
L 506.025547 -213.334343 
L 506.08715 -215.022419 
L 506.205039 -216.710494 
L 506.389012 -218.398569 
L 506.647415 -220.086644 
L 506.986561 -221.774719 
L 507.410275 -223.462795 
L 507.919597 -225.15087 
L 508.51267 -226.838945 
L 509.184793 -228.52702 
L 509.92866 -230.215095 
L 510.734731 -231.903171 
L 511.591728 -233.591246 
L 512.487191 -235.279321 
L 513.408074 -236.967396 
L 514.341319 -238.655472 
L 515.274389 -240.343547 
L 516.19571 -242.031622 
L 517.095022 -243.719697 
L 517.963605 -245.407772 
L 518.794401 -247.095848 
L 519.58203 -248.783923 
L 520.322708 -250.471998 
L 521.014106 -252.160073 
L 521.655158 -253.848148 
L 522.245843 -255.536224 
L 522.786968 -257.224299 
L 523.279967 -258.912374 
L 523.726717 -260.600449 
L 524.129393 -262.288524 
L 524.490361 -263.9766 
L 524.81209 -265.664675 
L 525.097106 -267.35275 
L 525.347956 -269.040825 
L 525.567194 -270.7289 
L 525.757362 -272.416976 
L 525.920988 -274.105051 
L 526.060569 -275.793126 
L 526.178557 -277.481201 
L 526.27734 -279.169276 
L 526.359217 -280.857352 
L 526.977326 -280.857352 
L 526.977326 -280.857352 
L 527.059204 -279.169276 
L 527.157986 -277.481201 
L 527.275975 -275.793126 
L 527.415556 -274.105051 
L 527.579182 -272.416976 
L 527.76935 -270.7289 
L 527.988587 -269.040825 
L 528.239438 -267.35275 
L 528.524453 -265.664675 
L 528.846183 -263.9766 
L 529.20715 -262.288524 
L 529.609827 -260.600449 
L 530.056576 -258.912374 
L 530.549575 -257.224299 
L 531.090701 -255.536224 
L 531.681385 -253.848148 
L 532.322437 -252.160073 
L 533.013835 -250.471998 
L 533.754514 -248.783923 
L 534.542142 -247.095848 
L 535.372939 -245.407772 
L 536.241521 -243.719697 
L 537.140833 -242.031622 
L 538.062155 -240.343547 
L 538.995224 -238.655472 
L 539.92847 -236.967396 
L 540.849352 -235.279321 
L 541.744815 -233.591246 
L 542.601812 -231.903171 
L 543.407884 -230.215095 
L 544.15175 -228.52702 
L 544.823874 -226.838945 
L 545.416946 -225.15087 
L 545.926269 -223.462795 
L 546.349982 -221.774719 
L 546.689128 -220.086644 
L 546.947531 -218.398569 
L 547.131504 -216.710494 
L 547.249393 -215.022419 
L 547.310996 -213.334343 
L 547.32689 -211.646268 
L 547.307726 -209.958193 
L 547.263529 -208.270118 
L 547.203077 -206.582043 
L 547.133367 -204.893967 
L 547.059248 -203.205892 
L 546.983208 -201.517817 
L 546.905347 -199.829742 
L 546.82352 -198.141667 
L 546.733641 -196.453591 
L 546.630118 -194.765516 
L 546.50638 -193.077441 
L 546.355454 -191.389366 
L 546.170552 -189.701291 
L 545.945626 -188.013215 
L 545.675849 -186.32514 
L 545.357997 -184.637065 
L 544.990709 -182.94899 
L 544.57461 -181.260915 
L 544.112296 -179.572839 
L 543.608195 -177.884764 
L 543.068304 -176.196689 
L 542.49984 -174.508614 
L 541.910821 -172.820539 
L 541.309609 -171.132463 
L 540.704448 -169.444388 
L 540.103025 -167.756313 
L 539.512081 -166.068238 
L 538.937095 -164.380163 
L 538.382061 -162.692087 
L 537.849363 -161.004012 
L 537.339767 -159.315937 
L 536.852514 -157.627862 
L 536.38551 -155.939787 
L 535.9356 -154.251711 
L 535.498909 -152.563636 
L 535.071209 -150.875561 
L 534.648305 -149.187486 
L 534.226395 -147.499411 
L 533.802389 -145.811335 
L 533.374161 -144.12326 
L 532.940714 -142.435185 
L 532.502252 -140.74711 
L 532.06016 -139.059035 
L 531.616889 -137.370959 
L 531.175771 -135.682884 
L 530.740776 -133.994809 
L 530.316231 -132.306734 
L 529.906532 -130.618659 
L 529.515872 -128.930583 
L 529.147995 -127.242508 
L 528.806005 -125.554433 
L 528.492231 -123.866358 
L 528.208153 -122.178282 
L 527.954392 -120.490207 
L 527.730752 -118.802132 
L 527.536307 -117.114057 
L 527.36952 -115.425982 
L 527.22838 -113.737906 
z
" style="stroke: #3f3f3f; stroke-width: 1.25"/>
    </defs>
    <g clip-path="url(#p8d8ac7915c)">
     <use xlink:href="#mb14cfeb3f6" x="0" y="360" style="fill: #3274a1; stroke: #3f3f3f; stroke-width: 1.25"/>
    </g>
   </g>
   <g id="PolyCollection_10">
    <defs>
     <path id="md87bdf8143" d="M 571.055306 -133.239979 
L 569.595227 -133.239979 
L 569.403176 -134.325156 
L 569.17278 -135.410334 
L 568.899808 -136.495511 
L 568.580439 -137.580688 
L 568.211512 -138.665866 
L 567.790795 -139.751043 
L 567.317251 -140.836221 
L 566.791284 -141.921398 
L 566.214947 -143.006575 
L 565.592087 -144.091753 
L 564.928406 -145.17693 
L 564.231431 -146.262108 
L 563.510361 -147.347285 
L 562.775811 -148.432462 
L 562.039431 -149.51764 
L 561.313434 -150.602817 
L 560.610036 -151.687994 
L 559.940856 -152.773172 
L 559.316294 -153.858349 
L 558.74495 -154.943527 
L 558.233101 -156.028704 
L 557.784306 -157.113881 
L 557.399143 -158.199059 
L 557.075132 -159.284236 
L 556.80683 -160.369414 
L 556.586125 -161.454591 
L 556.402697 -162.539768 
L 556.244618 -163.624946 
L 556.099063 -164.710123 
L 555.95308 -165.7953 
L 555.794352 -166.880478 
L 555.611917 -167.965655 
L 555.396787 -169.050833 
L 555.142422 -170.13601 
L 554.845038 -171.221187 
L 554.503719 -172.306365 
L 554.120356 -173.391542 
L 553.699398 -174.47672 
L 553.24747 -175.561897 
L 552.772884 -176.647074 
L 552.285079 -177.732252 
L 551.794065 -178.817429 
L 551.309887 -179.902607 
L 550.842166 -180.987784 
L 550.399745 -182.072961 
L 549.990458 -183.158139 
L 549.62102 -184.243316 
L 549.297043 -185.328493 
L 549.023145 -186.413671 
L 548.803134 -187.498848 
L 548.640219 -188.584026 
L 548.537227 -189.669203 
L 548.496769 -190.75438 
L 548.521355 -191.839558 
L 548.613406 -192.924735 
L 548.775187 -194.009913 
L 549.008643 -195.09509 
L 549.315166 -196.180267 
L 549.695323 -197.265445 
L 550.148567 -198.350622 
L 550.672991 -199.4358 
L 551.265132 -200.520977 
L 551.91988 -201.606154 
L 552.630502 -202.691332 
L 553.388785 -203.776509 
L 554.185302 -204.861686 
L 555.009778 -205.946864 
L 555.85152 -207.032041 
L 556.699894 -208.117219 
L 557.544787 -209.202396 
L 558.377022 -210.287573 
L 559.188705 -211.372751 
L 559.973455 -212.457928 
L 560.726527 -213.543106 
L 561.444805 -214.628283 
L 562.126692 -215.71346 
L 562.771903 -216.798638 
L 563.381196 -217.883815 
L 563.956065 -218.968993 
L 564.498435 -220.05417 
L 565.010371 -221.139347 
L 565.493844 -222.224525 
L 565.950547 -223.309702 
L 566.381784 -224.394879 
L 566.788432 -225.480057 
L 567.170955 -226.565234 
L 567.529473 -227.650412 
L 567.86386 -228.735589 
L 568.173869 -229.820766 
L 568.459251 -230.905944 
L 568.719864 -231.991121 
L 568.95577 -233.076299 
L 569.167291 -234.161476 
L 569.355051 -235.246653 
L 569.519977 -236.331831 
L 569.663278 -237.417008 
L 569.786408 -238.502185 
L 569.891009 -239.587363 
L 569.978847 -240.67254 
L 570.671686 -240.67254 
L 570.671686 -240.67254 
L 570.759525 -239.587363 
L 570.864125 -238.502185 
L 570.987255 -237.417008 
L 571.130557 -236.331831 
L 571.295482 -235.246653 
L 571.483242 -234.161476 
L 571.694764 -233.076299 
L 571.930669 -231.991121 
L 572.191282 -230.905944 
L 572.476664 -229.820766 
L 572.786673 -228.735589 
L 573.121061 -227.650412 
L 573.479578 -226.565234 
L 573.862101 -225.480057 
L 574.268749 -224.394879 
L 574.699987 -223.309702 
L 575.156689 -222.224525 
L 575.640162 -221.139347 
L 576.152098 -220.05417 
L 576.694468 -218.968993 
L 577.269337 -217.883815 
L 577.87863 -216.798638 
L 578.523841 -215.71346 
L 579.205728 -214.628283 
L 579.924006 -213.543106 
L 580.677078 -212.457928 
L 581.461828 -211.372751 
L 582.273511 -210.287573 
L 583.105746 -209.202396 
L 583.950639 -208.117219 
L 584.799013 -207.032041 
L 585.640756 -205.946864 
L 586.465231 -204.861686 
L 587.261748 -203.776509 
L 588.020031 -202.691332 
L 588.730653 -201.606154 
L 589.385401 -200.520977 
L 589.977542 -199.4358 
L 590.501966 -198.350622 
L 590.955211 -197.265445 
L 591.335367 -196.180267 
L 591.64189 -195.09509 
L 591.875346 -194.009913 
L 592.037127 -192.924735 
L 592.129179 -191.839558 
L 592.153764 -190.75438 
L 592.113307 -189.669203 
L 592.010314 -188.584026 
L 591.8474 -187.498848 
L 591.627388 -186.413671 
L 591.353491 -185.328493 
L 591.029513 -184.243316 
L 590.660075 -183.158139 
L 590.250788 -182.072961 
L 589.808368 -180.987784 
L 589.340646 -179.902607 
L 588.856468 -178.817429 
L 588.365454 -177.732252 
L 587.87765 -176.647074 
L 587.403063 -175.561897 
L 586.951135 -174.47672 
L 586.530177 -173.391542 
L 586.146814 -172.306365 
L 585.805496 -171.221187 
L 585.508111 -170.13601 
L 585.253747 -169.050833 
L 585.038617 -167.965655 
L 584.856181 -166.880478 
L 584.697453 -165.7953 
L 584.55147 -164.710123 
L 584.405916 -163.624946 
L 584.247836 -162.539768 
L 584.064408 -161.454591 
L 583.843703 -160.369414 
L 583.575401 -159.284236 
L 583.25139 -158.199059 
L 582.866228 -157.113881 
L 582.417432 -156.028704 
L 581.905584 -154.943527 
L 581.334239 -153.858349 
L 580.709677 -152.773172 
L 580.040497 -151.687994 
L 579.337099 -150.602817 
L 578.611102 -149.51764 
L 577.874722 -148.432462 
L 577.140172 -147.347285 
L 576.419102 -146.262108 
L 575.722127 -145.17693 
L 575.058446 -144.091753 
L 574.435586 -143.006575 
L 573.859249 -141.921398 
L 573.333283 -140.836221 
L 572.859738 -139.751043 
L 572.439021 -138.665866 
L 572.070094 -137.580688 
L 571.750725 -136.495511 
L 571.477753 -135.410334 
L 571.247357 -134.325156 
L 571.055306 -133.239979 
z
" style="stroke: #3f3f3f; stroke-width: 1.25"/>
    </defs>
    <g clip-path="url(#p8d8ac7915c)">
     <use xlink:href="#md87bdf8143" x="0" y="360" style="fill: #e1812c; stroke: #3f3f3f; stroke-width: 1.25"/>
    </g>
   </g>
   <g id="PolyCollection_11">
    <defs>
     <path id="m9aadbabadc" d="M 636.085687 -110.812747 
L 635.535831 -110.812747 
L 635.455955 -112.944473 
L 635.358356 -115.076199 
L 635.240627 -117.207925 
L 635.100368 -119.339651 
L 634.93523 -121.471377 
L 634.742959 -123.603103 
L 634.521417 -125.734829 
L 634.268581 -127.866555 
L 633.982522 -129.998281 
L 633.661369 -132.130007 
L 633.303253 -134.261733 
L 632.90626 -136.393459 
L 632.468399 -138.525185 
L 631.987605 -140.65691 
L 631.461799 -142.788636 
L 630.889006 -144.920362 
L 630.267556 -147.052088 
L 629.596352 -149.183814 
L 628.875203 -151.31554 
L 628.105178 -153.447266 
L 627.288972 -155.578992 
L 626.431222 -157.710718 
L 625.538731 -159.842444 
L 624.620566 -161.97417 
L 623.687981 -164.105896 
L 622.754162 -166.237622 
L 621.833778 -168.369348 
L 620.942372 -170.501074 
L 620.095626 -172.6328 
L 619.308553 -174.764525 
L 618.594703 -176.896251 
L 617.965434 -179.027977 
L 617.429334 -181.159703 
L 616.991838 -183.291429 
L 616.65507 -185.423155 
L 616.41793 -187.554881 
L 616.276395 -189.686607 
L 616.224009 -191.818333 
L 616.252493 -193.950059 
L 616.352414 -196.081785 
L 616.513849 -198.213511 
L 616.726984 -200.345237 
L 616.982602 -202.476963 
L 617.272435 -204.608689 
L 617.589372 -206.740415 
L 617.92754 -208.87214 
L 618.282273 -211.003866 
L 618.650006 -213.135592 
L 619.02814 -215.267318 
L 619.414892 -217.399044 
L 619.809167 -219.53077 
L 620.210462 -221.662496 
L 620.618804 -223.794222 
L 621.034712 -225.925948 
L 621.459164 -228.057674 
L 621.893559 -230.1894 
L 622.339633 -232.321126 
L 622.799336 -234.452852 
L 623.274646 -236.584578 
L 623.767333 -238.716304 
L 624.278685 -240.84803 
L 624.809217 -242.979755 
L 625.358408 -245.111481 
L 625.924484 -247.243207 
L 626.504299 -249.374933 
L 627.093323 -251.506659 
L 627.685773 -253.638385 
L 628.274861 -255.770111 
L 628.853169 -257.901837 
L 629.413105 -260.033563 
L 629.947404 -262.165289 
L 630.44963 -264.297015 
L 630.914617 -266.428741 
L 631.338821 -268.560467 
L 631.720533 -270.692193 
L 632.059943 -272.823919 
L 632.359044 -274.955645 
L 632.621394 -277.08737 
L 632.851756 -279.219096 
L 633.05567 -281.350822 
L 633.238975 -283.482548 
L 633.407359 -285.614274 
L 633.56595 -287.746 
L 633.719005 -289.877726 
L 633.869697 -292.009452 
L 634.020031 -294.141178 
L 634.170859 -296.272904 
L 634.322009 -298.40463 
L 634.472471 -300.536356 
L 634.620645 -302.668082 
L 634.764592 -304.799808 
L 634.902284 -306.931534 
L 635.031819 -309.063259 
L 635.151586 -311.194985 
L 635.260384 -313.326711 
L 635.357474 -315.458437 
L 635.442585 -317.590163 
L 635.515888 -319.721889 
L 635.577919 -321.853615 
L 636.043599 -321.853615 
L 636.043599 -321.853615 
L 636.10563 -319.721889 
L 636.178932 -317.590163 
L 636.264044 -315.458437 
L 636.361133 -313.326711 
L 636.469931 -311.194985 
L 636.589699 -309.063259 
L 636.719234 -306.931534 
L 636.856926 -304.799808 
L 637.000873 -302.668082 
L 637.149047 -300.536356 
L 637.299509 -298.40463 
L 637.450659 -296.272904 
L 637.601487 -294.141178 
L 637.751821 -292.009452 
L 637.902513 -289.877726 
L 638.055568 -287.746 
L 638.214159 -285.614274 
L 638.382543 -283.482548 
L 638.565848 -281.350822 
L 638.769762 -279.219096 
L 639.000124 -277.08737 
L 639.262474 -274.955645 
L 639.561575 -272.823919 
L 639.900985 -270.692193 
L 640.282697 -268.560467 
L 640.706901 -266.428741 
L 641.171888 -264.297015 
L 641.674114 -262.165289 
L 642.208413 -260.033563 
L 642.768349 -257.901837 
L 643.346657 -255.770111 
L 643.935745 -253.638385 
L 644.528195 -251.506659 
L 645.117219 -249.374933 
L 645.697034 -247.243207 
L 646.26311 -245.111481 
L 646.812301 -242.979755 
L 647.342833 -240.84803 
L 647.854185 -238.716304 
L 648.346872 -236.584578 
L 648.822182 -234.452852 
L 649.281885 -232.321126 
L 649.727959 -230.1894 
L 650.162354 -228.057674 
L 650.586806 -225.925948 
L 651.002714 -223.794222 
L 651.411056 -221.662496 
L 651.812351 -219.53077 
L 652.206626 -217.399044 
L 652.593378 -215.267318 
L 652.971512 -213.135592 
L 653.339245 -211.003866 
L 653.693978 -208.87214 
L 654.032146 -206.740415 
L 654.349083 -204.608689 
L 654.638916 -202.476963 
L 654.894534 -200.345237 
L 655.107669 -198.213511 
L 655.269104 -196.081785 
L 655.369025 -193.950059 
L 655.397509 -191.818333 
L 655.345123 -189.686607 
L 655.203588 -187.554881 
L 654.966447 -185.423155 
L 654.629679 -183.291429 
L 654.192184 -181.159703 
L 653.656084 -179.027977 
L 653.026815 -176.896251 
L 652.312965 -174.764525 
L 651.525892 -172.6328 
L 650.679146 -170.501074 
L 649.78774 -168.369348 
L 648.867356 -166.237622 
L 647.933536 -164.105896 
L 647.000952 -161.97417 
L 646.082787 -159.842444 
L 645.190296 -157.710718 
L 644.332546 -155.578992 
L 643.51634 -153.447266 
L 642.746315 -151.31554 
L 642.025165 -149.183814 
L 641.353962 -147.052088 
L 640.732512 -144.920362 
L 640.159719 -142.788636 
L 639.633912 -140.65691 
L 639.153119 -138.525185 
L 638.715258 -136.393459 
L 638.318265 -134.261733 
L 637.960149 -132.130007 
L 637.638995 -129.998281 
L 637.352937 -127.866555 
L 637.100101 -125.734829 
L 636.878559 -123.603103 
L 636.686288 -121.471377 
L 636.52115 -119.339651 
L 636.380891 -117.207925 
L 636.263162 -115.076199 
L 636.165563 -112.944473 
L 636.085687 -110.812747 
z
" style="stroke: #3f3f3f; stroke-width: 1.25"/>
    </defs>
    <g clip-path="url(#p8d8ac7915c)">
     <use xlink:href="#m9aadbabadc" x="0" y="360" style="fill: #3274a1; stroke: #3f3f3f; stroke-width: 1.25"/>
    </g>
   </g>
   <g id="PolyCollection_12">
    <defs>
     <path id="m505681ff29" d="M 679.807069 -119.628754 
L 679.128438 -119.628754 
L 679.031492 -120.988009 
L 678.913117 -122.347264 
L 678.770374 -123.706519 
L 678.600362 -125.065774 
L 678.400322 -126.425028 
L 678.167756 -127.784283 
L 677.900536 -129.143538 
L 677.597015 -130.502793 
L 677.256121 -131.862048 
L 676.877431 -133.221302 
L 676.461212 -134.580557 
L 676.008447 -135.939812 
L 675.520814 -137.299067 
L 675.000643 -138.658322 
L 674.450843 -140.017576 
L 673.874806 -141.376831 
L 673.276295 -142.736086 
L 672.65932 -144.095341 
L 672.028013 -145.454596 
L 671.386513 -146.81385 
L 670.738855 -148.173105 
L 670.088889 -149.53236 
L 669.440222 -150.891615 
L 668.796189 -152.25087 
L 668.159863 -153.610124 
L 667.534092 -154.969379 
L 666.921575 -156.328634 
L 666.324957 -157.687889 
L 665.746934 -159.047144 
L 665.190355 -160.406398 
L 664.658313 -161.765653 
L 664.154183 -163.124908 
L 663.681616 -164.484163 
L 663.244467 -165.843418 
L 662.846647 -167.202672 
L 662.491917 -168.561927 
L 662.183629 -169.921182 
L 661.924443 -171.280437 
L 661.716048 -172.639692 
L 661.558928 -173.998946 
L 661.452205 -175.358201 
L 661.39359 -176.717456 
L 661.379458 -178.076711 
L 661.405062 -179.435966 
L 661.464869 -180.79522 
L 661.552992 -182.154475 
L 661.663692 -183.51373 
L 661.791888 -184.872985 
L 661.933625 -186.23224 
L 662.086467 -187.591494 
L 662.249741 -188.950749 
L 662.424634 -190.310004 
L 662.614103 -191.669259 
L 662.822618 -193.028514 
L 663.055747 -194.387768 
L 663.319632 -195.747023 
L 663.620384 -197.106278 
L 663.963475 -198.465533 
L 664.353159 -199.824788 
L 664.791991 -201.184042 
L 665.280477 -202.543297 
L 665.816887 -203.902552 
L 666.397239 -205.261807 
L 667.015468 -206.621062 
L 667.663744 -207.980316 
L 668.332918 -209.339571 
L 669.013055 -210.698826 
L 669.694008 -212.058081 
L 670.365983 -213.417336 
L 671.020055 -214.77659 
L 671.64859 -216.135845 
L 672.245562 -217.4951 
L 672.806727 -218.854355 
L 673.329669 -220.21361 
L 673.813717 -221.572864 
L 674.259754 -222.932119 
L 674.669935 -224.291374 
L 675.047359 -225.650629 
L 675.395709 -227.009884 
L 675.718898 -228.369138 
L 676.020753 -229.728393 
L 676.304745 -231.087648 
L 676.573791 -232.446903 
L 676.83013 -233.806158 
L 677.075273 -235.165412 
L 677.310021 -236.524667 
L 677.53455 -237.883922 
L 677.748526 -239.243177 
L 677.951256 -240.602432 
L 678.14185 -241.961686 
L 678.319372 -243.320941 
L 678.482977 -244.680196 
L 678.63202 -246.039451 
L 678.766129 -247.398706 
L 678.885249 -248.75796 
L 678.989649 -250.117215 
L 679.079904 -251.47647 
L 679.15685 -252.835725 
L 679.221532 -254.19498 
L 679.713976 -254.19498 
L 679.713976 -254.19498 
L 679.778658 -252.835725 
L 679.855604 -251.47647 
L 679.945859 -250.117215 
L 680.050259 -248.75796 
L 680.169379 -247.398706 
L 680.303488 -246.039451 
L 680.45253 -244.680196 
L 680.616136 -243.320941 
L 680.793658 -241.961686 
L 680.984252 -240.602432 
L 681.186982 -239.243177 
L 681.400957 -237.883922 
L 681.625486 -236.524667 
L 681.860235 -235.165412 
L 682.105378 -233.806158 
L 682.361717 -232.446903 
L 682.630763 -231.087648 
L 682.914755 -229.728393 
L 683.21661 -228.369138 
L 683.539799 -227.009884 
L 683.888148 -225.650629 
L 684.265573 -224.291374 
L 684.675754 -222.932119 
L 685.121791 -221.572864 
L 685.605839 -220.21361 
L 686.128781 -218.854355 
L 686.689946 -217.4951 
L 687.286918 -216.135845 
L 687.915453 -214.77659 
L 688.569525 -213.417336 
L 689.2415 -212.058081 
L 689.922453 -210.698826 
L 690.60259 -209.339571 
L 691.271764 -207.980316 
L 691.92004 -206.621062 
L 692.538269 -205.261807 
L 693.118621 -203.902552 
L 693.65503 -202.543297 
L 694.143517 -201.184042 
L 694.582349 -199.824788 
L 694.972032 -198.465533 
L 695.315123 -197.106278 
L 695.615876 -195.747023 
L 695.879761 -194.387768 
L 696.11289 -193.028514 
L 696.321405 -191.669259 
L 696.510874 -190.310004 
L 696.685767 -188.950749 
L 696.849041 -187.591494 
L 697.001883 -186.23224 
L 697.14362 -184.872985 
L 697.271815 -183.51373 
L 697.382516 -182.154475 
L 697.470639 -180.79522 
L 697.530445 -179.435966 
L 697.55605 -178.076711 
L 697.541918 -176.717456 
L 697.483302 -175.358201 
L 697.37658 -173.998946 
L 697.219459 -172.639692 
L 697.011064 -171.280437 
L 696.751878 -169.921182 
L 696.443591 -168.561927 
L 696.088861 -167.202672 
L 695.691041 -165.843418 
L 695.253891 -164.484163 
L 694.781325 -163.124908 
L 694.277194 -161.765653 
L 693.745152 -160.406398 
L 693.188574 -159.047144 
L 692.61055 -157.687889 
L 692.013932 -156.328634 
L 691.401416 -154.969379 
L 690.775645 -153.610124 
L 690.139318 -152.25087 
L 689.495286 -150.891615 
L 688.846619 -149.53236 
L 688.196653 -148.173105 
L 687.548995 -146.81385 
L 686.907494 -145.454596 
L 686.276188 -144.095341 
L 685.659213 -142.736086 
L 685.060701 -141.376831 
L 684.484665 -140.017576 
L 683.934865 -138.658322 
L 683.414693 -137.299067 
L 682.92706 -135.939812 
L 682.474295 -134.580557 
L 682.058077 -133.221302 
L 681.679386 -131.862048 
L 681.338493 -130.502793 
L 681.034972 -129.143538 
L 680.767752 -127.784283 
L 680.535186 -126.425028 
L 680.335146 -125.065774 
L 680.165134 -123.706519 
L 680.022391 -122.347264 
L 679.904016 -120.988009 
L 679.807069 -119.628754 
z
" style="stroke: #3f3f3f; stroke-width: 1.25"/>
    </defs>
    <g clip-path="url(#p8d8ac7915c)">
     <use xlink:href="#m505681ff29" x="0" y="360" style="fill: #e1812c; stroke: #3f3f3f; stroke-width: 1.25"/>
    </g>
   </g>
   <g id="patch_6">
    <path d="M 439.354282 271.595464 
L 439.354282 271.595464 
L 439.354282 271.595464 
L 439.354282 271.595464 
z
" clip-path="url(#p8d8ac7915c)" style="fill: #3274a1; stroke: #3f3f3f; stroke-width: 1.25; stroke-linejoin: miter"/>
   </g>
   <g id="patch_7">
    <path d="M 439.354282 271.595464 
L 439.354282 271.595464 
L 439.354282 271.595464 
L 439.354282 271.595464 
z
" clip-path="url(#p8d8ac7915c)" style="fill: #e1812c; stroke: #3f3f3f; stroke-width: 1.25; stroke-linejoin: miter"/>
   </g>
   <g id="line2d_27">
    <path d="M 417.525784 216.598881 
L 417.525784 121.509323 
" clip-path="url(#p8d8ac7915c)" style="fill: none; stroke: #3f3f3f; stroke-width: 1.875; stroke-linecap: round"/>
   </g>
   <g id="line2d_28">
    <path d="M 417.525784 185.633102 
L 417.525784 146.344441 
" clip-path="url(#p8d8ac7915c)" style="fill: none; stroke: #3f3f3f; stroke-width: 5.625; stroke-linecap: round"/>
   </g>
   <g id="line2d_29">
    <path d="M 417.525784 169.159084 
" clip-path="url(#p8d8ac7915c)" style="fill: none; stroke: #3f3f3f; stroke-width: 1.5; stroke-linecap: round"/>
    <g clip-path="url(#p8d8ac7915c)">
     <use xlink:href="#m58d6278a44" x="417.525784" y="169.159084" style="fill: #ffffff; stroke: #ffffff; stroke-width: 1.125"/>
    </g>
   </g>
   <g id="line2d_30">
    <path d="M 461.182779 220.622339 
L 461.182779 127.561469 
" clip-path="url(#p8d8ac7915c)" style="fill: none; stroke: #3f3f3f; stroke-width: 1.875; stroke-linecap: round"/>
   </g>
   <g id="line2d_31">
    <path d="M 461.182779 189.408059 
L 461.182779 163.605207 
" clip-path="url(#p8d8ac7915c)" style="fill: none; stroke: #3f3f3f; stroke-width: 5.625; stroke-linecap: round"/>
   </g>
   <g id="line2d_32">
    <path d="M 461.182779 174.450968 
" clip-path="url(#p8d8ac7915c)" style="fill: none; stroke: #3f3f3f; stroke-width: 1.5; stroke-linecap: round"/>
    <g clip-path="url(#p8d8ac7915c)">
     <use xlink:href="#m58d6278a44" x="461.182779" y="174.450968" style="fill: #ffffff; stroke: #ffffff; stroke-width: 1.125"/>
    </g>
   </g>
   <g id="line2d_33">
    <path d="M 526.668272 215.8024 
L 526.668272 109.602342 
" clip-path="url(#p8d8ac7915c)" style="fill: none; stroke: #3f3f3f; stroke-width: 1.875; stroke-linecap: round"/>
   </g>
   <g id="line2d_34">
    <path d="M 526.668272 178.548225 
L 526.668272 141.262337 
" clip-path="url(#p8d8ac7915c)" style="fill: none; stroke: #3f3f3f; stroke-width: 5.625; stroke-linecap: round"/>
   </g>
   <g id="line2d_35">
    <path d="M 526.668272 159.51332 
" clip-path="url(#p8d8ac7915c)" style="fill: none; stroke: #3f3f3f; stroke-width: 1.5; stroke-linecap: round"/>
    <g clip-path="url(#p8d8ac7915c)">
     <use xlink:href="#m58d6278a44" x="526.668272" y="159.51332" style="fill: #ffffff; stroke: #ffffff; stroke-width: 1.125"/>
    </g>
   </g>
   <g id="line2d_36">
    <path d="M 570.325267 206.556237 
L 570.325267 139.531244 
" clip-path="url(#p8d8ac7915c)" style="fill: none; stroke: #3f3f3f; stroke-width: 1.875; stroke-linecap: round"/>
   </g>
   <g id="line2d_37">
    <path d="M 570.325267 189.60524 
L 570.325267 159.731219 
" clip-path="url(#p8d8ac7915c)" style="fill: none; stroke: #3f3f3f; stroke-width: 5.625; stroke-linecap: round"/>
   </g>
   <g id="line2d_38">
    <path d="M 570.325267 173.927336 
" clip-path="url(#p8d8ac7915c)" style="fill: none; stroke: #3f3f3f; stroke-width: 1.5; stroke-linecap: round"/>
    <g clip-path="url(#p8d8ac7915c)">
     <use xlink:href="#m58d6278a44" x="570.325267" y="173.927336" style="fill: #ffffff; stroke: #ffffff; stroke-width: 1.125"/>
    </g>
   </g>
   <g id="line2d_39">
    <path d="M 635.810759 213.929416 
L 635.810759 73.404221 
" clip-path="url(#p8d8ac7915c)" style="fill: none; stroke: #3f3f3f; stroke-width: 1.875; stroke-linecap: round"/>
   </g>
   <g id="line2d_40">
    <path d="M 635.810759 178.101441 
L 635.810759 134.186933 
" clip-path="url(#p8d8ac7915c)" style="fill: none; stroke: #3f3f3f; stroke-width: 5.625; stroke-linecap: round"/>
   </g>
   <g id="line2d_41">
    <path d="M 635.810759 157.830948 
" clip-path="url(#p8d8ac7915c)" style="fill: none; stroke: #3f3f3f; stroke-width: 1.5; stroke-linecap: round"/>
    <g clip-path="url(#p8d8ac7915c)">
     <use xlink:href="#m58d6278a44" x="635.810759" y="157.830948" style="fill: #ffffff; stroke: #ffffff; stroke-width: 1.125"/>
    </g>
   </g>
   <g id="line2d_42">
    <path d="M 679.467754 216.861058 
L 679.467754 129.315208 
" clip-path="url(#p8d8ac7915c)" style="fill: none; stroke: #3f3f3f; stroke-width: 1.875; stroke-linecap: round"/>
   </g>
   <g id="line2d_43">
    <path d="M 679.467754 192.273561 
L 679.467754 160.832639 
" clip-path="url(#p8d8ac7915c)" style="fill: none; stroke: #3f3f3f; stroke-width: 5.625; stroke-linecap: round"/>
   </g>
   <g id="line2d_44">
    <path d="M 679.467754 181.199221 
" clip-path="url(#p8d8ac7915c)" style="fill: none; stroke: #3f3f3f; stroke-width: 1.5; stroke-linecap: round"/>
    <g clip-path="url(#p8d8ac7915c)">
     <use xlink:href="#m58d6278a44" x="679.467754" y="181.199221" style="fill: #ffffff; stroke: #ffffff; stroke-width: 1.125"/>
    </g>
   </g>
   <g id="patch_8">
    <path d="M 384.783038 318.04 
L 384.783038 24.72 
" style="fill: none; stroke: #cccccc; stroke-width: 0.8; stroke-linejoin: miter; stroke-linecap: square"/>
   </g>
   <g id="patch_9">
    <path d="M 384.783038 318.04 
L 712.2105 318.04 
" style="fill: none; stroke: #cccccc; stroke-width: 0.8; stroke-linejoin: miter; stroke-linecap: square"/>
   </g>
   <g id="text_15">
    <!-- sex = m -->
    <g style="fill: #262626" transform="translate(530.853019 18.72) scale(0.1 -0.1)">
     <use xlink:href="#ArialMT-73"/>
     <use xlink:href="#ArialMT-65" x="50"/>
     <use xlink:href="#ArialMT-78" x="105.615234"/>
     <use xlink:href="#ArialMT-20" x="155.615234"/>
     <use xlink:href="#ArialMT-3d" x="183.398438"/>
     <use xlink:href="#ArialMT-20" x="241.796875"/>
     <use xlink:href="#ArialMT-6d" x="269.580078"/>
    </g>
   </g>
  </g>
  <g id="legend_1">
   <g id="text_16">
    <!-- Time -->
    <g style="fill: #262626" transform="translate(733.633594 168.439844) scale(0.1 -0.1)">
     <defs>
      <path id="ArialMT-54" d="M 1659 0 
L 1659 4041 
L 150 4041 
L 150 4581 
L 3781 4581 
L 3781 4041 
L 2266 4041 
L 2266 0 
L 1659 0 
z
" transform="scale(0.015625)"/>
     </defs>
     <use xlink:href="#ArialMT-54"/>
     <use xlink:href="#ArialMT-69" x="57.333984"/>
     <use xlink:href="#ArialMT-6d" x="79.550781"/>
     <use xlink:href="#ArialMT-65" x="162.851562"/>
    </g>
   </g>
   <g id="patch_10">
    <path d="M 719.1625 182.585156 
L 739.1625 182.585156 
L 739.1625 175.585156 
L 719.1625 175.585156 
z
" style="fill: #3274a1; stroke: #3f3f3f; stroke-width: 1.25; stroke-linejoin: miter"/>
   </g>
   <g id="text_17">
    <!-- initial -->
    <g style="fill: #262626" transform="translate(747.1625 182.585156) scale(0.1 -0.1)">
     <use xlink:href="#ArialMT-69"/>
     <use xlink:href="#ArialMT-6e" x="22.216797"/>
     <use xlink:href="#ArialMT-69" x="77.832031"/>
     <use xlink:href="#ArialMT-74" x="100.048828"/>
     <use xlink:href="#ArialMT-69" x="127.832031"/>
     <use xlink:href="#ArialMT-61" x="150.048828"/>
     <use xlink:href="#ArialMT-6c" x="205.664062"/>
    </g>
   </g>
   <g id="patch_11">
    <path d="M 719.1625 196.730469 
L 739.1625 196.730469 
L 739.1625 189.730469 
L 719.1625 189.730469 
z
" style="fill: #e1812c; stroke: #3f3f3f; stroke-width: 1.25; stroke-linejoin: miter"/>
   </g>
   <g id="text_18">
    <!-- final -->
    <g style="fill: #262626" transform="translate(747.1625 196.730469) scale(0.1 -0.1)">
     <use xlink:href="#ArialMT-66"/>
     <use xlink:href="#ArialMT-69" x="27.783203"/>
     <use xlink:href="#ArialMT-6e" x="50"/>
     <use xlink:href="#ArialMT-61" x="105.615234"/>
     <use xlink:href="#ArialMT-6c" x="161.230469"/>
    </g>
   </g>
  </g>
 </g>
 <defs>
  <clipPath id="pc8a244d6d8">
   <rect x="46.5639" y="24.72" width="327.427462" height="293.32"/>
  </clipPath>
  <clipPath id="p8d8ac7915c">
   <rect x="384.783038" y="24.72" width="327.427462" height="293.32"/>
  </clipPath>
 </defs>
</svg>
