<?xml version="1.0" encoding="utf-8" standalone="no"?>
<!DOCTYPE svg PUBLIC "-//W3C//DTD SVG 1.1//EN"
  "http://www.w3.org/Graphics/SVG/1.1/DTD/svg11.dtd">
<svg xmlns:xlink="http://www.w3.org/1999/xlink" width="460.8pt" height="345.6pt" viewBox="0 0 460.8 345.6" xmlns="http://www.w3.org/2000/svg" version="1.1">
 <metadata>
  <rdf:RDF xmlns:dc="http://purl.org/dc/elements/1.1/" xmlns:cc="http://creativecommons.org/ns#" xmlns:rdf="http://www.w3.org/1999/02/22-rdf-syntax-ns#">
   <cc:Work>
    <dc:type rdf:resource="http://purl.org/dc/dcmitype/StillImage"/>
    <dc:date>2024-09-11T05:10:45.714053</dc:date>
    <dc:format>image/svg+xml</dc:format>
    <dc:creator>
     <cc:Agent>
      <dc:title>Matplotlib v3.8.3, https://matplotlib.org/</dc:title>
     </cc:Agent>
    </dc:creator>
   </cc:Work>
  </rdf:RDF>
 </metadata>
 <defs>
  <style type="text/css">*{stroke-linejoin: round; stroke-linecap: butt}</style>
 </defs>
 <g id="figure_1">
  <g id="patch_1">
   <path d="M 0 345.6 
L 460.8 345.6 
L 460.8 0 
L 0 0 
z
" style="fill: #ffffff"/>
  </g>
  <g id="axes_1">
   <g id="patch_2">
    <path d="M 57.6 307.584 
L 414.72 307.584 
L 414.72 41.472 
L 57.6 41.472 
z
" style="fill: #ffffff"/>
   </g>
   <g id="matplotlib.axis_1">
    <g id="xtick_1">
     <g id="text_1">
      <!-- f -->
      <g style="fill: #262626" transform="translate(145.490938 321.741812) scale(0.1 -0.1)">
       <defs>
        <path id="ArialMT-66" d="M 556 0 
L 556 2881 
L 59 2881 
L 59 3319 
L 556 3319 
L 556 3672 
Q 556 4006 616 4169 
Q 697 4388 901 4523 
Q 1106 4659 1475 4659 
Q 1713 4659 2000 4603 
L 1916 4113 
Q 1741 4144 1584 4144 
Q 1328 4144 1222 4034 
Q 1116 3925 1116 3625 
L 1116 3319 
L 1763 3319 
L 1763 2881 
L 1116 2881 
L 1116 0 
L 556 0 
z
" transform="scale(0.015625)"/>
       </defs>
       <use xlink:href="#ArialMT-66"/>
      </g>
     </g>
    </g>
    <g id="xtick_2">
     <g id="text_2">
      <!-- m -->
      <g style="fill: #262626" transform="translate(321.275156 321.741812) scale(0.1 -0.1)">
       <defs>
        <path id="ArialMT-6d" d="M 422 0 
L 422 3319 
L 925 3319 
L 925 2853 
Q 1081 3097 1340 3245 
Q 1600 3394 1931 3394 
Q 2300 3394 2536 3241 
Q 2772 3088 2869 2813 
Q 3263 3394 3894 3394 
Q 4388 3394 4653 3120 
Q 4919 2847 4919 2278 
L 4919 0 
L 4359 0 
L 4359 2091 
Q 4359 2428 4304 2576 
Q 4250 2725 4106 2815 
Q 3963 2906 3769 2906 
Q 3419 2906 3187 2673 
Q 2956 2441 2956 1928 
L 2956 0 
L 2394 0 
L 2394 2156 
Q 2394 2531 2256 2718 
Q 2119 2906 1806 2906 
Q 1569 2906 1367 2781 
Q 1166 2656 1075 2415 
Q 984 2175 984 1722 
L 984 0 
L 422 0 
z
" transform="scale(0.015625)"/>
       </defs>
       <use xlink:href="#ArialMT-6d"/>
      </g>
     </g>
    </g>
    <g id="text_3">
     <!-- sex -->
     <g style="fill: #262626" transform="translate(228.379531 334.887125) scale(0.1 -0.1)">
      <defs>
       <path id="ArialMT-73" d="M 197 991 
L 753 1078 
Q 800 744 1014 566 
Q 1228 388 1613 388 
Q 2000 388 2187 545 
Q 2375 703 2375 916 
Q 2375 1106 2209 1216 
Q 2094 1291 1634 1406 
Q 1016 1563 777 1677 
Q 538 1791 414 1992 
Q 291 2194 291 2438 
Q 291 2659 392 2848 
Q 494 3038 669 3163 
Q 800 3259 1026 3326 
Q 1253 3394 1513 3394 
Q 1903 3394 2198 3281 
Q 2494 3169 2634 2976 
Q 2775 2784 2828 2463 
L 2278 2388 
Q 2241 2644 2061 2787 
Q 1881 2931 1553 2931 
Q 1166 2931 1000 2803 
Q 834 2675 834 2503 
Q 834 2394 903 2306 
Q 972 2216 1119 2156 
Q 1203 2125 1616 2013 
Q 2213 1853 2448 1751 
Q 2684 1650 2818 1456 
Q 2953 1263 2953 975 
Q 2953 694 2789 445 
Q 2625 197 2315 61 
Q 2006 -75 1616 -75 
Q 969 -75 630 194 
Q 291 463 197 991 
z
" transform="scale(0.015625)"/>
       <path id="ArialMT-65" d="M 2694 1069 
L 3275 997 
Q 3138 488 2766 206 
Q 2394 -75 1816 -75 
Q 1088 -75 661 373 
Q 234 822 234 1631 
Q 234 2469 665 2931 
Q 1097 3394 1784 3394 
Q 2450 3394 2872 2941 
Q 3294 2488 3294 1666 
Q 3294 1616 3291 1516 
L 816 1516 
Q 847 969 1125 678 
Q 1403 388 1819 388 
Q 2128 388 2347 550 
Q 2566 713 2694 1069 
z
M 847 1978 
L 2700 1978 
Q 2663 2397 2488 2606 
Q 2219 2931 1791 2931 
Q 1403 2931 1139 2672 
Q 875 2413 847 1978 
z
" transform="scale(0.015625)"/>
       <path id="ArialMT-78" d="M 47 0 
L 1259 1725 
L 138 3319 
L 841 3319 
L 1350 2541 
Q 1494 2319 1581 2169 
Q 1719 2375 1834 2534 
L 2394 3319 
L 3066 3319 
L 1919 1756 
L 3153 0 
L 2463 0 
L 1781 1031 
L 1600 1309 
L 728 0 
L 47 0 
z
" transform="scale(0.015625)"/>
      </defs>
      <use xlink:href="#ArialMT-73"/>
      <use xlink:href="#ArialMT-65" x="50"/>
      <use xlink:href="#ArialMT-78" x="105.615234"/>
     </g>
    </g>
   </g>
   <g id="matplotlib.axis_2">
    <g id="ytick_1">
     <g id="line2d_1">
      <path d="M 57.6 260.651918 
L 414.72 260.651918 
" clip-path="url(#p14b3caa39a)" style="fill: none; stroke: #cccccc; stroke-width: 0.8; stroke-linecap: round"/>
     </g>
     <g id="text_4">
      <!-- 1 -->
      <g style="fill: #262626" transform="translate(45.039062 264.230825) scale(0.1 -0.1)">
       <defs>
        <path id="ArialMT-31" d="M 2384 0 
L 1822 0 
L 1822 3584 
Q 1619 3391 1289 3197 
Q 959 3003 697 2906 
L 697 3450 
Q 1169 3672 1522 3987 
Q 1875 4303 2022 4600 
L 2384 4600 
L 2384 0 
z
" transform="scale(0.015625)"/>
       </defs>
       <use xlink:href="#ArialMT-31"/>
      </g>
     </g>
    </g>
    <g id="ytick_2">
     <g id="line2d_2">
      <path d="M 57.6 201.864261 
L 414.72 201.864261 
" clip-path="url(#p14b3caa39a)" style="fill: none; stroke: #cccccc; stroke-width: 0.8; stroke-linecap: round"/>
     </g>
     <g id="text_5">
      <!-- 2 -->
      <g style="fill: #262626" transform="translate(45.039062 205.443167) scale(0.1 -0.1)">
       <defs>
        <path id="ArialMT-32" d="M 3222 541 
L 3222 0 
L 194 0 
Q 188 203 259 391 
Q 375 700 629 1000 
Q 884 1300 1366 1694 
Q 2113 2306 2375 2664 
Q 2638 3022 2638 3341 
Q 2638 3675 2398 3904 
Q 2159 4134 1775 4134 
Q 1369 4134 1125 3890 
Q 881 3647 878 3216 
L 300 3275 
Q 359 3922 746 4261 
Q 1134 4600 1788 4600 
Q 2447 4600 2831 4234 
Q 3216 3869 3216 3328 
Q 3216 3053 3103 2787 
Q 2991 2522 2730 2228 
Q 2469 1934 1863 1422 
Q 1356 997 1212 845 
Q 1069 694 975 541 
L 3222 541 
z
" transform="scale(0.015625)"/>
       </defs>
       <use xlink:href="#ArialMT-32"/>
      </g>
     </g>
    </g>
    <g id="ytick_3">
     <g id="line2d_3">
      <path d="M 57.6 143.076603 
L 414.72 143.076603 
" clip-path="url(#p14b3caa39a)" style="fill: none; stroke: #cccccc; stroke-width: 0.8; stroke-linecap: round"/>
     </g>
     <g id="text_6">
      <!-- 3 -->
      <g style="fill: #262626" transform="translate(45.039062 146.655509) scale(0.1 -0.1)">
       <defs>
        <path id="ArialMT-33" d="M 269 1209 
L 831 1284 
Q 928 806 1161 595 
Q 1394 384 1728 384 
Q 2125 384 2398 659 
Q 2672 934 2672 1341 
Q 2672 1728 2419 1979 
Q 2166 2231 1775 2231 
Q 1616 2231 1378 2169 
L 1441 2663 
Q 1497 2656 1531 2656 
Q 1891 2656 2178 2843 
Q 2466 3031 2466 3422 
Q 2466 3731 2256 3934 
Q 2047 4138 1716 4138 
Q 1388 4138 1169 3931 
Q 950 3725 888 3313 
L 325 3413 
Q 428 3978 793 4289 
Q 1159 4600 1703 4600 
Q 2078 4600 2393 4439 
Q 2709 4278 2876 4000 
Q 3044 3722 3044 3409 
Q 3044 3113 2884 2869 
Q 2725 2625 2413 2481 
Q 2819 2388 3044 2092 
Q 3269 1797 3269 1353 
Q 3269 753 2831 336 
Q 2394 -81 1725 -81 
Q 1122 -81 723 278 
Q 325 638 269 1209 
z
" transform="scale(0.015625)"/>
       </defs>
       <use xlink:href="#ArialMT-33"/>
      </g>
     </g>
    </g>
    <g id="ytick_4">
     <g id="line2d_4">
      <path d="M 57.6 84.288946 
L 414.72 84.288946 
" clip-path="url(#p14b3caa39a)" style="fill: none; stroke: #cccccc; stroke-width: 0.8; stroke-linecap: round"/>
     </g>
     <g id="text_7">
      <!-- 4 -->
      <g style="fill: #262626" transform="translate(45.039062 87.867852) scale(0.1 -0.1)">
       <defs>
        <path id="ArialMT-34" d="M 2069 0 
L 2069 1097 
L 81 1097 
L 81 1613 
L 2172 4581 
L 2631 4581 
L 2631 1613 
L 3250 1613 
L 3250 1097 
L 2631 1097 
L 2631 0 
L 2069 0 
z
M 2069 1613 
L 2069 3678 
L 634 1613 
L 2069 1613 
z
" transform="scale(0.015625)"/>
       </defs>
       <use xlink:href="#ArialMT-34"/>
      </g>
     </g>
    </g>
    <g id="text_8">
     <!-- FVC (L) -->
     <g style="fill: #262626" transform="translate(38.934375 192.027219) rotate(-90) scale(0.1 -0.1)">
      <defs>
       <path id="ArialMT-46" d="M 525 0 
L 525 4581 
L 3616 4581 
L 3616 4041 
L 1131 4041 
L 1131 2622 
L 3281 2622 
L 3281 2081 
L 1131 2081 
L 1131 0 
L 525 0 
z
" transform="scale(0.015625)"/>
       <path id="ArialMT-56" d="M 1803 0 
L 28 4581 
L 684 4581 
L 1875 1253 
Q 2019 853 2116 503 
Q 2222 878 2363 1253 
L 3600 4581 
L 4219 4581 
L 2425 0 
L 1803 0 
z
" transform="scale(0.015625)"/>
       <path id="ArialMT-43" d="M 3763 1606 
L 4369 1453 
Q 4178 706 3683 314 
Q 3188 -78 2472 -78 
Q 1731 -78 1267 223 
Q 803 525 561 1097 
Q 319 1669 319 2325 
Q 319 3041 592 3573 
Q 866 4106 1370 4382 
Q 1875 4659 2481 4659 
Q 3169 4659 3637 4309 
Q 4106 3959 4291 3325 
L 3694 3184 
Q 3534 3684 3231 3912 
Q 2928 4141 2469 4141 
Q 1941 4141 1586 3887 
Q 1231 3634 1087 3207 
Q 944 2781 944 2328 
Q 944 1744 1114 1308 
Q 1284 872 1643 656 
Q 2003 441 2422 441 
Q 2931 441 3284 734 
Q 3638 1028 3763 1606 
z
" transform="scale(0.015625)"/>
       <path id="ArialMT-20" transform="scale(0.015625)"/>
       <path id="ArialMT-28" d="M 1497 -1347 
Q 1031 -759 709 28 
Q 388 816 388 1659 
Q 388 2403 628 3084 
Q 909 3875 1497 4659 
L 1900 4659 
Q 1522 4009 1400 3731 
Q 1209 3300 1100 2831 
Q 966 2247 966 1656 
Q 966 153 1900 -1347 
L 1497 -1347 
z
" transform="scale(0.015625)"/>
       <path id="ArialMT-4c" d="M 469 0 
L 469 4581 
L 1075 4581 
L 1075 541 
L 3331 541 
L 3331 0 
L 469 0 
z
" transform="scale(0.015625)"/>
       <path id="ArialMT-29" d="M 791 -1347 
L 388 -1347 
Q 1322 153 1322 1656 
Q 1322 2244 1188 2822 
Q 1081 3291 891 3722 
Q 769 4003 388 4659 
L 791 4659 
Q 1378 3875 1659 3084 
Q 1900 2403 1900 1659 
Q 1900 816 1576 28 
Q 1253 -759 791 -1347 
z
" transform="scale(0.015625)"/>
      </defs>
      <use xlink:href="#ArialMT-46"/>
      <use xlink:href="#ArialMT-56" x="61.083984"/>
      <use xlink:href="#ArialMT-43" x="127.783203"/>
      <use xlink:href="#ArialMT-20" x="200"/>
      <use xlink:href="#ArialMT-28" x="227.783203"/>
      <use xlink:href="#ArialMT-4c" x="261.083984"/>
      <use xlink:href="#ArialMT-29" x="316.699219"/>
     </g>
    </g>
   </g>
   <g id="PolyCollection_1">
    <defs>
     <path id="me1bf5cc7a2" d="M 112.593416 -50.570005 
L 109.742584 -50.570005 
L 109.406186 -52.535275 
L 109.009605 -54.500545 
L 108.546925 -56.465815 
L 108.012761 -58.431085 
L 107.40255 -60.396355 
L 106.712845 -62.361625 
L 105.941623 -64.326896 
L 105.088565 -66.292166 
L 104.155314 -68.257436 
L 103.145676 -70.222706 
L 102.065748 -72.187976 
L 100.923976 -74.153246 
L 99.731101 -76.118516 
L 98.500011 -78.083786 
L 97.245481 -80.049056 
L 95.983811 -82.014327 
L 94.732364 -83.979597 
L 93.509025 -85.944867 
L 92.331597 -87.910137 
L 91.217161 -89.875407 
L 90.181424 -91.840677 
L 89.23808 -93.805947 
L 88.398233 -95.771217 
L 87.66988 -97.736487 
L 87.057512 -99.701758 
L 86.561832 -101.667028 
L 86.179615 -103.632298 
L 85.903732 -105.597568 
L 85.723326 -107.562838 
L 85.624148 -109.528108 
L 85.589051 -111.493378 
L 85.598611 -113.458648 
L 85.63187 -115.423918 
L 85.667168 -117.389189 
L 85.683029 -119.354459 
L 85.65907 -121.319729 
L 85.576903 -123.284999 
L 85.420971 -125.250269 
L 85.179314 -127.215539 
L 84.844191 -129.180809 
L 84.412564 -131.146079 
L 83.886394 -133.111349 
L 83.27274 -135.07662 
L 82.583652 -137.04189 
L 81.835849 -139.00716 
L 81.0502 -140.97243 
L 80.251006 -142.9377 
L 79.465133 -144.90297 
L 78.721002 -146.86824 
L 78.047497 -148.83351 
L 77.472827 -150.79878 
L 77.023389 -152.764051 
L 76.722692 -154.729321 
L 76.590382 -156.694591 
L 76.641422 -158.659861 
L 76.885463 -160.625131 
L 77.326446 -162.590401 
L 77.962441 -164.555671 
L 78.785757 -166.520941 
L 79.783293 -168.486211 
L 80.937134 -170.451481 
L 82.225344 -172.416752 
L 83.622931 -174.382022 
L 85.102916 -176.347292 
L 86.637459 -178.312562 
L 88.198978 -180.277832 
L 89.761197 -182.243102 
L 91.300083 -184.208372 
L 92.794607 -186.173642 
L 94.227315 -188.138912 
L 95.584674 -190.104183 
L 96.857199 -192.069453 
L 98.039362 -194.034723 
L 99.129309 -195.999993 
L 100.128421 -197.965263 
L 101.040752 -199.930533 
L 101.872398 -201.895803 
L 102.630835 -203.861073 
L 103.324283 -205.826343 
L 103.96111 -207.791614 
L 104.549336 -209.756884 
L 105.096233 -211.722154 
L 105.608047 -213.687424 
L 106.089836 -215.652694 
L 106.545415 -217.617964 
L 106.97741 -219.583234 
L 107.387374 -221.548504 
L 107.775972 -223.513774 
L 108.143191 -225.479045 
L 108.488565 -227.444315 
L 108.811391 -229.409585 
L 109.110927 -231.374855 
L 109.386548 -233.340125 
L 109.637874 -235.305395 
L 109.864846 -237.270665 
L 110.067769 -239.235935 
L 110.247315 -241.201205 
L 110.404499 -243.166476 
L 110.540632 -245.131746 
L 111.795368 -245.131746 
L 111.795368 -245.131746 
L 111.931501 -243.166476 
L 112.088685 -241.201205 
L 112.268231 -239.235935 
L 112.471154 -237.270665 
L 112.698126 -235.305395 
L 112.949452 -233.340125 
L 113.225073 -231.374855 
L 113.524609 -229.409585 
L 113.847435 -227.444315 
L 114.192809 -225.479045 
L 114.560028 -223.513774 
L 114.948626 -221.548504 
L 115.35859 -219.583234 
L 115.790585 -217.617964 
L 116.246164 -215.652694 
L 116.727953 -213.687424 
L 117.239767 -211.722154 
L 117.786664 -209.756884 
L 118.37489 -207.791614 
L 119.011717 -205.826343 
L 119.705165 -203.861073 
L 120.463602 -201.895803 
L 121.295248 -199.930533 
L 122.207579 -197.965263 
L 123.206691 -195.999993 
L 124.296638 -194.034723 
L 125.478801 -192.069453 
L 126.751326 -190.104183 
L 128.108685 -188.138912 
L 129.541393 -186.173642 
L 131.035917 -184.208372 
L 132.574803 -182.243102 
L 134.137022 -180.277832 
L 135.698541 -178.312562 
L 137.233084 -176.347292 
L 138.713069 -174.382022 
L 140.110656 -172.416752 
L 141.398866 -170.451481 
L 142.552707 -168.486211 
L 143.550243 -166.520941 
L 144.373559 -164.555671 
L 145.009554 -162.590401 
L 145.450537 -160.625131 
L 145.694578 -158.659861 
L 145.745618 -156.694591 
L 145.613308 -154.729321 
L 145.312611 -152.764051 
L 144.863173 -150.79878 
L 144.288503 -148.83351 
L 143.614998 -146.86824 
L 142.870867 -144.90297 
L 142.084994 -142.9377 
L 141.2858 -140.97243 
L 140.500151 -139.00716 
L 139.752348 -137.04189 
L 139.06326 -135.07662 
L 138.449606 -133.111349 
L 137.923436 -131.146079 
L 137.491809 -129.180809 
L 137.156686 -127.215539 
L 136.915029 -125.250269 
L 136.759097 -123.284999 
L 136.67693 -121.319729 
L 136.652971 -119.354459 
L 136.668832 -117.389189 
L 136.70413 -115.423918 
L 136.737389 -113.458648 
L 136.746949 -111.493378 
L 136.711852 -109.528108 
L 136.612674 -107.562838 
L 136.432268 -105.597568 
L 136.156385 -103.632298 
L 135.774168 -101.667028 
L 135.278488 -99.701758 
L 134.66612 -97.736487 
L 133.937767 -95.771217 
L 133.09792 -93.805947 
L 132.154576 -91.840677 
L 131.118839 -89.875407 
L 130.004403 -87.910137 
L 128.826975 -85.944867 
L 127.603636 -83.979597 
L 126.352189 -82.014327 
L 125.090519 -80.049056 
L 123.835989 -78.083786 
L 122.604899 -76.118516 
L 121.412024 -74.153246 
L 120.270252 -72.187976 
L 119.190324 -70.222706 
L 118.180686 -68.257436 
L 117.247435 -66.292166 
L 116.394377 -64.326896 
L 115.623155 -62.361625 
L 114.93345 -60.396355 
L 114.323239 -58.431085 
L 113.789075 -56.465815 
L 113.326395 -54.500545 
L 112.929814 -52.535275 
L 112.593416 -50.570005 
z
" style="stroke: #3f3f3f; stroke-width: 1.25"/>
    </defs>
    <g clip-path="url(#p14b3caa39a)">
     <use xlink:href="#me1bf5cc7a2" x="0" y="345.6" style="fill: #3274a1; stroke: #3f3f3f; stroke-width: 1.25"/>
    </g>
   </g>
   <g id="PolyCollection_2">
    <defs>
     <path id="m907de6cdc2" d="M 183.138741 -65.989164 
L 182.045259 -65.989164 
L 181.907907 -68.147678 
L 181.744447 -70.306193 
L 181.552038 -72.464707 
L 181.327979 -74.623222 
L 181.069796 -76.781736 
L 180.775334 -78.940251 
L 180.442828 -81.098765 
L 180.070966 -83.257279 
L 179.658933 -85.415794 
L 179.206426 -87.574308 
L 178.713645 -89.732823 
L 178.18127 -91.891337 
L 177.610402 -94.049852 
L 177.0025 -96.208366 
L 176.359303 -98.366881 
L 175.682743 -100.525395 
L 174.974874 -102.68391 
L 174.237796 -104.842424 
L 173.473602 -107.000939 
L 172.684344 -109.159453 
L 171.872015 -111.317968 
L 171.038559 -113.476482 
L 170.185896 -115.634996 
L 169.315977 -117.793511 
L 168.430845 -119.952025 
L 167.532721 -122.11054 
L 166.624085 -124.269054 
L 165.707776 -126.427569 
L 164.787077 -128.586083 
L 163.865791 -130.744598 
L 162.948304 -132.903112 
L 162.039617 -135.061627 
L 161.145351 -137.220141 
L 160.271705 -139.378656 
L 159.42539 -141.53717 
L 158.613505 -143.695684 
L 157.843393 -145.854199 
L 157.122454 -148.012713 
L 156.457954 -150.171228 
L 155.856809 -152.329742 
L 155.325388 -154.488257 
L 154.869326 -156.646771 
L 154.493368 -158.805286 
L 154.20125 -160.9638 
L 153.995624 -163.122315 
L 153.878023 -165.280829 
L 153.848878 -167.439344 
L 153.907562 -169.597858 
L 154.052475 -171.756372 
L 154.28115 -173.914887 
L 154.590374 -176.073401 
L 154.976311 -178.231916 
L 155.434627 -180.39043 
L 155.960599 -182.548945 
L 156.549215 -184.707459 
L 157.195245 -186.865974 
L 157.893298 -189.024488 
L 158.637851 -191.183003 
L 159.423265 -193.341517 
L 160.243783 -195.500032 
L 161.093526 -197.658546 
L 161.966486 -199.817061 
L 162.856539 -201.975575 
L 163.757469 -204.134089 
L 164.663023 -206.292604 
L 165.566997 -208.451118 
L 166.463349 -210.609633 
L 167.346336 -212.768147 
L 168.210676 -214.926662 
L 169.051703 -217.085176 
L 169.865516 -219.243691 
L 170.649104 -221.402205 
L 171.400426 -223.56072 
L 172.118437 -225.719234 
L 172.803057 -227.877749 
L 173.455074 -230.036263 
L 174.076004 -232.194777 
L 174.667885 -234.353292 
L 175.233064 -236.511806 
L 175.773961 -238.670321 
L 176.292846 -240.828835 
L 176.791651 -242.98735 
L 177.271818 -245.145864 
L 177.734211 -247.304379 
L 178.179088 -249.462893 
L 178.606127 -251.621408 
L 179.014514 -253.779922 
L 179.403062 -255.938437 
L 179.77037 -258.096951 
L 180.114977 -260.255466 
L 180.435527 -262.41398 
L 180.730905 -264.572494 
L 181.000348 -266.731009 
L 181.243519 -268.889523 
L 181.460548 -271.048038 
L 181.652029 -273.206552 
L 181.81899 -275.365067 
L 181.962832 -277.523581 
L 182.085259 -279.682096 
L 183.098741 -279.682096 
L 183.098741 -279.682096 
L 183.221168 -277.523581 
L 183.36501 -275.365067 
L 183.531971 -273.206552 
L 183.723452 -271.048038 
L 183.940481 -268.889523 
L 184.183652 -266.731009 
L 184.453095 -264.572494 
L 184.748473 -262.41398 
L 185.069023 -260.255466 
L 185.41363 -258.096951 
L 185.780938 -255.938437 
L 186.169486 -253.779922 
L 186.577873 -251.621408 
L 187.004912 -249.462893 
L 187.449789 -247.304379 
L 187.912182 -245.145864 
L 188.392349 -242.98735 
L 188.891154 -240.828835 
L 189.410039 -238.670321 
L 189.950936 -236.511806 
L 190.516115 -234.353292 
L 191.107996 -232.194777 
L 191.728926 -230.036263 
L 192.380943 -227.877749 
L 193.065563 -225.719234 
L 193.783574 -223.56072 
L 194.534896 -221.402205 
L 195.318484 -219.243691 
L 196.132297 -217.085176 
L 196.973324 -214.926662 
L 197.837664 -212.768147 
L 198.720651 -210.609633 
L 199.617003 -208.451118 
L 200.520977 -206.292604 
L 201.426531 -204.134089 
L 202.327461 -201.975575 
L 203.217514 -199.817061 
L 204.090474 -197.658546 
L 204.940217 -195.500032 
L 205.760735 -193.341517 
L 206.546149 -191.183003 
L 207.290702 -189.024488 
L 207.988755 -186.865974 
L 208.634785 -184.707459 
L 209.223401 -182.548945 
L 209.749373 -180.39043 
L 210.207689 -178.231916 
L 210.593626 -176.073401 
L 210.90285 -173.914887 
L 211.131525 -171.756372 
L 211.276438 -169.597858 
L 211.335122 -167.439344 
L 211.305977 -165.280829 
L 211.188376 -163.122315 
L 210.98275 -160.9638 
L 210.690632 -158.805286 
L 210.314674 -156.646771 
L 209.858612 -154.488257 
L 209.327191 -152.329742 
L 208.726046 -150.171228 
L 208.061546 -148.012713 
L 207.340607 -145.854199 
L 206.570495 -143.695684 
L 205.75861 -141.53717 
L 204.912295 -139.378656 
L 204.038649 -137.220141 
L 203.144383 -135.061627 
L 202.235696 -132.903112 
L 201.318209 -130.744598 
L 200.396923 -128.586083 
L 199.476224 -126.427569 
L 198.559915 -124.269054 
L 197.651279 -122.11054 
L 196.753155 -119.952025 
L 195.868023 -117.793511 
L 194.998104 -115.634996 
L 194.145441 -113.476482 
L 193.311985 -111.317968 
L 192.499656 -109.159453 
L 191.710398 -107.000939 
L 190.946204 -104.842424 
L 190.209126 -102.68391 
L 189.501257 -100.525395 
L 188.824697 -98.366881 
L 188.1815 -96.208366 
L 187.573598 -94.049852 
L 187.00273 -91.891337 
L 186.470355 -89.732823 
L 185.977574 -87.574308 
L 185.525067 -85.415794 
L 185.113034 -83.257279 
L 184.741172 -81.098765 
L 184.408666 -78.940251 
L 184.114204 -76.781736 
L 183.856021 -74.623222 
L 183.631962 -72.464707 
L 183.439553 -70.306193 
L 183.276093 -68.147678 
L 183.138741 -65.989164 
z
" style="stroke: #3f3f3f; stroke-width: 1.25"/>
    </defs>
    <g clip-path="url(#p14b3caa39a)">
     <use xlink:href="#m907de6cdc2" x="0" y="345.6" style="fill: #e1812c; stroke: #3f3f3f; stroke-width: 1.25"/>
    </g>
   </g>
   <g id="PolyCollection_3">
    <defs>
     <path id="mc1c7eaea74" d="M 290.104061 -50.112 
L 289.351939 -50.112 
L 289.253227 -52.555636 
L 289.136427 -54.999273 
L 289.000348 -57.442909 
L 288.844205 -59.886545 
L 288.667667 -62.330182 
L 288.470865 -64.773818 
L 288.254327 -67.217455 
L 288.018846 -69.661091 
L 287.765251 -72.104727 
L 287.494117 -74.548364 
L 287.205392 -76.992 
L 286.897996 -79.435636 
L 286.569413 -81.879273 
L 286.215322 -84.322909 
L 285.829324 -86.766545 
L 285.402805 -89.210182 
L 284.924987 -91.653818 
L 284.383195 -94.097455 
L 283.763355 -96.541091 
L 283.050716 -98.984727 
L 282.230775 -101.428364 
L 281.29034 -103.872 
L 280.21867 -106.315636 
L 279.008606 -108.759273 
L 277.657602 -111.202909 
L 276.168565 -113.646545 
L 274.550435 -116.090182 
L 272.818437 -118.533818 
L 270.993983 -120.977455 
L 269.104209 -123.421091 
L 267.181176 -125.864727 
L 265.260778 -128.308364 
L 263.38142 -130.752 
L 261.582551 -133.195636 
L 259.90313 -135.639273 
L 258.380096 -138.082909 
L 257.04694 -140.526545 
L 255.932417 -142.970182 
L 255.059456 -145.413818 
L 254.444316 -147.857455 
L 254.096006 -150.301091 
L 254.016 -152.744727 
L 254.198241 -155.188364 
L 254.629457 -157.632 
L 255.289766 -160.075636 
L 256.153549 -162.519273 
L 257.190551 -164.962909 
L 258.367169 -167.406545 
L 259.647836 -169.850182 
L 260.99644 -172.293818 
L 262.377687 -174.737455 
L 263.758335 -177.181091 
L 265.108235 -179.624727 
L 266.401134 -182.068364 
L 267.615225 -184.512 
L 268.733453 -186.955636 
L 269.743605 -189.399273 
L 270.638224 -191.842909 
L 271.414407 -194.286545 
L 272.073515 -196.730182 
L 272.620844 -199.173818 
L 273.065261 -201.617455 
L 273.418793 -204.061091 
L 273.696186 -206.504727 
L 273.914372 -208.948364 
L 274.091851 -211.392 
L 274.247983 -213.835636 
L 274.402182 -216.279273 
L 274.573057 -218.722909 
L 274.777561 -221.166545 
L 275.030179 -223.610182 
L 275.342258 -226.053818 
L 275.721512 -228.497455 
L 276.171761 -230.941091 
L 276.692923 -233.384727 
L 277.28125 -235.828364 
L 277.929785 -238.272 
L 278.628981 -240.715636 
L 279.367437 -243.159273 
L 280.132652 -245.602909 
L 280.91177 -248.046545 
L 281.692231 -250.490182 
L 282.462311 -252.933818 
L 283.211527 -255.377455 
L 283.930901 -257.821091 
L 284.613095 -260.264727 
L 285.25244 -262.708364 
L 285.844882 -265.152 
L 286.387873 -267.595636 
L 286.880218 -270.039273 
L 287.321912 -272.482909 
L 287.71397 -274.926545 
L 288.058252 -277.370182 
L 288.357303 -279.813818 
L 288.614193 -282.257455 
L 288.832373 -284.701091 
L 289.01553 -287.144727 
L 289.167461 -289.588364 
L 289.291962 -292.032 
L 290.164038 -292.032 
L 290.164038 -292.032 
L 290.288539 -289.588364 
L 290.44047 -287.144727 
L 290.623627 -284.701091 
L 290.841807 -282.257455 
L 291.098697 -279.813818 
L 291.397748 -277.370182 
L 291.74203 -274.926545 
L 292.134088 -272.482909 
L 292.575782 -270.039273 
L 293.068127 -267.595636 
L 293.611118 -265.152 
L 294.20356 -262.708364 
L 294.842905 -260.264727 
L 295.525099 -257.821091 
L 296.244473 -255.377455 
L 296.993689 -252.933818 
L 297.763769 -250.490182 
L 298.54423 -248.046545 
L 299.323348 -245.602909 
L 300.088563 -243.159273 
L 300.827019 -240.715636 
L 301.526215 -238.272 
L 302.17475 -235.828364 
L 302.763077 -233.384727 
L 303.284239 -230.941091 
L 303.734488 -228.497455 
L 304.113742 -226.053818 
L 304.425821 -223.610182 
L 304.678439 -221.166545 
L 304.882943 -218.722909 
L 305.053818 -216.279273 
L 305.208017 -213.835636 
L 305.364149 -211.392 
L 305.541628 -208.948364 
L 305.759814 -206.504727 
L 306.037207 -204.061091 
L 306.390739 -201.617455 
L 306.835156 -199.173818 
L 307.382485 -196.730182 
L 308.041593 -194.286545 
L 308.817776 -191.842909 
L 309.712395 -189.399273 
L 310.722547 -186.955636 
L 311.840775 -184.512 
L 313.054866 -182.068364 
L 314.347765 -179.624727 
L 315.697665 -177.181091 
L 317.078313 -174.737455 
L 318.45956 -172.293818 
L 319.808164 -169.850182 
L 321.088831 -167.406545 
L 322.265449 -164.962909 
L 323.302451 -162.519273 
L 324.166234 -160.075636 
L 324.826543 -157.632 
L 325.257759 -155.188364 
L 325.44 -152.744727 
L 325.359994 -150.301091 
L 325.011684 -147.857455 
L 324.396544 -145.413818 
L 323.523583 -142.970182 
L 322.40906 -140.526545 
L 321.075904 -138.082909 
L 319.55287 -135.639273 
L 317.873449 -133.195636 
L 316.07458 -130.752 
L 314.195222 -128.308364 
L 312.274824 -125.864727 
L 310.351791 -123.421091 
L 308.462017 -120.977455 
L 306.637563 -118.533818 
L 304.905565 -116.090182 
L 303.287435 -113.646545 
L 301.798398 -111.202909 
L 300.447394 -108.759273 
L 299.23733 -106.315636 
L 298.16566 -103.872 
L 297.225225 -101.428364 
L 296.405284 -98.984727 
L 295.692645 -96.541091 
L 295.072805 -94.097455 
L 294.531013 -91.653818 
L 294.053195 -89.210182 
L 293.626676 -86.766545 
L 293.240678 -84.322909 
L 292.886587 -81.879273 
L 292.558004 -79.435636 
L 292.250608 -76.992 
L 291.961883 -74.548364 
L 291.690749 -72.104727 
L 291.437154 -69.661091 
L 291.201673 -67.217455 
L 290.985135 -64.773818 
L 290.788333 -62.330182 
L 290.611795 -59.886545 
L 290.455652 -57.442909 
L 290.319573 -54.999273 
L 290.202773 -52.555636 
L 290.104061 -50.112 
z
" style="stroke: #3f3f3f; stroke-width: 1.25"/>
    </defs>
    <g clip-path="url(#p14b3caa39a)">
     <use xlink:href="#mc1c7eaea74" x="0" y="345.6" style="fill: #3274a1; stroke: #3f3f3f; stroke-width: 1.25"/>
    </g>
   </g>
   <g id="PolyCollection_4">
    <defs>
     <path id="m702d8469c6" d="M 361.590142 -74.507463 
L 360.713858 -74.507463 
L 360.586375 -76.505767 
L 360.431147 -78.504071 
L 360.244709 -80.502375 
L 360.023693 -82.500679 
L 359.764891 -84.498983 
L 359.465288 -86.497287 
L 359.122063 -88.49559 
L 358.732548 -90.493894 
L 358.294163 -92.492198 
L 357.804345 -94.490502 
L 357.260479 -96.488806 
L 356.659892 -98.48711 
L 355.999898 -100.485414 
L 355.277961 -102.483718 
L 354.491948 -104.482022 
L 353.640484 -106.480326 
L 352.723376 -108.478629 
L 351.742052 -110.476933 
L 350.699945 -112.475237 
L 349.602751 -114.473541 
L 348.458493 -116.471845 
L 347.277318 -118.470149 
L 346.071029 -120.468453 
L 344.852347 -122.466757 
L 343.633968 -124.465061 
L 342.427518 -126.463365 
L 341.242536 -128.461669 
L 340.085637 -130.459972 
L 338.959984 -132.458276 
L 337.865197 -134.45658 
L 336.797756 -136.454884 
L 335.751897 -138.453188 
L 334.720937 -140.451492 
L 333.698883 -142.449796 
L 332.682151 -144.4481 
L 331.671153 -146.446404 
L 330.671552 -148.444708 
L 329.694978 -150.443011 
L 328.759071 -152.441315 
L 327.886796 -154.439619 
L 327.105049 -156.437923 
L 326.442694 -158.436227 
L 325.928204 -160.434531 
L 325.587178 -162.432835 
L 325.44 -164.431139 
L 325.499903 -166.429443 
L 325.771658 -168.427747 
L 326.251045 -170.42605 
L 326.925139 -172.424354 
L 327.7734 -174.422658 
L 328.769415 -176.420962 
L 329.883088 -178.419266 
L 331.083048 -180.41757 
L 332.338991 -182.415874 
L 333.623719 -184.414178 
L 334.914696 -186.412482 
L 336.194965 -188.410786 
L 337.453407 -190.409089 
L 338.684359 -192.407393 
L 339.886703 -194.405697 
L 341.062569 -196.404001 
L 342.215859 -198.402305 
L 343.350755 -200.400609 
L 344.470408 -202.398913 
L 345.575933 -204.397217 
L 346.665794 -206.395521 
L 347.735635 -208.393825 
L 348.77852 -210.392129 
L 349.785533 -212.390432 
L 350.746643 -214.388736 
L 351.651717 -216.38704 
L 352.491551 -218.385344 
L 353.258816 -220.383648 
L 353.948809 -222.381952 
L 354.559941 -224.380256 
L 355.093922 -226.37856 
L 355.555631 -228.376864 
L 355.952703 -230.375168 
L 356.294886 -232.373471 
L 356.593231 -234.371775 
L 356.859216 -236.370079 
L 357.10389 -238.368383 
L 357.337103 -240.366687 
L 357.566911 -242.364991 
L 357.799181 -244.363295 
L 358.037424 -246.361599 
L 358.282852 -248.359903 
L 358.534623 -250.358207 
L 358.790239 -252.35651 
L 359.046028 -254.354814 
L 359.297673 -256.353118 
L 359.540704 -258.351422 
L 359.77094 -260.349726 
L 359.984829 -262.34803 
L 360.179668 -264.346334 
L 360.353724 -266.344638 
L 360.506239 -268.342942 
L 360.637352 -270.341246 
L 360.747961 -272.339549 
L 361.556039 -272.339549 
L 361.556039 -272.339549 
L 361.666648 -270.341246 
L 361.797761 -268.342942 
L 361.950276 -266.344638 
L 362.124332 -264.346334 
L 362.319171 -262.34803 
L 362.53306 -260.349726 
L 362.763296 -258.351422 
L 363.006327 -256.353118 
L 363.257972 -254.354814 
L 363.513761 -252.35651 
L 363.769377 -250.358207 
L 364.021148 -248.359903 
L 364.266576 -246.361599 
L 364.504819 -244.363295 
L 364.737089 -242.364991 
L 364.966897 -240.366687 
L 365.20011 -238.368383 
L 365.444784 -236.370079 
L 365.710769 -234.371775 
L 366.009114 -232.373471 
L 366.351297 -230.375168 
L 366.748369 -228.376864 
L 367.210078 -226.37856 
L 367.744059 -224.380256 
L 368.355191 -222.381952 
L 369.045184 -220.383648 
L 369.812449 -218.385344 
L 370.652283 -216.38704 
L 371.557357 -214.388736 
L 372.518467 -212.390432 
L 373.52548 -210.392129 
L 374.568365 -208.393825 
L 375.638206 -206.395521 
L 376.728067 -204.397217 
L 377.833592 -202.398913 
L 378.953245 -200.400609 
L 380.088141 -198.402305 
L 381.241431 -196.404001 
L 382.417297 -194.405697 
L 383.619641 -192.407393 
L 384.850593 -190.409089 
L 386.109035 -188.410786 
L 387.389304 -186.412482 
L 388.680281 -184.414178 
L 389.965009 -182.415874 
L 391.220952 -180.41757 
L 392.420912 -178.419266 
L 393.534585 -176.420962 
L 394.5306 -174.422658 
L 395.378861 -172.424354 
L 396.052955 -170.42605 
L 396.532342 -168.427747 
L 396.804097 -166.429443 
L 396.864 -164.431139 
L 396.716822 -162.432835 
L 396.375796 -160.434531 
L 395.861306 -158.436227 
L 395.198951 -156.437923 
L 394.417204 -154.439619 
L 393.544929 -152.441315 
L 392.609022 -150.443011 
L 391.632448 -148.444708 
L 390.632847 -146.446404 
L 389.621849 -144.4481 
L 388.605117 -142.449796 
L 387.583063 -140.451492 
L 386.552103 -138.453188 
L 385.506244 -136.454884 
L 384.438803 -134.45658 
L 383.344016 -132.458276 
L 382.218363 -130.459972 
L 381.061464 -128.461669 
L 379.876482 -126.463365 
L 378.670032 -124.465061 
L 377.451653 -122.466757 
L 376.232971 -120.468453 
L 375.026682 -118.470149 
L 373.845507 -116.471845 
L 372.701249 -114.473541 
L 371.604055 -112.475237 
L 370.561948 -110.476933 
L 369.580624 -108.478629 
L 368.663516 -106.480326 
L 367.812052 -104.482022 
L 367.026039 -102.483718 
L 366.304102 -100.485414 
L 365.644108 -98.48711 
L 365.043521 -96.488806 
L 364.499655 -94.490502 
L 364.009837 -92.492198 
L 363.571452 -90.493894 
L 363.181937 -88.49559 
L 362.838712 -86.497287 
L 362.539109 -84.498983 
L 362.280307 -82.500679 
L 362.059291 -80.502375 
L 361.872853 -78.504071 
L 361.717625 -76.505767 
L 361.590142 -74.507463 
z
" style="stroke: #3f3f3f; stroke-width: 1.25"/>
    </defs>
    <g clip-path="url(#p14b3caa39a)">
     <use xlink:href="#m702d8469c6" x="0" y="345.6" style="fill: #e1812c; stroke: #3f3f3f; stroke-width: 1.25"/>
    </g>
   </g>
   <g id="patch_3">
    <path d="M 146.88 319.439576 
L 146.88 319.439576 
L 146.88 319.439576 
L 146.88 319.439576 
z
" clip-path="url(#p14b3caa39a)" style="fill: #3274a1; stroke: #3f3f3f; stroke-width: 1.25; stroke-linejoin: miter"/>
   </g>
   <g id="patch_4">
    <path d="M 146.88 319.439576 
L 146.88 319.439576 
L 146.88 319.439576 
L 146.88 319.439576 
z
" clip-path="url(#p14b3caa39a)" style="fill: #e1812c; stroke: #3f3f3f; stroke-width: 1.25; stroke-linejoin: miter"/>
   </g>
   <g id="line2d_5">
    <path d="M 111.168 255.361029 
L 111.168 140.13722 
" clip-path="url(#p14b3caa39a)" style="fill: none; stroke: #3f3f3f; stroke-width: 1.875; stroke-linecap: round"/>
   </g>
   <g id="line2d_6">
    <path d="M 111.168 236.255041 
L 111.168 180.112827 
" clip-path="url(#p14b3caa39a)" style="fill: none; stroke: #3f3f3f; stroke-width: 5.625; stroke-linecap: round"/>
   </g>
   <g id="line2d_7">
    <path d="M 111.168 200.100631 
" clip-path="url(#p14b3caa39a)" style="fill: none; stroke: #3f3f3f; stroke-width: 1.5; stroke-linecap: round"/>
    <defs>
     <path id="md9a70a889a" d="M 2.34375 0 
L -2.34375 -0 
" style="stroke: #ffffff; stroke-width: 1.125"/>
    </defs>
    <g clip-path="url(#p14b3caa39a)">
     <use xlink:href="#md9a70a889a" x="111.168" y="200.100631" style="fill: #ffffff; stroke: #ffffff; stroke-width: 1.125"/>
    </g>
   </g>
   <g id="line2d_8">
    <path d="M 182.592 239.488362 
L 182.592 106.040379 
" clip-path="url(#p14b3caa39a)" style="fill: none; stroke: #3f3f3f; stroke-width: 1.875; stroke-linecap: round"/>
   </g>
   <g id="line2d_9">
    <path d="M 182.592 197.455186 
L 182.592 154.687166 
" clip-path="url(#p14b3caa39a)" style="fill: none; stroke: #3f3f3f; stroke-width: 5.625; stroke-linecap: round"/>
   </g>
   <g id="line2d_10">
    <path d="M 182.592 176.29163 
" clip-path="url(#p14b3caa39a)" style="fill: none; stroke: #3f3f3f; stroke-width: 1.5; stroke-linecap: round"/>
    <g clip-path="url(#p14b3caa39a)">
     <use xlink:href="#md9a70a889a" x="182.592" y="176.29163" style="fill: #ffffff; stroke: #ffffff; stroke-width: 1.125"/>
    </g>
   </g>
   <g id="line2d_11">
    <path d="M 289.728 254.185276 
L 289.728 94.870724 
" clip-path="url(#p14b3caa39a)" style="fill: none; stroke: #3f3f3f; stroke-width: 1.875; stroke-linecap: round"/>
   </g>
   <g id="line2d_12">
    <path d="M 289.728 204.362736 
L 289.728 153.95232 
" clip-path="url(#p14b3caa39a)" style="fill: none; stroke: #3f3f3f; stroke-width: 5.625; stroke-linecap: round"/>
   </g>
   <g id="line2d_13">
    <path d="M 289.728 183.640087 
" clip-path="url(#p14b3caa39a)" style="fill: none; stroke: #3f3f3f; stroke-width: 1.5; stroke-linecap: round"/>
    <g clip-path="url(#p14b3caa39a)">
     <use xlink:href="#md9a70a889a" x="289.728" y="183.640087" style="fill: #ffffff; stroke: #ffffff; stroke-width: 1.125"/>
    </g>
   </g>
   <g id="line2d_14">
    <path d="M 361.152 238.900485 
L 361.152 135.434208 
" clip-path="url(#p14b3caa39a)" style="fill: none; stroke: #3f3f3f; stroke-width: 1.875; stroke-linecap: round"/>
   </g>
   <g id="line2d_15">
    <path d="M 361.152 202.305168 
L 361.152 164.828036 
" clip-path="url(#p14b3caa39a)" style="fill: none; stroke: #3f3f3f; stroke-width: 5.625; stroke-linecap: round"/>
   </g>
   <g id="line2d_16">
    <path d="M 361.152 179.818889 
" clip-path="url(#p14b3caa39a)" style="fill: none; stroke: #3f3f3f; stroke-width: 1.5; stroke-linecap: round"/>
    <g clip-path="url(#p14b3caa39a)">
     <use xlink:href="#md9a70a889a" x="361.152" y="179.818889" style="fill: #ffffff; stroke: #ffffff; stroke-width: 1.125"/>
    </g>
   </g>
   <g id="patch_5">
    <path d="M 57.6 307.584 
L 57.6 41.472 
" style="fill: none; stroke: #cccccc; stroke-width: 0.8; stroke-linejoin: miter; stroke-linecap: square"/>
   </g>
   <g id="patch_6">
    <path d="M 414.72 307.584 
L 414.72 41.472 
" style="fill: none; stroke: #cccccc; stroke-width: 0.8; stroke-linejoin: miter; stroke-linecap: square"/>
   </g>
   <g id="patch_7">
    <path d="M 57.6 307.584 
L 414.72 307.584 
" style="fill: none; stroke: #cccccc; stroke-width: 0.8; stroke-linejoin: miter; stroke-linecap: square"/>
   </g>
   <g id="patch_8">
    <path d="M 57.6 41.472 
L 414.72 41.472 
" style="fill: none; stroke: #cccccc; stroke-width: 0.8; stroke-linejoin: miter; stroke-linecap: square"/>
   </g>
   <g id="legend_1">
    <g id="patch_9">
     <path d="M 64.6 91.907938 
L 138.282813 91.907938 
Q 140.282813 91.907938 140.282813 89.907938 
L 140.282813 48.472 
Q 140.282813 46.472 138.282813 46.472 
L 64.6 46.472 
Q 62.6 46.472 62.6 48.472 
L 62.6 89.907938 
Q 62.6 91.907938 64.6 91.907938 
z
" style="fill: #ffffff; opacity: 0.8; stroke: #cccccc; stroke-linejoin: miter"/>
    </g>
    <g id="text_9">
     <!-- time -->
     <g style="fill: #262626" transform="translate(91.996094 57.629813) scale(0.1 -0.1)">
      <defs>
       <path id="ArialMT-74" d="M 1650 503 
L 1731 6 
Q 1494 -44 1306 -44 
Q 1000 -44 831 53 
Q 663 150 594 308 
Q 525 466 525 972 
L 525 2881 
L 113 2881 
L 113 3319 
L 525 3319 
L 525 4141 
L 1084 4478 
L 1084 3319 
L 1650 3319 
L 1650 2881 
L 1084 2881 
L 1084 941 
Q 1084 700 1114 631 
Q 1144 563 1211 522 
Q 1278 481 1403 481 
Q 1497 481 1650 503 
z
" transform="scale(0.015625)"/>
       <path id="ArialMT-69" d="M 425 3934 
L 425 4581 
L 988 4581 
L 988 3934 
L 425 3934 
z
M 425 0 
L 425 3319 
L 988 3319 
L 988 0 
L 425 0 
z
" transform="scale(0.015625)"/>
      </defs>
      <use xlink:href="#ArialMT-74"/>
      <use xlink:href="#ArialMT-69" x="27.783203"/>
      <use xlink:href="#ArialMT-6d" x="50"/>
      <use xlink:href="#ArialMT-65" x="133.300781"/>
     </g>
    </g>
    <g id="patch_10">
     <path d="M 66.6 71.775125 
L 86.6 71.775125 
L 86.6 64.775125 
L 66.6 64.775125 
z
" style="fill: #3274a1; stroke: #3f3f3f; stroke-width: 1.25; stroke-linejoin: miter"/>
    </g>
    <g id="text_10">
     <!-- initial test -->
     <g style="fill: #262626" transform="translate(94.6 71.775125) scale(0.1 -0.1)">
      <defs>
       <path id="ArialMT-6e" d="M 422 0 
L 422 3319 
L 928 3319 
L 928 2847 
Q 1294 3394 1984 3394 
Q 2284 3394 2536 3286 
Q 2788 3178 2913 3003 
Q 3038 2828 3088 2588 
Q 3119 2431 3119 2041 
L 3119 0 
L 2556 0 
L 2556 2019 
Q 2556 2363 2490 2533 
Q 2425 2703 2258 2804 
Q 2091 2906 1866 2906 
Q 1506 2906 1245 2678 
Q 984 2450 984 1813 
L 984 0 
L 422 0 
z
" transform="scale(0.015625)"/>
       <path id="ArialMT-61" d="M 2588 409 
Q 2275 144 1986 34 
Q 1697 -75 1366 -75 
Q 819 -75 525 192 
Q 231 459 231 875 
Q 231 1119 342 1320 
Q 453 1522 633 1644 
Q 813 1766 1038 1828 
Q 1203 1872 1538 1913 
Q 2219 1994 2541 2106 
Q 2544 2222 2544 2253 
Q 2544 2597 2384 2738 
Q 2169 2928 1744 2928 
Q 1347 2928 1158 2789 
Q 969 2650 878 2297 
L 328 2372 
Q 403 2725 575 2942 
Q 747 3159 1072 3276 
Q 1397 3394 1825 3394 
Q 2250 3394 2515 3294 
Q 2781 3194 2906 3042 
Q 3031 2891 3081 2659 
Q 3109 2516 3109 2141 
L 3109 1391 
Q 3109 606 3145 398 
Q 3181 191 3288 0 
L 2700 0 
Q 2613 175 2588 409 
z
M 2541 1666 
Q 2234 1541 1622 1453 
Q 1275 1403 1131 1340 
Q 988 1278 909 1158 
Q 831 1038 831 891 
Q 831 666 1001 516 
Q 1172 366 1500 366 
Q 1825 366 2078 508 
Q 2331 650 2450 897 
Q 2541 1088 2541 1459 
L 2541 1666 
z
" transform="scale(0.015625)"/>
       <path id="ArialMT-6c" d="M 409 0 
L 409 4581 
L 972 4581 
L 972 0 
L 409 0 
z
" transform="scale(0.015625)"/>
      </defs>
      <use xlink:href="#ArialMT-69"/>
      <use xlink:href="#ArialMT-6e" x="22.216797"/>
      <use xlink:href="#ArialMT-69" x="77.832031"/>
      <use xlink:href="#ArialMT-74" x="100.048828"/>
      <use xlink:href="#ArialMT-69" x="127.832031"/>
      <use xlink:href="#ArialMT-61" x="150.048828"/>
      <use xlink:href="#ArialMT-6c" x="205.664062"/>
      <use xlink:href="#ArialMT-20" x="227.880859"/>
      <use xlink:href="#ArialMT-74" x="255.664062"/>
      <use xlink:href="#ArialMT-65" x="283.447266"/>
      <use xlink:href="#ArialMT-73" x="339.0625"/>
      <use xlink:href="#ArialMT-74" x="389.0625"/>
     </g>
    </g>
    <g id="patch_11">
     <path d="M 66.6 85.920437 
L 86.6 85.920437 
L 86.6 78.920437 
L 66.6 78.920437 
z
" style="fill: #e1812c; stroke: #3f3f3f; stroke-width: 1.25; stroke-linejoin: miter"/>
    </g>
    <g id="text_11">
     <!-- final test -->
     <g style="fill: #262626" transform="translate(94.6 85.920437) scale(0.1 -0.1)">
      <use xlink:href="#ArialMT-66"/>
      <use xlink:href="#ArialMT-69" x="27.783203"/>
      <use xlink:href="#ArialMT-6e" x="50"/>
      <use xlink:href="#ArialMT-61" x="105.615234"/>
      <use xlink:href="#ArialMT-6c" x="161.230469"/>
      <use xlink:href="#ArialMT-20" x="183.447266"/>
      <use xlink:href="#ArialMT-74" x="211.230469"/>
      <use xlink:href="#ArialMT-65" x="239.013672"/>
      <use xlink:href="#ArialMT-73" x="294.628906"/>
      <use xlink:href="#ArialMT-74" x="344.628906"/>
     </g>
    </g>
   </g>
  </g>
 </g>
 <defs>
  <clipPath id="p14b3caa39a">
   <rect x="57.6" y="41.472" width="357.12" height="266.112"/>
  </clipPath>
 </defs>
</svg>
