<?xml version="1.0" encoding="utf-8" standalone="no"?>
<!DOCTYPE svg PUBLIC "-//W3C//DTD SVG 1.1//EN"
  "http://www.w3.org/Graphics/SVG/1.1/DTD/svg11.dtd">
<svg xmlns:xlink="http://www.w3.org/1999/xlink" width="398.88pt" height="360pt" viewBox="0 0 398.88 360" xmlns="http://www.w3.org/2000/svg" version="1.1">
 <metadata>
  <rdf:RDF xmlns:dc="http://purl.org/dc/elements/1.1/" xmlns:cc="http://creativecommons.org/ns#" xmlns:rdf="http://www.w3.org/1999/02/22-rdf-syntax-ns#">
   <cc:Work>
    <dc:type rdf:resource="http://purl.org/dc/dcmitype/StillImage"/>
    <dc:date>2024-09-11T03:30:54.969599</dc:date>
    <dc:format>image/svg+xml</dc:format>
    <dc:creator>
     <cc:Agent>
      <dc:title>Matplotlib v3.8.3, https://matplotlib.org/</dc:title>
     </cc:Agent>
    </dc:creator>
   </cc:Work>
  </rdf:RDF>
 </metadata>
 <defs>
  <style type="text/css">*{stroke-linejoin: round; stroke-linecap: butt}</style>
 </defs>
 <g id="figure_1">
  <g id="patch_1">
   <path d="M 0 360 
L 398.88 360 
L 398.88 0 
L 0 0 
z
" style="fill: #ffffff"/>
  </g>
  <g id="axes_1">
   <g id="patch_2">
    <path d="M 53.983145 318.04 
L 356.0112 318.04 
L 356.0112 10.8 
L 53.983145 10.8 
z
" style="fill: #ffffff"/>
   </g>
   <g id="matplotlib.axis_1">
    <g id="xtick_1">
     <g id="text_1">
      <!-- f -->
      <g style="fill: #262626" transform="translate(128.101096 332.197812) scale(0.1 -0.1)">
       <defs>
        <path id="ArialMT-66" d="M 556 0 
L 556 2881 
L 59 2881 
L 59 3319 
L 556 3319 
L 556 3672 
Q 556 4006 616 4169 
Q 697 4388 901 4523 
Q 1106 4659 1475 4659 
Q 1713 4659 2000 4603 
L 1916 4113 
Q 1741 4144 1584 4144 
Q 1328 4144 1222 4034 
Q 1116 3925 1116 3625 
L 1116 3319 
L 1763 3319 
L 1763 2881 
L 1116 2881 
L 1116 0 
L 556 0 
z
" transform="scale(0.015625)"/>
       </defs>
       <use xlink:href="#ArialMT-66"/>
      </g>
     </g>
    </g>
    <g id="xtick_2">
     <g id="text_2">
      <!-- m -->
      <g style="fill: #262626" transform="translate(276.339342 332.197812) scale(0.1 -0.1)">
       <defs>
        <path id="ArialMT-6d" d="M 422 0 
L 422 3319 
L 925 3319 
L 925 2853 
Q 1081 3097 1340 3245 
Q 1600 3394 1931 3394 
Q 2300 3394 2536 3241 
Q 2772 3088 2869 2813 
Q 3263 3394 3894 3394 
Q 4388 3394 4653 3120 
Q 4919 2847 4919 2278 
L 4919 0 
L 4359 0 
L 4359 2091 
Q 4359 2428 4304 2576 
Q 4250 2725 4106 2815 
Q 3963 2906 3769 2906 
Q 3419 2906 3187 2673 
Q 2956 2441 2956 1928 
L 2956 0 
L 2394 0 
L 2394 2156 
Q 2394 2531 2256 2718 
Q 2119 2906 1806 2906 
Q 1569 2906 1367 2781 
Q 1166 2656 1075 2415 
Q 984 2175 984 1722 
L 984 0 
L 422 0 
z
" transform="scale(0.015625)"/>
       </defs>
       <use xlink:href="#ArialMT-6d"/>
      </g>
     </g>
    </g>
    <g id="text_3">
     <!-- sex -->
     <g style="fill: #262626" transform="translate(197.216704 345.343125) scale(0.1 -0.1)">
      <defs>
       <path id="ArialMT-73" d="M 197 991 
L 753 1078 
Q 800 744 1014 566 
Q 1228 388 1613 388 
Q 2000 388 2187 545 
Q 2375 703 2375 916 
Q 2375 1106 2209 1216 
Q 2094 1291 1634 1406 
Q 1016 1563 777 1677 
Q 538 1791 414 1992 
Q 291 2194 291 2438 
Q 291 2659 392 2848 
Q 494 3038 669 3163 
Q 800 3259 1026 3326 
Q 1253 3394 1513 3394 
Q 1903 3394 2198 3281 
Q 2494 3169 2634 2976 
Q 2775 2784 2828 2463 
L 2278 2388 
Q 2241 2644 2061 2787 
Q 1881 2931 1553 2931 
Q 1166 2931 1000 2803 
Q 834 2675 834 2503 
Q 834 2394 903 2306 
Q 972 2216 1119 2156 
Q 1203 2125 1616 2013 
Q 2213 1853 2448 1751 
Q 2684 1650 2818 1456 
Q 2953 1263 2953 975 
Q 2953 694 2789 445 
Q 2625 197 2315 61 
Q 2006 -75 1616 -75 
Q 969 -75 630 194 
Q 291 463 197 991 
z
" transform="scale(0.015625)"/>
       <path id="ArialMT-65" d="M 2694 1069 
L 3275 997 
Q 3138 488 2766 206 
Q 2394 -75 1816 -75 
Q 1088 -75 661 373 
Q 234 822 234 1631 
Q 234 2469 665 2931 
Q 1097 3394 1784 3394 
Q 2450 3394 2872 2941 
Q 3294 2488 3294 1666 
Q 3294 1616 3291 1516 
L 816 1516 
Q 847 969 1125 678 
Q 1403 388 1819 388 
Q 2128 388 2347 550 
Q 2566 713 2694 1069 
z
M 847 1978 
L 2700 1978 
Q 2663 2397 2488 2606 
Q 2219 2931 1791 2931 
Q 1403 2931 1139 2672 
Q 875 2413 847 1978 
z
" transform="scale(0.015625)"/>
       <path id="ArialMT-78" d="M 47 0 
L 1259 1725 
L 138 3319 
L 841 3319 
L 1350 2541 
Q 1494 2319 1581 2169 
Q 1719 2375 1834 2534 
L 2394 3319 
L 3066 3319 
L 1919 1756 
L 3153 0 
L 2463 0 
L 1781 1031 
L 1600 1309 
L 728 0 
L 47 0 
z
" transform="scale(0.015625)"/>
      </defs>
      <use xlink:href="#ArialMT-73"/>
      <use xlink:href="#ArialMT-65" x="50"/>
      <use xlink:href="#ArialMT-78" x="105.615234"/>
     </g>
    </g>
   </g>
   <g id="matplotlib.axis_2">
    <g id="ytick_1">
     <g id="line2d_1">
      <path d="M 53.983145 304.074545 
L 356.0112 304.074545 
" clip-path="url(#pa9a100d6ec)" style="fill: none; stroke: #cccccc; stroke-width: 0.8; stroke-linecap: round"/>
     </g>
     <g id="text_4">
      <!-- 0 -->
      <g style="fill: #262626" transform="translate(41.422207 307.653452) scale(0.1 -0.1)">
       <defs>
        <path id="ArialMT-30" d="M 266 2259 
Q 266 3072 433 3567 
Q 600 4063 929 4331 
Q 1259 4600 1759 4600 
Q 2128 4600 2406 4451 
Q 2684 4303 2865 4023 
Q 3047 3744 3150 3342 
Q 3253 2941 3253 2259 
Q 3253 1453 3087 958 
Q 2922 463 2592 192 
Q 2263 -78 1759 -78 
Q 1097 -78 719 397 
Q 266 969 266 2259 
z
M 844 2259 
Q 844 1131 1108 757 
Q 1372 384 1759 384 
Q 2147 384 2411 759 
Q 2675 1134 2675 2259 
Q 2675 3391 2411 3762 
Q 2147 4134 1753 4134 
Q 1366 4134 1134 3806 
Q 844 3388 844 2259 
z
" transform="scale(0.015625)"/>
       </defs>
       <use xlink:href="#ArialMT-30"/>
      </g>
     </g>
    </g>
    <g id="ytick_2">
     <g id="line2d_2">
      <path d="M 53.983145 262.177271 
L 356.0112 262.177271 
" clip-path="url(#pa9a100d6ec)" style="fill: none; stroke: #cccccc; stroke-width: 0.8; stroke-linecap: round"/>
     </g>
     <g id="text_5">
      <!-- 25 -->
      <g style="fill: #262626" transform="translate(35.86127 265.756178) scale(0.1 -0.1)">
       <defs>
        <path id="ArialMT-32" d="M 3222 541 
L 3222 0 
L 194 0 
Q 188 203 259 391 
Q 375 700 629 1000 
Q 884 1300 1366 1694 
Q 2113 2306 2375 2664 
Q 2638 3022 2638 3341 
Q 2638 3675 2398 3904 
Q 2159 4134 1775 4134 
Q 1369 4134 1125 3890 
Q 881 3647 878 3216 
L 300 3275 
Q 359 3922 746 4261 
Q 1134 4600 1788 4600 
Q 2447 4600 2831 4234 
Q 3216 3869 3216 3328 
Q 3216 3053 3103 2787 
Q 2991 2522 2730 2228 
Q 2469 1934 1863 1422 
Q 1356 997 1212 845 
Q 1069 694 975 541 
L 3222 541 
z
" transform="scale(0.015625)"/>
        <path id="ArialMT-35" d="M 266 1200 
L 856 1250 
Q 922 819 1161 601 
Q 1400 384 1738 384 
Q 2144 384 2425 690 
Q 2706 997 2706 1503 
Q 2706 1984 2436 2262 
Q 2166 2541 1728 2541 
Q 1456 2541 1237 2417 
Q 1019 2294 894 2097 
L 366 2166 
L 809 4519 
L 3088 4519 
L 3088 3981 
L 1259 3981 
L 1013 2750 
Q 1425 3038 1878 3038 
Q 2478 3038 2890 2622 
Q 3303 2206 3303 1553 
Q 3303 931 2941 478 
Q 2500 -78 1738 -78 
Q 1113 -78 717 272 
Q 322 622 266 1200 
z
" transform="scale(0.015625)"/>
       </defs>
       <use xlink:href="#ArialMT-32"/>
       <use xlink:href="#ArialMT-35" x="55.615234"/>
      </g>
     </g>
    </g>
    <g id="ytick_3">
     <g id="line2d_3">
      <path d="M 53.983145 220.279997 
L 356.0112 220.279997 
" clip-path="url(#pa9a100d6ec)" style="fill: none; stroke: #cccccc; stroke-width: 0.8; stroke-linecap: round"/>
     </g>
     <g id="text_6">
      <!-- 50 -->
      <g style="fill: #262626" transform="translate(35.86127 223.858903) scale(0.1 -0.1)">
       <use xlink:href="#ArialMT-35"/>
       <use xlink:href="#ArialMT-30" x="55.615234"/>
      </g>
     </g>
    </g>
    <g id="ytick_4">
     <g id="line2d_4">
      <path d="M 53.983145 178.382723 
L 356.0112 178.382723 
" clip-path="url(#pa9a100d6ec)" style="fill: none; stroke: #cccccc; stroke-width: 0.8; stroke-linecap: round"/>
     </g>
     <g id="text_7">
      <!-- 75 -->
      <g style="fill: #262626" transform="translate(35.86127 181.961629) scale(0.1 -0.1)">
       <defs>
        <path id="ArialMT-37" d="M 303 3981 
L 303 4522 
L 3269 4522 
L 3269 4084 
Q 2831 3619 2401 2847 
Q 1972 2075 1738 1259 
Q 1569 684 1522 0 
L 944 0 
Q 953 541 1156 1306 
Q 1359 2072 1739 2783 
Q 2119 3494 2547 3981 
L 303 3981 
z
" transform="scale(0.015625)"/>
       </defs>
       <use xlink:href="#ArialMT-37"/>
       <use xlink:href="#ArialMT-35" x="55.615234"/>
      </g>
     </g>
    </g>
    <g id="ytick_5">
     <g id="line2d_5">
      <path d="M 53.983145 136.485449 
L 356.0112 136.485449 
" clip-path="url(#pa9a100d6ec)" style="fill: none; stroke: #cccccc; stroke-width: 0.8; stroke-linecap: round"/>
     </g>
     <g id="text_8">
      <!-- 100 -->
      <g style="fill: #262626" transform="translate(30.300332 140.064355) scale(0.1 -0.1)">
       <defs>
        <path id="ArialMT-31" d="M 2384 0 
L 1822 0 
L 1822 3584 
Q 1619 3391 1289 3197 
Q 959 3003 697 2906 
L 697 3450 
Q 1169 3672 1522 3987 
Q 1875 4303 2022 4600 
L 2384 4600 
L 2384 0 
z
" transform="scale(0.015625)"/>
       </defs>
       <use xlink:href="#ArialMT-31"/>
       <use xlink:href="#ArialMT-30" x="55.615234"/>
       <use xlink:href="#ArialMT-30" x="111.230469"/>
      </g>
     </g>
    </g>
    <g id="ytick_6">
     <g id="line2d_6">
      <path d="M 53.983145 94.588174 
L 356.0112 94.588174 
" clip-path="url(#pa9a100d6ec)" style="fill: none; stroke: #cccccc; stroke-width: 0.8; stroke-linecap: round"/>
     </g>
     <g id="text_9">
      <!-- 125 -->
      <g style="fill: #262626" transform="translate(30.300332 98.167081) scale(0.1 -0.1)">
       <use xlink:href="#ArialMT-31"/>
       <use xlink:href="#ArialMT-32" x="55.615234"/>
       <use xlink:href="#ArialMT-35" x="111.230469"/>
      </g>
     </g>
    </g>
    <g id="ytick_7">
     <g id="line2d_7">
      <path d="M 53.983145 52.6909 
L 356.0112 52.6909 
" clip-path="url(#pa9a100d6ec)" style="fill: none; stroke: #cccccc; stroke-width: 0.8; stroke-linecap: round"/>
     </g>
     <g id="text_10">
      <!-- 150 -->
      <g style="fill: #262626" transform="translate(30.300332 56.269806) scale(0.1 -0.1)">
       <use xlink:href="#ArialMT-31"/>
       <use xlink:href="#ArialMT-35" x="55.615234"/>
       <use xlink:href="#ArialMT-30" x="111.230469"/>
      </g>
     </g>
    </g>
    <g id="text_11">
     <!-- Fat energy (kcl/h) -->
     <g style="fill: #262626" transform="translate(24.195645 203.318438) rotate(-90) scale(0.1 -0.1)">
      <defs>
       <path id="ArialMT-46" d="M 525 0 
L 525 4581 
L 3616 4581 
L 3616 4041 
L 1131 4041 
L 1131 2622 
L 3281 2622 
L 3281 2081 
L 1131 2081 
L 1131 0 
L 525 0 
z
" transform="scale(0.015625)"/>
       <path id="ArialMT-61" d="M 2588 409 
Q 2275 144 1986 34 
Q 1697 -75 1366 -75 
Q 819 -75 525 192 
Q 231 459 231 875 
Q 231 1119 342 1320 
Q 453 1522 633 1644 
Q 813 1766 1038 1828 
Q 1203 1872 1538 1913 
Q 2219 1994 2541 2106 
Q 2544 2222 2544 2253 
Q 2544 2597 2384 2738 
Q 2169 2928 1744 2928 
Q 1347 2928 1158 2789 
Q 969 2650 878 2297 
L 328 2372 
Q 403 2725 575 2942 
Q 747 3159 1072 3276 
Q 1397 3394 1825 3394 
Q 2250 3394 2515 3294 
Q 2781 3194 2906 3042 
Q 3031 2891 3081 2659 
Q 3109 2516 3109 2141 
L 3109 1391 
Q 3109 606 3145 398 
Q 3181 191 3288 0 
L 2700 0 
Q 2613 175 2588 409 
z
M 2541 1666 
Q 2234 1541 1622 1453 
Q 1275 1403 1131 1340 
Q 988 1278 909 1158 
Q 831 1038 831 891 
Q 831 666 1001 516 
Q 1172 366 1500 366 
Q 1825 366 2078 508 
Q 2331 650 2450 897 
Q 2541 1088 2541 1459 
L 2541 1666 
z
" transform="scale(0.015625)"/>
       <path id="ArialMT-74" d="M 1650 503 
L 1731 6 
Q 1494 -44 1306 -44 
Q 1000 -44 831 53 
Q 663 150 594 308 
Q 525 466 525 972 
L 525 2881 
L 113 2881 
L 113 3319 
L 525 3319 
L 525 4141 
L 1084 4478 
L 1084 3319 
L 1650 3319 
L 1650 2881 
L 1084 2881 
L 1084 941 
Q 1084 700 1114 631 
Q 1144 563 1211 522 
Q 1278 481 1403 481 
Q 1497 481 1650 503 
z
" transform="scale(0.015625)"/>
       <path id="ArialMT-20" transform="scale(0.015625)"/>
       <path id="ArialMT-6e" d="M 422 0 
L 422 3319 
L 928 3319 
L 928 2847 
Q 1294 3394 1984 3394 
Q 2284 3394 2536 3286 
Q 2788 3178 2913 3003 
Q 3038 2828 3088 2588 
Q 3119 2431 3119 2041 
L 3119 0 
L 2556 0 
L 2556 2019 
Q 2556 2363 2490 2533 
Q 2425 2703 2258 2804 
Q 2091 2906 1866 2906 
Q 1506 2906 1245 2678 
Q 984 2450 984 1813 
L 984 0 
L 422 0 
z
" transform="scale(0.015625)"/>
       <path id="ArialMT-72" d="M 416 0 
L 416 3319 
L 922 3319 
L 922 2816 
Q 1116 3169 1280 3281 
Q 1444 3394 1641 3394 
Q 1925 3394 2219 3213 
L 2025 2691 
Q 1819 2813 1613 2813 
Q 1428 2813 1281 2702 
Q 1134 2591 1072 2394 
Q 978 2094 978 1738 
L 978 0 
L 416 0 
z
" transform="scale(0.015625)"/>
       <path id="ArialMT-67" d="M 319 -275 
L 866 -356 
Q 900 -609 1056 -725 
Q 1266 -881 1628 -881 
Q 2019 -881 2231 -725 
Q 2444 -569 2519 -288 
Q 2563 -116 2559 434 
Q 2191 0 1641 0 
Q 956 0 581 494 
Q 206 988 206 1678 
Q 206 2153 378 2554 
Q 550 2956 876 3175 
Q 1203 3394 1644 3394 
Q 2231 3394 2613 2919 
L 2613 3319 
L 3131 3319 
L 3131 450 
Q 3131 -325 2973 -648 
Q 2816 -972 2473 -1159 
Q 2131 -1347 1631 -1347 
Q 1038 -1347 672 -1080 
Q 306 -813 319 -275 
z
M 784 1719 
Q 784 1066 1043 766 
Q 1303 466 1694 466 
Q 2081 466 2343 764 
Q 2606 1063 2606 1700 
Q 2606 2309 2336 2618 
Q 2066 2928 1684 2928 
Q 1309 2928 1046 2623 
Q 784 2319 784 1719 
z
" transform="scale(0.015625)"/>
       <path id="ArialMT-79" d="M 397 -1278 
L 334 -750 
Q 519 -800 656 -800 
Q 844 -800 956 -737 
Q 1069 -675 1141 -563 
Q 1194 -478 1313 -144 
Q 1328 -97 1363 -6 
L 103 3319 
L 709 3319 
L 1400 1397 
Q 1534 1031 1641 628 
Q 1738 1016 1872 1384 
L 2581 3319 
L 3144 3319 
L 1881 -56 
Q 1678 -603 1566 -809 
Q 1416 -1088 1222 -1217 
Q 1028 -1347 759 -1347 
Q 597 -1347 397 -1278 
z
" transform="scale(0.015625)"/>
       <path id="ArialMT-28" d="M 1497 -1347 
Q 1031 -759 709 28 
Q 388 816 388 1659 
Q 388 2403 628 3084 
Q 909 3875 1497 4659 
L 1900 4659 
Q 1522 4009 1400 3731 
Q 1209 3300 1100 2831 
Q 966 2247 966 1656 
Q 966 153 1900 -1347 
L 1497 -1347 
z
" transform="scale(0.015625)"/>
       <path id="ArialMT-6b" d="M 425 0 
L 425 4581 
L 988 4581 
L 988 1969 
L 2319 3319 
L 3047 3319 
L 1778 2088 
L 3175 0 
L 2481 0 
L 1384 1697 
L 988 1316 
L 988 0 
L 425 0 
z
" transform="scale(0.015625)"/>
       <path id="ArialMT-63" d="M 2588 1216 
L 3141 1144 
Q 3050 572 2676 248 
Q 2303 -75 1759 -75 
Q 1078 -75 664 370 
Q 250 816 250 1647 
Q 250 2184 428 2587 
Q 606 2991 970 3192 
Q 1334 3394 1763 3394 
Q 2303 3394 2647 3120 
Q 2991 2847 3088 2344 
L 2541 2259 
Q 2463 2594 2264 2762 
Q 2066 2931 1784 2931 
Q 1359 2931 1093 2626 
Q 828 2322 828 1663 
Q 828 994 1084 691 
Q 1341 388 1753 388 
Q 2084 388 2306 591 
Q 2528 794 2588 1216 
z
" transform="scale(0.015625)"/>
       <path id="ArialMT-6c" d="M 409 0 
L 409 4581 
L 972 4581 
L 972 0 
L 409 0 
z
" transform="scale(0.015625)"/>
       <path id="ArialMT-2f" d="M 0 -78 
L 1328 4659 
L 1778 4659 
L 453 -78 
L 0 -78 
z
" transform="scale(0.015625)"/>
       <path id="ArialMT-68" d="M 422 0 
L 422 4581 
L 984 4581 
L 984 2938 
Q 1378 3394 1978 3394 
Q 2347 3394 2619 3248 
Q 2891 3103 3008 2847 
Q 3125 2591 3125 2103 
L 3125 0 
L 2563 0 
L 2563 2103 
Q 2563 2525 2380 2717 
Q 2197 2909 1863 2909 
Q 1613 2909 1392 2779 
Q 1172 2650 1078 2428 
Q 984 2206 984 1816 
L 984 0 
L 422 0 
z
" transform="scale(0.015625)"/>
       <path id="ArialMT-29" d="M 791 -1347 
L 388 -1347 
Q 1322 153 1322 1656 
Q 1322 2244 1188 2822 
Q 1081 3291 891 3722 
Q 769 4003 388 4659 
L 791 4659 
Q 1378 3875 1659 3084 
Q 1900 2403 1900 1659 
Q 1900 816 1576 28 
Q 1253 -759 791 -1347 
z
" transform="scale(0.015625)"/>
      </defs>
      <use xlink:href="#ArialMT-46"/>
      <use xlink:href="#ArialMT-61" x="61.083984"/>
      <use xlink:href="#ArialMT-74" x="116.699219"/>
      <use xlink:href="#ArialMT-20" x="144.482422"/>
      <use xlink:href="#ArialMT-65" x="172.265625"/>
      <use xlink:href="#ArialMT-6e" x="227.880859"/>
      <use xlink:href="#ArialMT-65" x="283.496094"/>
      <use xlink:href="#ArialMT-72" x="339.111328"/>
      <use xlink:href="#ArialMT-67" x="372.412109"/>
      <use xlink:href="#ArialMT-79" x="428.027344"/>
      <use xlink:href="#ArialMT-20" x="478.027344"/>
      <use xlink:href="#ArialMT-28" x="505.810547"/>
      <use xlink:href="#ArialMT-6b" x="539.111328"/>
      <use xlink:href="#ArialMT-63" x="589.111328"/>
      <use xlink:href="#ArialMT-6c" x="639.111328"/>
      <use xlink:href="#ArialMT-2f" x="661.328125"/>
      <use xlink:href="#ArialMT-68" x="689.111328"/>
      <use xlink:href="#ArialMT-29" x="744.726562"/>
     </g>
    </g>
   </g>
   <g id="patch_3">
    <path d="M 53.983145 318.04 
L 53.983145 10.8 
" style="fill: none; stroke: #cccccc; stroke-width: 0.8; stroke-linejoin: miter; stroke-linecap: square"/>
   </g>
   <g id="patch_4">
    <path d="M 53.983145 318.04 
L 356.0112 318.04 
" style="fill: none; stroke: #cccccc; stroke-width: 0.8; stroke-linejoin: miter; stroke-linecap: square"/>
   </g>
   <g id="PathCollection_1">
    <defs>
     <path id="C0_0_74ab9971ae" d="M 0 2.5 
C 0.663008 2.5 1.29895 2.236584 1.767767 1.767767 
C 2.236584 1.29895 2.5 0.663008 2.5 -0 
C 2.5 -0.663008 2.236584 -1.29895 1.767767 -1.767767 
C 1.29895 -2.236584 0.663008 -2.5 0 -2.5 
C -0.663008 -2.5 -1.29895 -2.236584 -1.767767 -1.767767 
C -2.236584 -1.29895 -2.5 -0.663008 -2.5 0 
C -2.5 0.663008 -2.236584 1.29895 -1.767767 1.767767 
C -1.29895 2.236584 -0.663008 2.5 0 2.5 
z
"/>
    </defs>
    <g clip-path="url(#pa9a100d6ec)">
     <use xlink:href="#C0_0_74ab9971ae" x="95.055608" y="304.074545" style="fill: #1f77b4"/>
    </g>
    <g clip-path="url(#pa9a100d6ec)">
     <use xlink:href="#C0_0_74ab9971ae" x="96.401615" y="295.001461" style="fill: #1f77b4"/>
    </g>
    <g clip-path="url(#pa9a100d6ec)">
     <use xlink:href="#C0_0_74ab9971ae" x="93.090792" y="274.348287" style="fill: #1f77b4"/>
    </g>
    <g clip-path="url(#pa9a100d6ec)">
     <use xlink:href="#C0_0_74ab9971ae" x="93.0065" y="304.074545" style="fill: #1f77b4"/>
    </g>
    <g clip-path="url(#pa9a100d6ec)">
     <use xlink:href="#C0_0_74ab9971ae" x="93.13346" y="304.074545" style="fill: #1f77b4"/>
    </g>
    <g clip-path="url(#pa9a100d6ec)">
     <use xlink:href="#C0_0_74ab9971ae" x="95.784134" y="304.074545" style="fill: #1f77b4"/>
    </g>
    <g clip-path="url(#pa9a100d6ec)">
     <use xlink:href="#C0_0_74ab9971ae" x="106.042017" y="279.969439" style="fill: #1f77b4"/>
    </g>
    <g clip-path="url(#pa9a100d6ec)">
     <use xlink:href="#C0_0_74ab9971ae" x="104.918217" y="304.074545" style="fill: #1f77b4"/>
    </g>
    <g clip-path="url(#pa9a100d6ec)">
     <use xlink:href="#C0_0_74ab9971ae" x="103.9406" y="304.074545" style="fill: #1f77b4"/>
    </g>
    <g clip-path="url(#pa9a100d6ec)">
     <use xlink:href="#C0_0_74ab9971ae" x="95.777572" y="130.200512" style="fill: #1f77b4"/>
    </g>
    <g clip-path="url(#pa9a100d6ec)">
     <use xlink:href="#C0_0_74ab9971ae" x="101.893775" y="304.074545" style="fill: #1f77b4"/>
    </g>
    <g clip-path="url(#pa9a100d6ec)">
     <use xlink:href="#C0_0_74ab9971ae" x="100.899203" y="304.074545" style="fill: #1f77b4"/>
    </g>
    <g clip-path="url(#pa9a100d6ec)">
     <use xlink:href="#C0_0_74ab9971ae" x="100.501734" y="304.074545" style="fill: #1f77b4"/>
    </g>
    <g clip-path="url(#pa9a100d6ec)">
     <use xlink:href="#C0_0_74ab9971ae" x="104.185667" y="285.813644" style="fill: #1f77b4"/>
    </g>
    <g clip-path="url(#pa9a100d6ec)">
     <use xlink:href="#C0_0_74ab9971ae" x="92.441722" y="304.074545" style="fill: #1f77b4"/>
    </g>
   </g>
   <g id="PathCollection_2">
    <defs>
     <path id="C1_0_91fb478278" d="M 0 2.5 
C 0.663008 2.5 1.29895 2.236584 1.767767 1.767767 
C 2.236584 1.29895 2.5 0.663008 2.5 -0 
C 2.5 -0.663008 2.236584 -1.29895 1.767767 -1.767767 
C 1.29895 -2.236584 0.663008 -2.5 0 -2.5 
C -0.663008 -2.5 -1.29895 -2.236584 -1.767767 -1.767767 
C -2.236584 -1.29895 -2.5 -0.663008 -2.5 0 
C -2.5 0.663008 -2.236584 1.29895 -1.767767 1.767767 
C -1.29895 2.236584 -0.663008 2.5 0 2.5 
z
"/>
    </defs>
    <g clip-path="url(#pa9a100d6ec)">
     <use xlink:href="#C1_0_91fb478278" x="166.884117" y="304.074545" style="fill: #ff7f0e"/>
    </g>
    <g clip-path="url(#pa9a100d6ec)">
     <use xlink:href="#C1_0_91fb478278" x="153.052904" y="304.074545" style="fill: #ff7f0e"/>
    </g>
    <g clip-path="url(#pa9a100d6ec)">
     <use xlink:href="#C1_0_91fb478278" x="161.674074" y="304.074545" style="fill: #ff7f0e"/>
    </g>
    <g clip-path="url(#pa9a100d6ec)">
     <use xlink:href="#C1_0_91fb478278" x="155.000325" y="273.950605" style="fill: #ff7f0e"/>
    </g>
    <g clip-path="url(#pa9a100d6ec)">
     <use xlink:href="#C1_0_91fb478278" x="161.963949" y="254.896864" style="fill: #ff7f0e"/>
    </g>
    <g clip-path="url(#pa9a100d6ec)">
     <use xlink:href="#C1_0_91fb478278" x="164.291035" y="177.681798" style="fill: #ff7f0e"/>
    </g>
    <g clip-path="url(#pa9a100d6ec)">
     <use xlink:href="#C1_0_91fb478278" x="154.651071" y="304.074545" style="fill: #ff7f0e"/>
    </g>
    <g clip-path="url(#pa9a100d6ec)">
     <use xlink:href="#C1_0_91fb478278" x="165.468242" y="276.590001" style="fill: #ff7f0e"/>
    </g>
    <g clip-path="url(#pa9a100d6ec)">
     <use xlink:href="#C1_0_91fb478278" x="160.465313" y="304.074545" style="fill: #ff7f0e"/>
    </g>
    <g clip-path="url(#pa9a100d6ec)">
     <use xlink:href="#C1_0_91fb478278" x="156.295779" y="106.309048" style="fill: #ff7f0e"/>
    </g>
    <g clip-path="url(#pa9a100d6ec)">
     <use xlink:href="#C1_0_91fb478278" x="163.733864" y="116.245426" style="fill: #ff7f0e"/>
    </g>
    <g clip-path="url(#pa9a100d6ec)">
     <use xlink:href="#C1_0_91fb478278" x="154.136871" y="193.540014" style="fill: #ff7f0e"/>
    </g>
    <g clip-path="url(#pa9a100d6ec)">
     <use xlink:href="#C1_0_91fb478278" x="164.767839" y="122.508172" style="fill: #ff7f0e"/>
    </g>
    <g clip-path="url(#pa9a100d6ec)">
     <use xlink:href="#C1_0_91fb478278" x="165.172573" y="111.48057" style="fill: #ff7f0e"/>
    </g>
    <g clip-path="url(#pa9a100d6ec)">
     <use xlink:href="#C1_0_91fb478278" x="161.691689" y="304.074545" style="fill: #ff7f0e"/>
    </g>
   </g>
   <g id="PathCollection_3">
    <defs>
     <path id="C2_0_e00b386825" d="M 0 2.5 
C 0.663008 2.5 1.29895 2.236584 1.767767 1.767767 
C 2.236584 1.29895 2.5 0.663008 2.5 -0 
C 2.5 -0.663008 2.236584 -1.29895 1.767767 -1.767767 
C 1.29895 -2.236584 0.663008 -2.5 0 -2.5 
C -0.663008 -2.5 -1.29895 -2.236584 -1.767767 -1.767767 
C -2.236584 -1.29895 -2.5 -0.663008 -2.5 0 
C -2.5 0.663008 -2.236584 1.29895 -1.767767 1.767767 
C -1.29895 2.236584 -0.663008 2.5 0 2.5 
z
"/>
    </defs>
    <g clip-path="url(#pa9a100d6ec)">
     <use xlink:href="#C2_0_e00b386825" x="247.658988" y="190.280085" style="fill: #1f77b4"/>
    </g>
    <g clip-path="url(#pa9a100d6ec)">
     <use xlink:href="#C2_0_e00b386825" x="253.598497" y="304.074545" style="fill: #1f77b4"/>
    </g>
    <g clip-path="url(#pa9a100d6ec)">
     <use xlink:href="#C2_0_e00b386825" x="250.585668" y="184.024771" style="fill: #1f77b4"/>
    </g>
    <g clip-path="url(#pa9a100d6ec)">
     <use xlink:href="#C2_0_e00b386825" x="251.089329" y="257.850694" style="fill: #1f77b4"/>
    </g>
    <g clip-path="url(#pa9a100d6ec)">
     <use xlink:href="#C2_0_e00b386825" x="256.983112" y="304.074545" style="fill: #1f77b4"/>
    </g>
    <g clip-path="url(#pa9a100d6ec)">
     <use xlink:href="#C2_0_e00b386825" x="244.566517" y="233.189084" style="fill: #1f77b4"/>
    </g>
    <g clip-path="url(#pa9a100d6ec)">
     <use xlink:href="#C2_0_e00b386825" x="248.251535" y="224.512867" style="fill: #1f77b4"/>
    </g>
    <g clip-path="url(#pa9a100d6ec)">
     <use xlink:href="#C2_0_e00b386825" x="252.791825" y="134.255824" style="fill: #1f77b4"/>
    </g>
    <g clip-path="url(#pa9a100d6ec)">
     <use xlink:href="#C2_0_e00b386825" x="257.270728" y="299.513705" style="fill: #1f77b4"/>
    </g>
    <g clip-path="url(#pa9a100d6ec)">
     <use xlink:href="#C2_0_e00b386825" x="253.786215" y="281.747158" style="fill: #1f77b4"/>
    </g>
    <g clip-path="url(#pa9a100d6ec)">
     <use xlink:href="#C2_0_e00b386825" x="256.394703" y="304.074545" style="fill: #1f77b4"/>
    </g>
    <g clip-path="url(#pa9a100d6ec)">
     <use xlink:href="#C2_0_e00b386825" x="246.41207" y="90.222248" style="fill: #1f77b4"/>
    </g>
    <g clip-path="url(#pa9a100d6ec)">
     <use xlink:href="#C2_0_e00b386825" x="255.897502" y="304.074545" style="fill: #1f77b4"/>
    </g>
    <g clip-path="url(#pa9a100d6ec)">
     <use xlink:href="#C2_0_e00b386825" x="242.910531" y="304.074545" style="fill: #1f77b4"/>
    </g>
    <g clip-path="url(#pa9a100d6ec)">
     <use xlink:href="#C2_0_e00b386825" x="242.809238" y="304.074545" style="fill: #1f77b4"/>
    </g>
    <g clip-path="url(#pa9a100d6ec)">
     <use xlink:href="#C2_0_e00b386825" x="257.558029" y="304.074545" style="fill: #1f77b4"/>
    </g>
    <g clip-path="url(#pa9a100d6ec)">
     <use xlink:href="#C2_0_e00b386825" x="257.566362" y="304.074545" style="fill: #1f77b4"/>
    </g>
    <g clip-path="url(#pa9a100d6ec)">
     <use xlink:href="#C2_0_e00b386825" x="245.840634" y="239.554634" style="fill: #1f77b4"/>
    </g>
    <g clip-path="url(#pa9a100d6ec)">
     <use xlink:href="#C2_0_e00b386825" x="249.928529" y="278.615938" style="fill: #1f77b4"/>
    </g>
    <g clip-path="url(#pa9a100d6ec)">
     <use xlink:href="#C2_0_e00b386825" x="255.668255" y="249.867644" style="fill: #1f77b4"/>
    </g>
    <g clip-path="url(#pa9a100d6ec)">
     <use xlink:href="#C2_0_e00b386825" x="254.184716" y="169.857181" style="fill: #1f77b4"/>
    </g>
    <g clip-path="url(#pa9a100d6ec)">
     <use xlink:href="#C2_0_e00b386825" x="243.014493" y="304.074545" style="fill: #1f77b4"/>
    </g>
    <g clip-path="url(#pa9a100d6ec)">
     <use xlink:href="#C2_0_e00b386825" x="248.820428" y="304.074545" style="fill: #1f77b4"/>
    </g>
    <g clip-path="url(#pa9a100d6ec)">
     <use xlink:href="#C2_0_e00b386825" x="249.560206" y="72.055079" style="fill: #1f77b4"/>
    </g>
   </g>
   <g id="PathCollection_4">
    <defs>
     <path id="C3_0_7f09e9eeb3" d="M 0 2.5 
C 0.663008 2.5 1.29895 2.236584 1.767767 1.767767 
C 2.236584 1.29895 2.5 0.663008 2.5 -0 
C 2.5 -0.663008 2.236584 -1.29895 1.767767 -1.767767 
C 1.29895 -2.236584 0.663008 -2.5 0 -2.5 
C -0.663008 -2.5 -1.29895 -2.236584 -1.767767 -1.767767 
C -2.236584 -1.29895 -2.5 -0.663008 -2.5 0 
C -2.5 0.663008 -2.236584 1.29895 -1.767767 1.767767 
C -1.29895 2.236584 -0.663008 2.5 0 2.5 
z
"/>
    </defs>
    <g clip-path="url(#pa9a100d6ec)">
     <use xlink:href="#C3_0_7f09e9eeb3" x="312.59801" y="206.2476" style="fill: #ff7f0e"/>
    </g>
    <g clip-path="url(#pa9a100d6ec)">
     <use xlink:href="#C3_0_7f09e9eeb3" x="309.644592" y="246.683281" style="fill: #ff7f0e"/>
    </g>
    <g clip-path="url(#pa9a100d6ec)">
     <use xlink:href="#C3_0_7f09e9eeb3" x="304.695363" y="101.766887" style="fill: #ff7f0e"/>
    </g>
    <g clip-path="url(#pa9a100d6ec)">
     <use xlink:href="#C3_0_7f09e9eeb3" x="315.96487" y="298.358862" style="fill: #ff7f0e"/>
    </g>
    <g clip-path="url(#pa9a100d6ec)">
     <use xlink:href="#C3_0_7f09e9eeb3" x="317.355971" y="222.653637" style="fill: #ff7f0e"/>
    </g>
    <g clip-path="url(#pa9a100d6ec)">
     <use xlink:href="#C3_0_7f09e9eeb3" x="304.686518" y="248.366126" style="fill: #ff7f0e"/>
    </g>
    <g clip-path="url(#pa9a100d6ec)">
     <use xlink:href="#C3_0_7f09e9eeb3" x="304.834097" y="281.239917" style="fill: #ff7f0e"/>
    </g>
    <g clip-path="url(#pa9a100d6ec)">
     <use xlink:href="#C3_0_7f09e9eeb3" x="315.583933" y="304.074545" style="fill: #ff7f0e"/>
    </g>
    <g clip-path="url(#pa9a100d6ec)">
     <use xlink:href="#C3_0_7f09e9eeb3" x="306.501718" y="297.254403" style="fill: #ff7f0e"/>
    </g>
    <g clip-path="url(#pa9a100d6ec)">
     <use xlink:href="#C3_0_7f09e9eeb3" x="312.251487" y="304.074545" style="fill: #ff7f0e"/>
    </g>
    <g clip-path="url(#pa9a100d6ec)">
     <use xlink:href="#C3_0_7f09e9eeb3" x="305.136065" y="288.286552" style="fill: #ff7f0e"/>
    </g>
    <g clip-path="url(#pa9a100d6ec)">
     <use xlink:href="#C3_0_7f09e9eeb3" x="312.657358" y="249.177914" style="fill: #ff7f0e"/>
    </g>
    <g clip-path="url(#pa9a100d6ec)">
     <use xlink:href="#C3_0_7f09e9eeb3" x="316.04752" y="225.467757" style="fill: #ff7f0e"/>
    </g>
    <g clip-path="url(#pa9a100d6ec)">
     <use xlink:href="#C3_0_7f09e9eeb3" x="311.536124" y="241.297141" style="fill: #ff7f0e"/>
    </g>
    <g clip-path="url(#pa9a100d6ec)">
     <use xlink:href="#C3_0_7f09e9eeb3" x="316.8543" y="304.074545" style="fill: #ff7f0e"/>
    </g>
    <g clip-path="url(#pa9a100d6ec)">
     <use xlink:href="#C3_0_7f09e9eeb3" x="312.433323" y="24.765455" style="fill: #ff7f0e"/>
    </g>
    <g clip-path="url(#pa9a100d6ec)">
     <use xlink:href="#C3_0_7f09e9eeb3" x="314.343513" y="231.044578" style="fill: #ff7f0e"/>
    </g>
    <g clip-path="url(#pa9a100d6ec)">
     <use xlink:href="#C3_0_7f09e9eeb3" x="307.784877" y="286.96423" style="fill: #ff7f0e"/>
    </g>
    <g clip-path="url(#pa9a100d6ec)">
     <use xlink:href="#C3_0_7f09e9eeb3" x="312.748988" y="153.16839" style="fill: #ff7f0e"/>
    </g>
    <g clip-path="url(#pa9a100d6ec)">
     <use xlink:href="#C3_0_7f09e9eeb3" x="314.58891" y="118.001596" style="fill: #ff7f0e"/>
    </g>
    <g clip-path="url(#pa9a100d6ec)">
     <use xlink:href="#C3_0_7f09e9eeb3" x="309.65999" y="242.295" style="fill: #ff7f0e"/>
    </g>
    <g clip-path="url(#pa9a100d6ec)">
     <use xlink:href="#C3_0_7f09e9eeb3" x="304.372354" y="225.927723" style="fill: #ff7f0e"/>
    </g>
    <g clip-path="url(#pa9a100d6ec)">
     <use xlink:href="#C3_0_7f09e9eeb3" x="307.926837" y="196.024744" style="fill: #ff7f0e"/>
    </g>
    <g clip-path="url(#pa9a100d6ec)">
     <use xlink:href="#C3_0_7f09e9eeb3" x="304.87383" y="249.191283" style="fill: #ff7f0e"/>
    </g>
   </g>
   <g id="line2d_8"/>
   <g id="line2d_9"/>
  </g>
  <g id="legend_1">
   <g id="text_12">
    <!-- time -->
    <g style="fill: #262626" transform="translate(365.045625 168.439844) scale(0.1 -0.1)">
     <defs>
      <path id="ArialMT-69" d="M 425 3934 
L 425 4581 
L 988 4581 
L 988 3934 
L 425 3934 
z
M 425 0 
L 425 3319 
L 988 3319 
L 988 0 
L 425 0 
z
" transform="scale(0.015625)"/>
     </defs>
     <use xlink:href="#ArialMT-74"/>
     <use xlink:href="#ArialMT-69" x="27.783203"/>
     <use xlink:href="#ArialMT-6d" x="50"/>
     <use xlink:href="#ArialMT-65" x="133.300781"/>
    </g>
   </g>
   <g id="line2d_10">
    <defs>
     <path id="m1de2730aca" d="M 0 2.5 
C 0.663008 2.5 1.29895 2.236584 1.767767 1.767767 
C 2.236584 1.29895 2.5 0.663008 2.5 0 
C 2.5 -0.663008 2.236584 -1.29895 1.767767 -1.767767 
C 1.29895 -2.236584 0.663008 -2.5 0 -2.5 
C -0.663008 -2.5 -1.29895 -2.236584 -1.767767 -1.767767 
C -2.236584 -1.29895 -2.5 -0.663008 -2.5 0 
C -2.5 0.663008 -2.236584 1.29895 -1.767767 1.767767 
C -1.29895 2.236584 -0.663008 2.5 0 2.5 
z
"/>
    </defs>
    <g>
     <use xlink:href="#m1de2730aca" x="369.101875" y="179.085156" style="fill: #1f77b4"/>
    </g>
   </g>
   <g id="text_13">
    <!-- i -->
    <g style="fill: #262626" transform="translate(387.101875 182.585156) scale(0.1 -0.1)">
     <use xlink:href="#ArialMT-69"/>
    </g>
   </g>
   <g id="line2d_11">
    <defs>
     <path id="mac1e24e297" d="M 0 2.5 
C 0.663008 2.5 1.29895 2.236584 1.767767 1.767767 
C 2.236584 1.29895 2.5 0.663008 2.5 0 
C 2.5 -0.663008 2.236584 -1.29895 1.767767 -1.767767 
C 1.29895 -2.236584 0.663008 -2.5 0 -2.5 
C -0.663008 -2.5 -1.29895 -2.236584 -1.767767 -1.767767 
C -2.236584 -1.29895 -2.5 -0.663008 -2.5 0 
C -2.5 0.663008 -2.236584 1.29895 -1.767767 1.767767 
C -1.29895 2.236584 -0.663008 2.5 0 2.5 
z
"/>
    </defs>
    <g>
     <use xlink:href="#mac1e24e297" x="369.101875" y="193.230469" style="fill: #ff7f0e"/>
    </g>
   </g>
   <g id="text_14">
    <!-- f -->
    <g style="fill: #262626" transform="translate(387.101875 196.730469) scale(0.1 -0.1)">
     <use xlink:href="#ArialMT-66"/>
    </g>
   </g>
  </g>
 </g>
 <defs>
  <clipPath id="pa9a100d6ec">
   <rect x="53.983145" y="10.8" width="302.028055" height="307.24"/>
  </clipPath>
 </defs>
</svg>
