<?xml version="1.0" encoding="utf-8" standalone="no"?>
<!DOCTYPE svg PUBLIC "-//W3C//DTD SVG 1.1//EN"
  "http://www.w3.org/Graphics/SVG/1.1/DTD/svg11.dtd">
<svg xmlns:xlink="http://www.w3.org/1999/xlink" width="398.88pt" height="360pt" viewBox="0 0 398.88 360" xmlns="http://www.w3.org/2000/svg" version="1.1">
 <metadata>
  <rdf:RDF xmlns:dc="http://purl.org/dc/elements/1.1/" xmlns:cc="http://creativecommons.org/ns#" xmlns:rdf="http://www.w3.org/1999/02/22-rdf-syntax-ns#">
   <cc:Work>
    <dc:type rdf:resource="http://purl.org/dc/dcmitype/StillImage"/>
    <dc:date>2024-09-11T03:30:49.755639</dc:date>
    <dc:format>image/svg+xml</dc:format>
    <dc:creator>
     <cc:Agent>
      <dc:title>Matplotlib v3.8.3, https://matplotlib.org/</dc:title>
     </cc:Agent>
    </dc:creator>
   </cc:Work>
  </rdf:RDF>
 </metadata>
 <defs>
  <style type="text/css">*{stroke-linejoin: round; stroke-linecap: butt}</style>
 </defs>
 <g id="figure_1">
  <g id="patch_1">
   <path d="M 0 360 
L 398.88 360 
L 398.88 0 
L 0 0 
z
" style="fill: #ffffff"/>
  </g>
  <g id="axes_1">
   <g id="patch_2">
    <path d="M 53.983145 318.04 
L 356.0112 318.04 
L 356.0112 10.8 
L 53.983145 10.8 
z
" style="fill: #ffffff"/>
   </g>
   <g id="matplotlib.axis_1">
    <g id="xtick_1">
     <g id="text_1">
      <!-- f -->
      <g style="fill: #262626" transform="translate(128.101096 332.197812) scale(0.1 -0.1)">
       <defs>
        <path id="ArialMT-66" d="M 556 0 
L 556 2881 
L 59 2881 
L 59 3319 
L 556 3319 
L 556 3672 
Q 556 4006 616 4169 
Q 697 4388 901 4523 
Q 1106 4659 1475 4659 
Q 1713 4659 2000 4603 
L 1916 4113 
Q 1741 4144 1584 4144 
Q 1328 4144 1222 4034 
Q 1116 3925 1116 3625 
L 1116 3319 
L 1763 3319 
L 1763 2881 
L 1116 2881 
L 1116 0 
L 556 0 
z
" transform="scale(0.015625)"/>
       </defs>
       <use xlink:href="#ArialMT-66"/>
      </g>
     </g>
    </g>
    <g id="xtick_2">
     <g id="text_2">
      <!-- m -->
      <g style="fill: #262626" transform="translate(276.339342 332.197812) scale(0.1 -0.1)">
       <defs>
        <path id="ArialMT-6d" d="M 422 0 
L 422 3319 
L 925 3319 
L 925 2853 
Q 1081 3097 1340 3245 
Q 1600 3394 1931 3394 
Q 2300 3394 2536 3241 
Q 2772 3088 2869 2813 
Q 3263 3394 3894 3394 
Q 4388 3394 4653 3120 
Q 4919 2847 4919 2278 
L 4919 0 
L 4359 0 
L 4359 2091 
Q 4359 2428 4304 2576 
Q 4250 2725 4106 2815 
Q 3963 2906 3769 2906 
Q 3419 2906 3187 2673 
Q 2956 2441 2956 1928 
L 2956 0 
L 2394 0 
L 2394 2156 
Q 2394 2531 2256 2718 
Q 2119 2906 1806 2906 
Q 1569 2906 1367 2781 
Q 1166 2656 1075 2415 
Q 984 2175 984 1722 
L 984 0 
L 422 0 
z
" transform="scale(0.015625)"/>
       </defs>
       <use xlink:href="#ArialMT-6d"/>
      </g>
     </g>
    </g>
    <g id="text_3">
     <!-- sex -->
     <g style="fill: #262626" transform="translate(197.216704 345.343125) scale(0.1 -0.1)">
      <defs>
       <path id="ArialMT-73" d="M 197 991 
L 753 1078 
Q 800 744 1014 566 
Q 1228 388 1613 388 
Q 2000 388 2187 545 
Q 2375 703 2375 916 
Q 2375 1106 2209 1216 
Q 2094 1291 1634 1406 
Q 1016 1563 777 1677 
Q 538 1791 414 1992 
Q 291 2194 291 2438 
Q 291 2659 392 2848 
Q 494 3038 669 3163 
Q 800 3259 1026 3326 
Q 1253 3394 1513 3394 
Q 1903 3394 2198 3281 
Q 2494 3169 2634 2976 
Q 2775 2784 2828 2463 
L 2278 2388 
Q 2241 2644 2061 2787 
Q 1881 2931 1553 2931 
Q 1166 2931 1000 2803 
Q 834 2675 834 2503 
Q 834 2394 903 2306 
Q 972 2216 1119 2156 
Q 1203 2125 1616 2013 
Q 2213 1853 2448 1751 
Q 2684 1650 2818 1456 
Q 2953 1263 2953 975 
Q 2953 694 2789 445 
Q 2625 197 2315 61 
Q 2006 -75 1616 -75 
Q 969 -75 630 194 
Q 291 463 197 991 
z
" transform="scale(0.015625)"/>
       <path id="ArialMT-65" d="M 2694 1069 
L 3275 997 
Q 3138 488 2766 206 
Q 2394 -75 1816 -75 
Q 1088 -75 661 373 
Q 234 822 234 1631 
Q 234 2469 665 2931 
Q 1097 3394 1784 3394 
Q 2450 3394 2872 2941 
Q 3294 2488 3294 1666 
Q 3294 1616 3291 1516 
L 816 1516 
Q 847 969 1125 678 
Q 1403 388 1819 388 
Q 2128 388 2347 550 
Q 2566 713 2694 1069 
z
M 847 1978 
L 2700 1978 
Q 2663 2397 2488 2606 
Q 2219 2931 1791 2931 
Q 1403 2931 1139 2672 
Q 875 2413 847 1978 
z
" transform="scale(0.015625)"/>
       <path id="ArialMT-78" d="M 47 0 
L 1259 1725 
L 138 3319 
L 841 3319 
L 1350 2541 
Q 1494 2319 1581 2169 
Q 1719 2375 1834 2534 
L 2394 3319 
L 3066 3319 
L 1919 1756 
L 3153 0 
L 2463 0 
L 1781 1031 
L 1600 1309 
L 728 0 
L 47 0 
z
" transform="scale(0.015625)"/>
      </defs>
      <use xlink:href="#ArialMT-73"/>
      <use xlink:href="#ArialMT-65" x="50"/>
      <use xlink:href="#ArialMT-78" x="105.615234"/>
     </g>
    </g>
   </g>
   <g id="matplotlib.axis_2">
    <g id="ytick_1">
     <g id="line2d_1">
      <path d="M 53.983145 286.532005 
L 356.0112 286.532005 
" clip-path="url(#p57c7305514)" style="fill: none; stroke: #cccccc; stroke-width: 0.8; stroke-linecap: round"/>
     </g>
     <g id="text_4">
      <!-- 100 -->
      <g style="fill: #262626" transform="translate(30.300332 290.110911) scale(0.1 -0.1)">
       <defs>
        <path id="ArialMT-31" d="M 2384 0 
L 1822 0 
L 1822 3584 
Q 1619 3391 1289 3197 
Q 959 3003 697 2906 
L 697 3450 
Q 1169 3672 1522 3987 
Q 1875 4303 2022 4600 
L 2384 4600 
L 2384 0 
z
" transform="scale(0.015625)"/>
        <path id="ArialMT-30" d="M 266 2259 
Q 266 3072 433 3567 
Q 600 4063 929 4331 
Q 1259 4600 1759 4600 
Q 2128 4600 2406 4451 
Q 2684 4303 2865 4023 
Q 3047 3744 3150 3342 
Q 3253 2941 3253 2259 
Q 3253 1453 3087 958 
Q 2922 463 2592 192 
Q 2263 -78 1759 -78 
Q 1097 -78 719 397 
Q 266 969 266 2259 
z
M 844 2259 
Q 844 1131 1108 757 
Q 1372 384 1759 384 
Q 2147 384 2411 759 
Q 2675 1134 2675 2259 
Q 2675 3391 2411 3762 
Q 2147 4134 1753 4134 
Q 1366 4134 1134 3806 
Q 844 3388 844 2259 
z
" transform="scale(0.015625)"/>
       </defs>
       <use xlink:href="#ArialMT-31"/>
       <use xlink:href="#ArialMT-30" x="55.615234"/>
       <use xlink:href="#ArialMT-30" x="111.230469"/>
      </g>
     </g>
    </g>
    <g id="ytick_2">
     <g id="line2d_2">
      <path d="M 53.983145 229.627705 
L 356.0112 229.627705 
" clip-path="url(#p57c7305514)" style="fill: none; stroke: #cccccc; stroke-width: 0.8; stroke-linecap: round"/>
     </g>
     <g id="text_5">
      <!-- 120 -->
      <g style="fill: #262626" transform="translate(30.300332 233.206612) scale(0.1 -0.1)">
       <defs>
        <path id="ArialMT-32" d="M 3222 541 
L 3222 0 
L 194 0 
Q 188 203 259 391 
Q 375 700 629 1000 
Q 884 1300 1366 1694 
Q 2113 2306 2375 2664 
Q 2638 3022 2638 3341 
Q 2638 3675 2398 3904 
Q 2159 4134 1775 4134 
Q 1369 4134 1125 3890 
Q 881 3647 878 3216 
L 300 3275 
Q 359 3922 746 4261 
Q 1134 4600 1788 4600 
Q 2447 4600 2831 4234 
Q 3216 3869 3216 3328 
Q 3216 3053 3103 2787 
Q 2991 2522 2730 2228 
Q 2469 1934 1863 1422 
Q 1356 997 1212 845 
Q 1069 694 975 541 
L 3222 541 
z
" transform="scale(0.015625)"/>
       </defs>
       <use xlink:href="#ArialMT-31"/>
       <use xlink:href="#ArialMT-32" x="55.615234"/>
       <use xlink:href="#ArialMT-30" x="111.230469"/>
      </g>
     </g>
    </g>
    <g id="ytick_3">
     <g id="line2d_3">
      <path d="M 53.983145 172.723406 
L 356.0112 172.723406 
" clip-path="url(#p57c7305514)" style="fill: none; stroke: #cccccc; stroke-width: 0.8; stroke-linecap: round"/>
     </g>
     <g id="text_6">
      <!-- 140 -->
      <g style="fill: #262626" transform="translate(30.300332 176.302312) scale(0.1 -0.1)">
       <defs>
        <path id="ArialMT-34" d="M 2069 0 
L 2069 1097 
L 81 1097 
L 81 1613 
L 2172 4581 
L 2631 4581 
L 2631 1613 
L 3250 1613 
L 3250 1097 
L 2631 1097 
L 2631 0 
L 2069 0 
z
M 2069 1613 
L 2069 3678 
L 634 1613 
L 2069 1613 
z
" transform="scale(0.015625)"/>
       </defs>
       <use xlink:href="#ArialMT-31"/>
       <use xlink:href="#ArialMT-34" x="55.615234"/>
       <use xlink:href="#ArialMT-30" x="111.230469"/>
      </g>
     </g>
    </g>
    <g id="ytick_4">
     <g id="line2d_4">
      <path d="M 53.983145 115.819106 
L 356.0112 115.819106 
" clip-path="url(#p57c7305514)" style="fill: none; stroke: #cccccc; stroke-width: 0.8; stroke-linecap: round"/>
     </g>
     <g id="text_7">
      <!-- 160 -->
      <g style="fill: #262626" transform="translate(30.300332 119.398012) scale(0.1 -0.1)">
       <defs>
        <path id="ArialMT-36" d="M 3184 3459 
L 2625 3416 
Q 2550 3747 2413 3897 
Q 2184 4138 1850 4138 
Q 1581 4138 1378 3988 
Q 1113 3794 959 3422 
Q 806 3050 800 2363 
Q 1003 2672 1297 2822 
Q 1591 2972 1913 2972 
Q 2475 2972 2870 2558 
Q 3266 2144 3266 1488 
Q 3266 1056 3080 686 
Q 2894 316 2569 119 
Q 2244 -78 1831 -78 
Q 1128 -78 684 439 
Q 241 956 241 2144 
Q 241 3472 731 4075 
Q 1159 4600 1884 4600 
Q 2425 4600 2770 4297 
Q 3116 3994 3184 3459 
z
M 888 1484 
Q 888 1194 1011 928 
Q 1134 663 1356 523 
Q 1578 384 1822 384 
Q 2178 384 2434 671 
Q 2691 959 2691 1453 
Q 2691 1928 2437 2201 
Q 2184 2475 1800 2475 
Q 1419 2475 1153 2201 
Q 888 1928 888 1484 
z
" transform="scale(0.015625)"/>
       </defs>
       <use xlink:href="#ArialMT-31"/>
       <use xlink:href="#ArialMT-36" x="55.615234"/>
       <use xlink:href="#ArialMT-30" x="111.230469"/>
      </g>
     </g>
    </g>
    <g id="ytick_5">
     <g id="line2d_5">
      <path d="M 53.983145 58.914807 
L 356.0112 58.914807 
" clip-path="url(#p57c7305514)" style="fill: none; stroke: #cccccc; stroke-width: 0.8; stroke-linecap: round"/>
     </g>
     <g id="text_8">
      <!-- 180 -->
      <g style="fill: #262626" transform="translate(30.300332 62.493713) scale(0.1 -0.1)">
       <defs>
        <path id="ArialMT-38" d="M 1131 2484 
Q 781 2613 612 2850 
Q 444 3088 444 3419 
Q 444 3919 803 4259 
Q 1163 4600 1759 4600 
Q 2359 4600 2725 4251 
Q 3091 3903 3091 3403 
Q 3091 3084 2923 2848 
Q 2756 2613 2416 2484 
Q 2838 2347 3058 2040 
Q 3278 1734 3278 1309 
Q 3278 722 2862 322 
Q 2447 -78 1769 -78 
Q 1091 -78 675 323 
Q 259 725 259 1325 
Q 259 1772 486 2073 
Q 713 2375 1131 2484 
z
M 1019 3438 
Q 1019 3113 1228 2906 
Q 1438 2700 1772 2700 
Q 2097 2700 2305 2904 
Q 2513 3109 2513 3406 
Q 2513 3716 2298 3927 
Q 2084 4138 1766 4138 
Q 1444 4138 1231 3931 
Q 1019 3725 1019 3438 
z
M 838 1322 
Q 838 1081 952 856 
Q 1066 631 1291 507 
Q 1516 384 1775 384 
Q 2178 384 2440 643 
Q 2703 903 2703 1303 
Q 2703 1709 2433 1975 
Q 2163 2241 1756 2241 
Q 1359 2241 1098 1978 
Q 838 1716 838 1322 
z
" transform="scale(0.015625)"/>
       </defs>
       <use xlink:href="#ArialMT-31"/>
       <use xlink:href="#ArialMT-38" x="55.615234"/>
       <use xlink:href="#ArialMT-30" x="111.230469"/>
      </g>
     </g>
    </g>
    <g id="text_9">
     <!-- Heart rate (beats/min) -->
     <g style="fill: #262626" transform="translate(24.195645 213.044219) rotate(-90) scale(0.1 -0.1)">
      <defs>
       <path id="ArialMT-48" d="M 513 0 
L 513 4581 
L 1119 4581 
L 1119 2700 
L 3500 2700 
L 3500 4581 
L 4106 4581 
L 4106 0 
L 3500 0 
L 3500 2159 
L 1119 2159 
L 1119 0 
L 513 0 
z
" transform="scale(0.015625)"/>
       <path id="ArialMT-61" d="M 2588 409 
Q 2275 144 1986 34 
Q 1697 -75 1366 -75 
Q 819 -75 525 192 
Q 231 459 231 875 
Q 231 1119 342 1320 
Q 453 1522 633 1644 
Q 813 1766 1038 1828 
Q 1203 1872 1538 1913 
Q 2219 1994 2541 2106 
Q 2544 2222 2544 2253 
Q 2544 2597 2384 2738 
Q 2169 2928 1744 2928 
Q 1347 2928 1158 2789 
Q 969 2650 878 2297 
L 328 2372 
Q 403 2725 575 2942 
Q 747 3159 1072 3276 
Q 1397 3394 1825 3394 
Q 2250 3394 2515 3294 
Q 2781 3194 2906 3042 
Q 3031 2891 3081 2659 
Q 3109 2516 3109 2141 
L 3109 1391 
Q 3109 606 3145 398 
Q 3181 191 3288 0 
L 2700 0 
Q 2613 175 2588 409 
z
M 2541 1666 
Q 2234 1541 1622 1453 
Q 1275 1403 1131 1340 
Q 988 1278 909 1158 
Q 831 1038 831 891 
Q 831 666 1001 516 
Q 1172 366 1500 366 
Q 1825 366 2078 508 
Q 2331 650 2450 897 
Q 2541 1088 2541 1459 
L 2541 1666 
z
" transform="scale(0.015625)"/>
       <path id="ArialMT-72" d="M 416 0 
L 416 3319 
L 922 3319 
L 922 2816 
Q 1116 3169 1280 3281 
Q 1444 3394 1641 3394 
Q 1925 3394 2219 3213 
L 2025 2691 
Q 1819 2813 1613 2813 
Q 1428 2813 1281 2702 
Q 1134 2591 1072 2394 
Q 978 2094 978 1738 
L 978 0 
L 416 0 
z
" transform="scale(0.015625)"/>
       <path id="ArialMT-74" d="M 1650 503 
L 1731 6 
Q 1494 -44 1306 -44 
Q 1000 -44 831 53 
Q 663 150 594 308 
Q 525 466 525 972 
L 525 2881 
L 113 2881 
L 113 3319 
L 525 3319 
L 525 4141 
L 1084 4478 
L 1084 3319 
L 1650 3319 
L 1650 2881 
L 1084 2881 
L 1084 941 
Q 1084 700 1114 631 
Q 1144 563 1211 522 
Q 1278 481 1403 481 
Q 1497 481 1650 503 
z
" transform="scale(0.015625)"/>
       <path id="ArialMT-20" transform="scale(0.015625)"/>
       <path id="ArialMT-28" d="M 1497 -1347 
Q 1031 -759 709 28 
Q 388 816 388 1659 
Q 388 2403 628 3084 
Q 909 3875 1497 4659 
L 1900 4659 
Q 1522 4009 1400 3731 
Q 1209 3300 1100 2831 
Q 966 2247 966 1656 
Q 966 153 1900 -1347 
L 1497 -1347 
z
" transform="scale(0.015625)"/>
       <path id="ArialMT-62" d="M 941 0 
L 419 0 
L 419 4581 
L 981 4581 
L 981 2947 
Q 1338 3394 1891 3394 
Q 2197 3394 2470 3270 
Q 2744 3147 2920 2923 
Q 3097 2700 3197 2384 
Q 3297 2069 3297 1709 
Q 3297 856 2875 390 
Q 2453 -75 1863 -75 
Q 1275 -75 941 416 
L 941 0 
z
M 934 1684 
Q 934 1088 1097 822 
Q 1363 388 1816 388 
Q 2184 388 2453 708 
Q 2722 1028 2722 1663 
Q 2722 2313 2464 2622 
Q 2206 2931 1841 2931 
Q 1472 2931 1203 2611 
Q 934 2291 934 1684 
z
" transform="scale(0.015625)"/>
       <path id="ArialMT-2f" d="M 0 -78 
L 1328 4659 
L 1778 4659 
L 453 -78 
L 0 -78 
z
" transform="scale(0.015625)"/>
       <path id="ArialMT-69" d="M 425 3934 
L 425 4581 
L 988 4581 
L 988 3934 
L 425 3934 
z
M 425 0 
L 425 3319 
L 988 3319 
L 988 0 
L 425 0 
z
" transform="scale(0.015625)"/>
       <path id="ArialMT-6e" d="M 422 0 
L 422 3319 
L 928 3319 
L 928 2847 
Q 1294 3394 1984 3394 
Q 2284 3394 2536 3286 
Q 2788 3178 2913 3003 
Q 3038 2828 3088 2588 
Q 3119 2431 3119 2041 
L 3119 0 
L 2556 0 
L 2556 2019 
Q 2556 2363 2490 2533 
Q 2425 2703 2258 2804 
Q 2091 2906 1866 2906 
Q 1506 2906 1245 2678 
Q 984 2450 984 1813 
L 984 0 
L 422 0 
z
" transform="scale(0.015625)"/>
       <path id="ArialMT-29" d="M 791 -1347 
L 388 -1347 
Q 1322 153 1322 1656 
Q 1322 2244 1188 2822 
Q 1081 3291 891 3722 
Q 769 4003 388 4659 
L 791 4659 
Q 1378 3875 1659 3084 
Q 1900 2403 1900 1659 
Q 1900 816 1576 28 
Q 1253 -759 791 -1347 
z
" transform="scale(0.015625)"/>
      </defs>
      <use xlink:href="#ArialMT-48"/>
      <use xlink:href="#ArialMT-65" x="72.216797"/>
      <use xlink:href="#ArialMT-61" x="127.832031"/>
      <use xlink:href="#ArialMT-72" x="183.447266"/>
      <use xlink:href="#ArialMT-74" x="216.748047"/>
      <use xlink:href="#ArialMT-20" x="244.53125"/>
      <use xlink:href="#ArialMT-72" x="272.314453"/>
      <use xlink:href="#ArialMT-61" x="305.615234"/>
      <use xlink:href="#ArialMT-74" x="361.230469"/>
      <use xlink:href="#ArialMT-65" x="389.013672"/>
      <use xlink:href="#ArialMT-20" x="444.628906"/>
      <use xlink:href="#ArialMT-28" x="472.412109"/>
      <use xlink:href="#ArialMT-62" x="505.712891"/>
      <use xlink:href="#ArialMT-65" x="561.328125"/>
      <use xlink:href="#ArialMT-61" x="616.943359"/>
      <use xlink:href="#ArialMT-74" x="672.558594"/>
      <use xlink:href="#ArialMT-73" x="700.341797"/>
      <use xlink:href="#ArialMT-2f" x="750.341797"/>
      <use xlink:href="#ArialMT-6d" x="778.125"/>
      <use xlink:href="#ArialMT-69" x="861.425781"/>
      <use xlink:href="#ArialMT-6e" x="883.642578"/>
      <use xlink:href="#ArialMT-29" x="939.257812"/>
     </g>
    </g>
   </g>
   <g id="patch_3">
    <path d="M 53.983145 318.04 
L 53.983145 10.8 
" style="fill: none; stroke: #cccccc; stroke-width: 0.8; stroke-linejoin: miter; stroke-linecap: square"/>
   </g>
   <g id="patch_4">
    <path d="M 53.983145 318.04 
L 356.0112 318.04 
" style="fill: none; stroke: #cccccc; stroke-width: 0.8; stroke-linejoin: miter; stroke-linecap: square"/>
   </g>
   <g id="PathCollection_1">
    <defs>
     <path id="C0_0_5610dbb15d" d="M 0 2.5 
C 0.663008 2.5 1.29895 2.236584 1.767767 1.767767 
C 2.236584 1.29895 2.5 0.663008 2.5 -0 
C 2.5 -0.663008 2.236584 -1.29895 1.767767 -1.767767 
C 1.29895 -2.236584 0.663008 -2.5 0 -2.5 
C -0.663008 -2.5 -1.29895 -2.236584 -1.767767 -1.767767 
C -2.236584 -1.29895 -2.5 -0.663008 -2.5 0 
C -2.5 0.663008 -2.236584 1.29895 -1.767767 1.767767 
C -1.29895 2.236584 -0.663008 2.5 0 2.5 
z
"/>
    </defs>
    <g clip-path="url(#p57c7305514)">
     <use xlink:href="#C0_0_5610dbb15d" x="100.056516" y="94.375889" style="fill: #1f77b4"/>
    </g>
    <g clip-path="url(#p57c7305514)">
     <use xlink:href="#C0_0_5610dbb15d" x="106.435194" y="116.060211" style="fill: #1f77b4"/>
    </g>
    <g clip-path="url(#p57c7305514)">
     <use xlink:href="#C0_0_5610dbb15d" x="106.455687" y="214.476165" style="fill: #1f77b4"/>
    </g>
    <g clip-path="url(#p57c7305514)">
     <use xlink:href="#C0_0_5610dbb15d" x="103.426618" y="109.404911" style="fill: #1f77b4"/>
    </g>
    <g clip-path="url(#p57c7305514)">
     <use xlink:href="#C0_0_5610dbb15d" x="102.838637" y="226.990339" style="fill: #1f77b4"/>
    </g>
    <g clip-path="url(#p57c7305514)">
     <use xlink:href="#C0_0_5610dbb15d" x="99.418166" y="95.613698" style="fill: #1f77b4"/>
    </g>
    <g clip-path="url(#p57c7305514)">
     <use xlink:href="#C0_0_5610dbb15d" x="96.129094" y="192.688487" style="fill: #1f77b4"/>
    </g>
    <g clip-path="url(#p57c7305514)">
     <use xlink:href="#C0_0_5610dbb15d" x="99.717541" y="183.545508" style="fill: #1f77b4"/>
    </g>
    <g clip-path="url(#p57c7305514)">
     <use xlink:href="#C0_0_5610dbb15d" x="98.243073" y="236.526117" style="fill: #1f77b4"/>
    </g>
    <g clip-path="url(#p57c7305514)">
     <use xlink:href="#C0_0_5610dbb15d" x="103.264457" y="184.552165" style="fill: #1f77b4"/>
    </g>
    <g clip-path="url(#p57c7305514)">
     <use xlink:href="#C0_0_5610dbb15d" x="92.214075" y="175.662263" style="fill: #1f77b4"/>
    </g>
    <g clip-path="url(#p57c7305514)">
     <use xlink:href="#C0_0_5610dbb15d" x="98.167876" y="199.121114" style="fill: #1f77b4"/>
    </g>
    <g clip-path="url(#p57c7305514)">
     <use xlink:href="#C0_0_5610dbb15d" x="106.662765" y="194.335452" style="fill: #1f77b4"/>
    </g>
    <g clip-path="url(#p57c7305514)">
     <use xlink:href="#C0_0_5610dbb15d" x="94.237947" y="284.922486" style="fill: #1f77b4"/>
    </g>
    <g clip-path="url(#p57c7305514)">
     <use xlink:href="#C0_0_5610dbb15d" x="103.134679" y="87.902441" style="fill: #1f77b4"/>
    </g>
   </g>
   <g id="PathCollection_2">
    <defs>
     <path id="C1_0_fc32400af3" d="M 0 2.5 
C 0.663008 2.5 1.29895 2.236584 1.767767 1.767767 
C 2.236584 1.29895 2.5 0.663008 2.5 -0 
C 2.5 -0.663008 2.236584 -1.29895 1.767767 -1.767767 
C 1.29895 -2.236584 0.663008 -2.5 0 -2.5 
C -0.663008 -2.5 -1.29895 -2.236584 -1.767767 -1.767767 
C -2.236584 -1.29895 -2.5 -0.663008 -2.5 0 
C -2.5 0.663008 -2.236584 1.29895 -1.767767 1.767767 
C -1.29895 2.236584 -0.663008 2.5 0 2.5 
z
"/>
    </defs>
    <g clip-path="url(#p57c7305514)">
     <use xlink:href="#C1_0_fc32400af3" x="164.570133" y="150.227377" style="fill: #ff7f0e"/>
    </g>
    <g clip-path="url(#p57c7305514)">
     <use xlink:href="#C1_0_fc32400af3" x="161.369182" y="175.795414" style="fill: #ff7f0e"/>
    </g>
    <g clip-path="url(#p57c7305514)">
     <use xlink:href="#C1_0_fc32400af3" x="155.981319" y="218.061971" style="fill: #ff7f0e"/>
    </g>
    <g clip-path="url(#p57c7305514)">
     <use xlink:href="#C1_0_fc32400af3" x="153.614786" y="87.138925" style="fill: #ff7f0e"/>
    </g>
    <g clip-path="url(#p57c7305514)">
     <use xlink:href="#C1_0_fc32400af3" x="156.669096" y="165.126382" style="fill: #ff7f0e"/>
    </g>
    <g clip-path="url(#p57c7305514)">
     <use xlink:href="#C1_0_fc32400af3" x="154.182902" y="151.214063" style="fill: #ff7f0e"/>
    </g>
    <g clip-path="url(#p57c7305514)">
     <use xlink:href="#C1_0_fc32400af3" x="166.220658" y="304.074545" style="fill: #ff7f0e"/>
    </g>
    <g clip-path="url(#p57c7305514)">
     <use xlink:href="#C1_0_fc32400af3" x="156.843545" y="193.846754" style="fill: #ff7f0e"/>
    </g>
    <g clip-path="url(#p57c7305514)">
     <use xlink:href="#C1_0_fc32400af3" x="158.756648" y="222.982935" style="fill: #ff7f0e"/>
    </g>
    <g clip-path="url(#p57c7305514)">
     <use xlink:href="#C1_0_fc32400af3" x="167.002427" y="161.571964" style="fill: #ff7f0e"/>
    </g>
    <g clip-path="url(#p57c7305514)">
     <use xlink:href="#C1_0_fc32400af3" x="165.323193" y="265.923303" style="fill: #ff7f0e"/>
    </g>
    <g clip-path="url(#p57c7305514)">
     <use xlink:href="#C1_0_fc32400af3" x="159.264509" y="173.480796" style="fill: #ff7f0e"/>
    </g>
    <g clip-path="url(#p57c7305514)">
     <use xlink:href="#C1_0_fc32400af3" x="160.807196" y="126.538543" style="fill: #ff7f0e"/>
    </g>
    <g clip-path="url(#p57c7305514)">
     <use xlink:href="#C1_0_fc32400af3" x="161.183734" y="198.173436" style="fill: #ff7f0e"/>
    </g>
    <g clip-path="url(#p57c7305514)">
     <use xlink:href="#C1_0_fc32400af3" x="158.670234" y="107.479928" style="fill: #ff7f0e"/>
    </g>
   </g>
   <g id="PathCollection_3">
    <defs>
     <path id="C2_0_fe1c1aa50f" d="M 0 2.5 
C 0.663008 2.5 1.29895 2.236584 1.767767 1.767767 
C 2.236584 1.29895 2.5 0.663008 2.5 -0 
C 2.5 -0.663008 2.236584 -1.29895 1.767767 -1.767767 
C 1.29895 -2.236584 0.663008 -2.5 0 -2.5 
C -0.663008 -2.5 -1.29895 -2.236584 -1.767767 -1.767767 
C -2.236584 -1.29895 -2.5 -0.663008 -2.5 0 
C -2.5 0.663008 -2.236584 1.29895 -1.767767 1.767767 
C -1.29895 2.236584 -0.663008 2.5 0 2.5 
z
"/>
    </defs>
    <g clip-path="url(#p57c7305514)">
     <use xlink:href="#C2_0_fe1c1aa50f" x="255.741481" y="236.851744" style="fill: #1f77b4"/>
    </g>
    <g clip-path="url(#p57c7305514)">
     <use xlink:href="#C2_0_fe1c1aa50f" x="257.741177" y="70.416918" style="fill: #1f77b4"/>
    </g>
    <g clip-path="url(#p57c7305514)">
     <use xlink:href="#C2_0_fe1c1aa50f" x="245.631489" y="173.534714" style="fill: #1f77b4"/>
    </g>
    <g clip-path="url(#p57c7305514)">
     <use xlink:href="#C2_0_fe1c1aa50f" x="254.172338" y="158.111843" style="fill: #1f77b4"/>
    </g>
    <g clip-path="url(#p57c7305514)">
     <use xlink:href="#C2_0_fe1c1aa50f" x="246.630471" y="125.188748" style="fill: #1f77b4"/>
    </g>
    <g clip-path="url(#p57c7305514)">
     <use xlink:href="#C2_0_fe1c1aa50f" x="255.340042" y="148.733562" style="fill: #1f77b4"/>
    </g>
    <g clip-path="url(#p57c7305514)">
     <use xlink:href="#C2_0_fe1c1aa50f" x="257.143914" y="88.594255" style="fill: #1f77b4"/>
    </g>
    <g clip-path="url(#p57c7305514)">
     <use xlink:href="#C2_0_fe1c1aa50f" x="253.0176" y="220.357671" style="fill: #1f77b4"/>
    </g>
    <g clip-path="url(#p57c7305514)">
     <use xlink:href="#C2_0_fe1c1aa50f" x="249.729304" y="114.067796" style="fill: #1f77b4"/>
    </g>
    <g clip-path="url(#p57c7305514)">
     <use xlink:href="#C2_0_fe1c1aa50f" x="252.649454" y="215.096333" style="fill: #1f77b4"/>
    </g>
    <g clip-path="url(#p57c7305514)">
     <use xlink:href="#C2_0_fe1c1aa50f" x="247.14113" y="134.925824" style="fill: #1f77b4"/>
    </g>
    <g clip-path="url(#p57c7305514)">
     <use xlink:href="#C2_0_fe1c1aa50f" x="250.793307" y="151.392248" style="fill: #1f77b4"/>
    </g>
    <g clip-path="url(#p57c7305514)">
     <use xlink:href="#C2_0_fe1c1aa50f" x="243.083998" y="195.128433" style="fill: #1f77b4"/>
    </g>
    <g clip-path="url(#p57c7305514)">
     <use xlink:href="#C2_0_fe1c1aa50f" x="249.235051" y="192.606029" style="fill: #1f77b4"/>
    </g>
    <g clip-path="url(#p57c7305514)">
     <use xlink:href="#C2_0_fe1c1aa50f" x="248.004111" y="24.765455" style="fill: #1f77b4"/>
    </g>
    <g clip-path="url(#p57c7305514)">
     <use xlink:href="#C2_0_fe1c1aa50f" x="243.871658" y="157.643368" style="fill: #1f77b4"/>
    </g>
    <g clip-path="url(#p57c7305514)">
     <use xlink:href="#C2_0_fe1c1aa50f" x="243.797662" y="134.573074" style="fill: #1f77b4"/>
    </g>
    <g clip-path="url(#p57c7305514)">
     <use xlink:href="#C2_0_fe1c1aa50f" x="257.181913" y="141.534318" style="fill: #1f77b4"/>
    </g>
    <g clip-path="url(#p57c7305514)">
     <use xlink:href="#C2_0_fe1c1aa50f" x="245.718004" y="182.769592" style="fill: #1f77b4"/>
    </g>
    <g clip-path="url(#p57c7305514)">
     <use xlink:href="#C2_0_fe1c1aa50f" x="244.555413" y="215.62177" style="fill: #1f77b4"/>
    </g>
    <g clip-path="url(#p57c7305514)">
     <use xlink:href="#C2_0_fe1c1aa50f" x="249.021788" y="169.253071" style="fill: #1f77b4"/>
    </g>
    <g clip-path="url(#p57c7305514)">
     <use xlink:href="#C2_0_fe1c1aa50f" x="246.136952" y="137.153004" style="fill: #1f77b4"/>
    </g>
    <g clip-path="url(#p57c7305514)">
     <use xlink:href="#C2_0_fe1c1aa50f" x="249.901042" y="166.279022" style="fill: #1f77b4"/>
    </g>
    <g clip-path="url(#p57c7305514)">
     <use xlink:href="#C2_0_fe1c1aa50f" x="248.988136" y="161.733381" style="fill: #1f77b4"/>
    </g>
   </g>
   <g id="PathCollection_4">
    <defs>
     <path id="C3_0_5331f3e94a" d="M 0 2.5 
C 0.663008 2.5 1.29895 2.236584 1.767767 1.767767 
C 2.236584 1.29895 2.5 0.663008 2.5 -0 
C 2.5 -0.663008 2.236584 -1.29895 1.767767 -1.767767 
C 1.29895 -2.236584 0.663008 -2.5 0 -2.5 
C -0.663008 -2.5 -1.29895 -2.236584 -1.767767 -1.767767 
C -2.236584 -1.29895 -2.5 -0.663008 -2.5 0 
C -2.5 0.663008 -2.236584 1.29895 -1.767767 1.767767 
C -1.29895 2.236584 -0.663008 2.5 0 2.5 
z
"/>
    </defs>
    <g clip-path="url(#p57c7305514)">
     <use xlink:href="#C3_0_5331f3e94a" x="311.722393" y="180.667782" style="fill: #ff7f0e"/>
    </g>
    <g clip-path="url(#p57c7305514)">
     <use xlink:href="#C3_0_5331f3e94a" x="310.221129" y="151.543341" style="fill: #ff7f0e"/>
    </g>
    <g clip-path="url(#p57c7305514)">
     <use xlink:href="#C3_0_5331f3e94a" x="317.977331" y="124.087407" style="fill: #ff7f0e"/>
    </g>
    <g clip-path="url(#p57c7305514)">
     <use xlink:href="#C3_0_5331f3e94a" x="303.312299" y="107.529058" style="fill: #ff7f0e"/>
    </g>
    <g clip-path="url(#p57c7305514)">
     <use xlink:href="#C3_0_5331f3e94a" x="309.751601" y="178.778144" style="fill: #ff7f0e"/>
    </g>
    <g clip-path="url(#p57c7305514)">
     <use xlink:href="#C3_0_5331f3e94a" x="306.292452" y="205.535831" style="fill: #ff7f0e"/>
    </g>
    <g clip-path="url(#p57c7305514)">
     <use xlink:href="#C3_0_5331f3e94a" x="307.58823" y="246.084208" style="fill: #ff7f0e"/>
    </g>
    <g clip-path="url(#p57c7305514)">
     <use xlink:href="#C3_0_5331f3e94a" x="314.889062" y="151.176434" style="fill: #ff7f0e"/>
    </g>
    <g clip-path="url(#p57c7305514)">
     <use xlink:href="#C3_0_5331f3e94a" x="315.139633" y="229.410785" style="fill: #ff7f0e"/>
    </g>
    <g clip-path="url(#p57c7305514)">
     <use xlink:href="#C3_0_5331f3e94a" x="308.583919" y="164.127836" style="fill: #ff7f0e"/>
    </g>
    <g clip-path="url(#p57c7305514)">
     <use xlink:href="#C3_0_5331f3e94a" x="308.510572" y="193.970849" style="fill: #ff7f0e"/>
    </g>
    <g clip-path="url(#p57c7305514)">
     <use xlink:href="#C3_0_5331f3e94a" x="311.252733" y="283.579172" style="fill: #ff7f0e"/>
    </g>
    <g clip-path="url(#p57c7305514)">
     <use xlink:href="#C3_0_5331f3e94a" x="317.540819" y="253.583595" style="fill: #ff7f0e"/>
    </g>
    <g clip-path="url(#p57c7305514)">
     <use xlink:href="#C3_0_5331f3e94a" x="310.337205" y="207.453043" style="fill: #ff7f0e"/>
    </g>
    <g clip-path="url(#p57c7305514)">
     <use xlink:href="#C3_0_5331f3e94a" x="304.568471" y="229.813898" style="fill: #ff7f0e"/>
    </g>
    <g clip-path="url(#p57c7305514)">
     <use xlink:href="#C3_0_5331f3e94a" x="314.798537" y="180.489089" style="fill: #ff7f0e"/>
    </g>
    <g clip-path="url(#p57c7305514)">
     <use xlink:href="#C3_0_5331f3e94a" x="309.587804" y="143.985703" style="fill: #ff7f0e"/>
    </g>
    <g clip-path="url(#p57c7305514)">
     <use xlink:href="#C3_0_5331f3e94a" x="303.810581" y="192.995575" style="fill: #ff7f0e"/>
    </g>
    <g clip-path="url(#p57c7305514)">
     <use xlink:href="#C3_0_5331f3e94a" x="318.118315" y="255.255044" style="fill: #ff7f0e"/>
    </g>
    <g clip-path="url(#p57c7305514)">
     <use xlink:href="#C3_0_5331f3e94a" x="315.202488" y="237.358345" style="fill: #ff7f0e"/>
    </g>
    <g clip-path="url(#p57c7305514)">
     <use xlink:href="#C3_0_5331f3e94a" x="317.165364" y="191.138994" style="fill: #ff7f0e"/>
    </g>
    <g clip-path="url(#p57c7305514)">
     <use xlink:href="#C3_0_5331f3e94a" x="312.022453" y="240.192184" style="fill: #ff7f0e"/>
    </g>
    <g clip-path="url(#p57c7305514)">
     <use xlink:href="#C3_0_5331f3e94a" x="311.442995" y="288.06648" style="fill: #ff7f0e"/>
    </g>
    <g clip-path="url(#p57c7305514)">
     <use xlink:href="#C3_0_5331f3e94a" x="313.136917" y="157.961805" style="fill: #ff7f0e"/>
    </g>
   </g>
   <g id="line2d_6"/>
   <g id="line2d_7"/>
  </g>
  <g id="legend_1">
   <g id="text_10">
    <!-- time -->
    <g style="fill: #262626" transform="translate(365.045625 168.439844) scale(0.1 -0.1)">
     <use xlink:href="#ArialMT-74"/>
     <use xlink:href="#ArialMT-69" x="27.783203"/>
     <use xlink:href="#ArialMT-6d" x="50"/>
     <use xlink:href="#ArialMT-65" x="133.300781"/>
    </g>
   </g>
   <g id="line2d_8">
    <defs>
     <path id="mb68c88a1c9" d="M 0 2.5 
C 0.663008 2.5 1.29895 2.236584 1.767767 1.767767 
C 2.236584 1.29895 2.5 0.663008 2.5 0 
C 2.5 -0.663008 2.236584 -1.29895 1.767767 -1.767767 
C 1.29895 -2.236584 0.663008 -2.5 0 -2.5 
C -0.663008 -2.5 -1.29895 -2.236584 -1.767767 -1.767767 
C -2.236584 -1.29895 -2.5 -0.663008 -2.5 0 
C -2.5 0.663008 -2.236584 1.29895 -1.767767 1.767767 
C -1.29895 2.236584 -0.663008 2.5 0 2.5 
z
"/>
    </defs>
    <g>
     <use xlink:href="#mb68c88a1c9" x="369.101875" y="179.085156" style="fill: #1f77b4"/>
    </g>
   </g>
   <g id="text_11">
    <!-- i -->
    <g style="fill: #262626" transform="translate(387.101875 182.585156) scale(0.1 -0.1)">
     <use xlink:href="#ArialMT-69"/>
    </g>
   </g>
   <g id="line2d_9">
    <defs>
     <path id="m5a700772db" d="M 0 2.5 
C 0.663008 2.5 1.29895 2.236584 1.767767 1.767767 
C 2.236584 1.29895 2.5 0.663008 2.5 0 
C 2.5 -0.663008 2.236584 -1.29895 1.767767 -1.767767 
C 1.29895 -2.236584 0.663008 -2.5 0 -2.5 
C -0.663008 -2.5 -1.29895 -2.236584 -1.767767 -1.767767 
C -2.236584 -1.29895 -2.5 -0.663008 -2.5 0 
C -2.5 0.663008 -2.236584 1.29895 -1.767767 1.767767 
C -1.29895 2.236584 -0.663008 2.5 0 2.5 
z
"/>
    </defs>
    <g>
     <use xlink:href="#m5a700772db" x="369.101875" y="193.230469" style="fill: #ff7f0e"/>
    </g>
   </g>
   <g id="text_12">
    <!-- f -->
    <g style="fill: #262626" transform="translate(387.101875 196.730469) scale(0.1 -0.1)">
     <use xlink:href="#ArialMT-66"/>
    </g>
   </g>
  </g>
 </g>
 <defs>
  <clipPath id="p57c7305514">
   <rect x="53.983145" y="10.8" width="302.028055" height="307.24"/>
  </clipPath>
 </defs>
</svg>
