<?xml version="1.0" encoding="utf-8" standalone="no"?>
<!DOCTYPE svg PUBLIC "-//W3C//DTD SVG 1.1//EN"
  "http://www.w3.org/Graphics/SVG/1.1/DTD/svg11.dtd">
<svg xmlns:xlink="http://www.w3.org/1999/xlink" width="398.88pt" height="360pt" viewBox="0 0 398.88 360" xmlns="http://www.w3.org/2000/svg" version="1.1">
 <metadata>
  <rdf:RDF xmlns:dc="http://purl.org/dc/elements/1.1/" xmlns:cc="http://creativecommons.org/ns#" xmlns:rdf="http://www.w3.org/1999/02/22-rdf-syntax-ns#">
   <cc:Work>
    <dc:type rdf:resource="http://purl.org/dc/dcmitype/StillImage"/>
    <dc:date>2024-09-11T03:30:57.944636</dc:date>
    <dc:format>image/svg+xml</dc:format>
    <dc:creator>
     <cc:Agent>
      <dc:title>Matplotlib v3.8.3, https://matplotlib.org/</dc:title>
     </cc:Agent>
    </dc:creator>
   </cc:Work>
  </rdf:RDF>
 </metadata>
 <defs>
  <style type="text/css">*{stroke-linejoin: round; stroke-linecap: butt}</style>
 </defs>
 <g id="figure_1">
  <g id="patch_1">
   <path d="M 0 360 
L 398.88 360 
L 398.88 0 
L 0 0 
z
" style="fill: #ffffff"/>
  </g>
  <g id="axes_1">
   <g id="patch_2">
    <path d="M 41.617865 318.04 
L 356.0112 318.04 
L 356.0112 10.8 
L 41.617865 10.8 
z
" style="fill: #ffffff"/>
   </g>
   <g id="matplotlib.axis_1">
    <g id="xtick_1">
     <g id="text_1">
      <!-- f -->
      <g style="fill: #262626" transform="translate(118.827136 332.197812) scale(0.1 -0.1)">
       <defs>
        <path id="ArialMT-66" d="M 556 0 
L 556 2881 
L 59 2881 
L 59 3319 
L 556 3319 
L 556 3672 
Q 556 4006 616 4169 
Q 697 4388 901 4523 
Q 1106 4659 1475 4659 
Q 1713 4659 2000 4603 
L 1916 4113 
Q 1741 4144 1584 4144 
Q 1328 4144 1222 4034 
Q 1116 3925 1116 3625 
L 1116 3319 
L 1763 3319 
L 1763 2881 
L 1116 2881 
L 1116 0 
L 556 0 
z
" transform="scale(0.015625)"/>
       </defs>
       <use xlink:href="#ArialMT-66"/>
      </g>
     </g>
    </g>
    <g id="xtick_2">
     <g id="text_2">
      <!-- m -->
      <g style="fill: #262626" transform="translate(273.248022 332.197812) scale(0.1 -0.1)">
       <defs>
        <path id="ArialMT-6d" d="M 422 0 
L 422 3319 
L 925 3319 
L 925 2853 
Q 1081 3097 1340 3245 
Q 1600 3394 1931 3394 
Q 2300 3394 2536 3241 
Q 2772 3088 2869 2813 
Q 3263 3394 3894 3394 
Q 4388 3394 4653 3120 
Q 4919 2847 4919 2278 
L 4919 0 
L 4359 0 
L 4359 2091 
Q 4359 2428 4304 2576 
Q 4250 2725 4106 2815 
Q 3963 2906 3769 2906 
Q 3419 2906 3187 2673 
Q 2956 2441 2956 1928 
L 2956 0 
L 2394 0 
L 2394 2156 
Q 2394 2531 2256 2718 
Q 2119 2906 1806 2906 
Q 1569 2906 1367 2781 
Q 1166 2656 1075 2415 
Q 984 2175 984 1722 
L 984 0 
L 422 0 
z
" transform="scale(0.015625)"/>
       </defs>
       <use xlink:href="#ArialMT-6d"/>
      </g>
     </g>
    </g>
    <g id="text_3">
     <!-- sex -->
     <g style="fill: #262626" transform="translate(191.034064 345.343125) scale(0.1 -0.1)">
      <defs>
       <path id="ArialMT-73" d="M 197 991 
L 753 1078 
Q 800 744 1014 566 
Q 1228 388 1613 388 
Q 2000 388 2187 545 
Q 2375 703 2375 916 
Q 2375 1106 2209 1216 
Q 2094 1291 1634 1406 
Q 1016 1563 777 1677 
Q 538 1791 414 1992 
Q 291 2194 291 2438 
Q 291 2659 392 2848 
Q 494 3038 669 3163 
Q 800 3259 1026 3326 
Q 1253 3394 1513 3394 
Q 1903 3394 2198 3281 
Q 2494 3169 2634 2976 
Q 2775 2784 2828 2463 
L 2278 2388 
Q 2241 2644 2061 2787 
Q 1881 2931 1553 2931 
Q 1166 2931 1000 2803 
Q 834 2675 834 2503 
Q 834 2394 903 2306 
Q 972 2216 1119 2156 
Q 1203 2125 1616 2013 
Q 2213 1853 2448 1751 
Q 2684 1650 2818 1456 
Q 2953 1263 2953 975 
Q 2953 694 2789 445 
Q 2625 197 2315 61 
Q 2006 -75 1616 -75 
Q 969 -75 630 194 
Q 291 463 197 991 
z
" transform="scale(0.015625)"/>
       <path id="ArialMT-65" d="M 2694 1069 
L 3275 997 
Q 3138 488 2766 206 
Q 2394 -75 1816 -75 
Q 1088 -75 661 373 
Q 234 822 234 1631 
Q 234 2469 665 2931 
Q 1097 3394 1784 3394 
Q 2450 3394 2872 2941 
Q 3294 2488 3294 1666 
Q 3294 1616 3291 1516 
L 816 1516 
Q 847 969 1125 678 
Q 1403 388 1819 388 
Q 2128 388 2347 550 
Q 2566 713 2694 1069 
z
M 847 1978 
L 2700 1978 
Q 2663 2397 2488 2606 
Q 2219 2931 1791 2931 
Q 1403 2931 1139 2672 
Q 875 2413 847 1978 
z
" transform="scale(0.015625)"/>
       <path id="ArialMT-78" d="M 47 0 
L 1259 1725 
L 138 3319 
L 841 3319 
L 1350 2541 
Q 1494 2319 1581 2169 
Q 1719 2375 1834 2534 
L 2394 3319 
L 3066 3319 
L 1919 1756 
L 3153 0 
L 2463 0 
L 1781 1031 
L 1600 1309 
L 728 0 
L 47 0 
z
" transform="scale(0.015625)"/>
      </defs>
      <use xlink:href="#ArialMT-73"/>
      <use xlink:href="#ArialMT-65" x="50"/>
      <use xlink:href="#ArialMT-78" x="105.615234"/>
     </g>
    </g>
   </g>
   <g id="matplotlib.axis_2">
    <g id="ytick_1">
     <g id="line2d_1">
      <path d="M 41.617865 270.869416 
L 356.0112 270.869416 
" clip-path="url(#pc988973de0)" style="fill: none; stroke: #cccccc; stroke-width: 0.8; stroke-linecap: round"/>
     </g>
     <g id="text_4">
      <!-- 3 -->
      <g style="fill: #262626" transform="translate(29.056927 274.448322) scale(0.1 -0.1)">
       <defs>
        <path id="ArialMT-33" d="M 269 1209 
L 831 1284 
Q 928 806 1161 595 
Q 1394 384 1728 384 
Q 2125 384 2398 659 
Q 2672 934 2672 1341 
Q 2672 1728 2419 1979 
Q 2166 2231 1775 2231 
Q 1616 2231 1378 2169 
L 1441 2663 
Q 1497 2656 1531 2656 
Q 1891 2656 2178 2843 
Q 2466 3031 2466 3422 
Q 2466 3731 2256 3934 
Q 2047 4138 1716 4138 
Q 1388 4138 1169 3931 
Q 950 3725 888 3313 
L 325 3413 
Q 428 3978 793 4289 
Q 1159 4600 1703 4600 
Q 2078 4600 2393 4439 
Q 2709 4278 2876 4000 
Q 3044 3722 3044 3409 
Q 3044 3113 2884 2869 
Q 2725 2625 2413 2481 
Q 2819 2388 3044 2092 
Q 3269 1797 3269 1353 
Q 3269 753 2831 336 
Q 2394 -81 1725 -81 
Q 1122 -81 723 278 
Q 325 638 269 1209 
z
" transform="scale(0.015625)"/>
       </defs>
       <use xlink:href="#ArialMT-33"/>
      </g>
     </g>
    </g>
    <g id="ytick_2">
     <g id="line2d_2">
      <path d="M 41.617865 210.266988 
L 356.0112 210.266988 
" clip-path="url(#pc988973de0)" style="fill: none; stroke: #cccccc; stroke-width: 0.8; stroke-linecap: round"/>
     </g>
     <g id="text_5">
      <!-- 4 -->
      <g style="fill: #262626" transform="translate(29.056927 213.845895) scale(0.1 -0.1)">
       <defs>
        <path id="ArialMT-34" d="M 2069 0 
L 2069 1097 
L 81 1097 
L 81 1613 
L 2172 4581 
L 2631 4581 
L 2631 1613 
L 3250 1613 
L 3250 1097 
L 2631 1097 
L 2631 0 
L 2069 0 
z
M 2069 1613 
L 2069 3678 
L 634 1613 
L 2069 1613 
z
" transform="scale(0.015625)"/>
       </defs>
       <use xlink:href="#ArialMT-34"/>
      </g>
     </g>
    </g>
    <g id="ytick_3">
     <g id="line2d_3">
      <path d="M 41.617865 149.664561 
L 356.0112 149.664561 
" clip-path="url(#pc988973de0)" style="fill: none; stroke: #cccccc; stroke-width: 0.8; stroke-linecap: round"/>
     </g>
     <g id="text_6">
      <!-- 5 -->
      <g style="fill: #262626" transform="translate(29.056927 153.243467) scale(0.1 -0.1)">
       <defs>
        <path id="ArialMT-35" d="M 266 1200 
L 856 1250 
Q 922 819 1161 601 
Q 1400 384 1738 384 
Q 2144 384 2425 690 
Q 2706 997 2706 1503 
Q 2706 1984 2436 2262 
Q 2166 2541 1728 2541 
Q 1456 2541 1237 2417 
Q 1019 2294 894 2097 
L 366 2166 
L 809 4519 
L 3088 4519 
L 3088 3981 
L 1259 3981 
L 1013 2750 
Q 1425 3038 1878 3038 
Q 2478 3038 2890 2622 
Q 3303 2206 3303 1553 
Q 3303 931 2941 478 
Q 2500 -78 1738 -78 
Q 1113 -78 717 272 
Q 322 622 266 1200 
z
" transform="scale(0.015625)"/>
       </defs>
       <use xlink:href="#ArialMT-35"/>
      </g>
     </g>
    </g>
    <g id="ytick_4">
     <g id="line2d_4">
      <path d="M 41.617865 89.062133 
L 356.0112 89.062133 
" clip-path="url(#pc988973de0)" style="fill: none; stroke: #cccccc; stroke-width: 0.8; stroke-linecap: round"/>
     </g>
     <g id="text_7">
      <!-- 6 -->
      <g style="fill: #262626" transform="translate(29.056927 92.64104) scale(0.1 -0.1)">
       <defs>
        <path id="ArialMT-36" d="M 3184 3459 
L 2625 3416 
Q 2550 3747 2413 3897 
Q 2184 4138 1850 4138 
Q 1581 4138 1378 3988 
Q 1113 3794 959 3422 
Q 806 3050 800 2363 
Q 1003 2672 1297 2822 
Q 1591 2972 1913 2972 
Q 2475 2972 2870 2558 
Q 3266 2144 3266 1488 
Q 3266 1056 3080 686 
Q 2894 316 2569 119 
Q 2244 -78 1831 -78 
Q 1128 -78 684 439 
Q 241 956 241 2144 
Q 241 3472 731 4075 
Q 1159 4600 1884 4600 
Q 2425 4600 2770 4297 
Q 3116 3994 3184 3459 
z
M 888 1484 
Q 888 1194 1011 928 
Q 1134 663 1356 523 
Q 1578 384 1822 384 
Q 2178 384 2434 671 
Q 2691 959 2691 1453 
Q 2691 1928 2437 2201 
Q 2184 2475 1800 2475 
Q 1419 2475 1153 2201 
Q 888 1928 888 1484 
z
" transform="scale(0.015625)"/>
       </defs>
       <use xlink:href="#ArialMT-36"/>
      </g>
     </g>
    </g>
    <g id="ytick_5">
     <g id="line2d_5">
      <path d="M 41.617865 28.459706 
L 356.0112 28.459706 
" clip-path="url(#pc988973de0)" style="fill: none; stroke: #cccccc; stroke-width: 0.8; stroke-linecap: round"/>
     </g>
     <g id="text_8">
      <!-- 7 -->
      <g style="fill: #262626" transform="translate(29.056927 32.038612) scale(0.1 -0.1)">
       <defs>
        <path id="ArialMT-37" d="M 303 3981 
L 303 4522 
L 3269 4522 
L 3269 4084 
Q 2831 3619 2401 2847 
Q 1972 2075 1738 1259 
Q 1569 684 1522 0 
L 944 0 
Q 953 541 1156 1306 
Q 1359 2072 1739 2783 
Q 2119 3494 2547 3981 
L 303 3981 
z
" transform="scale(0.015625)"/>
       </defs>
       <use xlink:href="#ArialMT-37"/>
      </g>
     </g>
    </g>
    <g id="text_9">
     <!-- Metabolic equivalent of task (MET) (3.5ml/kg/min) -->
     <g style="fill: #262626" transform="translate(22.95224 274.449688) rotate(-90) scale(0.1 -0.1)">
      <defs>
       <path id="ArialMT-4d" d="M 475 0 
L 475 4581 
L 1388 4581 
L 2472 1338 
Q 2622 884 2691 659 
Q 2769 909 2934 1394 
L 4031 4581 
L 4847 4581 
L 4847 0 
L 4263 0 
L 4263 3834 
L 2931 0 
L 2384 0 
L 1059 3900 
L 1059 0 
L 475 0 
z
" transform="scale(0.015625)"/>
       <path id="ArialMT-74" d="M 1650 503 
L 1731 6 
Q 1494 -44 1306 -44 
Q 1000 -44 831 53 
Q 663 150 594 308 
Q 525 466 525 972 
L 525 2881 
L 113 2881 
L 113 3319 
L 525 3319 
L 525 4141 
L 1084 4478 
L 1084 3319 
L 1650 3319 
L 1650 2881 
L 1084 2881 
L 1084 941 
Q 1084 700 1114 631 
Q 1144 563 1211 522 
Q 1278 481 1403 481 
Q 1497 481 1650 503 
z
" transform="scale(0.015625)"/>
       <path id="ArialMT-61" d="M 2588 409 
Q 2275 144 1986 34 
Q 1697 -75 1366 -75 
Q 819 -75 525 192 
Q 231 459 231 875 
Q 231 1119 342 1320 
Q 453 1522 633 1644 
Q 813 1766 1038 1828 
Q 1203 1872 1538 1913 
Q 2219 1994 2541 2106 
Q 2544 2222 2544 2253 
Q 2544 2597 2384 2738 
Q 2169 2928 1744 2928 
Q 1347 2928 1158 2789 
Q 969 2650 878 2297 
L 328 2372 
Q 403 2725 575 2942 
Q 747 3159 1072 3276 
Q 1397 3394 1825 3394 
Q 2250 3394 2515 3294 
Q 2781 3194 2906 3042 
Q 3031 2891 3081 2659 
Q 3109 2516 3109 2141 
L 3109 1391 
Q 3109 606 3145 398 
Q 3181 191 3288 0 
L 2700 0 
Q 2613 175 2588 409 
z
M 2541 1666 
Q 2234 1541 1622 1453 
Q 1275 1403 1131 1340 
Q 988 1278 909 1158 
Q 831 1038 831 891 
Q 831 666 1001 516 
Q 1172 366 1500 366 
Q 1825 366 2078 508 
Q 2331 650 2450 897 
Q 2541 1088 2541 1459 
L 2541 1666 
z
" transform="scale(0.015625)"/>
       <path id="ArialMT-62" d="M 941 0 
L 419 0 
L 419 4581 
L 981 4581 
L 981 2947 
Q 1338 3394 1891 3394 
Q 2197 3394 2470 3270 
Q 2744 3147 2920 2923 
Q 3097 2700 3197 2384 
Q 3297 2069 3297 1709 
Q 3297 856 2875 390 
Q 2453 -75 1863 -75 
Q 1275 -75 941 416 
L 941 0 
z
M 934 1684 
Q 934 1088 1097 822 
Q 1363 388 1816 388 
Q 2184 388 2453 708 
Q 2722 1028 2722 1663 
Q 2722 2313 2464 2622 
Q 2206 2931 1841 2931 
Q 1472 2931 1203 2611 
Q 934 2291 934 1684 
z
" transform="scale(0.015625)"/>
       <path id="ArialMT-6f" d="M 213 1659 
Q 213 2581 725 3025 
Q 1153 3394 1769 3394 
Q 2453 3394 2887 2945 
Q 3322 2497 3322 1706 
Q 3322 1066 3130 698 
Q 2938 331 2570 128 
Q 2203 -75 1769 -75 
Q 1072 -75 642 372 
Q 213 819 213 1659 
z
M 791 1659 
Q 791 1022 1069 705 
Q 1347 388 1769 388 
Q 2188 388 2466 706 
Q 2744 1025 2744 1678 
Q 2744 2294 2464 2611 
Q 2184 2928 1769 2928 
Q 1347 2928 1069 2612 
Q 791 2297 791 1659 
z
" transform="scale(0.015625)"/>
       <path id="ArialMT-6c" d="M 409 0 
L 409 4581 
L 972 4581 
L 972 0 
L 409 0 
z
" transform="scale(0.015625)"/>
       <path id="ArialMT-69" d="M 425 3934 
L 425 4581 
L 988 4581 
L 988 3934 
L 425 3934 
z
M 425 0 
L 425 3319 
L 988 3319 
L 988 0 
L 425 0 
z
" transform="scale(0.015625)"/>
       <path id="ArialMT-63" d="M 2588 1216 
L 3141 1144 
Q 3050 572 2676 248 
Q 2303 -75 1759 -75 
Q 1078 -75 664 370 
Q 250 816 250 1647 
Q 250 2184 428 2587 
Q 606 2991 970 3192 
Q 1334 3394 1763 3394 
Q 2303 3394 2647 3120 
Q 2991 2847 3088 2344 
L 2541 2259 
Q 2463 2594 2264 2762 
Q 2066 2931 1784 2931 
Q 1359 2931 1093 2626 
Q 828 2322 828 1663 
Q 828 994 1084 691 
Q 1341 388 1753 388 
Q 2084 388 2306 591 
Q 2528 794 2588 1216 
z
" transform="scale(0.015625)"/>
       <path id="ArialMT-20" transform="scale(0.015625)"/>
       <path id="ArialMT-71" d="M 2538 -1272 
L 2538 353 
Q 2406 169 2170 47 
Q 1934 -75 1669 -75 
Q 1078 -75 651 397 
Q 225 869 225 1691 
Q 225 2191 398 2587 
Q 572 2984 901 3189 
Q 1231 3394 1625 3394 
Q 2241 3394 2594 2875 
L 2594 3319 
L 3100 3319 
L 3100 -1272 
L 2538 -1272 
z
M 803 1669 
Q 803 1028 1072 708 
Q 1341 388 1716 388 
Q 2075 388 2334 692 
Q 2594 997 2594 1619 
Q 2594 2281 2320 2615 
Q 2047 2950 1678 2950 
Q 1313 2950 1058 2639 
Q 803 2328 803 1669 
z
" transform="scale(0.015625)"/>
       <path id="ArialMT-75" d="M 2597 0 
L 2597 488 
Q 2209 -75 1544 -75 
Q 1250 -75 995 37 
Q 741 150 617 320 
Q 494 491 444 738 
Q 409 903 409 1263 
L 409 3319 
L 972 3319 
L 972 1478 
Q 972 1038 1006 884 
Q 1059 663 1231 536 
Q 1403 409 1656 409 
Q 1909 409 2131 539 
Q 2353 669 2445 892 
Q 2538 1116 2538 1541 
L 2538 3319 
L 3100 3319 
L 3100 0 
L 2597 0 
z
" transform="scale(0.015625)"/>
       <path id="ArialMT-76" d="M 1344 0 
L 81 3319 
L 675 3319 
L 1388 1331 
Q 1503 1009 1600 663 
Q 1675 925 1809 1294 
L 2547 3319 
L 3125 3319 
L 1869 0 
L 1344 0 
z
" transform="scale(0.015625)"/>
       <path id="ArialMT-6e" d="M 422 0 
L 422 3319 
L 928 3319 
L 928 2847 
Q 1294 3394 1984 3394 
Q 2284 3394 2536 3286 
Q 2788 3178 2913 3003 
Q 3038 2828 3088 2588 
Q 3119 2431 3119 2041 
L 3119 0 
L 2556 0 
L 2556 2019 
Q 2556 2363 2490 2533 
Q 2425 2703 2258 2804 
Q 2091 2906 1866 2906 
Q 1506 2906 1245 2678 
Q 984 2450 984 1813 
L 984 0 
L 422 0 
z
" transform="scale(0.015625)"/>
       <path id="ArialMT-6b" d="M 425 0 
L 425 4581 
L 988 4581 
L 988 1969 
L 2319 3319 
L 3047 3319 
L 1778 2088 
L 3175 0 
L 2481 0 
L 1384 1697 
L 988 1316 
L 988 0 
L 425 0 
z
" transform="scale(0.015625)"/>
       <path id="ArialMT-28" d="M 1497 -1347 
Q 1031 -759 709 28 
Q 388 816 388 1659 
Q 388 2403 628 3084 
Q 909 3875 1497 4659 
L 1900 4659 
Q 1522 4009 1400 3731 
Q 1209 3300 1100 2831 
Q 966 2247 966 1656 
Q 966 153 1900 -1347 
L 1497 -1347 
z
" transform="scale(0.015625)"/>
       <path id="ArialMT-45" d="M 506 0 
L 506 4581 
L 3819 4581 
L 3819 4041 
L 1113 4041 
L 1113 2638 
L 3647 2638 
L 3647 2100 
L 1113 2100 
L 1113 541 
L 3925 541 
L 3925 0 
L 506 0 
z
" transform="scale(0.015625)"/>
       <path id="ArialMT-54" d="M 1659 0 
L 1659 4041 
L 150 4041 
L 150 4581 
L 3781 4581 
L 3781 4041 
L 2266 4041 
L 2266 0 
L 1659 0 
z
" transform="scale(0.015625)"/>
       <path id="ArialMT-29" d="M 791 -1347 
L 388 -1347 
Q 1322 153 1322 1656 
Q 1322 2244 1188 2822 
Q 1081 3291 891 3722 
Q 769 4003 388 4659 
L 791 4659 
Q 1378 3875 1659 3084 
Q 1900 2403 1900 1659 
Q 1900 816 1576 28 
Q 1253 -759 791 -1347 
z
" transform="scale(0.015625)"/>
       <path id="ArialMT-2e" d="M 581 0 
L 581 641 
L 1222 641 
L 1222 0 
L 581 0 
z
" transform="scale(0.015625)"/>
       <path id="ArialMT-2f" d="M 0 -78 
L 1328 4659 
L 1778 4659 
L 453 -78 
L 0 -78 
z
" transform="scale(0.015625)"/>
       <path id="ArialMT-67" d="M 319 -275 
L 866 -356 
Q 900 -609 1056 -725 
Q 1266 -881 1628 -881 
Q 2019 -881 2231 -725 
Q 2444 -569 2519 -288 
Q 2563 -116 2559 434 
Q 2191 0 1641 0 
Q 956 0 581 494 
Q 206 988 206 1678 
Q 206 2153 378 2554 
Q 550 2956 876 3175 
Q 1203 3394 1644 3394 
Q 2231 3394 2613 2919 
L 2613 3319 
L 3131 3319 
L 3131 450 
Q 3131 -325 2973 -648 
Q 2816 -972 2473 -1159 
Q 2131 -1347 1631 -1347 
Q 1038 -1347 672 -1080 
Q 306 -813 319 -275 
z
M 784 1719 
Q 784 1066 1043 766 
Q 1303 466 1694 466 
Q 2081 466 2343 764 
Q 2606 1063 2606 1700 
Q 2606 2309 2336 2618 
Q 2066 2928 1684 2928 
Q 1309 2928 1046 2623 
Q 784 2319 784 1719 
z
" transform="scale(0.015625)"/>
      </defs>
      <use xlink:href="#ArialMT-4d"/>
      <use xlink:href="#ArialMT-65" x="83.300781"/>
      <use xlink:href="#ArialMT-74" x="138.916016"/>
      <use xlink:href="#ArialMT-61" x="166.699219"/>
      <use xlink:href="#ArialMT-62" x="222.314453"/>
      <use xlink:href="#ArialMT-6f" x="277.929688"/>
      <use xlink:href="#ArialMT-6c" x="333.544922"/>
      <use xlink:href="#ArialMT-69" x="355.761719"/>
      <use xlink:href="#ArialMT-63" x="377.978516"/>
      <use xlink:href="#ArialMT-20" x="427.978516"/>
      <use xlink:href="#ArialMT-65" x="455.761719"/>
      <use xlink:href="#ArialMT-71" x="511.376953"/>
      <use xlink:href="#ArialMT-75" x="566.992188"/>
      <use xlink:href="#ArialMT-69" x="622.607422"/>
      <use xlink:href="#ArialMT-76" x="644.824219"/>
      <use xlink:href="#ArialMT-61" x="694.824219"/>
      <use xlink:href="#ArialMT-6c" x="750.439453"/>
      <use xlink:href="#ArialMT-65" x="772.65625"/>
      <use xlink:href="#ArialMT-6e" x="828.271484"/>
      <use xlink:href="#ArialMT-74" x="883.886719"/>
      <use xlink:href="#ArialMT-20" x="911.669922"/>
      <use xlink:href="#ArialMT-6f" x="939.453125"/>
      <use xlink:href="#ArialMT-66" x="995.068359"/>
      <use xlink:href="#ArialMT-20" x="1022.851562"/>
      <use xlink:href="#ArialMT-74" x="1050.634766"/>
      <use xlink:href="#ArialMT-61" x="1078.417969"/>
      <use xlink:href="#ArialMT-73" x="1134.033203"/>
      <use xlink:href="#ArialMT-6b" x="1184.033203"/>
      <use xlink:href="#ArialMT-20" x="1234.033203"/>
      <use xlink:href="#ArialMT-28" x="1261.816406"/>
      <use xlink:href="#ArialMT-4d" x="1295.117188"/>
      <use xlink:href="#ArialMT-45" x="1378.417969"/>
      <use xlink:href="#ArialMT-54" x="1445.117188"/>
      <use xlink:href="#ArialMT-29" x="1506.201172"/>
      <use xlink:href="#ArialMT-20" x="1539.501953"/>
      <use xlink:href="#ArialMT-28" x="1567.285156"/>
      <use xlink:href="#ArialMT-33" x="1600.585938"/>
      <use xlink:href="#ArialMT-2e" x="1656.201172"/>
      <use xlink:href="#ArialMT-35" x="1683.984375"/>
      <use xlink:href="#ArialMT-6d" x="1739.599609"/>
      <use xlink:href="#ArialMT-6c" x="1822.900391"/>
      <use xlink:href="#ArialMT-2f" x="1845.117188"/>
      <use xlink:href="#ArialMT-6b" x="1872.900391"/>
      <use xlink:href="#ArialMT-67" x="1922.900391"/>
      <use xlink:href="#ArialMT-2f" x="1978.515625"/>
      <use xlink:href="#ArialMT-6d" x="2006.298828"/>
      <use xlink:href="#ArialMT-69" x="2089.599609"/>
      <use xlink:href="#ArialMT-6e" x="2111.816406"/>
      <use xlink:href="#ArialMT-29" x="2167.431641"/>
     </g>
    </g>
   </g>
   <g id="patch_3">
    <path d="M 41.617865 318.04 
L 41.617865 10.8 
" style="fill: none; stroke: #cccccc; stroke-width: 0.8; stroke-linejoin: miter; stroke-linecap: square"/>
   </g>
   <g id="patch_4">
    <path d="M 41.617865 318.04 
L 356.0112 318.04 
" style="fill: none; stroke: #cccccc; stroke-width: 0.8; stroke-linejoin: miter; stroke-linecap: square"/>
   </g>
   <g id="PathCollection_1">
    <defs>
     <path id="C0_0_6df0dbe03c" d="M 0 2.5 
C 0.663008 2.5 1.29895 2.236584 1.767767 1.767767 
C 2.236584 1.29895 2.5 0.663008 2.5 -0 
C 2.5 -0.663008 2.236584 -1.29895 1.767767 -1.767767 
C 1.29895 -2.236584 0.663008 -2.5 0 -2.5 
C -0.663008 -2.5 -1.29895 -2.236584 -1.767767 -1.767767 
C -2.236584 -1.29895 -2.5 -0.663008 -2.5 0 
C -2.5 0.663008 -2.236584 1.29895 -1.767767 1.767767 
C -1.29895 2.236584 -0.663008 2.5 0 2.5 
z
"/>
    </defs>
    <g clip-path="url(#pc988973de0)">
     <use xlink:href="#C0_0_6df0dbe03c" x="81.964823" y="215.811602" style="fill: #1f77b4"/>
    </g>
    <g clip-path="url(#pc988973de0)">
     <use xlink:href="#C0_0_6df0dbe03c" x="94.128451" y="185.451756" style="fill: #1f77b4"/>
    </g>
    <g clip-path="url(#pc988973de0)">
     <use xlink:href="#C0_0_6df0dbe03c" x="91.585832" y="263.002557" style="fill: #1f77b4"/>
    </g>
    <g clip-path="url(#pc988973de0)">
     <use xlink:href="#C0_0_6df0dbe03c" x="84.72898" y="172.518988" style="fill: #1f77b4"/>
    </g>
    <g clip-path="url(#pc988973de0)">
     <use xlink:href="#C0_0_6df0dbe03c" x="87.492565" y="238.071302" style="fill: #1f77b4"/>
    </g>
    <g clip-path="url(#pc988973de0)">
     <use xlink:href="#C0_0_6df0dbe03c" x="82.353938" y="150.949046" style="fill: #1f77b4"/>
    </g>
    <g clip-path="url(#pc988973de0)">
     <use xlink:href="#C0_0_6df0dbe03c" x="94.857031" y="215.068871" style="fill: #1f77b4"/>
    </g>
    <g clip-path="url(#pc988973de0)">
     <use xlink:href="#C0_0_6df0dbe03c" x="88.91386" y="253.981331" style="fill: #1f77b4"/>
    </g>
    <g clip-path="url(#pc988973de0)">
     <use xlink:href="#C0_0_6df0dbe03c" x="83.795031" y="254.581256" style="fill: #1f77b4"/>
    </g>
    <g clip-path="url(#pc988973de0)">
     <use xlink:href="#C0_0_6df0dbe03c" x="85.520561" y="176.642228" style="fill: #1f77b4"/>
    </g>
    <g clip-path="url(#pc988973de0)">
     <use xlink:href="#C0_0_6df0dbe03c" x="89.234793" y="177.254107" style="fill: #1f77b4"/>
    </g>
    <g clip-path="url(#pc988973de0)">
     <use xlink:href="#C0_0_6df0dbe03c" x="93.064334" y="234.202259" style="fill: #1f77b4"/>
    </g>
    <g clip-path="url(#pc988973de0)">
     <use xlink:href="#C0_0_6df0dbe03c" x="84.345193" y="191.895298" style="fill: #1f77b4"/>
    </g>
    <g clip-path="url(#pc988973de0)">
     <use xlink:href="#C0_0_6df0dbe03c" x="93.423393" y="270.745092" style="fill: #1f77b4"/>
    </g>
    <g clip-path="url(#pc988973de0)">
     <use xlink:href="#C0_0_6df0dbe03c" x="82.782126" y="133.813111" style="fill: #1f77b4"/>
    </g>
   </g>
   <g id="PathCollection_2">
    <defs>
     <path id="C1_0_f4fdc0ed2a" d="M 0 2.5 
C 0.663008 2.5 1.29895 2.236584 1.767767 1.767767 
C 2.236584 1.29895 2.5 0.663008 2.5 -0 
C 2.5 -0.663008 2.236584 -1.29895 1.767767 -1.767767 
C 1.29895 -2.236584 0.663008 -2.5 0 -2.5 
C -0.663008 -2.5 -1.29895 -2.236584 -1.767767 -1.767767 
C -2.236584 -1.29895 -2.5 -0.663008 -2.5 0 
C -2.5 0.663008 -2.236584 1.29895 -1.767767 1.767767 
C -1.29895 2.236584 -0.663008 2.5 0 2.5 
z
"/>
    </defs>
    <g clip-path="url(#pc988973de0)">
     <use xlink:href="#C1_0_f4fdc0ed2a" x="153.342838" y="195.450016" style="fill: #ff7f0e"/>
    </g>
    <g clip-path="url(#pc988973de0)">
     <use xlink:href="#C1_0_f4fdc0ed2a" x="154.24771" y="182.805845" style="fill: #ff7f0e"/>
    </g>
    <g clip-path="url(#pc988973de0)">
     <use xlink:href="#C1_0_f4fdc0ed2a" x="153.283496" y="246.135863" style="fill: #ff7f0e"/>
    </g>
    <g clip-path="url(#pc988973de0)">
     <use xlink:href="#C1_0_f4fdc0ed2a" x="153.446469" y="152.981826" style="fill: #ff7f0e"/>
    </g>
    <g clip-path="url(#pc988973de0)">
     <use xlink:href="#C1_0_f4fdc0ed2a" x="144.09512" y="173.818239" style="fill: #ff7f0e"/>
    </g>
    <g clip-path="url(#pc988973de0)">
     <use xlink:href="#C1_0_f4fdc0ed2a" x="156.125548" y="251.347205" style="fill: #ff7f0e"/>
    </g>
    <g clip-path="url(#pc988973de0)">
     <use xlink:href="#C1_0_f4fdc0ed2a" x="150.438966" y="175.658662" style="fill: #ff7f0e"/>
    </g>
    <g clip-path="url(#pc988973de0)">
     <use xlink:href="#C1_0_f4fdc0ed2a" x="156.387993" y="201.897242" style="fill: #ff7f0e"/>
    </g>
    <g clip-path="url(#pc988973de0)">
     <use xlink:href="#C1_0_f4fdc0ed2a" x="149.393649" y="304.074545" style="fill: #ff7f0e"/>
    </g>
    <g clip-path="url(#pc988973de0)">
     <use xlink:href="#C1_0_f4fdc0ed2a" x="158.700516" y="227.557588" style="fill: #ff7f0e"/>
    </g>
    <g clip-path="url(#pc988973de0)">
     <use xlink:href="#C1_0_f4fdc0ed2a" x="156.305645" y="283.420343" style="fill: #ff7f0e"/>
    </g>
    <g clip-path="url(#pc988973de0)">
     <use xlink:href="#C1_0_f4fdc0ed2a" x="146.987385" y="219.133828" style="fill: #ff7f0e"/>
    </g>
    <g clip-path="url(#pc988973de0)">
     <use xlink:href="#C1_0_f4fdc0ed2a" x="158.407892" y="198.728998" style="fill: #ff7f0e"/>
    </g>
    <g clip-path="url(#pc988973de0)">
     <use xlink:href="#C1_0_f4fdc0ed2a" x="152.197703" y="215.962935" style="fill: #ff7f0e"/>
    </g>
    <g clip-path="url(#pc988973de0)">
     <use xlink:href="#C1_0_f4fdc0ed2a" x="144.973839" y="93.957956" style="fill: #ff7f0e"/>
    </g>
   </g>
   <g id="PathCollection_3">
    <defs>
     <path id="C2_0_83cc3f02ac" d="M 0 2.5 
C 0.663008 2.5 1.29895 2.236584 1.767767 1.767767 
C 2.236584 1.29895 2.5 0.663008 2.5 -0 
C 2.5 -0.663008 2.236584 -1.29895 1.767767 -1.767767 
C 1.29895 -2.236584 0.663008 -2.5 0 -2.5 
C -0.663008 -2.5 -1.29895 -2.236584 -1.767767 -1.767767 
C -2.236584 -1.29895 -2.5 -0.663008 -2.5 0 
C -2.5 0.663008 -2.236584 1.29895 -1.767767 1.767767 
C -1.29895 2.236584 -0.663008 2.5 0 2.5 
z
"/>
    </defs>
    <g clip-path="url(#pc988973de0)">
     <use xlink:href="#C2_0_83cc3f02ac" x="250.67698" y="197.046341" style="fill: #1f77b4"/>
    </g>
    <g clip-path="url(#pc988973de0)">
     <use xlink:href="#C2_0_83cc3f02ac" x="250.044839" y="66.349559" style="fill: #1f77b4"/>
    </g>
    <g clip-path="url(#pc988973de0)">
     <use xlink:href="#C2_0_83cc3f02ac" x="244.802246" y="168.909782" style="fill: #1f77b4"/>
    </g>
    <g clip-path="url(#pc988973de0)">
     <use xlink:href="#C2_0_83cc3f02ac" x="252.03324" y="116.419077" style="fill: #1f77b4"/>
    </g>
    <g clip-path="url(#pc988973de0)">
     <use xlink:href="#C2_0_83cc3f02ac" x="252.693906" y="124.763378" style="fill: #1f77b4"/>
    </g>
    <g clip-path="url(#pc988973de0)">
     <use xlink:href="#C2_0_83cc3f02ac" x="238.183722" y="158.756099" style="fill: #1f77b4"/>
    </g>
    <g clip-path="url(#pc988973de0)">
     <use xlink:href="#C2_0_83cc3f02ac" x="241.226903" y="130.986808" style="fill: #1f77b4"/>
    </g>
    <g clip-path="url(#pc988973de0)">
     <use xlink:href="#C2_0_83cc3f02ac" x="246.247679" y="161.035197" style="fill: #1f77b4"/>
    </g>
    <g clip-path="url(#pc988973de0)">
     <use xlink:href="#C2_0_83cc3f02ac" x="240.298061" y="108.947947" style="fill: #1f77b4"/>
    </g>
    <g clip-path="url(#pc988973de0)">
     <use xlink:href="#C2_0_83cc3f02ac" x="246.231869" y="161.487571" style="fill: #1f77b4"/>
    </g>
    <g clip-path="url(#pc988973de0)">
     <use xlink:href="#C2_0_83cc3f02ac" x="244.983151" y="85.129558" style="fill: #1f77b4"/>
    </g>
    <g clip-path="url(#pc988973de0)">
     <use xlink:href="#C2_0_83cc3f02ac" x="246.976877" y="216.024653" style="fill: #1f77b4"/>
    </g>
    <g clip-path="url(#pc988973de0)">
     <use xlink:href="#C2_0_83cc3f02ac" x="248.34905" y="212.133642" style="fill: #1f77b4"/>
    </g>
    <g clip-path="url(#pc988973de0)">
     <use xlink:href="#C2_0_83cc3f02ac" x="241.19806" y="224.220804" style="fill: #1f77b4"/>
    </g>
    <g clip-path="url(#pc988973de0)">
     <use xlink:href="#C2_0_83cc3f02ac" x="240.303493" y="43.294127" style="fill: #1f77b4"/>
    </g>
    <g clip-path="url(#pc988973de0)">
     <use xlink:href="#C2_0_83cc3f02ac" x="243.061864" y="230.121751" style="fill: #1f77b4"/>
    </g>
    <g clip-path="url(#pc988973de0)">
     <use xlink:href="#C2_0_83cc3f02ac" x="239.411023" y="180.239486" style="fill: #1f77b4"/>
    </g>
    <g clip-path="url(#pc988973de0)">
     <use xlink:href="#C2_0_83cc3f02ac" x="252.3752" y="267.897556" style="fill: #1f77b4"/>
    </g>
    <g clip-path="url(#pc988973de0)">
     <use xlink:href="#C2_0_83cc3f02ac" x="243.992548" y="75.284535" style="fill: #1f77b4"/>
    </g>
    <g clip-path="url(#pc988973de0)">
     <use xlink:href="#C2_0_83cc3f02ac" x="243.223522" y="24.765455" style="fill: #1f77b4"/>
    </g>
    <g clip-path="url(#pc988973de0)">
     <use xlink:href="#C2_0_83cc3f02ac" x="243.572955" y="300.895257" style="fill: #1f77b4"/>
    </g>
    <g clip-path="url(#pc988973de0)">
     <use xlink:href="#C2_0_83cc3f02ac" x="249.766164" y="66.214689" style="fill: #1f77b4"/>
    </g>
    <g clip-path="url(#pc988973de0)">
     <use xlink:href="#C2_0_83cc3f02ac" x="248.367508" y="82.722189" style="fill: #1f77b4"/>
    </g>
    <g clip-path="url(#pc988973de0)">
     <use xlink:href="#C2_0_83cc3f02ac" x="250.405283" y="211.862697" style="fill: #1f77b4"/>
    </g>
   </g>
   <g id="PathCollection_4">
    <defs>
     <path id="C3_0_e444bca1a4" d="M 0 2.5 
C 0.663008 2.5 1.29895 2.236584 1.767767 1.767767 
C 2.236584 1.29895 2.5 0.663008 2.5 -0 
C 2.5 -0.663008 2.236584 -1.29895 1.767767 -1.767767 
C 1.29895 -2.236584 0.663008 -2.5 0 -2.5 
C -0.663008 -2.5 -1.29895 -2.236584 -1.767767 -1.767767 
C -2.236584 -1.29895 -2.5 -0.663008 -2.5 0 
C -2.5 0.663008 -2.236584 1.29895 -1.767767 1.767767 
C -1.29895 2.236584 -0.663008 2.5 0 2.5 
z
"/>
    </defs>
    <g clip-path="url(#pc988973de0)">
     <use xlink:href="#C3_0_e444bca1a4" x="308.727146" y="201.013143" style="fill: #ff7f0e"/>
    </g>
    <g clip-path="url(#pc988973de0)">
     <use xlink:href="#C3_0_e444bca1a4" x="314.735571" y="178.813801" style="fill: #ff7f0e"/>
    </g>
    <g clip-path="url(#pc988973de0)">
     <use xlink:href="#C3_0_e444bca1a4" x="314.240922" y="136.106512" style="fill: #ff7f0e"/>
    </g>
    <g clip-path="url(#pc988973de0)">
     <use xlink:href="#C3_0_e444bca1a4" x="303.346046" y="231.965779" style="fill: #ff7f0e"/>
    </g>
    <g clip-path="url(#pc988973de0)">
     <use xlink:href="#C3_0_e444bca1a4" x="302.679732" y="217.962366" style="fill: #ff7f0e"/>
    </g>
    <g clip-path="url(#pc988973de0)">
     <use xlink:href="#C3_0_e444bca1a4" x="304.024406" y="212.487545" style="fill: #ff7f0e"/>
    </g>
    <g clip-path="url(#pc988973de0)">
     <use xlink:href="#C3_0_e444bca1a4" x="304.821801" y="245.69195" style="fill: #ff7f0e"/>
    </g>
    <g clip-path="url(#pc988973de0)">
     <use xlink:href="#C3_0_e444bca1a4" x="307.02795" y="211.296114" style="fill: #ff7f0e"/>
    </g>
    <g clip-path="url(#pc988973de0)">
     <use xlink:href="#C3_0_e444bca1a4" x="303.353687" y="187.724401" style="fill: #ff7f0e"/>
    </g>
    <g clip-path="url(#pc988973de0)">
     <use xlink:href="#C3_0_e444bca1a4" x="315.302169" y="138.132773" style="fill: #ff7f0e"/>
    </g>
    <g clip-path="url(#pc988973de0)">
     <use xlink:href="#C3_0_e444bca1a4" x="316.655502" y="159.812335" style="fill: #ff7f0e"/>
    </g>
    <g clip-path="url(#pc988973de0)">
     <use xlink:href="#C3_0_e444bca1a4" x="314.468357" y="268.239687" style="fill: #ff7f0e"/>
    </g>
    <g clip-path="url(#pc988973de0)">
     <use xlink:href="#C3_0_e444bca1a4" x="316.400709" y="245.167268" style="fill: #ff7f0e"/>
    </g>
    <g clip-path="url(#pc988973de0)">
     <use xlink:href="#C3_0_e444bca1a4" x="312.089126" y="271.069004" style="fill: #ff7f0e"/>
    </g>
    <g clip-path="url(#pc988973de0)">
     <use xlink:href="#C3_0_e444bca1a4" x="305.531976" y="193.850546" style="fill: #ff7f0e"/>
    </g>
    <g clip-path="url(#pc988973de0)">
     <use xlink:href="#C3_0_e444bca1a4" x="305.197923" y="160.968716" style="fill: #ff7f0e"/>
    </g>
    <g clip-path="url(#pc988973de0)">
     <use xlink:href="#C3_0_e444bca1a4" x="312.865316" y="170.871877" style="fill: #ff7f0e"/>
    </g>
    <g clip-path="url(#pc988973de0)">
     <use xlink:href="#C3_0_e444bca1a4" x="304.910108" y="261.415166" style="fill: #ff7f0e"/>
    </g>
    <g clip-path="url(#pc988973de0)">
     <use xlink:href="#C3_0_e444bca1a4" x="313.252245" y="251.448498" style="fill: #ff7f0e"/>
    </g>
    <g clip-path="url(#pc988973de0)">
     <use xlink:href="#C3_0_e444bca1a4" x="307.241678" y="209.609517" style="fill: #ff7f0e"/>
    </g>
    <g clip-path="url(#pc988973de0)">
     <use xlink:href="#C3_0_e444bca1a4" x="306.97254" y="123.151163" style="fill: #ff7f0e"/>
    </g>
    <g clip-path="url(#pc988973de0)">
     <use xlink:href="#C3_0_e444bca1a4" x="304.240131" y="157.487098" style="fill: #ff7f0e"/>
    </g>
    <g clip-path="url(#pc988973de0)">
     <use xlink:href="#C3_0_e444bca1a4" x="302.164754" y="137.464353" style="fill: #ff7f0e"/>
    </g>
    <g clip-path="url(#pc988973de0)">
     <use xlink:href="#C3_0_e444bca1a4" x="307.150597" y="95.06573" style="fill: #ff7f0e"/>
    </g>
   </g>
   <g id="line2d_6"/>
   <g id="line2d_7"/>
  </g>
  <g id="legend_1">
   <g id="text_10">
    <!-- time -->
    <g style="fill: #262626" transform="translate(365.045625 168.439844) scale(0.1 -0.1)">
     <use xlink:href="#ArialMT-74"/>
     <use xlink:href="#ArialMT-69" x="27.783203"/>
     <use xlink:href="#ArialMT-6d" x="50"/>
     <use xlink:href="#ArialMT-65" x="133.300781"/>
    </g>
   </g>
   <g id="line2d_8">
    <defs>
     <path id="m556b491658" d="M 0 2.5 
C 0.663008 2.5 1.29895 2.236584 1.767767 1.767767 
C 2.236584 1.29895 2.5 0.663008 2.5 0 
C 2.5 -0.663008 2.236584 -1.29895 1.767767 -1.767767 
C 1.29895 -2.236584 0.663008 -2.5 0 -2.5 
C -0.663008 -2.5 -1.29895 -2.236584 -1.767767 -1.767767 
C -2.236584 -1.29895 -2.5 -0.663008 -2.5 0 
C -2.5 0.663008 -2.236584 1.29895 -1.767767 1.767767 
C -1.29895 2.236584 -0.663008 2.5 0 2.5 
z
"/>
    </defs>
    <g>
     <use xlink:href="#m556b491658" x="369.101875" y="179.085156" style="fill: #1f77b4"/>
    </g>
   </g>
   <g id="text_11">
    <!-- i -->
    <g style="fill: #262626" transform="translate(387.101875 182.585156) scale(0.1 -0.1)">
     <use xlink:href="#ArialMT-69"/>
    </g>
   </g>
   <g id="line2d_9">
    <defs>
     <path id="m3d98fc11f1" d="M 0 2.5 
C 0.663008 2.5 1.29895 2.236584 1.767767 1.767767 
C 2.236584 1.29895 2.5 0.663008 2.5 0 
C 2.5 -0.663008 2.236584 -1.29895 1.767767 -1.767767 
C 1.29895 -2.236584 0.663008 -2.5 0 -2.5 
C -0.663008 -2.5 -1.29895 -2.236584 -1.767767 -1.767767 
C -2.236584 -1.29895 -2.5 -0.663008 -2.5 0 
C -2.5 0.663008 -2.236584 1.29895 -1.767767 1.767767 
C -1.29895 2.236584 -0.663008 2.5 0 2.5 
z
"/>
    </defs>
    <g>
     <use xlink:href="#m3d98fc11f1" x="369.101875" y="193.230469" style="fill: #ff7f0e"/>
    </g>
   </g>
   <g id="text_12">
    <!-- f -->
    <g style="fill: #262626" transform="translate(387.101875 196.730469) scale(0.1 -0.1)">
     <use xlink:href="#ArialMT-66"/>
    </g>
   </g>
  </g>
 </g>
 <defs>
  <clipPath id="pc988973de0">
   <rect x="41.617865" y="10.8" width="314.393335" height="307.24"/>
  </clipPath>
 </defs>
</svg>
