<?xml version="1.0" encoding="utf-8" standalone="no"?>
<!DOCTYPE svg PUBLIC "-//W3C//DTD SVG 1.1//EN"
  "http://www.w3.org/Graphics/SVG/1.1/DTD/svg11.dtd">
<svg xmlns:xlink="http://www.w3.org/1999/xlink" width="398.88pt" height="360pt" viewBox="0 0 398.88 360" xmlns="http://www.w3.org/2000/svg" version="1.1">
 <metadata>
  <rdf:RDF xmlns:dc="http://purl.org/dc/elements/1.1/" xmlns:cc="http://creativecommons.org/ns#" xmlns:rdf="http://www.w3.org/1999/02/22-rdf-syntax-ns#">
   <cc:Work>
    <dc:type rdf:resource="http://purl.org/dc/dcmitype/StillImage"/>
    <dc:date>2024-09-11T03:30:49.261719</dc:date>
    <dc:format>image/svg+xml</dc:format>
    <dc:creator>
     <cc:Agent>
      <dc:title>Matplotlib v3.8.3, https://matplotlib.org/</dc:title>
     </cc:Agent>
    </dc:creator>
   </cc:Work>
  </rdf:RDF>
 </metadata>
 <defs>
  <style type="text/css">*{stroke-linejoin: round; stroke-linecap: butt}</style>
 </defs>
 <g id="figure_1">
  <g id="patch_1">
   <path d="M 0 360 
L 398.88 360 
L 398.88 0 
L 0 0 
z
" style="fill: #ffffff"/>
  </g>
  <g id="axes_1">
   <g id="patch_2">
    <path d="M 47.800505 318.04 
L 356.0112 318.04 
L 356.0112 10.8 
L 47.800505 10.8 
z
" style="fill: #ffffff"/>
   </g>
   <g id="matplotlib.axis_1">
    <g id="xtick_1">
     <g id="text_1">
      <!-- f -->
      <g style="fill: #262626" transform="translate(123.464116 332.197812) scale(0.1 -0.1)">
       <defs>
        <path id="ArialMT-66" d="M 556 0 
L 556 2881 
L 59 2881 
L 59 3319 
L 556 3319 
L 556 3672 
Q 556 4006 616 4169 
Q 697 4388 901 4523 
Q 1106 4659 1475 4659 
Q 1713 4659 2000 4603 
L 1916 4113 
Q 1741 4144 1584 4144 
Q 1328 4144 1222 4034 
Q 1116 3925 1116 3625 
L 1116 3319 
L 1763 3319 
L 1763 2881 
L 1116 2881 
L 1116 0 
L 556 0 
z
" transform="scale(0.015625)"/>
       </defs>
       <use xlink:href="#ArialMT-66"/>
      </g>
     </g>
    </g>
    <g id="xtick_2">
     <g id="text_2">
      <!-- m -->
      <g style="fill: #262626" transform="translate(274.793682 332.197812) scale(0.1 -0.1)">
       <defs>
        <path id="ArialMT-6d" d="M 422 0 
L 422 3319 
L 925 3319 
L 925 2853 
Q 1081 3097 1340 3245 
Q 1600 3394 1931 3394 
Q 2300 3394 2536 3241 
Q 2772 3088 2869 2813 
Q 3263 3394 3894 3394 
Q 4388 3394 4653 3120 
Q 4919 2847 4919 2278 
L 4919 0 
L 4359 0 
L 4359 2091 
Q 4359 2428 4304 2576 
Q 4250 2725 4106 2815 
Q 3963 2906 3769 2906 
Q 3419 2906 3187 2673 
Q 2956 2441 2956 1928 
L 2956 0 
L 2394 0 
L 2394 2156 
Q 2394 2531 2256 2718 
Q 2119 2906 1806 2906 
Q 1569 2906 1367 2781 
Q 1166 2656 1075 2415 
Q 984 2175 984 1722 
L 984 0 
L 422 0 
z
" transform="scale(0.015625)"/>
       </defs>
       <use xlink:href="#ArialMT-6d"/>
      </g>
     </g>
    </g>
    <g id="text_3">
     <!-- sex -->
     <g style="fill: #262626" transform="translate(194.125384 345.343125) scale(0.1 -0.1)">
      <defs>
       <path id="ArialMT-73" d="M 197 991 
L 753 1078 
Q 800 744 1014 566 
Q 1228 388 1613 388 
Q 2000 388 2187 545 
Q 2375 703 2375 916 
Q 2375 1106 2209 1216 
Q 2094 1291 1634 1406 
Q 1016 1563 777 1677 
Q 538 1791 414 1992 
Q 291 2194 291 2438 
Q 291 2659 392 2848 
Q 494 3038 669 3163 
Q 800 3259 1026 3326 
Q 1253 3394 1513 3394 
Q 1903 3394 2198 3281 
Q 2494 3169 2634 2976 
Q 2775 2784 2828 2463 
L 2278 2388 
Q 2241 2644 2061 2787 
Q 1881 2931 1553 2931 
Q 1166 2931 1000 2803 
Q 834 2675 834 2503 
Q 834 2394 903 2306 
Q 972 2216 1119 2156 
Q 1203 2125 1616 2013 
Q 2213 1853 2448 1751 
Q 2684 1650 2818 1456 
Q 2953 1263 2953 975 
Q 2953 694 2789 445 
Q 2625 197 2315 61 
Q 2006 -75 1616 -75 
Q 969 -75 630 194 
Q 291 463 197 991 
z
" transform="scale(0.015625)"/>
       <path id="ArialMT-65" d="M 2694 1069 
L 3275 997 
Q 3138 488 2766 206 
Q 2394 -75 1816 -75 
Q 1088 -75 661 373 
Q 234 822 234 1631 
Q 234 2469 665 2931 
Q 1097 3394 1784 3394 
Q 2450 3394 2872 2941 
Q 3294 2488 3294 1666 
Q 3294 1616 3291 1516 
L 816 1516 
Q 847 969 1125 678 
Q 1403 388 1819 388 
Q 2128 388 2347 550 
Q 2566 713 2694 1069 
z
M 847 1978 
L 2700 1978 
Q 2663 2397 2488 2606 
Q 2219 2931 1791 2931 
Q 1403 2931 1139 2672 
Q 875 2413 847 1978 
z
" transform="scale(0.015625)"/>
       <path id="ArialMT-78" d="M 47 0 
L 1259 1725 
L 138 3319 
L 841 3319 
L 1350 2541 
Q 1494 2319 1581 2169 
Q 1719 2375 1834 2534 
L 2394 3319 
L 3066 3319 
L 1919 1756 
L 3153 0 
L 2463 0 
L 1781 1031 
L 1600 1309 
L 728 0 
L 47 0 
z
" transform="scale(0.015625)"/>
      </defs>
      <use xlink:href="#ArialMT-73"/>
      <use xlink:href="#ArialMT-65" x="50"/>
      <use xlink:href="#ArialMT-78" x="105.615234"/>
     </g>
    </g>
   </g>
   <g id="matplotlib.axis_2">
    <g id="ytick_1">
     <g id="line2d_1">
      <path d="M 47.800505 269.851683 
L 356.0112 269.851683 
" clip-path="url(#pb3cb7fd438)" style="fill: none; stroke: #cccccc; stroke-width: 0.8; stroke-linecap: round"/>
     </g>
     <g id="text_4">
      <!-- 20 -->
      <g style="fill: #262626" transform="translate(29.67863 273.430589) scale(0.1 -0.1)">
       <defs>
        <path id="ArialMT-32" d="M 3222 541 
L 3222 0 
L 194 0 
Q 188 203 259 391 
Q 375 700 629 1000 
Q 884 1300 1366 1694 
Q 2113 2306 2375 2664 
Q 2638 3022 2638 3341 
Q 2638 3675 2398 3904 
Q 2159 4134 1775 4134 
Q 1369 4134 1125 3890 
Q 881 3647 878 3216 
L 300 3275 
Q 359 3922 746 4261 
Q 1134 4600 1788 4600 
Q 2447 4600 2831 4234 
Q 3216 3869 3216 3328 
Q 3216 3053 3103 2787 
Q 2991 2522 2730 2228 
Q 2469 1934 1863 1422 
Q 1356 997 1212 845 
Q 1069 694 975 541 
L 3222 541 
z
" transform="scale(0.015625)"/>
        <path id="ArialMT-30" d="M 266 2259 
Q 266 3072 433 3567 
Q 600 4063 929 4331 
Q 1259 4600 1759 4600 
Q 2128 4600 2406 4451 
Q 2684 4303 2865 4023 
Q 3047 3744 3150 3342 
Q 3253 2941 3253 2259 
Q 3253 1453 3087 958 
Q 2922 463 2592 192 
Q 2263 -78 1759 -78 
Q 1097 -78 719 397 
Q 266 969 266 2259 
z
M 844 2259 
Q 844 1131 1108 757 
Q 1372 384 1759 384 
Q 2147 384 2411 759 
Q 2675 1134 2675 2259 
Q 2675 3391 2411 3762 
Q 2147 4134 1753 4134 
Q 1366 4134 1134 3806 
Q 844 3388 844 2259 
z
" transform="scale(0.015625)"/>
       </defs>
       <use xlink:href="#ArialMT-32"/>
       <use xlink:href="#ArialMT-30" x="55.615234"/>
      </g>
     </g>
    </g>
    <g id="ytick_2">
     <g id="line2d_2">
      <path d="M 47.800505 214.675942 
L 356.0112 214.675942 
" clip-path="url(#pb3cb7fd438)" style="fill: none; stroke: #cccccc; stroke-width: 0.8; stroke-linecap: round"/>
     </g>
     <g id="text_5">
      <!-- 30 -->
      <g style="fill: #262626" transform="translate(29.67863 218.254849) scale(0.1 -0.1)">
       <defs>
        <path id="ArialMT-33" d="M 269 1209 
L 831 1284 
Q 928 806 1161 595 
Q 1394 384 1728 384 
Q 2125 384 2398 659 
Q 2672 934 2672 1341 
Q 2672 1728 2419 1979 
Q 2166 2231 1775 2231 
Q 1616 2231 1378 2169 
L 1441 2663 
Q 1497 2656 1531 2656 
Q 1891 2656 2178 2843 
Q 2466 3031 2466 3422 
Q 2466 3731 2256 3934 
Q 2047 4138 1716 4138 
Q 1388 4138 1169 3931 
Q 950 3725 888 3313 
L 325 3413 
Q 428 3978 793 4289 
Q 1159 4600 1703 4600 
Q 2078 4600 2393 4439 
Q 2709 4278 2876 4000 
Q 3044 3722 3044 3409 
Q 3044 3113 2884 2869 
Q 2725 2625 2413 2481 
Q 2819 2388 3044 2092 
Q 3269 1797 3269 1353 
Q 3269 753 2831 336 
Q 2394 -81 1725 -81 
Q 1122 -81 723 278 
Q 325 638 269 1209 
z
" transform="scale(0.015625)"/>
       </defs>
       <use xlink:href="#ArialMT-33"/>
       <use xlink:href="#ArialMT-30" x="55.615234"/>
      </g>
     </g>
    </g>
    <g id="ytick_3">
     <g id="line2d_3">
      <path d="M 47.800505 159.500202 
L 356.0112 159.500202 
" clip-path="url(#pb3cb7fd438)" style="fill: none; stroke: #cccccc; stroke-width: 0.8; stroke-linecap: round"/>
     </g>
     <g id="text_6">
      <!-- 40 -->
      <g style="fill: #262626" transform="translate(29.67863 163.079108) scale(0.1 -0.1)">
       <defs>
        <path id="ArialMT-34" d="M 2069 0 
L 2069 1097 
L 81 1097 
L 81 1613 
L 2172 4581 
L 2631 4581 
L 2631 1613 
L 3250 1613 
L 3250 1097 
L 2631 1097 
L 2631 0 
L 2069 0 
z
M 2069 1613 
L 2069 3678 
L 634 1613 
L 2069 1613 
z
" transform="scale(0.015625)"/>
       </defs>
       <use xlink:href="#ArialMT-34"/>
       <use xlink:href="#ArialMT-30" x="55.615234"/>
      </g>
     </g>
    </g>
    <g id="ytick_4">
     <g id="line2d_4">
      <path d="M 47.800505 104.324461 
L 356.0112 104.324461 
" clip-path="url(#pb3cb7fd438)" style="fill: none; stroke: #cccccc; stroke-width: 0.8; stroke-linecap: round"/>
     </g>
     <g id="text_7">
      <!-- 50 -->
      <g style="fill: #262626" transform="translate(29.67863 107.903367) scale(0.1 -0.1)">
       <defs>
        <path id="ArialMT-35" d="M 266 1200 
L 856 1250 
Q 922 819 1161 601 
Q 1400 384 1738 384 
Q 2144 384 2425 690 
Q 2706 997 2706 1503 
Q 2706 1984 2436 2262 
Q 2166 2541 1728 2541 
Q 1456 2541 1237 2417 
Q 1019 2294 894 2097 
L 366 2166 
L 809 4519 
L 3088 4519 
L 3088 3981 
L 1259 3981 
L 1013 2750 
Q 1425 3038 1878 3038 
Q 2478 3038 2890 2622 
Q 3303 2206 3303 1553 
Q 3303 931 2941 478 
Q 2500 -78 1738 -78 
Q 1113 -78 717 272 
Q 322 622 266 1200 
z
" transform="scale(0.015625)"/>
       </defs>
       <use xlink:href="#ArialMT-35"/>
       <use xlink:href="#ArialMT-30" x="55.615234"/>
      </g>
     </g>
    </g>
    <g id="ytick_5">
     <g id="line2d_5">
      <path d="M 47.800505 49.14872 
L 356.0112 49.14872 
" clip-path="url(#pb3cb7fd438)" style="fill: none; stroke: #cccccc; stroke-width: 0.8; stroke-linecap: round"/>
     </g>
     <g id="text_8">
      <!-- 60 -->
      <g style="fill: #262626" transform="translate(29.67863 52.727626) scale(0.1 -0.1)">
       <defs>
        <path id="ArialMT-36" d="M 3184 3459 
L 2625 3416 
Q 2550 3747 2413 3897 
Q 2184 4138 1850 4138 
Q 1581 4138 1378 3988 
Q 1113 3794 959 3422 
Q 806 3050 800 2363 
Q 1003 2672 1297 2822 
Q 1591 2972 1913 2972 
Q 2475 2972 2870 2558 
Q 3266 2144 3266 1488 
Q 3266 1056 3080 686 
Q 2894 316 2569 119 
Q 2244 -78 1831 -78 
Q 1128 -78 684 439 
Q 241 956 241 2144 
Q 241 3472 731 4075 
Q 1159 4600 1884 4600 
Q 2425 4600 2770 4297 
Q 3116 3994 3184 3459 
z
M 888 1484 
Q 888 1194 1011 928 
Q 1134 663 1356 523 
Q 1578 384 1822 384 
Q 2178 384 2434 671 
Q 2691 959 2691 1453 
Q 2691 1928 2437 2201 
Q 2184 2475 1800 2475 
Q 1419 2475 1153 2201 
Q 888 1928 888 1484 
z
" transform="scale(0.015625)"/>
       </defs>
       <use xlink:href="#ArialMT-36"/>
       <use xlink:href="#ArialMT-30" x="55.615234"/>
      </g>
     </g>
    </g>
    <g id="text_9">
     <!-- Respiratory rate (breaths/min) -->
     <g style="fill: #262626" transform="translate(23.573942 230.82625) rotate(-90) scale(0.1 -0.1)">
      <defs>
       <path id="ArialMT-52" d="M 503 0 
L 503 4581 
L 2534 4581 
Q 3147 4581 3465 4457 
Q 3784 4334 3975 4021 
Q 4166 3709 4166 3331 
Q 4166 2844 3850 2509 
Q 3534 2175 2875 2084 
Q 3116 1969 3241 1856 
Q 3506 1613 3744 1247 
L 4541 0 
L 3778 0 
L 3172 953 
Q 2906 1366 2734 1584 
Q 2563 1803 2427 1890 
Q 2291 1978 2150 2013 
Q 2047 2034 1813 2034 
L 1109 2034 
L 1109 0 
L 503 0 
z
M 1109 2559 
L 2413 2559 
Q 2828 2559 3062 2645 
Q 3297 2731 3419 2920 
Q 3541 3109 3541 3331 
Q 3541 3656 3305 3865 
Q 3069 4075 2559 4075 
L 1109 4075 
L 1109 2559 
z
" transform="scale(0.015625)"/>
       <path id="ArialMT-70" d="M 422 -1272 
L 422 3319 
L 934 3319 
L 934 2888 
Q 1116 3141 1344 3267 
Q 1572 3394 1897 3394 
Q 2322 3394 2647 3175 
Q 2972 2956 3137 2557 
Q 3303 2159 3303 1684 
Q 3303 1175 3120 767 
Q 2938 359 2589 142 
Q 2241 -75 1856 -75 
Q 1575 -75 1351 44 
Q 1128 163 984 344 
L 984 -1272 
L 422 -1272 
z
M 931 1641 
Q 931 1000 1190 694 
Q 1450 388 1819 388 
Q 2194 388 2461 705 
Q 2728 1022 2728 1688 
Q 2728 2322 2467 2637 
Q 2206 2953 1844 2953 
Q 1484 2953 1207 2617 
Q 931 2281 931 1641 
z
" transform="scale(0.015625)"/>
       <path id="ArialMT-69" d="M 425 3934 
L 425 4581 
L 988 4581 
L 988 3934 
L 425 3934 
z
M 425 0 
L 425 3319 
L 988 3319 
L 988 0 
L 425 0 
z
" transform="scale(0.015625)"/>
       <path id="ArialMT-72" d="M 416 0 
L 416 3319 
L 922 3319 
L 922 2816 
Q 1116 3169 1280 3281 
Q 1444 3394 1641 3394 
Q 1925 3394 2219 3213 
L 2025 2691 
Q 1819 2813 1613 2813 
Q 1428 2813 1281 2702 
Q 1134 2591 1072 2394 
Q 978 2094 978 1738 
L 978 0 
L 416 0 
z
" transform="scale(0.015625)"/>
       <path id="ArialMT-61" d="M 2588 409 
Q 2275 144 1986 34 
Q 1697 -75 1366 -75 
Q 819 -75 525 192 
Q 231 459 231 875 
Q 231 1119 342 1320 
Q 453 1522 633 1644 
Q 813 1766 1038 1828 
Q 1203 1872 1538 1913 
Q 2219 1994 2541 2106 
Q 2544 2222 2544 2253 
Q 2544 2597 2384 2738 
Q 2169 2928 1744 2928 
Q 1347 2928 1158 2789 
Q 969 2650 878 2297 
L 328 2372 
Q 403 2725 575 2942 
Q 747 3159 1072 3276 
Q 1397 3394 1825 3394 
Q 2250 3394 2515 3294 
Q 2781 3194 2906 3042 
Q 3031 2891 3081 2659 
Q 3109 2516 3109 2141 
L 3109 1391 
Q 3109 606 3145 398 
Q 3181 191 3288 0 
L 2700 0 
Q 2613 175 2588 409 
z
M 2541 1666 
Q 2234 1541 1622 1453 
Q 1275 1403 1131 1340 
Q 988 1278 909 1158 
Q 831 1038 831 891 
Q 831 666 1001 516 
Q 1172 366 1500 366 
Q 1825 366 2078 508 
Q 2331 650 2450 897 
Q 2541 1088 2541 1459 
L 2541 1666 
z
" transform="scale(0.015625)"/>
       <path id="ArialMT-74" d="M 1650 503 
L 1731 6 
Q 1494 -44 1306 -44 
Q 1000 -44 831 53 
Q 663 150 594 308 
Q 525 466 525 972 
L 525 2881 
L 113 2881 
L 113 3319 
L 525 3319 
L 525 4141 
L 1084 4478 
L 1084 3319 
L 1650 3319 
L 1650 2881 
L 1084 2881 
L 1084 941 
Q 1084 700 1114 631 
Q 1144 563 1211 522 
Q 1278 481 1403 481 
Q 1497 481 1650 503 
z
" transform="scale(0.015625)"/>
       <path id="ArialMT-6f" d="M 213 1659 
Q 213 2581 725 3025 
Q 1153 3394 1769 3394 
Q 2453 3394 2887 2945 
Q 3322 2497 3322 1706 
Q 3322 1066 3130 698 
Q 2938 331 2570 128 
Q 2203 -75 1769 -75 
Q 1072 -75 642 372 
Q 213 819 213 1659 
z
M 791 1659 
Q 791 1022 1069 705 
Q 1347 388 1769 388 
Q 2188 388 2466 706 
Q 2744 1025 2744 1678 
Q 2744 2294 2464 2611 
Q 2184 2928 1769 2928 
Q 1347 2928 1069 2612 
Q 791 2297 791 1659 
z
" transform="scale(0.015625)"/>
       <path id="ArialMT-79" d="M 397 -1278 
L 334 -750 
Q 519 -800 656 -800 
Q 844 -800 956 -737 
Q 1069 -675 1141 -563 
Q 1194 -478 1313 -144 
Q 1328 -97 1363 -6 
L 103 3319 
L 709 3319 
L 1400 1397 
Q 1534 1031 1641 628 
Q 1738 1016 1872 1384 
L 2581 3319 
L 3144 3319 
L 1881 -56 
Q 1678 -603 1566 -809 
Q 1416 -1088 1222 -1217 
Q 1028 -1347 759 -1347 
Q 597 -1347 397 -1278 
z
" transform="scale(0.015625)"/>
       <path id="ArialMT-20" transform="scale(0.015625)"/>
       <path id="ArialMT-28" d="M 1497 -1347 
Q 1031 -759 709 28 
Q 388 816 388 1659 
Q 388 2403 628 3084 
Q 909 3875 1497 4659 
L 1900 4659 
Q 1522 4009 1400 3731 
Q 1209 3300 1100 2831 
Q 966 2247 966 1656 
Q 966 153 1900 -1347 
L 1497 -1347 
z
" transform="scale(0.015625)"/>
       <path id="ArialMT-62" d="M 941 0 
L 419 0 
L 419 4581 
L 981 4581 
L 981 2947 
Q 1338 3394 1891 3394 
Q 2197 3394 2470 3270 
Q 2744 3147 2920 2923 
Q 3097 2700 3197 2384 
Q 3297 2069 3297 1709 
Q 3297 856 2875 390 
Q 2453 -75 1863 -75 
Q 1275 -75 941 416 
L 941 0 
z
M 934 1684 
Q 934 1088 1097 822 
Q 1363 388 1816 388 
Q 2184 388 2453 708 
Q 2722 1028 2722 1663 
Q 2722 2313 2464 2622 
Q 2206 2931 1841 2931 
Q 1472 2931 1203 2611 
Q 934 2291 934 1684 
z
" transform="scale(0.015625)"/>
       <path id="ArialMT-68" d="M 422 0 
L 422 4581 
L 984 4581 
L 984 2938 
Q 1378 3394 1978 3394 
Q 2347 3394 2619 3248 
Q 2891 3103 3008 2847 
Q 3125 2591 3125 2103 
L 3125 0 
L 2563 0 
L 2563 2103 
Q 2563 2525 2380 2717 
Q 2197 2909 1863 2909 
Q 1613 2909 1392 2779 
Q 1172 2650 1078 2428 
Q 984 2206 984 1816 
L 984 0 
L 422 0 
z
" transform="scale(0.015625)"/>
       <path id="ArialMT-2f" d="M 0 -78 
L 1328 4659 
L 1778 4659 
L 453 -78 
L 0 -78 
z
" transform="scale(0.015625)"/>
       <path id="ArialMT-6e" d="M 422 0 
L 422 3319 
L 928 3319 
L 928 2847 
Q 1294 3394 1984 3394 
Q 2284 3394 2536 3286 
Q 2788 3178 2913 3003 
Q 3038 2828 3088 2588 
Q 3119 2431 3119 2041 
L 3119 0 
L 2556 0 
L 2556 2019 
Q 2556 2363 2490 2533 
Q 2425 2703 2258 2804 
Q 2091 2906 1866 2906 
Q 1506 2906 1245 2678 
Q 984 2450 984 1813 
L 984 0 
L 422 0 
z
" transform="scale(0.015625)"/>
       <path id="ArialMT-29" d="M 791 -1347 
L 388 -1347 
Q 1322 153 1322 1656 
Q 1322 2244 1188 2822 
Q 1081 3291 891 3722 
Q 769 4003 388 4659 
L 791 4659 
Q 1378 3875 1659 3084 
Q 1900 2403 1900 1659 
Q 1900 816 1576 28 
Q 1253 -759 791 -1347 
z
" transform="scale(0.015625)"/>
      </defs>
      <use xlink:href="#ArialMT-52"/>
      <use xlink:href="#ArialMT-65" x="72.216797"/>
      <use xlink:href="#ArialMT-73" x="127.832031"/>
      <use xlink:href="#ArialMT-70" x="177.832031"/>
      <use xlink:href="#ArialMT-69" x="233.447266"/>
      <use xlink:href="#ArialMT-72" x="255.664062"/>
      <use xlink:href="#ArialMT-61" x="288.964844"/>
      <use xlink:href="#ArialMT-74" x="344.580078"/>
      <use xlink:href="#ArialMT-6f" x="372.363281"/>
      <use xlink:href="#ArialMT-72" x="427.978516"/>
      <use xlink:href="#ArialMT-79" x="461.279297"/>
      <use xlink:href="#ArialMT-20" x="511.279297"/>
      <use xlink:href="#ArialMT-72" x="539.0625"/>
      <use xlink:href="#ArialMT-61" x="572.363281"/>
      <use xlink:href="#ArialMT-74" x="627.978516"/>
      <use xlink:href="#ArialMT-65" x="655.761719"/>
      <use xlink:href="#ArialMT-20" x="711.376953"/>
      <use xlink:href="#ArialMT-28" x="739.160156"/>
      <use xlink:href="#ArialMT-62" x="772.460938"/>
      <use xlink:href="#ArialMT-72" x="828.076172"/>
      <use xlink:href="#ArialMT-65" x="861.376953"/>
      <use xlink:href="#ArialMT-61" x="916.992188"/>
      <use xlink:href="#ArialMT-74" x="972.607422"/>
      <use xlink:href="#ArialMT-68" x="1000.390625"/>
      <use xlink:href="#ArialMT-73" x="1056.005859"/>
      <use xlink:href="#ArialMT-2f" x="1106.005859"/>
      <use xlink:href="#ArialMT-6d" x="1133.789062"/>
      <use xlink:href="#ArialMT-69" x="1217.089844"/>
      <use xlink:href="#ArialMT-6e" x="1239.306641"/>
      <use xlink:href="#ArialMT-29" x="1294.921875"/>
     </g>
    </g>
   </g>
   <g id="patch_3">
    <path d="M 47.800505 318.04 
L 47.800505 10.8 
" style="fill: none; stroke: #cccccc; stroke-width: 0.8; stroke-linejoin: miter; stroke-linecap: square"/>
   </g>
   <g id="patch_4">
    <path d="M 47.800505 318.04 
L 356.0112 318.04 
" style="fill: none; stroke: #cccccc; stroke-width: 0.8; stroke-linejoin: miter; stroke-linecap: square"/>
   </g>
   <g id="PathCollection_1">
    <defs>
     <path id="C0_0_69aa03a423" d="M 0 2.5 
C 0.663008 2.5 1.29895 2.236584 1.767767 1.767767 
C 2.236584 1.29895 2.5 0.663008 2.5 -0 
C 2.5 -0.663008 2.236584 -1.29895 1.767767 -1.767767 
C 1.29895 -2.236584 0.663008 -2.5 0 -2.5 
C -0.663008 -2.5 -1.29895 -2.236584 -1.767767 -1.767767 
C -2.236584 -1.29895 -2.5 -0.663008 -2.5 0 
C -2.5 0.663008 -2.236584 1.29895 -1.767767 1.767767 
C -1.29895 2.236584 -0.663008 2.5 0 2.5 
z
"/>
    </defs>
    <g clip-path="url(#pb3cb7fd438)">
     <use xlink:href="#C0_0_69aa03a423" x="91.757356" y="189.567618" style="fill: #1f77b4"/>
    </g>
    <g clip-path="url(#pb3cb7fd438)">
     <use xlink:href="#C0_0_69aa03a423" x="94.674057" y="200.899481" style="fill: #1f77b4"/>
    </g>
    <g clip-path="url(#pb3cb7fd438)">
     <use xlink:href="#C0_0_69aa03a423" x="90.967661" y="304.074545" style="fill: #1f77b4"/>
    </g>
    <g clip-path="url(#pb3cb7fd438)">
     <use xlink:href="#C0_0_69aa03a423" x="94.733682" y="232.36675" style="fill: #1f77b4"/>
    </g>
    <g clip-path="url(#pb3cb7fd438)">
     <use xlink:href="#C0_0_69aa03a423" x="97.114395" y="163.285244" style="fill: #1f77b4"/>
    </g>
    <g clip-path="url(#pb3cb7fd438)">
     <use xlink:href="#C0_0_69aa03a423" x="100.798784" y="206.084203" style="fill: #1f77b4"/>
    </g>
    <g clip-path="url(#pb3cb7fd438)">
     <use xlink:href="#C0_0_69aa03a423" x="92.270253" y="221.091698" style="fill: #1f77b4"/>
    </g>
    <g clip-path="url(#pb3cb7fd438)">
     <use xlink:href="#C0_0_69aa03a423" x="97.027699" y="259.013309" style="fill: #1f77b4"/>
    </g>
    <g clip-path="url(#pb3cb7fd438)">
     <use xlink:href="#C0_0_69aa03a423" x="92.946275" y="247.763875" style="fill: #1f77b4"/>
    </g>
    <g clip-path="url(#pb3cb7fd438)">
     <use xlink:href="#C0_0_69aa03a423" x="89.639254" y="150.712257" style="fill: #1f77b4"/>
    </g>
    <g clip-path="url(#pb3cb7fd438)">
     <use xlink:href="#C0_0_69aa03a423" x="95.114262" y="24.765455" style="fill: #1f77b4"/>
    </g>
    <g clip-path="url(#pb3cb7fd438)">
     <use xlink:href="#C0_0_69aa03a423" x="99.228739" y="205.939421" style="fill: #1f77b4"/>
    </g>
    <g clip-path="url(#pb3cb7fd438)">
     <use xlink:href="#C0_0_69aa03a423" x="86.86937" y="116.212222" style="fill: #1f77b4"/>
    </g>
    <g clip-path="url(#pb3cb7fd438)">
     <use xlink:href="#C0_0_69aa03a423" x="94.158485" y="280.690119" style="fill: #1f77b4"/>
    </g>
    <g clip-path="url(#pb3cb7fd438)">
     <use xlink:href="#C0_0_69aa03a423" x="97.06395" y="175.362475" style="fill: #1f77b4"/>
    </g>
   </g>
   <g id="PathCollection_2">
    <defs>
     <path id="C1_0_c1ddb1dae8" d="M 0 2.5 
C 0.663008 2.5 1.29895 2.236584 1.767767 1.767767 
C 2.236584 1.29895 2.5 0.663008 2.5 -0 
C 2.5 -0.663008 2.236584 -1.29895 1.767767 -1.767767 
C 1.29895 -2.236584 0.663008 -2.5 0 -2.5 
C -0.663008 -2.5 -1.29895 -2.236584 -1.767767 -1.767767 
C -2.236584 -1.29895 -2.5 -0.663008 -2.5 0 
C -2.5 0.663008 -2.236584 1.29895 -1.767767 1.767767 
C -1.29895 2.236584 -0.663008 2.5 0 2.5 
z
"/>
    </defs>
    <g clip-path="url(#pb3cb7fd438)">
     <use xlink:href="#C1_0_c1ddb1dae8" x="150.066537" y="268.884619" style="fill: #ff7f0e"/>
    </g>
    <g clip-path="url(#pb3cb7fd438)">
     <use xlink:href="#C1_0_c1ddb1dae8" x="160.603246" y="200.885137" style="fill: #ff7f0e"/>
    </g>
    <g clip-path="url(#pb3cb7fd438)">
     <use xlink:href="#C1_0_c1ddb1dae8" x="162.99757" y="113.675266" style="fill: #ff7f0e"/>
    </g>
    <g clip-path="url(#pb3cb7fd438)">
     <use xlink:href="#C1_0_c1ddb1dae8" x="163.227668" y="267.453415" style="fill: #ff7f0e"/>
    </g>
    <g clip-path="url(#pb3cb7fd438)">
     <use xlink:href="#C1_0_c1ddb1dae8" x="150.555524" y="200.45314" style="fill: #ff7f0e"/>
    </g>
    <g clip-path="url(#pb3cb7fd438)">
     <use xlink:href="#C1_0_c1ddb1dae8" x="148.479312" y="216.941134" style="fill: #ff7f0e"/>
    </g>
    <g clip-path="url(#pb3cb7fd438)">
     <use xlink:href="#C1_0_c1ddb1dae8" x="150.566631" y="250.899417" style="fill: #ff7f0e"/>
    </g>
    <g clip-path="url(#pb3cb7fd438)">
     <use xlink:href="#C1_0_c1ddb1dae8" x="160.29034" y="287.24288" style="fill: #ff7f0e"/>
    </g>
    <g clip-path="url(#pb3cb7fd438)">
     <use xlink:href="#C1_0_c1ddb1dae8" x="159.589918" y="273.461949" style="fill: #ff7f0e"/>
    </g>
    <g clip-path="url(#pb3cb7fd438)">
     <use xlink:href="#C1_0_c1ddb1dae8" x="155.390517" y="181.686903" style="fill: #ff7f0e"/>
    </g>
    <g clip-path="url(#pb3cb7fd438)">
     <use xlink:href="#C1_0_c1ddb1dae8" x="162.845344" y="267.901443" style="fill: #ff7f0e"/>
    </g>
    <g clip-path="url(#pb3cb7fd438)">
     <use xlink:href="#C1_0_c1ddb1dae8" x="157.464667" y="243.724749" style="fill: #ff7f0e"/>
    </g>
    <g clip-path="url(#pb3cb7fd438)">
     <use xlink:href="#C1_0_c1ddb1dae8" x="161.73908" y="217.08039" style="fill: #ff7f0e"/>
    </g>
    <g clip-path="url(#pb3cb7fd438)">
     <use xlink:href="#C1_0_c1ddb1dae8" x="150.850836" y="248.062679" style="fill: #ff7f0e"/>
    </g>
    <g clip-path="url(#pb3cb7fd438)">
     <use xlink:href="#C1_0_c1ddb1dae8" x="154.730612" y="153.288148" style="fill: #ff7f0e"/>
    </g>
   </g>
   <g id="PathCollection_3">
    <defs>
     <path id="C2_0_4026a7a3d0" d="M 0 2.5 
C 0.663008 2.5 1.29895 2.236584 1.767767 1.767767 
C 2.236584 1.29895 2.5 0.663008 2.5 -0 
C 2.5 -0.663008 2.236584 -1.29895 1.767767 -1.767767 
C 1.29895 -2.236584 0.663008 -2.5 0 -2.5 
C -0.663008 -2.5 -1.29895 -2.236584 -1.767767 -1.767767 
C -2.236584 -1.29895 -2.5 -0.663008 -2.5 0 
C -2.5 0.663008 -2.236584 1.29895 -1.767767 1.767767 
C -1.29895 2.236584 -0.663008 2.5 0 2.5 
z
"/>
    </defs>
    <g clip-path="url(#pb3cb7fd438)">
     <use xlink:href="#C2_0_4026a7a3d0" x="241.36373" y="219.595311" style="fill: #1f77b4"/>
    </g>
    <g clip-path="url(#pb3cb7fd438)">
     <use xlink:href="#C2_0_4026a7a3d0" x="243.240725" y="205.227368" style="fill: #1f77b4"/>
    </g>
    <g clip-path="url(#pb3cb7fd438)">
     <use xlink:href="#C2_0_4026a7a3d0" x="241.921067" y="220.693755" style="fill: #1f77b4"/>
    </g>
    <g clip-path="url(#pb3cb7fd438)">
     <use xlink:href="#C2_0_4026a7a3d0" x="243.29755" y="197.561585" style="fill: #1f77b4"/>
    </g>
    <g clip-path="url(#pb3cb7fd438)">
     <use xlink:href="#C2_0_4026a7a3d0" x="255.562263" y="183.015972" style="fill: #1f77b4"/>
    </g>
    <g clip-path="url(#pb3cb7fd438)">
     <use xlink:href="#C2_0_4026a7a3d0" x="243.802137" y="179.919151" style="fill: #1f77b4"/>
    </g>
    <g clip-path="url(#pb3cb7fd438)">
     <use xlink:href="#C2_0_4026a7a3d0" x="251.240114" y="168.982995" style="fill: #1f77b4"/>
    </g>
    <g clip-path="url(#pb3cb7fd438)">
     <use xlink:href="#C2_0_4026a7a3d0" x="244.918387" y="174.217067" style="fill: #1f77b4"/>
    </g>
    <g clip-path="url(#pb3cb7fd438)">
     <use xlink:href="#C2_0_4026a7a3d0" x="242.910477" y="217.050404" style="fill: #1f77b4"/>
    </g>
    <g clip-path="url(#pb3cb7fd438)">
     <use xlink:href="#C2_0_4026a7a3d0" x="244.895892" y="159.58251" style="fill: #1f77b4"/>
    </g>
    <g clip-path="url(#pb3cb7fd438)">
     <use xlink:href="#C2_0_4026a7a3d0" x="251.204124" y="177.516153" style="fill: #1f77b4"/>
    </g>
    <g clip-path="url(#pb3cb7fd438)">
     <use xlink:href="#C2_0_4026a7a3d0" x="245.53855" y="233.127629" style="fill: #1f77b4"/>
    </g>
    <g clip-path="url(#pb3cb7fd438)">
     <use xlink:href="#C2_0_4026a7a3d0" x="244.110528" y="241.728719" style="fill: #1f77b4"/>
    </g>
    <g clip-path="url(#pb3cb7fd438)">
     <use xlink:href="#C2_0_4026a7a3d0" x="244.396346" y="220.855702" style="fill: #1f77b4"/>
    </g>
    <g clip-path="url(#pb3cb7fd438)">
     <use xlink:href="#C2_0_4026a7a3d0" x="253.474347" y="95.110058" style="fill: #1f77b4"/>
    </g>
    <g clip-path="url(#pb3cb7fd438)">
     <use xlink:href="#C2_0_4026a7a3d0" x="244.649917" y="276.402909" style="fill: #1f77b4"/>
    </g>
    <g clip-path="url(#pb3cb7fd438)">
     <use xlink:href="#C2_0_4026a7a3d0" x="251.743304" y="180.288219" style="fill: #1f77b4"/>
    </g>
    <g clip-path="url(#pb3cb7fd438)">
     <use xlink:href="#C2_0_4026a7a3d0" x="251.392491" y="242.728709" style="fill: #1f77b4"/>
    </g>
    <g clip-path="url(#pb3cb7fd438)">
     <use xlink:href="#C2_0_4026a7a3d0" x="245.593427" y="155.599355" style="fill: #1f77b4"/>
    </g>
    <g clip-path="url(#pb3cb7fd438)">
     <use xlink:href="#C2_0_4026a7a3d0" x="251.123275" y="242.010686" style="fill: #1f77b4"/>
    </g>
    <g clip-path="url(#pb3cb7fd438)">
     <use xlink:href="#C2_0_4026a7a3d0" x="247.221822" y="228.285299" style="fill: #1f77b4"/>
    </g>
    <g clip-path="url(#pb3cb7fd438)">
     <use xlink:href="#C2_0_4026a7a3d0" x="244.646922" y="146.664241" style="fill: #1f77b4"/>
    </g>
    <g clip-path="url(#pb3cb7fd438)">
     <use xlink:href="#C2_0_4026a7a3d0" x="244.046753" y="177.539093" style="fill: #1f77b4"/>
    </g>
    <g clip-path="url(#pb3cb7fd438)">
     <use xlink:href="#C2_0_4026a7a3d0" x="253.742783" y="213.371389" style="fill: #1f77b4"/>
    </g>
   </g>
   <g id="PathCollection_4">
    <defs>
     <path id="C3_0_e120f84201" d="M 0 2.5 
C 0.663008 2.5 1.29895 2.236584 1.767767 1.767767 
C 2.236584 1.29895 2.5 0.663008 2.5 -0 
C 2.5 -0.663008 2.236584 -1.29895 1.767767 -1.767767 
C 1.29895 -2.236584 0.663008 -2.5 0 -2.5 
C -0.663008 -2.5 -1.29895 -2.236584 -1.767767 -1.767767 
C -2.236584 -1.29895 -2.5 -0.663008 -2.5 0 
C -2.5 0.663008 -2.236584 1.29895 -1.767767 1.767767 
C -1.29895 2.236584 -0.663008 2.5 0 2.5 
z
"/>
    </defs>
    <g clip-path="url(#pb3cb7fd438)">
     <use xlink:href="#C3_0_e120f84201" x="311.116882" y="203.410232" style="fill: #ff7f0e"/>
    </g>
    <g clip-path="url(#pb3cb7fd438)">
     <use xlink:href="#C3_0_e120f84201" x="312.686442" y="237.855121" style="fill: #ff7f0e"/>
    </g>
    <g clip-path="url(#pb3cb7fd438)">
     <use xlink:href="#C3_0_e120f84201" x="304.62048" y="286.751878" style="fill: #ff7f0e"/>
    </g>
    <g clip-path="url(#pb3cb7fd438)">
     <use xlink:href="#C3_0_e120f84201" x="315.470945" y="231.206948" style="fill: #ff7f0e"/>
    </g>
    <g clip-path="url(#pb3cb7fd438)">
     <use xlink:href="#C3_0_e120f84201" x="303.479751" y="188.532442" style="fill: #ff7f0e"/>
    </g>
    <g clip-path="url(#pb3cb7fd438)">
     <use xlink:href="#C3_0_e120f84201" x="315.616971" y="245.753462" style="fill: #ff7f0e"/>
    </g>
    <g clip-path="url(#pb3cb7fd438)">
     <use xlink:href="#C3_0_e120f84201" x="315.491205" y="248.546789" style="fill: #ff7f0e"/>
    </g>
    <g clip-path="url(#pb3cb7fd438)">
     <use xlink:href="#C3_0_e120f84201" x="304.003568" y="233.584197" style="fill: #ff7f0e"/>
    </g>
    <g clip-path="url(#pb3cb7fd438)">
     <use xlink:href="#C3_0_e120f84201" x="306.354446" y="240.986579" style="fill: #ff7f0e"/>
    </g>
    <g clip-path="url(#pb3cb7fd438)">
     <use xlink:href="#C3_0_e120f84201" x="306.560386" y="177.918014" style="fill: #ff7f0e"/>
    </g>
    <g clip-path="url(#pb3cb7fd438)">
     <use xlink:href="#C3_0_e120f84201" x="315.481288" y="204.696337" style="fill: #ff7f0e"/>
    </g>
    <g clip-path="url(#pb3cb7fd438)">
     <use xlink:href="#C3_0_e120f84201" x="305.427362" y="217.034553" style="fill: #ff7f0e"/>
    </g>
    <g clip-path="url(#pb3cb7fd438)">
     <use xlink:href="#C3_0_e120f84201" x="304.016727" y="239.784702" style="fill: #ff7f0e"/>
    </g>
    <g clip-path="url(#pb3cb7fd438)">
     <use xlink:href="#C3_0_e120f84201" x="306.474156" y="260.733257" style="fill: #ff7f0e"/>
    </g>
    <g clip-path="url(#pb3cb7fd438)">
     <use xlink:href="#C3_0_e120f84201" x="313.19911" y="220.996207" style="fill: #ff7f0e"/>
    </g>
    <g clip-path="url(#pb3cb7fd438)">
     <use xlink:href="#C3_0_e120f84201" x="308.011004" y="242.80757" style="fill: #ff7f0e"/>
    </g>
    <g clip-path="url(#pb3cb7fd438)">
     <use xlink:href="#C3_0_e120f84201" x="306.887733" y="183.115855" style="fill: #ff7f0e"/>
    </g>
    <g clip-path="url(#pb3cb7fd438)">
     <use xlink:href="#C3_0_e120f84201" x="308.497526" y="244.029428" style="fill: #ff7f0e"/>
    </g>
    <g clip-path="url(#pb3cb7fd438)">
     <use xlink:href="#C3_0_e120f84201" x="305.855429" y="288.540479" style="fill: #ff7f0e"/>
    </g>
    <g clip-path="url(#pb3cb7fd438)">
     <use xlink:href="#C3_0_e120f84201" x="304.894954" y="274.434972" style="fill: #ff7f0e"/>
    </g>
    <g clip-path="url(#pb3cb7fd438)">
     <use xlink:href="#C3_0_e120f84201" x="309.28442" y="205.641338" style="fill: #ff7f0e"/>
    </g>
    <g clip-path="url(#pb3cb7fd438)">
     <use xlink:href="#C3_0_e120f84201" x="303.478832" y="195.659988" style="fill: #ff7f0e"/>
    </g>
    <g clip-path="url(#pb3cb7fd438)">
     <use xlink:href="#C3_0_e120f84201" x="311.536799" y="225.953813" style="fill: #ff7f0e"/>
    </g>
    <g clip-path="url(#pb3cb7fd438)">
     <use xlink:href="#C3_0_e120f84201" x="310.970565" y="130.236802" style="fill: #ff7f0e"/>
    </g>
   </g>
   <g id="line2d_6"/>
   <g id="line2d_7"/>
  </g>
  <g id="legend_1">
   <g id="text_10">
    <!-- time -->
    <g style="fill: #262626" transform="translate(365.045625 168.439844) scale(0.1 -0.1)">
     <use xlink:href="#ArialMT-74"/>
     <use xlink:href="#ArialMT-69" x="27.783203"/>
     <use xlink:href="#ArialMT-6d" x="50"/>
     <use xlink:href="#ArialMT-65" x="133.300781"/>
    </g>
   </g>
   <g id="line2d_8">
    <defs>
     <path id="mf485f6f048" d="M 0 2.5 
C 0.663008 2.5 1.29895 2.236584 1.767767 1.767767 
C 2.236584 1.29895 2.5 0.663008 2.5 0 
C 2.5 -0.663008 2.236584 -1.29895 1.767767 -1.767767 
C 1.29895 -2.236584 0.663008 -2.5 0 -2.5 
C -0.663008 -2.5 -1.29895 -2.236584 -1.767767 -1.767767 
C -2.236584 -1.29895 -2.5 -0.663008 -2.5 0 
C -2.5 0.663008 -2.236584 1.29895 -1.767767 1.767767 
C -1.29895 2.236584 -0.663008 2.5 0 2.5 
z
"/>
    </defs>
    <g>
     <use xlink:href="#mf485f6f048" x="369.101875" y="179.085156" style="fill: #1f77b4"/>
    </g>
   </g>
   <g id="text_11">
    <!-- i -->
    <g style="fill: #262626" transform="translate(387.101875 182.585156) scale(0.1 -0.1)">
     <use xlink:href="#ArialMT-69"/>
    </g>
   </g>
   <g id="line2d_9">
    <defs>
     <path id="m86d0e5431b" d="M 0 2.5 
C 0.663008 2.5 1.29895 2.236584 1.767767 1.767767 
C 2.236584 1.29895 2.5 0.663008 2.5 0 
C 2.5 -0.663008 2.236584 -1.29895 1.767767 -1.767767 
C 1.29895 -2.236584 0.663008 -2.5 0 -2.5 
C -0.663008 -2.5 -1.29895 -2.236584 -1.767767 -1.767767 
C -2.236584 -1.29895 -2.5 -0.663008 -2.5 0 
C -2.5 0.663008 -2.236584 1.29895 -1.767767 1.767767 
C -1.29895 2.236584 -0.663008 2.5 0 2.5 
z
"/>
    </defs>
    <g>
     <use xlink:href="#m86d0e5431b" x="369.101875" y="193.230469" style="fill: #ff7f0e"/>
    </g>
   </g>
   <g id="text_12">
    <!-- f -->
    <g style="fill: #262626" transform="translate(387.101875 196.730469) scale(0.1 -0.1)">
     <use xlink:href="#ArialMT-66"/>
    </g>
   </g>
  </g>
 </g>
 <defs>
  <clipPath id="pb3cb7fd438">
   <rect x="47.800505" y="10.8" width="308.210695" height="307.24"/>
  </clipPath>
 </defs>
</svg>
