<?xml version="1.0" encoding="utf-8" standalone="no"?>
<!DOCTYPE svg PUBLIC "-//W3C//DTD SVG 1.1//EN"
  "http://www.w3.org/Graphics/SVG/1.1/DTD/svg11.dtd">
<svg xmlns:xlink="http://www.w3.org/1999/xlink" width="398.88pt" height="360pt" viewBox="0 0 398.88 360" xmlns="http://www.w3.org/2000/svg" version="1.1">
 <metadata>
  <rdf:RDF xmlns:dc="http://purl.org/dc/elements/1.1/" xmlns:cc="http://creativecommons.org/ns#" xmlns:rdf="http://www.w3.org/1999/02/22-rdf-syntax-ns#">
   <cc:Work>
    <dc:type rdf:resource="http://purl.org/dc/dcmitype/StillImage"/>
    <dc:date>2024-09-11T03:30:51.926219</dc:date>
    <dc:format>image/svg+xml</dc:format>
    <dc:creator>
     <cc:Agent>
      <dc:title>Matplotlib v3.8.3, https://matplotlib.org/</dc:title>
     </cc:Agent>
    </dc:creator>
   </cc:Work>
  </rdf:RDF>
 </metadata>
 <defs>
  <style type="text/css">*{stroke-linejoin: round; stroke-linecap: butt}</style>
 </defs>
 <g id="figure_1">
  <g id="patch_1">
   <path d="M 0 360 
L 398.88 360 
L 398.88 0 
L 0 0 
z
" style="fill: #ffffff"/>
  </g>
  <g id="axes_1">
   <g id="patch_2">
    <path d="M 50.891825 318.04 
L 356.0112 318.04 
L 356.0112 10.8 
L 50.891825 10.8 
z
" style="fill: #ffffff"/>
   </g>
   <g id="matplotlib.axis_1">
    <g id="xtick_1">
     <g id="text_1">
      <!-- f -->
      <g style="fill: #262626" transform="translate(125.782606 332.197812) scale(0.1 -0.1)">
       <defs>
        <path id="ArialMT-66" d="M 556 0 
L 556 2881 
L 59 2881 
L 59 3319 
L 556 3319 
L 556 3672 
Q 556 4006 616 4169 
Q 697 4388 901 4523 
Q 1106 4659 1475 4659 
Q 1713 4659 2000 4603 
L 1916 4113 
Q 1741 4144 1584 4144 
Q 1328 4144 1222 4034 
Q 1116 3925 1116 3625 
L 1116 3319 
L 1763 3319 
L 1763 2881 
L 1116 2881 
L 1116 0 
L 556 0 
z
" transform="scale(0.015625)"/>
       </defs>
       <use xlink:href="#ArialMT-66"/>
      </g>
     </g>
    </g>
    <g id="xtick_2">
     <g id="text_2">
      <!-- m -->
      <g style="fill: #262626" transform="translate(275.566512 332.197812) scale(0.1 -0.1)">
       <defs>
        <path id="ArialMT-6d" d="M 422 0 
L 422 3319 
L 925 3319 
L 925 2853 
Q 1081 3097 1340 3245 
Q 1600 3394 1931 3394 
Q 2300 3394 2536 3241 
Q 2772 3088 2869 2813 
Q 3263 3394 3894 3394 
Q 4388 3394 4653 3120 
Q 4919 2847 4919 2278 
L 4919 0 
L 4359 0 
L 4359 2091 
Q 4359 2428 4304 2576 
Q 4250 2725 4106 2815 
Q 3963 2906 3769 2906 
Q 3419 2906 3187 2673 
Q 2956 2441 2956 1928 
L 2956 0 
L 2394 0 
L 2394 2156 
Q 2394 2531 2256 2718 
Q 2119 2906 1806 2906 
Q 1569 2906 1367 2781 
Q 1166 2656 1075 2415 
Q 984 2175 984 1722 
L 984 0 
L 422 0 
z
" transform="scale(0.015625)"/>
       </defs>
       <use xlink:href="#ArialMT-6d"/>
      </g>
     </g>
    </g>
    <g id="text_3">
     <!-- sex -->
     <g style="fill: #262626" transform="translate(195.671044 345.343125) scale(0.1 -0.1)">
      <defs>
       <path id="ArialMT-73" d="M 197 991 
L 753 1078 
Q 800 744 1014 566 
Q 1228 388 1613 388 
Q 2000 388 2187 545 
Q 2375 703 2375 916 
Q 2375 1106 2209 1216 
Q 2094 1291 1634 1406 
Q 1016 1563 777 1677 
Q 538 1791 414 1992 
Q 291 2194 291 2438 
Q 291 2659 392 2848 
Q 494 3038 669 3163 
Q 800 3259 1026 3326 
Q 1253 3394 1513 3394 
Q 1903 3394 2198 3281 
Q 2494 3169 2634 2976 
Q 2775 2784 2828 2463 
L 2278 2388 
Q 2241 2644 2061 2787 
Q 1881 2931 1553 2931 
Q 1166 2931 1000 2803 
Q 834 2675 834 2503 
Q 834 2394 903 2306 
Q 972 2216 1119 2156 
Q 1203 2125 1616 2013 
Q 2213 1853 2448 1751 
Q 2684 1650 2818 1456 
Q 2953 1263 2953 975 
Q 2953 694 2789 445 
Q 2625 197 2315 61 
Q 2006 -75 1616 -75 
Q 969 -75 630 194 
Q 291 463 197 991 
z
" transform="scale(0.015625)"/>
       <path id="ArialMT-65" d="M 2694 1069 
L 3275 997 
Q 3138 488 2766 206 
Q 2394 -75 1816 -75 
Q 1088 -75 661 373 
Q 234 822 234 1631 
Q 234 2469 665 2931 
Q 1097 3394 1784 3394 
Q 2450 3394 2872 2941 
Q 3294 2488 3294 1666 
Q 3294 1616 3291 1516 
L 816 1516 
Q 847 969 1125 678 
Q 1403 388 1819 388 
Q 2128 388 2347 550 
Q 2566 713 2694 1069 
z
M 847 1978 
L 2700 1978 
Q 2663 2397 2488 2606 
Q 2219 2931 1791 2931 
Q 1403 2931 1139 2672 
Q 875 2413 847 1978 
z
" transform="scale(0.015625)"/>
       <path id="ArialMT-78" d="M 47 0 
L 1259 1725 
L 138 3319 
L 841 3319 
L 1350 2541 
Q 1494 2319 1581 2169 
Q 1719 2375 1834 2534 
L 2394 3319 
L 3066 3319 
L 1919 1756 
L 3153 0 
L 2463 0 
L 1781 1031 
L 1600 1309 
L 728 0 
L 47 0 
z
" transform="scale(0.015625)"/>
      </defs>
      <use xlink:href="#ArialMT-73"/>
      <use xlink:href="#ArialMT-65" x="50"/>
      <use xlink:href="#ArialMT-78" x="105.615234"/>
     </g>
    </g>
   </g>
   <g id="matplotlib.axis_2">
    <g id="ytick_1">
     <g id="line2d_1">
      <path d="M 50.891825 309.434647 
L 356.0112 309.434647 
" clip-path="url(#p6617598e0f)" style="fill: none; stroke: #cccccc; stroke-width: 0.8; stroke-linecap: round"/>
     </g>
     <g id="text_4">
      <!-- 0.4 -->
      <g style="fill: #262626" transform="translate(29.991825 313.013553) scale(0.1 -0.1)">
       <defs>
        <path id="ArialMT-30" d="M 266 2259 
Q 266 3072 433 3567 
Q 600 4063 929 4331 
Q 1259 4600 1759 4600 
Q 2128 4600 2406 4451 
Q 2684 4303 2865 4023 
Q 3047 3744 3150 3342 
Q 3253 2941 3253 2259 
Q 3253 1453 3087 958 
Q 2922 463 2592 192 
Q 2263 -78 1759 -78 
Q 1097 -78 719 397 
Q 266 969 266 2259 
z
M 844 2259 
Q 844 1131 1108 757 
Q 1372 384 1759 384 
Q 2147 384 2411 759 
Q 2675 1134 2675 2259 
Q 2675 3391 2411 3762 
Q 2147 4134 1753 4134 
Q 1366 4134 1134 3806 
Q 844 3388 844 2259 
z
" transform="scale(0.015625)"/>
        <path id="ArialMT-2e" d="M 581 0 
L 581 641 
L 1222 641 
L 1222 0 
L 581 0 
z
" transform="scale(0.015625)"/>
        <path id="ArialMT-34" d="M 2069 0 
L 2069 1097 
L 81 1097 
L 81 1613 
L 2172 4581 
L 2631 4581 
L 2631 1613 
L 3250 1613 
L 3250 1097 
L 2631 1097 
L 2631 0 
L 2069 0 
z
M 2069 1613 
L 2069 3678 
L 634 1613 
L 2069 1613 
z
" transform="scale(0.015625)"/>
       </defs>
       <use xlink:href="#ArialMT-30"/>
       <use xlink:href="#ArialMT-2e" x="55.615234"/>
       <use xlink:href="#ArialMT-34" x="83.398438"/>
      </g>
     </g>
    </g>
    <g id="ytick_2">
     <g id="line2d_2">
      <path d="M 50.891825 268.348036 
L 356.0112 268.348036 
" clip-path="url(#p6617598e0f)" style="fill: none; stroke: #cccccc; stroke-width: 0.8; stroke-linecap: round"/>
     </g>
     <g id="text_5">
      <!-- 0.6 -->
      <g style="fill: #262626" transform="translate(29.991825 271.926942) scale(0.1 -0.1)">
       <defs>
        <path id="ArialMT-36" d="M 3184 3459 
L 2625 3416 
Q 2550 3747 2413 3897 
Q 2184 4138 1850 4138 
Q 1581 4138 1378 3988 
Q 1113 3794 959 3422 
Q 806 3050 800 2363 
Q 1003 2672 1297 2822 
Q 1591 2972 1913 2972 
Q 2475 2972 2870 2558 
Q 3266 2144 3266 1488 
Q 3266 1056 3080 686 
Q 2894 316 2569 119 
Q 2244 -78 1831 -78 
Q 1128 -78 684 439 
Q 241 956 241 2144 
Q 241 3472 731 4075 
Q 1159 4600 1884 4600 
Q 2425 4600 2770 4297 
Q 3116 3994 3184 3459 
z
M 888 1484 
Q 888 1194 1011 928 
Q 1134 663 1356 523 
Q 1578 384 1822 384 
Q 2178 384 2434 671 
Q 2691 959 2691 1453 
Q 2691 1928 2437 2201 
Q 2184 2475 1800 2475 
Q 1419 2475 1153 2201 
Q 888 1928 888 1484 
z
" transform="scale(0.015625)"/>
       </defs>
       <use xlink:href="#ArialMT-30"/>
       <use xlink:href="#ArialMT-2e" x="55.615234"/>
       <use xlink:href="#ArialMT-36" x="83.398438"/>
      </g>
     </g>
    </g>
    <g id="ytick_3">
     <g id="line2d_3">
      <path d="M 50.891825 227.261425 
L 356.0112 227.261425 
" clip-path="url(#p6617598e0f)" style="fill: none; stroke: #cccccc; stroke-width: 0.8; stroke-linecap: round"/>
     </g>
     <g id="text_6">
      <!-- 0.8 -->
      <g style="fill: #262626" transform="translate(29.991825 230.840331) scale(0.1 -0.1)">
       <defs>
        <path id="ArialMT-38" d="M 1131 2484 
Q 781 2613 612 2850 
Q 444 3088 444 3419 
Q 444 3919 803 4259 
Q 1163 4600 1759 4600 
Q 2359 4600 2725 4251 
Q 3091 3903 3091 3403 
Q 3091 3084 2923 2848 
Q 2756 2613 2416 2484 
Q 2838 2347 3058 2040 
Q 3278 1734 3278 1309 
Q 3278 722 2862 322 
Q 2447 -78 1769 -78 
Q 1091 -78 675 323 
Q 259 725 259 1325 
Q 259 1772 486 2073 
Q 713 2375 1131 2484 
z
M 1019 3438 
Q 1019 3113 1228 2906 
Q 1438 2700 1772 2700 
Q 2097 2700 2305 2904 
Q 2513 3109 2513 3406 
Q 2513 3716 2298 3927 
Q 2084 4138 1766 4138 
Q 1444 4138 1231 3931 
Q 1019 3725 1019 3438 
z
M 838 1322 
Q 838 1081 952 856 
Q 1066 631 1291 507 
Q 1516 384 1775 384 
Q 2178 384 2440 643 
Q 2703 903 2703 1303 
Q 2703 1709 2433 1975 
Q 2163 2241 1756 2241 
Q 1359 2241 1098 1978 
Q 838 1716 838 1322 
z
" transform="scale(0.015625)"/>
       </defs>
       <use xlink:href="#ArialMT-30"/>
       <use xlink:href="#ArialMT-2e" x="55.615234"/>
       <use xlink:href="#ArialMT-38" x="83.398438"/>
      </g>
     </g>
    </g>
    <g id="ytick_4">
     <g id="line2d_4">
      <path d="M 50.891825 186.174814 
L 356.0112 186.174814 
" clip-path="url(#p6617598e0f)" style="fill: none; stroke: #cccccc; stroke-width: 0.8; stroke-linecap: round"/>
     </g>
     <g id="text_7">
      <!-- 1.0 -->
      <g style="fill: #262626" transform="translate(29.991825 189.753721) scale(0.1 -0.1)">
       <defs>
        <path id="ArialMT-31" d="M 2384 0 
L 1822 0 
L 1822 3584 
Q 1619 3391 1289 3197 
Q 959 3003 697 2906 
L 697 3450 
Q 1169 3672 1522 3987 
Q 1875 4303 2022 4600 
L 2384 4600 
L 2384 0 
z
" transform="scale(0.015625)"/>
       </defs>
       <use xlink:href="#ArialMT-31"/>
       <use xlink:href="#ArialMT-2e" x="55.615234"/>
       <use xlink:href="#ArialMT-30" x="83.398438"/>
      </g>
     </g>
    </g>
    <g id="ytick_5">
     <g id="line2d_5">
      <path d="M 50.891825 145.088204 
L 356.0112 145.088204 
" clip-path="url(#p6617598e0f)" style="fill: none; stroke: #cccccc; stroke-width: 0.8; stroke-linecap: round"/>
     </g>
     <g id="text_8">
      <!-- 1.2 -->
      <g style="fill: #262626" transform="translate(29.991825 148.66711) scale(0.1 -0.1)">
       <defs>
        <path id="ArialMT-32" d="M 3222 541 
L 3222 0 
L 194 0 
Q 188 203 259 391 
Q 375 700 629 1000 
Q 884 1300 1366 1694 
Q 2113 2306 2375 2664 
Q 2638 3022 2638 3341 
Q 2638 3675 2398 3904 
Q 2159 4134 1775 4134 
Q 1369 4134 1125 3890 
Q 881 3647 878 3216 
L 300 3275 
Q 359 3922 746 4261 
Q 1134 4600 1788 4600 
Q 2447 4600 2831 4234 
Q 3216 3869 3216 3328 
Q 3216 3053 3103 2787 
Q 2991 2522 2730 2228 
Q 2469 1934 1863 1422 
Q 1356 997 1212 845 
Q 1069 694 975 541 
L 3222 541 
z
" transform="scale(0.015625)"/>
       </defs>
       <use xlink:href="#ArialMT-31"/>
       <use xlink:href="#ArialMT-2e" x="55.615234"/>
       <use xlink:href="#ArialMT-32" x="83.398438"/>
      </g>
     </g>
    </g>
    <g id="ytick_6">
     <g id="line2d_6">
      <path d="M 50.891825 104.001593 
L 356.0112 104.001593 
" clip-path="url(#p6617598e0f)" style="fill: none; stroke: #cccccc; stroke-width: 0.8; stroke-linecap: round"/>
     </g>
     <g id="text_9">
      <!-- 1.4 -->
      <g style="fill: #262626" transform="translate(29.991825 107.580499) scale(0.1 -0.1)">
       <use xlink:href="#ArialMT-31"/>
       <use xlink:href="#ArialMT-2e" x="55.615234"/>
       <use xlink:href="#ArialMT-34" x="83.398438"/>
      </g>
     </g>
    </g>
    <g id="ytick_7">
     <g id="line2d_7">
      <path d="M 50.891825 62.914982 
L 356.0112 62.914982 
" clip-path="url(#p6617598e0f)" style="fill: none; stroke: #cccccc; stroke-width: 0.8; stroke-linecap: round"/>
     </g>
     <g id="text_10">
      <!-- 1.6 -->
      <g style="fill: #262626" transform="translate(29.991825 66.493888) scale(0.1 -0.1)">
       <use xlink:href="#ArialMT-31"/>
       <use xlink:href="#ArialMT-2e" x="55.615234"/>
       <use xlink:href="#ArialMT-36" x="83.398438"/>
      </g>
     </g>
    </g>
    <g id="ytick_8">
     <g id="line2d_8">
      <path d="M 50.891825 21.828371 
L 356.0112 21.828371 
" clip-path="url(#p6617598e0f)" style="fill: none; stroke: #cccccc; stroke-width: 0.8; stroke-linecap: round"/>
     </g>
     <g id="text_11">
      <!-- 1.8 -->
      <g style="fill: #262626" transform="translate(29.991825 25.407277) scale(0.1 -0.1)">
       <use xlink:href="#ArialMT-31"/>
       <use xlink:href="#ArialMT-2e" x="55.615234"/>
       <use xlink:href="#ArialMT-38" x="83.398438"/>
      </g>
     </g>
    </g>
    <g id="text_12">
     <!-- CO2 expired (l/min) -->
     <g style="fill: #262626" transform="translate(23.887137 207.762188) rotate(-90) scale(0.1 -0.1)">
      <defs>
       <path id="ArialMT-43" d="M 3763 1606 
L 4369 1453 
Q 4178 706 3683 314 
Q 3188 -78 2472 -78 
Q 1731 -78 1267 223 
Q 803 525 561 1097 
Q 319 1669 319 2325 
Q 319 3041 592 3573 
Q 866 4106 1370 4382 
Q 1875 4659 2481 4659 
Q 3169 4659 3637 4309 
Q 4106 3959 4291 3325 
L 3694 3184 
Q 3534 3684 3231 3912 
Q 2928 4141 2469 4141 
Q 1941 4141 1586 3887 
Q 1231 3634 1087 3207 
Q 944 2781 944 2328 
Q 944 1744 1114 1308 
Q 1284 872 1643 656 
Q 2003 441 2422 441 
Q 2931 441 3284 734 
Q 3638 1028 3763 1606 
z
" transform="scale(0.015625)"/>
       <path id="ArialMT-4f" d="M 309 2231 
Q 309 3372 921 4017 
Q 1534 4663 2503 4663 
Q 3138 4663 3647 4359 
Q 4156 4056 4423 3514 
Q 4691 2972 4691 2284 
Q 4691 1588 4409 1038 
Q 4128 488 3612 205 
Q 3097 -78 2500 -78 
Q 1853 -78 1343 234 
Q 834 547 571 1087 
Q 309 1628 309 2231 
z
M 934 2222 
Q 934 1394 1379 917 
Q 1825 441 2497 441 
Q 3181 441 3623 922 
Q 4066 1403 4066 2288 
Q 4066 2847 3877 3264 
Q 3688 3681 3323 3911 
Q 2959 4141 2506 4141 
Q 1863 4141 1398 3698 
Q 934 3256 934 2222 
z
" transform="scale(0.015625)"/>
       <path id="ArialMT-20" transform="scale(0.015625)"/>
       <path id="ArialMT-70" d="M 422 -1272 
L 422 3319 
L 934 3319 
L 934 2888 
Q 1116 3141 1344 3267 
Q 1572 3394 1897 3394 
Q 2322 3394 2647 3175 
Q 2972 2956 3137 2557 
Q 3303 2159 3303 1684 
Q 3303 1175 3120 767 
Q 2938 359 2589 142 
Q 2241 -75 1856 -75 
Q 1575 -75 1351 44 
Q 1128 163 984 344 
L 984 -1272 
L 422 -1272 
z
M 931 1641 
Q 931 1000 1190 694 
Q 1450 388 1819 388 
Q 2194 388 2461 705 
Q 2728 1022 2728 1688 
Q 2728 2322 2467 2637 
Q 2206 2953 1844 2953 
Q 1484 2953 1207 2617 
Q 931 2281 931 1641 
z
" transform="scale(0.015625)"/>
       <path id="ArialMT-69" d="M 425 3934 
L 425 4581 
L 988 4581 
L 988 3934 
L 425 3934 
z
M 425 0 
L 425 3319 
L 988 3319 
L 988 0 
L 425 0 
z
" transform="scale(0.015625)"/>
       <path id="ArialMT-72" d="M 416 0 
L 416 3319 
L 922 3319 
L 922 2816 
Q 1116 3169 1280 3281 
Q 1444 3394 1641 3394 
Q 1925 3394 2219 3213 
L 2025 2691 
Q 1819 2813 1613 2813 
Q 1428 2813 1281 2702 
Q 1134 2591 1072 2394 
Q 978 2094 978 1738 
L 978 0 
L 416 0 
z
" transform="scale(0.015625)"/>
       <path id="ArialMT-64" d="M 2575 0 
L 2575 419 
Q 2259 -75 1647 -75 
Q 1250 -75 917 144 
Q 584 363 401 755 
Q 219 1147 219 1656 
Q 219 2153 384 2558 
Q 550 2963 881 3178 
Q 1213 3394 1622 3394 
Q 1922 3394 2156 3267 
Q 2391 3141 2538 2938 
L 2538 4581 
L 3097 4581 
L 3097 0 
L 2575 0 
z
M 797 1656 
Q 797 1019 1065 703 
Q 1334 388 1700 388 
Q 2069 388 2326 689 
Q 2584 991 2584 1609 
Q 2584 2291 2321 2609 
Q 2059 2928 1675 2928 
Q 1300 2928 1048 2622 
Q 797 2316 797 1656 
z
" transform="scale(0.015625)"/>
       <path id="ArialMT-28" d="M 1497 -1347 
Q 1031 -759 709 28 
Q 388 816 388 1659 
Q 388 2403 628 3084 
Q 909 3875 1497 4659 
L 1900 4659 
Q 1522 4009 1400 3731 
Q 1209 3300 1100 2831 
Q 966 2247 966 1656 
Q 966 153 1900 -1347 
L 1497 -1347 
z
" transform="scale(0.015625)"/>
       <path id="ArialMT-6c" d="M 409 0 
L 409 4581 
L 972 4581 
L 972 0 
L 409 0 
z
" transform="scale(0.015625)"/>
       <path id="ArialMT-2f" d="M 0 -78 
L 1328 4659 
L 1778 4659 
L 453 -78 
L 0 -78 
z
" transform="scale(0.015625)"/>
       <path id="ArialMT-6e" d="M 422 0 
L 422 3319 
L 928 3319 
L 928 2847 
Q 1294 3394 1984 3394 
Q 2284 3394 2536 3286 
Q 2788 3178 2913 3003 
Q 3038 2828 3088 2588 
Q 3119 2431 3119 2041 
L 3119 0 
L 2556 0 
L 2556 2019 
Q 2556 2363 2490 2533 
Q 2425 2703 2258 2804 
Q 2091 2906 1866 2906 
Q 1506 2906 1245 2678 
Q 984 2450 984 1813 
L 984 0 
L 422 0 
z
" transform="scale(0.015625)"/>
       <path id="ArialMT-29" d="M 791 -1347 
L 388 -1347 
Q 1322 153 1322 1656 
Q 1322 2244 1188 2822 
Q 1081 3291 891 3722 
Q 769 4003 388 4659 
L 791 4659 
Q 1378 3875 1659 3084 
Q 1900 2403 1900 1659 
Q 1900 816 1576 28 
Q 1253 -759 791 -1347 
z
" transform="scale(0.015625)"/>
      </defs>
      <use xlink:href="#ArialMT-43"/>
      <use xlink:href="#ArialMT-4f" x="72.216797"/>
      <use xlink:href="#ArialMT-32" x="150"/>
      <use xlink:href="#ArialMT-20" x="205.615234"/>
      <use xlink:href="#ArialMT-65" x="233.398438"/>
      <use xlink:href="#ArialMT-78" x="289.013672"/>
      <use xlink:href="#ArialMT-70" x="339.013672"/>
      <use xlink:href="#ArialMT-69" x="394.628906"/>
      <use xlink:href="#ArialMT-72" x="416.845703"/>
      <use xlink:href="#ArialMT-65" x="450.146484"/>
      <use xlink:href="#ArialMT-64" x="505.761719"/>
      <use xlink:href="#ArialMT-20" x="561.376953"/>
      <use xlink:href="#ArialMT-28" x="589.160156"/>
      <use xlink:href="#ArialMT-6c" x="622.460938"/>
      <use xlink:href="#ArialMT-2f" x="644.677734"/>
      <use xlink:href="#ArialMT-6d" x="672.460938"/>
      <use xlink:href="#ArialMT-69" x="755.761719"/>
      <use xlink:href="#ArialMT-6e" x="777.978516"/>
      <use xlink:href="#ArialMT-29" x="833.59375"/>
     </g>
    </g>
   </g>
   <g id="patch_3">
    <path d="M 50.891825 318.04 
L 50.891825 10.8 
" style="fill: none; stroke: #cccccc; stroke-width: 0.8; stroke-linejoin: miter; stroke-linecap: square"/>
   </g>
   <g id="patch_4">
    <path d="M 50.891825 318.04 
L 356.0112 318.04 
" style="fill: none; stroke: #cccccc; stroke-width: 0.8; stroke-linejoin: miter; stroke-linecap: square"/>
   </g>
   <g id="PathCollection_1">
    <defs>
     <path id="C0_0_ea7fe79b53" d="M 0 2.5 
C 0.663008 2.5 1.29895 2.236584 1.767767 1.767767 
C 2.236584 1.29895 2.5 0.663008 2.5 -0 
C 2.5 -0.663008 2.236584 -1.29895 1.767767 -1.767767 
C 1.29895 -2.236584 0.663008 -2.5 0 -2.5 
C -0.663008 -2.5 -1.29895 -2.236584 -1.767767 -1.767767 
C -2.236584 -1.29895 -2.5 -0.663008 -2.5 0 
C -2.5 0.663008 -2.236584 1.29895 -1.767767 1.767767 
C -1.29895 2.236584 -0.663008 2.5 0 2.5 
z
"/>
    </defs>
    <g clip-path="url(#p6617598e0f)">
     <use xlink:href="#C0_0_ea7fe79b53" x="102.841071" y="179.566691" style="fill: #1f77b4"/>
    </g>
    <g clip-path="url(#p6617598e0f)">
     <use xlink:href="#C0_0_ea7fe79b53" x="90.060032" y="175.953501" style="fill: #1f77b4"/>
    </g>
    <g clip-path="url(#p6617598e0f)">
     <use xlink:href="#C0_0_ea7fe79b53" x="90.99412" y="190.240325" style="fill: #1f77b4"/>
    </g>
    <g clip-path="url(#p6617598e0f)">
     <use xlink:href="#C0_0_ea7fe79b53" x="98.252944" y="29.837786" style="fill: #1f77b4"/>
    </g>
    <g clip-path="url(#p6617598e0f)">
     <use xlink:href="#C0_0_ea7fe79b53" x="89.207126" y="209.789538" style="fill: #1f77b4"/>
    </g>
    <g clip-path="url(#p6617598e0f)">
     <use xlink:href="#C0_0_ea7fe79b53" x="90.588246" y="179.09566" style="fill: #1f77b4"/>
    </g>
    <g clip-path="url(#p6617598e0f)">
     <use xlink:href="#C0_0_ea7fe79b53" x="95.321659" y="217.320966" style="fill: #1f77b4"/>
    </g>
    <g clip-path="url(#p6617598e0f)">
     <use xlink:href="#C0_0_ea7fe79b53" x="103.926311" y="222.453644" style="fill: #1f77b4"/>
    </g>
    <g clip-path="url(#p6617598e0f)">
     <use xlink:href="#C0_0_ea7fe79b53" x="89.513382" y="153.316825" style="fill: #1f77b4"/>
    </g>
    <g clip-path="url(#p6617598e0f)">
     <use xlink:href="#C0_0_ea7fe79b53" x="94.955169" y="193.806115" style="fill: #1f77b4"/>
    </g>
    <g clip-path="url(#p6617598e0f)">
     <use xlink:href="#C0_0_ea7fe79b53" x="99.949967" y="107.308137" style="fill: #1f77b4"/>
    </g>
    <g clip-path="url(#p6617598e0f)">
     <use xlink:href="#C0_0_ea7fe79b53" x="99.052584" y="97.551911" style="fill: #1f77b4"/>
    </g>
    <g clip-path="url(#p6617598e0f)">
     <use xlink:href="#C0_0_ea7fe79b53" x="97.271627" y="123.984133" style="fill: #1f77b4"/>
    </g>
    <g clip-path="url(#p6617598e0f)">
     <use xlink:href="#C0_0_ea7fe79b53" x="98.041877" y="272.040996" style="fill: #1f77b4"/>
    </g>
    <g clip-path="url(#p6617598e0f)">
     <use xlink:href="#C0_0_ea7fe79b53" x="96.229068" y="111.810677" style="fill: #1f77b4"/>
    </g>
   </g>
   <g id="PathCollection_2">
    <defs>
     <path id="C1_0_319831d290" d="M 0 2.5 
C 0.663008 2.5 1.29895 2.236584 1.767767 1.767767 
C 2.236584 1.29895 2.5 0.663008 2.5 -0 
C 2.5 -0.663008 2.236584 -1.29895 1.767767 -1.767767 
C 1.29895 -2.236584 0.663008 -2.5 0 -2.5 
C -0.663008 -2.5 -1.29895 -2.236584 -1.767767 -1.767767 
C -2.236584 -1.29895 -2.5 -0.663008 -2.5 0 
C -2.5 0.663008 -2.236584 1.29895 -1.767767 1.767767 
C -1.29895 2.236584 -0.663008 2.5 0 2.5 
z
"/>
    </defs>
    <g clip-path="url(#p6617598e0f)">
     <use xlink:href="#C1_0_319831d290" x="158.657766" y="143.438835" style="fill: #ff7f0e"/>
    </g>
    <g clip-path="url(#p6617598e0f)">
     <use xlink:href="#C1_0_319831d290" x="159.695267" y="125.505479" style="fill: #ff7f0e"/>
    </g>
    <g clip-path="url(#p6617598e0f)">
     <use xlink:href="#C1_0_319831d290" x="151.944347" y="151.184727" style="fill: #ff7f0e"/>
    </g>
    <g clip-path="url(#p6617598e0f)">
     <use xlink:href="#C1_0_319831d290" x="156.857739" y="61.48858" style="fill: #ff7f0e"/>
    </g>
    <g clip-path="url(#p6617598e0f)">
     <use xlink:href="#C1_0_319831d290" x="150.866266" y="184.772632" style="fill: #ff7f0e"/>
    </g>
    <g clip-path="url(#p6617598e0f)">
     <use xlink:href="#C1_0_319831d290" x="153.67014" y="269.038969" style="fill: #ff7f0e"/>
    </g>
    <g clip-path="url(#p6617598e0f)">
     <use xlink:href="#C1_0_319831d290" x="165.172132" y="155.01008" style="fill: #ff7f0e"/>
    </g>
    <g clip-path="url(#p6617598e0f)">
     <use xlink:href="#C1_0_319831d290" x="154.725524" y="202.871393" style="fill: #ff7f0e"/>
    </g>
    <g clip-path="url(#p6617598e0f)">
     <use xlink:href="#C1_0_319831d290" x="156.919634" y="227.875005" style="fill: #ff7f0e"/>
    </g>
    <g clip-path="url(#p6617598e0f)">
     <use xlink:href="#C1_0_319831d290" x="165.207034" y="237.652103" style="fill: #ff7f0e"/>
    </g>
    <g clip-path="url(#p6617598e0f)">
     <use xlink:href="#C1_0_319831d290" x="161.45146" y="294.997196" style="fill: #ff7f0e"/>
    </g>
    <g clip-path="url(#p6617598e0f)">
     <use xlink:href="#C1_0_319831d290" x="164.015765" y="147.031137" style="fill: #ff7f0e"/>
    </g>
    <g clip-path="url(#p6617598e0f)">
     <use xlink:href="#C1_0_319831d290" x="151.44162" y="224.665146" style="fill: #ff7f0e"/>
    </g>
    <g clip-path="url(#p6617598e0f)">
     <use xlink:href="#C1_0_319831d290" x="164.71516" y="261.700386" style="fill: #ff7f0e"/>
    </g>
    <g clip-path="url(#p6617598e0f)">
     <use xlink:href="#C1_0_319831d290" x="159.460016" y="113.910845" style="fill: #ff7f0e"/>
    </g>
   </g>
   <g id="PathCollection_3">
    <defs>
     <path id="C2_0_9fb86136c6" d="M 0 2.5 
C 0.663008 2.5 1.29895 2.236584 1.767767 1.767767 
C 2.236584 1.29895 2.5 0.663008 2.5 -0 
C 2.5 -0.663008 2.236584 -1.29895 1.767767 -1.767767 
C 1.29895 -2.236584 0.663008 -2.5 0 -2.5 
C -0.663008 -2.5 -1.29895 -2.236584 -1.767767 -1.767767 
C -2.236584 -1.29895 -2.5 -0.663008 -2.5 0 
C -2.5 0.663008 -2.236584 1.29895 -1.767767 1.767767 
C -1.29895 2.236584 -0.663008 2.5 0 2.5 
z
"/>
    </defs>
    <g clip-path="url(#p6617598e0f)">
     <use xlink:href="#C2_0_9fb86136c6" x="245.475845" y="194.644055" style="fill: #1f77b4"/>
    </g>
    <g clip-path="url(#p6617598e0f)">
     <use xlink:href="#C2_0_9fb86136c6" x="254.126749" y="37.792182" style="fill: #1f77b4"/>
    </g>
    <g clip-path="url(#p6617598e0f)">
     <use xlink:href="#C2_0_9fb86136c6" x="247.533297" y="174.122607" style="fill: #1f77b4"/>
    </g>
    <g clip-path="url(#p6617598e0f)">
     <use xlink:href="#C2_0_9fb86136c6" x="248.995232" y="190.721413" style="fill: #1f77b4"/>
    </g>
    <g clip-path="url(#p6617598e0f)">
     <use xlink:href="#C2_0_9fb86136c6" x="250.999903" y="65.342116" style="fill: #1f77b4"/>
    </g>
    <g clip-path="url(#p6617598e0f)">
     <use xlink:href="#C2_0_9fb86136c6" x="243.343338" y="151.144948" style="fill: #1f77b4"/>
    </g>
    <g clip-path="url(#p6617598e0f)">
     <use xlink:href="#C2_0_9fb86136c6" x="249.930618" y="170.619014" style="fill: #1f77b4"/>
    </g>
    <g clip-path="url(#p6617598e0f)">
     <use xlink:href="#C2_0_9fb86136c6" x="241.958776" y="215.499846" style="fill: #1f77b4"/>
    </g>
    <g clip-path="url(#p6617598e0f)">
     <use xlink:href="#C2_0_9fb86136c6" x="244.90057" y="180.616836" style="fill: #1f77b4"/>
    </g>
    <g clip-path="url(#p6617598e0f)">
     <use xlink:href="#C2_0_9fb86136c6" x="255.528178" y="131.834763" style="fill: #1f77b4"/>
    </g>
    <g clip-path="url(#p6617598e0f)">
     <use xlink:href="#C2_0_9fb86136c6" x="256.556268" y="140.939263" style="fill: #1f77b4"/>
    </g>
    <g clip-path="url(#p6617598e0f)">
     <use xlink:href="#C2_0_9fb86136c6" x="249.320231" y="190.853209" style="fill: #1f77b4"/>
    </g>
    <g clip-path="url(#p6617598e0f)">
     <use xlink:href="#C2_0_9fb86136c6" x="256.453304" y="120.813971" style="fill: #1f77b4"/>
    </g>
    <g clip-path="url(#p6617598e0f)">
     <use xlink:href="#C2_0_9fb86136c6" x="251.674892" y="167.380238" style="fill: #1f77b4"/>
    </g>
    <g clip-path="url(#p6617598e0f)">
     <use xlink:href="#C2_0_9fb86136c6" x="246.543262" y="39.887123" style="fill: #1f77b4"/>
    </g>
    <g clip-path="url(#p6617598e0f)">
     <use xlink:href="#C2_0_9fb86136c6" x="255.94288" y="222.902387" style="fill: #1f77b4"/>
    </g>
    <g clip-path="url(#p6617598e0f)">
     <use xlink:href="#C2_0_9fb86136c6" x="245.612462" y="70.574409" style="fill: #1f77b4"/>
    </g>
    <g clip-path="url(#p6617598e0f)">
     <use xlink:href="#C2_0_9fb86136c6" x="250.914778" y="254.833419" style="fill: #1f77b4"/>
    </g>
    <g clip-path="url(#p6617598e0f)">
     <use xlink:href="#C2_0_9fb86136c6" x="250.371123" y="59.74537" style="fill: #1f77b4"/>
    </g>
    <g clip-path="url(#p6617598e0f)">
     <use xlink:href="#C2_0_9fb86136c6" x="249.182279" y="24.765455" style="fill: #1f77b4"/>
    </g>
    <g clip-path="url(#p6617598e0f)">
     <use xlink:href="#C2_0_9fb86136c6" x="246.412147" y="304.074545" style="fill: #1f77b4"/>
    </g>
    <g clip-path="url(#p6617598e0f)">
     <use xlink:href="#C2_0_9fb86136c6" x="246.090463" y="92.722055" style="fill: #1f77b4"/>
    </g>
    <g clip-path="url(#p6617598e0f)">
     <use xlink:href="#C2_0_9fb86136c6" x="247.141816" y="124.648868" style="fill: #1f77b4"/>
    </g>
    <g clip-path="url(#p6617598e0f)">
     <use xlink:href="#C2_0_9fb86136c6" x="251.162488" y="212.097897" style="fill: #1f77b4"/>
    </g>
   </g>
   <g id="PathCollection_4">
    <defs>
     <path id="C3_0_2db9859ead" d="M 0 2.5 
C 0.663008 2.5 1.29895 2.236584 1.767767 1.767767 
C 2.236584 1.29895 2.5 0.663008 2.5 -0 
C 2.5 -0.663008 2.236584 -1.29895 1.767767 -1.767767 
C 1.29895 -2.236584 0.663008 -2.5 0 -2.5 
C -0.663008 -2.5 -1.29895 -2.236584 -1.767767 -1.767767 
C -2.236584 -1.29895 -2.5 -0.663008 -2.5 0 
C -2.5 0.663008 -2.236584 1.29895 -1.767767 1.767767 
C -1.29895 2.236584 -0.663008 2.5 0 2.5 
z
"/>
    </defs>
    <g clip-path="url(#p6617598e0f)">
     <use xlink:href="#C3_0_2db9859ead" x="316.784589" y="198.634845" style="fill: #ff7f0e"/>
    </g>
    <g clip-path="url(#p6617598e0f)">
     <use xlink:href="#C3_0_2db9859ead" x="311.69501" y="166.458284" style="fill: #ff7f0e"/>
    </g>
    <g clip-path="url(#p6617598e0f)">
     <use xlink:href="#C3_0_2db9859ead" x="315.498949" y="157.517191" style="fill: #ff7f0e"/>
    </g>
    <g clip-path="url(#p6617598e0f)">
     <use xlink:href="#C3_0_2db9859ead" x="307.219174" y="258.554113" style="fill: #ff7f0e"/>
    </g>
    <g clip-path="url(#p6617598e0f)">
     <use xlink:href="#C3_0_2db9859ead" x="305.065114" y="205.933997" style="fill: #ff7f0e"/>
    </g>
    <g clip-path="url(#p6617598e0f)">
     <use xlink:href="#C3_0_2db9859ead" x="304.086963" y="179.353053" style="fill: #ff7f0e"/>
    </g>
    <g clip-path="url(#p6617598e0f)">
     <use xlink:href="#C3_0_2db9859ead" x="309.957581" y="247.35068" style="fill: #ff7f0e"/>
    </g>
    <g clip-path="url(#p6617598e0f)">
     <use xlink:href="#C3_0_2db9859ead" x="309.749312" y="203.473756" style="fill: #ff7f0e"/>
    </g>
    <g clip-path="url(#p6617598e0f)">
     <use xlink:href="#C3_0_2db9859ead" x="307.575901" y="226.602966" style="fill: #ff7f0e"/>
    </g>
    <g clip-path="url(#p6617598e0f)">
     <use xlink:href="#C3_0_2db9859ead" x="312.866429" y="111.757951" style="fill: #ff7f0e"/>
    </g>
    <g clip-path="url(#p6617598e0f)">
     <use xlink:href="#C3_0_2db9859ead" x="303.237824" y="212.834764" style="fill: #ff7f0e"/>
    </g>
    <g clip-path="url(#p6617598e0f)">
     <use xlink:href="#C3_0_2db9859ead" x="310.992435" y="220.532175" style="fill: #ff7f0e"/>
    </g>
    <g clip-path="url(#p6617598e0f)">
     <use xlink:href="#C3_0_2db9859ead" x="308.038959" y="212.744003" style="fill: #ff7f0e"/>
    </g>
    <g clip-path="url(#p6617598e0f)">
     <use xlink:href="#C3_0_2db9859ead" x="316.282399" y="240.739064" style="fill: #ff7f0e"/>
    </g>
    <g clip-path="url(#p6617598e0f)">
     <use xlink:href="#C3_0_2db9859ead" x="302.996453" y="159.333288" style="fill: #ff7f0e"/>
    </g>
    <g clip-path="url(#p6617598e0f)">
     <use xlink:href="#C3_0_2db9859ead" x="303.844789" y="226.202095" style="fill: #ff7f0e"/>
    </g>
    <g clip-path="url(#p6617598e0f)">
     <use xlink:href="#C3_0_2db9859ead" x="312.388149" y="133.491773" style="fill: #ff7f0e"/>
    </g>
    <g clip-path="url(#p6617598e0f)">
     <use xlink:href="#C3_0_2db9859ead" x="311.161351" y="240.885499" style="fill: #ff7f0e"/>
    </g>
    <g clip-path="url(#p6617598e0f)">
     <use xlink:href="#C3_0_2db9859ead" x="307.853295" y="233.71266" style="fill: #ff7f0e"/>
    </g>
    <g clip-path="url(#p6617598e0f)">
     <use xlink:href="#C3_0_2db9859ead" x="315.501254" y="207.119955" style="fill: #ff7f0e"/>
    </g>
    <g clip-path="url(#p6617598e0f)">
     <use xlink:href="#C3_0_2db9859ead" x="311.717257" y="168.623576" style="fill: #ff7f0e"/>
    </g>
    <g clip-path="url(#p6617598e0f)">
     <use xlink:href="#C3_0_2db9859ead" x="316.062828" y="186.854386" style="fill: #ff7f0e"/>
    </g>
    <g clip-path="url(#p6617598e0f)">
     <use xlink:href="#C3_0_2db9859ead" x="303.451003" y="217.92929" style="fill: #ff7f0e"/>
    </g>
    <g clip-path="url(#p6617598e0f)">
     <use xlink:href="#C3_0_2db9859ead" x="313.779857" y="84.846792" style="fill: #ff7f0e"/>
    </g>
   </g>
   <g id="line2d_9"/>
   <g id="line2d_10"/>
  </g>
  <g id="legend_1">
   <g id="text_13">
    <!-- time -->
    <g style="fill: #262626" transform="translate(365.045625 168.439844) scale(0.1 -0.1)">
     <defs>
      <path id="ArialMT-74" d="M 1650 503 
L 1731 6 
Q 1494 -44 1306 -44 
Q 1000 -44 831 53 
Q 663 150 594 308 
Q 525 466 525 972 
L 525 2881 
L 113 2881 
L 113 3319 
L 525 3319 
L 525 4141 
L 1084 4478 
L 1084 3319 
L 1650 3319 
L 1650 2881 
L 1084 2881 
L 1084 941 
Q 1084 700 1114 631 
Q 1144 563 1211 522 
Q 1278 481 1403 481 
Q 1497 481 1650 503 
z
" transform="scale(0.015625)"/>
     </defs>
     <use xlink:href="#ArialMT-74"/>
     <use xlink:href="#ArialMT-69" x="27.783203"/>
     <use xlink:href="#ArialMT-6d" x="50"/>
     <use xlink:href="#ArialMT-65" x="133.300781"/>
    </g>
   </g>
   <g id="line2d_11">
    <defs>
     <path id="m69d2703891" d="M 0 2.5 
C 0.663008 2.5 1.29895 2.236584 1.767767 1.767767 
C 2.236584 1.29895 2.5 0.663008 2.5 0 
C 2.5 -0.663008 2.236584 -1.29895 1.767767 -1.767767 
C 1.29895 -2.236584 0.663008 -2.5 0 -2.5 
C -0.663008 -2.5 -1.29895 -2.236584 -1.767767 -1.767767 
C -2.236584 -1.29895 -2.5 -0.663008 -2.5 0 
C -2.5 0.663008 -2.236584 1.29895 -1.767767 1.767767 
C -1.29895 2.236584 -0.663008 2.5 0 2.5 
z
"/>
    </defs>
    <g>
     <use xlink:href="#m69d2703891" x="369.101875" y="179.085156" style="fill: #1f77b4"/>
    </g>
   </g>
   <g id="text_14">
    <!-- i -->
    <g style="fill: #262626" transform="translate(387.101875 182.585156) scale(0.1 -0.1)">
     <use xlink:href="#ArialMT-69"/>
    </g>
   </g>
   <g id="line2d_12">
    <defs>
     <path id="m09913d3510" d="M 0 2.5 
C 0.663008 2.5 1.29895 2.236584 1.767767 1.767767 
C 2.236584 1.29895 2.5 0.663008 2.5 0 
C 2.5 -0.663008 2.236584 -1.29895 1.767767 -1.767767 
C 1.29895 -2.236584 0.663008 -2.5 0 -2.5 
C -0.663008 -2.5 -1.29895 -2.236584 -1.767767 -1.767767 
C -2.236584 -1.29895 -2.5 -0.663008 -2.5 0 
C -2.5 0.663008 -2.236584 1.29895 -1.767767 1.767767 
C -1.29895 2.236584 -0.663008 2.5 0 2.5 
z
"/>
    </defs>
    <g>
     <use xlink:href="#m09913d3510" x="369.101875" y="193.230469" style="fill: #ff7f0e"/>
    </g>
   </g>
   <g id="text_15">
    <!-- f -->
    <g style="fill: #262626" transform="translate(387.101875 196.730469) scale(0.1 -0.1)">
     <use xlink:href="#ArialMT-66"/>
    </g>
   </g>
  </g>
 </g>
 <defs>
  <clipPath id="p6617598e0f">
   <rect x="50.891825" y="10.8" width="305.119375" height="307.24"/>
  </clipPath>
 </defs>
</svg>
