<?xml version="1.0" encoding="utf-8" standalone="no"?>
<!DOCTYPE svg PUBLIC "-//W3C//DTD SVG 1.1//EN"
  "http://www.w3.org/Graphics/SVG/1.1/DTD/svg11.dtd">
<svg xmlns:xlink="http://www.w3.org/1999/xlink" width="398.88pt" height="360pt" viewBox="0 0 398.88 360" xmlns="http://www.w3.org/2000/svg" version="1.1">
 <metadata>
  <rdf:RDF xmlns:dc="http://purl.org/dc/elements/1.1/" xmlns:cc="http://creativecommons.org/ns#" xmlns:rdf="http://www.w3.org/1999/02/22-rdf-syntax-ns#">
   <cc:Work>
    <dc:type rdf:resource="http://purl.org/dc/dcmitype/StillImage"/>
    <dc:date>2024-09-11T03:30:50.270678</dc:date>
    <dc:format>image/svg+xml</dc:format>
    <dc:creator>
     <cc:Agent>
      <dc:title>Matplotlib v3.8.3, https://matplotlib.org/</dc:title>
     </cc:Agent>
    </dc:creator>
   </cc:Work>
  </rdf:RDF>
 </metadata>
 <defs>
  <style type="text/css">*{stroke-linejoin: round; stroke-linecap: butt}</style>
 </defs>
 <g id="figure_1">
  <g id="patch_1">
   <path d="M 0 360 
L 398.88 360 
L 398.88 0 
L 0 0 
z
" style="fill: #ffffff"/>
  </g>
  <g id="axes_1">
   <g id="patch_2">
    <path d="M 47.800505 318.04 
L 356.0112 318.04 
L 356.0112 10.8 
L 47.800505 10.8 
z
" style="fill: #ffffff"/>
   </g>
   <g id="matplotlib.axis_1">
    <g id="xtick_1">
     <g id="text_1">
      <!-- f -->
      <g style="fill: #262626" transform="translate(123.464116 332.197812) scale(0.1 -0.1)">
       <defs>
        <path id="ArialMT-66" d="M 556 0 
L 556 2881 
L 59 2881 
L 59 3319 
L 556 3319 
L 556 3672 
Q 556 4006 616 4169 
Q 697 4388 901 4523 
Q 1106 4659 1475 4659 
Q 1713 4659 2000 4603 
L 1916 4113 
Q 1741 4144 1584 4144 
Q 1328 4144 1222 4034 
Q 1116 3925 1116 3625 
L 1116 3319 
L 1763 3319 
L 1763 2881 
L 1116 2881 
L 1116 0 
L 556 0 
z
" transform="scale(0.015625)"/>
       </defs>
       <use xlink:href="#ArialMT-66"/>
      </g>
     </g>
    </g>
    <g id="xtick_2">
     <g id="text_2">
      <!-- m -->
      <g style="fill: #262626" transform="translate(274.793682 332.197812) scale(0.1 -0.1)">
       <defs>
        <path id="ArialMT-6d" d="M 422 0 
L 422 3319 
L 925 3319 
L 925 2853 
Q 1081 3097 1340 3245 
Q 1600 3394 1931 3394 
Q 2300 3394 2536 3241 
Q 2772 3088 2869 2813 
Q 3263 3394 3894 3394 
Q 4388 3394 4653 3120 
Q 4919 2847 4919 2278 
L 4919 0 
L 4359 0 
L 4359 2091 
Q 4359 2428 4304 2576 
Q 4250 2725 4106 2815 
Q 3963 2906 3769 2906 
Q 3419 2906 3187 2673 
Q 2956 2441 2956 1928 
L 2956 0 
L 2394 0 
L 2394 2156 
Q 2394 2531 2256 2718 
Q 2119 2906 1806 2906 
Q 1569 2906 1367 2781 
Q 1166 2656 1075 2415 
Q 984 2175 984 1722 
L 984 0 
L 422 0 
z
" transform="scale(0.015625)"/>
       </defs>
       <use xlink:href="#ArialMT-6d"/>
      </g>
     </g>
    </g>
    <g id="text_3">
     <!-- sex -->
     <g style="fill: #262626" transform="translate(194.125384 345.343125) scale(0.1 -0.1)">
      <defs>
       <path id="ArialMT-73" d="M 197 991 
L 753 1078 
Q 800 744 1014 566 
Q 1228 388 1613 388 
Q 2000 388 2187 545 
Q 2375 703 2375 916 
Q 2375 1106 2209 1216 
Q 2094 1291 1634 1406 
Q 1016 1563 777 1677 
Q 538 1791 414 1992 
Q 291 2194 291 2438 
Q 291 2659 392 2848 
Q 494 3038 669 3163 
Q 800 3259 1026 3326 
Q 1253 3394 1513 3394 
Q 1903 3394 2198 3281 
Q 2494 3169 2634 2976 
Q 2775 2784 2828 2463 
L 2278 2388 
Q 2241 2644 2061 2787 
Q 1881 2931 1553 2931 
Q 1166 2931 1000 2803 
Q 834 2675 834 2503 
Q 834 2394 903 2306 
Q 972 2216 1119 2156 
Q 1203 2125 1616 2013 
Q 2213 1853 2448 1751 
Q 2684 1650 2818 1456 
Q 2953 1263 2953 975 
Q 2953 694 2789 445 
Q 2625 197 2315 61 
Q 2006 -75 1616 -75 
Q 969 -75 630 194 
Q 291 463 197 991 
z
" transform="scale(0.015625)"/>
       <path id="ArialMT-65" d="M 2694 1069 
L 3275 997 
Q 3138 488 2766 206 
Q 2394 -75 1816 -75 
Q 1088 -75 661 373 
Q 234 822 234 1631 
Q 234 2469 665 2931 
Q 1097 3394 1784 3394 
Q 2450 3394 2872 2941 
Q 3294 2488 3294 1666 
Q 3294 1616 3291 1516 
L 816 1516 
Q 847 969 1125 678 
Q 1403 388 1819 388 
Q 2128 388 2347 550 
Q 2566 713 2694 1069 
z
M 847 1978 
L 2700 1978 
Q 2663 2397 2488 2606 
Q 2219 2931 1791 2931 
Q 1403 2931 1139 2672 
Q 875 2413 847 1978 
z
" transform="scale(0.015625)"/>
       <path id="ArialMT-78" d="M 47 0 
L 1259 1725 
L 138 3319 
L 841 3319 
L 1350 2541 
Q 1494 2319 1581 2169 
Q 1719 2375 1834 2534 
L 2394 3319 
L 3066 3319 
L 1919 1756 
L 3153 0 
L 2463 0 
L 1781 1031 
L 1600 1309 
L 728 0 
L 47 0 
z
" transform="scale(0.015625)"/>
      </defs>
      <use xlink:href="#ArialMT-73"/>
      <use xlink:href="#ArialMT-65" x="50"/>
      <use xlink:href="#ArialMT-78" x="105.615234"/>
     </g>
    </g>
   </g>
   <g id="matplotlib.axis_2">
    <g id="ytick_1">
     <g id="line2d_1">
      <path d="M 47.800505 311.843736 
L 356.0112 311.843736 
" clip-path="url(#p98a6d16d78)" style="fill: none; stroke: #cccccc; stroke-width: 0.8; stroke-linecap: round"/>
     </g>
     <g id="text_4">
      <!-- 10 -->
      <g style="fill: #262626" transform="translate(29.67863 315.422642) scale(0.1 -0.1)">
       <defs>
        <path id="ArialMT-31" d="M 2384 0 
L 1822 0 
L 1822 3584 
Q 1619 3391 1289 3197 
Q 959 3003 697 2906 
L 697 3450 
Q 1169 3672 1522 3987 
Q 1875 4303 2022 4600 
L 2384 4600 
L 2384 0 
z
" transform="scale(0.015625)"/>
        <path id="ArialMT-30" d="M 266 2259 
Q 266 3072 433 3567 
Q 600 4063 929 4331 
Q 1259 4600 1759 4600 
Q 2128 4600 2406 4451 
Q 2684 4303 2865 4023 
Q 3047 3744 3150 3342 
Q 3253 2941 3253 2259 
Q 3253 1453 3087 958 
Q 2922 463 2592 192 
Q 2263 -78 1759 -78 
Q 1097 -78 719 397 
Q 266 969 266 2259 
z
M 844 2259 
Q 844 1131 1108 757 
Q 1372 384 1759 384 
Q 2147 384 2411 759 
Q 2675 1134 2675 2259 
Q 2675 3391 2411 3762 
Q 2147 4134 1753 4134 
Q 1366 4134 1134 3806 
Q 844 3388 844 2259 
z
" transform="scale(0.015625)"/>
       </defs>
       <use xlink:href="#ArialMT-31"/>
       <use xlink:href="#ArialMT-30" x="55.615234"/>
      </g>
     </g>
    </g>
    <g id="ytick_2">
     <g id="line2d_2">
      <path d="M 47.800505 248.85968 
L 356.0112 248.85968 
" clip-path="url(#p98a6d16d78)" style="fill: none; stroke: #cccccc; stroke-width: 0.8; stroke-linecap: round"/>
     </g>
     <g id="text_5">
      <!-- 20 -->
      <g style="fill: #262626" transform="translate(29.67863 252.438586) scale(0.1 -0.1)">
       <defs>
        <path id="ArialMT-32" d="M 3222 541 
L 3222 0 
L 194 0 
Q 188 203 259 391 
Q 375 700 629 1000 
Q 884 1300 1366 1694 
Q 2113 2306 2375 2664 
Q 2638 3022 2638 3341 
Q 2638 3675 2398 3904 
Q 2159 4134 1775 4134 
Q 1369 4134 1125 3890 
Q 881 3647 878 3216 
L 300 3275 
Q 359 3922 746 4261 
Q 1134 4600 1788 4600 
Q 2447 4600 2831 4234 
Q 3216 3869 3216 3328 
Q 3216 3053 3103 2787 
Q 2991 2522 2730 2228 
Q 2469 1934 1863 1422 
Q 1356 997 1212 845 
Q 1069 694 975 541 
L 3222 541 
z
" transform="scale(0.015625)"/>
       </defs>
       <use xlink:href="#ArialMT-32"/>
       <use xlink:href="#ArialMT-30" x="55.615234"/>
      </g>
     </g>
    </g>
    <g id="ytick_3">
     <g id="line2d_3">
      <path d="M 47.800505 185.875623 
L 356.0112 185.875623 
" clip-path="url(#p98a6d16d78)" style="fill: none; stroke: #cccccc; stroke-width: 0.8; stroke-linecap: round"/>
     </g>
     <g id="text_6">
      <!-- 30 -->
      <g style="fill: #262626" transform="translate(29.67863 189.45453) scale(0.1 -0.1)">
       <defs>
        <path id="ArialMT-33" d="M 269 1209 
L 831 1284 
Q 928 806 1161 595 
Q 1394 384 1728 384 
Q 2125 384 2398 659 
Q 2672 934 2672 1341 
Q 2672 1728 2419 1979 
Q 2166 2231 1775 2231 
Q 1616 2231 1378 2169 
L 1441 2663 
Q 1497 2656 1531 2656 
Q 1891 2656 2178 2843 
Q 2466 3031 2466 3422 
Q 2466 3731 2256 3934 
Q 2047 4138 1716 4138 
Q 1388 4138 1169 3931 
Q 950 3725 888 3313 
L 325 3413 
Q 428 3978 793 4289 
Q 1159 4600 1703 4600 
Q 2078 4600 2393 4439 
Q 2709 4278 2876 4000 
Q 3044 3722 3044 3409 
Q 3044 3113 2884 2869 
Q 2725 2625 2413 2481 
Q 2819 2388 3044 2092 
Q 3269 1797 3269 1353 
Q 3269 753 2831 336 
Q 2394 -81 1725 -81 
Q 1122 -81 723 278 
Q 325 638 269 1209 
z
" transform="scale(0.015625)"/>
       </defs>
       <use xlink:href="#ArialMT-33"/>
       <use xlink:href="#ArialMT-30" x="55.615234"/>
      </g>
     </g>
    </g>
    <g id="ytick_4">
     <g id="line2d_4">
      <path d="M 47.800505 122.891567 
L 356.0112 122.891567 
" clip-path="url(#p98a6d16d78)" style="fill: none; stroke: #cccccc; stroke-width: 0.8; stroke-linecap: round"/>
     </g>
     <g id="text_7">
      <!-- 40 -->
      <g style="fill: #262626" transform="translate(29.67863 126.470473) scale(0.1 -0.1)">
       <defs>
        <path id="ArialMT-34" d="M 2069 0 
L 2069 1097 
L 81 1097 
L 81 1613 
L 2172 4581 
L 2631 4581 
L 2631 1613 
L 3250 1613 
L 3250 1097 
L 2631 1097 
L 2631 0 
L 2069 0 
z
M 2069 1613 
L 2069 3678 
L 634 1613 
L 2069 1613 
z
" transform="scale(0.015625)"/>
       </defs>
       <use xlink:href="#ArialMT-34"/>
       <use xlink:href="#ArialMT-30" x="55.615234"/>
      </g>
     </g>
    </g>
    <g id="ytick_5">
     <g id="line2d_5">
      <path d="M 47.800505 59.907511 
L 356.0112 59.907511 
" clip-path="url(#p98a6d16d78)" style="fill: none; stroke: #cccccc; stroke-width: 0.8; stroke-linecap: round"/>
     </g>
     <g id="text_8">
      <!-- 50 -->
      <g style="fill: #262626" transform="translate(29.67863 63.486417) scale(0.1 -0.1)">
       <defs>
        <path id="ArialMT-35" d="M 266 1200 
L 856 1250 
Q 922 819 1161 601 
Q 1400 384 1738 384 
Q 2144 384 2425 690 
Q 2706 997 2706 1503 
Q 2706 1984 2436 2262 
Q 2166 2541 1728 2541 
Q 1456 2541 1237 2417 
Q 1019 2294 894 2097 
L 366 2166 
L 809 4519 
L 3088 4519 
L 3088 3981 
L 1259 3981 
L 1013 2750 
Q 1425 3038 1878 3038 
Q 2478 3038 2890 2622 
Q 3303 2206 3303 1553 
Q 3303 931 2941 478 
Q 2500 -78 1738 -78 
Q 1113 -78 717 272 
Q 322 622 266 1200 
z
" transform="scale(0.015625)"/>
       </defs>
       <use xlink:href="#ArialMT-35"/>
       <use xlink:href="#ArialMT-30" x="55.615234"/>
      </g>
     </g>
    </g>
    <g id="text_9">
     <!-- Ventilation (l/min) -->
     <g style="fill: #262626" transform="translate(23.573942 202.768438) rotate(-90) scale(0.1 -0.1)">
      <defs>
       <path id="ArialMT-56" d="M 1803 0 
L 28 4581 
L 684 4581 
L 1875 1253 
Q 2019 853 2116 503 
Q 2222 878 2363 1253 
L 3600 4581 
L 4219 4581 
L 2425 0 
L 1803 0 
z
" transform="scale(0.015625)"/>
       <path id="ArialMT-6e" d="M 422 0 
L 422 3319 
L 928 3319 
L 928 2847 
Q 1294 3394 1984 3394 
Q 2284 3394 2536 3286 
Q 2788 3178 2913 3003 
Q 3038 2828 3088 2588 
Q 3119 2431 3119 2041 
L 3119 0 
L 2556 0 
L 2556 2019 
Q 2556 2363 2490 2533 
Q 2425 2703 2258 2804 
Q 2091 2906 1866 2906 
Q 1506 2906 1245 2678 
Q 984 2450 984 1813 
L 984 0 
L 422 0 
z
" transform="scale(0.015625)"/>
       <path id="ArialMT-74" d="M 1650 503 
L 1731 6 
Q 1494 -44 1306 -44 
Q 1000 -44 831 53 
Q 663 150 594 308 
Q 525 466 525 972 
L 525 2881 
L 113 2881 
L 113 3319 
L 525 3319 
L 525 4141 
L 1084 4478 
L 1084 3319 
L 1650 3319 
L 1650 2881 
L 1084 2881 
L 1084 941 
Q 1084 700 1114 631 
Q 1144 563 1211 522 
Q 1278 481 1403 481 
Q 1497 481 1650 503 
z
" transform="scale(0.015625)"/>
       <path id="ArialMT-69" d="M 425 3934 
L 425 4581 
L 988 4581 
L 988 3934 
L 425 3934 
z
M 425 0 
L 425 3319 
L 988 3319 
L 988 0 
L 425 0 
z
" transform="scale(0.015625)"/>
       <path id="ArialMT-6c" d="M 409 0 
L 409 4581 
L 972 4581 
L 972 0 
L 409 0 
z
" transform="scale(0.015625)"/>
       <path id="ArialMT-61" d="M 2588 409 
Q 2275 144 1986 34 
Q 1697 -75 1366 -75 
Q 819 -75 525 192 
Q 231 459 231 875 
Q 231 1119 342 1320 
Q 453 1522 633 1644 
Q 813 1766 1038 1828 
Q 1203 1872 1538 1913 
Q 2219 1994 2541 2106 
Q 2544 2222 2544 2253 
Q 2544 2597 2384 2738 
Q 2169 2928 1744 2928 
Q 1347 2928 1158 2789 
Q 969 2650 878 2297 
L 328 2372 
Q 403 2725 575 2942 
Q 747 3159 1072 3276 
Q 1397 3394 1825 3394 
Q 2250 3394 2515 3294 
Q 2781 3194 2906 3042 
Q 3031 2891 3081 2659 
Q 3109 2516 3109 2141 
L 3109 1391 
Q 3109 606 3145 398 
Q 3181 191 3288 0 
L 2700 0 
Q 2613 175 2588 409 
z
M 2541 1666 
Q 2234 1541 1622 1453 
Q 1275 1403 1131 1340 
Q 988 1278 909 1158 
Q 831 1038 831 891 
Q 831 666 1001 516 
Q 1172 366 1500 366 
Q 1825 366 2078 508 
Q 2331 650 2450 897 
Q 2541 1088 2541 1459 
L 2541 1666 
z
" transform="scale(0.015625)"/>
       <path id="ArialMT-6f" d="M 213 1659 
Q 213 2581 725 3025 
Q 1153 3394 1769 3394 
Q 2453 3394 2887 2945 
Q 3322 2497 3322 1706 
Q 3322 1066 3130 698 
Q 2938 331 2570 128 
Q 2203 -75 1769 -75 
Q 1072 -75 642 372 
Q 213 819 213 1659 
z
M 791 1659 
Q 791 1022 1069 705 
Q 1347 388 1769 388 
Q 2188 388 2466 706 
Q 2744 1025 2744 1678 
Q 2744 2294 2464 2611 
Q 2184 2928 1769 2928 
Q 1347 2928 1069 2612 
Q 791 2297 791 1659 
z
" transform="scale(0.015625)"/>
       <path id="ArialMT-20" transform="scale(0.015625)"/>
       <path id="ArialMT-28" d="M 1497 -1347 
Q 1031 -759 709 28 
Q 388 816 388 1659 
Q 388 2403 628 3084 
Q 909 3875 1497 4659 
L 1900 4659 
Q 1522 4009 1400 3731 
Q 1209 3300 1100 2831 
Q 966 2247 966 1656 
Q 966 153 1900 -1347 
L 1497 -1347 
z
" transform="scale(0.015625)"/>
       <path id="ArialMT-2f" d="M 0 -78 
L 1328 4659 
L 1778 4659 
L 453 -78 
L 0 -78 
z
" transform="scale(0.015625)"/>
       <path id="ArialMT-29" d="M 791 -1347 
L 388 -1347 
Q 1322 153 1322 1656 
Q 1322 2244 1188 2822 
Q 1081 3291 891 3722 
Q 769 4003 388 4659 
L 791 4659 
Q 1378 3875 1659 3084 
Q 1900 2403 1900 1659 
Q 1900 816 1576 28 
Q 1253 -759 791 -1347 
z
" transform="scale(0.015625)"/>
      </defs>
      <use xlink:href="#ArialMT-56"/>
      <use xlink:href="#ArialMT-65" x="61.199219"/>
      <use xlink:href="#ArialMT-6e" x="116.814453"/>
      <use xlink:href="#ArialMT-74" x="172.429688"/>
      <use xlink:href="#ArialMT-69" x="200.212891"/>
      <use xlink:href="#ArialMT-6c" x="222.429688"/>
      <use xlink:href="#ArialMT-61" x="244.646484"/>
      <use xlink:href="#ArialMT-74" x="300.261719"/>
      <use xlink:href="#ArialMT-69" x="328.044922"/>
      <use xlink:href="#ArialMT-6f" x="350.261719"/>
      <use xlink:href="#ArialMT-6e" x="405.876953"/>
      <use xlink:href="#ArialMT-20" x="461.492188"/>
      <use xlink:href="#ArialMT-28" x="489.275391"/>
      <use xlink:href="#ArialMT-6c" x="522.576172"/>
      <use xlink:href="#ArialMT-2f" x="544.792969"/>
      <use xlink:href="#ArialMT-6d" x="572.576172"/>
      <use xlink:href="#ArialMT-69" x="655.876953"/>
      <use xlink:href="#ArialMT-6e" x="678.09375"/>
      <use xlink:href="#ArialMT-29" x="733.708984"/>
     </g>
    </g>
   </g>
   <g id="patch_3">
    <path d="M 47.800505 318.04 
L 47.800505 10.8 
" style="fill: none; stroke: #cccccc; stroke-width: 0.8; stroke-linejoin: miter; stroke-linecap: square"/>
   </g>
   <g id="patch_4">
    <path d="M 47.800505 318.04 
L 356.0112 318.04 
" style="fill: none; stroke: #cccccc; stroke-width: 0.8; stroke-linejoin: miter; stroke-linecap: square"/>
   </g>
   <g id="PathCollection_1">
    <defs>
     <path id="C0_0_0fc20309b5" d="M 0 2.5 
C 0.663008 2.5 1.29895 2.236584 1.767767 1.767767 
C 2.236584 1.29895 2.5 0.663008 2.5 -0 
C 2.5 -0.663008 2.236584 -1.29895 1.767767 -1.767767 
C 1.29895 -2.236584 0.663008 -2.5 0 -2.5 
C -0.663008 -2.5 -1.29895 -2.236584 -1.767767 -1.767767 
C -2.236584 -1.29895 -2.5 -0.663008 -2.5 0 
C -2.5 0.663008 -2.236584 1.29895 -1.767767 1.767767 
C -1.29895 2.236584 -0.663008 2.5 0 2.5 
z
"/>
    </defs>
    <g clip-path="url(#p98a6d16d78)">
     <use xlink:href="#C0_0_0fc20309b5" x="101.040155" y="197.28574" style="fill: #1f77b4"/>
    </g>
    <g clip-path="url(#p98a6d16d78)">
     <use xlink:href="#C0_0_0fc20309b5" x="98.804712" y="168.837077" style="fill: #1f77b4"/>
    </g>
    <g clip-path="url(#p98a6d16d78)">
     <use xlink:href="#C0_0_0fc20309b5" x="93.076279" y="195.2021" style="fill: #1f77b4"/>
    </g>
    <g clip-path="url(#p98a6d16d78)">
     <use xlink:href="#C0_0_0fc20309b5" x="88.758251" y="24.765455" style="fill: #1f77b4"/>
    </g>
    <g clip-path="url(#p98a6d16d78)">
     <use xlink:href="#C0_0_0fc20309b5" x="87.814938" y="218.104368" style="fill: #1f77b4"/>
    </g>
    <g clip-path="url(#p98a6d16d78)">
     <use xlink:href="#C0_0_0fc20309b5" x="96.931909" y="195.536869" style="fill: #1f77b4"/>
    </g>
    <g clip-path="url(#p98a6d16d78)">
     <use xlink:href="#C0_0_0fc20309b5" x="101.205806" y="233.838327" style="fill: #1f77b4"/>
    </g>
    <g clip-path="url(#p98a6d16d78)">
     <use xlink:href="#C0_0_0fc20309b5" x="96.027405" y="220.654417" style="fill: #1f77b4"/>
    </g>
    <g clip-path="url(#p98a6d16d78)">
     <use xlink:href="#C0_0_0fc20309b5" x="96.430999" y="183.399795" style="fill: #1f77b4"/>
    </g>
    <g clip-path="url(#p98a6d16d78)">
     <use xlink:href="#C0_0_0fc20309b5" x="90.773826" y="198.087296" style="fill: #1f77b4"/>
    </g>
    <g clip-path="url(#p98a6d16d78)">
     <use xlink:href="#C0_0_0fc20309b5" x="92.006397" y="67.641509" style="fill: #1f77b4"/>
    </g>
    <g clip-path="url(#p98a6d16d78)">
     <use xlink:href="#C0_0_0fc20309b5" x="92.886409" y="97.617569" style="fill: #1f77b4"/>
    </g>
    <g clip-path="url(#p98a6d16d78)">
     <use xlink:href="#C0_0_0fc20309b5" x="87.43598" y="73.82364" style="fill: #1f77b4"/>
    </g>
    <g clip-path="url(#p98a6d16d78)">
     <use xlink:href="#C0_0_0fc20309b5" x="89.501097" y="266.578581" style="fill: #1f77b4"/>
    </g>
    <g clip-path="url(#p98a6d16d78)">
     <use xlink:href="#C0_0_0fc20309b5" x="94.210356" y="137.090763" style="fill: #1f77b4"/>
    </g>
   </g>
   <g id="PathCollection_2">
    <defs>
     <path id="C1_0_d5ba24d6d4" d="M 0 2.5 
C 0.663008 2.5 1.29895 2.236584 1.767767 1.767767 
C 2.236584 1.29895 2.5 0.663008 2.5 -0 
C 2.5 -0.663008 2.236584 -1.29895 1.767767 -1.767767 
C 1.29895 -2.236584 0.663008 -2.5 0 -2.5 
C -0.663008 -2.5 -1.29895 -2.236584 -1.767767 -1.767767 
C -2.236584 -1.29895 -2.5 -0.663008 -2.5 0 
C -2.5 0.663008 -2.236584 1.29895 -1.767767 1.767767 
C -1.29895 2.236584 -0.663008 2.5 0 2.5 
z
"/>
    </defs>
    <g clip-path="url(#p98a6d16d78)">
     <use xlink:href="#C1_0_d5ba24d6d4" x="149.028758" y="176.518268" style="fill: #ff7f0e"/>
    </g>
    <g clip-path="url(#p98a6d16d78)">
     <use xlink:href="#C1_0_d5ba24d6d4" x="153.538201" y="145.104138" style="fill: #ff7f0e"/>
    </g>
    <g clip-path="url(#p98a6d16d78)">
     <use xlink:href="#C1_0_d5ba24d6d4" x="158.986081" y="152.630424" style="fill: #ff7f0e"/>
    </g>
    <g clip-path="url(#p98a6d16d78)">
     <use xlink:href="#C1_0_d5ba24d6d4" x="157.215374" y="63.245011" style="fill: #ff7f0e"/>
    </g>
    <g clip-path="url(#p98a6d16d78)">
     <use xlink:href="#C1_0_d5ba24d6d4" x="153.606701" y="191.408374" style="fill: #ff7f0e"/>
    </g>
    <g clip-path="url(#p98a6d16d78)">
     <use xlink:href="#C1_0_d5ba24d6d4" x="159.135073" y="255.756555" style="fill: #ff7f0e"/>
    </g>
    <g clip-path="url(#p98a6d16d78)">
     <use xlink:href="#C1_0_d5ba24d6d4" x="161.644332" y="167.834559" style="fill: #ff7f0e"/>
    </g>
    <g clip-path="url(#p98a6d16d78)">
     <use xlink:href="#C1_0_d5ba24d6d4" x="156.08102" y="225.264731" style="fill: #ff7f0e"/>
    </g>
    <g clip-path="url(#p98a6d16d78)">
     <use xlink:href="#C1_0_d5ba24d6d4" x="154.492684" y="243.029319" style="fill: #ff7f0e"/>
    </g>
    <g clip-path="url(#p98a6d16d78)">
     <use xlink:href="#C1_0_d5ba24d6d4" x="153.294875" y="230.793435" style="fill: #ff7f0e"/>
    </g>
    <g clip-path="url(#p98a6d16d78)">
     <use xlink:href="#C1_0_d5ba24d6d4" x="148.13845" y="302.826405" style="fill: #ff7f0e"/>
    </g>
    <g clip-path="url(#p98a6d16d78)">
     <use xlink:href="#C1_0_d5ba24d6d4" x="162.400565" y="179.241943" style="fill: #ff7f0e"/>
    </g>
    <g clip-path="url(#p98a6d16d78)">
     <use xlink:href="#C1_0_d5ba24d6d4" x="160.041462" y="249.940115" style="fill: #ff7f0e"/>
    </g>
    <g clip-path="url(#p98a6d16d78)">
     <use xlink:href="#C1_0_d5ba24d6d4" x="160.471136" y="278.827042" style="fill: #ff7f0e"/>
    </g>
    <g clip-path="url(#p98a6d16d78)">
     <use xlink:href="#C1_0_d5ba24d6d4" x="162.625387" y="139.318701" style="fill: #ff7f0e"/>
    </g>
   </g>
   <g id="PathCollection_3">
    <defs>
     <path id="C2_0_5c290b3e0c" d="M 0 2.5 
C 0.663008 2.5 1.29895 2.236584 1.767767 1.767767 
C 2.236584 1.29895 2.5 0.663008 2.5 -0 
C 2.5 -0.663008 2.236584 -1.29895 1.767767 -1.767767 
C 1.29895 -2.236584 0.663008 -2.5 0 -2.5 
C -0.663008 -2.5 -1.29895 -2.236584 -1.767767 -1.767767 
C -2.236584 -1.29895 -2.5 -0.663008 -2.5 0 
C -2.5 0.663008 -2.236584 1.29895 -1.767767 1.767767 
C -1.29895 2.236584 -0.663008 2.5 0 2.5 
z
"/>
    </defs>
    <g clip-path="url(#p98a6d16d78)">
     <use xlink:href="#C2_0_5c290b3e0c" x="245.579488" y="208.943654" style="fill: #1f77b4"/>
    </g>
    <g clip-path="url(#p98a6d16d78)">
     <use xlink:href="#C2_0_5c290b3e0c" x="240.501767" y="94.94046" style="fill: #1f77b4"/>
    </g>
    <g clip-path="url(#p98a6d16d78)">
     <use xlink:href="#C2_0_5c290b3e0c" x="249.027151" y="197.317607" style="fill: #1f77b4"/>
    </g>
    <g clip-path="url(#p98a6d16d78)">
     <use xlink:href="#C2_0_5c290b3e0c" x="252.759282" y="205.436777" style="fill: #1f77b4"/>
    </g>
    <g clip-path="url(#p98a6d16d78)">
     <use xlink:href="#C2_0_5c290b3e0c" x="244.182278" y="48.767967" style="fill: #1f77b4"/>
    </g>
    <g clip-path="url(#p98a6d16d78)">
     <use xlink:href="#C2_0_5c290b3e0c" x="252.47523" y="164.531023" style="fill: #1f77b4"/>
    </g>
    <g clip-path="url(#p98a6d16d78)">
     <use xlink:href="#C2_0_5c290b3e0c" x="245.93731" y="159.541425" style="fill: #1f77b4"/>
    </g>
    <g clip-path="url(#p98a6d16d78)">
     <use xlink:href="#C2_0_5c290b3e0c" x="254.481522" y="233.947321" style="fill: #1f77b4"/>
    </g>
    <g clip-path="url(#p98a6d16d78)">
     <use xlink:href="#C2_0_5c290b3e0c" x="251.545193" y="192.024592" style="fill: #1f77b4"/>
    </g>
    <g clip-path="url(#p98a6d16d78)">
     <use xlink:href="#C2_0_5c290b3e0c" x="249.220473" y="128.606186" style="fill: #1f77b4"/>
    </g>
    <g clip-path="url(#p98a6d16d78)">
     <use xlink:href="#C2_0_5c290b3e0c" x="248.02201" y="167.123659" style="fill: #1f77b4"/>
    </g>
    <g clip-path="url(#p98a6d16d78)">
     <use xlink:href="#C2_0_5c290b3e0c" x="244.446332" y="220.267842" style="fill: #1f77b4"/>
    </g>
    <g clip-path="url(#p98a6d16d78)">
     <use xlink:href="#C2_0_5c290b3e0c" x="247.662446" y="103.908498" style="fill: #1f77b4"/>
    </g>
    <g clip-path="url(#p98a6d16d78)">
     <use xlink:href="#C2_0_5c290b3e0c" x="249.948028" y="171.642932" style="fill: #1f77b4"/>
    </g>
    <g clip-path="url(#p98a6d16d78)">
     <use xlink:href="#C2_0_5c290b3e0c" x="251.407574" y="58.430965" style="fill: #1f77b4"/>
    </g>
    <g clip-path="url(#p98a6d16d78)">
     <use xlink:href="#C2_0_5c290b3e0c" x="240.634365" y="232.684982" style="fill: #1f77b4"/>
    </g>
    <g clip-path="url(#p98a6d16d78)">
     <use xlink:href="#C2_0_5c290b3e0c" x="255.433555" y="58.536654" style="fill: #1f77b4"/>
    </g>
    <g clip-path="url(#p98a6d16d78)">
     <use xlink:href="#C2_0_5c290b3e0c" x="251.481221" y="256.916904" style="fill: #1f77b4"/>
    </g>
    <g clip-path="url(#p98a6d16d78)">
     <use xlink:href="#C2_0_5c290b3e0c" x="254.550757" y="96.510653" style="fill: #1f77b4"/>
    </g>
    <g clip-path="url(#p98a6d16d78)">
     <use xlink:href="#C2_0_5c290b3e0c" x="255.192815" y="82.436361" style="fill: #1f77b4"/>
    </g>
    <g clip-path="url(#p98a6d16d78)">
     <use xlink:href="#C2_0_5c290b3e0c" x="249.98376" y="304.074545" style="fill: #1f77b4"/>
    </g>
    <g clip-path="url(#p98a6d16d78)">
     <use xlink:href="#C2_0_5c290b3e0c" x="247.126339" y="126.823523" style="fill: #1f77b4"/>
    </g>
    <g clip-path="url(#p98a6d16d78)">
     <use xlink:href="#C2_0_5c290b3e0c" x="252.8772" y="120.694619" style="fill: #1f77b4"/>
    </g>
    <g clip-path="url(#p98a6d16d78)">
     <use xlink:href="#C2_0_5c290b3e0c" x="252.65999" y="230.110065" style="fill: #1f77b4"/>
    </g>
   </g>
   <g id="PathCollection_4">
    <defs>
     <path id="C3_0_56199f2847" d="M 0 2.5 
C 0.663008 2.5 1.29895 2.236584 1.767767 1.767767 
C 2.236584 1.29895 2.5 0.663008 2.5 -0 
C 2.5 -0.663008 2.236584 -1.29895 1.767767 -1.767767 
C 1.29895 -2.236584 0.663008 -2.5 0 -2.5 
C -0.663008 -2.5 -1.29895 -2.236584 -1.767767 -1.767767 
C -2.236584 -1.29895 -2.5 -0.663008 -2.5 0 
C -2.5 0.663008 -2.236584 1.29895 -1.767767 1.767767 
C -1.29895 2.236584 -0.663008 2.5 0 2.5 
z
"/>
    </defs>
    <g clip-path="url(#p98a6d16d78)">
     <use xlink:href="#C3_0_56199f2847" x="303.469757" y="207.534743" style="fill: #ff7f0e"/>
    </g>
    <g clip-path="url(#p98a6d16d78)">
     <use xlink:href="#C3_0_56199f2847" x="309.664657" y="188.584265" style="fill: #ff7f0e"/>
    </g>
    <g clip-path="url(#p98a6d16d78)">
     <use xlink:href="#C3_0_56199f2847" x="313.541506" y="208.707665" style="fill: #ff7f0e"/>
    </g>
    <g clip-path="url(#p98a6d16d78)">
     <use xlink:href="#C3_0_56199f2847" x="306.781933" y="257.186167" style="fill: #ff7f0e"/>
    </g>
    <g clip-path="url(#p98a6d16d78)">
     <use xlink:href="#C3_0_56199f2847" x="312.616105" y="228.093804" style="fill: #ff7f0e"/>
    </g>
    <g clip-path="url(#p98a6d16d78)">
     <use xlink:href="#C3_0_56199f2847" x="309.251258" y="186.857733" style="fill: #ff7f0e"/>
    </g>
    <g clip-path="url(#p98a6d16d78)">
     <use xlink:href="#C3_0_56199f2847" x="305.649991" y="267.286626" style="fill: #ff7f0e"/>
    </g>
    <g clip-path="url(#p98a6d16d78)">
     <use xlink:href="#C3_0_56199f2847" x="309.210347" y="216.149162" style="fill: #ff7f0e"/>
    </g>
    <g clip-path="url(#p98a6d16d78)">
     <use xlink:href="#C3_0_56199f2847" x="315.940121" y="229.961149" style="fill: #ff7f0e"/>
    </g>
    <g clip-path="url(#p98a6d16d78)">
     <use xlink:href="#C3_0_56199f2847" x="314.962786" y="94.424401" style="fill: #ff7f0e"/>
    </g>
    <g clip-path="url(#p98a6d16d78)">
     <use xlink:href="#C3_0_56199f2847" x="310.149936" y="224.645311" style="fill: #ff7f0e"/>
    </g>
    <g clip-path="url(#p98a6d16d78)">
     <use xlink:href="#C3_0_56199f2847" x="313.786041" y="236.912349" style="fill: #ff7f0e"/>
    </g>
    <g clip-path="url(#p98a6d16d78)">
     <use xlink:href="#C3_0_56199f2847" x="307.737955" y="231.186684" style="fill: #ff7f0e"/>
    </g>
    <g clip-path="url(#p98a6d16d78)">
     <use xlink:href="#C3_0_56199f2847" x="316.430336" y="241.793799" style="fill: #ff7f0e"/>
    </g>
    <g clip-path="url(#p98a6d16d78)">
     <use xlink:href="#C3_0_56199f2847" x="314.674449" y="181.034202" style="fill: #ff7f0e"/>
    </g>
    <g clip-path="url(#p98a6d16d78)">
     <use xlink:href="#C3_0_56199f2847" x="302.113478" y="253.175804" style="fill: #ff7f0e"/>
    </g>
    <g clip-path="url(#p98a6d16d78)">
     <use xlink:href="#C3_0_56199f2847" x="316.443512" y="148.9201" style="fill: #ff7f0e"/>
    </g>
    <g clip-path="url(#p98a6d16d78)">
     <use xlink:href="#C3_0_56199f2847" x="311.205795" y="251.065045" style="fill: #ff7f0e"/>
    </g>
    <g clip-path="url(#p98a6d16d78)">
     <use xlink:href="#C3_0_56199f2847" x="307.967042" y="259.619857" style="fill: #ff7f0e"/>
    </g>
    <g clip-path="url(#p98a6d16d78)">
     <use xlink:href="#C3_0_56199f2847" x="308.659926" y="224.822212" style="fill: #ff7f0e"/>
    </g>
    <g clip-path="url(#p98a6d16d78)">
     <use xlink:href="#C3_0_56199f2847" x="310.781735" y="192.330238" style="fill: #ff7f0e"/>
    </g>
    <g clip-path="url(#p98a6d16d78)">
     <use xlink:href="#C3_0_56199f2847" x="308.170762" y="192.223181" style="fill: #ff7f0e"/>
    </g>
    <g clip-path="url(#p98a6d16d78)">
     <use xlink:href="#C3_0_56199f2847" x="316.267282" y="239.797279" style="fill: #ff7f0e"/>
    </g>
    <g clip-path="url(#p98a6d16d78)">
     <use xlink:href="#C3_0_56199f2847" x="312.019376" y="124.435406" style="fill: #ff7f0e"/>
    </g>
   </g>
   <g id="line2d_6"/>
   <g id="line2d_7"/>
  </g>
  <g id="legend_1">
   <g id="text_10">
    <!-- time -->
    <g style="fill: #262626" transform="translate(365.045625 168.439844) scale(0.1 -0.1)">
     <use xlink:href="#ArialMT-74"/>
     <use xlink:href="#ArialMT-69" x="27.783203"/>
     <use xlink:href="#ArialMT-6d" x="50"/>
     <use xlink:href="#ArialMT-65" x="133.300781"/>
    </g>
   </g>
   <g id="line2d_8">
    <defs>
     <path id="m7f12b65e46" d="M 0 2.5 
C 0.663008 2.5 1.29895 2.236584 1.767767 1.767767 
C 2.236584 1.29895 2.5 0.663008 2.5 0 
C 2.5 -0.663008 2.236584 -1.29895 1.767767 -1.767767 
C 1.29895 -2.236584 0.663008 -2.5 0 -2.5 
C -0.663008 -2.5 -1.29895 -2.236584 -1.767767 -1.767767 
C -2.236584 -1.29895 -2.5 -0.663008 -2.5 0 
C -2.5 0.663008 -2.236584 1.29895 -1.767767 1.767767 
C -1.29895 2.236584 -0.663008 2.5 0 2.5 
z
"/>
    </defs>
    <g>
     <use xlink:href="#m7f12b65e46" x="369.101875" y="179.085156" style="fill: #1f77b4"/>
    </g>
   </g>
   <g id="text_11">
    <!-- i -->
    <g style="fill: #262626" transform="translate(387.101875 182.585156) scale(0.1 -0.1)">
     <use xlink:href="#ArialMT-69"/>
    </g>
   </g>
   <g id="line2d_9">
    <defs>
     <path id="m4bec01ac76" d="M 0 2.5 
C 0.663008 2.5 1.29895 2.236584 1.767767 1.767767 
C 2.236584 1.29895 2.5 0.663008 2.5 0 
C 2.5 -0.663008 2.236584 -1.29895 1.767767 -1.767767 
C 1.29895 -2.236584 0.663008 -2.5 0 -2.5 
C -0.663008 -2.5 -1.29895 -2.236584 -1.767767 -1.767767 
C -2.236584 -1.29895 -2.5 -0.663008 -2.5 0 
C -2.5 0.663008 -2.236584 1.29895 -1.767767 1.767767 
C -1.29895 2.236584 -0.663008 2.5 0 2.5 
z
"/>
    </defs>
    <g>
     <use xlink:href="#m4bec01ac76" x="369.101875" y="193.230469" style="fill: #ff7f0e"/>
    </g>
   </g>
   <g id="text_12">
    <!-- f -->
    <g style="fill: #262626" transform="translate(387.101875 196.730469) scale(0.1 -0.1)">
     <use xlink:href="#ArialMT-66"/>
    </g>
   </g>
  </g>
 </g>
 <defs>
  <clipPath id="p98a6d16d78">
   <rect x="47.800505" y="10.8" width="308.210695" height="307.24"/>
  </clipPath>
 </defs>
</svg>
