<?xml version="1.0" encoding="utf-8" standalone="no"?>
<!DOCTYPE svg PUBLIC "-//W3C//DTD SVG 1.1//EN"
  "http://www.w3.org/Graphics/SVG/1.1/DTD/svg11.dtd">
<svg xmlns:xlink="http://www.w3.org/1999/xlink" width="398.88pt" height="360pt" viewBox="0 0 398.88 360" xmlns="http://www.w3.org/2000/svg" version="1.1">
 <metadata>
  <rdf:RDF xmlns:dc="http://purl.org/dc/elements/1.1/" xmlns:cc="http://creativecommons.org/ns#" xmlns:rdf="http://www.w3.org/1999/02/22-rdf-syntax-ns#">
   <cc:Work>
    <dc:type rdf:resource="http://purl.org/dc/dcmitype/StillImage"/>
    <dc:date>2024-09-11T03:30:50.845170</dc:date>
    <dc:format>image/svg+xml</dc:format>
    <dc:creator>
     <cc:Agent>
      <dc:title>Matplotlib v3.8.3, https://matplotlib.org/</dc:title>
     </cc:Agent>
    </dc:creator>
   </cc:Work>
  </rdf:RDF>
 </metadata>
 <defs>
  <style type="text/css">*{stroke-linejoin: round; stroke-linecap: butt}</style>
 </defs>
 <g id="figure_1">
  <g id="patch_1">
   <path d="M 0 360 
L 398.88 360 
L 398.88 0 
L 0 0 
z
" style="fill: #ffffff"/>
  </g>
  <g id="axes_1">
   <g id="patch_2">
    <path d="M 50.891825 318.04 
L 356.0112 318.04 
L 356.0112 10.8 
L 50.891825 10.8 
z
" style="fill: #ffffff"/>
   </g>
   <g id="matplotlib.axis_1">
    <g id="xtick_1">
     <g id="text_1">
      <!-- f -->
      <g style="fill: #262626" transform="translate(125.782606 332.197812) scale(0.1 -0.1)">
       <defs>
        <path id="ArialMT-66" d="M 556 0 
L 556 2881 
L 59 2881 
L 59 3319 
L 556 3319 
L 556 3672 
Q 556 4006 616 4169 
Q 697 4388 901 4523 
Q 1106 4659 1475 4659 
Q 1713 4659 2000 4603 
L 1916 4113 
Q 1741 4144 1584 4144 
Q 1328 4144 1222 4034 
Q 1116 3925 1116 3625 
L 1116 3319 
L 1763 3319 
L 1763 2881 
L 1116 2881 
L 1116 0 
L 556 0 
z
" transform="scale(0.015625)"/>
       </defs>
       <use xlink:href="#ArialMT-66"/>
      </g>
     </g>
    </g>
    <g id="xtick_2">
     <g id="text_2">
      <!-- m -->
      <g style="fill: #262626" transform="translate(275.566512 332.197812) scale(0.1 -0.1)">
       <defs>
        <path id="ArialMT-6d" d="M 422 0 
L 422 3319 
L 925 3319 
L 925 2853 
Q 1081 3097 1340 3245 
Q 1600 3394 1931 3394 
Q 2300 3394 2536 3241 
Q 2772 3088 2869 2813 
Q 3263 3394 3894 3394 
Q 4388 3394 4653 3120 
Q 4919 2847 4919 2278 
L 4919 0 
L 4359 0 
L 4359 2091 
Q 4359 2428 4304 2576 
Q 4250 2725 4106 2815 
Q 3963 2906 3769 2906 
Q 3419 2906 3187 2673 
Q 2956 2441 2956 1928 
L 2956 0 
L 2394 0 
L 2394 2156 
Q 2394 2531 2256 2718 
Q 2119 2906 1806 2906 
Q 1569 2906 1367 2781 
Q 1166 2656 1075 2415 
Q 984 2175 984 1722 
L 984 0 
L 422 0 
z
" transform="scale(0.015625)"/>
       </defs>
       <use xlink:href="#ArialMT-6d"/>
      </g>
     </g>
    </g>
    <g id="text_3">
     <!-- sex -->
     <g style="fill: #262626" transform="translate(195.671044 345.343125) scale(0.1 -0.1)">
      <defs>
       <path id="ArialMT-73" d="M 197 991 
L 753 1078 
Q 800 744 1014 566 
Q 1228 388 1613 388 
Q 2000 388 2187 545 
Q 2375 703 2375 916 
Q 2375 1106 2209 1216 
Q 2094 1291 1634 1406 
Q 1016 1563 777 1677 
Q 538 1791 414 1992 
Q 291 2194 291 2438 
Q 291 2659 392 2848 
Q 494 3038 669 3163 
Q 800 3259 1026 3326 
Q 1253 3394 1513 3394 
Q 1903 3394 2198 3281 
Q 2494 3169 2634 2976 
Q 2775 2784 2828 2463 
L 2278 2388 
Q 2241 2644 2061 2787 
Q 1881 2931 1553 2931 
Q 1166 2931 1000 2803 
Q 834 2675 834 2503 
Q 834 2394 903 2306 
Q 972 2216 1119 2156 
Q 1203 2125 1616 2013 
Q 2213 1853 2448 1751 
Q 2684 1650 2818 1456 
Q 2953 1263 2953 975 
Q 2953 694 2789 445 
Q 2625 197 2315 61 
Q 2006 -75 1616 -75 
Q 969 -75 630 194 
Q 291 463 197 991 
z
" transform="scale(0.015625)"/>
       <path id="ArialMT-65" d="M 2694 1069 
L 3275 997 
Q 3138 488 2766 206 
Q 2394 -75 1816 -75 
Q 1088 -75 661 373 
Q 234 822 234 1631 
Q 234 2469 665 2931 
Q 1097 3394 1784 3394 
Q 2450 3394 2872 2941 
Q 3294 2488 3294 1666 
Q 3294 1616 3291 1516 
L 816 1516 
Q 847 969 1125 678 
Q 1403 388 1819 388 
Q 2128 388 2347 550 
Q 2566 713 2694 1069 
z
M 847 1978 
L 2700 1978 
Q 2663 2397 2488 2606 
Q 2219 2931 1791 2931 
Q 1403 2931 1139 2672 
Q 875 2413 847 1978 
z
" transform="scale(0.015625)"/>
       <path id="ArialMT-78" d="M 47 0 
L 1259 1725 
L 138 3319 
L 841 3319 
L 1350 2541 
Q 1494 2319 1581 2169 
Q 1719 2375 1834 2534 
L 2394 3319 
L 3066 3319 
L 1919 1756 
L 3153 0 
L 2463 0 
L 1781 1031 
L 1600 1309 
L 728 0 
L 47 0 
z
" transform="scale(0.015625)"/>
      </defs>
      <use xlink:href="#ArialMT-73"/>
      <use xlink:href="#ArialMT-65" x="50"/>
      <use xlink:href="#ArialMT-78" x="105.615234"/>
     </g>
    </g>
   </g>
   <g id="matplotlib.axis_2">
    <g id="ytick_1">
     <g id="line2d_1">
      <path d="M 50.891825 283.948916 
L 356.0112 283.948916 
" clip-path="url(#p14d77c8926)" style="fill: none; stroke: #cccccc; stroke-width: 0.8; stroke-linecap: round"/>
     </g>
     <g id="text_4">
      <!-- 0.6 -->
      <g style="fill: #262626" transform="translate(29.991825 287.527822) scale(0.1 -0.1)">
       <defs>
        <path id="ArialMT-30" d="M 266 2259 
Q 266 3072 433 3567 
Q 600 4063 929 4331 
Q 1259 4600 1759 4600 
Q 2128 4600 2406 4451 
Q 2684 4303 2865 4023 
Q 3047 3744 3150 3342 
Q 3253 2941 3253 2259 
Q 3253 1453 3087 958 
Q 2922 463 2592 192 
Q 2263 -78 1759 -78 
Q 1097 -78 719 397 
Q 266 969 266 2259 
z
M 844 2259 
Q 844 1131 1108 757 
Q 1372 384 1759 384 
Q 2147 384 2411 759 
Q 2675 1134 2675 2259 
Q 2675 3391 2411 3762 
Q 2147 4134 1753 4134 
Q 1366 4134 1134 3806 
Q 844 3388 844 2259 
z
" transform="scale(0.015625)"/>
        <path id="ArialMT-2e" d="M 581 0 
L 581 641 
L 1222 641 
L 1222 0 
L 581 0 
z
" transform="scale(0.015625)"/>
        <path id="ArialMT-36" d="M 3184 3459 
L 2625 3416 
Q 2550 3747 2413 3897 
Q 2184 4138 1850 4138 
Q 1581 4138 1378 3988 
Q 1113 3794 959 3422 
Q 806 3050 800 2363 
Q 1003 2672 1297 2822 
Q 1591 2972 1913 2972 
Q 2475 2972 2870 2558 
Q 3266 2144 3266 1488 
Q 3266 1056 3080 686 
Q 2894 316 2569 119 
Q 2244 -78 1831 -78 
Q 1128 -78 684 439 
Q 241 956 241 2144 
Q 241 3472 731 4075 
Q 1159 4600 1884 4600 
Q 2425 4600 2770 4297 
Q 3116 3994 3184 3459 
z
M 888 1484 
Q 888 1194 1011 928 
Q 1134 663 1356 523 
Q 1578 384 1822 384 
Q 2178 384 2434 671 
Q 2691 959 2691 1453 
Q 2691 1928 2437 2201 
Q 2184 2475 1800 2475 
Q 1419 2475 1153 2201 
Q 888 1928 888 1484 
z
" transform="scale(0.015625)"/>
       </defs>
       <use xlink:href="#ArialMT-30"/>
       <use xlink:href="#ArialMT-2e" x="55.615234"/>
       <use xlink:href="#ArialMT-36" x="83.398438"/>
      </g>
     </g>
    </g>
    <g id="ytick_2">
     <g id="line2d_2">
      <path d="M 50.891825 239.995737 
L 356.0112 239.995737 
" clip-path="url(#p14d77c8926)" style="fill: none; stroke: #cccccc; stroke-width: 0.8; stroke-linecap: round"/>
     </g>
     <g id="text_5">
      <!-- 0.8 -->
      <g style="fill: #262626" transform="translate(29.991825 243.574643) scale(0.1 -0.1)">
       <defs>
        <path id="ArialMT-38" d="M 1131 2484 
Q 781 2613 612 2850 
Q 444 3088 444 3419 
Q 444 3919 803 4259 
Q 1163 4600 1759 4600 
Q 2359 4600 2725 4251 
Q 3091 3903 3091 3403 
Q 3091 3084 2923 2848 
Q 2756 2613 2416 2484 
Q 2838 2347 3058 2040 
Q 3278 1734 3278 1309 
Q 3278 722 2862 322 
Q 2447 -78 1769 -78 
Q 1091 -78 675 323 
Q 259 725 259 1325 
Q 259 1772 486 2073 
Q 713 2375 1131 2484 
z
M 1019 3438 
Q 1019 3113 1228 2906 
Q 1438 2700 1772 2700 
Q 2097 2700 2305 2904 
Q 2513 3109 2513 3406 
Q 2513 3716 2298 3927 
Q 2084 4138 1766 4138 
Q 1444 4138 1231 3931 
Q 1019 3725 1019 3438 
z
M 838 1322 
Q 838 1081 952 856 
Q 1066 631 1291 507 
Q 1516 384 1775 384 
Q 2178 384 2440 643 
Q 2703 903 2703 1303 
Q 2703 1709 2433 1975 
Q 2163 2241 1756 2241 
Q 1359 2241 1098 1978 
Q 838 1716 838 1322 
z
" transform="scale(0.015625)"/>
       </defs>
       <use xlink:href="#ArialMT-30"/>
       <use xlink:href="#ArialMT-2e" x="55.615234"/>
       <use xlink:href="#ArialMT-38" x="83.398438"/>
      </g>
     </g>
    </g>
    <g id="ytick_3">
     <g id="line2d_3">
      <path d="M 50.891825 196.042558 
L 356.0112 196.042558 
" clip-path="url(#p14d77c8926)" style="fill: none; stroke: #cccccc; stroke-width: 0.8; stroke-linecap: round"/>
     </g>
     <g id="text_6">
      <!-- 1.0 -->
      <g style="fill: #262626" transform="translate(29.991825 199.621464) scale(0.1 -0.1)">
       <defs>
        <path id="ArialMT-31" d="M 2384 0 
L 1822 0 
L 1822 3584 
Q 1619 3391 1289 3197 
Q 959 3003 697 2906 
L 697 3450 
Q 1169 3672 1522 3987 
Q 1875 4303 2022 4600 
L 2384 4600 
L 2384 0 
z
" transform="scale(0.015625)"/>
       </defs>
       <use xlink:href="#ArialMT-31"/>
       <use xlink:href="#ArialMT-2e" x="55.615234"/>
       <use xlink:href="#ArialMT-30" x="83.398438"/>
      </g>
     </g>
    </g>
    <g id="ytick_4">
     <g id="line2d_4">
      <path d="M 50.891825 152.089379 
L 356.0112 152.089379 
" clip-path="url(#p14d77c8926)" style="fill: none; stroke: #cccccc; stroke-width: 0.8; stroke-linecap: round"/>
     </g>
     <g id="text_7">
      <!-- 1.2 -->
      <g style="fill: #262626" transform="translate(29.991825 155.668285) scale(0.1 -0.1)">
       <defs>
        <path id="ArialMT-32" d="M 3222 541 
L 3222 0 
L 194 0 
Q 188 203 259 391 
Q 375 700 629 1000 
Q 884 1300 1366 1694 
Q 2113 2306 2375 2664 
Q 2638 3022 2638 3341 
Q 2638 3675 2398 3904 
Q 2159 4134 1775 4134 
Q 1369 4134 1125 3890 
Q 881 3647 878 3216 
L 300 3275 
Q 359 3922 746 4261 
Q 1134 4600 1788 4600 
Q 2447 4600 2831 4234 
Q 3216 3869 3216 3328 
Q 3216 3053 3103 2787 
Q 2991 2522 2730 2228 
Q 2469 1934 1863 1422 
Q 1356 997 1212 845 
Q 1069 694 975 541 
L 3222 541 
z
" transform="scale(0.015625)"/>
       </defs>
       <use xlink:href="#ArialMT-31"/>
       <use xlink:href="#ArialMT-2e" x="55.615234"/>
       <use xlink:href="#ArialMT-32" x="83.398438"/>
      </g>
     </g>
    </g>
    <g id="ytick_5">
     <g id="line2d_5">
      <path d="M 50.891825 108.1362 
L 356.0112 108.1362 
" clip-path="url(#p14d77c8926)" style="fill: none; stroke: #cccccc; stroke-width: 0.8; stroke-linecap: round"/>
     </g>
     <g id="text_8">
      <!-- 1.4 -->
      <g style="fill: #262626" transform="translate(29.991825 111.715106) scale(0.1 -0.1)">
       <defs>
        <path id="ArialMT-34" d="M 2069 0 
L 2069 1097 
L 81 1097 
L 81 1613 
L 2172 4581 
L 2631 4581 
L 2631 1613 
L 3250 1613 
L 3250 1097 
L 2631 1097 
L 2631 0 
L 2069 0 
z
M 2069 1613 
L 2069 3678 
L 634 1613 
L 2069 1613 
z
" transform="scale(0.015625)"/>
       </defs>
       <use xlink:href="#ArialMT-31"/>
       <use xlink:href="#ArialMT-2e" x="55.615234"/>
       <use xlink:href="#ArialMT-34" x="83.398438"/>
      </g>
     </g>
    </g>
    <g id="ytick_6">
     <g id="line2d_6">
      <path d="M 50.891825 64.183021 
L 356.0112 64.183021 
" clip-path="url(#p14d77c8926)" style="fill: none; stroke: #cccccc; stroke-width: 0.8; stroke-linecap: round"/>
     </g>
     <g id="text_9">
      <!-- 1.6 -->
      <g style="fill: #262626" transform="translate(29.991825 67.761927) scale(0.1 -0.1)">
       <use xlink:href="#ArialMT-31"/>
       <use xlink:href="#ArialMT-2e" x="55.615234"/>
       <use xlink:href="#ArialMT-36" x="83.398438"/>
      </g>
     </g>
    </g>
    <g id="ytick_7">
     <g id="line2d_7">
      <path d="M 50.891825 20.229842 
L 356.0112 20.229842 
" clip-path="url(#p14d77c8926)" style="fill: none; stroke: #cccccc; stroke-width: 0.8; stroke-linecap: round"/>
     </g>
     <g id="text_10">
      <!-- 1.8 -->
      <g style="fill: #262626" transform="translate(29.991825 23.808748) scale(0.1 -0.1)">
       <use xlink:href="#ArialMT-31"/>
       <use xlink:href="#ArialMT-2e" x="55.615234"/>
       <use xlink:href="#ArialMT-38" x="83.398438"/>
      </g>
     </g>
    </g>
    <g id="text_11">
     <!-- O2 intake (l/min) -->
     <g style="fill: #262626" transform="translate(23.887137 201.095) rotate(-90) scale(0.1 -0.1)">
      <defs>
       <path id="ArialMT-4f" d="M 309 2231 
Q 309 3372 921 4017 
Q 1534 4663 2503 4663 
Q 3138 4663 3647 4359 
Q 4156 4056 4423 3514 
Q 4691 2972 4691 2284 
Q 4691 1588 4409 1038 
Q 4128 488 3612 205 
Q 3097 -78 2500 -78 
Q 1853 -78 1343 234 
Q 834 547 571 1087 
Q 309 1628 309 2231 
z
M 934 2222 
Q 934 1394 1379 917 
Q 1825 441 2497 441 
Q 3181 441 3623 922 
Q 4066 1403 4066 2288 
Q 4066 2847 3877 3264 
Q 3688 3681 3323 3911 
Q 2959 4141 2506 4141 
Q 1863 4141 1398 3698 
Q 934 3256 934 2222 
z
" transform="scale(0.015625)"/>
       <path id="ArialMT-20" transform="scale(0.015625)"/>
       <path id="ArialMT-69" d="M 425 3934 
L 425 4581 
L 988 4581 
L 988 3934 
L 425 3934 
z
M 425 0 
L 425 3319 
L 988 3319 
L 988 0 
L 425 0 
z
" transform="scale(0.015625)"/>
       <path id="ArialMT-6e" d="M 422 0 
L 422 3319 
L 928 3319 
L 928 2847 
Q 1294 3394 1984 3394 
Q 2284 3394 2536 3286 
Q 2788 3178 2913 3003 
Q 3038 2828 3088 2588 
Q 3119 2431 3119 2041 
L 3119 0 
L 2556 0 
L 2556 2019 
Q 2556 2363 2490 2533 
Q 2425 2703 2258 2804 
Q 2091 2906 1866 2906 
Q 1506 2906 1245 2678 
Q 984 2450 984 1813 
L 984 0 
L 422 0 
z
" transform="scale(0.015625)"/>
       <path id="ArialMT-74" d="M 1650 503 
L 1731 6 
Q 1494 -44 1306 -44 
Q 1000 -44 831 53 
Q 663 150 594 308 
Q 525 466 525 972 
L 525 2881 
L 113 2881 
L 113 3319 
L 525 3319 
L 525 4141 
L 1084 4478 
L 1084 3319 
L 1650 3319 
L 1650 2881 
L 1084 2881 
L 1084 941 
Q 1084 700 1114 631 
Q 1144 563 1211 522 
Q 1278 481 1403 481 
Q 1497 481 1650 503 
z
" transform="scale(0.015625)"/>
       <path id="ArialMT-61" d="M 2588 409 
Q 2275 144 1986 34 
Q 1697 -75 1366 -75 
Q 819 -75 525 192 
Q 231 459 231 875 
Q 231 1119 342 1320 
Q 453 1522 633 1644 
Q 813 1766 1038 1828 
Q 1203 1872 1538 1913 
Q 2219 1994 2541 2106 
Q 2544 2222 2544 2253 
Q 2544 2597 2384 2738 
Q 2169 2928 1744 2928 
Q 1347 2928 1158 2789 
Q 969 2650 878 2297 
L 328 2372 
Q 403 2725 575 2942 
Q 747 3159 1072 3276 
Q 1397 3394 1825 3394 
Q 2250 3394 2515 3294 
Q 2781 3194 2906 3042 
Q 3031 2891 3081 2659 
Q 3109 2516 3109 2141 
L 3109 1391 
Q 3109 606 3145 398 
Q 3181 191 3288 0 
L 2700 0 
Q 2613 175 2588 409 
z
M 2541 1666 
Q 2234 1541 1622 1453 
Q 1275 1403 1131 1340 
Q 988 1278 909 1158 
Q 831 1038 831 891 
Q 831 666 1001 516 
Q 1172 366 1500 366 
Q 1825 366 2078 508 
Q 2331 650 2450 897 
Q 2541 1088 2541 1459 
L 2541 1666 
z
" transform="scale(0.015625)"/>
       <path id="ArialMT-6b" d="M 425 0 
L 425 4581 
L 988 4581 
L 988 1969 
L 2319 3319 
L 3047 3319 
L 1778 2088 
L 3175 0 
L 2481 0 
L 1384 1697 
L 988 1316 
L 988 0 
L 425 0 
z
" transform="scale(0.015625)"/>
       <path id="ArialMT-28" d="M 1497 -1347 
Q 1031 -759 709 28 
Q 388 816 388 1659 
Q 388 2403 628 3084 
Q 909 3875 1497 4659 
L 1900 4659 
Q 1522 4009 1400 3731 
Q 1209 3300 1100 2831 
Q 966 2247 966 1656 
Q 966 153 1900 -1347 
L 1497 -1347 
z
" transform="scale(0.015625)"/>
       <path id="ArialMT-6c" d="M 409 0 
L 409 4581 
L 972 4581 
L 972 0 
L 409 0 
z
" transform="scale(0.015625)"/>
       <path id="ArialMT-2f" d="M 0 -78 
L 1328 4659 
L 1778 4659 
L 453 -78 
L 0 -78 
z
" transform="scale(0.015625)"/>
       <path id="ArialMT-29" d="M 791 -1347 
L 388 -1347 
Q 1322 153 1322 1656 
Q 1322 2244 1188 2822 
Q 1081 3291 891 3722 
Q 769 4003 388 4659 
L 791 4659 
Q 1378 3875 1659 3084 
Q 1900 2403 1900 1659 
Q 1900 816 1576 28 
Q 1253 -759 791 -1347 
z
" transform="scale(0.015625)"/>
      </defs>
      <use xlink:href="#ArialMT-4f"/>
      <use xlink:href="#ArialMT-32" x="77.783203"/>
      <use xlink:href="#ArialMT-20" x="133.398438"/>
      <use xlink:href="#ArialMT-69" x="161.181641"/>
      <use xlink:href="#ArialMT-6e" x="183.398438"/>
      <use xlink:href="#ArialMT-74" x="239.013672"/>
      <use xlink:href="#ArialMT-61" x="266.796875"/>
      <use xlink:href="#ArialMT-6b" x="322.412109"/>
      <use xlink:href="#ArialMT-65" x="372.412109"/>
      <use xlink:href="#ArialMT-20" x="428.027344"/>
      <use xlink:href="#ArialMT-28" x="455.810547"/>
      <use xlink:href="#ArialMT-6c" x="489.111328"/>
      <use xlink:href="#ArialMT-2f" x="511.328125"/>
      <use xlink:href="#ArialMT-6d" x="539.111328"/>
      <use xlink:href="#ArialMT-69" x="622.412109"/>
      <use xlink:href="#ArialMT-6e" x="644.628906"/>
      <use xlink:href="#ArialMT-29" x="700.244141"/>
     </g>
    </g>
   </g>
   <g id="patch_3">
    <path d="M 50.891825 318.04 
L 50.891825 10.8 
" style="fill: none; stroke: #cccccc; stroke-width: 0.8; stroke-linejoin: miter; stroke-linecap: square"/>
   </g>
   <g id="patch_4">
    <path d="M 50.891825 318.04 
L 356.0112 318.04 
" style="fill: none; stroke: #cccccc; stroke-width: 0.8; stroke-linejoin: miter; stroke-linecap: square"/>
   </g>
   <g id="PathCollection_1">
    <defs>
     <path id="C0_0_933dfa3d1d" d="M 0 2.5 
C 0.663008 2.5 1.29895 2.236584 1.767767 1.767767 
C 2.236584 1.29895 2.5 0.663008 2.5 -0 
C 2.5 -0.663008 2.236584 -1.29895 1.767767 -1.767767 
C 1.29895 -2.236584 0.663008 -2.5 0 -2.5 
C -0.663008 -2.5 -1.29895 -2.236584 -1.767767 -1.767767 
C -2.236584 -1.29895 -2.5 -0.663008 -2.5 0 
C -2.5 0.663008 -2.236584 1.29895 -1.767767 1.767767 
C -1.29895 2.236584 -0.663008 2.5 0 2.5 
z
"/>
    </defs>
    <g clip-path="url(#p14d77c8926)">
     <use xlink:href="#C0_0_933dfa3d1d" x="89.29" y="205.364026" style="fill: #1f77b4"/>
    </g>
    <g clip-path="url(#p14d77c8926)">
     <use xlink:href="#C0_0_933dfa3d1d" x="98.184197" y="188.565662" style="fill: #1f77b4"/>
    </g>
    <g clip-path="url(#p14d77c8926)">
     <use xlink:href="#C0_0_933dfa3d1d" x="92.938402" y="228.032035" style="fill: #1f77b4"/>
    </g>
    <g clip-path="url(#p14d77c8926)">
     <use xlink:href="#C0_0_933dfa3d1d" x="93.963513" y="102.895478" style="fill: #1f77b4"/>
    </g>
    <g clip-path="url(#p14d77c8926)">
     <use xlink:href="#C0_0_933dfa3d1d" x="103.119174" y="246.931397" style="fill: #1f77b4"/>
    </g>
    <g clip-path="url(#p14d77c8926)">
     <use xlink:href="#C0_0_933dfa3d1d" x="95.862651" y="193.691643" style="fill: #1f77b4"/>
    </g>
    <g clip-path="url(#p14d77c8926)">
     <use xlink:href="#C0_0_933dfa3d1d" x="90.742648" y="231.846124" style="fill: #1f77b4"/>
    </g>
    <g clip-path="url(#p14d77c8926)">
     <use xlink:href="#C0_0_933dfa3d1d" x="89.724152" y="254.407522" style="fill: #1f77b4"/>
    </g>
    <g clip-path="url(#p14d77c8926)">
     <use xlink:href="#C0_0_933dfa3d1d" x="103.999903" y="192.037964" style="fill: #1f77b4"/>
    </g>
    <g clip-path="url(#p14d77c8926)">
     <use xlink:href="#C0_0_933dfa3d1d" x="101.990132" y="181.074214" style="fill: #1f77b4"/>
    </g>
    <g clip-path="url(#p14d77c8926)">
     <use xlink:href="#C0_0_933dfa3d1d" x="91.035955" y="206.064654" style="fill: #1f77b4"/>
    </g>
    <g clip-path="url(#p14d77c8926)">
     <use xlink:href="#C0_0_933dfa3d1d" x="90.337901" y="163.471796" style="fill: #1f77b4"/>
    </g>
    <g clip-path="url(#p14d77c8926)">
     <use xlink:href="#C0_0_933dfa3d1d" x="98.54988" y="207.284724" style="fill: #1f77b4"/>
    </g>
    <g clip-path="url(#p14d77c8926)">
     <use xlink:href="#C0_0_933dfa3d1d" x="96.216769" y="288.806861" style="fill: #1f77b4"/>
    </g>
    <g clip-path="url(#p14d77c8926)">
     <use xlink:href="#C0_0_933dfa3d1d" x="97.476737" y="164.888651" style="fill: #1f77b4"/>
    </g>
   </g>
   <g id="PathCollection_2">
    <defs>
     <path id="C1_0_8a9bdd5fd8" d="M 0 2.5 
C 0.663008 2.5 1.29895 2.236584 1.767767 1.767767 
C 2.236584 1.29895 2.5 0.663008 2.5 -0 
C 2.5 -0.663008 2.236584 -1.29895 1.767767 -1.767767 
C 1.29895 -2.236584 0.663008 -2.5 0 -2.5 
C -0.663008 -2.5 -1.29895 -2.236584 -1.767767 -1.767767 
C -2.236584 -1.29895 -2.5 -0.663008 -2.5 0 
C -2.5 0.663008 -2.236584 1.29895 -1.767767 1.767767 
C -1.29895 2.236584 -0.663008 2.5 0 2.5 
z
"/>
    </defs>
    <g clip-path="url(#p14d77c8926)">
     <use xlink:href="#C1_0_8a9bdd5fd8" x="151.581267" y="187.273635" style="fill: #ff7f0e"/>
    </g>
    <g clip-path="url(#p14d77c8926)">
     <use xlink:href="#C1_0_8a9bdd5fd8" x="158.124781" y="186.315632" style="fill: #ff7f0e"/>
    </g>
    <g clip-path="url(#p14d77c8926)">
     <use xlink:href="#C1_0_8a9bdd5fd8" x="150.321385" y="211.334096" style="fill: #ff7f0e"/>
    </g>
    <g clip-path="url(#p14d77c8926)">
     <use xlink:href="#C1_0_8a9bdd5fd8" x="163.165483" y="81.074085" style="fill: #ff7f0e"/>
    </g>
    <g clip-path="url(#p14d77c8926)">
     <use xlink:href="#C1_0_8a9bdd5fd8" x="151.511128" y="196.369444" style="fill: #ff7f0e"/>
    </g>
    <g clip-path="url(#p14d77c8926)">
     <use xlink:href="#C1_0_8a9bdd5fd8" x="162.97357" y="267.599747" style="fill: #ff7f0e"/>
    </g>
    <g clip-path="url(#p14d77c8926)">
     <use xlink:href="#C1_0_8a9bdd5fd8" x="158.658895" y="201.333688" style="fill: #ff7f0e"/>
    </g>
    <g clip-path="url(#p14d77c8926)">
     <use xlink:href="#C1_0_8a9bdd5fd8" x="157.461052" y="212.099437" style="fill: #ff7f0e"/>
    </g>
    <g clip-path="url(#p14d77c8926)">
     <use xlink:href="#C1_0_8a9bdd5fd8" x="161.158232" y="247.946053" style="fill: #ff7f0e"/>
    </g>
    <g clip-path="url(#p14d77c8926)">
     <use xlink:href="#C1_0_8a9bdd5fd8" x="151.986962" y="224.371626" style="fill: #ff7f0e"/>
    </g>
    <g clip-path="url(#p14d77c8926)">
     <use xlink:href="#C1_0_8a9bdd5fd8" x="152.762993" y="286.913902" style="fill: #ff7f0e"/>
    </g>
    <g clip-path="url(#p14d77c8926)">
     <use xlink:href="#C1_0_8a9bdd5fd8" x="151.749688" y="146.067848" style="fill: #ff7f0e"/>
    </g>
    <g clip-path="url(#p14d77c8926)">
     <use xlink:href="#C1_0_8a9bdd5fd8" x="162.315484" y="212.749027" style="fill: #ff7f0e"/>
    </g>
    <g clip-path="url(#p14d77c8926)">
     <use xlink:href="#C1_0_8a9bdd5fd8" x="156.883917" y="250.564902" style="fill: #ff7f0e"/>
    </g>
    <g clip-path="url(#p14d77c8926)">
     <use xlink:href="#C1_0_8a9bdd5fd8" x="163.608569" y="133.525873" style="fill: #ff7f0e"/>
    </g>
   </g>
   <g id="PathCollection_3">
    <defs>
     <path id="C2_0_48e2f8a31f" d="M 0 2.5 
C 0.663008 2.5 1.29895 2.236584 1.767767 1.767767 
C 2.236584 1.29895 2.5 0.663008 2.5 -0 
C 2.5 -0.663008 2.236584 -1.29895 1.767767 -1.767767 
C 1.29895 -2.236584 0.663008 -2.5 0 -2.5 
C -0.663008 -2.5 -1.29895 -2.236584 -1.767767 -1.767767 
C -2.236584 -1.29895 -2.5 -0.663008 -2.5 0 
C -2.5 0.663008 -2.236584 1.29895 -1.767767 1.767767 
C -1.29895 2.236584 -0.663008 2.5 0 2.5 
z
"/>
    </defs>
    <g clip-path="url(#p14d77c8926)">
     <use xlink:href="#C2_0_48e2f8a31f" x="242.157781" y="195.180945" style="fill: #1f77b4"/>
    </g>
    <g clip-path="url(#p14d77c8926)">
     <use xlink:href="#C2_0_48e2f8a31f" x="243.942356" y="77.476802" style="fill: #1f77b4"/>
    </g>
    <g clip-path="url(#p14d77c8926)">
     <use xlink:href="#C2_0_48e2f8a31f" x="255.547027" y="167.295419" style="fill: #1f77b4"/>
    </g>
    <g clip-path="url(#p14d77c8926)">
     <use xlink:href="#C2_0_48e2f8a31f" x="245.916428" y="202.41531" style="fill: #1f77b4"/>
    </g>
    <g clip-path="url(#p14d77c8926)">
     <use xlink:href="#C2_0_48e2f8a31f" x="254.70322" y="124.471604" style="fill: #1f77b4"/>
    </g>
    <g clip-path="url(#p14d77c8926)">
     <use xlink:href="#C2_0_48e2f8a31f" x="254.200371" y="150.94216" style="fill: #1f77b4"/>
    </g>
    <g clip-path="url(#p14d77c8926)">
     <use xlink:href="#C2_0_48e2f8a31f" x="246.65072" y="174.913476" style="fill: #1f77b4"/>
    </g>
    <g clip-path="url(#p14d77c8926)">
     <use xlink:href="#C2_0_48e2f8a31f" x="253.246979" y="204.818147" style="fill: #1f77b4"/>
    </g>
    <g clip-path="url(#p14d77c8926)">
     <use xlink:href="#C2_0_48e2f8a31f" x="242.101388" y="202.036729" style="fill: #1f77b4"/>
    </g>
    <g clip-path="url(#p14d77c8926)">
     <use xlink:href="#C2_0_48e2f8a31f" x="242.26931" y="160.795309" style="fill: #1f77b4"/>
    </g>
    <g clip-path="url(#p14d77c8926)">
     <use xlink:href="#C2_0_48e2f8a31f" x="249.306013" y="177.893606" style="fill: #1f77b4"/>
    </g>
    <g clip-path="url(#p14d77c8926)">
     <use xlink:href="#C2_0_48e2f8a31f" x="244.538765" y="172.513219" style="fill: #1f77b4"/>
    </g>
    <g clip-path="url(#p14d77c8926)">
     <use xlink:href="#C2_0_48e2f8a31f" x="255.607073" y="189.884195" style="fill: #1f77b4"/>
    </g>
    <g clip-path="url(#p14d77c8926)">
     <use xlink:href="#C2_0_48e2f8a31f" x="256.614132" y="212.83524" style="fill: #1f77b4"/>
    </g>
    <g clip-path="url(#p14d77c8926)">
     <use xlink:href="#C2_0_48e2f8a31f" x="242.799573" y="62.481651" style="fill: #1f77b4"/>
    </g>
    <g clip-path="url(#p14d77c8926)">
     <use xlink:href="#C2_0_48e2f8a31f" x="254.420593" y="251.974629" style="fill: #1f77b4"/>
    </g>
    <g clip-path="url(#p14d77c8926)">
     <use xlink:href="#C2_0_48e2f8a31f" x="243.36895" y="142.639185" style="fill: #1f77b4"/>
    </g>
    <g clip-path="url(#p14d77c8926)">
     <use xlink:href="#C2_0_48e2f8a31f" x="247.164022" y="261.021197" style="fill: #1f77b4"/>
    </g>
    <g clip-path="url(#p14d77c8926)">
     <use xlink:href="#C2_0_48e2f8a31f" x="256.118313" y="61.351976" style="fill: #1f77b4"/>
    </g>
    <g clip-path="url(#p14d77c8926)">
     <use xlink:href="#C2_0_48e2f8a31f" x="242.747846" y="24.765455" style="fill: #1f77b4"/>
    </g>
    <g clip-path="url(#p14d77c8926)">
     <use xlink:href="#C2_0_48e2f8a31f" x="243.882489" y="304.074545" style="fill: #1f77b4"/>
    </g>
    <g clip-path="url(#p14d77c8926)">
     <use xlink:href="#C2_0_48e2f8a31f" x="248.481163" y="121.504309" style="fill: #1f77b4"/>
    </g>
    <g clip-path="url(#p14d77c8926)">
     <use xlink:href="#C2_0_48e2f8a31f" x="250.118176" y="181.030858" style="fill: #1f77b4"/>
    </g>
    <g clip-path="url(#p14d77c8926)">
     <use xlink:href="#C2_0_48e2f8a31f" x="243.486128" y="192.686186" style="fill: #1f77b4"/>
    </g>
   </g>
   <g id="PathCollection_4">
    <defs>
     <path id="C3_0_837b358325" d="M 0 2.5 
C 0.663008 2.5 1.29895 2.236584 1.767767 1.767767 
C 2.236584 1.29895 2.5 0.663008 2.5 -0 
C 2.5 -0.663008 2.236584 -1.29895 1.767767 -1.767767 
C 1.29895 -2.236584 0.663008 -2.5 0 -2.5 
C -0.663008 -2.5 -1.29895 -2.236584 -1.767767 -1.767767 
C -2.236584 -1.29895 -2.5 -0.663008 -2.5 0 
C -2.5 0.663008 -2.236584 1.29895 -1.767767 1.767767 
C -1.29895 2.236584 -0.663008 2.5 0 2.5 
z
"/>
    </defs>
    <g clip-path="url(#p14d77c8926)">
     <use xlink:href="#C3_0_837b358325" x="307.913274" y="198.604582" style="fill: #ff7f0e"/>
    </g>
    <g clip-path="url(#p14d77c8926)">
     <use xlink:href="#C3_0_837b358325" x="306.74127" y="175.969009" style="fill: #ff7f0e"/>
    </g>
    <g clip-path="url(#p14d77c8926)">
     <use xlink:href="#C3_0_837b358325" x="314.769845" y="138.567475" style="fill: #ff7f0e"/>
    </g>
    <g clip-path="url(#p14d77c8926)">
     <use xlink:href="#C3_0_837b358325" x="316.585762" y="275.742641" style="fill: #ff7f0e"/>
    </g>
    <g clip-path="url(#p14d77c8926)">
     <use xlink:href="#C3_0_837b358325" x="307.883936" y="207.274887" style="fill: #ff7f0e"/>
    </g>
    <g clip-path="url(#p14d77c8926)">
     <use xlink:href="#C3_0_837b358325" x="302.966295" y="199.362206" style="fill: #ff7f0e"/>
    </g>
    <g clip-path="url(#p14d77c8926)">
     <use xlink:href="#C3_0_837b358325" x="311.206952" y="260.809531" style="fill: #ff7f0e"/>
    </g>
    <g clip-path="url(#p14d77c8926)">
     <use xlink:href="#C3_0_837b358325" x="310.018014" y="241.179798" style="fill: #ff7f0e"/>
    </g>
    <g clip-path="url(#p14d77c8926)">
     <use xlink:href="#C3_0_837b358325" x="316.886171" y="251.029367" style="fill: #ff7f0e"/>
    </g>
    <g clip-path="url(#p14d77c8926)">
     <use xlink:href="#C3_0_837b358325" x="304.495479" y="140.342002" style="fill: #ff7f0e"/>
    </g>
    <g clip-path="url(#p14d77c8926)">
     <use xlink:href="#C3_0_837b358325" x="305.217657" y="226.23609" style="fill: #ff7f0e"/>
    </g>
    <g clip-path="url(#p14d77c8926)">
     <use xlink:href="#C3_0_837b358325" x="313.658263" y="226.194009" style="fill: #ff7f0e"/>
    </g>
    <g clip-path="url(#p14d77c8926)">
     <use xlink:href="#C3_0_837b358325" x="305.970487" y="220.91023" style="fill: #ff7f0e"/>
    </g>
    <g clip-path="url(#p14d77c8926)">
     <use xlink:href="#C3_0_837b358325" x="305.353721" y="254.457846" style="fill: #ff7f0e"/>
    </g>
    <g clip-path="url(#p14d77c8926)">
     <use xlink:href="#C3_0_837b358325" x="309.362838" y="192.422742" style="fill: #ff7f0e"/>
    </g>
    <g clip-path="url(#p14d77c8926)">
     <use xlink:href="#C3_0_837b358325" x="313.306359" y="201.067623" style="fill: #ff7f0e"/>
    </g>
    <g clip-path="url(#p14d77c8926)">
     <use xlink:href="#C3_0_837b358325" x="315.100835" y="133.246405" style="fill: #ff7f0e"/>
    </g>
    <g clip-path="url(#p14d77c8926)">
     <use xlink:href="#C3_0_837b358325" x="313.489829" y="255.590977" style="fill: #ff7f0e"/>
    </g>
    <g clip-path="url(#p14d77c8926)">
     <use xlink:href="#C3_0_837b358325" x="316.524368" y="226.809724" style="fill: #ff7f0e"/>
    </g>
    <g clip-path="url(#p14d77c8926)">
     <use xlink:href="#C3_0_837b358325" x="312.922883" y="193.683606" style="fill: #ff7f0e"/>
    </g>
    <g clip-path="url(#p14d77c8926)">
     <use xlink:href="#C3_0_837b358325" x="315.099028" y="173.228232" style="fill: #ff7f0e"/>
    </g>
    <g clip-path="url(#p14d77c8926)">
     <use xlink:href="#C3_0_837b358325" x="312.696799" y="191.011395" style="fill: #ff7f0e"/>
    </g>
    <g clip-path="url(#p14d77c8926)">
     <use xlink:href="#C3_0_837b358325" x="314.385838" y="215.770896" style="fill: #ff7f0e"/>
    </g>
    <g clip-path="url(#p14d77c8926)">
     <use xlink:href="#C3_0_837b358325" x="317.235135" y="84.46987" style="fill: #ff7f0e"/>
    </g>
   </g>
   <g id="line2d_8"/>
   <g id="line2d_9"/>
  </g>
  <g id="legend_1">
   <g id="text_12">
    <!-- time -->
    <g style="fill: #262626" transform="translate(365.045625 168.439844) scale(0.1 -0.1)">
     <use xlink:href="#ArialMT-74"/>
     <use xlink:href="#ArialMT-69" x="27.783203"/>
     <use xlink:href="#ArialMT-6d" x="50"/>
     <use xlink:href="#ArialMT-65" x="133.300781"/>
    </g>
   </g>
   <g id="line2d_10">
    <defs>
     <path id="m70513f4a83" d="M 0 2.5 
C 0.663008 2.5 1.29895 2.236584 1.767767 1.767767 
C 2.236584 1.29895 2.5 0.663008 2.5 0 
C 2.5 -0.663008 2.236584 -1.29895 1.767767 -1.767767 
C 1.29895 -2.236584 0.663008 -2.5 0 -2.5 
C -0.663008 -2.5 -1.29895 -2.236584 -1.767767 -1.767767 
C -2.236584 -1.29895 -2.5 -0.663008 -2.5 0 
C -2.5 0.663008 -2.236584 1.29895 -1.767767 1.767767 
C -1.29895 2.236584 -0.663008 2.5 0 2.5 
z
"/>
    </defs>
    <g>
     <use xlink:href="#m70513f4a83" x="369.101875" y="179.085156" style="fill: #1f77b4"/>
    </g>
   </g>
   <g id="text_13">
    <!-- i -->
    <g style="fill: #262626" transform="translate(387.101875 182.585156) scale(0.1 -0.1)">
     <use xlink:href="#ArialMT-69"/>
    </g>
   </g>
   <g id="line2d_11">
    <defs>
     <path id="m6aacb51d56" d="M 0 2.5 
C 0.663008 2.5 1.29895 2.236584 1.767767 1.767767 
C 2.236584 1.29895 2.5 0.663008 2.5 0 
C 2.5 -0.663008 2.236584 -1.29895 1.767767 -1.767767 
C 1.29895 -2.236584 0.663008 -2.5 0 -2.5 
C -0.663008 -2.5 -1.29895 -2.236584 -1.767767 -1.767767 
C -2.236584 -1.29895 -2.5 -0.663008 -2.5 0 
C -2.5 0.663008 -2.236584 1.29895 -1.767767 1.767767 
C -1.29895 2.236584 -0.663008 2.5 0 2.5 
z
"/>
    </defs>
    <g>
     <use xlink:href="#m6aacb51d56" x="369.101875" y="193.230469" style="fill: #ff7f0e"/>
    </g>
   </g>
   <g id="text_14">
    <!-- f -->
    <g style="fill: #262626" transform="translate(387.101875 196.730469) scale(0.1 -0.1)">
     <use xlink:href="#ArialMT-66"/>
    </g>
   </g>
  </g>
 </g>
 <defs>
  <clipPath id="p14d77c8926">
   <rect x="50.891825" y="10.8" width="305.119375" height="307.24"/>
  </clipPath>
 </defs>
</svg>
