<?xml version="1.0" encoding="utf-8" standalone="no"?>
<!DOCTYPE svg PUBLIC "-//W3C//DTD SVG 1.1//EN"
  "http://www.w3.org/Graphics/SVG/1.1/DTD/svg11.dtd">
<svg xmlns:xlink="http://www.w3.org/1999/xlink" width="398.88pt" height="360pt" viewBox="0 0 398.88 360" xmlns="http://www.w3.org/2000/svg" version="1.1">
 <metadata>
  <rdf:RDF xmlns:dc="http://purl.org/dc/elements/1.1/" xmlns:cc="http://creativecommons.org/ns#" xmlns:rdf="http://www.w3.org/1999/02/22-rdf-syntax-ns#">
   <cc:Work>
    <dc:type rdf:resource="http://purl.org/dc/dcmitype/StillImage"/>
    <dc:date>2024-09-11T03:30:51.393152</dc:date>
    <dc:format>image/svg+xml</dc:format>
    <dc:creator>
     <cc:Agent>
      <dc:title>Matplotlib v3.8.3, https://matplotlib.org/</dc:title>
     </cc:Agent>
    </dc:creator>
   </cc:Work>
  </rdf:RDF>
 </metadata>
 <defs>
  <style type="text/css">*{stroke-linejoin: round; stroke-linecap: butt}</style>
 </defs>
 <g id="figure_1">
  <g id="patch_1">
   <path d="M 0 360 
L 398.88 360 
L 398.88 0 
L 0 0 
z
" style="fill: #ffffff"/>
  </g>
  <g id="axes_1">
   <g id="patch_2">
    <path d="M 47.800505 318.04 
L 356.0112 318.04 
L 356.0112 10.8 
L 47.800505 10.8 
z
" style="fill: #ffffff"/>
   </g>
   <g id="matplotlib.axis_1">
    <g id="xtick_1">
     <g id="text_1">
      <!-- f -->
      <g style="fill: #262626" transform="translate(123.464116 332.197812) scale(0.1 -0.1)">
       <defs>
        <path id="ArialMT-66" d="M 556 0 
L 556 2881 
L 59 2881 
L 59 3319 
L 556 3319 
L 556 3672 
Q 556 4006 616 4169 
Q 697 4388 901 4523 
Q 1106 4659 1475 4659 
Q 1713 4659 2000 4603 
L 1916 4113 
Q 1741 4144 1584 4144 
Q 1328 4144 1222 4034 
Q 1116 3925 1116 3625 
L 1116 3319 
L 1763 3319 
L 1763 2881 
L 1116 2881 
L 1116 0 
L 556 0 
z
" transform="scale(0.015625)"/>
       </defs>
       <use xlink:href="#ArialMT-66"/>
      </g>
     </g>
    </g>
    <g id="xtick_2">
     <g id="text_2">
      <!-- m -->
      <g style="fill: #262626" transform="translate(274.793682 332.197812) scale(0.1 -0.1)">
       <defs>
        <path id="ArialMT-6d" d="M 422 0 
L 422 3319 
L 925 3319 
L 925 2853 
Q 1081 3097 1340 3245 
Q 1600 3394 1931 3394 
Q 2300 3394 2536 3241 
Q 2772 3088 2869 2813 
Q 3263 3394 3894 3394 
Q 4388 3394 4653 3120 
Q 4919 2847 4919 2278 
L 4919 0 
L 4359 0 
L 4359 2091 
Q 4359 2428 4304 2576 
Q 4250 2725 4106 2815 
Q 3963 2906 3769 2906 
Q 3419 2906 3187 2673 
Q 2956 2441 2956 1928 
L 2956 0 
L 2394 0 
L 2394 2156 
Q 2394 2531 2256 2718 
Q 2119 2906 1806 2906 
Q 1569 2906 1367 2781 
Q 1166 2656 1075 2415 
Q 984 2175 984 1722 
L 984 0 
L 422 0 
z
" transform="scale(0.015625)"/>
       </defs>
       <use xlink:href="#ArialMT-6d"/>
      </g>
     </g>
    </g>
    <g id="text_3">
     <!-- sex -->
     <g style="fill: #262626" transform="translate(194.125384 345.343125) scale(0.1 -0.1)">
      <defs>
       <path id="ArialMT-73" d="M 197 991 
L 753 1078 
Q 800 744 1014 566 
Q 1228 388 1613 388 
Q 2000 388 2187 545 
Q 2375 703 2375 916 
Q 2375 1106 2209 1216 
Q 2094 1291 1634 1406 
Q 1016 1563 777 1677 
Q 538 1791 414 1992 
Q 291 2194 291 2438 
Q 291 2659 392 2848 
Q 494 3038 669 3163 
Q 800 3259 1026 3326 
Q 1253 3394 1513 3394 
Q 1903 3394 2198 3281 
Q 2494 3169 2634 2976 
Q 2775 2784 2828 2463 
L 2278 2388 
Q 2241 2644 2061 2787 
Q 1881 2931 1553 2931 
Q 1166 2931 1000 2803 
Q 834 2675 834 2503 
Q 834 2394 903 2306 
Q 972 2216 1119 2156 
Q 1203 2125 1616 2013 
Q 2213 1853 2448 1751 
Q 2684 1650 2818 1456 
Q 2953 1263 2953 975 
Q 2953 694 2789 445 
Q 2625 197 2315 61 
Q 2006 -75 1616 -75 
Q 969 -75 630 194 
Q 291 463 197 991 
z
" transform="scale(0.015625)"/>
       <path id="ArialMT-65" d="M 2694 1069 
L 3275 997 
Q 3138 488 2766 206 
Q 2394 -75 1816 -75 
Q 1088 -75 661 373 
Q 234 822 234 1631 
Q 234 2469 665 2931 
Q 1097 3394 1784 3394 
Q 2450 3394 2872 2941 
Q 3294 2488 3294 1666 
Q 3294 1616 3291 1516 
L 816 1516 
Q 847 969 1125 678 
Q 1403 388 1819 388 
Q 2128 388 2347 550 
Q 2566 713 2694 1069 
z
M 847 1978 
L 2700 1978 
Q 2663 2397 2488 2606 
Q 2219 2931 1791 2931 
Q 1403 2931 1139 2672 
Q 875 2413 847 1978 
z
" transform="scale(0.015625)"/>
       <path id="ArialMT-78" d="M 47 0 
L 1259 1725 
L 138 3319 
L 841 3319 
L 1350 2541 
Q 1494 2319 1581 2169 
Q 1719 2375 1834 2534 
L 2394 3319 
L 3066 3319 
L 1919 1756 
L 3153 0 
L 2463 0 
L 1781 1031 
L 1600 1309 
L 728 0 
L 47 0 
z
" transform="scale(0.015625)"/>
      </defs>
      <use xlink:href="#ArialMT-73"/>
      <use xlink:href="#ArialMT-65" x="50"/>
      <use xlink:href="#ArialMT-78" x="105.615234"/>
     </g>
    </g>
   </g>
   <g id="matplotlib.axis_2">
    <g id="ytick_1">
     <g id="line2d_1">
      <path d="M 47.800505 314.156864 
L 356.0112 314.156864 
" clip-path="url(#pc9f5a5e8c4)" style="fill: none; stroke: #cccccc; stroke-width: 0.8; stroke-linecap: round"/>
     </g>
     <g id="text_4">
      <!-- 8 -->
      <g style="fill: #262626" transform="translate(35.239567 317.73577) scale(0.1 -0.1)">
       <defs>
        <path id="ArialMT-38" d="M 1131 2484 
Q 781 2613 612 2850 
Q 444 3088 444 3419 
Q 444 3919 803 4259 
Q 1163 4600 1759 4600 
Q 2359 4600 2725 4251 
Q 3091 3903 3091 3403 
Q 3091 3084 2923 2848 
Q 2756 2613 2416 2484 
Q 2838 2347 3058 2040 
Q 3278 1734 3278 1309 
Q 3278 722 2862 322 
Q 2447 -78 1769 -78 
Q 1091 -78 675 323 
Q 259 725 259 1325 
Q 259 1772 486 2073 
Q 713 2375 1131 2484 
z
M 1019 3438 
Q 1019 3113 1228 2906 
Q 1438 2700 1772 2700 
Q 2097 2700 2305 2904 
Q 2513 3109 2513 3406 
Q 2513 3716 2298 3927 
Q 2084 4138 1766 4138 
Q 1444 4138 1231 3931 
Q 1019 3725 1019 3438 
z
M 838 1322 
Q 838 1081 952 856 
Q 1066 631 1291 507 
Q 1516 384 1775 384 
Q 2178 384 2440 643 
Q 2703 903 2703 1303 
Q 2703 1709 2433 1975 
Q 2163 2241 1756 2241 
Q 1359 2241 1098 1978 
Q 838 1716 838 1322 
z
" transform="scale(0.015625)"/>
       </defs>
       <use xlink:href="#ArialMT-38"/>
      </g>
     </g>
    </g>
    <g id="ytick_2">
     <g id="line2d_2">
      <path d="M 47.800505 279.526905 
L 356.0112 279.526905 
" clip-path="url(#pc9f5a5e8c4)" style="fill: none; stroke: #cccccc; stroke-width: 0.8; stroke-linecap: round"/>
     </g>
     <g id="text_5">
      <!-- 10 -->
      <g style="fill: #262626" transform="translate(29.67863 283.105812) scale(0.1 -0.1)">
       <defs>
        <path id="ArialMT-31" d="M 2384 0 
L 1822 0 
L 1822 3584 
Q 1619 3391 1289 3197 
Q 959 3003 697 2906 
L 697 3450 
Q 1169 3672 1522 3987 
Q 1875 4303 2022 4600 
L 2384 4600 
L 2384 0 
z
" transform="scale(0.015625)"/>
        <path id="ArialMT-30" d="M 266 2259 
Q 266 3072 433 3567 
Q 600 4063 929 4331 
Q 1259 4600 1759 4600 
Q 2128 4600 2406 4451 
Q 2684 4303 2865 4023 
Q 3047 3744 3150 3342 
Q 3253 2941 3253 2259 
Q 3253 1453 3087 958 
Q 2922 463 2592 192 
Q 2263 -78 1759 -78 
Q 1097 -78 719 397 
Q 266 969 266 2259 
z
M 844 2259 
Q 844 1131 1108 757 
Q 1372 384 1759 384 
Q 2147 384 2411 759 
Q 2675 1134 2675 2259 
Q 2675 3391 2411 3762 
Q 2147 4134 1753 4134 
Q 1366 4134 1134 3806 
Q 844 3388 844 2259 
z
" transform="scale(0.015625)"/>
       </defs>
       <use xlink:href="#ArialMT-31"/>
       <use xlink:href="#ArialMT-30" x="55.615234"/>
      </g>
     </g>
    </g>
    <g id="ytick_3">
     <g id="line2d_3">
      <path d="M 47.800505 244.896947 
L 356.0112 244.896947 
" clip-path="url(#pc9f5a5e8c4)" style="fill: none; stroke: #cccccc; stroke-width: 0.8; stroke-linecap: round"/>
     </g>
     <g id="text_6">
      <!-- 12 -->
      <g style="fill: #262626" transform="translate(29.67863 248.475853) scale(0.1 -0.1)">
       <defs>
        <path id="ArialMT-32" d="M 3222 541 
L 3222 0 
L 194 0 
Q 188 203 259 391 
Q 375 700 629 1000 
Q 884 1300 1366 1694 
Q 2113 2306 2375 2664 
Q 2638 3022 2638 3341 
Q 2638 3675 2398 3904 
Q 2159 4134 1775 4134 
Q 1369 4134 1125 3890 
Q 881 3647 878 3216 
L 300 3275 
Q 359 3922 746 4261 
Q 1134 4600 1788 4600 
Q 2447 4600 2831 4234 
Q 3216 3869 3216 3328 
Q 3216 3053 3103 2787 
Q 2991 2522 2730 2228 
Q 2469 1934 1863 1422 
Q 1356 997 1212 845 
Q 1069 694 975 541 
L 3222 541 
z
" transform="scale(0.015625)"/>
       </defs>
       <use xlink:href="#ArialMT-31"/>
       <use xlink:href="#ArialMT-32" x="55.615234"/>
      </g>
     </g>
    </g>
    <g id="ytick_4">
     <g id="line2d_4">
      <path d="M 47.800505 210.266988 
L 356.0112 210.266988 
" clip-path="url(#pc9f5a5e8c4)" style="fill: none; stroke: #cccccc; stroke-width: 0.8; stroke-linecap: round"/>
     </g>
     <g id="text_7">
      <!-- 14 -->
      <g style="fill: #262626" transform="translate(29.67863 213.845895) scale(0.1 -0.1)">
       <defs>
        <path id="ArialMT-34" d="M 2069 0 
L 2069 1097 
L 81 1097 
L 81 1613 
L 2172 4581 
L 2631 4581 
L 2631 1613 
L 3250 1613 
L 3250 1097 
L 2631 1097 
L 2631 0 
L 2069 0 
z
M 2069 1613 
L 2069 3678 
L 634 1613 
L 2069 1613 
z
" transform="scale(0.015625)"/>
       </defs>
       <use xlink:href="#ArialMT-31"/>
       <use xlink:href="#ArialMT-34" x="55.615234"/>
      </g>
     </g>
    </g>
    <g id="ytick_5">
     <g id="line2d_5">
      <path d="M 47.800505 175.63703 
L 356.0112 175.63703 
" clip-path="url(#pc9f5a5e8c4)" style="fill: none; stroke: #cccccc; stroke-width: 0.8; stroke-linecap: round"/>
     </g>
     <g id="text_8">
      <!-- 16 -->
      <g style="fill: #262626" transform="translate(29.67863 179.215936) scale(0.1 -0.1)">
       <defs>
        <path id="ArialMT-36" d="M 3184 3459 
L 2625 3416 
Q 2550 3747 2413 3897 
Q 2184 4138 1850 4138 
Q 1581 4138 1378 3988 
Q 1113 3794 959 3422 
Q 806 3050 800 2363 
Q 1003 2672 1297 2822 
Q 1591 2972 1913 2972 
Q 2475 2972 2870 2558 
Q 3266 2144 3266 1488 
Q 3266 1056 3080 686 
Q 2894 316 2569 119 
Q 2244 -78 1831 -78 
Q 1128 -78 684 439 
Q 241 956 241 2144 
Q 241 3472 731 4075 
Q 1159 4600 1884 4600 
Q 2425 4600 2770 4297 
Q 3116 3994 3184 3459 
z
M 888 1484 
Q 888 1194 1011 928 
Q 1134 663 1356 523 
Q 1578 384 1822 384 
Q 2178 384 2434 671 
Q 2691 959 2691 1453 
Q 2691 1928 2437 2201 
Q 2184 2475 1800 2475 
Q 1419 2475 1153 2201 
Q 888 1928 888 1484 
z
" transform="scale(0.015625)"/>
       </defs>
       <use xlink:href="#ArialMT-31"/>
       <use xlink:href="#ArialMT-36" x="55.615234"/>
      </g>
     </g>
    </g>
    <g id="ytick_6">
     <g id="line2d_6">
      <path d="M 47.800505 141.007071 
L 356.0112 141.007071 
" clip-path="url(#pc9f5a5e8c4)" style="fill: none; stroke: #cccccc; stroke-width: 0.8; stroke-linecap: round"/>
     </g>
     <g id="text_9">
      <!-- 18 -->
      <g style="fill: #262626" transform="translate(29.67863 144.585977) scale(0.1 -0.1)">
       <use xlink:href="#ArialMT-31"/>
       <use xlink:href="#ArialMT-38" x="55.615234"/>
      </g>
     </g>
    </g>
    <g id="ytick_7">
     <g id="line2d_7">
      <path d="M 47.800505 106.377113 
L 356.0112 106.377113 
" clip-path="url(#pc9f5a5e8c4)" style="fill: none; stroke: #cccccc; stroke-width: 0.8; stroke-linecap: round"/>
     </g>
     <g id="text_10">
      <!-- 20 -->
      <g style="fill: #262626" transform="translate(29.67863 109.956019) scale(0.1 -0.1)">
       <use xlink:href="#ArialMT-32"/>
       <use xlink:href="#ArialMT-30" x="55.615234"/>
      </g>
     </g>
    </g>
    <g id="ytick_8">
     <g id="line2d_8">
      <path d="M 47.800505 71.747154 
L 356.0112 71.747154 
" clip-path="url(#pc9f5a5e8c4)" style="fill: none; stroke: #cccccc; stroke-width: 0.8; stroke-linecap: round"/>
     </g>
     <g id="text_11">
      <!-- 22 -->
      <g style="fill: #262626" transform="translate(29.67863 75.32606) scale(0.1 -0.1)">
       <use xlink:href="#ArialMT-32"/>
       <use xlink:href="#ArialMT-32" x="55.615234"/>
      </g>
     </g>
    </g>
    <g id="ytick_9">
     <g id="line2d_9">
      <path d="M 47.800505 37.117195 
L 356.0112 37.117195 
" clip-path="url(#pc9f5a5e8c4)" style="fill: none; stroke: #cccccc; stroke-width: 0.8; stroke-linecap: round"/>
     </g>
     <g id="text_12">
      <!-- 24 -->
      <g style="fill: #262626" transform="translate(29.67863 40.696102) scale(0.1 -0.1)">
       <use xlink:href="#ArialMT-32"/>
       <use xlink:href="#ArialMT-34" x="55.615234"/>
      </g>
     </g>
    </g>
    <g id="text_13">
     <!-- Relative O2 intake (ml/kg/min) -->
     <g style="fill: #262626" transform="translate(23.573942 231.381719) rotate(-90) scale(0.1 -0.1)">
      <defs>
       <path id="ArialMT-52" d="M 503 0 
L 503 4581 
L 2534 4581 
Q 3147 4581 3465 4457 
Q 3784 4334 3975 4021 
Q 4166 3709 4166 3331 
Q 4166 2844 3850 2509 
Q 3534 2175 2875 2084 
Q 3116 1969 3241 1856 
Q 3506 1613 3744 1247 
L 4541 0 
L 3778 0 
L 3172 953 
Q 2906 1366 2734 1584 
Q 2563 1803 2427 1890 
Q 2291 1978 2150 2013 
Q 2047 2034 1813 2034 
L 1109 2034 
L 1109 0 
L 503 0 
z
M 1109 2559 
L 2413 2559 
Q 2828 2559 3062 2645 
Q 3297 2731 3419 2920 
Q 3541 3109 3541 3331 
Q 3541 3656 3305 3865 
Q 3069 4075 2559 4075 
L 1109 4075 
L 1109 2559 
z
" transform="scale(0.015625)"/>
       <path id="ArialMT-6c" d="M 409 0 
L 409 4581 
L 972 4581 
L 972 0 
L 409 0 
z
" transform="scale(0.015625)"/>
       <path id="ArialMT-61" d="M 2588 409 
Q 2275 144 1986 34 
Q 1697 -75 1366 -75 
Q 819 -75 525 192 
Q 231 459 231 875 
Q 231 1119 342 1320 
Q 453 1522 633 1644 
Q 813 1766 1038 1828 
Q 1203 1872 1538 1913 
Q 2219 1994 2541 2106 
Q 2544 2222 2544 2253 
Q 2544 2597 2384 2738 
Q 2169 2928 1744 2928 
Q 1347 2928 1158 2789 
Q 969 2650 878 2297 
L 328 2372 
Q 403 2725 575 2942 
Q 747 3159 1072 3276 
Q 1397 3394 1825 3394 
Q 2250 3394 2515 3294 
Q 2781 3194 2906 3042 
Q 3031 2891 3081 2659 
Q 3109 2516 3109 2141 
L 3109 1391 
Q 3109 606 3145 398 
Q 3181 191 3288 0 
L 2700 0 
Q 2613 175 2588 409 
z
M 2541 1666 
Q 2234 1541 1622 1453 
Q 1275 1403 1131 1340 
Q 988 1278 909 1158 
Q 831 1038 831 891 
Q 831 666 1001 516 
Q 1172 366 1500 366 
Q 1825 366 2078 508 
Q 2331 650 2450 897 
Q 2541 1088 2541 1459 
L 2541 1666 
z
" transform="scale(0.015625)"/>
       <path id="ArialMT-74" d="M 1650 503 
L 1731 6 
Q 1494 -44 1306 -44 
Q 1000 -44 831 53 
Q 663 150 594 308 
Q 525 466 525 972 
L 525 2881 
L 113 2881 
L 113 3319 
L 525 3319 
L 525 4141 
L 1084 4478 
L 1084 3319 
L 1650 3319 
L 1650 2881 
L 1084 2881 
L 1084 941 
Q 1084 700 1114 631 
Q 1144 563 1211 522 
Q 1278 481 1403 481 
Q 1497 481 1650 503 
z
" transform="scale(0.015625)"/>
       <path id="ArialMT-69" d="M 425 3934 
L 425 4581 
L 988 4581 
L 988 3934 
L 425 3934 
z
M 425 0 
L 425 3319 
L 988 3319 
L 988 0 
L 425 0 
z
" transform="scale(0.015625)"/>
       <path id="ArialMT-76" d="M 1344 0 
L 81 3319 
L 675 3319 
L 1388 1331 
Q 1503 1009 1600 663 
Q 1675 925 1809 1294 
L 2547 3319 
L 3125 3319 
L 1869 0 
L 1344 0 
z
" transform="scale(0.015625)"/>
       <path id="ArialMT-20" transform="scale(0.015625)"/>
       <path id="ArialMT-4f" d="M 309 2231 
Q 309 3372 921 4017 
Q 1534 4663 2503 4663 
Q 3138 4663 3647 4359 
Q 4156 4056 4423 3514 
Q 4691 2972 4691 2284 
Q 4691 1588 4409 1038 
Q 4128 488 3612 205 
Q 3097 -78 2500 -78 
Q 1853 -78 1343 234 
Q 834 547 571 1087 
Q 309 1628 309 2231 
z
M 934 2222 
Q 934 1394 1379 917 
Q 1825 441 2497 441 
Q 3181 441 3623 922 
Q 4066 1403 4066 2288 
Q 4066 2847 3877 3264 
Q 3688 3681 3323 3911 
Q 2959 4141 2506 4141 
Q 1863 4141 1398 3698 
Q 934 3256 934 2222 
z
" transform="scale(0.015625)"/>
       <path id="ArialMT-6e" d="M 422 0 
L 422 3319 
L 928 3319 
L 928 2847 
Q 1294 3394 1984 3394 
Q 2284 3394 2536 3286 
Q 2788 3178 2913 3003 
Q 3038 2828 3088 2588 
Q 3119 2431 3119 2041 
L 3119 0 
L 2556 0 
L 2556 2019 
Q 2556 2363 2490 2533 
Q 2425 2703 2258 2804 
Q 2091 2906 1866 2906 
Q 1506 2906 1245 2678 
Q 984 2450 984 1813 
L 984 0 
L 422 0 
z
" transform="scale(0.015625)"/>
       <path id="ArialMT-6b" d="M 425 0 
L 425 4581 
L 988 4581 
L 988 1969 
L 2319 3319 
L 3047 3319 
L 1778 2088 
L 3175 0 
L 2481 0 
L 1384 1697 
L 988 1316 
L 988 0 
L 425 0 
z
" transform="scale(0.015625)"/>
       <path id="ArialMT-28" d="M 1497 -1347 
Q 1031 -759 709 28 
Q 388 816 388 1659 
Q 388 2403 628 3084 
Q 909 3875 1497 4659 
L 1900 4659 
Q 1522 4009 1400 3731 
Q 1209 3300 1100 2831 
Q 966 2247 966 1656 
Q 966 153 1900 -1347 
L 1497 -1347 
z
" transform="scale(0.015625)"/>
       <path id="ArialMT-2f" d="M 0 -78 
L 1328 4659 
L 1778 4659 
L 453 -78 
L 0 -78 
z
" transform="scale(0.015625)"/>
       <path id="ArialMT-67" d="M 319 -275 
L 866 -356 
Q 900 -609 1056 -725 
Q 1266 -881 1628 -881 
Q 2019 -881 2231 -725 
Q 2444 -569 2519 -288 
Q 2563 -116 2559 434 
Q 2191 0 1641 0 
Q 956 0 581 494 
Q 206 988 206 1678 
Q 206 2153 378 2554 
Q 550 2956 876 3175 
Q 1203 3394 1644 3394 
Q 2231 3394 2613 2919 
L 2613 3319 
L 3131 3319 
L 3131 450 
Q 3131 -325 2973 -648 
Q 2816 -972 2473 -1159 
Q 2131 -1347 1631 -1347 
Q 1038 -1347 672 -1080 
Q 306 -813 319 -275 
z
M 784 1719 
Q 784 1066 1043 766 
Q 1303 466 1694 466 
Q 2081 466 2343 764 
Q 2606 1063 2606 1700 
Q 2606 2309 2336 2618 
Q 2066 2928 1684 2928 
Q 1309 2928 1046 2623 
Q 784 2319 784 1719 
z
" transform="scale(0.015625)"/>
       <path id="ArialMT-29" d="M 791 -1347 
L 388 -1347 
Q 1322 153 1322 1656 
Q 1322 2244 1188 2822 
Q 1081 3291 891 3722 
Q 769 4003 388 4659 
L 791 4659 
Q 1378 3875 1659 3084 
Q 1900 2403 1900 1659 
Q 1900 816 1576 28 
Q 1253 -759 791 -1347 
z
" transform="scale(0.015625)"/>
      </defs>
      <use xlink:href="#ArialMT-52"/>
      <use xlink:href="#ArialMT-65" x="72.216797"/>
      <use xlink:href="#ArialMT-6c" x="127.832031"/>
      <use xlink:href="#ArialMT-61" x="150.048828"/>
      <use xlink:href="#ArialMT-74" x="205.664062"/>
      <use xlink:href="#ArialMT-69" x="233.447266"/>
      <use xlink:href="#ArialMT-76" x="255.664062"/>
      <use xlink:href="#ArialMT-65" x="305.664062"/>
      <use xlink:href="#ArialMT-20" x="361.279297"/>
      <use xlink:href="#ArialMT-4f" x="389.0625"/>
      <use xlink:href="#ArialMT-32" x="466.845703"/>
      <use xlink:href="#ArialMT-20" x="522.460938"/>
      <use xlink:href="#ArialMT-69" x="550.244141"/>
      <use xlink:href="#ArialMT-6e" x="572.460938"/>
      <use xlink:href="#ArialMT-74" x="628.076172"/>
      <use xlink:href="#ArialMT-61" x="655.859375"/>
      <use xlink:href="#ArialMT-6b" x="711.474609"/>
      <use xlink:href="#ArialMT-65" x="761.474609"/>
      <use xlink:href="#ArialMT-20" x="817.089844"/>
      <use xlink:href="#ArialMT-28" x="844.873047"/>
      <use xlink:href="#ArialMT-6d" x="878.173828"/>
      <use xlink:href="#ArialMT-6c" x="961.474609"/>
      <use xlink:href="#ArialMT-2f" x="983.691406"/>
      <use xlink:href="#ArialMT-6b" x="1011.474609"/>
      <use xlink:href="#ArialMT-67" x="1061.474609"/>
      <use xlink:href="#ArialMT-2f" x="1117.089844"/>
      <use xlink:href="#ArialMT-6d" x="1144.873047"/>
      <use xlink:href="#ArialMT-69" x="1228.173828"/>
      <use xlink:href="#ArialMT-6e" x="1250.390625"/>
      <use xlink:href="#ArialMT-29" x="1306.005859"/>
     </g>
    </g>
   </g>
   <g id="patch_3">
    <path d="M 47.800505 318.04 
L 47.800505 10.8 
" style="fill: none; stroke: #cccccc; stroke-width: 0.8; stroke-linejoin: miter; stroke-linecap: square"/>
   </g>
   <g id="patch_4">
    <path d="M 47.800505 318.04 
L 356.0112 318.04 
" style="fill: none; stroke: #cccccc; stroke-width: 0.8; stroke-linejoin: miter; stroke-linecap: square"/>
   </g>
   <g id="PathCollection_1">
    <defs>
     <path id="C0_0_4c663c4329" d="M 0 2.5 
C 0.663008 2.5 1.29895 2.236584 1.767767 1.767767 
C 2.236584 1.29895 2.5 0.663008 2.5 -0 
C 2.5 -0.663008 2.236584 -1.29895 1.767767 -1.767767 
C 1.29895 -2.236584 0.663008 -2.5 0 -2.5 
C -0.663008 -2.5 -1.29895 -2.236584 -1.767767 -1.767767 
C -2.236584 -1.29895 -2.5 -0.663008 -2.5 0 
C -2.5 0.663008 -2.236584 1.29895 -1.767767 1.767767 
C -1.29895 2.236584 -0.663008 2.5 0 2.5 
z
"/>
    </defs>
    <g clip-path="url(#pc9f5a5e8c4)">
     <use xlink:href="#C0_0_4c663c4329" x="93.901145" y="215.811602" style="fill: #1f77b4"/>
    </g>
    <g clip-path="url(#pc9f5a5e8c4)">
     <use xlink:href="#C0_0_4c663c4329" x="100.578056" y="185.451756" style="fill: #1f77b4"/>
    </g>
    <g clip-path="url(#pc9f5a5e8c4)">
     <use xlink:href="#C0_0_4c663c4329" x="91.570102" y="263.002557" style="fill: #1f77b4"/>
    </g>
    <g clip-path="url(#pc9f5a5e8c4)">
     <use xlink:href="#C0_0_4c663c4329" x="94.531556" y="172.518988" style="fill: #1f77b4"/>
    </g>
    <g clip-path="url(#pc9f5a5e8c4)">
     <use xlink:href="#C0_0_4c663c4329" x="88.499663" y="238.071302" style="fill: #1f77b4"/>
    </g>
    <g clip-path="url(#pc9f5a5e8c4)">
     <use xlink:href="#C0_0_4c663c4329" x="88.880449" y="150.949046" style="fill: #1f77b4"/>
    </g>
    <g clip-path="url(#pc9f5a5e8c4)">
     <use xlink:href="#C0_0_4c663c4329" x="99.820899" y="215.068871" style="fill: #1f77b4"/>
    </g>
    <g clip-path="url(#pc9f5a5e8c4)">
     <use xlink:href="#C0_0_4c663c4329" x="99.338448" y="253.981331" style="fill: #1f77b4"/>
    </g>
    <g clip-path="url(#pc9f5a5e8c4)">
     <use xlink:href="#C0_0_4c663c4329" x="96.418853" y="254.581256" style="fill: #1f77b4"/>
    </g>
    <g clip-path="url(#pc9f5a5e8c4)">
     <use xlink:href="#C0_0_4c663c4329" x="91.775786" y="176.642228" style="fill: #1f77b4"/>
    </g>
    <g clip-path="url(#pc9f5a5e8c4)">
     <use xlink:href="#C0_0_4c663c4329" x="94.366098" y="177.254107" style="fill: #1f77b4"/>
    </g>
    <g clip-path="url(#pc9f5a5e8c4)">
     <use xlink:href="#C0_0_4c663c4329" x="89.367862" y="234.202259" style="fill: #1f77b4"/>
    </g>
    <g clip-path="url(#pc9f5a5e8c4)">
     <use xlink:href="#C0_0_4c663c4329" x="90.801515" y="191.895298" style="fill: #1f77b4"/>
    </g>
    <g clip-path="url(#pc9f5a5e8c4)">
     <use xlink:href="#C0_0_4c663c4329" x="98.742566" y="270.745092" style="fill: #1f77b4"/>
    </g>
    <g clip-path="url(#pc9f5a5e8c4)">
     <use xlink:href="#C0_0_4c663c4329" x="91.319149" y="133.813111" style="fill: #1f77b4"/>
    </g>
   </g>
   <g id="PathCollection_2">
    <defs>
     <path id="C1_0_048e939483" d="M 0 2.5 
C 0.663008 2.5 1.29895 2.236584 1.767767 1.767767 
C 2.236584 1.29895 2.5 0.663008 2.5 -0 
C 2.5 -0.663008 2.236584 -1.29895 1.767767 -1.767767 
C 1.29895 -2.236584 0.663008 -2.5 0 -2.5 
C -0.663008 -2.5 -1.29895 -2.236584 -1.767767 -1.767767 
C -2.236584 -1.29895 -2.5 -0.663008 -2.5 0 
C -2.5 0.663008 -2.236584 1.29895 -1.767767 1.767767 
C -1.29895 2.236584 -0.663008 2.5 0 2.5 
z
"/>
    </defs>
    <g clip-path="url(#pc9f5a5e8c4)">
     <use xlink:href="#C1_0_048e939483" x="156.665443" y="195.450016" style="fill: #ff7f0e"/>
    </g>
    <g clip-path="url(#pc9f5a5e8c4)">
     <use xlink:href="#C1_0_048e939483" x="162.348335" y="182.805845" style="fill: #ff7f0e"/>
    </g>
    <g clip-path="url(#pc9f5a5e8c4)">
     <use xlink:href="#C1_0_048e939483" x="148.362721" y="246.135863" style="fill: #ff7f0e"/>
    </g>
    <g clip-path="url(#pc9f5a5e8c4)">
     <use xlink:href="#C1_0_048e939483" x="148.159607" y="152.981826" style="fill: #ff7f0e"/>
    </g>
    <g clip-path="url(#pc9f5a5e8c4)">
     <use xlink:href="#C1_0_048e939483" x="151.496686" y="173.818239" style="fill: #ff7f0e"/>
    </g>
    <g clip-path="url(#pc9f5a5e8c4)">
     <use xlink:href="#C1_0_048e939483" x="157.964994" y="251.347205" style="fill: #ff7f0e"/>
    </g>
    <g clip-path="url(#pc9f5a5e8c4)">
     <use xlink:href="#C1_0_048e939483" x="150.823129" y="175.658662" style="fill: #ff7f0e"/>
    </g>
    <g clip-path="url(#pc9f5a5e8c4)">
     <use xlink:href="#C1_0_048e939483" x="155.407526" y="201.897242" style="fill: #ff7f0e"/>
    </g>
    <g clip-path="url(#pc9f5a5e8c4)">
     <use xlink:href="#C1_0_048e939483" x="154.873416" y="304.074545" style="fill: #ff7f0e"/>
    </g>
    <g clip-path="url(#pc9f5a5e8c4)">
     <use xlink:href="#C1_0_048e939483" x="151.360183" y="227.557588" style="fill: #ff7f0e"/>
    </g>
    <g clip-path="url(#pc9f5a5e8c4)">
     <use xlink:href="#C1_0_048e939483" x="157.288302" y="283.420343" style="fill: #ff7f0e"/>
    </g>
    <g clip-path="url(#pc9f5a5e8c4)">
     <use xlink:href="#C1_0_048e939483" x="161.966424" y="219.133828" style="fill: #ff7f0e"/>
    </g>
    <g clip-path="url(#pc9f5a5e8c4)">
     <use xlink:href="#C1_0_048e939483" x="163.008153" y="198.728998" style="fill: #ff7f0e"/>
    </g>
    <g clip-path="url(#pc9f5a5e8c4)">
     <use xlink:href="#C1_0_048e939483" x="159.507268" y="215.962935" style="fill: #ff7f0e"/>
    </g>
    <g clip-path="url(#pc9f5a5e8c4)">
     <use xlink:href="#C1_0_048e939483" x="148.157263" y="93.957956" style="fill: #ff7f0e"/>
    </g>
   </g>
   <g id="PathCollection_3">
    <defs>
     <path id="C2_0_67ced3e80a" d="M 0 2.5 
C 0.663008 2.5 1.29895 2.236584 1.767767 1.767767 
C 2.236584 1.29895 2.5 0.663008 2.5 -0 
C 2.5 -0.663008 2.236584 -1.29895 1.767767 -1.767767 
C 1.29895 -2.236584 0.663008 -2.5 0 -2.5 
C -0.663008 -2.5 -1.29895 -2.236584 -1.767767 -1.767767 
C -2.236584 -1.29895 -2.5 -0.663008 -2.5 0 
C -2.5 0.663008 -2.236584 1.29895 -1.767767 1.767767 
C -1.29895 2.236584 -0.663008 2.5 0 2.5 
z
"/>
    </defs>
    <g clip-path="url(#pc9f5a5e8c4)">
     <use xlink:href="#C2_0_67ced3e80a" x="250.51267" y="197.046341" style="fill: #1f77b4"/>
    </g>
    <g clip-path="url(#pc9f5a5e8c4)">
     <use xlink:href="#C2_0_67ced3e80a" x="245.709833" y="66.349559" style="fill: #1f77b4"/>
    </g>
    <g clip-path="url(#pc9f5a5e8c4)">
     <use xlink:href="#C2_0_67ced3e80a" x="252.154475" y="168.909782" style="fill: #1f77b4"/>
    </g>
    <g clip-path="url(#pc9f5a5e8c4)">
     <use xlink:href="#C2_0_67ced3e80a" x="248.057865" y="116.419077" style="fill: #1f77b4"/>
    </g>
    <g clip-path="url(#pc9f5a5e8c4)">
     <use xlink:href="#C2_0_67ced3e80a" x="241.800641" y="124.763378" style="fill: #1f77b4"/>
    </g>
    <g clip-path="url(#pc9f5a5e8c4)">
     <use xlink:href="#C2_0_67ced3e80a" x="240.87887" y="158.756099" style="fill: #1f77b4"/>
    </g>
    <g clip-path="url(#pc9f5a5e8c4)">
     <use xlink:href="#C2_0_67ced3e80a" x="246.639392" y="130.986808" style="fill: #1f77b4"/>
    </g>
    <g clip-path="url(#pc9f5a5e8c4)">
     <use xlink:href="#C2_0_67ced3e80a" x="243.8444" y="161.035197" style="fill: #1f77b4"/>
    </g>
    <g clip-path="url(#pc9f5a5e8c4)">
     <use xlink:href="#C2_0_67ced3e80a" x="247.138366" y="108.947947" style="fill: #1f77b4"/>
    </g>
    <g clip-path="url(#pc9f5a5e8c4)">
     <use xlink:href="#C2_0_67ced3e80a" x="246.356271" y="161.487571" style="fill: #1f77b4"/>
    </g>
    <g clip-path="url(#pc9f5a5e8c4)">
     <use xlink:href="#C2_0_67ced3e80a" x="240.588205" y="85.129558" style="fill: #1f77b4"/>
    </g>
    <g clip-path="url(#pc9f5a5e8c4)">
     <use xlink:href="#C2_0_67ced3e80a" x="242.134358" y="216.024653" style="fill: #1f77b4"/>
    </g>
    <g clip-path="url(#pc9f5a5e8c4)">
     <use xlink:href="#C2_0_67ced3e80a" x="248.487126" y="212.133642" style="fill: #1f77b4"/>
    </g>
    <g clip-path="url(#pc9f5a5e8c4)">
     <use xlink:href="#C2_0_67ced3e80a" x="255.82315" y="224.220804" style="fill: #1f77b4"/>
    </g>
    <g clip-path="url(#pc9f5a5e8c4)">
     <use xlink:href="#C2_0_67ced3e80a" x="250.274056" y="43.294127" style="fill: #1f77b4"/>
    </g>
    <g clip-path="url(#pc9f5a5e8c4)">
     <use xlink:href="#C2_0_67ced3e80a" x="248.556543" y="230.121751" style="fill: #1f77b4"/>
    </g>
    <g clip-path="url(#pc9f5a5e8c4)">
     <use xlink:href="#C2_0_67ced3e80a" x="252.596102" y="180.239486" style="fill: #1f77b4"/>
    </g>
    <g clip-path="url(#pc9f5a5e8c4)">
     <use xlink:href="#C2_0_67ced3e80a" x="249.259296" y="267.897556" style="fill: #1f77b4"/>
    </g>
    <g clip-path="url(#pc9f5a5e8c4)">
     <use xlink:href="#C2_0_67ced3e80a" x="248.63448" y="75.284535" style="fill: #1f77b4"/>
    </g>
    <g clip-path="url(#pc9f5a5e8c4)">
     <use xlink:href="#C2_0_67ced3e80a" x="246.396743" y="24.765455" style="fill: #1f77b4"/>
    </g>
    <g clip-path="url(#pc9f5a5e8c4)">
     <use xlink:href="#C2_0_67ced3e80a" x="245.884587" y="300.895257" style="fill: #1f77b4"/>
    </g>
    <g clip-path="url(#pc9f5a5e8c4)">
     <use xlink:href="#C2_0_67ced3e80a" x="255.117667" y="66.214689" style="fill: #1f77b4"/>
    </g>
    <g clip-path="url(#pc9f5a5e8c4)">
     <use xlink:href="#C2_0_67ced3e80a" x="255.762619" y="82.722189" style="fill: #1f77b4"/>
    </g>
    <g clip-path="url(#pc9f5a5e8c4)">
     <use xlink:href="#C2_0_67ced3e80a" x="247.44658" y="211.862697" style="fill: #1f77b4"/>
    </g>
   </g>
   <g id="PathCollection_4">
    <defs>
     <path id="C3_0_825b90ebc9" d="M 0 2.5 
C 0.663008 2.5 1.29895 2.236584 1.767767 1.767767 
C 2.236584 1.29895 2.5 0.663008 2.5 -0 
C 2.5 -0.663008 2.236584 -1.29895 1.767767 -1.767767 
C 1.29895 -2.236584 0.663008 -2.5 0 -2.5 
C -0.663008 -2.5 -1.29895 -2.236584 -1.767767 -1.767767 
C -2.236584 -1.29895 -2.5 -0.663008 -2.5 0 
C -2.5 0.663008 -2.236584 1.29895 -1.767767 1.767767 
C -1.29895 2.236584 -0.663008 2.5 0 2.5 
z
"/>
    </defs>
    <g clip-path="url(#pc9f5a5e8c4)">
     <use xlink:href="#C3_0_825b90ebc9" x="304.006806" y="201.013143" style="fill: #ff7f0e"/>
    </g>
    <g clip-path="url(#pc9f5a5e8c4)">
     <use xlink:href="#C3_0_825b90ebc9" x="312.289267" y="178.813801" style="fill: #ff7f0e"/>
    </g>
    <g clip-path="url(#pc9f5a5e8c4)">
     <use xlink:href="#C3_0_825b90ebc9" x="309.83228" y="136.106512" style="fill: #ff7f0e"/>
    </g>
    <g clip-path="url(#pc9f5a5e8c4)">
     <use xlink:href="#C3_0_825b90ebc9" x="313.164354" y="231.965779" style="fill: #ff7f0e"/>
    </g>
    <g clip-path="url(#pc9f5a5e8c4)">
     <use xlink:href="#C3_0_825b90ebc9" x="306.307233" y="217.962366" style="fill: #ff7f0e"/>
    </g>
    <g clip-path="url(#pc9f5a5e8c4)">
     <use xlink:href="#C3_0_825b90ebc9" x="317.444144" y="212.487545" style="fill: #ff7f0e"/>
    </g>
    <g clip-path="url(#pc9f5a5e8c4)">
     <use xlink:href="#C3_0_825b90ebc9" x="306.41084" y="245.69195" style="fill: #ff7f0e"/>
    </g>
    <g clip-path="url(#pc9f5a5e8c4)">
     <use xlink:href="#C3_0_825b90ebc9" x="304.525569" y="211.296114" style="fill: #ff7f0e"/>
    </g>
    <g clip-path="url(#pc9f5a5e8c4)">
     <use xlink:href="#C3_0_825b90ebc9" x="302.809878" y="187.724401" style="fill: #ff7f0e"/>
    </g>
    <g clip-path="url(#pc9f5a5e8c4)">
     <use xlink:href="#C3_0_825b90ebc9" x="304.591084" y="138.132773" style="fill: #ff7f0e"/>
    </g>
    <g clip-path="url(#pc9f5a5e8c4)">
     <use xlink:href="#C3_0_825b90ebc9" x="305.905506" y="159.812335" style="fill: #ff7f0e"/>
    </g>
    <g clip-path="url(#pc9f5a5e8c4)">
     <use xlink:href="#C3_0_825b90ebc9" x="305.518285" y="268.239687" style="fill: #ff7f0e"/>
    </g>
    <g clip-path="url(#pc9f5a5e8c4)">
     <use xlink:href="#C3_0_825b90ebc9" x="312.638829" y="245.167268" style="fill: #ff7f0e"/>
    </g>
    <g clip-path="url(#pc9f5a5e8c4)">
     <use xlink:href="#C3_0_825b90ebc9" x="305.570255" y="271.069004" style="fill: #ff7f0e"/>
    </g>
    <g clip-path="url(#pc9f5a5e8c4)">
     <use xlink:href="#C3_0_825b90ebc9" x="305.073043" y="193.850546" style="fill: #ff7f0e"/>
    </g>
    <g clip-path="url(#pc9f5a5e8c4)">
     <use xlink:href="#C3_0_825b90ebc9" x="305.660618" y="160.968716" style="fill: #ff7f0e"/>
    </g>
    <g clip-path="url(#pc9f5a5e8c4)">
     <use xlink:href="#C3_0_825b90ebc9" x="309.001341" y="170.871877" style="fill: #ff7f0e"/>
    </g>
    <g clip-path="url(#pc9f5a5e8c4)">
     <use xlink:href="#C3_0_825b90ebc9" x="307.930504" y="261.415166" style="fill: #ff7f0e"/>
    </g>
    <g clip-path="url(#pc9f5a5e8c4)">
     <use xlink:href="#C3_0_825b90ebc9" x="315.984993" y="251.448498" style="fill: #ff7f0e"/>
    </g>
    <g clip-path="url(#pc9f5a5e8c4)">
     <use xlink:href="#C3_0_825b90ebc9" x="314.513663" y="209.609517" style="fill: #ff7f0e"/>
    </g>
    <g clip-path="url(#pc9f5a5e8c4)">
     <use xlink:href="#C3_0_825b90ebc9" x="307.564425" y="123.151163" style="fill: #ff7f0e"/>
    </g>
    <g clip-path="url(#pc9f5a5e8c4)">
     <use xlink:href="#C3_0_825b90ebc9" x="317.2024" y="157.487098" style="fill: #ff7f0e"/>
    </g>
    <g clip-path="url(#pc9f5a5e8c4)">
     <use xlink:href="#C3_0_825b90ebc9" x="315.009642" y="137.464353" style="fill: #ff7f0e"/>
    </g>
    <g clip-path="url(#pc9f5a5e8c4)">
     <use xlink:href="#C3_0_825b90ebc9" x="302.212203" y="95.06573" style="fill: #ff7f0e"/>
    </g>
   </g>
   <g id="line2d_10"/>
   <g id="line2d_11"/>
  </g>
  <g id="legend_1">
   <g id="text_14">
    <!-- time -->
    <g style="fill: #262626" transform="translate(365.045625 168.439844) scale(0.1 -0.1)">
     <use xlink:href="#ArialMT-74"/>
     <use xlink:href="#ArialMT-69" x="27.783203"/>
     <use xlink:href="#ArialMT-6d" x="50"/>
     <use xlink:href="#ArialMT-65" x="133.300781"/>
    </g>
   </g>
   <g id="line2d_12">
    <defs>
     <path id="m530b148917" d="M 0 2.5 
C 0.663008 2.5 1.29895 2.236584 1.767767 1.767767 
C 2.236584 1.29895 2.5 0.663008 2.5 0 
C 2.5 -0.663008 2.236584 -1.29895 1.767767 -1.767767 
C 1.29895 -2.236584 0.663008 -2.5 0 -2.5 
C -0.663008 -2.5 -1.29895 -2.236584 -1.767767 -1.767767 
C -2.236584 -1.29895 -2.5 -0.663008 -2.5 0 
C -2.5 0.663008 -2.236584 1.29895 -1.767767 1.767767 
C -1.29895 2.236584 -0.663008 2.5 0 2.5 
z
"/>
    </defs>
    <g>
     <use xlink:href="#m530b148917" x="369.101875" y="179.085156" style="fill: #1f77b4"/>
    </g>
   </g>
   <g id="text_15">
    <!-- i -->
    <g style="fill: #262626" transform="translate(387.101875 182.585156) scale(0.1 -0.1)">
     <use xlink:href="#ArialMT-69"/>
    </g>
   </g>
   <g id="line2d_13">
    <defs>
     <path id="m03f73b103d" d="M 0 2.5 
C 0.663008 2.5 1.29895 2.236584 1.767767 1.767767 
C 2.236584 1.29895 2.5 0.663008 2.5 0 
C 2.5 -0.663008 2.236584 -1.29895 1.767767 -1.767767 
C 1.29895 -2.236584 0.663008 -2.5 0 -2.5 
C -0.663008 -2.5 -1.29895 -2.236584 -1.767767 -1.767767 
C -2.236584 -1.29895 -2.5 -0.663008 -2.5 0 
C -2.5 0.663008 -2.236584 1.29895 -1.767767 1.767767 
C -1.29895 2.236584 -0.663008 2.5 0 2.5 
z
"/>
    </defs>
    <g>
     <use xlink:href="#m03f73b103d" x="369.101875" y="193.230469" style="fill: #ff7f0e"/>
    </g>
   </g>
   <g id="text_16">
    <!-- f -->
    <g style="fill: #262626" transform="translate(387.101875 196.730469) scale(0.1 -0.1)">
     <use xlink:href="#ArialMT-66"/>
    </g>
   </g>
  </g>
 </g>
 <defs>
  <clipPath id="pc9f5a5e8c4">
   <rect x="47.800505" y="10.8" width="308.210695" height="307.24"/>
  </clipPath>
 </defs>
</svg>
