<?xml version="1.0" encoding="utf-8" standalone="no"?>
<!DOCTYPE svg PUBLIC "-//W3C//DTD SVG 1.1//EN"
  "http://www.w3.org/Graphics/SVG/1.1/DTD/svg11.dtd">
<svg xmlns:xlink="http://www.w3.org/1999/xlink" width="398.88pt" height="360pt" viewBox="0 0 398.88 360" xmlns="http://www.w3.org/2000/svg" version="1.1">
 <metadata>
  <rdf:RDF xmlns:dc="http://purl.org/dc/elements/1.1/" xmlns:cc="http://creativecommons.org/ns#" xmlns:rdf="http://www.w3.org/1999/02/22-rdf-syntax-ns#">
   <cc:Work>
    <dc:type rdf:resource="http://purl.org/dc/dcmitype/StillImage"/>
    <dc:date>2024-09-11T03:31:58.217563</dc:date>
    <dc:format>image/svg+xml</dc:format>
    <dc:creator>
     <cc:Agent>
      <dc:title>Matplotlib v3.8.3, https://matplotlib.org/</dc:title>
     </cc:Agent>
    </dc:creator>
   </cc:Work>
  </rdf:RDF>
 </metadata>
 <defs>
  <style type="text/css">*{stroke-linejoin: round; stroke-linecap: butt}</style>
 </defs>
 <g id="figure_1">
  <g id="patch_1">
   <path d="M 0 360 
L 398.88 360 
L 398.88 0 
L 0 0 
z
" style="fill: #ffffff"/>
  </g>
  <g id="axes_1">
   <g id="patch_2">
    <path d="M 53.983145 318.04 
L 356.0112 318.04 
L 356.0112 10.8 
L 53.983145 10.8 
z
" style="fill: #ffffff"/>
   </g>
   <g id="matplotlib.axis_1">
    <g id="xtick_1">
     <g id="text_1">
      <!-- f -->
      <g style="fill: #262626" transform="translate(128.101096 332.197812) scale(0.1 -0.1)">
       <defs>
        <path id="ArialMT-66" d="M 556 0 
L 556 2881 
L 59 2881 
L 59 3319 
L 556 3319 
L 556 3672 
Q 556 4006 616 4169 
Q 697 4388 901 4523 
Q 1106 4659 1475 4659 
Q 1713 4659 2000 4603 
L 1916 4113 
Q 1741 4144 1584 4144 
Q 1328 4144 1222 4034 
Q 1116 3925 1116 3625 
L 1116 3319 
L 1763 3319 
L 1763 2881 
L 1116 2881 
L 1116 0 
L 556 0 
z
" transform="scale(0.015625)"/>
       </defs>
       <use xlink:href="#ArialMT-66"/>
      </g>
     </g>
    </g>
    <g id="xtick_2">
     <g id="text_2">
      <!-- m -->
      <g style="fill: #262626" transform="translate(276.339342 332.197812) scale(0.1 -0.1)">
       <defs>
        <path id="ArialMT-6d" d="M 422 0 
L 422 3319 
L 925 3319 
L 925 2853 
Q 1081 3097 1340 3245 
Q 1600 3394 1931 3394 
Q 2300 3394 2536 3241 
Q 2772 3088 2869 2813 
Q 3263 3394 3894 3394 
Q 4388 3394 4653 3120 
Q 4919 2847 4919 2278 
L 4919 0 
L 4359 0 
L 4359 2091 
Q 4359 2428 4304 2576 
Q 4250 2725 4106 2815 
Q 3963 2906 3769 2906 
Q 3419 2906 3187 2673 
Q 2956 2441 2956 1928 
L 2956 0 
L 2394 0 
L 2394 2156 
Q 2394 2531 2256 2718 
Q 2119 2906 1806 2906 
Q 1569 2906 1367 2781 
Q 1166 2656 1075 2415 
Q 984 2175 984 1722 
L 984 0 
L 422 0 
z
" transform="scale(0.015625)"/>
       </defs>
       <use xlink:href="#ArialMT-6d"/>
      </g>
     </g>
    </g>
    <g id="text_3">
     <!-- sex -->
     <g style="fill: #262626" transform="translate(197.216704 345.343125) scale(0.1 -0.1)">
      <defs>
       <path id="ArialMT-73" d="M 197 991 
L 753 1078 
Q 800 744 1014 566 
Q 1228 388 1613 388 
Q 2000 388 2187 545 
Q 2375 703 2375 916 
Q 2375 1106 2209 1216 
Q 2094 1291 1634 1406 
Q 1016 1563 777 1677 
Q 538 1791 414 1992 
Q 291 2194 291 2438 
Q 291 2659 392 2848 
Q 494 3038 669 3163 
Q 800 3259 1026 3326 
Q 1253 3394 1513 3394 
Q 1903 3394 2198 3281 
Q 2494 3169 2634 2976 
Q 2775 2784 2828 2463 
L 2278 2388 
Q 2241 2644 2061 2787 
Q 1881 2931 1553 2931 
Q 1166 2931 1000 2803 
Q 834 2675 834 2503 
Q 834 2394 903 2306 
Q 972 2216 1119 2156 
Q 1203 2125 1616 2013 
Q 2213 1853 2448 1751 
Q 2684 1650 2818 1456 
Q 2953 1263 2953 975 
Q 2953 694 2789 445 
Q 2625 197 2315 61 
Q 2006 -75 1616 -75 
Q 969 -75 630 194 
Q 291 463 197 991 
z
" transform="scale(0.015625)"/>
       <path id="ArialMT-65" d="M 2694 1069 
L 3275 997 
Q 3138 488 2766 206 
Q 2394 -75 1816 -75 
Q 1088 -75 661 373 
Q 234 822 234 1631 
Q 234 2469 665 2931 
Q 1097 3394 1784 3394 
Q 2450 3394 2872 2941 
Q 3294 2488 3294 1666 
Q 3294 1616 3291 1516 
L 816 1516 
Q 847 969 1125 678 
Q 1403 388 1819 388 
Q 2128 388 2347 550 
Q 2566 713 2694 1069 
z
M 847 1978 
L 2700 1978 
Q 2663 2397 2488 2606 
Q 2219 2931 1791 2931 
Q 1403 2931 1139 2672 
Q 875 2413 847 1978 
z
" transform="scale(0.015625)"/>
       <path id="ArialMT-78" d="M 47 0 
L 1259 1725 
L 138 3319 
L 841 3319 
L 1350 2541 
Q 1494 2319 1581 2169 
Q 1719 2375 1834 2534 
L 2394 3319 
L 3066 3319 
L 1919 1756 
L 3153 0 
L 2463 0 
L 1781 1031 
L 1600 1309 
L 728 0 
L 47 0 
z
" transform="scale(0.015625)"/>
      </defs>
      <use xlink:href="#ArialMT-73"/>
      <use xlink:href="#ArialMT-65" x="50"/>
      <use xlink:href="#ArialMT-78" x="105.615234"/>
     </g>
    </g>
   </g>
   <g id="matplotlib.axis_2">
    <g id="ytick_1">
     <g id="line2d_1">
      <path d="M 53.983145 273.337943 
L 356.0112 273.337943 
" clip-path="url(#p0022c061d9)" style="fill: none; stroke: #cccccc; stroke-width: 0.8; stroke-linecap: round"/>
     </g>
     <g id="text_4">
      <!-- 20 -->
      <g style="fill: #262626" transform="translate(35.86127 276.916849) scale(0.1 -0.1)">
       <defs>
        <path id="ArialMT-32" d="M 3222 541 
L 3222 0 
L 194 0 
Q 188 203 259 391 
Q 375 700 629 1000 
Q 884 1300 1366 1694 
Q 2113 2306 2375 2664 
Q 2638 3022 2638 3341 
Q 2638 3675 2398 3904 
Q 2159 4134 1775 4134 
Q 1369 4134 1125 3890 
Q 881 3647 878 3216 
L 300 3275 
Q 359 3922 746 4261 
Q 1134 4600 1788 4600 
Q 2447 4600 2831 4234 
Q 3216 3869 3216 3328 
Q 3216 3053 3103 2787 
Q 2991 2522 2730 2228 
Q 2469 1934 1863 1422 
Q 1356 997 1212 845 
Q 1069 694 975 541 
L 3222 541 
z
" transform="scale(0.015625)"/>
        <path id="ArialMT-30" d="M 266 2259 
Q 266 3072 433 3567 
Q 600 4063 929 4331 
Q 1259 4600 1759 4600 
Q 2128 4600 2406 4451 
Q 2684 4303 2865 4023 
Q 3047 3744 3150 3342 
Q 3253 2941 3253 2259 
Q 3253 1453 3087 958 
Q 2922 463 2592 192 
Q 2263 -78 1759 -78 
Q 1097 -78 719 397 
Q 266 969 266 2259 
z
M 844 2259 
Q 844 1131 1108 757 
Q 1372 384 1759 384 
Q 2147 384 2411 759 
Q 2675 1134 2675 2259 
Q 2675 3391 2411 3762 
Q 2147 4134 1753 4134 
Q 1366 4134 1134 3806 
Q 844 3388 844 2259 
z
" transform="scale(0.015625)"/>
       </defs>
       <use xlink:href="#ArialMT-32"/>
       <use xlink:href="#ArialMT-30" x="55.615234"/>
      </g>
     </g>
    </g>
    <g id="ytick_2">
     <g id="line2d_2">
      <path d="M 53.983145 227.037547 
L 356.0112 227.037547 
" clip-path="url(#p0022c061d9)" style="fill: none; stroke: #cccccc; stroke-width: 0.8; stroke-linecap: round"/>
     </g>
     <g id="text_5">
      <!-- 40 -->
      <g style="fill: #262626" transform="translate(35.86127 230.616453) scale(0.1 -0.1)">
       <defs>
        <path id="ArialMT-34" d="M 2069 0 
L 2069 1097 
L 81 1097 
L 81 1613 
L 2172 4581 
L 2631 4581 
L 2631 1613 
L 3250 1613 
L 3250 1097 
L 2631 1097 
L 2631 0 
L 2069 0 
z
M 2069 1613 
L 2069 3678 
L 634 1613 
L 2069 1613 
z
" transform="scale(0.015625)"/>
       </defs>
       <use xlink:href="#ArialMT-34"/>
       <use xlink:href="#ArialMT-30" x="55.615234"/>
      </g>
     </g>
    </g>
    <g id="ytick_3">
     <g id="line2d_3">
      <path d="M 53.983145 180.737151 
L 356.0112 180.737151 
" clip-path="url(#p0022c061d9)" style="fill: none; stroke: #cccccc; stroke-width: 0.8; stroke-linecap: round"/>
     </g>
     <g id="text_6">
      <!-- 60 -->
      <g style="fill: #262626" transform="translate(35.86127 184.316058) scale(0.1 -0.1)">
       <defs>
        <path id="ArialMT-36" d="M 3184 3459 
L 2625 3416 
Q 2550 3747 2413 3897 
Q 2184 4138 1850 4138 
Q 1581 4138 1378 3988 
Q 1113 3794 959 3422 
Q 806 3050 800 2363 
Q 1003 2672 1297 2822 
Q 1591 2972 1913 2972 
Q 2475 2972 2870 2558 
Q 3266 2144 3266 1488 
Q 3266 1056 3080 686 
Q 2894 316 2569 119 
Q 2244 -78 1831 -78 
Q 1128 -78 684 439 
Q 241 956 241 2144 
Q 241 3472 731 4075 
Q 1159 4600 1884 4600 
Q 2425 4600 2770 4297 
Q 3116 3994 3184 3459 
z
M 888 1484 
Q 888 1194 1011 928 
Q 1134 663 1356 523 
Q 1578 384 1822 384 
Q 2178 384 2434 671 
Q 2691 959 2691 1453 
Q 2691 1928 2437 2201 
Q 2184 2475 1800 2475 
Q 1419 2475 1153 2201 
Q 888 1928 888 1484 
z
" transform="scale(0.015625)"/>
       </defs>
       <use xlink:href="#ArialMT-36"/>
       <use xlink:href="#ArialMT-30" x="55.615234"/>
      </g>
     </g>
    </g>
    <g id="ytick_4">
     <g id="line2d_4">
      <path d="M 53.983145 134.436756 
L 356.0112 134.436756 
" clip-path="url(#p0022c061d9)" style="fill: none; stroke: #cccccc; stroke-width: 0.8; stroke-linecap: round"/>
     </g>
     <g id="text_7">
      <!-- 80 -->
      <g style="fill: #262626" transform="translate(35.86127 138.015662) scale(0.1 -0.1)">
       <defs>
        <path id="ArialMT-38" d="M 1131 2484 
Q 781 2613 612 2850 
Q 444 3088 444 3419 
Q 444 3919 803 4259 
Q 1163 4600 1759 4600 
Q 2359 4600 2725 4251 
Q 3091 3903 3091 3403 
Q 3091 3084 2923 2848 
Q 2756 2613 2416 2484 
Q 2838 2347 3058 2040 
Q 3278 1734 3278 1309 
Q 3278 722 2862 322 
Q 2447 -78 1769 -78 
Q 1091 -78 675 323 
Q 259 725 259 1325 
Q 259 1772 486 2073 
Q 713 2375 1131 2484 
z
M 1019 3438 
Q 1019 3113 1228 2906 
Q 1438 2700 1772 2700 
Q 2097 2700 2305 2904 
Q 2513 3109 2513 3406 
Q 2513 3716 2298 3927 
Q 2084 4138 1766 4138 
Q 1444 4138 1231 3931 
Q 1019 3725 1019 3438 
z
M 838 1322 
Q 838 1081 952 856 
Q 1066 631 1291 507 
Q 1516 384 1775 384 
Q 2178 384 2440 643 
Q 2703 903 2703 1303 
Q 2703 1709 2433 1975 
Q 2163 2241 1756 2241 
Q 1359 2241 1098 1978 
Q 838 1716 838 1322 
z
" transform="scale(0.015625)"/>
       </defs>
       <use xlink:href="#ArialMT-38"/>
       <use xlink:href="#ArialMT-30" x="55.615234"/>
      </g>
     </g>
    </g>
    <g id="ytick_5">
     <g id="line2d_5">
      <path d="M 53.983145 88.13636 
L 356.0112 88.13636 
" clip-path="url(#p0022c061d9)" style="fill: none; stroke: #cccccc; stroke-width: 0.8; stroke-linecap: round"/>
     </g>
     <g id="text_8">
      <!-- 100 -->
      <g style="fill: #262626" transform="translate(30.300332 91.715266) scale(0.1 -0.1)">
       <defs>
        <path id="ArialMT-31" d="M 2384 0 
L 1822 0 
L 1822 3584 
Q 1619 3391 1289 3197 
Q 959 3003 697 2906 
L 697 3450 
Q 1169 3672 1522 3987 
Q 1875 4303 2022 4600 
L 2384 4600 
L 2384 0 
z
" transform="scale(0.015625)"/>
       </defs>
       <use xlink:href="#ArialMT-31"/>
       <use xlink:href="#ArialMT-30" x="55.615234"/>
       <use xlink:href="#ArialMT-30" x="111.230469"/>
      </g>
     </g>
    </g>
    <g id="ytick_6">
     <g id="line2d_6">
      <path d="M 53.983145 41.835964 
L 356.0112 41.835964 
" clip-path="url(#p0022c061d9)" style="fill: none; stroke: #cccccc; stroke-width: 0.8; stroke-linecap: round"/>
     </g>
     <g id="text_9">
      <!-- 120 -->
      <g style="fill: #262626" transform="translate(30.300332 45.41487) scale(0.1 -0.1)">
       <use xlink:href="#ArialMT-31"/>
       <use xlink:href="#ArialMT-32" x="55.615234"/>
       <use xlink:href="#ArialMT-30" x="111.230469"/>
      </g>
     </g>
    </g>
    <g id="text_10">
     <!-- Carbohydrates energy % -->
     <g style="fill: #262626" transform="translate(24.195645 219.723906) rotate(-90) scale(0.1 -0.1)">
      <defs>
       <path id="ArialMT-43" d="M 3763 1606 
L 4369 1453 
Q 4178 706 3683 314 
Q 3188 -78 2472 -78 
Q 1731 -78 1267 223 
Q 803 525 561 1097 
Q 319 1669 319 2325 
Q 319 3041 592 3573 
Q 866 4106 1370 4382 
Q 1875 4659 2481 4659 
Q 3169 4659 3637 4309 
Q 4106 3959 4291 3325 
L 3694 3184 
Q 3534 3684 3231 3912 
Q 2928 4141 2469 4141 
Q 1941 4141 1586 3887 
Q 1231 3634 1087 3207 
Q 944 2781 944 2328 
Q 944 1744 1114 1308 
Q 1284 872 1643 656 
Q 2003 441 2422 441 
Q 2931 441 3284 734 
Q 3638 1028 3763 1606 
z
" transform="scale(0.015625)"/>
       <path id="ArialMT-61" d="M 2588 409 
Q 2275 144 1986 34 
Q 1697 -75 1366 -75 
Q 819 -75 525 192 
Q 231 459 231 875 
Q 231 1119 342 1320 
Q 453 1522 633 1644 
Q 813 1766 1038 1828 
Q 1203 1872 1538 1913 
Q 2219 1994 2541 2106 
Q 2544 2222 2544 2253 
Q 2544 2597 2384 2738 
Q 2169 2928 1744 2928 
Q 1347 2928 1158 2789 
Q 969 2650 878 2297 
L 328 2372 
Q 403 2725 575 2942 
Q 747 3159 1072 3276 
Q 1397 3394 1825 3394 
Q 2250 3394 2515 3294 
Q 2781 3194 2906 3042 
Q 3031 2891 3081 2659 
Q 3109 2516 3109 2141 
L 3109 1391 
Q 3109 606 3145 398 
Q 3181 191 3288 0 
L 2700 0 
Q 2613 175 2588 409 
z
M 2541 1666 
Q 2234 1541 1622 1453 
Q 1275 1403 1131 1340 
Q 988 1278 909 1158 
Q 831 1038 831 891 
Q 831 666 1001 516 
Q 1172 366 1500 366 
Q 1825 366 2078 508 
Q 2331 650 2450 897 
Q 2541 1088 2541 1459 
L 2541 1666 
z
" transform="scale(0.015625)"/>
       <path id="ArialMT-72" d="M 416 0 
L 416 3319 
L 922 3319 
L 922 2816 
Q 1116 3169 1280 3281 
Q 1444 3394 1641 3394 
Q 1925 3394 2219 3213 
L 2025 2691 
Q 1819 2813 1613 2813 
Q 1428 2813 1281 2702 
Q 1134 2591 1072 2394 
Q 978 2094 978 1738 
L 978 0 
L 416 0 
z
" transform="scale(0.015625)"/>
       <path id="ArialMT-62" d="M 941 0 
L 419 0 
L 419 4581 
L 981 4581 
L 981 2947 
Q 1338 3394 1891 3394 
Q 2197 3394 2470 3270 
Q 2744 3147 2920 2923 
Q 3097 2700 3197 2384 
Q 3297 2069 3297 1709 
Q 3297 856 2875 390 
Q 2453 -75 1863 -75 
Q 1275 -75 941 416 
L 941 0 
z
M 934 1684 
Q 934 1088 1097 822 
Q 1363 388 1816 388 
Q 2184 388 2453 708 
Q 2722 1028 2722 1663 
Q 2722 2313 2464 2622 
Q 2206 2931 1841 2931 
Q 1472 2931 1203 2611 
Q 934 2291 934 1684 
z
" transform="scale(0.015625)"/>
       <path id="ArialMT-6f" d="M 213 1659 
Q 213 2581 725 3025 
Q 1153 3394 1769 3394 
Q 2453 3394 2887 2945 
Q 3322 2497 3322 1706 
Q 3322 1066 3130 698 
Q 2938 331 2570 128 
Q 2203 -75 1769 -75 
Q 1072 -75 642 372 
Q 213 819 213 1659 
z
M 791 1659 
Q 791 1022 1069 705 
Q 1347 388 1769 388 
Q 2188 388 2466 706 
Q 2744 1025 2744 1678 
Q 2744 2294 2464 2611 
Q 2184 2928 1769 2928 
Q 1347 2928 1069 2612 
Q 791 2297 791 1659 
z
" transform="scale(0.015625)"/>
       <path id="ArialMT-68" d="M 422 0 
L 422 4581 
L 984 4581 
L 984 2938 
Q 1378 3394 1978 3394 
Q 2347 3394 2619 3248 
Q 2891 3103 3008 2847 
Q 3125 2591 3125 2103 
L 3125 0 
L 2563 0 
L 2563 2103 
Q 2563 2525 2380 2717 
Q 2197 2909 1863 2909 
Q 1613 2909 1392 2779 
Q 1172 2650 1078 2428 
Q 984 2206 984 1816 
L 984 0 
L 422 0 
z
" transform="scale(0.015625)"/>
       <path id="ArialMT-79" d="M 397 -1278 
L 334 -750 
Q 519 -800 656 -800 
Q 844 -800 956 -737 
Q 1069 -675 1141 -563 
Q 1194 -478 1313 -144 
Q 1328 -97 1363 -6 
L 103 3319 
L 709 3319 
L 1400 1397 
Q 1534 1031 1641 628 
Q 1738 1016 1872 1384 
L 2581 3319 
L 3144 3319 
L 1881 -56 
Q 1678 -603 1566 -809 
Q 1416 -1088 1222 -1217 
Q 1028 -1347 759 -1347 
Q 597 -1347 397 -1278 
z
" transform="scale(0.015625)"/>
       <path id="ArialMT-64" d="M 2575 0 
L 2575 419 
Q 2259 -75 1647 -75 
Q 1250 -75 917 144 
Q 584 363 401 755 
Q 219 1147 219 1656 
Q 219 2153 384 2558 
Q 550 2963 881 3178 
Q 1213 3394 1622 3394 
Q 1922 3394 2156 3267 
Q 2391 3141 2538 2938 
L 2538 4581 
L 3097 4581 
L 3097 0 
L 2575 0 
z
M 797 1656 
Q 797 1019 1065 703 
Q 1334 388 1700 388 
Q 2069 388 2326 689 
Q 2584 991 2584 1609 
Q 2584 2291 2321 2609 
Q 2059 2928 1675 2928 
Q 1300 2928 1048 2622 
Q 797 2316 797 1656 
z
" transform="scale(0.015625)"/>
       <path id="ArialMT-74" d="M 1650 503 
L 1731 6 
Q 1494 -44 1306 -44 
Q 1000 -44 831 53 
Q 663 150 594 308 
Q 525 466 525 972 
L 525 2881 
L 113 2881 
L 113 3319 
L 525 3319 
L 525 4141 
L 1084 4478 
L 1084 3319 
L 1650 3319 
L 1650 2881 
L 1084 2881 
L 1084 941 
Q 1084 700 1114 631 
Q 1144 563 1211 522 
Q 1278 481 1403 481 
Q 1497 481 1650 503 
z
" transform="scale(0.015625)"/>
       <path id="ArialMT-20" transform="scale(0.015625)"/>
       <path id="ArialMT-6e" d="M 422 0 
L 422 3319 
L 928 3319 
L 928 2847 
Q 1294 3394 1984 3394 
Q 2284 3394 2536 3286 
Q 2788 3178 2913 3003 
Q 3038 2828 3088 2588 
Q 3119 2431 3119 2041 
L 3119 0 
L 2556 0 
L 2556 2019 
Q 2556 2363 2490 2533 
Q 2425 2703 2258 2804 
Q 2091 2906 1866 2906 
Q 1506 2906 1245 2678 
Q 984 2450 984 1813 
L 984 0 
L 422 0 
z
" transform="scale(0.015625)"/>
       <path id="ArialMT-67" d="M 319 -275 
L 866 -356 
Q 900 -609 1056 -725 
Q 1266 -881 1628 -881 
Q 2019 -881 2231 -725 
Q 2444 -569 2519 -288 
Q 2563 -116 2559 434 
Q 2191 0 1641 0 
Q 956 0 581 494 
Q 206 988 206 1678 
Q 206 2153 378 2554 
Q 550 2956 876 3175 
Q 1203 3394 1644 3394 
Q 2231 3394 2613 2919 
L 2613 3319 
L 3131 3319 
L 3131 450 
Q 3131 -325 2973 -648 
Q 2816 -972 2473 -1159 
Q 2131 -1347 1631 -1347 
Q 1038 -1347 672 -1080 
Q 306 -813 319 -275 
z
M 784 1719 
Q 784 1066 1043 766 
Q 1303 466 1694 466 
Q 2081 466 2343 764 
Q 2606 1063 2606 1700 
Q 2606 2309 2336 2618 
Q 2066 2928 1684 2928 
Q 1309 2928 1046 2623 
Q 784 2319 784 1719 
z
" transform="scale(0.015625)"/>
       <path id="ArialMT-25" d="M 372 3481 
Q 372 3972 619 4315 
Q 866 4659 1334 4659 
Q 1766 4659 2048 4351 
Q 2331 4044 2331 3447 
Q 2331 2866 2045 2552 
Q 1759 2238 1341 2238 
Q 925 2238 648 2547 
Q 372 2856 372 3481 
z
M 1350 4272 
Q 1141 4272 1002 4090 
Q 863 3909 863 3425 
Q 863 2984 1003 2804 
Q 1144 2625 1350 2625 
Q 1563 2625 1702 2806 
Q 1841 2988 1841 3469 
Q 1841 3913 1700 4092 
Q 1559 4272 1350 4272 
z
M 1353 -169 
L 3859 4659 
L 4316 4659 
L 1819 -169 
L 1353 -169 
z
M 3334 1075 
Q 3334 1569 3581 1911 
Q 3828 2253 4300 2253 
Q 4731 2253 5014 1945 
Q 5297 1638 5297 1041 
Q 5297 459 5011 145 
Q 4725 -169 4303 -169 
Q 3888 -169 3611 142 
Q 3334 453 3334 1075 
z
M 4316 1866 
Q 4103 1866 3964 1684 
Q 3825 1503 3825 1019 
Q 3825 581 3965 400 
Q 4106 219 4313 219 
Q 4528 219 4667 400 
Q 4806 581 4806 1063 
Q 4806 1506 4665 1686 
Q 4525 1866 4316 1866 
z
" transform="scale(0.015625)"/>
      </defs>
      <use xlink:href="#ArialMT-43"/>
      <use xlink:href="#ArialMT-61" x="72.216797"/>
      <use xlink:href="#ArialMT-72" x="127.832031"/>
      <use xlink:href="#ArialMT-62" x="161.132812"/>
      <use xlink:href="#ArialMT-6f" x="216.748047"/>
      <use xlink:href="#ArialMT-68" x="272.363281"/>
      <use xlink:href="#ArialMT-79" x="327.978516"/>
      <use xlink:href="#ArialMT-64" x="377.978516"/>
      <use xlink:href="#ArialMT-72" x="433.59375"/>
      <use xlink:href="#ArialMT-61" x="466.894531"/>
      <use xlink:href="#ArialMT-74" x="522.509766"/>
      <use xlink:href="#ArialMT-65" x="550.292969"/>
      <use xlink:href="#ArialMT-73" x="605.908203"/>
      <use xlink:href="#ArialMT-20" x="655.908203"/>
      <use xlink:href="#ArialMT-65" x="683.691406"/>
      <use xlink:href="#ArialMT-6e" x="739.306641"/>
      <use xlink:href="#ArialMT-65" x="794.921875"/>
      <use xlink:href="#ArialMT-72" x="850.537109"/>
      <use xlink:href="#ArialMT-67" x="883.837891"/>
      <use xlink:href="#ArialMT-79" x="939.453125"/>
      <use xlink:href="#ArialMT-20" x="989.453125"/>
      <use xlink:href="#ArialMT-25" x="1017.236328"/>
     </g>
    </g>
   </g>
   <g id="PolyCollection_1">
    <defs>
     <path id="me14cf90a34" d="M 99.721787 -151.865316 
L 98.852919 -151.865316 
L 98.760271 -153.413734 
L 98.653106 -154.962152 
L 98.5304 -156.510569 
L 98.391341 -158.058987 
L 98.235399 -159.607405 
L 98.062391 -161.155822 
L 97.872554 -162.70424 
L 97.666598 -164.252658 
L 97.445758 -165.801075 
L 97.211824 -167.349493 
L 96.967156 -168.897911 
L 96.714675 -170.446329 
L 96.457826 -171.994746 
L 96.20052 -173.543164 
L 95.947049 -175.091582 
L 95.701972 -176.639999 
L 95.469989 -178.188417 
L 95.255792 -179.736835 
L 95.063909 -181.285252 
L 94.898545 -182.83367 
L 94.763427 -184.382088 
L 94.661664 -185.930505 
L 94.595622 -187.478923 
L 94.566827 -189.027341 
L 94.575902 -190.575759 
L 94.622529 -192.124176 
L 94.705456 -193.672594 
L 94.822532 -195.221012 
L 94.970775 -196.769429 
L 95.146467 -198.317847 
L 95.345266 -199.866265 
L 95.562341 -201.414682 
L 95.792501 -202.9631 
L 96.030323 -204.511518 
L 96.270283 -206.059936 
L 96.506847 -207.608353 
L 96.734564 -209.156771 
L 96.948117 -210.705189 
L 97.142355 -212.253606 
L 97.312292 -213.802024 
L 97.453089 -215.350442 
L 97.560008 -216.898859 
L 97.628353 -218.447277 
L 97.653408 -219.995695 
L 97.630365 -221.544113 
L 97.554266 -223.09253 
L 97.419963 -224.640948 
L 97.222097 -226.189366 
L 96.955118 -227.737783 
L 96.613339 -229.286201 
L 96.191036 -230.834619 
L 95.682601 -232.383036 
L 95.082739 -233.931454 
L 94.386721 -235.479872 
L 93.590671 -237.02829 
L 92.691901 -238.576707 
L 91.689258 -240.125125 
L 90.583489 -241.673543 
L 89.377596 -243.22196 
L 88.077161 -244.770378 
L 86.690616 -246.318796 
L 85.229445 -247.867213 
L 83.708285 -249.415631 
L 82.144906 -250.964049 
L 80.560062 -252.512466 
L 78.977196 -254.060884 
L 77.421992 -255.609302 
L 75.921789 -257.15772 
L 74.504856 -258.706137 
L 73.199571 -260.254555 
L 72.033513 -261.802973 
L 71.032519 -263.35139 
L 70.219753 -264.899808 
L 69.61482 -266.448226 
L 69.232987 -267.996643 
L 69.084548 -269.545061 
L 69.174365 -271.093479 
L 69.501625 -272.641897 
L 70.059819 -274.190314 
L 70.836958 -275.738732 
L 71.815996 -277.28715 
L 72.975472 -278.835567 
L 74.290301 -280.383985 
L 75.732698 -281.932403 
L 77.273174 -283.48082 
L 78.881559 -285.029238 
L 80.527993 -286.577656 
L 82.183853 -288.126074 
L 83.822563 -289.674491 
L 85.420262 -291.222909 
L 86.956306 -292.771327 
L 88.413607 -294.319744 
L 89.778785 -295.868162 
L 91.042169 -297.41658 
L 92.197654 -298.964997 
L 93.242425 -300.513415 
L 94.176609 -302.061833 
L 95.002842 -303.61025 
L 95.725818 -305.158668 
L 102.848888 -305.158668 
L 102.848888 -305.158668 
L 103.571864 -303.61025 
L 104.398097 -302.061833 
L 105.332281 -300.513415 
L 106.377053 -298.964997 
L 107.532537 -297.41658 
L 108.795922 -295.868162 
L 110.1611 -294.319744 
L 111.6184 -292.771327 
L 113.154445 -291.222909 
L 114.752143 -289.674491 
L 116.390853 -288.126074 
L 118.046713 -286.577656 
L 119.693147 -285.029238 
L 121.301532 -283.48082 
L 122.842009 -281.932403 
L 124.284406 -280.383985 
L 125.599235 -278.835567 
L 126.758711 -277.28715 
L 127.737749 -275.738732 
L 128.514887 -274.190314 
L 129.073082 -272.641897 
L 129.400342 -271.093479 
L 129.490159 -269.545061 
L 129.34172 -267.996643 
L 128.959887 -266.448226 
L 128.354954 -264.899808 
L 127.542187 -263.35139 
L 126.541194 -261.802973 
L 125.375135 -260.254555 
L 124.069851 -258.706137 
L 122.652918 -257.15772 
L 121.152714 -255.609302 
L 119.59751 -254.060884 
L 118.014644 -252.512466 
L 116.429801 -250.964049 
L 114.866422 -249.415631 
L 113.345261 -247.867213 
L 111.884091 -246.318796 
L 110.497546 -244.770378 
L 109.19711 -243.22196 
L 107.991218 -241.673543 
L 106.885449 -240.125125 
L 105.882805 -238.576707 
L 104.984035 -237.02829 
L 104.187986 -235.479872 
L 103.491968 -233.931454 
L 102.892106 -232.383036 
L 102.383671 -230.834619 
L 101.961368 -229.286201 
L 101.619588 -227.737783 
L 101.352609 -226.189366 
L 101.154744 -224.640948 
L 101.02044 -223.09253 
L 100.944341 -221.544113 
L 100.921298 -219.995695 
L 100.946353 -218.447277 
L 101.014699 -216.898859 
L 101.121618 -215.350442 
L 101.262414 -213.802024 
L 101.432352 -212.253606 
L 101.626589 -210.705189 
L 101.840143 -209.156771 
L 102.06786 -207.608353 
L 102.304424 -206.059936 
L 102.544383 -204.511518 
L 102.782206 -202.9631 
L 103.012365 -201.414682 
L 103.22944 -199.866265 
L 103.42824 -198.317847 
L 103.603931 -196.769429 
L 103.752174 -195.221012 
L 103.86925 -193.672594 
L 103.952178 -192.124176 
L 103.998805 -190.575759 
L 104.007879 -189.027341 
L 103.979085 -187.478923 
L 103.913043 -185.930505 
L 103.81128 -184.382088 
L 103.676162 -182.83367 
L 103.510798 -181.285252 
L 103.318914 -179.736835 
L 103.104717 -178.188417 
L 102.872734 -176.639999 
L 102.627658 -175.091582 
L 102.374186 -173.543164 
L 102.11688 -171.994746 
L 101.860031 -170.446329 
L 101.60755 -168.897911 
L 101.362883 -167.349493 
L 101.128949 -165.801075 
L 100.908108 -164.252658 
L 100.702152 -162.70424 
L 100.512315 -161.155822 
L 100.339308 -159.607405 
L 100.183365 -158.058987 
L 100.044307 -156.510569 
L 99.921601 -154.962152 
L 99.814435 -153.413734 
L 99.721787 -151.865316 
z
" style="stroke: #3f3f3f; stroke-width: 1.25"/>
    </defs>
    <g clip-path="url(#p0022c061d9)">
     <use xlink:href="#me14cf90a34" x="0" y="360" style="fill: #3274a1; stroke: #3f3f3f; stroke-width: 1.25"/>
    </g>
   </g>
   <g id="PolyCollection_2">
    <defs>
     <path id="m7cbeb0005c" d="M 159.974075 -55.925455 
L 159.411854 -55.925455 
L 159.354741 -58.746758 
L 159.288746 -61.568062 
L 159.213045 -64.389366 
L 159.126833 -67.21067 
L 159.029333 -70.031974 
L 158.919815 -72.853278 
L 158.797607 -75.674582 
L 158.662104 -78.495886 
L 158.512781 -81.31719 
L 158.349197 -84.138494 
L 158.171004 -86.959798 
L 157.977956 -89.781102 
L 157.769907 -92.602406 
L 157.546828 -95.42371 
L 157.308813 -98.245014 
L 157.056089 -101.066318 
L 156.789043 -103.887622 
L 156.508237 -106.708926 
L 156.214438 -109.53023 
L 155.908651 -112.351534 
L 155.592152 -115.172837 
L 155.266519 -117.994141 
L 154.933669 -120.815445 
L 154.595876 -123.636749 
L 154.255785 -126.458053 
L 153.916412 -129.279357 
L 153.581124 -132.100661 
L 153.253592 -134.921965 
L 152.937727 -137.743269 
L 152.637592 -140.564573 
L 152.357277 -143.385877 
L 152.100772 -146.207181 
L 151.871809 -149.028485 
L 151.673698 -151.849789 
L 151.509159 -154.671093 
L 151.38016 -157.492397 
L 151.28777 -160.313701 
L 151.232029 -163.135005 
L 151.211854 -165.956309 
L 151.22498 -168.777612 
L 151.267943 -171.598916 
L 151.336112 -174.42022 
L 151.423762 -177.241524 
L 151.524195 -180.062828 
L 151.629906 -182.884132 
L 151.732775 -185.705436 
L 151.824301 -188.52674 
L 151.895849 -191.348044 
L 151.93891 -194.169348 
L 151.945371 -196.990652 
L 151.907776 -199.811956 
L 151.819575 -202.63326 
L 151.675356 -205.454564 
L 151.471053 -208.275868 
L 151.20412 -211.097172 
L 150.873673 -213.918476 
L 150.480591 -216.73978 
L 150.027584 -219.561084 
L 149.519202 -222.382388 
L 148.96181 -225.203691 
L 148.363509 -228.024995 
L 147.734009 -230.846299 
L 147.084451 -233.667603 
L 146.427183 -236.488907 
L 145.775484 -239.310211 
L 145.14325 -242.131515 
L 144.544646 -244.952819 
L 143.993728 -247.774123 
L 143.504047 -250.595427 
L 143.088256 -253.416731 
L 142.757723 -256.238035 
L 142.522174 -259.059339 
L 142.389374 -261.880643 
L 142.364873 -264.701947 
L 142.451808 -267.523251 
L 142.650799 -270.344555 
L 142.95992 -273.165859 
L 143.374765 -275.987163 
L 143.8886 -278.808466 
L 144.492593 -281.62977 
L 145.176122 -284.451074 
L 145.927127 -287.272378 
L 146.732517 -290.093682 
L 147.578592 -292.914986 
L 148.451466 -295.73629 
L 149.337479 -298.557594 
L 150.223575 -301.378898 
L 151.097639 -304.200202 
L 151.948765 -307.021506 
L 152.767471 -309.84281 
L 153.545839 -312.664114 
L 154.277586 -315.485418 
L 154.958073 -318.306722 
L 155.584255 -321.128026 
L 156.154575 -323.94933 
L 156.668824 -326.770634 
L 157.12797 -329.591938 
L 157.533971 -332.413242 
L 157.889575 -335.234545 
L 161.496353 -335.234545 
L 161.496353 -335.234545 
L 161.851957 -332.413242 
L 162.257958 -329.591938 
L 162.717105 -326.770634 
L 163.231354 -323.94933 
L 163.801673 -321.128026 
L 164.427855 -318.306722 
L 165.108343 -315.485418 
L 165.84009 -312.664114 
L 166.618458 -309.84281 
L 167.437164 -307.021506 
L 168.288289 -304.200202 
L 169.162353 -301.378898 
L 170.04845 -298.557594 
L 170.934462 -295.73629 
L 171.807336 -292.914986 
L 172.653411 -290.093682 
L 173.458802 -287.272378 
L 174.209807 -284.451074 
L 174.893335 -281.62977 
L 175.497329 -278.808466 
L 176.011164 -275.987163 
L 176.426009 -273.165859 
L 176.73513 -270.344555 
L 176.93412 -267.523251 
L 177.021056 -264.701947 
L 176.996554 -261.880643 
L 176.863755 -259.059339 
L 176.628206 -256.238035 
L 176.297673 -253.416731 
L 175.881881 -250.595427 
L 175.3922 -247.774123 
L 174.841282 -244.952819 
L 174.242679 -242.131515 
L 173.610445 -239.310211 
L 172.958745 -236.488907 
L 172.301477 -233.667603 
L 171.65192 -230.846299 
L 171.02242 -228.024995 
L 170.424119 -225.203691 
L 169.866726 -222.382388 
L 169.358344 -219.561084 
L 168.905337 -216.73978 
L 168.512256 -213.918476 
L 168.181808 -211.097172 
L 167.914875 -208.275868 
L 167.710572 -205.454564 
L 167.566354 -202.63326 
L 167.478153 -199.811956 
L 167.440558 -196.990652 
L 167.447019 -194.169348 
L 167.49008 -191.348044 
L 167.561627 -188.52674 
L 167.653153 -185.705436 
L 167.756022 -182.884132 
L 167.861733 -180.062828 
L 167.962167 -177.241524 
L 168.049817 -174.42022 
L 168.117986 -171.598916 
L 168.160949 -168.777612 
L 168.174074 -165.956309 
L 168.153899 -163.135005 
L 168.098158 -160.313701 
L 168.005768 -157.492397 
L 167.87677 -154.671093 
L 167.712231 -151.849789 
L 167.514119 -149.028485 
L 167.285156 -146.207181 
L 167.028652 -143.385877 
L 166.748337 -140.564573 
L 166.448201 -137.743269 
L 166.132337 -134.921965 
L 165.804805 -132.100661 
L 165.469516 -129.279357 
L 165.130144 -126.458053 
L 164.790053 -123.636749 
L 164.452259 -120.815445 
L 164.119409 -117.994141 
L 163.793777 -115.172837 
L 163.477277 -112.351534 
L 163.17149 -109.53023 
L 162.877691 -106.708926 
L 162.596885 -103.887622 
L 162.329839 -101.066318 
L 162.077116 -98.245014 
L 161.8391 -95.42371 
L 161.616022 -92.602406 
L 161.407973 -89.781102 
L 161.214924 -86.959798 
L 161.036732 -84.138494 
L 160.873148 -81.31719 
L 160.723824 -78.495886 
L 160.588321 -75.674582 
L 160.466113 -72.853278 
L 160.356596 -70.031974 
L 160.259096 -67.21067 
L 160.172883 -64.389366 
L 160.097183 -61.568062 
L 160.031188 -58.746758 
L 159.974075 -55.925455 
z
" style="stroke: #3f3f3f; stroke-width: 1.25"/>
    </defs>
    <g clip-path="url(#p0022c061d9)">
     <use xlink:href="#m7cbeb0005c" x="0" y="360" style="fill: #e1812c; stroke: #3f3f3f; stroke-width: 1.25"/>
    </g>
   </g>
   <g id="PolyCollection_3">
    <defs>
     <path id="m094f0781e4" d="M 250.49563 -105.9354 
L 250.107132 -105.9354 
L 250.061185 -108.022286 
L 250.007159 -110.109172 
L 249.944327 -112.196058 
L 249.872053 -114.282944 
L 249.789827 -116.36983 
L 249.697295 -118.456717 
L 249.594294 -120.543603 
L 249.480878 -122.630489 
L 249.357333 -124.717375 
L 249.224188 -126.804261 
L 249.082214 -128.891147 
L 248.932409 -130.978033 
L 248.775976 -133.064919 
L 248.614288 -135.151805 
L 248.44885 -137.238691 
L 248.28125 -139.325577 
L 248.11311 -141.412463 
L 247.946043 -143.499349 
L 247.781604 -145.586235 
L 247.621259 -147.673121 
L 247.46635 -149.760007 
L 247.318081 -151.846893 
L 247.177503 -153.933779 
L 247.045512 -156.020665 
L 246.922846 -158.107551 
L 246.810089 -160.194437 
L 246.70767 -162.281323 
L 246.61586 -164.36821 
L 246.534757 -166.455096 
L 246.46427 -168.541982 
L 246.404089 -170.628868 
L 246.353654 -172.715754 
L 246.312121 -174.80264 
L 246.278322 -176.889526 
L 246.250747 -178.976412 
L 246.227526 -181.063298 
L 246.206434 -183.150184 
L 246.184919 -185.23707 
L 246.160147 -187.323956 
L 246.129078 -189.410842 
L 246.08855 -191.497728 
L 246.035392 -193.584614 
L 245.966521 -195.6715 
L 245.879059 -197.758386 
L 245.770417 -199.845272 
L 245.638365 -201.932158 
L 245.481071 -204.019044 
L 245.297103 -206.10593 
L 245.08539 -208.192816 
L 244.845157 -210.279703 
L 244.575824 -212.366589 
L 244.276889 -214.453475 
L 243.947814 -216.540361 
L 243.587915 -218.627247 
L 243.19629 -220.714133 
L 242.771785 -222.801019 
L 242.313027 -224.887905 
L 241.818521 -226.974791 
L 241.286823 -229.061677 
L 240.716777 -231.148563 
L 240.107822 -233.235449 
L 239.460337 -235.322335 
L 238.776003 -237.409221 
L 238.058165 -239.496107 
L 237.31214 -241.582993 
L 236.545465 -243.669879 
L 235.768027 -245.756765 
L 234.992066 -247.843651 
L 234.232019 -249.930537 
L 233.50421 -252.017423 
L 232.82637 -254.104309 
L 232.217014 -256.191195 
L 231.694704 -258.278082 
L 231.277222 -260.364968 
L 230.980722 -262.451854 
L 230.818898 -264.53874 
L 230.802232 -266.625626 
L 230.937374 -268.712512 
L 231.226695 -270.799398 
L 231.668055 -272.886284 
L 232.254796 -274.97317 
L 232.975969 -277.060056 
L 233.816785 -279.146942 
L 234.75925 -281.233828 
L 235.782954 -283.320714 
L 236.86595 -285.4076 
L 237.985683 -287.494486 
L 239.119892 -289.581372 
L 240.247449 -291.668258 
L 241.349081 -293.755144 
L 242.407948 -295.84203 
L 243.410046 -297.928916 
L 244.344442 -300.015802 
L 245.203331 -302.102688 
L 245.981945 -304.189575 
L 246.678326 -306.276461 
L 247.293005 -308.363347 
L 247.828605 -310.450233 
L 248.289417 -312.537119 
L 252.313344 -312.537119 
L 252.313344 -312.537119 
L 252.774156 -310.450233 
L 253.309757 -308.363347 
L 253.924436 -306.276461 
L 254.620817 -304.189575 
L 255.399431 -302.102688 
L 256.25832 -300.015802 
L 257.192715 -297.928916 
L 258.194813 -295.84203 
L 259.25368 -293.755144 
L 260.355313 -291.668258 
L 261.482869 -289.581372 
L 262.617078 -287.494486 
L 263.736811 -285.4076 
L 264.819808 -283.320714 
L 265.843511 -281.233828 
L 266.785977 -279.146942 
L 267.626793 -277.060056 
L 268.347966 -274.97317 
L 268.934706 -272.886284 
L 269.376067 -270.799398 
L 269.665388 -268.712512 
L 269.80053 -266.625626 
L 269.783863 -264.53874 
L 269.622039 -262.451854 
L 269.325539 -260.364968 
L 268.908057 -258.278082 
L 268.385747 -256.191195 
L 267.776392 -254.104309 
L 267.098552 -252.017423 
L 266.370743 -249.930537 
L 265.610696 -247.843651 
L 264.834734 -245.756765 
L 264.057296 -243.669879 
L 263.290621 -241.582993 
L 262.544597 -239.496107 
L 261.826758 -237.409221 
L 261.142425 -235.322335 
L 260.49494 -233.235449 
L 259.885985 -231.148563 
L 259.315939 -229.061677 
L 258.78424 -226.974791 
L 258.289735 -224.887905 
L 257.830977 -222.801019 
L 257.406472 -220.714133 
L 257.014847 -218.627247 
L 256.654948 -216.540361 
L 256.325873 -214.453475 
L 256.026938 -212.366589 
L 255.757604 -210.279703 
L 255.517372 -208.192816 
L 255.305659 -206.10593 
L 255.12169 -204.019044 
L 254.964397 -201.932158 
L 254.832345 -199.845272 
L 254.723702 -197.758386 
L 254.63624 -195.6715 
L 254.56737 -193.584614 
L 254.514211 -191.497728 
L 254.473684 -189.410842 
L 254.442614 -187.323956 
L 254.417843 -185.23707 
L 254.396327 -183.150184 
L 254.375236 -181.063298 
L 254.352015 -178.976412 
L 254.32444 -176.889526 
L 254.290641 -174.80264 
L 254.249107 -172.715754 
L 254.198673 -170.628868 
L 254.138492 -168.541982 
L 254.068004 -166.455096 
L 253.986901 -164.36821 
L 253.895091 -162.281323 
L 253.792673 -160.194437 
L 253.679916 -158.107551 
L 253.55725 -156.020665 
L 253.425258 -153.933779 
L 253.284681 -151.846893 
L 253.136412 -149.760007 
L 252.981503 -147.673121 
L 252.821157 -145.586235 
L 252.656718 -143.499349 
L 252.489651 -141.412463 
L 252.321512 -139.325577 
L 252.153911 -137.238691 
L 251.988473 -135.151805 
L 251.826786 -133.064919 
L 251.670353 -130.978033 
L 251.520548 -128.891147 
L 251.378574 -126.804261 
L 251.245429 -124.717375 
L 251.121884 -122.630489 
L 251.008467 -120.543603 
L 250.905467 -118.456717 
L 250.812935 -116.36983 
L 250.730708 -114.282944 
L 250.658435 -112.196058 
L 250.595603 -110.109172 
L 250.541576 -108.022286 
L 250.49563 -105.9354 
z
" style="stroke: #3f3f3f; stroke-width: 1.25"/>
    </defs>
    <g clip-path="url(#p0022c061d9)">
     <use xlink:href="#m094f0781e4" x="0" y="360" style="fill: #3274a1; stroke: #3f3f3f; stroke-width: 1.25"/>
    </g>
   </g>
   <g id="PolyCollection_4">
    <defs>
     <path id="m2c38edaeb4" d="M 310.995405 -100.240578 
L 310.418579 -100.240578 
L 310.343731 -102.329049 
L 310.255875 -104.41752 
L 310.15462 -106.505991 
L 310.040113 -108.594462 
L 309.913138 -110.682933 
L 309.775198 -112.771404 
L 309.628557 -114.859875 
L 309.476223 -116.948347 
L 309.321873 -119.036818 
L 309.169714 -121.125289 
L 309.024271 -123.21376 
L 308.890133 -125.302231 
L 308.771647 -127.390702 
L 308.672601 -129.479173 
L 308.595904 -131.567644 
L 308.543301 -133.656115 
L 308.515143 -135.744587 
L 308.510231 -137.833058 
L 308.525755 -139.921529 
L 308.557329 -142.01 
L 308.599135 -144.098471 
L 308.644159 -146.186942 
L 308.684507 -148.275413 
L 308.711794 -150.363884 
L 308.717571 -152.452356 
L 308.693777 -154.540827 
L 308.633186 -156.629298 
L 308.529829 -158.717769 
L 308.379364 -160.80624 
L 308.179373 -162.894711 
L 307.929562 -164.983182 
L 307.63185 -167.071653 
L 307.290329 -169.160124 
L 306.911074 -171.248596 
L 306.501821 -173.337067 
L 306.071499 -175.425538 
L 305.629644 -177.514009 
L 305.185724 -179.60248 
L 304.748415 -181.690951 
L 304.32487 -183.779422 
L 303.920063 -185.867893 
L 303.536231 -187.956364 
L 303.172501 -190.044836 
L 302.824717 -192.133307 
L 302.485513 -194.221778 
L 302.144626 -196.310249 
L 301.789451 -198.39872 
L 301.405782 -200.487191 
L 300.978706 -202.575662 
L 300.493577 -204.664133 
L 299.937003 -206.752605 
L 299.297769 -208.841076 
L 298.567647 -210.929547 
L 297.742023 -213.018018 
L 296.820323 -215.106489 
L 295.806212 -217.19496 
L 294.707564 -219.283431 
L 293.536219 -221.371902 
L 292.307559 -223.460373 
L 291.039934 -225.548845 
L 289.753976 -227.637316 
L 288.471865 -229.725787 
L 287.216565 -231.814258 
L 286.011092 -233.902729 
L 284.877849 -235.9912 
L 283.83804 -238.079671 
L 282.911206 -240.168142 
L 282.114874 -242.256614 
L 281.464325 -244.345085 
L 280.97246 -246.433556 
L 280.649742 -248.522027 
L 280.504186 -250.610498 
L 280.541351 -252.698969 
L 280.764319 -254.78744 
L 281.173623 -256.875911 
L 281.767131 -258.964382 
L 282.539885 -261.052854 
L 283.483914 -263.141325 
L 284.588081 -265.229796 
L 285.837991 -267.318267 
L 287.216021 -269.406738 
L 288.701509 -271.495209 
L 290.271138 -273.58368 
L 291.899516 -275.672151 
L 293.559934 -277.760622 
L 295.225271 -279.849094 
L 296.868975 -281.937565 
L 298.46606 -284.026036 
L 299.994027 -286.114507 
L 301.433653 -288.202978 
L 302.76958 -290.291449 
L 303.990667 -292.37992 
L 305.090095 -294.468391 
L 306.065226 -296.556863 
L 306.917248 -298.645334 
L 307.650653 -300.733805 
L 308.272602 -302.822276 
L 308.792234 -304.910747 
L 309.219972 -306.999218 
L 312.194012 -306.999218 
L 312.194012 -306.999218 
L 312.621749 -304.910747 
L 313.141381 -302.822276 
L 313.76333 -300.733805 
L 314.496735 -298.645334 
L 315.348757 -296.556863 
L 316.323888 -294.468391 
L 317.423317 -292.37992 
L 318.644404 -290.291449 
L 319.98033 -288.202978 
L 321.419956 -286.114507 
L 322.947923 -284.026036 
L 324.545008 -281.937565 
L 326.188713 -279.849094 
L 327.85405 -277.760622 
L 329.514468 -275.672151 
L 331.142846 -273.58368 
L 332.712475 -271.495209 
L 334.197963 -269.406738 
L 335.575992 -267.318267 
L 336.825903 -265.229796 
L 337.93007 -263.141325 
L 338.874099 -261.052854 
L 339.646852 -258.964382 
L 340.240361 -256.875911 
L 340.649665 -254.78744 
L 340.872632 -252.698969 
L 340.909797 -250.610498 
L 340.764241 -248.522027 
L 340.441523 -246.433556 
L 339.949658 -244.345085 
L 339.299109 -242.256614 
L 338.502778 -240.168142 
L 337.575944 -238.079671 
L 336.536134 -235.9912 
L 335.402891 -233.902729 
L 334.197419 -231.814258 
L 332.942118 -229.725787 
L 331.660007 -227.637316 
L 330.37405 -225.548845 
L 329.106424 -223.460373 
L 327.877764 -221.371902 
L 326.706419 -219.283431 
L 325.607771 -217.19496 
L 324.59366 -215.106489 
L 323.671961 -213.018018 
L 322.846336 -210.929547 
L 322.116214 -208.841076 
L 321.476981 -206.752605 
L 320.920406 -204.664133 
L 320.435278 -202.575662 
L 320.008201 -200.487191 
L 319.624532 -198.39872 
L 319.269357 -196.310249 
L 318.928471 -194.221778 
L 318.589266 -192.133307 
L 318.241482 -190.044836 
L 317.877752 -187.956364 
L 317.493921 -185.867893 
L 317.089114 -183.779422 
L 316.665569 -181.690951 
L 316.228259 -179.60248 
L 315.78434 -177.514009 
L 315.342485 -175.425538 
L 314.912163 -173.337067 
L 314.502909 -171.248596 
L 314.123654 -169.160124 
L 313.782133 -167.071653 
L 313.484422 -164.983182 
L 313.234611 -162.894711 
L 313.034619 -160.80624 
L 312.884155 -158.717769 
L 312.780798 -156.629298 
L 312.720207 -154.540827 
L 312.696413 -152.452356 
L 312.702189 -150.363884 
L 312.729476 -148.275413 
L 312.769824 -146.186942 
L 312.814848 -144.098471 
L 312.856655 -142.01 
L 312.888229 -139.921529 
L 312.903752 -137.833058 
L 312.89884 -135.744587 
L 312.870682 -133.656115 
L 312.81808 -131.567644 
L 312.741382 -129.479173 
L 312.642336 -127.390702 
L 312.523851 -125.302231 
L 312.389713 -123.21376 
L 312.24427 -121.125289 
L 312.09211 -119.036818 
L 311.937761 -116.948347 
L 311.785427 -114.859875 
L 311.638786 -112.771404 
L 311.500846 -110.682933 
L 311.37387 -108.594462 
L 311.259363 -106.505991 
L 311.158109 -104.41752 
L 311.070252 -102.329049 
L 310.995405 -100.240578 
z
" style="stroke: #3f3f3f; stroke-width: 1.25"/>
    </defs>
    <g clip-path="url(#p0022c061d9)">
     <use xlink:href="#m2c38edaeb4" x="0" y="360" style="fill: #e1812c; stroke: #3f3f3f; stroke-width: 1.25"/>
    </g>
   </g>
   <g id="patch_3">
    <path d="M 129.490159 319.638339 
L 129.490159 319.638339 
L 129.490159 319.638339 
L 129.490159 319.638339 
z
" clip-path="url(#p0022c061d9)" style="fill: #3274a1; stroke: #3f3f3f; stroke-width: 1.25; stroke-linejoin: miter"/>
   </g>
   <g id="patch_4">
    <path d="M 129.490159 319.638339 
L 129.490159 319.638339 
L 129.490159 319.638339 
L 129.490159 319.638339 
z
" clip-path="url(#p0022c061d9)" style="fill: #e1812c; stroke: #3f3f3f; stroke-width: 1.25; stroke-linejoin: miter"/>
   </g>
   <g id="line2d_7">
    <path d="M 99.287353 105.183213 
L 99.287353 88.13636 
" clip-path="url(#p0022c061d9)" style="fill: none; stroke: #3f3f3f; stroke-width: 1.875; stroke-linecap: round"/>
   </g>
   <g id="line2d_8">
    <path d="M 99.287353 96.845183 
L 99.287353 88.13636 
" clip-path="url(#p0022c061d9)" style="fill: none; stroke: #3f3f3f; stroke-width: 5.625; stroke-linecap: round"/>
   </g>
   <g id="line2d_9">
    <path d="M 99.287353 88.13636 
" clip-path="url(#p0022c061d9)" style="fill: none; stroke: #3f3f3f; stroke-width: 1.5; stroke-linecap: round"/>
    <defs>
     <path id="ma104b1ba41" d="M 2.34375 0 
L -2.34375 -0 
" style="stroke: #ffffff; stroke-width: 1.125"/>
    </defs>
    <g clip-path="url(#p0022c061d9)">
     <use xlink:href="#ma104b1ba41" x="99.287353" y="88.13636" style="fill: #ffffff; stroke: #ffffff; stroke-width: 1.125"/>
    </g>
   </g>
   <g id="line2d_10">
    <path d="M 159.692964 240.70364 
L 159.692964 88.13636 
" clip-path="url(#p0022c061d9)" style="fill: none; stroke: #3f3f3f; stroke-width: 1.875; stroke-linecap: round"/>
   </g>
   <g id="line2d_11">
    <path d="M 159.692964 188.48588 
L 159.692964 88.13636 
" clip-path="url(#p0022c061d9)" style="fill: none; stroke: #3f3f3f; stroke-width: 5.625; stroke-linecap: round"/>
   </g>
   <g id="line2d_12">
    <path d="M 159.692964 102.899574 
" clip-path="url(#p0022c061d9)" style="fill: none; stroke: #3f3f3f; stroke-width: 1.5; stroke-linecap: round"/>
    <g clip-path="url(#p0022c061d9)">
     <use xlink:href="#ma104b1ba41" x="159.692964" y="102.899574" style="fill: #ffffff; stroke: #ffffff; stroke-width: 1.125"/>
    </g>
   </g>
   <g id="line2d_13">
    <path d="M 250.301381 196.805363 
L 250.301381 88.13636 
" clip-path="url(#p0022c061d9)" style="fill: none; stroke: #3f3f3f; stroke-width: 1.875; stroke-linecap: round"/>
   </g>
   <g id="line2d_14">
    <path d="M 250.301381 132.06401 
L 250.301381 88.13636 
" clip-path="url(#p0022c061d9)" style="fill: none; stroke: #3f3f3f; stroke-width: 5.625; stroke-linecap: round"/>
   </g>
   <g id="line2d_15">
    <path d="M 250.301381 96.38924 
" clip-path="url(#p0022c061d9)" style="fill: none; stroke: #3f3f3f; stroke-width: 1.5; stroke-linecap: round"/>
    <g clip-path="url(#p0022c061d9)">
     <use xlink:href="#ma104b1ba41" x="250.301381" y="96.38924" style="fill: #ffffff; stroke: #ffffff; stroke-width: 1.125"/>
    </g>
   </g>
   <g id="line2d_16">
    <path d="M 310.706992 174.930894 
L 310.706992 88.13636 
" clip-path="url(#p0022c061d9)" style="fill: none; stroke: #3f3f3f; stroke-width: 1.875; stroke-linecap: round"/>
   </g>
   <g id="line2d_17">
    <path d="M 310.706992 133.347889 
L 310.706992 99.236213 
" clip-path="url(#p0022c061d9)" style="fill: none; stroke: #3f3f3f; stroke-width: 5.625; stroke-linecap: round"/>
   </g>
   <g id="line2d_18">
    <path d="M 310.706992 114.144925 
" clip-path="url(#p0022c061d9)" style="fill: none; stroke: #3f3f3f; stroke-width: 1.5; stroke-linecap: round"/>
    <g clip-path="url(#p0022c061d9)">
     <use xlink:href="#ma104b1ba41" x="310.706992" y="114.144925" style="fill: #ffffff; stroke: #ffffff; stroke-width: 1.125"/>
    </g>
   </g>
   <g id="patch_5">
    <path d="M 53.983145 318.04 
L 53.983145 10.8 
" style="fill: none; stroke: #cccccc; stroke-width: 0.8; stroke-linejoin: miter; stroke-linecap: square"/>
   </g>
   <g id="patch_6">
    <path d="M 53.983145 318.04 
L 356.0112 318.04 
" style="fill: none; stroke: #cccccc; stroke-width: 0.8; stroke-linejoin: miter; stroke-linecap: square"/>
   </g>
  </g>
  <g id="legend_1">
   <g id="text_11">
    <!-- time -->
    <g style="fill: #262626" transform="translate(365.045625 168.439844) scale(0.1 -0.1)">
     <defs>
      <path id="ArialMT-69" d="M 425 3934 
L 425 4581 
L 988 4581 
L 988 3934 
L 425 3934 
z
M 425 0 
L 425 3319 
L 988 3319 
L 988 0 
L 425 0 
z
" transform="scale(0.015625)"/>
     </defs>
     <use xlink:href="#ArialMT-74"/>
     <use xlink:href="#ArialMT-69" x="27.783203"/>
     <use xlink:href="#ArialMT-6d" x="50"/>
     <use xlink:href="#ArialMT-65" x="133.300781"/>
    </g>
   </g>
   <g id="patch_7">
    <path d="M 359.101875 182.585156 
L 379.101875 182.585156 
L 379.101875 175.585156 
L 359.101875 175.585156 
z
" style="fill: #3274a1; stroke: #3f3f3f; stroke-width: 1.25; stroke-linejoin: miter"/>
   </g>
   <g id="text_12">
    <!-- i -->
    <g style="fill: #262626" transform="translate(387.101875 182.585156) scale(0.1 -0.1)">
     <use xlink:href="#ArialMT-69"/>
    </g>
   </g>
   <g id="patch_8">
    <path d="M 359.101875 196.730469 
L 379.101875 196.730469 
L 379.101875 189.730469 
L 359.101875 189.730469 
z
" style="fill: #e1812c; stroke: #3f3f3f; stroke-width: 1.25; stroke-linejoin: miter"/>
   </g>
   <g id="text_13">
    <!-- f -->
    <g style="fill: #262626" transform="translate(387.101875 196.730469) scale(0.1 -0.1)">
     <use xlink:href="#ArialMT-66"/>
    </g>
   </g>
  </g>
 </g>
 <defs>
  <clipPath id="p0022c061d9">
   <rect x="53.983145" y="10.8" width="302.028055" height="307.24"/>
  </clipPath>
 </defs>
</svg>
