<?xml version="1.0" encoding="utf-8" standalone="no"?>
<!DOCTYPE svg PUBLIC "-//W3C//DTD SVG 1.1//EN"
  "http://www.w3.org/Graphics/SVG/1.1/DTD/svg11.dtd">
<svg xmlns:xlink="http://www.w3.org/1999/xlink" width="398.88pt" height="360pt" viewBox="0 0 398.88 360" xmlns="http://www.w3.org/2000/svg" version="1.1">
 <metadata>
  <rdf:RDF xmlns:dc="http://purl.org/dc/elements/1.1/" xmlns:cc="http://creativecommons.org/ns#" xmlns:rdf="http://www.w3.org/1999/02/22-rdf-syntax-ns#">
   <cc:Work>
    <dc:type rdf:resource="http://purl.org/dc/dcmitype/StillImage"/>
    <dc:date>2024-09-11T03:31:57.091136</dc:date>
    <dc:format>image/svg+xml</dc:format>
    <dc:creator>
     <cc:Agent>
      <dc:title>Matplotlib v3.8.3, https://matplotlib.org/</dc:title>
     </cc:Agent>
    </dc:creator>
   </cc:Work>
  </rdf:RDF>
 </metadata>
 <defs>
  <style type="text/css">*{stroke-linejoin: round; stroke-linecap: butt}</style>
 </defs>
 <g id="figure_1">
  <g id="patch_1">
   <path d="M 0 360 
L 398.88 360 
L 398.88 0 
L 0 0 
z
" style="fill: #ffffff"/>
  </g>
  <g id="axes_1">
   <g id="patch_2">
    <path d="M 60.464945 318.04 
L 356.0112 318.04 
L 356.0112 10.8 
L 60.464945 10.8 
z
" style="fill: #ffffff"/>
   </g>
   <g id="matplotlib.axis_1">
    <g id="xtick_1">
     <g id="text_1">
      <!-- f -->
      <g style="fill: #262626" transform="translate(132.962446 332.197812) scale(0.1 -0.1)">
       <defs>
        <path id="ArialMT-66" d="M 556 0 
L 556 2881 
L 59 2881 
L 59 3319 
L 556 3319 
L 556 3672 
Q 556 4006 616 4169 
Q 697 4388 901 4523 
Q 1106 4659 1475 4659 
Q 1713 4659 2000 4603 
L 1916 4113 
Q 1741 4144 1584 4144 
Q 1328 4144 1222 4034 
Q 1116 3925 1116 3625 
L 1116 3319 
L 1763 3319 
L 1763 2881 
L 1116 2881 
L 1116 0 
L 556 0 
z
" transform="scale(0.015625)"/>
       </defs>
       <use xlink:href="#ArialMT-66"/>
      </g>
     </g>
    </g>
    <g id="xtick_2">
     <g id="text_2">
      <!-- m -->
      <g style="fill: #262626" transform="translate(277.959792 332.197812) scale(0.1 -0.1)">
       <defs>
        <path id="ArialMT-6d" d="M 422 0 
L 422 3319 
L 925 3319 
L 925 2853 
Q 1081 3097 1340 3245 
Q 1600 3394 1931 3394 
Q 2300 3394 2536 3241 
Q 2772 3088 2869 2813 
Q 3263 3394 3894 3394 
Q 4388 3394 4653 3120 
Q 4919 2847 4919 2278 
L 4919 0 
L 4359 0 
L 4359 2091 
Q 4359 2428 4304 2576 
Q 4250 2725 4106 2815 
Q 3963 2906 3769 2906 
Q 3419 2906 3187 2673 
Q 2956 2441 2956 1928 
L 2956 0 
L 2394 0 
L 2394 2156 
Q 2394 2531 2256 2718 
Q 2119 2906 1806 2906 
Q 1569 2906 1367 2781 
Q 1166 2656 1075 2415 
Q 984 2175 984 1722 
L 984 0 
L 422 0 
z
" transform="scale(0.015625)"/>
       </defs>
       <use xlink:href="#ArialMT-6d"/>
      </g>
     </g>
    </g>
    <g id="text_3">
     <!-- sex -->
     <g style="fill: #262626" transform="translate(200.457604 345.343125) scale(0.1 -0.1)">
      <defs>
       <path id="ArialMT-73" d="M 197 991 
L 753 1078 
Q 800 744 1014 566 
Q 1228 388 1613 388 
Q 2000 388 2187 545 
Q 2375 703 2375 916 
Q 2375 1106 2209 1216 
Q 2094 1291 1634 1406 
Q 1016 1563 777 1677 
Q 538 1791 414 1992 
Q 291 2194 291 2438 
Q 291 2659 392 2848 
Q 494 3038 669 3163 
Q 800 3259 1026 3326 
Q 1253 3394 1513 3394 
Q 1903 3394 2198 3281 
Q 2494 3169 2634 2976 
Q 2775 2784 2828 2463 
L 2278 2388 
Q 2241 2644 2061 2787 
Q 1881 2931 1553 2931 
Q 1166 2931 1000 2803 
Q 834 2675 834 2503 
Q 834 2394 903 2306 
Q 972 2216 1119 2156 
Q 1203 2125 1616 2013 
Q 2213 1853 2448 1751 
Q 2684 1650 2818 1456 
Q 2953 1263 2953 975 
Q 2953 694 2789 445 
Q 2625 197 2315 61 
Q 2006 -75 1616 -75 
Q 969 -75 630 194 
Q 291 463 197 991 
z
" transform="scale(0.015625)"/>
       <path id="ArialMT-65" d="M 2694 1069 
L 3275 997 
Q 3138 488 2766 206 
Q 2394 -75 1816 -75 
Q 1088 -75 661 373 
Q 234 822 234 1631 
Q 234 2469 665 2931 
Q 1097 3394 1784 3394 
Q 2450 3394 2872 2941 
Q 3294 2488 3294 1666 
Q 3294 1616 3291 1516 
L 816 1516 
Q 847 969 1125 678 
Q 1403 388 1819 388 
Q 2128 388 2347 550 
Q 2566 713 2694 1069 
z
M 847 1978 
L 2700 1978 
Q 2663 2397 2488 2606 
Q 2219 2931 1791 2931 
Q 1403 2931 1139 2672 
Q 875 2413 847 1978 
z
" transform="scale(0.015625)"/>
       <path id="ArialMT-78" d="M 47 0 
L 1259 1725 
L 138 3319 
L 841 3319 
L 1350 2541 
Q 1494 2319 1581 2169 
Q 1719 2375 1834 2534 
L 2394 3319 
L 3066 3319 
L 1919 1756 
L 3153 0 
L 2463 0 
L 1781 1031 
L 1600 1309 
L 728 0 
L 47 0 
z
" transform="scale(0.015625)"/>
      </defs>
      <use xlink:href="#ArialMT-73"/>
      <use xlink:href="#ArialMT-65" x="50"/>
      <use xlink:href="#ArialMT-78" x="105.615234"/>
     </g>
    </g>
   </g>
   <g id="matplotlib.axis_2">
    <g id="ytick_1">
     <g id="line2d_1">
      <path d="M 60.464945 316.484125 
L 356.0112 316.484125 
" clip-path="url(#p3ad78b8b1c)" style="fill: none; stroke: #cccccc; stroke-width: 0.8; stroke-linecap: round"/>
     </g>
     <g id="text_4">
      <!-- −100 -->
      <g style="fill: #262626" transform="translate(30.941508 320.063032) scale(0.1 -0.1)">
       <defs>
        <path id="ArialMT-2212" d="M 3381 1997 
L 356 1997 
L 356 2522 
L 3381 2522 
L 3381 1997 
z
" transform="scale(0.015625)"/>
        <path id="ArialMT-31" d="M 2384 0 
L 1822 0 
L 1822 3584 
Q 1619 3391 1289 3197 
Q 959 3003 697 2906 
L 697 3450 
Q 1169 3672 1522 3987 
Q 1875 4303 2022 4600 
L 2384 4600 
L 2384 0 
z
" transform="scale(0.015625)"/>
        <path id="ArialMT-30" d="M 266 2259 
Q 266 3072 433 3567 
Q 600 4063 929 4331 
Q 1259 4600 1759 4600 
Q 2128 4600 2406 4451 
Q 2684 4303 2865 4023 
Q 3047 3744 3150 3342 
Q 3253 2941 3253 2259 
Q 3253 1453 3087 958 
Q 2922 463 2592 192 
Q 2263 -78 1759 -78 
Q 1097 -78 719 397 
Q 266 969 266 2259 
z
M 844 2259 
Q 844 1131 1108 757 
Q 1372 384 1759 384 
Q 2147 384 2411 759 
Q 2675 1134 2675 2259 
Q 2675 3391 2411 3762 
Q 2147 4134 1753 4134 
Q 1366 4134 1134 3806 
Q 844 3388 844 2259 
z
" transform="scale(0.015625)"/>
       </defs>
       <use xlink:href="#ArialMT-2212"/>
       <use xlink:href="#ArialMT-31" x="58.398438"/>
       <use xlink:href="#ArialMT-30" x="114.013672"/>
       <use xlink:href="#ArialMT-30" x="169.628906"/>
      </g>
     </g>
    </g>
    <g id="ytick_2">
     <g id="line2d_2">
      <path d="M 60.464945 276.271423 
L 356.0112 276.271423 
" clip-path="url(#p3ad78b8b1c)" style="fill: none; stroke: #cccccc; stroke-width: 0.8; stroke-linecap: round"/>
     </g>
     <g id="text_5">
      <!-- 0 -->
      <g style="fill: #262626" transform="translate(47.904007 279.850329) scale(0.1 -0.1)">
       <use xlink:href="#ArialMT-30"/>
      </g>
     </g>
    </g>
    <g id="ytick_3">
     <g id="line2d_3">
      <path d="M 60.464945 236.058721 
L 356.0112 236.058721 
" clip-path="url(#p3ad78b8b1c)" style="fill: none; stroke: #cccccc; stroke-width: 0.8; stroke-linecap: round"/>
     </g>
     <g id="text_6">
      <!-- 100 -->
      <g style="fill: #262626" transform="translate(36.782133 239.637627) scale(0.1 -0.1)">
       <use xlink:href="#ArialMT-31"/>
       <use xlink:href="#ArialMT-30" x="55.615234"/>
       <use xlink:href="#ArialMT-30" x="111.230469"/>
      </g>
     </g>
    </g>
    <g id="ytick_4">
     <g id="line2d_4">
      <path d="M 60.464945 195.846018 
L 356.0112 195.846018 
" clip-path="url(#p3ad78b8b1c)" style="fill: none; stroke: #cccccc; stroke-width: 0.8; stroke-linecap: round"/>
     </g>
     <g id="text_7">
      <!-- 200 -->
      <g style="fill: #262626" transform="translate(36.782133 199.424925) scale(0.1 -0.1)">
       <defs>
        <path id="ArialMT-32" d="M 3222 541 
L 3222 0 
L 194 0 
Q 188 203 259 391 
Q 375 700 629 1000 
Q 884 1300 1366 1694 
Q 2113 2306 2375 2664 
Q 2638 3022 2638 3341 
Q 2638 3675 2398 3904 
Q 2159 4134 1775 4134 
Q 1369 4134 1125 3890 
Q 881 3647 878 3216 
L 300 3275 
Q 359 3922 746 4261 
Q 1134 4600 1788 4600 
Q 2447 4600 2831 4234 
Q 3216 3869 3216 3328 
Q 3216 3053 3103 2787 
Q 2991 2522 2730 2228 
Q 2469 1934 1863 1422 
Q 1356 997 1212 845 
Q 1069 694 975 541 
L 3222 541 
z
" transform="scale(0.015625)"/>
       </defs>
       <use xlink:href="#ArialMT-32"/>
       <use xlink:href="#ArialMT-30" x="55.615234"/>
       <use xlink:href="#ArialMT-30" x="111.230469"/>
      </g>
     </g>
    </g>
    <g id="ytick_5">
     <g id="line2d_5">
      <path d="M 60.464945 155.633316 
L 356.0112 155.633316 
" clip-path="url(#p3ad78b8b1c)" style="fill: none; stroke: #cccccc; stroke-width: 0.8; stroke-linecap: round"/>
     </g>
     <g id="text_8">
      <!-- 300 -->
      <g style="fill: #262626" transform="translate(36.782133 159.212222) scale(0.1 -0.1)">
       <defs>
        <path id="ArialMT-33" d="M 269 1209 
L 831 1284 
Q 928 806 1161 595 
Q 1394 384 1728 384 
Q 2125 384 2398 659 
Q 2672 934 2672 1341 
Q 2672 1728 2419 1979 
Q 2166 2231 1775 2231 
Q 1616 2231 1378 2169 
L 1441 2663 
Q 1497 2656 1531 2656 
Q 1891 2656 2178 2843 
Q 2466 3031 2466 3422 
Q 2466 3731 2256 3934 
Q 2047 4138 1716 4138 
Q 1388 4138 1169 3931 
Q 950 3725 888 3313 
L 325 3413 
Q 428 3978 793 4289 
Q 1159 4600 1703 4600 
Q 2078 4600 2393 4439 
Q 2709 4278 2876 4000 
Q 3044 3722 3044 3409 
Q 3044 3113 2884 2869 
Q 2725 2625 2413 2481 
Q 2819 2388 3044 2092 
Q 3269 1797 3269 1353 
Q 3269 753 2831 336 
Q 2394 -81 1725 -81 
Q 1122 -81 723 278 
Q 325 638 269 1209 
z
" transform="scale(0.015625)"/>
       </defs>
       <use xlink:href="#ArialMT-33"/>
       <use xlink:href="#ArialMT-30" x="55.615234"/>
       <use xlink:href="#ArialMT-30" x="111.230469"/>
      </g>
     </g>
    </g>
    <g id="ytick_6">
     <g id="line2d_6">
      <path d="M 60.464945 115.420614 
L 356.0112 115.420614 
" clip-path="url(#p3ad78b8b1c)" style="fill: none; stroke: #cccccc; stroke-width: 0.8; stroke-linecap: round"/>
     </g>
     <g id="text_9">
      <!-- 400 -->
      <g style="fill: #262626" transform="translate(36.782133 118.99952) scale(0.1 -0.1)">
       <defs>
        <path id="ArialMT-34" d="M 2069 0 
L 2069 1097 
L 81 1097 
L 81 1613 
L 2172 4581 
L 2631 4581 
L 2631 1613 
L 3250 1613 
L 3250 1097 
L 2631 1097 
L 2631 0 
L 2069 0 
z
M 2069 1613 
L 2069 3678 
L 634 1613 
L 2069 1613 
z
" transform="scale(0.015625)"/>
       </defs>
       <use xlink:href="#ArialMT-34"/>
       <use xlink:href="#ArialMT-30" x="55.615234"/>
       <use xlink:href="#ArialMT-30" x="111.230469"/>
      </g>
     </g>
    </g>
    <g id="ytick_7">
     <g id="line2d_7">
      <path d="M 60.464945 75.207911 
L 356.0112 75.207911 
" clip-path="url(#p3ad78b8b1c)" style="fill: none; stroke: #cccccc; stroke-width: 0.8; stroke-linecap: round"/>
     </g>
     <g id="text_10">
      <!-- 500 -->
      <g style="fill: #262626" transform="translate(36.782133 78.786818) scale(0.1 -0.1)">
       <defs>
        <path id="ArialMT-35" d="M 266 1200 
L 856 1250 
Q 922 819 1161 601 
Q 1400 384 1738 384 
Q 2144 384 2425 690 
Q 2706 997 2706 1503 
Q 2706 1984 2436 2262 
Q 2166 2541 1728 2541 
Q 1456 2541 1237 2417 
Q 1019 2294 894 2097 
L 366 2166 
L 809 4519 
L 3088 4519 
L 3088 3981 
L 1259 3981 
L 1013 2750 
Q 1425 3038 1878 3038 
Q 2478 3038 2890 2622 
Q 3303 2206 3303 1553 
Q 3303 931 2941 478 
Q 2500 -78 1738 -78 
Q 1113 -78 717 272 
Q 322 622 266 1200 
z
" transform="scale(0.015625)"/>
       </defs>
       <use xlink:href="#ArialMT-35"/>
       <use xlink:href="#ArialMT-30" x="55.615234"/>
       <use xlink:href="#ArialMT-30" x="111.230469"/>
      </g>
     </g>
    </g>
    <g id="ytick_8">
     <g id="line2d_8">
      <path d="M 60.464945 34.995209 
L 356.0112 34.995209 
" clip-path="url(#p3ad78b8b1c)" style="fill: none; stroke: #cccccc; stroke-width: 0.8; stroke-linecap: round"/>
     </g>
     <g id="text_11">
      <!-- 600 -->
      <g style="fill: #262626" transform="translate(36.782133 38.574115) scale(0.1 -0.1)">
       <defs>
        <path id="ArialMT-36" d="M 3184 3459 
L 2625 3416 
Q 2550 3747 2413 3897 
Q 2184 4138 1850 4138 
Q 1581 4138 1378 3988 
Q 1113 3794 959 3422 
Q 806 3050 800 2363 
Q 1003 2672 1297 2822 
Q 1591 2972 1913 2972 
Q 2475 2972 2870 2558 
Q 3266 2144 3266 1488 
Q 3266 1056 3080 686 
Q 2894 316 2569 119 
Q 2244 -78 1831 -78 
Q 1128 -78 684 439 
Q 241 956 241 2144 
Q 241 3472 731 4075 
Q 1159 4600 1884 4600 
Q 2425 4600 2770 4297 
Q 3116 3994 3184 3459 
z
M 888 1484 
Q 888 1194 1011 928 
Q 1134 663 1356 523 
Q 1578 384 1822 384 
Q 2178 384 2434 671 
Q 2691 959 2691 1453 
Q 2691 1928 2437 2201 
Q 2184 2475 1800 2475 
Q 1419 2475 1153 2201 
Q 888 1928 888 1484 
z
" transform="scale(0.015625)"/>
       </defs>
       <use xlink:href="#ArialMT-36"/>
       <use xlink:href="#ArialMT-30" x="55.615234"/>
       <use xlink:href="#ArialMT-30" x="111.230469"/>
      </g>
     </g>
    </g>
    <g id="text_12">
     <!-- Carbohydrates energy (kcal/h) -->
     <g style="fill: #262626" transform="translate(24.83682 231.668438) rotate(-90) scale(0.1 -0.1)">
      <defs>
       <path id="ArialMT-43" d="M 3763 1606 
L 4369 1453 
Q 4178 706 3683 314 
Q 3188 -78 2472 -78 
Q 1731 -78 1267 223 
Q 803 525 561 1097 
Q 319 1669 319 2325 
Q 319 3041 592 3573 
Q 866 4106 1370 4382 
Q 1875 4659 2481 4659 
Q 3169 4659 3637 4309 
Q 4106 3959 4291 3325 
L 3694 3184 
Q 3534 3684 3231 3912 
Q 2928 4141 2469 4141 
Q 1941 4141 1586 3887 
Q 1231 3634 1087 3207 
Q 944 2781 944 2328 
Q 944 1744 1114 1308 
Q 1284 872 1643 656 
Q 2003 441 2422 441 
Q 2931 441 3284 734 
Q 3638 1028 3763 1606 
z
" transform="scale(0.015625)"/>
       <path id="ArialMT-61" d="M 2588 409 
Q 2275 144 1986 34 
Q 1697 -75 1366 -75 
Q 819 -75 525 192 
Q 231 459 231 875 
Q 231 1119 342 1320 
Q 453 1522 633 1644 
Q 813 1766 1038 1828 
Q 1203 1872 1538 1913 
Q 2219 1994 2541 2106 
Q 2544 2222 2544 2253 
Q 2544 2597 2384 2738 
Q 2169 2928 1744 2928 
Q 1347 2928 1158 2789 
Q 969 2650 878 2297 
L 328 2372 
Q 403 2725 575 2942 
Q 747 3159 1072 3276 
Q 1397 3394 1825 3394 
Q 2250 3394 2515 3294 
Q 2781 3194 2906 3042 
Q 3031 2891 3081 2659 
Q 3109 2516 3109 2141 
L 3109 1391 
Q 3109 606 3145 398 
Q 3181 191 3288 0 
L 2700 0 
Q 2613 175 2588 409 
z
M 2541 1666 
Q 2234 1541 1622 1453 
Q 1275 1403 1131 1340 
Q 988 1278 909 1158 
Q 831 1038 831 891 
Q 831 666 1001 516 
Q 1172 366 1500 366 
Q 1825 366 2078 508 
Q 2331 650 2450 897 
Q 2541 1088 2541 1459 
L 2541 1666 
z
" transform="scale(0.015625)"/>
       <path id="ArialMT-72" d="M 416 0 
L 416 3319 
L 922 3319 
L 922 2816 
Q 1116 3169 1280 3281 
Q 1444 3394 1641 3394 
Q 1925 3394 2219 3213 
L 2025 2691 
Q 1819 2813 1613 2813 
Q 1428 2813 1281 2702 
Q 1134 2591 1072 2394 
Q 978 2094 978 1738 
L 978 0 
L 416 0 
z
" transform="scale(0.015625)"/>
       <path id="ArialMT-62" d="M 941 0 
L 419 0 
L 419 4581 
L 981 4581 
L 981 2947 
Q 1338 3394 1891 3394 
Q 2197 3394 2470 3270 
Q 2744 3147 2920 2923 
Q 3097 2700 3197 2384 
Q 3297 2069 3297 1709 
Q 3297 856 2875 390 
Q 2453 -75 1863 -75 
Q 1275 -75 941 416 
L 941 0 
z
M 934 1684 
Q 934 1088 1097 822 
Q 1363 388 1816 388 
Q 2184 388 2453 708 
Q 2722 1028 2722 1663 
Q 2722 2313 2464 2622 
Q 2206 2931 1841 2931 
Q 1472 2931 1203 2611 
Q 934 2291 934 1684 
z
" transform="scale(0.015625)"/>
       <path id="ArialMT-6f" d="M 213 1659 
Q 213 2581 725 3025 
Q 1153 3394 1769 3394 
Q 2453 3394 2887 2945 
Q 3322 2497 3322 1706 
Q 3322 1066 3130 698 
Q 2938 331 2570 128 
Q 2203 -75 1769 -75 
Q 1072 -75 642 372 
Q 213 819 213 1659 
z
M 791 1659 
Q 791 1022 1069 705 
Q 1347 388 1769 388 
Q 2188 388 2466 706 
Q 2744 1025 2744 1678 
Q 2744 2294 2464 2611 
Q 2184 2928 1769 2928 
Q 1347 2928 1069 2612 
Q 791 2297 791 1659 
z
" transform="scale(0.015625)"/>
       <path id="ArialMT-68" d="M 422 0 
L 422 4581 
L 984 4581 
L 984 2938 
Q 1378 3394 1978 3394 
Q 2347 3394 2619 3248 
Q 2891 3103 3008 2847 
Q 3125 2591 3125 2103 
L 3125 0 
L 2563 0 
L 2563 2103 
Q 2563 2525 2380 2717 
Q 2197 2909 1863 2909 
Q 1613 2909 1392 2779 
Q 1172 2650 1078 2428 
Q 984 2206 984 1816 
L 984 0 
L 422 0 
z
" transform="scale(0.015625)"/>
       <path id="ArialMT-79" d="M 397 -1278 
L 334 -750 
Q 519 -800 656 -800 
Q 844 -800 956 -737 
Q 1069 -675 1141 -563 
Q 1194 -478 1313 -144 
Q 1328 -97 1363 -6 
L 103 3319 
L 709 3319 
L 1400 1397 
Q 1534 1031 1641 628 
Q 1738 1016 1872 1384 
L 2581 3319 
L 3144 3319 
L 1881 -56 
Q 1678 -603 1566 -809 
Q 1416 -1088 1222 -1217 
Q 1028 -1347 759 -1347 
Q 597 -1347 397 -1278 
z
" transform="scale(0.015625)"/>
       <path id="ArialMT-64" d="M 2575 0 
L 2575 419 
Q 2259 -75 1647 -75 
Q 1250 -75 917 144 
Q 584 363 401 755 
Q 219 1147 219 1656 
Q 219 2153 384 2558 
Q 550 2963 881 3178 
Q 1213 3394 1622 3394 
Q 1922 3394 2156 3267 
Q 2391 3141 2538 2938 
L 2538 4581 
L 3097 4581 
L 3097 0 
L 2575 0 
z
M 797 1656 
Q 797 1019 1065 703 
Q 1334 388 1700 388 
Q 2069 388 2326 689 
Q 2584 991 2584 1609 
Q 2584 2291 2321 2609 
Q 2059 2928 1675 2928 
Q 1300 2928 1048 2622 
Q 797 2316 797 1656 
z
" transform="scale(0.015625)"/>
       <path id="ArialMT-74" d="M 1650 503 
L 1731 6 
Q 1494 -44 1306 -44 
Q 1000 -44 831 53 
Q 663 150 594 308 
Q 525 466 525 972 
L 525 2881 
L 113 2881 
L 113 3319 
L 525 3319 
L 525 4141 
L 1084 4478 
L 1084 3319 
L 1650 3319 
L 1650 2881 
L 1084 2881 
L 1084 941 
Q 1084 700 1114 631 
Q 1144 563 1211 522 
Q 1278 481 1403 481 
Q 1497 481 1650 503 
z
" transform="scale(0.015625)"/>
       <path id="ArialMT-20" transform="scale(0.015625)"/>
       <path id="ArialMT-6e" d="M 422 0 
L 422 3319 
L 928 3319 
L 928 2847 
Q 1294 3394 1984 3394 
Q 2284 3394 2536 3286 
Q 2788 3178 2913 3003 
Q 3038 2828 3088 2588 
Q 3119 2431 3119 2041 
L 3119 0 
L 2556 0 
L 2556 2019 
Q 2556 2363 2490 2533 
Q 2425 2703 2258 2804 
Q 2091 2906 1866 2906 
Q 1506 2906 1245 2678 
Q 984 2450 984 1813 
L 984 0 
L 422 0 
z
" transform="scale(0.015625)"/>
       <path id="ArialMT-67" d="M 319 -275 
L 866 -356 
Q 900 -609 1056 -725 
Q 1266 -881 1628 -881 
Q 2019 -881 2231 -725 
Q 2444 -569 2519 -288 
Q 2563 -116 2559 434 
Q 2191 0 1641 0 
Q 956 0 581 494 
Q 206 988 206 1678 
Q 206 2153 378 2554 
Q 550 2956 876 3175 
Q 1203 3394 1644 3394 
Q 2231 3394 2613 2919 
L 2613 3319 
L 3131 3319 
L 3131 450 
Q 3131 -325 2973 -648 
Q 2816 -972 2473 -1159 
Q 2131 -1347 1631 -1347 
Q 1038 -1347 672 -1080 
Q 306 -813 319 -275 
z
M 784 1719 
Q 784 1066 1043 766 
Q 1303 466 1694 466 
Q 2081 466 2343 764 
Q 2606 1063 2606 1700 
Q 2606 2309 2336 2618 
Q 2066 2928 1684 2928 
Q 1309 2928 1046 2623 
Q 784 2319 784 1719 
z
" transform="scale(0.015625)"/>
       <path id="ArialMT-28" d="M 1497 -1347 
Q 1031 -759 709 28 
Q 388 816 388 1659 
Q 388 2403 628 3084 
Q 909 3875 1497 4659 
L 1900 4659 
Q 1522 4009 1400 3731 
Q 1209 3300 1100 2831 
Q 966 2247 966 1656 
Q 966 153 1900 -1347 
L 1497 -1347 
z
" transform="scale(0.015625)"/>
       <path id="ArialMT-6b" d="M 425 0 
L 425 4581 
L 988 4581 
L 988 1969 
L 2319 3319 
L 3047 3319 
L 1778 2088 
L 3175 0 
L 2481 0 
L 1384 1697 
L 988 1316 
L 988 0 
L 425 0 
z
" transform="scale(0.015625)"/>
       <path id="ArialMT-63" d="M 2588 1216 
L 3141 1144 
Q 3050 572 2676 248 
Q 2303 -75 1759 -75 
Q 1078 -75 664 370 
Q 250 816 250 1647 
Q 250 2184 428 2587 
Q 606 2991 970 3192 
Q 1334 3394 1763 3394 
Q 2303 3394 2647 3120 
Q 2991 2847 3088 2344 
L 2541 2259 
Q 2463 2594 2264 2762 
Q 2066 2931 1784 2931 
Q 1359 2931 1093 2626 
Q 828 2322 828 1663 
Q 828 994 1084 691 
Q 1341 388 1753 388 
Q 2084 388 2306 591 
Q 2528 794 2588 1216 
z
" transform="scale(0.015625)"/>
       <path id="ArialMT-6c" d="M 409 0 
L 409 4581 
L 972 4581 
L 972 0 
L 409 0 
z
" transform="scale(0.015625)"/>
       <path id="ArialMT-2f" d="M 0 -78 
L 1328 4659 
L 1778 4659 
L 453 -78 
L 0 -78 
z
" transform="scale(0.015625)"/>
       <path id="ArialMT-29" d="M 791 -1347 
L 388 -1347 
Q 1322 153 1322 1656 
Q 1322 2244 1188 2822 
Q 1081 3291 891 3722 
Q 769 4003 388 4659 
L 791 4659 
Q 1378 3875 1659 3084 
Q 1900 2403 1900 1659 
Q 1900 816 1576 28 
Q 1253 -759 791 -1347 
z
" transform="scale(0.015625)"/>
      </defs>
      <use xlink:href="#ArialMT-43"/>
      <use xlink:href="#ArialMT-61" x="72.216797"/>
      <use xlink:href="#ArialMT-72" x="127.832031"/>
      <use xlink:href="#ArialMT-62" x="161.132812"/>
      <use xlink:href="#ArialMT-6f" x="216.748047"/>
      <use xlink:href="#ArialMT-68" x="272.363281"/>
      <use xlink:href="#ArialMT-79" x="327.978516"/>
      <use xlink:href="#ArialMT-64" x="377.978516"/>
      <use xlink:href="#ArialMT-72" x="433.59375"/>
      <use xlink:href="#ArialMT-61" x="466.894531"/>
      <use xlink:href="#ArialMT-74" x="522.509766"/>
      <use xlink:href="#ArialMT-65" x="550.292969"/>
      <use xlink:href="#ArialMT-73" x="605.908203"/>
      <use xlink:href="#ArialMT-20" x="655.908203"/>
      <use xlink:href="#ArialMT-65" x="683.691406"/>
      <use xlink:href="#ArialMT-6e" x="739.306641"/>
      <use xlink:href="#ArialMT-65" x="794.921875"/>
      <use xlink:href="#ArialMT-72" x="850.537109"/>
      <use xlink:href="#ArialMT-67" x="883.837891"/>
      <use xlink:href="#ArialMT-79" x="939.453125"/>
      <use xlink:href="#ArialMT-20" x="989.453125"/>
      <use xlink:href="#ArialMT-28" x="1017.236328"/>
      <use xlink:href="#ArialMT-6b" x="1050.537109"/>
      <use xlink:href="#ArialMT-63" x="1100.537109"/>
      <use xlink:href="#ArialMT-61" x="1150.537109"/>
      <use xlink:href="#ArialMT-6c" x="1206.152344"/>
      <use xlink:href="#ArialMT-2f" x="1228.369141"/>
      <use xlink:href="#ArialMT-68" x="1256.152344"/>
      <use xlink:href="#ArialMT-29" x="1311.767578"/>
     </g>
    </g>
   </g>
   <g id="PolyCollection_1">
    <defs>
     <path id="m87dc7b610b" d="M 105.333535 -118.578005 
L 104.260232 -118.578005 
L 104.124775 -120.296808 
L 103.964003 -122.015611 
L 103.775386 -123.734415 
L 103.556564 -125.453218 
L 103.305397 -127.172021 
L 103.019999 -128.890824 
L 102.698736 -130.609628 
L 102.340198 -132.328431 
L 101.943138 -134.047234 
L 101.506384 -135.766037 
L 101.028748 -137.484841 
L 100.508927 -139.203644 
L 99.945437 -140.922447 
L 99.336589 -142.64125 
L 98.68053 -144.360054 
L 97.975368 -146.078857 
L 97.219374 -147.79766 
L 96.41127 -149.516463 
L 95.550578 -151.235267 
L 94.638002 -152.95407 
L 93.67579 -154.672873 
L 92.668056 -156.391676 
L 91.620973 -158.110479 
L 90.542831 -159.829283 
L 89.4439 -161.548086 
L 88.336093 -163.266889 
L 87.232442 -164.985692 
L 86.146411 -166.704496 
L 85.091107 -168.423299 
L 84.078456 -170.142102 
L 83.11844 -171.860905 
L 82.218478 -173.579709 
L 81.383025 -175.298512 
L 80.613454 -177.017315 
L 79.908247 -178.736118 
L 79.26349 -180.454922 
L 78.673639 -182.173725 
L 78.132474 -183.892528 
L 77.634154 -185.611331 
L 77.174245 -187.330135 
L 76.750623 -189.048938 
L 76.364144 -190.767741 
L 76.018997 -192.486544 
L 75.722702 -194.205347 
L 75.485746 -195.924151 
L 75.320898 -197.642954 
L 75.242258 -199.361757 
L 75.264146 -201.08056 
L 75.399936 -202.799364 
L 75.660941 -204.518167 
L 76.055451 -206.23697 
L 76.588006 -207.955773 
L 77.258935 -209.674577 
L 78.064205 -211.39338 
L 78.995539 -213.112183 
L 80.040793 -214.830986 
L 81.184525 -216.54979 
L 82.408689 -218.268593 
L 83.693408 -219.987396 
L 85.017754 -221.706199 
L 86.360507 -223.425003 
L 87.700843 -225.143806 
L 89.01895 -226.862609 
L 90.296564 -228.581412 
L 91.517416 -230.300215 
L 92.667597 -232.019019 
L 93.735861 -233.737822 
L 94.713834 -235.456625 
L 95.59616 -237.175428 
L 96.380546 -238.894232 
L 97.067724 -240.613035 
L 97.661298 -242.331838 
L 98.167486 -244.050641 
L 98.594755 -245.769445 
L 98.953355 -247.488248 
L 99.25478 -249.207051 
L 99.51117 -250.925854 
L 99.734706 -252.644658 
L 99.937015 -254.363461 
L 100.128639 -256.082264 
L 100.31859 -257.801067 
L 100.514023 -259.519871 
L 100.720048 -261.238674 
L 100.939675 -262.957477 
L 101.173894 -264.67628 
L 101.421883 -266.395084 
L 101.681296 -268.113887 
L 101.94863 -269.83269 
L 102.219615 -271.551493 
L 102.489608 -273.270296 
L 102.753957 -274.9891 
L 103.008319 -276.707903 
L 103.248908 -278.426706 
L 103.472663 -280.145509 
L 103.677348 -281.864313 
L 103.86158 -283.583116 
L 104.02479 -285.301919 
L 104.16714 -287.020722 
L 104.28941 -288.739526 
L 105.304356 -288.739526 
L 105.304356 -288.739526 
L 105.426627 -287.020722 
L 105.568977 -285.301919 
L 105.732186 -283.583116 
L 105.916418 -281.864313 
L 106.121104 -280.145509 
L 106.344858 -278.426706 
L 106.585447 -276.707903 
L 106.83981 -274.9891 
L 107.104159 -273.270296 
L 107.374151 -271.551493 
L 107.645136 -269.83269 
L 107.91247 -268.113887 
L 108.171884 -266.395084 
L 108.419872 -264.67628 
L 108.654092 -262.957477 
L 108.873718 -261.238674 
L 109.079744 -259.519871 
L 109.275177 -257.801067 
L 109.465127 -256.082264 
L 109.656751 -254.363461 
L 109.859061 -252.644658 
L 110.082597 -250.925854 
L 110.338987 -249.207051 
L 110.640411 -247.488248 
L 110.999011 -245.769445 
L 111.42628 -244.050641 
L 111.932469 -242.331838 
L 112.526043 -240.613035 
L 113.213221 -238.894232 
L 113.997607 -237.175428 
L 114.879932 -235.456625 
L 115.857905 -233.737822 
L 116.926169 -232.019019 
L 118.076351 -230.300215 
L 119.297202 -228.581412 
L 120.574817 -226.862609 
L 121.892924 -225.143806 
L 123.233259 -223.425003 
L 124.576012 -221.706199 
L 125.900359 -219.987396 
L 127.185077 -218.268593 
L 128.409241 -216.54979 
L 129.552973 -214.830986 
L 130.598228 -213.112183 
L 131.529562 -211.39338 
L 132.334831 -209.674577 
L 133.005761 -207.955773 
L 133.538315 -206.23697 
L 133.932826 -204.518167 
L 134.19383 -202.799364 
L 134.32962 -201.08056 
L 134.351509 -199.361757 
L 134.272869 -197.642954 
L 134.108021 -195.924151 
L 133.871065 -194.205347 
L 133.574769 -192.486544 
L 133.229622 -190.767741 
L 132.843144 -189.048938 
L 132.419522 -187.330135 
L 131.959612 -185.611331 
L 131.461292 -183.892528 
L 130.920128 -182.173725 
L 130.330277 -180.454922 
L 129.68552 -178.736118 
L 128.980312 -177.017315 
L 128.210742 -175.298512 
L 127.375289 -173.579709 
L 126.475327 -171.860905 
L 125.515311 -170.142102 
L 124.502659 -168.423299 
L 123.447355 -166.704496 
L 122.361325 -164.985692 
L 121.257674 -163.266889 
L 120.149867 -161.548086 
L 119.050935 -159.829283 
L 117.972794 -158.110479 
L 116.925711 -156.391676 
L 115.917976 -154.672873 
L 114.955765 -152.95407 
L 114.043188 -151.235267 
L 113.182497 -149.516463 
L 112.374393 -147.79766 
L 111.618398 -146.078857 
L 110.913236 -144.360054 
L 110.257178 -142.64125 
L 109.648329 -140.922447 
L 109.084839 -139.203644 
L 108.565018 -137.484841 
L 108.087382 -135.766037 
L 107.650629 -134.047234 
L 107.253568 -132.328431 
L 106.89503 -130.609628 
L 106.573767 -128.890824 
L 106.288369 -127.172021 
L 106.037203 -125.453218 
L 105.81838 -123.734415 
L 105.629764 -122.015611 
L 105.468992 -120.296808 
L 105.333535 -118.578005 
z
" style="stroke: #3f3f3f; stroke-width: 1.25"/>
    </defs>
    <g clip-path="url(#p3ad78b8b1c)">
     <use xlink:href="#m87dc7b610b" x="0" y="360" style="fill: #3274a1; stroke: #3f3f3f; stroke-width: 1.25"/>
    </g>
   </g>
   <g id="PolyCollection_2">
    <defs>
     <path id="m13cac7cb5b" d="M 164.257498 -55.925455 
L 163.55477 -55.925455 
L 163.468301 -58.523254 
L 163.36524 -61.121053 
L 163.243583 -63.718853 
L 163.101349 -66.316652 
L 162.93664 -68.914451 
L 162.747706 -71.512251 
L 162.533031 -74.11005 
L 162.2914 -76.70785 
L 162.021988 -79.305649 
L 161.724434 -81.903448 
L 161.39891 -84.501248 
L 161.046192 -87.099047 
L 160.667705 -89.696847 
L 160.265557 -92.294646 
L 159.84256 -94.892445 
L 159.402216 -97.490245 
L 158.948683 -100.088044 
L 158.48671 -102.685843 
L 158.021539 -105.283643 
L 157.558775 -107.881442 
L 157.104226 -110.479242 
L 156.663706 -113.077041 
L 156.24282 -115.67484 
L 155.846729 -118.27264 
L 155.479903 -120.870439 
L 155.145878 -123.468239 
L 154.847033 -126.066038 
L 154.584394 -128.663837 
L 154.357488 -131.261637 
L 154.164254 -133.859436 
L 154.001036 -136.457236 
L 153.86265 -139.055035 
L 153.742548 -141.652834 
L 153.633066 -144.250634 
L 153.525755 -146.848433 
L 153.411789 -149.446232 
L 153.282421 -152.044032 
L 153.129472 -154.641831 
L 152.945829 -157.239631 
L 152.725914 -159.83743 
L 152.466107 -162.435229 
L 152.16508 -165.033029 
L 151.824035 -167.630828 
L 151.446807 -170.228628 
L 151.039837 -172.826427 
L 150.612001 -175.424226 
L 150.174293 -178.022026 
L 149.739392 -180.619825 
L 149.321115 -183.217624 
L 148.933796 -185.815424 
L 148.591624 -188.413223 
L 148.307969 -191.011023 
L 148.094744 -193.608822 
L 147.96184 -196.206621 
L 147.916659 -198.804421 
L 147.963783 -201.40222 
L 148.104785 -204.00002 
L 148.338212 -206.597819 
L 148.659708 -209.195618 
L 149.062301 -211.793418 
L 149.5368 -214.391217 
L 150.072302 -216.989016 
L 150.656756 -219.586816 
L 151.277553 -222.184615 
L 151.92211 -224.782415 
L 152.578405 -227.380214 
L 153.235446 -229.978013 
L 153.883633 -232.575813 
L 154.515014 -235.173612 
L 155.12343 -237.771412 
L 155.70453 -240.369211 
L 156.255702 -242.96701 
L 156.775893 -245.56481 
L 157.265381 -248.162609 
L 157.72549 -250.760409 
L 158.15829 -253.358208 
L 158.566297 -255.956007 
L 158.952192 -258.553807 
L 159.318584 -261.151606 
L 159.667813 -263.749405 
L 160.001814 -266.347205 
L 160.322035 -268.945004 
L 160.629407 -271.542804 
L 160.924366 -274.140603 
L 161.206906 -276.738402 
L 161.476667 -279.336202 
L 161.733038 -281.934001 
L 161.975269 -284.531801 
L 162.202574 -287.1296 
L 162.41423 -289.727399 
L 162.609659 -292.325199 
L 162.788485 -294.922998 
L 162.950578 -297.520797 
L 163.096067 -300.118597 
L 163.225341 -302.716396 
L 163.339026 -305.314196 
L 163.437962 -307.911995 
L 163.523153 -310.509794 
L 163.595728 -313.107594 
L 164.216541 -313.107594 
L 164.216541 -313.107594 
L 164.289116 -310.509794 
L 164.374307 -307.911995 
L 164.473242 -305.314196 
L 164.586928 -302.716396 
L 164.716201 -300.118597 
L 164.86169 -297.520797 
L 165.023783 -294.922998 
L 165.20261 -292.325199 
L 165.398039 -289.727399 
L 165.609695 -287.1296 
L 165.836999 -284.531801 
L 166.07923 -281.934001 
L 166.335602 -279.336202 
L 166.605363 -276.738402 
L 166.887902 -274.140603 
L 167.182861 -271.542804 
L 167.490234 -268.945004 
L 167.810455 -266.347205 
L 168.144456 -263.749405 
L 168.493685 -261.151606 
L 168.860076 -258.553807 
L 169.245971 -255.956007 
L 169.653978 -253.358208 
L 170.086778 -250.760409 
L 170.546888 -248.162609 
L 171.036376 -245.56481 
L 171.556567 -242.96701 
L 172.107738 -240.369211 
L 172.688839 -237.771412 
L 173.297254 -235.173612 
L 173.928636 -232.575813 
L 174.576822 -229.978013 
L 175.233863 -227.380214 
L 175.890159 -224.782415 
L 176.534715 -222.184615 
L 177.155512 -219.586816 
L 177.739966 -216.989016 
L 178.275469 -214.391217 
L 178.749968 -211.793418 
L 179.15256 -209.195618 
L 179.474057 -206.597819 
L 179.707483 -204.00002 
L 179.848486 -201.40222 
L 179.895609 -198.804421 
L 179.850428 -196.206621 
L 179.717524 -193.608822 
L 179.5043 -191.011023 
L 179.220644 -188.413223 
L 178.878472 -185.815424 
L 178.491154 -183.217624 
L 178.072877 -180.619825 
L 177.637975 -178.022026 
L 177.200267 -175.424226 
L 176.772431 -172.826427 
L 176.365462 -170.228628 
L 175.988234 -167.630828 
L 175.647188 -165.033029 
L 175.346162 -162.435229 
L 175.086355 -159.83743 
L 174.86644 -157.239631 
L 174.682796 -154.641831 
L 174.529847 -152.044032 
L 174.400479 -149.446232 
L 174.286513 -146.848433 
L 174.179203 -144.250634 
L 174.06972 -141.652834 
L 173.949618 -139.055035 
L 173.811233 -136.457236 
L 173.648014 -133.859436 
L 173.454781 -131.261637 
L 173.227874 -128.663837 
L 172.965235 -126.066038 
L 172.666391 -123.468239 
L 172.332366 -120.870439 
L 171.965539 -118.27264 
L 171.569448 -115.67484 
L 171.148563 -113.077041 
L 170.708043 -110.479242 
L 170.253493 -107.881442 
L 169.79073 -105.283643 
L 169.325559 -102.685843 
L 168.863586 -100.088044 
L 168.410053 -97.490245 
L 167.969708 -94.892445 
L 167.546712 -92.294646 
L 167.144564 -89.696847 
L 166.766076 -87.099047 
L 166.413358 -84.501248 
L 166.087835 -81.903448 
L 165.79028 -79.305649 
L 165.520869 -76.70785 
L 165.279238 -74.11005 
L 165.064562 -71.512251 
L 164.875629 -68.914451 
L 164.710919 -66.316652 
L 164.568685 -63.718853 
L 164.447029 -61.121053 
L 164.343967 -58.523254 
L 164.257498 -55.925455 
z
" style="stroke: #3f3f3f; stroke-width: 1.25"/>
    </defs>
    <g clip-path="url(#p3ad78b8b1c)">
     <use xlink:href="#m13cac7cb5b" x="0" y="360" style="fill: #e1812c; stroke: #3f3f3f; stroke-width: 1.25"/>
    </g>
   </g>
   <g id="PolyCollection_3">
    <defs>
     <path id="m5e61ed6af0" d="M 252.779874 -63.212568 
L 252.360147 -63.212568 
L 252.306523 -65.960264 
L 252.24313 -68.707961 
L 252.169214 -71.455658 
L 252.084179 -74.203355 
L 251.987621 -76.951051 
L 251.87933 -79.698748 
L 251.75929 -82.446445 
L 251.627634 -85.194142 
L 251.484584 -87.941838 
L 251.330368 -90.689535 
L 251.165108 -93.437232 
L 250.988706 -96.184929 
L 250.800735 -98.932625 
L 250.600342 -101.680322 
L 250.386185 -104.428019 
L 250.156416 -107.175716 
L 249.90872 -109.923412 
L 249.640413 -112.671109 
L 249.348599 -115.418806 
L 249.030371 -118.166503 
L 248.683053 -120.914199 
L 248.304441 -123.661896 
L 247.893037 -126.409593 
L 247.448243 -129.15729 
L 246.970487 -131.904986 
L 246.461274 -134.652683 
L 245.92315 -137.40038 
L 245.359576 -140.148077 
L 244.774735 -142.895773 
L 244.173284 -145.64347 
L 243.560083 -148.391167 
L 242.939938 -151.138864 
L 242.317379 -153.88656 
L 241.696512 -156.634257 
L 241.080952 -159.381954 
L 240.473855 -162.12965 
L 239.878036 -164.877347 
L 239.296167 -167.625044 
L 238.731016 -170.372741 
L 238.185698 -173.120437 
L 237.663912 -175.868134 
L 237.170111 -178.615831 
L 236.709581 -181.363528 
L 236.288415 -184.111224 
L 235.913363 -186.858921 
L 235.591571 -189.606618 
L 235.330213 -192.354315 
L 235.136061 -195.102011 
L 235.015014 -197.849708 
L 234.971638 -200.597405 
L 235.008752 -203.345102 
L 235.127101 -206.092798 
L 235.325148 -208.840495 
L 235.598996 -211.588192 
L 235.942465 -214.335889 
L 236.347302 -217.083585 
L 236.803517 -219.831282 
L 237.29983 -222.578979 
L 237.824174 -225.326676 
L 238.364246 -228.074372 
L 238.908056 -230.822069 
L 239.444445 -233.569766 
L 239.963553 -236.317463 
L 240.457202 -239.065159 
L 240.919192 -241.812856 
L 241.345496 -244.560553 
L 241.734347 -247.30825 
L 242.08622 -250.055946 
L 242.403711 -252.803643 
L 242.691318 -255.55134 
L 242.955132 -258.299037 
L 243.202454 -261.046733 
L 243.441352 -263.79443 
L 243.680173 -266.542127 
L 243.927047 -269.289824 
L 244.189399 -272.03752 
L 244.473501 -274.785217 
L 244.784099 -277.532914 
L 245.124138 -280.280611 
L 245.494594 -283.028307 
L 245.894446 -285.776004 
L 246.32077 -288.523701 
L 246.768953 -291.271398 
L 247.233015 -294.019094 
L 247.706 -296.766791 
L 248.18041 -299.514488 
L 248.648652 -302.262185 
L 249.103456 -305.009881 
L 249.538237 -307.757578 
L 249.947391 -310.505275 
L 250.32649 -313.252971 
L 250.672393 -316.000668 
L 250.983257 -318.748365 
L 251.25848 -321.496062 
L 251.498567 -324.243758 
L 251.704961 -326.991455 
L 251.879836 -329.739152 
L 252.025894 -332.486849 
L 252.14616 -335.234545 
L 252.993862 -335.234545 
L 252.993862 -335.234545 
L 253.114128 -332.486849 
L 253.260186 -329.739152 
L 253.435061 -326.991455 
L 253.641454 -324.243758 
L 253.881542 -321.496062 
L 254.156765 -318.748365 
L 254.467629 -316.000668 
L 254.813531 -313.252971 
L 255.19263 -310.505275 
L 255.601784 -307.757578 
L 256.036566 -305.009881 
L 256.491369 -302.262185 
L 256.959611 -299.514488 
L 257.434022 -296.766791 
L 257.907006 -294.019094 
L 258.371069 -291.271398 
L 258.819252 -288.523701 
L 259.245575 -285.776004 
L 259.645428 -283.028307 
L 260.015884 -280.280611 
L 260.355922 -277.532914 
L 260.666521 -274.785217 
L 260.950623 -272.03752 
L 261.212974 -269.289824 
L 261.459849 -266.542127 
L 261.69867 -263.79443 
L 261.937567 -261.046733 
L 262.184889 -258.299037 
L 262.448703 -255.55134 
L 262.73631 -252.803643 
L 263.053801 -250.055946 
L 263.405675 -247.30825 
L 263.794526 -244.560553 
L 264.22083 -241.812856 
L 264.682819 -239.065159 
L 265.176468 -236.317463 
L 265.695576 -233.569766 
L 266.231966 -230.822069 
L 266.775776 -228.074372 
L 267.315848 -225.326676 
L 267.840192 -222.578979 
L 268.336504 -219.831282 
L 268.79272 -217.083585 
L 269.197556 -214.335889 
L 269.541025 -211.588192 
L 269.814874 -208.840495 
L 270.01292 -206.092798 
L 270.13127 -203.345102 
L 270.168384 -200.597405 
L 270.125008 -197.849708 
L 270.003961 -195.102011 
L 269.809808 -192.354315 
L 269.54845 -189.606618 
L 269.226658 -186.858921 
L 268.851607 -184.111224 
L 268.43044 -181.363528 
L 267.96991 -178.615831 
L 267.476109 -175.868134 
L 266.954324 -173.120437 
L 266.409006 -170.372741 
L 265.843854 -167.625044 
L 265.261985 -164.877347 
L 264.666167 -162.12965 
L 264.05907 -159.381954 
L 263.44351 -156.634257 
L 262.822643 -153.88656 
L 262.200084 -151.138864 
L 261.579939 -148.391167 
L 260.966737 -145.64347 
L 260.365286 -142.895773 
L 259.780445 -140.148077 
L 259.216871 -137.40038 
L 258.678747 -134.652683 
L 258.169535 -131.904986 
L 257.691779 -129.15729 
L 257.246984 -126.409593 
L 256.835581 -123.661896 
L 256.456968 -120.914199 
L 256.10965 -118.166503 
L 255.791423 -115.418806 
L 255.499609 -112.671109 
L 255.231302 -109.923412 
L 254.983606 -107.175716 
L 254.753836 -104.428019 
L 254.539679 -101.680322 
L 254.339286 -98.932625 
L 254.151316 -96.184929 
L 253.974914 -93.437232 
L 253.809653 -90.689535 
L 253.655437 -87.941838 
L 253.512388 -85.194142 
L 253.380731 -82.446445 
L 253.260691 -79.698748 
L 253.152401 -76.951051 
L 253.055842 -74.203355 
L 252.970808 -71.455658 
L 252.896891 -68.707961 
L 252.833498 -65.960264 
L 252.779874 -63.212568 
z
" style="stroke: #3f3f3f; stroke-width: 1.25"/>
    </defs>
    <g clip-path="url(#p3ad78b8b1c)">
     <use xlink:href="#m5e61ed6af0" x="0" y="360" style="fill: #3274a1; stroke: #3f3f3f; stroke-width: 1.25"/>
    </g>
   </g>
   <g id="PolyCollection_4">
    <defs>
     <path id="mcbfa4797de" d="M 311.990264 -101.85039 
L 311.368259 -101.85039 
L 311.2794 -103.681076 
L 311.172198 -105.511763 
L 311.044834 -107.342449 
L 310.89572 -109.173136 
L 310.723539 -111.003822 
L 310.527243 -112.834509 
L 310.305986 -114.665195 
L 310.059 -116.495882 
L 309.785401 -118.326568 
L 309.483955 -120.157255 
L 309.152802 -121.987941 
L 308.789195 -123.818627 
L 308.389268 -125.649314 
L 307.9479 -127.48 
L 307.458692 -129.310687 
L 306.914109 -131.141373 
L 306.30578 -132.97206 
L 305.62498 -134.802746 
L 304.863253 -136.633433 
L 304.013142 -138.464119 
L 303.068973 -140.294806 
L 302.027616 -142.125492 
L 300.889168 -143.956179 
L 299.657473 -145.786865 
L 298.340451 -147.617552 
L 296.950185 -149.448238 
L 295.502771 -151.278925 
L 294.017927 -153.109611 
L 292.518407 -154.940298 
L 291.029255 -156.770984 
L 289.576952 -158.601671 
L 288.188511 -160.432357 
L 286.890566 -162.263044 
L 285.708495 -164.09373 
L 284.665599 -165.924417 
L 283.782372 -167.755103 
L 283.07585 -169.58579 
L 282.559082 -171.416476 
L 282.240701 -173.247163 
L 282.124636 -175.077849 
L 282.209966 -176.908535 
L 282.490947 -178.739222 
L 282.95722 -180.569908 
L 283.594217 -182.400595 
L 284.383756 -184.231281 
L 285.304805 -186.061968 
L 286.33438 -187.892654 
L 287.448518 -189.723341 
L 288.623251 -191.554027 
L 289.835532 -193.384714 
L 291.064009 -195.2154 
L 292.289638 -197.046087 
L 293.496061 -198.876773 
L 294.669777 -200.70746 
L 295.800096 -202.538146 
L 296.878933 -204.368833 
L 297.900485 -206.199519 
L 298.860853 -208.030206 
L 299.757666 -209.860892 
L 300.589744 -211.691579 
L 301.356837 -213.522265 
L 302.059447 -215.352952 
L 302.698723 -217.183638 
L 303.276427 -219.014325 
L 303.794927 -220.845011 
L 304.257207 -222.675698 
L 304.666865 -224.506384 
L 305.028086 -226.337071 
L 305.345584 -228.167757 
L 305.624514 -229.998444 
L 305.870358 -231.82913 
L 306.088793 -233.659816 
L 306.285566 -235.490503 
L 306.466355 -237.321189 
L 306.636644 -239.151876 
L 306.801607 -240.982562 
L 306.965992 -242.813249 
L 307.13401 -244.643935 
L 307.309225 -246.474622 
L 307.494453 -248.305308 
L 307.691662 -250.135995 
L 307.901898 -251.966681 
L 308.125239 -253.797368 
L 308.360794 -255.628054 
L 308.606743 -257.458741 
L 308.860443 -259.289427 
L 309.118585 -261.120114 
L 309.377391 -262.9508 
L 309.632851 -264.781487 
L 309.880969 -266.612173 
L 310.117996 -268.44286 
L 310.340647 -270.273546 
L 310.54626 -272.104233 
L 310.732907 -273.934919 
L 310.899443 -275.765606 
L 311.045486 -277.596292 
L 311.171364 -279.426979 
L 311.278 -281.257665 
L 311.366791 -283.088352 
L 311.991733 -283.088352 
L 311.991733 -283.088352 
L 312.080523 -281.257665 
L 312.18716 -279.426979 
L 312.313037 -277.596292 
L 312.459081 -275.765606 
L 312.625616 -273.934919 
L 312.812264 -272.104233 
L 313.017877 -270.273546 
L 313.240528 -268.44286 
L 313.477555 -266.612173 
L 313.725672 -264.781487 
L 313.981133 -262.9508 
L 314.239939 -261.120114 
L 314.49808 -259.289427 
L 314.751781 -257.458741 
L 314.99773 -255.628054 
L 315.233284 -253.797368 
L 315.456626 -251.966681 
L 315.666862 -250.135995 
L 315.86407 -248.305308 
L 316.049298 -246.474622 
L 316.224514 -244.643935 
L 316.392532 -242.813249 
L 316.556917 -240.982562 
L 316.72188 -239.151876 
L 316.892169 -237.321189 
L 317.072957 -235.490503 
L 317.26973 -233.659816 
L 317.488166 -231.82913 
L 317.734009 -229.998444 
L 318.012939 -228.167757 
L 318.330438 -226.337071 
L 318.691658 -224.506384 
L 319.101316 -222.675698 
L 319.563596 -220.845011 
L 320.082096 -219.014325 
L 320.6598 -217.183638 
L 321.299077 -215.352952 
L 322.001686 -213.522265 
L 322.76878 -211.691579 
L 323.600858 -209.860892 
L 324.497671 -208.030206 
L 325.458039 -206.199519 
L 326.479591 -204.368833 
L 327.558427 -202.538146 
L 328.688746 -200.70746 
L 329.862462 -198.876773 
L 331.068886 -197.046087 
L 332.294514 -195.2154 
L 333.522992 -193.384714 
L 334.735272 -191.554027 
L 335.910006 -189.723341 
L 337.024143 -187.892654 
L 338.053719 -186.061968 
L 338.974768 -184.231281 
L 339.764306 -182.400595 
L 340.401303 -180.569908 
L 340.867576 -178.739222 
L 341.148557 -176.908535 
L 341.233887 -175.077849 
L 341.117822 -173.247163 
L 340.799441 -171.416476 
L 340.282673 -169.58579 
L 339.576152 -167.755103 
L 338.692924 -165.924417 
L 337.650029 -164.09373 
L 336.467957 -162.263044 
L 335.170013 -160.432357 
L 333.781572 -158.601671 
L 332.329269 -156.770984 
L 330.840117 -154.940298 
L 329.340597 -153.109611 
L 327.855753 -151.278925 
L 326.408338 -149.448238 
L 325.018073 -147.617552 
L 323.701051 -145.786865 
L 322.469356 -143.956179 
L 321.330907 -142.125492 
L 320.289551 -140.294806 
L 319.345381 -138.464119 
L 318.49527 -136.633433 
L 317.733543 -134.802746 
L 317.052744 -132.97206 
L 316.444415 -131.141373 
L 315.899832 -129.310687 
L 315.410624 -127.48 
L 314.969255 -125.649314 
L 314.569328 -123.818627 
L 314.205721 -121.987941 
L 313.874569 -120.157255 
L 313.573123 -118.326568 
L 313.299524 -116.495882 
L 313.052537 -114.665195 
L 312.83128 -112.834509 
L 312.634984 -111.003822 
L 312.462804 -109.173136 
L 312.313689 -107.342449 
L 312.186325 -105.511763 
L 312.079124 -103.681076 
L 311.990264 -101.85039 
z
" style="stroke: #3f3f3f; stroke-width: 1.25"/>
    </defs>
    <g clip-path="url(#p3ad78b8b1c)">
     <use xlink:href="#mcbfa4797de" x="0" y="360" style="fill: #e1812c; stroke: #3f3f3f; stroke-width: 1.25"/>
    </g>
   </g>
   <g id="patch_3">
    <path d="M 134.351509 276.271423 
L 134.351509 276.271423 
L 134.351509 276.271423 
L 134.351509 276.271423 
z
" clip-path="url(#p3ad78b8b1c)" style="fill: #3274a1; stroke: #3f3f3f; stroke-width: 1.25; stroke-linejoin: miter"/>
   </g>
   <g id="patch_4">
    <path d="M 134.351509 276.271423 
L 134.351509 276.271423 
L 134.351509 276.271423 
L 134.351509 276.271423 
z
" clip-path="url(#p3ad78b8b1c)" style="fill: #e1812c; stroke: #3f3f3f; stroke-width: 1.25; stroke-linejoin: miter"/>
   </g>
   <g id="line2d_9">
    <path d="M 104.796883 210.363849 
L 104.796883 135.993863 
" clip-path="url(#p3ad78b8b1c)" style="fill: none; stroke: #3f3f3f; stroke-width: 1.875; stroke-linecap: round"/>
   </g>
   <g id="line2d_10">
    <path d="M 104.796883 181.296251 
L 104.796883 152.074928 
" clip-path="url(#p3ad78b8b1c)" style="fill: none; stroke: #3f3f3f; stroke-width: 5.625; stroke-linecap: round"/>
   </g>
   <g id="line2d_11">
    <path d="M 104.796883 159.671842 
" clip-path="url(#p3ad78b8b1c)" style="fill: none; stroke: #3f3f3f; stroke-width: 1.5; stroke-linecap: round"/>
    <defs>
     <path id="m75956ec8f3" d="M 2.34375 0 
L -2.34375 -0 
" style="stroke: #ffffff; stroke-width: 1.125"/>
    </defs>
    <g clip-path="url(#p3ad78b8b1c)">
     <use xlink:href="#m75956ec8f3" x="104.796883" y="159.671842" style="fill: #ffffff; stroke: #ffffff; stroke-width: 1.125"/>
    </g>
   </g>
   <g id="line2d_12">
    <path d="M 163.906134 253.035407 
L 163.906134 97.931545 
" clip-path="url(#p3ad78b8b1c)" style="fill: none; stroke: #3f3f3f; stroke-width: 1.875; stroke-linecap: round"/>
   </g>
   <g id="line2d_13">
    <path d="M 163.906134 215.485421 
L 163.906134 151.998961 
" clip-path="url(#p3ad78b8b1c)" style="fill: none; stroke: #3f3f3f; stroke-width: 5.625; stroke-linecap: round"/>
   </g>
   <g id="line2d_14">
    <path d="M 163.906134 166.938891 
" clip-path="url(#p3ad78b8b1c)" style="fill: none; stroke: #3f3f3f; stroke-width: 1.5; stroke-linecap: round"/>
    <g clip-path="url(#p3ad78b8b1c)">
     <use xlink:href="#m75956ec8f3" x="163.906134" y="166.938891" style="fill: #ffffff; stroke: #ffffff; stroke-width: 1.125"/>
    </g>
   </g>
   <g id="line2d_15">
    <path d="M 252.570011 248.734429 
L 252.570011 72.818458 
" clip-path="url(#p3ad78b8b1c)" style="fill: none; stroke: #3f3f3f; stroke-width: 1.875; stroke-linecap: round"/>
   </g>
   <g id="line2d_16">
    <path d="M 252.570011 183.498778 
L 252.570011 121.887812 
" clip-path="url(#p3ad78b8b1c)" style="fill: none; stroke: #3f3f3f; stroke-width: 5.625; stroke-linecap: round"/>
   </g>
   <g id="line2d_17">
    <path d="M 252.570011 154.640765 
" clip-path="url(#p3ad78b8b1c)" style="fill: none; stroke: #3f3f3f; stroke-width: 1.5; stroke-linecap: round"/>
    <g clip-path="url(#p3ad78b8b1c)">
     <use xlink:href="#m75956ec8f3" x="252.570011" y="154.640765" style="fill: #ffffff; stroke: #ffffff; stroke-width: 1.125"/>
    </g>
   </g>
   <g id="line2d_18">
    <path d="M 311.679262 228.868992 
L 311.679262 137.97229 
" clip-path="url(#p3ad78b8b1c)" style="fill: none; stroke: #3f3f3f; stroke-width: 1.875; stroke-linecap: round"/>
   </g>
   <g id="line2d_19">
    <path d="M 311.679262 193.639637 
L 311.679262 167.138354 
" clip-path="url(#p3ad78b8b1c)" style="fill: none; stroke: #3f3f3f; stroke-width: 5.625; stroke-linecap: round"/>
   </g>
   <g id="line2d_20">
    <path d="M 311.679262 180.993226 
" clip-path="url(#p3ad78b8b1c)" style="fill: none; stroke: #3f3f3f; stroke-width: 1.5; stroke-linecap: round"/>
    <g clip-path="url(#p3ad78b8b1c)">
     <use xlink:href="#m75956ec8f3" x="311.679262" y="180.993226" style="fill: #ffffff; stroke: #ffffff; stroke-width: 1.125"/>
    </g>
   </g>
   <g id="patch_5">
    <path d="M 60.464945 318.04 
L 60.464945 10.8 
" style="fill: none; stroke: #cccccc; stroke-width: 0.8; stroke-linejoin: miter; stroke-linecap: square"/>
   </g>
   <g id="patch_6">
    <path d="M 60.464945 318.04 
L 356.0112 318.04 
" style="fill: none; stroke: #cccccc; stroke-width: 0.8; stroke-linejoin: miter; stroke-linecap: square"/>
   </g>
  </g>
  <g id="legend_1">
   <g id="text_13">
    <!-- time -->
    <g style="fill: #262626" transform="translate(365.045625 168.439844) scale(0.1 -0.1)">
     <defs>
      <path id="ArialMT-69" d="M 425 3934 
L 425 4581 
L 988 4581 
L 988 3934 
L 425 3934 
z
M 425 0 
L 425 3319 
L 988 3319 
L 988 0 
L 425 0 
z
" transform="scale(0.015625)"/>
     </defs>
     <use xlink:href="#ArialMT-74"/>
     <use xlink:href="#ArialMT-69" x="27.783203"/>
     <use xlink:href="#ArialMT-6d" x="50"/>
     <use xlink:href="#ArialMT-65" x="133.300781"/>
    </g>
   </g>
   <g id="patch_7">
    <path d="M 359.101875 182.585156 
L 379.101875 182.585156 
L 379.101875 175.585156 
L 359.101875 175.585156 
z
" style="fill: #3274a1; stroke: #3f3f3f; stroke-width: 1.25; stroke-linejoin: miter"/>
   </g>
   <g id="text_14">
    <!-- i -->
    <g style="fill: #262626" transform="translate(387.101875 182.585156) scale(0.1 -0.1)">
     <use xlink:href="#ArialMT-69"/>
    </g>
   </g>
   <g id="patch_8">
    <path d="M 359.101875 196.730469 
L 379.101875 196.730469 
L 379.101875 189.730469 
L 359.101875 189.730469 
z
" style="fill: #e1812c; stroke: #3f3f3f; stroke-width: 1.25; stroke-linejoin: miter"/>
   </g>
   <g id="text_15">
    <!-- f -->
    <g style="fill: #262626" transform="translate(387.101875 196.730469) scale(0.1 -0.1)">
     <use xlink:href="#ArialMT-66"/>
    </g>
   </g>
  </g>
 </g>
 <defs>
  <clipPath id="p3ad78b8b1c">
   <rect x="60.464945" y="10.8" width="295.546255" height="307.24"/>
  </clipPath>
 </defs>
</svg>
