<?xml version="1.0" encoding="utf-8" standalone="no"?>
<!DOCTYPE svg PUBLIC "-//W3C//DTD SVG 1.1//EN"
  "http://www.w3.org/Graphics/SVG/1.1/DTD/svg11.dtd">
<svg xmlns:xlink="http://www.w3.org/1999/xlink" width="398.88pt" height="360pt" viewBox="0 0 398.88 360" xmlns="http://www.w3.org/2000/svg" version="1.1">
 <metadata>
  <rdf:RDF xmlns:dc="http://purl.org/dc/elements/1.1/" xmlns:cc="http://creativecommons.org/ns#" xmlns:rdf="http://www.w3.org/1999/02/22-rdf-syntax-ns#">
   <cc:Work>
    <dc:type rdf:resource="http://purl.org/dc/dcmitype/StillImage"/>
    <dc:date>2024-09-11T03:31:56.225859</dc:date>
    <dc:format>image/svg+xml</dc:format>
    <dc:creator>
     <cc:Agent>
      <dc:title>Matplotlib v3.8.3, https://matplotlib.org/</dc:title>
     </cc:Agent>
    </dc:creator>
   </cc:Work>
  </rdf:RDF>
 </metadata>
 <defs>
  <style type="text/css">*{stroke-linejoin: round; stroke-linecap: butt}</style>
 </defs>
 <g id="figure_1">
  <g id="patch_1">
   <path d="M 0 360 
L 398.88 360 
L 398.88 0 
L 0 0 
z
" style="fill: #ffffff"/>
  </g>
  <g id="axes_1">
   <g id="patch_2">
    <path d="M 54.182585 318.04 
L 356.0112 318.04 
L 356.0112 10.8 
L 54.182585 10.8 
z
" style="fill: #ffffff"/>
   </g>
   <g id="matplotlib.axis_1">
    <g id="xtick_1">
     <g id="text_1">
      <!-- f -->
      <g style="fill: #262626" transform="translate(128.250676 332.197812) scale(0.1 -0.1)">
       <defs>
        <path id="ArialMT-66" d="M 556 0 
L 556 2881 
L 59 2881 
L 59 3319 
L 556 3319 
L 556 3672 
Q 556 4006 616 4169 
Q 697 4388 901 4523 
Q 1106 4659 1475 4659 
Q 1713 4659 2000 4603 
L 1916 4113 
Q 1741 4144 1584 4144 
Q 1328 4144 1222 4034 
Q 1116 3925 1116 3625 
L 1116 3319 
L 1763 3319 
L 1763 2881 
L 1116 2881 
L 1116 0 
L 556 0 
z
" transform="scale(0.015625)"/>
       </defs>
       <use xlink:href="#ArialMT-66"/>
      </g>
     </g>
    </g>
    <g id="xtick_2">
     <g id="text_2">
      <!-- m -->
      <g style="fill: #262626" transform="translate(276.389202 332.197812) scale(0.1 -0.1)">
       <defs>
        <path id="ArialMT-6d" d="M 422 0 
L 422 3319 
L 925 3319 
L 925 2853 
Q 1081 3097 1340 3245 
Q 1600 3394 1931 3394 
Q 2300 3394 2536 3241 
Q 2772 3088 2869 2813 
Q 3263 3394 3894 3394 
Q 4388 3394 4653 3120 
Q 4919 2847 4919 2278 
L 4919 0 
L 4359 0 
L 4359 2091 
Q 4359 2428 4304 2576 
Q 4250 2725 4106 2815 
Q 3963 2906 3769 2906 
Q 3419 2906 3187 2673 
Q 2956 2441 2956 1928 
L 2956 0 
L 2394 0 
L 2394 2156 
Q 2394 2531 2256 2718 
Q 2119 2906 1806 2906 
Q 1569 2906 1367 2781 
Q 1166 2656 1075 2415 
Q 984 2175 984 1722 
L 984 0 
L 422 0 
z
" transform="scale(0.015625)"/>
       </defs>
       <use xlink:href="#ArialMT-6d"/>
      </g>
     </g>
    </g>
    <g id="text_3">
     <!-- sex -->
     <g style="fill: #262626" transform="translate(197.316424 345.343125) scale(0.1 -0.1)">
      <defs>
       <path id="ArialMT-73" d="M 197 991 
L 753 1078 
Q 800 744 1014 566 
Q 1228 388 1613 388 
Q 2000 388 2187 545 
Q 2375 703 2375 916 
Q 2375 1106 2209 1216 
Q 2094 1291 1634 1406 
Q 1016 1563 777 1677 
Q 538 1791 414 1992 
Q 291 2194 291 2438 
Q 291 2659 392 2848 
Q 494 3038 669 3163 
Q 800 3259 1026 3326 
Q 1253 3394 1513 3394 
Q 1903 3394 2198 3281 
Q 2494 3169 2634 2976 
Q 2775 2784 2828 2463 
L 2278 2388 
Q 2241 2644 2061 2787 
Q 1881 2931 1553 2931 
Q 1166 2931 1000 2803 
Q 834 2675 834 2503 
Q 834 2394 903 2306 
Q 972 2216 1119 2156 
Q 1203 2125 1616 2013 
Q 2213 1853 2448 1751 
Q 2684 1650 2818 1456 
Q 2953 1263 2953 975 
Q 2953 694 2789 445 
Q 2625 197 2315 61 
Q 2006 -75 1616 -75 
Q 969 -75 630 194 
Q 291 463 197 991 
z
" transform="scale(0.015625)"/>
       <path id="ArialMT-65" d="M 2694 1069 
L 3275 997 
Q 3138 488 2766 206 
Q 2394 -75 1816 -75 
Q 1088 -75 661 373 
Q 234 822 234 1631 
Q 234 2469 665 2931 
Q 1097 3394 1784 3394 
Q 2450 3394 2872 2941 
Q 3294 2488 3294 1666 
Q 3294 1616 3291 1516 
L 816 1516 
Q 847 969 1125 678 
Q 1403 388 1819 388 
Q 2128 388 2347 550 
Q 2566 713 2694 1069 
z
M 847 1978 
L 2700 1978 
Q 2663 2397 2488 2606 
Q 2219 2931 1791 2931 
Q 1403 2931 1139 2672 
Q 875 2413 847 1978 
z
" transform="scale(0.015625)"/>
       <path id="ArialMT-78" d="M 47 0 
L 1259 1725 
L 138 3319 
L 841 3319 
L 1350 2541 
Q 1494 2319 1581 2169 
Q 1719 2375 1834 2534 
L 2394 3319 
L 3066 3319 
L 1919 1756 
L 3153 0 
L 2463 0 
L 1781 1031 
L 1600 1309 
L 728 0 
L 47 0 
z
" transform="scale(0.015625)"/>
      </defs>
      <use xlink:href="#ArialMT-73"/>
      <use xlink:href="#ArialMT-65" x="50"/>
      <use xlink:href="#ArialMT-78" x="105.615234"/>
     </g>
    </g>
   </g>
   <g id="matplotlib.axis_2">
    <g id="ytick_1">
     <g id="line2d_1">
      <path d="M 54.182585 296.425847 
L 356.0112 296.425847 
" clip-path="url(#p4f39515e46)" style="fill: none; stroke: #cccccc; stroke-width: 0.8; stroke-linecap: round"/>
     </g>
     <g id="text_4">
      <!-- −50 -->
      <g style="fill: #262626" transform="translate(30.220085 300.004753) scale(0.1 -0.1)">
       <defs>
        <path id="ArialMT-2212" d="M 3381 1997 
L 356 1997 
L 356 2522 
L 3381 2522 
L 3381 1997 
z
" transform="scale(0.015625)"/>
        <path id="ArialMT-35" d="M 266 1200 
L 856 1250 
Q 922 819 1161 601 
Q 1400 384 1738 384 
Q 2144 384 2425 690 
Q 2706 997 2706 1503 
Q 2706 1984 2436 2262 
Q 2166 2541 1728 2541 
Q 1456 2541 1237 2417 
Q 1019 2294 894 2097 
L 366 2166 
L 809 4519 
L 3088 4519 
L 3088 3981 
L 1259 3981 
L 1013 2750 
Q 1425 3038 1878 3038 
Q 2478 3038 2890 2622 
Q 3303 2206 3303 1553 
Q 3303 931 2941 478 
Q 2500 -78 1738 -78 
Q 1113 -78 717 272 
Q 322 622 266 1200 
z
" transform="scale(0.015625)"/>
        <path id="ArialMT-30" d="M 266 2259 
Q 266 3072 433 3567 
Q 600 4063 929 4331 
Q 1259 4600 1759 4600 
Q 2128 4600 2406 4451 
Q 2684 4303 2865 4023 
Q 3047 3744 3150 3342 
Q 3253 2941 3253 2259 
Q 3253 1453 3087 958 
Q 2922 463 2592 192 
Q 2263 -78 1759 -78 
Q 1097 -78 719 397 
Q 266 969 266 2259 
z
M 844 2259 
Q 844 1131 1108 757 
Q 1372 384 1759 384 
Q 2147 384 2411 759 
Q 2675 1134 2675 2259 
Q 2675 3391 2411 3762 
Q 2147 4134 1753 4134 
Q 1366 4134 1134 3806 
Q 844 3388 844 2259 
z
" transform="scale(0.015625)"/>
       </defs>
       <use xlink:href="#ArialMT-2212"/>
       <use xlink:href="#ArialMT-35" x="58.398438"/>
       <use xlink:href="#ArialMT-30" x="114.013672"/>
      </g>
     </g>
    </g>
    <g id="ytick_2">
     <g id="line2d_2">
      <path d="M 54.182585 244.467732 
L 356.0112 244.467732 
" clip-path="url(#p4f39515e46)" style="fill: none; stroke: #cccccc; stroke-width: 0.8; stroke-linecap: round"/>
     </g>
     <g id="text_5">
      <!-- 0 -->
      <g style="fill: #262626" transform="translate(41.621647 248.046638) scale(0.1 -0.1)">
       <use xlink:href="#ArialMT-30"/>
      </g>
     </g>
    </g>
    <g id="ytick_3">
     <g id="line2d_3">
      <path d="M 54.182585 192.509617 
L 356.0112 192.509617 
" clip-path="url(#p4f39515e46)" style="fill: none; stroke: #cccccc; stroke-width: 0.8; stroke-linecap: round"/>
     </g>
     <g id="text_6">
      <!-- 50 -->
      <g style="fill: #262626" transform="translate(36.06071 196.088523) scale(0.1 -0.1)">
       <use xlink:href="#ArialMT-35"/>
       <use xlink:href="#ArialMT-30" x="55.615234"/>
      </g>
     </g>
    </g>
    <g id="ytick_4">
     <g id="line2d_4">
      <path d="M 54.182585 140.551502 
L 356.0112 140.551502 
" clip-path="url(#p4f39515e46)" style="fill: none; stroke: #cccccc; stroke-width: 0.8; stroke-linecap: round"/>
     </g>
     <g id="text_7">
      <!-- 100 -->
      <g style="fill: #262626" transform="translate(30.499772 144.130408) scale(0.1 -0.1)">
       <defs>
        <path id="ArialMT-31" d="M 2384 0 
L 1822 0 
L 1822 3584 
Q 1619 3391 1289 3197 
Q 959 3003 697 2906 
L 697 3450 
Q 1169 3672 1522 3987 
Q 1875 4303 2022 4600 
L 2384 4600 
L 2384 0 
z
" transform="scale(0.015625)"/>
       </defs>
       <use xlink:href="#ArialMT-31"/>
       <use xlink:href="#ArialMT-30" x="55.615234"/>
       <use xlink:href="#ArialMT-30" x="111.230469"/>
      </g>
     </g>
    </g>
    <g id="ytick_5">
     <g id="line2d_5">
      <path d="M 54.182585 88.593387 
L 356.0112 88.593387 
" clip-path="url(#p4f39515e46)" style="fill: none; stroke: #cccccc; stroke-width: 0.8; stroke-linecap: round"/>
     </g>
     <g id="text_8">
      <!-- 150 -->
      <g style="fill: #262626" transform="translate(30.499772 92.172293) scale(0.1 -0.1)">
       <use xlink:href="#ArialMT-31"/>
       <use xlink:href="#ArialMT-35" x="55.615234"/>
       <use xlink:href="#ArialMT-30" x="111.230469"/>
      </g>
     </g>
    </g>
    <g id="ytick_6">
     <g id="line2d_6">
      <path d="M 54.182585 36.635272 
L 356.0112 36.635272 
" clip-path="url(#p4f39515e46)" style="fill: none; stroke: #cccccc; stroke-width: 0.8; stroke-linecap: round"/>
     </g>
     <g id="text_9">
      <!-- 200 -->
      <g style="fill: #262626" transform="translate(30.499772 40.214178) scale(0.1 -0.1)">
       <defs>
        <path id="ArialMT-32" d="M 3222 541 
L 3222 0 
L 194 0 
Q 188 203 259 391 
Q 375 700 629 1000 
Q 884 1300 1366 1694 
Q 2113 2306 2375 2664 
Q 2638 3022 2638 3341 
Q 2638 3675 2398 3904 
Q 2159 4134 1775 4134 
Q 1369 4134 1125 3890 
Q 881 3647 878 3216 
L 300 3275 
Q 359 3922 746 4261 
Q 1134 4600 1788 4600 
Q 2447 4600 2831 4234 
Q 3216 3869 3216 3328 
Q 3216 3053 3103 2787 
Q 2991 2522 2730 2228 
Q 2469 1934 1863 1422 
Q 1356 997 1212 845 
Q 1069 694 975 541 
L 3222 541 
z
" transform="scale(0.015625)"/>
       </defs>
       <use xlink:href="#ArialMT-32"/>
       <use xlink:href="#ArialMT-30" x="55.615234"/>
       <use xlink:href="#ArialMT-30" x="111.230469"/>
      </g>
     </g>
    </g>
    <g id="text_10">
     <!-- Fat energy (kcl/h) -->
     <g style="fill: #262626" transform="translate(24.115397 203.318438) rotate(-90) scale(0.1 -0.1)">
      <defs>
       <path id="ArialMT-46" d="M 525 0 
L 525 4581 
L 3616 4581 
L 3616 4041 
L 1131 4041 
L 1131 2622 
L 3281 2622 
L 3281 2081 
L 1131 2081 
L 1131 0 
L 525 0 
z
" transform="scale(0.015625)"/>
       <path id="ArialMT-61" d="M 2588 409 
Q 2275 144 1986 34 
Q 1697 -75 1366 -75 
Q 819 -75 525 192 
Q 231 459 231 875 
Q 231 1119 342 1320 
Q 453 1522 633 1644 
Q 813 1766 1038 1828 
Q 1203 1872 1538 1913 
Q 2219 1994 2541 2106 
Q 2544 2222 2544 2253 
Q 2544 2597 2384 2738 
Q 2169 2928 1744 2928 
Q 1347 2928 1158 2789 
Q 969 2650 878 2297 
L 328 2372 
Q 403 2725 575 2942 
Q 747 3159 1072 3276 
Q 1397 3394 1825 3394 
Q 2250 3394 2515 3294 
Q 2781 3194 2906 3042 
Q 3031 2891 3081 2659 
Q 3109 2516 3109 2141 
L 3109 1391 
Q 3109 606 3145 398 
Q 3181 191 3288 0 
L 2700 0 
Q 2613 175 2588 409 
z
M 2541 1666 
Q 2234 1541 1622 1453 
Q 1275 1403 1131 1340 
Q 988 1278 909 1158 
Q 831 1038 831 891 
Q 831 666 1001 516 
Q 1172 366 1500 366 
Q 1825 366 2078 508 
Q 2331 650 2450 897 
Q 2541 1088 2541 1459 
L 2541 1666 
z
" transform="scale(0.015625)"/>
       <path id="ArialMT-74" d="M 1650 503 
L 1731 6 
Q 1494 -44 1306 -44 
Q 1000 -44 831 53 
Q 663 150 594 308 
Q 525 466 525 972 
L 525 2881 
L 113 2881 
L 113 3319 
L 525 3319 
L 525 4141 
L 1084 4478 
L 1084 3319 
L 1650 3319 
L 1650 2881 
L 1084 2881 
L 1084 941 
Q 1084 700 1114 631 
Q 1144 563 1211 522 
Q 1278 481 1403 481 
Q 1497 481 1650 503 
z
" transform="scale(0.015625)"/>
       <path id="ArialMT-20" transform="scale(0.015625)"/>
       <path id="ArialMT-6e" d="M 422 0 
L 422 3319 
L 928 3319 
L 928 2847 
Q 1294 3394 1984 3394 
Q 2284 3394 2536 3286 
Q 2788 3178 2913 3003 
Q 3038 2828 3088 2588 
Q 3119 2431 3119 2041 
L 3119 0 
L 2556 0 
L 2556 2019 
Q 2556 2363 2490 2533 
Q 2425 2703 2258 2804 
Q 2091 2906 1866 2906 
Q 1506 2906 1245 2678 
Q 984 2450 984 1813 
L 984 0 
L 422 0 
z
" transform="scale(0.015625)"/>
       <path id="ArialMT-72" d="M 416 0 
L 416 3319 
L 922 3319 
L 922 2816 
Q 1116 3169 1280 3281 
Q 1444 3394 1641 3394 
Q 1925 3394 2219 3213 
L 2025 2691 
Q 1819 2813 1613 2813 
Q 1428 2813 1281 2702 
Q 1134 2591 1072 2394 
Q 978 2094 978 1738 
L 978 0 
L 416 0 
z
" transform="scale(0.015625)"/>
       <path id="ArialMT-67" d="M 319 -275 
L 866 -356 
Q 900 -609 1056 -725 
Q 1266 -881 1628 -881 
Q 2019 -881 2231 -725 
Q 2444 -569 2519 -288 
Q 2563 -116 2559 434 
Q 2191 0 1641 0 
Q 956 0 581 494 
Q 206 988 206 1678 
Q 206 2153 378 2554 
Q 550 2956 876 3175 
Q 1203 3394 1644 3394 
Q 2231 3394 2613 2919 
L 2613 3319 
L 3131 3319 
L 3131 450 
Q 3131 -325 2973 -648 
Q 2816 -972 2473 -1159 
Q 2131 -1347 1631 -1347 
Q 1038 -1347 672 -1080 
Q 306 -813 319 -275 
z
M 784 1719 
Q 784 1066 1043 766 
Q 1303 466 1694 466 
Q 2081 466 2343 764 
Q 2606 1063 2606 1700 
Q 2606 2309 2336 2618 
Q 2066 2928 1684 2928 
Q 1309 2928 1046 2623 
Q 784 2319 784 1719 
z
" transform="scale(0.015625)"/>
       <path id="ArialMT-79" d="M 397 -1278 
L 334 -750 
Q 519 -800 656 -800 
Q 844 -800 956 -737 
Q 1069 -675 1141 -563 
Q 1194 -478 1313 -144 
Q 1328 -97 1363 -6 
L 103 3319 
L 709 3319 
L 1400 1397 
Q 1534 1031 1641 628 
Q 1738 1016 1872 1384 
L 2581 3319 
L 3144 3319 
L 1881 -56 
Q 1678 -603 1566 -809 
Q 1416 -1088 1222 -1217 
Q 1028 -1347 759 -1347 
Q 597 -1347 397 -1278 
z
" transform="scale(0.015625)"/>
       <path id="ArialMT-28" d="M 1497 -1347 
Q 1031 -759 709 28 
Q 388 816 388 1659 
Q 388 2403 628 3084 
Q 909 3875 1497 4659 
L 1900 4659 
Q 1522 4009 1400 3731 
Q 1209 3300 1100 2831 
Q 966 2247 966 1656 
Q 966 153 1900 -1347 
L 1497 -1347 
z
" transform="scale(0.015625)"/>
       <path id="ArialMT-6b" d="M 425 0 
L 425 4581 
L 988 4581 
L 988 1969 
L 2319 3319 
L 3047 3319 
L 1778 2088 
L 3175 0 
L 2481 0 
L 1384 1697 
L 988 1316 
L 988 0 
L 425 0 
z
" transform="scale(0.015625)"/>
       <path id="ArialMT-63" d="M 2588 1216 
L 3141 1144 
Q 3050 572 2676 248 
Q 2303 -75 1759 -75 
Q 1078 -75 664 370 
Q 250 816 250 1647 
Q 250 2184 428 2587 
Q 606 2991 970 3192 
Q 1334 3394 1763 3394 
Q 2303 3394 2647 3120 
Q 2991 2847 3088 2344 
L 2541 2259 
Q 2463 2594 2264 2762 
Q 2066 2931 1784 2931 
Q 1359 2931 1093 2626 
Q 828 2322 828 1663 
Q 828 994 1084 691 
Q 1341 388 1753 388 
Q 2084 388 2306 591 
Q 2528 794 2588 1216 
z
" transform="scale(0.015625)"/>
       <path id="ArialMT-6c" d="M 409 0 
L 409 4581 
L 972 4581 
L 972 0 
L 409 0 
z
" transform="scale(0.015625)"/>
       <path id="ArialMT-2f" d="M 0 -78 
L 1328 4659 
L 1778 4659 
L 453 -78 
L 0 -78 
z
" transform="scale(0.015625)"/>
       <path id="ArialMT-68" d="M 422 0 
L 422 4581 
L 984 4581 
L 984 2938 
Q 1378 3394 1978 3394 
Q 2347 3394 2619 3248 
Q 2891 3103 3008 2847 
Q 3125 2591 3125 2103 
L 3125 0 
L 2563 0 
L 2563 2103 
Q 2563 2525 2380 2717 
Q 2197 2909 1863 2909 
Q 1613 2909 1392 2779 
Q 1172 2650 1078 2428 
Q 984 2206 984 1816 
L 984 0 
L 422 0 
z
" transform="scale(0.015625)"/>
       <path id="ArialMT-29" d="M 791 -1347 
L 388 -1347 
Q 1322 153 1322 1656 
Q 1322 2244 1188 2822 
Q 1081 3291 891 3722 
Q 769 4003 388 4659 
L 791 4659 
Q 1378 3875 1659 3084 
Q 1900 2403 1900 1659 
Q 1900 816 1576 28 
Q 1253 -759 791 -1347 
z
" transform="scale(0.015625)"/>
      </defs>
      <use xlink:href="#ArialMT-46"/>
      <use xlink:href="#ArialMT-61" x="61.083984"/>
      <use xlink:href="#ArialMT-74" x="116.699219"/>
      <use xlink:href="#ArialMT-20" x="144.482422"/>
      <use xlink:href="#ArialMT-65" x="172.265625"/>
      <use xlink:href="#ArialMT-6e" x="227.880859"/>
      <use xlink:href="#ArialMT-65" x="283.496094"/>
      <use xlink:href="#ArialMT-72" x="339.111328"/>
      <use xlink:href="#ArialMT-67" x="372.412109"/>
      <use xlink:href="#ArialMT-79" x="428.027344"/>
      <use xlink:href="#ArialMT-20" x="478.027344"/>
      <use xlink:href="#ArialMT-28" x="505.810547"/>
      <use xlink:href="#ArialMT-6b" x="539.111328"/>
      <use xlink:href="#ArialMT-63" x="589.111328"/>
      <use xlink:href="#ArialMT-6c" x="639.111328"/>
      <use xlink:href="#ArialMT-2f" x="661.328125"/>
      <use xlink:href="#ArialMT-68" x="689.111328"/>
      <use xlink:href="#ArialMT-29" x="744.726562"/>
     </g>
    </g>
   </g>
   <g id="PolyCollection_1">
    <defs>
     <path id="m241c54bd1f" d="M 102.834147 -83.393978 
L 96.079608 -83.393978 
L 95.268779 -85.13226 
L 94.321965 -86.870542 
L 93.232065 -88.608823 
L 91.99566 -90.347105 
L 90.61392 -92.085387 
L 89.093412 -93.823668 
L 87.446719 -95.56195 
L 85.692817 -97.300231 
L 83.857119 -99.038513 
L 81.971164 -100.776795 
L 80.071898 -102.515076 
L 78.200573 -104.253358 
L 76.40129 -105.99164 
L 74.719253 -107.729921 
L 73.198843 -109.468203 
L 71.881611 -111.206485 
L 70.804338 -112.944766 
L 69.997283 -114.683048 
L 69.482742 -116.42133 
L 69.274016 -118.159611 
L 69.374854 -119.897893 
L 69.77941 -121.636174 
L 70.472691 -123.374456 
L 71.431471 -125.112738 
L 72.625574 -126.851019 
L 74.01945 -128.589301 
L 75.573904 -130.327583 
L 77.247893 -132.065864 
L 79.000244 -133.804146 
L 80.791235 -135.542428 
L 82.583935 -137.280709 
L 84.34527 -139.018991 
L 86.04678 -140.757273 
L 87.665076 -142.495554 
L 89.182005 -144.233836 
L 90.584553 -145.972117 
L 91.864556 -147.710399 
L 93.018231 -149.448681 
L 94.045609 -151.186962 
L 94.949901 -152.925244 
L 95.736846 -154.663526 
L 96.414069 -156.401807 
L 96.990488 -158.140089 
L 97.475777 -159.878371 
L 97.879904 -161.616652 
L 98.212748 -163.354934 
L 98.483797 -165.093216 
L 98.701912 -166.831497 
L 98.875178 -168.569779 
L 99.010791 -170.30806 
L 99.115019 -172.046342 
L 99.193184 -173.784624 
L 99.249692 -175.522905 
L 99.288074 -177.261187 
L 99.311056 -178.999469 
L 99.32063 -180.73775 
L 99.318145 -182.476032 
L 99.304394 -184.214314 
L 99.279715 -185.952595 
L 99.244088 -187.690877 
L 99.197249 -189.429158 
L 99.138793 -191.16744 
L 99.06829 -192.905722 
L 98.985405 -194.644003 
L 98.890005 -196.382285 
L 98.782271 -198.120567 
L 98.662793 -199.858848 
L 98.532645 -201.59713 
L 98.393444 -203.335412 
L 98.247366 -205.073693 
L 98.097139 -206.811975 
L 97.945983 -208.550257 
L 97.797523 -210.288538 
L 97.655658 -212.02682 
L 97.524401 -213.765101 
L 97.407692 -215.503383 
L 97.309211 -217.241665 
L 97.232181 -218.979946 
L 97.179197 -220.718228 
L 97.152079 -222.45651 
L 97.15177 -224.194791 
L 97.178281 -225.933073 
L 97.230691 -227.671355 
L 97.307199 -229.409636 
L 97.405226 -231.147918 
L 97.521563 -232.8862 
L 97.652541 -234.624481 
L 97.794225 -236.362763 
L 97.942608 -238.101044 
L 98.093792 -239.839326 
L 98.244157 -241.577608 
L 98.390487 -243.315889 
L 98.530069 -245.054171 
L 98.660752 -246.792453 
L 98.780964 -248.530734 
L 98.8897 -250.269016 
L 98.986481 -252.007298 
L 99.071286 -253.745579 
L 99.144479 -255.483861 
L 99.769275 -255.483861 
L 99.769275 -255.483861 
L 99.842469 -253.745579 
L 99.927274 -252.007298 
L 100.024054 -250.269016 
L 100.132791 -248.530734 
L 100.253003 -246.792453 
L 100.383686 -245.054171 
L 100.523268 -243.315889 
L 100.669598 -241.577608 
L 100.819962 -239.839326 
L 100.971147 -238.101044 
L 101.119529 -236.362763 
L 101.261213 -234.624481 
L 101.392192 -232.8862 
L 101.508528 -231.147918 
L 101.606556 -229.409636 
L 101.683063 -227.671355 
L 101.735473 -225.933073 
L 101.761985 -224.194791 
L 101.761676 -222.45651 
L 101.734558 -220.718228 
L 101.681574 -218.979946 
L 101.604544 -217.241665 
L 101.506062 -215.503383 
L 101.389354 -213.765101 
L 101.258096 -212.02682 
L 101.116232 -210.288538 
L 100.967772 -208.550257 
L 100.816616 -206.811975 
L 100.666388 -205.073693 
L 100.520311 -203.335412 
L 100.381109 -201.59713 
L 100.250962 -199.858848 
L 100.131483 -198.120567 
L 100.023749 -196.382285 
L 99.928349 -194.644003 
L 99.845464 -192.905722 
L 99.774962 -191.16744 
L 99.716505 -189.429158 
L 99.669666 -187.690877 
L 99.63404 -185.952595 
L 99.60936 -184.214314 
L 99.59561 -182.476032 
L 99.593124 -180.73775 
L 99.602699 -178.999469 
L 99.62568 -177.261187 
L 99.664063 -175.522905 
L 99.72057 -173.784624 
L 99.798736 -172.046342 
L 99.902963 -170.30806 
L 100.038577 -168.569779 
L 100.211842 -166.831497 
L 100.429958 -165.093216 
L 100.701006 -163.354934 
L 101.033851 -161.616652 
L 101.437978 -159.878371 
L 101.923267 -158.140089 
L 102.499686 -156.401807 
L 103.176909 -154.663526 
L 103.963853 -152.925244 
L 104.868145 -151.186962 
L 105.895523 -149.448681 
L 107.049198 -147.710399 
L 108.329201 -145.972117 
L 109.73175 -144.233836 
L 111.248678 -142.495554 
L 112.866975 -140.757273 
L 114.568485 -139.018991 
L 116.329819 -137.280709 
L 118.122519 -135.542428 
L 119.91351 -133.804146 
L 121.665862 -132.065864 
L 123.33985 -130.327583 
L 124.894305 -128.589301 
L 126.28818 -126.851019 
L 127.482284 -125.112738 
L 128.441063 -123.374456 
L 129.134345 -121.636174 
L 129.538901 -119.897893 
L 129.639739 -118.159611 
L 129.431012 -116.42133 
L 128.916471 -114.683048 
L 128.109416 -112.944766 
L 127.032143 -111.206485 
L 125.714911 -109.468203 
L 124.194501 -107.729921 
L 122.512465 -105.99164 
L 120.713181 -104.253358 
L 118.841856 -102.515076 
L 116.942591 -100.776795 
L 115.056636 -99.038513 
L 113.220938 -97.300231 
L 111.467035 -95.56195 
L 109.820342 -93.823668 
L 108.299834 -92.085387 
L 106.918095 -90.347105 
L 105.681689 -88.608823 
L 104.591789 -86.870542 
L 103.644975 -85.13226 
L 102.834147 -83.393978 
z
" style="stroke: #3f3f3f; stroke-width: 1.25"/>
    </defs>
    <g clip-path="url(#p4f39515e46)">
     <use xlink:href="#m241c54bd1f" x="0" y="360" style="fill: #3274a1; stroke: #3f3f3f; stroke-width: 1.25"/>
    </g>
   </g>
   <g id="PolyCollection_2">
    <defs>
     <path id="m2928c1340c" d="M 162.218532 -55.925455 
L 157.426668 -55.925455 
L 156.995565 -58.368295 
L 156.508359 -60.811135 
L 155.962136 -63.253976 
L 155.354695 -65.696816 
L 154.684714 -68.139657 
L 153.951917 -70.582497 
L 153.15723 -73.025338 
L 152.302911 -75.468178 
L 151.392661 -77.911019 
L 150.431692 -80.353859 
L 149.426759 -82.7967 
L 148.38614 -85.23954 
L 147.319565 -87.68238 
L 146.23809 -90.125221 
L 145.153918 -92.568061 
L 144.080165 -95.010902 
L 143.030581 -97.453742 
L 142.019232 -99.896583 
L 141.060152 -102.339423 
L 140.166974 -104.782264 
L 139.352566 -107.225104 
L 138.628663 -109.667945 
L 138.00553 -112.110785 
L 137.491664 -114.553625 
L 137.09354 -116.996466 
L 136.815415 -119.439306 
L 136.659208 -121.882147 
L 136.62444 -124.324987 
L 136.70826 -126.767828 
L 136.905533 -129.210668 
L 137.20901 -131.653509 
L 137.609544 -134.096349 
L 138.096372 -136.53919 
L 138.65743 -138.98203 
L 139.279694 -141.42487 
L 139.949546 -143.867711 
L 140.653124 -146.310551 
L 141.376677 -148.753392 
L 142.106882 -151.196232 
L 142.831136 -153.639073 
L 143.537805 -156.081913 
L 144.216422 -158.524754 
L 144.857838 -160.967594 
L 145.454325 -163.410435 
L 145.999626 -165.853275 
L 146.488966 -168.296115 
L 146.919016 -170.738956 
L 147.287834 -173.181796 
L 147.594776 -175.624637 
L 147.840388 -178.067477 
L 148.026298 -180.510318 
L 148.155092 -182.953158 
L 148.2302 -185.395999 
L 148.25579 -187.838839 
L 148.236664 -190.28168 
L 148.17817 -192.72452 
L 148.086116 -195.16736 
L 147.966701 -197.610201 
L 147.826443 -200.053041 
L 147.672108 -202.495882 
L 147.510637 -204.938722 
L 147.349071 -207.381563 
L 147.194464 -209.824403 
L 147.053779 -212.267244 
L 146.933784 -214.710084 
L 146.840933 -217.152925 
L 146.781237 -219.595765 
L 146.760133 -222.038605 
L 146.782359 -224.481446 
L 146.851829 -226.924286 
L 146.971522 -229.367127 
L 147.143397 -231.809967 
L 147.368324 -234.252808 
L 147.646051 -236.695648 
L 147.9752 -239.138489 
L 148.353298 -241.581329 
L 148.776844 -244.02417 
L 149.241408 -246.46701 
L 149.741755 -248.90985 
L 150.272005 -251.352691 
L 150.825795 -253.795531 
L 151.396464 -256.238372 
L 151.977238 -258.681212 
L 152.561407 -261.124053 
L 153.142503 -263.566893 
L 153.714445 -266.009734 
L 154.271675 -268.452574 
L 154.809267 -270.895415 
L 155.322999 -273.338255 
L 155.809405 -275.781095 
L 156.265801 -278.223936 
L 156.690271 -280.666776 
L 157.081647 -283.109617 
L 157.439452 -285.552457 
L 157.763842 -287.995298 
L 158.055523 -290.438138 
L 158.315667 -292.880979 
L 158.545829 -295.323819 
L 158.747853 -297.76666 
L 160.897348 -297.76666 
L 160.897348 -297.76666 
L 161.099371 -295.323819 
L 161.329533 -292.880979 
L 161.589678 -290.438138 
L 161.881358 -287.995298 
L 162.205748 -285.552457 
L 162.563554 -283.109617 
L 162.954929 -280.666776 
L 163.3794 -278.223936 
L 163.835795 -275.781095 
L 164.322202 -273.338255 
L 164.835933 -270.895415 
L 165.373525 -268.452574 
L 165.930756 -266.009734 
L 166.502698 -263.566893 
L 167.083793 -261.124053 
L 167.667963 -258.681212 
L 168.248736 -256.238372 
L 168.819405 -253.795531 
L 169.373195 -251.352691 
L 169.903445 -248.90985 
L 170.403793 -246.46701 
L 170.868356 -244.02417 
L 171.291902 -241.581329 
L 171.67 -239.138489 
L 171.999149 -236.695648 
L 172.276877 -234.252808 
L 172.501804 -231.809967 
L 172.673679 -229.367127 
L 172.793372 -226.924286 
L 172.862841 -224.481446 
L 172.885068 -222.038605 
L 172.863964 -219.595765 
L 172.804267 -217.152925 
L 172.711416 -214.710084 
L 172.591422 -212.267244 
L 172.450737 -209.824403 
L 172.296129 -207.381563 
L 172.134564 -204.938722 
L 171.973093 -202.495882 
L 171.818757 -200.053041 
L 171.678499 -197.610201 
L 171.559085 -195.16736 
L 171.467031 -192.72452 
L 171.408536 -190.28168 
L 171.38941 -187.838839 
L 171.415001 -185.395999 
L 171.490109 -182.953158 
L 171.618902 -180.510318 
L 171.804812 -178.067477 
L 172.050425 -175.624637 
L 172.357366 -173.181796 
L 172.726184 -170.738956 
L 173.156234 -168.296115 
L 173.645574 -165.853275 
L 174.190876 -163.410435 
L 174.787363 -160.967594 
L 175.428779 -158.524754 
L 176.107395 -156.081913 
L 176.814064 -153.639073 
L 177.538319 -151.196232 
L 178.268523 -148.753392 
L 178.992076 -146.310551 
L 179.695654 -143.867711 
L 180.365506 -141.42487 
L 180.987771 -138.98203 
L 181.548828 -136.53919 
L 182.035657 -134.096349 
L 182.436191 -131.653509 
L 182.739667 -129.210668 
L 182.936941 -126.767828 
L 183.02076 -124.324987 
L 182.985992 -121.882147 
L 182.829785 -119.439306 
L 182.551661 -116.996466 
L 182.153536 -114.553625 
L 181.639671 -112.110785 
L 181.016538 -109.667945 
L 180.292634 -107.225104 
L 179.478226 -104.782264 
L 178.585049 -102.339423 
L 177.625968 -99.896583 
L 176.614619 -97.453742 
L 175.565035 -95.010902 
L 174.491282 -92.568061 
L 173.40711 -90.125221 
L 172.325635 -87.68238 
L 171.25906 -85.23954 
L 170.218441 -82.7967 
L 169.213508 -80.353859 
L 168.252539 -77.911019 
L 167.342289 -75.468178 
L 166.48797 -73.025338 
L 165.693283 -70.582497 
L 164.960487 -68.139657 
L 164.290506 -65.696816 
L 163.683064 -63.253976 
L 163.136842 -60.811135 
L 162.649635 -58.368295 
L 162.218532 -55.925455 
z
" style="stroke: #3f3f3f; stroke-width: 1.25"/>
    </defs>
    <g clip-path="url(#p4f39515e46)">
     <use xlink:href="#m2928c1340c" x="0" y="360" style="fill: #e1812c; stroke: #3f3f3f; stroke-width: 1.25"/>
    </g>
   </g>
   <g id="PolyCollection_3">
    <defs>
     <path id="m1100ae05c1" d="M 251.873658 -68.203513 
L 248.868711 -68.203513 
L 248.530473 -70.612854 
L 248.138618 -73.022196 
L 247.690305 -75.431537 
L 247.183907 -77.840878 
L 246.619295 -80.25022 
L 245.9981 -82.659561 
L 245.323922 -85.068902 
L 244.602462 -87.478244 
L 243.841567 -89.887585 
L 243.051157 -92.296927 
L 242.243043 -94.706268 
L 241.430619 -97.115609 
L 240.628453 -99.524951 
L 239.851767 -101.934292 
L 239.115865 -104.343633 
L 238.435511 -106.752975 
L 237.824317 -109.162316 
L 237.294158 -111.571657 
L 236.854673 -113.980999 
L 236.512877 -116.39034 
L 236.272894 -118.799682 
L 236.135855 -121.209023 
L 236.099945 -123.618364 
L 236.160598 -126.027706 
L 236.310821 -128.437047 
L 236.541623 -130.846388 
L 236.842519 -133.25573 
L 237.202065 -135.665071 
L 237.608391 -138.074413 
L 238.049704 -140.483754 
L 238.514729 -142.893095 
L 238.99307 -145.302437 
L 239.47548 -147.711778 
L 239.954031 -150.121119 
L 240.422202 -152.530461 
L 240.87488 -154.939802 
L 241.308296 -157.349143 
L 241.719919 -159.758485 
L 242.108308 -162.167826 
L 242.472953 -164.577168 
L 242.814112 -166.986509 
L 243.132652 -169.39585 
L 243.429896 -171.805192 
L 243.707499 -174.214533 
L 243.967321 -176.623874 
L 244.211324 -179.033216 
L 244.441483 -181.442557 
L 244.6597 -183.851898 
L 244.867736 -186.26124 
L 245.067146 -188.670581 
L 245.25923 -191.079923 
L 245.444996 -193.489264 
L 245.625129 -195.898605 
L 245.799991 -198.307947 
L 245.969626 -200.717288 
L 246.133788 -203.126629 
L 246.291985 -205.535971 
L 246.44354 -207.945312 
L 246.587665 -210.354654 
L 246.723541 -212.763995 
L 246.850399 -215.173336 
L 246.967609 -217.582678 
L 247.07475 -219.992019 
L 247.171678 -222.40136 
L 247.258571 -224.810702 
L 247.335961 -227.220043 
L 247.404737 -229.629384 
L 247.466131 -232.038726 
L 247.521684 -234.448067 
L 247.573183 -236.857409 
L 247.622591 -239.26675 
L 247.671953 -241.676091 
L 247.72331 -244.085433 
L 247.778589 -246.494774 
L 247.83952 -248.904115 
L 247.907544 -251.313457 
L 247.983742 -253.722798 
L 248.068791 -256.13214 
L 248.162925 -258.541481 
L 248.265937 -260.950822 
L 248.377193 -263.360164 
L 248.495673 -265.769505 
L 248.620029 -268.178846 
L 248.748662 -270.588188 
L 248.8798 -272.997529 
L 249.011588 -275.40687 
L 249.142177 -277.816212 
L 249.269801 -280.225553 
L 249.392846 -282.634895 
L 249.509908 -285.044236 
L 249.619833 -287.453577 
L 249.721739 -289.862919 
L 249.815025 -292.27226 
L 249.899365 -294.681601 
L 249.974688 -297.090943 
L 250.041148 -299.500284 
L 250.099091 -301.909626 
L 250.149014 -304.318967 
L 250.191527 -306.728308 
L 250.550842 -306.728308 
L 250.550842 -306.728308 
L 250.593355 -304.318967 
L 250.643279 -301.909626 
L 250.701221 -299.500284 
L 250.767681 -297.090943 
L 250.843004 -294.681601 
L 250.927344 -292.27226 
L 251.02063 -289.862919 
L 251.122536 -287.453577 
L 251.232461 -285.044236 
L 251.349523 -282.634895 
L 251.472568 -280.225553 
L 251.600192 -277.816212 
L 251.730782 -275.40687 
L 251.86257 -272.997529 
L 251.993707 -270.588188 
L 252.12234 -268.178846 
L 252.246697 -265.769505 
L 252.365177 -263.360164 
L 252.476433 -260.950822 
L 252.579445 -258.541481 
L 252.673579 -256.13214 
L 252.758627 -253.722798 
L 252.834826 -251.313457 
L 252.902849 -248.904115 
L 252.96378 -246.494774 
L 253.01906 -244.085433 
L 253.070416 -241.676091 
L 253.119779 -239.26675 
L 253.169186 -236.857409 
L 253.220685 -234.448067 
L 253.276238 -232.038726 
L 253.337633 -229.629384 
L 253.406408 -227.220043 
L 253.483798 -224.810702 
L 253.570692 -222.40136 
L 253.66762 -219.992019 
L 253.774761 -217.582678 
L 253.89197 -215.173336 
L 254.018829 -212.763995 
L 254.154704 -210.354654 
L 254.29883 -207.945312 
L 254.450385 -205.535971 
L 254.608582 -203.126629 
L 254.772743 -200.717288 
L 254.942378 -198.307947 
L 255.117241 -195.898605 
L 255.297374 -193.489264 
L 255.483139 -191.079923 
L 255.675223 -188.670581 
L 255.874633 -186.26124 
L 256.082669 -183.851898 
L 256.300886 -181.442557 
L 256.531045 -179.033216 
L 256.775048 -176.623874 
L 257.03487 -174.214533 
L 257.312473 -171.805192 
L 257.609718 -169.39585 
L 257.928257 -166.986509 
L 258.269416 -164.577168 
L 258.634061 -162.167826 
L 259.02245 -159.758485 
L 259.434073 -157.349143 
L 259.86749 -154.939802 
L 260.320167 -152.530461 
L 260.788339 -150.121119 
L 261.26689 -147.711778 
L 261.7493 -145.302437 
L 262.227641 -142.893095 
L 262.692666 -140.483754 
L 263.133979 -138.074413 
L 263.540304 -135.665071 
L 263.89985 -133.25573 
L 264.200747 -130.846388 
L 264.431549 -128.437047 
L 264.581771 -126.027706 
L 264.642424 -123.618364 
L 264.606515 -121.209023 
L 264.469476 -118.799682 
L 264.229493 -116.39034 
L 263.887696 -113.980999 
L 263.448212 -111.571657 
L 262.918052 -109.162316 
L 262.306858 -106.752975 
L 261.626505 -104.343633 
L 260.890603 -101.934292 
L 260.113917 -99.524951 
L 259.31175 -97.115609 
L 258.499327 -94.706268 
L 257.691212 -92.296927 
L 256.900802 -89.887585 
L 256.139907 -87.478244 
L 255.418448 -85.068902 
L 254.74427 -82.659561 
L 254.123075 -80.25022 
L 253.558462 -77.840878 
L 253.052064 -75.431537 
L 252.603752 -73.022196 
L 252.211896 -70.612854 
L 251.873658 -68.203513 
z
" style="stroke: #3f3f3f; stroke-width: 1.25"/>
    </defs>
    <g clip-path="url(#p4f39515e46)">
     <use xlink:href="#m1100ae05c1" x="0" y="360" style="fill: #3274a1; stroke: #3f3f3f; stroke-width: 1.25"/>
    </g>
   </g>
   <g id="PolyCollection_4">
    <defs>
     <path id="m558afe43b1" d="M 312.342951 -69.019944 
L 309.130865 -69.019944 
L 308.688735 -71.70898 
L 308.156995 -74.398017 
L 307.52681 -77.087053 
L 306.790895 -79.776089 
L 305.94415 -82.465126 
L 304.984263 -85.154162 
L 303.912222 -87.843198 
L 302.732683 -90.532235 
L 301.454132 -93.221271 
L 300.088817 -95.910308 
L 298.652423 -98.599344 
L 297.163503 -101.28838 
L 295.642694 -103.977417 
L 294.111786 -106.666453 
L 292.592716 -109.35549 
L 291.106596 -112.044526 
L 289.672854 -114.733562 
L 288.308591 -117.422599 
L 287.028198 -120.111635 
L 285.843281 -122.800671 
L 284.762873 -125.489708 
L 283.793893 -128.178744 
L 282.941775 -130.867781 
L 282.211161 -133.556817 
L 281.60655 -136.245853 
L 281.132796 -138.93489 
L 280.795372 -141.623926 
L 280.600343 -144.312962 
L 280.554046 -147.001999 
L 280.662496 -149.691035 
L 280.930595 -152.380072 
L 281.361232 -155.069108 
L 281.954394 -157.758144 
L 282.706397 -160.447181 
L 283.609335 -163.136217 
L 284.650822 -165.825253 
L 285.814075 -168.51429 
L 287.078332 -171.203326 
L 288.419579 -173.892363 
L 289.811523 -176.581399 
L 291.226742 -179.270435 
L 292.63789 -181.959472 
L 294.018893 -184.648508 
L 295.346039 -187.337545 
L 296.598886 -190.026581 
L 297.760954 -192.715617 
L 298.820158 -195.404654 
L 299.768995 -198.09369 
L 300.604482 -200.782726 
L 301.327882 -203.471763 
L 301.944253 -206.160799 
L 302.46186 -208.849836 
L 302.891497 -211.538872 
L 303.245755 -214.227908 
L 303.538279 -216.916945 
L 303.783041 -219.605981 
L 303.993664 -222.295017 
L 304.18281 -224.984054 
L 304.361668 -227.67309 
L 304.539543 -230.362127 
L 304.723569 -233.051163 
L 304.918553 -235.740199 
L 305.126957 -238.429236 
L 305.349012 -241.118272 
L 305.58296 -243.807309 
L 305.825408 -246.496345 
L 306.07177 -249.185381 
L 306.31676 -251.874418 
L 306.554917 -254.563454 
L 306.781105 -257.25249 
L 306.990962 -259.941527 
L 307.18127 -262.630563 
L 307.3502 -265.3196 
L 307.497436 -268.008636 
L 307.624163 -270.697672 
L 307.732925 -273.386709 
L 307.82737 -276.075745 
L 307.911918 -278.764781 
L 307.991371 -281.453818 
L 308.070516 -284.142854 
L 308.15374 -286.831891 
L 308.244714 -289.520927 
L 308.346142 -292.209963 
L 308.459612 -294.899 
L 308.585551 -297.588036 
L 308.723272 -300.277073 
L 308.871108 -302.966109 
L 309.026612 -305.655145 
L 309.186797 -308.344182 
L 309.348393 -311.033218 
L 309.508101 -313.722254 
L 309.662812 -316.411291 
L 309.809789 -319.100327 
L 309.9468 -321.789364 
L 310.072188 -324.4784 
L 310.184898 -327.167436 
L 310.284453 -329.856473 
L 310.370894 -332.545509 
L 310.444702 -335.234545 
L 311.029114 -335.234545 
L 311.029114 -335.234545 
L 311.102921 -332.545509 
L 311.189363 -329.856473 
L 311.288918 -327.167436 
L 311.401628 -324.4784 
L 311.527016 -321.789364 
L 311.664026 -319.100327 
L 311.811004 -316.411291 
L 311.965714 -313.722254 
L 312.125422 -311.033218 
L 312.287019 -308.344182 
L 312.447203 -305.655145 
L 312.602707 -302.966109 
L 312.750543 -300.277073 
L 312.888265 -297.588036 
L 313.014204 -294.899 
L 313.127674 -292.209963 
L 313.229101 -289.520927 
L 313.320075 -286.831891 
L 313.4033 -284.142854 
L 313.482444 -281.453818 
L 313.561898 -278.764781 
L 313.646446 -276.075745 
L 313.740891 -273.386709 
L 313.849652 -270.697672 
L 313.976379 -268.008636 
L 314.123616 -265.3196 
L 314.292545 -262.630563 
L 314.482853 -259.941527 
L 314.692711 -257.25249 
L 314.918898 -254.563454 
L 315.157055 -251.874418 
L 315.402046 -249.185381 
L 315.648407 -246.496345 
L 315.890856 -243.807309 
L 316.124804 -241.118272 
L 316.346858 -238.429236 
L 316.555262 -235.740199 
L 316.750246 -233.051163 
L 316.934272 -230.362127 
L 317.112147 -227.67309 
L 317.291006 -224.984054 
L 317.480152 -222.295017 
L 317.690774 -219.605981 
L 317.935537 -216.916945 
L 318.22806 -214.227908 
L 318.582318 -211.538872 
L 319.011955 -208.849836 
L 319.529562 -206.160799 
L 320.145933 -203.471763 
L 320.869333 -200.782726 
L 321.70482 -198.09369 
L 322.653657 -195.404654 
L 323.712861 -192.715617 
L 324.874929 -190.026581 
L 326.127777 -187.337545 
L 327.454923 -184.648508 
L 328.835926 -181.959472 
L 330.247073 -179.270435 
L 331.662292 -176.581399 
L 333.054237 -173.892363 
L 334.395483 -171.203326 
L 335.65974 -168.51429 
L 336.822993 -165.825253 
L 337.864481 -163.136217 
L 338.767418 -160.447181 
L 339.519421 -157.758144 
L 340.112584 -155.069108 
L 340.54322 -152.380072 
L 340.811319 -149.691035 
L 340.919769 -147.001999 
L 340.873472 -144.312962 
L 340.678443 -141.623926 
L 340.341019 -138.93489 
L 339.867266 -136.245853 
L 339.262655 -133.556817 
L 338.53204 -130.867781 
L 337.679922 -128.178744 
L 336.710942 -125.489708 
L 335.630534 -122.800671 
L 334.445617 -120.111635 
L 333.165225 -117.422599 
L 331.800962 -114.733562 
L 330.36722 -112.044526 
L 328.8811 -109.35549 
L 327.36203 -106.666453 
L 325.831121 -103.977417 
L 324.310313 -101.28838 
L 322.821393 -98.599344 
L 321.384999 -95.910308 
L 320.019683 -93.221271 
L 318.741132 -90.532235 
L 317.561593 -87.843198 
L 316.489553 -85.154162 
L 315.529666 -82.465126 
L 314.682921 -79.776089 
L 313.947006 -77.087053 
L 313.316821 -74.398017 
L 312.785081 -71.70898 
L 312.342951 -69.019944 
z
" style="stroke: #3f3f3f; stroke-width: 1.25"/>
    </defs>
    <g clip-path="url(#p4f39515e46)">
     <use xlink:href="#m558afe43b1" x="0" y="360" style="fill: #e1812c; stroke: #3f3f3f; stroke-width: 1.25"/>
    </g>
   </g>
   <g id="patch_3">
    <path d="M 129.639739 244.467732 
L 129.639739 244.467732 
L 129.639739 244.467732 
L 129.639739 244.467732 
z
" clip-path="url(#p4f39515e46)" style="fill: #3274a1; stroke: #3f3f3f; stroke-width: 1.25; stroke-linejoin: miter"/>
   </g>
   <g id="patch_4">
    <path d="M 129.639739 244.467732 
L 129.639739 244.467732 
L 129.639739 244.467732 
L 129.639739 244.467732 
z
" clip-path="url(#p4f39515e46)" style="fill: #e1812c; stroke: #3f3f3f; stroke-width: 1.25; stroke-linejoin: miter"/>
   </g>
   <g id="line2d_7">
    <path d="M 99.456877 244.467732 
L 99.456877 226.035502 
" clip-path="url(#p4f39515e46)" style="fill: none; stroke: #3f3f3f; stroke-width: 1.875; stroke-linecap: round"/>
   </g>
   <g id="line2d_8">
    <path d="M 99.456877 244.467732 
L 99.456877 235.9933 
" clip-path="url(#p4f39515e46)" style="fill: none; stroke: #3f3f3f; stroke-width: 5.625; stroke-linecap: round"/>
   </g>
   <g id="line2d_9">
    <path d="M 99.456877 244.467732 
" clip-path="url(#p4f39515e46)" style="fill: none; stroke: #3f3f3f; stroke-width: 1.5; stroke-linecap: round"/>
    <defs>
     <path id="mecb88bd8dc" d="M 2.34375 0 
L -2.34375 -0 
" style="stroke: #ffffff; stroke-width: 1.125"/>
    </defs>
    <g clip-path="url(#p4f39515e46)">
     <use xlink:href="#mecb88bd8dc" x="99.456877" y="244.467732" style="fill: #ffffff; stroke: #ffffff; stroke-width: 1.125"/>
    </g>
   </g>
   <g id="line2d_10">
    <path d="M 159.8226 244.467732 
L 159.8226 121.840154 
" clip-path="url(#p4f39515e46)" style="fill: none; stroke: #3f3f3f; stroke-width: 1.875; stroke-linecap: round"/>
   </g>
   <g id="line2d_11">
    <path d="M 159.8226 244.467732 
L 159.8226 148.990307 
" clip-path="url(#p4f39515e46)" style="fill: none; stroke: #3f3f3f; stroke-width: 5.625; stroke-linecap: round"/>
   </g>
   <g id="line2d_12">
    <path d="M 159.8226 225.788913 
" clip-path="url(#p4f39515e46)" style="fill: none; stroke: #3f3f3f; stroke-width: 1.5; stroke-linecap: round"/>
    <g clip-path="url(#p4f39515e46)">
     <use xlink:href="#mecb88bd8dc" x="159.8226" y="225.788913" style="fill: #ffffff; stroke: #ffffff; stroke-width: 1.125"/>
    </g>
   </g>
   <g id="line2d_13">
    <path d="M 250.371185 244.467732 
L 250.371185 111.865283 
" clip-path="url(#p4f39515e46)" style="fill: none; stroke: #3f3f3f; stroke-width: 1.875; stroke-linecap: round"/>
   </g>
   <g id="line2d_14">
    <path d="M 250.371185 244.467732 
L 250.371185 189.827631 
" clip-path="url(#p4f39515e46)" style="fill: none; stroke: #3f3f3f; stroke-width: 5.625; stroke-linecap: round"/>
   </g>
   <g id="line2d_15">
    <path d="M 250.371185 229.652506 
" clip-path="url(#p4f39515e46)" style="fill: none; stroke: #3f3f3f; stroke-width: 1.5; stroke-linecap: round"/>
    <g clip-path="url(#p4f39515e46)">
     <use xlink:href="#mecb88bd8dc" x="250.371185" y="229.652506" style="fill: #ffffff; stroke: #ffffff; stroke-width: 1.125"/>
    </g>
   </g>
   <g id="line2d_16">
    <path d="M 310.736908 244.467732 
L 310.736908 129.090301 
" clip-path="url(#p4f39515e46)" style="fill: none; stroke: #3f3f3f; stroke-width: 1.875; stroke-linecap: round"/>
   </g>
   <g id="line2d_17">
    <path d="M 310.736908 234.063196 
L 310.736908 191.438224 
" clip-path="url(#p4f39515e46)" style="fill: none; stroke: #3f3f3f; stroke-width: 5.625; stroke-linecap: round"/>
   </g>
   <g id="line2d_18">
    <path d="M 310.736908 207.520873 
" clip-path="url(#p4f39515e46)" style="fill: none; stroke: #3f3f3f; stroke-width: 1.5; stroke-linecap: round"/>
    <g clip-path="url(#p4f39515e46)">
     <use xlink:href="#mecb88bd8dc" x="310.736908" y="207.520873" style="fill: #ffffff; stroke: #ffffff; stroke-width: 1.125"/>
    </g>
   </g>
   <g id="patch_5">
    <path d="M 54.182585 318.04 
L 54.182585 10.8 
" style="fill: none; stroke: #cccccc; stroke-width: 0.8; stroke-linejoin: miter; stroke-linecap: square"/>
   </g>
   <g id="patch_6">
    <path d="M 54.182585 318.04 
L 356.0112 318.04 
" style="fill: none; stroke: #cccccc; stroke-width: 0.8; stroke-linejoin: miter; stroke-linecap: square"/>
   </g>
  </g>
  <g id="legend_1">
   <g id="text_11">
    <!-- time -->
    <g style="fill: #262626" transform="translate(365.045625 168.439844) scale(0.1 -0.1)">
     <defs>
      <path id="ArialMT-69" d="M 425 3934 
L 425 4581 
L 988 4581 
L 988 3934 
L 425 3934 
z
M 425 0 
L 425 3319 
L 988 3319 
L 988 0 
L 425 0 
z
" transform="scale(0.015625)"/>
     </defs>
     <use xlink:href="#ArialMT-74"/>
     <use xlink:href="#ArialMT-69" x="27.783203"/>
     <use xlink:href="#ArialMT-6d" x="50"/>
     <use xlink:href="#ArialMT-65" x="133.300781"/>
    </g>
   </g>
   <g id="patch_7">
    <path d="M 359.101875 182.585156 
L 379.101875 182.585156 
L 379.101875 175.585156 
L 359.101875 175.585156 
z
" style="fill: #3274a1; stroke: #3f3f3f; stroke-width: 1.25; stroke-linejoin: miter"/>
   </g>
   <g id="text_12">
    <!-- i -->
    <g style="fill: #262626" transform="translate(387.101875 182.585156) scale(0.1 -0.1)">
     <use xlink:href="#ArialMT-69"/>
    </g>
   </g>
   <g id="patch_8">
    <path d="M 359.101875 196.730469 
L 379.101875 196.730469 
L 379.101875 189.730469 
L 359.101875 189.730469 
z
" style="fill: #e1812c; stroke: #3f3f3f; stroke-width: 1.25; stroke-linejoin: miter"/>
   </g>
   <g id="text_13">
    <!-- f -->
    <g style="fill: #262626" transform="translate(387.101875 196.730469) scale(0.1 -0.1)">
     <use xlink:href="#ArialMT-66"/>
    </g>
   </g>
  </g>
 </g>
 <defs>
  <clipPath id="p4f39515e46">
   <rect x="54.182585" y="10.8" width="301.828615" height="307.24"/>
  </clipPath>
 </defs>
</svg>
