<?xml version="1.0" encoding="utf-8" standalone="no"?>
<!DOCTYPE svg PUBLIC "-//W3C//DTD SVG 1.1//EN"
  "http://www.w3.org/Graphics/SVG/1.1/DTD/svg11.dtd">
<svg xmlns:xlink="http://www.w3.org/1999/xlink" width="398.88pt" height="360pt" viewBox="0 0 398.88 360" xmlns="http://www.w3.org/2000/svg" version="1.1">
 <metadata>
  <rdf:RDF xmlns:dc="http://purl.org/dc/elements/1.1/" xmlns:cc="http://creativecommons.org/ns#" xmlns:rdf="http://www.w3.org/1999/02/22-rdf-syntax-ns#">
   <cc:Work>
    <dc:type rdf:resource="http://purl.org/dc/dcmitype/StillImage"/>
    <dc:date>2024-09-11T03:31:57.667819</dc:date>
    <dc:format>image/svg+xml</dc:format>
    <dc:creator>
     <cc:Agent>
      <dc:title>Matplotlib v3.8.3, https://matplotlib.org/</dc:title>
     </cc:Agent>
    </dc:creator>
   </cc:Work>
  </rdf:RDF>
 </metadata>
 <defs>
  <style type="text/css">*{stroke-linejoin: round; stroke-linecap: butt}</style>
 </defs>
 <g id="figure_1">
  <g id="patch_1">
   <path d="M 0 360 
L 398.88 360 
L 398.88 0 
L 0 0 
z
" style="fill: #ffffff"/>
  </g>
  <g id="axes_1">
   <g id="patch_2">
    <path d="M 54.282305 318.04 
L 356.0112 318.04 
L 356.0112 10.8 
L 54.282305 10.8 
z
" style="fill: #ffffff"/>
   </g>
   <g id="matplotlib.axis_1">
    <g id="xtick_1">
     <g id="text_1">
      <!-- f -->
      <g style="fill: #262626" transform="translate(128.325466 332.197812) scale(0.1 -0.1)">
       <defs>
        <path id="ArialMT-66" d="M 556 0 
L 556 2881 
L 59 2881 
L 59 3319 
L 556 3319 
L 556 3672 
Q 556 4006 616 4169 
Q 697 4388 901 4523 
Q 1106 4659 1475 4659 
Q 1713 4659 2000 4603 
L 1916 4113 
Q 1741 4144 1584 4144 
Q 1328 4144 1222 4034 
Q 1116 3925 1116 3625 
L 1116 3319 
L 1763 3319 
L 1763 2881 
L 1116 2881 
L 1116 0 
L 556 0 
z
" transform="scale(0.015625)"/>
       </defs>
       <use xlink:href="#ArialMT-66"/>
      </g>
     </g>
    </g>
    <g id="xtick_2">
     <g id="text_2">
      <!-- m -->
      <g style="fill: #262626" transform="translate(276.414132 332.197812) scale(0.1 -0.1)">
       <defs>
        <path id="ArialMT-6d" d="M 422 0 
L 422 3319 
L 925 3319 
L 925 2853 
Q 1081 3097 1340 3245 
Q 1600 3394 1931 3394 
Q 2300 3394 2536 3241 
Q 2772 3088 2869 2813 
Q 3263 3394 3894 3394 
Q 4388 3394 4653 3120 
Q 4919 2847 4919 2278 
L 4919 0 
L 4359 0 
L 4359 2091 
Q 4359 2428 4304 2576 
Q 4250 2725 4106 2815 
Q 3963 2906 3769 2906 
Q 3419 2906 3187 2673 
Q 2956 2441 2956 1928 
L 2956 0 
L 2394 0 
L 2394 2156 
Q 2394 2531 2256 2718 
Q 2119 2906 1806 2906 
Q 1569 2906 1367 2781 
Q 1166 2656 1075 2415 
Q 984 2175 984 1722 
L 984 0 
L 422 0 
z
" transform="scale(0.015625)"/>
       </defs>
       <use xlink:href="#ArialMT-6d"/>
      </g>
     </g>
    </g>
    <g id="text_3">
     <!-- sex -->
     <g style="fill: #262626" transform="translate(197.366284 345.343125) scale(0.1 -0.1)">
      <defs>
       <path id="ArialMT-73" d="M 197 991 
L 753 1078 
Q 800 744 1014 566 
Q 1228 388 1613 388 
Q 2000 388 2187 545 
Q 2375 703 2375 916 
Q 2375 1106 2209 1216 
Q 2094 1291 1634 1406 
Q 1016 1563 777 1677 
Q 538 1791 414 1992 
Q 291 2194 291 2438 
Q 291 2659 392 2848 
Q 494 3038 669 3163 
Q 800 3259 1026 3326 
Q 1253 3394 1513 3394 
Q 1903 3394 2198 3281 
Q 2494 3169 2634 2976 
Q 2775 2784 2828 2463 
L 2278 2388 
Q 2241 2644 2061 2787 
Q 1881 2931 1553 2931 
Q 1166 2931 1000 2803 
Q 834 2675 834 2503 
Q 834 2394 903 2306 
Q 972 2216 1119 2156 
Q 1203 2125 1616 2013 
Q 2213 1853 2448 1751 
Q 2684 1650 2818 1456 
Q 2953 1263 2953 975 
Q 2953 694 2789 445 
Q 2625 197 2315 61 
Q 2006 -75 1616 -75 
Q 969 -75 630 194 
Q 291 463 197 991 
z
" transform="scale(0.015625)"/>
       <path id="ArialMT-65" d="M 2694 1069 
L 3275 997 
Q 3138 488 2766 206 
Q 2394 -75 1816 -75 
Q 1088 -75 661 373 
Q 234 822 234 1631 
Q 234 2469 665 2931 
Q 1097 3394 1784 3394 
Q 2450 3394 2872 2941 
Q 3294 2488 3294 1666 
Q 3294 1616 3291 1516 
L 816 1516 
Q 847 969 1125 678 
Q 1403 388 1819 388 
Q 2128 388 2347 550 
Q 2566 713 2694 1069 
z
M 847 1978 
L 2700 1978 
Q 2663 2397 2488 2606 
Q 2219 2931 1791 2931 
Q 1403 2931 1139 2672 
Q 875 2413 847 1978 
z
" transform="scale(0.015625)"/>
       <path id="ArialMT-78" d="M 47 0 
L 1259 1725 
L 138 3319 
L 841 3319 
L 1350 2541 
Q 1494 2319 1581 2169 
Q 1719 2375 1834 2534 
L 2394 3319 
L 3066 3319 
L 1919 1756 
L 3153 0 
L 2463 0 
L 1781 1031 
L 1600 1309 
L 728 0 
L 47 0 
z
" transform="scale(0.015625)"/>
      </defs>
      <use xlink:href="#ArialMT-73"/>
      <use xlink:href="#ArialMT-65" x="50"/>
      <use xlink:href="#ArialMT-78" x="105.615234"/>
     </g>
    </g>
   </g>
   <g id="matplotlib.axis_2">
    <g id="ytick_1">
     <g id="line2d_1">
      <path d="M 54.282305 287.004036 
L 356.0112 287.004036 
" clip-path="url(#pc7e9f6b649)" style="fill: none; stroke: #cccccc; stroke-width: 0.8; stroke-linecap: round"/>
     </g>
     <g id="text_4">
      <!-- −20 -->
      <g style="fill: #262626" transform="translate(30.319805 290.582942) scale(0.1 -0.1)">
       <defs>
        <path id="ArialMT-2212" d="M 3381 1997 
L 356 1997 
L 356 2522 
L 3381 2522 
L 3381 1997 
z
" transform="scale(0.015625)"/>
        <path id="ArialMT-32" d="M 3222 541 
L 3222 0 
L 194 0 
Q 188 203 259 391 
Q 375 700 629 1000 
Q 884 1300 1366 1694 
Q 2113 2306 2375 2664 
Q 2638 3022 2638 3341 
Q 2638 3675 2398 3904 
Q 2159 4134 1775 4134 
Q 1369 4134 1125 3890 
Q 881 3647 878 3216 
L 300 3275 
Q 359 3922 746 4261 
Q 1134 4600 1788 4600 
Q 2447 4600 2831 4234 
Q 3216 3869 3216 3328 
Q 3216 3053 3103 2787 
Q 2991 2522 2730 2228 
Q 2469 1934 1863 1422 
Q 1356 997 1212 845 
Q 1069 694 975 541 
L 3222 541 
z
" transform="scale(0.015625)"/>
        <path id="ArialMT-30" d="M 266 2259 
Q 266 3072 433 3567 
Q 600 4063 929 4331 
Q 1259 4600 1759 4600 
Q 2128 4600 2406 4451 
Q 2684 4303 2865 4023 
Q 3047 3744 3150 3342 
Q 3253 2941 3253 2259 
Q 3253 1453 3087 958 
Q 2922 463 2592 192 
Q 2263 -78 1759 -78 
Q 1097 -78 719 397 
Q 266 969 266 2259 
z
M 844 2259 
Q 844 1131 1108 757 
Q 1372 384 1759 384 
Q 2147 384 2411 759 
Q 2675 1134 2675 2259 
Q 2675 3391 2411 3762 
Q 2147 4134 1753 4134 
Q 1366 4134 1134 3806 
Q 844 3388 844 2259 
z
" transform="scale(0.015625)"/>
       </defs>
       <use xlink:href="#ArialMT-2212"/>
       <use xlink:href="#ArialMT-32" x="58.398438"/>
       <use xlink:href="#ArialMT-30" x="114.013672"/>
      </g>
     </g>
    </g>
    <g id="ytick_2">
     <g id="line2d_2">
      <path d="M 54.282305 240.70364 
L 356.0112 240.70364 
" clip-path="url(#pc7e9f6b649)" style="fill: none; stroke: #cccccc; stroke-width: 0.8; stroke-linecap: round"/>
     </g>
     <g id="text_5">
      <!-- 0 -->
      <g style="fill: #262626" transform="translate(41.721367 244.282547) scale(0.1 -0.1)">
       <use xlink:href="#ArialMT-30"/>
      </g>
     </g>
    </g>
    <g id="ytick_3">
     <g id="line2d_3">
      <path d="M 54.282305 194.403244 
L 356.0112 194.403244 
" clip-path="url(#pc7e9f6b649)" style="fill: none; stroke: #cccccc; stroke-width: 0.8; stroke-linecap: round"/>
     </g>
     <g id="text_6">
      <!-- 20 -->
      <g style="fill: #262626" transform="translate(36.16043 197.982151) scale(0.1 -0.1)">
       <use xlink:href="#ArialMT-32"/>
       <use xlink:href="#ArialMT-30" x="55.615234"/>
      </g>
     </g>
    </g>
    <g id="ytick_4">
     <g id="line2d_4">
      <path d="M 54.282305 148.102849 
L 356.0112 148.102849 
" clip-path="url(#pc7e9f6b649)" style="fill: none; stroke: #cccccc; stroke-width: 0.8; stroke-linecap: round"/>
     </g>
     <g id="text_7">
      <!-- 40 -->
      <g style="fill: #262626" transform="translate(36.16043 151.681755) scale(0.1 -0.1)">
       <defs>
        <path id="ArialMT-34" d="M 2069 0 
L 2069 1097 
L 81 1097 
L 81 1613 
L 2172 4581 
L 2631 4581 
L 2631 1613 
L 3250 1613 
L 3250 1097 
L 2631 1097 
L 2631 0 
L 2069 0 
z
M 2069 1613 
L 2069 3678 
L 634 1613 
L 2069 1613 
z
" transform="scale(0.015625)"/>
       </defs>
       <use xlink:href="#ArialMT-34"/>
       <use xlink:href="#ArialMT-30" x="55.615234"/>
      </g>
     </g>
    </g>
    <g id="ytick_5">
     <g id="line2d_5">
      <path d="M 54.282305 101.802453 
L 356.0112 101.802453 
" clip-path="url(#pc7e9f6b649)" style="fill: none; stroke: #cccccc; stroke-width: 0.8; stroke-linecap: round"/>
     </g>
     <g id="text_8">
      <!-- 60 -->
      <g style="fill: #262626" transform="translate(36.16043 105.381359) scale(0.1 -0.1)">
       <defs>
        <path id="ArialMT-36" d="M 3184 3459 
L 2625 3416 
Q 2550 3747 2413 3897 
Q 2184 4138 1850 4138 
Q 1581 4138 1378 3988 
Q 1113 3794 959 3422 
Q 806 3050 800 2363 
Q 1003 2672 1297 2822 
Q 1591 2972 1913 2972 
Q 2475 2972 2870 2558 
Q 3266 2144 3266 1488 
Q 3266 1056 3080 686 
Q 2894 316 2569 119 
Q 2244 -78 1831 -78 
Q 1128 -78 684 439 
Q 241 956 241 2144 
Q 241 3472 731 4075 
Q 1159 4600 1884 4600 
Q 2425 4600 2770 4297 
Q 3116 3994 3184 3459 
z
M 888 1484 
Q 888 1194 1011 928 
Q 1134 663 1356 523 
Q 1578 384 1822 384 
Q 2178 384 2434 671 
Q 2691 959 2691 1453 
Q 2691 1928 2437 2201 
Q 2184 2475 1800 2475 
Q 1419 2475 1153 2201 
Q 888 1928 888 1484 
z
" transform="scale(0.015625)"/>
       </defs>
       <use xlink:href="#ArialMT-36"/>
       <use xlink:href="#ArialMT-30" x="55.615234"/>
      </g>
     </g>
    </g>
    <g id="ytick_6">
     <g id="line2d_6">
      <path d="M 54.282305 55.502057 
L 356.0112 55.502057 
" clip-path="url(#pc7e9f6b649)" style="fill: none; stroke: #cccccc; stroke-width: 0.8; stroke-linecap: round"/>
     </g>
     <g id="text_9">
      <!-- 80 -->
      <g style="fill: #262626" transform="translate(36.16043 59.080963) scale(0.1 -0.1)">
       <defs>
        <path id="ArialMT-38" d="M 1131 2484 
Q 781 2613 612 2850 
Q 444 3088 444 3419 
Q 444 3919 803 4259 
Q 1163 4600 1759 4600 
Q 2359 4600 2725 4251 
Q 3091 3903 3091 3403 
Q 3091 3084 2923 2848 
Q 2756 2613 2416 2484 
Q 2838 2347 3058 2040 
Q 3278 1734 3278 1309 
Q 3278 722 2862 322 
Q 2447 -78 1769 -78 
Q 1091 -78 675 323 
Q 259 725 259 1325 
Q 259 1772 486 2073 
Q 713 2375 1131 2484 
z
M 1019 3438 
Q 1019 3113 1228 2906 
Q 1438 2700 1772 2700 
Q 2097 2700 2305 2904 
Q 2513 3109 2513 3406 
Q 2513 3716 2298 3927 
Q 2084 4138 1766 4138 
Q 1444 4138 1231 3931 
Q 1019 3725 1019 3438 
z
M 838 1322 
Q 838 1081 952 856 
Q 1066 631 1291 507 
Q 1516 384 1775 384 
Q 2178 384 2440 643 
Q 2703 903 2703 1303 
Q 2703 1709 2433 1975 
Q 2163 2241 1756 2241 
Q 1359 2241 1098 1978 
Q 838 1716 838 1322 
z
" transform="scale(0.015625)"/>
       </defs>
       <use xlink:href="#ArialMT-38"/>
       <use xlink:href="#ArialMT-30" x="55.615234"/>
      </g>
     </g>
    </g>
    <g id="text_10">
     <!-- Fat energy % -->
     <g style="fill: #262626" transform="translate(24.215117 194.154375) rotate(-90) scale(0.1 -0.1)">
      <defs>
       <path id="ArialMT-46" d="M 525 0 
L 525 4581 
L 3616 4581 
L 3616 4041 
L 1131 4041 
L 1131 2622 
L 3281 2622 
L 3281 2081 
L 1131 2081 
L 1131 0 
L 525 0 
z
" transform="scale(0.015625)"/>
       <path id="ArialMT-61" d="M 2588 409 
Q 2275 144 1986 34 
Q 1697 -75 1366 -75 
Q 819 -75 525 192 
Q 231 459 231 875 
Q 231 1119 342 1320 
Q 453 1522 633 1644 
Q 813 1766 1038 1828 
Q 1203 1872 1538 1913 
Q 2219 1994 2541 2106 
Q 2544 2222 2544 2253 
Q 2544 2597 2384 2738 
Q 2169 2928 1744 2928 
Q 1347 2928 1158 2789 
Q 969 2650 878 2297 
L 328 2372 
Q 403 2725 575 2942 
Q 747 3159 1072 3276 
Q 1397 3394 1825 3394 
Q 2250 3394 2515 3294 
Q 2781 3194 2906 3042 
Q 3031 2891 3081 2659 
Q 3109 2516 3109 2141 
L 3109 1391 
Q 3109 606 3145 398 
Q 3181 191 3288 0 
L 2700 0 
Q 2613 175 2588 409 
z
M 2541 1666 
Q 2234 1541 1622 1453 
Q 1275 1403 1131 1340 
Q 988 1278 909 1158 
Q 831 1038 831 891 
Q 831 666 1001 516 
Q 1172 366 1500 366 
Q 1825 366 2078 508 
Q 2331 650 2450 897 
Q 2541 1088 2541 1459 
L 2541 1666 
z
" transform="scale(0.015625)"/>
       <path id="ArialMT-74" d="M 1650 503 
L 1731 6 
Q 1494 -44 1306 -44 
Q 1000 -44 831 53 
Q 663 150 594 308 
Q 525 466 525 972 
L 525 2881 
L 113 2881 
L 113 3319 
L 525 3319 
L 525 4141 
L 1084 4478 
L 1084 3319 
L 1650 3319 
L 1650 2881 
L 1084 2881 
L 1084 941 
Q 1084 700 1114 631 
Q 1144 563 1211 522 
Q 1278 481 1403 481 
Q 1497 481 1650 503 
z
" transform="scale(0.015625)"/>
       <path id="ArialMT-20" transform="scale(0.015625)"/>
       <path id="ArialMT-6e" d="M 422 0 
L 422 3319 
L 928 3319 
L 928 2847 
Q 1294 3394 1984 3394 
Q 2284 3394 2536 3286 
Q 2788 3178 2913 3003 
Q 3038 2828 3088 2588 
Q 3119 2431 3119 2041 
L 3119 0 
L 2556 0 
L 2556 2019 
Q 2556 2363 2490 2533 
Q 2425 2703 2258 2804 
Q 2091 2906 1866 2906 
Q 1506 2906 1245 2678 
Q 984 2450 984 1813 
L 984 0 
L 422 0 
z
" transform="scale(0.015625)"/>
       <path id="ArialMT-72" d="M 416 0 
L 416 3319 
L 922 3319 
L 922 2816 
Q 1116 3169 1280 3281 
Q 1444 3394 1641 3394 
Q 1925 3394 2219 3213 
L 2025 2691 
Q 1819 2813 1613 2813 
Q 1428 2813 1281 2702 
Q 1134 2591 1072 2394 
Q 978 2094 978 1738 
L 978 0 
L 416 0 
z
" transform="scale(0.015625)"/>
       <path id="ArialMT-67" d="M 319 -275 
L 866 -356 
Q 900 -609 1056 -725 
Q 1266 -881 1628 -881 
Q 2019 -881 2231 -725 
Q 2444 -569 2519 -288 
Q 2563 -116 2559 434 
Q 2191 0 1641 0 
Q 956 0 581 494 
Q 206 988 206 1678 
Q 206 2153 378 2554 
Q 550 2956 876 3175 
Q 1203 3394 1644 3394 
Q 2231 3394 2613 2919 
L 2613 3319 
L 3131 3319 
L 3131 450 
Q 3131 -325 2973 -648 
Q 2816 -972 2473 -1159 
Q 2131 -1347 1631 -1347 
Q 1038 -1347 672 -1080 
Q 306 -813 319 -275 
z
M 784 1719 
Q 784 1066 1043 766 
Q 1303 466 1694 466 
Q 2081 466 2343 764 
Q 2606 1063 2606 1700 
Q 2606 2309 2336 2618 
Q 2066 2928 1684 2928 
Q 1309 2928 1046 2623 
Q 784 2319 784 1719 
z
" transform="scale(0.015625)"/>
       <path id="ArialMT-79" d="M 397 -1278 
L 334 -750 
Q 519 -800 656 -800 
Q 844 -800 956 -737 
Q 1069 -675 1141 -563 
Q 1194 -478 1313 -144 
Q 1328 -97 1363 -6 
L 103 3319 
L 709 3319 
L 1400 1397 
Q 1534 1031 1641 628 
Q 1738 1016 1872 1384 
L 2581 3319 
L 3144 3319 
L 1881 -56 
Q 1678 -603 1566 -809 
Q 1416 -1088 1222 -1217 
Q 1028 -1347 759 -1347 
Q 597 -1347 397 -1278 
z
" transform="scale(0.015625)"/>
       <path id="ArialMT-25" d="M 372 3481 
Q 372 3972 619 4315 
Q 866 4659 1334 4659 
Q 1766 4659 2048 4351 
Q 2331 4044 2331 3447 
Q 2331 2866 2045 2552 
Q 1759 2238 1341 2238 
Q 925 2238 648 2547 
Q 372 2856 372 3481 
z
M 1350 4272 
Q 1141 4272 1002 4090 
Q 863 3909 863 3425 
Q 863 2984 1003 2804 
Q 1144 2625 1350 2625 
Q 1563 2625 1702 2806 
Q 1841 2988 1841 3469 
Q 1841 3913 1700 4092 
Q 1559 4272 1350 4272 
z
M 1353 -169 
L 3859 4659 
L 4316 4659 
L 1819 -169 
L 1353 -169 
z
M 3334 1075 
Q 3334 1569 3581 1911 
Q 3828 2253 4300 2253 
Q 4731 2253 5014 1945 
Q 5297 1638 5297 1041 
Q 5297 459 5011 145 
Q 4725 -169 4303 -169 
Q 3888 -169 3611 142 
Q 3334 453 3334 1075 
z
M 4316 1866 
Q 4103 1866 3964 1684 
Q 3825 1503 3825 1019 
Q 3825 581 3965 400 
Q 4106 219 4313 219 
Q 4528 219 4667 400 
Q 4806 581 4806 1063 
Q 4806 1506 4665 1686 
Q 4525 1866 4316 1866 
z
" transform="scale(0.015625)"/>
      </defs>
      <use xlink:href="#ArialMT-46"/>
      <use xlink:href="#ArialMT-61" x="61.083984"/>
      <use xlink:href="#ArialMT-74" x="116.699219"/>
      <use xlink:href="#ArialMT-20" x="144.482422"/>
      <use xlink:href="#ArialMT-65" x="172.265625"/>
      <use xlink:href="#ArialMT-6e" x="227.880859"/>
      <use xlink:href="#ArialMT-65" x="283.496094"/>
      <use xlink:href="#ArialMT-72" x="339.111328"/>
      <use xlink:href="#ArialMT-67" x="372.412109"/>
      <use xlink:href="#ArialMT-79" x="428.027344"/>
      <use xlink:href="#ArialMT-20" x="478.027344"/>
      <use xlink:href="#ArialMT-25" x="505.810547"/>
     </g>
    </g>
   </g>
   <g id="PolyCollection_1">
    <defs>
     <path id="m63983f1364" d="M 102.958129 -95.837681 
L 96.12515 -95.837681 
L 95.31139 -97.101628 
L 94.362685 -98.365575 
L 93.272311 -99.629521 
L 92.037231 -100.893468 
L 90.658961 -102.157415 
L 89.144349 -103.421362 
L 87.506146 -104.685309 
L 85.763338 -105.949255 
L 83.941152 -107.213202 
L 82.070696 -108.477149 
L 80.188218 -109.741096 
L 78.333991 -111.005042 
L 76.550854 -112.268989 
L 74.882501 -113.532936 
L 73.371597 -114.796883 
L 72.057855 -116.060829 
L 70.976186 -117.324776 
L 70.155068 -118.588723 
L 69.615229 -119.85267 
L 69.36875 -121.116616 
L 69.418632 -122.380563 
L 69.758856 -123.64451 
L 70.374914 -124.908457 
L 71.244758 -126.172404 
L 72.340088 -127.43635 
L 73.627871 -128.700297 
L 75.071977 -129.964244 
L 76.634829 -131.228191 
L 78.278953 -132.492137 
L 79.968354 -133.756084 
L 81.669656 -135.020031 
L 83.352965 -136.283978 
L 84.992455 -137.547924 
L 86.56668 -138.811871 
L 88.058647 -140.075818 
L 89.455681 -141.339765 
L 90.749139 -142.603712 
L 91.934013 -143.867658 
L 93.008463 -145.131605 
L 93.973326 -146.395552 
L 94.831622 -147.659499 
L 95.588079 -148.923445 
L 96.248705 -150.187392 
L 96.820393 -151.451339 
L 97.310581 -152.715286 
L 97.72696 -153.979232 
L 98.077227 -155.243179 
L 98.368883 -156.507126 
L 98.609067 -157.771073 
L 98.804429 -159.03502 
L 98.961035 -160.298966 
L 99.084299 -161.562913 
L 99.178944 -162.82686 
L 99.248986 -164.090807 
L 99.297742 -165.354753 
L 99.32785 -166.6187 
L 99.341316 -167.882647 
L 99.339574 -169.146594 
L 99.323558 -170.41054 
L 99.293794 -171.674487 
L 99.250496 -172.938434 
L 99.193682 -174.202381 
L 99.123287 -175.466328 
L 99.039287 -176.730274 
L 98.941825 -177.994221 
L 98.831318 -179.258168 
L 98.708568 -180.522115 
L 98.574842 -181.786061 
L 98.431928 -183.050008 
L 98.282162 -184.313955 
L 98.128414 -185.577902 
L 97.974036 -186.841848 
L 97.822763 -188.105795 
L 97.678588 -189.369742 
L 97.545594 -190.633689 
L 97.427772 -191.897635 
L 97.328827 -193.161582 
L 97.251985 -194.425529 
L 97.199821 -195.689476 
L 97.174119 -196.953423 
L 97.175766 -198.217369 
L 97.204706 -199.481316 
L 97.259941 -200.745263 
L 97.33959 -202.00921 
L 97.440994 -203.273156 
L 97.560863 -204.537103 
L 97.695454 -205.80105 
L 97.840766 -207.064997 
L 97.992732 -208.328943 
L 98.147405 -209.59289 
L 98.301121 -210.856837 
L 98.450632 -212.120784 
L 98.593201 -213.384731 
L 98.726659 -214.648677 
L 98.849422 -215.912624 
L 98.960481 -217.176571 
L 99.059355 -218.440518 
L 99.146027 -219.704464 
L 99.22087 -220.968411 
L 99.862408 -220.968411 
L 99.862408 -220.968411 
L 99.937251 -219.704464 
L 100.023924 -218.440518 
L 100.122798 -217.176571 
L 100.233856 -215.912624 
L 100.35662 -214.648677 
L 100.490077 -213.384731 
L 100.632647 -212.120784 
L 100.782158 -210.856837 
L 100.935874 -209.59289 
L 101.090546 -208.328943 
L 101.242512 -207.064997 
L 101.387824 -205.80105 
L 101.522416 -204.537103 
L 101.642285 -203.273156 
L 101.743688 -202.00921 
L 101.823337 -200.745263 
L 101.878572 -199.481316 
L 101.907512 -198.217369 
L 101.909159 -196.953423 
L 101.883457 -195.689476 
L 101.831294 -194.425529 
L 101.754452 -193.161582 
L 101.655507 -191.897635 
L 101.537685 -190.633689 
L 101.404691 -189.369742 
L 101.260516 -188.105795 
L 101.109243 -186.841848 
L 100.954864 -185.577902 
L 100.801117 -184.313955 
L 100.651351 -183.050008 
L 100.508437 -181.786061 
L 100.37471 -180.522115 
L 100.25196 -179.258168 
L 100.141454 -177.994221 
L 100.043991 -176.730274 
L 99.959992 -175.466328 
L 99.889596 -174.202381 
L 99.832782 -172.938434 
L 99.789485 -171.674487 
L 99.75972 -170.41054 
L 99.743705 -169.146594 
L 99.741962 -167.882647 
L 99.755429 -166.6187 
L 99.785536 -165.354753 
L 99.834292 -164.090807 
L 99.904335 -162.82686 
L 99.99898 -161.562913 
L 100.122243 -160.298966 
L 100.278849 -159.03502 
L 100.474211 -157.771073 
L 100.714395 -156.507126 
L 101.006052 -155.243179 
L 101.356319 -153.979232 
L 101.772698 -152.715286 
L 102.262885 -151.451339 
L 102.834573 -150.187392 
L 103.495199 -148.923445 
L 104.251657 -147.659499 
L 105.109952 -146.395552 
L 106.074816 -145.131605 
L 107.149266 -143.867658 
L 108.33414 -142.603712 
L 109.627598 -141.339765 
L 111.024631 -140.075818 
L 112.516598 -138.811871 
L 114.090824 -137.547924 
L 115.730314 -136.283978 
L 117.413623 -135.020031 
L 119.114924 -133.756084 
L 120.804325 -132.492137 
L 122.448449 -131.228191 
L 124.011301 -129.964244 
L 125.455407 -128.700297 
L 126.74319 -127.43635 
L 127.83852 -126.172404 
L 128.708364 -124.908457 
L 129.324422 -123.64451 
L 129.664646 -122.380563 
L 129.714529 -121.116616 
L 129.46805 -119.85267 
L 128.928211 -118.588723 
L 128.107092 -117.324776 
L 127.025423 -116.060829 
L 125.711681 -114.796883 
L 124.200778 -113.532936 
L 122.532425 -112.268989 
L 120.749288 -111.005042 
L 118.89506 -109.741096 
L 117.012583 -108.477149 
L 115.142127 -107.213202 
L 113.31994 -105.949255 
L 111.577133 -104.685309 
L 109.93893 -103.421362 
L 108.424317 -102.157415 
L 107.046048 -100.893468 
L 105.810967 -99.629521 
L 104.720594 -98.365575 
L 103.771889 -97.101628 
L 102.958129 -95.837681 
z
" style="stroke: #3f3f3f; stroke-width: 1.25"/>
    </defs>
    <g clip-path="url(#pc7e9f6b649)">
     <use xlink:href="#m63983f1364" x="0" y="360" style="fill: #3274a1; stroke: #3f3f3f; stroke-width: 1.25"/>
    </g>
   </g>
   <g id="PolyCollection_2">
    <defs>
     <path id="mb6e38cf235" d="M 161.689021 -55.925455 
L 158.085815 -55.925455 
L 157.730564 -58.746758 
L 157.324965 -61.568062 
L 156.866273 -64.389366 
L 156.352534 -67.21067 
L 155.782779 -70.031974 
L 155.157217 -72.853278 
L 154.477403 -75.674582 
L 153.746381 -78.495886 
L 152.968785 -81.31719 
L 152.15089 -84.138494 
L 151.300607 -86.959798 
L 150.427409 -89.781102 
L 149.54219 -92.602406 
L 148.657055 -95.42371 
L 147.785046 -98.245014 
L 146.939809 -101.066318 
L 146.135216 -103.887622 
L 145.384955 -106.708926 
L 144.702103 -109.53023 
L 144.098708 -112.351534 
L 143.585382 -115.172837 
L 143.170948 -117.994141 
L 142.862133 -120.815445 
L 142.663339 -123.636749 
L 142.57649 -126.458053 
L 142.600968 -129.279357 
L 142.733635 -132.100661 
L 142.968951 -134.921965 
L 143.299157 -137.743269 
L 143.714536 -140.564573 
L 144.203732 -143.385877 
L 144.754105 -146.207181 
L 145.352115 -149.028485 
L 145.983723 -151.849789 
L 146.634777 -154.671093 
L 147.291394 -157.492397 
L 147.940308 -160.313701 
L 148.569185 -163.135005 
L 149.166893 -165.956309 
L 149.723733 -168.777612 
L 150.231612 -171.598916 
L 150.68417 -174.42022 
L 151.076862 -177.241524 
L 151.406982 -180.062828 
L 151.673651 -182.884132 
L 151.877752 -185.705436 
L 152.021827 -188.52674 
L 152.109941 -191.348044 
L 152.147499 -194.169348 
L 152.141044 -196.990652 
L 152.098026 -199.811956 
L 152.026549 -202.63326 
L 151.935114 -205.454564 
L 151.832347 -208.275868 
L 151.726741 -211.097172 
L 151.626406 -213.918476 
L 151.538843 -216.73978 
L 151.470742 -219.561084 
L 151.427821 -222.382388 
L 151.414709 -225.203691 
L 151.434864 -228.024995 
L 151.49055 -230.846299 
L 151.582848 -233.667603 
L 151.711719 -236.488907 
L 151.876095 -239.310211 
L 152.07401 -242.131515 
L 152.302746 -244.952819 
L 152.558997 -247.774123 
L 152.839034 -250.595427 
L 153.138873 -253.416731 
L 153.454424 -256.238035 
L 153.781631 -259.059339 
L 154.116588 -261.880643 
L 154.455624 -264.701947 
L 154.795378 -267.523251 
L 155.132837 -270.344555 
L 155.465358 -273.165859 
L 155.790667 -275.987163 
L 156.106854 -278.808466 
L 156.412338 -281.62977 
L 156.705845 -284.451074 
L 156.986374 -287.272378 
L 157.253155 -290.093682 
L 157.505628 -292.914986 
L 157.743408 -295.73629 
L 157.966266 -298.557594 
L 158.174108 -301.378898 
L 158.366966 -304.200202 
L 158.544982 -307.021506 
L 158.708404 -309.84281 
L 158.857579 -312.664114 
L 158.992948 -315.485418 
L 159.115035 -318.306722 
L 159.224444 -321.128026 
L 159.321848 -323.94933 
L 159.407975 -326.770634 
L 159.4836 -329.591938 
L 159.54953 -332.413242 
L 159.606586 -335.234545 
L 160.16825 -335.234545 
L 160.16825 -335.234545 
L 160.225307 -332.413242 
L 160.291236 -329.591938 
L 160.366862 -326.770634 
L 160.452989 -323.94933 
L 160.550392 -321.128026 
L 160.659801 -318.306722 
L 160.781889 -315.485418 
L 160.917257 -312.664114 
L 161.066433 -309.84281 
L 161.229855 -307.021506 
L 161.407871 -304.200202 
L 161.600728 -301.378898 
L 161.808571 -298.557594 
L 162.031428 -295.73629 
L 162.269208 -292.914986 
L 162.521681 -290.093682 
L 162.788463 -287.272378 
L 163.068991 -284.451074 
L 163.362499 -281.62977 
L 163.667983 -278.808466 
L 163.984169 -275.987163 
L 164.309479 -273.165859 
L 164.641999 -270.344555 
L 164.979458 -267.523251 
L 165.319212 -264.701947 
L 165.658249 -261.880643 
L 165.993205 -259.059339 
L 166.320413 -256.238035 
L 166.635964 -253.416731 
L 166.935803 -250.595427 
L 167.21584 -247.774123 
L 167.47209 -244.952819 
L 167.700827 -242.131515 
L 167.898742 -239.310211 
L 168.063118 -236.488907 
L 168.191988 -233.667603 
L 168.284287 -230.846299 
L 168.339972 -228.024995 
L 168.360128 -225.203691 
L 168.347015 -222.382388 
L 168.304095 -219.561084 
L 168.235993 -216.73978 
L 168.14843 -213.918476 
L 168.048096 -211.097172 
L 167.94249 -208.275868 
L 167.839723 -205.454564 
L 167.748287 -202.63326 
L 167.676811 -199.811956 
L 167.633792 -196.990652 
L 167.627338 -194.169348 
L 167.664896 -191.348044 
L 167.753009 -188.52674 
L 167.897085 -185.705436 
L 168.101185 -182.884132 
L 168.367854 -180.062828 
L 168.697974 -177.241524 
L 169.090666 -174.42022 
L 169.543225 -171.598916 
L 170.051103 -168.777612 
L 170.607943 -165.956309 
L 171.205652 -163.135005 
L 171.834528 -160.313701 
L 172.483442 -157.492397 
L 173.140059 -154.671093 
L 173.791113 -151.849789 
L 174.422721 -149.028485 
L 175.020732 -146.207181 
L 175.571104 -143.385877 
L 176.0603 -140.564573 
L 176.475679 -137.743269 
L 176.805885 -134.921965 
L 177.041201 -132.100661 
L 177.173869 -129.279357 
L 177.198346 -126.458053 
L 177.111497 -123.636749 
L 176.912703 -120.815445 
L 176.603889 -117.994141 
L 176.189455 -115.172837 
L 175.676129 -112.351534 
L 175.072733 -109.53023 
L 174.389882 -106.708926 
L 173.639621 -103.887622 
L 172.835028 -101.066318 
L 171.989791 -98.245014 
L 171.117782 -95.42371 
L 170.232647 -92.602406 
L 169.347428 -89.781102 
L 168.47423 -86.959798 
L 167.623947 -84.138494 
L 166.806052 -81.31719 
L 166.028455 -78.495886 
L 165.297433 -75.674582 
L 164.617619 -72.853278 
L 163.992057 -70.031974 
L 163.422303 -67.21067 
L 162.908563 -64.389366 
L 162.449872 -61.568062 
L 162.044273 -58.746758 
L 161.689021 -55.925455 
z
" style="stroke: #3f3f3f; stroke-width: 1.25"/>
    </defs>
    <g clip-path="url(#pc7e9f6b649)">
     <use xlink:href="#mb6e38cf235" x="0" y="360" style="fill: #e1812c; stroke: #3f3f3f; stroke-width: 1.25"/>
    </g>
   </g>
   <g id="PolyCollection_3">
    <defs>
     <path id="m9445ad7c73" d="M 251.78418 -78.622881 
L 249.027994 -78.622881 
L 248.71236 -80.709767 
L 248.345501 -82.796653 
L 247.924477 -84.883539 
L 247.447491 -86.970425 
L 246.91418 -89.057312 
L 246.325885 -91.144198 
L 245.685871 -93.231084 
L 244.999484 -95.31797 
L 244.274214 -97.404856 
L 243.519652 -99.491742 
L 242.747332 -101.578628 
L 241.970456 -103.665514 
L 241.203496 -105.7524 
L 240.461698 -107.839286 
L 239.760513 -109.926172 
L 239.114972 -112.013058 
L 238.539055 -114.099944 
L 238.045088 -116.18683 
L 237.6432 -118.273716 
L 237.340891 -120.360602 
L 237.142721 -122.447488 
L 237.050155 -124.534374 
L 237.061571 -126.62126 
L 237.172412 -128.708146 
L 237.3755 -130.795032 
L 237.661454 -132.881918 
L 238.01921 -134.968805 
L 238.436587 -137.055691 
L 238.900874 -139.142577 
L 239.399386 -141.229463 
L 239.91998 -143.316349 
L 240.451474 -145.403235 
L 240.98398 -147.490121 
L 241.509113 -149.577007 
L 242.020103 -151.663893 
L 242.511786 -153.750779 
L 242.98052 -155.837665 
L 243.424014 -157.924551 
L 243.841117 -160.011437 
L 244.23157 -162.098323 
L 244.595757 -164.185209 
L 244.934468 -166.272095 
L 245.248694 -168.358981 
L 245.539458 -170.445867 
L 245.807702 -172.532753 
L 246.054214 -174.619639 
L 246.279614 -176.706525 
L 246.484369 -178.793411 
L 246.668849 -180.880297 
L 246.833397 -182.967184 
L 246.978409 -185.05407 
L 247.104418 -187.140956 
L 247.212157 -189.227842 
L 247.302606 -191.314728 
L 247.37702 -193.401614 
L 247.436927 -195.4885 
L 247.4841 -197.575386 
L 247.520511 -199.662272 
L 247.54827 -201.749158 
L 247.569551 -203.836044 
L 247.586518 -205.92293 
L 247.601255 -208.009816 
L 247.615702 -210.096702 
L 247.631607 -212.183588 
L 247.650495 -214.270474 
L 247.673645 -216.35736 
L 247.702094 -218.444246 
L 247.736639 -220.531132 
L 247.77786 -222.618018 
L 247.82614 -224.704904 
L 247.881691 -226.79179 
L 247.944577 -228.878677 
L 248.014728 -230.965563 
L 248.091961 -233.052449 
L 248.175981 -235.139335 
L 248.266388 -237.226221 
L 248.362677 -239.313107 
L 248.464234 -241.399993 
L 248.570339 -243.486879 
L 248.680167 -245.573765 
L 248.792799 -247.660651 
L 248.907232 -249.747537 
L 249.022399 -251.834423 
L 249.137197 -253.921309 
L 249.250514 -256.008195 
L 249.361261 -258.095081 
L 249.46841 -260.181967 
L 249.571019 -262.268853 
L 249.668264 -264.355739 
L 249.759462 -266.442625 
L 249.844084 -268.529511 
L 249.921768 -270.616397 
L 249.992318 -272.703283 
L 250.055698 -274.79017 
L 250.112019 -276.877056 
L 250.161523 -278.963942 
L 250.20456 -281.050828 
L 250.241565 -283.137714 
L 250.273036 -285.2246 
L 250.539137 -285.2246 
L 250.539137 -285.2246 
L 250.570608 -283.137714 
L 250.607614 -281.050828 
L 250.650651 -278.963942 
L 250.700154 -276.877056 
L 250.756475 -274.79017 
L 250.819855 -272.703283 
L 250.890405 -270.616397 
L 250.96809 -268.529511 
L 251.052712 -266.442625 
L 251.143909 -264.355739 
L 251.241154 -262.268853 
L 251.343763 -260.181967 
L 251.450912 -258.095081 
L 251.56166 -256.008195 
L 251.674977 -253.921309 
L 251.789774 -251.834423 
L 251.904941 -249.747537 
L 252.019374 -247.660651 
L 252.132006 -245.573765 
L 252.241835 -243.486879 
L 252.34794 -241.399993 
L 252.449497 -239.313107 
L 252.545785 -237.226221 
L 252.636192 -235.139335 
L 252.720212 -233.052449 
L 252.797445 -230.965563 
L 252.867597 -228.878677 
L 252.930482 -226.79179 
L 252.986034 -224.704904 
L 253.034314 -222.618018 
L 253.075535 -220.531132 
L 253.11008 -218.444246 
L 253.138528 -216.35736 
L 253.161679 -214.270474 
L 253.180566 -212.183588 
L 253.196471 -210.096702 
L 253.210918 -208.009816 
L 253.225655 -205.92293 
L 253.242622 -203.836044 
L 253.263904 -201.749158 
L 253.291663 -199.662272 
L 253.328074 -197.575386 
L 253.375246 -195.4885 
L 253.435153 -193.401614 
L 253.509568 -191.314728 
L 253.600017 -189.227842 
L 253.707755 -187.140956 
L 253.833764 -185.05407 
L 253.978777 -182.967184 
L 254.143324 -180.880297 
L 254.327804 -178.793411 
L 254.532559 -176.706525 
L 254.757959 -174.619639 
L 255.004472 -172.532753 
L 255.272715 -170.445867 
L 255.563479 -168.358981 
L 255.877705 -166.272095 
L 256.216417 -164.185209 
L 256.580603 -162.098323 
L 256.971056 -160.011437 
L 257.388159 -157.924551 
L 257.831654 -155.837665 
L 258.300388 -153.750779 
L 258.792071 -151.663893 
L 259.30306 -149.577007 
L 259.828194 -147.490121 
L 260.360699 -145.403235 
L 260.892194 -143.316349 
L 261.412787 -141.229463 
L 261.9113 -139.142577 
L 262.375586 -137.055691 
L 262.792964 -134.968805 
L 263.15072 -132.881918 
L 263.436674 -130.795032 
L 263.639761 -128.708146 
L 263.750603 -126.62126 
L 263.762018 -124.534374 
L 263.669453 -122.447488 
L 263.471282 -120.360602 
L 263.168973 -118.273716 
L 262.767085 -116.18683 
L 262.273118 -114.099944 
L 261.697202 -112.013058 
L 261.05166 -109.926172 
L 260.350475 -107.839286 
L 259.608677 -105.7524 
L 258.841717 -103.665514 
L 258.064841 -101.578628 
L 257.292522 -99.491742 
L 256.537959 -97.404856 
L 255.812689 -95.31797 
L 255.126303 -93.231084 
L 254.486289 -91.144198 
L 253.897993 -89.057312 
L 253.364682 -86.970425 
L 252.887696 -84.883539 
L 252.466672 -82.796653 
L 252.099813 -80.709767 
L 251.78418 -78.622881 
z
" style="stroke: #3f3f3f; stroke-width: 1.25"/>
    </defs>
    <g clip-path="url(#pc7e9f6b649)">
     <use xlink:href="#m9445ad7c73" x="0" y="360" style="fill: #3274a1; stroke: #3f3f3f; stroke-width: 1.25"/>
    </g>
   </g>
   <g id="PolyCollection_4">
    <defs>
     <path id="m069fa9e6be" d="M 312.237413 -84.160782 
L 309.266319 -84.160782 
L 308.839005 -86.249253 
L 308.319888 -88.337724 
L 307.698555 -90.426195 
L 306.965876 -92.514666 
L 306.114698 -94.603137 
L 305.140533 -96.691609 
L 304.042193 -98.78008 
L 302.822316 -100.868551 
L 301.487712 -102.957022 
L 300.049513 -105.045493 
L 298.523059 -107.133964 
L 296.927556 -109.222435 
L 295.285479 -111.310906 
L 293.621792 -113.399378 
L 291.963019 -115.487849 
L 290.336254 -117.57632 
L 288.768179 -119.664791 
L 287.284163 -121.753262 
L 285.907498 -123.841733 
L 284.658826 -125.930204 
L 283.555752 -128.018675 
L 282.612658 -130.107146 
L 281.84067 -132.195618 
L 281.24775 -134.284089 
L 280.838851 -136.37256 
L 280.616105 -138.461031 
L 280.578976 -140.549502 
L 280.724388 -142.637973 
L 281.046786 -144.726444 
L 281.538164 -146.814915 
L 282.188069 -148.903386 
L 282.983612 -150.991858 
L 283.909528 -153.080329 
L 284.948307 -155.1688 
L 286.080428 -157.257271 
L 287.284706 -159.345742 
L 288.538763 -161.434213 
L 289.819604 -163.522684 
L 291.104288 -165.611155 
L 292.370658 -167.699627 
L 293.598101 -169.788098 
L 294.768286 -171.876569 
L 295.865846 -173.96504 
L 296.878952 -176.053511 
L 297.799739 -178.141982 
L 298.624545 -180.230453 
L 299.353944 -182.318924 
L 299.992545 -184.407395 
L 300.548568 -186.495867 
L 301.033216 -188.584338 
L 301.459869 -190.672809 
L 301.843158 -192.76128 
L 302.197981 -194.849751 
L 302.53853 -196.938222 
L 302.877399 -199.026693 
L 303.224838 -201.115164 
L 303.588208 -203.203636 
L 303.971659 -205.292107 
L 304.376065 -207.380578 
L 304.799191 -209.469049 
L 305.236067 -211.55752 
L 305.679547 -213.645991 
L 306.120964 -215.734462 
L 306.55086 -217.822933 
L 306.959708 -219.911404 
L 307.338587 -221.999876 
L 307.67977 -224.088347 
L 307.977187 -226.176818 
L 308.22675 -228.265289 
L 308.426544 -230.35376 
L 308.576859 -232.442231 
L 308.680114 -234.530702 
L 308.740645 -236.619173 
L 308.764415 -238.707644 
L 308.758644 -240.796116 
L 308.731385 -242.884587 
L 308.691076 -244.973058 
L 308.646097 -247.061529 
L 308.604332 -249.15 
L 308.572789 -251.238471 
L 308.557281 -253.326942 
L 308.562188 -255.415413 
L 308.590318 -257.503885 
L 308.642869 -259.592356 
L 308.71949 -261.680827 
L 308.818438 -263.769298 
L 308.936806 -265.857769 
L 309.070812 -267.94624 
L 309.21611 -270.034711 
L 309.368119 -272.123182 
L 309.522316 -274.211653 
L 309.674499 -276.300125 
L 309.820995 -278.388596 
L 309.958798 -280.477067 
L 310.085648 -282.565538 
L 310.200041 -284.654009 
L 310.301195 -286.74248 
L 310.388965 -288.830951 
L 310.463739 -290.919422 
L 311.039993 -290.919422 
L 311.039993 -290.919422 
L 311.114766 -288.830951 
L 311.202536 -286.74248 
L 311.30369 -284.654009 
L 311.418084 -282.565538 
L 311.544934 -280.477067 
L 311.682737 -278.388596 
L 311.829233 -276.300125 
L 311.981416 -274.211653 
L 312.135612 -272.123182 
L 312.287621 -270.034711 
L 312.43292 -267.94624 
L 312.566925 -265.857769 
L 312.685293 -263.769298 
L 312.784241 -261.680827 
L 312.860863 -259.592356 
L 312.913413 -257.503885 
L 312.941543 -255.415413 
L 312.94645 -253.326942 
L 312.930942 -251.238471 
L 312.8994 -249.15 
L 312.857634 -247.061529 
L 312.812655 -244.973058 
L 312.772347 -242.884587 
L 312.745087 -240.796116 
L 312.739316 -238.707644 
L 312.763087 -236.619173 
L 312.823618 -234.530702 
L 312.926872 -232.442231 
L 313.077188 -230.35376 
L 313.276981 -228.265289 
L 313.526545 -226.176818 
L 313.823961 -224.088347 
L 314.165144 -221.999876 
L 314.544024 -219.911404 
L 314.952871 -217.822933 
L 315.382767 -215.734462 
L 315.824185 -213.645991 
L 316.267664 -211.55752 
L 316.704541 -209.469049 
L 317.127666 -207.380578 
L 317.532072 -205.292107 
L 317.915524 -203.203636 
L 318.278893 -201.115164 
L 318.626333 -199.026693 
L 318.965201 -196.938222 
L 319.30575 -194.849751 
L 319.660573 -192.76128 
L 320.043863 -190.672809 
L 320.470516 -188.584338 
L 320.955164 -186.495867 
L 321.511187 -184.407395 
L 322.149787 -182.318924 
L 322.879186 -180.230453 
L 323.703993 -178.141982 
L 324.62478 -176.053511 
L 325.637886 -173.96504 
L 326.735446 -171.876569 
L 327.905631 -169.788098 
L 329.133073 -167.699627 
L 330.399443 -165.611155 
L 331.684127 -163.522684 
L 332.964968 -161.434213 
L 334.219025 -159.345742 
L 335.423304 -157.257271 
L 336.555425 -155.1688 
L 337.594204 -153.080329 
L 338.52012 -150.991858 
L 339.315663 -148.903386 
L 339.965567 -146.814915 
L 340.456945 -144.726444 
L 340.779343 -142.637973 
L 340.924755 -140.549502 
L 340.887627 -138.461031 
L 340.66488 -136.37256 
L 340.255982 -134.284089 
L 339.663061 -132.195618 
L 338.891073 -130.107146 
L 337.947979 -128.018675 
L 336.844906 -125.930204 
L 335.596233 -123.841733 
L 334.219569 -121.753262 
L 332.735552 -119.664791 
L 331.167478 -117.57632 
L 329.540713 -115.487849 
L 327.881939 -113.399378 
L 326.218252 -111.310906 
L 324.576175 -109.222435 
L 322.980672 -107.133964 
L 321.454219 -105.045493 
L 320.016019 -102.957022 
L 318.681416 -100.868551 
L 317.461538 -98.78008 
L 316.363199 -96.691609 
L 315.389033 -94.603137 
L 314.537855 -92.514666 
L 313.805177 -90.426195 
L 313.183844 -88.337724 
L 312.664727 -86.249253 
L 312.237413 -84.160782 
z
" style="stroke: #3f3f3f; stroke-width: 1.25"/>
    </defs>
    <g clip-path="url(#pc7e9f6b649)">
     <use xlink:href="#m069fa9e6be" x="0" y="360" style="fill: #e1812c; stroke: #3f3f3f; stroke-width: 1.25"/>
    </g>
   </g>
   <g id="patch_3">
    <path d="M 129.714529 240.70364 
L 129.714529 240.70364 
L 129.714529 240.70364 
L 129.714529 240.70364 
z
" clip-path="url(#pc7e9f6b649)" style="fill: #3274a1; stroke: #3f3f3f; stroke-width: 1.25; stroke-linejoin: miter"/>
   </g>
   <g id="patch_4">
    <path d="M 129.714529 240.70364 
L 129.714529 240.70364 
L 129.714529 240.70364 
L 129.714529 240.70364 
z
" clip-path="url(#pc7e9f6b649)" style="fill: #e1812c; stroke: #3f3f3f; stroke-width: 1.25; stroke-linejoin: miter"/>
   </g>
   <g id="line2d_7">
    <path d="M 99.541639 240.70364 
L 99.541639 223.656787 
" clip-path="url(#pc7e9f6b649)" style="fill: none; stroke: #3f3f3f; stroke-width: 1.875; stroke-linecap: round"/>
   </g>
   <g id="line2d_8">
    <path d="M 99.541639 240.70364 
L 99.541639 233.678598 
" clip-path="url(#pc7e9f6b649)" style="fill: none; stroke: #3f3f3f; stroke-width: 5.625; stroke-linecap: round"/>
   </g>
   <g id="line2d_9">
    <path d="M 99.541639 240.70364 
" clip-path="url(#pc7e9f6b649)" style="fill: none; stroke: #3f3f3f; stroke-width: 1.5; stroke-linecap: round"/>
    <defs>
     <path id="m7707def55b" d="M 2.34375 0 
L -2.34375 -0 
" style="stroke: #ffffff; stroke-width: 1.125"/>
    </defs>
    <g clip-path="url(#pc7e9f6b649)">
     <use xlink:href="#m7707def55b" x="99.541639" y="240.70364" style="fill: #ffffff; stroke: #ffffff; stroke-width: 1.125"/>
    </g>
   </g>
   <g id="line2d_10">
    <path d="M 159.887418 240.70364 
L 159.887418 88.13636 
" clip-path="url(#pc7e9f6b649)" style="fill: none; stroke: #3f3f3f; stroke-width: 1.875; stroke-linecap: round"/>
   </g>
   <g id="line2d_11">
    <path d="M 159.887418 240.70364 
L 159.887418 140.35412 
" clip-path="url(#pc7e9f6b649)" style="fill: none; stroke: #3f3f3f; stroke-width: 5.625; stroke-linecap: round"/>
   </g>
   <g id="line2d_12">
    <path d="M 159.887418 225.940426 
" clip-path="url(#pc7e9f6b649)" style="fill: none; stroke: #3f3f3f; stroke-width: 1.5; stroke-linecap: round"/>
    <g clip-path="url(#pc7e9f6b649)">
     <use xlink:href="#m7707def55b" x="159.887418" y="225.940426" style="fill: #ffffff; stroke: #ffffff; stroke-width: 1.125"/>
    </g>
   </g>
   <g id="line2d_13">
    <path d="M 250.406087 240.70364 
L 250.406087 132.034637 
" clip-path="url(#pc7e9f6b649)" style="fill: none; stroke: #3f3f3f; stroke-width: 1.875; stroke-linecap: round"/>
   </g>
   <g id="line2d_14">
    <path d="M 250.406087 240.70364 
L 250.406087 196.77599 
" clip-path="url(#pc7e9f6b649)" style="fill: none; stroke: #3f3f3f; stroke-width: 5.625; stroke-linecap: round"/>
   </g>
   <g id="line2d_15">
    <path d="M 250.406087 232.45076 
" clip-path="url(#pc7e9f6b649)" style="fill: none; stroke: #3f3f3f; stroke-width: 1.5; stroke-linecap: round"/>
    <g clip-path="url(#pc7e9f6b649)">
     <use xlink:href="#m7707def55b" x="250.406087" y="232.45076" style="fill: #ffffff; stroke: #ffffff; stroke-width: 1.125"/>
    </g>
   </g>
   <g id="line2d_16">
    <path d="M 310.751866 240.70364 
L 310.751866 153.909106 
" clip-path="url(#pc7e9f6b649)" style="fill: none; stroke: #3f3f3f; stroke-width: 1.875; stroke-linecap: round"/>
   </g>
   <g id="line2d_17">
    <path d="M 310.751866 229.603787 
L 310.751866 195.492111 
" clip-path="url(#pc7e9f6b649)" style="fill: none; stroke: #3f3f3f; stroke-width: 5.625; stroke-linecap: round"/>
   </g>
   <g id="line2d_18">
    <path d="M 310.751866 214.695075 
" clip-path="url(#pc7e9f6b649)" style="fill: none; stroke: #3f3f3f; stroke-width: 1.5; stroke-linecap: round"/>
    <g clip-path="url(#pc7e9f6b649)">
     <use xlink:href="#m7707def55b" x="310.751866" y="214.695075" style="fill: #ffffff; stroke: #ffffff; stroke-width: 1.125"/>
    </g>
   </g>
   <g id="patch_5">
    <path d="M 54.282305 318.04 
L 54.282305 10.8 
" style="fill: none; stroke: #cccccc; stroke-width: 0.8; stroke-linejoin: miter; stroke-linecap: square"/>
   </g>
   <g id="patch_6">
    <path d="M 54.282305 318.04 
L 356.0112 318.04 
" style="fill: none; stroke: #cccccc; stroke-width: 0.8; stroke-linejoin: miter; stroke-linecap: square"/>
   </g>
  </g>
  <g id="legend_1">
   <g id="text_11">
    <!-- time -->
    <g style="fill: #262626" transform="translate(365.045625 168.439844) scale(0.1 -0.1)">
     <defs>
      <path id="ArialMT-69" d="M 425 3934 
L 425 4581 
L 988 4581 
L 988 3934 
L 425 3934 
z
M 425 0 
L 425 3319 
L 988 3319 
L 988 0 
L 425 0 
z
" transform="scale(0.015625)"/>
     </defs>
     <use xlink:href="#ArialMT-74"/>
     <use xlink:href="#ArialMT-69" x="27.783203"/>
     <use xlink:href="#ArialMT-6d" x="50"/>
     <use xlink:href="#ArialMT-65" x="133.300781"/>
    </g>
   </g>
   <g id="patch_7">
    <path d="M 359.101875 182.585156 
L 379.101875 182.585156 
L 379.101875 175.585156 
L 359.101875 175.585156 
z
" style="fill: #3274a1; stroke: #3f3f3f; stroke-width: 1.25; stroke-linejoin: miter"/>
   </g>
   <g id="text_12">
    <!-- i -->
    <g style="fill: #262626" transform="translate(387.101875 182.585156) scale(0.1 -0.1)">
     <use xlink:href="#ArialMT-69"/>
    </g>
   </g>
   <g id="patch_8">
    <path d="M 359.101875 196.730469 
L 379.101875 196.730469 
L 379.101875 189.730469 
L 359.101875 189.730469 
z
" style="fill: #e1812c; stroke: #3f3f3f; stroke-width: 1.25; stroke-linejoin: miter"/>
   </g>
   <g id="text_13">
    <!-- f -->
    <g style="fill: #262626" transform="translate(387.101875 196.730469) scale(0.1 -0.1)">
     <use xlink:href="#ArialMT-66"/>
    </g>
   </g>
  </g>
 </g>
 <defs>
  <clipPath id="pc7e9f6b649">
   <rect x="54.282305" y="10.8" width="301.728895" height="307.24"/>
  </clipPath>
 </defs>
</svg>
