<?xml version="1.0" encoding="utf-8" standalone="no"?>
<!DOCTYPE svg PUBLIC "-//W3C//DTD SVG 1.1//EN"
  "http://www.w3.org/Graphics/SVG/1.1/DTD/svg11.dtd">
<svg xmlns:xlink="http://www.w3.org/1999/xlink" width="398.88pt" height="360pt" viewBox="0 0 398.88 360" xmlns="http://www.w3.org/2000/svg" version="1.1">
 <metadata>
  <rdf:RDF xmlns:dc="http://purl.org/dc/elements/1.1/" xmlns:cc="http://creativecommons.org/ns#" xmlns:rdf="http://www.w3.org/1999/02/22-rdf-syntax-ns#">
   <cc:Work>
    <dc:type rdf:resource="http://purl.org/dc/dcmitype/StillImage"/>
    <dc:date>2024-09-11T03:31:50.792658</dc:date>
    <dc:format>image/svg+xml</dc:format>
    <dc:creator>
     <cc:Agent>
      <dc:title>Matplotlib v3.8.3, https://matplotlib.org/</dc:title>
     </cc:Agent>
    </dc:creator>
   </cc:Work>
  </rdf:RDF>
 </metadata>
 <defs>
  <style type="text/css">*{stroke-linejoin: round; stroke-linecap: butt}</style>
 </defs>
 <g id="figure_1">
  <g id="patch_1">
   <path d="M 0 360 
L 398.88 360 
L 398.88 0 
L 0 0 
z
" style="fill: #ffffff"/>
  </g>
  <g id="axes_1">
   <g id="patch_2">
    <path d="M 53.983145 318.04 
L 356.0112 318.04 
L 356.0112 10.8 
L 53.983145 10.8 
z
" style="fill: #ffffff"/>
   </g>
   <g id="matplotlib.axis_1">
    <g id="xtick_1">
     <g id="text_1">
      <!-- f -->
      <g style="fill: #262626" transform="translate(128.101096 332.197812) scale(0.1 -0.1)">
       <defs>
        <path id="ArialMT-66" d="M 556 0 
L 556 2881 
L 59 2881 
L 59 3319 
L 556 3319 
L 556 3672 
Q 556 4006 616 4169 
Q 697 4388 901 4523 
Q 1106 4659 1475 4659 
Q 1713 4659 2000 4603 
L 1916 4113 
Q 1741 4144 1584 4144 
Q 1328 4144 1222 4034 
Q 1116 3925 1116 3625 
L 1116 3319 
L 1763 3319 
L 1763 2881 
L 1116 2881 
L 1116 0 
L 556 0 
z
" transform="scale(0.015625)"/>
       </defs>
       <use xlink:href="#ArialMT-66"/>
      </g>
     </g>
    </g>
    <g id="xtick_2">
     <g id="text_2">
      <!-- m -->
      <g style="fill: #262626" transform="translate(276.339342 332.197812) scale(0.1 -0.1)">
       <defs>
        <path id="ArialMT-6d" d="M 422 0 
L 422 3319 
L 925 3319 
L 925 2853 
Q 1081 3097 1340 3245 
Q 1600 3394 1931 3394 
Q 2300 3394 2536 3241 
Q 2772 3088 2869 2813 
Q 3263 3394 3894 3394 
Q 4388 3394 4653 3120 
Q 4919 2847 4919 2278 
L 4919 0 
L 4359 0 
L 4359 2091 
Q 4359 2428 4304 2576 
Q 4250 2725 4106 2815 
Q 3963 2906 3769 2906 
Q 3419 2906 3187 2673 
Q 2956 2441 2956 1928 
L 2956 0 
L 2394 0 
L 2394 2156 
Q 2394 2531 2256 2718 
Q 2119 2906 1806 2906 
Q 1569 2906 1367 2781 
Q 1166 2656 1075 2415 
Q 984 2175 984 1722 
L 984 0 
L 422 0 
z
" transform="scale(0.015625)"/>
       </defs>
       <use xlink:href="#ArialMT-6d"/>
      </g>
     </g>
    </g>
    <g id="text_3">
     <!-- sex -->
     <g style="fill: #262626" transform="translate(197.216704 345.343125) scale(0.1 -0.1)">
      <defs>
       <path id="ArialMT-73" d="M 197 991 
L 753 1078 
Q 800 744 1014 566 
Q 1228 388 1613 388 
Q 2000 388 2187 545 
Q 2375 703 2375 916 
Q 2375 1106 2209 1216 
Q 2094 1291 1634 1406 
Q 1016 1563 777 1677 
Q 538 1791 414 1992 
Q 291 2194 291 2438 
Q 291 2659 392 2848 
Q 494 3038 669 3163 
Q 800 3259 1026 3326 
Q 1253 3394 1513 3394 
Q 1903 3394 2198 3281 
Q 2494 3169 2634 2976 
Q 2775 2784 2828 2463 
L 2278 2388 
Q 2241 2644 2061 2787 
Q 1881 2931 1553 2931 
Q 1166 2931 1000 2803 
Q 834 2675 834 2503 
Q 834 2394 903 2306 
Q 972 2216 1119 2156 
Q 1203 2125 1616 2013 
Q 2213 1853 2448 1751 
Q 2684 1650 2818 1456 
Q 2953 1263 2953 975 
Q 2953 694 2789 445 
Q 2625 197 2315 61 
Q 2006 -75 1616 -75 
Q 969 -75 630 194 
Q 291 463 197 991 
z
" transform="scale(0.015625)"/>
       <path id="ArialMT-65" d="M 2694 1069 
L 3275 997 
Q 3138 488 2766 206 
Q 2394 -75 1816 -75 
Q 1088 -75 661 373 
Q 234 822 234 1631 
Q 234 2469 665 2931 
Q 1097 3394 1784 3394 
Q 2450 3394 2872 2941 
Q 3294 2488 3294 1666 
Q 3294 1616 3291 1516 
L 816 1516 
Q 847 969 1125 678 
Q 1403 388 1819 388 
Q 2128 388 2347 550 
Q 2566 713 2694 1069 
z
M 847 1978 
L 2700 1978 
Q 2663 2397 2488 2606 
Q 2219 2931 1791 2931 
Q 1403 2931 1139 2672 
Q 875 2413 847 1978 
z
" transform="scale(0.015625)"/>
       <path id="ArialMT-78" d="M 47 0 
L 1259 1725 
L 138 3319 
L 841 3319 
L 1350 2541 
Q 1494 2319 1581 2169 
Q 1719 2375 1834 2534 
L 2394 3319 
L 3066 3319 
L 1919 1756 
L 3153 0 
L 2463 0 
L 1781 1031 
L 1600 1309 
L 728 0 
L 47 0 
z
" transform="scale(0.015625)"/>
      </defs>
      <use xlink:href="#ArialMT-73"/>
      <use xlink:href="#ArialMT-65" x="50"/>
      <use xlink:href="#ArialMT-78" x="105.615234"/>
     </g>
    </g>
   </g>
   <g id="matplotlib.axis_2">
    <g id="ytick_1">
     <g id="line2d_1">
      <path d="M 53.983145 285.041198 
L 356.0112 285.041198 
" clip-path="url(#p7e64667839)" style="fill: none; stroke: #cccccc; stroke-width: 0.8; stroke-linecap: round"/>
     </g>
     <g id="text_4">
      <!-- 80 -->
      <g style="fill: #262626" transform="translate(35.86127 288.620105) scale(0.1 -0.1)">
       <defs>
        <path id="ArialMT-38" d="M 1131 2484 
Q 781 2613 612 2850 
Q 444 3088 444 3419 
Q 444 3919 803 4259 
Q 1163 4600 1759 4600 
Q 2359 4600 2725 4251 
Q 3091 3903 3091 3403 
Q 3091 3084 2923 2848 
Q 2756 2613 2416 2484 
Q 2838 2347 3058 2040 
Q 3278 1734 3278 1309 
Q 3278 722 2862 322 
Q 2447 -78 1769 -78 
Q 1091 -78 675 323 
Q 259 725 259 1325 
Q 259 1772 486 2073 
Q 713 2375 1131 2484 
z
M 1019 3438 
Q 1019 3113 1228 2906 
Q 1438 2700 1772 2700 
Q 2097 2700 2305 2904 
Q 2513 3109 2513 3406 
Q 2513 3716 2298 3927 
Q 2084 4138 1766 4138 
Q 1444 4138 1231 3931 
Q 1019 3725 1019 3438 
z
M 838 1322 
Q 838 1081 952 856 
Q 1066 631 1291 507 
Q 1516 384 1775 384 
Q 2178 384 2440 643 
Q 2703 903 2703 1303 
Q 2703 1709 2433 1975 
Q 2163 2241 1756 2241 
Q 1359 2241 1098 1978 
Q 838 1716 838 1322 
z
" transform="scale(0.015625)"/>
        <path id="ArialMT-30" d="M 266 2259 
Q 266 3072 433 3567 
Q 600 4063 929 4331 
Q 1259 4600 1759 4600 
Q 2128 4600 2406 4451 
Q 2684 4303 2865 4023 
Q 3047 3744 3150 3342 
Q 3253 2941 3253 2259 
Q 3253 1453 3087 958 
Q 2922 463 2592 192 
Q 2263 -78 1759 -78 
Q 1097 -78 719 397 
Q 266 969 266 2259 
z
M 844 2259 
Q 844 1131 1108 757 
Q 1372 384 1759 384 
Q 2147 384 2411 759 
Q 2675 1134 2675 2259 
Q 2675 3391 2411 3762 
Q 2147 4134 1753 4134 
Q 1366 4134 1134 3806 
Q 844 3388 844 2259 
z
" transform="scale(0.015625)"/>
       </defs>
       <use xlink:href="#ArialMT-38"/>
       <use xlink:href="#ArialMT-30" x="55.615234"/>
      </g>
     </g>
    </g>
    <g id="ytick_2">
     <g id="line2d_2">
      <path d="M 53.983145 245.075253 
L 356.0112 245.075253 
" clip-path="url(#p7e64667839)" style="fill: none; stroke: #cccccc; stroke-width: 0.8; stroke-linecap: round"/>
     </g>
     <g id="text_5">
      <!-- 100 -->
      <g style="fill: #262626" transform="translate(30.300332 248.65416) scale(0.1 -0.1)">
       <defs>
        <path id="ArialMT-31" d="M 2384 0 
L 1822 0 
L 1822 3584 
Q 1619 3391 1289 3197 
Q 959 3003 697 2906 
L 697 3450 
Q 1169 3672 1522 3987 
Q 1875 4303 2022 4600 
L 2384 4600 
L 2384 0 
z
" transform="scale(0.015625)"/>
       </defs>
       <use xlink:href="#ArialMT-31"/>
       <use xlink:href="#ArialMT-30" x="55.615234"/>
       <use xlink:href="#ArialMT-30" x="111.230469"/>
      </g>
     </g>
    </g>
    <g id="ytick_3">
     <g id="line2d_3">
      <path d="M 53.983145 205.109308 
L 356.0112 205.109308 
" clip-path="url(#p7e64667839)" style="fill: none; stroke: #cccccc; stroke-width: 0.8; stroke-linecap: round"/>
     </g>
     <g id="text_6">
      <!-- 120 -->
      <g style="fill: #262626" transform="translate(30.300332 208.688214) scale(0.1 -0.1)">
       <defs>
        <path id="ArialMT-32" d="M 3222 541 
L 3222 0 
L 194 0 
Q 188 203 259 391 
Q 375 700 629 1000 
Q 884 1300 1366 1694 
Q 2113 2306 2375 2664 
Q 2638 3022 2638 3341 
Q 2638 3675 2398 3904 
Q 2159 4134 1775 4134 
Q 1369 4134 1125 3890 
Q 881 3647 878 3216 
L 300 3275 
Q 359 3922 746 4261 
Q 1134 4600 1788 4600 
Q 2447 4600 2831 4234 
Q 3216 3869 3216 3328 
Q 3216 3053 3103 2787 
Q 2991 2522 2730 2228 
Q 2469 1934 1863 1422 
Q 1356 997 1212 845 
Q 1069 694 975 541 
L 3222 541 
z
" transform="scale(0.015625)"/>
       </defs>
       <use xlink:href="#ArialMT-31"/>
       <use xlink:href="#ArialMT-32" x="55.615234"/>
       <use xlink:href="#ArialMT-30" x="111.230469"/>
      </g>
     </g>
    </g>
    <g id="ytick_4">
     <g id="line2d_4">
      <path d="M 53.983145 165.143363 
L 356.0112 165.143363 
" clip-path="url(#p7e64667839)" style="fill: none; stroke: #cccccc; stroke-width: 0.8; stroke-linecap: round"/>
     </g>
     <g id="text_7">
      <!-- 140 -->
      <g style="fill: #262626" transform="translate(30.300332 168.722269) scale(0.1 -0.1)">
       <defs>
        <path id="ArialMT-34" d="M 2069 0 
L 2069 1097 
L 81 1097 
L 81 1613 
L 2172 4581 
L 2631 4581 
L 2631 1613 
L 3250 1613 
L 3250 1097 
L 2631 1097 
L 2631 0 
L 2069 0 
z
M 2069 1613 
L 2069 3678 
L 634 1613 
L 2069 1613 
z
" transform="scale(0.015625)"/>
       </defs>
       <use xlink:href="#ArialMT-31"/>
       <use xlink:href="#ArialMT-34" x="55.615234"/>
       <use xlink:href="#ArialMT-30" x="111.230469"/>
      </g>
     </g>
    </g>
    <g id="ytick_5">
     <g id="line2d_5">
      <path d="M 53.983145 125.177418 
L 356.0112 125.177418 
" clip-path="url(#p7e64667839)" style="fill: none; stroke: #cccccc; stroke-width: 0.8; stroke-linecap: round"/>
     </g>
     <g id="text_8">
      <!-- 160 -->
      <g style="fill: #262626" transform="translate(30.300332 128.756324) scale(0.1 -0.1)">
       <defs>
        <path id="ArialMT-36" d="M 3184 3459 
L 2625 3416 
Q 2550 3747 2413 3897 
Q 2184 4138 1850 4138 
Q 1581 4138 1378 3988 
Q 1113 3794 959 3422 
Q 806 3050 800 2363 
Q 1003 2672 1297 2822 
Q 1591 2972 1913 2972 
Q 2475 2972 2870 2558 
Q 3266 2144 3266 1488 
Q 3266 1056 3080 686 
Q 2894 316 2569 119 
Q 2244 -78 1831 -78 
Q 1128 -78 684 439 
Q 241 956 241 2144 
Q 241 3472 731 4075 
Q 1159 4600 1884 4600 
Q 2425 4600 2770 4297 
Q 3116 3994 3184 3459 
z
M 888 1484 
Q 888 1194 1011 928 
Q 1134 663 1356 523 
Q 1578 384 1822 384 
Q 2178 384 2434 671 
Q 2691 959 2691 1453 
Q 2691 1928 2437 2201 
Q 2184 2475 1800 2475 
Q 1419 2475 1153 2201 
Q 888 1928 888 1484 
z
" transform="scale(0.015625)"/>
       </defs>
       <use xlink:href="#ArialMT-31"/>
       <use xlink:href="#ArialMT-36" x="55.615234"/>
       <use xlink:href="#ArialMT-30" x="111.230469"/>
      </g>
     </g>
    </g>
    <g id="ytick_6">
     <g id="line2d_6">
      <path d="M 53.983145 85.211473 
L 356.0112 85.211473 
" clip-path="url(#p7e64667839)" style="fill: none; stroke: #cccccc; stroke-width: 0.8; stroke-linecap: round"/>
     </g>
     <g id="text_9">
      <!-- 180 -->
      <g style="fill: #262626" transform="translate(30.300332 88.790379) scale(0.1 -0.1)">
       <use xlink:href="#ArialMT-31"/>
       <use xlink:href="#ArialMT-38" x="55.615234"/>
       <use xlink:href="#ArialMT-30" x="111.230469"/>
      </g>
     </g>
    </g>
    <g id="ytick_7">
     <g id="line2d_7">
      <path d="M 53.983145 45.245528 
L 356.0112 45.245528 
" clip-path="url(#p7e64667839)" style="fill: none; stroke: #cccccc; stroke-width: 0.8; stroke-linecap: round"/>
     </g>
     <g id="text_10">
      <!-- 200 -->
      <g style="fill: #262626" transform="translate(30.300332 48.824434) scale(0.1 -0.1)">
       <use xlink:href="#ArialMT-32"/>
       <use xlink:href="#ArialMT-30" x="55.615234"/>
       <use xlink:href="#ArialMT-30" x="111.230469"/>
      </g>
     </g>
    </g>
    <g id="text_11">
     <!-- Heart rate (beats/min) -->
     <g style="fill: #262626" transform="translate(24.195645 213.044219) rotate(-90) scale(0.1 -0.1)">
      <defs>
       <path id="ArialMT-48" d="M 513 0 
L 513 4581 
L 1119 4581 
L 1119 2700 
L 3500 2700 
L 3500 4581 
L 4106 4581 
L 4106 0 
L 3500 0 
L 3500 2159 
L 1119 2159 
L 1119 0 
L 513 0 
z
" transform="scale(0.015625)"/>
       <path id="ArialMT-61" d="M 2588 409 
Q 2275 144 1986 34 
Q 1697 -75 1366 -75 
Q 819 -75 525 192 
Q 231 459 231 875 
Q 231 1119 342 1320 
Q 453 1522 633 1644 
Q 813 1766 1038 1828 
Q 1203 1872 1538 1913 
Q 2219 1994 2541 2106 
Q 2544 2222 2544 2253 
Q 2544 2597 2384 2738 
Q 2169 2928 1744 2928 
Q 1347 2928 1158 2789 
Q 969 2650 878 2297 
L 328 2372 
Q 403 2725 575 2942 
Q 747 3159 1072 3276 
Q 1397 3394 1825 3394 
Q 2250 3394 2515 3294 
Q 2781 3194 2906 3042 
Q 3031 2891 3081 2659 
Q 3109 2516 3109 2141 
L 3109 1391 
Q 3109 606 3145 398 
Q 3181 191 3288 0 
L 2700 0 
Q 2613 175 2588 409 
z
M 2541 1666 
Q 2234 1541 1622 1453 
Q 1275 1403 1131 1340 
Q 988 1278 909 1158 
Q 831 1038 831 891 
Q 831 666 1001 516 
Q 1172 366 1500 366 
Q 1825 366 2078 508 
Q 2331 650 2450 897 
Q 2541 1088 2541 1459 
L 2541 1666 
z
" transform="scale(0.015625)"/>
       <path id="ArialMT-72" d="M 416 0 
L 416 3319 
L 922 3319 
L 922 2816 
Q 1116 3169 1280 3281 
Q 1444 3394 1641 3394 
Q 1925 3394 2219 3213 
L 2025 2691 
Q 1819 2813 1613 2813 
Q 1428 2813 1281 2702 
Q 1134 2591 1072 2394 
Q 978 2094 978 1738 
L 978 0 
L 416 0 
z
" transform="scale(0.015625)"/>
       <path id="ArialMT-74" d="M 1650 503 
L 1731 6 
Q 1494 -44 1306 -44 
Q 1000 -44 831 53 
Q 663 150 594 308 
Q 525 466 525 972 
L 525 2881 
L 113 2881 
L 113 3319 
L 525 3319 
L 525 4141 
L 1084 4478 
L 1084 3319 
L 1650 3319 
L 1650 2881 
L 1084 2881 
L 1084 941 
Q 1084 700 1114 631 
Q 1144 563 1211 522 
Q 1278 481 1403 481 
Q 1497 481 1650 503 
z
" transform="scale(0.015625)"/>
       <path id="ArialMT-20" transform="scale(0.015625)"/>
       <path id="ArialMT-28" d="M 1497 -1347 
Q 1031 -759 709 28 
Q 388 816 388 1659 
Q 388 2403 628 3084 
Q 909 3875 1497 4659 
L 1900 4659 
Q 1522 4009 1400 3731 
Q 1209 3300 1100 2831 
Q 966 2247 966 1656 
Q 966 153 1900 -1347 
L 1497 -1347 
z
" transform="scale(0.015625)"/>
       <path id="ArialMT-62" d="M 941 0 
L 419 0 
L 419 4581 
L 981 4581 
L 981 2947 
Q 1338 3394 1891 3394 
Q 2197 3394 2470 3270 
Q 2744 3147 2920 2923 
Q 3097 2700 3197 2384 
Q 3297 2069 3297 1709 
Q 3297 856 2875 390 
Q 2453 -75 1863 -75 
Q 1275 -75 941 416 
L 941 0 
z
M 934 1684 
Q 934 1088 1097 822 
Q 1363 388 1816 388 
Q 2184 388 2453 708 
Q 2722 1028 2722 1663 
Q 2722 2313 2464 2622 
Q 2206 2931 1841 2931 
Q 1472 2931 1203 2611 
Q 934 2291 934 1684 
z
" transform="scale(0.015625)"/>
       <path id="ArialMT-2f" d="M 0 -78 
L 1328 4659 
L 1778 4659 
L 453 -78 
L 0 -78 
z
" transform="scale(0.015625)"/>
       <path id="ArialMT-69" d="M 425 3934 
L 425 4581 
L 988 4581 
L 988 3934 
L 425 3934 
z
M 425 0 
L 425 3319 
L 988 3319 
L 988 0 
L 425 0 
z
" transform="scale(0.015625)"/>
       <path id="ArialMT-6e" d="M 422 0 
L 422 3319 
L 928 3319 
L 928 2847 
Q 1294 3394 1984 3394 
Q 2284 3394 2536 3286 
Q 2788 3178 2913 3003 
Q 3038 2828 3088 2588 
Q 3119 2431 3119 2041 
L 3119 0 
L 2556 0 
L 2556 2019 
Q 2556 2363 2490 2533 
Q 2425 2703 2258 2804 
Q 2091 2906 1866 2906 
Q 1506 2906 1245 2678 
Q 984 2450 984 1813 
L 984 0 
L 422 0 
z
" transform="scale(0.015625)"/>
       <path id="ArialMT-29" d="M 791 -1347 
L 388 -1347 
Q 1322 153 1322 1656 
Q 1322 2244 1188 2822 
Q 1081 3291 891 3722 
Q 769 4003 388 4659 
L 791 4659 
Q 1378 3875 1659 3084 
Q 1900 2403 1900 1659 
Q 1900 816 1576 28 
Q 1253 -759 791 -1347 
z
" transform="scale(0.015625)"/>
      </defs>
      <use xlink:href="#ArialMT-48"/>
      <use xlink:href="#ArialMT-65" x="72.216797"/>
      <use xlink:href="#ArialMT-61" x="127.832031"/>
      <use xlink:href="#ArialMT-72" x="183.447266"/>
      <use xlink:href="#ArialMT-74" x="216.748047"/>
      <use xlink:href="#ArialMT-20" x="244.53125"/>
      <use xlink:href="#ArialMT-72" x="272.314453"/>
      <use xlink:href="#ArialMT-61" x="305.615234"/>
      <use xlink:href="#ArialMT-74" x="361.230469"/>
      <use xlink:href="#ArialMT-65" x="389.013672"/>
      <use xlink:href="#ArialMT-20" x="444.628906"/>
      <use xlink:href="#ArialMT-28" x="472.412109"/>
      <use xlink:href="#ArialMT-62" x="505.712891"/>
      <use xlink:href="#ArialMT-65" x="561.328125"/>
      <use xlink:href="#ArialMT-61" x="616.943359"/>
      <use xlink:href="#ArialMT-74" x="672.558594"/>
      <use xlink:href="#ArialMT-73" x="700.341797"/>
      <use xlink:href="#ArialMT-2f" x="750.341797"/>
      <use xlink:href="#ArialMT-6d" x="778.125"/>
      <use xlink:href="#ArialMT-69" x="861.425781"/>
      <use xlink:href="#ArialMT-6e" x="883.642578"/>
      <use xlink:href="#ArialMT-29" x="939.257812"/>
     </g>
    </g>
   </g>
   <g id="PolyCollection_1">
    <defs>
     <path id="m2fac17adfd" d="M 99.681932 -67.37505 
L 98.892774 -67.37505 
L 98.807195 -69.756207 
L 98.708117 -72.137364 
L 98.594555 -74.518521 
L 98.465662 -76.899678 
L 98.32077 -79.280835 
L 98.159401 -81.661992 
L 97.981283 -84.043149 
L 97.786337 -86.424305 
L 97.574655 -88.805462 
L 97.346454 -91.186619 
L 97.102013 -93.567776 
L 96.841594 -95.948933 
L 96.565351 -98.33009 
L 96.273233 -100.711247 
L 95.964886 -103.092404 
L 95.639572 -105.473561 
L 95.296094 -107.854718 
L 94.932758 -110.235875 
L 94.547364 -112.617032 
L 94.137238 -114.998188 
L 93.69931 -117.379345 
L 93.23023 -119.760502 
L 92.726535 -122.141659 
L 92.184842 -124.522816 
L 91.602087 -126.903973 
L 90.975763 -129.28513 
L 90.304187 -131.666287 
L 89.586745 -134.047444 
L 88.824129 -136.428601 
L 88.018542 -138.809758 
L 87.173855 -141.190914 
L 86.295716 -143.572071 
L 85.391593 -145.953228 
L 84.470745 -148.334385 
L 83.544121 -150.715542 
L 82.624175 -153.096699 
L 81.724611 -155.477856 
L 80.860046 -157.859013 
L 80.045598 -160.24017 
L 79.296431 -162.621327 
L 78.627233 -165.002484 
L 78.051678 -167.38364 
L 77.581874 -169.764797 
L 77.227824 -172.145954 
L 76.996936 -174.527111 
L 76.893585 -176.908268 
L 76.91879 -179.289425 
L 77.069992 -181.670582 
L 77.34098 -184.051739 
L 77.721973 -186.432896 
L 78.199854 -188.814053 
L 78.758572 -191.19521 
L 79.379691 -193.576366 
L 80.04306 -195.957523 
L 80.727598 -198.33868 
L 81.412132 -200.719837 
L 82.076266 -203.100994 
L 82.701234 -205.482151 
L 83.270684 -207.863308 
L 83.771365 -210.244465 
L 84.193675 -212.625622 
L 84.532036 -215.006779 
L 84.785087 -217.387936 
L 84.955672 -219.769092 
L 85.050637 -222.150249 
L 85.080432 -224.531406 
L 85.058563 -226.912563 
L 85.000893 -229.29372 
L 84.924856 -231.674877 
L 84.848609 -234.056034 
L 84.790178 -236.437191 
L 84.76663 -238.818348 
L 84.793317 -241.199505 
L 84.883234 -243.580662 
L 85.046506 -245.961819 
L 85.290042 -248.342975 
L 85.617346 -250.724132 
L 86.028509 -253.105289 
L 86.520358 -255.486446 
L 87.086749 -257.867603 
L 87.718982 -260.24876 
L 88.406314 -262.629917 
L 89.136518 -265.011074 
L 89.896485 -267.392231 
L 90.672804 -269.773388 
L 91.452315 -272.154545 
L 92.222593 -274.535701 
L 92.972361 -276.916858 
L 93.691797 -279.298015 
L 94.372754 -281.679172 
L 95.008874 -284.060329 
L 95.595608 -286.441486 
L 96.130161 -288.822643 
L 96.611359 -291.2038 
L 97.039475 -293.584957 
L 97.41601 -295.966114 
L 97.743459 -298.347271 
L 98.02507 -300.728427 
L 98.264621 -303.109584 
L 100.310086 -303.109584 
L 100.310086 -303.109584 
L 100.549636 -300.728427 
L 100.831248 -298.347271 
L 101.158696 -295.966114 
L 101.535231 -293.584957 
L 101.963347 -291.2038 
L 102.444546 -288.822643 
L 102.979098 -286.441486 
L 103.565832 -284.060329 
L 104.201952 -281.679172 
L 104.882909 -279.298015 
L 105.602346 -276.916858 
L 106.352113 -274.535701 
L 107.122391 -272.154545 
L 107.901902 -269.773388 
L 108.678222 -267.392231 
L 109.438189 -265.011074 
L 110.168393 -262.629917 
L 110.855724 -260.24876 
L 111.487958 -257.867603 
L 112.054348 -255.486446 
L 112.546197 -253.105289 
L 112.957361 -250.724132 
L 113.284665 -248.342975 
L 113.5282 -245.961819 
L 113.691473 -243.580662 
L 113.78139 -241.199505 
L 113.808077 -238.818348 
L 113.784528 -236.437191 
L 113.726098 -234.056034 
L 113.649851 -231.674877 
L 113.573813 -229.29372 
L 113.516143 -226.912563 
L 113.494274 -224.531406 
L 113.52407 -222.150249 
L 113.619034 -219.769092 
L 113.789619 -217.387936 
L 114.04267 -215.006779 
L 114.381032 -212.625622 
L 114.803342 -210.244465 
L 115.304023 -207.863308 
L 115.873473 -205.482151 
L 116.49844 -203.100994 
L 117.162575 -200.719837 
L 117.847109 -198.33868 
L 118.531647 -195.957523 
L 119.195016 -193.576366 
L 119.816134 -191.19521 
L 120.374853 -188.814053 
L 120.852734 -186.432896 
L 121.233726 -184.051739 
L 121.504715 -181.670582 
L 121.655916 -179.289425 
L 121.681121 -176.908268 
L 121.577771 -174.527111 
L 121.346882 -172.145954 
L 120.992833 -169.764797 
L 120.523028 -167.38364 
L 119.947473 -165.002484 
L 119.278275 -162.621327 
L 118.529108 -160.24017 
L 117.714661 -157.859013 
L 116.850095 -155.477856 
L 115.950532 -153.096699 
L 115.030586 -150.715542 
L 114.103961 -148.334385 
L 113.183113 -145.953228 
L 112.27899 -143.572071 
L 111.400852 -141.190914 
L 110.556165 -138.809758 
L 109.750578 -136.428601 
L 108.987962 -134.047444 
L 108.270519 -131.666287 
L 107.598943 -129.28513 
L 106.97262 -126.903973 
L 106.389864 -124.522816 
L 105.848172 -122.141659 
L 105.344476 -119.760502 
L 104.875397 -117.379345 
L 104.437468 -114.998188 
L 104.027343 -112.617032 
L 103.641949 -110.235875 
L 103.278612 -107.854718 
L 102.935134 -105.473561 
L 102.60982 -103.092404 
L 102.301474 -100.711247 
L 102.009355 -98.33009 
L 101.733112 -95.948933 
L 101.472693 -93.567776 
L 101.228252 -91.186619 
L 101.000051 -88.805462 
L 100.78837 -86.424305 
L 100.593424 -84.043149 
L 100.415306 -81.661992 
L 100.253937 -79.280835 
L 100.109044 -76.899678 
L 99.980152 -74.518521 
L 99.866589 -72.137364 
L 99.767512 -69.756207 
L 99.681932 -67.37505 
z
" style="stroke: #3f3f3f; stroke-width: 1.25"/>
    </defs>
    <g clip-path="url(#p7e64667839)">
     <use xlink:href="#m2fac17adfd" x="0" y="360" style="fill: #3274a1; stroke: #3f3f3f; stroke-width: 1.25"/>
    </g>
   </g>
   <g id="PolyCollection_2">
    <defs>
     <path id="mfec8ab82f4" d="M 160.20054 -55.925455 
L 159.185388 -55.925455 
L 159.064513 -58.407462 
L 158.922962 -60.88947 
L 158.759264 -63.371478 
L 158.572317 -65.853486 
L 158.361491 -68.335494 
L 158.126714 -70.817502 
L 157.86854 -73.29951 
L 157.588188 -75.781518 
L 157.287549 -78.263526 
L 156.96915 -80.745534 
L 156.636078 -83.227542 
L 156.291862 -85.70955 
L 155.940319 -88.191558 
L 155.585366 -90.673566 
L 155.230812 -93.155574 
L 154.880144 -95.637582 
L 154.536306 -98.11959 
L 154.201503 -100.601598 
L 153.877021 -103.083606 
L 153.563095 -105.565614 
L 153.258811 -108.047622 
L 152.962069 -110.52963 
L 152.669592 -113.011637 
L 152.376998 -115.493645 
L 152.078921 -117.975653 
L 151.769178 -120.457661 
L 151.440988 -122.939669 
L 151.087217 -125.421677 
L 150.700653 -127.903685 
L 150.274295 -130.385693 
L 149.801639 -132.867701 
L 149.276964 -135.349709 
L 148.695582 -137.831717 
L 148.054063 -140.313725 
L 147.350417 -142.795733 
L 146.584222 -145.277741 
L 145.756705 -147.759749 
L 144.870768 -150.241757 
L 143.93097 -152.723765 
L 142.943466 -155.205773 
L 141.915919 -157.687781 
L 140.857386 -160.169789 
L 139.778193 -162.651797 
L 138.689799 -165.133804 
L 137.60465 -167.615812 
L 136.53603 -170.09782 
L 135.497888 -172.579828 
L 134.504642 -175.061836 
L 133.57095 -177.543844 
L 132.711432 -180.025852 
L 131.94035 -182.50786 
L 131.271237 -184.989868 
L 130.716485 -187.471876 
L 130.286918 -189.953884 
L 129.991354 -192.435892 
L 129.836214 -194.9179 
L 129.825175 -197.399908 
L 129.958929 -199.881916 
L 130.235061 -202.363924 
L 130.648067 -204.845932 
L 131.189528 -207.32794 
L 131.848427 -209.809948 
L 132.61161 -212.291956 
L 133.464349 -214.773964 
L 134.390977 -217.255971 
L 135.375556 -219.737979 
L 136.402522 -222.219987 
L 137.457271 -224.701995 
L 138.52665 -227.184003 
L 139.599308 -229.666011 
L 140.665918 -232.148019 
L 141.719229 -234.630027 
L 142.75399 -237.112035 
L 143.766742 -239.594043 
L 144.755513 -242.076051 
L 145.719458 -244.558059 
L 146.658462 -247.040067 
L 147.572763 -249.522075 
L 148.462606 -252.004083 
L 149.327969 -254.486091 
L 150.168367 -256.968099 
L 150.982748 -259.450107 
L 151.769471 -261.932115 
L 152.526378 -264.414123 
L 153.250913 -266.896131 
L 153.940304 -269.378138 
L 154.591758 -271.860146 
L 155.202669 -274.342154 
L 155.770806 -276.824162 
L 156.294475 -279.30617 
L 156.772636 -281.788178 
L 157.204979 -284.270186 
L 157.591942 -286.752194 
L 157.93469 -289.234202 
L 158.235055 -291.71621 
L 158.495436 -294.198218 
L 158.718685 -296.680226 
L 158.90798 -299.162234 
L 159.066694 -301.644242 
L 160.319235 -301.644242 
L 160.319235 -301.644242 
L 160.477949 -299.162234 
L 160.667243 -296.680226 
L 160.890492 -294.198218 
L 161.150873 -291.71621 
L 161.451238 -289.234202 
L 161.793987 -286.752194 
L 162.18095 -284.270186 
L 162.613292 -281.788178 
L 163.091454 -279.30617 
L 163.615123 -276.824162 
L 164.18326 -274.342154 
L 164.794171 -271.860146 
L 165.445625 -269.378138 
L 166.135015 -266.896131 
L 166.85955 -264.414123 
L 167.616457 -261.932115 
L 168.403181 -259.450107 
L 169.217561 -256.968099 
L 170.05796 -254.486091 
L 170.923323 -252.004083 
L 171.813166 -249.522075 
L 172.727466 -247.040067 
L 173.666471 -244.558059 
L 174.630415 -242.076051 
L 175.619187 -239.594043 
L 176.631938 -237.112035 
L 177.666699 -234.630027 
L 178.720011 -232.148019 
L 179.78662 -229.666011 
L 180.859279 -227.184003 
L 181.928657 -224.701995 
L 182.983407 -222.219987 
L 184.010372 -219.737979 
L 184.994952 -217.255971 
L 185.92158 -214.773964 
L 186.774319 -212.291956 
L 187.537502 -209.809948 
L 188.196401 -207.32794 
L 188.737861 -204.845932 
L 189.150868 -202.363924 
L 189.427 -199.881916 
L 189.560754 -197.399908 
L 189.549714 -194.9179 
L 189.394574 -192.435892 
L 189.099011 -189.953884 
L 188.669443 -187.471876 
L 188.114691 -184.989868 
L 187.445578 -182.50786 
L 186.674497 -180.025852 
L 185.814979 -177.543844 
L 184.881286 -175.061836 
L 183.88804 -172.579828 
L 182.849898 -170.09782 
L 181.781278 -167.615812 
L 180.696129 -165.133804 
L 179.607735 -162.651797 
L 178.528542 -160.169789 
L 177.47001 -157.687781 
L 176.442463 -155.205773 
L 175.454959 -152.723765 
L 174.515161 -150.241757 
L 173.629224 -147.759749 
L 172.801707 -145.277741 
L 172.035512 -142.795733 
L 171.331866 -140.313725 
L 170.690347 -137.831717 
L 170.108964 -135.349709 
L 169.584289 -132.867701 
L 169.111634 -130.385693 
L 168.685275 -127.903685 
L 168.298711 -125.421677 
L 167.94494 -122.939669 
L 167.61675 -120.457661 
L 167.307007 -117.975653 
L 167.00893 -115.493645 
L 166.716337 -113.011637 
L 166.42386 -110.52963 
L 166.127117 -108.047622 
L 165.822833 -105.565614 
L 165.508907 -103.083606 
L 165.184426 -100.601598 
L 164.849622 -98.11959 
L 164.505785 -95.637582 
L 164.155117 -93.155574 
L 163.800563 -90.673566 
L 163.445609 -88.191558 
L 163.094066 -85.70955 
L 162.749851 -83.227542 
L 162.416779 -80.745534 
L 162.09838 -78.263526 
L 161.797741 -75.781518 
L 161.517389 -73.29951 
L 161.259215 -70.817502 
L 161.024438 -68.335494 
L 160.813612 -65.853486 
L 160.626665 -63.371478 
L 160.462966 -60.88947 
L 160.321415 -58.407462 
L 160.20054 -55.925455 
z
" style="stroke: #3f3f3f; stroke-width: 1.25"/>
    </defs>
    <g clip-path="url(#p7e64667839)">
     <use xlink:href="#mfec8ab82f4" x="0" y="360" style="fill: #e1812c; stroke: #3f3f3f; stroke-width: 1.25"/>
    </g>
   </g>
   <g id="PolyCollection_3">
    <defs>
     <path id="mbdc083e8a0" d="M 250.785583 -113.355294 
L 249.817178 -113.355294 
L 249.665598 -115.596499 
L 249.477063 -117.837703 
L 249.245906 -120.078908 
L 248.966526 -122.320113 
L 248.633659 -124.561317 
L 248.242689 -126.802522 
L 247.78997 -129.043726 
L 247.273141 -131.284931 
L 246.691409 -133.526135 
L 246.045758 -135.76734 
L 245.339064 -138.008544 
L 244.576095 -140.249749 
L 243.763362 -142.490954 
L 242.908832 -144.732158 
L 242.021503 -146.973363 
L 241.110862 -149.214567 
L 240.186267 -151.455772 
L 239.256304 -153.696976 
L 238.328172 -155.938181 
L 237.407166 -158.179385 
L 236.496312 -160.42059 
L 235.596199 -162.661795 
L 234.705058 -164.902999 
L 233.819075 -167.144204 
L 232.932948 -169.385408 
L 232.040642 -171.626613 
L 231.136284 -173.867817 
L 230.215129 -176.109022 
L 229.274509 -178.350226 
L 228.31468 -180.591431 
L 227.339489 -182.832636 
L 226.356788 -185.07384 
L 225.378567 -187.315045 
L 224.420761 -189.556249 
L 223.50275 -191.797454 
L 222.646582 -194.038658 
L 221.875956 -196.279863 
L 221.21505 -198.521068 
L 220.687253 -200.762272 
L 220.3139 -203.003477 
L 220.113077 -205.244681 
L 220.098575 -207.485886 
L 220.279057 -209.72709 
L 220.657479 -211.968295 
L 221.2308 -214.209499 
L 221.989998 -216.450704 
L 222.920387 -218.691909 
L 224.002215 -220.933113 
L 225.211517 -223.174318 
L 226.521174 -225.415522 
L 227.90211 -227.656727 
L 229.324582 -229.897931 
L 230.759461 -232.139136 
L 232.17945 -234.38034 
L 233.56016 -236.621545 
L 234.880977 -238.86275 
L 236.125671 -241.103954 
L 237.282711 -243.345159 
L 238.345289 -245.586363 
L 239.311044 -247.827568 
L 240.181538 -250.068772 
L 240.961528 -252.309977 
L 241.658114 -254.551181 
L 242.279831 -256.792386 
L 242.835772 -259.033591 
L 243.334813 -261.274795 
L 243.784998 -263.516 
L 244.193128 -265.757204 
L 244.564566 -267.998409 
L 244.903255 -270.239613 
L 245.211925 -272.480818 
L 245.49242 -274.722022 
L 245.746123 -276.963227 
L 245.974377 -279.204432 
L 246.17886 -281.445636 
L 246.36187 -283.686841 
L 246.526462 -285.928045 
L 246.676447 -288.16925 
L 246.81624 -290.410454 
L 246.950599 -292.651659 
L 247.08427 -294.892863 
L 247.221618 -297.134068 
L 247.366263 -299.375273 
L 247.520791 -301.616477 
L 247.686554 -303.857682 
L 247.863602 -306.098886 
L 248.050726 -308.340091 
L 248.245624 -310.581295 
L 248.445151 -312.8225 
L 248.645628 -315.063704 
L 248.843166 -317.304909 
L 249.033989 -319.546114 
L 249.2147 -321.787318 
L 249.38249 -324.028523 
L 249.53527 -326.269727 
L 249.671731 -328.510932 
L 249.791324 -330.752136 
L 249.894193 -332.993341 
L 249.981061 -335.234545 
L 250.621701 -335.234545 
L 250.621701 -335.234545 
L 250.708569 -332.993341 
L 250.811437 -330.752136 
L 250.93103 -328.510932 
L 251.067491 -326.269727 
L 251.220272 -324.028523 
L 251.388061 -321.787318 
L 251.568772 -319.546114 
L 251.759595 -317.304909 
L 251.957134 -315.063704 
L 252.15761 -312.8225 
L 252.357137 -310.581295 
L 252.552035 -308.340091 
L 252.739159 -306.098886 
L 252.916207 -303.857682 
L 253.081971 -301.616477 
L 253.236498 -299.375273 
L 253.381143 -297.134068 
L 253.518491 -294.892863 
L 253.652163 -292.651659 
L 253.786521 -290.410454 
L 253.926315 -288.16925 
L 254.076299 -285.928045 
L 254.240891 -283.686841 
L 254.423901 -281.445636 
L 254.628385 -279.204432 
L 254.856638 -276.963227 
L 255.110341 -274.722022 
L 255.390837 -272.480818 
L 255.699506 -270.239613 
L 256.038196 -267.998409 
L 256.409634 -265.757204 
L 256.817763 -263.516 
L 257.267948 -261.274795 
L 257.766989 -259.033591 
L 258.32293 -256.792386 
L 258.944647 -254.551181 
L 259.641234 -252.309977 
L 260.421224 -250.068772 
L 261.291718 -247.827568 
L 262.257473 -245.586363 
L 263.320051 -243.345159 
L 264.477091 -241.103954 
L 265.721784 -238.86275 
L 267.042601 -236.621545 
L 268.423312 -234.38034 
L 269.843301 -232.139136 
L 271.278179 -229.897931 
L 272.700651 -227.656727 
L 274.081588 -225.415522 
L 275.391244 -223.174318 
L 276.600547 -220.933113 
L 277.682375 -218.691909 
L 278.612763 -216.450704 
L 279.371962 -214.209499 
L 279.945283 -211.968295 
L 280.323704 -209.72709 
L 280.504186 -207.485886 
L 280.489684 -205.244681 
L 280.288861 -203.003477 
L 279.915508 -200.762272 
L 279.387712 -198.521068 
L 278.726806 -196.279863 
L 277.95618 -194.038658 
L 277.100011 -191.797454 
L 276.182001 -189.556249 
L 275.224194 -187.315045 
L 274.245974 -185.07384 
L 273.263273 -182.832636 
L 272.288081 -180.591431 
L 271.328252 -178.350226 
L 270.387633 -176.109022 
L 269.466478 -173.867817 
L 268.56212 -171.626613 
L 267.669814 -169.385408 
L 266.783687 -167.144204 
L 265.897704 -164.902999 
L 265.006562 -162.661795 
L 264.10645 -160.42059 
L 263.195595 -158.179385 
L 262.27459 -155.938181 
L 261.346458 -153.696976 
L 260.416495 -151.455772 
L 259.491899 -149.214567 
L 258.581258 -146.973363 
L 257.693929 -144.732158 
L 256.839399 -142.490954 
L 256.026666 -140.249749 
L 255.263697 -138.008544 
L 254.557004 -135.76734 
L 253.911352 -133.526135 
L 253.32962 -131.284931 
L 252.812792 -129.043726 
L 252.360072 -126.802522 
L 251.969102 -124.561317 
L 251.636235 -122.320113 
L 251.356855 -120.078908 
L 251.125699 -117.837703 
L 250.937164 -115.596499 
L 250.785583 -113.355294 
z
" style="stroke: #3f3f3f; stroke-width: 1.25"/>
    </defs>
    <g clip-path="url(#p7e64667839)">
     <use xlink:href="#mbdc083e8a0" x="0" y="360" style="fill: #3274a1; stroke: #3f3f3f; stroke-width: 1.25"/>
    </g>
   </g>
   <g id="PolyCollection_4">
    <defs>
     <path id="m99c5b05381" d="M 311.398497 -77.718647 
L 310.015487 -77.718647 
L 309.835096 -79.729301 
L 309.61982 -81.739955 
L 309.366161 -83.750608 
L 309.071001 -85.761262 
L 308.731752 -87.771916 
L 308.346485 -89.782569 
L 307.914028 -91.793223 
L 307.43401 -93.803877 
L 306.906859 -95.814531 
L 306.333739 -97.825184 
L 305.716426 -99.835838 
L 305.057154 -101.846492 
L 304.358427 -103.857145 
L 303.622832 -105.867799 
L 302.852883 -107.878453 
L 302.05091 -109.889107 
L 301.219027 -111.89976 
L 300.359185 -113.910414 
L 299.473311 -115.921068 
L 298.563533 -117.931721 
L 297.632455 -119.942375 
L 296.68345 -121.953029 
L 295.72093 -123.963683 
L 294.750547 -125.974336 
L 293.779279 -127.98499 
L 292.815367 -129.995644 
L 291.868092 -132.006297 
L 290.947379 -134.016951 
L 290.063267 -136.027605 
L 289.225275 -138.038259 
L 288.441721 -140.048912 
L 287.719069 -142.059566 
L 287.06138 -144.07022 
L 286.469912 -146.080873 
L 285.942953 -148.091527 
L 285.475892 -150.102181 
L 285.061546 -152.112835 
L 284.690734 -154.123488 
L 284.353028 -156.134142 
L 284.037641 -158.144796 
L 283.734358 -160.155449 
L 283.434424 -162.166103 
L 283.131314 -164.176757 
L 282.821316 -166.187411 
L 282.503872 -168.198064 
L 282.181652 -170.208718 
L 281.860381 -172.219372 
L 281.548415 -174.230025 
L 281.256151 -176.240679 
L 280.9953 -178.251333 
L 280.778122 -180.261987 
L 280.616669 -182.27264 
L 280.522112 -184.283294 
L 280.504186 -186.293948 
L 280.570791 -188.304601 
L 280.727744 -190.315255 
L 280.978685 -192.325909 
L 281.325109 -194.336562 
L 281.766494 -196.347216 
L 282.300488 -198.35787 
L 282.923132 -200.368524 
L 283.629083 -202.379177 
L 284.411832 -204.389831 
L 285.263902 -206.400485 
L 286.177031 -208.411138 
L 287.142353 -210.421792 
L 288.150575 -212.432446 
L 289.192166 -214.4431 
L 290.257562 -216.453753 
L 291.337379 -218.464407 
L 292.422635 -220.475061 
L 293.504963 -222.485714 
L 294.576787 -224.496368 
L 295.631473 -226.507022 
L 296.663411 -228.517676 
L 297.668038 -230.528329 
L 298.641791 -232.538983 
L 299.582013 -234.549637 
L 300.486793 -236.56029 
L 301.354798 -238.570944 
L 302.185084 -240.581598 
L 302.976928 -242.592252 
L 303.729689 -244.602905 
L 304.442713 -246.613559 
L 305.115289 -248.624213 
L 305.746654 -250.634866 
L 306.336045 -252.64552 
L 306.882781 -254.656174 
L 307.38636 -256.666828 
L 307.846569 -258.677481 
L 308.263569 -260.688135 
L 308.637971 -262.698789 
L 308.970871 -264.709442 
L 309.263859 -266.720096 
L 309.518984 -268.73075 
L 309.738702 -270.741404 
L 309.925794 -272.752057 
L 310.083266 -274.762711 
L 310.214248 -276.773365 
L 311.199736 -276.773365 
L 311.199736 -276.773365 
L 311.330718 -274.762711 
L 311.488189 -272.752057 
L 311.675281 -270.741404 
L 311.895 -268.73075 
L 312.150125 -266.720096 
L 312.443112 -264.709442 
L 312.776012 -262.698789 
L 313.150414 -260.688135 
L 313.567415 -258.677481 
L 314.027623 -256.666828 
L 314.531203 -254.656174 
L 315.077938 -252.64552 
L 315.66733 -250.634866 
L 316.298695 -248.624213 
L 316.97127 -246.613559 
L 317.684294 -244.602905 
L 318.437055 -242.592252 
L 319.2289 -240.581598 
L 320.059185 -238.570944 
L 320.92719 -236.56029 
L 321.831971 -234.549637 
L 322.772192 -232.538983 
L 323.745946 -230.528329 
L 324.750572 -228.517676 
L 325.78251 -226.507022 
L 326.837196 -224.496368 
L 327.909021 -222.485714 
L 328.991348 -220.475061 
L 330.076605 -218.464407 
L 331.156422 -216.453753 
L 332.221817 -214.4431 
L 333.263408 -212.432446 
L 334.27163 -210.421792 
L 335.236953 -208.411138 
L 336.150082 -206.400485 
L 337.002151 -204.389831 
L 337.7849 -202.379177 
L 338.490852 -200.368524 
L 339.113495 -198.35787 
L 339.64749 -196.347216 
L 340.088874 -194.336562 
L 340.435298 -192.325909 
L 340.686239 -190.315255 
L 340.843192 -188.304601 
L 340.909797 -186.293948 
L 340.891872 -184.283294 
L 340.797315 -182.27264 
L 340.635862 -180.261987 
L 340.418683 -178.251333 
L 340.157832 -176.240679 
L 339.865568 -174.230025 
L 339.553603 -172.219372 
L 339.232331 -170.208718 
L 338.910112 -168.198064 
L 338.592667 -166.187411 
L 338.28267 -164.176757 
L 337.97956 -162.166103 
L 337.679625 -160.155449 
L 337.376342 -158.144796 
L 337.060955 -156.134142 
L 336.723249 -154.123488 
L 336.352437 -152.112835 
L 335.938092 -150.102181 
L 335.47103 -148.091527 
L 334.944072 -146.080873 
L 334.352604 -144.07022 
L 333.694914 -142.059566 
L 332.972263 -140.048912 
L 332.188708 -138.038259 
L 331.350716 -136.027605 
L 330.466605 -134.016951 
L 329.545892 -132.006297 
L 328.598616 -129.995644 
L 327.634705 -127.98499 
L 326.663437 -125.974336 
L 325.693054 -123.963683 
L 324.730534 -121.953029 
L 323.781528 -119.942375 
L 322.85045 -117.931721 
L 321.940673 -115.921068 
L 321.054799 -113.910414 
L 320.194956 -111.89976 
L 319.363073 -109.889107 
L 318.561101 -107.878453 
L 317.791152 -105.867799 
L 317.055557 -103.857145 
L 316.356829 -101.846492 
L 315.697557 -99.835838 
L 315.080245 -97.825184 
L 314.507124 -95.814531 
L 313.979974 -93.803877 
L 313.499956 -91.793223 
L 313.067498 -89.782569 
L 312.682232 -87.771916 
L 312.342983 -85.761262 
L 312.047823 -83.750608 
L 311.794164 -81.739955 
L 311.578888 -79.729301 
L 311.398497 -77.718647 
z
" style="stroke: #3f3f3f; stroke-width: 1.25"/>
    </defs>
    <g clip-path="url(#p7e64667839)">
     <use xlink:href="#m99c5b05381" x="0" y="360" style="fill: #e1812c; stroke: #3f3f3f; stroke-width: 1.25"/>
    </g>
   </g>
   <g id="patch_3">
    <path d="M 129.490159 444.904979 
L 129.490159 444.904979 
L 129.490159 444.904979 
L 129.490159 444.904979 
z
" clip-path="url(#p7e64667839)" style="fill: #3274a1; stroke: #3f3f3f; stroke-width: 1.25; stroke-linejoin: miter"/>
   </g>
   <g id="patch_4">
    <path d="M 129.490159 444.904979 
L 129.490159 444.904979 
L 129.490159 444.904979 
L 129.490159 444.904979 
z
" clip-path="url(#p7e64667839)" style="fill: #e1812c; stroke: #3f3f3f; stroke-width: 1.25; stroke-linejoin: miter"/>
   </g>
   <g id="line2d_8">
    <path d="M 99.287353 243.94483 
L 99.287353 105.570536 
" clip-path="url(#p7e64667839)" style="fill: none; stroke: #3f3f3f; stroke-width: 1.875; stroke-linecap: round"/>
   </g>
   <g id="line2d_9">
    <path d="M 99.287353 189.07563 
L 99.287353 123.009626 
" clip-path="url(#p7e64667839)" style="fill: none; stroke: #3f3f3f; stroke-width: 5.625; stroke-linecap: round"/>
   </g>
   <g id="line2d_10">
    <path d="M 99.287353 173.451128 
" clip-path="url(#p7e64667839)" style="fill: none; stroke: #3f3f3f; stroke-width: 1.5; stroke-linecap: round"/>
    <defs>
     <path id="m2fbabe6dde" d="M 2.34375 0 
L -2.34375 -0 
" style="stroke: #ffffff; stroke-width: 1.125"/>
    </defs>
    <g clip-path="url(#p7e64667839)">
     <use xlink:href="#m2fbabe6dde" x="99.287353" y="173.451128" style="fill: #ffffff; stroke: #ffffff; stroke-width: 1.125"/>
    </g>
   </g>
   <g id="line2d_11">
    <path d="M 159.692964 230.601018 
L 159.692964 105.03429 
" clip-path="url(#p7e64667839)" style="fill: none; stroke: #3f3f3f; stroke-width: 1.875; stroke-linecap: round"/>
   </g>
   <g id="line2d_12">
    <path d="M 159.692964 190.002057 
L 159.692964 149.690082 
" clip-path="url(#p7e64667839)" style="fill: none; stroke: #3f3f3f; stroke-width: 5.625; stroke-linecap: round"/>
   </g>
   <g id="line2d_13">
    <path d="M 159.692964 165.675306 
" clip-path="url(#p7e64667839)" style="fill: none; stroke: #3f3f3f; stroke-width: 1.5; stroke-linecap: round"/>
    <g clip-path="url(#p7e64667839)">
     <use xlink:href="#m2fbabe6dde" x="159.692964" y="165.675306" style="fill: #ffffff; stroke: #ffffff; stroke-width: 1.125"/>
    </g>
   </g>
   <g id="line2d_14">
    <path d="M 250.301381 210.183011 
L 250.301381 93.289821 
" clip-path="url(#p7e64667839)" style="fill: none; stroke: #3f3f3f; stroke-width: 1.875; stroke-linecap: round"/>
   </g>
   <g id="line2d_15">
    <path d="M 250.301381 173.926284 
L 250.301381 138.534818 
" clip-path="url(#p7e64667839)" style="fill: none; stroke: #3f3f3f; stroke-width: 5.625; stroke-linecap: round"/>
   </g>
   <g id="line2d_16">
    <path d="M 250.301381 154.716621 
" clip-path="url(#p7e64667839)" style="fill: none; stroke: #3f3f3f; stroke-width: 1.5; stroke-linecap: round"/>
    <g clip-path="url(#p7e64667839)">
     <use xlink:href="#m2fbabe6dde" x="250.301381" y="154.716621" style="fill: #ffffff; stroke: #ffffff; stroke-width: 1.125"/>
    </g>
   </g>
   <g id="line2d_17">
    <path d="M 310.706992 246.152971 
L 310.706992 119.355017 
" clip-path="url(#p7e64667839)" style="fill: none; stroke: #3f3f3f; stroke-width: 1.875; stroke-linecap: round"/>
   </g>
   <g id="line2d_18">
    <path d="M 310.706992 211.036392 
L 310.706992 158.023727 
" clip-path="url(#p7e64667839)" style="fill: none; stroke: #3f3f3f; stroke-width: 5.625; stroke-linecap: round"/>
   </g>
   <g id="line2d_19">
    <path d="M 310.706992 179.723725 
" clip-path="url(#p7e64667839)" style="fill: none; stroke: #3f3f3f; stroke-width: 1.5; stroke-linecap: round"/>
    <g clip-path="url(#p7e64667839)">
     <use xlink:href="#m2fbabe6dde" x="310.706992" y="179.723725" style="fill: #ffffff; stroke: #ffffff; stroke-width: 1.125"/>
    </g>
   </g>
   <g id="patch_5">
    <path d="M 53.983145 318.04 
L 53.983145 10.8 
" style="fill: none; stroke: #cccccc; stroke-width: 0.8; stroke-linejoin: miter; stroke-linecap: square"/>
   </g>
   <g id="patch_6">
    <path d="M 53.983145 318.04 
L 356.0112 318.04 
" style="fill: none; stroke: #cccccc; stroke-width: 0.8; stroke-linejoin: miter; stroke-linecap: square"/>
   </g>
  </g>
  <g id="legend_1">
   <g id="text_12">
    <!-- time -->
    <g style="fill: #262626" transform="translate(365.045625 168.439844) scale(0.1 -0.1)">
     <use xlink:href="#ArialMT-74"/>
     <use xlink:href="#ArialMT-69" x="27.783203"/>
     <use xlink:href="#ArialMT-6d" x="50"/>
     <use xlink:href="#ArialMT-65" x="133.300781"/>
    </g>
   </g>
   <g id="patch_7">
    <path d="M 359.101875 182.585156 
L 379.101875 182.585156 
L 379.101875 175.585156 
L 359.101875 175.585156 
z
" style="fill: #3274a1; stroke: #3f3f3f; stroke-width: 1.25; stroke-linejoin: miter"/>
   </g>
   <g id="text_13">
    <!-- i -->
    <g style="fill: #262626" transform="translate(387.101875 182.585156) scale(0.1 -0.1)">
     <use xlink:href="#ArialMT-69"/>
    </g>
   </g>
   <g id="patch_8">
    <path d="M 359.101875 196.730469 
L 379.101875 196.730469 
L 379.101875 189.730469 
L 359.101875 189.730469 
z
" style="fill: #e1812c; stroke: #3f3f3f; stroke-width: 1.25; stroke-linejoin: miter"/>
   </g>
   <g id="text_14">
    <!-- f -->
    <g style="fill: #262626" transform="translate(387.101875 196.730469) scale(0.1 -0.1)">
     <use xlink:href="#ArialMT-66"/>
    </g>
   </g>
  </g>
 </g>
 <defs>
  <clipPath id="p7e64667839">
   <rect x="53.983145" y="10.8" width="302.028055" height="307.24"/>
  </clipPath>
 </defs>
</svg>
