<?xml version="1.0" encoding="utf-8" standalone="no"?>
<!DOCTYPE svg PUBLIC "-//W3C//DTD SVG 1.1//EN"
  "http://www.w3.org/Graphics/SVG/1.1/DTD/svg11.dtd">
<svg xmlns:xlink="http://www.w3.org/1999/xlink" width="398.88pt" height="360pt" viewBox="0 0 398.88 360" xmlns="http://www.w3.org/2000/svg" version="1.1">
 <metadata>
  <rdf:RDF xmlns:dc="http://purl.org/dc/elements/1.1/" xmlns:cc="http://creativecommons.org/ns#" xmlns:rdf="http://www.w3.org/1999/02/22-rdf-syntax-ns#">
   <cc:Work>
    <dc:type rdf:resource="http://purl.org/dc/dcmitype/StillImage"/>
    <dc:date>2024-09-11T03:31:54.457742</dc:date>
    <dc:format>image/svg+xml</dc:format>
    <dc:creator>
     <cc:Agent>
      <dc:title>Matplotlib v3.8.3, https://matplotlib.org/</dc:title>
     </cc:Agent>
    </dc:creator>
   </cc:Work>
  </rdf:RDF>
 </metadata>
 <defs>
  <style type="text/css">*{stroke-linejoin: round; stroke-linecap: butt}</style>
 </defs>
 <g id="figure_1">
  <g id="patch_1">
   <path d="M 0 360 
L 398.88 360 
L 398.88 0 
L 0 0 
z
" style="fill: #ffffff"/>
  </g>
  <g id="axes_1">
   <g id="patch_2">
    <path d="M 50.891825 318.04 
L 356.0112 318.04 
L 356.0112 10.8 
L 50.891825 10.8 
z
" style="fill: #ffffff"/>
   </g>
   <g id="matplotlib.axis_1">
    <g id="xtick_1">
     <g id="text_1">
      <!-- f -->
      <g style="fill: #262626" transform="translate(125.782606 332.197812) scale(0.1 -0.1)">
       <defs>
        <path id="ArialMT-66" d="M 556 0 
L 556 2881 
L 59 2881 
L 59 3319 
L 556 3319 
L 556 3672 
Q 556 4006 616 4169 
Q 697 4388 901 4523 
Q 1106 4659 1475 4659 
Q 1713 4659 2000 4603 
L 1916 4113 
Q 1741 4144 1584 4144 
Q 1328 4144 1222 4034 
Q 1116 3925 1116 3625 
L 1116 3319 
L 1763 3319 
L 1763 2881 
L 1116 2881 
L 1116 0 
L 556 0 
z
" transform="scale(0.015625)"/>
       </defs>
       <use xlink:href="#ArialMT-66"/>
      </g>
     </g>
    </g>
    <g id="xtick_2">
     <g id="text_2">
      <!-- m -->
      <g style="fill: #262626" transform="translate(275.566512 332.197812) scale(0.1 -0.1)">
       <defs>
        <path id="ArialMT-6d" d="M 422 0 
L 422 3319 
L 925 3319 
L 925 2853 
Q 1081 3097 1340 3245 
Q 1600 3394 1931 3394 
Q 2300 3394 2536 3241 
Q 2772 3088 2869 2813 
Q 3263 3394 3894 3394 
Q 4388 3394 4653 3120 
Q 4919 2847 4919 2278 
L 4919 0 
L 4359 0 
L 4359 2091 
Q 4359 2428 4304 2576 
Q 4250 2725 4106 2815 
Q 3963 2906 3769 2906 
Q 3419 2906 3187 2673 
Q 2956 2441 2956 1928 
L 2956 0 
L 2394 0 
L 2394 2156 
Q 2394 2531 2256 2718 
Q 2119 2906 1806 2906 
Q 1569 2906 1367 2781 
Q 1166 2656 1075 2415 
Q 984 2175 984 1722 
L 984 0 
L 422 0 
z
" transform="scale(0.015625)"/>
       </defs>
       <use xlink:href="#ArialMT-6d"/>
      </g>
     </g>
    </g>
    <g id="text_3">
     <!-- sex -->
     <g style="fill: #262626" transform="translate(195.671044 345.343125) scale(0.1 -0.1)">
      <defs>
       <path id="ArialMT-73" d="M 197 991 
L 753 1078 
Q 800 744 1014 566 
Q 1228 388 1613 388 
Q 2000 388 2187 545 
Q 2375 703 2375 916 
Q 2375 1106 2209 1216 
Q 2094 1291 1634 1406 
Q 1016 1563 777 1677 
Q 538 1791 414 1992 
Q 291 2194 291 2438 
Q 291 2659 392 2848 
Q 494 3038 669 3163 
Q 800 3259 1026 3326 
Q 1253 3394 1513 3394 
Q 1903 3394 2198 3281 
Q 2494 3169 2634 2976 
Q 2775 2784 2828 2463 
L 2278 2388 
Q 2241 2644 2061 2787 
Q 1881 2931 1553 2931 
Q 1166 2931 1000 2803 
Q 834 2675 834 2503 
Q 834 2394 903 2306 
Q 972 2216 1119 2156 
Q 1203 2125 1616 2013 
Q 2213 1853 2448 1751 
Q 2684 1650 2818 1456 
Q 2953 1263 2953 975 
Q 2953 694 2789 445 
Q 2625 197 2315 61 
Q 2006 -75 1616 -75 
Q 969 -75 630 194 
Q 291 463 197 991 
z
" transform="scale(0.015625)"/>
       <path id="ArialMT-65" d="M 2694 1069 
L 3275 997 
Q 3138 488 2766 206 
Q 2394 -75 1816 -75 
Q 1088 -75 661 373 
Q 234 822 234 1631 
Q 234 2469 665 2931 
Q 1097 3394 1784 3394 
Q 2450 3394 2872 2941 
Q 3294 2488 3294 1666 
Q 3294 1616 3291 1516 
L 816 1516 
Q 847 969 1125 678 
Q 1403 388 1819 388 
Q 2128 388 2347 550 
Q 2566 713 2694 1069 
z
M 847 1978 
L 2700 1978 
Q 2663 2397 2488 2606 
Q 2219 2931 1791 2931 
Q 1403 2931 1139 2672 
Q 875 2413 847 1978 
z
" transform="scale(0.015625)"/>
       <path id="ArialMT-78" d="M 47 0 
L 1259 1725 
L 138 3319 
L 841 3319 
L 1350 2541 
Q 1494 2319 1581 2169 
Q 1719 2375 1834 2534 
L 2394 3319 
L 3066 3319 
L 1919 1756 
L 3153 0 
L 2463 0 
L 1781 1031 
L 1600 1309 
L 728 0 
L 47 0 
z
" transform="scale(0.015625)"/>
      </defs>
      <use xlink:href="#ArialMT-73"/>
      <use xlink:href="#ArialMT-65" x="50"/>
      <use xlink:href="#ArialMT-78" x="105.615234"/>
     </g>
    </g>
   </g>
   <g id="matplotlib.axis_2">
    <g id="ytick_1">
     <g id="line2d_1">
      <path d="M 50.891825 316.362388 
L 356.0112 316.362388 
" clip-path="url(#pa821ef80d9)" style="fill: none; stroke: #cccccc; stroke-width: 0.8; stroke-linecap: round"/>
     </g>
     <g id="text_4">
      <!-- 0.4 -->
      <g style="fill: #262626" transform="translate(29.991825 319.941294) scale(0.1 -0.1)">
       <defs>
        <path id="ArialMT-30" d="M 266 2259 
Q 266 3072 433 3567 
Q 600 4063 929 4331 
Q 1259 4600 1759 4600 
Q 2128 4600 2406 4451 
Q 2684 4303 2865 4023 
Q 3047 3744 3150 3342 
Q 3253 2941 3253 2259 
Q 3253 1453 3087 958 
Q 2922 463 2592 192 
Q 2263 -78 1759 -78 
Q 1097 -78 719 397 
Q 266 969 266 2259 
z
M 844 2259 
Q 844 1131 1108 757 
Q 1372 384 1759 384 
Q 2147 384 2411 759 
Q 2675 1134 2675 2259 
Q 2675 3391 2411 3762 
Q 2147 4134 1753 4134 
Q 1366 4134 1134 3806 
Q 844 3388 844 2259 
z
" transform="scale(0.015625)"/>
        <path id="ArialMT-2e" d="M 581 0 
L 581 641 
L 1222 641 
L 1222 0 
L 581 0 
z
" transform="scale(0.015625)"/>
        <path id="ArialMT-34" d="M 2069 0 
L 2069 1097 
L 81 1097 
L 81 1613 
L 2172 4581 
L 2631 4581 
L 2631 1613 
L 3250 1613 
L 3250 1097 
L 2631 1097 
L 2631 0 
L 2069 0 
z
M 2069 1613 
L 2069 3678 
L 634 1613 
L 2069 1613 
z
" transform="scale(0.015625)"/>
       </defs>
       <use xlink:href="#ArialMT-30"/>
       <use xlink:href="#ArialMT-2e" x="55.615234"/>
       <use xlink:href="#ArialMT-34" x="83.398438"/>
      </g>
     </g>
    </g>
    <g id="ytick_2">
     <g id="line2d_2">
      <path d="M 50.891825 270.378457 
L 356.0112 270.378457 
" clip-path="url(#pa821ef80d9)" style="fill: none; stroke: #cccccc; stroke-width: 0.8; stroke-linecap: round"/>
     </g>
     <g id="text_5">
      <!-- 0.6 -->
      <g style="fill: #262626" transform="translate(29.991825 273.957364) scale(0.1 -0.1)">
       <defs>
        <path id="ArialMT-36" d="M 3184 3459 
L 2625 3416 
Q 2550 3747 2413 3897 
Q 2184 4138 1850 4138 
Q 1581 4138 1378 3988 
Q 1113 3794 959 3422 
Q 806 3050 800 2363 
Q 1003 2672 1297 2822 
Q 1591 2972 1913 2972 
Q 2475 2972 2870 2558 
Q 3266 2144 3266 1488 
Q 3266 1056 3080 686 
Q 2894 316 2569 119 
Q 2244 -78 1831 -78 
Q 1128 -78 684 439 
Q 241 956 241 2144 
Q 241 3472 731 4075 
Q 1159 4600 1884 4600 
Q 2425 4600 2770 4297 
Q 3116 3994 3184 3459 
z
M 888 1484 
Q 888 1194 1011 928 
Q 1134 663 1356 523 
Q 1578 384 1822 384 
Q 2178 384 2434 671 
Q 2691 959 2691 1453 
Q 2691 1928 2437 2201 
Q 2184 2475 1800 2475 
Q 1419 2475 1153 2201 
Q 888 1928 888 1484 
z
" transform="scale(0.015625)"/>
       </defs>
       <use xlink:href="#ArialMT-30"/>
       <use xlink:href="#ArialMT-2e" x="55.615234"/>
       <use xlink:href="#ArialMT-36" x="83.398438"/>
      </g>
     </g>
    </g>
    <g id="ytick_3">
     <g id="line2d_3">
      <path d="M 50.891825 224.394527 
L 356.0112 224.394527 
" clip-path="url(#pa821ef80d9)" style="fill: none; stroke: #cccccc; stroke-width: 0.8; stroke-linecap: round"/>
     </g>
     <g id="text_6">
      <!-- 0.8 -->
      <g style="fill: #262626" transform="translate(29.991825 227.973433) scale(0.1 -0.1)">
       <defs>
        <path id="ArialMT-38" d="M 1131 2484 
Q 781 2613 612 2850 
Q 444 3088 444 3419 
Q 444 3919 803 4259 
Q 1163 4600 1759 4600 
Q 2359 4600 2725 4251 
Q 3091 3903 3091 3403 
Q 3091 3084 2923 2848 
Q 2756 2613 2416 2484 
Q 2838 2347 3058 2040 
Q 3278 1734 3278 1309 
Q 3278 722 2862 322 
Q 2447 -78 1769 -78 
Q 1091 -78 675 323 
Q 259 725 259 1325 
Q 259 1772 486 2073 
Q 713 2375 1131 2484 
z
M 1019 3438 
Q 1019 3113 1228 2906 
Q 1438 2700 1772 2700 
Q 2097 2700 2305 2904 
Q 2513 3109 2513 3406 
Q 2513 3716 2298 3927 
Q 2084 4138 1766 4138 
Q 1444 4138 1231 3931 
Q 1019 3725 1019 3438 
z
M 838 1322 
Q 838 1081 952 856 
Q 1066 631 1291 507 
Q 1516 384 1775 384 
Q 2178 384 2440 643 
Q 2703 903 2703 1303 
Q 2703 1709 2433 1975 
Q 2163 2241 1756 2241 
Q 1359 2241 1098 1978 
Q 838 1716 838 1322 
z
" transform="scale(0.015625)"/>
       </defs>
       <use xlink:href="#ArialMT-30"/>
       <use xlink:href="#ArialMT-2e" x="55.615234"/>
       <use xlink:href="#ArialMT-38" x="83.398438"/>
      </g>
     </g>
    </g>
    <g id="ytick_4">
     <g id="line2d_4">
      <path d="M 50.891825 178.410597 
L 356.0112 178.410597 
" clip-path="url(#pa821ef80d9)" style="fill: none; stroke: #cccccc; stroke-width: 0.8; stroke-linecap: round"/>
     </g>
     <g id="text_7">
      <!-- 1.0 -->
      <g style="fill: #262626" transform="translate(29.991825 181.989503) scale(0.1 -0.1)">
       <defs>
        <path id="ArialMT-31" d="M 2384 0 
L 1822 0 
L 1822 3584 
Q 1619 3391 1289 3197 
Q 959 3003 697 2906 
L 697 3450 
Q 1169 3672 1522 3987 
Q 1875 4303 2022 4600 
L 2384 4600 
L 2384 0 
z
" transform="scale(0.015625)"/>
       </defs>
       <use xlink:href="#ArialMT-31"/>
       <use xlink:href="#ArialMT-2e" x="55.615234"/>
       <use xlink:href="#ArialMT-30" x="83.398438"/>
      </g>
     </g>
    </g>
    <g id="ytick_5">
     <g id="line2d_5">
      <path d="M 50.891825 132.426666 
L 356.0112 132.426666 
" clip-path="url(#pa821ef80d9)" style="fill: none; stroke: #cccccc; stroke-width: 0.8; stroke-linecap: round"/>
     </g>
     <g id="text_8">
      <!-- 1.2 -->
      <g style="fill: #262626" transform="translate(29.991825 136.005573) scale(0.1 -0.1)">
       <defs>
        <path id="ArialMT-32" d="M 3222 541 
L 3222 0 
L 194 0 
Q 188 203 259 391 
Q 375 700 629 1000 
Q 884 1300 1366 1694 
Q 2113 2306 2375 2664 
Q 2638 3022 2638 3341 
Q 2638 3675 2398 3904 
Q 2159 4134 1775 4134 
Q 1369 4134 1125 3890 
Q 881 3647 878 3216 
L 300 3275 
Q 359 3922 746 4261 
Q 1134 4600 1788 4600 
Q 2447 4600 2831 4234 
Q 3216 3869 3216 3328 
Q 3216 3053 3103 2787 
Q 2991 2522 2730 2228 
Q 2469 1934 1863 1422 
Q 1356 997 1212 845 
Q 1069 694 975 541 
L 3222 541 
z
" transform="scale(0.015625)"/>
       </defs>
       <use xlink:href="#ArialMT-31"/>
       <use xlink:href="#ArialMT-2e" x="55.615234"/>
       <use xlink:href="#ArialMT-32" x="83.398438"/>
      </g>
     </g>
    </g>
    <g id="ytick_6">
     <g id="line2d_6">
      <path d="M 50.891825 86.442736 
L 356.0112 86.442736 
" clip-path="url(#pa821ef80d9)" style="fill: none; stroke: #cccccc; stroke-width: 0.8; stroke-linecap: round"/>
     </g>
     <g id="text_9">
      <!-- 1.4 -->
      <g style="fill: #262626" transform="translate(29.991825 90.021642) scale(0.1 -0.1)">
       <use xlink:href="#ArialMT-31"/>
       <use xlink:href="#ArialMT-2e" x="55.615234"/>
       <use xlink:href="#ArialMT-34" x="83.398438"/>
      </g>
     </g>
    </g>
    <g id="ytick_7">
     <g id="line2d_7">
      <path d="M 50.891825 40.458806 
L 356.0112 40.458806 
" clip-path="url(#pa821ef80d9)" style="fill: none; stroke: #cccccc; stroke-width: 0.8; stroke-linecap: round"/>
     </g>
     <g id="text_10">
      <!-- 1.6 -->
      <g style="fill: #262626" transform="translate(29.991825 44.037712) scale(0.1 -0.1)">
       <use xlink:href="#ArialMT-31"/>
       <use xlink:href="#ArialMT-2e" x="55.615234"/>
       <use xlink:href="#ArialMT-36" x="83.398438"/>
      </g>
     </g>
    </g>
    <g id="text_11">
     <!-- Respiratory exchange ratio -->
     <g style="fill: #262626" transform="translate(23.887137 224.169219) rotate(-90) scale(0.1 -0.1)">
      <defs>
       <path id="ArialMT-52" d="M 503 0 
L 503 4581 
L 2534 4581 
Q 3147 4581 3465 4457 
Q 3784 4334 3975 4021 
Q 4166 3709 4166 3331 
Q 4166 2844 3850 2509 
Q 3534 2175 2875 2084 
Q 3116 1969 3241 1856 
Q 3506 1613 3744 1247 
L 4541 0 
L 3778 0 
L 3172 953 
Q 2906 1366 2734 1584 
Q 2563 1803 2427 1890 
Q 2291 1978 2150 2013 
Q 2047 2034 1813 2034 
L 1109 2034 
L 1109 0 
L 503 0 
z
M 1109 2559 
L 2413 2559 
Q 2828 2559 3062 2645 
Q 3297 2731 3419 2920 
Q 3541 3109 3541 3331 
Q 3541 3656 3305 3865 
Q 3069 4075 2559 4075 
L 1109 4075 
L 1109 2559 
z
" transform="scale(0.015625)"/>
       <path id="ArialMT-70" d="M 422 -1272 
L 422 3319 
L 934 3319 
L 934 2888 
Q 1116 3141 1344 3267 
Q 1572 3394 1897 3394 
Q 2322 3394 2647 3175 
Q 2972 2956 3137 2557 
Q 3303 2159 3303 1684 
Q 3303 1175 3120 767 
Q 2938 359 2589 142 
Q 2241 -75 1856 -75 
Q 1575 -75 1351 44 
Q 1128 163 984 344 
L 984 -1272 
L 422 -1272 
z
M 931 1641 
Q 931 1000 1190 694 
Q 1450 388 1819 388 
Q 2194 388 2461 705 
Q 2728 1022 2728 1688 
Q 2728 2322 2467 2637 
Q 2206 2953 1844 2953 
Q 1484 2953 1207 2617 
Q 931 2281 931 1641 
z
" transform="scale(0.015625)"/>
       <path id="ArialMT-69" d="M 425 3934 
L 425 4581 
L 988 4581 
L 988 3934 
L 425 3934 
z
M 425 0 
L 425 3319 
L 988 3319 
L 988 0 
L 425 0 
z
" transform="scale(0.015625)"/>
       <path id="ArialMT-72" d="M 416 0 
L 416 3319 
L 922 3319 
L 922 2816 
Q 1116 3169 1280 3281 
Q 1444 3394 1641 3394 
Q 1925 3394 2219 3213 
L 2025 2691 
Q 1819 2813 1613 2813 
Q 1428 2813 1281 2702 
Q 1134 2591 1072 2394 
Q 978 2094 978 1738 
L 978 0 
L 416 0 
z
" transform="scale(0.015625)"/>
       <path id="ArialMT-61" d="M 2588 409 
Q 2275 144 1986 34 
Q 1697 -75 1366 -75 
Q 819 -75 525 192 
Q 231 459 231 875 
Q 231 1119 342 1320 
Q 453 1522 633 1644 
Q 813 1766 1038 1828 
Q 1203 1872 1538 1913 
Q 2219 1994 2541 2106 
Q 2544 2222 2544 2253 
Q 2544 2597 2384 2738 
Q 2169 2928 1744 2928 
Q 1347 2928 1158 2789 
Q 969 2650 878 2297 
L 328 2372 
Q 403 2725 575 2942 
Q 747 3159 1072 3276 
Q 1397 3394 1825 3394 
Q 2250 3394 2515 3294 
Q 2781 3194 2906 3042 
Q 3031 2891 3081 2659 
Q 3109 2516 3109 2141 
L 3109 1391 
Q 3109 606 3145 398 
Q 3181 191 3288 0 
L 2700 0 
Q 2613 175 2588 409 
z
M 2541 1666 
Q 2234 1541 1622 1453 
Q 1275 1403 1131 1340 
Q 988 1278 909 1158 
Q 831 1038 831 891 
Q 831 666 1001 516 
Q 1172 366 1500 366 
Q 1825 366 2078 508 
Q 2331 650 2450 897 
Q 2541 1088 2541 1459 
L 2541 1666 
z
" transform="scale(0.015625)"/>
       <path id="ArialMT-74" d="M 1650 503 
L 1731 6 
Q 1494 -44 1306 -44 
Q 1000 -44 831 53 
Q 663 150 594 308 
Q 525 466 525 972 
L 525 2881 
L 113 2881 
L 113 3319 
L 525 3319 
L 525 4141 
L 1084 4478 
L 1084 3319 
L 1650 3319 
L 1650 2881 
L 1084 2881 
L 1084 941 
Q 1084 700 1114 631 
Q 1144 563 1211 522 
Q 1278 481 1403 481 
Q 1497 481 1650 503 
z
" transform="scale(0.015625)"/>
       <path id="ArialMT-6f" d="M 213 1659 
Q 213 2581 725 3025 
Q 1153 3394 1769 3394 
Q 2453 3394 2887 2945 
Q 3322 2497 3322 1706 
Q 3322 1066 3130 698 
Q 2938 331 2570 128 
Q 2203 -75 1769 -75 
Q 1072 -75 642 372 
Q 213 819 213 1659 
z
M 791 1659 
Q 791 1022 1069 705 
Q 1347 388 1769 388 
Q 2188 388 2466 706 
Q 2744 1025 2744 1678 
Q 2744 2294 2464 2611 
Q 2184 2928 1769 2928 
Q 1347 2928 1069 2612 
Q 791 2297 791 1659 
z
" transform="scale(0.015625)"/>
       <path id="ArialMT-79" d="M 397 -1278 
L 334 -750 
Q 519 -800 656 -800 
Q 844 -800 956 -737 
Q 1069 -675 1141 -563 
Q 1194 -478 1313 -144 
Q 1328 -97 1363 -6 
L 103 3319 
L 709 3319 
L 1400 1397 
Q 1534 1031 1641 628 
Q 1738 1016 1872 1384 
L 2581 3319 
L 3144 3319 
L 1881 -56 
Q 1678 -603 1566 -809 
Q 1416 -1088 1222 -1217 
Q 1028 -1347 759 -1347 
Q 597 -1347 397 -1278 
z
" transform="scale(0.015625)"/>
       <path id="ArialMT-20" transform="scale(0.015625)"/>
       <path id="ArialMT-63" d="M 2588 1216 
L 3141 1144 
Q 3050 572 2676 248 
Q 2303 -75 1759 -75 
Q 1078 -75 664 370 
Q 250 816 250 1647 
Q 250 2184 428 2587 
Q 606 2991 970 3192 
Q 1334 3394 1763 3394 
Q 2303 3394 2647 3120 
Q 2991 2847 3088 2344 
L 2541 2259 
Q 2463 2594 2264 2762 
Q 2066 2931 1784 2931 
Q 1359 2931 1093 2626 
Q 828 2322 828 1663 
Q 828 994 1084 691 
Q 1341 388 1753 388 
Q 2084 388 2306 591 
Q 2528 794 2588 1216 
z
" transform="scale(0.015625)"/>
       <path id="ArialMT-68" d="M 422 0 
L 422 4581 
L 984 4581 
L 984 2938 
Q 1378 3394 1978 3394 
Q 2347 3394 2619 3248 
Q 2891 3103 3008 2847 
Q 3125 2591 3125 2103 
L 3125 0 
L 2563 0 
L 2563 2103 
Q 2563 2525 2380 2717 
Q 2197 2909 1863 2909 
Q 1613 2909 1392 2779 
Q 1172 2650 1078 2428 
Q 984 2206 984 1816 
L 984 0 
L 422 0 
z
" transform="scale(0.015625)"/>
       <path id="ArialMT-6e" d="M 422 0 
L 422 3319 
L 928 3319 
L 928 2847 
Q 1294 3394 1984 3394 
Q 2284 3394 2536 3286 
Q 2788 3178 2913 3003 
Q 3038 2828 3088 2588 
Q 3119 2431 3119 2041 
L 3119 0 
L 2556 0 
L 2556 2019 
Q 2556 2363 2490 2533 
Q 2425 2703 2258 2804 
Q 2091 2906 1866 2906 
Q 1506 2906 1245 2678 
Q 984 2450 984 1813 
L 984 0 
L 422 0 
z
" transform="scale(0.015625)"/>
       <path id="ArialMT-67" d="M 319 -275 
L 866 -356 
Q 900 -609 1056 -725 
Q 1266 -881 1628 -881 
Q 2019 -881 2231 -725 
Q 2444 -569 2519 -288 
Q 2563 -116 2559 434 
Q 2191 0 1641 0 
Q 956 0 581 494 
Q 206 988 206 1678 
Q 206 2153 378 2554 
Q 550 2956 876 3175 
Q 1203 3394 1644 3394 
Q 2231 3394 2613 2919 
L 2613 3319 
L 3131 3319 
L 3131 450 
Q 3131 -325 2973 -648 
Q 2816 -972 2473 -1159 
Q 2131 -1347 1631 -1347 
Q 1038 -1347 672 -1080 
Q 306 -813 319 -275 
z
M 784 1719 
Q 784 1066 1043 766 
Q 1303 466 1694 466 
Q 2081 466 2343 764 
Q 2606 1063 2606 1700 
Q 2606 2309 2336 2618 
Q 2066 2928 1684 2928 
Q 1309 2928 1046 2623 
Q 784 2319 784 1719 
z
" transform="scale(0.015625)"/>
      </defs>
      <use xlink:href="#ArialMT-52"/>
      <use xlink:href="#ArialMT-65" x="72.216797"/>
      <use xlink:href="#ArialMT-73" x="127.832031"/>
      <use xlink:href="#ArialMT-70" x="177.832031"/>
      <use xlink:href="#ArialMT-69" x="233.447266"/>
      <use xlink:href="#ArialMT-72" x="255.664062"/>
      <use xlink:href="#ArialMT-61" x="288.964844"/>
      <use xlink:href="#ArialMT-74" x="344.580078"/>
      <use xlink:href="#ArialMT-6f" x="372.363281"/>
      <use xlink:href="#ArialMT-72" x="427.978516"/>
      <use xlink:href="#ArialMT-79" x="461.279297"/>
      <use xlink:href="#ArialMT-20" x="511.279297"/>
      <use xlink:href="#ArialMT-65" x="539.0625"/>
      <use xlink:href="#ArialMT-78" x="594.677734"/>
      <use xlink:href="#ArialMT-63" x="644.677734"/>
      <use xlink:href="#ArialMT-68" x="694.677734"/>
      <use xlink:href="#ArialMT-61" x="750.292969"/>
      <use xlink:href="#ArialMT-6e" x="805.908203"/>
      <use xlink:href="#ArialMT-67" x="861.523438"/>
      <use xlink:href="#ArialMT-65" x="917.138672"/>
      <use xlink:href="#ArialMT-20" x="972.753906"/>
      <use xlink:href="#ArialMT-72" x="1000.537109"/>
      <use xlink:href="#ArialMT-61" x="1033.837891"/>
      <use xlink:href="#ArialMT-74" x="1089.453125"/>
      <use xlink:href="#ArialMT-69" x="1117.236328"/>
      <use xlink:href="#ArialMT-6f" x="1139.453125"/>
     </g>
    </g>
   </g>
   <g id="PolyCollection_1">
    <defs>
     <path id="m458026885e" d="M 97.037138 -55.925455 
L 96.282324 -55.925455 
L 96.189953 -58.746758 
L 96.082237 -61.568062 
L 95.958613 -64.389366 
L 95.81903 -67.21067 
L 95.664039 -70.031974 
L 95.494873 -72.853278 
L 95.313479 -75.674582 
L 95.122507 -78.495886 
L 94.925243 -81.31719 
L 94.725477 -84.138494 
L 94.527319 -86.959798 
L 94.334954 -89.781102 
L 94.152366 -92.602406 
L 93.983028 -95.42371 
L 93.829606 -98.245014 
L 93.69367 -101.066318 
L 93.575462 -103.887622 
L 93.47373 -106.708926 
L 93.385638 -109.53023 
L 93.306784 -112.351534 
L 93.231292 -115.172837 
L 93.152015 -117.994141 
L 93.060799 -120.815445 
L 92.948807 -123.636749 
L 92.806879 -126.458053 
L 92.625903 -129.279357 
L 92.397174 -132.100661 
L 92.112718 -134.921965 
L 91.765582 -137.743269 
L 91.350061 -140.564573 
L 90.861882 -143.385877 
L 90.298324 -146.207181 
L 89.658307 -149.028485 
L 88.942426 -151.849789 
L 88.152972 -154.671093 
L 87.29391 -157.492397 
L 86.370857 -160.313701 
L 85.391024 -163.135005 
L 84.363152 -165.956309 
L 83.297422 -168.777612 
L 82.205343 -171.598916 
L 81.099614 -174.42022 
L 79.993958 -177.241524 
L 78.902923 -180.062828 
L 77.841656 -182.884132 
L 76.825642 -185.705436 
L 75.870421 -188.52674 
L 74.991271 -191.348044 
L 74.202867 -194.169348 
L 73.518924 -196.990652 
L 72.951821 -199.811956 
L 72.512223 -202.63326 
L 72.208706 -205.454564 
L 72.04741 -208.275868 
L 72.031732 -211.097172 
L 72.162085 -213.918476 
L 72.435738 -216.73978 
L 72.846773 -219.561084 
L 73.386162 -222.382388 
L 74.041979 -225.203691 
L 74.799756 -228.024995 
L 75.642963 -230.846299 
L 76.553607 -233.667603 
L 77.51291 -236.488907 
L 78.502041 -239.310211 
L 79.502849 -242.131515 
L 80.498559 -244.952819 
L 81.474383 -247.774123 
L 82.418013 -250.595427 
L 83.319959 -253.416731 
L 84.173715 -256.238035 
L 84.975747 -259.059339 
L 85.725308 -261.880643 
L 86.424104 -264.701947 
L 87.07583 -267.523251 
L 87.685631 -270.344555 
L 88.259515 -273.165859 
L 88.803776 -275.987163 
L 89.324459 -278.808466 
L 89.826907 -281.62977 
L 90.315414 -284.451074 
L 90.793009 -287.272378 
L 91.261355 -290.093682 
L 91.72078 -292.914986 
L 92.170412 -295.73629 
L 92.608395 -298.557594 
L 93.032163 -301.378898 
L 93.438737 -304.200202 
L 93.825032 -307.021506 
L 94.188127 -309.84281 
L 94.525496 -312.664114 
L 94.835186 -315.485418 
L 95.115925 -318.306722 
L 95.367175 -321.128026 
L 95.589121 -323.94933 
L 95.782614 -326.770634 
L 95.949078 -329.591938 
L 96.090394 -332.413242 
L 96.208771 -335.234545 
L 97.110692 -335.234545 
L 97.110692 -335.234545 
L 97.229068 -332.413242 
L 97.370385 -329.591938 
L 97.536849 -326.770634 
L 97.730341 -323.94933 
L 97.952287 -321.128026 
L 98.203538 -318.306722 
L 98.484277 -315.485418 
L 98.793966 -312.664114 
L 99.131335 -309.84281 
L 99.49443 -307.021506 
L 99.880725 -304.200202 
L 100.2873 -301.378898 
L 100.711067 -298.557594 
L 101.14905 -295.73629 
L 101.598682 -292.914986 
L 102.058108 -290.093682 
L 102.526453 -287.272378 
L 103.004048 -284.451074 
L 103.492556 -281.62977 
L 103.995003 -278.808466 
L 104.515686 -275.987163 
L 105.059948 -273.165859 
L 105.633832 -270.344555 
L 106.243632 -267.523251 
L 106.895359 -264.701947 
L 107.594154 -261.880643 
L 108.343716 -259.059339 
L 109.145747 -256.238035 
L 109.999503 -253.416731 
L 110.901449 -250.595427 
L 111.84508 -247.774123 
L 112.820904 -244.952819 
L 113.816614 -242.131515 
L 114.817422 -239.310211 
L 115.806553 -236.488907 
L 116.765856 -233.667603 
L 117.676499 -230.846299 
L 118.519706 -228.024995 
L 119.277483 -225.203691 
L 119.9333 -222.382388 
L 120.472689 -219.561084 
L 120.883724 -216.73978 
L 121.157378 -213.918476 
L 121.28773 -211.097172 
L 121.272053 -208.275868 
L 121.110757 -205.454564 
L 120.80724 -202.63326 
L 120.367641 -199.811956 
L 119.800538 -196.990652 
L 119.116596 -194.169348 
L 118.328192 -191.348044 
L 117.449042 -188.52674 
L 116.493821 -185.705436 
L 115.477807 -182.884132 
L 114.416539 -180.062828 
L 113.325504 -177.241524 
L 112.219848 -174.42022 
L 111.11412 -171.598916 
L 110.022041 -168.777612 
L 108.956311 -165.956309 
L 107.928439 -163.135005 
L 106.948606 -160.313701 
L 106.025552 -157.492397 
L 105.166491 -154.671093 
L 104.377036 -151.849789 
L 103.661156 -149.028485 
L 103.021138 -146.207181 
L 102.457581 -143.385877 
L 101.969401 -140.564573 
L 101.553881 -137.743269 
L 101.206744 -134.921965 
L 100.922289 -132.100661 
L 100.693559 -129.279357 
L 100.512584 -126.458053 
L 100.370656 -123.636749 
L 100.258663 -120.815445 
L 100.167447 -117.994141 
L 100.088171 -115.172837 
L 100.012679 -112.351534 
L 99.933824 -109.53023 
L 99.845733 -106.708926 
L 99.744 -103.887622 
L 99.625793 -101.066318 
L 99.489856 -98.245014 
L 99.336434 -95.42371 
L 99.167097 -92.602406 
L 98.984508 -89.781102 
L 98.792143 -86.959798 
L 98.593985 -84.138494 
L 98.39422 -81.31719 
L 98.196956 -78.495886 
L 98.005984 -75.674582 
L 97.82459 -72.853278 
L 97.655424 -70.031974 
L 97.500433 -67.21067 
L 97.360849 -64.389366 
L 97.237226 -61.568062 
L 97.129509 -58.746758 
L 97.037138 -55.925455 
z
" style="stroke: #3f3f3f; stroke-width: 1.25"/>
    </defs>
    <g clip-path="url(#pa821ef80d9)">
     <use xlink:href="#m458026885e" x="0" y="360" style="fill: #3274a1; stroke: #3f3f3f; stroke-width: 1.25"/>
    </g>
   </g>
   <g id="PolyCollection_2">
    <defs>
     <path id="m9d3326ba81" d="M 158.092785 -96.37773 
L 157.274427 -96.37773 
L 157.176953 -98.255769 
L 157.061135 -100.133808 
L 156.924767 -102.011847 
L 156.765667 -103.889886 
L 156.581756 -105.767924 
L 156.371138 -107.645963 
L 156.132201 -109.524002 
L 155.86371 -111.402041 
L 155.564909 -113.28008 
L 155.235618 -115.158119 
L 154.876311 -117.036158 
L 154.488186 -118.914196 
L 154.07321 -120.792235 
L 153.634134 -122.670274 
L 153.174472 -124.548313 
L 152.698452 -126.426352 
L 152.21092 -128.304391 
L 151.717216 -130.182429 
L 151.223013 -132.060468 
L 150.734129 -133.938507 
L 150.256323 -135.816546 
L 149.795087 -137.694585 
L 149.355433 -139.572624 
L 148.941706 -141.450662 
L 148.557421 -143.328701 
L 148.205147 -145.20674 
L 147.886431 -147.084779 
L 147.601782 -148.962818 
L 147.350718 -150.840857 
L 147.131857 -152.718895 
L 146.94307 -154.596934 
L 146.781666 -156.474973 
L 146.644612 -158.353012 
L 146.528767 -160.231051 
L 146.431103 -162.10909 
L 146.348921 -163.987129 
L 146.280025 -165.865167 
L 146.222855 -167.743206 
L 146.176558 -169.621245 
L 146.14101 -171.499284 
L 146.116768 -173.377323 
L 146.104973 -175.255362 
L 146.107203 -177.1334 
L 146.125291 -179.011439 
L 146.161119 -180.889478 
L 146.216418 -182.767517 
L 146.292565 -184.645556 
L 146.390416 -186.523595 
L 146.510175 -188.401633 
L 146.651315 -190.279672 
L 146.812545 -192.157711 
L 146.991849 -194.03575 
L 147.186561 -195.913789 
L 147.393505 -197.791828 
L 147.609158 -199.669866 
L 147.829852 -201.547905 
L 148.051977 -203.425944 
L 148.272188 -205.303983 
L 148.487592 -207.182022 
L 148.695912 -209.060061 
L 148.895603 -210.9381 
L 149.085931 -212.816138 
L 149.266996 -214.694177 
L 149.439712 -216.572216 
L 149.605728 -218.450255 
L 149.767324 -220.328294 
L 149.927255 -222.206333 
L 150.088586 -224.084371 
L 150.254508 -225.96241 
L 150.428149 -227.840449 
L 150.612399 -229.718488 
L 150.809752 -231.596527 
L 151.022167 -233.474566 
L 151.250975 -235.352604 
L 151.496802 -237.230643 
L 151.759549 -239.108682 
L 152.038395 -240.986721 
L 152.33184 -242.86476 
L 152.637778 -244.742799 
L 152.953592 -246.620837 
L 153.276272 -248.498876 
L 153.602542 -250.376915 
L 153.928989 -252.254954 
L 154.252195 -254.132993 
L 154.568858 -256.011032 
L 154.8759 -257.889071 
L 155.170561 -259.767109 
L 155.450465 -261.645148 
L 155.713676 -263.523187 
L 155.95872 -265.401226 
L 156.184596 -267.279265 
L 156.390762 -269.157304 
L 156.577108 -271.035342 
L 156.743911 -272.913381 
L 156.891789 -274.79142 
L 157.021638 -276.669459 
L 157.134573 -278.547498 
L 157.23187 -280.425537 
L 157.314906 -282.303575 
L 158.052306 -282.303575 
L 158.052306 -282.303575 
L 158.135342 -280.425537 
L 158.232639 -278.547498 
L 158.345575 -276.669459 
L 158.475423 -274.79142 
L 158.623301 -272.913381 
L 158.790105 -271.035342 
L 158.976451 -269.157304 
L 159.182617 -267.279265 
L 159.408492 -265.401226 
L 159.653536 -263.523187 
L 159.916747 -261.645148 
L 160.196652 -259.767109 
L 160.491312 -257.889071 
L 160.798355 -256.011032 
L 161.115018 -254.132993 
L 161.438223 -252.254954 
L 161.76467 -250.376915 
L 162.09094 -248.498876 
L 162.413621 -246.620837 
L 162.729435 -244.742799 
L 163.035373 -242.86476 
L 163.328818 -240.986721 
L 163.607663 -239.108682 
L 163.870411 -237.230643 
L 164.116238 -235.352604 
L 164.345045 -233.474566 
L 164.557461 -231.596527 
L 164.754813 -229.718488 
L 164.939064 -227.840449 
L 165.112704 -225.96241 
L 165.278626 -224.084371 
L 165.439957 -222.206333 
L 165.599888 -220.328294 
L 165.761484 -218.450255 
L 165.927501 -216.572216 
L 166.100216 -214.694177 
L 166.281282 -212.816138 
L 166.471609 -210.9381 
L 166.6713 -209.060061 
L 166.87962 -207.182022 
L 167.095025 -205.303983 
L 167.315235 -203.425944 
L 167.53736 -201.547905 
L 167.758054 -199.669866 
L 167.973708 -197.791828 
L 168.180651 -195.913789 
L 168.375364 -194.03575 
L 168.554667 -192.157711 
L 168.715898 -190.279672 
L 168.857037 -188.401633 
L 168.976797 -186.523595 
L 169.074648 -184.645556 
L 169.150794 -182.767517 
L 169.206093 -180.889478 
L 169.241922 -179.011439 
L 169.260009 -177.1334 
L 169.262239 -175.255362 
L 169.250445 -173.377323 
L 169.226203 -171.499284 
L 169.190655 -169.621245 
L 169.144358 -167.743206 
L 169.087187 -165.865167 
L 169.018292 -163.987129 
L 168.936109 -162.10909 
L 168.838445 -160.231051 
L 168.7226 -158.353012 
L 168.585547 -156.474973 
L 168.424143 -154.596934 
L 168.235355 -152.718895 
L 168.016494 -150.840857 
L 167.76543 -148.962818 
L 167.480782 -147.084779 
L 167.162065 -145.20674 
L 166.809791 -143.328701 
L 166.425507 -141.450662 
L 166.011779 -139.572624 
L 165.572125 -137.694585 
L 165.110889 -135.816546 
L 164.633084 -133.938507 
L 164.1442 -132.060468 
L 163.649996 -130.182429 
L 163.156292 -128.304391 
L 162.66876 -126.426352 
L 162.19274 -124.548313 
L 161.733078 -122.670274 
L 161.294002 -120.792235 
L 160.879027 -118.914196 
L 160.490902 -117.036158 
L 160.131595 -115.158119 
L 159.802303 -113.28008 
L 159.503503 -111.402041 
L 159.235012 -109.524002 
L 158.996074 -107.645963 
L 158.785457 -105.767924 
L 158.601545 -103.889886 
L 158.442445 -102.011847 
L 158.306077 -100.133808 
L 158.190259 -98.255769 
L 158.092785 -96.37773 
z
" style="stroke: #3f3f3f; stroke-width: 1.25"/>
    </defs>
    <g clip-path="url(#pa821ef80d9)">
     <use xlink:href="#m9d3326ba81" x="0" y="360" style="fill: #e1812c; stroke: #3f3f3f; stroke-width: 1.25"/>
    </g>
   </g>
   <g id="PolyCollection_3">
    <defs>
     <path id="m2726044864" d="M 249.948173 -113.576813 
L 248.490665 -113.576813 
L 248.295001 -115.230586 
L 248.058638 -116.884359 
L 247.776402 -118.538132 
L 247.443262 -120.191905 
L 247.054537 -121.845679 
L 246.606116 -123.499452 
L 246.094676 -125.153225 
L 245.517899 -126.806998 
L 244.874643 -128.460771 
L 244.165086 -130.114544 
L 243.3908 -131.768317 
L 242.554763 -133.42209 
L 241.661295 -135.075863 
L 240.715918 -136.729636 
L 239.72516 -138.38341 
L 238.696294 -140.037183 
L 237.637058 -141.690956 
L 236.555353 -143.344729 
L 235.458974 -144.998502 
L 234.355364 -146.652275 
L 233.251446 -148.306048 
L 232.153517 -149.959821 
L 231.067239 -151.613594 
L 229.997691 -153.267368 
L 228.949501 -154.921141 
L 227.927013 -156.574914 
L 226.93448 -158.228687 
L 225.976236 -159.88246 
L 225.056834 -161.536233 
L 224.18112 -163.190006 
L 223.35422 -164.843779 
L 222.581456 -166.497552 
L 221.868164 -168.151326 
L 221.21947 -169.805099 
L 220.640012 -171.458872 
L 220.133673 -173.112645 
L 219.703336 -174.766418 
L 219.350702 -176.420191 
L 219.0762 -178.073964 
L 218.878988 -179.727737 
L 218.757067 -181.38151 
L 218.707481 -183.035283 
L 218.726585 -184.689057 
L 218.810352 -186.34283 
L 218.954678 -187.996603 
L 219.155651 -189.650376 
L 219.409742 -191.304149 
L 219.713916 -192.957922 
L 220.065624 -194.611695 
L 220.462704 -196.265468 
L 220.903191 -197.919241 
L 221.385078 -199.573015 
L 221.906052 -201.226788 
L 222.46325 -202.880561 
L 223.053079 -204.534334 
L 223.671118 -206.188107 
L 224.312131 -207.84188 
L 224.970196 -209.495653 
L 225.638943 -211.149426 
L 226.311873 -212.803199 
L 226.98274 -214.456973 
L 227.645945 -216.110746 
L 228.296908 -217.764519 
L 228.932379 -219.418292 
L 229.550659 -221.072065 
L 230.1517 -222.725838 
L 230.737084 -224.379611 
L 231.309883 -226.033384 
L 231.874399 -227.687157 
L 232.435823 -229.34093 
L 232.999829 -230.994704 
L 233.572143 -232.648477 
L 234.158116 -234.30225 
L 234.762324 -235.956023 
L 235.388238 -237.609796 
L 236.037964 -239.263569 
L 236.712078 -240.917342 
L 237.409557 -242.571115 
L 238.127808 -244.224888 
L 238.862784 -245.878662 
L 239.609182 -247.532435 
L 240.360697 -249.186208 
L 241.110327 -250.839981 
L 241.850701 -252.493754 
L 242.574411 -254.147527 
L 243.274327 -255.8013 
L 243.94389 -257.455073 
L 244.577355 -259.108846 
L 245.169978 -260.76262 
L 245.718144 -262.416393 
L 246.219431 -264.070166 
L 246.672613 -265.723939 
L 247.077603 -267.377712 
L 247.435356 -269.031485 
L 247.747728 -270.685258 
L 248.017312 -272.339031 
L 248.247265 -273.992804 
L 248.441128 -275.646577 
L 248.602657 -277.300351 
L 249.83618 -277.300351 
L 249.83618 -277.300351 
L 249.997709 -275.646577 
L 250.191572 -273.992804 
L 250.421525 -272.339031 
L 250.691109 -270.685258 
L 251.003481 -269.031485 
L 251.361234 -267.377712 
L 251.766225 -265.723939 
L 252.219406 -264.070166 
L 252.720693 -262.416393 
L 253.268859 -260.76262 
L 253.861482 -259.108846 
L 254.494948 -257.455073 
L 255.164511 -255.8013 
L 255.864427 -254.147527 
L 256.588136 -252.493754 
L 257.328511 -250.839981 
L 258.078141 -249.186208 
L 258.829656 -247.532435 
L 259.576053 -245.878662 
L 260.311029 -244.224888 
L 261.02928 -242.571115 
L 261.726759 -240.917342 
L 262.400873 -239.263569 
L 263.050599 -237.609796 
L 263.676513 -235.956023 
L 264.280722 -234.30225 
L 264.866694 -232.648477 
L 265.439009 -230.994704 
L 266.003015 -229.34093 
L 266.564438 -227.687157 
L 267.128955 -226.033384 
L 267.701754 -224.379611 
L 268.287138 -222.725838 
L 268.888178 -221.072065 
L 269.506458 -219.418292 
L 270.14193 -217.764519 
L 270.792893 -216.110746 
L 271.456098 -214.456973 
L 272.126965 -212.803199 
L 272.799895 -211.149426 
L 273.468641 -209.495653 
L 274.126706 -207.84188 
L 274.767719 -206.188107 
L 275.385758 -204.534334 
L 275.975588 -202.880561 
L 276.532786 -201.226788 
L 277.05376 -199.573015 
L 277.535647 -197.919241 
L 277.976134 -196.265468 
L 278.373213 -194.611695 
L 278.724921 -192.957922 
L 279.029095 -191.304149 
L 279.283187 -189.650376 
L 279.484159 -187.996603 
L 279.628486 -186.34283 
L 279.712253 -184.689057 
L 279.731356 -183.035283 
L 279.68177 -181.38151 
L 279.559849 -179.727737 
L 279.362638 -178.073964 
L 279.088135 -176.420191 
L 278.735502 -174.766418 
L 278.305165 -173.112645 
L 277.798826 -171.458872 
L 277.219368 -169.805099 
L 276.570673 -168.151326 
L 275.857382 -166.497552 
L 275.084617 -164.843779 
L 274.257718 -163.190006 
L 273.382003 -161.536233 
L 272.462602 -159.88246 
L 271.504358 -158.228687 
L 270.511824 -156.574914 
L 269.489337 -154.921141 
L 268.441146 -153.267368 
L 267.371598 -151.613594 
L 266.28532 -149.959821 
L 265.187392 -148.306048 
L 264.083473 -146.652275 
L 262.979863 -144.998502 
L 261.883484 -143.344729 
L 260.80178 -141.690956 
L 259.742543 -140.037183 
L 258.713677 -138.38341 
L 257.722919 -136.729636 
L 256.777543 -135.075863 
L 255.884074 -133.42209 
L 255.048038 -131.768317 
L 254.273752 -130.114544 
L 253.564195 -128.460771 
L 252.920939 -126.806998 
L 252.344161 -125.153225 
L 251.832722 -123.499452 
L 251.3843 -121.845679 
L 250.995576 -120.191905 
L 250.662436 -118.538132 
L 250.3802 -116.884359 
L 250.143837 -115.230586 
L 249.948173 -113.576813 
z
" style="stroke: #3f3f3f; stroke-width: 1.25"/>
    </defs>
    <g clip-path="url(#pa821ef80d9)">
     <use xlink:href="#m2726044864" x="0" y="360" style="fill: #3274a1; stroke: #3f3f3f; stroke-width: 1.25"/>
    </g>
   </g>
   <g id="PolyCollection_4">
    <defs>
     <path id="m0fa791ec30" d="M 310.559377 -123.001194 
L 309.92721 -123.001194 
L 309.838749 -124.124517 
L 309.733116 -125.247839 
L 309.60918 -126.371162 
L 309.466281 -127.494485 
L 309.304315 -128.617807 
L 309.123766 -129.74113 
L 308.925673 -130.864453 
L 308.711533 -131.987775 
L 308.483117 -133.111098 
L 308.242232 -134.23442 
L 307.990437 -135.357743 
L 307.728745 -136.481066 
L 307.457354 -137.604388 
L 307.175454 -138.727711 
L 306.881138 -139.851034 
L 306.571445 -140.974356 
L 306.242554 -142.097679 
L 305.890107 -143.221002 
L 305.509639 -144.344324 
L 305.097042 -145.467647 
L 304.649019 -146.590969 
L 304.163434 -147.714292 
L 303.639508 -148.837615 
L 303.077804 -149.960937 
L 302.479991 -151.08426 
L 301.848395 -152.207583 
L 301.185395 -153.330905 
L 300.49274 -154.454228 
L 299.770898 -155.577551 
L 299.018548 -156.700873 
L 298.232316 -157.824196 
L 297.40684 -158.947518 
L 296.535198 -160.070841 
L 295.609713 -161.194164 
L 294.623065 -162.317486 
L 293.569631 -163.440809 
L 292.446899 -164.564132 
L 291.256823 -165.687454 
L 290.006952 -166.810777 
L 288.711172 -167.9341 
L 287.389973 -169.057422 
L 286.070142 -170.180745 
L 284.78387 -171.304067 
L 283.567316 -172.42739 
L 282.458703 -173.550713 
L 281.496096 -174.674035 
L 280.715026 -175.797358 
L 280.146166 -176.920681 
L 279.81324 -178.044003 
L 279.731356 -179.167326 
L 279.905911 -180.290649 
L 280.332151 -181.413971 
L 280.995445 -182.537294 
L 281.872231 -183.660616 
L 282.93156 -184.783939 
L 284.137089 -185.907262 
L 285.449363 -187.030584 
L 286.828177 -188.153907 
L 288.234825 -189.27723 
L 289.634072 -190.400552 
L 290.99571 -191.523875 
L 292.295597 -192.647198 
L 293.516173 -193.77052 
L 294.646444 -194.893843 
L 295.681523 -196.017165 
L 296.621818 -197.140488 
L 297.471979 -198.263811 
L 298.239753 -199.387133 
L 298.934833 -200.510456 
L 299.567814 -201.633779 
L 300.149328 -202.757101 
L 300.689375 -203.880424 
L 301.196889 -205.003747 
L 301.679494 -206.127069 
L 302.14344 -207.250392 
L 302.593652 -208.373714 
L 303.033868 -209.497037 
L 303.466795 -210.62036 
L 303.894271 -211.743682 
L 304.317392 -212.867005 
L 304.736605 -213.990328 
L 305.151766 -215.11365 
L 305.56217 -216.236973 
L 305.966578 -217.360296 
L 306.363253 -218.483618 
L 306.750018 -219.606941 
L 307.124358 -220.730263 
L 307.483545 -221.853586 
L 307.8248 -222.976909 
L 308.145474 -224.100231 
L 308.443217 -225.223554 
L 308.71614 -226.346877 
L 308.962937 -227.470199 
L 309.182962 -228.593522 
L 309.376251 -229.716845 
L 309.5435 -230.840167 
L 309.685994 -231.96349 
L 309.805496 -233.086812 
L 309.904128 -234.210135 
L 310.582459 -234.210135 
L 310.582459 -234.210135 
L 310.681091 -233.086812 
L 310.800594 -231.96349 
L 310.943087 -230.840167 
L 311.110337 -229.716845 
L 311.303626 -228.593522 
L 311.52365 -227.470199 
L 311.770447 -226.346877 
L 312.043371 -225.223554 
L 312.341114 -224.100231 
L 312.661787 -222.976909 
L 313.003043 -221.853586 
L 313.362229 -220.730263 
L 313.736569 -219.606941 
L 314.123335 -218.483618 
L 314.52001 -217.360296 
L 314.924418 -216.236973 
L 315.334822 -215.11365 
L 315.749982 -213.990328 
L 316.169196 -212.867005 
L 316.592316 -211.743682 
L 317.019792 -210.62036 
L 317.452719 -209.497037 
L 317.892935 -208.373714 
L 318.343148 -207.250392 
L 318.807093 -206.127069 
L 319.289699 -205.003747 
L 319.797212 -203.880424 
L 320.33726 -202.757101 
L 320.918773 -201.633779 
L 321.551755 -200.510456 
L 322.246834 -199.387133 
L 323.014609 -198.263811 
L 323.86477 -197.140488 
L 324.805064 -196.017165 
L 325.840144 -194.893843 
L 326.970415 -193.77052 
L 328.19099 -192.647198 
L 329.490878 -191.523875 
L 330.852515 -190.400552 
L 332.251763 -189.27723 
L 333.65841 -188.153907 
L 335.037224 -187.030584 
L 336.349499 -185.907262 
L 337.555028 -184.783939 
L 338.614356 -183.660616 
L 339.491143 -182.537294 
L 340.154437 -181.413971 
L 340.580677 -180.290649 
L 340.755231 -179.167326 
L 340.673348 -178.044003 
L 340.340421 -176.920681 
L 339.771561 -175.797358 
L 338.990492 -174.674035 
L 338.027884 -173.550713 
L 336.919272 -172.42739 
L 335.702718 -171.304067 
L 334.416446 -170.180745 
L 333.096614 -169.057422 
L 331.775416 -167.9341 
L 330.479636 -166.810777 
L 329.229764 -165.687454 
L 328.039689 -164.564132 
L 326.916956 -163.440809 
L 325.863522 -162.317486 
L 324.876875 -161.194164 
L 323.95139 -160.070841 
L 323.079747 -158.947518 
L 322.254271 -157.824196 
L 321.46804 -156.700873 
L 320.71569 -155.577551 
L 319.993848 -154.454228 
L 319.301192 -153.330905 
L 318.638192 -152.207583 
L 318.006597 -151.08426 
L 317.408784 -149.960937 
L 316.84708 -148.837615 
L 316.323153 -147.714292 
L 315.837568 -146.590969 
L 315.389545 -145.467647 
L 314.976949 -144.344324 
L 314.59648 -143.221002 
L 314.244034 -142.097679 
L 313.915142 -140.974356 
L 313.605449 -139.851034 
L 313.311133 -138.727711 
L 313.029234 -137.604388 
L 312.757843 -136.481066 
L 312.49615 -135.357743 
L 312.244355 -134.23442 
L 312.003471 -133.111098 
L 311.775055 -131.987775 
L 311.560914 -130.864453 
L 311.362822 -129.74113 
L 311.182272 -128.617807 
L 311.020307 -127.494485 
L 310.877408 -126.371162 
L 310.753471 -125.247839 
L 310.647838 -124.124517 
L 310.559377 -123.001194 
z
" style="stroke: #3f3f3f; stroke-width: 1.25"/>
    </defs>
    <g clip-path="url(#pa821ef80d9)">
     <use xlink:href="#m0fa791ec30" x="0" y="360" style="fill: #e1812c; stroke: #3f3f3f; stroke-width: 1.25"/>
    </g>
   </g>
   <g id="patch_3">
    <path d="M 127.171669 408.330248 
L 127.171669 408.330248 
L 127.171669 408.330248 
L 127.171669 408.330248 
z
" clip-path="url(#pa821ef80d9)" style="fill: #3274a1; stroke: #3f3f3f; stroke-width: 1.25; stroke-linejoin: miter"/>
   </g>
   <g id="patch_4">
    <path d="M 127.171669 408.330248 
L 127.171669 408.330248 
L 127.171669 408.330248 
L 127.171669 408.330248 
z
" clip-path="url(#pa821ef80d9)" style="fill: #e1812c; stroke: #3f3f3f; stroke-width: 1.25; stroke-linejoin: miter"/>
   </g>
   <g id="line2d_8">
    <path d="M 96.659731 201.714231 
L 96.659731 74.9759 
" clip-path="url(#pa821ef80d9)" style="fill: none; stroke: #3f3f3f; stroke-width: 1.875; stroke-linecap: round"/>
   </g>
   <g id="line2d_9">
    <path d="M 96.659731 174.06464 
L 96.659731 128.989976 
" clip-path="url(#pa821ef80d9)" style="fill: none; stroke: #3f3f3f; stroke-width: 5.625; stroke-linecap: round"/>
   </g>
   <g id="line2d_10">
    <path d="M 96.659731 146.304467 
" clip-path="url(#pa821ef80d9)" style="fill: none; stroke: #3f3f3f; stroke-width: 1.5; stroke-linecap: round"/>
    <defs>
     <path id="m84cbdd16c0" d="M 2.34375 0 
L -2.34375 -0 
" style="stroke: #ffffff; stroke-width: 1.125"/>
    </defs>
    <g clip-path="url(#pa821ef80d9)">
     <use xlink:href="#m84cbdd16c0" x="96.659731" y="146.304467" style="fill: #ffffff; stroke: #ffffff; stroke-width: 1.125"/>
    </g>
   </g>
   <g id="line2d_11">
    <path d="M 157.683606 223.867939 
L 157.683606 117.450755 
" clip-path="url(#pa821ef80d9)" style="fill: none; stroke: #3f3f3f; stroke-width: 1.875; stroke-linecap: round"/>
   </g>
   <g id="line2d_12">
    <path d="M 157.683606 208.309685 
L 157.683606 153.534522 
" clip-path="url(#pa821ef80d9)" style="fill: none; stroke: #3f3f3f; stroke-width: 5.625; stroke-linecap: round"/>
   </g>
   <g id="line2d_13">
    <path d="M 157.683606 178.248704 
" clip-path="url(#pa821ef80d9)" style="fill: none; stroke: #3f3f3f; stroke-width: 1.5; stroke-linecap: round"/>
    <g clip-path="url(#pa821ef80d9)">
     <use xlink:href="#m84cbdd16c0" x="157.683606" y="178.248704" style="fill: #ffffff; stroke: #ffffff; stroke-width: 1.125"/>
    </g>
   </g>
   <g id="line2d_14">
    <path d="M 249.219419 215.730188 
L 249.219419 113.392648 
" clip-path="url(#pa821ef80d9)" style="fill: none; stroke: #3f3f3f; stroke-width: 1.875; stroke-linecap: round"/>
   </g>
   <g id="line2d_15">
    <path d="M 249.219419 189.473416 
L 249.219419 151.198706 
" clip-path="url(#pa821ef80d9)" style="fill: none; stroke: #3f3f3f; stroke-width: 5.625; stroke-linecap: round"/>
   </g>
   <g id="line2d_16">
    <path d="M 249.219419 171.616721 
" clip-path="url(#pa821ef80d9)" style="fill: none; stroke: #3f3f3f; stroke-width: 1.5; stroke-linecap: round"/>
    <g clip-path="url(#pa821ef80d9)">
     <use xlink:href="#m84cbdd16c0" x="249.219419" y="171.616721" style="fill: #ffffff; stroke: #ffffff; stroke-width: 1.125"/>
    </g>
   </g>
   <g id="line2d_17">
    <path d="M 310.243294 204.270983 
L 310.243294 157.989595 
" clip-path="url(#pa821ef80d9)" style="fill: none; stroke: #3f3f3f; stroke-width: 1.875; stroke-linecap: round"/>
   </g>
   <g id="line2d_18">
    <path d="M 310.243294 188.634301 
L 310.243294 175.278747 
" clip-path="url(#pa821ef80d9)" style="fill: none; stroke: #3f3f3f; stroke-width: 5.625; stroke-linecap: round"/>
   </g>
   <g id="line2d_19">
    <path d="M 310.243294 181.084814 
" clip-path="url(#pa821ef80d9)" style="fill: none; stroke: #3f3f3f; stroke-width: 1.5; stroke-linecap: round"/>
    <g clip-path="url(#pa821ef80d9)">
     <use xlink:href="#m84cbdd16c0" x="310.243294" y="181.084814" style="fill: #ffffff; stroke: #ffffff; stroke-width: 1.125"/>
    </g>
   </g>
   <g id="patch_5">
    <path d="M 50.891825 318.04 
L 50.891825 10.8 
" style="fill: none; stroke: #cccccc; stroke-width: 0.8; stroke-linejoin: miter; stroke-linecap: square"/>
   </g>
   <g id="patch_6">
    <path d="M 50.891825 318.04 
L 356.0112 318.04 
" style="fill: none; stroke: #cccccc; stroke-width: 0.8; stroke-linejoin: miter; stroke-linecap: square"/>
   </g>
  </g>
  <g id="legend_1">
   <g id="text_12">
    <!-- time -->
    <g style="fill: #262626" transform="translate(365.045625 168.439844) scale(0.1 -0.1)">
     <use xlink:href="#ArialMT-74"/>
     <use xlink:href="#ArialMT-69" x="27.783203"/>
     <use xlink:href="#ArialMT-6d" x="50"/>
     <use xlink:href="#ArialMT-65" x="133.300781"/>
    </g>
   </g>
   <g id="patch_7">
    <path d="M 359.101875 182.585156 
L 379.101875 182.585156 
L 379.101875 175.585156 
L 359.101875 175.585156 
z
" style="fill: #3274a1; stroke: #3f3f3f; stroke-width: 1.25; stroke-linejoin: miter"/>
   </g>
   <g id="text_13">
    <!-- i -->
    <g style="fill: #262626" transform="translate(387.101875 182.585156) scale(0.1 -0.1)">
     <use xlink:href="#ArialMT-69"/>
    </g>
   </g>
   <g id="patch_8">
    <path d="M 359.101875 196.730469 
L 379.101875 196.730469 
L 379.101875 189.730469 
L 359.101875 189.730469 
z
" style="fill: #e1812c; stroke: #3f3f3f; stroke-width: 1.25; stroke-linejoin: miter"/>
   </g>
   <g id="text_14">
    <!-- f -->
    <g style="fill: #262626" transform="translate(387.101875 196.730469) scale(0.1 -0.1)">
     <use xlink:href="#ArialMT-66"/>
    </g>
   </g>
  </g>
 </g>
 <defs>
  <clipPath id="pa821ef80d9">
   <rect x="50.891825" y="10.8" width="305.119375" height="307.24"/>
  </clipPath>
 </defs>
</svg>
