<?xml version="1.0" encoding="utf-8" standalone="no"?>
<!DOCTYPE svg PUBLIC "-//W3C//DTD SVG 1.1//EN"
  "http://www.w3.org/Graphics/SVG/1.1/DTD/svg11.dtd">
<svg xmlns:xlink="http://www.w3.org/1999/xlink" width="398.88pt" height="360pt" viewBox="0 0 398.88 360" xmlns="http://www.w3.org/2000/svg" version="1.1">
 <metadata>
  <rdf:RDF xmlns:dc="http://purl.org/dc/elements/1.1/" xmlns:cc="http://creativecommons.org/ns#" xmlns:rdf="http://www.w3.org/1999/02/22-rdf-syntax-ns#">
   <cc:Work>
    <dc:type rdf:resource="http://purl.org/dc/dcmitype/StillImage"/>
    <dc:date>2024-09-11T03:31:50.249023</dc:date>
    <dc:format>image/svg+xml</dc:format>
    <dc:creator>
     <cc:Agent>
      <dc:title>Matplotlib v3.8.3, https://matplotlib.org/</dc:title>
     </cc:Agent>
    </dc:creator>
   </cc:Work>
  </rdf:RDF>
 </metadata>
 <defs>
  <style type="text/css">*{stroke-linejoin: round; stroke-linecap: butt}</style>
 </defs>
 <g id="figure_1">
  <g id="patch_1">
   <path d="M 0 360 
L 398.88 360 
L 398.88 0 
L 0 0 
z
" style="fill: #ffffff"/>
  </g>
  <g id="axes_1">
   <g id="patch_2">
    <path d="M 47.800505 318.04 
L 356.0112 318.04 
L 356.0112 10.8 
L 47.800505 10.8 
z
" style="fill: #ffffff"/>
   </g>
   <g id="matplotlib.axis_1">
    <g id="xtick_1">
     <g id="text_1">
      <!-- f -->
      <g style="fill: #262626" transform="translate(123.464116 332.197812) scale(0.1 -0.1)">
       <defs>
        <path id="ArialMT-66" d="M 556 0 
L 556 2881 
L 59 2881 
L 59 3319 
L 556 3319 
L 556 3672 
Q 556 4006 616 4169 
Q 697 4388 901 4523 
Q 1106 4659 1475 4659 
Q 1713 4659 2000 4603 
L 1916 4113 
Q 1741 4144 1584 4144 
Q 1328 4144 1222 4034 
Q 1116 3925 1116 3625 
L 1116 3319 
L 1763 3319 
L 1763 2881 
L 1116 2881 
L 1116 0 
L 556 0 
z
" transform="scale(0.015625)"/>
       </defs>
       <use xlink:href="#ArialMT-66"/>
      </g>
     </g>
    </g>
    <g id="xtick_2">
     <g id="text_2">
      <!-- m -->
      <g style="fill: #262626" transform="translate(274.793682 332.197812) scale(0.1 -0.1)">
       <defs>
        <path id="ArialMT-6d" d="M 422 0 
L 422 3319 
L 925 3319 
L 925 2853 
Q 1081 3097 1340 3245 
Q 1600 3394 1931 3394 
Q 2300 3394 2536 3241 
Q 2772 3088 2869 2813 
Q 3263 3394 3894 3394 
Q 4388 3394 4653 3120 
Q 4919 2847 4919 2278 
L 4919 0 
L 4359 0 
L 4359 2091 
Q 4359 2428 4304 2576 
Q 4250 2725 4106 2815 
Q 3963 2906 3769 2906 
Q 3419 2906 3187 2673 
Q 2956 2441 2956 1928 
L 2956 0 
L 2394 0 
L 2394 2156 
Q 2394 2531 2256 2718 
Q 2119 2906 1806 2906 
Q 1569 2906 1367 2781 
Q 1166 2656 1075 2415 
Q 984 2175 984 1722 
L 984 0 
L 422 0 
z
" transform="scale(0.015625)"/>
       </defs>
       <use xlink:href="#ArialMT-6d"/>
      </g>
     </g>
    </g>
    <g id="text_3">
     <!-- sex -->
     <g style="fill: #262626" transform="translate(194.125384 345.343125) scale(0.1 -0.1)">
      <defs>
       <path id="ArialMT-73" d="M 197 991 
L 753 1078 
Q 800 744 1014 566 
Q 1228 388 1613 388 
Q 2000 388 2187 545 
Q 2375 703 2375 916 
Q 2375 1106 2209 1216 
Q 2094 1291 1634 1406 
Q 1016 1563 777 1677 
Q 538 1791 414 1992 
Q 291 2194 291 2438 
Q 291 2659 392 2848 
Q 494 3038 669 3163 
Q 800 3259 1026 3326 
Q 1253 3394 1513 3394 
Q 1903 3394 2198 3281 
Q 2494 3169 2634 2976 
Q 2775 2784 2828 2463 
L 2278 2388 
Q 2241 2644 2061 2787 
Q 1881 2931 1553 2931 
Q 1166 2931 1000 2803 
Q 834 2675 834 2503 
Q 834 2394 903 2306 
Q 972 2216 1119 2156 
Q 1203 2125 1616 2013 
Q 2213 1853 2448 1751 
Q 2684 1650 2818 1456 
Q 2953 1263 2953 975 
Q 2953 694 2789 445 
Q 2625 197 2315 61 
Q 2006 -75 1616 -75 
Q 969 -75 630 194 
Q 291 463 197 991 
z
" transform="scale(0.015625)"/>
       <path id="ArialMT-65" d="M 2694 1069 
L 3275 997 
Q 3138 488 2766 206 
Q 2394 -75 1816 -75 
Q 1088 -75 661 373 
Q 234 822 234 1631 
Q 234 2469 665 2931 
Q 1097 3394 1784 3394 
Q 2450 3394 2872 2941 
Q 3294 2488 3294 1666 
Q 3294 1616 3291 1516 
L 816 1516 
Q 847 969 1125 678 
Q 1403 388 1819 388 
Q 2128 388 2347 550 
Q 2566 713 2694 1069 
z
M 847 1978 
L 2700 1978 
Q 2663 2397 2488 2606 
Q 2219 2931 1791 2931 
Q 1403 2931 1139 2672 
Q 875 2413 847 1978 
z
" transform="scale(0.015625)"/>
       <path id="ArialMT-78" d="M 47 0 
L 1259 1725 
L 138 3319 
L 841 3319 
L 1350 2541 
Q 1494 2319 1581 2169 
Q 1719 2375 1834 2534 
L 2394 3319 
L 3066 3319 
L 1919 1756 
L 3153 0 
L 2463 0 
L 1781 1031 
L 1600 1309 
L 728 0 
L 47 0 
z
" transform="scale(0.015625)"/>
      </defs>
      <use xlink:href="#ArialMT-73"/>
      <use xlink:href="#ArialMT-65" x="50"/>
      <use xlink:href="#ArialMT-78" x="105.615234"/>
     </g>
    </g>
   </g>
   <g id="matplotlib.axis_2">
    <g id="ytick_1">
     <g id="line2d_1">
      <path d="M 47.800505 301.355224 
L 356.0112 301.355224 
" clip-path="url(#pcac7a7750d)" style="fill: none; stroke: #cccccc; stroke-width: 0.8; stroke-linecap: round"/>
     </g>
     <g id="text_4">
      <!-- 0 -->
      <g style="fill: #262626" transform="translate(35.239567 304.93413) scale(0.1 -0.1)">
       <defs>
        <path id="ArialMT-30" d="M 266 2259 
Q 266 3072 433 3567 
Q 600 4063 929 4331 
Q 1259 4600 1759 4600 
Q 2128 4600 2406 4451 
Q 2684 4303 2865 4023 
Q 3047 3744 3150 3342 
Q 3253 2941 3253 2259 
Q 3253 1453 3087 958 
Q 2922 463 2592 192 
Q 2263 -78 1759 -78 
Q 1097 -78 719 397 
Q 266 969 266 2259 
z
M 844 2259 
Q 844 1131 1108 757 
Q 1372 384 1759 384 
Q 2147 384 2411 759 
Q 2675 1134 2675 2259 
Q 2675 3391 2411 3762 
Q 2147 4134 1753 4134 
Q 1366 4134 1134 3806 
Q 844 3388 844 2259 
z
" transform="scale(0.015625)"/>
       </defs>
       <use xlink:href="#ArialMT-30"/>
      </g>
     </g>
    </g>
    <g id="ytick_2">
     <g id="line2d_2">
      <path d="M 47.800505 266.340896 
L 356.0112 266.340896 
" clip-path="url(#pcac7a7750d)" style="fill: none; stroke: #cccccc; stroke-width: 0.8; stroke-linecap: round"/>
     </g>
     <g id="text_5">
      <!-- 10 -->
      <g style="fill: #262626" transform="translate(29.67863 269.919802) scale(0.1 -0.1)">
       <defs>
        <path id="ArialMT-31" d="M 2384 0 
L 1822 0 
L 1822 3584 
Q 1619 3391 1289 3197 
Q 959 3003 697 2906 
L 697 3450 
Q 1169 3672 1522 3987 
Q 1875 4303 2022 4600 
L 2384 4600 
L 2384 0 
z
" transform="scale(0.015625)"/>
       </defs>
       <use xlink:href="#ArialMT-31"/>
       <use xlink:href="#ArialMT-30" x="55.615234"/>
      </g>
     </g>
    </g>
    <g id="ytick_3">
     <g id="line2d_3">
      <path d="M 47.800505 231.326569 
L 356.0112 231.326569 
" clip-path="url(#pcac7a7750d)" style="fill: none; stroke: #cccccc; stroke-width: 0.8; stroke-linecap: round"/>
     </g>
     <g id="text_6">
      <!-- 20 -->
      <g style="fill: #262626" transform="translate(29.67863 234.905475) scale(0.1 -0.1)">
       <defs>
        <path id="ArialMT-32" d="M 3222 541 
L 3222 0 
L 194 0 
Q 188 203 259 391 
Q 375 700 629 1000 
Q 884 1300 1366 1694 
Q 2113 2306 2375 2664 
Q 2638 3022 2638 3341 
Q 2638 3675 2398 3904 
Q 2159 4134 1775 4134 
Q 1369 4134 1125 3890 
Q 881 3647 878 3216 
L 300 3275 
Q 359 3922 746 4261 
Q 1134 4600 1788 4600 
Q 2447 4600 2831 4234 
Q 3216 3869 3216 3328 
Q 3216 3053 3103 2787 
Q 2991 2522 2730 2228 
Q 2469 1934 1863 1422 
Q 1356 997 1212 845 
Q 1069 694 975 541 
L 3222 541 
z
" transform="scale(0.015625)"/>
       </defs>
       <use xlink:href="#ArialMT-32"/>
       <use xlink:href="#ArialMT-30" x="55.615234"/>
      </g>
     </g>
    </g>
    <g id="ytick_4">
     <g id="line2d_4">
      <path d="M 47.800505 196.312241 
L 356.0112 196.312241 
" clip-path="url(#pcac7a7750d)" style="fill: none; stroke: #cccccc; stroke-width: 0.8; stroke-linecap: round"/>
     </g>
     <g id="text_7">
      <!-- 30 -->
      <g style="fill: #262626" transform="translate(29.67863 199.891147) scale(0.1 -0.1)">
       <defs>
        <path id="ArialMT-33" d="M 269 1209 
L 831 1284 
Q 928 806 1161 595 
Q 1394 384 1728 384 
Q 2125 384 2398 659 
Q 2672 934 2672 1341 
Q 2672 1728 2419 1979 
Q 2166 2231 1775 2231 
Q 1616 2231 1378 2169 
L 1441 2663 
Q 1497 2656 1531 2656 
Q 1891 2656 2178 2843 
Q 2466 3031 2466 3422 
Q 2466 3731 2256 3934 
Q 2047 4138 1716 4138 
Q 1388 4138 1169 3931 
Q 950 3725 888 3313 
L 325 3413 
Q 428 3978 793 4289 
Q 1159 4600 1703 4600 
Q 2078 4600 2393 4439 
Q 2709 4278 2876 4000 
Q 3044 3722 3044 3409 
Q 3044 3113 2884 2869 
Q 2725 2625 2413 2481 
Q 2819 2388 3044 2092 
Q 3269 1797 3269 1353 
Q 3269 753 2831 336 
Q 2394 -81 1725 -81 
Q 1122 -81 723 278 
Q 325 638 269 1209 
z
" transform="scale(0.015625)"/>
       </defs>
       <use xlink:href="#ArialMT-33"/>
       <use xlink:href="#ArialMT-30" x="55.615234"/>
      </g>
     </g>
    </g>
    <g id="ytick_5">
     <g id="line2d_5">
      <path d="M 47.800505 161.297914 
L 356.0112 161.297914 
" clip-path="url(#pcac7a7750d)" style="fill: none; stroke: #cccccc; stroke-width: 0.8; stroke-linecap: round"/>
     </g>
     <g id="text_8">
      <!-- 40 -->
      <g style="fill: #262626" transform="translate(29.67863 164.87682) scale(0.1 -0.1)">
       <defs>
        <path id="ArialMT-34" d="M 2069 0 
L 2069 1097 
L 81 1097 
L 81 1613 
L 2172 4581 
L 2631 4581 
L 2631 1613 
L 3250 1613 
L 3250 1097 
L 2631 1097 
L 2631 0 
L 2069 0 
z
M 2069 1613 
L 2069 3678 
L 634 1613 
L 2069 1613 
z
" transform="scale(0.015625)"/>
       </defs>
       <use xlink:href="#ArialMT-34"/>
       <use xlink:href="#ArialMT-30" x="55.615234"/>
      </g>
     </g>
    </g>
    <g id="ytick_6">
     <g id="line2d_6">
      <path d="M 47.800505 126.283586 
L 356.0112 126.283586 
" clip-path="url(#pcac7a7750d)" style="fill: none; stroke: #cccccc; stroke-width: 0.8; stroke-linecap: round"/>
     </g>
     <g id="text_9">
      <!-- 50 -->
      <g style="fill: #262626" transform="translate(29.67863 129.862492) scale(0.1 -0.1)">
       <defs>
        <path id="ArialMT-35" d="M 266 1200 
L 856 1250 
Q 922 819 1161 601 
Q 1400 384 1738 384 
Q 2144 384 2425 690 
Q 2706 997 2706 1503 
Q 2706 1984 2436 2262 
Q 2166 2541 1728 2541 
Q 1456 2541 1237 2417 
Q 1019 2294 894 2097 
L 366 2166 
L 809 4519 
L 3088 4519 
L 3088 3981 
L 1259 3981 
L 1013 2750 
Q 1425 3038 1878 3038 
Q 2478 3038 2890 2622 
Q 3303 2206 3303 1553 
Q 3303 931 2941 478 
Q 2500 -78 1738 -78 
Q 1113 -78 717 272 
Q 322 622 266 1200 
z
" transform="scale(0.015625)"/>
       </defs>
       <use xlink:href="#ArialMT-35"/>
       <use xlink:href="#ArialMT-30" x="55.615234"/>
      </g>
     </g>
    </g>
    <g id="ytick_7">
     <g id="line2d_7">
      <path d="M 47.800505 91.269258 
L 356.0112 91.269258 
" clip-path="url(#pcac7a7750d)" style="fill: none; stroke: #cccccc; stroke-width: 0.8; stroke-linecap: round"/>
     </g>
     <g id="text_10">
      <!-- 60 -->
      <g style="fill: #262626" transform="translate(29.67863 94.848165) scale(0.1 -0.1)">
       <defs>
        <path id="ArialMT-36" d="M 3184 3459 
L 2625 3416 
Q 2550 3747 2413 3897 
Q 2184 4138 1850 4138 
Q 1581 4138 1378 3988 
Q 1113 3794 959 3422 
Q 806 3050 800 2363 
Q 1003 2672 1297 2822 
Q 1591 2972 1913 2972 
Q 2475 2972 2870 2558 
Q 3266 2144 3266 1488 
Q 3266 1056 3080 686 
Q 2894 316 2569 119 
Q 2244 -78 1831 -78 
Q 1128 -78 684 439 
Q 241 956 241 2144 
Q 241 3472 731 4075 
Q 1159 4600 1884 4600 
Q 2425 4600 2770 4297 
Q 3116 3994 3184 3459 
z
M 888 1484 
Q 888 1194 1011 928 
Q 1134 663 1356 523 
Q 1578 384 1822 384 
Q 2178 384 2434 671 
Q 2691 959 2691 1453 
Q 2691 1928 2437 2201 
Q 2184 2475 1800 2475 
Q 1419 2475 1153 2201 
Q 888 1928 888 1484 
z
" transform="scale(0.015625)"/>
       </defs>
       <use xlink:href="#ArialMT-36"/>
       <use xlink:href="#ArialMT-30" x="55.615234"/>
      </g>
     </g>
    </g>
    <g id="ytick_8">
     <g id="line2d_8">
      <path d="M 47.800505 56.254931 
L 356.0112 56.254931 
" clip-path="url(#pcac7a7750d)" style="fill: none; stroke: #cccccc; stroke-width: 0.8; stroke-linecap: round"/>
     </g>
     <g id="text_11">
      <!-- 70 -->
      <g style="fill: #262626" transform="translate(29.67863 59.833837) scale(0.1 -0.1)">
       <defs>
        <path id="ArialMT-37" d="M 303 3981 
L 303 4522 
L 3269 4522 
L 3269 4084 
Q 2831 3619 2401 2847 
Q 1972 2075 1738 1259 
Q 1569 684 1522 0 
L 944 0 
Q 953 541 1156 1306 
Q 1359 2072 1739 2783 
Q 2119 3494 2547 3981 
L 303 3981 
z
" transform="scale(0.015625)"/>
       </defs>
       <use xlink:href="#ArialMT-37"/>
       <use xlink:href="#ArialMT-30" x="55.615234"/>
      </g>
     </g>
    </g>
    <g id="ytick_9">
     <g id="line2d_9">
      <path d="M 47.800505 21.240603 
L 356.0112 21.240603 
" clip-path="url(#pcac7a7750d)" style="fill: none; stroke: #cccccc; stroke-width: 0.8; stroke-linecap: round"/>
     </g>
     <g id="text_12">
      <!-- 80 -->
      <g style="fill: #262626" transform="translate(29.67863 24.81951) scale(0.1 -0.1)">
       <defs>
        <path id="ArialMT-38" d="M 1131 2484 
Q 781 2613 612 2850 
Q 444 3088 444 3419 
Q 444 3919 803 4259 
Q 1163 4600 1759 4600 
Q 2359 4600 2725 4251 
Q 3091 3903 3091 3403 
Q 3091 3084 2923 2848 
Q 2756 2613 2416 2484 
Q 2838 2347 3058 2040 
Q 3278 1734 3278 1309 
Q 3278 722 2862 322 
Q 2447 -78 1769 -78 
Q 1091 -78 675 323 
Q 259 725 259 1325 
Q 259 1772 486 2073 
Q 713 2375 1131 2484 
z
M 1019 3438 
Q 1019 3113 1228 2906 
Q 1438 2700 1772 2700 
Q 2097 2700 2305 2904 
Q 2513 3109 2513 3406 
Q 2513 3716 2298 3927 
Q 2084 4138 1766 4138 
Q 1444 4138 1231 3931 
Q 1019 3725 1019 3438 
z
M 838 1322 
Q 838 1081 952 856 
Q 1066 631 1291 507 
Q 1516 384 1775 384 
Q 2178 384 2440 643 
Q 2703 903 2703 1303 
Q 2703 1709 2433 1975 
Q 2163 2241 1756 2241 
Q 1359 2241 1098 1978 
Q 838 1716 838 1322 
z
" transform="scale(0.015625)"/>
       </defs>
       <use xlink:href="#ArialMT-38"/>
       <use xlink:href="#ArialMT-30" x="55.615234"/>
      </g>
     </g>
    </g>
    <g id="text_13">
     <!-- Respiratory rate (breaths/min) -->
     <g style="fill: #262626" transform="translate(23.573942 230.82625) rotate(-90) scale(0.1 -0.1)">
      <defs>
       <path id="ArialMT-52" d="M 503 0 
L 503 4581 
L 2534 4581 
Q 3147 4581 3465 4457 
Q 3784 4334 3975 4021 
Q 4166 3709 4166 3331 
Q 4166 2844 3850 2509 
Q 3534 2175 2875 2084 
Q 3116 1969 3241 1856 
Q 3506 1613 3744 1247 
L 4541 0 
L 3778 0 
L 3172 953 
Q 2906 1366 2734 1584 
Q 2563 1803 2427 1890 
Q 2291 1978 2150 2013 
Q 2047 2034 1813 2034 
L 1109 2034 
L 1109 0 
L 503 0 
z
M 1109 2559 
L 2413 2559 
Q 2828 2559 3062 2645 
Q 3297 2731 3419 2920 
Q 3541 3109 3541 3331 
Q 3541 3656 3305 3865 
Q 3069 4075 2559 4075 
L 1109 4075 
L 1109 2559 
z
" transform="scale(0.015625)"/>
       <path id="ArialMT-70" d="M 422 -1272 
L 422 3319 
L 934 3319 
L 934 2888 
Q 1116 3141 1344 3267 
Q 1572 3394 1897 3394 
Q 2322 3394 2647 3175 
Q 2972 2956 3137 2557 
Q 3303 2159 3303 1684 
Q 3303 1175 3120 767 
Q 2938 359 2589 142 
Q 2241 -75 1856 -75 
Q 1575 -75 1351 44 
Q 1128 163 984 344 
L 984 -1272 
L 422 -1272 
z
M 931 1641 
Q 931 1000 1190 694 
Q 1450 388 1819 388 
Q 2194 388 2461 705 
Q 2728 1022 2728 1688 
Q 2728 2322 2467 2637 
Q 2206 2953 1844 2953 
Q 1484 2953 1207 2617 
Q 931 2281 931 1641 
z
" transform="scale(0.015625)"/>
       <path id="ArialMT-69" d="M 425 3934 
L 425 4581 
L 988 4581 
L 988 3934 
L 425 3934 
z
M 425 0 
L 425 3319 
L 988 3319 
L 988 0 
L 425 0 
z
" transform="scale(0.015625)"/>
       <path id="ArialMT-72" d="M 416 0 
L 416 3319 
L 922 3319 
L 922 2816 
Q 1116 3169 1280 3281 
Q 1444 3394 1641 3394 
Q 1925 3394 2219 3213 
L 2025 2691 
Q 1819 2813 1613 2813 
Q 1428 2813 1281 2702 
Q 1134 2591 1072 2394 
Q 978 2094 978 1738 
L 978 0 
L 416 0 
z
" transform="scale(0.015625)"/>
       <path id="ArialMT-61" d="M 2588 409 
Q 2275 144 1986 34 
Q 1697 -75 1366 -75 
Q 819 -75 525 192 
Q 231 459 231 875 
Q 231 1119 342 1320 
Q 453 1522 633 1644 
Q 813 1766 1038 1828 
Q 1203 1872 1538 1913 
Q 2219 1994 2541 2106 
Q 2544 2222 2544 2253 
Q 2544 2597 2384 2738 
Q 2169 2928 1744 2928 
Q 1347 2928 1158 2789 
Q 969 2650 878 2297 
L 328 2372 
Q 403 2725 575 2942 
Q 747 3159 1072 3276 
Q 1397 3394 1825 3394 
Q 2250 3394 2515 3294 
Q 2781 3194 2906 3042 
Q 3031 2891 3081 2659 
Q 3109 2516 3109 2141 
L 3109 1391 
Q 3109 606 3145 398 
Q 3181 191 3288 0 
L 2700 0 
Q 2613 175 2588 409 
z
M 2541 1666 
Q 2234 1541 1622 1453 
Q 1275 1403 1131 1340 
Q 988 1278 909 1158 
Q 831 1038 831 891 
Q 831 666 1001 516 
Q 1172 366 1500 366 
Q 1825 366 2078 508 
Q 2331 650 2450 897 
Q 2541 1088 2541 1459 
L 2541 1666 
z
" transform="scale(0.015625)"/>
       <path id="ArialMT-74" d="M 1650 503 
L 1731 6 
Q 1494 -44 1306 -44 
Q 1000 -44 831 53 
Q 663 150 594 308 
Q 525 466 525 972 
L 525 2881 
L 113 2881 
L 113 3319 
L 525 3319 
L 525 4141 
L 1084 4478 
L 1084 3319 
L 1650 3319 
L 1650 2881 
L 1084 2881 
L 1084 941 
Q 1084 700 1114 631 
Q 1144 563 1211 522 
Q 1278 481 1403 481 
Q 1497 481 1650 503 
z
" transform="scale(0.015625)"/>
       <path id="ArialMT-6f" d="M 213 1659 
Q 213 2581 725 3025 
Q 1153 3394 1769 3394 
Q 2453 3394 2887 2945 
Q 3322 2497 3322 1706 
Q 3322 1066 3130 698 
Q 2938 331 2570 128 
Q 2203 -75 1769 -75 
Q 1072 -75 642 372 
Q 213 819 213 1659 
z
M 791 1659 
Q 791 1022 1069 705 
Q 1347 388 1769 388 
Q 2188 388 2466 706 
Q 2744 1025 2744 1678 
Q 2744 2294 2464 2611 
Q 2184 2928 1769 2928 
Q 1347 2928 1069 2612 
Q 791 2297 791 1659 
z
" transform="scale(0.015625)"/>
       <path id="ArialMT-79" d="M 397 -1278 
L 334 -750 
Q 519 -800 656 -800 
Q 844 -800 956 -737 
Q 1069 -675 1141 -563 
Q 1194 -478 1313 -144 
Q 1328 -97 1363 -6 
L 103 3319 
L 709 3319 
L 1400 1397 
Q 1534 1031 1641 628 
Q 1738 1016 1872 1384 
L 2581 3319 
L 3144 3319 
L 1881 -56 
Q 1678 -603 1566 -809 
Q 1416 -1088 1222 -1217 
Q 1028 -1347 759 -1347 
Q 597 -1347 397 -1278 
z
" transform="scale(0.015625)"/>
       <path id="ArialMT-20" transform="scale(0.015625)"/>
       <path id="ArialMT-28" d="M 1497 -1347 
Q 1031 -759 709 28 
Q 388 816 388 1659 
Q 388 2403 628 3084 
Q 909 3875 1497 4659 
L 1900 4659 
Q 1522 4009 1400 3731 
Q 1209 3300 1100 2831 
Q 966 2247 966 1656 
Q 966 153 1900 -1347 
L 1497 -1347 
z
" transform="scale(0.015625)"/>
       <path id="ArialMT-62" d="M 941 0 
L 419 0 
L 419 4581 
L 981 4581 
L 981 2947 
Q 1338 3394 1891 3394 
Q 2197 3394 2470 3270 
Q 2744 3147 2920 2923 
Q 3097 2700 3197 2384 
Q 3297 2069 3297 1709 
Q 3297 856 2875 390 
Q 2453 -75 1863 -75 
Q 1275 -75 941 416 
L 941 0 
z
M 934 1684 
Q 934 1088 1097 822 
Q 1363 388 1816 388 
Q 2184 388 2453 708 
Q 2722 1028 2722 1663 
Q 2722 2313 2464 2622 
Q 2206 2931 1841 2931 
Q 1472 2931 1203 2611 
Q 934 2291 934 1684 
z
" transform="scale(0.015625)"/>
       <path id="ArialMT-68" d="M 422 0 
L 422 4581 
L 984 4581 
L 984 2938 
Q 1378 3394 1978 3394 
Q 2347 3394 2619 3248 
Q 2891 3103 3008 2847 
Q 3125 2591 3125 2103 
L 3125 0 
L 2563 0 
L 2563 2103 
Q 2563 2525 2380 2717 
Q 2197 2909 1863 2909 
Q 1613 2909 1392 2779 
Q 1172 2650 1078 2428 
Q 984 2206 984 1816 
L 984 0 
L 422 0 
z
" transform="scale(0.015625)"/>
       <path id="ArialMT-2f" d="M 0 -78 
L 1328 4659 
L 1778 4659 
L 453 -78 
L 0 -78 
z
" transform="scale(0.015625)"/>
       <path id="ArialMT-6e" d="M 422 0 
L 422 3319 
L 928 3319 
L 928 2847 
Q 1294 3394 1984 3394 
Q 2284 3394 2536 3286 
Q 2788 3178 2913 3003 
Q 3038 2828 3088 2588 
Q 3119 2431 3119 2041 
L 3119 0 
L 2556 0 
L 2556 2019 
Q 2556 2363 2490 2533 
Q 2425 2703 2258 2804 
Q 2091 2906 1866 2906 
Q 1506 2906 1245 2678 
Q 984 2450 984 1813 
L 984 0 
L 422 0 
z
" transform="scale(0.015625)"/>
       <path id="ArialMT-29" d="M 791 -1347 
L 388 -1347 
Q 1322 153 1322 1656 
Q 1322 2244 1188 2822 
Q 1081 3291 891 3722 
Q 769 4003 388 4659 
L 791 4659 
Q 1378 3875 1659 3084 
Q 1900 2403 1900 1659 
Q 1900 816 1576 28 
Q 1253 -759 791 -1347 
z
" transform="scale(0.015625)"/>
      </defs>
      <use xlink:href="#ArialMT-52"/>
      <use xlink:href="#ArialMT-65" x="72.216797"/>
      <use xlink:href="#ArialMT-73" x="127.832031"/>
      <use xlink:href="#ArialMT-70" x="177.832031"/>
      <use xlink:href="#ArialMT-69" x="233.447266"/>
      <use xlink:href="#ArialMT-72" x="255.664062"/>
      <use xlink:href="#ArialMT-61" x="288.964844"/>
      <use xlink:href="#ArialMT-74" x="344.580078"/>
      <use xlink:href="#ArialMT-6f" x="372.363281"/>
      <use xlink:href="#ArialMT-72" x="427.978516"/>
      <use xlink:href="#ArialMT-79" x="461.279297"/>
      <use xlink:href="#ArialMT-20" x="511.279297"/>
      <use xlink:href="#ArialMT-72" x="539.0625"/>
      <use xlink:href="#ArialMT-61" x="572.363281"/>
      <use xlink:href="#ArialMT-74" x="627.978516"/>
      <use xlink:href="#ArialMT-65" x="655.761719"/>
      <use xlink:href="#ArialMT-20" x="711.376953"/>
      <use xlink:href="#ArialMT-28" x="739.160156"/>
      <use xlink:href="#ArialMT-62" x="772.460938"/>
      <use xlink:href="#ArialMT-72" x="828.076172"/>
      <use xlink:href="#ArialMT-65" x="861.376953"/>
      <use xlink:href="#ArialMT-61" x="916.992188"/>
      <use xlink:href="#ArialMT-74" x="972.607422"/>
      <use xlink:href="#ArialMT-68" x="1000.390625"/>
      <use xlink:href="#ArialMT-73" x="1056.005859"/>
      <use xlink:href="#ArialMT-2f" x="1106.005859"/>
      <use xlink:href="#ArialMT-6d" x="1133.789062"/>
      <use xlink:href="#ArialMT-69" x="1217.089844"/>
      <use xlink:href="#ArialMT-6e" x="1239.306641"/>
      <use xlink:href="#ArialMT-29" x="1294.921875"/>
     </g>
    </g>
   </g>
   <g id="PolyCollection_1">
    <defs>
     <path id="mc5b173d4fd" d="M 94.466504 -55.925455 
L 93.597714 -55.925455 
L 93.481187 -58.746758 
L 93.340628 -61.568062 
L 93.173046 -64.389366 
L 92.975534 -67.21067 
L 92.745379 -70.031974 
L 92.480164 -72.853278 
L 92.177882 -75.674582 
L 91.837026 -78.495886 
L 91.456661 -81.31719 
L 91.036481 -84.138494 
L 90.576823 -86.959798 
L 90.078657 -89.781102 
L 89.54354 -92.602406 
L 88.973539 -95.42371 
L 88.37114 -98.245014 
L 87.739135 -101.066318 
L 87.080506 -103.887622 
L 86.398326 -106.708926 
L 85.69567 -109.53023 
L 84.97556 -112.351534 
L 84.240949 -115.172837 
L 83.494739 -117.994141 
L 82.739847 -120.815445 
L 81.979301 -123.636749 
L 81.216372 -126.458053 
L 80.454711 -129.279357 
L 79.698499 -132.100661 
L 78.952576 -134.921965 
L 78.22254 -137.743269 
L 77.514803 -140.564573 
L 76.836584 -143.385877 
L 76.195835 -146.207181 
L 75.601104 -149.028485 
L 75.061318 -151.849789 
L 74.585513 -154.671093 
L 74.182518 -157.492397 
L 73.860598 -160.313701 
L 73.627109 -163.135005 
L 73.488149 -165.956309 
L 73.448261 -168.777612 
L 73.510191 -171.598916 
L 73.674719 -174.42022 
L 73.940582 -177.241524 
L 74.304486 -180.062828 
L 74.761207 -182.884132 
L 75.303782 -185.705436 
L 75.923754 -188.52674 
L 76.611485 -191.348044 
L 77.356484 -194.169348 
L 78.147754 -196.990652 
L 78.974122 -199.811956 
L 79.824545 -202.63326 
L 80.688365 -205.454564 
L 81.555521 -208.275868 
L 82.416696 -211.097172 
L 83.263411 -213.918476 
L 84.088067 -216.73978 
L 84.883944 -219.561084 
L 85.645173 -222.382388 
L 86.36669 -225.203691 
L 87.044184 -228.024995 
L 87.674061 -230.846299 
L 88.253419 -233.667603 
L 88.780054 -236.488907 
L 89.252484 -239.310211 
L 89.670003 -242.131515 
L 90.032739 -244.952819 
L 90.341726 -247.774123 
L 90.598955 -250.595427 
L 90.807409 -253.416731 
L 90.97105 -256.238035 
L 91.094769 -259.059339 
L 91.184276 -261.880643 
L 91.245934 -264.701947 
L 91.286546 -267.523251 
L 91.313099 -270.344555 
L 91.332488 -273.165859 
L 91.351226 -275.987163 
L 91.375171 -278.808466 
L 91.409289 -281.62977 
L 91.457461 -284.451074 
L 91.522362 -287.272378 
L 91.605404 -290.093682 
L 91.70676 -292.914986 
L 91.825459 -295.73629 
L 91.959536 -298.557594 
L 92.106238 -301.378898 
L 92.262254 -304.200202 
L 92.423957 -307.021506 
L 92.587646 -309.84281 
L 92.749755 -312.664114 
L 92.907041 -315.485418 
L 93.056721 -318.306722 
L 93.196557 -321.128026 
L 93.32491 -323.94933 
L 93.440733 -326.770634 
L 93.54354 -329.591938 
L 93.633345 -332.413242 
L 93.710576 -335.234545 
L 94.353643 -335.234545 
L 94.353643 -335.234545 
L 94.430874 -332.413242 
L 94.520678 -329.591938 
L 94.623486 -326.770634 
L 94.739309 -323.94933 
L 94.867661 -321.128026 
L 95.007498 -318.306722 
L 95.157177 -315.485418 
L 95.314464 -312.664114 
L 95.476573 -309.84281 
L 95.640261 -307.021506 
L 95.801964 -304.200202 
L 95.95798 -301.378898 
L 96.104682 -298.557594 
L 96.23876 -295.73629 
L 96.357459 -292.914986 
L 96.458815 -290.093682 
L 96.541856 -287.272378 
L 96.606757 -284.451074 
L 96.65493 -281.62977 
L 96.689047 -278.808466 
L 96.712992 -275.987163 
L 96.73173 -273.165859 
L 96.751119 -270.344555 
L 96.777673 -267.523251 
L 96.818284 -264.701947 
L 96.879942 -261.880643 
L 96.969449 -259.059339 
L 97.093168 -256.238035 
L 97.25681 -253.416731 
L 97.465263 -250.595427 
L 97.722493 -247.774123 
L 98.03148 -244.952819 
L 98.394216 -242.131515 
L 98.811734 -239.310211 
L 99.284164 -236.488907 
L 99.810799 -233.667603 
L 100.390157 -230.846299 
L 101.020034 -228.024995 
L 101.697529 -225.203691 
L 102.419046 -222.382388 
L 103.180275 -219.561084 
L 103.976152 -216.73978 
L 104.800807 -213.918476 
L 105.647522 -211.097172 
L 106.508698 -208.275868 
L 107.375854 -205.454564 
L 108.239674 -202.63326 
L 109.090096 -199.811956 
L 109.916464 -196.990652 
L 110.707734 -194.169348 
L 111.452733 -191.348044 
L 112.140464 -188.52674 
L 112.760437 -185.705436 
L 113.303011 -182.884132 
L 113.759733 -180.062828 
L 114.123636 -177.241524 
L 114.389499 -174.42022 
L 114.554027 -171.598916 
L 114.615957 -168.777612 
L 114.57607 -165.956309 
L 114.43711 -163.135005 
L 114.20362 -160.313701 
L 113.881701 -157.492397 
L 113.478705 -154.671093 
L 113.002901 -151.849789 
L 112.463115 -149.028485 
L 111.868383 -146.207181 
L 111.227635 -143.385877 
L 110.549415 -140.564573 
L 109.841678 -137.743269 
L 109.111643 -134.921965 
L 108.36572 -132.100661 
L 107.609508 -129.279357 
L 106.847847 -126.458053 
L 106.084917 -123.636749 
L 105.324372 -120.815445 
L 104.56948 -117.994141 
L 103.823269 -115.172837 
L 103.088658 -112.351534 
L 102.368549 -109.53023 
L 101.665892 -106.708926 
L 100.983712 -103.887622 
L 100.325084 -101.066318 
L 99.693078 -98.245014 
L 99.09068 -95.42371 
L 98.520679 -92.602406 
L 97.985561 -89.781102 
L 97.487395 -86.959798 
L 97.027738 -84.138494 
L 96.607558 -81.31719 
L 96.227193 -78.495886 
L 95.886336 -75.674582 
L 95.584054 -72.853278 
L 95.31884 -70.031974 
L 95.088684 -67.21067 
L 94.891173 -64.389366 
L 94.723591 -61.568062 
L 94.583031 -58.746758 
L 94.466504 -55.925455 
z
" style="stroke: #3f3f3f; stroke-width: 1.25"/>
    </defs>
    <g clip-path="url(#pcac7a7750d)">
     <use xlink:href="#mc5b173d4fd" x="0" y="360" style="fill: #3274a1; stroke: #3f3f3f; stroke-width: 1.25"/>
    </g>
   </g>
   <g id="PolyCollection_2">
    <defs>
     <path id="m918b93b06c" d="M 156.419751 -81.220172 
L 154.928746 -81.220172 
L 154.733393 -83.068446 
L 154.497366 -84.91672 
L 154.215107 -86.764994 
L 153.881031 -88.613268 
L 153.489715 -90.461542 
L 153.036135 -92.309816 
L 152.515922 -94.15809 
L 151.925638 -96.006364 
L 151.263064 -97.854638 
L 150.527474 -99.702912 
L 149.719889 -101.551186 
L 148.843286 -103.39946 
L 147.902751 -105.247734 
L 146.905549 -107.096008 
L 145.861105 -108.944282 
L 144.780889 -110.792555 
L 143.67819 -112.640829 
L 142.567787 -114.489103 
L 141.465529 -116.337377 
L 140.387833 -118.185651 
L 139.351125 -120.033925 
L 138.371253 -121.882199 
L 137.462897 -123.730473 
L 136.639017 -125.578747 
L 135.910367 -127.427021 
L 135.285103 -129.275295 
L 134.768514 -131.123569 
L 134.362893 -132.971843 
L 134.067549 -134.820117 
L 133.878979 -136.668391 
L 133.791161 -138.516665 
L 133.795981 -140.364939 
L 133.883741 -142.213213 
L 134.043731 -144.061487 
L 134.264819 -145.909761 
L 134.536024 -147.758035 
L 134.847049 -149.606309 
L 135.188709 -151.454583 
L 135.553278 -153.302857 
L 135.934686 -155.151131 
L 136.328607 -156.999405 
L 136.732409 -158.847678 
L 137.144988 -160.695952 
L 137.566509 -162.544226 
L 137.998082 -164.3925 
L 138.441391 -166.240774 
L 138.898319 -168.089048 
L 139.370589 -169.937322 
L 139.859458 -171.785596 
L 140.365468 -173.63387 
L 140.888285 -175.482144 
L 141.426615 -177.330418 
L 141.97821 -179.178692 
L 142.539946 -181.026966 
L 143.107966 -182.87524 
L 143.677869 -184.723514 
L 144.244929 -186.571788 
L 144.804321 -188.420062 
L 145.351346 -190.268336 
L 145.881631 -192.11661 
L 146.391299 -193.964884 
L 146.87711 -195.813158 
L 147.336548 -197.661432 
L 147.767883 -199.509706 
L 148.170188 -201.35798 
L 148.543327 -203.206254 
L 148.887916 -205.054528 
L 149.205256 -206.902801 
L 149.497261 -208.751075 
L 149.766358 -210.599349 
L 150.015384 -212.447623 
L 150.247473 -214.295897 
L 150.465933 -216.144171 
L 150.674127 -217.992445 
L 150.875338 -219.840719 
L 151.072657 -221.688993 
L 151.268855 -223.537267 
L 151.466289 -225.385541 
L 151.666808 -227.233815 
L 151.871695 -229.082089 
L 152.081626 -230.930363 
L 152.296664 -232.778637 
L 152.516285 -234.626911 
L 152.739428 -236.475185 
L 152.964576 -238.323459 
L 153.189857 -240.171733 
L 153.413159 -242.020007 
L 153.632255 -243.868281 
L 153.844919 -245.716555 
L 154.049045 -247.564829 
L 154.24274 -249.413103 
L 154.424407 -251.261377 
L 154.592795 -253.109651 
L 154.747037 -254.957924 
L 154.886651 -256.806198 
L 155.011532 -258.654472 
L 155.121915 -260.502746 
L 155.218335 -262.35102 
L 155.301571 -264.199294 
L 156.046926 -264.199294 
L 156.046926 -264.199294 
L 156.130161 -262.35102 
L 156.226582 -260.502746 
L 156.336965 -258.654472 
L 156.461845 -256.806198 
L 156.601459 -254.957924 
L 156.755701 -253.109651 
L 156.92409 -251.261377 
L 157.105756 -249.413103 
L 157.299451 -247.564829 
L 157.503577 -245.716555 
L 157.716241 -243.868281 
L 157.935337 -242.020007 
L 158.15864 -240.171733 
L 158.383921 -238.323459 
L 158.609068 -236.475185 
L 158.832211 -234.626911 
L 159.051832 -232.778637 
L 159.266871 -230.930363 
L 159.476802 -229.082089 
L 159.681689 -227.233815 
L 159.882208 -225.385541 
L 160.079642 -223.537267 
L 160.27584 -221.688993 
L 160.473158 -219.840719 
L 160.67437 -217.992445 
L 160.882563 -216.144171 
L 161.101024 -214.295897 
L 161.333112 -212.447623 
L 161.582138 -210.599349 
L 161.851235 -208.751075 
L 162.14324 -206.902801 
L 162.460581 -205.054528 
L 162.805169 -203.206254 
L 163.178309 -201.35798 
L 163.580614 -199.509706 
L 164.011949 -197.661432 
L 164.471387 -195.813158 
L 164.957197 -193.964884 
L 165.466866 -192.11661 
L 165.99715 -190.268336 
L 166.544175 -188.420062 
L 167.103568 -186.571788 
L 167.670627 -184.723514 
L 168.24053 -182.87524 
L 168.80855 -181.026966 
L 169.370286 -179.178692 
L 169.921881 -177.330418 
L 170.460212 -175.482144 
L 170.983029 -173.63387 
L 171.489039 -171.785596 
L 171.977908 -169.937322 
L 172.450178 -168.089048 
L 172.907105 -166.240774 
L 173.350414 -164.3925 
L 173.781988 -162.544226 
L 174.203509 -160.695952 
L 174.616087 -158.847678 
L 175.019889 -156.999405 
L 175.413811 -155.151131 
L 175.795219 -153.302857 
L 176.159787 -151.454583 
L 176.501448 -149.606309 
L 176.812472 -147.758035 
L 177.083678 -145.909761 
L 177.304765 -144.061487 
L 177.464755 -142.213213 
L 177.552516 -140.364939 
L 177.557336 -138.516665 
L 177.469518 -136.668391 
L 177.280947 -134.820117 
L 176.985604 -132.971843 
L 176.579982 -131.123569 
L 176.063394 -129.275295 
L 175.43813 -127.427021 
L 174.709479 -125.578747 
L 173.8856 -123.730473 
L 172.977243 -121.882199 
L 171.997371 -120.033925 
L 170.960664 -118.185651 
L 169.882968 -116.337377 
L 168.78071 -114.489103 
L 167.670306 -112.640829 
L 166.567607 -110.792555 
L 165.487391 -108.944282 
L 164.442948 -107.096008 
L 163.445745 -105.247734 
L 162.505211 -103.39946 
L 161.628608 -101.551186 
L 160.821023 -99.702912 
L 160.085432 -97.854638 
L 159.422858 -96.006364 
L 158.832574 -94.15809 
L 158.312361 -92.309816 
L 157.858781 -90.461542 
L 157.467466 -88.613268 
L 157.133389 -86.764994 
L 156.851131 -84.91672 
L 156.615104 -83.068446 
L 156.419751 -81.220172 
z
" style="stroke: #3f3f3f; stroke-width: 1.25"/>
    </defs>
    <g clip-path="url(#pcac7a7750d)">
     <use xlink:href="#m918b93b06c" x="0" y="360" style="fill: #e1812c; stroke: #3f3f3f; stroke-width: 1.25"/>
    </g>
   </g>
   <g id="PolyCollection_3">
    <defs>
     <path id="md7bb4a48c4" d="M 248.535967 -97.956469 
L 247.738946 -97.956469 
L 247.623026 -99.655126 
L 247.482983 -101.353782 
L 247.31651 -103.052438 
L 247.121649 -104.751094 
L 246.896832 -106.44975 
L 246.640847 -108.148406 
L 246.352715 -109.847062 
L 246.03147 -111.545718 
L 245.67586 -113.244374 
L 245.283977 -114.94303 
L 244.852876 -116.641686 
L 244.378232 -118.340342 
L 243.854107 -120.038998 
L 243.272884 -121.737654 
L 242.625445 -123.43631 
L 241.901597 -125.134966 
L 241.09078 -126.833622 
L 240.183016 -128.532278 
L 239.170021 -130.230934 
L 238.046411 -131.929591 
L 236.81085 -133.628247 
L 235.467042 -135.326903 
L 234.024432 -137.025559 
L 232.498516 -138.724215 
L 230.9107 -140.422871 
L 229.28768 -142.121527 
L 227.660358 -143.820183 
L 226.062353 -145.518839 
L 224.528194 -147.217495 
L 223.091339 -148.916151 
L 221.782124 -150.614807 
L 220.625836 -152.313463 
L 219.641017 -154.012119 
L 218.838184 -155.710775 
L 218.219055 -157.409431 
L 217.7764 -159.108087 
L 217.494561 -160.806743 
L 217.350653 -162.505399 
L 217.316387 -164.204056 
L 217.36041 -165.902712 
L 217.45097 -167.601368 
L 217.558701 -169.300024 
L 217.659254 -170.99868 
L 217.73553 -172.697336 
L 217.779274 -174.395992 
L 217.791856 -176.094648 
L 217.784154 -177.793304 
L 217.775517 -179.49196 
L 217.791938 -181.190616 
L 217.863611 -182.889272 
L 218.022134 -184.587928 
L 218.297636 -186.286584 
L 218.716134 -187.98524 
L 219.29734 -189.683896 
L 220.053113 -191.382552 
L 220.986644 -193.081208 
L 222.092376 -194.779864 
L 223.356597 -196.47852 
L 224.758563 -198.177177 
L 226.271988 -199.875833 
L 227.866733 -201.574489 
L 229.510518 -203.273145 
L 231.170546 -204.971801 
L 232.81493 -206.670457 
L 234.413895 -208.369113 
L 235.940722 -210.067769 
L 237.372461 -211.766425 
L 238.690432 -213.465081 
L 239.880539 -215.163737 
L 240.933435 -216.862393 
L 241.844543 -218.561049 
L 242.613942 -220.259705 
L 243.24613 -221.958361 
L 243.749637 -223.657017 
L 244.136511 -225.355673 
L 244.42167 -227.054329 
L 244.62213 -228.752985 
L 244.756152 -230.451642 
L 244.842329 -232.150298 
L 244.898678 -233.848954 
L 244.941788 -235.54761 
L 244.986074 -237.246266 
L 245.0432 -238.944922 
L 245.121704 -240.643578 
L 245.226843 -242.342234 
L 245.360678 -244.04089 
L 245.522358 -245.739546 
L 245.708595 -247.438202 
L 245.914247 -249.136858 
L 246.132976 -250.835514 
L 246.357907 -252.53417 
L 246.582232 -254.232826 
L 246.79972 -255.931482 
L 247.005094 -257.630138 
L 247.194271 -259.328794 
L 247.364462 -261.02745 
L 247.514149 -262.726107 
L 247.642963 -264.424763 
L 247.751498 -266.123419 
L 248.523415 -266.123419 
L 248.523415 -266.123419 
L 248.631951 -264.424763 
L 248.760765 -262.726107 
L 248.910452 -261.02745 
L 249.080643 -259.328794 
L 249.26982 -257.630138 
L 249.475193 -255.931482 
L 249.692681 -254.232826 
L 249.917007 -252.53417 
L 250.141938 -250.835514 
L 250.360667 -249.136858 
L 250.566319 -247.438202 
L 250.752555 -245.739546 
L 250.914236 -244.04089 
L 251.04807 -242.342234 
L 251.153209 -240.643578 
L 251.231713 -238.944922 
L 251.28884 -237.246266 
L 251.333126 -235.54761 
L 251.376236 -233.848954 
L 251.432585 -232.150298 
L 251.518761 -230.451642 
L 251.652783 -228.752985 
L 251.853244 -227.054329 
L 252.138403 -225.355673 
L 252.525277 -223.657017 
L 253.028784 -221.958361 
L 253.660971 -220.259705 
L 254.430371 -218.561049 
L 255.341478 -216.862393 
L 256.394374 -215.163737 
L 257.584481 -213.465081 
L 258.902452 -211.766425 
L 260.334192 -210.067769 
L 261.861019 -208.369113 
L 263.459984 -206.670457 
L 265.104368 -204.971801 
L 266.764396 -203.273145 
L 268.408181 -201.574489 
L 270.002926 -199.875833 
L 271.516351 -198.177177 
L 272.918316 -196.47852 
L 274.182538 -194.779864 
L 275.28827 -193.081208 
L 276.2218 -191.382552 
L 276.977573 -189.683896 
L 277.558779 -187.98524 
L 277.977277 -186.286584 
L 278.25278 -184.587928 
L 278.411302 -182.889272 
L 278.482976 -181.190616 
L 278.499397 -179.49196 
L 278.490759 -177.793304 
L 278.483057 -176.094648 
L 278.49564 -174.395992 
L 278.539383 -172.697336 
L 278.615659 -170.99868 
L 278.716212 -169.300024 
L 278.823943 -167.601368 
L 278.914504 -165.902712 
L 278.958526 -164.204056 
L 278.92426 -162.505399 
L 278.780352 -160.806743 
L 278.498513 -159.108087 
L 278.055858 -157.409431 
L 277.436729 -155.710775 
L 276.633896 -154.012119 
L 275.649078 -152.313463 
L 274.492789 -150.614807 
L 273.183575 -148.916151 
L 271.746719 -147.217495 
L 270.212561 -145.518839 
L 268.614555 -143.820183 
L 266.987234 -142.121527 
L 265.364214 -140.422871 
L 263.776398 -138.724215 
L 262.250481 -137.025559 
L 260.807871 -135.326903 
L 259.464064 -133.628247 
L 258.228503 -131.929591 
L 257.104892 -130.230934 
L 256.091898 -128.532278 
L 255.184133 -126.833622 
L 254.373317 -125.134966 
L 253.649468 -123.43631 
L 253.002029 -121.737654 
L 252.420807 -120.038998 
L 251.896681 -118.340342 
L 251.422037 -116.641686 
L 250.990936 -114.94303 
L 250.599053 -113.244374 
L 250.243444 -111.545718 
L 249.922199 -109.847062 
L 249.634066 -108.148406 
L 249.378081 -106.44975 
L 249.153265 -104.751094 
L 248.958404 -103.052438 
L 248.79193 -101.353782 
L 248.651887 -99.655126 
L 248.535967 -97.956469 
z
" style="stroke: #3f3f3f; stroke-width: 1.25"/>
    </defs>
    <g clip-path="url(#pcac7a7750d)">
     <use xlink:href="#md7bb4a48c4" x="0" y="360" style="fill: #3274a1; stroke: #3f3f3f; stroke-width: 1.25"/>
    </g>
   </g>
   <g id="PolyCollection_4">
    <defs>
     <path id="m895be64303" d="M 310.466163 -92.364151 
L 309.093028 -92.364151 
L 308.893877 -93.872816 
L 308.652909 -95.381481 
L 308.36617 -96.890146 
L 308.030616 -98.39881 
L 307.644425 -99.907475 
L 307.207265 -101.41614 
L 306.72046 -102.924805 
L 306.187039 -104.43347 
L 305.611614 -105.942135 
L 305.000092 -107.4508 
L 304.359201 -108.959464 
L 303.695864 -110.468129 
L 303.016468 -111.976794 
L 302.326084 -113.485459 
L 301.627727 -114.994124 
L 300.921748 -116.502789 
L 300.205445 -118.011454 
L 299.472972 -119.520119 
L 298.715597 -121.028783 
L 297.922332 -122.537448 
L 297.080924 -124.046113 
L 296.179135 -125.554778 
L 295.20622 -127.063443 
L 294.15447 -128.572108 
L 293.020669 -130.080773 
L 291.8073 -131.589437 
L 290.523361 -133.098102 
L 289.184673 -134.606767 
L 287.813595 -136.115432 
L 286.438144 -137.624097 
L 285.090555 -139.132762 
L 283.80539 -140.641427 
L 282.617348 -142.150091 
L 281.558976 -143.658756 
L 280.658493 -145.167421 
L 279.937925 -146.676086 
L 279.411727 -148.184751 
L 279.086024 -149.693416 
L 278.958526 -151.202081 
L 279.019109 -152.710745 
L 279.250989 -154.21941 
L 279.632367 -155.728075 
L 280.138342 -157.23674 
L 280.742943 -158.745405 
L 281.421056 -160.25407 
L 282.150092 -161.762735 
L 282.911284 -163.2714 
L 283.690503 -164.780064 
L 284.478597 -166.288729 
L 285.271253 -167.797394 
L 286.068464 -169.306059 
L 286.873669 -170.814724 
L 287.692693 -172.323389 
L 288.532587 -173.832054 
L 289.400476 -175.340718 
L 290.3025 -176.849383 
L 291.242916 -178.358048 
L 292.223423 -179.866713 
L 293.242717 -181.375378 
L 294.296307 -182.884043 
L 295.376575 -184.392708 
L 296.473061 -185.901372 
L 297.572954 -187.410037 
L 298.661736 -188.918702 
L 299.723953 -190.427367 
L 300.744037 -191.936032 
L 301.70716 -193.444697 
L 302.600032 -194.953362 
L 303.411621 -196.462026 
L 304.133739 -197.970691 
L 304.761455 -199.479356 
L 305.293321 -200.988021 
L 305.731387 -202.496686 
L 306.081015 -204.005351 
L 306.350504 -205.514016 
L 306.550546 -207.022681 
L 306.693568 -208.531345 
L 306.79298 -210.04001 
L 306.862405 -211.548675 
L 306.91493 -213.05734 
L 306.962429 -214.566005 
L 307.015004 -216.07467 
L 307.080576 -217.583335 
L 307.164658 -219.091999 
L 307.270294 -220.600664 
L 307.398177 -222.109329 
L 307.54692 -223.617994 
L 307.713438 -225.126659 
L 307.893404 -226.635324 
L 308.081741 -228.143989 
L 308.273102 -229.652653 
L 308.462294 -231.161318 
L 308.644635 -232.669983 
L 308.816209 -234.178648 
L 308.974019 -235.687313 
L 309.116049 -237.195978 
L 309.241234 -238.704643 
L 309.349365 -240.213307 
L 309.440954 -241.721972 
L 310.118238 -241.721972 
L 310.118238 -241.721972 
L 310.209826 -240.213307 
L 310.317958 -238.704643 
L 310.443142 -237.195978 
L 310.585172 -235.687313 
L 310.742983 -234.178648 
L 310.914556 -232.669983 
L 311.096897 -231.161318 
L 311.286089 -229.652653 
L 311.47745 -228.143989 
L 311.665788 -226.635324 
L 311.845753 -225.126659 
L 312.012271 -223.617994 
L 312.161015 -222.109329 
L 312.288898 -220.600664 
L 312.394533 -219.091999 
L 312.478615 -217.583335 
L 312.544188 -216.07467 
L 312.596762 -214.566005 
L 312.644261 -213.05734 
L 312.696786 -211.548675 
L 312.766212 -210.04001 
L 312.865623 -208.531345 
L 313.008645 -207.022681 
L 313.208688 -205.514016 
L 313.478176 -204.005351 
L 313.827805 -202.496686 
L 314.265871 -200.988021 
L 314.797737 -199.479356 
L 315.425453 -197.970691 
L 316.147571 -196.462026 
L 316.95916 -194.953362 
L 317.852031 -193.444697 
L 318.815154 -191.936032 
L 319.835239 -190.427367 
L 320.897455 -188.918702 
L 321.986238 -187.410037 
L 323.08613 -185.901372 
L 324.182616 -184.392708 
L 325.262884 -182.884043 
L 326.316475 -181.375378 
L 327.335769 -179.866713 
L 328.316276 -178.358048 
L 329.256692 -176.849383 
L 330.158715 -175.340718 
L 331.026604 -173.832054 
L 331.866499 -172.323389 
L 332.685522 -170.814724 
L 333.490727 -169.306059 
L 334.287938 -167.797394 
L 335.080595 -166.288729 
L 335.868688 -164.780064 
L 336.647907 -163.2714 
L 337.409099 -161.762735 
L 338.138136 -160.25407 
L 338.816248 -158.745405 
L 339.42085 -157.23674 
L 339.926825 -155.728075 
L 340.308202 -154.21941 
L 340.540083 -152.710745 
L 340.600665 -151.202081 
L 340.473167 -149.693416 
L 340.147465 -148.184751 
L 339.621267 -146.676086 
L 338.900698 -145.167421 
L 338.000216 -143.658756 
L 336.941844 -142.150091 
L 335.753801 -140.641427 
L 334.468636 -139.132762 
L 333.121048 -137.624097 
L 331.745597 -136.115432 
L 330.374518 -134.606767 
L 329.03583 -133.098102 
L 327.751892 -131.589437 
L 326.538522 -130.080773 
L 325.404721 -128.572108 
L 324.352972 -127.063443 
L 323.380056 -125.554778 
L 322.478268 -124.046113 
L 321.63686 -122.537448 
L 320.843595 -121.028783 
L 320.086219 -119.520119 
L 319.353746 -118.011454 
L 318.637444 -116.502789 
L 317.931465 -114.994124 
L 317.233108 -113.485459 
L 316.542723 -111.976794 
L 315.863328 -110.468129 
L 315.199991 -108.959464 
L 314.559099 -107.4508 
L 313.947577 -105.942135 
L 313.372153 -104.43347 
L 312.838731 -102.924805 
L 312.351927 -101.41614 
L 311.914766 -99.907475 
L 311.528576 -98.39881 
L 311.193021 -96.890146 
L 310.906282 -95.381481 
L 310.665314 -93.872816 
L 310.466163 -92.364151 
z
" style="stroke: #3f3f3f; stroke-width: 1.25"/>
    </defs>
    <g clip-path="url(#pcac7a7750d)">
     <use xlink:href="#m895be64303" x="0" y="360" style="fill: #e1812c; stroke: #3f3f3f; stroke-width: 1.25"/>
    </g>
   </g>
   <g id="patch_3">
    <path d="M 124.853179 301.355224 
L 124.853179 301.355224 
L 124.853179 301.355224 
L 124.853179 301.355224 
z
" clip-path="url(#pcac7a7750d)" style="fill: #3274a1; stroke: #3f3f3f; stroke-width: 1.25; stroke-linejoin: miter"/>
   </g>
   <g id="patch_4">
    <path d="M 124.853179 301.355224 
L 124.853179 301.355224 
L 124.853179 301.355224 
L 124.853179 301.355224 
z
" clip-path="url(#pcac7a7750d)" style="fill: #e1812c; stroke: #3f3f3f; stroke-width: 1.25; stroke-linejoin: miter"/>
   </g>
   <g id="line2d_10">
    <path d="M 94.032109 253.044275 
L 94.032109 133.827517 
" clip-path="url(#pcac7a7750d)" style="fill: none; stroke: #3f3f3f; stroke-width: 1.875; stroke-linecap: round"/>
   </g>
   <g id="line2d_11">
    <path d="M 94.032109 212.424244 
L 94.032109 167.531972 
" clip-path="url(#pcac7a7750d)" style="fill: none; stroke: #3f3f3f; stroke-width: 5.625; stroke-linecap: round"/>
   </g>
   <g id="line2d_12">
    <path d="M 94.032109 190.768076 
" clip-path="url(#pcac7a7750d)" style="fill: none; stroke: #3f3f3f; stroke-width: 1.5; stroke-linecap: round"/>
    <defs>
     <path id="m4bebd22f72" d="M 2.34375 0 
L -2.34375 -0 
" style="stroke: #ffffff; stroke-width: 1.125"/>
    </defs>
    <g clip-path="url(#pcac7a7750d)">
     <use xlink:href="#m4bebd22f72" x="94.032109" y="190.768076" style="fill: #ffffff; stroke: #ffffff; stroke-width: 1.125"/>
    </g>
   </g>
   <g id="line2d_13">
    <path d="M 155.674248 242.36296 
L 155.674248 132.217574 
" clip-path="url(#pcac7a7750d)" style="fill: none; stroke: #3f3f3f; stroke-width: 1.875; stroke-linecap: round"/>
   </g>
   <g id="line2d_14">
    <path d="M 155.674248 229.946795 
L 155.674248 187.423573 
" clip-path="url(#pcac7a7750d)" style="fill: none; stroke: #3f3f3f; stroke-width: 5.625; stroke-linecap: round"/>
   </g>
   <g id="line2d_15">
    <path d="M 155.674248 214.74651 
" clip-path="url(#pcac7a7750d)" style="fill: none; stroke: #3f3f3f; stroke-width: 1.5; stroke-linecap: round"/>
    <g clip-path="url(#pcac7a7750d)">
     <use xlink:href="#m4bebd22f72" x="155.674248" y="214.74651" style="fill: #ffffff; stroke: #ffffff; stroke-width: 1.125"/>
    </g>
   </g>
   <g id="line2d_16">
    <path d="M 248.137457 235.483953 
L 248.137457 153.152259 
" clip-path="url(#pcac7a7750d)" style="fill: none; stroke: #3f3f3f; stroke-width: 1.875; stroke-linecap: round"/>
   </g>
   <g id="line2d_17">
    <path d="M 248.137457 201.412593 
L 248.137457 172.207375 
" clip-path="url(#pcac7a7750d)" style="fill: none; stroke: #3f3f3f; stroke-width: 5.625; stroke-linecap: round"/>
   </g>
   <g id="line2d_18">
    <path d="M 248.137457 187.88387 
" clip-path="url(#pcac7a7750d)" style="fill: none; stroke: #3f3f3f; stroke-width: 1.5; stroke-linecap: round"/>
    <g clip-path="url(#pcac7a7750d)">
     <use xlink:href="#m4bebd22f72" x="248.137457" y="187.88387" style="fill: #ffffff; stroke: #ffffff; stroke-width: 1.125"/>
    </g>
   </g>
   <g id="line2d_19">
    <path d="M 309.779596 243.186412 
L 309.779596 172.985792 
" clip-path="url(#pcac7a7750d)" style="fill: none; stroke: #3f3f3f; stroke-width: 1.875; stroke-linecap: round"/>
   </g>
   <g id="line2d_20">
    <path d="M 309.779596 215.213374 
L 309.779596 189.77518 
" clip-path="url(#pcac7a7750d)" style="fill: none; stroke: #3f3f3f; stroke-width: 5.625; stroke-linecap: round"/>
   </g>
   <g id="line2d_21">
    <path d="M 309.779596 207.557055 
" clip-path="url(#pcac7a7750d)" style="fill: none; stroke: #3f3f3f; stroke-width: 1.5; stroke-linecap: round"/>
    <g clip-path="url(#pcac7a7750d)">
     <use xlink:href="#m4bebd22f72" x="309.779596" y="207.557055" style="fill: #ffffff; stroke: #ffffff; stroke-width: 1.125"/>
    </g>
   </g>
   <g id="patch_5">
    <path d="M 47.800505 318.04 
L 47.800505 10.8 
" style="fill: none; stroke: #cccccc; stroke-width: 0.8; stroke-linejoin: miter; stroke-linecap: square"/>
   </g>
   <g id="patch_6">
    <path d="M 47.800505 318.04 
L 356.0112 318.04 
" style="fill: none; stroke: #cccccc; stroke-width: 0.8; stroke-linejoin: miter; stroke-linecap: square"/>
   </g>
  </g>
  <g id="legend_1">
   <g id="text_14">
    <!-- time -->
    <g style="fill: #262626" transform="translate(365.045625 168.439844) scale(0.1 -0.1)">
     <use xlink:href="#ArialMT-74"/>
     <use xlink:href="#ArialMT-69" x="27.783203"/>
     <use xlink:href="#ArialMT-6d" x="50"/>
     <use xlink:href="#ArialMT-65" x="133.300781"/>
    </g>
   </g>
   <g id="patch_7">
    <path d="M 359.101875 182.585156 
L 379.101875 182.585156 
L 379.101875 175.585156 
L 359.101875 175.585156 
z
" style="fill: #3274a1; stroke: #3f3f3f; stroke-width: 1.25; stroke-linejoin: miter"/>
   </g>
   <g id="text_15">
    <!-- i -->
    <g style="fill: #262626" transform="translate(387.101875 182.585156) scale(0.1 -0.1)">
     <use xlink:href="#ArialMT-69"/>
    </g>
   </g>
   <g id="patch_8">
    <path d="M 359.101875 196.730469 
L 379.101875 196.730469 
L 379.101875 189.730469 
L 359.101875 189.730469 
z
" style="fill: #e1812c; stroke: #3f3f3f; stroke-width: 1.25; stroke-linejoin: miter"/>
   </g>
   <g id="text_16">
    <!-- f -->
    <g style="fill: #262626" transform="translate(387.101875 196.730469) scale(0.1 -0.1)">
     <use xlink:href="#ArialMT-66"/>
    </g>
   </g>
  </g>
 </g>
 <defs>
  <clipPath id="pcac7a7750d">
   <rect x="47.800505" y="10.8" width="308.210695" height="307.24"/>
  </clipPath>
 </defs>
</svg>
