<?xml version="1.0" encoding="utf-8" standalone="no"?>
<!DOCTYPE svg PUBLIC "-//W3C//DTD SVG 1.1//EN"
  "http://www.w3.org/Graphics/SVG/1.1/DTD/svg11.dtd">
<svg xmlns:xlink="http://www.w3.org/1999/xlink" width="398.88pt" height="360pt" viewBox="0 0 398.88 360" xmlns="http://www.w3.org/2000/svg" version="1.1">
 <metadata>
  <rdf:RDF xmlns:dc="http://purl.org/dc/elements/1.1/" xmlns:cc="http://creativecommons.org/ns#" xmlns:rdf="http://www.w3.org/1999/02/22-rdf-syntax-ns#">
   <cc:Work>
    <dc:type rdf:resource="http://purl.org/dc/dcmitype/StillImage"/>
    <dc:date>2024-09-11T03:31:53.325591</dc:date>
    <dc:format>image/svg+xml</dc:format>
    <dc:creator>
     <cc:Agent>
      <dc:title>Matplotlib v3.8.3, https://matplotlib.org/</dc:title>
     </cc:Agent>
    </dc:creator>
   </cc:Work>
  </rdf:RDF>
 </metadata>
 <defs>
  <style type="text/css">*{stroke-linejoin: round; stroke-linecap: butt}</style>
 </defs>
 <g id="figure_1">
  <g id="patch_1">
   <path d="M 0 360 
L 398.88 360 
L 398.88 0 
L 0 0 
z
" style="fill: #ffffff"/>
  </g>
  <g id="axes_1">
   <g id="patch_2">
    <path d="M 50.891825 318.04 
L 356.0112 318.04 
L 356.0112 10.8 
L 50.891825 10.8 
z
" style="fill: #ffffff"/>
   </g>
   <g id="matplotlib.axis_1">
    <g id="xtick_1">
     <g id="text_1">
      <!-- f -->
      <g style="fill: #262626" transform="translate(125.782606 332.197812) scale(0.1 -0.1)">
       <defs>
        <path id="ArialMT-66" d="M 556 0 
L 556 2881 
L 59 2881 
L 59 3319 
L 556 3319 
L 556 3672 
Q 556 4006 616 4169 
Q 697 4388 901 4523 
Q 1106 4659 1475 4659 
Q 1713 4659 2000 4603 
L 1916 4113 
Q 1741 4144 1584 4144 
Q 1328 4144 1222 4034 
Q 1116 3925 1116 3625 
L 1116 3319 
L 1763 3319 
L 1763 2881 
L 1116 2881 
L 1116 0 
L 556 0 
z
" transform="scale(0.015625)"/>
       </defs>
       <use xlink:href="#ArialMT-66"/>
      </g>
     </g>
    </g>
    <g id="xtick_2">
     <g id="text_2">
      <!-- m -->
      <g style="fill: #262626" transform="translate(275.566512 332.197812) scale(0.1 -0.1)">
       <defs>
        <path id="ArialMT-6d" d="M 422 0 
L 422 3319 
L 925 3319 
L 925 2853 
Q 1081 3097 1340 3245 
Q 1600 3394 1931 3394 
Q 2300 3394 2536 3241 
Q 2772 3088 2869 2813 
Q 3263 3394 3894 3394 
Q 4388 3394 4653 3120 
Q 4919 2847 4919 2278 
L 4919 0 
L 4359 0 
L 4359 2091 
Q 4359 2428 4304 2576 
Q 4250 2725 4106 2815 
Q 3963 2906 3769 2906 
Q 3419 2906 3187 2673 
Q 2956 2441 2956 1928 
L 2956 0 
L 2394 0 
L 2394 2156 
Q 2394 2531 2256 2718 
Q 2119 2906 1806 2906 
Q 1569 2906 1367 2781 
Q 1166 2656 1075 2415 
Q 984 2175 984 1722 
L 984 0 
L 422 0 
z
" transform="scale(0.015625)"/>
       </defs>
       <use xlink:href="#ArialMT-6d"/>
      </g>
     </g>
    </g>
    <g id="text_3">
     <!-- sex -->
     <g style="fill: #262626" transform="translate(195.671044 345.343125) scale(0.1 -0.1)">
      <defs>
       <path id="ArialMT-73" d="M 197 991 
L 753 1078 
Q 800 744 1014 566 
Q 1228 388 1613 388 
Q 2000 388 2187 545 
Q 2375 703 2375 916 
Q 2375 1106 2209 1216 
Q 2094 1291 1634 1406 
Q 1016 1563 777 1677 
Q 538 1791 414 1992 
Q 291 2194 291 2438 
Q 291 2659 392 2848 
Q 494 3038 669 3163 
Q 800 3259 1026 3326 
Q 1253 3394 1513 3394 
Q 1903 3394 2198 3281 
Q 2494 3169 2634 2976 
Q 2775 2784 2828 2463 
L 2278 2388 
Q 2241 2644 2061 2787 
Q 1881 2931 1553 2931 
Q 1166 2931 1000 2803 
Q 834 2675 834 2503 
Q 834 2394 903 2306 
Q 972 2216 1119 2156 
Q 1203 2125 1616 2013 
Q 2213 1853 2448 1751 
Q 2684 1650 2818 1456 
Q 2953 1263 2953 975 
Q 2953 694 2789 445 
Q 2625 197 2315 61 
Q 2006 -75 1616 -75 
Q 969 -75 630 194 
Q 291 463 197 991 
z
" transform="scale(0.015625)"/>
       <path id="ArialMT-65" d="M 2694 1069 
L 3275 997 
Q 3138 488 2766 206 
Q 2394 -75 1816 -75 
Q 1088 -75 661 373 
Q 234 822 234 1631 
Q 234 2469 665 2931 
Q 1097 3394 1784 3394 
Q 2450 3394 2872 2941 
Q 3294 2488 3294 1666 
Q 3294 1616 3291 1516 
L 816 1516 
Q 847 969 1125 678 
Q 1403 388 1819 388 
Q 2128 388 2347 550 
Q 2566 713 2694 1069 
z
M 847 1978 
L 2700 1978 
Q 2663 2397 2488 2606 
Q 2219 2931 1791 2931 
Q 1403 2931 1139 2672 
Q 875 2413 847 1978 
z
" transform="scale(0.015625)"/>
       <path id="ArialMT-78" d="M 47 0 
L 1259 1725 
L 138 3319 
L 841 3319 
L 1350 2541 
Q 1494 2319 1581 2169 
Q 1719 2375 1834 2534 
L 2394 3319 
L 3066 3319 
L 1919 1756 
L 3153 0 
L 2463 0 
L 1781 1031 
L 1600 1309 
L 728 0 
L 47 0 
z
" transform="scale(0.015625)"/>
      </defs>
      <use xlink:href="#ArialMT-73"/>
      <use xlink:href="#ArialMT-65" x="50"/>
      <use xlink:href="#ArialMT-78" x="105.615234"/>
     </g>
    </g>
   </g>
   <g id="matplotlib.axis_2">
    <g id="ytick_1">
     <g id="line2d_1">
      <path d="M 50.891825 310.594684 
L 356.0112 310.594684 
" clip-path="url(#p290c920510)" style="fill: none; stroke: #cccccc; stroke-width: 0.8; stroke-linecap: round"/>
     </g>
     <g id="text_4">
      <!-- 0.0 -->
      <g style="fill: #262626" transform="translate(29.991825 314.173591) scale(0.1 -0.1)">
       <defs>
        <path id="ArialMT-30" d="M 266 2259 
Q 266 3072 433 3567 
Q 600 4063 929 4331 
Q 1259 4600 1759 4600 
Q 2128 4600 2406 4451 
Q 2684 4303 2865 4023 
Q 3047 3744 3150 3342 
Q 3253 2941 3253 2259 
Q 3253 1453 3087 958 
Q 2922 463 2592 192 
Q 2263 -78 1759 -78 
Q 1097 -78 719 397 
Q 266 969 266 2259 
z
M 844 2259 
Q 844 1131 1108 757 
Q 1372 384 1759 384 
Q 2147 384 2411 759 
Q 2675 1134 2675 2259 
Q 2675 3391 2411 3762 
Q 2147 4134 1753 4134 
Q 1366 4134 1134 3806 
Q 844 3388 844 2259 
z
" transform="scale(0.015625)"/>
        <path id="ArialMT-2e" d="M 581 0 
L 581 641 
L 1222 641 
L 1222 0 
L 581 0 
z
" transform="scale(0.015625)"/>
       </defs>
       <use xlink:href="#ArialMT-30"/>
       <use xlink:href="#ArialMT-2e" x="55.615234"/>
       <use xlink:href="#ArialMT-30" x="83.398438"/>
      </g>
     </g>
    </g>
    <g id="ytick_2">
     <g id="line2d_2">
      <path d="M 50.891825 244.505962 
L 356.0112 244.505962 
" clip-path="url(#p290c920510)" style="fill: none; stroke: #cccccc; stroke-width: 0.8; stroke-linecap: round"/>
     </g>
     <g id="text_5">
      <!-- 0.5 -->
      <g style="fill: #262626" transform="translate(29.991825 248.084868) scale(0.1 -0.1)">
       <defs>
        <path id="ArialMT-35" d="M 266 1200 
L 856 1250 
Q 922 819 1161 601 
Q 1400 384 1738 384 
Q 2144 384 2425 690 
Q 2706 997 2706 1503 
Q 2706 1984 2436 2262 
Q 2166 2541 1728 2541 
Q 1456 2541 1237 2417 
Q 1019 2294 894 2097 
L 366 2166 
L 809 4519 
L 3088 4519 
L 3088 3981 
L 1259 3981 
L 1013 2750 
Q 1425 3038 1878 3038 
Q 2478 3038 2890 2622 
Q 3303 2206 3303 1553 
Q 3303 931 2941 478 
Q 2500 -78 1738 -78 
Q 1113 -78 717 272 
Q 322 622 266 1200 
z
" transform="scale(0.015625)"/>
       </defs>
       <use xlink:href="#ArialMT-30"/>
       <use xlink:href="#ArialMT-2e" x="55.615234"/>
       <use xlink:href="#ArialMT-35" x="83.398438"/>
      </g>
     </g>
    </g>
    <g id="ytick_3">
     <g id="line2d_3">
      <path d="M 50.891825 178.41724 
L 356.0112 178.41724 
" clip-path="url(#p290c920510)" style="fill: none; stroke: #cccccc; stroke-width: 0.8; stroke-linecap: round"/>
     </g>
     <g id="text_6">
      <!-- 1.0 -->
      <g style="fill: #262626" transform="translate(29.991825 181.996146) scale(0.1 -0.1)">
       <defs>
        <path id="ArialMT-31" d="M 2384 0 
L 1822 0 
L 1822 3584 
Q 1619 3391 1289 3197 
Q 959 3003 697 2906 
L 697 3450 
Q 1169 3672 1522 3987 
Q 1875 4303 2022 4600 
L 2384 4600 
L 2384 0 
z
" transform="scale(0.015625)"/>
       </defs>
       <use xlink:href="#ArialMT-31"/>
       <use xlink:href="#ArialMT-2e" x="55.615234"/>
       <use xlink:href="#ArialMT-30" x="83.398438"/>
      </g>
     </g>
    </g>
    <g id="ytick_4">
     <g id="line2d_4">
      <path d="M 50.891825 112.328518 
L 356.0112 112.328518 
" clip-path="url(#p290c920510)" style="fill: none; stroke: #cccccc; stroke-width: 0.8; stroke-linecap: round"/>
     </g>
     <g id="text_7">
      <!-- 1.5 -->
      <g style="fill: #262626" transform="translate(29.991825 115.907424) scale(0.1 -0.1)">
       <use xlink:href="#ArialMT-31"/>
       <use xlink:href="#ArialMT-2e" x="55.615234"/>
       <use xlink:href="#ArialMT-35" x="83.398438"/>
      </g>
     </g>
    </g>
    <g id="ytick_5">
     <g id="line2d_5">
      <path d="M 50.891825 46.239796 
L 356.0112 46.239796 
" clip-path="url(#p290c920510)" style="fill: none; stroke: #cccccc; stroke-width: 0.8; stroke-linecap: round"/>
     </g>
     <g id="text_8">
      <!-- 2.0 -->
      <g style="fill: #262626" transform="translate(29.991825 49.818702) scale(0.1 -0.1)">
       <defs>
        <path id="ArialMT-32" d="M 3222 541 
L 3222 0 
L 194 0 
Q 188 203 259 391 
Q 375 700 629 1000 
Q 884 1300 1366 1694 
Q 2113 2306 2375 2664 
Q 2638 3022 2638 3341 
Q 2638 3675 2398 3904 
Q 2159 4134 1775 4134 
Q 1369 4134 1125 3890 
Q 881 3647 878 3216 
L 300 3275 
Q 359 3922 746 4261 
Q 1134 4600 1788 4600 
Q 2447 4600 2831 4234 
Q 3216 3869 3216 3328 
Q 3216 3053 3103 2787 
Q 2991 2522 2730 2228 
Q 2469 1934 1863 1422 
Q 1356 997 1212 845 
Q 1069 694 975 541 
L 3222 541 
z
" transform="scale(0.015625)"/>
       </defs>
       <use xlink:href="#ArialMT-32"/>
       <use xlink:href="#ArialMT-2e" x="55.615234"/>
       <use xlink:href="#ArialMT-30" x="83.398438"/>
      </g>
     </g>
    </g>
    <g id="text_9">
     <!-- CO2 expired (l/min) -->
     <g style="fill: #262626" transform="translate(23.887137 207.762188) rotate(-90) scale(0.1 -0.1)">
      <defs>
       <path id="ArialMT-43" d="M 3763 1606 
L 4369 1453 
Q 4178 706 3683 314 
Q 3188 -78 2472 -78 
Q 1731 -78 1267 223 
Q 803 525 561 1097 
Q 319 1669 319 2325 
Q 319 3041 592 3573 
Q 866 4106 1370 4382 
Q 1875 4659 2481 4659 
Q 3169 4659 3637 4309 
Q 4106 3959 4291 3325 
L 3694 3184 
Q 3534 3684 3231 3912 
Q 2928 4141 2469 4141 
Q 1941 4141 1586 3887 
Q 1231 3634 1087 3207 
Q 944 2781 944 2328 
Q 944 1744 1114 1308 
Q 1284 872 1643 656 
Q 2003 441 2422 441 
Q 2931 441 3284 734 
Q 3638 1028 3763 1606 
z
" transform="scale(0.015625)"/>
       <path id="ArialMT-4f" d="M 309 2231 
Q 309 3372 921 4017 
Q 1534 4663 2503 4663 
Q 3138 4663 3647 4359 
Q 4156 4056 4423 3514 
Q 4691 2972 4691 2284 
Q 4691 1588 4409 1038 
Q 4128 488 3612 205 
Q 3097 -78 2500 -78 
Q 1853 -78 1343 234 
Q 834 547 571 1087 
Q 309 1628 309 2231 
z
M 934 2222 
Q 934 1394 1379 917 
Q 1825 441 2497 441 
Q 3181 441 3623 922 
Q 4066 1403 4066 2288 
Q 4066 2847 3877 3264 
Q 3688 3681 3323 3911 
Q 2959 4141 2506 4141 
Q 1863 4141 1398 3698 
Q 934 3256 934 2222 
z
" transform="scale(0.015625)"/>
       <path id="ArialMT-20" transform="scale(0.015625)"/>
       <path id="ArialMT-70" d="M 422 -1272 
L 422 3319 
L 934 3319 
L 934 2888 
Q 1116 3141 1344 3267 
Q 1572 3394 1897 3394 
Q 2322 3394 2647 3175 
Q 2972 2956 3137 2557 
Q 3303 2159 3303 1684 
Q 3303 1175 3120 767 
Q 2938 359 2589 142 
Q 2241 -75 1856 -75 
Q 1575 -75 1351 44 
Q 1128 163 984 344 
L 984 -1272 
L 422 -1272 
z
M 931 1641 
Q 931 1000 1190 694 
Q 1450 388 1819 388 
Q 2194 388 2461 705 
Q 2728 1022 2728 1688 
Q 2728 2322 2467 2637 
Q 2206 2953 1844 2953 
Q 1484 2953 1207 2617 
Q 931 2281 931 1641 
z
" transform="scale(0.015625)"/>
       <path id="ArialMT-69" d="M 425 3934 
L 425 4581 
L 988 4581 
L 988 3934 
L 425 3934 
z
M 425 0 
L 425 3319 
L 988 3319 
L 988 0 
L 425 0 
z
" transform="scale(0.015625)"/>
       <path id="ArialMT-72" d="M 416 0 
L 416 3319 
L 922 3319 
L 922 2816 
Q 1116 3169 1280 3281 
Q 1444 3394 1641 3394 
Q 1925 3394 2219 3213 
L 2025 2691 
Q 1819 2813 1613 2813 
Q 1428 2813 1281 2702 
Q 1134 2591 1072 2394 
Q 978 2094 978 1738 
L 978 0 
L 416 0 
z
" transform="scale(0.015625)"/>
       <path id="ArialMT-64" d="M 2575 0 
L 2575 419 
Q 2259 -75 1647 -75 
Q 1250 -75 917 144 
Q 584 363 401 755 
Q 219 1147 219 1656 
Q 219 2153 384 2558 
Q 550 2963 881 3178 
Q 1213 3394 1622 3394 
Q 1922 3394 2156 3267 
Q 2391 3141 2538 2938 
L 2538 4581 
L 3097 4581 
L 3097 0 
L 2575 0 
z
M 797 1656 
Q 797 1019 1065 703 
Q 1334 388 1700 388 
Q 2069 388 2326 689 
Q 2584 991 2584 1609 
Q 2584 2291 2321 2609 
Q 2059 2928 1675 2928 
Q 1300 2928 1048 2622 
Q 797 2316 797 1656 
z
" transform="scale(0.015625)"/>
       <path id="ArialMT-28" d="M 1497 -1347 
Q 1031 -759 709 28 
Q 388 816 388 1659 
Q 388 2403 628 3084 
Q 909 3875 1497 4659 
L 1900 4659 
Q 1522 4009 1400 3731 
Q 1209 3300 1100 2831 
Q 966 2247 966 1656 
Q 966 153 1900 -1347 
L 1497 -1347 
z
" transform="scale(0.015625)"/>
       <path id="ArialMT-6c" d="M 409 0 
L 409 4581 
L 972 4581 
L 972 0 
L 409 0 
z
" transform="scale(0.015625)"/>
       <path id="ArialMT-2f" d="M 0 -78 
L 1328 4659 
L 1778 4659 
L 453 -78 
L 0 -78 
z
" transform="scale(0.015625)"/>
       <path id="ArialMT-6e" d="M 422 0 
L 422 3319 
L 928 3319 
L 928 2847 
Q 1294 3394 1984 3394 
Q 2284 3394 2536 3286 
Q 2788 3178 2913 3003 
Q 3038 2828 3088 2588 
Q 3119 2431 3119 2041 
L 3119 0 
L 2556 0 
L 2556 2019 
Q 2556 2363 2490 2533 
Q 2425 2703 2258 2804 
Q 2091 2906 1866 2906 
Q 1506 2906 1245 2678 
Q 984 2450 984 1813 
L 984 0 
L 422 0 
z
" transform="scale(0.015625)"/>
       <path id="ArialMT-29" d="M 791 -1347 
L 388 -1347 
Q 1322 153 1322 1656 
Q 1322 2244 1188 2822 
Q 1081 3291 891 3722 
Q 769 4003 388 4659 
L 791 4659 
Q 1378 3875 1659 3084 
Q 1900 2403 1900 1659 
Q 1900 816 1576 28 
Q 1253 -759 791 -1347 
z
" transform="scale(0.015625)"/>
      </defs>
      <use xlink:href="#ArialMT-43"/>
      <use xlink:href="#ArialMT-4f" x="72.216797"/>
      <use xlink:href="#ArialMT-32" x="150"/>
      <use xlink:href="#ArialMT-20" x="205.615234"/>
      <use xlink:href="#ArialMT-65" x="233.398438"/>
      <use xlink:href="#ArialMT-78" x="289.013672"/>
      <use xlink:href="#ArialMT-70" x="339.013672"/>
      <use xlink:href="#ArialMT-69" x="394.628906"/>
      <use xlink:href="#ArialMT-72" x="416.845703"/>
      <use xlink:href="#ArialMT-65" x="450.146484"/>
      <use xlink:href="#ArialMT-64" x="505.761719"/>
      <use xlink:href="#ArialMT-20" x="561.376953"/>
      <use xlink:href="#ArialMT-28" x="589.160156"/>
      <use xlink:href="#ArialMT-6c" x="622.460938"/>
      <use xlink:href="#ArialMT-2f" x="644.677734"/>
      <use xlink:href="#ArialMT-6d" x="672.460938"/>
      <use xlink:href="#ArialMT-69" x="755.761719"/>
      <use xlink:href="#ArialMT-6e" x="777.978516"/>
      <use xlink:href="#ArialMT-29" x="833.59375"/>
     </g>
    </g>
   </g>
   <g id="PolyCollection_1">
    <defs>
     <path id="m9eb5c33f39" d="M 97.190837 -80.581706 
L 96.128625 -80.581706 
L 95.997608 -83.080127 
L 95.842894 -85.578548 
L 95.662315 -88.076969 
L 95.453902 -90.57539 
L 95.215942 -93.073811 
L 94.946988 -95.572232 
L 94.645852 -98.070652 
L 94.311546 -100.569073 
L 93.943193 -103.067494 
L 93.539894 -105.565915 
L 93.100572 -108.064336 
L 92.623803 -110.562757 
L 92.107653 -113.061178 
L 91.549549 -115.559599 
L 90.946208 -118.05802 
L 90.293641 -120.556441 
L 89.587258 -123.054862 
L 88.822086 -125.553283 
L 87.993096 -128.051704 
L 87.095634 -130.550125 
L 86.125937 -133.048546 
L 85.081699 -135.546967 
L 83.962646 -138.045388 
L 82.771079 -140.543809 
L 81.512324 -143.04223 
L 80.195066 -145.540651 
L 78.831492 -148.039072 
L 77.437253 -150.537493 
L 76.031194 -153.035913 
L 74.634875 -155.534334 
L 73.271875 -158.032755 
L 71.966929 -160.531176 
L 70.744923 -163.029597 
L 69.629813 -165.528018 
L 68.643521 -168.026439 
L 67.804875 -170.52486 
L 67.128672 -173.023281 
L 66.624911 -175.521702 
L 66.298259 -178.020123 
L 66.147794 -180.518544 
L 66.167051 -183.016965 
L 66.344382 -185.515386 
L 66.663614 -188.013807 
L 67.10498 -190.512228 
L 67.646255 -193.010649 
L 68.26405 -195.50907 
L 68.935151 -198.007491 
L 69.637829 -200.505912 
L 70.353027 -203.004333 
L 71.065328 -205.502754 
L 71.763635 -208.001174 
L 72.441525 -210.499595 
L 73.097234 -212.998016 
L 73.733291 -215.496437 
L 74.355832 -217.994858 
L 74.97365 -220.493279 
L 75.597073 -222.9917 
L 76.236763 -225.490121 
L 76.902535 -227.988542 
L 77.602297 -230.486963 
L 78.341205 -232.985384 
L 79.121089 -235.483805 
L 79.940188 -237.982226 
L 80.79322 -240.480647 
L 81.67175 -242.979068 
L 82.564828 -245.477489 
L 83.459812 -247.97591 
L 84.343316 -250.474331 
L 85.202184 -252.972752 
L 86.024405 -255.471173 
L 86.799899 -257.969594 
L 87.521114 -260.468015 
L 88.183386 -262.966435 
L 88.785068 -265.464856 
L 89.327406 -267.963277 
L 89.814209 -270.461698 
L 90.251356 -272.960119 
L 90.646179 -275.45854 
L 91.006798 -277.956961 
L 91.341461 -280.455382 
L 91.657943 -282.953803 
L 91.963043 -285.452224 
L 92.26222 -287.950645 
L 92.559365 -290.449066 
L 92.85674 -292.947487 
L 93.155031 -295.445908 
L 93.453537 -297.944329 
L 93.750426 -300.44275 
L 94.043057 -302.941171 
L 94.328313 -305.439592 
L 94.602924 -307.938013 
L 94.863761 -310.436434 
L 95.108067 -312.934855 
L 95.333629 -315.433275 
L 95.538886 -317.931696 
L 95.722967 -320.430117 
L 95.885676 -322.928538 
L 96.027432 -325.426959 
L 96.149172 -327.92538 
L 97.17029 -327.92538 
L 97.17029 -327.92538 
L 97.292031 -325.426959 
L 97.433786 -322.928538 
L 97.596495 -320.430117 
L 97.780577 -317.931696 
L 97.985834 -315.433275 
L 98.211396 -312.934855 
L 98.455701 -310.436434 
L 98.716538 -307.938013 
L 98.99115 -305.439592 
L 99.276406 -302.941171 
L 99.569037 -300.44275 
L 99.865926 -297.944329 
L 100.164431 -295.445908 
L 100.462723 -292.947487 
L 100.760097 -290.449066 
L 101.057243 -287.950645 
L 101.356419 -285.452224 
L 101.661519 -282.953803 
L 101.978002 -280.455382 
L 102.312665 -277.956961 
L 102.673284 -275.45854 
L 103.068106 -272.960119 
L 103.505253 -270.461698 
L 103.992057 -267.963277 
L 104.534394 -265.464856 
L 105.136076 -262.966435 
L 105.798349 -260.468015 
L 106.519563 -257.969594 
L 107.295058 -255.471173 
L 108.117279 -252.972752 
L 108.976147 -250.474331 
L 109.859651 -247.97591 
L 110.754634 -245.477489 
L 111.647712 -242.979068 
L 112.526243 -240.480647 
L 113.379275 -237.982226 
L 114.198374 -235.483805 
L 114.978257 -232.985384 
L 115.717166 -230.486963 
L 116.416928 -227.988542 
L 117.082699 -225.490121 
L 117.72239 -222.9917 
L 118.345813 -220.493279 
L 118.963631 -217.994858 
L 119.586171 -215.496437 
L 120.222229 -212.998016 
L 120.877938 -210.499595 
L 121.555828 -208.001174 
L 122.254135 -205.502754 
L 122.966435 -203.004333 
L 123.681634 -200.505912 
L 124.384312 -198.007491 
L 125.055412 -195.50907 
L 125.673207 -193.010649 
L 126.214483 -190.512228 
L 126.655848 -188.013807 
L 126.975081 -185.515386 
L 127.152412 -183.016965 
L 127.171669 -180.518544 
L 127.021203 -178.020123 
L 126.694551 -175.521702 
L 126.19079 -173.023281 
L 125.514588 -170.52486 
L 124.675942 -168.026439 
L 123.689649 -165.528018 
L 122.574539 -163.029597 
L 121.352534 -160.531176 
L 120.047588 -158.032755 
L 118.684587 -155.534334 
L 117.288268 -153.035913 
L 115.88221 -150.537493 
L 114.487971 -148.039072 
L 113.124397 -145.540651 
L 111.807138 -143.04223 
L 110.548384 -140.543809 
L 109.356816 -138.045388 
L 108.237764 -135.546967 
L 107.193525 -133.048546 
L 106.223828 -130.550125 
L 105.326366 -128.051704 
L 104.497376 -125.553283 
L 103.732205 -123.054862 
L 103.025822 -120.556441 
L 102.373255 -118.05802 
L 101.769914 -115.559599 
L 101.21181 -113.061178 
L 100.695659 -110.562757 
L 100.21889 -108.064336 
L 99.779569 -105.565915 
L 99.37627 -103.067494 
L 99.007917 -100.569073 
L 98.673611 -98.070652 
L 98.372474 -95.572232 
L 98.10352 -93.073811 
L 97.86556 -90.57539 
L 97.657148 -88.076969 
L 97.476568 -85.578548 
L 97.321855 -83.080127 
L 97.190837 -80.581706 
z
" style="stroke: #3f3f3f; stroke-width: 1.25"/>
    </defs>
    <g clip-path="url(#p290c920510)">
     <use xlink:href="#m9eb5c33f39" x="0" y="360" style="fill: #3274a1; stroke: #3f3f3f; stroke-width: 1.25"/>
    </g>
   </g>
   <g id="PolyCollection_2">
    <defs>
     <path id="m8cfaaabe99" d="M 158.108081 -62.323262 
L 157.259132 -62.323262 
L 157.153913 -64.835645 
L 157.028391 -67.348028 
L 156.88012 -69.860411 
L 156.706687 -72.372794 
L 156.50579 -74.885178 
L 156.275321 -77.397561 
L 156.013448 -79.909944 
L 155.718708 -82.422327 
L 155.390089 -84.934711 
L 155.027097 -87.447094 
L 154.629829 -89.959477 
L 154.199007 -92.47186 
L 153.736015 -94.984244 
L 153.2429 -97.496627 
L 152.722362 -100.00901 
L 152.177716 -102.521393 
L 151.612842 -105.033776 
L 151.032113 -107.54616 
L 150.440314 -110.058543 
L 149.842546 -112.570926 
L 149.244125 -115.083309 
L 148.650476 -117.595693 
L 148.067027 -120.108076 
L 147.499093 -122.620459 
L 146.951772 -125.132842 
L 146.429828 -127.645226 
L 145.937585 -130.157609 
L 145.478814 -132.669992 
L 145.056627 -135.182375 
L 144.673371 -137.694758 
L 144.330532 -140.207142 
L 144.028656 -142.719525 
L 143.767285 -145.231908 
L 143.544921 -147.744291 
L 143.359032 -150.256675 
L 143.206098 -152.769058 
L 143.081702 -155.281441 
L 142.980687 -157.793824 
L 142.897358 -160.306208 
L 142.825736 -162.818591 
L 142.759855 -165.330974 
L 142.694094 -167.843357 
L 142.623508 -170.35574 
L 142.544169 -172.868124 
L 142.453457 -175.380507 
L 142.350317 -177.89289 
L 142.235425 -180.405273 
L 142.111279 -182.917657 
L 141.982169 -185.43004 
L 141.85405 -187.942423 
L 141.734301 -190.454806 
L 141.631387 -192.96719 
L 141.554439 -195.479573 
L 141.512775 -197.991956 
L 141.515396 -200.504339 
L 141.57048 -203.016723 
L 141.684914 -205.529106 
L 141.863895 -208.041489 
L 142.110614 -210.553872 
L 142.426061 -213.066255 
L 142.808951 -215.578639 
L 143.255773 -218.091022 
L 143.760969 -220.603405 
L 144.317214 -223.115788 
L 144.915792 -225.628172 
L 145.547025 -228.140555 
L 146.200741 -230.652938 
L 146.866738 -233.165321 
L 147.535228 -235.677705 
L 148.197218 -238.190088 
L 148.844828 -240.702471 
L 149.471511 -243.214854 
L 150.072183 -245.727237 
L 150.643256 -248.239621 
L 151.182584 -250.752004 
L 151.689327 -253.264387 
L 152.163764 -255.77677 
L 152.607062 -258.289154 
L 153.021019 -260.801537 
L 153.407819 -263.31392 
L 153.7698 -265.826303 
L 154.109248 -268.338687 
L 154.428248 -270.85107 
L 154.728567 -273.363453 
L 155.011597 -275.875836 
L 155.278337 -278.388219 
L 155.529422 -280.900603 
L 155.765174 -283.412986 
L 155.985679 -285.925369 
L 156.190875 -288.437752 
L 156.380638 -290.950136 
L 156.554867 -293.462519 
L 156.713544 -295.974902 
L 156.856793 -298.487285 
L 156.984906 -300.999669 
L 157.098359 -303.512052 
L 157.197808 -306.024435 
L 157.284068 -308.536818 
L 157.35809 -311.049201 
L 158.009123 -311.049201 
L 158.009123 -311.049201 
L 158.083144 -308.536818 
L 158.169405 -306.024435 
L 158.268854 -303.512052 
L 158.382307 -300.999669 
L 158.51042 -298.487285 
L 158.653668 -295.974902 
L 158.812346 -293.462519 
L 158.986574 -290.950136 
L 159.176338 -288.437752 
L 159.381534 -285.925369 
L 159.602039 -283.412986 
L 159.83779 -280.900603 
L 160.088875 -278.388219 
L 160.355616 -275.875836 
L 160.638645 -273.363453 
L 160.938964 -270.85107 
L 161.257964 -268.338687 
L 161.597413 -265.826303 
L 161.959393 -263.31392 
L 162.346194 -260.801537 
L 162.760151 -258.289154 
L 163.203448 -255.77677 
L 163.677886 -253.264387 
L 164.184629 -250.752004 
L 164.723956 -248.239621 
L 165.295029 -245.727237 
L 165.895701 -243.214854 
L 166.522384 -240.702471 
L 167.169994 -238.190088 
L 167.831985 -235.677705 
L 168.500474 -233.165321 
L 169.166472 -230.652938 
L 169.820187 -228.140555 
L 170.45142 -225.628172 
L 171.049998 -223.115788 
L 171.606244 -220.603405 
L 172.111439 -218.091022 
L 172.558261 -215.578639 
L 172.941151 -213.066255 
L 173.256599 -210.553872 
L 173.503318 -208.041489 
L 173.682298 -205.529106 
L 173.796733 -203.016723 
L 173.851816 -200.504339 
L 173.854437 -197.991956 
L 173.812773 -195.479573 
L 173.735826 -192.96719 
L 173.632912 -190.454806 
L 173.513163 -187.942423 
L 173.385044 -185.43004 
L 173.255933 -182.917657 
L 173.131787 -180.405273 
L 173.016896 -177.89289 
L 172.913756 -175.380507 
L 172.823044 -172.868124 
L 172.743704 -170.35574 
L 172.673119 -167.843357 
L 172.607357 -165.330974 
L 172.541477 -162.818591 
L 172.469854 -160.306208 
L 172.386525 -157.793824 
L 172.285511 -155.281441 
L 172.161115 -152.769058 
L 172.00818 -150.256675 
L 171.822292 -147.744291 
L 171.599928 -145.231908 
L 171.338556 -142.719525 
L 171.036681 -140.207142 
L 170.693842 -137.694758 
L 170.310585 -135.182375 
L 169.888398 -132.669992 
L 169.429627 -130.157609 
L 168.937384 -127.645226 
L 168.41544 -125.132842 
L 167.868119 -122.620459 
L 167.300186 -120.108076 
L 166.716736 -117.595693 
L 166.123088 -115.083309 
L 165.524667 -112.570926 
L 164.926898 -110.058543 
L 164.335099 -107.54616 
L 163.754371 -105.033776 
L 163.189496 -102.521393 
L 162.644851 -100.00901 
L 162.124312 -97.496627 
L 161.631198 -94.984244 
L 161.168206 -92.47186 
L 160.737384 -89.959477 
L 160.340115 -87.447094 
L 159.977124 -84.934711 
L 159.648504 -82.422327 
L 159.353765 -79.909944 
L 159.091892 -77.397561 
L 158.861422 -74.885178 
L 158.660525 -72.372794 
L 158.487093 -69.860411 
L 158.338821 -67.348028 
L 158.213299 -64.835645 
L 158.108081 -62.323262 
z
" style="stroke: #3f3f3f; stroke-width: 1.25"/>
    </defs>
    <g clip-path="url(#p290c920510)">
     <use xlink:href="#m8cfaaabe99" x="0" y="360" style="fill: #e1812c; stroke: #3f3f3f; stroke-width: 1.25"/>
    </g>
   </g>
   <g id="PolyCollection_3">
    <defs>
     <path id="m1931dc0f33" d="M 249.522032 -55.925455 
L 248.916806 -55.925455 
L 248.839974 -58.746758 
L 248.74923 -61.568062 
L 248.643535 -64.389366 
L 248.52211 -67.21067 
L 248.384495 -70.031974 
L 248.230587 -72.853278 
L 248.060651 -75.674582 
L 247.875304 -78.495886 
L 247.675455 -81.31719 
L 247.462201 -84.138494 
L 247.236696 -86.959798 
L 246.999981 -89.781102 
L 246.752792 -92.602406 
L 246.495367 -95.42371 
L 246.227256 -98.245014 
L 245.94716 -101.066318 
L 245.652817 -103.887622 
L 245.340945 -106.708926 
L 245.007252 -109.53023 
L 244.646533 -112.351534 
L 244.252838 -115.172837 
L 243.819724 -117.994141 
L 243.340569 -120.815445 
L 242.808938 -123.636749 
L 242.21899 -126.458053 
L 241.565896 -129.279357 
L 240.846243 -132.100661 
L 240.058419 -134.921965 
L 239.202936 -137.743269 
L 238.282679 -140.564573 
L 237.303066 -143.385877 
L 236.272098 -146.207181 
L 235.200291 -149.028485 
L 234.100489 -151.849789 
L 232.987551 -154.671093 
L 231.877933 -157.492397 
L 230.789166 -160.313701 
L 229.739267 -163.135005 
L 228.746099 -165.956309 
L 227.826721 -168.777612 
L 226.996761 -171.598916 
L 226.269837 -174.42022 
L 225.657079 -177.241524 
L 225.166745 -180.062828 
L 224.803983 -182.884132 
L 224.57072 -185.705436 
L 224.465691 -188.52674 
L 224.484587 -191.348044 
L 224.620316 -194.169348 
L 224.863335 -196.990652 
L 225.202055 -199.811956 
L 225.623261 -202.63326 
L 226.112556 -205.454564 
L 226.654801 -208.275868 
L 227.234546 -211.097172 
L 227.83644 -213.918476 
L 228.44564 -216.73978 
L 229.048208 -219.561084 
L 229.631492 -222.382388 
L 230.184508 -225.203691 
L 230.698296 -228.024995 
L 231.166248 -230.846299 
L 231.584377 -233.667603 
L 231.951515 -236.488907 
L 232.269406 -239.310211 
L 232.542674 -242.131515 
L 232.778656 -244.952819 
L 232.98708 -247.774123 
L 233.179609 -250.595427 
L 233.369255 -253.416731 
L 233.569701 -256.238035 
L 233.794559 -259.059339 
L 234.056626 -261.880643 
L 234.367165 -264.701947 
L 234.735276 -267.523251 
L 235.167387 -270.344555 
L 235.666909 -273.165859 
L 236.234055 -275.987163 
L 236.865861 -278.808466 
L 237.556378 -281.62977 
L 238.297025 -284.451074 
L 239.077086 -287.272378 
L 239.884294 -290.093682 
L 240.705479 -292.914986 
L 241.527221 -295.73629 
L 242.336477 -298.557594 
L 243.121145 -301.378898 
L 243.870527 -304.200202 
L 244.575681 -307.021506 
L 245.229643 -309.84281 
L 245.827527 -312.664114 
L 246.366503 -315.485418 
L 246.845668 -318.306722 
L 247.265845 -321.128026 
L 247.629313 -323.94933 
L 247.939508 -326.770634 
L 248.200709 -329.591938 
L 248.417741 -332.413242 
L 248.595696 -335.234545 
L 249.843142 -335.234545 
L 249.843142 -335.234545 
L 250.021096 -332.413242 
L 250.238128 -329.591938 
L 250.49933 -326.770634 
L 250.809524 -323.94933 
L 251.172992 -321.128026 
L 251.593169 -318.306722 
L 252.072335 -315.485418 
L 252.61131 -312.664114 
L 253.209195 -309.84281 
L 253.863157 -307.021506 
L 254.568311 -304.200202 
L 255.317693 -301.378898 
L 256.10236 -298.557594 
L 256.911616 -295.73629 
L 257.733358 -292.914986 
L 258.554543 -290.093682 
L 259.361752 -287.272378 
L 260.141813 -284.451074 
L 260.88246 -281.62977 
L 261.572976 -278.808466 
L 262.204783 -275.987163 
L 262.771929 -273.165859 
L 263.27145 -270.344555 
L 263.703562 -267.523251 
L 264.071673 -264.701947 
L 264.382211 -261.880643 
L 264.644278 -259.059339 
L 264.869137 -256.238035 
L 265.069582 -253.416731 
L 265.259228 -250.595427 
L 265.451757 -247.774123 
L 265.660181 -244.952819 
L 265.896163 -242.131515 
L 266.169432 -239.310211 
L 266.487323 -236.488907 
L 266.854461 -233.667603 
L 267.27259 -230.846299 
L 267.740541 -228.024995 
L 268.25433 -225.203691 
L 268.807346 -222.382388 
L 269.39063 -219.561084 
L 269.993197 -216.73978 
L 270.602398 -213.918476 
L 271.204292 -211.097172 
L 271.784036 -208.275868 
L 272.326282 -205.454564 
L 272.815577 -202.63326 
L 273.236782 -199.811956 
L 273.575502 -196.990652 
L 273.818522 -194.169348 
L 273.95425 -191.348044 
L 273.973146 -188.52674 
L 273.868117 -185.705436 
L 273.634855 -182.884132 
L 273.272093 -180.062828 
L 272.781759 -177.241524 
L 272.169 -174.42022 
L 271.442077 -171.598916 
L 270.612116 -168.777612 
L 269.692739 -165.956309 
L 268.69957 -163.135005 
L 267.649671 -160.313701 
L 266.560904 -157.492397 
L 265.451286 -154.671093 
L 264.338348 -151.849789 
L 263.238546 -149.028485 
L 262.16674 -146.207181 
L 261.135772 -143.385877 
L 260.156159 -140.564573 
L 259.235902 -137.743269 
L 258.380419 -134.921965 
L 257.592595 -132.100661 
L 256.872942 -129.279357 
L 256.219847 -126.458053 
L 255.6299 -123.636749 
L 255.098269 -120.815445 
L 254.619113 -117.994141 
L 254.186 -115.172837 
L 253.792305 -112.351534 
L 253.431585 -109.53023 
L 253.097893 -106.708926 
L 252.78602 -103.887622 
L 252.491678 -101.066318 
L 252.211582 -98.245014 
L 251.94347 -95.42371 
L 251.686045 -92.602406 
L 251.438856 -89.781102 
L 251.202141 -86.959798 
L 250.976637 -84.138494 
L 250.763383 -81.31719 
L 250.563533 -78.495886 
L 250.378187 -75.674582 
L 250.208251 -72.853278 
L 250.054342 -70.031974 
L 249.916727 -67.21067 
L 249.795303 -64.389366 
L 249.689608 -61.568062 
L 249.598864 -58.746758 
L 249.522032 -55.925455 
z
" style="stroke: #3f3f3f; stroke-width: 1.25"/>
    </defs>
    <g clip-path="url(#p290c920510)">
     <use xlink:href="#m1931dc0f33" x="0" y="360" style="fill: #3274a1; stroke: #3f3f3f; stroke-width: 1.25"/>
    </g>
   </g>
   <g id="PolyCollection_4">
    <defs>
     <path id="m77fdad73d2" d="M 310.825954 -105.226709 
L 309.660633 -105.226709 
L 309.483782 -106.957395 
L 309.264023 -108.688082 
L 308.994227 -110.418768 
L 308.666946 -112.149455 
L 308.274622 -113.880141 
L 307.809832 -115.610828 
L 307.265579 -117.341515 
L 306.635601 -119.072201 
L 305.914696 -120.802888 
L 305.099042 -122.533574 
L 304.186505 -124.264261 
L 303.176898 -125.994947 
L 302.072203 -127.725634 
L 300.876718 -129.45632 
L 299.597148 -131.187007 
L 298.242605 -132.917693 
L 296.82455 -134.64838 
L 295.356653 -136.379067 
L 293.854593 -138.109753 
L 292.3358 -139.84044 
L 290.819145 -141.571126 
L 289.324579 -143.301813 
L 287.872733 -145.032499 
L 286.484472 -146.763186 
L 285.180407 -148.493872 
L 283.980366 -150.224559 
L 282.902834 -151.955245 
L 281.964364 -153.685932 
L 281.178993 -155.416619 
L 280.557672 -157.147305 
L 280.10776 -158.877992 
L 279.832622 -160.608678 
L 279.731356 -162.339365 
L 279.798723 -164.070051 
L 280.025268 -165.800738 
L 280.39769 -167.531424 
L 280.89943 -169.262111 
L 281.511468 -170.992797 
L 282.213278 -172.723484 
L 282.983885 -174.454171 
L 283.802932 -176.184857 
L 284.651695 -177.915544 
L 285.513932 -179.64623 
L 286.376533 -181.376917 
L 287.229884 -183.107603 
L 288.067948 -184.83829 
L 288.888039 -186.568976 
L 289.690349 -188.299663 
L 290.477257 -190.030349 
L 291.252518 -191.761036 
L 292.020402 -193.491722 
L 292.784882 -195.222409 
L 293.548933 -196.953096 
L 294.314022 -198.683782 
L 295.079807 -200.414469 
L 295.844074 -202.145155 
L 296.602886 -203.875842 
L 297.350912 -205.606528 
L 298.081897 -207.337215 
L 298.789195 -209.067901 
L 299.466317 -210.798588 
L 300.107429 -212.529274 
L 300.707772 -214.259961 
L 301.263951 -215.990648 
L 301.774104 -217.721334 
L 302.237937 -219.452021 
L 302.656647 -221.182707 
L 303.032754 -222.913394 
L 303.369877 -224.64408 
L 303.672466 -226.374767 
L 303.945546 -228.105453 
L 304.19445 -229.83614 
L 304.424595 -231.566826 
L 304.641281 -233.297513 
L 304.849522 -235.0282 
L 305.053907 -236.758886 
L 305.258483 -238.489573 
L 305.466655 -240.220259 
L 305.68111 -241.950946 
L 305.903753 -243.681632 
L 306.135663 -245.412319 
L 306.377076 -247.143005 
L 306.627402 -248.873692 
L 306.885273 -250.604378 
L 307.148627 -252.335065 
L 307.414837 -254.065752 
L 307.68086 -255.796438 
L 307.943415 -257.527125 
L 308.199172 -259.257811 
L 308.444933 -260.988498 
L 308.677799 -262.719184 
L 308.895314 -264.449871 
L 309.095562 -266.180557 
L 309.277233 -267.911244 
L 309.439637 -269.64193 
L 309.582683 -271.372617 
L 309.706822 -273.103303 
L 309.812964 -274.83399 
L 309.902379 -276.564677 
L 310.584209 -276.564677 
L 310.584209 -276.564677 
L 310.673624 -274.83399 
L 310.779765 -273.103303 
L 310.903904 -271.372617 
L 311.04695 -269.64193 
L 311.209354 -267.911244 
L 311.391026 -266.180557 
L 311.591274 -264.449871 
L 311.808789 -262.719184 
L 312.041655 -260.988498 
L 312.287415 -259.257811 
L 312.543172 -257.527125 
L 312.805728 -255.796438 
L 313.07175 -254.065752 
L 313.33796 -252.335065 
L 313.601315 -250.604378 
L 313.859185 -248.873692 
L 314.109512 -247.143005 
L 314.350925 -245.412319 
L 314.582834 -243.681632 
L 314.805477 -241.950946 
L 315.019933 -240.220259 
L 315.228105 -238.489573 
L 315.43268 -236.758886 
L 315.637065 -235.0282 
L 315.845307 -233.297513 
L 316.061993 -231.566826 
L 316.292138 -229.83614 
L 316.541042 -228.105453 
L 316.814121 -226.374767 
L 317.116711 -224.64408 
L 317.453833 -222.913394 
L 317.82994 -221.182707 
L 318.24865 -219.452021 
L 318.712484 -217.721334 
L 319.222637 -215.990648 
L 319.778816 -214.259961 
L 320.379158 -212.529274 
L 321.020271 -210.798588 
L 321.697392 -209.067901 
L 322.404691 -207.337215 
L 323.135676 -205.606528 
L 323.883702 -203.875842 
L 324.642513 -202.145155 
L 325.406781 -200.414469 
L 326.172566 -198.683782 
L 326.937655 -196.953096 
L 327.701706 -195.222409 
L 328.466185 -193.491722 
L 329.23407 -191.761036 
L 330.009331 -190.030349 
L 330.796239 -188.299663 
L 331.598548 -186.568976 
L 332.41864 -184.83829 
L 333.256703 -183.107603 
L 334.110055 -181.376917 
L 334.972656 -179.64623 
L 335.834893 -177.915544 
L 336.683655 -176.184857 
L 337.502703 -174.454171 
L 338.273309 -172.723484 
L 338.97512 -170.992797 
L 339.587158 -169.262111 
L 340.088898 -167.531424 
L 340.46132 -165.800738 
L 340.687865 -164.070051 
L 340.755231 -162.339365 
L 340.653966 -160.608678 
L 340.378827 -158.877992 
L 339.928916 -157.147305 
L 339.307594 -155.416619 
L 338.522223 -153.685932 
L 337.583754 -151.955245 
L 336.506221 -150.224559 
L 335.30618 -148.493872 
L 334.002115 -146.763186 
L 332.613854 -145.032499 
L 331.162009 -143.301813 
L 329.667443 -141.571126 
L 328.150788 -139.84044 
L 326.631995 -138.109753 
L 325.129935 -136.379067 
L 323.662037 -134.64838 
L 322.243982 -132.917693 
L 320.889439 -131.187007 
L 319.609869 -129.45632 
L 318.414385 -127.725634 
L 317.309689 -125.994947 
L 316.300083 -124.264261 
L 315.387545 -122.533574 
L 314.571892 -120.802888 
L 313.850986 -119.072201 
L 313.221008 -117.341515 
L 312.676755 -115.610828 
L 312.211966 -113.880141 
L 311.819641 -112.149455 
L 311.49236 -110.418768 
L 311.222564 -108.688082 
L 311.002806 -106.957395 
L 310.825954 -105.226709 
z
" style="stroke: #3f3f3f; stroke-width: 1.25"/>
    </defs>
    <g clip-path="url(#p290c920510)">
     <use xlink:href="#m77fdad73d2" x="0" y="360" style="fill: #e1812c; stroke: #3f3f3f; stroke-width: 1.25"/>
    </g>
   </g>
   <g id="patch_3">
    <path d="M 127.171669 310.594684 
L 127.171669 310.594684 
L 127.171669 310.594684 
L 127.171669 310.594684 
z
" clip-path="url(#p290c920510)" style="fill: #3274a1; stroke: #3f3f3f; stroke-width: 1.25; stroke-linejoin: miter"/>
   </g>
   <g id="patch_4">
    <path d="M 127.171669 310.594684 
L 127.171669 310.594684 
L 127.171669 310.594684 
L 127.171669 310.594684 
z
" clip-path="url(#p290c920510)" style="fill: #e1812c; stroke: #3f3f3f; stroke-width: 1.25; stroke-linejoin: miter"/>
   </g>
   <g id="line2d_6">
    <path d="M 96.659731 233.664301 
L 96.659731 77.828613 
" clip-path="url(#p290c920510)" style="fill: none; stroke: #3f3f3f; stroke-width: 1.875; stroke-linecap: round"/>
   </g>
   <g id="line2d_7">
    <path d="M 96.659731 188.469224 
L 96.659731 134.486951 
" clip-path="url(#p290c920510)" style="fill: none; stroke: #3f3f3f; stroke-width: 5.625; stroke-linecap: round"/>
   </g>
   <g id="line2d_8">
    <path d="M 96.659731 173.86245 
" clip-path="url(#p290c920510)" style="fill: none; stroke: #3f3f3f; stroke-width: 1.5; stroke-linecap: round"/>
    <defs>
     <path id="me96d9388cf" d="M 2.34375 0 
L -2.34375 -0 
" style="stroke: #ffffff; stroke-width: 1.125"/>
    </defs>
    <g clip-path="url(#p290c920510)">
     <use xlink:href="#me96d9388cf" x="96.659731" y="173.86245" style="fill: #ffffff; stroke: #ffffff; stroke-width: 1.125"/>
    </g>
   </g>
   <g id="line2d_9">
    <path d="M 157.683606 248.434523 
L 157.683606 98.193014 
" clip-path="url(#p290c920510)" style="fill: none; stroke: #3f3f3f; stroke-width: 1.875; stroke-linecap: round"/>
   </g>
   <g id="line2d_10">
    <path d="M 157.683606 208.392847 
L 157.683606 152.076192 
" clip-path="url(#p290c920510)" style="fill: none; stroke: #3f3f3f; stroke-width: 5.625; stroke-linecap: round"/>
   </g>
   <g id="line2d_11">
    <path d="M 157.683606 177.515064 
" clip-path="url(#p290c920510)" style="fill: none; stroke: #3f3f3f; stroke-width: 1.5; stroke-linecap: round"/>
    <g clip-path="url(#p290c920510)">
     <use xlink:href="#me96d9388cf" x="157.683606" y="177.515064" style="fill: #ffffff; stroke: #ffffff; stroke-width: 1.125"/>
    </g>
   </g>
   <g id="line2d_12">
    <path d="M 249.219419 254.27497 
L 249.219419 74.56503 
" clip-path="url(#p290c920510)" style="fill: none; stroke: #3f3f3f; stroke-width: 1.875; stroke-linecap: round"/>
   </g>
   <g id="line2d_13">
    <path d="M 249.219419 182.037126 
L 249.219419 114.72641 
" clip-path="url(#p290c920510)" style="fill: none; stroke: #3f3f3f; stroke-width: 5.625; stroke-linecap: round"/>
   </g>
   <g id="line2d_14">
    <path d="M 249.219419 161.101679 
" clip-path="url(#p290c920510)" style="fill: none; stroke: #3f3f3f; stroke-width: 1.5; stroke-linecap: round"/>
    <g clip-path="url(#p290c920510)">
     <use xlink:href="#me96d9388cf" x="249.219419" y="161.101679" style="fill: #ffffff; stroke: #ffffff; stroke-width: 1.125"/>
    </g>
   </g>
   <g id="line2d_15">
    <path d="M 310.243294 224.986721 
L 310.243294 113.221894 
" clip-path="url(#p290c920510)" style="fill: none; stroke: #3f3f3f; stroke-width: 1.875; stroke-linecap: round"/>
   </g>
   <g id="line2d_16">
    <path d="M 310.243294 204.235627 
L 310.243294 166.776326 
" clip-path="url(#p290c920510)" style="fill: none; stroke: #3f3f3f; stroke-width: 5.625; stroke-linecap: round"/>
   </g>
   <g id="line2d_17">
    <path d="M 310.243294 191.512001 
" clip-path="url(#p290c920510)" style="fill: none; stroke: #3f3f3f; stroke-width: 1.5; stroke-linecap: round"/>
    <g clip-path="url(#p290c920510)">
     <use xlink:href="#me96d9388cf" x="310.243294" y="191.512001" style="fill: #ffffff; stroke: #ffffff; stroke-width: 1.125"/>
    </g>
   </g>
   <g id="patch_5">
    <path d="M 50.891825 318.04 
L 50.891825 10.8 
" style="fill: none; stroke: #cccccc; stroke-width: 0.8; stroke-linejoin: miter; stroke-linecap: square"/>
   </g>
   <g id="patch_6">
    <path d="M 50.891825 318.04 
L 356.0112 318.04 
" style="fill: none; stroke: #cccccc; stroke-width: 0.8; stroke-linejoin: miter; stroke-linecap: square"/>
   </g>
  </g>
  <g id="legend_1">
   <g id="text_10">
    <!-- time -->
    <g style="fill: #262626" transform="translate(365.045625 168.439844) scale(0.1 -0.1)">
     <defs>
      <path id="ArialMT-74" d="M 1650 503 
L 1731 6 
Q 1494 -44 1306 -44 
Q 1000 -44 831 53 
Q 663 150 594 308 
Q 525 466 525 972 
L 525 2881 
L 113 2881 
L 113 3319 
L 525 3319 
L 525 4141 
L 1084 4478 
L 1084 3319 
L 1650 3319 
L 1650 2881 
L 1084 2881 
L 1084 941 
Q 1084 700 1114 631 
Q 1144 563 1211 522 
Q 1278 481 1403 481 
Q 1497 481 1650 503 
z
" transform="scale(0.015625)"/>
     </defs>
     <use xlink:href="#ArialMT-74"/>
     <use xlink:href="#ArialMT-69" x="27.783203"/>
     <use xlink:href="#ArialMT-6d" x="50"/>
     <use xlink:href="#ArialMT-65" x="133.300781"/>
    </g>
   </g>
   <g id="patch_7">
    <path d="M 359.101875 182.585156 
L 379.101875 182.585156 
L 379.101875 175.585156 
L 359.101875 175.585156 
z
" style="fill: #3274a1; stroke: #3f3f3f; stroke-width: 1.25; stroke-linejoin: miter"/>
   </g>
   <g id="text_11">
    <!-- i -->
    <g style="fill: #262626" transform="translate(387.101875 182.585156) scale(0.1 -0.1)">
     <use xlink:href="#ArialMT-69"/>
    </g>
   </g>
   <g id="patch_8">
    <path d="M 359.101875 196.730469 
L 379.101875 196.730469 
L 379.101875 189.730469 
L 359.101875 189.730469 
z
" style="fill: #e1812c; stroke: #3f3f3f; stroke-width: 1.25; stroke-linejoin: miter"/>
   </g>
   <g id="text_12">
    <!-- f -->
    <g style="fill: #262626" transform="translate(387.101875 196.730469) scale(0.1 -0.1)">
     <use xlink:href="#ArialMT-66"/>
    </g>
   </g>
  </g>
 </g>
 <defs>
  <clipPath id="p290c920510">
   <rect x="50.891825" y="10.8" width="305.119375" height="307.24"/>
  </clipPath>
 </defs>
</svg>
