<?xml version="1.0" encoding="utf-8" standalone="no"?>
<!DOCTYPE svg PUBLIC "-//W3C//DTD SVG 1.1//EN"
  "http://www.w3.org/Graphics/SVG/1.1/DTD/svg11.dtd">
<svg xmlns:xlink="http://www.w3.org/1999/xlink" width="398.88pt" height="360pt" viewBox="0 0 398.88 360" xmlns="http://www.w3.org/2000/svg" version="1.1">
 <metadata>
  <rdf:RDF xmlns:dc="http://purl.org/dc/elements/1.1/" xmlns:cc="http://creativecommons.org/ns#" xmlns:rdf="http://www.w3.org/1999/02/22-rdf-syntax-ns#">
   <cc:Work>
    <dc:type rdf:resource="http://purl.org/dc/dcmitype/StillImage"/>
    <dc:date>2024-09-11T03:31:53.880152</dc:date>
    <dc:format>image/svg+xml</dc:format>
    <dc:creator>
     <cc:Agent>
      <dc:title>Matplotlib v3.8.3, https://matplotlib.org/</dc:title>
     </cc:Agent>
    </dc:creator>
   </cc:Work>
  </rdf:RDF>
 </metadata>
 <defs>
  <style type="text/css">*{stroke-linejoin: round; stroke-linecap: butt}</style>
 </defs>
 <g id="figure_1">
  <g id="patch_1">
   <path d="M 0 360 
L 398.88 360 
L 398.88 0 
L 0 0 
z
" style="fill: #ffffff"/>
  </g>
  <g id="axes_1">
   <g id="patch_2">
    <path d="M 47.800505 318.04 
L 356.0112 318.04 
L 356.0112 10.8 
L 47.800505 10.8 
z
" style="fill: #ffffff"/>
   </g>
   <g id="matplotlib.axis_1">
    <g id="xtick_1">
     <g id="text_1">
      <!-- f -->
      <g style="fill: #262626" transform="translate(123.464116 332.197812) scale(0.1 -0.1)">
       <defs>
        <path id="ArialMT-66" d="M 556 0 
L 556 2881 
L 59 2881 
L 59 3319 
L 556 3319 
L 556 3672 
Q 556 4006 616 4169 
Q 697 4388 901 4523 
Q 1106 4659 1475 4659 
Q 1713 4659 2000 4603 
L 1916 4113 
Q 1741 4144 1584 4144 
Q 1328 4144 1222 4034 
Q 1116 3925 1116 3625 
L 1116 3319 
L 1763 3319 
L 1763 2881 
L 1116 2881 
L 1116 0 
L 556 0 
z
" transform="scale(0.015625)"/>
       </defs>
       <use xlink:href="#ArialMT-66"/>
      </g>
     </g>
    </g>
    <g id="xtick_2">
     <g id="text_2">
      <!-- m -->
      <g style="fill: #262626" transform="translate(274.793682 332.197812) scale(0.1 -0.1)">
       <defs>
        <path id="ArialMT-6d" d="M 422 0 
L 422 3319 
L 925 3319 
L 925 2853 
Q 1081 3097 1340 3245 
Q 1600 3394 1931 3394 
Q 2300 3394 2536 3241 
Q 2772 3088 2869 2813 
Q 3263 3394 3894 3394 
Q 4388 3394 4653 3120 
Q 4919 2847 4919 2278 
L 4919 0 
L 4359 0 
L 4359 2091 
Q 4359 2428 4304 2576 
Q 4250 2725 4106 2815 
Q 3963 2906 3769 2906 
Q 3419 2906 3187 2673 
Q 2956 2441 2956 1928 
L 2956 0 
L 2394 0 
L 2394 2156 
Q 2394 2531 2256 2718 
Q 2119 2906 1806 2906 
Q 1569 2906 1367 2781 
Q 1166 2656 1075 2415 
Q 984 2175 984 1722 
L 984 0 
L 422 0 
z
" transform="scale(0.015625)"/>
       </defs>
       <use xlink:href="#ArialMT-6d"/>
      </g>
     </g>
    </g>
    <g id="text_3">
     <!-- sex -->
     <g style="fill: #262626" transform="translate(194.125384 345.343125) scale(0.1 -0.1)">
      <defs>
       <path id="ArialMT-73" d="M 197 991 
L 753 1078 
Q 800 744 1014 566 
Q 1228 388 1613 388 
Q 2000 388 2187 545 
Q 2375 703 2375 916 
Q 2375 1106 2209 1216 
Q 2094 1291 1634 1406 
Q 1016 1563 777 1677 
Q 538 1791 414 1992 
Q 291 2194 291 2438 
Q 291 2659 392 2848 
Q 494 3038 669 3163 
Q 800 3259 1026 3326 
Q 1253 3394 1513 3394 
Q 1903 3394 2198 3281 
Q 2494 3169 2634 2976 
Q 2775 2784 2828 2463 
L 2278 2388 
Q 2241 2644 2061 2787 
Q 1881 2931 1553 2931 
Q 1166 2931 1000 2803 
Q 834 2675 834 2503 
Q 834 2394 903 2306 
Q 972 2216 1119 2156 
Q 1203 2125 1616 2013 
Q 2213 1853 2448 1751 
Q 2684 1650 2818 1456 
Q 2953 1263 2953 975 
Q 2953 694 2789 445 
Q 2625 197 2315 61 
Q 2006 -75 1616 -75 
Q 969 -75 630 194 
Q 291 463 197 991 
z
" transform="scale(0.015625)"/>
       <path id="ArialMT-65" d="M 2694 1069 
L 3275 997 
Q 3138 488 2766 206 
Q 2394 -75 1816 -75 
Q 1088 -75 661 373 
Q 234 822 234 1631 
Q 234 2469 665 2931 
Q 1097 3394 1784 3394 
Q 2450 3394 2872 2941 
Q 3294 2488 3294 1666 
Q 3294 1616 3291 1516 
L 816 1516 
Q 847 969 1125 678 
Q 1403 388 1819 388 
Q 2128 388 2347 550 
Q 2566 713 2694 1069 
z
M 847 1978 
L 2700 1978 
Q 2663 2397 2488 2606 
Q 2219 2931 1791 2931 
Q 1403 2931 1139 2672 
Q 875 2413 847 1978 
z
" transform="scale(0.015625)"/>
       <path id="ArialMT-78" d="M 47 0 
L 1259 1725 
L 138 3319 
L 841 3319 
L 1350 2541 
Q 1494 2319 1581 2169 
Q 1719 2375 1834 2534 
L 2394 3319 
L 3066 3319 
L 1919 1756 
L 3153 0 
L 2463 0 
L 1781 1031 
L 1600 1309 
L 728 0 
L 47 0 
z
" transform="scale(0.015625)"/>
      </defs>
      <use xlink:href="#ArialMT-73"/>
      <use xlink:href="#ArialMT-65" x="50"/>
      <use xlink:href="#ArialMT-78" x="105.615234"/>
     </g>
    </g>
   </g>
   <g id="matplotlib.axis_2">
    <g id="ytick_1">
     <g id="line2d_1">
      <path d="M 47.800505 273.908217 
L 356.0112 273.908217 
" clip-path="url(#p89e14178ef)" style="fill: none; stroke: #cccccc; stroke-width: 0.8; stroke-linecap: round"/>
     </g>
     <g id="text_4">
      <!-- 5 -->
      <g style="fill: #262626" transform="translate(35.239567 277.487123) scale(0.1 -0.1)">
       <defs>
        <path id="ArialMT-35" d="M 266 1200 
L 856 1250 
Q 922 819 1161 601 
Q 1400 384 1738 384 
Q 2144 384 2425 690 
Q 2706 997 2706 1503 
Q 2706 1984 2436 2262 
Q 2166 2541 1728 2541 
Q 1456 2541 1237 2417 
Q 1019 2294 894 2097 
L 366 2166 
L 809 4519 
L 3088 4519 
L 3088 3981 
L 1259 3981 
L 1013 2750 
Q 1425 3038 1878 3038 
Q 2478 3038 2890 2622 
Q 3303 2206 3303 1553 
Q 3303 931 2941 478 
Q 2500 -78 1738 -78 
Q 1113 -78 717 272 
Q 322 622 266 1200 
z
" transform="scale(0.015625)"/>
       </defs>
       <use xlink:href="#ArialMT-35"/>
      </g>
     </g>
    </g>
    <g id="ytick_2">
     <g id="line2d_2">
      <path d="M 47.800505 226.990634 
L 356.0112 226.990634 
" clip-path="url(#p89e14178ef)" style="fill: none; stroke: #cccccc; stroke-width: 0.8; stroke-linecap: round"/>
     </g>
     <g id="text_5">
      <!-- 10 -->
      <g style="fill: #262626" transform="translate(29.67863 230.569541) scale(0.1 -0.1)">
       <defs>
        <path id="ArialMT-31" d="M 2384 0 
L 1822 0 
L 1822 3584 
Q 1619 3391 1289 3197 
Q 959 3003 697 2906 
L 697 3450 
Q 1169 3672 1522 3987 
Q 1875 4303 2022 4600 
L 2384 4600 
L 2384 0 
z
" transform="scale(0.015625)"/>
        <path id="ArialMT-30" d="M 266 2259 
Q 266 3072 433 3567 
Q 600 4063 929 4331 
Q 1259 4600 1759 4600 
Q 2128 4600 2406 4451 
Q 2684 4303 2865 4023 
Q 3047 3744 3150 3342 
Q 3253 2941 3253 2259 
Q 3253 1453 3087 958 
Q 2922 463 2592 192 
Q 2263 -78 1759 -78 
Q 1097 -78 719 397 
Q 266 969 266 2259 
z
M 844 2259 
Q 844 1131 1108 757 
Q 1372 384 1759 384 
Q 2147 384 2411 759 
Q 2675 1134 2675 2259 
Q 2675 3391 2411 3762 
Q 2147 4134 1753 4134 
Q 1366 4134 1134 3806 
Q 844 3388 844 2259 
z
" transform="scale(0.015625)"/>
       </defs>
       <use xlink:href="#ArialMT-31"/>
       <use xlink:href="#ArialMT-30" x="55.615234"/>
      </g>
     </g>
    </g>
    <g id="ytick_3">
     <g id="line2d_3">
      <path d="M 47.800505 180.073052 
L 356.0112 180.073052 
" clip-path="url(#p89e14178ef)" style="fill: none; stroke: #cccccc; stroke-width: 0.8; stroke-linecap: round"/>
     </g>
     <g id="text_6">
      <!-- 15 -->
      <g style="fill: #262626" transform="translate(29.67863 183.651958) scale(0.1 -0.1)">
       <use xlink:href="#ArialMT-31"/>
       <use xlink:href="#ArialMT-35" x="55.615234"/>
      </g>
     </g>
    </g>
    <g id="ytick_4">
     <g id="line2d_4">
      <path d="M 47.800505 133.155469 
L 356.0112 133.155469 
" clip-path="url(#p89e14178ef)" style="fill: none; stroke: #cccccc; stroke-width: 0.8; stroke-linecap: round"/>
     </g>
     <g id="text_7">
      <!-- 20 -->
      <g style="fill: #262626" transform="translate(29.67863 136.734375) scale(0.1 -0.1)">
       <defs>
        <path id="ArialMT-32" d="M 3222 541 
L 3222 0 
L 194 0 
Q 188 203 259 391 
Q 375 700 629 1000 
Q 884 1300 1366 1694 
Q 2113 2306 2375 2664 
Q 2638 3022 2638 3341 
Q 2638 3675 2398 3904 
Q 2159 4134 1775 4134 
Q 1369 4134 1125 3890 
Q 881 3647 878 3216 
L 300 3275 
Q 359 3922 746 4261 
Q 1134 4600 1788 4600 
Q 2447 4600 2831 4234 
Q 3216 3869 3216 3328 
Q 3216 3053 3103 2787 
Q 2991 2522 2730 2228 
Q 2469 1934 1863 1422 
Q 1356 997 1212 845 
Q 1069 694 975 541 
L 3222 541 
z
" transform="scale(0.015625)"/>
       </defs>
       <use xlink:href="#ArialMT-32"/>
       <use xlink:href="#ArialMT-30" x="55.615234"/>
      </g>
     </g>
    </g>
    <g id="ytick_5">
     <g id="line2d_5">
      <path d="M 47.800505 86.237886 
L 356.0112 86.237886 
" clip-path="url(#p89e14178ef)" style="fill: none; stroke: #cccccc; stroke-width: 0.8; stroke-linecap: round"/>
     </g>
     <g id="text_8">
      <!-- 25 -->
      <g style="fill: #262626" transform="translate(29.67863 89.816793) scale(0.1 -0.1)">
       <use xlink:href="#ArialMT-32"/>
       <use xlink:href="#ArialMT-35" x="55.615234"/>
      </g>
     </g>
    </g>
    <g id="ytick_6">
     <g id="line2d_6">
      <path d="M 47.800505 39.320304 
L 356.0112 39.320304 
" clip-path="url(#p89e14178ef)" style="fill: none; stroke: #cccccc; stroke-width: 0.8; stroke-linecap: round"/>
     </g>
     <g id="text_9">
      <!-- 30 -->
      <g style="fill: #262626" transform="translate(29.67863 42.89921) scale(0.1 -0.1)">
       <defs>
        <path id="ArialMT-33" d="M 269 1209 
L 831 1284 
Q 928 806 1161 595 
Q 1394 384 1728 384 
Q 2125 384 2398 659 
Q 2672 934 2672 1341 
Q 2672 1728 2419 1979 
Q 2166 2231 1775 2231 
Q 1616 2231 1378 2169 
L 1441 2663 
Q 1497 2656 1531 2656 
Q 1891 2656 2178 2843 
Q 2466 3031 2466 3422 
Q 2466 3731 2256 3934 
Q 2047 4138 1716 4138 
Q 1388 4138 1169 3931 
Q 950 3725 888 3313 
L 325 3413 
Q 428 3978 793 4289 
Q 1159 4600 1703 4600 
Q 2078 4600 2393 4439 
Q 2709 4278 2876 4000 
Q 3044 3722 3044 3409 
Q 3044 3113 2884 2869 
Q 2725 2625 2413 2481 
Q 2819 2388 3044 2092 
Q 3269 1797 3269 1353 
Q 3269 753 2831 336 
Q 2394 -81 1725 -81 
Q 1122 -81 723 278 
Q 325 638 269 1209 
z
" transform="scale(0.015625)"/>
       </defs>
       <use xlink:href="#ArialMT-33"/>
       <use xlink:href="#ArialMT-30" x="55.615234"/>
      </g>
     </g>
    </g>
    <g id="text_10">
     <!-- Relative CO2 expired (ml/kg/min) -->
     <g style="fill: #262626" transform="translate(23.573942 238.048906) rotate(-90) scale(0.1 -0.1)">
      <defs>
       <path id="ArialMT-52" d="M 503 0 
L 503 4581 
L 2534 4581 
Q 3147 4581 3465 4457 
Q 3784 4334 3975 4021 
Q 4166 3709 4166 3331 
Q 4166 2844 3850 2509 
Q 3534 2175 2875 2084 
Q 3116 1969 3241 1856 
Q 3506 1613 3744 1247 
L 4541 0 
L 3778 0 
L 3172 953 
Q 2906 1366 2734 1584 
Q 2563 1803 2427 1890 
Q 2291 1978 2150 2013 
Q 2047 2034 1813 2034 
L 1109 2034 
L 1109 0 
L 503 0 
z
M 1109 2559 
L 2413 2559 
Q 2828 2559 3062 2645 
Q 3297 2731 3419 2920 
Q 3541 3109 3541 3331 
Q 3541 3656 3305 3865 
Q 3069 4075 2559 4075 
L 1109 4075 
L 1109 2559 
z
" transform="scale(0.015625)"/>
       <path id="ArialMT-6c" d="M 409 0 
L 409 4581 
L 972 4581 
L 972 0 
L 409 0 
z
" transform="scale(0.015625)"/>
       <path id="ArialMT-61" d="M 2588 409 
Q 2275 144 1986 34 
Q 1697 -75 1366 -75 
Q 819 -75 525 192 
Q 231 459 231 875 
Q 231 1119 342 1320 
Q 453 1522 633 1644 
Q 813 1766 1038 1828 
Q 1203 1872 1538 1913 
Q 2219 1994 2541 2106 
Q 2544 2222 2544 2253 
Q 2544 2597 2384 2738 
Q 2169 2928 1744 2928 
Q 1347 2928 1158 2789 
Q 969 2650 878 2297 
L 328 2372 
Q 403 2725 575 2942 
Q 747 3159 1072 3276 
Q 1397 3394 1825 3394 
Q 2250 3394 2515 3294 
Q 2781 3194 2906 3042 
Q 3031 2891 3081 2659 
Q 3109 2516 3109 2141 
L 3109 1391 
Q 3109 606 3145 398 
Q 3181 191 3288 0 
L 2700 0 
Q 2613 175 2588 409 
z
M 2541 1666 
Q 2234 1541 1622 1453 
Q 1275 1403 1131 1340 
Q 988 1278 909 1158 
Q 831 1038 831 891 
Q 831 666 1001 516 
Q 1172 366 1500 366 
Q 1825 366 2078 508 
Q 2331 650 2450 897 
Q 2541 1088 2541 1459 
L 2541 1666 
z
" transform="scale(0.015625)"/>
       <path id="ArialMT-74" d="M 1650 503 
L 1731 6 
Q 1494 -44 1306 -44 
Q 1000 -44 831 53 
Q 663 150 594 308 
Q 525 466 525 972 
L 525 2881 
L 113 2881 
L 113 3319 
L 525 3319 
L 525 4141 
L 1084 4478 
L 1084 3319 
L 1650 3319 
L 1650 2881 
L 1084 2881 
L 1084 941 
Q 1084 700 1114 631 
Q 1144 563 1211 522 
Q 1278 481 1403 481 
Q 1497 481 1650 503 
z
" transform="scale(0.015625)"/>
       <path id="ArialMT-69" d="M 425 3934 
L 425 4581 
L 988 4581 
L 988 3934 
L 425 3934 
z
M 425 0 
L 425 3319 
L 988 3319 
L 988 0 
L 425 0 
z
" transform="scale(0.015625)"/>
       <path id="ArialMT-76" d="M 1344 0 
L 81 3319 
L 675 3319 
L 1388 1331 
Q 1503 1009 1600 663 
Q 1675 925 1809 1294 
L 2547 3319 
L 3125 3319 
L 1869 0 
L 1344 0 
z
" transform="scale(0.015625)"/>
       <path id="ArialMT-20" transform="scale(0.015625)"/>
       <path id="ArialMT-43" d="M 3763 1606 
L 4369 1453 
Q 4178 706 3683 314 
Q 3188 -78 2472 -78 
Q 1731 -78 1267 223 
Q 803 525 561 1097 
Q 319 1669 319 2325 
Q 319 3041 592 3573 
Q 866 4106 1370 4382 
Q 1875 4659 2481 4659 
Q 3169 4659 3637 4309 
Q 4106 3959 4291 3325 
L 3694 3184 
Q 3534 3684 3231 3912 
Q 2928 4141 2469 4141 
Q 1941 4141 1586 3887 
Q 1231 3634 1087 3207 
Q 944 2781 944 2328 
Q 944 1744 1114 1308 
Q 1284 872 1643 656 
Q 2003 441 2422 441 
Q 2931 441 3284 734 
Q 3638 1028 3763 1606 
z
" transform="scale(0.015625)"/>
       <path id="ArialMT-4f" d="M 309 2231 
Q 309 3372 921 4017 
Q 1534 4663 2503 4663 
Q 3138 4663 3647 4359 
Q 4156 4056 4423 3514 
Q 4691 2972 4691 2284 
Q 4691 1588 4409 1038 
Q 4128 488 3612 205 
Q 3097 -78 2500 -78 
Q 1853 -78 1343 234 
Q 834 547 571 1087 
Q 309 1628 309 2231 
z
M 934 2222 
Q 934 1394 1379 917 
Q 1825 441 2497 441 
Q 3181 441 3623 922 
Q 4066 1403 4066 2288 
Q 4066 2847 3877 3264 
Q 3688 3681 3323 3911 
Q 2959 4141 2506 4141 
Q 1863 4141 1398 3698 
Q 934 3256 934 2222 
z
" transform="scale(0.015625)"/>
       <path id="ArialMT-70" d="M 422 -1272 
L 422 3319 
L 934 3319 
L 934 2888 
Q 1116 3141 1344 3267 
Q 1572 3394 1897 3394 
Q 2322 3394 2647 3175 
Q 2972 2956 3137 2557 
Q 3303 2159 3303 1684 
Q 3303 1175 3120 767 
Q 2938 359 2589 142 
Q 2241 -75 1856 -75 
Q 1575 -75 1351 44 
Q 1128 163 984 344 
L 984 -1272 
L 422 -1272 
z
M 931 1641 
Q 931 1000 1190 694 
Q 1450 388 1819 388 
Q 2194 388 2461 705 
Q 2728 1022 2728 1688 
Q 2728 2322 2467 2637 
Q 2206 2953 1844 2953 
Q 1484 2953 1207 2617 
Q 931 2281 931 1641 
z
" transform="scale(0.015625)"/>
       <path id="ArialMT-72" d="M 416 0 
L 416 3319 
L 922 3319 
L 922 2816 
Q 1116 3169 1280 3281 
Q 1444 3394 1641 3394 
Q 1925 3394 2219 3213 
L 2025 2691 
Q 1819 2813 1613 2813 
Q 1428 2813 1281 2702 
Q 1134 2591 1072 2394 
Q 978 2094 978 1738 
L 978 0 
L 416 0 
z
" transform="scale(0.015625)"/>
       <path id="ArialMT-64" d="M 2575 0 
L 2575 419 
Q 2259 -75 1647 -75 
Q 1250 -75 917 144 
Q 584 363 401 755 
Q 219 1147 219 1656 
Q 219 2153 384 2558 
Q 550 2963 881 3178 
Q 1213 3394 1622 3394 
Q 1922 3394 2156 3267 
Q 2391 3141 2538 2938 
L 2538 4581 
L 3097 4581 
L 3097 0 
L 2575 0 
z
M 797 1656 
Q 797 1019 1065 703 
Q 1334 388 1700 388 
Q 2069 388 2326 689 
Q 2584 991 2584 1609 
Q 2584 2291 2321 2609 
Q 2059 2928 1675 2928 
Q 1300 2928 1048 2622 
Q 797 2316 797 1656 
z
" transform="scale(0.015625)"/>
       <path id="ArialMT-28" d="M 1497 -1347 
Q 1031 -759 709 28 
Q 388 816 388 1659 
Q 388 2403 628 3084 
Q 909 3875 1497 4659 
L 1900 4659 
Q 1522 4009 1400 3731 
Q 1209 3300 1100 2831 
Q 966 2247 966 1656 
Q 966 153 1900 -1347 
L 1497 -1347 
z
" transform="scale(0.015625)"/>
       <path id="ArialMT-2f" d="M 0 -78 
L 1328 4659 
L 1778 4659 
L 453 -78 
L 0 -78 
z
" transform="scale(0.015625)"/>
       <path id="ArialMT-6b" d="M 425 0 
L 425 4581 
L 988 4581 
L 988 1969 
L 2319 3319 
L 3047 3319 
L 1778 2088 
L 3175 0 
L 2481 0 
L 1384 1697 
L 988 1316 
L 988 0 
L 425 0 
z
" transform="scale(0.015625)"/>
       <path id="ArialMT-67" d="M 319 -275 
L 866 -356 
Q 900 -609 1056 -725 
Q 1266 -881 1628 -881 
Q 2019 -881 2231 -725 
Q 2444 -569 2519 -288 
Q 2563 -116 2559 434 
Q 2191 0 1641 0 
Q 956 0 581 494 
Q 206 988 206 1678 
Q 206 2153 378 2554 
Q 550 2956 876 3175 
Q 1203 3394 1644 3394 
Q 2231 3394 2613 2919 
L 2613 3319 
L 3131 3319 
L 3131 450 
Q 3131 -325 2973 -648 
Q 2816 -972 2473 -1159 
Q 2131 -1347 1631 -1347 
Q 1038 -1347 672 -1080 
Q 306 -813 319 -275 
z
M 784 1719 
Q 784 1066 1043 766 
Q 1303 466 1694 466 
Q 2081 466 2343 764 
Q 2606 1063 2606 1700 
Q 2606 2309 2336 2618 
Q 2066 2928 1684 2928 
Q 1309 2928 1046 2623 
Q 784 2319 784 1719 
z
" transform="scale(0.015625)"/>
       <path id="ArialMT-6e" d="M 422 0 
L 422 3319 
L 928 3319 
L 928 2847 
Q 1294 3394 1984 3394 
Q 2284 3394 2536 3286 
Q 2788 3178 2913 3003 
Q 3038 2828 3088 2588 
Q 3119 2431 3119 2041 
L 3119 0 
L 2556 0 
L 2556 2019 
Q 2556 2363 2490 2533 
Q 2425 2703 2258 2804 
Q 2091 2906 1866 2906 
Q 1506 2906 1245 2678 
Q 984 2450 984 1813 
L 984 0 
L 422 0 
z
" transform="scale(0.015625)"/>
       <path id="ArialMT-29" d="M 791 -1347 
L 388 -1347 
Q 1322 153 1322 1656 
Q 1322 2244 1188 2822 
Q 1081 3291 891 3722 
Q 769 4003 388 4659 
L 791 4659 
Q 1378 3875 1659 3084 
Q 1900 2403 1900 1659 
Q 1900 816 1576 28 
Q 1253 -759 791 -1347 
z
" transform="scale(0.015625)"/>
      </defs>
      <use xlink:href="#ArialMT-52"/>
      <use xlink:href="#ArialMT-65" x="72.216797"/>
      <use xlink:href="#ArialMT-6c" x="127.832031"/>
      <use xlink:href="#ArialMT-61" x="150.048828"/>
      <use xlink:href="#ArialMT-74" x="205.664062"/>
      <use xlink:href="#ArialMT-69" x="233.447266"/>
      <use xlink:href="#ArialMT-76" x="255.664062"/>
      <use xlink:href="#ArialMT-65" x="305.664062"/>
      <use xlink:href="#ArialMT-20" x="361.279297"/>
      <use xlink:href="#ArialMT-43" x="389.0625"/>
      <use xlink:href="#ArialMT-4f" x="461.279297"/>
      <use xlink:href="#ArialMT-32" x="539.0625"/>
      <use xlink:href="#ArialMT-20" x="594.677734"/>
      <use xlink:href="#ArialMT-65" x="622.460938"/>
      <use xlink:href="#ArialMT-78" x="678.076172"/>
      <use xlink:href="#ArialMT-70" x="728.076172"/>
      <use xlink:href="#ArialMT-69" x="783.691406"/>
      <use xlink:href="#ArialMT-72" x="805.908203"/>
      <use xlink:href="#ArialMT-65" x="839.208984"/>
      <use xlink:href="#ArialMT-64" x="894.824219"/>
      <use xlink:href="#ArialMT-20" x="950.439453"/>
      <use xlink:href="#ArialMT-28" x="978.222656"/>
      <use xlink:href="#ArialMT-6d" x="1011.523438"/>
      <use xlink:href="#ArialMT-6c" x="1094.824219"/>
      <use xlink:href="#ArialMT-2f" x="1117.041016"/>
      <use xlink:href="#ArialMT-6b" x="1144.824219"/>
      <use xlink:href="#ArialMT-67" x="1194.824219"/>
      <use xlink:href="#ArialMT-2f" x="1250.439453"/>
      <use xlink:href="#ArialMT-6d" x="1278.222656"/>
      <use xlink:href="#ArialMT-69" x="1361.523438"/>
      <use xlink:href="#ArialMT-6e" x="1383.740234"/>
      <use xlink:href="#ArialMT-29" x="1439.355469"/>
     </g>
    </g>
   </g>
   <g id="PolyCollection_1">
    <defs>
     <path id="mec9ac0ae50" d="M 94.65318 -97.380248 
L 93.411038 -97.380248 
L 93.262059 -99.393562 
L 93.084394 -101.406876 
L 92.874165 -103.42019 
L 92.627287 -105.433504 
L 92.339517 -107.446819 
L 92.006506 -109.460133 
L 91.623858 -111.473447 
L 91.18721 -113.486761 
L 90.692309 -115.500075 
L 90.135113 -117.513389 
L 89.511897 -119.526703 
L 88.819374 -121.540018 
L 88.054838 -123.553332 
L 87.216308 -125.566646 
L 86.3027 -127.57996 
L 85.313997 -129.593274 
L 84.251434 -131.606588 
L 83.11768 -133.619903 
L 81.917005 -135.633217 
L 80.655437 -137.646531 
L 79.340879 -139.659845 
L 77.983185 -141.673159 
L 76.594172 -143.686473 
L 75.187571 -145.699787 
L 73.778887 -147.713102 
L 72.385183 -149.726416 
L 71.024768 -151.73973 
L 69.716804 -153.753044 
L 68.480831 -155.766358 
L 67.336238 -157.779672 
L 66.30168 -159.792987 
L 65.39448 -161.806301 
L 64.630037 -163.819615 
L 64.021267 -165.832929 
L 63.578101 -167.846243 
L 63.307078 -169.859557 
L 63.21104 -171.872871 
L 63.288958 -173.886186 
L 63.535897 -175.8995 
L 63.943118 -177.912814 
L 64.498327 -179.926128 
L 65.186046 -181.939442 
L 65.988105 -183.952756 
L 66.884224 -185.966071 
L 67.85266 -187.979385 
L 68.870899 -189.992699 
L 69.916353 -192.006013 
L 70.967041 -194.019327 
L 72.002231 -196.032641 
L 73.003006 -198.045955 
L 73.952758 -200.05927 
L 74.837566 -202.072584 
L 75.64648 -204.085898 
L 76.371683 -206.099212 
L 77.00855 -208.112526 
L 77.555591 -210.12584 
L 78.014306 -212.139155 
L 78.388942 -214.152469 
L 78.686193 -216.165783 
L 78.914831 -218.179097 
L 79.085296 -220.192411 
L 79.20927 -222.205725 
L 79.299229 -224.219039 
L 79.368009 -226.232354 
L 79.428381 -228.245668 
L 79.492662 -230.258982 
L 79.572358 -232.272296 
L 79.677859 -234.28561 
L 79.81818 -236.298924 
L 80.000758 -238.312239 
L 80.231318 -240.325553 
L 80.513779 -242.338867 
L 80.850233 -244.352181 
L 81.240971 -246.365495 
L 81.684565 -248.378809 
L 82.177992 -250.392123 
L 82.716803 -252.405438 
L 83.295325 -254.418752 
L 83.906889 -256.432066 
L 84.544078 -258.44538 
L 85.198987 -260.458694 
L 85.86348 -262.472008 
L 86.529448 -264.485323 
L 87.189042 -266.498637 
L 87.834892 -268.511951 
L 88.460292 -270.525265 
L 89.059348 -272.538579 
L 89.627093 -274.551893 
L 90.159556 -276.565207 
L 90.653795 -278.578522 
L 91.107888 -280.591836 
L 91.520889 -282.60515 
L 91.892755 -284.618464 
L 92.224252 -286.631778 
L 92.516832 -288.645092 
L 92.772514 -290.658407 
L 92.993753 -292.671721 
L 93.183306 -294.685035 
L 93.344119 -296.698349 
L 94.7201 -296.698349 
L 94.7201 -296.698349 
L 94.880913 -294.685035 
L 95.070466 -292.671721 
L 95.291704 -290.658407 
L 95.547387 -288.645092 
L 95.839967 -286.631778 
L 96.171463 -284.618464 
L 96.54333 -282.60515 
L 96.956331 -280.591836 
L 97.410423 -278.578522 
L 97.904663 -276.565207 
L 98.437126 -274.551893 
L 99.00487 -272.538579 
L 99.603926 -270.525265 
L 100.229326 -268.511951 
L 100.875177 -266.498637 
L 101.534771 -264.485323 
L 102.200738 -262.472008 
L 102.865231 -260.458694 
L 103.52014 -258.44538 
L 104.157329 -256.432066 
L 104.768893 -254.418752 
L 105.347415 -252.405438 
L 105.886227 -250.392123 
L 106.379654 -248.378809 
L 106.823248 -246.365495 
L 107.213986 -244.352181 
L 107.550439 -242.338867 
L 107.8329 -240.325553 
L 108.06346 -238.312239 
L 108.246039 -236.298924 
L 108.386359 -234.28561 
L 108.49186 -232.272296 
L 108.571557 -230.258982 
L 108.635838 -228.245668 
L 108.696209 -226.232354 
L 108.764989 -224.219039 
L 108.854948 -222.205725 
L 108.978922 -220.192411 
L 109.149387 -218.179097 
L 109.378025 -216.165783 
L 109.675277 -214.152469 
L 110.049913 -212.139155 
L 110.508627 -210.12584 
L 111.055668 -208.112526 
L 111.692535 -206.099212 
L 112.417739 -204.085898 
L 113.226652 -202.072584 
L 114.11146 -200.05927 
L 115.061212 -198.045955 
L 116.061988 -196.032641 
L 117.097177 -194.019327 
L 118.147866 -192.006013 
L 119.193319 -189.992699 
L 120.211558 -187.979385 
L 121.179995 -185.966071 
L 122.076113 -183.952756 
L 122.878173 -181.939442 
L 123.565891 -179.926128 
L 124.1211 -177.912814 
L 124.528322 -175.8995 
L 124.775261 -173.886186 
L 124.853179 -171.872871 
L 124.75714 -169.859557 
L 124.486117 -167.846243 
L 124.042951 -165.832929 
L 123.434181 -163.819615 
L 122.669739 -161.806301 
L 121.762539 -159.792987 
L 120.72798 -157.779672 
L 119.583387 -155.766358 
L 118.347415 -153.753044 
L 117.03945 -151.73973 
L 115.679036 -149.726416 
L 114.285332 -147.713102 
L 112.876648 -145.699787 
L 111.470046 -143.686473 
L 110.081033 -141.673159 
L 108.723339 -139.659845 
L 107.408782 -137.646531 
L 106.147214 -135.633217 
L 104.946539 -133.619903 
L 103.812784 -131.606588 
L 102.750222 -129.593274 
L 101.761519 -127.57996 
L 100.84791 -125.566646 
L 100.009381 -123.553332 
L 99.244844 -121.540018 
L 98.552322 -119.526703 
L 97.929105 -117.513389 
L 97.371909 -115.500075 
L 96.877009 -113.486761 
L 96.44036 -111.473447 
L 96.057713 -109.460133 
L 95.724701 -107.446819 
L 95.436932 -105.433504 
L 95.190054 -103.42019 
L 94.979824 -101.406876 
L 94.80216 -99.393562 
L 94.65318 -97.380248 
z
" style="stroke: #3f3f3f; stroke-width: 1.25"/>
    </defs>
    <g clip-path="url(#p89e14178ef)">
     <use xlink:href="#mec9ac0ae50" x="0" y="360" style="fill: #3274a1; stroke: #3f3f3f; stroke-width: 1.25"/>
    </g>
   </g>
   <g id="PolyCollection_2">
    <defs>
     <path id="mc187f1ae12" d="M 156.280446 -67.669329 
L 155.068051 -67.669329 
L 154.92296 -69.903096 
L 154.751012 -72.136863 
L 154.549189 -74.37063 
L 154.314557 -76.604397 
L 154.044358 -78.838164 
L 153.736122 -81.071932 
L 153.387762 -83.305699 
L 152.997677 -85.539466 
L 152.564845 -87.773233 
L 152.088897 -90.007 
L 151.570178 -92.240767 
L 151.00978 -94.474534 
L 150.409556 -96.708302 
L 149.772105 -98.942069 
L 149.100729 -101.175836 
L 148.399374 -103.409603 
L 147.672548 -105.64337 
L 146.925218 -107.877137 
L 146.162713 -110.110904 
L 145.390604 -112.344672 
L 144.614599 -114.578439 
L 143.840441 -116.812206 
L 143.073806 -119.045973 
L 142.320224 -121.27974 
L 141.585003 -123.513507 
L 140.873169 -125.747274 
L 140.189411 -127.981042 
L 139.538039 -130.214809 
L 138.92294 -132.448576 
L 138.34755 -134.682343 
L 137.814811 -136.91611 
L 137.327144 -139.149877 
L 136.88641 -141.383644 
L 136.493887 -143.617412 
L 136.150233 -145.851179 
L 135.855474 -148.084946 
L 135.608985 -150.318713 
L 135.409496 -152.55248 
L 135.255102 -154.786247 
L 135.143302 -157.020014 
L 135.071052 -159.253782 
L 135.034838 -161.487549 
L 135.030777 -163.721316 
L 135.054732 -165.955083 
L 135.102451 -168.18885 
L 135.169715 -170.422617 
L 135.252499 -172.656384 
L 135.347137 -174.890151 
L 135.45048 -177.123919 
L 135.560045 -179.357686 
L 135.674142 -181.591453 
L 135.791968 -183.82522 
L 135.913674 -186.058987 
L 136.040378 -188.292754 
L 136.174137 -190.526521 
L 136.317866 -192.760289 
L 136.475207 -194.994056 
L 136.650361 -197.227823 
L 136.847869 -199.46159 
L 137.072384 -201.695357 
L 137.32841 -203.929124 
L 137.620059 -206.162891 
L 137.950812 -208.396659 
L 138.323313 -210.630426 
L 138.739208 -212.864193 
L 139.199031 -215.09796 
L 139.702149 -217.331727 
L 140.246771 -219.565494 
L 140.830009 -221.799261 
L 141.44799 -224.033029 
L 142.096014 -226.266796 
L 142.768738 -228.500563 
L 143.460373 -230.73433 
L 144.164891 -232.968097 
L 144.876219 -235.201864 
L 145.58841 -237.435631 
L 146.295795 -239.669399 
L 146.993095 -241.903166 
L 147.675509 -244.136933 
L 148.338764 -246.3707 
L 148.979141 -248.604467 
L 149.593482 -250.838234 
L 150.179172 -253.072001 
L 150.734119 -255.305769 
L 151.256722 -257.539536 
L 151.745843 -259.773303 
L 152.200775 -262.00707 
L 152.621212 -264.240837 
L 153.007229 -266.474604 
L 153.359248 -268.708371 
L 153.678022 -270.942139 
L 153.964602 -273.175906 
L 154.22031 -275.409673 
L 154.446706 -277.64344 
L 154.645547 -279.877207 
L 154.81875 -282.110974 
L 154.968344 -284.344741 
L 155.096428 -286.578509 
L 155.205122 -288.812276 
L 156.143374 -288.812276 
L 156.143374 -288.812276 
L 156.252069 -286.578509 
L 156.380152 -284.344741 
L 156.529747 -282.110974 
L 156.70295 -279.877207 
L 156.901791 -277.64344 
L 157.128187 -275.409673 
L 157.383895 -273.175906 
L 157.670475 -270.942139 
L 157.989249 -268.708371 
L 158.341268 -266.474604 
L 158.727284 -264.240837 
L 159.147722 -262.00707 
L 159.602653 -259.773303 
L 160.091774 -257.539536 
L 160.614378 -255.305769 
L 161.169324 -253.072001 
L 161.755014 -250.838234 
L 162.369355 -248.604467 
L 163.009733 -246.3707 
L 163.672988 -244.136933 
L 164.355401 -241.903166 
L 165.052702 -239.669399 
L 165.760087 -237.435631 
L 166.472278 -235.201864 
L 167.183606 -232.968097 
L 167.888124 -230.73433 
L 168.579759 -228.500563 
L 169.252482 -226.266796 
L 169.900506 -224.033029 
L 170.518488 -221.799261 
L 171.101725 -219.565494 
L 171.646348 -217.331727 
L 172.149466 -215.09796 
L 172.609288 -212.864193 
L 173.025184 -210.630426 
L 173.397685 -208.396659 
L 173.728438 -206.162891 
L 174.020087 -203.929124 
L 174.276113 -201.695357 
L 174.500627 -199.46159 
L 174.698136 -197.227823 
L 174.873289 -194.994056 
L 175.030631 -192.760289 
L 175.174359 -190.526521 
L 175.308119 -188.292754 
L 175.434823 -186.058987 
L 175.556529 -183.82522 
L 175.674355 -181.591453 
L 175.788451 -179.357686 
L 175.898016 -177.123919 
L 176.00136 -174.890151 
L 176.095998 -172.656384 
L 176.178782 -170.422617 
L 176.246045 -168.18885 
L 176.293764 -165.955083 
L 176.31772 -163.721316 
L 176.313659 -161.487549 
L 176.277445 -159.253782 
L 176.205194 -157.020014 
L 176.093395 -154.786247 
L 175.939001 -152.55248 
L 175.739511 -150.318713 
L 175.493023 -148.084946 
L 175.198264 -145.851179 
L 174.85461 -143.617412 
L 174.462086 -141.383644 
L 174.021353 -139.149877 
L 173.533685 -136.91611 
L 173.000946 -134.682343 
L 172.425556 -132.448576 
L 171.810458 -130.214809 
L 171.159085 -127.981042 
L 170.475327 -125.747274 
L 169.763493 -123.513507 
L 169.028273 -121.27974 
L 168.274691 -119.045973 
L 167.508056 -116.812206 
L 166.733897 -114.578439 
L 165.957893 -112.344672 
L 165.185784 -110.110904 
L 164.423278 -107.877137 
L 163.675949 -105.64337 
L 162.949122 -103.409603 
L 162.247768 -101.175836 
L 161.576392 -98.942069 
L 160.93894 -96.708302 
L 160.338717 -94.474534 
L 159.778319 -92.240767 
L 159.259599 -90.007 
L 158.783652 -87.773233 
L 158.35082 -85.539466 
L 157.960735 -83.305699 
L 157.612374 -81.071932 
L 157.304138 -78.838164 
L 157.03394 -76.604397 
L 156.799307 -74.37063 
L 156.597484 -72.136863 
L 156.425537 -69.903096 
L 156.280446 -67.669329 
z
" style="stroke: #3f3f3f; stroke-width: 1.25"/>
    </defs>
    <g clip-path="url(#p89e14178ef)">
     <use xlink:href="#mc187f1ae12" x="0" y="360" style="fill: #e1812c; stroke: #3f3f3f; stroke-width: 1.25"/>
    </g>
   </g>
   <g id="PolyCollection_3">
    <defs>
     <path id="m7e4d5af894" d="M 248.402514 -55.925455 
L 247.872399 -55.925455 
L 247.80638 -58.746758 
L 247.728113 -61.568062 
L 247.636385 -64.389366 
L 247.530084 -67.21067 
L 247.408244 -70.031974 
L 247.270075 -72.853278 
L 247.114996 -75.674582 
L 246.942642 -78.495886 
L 246.752866 -81.31719 
L 246.545718 -84.138494 
L 246.321412 -86.959798 
L 246.080275 -89.781102 
L 245.822687 -92.602406 
L 245.549013 -95.42371 
L 245.259543 -98.245014 
L 244.954425 -101.066318 
L 244.633627 -103.887622 
L 244.296902 -106.708926 
L 243.94379 -109.53023 
L 243.573634 -112.351534 
L 243.185624 -115.172837 
L 242.778871 -117.994141 
L 242.352491 -120.815445 
L 241.905704 -123.636749 
L 241.437952 -126.458053 
L 240.949006 -129.279357 
L 240.439071 -132.100661 
L 239.908883 -134.921965 
L 239.359787 -137.743269 
L 238.793789 -140.564573 
L 238.213587 -143.385877 
L 237.622569 -146.207181 
L 237.02478 -149.028485 
L 236.424858 -151.849789 
L 235.82794 -154.671093 
L 235.239534 -157.492397 
L 234.665367 -160.313701 
L 234.111218 -163.135005 
L 233.582734 -165.956309 
L 233.085243 -168.777612 
L 232.623574 -171.598916 
L 232.201897 -174.42022 
L 231.823586 -177.241524 
L 231.491112 -180.062828 
L 231.205977 -182.884132 
L 230.968689 -185.705436 
L 230.778772 -188.52674 
L 230.634809 -191.348044 
L 230.534517 -194.169348 
L 230.474836 -196.990652 
L 230.452041 -199.811956 
L 230.461854 -202.63326 
L 230.49956 -205.454564 
L 230.560134 -208.275868 
L 230.638369 -211.097172 
L 230.729011 -213.918476 
L 230.826912 -216.73978 
L 230.927197 -219.561084 
L 231.025459 -222.382388 
L 231.117961 -225.203691 
L 231.201859 -228.024995 
L 231.27542 -230.846299 
L 231.338236 -233.667603 
L 231.391386 -236.488907 
L 231.437562 -239.310211 
L 231.481107 -242.131515 
L 231.52796 -244.952819 
L 231.585503 -247.774123 
L 231.662286 -250.595427 
L 231.767658 -253.416731 
L 231.911299 -256.238035 
L 232.102692 -259.059339 
L 232.35056 -261.880643 
L 232.662303 -264.701947 
L 233.043491 -267.523251 
L 233.497432 -270.344555 
L 234.024864 -273.165859 
L 234.62379 -275.987163 
L 235.289473 -278.808466 
L 236.014591 -281.62977 
L 236.789548 -284.451074 
L 237.60291 -287.272378 
L 238.441938 -290.093682 
L 239.293186 -292.914986 
L 240.143109 -295.73629 
L 240.978652 -298.557594 
L 241.787775 -301.378898 
L 242.559896 -304.200202 
L 243.286213 -307.021506 
L 243.959908 -309.84281 
L 244.576234 -312.664114 
L 245.132479 -315.485418 
L 245.627833 -318.306722 
L 246.063184 -321.128026 
L 246.440848 -323.94933 
L 246.764274 -326.770634 
L 247.037742 -329.591938 
L 247.266061 -332.413242 
L 247.454311 -335.234545 
L 248.820602 -335.234545 
L 248.820602 -335.234545 
L 249.008852 -332.413242 
L 249.237172 -329.591938 
L 249.510639 -326.770634 
L 249.834066 -323.94933 
L 250.21173 -321.128026 
L 250.647081 -318.306722 
L 251.142435 -315.485418 
L 251.698679 -312.664114 
L 252.315005 -309.84281 
L 252.9887 -307.021506 
L 253.715017 -304.200202 
L 254.487138 -301.378898 
L 255.296262 -298.557594 
L 256.131804 -295.73629 
L 256.981727 -292.914986 
L 257.832975 -290.093682 
L 258.672004 -287.272378 
L 259.485365 -284.451074 
L 260.260322 -281.62977 
L 260.985441 -278.808466 
L 261.651123 -275.987163 
L 262.250049 -273.165859 
L 262.777482 -270.344555 
L 263.231423 -267.523251 
L 263.612611 -264.701947 
L 263.924354 -261.880643 
L 264.172221 -259.059339 
L 264.363615 -256.238035 
L 264.507256 -253.416731 
L 264.612627 -250.595427 
L 264.68941 -247.774123 
L 264.746953 -244.952819 
L 264.793807 -242.131515 
L 264.837351 -239.310211 
L 264.883528 -236.488907 
L 264.936678 -233.667603 
L 264.999493 -230.846299 
L 265.073055 -228.024995 
L 265.156952 -225.203691 
L 265.249454 -222.382388 
L 265.347716 -219.561084 
L 265.448002 -216.73978 
L 265.545902 -213.918476 
L 265.636544 -211.097172 
L 265.714779 -208.275868 
L 265.775354 -205.454564 
L 265.81306 -202.63326 
L 265.822872 -199.811956 
L 265.800077 -196.990652 
L 265.740397 -194.169348 
L 265.640104 -191.348044 
L 265.496141 -188.52674 
L 265.306224 -185.705436 
L 265.068937 -182.884132 
L 264.783802 -180.062828 
L 264.451327 -177.241524 
L 264.073016 -174.42022 
L 263.65134 -171.598916 
L 263.189671 -168.777612 
L 262.692179 -165.956309 
L 262.163695 -163.135005 
L 261.609547 -160.313701 
L 261.03538 -157.492397 
L 260.446973 -154.671093 
L 259.850055 -151.849789 
L 259.250134 -149.028485 
L 258.652344 -146.207181 
L 258.061326 -143.385877 
L 257.481124 -140.564573 
L 256.915127 -137.743269 
L 256.366031 -134.921965 
L 255.835843 -132.100661 
L 255.325908 -129.279357 
L 254.836961 -126.458053 
L 254.36921 -123.636749 
L 253.922423 -120.815445 
L 253.496042 -117.994141 
L 253.089289 -115.172837 
L 252.70128 -112.351534 
L 252.331123 -109.53023 
L 251.978011 -106.708926 
L 251.641287 -103.887622 
L 251.320488 -101.066318 
L 251.015371 -98.245014 
L 250.7259 -95.42371 
L 250.452227 -92.602406 
L 250.194638 -89.781102 
L 249.953501 -86.959798 
L 249.729195 -84.138494 
L 249.522048 -81.31719 
L 249.332271 -78.495886 
L 249.159917 -75.674582 
L 249.004838 -72.853278 
L 248.86667 -70.031974 
L 248.744829 -67.21067 
L 248.638529 -64.389366 
L 248.546801 -61.568062 
L 248.468534 -58.746758 
L 248.402514 -55.925455 
z
" style="stroke: #3f3f3f; stroke-width: 1.25"/>
    </defs>
    <g clip-path="url(#p89e14178ef)">
     <use xlink:href="#m7e4d5af894" x="0" y="360" style="fill: #3274a1; stroke: #3f3f3f; stroke-width: 1.25"/>
    </g>
   </g>
   <g id="PolyCollection_4">
    <defs>
     <path id="m069ecca531" d="M 311.017637 -106.250651 
L 308.541555 -106.250651 
L 308.228387 -107.80885 
L 307.855693 -109.367049 
L 307.417408 -110.925248 
L 306.908103 -112.483446 
L 306.323296 -114.041645 
L 305.659777 -115.599844 
L 304.915914 -117.158043 
L 304.09192 -118.716242 
L 303.190059 -120.274441 
L 302.214774 -121.832639 
L 301.172718 -123.390838 
L 300.072683 -124.949037 
L 298.925421 -126.507236 
L 297.743355 -128.065435 
L 296.540216 -129.623634 
L 295.330594 -131.181832 
L 294.129459 -132.740031 
L 292.951655 -134.29823 
L 291.811422 -135.856429 
L 290.721941 -137.414628 
L 289.694957 -138.972827 
L 288.740466 -140.531025 
L 287.866496 -142.089224 
L 287.078964 -143.647423 
L 286.381613 -145.205622 
L 285.776015 -146.763821 
L 285.261614 -148.32202 
L 284.83581 -149.880218 
L 284.494056 -151.438417 
L 284.229971 -152.996616 
L 284.035454 -154.554815 
L 283.900822 -156.113014 
L 283.814965 -157.671213 
L 283.765547 -159.229411 
L 283.73926 -160.78761 
L 283.722161 -162.345809 
L 283.700093 -163.904008 
L 283.659202 -165.462207 
L 283.586542 -167.020406 
L 283.470742 -168.578604 
L 283.302721 -170.136803 
L 283.07638 -171.695002 
L 282.789246 -173.253201 
L 282.442987 -174.8114 
L 282.043747 -176.369599 
L 281.602254 -177.927797 
L 281.133648 -179.485996 
L 280.657026 -181.044195 
L 280.194685 -182.602394 
L 279.77111 -184.160593 
L 279.411736 -185.718792 
L 279.141588 -187.27699 
L 278.983855 -188.835189 
L 278.958526 -190.393388 
L 279.081182 -191.951587 
L 279.362026 -193.509786 
L 279.805241 -195.067985 
L 280.408725 -196.626183 
L 281.164213 -198.184382 
L 282.057792 -199.742581 
L 283.070756 -201.30078 
L 284.180737 -202.858979 
L 285.363021 -204.417178 
L 286.591953 -205.975376 
L 287.842325 -207.533575 
L 289.090642 -209.091774 
L 290.316198 -210.649973 
L 291.501886 -212.208172 
L 292.634707 -213.766371 
L 293.705974 -215.324569 
L 294.711214 -216.882768 
L 295.649808 -218.440967 
L 296.524418 -219.999166 
L 297.34027 -221.557365 
L 298.104354 -223.115563 
L 298.82461 -224.673762 
L 299.509162 -226.231961 
L 300.165647 -227.79016 
L 300.800679 -229.348359 
L 301.419466 -230.906558 
L 302.025589 -232.464756 
L 302.620942 -234.022955 
L 303.205803 -235.581154 
L 303.779032 -237.139353 
L 304.338342 -238.697552 
L 304.880632 -240.255751 
L 305.402332 -241.813949 
L 305.899746 -243.372148 
L 306.369358 -244.930347 
L 306.808088 -246.488546 
L 307.21349 -248.046745 
L 307.583877 -249.604944 
L 307.918383 -251.163142 
L 308.216962 -252.721341 
L 308.48034 -254.27954 
L 308.709922 -255.837739 
L 308.907675 -257.395938 
L 309.075992 -258.954137 
L 309.217558 -260.512335 
L 310.341634 -260.512335 
L 310.341634 -260.512335 
L 310.483199 -258.954137 
L 310.651517 -257.395938 
L 310.849269 -255.837739 
L 311.078852 -254.27954 
L 311.34223 -252.721341 
L 311.640809 -251.163142 
L 311.975314 -249.604944 
L 312.345701 -248.046745 
L 312.751103 -246.488546 
L 313.189834 -244.930347 
L 313.659446 -243.372148 
L 314.15686 -241.813949 
L 314.67856 -240.255751 
L 315.22085 -238.697552 
L 315.78016 -237.139353 
L 316.353388 -235.581154 
L 316.938249 -234.022955 
L 317.533602 -232.464756 
L 318.139726 -230.906558 
L 318.758513 -229.348359 
L 319.393545 -227.79016 
L 320.05003 -226.231961 
L 320.734581 -224.673762 
L 321.454837 -223.115563 
L 322.218922 -221.557365 
L 323.034774 -219.999166 
L 323.909384 -218.440967 
L 324.847977 -216.882768 
L 325.853218 -215.324569 
L 326.924485 -213.766371 
L 328.057306 -212.208172 
L 329.242993 -210.649973 
L 330.46855 -209.091774 
L 331.716867 -207.533575 
L 332.967239 -205.975376 
L 334.196171 -204.417178 
L 335.378454 -202.858979 
L 336.488435 -201.30078 
L 337.501399 -199.742581 
L 338.394979 -198.184382 
L 339.150466 -196.626183 
L 339.75395 -195.067985 
L 340.197165 -193.509786 
L 340.478009 -191.951587 
L 340.600665 -190.393388 
L 340.575337 -188.835189 
L 340.417603 -187.27699 
L 340.147455 -185.718792 
L 339.788082 -184.160593 
L 339.364506 -182.602394 
L 338.902166 -181.044195 
L 338.425544 -179.485996 
L 337.956938 -177.927797 
L 337.515444 -176.369599 
L 337.116205 -174.8114 
L 336.769946 -173.253201 
L 336.482812 -171.695002 
L 336.256471 -170.136803 
L 336.088449 -168.578604 
L 335.972649 -167.020406 
L 335.899989 -165.462207 
L 335.859099 -163.904008 
L 335.837031 -162.345809 
L 335.819931 -160.78761 
L 335.793644 -159.229411 
L 335.744226 -157.671213 
L 335.65837 -156.113014 
L 335.523738 -154.554815 
L 335.329221 -152.996616 
L 335.065135 -151.438417 
L 334.723382 -149.880218 
L 334.297578 -148.32202 
L 333.783177 -146.763821 
L 333.177579 -145.205622 
L 332.480228 -143.647423 
L 331.692695 -142.089224 
L 330.818725 -140.531025 
L 329.864235 -138.972827 
L 328.83725 -137.414628 
L 327.74777 -135.856429 
L 326.607536 -134.29823 
L 325.429733 -132.740031 
L 324.228597 -131.181832 
L 323.018975 -129.623634 
L 321.815836 -128.065435 
L 320.633771 -126.507236 
L 319.486508 -124.949037 
L 318.386474 -123.390838 
L 317.344418 -121.832639 
L 316.369132 -120.274441 
L 315.467271 -118.716242 
L 314.643277 -117.158043 
L 313.899415 -115.599844 
L 313.235896 -114.041645 
L 312.651088 -112.483446 
L 312.141783 -110.925248 
L 311.703499 -109.367049 
L 311.330804 -107.80885 
L 311.017637 -106.250651 
z
" style="stroke: #3f3f3f; stroke-width: 1.25"/>
    </defs>
    <g clip-path="url(#p89e14178ef)">
     <use xlink:href="#m069ecca531" x="0" y="360" style="fill: #e1812c; stroke: #3f3f3f; stroke-width: 1.25"/>
    </g>
   </g>
   <g id="patch_3">
    <path d="M 124.853179 320.8258 
L 124.853179 320.8258 
L 124.853179 320.8258 
L 124.853179 320.8258 
z
" clip-path="url(#p89e14178ef)" style="fill: #3274a1; stroke: #3f3f3f; stroke-width: 1.25; stroke-linejoin: miter"/>
   </g>
   <g id="patch_4">
    <path d="M 124.853179 320.8258 
L 124.853179 320.8258 
L 124.853179 320.8258 
L 124.853179 320.8258 
z
" clip-path="url(#p89e14178ef)" style="fill: #e1812c; stroke: #3f3f3f; stroke-width: 1.25; stroke-linejoin: miter"/>
   </g>
   <g id="line2d_7">
    <path d="M 94.032109 221.527118 
L 94.032109 104.394285 
" clip-path="url(#p89e14178ef)" style="fill: none; stroke: #3f3f3f; stroke-width: 1.875; stroke-linecap: round"/>
   </g>
   <g id="line2d_8">
    <path d="M 94.032109 194.424732 
L 94.032109 143.256769 
" clip-path="url(#p89e14178ef)" style="fill: none; stroke: #3f3f3f; stroke-width: 5.625; stroke-linecap: round"/>
   </g>
   <g id="line2d_9">
    <path d="M 94.032109 182.463597 
" clip-path="url(#p89e14178ef)" style="fill: none; stroke: #3f3f3f; stroke-width: 1.5; stroke-linecap: round"/>
    <defs>
     <path id="mc0b451c9f0" d="M 2.34375 0 
L -2.34375 -0 
" style="stroke: #ffffff; stroke-width: 1.125"/>
    </defs>
    <g clip-path="url(#p89e14178ef)">
     <use xlink:href="#mc0b451c9f0" x="94.032109" y="182.463597" style="fill: #ffffff; stroke: #ffffff; stroke-width: 1.125"/>
    </g>
   </g>
   <g id="line2d_10">
    <path d="M 155.674248 247.278089 
L 155.674248 116.240306 
" clip-path="url(#p89e14178ef)" style="fill: none; stroke: #3f3f3f; stroke-width: 1.875; stroke-linecap: round"/>
   </g>
   <g id="line2d_11">
    <path d="M 155.674248 214.40348 
L 155.674248 154.182645 
" clip-path="url(#p89e14178ef)" style="fill: none; stroke: #3f3f3f; stroke-width: 5.625; stroke-linecap: round"/>
   </g>
   <g id="line2d_12">
    <path d="M 155.674248 186.124692 
" clip-path="url(#p89e14178ef)" style="fill: none; stroke: #3f3f3f; stroke-width: 1.5; stroke-linecap: round"/>
    <g clip-path="url(#p89e14178ef)">
     <use xlink:href="#mc0b451c9f0" x="155.674248" y="186.124692" style="fill: #ffffff; stroke: #ffffff; stroke-width: 1.125"/>
    </g>
   </g>
   <g id="line2d_13">
    <path d="M 248.137457 251.89065 
L 248.137457 76.94935 
" clip-path="url(#p89e14178ef)" style="fill: none; stroke: #3f3f3f; stroke-width: 1.875; stroke-linecap: round"/>
   </g>
   <g id="line2d_14">
    <path d="M 248.137457 181.767942 
L 248.137457 105.027213 
" clip-path="url(#p89e14178ef)" style="fill: none; stroke: #3f3f3f; stroke-width: 5.625; stroke-linecap: round"/>
   </g>
   <g id="line2d_15">
    <path d="M 248.137457 149.300394 
" clip-path="url(#p89e14178ef)" style="fill: none; stroke: #3f3f3f; stroke-width: 1.5; stroke-linecap: round"/>
    <g clip-path="url(#p89e14178ef)">
     <use xlink:href="#mc0b451c9f0" x="248.137457" y="149.300394" style="fill: #ffffff; stroke: #ffffff; stroke-width: 1.125"/>
    </g>
   </g>
   <g id="line2d_16">
    <path d="M 309.779596 224.354398 
L 309.779596 128.882616 
" clip-path="url(#p89e14178ef)" style="fill: none; stroke: #3f3f3f; stroke-width: 1.875; stroke-linecap: round"/>
   </g>
   <g id="line2d_17">
    <path d="M 309.779596 205.126181 
L 309.779596 164.914151 
" clip-path="url(#p89e14178ef)" style="fill: none; stroke: #3f3f3f; stroke-width: 5.625; stroke-linecap: round"/>
   </g>
   <g id="line2d_18">
    <path d="M 309.779596 178.027868 
" clip-path="url(#p89e14178ef)" style="fill: none; stroke: #3f3f3f; stroke-width: 1.5; stroke-linecap: round"/>
    <g clip-path="url(#p89e14178ef)">
     <use xlink:href="#mc0b451c9f0" x="309.779596" y="178.027868" style="fill: #ffffff; stroke: #ffffff; stroke-width: 1.125"/>
    </g>
   </g>
   <g id="patch_5">
    <path d="M 47.800505 318.04 
L 47.800505 10.8 
" style="fill: none; stroke: #cccccc; stroke-width: 0.8; stroke-linejoin: miter; stroke-linecap: square"/>
   </g>
   <g id="patch_6">
    <path d="M 47.800505 318.04 
L 356.0112 318.04 
" style="fill: none; stroke: #cccccc; stroke-width: 0.8; stroke-linejoin: miter; stroke-linecap: square"/>
   </g>
  </g>
  <g id="legend_1">
   <g id="text_11">
    <!-- time -->
    <g style="fill: #262626" transform="translate(365.045625 168.439844) scale(0.1 -0.1)">
     <use xlink:href="#ArialMT-74"/>
     <use xlink:href="#ArialMT-69" x="27.783203"/>
     <use xlink:href="#ArialMT-6d" x="50"/>
     <use xlink:href="#ArialMT-65" x="133.300781"/>
    </g>
   </g>
   <g id="patch_7">
    <path d="M 359.101875 182.585156 
L 379.101875 182.585156 
L 379.101875 175.585156 
L 359.101875 175.585156 
z
" style="fill: #3274a1; stroke: #3f3f3f; stroke-width: 1.25; stroke-linejoin: miter"/>
   </g>
   <g id="text_12">
    <!-- i -->
    <g style="fill: #262626" transform="translate(387.101875 182.585156) scale(0.1 -0.1)">
     <use xlink:href="#ArialMT-69"/>
    </g>
   </g>
   <g id="patch_8">
    <path d="M 359.101875 196.730469 
L 379.101875 196.730469 
L 379.101875 189.730469 
L 359.101875 189.730469 
z
" style="fill: #e1812c; stroke: #3f3f3f; stroke-width: 1.25; stroke-linejoin: miter"/>
   </g>
   <g id="text_13">
    <!-- f -->
    <g style="fill: #262626" transform="translate(387.101875 196.730469) scale(0.1 -0.1)">
     <use xlink:href="#ArialMT-66"/>
    </g>
   </g>
  </g>
 </g>
 <defs>
  <clipPath id="p89e14178ef">
   <rect x="47.800505" y="10.8" width="308.210695" height="307.24"/>
  </clipPath>
 </defs>
</svg>
