<?xml version="1.0" encoding="utf-8" standalone="no"?>
<!DOCTYPE svg PUBLIC "-//W3C//DTD SVG 1.1//EN"
  "http://www.w3.org/Graphics/SVG/1.1/DTD/svg11.dtd">
<svg xmlns:xlink="http://www.w3.org/1999/xlink" width="398.88pt" height="360pt" viewBox="0 0 398.88 360" xmlns="http://www.w3.org/2000/svg" version="1.1">
 <metadata>
  <rdf:RDF xmlns:dc="http://purl.org/dc/elements/1.1/" xmlns:cc="http://creativecommons.org/ns#" xmlns:rdf="http://www.w3.org/1999/02/22-rdf-syntax-ns#">
   <cc:Work>
    <dc:type rdf:resource="http://purl.org/dc/dcmitype/StillImage"/>
    <dc:date>2024-09-11T03:31:51.901903</dc:date>
    <dc:format>image/svg+xml</dc:format>
    <dc:creator>
     <cc:Agent>
      <dc:title>Matplotlib v3.8.3, https://matplotlib.org/</dc:title>
     </cc:Agent>
    </dc:creator>
   </cc:Work>
  </rdf:RDF>
 </metadata>
 <defs>
  <style type="text/css">*{stroke-linejoin: round; stroke-linecap: butt}</style>
 </defs>
 <g id="figure_1">
  <g id="patch_1">
   <path d="M 0 360 
L 398.88 360 
L 398.88 0 
L 0 0 
z
" style="fill: #ffffff"/>
  </g>
  <g id="axes_1">
   <g id="patch_2">
    <path d="M 57.074465 318.04 
L 356.0112 318.04 
L 356.0112 10.8 
L 57.074465 10.8 
z
" style="fill: #ffffff"/>
   </g>
   <g id="matplotlib.axis_1">
    <g id="xtick_1">
     <g id="text_1">
      <!-- f -->
      <g style="fill: #262626" transform="translate(130.419586 332.197812) scale(0.1 -0.1)">
       <defs>
        <path id="ArialMT-66" d="M 556 0 
L 556 2881 
L 59 2881 
L 59 3319 
L 556 3319 
L 556 3672 
Q 556 4006 616 4169 
Q 697 4388 901 4523 
Q 1106 4659 1475 4659 
Q 1713 4659 2000 4603 
L 1916 4113 
Q 1741 4144 1584 4144 
Q 1328 4144 1222 4034 
Q 1116 3925 1116 3625 
L 1116 3319 
L 1763 3319 
L 1763 2881 
L 1116 2881 
L 1116 0 
L 556 0 
z
" transform="scale(0.015625)"/>
       </defs>
       <use xlink:href="#ArialMT-66"/>
      </g>
     </g>
    </g>
    <g id="xtick_2">
     <g id="text_2">
      <!-- m -->
      <g style="fill: #262626" transform="translate(277.112172 332.197812) scale(0.1 -0.1)">
       <defs>
        <path id="ArialMT-6d" d="M 422 0 
L 422 3319 
L 925 3319 
L 925 2853 
Q 1081 3097 1340 3245 
Q 1600 3394 1931 3394 
Q 2300 3394 2536 3241 
Q 2772 3088 2869 2813 
Q 3263 3394 3894 3394 
Q 4388 3394 4653 3120 
Q 4919 2847 4919 2278 
L 4919 0 
L 4359 0 
L 4359 2091 
Q 4359 2428 4304 2576 
Q 4250 2725 4106 2815 
Q 3963 2906 3769 2906 
Q 3419 2906 3187 2673 
Q 2956 2441 2956 1928 
L 2956 0 
L 2394 0 
L 2394 2156 
Q 2394 2531 2256 2718 
Q 2119 2906 1806 2906 
Q 1569 2906 1367 2781 
Q 1166 2656 1075 2415 
Q 984 2175 984 1722 
L 984 0 
L 422 0 
z
" transform="scale(0.015625)"/>
       </defs>
       <use xlink:href="#ArialMT-6d"/>
      </g>
     </g>
    </g>
    <g id="text_3">
     <!-- sex -->
     <g style="fill: #262626" transform="translate(198.762364 345.343125) scale(0.1 -0.1)">
      <defs>
       <path id="ArialMT-73" d="M 197 991 
L 753 1078 
Q 800 744 1014 566 
Q 1228 388 1613 388 
Q 2000 388 2187 545 
Q 2375 703 2375 916 
Q 2375 1106 2209 1216 
Q 2094 1291 1634 1406 
Q 1016 1563 777 1677 
Q 538 1791 414 1992 
Q 291 2194 291 2438 
Q 291 2659 392 2848 
Q 494 3038 669 3163 
Q 800 3259 1026 3326 
Q 1253 3394 1513 3394 
Q 1903 3394 2198 3281 
Q 2494 3169 2634 2976 
Q 2775 2784 2828 2463 
L 2278 2388 
Q 2241 2644 2061 2787 
Q 1881 2931 1553 2931 
Q 1166 2931 1000 2803 
Q 834 2675 834 2503 
Q 834 2394 903 2306 
Q 972 2216 1119 2156 
Q 1203 2125 1616 2013 
Q 2213 1853 2448 1751 
Q 2684 1650 2818 1456 
Q 2953 1263 2953 975 
Q 2953 694 2789 445 
Q 2625 197 2315 61 
Q 2006 -75 1616 -75 
Q 969 -75 630 194 
Q 291 463 197 991 
z
" transform="scale(0.015625)"/>
       <path id="ArialMT-65" d="M 2694 1069 
L 3275 997 
Q 3138 488 2766 206 
Q 2394 -75 1816 -75 
Q 1088 -75 661 373 
Q 234 822 234 1631 
Q 234 2469 665 2931 
Q 1097 3394 1784 3394 
Q 2450 3394 2872 2941 
Q 3294 2488 3294 1666 
Q 3294 1616 3291 1516 
L 816 1516 
Q 847 969 1125 678 
Q 1403 388 1819 388 
Q 2128 388 2347 550 
Q 2566 713 2694 1069 
z
M 847 1978 
L 2700 1978 
Q 2663 2397 2488 2606 
Q 2219 2931 1791 2931 
Q 1403 2931 1139 2672 
Q 875 2413 847 1978 
z
" transform="scale(0.015625)"/>
       <path id="ArialMT-78" d="M 47 0 
L 1259 1725 
L 138 3319 
L 841 3319 
L 1350 2541 
Q 1494 2319 1581 2169 
Q 1719 2375 1834 2534 
L 2394 3319 
L 3066 3319 
L 1919 1756 
L 3153 0 
L 2463 0 
L 1781 1031 
L 1600 1309 
L 728 0 
L 47 0 
z
" transform="scale(0.015625)"/>
      </defs>
      <use xlink:href="#ArialMT-73"/>
      <use xlink:href="#ArialMT-65" x="50"/>
      <use xlink:href="#ArialMT-78" x="105.615234"/>
     </g>
    </g>
   </g>
   <g id="matplotlib.axis_2">
    <g id="ytick_1">
     <g id="line2d_1">
      <path d="M 57.074465 295.738539 
L 356.0112 295.738539 
" clip-path="url(#pebb31db3c7)" style="fill: none; stroke: #cccccc; stroke-width: 0.8; stroke-linecap: round"/>
     </g>
     <g id="text_4">
      <!-- 0.25 -->
      <g style="fill: #262626" transform="translate(30.613528 299.317445) scale(0.1 -0.1)">
       <defs>
        <path id="ArialMT-30" d="M 266 2259 
Q 266 3072 433 3567 
Q 600 4063 929 4331 
Q 1259 4600 1759 4600 
Q 2128 4600 2406 4451 
Q 2684 4303 2865 4023 
Q 3047 3744 3150 3342 
Q 3253 2941 3253 2259 
Q 3253 1453 3087 958 
Q 2922 463 2592 192 
Q 2263 -78 1759 -78 
Q 1097 -78 719 397 
Q 266 969 266 2259 
z
M 844 2259 
Q 844 1131 1108 757 
Q 1372 384 1759 384 
Q 2147 384 2411 759 
Q 2675 1134 2675 2259 
Q 2675 3391 2411 3762 
Q 2147 4134 1753 4134 
Q 1366 4134 1134 3806 
Q 844 3388 844 2259 
z
" transform="scale(0.015625)"/>
        <path id="ArialMT-2e" d="M 581 0 
L 581 641 
L 1222 641 
L 1222 0 
L 581 0 
z
" transform="scale(0.015625)"/>
        <path id="ArialMT-32" d="M 3222 541 
L 3222 0 
L 194 0 
Q 188 203 259 391 
Q 375 700 629 1000 
Q 884 1300 1366 1694 
Q 2113 2306 2375 2664 
Q 2638 3022 2638 3341 
Q 2638 3675 2398 3904 
Q 2159 4134 1775 4134 
Q 1369 4134 1125 3890 
Q 881 3647 878 3216 
L 300 3275 
Q 359 3922 746 4261 
Q 1134 4600 1788 4600 
Q 2447 4600 2831 4234 
Q 3216 3869 3216 3328 
Q 3216 3053 3103 2787 
Q 2991 2522 2730 2228 
Q 2469 1934 1863 1422 
Q 1356 997 1212 845 
Q 1069 694 975 541 
L 3222 541 
z
" transform="scale(0.015625)"/>
        <path id="ArialMT-35" d="M 266 1200 
L 856 1250 
Q 922 819 1161 601 
Q 1400 384 1738 384 
Q 2144 384 2425 690 
Q 2706 997 2706 1503 
Q 2706 1984 2436 2262 
Q 2166 2541 1728 2541 
Q 1456 2541 1237 2417 
Q 1019 2294 894 2097 
L 366 2166 
L 809 4519 
L 3088 4519 
L 3088 3981 
L 1259 3981 
L 1013 2750 
Q 1425 3038 1878 3038 
Q 2478 3038 2890 2622 
Q 3303 2206 3303 1553 
Q 3303 931 2941 478 
Q 2500 -78 1738 -78 
Q 1113 -78 717 272 
Q 322 622 266 1200 
z
" transform="scale(0.015625)"/>
       </defs>
       <use xlink:href="#ArialMT-30"/>
       <use xlink:href="#ArialMT-2e" x="55.615234"/>
       <use xlink:href="#ArialMT-32" x="83.398438"/>
       <use xlink:href="#ArialMT-35" x="139.013672"/>
      </g>
     </g>
    </g>
    <g id="ytick_2">
     <g id="line2d_2">
      <path d="M 57.074465 259.011916 
L 356.0112 259.011916 
" clip-path="url(#pebb31db3c7)" style="fill: none; stroke: #cccccc; stroke-width: 0.8; stroke-linecap: round"/>
     </g>
     <g id="text_5">
      <!-- 0.50 -->
      <g style="fill: #262626" transform="translate(30.613528 262.590822) scale(0.1 -0.1)">
       <use xlink:href="#ArialMT-30"/>
       <use xlink:href="#ArialMT-2e" x="55.615234"/>
       <use xlink:href="#ArialMT-35" x="83.398438"/>
       <use xlink:href="#ArialMT-30" x="139.013672"/>
      </g>
     </g>
    </g>
    <g id="ytick_3">
     <g id="line2d_3">
      <path d="M 57.074465 222.285294 
L 356.0112 222.285294 
" clip-path="url(#pebb31db3c7)" style="fill: none; stroke: #cccccc; stroke-width: 0.8; stroke-linecap: round"/>
     </g>
     <g id="text_6">
      <!-- 0.75 -->
      <g style="fill: #262626" transform="translate(30.613528 225.8642) scale(0.1 -0.1)">
       <defs>
        <path id="ArialMT-37" d="M 303 3981 
L 303 4522 
L 3269 4522 
L 3269 4084 
Q 2831 3619 2401 2847 
Q 1972 2075 1738 1259 
Q 1569 684 1522 0 
L 944 0 
Q 953 541 1156 1306 
Q 1359 2072 1739 2783 
Q 2119 3494 2547 3981 
L 303 3981 
z
" transform="scale(0.015625)"/>
       </defs>
       <use xlink:href="#ArialMT-30"/>
       <use xlink:href="#ArialMT-2e" x="55.615234"/>
       <use xlink:href="#ArialMT-37" x="83.398438"/>
       <use xlink:href="#ArialMT-35" x="139.013672"/>
      </g>
     </g>
    </g>
    <g id="ytick_4">
     <g id="line2d_4">
      <path d="M 57.074465 185.558671 
L 356.0112 185.558671 
" clip-path="url(#pebb31db3c7)" style="fill: none; stroke: #cccccc; stroke-width: 0.8; stroke-linecap: round"/>
     </g>
     <g id="text_7">
      <!-- 1.00 -->
      <g style="fill: #262626" transform="translate(30.613528 189.137577) scale(0.1 -0.1)">
       <defs>
        <path id="ArialMT-31" d="M 2384 0 
L 1822 0 
L 1822 3584 
Q 1619 3391 1289 3197 
Q 959 3003 697 2906 
L 697 3450 
Q 1169 3672 1522 3987 
Q 1875 4303 2022 4600 
L 2384 4600 
L 2384 0 
z
" transform="scale(0.015625)"/>
       </defs>
       <use xlink:href="#ArialMT-31"/>
       <use xlink:href="#ArialMT-2e" x="55.615234"/>
       <use xlink:href="#ArialMT-30" x="83.398438"/>
       <use xlink:href="#ArialMT-30" x="139.013672"/>
      </g>
     </g>
    </g>
    <g id="ytick_5">
     <g id="line2d_5">
      <path d="M 57.074465 148.832049 
L 356.0112 148.832049 
" clip-path="url(#pebb31db3c7)" style="fill: none; stroke: #cccccc; stroke-width: 0.8; stroke-linecap: round"/>
     </g>
     <g id="text_8">
      <!-- 1.25 -->
      <g style="fill: #262626" transform="translate(30.613528 152.410955) scale(0.1 -0.1)">
       <use xlink:href="#ArialMT-31"/>
       <use xlink:href="#ArialMT-2e" x="55.615234"/>
       <use xlink:href="#ArialMT-32" x="83.398438"/>
       <use xlink:href="#ArialMT-35" x="139.013672"/>
      </g>
     </g>
    </g>
    <g id="ytick_6">
     <g id="line2d_6">
      <path d="M 57.074465 112.105426 
L 356.0112 112.105426 
" clip-path="url(#pebb31db3c7)" style="fill: none; stroke: #cccccc; stroke-width: 0.8; stroke-linecap: round"/>
     </g>
     <g id="text_9">
      <!-- 1.50 -->
      <g style="fill: #262626" transform="translate(30.613528 115.684332) scale(0.1 -0.1)">
       <use xlink:href="#ArialMT-31"/>
       <use xlink:href="#ArialMT-2e" x="55.615234"/>
       <use xlink:href="#ArialMT-35" x="83.398438"/>
       <use xlink:href="#ArialMT-30" x="139.013672"/>
      </g>
     </g>
    </g>
    <g id="ytick_7">
     <g id="line2d_7">
      <path d="M 57.074465 75.378804 
L 356.0112 75.378804 
" clip-path="url(#pebb31db3c7)" style="fill: none; stroke: #cccccc; stroke-width: 0.8; stroke-linecap: round"/>
     </g>
     <g id="text_10">
      <!-- 1.75 -->
      <g style="fill: #262626" transform="translate(30.613528 78.95771) scale(0.1 -0.1)">
       <use xlink:href="#ArialMT-31"/>
       <use xlink:href="#ArialMT-2e" x="55.615234"/>
       <use xlink:href="#ArialMT-37" x="83.398438"/>
       <use xlink:href="#ArialMT-35" x="139.013672"/>
      </g>
     </g>
    </g>
    <g id="ytick_8">
     <g id="line2d_8">
      <path d="M 57.074465 38.652181 
L 356.0112 38.652181 
" clip-path="url(#pebb31db3c7)" style="fill: none; stroke: #cccccc; stroke-width: 0.8; stroke-linecap: round"/>
     </g>
     <g id="text_11">
      <!-- 2.00 -->
      <g style="fill: #262626" transform="translate(30.613528 42.231087) scale(0.1 -0.1)">
       <use xlink:href="#ArialMT-32"/>
       <use xlink:href="#ArialMT-2e" x="55.615234"/>
       <use xlink:href="#ArialMT-30" x="83.398438"/>
       <use xlink:href="#ArialMT-30" x="139.013672"/>
      </g>
     </g>
    </g>
    <g id="text_12">
     <!-- O2 intake (l/min) -->
     <g style="fill: #262626" transform="translate(24.50884 201.095) rotate(-90) scale(0.1 -0.1)">
      <defs>
       <path id="ArialMT-4f" d="M 309 2231 
Q 309 3372 921 4017 
Q 1534 4663 2503 4663 
Q 3138 4663 3647 4359 
Q 4156 4056 4423 3514 
Q 4691 2972 4691 2284 
Q 4691 1588 4409 1038 
Q 4128 488 3612 205 
Q 3097 -78 2500 -78 
Q 1853 -78 1343 234 
Q 834 547 571 1087 
Q 309 1628 309 2231 
z
M 934 2222 
Q 934 1394 1379 917 
Q 1825 441 2497 441 
Q 3181 441 3623 922 
Q 4066 1403 4066 2288 
Q 4066 2847 3877 3264 
Q 3688 3681 3323 3911 
Q 2959 4141 2506 4141 
Q 1863 4141 1398 3698 
Q 934 3256 934 2222 
z
" transform="scale(0.015625)"/>
       <path id="ArialMT-20" transform="scale(0.015625)"/>
       <path id="ArialMT-69" d="M 425 3934 
L 425 4581 
L 988 4581 
L 988 3934 
L 425 3934 
z
M 425 0 
L 425 3319 
L 988 3319 
L 988 0 
L 425 0 
z
" transform="scale(0.015625)"/>
       <path id="ArialMT-6e" d="M 422 0 
L 422 3319 
L 928 3319 
L 928 2847 
Q 1294 3394 1984 3394 
Q 2284 3394 2536 3286 
Q 2788 3178 2913 3003 
Q 3038 2828 3088 2588 
Q 3119 2431 3119 2041 
L 3119 0 
L 2556 0 
L 2556 2019 
Q 2556 2363 2490 2533 
Q 2425 2703 2258 2804 
Q 2091 2906 1866 2906 
Q 1506 2906 1245 2678 
Q 984 2450 984 1813 
L 984 0 
L 422 0 
z
" transform="scale(0.015625)"/>
       <path id="ArialMT-74" d="M 1650 503 
L 1731 6 
Q 1494 -44 1306 -44 
Q 1000 -44 831 53 
Q 663 150 594 308 
Q 525 466 525 972 
L 525 2881 
L 113 2881 
L 113 3319 
L 525 3319 
L 525 4141 
L 1084 4478 
L 1084 3319 
L 1650 3319 
L 1650 2881 
L 1084 2881 
L 1084 941 
Q 1084 700 1114 631 
Q 1144 563 1211 522 
Q 1278 481 1403 481 
Q 1497 481 1650 503 
z
" transform="scale(0.015625)"/>
       <path id="ArialMT-61" d="M 2588 409 
Q 2275 144 1986 34 
Q 1697 -75 1366 -75 
Q 819 -75 525 192 
Q 231 459 231 875 
Q 231 1119 342 1320 
Q 453 1522 633 1644 
Q 813 1766 1038 1828 
Q 1203 1872 1538 1913 
Q 2219 1994 2541 2106 
Q 2544 2222 2544 2253 
Q 2544 2597 2384 2738 
Q 2169 2928 1744 2928 
Q 1347 2928 1158 2789 
Q 969 2650 878 2297 
L 328 2372 
Q 403 2725 575 2942 
Q 747 3159 1072 3276 
Q 1397 3394 1825 3394 
Q 2250 3394 2515 3294 
Q 2781 3194 2906 3042 
Q 3031 2891 3081 2659 
Q 3109 2516 3109 2141 
L 3109 1391 
Q 3109 606 3145 398 
Q 3181 191 3288 0 
L 2700 0 
Q 2613 175 2588 409 
z
M 2541 1666 
Q 2234 1541 1622 1453 
Q 1275 1403 1131 1340 
Q 988 1278 909 1158 
Q 831 1038 831 891 
Q 831 666 1001 516 
Q 1172 366 1500 366 
Q 1825 366 2078 508 
Q 2331 650 2450 897 
Q 2541 1088 2541 1459 
L 2541 1666 
z
" transform="scale(0.015625)"/>
       <path id="ArialMT-6b" d="M 425 0 
L 425 4581 
L 988 4581 
L 988 1969 
L 2319 3319 
L 3047 3319 
L 1778 2088 
L 3175 0 
L 2481 0 
L 1384 1697 
L 988 1316 
L 988 0 
L 425 0 
z
" transform="scale(0.015625)"/>
       <path id="ArialMT-28" d="M 1497 -1347 
Q 1031 -759 709 28 
Q 388 816 388 1659 
Q 388 2403 628 3084 
Q 909 3875 1497 4659 
L 1900 4659 
Q 1522 4009 1400 3731 
Q 1209 3300 1100 2831 
Q 966 2247 966 1656 
Q 966 153 1900 -1347 
L 1497 -1347 
z
" transform="scale(0.015625)"/>
       <path id="ArialMT-6c" d="M 409 0 
L 409 4581 
L 972 4581 
L 972 0 
L 409 0 
z
" transform="scale(0.015625)"/>
       <path id="ArialMT-2f" d="M 0 -78 
L 1328 4659 
L 1778 4659 
L 453 -78 
L 0 -78 
z
" transform="scale(0.015625)"/>
       <path id="ArialMT-29" d="M 791 -1347 
L 388 -1347 
Q 1322 153 1322 1656 
Q 1322 2244 1188 2822 
Q 1081 3291 891 3722 
Q 769 4003 388 4659 
L 791 4659 
Q 1378 3875 1659 3084 
Q 1900 2403 1900 1659 
Q 1900 816 1576 28 
Q 1253 -759 791 -1347 
z
" transform="scale(0.015625)"/>
      </defs>
      <use xlink:href="#ArialMT-4f"/>
      <use xlink:href="#ArialMT-32" x="77.783203"/>
      <use xlink:href="#ArialMT-20" x="133.398438"/>
      <use xlink:href="#ArialMT-69" x="161.181641"/>
      <use xlink:href="#ArialMT-6e" x="183.398438"/>
      <use xlink:href="#ArialMT-74" x="239.013672"/>
      <use xlink:href="#ArialMT-61" x="266.796875"/>
      <use xlink:href="#ArialMT-6b" x="322.412109"/>
      <use xlink:href="#ArialMT-65" x="372.412109"/>
      <use xlink:href="#ArialMT-20" x="428.027344"/>
      <use xlink:href="#ArialMT-28" x="455.810547"/>
      <use xlink:href="#ArialMT-6c" x="489.111328"/>
      <use xlink:href="#ArialMT-2f" x="511.328125"/>
      <use xlink:href="#ArialMT-6d" x="539.111328"/>
      <use xlink:href="#ArialMT-69" x="622.412109"/>
      <use xlink:href="#ArialMT-6e" x="644.628906"/>
      <use xlink:href="#ArialMT-29" x="700.244141"/>
     </g>
    </g>
   </g>
   <g id="PolyCollection_1">
    <defs>
     <path id="mc99e781aee" d="M 102.405515 -78.049891 
L 101.424435 -78.049891 
L 101.299257 -79.999777 
L 101.151096 -81.949664 
L 100.978079 -83.89955 
L 100.778691 -85.849436 
L 100.551864 -87.799323 
L 100.297031 -89.749209 
L 100.014152 -91.699095 
L 99.703687 -93.648982 
L 99.366521 -95.598868 
L 99.003846 -97.548755 
L 98.617003 -99.498641 
L 98.207293 -101.448527 
L 97.775787 -103.398414 
L 97.323149 -105.3483 
L 96.849493 -107.298186 
L 96.354303 -109.248073 
L 95.836412 -111.197959 
L 95.294075 -113.147845 
L 94.725103 -115.097732 
L 94.127069 -117.047618 
L 93.497547 -118.997505 
L 92.834374 -120.947391 
L 92.13589 -122.897277 
L 91.401129 -124.847164 
L 90.629955 -126.79705 
L 89.8231 -128.746936 
L 88.982136 -130.696823 
L 88.109363 -132.646709 
L 87.20766 -134.596595 
L 86.28031 -136.546482 
L 85.33085 -138.496368 
L 84.362976 -140.446255 
L 83.380526 -142.396141 
L 82.387558 -144.346027 
L 81.388533 -146.295914 
L 80.388576 -148.2458 
L 79.393791 -150.195686 
L 78.411581 -152.145573 
L 77.450934 -154.095459 
L 76.522615 -156.045345 
L 75.639216 -157.995232 
L 74.815043 -159.945118 
L 74.065821 -161.895005 
L 73.408207 -163.844891 
L 72.859158 -165.794777 
L 72.435176 -167.744664 
L 72.151502 -169.69455 
L 72.021302 -171.644436 
L 72.054924 -173.594323 
L 72.259278 -175.544209 
L 72.637372 -177.494095 
L 73.18805 -179.443982 
L 73.905923 -181.393868 
L 74.781503 -183.343755 
L 75.801511 -185.293641 
L 76.949329 -187.243527 
L 78.205561 -189.193414 
L 79.548667 -191.1433 
L 80.955633 -193.093186 
L 82.402654 -195.043073 
L 83.865806 -196.992959 
L 85.32169 -198.942845 
L 86.748038 -200.892732 
L 88.124281 -202.842618 
L 89.432057 -204.792505 
L 90.655666 -206.742391 
L 91.782451 -208.692277 
L 92.80309 -210.642164 
L 93.71179 -212.59205 
L 94.506364 -214.541936 
L 95.188178 -216.491823 
L 95.761958 -218.441709 
L 96.235461 -220.391595 
L 96.619024 -222.341482 
L 96.924989 -224.291368 
L 97.167055 -226.241255 
L 97.35958 -228.191141 
L 97.516873 -230.141027 
L 97.652523 -232.090914 
L 97.778795 -234.0408 
L 97.906147 -235.990686 
L 98.042873 -237.940573 
L 98.194905 -239.890459 
L 98.365764 -241.840345 
L 98.556672 -243.790232 
L 98.766784 -245.740118 
L 98.993526 -247.690005 
L 99.233009 -249.639891 
L 99.480465 -251.589777 
L 99.730696 -253.539664 
L 99.978477 -255.48955 
L 100.218911 -257.439436 
L 100.447703 -259.389323 
L 100.661352 -261.339209 
L 100.85726 -263.289095 
L 101.033756 -265.238982 
L 101.190058 -267.188868 
L 101.326181 -269.138755 
L 101.442809 -271.088641 
L 102.387142 -271.088641 
L 102.387142 -271.088641 
L 102.503769 -269.138755 
L 102.639892 -267.188868 
L 102.796194 -265.238982 
L 102.97269 -263.289095 
L 103.168598 -261.339209 
L 103.382248 -259.389323 
L 103.61104 -257.439436 
L 103.851473 -255.48955 
L 104.099254 -253.539664 
L 104.349485 -251.589777 
L 104.596942 -249.639891 
L 104.836424 -247.690005 
L 105.063167 -245.740118 
L 105.273279 -243.790232 
L 105.464187 -241.840345 
L 105.635046 -239.890459 
L 105.787077 -237.940573 
L 105.923803 -235.990686 
L 106.051156 -234.0408 
L 106.177428 -232.090914 
L 106.313077 -230.141027 
L 106.470371 -228.191141 
L 106.662896 -226.241255 
L 106.904962 -224.291368 
L 107.210926 -222.341482 
L 107.594489 -220.391595 
L 108.067993 -218.441709 
L 108.641772 -216.491823 
L 109.323586 -214.541936 
L 110.118161 -212.59205 
L 111.026861 -210.642164 
L 112.0475 -208.692277 
L 113.174284 -206.742391 
L 114.397894 -204.792505 
L 115.705669 -202.842618 
L 117.081912 -200.892732 
L 118.50826 -198.942845 
L 119.964144 -196.992959 
L 121.427297 -195.043073 
L 122.874318 -193.093186 
L 124.281283 -191.1433 
L 125.624389 -189.193414 
L 126.880621 -187.243527 
L 128.02844 -185.293641 
L 129.048448 -183.343755 
L 129.924028 -181.393868 
L 130.6419 -179.443982 
L 131.192578 -177.494095 
L 131.570673 -175.544209 
L 131.775026 -173.594323 
L 131.808649 -171.644436 
L 131.678448 -169.69455 
L 131.394774 -167.744664 
L 130.970793 -165.794777 
L 130.421743 -163.844891 
L 129.764129 -161.895005 
L 129.014907 -159.945118 
L 128.190735 -157.995232 
L 127.307335 -156.045345 
L 126.379016 -154.095459 
L 125.41837 -152.145573 
L 124.43616 -150.195686 
L 123.441374 -148.2458 
L 122.441418 -146.295914 
L 121.442393 -144.346027 
L 120.449425 -142.396141 
L 119.466974 -140.446255 
L 118.499101 -138.496368 
L 117.549641 -136.546482 
L 116.62229 -134.596595 
L 115.720587 -132.646709 
L 114.847815 -130.696823 
L 114.006851 -128.746936 
L 113.199996 -126.79705 
L 112.428821 -124.847164 
L 111.694061 -122.897277 
L 110.995576 -120.947391 
L 110.332404 -118.997505 
L 109.702882 -117.047618 
L 109.104847 -115.097732 
L 108.535875 -113.147845 
L 107.993538 -111.197959 
L 107.475648 -109.248073 
L 106.980457 -107.298186 
L 106.506802 -105.3483 
L 106.054164 -103.398414 
L 105.622658 -101.448527 
L 105.212948 -99.498641 
L 104.826104 -97.548755 
L 104.46343 -95.598868 
L 104.126264 -93.648982 
L 103.815799 -91.699095 
L 103.53292 -89.749209 
L 103.278087 -87.799323 
L 103.051259 -85.849436 
L 102.851871 -83.89955 
L 102.678854 -81.949664 
L 102.530694 -79.999777 
L 102.405515 -78.049891 
z
" style="stroke: #3f3f3f; stroke-width: 1.25"/>
    </defs>
    <g clip-path="url(#pebb31db3c7)">
     <use xlink:href="#mc99e781aee" x="0" y="360" style="fill: #3274a1; stroke: #3f3f3f; stroke-width: 1.25"/>
    </g>
   </g>
   <g id="PolyCollection_2">
    <defs>
     <path id="me61e0d3960" d="M 162.254206 -72.271503 
L 161.150439 -72.271503 
L 161.00702 -74.498249 
L 160.834894 -76.724994 
L 160.630592 -78.95174 
L 160.390745 -81.178485 
L 160.112212 -83.405231 
L 159.792209 -85.631977 
L 159.428442 -87.858722 
L 159.019218 -90.085468 
L 158.563557 -92.312213 
L 158.06126 -94.538959 
L 157.512953 -96.765704 
L 156.920091 -98.99245 
L 156.28491 -101.219196 
L 155.610347 -103.445941 
L 154.89991 -105.672687 
L 154.157518 -107.899432 
L 153.387311 -110.126178 
L 152.593451 -112.352924 
L 151.779925 -114.579669 
L 150.950362 -116.806415 
L 150.107897 -119.03316 
L 149.255078 -121.259906 
L 148.393849 -123.486652 
L 147.525605 -125.713397 
L 146.651338 -127.940143 
L 145.771861 -130.166888 
L 144.888106 -132.393634 
L 144.001476 -134.620379 
L 143.114235 -136.847125 
L 142.229885 -139.073871 
L 141.353512 -141.300616 
L 140.492053 -143.527362 
L 139.65445 -145.754107 
L 138.851653 -147.980853 
L 138.096456 -150.207599 
L 137.403163 -152.434344 
L 136.787064 -154.66109 
L 136.263774 -156.887835 
L 135.848448 -159.114581 
L 135.554932 -161.341327 
L 135.394916 -163.568072 
L 135.377138 -165.794818 
L 135.506722 -168.021563 
L 135.78469 -170.248309 
L 136.207717 -172.475054 
L 136.768124 -174.7018 
L 137.454148 -176.928546 
L 138.250458 -179.155291 
L 139.138879 -181.382037 
L 140.09929 -183.608782 
L 141.110606 -185.835528 
L 142.15179 -188.062274 
L 143.202807 -190.289019 
L 144.245466 -192.515765 
L 145.264082 -194.74251 
L 146.245926 -196.969256 
L 147.181445 -199.196002 
L 148.064251 -201.422747 
L 148.890907 -203.649493 
L 149.660536 -205.876238 
L 150.374324 -208.102984 
L 151.034957 -210.329729 
L 151.646054 -212.556475 
L 152.211655 -214.783221 
L 152.735794 -217.009966 
L 153.222193 -219.236712 
L 153.674086 -221.463457 
L 154.094172 -223.690203 
L 154.484671 -225.916949 
L 154.847469 -228.143694 
L 155.184302 -230.37044 
L 155.496951 -232.597185 
L 155.787425 -234.823931 
L 156.058071 -237.050677 
L 156.311639 -239.277422 
L 156.55125 -241.504168 
L 156.780304 -243.730913 
L 157.002319 -245.957659 
L 157.220733 -248.184404 
L 157.438691 -250.41115 
L 157.658833 -252.637896 
L 157.883121 -254.864641 
L 158.112716 -257.091387 
L 158.347912 -259.318132 
L 158.588144 -261.544878 
L 158.832061 -263.771624 
L 159.077647 -265.998369 
L 159.322395 -268.225115 
L 159.563502 -270.45186 
L 159.798065 -272.678606 
L 160.02328 -274.905351 
L 160.236606 -277.132097 
L 160.4359 -279.358843 
L 160.619509 -281.585588 
L 160.786321 -283.812334 
L 160.935773 -286.039079 
L 161.067823 -288.265825 
L 161.182898 -290.492571 
L 161.281811 -292.719316 
L 162.122833 -292.719316 
L 162.122833 -292.719316 
L 162.221747 -290.492571 
L 162.336821 -288.265825 
L 162.468872 -286.039079 
L 162.618324 -283.812334 
L 162.785136 -281.585588 
L 162.968745 -279.358843 
L 163.168039 -277.132097 
L 163.381364 -274.905351 
L 163.606579 -272.678606 
L 163.841143 -270.45186 
L 164.082249 -268.225115 
L 164.326998 -265.998369 
L 164.572584 -263.771624 
L 164.8165 -261.544878 
L 165.056733 -259.318132 
L 165.291929 -257.091387 
L 165.521523 -254.864641 
L 165.745811 -252.637896 
L 165.965953 -250.41115 
L 166.183911 -248.184404 
L 166.402326 -245.957659 
L 166.624341 -243.730913 
L 166.853394 -241.504168 
L 167.093005 -239.277422 
L 167.346573 -237.050677 
L 167.61722 -234.823931 
L 167.907693 -232.597185 
L 168.220343 -230.37044 
L 168.557175 -228.143694 
L 168.919973 -225.916949 
L 169.310473 -223.690203 
L 169.730559 -221.463457 
L 170.182452 -219.236712 
L 170.66885 -217.009966 
L 171.192989 -214.783221 
L 171.75859 -212.556475 
L 172.369688 -210.329729 
L 173.030321 -208.102984 
L 173.744109 -205.876238 
L 174.513738 -203.649493 
L 175.340393 -201.422747 
L 176.2232 -199.196002 
L 177.158719 -196.969256 
L 178.140563 -194.74251 
L 179.159178 -192.515765 
L 180.201838 -190.289019 
L 181.252855 -188.062274 
L 182.294038 -185.835528 
L 183.305355 -183.608782 
L 184.265766 -181.382037 
L 185.154187 -179.155291 
L 185.950496 -176.928546 
L 186.636521 -174.7018 
L 187.196928 -172.475054 
L 187.619954 -170.248309 
L 187.897923 -168.021563 
L 188.027506 -165.794818 
L 188.009728 -163.568072 
L 187.849712 -161.341327 
L 187.556197 -159.114581 
L 187.14087 -156.887835 
L 186.61758 -154.66109 
L 186.001481 -152.434344 
L 185.308188 -150.207599 
L 184.552992 -147.980853 
L 183.750194 -145.754107 
L 182.912591 -143.527362 
L 182.051133 -141.300616 
L 181.174759 -139.073871 
L 180.290409 -136.847125 
L 179.403168 -134.620379 
L 178.516539 -132.393634 
L 177.632784 -130.166888 
L 176.753307 -127.940143 
L 175.87904 -125.713397 
L 175.010796 -123.486652 
L 174.149566 -121.259906 
L 173.296747 -119.03316 
L 172.454282 -116.806415 
L 171.62472 -114.579669 
L 170.811193 -112.352924 
L 170.017333 -110.126178 
L 169.247126 -107.899432 
L 168.504734 -105.672687 
L 167.794298 -103.445941 
L 167.119735 -101.219196 
L 166.484554 -98.99245 
L 165.891691 -96.765704 
L 165.343385 -94.538959 
L 164.841088 -92.312213 
L 164.385427 -90.085468 
L 163.976203 -87.858722 
L 163.612435 -85.631977 
L 163.292433 -83.405231 
L 163.0139 -81.178485 
L 162.774053 -78.95174 
L 162.56975 -76.724994 
L 162.397625 -74.498249 
L 162.254206 -72.271503 
z
" style="stroke: #3f3f3f; stroke-width: 1.25"/>
    </defs>
    <g clip-path="url(#pebb31db3c7)">
     <use xlink:href="#me61e0d3960" x="0" y="360" style="fill: #e1812c; stroke: #3f3f3f; stroke-width: 1.25"/>
    </g>
   </g>
   <g id="PolyCollection_3">
    <defs>
     <path id="m921f615ecf" d="M 251.61422 -55.925455 
L 251.152465 -55.925455 
L 251.088253 -58.746758 
L 251.011175 -61.568062 
L 250.920064 -64.389366 
L 250.813985 -67.21067 
L 250.692297 -70.031974 
L 250.554705 -72.853278 
L 250.401288 -75.674582 
L 250.232492 -78.495886 
L 250.049098 -81.31719 
L 249.852149 -84.138494 
L 249.642855 -86.959798 
L 249.422468 -89.781102 
L 249.192145 -92.602406 
L 248.952804 -95.42371 
L 248.704981 -98.245014 
L 248.448695 -101.066318 
L 248.183326 -103.887622 
L 247.907514 -106.708926 
L 247.619065 -109.53023 
L 247.314887 -112.351534 
L 246.99095 -115.172837 
L 246.642272 -117.994141 
L 246.262971 -120.815445 
L 245.84637 -123.636749 
L 245.385202 -126.458053 
L 244.871918 -129.279357 
L 244.299115 -132.100661 
L 243.660083 -134.921965 
L 242.949457 -137.743269 
L 242.163932 -140.564573 
L 241.302993 -143.385877 
L 240.36959 -146.207181 
L 239.37068 -149.028485 
L 238.317559 -151.849789 
L 237.225927 -154.671093 
L 236.115633 -157.492397 
L 235.010084 -160.313701 
L 233.935341 -163.135005 
L 232.91895 -165.956309 
L 231.988587 -168.777612 
L 231.170614 -171.598916 
L 230.488674 -174.42022 
L 229.962415 -177.241524 
L 229.606461 -180.062828 
L 229.429694 -182.884132 
L 229.434893 -185.705436 
L 229.618751 -188.52674 
L 229.972228 -191.348044 
L 230.481211 -194.169348 
L 231.1274 -196.990652 
L 231.889331 -199.811956 
L 232.743471 -202.63326 
L 233.665284 -205.454564 
L 234.630228 -208.275868 
L 235.614628 -211.097172 
L 236.596397 -213.918476 
L 237.555613 -216.73978 
L 238.474949 -219.561084 
L 239.339981 -222.382388 
L 240.139382 -225.203691 
L 240.865034 -228.024995 
L 241.512053 -230.846299 
L 242.078746 -233.667603 
L 242.566479 -236.488907 
L 242.97946 -239.310211 
L 243.32443 -242.131515 
L 243.610249 -244.952819 
L 243.847396 -247.774123 
L 244.047396 -250.595427 
L 244.222194 -253.416731 
L 244.383532 -256.238035 
L 244.542345 -259.059339 
L 244.708247 -261.880643 
L 244.889121 -264.701947 
L 245.09084 -267.523251 
L 245.317151 -270.344555 
L 245.569691 -273.165859 
L 245.84814 -275.987163 
L 246.150476 -278.808466 
L 246.473298 -281.62977 
L 246.81219 -284.451074 
L 247.16208 -287.272378 
L 247.517584 -290.093682 
L 247.873306 -292.914986 
L 248.224082 -295.73629 
L 248.565177 -298.557594 
L 248.892418 -301.378898 
L 249.202289 -304.200202 
L 249.491979 -307.021506 
L 249.759401 -309.84281 
L 250.003181 -312.664114 
L 250.222624 -315.485418 
L 250.417666 -318.306722 
L 250.588808 -321.128026 
L 250.737031 -323.94933 
L 250.863714 -326.770634 
L 250.97054 -329.591938 
L 251.059395 -332.413242 
L 251.13228 -335.234545 
L 251.634405 -335.234545 
L 251.634405 -335.234545 
L 251.707291 -332.413242 
L 251.796146 -329.591938 
L 251.902971 -326.770634 
L 252.029655 -323.94933 
L 252.177878 -321.128026 
L 252.349019 -318.306722 
L 252.544062 -315.485418 
L 252.763505 -312.664114 
L 253.007284 -309.84281 
L 253.274706 -307.021506 
L 253.564397 -304.200202 
L 253.874267 -301.378898 
L 254.201508 -298.557594 
L 254.542603 -295.73629 
L 254.89338 -292.914986 
L 255.249101 -290.093682 
L 255.604605 -287.272378 
L 255.954495 -284.451074 
L 256.293387 -281.62977 
L 256.61621 -278.808466 
L 256.918546 -275.987163 
L 257.196995 -273.165859 
L 257.449535 -270.344555 
L 257.675846 -267.523251 
L 257.877565 -264.701947 
L 258.058438 -261.880643 
L 258.224341 -259.059339 
L 258.383154 -256.238035 
L 258.544491 -253.416731 
L 258.71929 -250.595427 
L 258.91929 -247.774123 
L 259.156437 -244.952819 
L 259.442255 -242.131515 
L 259.787225 -239.310211 
L 260.200206 -236.488907 
L 260.687939 -233.667603 
L 261.254632 -230.846299 
L 261.901652 -228.024995 
L 262.627303 -225.203691 
L 263.426704 -222.382388 
L 264.291736 -219.561084 
L 265.211073 -216.73978 
L 266.170289 -213.918476 
L 267.152057 -211.097172 
L 268.136457 -208.275868 
L 269.101402 -205.454564 
L 270.023215 -202.63326 
L 270.877354 -199.811956 
L 271.639285 -196.990652 
L 272.285474 -194.169348 
L 272.794458 -191.348044 
L 273.147934 -188.52674 
L 273.331792 -185.705436 
L 273.336992 -182.884132 
L 273.160224 -180.062828 
L 272.80427 -177.241524 
L 272.278011 -174.42022 
L 271.596071 -171.598916 
L 270.778099 -168.777612 
L 269.847735 -165.956309 
L 268.831344 -163.135005 
L 267.756601 -160.313701 
L 266.651052 -157.492397 
L 265.540758 -154.671093 
L 264.449127 -151.849789 
L 263.396006 -149.028485 
L 262.397095 -146.207181 
L 261.463692 -143.385877 
L 260.602754 -140.564573 
L 259.817229 -137.743269 
L 259.106603 -134.921965 
L 258.467571 -132.100661 
L 257.894767 -129.279357 
L 257.381483 -126.458053 
L 256.920315 -123.636749 
L 256.503715 -120.815445 
L 256.124413 -117.994141 
L 255.775736 -115.172837 
L 255.451798 -112.351534 
L 255.147621 -109.53023 
L 254.859172 -106.708926 
L 254.583359 -103.887622 
L 254.317991 -101.066318 
L 254.061704 -98.245014 
L 253.813881 -95.42371 
L 253.57454 -92.602406 
L 253.344217 -89.781102 
L 253.12383 -86.959798 
L 252.914536 -84.138494 
L 252.717587 -81.31719 
L 252.534193 -78.495886 
L 252.365397 -75.674582 
L 252.21198 -72.853278 
L 252.074389 -70.031974 
L 251.952701 -67.21067 
L 251.846621 -64.389366 
L 251.755511 -61.568062 
L 251.678433 -58.746758 
L 251.61422 -55.925455 
z
" style="stroke: #3f3f3f; stroke-width: 1.25"/>
    </defs>
    <g clip-path="url(#pebb31db3c7)">
     <use xlink:href="#m921f615ecf" x="0" y="360" style="fill: #3274a1; stroke: #3f3f3f; stroke-width: 1.25"/>
    </g>
   </g>
   <g id="PolyCollection_4">
    <defs>
     <path id="mc7e6edb83e" d="M 311.7022 -88.502548 
L 310.63918 -88.502548 
L 310.474555 -90.453895 
L 310.269481 -92.405243 
L 310.017329 -94.35659 
L 309.711295 -96.307937 
L 309.344653 -98.259284 
L 308.911054 -100.210632 
L 308.404858 -102.161979 
L 307.821497 -104.113326 
L 307.157825 -106.064674 
L 306.412445 -108.016021 
L 305.585982 -109.967368 
L 304.681264 -111.918715 
L 303.70339 -113.870063 
L 302.659673 -115.82141 
L 301.559435 -117.772757 
L 300.413668 -119.724105 
L 299.234565 -121.675452 
L 298.034965 -123.626799 
L 296.827739 -125.578146 
L 295.625184 -127.529494 
L 294.438459 -129.480841 
L 293.277141 -131.432188 
L 292.148926 -133.383536 
L 291.059513 -135.334883 
L 290.012699 -137.28623 
L 289.010651 -139.237578 
L 288.054363 -141.188925 
L 287.144225 -143.140272 
L 286.280673 -145.091619 
L 285.464836 -147.042967 
L 284.699123 -148.994314 
L 283.987691 -150.945661 
L 283.336734 -152.897009 
L 282.754564 -154.848356 
L 282.251464 -156.799703 
L 281.839298 -158.75105 
L 281.530916 -160.702398 
L 281.339373 -162.653745 
L 281.277016 -164.605092 
L 281.354508 -166.55644 
L 281.579853 -168.507787 
L 281.957508 -170.459134 
L 282.48765 -172.410481 
L 283.165674 -174.361829 
L 283.981977 -176.313176 
L 284.922061 -178.264523 
L 285.966983 -180.215871 
L 287.094121 -182.167218 
L 288.278233 -184.118565 
L 289.49273 -186.069912 
L 290.71108 -188.02126 
L 291.908241 -189.972607 
L 293.062009 -191.923954 
L 294.154162 -193.875302 
L 295.171333 -195.826649 
L 296.105504 -197.777996 
L 296.954114 -199.729343 
L 297.719742 -201.680691 
L 298.409423 -203.632038 
L 299.033646 -205.583385 
L 299.605129 -207.534733 
L 300.1375 -209.48608 
L 300.643986 -211.437427 
L 301.136252 -213.388774 
L 301.623472 -215.340122 
L 302.111721 -217.291469 
L 302.603726 -219.242816 
L 303.098973 -221.194164 
L 303.59414 -223.145511 
L 304.083784 -225.096858 
L 304.561203 -227.048205 
L 305.019348 -228.999553 
L 305.451707 -230.9509 
L 305.853049 -232.902247 
L 306.219975 -234.853595 
L 306.551222 -236.804942 
L 306.84771 -238.756289 
L 307.112351 -240.707637 
L 307.349664 -242.658984 
L 307.56525 -244.610331 
L 307.765195 -246.561678 
L 307.955484 -248.513026 
L 308.141463 -250.464373 
L 308.327431 -252.41572 
L 308.516362 -254.367068 
L 308.709787 -256.318415 
L 308.907831 -258.269762 
L 309.109371 -260.221109 
L 309.312293 -262.172457 
L 309.513813 -264.123804 
L 309.710806 -266.075151 
L 309.900131 -268.026499 
L 310.078903 -269.977846 
L 310.244707 -271.929193 
L 310.395735 -273.88054 
L 310.530854 -275.831888 
L 310.649604 -277.783235 
L 310.752144 -279.734582 
L 310.839156 -281.68593 
L 311.502223 -281.68593 
L 311.502223 -281.68593 
L 311.589236 -279.734582 
L 311.691775 -277.783235 
L 311.810526 -275.831888 
L 311.945645 -273.88054 
L 312.096673 -271.929193 
L 312.262476 -269.977846 
L 312.441248 -268.026499 
L 312.630573 -266.075151 
L 312.827566 -264.123804 
L 313.029086 -262.172457 
L 313.232009 -260.221109 
L 313.433548 -258.269762 
L 313.631592 -256.318415 
L 313.825018 -254.367068 
L 314.013948 -252.41572 
L 314.199916 -250.464373 
L 314.385896 -248.513026 
L 314.576184 -246.561678 
L 314.77613 -244.610331 
L 314.991716 -242.658984 
L 315.229029 -240.707637 
L 315.49367 -238.756289 
L 315.790157 -236.804942 
L 316.121404 -234.853595 
L 316.488331 -232.902247 
L 316.889673 -230.9509 
L 317.322031 -228.999553 
L 317.780176 -227.048205 
L 318.257595 -225.096858 
L 318.74724 -223.145511 
L 319.242406 -221.194164 
L 319.737653 -219.242816 
L 320.229658 -217.291469 
L 320.717908 -215.340122 
L 321.205128 -213.388774 
L 321.697394 -211.437427 
L 322.20388 -209.48608 
L 322.73625 -207.534733 
L 323.307734 -205.583385 
L 323.931956 -203.632038 
L 324.621638 -201.680691 
L 325.387266 -199.729343 
L 326.235875 -197.777996 
L 327.170047 -195.826649 
L 328.187217 -193.875302 
L 329.279371 -191.923954 
L 330.433138 -189.972607 
L 331.6303 -188.02126 
L 332.84865 -186.069912 
L 334.063146 -184.118565 
L 335.247258 -182.167218 
L 336.374397 -180.215871 
L 337.419319 -178.264523 
L 338.359403 -176.313176 
L 339.175705 -174.361829 
L 339.853729 -172.410481 
L 340.383871 -170.459134 
L 340.761526 -168.507787 
L 340.986872 -166.55644 
L 341.064363 -164.605092 
L 341.002006 -162.653745 
L 340.810463 -160.702398 
L 340.502081 -158.75105 
L 340.089915 -156.799703 
L 339.586815 -154.848356 
L 339.004646 -152.897009 
L 338.353689 -150.945661 
L 337.642256 -148.994314 
L 336.876544 -147.042967 
L 336.060706 -145.091619 
L 335.197155 -143.140272 
L 334.287017 -141.188925 
L 333.330728 -139.237578 
L 332.32868 -137.28623 
L 331.281866 -135.334883 
L 330.192454 -133.383536 
L 329.064238 -131.432188 
L 327.90292 -129.480841 
L 326.716196 -127.529494 
L 325.51364 -125.578146 
L 324.306415 -123.626799 
L 323.106815 -121.675452 
L 321.927712 -119.724105 
L 320.781945 -117.772757 
L 319.681707 -115.82141 
L 318.63799 -113.870063 
L 317.660115 -111.918715 
L 316.755397 -109.967368 
L 315.928935 -108.016021 
L 315.183555 -106.064674 
L 314.519882 -104.113326 
L 313.936521 -102.161979 
L 313.430326 -100.210632 
L 312.996726 -98.259284 
L 312.630085 -96.307937 
L 312.324051 -94.35659 
L 312.071899 -92.405243 
L 311.866825 -90.453895 
L 311.7022 -88.502548 
z
" style="stroke: #3f3f3f; stroke-width: 1.25"/>
    </defs>
    <g clip-path="url(#pebb31db3c7)">
     <use xlink:href="#mc7e6edb83e" x="0" y="360" style="fill: #e1812c; stroke: #3f3f3f; stroke-width: 1.25"/>
    </g>
   </g>
   <g id="patch_3">
    <path d="M 131.808649 332.465161 
L 131.808649 332.465161 
L 131.808649 332.465161 
L 131.808649 332.465161 
z
" clip-path="url(#pebb31db3c7)" style="fill: #3274a1; stroke: #3f3f3f; stroke-width: 1.25; stroke-linejoin: miter"/>
   </g>
   <g id="patch_4">
    <path d="M 131.808649 332.465161 
L 131.808649 332.465161 
L 131.808649 332.465161 
L 131.808649 332.465161 
z
" clip-path="url(#pebb31db3c7)" style="fill: #e1812c; stroke: #3f3f3f; stroke-width: 1.25; stroke-linejoin: miter"/>
   </g>
   <g id="line2d_9">
    <path d="M 101.914975 247.568649 
L 101.914975 163.786156 
" clip-path="url(#pebb31db3c7)" style="fill: none; stroke: #3f3f3f; stroke-width: 1.875; stroke-linecap: round"/>
   </g>
   <g id="line2d_10">
    <path d="M 101.914975 208.217415 
L 101.914975 178.056708 
" clip-path="url(#pebb31db3c7)" style="fill: none; stroke: #3f3f3f; stroke-width: 5.625; stroke-linecap: round"/>
   </g>
   <g id="line2d_11">
    <path d="M 101.914975 191.789775 
" clip-path="url(#pebb31db3c7)" style="fill: none; stroke: #3f3f3f; stroke-width: 1.5; stroke-linecap: round"/>
    <defs>
     <path id="m4dfd6d496a" d="M 2.34375 0 
L -2.34375 -0 
" style="stroke: #ffffff; stroke-width: 1.125"/>
    </defs>
    <g clip-path="url(#pebb31db3c7)">
     <use xlink:href="#m4dfd6d496a" x="101.914975" y="191.789775" style="fill: #ffffff; stroke: #ffffff; stroke-width: 1.125"/>
    </g>
   </g>
   <g id="line2d_12">
    <path d="M 161.702322 246.303266 
L 161.702322 143.768262 
" clip-path="url(#pebb31db3c7)" style="fill: none; stroke: #3f3f3f; stroke-width: 1.875; stroke-linecap: round"/>
   </g>
   <g id="line2d_13">
    <path d="M 161.702322 212.375126 
L 161.702322 179.376729 
" clip-path="url(#pebb31db3c7)" style="fill: none; stroke: #3f3f3f; stroke-width: 5.625; stroke-linecap: round"/>
   </g>
   <g id="line2d_14">
    <path d="M 161.702322 195.780577 
" clip-path="url(#pebb31db3c7)" style="fill: none; stroke: #3f3f3f; stroke-width: 1.5; stroke-linecap: round"/>
    <g clip-path="url(#pebb31db3c7)">
     <use xlink:href="#m4dfd6d496a" x="161.702322" y="195.780577" style="fill: #ffffff; stroke: #ffffff; stroke-width: 1.125"/>
    </g>
   </g>
   <g id="line2d_15">
    <path d="M 251.383343 228.994818 
L 251.383343 95.522314 
" clip-path="url(#pebb31db3c7)" style="fill: none; stroke: #3f3f3f; stroke-width: 1.875; stroke-linecap: round"/>
   </g>
   <g id="line2d_16">
    <path d="M 251.383343 189.62885 
L 251.383343 146.824108 
" clip-path="url(#pebb31db3c7)" style="fill: none; stroke: #3f3f3f; stroke-width: 5.625; stroke-linecap: round"/>
   </g>
   <g id="line2d_17">
    <path d="M 251.383343 172.430615 
" clip-path="url(#pebb31db3c7)" style="fill: none; stroke: #3f3f3f; stroke-width: 1.5; stroke-linecap: round"/>
    <g clip-path="url(#pebb31db3c7)">
     <use xlink:href="#m4dfd6d496a" x="251.383343" y="172.430615" style="fill: #ffffff; stroke: #ffffff; stroke-width: 1.125"/>
    </g>
   </g>
   <g id="line2d_18">
    <path d="M 311.17069 238.835634 
L 311.17069 143.581446 
" clip-path="url(#pebb31db3c7)" style="fill: none; stroke: #3f3f3f; stroke-width: 1.875; stroke-linecap: round"/>
   </g>
   <g id="line2d_19">
    <path d="M 311.17069 208.527024 
L 311.17069 179.681661 
" clip-path="url(#pebb31db3c7)" style="fill: none; stroke: #3f3f3f; stroke-width: 5.625; stroke-linecap: round"/>
   </g>
   <g id="line2d_20">
    <path d="M 311.17069 190.992446 
" clip-path="url(#pebb31db3c7)" style="fill: none; stroke: #3f3f3f; stroke-width: 1.5; stroke-linecap: round"/>
    <g clip-path="url(#pebb31db3c7)">
     <use xlink:href="#m4dfd6d496a" x="311.17069" y="190.992446" style="fill: #ffffff; stroke: #ffffff; stroke-width: 1.125"/>
    </g>
   </g>
   <g id="patch_5">
    <path d="M 57.074465 318.04 
L 57.074465 10.8 
" style="fill: none; stroke: #cccccc; stroke-width: 0.8; stroke-linejoin: miter; stroke-linecap: square"/>
   </g>
   <g id="patch_6">
    <path d="M 57.074465 318.04 
L 356.0112 318.04 
" style="fill: none; stroke: #cccccc; stroke-width: 0.8; stroke-linejoin: miter; stroke-linecap: square"/>
   </g>
  </g>
  <g id="legend_1">
   <g id="text_13">
    <!-- time -->
    <g style="fill: #262626" transform="translate(365.045625 168.439844) scale(0.1 -0.1)">
     <use xlink:href="#ArialMT-74"/>
     <use xlink:href="#ArialMT-69" x="27.783203"/>
     <use xlink:href="#ArialMT-6d" x="50"/>
     <use xlink:href="#ArialMT-65" x="133.300781"/>
    </g>
   </g>
   <g id="patch_7">
    <path d="M 359.101875 182.585156 
L 379.101875 182.585156 
L 379.101875 175.585156 
L 359.101875 175.585156 
z
" style="fill: #3274a1; stroke: #3f3f3f; stroke-width: 1.25; stroke-linejoin: miter"/>
   </g>
   <g id="text_14">
    <!-- i -->
    <g style="fill: #262626" transform="translate(387.101875 182.585156) scale(0.1 -0.1)">
     <use xlink:href="#ArialMT-69"/>
    </g>
   </g>
   <g id="patch_8">
    <path d="M 359.101875 196.730469 
L 379.101875 196.730469 
L 379.101875 189.730469 
L 359.101875 189.730469 
z
" style="fill: #e1812c; stroke: #3f3f3f; stroke-width: 1.25; stroke-linejoin: miter"/>
   </g>
   <g id="text_15">
    <!-- f -->
    <g style="fill: #262626" transform="translate(387.101875 196.730469) scale(0.1 -0.1)">
     <use xlink:href="#ArialMT-66"/>
    </g>
   </g>
  </g>
 </g>
 <defs>
  <clipPath id="pebb31db3c7">
   <rect x="57.074465" y="10.8" width="298.936735" height="307.24"/>
  </clipPath>
 </defs>
</svg>
