<?xml version="1.0" encoding="utf-8" standalone="no"?>
<!DOCTYPE svg PUBLIC "-//W3C//DTD SVG 1.1//EN"
  "http://www.w3.org/Graphics/SVG/1.1/DTD/svg11.dtd">
<svg xmlns:xlink="http://www.w3.org/1999/xlink" width="778.95pt" height="360pt" viewBox="0 0 778.95 360" xmlns="http://www.w3.org/2000/svg" version="1.1">
 <metadata>
  <rdf:RDF xmlns:dc="http://purl.org/dc/elements/1.1/" xmlns:cc="http://creativecommons.org/ns#" xmlns:rdf="http://www.w3.org/1999/02/22-rdf-syntax-ns#">
   <cc:Work>
    <dc:type rdf:resource="http://purl.org/dc/dcmitype/StillImage"/>
    <dc:date>2024-09-10T22:04:43.084981</dc:date>
    <dc:format>image/svg+xml</dc:format>
    <dc:creator>
     <cc:Agent>
      <dc:title>Matplotlib v3.8.3, https://matplotlib.org/</dc:title>
     </cc:Agent>
    </dc:creator>
   </cc:Work>
  </rdf:RDF>
 </metadata>
 <defs>
  <style type="text/css">*{stroke-linejoin: round; stroke-linecap: butt}</style>
 </defs>
 <g id="figure_1">
  <g id="patch_1">
   <path d="M 0 360 
L 778.95 360 
L 778.95 0 
L 0 0 
z
" style="fill: #ffffff"/>
  </g>
  <g id="axes_1">
   <g id="patch_2">
    <path d="M 52.600763 318.04 
L 377.013563 318.04 
L 377.013563 24.72 
L 52.600763 24.72 
z
" style="fill: #ffffff"/>
   </g>
   <g id="matplotlib.axis_1">
    <g id="xtick_1">
     <g id="text_1">
      <!-- Jurilovca -->
      <g style="fill: #262626" transform="translate(113.975838 332.197812) scale(0.1 -0.1)">
       <defs>
        <path id="ArialMT-4a" d="M 184 1300 
L 731 1375 
Q 753 850 928 656 
Q 1103 463 1413 463 
Q 1641 463 1806 567 
Q 1972 672 2034 851 
Q 2097 1031 2097 1425 
L 2097 4581 
L 2703 4581 
L 2703 1459 
Q 2703 884 2564 568 
Q 2425 253 2123 87 
Q 1822 -78 1416 -78 
Q 813 -78 492 269 
Q 172 616 184 1300 
z
" transform="scale(0.015625)"/>
        <path id="ArialMT-75" d="M 2597 0 
L 2597 488 
Q 2209 -75 1544 -75 
Q 1250 -75 995 37 
Q 741 150 617 320 
Q 494 491 444 738 
Q 409 903 409 1263 
L 409 3319 
L 972 3319 
L 972 1478 
Q 972 1038 1006 884 
Q 1059 663 1231 536 
Q 1403 409 1656 409 
Q 1909 409 2131 539 
Q 2353 669 2445 892 
Q 2538 1116 2538 1541 
L 2538 3319 
L 3100 3319 
L 3100 0 
L 2597 0 
z
" transform="scale(0.015625)"/>
        <path id="ArialMT-72" d="M 416 0 
L 416 3319 
L 922 3319 
L 922 2816 
Q 1116 3169 1280 3281 
Q 1444 3394 1641 3394 
Q 1925 3394 2219 3213 
L 2025 2691 
Q 1819 2813 1613 2813 
Q 1428 2813 1281 2702 
Q 1134 2591 1072 2394 
Q 978 2094 978 1738 
L 978 0 
L 416 0 
z
" transform="scale(0.015625)"/>
        <path id="ArialMT-69" d="M 425 3934 
L 425 4581 
L 988 4581 
L 988 3934 
L 425 3934 
z
M 425 0 
L 425 3319 
L 988 3319 
L 988 0 
L 425 0 
z
" transform="scale(0.015625)"/>
        <path id="ArialMT-6c" d="M 409 0 
L 409 4581 
L 972 4581 
L 972 0 
L 409 0 
z
" transform="scale(0.015625)"/>
        <path id="ArialMT-6f" d="M 213 1659 
Q 213 2581 725 3025 
Q 1153 3394 1769 3394 
Q 2453 3394 2887 2945 
Q 3322 2497 3322 1706 
Q 3322 1066 3130 698 
Q 2938 331 2570 128 
Q 2203 -75 1769 -75 
Q 1072 -75 642 372 
Q 213 819 213 1659 
z
M 791 1659 
Q 791 1022 1069 705 
Q 1347 388 1769 388 
Q 2188 388 2466 706 
Q 2744 1025 2744 1678 
Q 2744 2294 2464 2611 
Q 2184 2928 1769 2928 
Q 1347 2928 1069 2612 
Q 791 2297 791 1659 
z
" transform="scale(0.015625)"/>
        <path id="ArialMT-76" d="M 1344 0 
L 81 3319 
L 675 3319 
L 1388 1331 
Q 1503 1009 1600 663 
Q 1675 925 1809 1294 
L 2547 3319 
L 3125 3319 
L 1869 0 
L 1344 0 
z
" transform="scale(0.015625)"/>
        <path id="ArialMT-63" d="M 2588 1216 
L 3141 1144 
Q 3050 572 2676 248 
Q 2303 -75 1759 -75 
Q 1078 -75 664 370 
Q 250 816 250 1647 
Q 250 2184 428 2587 
Q 606 2991 970 3192 
Q 1334 3394 1763 3394 
Q 2303 3394 2647 3120 
Q 2991 2847 3088 2344 
L 2541 2259 
Q 2463 2594 2264 2762 
Q 2066 2931 1784 2931 
Q 1359 2931 1093 2626 
Q 828 2322 828 1663 
Q 828 994 1084 691 
Q 1341 388 1753 388 
Q 2084 388 2306 591 
Q 2528 794 2588 1216 
z
" transform="scale(0.015625)"/>
        <path id="ArialMT-61" d="M 2588 409 
Q 2275 144 1986 34 
Q 1697 -75 1366 -75 
Q 819 -75 525 192 
Q 231 459 231 875 
Q 231 1119 342 1320 
Q 453 1522 633 1644 
Q 813 1766 1038 1828 
Q 1203 1872 1538 1913 
Q 2219 1994 2541 2106 
Q 2544 2222 2544 2253 
Q 2544 2597 2384 2738 
Q 2169 2928 1744 2928 
Q 1347 2928 1158 2789 
Q 969 2650 878 2297 
L 328 2372 
Q 403 2725 575 2942 
Q 747 3159 1072 3276 
Q 1397 3394 1825 3394 
Q 2250 3394 2515 3294 
Q 2781 3194 2906 3042 
Q 3031 2891 3081 2659 
Q 3109 2516 3109 2141 
L 3109 1391 
Q 3109 606 3145 398 
Q 3181 191 3288 0 
L 2700 0 
Q 2613 175 2588 409 
z
M 2541 1666 
Q 2234 1541 1622 1453 
Q 1275 1403 1131 1340 
Q 988 1278 909 1158 
Q 831 1038 831 891 
Q 831 666 1001 516 
Q 1172 366 1500 366 
Q 1825 366 2078 508 
Q 2331 650 2450 897 
Q 2541 1088 2541 1459 
L 2541 1666 
z
" transform="scale(0.015625)"/>
       </defs>
       <use xlink:href="#ArialMT-4a"/>
       <use xlink:href="#ArialMT-75" x="50"/>
       <use xlink:href="#ArialMT-72" x="105.615234"/>
       <use xlink:href="#ArialMT-69" x="138.916016"/>
       <use xlink:href="#ArialMT-6c" x="161.132812"/>
       <use xlink:href="#ArialMT-6f" x="183.349609"/>
       <use xlink:href="#ArialMT-76" x="238.964844"/>
       <use xlink:href="#ArialMT-63" x="288.964844"/>
       <use xlink:href="#ArialMT-61" x="338.964844"/>
      </g>
     </g>
    </g>
    <g id="xtick_2">
     <g id="text_2">
      <!-- Baia -->
      <g style="fill: #262626" transform="translate(285.903331 332.197812) scale(0.1 -0.1)">
       <defs>
        <path id="ArialMT-42" d="M 469 0 
L 469 4581 
L 2188 4581 
Q 2713 4581 3030 4442 
Q 3347 4303 3526 4014 
Q 3706 3725 3706 3409 
Q 3706 3116 3547 2856 
Q 3388 2597 3066 2438 
Q 3481 2316 3704 2022 
Q 3928 1728 3928 1328 
Q 3928 1006 3792 729 
Q 3656 453 3456 303 
Q 3256 153 2954 76 
Q 2653 0 2216 0 
L 469 0 
z
M 1075 2656 
L 2066 2656 
Q 2469 2656 2644 2709 
Q 2875 2778 2992 2937 
Q 3109 3097 3109 3338 
Q 3109 3566 3000 3739 
Q 2891 3913 2687 3977 
Q 2484 4041 1991 4041 
L 1075 4041 
L 1075 2656 
z
M 1075 541 
L 2216 541 
Q 2509 541 2628 563 
Q 2838 600 2978 687 
Q 3119 775 3209 942 
Q 3300 1109 3300 1328 
Q 3300 1584 3169 1773 
Q 3038 1963 2805 2039 
Q 2572 2116 2134 2116 
L 1075 2116 
L 1075 541 
z
" transform="scale(0.015625)"/>
       </defs>
       <use xlink:href="#ArialMT-42"/>
       <use xlink:href="#ArialMT-61" x="66.699219"/>
       <use xlink:href="#ArialMT-69" x="122.314453"/>
       <use xlink:href="#ArialMT-61" x="144.53125"/>
      </g>
     </g>
    </g>
    <g id="text_3">
     <!-- Location -->
     <g style="fill: #262626" transform="translate(195.904819 345.343125) scale(0.1 -0.1)">
      <defs>
       <path id="ArialMT-4c" d="M 469 0 
L 469 4581 
L 1075 4581 
L 1075 541 
L 3331 541 
L 3331 0 
L 469 0 
z
" transform="scale(0.015625)"/>
       <path id="ArialMT-74" d="M 1650 503 
L 1731 6 
Q 1494 -44 1306 -44 
Q 1000 -44 831 53 
Q 663 150 594 308 
Q 525 466 525 972 
L 525 2881 
L 113 2881 
L 113 3319 
L 525 3319 
L 525 4141 
L 1084 4478 
L 1084 3319 
L 1650 3319 
L 1650 2881 
L 1084 2881 
L 1084 941 
Q 1084 700 1114 631 
Q 1144 563 1211 522 
Q 1278 481 1403 481 
Q 1497 481 1650 503 
z
" transform="scale(0.015625)"/>
       <path id="ArialMT-6e" d="M 422 0 
L 422 3319 
L 928 3319 
L 928 2847 
Q 1294 3394 1984 3394 
Q 2284 3394 2536 3286 
Q 2788 3178 2913 3003 
Q 3038 2828 3088 2588 
Q 3119 2431 3119 2041 
L 3119 0 
L 2556 0 
L 2556 2019 
Q 2556 2363 2490 2533 
Q 2425 2703 2258 2804 
Q 2091 2906 1866 2906 
Q 1506 2906 1245 2678 
Q 984 2450 984 1813 
L 984 0 
L 422 0 
z
" transform="scale(0.015625)"/>
      </defs>
      <use xlink:href="#ArialMT-4c"/>
      <use xlink:href="#ArialMT-6f" x="55.615234"/>
      <use xlink:href="#ArialMT-63" x="111.230469"/>
      <use xlink:href="#ArialMT-61" x="161.230469"/>
      <use xlink:href="#ArialMT-74" x="216.845703"/>
      <use xlink:href="#ArialMT-69" x="244.628906"/>
      <use xlink:href="#ArialMT-6f" x="266.845703"/>
      <use xlink:href="#ArialMT-6e" x="322.460938"/>
     </g>
    </g>
   </g>
   <g id="matplotlib.axis_2">
    <g id="ytick_1">
     <g id="line2d_1">
      <path d="M 52.600763 313.083316 
L 377.013563 313.083316 
" clip-path="url(#pb3f74658e3)" style="fill: none; stroke: #cccccc; stroke-width: 0.8; stroke-linecap: round"/>
     </g>
     <g id="text_4">
      <!-- 0 -->
      <g style="fill: #262626" transform="translate(40.039825 316.662222) scale(0.1 -0.1)">
       <defs>
        <path id="ArialMT-30" d="M 266 2259 
Q 266 3072 433 3567 
Q 600 4063 929 4331 
Q 1259 4600 1759 4600 
Q 2128 4600 2406 4451 
Q 2684 4303 2865 4023 
Q 3047 3744 3150 3342 
Q 3253 2941 3253 2259 
Q 3253 1453 3087 958 
Q 2922 463 2592 192 
Q 2263 -78 1759 -78 
Q 1097 -78 719 397 
Q 266 969 266 2259 
z
M 844 2259 
Q 844 1131 1108 757 
Q 1372 384 1759 384 
Q 2147 384 2411 759 
Q 2675 1134 2675 2259 
Q 2675 3391 2411 3762 
Q 2147 4134 1753 4134 
Q 1366 4134 1134 3806 
Q 844 3388 844 2259 
z
" transform="scale(0.015625)"/>
       </defs>
       <use xlink:href="#ArialMT-30"/>
      </g>
     </g>
    </g>
    <g id="ytick_2">
     <g id="line2d_2">
      <path d="M 52.600763 272.571268 
L 377.013563 272.571268 
" clip-path="url(#pb3f74658e3)" style="fill: none; stroke: #cccccc; stroke-width: 0.8; stroke-linecap: round"/>
     </g>
     <g id="text_5">
      <!-- 20 -->
      <g style="fill: #262626" transform="translate(34.478887 276.150175) scale(0.1 -0.1)">
       <defs>
        <path id="ArialMT-32" d="M 3222 541 
L 3222 0 
L 194 0 
Q 188 203 259 391 
Q 375 700 629 1000 
Q 884 1300 1366 1694 
Q 2113 2306 2375 2664 
Q 2638 3022 2638 3341 
Q 2638 3675 2398 3904 
Q 2159 4134 1775 4134 
Q 1369 4134 1125 3890 
Q 881 3647 878 3216 
L 300 3275 
Q 359 3922 746 4261 
Q 1134 4600 1788 4600 
Q 2447 4600 2831 4234 
Q 3216 3869 3216 3328 
Q 3216 3053 3103 2787 
Q 2991 2522 2730 2228 
Q 2469 1934 1863 1422 
Q 1356 997 1212 845 
Q 1069 694 975 541 
L 3222 541 
z
" transform="scale(0.015625)"/>
       </defs>
       <use xlink:href="#ArialMT-32"/>
       <use xlink:href="#ArialMT-30" x="55.615234"/>
      </g>
     </g>
    </g>
    <g id="ytick_3">
     <g id="line2d_3">
      <path d="M 52.600763 232.059221 
L 377.013563 232.059221 
" clip-path="url(#pb3f74658e3)" style="fill: none; stroke: #cccccc; stroke-width: 0.8; stroke-linecap: round"/>
     </g>
     <g id="text_6">
      <!-- 40 -->
      <g style="fill: #262626" transform="translate(34.478887 235.638127) scale(0.1 -0.1)">
       <defs>
        <path id="ArialMT-34" d="M 2069 0 
L 2069 1097 
L 81 1097 
L 81 1613 
L 2172 4581 
L 2631 4581 
L 2631 1613 
L 3250 1613 
L 3250 1097 
L 2631 1097 
L 2631 0 
L 2069 0 
z
M 2069 1613 
L 2069 3678 
L 634 1613 
L 2069 1613 
z
" transform="scale(0.015625)"/>
       </defs>
       <use xlink:href="#ArialMT-34"/>
       <use xlink:href="#ArialMT-30" x="55.615234"/>
      </g>
     </g>
    </g>
    <g id="ytick_4">
     <g id="line2d_4">
      <path d="M 52.600763 191.547173 
L 377.013563 191.547173 
" clip-path="url(#pb3f74658e3)" style="fill: none; stroke: #cccccc; stroke-width: 0.8; stroke-linecap: round"/>
     </g>
     <g id="text_7">
      <!-- 60 -->
      <g style="fill: #262626" transform="translate(34.478887 195.12608) scale(0.1 -0.1)">
       <defs>
        <path id="ArialMT-36" d="M 3184 3459 
L 2625 3416 
Q 2550 3747 2413 3897 
Q 2184 4138 1850 4138 
Q 1581 4138 1378 3988 
Q 1113 3794 959 3422 
Q 806 3050 800 2363 
Q 1003 2672 1297 2822 
Q 1591 2972 1913 2972 
Q 2475 2972 2870 2558 
Q 3266 2144 3266 1488 
Q 3266 1056 3080 686 
Q 2894 316 2569 119 
Q 2244 -78 1831 -78 
Q 1128 -78 684 439 
Q 241 956 241 2144 
Q 241 3472 731 4075 
Q 1159 4600 1884 4600 
Q 2425 4600 2770 4297 
Q 3116 3994 3184 3459 
z
M 888 1484 
Q 888 1194 1011 928 
Q 1134 663 1356 523 
Q 1578 384 1822 384 
Q 2178 384 2434 671 
Q 2691 959 2691 1453 
Q 2691 1928 2437 2201 
Q 2184 2475 1800 2475 
Q 1419 2475 1153 2201 
Q 888 1928 888 1484 
z
" transform="scale(0.015625)"/>
       </defs>
       <use xlink:href="#ArialMT-36"/>
       <use xlink:href="#ArialMT-30" x="55.615234"/>
      </g>
     </g>
    </g>
    <g id="ytick_5">
     <g id="line2d_5">
      <path d="M 52.600763 151.035126 
L 377.013563 151.035126 
" clip-path="url(#pb3f74658e3)" style="fill: none; stroke: #cccccc; stroke-width: 0.8; stroke-linecap: round"/>
     </g>
     <g id="text_8">
      <!-- 80 -->
      <g style="fill: #262626" transform="translate(34.478887 154.614032) scale(0.1 -0.1)">
       <defs>
        <path id="ArialMT-38" d="M 1131 2484 
Q 781 2613 612 2850 
Q 444 3088 444 3419 
Q 444 3919 803 4259 
Q 1163 4600 1759 4600 
Q 2359 4600 2725 4251 
Q 3091 3903 3091 3403 
Q 3091 3084 2923 2848 
Q 2756 2613 2416 2484 
Q 2838 2347 3058 2040 
Q 3278 1734 3278 1309 
Q 3278 722 2862 322 
Q 2447 -78 1769 -78 
Q 1091 -78 675 323 
Q 259 725 259 1325 
Q 259 1772 486 2073 
Q 713 2375 1131 2484 
z
M 1019 3438 
Q 1019 3113 1228 2906 
Q 1438 2700 1772 2700 
Q 2097 2700 2305 2904 
Q 2513 3109 2513 3406 
Q 2513 3716 2298 3927 
Q 2084 4138 1766 4138 
Q 1444 4138 1231 3931 
Q 1019 3725 1019 3438 
z
M 838 1322 
Q 838 1081 952 856 
Q 1066 631 1291 507 
Q 1516 384 1775 384 
Q 2178 384 2440 643 
Q 2703 903 2703 1303 
Q 2703 1709 2433 1975 
Q 2163 2241 1756 2241 
Q 1359 2241 1098 1978 
Q 838 1716 838 1322 
z
" transform="scale(0.015625)"/>
       </defs>
       <use xlink:href="#ArialMT-38"/>
       <use xlink:href="#ArialMT-30" x="55.615234"/>
      </g>
     </g>
    </g>
    <g id="ytick_6">
     <g id="line2d_6">
      <path d="M 52.600763 110.523079 
L 377.013563 110.523079 
" clip-path="url(#pb3f74658e3)" style="fill: none; stroke: #cccccc; stroke-width: 0.8; stroke-linecap: round"/>
     </g>
     <g id="text_9">
      <!-- 100 -->
      <g style="fill: #262626" transform="translate(28.91795 114.101985) scale(0.1 -0.1)">
       <defs>
        <path id="ArialMT-31" d="M 2384 0 
L 1822 0 
L 1822 3584 
Q 1619 3391 1289 3197 
Q 959 3003 697 2906 
L 697 3450 
Q 1169 3672 1522 3987 
Q 1875 4303 2022 4600 
L 2384 4600 
L 2384 0 
z
" transform="scale(0.015625)"/>
       </defs>
       <use xlink:href="#ArialMT-31"/>
       <use xlink:href="#ArialMT-30" x="55.615234"/>
       <use xlink:href="#ArialMT-30" x="111.230469"/>
      </g>
     </g>
    </g>
    <g id="ytick_7">
     <g id="line2d_7">
      <path d="M 52.600763 70.011031 
L 377.013563 70.011031 
" clip-path="url(#pb3f74658e3)" style="fill: none; stroke: #cccccc; stroke-width: 0.8; stroke-linecap: round"/>
     </g>
     <g id="text_10">
      <!-- 120 -->
      <g style="fill: #262626" transform="translate(28.91795 73.589938) scale(0.1 -0.1)">
       <use xlink:href="#ArialMT-31"/>
       <use xlink:href="#ArialMT-32" x="55.615234"/>
       <use xlink:href="#ArialMT-30" x="111.230469"/>
      </g>
     </g>
    </g>
    <g id="ytick_8">
     <g id="line2d_8">
      <path d="M 52.600763 29.498984 
L 377.013563 29.498984 
" clip-path="url(#pb3f74658e3)" style="fill: none; stroke: #cccccc; stroke-width: 0.8; stroke-linecap: round"/>
     </g>
     <g id="text_11">
      <!-- 140 -->
      <g style="fill: #262626" transform="translate(28.91795 33.07789) scale(0.1 -0.1)">
       <use xlink:href="#ArialMT-31"/>
       <use xlink:href="#ArialMT-34" x="55.615234"/>
       <use xlink:href="#ArialMT-30" x="111.230469"/>
      </g>
     </g>
    </g>
    <g id="text_12">
     <!-- Carbohydrates energy % -->
     <g style="fill: #262626" transform="translate(22.813262 226.683906) rotate(-90) scale(0.1 -0.1)">
      <defs>
       <path id="ArialMT-43" d="M 3763 1606 
L 4369 1453 
Q 4178 706 3683 314 
Q 3188 -78 2472 -78 
Q 1731 -78 1267 223 
Q 803 525 561 1097 
Q 319 1669 319 2325 
Q 319 3041 592 3573 
Q 866 4106 1370 4382 
Q 1875 4659 2481 4659 
Q 3169 4659 3637 4309 
Q 4106 3959 4291 3325 
L 3694 3184 
Q 3534 3684 3231 3912 
Q 2928 4141 2469 4141 
Q 1941 4141 1586 3887 
Q 1231 3634 1087 3207 
Q 944 2781 944 2328 
Q 944 1744 1114 1308 
Q 1284 872 1643 656 
Q 2003 441 2422 441 
Q 2931 441 3284 734 
Q 3638 1028 3763 1606 
z
" transform="scale(0.015625)"/>
       <path id="ArialMT-62" d="M 941 0 
L 419 0 
L 419 4581 
L 981 4581 
L 981 2947 
Q 1338 3394 1891 3394 
Q 2197 3394 2470 3270 
Q 2744 3147 2920 2923 
Q 3097 2700 3197 2384 
Q 3297 2069 3297 1709 
Q 3297 856 2875 390 
Q 2453 -75 1863 -75 
Q 1275 -75 941 416 
L 941 0 
z
M 934 1684 
Q 934 1088 1097 822 
Q 1363 388 1816 388 
Q 2184 388 2453 708 
Q 2722 1028 2722 1663 
Q 2722 2313 2464 2622 
Q 2206 2931 1841 2931 
Q 1472 2931 1203 2611 
Q 934 2291 934 1684 
z
" transform="scale(0.015625)"/>
       <path id="ArialMT-68" d="M 422 0 
L 422 4581 
L 984 4581 
L 984 2938 
Q 1378 3394 1978 3394 
Q 2347 3394 2619 3248 
Q 2891 3103 3008 2847 
Q 3125 2591 3125 2103 
L 3125 0 
L 2563 0 
L 2563 2103 
Q 2563 2525 2380 2717 
Q 2197 2909 1863 2909 
Q 1613 2909 1392 2779 
Q 1172 2650 1078 2428 
Q 984 2206 984 1816 
L 984 0 
L 422 0 
z
" transform="scale(0.015625)"/>
       <path id="ArialMT-79" d="M 397 -1278 
L 334 -750 
Q 519 -800 656 -800 
Q 844 -800 956 -737 
Q 1069 -675 1141 -563 
Q 1194 -478 1313 -144 
Q 1328 -97 1363 -6 
L 103 3319 
L 709 3319 
L 1400 1397 
Q 1534 1031 1641 628 
Q 1738 1016 1872 1384 
L 2581 3319 
L 3144 3319 
L 1881 -56 
Q 1678 -603 1566 -809 
Q 1416 -1088 1222 -1217 
Q 1028 -1347 759 -1347 
Q 597 -1347 397 -1278 
z
" transform="scale(0.015625)"/>
       <path id="ArialMT-64" d="M 2575 0 
L 2575 419 
Q 2259 -75 1647 -75 
Q 1250 -75 917 144 
Q 584 363 401 755 
Q 219 1147 219 1656 
Q 219 2153 384 2558 
Q 550 2963 881 3178 
Q 1213 3394 1622 3394 
Q 1922 3394 2156 3267 
Q 2391 3141 2538 2938 
L 2538 4581 
L 3097 4581 
L 3097 0 
L 2575 0 
z
M 797 1656 
Q 797 1019 1065 703 
Q 1334 388 1700 388 
Q 2069 388 2326 689 
Q 2584 991 2584 1609 
Q 2584 2291 2321 2609 
Q 2059 2928 1675 2928 
Q 1300 2928 1048 2622 
Q 797 2316 797 1656 
z
" transform="scale(0.015625)"/>
       <path id="ArialMT-65" d="M 2694 1069 
L 3275 997 
Q 3138 488 2766 206 
Q 2394 -75 1816 -75 
Q 1088 -75 661 373 
Q 234 822 234 1631 
Q 234 2469 665 2931 
Q 1097 3394 1784 3394 
Q 2450 3394 2872 2941 
Q 3294 2488 3294 1666 
Q 3294 1616 3291 1516 
L 816 1516 
Q 847 969 1125 678 
Q 1403 388 1819 388 
Q 2128 388 2347 550 
Q 2566 713 2694 1069 
z
M 847 1978 
L 2700 1978 
Q 2663 2397 2488 2606 
Q 2219 2931 1791 2931 
Q 1403 2931 1139 2672 
Q 875 2413 847 1978 
z
" transform="scale(0.015625)"/>
       <path id="ArialMT-73" d="M 197 991 
L 753 1078 
Q 800 744 1014 566 
Q 1228 388 1613 388 
Q 2000 388 2187 545 
Q 2375 703 2375 916 
Q 2375 1106 2209 1216 
Q 2094 1291 1634 1406 
Q 1016 1563 777 1677 
Q 538 1791 414 1992 
Q 291 2194 291 2438 
Q 291 2659 392 2848 
Q 494 3038 669 3163 
Q 800 3259 1026 3326 
Q 1253 3394 1513 3394 
Q 1903 3394 2198 3281 
Q 2494 3169 2634 2976 
Q 2775 2784 2828 2463 
L 2278 2388 
Q 2241 2644 2061 2787 
Q 1881 2931 1553 2931 
Q 1166 2931 1000 2803 
Q 834 2675 834 2503 
Q 834 2394 903 2306 
Q 972 2216 1119 2156 
Q 1203 2125 1616 2013 
Q 2213 1853 2448 1751 
Q 2684 1650 2818 1456 
Q 2953 1263 2953 975 
Q 2953 694 2789 445 
Q 2625 197 2315 61 
Q 2006 -75 1616 -75 
Q 969 -75 630 194 
Q 291 463 197 991 
z
" transform="scale(0.015625)"/>
       <path id="ArialMT-20" transform="scale(0.015625)"/>
       <path id="ArialMT-67" d="M 319 -275 
L 866 -356 
Q 900 -609 1056 -725 
Q 1266 -881 1628 -881 
Q 2019 -881 2231 -725 
Q 2444 -569 2519 -288 
Q 2563 -116 2559 434 
Q 2191 0 1641 0 
Q 956 0 581 494 
Q 206 988 206 1678 
Q 206 2153 378 2554 
Q 550 2956 876 3175 
Q 1203 3394 1644 3394 
Q 2231 3394 2613 2919 
L 2613 3319 
L 3131 3319 
L 3131 450 
Q 3131 -325 2973 -648 
Q 2816 -972 2473 -1159 
Q 2131 -1347 1631 -1347 
Q 1038 -1347 672 -1080 
Q 306 -813 319 -275 
z
M 784 1719 
Q 784 1066 1043 766 
Q 1303 466 1694 466 
Q 2081 466 2343 764 
Q 2606 1063 2606 1700 
Q 2606 2309 2336 2618 
Q 2066 2928 1684 2928 
Q 1309 2928 1046 2623 
Q 784 2319 784 1719 
z
" transform="scale(0.015625)"/>
       <path id="ArialMT-25" d="M 372 3481 
Q 372 3972 619 4315 
Q 866 4659 1334 4659 
Q 1766 4659 2048 4351 
Q 2331 4044 2331 3447 
Q 2331 2866 2045 2552 
Q 1759 2238 1341 2238 
Q 925 2238 648 2547 
Q 372 2856 372 3481 
z
M 1350 4272 
Q 1141 4272 1002 4090 
Q 863 3909 863 3425 
Q 863 2984 1003 2804 
Q 1144 2625 1350 2625 
Q 1563 2625 1702 2806 
Q 1841 2988 1841 3469 
Q 1841 3913 1700 4092 
Q 1559 4272 1350 4272 
z
M 1353 -169 
L 3859 4659 
L 4316 4659 
L 1819 -169 
L 1353 -169 
z
M 3334 1075 
Q 3334 1569 3581 1911 
Q 3828 2253 4300 2253 
Q 4731 2253 5014 1945 
Q 5297 1638 5297 1041 
Q 5297 459 5011 145 
Q 4725 -169 4303 -169 
Q 3888 -169 3611 142 
Q 3334 453 3334 1075 
z
M 4316 1866 
Q 4103 1866 3964 1684 
Q 3825 1503 3825 1019 
Q 3825 581 3965 400 
Q 4106 219 4313 219 
Q 4528 219 4667 400 
Q 4806 581 4806 1063 
Q 4806 1506 4665 1686 
Q 4525 1866 4316 1866 
z
" transform="scale(0.015625)"/>
      </defs>
      <use xlink:href="#ArialMT-43"/>
      <use xlink:href="#ArialMT-61" x="72.216797"/>
      <use xlink:href="#ArialMT-72" x="127.832031"/>
      <use xlink:href="#ArialMT-62" x="161.132812"/>
      <use xlink:href="#ArialMT-6f" x="216.748047"/>
      <use xlink:href="#ArialMT-68" x="272.363281"/>
      <use xlink:href="#ArialMT-79" x="327.978516"/>
      <use xlink:href="#ArialMT-64" x="377.978516"/>
      <use xlink:href="#ArialMT-72" x="433.59375"/>
      <use xlink:href="#ArialMT-61" x="466.894531"/>
      <use xlink:href="#ArialMT-74" x="522.509766"/>
      <use xlink:href="#ArialMT-65" x="550.292969"/>
      <use xlink:href="#ArialMT-73" x="605.908203"/>
      <use xlink:href="#ArialMT-20" x="655.908203"/>
      <use xlink:href="#ArialMT-65" x="683.691406"/>
      <use xlink:href="#ArialMT-6e" x="739.306641"/>
      <use xlink:href="#ArialMT-65" x="794.921875"/>
      <use xlink:href="#ArialMT-72" x="850.537109"/>
      <use xlink:href="#ArialMT-67" x="883.837891"/>
      <use xlink:href="#ArialMT-79" x="939.453125"/>
      <use xlink:href="#ArialMT-20" x="989.453125"/>
      <use xlink:href="#ArialMT-25" x="1017.236328"/>
     </g>
    </g>
   </g>
   <g id="PolyCollection_1">
    <defs>
     <path id="m86bd8c38d9" d="M 101.42451 -123.845298 
L 101.100855 -123.845298 
L 101.075176 -125.617009 
L 101.046497 -127.38872 
L 101.014664 -129.16043 
L 100.979549 -130.932141 
L 100.94106 -132.703852 
L 100.899141 -134.475562 
L 100.853785 -136.247273 
L 100.805036 -138.018984 
L 100.752996 -139.790694 
L 100.69783 -141.562405 
L 100.639764 -143.334116 
L 100.579094 -145.105826 
L 100.516182 -146.877537 
L 100.451455 -148.649248 
L 100.3854 -150.420959 
L 100.31856 -152.192669 
L 100.251524 -153.96438 
L 100.184919 -155.736091 
L 100.119397 -157.507801 
L 100.05562 -159.279512 
L 99.994248 -161.051223 
L 99.935918 -162.822933 
L 99.881232 -164.594644 
L 99.830736 -166.366355 
L 99.784904 -168.138065 
L 99.744126 -169.909776 
L 99.708685 -171.681487 
L 99.678754 -173.453197 
L 99.654378 -175.224908 
L 99.635472 -176.996619 
L 99.621811 -178.76833 
L 99.613035 -180.54004 
L 99.608651 -182.311751 
L 99.608033 -184.083462 
L 99.610444 -185.855172 
L 99.615038 -187.626883 
L 99.620887 -189.398594 
L 99.626995 -191.170304 
L 99.632324 -192.942015 
L 99.635821 -194.713726 
L 99.636437 -196.485436 
L 99.633163 -198.257147 
L 99.625052 -200.028858 
L 99.611248 -201.800568 
L 99.591011 -203.572279 
L 99.563741 -205.34399 
L 99.528996 -207.115701 
L 99.486514 -208.887411 
L 99.436224 -210.659122 
L 99.378255 -212.430833 
L 99.312944 -214.202543 
L 99.240829 -215.974254 
L 99.162651 -217.745965 
L 99.07934 -219.517675 
L 98.991998 -221.289386 
L 98.901882 -223.061097 
L 98.810379 -224.832807 
L 98.718974 -226.604518 
L 98.629223 -228.376229 
L 98.542719 -230.147939 
L 98.461053 -231.91965 
L 98.385782 -233.691361 
L 98.318393 -235.463071 
L 98.260269 -237.234782 
L 98.212656 -239.006493 
L 98.176638 -240.778204 
L 98.153109 -242.549914 
L 98.142757 -244.321625 
L 98.146046 -246.093336 
L 98.163212 -247.865046 
L 98.194256 -249.636757 
L 98.238949 -251.408468 
L 98.296841 -253.180178 
L 98.367274 -254.951889 
L 98.449401 -256.7236 
L 98.542208 -258.49531 
L 98.644544 -260.267021 
L 98.755143 -262.038732 
L 98.872659 -263.810442 
L 98.995696 -265.582153 
L 99.122839 -267.353864 
L 99.252679 -269.125575 
L 99.383845 -270.897285 
L 99.51503 -272.668996 
L 99.645006 -274.440707 
L 99.772649 -276.212417 
L 99.89695 -277.984128 
L 100.017025 -279.755839 
L 100.132125 -281.527549 
L 100.241634 -283.29926 
L 100.345073 -285.070971 
L 100.442094 -286.842681 
L 100.532471 -288.614392 
L 100.616098 -290.386103 
L 100.692972 -292.157813 
L 100.763183 -293.929524 
L 100.826903 -295.701235 
L 100.884373 -297.472946 
L 100.935887 -299.244656 
L 101.589478 -299.244656 
L 101.589478 -299.244656 
L 101.640992 -297.472946 
L 101.698462 -295.701235 
L 101.762182 -293.929524 
L 101.832394 -292.157813 
L 101.909267 -290.386103 
L 101.992894 -288.614392 
L 102.083271 -286.842681 
L 102.180292 -285.070971 
L 102.283731 -283.29926 
L 102.39324 -281.527549 
L 102.50834 -279.755839 
L 102.628415 -277.984128 
L 102.752716 -276.212417 
L 102.880359 -274.440707 
L 103.010335 -272.668996 
L 103.14152 -270.897285 
L 103.272687 -269.125575 
L 103.402526 -267.353864 
L 103.529669 -265.582153 
L 103.652706 -263.810442 
L 103.770222 -262.038732 
L 103.880821 -260.267021 
L 103.983157 -258.49531 
L 104.075964 -256.7236 
L 104.158091 -254.951889 
L 104.228524 -253.180178 
L 104.286416 -251.408468 
L 104.331109 -249.636757 
L 104.362153 -247.865046 
L 104.379319 -246.093336 
L 104.382608 -244.321625 
L 104.372256 -242.549914 
L 104.348727 -240.778204 
L 104.312709 -239.006493 
L 104.265096 -237.234782 
L 104.206972 -235.463071 
L 104.139583 -233.691361 
L 104.064312 -231.91965 
L 103.982646 -230.147939 
L 103.896142 -228.376229 
L 103.806391 -226.604518 
L 103.714986 -224.832807 
L 103.623483 -223.061097 
L 103.533367 -221.289386 
L 103.446025 -219.517675 
L 103.362714 -217.745965 
L 103.284536 -215.974254 
L 103.212421 -214.202543 
L 103.14711 -212.430833 
L 103.089141 -210.659122 
L 103.038851 -208.887411 
L 102.996369 -207.115701 
L 102.961624 -205.34399 
L 102.934354 -203.572279 
L 102.914117 -201.800568 
L 102.900313 -200.028858 
L 102.892203 -198.257147 
L 102.888928 -196.485436 
L 102.889545 -194.713726 
L 102.893041 -192.942015 
L 102.89837 -191.170304 
L 102.904478 -189.398594 
L 102.910327 -187.626883 
L 102.914921 -185.855172 
L 102.917332 -184.083462 
L 102.916715 -182.311751 
L 102.91233 -180.54004 
L 102.903554 -178.76833 
L 102.889893 -176.996619 
L 102.870987 -175.224908 
L 102.846611 -173.453197 
L 102.81668 -171.681487 
L 102.78124 -169.909776 
L 102.740461 -168.138065 
L 102.69463 -166.366355 
L 102.644133 -164.594644 
L 102.589447 -162.822933 
L 102.531117 -161.051223 
L 102.469745 -159.279512 
L 102.405968 -157.507801 
L 102.340446 -155.736091 
L 102.273841 -153.96438 
L 102.206805 -152.192669 
L 102.139965 -150.420959 
L 102.07391 -148.649248 
L 102.009183 -146.877537 
L 101.946271 -145.105826 
L 101.885601 -143.334116 
L 101.827536 -141.562405 
L 101.772369 -139.790694 
L 101.720329 -138.018984 
L 101.67158 -136.247273 
L 101.626224 -134.475562 
L 101.584306 -132.703852 
L 101.545816 -130.932141 
L 101.510701 -129.16043 
L 101.478868 -127.38872 
L 101.450189 -125.617009 
L 101.42451 -123.845298 
z
" style="stroke: #3f3f3f; stroke-width: 1.25"/>
    </defs>
    <g clip-path="url(#pb3f74658e3)">
     <use xlink:href="#m86bd8c38d9" x="0" y="360" style="fill: #3274a1; stroke: #3f3f3f; stroke-width: 1.25"/>
    </g>
   </g>
   <g id="PolyCollection_2">
    <defs>
     <path id="md96a703b27" d="M 167.838912 -74.418126 
L 164.451573 -74.418126 
L 164.184352 -76.918421 
L 163.885405 -79.418715 
L 163.552848 -81.919009 
L 163.18501 -84.419304 
L 162.780494 -86.919598 
L 162.338248 -89.419893 
L 161.857627 -91.920187 
L 161.338456 -94.420481 
L 160.781097 -96.920776 
L 160.186501 -99.42107 
L 159.556254 -101.921365 
L 158.892617 -104.421659 
L 158.19855 -106.921953 
L 157.477716 -109.422248 
L 156.734482 -111.922542 
L 155.973883 -114.422837 
L 155.201583 -116.923131 
L 154.423809 -119.423426 
L 153.647261 -121.92372 
L 152.879014 -124.424014 
L 152.126392 -126.924309 
L 151.396832 -129.424603 
L 150.697736 -131.924898 
L 150.036311 -134.425192 
L 149.419408 -136.925486 
L 148.853353 -139.425781 
L 148.343796 -141.926075 
L 147.895552 -144.42637 
L 147.512466 -146.926664 
L 147.197299 -149.426958 
L 146.951624 -151.927253 
L 146.775762 -154.427547 
L 146.668737 -156.927842 
L 146.62827 -159.428136 
L 146.650799 -161.92843 
L 146.731539 -164.428725 
L 146.864568 -166.929019 
L 147.042949 -169.429314 
L 147.25888 -171.929608 
L 147.503867 -174.429903 
L 147.768921 -176.930197 
L 148.044767 -179.430491 
L 148.322071 -181.930786 
L 148.591664 -184.43108 
L 148.84477 -186.931375 
L 149.073225 -189.431669 
L 149.269685 -191.931963 
L 149.427815 -194.432258 
L 149.542449 -196.932552 
L 149.60973 -199.432847 
L 149.627213 -201.933141 
L 149.593931 -204.433435 
L 149.510428 -206.93373 
L 149.378751 -209.434024 
L 149.202406 -211.934319 
L 148.98627 -214.434613 
L 148.736477 -216.934908 
L 148.460264 -219.435202 
L 148.165793 -221.935496 
L 147.861949 -224.435791 
L 147.558119 -226.936085 
L 147.263957 -229.43638 
L 146.989149 -231.936674 
L 146.743175 -234.436968 
L 146.535077 -236.937263 
L 146.373247 -239.437557 
L 146.265224 -241.937852 
L 146.217528 -244.438146 
L 146.235516 -246.93844 
L 146.323267 -249.438735 
L 146.483513 -251.939029 
L 146.717595 -254.439324 
L 147.025461 -256.939618 
L 147.4057 -259.439912 
L 147.855607 -261.940207 
L 148.37128 -264.440501 
L 148.947742 -266.940796 
L 149.579085 -269.44109 
L 150.258633 -271.941385 
L 150.979117 -274.441679 
L 151.73285 -276.941973 
L 152.51191 -279.442268 
L 153.308316 -281.942562 
L 154.114191 -284.442857 
L 154.921918 -286.943151 
L 155.724275 -289.443445 
L 156.514552 -291.94374 
L 157.286649 -294.444034 
L 158.035144 -296.944329 
L 158.755353 -299.444623 
L 159.443351 -301.944917 
L 160.095986 -304.445212 
L 160.710865 -306.945506 
L 161.286331 -309.445801 
L 161.821417 -311.946095 
L 162.315796 -314.446389 
L 162.769715 -316.946684 
L 163.183931 -319.446978 
L 163.559634 -321.947273 
L 168.730851 -321.947273 
L 168.730851 -321.947273 
L 169.106554 -319.446978 
L 169.52077 -316.946684 
L 169.974689 -314.446389 
L 170.469068 -311.946095 
L 171.004154 -309.445801 
L 171.57962 -306.945506 
L 172.194499 -304.445212 
L 172.847134 -301.944917 
L 173.535132 -299.444623 
L 174.255341 -296.944329 
L 175.003837 -294.444034 
L 175.775933 -291.94374 
L 176.56621 -289.443445 
L 177.368567 -286.943151 
L 178.176294 -284.442857 
L 178.982169 -281.942562 
L 179.778575 -279.442268 
L 180.557635 -276.941973 
L 181.311368 -274.441679 
L 182.031852 -271.941385 
L 182.711401 -269.44109 
L 183.342743 -266.940796 
L 183.919205 -264.440501 
L 184.434878 -261.940207 
L 184.884785 -259.439912 
L 185.265025 -256.939618 
L 185.572891 -254.439324 
L 185.806972 -251.939029 
L 185.967218 -249.438735 
L 186.05497 -246.93844 
L 186.072957 -244.438146 
L 186.025262 -241.937852 
L 185.917239 -239.437557 
L 185.755408 -236.937263 
L 185.54731 -234.436968 
L 185.301336 -231.936674 
L 185.026528 -229.43638 
L 184.732366 -226.936085 
L 184.428536 -224.435791 
L 184.124692 -221.935496 
L 183.830222 -219.435202 
L 183.554008 -216.934908 
L 183.304215 -214.434613 
L 183.088079 -211.934319 
L 182.911734 -209.434024 
L 182.780057 -206.93373 
L 182.696554 -204.433435 
L 182.663272 -201.933141 
L 182.680755 -199.432847 
L 182.748036 -196.932552 
L 182.86267 -194.432258 
L 183.0208 -191.931963 
L 183.21726 -189.431669 
L 183.445716 -186.931375 
L 183.698821 -184.43108 
L 183.968414 -181.930786 
L 184.245718 -179.430491 
L 184.521564 -176.930197 
L 184.786618 -174.429903 
L 185.031605 -171.929608 
L 185.247536 -169.429314 
L 185.425917 -166.929019 
L 185.558946 -164.428725 
L 185.639686 -161.92843 
L 185.662215 -159.428136 
L 185.621748 -156.927842 
L 185.514724 -154.427547 
L 185.338861 -151.927253 
L 185.093186 -149.426958 
L 184.778019 -146.926664 
L 184.394933 -144.42637 
L 183.946689 -141.926075 
L 183.437132 -139.425781 
L 182.871078 -136.925486 
L 182.254174 -134.425192 
L 181.592749 -131.924898 
L 180.893653 -129.424603 
L 180.164093 -126.924309 
L 179.411471 -124.424014 
L 178.643224 -121.92372 
L 177.866676 -119.423426 
L 177.088902 -116.923131 
L 176.316602 -114.422837 
L 175.556003 -111.922542 
L 174.812769 -109.422248 
L 174.091936 -106.921953 
L 173.397868 -104.421659 
L 172.734231 -101.921365 
L 172.103984 -99.42107 
L 171.509388 -96.920776 
L 170.952029 -94.420481 
L 170.432858 -91.920187 
L 169.952237 -89.419893 
L 169.509991 -86.919598 
L 169.105476 -84.419304 
L 168.737637 -81.919009 
L 168.40508 -79.418715 
L 168.106133 -76.918421 
L 167.838912 -74.418126 
z
" style="stroke: #3f3f3f; stroke-width: 1.25"/>
    </defs>
    <g clip-path="url(#pb3f74658e3)">
     <use xlink:href="#md96a703b27" x="0" y="360" style="fill: #e1812c; stroke: #3f3f3f; stroke-width: 1.25"/>
    </g>
   </g>
   <g id="PolyCollection_3">
    <defs>
     <path id="ma5b034e79c" d="M 264.01792 -228.153493 
L 262.920245 -228.153493 
L 262.817868 -228.433606 
L 262.702277 -228.713718 
L 262.573045 -228.993831 
L 262.430006 -229.273944 
L 262.273308 -229.554056 
L 262.103458 -229.834169 
L 261.921358 -230.114282 
L 261.728334 -230.394394 
L 261.526144 -230.674507 
L 261.316984 -230.95462 
L 261.103459 -231.234732 
L 260.888548 -231.514845 
L 260.675549 -231.794958 
L 260.467995 -232.07507 
L 260.269568 -232.355183 
L 260.083993 -232.635296 
L 259.91492 -232.915408 
L 259.76581 -233.195521 
L 259.639813 -233.475634 
L 259.539659 -233.755746 
L 259.467557 -234.035859 
L 259.425112 -234.315972 
L 259.413262 -234.596084 
L 259.432241 -234.876197 
L 259.48156 -235.15631 
L 259.560025 -235.436422 
L 259.665769 -235.716535 
L 259.796312 -235.996648 
L 259.948634 -236.27676 
L 260.119269 -236.556873 
L 260.304396 -236.836986 
L 260.499936 -237.117098 
L 260.70165 -237.397211 
L 260.905215 -237.677324 
L 261.106293 -237.957436 
L 261.300579 -238.237549 
L 261.483825 -238.517662 
L 261.651844 -238.797774 
L 261.800485 -239.077887 
L 261.925597 -239.358 
L 262.022966 -239.638112 
L 262.088244 -239.918225 
L 262.116871 -240.198338 
L 262.104002 -240.47845 
L 262.044437 -240.758563 
L 261.932575 -241.038676 
L 261.762393 -241.318788 
L 261.527463 -241.598901 
L 261.221008 -241.879014 
L 260.836018 -242.159126 
L 260.365407 -242.439239 
L 259.802241 -242.719352 
L 259.140006 -242.999465 
L 258.372941 -243.279577 
L 257.496402 -243.55969 
L 256.507259 -243.839803 
L 255.404307 -244.119915 
L 254.188671 -244.400028 
L 252.864176 -244.680141 
L 251.437674 -244.960253 
L 249.919282 -245.240366 
L 248.322523 -245.520479 
L 246.664354 -245.800591 
L 244.965035 -246.080704 
L 243.247873 -246.360817 
L 241.538791 -246.640929 
L 239.865768 -246.921042 
L 238.258132 -247.201155 
L 236.745751 -247.481267 
L 235.358132 -247.76138 
L 234.123489 -248.041493 
L 233.067795 -248.321605 
L 232.213881 -248.601718 
L 231.580623 -248.881831 
L 231.182247 -249.161943 
L 231.027803 -249.442056 
L 231.120821 -249.722169 
L 231.459183 -250.002281 
L 232.035199 -250.282394 
L 232.835902 -250.562507 
L 233.843529 -250.842619 
L 235.036184 -251.122732 
L 236.388618 -251.402845 
L 237.873126 -251.682957 
L 239.460479 -251.96307 
L 241.120874 -252.243183 
L 242.824847 -252.523295 
L 244.544113 -252.803408 
L 246.252306 -253.083521 
L 247.925584 -253.363633 
L 249.543096 -253.643746 
L 251.087292 -253.923859 
L 252.544088 -254.203971 
L 253.902887 -254.484084 
L 255.156469 -254.764197 
L 256.300783 -255.044309 
L 257.334641 -255.324422 
L 258.259365 -255.604535 
L 259.078384 -255.884647 
L 267.859781 -255.884647 
L 267.859781 -255.884647 
L 268.6788 -255.604535 
L 269.603524 -255.324422 
L 270.637383 -255.044309 
L 271.781696 -254.764197 
L 273.035279 -254.484084 
L 274.394077 -254.203971 
L 275.850874 -253.923859 
L 277.39507 -253.643746 
L 279.012581 -253.363633 
L 280.685859 -253.083521 
L 282.394052 -252.803408 
L 284.113319 -252.523295 
L 285.817291 -252.243183 
L 287.477686 -251.96307 
L 289.065039 -251.682957 
L 290.549547 -251.402845 
L 291.901982 -251.122732 
L 293.094636 -250.842619 
L 294.102264 -250.562507 
L 294.902966 -250.282394 
L 295.478982 -250.002281 
L 295.817344 -249.722169 
L 295.910363 -249.442056 
L 295.755918 -249.161943 
L 295.357542 -248.881831 
L 294.724284 -248.601718 
L 293.87037 -248.321605 
L 292.814676 -248.041493 
L 291.580033 -247.76138 
L 290.192415 -247.481267 
L 288.680033 -247.201155 
L 287.072398 -246.921042 
L 285.399375 -246.640929 
L 283.690293 -246.360817 
L 281.97313 -246.080704 
L 280.273812 -245.800591 
L 278.615642 -245.520479 
L 277.018884 -245.240366 
L 275.500491 -244.960253 
L 274.073989 -244.680141 
L 272.749495 -244.400028 
L 271.533858 -244.119915 
L 270.430907 -243.839803 
L 269.441763 -243.55969 
L 268.565224 -243.279577 
L 267.798159 -242.999465 
L 267.135925 -242.719352 
L 266.572758 -242.439239 
L 266.102148 -242.159126 
L 265.717157 -241.879014 
L 265.410703 -241.598901 
L 265.175772 -241.318788 
L 265.00559 -241.038676 
L 264.893728 -240.758563 
L 264.834163 -240.47845 
L 264.821294 -240.198338 
L 264.849922 -239.918225 
L 264.915199 -239.638112 
L 265.012568 -239.358 
L 265.13768 -239.077887 
L 265.286322 -238.797774 
L 265.45434 -238.517662 
L 265.637586 -238.237549 
L 265.831872 -237.957436 
L 266.03295 -237.677324 
L 266.236515 -237.397211 
L 266.438229 -237.117098 
L 266.63377 -236.836986 
L 266.818896 -236.556873 
L 266.989531 -236.27676 
L 267.141854 -235.996648 
L 267.272396 -235.716535 
L 267.37814 -235.436422 
L 267.456605 -235.15631 
L 267.505925 -234.876197 
L 267.524903 -234.596084 
L 267.513054 -234.315972 
L 267.470609 -234.035859 
L 267.398507 -233.755746 
L 267.298353 -233.475634 
L 267.172356 -233.195521 
L 267.023245 -232.915408 
L 266.854173 -232.635296 
L 266.668597 -232.355183 
L 266.470171 -232.07507 
L 266.262617 -231.794958 
L 266.049617 -231.514845 
L 265.834707 -231.234732 
L 265.621182 -230.95462 
L 265.412021 -230.674507 
L 265.209832 -230.394394 
L 265.016807 -230.114282 
L 264.834707 -229.834169 
L 264.664857 -229.554056 
L 264.508159 -229.273944 
L 264.36512 -228.993831 
L 264.235888 -228.713718 
L 264.120297 -228.433606 
L 264.01792 -228.153493 
z
" style="stroke: #3f3f3f; stroke-width: 1.25"/>
    </defs>
    <g clip-path="url(#pb3f74658e3)">
     <use xlink:href="#ma5b034e79c" x="0" y="360" style="fill: #3274a1; stroke: #3f3f3f; stroke-width: 1.25"/>
    </g>
   </g>
   <g id="PolyCollection_4">
    <defs>
     <path id="m174d4188cc" d="M 329.051267 -55.292727 
L 327.652019 -55.292727 
L 327.523515 -57.867219 
L 327.378124 -60.44171 
L 327.215003 -63.016202 
L 327.033528 -65.590693 
L 326.833346 -68.165184 
L 326.614412 -70.739676 
L 326.377026 -73.314167 
L 326.121858 -75.888659 
L 325.849968 -78.46315 
L 325.562803 -81.037641 
L 325.262188 -83.612133 
L 324.950299 -86.186624 
L 324.62962 -88.761116 
L 324.302891 -91.335607 
L 323.973037 -93.910099 
L 323.643092 -96.48459 
L 323.31612 -99.059081 
L 322.995123 -101.633573 
L 322.682963 -104.208064 
L 322.382275 -106.782556 
L 322.095405 -109.357047 
L 321.824341 -111.931538 
L 321.57067 -114.50603 
L 321.335544 -117.080521 
L 321.119658 -119.655013 
L 320.923242 -122.229504 
L 320.746068 -124.803995 
L 320.587455 -127.378487 
L 320.446285 -129.952978 
L 320.32102 -132.52747 
L 320.209716 -135.101961 
L 320.11003 -137.676453 
L 320.019227 -140.250944 
L 319.934174 -142.825435 
L 319.851339 -145.399927 
L 319.766772 -147.974418 
L 319.676104 -150.54891 
L 319.574533 -153.123401 
L 319.456839 -155.697892 
L 319.317393 -158.272384 
L 319.150207 -160.846875 
L 318.948988 -163.421367 
L 318.707238 -165.995858 
L 318.418372 -168.57035 
L 318.075871 -171.144841 
L 317.673464 -173.719332 
L 317.205331 -176.293824 
L 316.666334 -178.868315 
L 316.052253 -181.442807 
L 315.360035 -184.017298 
L 314.588032 -186.591789 
L 313.736232 -189.166281 
L 312.806457 -191.740772 
L 311.802531 -194.315264 
L 310.730405 -196.889755 
L 309.598219 -199.464247 
L 308.416316 -202.038738 
L 307.197174 -204.613229 
L 305.955282 -207.187721 
L 304.706927 -209.762212 
L 303.469926 -212.336704 
L 302.263281 -214.911195 
L 301.106774 -217.485686 
L 300.02052 -220.060178 
L 299.024469 -222.634669 
L 298.137895 -225.209161 
L 297.378874 -227.783652 
L 296.763775 -230.358144 
L 296.306779 -232.932635 
L 296.019449 -235.507126 
L 295.910363 -238.081618 
L 295.984832 -240.656109 
L 296.244713 -243.230601 
L 296.68832 -245.805092 
L 297.310449 -248.379583 
L 298.102514 -250.954075 
L 299.052779 -253.528566 
L 300.146698 -256.103058 
L 301.367328 -258.677549 
L 302.695817 -261.252041 
L 304.111933 -263.826532 
L 305.594625 -266.401023 
L 307.122584 -268.975515 
L 308.674787 -271.550006 
L 310.231009 -274.124498 
L 311.772279 -276.698989 
L 313.281266 -279.27348 
L 314.742587 -281.847972 
L 316.143036 -284.422463 
L 317.471722 -286.996955 
L 318.720119 -289.571446 
L 319.882051 -292.145938 
L 320.953588 -294.720429 
L 321.932899 -297.29492 
L 322.820048 -299.869412 
L 323.616757 -302.443903 
L 324.326153 -305.018395 
L 324.952494 -307.592886 
L 325.500914 -310.167377 
L 331.202372 -310.167377 
L 331.202372 -310.167377 
L 331.750791 -307.592886 
L 332.377133 -305.018395 
L 333.086528 -302.443903 
L 333.883238 -299.869412 
L 334.770387 -297.29492 
L 335.749698 -294.720429 
L 336.821235 -292.145938 
L 337.983166 -289.571446 
L 339.231564 -286.996955 
L 340.560249 -284.422463 
L 341.960699 -281.847972 
L 343.42202 -279.27348 
L 344.931006 -276.698989 
L 346.472277 -274.124498 
L 348.028499 -271.550006 
L 349.580702 -268.975515 
L 351.10866 -266.401023 
L 352.591353 -263.826532 
L 354.007469 -261.252041 
L 355.335958 -258.677549 
L 356.556588 -256.103058 
L 357.650506 -253.528566 
L 358.600771 -250.954075 
L 359.392836 -248.379583 
L 360.014966 -245.805092 
L 360.458573 -243.230601 
L 360.718453 -240.656109 
L 360.792923 -238.081618 
L 360.683836 -235.507126 
L 360.396506 -232.932635 
L 359.93951 -230.358144 
L 359.324412 -227.783652 
L 358.565391 -225.209161 
L 357.678817 -222.634669 
L 356.682765 -220.060178 
L 355.596511 -217.485686 
L 354.440005 -214.911195 
L 353.233359 -212.336704 
L 351.996359 -209.762212 
L 350.748004 -207.187721 
L 349.506111 -204.613229 
L 348.28697 -202.038738 
L 347.105066 -199.464247 
L 345.972881 -196.889755 
L 344.900754 -194.315264 
L 343.896828 -191.740772 
L 342.967053 -189.166281 
L 342.115253 -186.591789 
L 341.343251 -184.017298 
L 340.651033 -181.442807 
L 340.036951 -178.868315 
L 339.497954 -176.293824 
L 339.029821 -173.719332 
L 338.627414 -171.144841 
L 338.284914 -168.57035 
L 337.996048 -165.995858 
L 337.754298 -163.421367 
L 337.553079 -160.846875 
L 337.385892 -158.272384 
L 337.246447 -155.697892 
L 337.128752 -153.123401 
L 337.027182 -150.54891 
L 336.936513 -147.974418 
L 336.851947 -145.399927 
L 336.769111 -142.825435 
L 336.684059 -140.250944 
L 336.593256 -137.676453 
L 336.49357 -135.101961 
L 336.382265 -132.52747 
L 336.257001 -129.952978 
L 336.11583 -127.378487 
L 335.957217 -124.803995 
L 335.780043 -122.229504 
L 335.583628 -119.655013 
L 335.367742 -117.080521 
L 335.132615 -114.50603 
L 334.878945 -111.931538 
L 334.607881 -109.357047 
L 334.32101 -106.782556 
L 334.020323 -104.208064 
L 333.708162 -101.633573 
L 333.387165 -99.059081 
L 333.060193 -96.48459 
L 332.730249 -93.910099 
L 332.400394 -91.335607 
L 332.073665 -88.761116 
L 331.752986 -86.186624 
L 331.441097 -83.612133 
L 331.140482 -81.037641 
L 330.853317 -78.46315 
L 330.581427 -75.888659 
L 330.32626 -73.314167 
L 330.088873 -70.739676 
L 329.869939 -68.165184 
L 329.669757 -65.590693 
L 329.488283 -63.016202 
L 329.325161 -60.44171 
L 329.17977 -57.867219 
L 329.051267 -55.292727 
z
" style="stroke: #3f3f3f; stroke-width: 1.25"/>
    </defs>
    <g clip-path="url(#pb3f74658e3)">
     <use xlink:href="#m174d4188cc" x="0" y="360" style="fill: #e1812c; stroke: #3f3f3f; stroke-width: 1.25"/>
    </g>
   </g>
   <g id="line2d_9">
    <path d="M 101.262683 186.386967 
L 101.262683 110.523079 
" clip-path="url(#pb3f74658e3)" style="fill: none; stroke: #3f3f3f; stroke-width: 1.875; stroke-linecap: round"/>
   </g>
   <g id="line2d_10">
    <path d="M 101.262683 164.672184 
L 101.262683 111.510522 
" clip-path="url(#pb3f74658e3)" style="fill: none; stroke: #3f3f3f; stroke-width: 5.625; stroke-linecap: round"/>
   </g>
   <g id="line2d_11">
    <path d="M 101.262683 118.143149 
" clip-path="url(#pb3f74658e3)" style="fill: none; stroke: #3f3f3f; stroke-width: 1.5; stroke-linecap: round"/>
    <defs>
     <path id="mc185b95280" d="M 2.34375 0 
L -2.34375 -0 
" style="stroke: #ffffff; stroke-width: 1.125"/>
    </defs>
    <g clip-path="url(#pb3f74658e3)">
     <use xlink:href="#mc185b95280" x="101.262683" y="118.143149" style="fill: #ffffff; stroke: #ffffff; stroke-width: 1.125"/>
    </g>
   </g>
   <g id="line2d_12">
    <path d="M 166.145243 213.111522 
L 166.145243 110.523079 
" clip-path="url(#pb3f74658e3)" style="fill: none; stroke: #3f3f3f; stroke-width: 1.875; stroke-linecap: round"/>
   </g>
   <g id="line2d_13">
    <path d="M 166.145243 202.567734 
L 166.145243 110.523079 
" clip-path="url(#pb3f74658e3)" style="fill: none; stroke: #3f3f3f; stroke-width: 5.625; stroke-linecap: round"/>
   </g>
   <g id="line2d_14">
    <path d="M 166.145243 153.417612 
" clip-path="url(#pb3f74658e3)" style="fill: none; stroke: #3f3f3f; stroke-width: 1.5; stroke-linecap: round"/>
    <g clip-path="url(#pb3f74658e3)">
     <use xlink:href="#mc185b95280" x="166.145243" y="153.417612" style="fill: #ffffff; stroke: #ffffff; stroke-width: 1.125"/>
    </g>
   </g>
   <g id="line2d_15">
    <path d="M 263.469083 110.523079 
L 263.469083 110.523079 
" clip-path="url(#pb3f74658e3)" style="fill: none; stroke: #3f3f3f; stroke-width: 1.875; stroke-linecap: round"/>
   </g>
   <g id="line2d_16">
    <path d="M 263.469083 110.523079 
L 263.469083 110.523079 
" clip-path="url(#pb3f74658e3)" style="fill: none; stroke: #3f3f3f; stroke-width: 5.625; stroke-linecap: round"/>
   </g>
   <g id="line2d_17">
    <path d="M 263.469083 110.523079 
" clip-path="url(#pb3f74658e3)" style="fill: none; stroke: #3f3f3f; stroke-width: 1.5; stroke-linecap: round"/>
    <g clip-path="url(#pb3f74658e3)">
     <use xlink:href="#mc185b95280" x="263.469083" y="110.523079" style="fill: #ffffff; stroke: #ffffff; stroke-width: 1.125"/>
    </g>
   </g>
   <g id="line2d_18">
    <path d="M 328.351643 200.34221 
L 328.351643 110.523079 
" clip-path="url(#pb3f74658e3)" style="fill: none; stroke: #3f3f3f; stroke-width: 1.875; stroke-linecap: round"/>
   </g>
   <g id="line2d_19">
    <path d="M 328.351643 149.401309 
L 328.351643 110.523079 
" clip-path="url(#pb3f74658e3)" style="fill: none; stroke: #3f3f3f; stroke-width: 5.625; stroke-linecap: round"/>
   </g>
   <g id="line2d_20">
    <path d="M 328.351643 123.440636 
" clip-path="url(#pb3f74658e3)" style="fill: none; stroke: #3f3f3f; stroke-width: 1.5; stroke-linecap: round"/>
    <g clip-path="url(#pb3f74658e3)">
     <use xlink:href="#mc185b95280" x="328.351643" y="123.440636" style="fill: #ffffff; stroke: #ffffff; stroke-width: 1.125"/>
    </g>
   </g>
   <g id="patch_3">
    <path d="M 52.600763 318.04 
L 52.600763 24.72 
" style="fill: none; stroke: #cccccc; stroke-width: 0.8; stroke-linejoin: miter; stroke-linecap: square"/>
   </g>
   <g id="patch_4">
    <path d="M 52.600763 318.04 
L 377.013563 318.04 
" style="fill: none; stroke: #cccccc; stroke-width: 0.8; stroke-linejoin: miter; stroke-linecap: square"/>
   </g>
   <g id="text_13">
    <!-- sex = f -->
    <g style="fill: #262626" transform="translate(199.939194 18.72) scale(0.1 -0.1)">
     <defs>
      <path id="ArialMT-78" d="M 47 0 
L 1259 1725 
L 138 3319 
L 841 3319 
L 1350 2541 
Q 1494 2319 1581 2169 
Q 1719 2375 1834 2534 
L 2394 3319 
L 3066 3319 
L 1919 1756 
L 3153 0 
L 2463 0 
L 1781 1031 
L 1600 1309 
L 728 0 
L 47 0 
z
" transform="scale(0.015625)"/>
      <path id="ArialMT-3d" d="M 3381 2694 
L 356 2694 
L 356 3219 
L 3381 3219 
L 3381 2694 
z
M 3381 1303 
L 356 1303 
L 356 1828 
L 3381 1828 
L 3381 1303 
z
" transform="scale(0.015625)"/>
      <path id="ArialMT-66" d="M 556 0 
L 556 2881 
L 59 2881 
L 59 3319 
L 556 3319 
L 556 3672 
Q 556 4006 616 4169 
Q 697 4388 901 4523 
Q 1106 4659 1475 4659 
Q 1713 4659 2000 4603 
L 1916 4113 
Q 1741 4144 1584 4144 
Q 1328 4144 1222 4034 
Q 1116 3925 1116 3625 
L 1116 3319 
L 1763 3319 
L 1763 2881 
L 1116 2881 
L 1116 0 
L 556 0 
z
" transform="scale(0.015625)"/>
     </defs>
     <use xlink:href="#ArialMT-73"/>
     <use xlink:href="#ArialMT-65" x="50"/>
     <use xlink:href="#ArialMT-78" x="105.615234"/>
     <use xlink:href="#ArialMT-20" x="155.615234"/>
     <use xlink:href="#ArialMT-3d" x="183.398438"/>
     <use xlink:href="#ArialMT-20" x="241.796875"/>
     <use xlink:href="#ArialMT-66" x="269.580078"/>
    </g>
   </g>
  </g>
  <g id="axes_2">
   <g id="patch_5">
    <path d="M 387.7977 318.04 
L 712.2105 318.04 
L 712.2105 24.72 
L 387.7977 24.72 
z
" style="fill: #ffffff"/>
   </g>
   <g id="matplotlib.axis_3">
    <g id="xtick_3">
     <g id="text_14">
      <!-- Baia -->
      <g style="fill: #262626" transform="translate(458.893869 332.197812) scale(0.1 -0.1)">
       <use xlink:href="#ArialMT-42"/>
       <use xlink:href="#ArialMT-61" x="66.699219"/>
       <use xlink:href="#ArialMT-69" x="122.314453"/>
       <use xlink:href="#ArialMT-61" x="144.53125"/>
      </g>
     </g>
    </g>
    <g id="xtick_4">
     <g id="text_15">
      <!-- Jurilovca -->
      <g style="fill: #262626" transform="translate(611.379175 332.197812) scale(0.1 -0.1)">
       <use xlink:href="#ArialMT-4a"/>
       <use xlink:href="#ArialMT-75" x="50"/>
       <use xlink:href="#ArialMT-72" x="105.615234"/>
       <use xlink:href="#ArialMT-69" x="138.916016"/>
       <use xlink:href="#ArialMT-6c" x="161.132812"/>
       <use xlink:href="#ArialMT-6f" x="183.349609"/>
       <use xlink:href="#ArialMT-76" x="238.964844"/>
       <use xlink:href="#ArialMT-63" x="288.964844"/>
       <use xlink:href="#ArialMT-61" x="338.964844"/>
      </g>
     </g>
    </g>
    <g id="text_16">
     <!-- Location -->
     <g style="fill: #262626" transform="translate(531.101756 345.343125) scale(0.1 -0.1)">
      <use xlink:href="#ArialMT-4c"/>
      <use xlink:href="#ArialMT-6f" x="55.615234"/>
      <use xlink:href="#ArialMT-63" x="111.230469"/>
      <use xlink:href="#ArialMT-61" x="161.230469"/>
      <use xlink:href="#ArialMT-74" x="216.845703"/>
      <use xlink:href="#ArialMT-69" x="244.628906"/>
      <use xlink:href="#ArialMT-6f" x="266.845703"/>
      <use xlink:href="#ArialMT-6e" x="322.460938"/>
     </g>
    </g>
   </g>
   <g id="matplotlib.axis_4">
    <g id="ytick_9">
     <g id="line2d_21">
      <path d="M 387.7977 313.083316 
L 712.2105 313.083316 
" clip-path="url(#p12cdf156b1)" style="fill: none; stroke: #cccccc; stroke-width: 0.8; stroke-linecap: round"/>
     </g>
    </g>
    <g id="ytick_10">
     <g id="line2d_22">
      <path d="M 387.7977 272.571268 
L 712.2105 272.571268 
" clip-path="url(#p12cdf156b1)" style="fill: none; stroke: #cccccc; stroke-width: 0.8; stroke-linecap: round"/>
     </g>
    </g>
    <g id="ytick_11">
     <g id="line2d_23">
      <path d="M 387.7977 232.059221 
L 712.2105 232.059221 
" clip-path="url(#p12cdf156b1)" style="fill: none; stroke: #cccccc; stroke-width: 0.8; stroke-linecap: round"/>
     </g>
    </g>
    <g id="ytick_12">
     <g id="line2d_24">
      <path d="M 387.7977 191.547173 
L 712.2105 191.547173 
" clip-path="url(#p12cdf156b1)" style="fill: none; stroke: #cccccc; stroke-width: 0.8; stroke-linecap: round"/>
     </g>
    </g>
    <g id="ytick_13">
     <g id="line2d_25">
      <path d="M 387.7977 151.035126 
L 712.2105 151.035126 
" clip-path="url(#p12cdf156b1)" style="fill: none; stroke: #cccccc; stroke-width: 0.8; stroke-linecap: round"/>
     </g>
    </g>
    <g id="ytick_14">
     <g id="line2d_26">
      <path d="M 387.7977 110.523079 
L 712.2105 110.523079 
" clip-path="url(#p12cdf156b1)" style="fill: none; stroke: #cccccc; stroke-width: 0.8; stroke-linecap: round"/>
     </g>
    </g>
    <g id="ytick_15">
     <g id="line2d_27">
      <path d="M 387.7977 70.011031 
L 712.2105 70.011031 
" clip-path="url(#p12cdf156b1)" style="fill: none; stroke: #cccccc; stroke-width: 0.8; stroke-linecap: round"/>
     </g>
    </g>
    <g id="ytick_16">
     <g id="line2d_28">
      <path d="M 387.7977 29.498984 
L 712.2105 29.498984 
" clip-path="url(#p12cdf156b1)" style="fill: none; stroke: #cccccc; stroke-width: 0.8; stroke-linecap: round"/>
     </g>
    </g>
   </g>
   <g id="PolyCollection_5">
    <defs>
     <path id="m2e9273e4cc" d="M 436.929847 -117.751757 
L 435.989393 -117.751757 
L 435.890591 -119.452432 
L 435.776474 -121.153107 
L 435.645923 -122.853782 
L 435.498002 -124.554457 
L 435.332021 -126.255132 
L 435.147598 -127.955807 
L 434.944716 -129.656482 
L 434.72377 -131.357157 
L 434.485613 -133.057832 
L 434.23158 -134.758507 
L 433.9635 -136.459182 
L 433.683687 -138.159857 
L 433.394912 -139.860532 
L 433.100352 -141.561207 
L 432.803515 -143.261882 
L 432.508153 -144.962557 
L 432.21814 -146.663232 
L 431.937357 -148.363907 
L 431.669549 -150.064582 
L 431.418186 -151.765257 
L 431.186323 -153.465932 
L 430.976473 -155.166607 
L 430.790484 -156.867282 
L 430.629451 -158.567957 
L 430.49364 -160.268632 
L 430.382458 -161.969307 
L 430.294448 -163.669982 
L 430.227324 -165.370657 
L 430.178041 -167.071332 
L 430.142909 -168.772007 
L 430.117719 -170.472682 
L 430.097913 -172.173357 
L 430.078756 -173.874032 
L 430.055524 -175.574707 
L 430.023675 -177.275382 
L 429.979017 -178.976057 
L 429.917842 -180.676732 
L 429.837023 -182.377407 
L 429.734066 -184.078082 
L 429.607109 -185.778757 
L 429.454874 -187.479432 
L 429.276557 -189.180107 
L 429.071677 -190.880782 
L 428.839884 -192.581457 
L 428.580746 -194.282132 
L 428.293523 -195.982807 
L 427.976951 -197.683482 
L 427.629062 -199.384157 
L 427.247039 -201.084832 
L 426.827154 -202.785507 
L 426.364771 -204.486182 
L 425.854452 -206.186857 
L 425.290155 -207.887532 
L 424.66553 -209.588207 
L 423.974298 -211.288882 
L 423.210714 -212.989557 
L 422.370075 -214.690232 
L 421.449262 -216.390907 
L 420.447273 -218.091582 
L 419.365732 -219.792257 
L 418.209313 -221.492933 
L 416.986078 -223.193608 
L 415.707671 -224.894283 
L 414.389363 -226.594958 
L 413.049918 -228.295633 
L 411.711284 -229.996308 
L 410.398091 -231.696983 
L 409.136997 -233.397658 
L 407.955868 -235.098333 
L 406.882857 -236.799008 
L 405.945402 -238.499683 
L 405.169198 -240.200358 
L 404.577191 -241.901033 
L 404.188646 -243.601708 
L 404.01834 -245.302383 
L 404.07592 -247.003058 
L 404.365468 -248.703733 
L 404.885287 -250.404408 
L 405.627927 -252.105083 
L 406.580455 -253.805758 
L 407.724943 -255.506433 
L 409.039148 -257.207108 
L 410.497358 -258.907783 
L 412.071349 -260.608458 
L 413.731402 -262.309133 
L 415.44733 -264.009808 
L 417.189475 -265.710483 
L 418.929609 -267.411158 
L 420.641725 -269.111833 
L 422.30267 -270.812508 
L 423.892616 -272.513183 
L 425.395357 -274.213858 
L 426.79843 -275.914533 
L 428.093084 -277.615208 
L 429.2741 -279.315883 
L 430.339511 -281.016558 
L 431.290216 -282.717233 
L 432.129555 -284.417908 
L 432.862839 -286.118583 
L 440.056401 -286.118583 
L 440.056401 -286.118583 
L 440.789685 -284.417908 
L 441.629024 -282.717233 
L 442.579729 -281.016558 
L 443.645139 -279.315883 
L 444.826156 -277.615208 
L 446.120809 -275.914533 
L 447.523882 -274.213858 
L 449.026623 -272.513183 
L 450.61657 -270.812508 
L 452.277515 -269.111833 
L 453.98963 -267.411158 
L 455.729765 -265.710483 
L 457.471909 -264.009808 
L 459.187838 -262.309133 
L 460.84789 -260.608458 
L 462.421882 -258.907783 
L 463.880092 -257.207108 
L 465.194297 -255.506433 
L 466.338784 -253.805758 
L 467.291313 -252.105083 
L 468.033953 -250.404408 
L 468.553771 -248.703733 
L 468.843319 -247.003058 
L 468.9009 -245.302383 
L 468.730593 -243.601708 
L 468.342048 -241.901033 
L 467.750041 -240.200358 
L 466.973837 -238.499683 
L 466.036383 -236.799008 
L 464.963372 -235.098333 
L 463.782243 -233.397658 
L 462.521148 -231.696983 
L 461.207956 -229.996308 
L 459.869321 -228.295633 
L 458.529876 -226.594958 
L 457.211568 -224.894283 
L 455.933161 -223.193608 
L 454.709926 -221.492933 
L 453.553508 -219.792257 
L 452.471966 -218.091582 
L 451.469978 -216.390907 
L 450.549164 -214.690232 
L 449.708526 -212.989557 
L 448.944942 -211.288882 
L 448.25371 -209.588207 
L 447.629084 -207.887532 
L 447.064787 -206.186857 
L 446.554469 -204.486182 
L 446.092085 -202.785507 
L 445.6722 -201.084832 
L 445.290178 -199.384157 
L 444.942288 -197.683482 
L 444.625717 -195.982807 
L 444.338493 -194.282132 
L 444.079356 -192.581457 
L 443.847563 -190.880782 
L 443.642682 -189.180107 
L 443.464365 -187.479432 
L 443.312131 -185.778757 
L 443.185174 -184.078082 
L 443.082216 -182.377407 
L 443.001397 -180.676732 
L 442.940222 -178.976057 
L 442.895565 -177.275382 
L 442.863716 -175.574707 
L 442.840483 -173.874032 
L 442.821327 -172.173357 
L 442.801521 -170.472682 
L 442.776331 -168.772007 
L 442.741198 -167.071332 
L 442.691916 -165.370657 
L 442.624791 -163.669982 
L 442.536781 -161.969307 
L 442.4256 -160.268632 
L 442.289789 -158.567957 
L 442.128755 -156.867282 
L 441.942767 -155.166607 
L 441.732916 -153.465932 
L 441.501054 -151.765257 
L 441.24969 -150.064582 
L 440.981882 -148.363907 
L 440.701099 -146.663232 
L 440.411087 -144.962557 
L 440.115724 -143.261882 
L 439.818888 -141.561207 
L 439.524328 -139.860532 
L 439.235553 -138.159857 
L 438.95574 -136.459182 
L 438.68766 -134.758507 
L 438.433627 -133.057832 
L 438.19547 -131.357157 
L 437.974524 -129.656482 
L 437.771641 -127.955807 
L 437.587219 -126.255132 
L 437.421238 -124.554457 
L 437.273316 -122.853782 
L 437.142765 -121.153107 
L 437.028649 -119.452432 
L 436.929847 -117.751757 
z
" style="stroke: #3f3f3f; stroke-width: 1.25"/>
    </defs>
    <g clip-path="url(#p12cdf156b1)">
     <use xlink:href="#m2e9273e4cc" x="0" y="360" style="fill: #3274a1; stroke: #3f3f3f; stroke-width: 1.25"/>
    </g>
   </g>
   <g id="PolyCollection_6">
    <defs>
     <path id="mef33c61c85" d="M 501.945938 -148.656698 
L 500.738421 -148.656698 
L 500.597562 -149.926362 
L 500.432595 -151.196025 
L 500.241606 -152.465689 
L 500.023043 -153.735353 
L 499.77584 -155.005017 
L 499.499538 -156.274681 
L 499.194394 -157.544345 
L 498.861474 -158.814009 
L 498.502707 -160.083673 
L 498.120915 -161.353337 
L 497.719788 -162.623001 
L 497.303815 -163.892665 
L 496.878159 -165.162329 
L 496.448486 -166.431992 
L 496.020737 -167.701656 
L 495.600871 -168.97132 
L 495.194563 -170.240984 
L 494.8069 -171.510648 
L 494.442066 -172.780312 
L 494.103045 -174.049976 
L 493.791359 -175.31964 
L 493.50686 -176.589304 
L 493.247584 -177.858968 
L 493.009682 -179.128632 
L 492.787453 -180.398296 
L 492.573453 -181.66796 
L 492.358712 -182.937623 
L 492.133029 -184.207287 
L 491.885347 -185.476951 
L 491.604188 -186.746615 
L 491.278127 -188.016279 
L 490.896288 -189.285943 
L 490.448829 -190.555607 
L 489.927399 -191.825271 
L 489.325542 -193.094935 
L 488.639027 -194.364599 
L 487.866093 -195.634263 
L 487.007593 -196.903927 
L 486.067044 -198.17359 
L 485.050566 -199.443254 
L 483.966742 -200.712918 
L 482.826386 -201.982582 
L 481.642252 -203.252246 
L 480.428686 -204.52191 
L 479.201249 -205.791574 
L 477.976317 -207.061238 
L 476.770678 -208.330902 
L 475.601132 -209.600566 
L 474.484108 -210.87023 
L 473.435295 -212.139894 
L 472.469308 -213.409557 
L 471.59937 -214.679221 
L 470.837038 -215.948885 
L 470.191962 -217.218549 
L 469.671686 -218.488213 
L 469.281505 -219.757877 
L 469.024376 -221.027541 
L 468.9009 -222.297205 
L 468.909377 -223.566869 
L 469.04594 -224.836533 
L 469.304759 -226.106197 
L 469.678331 -227.375861 
L 470.157825 -228.645524 
L 470.733469 -229.915188 
L 471.394975 -231.184852 
L 472.131954 -232.454516 
L 472.93431 -233.72418 
L 473.792582 -234.993844 
L 474.698211 -236.263508 
L 475.643718 -237.533172 
L 476.622777 -238.802836 
L 477.630184 -240.0725 
L 478.66173 -241.342164 
L 479.713993 -242.611828 
L 480.784071 -243.881491 
L 481.869279 -245.151155 
L 482.966847 -246.420819 
L 484.073652 -247.690483 
L 485.185987 -248.960147 
L 486.299422 -250.229811 
L 487.408739 -251.499475 
L 488.507964 -252.769139 
L 489.590485 -254.038803 
L 490.649245 -255.308467 
L 491.67699 -256.578131 
L 492.666558 -257.847795 
L 493.611169 -259.117459 
L 494.504711 -260.387122 
L 495.341986 -261.656786 
L 496.118905 -262.92645 
L 496.832621 -264.196114 
L 497.481592 -265.465778 
L 498.065577 -266.735442 
L 498.58557 -268.005106 
L 499.043675 -269.27477 
L 499.44295 -270.544434 
L 499.787214 -271.814098 
L 500.080845 -273.083762 
L 500.328583 -274.353426 
L 502.355776 -274.353426 
L 502.355776 -274.353426 
L 502.603515 -273.083762 
L 502.897146 -271.814098 
L 503.241409 -270.544434 
L 503.640684 -269.27477 
L 504.09879 -268.005106 
L 504.618782 -266.735442 
L 505.202768 -265.465778 
L 505.851738 -264.196114 
L 506.565454 -262.92645 
L 507.342373 -261.656786 
L 508.179649 -260.387122 
L 509.073191 -259.117459 
L 510.017802 -257.847795 
L 511.00737 -256.578131 
L 512.035115 -255.308467 
L 513.093875 -254.038803 
L 514.176396 -252.769139 
L 515.275621 -251.499475 
L 516.384938 -250.229811 
L 517.498373 -248.960147 
L 518.610708 -247.690483 
L 519.717512 -246.420819 
L 520.815081 -245.151155 
L 521.900288 -243.881491 
L 522.970366 -242.611828 
L 524.02263 -241.342164 
L 525.054176 -240.0725 
L 526.061583 -238.802836 
L 527.040642 -237.533172 
L 527.986149 -236.263508 
L 528.891778 -234.993844 
L 529.75005 -233.72418 
L 530.552406 -232.454516 
L 531.289385 -231.184852 
L 531.950891 -229.915188 
L 532.526535 -228.645524 
L 533.006028 -227.375861 
L 533.379601 -226.106197 
L 533.63842 -224.836533 
L 533.774982 -223.566869 
L 533.78346 -222.297205 
L 533.659984 -221.027541 
L 533.402855 -219.757877 
L 533.012673 -218.488213 
L 532.492397 -217.218549 
L 531.847321 -215.948885 
L 531.08499 -214.679221 
L 530.215052 -213.409557 
L 529.249064 -212.139894 
L 528.200252 -210.87023 
L 527.083227 -209.600566 
L 525.913682 -208.330902 
L 524.708043 -207.061238 
L 523.483111 -205.791574 
L 522.255674 -204.52191 
L 521.042108 -203.252246 
L 519.857974 -201.982582 
L 518.717618 -200.712918 
L 517.633794 -199.443254 
L 516.617316 -198.17359 
L 515.676766 -196.903927 
L 514.818267 -195.634263 
L 514.045333 -194.364599 
L 513.358818 -193.094935 
L 512.756961 -191.825271 
L 512.235531 -190.555607 
L 511.788072 -189.285943 
L 511.406233 -188.016279 
L 511.080172 -186.746615 
L 510.799012 -185.476951 
L 510.55133 -184.207287 
L 510.325648 -182.937623 
L 510.110907 -181.66796 
L 509.896907 -180.398296 
L 509.674678 -179.128632 
L 509.436776 -177.858968 
L 509.177499 -176.589304 
L 508.893001 -175.31964 
L 508.581315 -174.049976 
L 508.242294 -172.780312 
L 507.877459 -171.510648 
L 507.489797 -170.240984 
L 507.083489 -168.97132 
L 506.663622 -167.701656 
L 506.235874 -166.431992 
L 505.8062 -165.162329 
L 505.380545 -163.892665 
L 504.964571 -162.623001 
L 504.563445 -161.353337 
L 504.181653 -160.083673 
L 503.822886 -158.814009 
L 503.489965 -157.544345 
L 503.184822 -156.274681 
L 502.90852 -155.005017 
L 502.661317 -153.735353 
L 502.442754 -152.465689 
L 502.251765 -151.196025 
L 502.086798 -149.926362 
L 501.945938 -148.656698 
z
" style="stroke: #3f3f3f; stroke-width: 1.25"/>
    </defs>
    <g clip-path="url(#p12cdf156b1)">
     <use xlink:href="#mef33c61c85" x="0" y="360" style="fill: #e1812c; stroke: #3f3f3f; stroke-width: 1.25"/>
    </g>
   </g>
   <g id="PolyCollection_7">
    <defs>
     <path id="m94ab83072f" d="M 599.195552 -91.118674 
L 598.136488 -91.118674 
L 598.038286 -93.210803 
L 597.927112 -95.302932 
L 597.802339 -97.39506 
L 597.66352 -99.487189 
L 597.510428 -101.579318 
L 597.343082 -103.671446 
L 597.161782 -105.763575 
L 596.967123 -107.855704 
L 596.760005 -109.947832 
L 596.541632 -112.039961 
L 596.313499 -114.13209 
L 596.077362 -116.224218 
L 595.8352 -118.316347 
L 595.589164 -120.408476 
L 595.341515 -122.500604 
L 595.094554 -124.592733 
L 594.850552 -126.684862 
L 594.61167 -128.77699 
L 594.37989 -130.869119 
L 594.156944 -132.961248 
L 593.944259 -135.053376 
L 593.742903 -137.145505 
L 593.553555 -139.237634 
L 593.376481 -141.329762 
L 593.211527 -143.421891 
L 593.058121 -145.51402 
L 592.915295 -147.606149 
L 592.781706 -149.698277 
L 592.655669 -151.790406 
L 592.535194 -153.882535 
L 592.418021 -155.974663 
L 592.301657 -158.066792 
L 592.183407 -160.158921 
L 592.060409 -162.251049 
L 591.929655 -164.343178 
L 591.788019 -166.435307 
L 591.632285 -168.527435 
L 591.459169 -170.619564 
L 591.265356 -172.711693 
L 591.047534 -174.803821 
L 590.802447 -176.89595 
L 590.526951 -178.988079 
L 590.218086 -181.080207 
L 589.873157 -183.172336 
L 589.489821 -185.264465 
L 589.06619 -187.356593 
L 588.600928 -189.448722 
L 588.093354 -191.540851 
L 587.543538 -193.632979 
L 586.952389 -195.725108 
L 586.321726 -197.817237 
L 585.65434 -199.909365 
L 584.954029 -202.001494 
L 584.225611 -204.093623 
L 583.474918 -206.185751 
L 582.708755 -208.27788 
L 581.934843 -210.370009 
L 581.161731 -212.462137 
L 580.398687 -214.554266 
L 579.655559 -216.646395 
L 578.942623 -218.738524 
L 578.270403 -220.830652 
L 577.649481 -222.922781 
L 577.090285 -225.01491 
L 576.602868 -227.107038 
L 576.196687 -229.199167 
L 575.880369 -231.291296 
L 575.661486 -233.383424 
L 575.546348 -235.475553 
L 575.5398 -237.567682 
L 575.645057 -239.65981 
L 575.86357 -241.751939 
L 576.194929 -243.844068 
L 576.636817 -245.936196 
L 577.185015 -248.028325 
L 577.833464 -250.120454 
L 578.574377 -252.212582 
L 579.39841 -254.304711 
L 580.294882 -256.39684 
L 581.252031 -258.488968 
L 582.257309 -260.581097 
L 583.297696 -262.673226 
L 584.360024 -264.765354 
L 585.4313 -266.857483 
L 586.49901 -268.949612 
L 587.5514 -271.04174 
L 588.577722 -273.133869 
L 589.568428 -275.225998 
L 590.515327 -277.318126 
L 591.411676 -279.410255 
L 592.252229 -281.502384 
L 593.033232 -283.594513 
L 593.752369 -285.686641 
L 594.408669 -287.77877 
L 595.00239 -289.870899 
L 595.534862 -291.963027 
L 596.008325 -294.055156 
L 596.425761 -296.147285 
L 596.790716 -298.239413 
L 600.541323 -298.239413 
L 600.541323 -298.239413 
L 600.906279 -296.147285 
L 601.323715 -294.055156 
L 601.797178 -291.963027 
L 602.32965 -289.870899 
L 602.92337 -287.77877 
L 603.579671 -285.686641 
L 604.298807 -283.594513 
L 605.07981 -281.502384 
L 605.920364 -279.410255 
L 606.816713 -277.318126 
L 607.763612 -275.225998 
L 608.754318 -273.133869 
L 609.78064 -271.04174 
L 610.83303 -268.949612 
L 611.90074 -266.857483 
L 612.972015 -264.765354 
L 614.034344 -262.673226 
L 615.074731 -260.581097 
L 616.080008 -258.488968 
L 617.037157 -256.39684 
L 617.933629 -254.304711 
L 618.757663 -252.212582 
L 619.498576 -250.120454 
L 620.147024 -248.028325 
L 620.695223 -245.936196 
L 621.137111 -243.844068 
L 621.46847 -241.751939 
L 621.686983 -239.65981 
L 621.79224 -237.567682 
L 621.785692 -235.475553 
L 621.670553 -233.383424 
L 621.451671 -231.291296 
L 621.135352 -229.199167 
L 620.729172 -227.107038 
L 620.241755 -225.01491 
L 619.682559 -222.922781 
L 619.061637 -220.830652 
L 618.389417 -218.738524 
L 617.676481 -216.646395 
L 616.933353 -214.554266 
L 616.170309 -212.462137 
L 615.397197 -210.370009 
L 614.623285 -208.27788 
L 613.857122 -206.185751 
L 613.106428 -204.093623 
L 612.378011 -202.001494 
L 611.6777 -199.909365 
L 611.010314 -197.817237 
L 610.379651 -195.725108 
L 609.788501 -193.632979 
L 609.238686 -191.540851 
L 608.731112 -189.448722 
L 608.26585 -187.356593 
L 607.842219 -185.264465 
L 607.458883 -183.172336 
L 607.113953 -181.080207 
L 606.805089 -178.988079 
L 606.529593 -176.89595 
L 606.284506 -174.803821 
L 606.066684 -172.711693 
L 605.872871 -170.619564 
L 605.699755 -168.527435 
L 605.544021 -166.435307 
L 605.402385 -164.343178 
L 605.271631 -162.251049 
L 605.148632 -160.158921 
L 605.030383 -158.066792 
L 604.914019 -155.974663 
L 604.796846 -153.882535 
L 604.676371 -151.790406 
L 604.550334 -149.698277 
L 604.416745 -147.606149 
L 604.273919 -145.51402 
L 604.120513 -143.421891 
L 603.955559 -141.329762 
L 603.778485 -139.237634 
L 603.589137 -137.145505 
L 603.387781 -135.053376 
L 603.175095 -132.961248 
L 602.95215 -130.869119 
L 602.72037 -128.77699 
L 602.481488 -126.684862 
L 602.237486 -124.592733 
L 601.990525 -122.500604 
L 601.742876 -120.408476 
L 601.49684 -118.316347 
L 601.254678 -116.224218 
L 601.018541 -114.13209 
L 600.790408 -112.039961 
L 600.572035 -109.947832 
L 600.364917 -107.855704 
L 600.170257 -105.763575 
L 599.988958 -103.671446 
L 599.821612 -101.579318 
L 599.66852 -99.487189 
L 599.529701 -97.39506 
L 599.404928 -95.302932 
L 599.293754 -93.210803 
L 599.195552 -91.118674 
z
" style="stroke: #3f3f3f; stroke-width: 1.25"/>
    </defs>
    <g clip-path="url(#p12cdf156b1)">
     <use xlink:href="#m94ab83072f" x="0" y="360" style="fill: #3274a1; stroke: #3f3f3f; stroke-width: 1.25"/>
    </g>
   </g>
   <g id="PolyCollection_8">
    <defs>
     <path id="m3cf71b0d36" d="M 663.973495 -78.164681 
L 663.123665 -78.164681 
L 663.04456 -80.419229 
L 662.955152 -82.673777 
L 662.85504 -84.928326 
L 662.743998 -87.182874 
L 662.622013 -89.437422 
L 662.48931 -91.691971 
L 662.346377 -93.946519 
L 662.193981 -96.201068 
L 662.033169 -98.455616 
L 661.865264 -100.710164 
L 661.691846 -102.964713 
L 661.514718 -105.219261 
L 661.33586 -107.473809 
L 661.157373 -109.728358 
L 660.981414 -111.982906 
L 660.810114 -114.237454 
L 660.645509 -116.492003 
L 660.489457 -118.746551 
L 660.343564 -121.001099 
L 660.209121 -123.255648 
L 660.087047 -125.510196 
L 659.977853 -127.764744 
L 659.881622 -130.019293 
L 659.798004 -132.273841 
L 659.726234 -134.52839 
L 659.665171 -136.782938 
L 659.613342 -139.037486 
L 659.569005 -141.292035 
L 659.530218 -143.546583 
L 659.494907 -145.801131 
L 659.460932 -148.05568 
L 659.426144 -150.310228 
L 659.388426 -152.564776 
L 659.345719 -154.819325 
L 659.29603 -157.073873 
L 659.237418 -159.328421 
L 659.16796 -161.58297 
L 659.085711 -163.837518 
L 658.98864 -166.092067 
L 658.874575 -168.346615 
L 658.74114 -170.601163 
L 658.585715 -172.855712 
L 658.4054 -175.11026 
L 658.197018 -177.364808 
L 657.957139 -179.619357 
L 657.682148 -181.873905 
L 657.368342 -184.128453 
L 657.012073 -186.383002 
L 656.609916 -188.63755 
L 656.158874 -190.892098 
L 655.656595 -193.146647 
L 655.101606 -195.401195 
L 654.49354 -197.655743 
L 653.833351 -199.910292 
L 653.123502 -202.16484 
L 652.368106 -204.419389 
L 651.573025 -206.673937 
L 650.745894 -208.928485 
L 649.896086 -211.183034 
L 649.034598 -213.437582 
L 648.173865 -215.69213 
L 647.327499 -217.946679 
L 646.509969 -220.201227 
L 645.736224 -222.455775 
L 645.021272 -224.710324 
L 644.37974 -226.964872 
L 643.825422 -229.21942 
L 643.37084 -231.473969 
L 643.026836 -233.728517 
L 642.80221 -235.983065 
L 642.70342 -238.237614 
L 642.734363 -240.492162 
L 642.896239 -242.746711 
L 643.187506 -245.001259 
L 643.603934 -247.255807 
L 644.138741 -249.510356 
L 644.782823 -251.764904 
L 645.525052 -254.019452 
L 646.352632 -256.274001 
L 647.251502 -258.528549 
L 648.206768 -260.783097 
L 649.203135 -263.037646 
L 650.225339 -265.292194 
L 651.258549 -267.546742 
L 652.288725 -269.801291 
L 653.302936 -272.055839 
L 654.289609 -274.310388 
L 655.238716 -276.564936 
L 656.141893 -278.819484 
L 656.992499 -281.074033 
L 657.785609 -283.328581 
L 658.517951 -285.583129 
L 659.187802 -287.837678 
L 659.794845 -290.092226 
L 660.339992 -292.346774 
L 660.825205 -294.601323 
L 661.253292 -296.855871 
L 661.627719 -299.110419 
L 661.952417 -301.364968 
L 665.144742 -301.364968 
L 665.144742 -301.364968 
L 665.469441 -299.110419 
L 665.843868 -296.855871 
L 666.271955 -294.601323 
L 666.757168 -292.346774 
L 667.302315 -290.092226 
L 667.909357 -287.837678 
L 668.579209 -285.583129 
L 669.311551 -283.328581 
L 670.104661 -281.074033 
L 670.955267 -278.819484 
L 671.858444 -276.564936 
L 672.80755 -274.310388 
L 673.794224 -272.055839 
L 674.808435 -269.801291 
L 675.838611 -267.546742 
L 676.87182 -265.292194 
L 677.894025 -263.037646 
L 678.890392 -260.783097 
L 679.845658 -258.528549 
L 680.744528 -256.274001 
L 681.572107 -254.019452 
L 682.314336 -251.764904 
L 682.958419 -249.510356 
L 683.493226 -247.255807 
L 683.909654 -245.001259 
L 684.200921 -242.746711 
L 684.362797 -240.492162 
L 684.39374 -238.237614 
L 684.29495 -235.983065 
L 684.070323 -233.728517 
L 683.72632 -231.473969 
L 683.271738 -229.21942 
L 682.71742 -226.964872 
L 682.075888 -224.710324 
L 681.360936 -222.455775 
L 680.587191 -220.201227 
L 679.769661 -217.946679 
L 678.923295 -215.69213 
L 678.062562 -213.437582 
L 677.201074 -211.183034 
L 676.351266 -208.928485 
L 675.524135 -206.673937 
L 674.729053 -204.419389 
L 673.973658 -202.16484 
L 673.263809 -199.910292 
L 672.60362 -197.655743 
L 671.995554 -195.401195 
L 671.440565 -193.146647 
L 670.938286 -190.892098 
L 670.487244 -188.63755 
L 670.085087 -186.383002 
L 669.728818 -184.128453 
L 669.415012 -181.873905 
L 669.140021 -179.619357 
L 668.900142 -177.364808 
L 668.69176 -175.11026 
L 668.511445 -172.855712 
L 668.356019 -170.601163 
L 668.222585 -168.346615 
L 668.10852 -166.092067 
L 668.011449 -163.837518 
L 667.9292 -161.58297 
L 667.859742 -159.328421 
L 667.80113 -157.073873 
L 667.751441 -154.819325 
L 667.708734 -152.564776 
L 667.671016 -150.310228 
L 667.636228 -148.05568 
L 667.602253 -145.801131 
L 667.566942 -143.546583 
L 667.528155 -141.292035 
L 667.483818 -139.037486 
L 667.431988 -136.782938 
L 667.370926 -134.52839 
L 667.299156 -132.273841 
L 667.215538 -130.019293 
L 667.119307 -127.764744 
L 667.010113 -125.510196 
L 666.888039 -123.255648 
L 666.753596 -121.001099 
L 666.607703 -118.746551 
L 666.451651 -116.492003 
L 666.287046 -114.237454 
L 666.115746 -111.982906 
L 665.939786 -109.728358 
L 665.7613 -107.473809 
L 665.582442 -105.219261 
L 665.405314 -102.964713 
L 665.231896 -100.710164 
L 665.063991 -98.455616 
L 664.903179 -96.201068 
L 664.750783 -93.946519 
L 664.60785 -91.691971 
L 664.475147 -89.437422 
L 664.353162 -87.182874 
L 664.24212 -84.928326 
L 664.142008 -82.673777 
L 664.0526 -80.419229 
L 663.973495 -78.164681 
z
" style="stroke: #3f3f3f; stroke-width: 1.25"/>
    </defs>
    <g clip-path="url(#p12cdf156b1)">
     <use xlink:href="#m3cf71b0d36" x="0" y="360" style="fill: #e1812c; stroke: #3f3f3f; stroke-width: 1.25"/>
    </g>
   </g>
   <g id="patch_6">
    <path d="M 468.9009 313.083316 
L 468.9009 313.083316 
L 468.9009 313.083316 
L 468.9009 313.083316 
z
" clip-path="url(#p12cdf156b1)" style="fill: #3274a1; stroke: #3f3f3f; stroke-width: 1.25; stroke-linejoin: miter"/>
   </g>
   <g id="patch_7">
    <path d="M 468.9009 313.083316 
L 468.9009 313.083316 
L 468.9009 313.083316 
L 468.9009 313.083316 
z
" clip-path="url(#p12cdf156b1)" style="fill: #e1812c; stroke: #3f3f3f; stroke-width: 1.25; stroke-linejoin: miter"/>
   </g>
   <g id="line2d_29">
    <path d="M 436.45962 157.849287 
L 436.45962 110.523079 
" clip-path="url(#p12cdf156b1)" style="fill: none; stroke: #3f3f3f; stroke-width: 1.875; stroke-linecap: round"/>
   </g>
   <g id="line2d_30">
    <path d="M 436.45962 141.81579 
L 436.45962 110.523079 
" clip-path="url(#p12cdf156b1)" style="fill: none; stroke: #3f3f3f; stroke-width: 5.625; stroke-linecap: round"/>
   </g>
   <g id="line2d_31">
    <path d="M 436.45962 110.523079 
" clip-path="url(#p12cdf156b1)" style="fill: none; stroke: #3f3f3f; stroke-width: 1.5; stroke-linecap: round"/>
    <g clip-path="url(#p12cdf156b1)">
     <use xlink:href="#mc185b95280" x="436.45962" y="110.523079" style="fill: #ffffff; stroke: #ffffff; stroke-width: 1.125"/>
    </g>
   </g>
   <g id="line2d_32">
    <path d="M 501.34218 176.285864 
L 501.34218 110.523079 
" clip-path="url(#p12cdf156b1)" style="fill: none; stroke: #3f3f3f; stroke-width: 1.875; stroke-linecap: round"/>
   </g>
   <g id="line2d_33">
    <path d="M 501.34218 150.528964 
L 501.34218 128.465023 
" clip-path="url(#p12cdf156b1)" style="fill: none; stroke: #3f3f3f; stroke-width: 5.625; stroke-linecap: round"/>
   </g>
   <g id="line2d_34">
    <path d="M 501.34218 139.806629 
" clip-path="url(#p12cdf156b1)" style="fill: none; stroke: #3f3f3f; stroke-width: 1.5; stroke-linecap: round"/>
    <g clip-path="url(#p12cdf156b1)">
     <use xlink:href="#mc185b95280" x="501.34218" y="139.806629" style="fill: #ffffff; stroke: #ffffff; stroke-width: 1.125"/>
    </g>
   </g>
   <g id="line2d_35">
    <path d="M 598.66602 183.520162 
L 598.66602 110.523079 
" clip-path="url(#p12cdf156b1)" style="fill: none; stroke: #3f3f3f; stroke-width: 1.875; stroke-linecap: round"/>
   </g>
   <g id="line2d_36">
    <path d="M 598.66602 147.309166 
L 598.66602 112.721945 
" clip-path="url(#p12cdf156b1)" style="fill: none; stroke: #3f3f3f; stroke-width: 5.625; stroke-linecap: round"/>
   </g>
   <g id="line2d_37">
    <path d="M 598.66602 130.885987 
" clip-path="url(#p12cdf156b1)" style="fill: none; stroke: #3f3f3f; stroke-width: 1.5; stroke-linecap: round"/>
    <g clip-path="url(#p12cdf156b1)">
     <use xlink:href="#mc185b95280" x="598.66602" y="130.885987" style="fill: #ffffff; stroke: #ffffff; stroke-width: 1.125"/>
    </g>
   </g>
   <g id="line2d_38">
    <path d="M 663.54858 133.405629 
L 663.54858 110.523079 
" clip-path="url(#p12cdf156b1)" style="fill: none; stroke: #3f3f3f; stroke-width: 1.875; stroke-linecap: round"/>
   </g>
   <g id="line2d_39">
    <path d="M 663.54858 133.405629 
L 663.54858 114.364707 
" clip-path="url(#p12cdf156b1)" style="fill: none; stroke: #3f3f3f; stroke-width: 5.625; stroke-linecap: round"/>
   </g>
   <g id="line2d_40">
    <path d="M 663.54858 121.808968 
" clip-path="url(#p12cdf156b1)" style="fill: none; stroke: #3f3f3f; stroke-width: 1.5; stroke-linecap: round"/>
    <g clip-path="url(#p12cdf156b1)">
     <use xlink:href="#mc185b95280" x="663.54858" y="121.808968" style="fill: #ffffff; stroke: #ffffff; stroke-width: 1.125"/>
    </g>
   </g>
   <g id="patch_8">
    <path d="M 387.7977 318.04 
L 387.7977 24.72 
" style="fill: none; stroke: #cccccc; stroke-width: 0.8; stroke-linejoin: miter; stroke-linecap: square"/>
   </g>
   <g id="patch_9">
    <path d="M 387.7977 318.04 
L 712.2105 318.04 
" style="fill: none; stroke: #cccccc; stroke-width: 0.8; stroke-linejoin: miter; stroke-linecap: square"/>
   </g>
   <g id="text_17">
    <!-- sex = m -->
    <g style="fill: #262626" transform="translate(532.36035 18.72) scale(0.1 -0.1)">
     <defs>
      <path id="ArialMT-6d" d="M 422 0 
L 422 3319 
L 925 3319 
L 925 2853 
Q 1081 3097 1340 3245 
Q 1600 3394 1931 3394 
Q 2300 3394 2536 3241 
Q 2772 3088 2869 2813 
Q 3263 3394 3894 3394 
Q 4388 3394 4653 3120 
Q 4919 2847 4919 2278 
L 4919 0 
L 4359 0 
L 4359 2091 
Q 4359 2428 4304 2576 
Q 4250 2725 4106 2815 
Q 3963 2906 3769 2906 
Q 3419 2906 3187 2673 
Q 2956 2441 2956 1928 
L 2956 0 
L 2394 0 
L 2394 2156 
Q 2394 2531 2256 2718 
Q 2119 2906 1806 2906 
Q 1569 2906 1367 2781 
Q 1166 2656 1075 2415 
Q 984 2175 984 1722 
L 984 0 
L 422 0 
z
" transform="scale(0.015625)"/>
     </defs>
     <use xlink:href="#ArialMT-73"/>
     <use xlink:href="#ArialMT-65" x="50"/>
     <use xlink:href="#ArialMT-78" x="105.615234"/>
     <use xlink:href="#ArialMT-20" x="155.615234"/>
     <use xlink:href="#ArialMT-3d" x="183.398438"/>
     <use xlink:href="#ArialMT-20" x="241.796875"/>
     <use xlink:href="#ArialMT-6d" x="269.580078"/>
    </g>
   </g>
  </g>
  <g id="legend_1">
   <g id="text_18">
    <!-- Time -->
    <g style="fill: #262626" transform="translate(733.633594 168.439844) scale(0.1 -0.1)">
     <defs>
      <path id="ArialMT-54" d="M 1659 0 
L 1659 4041 
L 150 4041 
L 150 4581 
L 3781 4581 
L 3781 4041 
L 2266 4041 
L 2266 0 
L 1659 0 
z
" transform="scale(0.015625)"/>
     </defs>
     <use xlink:href="#ArialMT-54"/>
     <use xlink:href="#ArialMT-69" x="57.333984"/>
     <use xlink:href="#ArialMT-6d" x="79.550781"/>
     <use xlink:href="#ArialMT-65" x="162.851562"/>
    </g>
   </g>
   <g id="patch_10">
    <path d="M 719.1625 182.585156 
L 739.1625 182.585156 
L 739.1625 175.585156 
L 719.1625 175.585156 
z
" style="fill: #3274a1; stroke: #3f3f3f; stroke-width: 1.25; stroke-linejoin: miter"/>
   </g>
   <g id="text_19">
    <!-- initial -->
    <g style="fill: #262626" transform="translate(747.1625 182.585156) scale(0.1 -0.1)">
     <use xlink:href="#ArialMT-69"/>
     <use xlink:href="#ArialMT-6e" x="22.216797"/>
     <use xlink:href="#ArialMT-69" x="77.832031"/>
     <use xlink:href="#ArialMT-74" x="100.048828"/>
     <use xlink:href="#ArialMT-69" x="127.832031"/>
     <use xlink:href="#ArialMT-61" x="150.048828"/>
     <use xlink:href="#ArialMT-6c" x="205.664062"/>
    </g>
   </g>
   <g id="patch_11">
    <path d="M 719.1625 196.730469 
L 739.1625 196.730469 
L 739.1625 189.730469 
L 719.1625 189.730469 
z
" style="fill: #e1812c; stroke: #3f3f3f; stroke-width: 1.25; stroke-linejoin: miter"/>
   </g>
   <g id="text_20">
    <!-- final -->
    <g style="fill: #262626" transform="translate(747.1625 196.730469) scale(0.1 -0.1)">
     <use xlink:href="#ArialMT-66"/>
     <use xlink:href="#ArialMT-69" x="27.783203"/>
     <use xlink:href="#ArialMT-6e" x="50"/>
     <use xlink:href="#ArialMT-61" x="105.615234"/>
     <use xlink:href="#ArialMT-6c" x="161.230469"/>
    </g>
   </g>
  </g>
 </g>
 <defs>
  <clipPath id="pb3f74658e3">
   <rect x="52.600763" y="24.72" width="324.4128" height="293.32"/>
  </clipPath>
  <clipPath id="p12cdf156b1">
   <rect x="387.7977" y="24.72" width="324.4128" height="293.32"/>
  </clipPath>
 </defs>
</svg>
