<?xml version="1.0" encoding="utf-8" standalone="no"?>
<!DOCTYPE svg PUBLIC "-//W3C//DTD SVG 1.1//EN"
  "http://www.w3.org/Graphics/SVG/1.1/DTD/svg11.dtd">
<svg xmlns:xlink="http://www.w3.org/1999/xlink" width="778.95pt" height="360pt" viewBox="0 0 778.95 360" xmlns="http://www.w3.org/2000/svg" version="1.1">
 <metadata>
  <rdf:RDF xmlns:dc="http://purl.org/dc/elements/1.1/" xmlns:cc="http://creativecommons.org/ns#" xmlns:rdf="http://www.w3.org/1999/02/22-rdf-syntax-ns#">
   <cc:Work>
    <dc:type rdf:resource="http://purl.org/dc/dcmitype/StillImage"/>
    <dc:date>2024-09-10T22:04:40.939813</dc:date>
    <dc:format>image/svg+xml</dc:format>
    <dc:creator>
     <cc:Agent>
      <dc:title>Matplotlib v3.8.3, https://matplotlib.org/</dc:title>
     </cc:Agent>
    </dc:creator>
   </cc:Work>
  </rdf:RDF>
 </metadata>
 <defs>
  <style type="text/css">*{stroke-linejoin: round; stroke-linecap: butt}</style>
 </defs>
 <g id="figure_1">
  <g id="patch_1">
   <path d="M 0 360 
L 778.95 360 
L 778.95 0 
L 0 0 
z
" style="fill: #ffffff"/>
  </g>
  <g id="axes_1">
   <g id="patch_2">
    <path d="M 58.929731 318.04 
L 380.182068 318.04 
L 380.182068 24.72 
L 58.929731 24.72 
z
" style="fill: #ffffff"/>
   </g>
   <g id="matplotlib.axis_1">
    <g id="xtick_1">
     <g id="text_1">
      <!-- Jurilovca -->
      <g style="fill: #262626" transform="translate(119.514691 332.197812) scale(0.1 -0.1)">
       <defs>
        <path id="ArialMT-4a" d="M 184 1300 
L 731 1375 
Q 753 850 928 656 
Q 1103 463 1413 463 
Q 1641 463 1806 567 
Q 1972 672 2034 851 
Q 2097 1031 2097 1425 
L 2097 4581 
L 2703 4581 
L 2703 1459 
Q 2703 884 2564 568 
Q 2425 253 2123 87 
Q 1822 -78 1416 -78 
Q 813 -78 492 269 
Q 172 616 184 1300 
z
" transform="scale(0.015625)"/>
        <path id="ArialMT-75" d="M 2597 0 
L 2597 488 
Q 2209 -75 1544 -75 
Q 1250 -75 995 37 
Q 741 150 617 320 
Q 494 491 444 738 
Q 409 903 409 1263 
L 409 3319 
L 972 3319 
L 972 1478 
Q 972 1038 1006 884 
Q 1059 663 1231 536 
Q 1403 409 1656 409 
Q 1909 409 2131 539 
Q 2353 669 2445 892 
Q 2538 1116 2538 1541 
L 2538 3319 
L 3100 3319 
L 3100 0 
L 2597 0 
z
" transform="scale(0.015625)"/>
        <path id="ArialMT-72" d="M 416 0 
L 416 3319 
L 922 3319 
L 922 2816 
Q 1116 3169 1280 3281 
Q 1444 3394 1641 3394 
Q 1925 3394 2219 3213 
L 2025 2691 
Q 1819 2813 1613 2813 
Q 1428 2813 1281 2702 
Q 1134 2591 1072 2394 
Q 978 2094 978 1738 
L 978 0 
L 416 0 
z
" transform="scale(0.015625)"/>
        <path id="ArialMT-69" d="M 425 3934 
L 425 4581 
L 988 4581 
L 988 3934 
L 425 3934 
z
M 425 0 
L 425 3319 
L 988 3319 
L 988 0 
L 425 0 
z
" transform="scale(0.015625)"/>
        <path id="ArialMT-6c" d="M 409 0 
L 409 4581 
L 972 4581 
L 972 0 
L 409 0 
z
" transform="scale(0.015625)"/>
        <path id="ArialMT-6f" d="M 213 1659 
Q 213 2581 725 3025 
Q 1153 3394 1769 3394 
Q 2453 3394 2887 2945 
Q 3322 2497 3322 1706 
Q 3322 1066 3130 698 
Q 2938 331 2570 128 
Q 2203 -75 1769 -75 
Q 1072 -75 642 372 
Q 213 819 213 1659 
z
M 791 1659 
Q 791 1022 1069 705 
Q 1347 388 1769 388 
Q 2188 388 2466 706 
Q 2744 1025 2744 1678 
Q 2744 2294 2464 2611 
Q 2184 2928 1769 2928 
Q 1347 2928 1069 2612 
Q 791 2297 791 1659 
z
" transform="scale(0.015625)"/>
        <path id="ArialMT-76" d="M 1344 0 
L 81 3319 
L 675 3319 
L 1388 1331 
Q 1503 1009 1600 663 
Q 1675 925 1809 1294 
L 2547 3319 
L 3125 3319 
L 1869 0 
L 1344 0 
z
" transform="scale(0.015625)"/>
        <path id="ArialMT-63" d="M 2588 1216 
L 3141 1144 
Q 3050 572 2676 248 
Q 2303 -75 1759 -75 
Q 1078 -75 664 370 
Q 250 816 250 1647 
Q 250 2184 428 2587 
Q 606 2991 970 3192 
Q 1334 3394 1763 3394 
Q 2303 3394 2647 3120 
Q 2991 2847 3088 2344 
L 2541 2259 
Q 2463 2594 2264 2762 
Q 2066 2931 1784 2931 
Q 1359 2931 1093 2626 
Q 828 2322 828 1663 
Q 828 994 1084 691 
Q 1341 388 1753 388 
Q 2084 388 2306 591 
Q 2528 794 2588 1216 
z
" transform="scale(0.015625)"/>
        <path id="ArialMT-61" d="M 2588 409 
Q 2275 144 1986 34 
Q 1697 -75 1366 -75 
Q 819 -75 525 192 
Q 231 459 231 875 
Q 231 1119 342 1320 
Q 453 1522 633 1644 
Q 813 1766 1038 1828 
Q 1203 1872 1538 1913 
Q 2219 1994 2541 2106 
Q 2544 2222 2544 2253 
Q 2544 2597 2384 2738 
Q 2169 2928 1744 2928 
Q 1347 2928 1158 2789 
Q 969 2650 878 2297 
L 328 2372 
Q 403 2725 575 2942 
Q 747 3159 1072 3276 
Q 1397 3394 1825 3394 
Q 2250 3394 2515 3294 
Q 2781 3194 2906 3042 
Q 3031 2891 3081 2659 
Q 3109 2516 3109 2141 
L 3109 1391 
Q 3109 606 3145 398 
Q 3181 191 3288 0 
L 2700 0 
Q 2613 175 2588 409 
z
M 2541 1666 
Q 2234 1541 1622 1453 
Q 1275 1403 1131 1340 
Q 988 1278 909 1158 
Q 831 1038 831 891 
Q 831 666 1001 516 
Q 1172 366 1500 366 
Q 1825 366 2078 508 
Q 2331 650 2450 897 
Q 2541 1088 2541 1459 
L 2541 1666 
z
" transform="scale(0.015625)"/>
       </defs>
       <use xlink:href="#ArialMT-4a"/>
       <use xlink:href="#ArialMT-75" x="50"/>
       <use xlink:href="#ArialMT-72" x="105.615234"/>
       <use xlink:href="#ArialMT-69" x="138.916016"/>
       <use xlink:href="#ArialMT-6c" x="161.132812"/>
       <use xlink:href="#ArialMT-6f" x="183.349609"/>
       <use xlink:href="#ArialMT-76" x="238.964844"/>
       <use xlink:href="#ArialMT-63" x="288.964844"/>
       <use xlink:href="#ArialMT-61" x="338.964844"/>
      </g>
     </g>
    </g>
    <g id="xtick_2">
     <g id="text_2">
      <!-- Baia -->
      <g style="fill: #262626" transform="translate(289.861953 332.197812) scale(0.1 -0.1)">
       <defs>
        <path id="ArialMT-42" d="M 469 0 
L 469 4581 
L 2188 4581 
Q 2713 4581 3030 4442 
Q 3347 4303 3526 4014 
Q 3706 3725 3706 3409 
Q 3706 3116 3547 2856 
Q 3388 2597 3066 2438 
Q 3481 2316 3704 2022 
Q 3928 1728 3928 1328 
Q 3928 1006 3792 729 
Q 3656 453 3456 303 
Q 3256 153 2954 76 
Q 2653 0 2216 0 
L 469 0 
z
M 1075 2656 
L 2066 2656 
Q 2469 2656 2644 2709 
Q 2875 2778 2992 2937 
Q 3109 3097 3109 3338 
Q 3109 3566 3000 3739 
Q 2891 3913 2687 3977 
Q 2484 4041 1991 4041 
L 1075 4041 
L 1075 2656 
z
M 1075 541 
L 2216 541 
Q 2509 541 2628 563 
Q 2838 600 2978 687 
Q 3119 775 3209 942 
Q 3300 1109 3300 1328 
Q 3300 1584 3169 1773 
Q 3038 1963 2805 2039 
Q 2572 2116 2134 2116 
L 1075 2116 
L 1075 541 
z
" transform="scale(0.015625)"/>
       </defs>
       <use xlink:href="#ArialMT-42"/>
       <use xlink:href="#ArialMT-61" x="66.699219"/>
       <use xlink:href="#ArialMT-69" x="122.314453"/>
       <use xlink:href="#ArialMT-61" x="144.53125"/>
      </g>
     </g>
    </g>
    <g id="text_3">
     <!-- Location -->
     <g style="fill: #262626" transform="translate(200.653556 345.343125) scale(0.1 -0.1)">
      <defs>
       <path id="ArialMT-4c" d="M 469 0 
L 469 4581 
L 1075 4581 
L 1075 541 
L 3331 541 
L 3331 0 
L 469 0 
z
" transform="scale(0.015625)"/>
       <path id="ArialMT-74" d="M 1650 503 
L 1731 6 
Q 1494 -44 1306 -44 
Q 1000 -44 831 53 
Q 663 150 594 308 
Q 525 466 525 972 
L 525 2881 
L 113 2881 
L 113 3319 
L 525 3319 
L 525 4141 
L 1084 4478 
L 1084 3319 
L 1650 3319 
L 1650 2881 
L 1084 2881 
L 1084 941 
Q 1084 700 1114 631 
Q 1144 563 1211 522 
Q 1278 481 1403 481 
Q 1497 481 1650 503 
z
" transform="scale(0.015625)"/>
       <path id="ArialMT-6e" d="M 422 0 
L 422 3319 
L 928 3319 
L 928 2847 
Q 1294 3394 1984 3394 
Q 2284 3394 2536 3286 
Q 2788 3178 2913 3003 
Q 3038 2828 3088 2588 
Q 3119 2431 3119 2041 
L 3119 0 
L 2556 0 
L 2556 2019 
Q 2556 2363 2490 2533 
Q 2425 2703 2258 2804 
Q 2091 2906 1866 2906 
Q 1506 2906 1245 2678 
Q 984 2450 984 1813 
L 984 0 
L 422 0 
z
" transform="scale(0.015625)"/>
      </defs>
      <use xlink:href="#ArialMT-4c"/>
      <use xlink:href="#ArialMT-6f" x="55.615234"/>
      <use xlink:href="#ArialMT-63" x="111.230469"/>
      <use xlink:href="#ArialMT-61" x="161.230469"/>
      <use xlink:href="#ArialMT-74" x="216.845703"/>
      <use xlink:href="#ArialMT-69" x="244.628906"/>
      <use xlink:href="#ArialMT-6f" x="266.845703"/>
      <use xlink:href="#ArialMT-6e" x="322.460938"/>
     </g>
    </g>
   </g>
   <g id="matplotlib.axis_2">
    <g id="ytick_1">
     <g id="line2d_1">
      <path d="M 58.929731 301.686132 
L 380.182068 301.686132 
" clip-path="url(#pb175e65862)" style="fill: none; stroke: #cccccc; stroke-width: 0.8; stroke-linecap: round"/>
     </g>
     <g id="text_4">
      <!-- −100 -->
      <g style="fill: #262626" transform="translate(29.406294 305.265038) scale(0.1 -0.1)">
       <defs>
        <path id="ArialMT-2212" d="M 3381 1997 
L 356 1997 
L 356 2522 
L 3381 2522 
L 3381 1997 
z
" transform="scale(0.015625)"/>
        <path id="ArialMT-31" d="M 2384 0 
L 1822 0 
L 1822 3584 
Q 1619 3391 1289 3197 
Q 959 3003 697 2906 
L 697 3450 
Q 1169 3672 1522 3987 
Q 1875 4303 2022 4600 
L 2384 4600 
L 2384 0 
z
" transform="scale(0.015625)"/>
        <path id="ArialMT-30" d="M 266 2259 
Q 266 3072 433 3567 
Q 600 4063 929 4331 
Q 1259 4600 1759 4600 
Q 2128 4600 2406 4451 
Q 2684 4303 2865 4023 
Q 3047 3744 3150 3342 
Q 3253 2941 3253 2259 
Q 3253 1453 3087 958 
Q 2922 463 2592 192 
Q 2263 -78 1759 -78 
Q 1097 -78 719 397 
Q 266 969 266 2259 
z
M 844 2259 
Q 844 1131 1108 757 
Q 1372 384 1759 384 
Q 2147 384 2411 759 
Q 2675 1134 2675 2259 
Q 2675 3391 2411 3762 
Q 2147 4134 1753 4134 
Q 1366 4134 1134 3806 
Q 844 3388 844 2259 
z
" transform="scale(0.015625)"/>
       </defs>
       <use xlink:href="#ArialMT-2212"/>
       <use xlink:href="#ArialMT-31" x="58.398438"/>
       <use xlink:href="#ArialMT-30" x="114.013672"/>
       <use xlink:href="#ArialMT-30" x="169.628906"/>
      </g>
     </g>
    </g>
    <g id="ytick_2">
     <g id="line2d_2">
      <path d="M 58.929731 267.255944 
L 380.182068 267.255944 
" clip-path="url(#pb175e65862)" style="fill: none; stroke: #cccccc; stroke-width: 0.8; stroke-linecap: round"/>
     </g>
     <g id="text_5">
      <!-- 0 -->
      <g style="fill: #262626" transform="translate(46.368794 270.834851) scale(0.1 -0.1)">
       <use xlink:href="#ArialMT-30"/>
      </g>
     </g>
    </g>
    <g id="ytick_3">
     <g id="line2d_3">
      <path d="M 58.929731 232.825757 
L 380.182068 232.825757 
" clip-path="url(#pb175e65862)" style="fill: none; stroke: #cccccc; stroke-width: 0.8; stroke-linecap: round"/>
     </g>
     <g id="text_6">
      <!-- 100 -->
      <g style="fill: #262626" transform="translate(35.246919 236.404663) scale(0.1 -0.1)">
       <use xlink:href="#ArialMT-31"/>
       <use xlink:href="#ArialMT-30" x="55.615234"/>
       <use xlink:href="#ArialMT-30" x="111.230469"/>
      </g>
     </g>
    </g>
    <g id="ytick_4">
     <g id="line2d_4">
      <path d="M 58.929731 198.395569 
L 380.182068 198.395569 
" clip-path="url(#pb175e65862)" style="fill: none; stroke: #cccccc; stroke-width: 0.8; stroke-linecap: round"/>
     </g>
     <g id="text_7">
      <!-- 200 -->
      <g style="fill: #262626" transform="translate(35.246919 201.974475) scale(0.1 -0.1)">
       <defs>
        <path id="ArialMT-32" d="M 3222 541 
L 3222 0 
L 194 0 
Q 188 203 259 391 
Q 375 700 629 1000 
Q 884 1300 1366 1694 
Q 2113 2306 2375 2664 
Q 2638 3022 2638 3341 
Q 2638 3675 2398 3904 
Q 2159 4134 1775 4134 
Q 1369 4134 1125 3890 
Q 881 3647 878 3216 
L 300 3275 
Q 359 3922 746 4261 
Q 1134 4600 1788 4600 
Q 2447 4600 2831 4234 
Q 3216 3869 3216 3328 
Q 3216 3053 3103 2787 
Q 2991 2522 2730 2228 
Q 2469 1934 1863 1422 
Q 1356 997 1212 845 
Q 1069 694 975 541 
L 3222 541 
z
" transform="scale(0.015625)"/>
       </defs>
       <use xlink:href="#ArialMT-32"/>
       <use xlink:href="#ArialMT-30" x="55.615234"/>
       <use xlink:href="#ArialMT-30" x="111.230469"/>
      </g>
     </g>
    </g>
    <g id="ytick_5">
     <g id="line2d_5">
      <path d="M 58.929731 163.965381 
L 380.182068 163.965381 
" clip-path="url(#pb175e65862)" style="fill: none; stroke: #cccccc; stroke-width: 0.8; stroke-linecap: round"/>
     </g>
     <g id="text_8">
      <!-- 300 -->
      <g style="fill: #262626" transform="translate(35.246919 167.544287) scale(0.1 -0.1)">
       <defs>
        <path id="ArialMT-33" d="M 269 1209 
L 831 1284 
Q 928 806 1161 595 
Q 1394 384 1728 384 
Q 2125 384 2398 659 
Q 2672 934 2672 1341 
Q 2672 1728 2419 1979 
Q 2166 2231 1775 2231 
Q 1616 2231 1378 2169 
L 1441 2663 
Q 1497 2656 1531 2656 
Q 1891 2656 2178 2843 
Q 2466 3031 2466 3422 
Q 2466 3731 2256 3934 
Q 2047 4138 1716 4138 
Q 1388 4138 1169 3931 
Q 950 3725 888 3313 
L 325 3413 
Q 428 3978 793 4289 
Q 1159 4600 1703 4600 
Q 2078 4600 2393 4439 
Q 2709 4278 2876 4000 
Q 3044 3722 3044 3409 
Q 3044 3113 2884 2869 
Q 2725 2625 2413 2481 
Q 2819 2388 3044 2092 
Q 3269 1797 3269 1353 
Q 3269 753 2831 336 
Q 2394 -81 1725 -81 
Q 1122 -81 723 278 
Q 325 638 269 1209 
z
" transform="scale(0.015625)"/>
       </defs>
       <use xlink:href="#ArialMT-33"/>
       <use xlink:href="#ArialMT-30" x="55.615234"/>
       <use xlink:href="#ArialMT-30" x="111.230469"/>
      </g>
     </g>
    </g>
    <g id="ytick_6">
     <g id="line2d_6">
      <path d="M 58.929731 129.535194 
L 380.182068 129.535194 
" clip-path="url(#pb175e65862)" style="fill: none; stroke: #cccccc; stroke-width: 0.8; stroke-linecap: round"/>
     </g>
     <g id="text_9">
      <!-- 400 -->
      <g style="fill: #262626" transform="translate(35.246919 133.1141) scale(0.1 -0.1)">
       <defs>
        <path id="ArialMT-34" d="M 2069 0 
L 2069 1097 
L 81 1097 
L 81 1613 
L 2172 4581 
L 2631 4581 
L 2631 1613 
L 3250 1613 
L 3250 1097 
L 2631 1097 
L 2631 0 
L 2069 0 
z
M 2069 1613 
L 2069 3678 
L 634 1613 
L 2069 1613 
z
" transform="scale(0.015625)"/>
       </defs>
       <use xlink:href="#ArialMT-34"/>
       <use xlink:href="#ArialMT-30" x="55.615234"/>
       <use xlink:href="#ArialMT-30" x="111.230469"/>
      </g>
     </g>
    </g>
    <g id="ytick_7">
     <g id="line2d_7">
      <path d="M 58.929731 95.105006 
L 380.182068 95.105006 
" clip-path="url(#pb175e65862)" style="fill: none; stroke: #cccccc; stroke-width: 0.8; stroke-linecap: round"/>
     </g>
     <g id="text_10">
      <!-- 500 -->
      <g style="fill: #262626" transform="translate(35.246919 98.683912) scale(0.1 -0.1)">
       <defs>
        <path id="ArialMT-35" d="M 266 1200 
L 856 1250 
Q 922 819 1161 601 
Q 1400 384 1738 384 
Q 2144 384 2425 690 
Q 2706 997 2706 1503 
Q 2706 1984 2436 2262 
Q 2166 2541 1728 2541 
Q 1456 2541 1237 2417 
Q 1019 2294 894 2097 
L 366 2166 
L 809 4519 
L 3088 4519 
L 3088 3981 
L 1259 3981 
L 1013 2750 
Q 1425 3038 1878 3038 
Q 2478 3038 2890 2622 
Q 3303 2206 3303 1553 
Q 3303 931 2941 478 
Q 2500 -78 1738 -78 
Q 1113 -78 717 272 
Q 322 622 266 1200 
z
" transform="scale(0.015625)"/>
       </defs>
       <use xlink:href="#ArialMT-35"/>
       <use xlink:href="#ArialMT-30" x="55.615234"/>
       <use xlink:href="#ArialMT-30" x="111.230469"/>
      </g>
     </g>
    </g>
    <g id="ytick_8">
     <g id="line2d_8">
      <path d="M 58.929731 60.674818 
L 380.182068 60.674818 
" clip-path="url(#pb175e65862)" style="fill: none; stroke: #cccccc; stroke-width: 0.8; stroke-linecap: round"/>
     </g>
     <g id="text_11">
      <!-- 600 -->
      <g style="fill: #262626" transform="translate(35.246919 64.253724) scale(0.1 -0.1)">
       <defs>
        <path id="ArialMT-36" d="M 3184 3459 
L 2625 3416 
Q 2550 3747 2413 3897 
Q 2184 4138 1850 4138 
Q 1581 4138 1378 3988 
Q 1113 3794 959 3422 
Q 806 3050 800 2363 
Q 1003 2672 1297 2822 
Q 1591 2972 1913 2972 
Q 2475 2972 2870 2558 
Q 3266 2144 3266 1488 
Q 3266 1056 3080 686 
Q 2894 316 2569 119 
Q 2244 -78 1831 -78 
Q 1128 -78 684 439 
Q 241 956 241 2144 
Q 241 3472 731 4075 
Q 1159 4600 1884 4600 
Q 2425 4600 2770 4297 
Q 3116 3994 3184 3459 
z
M 888 1484 
Q 888 1194 1011 928 
Q 1134 663 1356 523 
Q 1578 384 1822 384 
Q 2178 384 2434 671 
Q 2691 959 2691 1453 
Q 2691 1928 2437 2201 
Q 2184 2475 1800 2475 
Q 1419 2475 1153 2201 
Q 888 1928 888 1484 
z
" transform="scale(0.015625)"/>
       </defs>
       <use xlink:href="#ArialMT-36"/>
       <use xlink:href="#ArialMT-30" x="55.615234"/>
       <use xlink:href="#ArialMT-30" x="111.230469"/>
      </g>
     </g>
    </g>
    <g id="ytick_9">
     <g id="line2d_9">
      <path d="M 58.929731 26.244631 
L 380.182068 26.244631 
" clip-path="url(#pb175e65862)" style="fill: none; stroke: #cccccc; stroke-width: 0.8; stroke-linecap: round"/>
     </g>
     <g id="text_12">
      <!-- 700 -->
      <g style="fill: #262626" transform="translate(35.246919 29.823537) scale(0.1 -0.1)">
       <defs>
        <path id="ArialMT-37" d="M 303 3981 
L 303 4522 
L 3269 4522 
L 3269 4084 
Q 2831 3619 2401 2847 
Q 1972 2075 1738 1259 
Q 1569 684 1522 0 
L 944 0 
Q 953 541 1156 1306 
Q 1359 2072 1739 2783 
Q 2119 3494 2547 3981 
L 303 3981 
z
" transform="scale(0.015625)"/>
       </defs>
       <use xlink:href="#ArialMT-37"/>
       <use xlink:href="#ArialMT-30" x="55.615234"/>
       <use xlink:href="#ArialMT-30" x="111.230469"/>
      </g>
     </g>
    </g>
    <g id="text_13">
     <!-- Carbohydrates energy (kcal/h) -->
     <g style="fill: #262626" transform="translate(23.301606 238.628438) rotate(-90) scale(0.1 -0.1)">
      <defs>
       <path id="ArialMT-43" d="M 3763 1606 
L 4369 1453 
Q 4178 706 3683 314 
Q 3188 -78 2472 -78 
Q 1731 -78 1267 223 
Q 803 525 561 1097 
Q 319 1669 319 2325 
Q 319 3041 592 3573 
Q 866 4106 1370 4382 
Q 1875 4659 2481 4659 
Q 3169 4659 3637 4309 
Q 4106 3959 4291 3325 
L 3694 3184 
Q 3534 3684 3231 3912 
Q 2928 4141 2469 4141 
Q 1941 4141 1586 3887 
Q 1231 3634 1087 3207 
Q 944 2781 944 2328 
Q 944 1744 1114 1308 
Q 1284 872 1643 656 
Q 2003 441 2422 441 
Q 2931 441 3284 734 
Q 3638 1028 3763 1606 
z
" transform="scale(0.015625)"/>
       <path id="ArialMT-62" d="M 941 0 
L 419 0 
L 419 4581 
L 981 4581 
L 981 2947 
Q 1338 3394 1891 3394 
Q 2197 3394 2470 3270 
Q 2744 3147 2920 2923 
Q 3097 2700 3197 2384 
Q 3297 2069 3297 1709 
Q 3297 856 2875 390 
Q 2453 -75 1863 -75 
Q 1275 -75 941 416 
L 941 0 
z
M 934 1684 
Q 934 1088 1097 822 
Q 1363 388 1816 388 
Q 2184 388 2453 708 
Q 2722 1028 2722 1663 
Q 2722 2313 2464 2622 
Q 2206 2931 1841 2931 
Q 1472 2931 1203 2611 
Q 934 2291 934 1684 
z
" transform="scale(0.015625)"/>
       <path id="ArialMT-68" d="M 422 0 
L 422 4581 
L 984 4581 
L 984 2938 
Q 1378 3394 1978 3394 
Q 2347 3394 2619 3248 
Q 2891 3103 3008 2847 
Q 3125 2591 3125 2103 
L 3125 0 
L 2563 0 
L 2563 2103 
Q 2563 2525 2380 2717 
Q 2197 2909 1863 2909 
Q 1613 2909 1392 2779 
Q 1172 2650 1078 2428 
Q 984 2206 984 1816 
L 984 0 
L 422 0 
z
" transform="scale(0.015625)"/>
       <path id="ArialMT-79" d="M 397 -1278 
L 334 -750 
Q 519 -800 656 -800 
Q 844 -800 956 -737 
Q 1069 -675 1141 -563 
Q 1194 -478 1313 -144 
Q 1328 -97 1363 -6 
L 103 3319 
L 709 3319 
L 1400 1397 
Q 1534 1031 1641 628 
Q 1738 1016 1872 1384 
L 2581 3319 
L 3144 3319 
L 1881 -56 
Q 1678 -603 1566 -809 
Q 1416 -1088 1222 -1217 
Q 1028 -1347 759 -1347 
Q 597 -1347 397 -1278 
z
" transform="scale(0.015625)"/>
       <path id="ArialMT-64" d="M 2575 0 
L 2575 419 
Q 2259 -75 1647 -75 
Q 1250 -75 917 144 
Q 584 363 401 755 
Q 219 1147 219 1656 
Q 219 2153 384 2558 
Q 550 2963 881 3178 
Q 1213 3394 1622 3394 
Q 1922 3394 2156 3267 
Q 2391 3141 2538 2938 
L 2538 4581 
L 3097 4581 
L 3097 0 
L 2575 0 
z
M 797 1656 
Q 797 1019 1065 703 
Q 1334 388 1700 388 
Q 2069 388 2326 689 
Q 2584 991 2584 1609 
Q 2584 2291 2321 2609 
Q 2059 2928 1675 2928 
Q 1300 2928 1048 2622 
Q 797 2316 797 1656 
z
" transform="scale(0.015625)"/>
       <path id="ArialMT-65" d="M 2694 1069 
L 3275 997 
Q 3138 488 2766 206 
Q 2394 -75 1816 -75 
Q 1088 -75 661 373 
Q 234 822 234 1631 
Q 234 2469 665 2931 
Q 1097 3394 1784 3394 
Q 2450 3394 2872 2941 
Q 3294 2488 3294 1666 
Q 3294 1616 3291 1516 
L 816 1516 
Q 847 969 1125 678 
Q 1403 388 1819 388 
Q 2128 388 2347 550 
Q 2566 713 2694 1069 
z
M 847 1978 
L 2700 1978 
Q 2663 2397 2488 2606 
Q 2219 2931 1791 2931 
Q 1403 2931 1139 2672 
Q 875 2413 847 1978 
z
" transform="scale(0.015625)"/>
       <path id="ArialMT-73" d="M 197 991 
L 753 1078 
Q 800 744 1014 566 
Q 1228 388 1613 388 
Q 2000 388 2187 545 
Q 2375 703 2375 916 
Q 2375 1106 2209 1216 
Q 2094 1291 1634 1406 
Q 1016 1563 777 1677 
Q 538 1791 414 1992 
Q 291 2194 291 2438 
Q 291 2659 392 2848 
Q 494 3038 669 3163 
Q 800 3259 1026 3326 
Q 1253 3394 1513 3394 
Q 1903 3394 2198 3281 
Q 2494 3169 2634 2976 
Q 2775 2784 2828 2463 
L 2278 2388 
Q 2241 2644 2061 2787 
Q 1881 2931 1553 2931 
Q 1166 2931 1000 2803 
Q 834 2675 834 2503 
Q 834 2394 903 2306 
Q 972 2216 1119 2156 
Q 1203 2125 1616 2013 
Q 2213 1853 2448 1751 
Q 2684 1650 2818 1456 
Q 2953 1263 2953 975 
Q 2953 694 2789 445 
Q 2625 197 2315 61 
Q 2006 -75 1616 -75 
Q 969 -75 630 194 
Q 291 463 197 991 
z
" transform="scale(0.015625)"/>
       <path id="ArialMT-20" transform="scale(0.015625)"/>
       <path id="ArialMT-67" d="M 319 -275 
L 866 -356 
Q 900 -609 1056 -725 
Q 1266 -881 1628 -881 
Q 2019 -881 2231 -725 
Q 2444 -569 2519 -288 
Q 2563 -116 2559 434 
Q 2191 0 1641 0 
Q 956 0 581 494 
Q 206 988 206 1678 
Q 206 2153 378 2554 
Q 550 2956 876 3175 
Q 1203 3394 1644 3394 
Q 2231 3394 2613 2919 
L 2613 3319 
L 3131 3319 
L 3131 450 
Q 3131 -325 2973 -648 
Q 2816 -972 2473 -1159 
Q 2131 -1347 1631 -1347 
Q 1038 -1347 672 -1080 
Q 306 -813 319 -275 
z
M 784 1719 
Q 784 1066 1043 766 
Q 1303 466 1694 466 
Q 2081 466 2343 764 
Q 2606 1063 2606 1700 
Q 2606 2309 2336 2618 
Q 2066 2928 1684 2928 
Q 1309 2928 1046 2623 
Q 784 2319 784 1719 
z
" transform="scale(0.015625)"/>
       <path id="ArialMT-28" d="M 1497 -1347 
Q 1031 -759 709 28 
Q 388 816 388 1659 
Q 388 2403 628 3084 
Q 909 3875 1497 4659 
L 1900 4659 
Q 1522 4009 1400 3731 
Q 1209 3300 1100 2831 
Q 966 2247 966 1656 
Q 966 153 1900 -1347 
L 1497 -1347 
z
" transform="scale(0.015625)"/>
       <path id="ArialMT-6b" d="M 425 0 
L 425 4581 
L 988 4581 
L 988 1969 
L 2319 3319 
L 3047 3319 
L 1778 2088 
L 3175 0 
L 2481 0 
L 1384 1697 
L 988 1316 
L 988 0 
L 425 0 
z
" transform="scale(0.015625)"/>
       <path id="ArialMT-2f" d="M 0 -78 
L 1328 4659 
L 1778 4659 
L 453 -78 
L 0 -78 
z
" transform="scale(0.015625)"/>
       <path id="ArialMT-29" d="M 791 -1347 
L 388 -1347 
Q 1322 153 1322 1656 
Q 1322 2244 1188 2822 
Q 1081 3291 891 3722 
Q 769 4003 388 4659 
L 791 4659 
Q 1378 3875 1659 3084 
Q 1900 2403 1900 1659 
Q 1900 816 1576 28 
Q 1253 -759 791 -1347 
z
" transform="scale(0.015625)"/>
      </defs>
      <use xlink:href="#ArialMT-43"/>
      <use xlink:href="#ArialMT-61" x="72.216797"/>
      <use xlink:href="#ArialMT-72" x="127.832031"/>
      <use xlink:href="#ArialMT-62" x="161.132812"/>
      <use xlink:href="#ArialMT-6f" x="216.748047"/>
      <use xlink:href="#ArialMT-68" x="272.363281"/>
      <use xlink:href="#ArialMT-79" x="327.978516"/>
      <use xlink:href="#ArialMT-64" x="377.978516"/>
      <use xlink:href="#ArialMT-72" x="433.59375"/>
      <use xlink:href="#ArialMT-61" x="466.894531"/>
      <use xlink:href="#ArialMT-74" x="522.509766"/>
      <use xlink:href="#ArialMT-65" x="550.292969"/>
      <use xlink:href="#ArialMT-73" x="605.908203"/>
      <use xlink:href="#ArialMT-20" x="655.908203"/>
      <use xlink:href="#ArialMT-65" x="683.691406"/>
      <use xlink:href="#ArialMT-6e" x="739.306641"/>
      <use xlink:href="#ArialMT-65" x="794.921875"/>
      <use xlink:href="#ArialMT-72" x="850.537109"/>
      <use xlink:href="#ArialMT-67" x="883.837891"/>
      <use xlink:href="#ArialMT-79" x="939.453125"/>
      <use xlink:href="#ArialMT-20" x="989.453125"/>
      <use xlink:href="#ArialMT-28" x="1017.236328"/>
      <use xlink:href="#ArialMT-6b" x="1050.537109"/>
      <use xlink:href="#ArialMT-63" x="1100.537109"/>
      <use xlink:href="#ArialMT-61" x="1150.537109"/>
      <use xlink:href="#ArialMT-6c" x="1206.152344"/>
      <use xlink:href="#ArialMT-2f" x="1228.369141"/>
      <use xlink:href="#ArialMT-68" x="1256.152344"/>
      <use xlink:href="#ArialMT-29" x="1311.767578"/>
     </g>
    </g>
   </g>
   <g id="PolyCollection_1">
    <defs>
     <path id="mf46d56ca01" d="M 108.433342 -120.997421 
L 105.801821 -120.997421 
L 105.582936 -122.069025 
L 105.337145 -123.14063 
L 105.062871 -124.212234 
L 104.758724 -125.283839 
L 104.42355 -126.355444 
L 104.056476 -127.427048 
L 103.656949 -128.498653 
L 103.224767 -129.570257 
L 102.760113 -130.641862 
L 102.263565 -131.713466 
L 101.736107 -132.785071 
L 101.179125 -133.856676 
L 100.594392 -134.92828 
L 99.984039 -135.999885 
L 99.350523 -137.071489 
L 98.696574 -138.143094 
L 98.025144 -139.214699 
L 97.339349 -140.286303 
L 96.642401 -141.357908 
L 95.937549 -142.429512 
L 95.228015 -143.501117 
L 94.516934 -144.572722 
L 93.807312 -145.644326 
L 93.101975 -146.715931 
L 92.403541 -147.787535 
L 91.714397 -148.85914 
L 91.036684 -149.930745 
L 90.372294 -151.002349 
L 89.722871 -152.073954 
L 89.089818 -153.145558 
L 88.474308 -154.217163 
L 87.877295 -155.288768 
L 87.299517 -156.360372 
L 86.741507 -157.431977 
L 86.203584 -158.503581 
L 85.685854 -159.575186 
L 85.188188 -160.646791 
L 84.710213 -161.718395 
L 84.251284 -162.79 
L 83.810472 -163.861604 
L 83.386545 -164.933209 
L 82.977964 -166.004814 
L 82.582886 -167.076418 
L 82.199189 -168.148023 
L 81.824512 -169.219627 
L 81.456318 -170.291232 
L 81.091981 -171.362837 
L 80.728892 -172.434441 
L 80.36459 -173.506046 
L 79.996909 -174.57765 
L 79.624128 -175.649255 
L 79.245137 -176.72086 
L 78.859594 -177.792464 
L 78.46807 -178.864069 
L 78.07217 -179.935673 
L 77.674634 -181.007278 
L 77.279389 -182.078883 
L 76.891561 -183.150487 
L 76.517446 -184.222092 
L 76.164412 -185.293696 
L 75.840768 -186.365301 
L 75.555566 -187.436906 
L 75.318375 -188.50851 
L 75.139003 -189.580115 
L 75.027201 -190.651719 
L 74.992348 -191.723324 
L 75.043129 -192.794929 
L 75.187226 -193.866533 
L 75.431033 -194.938138 
L 75.779398 -196.009742 
L 76.235416 -197.081347 
L 76.800279 -198.152952 
L 77.473178 -199.224556 
L 78.251276 -200.296161 
L 79.129749 -201.367765 
L 80.101881 -202.43937 
L 81.159234 -203.510975 
L 82.291853 -204.582579 
L 83.48853 -205.654184 
L 84.737088 -206.725788 
L 86.024698 -207.797393 
L 87.338197 -208.868998 
L 88.664403 -209.940602 
L 89.990426 -211.012207 
L 91.303944 -212.083811 
L 92.593451 -213.155416 
L 93.84847 -214.227021 
L 95.059718 -215.298625 
L 96.219226 -216.37023 
L 97.320415 -217.441834 
L 98.358127 -218.513439 
L 99.328609 -219.585044 
L 100.229467 -220.656648 
L 101.059585 -221.728253 
L 101.819012 -222.799857 
L 102.508842 -223.871462 
L 103.131067 -224.943067 
L 103.688429 -226.014671 
L 104.184277 -227.086276 
L 110.050887 -227.086276 
L 110.050887 -227.086276 
L 110.546734 -226.014671 
L 111.104097 -224.943067 
L 111.726321 -223.871462 
L 112.416151 -222.799857 
L 113.175579 -221.728253 
L 114.005697 -220.656648 
L 114.906555 -219.585044 
L 115.877037 -218.513439 
L 116.914748 -217.441834 
L 118.015938 -216.37023 
L 119.175446 -215.298625 
L 120.386693 -214.227021 
L 121.641712 -213.155416 
L 122.93122 -212.083811 
L 124.244737 -211.012207 
L 125.570761 -209.940602 
L 126.896967 -208.868998 
L 128.210465 -207.797393 
L 129.498076 -206.725788 
L 130.746634 -205.654184 
L 131.94331 -204.582579 
L 133.07593 -203.510975 
L 134.133282 -202.43937 
L 135.105415 -201.367765 
L 135.983887 -200.296161 
L 136.761986 -199.224556 
L 137.434884 -198.152952 
L 137.999747 -197.081347 
L 138.455766 -196.009742 
L 138.804131 -194.938138 
L 139.047937 -193.866533 
L 139.192035 -192.794929 
L 139.242816 -191.723324 
L 139.207962 -190.651719 
L 139.096161 -189.580115 
L 138.916789 -188.50851 
L 138.679598 -187.436906 
L 138.394396 -186.365301 
L 138.070751 -185.293696 
L 137.717718 -184.222092 
L 137.343602 -183.150487 
L 136.955775 -182.078883 
L 136.560529 -181.007278 
L 136.162993 -179.935673 
L 135.767094 -178.864069 
L 135.375569 -177.792464 
L 134.990027 -176.72086 
L 134.611036 -175.649255 
L 134.238255 -174.57765 
L 133.870573 -173.506046 
L 133.506272 -172.434441 
L 133.143183 -171.362837 
L 132.778845 -170.291232 
L 132.410651 -169.219627 
L 132.035975 -168.148023 
L 131.652278 -167.076418 
L 131.2572 -166.004814 
L 130.848619 -164.933209 
L 130.424692 -163.861604 
L 129.98388 -162.79 
L 129.524951 -161.718395 
L 129.046975 -160.646791 
L 128.54931 -159.575186 
L 128.031579 -158.503581 
L 127.493657 -157.431977 
L 126.935647 -156.360372 
L 126.357869 -155.288768 
L 125.760855 -154.217163 
L 125.145346 -153.145558 
L 124.512293 -152.073954 
L 123.862869 -151.002349 
L 123.198479 -149.930745 
L 122.520767 -148.85914 
L 121.831623 -147.787535 
L 121.133189 -146.715931 
L 120.427852 -145.644326 
L 119.718229 -144.572722 
L 119.007149 -143.501117 
L 118.297614 -142.429512 
L 117.592762 -141.357908 
L 116.895815 -140.286303 
L 116.21002 -139.214699 
L 115.53859 -138.143094 
L 114.884641 -137.071489 
L 114.251124 -135.999885 
L 113.640772 -134.92828 
L 113.056038 -133.856676 
L 112.499057 -132.785071 
L 111.971599 -131.713466 
L 111.47505 -130.641862 
L 111.010396 -129.570257 
L 110.578215 -128.498653 
L 110.178687 -127.427048 
L 109.811613 -126.355444 
L 109.47644 -125.283839 
L 109.172292 -124.212234 
L 108.898018 -123.14063 
L 108.652228 -122.069025 
L 108.433342 -120.997421 
z
" style="stroke: #3f3f3f; stroke-width: 1.25"/>
    </defs>
    <g clip-path="url(#pb175e65862)">
     <use xlink:href="#mf46d56ca01" x="0" y="360" style="fill: #3274a1; stroke: #3f3f3f; stroke-width: 1.25"/>
    </g>
   </g>
   <g id="PolyCollection_2">
    <defs>
     <path id="m9ab183cab0" d="M 173.710638 -79.04148 
L 169.025461 -79.04148 
L 168.64874 -80.786663 
L 168.226361 -82.531846 
L 167.755529 -84.277029 
L 167.23376 -86.022212 
L 166.658971 -87.767395 
L 166.029585 -89.512578 
L 165.344626 -91.257761 
L 164.603821 -93.002945 
L 163.807689 -94.748128 
L 162.957629 -96.493311 
L 162.055988 -98.238494 
L 161.106118 -99.983677 
L 160.112411 -101.72886 
L 159.080311 -103.474043 
L 158.016301 -105.219226 
L 156.927858 -106.964409 
L 155.823385 -108.709593 
L 154.712106 -110.454776 
L 153.603934 -112.199959 
L 152.509306 -113.945142 
L 151.439 -115.690325 
L 150.403922 -117.435508 
L 149.414879 -119.180691 
L 148.482333 -120.925874 
L 147.61616 -122.671057 
L 146.8254 -124.41624 
L 146.118022 -126.161424 
L 145.500698 -127.906607 
L 144.978608 -129.65179 
L 144.55527 -131.396973 
L 144.232405 -133.142156 
L 144.009855 -134.887339 
L 143.88553 -136.632522 
L 143.855419 -138.377705 
L 143.913646 -140.122888 
L 144.052572 -141.868072 
L 144.262959 -143.613255 
L 144.534164 -145.358438 
L 144.854388 -147.103621 
L 145.210951 -148.848804 
L 145.5906 -150.593987 
L 145.979836 -152.33917 
L 146.365253 -154.084353 
L 146.733875 -155.829536 
L 147.073494 -157.574719 
L 147.372981 -159.319903 
L 147.62258 -161.065086 
L 147.814163 -162.810269 
L 147.941449 -164.555452 
L 148.00017 -166.300635 
L 147.988186 -168.045818 
L 147.905551 -169.791001 
L 147.754511 -171.536184 
L 147.539454 -173.281367 
L 147.266796 -175.026551 
L 146.944818 -176.771734 
L 146.583454 -178.516917 
L 146.194034 -180.2621 
L 145.78899 -182.007283 
L 145.381542 -183.752466 
L 144.985352 -185.497649 
L 144.614185 -187.242832 
L 144.281555 -188.988015 
L 144.000391 -190.733198 
L 143.782723 -192.478382 
L 143.639388 -194.223565 
L 143.579778 -195.968748 
L 143.611633 -197.713931 
L 143.740873 -199.459114 
L 143.971489 -201.204297 
L 144.305482 -202.94948 
L 144.742858 -204.694663 
L 145.281674 -206.439846 
L 145.918133 -208.18503 
L 146.64672 -209.930213 
L 147.460383 -211.675396 
L 148.350739 -213.420579 
L 149.308313 -215.165762 
L 150.322781 -216.910945 
L 151.383235 -218.656128 
L 152.478438 -220.401311 
L 153.597082 -222.146494 
L 154.72802 -223.891677 
L 155.860491 -225.636861 
L 156.984308 -227.382044 
L 158.090035 -229.127227 
L 159.16911 -230.87241 
L 160.213959 -232.617593 
L 161.218058 -234.362776 
L 162.175978 -236.107959 
L 163.083393 -237.853142 
L 163.93706 -239.598325 
L 164.734777 -241.343509 
L 165.475323 -243.088692 
L 166.158376 -244.833875 
L 166.784424 -246.579058 
L 167.354663 -248.324241 
L 167.870893 -250.069424 
L 168.335413 -251.814607 
L 174.400686 -251.814607 
L 174.400686 -251.814607 
L 174.865205 -250.069424 
L 175.381435 -248.324241 
L 175.951674 -246.579058 
L 176.577722 -244.833875 
L 177.260776 -243.088692 
L 178.001322 -241.343509 
L 178.799039 -239.598325 
L 179.652705 -237.853142 
L 180.56012 -236.107959 
L 181.518041 -234.362776 
L 182.52214 -232.617593 
L 183.566988 -230.87241 
L 184.646064 -229.127227 
L 185.75179 -227.382044 
L 186.875608 -225.636861 
L 188.008078 -223.891677 
L 189.139016 -222.146494 
L 190.25766 -220.401311 
L 191.352864 -218.656128 
L 192.413318 -216.910945 
L 193.427786 -215.165762 
L 194.385359 -213.420579 
L 195.275716 -211.675396 
L 196.089378 -209.930213 
L 196.817965 -208.18503 
L 197.454424 -206.439846 
L 197.993241 -204.694663 
L 198.430617 -202.94948 
L 198.76461 -201.204297 
L 198.995226 -199.459114 
L 199.124466 -197.713931 
L 199.15632 -195.968748 
L 199.096711 -194.223565 
L 198.953375 -192.478382 
L 198.735707 -190.733198 
L 198.454544 -188.988015 
L 198.121914 -187.242832 
L 197.750746 -185.497649 
L 197.354557 -183.752466 
L 196.947108 -182.007283 
L 196.542065 -180.2621 
L 196.152644 -178.516917 
L 195.79128 -176.771734 
L 195.469303 -175.026551 
L 195.196645 -173.281367 
L 194.981588 -171.536184 
L 194.830548 -169.791001 
L 194.747913 -168.045818 
L 194.735929 -166.300635 
L 194.794649 -164.555452 
L 194.921935 -162.810269 
L 195.113519 -161.065086 
L 195.363117 -159.319903 
L 195.662604 -157.574719 
L 196.002223 -155.829536 
L 196.370846 -154.084353 
L 196.756262 -152.33917 
L 197.145499 -150.593987 
L 197.525148 -148.848804 
L 197.881711 -147.103621 
L 198.201935 -145.358438 
L 198.47314 -143.613255 
L 198.683526 -141.868072 
L 198.822453 -140.122888 
L 198.880679 -138.377705 
L 198.850568 -136.632522 
L 198.726243 -134.887339 
L 198.503693 -133.142156 
L 198.180829 -131.396973 
L 197.75749 -129.65179 
L 197.2354 -127.906607 
L 196.618076 -126.161424 
L 195.910698 -124.41624 
L 195.119939 -122.671057 
L 194.253766 -120.925874 
L 193.32122 -119.180691 
L 192.332176 -117.435508 
L 191.297099 -115.690325 
L 190.226793 -113.945142 
L 189.132165 -112.199959 
L 188.023992 -110.454776 
L 186.912713 -108.709593 
L 185.808241 -106.964409 
L 184.719798 -105.219226 
L 183.655787 -103.474043 
L 182.623687 -101.72886 
L 181.62998 -99.983677 
L 180.68011 -98.238494 
L 179.778469 -96.493311 
L 178.928409 -94.748128 
L 178.132277 -93.002945 
L 177.391472 -91.257761 
L 176.706513 -89.512578 
L 176.077127 -87.767395 
L 175.502339 -86.022212 
L 174.980569 -84.277029 
L 174.509738 -82.531846 
L 174.087359 -80.786663 
L 173.710638 -79.04148 
z
" style="stroke: #3f3f3f; stroke-width: 1.25"/>
    </defs>
    <g clip-path="url(#pb175e65862)">
     <use xlink:href="#m9ab183cab0" x="0" y="360" style="fill: #e1812c; stroke: #3f3f3f; stroke-width: 1.25"/>
    </g>
   </g>
   <g id="PolyCollection_3">
    <defs>
     <path id="ma1d11f623a" d="M 269.360037 -139.661794 
L 266.127463 -139.661794 
L 265.788855 -140.99438 
L 265.396861 -142.326966 
L 264.947077 -143.659552 
L 264.435573 -144.992137 
L 263.859083 -146.324723 
L 263.215199 -147.657309 
L 262.502556 -148.989895 
L 261.721002 -150.322481 
L 260.87174 -151.655067 
L 259.95743 -152.987653 
L 258.982246 -154.320239 
L 257.951874 -155.652825 
L 256.873454 -156.985411 
L 255.755455 -158.317997 
L 254.607491 -159.650583 
L 253.44008 -160.983168 
L 252.26436 -162.315754 
L 251.091765 -163.64834 
L 249.93369 -164.980926 
L 248.801148 -166.313512 
L 247.70445 -167.646098 
L 246.652916 -168.978684 
L 245.654642 -170.31127 
L 244.716319 -171.643856 
L 243.843135 -172.976442 
L 243.038749 -174.309028 
L 242.30534 -175.641614 
L 241.64372 -176.974199 
L 241.053521 -178.306785 
L 240.533407 -179.639371 
L 240.081338 -180.971957 
L 239.694824 -182.304543 
L 239.371192 -183.637129 
L 239.107823 -184.969715 
L 238.902356 -186.302301 
L 238.752845 -187.634887 
L 238.657873 -188.967473 
L 238.616601 -190.300059 
L 238.628772 -191.632645 
L 238.694656 -192.96523 
L 238.814965 -194.297816 
L 238.990718 -195.630402 
L 239.22309 -196.962988 
L 239.513241 -198.295574 
L 239.86214 -199.62816 
L 240.270384 -200.960746 
L 240.738041 -202.293332 
L 241.26449 -203.625918 
L 241.848306 -204.958504 
L 242.487157 -206.29109 
L 243.177743 -207.623676 
L 243.915771 -208.956262 
L 244.695966 -210.288847 
L 245.512132 -211.621433 
L 246.357247 -212.954019 
L 247.223606 -214.286605 
L 248.102998 -215.619191 
L 248.986921 -216.951777 
L 249.866818 -218.284363 
L 250.734331 -219.616949 
L 251.581568 -220.949535 
L 252.40135 -222.282121 
L 253.18745 -223.614707 
L 253.934792 -224.947293 
L 254.639614 -226.279878 
L 255.299567 -227.612464 
L 255.91376 -228.94505 
L 256.482743 -230.277636 
L 257.008417 -231.610222 
L 257.493891 -232.942808 
L 257.943286 -234.275394 
L 258.361497 -235.60798 
L 258.753919 -236.940566 
L 259.126176 -238.273152 
L 259.483834 -239.605738 
L 259.832144 -240.938324 
L 260.175809 -242.270909 
L 260.518794 -243.603495 
L 260.864187 -244.936081 
L 261.214109 -246.268667 
L 261.569689 -247.601253 
L 261.931085 -248.933839 
L 262.297557 -250.266425 
L 262.667574 -251.599011 
L 263.038964 -252.931597 
L 263.409077 -254.264183 
L 263.774953 -255.596769 
L 264.1335 -256.929355 
L 264.481655 -258.26194 
L 264.816529 -259.594526 
L 265.135528 -260.927112 
L 265.436448 -262.259698 
L 265.717536 -263.592284 
L 265.977532 -264.92487 
L 266.215672 -266.257456 
L 266.431675 -267.590042 
L 266.625708 -268.922628 
L 266.798335 -270.255214 
L 266.950458 -271.5878 
L 268.537043 -271.5878 
L 268.537043 -271.5878 
L 268.689166 -270.255214 
L 268.861793 -268.922628 
L 269.055826 -267.590042 
L 269.271829 -266.257456 
L 269.509969 -264.92487 
L 269.769965 -263.592284 
L 270.051053 -262.259698 
L 270.351973 -260.927112 
L 270.670972 -259.594526 
L 271.005846 -258.26194 
L 271.354001 -256.929355 
L 271.712548 -255.596769 
L 272.078424 -254.264183 
L 272.448536 -252.931597 
L 272.819927 -251.599011 
L 273.189944 -250.266425 
L 273.556415 -248.933839 
L 273.917812 -247.601253 
L 274.273392 -246.268667 
L 274.623314 -244.936081 
L 274.968706 -243.603495 
L 275.311692 -242.270909 
L 275.655357 -240.938324 
L 276.003667 -239.605738 
L 276.361325 -238.273152 
L 276.733582 -236.940566 
L 277.126004 -235.60798 
L 277.544214 -234.275394 
L 277.99361 -232.942808 
L 278.479084 -231.610222 
L 279.004758 -230.277636 
L 279.573741 -228.94505 
L 280.187934 -227.612464 
L 280.847887 -226.279878 
L 281.552709 -224.947293 
L 282.300051 -223.614707 
L 283.086151 -222.282121 
L 283.905933 -220.949535 
L 284.753169 -219.616949 
L 285.620683 -218.284363 
L 286.50058 -216.951777 
L 287.384503 -215.619191 
L 288.263895 -214.286605 
L 289.130254 -212.954019 
L 289.975369 -211.621433 
L 290.791534 -210.288847 
L 291.57173 -208.956262 
L 292.309757 -207.623676 
L 293.000344 -206.29109 
L 293.639195 -204.958504 
L 294.223011 -203.625918 
L 294.74946 -202.293332 
L 295.217116 -200.960746 
L 295.625361 -199.62816 
L 295.97426 -198.295574 
L 296.264411 -196.962988 
L 296.496783 -195.630402 
L 296.672536 -194.297816 
L 296.792845 -192.96523 
L 296.858729 -191.632645 
L 296.8709 -190.300059 
L 296.829628 -188.967473 
L 296.734656 -187.634887 
L 296.585145 -186.302301 
L 296.379678 -184.969715 
L 296.116309 -183.637129 
L 295.792677 -182.304543 
L 295.406163 -180.971957 
L 294.954093 -179.639371 
L 294.43398 -178.306785 
L 293.843781 -176.974199 
L 293.182161 -175.641614 
L 292.448751 -174.309028 
L 291.644366 -172.976442 
L 290.771182 -171.643856 
L 289.832859 -170.31127 
L 288.834584 -168.978684 
L 287.783051 -167.646098 
L 286.686353 -166.313512 
L 285.553811 -164.980926 
L 284.395735 -163.64834 
L 283.223141 -162.315754 
L 282.047421 -160.983168 
L 280.88001 -159.650583 
L 279.732046 -158.317997 
L 278.614047 -156.985411 
L 277.535627 -155.652825 
L 276.505255 -154.320239 
L 275.530071 -152.987653 
L 274.615761 -151.655067 
L 273.766499 -150.322481 
L 272.984945 -148.989895 
L 272.272302 -147.657309 
L 271.628418 -146.324723 
L 271.051928 -144.992137 
L 270.540424 -143.659552 
L 270.09064 -142.326966 
L 269.698646 -140.99438 
L 269.360037 -139.661794 
z
" style="stroke: #3f3f3f; stroke-width: 1.25"/>
    </defs>
    <g clip-path="url(#pb175e65862)">
     <use xlink:href="#ma1d11f623a" x="0" y="360" style="fill: #3274a1; stroke: #3f3f3f; stroke-width: 1.25"/>
    </g>
   </g>
   <g id="PolyCollection_4">
    <defs>
     <path id="m55a9cd3b69" d="M 332.807205 -62.199968 
L 331.18123 -62.199968 
L 331.015362 -64.56035 
L 330.825432 -66.920732 
L 330.610141 -69.281114 
L 330.36857 -71.641496 
L 330.100257 -74.001878 
L 329.805264 -76.36226 
L 329.484228 -78.722642 
L 329.13838 -81.083024 
L 328.769541 -83.443406 
L 328.380084 -85.803788 
L 327.972862 -88.16417 
L 327.551096 -90.524552 
L 327.118234 -92.884934 
L 326.677786 -95.245316 
L 326.23313 -97.605698 
L 325.787317 -99.96608 
L 325.342862 -102.326462 
L 324.901561 -104.686844 
L 324.464322 -107.047226 
L 324.031026 -109.407608 
L 323.600441 -111.76799 
L 323.17018 -114.128372 
L 322.736712 -116.488754 
L 322.295438 -118.849136 
L 321.840816 -121.209518 
L 321.366544 -123.5699 
L 320.865791 -125.930282 
L 320.331471 -128.290664 
L 319.756537 -130.651046 
L 319.134319 -133.011428 
L 318.458851 -135.37181 
L 317.725216 -137.732192 
L 316.929871 -140.092574 
L 316.070957 -142.452956 
L 315.148574 -144.813338 
L 314.165007 -147.17372 
L 313.124904 -149.534102 
L 312.035371 -151.894484 
L 310.906004 -154.254866 
L 309.748816 -156.615248 
L 308.578066 -158.97563 
L 307.409999 -161.336012 
L 306.262463 -163.696394 
L 305.154445 -166.056776 
L 304.105511 -168.417158 
L 303.13518 -170.77754 
L 302.262257 -173.137922 
L 301.504147 -175.498304 
L 300.876192 -177.858686 
L 300.391055 -180.219068 
L 300.058205 -182.57945 
L 299.883509 -184.939831 
L 299.868984 -187.300213 
L 300.01271 -189.660595 
L 300.308921 -192.020977 
L 300.748269 -194.381359 
L 301.318255 -196.741741 
L 302.003799 -199.102123 
L 302.787917 -201.462505 
L 303.652466 -203.822887 
L 304.578924 -206.183269 
L 305.549145 -208.543651 
L 306.546056 -210.904033 
L 307.554265 -213.264415 
L 308.56053 -215.624797 
L 309.554092 -217.985179 
L 310.526843 -220.345561 
L 311.473343 -222.705943 
L 312.39068 -225.066325 
L 313.278209 -227.426707 
L 314.137188 -229.787089 
L 314.970338 -232.147471 
L 315.781367 -234.507853 
L 316.574486 -236.868235 
L 317.353952 -239.228617 
L 318.123661 -241.588999 
L 318.88681 -243.949381 
L 319.64565 -246.309763 
L 320.401325 -248.670145 
L 321.15381 -251.030527 
L 321.901936 -253.390909 
L 322.643488 -255.751291 
L 323.375374 -258.111673 
L 324.093827 -260.472055 
L 324.794647 -262.832437 
L 325.473447 -265.192819 
L 326.125892 -267.553201 
L 326.747917 -269.913583 
L 327.335918 -272.273965 
L 327.886899 -274.634347 
L 328.398574 -276.994729 
L 328.86943 -279.355111 
L 329.298744 -281.715493 
L 329.686557 -284.075875 
L 330.033624 -286.436257 
L 330.341329 -288.796639 
L 330.61159 -291.157021 
L 330.846748 -293.517403 
L 331.049453 -295.877785 
L 332.938983 -295.877785 
L 332.938983 -295.877785 
L 333.141688 -293.517403 
L 333.376845 -291.157021 
L 333.647107 -288.796639 
L 333.954812 -286.436257 
L 334.301879 -284.075875 
L 334.689692 -281.715493 
L 335.119006 -279.355111 
L 335.589862 -276.994729 
L 336.101537 -274.634347 
L 336.652517 -272.273965 
L 337.240519 -269.913583 
L 337.862544 -267.553201 
L 338.514988 -265.192819 
L 339.193789 -262.832437 
L 339.894609 -260.472055 
L 340.613062 -258.111673 
L 341.344947 -255.751291 
L 342.0865 -253.390909 
L 342.834626 -251.030527 
L 343.587111 -248.670145 
L 344.342785 -246.309763 
L 345.101625 -243.949381 
L 345.864775 -241.588999 
L 346.634484 -239.228617 
L 347.41395 -236.868235 
L 348.207069 -234.507853 
L 349.018098 -232.147471 
L 349.851248 -229.787089 
L 350.710227 -227.426707 
L 351.597756 -225.066325 
L 352.515093 -222.705943 
L 353.461592 -220.345561 
L 354.434344 -217.985179 
L 355.427906 -215.624797 
L 356.434171 -213.264415 
L 357.442379 -210.904033 
L 358.439291 -208.543651 
L 359.409511 -206.183269 
L 360.33597 -203.822887 
L 361.200519 -201.462505 
L 361.984636 -199.102123 
L 362.670181 -196.741741 
L 363.240167 -194.381359 
L 363.679515 -192.020977 
L 363.975725 -189.660595 
L 364.119452 -187.300213 
L 364.104927 -184.939831 
L 363.930231 -182.57945 
L 363.59738 -180.219068 
L 363.112244 -177.858686 
L 362.484288 -175.498304 
L 361.726179 -173.137922 
L 360.853256 -170.77754 
L 359.882924 -168.417158 
L 358.83399 -166.056776 
L 357.725972 -163.696394 
L 356.578437 -161.336012 
L 355.41037 -158.97563 
L 354.23962 -156.615248 
L 353.082431 -154.254866 
L 351.953065 -151.894484 
L 350.863532 -149.534102 
L 349.823428 -147.17372 
L 348.839862 -144.813338 
L 347.917478 -142.452956 
L 347.058565 -140.092574 
L 346.26322 -137.732192 
L 345.529584 -135.37181 
L 344.854116 -133.011428 
L 344.231898 -130.651046 
L 343.656965 -128.290664 
L 343.122644 -125.930282 
L 342.621892 -123.5699 
L 342.14762 -121.209518 
L 341.692997 -118.849136 
L 341.251723 -116.488754 
L 340.818256 -114.128372 
L 340.387994 -111.76799 
L 339.95741 -109.407608 
L 339.524114 -107.047226 
L 339.086874 -104.686844 
L 338.645574 -102.326462 
L 338.201119 -99.96608 
L 337.755305 -97.605698 
L 337.31065 -95.245316 
L 336.870202 -92.884934 
L 336.43734 -90.524552 
L 336.015573 -88.16417 
L 335.608351 -85.803788 
L 335.218895 -83.443406 
L 334.850056 -81.083024 
L 334.504207 -78.722642 
L 334.183171 -76.36226 
L 333.888179 -74.001878 
L 333.619866 -71.641496 
L 333.378294 -69.281114 
L 333.163004 -66.920732 
L 332.973074 -64.56035 
L 332.807205 -62.199968 
z
" style="stroke: #3f3f3f; stroke-width: 1.25"/>
    </defs>
    <g clip-path="url(#pb175e65862)">
     <use xlink:href="#m55a9cd3b69" x="0" y="360" style="fill: #e1812c; stroke: #3f3f3f; stroke-width: 1.25"/>
    </g>
   </g>
   <g id="line2d_10">
    <path d="M 107.117582 210.825761 
L 107.117582 161.090542 
" clip-path="url(#pb175e65862)" style="fill: none; stroke: #3f3f3f; stroke-width: 1.875; stroke-linecap: round"/>
   </g>
   <g id="line2d_11">
    <path d="M 107.117582 191.635219 
L 107.117582 162.922873 
" clip-path="url(#pb175e65862)" style="fill: none; stroke: #3f3f3f; stroke-width: 5.625; stroke-linecap: round"/>
   </g>
   <g id="line2d_12">
    <path d="M 107.117582 176.04552 
" clip-path="url(#pb175e65862)" style="fill: none; stroke: #3f3f3f; stroke-width: 1.5; stroke-linecap: round"/>
    <defs>
     <path id="m15443eed69" d="M 2.34375 0 
L -2.34375 -0 
" style="stroke: #ffffff; stroke-width: 1.125"/>
    </defs>
    <g clip-path="url(#pb175e65862)">
     <use xlink:href="#m15443eed69" x="107.117582" y="176.04552" style="fill: #ffffff; stroke: #ffffff; stroke-width: 1.125"/>
    </g>
   </g>
   <g id="line2d_13">
    <path d="M 171.368049 231.120776 
L 171.368049 158.023137 
" clip-path="url(#pb175e65862)" style="fill: none; stroke: #3f3f3f; stroke-width: 1.875; stroke-linecap: round"/>
   </g>
   <g id="line2d_14">
    <path d="M 171.368049 223.390041 
L 171.368049 160.15218 
" clip-path="url(#pb175e65862)" style="fill: none; stroke: #3f3f3f; stroke-width: 5.625; stroke-linecap: round"/>
   </g>
   <g id="line2d_15">
    <path d="M 171.368049 192.469846 
" clip-path="url(#pb175e65862)" style="fill: none; stroke: #3f3f3f; stroke-width: 1.5; stroke-linecap: round"/>
    <g clip-path="url(#pb175e65862)">
     <use xlink:href="#m15443eed69" x="171.368049" y="192.469846" style="fill: #ffffff; stroke: #ffffff; stroke-width: 1.125"/>
    </g>
   </g>
   <g id="line2d_16">
    <path d="M 267.74375 190.433163 
L 267.74375 118.317243 
" clip-path="url(#pb175e65862)" style="fill: none; stroke: #3f3f3f; stroke-width: 1.875; stroke-linecap: round"/>
   </g>
   <g id="line2d_17">
    <path d="M 267.74375 184.425145 
L 267.74375 147.824433 
" clip-path="url(#pb175e65862)" style="fill: none; stroke: #3f3f3f; stroke-width: 5.625; stroke-linecap: round"/>
   </g>
   <g id="line2d_18">
    <path d="M 267.74375 167.423175 
" clip-path="url(#pb175e65862)" style="fill: none; stroke: #3f3f3f; stroke-width: 1.5; stroke-linecap: round"/>
    <g clip-path="url(#pb175e65862)">
     <use xlink:href="#m15443eed69" x="267.74375" y="167.423175" style="fill: #ffffff; stroke: #ffffff; stroke-width: 1.125"/>
    </g>
   </g>
   <g id="line2d_19">
    <path d="M 331.994218 210.653384 
L 331.994218 132.896541 
" clip-path="url(#pb175e65862)" style="fill: none; stroke: #3f3f3f; stroke-width: 1.875; stroke-linecap: round"/>
   </g>
   <g id="line2d_20">
    <path d="M 331.994218 187.357667 
L 331.994218 163.228158 
" clip-path="url(#pb175e65862)" style="fill: none; stroke: #3f3f3f; stroke-width: 5.625; stroke-linecap: round"/>
   </g>
   <g id="line2d_21">
    <path d="M 331.994218 173.645235 
" clip-path="url(#pb175e65862)" style="fill: none; stroke: #3f3f3f; stroke-width: 1.5; stroke-linecap: round"/>
    <g clip-path="url(#pb175e65862)">
     <use xlink:href="#m15443eed69" x="331.994218" y="173.645235" style="fill: #ffffff; stroke: #ffffff; stroke-width: 1.125"/>
    </g>
   </g>
   <g id="patch_3">
    <path d="M 58.929731 318.04 
L 58.929731 24.72 
" style="fill: none; stroke: #cccccc; stroke-width: 0.8; stroke-linejoin: miter; stroke-linecap: square"/>
   </g>
   <g id="patch_4">
    <path d="M 58.929731 318.04 
L 380.182068 318.04 
" style="fill: none; stroke: #cccccc; stroke-width: 0.8; stroke-linejoin: miter; stroke-linecap: square"/>
   </g>
   <g id="text_14">
    <!-- sex = f -->
    <g style="fill: #262626" transform="translate(204.687931 18.72) scale(0.1 -0.1)">
     <defs>
      <path id="ArialMT-78" d="M 47 0 
L 1259 1725 
L 138 3319 
L 841 3319 
L 1350 2541 
Q 1494 2319 1581 2169 
Q 1719 2375 1834 2534 
L 2394 3319 
L 3066 3319 
L 1919 1756 
L 3153 0 
L 2463 0 
L 1781 1031 
L 1600 1309 
L 728 0 
L 47 0 
z
" transform="scale(0.015625)"/>
      <path id="ArialMT-3d" d="M 3381 2694 
L 356 2694 
L 356 3219 
L 3381 3219 
L 3381 2694 
z
M 3381 1303 
L 356 1303 
L 356 1828 
L 3381 1828 
L 3381 1303 
z
" transform="scale(0.015625)"/>
      <path id="ArialMT-66" d="M 556 0 
L 556 2881 
L 59 2881 
L 59 3319 
L 556 3319 
L 556 3672 
Q 556 4006 616 4169 
Q 697 4388 901 4523 
Q 1106 4659 1475 4659 
Q 1713 4659 2000 4603 
L 1916 4113 
Q 1741 4144 1584 4144 
Q 1328 4144 1222 4034 
Q 1116 3925 1116 3625 
L 1116 3319 
L 1763 3319 
L 1763 2881 
L 1116 2881 
L 1116 0 
L 556 0 
z
" transform="scale(0.015625)"/>
     </defs>
     <use xlink:href="#ArialMT-73"/>
     <use xlink:href="#ArialMT-65" x="50"/>
     <use xlink:href="#ArialMT-78" x="105.615234"/>
     <use xlink:href="#ArialMT-20" x="155.615234"/>
     <use xlink:href="#ArialMT-3d" x="183.398438"/>
     <use xlink:href="#ArialMT-20" x="241.796875"/>
     <use xlink:href="#ArialMT-66" x="269.580078"/>
    </g>
   </g>
  </g>
  <g id="axes_2">
   <g id="patch_5">
    <path d="M 390.958163 318.04 
L 712.2105 318.04 
L 712.2105 24.72 
L 390.958163 24.72 
z
" style="fill: #ffffff"/>
   </g>
   <g id="matplotlib.axis_3">
    <g id="xtick_3">
     <g id="text_15">
      <!-- Baia -->
      <g style="fill: #262626" transform="translate(461.264216 332.197812) scale(0.1 -0.1)">
       <use xlink:href="#ArialMT-42"/>
       <use xlink:href="#ArialMT-61" x="66.699219"/>
       <use xlink:href="#ArialMT-69" x="122.314453"/>
       <use xlink:href="#ArialMT-61" x="144.53125"/>
      </g>
     </g>
    </g>
    <g id="xtick_4">
     <g id="text_16">
      <!-- Jurilovca -->
      <g style="fill: #262626" transform="translate(612.169291 332.197812) scale(0.1 -0.1)">
       <use xlink:href="#ArialMT-4a"/>
       <use xlink:href="#ArialMT-75" x="50"/>
       <use xlink:href="#ArialMT-72" x="105.615234"/>
       <use xlink:href="#ArialMT-69" x="138.916016"/>
       <use xlink:href="#ArialMT-6c" x="161.132812"/>
       <use xlink:href="#ArialMT-6f" x="183.349609"/>
       <use xlink:href="#ArialMT-76" x="238.964844"/>
       <use xlink:href="#ArialMT-63" x="288.964844"/>
       <use xlink:href="#ArialMT-61" x="338.964844"/>
      </g>
     </g>
    </g>
    <g id="text_17">
     <!-- Location -->
     <g style="fill: #262626" transform="translate(532.681988 345.343125) scale(0.1 -0.1)">
      <use xlink:href="#ArialMT-4c"/>
      <use xlink:href="#ArialMT-6f" x="55.615234"/>
      <use xlink:href="#ArialMT-63" x="111.230469"/>
      <use xlink:href="#ArialMT-61" x="161.230469"/>
      <use xlink:href="#ArialMT-74" x="216.845703"/>
      <use xlink:href="#ArialMT-69" x="244.628906"/>
      <use xlink:href="#ArialMT-6f" x="266.845703"/>
      <use xlink:href="#ArialMT-6e" x="322.460938"/>
     </g>
    </g>
   </g>
   <g id="matplotlib.axis_4">
    <g id="ytick_10">
     <g id="line2d_22">
      <path d="M 390.958163 301.686132 
L 712.2105 301.686132 
" clip-path="url(#pcee0dab0ed)" style="fill: none; stroke: #cccccc; stroke-width: 0.8; stroke-linecap: round"/>
     </g>
    </g>
    <g id="ytick_11">
     <g id="line2d_23">
      <path d="M 390.958163 267.255944 
L 712.2105 267.255944 
" clip-path="url(#pcee0dab0ed)" style="fill: none; stroke: #cccccc; stroke-width: 0.8; stroke-linecap: round"/>
     </g>
    </g>
    <g id="ytick_12">
     <g id="line2d_24">
      <path d="M 390.958163 232.825757 
L 712.2105 232.825757 
" clip-path="url(#pcee0dab0ed)" style="fill: none; stroke: #cccccc; stroke-width: 0.8; stroke-linecap: round"/>
     </g>
    </g>
    <g id="ytick_13">
     <g id="line2d_25">
      <path d="M 390.958163 198.395569 
L 712.2105 198.395569 
" clip-path="url(#pcee0dab0ed)" style="fill: none; stroke: #cccccc; stroke-width: 0.8; stroke-linecap: round"/>
     </g>
    </g>
    <g id="ytick_14">
     <g id="line2d_26">
      <path d="M 390.958163 163.965381 
L 712.2105 163.965381 
" clip-path="url(#pcee0dab0ed)" style="fill: none; stroke: #cccccc; stroke-width: 0.8; stroke-linecap: round"/>
     </g>
    </g>
    <g id="ytick_15">
     <g id="line2d_27">
      <path d="M 390.958163 129.535194 
L 712.2105 129.535194 
" clip-path="url(#pcee0dab0ed)" style="fill: none; stroke: #cccccc; stroke-width: 0.8; stroke-linecap: round"/>
     </g>
    </g>
    <g id="ytick_16">
     <g id="line2d_28">
      <path d="M 390.958163 95.105006 
L 712.2105 95.105006 
" clip-path="url(#pcee0dab0ed)" style="fill: none; stroke: #cccccc; stroke-width: 0.8; stroke-linecap: round"/>
     </g>
    </g>
    <g id="ytick_17">
     <g id="line2d_29">
      <path d="M 390.958163 60.674818 
L 712.2105 60.674818 
" clip-path="url(#pcee0dab0ed)" style="fill: none; stroke: #cccccc; stroke-width: 0.8; stroke-linecap: round"/>
     </g>
    </g>
    <g id="ytick_18">
     <g id="line2d_30">
      <path d="M 390.958163 26.244631 
L 712.2105 26.244631 
" clip-path="url(#pcee0dab0ed)" style="fill: none; stroke: #cccccc; stroke-width: 0.8; stroke-linecap: round"/>
     </g>
    </g>
   </g>
   <g id="PolyCollection_5">
    <defs>
     <path id="me5ed220f5c" d="M 439.84499 -109.24774 
L 438.447037 -109.24774 
L 438.277382 -111.229893 
L 438.076374 -113.212045 
L 437.840671 -115.194197 
L 437.567098 -117.17635 
L 437.252765 -119.158502 
L 436.895172 -121.140655 
L 436.492319 -123.122807 
L 436.042792 -125.10496 
L 435.545823 -127.087112 
L 435.001335 -129.069264 
L 434.409934 -131.051417 
L 433.772881 -133.033569 
L 433.092023 -135.015722 
L 432.369695 -136.997874 
L 431.608594 -138.980027 
L 430.81165 -140.962179 
L 429.981879 -142.944331 
L 429.122259 -144.926484 
L 428.235618 -146.908636 
L 427.324562 -148.890789 
L 426.391433 -150.872941 
L 425.438327 -152.855094 
L 424.467144 -154.837246 
L 423.479687 -156.819398 
L 422.477803 -158.801551 
L 421.463539 -160.783703 
L 420.439313 -162.765856 
L 419.408091 -164.748008 
L 418.373534 -166.73016 
L 417.340119 -168.712313 
L 416.31322 -170.694465 
L 415.299132 -172.676618 
L 414.305038 -174.65877 
L 413.338924 -176.640923 
L 412.409432 -178.623075 
L 411.525663 -180.605227 
L 410.696945 -182.58738 
L 409.932569 -184.569532 
L 409.241503 -186.551685 
L 408.632111 -188.533837 
L 408.111881 -190.51599 
L 407.687173 -192.498142 
L 407.363007 -194.480294 
L 407.142899 -196.462447 
L 407.028746 -198.444599 
L 407.02078 -200.426752 
L 407.117574 -202.408904 
L 407.316119 -204.391056 
L 407.611947 -206.373209 
L 407.999307 -208.355361 
L 408.471374 -210.337514 
L 409.020482 -212.319666 
L 409.638357 -214.301819 
L 410.316361 -216.283971 
L 411.045699 -218.266123 
L 411.81762 -220.248276 
L 412.623571 -222.230428 
L 413.455331 -224.212581 
L 414.305113 -226.194733 
L 415.165646 -228.176886 
L 416.03024 -230.159038 
L 416.89284 -232.14119 
L 417.748089 -234.123343 
L 418.591384 -236.105495 
L 419.418934 -238.087648 
L 420.227822 -240.0698 
L 421.016049 -242.051953 
L 421.782561 -244.034105 
L 422.527255 -246.016257 
L 423.25093 -247.99841 
L 423.955204 -249.980562 
L 424.642384 -251.962715 
L 425.315276 -253.944867 
L 425.976976 -255.927019 
L 426.630621 -257.909172 
L 427.279138 -259.891324 
L 427.925001 -261.873477 
L 428.570016 -263.855629 
L 429.21515 -265.837782 
L 429.860421 -267.819934 
L 430.504854 -269.802086 
L 431.146509 -271.784239 
L 431.782571 -273.766391 
L 432.409507 -275.748544 
L 433.023263 -277.730696 
L 433.61949 -279.712849 
L 434.193789 -281.695001 
L 434.741941 -283.677153 
L 435.260127 -285.659306 
L 435.7451 -287.641458 
L 436.194326 -289.623611 
L 436.606066 -291.605763 
L 436.979416 -293.587915 
L 437.314294 -295.570068 
L 437.611386 -297.55222 
L 437.872062 -299.534373 
L 438.098265 -301.516525 
L 438.292382 -303.498678 
L 438.457122 -305.48083 
L 439.834905 -305.48083 
L 439.834905 -305.48083 
L 439.999645 -303.498678 
L 440.193762 -301.516525 
L 440.419965 -299.534373 
L 440.680641 -297.55222 
L 440.977733 -295.570068 
L 441.312611 -293.587915 
L 441.685961 -291.605763 
L 442.097701 -289.623611 
L 442.546927 -287.641458 
L 443.0319 -285.659306 
L 443.550085 -283.677153 
L 444.098238 -281.695001 
L 444.672537 -279.712849 
L 445.268764 -277.730696 
L 445.88252 -275.748544 
L 446.509456 -273.766391 
L 447.145518 -271.784239 
L 447.787173 -269.802086 
L 448.431606 -267.819934 
L 449.076877 -265.837782 
L 449.722011 -263.855629 
L 450.367026 -261.873477 
L 451.012889 -259.891324 
L 451.661406 -257.909172 
L 452.315051 -255.927019 
L 452.976751 -253.944867 
L 453.649643 -251.962715 
L 454.336822 -249.980562 
L 455.041097 -247.99841 
L 455.764772 -246.016257 
L 456.509466 -244.034105 
L 457.275978 -242.051953 
L 458.064204 -240.0698 
L 458.873092 -238.087648 
L 459.700643 -236.105495 
L 460.543938 -234.123343 
L 461.399187 -232.14119 
L 462.261787 -230.159038 
L 463.12638 -228.176886 
L 463.986914 -226.194733 
L 464.836696 -224.212581 
L 465.668456 -222.230428 
L 466.474407 -220.248276 
L 467.246328 -218.266123 
L 467.975666 -216.283971 
L 468.65367 -214.301819 
L 469.271545 -212.319666 
L 469.820652 -210.337514 
L 470.29272 -208.355361 
L 470.68008 -206.373209 
L 470.975908 -204.391056 
L 471.174453 -202.408904 
L 471.271247 -200.426752 
L 471.263281 -198.444599 
L 471.149128 -196.462447 
L 470.92902 -194.480294 
L 470.604854 -192.498142 
L 470.180146 -190.51599 
L 469.659916 -188.533837 
L 469.050524 -186.551685 
L 468.359458 -184.569532 
L 467.595081 -182.58738 
L 466.766364 -180.605227 
L 465.882595 -178.623075 
L 464.953103 -176.640923 
L 463.986989 -174.65877 
L 462.992895 -172.676618 
L 461.978807 -170.694465 
L 460.951907 -168.712313 
L 459.918493 -166.73016 
L 458.883935 -164.748008 
L 457.852714 -162.765856 
L 456.828488 -160.783703 
L 455.814223 -158.801551 
L 454.81234 -156.819398 
L 453.824883 -154.837246 
L 452.853699 -152.855094 
L 451.900594 -150.872941 
L 450.967465 -148.890789 
L 450.056409 -146.908636 
L 449.169768 -144.926484 
L 448.310148 -142.944331 
L 447.480377 -140.962179 
L 446.683432 -138.980027 
L 445.922332 -136.997874 
L 445.200003 -135.015722 
L 444.519146 -133.033569 
L 443.882093 -131.051417 
L 443.290692 -129.069264 
L 442.746203 -127.087112 
L 442.249235 -125.10496 
L 441.799707 -123.122807 
L 441.396855 -121.140655 
L 441.039262 -119.158502 
L 440.724929 -117.17635 
L 440.451356 -115.194197 
L 440.215653 -113.212045 
L 440.014645 -111.229893 
L 439.84499 -109.24774 
z
" style="stroke: #3f3f3f; stroke-width: 1.25"/>
    </defs>
    <g clip-path="url(#pcee0dab0ed)">
     <use xlink:href="#me5ed220f5c" x="0" y="360" style="fill: #3274a1; stroke: #3f3f3f; stroke-width: 1.25"/>
    </g>
   </g>
   <g id="PolyCollection_6">
    <defs>
     <path id="m0606ad3d3b" d="M 504.792688 -126.932447 
L 502.000274 -126.932447 
L 501.666375 -128.348542 
L 501.271 -129.764638 
L 500.807442 -131.180734 
L 500.269295 -132.59683 
L 499.650702 -134.012925 
L 498.946624 -135.429021 
L 498.153119 -136.845117 
L 497.267611 -138.261212 
L 496.289141 -139.677308 
L 495.218587 -141.093404 
L 494.05884 -142.5095 
L 492.81492 -143.925595 
L 491.49403 -145.341691 
L 490.105544 -146.757787 
L 488.660917 -148.173882 
L 487.173538 -149.589978 
L 485.658506 -151.006074 
L 484.132365 -152.42217 
L 482.612784 -153.838265 
L 481.118213 -155.254361 
L 479.66751 -156.670457 
L 478.279561 -158.086552 
L 476.9729 -159.502648 
L 475.765333 -160.918744 
L 474.673572 -162.33484 
L 473.712894 -163.750935 
L 472.896813 -165.167031 
L 472.236783 -166.583127 
L 471.74193 -167.999222 
L 471.418816 -169.415318 
L 471.271247 -170.831414 
L 471.300131 -172.24751 
L 471.503394 -173.663605 
L 471.87596 -175.079701 
L 472.409808 -176.495797 
L 473.09411 -177.911892 
L 473.915448 -179.327988 
L 474.858115 -180.744084 
L 475.904491 -182.16018 
L 477.035488 -183.576275 
L 478.23104 -184.992371 
L 479.470631 -186.408467 
L 480.733836 -187.824562 
L 482.000849 -189.240658 
L 483.252981 -190.656754 
L 484.473106 -192.07285 
L 485.646043 -193.488945 
L 486.758847 -194.905041 
L 487.801019 -196.321137 
L 488.764613 -197.737232 
L 489.644258 -199.153328 
L 490.437082 -200.569424 
L 491.14257 -201.98552 
L 491.762348 -203.401615 
L 492.29992 -204.817711 
L 492.760367 -206.233807 
L 493.150031 -207.649903 
L 493.476196 -209.065998 
L 493.74677 -210.482094 
L 493.97 -211.89819 
L 494.154207 -213.314285 
L 494.307563 -214.730381 
L 494.437911 -216.146477 
L 494.552613 -217.562573 
L 494.658451 -218.978668 
L 494.761556 -220.394764 
L 494.867368 -221.81086 
L 494.980621 -223.226955 
L 495.105345 -224.643051 
L 495.244881 -226.059147 
L 495.401899 -227.475243 
L 495.578423 -228.891338 
L 495.775848 -230.307434 
L 495.994958 -231.72353 
L 496.235943 -233.139625 
L 496.498418 -234.555721 
L 496.781432 -235.971817 
L 497.083498 -237.387913 
L 497.402624 -238.804008 
L 497.736352 -240.220104 
L 498.081818 -241.6362 
L 498.435822 -243.052295 
L 498.794913 -244.468391 
L 499.155485 -245.884487 
L 499.513881 -247.300583 
L 499.866502 -248.716678 
L 500.209913 -250.132774 
L 500.540945 -251.54887 
L 500.856779 -252.964965 
L 501.155022 -254.381061 
L 501.433757 -255.797157 
L 501.691575 -257.213253 
L 501.927582 -258.629348 
L 502.141389 -260.045444 
L 502.333078 -261.46154 
L 502.503155 -262.877635 
L 502.652491 -264.293731 
L 502.782257 -265.709827 
L 502.893848 -267.125923 
L 503.899114 -267.125923 
L 503.899114 -267.125923 
L 504.010704 -265.709827 
L 504.14047 -264.293731 
L 504.289807 -262.877635 
L 504.459884 -261.46154 
L 504.651573 -260.045444 
L 504.865379 -258.629348 
L 505.101387 -257.213253 
L 505.359205 -255.797157 
L 505.63794 -254.381061 
L 505.936183 -252.964965 
L 506.252017 -251.54887 
L 506.583049 -250.132774 
L 506.92646 -248.716678 
L 507.279081 -247.300583 
L 507.637477 -245.884487 
L 507.998048 -244.468391 
L 508.357139 -243.052295 
L 508.711143 -241.6362 
L 509.056609 -240.220104 
L 509.390337 -238.804008 
L 509.709463 -237.387913 
L 510.01153 -235.971817 
L 510.294544 -234.555721 
L 510.557018 -233.139625 
L 510.798004 -231.72353 
L 511.017114 -230.307434 
L 511.214538 -228.891338 
L 511.391062 -227.475243 
L 511.548081 -226.059147 
L 511.687617 -224.643051 
L 511.812341 -223.226955 
L 511.925594 -221.81086 
L 512.031406 -220.394764 
L 512.134511 -218.978668 
L 512.240349 -217.562573 
L 512.355051 -216.146477 
L 512.485398 -214.730381 
L 512.638755 -213.314285 
L 512.822962 -211.89819 
L 513.046191 -210.482094 
L 513.316765 -209.065998 
L 513.64293 -207.649903 
L 514.032595 -206.233807 
L 514.493042 -204.817711 
L 515.030613 -203.401615 
L 515.650392 -201.98552 
L 516.35588 -200.569424 
L 517.148704 -199.153328 
L 518.028348 -197.737232 
L 518.991943 -196.321137 
L 520.034115 -194.905041 
L 521.146919 -193.488945 
L 522.319856 -192.07285 
L 523.539981 -190.656754 
L 524.792112 -189.240658 
L 526.059125 -187.824562 
L 527.322331 -186.408467 
L 528.561922 -184.992371 
L 529.757474 -183.576275 
L 530.88847 -182.16018 
L 531.934847 -180.744084 
L 532.877513 -179.327988 
L 533.698851 -177.911892 
L 534.383154 -176.495797 
L 534.917002 -175.079701 
L 535.289568 -173.663605 
L 535.49283 -172.24751 
L 535.521715 -170.831414 
L 535.374145 -169.415318 
L 535.051031 -167.999222 
L 534.556178 -166.583127 
L 533.896149 -165.167031 
L 533.080068 -163.750935 
L 532.11939 -162.33484 
L 531.027629 -160.918744 
L 529.820062 -159.502648 
L 528.513401 -158.086552 
L 527.125452 -156.670457 
L 525.674749 -155.254361 
L 524.180178 -153.838265 
L 522.660597 -152.42217 
L 521.134456 -151.006074 
L 519.619424 -149.589978 
L 518.132045 -148.173882 
L 516.687418 -146.757787 
L 515.298931 -145.341691 
L 513.978041 -143.925595 
L 512.734121 -142.5095 
L 511.574375 -141.093404 
L 510.503821 -139.677308 
L 509.525351 -138.261212 
L 508.639843 -136.845117 
L 507.846338 -135.429021 
L 507.14226 -134.012925 
L 506.523667 -132.59683 
L 505.98552 -131.180734 
L 505.521962 -129.764638 
L 505.126586 -128.348542 
L 504.792688 -126.932447 
z
" style="stroke: #3f3f3f; stroke-width: 1.25"/>
    </defs>
    <g clip-path="url(#pcee0dab0ed)">
     <use xlink:href="#m0606ad3d3b" x="0" y="360" style="fill: #e1812c; stroke: #3f3f3f; stroke-width: 1.25"/>
    </g>
   </g>
   <g id="PolyCollection_7">
    <defs>
     <path id="m621463ec87" d="M 600.421609 -55.292727 
L 599.122755 -55.292727 
L 598.993034 -57.986208 
L 598.843683 -60.679688 
L 598.673019 -63.373168 
L 598.479436 -66.066648 
L 598.261438 -68.760129 
L 598.017676 -71.453609 
L 597.746976 -74.147089 
L 597.448362 -76.840569 
L 597.121073 -79.53405 
L 596.764573 -82.22753 
L 596.378554 -84.92101 
L 595.962928 -87.61449 
L 595.517818 -90.307971 
L 595.043539 -93.001451 
L 594.540581 -95.694931 
L 594.009587 -98.388411 
L 593.45134 -101.081892 
L 592.866752 -103.775372 
L 592.256858 -106.468852 
L 591.622827 -109.162332 
L 590.965972 -111.855813 
L 590.287784 -114.549293 
L 589.589963 -117.242773 
L 588.874459 -119.936253 
L 588.143526 -122.629734 
L 587.399764 -125.323214 
L 586.646164 -128.016694 
L 585.886149 -130.710174 
L 585.123598 -133.403655 
L 584.362859 -136.097135 
L 583.608747 -138.790615 
L 582.866521 -141.484096 
L 582.141841 -144.177576 
L 581.44071 -146.871056 
L 580.769397 -149.564536 
L 580.134337 -152.258017 
L 579.542025 -154.951497 
L 578.998891 -157.644977 
L 578.511168 -160.338457 
L 578.08475 -163.031938 
L 577.725046 -165.725418 
L 577.436835 -168.418898 
L 577.224114 -171.112378 
L 577.089962 -173.805859 
L 577.036404 -176.499339 
L 577.064294 -179.192819 
L 577.173217 -181.886299 
L 577.36142 -184.57978 
L 577.625769 -187.27326 
L 577.96175 -189.96674 
L 578.363513 -192.66022 
L 578.82396 -195.353701 
L 579.334889 -198.047181 
L 579.887182 -200.740661 
L 580.471041 -203.434141 
L 581.076269 -206.127622 
L 581.692575 -208.821102 
L 582.309904 -211.514582 
L 582.91877 -214.208062 
L 583.510584 -216.901543 
L 584.077946 -219.595023 
L 584.614904 -222.288503 
L 585.117153 -224.981983 
L 585.582162 -227.675464 
L 586.00923 -230.368944 
L 586.399459 -233.062424 
L 586.755639 -235.755904 
L 587.082064 -238.449385 
L 587.384278 -241.142865 
L 587.668765 -243.836345 
L 587.942603 -246.529826 
L 588.213095 -249.223306 
L 588.487406 -251.916786 
L 588.772212 -254.610266 
L 589.073387 -257.303747 
L 589.395745 -259.997227 
L 589.742838 -262.690707 
L 590.116834 -265.384187 
L 590.518461 -268.077668 
L 590.947026 -270.771148 
L 591.400505 -273.464628 
L 591.875684 -276.158108 
L 592.36836 -278.851589 
L 592.873562 -281.545069 
L 593.385803 -284.238549 
L 593.899329 -286.932029 
L 594.408371 -289.62551 
L 594.907364 -292.31899 
L 595.391146 -295.01247 
L 595.855124 -297.70595 
L 596.295386 -300.399431 
L 596.708785 -303.092911 
L 597.092979 -305.786391 
L 597.446425 -308.479871 
L 597.768354 -311.173352 
L 598.058705 -313.866832 
L 598.318047 -316.560312 
L 598.547485 -319.253792 
L 598.748557 -321.947273 
L 600.795807 -321.947273 
L 600.795807 -321.947273 
L 600.996879 -319.253792 
L 601.226317 -316.560312 
L 601.485659 -313.866832 
L 601.77601 -311.173352 
L 602.097939 -308.479871 
L 602.451385 -305.786391 
L 602.835579 -303.092911 
L 603.248978 -300.399431 
L 603.68924 -297.70595 
L 604.153218 -295.01247 
L 604.637 -292.31899 
L 605.135993 -289.62551 
L 605.645035 -286.932029 
L 606.158561 -284.238549 
L 606.670802 -281.545069 
L 607.176004 -278.851589 
L 607.66868 -276.158108 
L 608.143859 -273.464628 
L 608.597338 -270.771148 
L 609.025903 -268.077668 
L 609.42753 -265.384187 
L 609.801526 -262.690707 
L 610.148619 -259.997227 
L 610.470977 -257.303747 
L 610.772152 -254.610266 
L 611.056957 -251.916786 
L 611.331269 -249.223306 
L 611.601761 -246.529826 
L 611.875599 -243.836345 
L 612.160086 -241.142865 
L 612.4623 -238.449385 
L 612.788725 -235.755904 
L 613.144905 -233.062424 
L 613.535134 -230.368944 
L 613.962202 -227.675464 
L 614.427211 -224.981983 
L 614.92946 -222.288503 
L 615.466418 -219.595023 
L 616.03378 -216.901543 
L 616.625594 -214.208062 
L 617.23446 -211.514582 
L 617.851789 -208.821102 
L 618.468095 -206.127622 
L 619.073323 -203.434141 
L 619.657182 -200.740661 
L 620.209475 -198.047181 
L 620.720404 -195.353701 
L 621.180851 -192.66022 
L 621.582614 -189.96674 
L 621.918595 -187.27326 
L 622.182944 -184.57978 
L 622.371147 -181.886299 
L 622.48007 -179.192819 
L 622.50796 -176.499339 
L 622.454402 -173.805859 
L 622.32025 -171.112378 
L 622.107529 -168.418898 
L 621.819318 -165.725418 
L 621.459614 -163.031938 
L 621.033196 -160.338457 
L 620.545473 -157.644977 
L 620.002339 -154.951497 
L 619.410027 -152.258017 
L 618.774967 -149.564536 
L 618.103654 -146.871056 
L 617.402523 -144.177576 
L 616.677843 -141.484096 
L 615.935617 -138.790615 
L 615.181505 -136.097135 
L 614.420766 -133.403655 
L 613.658215 -130.710174 
L 612.8982 -128.016694 
L 612.1446 -125.323214 
L 611.400838 -122.629734 
L 610.669905 -119.936253 
L 609.954401 -117.242773 
L 609.25658 -114.549293 
L 608.578392 -111.855813 
L 607.921537 -109.162332 
L 607.287506 -106.468852 
L 606.677612 -103.775372 
L 606.093024 -101.081892 
L 605.534777 -98.388411 
L 605.003783 -95.694931 
L 604.500825 -93.001451 
L 604.026546 -90.307971 
L 603.581436 -87.61449 
L 603.16581 -84.92101 
L 602.779791 -82.22753 
L 602.423291 -79.53405 
L 602.096002 -76.840569 
L 601.797388 -74.147089 
L 601.526688 -71.453609 
L 601.282926 -68.760129 
L 601.064928 -66.066648 
L 600.871345 -63.373168 
L 600.700681 -60.679688 
L 600.55133 -57.986208 
L 600.421609 -55.292727 
z
" style="stroke: #3f3f3f; stroke-width: 1.25"/>
    </defs>
    <g clip-path="url(#pcee0dab0ed)">
     <use xlink:href="#m621463ec87" x="0" y="360" style="fill: #3274a1; stroke: #3f3f3f; stroke-width: 1.25"/>
    </g>
   </g>
   <g id="PolyCollection_8">
    <defs>
     <path id="m4c722786bf" d="M 664.883404 -106.264202 
L 663.161895 -106.264202 
L 662.991812 -107.475028 
L 662.797202 -108.685853 
L 662.576459 -109.896679 
L 662.328243 -111.107505 
L 662.051541 -112.31833 
L 661.745723 -113.529156 
L 661.410597 -114.739981 
L 661.046432 -115.950807 
L 660.653982 -117.161632 
L 660.234472 -118.372458 
L 659.789571 -119.583283 
L 659.321336 -120.794109 
L 658.832133 -122.004934 
L 658.324543 -123.21576 
L 657.801239 -124.426586 
L 657.264866 -125.637411 
L 656.7179 -126.848237 
L 656.162526 -128.059062 
L 655.600511 -129.269888 
L 655.033106 -130.480713 
L 654.460966 -131.691539 
L 653.884102 -132.902364 
L 653.301876 -134.11319 
L 652.713025 -135.324016 
L 652.115731 -136.534841 
L 651.507725 -137.745667 
L 650.886432 -138.956492 
L 650.249137 -140.167318 
L 649.593179 -141.378143 
L 648.916151 -142.588969 
L 648.216117 -143.799794 
L 647.491802 -145.01062 
L 646.742781 -146.221445 
L 645.969636 -147.432271 
L 645.174071 -148.643097 
L 644.358994 -149.853922 
L 643.528541 -151.064748 
L 642.688052 -152.275573 
L 641.843992 -153.486399 
L 641.003819 -154.697224 
L 640.175802 -155.90805 
L 639.3688 -157.118875 
L 638.592004 -158.329701 
L 637.854653 -159.540526 
L 637.165747 -160.751352 
L 636.533752 -161.962178 
L 635.966325 -163.173003 
L 635.470069 -164.383829 
L 635.050324 -165.594654 
L 634.711009 -166.80548 
L 634.45453 -168.016305 
L 634.281743 -169.227131 
L 634.191988 -170.437956 
L 634.183187 -171.648782 
L 634.252001 -172.859607 
L 634.394041 -174.070433 
L 634.604116 -175.281259 
L 634.876508 -176.492084 
L 635.205265 -177.70291 
L 635.58448 -178.913735 
L 636.008563 -180.124561 
L 636.472467 -181.335386 
L 636.971876 -182.546212 
L 637.503336 -183.757037 
L 638.06432 -184.967863 
L 638.653227 -186.178689 
L 639.269324 -187.389514 
L 639.912619 -188.60034 
L 640.583689 -189.811165 
L 641.283471 -191.021991 
L 642.013019 -192.232816 
L 642.773263 -193.443642 
L 643.564763 -194.654467 
L 644.387496 -195.865293 
L 645.240663 -197.076118 
L 646.122562 -198.286944 
L 647.030497 -199.49777 
L 647.960759 -200.708595 
L 648.908662 -201.919421 
L 649.868636 -203.130246 
L 650.834374 -204.341072 
L 651.799015 -205.551897 
L 652.755362 -206.762723 
L 653.696116 -207.973548 
L 654.61411 -209.184374 
L 655.502538 -210.395199 
L 656.355164 -211.606025 
L 657.166494 -212.816851 
L 657.931918 -214.027676 
L 658.647809 -215.238502 
L 659.311571 -216.449327 
L 659.921651 -217.660153 
L 660.47751 -218.870978 
L 660.979556 -220.081804 
L 661.429052 -221.292629 
L 661.827998 -222.503455 
L 662.179004 -223.71428 
L 662.485154 -224.925106 
L 662.749871 -226.135932 
L 665.295428 -226.135932 
L 665.295428 -226.135932 
L 665.560145 -224.925106 
L 665.866295 -223.71428 
L 666.2173 -222.503455 
L 666.616246 -221.292629 
L 667.065742 -220.081804 
L 667.567789 -218.870978 
L 668.123648 -217.660153 
L 668.733728 -216.449327 
L 669.39749 -215.238502 
L 670.113381 -214.027676 
L 670.878805 -212.816851 
L 671.690135 -211.606025 
L 672.54276 -210.395199 
L 673.431189 -209.184374 
L 674.349183 -207.973548 
L 675.289937 -206.762723 
L 676.246284 -205.551897 
L 677.210925 -204.341072 
L 678.176663 -203.130246 
L 679.136637 -201.919421 
L 680.08454 -200.708595 
L 681.014802 -199.49777 
L 681.922737 -198.286944 
L 682.804636 -197.076118 
L 683.657803 -195.865293 
L 684.480535 -194.654467 
L 685.272036 -193.443642 
L 686.03228 -192.232816 
L 686.761828 -191.021991 
L 687.46161 -189.811165 
L 688.13268 -188.60034 
L 688.775975 -187.389514 
L 689.392071 -186.178689 
L 689.980979 -184.967863 
L 690.541962 -183.757037 
L 691.073423 -182.546212 
L 691.572832 -181.335386 
L 692.036736 -180.124561 
L 692.460818 -178.913735 
L 692.840034 -177.70291 
L 693.16879 -176.492084 
L 693.441183 -175.281259 
L 693.651257 -174.070433 
L 693.793298 -172.859607 
L 693.862112 -171.648782 
L 693.853311 -170.437956 
L 693.763556 -169.227131 
L 693.590769 -168.016305 
L 693.33429 -166.80548 
L 692.994975 -165.594654 
L 692.57523 -164.383829 
L 692.078973 -163.173003 
L 691.511547 -161.962178 
L 690.879552 -160.751352 
L 690.190646 -159.540526 
L 689.453295 -158.329701 
L 688.676499 -157.118875 
L 687.869497 -155.90805 
L 687.04148 -154.697224 
L 686.201307 -153.486399 
L 685.357247 -152.275573 
L 684.516758 -151.064748 
L 683.686305 -149.853922 
L 682.871228 -148.643097 
L 682.075663 -147.432271 
L 681.302518 -146.221445 
L 680.553497 -145.01062 
L 679.829182 -143.799794 
L 679.129147 -142.588969 
L 678.45212 -141.378143 
L 677.796161 -140.167318 
L 677.158866 -138.956492 
L 676.537574 -137.745667 
L 675.929568 -136.534841 
L 675.332274 -135.324016 
L 674.743423 -134.11319 
L 674.161197 -132.902364 
L 673.584333 -131.691539 
L 673.012192 -130.480713 
L 672.444788 -129.269888 
L 671.882773 -128.059062 
L 671.327399 -126.848237 
L 670.780433 -125.637411 
L 670.244059 -124.426586 
L 669.720756 -123.21576 
L 669.213166 -122.004934 
L 668.723963 -120.794109 
L 668.255728 -119.583283 
L 667.810827 -118.372458 
L 667.391317 -117.161632 
L 666.998867 -115.950807 
L 666.634702 -114.739981 
L 666.299575 -113.529156 
L 665.993758 -112.31833 
L 665.717055 -111.107505 
L 665.46884 -109.896679 
L 665.248097 -108.685853 
L 665.053487 -107.475028 
L 664.883404 -106.264202 
z
" style="stroke: #3f3f3f; stroke-width: 1.25"/>
    </defs>
    <g clip-path="url(#pcee0dab0ed)">
     <use xlink:href="#m4c722786bf" x="0" y="360" style="fill: #e1812c; stroke: #3f3f3f; stroke-width: 1.25"/>
    </g>
   </g>
   <g id="patch_6">
    <path d="M 471.271247 267.255944 
L 471.271247 267.255944 
L 471.271247 267.255944 
L 471.271247 267.255944 
z
" clip-path="url(#pcee0dab0ed)" style="fill: #3274a1; stroke: #3f3f3f; stroke-width: 1.25; stroke-linejoin: miter"/>
   </g>
   <g id="patch_7">
    <path d="M 471.271247 267.255944 
L 471.271247 267.255944 
L 471.271247 267.255944 
L 471.271247 267.255944 
z
" clip-path="url(#pcee0dab0ed)" style="fill: #e1812c; stroke: #3f3f3f; stroke-width: 1.25; stroke-linejoin: miter"/>
   </g>
   <g id="line2d_31">
    <path d="M 439.146013 212.212279 
L 439.146013 93.059151 
" clip-path="url(#pcee0dab0ed)" style="fill: none; stroke: #3f3f3f; stroke-width: 1.875; stroke-linecap: round"/>
   </g>
   <g id="line2d_32">
    <path d="M 439.146013 175.640783 
L 439.146013 132.910592 
" clip-path="url(#pcee0dab0ed)" style="fill: none; stroke: #3f3f3f; stroke-width: 5.625; stroke-linecap: round"/>
   </g>
   <g id="line2d_33">
    <path d="M 439.146013 155.507718 
" clip-path="url(#pcee0dab0ed)" style="fill: none; stroke: #3f3f3f; stroke-width: 1.5; stroke-linecap: round"/>
    <g clip-path="url(#pcee0dab0ed)">
     <use xlink:href="#m15443eed69" x="439.146013" y="155.507718" style="fill: #ffffff; stroke: #ffffff; stroke-width: 1.125"/>
    </g>
   </g>
   <g id="line2d_34">
    <path d="M 503.396481 204.307764 
L 503.396481 148.843979 
" clip-path="url(#pcee0dab0ed)" style="fill: none; stroke: #3f3f3f; stroke-width: 1.875; stroke-linecap: round"/>
   </g>
   <g id="line2d_35">
    <path d="M 503.396481 193.828719 
L 503.396481 171.610193 
" clip-path="url(#pcee0dab0ed)" style="fill: none; stroke: #3f3f3f; stroke-width: 5.625; stroke-linecap: round"/>
   </g>
   <g id="line2d_36">
    <path d="M 503.396481 185.42257 
" clip-path="url(#pcee0dab0ed)" style="fill: none; stroke: #3f3f3f; stroke-width: 1.5; stroke-linecap: round"/>
    <g clip-path="url(#pcee0dab0ed)">
     <use xlink:href="#m15443eed69" x="503.396481" y="185.42257" style="fill: #ffffff; stroke: #ffffff; stroke-width: 1.125"/>
    </g>
   </g>
   <g id="line2d_37">
    <path d="M 599.772182 243.678721 
L 599.772182 99.081279 
" clip-path="url(#pcee0dab0ed)" style="fill: none; stroke: #3f3f3f; stroke-width: 1.875; stroke-linecap: round"/>
   </g>
   <g id="line2d_38">
    <path d="M 599.772182 204.254641 
L 599.772182 156.802121 
" clip-path="url(#pcee0dab0ed)" style="fill: none; stroke: #3f3f3f; stroke-width: 5.625; stroke-linecap: round"/>
   </g>
   <g id="line2d_39">
    <path d="M 599.772182 170.119351 
" clip-path="url(#pcee0dab0ed)" style="fill: none; stroke: #3f3f3f; stroke-width: 1.5; stroke-linecap: round"/>
    <g clip-path="url(#pcee0dab0ed)">
     <use xlink:href="#m15443eed69" x="599.772182" y="170.119351" style="fill: #ffffff; stroke: #ffffff; stroke-width: 1.125"/>
    </g>
   </g>
   <g id="line2d_40">
    <path d="M 664.022649 226.669898 
L 664.022649 160.929968 
" clip-path="url(#pcee0dab0ed)" style="fill: none; stroke: #3f3f3f; stroke-width: 1.875; stroke-linecap: round"/>
   </g>
   <g id="line2d_41">
    <path d="M 664.022649 198.505749 
L 664.022649 176.507623 
" clip-path="url(#pcee0dab0ed)" style="fill: none; stroke: #3f3f3f; stroke-width: 5.625; stroke-linecap: round"/>
   </g>
   <g id="line2d_42">
    <path d="M 664.022649 190.325944 
" clip-path="url(#pcee0dab0ed)" style="fill: none; stroke: #3f3f3f; stroke-width: 1.5; stroke-linecap: round"/>
    <g clip-path="url(#pcee0dab0ed)">
     <use xlink:href="#m15443eed69" x="664.022649" y="190.325944" style="fill: #ffffff; stroke: #ffffff; stroke-width: 1.125"/>
    </g>
   </g>
   <g id="patch_8">
    <path d="M 390.958163 318.04 
L 390.958163 24.72 
" style="fill: none; stroke: #cccccc; stroke-width: 0.8; stroke-linejoin: miter; stroke-linecap: square"/>
   </g>
   <g id="patch_9">
    <path d="M 390.958163 318.04 
L 712.2105 318.04 
" style="fill: none; stroke: #cccccc; stroke-width: 0.8; stroke-linejoin: miter; stroke-linecap: square"/>
   </g>
   <g id="text_18">
    <!-- sex = m -->
    <g style="fill: #262626" transform="translate(533.940581 18.72) scale(0.1 -0.1)">
     <defs>
      <path id="ArialMT-6d" d="M 422 0 
L 422 3319 
L 925 3319 
L 925 2853 
Q 1081 3097 1340 3245 
Q 1600 3394 1931 3394 
Q 2300 3394 2536 3241 
Q 2772 3088 2869 2813 
Q 3263 3394 3894 3394 
Q 4388 3394 4653 3120 
Q 4919 2847 4919 2278 
L 4919 0 
L 4359 0 
L 4359 2091 
Q 4359 2428 4304 2576 
Q 4250 2725 4106 2815 
Q 3963 2906 3769 2906 
Q 3419 2906 3187 2673 
Q 2956 2441 2956 1928 
L 2956 0 
L 2394 0 
L 2394 2156 
Q 2394 2531 2256 2718 
Q 2119 2906 1806 2906 
Q 1569 2906 1367 2781 
Q 1166 2656 1075 2415 
Q 984 2175 984 1722 
L 984 0 
L 422 0 
z
" transform="scale(0.015625)"/>
     </defs>
     <use xlink:href="#ArialMT-73"/>
     <use xlink:href="#ArialMT-65" x="50"/>
     <use xlink:href="#ArialMT-78" x="105.615234"/>
     <use xlink:href="#ArialMT-20" x="155.615234"/>
     <use xlink:href="#ArialMT-3d" x="183.398438"/>
     <use xlink:href="#ArialMT-20" x="241.796875"/>
     <use xlink:href="#ArialMT-6d" x="269.580078"/>
    </g>
   </g>
  </g>
  <g id="legend_1">
   <g id="text_19">
    <!-- Time -->
    <g style="fill: #262626" transform="translate(733.633594 168.439844) scale(0.1 -0.1)">
     <defs>
      <path id="ArialMT-54" d="M 1659 0 
L 1659 4041 
L 150 4041 
L 150 4581 
L 3781 4581 
L 3781 4041 
L 2266 4041 
L 2266 0 
L 1659 0 
z
" transform="scale(0.015625)"/>
     </defs>
     <use xlink:href="#ArialMT-54"/>
     <use xlink:href="#ArialMT-69" x="57.333984"/>
     <use xlink:href="#ArialMT-6d" x="79.550781"/>
     <use xlink:href="#ArialMT-65" x="162.851562"/>
    </g>
   </g>
   <g id="patch_10">
    <path d="M 719.1625 182.585156 
L 739.1625 182.585156 
L 739.1625 175.585156 
L 719.1625 175.585156 
z
" style="fill: #3274a1; stroke: #3f3f3f; stroke-width: 1.25; stroke-linejoin: miter"/>
   </g>
   <g id="text_20">
    <!-- initial -->
    <g style="fill: #262626" transform="translate(747.1625 182.585156) scale(0.1 -0.1)">
     <use xlink:href="#ArialMT-69"/>
     <use xlink:href="#ArialMT-6e" x="22.216797"/>
     <use xlink:href="#ArialMT-69" x="77.832031"/>
     <use xlink:href="#ArialMT-74" x="100.048828"/>
     <use xlink:href="#ArialMT-69" x="127.832031"/>
     <use xlink:href="#ArialMT-61" x="150.048828"/>
     <use xlink:href="#ArialMT-6c" x="205.664062"/>
    </g>
   </g>
   <g id="patch_11">
    <path d="M 719.1625 196.730469 
L 739.1625 196.730469 
L 739.1625 189.730469 
L 719.1625 189.730469 
z
" style="fill: #e1812c; stroke: #3f3f3f; stroke-width: 1.25; stroke-linejoin: miter"/>
   </g>
   <g id="text_21">
    <!-- final -->
    <g style="fill: #262626" transform="translate(747.1625 196.730469) scale(0.1 -0.1)">
     <use xlink:href="#ArialMT-66"/>
     <use xlink:href="#ArialMT-69" x="27.783203"/>
     <use xlink:href="#ArialMT-6e" x="50"/>
     <use xlink:href="#ArialMT-61" x="105.615234"/>
     <use xlink:href="#ArialMT-6c" x="161.230469"/>
    </g>
   </g>
  </g>
 </g>
 <defs>
  <clipPath id="pb175e65862">
   <rect x="58.929731" y="24.72" width="321.252337" height="293.32"/>
  </clipPath>
  <clipPath id="pcee0dab0ed">
   <rect x="390.958163" y="24.72" width="321.252337" height="293.32"/>
  </clipPath>
 </defs>
</svg>
