<?xml version="1.0" encoding="utf-8" standalone="no"?>
<!DOCTYPE svg PUBLIC "-//W3C//DTD SVG 1.1//EN"
  "http://www.w3.org/Graphics/SVG/1.1/DTD/svg11.dtd">
<svg xmlns:xlink="http://www.w3.org/1999/xlink" width="778.95pt" height="360pt" viewBox="0 0 778.95 360" xmlns="http://www.w3.org/2000/svg" version="1.1">
 <metadata>
  <rdf:RDF xmlns:dc="http://purl.org/dc/elements/1.1/" xmlns:cc="http://creativecommons.org/ns#" xmlns:rdf="http://www.w3.org/1999/02/22-rdf-syntax-ns#">
   <cc:Work>
    <dc:type rdf:resource="http://purl.org/dc/dcmitype/StillImage"/>
    <dc:date>2024-09-10T22:04:35.122902</dc:date>
    <dc:format>image/svg+xml</dc:format>
    <dc:creator>
     <cc:Agent>
      <dc:title>Matplotlib v3.8.3, https://matplotlib.org/</dc:title>
     </cc:Agent>
    </dc:creator>
   </cc:Work>
  </rdf:RDF>
 </metadata>
 <defs>
  <style type="text/css">*{stroke-linejoin: round; stroke-linecap: butt}</style>
 </defs>
 <g id="figure_1">
  <g id="patch_1">
   <path d="M 0 360 
L 778.95 360 
L 778.95 0 
L 0 0 
z
" style="fill: #ffffff"/>
  </g>
  <g id="axes_1">
   <g id="patch_2">
    <path d="M 49.582331 318.04 
L 375.502454 318.04 
L 375.502454 24.72 
L 49.582331 24.72 
z
" style="fill: #ffffff"/>
   </g>
   <g id="matplotlib.axis_1">
    <g id="xtick_1">
     <g id="text_1">
      <!-- Jurilovca -->
      <g style="fill: #262626" transform="translate(111.334237 332.197812) scale(0.1 -0.1)">
       <defs>
        <path id="ArialMT-4a" d="M 184 1300 
L 731 1375 
Q 753 850 928 656 
Q 1103 463 1413 463 
Q 1641 463 1806 567 
Q 1972 672 2034 851 
Q 2097 1031 2097 1425 
L 2097 4581 
L 2703 4581 
L 2703 1459 
Q 2703 884 2564 568 
Q 2425 253 2123 87 
Q 1822 -78 1416 -78 
Q 813 -78 492 269 
Q 172 616 184 1300 
z
" transform="scale(0.015625)"/>
        <path id="ArialMT-75" d="M 2597 0 
L 2597 488 
Q 2209 -75 1544 -75 
Q 1250 -75 995 37 
Q 741 150 617 320 
Q 494 491 444 738 
Q 409 903 409 1263 
L 409 3319 
L 972 3319 
L 972 1478 
Q 972 1038 1006 884 
Q 1059 663 1231 536 
Q 1403 409 1656 409 
Q 1909 409 2131 539 
Q 2353 669 2445 892 
Q 2538 1116 2538 1541 
L 2538 3319 
L 3100 3319 
L 3100 0 
L 2597 0 
z
" transform="scale(0.015625)"/>
        <path id="ArialMT-72" d="M 416 0 
L 416 3319 
L 922 3319 
L 922 2816 
Q 1116 3169 1280 3281 
Q 1444 3394 1641 3394 
Q 1925 3394 2219 3213 
L 2025 2691 
Q 1819 2813 1613 2813 
Q 1428 2813 1281 2702 
Q 1134 2591 1072 2394 
Q 978 2094 978 1738 
L 978 0 
L 416 0 
z
" transform="scale(0.015625)"/>
        <path id="ArialMT-69" d="M 425 3934 
L 425 4581 
L 988 4581 
L 988 3934 
L 425 3934 
z
M 425 0 
L 425 3319 
L 988 3319 
L 988 0 
L 425 0 
z
" transform="scale(0.015625)"/>
        <path id="ArialMT-6c" d="M 409 0 
L 409 4581 
L 972 4581 
L 972 0 
L 409 0 
z
" transform="scale(0.015625)"/>
        <path id="ArialMT-6f" d="M 213 1659 
Q 213 2581 725 3025 
Q 1153 3394 1769 3394 
Q 2453 3394 2887 2945 
Q 3322 2497 3322 1706 
Q 3322 1066 3130 698 
Q 2938 331 2570 128 
Q 2203 -75 1769 -75 
Q 1072 -75 642 372 
Q 213 819 213 1659 
z
M 791 1659 
Q 791 1022 1069 705 
Q 1347 388 1769 388 
Q 2188 388 2466 706 
Q 2744 1025 2744 1678 
Q 2744 2294 2464 2611 
Q 2184 2928 1769 2928 
Q 1347 2928 1069 2612 
Q 791 2297 791 1659 
z
" transform="scale(0.015625)"/>
        <path id="ArialMT-76" d="M 1344 0 
L 81 3319 
L 675 3319 
L 1388 1331 
Q 1503 1009 1600 663 
Q 1675 925 1809 1294 
L 2547 3319 
L 3125 3319 
L 1869 0 
L 1344 0 
z
" transform="scale(0.015625)"/>
        <path id="ArialMT-63" d="M 2588 1216 
L 3141 1144 
Q 3050 572 2676 248 
Q 2303 -75 1759 -75 
Q 1078 -75 664 370 
Q 250 816 250 1647 
Q 250 2184 428 2587 
Q 606 2991 970 3192 
Q 1334 3394 1763 3394 
Q 2303 3394 2647 3120 
Q 2991 2847 3088 2344 
L 2541 2259 
Q 2463 2594 2264 2762 
Q 2066 2931 1784 2931 
Q 1359 2931 1093 2626 
Q 828 2322 828 1663 
Q 828 994 1084 691 
Q 1341 388 1753 388 
Q 2084 388 2306 591 
Q 2528 794 2588 1216 
z
" transform="scale(0.015625)"/>
        <path id="ArialMT-61" d="M 2588 409 
Q 2275 144 1986 34 
Q 1697 -75 1366 -75 
Q 819 -75 525 192 
Q 231 459 231 875 
Q 231 1119 342 1320 
Q 453 1522 633 1644 
Q 813 1766 1038 1828 
Q 1203 1872 1538 1913 
Q 2219 1994 2541 2106 
Q 2544 2222 2544 2253 
Q 2544 2597 2384 2738 
Q 2169 2928 1744 2928 
Q 1347 2928 1158 2789 
Q 969 2650 878 2297 
L 328 2372 
Q 403 2725 575 2942 
Q 747 3159 1072 3276 
Q 1397 3394 1825 3394 
Q 2250 3394 2515 3294 
Q 2781 3194 2906 3042 
Q 3031 2891 3081 2659 
Q 3109 2516 3109 2141 
L 3109 1391 
Q 3109 606 3145 398 
Q 3181 191 3288 0 
L 2700 0 
Q 2613 175 2588 409 
z
M 2541 1666 
Q 2234 1541 1622 1453 
Q 1275 1403 1131 1340 
Q 988 1278 909 1158 
Q 831 1038 831 891 
Q 831 666 1001 516 
Q 1172 366 1500 366 
Q 1825 366 2078 508 
Q 2331 650 2450 897 
Q 2541 1088 2541 1459 
L 2541 1666 
z
" transform="scale(0.015625)"/>
       </defs>
       <use xlink:href="#ArialMT-4a"/>
       <use xlink:href="#ArialMT-75" x="50"/>
       <use xlink:href="#ArialMT-72" x="105.615234"/>
       <use xlink:href="#ArialMT-69" x="138.916016"/>
       <use xlink:href="#ArialMT-6c" x="161.132812"/>
       <use xlink:href="#ArialMT-6f" x="183.349609"/>
       <use xlink:href="#ArialMT-76" x="238.964844"/>
       <use xlink:href="#ArialMT-63" x="288.964844"/>
       <use xlink:href="#ArialMT-61" x="338.964844"/>
      </g>
     </g>
    </g>
    <g id="xtick_2">
     <g id="text_2">
      <!-- Baia -->
      <g style="fill: #262626" transform="translate(284.015392 332.197812) scale(0.1 -0.1)">
       <defs>
        <path id="ArialMT-42" d="M 469 0 
L 469 4581 
L 2188 4581 
Q 2713 4581 3030 4442 
Q 3347 4303 3526 4014 
Q 3706 3725 3706 3409 
Q 3706 3116 3547 2856 
Q 3388 2597 3066 2438 
Q 3481 2316 3704 2022 
Q 3928 1728 3928 1328 
Q 3928 1006 3792 729 
Q 3656 453 3456 303 
Q 3256 153 2954 76 
Q 2653 0 2216 0 
L 469 0 
z
M 1075 2656 
L 2066 2656 
Q 2469 2656 2644 2709 
Q 2875 2778 2992 2937 
Q 3109 3097 3109 3338 
Q 3109 3566 3000 3739 
Q 2891 3913 2687 3977 
Q 2484 4041 1991 4041 
L 1075 4041 
L 1075 2656 
z
M 1075 541 
L 2216 541 
Q 2509 541 2628 563 
Q 2838 600 2978 687 
Q 3119 775 3209 942 
Q 3300 1109 3300 1328 
Q 3300 1584 3169 1773 
Q 3038 1963 2805 2039 
Q 2572 2116 2134 2116 
L 1075 2116 
L 1075 541 
z
" transform="scale(0.015625)"/>
       </defs>
       <use xlink:href="#ArialMT-42"/>
       <use xlink:href="#ArialMT-61" x="66.699219"/>
       <use xlink:href="#ArialMT-69" x="122.314453"/>
       <use xlink:href="#ArialMT-61" x="144.53125"/>
      </g>
     </g>
    </g>
    <g id="text_3">
     <!-- Location -->
     <g style="fill: #262626" transform="translate(193.640049 345.343125) scale(0.1 -0.1)">
      <defs>
       <path id="ArialMT-4c" d="M 469 0 
L 469 4581 
L 1075 4581 
L 1075 541 
L 3331 541 
L 3331 0 
L 469 0 
z
" transform="scale(0.015625)"/>
       <path id="ArialMT-74" d="M 1650 503 
L 1731 6 
Q 1494 -44 1306 -44 
Q 1000 -44 831 53 
Q 663 150 594 308 
Q 525 466 525 972 
L 525 2881 
L 113 2881 
L 113 3319 
L 525 3319 
L 525 4141 
L 1084 4478 
L 1084 3319 
L 1650 3319 
L 1650 2881 
L 1084 2881 
L 1084 941 
Q 1084 700 1114 631 
Q 1144 563 1211 522 
Q 1278 481 1403 481 
Q 1497 481 1650 503 
z
" transform="scale(0.015625)"/>
       <path id="ArialMT-6e" d="M 422 0 
L 422 3319 
L 928 3319 
L 928 2847 
Q 1294 3394 1984 3394 
Q 2284 3394 2536 3286 
Q 2788 3178 2913 3003 
Q 3038 2828 3088 2588 
Q 3119 2431 3119 2041 
L 3119 0 
L 2556 0 
L 2556 2019 
Q 2556 2363 2490 2533 
Q 2425 2703 2258 2804 
Q 2091 2906 1866 2906 
Q 1506 2906 1245 2678 
Q 984 2450 984 1813 
L 984 0 
L 422 0 
z
" transform="scale(0.015625)"/>
      </defs>
      <use xlink:href="#ArialMT-4c"/>
      <use xlink:href="#ArialMT-6f" x="55.615234"/>
      <use xlink:href="#ArialMT-63" x="111.230469"/>
      <use xlink:href="#ArialMT-61" x="161.230469"/>
      <use xlink:href="#ArialMT-74" x="216.845703"/>
      <use xlink:href="#ArialMT-69" x="244.628906"/>
      <use xlink:href="#ArialMT-6f" x="266.845703"/>
      <use xlink:href="#ArialMT-6e" x="322.460938"/>
     </g>
    </g>
   </g>
   <g id="matplotlib.axis_2">
    <g id="ytick_1">
     <g id="line2d_1">
      <path d="M 49.582331 291.967618 
L 375.502454 291.967618 
" clip-path="url(#pec9c5ec02a)" style="fill: none; stroke: #cccccc; stroke-width: 0.8; stroke-linecap: round"/>
     </g>
     <g id="text_4">
      <!-- 0.0 -->
      <g style="fill: #262626" transform="translate(28.682331 295.546524) scale(0.1 -0.1)">
       <defs>
        <path id="ArialMT-30" d="M 266 2259 
Q 266 3072 433 3567 
Q 600 4063 929 4331 
Q 1259 4600 1759 4600 
Q 2128 4600 2406 4451 
Q 2684 4303 2865 4023 
Q 3047 3744 3150 3342 
Q 3253 2941 3253 2259 
Q 3253 1453 3087 958 
Q 2922 463 2592 192 
Q 2263 -78 1759 -78 
Q 1097 -78 719 397 
Q 266 969 266 2259 
z
M 844 2259 
Q 844 1131 1108 757 
Q 1372 384 1759 384 
Q 2147 384 2411 759 
Q 2675 1134 2675 2259 
Q 2675 3391 2411 3762 
Q 2147 4134 1753 4134 
Q 1366 4134 1134 3806 
Q 844 3388 844 2259 
z
" transform="scale(0.015625)"/>
        <path id="ArialMT-2e" d="M 581 0 
L 581 641 
L 1222 641 
L 1222 0 
L 581 0 
z
" transform="scale(0.015625)"/>
       </defs>
       <use xlink:href="#ArialMT-30"/>
       <use xlink:href="#ArialMT-2e" x="55.615234"/>
       <use xlink:href="#ArialMT-30" x="83.398438"/>
      </g>
     </g>
    </g>
    <g id="ytick_2">
     <g id="line2d_2">
      <path d="M 49.582331 235.570456 
L 375.502454 235.570456 
" clip-path="url(#pec9c5ec02a)" style="fill: none; stroke: #cccccc; stroke-width: 0.8; stroke-linecap: round"/>
     </g>
     <g id="text_5">
      <!-- 0.5 -->
      <g style="fill: #262626" transform="translate(28.682331 239.149363) scale(0.1 -0.1)">
       <defs>
        <path id="ArialMT-35" d="M 266 1200 
L 856 1250 
Q 922 819 1161 601 
Q 1400 384 1738 384 
Q 2144 384 2425 690 
Q 2706 997 2706 1503 
Q 2706 1984 2436 2262 
Q 2166 2541 1728 2541 
Q 1456 2541 1237 2417 
Q 1019 2294 894 2097 
L 366 2166 
L 809 4519 
L 3088 4519 
L 3088 3981 
L 1259 3981 
L 1013 2750 
Q 1425 3038 1878 3038 
Q 2478 3038 2890 2622 
Q 3303 2206 3303 1553 
Q 3303 931 2941 478 
Q 2500 -78 1738 -78 
Q 1113 -78 717 272 
Q 322 622 266 1200 
z
" transform="scale(0.015625)"/>
       </defs>
       <use xlink:href="#ArialMT-30"/>
       <use xlink:href="#ArialMT-2e" x="55.615234"/>
       <use xlink:href="#ArialMT-35" x="83.398438"/>
      </g>
     </g>
    </g>
    <g id="ytick_3">
     <g id="line2d_3">
      <path d="M 49.582331 179.173295 
L 375.502454 179.173295 
" clip-path="url(#pec9c5ec02a)" style="fill: none; stroke: #cccccc; stroke-width: 0.8; stroke-linecap: round"/>
     </g>
     <g id="text_6">
      <!-- 1.0 -->
      <g style="fill: #262626" transform="translate(28.682331 182.752201) scale(0.1 -0.1)">
       <defs>
        <path id="ArialMT-31" d="M 2384 0 
L 1822 0 
L 1822 3584 
Q 1619 3391 1289 3197 
Q 959 3003 697 2906 
L 697 3450 
Q 1169 3672 1522 3987 
Q 1875 4303 2022 4600 
L 2384 4600 
L 2384 0 
z
" transform="scale(0.015625)"/>
       </defs>
       <use xlink:href="#ArialMT-31"/>
       <use xlink:href="#ArialMT-2e" x="55.615234"/>
       <use xlink:href="#ArialMT-30" x="83.398438"/>
      </g>
     </g>
    </g>
    <g id="ytick_4">
     <g id="line2d_4">
      <path d="M 49.582331 122.776133 
L 375.502454 122.776133 
" clip-path="url(#pec9c5ec02a)" style="fill: none; stroke: #cccccc; stroke-width: 0.8; stroke-linecap: round"/>
     </g>
     <g id="text_7">
      <!-- 1.5 -->
      <g style="fill: #262626" transform="translate(28.682331 126.35504) scale(0.1 -0.1)">
       <use xlink:href="#ArialMT-31"/>
       <use xlink:href="#ArialMT-2e" x="55.615234"/>
       <use xlink:href="#ArialMT-35" x="83.398438"/>
      </g>
     </g>
    </g>
    <g id="ytick_5">
     <g id="line2d_5">
      <path d="M 49.582331 66.378972 
L 375.502454 66.378972 
" clip-path="url(#pec9c5ec02a)" style="fill: none; stroke: #cccccc; stroke-width: 0.8; stroke-linecap: round"/>
     </g>
     <g id="text_8">
      <!-- 2.0 -->
      <g style="fill: #262626" transform="translate(28.682331 69.957878) scale(0.1 -0.1)">
       <defs>
        <path id="ArialMT-32" d="M 3222 541 
L 3222 0 
L 194 0 
Q 188 203 259 391 
Q 375 700 629 1000 
Q 884 1300 1366 1694 
Q 2113 2306 2375 2664 
Q 2638 3022 2638 3341 
Q 2638 3675 2398 3904 
Q 2159 4134 1775 4134 
Q 1369 4134 1125 3890 
Q 881 3647 878 3216 
L 300 3275 
Q 359 3922 746 4261 
Q 1134 4600 1788 4600 
Q 2447 4600 2831 4234 
Q 3216 3869 3216 3328 
Q 3216 3053 3103 2787 
Q 2991 2522 2730 2228 
Q 2469 1934 1863 1422 
Q 1356 997 1212 845 
Q 1069 694 975 541 
L 3222 541 
z
" transform="scale(0.015625)"/>
       </defs>
       <use xlink:href="#ArialMT-32"/>
       <use xlink:href="#ArialMT-2e" x="55.615234"/>
       <use xlink:href="#ArialMT-30" x="83.398438"/>
      </g>
     </g>
    </g>
    <g id="text_9">
     <!-- CO2 expired (l/min) -->
     <g style="fill: #262626" transform="translate(22.577644 214.722187) rotate(-90) scale(0.1 -0.1)">
      <defs>
       <path id="ArialMT-43" d="M 3763 1606 
L 4369 1453 
Q 4178 706 3683 314 
Q 3188 -78 2472 -78 
Q 1731 -78 1267 223 
Q 803 525 561 1097 
Q 319 1669 319 2325 
Q 319 3041 592 3573 
Q 866 4106 1370 4382 
Q 1875 4659 2481 4659 
Q 3169 4659 3637 4309 
Q 4106 3959 4291 3325 
L 3694 3184 
Q 3534 3684 3231 3912 
Q 2928 4141 2469 4141 
Q 1941 4141 1586 3887 
Q 1231 3634 1087 3207 
Q 944 2781 944 2328 
Q 944 1744 1114 1308 
Q 1284 872 1643 656 
Q 2003 441 2422 441 
Q 2931 441 3284 734 
Q 3638 1028 3763 1606 
z
" transform="scale(0.015625)"/>
       <path id="ArialMT-4f" d="M 309 2231 
Q 309 3372 921 4017 
Q 1534 4663 2503 4663 
Q 3138 4663 3647 4359 
Q 4156 4056 4423 3514 
Q 4691 2972 4691 2284 
Q 4691 1588 4409 1038 
Q 4128 488 3612 205 
Q 3097 -78 2500 -78 
Q 1853 -78 1343 234 
Q 834 547 571 1087 
Q 309 1628 309 2231 
z
M 934 2222 
Q 934 1394 1379 917 
Q 1825 441 2497 441 
Q 3181 441 3623 922 
Q 4066 1403 4066 2288 
Q 4066 2847 3877 3264 
Q 3688 3681 3323 3911 
Q 2959 4141 2506 4141 
Q 1863 4141 1398 3698 
Q 934 3256 934 2222 
z
" transform="scale(0.015625)"/>
       <path id="ArialMT-20" transform="scale(0.015625)"/>
       <path id="ArialMT-65" d="M 2694 1069 
L 3275 997 
Q 3138 488 2766 206 
Q 2394 -75 1816 -75 
Q 1088 -75 661 373 
Q 234 822 234 1631 
Q 234 2469 665 2931 
Q 1097 3394 1784 3394 
Q 2450 3394 2872 2941 
Q 3294 2488 3294 1666 
Q 3294 1616 3291 1516 
L 816 1516 
Q 847 969 1125 678 
Q 1403 388 1819 388 
Q 2128 388 2347 550 
Q 2566 713 2694 1069 
z
M 847 1978 
L 2700 1978 
Q 2663 2397 2488 2606 
Q 2219 2931 1791 2931 
Q 1403 2931 1139 2672 
Q 875 2413 847 1978 
z
" transform="scale(0.015625)"/>
       <path id="ArialMT-78" d="M 47 0 
L 1259 1725 
L 138 3319 
L 841 3319 
L 1350 2541 
Q 1494 2319 1581 2169 
Q 1719 2375 1834 2534 
L 2394 3319 
L 3066 3319 
L 1919 1756 
L 3153 0 
L 2463 0 
L 1781 1031 
L 1600 1309 
L 728 0 
L 47 0 
z
" transform="scale(0.015625)"/>
       <path id="ArialMT-70" d="M 422 -1272 
L 422 3319 
L 934 3319 
L 934 2888 
Q 1116 3141 1344 3267 
Q 1572 3394 1897 3394 
Q 2322 3394 2647 3175 
Q 2972 2956 3137 2557 
Q 3303 2159 3303 1684 
Q 3303 1175 3120 767 
Q 2938 359 2589 142 
Q 2241 -75 1856 -75 
Q 1575 -75 1351 44 
Q 1128 163 984 344 
L 984 -1272 
L 422 -1272 
z
M 931 1641 
Q 931 1000 1190 694 
Q 1450 388 1819 388 
Q 2194 388 2461 705 
Q 2728 1022 2728 1688 
Q 2728 2322 2467 2637 
Q 2206 2953 1844 2953 
Q 1484 2953 1207 2617 
Q 931 2281 931 1641 
z
" transform="scale(0.015625)"/>
       <path id="ArialMT-64" d="M 2575 0 
L 2575 419 
Q 2259 -75 1647 -75 
Q 1250 -75 917 144 
Q 584 363 401 755 
Q 219 1147 219 1656 
Q 219 2153 384 2558 
Q 550 2963 881 3178 
Q 1213 3394 1622 3394 
Q 1922 3394 2156 3267 
Q 2391 3141 2538 2938 
L 2538 4581 
L 3097 4581 
L 3097 0 
L 2575 0 
z
M 797 1656 
Q 797 1019 1065 703 
Q 1334 388 1700 388 
Q 2069 388 2326 689 
Q 2584 991 2584 1609 
Q 2584 2291 2321 2609 
Q 2059 2928 1675 2928 
Q 1300 2928 1048 2622 
Q 797 2316 797 1656 
z
" transform="scale(0.015625)"/>
       <path id="ArialMT-28" d="M 1497 -1347 
Q 1031 -759 709 28 
Q 388 816 388 1659 
Q 388 2403 628 3084 
Q 909 3875 1497 4659 
L 1900 4659 
Q 1522 4009 1400 3731 
Q 1209 3300 1100 2831 
Q 966 2247 966 1656 
Q 966 153 1900 -1347 
L 1497 -1347 
z
" transform="scale(0.015625)"/>
       <path id="ArialMT-2f" d="M 0 -78 
L 1328 4659 
L 1778 4659 
L 453 -78 
L 0 -78 
z
" transform="scale(0.015625)"/>
       <path id="ArialMT-6d" d="M 422 0 
L 422 3319 
L 925 3319 
L 925 2853 
Q 1081 3097 1340 3245 
Q 1600 3394 1931 3394 
Q 2300 3394 2536 3241 
Q 2772 3088 2869 2813 
Q 3263 3394 3894 3394 
Q 4388 3394 4653 3120 
Q 4919 2847 4919 2278 
L 4919 0 
L 4359 0 
L 4359 2091 
Q 4359 2428 4304 2576 
Q 4250 2725 4106 2815 
Q 3963 2906 3769 2906 
Q 3419 2906 3187 2673 
Q 2956 2441 2956 1928 
L 2956 0 
L 2394 0 
L 2394 2156 
Q 2394 2531 2256 2718 
Q 2119 2906 1806 2906 
Q 1569 2906 1367 2781 
Q 1166 2656 1075 2415 
Q 984 2175 984 1722 
L 984 0 
L 422 0 
z
" transform="scale(0.015625)"/>
       <path id="ArialMT-29" d="M 791 -1347 
L 388 -1347 
Q 1322 153 1322 1656 
Q 1322 2244 1188 2822 
Q 1081 3291 891 3722 
Q 769 4003 388 4659 
L 791 4659 
Q 1378 3875 1659 3084 
Q 1900 2403 1900 1659 
Q 1900 816 1576 28 
Q 1253 -759 791 -1347 
z
" transform="scale(0.015625)"/>
      </defs>
      <use xlink:href="#ArialMT-43"/>
      <use xlink:href="#ArialMT-4f" x="72.216797"/>
      <use xlink:href="#ArialMT-32" x="150"/>
      <use xlink:href="#ArialMT-20" x="205.615234"/>
      <use xlink:href="#ArialMT-65" x="233.398438"/>
      <use xlink:href="#ArialMT-78" x="289.013672"/>
      <use xlink:href="#ArialMT-70" x="339.013672"/>
      <use xlink:href="#ArialMT-69" x="394.628906"/>
      <use xlink:href="#ArialMT-72" x="416.845703"/>
      <use xlink:href="#ArialMT-65" x="450.146484"/>
      <use xlink:href="#ArialMT-64" x="505.761719"/>
      <use xlink:href="#ArialMT-20" x="561.376953"/>
      <use xlink:href="#ArialMT-28" x="589.160156"/>
      <use xlink:href="#ArialMT-6c" x="622.460938"/>
      <use xlink:href="#ArialMT-2f" x="644.677734"/>
      <use xlink:href="#ArialMT-6d" x="672.460938"/>
      <use xlink:href="#ArialMT-69" x="755.761719"/>
      <use xlink:href="#ArialMT-6e" x="777.978516"/>
      <use xlink:href="#ArialMT-29" x="833.59375"/>
     </g>
    </g>
   </g>
   <g id="PolyCollection_1">
    <defs>
     <path id="m65a6c64c9e" d="M 99.49634 -105.156844 
L 97.444359 -105.156844 
L 97.274968 -106.266 
L 97.085935 -107.375156 
L 96.876576 -108.484312 
L 96.646486 -109.593467 
L 96.395582 -110.702623 
L 96.124151 -111.811779 
L 95.832887 -112.920935 
L 95.522917 -114.030091 
L 95.195821 -115.139247 
L 94.853634 -116.248402 
L 94.498829 -117.357558 
L 94.134296 -118.466714 
L 93.763283 -119.57587 
L 93.389338 -120.685026 
L 93.016224 -121.794181 
L 92.647817 -122.903337 
L 92.287998 -124.012493 
L 91.940527 -125.121649 
L 91.608917 -126.230805 
L 91.296303 -127.339961 
L 91.005318 -128.449116 
L 90.737973 -129.558272 
L 90.495553 -130.667428 
L 90.278531 -131.776584 
L 90.086505 -132.88574 
L 89.918159 -133.994896 
L 89.771249 -135.104051 
L 89.642628 -136.213207 
L 89.528287 -137.322363 
L 89.423431 -138.431519 
L 89.322579 -139.540675 
L 89.21969 -140.64983 
L 89.108296 -141.758986 
L 88.981659 -142.868142 
L 88.832931 -143.977298 
L 88.655317 -145.086454 
L 88.442232 -146.19561 
L 88.187463 -147.304765 
L 87.885305 -148.413921 
L 87.530694 -149.523077 
L 87.119321 -150.632233 
L 86.647728 -151.741389 
L 86.113391 -152.850545 
L 85.514782 -153.9597 
L 84.851418 -155.068856 
L 84.123902 -156.178012 
L 83.33394 -157.287168 
L 82.484362 -158.396324 
L 81.579121 -159.50548 
L 80.623295 -160.614635 
L 79.623072 -161.723791 
L 78.585731 -162.832947 
L 77.51961 -163.942103 
L 76.434056 -165.051259 
L 75.339369 -166.160414 
L 74.246714 -167.26957 
L 73.168019 -168.378726 
L 72.115848 -169.487882 
L 71.103235 -170.597038 
L 70.143509 -171.706194 
L 69.250076 -172.815349 
L 68.436182 -173.924505 
L 67.71466 -175.033661 
L 67.097659 -176.142817 
L 66.59636 -177.251973 
L 66.220707 -178.361129 
L 65.979136 -179.470284 
L 65.878337 -180.57944 
L 65.923043 -181.688596 
L 66.115855 -182.797752 
L 66.457132 -183.906908 
L 66.944921 -185.016063 
L 67.574958 -186.125219 
L 68.340731 -187.234375 
L 69.233602 -188.343531 
L 70.242993 -189.452687 
L 71.356624 -190.561843 
L 72.560797 -191.670998 
L 73.840713 -192.780154 
L 75.180821 -193.88931 
L 76.565171 -194.998466 
L 77.977775 -196.107622 
L 79.402949 -197.216778 
L 80.825637 -198.325933 
L 82.231699 -199.435089 
L 83.608162 -200.544245 
L 84.943418 -201.653401 
L 86.227379 -202.762557 
L 87.45157 -203.871713 
L 88.609181 -204.980868 
L 89.695065 -206.090024 
L 90.705687 -207.19918 
L 91.639046 -208.308336 
L 92.494548 -209.417492 
L 93.272872 -210.526647 
L 93.975803 -211.635803 
L 94.606062 -212.744959 
L 95.167132 -213.854115 
L 95.663086 -214.963271 
L 101.277614 -214.963271 
L 101.277614 -214.963271 
L 101.773567 -213.854115 
L 102.334638 -212.744959 
L 102.964897 -211.635803 
L 103.667828 -210.526647 
L 104.446151 -209.417492 
L 105.301654 -208.308336 
L 106.235012 -207.19918 
L 107.245635 -206.090024 
L 108.331518 -204.980868 
L 109.48913 -203.871713 
L 110.713321 -202.762557 
L 111.997281 -201.653401 
L 113.332538 -200.544245 
L 114.709 -199.435089 
L 116.115063 -198.325933 
L 117.53775 -197.216778 
L 118.962924 -196.107622 
L 120.375528 -194.998466 
L 121.759878 -193.88931 
L 123.099986 -192.780154 
L 124.379902 -191.670998 
L 125.584075 -190.561843 
L 126.697707 -189.452687 
L 127.707098 -188.343531 
L 128.599969 -187.234375 
L 129.365741 -186.125219 
L 129.995778 -185.016063 
L 130.483567 -183.906908 
L 130.824844 -182.797752 
L 131.017657 -181.688596 
L 131.062362 -180.57944 
L 130.961564 -179.470284 
L 130.719993 -178.361129 
L 130.344339 -177.251973 
L 129.84304 -176.142817 
L 129.226039 -175.033661 
L 128.504518 -173.924505 
L 127.690624 -172.815349 
L 126.79719 -171.706194 
L 125.837464 -170.597038 
L 124.824852 -169.487882 
L 123.77268 -168.378726 
L 122.693986 -167.26957 
L 121.601331 -166.160414 
L 120.506643 -165.051259 
L 119.42109 -163.942103 
L 118.354968 -162.832947 
L 117.317628 -161.723791 
L 116.317405 -160.614635 
L 115.361579 -159.50548 
L 114.456337 -158.396324 
L 113.606759 -157.287168 
L 112.816797 -156.178012 
L 112.089281 -155.068856 
L 111.425918 -153.9597 
L 110.827308 -152.850545 
L 110.292971 -151.741389 
L 109.821378 -150.632233 
L 109.410005 -149.523077 
L 109.055394 -148.413921 
L 108.753236 -147.304765 
L 108.498467 -146.19561 
L 108.285383 -145.086454 
L 108.107768 -143.977298 
L 107.95904 -142.868142 
L 107.832403 -141.758986 
L 107.721009 -140.64983 
L 107.61812 -139.540675 
L 107.517269 -138.431519 
L 107.412412 -137.322363 
L 107.298071 -136.213207 
L 107.16945 -135.104051 
L 107.022541 -133.994896 
L 106.854194 -132.88574 
L 106.662168 -131.776584 
L 106.445146 -130.667428 
L 106.202726 -129.558272 
L 105.935381 -128.449116 
L 105.644396 -127.339961 
L 105.331783 -126.230805 
L 105.000172 -125.121649 
L 104.652701 -124.012493 
L 104.292882 -122.903337 
L 103.924475 -121.794181 
L 103.551361 -120.685026 
L 103.177417 -119.57587 
L 102.806404 -118.466714 
L 102.44187 -117.357558 
L 102.087066 -116.248402 
L 101.744878 -115.139247 
L 101.417782 -114.030091 
L 101.107813 -112.920935 
L 100.816548 -111.811779 
L 100.545118 -110.702623 
L 100.294214 -109.593467 
L 100.064123 -108.484312 
L 99.854765 -107.375156 
L 99.665731 -106.266 
L 99.49634 -105.156844 
z
" style="stroke: #3f3f3f; stroke-width: 1.25"/>
    </defs>
    <g clip-path="url(#pec9c5ec02a)">
     <use xlink:href="#m65a6c64c9e" x="0" y="360" style="fill: #3274a1; stroke: #3f3f3f; stroke-width: 1.25"/>
    </g>
   </g>
   <g id="PolyCollection_2">
    <defs>
     <path id="m0d33452e7c" d="M 166.143783 -85.889236 
L 161.164966 -85.889236 
L 160.755412 -87.684072 
L 160.295437 -89.478908 
L 159.781998 -91.273743 
L 159.212429 -93.068579 
L 158.584549 -94.863415 
L 157.896784 -96.65825 
L 157.148269 -98.453086 
L 156.338966 -100.247922 
L 155.46976 -102.042757 
L 154.542549 -103.837593 
L 153.560316 -105.632429 
L 152.527176 -107.427264 
L 151.448406 -109.2221 
L 150.330434 -111.016936 
L 149.180813 -112.811771 
L 148.008143 -114.606607 
L 146.821975 -116.401443 
L 145.632668 -118.196278 
L 144.451219 -119.991114 
L 143.289065 -121.78595 
L 142.157849 -123.580785 
L 141.069178 -125.375621 
L 140.034355 -127.170457 
L 139.064106 -128.965292 
L 138.168314 -130.760128 
L 137.355753 -132.554964 
L 136.633839 -134.349799 
L 136.00842 -136.144635 
L 135.48358 -137.939471 
L 135.061498 -139.734306 
L 134.742353 -141.529142 
L 134.52427 -143.323978 
L 134.403334 -145.118813 
L 134.373656 -146.913649 
L 134.42749 -148.708485 
L 134.555414 -150.50332 
L 134.746551 -152.298156 
L 134.988847 -154.092992 
L 135.269378 -155.887827 
L 135.574687 -157.682663 
L 135.891147 -159.477499 
L 136.205326 -161.272334 
L 136.504359 -163.06717 
L 136.776302 -164.862006 
L 137.010463 -166.656841 
L 137.197708 -168.451677 
L 137.330714 -170.246513 
L 137.404185 -172.041348 
L 137.414998 -173.836184 
L 137.362302 -175.63102 
L 137.247539 -177.425855 
L 137.074414 -179.220691 
L 136.848787 -181.015527 
L 136.578517 -182.810362 
L 136.273239 -184.605198 
L 135.944096 -186.400034 
L 135.603434 -188.19487 
L 135.264452 -189.989705 
L 134.940846 -191.784541 
L 134.646429 -193.579377 
L 134.394758 -195.374212 
L 134.198773 -197.169048 
L 134.070454 -198.963884 
L 134.020514 -200.758719 
L 134.05813 -202.553555 
L 134.190722 -204.348391 
L 134.423788 -206.143226 
L 134.76079 -207.938062 
L 135.203104 -209.732898 
L 135.750026 -211.527733 
L 136.398834 -213.322569 
L 137.144899 -215.117405 
L 137.981849 -216.91224 
L 138.901769 -218.707076 
L 139.895434 -220.501912 
L 140.952561 -222.296747 
L 142.062087 -224.091583 
L 143.212438 -225.886419 
L 144.391813 -227.681254 
L 145.588437 -229.47609 
L 146.790818 -231.270926 
L 147.987963 -233.065761 
L 149.169575 -234.860597 
L 150.326216 -236.655433 
L 151.449436 -238.450268 
L 152.531864 -240.245104 
L 153.567272 -242.03994 
L 154.550596 -243.834775 
L 155.477934 -245.629611 
L 156.346514 -247.424447 
L 157.154632 -249.219282 
L 157.901584 -251.014118 
L 158.587566 -252.808954 
L 159.213578 -254.603789 
L 159.781307 -256.398625 
L 160.29302 -258.193461 
L 160.751447 -259.988296 
L 161.159676 -261.783132 
L 161.521048 -263.577968 
L 165.787701 -263.577968 
L 165.787701 -263.577968 
L 166.149072 -261.783132 
L 166.557302 -259.988296 
L 167.015729 -258.193461 
L 167.527442 -256.398625 
L 168.095171 -254.603789 
L 168.721182 -252.808954 
L 169.407165 -251.014118 
L 170.154117 -249.219282 
L 170.962235 -247.424447 
L 171.830814 -245.629611 
L 172.758153 -243.834775 
L 173.741477 -242.03994 
L 174.776885 -240.245104 
L 175.859313 -238.450268 
L 176.982532 -236.655433 
L 178.139173 -234.860597 
L 179.320785 -233.065761 
L 180.51793 -231.270926 
L 181.720311 -229.47609 
L 182.916936 -227.681254 
L 184.09631 -225.886419 
L 185.246662 -224.091583 
L 186.356187 -222.296747 
L 187.413315 -220.501912 
L 188.406979 -218.707076 
L 189.3269 -216.91224 
L 190.16385 -215.117405 
L 190.909915 -213.322569 
L 191.558722 -211.527733 
L 192.105645 -209.732898 
L 192.547959 -207.938062 
L 192.884961 -206.143226 
L 193.118027 -204.348391 
L 193.250619 -202.553555 
L 193.288235 -200.758719 
L 193.238294 -198.963884 
L 193.109976 -197.169048 
L 192.91399 -195.374212 
L 192.66232 -193.579377 
L 192.367902 -191.784541 
L 192.044296 -189.989705 
L 191.705315 -188.19487 
L 191.364652 -186.400034 
L 191.03551 -184.605198 
L 190.730232 -182.810362 
L 190.459961 -181.015527 
L 190.234335 -179.220691 
L 190.061209 -177.425855 
L 189.946447 -175.63102 
L 189.89375 -173.836184 
L 189.904564 -172.041348 
L 189.978034 -170.246513 
L 190.111041 -168.451677 
L 190.298285 -166.656841 
L 190.532447 -164.862006 
L 190.804389 -163.06717 
L 191.103423 -161.272334 
L 191.417602 -159.477499 
L 191.734062 -157.682663 
L 192.039371 -155.887827 
L 192.319901 -154.092992 
L 192.562198 -152.298156 
L 192.753335 -150.50332 
L 192.881258 -148.708485 
L 192.935092 -146.913649 
L 192.905414 -145.118813 
L 192.784479 -143.323978 
L 192.566396 -141.529142 
L 192.24725 -139.734306 
L 191.825169 -137.939471 
L 191.300329 -136.144635 
L 190.674909 -134.349799 
L 189.952996 -132.554964 
L 189.140434 -130.760128 
L 188.244643 -128.965292 
L 187.274394 -127.170457 
L 186.23957 -125.375621 
L 185.1509 -123.580785 
L 184.019684 -121.78595 
L 182.857529 -119.991114 
L 181.676081 -118.196278 
L 180.486773 -116.401443 
L 179.300605 -114.606607 
L 178.127936 -112.811771 
L 176.978314 -111.016936 
L 175.860343 -109.2221 
L 174.781572 -107.427264 
L 173.748433 -105.632429 
L 172.766199 -103.837593 
L 171.838989 -102.042757 
L 170.969783 -100.247922 
L 170.16048 -98.453086 
L 169.411965 -96.65825 
L 168.724199 -94.863415 
L 168.09632 -93.068579 
L 167.52675 -91.273743 
L 167.013312 -89.478908 
L 166.553337 -87.684072 
L 166.143783 -85.889236 
z
" style="stroke: #3f3f3f; stroke-width: 1.25"/>
    </defs>
    <g clip-path="url(#pec9c5ec02a)">
     <use xlink:href="#m0d33452e7c" x="0" y="360" style="fill: #e1812c; stroke: #3f3f3f; stroke-width: 1.25"/>
    </g>
   </g>
   <g id="PolyCollection_3">
    <defs>
     <path id="md6c3dab13e" d="M 262.167956 -117.281966 
L 260.692867 -117.281966 
L 260.537948 -119.231544 
L 260.35844 -121.181122 
L 260.152264 -123.130699 
L 259.917552 -125.080277 
L 259.652736 -127.029855 
L 259.356641 -128.979433 
L 259.028578 -130.92901 
L 258.66843 -132.878588 
L 258.276727 -134.828166 
L 257.854706 -136.777743 
L 257.404346 -138.727321 
L 256.928381 -140.676899 
L 256.430284 -142.626477 
L 255.91421 -144.576054 
L 255.38492 -146.525632 
L 254.847659 -148.47521 
L 254.308012 -150.424787 
L 253.771734 -152.374365 
L 253.244555 -154.323943 
L 252.731985 -156.273521 
L 252.239103 -158.223098 
L 251.77037 -160.172676 
L 251.329445 -162.122254 
L 250.919038 -164.071831 
L 250.540798 -166.021409 
L 250.195245 -167.970987 
L 249.88175 -169.920565 
L 249.598574 -171.870142 
L 249.34295 -173.81972 
L 249.111227 -175.769298 
L 248.899057 -177.718876 
L 248.701614 -179.668453 
L 248.513857 -181.618031 
L 248.330796 -183.567609 
L 248.147775 -185.517186 
L 247.960737 -187.466764 
L 247.766476 -189.416342 
L 247.562853 -191.36592 
L 247.348961 -193.315497 
L 247.125242 -195.265075 
L 246.893534 -197.214653 
L 246.657063 -199.16423 
L 246.420348 -201.113808 
L 246.189062 -203.063386 
L 245.969811 -205.012964 
L 245.769878 -206.962541 
L 245.596914 -208.912119 
L 245.458608 -210.861697 
L 245.362346 -212.811274 
L 245.314871 -214.760852 
L 245.32197 -216.71043 
L 245.388196 -218.660008 
L 245.516648 -220.609585 
L 245.708805 -222.559163 
L 245.964444 -224.508741 
L 246.28163 -226.458318 
L 246.656787 -228.407896 
L 247.084838 -230.357474 
L 247.559417 -232.307052 
L 248.073134 -234.256629 
L 248.617879 -236.206207 
L 249.185148 -238.155785 
L 249.766379 -240.105362 
L 250.353274 -242.05494 
L 250.938092 -244.004518 
L 251.513902 -245.954096 
L 252.074778 -247.903673 
L 252.615941 -249.853251 
L 253.133825 -251.802829 
L 253.626088 -253.752406 
L 254.091559 -255.701984 
L 254.530129 -257.651562 
L 254.942603 -259.60114 
L 255.330522 -261.550717 
L 255.695962 -263.500295 
L 256.04133 -265.449873 
L 256.36917 -267.399451 
L 256.681985 -269.349028 
L 256.98208 -271.298606 
L 257.27145 -273.248184 
L 257.55169 -275.197761 
L 257.823949 -277.147339 
L 258.08892 -279.096917 
L 258.34686 -281.046495 
L 258.597634 -282.996072 
L 258.840779 -284.94565 
L 259.075591 -286.895228 
L 259.301201 -288.844805 
L 259.516667 -290.794383 
L 259.721053 -292.743961 
L 259.913501 -294.693539 
L 260.093286 -296.643116 
L 260.259864 -298.592694 
L 260.412894 -300.542272 
L 260.552258 -302.491849 
L 260.678055 -304.441427 
L 260.790592 -306.391005 
L 260.89036 -308.340583 
L 260.97801 -310.29016 
L 261.882812 -310.29016 
L 261.882812 -310.29016 
L 261.970462 -308.340583 
L 262.070231 -306.391005 
L 262.182768 -304.441427 
L 262.308564 -302.491849 
L 262.447928 -300.542272 
L 262.600959 -298.592694 
L 262.767536 -296.643116 
L 262.947322 -294.693539 
L 263.139769 -292.743961 
L 263.344156 -290.794383 
L 263.559622 -288.844805 
L 263.785232 -286.895228 
L 264.020043 -284.94565 
L 264.263189 -282.996072 
L 264.513962 -281.046495 
L 264.771902 -279.096917 
L 265.036874 -277.147339 
L 265.309133 -275.197761 
L 265.589372 -273.248184 
L 265.878742 -271.298606 
L 266.178838 -269.349028 
L 266.491652 -267.399451 
L 266.819493 -265.449873 
L 267.164861 -263.500295 
L 267.5303 -261.550717 
L 267.918219 -259.60114 
L 268.330694 -257.651562 
L 268.769264 -255.701984 
L 269.234734 -253.752406 
L 269.726998 -251.802829 
L 270.244882 -249.853251 
L 270.786044 -247.903673 
L 271.346921 -245.954096 
L 271.92273 -244.004518 
L 272.507549 -242.05494 
L 273.094444 -240.105362 
L 273.675675 -238.155785 
L 274.242943 -236.206207 
L 274.787688 -234.256629 
L 275.301405 -232.307052 
L 275.775985 -230.357474 
L 276.204036 -228.407896 
L 276.579192 -226.458318 
L 276.896379 -224.508741 
L 277.152018 -222.559163 
L 277.344174 -220.609585 
L 277.472626 -218.660008 
L 277.538853 -216.71043 
L 277.545952 -214.760852 
L 277.498477 -212.811274 
L 277.402215 -210.861697 
L 277.263909 -208.912119 
L 277.090945 -206.962541 
L 276.891012 -205.012964 
L 276.671761 -203.063386 
L 276.440474 -201.113808 
L 276.20376 -199.16423 
L 275.967288 -197.214653 
L 275.735581 -195.265075 
L 275.511861 -193.315497 
L 275.297969 -191.36592 
L 275.094346 -189.416342 
L 274.900086 -187.466764 
L 274.713048 -185.517186 
L 274.530026 -183.567609 
L 274.346966 -181.618031 
L 274.159209 -179.668453 
L 273.961766 -177.718876 
L 273.749595 -175.769298 
L 273.517873 -173.81972 
L 273.262248 -171.870142 
L 272.979072 -169.920565 
L 272.665578 -167.970987 
L 272.320025 -166.021409 
L 271.941785 -164.071831 
L 271.531377 -162.122254 
L 271.090452 -160.172676 
L 270.621719 -158.223098 
L 270.128838 -156.273521 
L 269.616267 -154.323943 
L 269.089089 -152.374365 
L 268.55281 -150.424787 
L 268.013163 -148.47521 
L 267.475902 -146.525632 
L 266.946612 -144.576054 
L 266.430539 -142.626477 
L 265.932441 -140.676899 
L 265.456477 -138.727321 
L 265.006116 -136.777743 
L 264.584095 -134.828166 
L 264.192393 -132.878588 
L 263.832245 -130.92901 
L 263.504182 -128.979433 
L 263.208086 -127.029855 
L 262.94327 -125.080277 
L 262.708558 -123.130699 
L 262.502382 -121.181122 
L 262.322874 -119.231544 
L 262.167956 -117.281966 
z
" style="stroke: #3f3f3f; stroke-width: 1.25"/>
    </defs>
    <g clip-path="url(#pec9c5ec02a)">
     <use xlink:href="#md6c3dab13e" x="0" y="360" style="fill: #3274a1; stroke: #3f3f3f; stroke-width: 1.25"/>
    </g>
   </g>
   <g id="PolyCollection_4">
    <defs>
     <path id="m7b0d7cd5db" d="M 327.519147 -72.068985 
L 325.709725 -72.068985 
L 325.523844 -74.354092 
L 325.310205 -76.639199 
L 325.066921 -78.924306 
L 324.792397 -81.209413 
L 324.485387 -83.49452 
L 324.145047 -85.779627 
L 323.770964 -88.064734 
L 323.363158 -90.349841 
L 322.922066 -92.634948 
L 322.448484 -94.920055 
L 321.943495 -97.205162 
L 321.408361 -99.490269 
L 320.844401 -101.775376 
L 320.252857 -104.060483 
L 319.634763 -106.345589 
L 318.990823 -108.630696 
L 318.32131 -110.915803 
L 317.626015 -113.20091 
L 316.904226 -115.486017 
L 316.154778 -117.771124 
L 315.376144 -120.056231 
L 314.566599 -122.341338 
L 313.724422 -124.626445 
L 312.848142 -126.911552 
L 311.93681 -129.196659 
L 310.99027 -131.481766 
L 310.009418 -133.766873 
L 308.996421 -136.05198 
L 307.954882 -138.337087 
L 306.88993 -140.622194 
L 305.808224 -142.907301 
L 304.717867 -145.192408 
L 303.628239 -147.477515 
L 302.549741 -149.762622 
L 301.493477 -152.047729 
L 300.470893 -154.332836 
L 299.493392 -156.617943 
L 298.571947 -158.90305 
L 297.716752 -161.188157 
L 296.936906 -163.473263 
L 296.240176 -165.75837 
L 295.632828 -168.043477 
L 295.119546 -170.328584 
L 294.703428 -172.613691 
L 294.386052 -174.898798 
L 294.167612 -177.183905 
L 294.047083 -179.469012 
L 294.022424 -181.754119 
L 294.090774 -184.039226 
L 294.248649 -186.324333 
L 294.492103 -188.60944 
L 294.816861 -190.894547 
L 295.21841 -193.179654 
L 295.69205 -195.464761 
L 296.232917 -197.749868 
L 296.835972 -200.034975 
L 297.495982 -202.320082 
L 298.207498 -204.605189 
L 298.964844 -206.890296 
L 299.762122 -209.175403 
L 300.59325 -211.46051 
L 301.452026 -213.745617 
L 302.332223 -216.030724 
L 303.22771 -218.315831 
L 304.132587 -220.600937 
L 305.04133 -222.886044 
L 305.94893 -225.171151 
L 306.851009 -227.456258 
L 307.743912 -229.741365 
L 308.62476 -232.026472 
L 309.491459 -234.311579 
L 310.342661 -236.596686 
L 311.177685 -238.881793 
L 311.9964 -241.1669 
L 312.799075 -243.452007 
L 313.586213 -245.737114 
L 314.358386 -248.022221 
L 315.116065 -250.307328 
L 315.859485 -252.592435 
L 316.588528 -254.877542 
L 317.302651 -257.162649 
L 318.00085 -259.447756 
L 318.681671 -261.732863 
L 319.34326 -264.01797 
L 319.983441 -266.303077 
L 320.599831 -268.588184 
L 321.189961 -270.873291 
L 321.751413 -273.158398 
L 322.281947 -275.443504 
L 322.77962 -277.728611 
L 323.242887 -280.013718 
L 323.670671 -282.298825 
L 324.062415 -284.583932 
L 324.418096 -286.869039 
L 324.73822 -289.154146 
L 325.023785 -291.439253 
L 325.276232 -293.72436 
L 325.497374 -296.009467 
L 325.689317 -298.294574 
L 327.539555 -298.294574 
L 327.539555 -298.294574 
L 327.731498 -296.009467 
L 327.952639 -293.72436 
L 328.205086 -291.439253 
L 328.490652 -289.154146 
L 328.810776 -286.869039 
L 329.166457 -284.583932 
L 329.558201 -282.298825 
L 329.985985 -280.013718 
L 330.449252 -277.728611 
L 330.946925 -275.443504 
L 331.477459 -273.158398 
L 332.038911 -270.873291 
L 332.629041 -268.588184 
L 333.245431 -266.303077 
L 333.885612 -264.01797 
L 334.547201 -261.732863 
L 335.228022 -259.447756 
L 335.926221 -257.162649 
L 336.640344 -254.877542 
L 337.369387 -252.592435 
L 338.112807 -250.307328 
L 338.870486 -248.022221 
L 339.642658 -245.737114 
L 340.429797 -243.452007 
L 341.232472 -241.1669 
L 342.051187 -238.881793 
L 342.886211 -236.596686 
L 343.737413 -234.311579 
L 344.604111 -232.026472 
L 345.484959 -229.741365 
L 346.377862 -227.456258 
L 347.279941 -225.171151 
L 348.187541 -222.886044 
L 349.096285 -220.600937 
L 350.001162 -218.315831 
L 350.896649 -216.030724 
L 351.776846 -213.745617 
L 352.635622 -211.46051 
L 353.46675 -209.175403 
L 354.264028 -206.890296 
L 355.021374 -204.605189 
L 355.73289 -202.320082 
L 356.3929 -200.034975 
L 356.995954 -197.749868 
L 357.536822 -195.464761 
L 358.010462 -193.179654 
L 358.412011 -190.894547 
L 358.736769 -188.60944 
L 358.980223 -186.324333 
L 359.138098 -184.039226 
L 359.206448 -181.754119 
L 359.181789 -179.469012 
L 359.06126 -177.183905 
L 358.84282 -174.898798 
L 358.525444 -172.613691 
L 358.109326 -170.328584 
L 357.596044 -168.043477 
L 356.988696 -165.75837 
L 356.291966 -163.473263 
L 355.51212 -161.188157 
L 354.656924 -158.90305 
L 353.73548 -156.617943 
L 352.757978 -154.332836 
L 351.735395 -152.047729 
L 350.679131 -149.762622 
L 349.600632 -147.477515 
L 348.511005 -145.192408 
L 347.420648 -142.907301 
L 346.338941 -140.622194 
L 345.273989 -138.337087 
L 344.232451 -136.05198 
L 343.219454 -133.766873 
L 342.238602 -131.481766 
L 341.292061 -129.196659 
L 340.380729 -126.911552 
L 339.50445 -124.626445 
L 338.662272 -122.341338 
L 337.852727 -120.056231 
L 337.074094 -117.771124 
L 336.324645 -115.486017 
L 335.602857 -113.20091 
L 334.907562 -110.915803 
L 334.238049 -108.630696 
L 333.594108 -106.345589 
L 332.976015 -104.060483 
L 332.384471 -101.775376 
L 331.820511 -99.490269 
L 331.285377 -97.205162 
L 330.780388 -94.920055 
L 330.306806 -92.634948 
L 329.865714 -90.349841 
L 329.457908 -88.064734 
L 329.083825 -85.779627 
L 328.743485 -83.49452 
L 328.436475 -81.209413 
L 328.16195 -78.924306 
L 327.918667 -76.639199 
L 327.705028 -74.354092 
L 327.519147 -72.068985 
z
" style="stroke: #3f3f3f; stroke-width: 1.25"/>
    </defs>
    <g clip-path="url(#pec9c5ec02a)">
     <use xlink:href="#m7b0d7cd5db" x="0" y="360" style="fill: #e1812c; stroke: #3f3f3f; stroke-width: 1.25"/>
    </g>
   </g>
   <g id="line2d_6">
    <path d="M 98.47035 196.274287 
L 98.47035 173.561218 
" clip-path="url(#pec9c5ec02a)" style="fill: none; stroke: #3f3f3f; stroke-width: 1.875; stroke-linecap: round"/>
   </g>
   <g id="line2d_7">
    <path d="M 98.47035 193.046542 
L 98.47035 175.351096 
" clip-path="url(#pec9c5ec02a)" style="fill: none; stroke: #3f3f3f; stroke-width: 5.625; stroke-linecap: round"/>
   </g>
   <g id="line2d_8">
    <path d="M 98.47035 179.454186 
" clip-path="url(#pec9c5ec02a)" style="fill: none; stroke: #3f3f3f; stroke-width: 1.5; stroke-linecap: round"/>
    <defs>
     <path id="mf4ca839cfd" d="M 2.34375 0 
L -2.34375 -0 
" style="stroke: #ffffff; stroke-width: 1.125"/>
    </defs>
    <g clip-path="url(#pec9c5ec02a)">
     <use xlink:href="#mf4ca839cfd" x="98.47035" y="179.454186" style="fill: #ffffff; stroke: #ffffff; stroke-width: 1.125"/>
    </g>
   </g>
   <g id="line2d_9">
    <path d="M 163.654374 224.670385 
L 163.654374 145.862411 
" clip-path="url(#pec9c5ec02a)" style="fill: none; stroke: #3f3f3f; stroke-width: 1.875; stroke-linecap: round"/>
   </g>
   <g id="line2d_10">
    <path d="M 163.654374 217.340124 
L 163.654374 157.29715 
" clip-path="url(#pec9c5ec02a)" style="fill: none; stroke: #3f3f3f; stroke-width: 5.625; stroke-linecap: round"/>
   </g>
   <g id="line2d_11">
    <path d="M 163.654374 184.749663 
" clip-path="url(#pec9c5ec02a)" style="fill: none; stroke: #3f3f3f; stroke-width: 1.5; stroke-linecap: round"/>
    <g clip-path="url(#pec9c5ec02a)">
     <use xlink:href="#mf4ca839cfd" x="163.654374" y="184.749663" style="fill: #ffffff; stroke: #ffffff; stroke-width: 1.125"/>
    </g>
   </g>
   <g id="line2d_12">
    <path d="M 261.430411 199.092417 
L 261.430411 93.335457 
" clip-path="url(#pec9c5ec02a)" style="fill: none; stroke: #3f3f3f; stroke-width: 1.875; stroke-linecap: round"/>
   </g>
   <g id="line2d_13">
    <path d="M 261.430411 181.40549 
L 261.430411 135.871045 
" clip-path="url(#pec9c5ec02a)" style="fill: none; stroke: #3f3f3f; stroke-width: 5.625; stroke-linecap: round"/>
   </g>
   <g id="line2d_14">
    <path d="M 261.430411 145.027106 
" clip-path="url(#pec9c5ec02a)" style="fill: none; stroke: #3f3f3f; stroke-width: 1.5; stroke-linecap: round"/>
    <g clip-path="url(#pec9c5ec02a)">
     <use xlink:href="#mf4ca839cfd" x="261.430411" y="145.027106" style="fill: #ffffff; stroke: #ffffff; stroke-width: 1.125"/>
    </g>
   </g>
   <g id="line2d_15">
    <path d="M 326.614436 238.922915 
L 326.614436 110.713526 
" clip-path="url(#pec9c5ec02a)" style="fill: none; stroke: #3f3f3f; stroke-width: 1.875; stroke-linecap: round"/>
   </g>
   <g id="line2d_16">
    <path d="M 326.614436 200.306656 
L 326.614436 157.68121 
" clip-path="url(#pec9c5ec02a)" style="fill: none; stroke: #3f3f3f; stroke-width: 5.625; stroke-linecap: round"/>
   </g>
   <g id="line2d_17">
    <path d="M 326.614436 178.403418 
" clip-path="url(#pec9c5ec02a)" style="fill: none; stroke: #3f3f3f; stroke-width: 1.5; stroke-linecap: round"/>
    <g clip-path="url(#pec9c5ec02a)">
     <use xlink:href="#mf4ca839cfd" x="326.614436" y="178.403418" style="fill: #ffffff; stroke: #ffffff; stroke-width: 1.125"/>
    </g>
   </g>
   <g id="patch_3">
    <path d="M 49.582331 318.04 
L 49.582331 24.72 
" style="fill: none; stroke: #cccccc; stroke-width: 0.8; stroke-linejoin: miter; stroke-linecap: square"/>
   </g>
   <g id="patch_4">
    <path d="M 49.582331 318.04 
L 375.502454 318.04 
" style="fill: none; stroke: #cccccc; stroke-width: 0.8; stroke-linejoin: miter; stroke-linecap: square"/>
   </g>
   <g id="text_10">
    <!-- sex = f -->
    <g style="fill: #262626" transform="translate(197.674424 18.72) scale(0.1 -0.1)">
     <defs>
      <path id="ArialMT-73" d="M 197 991 
L 753 1078 
Q 800 744 1014 566 
Q 1228 388 1613 388 
Q 2000 388 2187 545 
Q 2375 703 2375 916 
Q 2375 1106 2209 1216 
Q 2094 1291 1634 1406 
Q 1016 1563 777 1677 
Q 538 1791 414 1992 
Q 291 2194 291 2438 
Q 291 2659 392 2848 
Q 494 3038 669 3163 
Q 800 3259 1026 3326 
Q 1253 3394 1513 3394 
Q 1903 3394 2198 3281 
Q 2494 3169 2634 2976 
Q 2775 2784 2828 2463 
L 2278 2388 
Q 2241 2644 2061 2787 
Q 1881 2931 1553 2931 
Q 1166 2931 1000 2803 
Q 834 2675 834 2503 
Q 834 2394 903 2306 
Q 972 2216 1119 2156 
Q 1203 2125 1616 2013 
Q 2213 1853 2448 1751 
Q 2684 1650 2818 1456 
Q 2953 1263 2953 975 
Q 2953 694 2789 445 
Q 2625 197 2315 61 
Q 2006 -75 1616 -75 
Q 969 -75 630 194 
Q 291 463 197 991 
z
" transform="scale(0.015625)"/>
      <path id="ArialMT-3d" d="M 3381 2694 
L 356 2694 
L 356 3219 
L 3381 3219 
L 3381 2694 
z
M 3381 1303 
L 356 1303 
L 356 1828 
L 3381 1828 
L 3381 1303 
z
" transform="scale(0.015625)"/>
      <path id="ArialMT-66" d="M 556 0 
L 556 2881 
L 59 2881 
L 59 3319 
L 556 3319 
L 556 3672 
Q 556 4006 616 4169 
Q 697 4388 901 4523 
Q 1106 4659 1475 4659 
Q 1713 4659 2000 4603 
L 1916 4113 
Q 1741 4144 1584 4144 
Q 1328 4144 1222 4034 
Q 1116 3925 1116 3625 
L 1116 3319 
L 1763 3319 
L 1763 2881 
L 1116 2881 
L 1116 0 
L 556 0 
z
" transform="scale(0.015625)"/>
     </defs>
     <use xlink:href="#ArialMT-73"/>
     <use xlink:href="#ArialMT-65" x="50"/>
     <use xlink:href="#ArialMT-78" x="105.615234"/>
     <use xlink:href="#ArialMT-20" x="155.615234"/>
     <use xlink:href="#ArialMT-3d" x="183.398438"/>
     <use xlink:href="#ArialMT-20" x="241.796875"/>
     <use xlink:href="#ArialMT-66" x="269.580078"/>
    </g>
   </g>
  </g>
  <g id="axes_2">
   <g id="patch_5">
    <path d="M 386.290377 318.04 
L 712.2105 318.04 
L 712.2105 24.72 
L 386.290377 24.72 
z
" style="fill: #ffffff"/>
   </g>
   <g id="matplotlib.axis_3">
    <g id="xtick_3">
     <g id="text_11">
      <!-- Baia -->
      <g style="fill: #262626" transform="translate(457.763376 332.197812) scale(0.1 -0.1)">
       <use xlink:href="#ArialMT-42"/>
       <use xlink:href="#ArialMT-61" x="66.699219"/>
       <use xlink:href="#ArialMT-69" x="122.314453"/>
       <use xlink:href="#ArialMT-61" x="144.53125"/>
      </g>
     </g>
    </g>
    <g id="xtick_4">
     <g id="text_12">
      <!-- Jurilovca -->
      <g style="fill: #262626" transform="translate(611.002344 332.197812) scale(0.1 -0.1)">
       <use xlink:href="#ArialMT-4a"/>
       <use xlink:href="#ArialMT-75" x="50"/>
       <use xlink:href="#ArialMT-72" x="105.615234"/>
       <use xlink:href="#ArialMT-69" x="138.916016"/>
       <use xlink:href="#ArialMT-6c" x="161.132812"/>
       <use xlink:href="#ArialMT-6f" x="183.349609"/>
       <use xlink:href="#ArialMT-76" x="238.964844"/>
       <use xlink:href="#ArialMT-63" x="288.964844"/>
       <use xlink:href="#ArialMT-61" x="338.964844"/>
      </g>
     </g>
    </g>
    <g id="text_13">
     <!-- Location -->
     <g style="fill: #262626" transform="translate(530.348095 345.343125) scale(0.1 -0.1)">
      <use xlink:href="#ArialMT-4c"/>
      <use xlink:href="#ArialMT-6f" x="55.615234"/>
      <use xlink:href="#ArialMT-63" x="111.230469"/>
      <use xlink:href="#ArialMT-61" x="161.230469"/>
      <use xlink:href="#ArialMT-74" x="216.845703"/>
      <use xlink:href="#ArialMT-69" x="244.628906"/>
      <use xlink:href="#ArialMT-6f" x="266.845703"/>
      <use xlink:href="#ArialMT-6e" x="322.460938"/>
     </g>
    </g>
   </g>
   <g id="matplotlib.axis_4">
    <g id="ytick_6">
     <g id="line2d_18">
      <path d="M 386.290377 291.967618 
L 712.2105 291.967618 
" clip-path="url(#p5d2061b5c1)" style="fill: none; stroke: #cccccc; stroke-width: 0.8; stroke-linecap: round"/>
     </g>
    </g>
    <g id="ytick_7">
     <g id="line2d_19">
      <path d="M 386.290377 235.570456 
L 712.2105 235.570456 
" clip-path="url(#p5d2061b5c1)" style="fill: none; stroke: #cccccc; stroke-width: 0.8; stroke-linecap: round"/>
     </g>
    </g>
    <g id="ytick_8">
     <g id="line2d_20">
      <path d="M 386.290377 179.173295 
L 712.2105 179.173295 
" clip-path="url(#p5d2061b5c1)" style="fill: none; stroke: #cccccc; stroke-width: 0.8; stroke-linecap: round"/>
     </g>
    </g>
    <g id="ytick_9">
     <g id="line2d_21">
      <path d="M 386.290377 122.776133 
L 712.2105 122.776133 
" clip-path="url(#p5d2061b5c1)" style="fill: none; stroke: #cccccc; stroke-width: 0.8; stroke-linecap: round"/>
     </g>
    </g>
    <g id="ytick_10">
     <g id="line2d_22">
      <path d="M 386.290377 66.378972 
L 712.2105 66.378972 
" clip-path="url(#p5d2061b5c1)" style="fill: none; stroke: #cccccc; stroke-width: 0.8; stroke-linecap: round"/>
     </g>
    </g>
   </g>
   <g id="PolyCollection_5">
    <defs>
     <path id="m98ccf1de0b" d="M 436.361562 -128.199108 
L 433.995229 -128.199108 
L 433.71321 -130.013701 
L 433.378089 -131.828295 
L 432.983462 -133.642889 
L 432.522976 -135.457483 
L 431.990544 -137.272077 
L 431.380586 -139.086671 
L 430.68829 -140.901265 
L 429.909888 -142.715859 
L 429.042936 -144.530453 
L 428.086577 -146.345047 
L 427.041785 -148.15964 
L 425.911557 -149.974234 
L 424.701054 -151.788828 
L 423.417662 -153.603422 
L 422.070978 -155.418016 
L 420.672689 -157.23261 
L 419.236366 -159.047204 
L 417.77716 -160.861798 
L 416.311408 -162.676392 
L 414.856168 -164.490986 
L 413.428708 -166.305579 
L 412.045949 -168.120173 
L 410.723926 -169.934767 
L 409.477261 -171.749361 
L 408.3187 -173.563955 
L 407.258735 -175.378549 
L 406.305321 -177.193143 
L 405.463725 -179.007737 
L 404.736494 -180.822331 
L 404.12356 -182.636925 
L 403.622458 -184.451518 
L 403.228645 -186.266112 
L 402.935906 -188.080706 
L 402.7368 -189.8953 
L 402.623128 -191.709894 
L 402.586383 -193.524488 
L 402.618163 -195.339082 
L 402.710505 -197.153676 
L 402.856142 -198.96827 
L 403.048654 -200.782864 
L 403.282529 -202.597457 
L 403.553127 -204.412051 
L 403.85657 -206.226645 
L 404.189576 -208.041239 
L 404.549261 -209.855833 
L 404.932934 -211.670427 
L 405.337912 -213.485021 
L 405.761371 -215.299615 
L 406.200252 -217.114209 
L 406.651235 -218.928803 
L 407.110768 -220.743396 
L 407.575172 -222.55799 
L 408.040784 -224.372584 
L 408.504136 -226.187178 
L 408.962164 -228.001772 
L 409.412397 -229.816366 
L 409.853138 -231.63096 
L 410.283606 -233.445554 
L 410.704025 -235.260148 
L 411.115668 -237.074742 
L 411.520827 -238.889335 
L 411.922736 -240.703929 
L 412.325441 -242.518523 
L 412.733621 -244.333117 
L 413.152379 -246.147711 
L 413.587015 -247.962305 
L 414.04278 -249.776899 
L 414.524644 -251.591493 
L 415.03707 -253.406087 
L 415.583807 -255.220681 
L 416.167715 -257.035274 
L 416.790629 -258.849868 
L 417.453248 -260.664462 
L 418.155079 -262.479056 
L 418.894415 -264.29365 
L 419.668361 -266.108244 
L 420.472896 -267.922838 
L 421.302981 -269.737432 
L 422.152696 -271.552026 
L 423.015417 -273.36662 
L 423.884007 -275.181213 
L 424.75103 -276.995807 
L 425.608975 -278.810401 
L 426.450477 -280.624995 
L 427.268526 -282.439589 
L 428.056663 -284.254183 
L 428.809144 -286.068777 
L 429.521081 -287.883371 
L 430.188534 -289.697965 
L 430.808569 -291.512559 
L 431.379283 -293.327152 
L 431.899774 -295.141746 
L 432.370095 -296.95634 
L 432.791161 -298.770934 
L 433.164652 -300.585528 
L 433.492879 -302.400122 
L 433.778659 -304.214716 
L 434.025178 -306.02931 
L 434.235859 -307.843904 
L 436.120931 -307.843904 
L 436.120931 -307.843904 
L 436.331613 -306.02931 
L 436.578132 -304.214716 
L 436.863912 -302.400122 
L 437.192139 -300.585528 
L 437.565629 -298.770934 
L 437.986696 -296.95634 
L 438.457016 -295.141746 
L 438.977508 -293.327152 
L 439.548221 -291.512559 
L 440.168257 -289.697965 
L 440.83571 -287.883371 
L 441.547646 -286.068777 
L 442.300128 -284.254183 
L 443.088264 -282.439589 
L 443.906313 -280.624995 
L 444.747815 -278.810401 
L 445.605761 -276.995807 
L 446.472784 -275.181213 
L 447.341373 -273.36662 
L 448.204094 -271.552026 
L 449.05381 -269.737432 
L 449.883894 -267.922838 
L 450.68843 -266.108244 
L 451.462376 -264.29365 
L 452.201712 -262.479056 
L 452.903543 -260.664462 
L 453.566162 -258.849868 
L 454.189075 -257.035274 
L 454.772984 -255.220681 
L 455.31972 -253.406087 
L 455.832146 -251.591493 
L 456.314011 -249.776899 
L 456.769776 -247.962305 
L 457.204411 -246.147711 
L 457.62317 -244.333117 
L 458.03135 -242.518523 
L 458.434055 -240.703929 
L 458.835964 -238.889335 
L 459.241123 -237.074742 
L 459.652765 -235.260148 
L 460.073185 -233.445554 
L 460.503653 -231.63096 
L 460.944394 -229.816366 
L 461.394627 -228.001772 
L 461.852654 -226.187178 
L 462.316007 -224.372584 
L 462.781618 -222.55799 
L 463.246023 -220.743396 
L 463.705556 -218.928803 
L 464.156539 -217.114209 
L 464.59542 -215.299615 
L 465.018879 -213.485021 
L 465.423857 -211.670427 
L 465.80753 -209.855833 
L 466.167215 -208.041239 
L 466.500221 -206.226645 
L 466.803664 -204.412051 
L 467.074262 -202.597457 
L 467.308137 -200.782864 
L 467.500649 -198.96827 
L 467.646285 -197.153676 
L 467.738628 -195.339082 
L 467.770408 -193.524488 
L 467.733663 -191.709894 
L 467.619991 -189.8953 
L 467.420885 -188.080706 
L 467.128146 -186.266112 
L 466.734333 -184.451518 
L 466.23323 -182.636925 
L 465.620297 -180.822331 
L 464.893066 -179.007737 
L 464.051469 -177.193143 
L 463.098056 -175.378549 
L 462.03809 -173.563955 
L 460.87953 -171.749361 
L 459.632865 -169.934767 
L 458.310842 -168.120173 
L 456.928083 -166.305579 
L 455.500622 -164.490986 
L 454.045383 -162.676392 
L 452.579631 -160.861798 
L 451.120424 -159.047204 
L 449.684102 -157.23261 
L 448.285813 -155.418016 
L 446.939128 -153.603422 
L 445.655737 -151.788828 
L 444.445234 -149.974234 
L 443.315006 -148.15964 
L 442.270213 -146.345047 
L 441.313855 -144.530453 
L 440.446902 -142.715859 
L 439.668501 -140.901265 
L 438.976205 -139.086671 
L 438.366247 -137.272077 
L 437.833815 -135.457483 
L 437.373329 -133.642889 
L 436.978701 -131.828295 
L 436.643581 -130.013701 
L 436.361562 -128.199108 
z
" style="stroke: #3f3f3f; stroke-width: 1.25"/>
    </defs>
    <g clip-path="url(#p5d2061b5c1)">
     <use xlink:href="#m98ccf1de0b" x="0" y="360" style="fill: #3274a1; stroke: #3f3f3f; stroke-width: 1.25"/>
    </g>
   </g>
   <g id="PolyCollection_6">
    <defs>
     <path id="mb7e41080e3" d="M 500.877159 -110.274951 
L 499.847681 -110.274951 
L 499.719591 -111.860789 
L 499.56652 -113.446627 
L 499.385275 -115.032465 
L 499.172588 -116.618304 
L 498.925163 -118.204142 
L 498.639728 -119.78998 
L 498.313089 -121.375819 
L 497.942169 -122.961657 
L 497.524057 -124.547495 
L 497.056039 -126.133333 
L 496.535642 -127.719172 
L 495.960671 -129.30501 
L 495.329256 -130.890848 
L 494.639919 -132.476687 
L 493.891655 -134.062525 
L 493.084045 -135.648363 
L 492.217399 -137.234201 
L 491.292926 -138.82004 
L 490.312934 -140.405878 
L 489.281045 -141.991716 
L 488.202414 -143.577555 
L 487.083924 -145.163393 
L 485.93435 -146.749231 
L 484.764447 -148.335069 
L 483.586957 -149.920908 
L 482.416499 -151.506746 
L 481.269332 -153.092584 
L 480.162997 -154.678423 
L 479.115814 -156.264261 
L 478.14629 -157.850099 
L 477.272421 -159.435937 
L 476.510967 -161.021776 
L 475.876714 -162.607614 
L 475.381788 -164.193452 
L 475.035067 -165.77929 
L 474.841727 -167.365129 
L 474.802969 -168.950967 
L 474.915933 -170.536805 
L 475.173831 -172.122644 
L 475.566264 -173.708482 
L 476.079717 -175.29432 
L 476.698203 -176.880158 
L 477.403992 -178.465997 
L 478.178395 -180.051835 
L 479.002535 -181.637673 
L 479.858077 -183.223512 
L 480.727859 -184.80935 
L 481.596402 -186.395188 
L 482.450283 -187.981026 
L 483.278363 -189.566865 
L 484.071866 -191.152703 
L 484.824341 -192.738541 
L 485.531517 -194.32438 
L 486.191078 -195.910218 
L 486.802394 -197.496056 
L 487.366223 -199.081894 
L 487.884419 -200.667733 
L 488.359657 -202.253571 
L 488.795192 -203.839409 
L 489.194651 -205.425248 
L 489.561882 -207.011086 
L 489.900822 -208.596924 
L 490.215421 -210.182762 
L 490.509577 -211.768601 
L 490.787101 -213.354439 
L 491.051692 -214.940277 
L 491.306914 -216.526116 
L 491.556177 -218.111954 
L 491.802716 -219.697792 
L 492.049552 -221.28363 
L 492.299462 -222.869469 
L 492.554931 -224.455307 
L 492.8181 -226.041145 
L 493.090715 -227.626984 
L 493.374076 -229.212822 
L 493.66899 -230.79866 
L 493.975734 -232.384498 
L 494.294033 -233.970337 
L 494.623052 -235.556175 
L 494.961412 -237.142013 
L 495.307224 -238.727852 
L 495.658151 -240.31369 
L 496.011484 -241.899528 
L 496.364239 -243.485366 
L 496.713269 -245.071205 
L 497.055385 -246.657043 
L 497.38747 -248.242881 
L 497.706603 -249.82872 
L 498.010156 -251.414558 
L 498.295885 -253.000396 
L 498.561997 -254.586234 
L 498.807187 -256.172073 
L 499.030661 -257.757911 
L 499.232124 -259.343749 
L 499.411754 -260.929588 
L 499.570154 -262.515426 
L 499.708288 -264.101264 
L 499.827413 -265.687102 
L 499.929002 -267.272941 
L 500.795838 -267.272941 
L 500.795838 -267.272941 
L 500.897427 -265.687102 
L 501.016552 -264.101264 
L 501.154686 -262.515426 
L 501.313086 -260.929588 
L 501.492716 -259.343749 
L 501.69418 -257.757911 
L 501.917653 -256.172073 
L 502.162843 -254.586234 
L 502.428955 -253.000396 
L 502.714684 -251.414558 
L 503.018237 -249.82872 
L 503.33737 -248.242881 
L 503.669455 -246.657043 
L 504.011571 -245.071205 
L 504.360601 -243.485366 
L 504.713356 -241.899528 
L 505.066689 -240.31369 
L 505.417616 -238.727852 
L 505.763428 -237.142013 
L 506.101788 -235.556175 
L 506.430807 -233.970337 
L 506.749106 -232.384498 
L 507.05585 -230.79866 
L 507.350764 -229.212822 
L 507.634125 -227.626984 
L 507.90674 -226.041145 
L 508.169909 -224.455307 
L 508.425378 -222.869469 
L 508.675288 -221.28363 
L 508.922124 -219.697792 
L 509.168663 -218.111954 
L 509.417926 -216.526116 
L 509.673148 -214.940277 
L 509.937739 -213.354439 
L 510.215263 -211.768601 
L 510.509419 -210.182762 
L 510.824018 -208.596924 
L 511.162958 -207.011086 
L 511.530189 -205.425248 
L 511.929648 -203.839409 
L 512.365183 -202.253571 
L 512.840421 -200.667733 
L 513.358617 -199.081894 
L 513.922446 -197.496056 
L 514.533762 -195.910218 
L 515.193323 -194.32438 
L 515.900499 -192.738541 
L 516.652974 -191.152703 
L 517.446477 -189.566865 
L 518.274557 -187.981026 
L 519.128438 -186.395188 
L 519.996981 -184.80935 
L 520.866763 -183.223512 
L 521.722305 -181.637673 
L 522.546445 -180.051835 
L 523.320848 -178.465997 
L 524.026638 -176.880158 
L 524.645123 -175.29432 
L 525.158576 -173.708482 
L 525.551009 -172.122644 
L 525.808907 -170.536805 
L 525.921871 -168.950967 
L 525.883113 -167.365129 
L 525.689773 -165.77929 
L 525.343052 -164.193452 
L 524.848126 -162.607614 
L 524.213873 -161.021776 
L 523.452419 -159.435937 
L 522.57855 -157.850099 
L 521.609026 -156.264261 
L 520.561843 -154.678423 
L 519.455508 -153.092584 
L 518.308341 -151.506746 
L 517.137883 -149.920908 
L 515.960393 -148.335069 
L 514.79049 -146.749231 
L 513.640916 -145.163393 
L 512.522426 -143.577555 
L 511.443795 -141.991716 
L 510.411906 -140.405878 
L 509.431914 -138.82004 
L 508.507441 -137.234201 
L 507.640795 -135.648363 
L 506.833185 -134.062525 
L 506.084921 -132.476687 
L 505.395584 -130.890848 
L 504.764169 -129.30501 
L 504.189198 -127.719172 
L 503.668801 -126.133333 
L 503.200783 -124.547495 
L 502.782671 -122.961657 
L 502.411751 -121.375819 
L 502.085112 -119.78998 
L 501.799677 -118.204142 
L 501.552252 -116.618304 
L 501.339565 -115.032465 
L 501.15832 -113.446627 
L 501.005249 -111.860789 
L 500.877159 -110.274951 
z
" style="stroke: #3f3f3f; stroke-width: 1.25"/>
    </defs>
    <g clip-path="url(#p5d2061b5c1)">
     <use xlink:href="#mb7e41080e3" x="0" y="360" style="fill: #e1812c; stroke: #3f3f3f; stroke-width: 1.25"/>
    </g>
   </g>
   <g id="PolyCollection_7">
    <defs>
     <path id="mce24829e4d" d="M 598.882104 -55.292727 
L 597.39481 -55.292727 
L 597.243368 -57.986208 
L 597.068338 -60.679688 
L 596.867569 -63.373168 
L 596.63899 -66.066648 
L 596.380654 -68.760129 
L 596.090791 -71.453609 
L 595.767848 -74.147089 
L 595.410534 -76.840569 
L 595.017852 -79.53405 
L 594.589126 -82.22753 
L 594.124019 -84.92101 
L 593.622535 -87.61449 
L 593.085021 -90.307971 
L 592.512155 -93.001451 
L 591.904923 -95.694931 
L 591.2646 -98.388411 
L 590.592725 -101.081892 
L 589.891071 -103.775372 
L 589.161632 -106.468852 
L 588.406604 -109.162332 
L 587.62838 -111.855813 
L 586.829558 -114.549293 
L 586.012953 -117.242773 
L 585.181625 -119.936253 
L 584.33891 -122.629734 
L 583.488461 -125.323214 
L 582.634289 -128.016694 
L 581.780802 -130.710174 
L 580.932838 -133.403655 
L 580.095683 -136.097135 
L 579.27508 -138.790615 
L 578.47721 -141.484096 
L 577.708656 -144.177576 
L 576.97634 -146.871056 
L 576.287428 -149.564536 
L 575.649218 -152.258017 
L 575.068995 -154.951497 
L 574.553868 -157.644977 
L 574.110588 -160.338457 
L 573.74535 -163.031938 
L 573.463592 -165.725418 
L 573.269795 -168.418898 
L 573.167291 -171.112378 
L 573.158083 -173.805859 
L 573.242699 -176.499339 
L 573.420077 -179.192819 
L 573.687492 -181.886299 
L 574.040534 -184.57978 
L 574.473136 -187.27326 
L 574.977672 -189.96674 
L 575.545105 -192.66022 
L 576.165193 -195.353701 
L 576.826762 -198.047181 
L 577.518011 -200.740661 
L 578.226865 -203.434141 
L 578.941343 -206.127622 
L 579.649947 -208.821102 
L 580.342033 -211.514582 
L 581.00816 -214.208062 
L 581.640403 -216.901543 
L 582.232606 -219.595023 
L 582.780561 -222.288503 
L 583.282115 -224.981983 
L 583.737183 -227.675464 
L 584.147681 -230.368944 
L 584.517367 -233.062424 
L 584.851606 -235.755904 
L 585.15707 -238.449385 
L 585.441384 -241.142865 
L 585.712744 -243.836345 
L 585.979511 -246.529826 
L 586.249822 -249.223306 
L 586.531216 -251.916786 
L 586.830314 -254.610266 
L 587.15254 -257.303747 
L 587.501929 -259.997227 
L 587.880995 -262.690707 
L 588.290686 -265.384187 
L 588.730407 -268.077668 
L 589.198122 -270.771148 
L 589.69051 -273.464628 
L 590.203171 -276.158108 
L 590.730867 -278.851589 
L 591.267787 -281.545069 
L 591.807812 -284.238549 
L 592.344775 -286.932029 
L 592.8727 -289.62551 
L 593.386013 -292.31899 
L 593.879713 -295.01247 
L 594.349505 -297.70595 
L 594.791886 -300.399431 
L 595.204193 -303.092911 
L 595.584609 -305.786391 
L 595.932129 -308.479871 
L 596.246511 -311.173352 
L 596.528189 -313.866832 
L 596.77818 -316.560312 
L 596.997979 -319.253792 
L 597.189451 -321.947273 
L 599.087463 -321.947273 
L 599.087463 -321.947273 
L 599.278935 -319.253792 
L 599.498734 -316.560312 
L 599.748725 -313.866832 
L 600.030403 -311.173352 
L 600.344785 -308.479871 
L 600.692305 -305.786391 
L 601.07272 -303.092911 
L 601.485028 -300.399431 
L 601.927409 -297.70595 
L 602.397201 -295.01247 
L 602.890901 -292.31899 
L 603.404214 -289.62551 
L 603.932139 -286.932029 
L 604.469102 -284.238549 
L 605.009127 -281.545069 
L 605.546047 -278.851589 
L 606.073743 -276.158108 
L 606.586404 -273.464628 
L 607.078792 -270.771148 
L 607.546507 -268.077668 
L 607.986228 -265.384187 
L 608.395919 -262.690707 
L 608.774985 -259.997227 
L 609.124374 -257.303747 
L 609.4466 -254.610266 
L 609.745697 -251.916786 
L 610.027092 -249.223306 
L 610.297403 -246.529826 
L 610.56417 -243.836345 
L 610.835529 -241.142865 
L 611.119844 -238.449385 
L 611.425308 -235.755904 
L 611.759547 -233.062424 
L 612.129233 -230.368944 
L 612.539731 -227.675464 
L 612.994799 -224.981983 
L 613.496353 -222.288503 
L 614.044307 -219.595023 
L 614.63651 -216.901543 
L 615.268754 -214.208062 
L 615.934881 -211.514582 
L 616.626967 -208.821102 
L 617.335571 -206.127622 
L 618.050049 -203.434141 
L 618.758903 -200.740661 
L 619.450152 -198.047181 
L 620.111721 -195.353701 
L 620.731809 -192.66022 
L 621.299241 -189.96674 
L 621.803778 -187.27326 
L 622.23638 -184.57978 
L 622.589421 -181.886299 
L 622.856837 -179.192819 
L 623.034215 -176.499339 
L 623.118831 -173.805859 
L 623.109623 -171.112378 
L 623.007118 -168.418898 
L 622.813322 -165.725418 
L 622.531564 -163.031938 
L 622.166326 -160.338457 
L 621.723046 -157.644977 
L 621.207919 -154.951497 
L 620.627696 -152.258017 
L 619.989486 -149.564536 
L 619.300574 -146.871056 
L 618.568258 -144.177576 
L 617.799704 -141.484096 
L 617.001834 -138.790615 
L 616.181231 -136.097135 
L 615.344076 -133.403655 
L 614.496111 -130.710174 
L 613.642625 -128.016694 
L 612.788453 -125.323214 
L 611.938004 -122.629734 
L 611.095289 -119.936253 
L 610.263961 -117.242773 
L 609.447356 -114.549293 
L 608.648534 -111.855813 
L 607.87031 -109.162332 
L 607.115282 -106.468852 
L 606.385843 -103.775372 
L 605.684189 -101.081892 
L 605.012313 -98.388411 
L 604.371991 -95.694931 
L 603.764759 -93.001451 
L 603.191892 -90.307971 
L 602.654379 -87.61449 
L 602.152895 -84.92101 
L 601.687788 -82.22753 
L 601.259062 -79.53405 
L 600.86638 -76.840569 
L 600.509066 -74.147089 
L 600.186123 -71.453609 
L 599.896259 -68.760129 
L 599.637924 -66.066648 
L 599.409345 -63.373168 
L 599.208576 -60.679688 
L 599.033546 -57.986208 
L 598.882104 -55.292727 
z
" style="stroke: #3f3f3f; stroke-width: 1.25"/>
    </defs>
    <g clip-path="url(#p5d2061b5c1)">
     <use xlink:href="#mce24829e4d" x="0" y="360" style="fill: #3274a1; stroke: #3f3f3f; stroke-width: 1.25"/>
    </g>
   </g>
   <g id="PolyCollection_8">
    <defs>
     <path id="mea2577d268" d="M 664.985729 -123.891455 
L 661.659234 -123.891455 
L 661.327617 -124.851243 
L 660.94429 -125.811031 
L 660.504313 -126.770819 
L 660.002892 -127.730607 
L 659.435523 -128.690395 
L 658.798151 -129.650183 
L 658.087336 -130.609971 
L 657.300428 -131.569759 
L 656.435746 -132.529547 
L 655.492748 -133.489335 
L 654.472192 -134.449123 
L 653.376277 -135.408911 
L 652.208763 -136.368699 
L 650.975048 -137.328487 
L 649.682211 -138.288275 
L 648.339014 -139.248063 
L 646.95584 -140.207851 
L 645.544594 -141.167639 
L 644.118539 -142.127427 
L 642.692082 -143.087215 
L 641.280516 -144.047003 
L 639.899709 -145.006791 
L 638.565768 -145.966579 
L 637.294667 -146.926367 
L 636.101866 -147.886155 
L 635.001928 -148.845943 
L 634.00814 -149.805731 
L 633.132164 -150.765519 
L 632.383725 -151.725307 
L 631.770336 -152.685095 
L 631.297097 -153.644883 
L 630.966544 -154.604671 
L 630.778578 -155.564459 
L 630.730469 -156.524247 
L 630.816926 -157.484035 
L 631.030245 -158.443823 
L 631.360523 -159.403611 
L 631.795923 -160.363399 
L 632.323002 -161.323187 
L 632.927061 -162.282975 
L 633.592531 -163.242763 
L 634.303376 -164.202551 
L 635.043485 -165.16234 
L 635.797067 -166.122128 
L 636.549021 -167.081916 
L 637.285276 -168.041704 
L 637.993093 -169.001492 
L 638.661329 -169.96128 
L 639.280644 -170.921068 
L 639.843664 -171.880856 
L 640.345091 -172.840644 
L 640.781751 -173.800432 
L 641.152604 -174.76022 
L 641.45869 -175.720008 
L 641.703032 -176.679796 
L 641.890498 -177.639584 
L 642.027616 -178.599372 
L 642.122356 -179.55916 
L 642.183882 -180.518948 
L 642.222277 -181.478736 
L 642.248248 -182.438524 
L 642.272827 -183.398312 
L 642.307061 -184.3581 
L 642.361703 -185.317888 
L 642.446929 -186.277676 
L 642.572056 -187.237464 
L 642.745304 -188.197252 
L 642.97358 -189.15704 
L 643.262309 -190.116828 
L 643.615309 -191.076616 
L 644.034716 -192.036404 
L 644.520956 -192.996192 
L 645.07277 -193.95598 
L 645.687292 -194.915768 
L 646.360164 -195.875556 
L 647.085702 -196.835344 
L 647.857086 -197.795132 
L 648.666585 -198.75492 
L 649.505794 -199.714708 
L 650.365882 -200.674496 
L 651.23784 -201.634284 
L 652.112722 -202.594072 
L 652.981868 -203.55386 
L 653.837104 -204.513648 
L 654.670915 -205.473436 
L 655.476587 -206.433224 
L 656.248308 -207.393012 
L 656.981243 -208.3528 
L 657.671565 -209.312588 
L 658.31646 -210.272376 
L 658.914098 -211.232164 
L 659.46358 -212.191952 
L 659.964861 -213.15174 
L 660.418661 -214.111528 
L 660.826361 -215.071316 
L 661.189893 -216.031104 
L 661.511628 -216.990892 
L 661.79427 -217.95068 
L 662.04075 -218.910468 
L 664.604213 -218.910468 
L 664.604213 -218.910468 
L 664.850693 -217.95068 
L 665.133335 -216.990892 
L 665.455071 -216.031104 
L 665.818602 -215.071316 
L 666.226302 -214.111528 
L 666.680102 -213.15174 
L 667.181383 -212.191952 
L 667.730865 -211.232164 
L 668.328503 -210.272376 
L 668.973398 -209.312588 
L 669.66372 -208.3528 
L 670.396655 -207.393012 
L 671.168376 -206.433224 
L 671.974048 -205.473436 
L 672.807859 -204.513648 
L 673.663095 -203.55386 
L 674.532241 -202.594072 
L 675.407123 -201.634284 
L 676.279081 -200.674496 
L 677.139169 -199.714708 
L 677.978378 -198.75492 
L 678.787877 -197.795132 
L 679.559261 -196.835344 
L 680.284799 -195.875556 
L 680.957671 -194.915768 
L 681.572193 -193.95598 
L 682.124007 -192.996192 
L 682.610247 -192.036404 
L 683.029654 -191.076616 
L 683.382655 -190.116828 
L 683.671383 -189.15704 
L 683.899659 -188.197252 
L 684.072907 -187.237464 
L 684.198034 -186.277676 
L 684.28326 -185.317888 
L 684.337903 -184.3581 
L 684.372136 -183.398312 
L 684.396715 -182.438524 
L 684.422686 -181.478736 
L 684.461081 -180.518948 
L 684.522607 -179.55916 
L 684.617347 -178.599372 
L 684.754465 -177.639584 
L 684.941931 -176.679796 
L 685.186273 -175.720008 
L 685.492359 -174.76022 
L 685.863212 -173.800432 
L 686.299872 -172.840644 
L 686.801299 -171.880856 
L 687.364319 -170.921068 
L 687.983634 -169.96128 
L 688.65187 -169.001492 
L 689.359687 -168.041704 
L 690.095942 -167.081916 
L 690.847896 -166.122128 
L 691.601478 -165.16234 
L 692.341587 -164.202551 
L 693.052432 -163.242763 
L 693.717902 -162.282975 
L 694.321961 -161.323187 
L 694.84904 -160.363399 
L 695.28444 -159.403611 
L 695.614718 -158.443823 
L 695.828037 -157.484035 
L 695.914494 -156.524247 
L 695.866385 -155.564459 
L 695.67842 -154.604671 
L 695.347866 -153.644883 
L 694.874627 -152.685095 
L 694.261238 -151.725307 
L 693.512799 -150.765519 
L 692.636824 -149.805731 
L 691.643035 -148.845943 
L 690.543097 -147.886155 
L 689.350296 -146.926367 
L 688.079195 -145.966579 
L 686.745254 -145.006791 
L 685.364447 -144.047003 
L 683.952881 -143.087215 
L 682.526424 -142.127427 
L 681.100369 -141.167639 
L 679.689123 -140.207851 
L 678.305949 -139.248063 
L 676.962752 -138.288275 
L 675.669915 -137.328487 
L 674.4362 -136.368699 
L 673.268686 -135.408911 
L 672.172771 -134.449123 
L 671.152215 -133.489335 
L 670.209217 -132.529547 
L 669.344535 -131.569759 
L 668.557628 -130.609971 
L 667.846812 -129.650183 
L 667.20944 -128.690395 
L 666.642072 -127.730607 
L 666.14065 -126.770819 
L 665.700673 -125.811031 
L 665.317346 -124.851243 
L 664.985729 -123.891455 
z
" style="stroke: #3f3f3f; stroke-width: 1.25"/>
    </defs>
    <g clip-path="url(#p5d2061b5c1)">
     <use xlink:href="#mea2577d268" x="0" y="360" style="fill: #e1812c; stroke: #3f3f3f; stroke-width: 1.25"/>
    </g>
   </g>
   <g id="patch_6">
    <path d="M 467.770408 291.967618 
L 467.770408 291.967618 
L 467.770408 291.967618 
L 467.770408 291.967618 
z
" clip-path="url(#p5d2061b5c1)" style="fill: #3274a1; stroke: #3f3f3f; stroke-width: 1.25; stroke-linejoin: miter"/>
   </g>
   <g id="patch_7">
    <path d="M 467.770408 291.967618 
L 467.770408 291.967618 
L 467.770408 291.967618 
L 467.770408 291.967618 
z
" clip-path="url(#p5d2061b5c1)" style="fill: #e1812c; stroke: #3f3f3f; stroke-width: 1.25; stroke-linejoin: miter"/>
   </g>
   <g id="line2d_23">
    <path d="M 435.178395 193.406528 
L 435.178395 90.550461 
" clip-path="url(#p5d2061b5c1)" style="fill: none; stroke: #3f3f3f; stroke-width: 1.875; stroke-linecap: round"/>
   </g>
   <g id="line2d_24">
    <path d="M 435.178395 177.112794 
L 435.178395 121.782311 
" clip-path="url(#p5d2061b5c1)" style="fill: none; stroke: #3f3f3f; stroke-width: 5.625; stroke-linecap: round"/>
   </g>
   <g id="line2d_25">
    <path d="M 435.178395 149.337545 
" clip-path="url(#p5d2061b5c1)" style="fill: none; stroke: #3f3f3f; stroke-width: 1.5; stroke-linecap: round"/>
    <g clip-path="url(#p5d2061b5c1)">
     <use xlink:href="#mf4ca839cfd" x="435.178395" y="149.337545" style="fill: #ffffff; stroke: #ffffff; stroke-width: 1.125"/>
    </g>
   </g>
   <g id="line2d_26">
    <path d="M 500.36242 218.913608 
L 500.36242 123.538501 
" clip-path="url(#p5d2061b5c1)" style="fill: none; stroke: #3f3f3f; stroke-width: 1.875; stroke-linecap: round"/>
   </g>
   <g id="line2d_27">
    <path d="M 500.36242 195.2097 
L 500.36242 165.893227 
" clip-path="url(#p5d2061b5c1)" style="fill: none; stroke: #3f3f3f; stroke-width: 5.625; stroke-linecap: round"/>
   </g>
   <g id="line2d_28">
    <path d="M 500.36242 190.0222 
" clip-path="url(#p5d2061b5c1)" style="fill: none; stroke: #3f3f3f; stroke-width: 1.5; stroke-linecap: round"/>
    <g clip-path="url(#p5d2061b5c1)">
     <use xlink:href="#mf4ca839cfd" x="500.36242" y="190.0222" style="fill: #ffffff; stroke: #ffffff; stroke-width: 1.125"/>
    </g>
   </g>
   <g id="line2d_29">
    <path d="M 598.138457 243.906891 
L 598.138457 109.756406 
" clip-path="url(#p5d2061b5c1)" style="fill: none; stroke: #3f3f3f; stroke-width: 1.875; stroke-linecap: round"/>
   </g>
   <g id="line2d_30">
    <path d="M 598.138457 199.338802 
L 598.138457 159.939924 
" clip-path="url(#p5d2061b5c1)" style="fill: none; stroke: #3f3f3f; stroke-width: 5.625; stroke-linecap: round"/>
   </g>
   <g id="line2d_31">
    <path d="M 598.138457 176.121652 
" clip-path="url(#p5d2061b5c1)" style="fill: none; stroke: #3f3f3f; stroke-width: 1.5; stroke-linecap: round"/>
    <g clip-path="url(#p5d2061b5c1)">
     <use xlink:href="#mf4ca839cfd" x="598.138457" y="176.121652" style="fill: #ffffff; stroke: #ffffff; stroke-width: 1.125"/>
    </g>
   </g>
   <g id="line2d_32">
    <path d="M 663.322482 212.762292 
L 663.322482 164.435785 
" clip-path="url(#p5d2061b5c1)" style="fill: none; stroke: #3f3f3f; stroke-width: 1.875; stroke-linecap: round"/>
   </g>
   <g id="line2d_33">
    <path d="M 663.322482 205.274251 
L 663.322482 175.427763 
" clip-path="url(#p5d2061b5c1)" style="fill: none; stroke: #3f3f3f; stroke-width: 5.625; stroke-linecap: round"/>
   </g>
   <g id="line2d_34">
    <path d="M 663.322482 201.150528 
" clip-path="url(#p5d2061b5c1)" style="fill: none; stroke: #3f3f3f; stroke-width: 1.5; stroke-linecap: round"/>
    <g clip-path="url(#p5d2061b5c1)">
     <use xlink:href="#mf4ca839cfd" x="663.322482" y="201.150528" style="fill: #ffffff; stroke: #ffffff; stroke-width: 1.125"/>
    </g>
   </g>
   <g id="patch_8">
    <path d="M 386.290377 318.04 
L 386.290377 24.72 
" style="fill: none; stroke: #cccccc; stroke-width: 0.8; stroke-linejoin: miter; stroke-linecap: square"/>
   </g>
   <g id="patch_9">
    <path d="M 386.290377 318.04 
L 712.2105 318.04 
" style="fill: none; stroke: #cccccc; stroke-width: 0.8; stroke-linejoin: miter; stroke-linecap: square"/>
   </g>
   <g id="text_14">
    <!-- sex = m -->
    <g style="fill: #262626" transform="translate(531.606688 18.72) scale(0.1 -0.1)">
     <use xlink:href="#ArialMT-73"/>
     <use xlink:href="#ArialMT-65" x="50"/>
     <use xlink:href="#ArialMT-78" x="105.615234"/>
     <use xlink:href="#ArialMT-20" x="155.615234"/>
     <use xlink:href="#ArialMT-3d" x="183.398438"/>
     <use xlink:href="#ArialMT-20" x="241.796875"/>
     <use xlink:href="#ArialMT-6d" x="269.580078"/>
    </g>
   </g>
  </g>
  <g id="legend_1">
   <g id="text_15">
    <!-- Time -->
    <g style="fill: #262626" transform="translate(733.633594 168.439844) scale(0.1 -0.1)">
     <defs>
      <path id="ArialMT-54" d="M 1659 0 
L 1659 4041 
L 150 4041 
L 150 4581 
L 3781 4581 
L 3781 4041 
L 2266 4041 
L 2266 0 
L 1659 0 
z
" transform="scale(0.015625)"/>
     </defs>
     <use xlink:href="#ArialMT-54"/>
     <use xlink:href="#ArialMT-69" x="57.333984"/>
     <use xlink:href="#ArialMT-6d" x="79.550781"/>
     <use xlink:href="#ArialMT-65" x="162.851562"/>
    </g>
   </g>
   <g id="patch_10">
    <path d="M 719.1625 182.585156 
L 739.1625 182.585156 
L 739.1625 175.585156 
L 719.1625 175.585156 
z
" style="fill: #3274a1; stroke: #3f3f3f; stroke-width: 1.25; stroke-linejoin: miter"/>
   </g>
   <g id="text_16">
    <!-- initial -->
    <g style="fill: #262626" transform="translate(747.1625 182.585156) scale(0.1 -0.1)">
     <use xlink:href="#ArialMT-69"/>
     <use xlink:href="#ArialMT-6e" x="22.216797"/>
     <use xlink:href="#ArialMT-69" x="77.832031"/>
     <use xlink:href="#ArialMT-74" x="100.048828"/>
     <use xlink:href="#ArialMT-69" x="127.832031"/>
     <use xlink:href="#ArialMT-61" x="150.048828"/>
     <use xlink:href="#ArialMT-6c" x="205.664062"/>
    </g>
   </g>
   <g id="patch_11">
    <path d="M 719.1625 196.730469 
L 739.1625 196.730469 
L 739.1625 189.730469 
L 719.1625 189.730469 
z
" style="fill: #e1812c; stroke: #3f3f3f; stroke-width: 1.25; stroke-linejoin: miter"/>
   </g>
   <g id="text_17">
    <!-- final -->
    <g style="fill: #262626" transform="translate(747.1625 196.730469) scale(0.1 -0.1)">
     <use xlink:href="#ArialMT-66"/>
     <use xlink:href="#ArialMT-69" x="27.783203"/>
     <use xlink:href="#ArialMT-6e" x="50"/>
     <use xlink:href="#ArialMT-61" x="105.615234"/>
     <use xlink:href="#ArialMT-6c" x="161.230469"/>
    </g>
   </g>
  </g>
 </g>
 <defs>
  <clipPath id="pec9c5ec02a">
   <rect x="49.582331" y="24.72" width="325.920123" height="293.32"/>
  </clipPath>
  <clipPath id="p5d2061b5c1">
   <rect x="386.290377" y="24.72" width="325.920123" height="293.32"/>
  </clipPath>
 </defs>
</svg>
