<?xml version="1.0" encoding="utf-8" standalone="no"?>
<!DOCTYPE svg PUBLIC "-//W3C//DTD SVG 1.1//EN"
  "http://www.w3.org/Graphics/SVG/1.1/DTD/svg11.dtd">
<svg xmlns:xlink="http://www.w3.org/1999/xlink" width="778.95pt" height="360pt" viewBox="0 0 778.95 360" xmlns="http://www.w3.org/2000/svg" version="1.1">
 <metadata>
  <rdf:RDF xmlns:dc="http://purl.org/dc/elements/1.1/" xmlns:cc="http://creativecommons.org/ns#" xmlns:rdf="http://www.w3.org/1999/02/22-rdf-syntax-ns#">
   <cc:Work>
    <dc:type rdf:resource="http://purl.org/dc/dcmitype/StillImage"/>
    <dc:date>2024-09-10T22:04:31.173784</dc:date>
    <dc:format>image/svg+xml</dc:format>
    <dc:creator>
     <cc:Agent>
      <dc:title>Matplotlib v3.8.3, https://matplotlib.org/</dc:title>
     </cc:Agent>
    </dc:creator>
   </cc:Work>
  </rdf:RDF>
 </metadata>
 <defs>
  <style type="text/css">*{stroke-linejoin: round; stroke-linecap: butt}</style>
 </defs>
 <g id="figure_1">
  <g id="patch_1">
   <path d="M 0 360 
L 778.95 360 
L 778.95 0 
L 0 0 
z
" style="fill: #ffffff"/>
  </g>
  <g id="axes_1">
   <g id="patch_2">
    <path d="M 52.600763 318.04 
L 377.013563 318.04 
L 377.013563 24.72 
L 52.600763 24.72 
z
" style="fill: #ffffff"/>
   </g>
   <g id="matplotlib.axis_1">
    <g id="xtick_1">
     <g id="text_1">
      <!-- Jurilovca -->
      <g style="fill: #262626" transform="translate(113.975838 332.197812) scale(0.1 -0.1)">
       <defs>
        <path id="ArialMT-4a" d="M 184 1300 
L 731 1375 
Q 753 850 928 656 
Q 1103 463 1413 463 
Q 1641 463 1806 567 
Q 1972 672 2034 851 
Q 2097 1031 2097 1425 
L 2097 4581 
L 2703 4581 
L 2703 1459 
Q 2703 884 2564 568 
Q 2425 253 2123 87 
Q 1822 -78 1416 -78 
Q 813 -78 492 269 
Q 172 616 184 1300 
z
" transform="scale(0.015625)"/>
        <path id="ArialMT-75" d="M 2597 0 
L 2597 488 
Q 2209 -75 1544 -75 
Q 1250 -75 995 37 
Q 741 150 617 320 
Q 494 491 444 738 
Q 409 903 409 1263 
L 409 3319 
L 972 3319 
L 972 1478 
Q 972 1038 1006 884 
Q 1059 663 1231 536 
Q 1403 409 1656 409 
Q 1909 409 2131 539 
Q 2353 669 2445 892 
Q 2538 1116 2538 1541 
L 2538 3319 
L 3100 3319 
L 3100 0 
L 2597 0 
z
" transform="scale(0.015625)"/>
        <path id="ArialMT-72" d="M 416 0 
L 416 3319 
L 922 3319 
L 922 2816 
Q 1116 3169 1280 3281 
Q 1444 3394 1641 3394 
Q 1925 3394 2219 3213 
L 2025 2691 
Q 1819 2813 1613 2813 
Q 1428 2813 1281 2702 
Q 1134 2591 1072 2394 
Q 978 2094 978 1738 
L 978 0 
L 416 0 
z
" transform="scale(0.015625)"/>
        <path id="ArialMT-69" d="M 425 3934 
L 425 4581 
L 988 4581 
L 988 3934 
L 425 3934 
z
M 425 0 
L 425 3319 
L 988 3319 
L 988 0 
L 425 0 
z
" transform="scale(0.015625)"/>
        <path id="ArialMT-6c" d="M 409 0 
L 409 4581 
L 972 4581 
L 972 0 
L 409 0 
z
" transform="scale(0.015625)"/>
        <path id="ArialMT-6f" d="M 213 1659 
Q 213 2581 725 3025 
Q 1153 3394 1769 3394 
Q 2453 3394 2887 2945 
Q 3322 2497 3322 1706 
Q 3322 1066 3130 698 
Q 2938 331 2570 128 
Q 2203 -75 1769 -75 
Q 1072 -75 642 372 
Q 213 819 213 1659 
z
M 791 1659 
Q 791 1022 1069 705 
Q 1347 388 1769 388 
Q 2188 388 2466 706 
Q 2744 1025 2744 1678 
Q 2744 2294 2464 2611 
Q 2184 2928 1769 2928 
Q 1347 2928 1069 2612 
Q 791 2297 791 1659 
z
" transform="scale(0.015625)"/>
        <path id="ArialMT-76" d="M 1344 0 
L 81 3319 
L 675 3319 
L 1388 1331 
Q 1503 1009 1600 663 
Q 1675 925 1809 1294 
L 2547 3319 
L 3125 3319 
L 1869 0 
L 1344 0 
z
" transform="scale(0.015625)"/>
        <path id="ArialMT-63" d="M 2588 1216 
L 3141 1144 
Q 3050 572 2676 248 
Q 2303 -75 1759 -75 
Q 1078 -75 664 370 
Q 250 816 250 1647 
Q 250 2184 428 2587 
Q 606 2991 970 3192 
Q 1334 3394 1763 3394 
Q 2303 3394 2647 3120 
Q 2991 2847 3088 2344 
L 2541 2259 
Q 2463 2594 2264 2762 
Q 2066 2931 1784 2931 
Q 1359 2931 1093 2626 
Q 828 2322 828 1663 
Q 828 994 1084 691 
Q 1341 388 1753 388 
Q 2084 388 2306 591 
Q 2528 794 2588 1216 
z
" transform="scale(0.015625)"/>
        <path id="ArialMT-61" d="M 2588 409 
Q 2275 144 1986 34 
Q 1697 -75 1366 -75 
Q 819 -75 525 192 
Q 231 459 231 875 
Q 231 1119 342 1320 
Q 453 1522 633 1644 
Q 813 1766 1038 1828 
Q 1203 1872 1538 1913 
Q 2219 1994 2541 2106 
Q 2544 2222 2544 2253 
Q 2544 2597 2384 2738 
Q 2169 2928 1744 2928 
Q 1347 2928 1158 2789 
Q 969 2650 878 2297 
L 328 2372 
Q 403 2725 575 2942 
Q 747 3159 1072 3276 
Q 1397 3394 1825 3394 
Q 2250 3394 2515 3294 
Q 2781 3194 2906 3042 
Q 3031 2891 3081 2659 
Q 3109 2516 3109 2141 
L 3109 1391 
Q 3109 606 3145 398 
Q 3181 191 3288 0 
L 2700 0 
Q 2613 175 2588 409 
z
M 2541 1666 
Q 2234 1541 1622 1453 
Q 1275 1403 1131 1340 
Q 988 1278 909 1158 
Q 831 1038 831 891 
Q 831 666 1001 516 
Q 1172 366 1500 366 
Q 1825 366 2078 508 
Q 2331 650 2450 897 
Q 2541 1088 2541 1459 
L 2541 1666 
z
" transform="scale(0.015625)"/>
       </defs>
       <use xlink:href="#ArialMT-4a"/>
       <use xlink:href="#ArialMT-75" x="50"/>
       <use xlink:href="#ArialMT-72" x="105.615234"/>
       <use xlink:href="#ArialMT-69" x="138.916016"/>
       <use xlink:href="#ArialMT-6c" x="161.132812"/>
       <use xlink:href="#ArialMT-6f" x="183.349609"/>
       <use xlink:href="#ArialMT-76" x="238.964844"/>
       <use xlink:href="#ArialMT-63" x="288.964844"/>
       <use xlink:href="#ArialMT-61" x="338.964844"/>
      </g>
     </g>
    </g>
    <g id="xtick_2">
     <g id="text_2">
      <!-- Baia -->
      <g style="fill: #262626" transform="translate(285.903331 332.197812) scale(0.1 -0.1)">
       <defs>
        <path id="ArialMT-42" d="M 469 0 
L 469 4581 
L 2188 4581 
Q 2713 4581 3030 4442 
Q 3347 4303 3526 4014 
Q 3706 3725 3706 3409 
Q 3706 3116 3547 2856 
Q 3388 2597 3066 2438 
Q 3481 2316 3704 2022 
Q 3928 1728 3928 1328 
Q 3928 1006 3792 729 
Q 3656 453 3456 303 
Q 3256 153 2954 76 
Q 2653 0 2216 0 
L 469 0 
z
M 1075 2656 
L 2066 2656 
Q 2469 2656 2644 2709 
Q 2875 2778 2992 2937 
Q 3109 3097 3109 3338 
Q 3109 3566 3000 3739 
Q 2891 3913 2687 3977 
Q 2484 4041 1991 4041 
L 1075 4041 
L 1075 2656 
z
M 1075 541 
L 2216 541 
Q 2509 541 2628 563 
Q 2838 600 2978 687 
Q 3119 775 3209 942 
Q 3300 1109 3300 1328 
Q 3300 1584 3169 1773 
Q 3038 1963 2805 2039 
Q 2572 2116 2134 2116 
L 1075 2116 
L 1075 541 
z
" transform="scale(0.015625)"/>
       </defs>
       <use xlink:href="#ArialMT-42"/>
       <use xlink:href="#ArialMT-61" x="66.699219"/>
       <use xlink:href="#ArialMT-69" x="122.314453"/>
       <use xlink:href="#ArialMT-61" x="144.53125"/>
      </g>
     </g>
    </g>
    <g id="text_3">
     <!-- Location -->
     <g style="fill: #262626" transform="translate(195.904819 345.343125) scale(0.1 -0.1)">
      <defs>
       <path id="ArialMT-4c" d="M 469 0 
L 469 4581 
L 1075 4581 
L 1075 541 
L 3331 541 
L 3331 0 
L 469 0 
z
" transform="scale(0.015625)"/>
       <path id="ArialMT-74" d="M 1650 503 
L 1731 6 
Q 1494 -44 1306 -44 
Q 1000 -44 831 53 
Q 663 150 594 308 
Q 525 466 525 972 
L 525 2881 
L 113 2881 
L 113 3319 
L 525 3319 
L 525 4141 
L 1084 4478 
L 1084 3319 
L 1650 3319 
L 1650 2881 
L 1084 2881 
L 1084 941 
Q 1084 700 1114 631 
Q 1144 563 1211 522 
Q 1278 481 1403 481 
Q 1497 481 1650 503 
z
" transform="scale(0.015625)"/>
       <path id="ArialMT-6e" d="M 422 0 
L 422 3319 
L 928 3319 
L 928 2847 
Q 1294 3394 1984 3394 
Q 2284 3394 2536 3286 
Q 2788 3178 2913 3003 
Q 3038 2828 3088 2588 
Q 3119 2431 3119 2041 
L 3119 0 
L 2556 0 
L 2556 2019 
Q 2556 2363 2490 2533 
Q 2425 2703 2258 2804 
Q 2091 2906 1866 2906 
Q 1506 2906 1245 2678 
Q 984 2450 984 1813 
L 984 0 
L 422 0 
z
" transform="scale(0.015625)"/>
      </defs>
      <use xlink:href="#ArialMT-4c"/>
      <use xlink:href="#ArialMT-6f" x="55.615234"/>
      <use xlink:href="#ArialMT-63" x="111.230469"/>
      <use xlink:href="#ArialMT-61" x="161.230469"/>
      <use xlink:href="#ArialMT-74" x="216.845703"/>
      <use xlink:href="#ArialMT-69" x="244.628906"/>
      <use xlink:href="#ArialMT-6f" x="266.845703"/>
      <use xlink:href="#ArialMT-6e" x="322.460938"/>
     </g>
    </g>
   </g>
   <g id="matplotlib.axis_2">
    <g id="ytick_1">
     <g id="line2d_1">
      <path d="M 52.600763 311.704312 
L 377.013563 311.704312 
" clip-path="url(#p97123d941b)" style="fill: none; stroke: #cccccc; stroke-width: 0.8; stroke-linecap: round"/>
     </g>
     <g id="text_4">
      <!-- 60 -->
      <g style="fill: #262626" transform="translate(34.478887 315.283218) scale(0.1 -0.1)">
       <defs>
        <path id="ArialMT-36" d="M 3184 3459 
L 2625 3416 
Q 2550 3747 2413 3897 
Q 2184 4138 1850 4138 
Q 1581 4138 1378 3988 
Q 1113 3794 959 3422 
Q 806 3050 800 2363 
Q 1003 2672 1297 2822 
Q 1591 2972 1913 2972 
Q 2475 2972 2870 2558 
Q 3266 2144 3266 1488 
Q 3266 1056 3080 686 
Q 2894 316 2569 119 
Q 2244 -78 1831 -78 
Q 1128 -78 684 439 
Q 241 956 241 2144 
Q 241 3472 731 4075 
Q 1159 4600 1884 4600 
Q 2425 4600 2770 4297 
Q 3116 3994 3184 3459 
z
M 888 1484 
Q 888 1194 1011 928 
Q 1134 663 1356 523 
Q 1578 384 1822 384 
Q 2178 384 2434 671 
Q 2691 959 2691 1453 
Q 2691 1928 2437 2201 
Q 2184 2475 1800 2475 
Q 1419 2475 1153 2201 
Q 888 1928 888 1484 
z
" transform="scale(0.015625)"/>
        <path id="ArialMT-30" d="M 266 2259 
Q 266 3072 433 3567 
Q 600 4063 929 4331 
Q 1259 4600 1759 4600 
Q 2128 4600 2406 4451 
Q 2684 4303 2865 4023 
Q 3047 3744 3150 3342 
Q 3253 2941 3253 2259 
Q 3253 1453 3087 958 
Q 2922 463 2592 192 
Q 2263 -78 1759 -78 
Q 1097 -78 719 397 
Q 266 969 266 2259 
z
M 844 2259 
Q 844 1131 1108 757 
Q 1372 384 1759 384 
Q 2147 384 2411 759 
Q 2675 1134 2675 2259 
Q 2675 3391 2411 3762 
Q 2147 4134 1753 4134 
Q 1366 4134 1134 3806 
Q 844 3388 844 2259 
z
" transform="scale(0.015625)"/>
       </defs>
       <use xlink:href="#ArialMT-36"/>
       <use xlink:href="#ArialMT-30" x="55.615234"/>
      </g>
     </g>
    </g>
    <g id="ytick_2">
     <g id="line2d_2">
      <path d="M 52.600763 277.038498 
L 377.013563 277.038498 
" clip-path="url(#p97123d941b)" style="fill: none; stroke: #cccccc; stroke-width: 0.8; stroke-linecap: round"/>
     </g>
     <g id="text_5">
      <!-- 80 -->
      <g style="fill: #262626" transform="translate(34.478887 280.617404) scale(0.1 -0.1)">
       <defs>
        <path id="ArialMT-38" d="M 1131 2484 
Q 781 2613 612 2850 
Q 444 3088 444 3419 
Q 444 3919 803 4259 
Q 1163 4600 1759 4600 
Q 2359 4600 2725 4251 
Q 3091 3903 3091 3403 
Q 3091 3084 2923 2848 
Q 2756 2613 2416 2484 
Q 2838 2347 3058 2040 
Q 3278 1734 3278 1309 
Q 3278 722 2862 322 
Q 2447 -78 1769 -78 
Q 1091 -78 675 323 
Q 259 725 259 1325 
Q 259 1772 486 2073 
Q 713 2375 1131 2484 
z
M 1019 3438 
Q 1019 3113 1228 2906 
Q 1438 2700 1772 2700 
Q 2097 2700 2305 2904 
Q 2513 3109 2513 3406 
Q 2513 3716 2298 3927 
Q 2084 4138 1766 4138 
Q 1444 4138 1231 3931 
Q 1019 3725 1019 3438 
z
M 838 1322 
Q 838 1081 952 856 
Q 1066 631 1291 507 
Q 1516 384 1775 384 
Q 2178 384 2440 643 
Q 2703 903 2703 1303 
Q 2703 1709 2433 1975 
Q 2163 2241 1756 2241 
Q 1359 2241 1098 1978 
Q 838 1716 838 1322 
z
" transform="scale(0.015625)"/>
       </defs>
       <use xlink:href="#ArialMT-38"/>
       <use xlink:href="#ArialMT-30" x="55.615234"/>
      </g>
     </g>
    </g>
    <g id="ytick_3">
     <g id="line2d_3">
      <path d="M 52.600763 242.372684 
L 377.013563 242.372684 
" clip-path="url(#p97123d941b)" style="fill: none; stroke: #cccccc; stroke-width: 0.8; stroke-linecap: round"/>
     </g>
     <g id="text_6">
      <!-- 100 -->
      <g style="fill: #262626" transform="translate(28.91795 245.95159) scale(0.1 -0.1)">
       <defs>
        <path id="ArialMT-31" d="M 2384 0 
L 1822 0 
L 1822 3584 
Q 1619 3391 1289 3197 
Q 959 3003 697 2906 
L 697 3450 
Q 1169 3672 1522 3987 
Q 1875 4303 2022 4600 
L 2384 4600 
L 2384 0 
z
" transform="scale(0.015625)"/>
       </defs>
       <use xlink:href="#ArialMT-31"/>
       <use xlink:href="#ArialMT-30" x="55.615234"/>
       <use xlink:href="#ArialMT-30" x="111.230469"/>
      </g>
     </g>
    </g>
    <g id="ytick_4">
     <g id="line2d_4">
      <path d="M 52.600763 207.706869 
L 377.013563 207.706869 
" clip-path="url(#p97123d941b)" style="fill: none; stroke: #cccccc; stroke-width: 0.8; stroke-linecap: round"/>
     </g>
     <g id="text_7">
      <!-- 120 -->
      <g style="fill: #262626" transform="translate(28.91795 211.285775) scale(0.1 -0.1)">
       <defs>
        <path id="ArialMT-32" d="M 3222 541 
L 3222 0 
L 194 0 
Q 188 203 259 391 
Q 375 700 629 1000 
Q 884 1300 1366 1694 
Q 2113 2306 2375 2664 
Q 2638 3022 2638 3341 
Q 2638 3675 2398 3904 
Q 2159 4134 1775 4134 
Q 1369 4134 1125 3890 
Q 881 3647 878 3216 
L 300 3275 
Q 359 3922 746 4261 
Q 1134 4600 1788 4600 
Q 2447 4600 2831 4234 
Q 3216 3869 3216 3328 
Q 3216 3053 3103 2787 
Q 2991 2522 2730 2228 
Q 2469 1934 1863 1422 
Q 1356 997 1212 845 
Q 1069 694 975 541 
L 3222 541 
z
" transform="scale(0.015625)"/>
       </defs>
       <use xlink:href="#ArialMT-31"/>
       <use xlink:href="#ArialMT-32" x="55.615234"/>
       <use xlink:href="#ArialMT-30" x="111.230469"/>
      </g>
     </g>
    </g>
    <g id="ytick_5">
     <g id="line2d_5">
      <path d="M 52.600763 173.041055 
L 377.013563 173.041055 
" clip-path="url(#p97123d941b)" style="fill: none; stroke: #cccccc; stroke-width: 0.8; stroke-linecap: round"/>
     </g>
     <g id="text_8">
      <!-- 140 -->
      <g style="fill: #262626" transform="translate(28.91795 176.619961) scale(0.1 -0.1)">
       <defs>
        <path id="ArialMT-34" d="M 2069 0 
L 2069 1097 
L 81 1097 
L 81 1613 
L 2172 4581 
L 2631 4581 
L 2631 1613 
L 3250 1613 
L 3250 1097 
L 2631 1097 
L 2631 0 
L 2069 0 
z
M 2069 1613 
L 2069 3678 
L 634 1613 
L 2069 1613 
z
" transform="scale(0.015625)"/>
       </defs>
       <use xlink:href="#ArialMT-31"/>
       <use xlink:href="#ArialMT-34" x="55.615234"/>
       <use xlink:href="#ArialMT-30" x="111.230469"/>
      </g>
     </g>
    </g>
    <g id="ytick_6">
     <g id="line2d_6">
      <path d="M 52.600763 138.37524 
L 377.013563 138.37524 
" clip-path="url(#p97123d941b)" style="fill: none; stroke: #cccccc; stroke-width: 0.8; stroke-linecap: round"/>
     </g>
     <g id="text_9">
      <!-- 160 -->
      <g style="fill: #262626" transform="translate(28.91795 141.954147) scale(0.1 -0.1)">
       <use xlink:href="#ArialMT-31"/>
       <use xlink:href="#ArialMT-36" x="55.615234"/>
       <use xlink:href="#ArialMT-30" x="111.230469"/>
      </g>
     </g>
    </g>
    <g id="ytick_7">
     <g id="line2d_7">
      <path d="M 52.600763 103.709426 
L 377.013563 103.709426 
" clip-path="url(#p97123d941b)" style="fill: none; stroke: #cccccc; stroke-width: 0.8; stroke-linecap: round"/>
     </g>
     <g id="text_10">
      <!-- 180 -->
      <g style="fill: #262626" transform="translate(28.91795 107.288332) scale(0.1 -0.1)">
       <use xlink:href="#ArialMT-31"/>
       <use xlink:href="#ArialMT-38" x="55.615234"/>
       <use xlink:href="#ArialMT-30" x="111.230469"/>
      </g>
     </g>
    </g>
    <g id="ytick_8">
     <g id="line2d_8">
      <path d="M 52.600763 69.043612 
L 377.013563 69.043612 
" clip-path="url(#p97123d941b)" style="fill: none; stroke: #cccccc; stroke-width: 0.8; stroke-linecap: round"/>
     </g>
     <g id="text_11">
      <!-- 200 -->
      <g style="fill: #262626" transform="translate(28.91795 72.622518) scale(0.1 -0.1)">
       <use xlink:href="#ArialMT-32"/>
       <use xlink:href="#ArialMT-30" x="55.615234"/>
       <use xlink:href="#ArialMT-30" x="111.230469"/>
      </g>
     </g>
    </g>
    <g id="ytick_9">
     <g id="line2d_9">
      <path d="M 52.600763 34.377797 
L 377.013563 34.377797 
" clip-path="url(#p97123d941b)" style="fill: none; stroke: #cccccc; stroke-width: 0.8; stroke-linecap: round"/>
     </g>
     <g id="text_12">
      <!-- 220 -->
      <g style="fill: #262626" transform="translate(28.91795 37.956704) scale(0.1 -0.1)">
       <use xlink:href="#ArialMT-32"/>
       <use xlink:href="#ArialMT-32" x="55.615234"/>
       <use xlink:href="#ArialMT-30" x="111.230469"/>
      </g>
     </g>
    </g>
    <g id="text_13">
     <!-- Heart rate (beats/min) -->
     <g style="fill: #262626" transform="translate(22.813262 220.004219) rotate(-90) scale(0.1 -0.1)">
      <defs>
       <path id="ArialMT-48" d="M 513 0 
L 513 4581 
L 1119 4581 
L 1119 2700 
L 3500 2700 
L 3500 4581 
L 4106 4581 
L 4106 0 
L 3500 0 
L 3500 2159 
L 1119 2159 
L 1119 0 
L 513 0 
z
" transform="scale(0.015625)"/>
       <path id="ArialMT-65" d="M 2694 1069 
L 3275 997 
Q 3138 488 2766 206 
Q 2394 -75 1816 -75 
Q 1088 -75 661 373 
Q 234 822 234 1631 
Q 234 2469 665 2931 
Q 1097 3394 1784 3394 
Q 2450 3394 2872 2941 
Q 3294 2488 3294 1666 
Q 3294 1616 3291 1516 
L 816 1516 
Q 847 969 1125 678 
Q 1403 388 1819 388 
Q 2128 388 2347 550 
Q 2566 713 2694 1069 
z
M 847 1978 
L 2700 1978 
Q 2663 2397 2488 2606 
Q 2219 2931 1791 2931 
Q 1403 2931 1139 2672 
Q 875 2413 847 1978 
z
" transform="scale(0.015625)"/>
       <path id="ArialMT-20" transform="scale(0.015625)"/>
       <path id="ArialMT-28" d="M 1497 -1347 
Q 1031 -759 709 28 
Q 388 816 388 1659 
Q 388 2403 628 3084 
Q 909 3875 1497 4659 
L 1900 4659 
Q 1522 4009 1400 3731 
Q 1209 3300 1100 2831 
Q 966 2247 966 1656 
Q 966 153 1900 -1347 
L 1497 -1347 
z
" transform="scale(0.015625)"/>
       <path id="ArialMT-62" d="M 941 0 
L 419 0 
L 419 4581 
L 981 4581 
L 981 2947 
Q 1338 3394 1891 3394 
Q 2197 3394 2470 3270 
Q 2744 3147 2920 2923 
Q 3097 2700 3197 2384 
Q 3297 2069 3297 1709 
Q 3297 856 2875 390 
Q 2453 -75 1863 -75 
Q 1275 -75 941 416 
L 941 0 
z
M 934 1684 
Q 934 1088 1097 822 
Q 1363 388 1816 388 
Q 2184 388 2453 708 
Q 2722 1028 2722 1663 
Q 2722 2313 2464 2622 
Q 2206 2931 1841 2931 
Q 1472 2931 1203 2611 
Q 934 2291 934 1684 
z
" transform="scale(0.015625)"/>
       <path id="ArialMT-73" d="M 197 991 
L 753 1078 
Q 800 744 1014 566 
Q 1228 388 1613 388 
Q 2000 388 2187 545 
Q 2375 703 2375 916 
Q 2375 1106 2209 1216 
Q 2094 1291 1634 1406 
Q 1016 1563 777 1677 
Q 538 1791 414 1992 
Q 291 2194 291 2438 
Q 291 2659 392 2848 
Q 494 3038 669 3163 
Q 800 3259 1026 3326 
Q 1253 3394 1513 3394 
Q 1903 3394 2198 3281 
Q 2494 3169 2634 2976 
Q 2775 2784 2828 2463 
L 2278 2388 
Q 2241 2644 2061 2787 
Q 1881 2931 1553 2931 
Q 1166 2931 1000 2803 
Q 834 2675 834 2503 
Q 834 2394 903 2306 
Q 972 2216 1119 2156 
Q 1203 2125 1616 2013 
Q 2213 1853 2448 1751 
Q 2684 1650 2818 1456 
Q 2953 1263 2953 975 
Q 2953 694 2789 445 
Q 2625 197 2315 61 
Q 2006 -75 1616 -75 
Q 969 -75 630 194 
Q 291 463 197 991 
z
" transform="scale(0.015625)"/>
       <path id="ArialMT-2f" d="M 0 -78 
L 1328 4659 
L 1778 4659 
L 453 -78 
L 0 -78 
z
" transform="scale(0.015625)"/>
       <path id="ArialMT-6d" d="M 422 0 
L 422 3319 
L 925 3319 
L 925 2853 
Q 1081 3097 1340 3245 
Q 1600 3394 1931 3394 
Q 2300 3394 2536 3241 
Q 2772 3088 2869 2813 
Q 3263 3394 3894 3394 
Q 4388 3394 4653 3120 
Q 4919 2847 4919 2278 
L 4919 0 
L 4359 0 
L 4359 2091 
Q 4359 2428 4304 2576 
Q 4250 2725 4106 2815 
Q 3963 2906 3769 2906 
Q 3419 2906 3187 2673 
Q 2956 2441 2956 1928 
L 2956 0 
L 2394 0 
L 2394 2156 
Q 2394 2531 2256 2718 
Q 2119 2906 1806 2906 
Q 1569 2906 1367 2781 
Q 1166 2656 1075 2415 
Q 984 2175 984 1722 
L 984 0 
L 422 0 
z
" transform="scale(0.015625)"/>
       <path id="ArialMT-29" d="M 791 -1347 
L 388 -1347 
Q 1322 153 1322 1656 
Q 1322 2244 1188 2822 
Q 1081 3291 891 3722 
Q 769 4003 388 4659 
L 791 4659 
Q 1378 3875 1659 3084 
Q 1900 2403 1900 1659 
Q 1900 816 1576 28 
Q 1253 -759 791 -1347 
z
" transform="scale(0.015625)"/>
      </defs>
      <use xlink:href="#ArialMT-48"/>
      <use xlink:href="#ArialMT-65" x="72.216797"/>
      <use xlink:href="#ArialMT-61" x="127.832031"/>
      <use xlink:href="#ArialMT-72" x="183.447266"/>
      <use xlink:href="#ArialMT-74" x="216.748047"/>
      <use xlink:href="#ArialMT-20" x="244.53125"/>
      <use xlink:href="#ArialMT-72" x="272.314453"/>
      <use xlink:href="#ArialMT-61" x="305.615234"/>
      <use xlink:href="#ArialMT-74" x="361.230469"/>
      <use xlink:href="#ArialMT-65" x="389.013672"/>
      <use xlink:href="#ArialMT-20" x="444.628906"/>
      <use xlink:href="#ArialMT-28" x="472.412109"/>
      <use xlink:href="#ArialMT-62" x="505.712891"/>
      <use xlink:href="#ArialMT-65" x="561.328125"/>
      <use xlink:href="#ArialMT-61" x="616.943359"/>
      <use xlink:href="#ArialMT-74" x="672.558594"/>
      <use xlink:href="#ArialMT-73" x="700.341797"/>
      <use xlink:href="#ArialMT-2f" x="750.341797"/>
      <use xlink:href="#ArialMT-6d" x="778.125"/>
      <use xlink:href="#ArialMT-69" x="861.425781"/>
      <use xlink:href="#ArialMT-6e" x="883.642578"/>
      <use xlink:href="#ArialMT-29" x="939.257812"/>
     </g>
    </g>
   </g>
   <g id="PolyCollection_1">
    <defs>
     <path id="me520f4b6d2" d="M 101.982414 -55.292727 
L 100.542951 -55.292727 
L 100.423731 -57.744346 
L 100.290405 -60.195964 
L 100.142358 -62.647583 
L 99.979131 -65.099201 
L 99.800448 -67.55082 
L 99.606246 -70.002438 
L 99.396687 -72.454057 
L 99.172178 -74.905675 
L 98.933375 -77.357294 
L 98.681182 -79.808912 
L 98.416736 -82.260531 
L 98.141387 -84.712149 
L 97.856666 -87.163768 
L 97.564238 -89.615387 
L 97.265857 -92.067005 
L 96.963305 -94.518624 
L 96.658327 -96.970242 
L 96.352568 -99.421861 
L 96.047508 -101.873479 
L 95.744397 -104.325098 
L 95.444208 -106.776716 
L 95.147584 -109.228335 
L 94.854818 -111.679953 
L 94.565827 -114.131572 
L 94.280163 -116.58319 
L 93.997026 -119.034809 
L 93.715306 -121.486427 
L 93.433634 -123.938046 
L 93.150449 -126.389664 
L 92.864081 -128.841283 
L 92.572834 -131.292901 
L 92.275077 -133.74452 
L 91.96933 -136.196138 
L 91.654349 -138.647757 
L 91.32919 -141.099375 
L 90.993269 -143.550994 
L 90.646394 -146.002612 
L 90.288786 -148.454231 
L 89.921071 -150.905849 
L 89.544255 -153.357468 
L 89.159683 -155.809087 
L 88.768974 -158.260705 
L 88.373959 -160.712324 
L 87.976599 -163.163942 
L 87.578905 -165.615561 
L 87.182875 -168.067179 
L 86.790423 -170.518798 
L 86.403336 -172.970416 
L 86.023246 -175.422035 
L 85.651622 -177.873653 
L 85.289781 -180.325272 
L 84.93893 -182.77689 
L 84.600213 -185.228509 
L 84.274781 -187.680127 
L 83.963871 -190.131746 
L 83.668885 -192.583364 
L 83.391467 -195.034983 
L 83.133569 -197.486601 
L 82.897501 -199.93822 
L 82.685958 -202.389838 
L 82.502022 -204.841457 
L 82.349129 -207.293075 
L 82.231017 -209.744694 
L 82.15163 -212.196312 
L 82.115008 -214.647931 
L 82.12515 -217.099549 
L 82.185857 -219.551168 
L 82.300578 -222.002787 
L 82.472244 -224.454405 
L 82.703116 -226.906024 
L 82.994649 -229.357642 
L 83.347377 -231.809261 
L 83.76083 -234.260879 
L 84.233481 -236.712498 
L 84.762737 -239.164116 
L 85.344958 -241.615735 
L 85.975527 -244.067353 
L 86.64894 -246.518972 
L 87.358938 -248.97059 
L 88.098658 -251.422209 
L 88.860804 -253.873827 
L 89.637826 -256.325446 
L 90.422109 -258.777064 
L 91.206151 -261.228683 
L 91.982736 -263.680301 
L 92.745085 -266.13192 
L 93.486995 -268.583538 
L 94.202941 -271.035157 
L 94.888162 -273.486775 
L 95.538711 -275.938394 
L 96.151481 -278.390012 
L 96.724208 -280.841631 
L 97.255438 -283.293249 
L 97.744493 -285.744868 
L 98.191398 -288.196487 
L 98.596811 -290.648105 
L 98.961937 -293.099724 
L 99.288438 -295.551342 
L 99.578345 -298.002961 
L 102.94702 -298.002961 
L 102.94702 -298.002961 
L 103.236927 -295.551342 
L 103.563428 -293.099724 
L 103.928555 -290.648105 
L 104.333967 -288.196487 
L 104.780872 -285.744868 
L 105.269927 -283.293249 
L 105.801158 -280.841631 
L 106.373884 -278.390012 
L 106.986654 -275.938394 
L 107.637203 -273.486775 
L 108.322424 -271.035157 
L 109.03837 -268.583538 
L 109.78028 -266.13192 
L 110.542629 -263.680301 
L 111.319214 -261.228683 
L 112.103256 -258.777064 
L 112.887539 -256.325446 
L 113.664561 -253.873827 
L 114.426707 -251.422209 
L 115.166427 -248.97059 
L 115.876425 -246.518972 
L 116.549839 -244.067353 
L 117.180407 -241.615735 
L 117.762628 -239.164116 
L 118.291884 -236.712498 
L 118.764535 -234.260879 
L 119.177988 -231.809261 
L 119.530716 -229.357642 
L 119.82225 -226.906024 
L 120.053122 -224.454405 
L 120.224787 -222.002787 
L 120.339508 -219.551168 
L 120.400216 -217.099549 
L 120.410357 -214.647931 
L 120.373735 -212.196312 
L 120.294348 -209.744694 
L 120.176236 -207.293075 
L 120.023343 -204.841457 
L 119.839407 -202.389838 
L 119.627864 -199.93822 
L 119.391796 -197.486601 
L 119.133898 -195.034983 
L 118.85648 -192.583364 
L 118.561494 -190.131746 
L 118.250584 -187.680127 
L 117.925152 -185.228509 
L 117.586435 -182.77689 
L 117.235584 -180.325272 
L 116.873743 -177.873653 
L 116.502119 -175.422035 
L 116.122029 -172.970416 
L 115.734942 -170.518798 
L 115.34249 -168.067179 
L 114.94646 -165.615561 
L 114.548767 -163.163942 
L 114.151406 -160.712324 
L 113.756391 -158.260705 
L 113.365683 -155.809087 
L 112.98111 -153.357468 
L 112.604294 -150.905849 
L 112.236579 -148.454231 
L 111.878971 -146.002612 
L 111.532096 -143.550994 
L 111.196175 -141.099375 
L 110.871016 -138.647757 
L 110.556035 -136.196138 
L 110.250288 -133.74452 
L 109.952531 -131.292901 
L 109.661284 -128.841283 
L 109.374916 -126.389664 
L 109.091731 -123.938046 
L 108.810059 -121.486427 
L 108.528339 -119.034809 
L 108.245202 -116.58319 
L 107.959538 -114.131572 
L 107.670548 -111.679953 
L 107.377781 -109.228335 
L 107.081157 -106.776716 
L 106.780968 -104.325098 
L 106.477857 -101.873479 
L 106.172797 -99.421861 
L 105.867038 -96.970242 
L 105.56206 -94.518624 
L 105.259508 -92.067005 
L 104.961127 -89.615387 
L 104.6687 -87.163768 
L 104.383978 -84.712149 
L 104.108629 -82.260531 
L 103.844183 -79.808912 
L 103.59199 -77.357294 
L 103.353187 -74.905675 
L 103.128678 -72.454057 
L 102.919119 -70.002438 
L 102.724917 -67.55082 
L 102.546234 -65.099201 
L 102.383007 -62.647583 
L 102.23496 -60.195964 
L 102.101635 -57.744346 
L 101.982414 -55.292727 
z
" style="stroke: #3f3f3f; stroke-width: 1.25"/>
    </defs>
    <g clip-path="url(#p97123d941b)">
     <use xlink:href="#me520f4b6d2" x="0" y="360" style="fill: #3274a1; stroke: #3f3f3f; stroke-width: 1.25"/>
    </g>
   </g>
   <g id="PolyCollection_2">
    <defs>
     <path id="m436f74e6da" d="M 167.106882 -57.037221 
L 165.183603 -57.037221 
L 165.023867 -58.992064 
L 164.845584 -60.946907 
L 164.648153 -62.90175 
L 164.431253 -64.856593 
L 164.194893 -66.811436 
L 163.939461 -68.766279 
L 163.66576 -70.721122 
L 163.375039 -72.675965 
L 163.069016 -74.630808 
L 162.74988 -76.585651 
L 162.420283 -78.540494 
L 162.083313 -80.495337 
L 161.74245 -82.45018 
L 161.4015 -84.405024 
L 161.064513 -86.359867 
L 160.735689 -88.31471 
L 160.419261 -90.269553 
L 160.11937 -92.224396 
L 159.839934 -94.179239 
L 159.584508 -96.134082 
L 159.356153 -98.088925 
L 159.157297 -100.043768 
L 158.989619 -101.998611 
L 158.853945 -103.953454 
L 158.750153 -105.908297 
L 158.677118 -107.86314 
L 158.632669 -109.817983 
L 158.613577 -111.772826 
L 158.61558 -113.727669 
L 158.633425 -115.682512 
L 158.660946 -117.637355 
L 158.691169 -119.592198 
L 158.716436 -121.547041 
L 158.728553 -123.501884 
L 158.718961 -125.456727 
L 158.678907 -127.41157 
L 158.599639 -129.366413 
L 158.472594 -131.321256 
L 158.2896 -133.276099 
L 158.043058 -135.230942 
L 157.726139 -137.185785 
L 157.33295 -139.140628 
L 156.858706 -141.095471 
L 156.299872 -143.050314 
L 155.6543 -145.005157 
L 154.921335 -146.960001 
L 154.101906 -148.914844 
L 153.198593 -150.869687 
L 152.215664 -152.82453 
L 151.159085 -154.779373 
L 150.036508 -156.734216 
L 148.857215 -158.689059 
L 147.632042 -160.643902 
L 146.37326 -162.598745 
L 145.094429 -164.553588 
L 143.810219 -166.508431 
L 142.536189 -168.463274 
L 141.28855 -170.418117 
L 140.083889 -172.37296 
L 138.938878 -174.327803 
L 137.869959 -176.282646 
L 136.893027 -178.237489 
L 136.023099 -180.192332 
L 135.273995 -182.147175 
L 134.658036 -184.102018 
L 134.185753 -186.056861 
L 133.865646 -188.011704 
L 133.703963 -189.966547 
L 133.704548 -191.92139 
L 133.868732 -193.876233 
L 134.195285 -195.831076 
L 134.680434 -197.785919 
L 135.317946 -199.740762 
L 136.099263 -201.695605 
L 137.013711 -203.650448 
L 138.048744 -205.605291 
L 139.190246 -207.560134 
L 140.422863 -209.514978 
L 141.730351 -211.469821 
L 143.095955 -213.424664 
L 144.502767 -215.379507 
L 145.934091 -217.33435 
L 147.373775 -219.289193 
L 148.806521 -221.244036 
L 150.218145 -223.198879 
L 151.595801 -225.153722 
L 152.928153 -227.108565 
L 154.205491 -229.063408 
L 155.419802 -231.018251 
L 156.564787 -232.973094 
L 157.635831 -234.927937 
L 158.629936 -236.88278 
L 159.545613 -238.837623 
L 160.382752 -240.792466 
L 161.142465 -242.747309 
L 161.826919 -244.702152 
L 162.439157 -246.656995 
L 162.982926 -248.611838 
L 163.462503 -250.566681 
L 168.827982 -250.566681 
L 168.827982 -250.566681 
L 169.307559 -248.611838 
L 169.851328 -246.656995 
L 170.463567 -244.702152 
L 171.14802 -242.747309 
L 171.907733 -240.792466 
L 172.744872 -238.837623 
L 173.660549 -236.88278 
L 174.654654 -234.927937 
L 175.725698 -232.973094 
L 176.870683 -231.018251 
L 178.084994 -229.063408 
L 179.362332 -227.108565 
L 180.694684 -225.153722 
L 182.07234 -223.198879 
L 183.483964 -221.244036 
L 184.91671 -219.289193 
L 186.356395 -217.33435 
L 187.787719 -215.379507 
L 189.194531 -213.424664 
L 190.560134 -211.469821 
L 191.867623 -209.514978 
L 193.100239 -207.560134 
L 194.241741 -205.605291 
L 195.276774 -203.650448 
L 196.191222 -201.695605 
L 196.972539 -199.740762 
L 197.610051 -197.785919 
L 198.095201 -195.831076 
L 198.421753 -193.876233 
L 198.585937 -191.92139 
L 198.586523 -189.966547 
L 198.42484 -188.011704 
L 198.104732 -186.056861 
L 197.63245 -184.102018 
L 197.01649 -182.147175 
L 196.267387 -180.192332 
L 195.397458 -178.237489 
L 194.420526 -176.282646 
L 193.351607 -174.327803 
L 192.206596 -172.37296 
L 191.001935 -170.418117 
L 189.754296 -168.463274 
L 188.480266 -166.508431 
L 187.196056 -164.553588 
L 185.917225 -162.598745 
L 184.658443 -160.643902 
L 183.43327 -158.689059 
L 182.253977 -156.734216 
L 181.1314 -154.779373 
L 180.074822 -152.82453 
L 179.091892 -150.869687 
L 178.188579 -148.914844 
L 177.36915 -146.960001 
L 176.636185 -145.005157 
L 175.990613 -143.050314 
L 175.431779 -141.095471 
L 174.957535 -139.140628 
L 174.564347 -137.185785 
L 174.247427 -135.230942 
L 174.000886 -133.276099 
L 173.817891 -131.321256 
L 173.690846 -129.366413 
L 173.611578 -127.41157 
L 173.571524 -125.456727 
L 173.561932 -123.501884 
L 173.57405 -121.547041 
L 173.599316 -119.592198 
L 173.629539 -117.637355 
L 173.65706 -115.682512 
L 173.674905 -113.727669 
L 173.676908 -111.772826 
L 173.657817 -109.817983 
L 173.613367 -107.86314 
L 173.540332 -105.908297 
L 173.436541 -103.953454 
L 173.300866 -101.998611 
L 173.133189 -100.043768 
L 172.934332 -98.088925 
L 172.705977 -96.134082 
L 172.450552 -94.179239 
L 172.171115 -92.224396 
L 171.871224 -90.269553 
L 171.554796 -88.31471 
L 171.225972 -86.359867 
L 170.888986 -84.405024 
L 170.548035 -82.45018 
L 170.207172 -80.495337 
L 169.870202 -78.540494 
L 169.540605 -76.585651 
L 169.221469 -74.630808 
L 168.915446 -72.675965 
L 168.624725 -70.721122 
L 168.351024 -68.766279 
L 168.095592 -66.811436 
L 167.859232 -64.856593 
L 167.642332 -62.90175 
L 167.444901 -60.946907 
L 167.266618 -58.992064 
L 167.106882 -57.037221 
z
" style="stroke: #3f3f3f; stroke-width: 1.25"/>
    </defs>
    <g clip-path="url(#p97123d941b)">
     <use xlink:href="#m436f74e6da" x="0" y="360" style="fill: #e1812c; stroke: #3f3f3f; stroke-width: 1.25"/>
    </g>
   </g>
   <g id="PolyCollection_3">
    <defs>
     <path id="m02194aad2c" d="M 264.860315 -108.198795 
L 262.07785 -108.198795 
L 261.788325 -109.919245 
L 261.451804 -111.639694 
L 261.06359 -113.360144 
L 260.619097 -115.080594 
L 260.113978 -116.801043 
L 259.544264 -118.521493 
L 258.906507 -120.241943 
L 258.197931 -121.962392 
L 257.416577 -123.682842 
L 256.561447 -125.403292 
L 255.632629 -127.123741 
L 254.631405 -128.844191 
L 253.560342 -130.564641 
L 252.42335 -132.28509 
L 251.225713 -134.00554 
L 249.974087 -135.725989 
L 248.676466 -137.446439 
L 247.342117 -139.166889 
L 245.981476 -140.887338 
L 244.606027 -142.607788 
L 243.228145 -144.328238 
L 241.860924 -146.048687 
L 240.517984 -147.769137 
L 239.213266 -149.489587 
L 237.960812 -151.210036 
L 236.774548 -152.930486 
L 235.668056 -154.650936 
L 234.654345 -156.371385 
L 233.745629 -158.091835 
L 232.953105 -159.812285 
L 232.286736 -161.532734 
L 231.755049 -163.253184 
L 231.364936 -164.973634 
L 231.121482 -166.694083 
L 231.027803 -168.414533 
L 231.084916 -170.134982 
L 231.291642 -171.855432 
L 231.644542 -173.575882 
L 232.137899 -175.296331 
L 232.763752 -177.016781 
L 233.511983 -178.737231 
L 234.370455 -180.45768 
L 235.325216 -182.17813 
L 236.360755 -183.89858 
L 237.46031 -185.619029 
L 238.606224 -187.339479 
L 239.780335 -189.059929 
L 240.964399 -190.780378 
L 242.140516 -192.500828 
L 243.291564 -194.221278 
L 244.401612 -195.941727 
L 245.456309 -197.662177 
L 246.443219 -199.382627 
L 247.352112 -201.103076 
L 248.17518 -202.823526 
L 248.907183 -204.543975 
L 249.545514 -206.264425 
L 250.090182 -207.984875 
L 250.543723 -209.705324 
L 250.911023 -211.425774 
L 251.199087 -213.146224 
L 251.416733 -214.866673 
L 251.574256 -216.587123 
L 251.683043 -218.307573 
L 251.755177 -220.028022 
L 251.803032 -221.748472 
L 251.838869 -223.468922 
L 251.87447 -225.189371 
L 251.920785 -226.909821 
L 251.987641 -228.630271 
L 252.08349 -230.35072 
L 252.215223 -232.07117 
L 252.388044 -233.791619 
L 252.60541 -235.512069 
L 252.869025 -237.232519 
L 253.178907 -238.952968 
L 253.533493 -240.673418 
L 253.929801 -242.393868 
L 254.363624 -244.114317 
L 254.829752 -245.834767 
L 255.322213 -247.555217 
L 255.834517 -249.275666 
L 256.359907 -250.996116 
L 256.891583 -252.716566 
L 257.422923 -254.437015 
L 257.947667 -256.157465 
L 258.460075 -257.877915 
L 258.955054 -259.598364 
L 259.428242 -261.318814 
L 259.87607 -263.039264 
L 260.295777 -264.759713 
L 260.685406 -266.480163 
L 261.04377 -268.200612 
L 261.370394 -269.921062 
L 261.665444 -271.641512 
L 261.929644 -273.361961 
L 262.164182 -275.082411 
L 262.370619 -276.802861 
L 262.550795 -278.52331 
L 264.38737 -278.52331 
L 264.38737 -278.52331 
L 264.567547 -276.802861 
L 264.773984 -275.082411 
L 265.008522 -273.361961 
L 265.272722 -271.641512 
L 265.567772 -269.921062 
L 265.894396 -268.200612 
L 266.252759 -266.480163 
L 266.642388 -264.759713 
L 267.062095 -263.039264 
L 267.509923 -261.318814 
L 267.983112 -259.598364 
L 268.47809 -257.877915 
L 268.990499 -256.157465 
L 269.515243 -254.437015 
L 270.046582 -252.716566 
L 270.578259 -250.996116 
L 271.103648 -249.275666 
L 271.615953 -247.555217 
L 272.108413 -245.834767 
L 272.574541 -244.114317 
L 273.008364 -242.393868 
L 273.404672 -240.673418 
L 273.759258 -238.952968 
L 274.06914 -237.232519 
L 274.332755 -235.512069 
L 274.550121 -233.791619 
L 274.722942 -232.07117 
L 274.854675 -230.35072 
L 274.950524 -228.630271 
L 275.01738 -226.909821 
L 275.063695 -225.189371 
L 275.099296 -223.468922 
L 275.135134 -221.748472 
L 275.182988 -220.028022 
L 275.255123 -218.307573 
L 275.36391 -216.587123 
L 275.521433 -214.866673 
L 275.739079 -213.146224 
L 276.027142 -211.425774 
L 276.394443 -209.705324 
L 276.847983 -207.984875 
L 277.392652 -206.264425 
L 278.030982 -204.543975 
L 278.762985 -202.823526 
L 279.586053 -201.103076 
L 280.494947 -199.382627 
L 281.481857 -197.662177 
L 282.536553 -195.941727 
L 283.646602 -194.221278 
L 284.79765 -192.500828 
L 285.973766 -190.780378 
L 287.15783 -189.059929 
L 288.331942 -187.339479 
L 289.477855 -185.619029 
L 290.57741 -183.89858 
L 291.612949 -182.17813 
L 292.56771 -180.45768 
L 293.426182 -178.737231 
L 294.174413 -177.016781 
L 294.800267 -175.296331 
L 295.293624 -173.575882 
L 295.646523 -171.855432 
L 295.853249 -170.134982 
L 295.910363 -168.414533 
L 295.816683 -166.694083 
L 295.573229 -164.973634 
L 295.183117 -163.253184 
L 294.651429 -161.532734 
L 293.98506 -159.812285 
L 293.192536 -158.091835 
L 292.28382 -156.371385 
L 291.270109 -154.650936 
L 290.163617 -152.930486 
L 288.977354 -151.210036 
L 287.7249 -149.489587 
L 286.420181 -147.769137 
L 285.077241 -146.048687 
L 283.71002 -144.328238 
L 282.332138 -142.607788 
L 280.956689 -140.887338 
L 279.596048 -139.166889 
L 278.261699 -137.446439 
L 276.964079 -135.725989 
L 275.712453 -134.00554 
L 274.514815 -132.28509 
L 273.377823 -130.564641 
L 272.30676 -128.844191 
L 271.305536 -127.123741 
L 270.376718 -125.403292 
L 269.521588 -123.682842 
L 268.740235 -121.962392 
L 268.031658 -120.241943 
L 267.393901 -118.521493 
L 266.824187 -116.801043 
L 266.319069 -115.080594 
L 265.874575 -113.360144 
L 265.486361 -111.639694 
L 265.14984 -109.919245 
L 264.860315 -108.198795 
z
" style="stroke: #3f3f3f; stroke-width: 1.25"/>
    </defs>
    <g clip-path="url(#p97123d941b)">
     <use xlink:href="#m02194aad2c" x="0" y="360" style="fill: #3274a1; stroke: #3f3f3f; stroke-width: 1.25"/>
    </g>
   </g>
   <g id="PolyCollection_4">
    <defs>
     <path id="m64fa22aa9a" d="M 329.111732 -84.164608 
L 327.591554 -84.164608 
L 327.439595 -86.1944 
L 327.264625 -88.224192 
L 327.064684 -90.253984 
L 326.837908 -92.283776 
L 326.582584 -94.313568 
L 326.297186 -96.34336 
L 325.980421 -98.373152 
L 325.63126 -100.402944 
L 325.24897 -102.432735 
L 324.833131 -104.462527 
L 324.383648 -106.492319 
L 323.90075 -108.522111 
L 323.384985 -110.551903 
L 322.837206 -112.581695 
L 322.258552 -114.611487 
L 321.650424 -116.641279 
L 321.014464 -118.671071 
L 320.352535 -120.700863 
L 319.666702 -122.730655 
L 318.959227 -124.760447 
L 318.232557 -126.790239 
L 317.489337 -128.820031 
L 316.732409 -130.849822 
L 315.964834 -132.879614 
L 315.189902 -134.909406 
L 314.411147 -136.939198 
L 313.632356 -138.96899 
L 312.85757 -140.998782 
L 312.091074 -143.028574 
L 311.337374 -145.058366 
L 310.601157 -147.088158 
L 309.88724 -149.11795 
L 309.200498 -151.147742 
L 308.545783 -153.177534 
L 307.92783 -155.207326 
L 307.351155 -157.237117 
L 306.819948 -159.266909 
L 306.337972 -161.296701 
L 305.908452 -163.326493 
L 305.533989 -165.356285 
L 305.216475 -167.386077 
L 304.957027 -169.415869 
L 304.755943 -171.445661 
L 304.612672 -173.475453 
L 304.525818 -175.505245 
L 304.493162 -177.535037 
L 304.511715 -179.564829 
L 304.577794 -181.594621 
L 304.687128 -183.624412 
L 304.834987 -185.654204 
L 305.016328 -187.683996 
L 305.225969 -189.713788 
L 305.458762 -191.74358 
L 305.709782 -193.773372 
L 305.974505 -195.803164 
L 306.248986 -197.832956 
L 306.530008 -199.862748 
L 306.815211 -201.89254 
L 307.103185 -203.922332 
L 307.393521 -205.952124 
L 307.686814 -207.981916 
L 307.984628 -210.011707 
L 308.289404 -212.041499 
L 308.604325 -214.071291 
L 308.933146 -216.101083 
L 309.279991 -218.130875 
L 309.649122 -220.160667 
L 310.044704 -222.190459 
L 310.470567 -224.220251 
L 310.929984 -226.250043 
L 311.425469 -228.279835 
L 311.958608 -230.309627 
L 312.529939 -232.339419 
L 313.138872 -234.369211 
L 313.78366 -236.399003 
L 314.461431 -238.428794 
L 315.168252 -240.458586 
L 315.899255 -242.488378 
L 316.648786 -244.51817 
L 317.410592 -246.547962 
L 318.178021 -248.577754 
L 318.94424 -250.607546 
L 319.702437 -252.637338 
L 320.446032 -254.66713 
L 321.168856 -256.696922 
L 321.865307 -258.726714 
L 322.530483 -260.756506 
L 323.160275 -262.786298 
L 323.751425 -264.816089 
L 324.301556 -266.845881 
L 324.809162 -268.875673 
L 325.273574 -270.905465 
L 325.694902 -272.935257 
L 326.073954 -274.965049 
L 326.41214 -276.994841 
L 326.711375 -279.024633 
L 326.973968 -281.054425 
L 327.20252 -283.084217 
L 327.39982 -285.114009 
L 329.303466 -285.114009 
L 329.303466 -285.114009 
L 329.500766 -283.084217 
L 329.729317 -281.054425 
L 329.99191 -279.024633 
L 330.291145 -276.994841 
L 330.629332 -274.965049 
L 331.008383 -272.935257 
L 331.429712 -270.905465 
L 331.894124 -268.875673 
L 332.40173 -266.845881 
L 332.95186 -264.816089 
L 333.543011 -262.786298 
L 334.172802 -260.756506 
L 334.837979 -258.726714 
L 335.53443 -256.696922 
L 336.257253 -254.66713 
L 337.000848 -252.637338 
L 337.759046 -250.607546 
L 338.525264 -248.577754 
L 339.292694 -246.547962 
L 340.0545 -244.51817 
L 340.804031 -242.488378 
L 341.535034 -240.458586 
L 342.241855 -238.428794 
L 342.919625 -236.399003 
L 343.564414 -234.369211 
L 344.173346 -232.339419 
L 344.744677 -230.309627 
L 345.277817 -228.279835 
L 345.773301 -226.250043 
L 346.232718 -224.220251 
L 346.658582 -222.190459 
L 347.054163 -220.160667 
L 347.423294 -218.130875 
L 347.770139 -216.101083 
L 348.098961 -214.071291 
L 348.413882 -212.041499 
L 348.718657 -210.011707 
L 349.016472 -207.981916 
L 349.309765 -205.952124 
L 349.6001 -203.922332 
L 349.888074 -201.89254 
L 350.173278 -199.862748 
L 350.4543 -197.832956 
L 350.728781 -195.803164 
L 350.993504 -193.773372 
L 351.244523 -191.74358 
L 351.477317 -189.713788 
L 351.686957 -187.683996 
L 351.868299 -185.654204 
L 352.016157 -183.624412 
L 352.125491 -181.594621 
L 352.19157 -179.564829 
L 352.210123 -177.535037 
L 352.177467 -175.505245 
L 352.090613 -173.475453 
L 351.947343 -171.445661 
L 351.746258 -169.415869 
L 351.486811 -167.386077 
L 351.169297 -165.356285 
L 350.794834 -163.326493 
L 350.365314 -161.296701 
L 349.883337 -159.266909 
L 349.352131 -157.237117 
L 348.775456 -155.207326 
L 348.157502 -153.177534 
L 347.502787 -151.147742 
L 346.816045 -149.11795 
L 346.102128 -147.088158 
L 345.365912 -145.058366 
L 344.612211 -143.028574 
L 343.845716 -140.998782 
L 343.07093 -138.96899 
L 342.292139 -136.939198 
L 341.513384 -134.909406 
L 340.738452 -132.879614 
L 339.970877 -130.849822 
L 339.213949 -128.820031 
L 338.470728 -126.790239 
L 337.744059 -124.760447 
L 337.036583 -122.730655 
L 336.350751 -120.700863 
L 335.688822 -118.671071 
L 335.052862 -116.641279 
L 334.444734 -114.611487 
L 333.866079 -112.581695 
L 333.318301 -110.551903 
L 332.802536 -108.522111 
L 332.319637 -106.492319 
L 331.870154 -104.462527 
L 331.454315 -102.432735 
L 331.072026 -100.402944 
L 330.722865 -98.373152 
L 330.406099 -96.34336 
L 330.120701 -94.313568 
L 329.865377 -92.283776 
L 329.638602 -90.253984 
L 329.43866 -88.224192 
L 329.263691 -86.1944 
L 329.111732 -84.164608 
z
" style="stroke: #3f3f3f; stroke-width: 1.25"/>
    </defs>
    <g clip-path="url(#p97123d941b)">
     <use xlink:href="#m64fa22aa9a" x="0" y="360" style="fill: #e1812c; stroke: #3f3f3f; stroke-width: 1.25"/>
    </g>
   </g>
   <g id="line2d_10">
    <path d="M 101.262683 241.392173 
L 101.262683 125.31214 
" clip-path="url(#p97123d941b)" style="fill: none; stroke: #3f3f3f; stroke-width: 1.875; stroke-linecap: round"/>
   </g>
   <g id="line2d_11">
    <path d="M 101.262683 183.96453 
L 101.262683 129.180185 
" clip-path="url(#p97123d941b)" style="fill: none; stroke: #3f3f3f; stroke-width: 5.625; stroke-linecap: round"/>
   </g>
   <g id="line2d_12">
    <path d="M 101.262683 159.384598 
" clip-path="url(#p97123d941b)" style="fill: none; stroke: #3f3f3f; stroke-width: 1.5; stroke-linecap: round"/>
    <defs>
     <path id="mfba46f8396" d="M 2.34375 0 
L -2.34375 -0 
" style="stroke: #ffffff; stroke-width: 1.125"/>
    </defs>
    <g clip-path="url(#p97123d941b)">
     <use xlink:href="#mfba46f8396" x="101.262683" y="159.384598" style="fill: #ffffff; stroke: #ffffff; stroke-width: 1.125"/>
    </g>
   </g>
   <g id="line2d_13">
    <path d="M 166.145243 188.545086 
L 166.145243 159.336586 
" clip-path="url(#p97123d941b)" style="fill: none; stroke: #3f3f3f; stroke-width: 1.875; stroke-linecap: round"/>
   </g>
   <g id="line2d_14">
    <path d="M 166.145243 185.136941 
L 166.145243 161.515166 
" clip-path="url(#p97123d941b)" style="fill: none; stroke: #3f3f3f; stroke-width: 5.625; stroke-linecap: round"/>
   </g>
   <g id="line2d_15">
    <path d="M 166.145243 170.58008 
" clip-path="url(#p97123d941b)" style="fill: none; stroke: #3f3f3f; stroke-width: 1.5; stroke-linecap: round"/>
    <g clip-path="url(#p97123d941b)">
     <use xlink:href="#mfba46f8396" x="166.145243" y="170.58008" style="fill: #ffffff; stroke: #ffffff; stroke-width: 1.125"/>
    </g>
   </g>
   <g id="line2d_16">
    <path d="M 263.469083 211.909347 
L 263.469083 174.831392 
" clip-path="url(#p97123d941b)" style="fill: none; stroke: #3f3f3f; stroke-width: 1.875; stroke-linecap: round"/>
   </g>
   <g id="line2d_17">
    <path d="M 263.469083 198.476626 
L 263.469083 174.831392 
" clip-path="url(#p97123d941b)" style="fill: none; stroke: #3f3f3f; stroke-width: 5.625; stroke-linecap: round"/>
   </g>
   <g id="line2d_18">
    <path d="M 263.469083 186.207005 
" clip-path="url(#p97123d941b)" style="fill: none; stroke: #3f3f3f; stroke-width: 1.5; stroke-linecap: round"/>
    <g clip-path="url(#p97123d941b)">
     <use xlink:href="#mfba46f8396" x="263.469083" y="186.207005" style="fill: #ffffff; stroke: #ffffff; stroke-width: 1.125"/>
    </g>
   </g>
   <g id="line2d_19">
    <path d="M 328.351643 229.817966 
L 328.351643 120.903418 
" clip-path="url(#p97123d941b)" style="fill: none; stroke: #3f3f3f; stroke-width: 1.875; stroke-linecap: round"/>
   </g>
   <g id="line2d_20">
    <path d="M 328.351643 200.661082 
L 328.351643 144.905468 
" clip-path="url(#p97123d941b)" style="fill: none; stroke: #3f3f3f; stroke-width: 5.625; stroke-linecap: round"/>
   </g>
   <g id="line2d_21">
    <path d="M 328.351643 173.502453 
" clip-path="url(#p97123d941b)" style="fill: none; stroke: #3f3f3f; stroke-width: 1.5; stroke-linecap: round"/>
    <g clip-path="url(#p97123d941b)">
     <use xlink:href="#mfba46f8396" x="328.351643" y="173.502453" style="fill: #ffffff; stroke: #ffffff; stroke-width: 1.125"/>
    </g>
   </g>
   <g id="patch_3">
    <path d="M 52.600763 318.04 
L 52.600763 24.72 
" style="fill: none; stroke: #cccccc; stroke-width: 0.8; stroke-linejoin: miter; stroke-linecap: square"/>
   </g>
   <g id="patch_4">
    <path d="M 52.600763 318.04 
L 377.013563 318.04 
" style="fill: none; stroke: #cccccc; stroke-width: 0.8; stroke-linejoin: miter; stroke-linecap: square"/>
   </g>
   <g id="text_14">
    <!-- sex = f -->
    <g style="fill: #262626" transform="translate(199.939194 18.72) scale(0.1 -0.1)">
     <defs>
      <path id="ArialMT-78" d="M 47 0 
L 1259 1725 
L 138 3319 
L 841 3319 
L 1350 2541 
Q 1494 2319 1581 2169 
Q 1719 2375 1834 2534 
L 2394 3319 
L 3066 3319 
L 1919 1756 
L 3153 0 
L 2463 0 
L 1781 1031 
L 1600 1309 
L 728 0 
L 47 0 
z
" transform="scale(0.015625)"/>
      <path id="ArialMT-3d" d="M 3381 2694 
L 356 2694 
L 356 3219 
L 3381 3219 
L 3381 2694 
z
M 3381 1303 
L 356 1303 
L 356 1828 
L 3381 1828 
L 3381 1303 
z
" transform="scale(0.015625)"/>
      <path id="ArialMT-66" d="M 556 0 
L 556 2881 
L 59 2881 
L 59 3319 
L 556 3319 
L 556 3672 
Q 556 4006 616 4169 
Q 697 4388 901 4523 
Q 1106 4659 1475 4659 
Q 1713 4659 2000 4603 
L 1916 4113 
Q 1741 4144 1584 4144 
Q 1328 4144 1222 4034 
Q 1116 3925 1116 3625 
L 1116 3319 
L 1763 3319 
L 1763 2881 
L 1116 2881 
L 1116 0 
L 556 0 
z
" transform="scale(0.015625)"/>
     </defs>
     <use xlink:href="#ArialMT-73"/>
     <use xlink:href="#ArialMT-65" x="50"/>
     <use xlink:href="#ArialMT-78" x="105.615234"/>
     <use xlink:href="#ArialMT-20" x="155.615234"/>
     <use xlink:href="#ArialMT-3d" x="183.398438"/>
     <use xlink:href="#ArialMT-20" x="241.796875"/>
     <use xlink:href="#ArialMT-66" x="269.580078"/>
    </g>
   </g>
  </g>
  <g id="axes_2">
   <g id="patch_5">
    <path d="M 387.7977 318.04 
L 712.2105 318.04 
L 712.2105 24.72 
L 387.7977 24.72 
z
" style="fill: #ffffff"/>
   </g>
   <g id="matplotlib.axis_3">
    <g id="xtick_3">
     <g id="text_15">
      <!-- Baia -->
      <g style="fill: #262626" transform="translate(458.893869 332.197812) scale(0.1 -0.1)">
       <use xlink:href="#ArialMT-42"/>
       <use xlink:href="#ArialMT-61" x="66.699219"/>
       <use xlink:href="#ArialMT-69" x="122.314453"/>
       <use xlink:href="#ArialMT-61" x="144.53125"/>
      </g>
     </g>
    </g>
    <g id="xtick_4">
     <g id="text_16">
      <!-- Jurilovca -->
      <g style="fill: #262626" transform="translate(611.379175 332.197812) scale(0.1 -0.1)">
       <use xlink:href="#ArialMT-4a"/>
       <use xlink:href="#ArialMT-75" x="50"/>
       <use xlink:href="#ArialMT-72" x="105.615234"/>
       <use xlink:href="#ArialMT-69" x="138.916016"/>
       <use xlink:href="#ArialMT-6c" x="161.132812"/>
       <use xlink:href="#ArialMT-6f" x="183.349609"/>
       <use xlink:href="#ArialMT-76" x="238.964844"/>
       <use xlink:href="#ArialMT-63" x="288.964844"/>
       <use xlink:href="#ArialMT-61" x="338.964844"/>
      </g>
     </g>
    </g>
    <g id="text_17">
     <!-- Location -->
     <g style="fill: #262626" transform="translate(531.101756 345.343125) scale(0.1 -0.1)">
      <use xlink:href="#ArialMT-4c"/>
      <use xlink:href="#ArialMT-6f" x="55.615234"/>
      <use xlink:href="#ArialMT-63" x="111.230469"/>
      <use xlink:href="#ArialMT-61" x="161.230469"/>
      <use xlink:href="#ArialMT-74" x="216.845703"/>
      <use xlink:href="#ArialMT-69" x="244.628906"/>
      <use xlink:href="#ArialMT-6f" x="266.845703"/>
      <use xlink:href="#ArialMT-6e" x="322.460938"/>
     </g>
    </g>
   </g>
   <g id="matplotlib.axis_4">
    <g id="ytick_10">
     <g id="line2d_22">
      <path d="M 387.7977 311.704312 
L 712.2105 311.704312 
" clip-path="url(#p9fd41f3f46)" style="fill: none; stroke: #cccccc; stroke-width: 0.8; stroke-linecap: round"/>
     </g>
    </g>
    <g id="ytick_11">
     <g id="line2d_23">
      <path d="M 387.7977 277.038498 
L 712.2105 277.038498 
" clip-path="url(#p9fd41f3f46)" style="fill: none; stroke: #cccccc; stroke-width: 0.8; stroke-linecap: round"/>
     </g>
    </g>
    <g id="ytick_12">
     <g id="line2d_24">
      <path d="M 387.7977 242.372684 
L 712.2105 242.372684 
" clip-path="url(#p9fd41f3f46)" style="fill: none; stroke: #cccccc; stroke-width: 0.8; stroke-linecap: round"/>
     </g>
    </g>
    <g id="ytick_13">
     <g id="line2d_25">
      <path d="M 387.7977 207.706869 
L 712.2105 207.706869 
" clip-path="url(#p9fd41f3f46)" style="fill: none; stroke: #cccccc; stroke-width: 0.8; stroke-linecap: round"/>
     </g>
    </g>
    <g id="ytick_14">
     <g id="line2d_26">
      <path d="M 387.7977 173.041055 
L 712.2105 173.041055 
" clip-path="url(#p9fd41f3f46)" style="fill: none; stroke: #cccccc; stroke-width: 0.8; stroke-linecap: round"/>
     </g>
    </g>
    <g id="ytick_15">
     <g id="line2d_27">
      <path d="M 387.7977 138.37524 
L 712.2105 138.37524 
" clip-path="url(#p9fd41f3f46)" style="fill: none; stroke: #cccccc; stroke-width: 0.8; stroke-linecap: round"/>
     </g>
    </g>
    <g id="ytick_16">
     <g id="line2d_28">
      <path d="M 387.7977 103.709426 
L 712.2105 103.709426 
" clip-path="url(#p9fd41f3f46)" style="fill: none; stroke: #cccccc; stroke-width: 0.8; stroke-linecap: round"/>
     </g>
    </g>
    <g id="ytick_17">
     <g id="line2d_29">
      <path d="M 387.7977 69.043612 
L 712.2105 69.043612 
" clip-path="url(#p9fd41f3f46)" style="fill: none; stroke: #cccccc; stroke-width: 0.8; stroke-linecap: round"/>
     </g>
    </g>
    <g id="ytick_18">
     <g id="line2d_30">
      <path d="M 387.7977 34.377797 
L 712.2105 34.377797 
" clip-path="url(#p9fd41f3f46)" style="fill: none; stroke: #cccccc; stroke-width: 0.8; stroke-linecap: round"/>
     </g>
    </g>
   </g>
   <g id="PolyCollection_5">
    <defs>
     <path id="mb14d635fa0" d="M 437.150457 -117.724223 
L 435.768782 -117.724223 
L 435.588511 -119.357833 
L 435.372014 -120.991443 
L 435.114895 -122.625053 
L 434.812894 -124.258663 
L 434.462053 -125.892273 
L 434.058889 -127.525883 
L 433.600579 -129.159493 
L 433.085131 -130.793103 
L 432.511544 -132.426713 
L 431.879942 -134.060323 
L 431.191668 -135.693932 
L 430.449336 -137.327542 
L 429.656836 -138.961152 
L 428.819274 -140.594762 
L 427.942864 -142.228372 
L 427.03476 -143.861982 
L 426.102834 -145.495592 
L 425.155411 -147.129202 
L 424.200969 -148.762812 
L 423.24782 -150.396422 
L 422.303776 -152.030032 
L 421.375831 -153.663642 
L 420.469866 -155.297251 
L 419.590398 -156.930861 
L 418.740396 -158.564471 
L 417.921166 -160.198081 
L 417.132333 -161.831691 
L 416.371918 -163.465301 
L 415.636514 -165.098911 
L 414.921563 -166.732521 
L 414.221724 -168.366131 
L 413.531303 -169.999741 
L 412.844747 -171.633351 
L 412.157149 -173.266961 
L 411.464749 -174.90057 
L 410.765399 -176.53418 
L 410.05895 -178.16779 
L 409.347553 -179.8014 
L 408.635837 -181.43501 
L 407.930958 -183.06862 
L 407.242514 -184.70223 
L 406.582334 -186.33584 
L 405.964137 -187.96945 
L 405.403097 -189.60306 
L 404.915319 -191.23667 
L 404.517264 -192.87028 
L 404.225129 -194.503889 
L 404.054221 -196.137499 
L 404.01834 -197.771109 
L 404.129184 -199.404719 
L 404.395808 -201.038329 
L 404.82414 -202.671939 
L 405.416579 -204.305549 
L 406.171698 -205.939159 
L 407.084057 -207.572769 
L 408.144154 -209.206379 
L 409.338528 -210.839989 
L 410.650024 -212.473598 
L 412.058215 -214.107208 
L 413.539994 -215.740818 
L 415.070305 -217.374428 
L 416.622989 -219.008038 
L 418.171717 -220.641648 
L 419.69095 -222.275258 
L 421.156893 -223.908868 
L 422.548366 -225.542478 
L 423.847568 -227.176088 
L 425.040668 -228.809698 
L 426.118201 -230.443308 
L 427.075238 -232.076917 
L 427.911336 -233.710527 
L 428.630257 -235.344137 
L 429.239501 -236.977747 
L 429.749665 -238.611357 
L 430.173682 -240.244967 
L 430.525998 -241.878577 
L 430.82172 -243.512187 
L 431.075807 -245.145797 
L 431.30233 -246.779407 
L 431.513858 -248.413017 
L 431.720982 -250.046627 
L 431.93201 -251.680236 
L 432.152821 -253.313846 
L 432.386877 -254.947456 
L 432.635388 -256.581066 
L 432.897579 -258.214676 
L 433.171059 -259.848286 
L 433.452223 -261.481896 
L 433.73669 -263.115506 
L 434.019712 -264.749116 
L 434.296558 -266.382726 
L 434.562825 -268.016336 
L 434.814689 -269.649946 
L 435.049067 -271.283555 
L 435.263712 -272.917165 
L 435.457231 -274.550775 
L 435.629049 -276.184385 
L 435.779325 -277.817995 
L 435.908837 -279.451605 
L 437.010403 -279.451605 
L 437.010403 -279.451605 
L 437.139915 -277.817995 
L 437.290191 -276.184385 
L 437.462009 -274.550775 
L 437.655528 -272.917165 
L 437.870172 -271.283555 
L 438.10455 -269.649946 
L 438.356414 -268.016336 
L 438.622682 -266.382726 
L 438.899528 -264.749116 
L 439.18255 -263.115506 
L 439.467016 -261.481896 
L 439.748181 -259.848286 
L 440.02166 -258.214676 
L 440.283852 -256.581066 
L 440.532362 -254.947456 
L 440.766419 -253.313846 
L 440.987229 -251.680236 
L 441.198258 -250.046627 
L 441.405382 -248.413017 
L 441.616909 -246.779407 
L 441.843432 -245.145797 
L 442.097519 -243.512187 
L 442.393242 -241.878577 
L 442.745558 -240.244967 
L 443.169575 -238.611357 
L 443.679738 -236.977747 
L 444.288983 -235.344137 
L 445.007904 -233.710527 
L 445.844001 -232.076917 
L 446.801038 -230.443308 
L 447.878571 -228.809698 
L 449.071672 -227.176088 
L 450.370874 -225.542478 
L 451.762347 -223.908868 
L 453.228289 -222.275258 
L 454.747523 -220.641648 
L 456.296251 -219.008038 
L 457.848935 -217.374428 
L 459.379245 -215.740818 
L 460.861025 -214.107208 
L 462.269216 -212.473598 
L 463.580711 -210.839989 
L 464.775086 -209.206379 
L 465.835182 -207.572769 
L 466.747541 -205.939159 
L 467.50266 -204.305549 
L 468.0951 -202.671939 
L 468.523431 -201.038329 
L 468.790056 -199.404719 
L 468.9009 -197.771109 
L 468.865018 -196.137499 
L 468.694111 -194.503889 
L 468.401975 -192.87028 
L 468.00392 -191.23667 
L 467.516143 -189.60306 
L 466.955102 -187.96945 
L 466.336905 -186.33584 
L 465.676725 -184.70223 
L 464.988282 -183.06862 
L 464.283402 -181.43501 
L 463.571686 -179.8014 
L 462.86029 -178.16779 
L 462.153841 -176.53418 
L 461.45449 -174.90057 
L 460.762091 -173.266961 
L 460.074492 -171.633351 
L 459.387936 -169.999741 
L 458.697516 -168.366131 
L 457.997676 -166.732521 
L 457.282726 -165.098911 
L 456.547322 -163.465301 
L 455.786907 -161.831691 
L 454.998074 -160.198081 
L 454.178844 -158.564471 
L 453.328842 -156.930861 
L 452.449374 -155.297251 
L 451.543408 -153.663642 
L 450.615463 -152.030032 
L 449.671419 -150.396422 
L 448.71827 -148.762812 
L 447.763829 -147.129202 
L 446.816405 -145.495592 
L 445.884479 -143.861982 
L 444.976375 -142.228372 
L 444.099966 -140.594762 
L 443.262404 -138.961152 
L 442.469903 -137.327542 
L 441.727572 -135.693932 
L 441.039297 -134.060323 
L 440.407695 -132.426713 
L 439.834109 -130.793103 
L 439.318661 -129.159493 
L 438.860351 -127.525883 
L 438.457187 -125.892273 
L 438.106345 -124.258663 
L 437.804345 -122.625053 
L 437.547226 -120.991443 
L 437.330729 -119.357833 
L 437.150457 -117.724223 
z
" style="stroke: #3f3f3f; stroke-width: 1.25"/>
    </defs>
    <g clip-path="url(#p9fd41f3f46)">
     <use xlink:href="#mb14d635fa0" x="0" y="360" style="fill: #3274a1; stroke: #3f3f3f; stroke-width: 1.25"/>
    </g>
   </g>
   <g id="PolyCollection_6">
    <defs>
     <path id="m4d9f55f206" d="M 502.059314 -77.003456 
L 500.625046 -77.003456 
L 500.466132 -78.91619 
L 500.281089 -80.828923 
L 500.06777 -82.741657 
L 499.824303 -84.654391 
L 499.549191 -86.567124 
L 499.241405 -88.479858 
L 498.900473 -90.392591 
L 498.526546 -92.305325 
L 498.120453 -94.218058 
L 497.683725 -96.130792 
L 497.218591 -98.043526 
L 496.727948 -99.956259 
L 496.215302 -101.868993 
L 495.684676 -103.781726 
L 495.140498 -105.69446 
L 494.587479 -107.607194 
L 494.030466 -109.519927 
L 493.474307 -111.432661 
L 492.923707 -113.345394 
L 492.383107 -115.258128 
L 491.856567 -117.170861 
L 491.347677 -119.083595 
L 490.859483 -120.996329 
L 490.394435 -122.909062 
L 489.954351 -124.821796 
L 489.540403 -126.734529 
L 489.153104 -128.647263 
L 488.792311 -130.559997 
L 488.457237 -132.47273 
L 488.146458 -134.385464 
L 487.85794 -136.298197 
L 487.589064 -138.210931 
L 487.336667 -140.123665 
L 487.097103 -142.036398 
L 486.866318 -143.949132 
L 486.639958 -145.861865 
L 486.413489 -147.774599 
L 486.182361 -149.687332 
L 485.94218 -151.600066 
L 485.688903 -153.5128 
L 485.419047 -155.425533 
L 485.129882 -157.338267 
L 484.819633 -159.251 
L 484.487633 -161.163734 
L 484.134463 -163.076468 
L 483.762026 -164.989201 
L 483.37358 -166.901935 
L 482.973709 -168.814668 
L 482.568231 -170.727402 
L 482.164051 -172.640135 
L 481.768967 -174.552869 
L 481.391423 -176.465603 
L 481.040238 -178.378336 
L 480.724314 -180.29107 
L 480.45234 -182.203803 
L 480.232497 -184.116537 
L 480.072198 -186.029271 
L 479.977844 -187.942004 
L 479.954641 -189.854738 
L 480.00645 -191.767471 
L 480.135697 -193.680205 
L 480.343343 -195.592938 
L 480.6289 -197.505672 
L 480.990496 -199.418406 
L 481.42499 -201.331139 
L 481.928113 -203.243873 
L 482.494639 -205.156606 
L 483.118571 -207.06934 
L 483.793324 -208.982074 
L 484.511919 -210.894807 
L 485.267151 -212.807541 
L 486.051742 -214.720274 
L 486.858483 -216.633008 
L 487.680334 -218.545742 
L 488.510519 -220.458475 
L 489.342584 -222.371209 
L 490.170445 -224.283942 
L 490.98842 -226.196676 
L 491.791251 -228.109409 
L 492.574119 -230.022143 
L 493.332655 -231.934877 
L 494.062954 -233.84761 
L 494.761591 -235.760344 
L 495.425634 -237.673077 
L 496.052659 -239.585811 
L 496.640765 -241.498545 
L 497.188586 -243.411278 
L 497.695294 -245.324012 
L 498.160592 -247.236745 
L 498.584702 -249.149479 
L 498.968341 -251.062212 
L 499.312677 -252.974946 
L 499.619288 -254.88768 
L 499.890099 -256.800413 
L 500.127322 -258.713147 
L 500.333383 -260.62588 
L 500.510856 -262.538614 
L 500.662392 -264.451348 
L 500.790654 -266.364081 
L 501.893705 -266.364081 
L 501.893705 -266.364081 
L 502.021968 -264.451348 
L 502.173504 -262.538614 
L 502.350977 -260.62588 
L 502.557038 -258.713147 
L 502.79426 -256.800413 
L 503.065072 -254.88768 
L 503.371682 -252.974946 
L 503.716019 -251.062212 
L 504.099657 -249.149479 
L 504.523768 -247.236745 
L 504.989066 -245.324012 
L 505.495773 -243.411278 
L 506.043595 -241.498545 
L 506.631701 -239.585811 
L 507.258726 -237.673077 
L 507.922768 -235.760344 
L 508.621406 -233.84761 
L 509.351705 -231.934877 
L 510.110241 -230.022143 
L 510.893108 -228.109409 
L 511.69594 -226.196676 
L 512.513915 -224.283942 
L 513.341776 -222.371209 
L 514.17384 -220.458475 
L 515.004025 -218.545742 
L 515.825877 -216.633008 
L 516.632618 -214.720274 
L 517.417209 -212.807541 
L 518.17244 -210.894807 
L 518.891035 -208.982074 
L 519.565789 -207.06934 
L 520.18972 -205.156606 
L 520.756247 -203.243873 
L 521.25937 -201.331139 
L 521.693864 -199.418406 
L 522.05546 -197.505672 
L 522.341017 -195.592938 
L 522.548663 -193.680205 
L 522.67791 -191.767471 
L 522.729718 -189.854738 
L 522.706515 -187.942004 
L 522.612162 -186.029271 
L 522.451862 -184.116537 
L 522.23202 -182.203803 
L 521.960045 -180.29107 
L 521.644122 -178.378336 
L 521.292937 -176.465603 
L 520.915392 -174.552869 
L 520.520308 -172.640135 
L 520.116129 -170.727402 
L 519.710651 -168.814668 
L 519.31078 -166.901935 
L 518.922334 -164.989201 
L 518.549897 -163.076468 
L 518.196726 -161.163734 
L 517.864727 -159.251 
L 517.554477 -157.338267 
L 517.265313 -155.425533 
L 516.995456 -153.5128 
L 516.74218 -151.600066 
L 516.501999 -149.687332 
L 516.270871 -147.774599 
L 516.044402 -145.861865 
L 515.818041 -143.949132 
L 515.587257 -142.036398 
L 515.347693 -140.123665 
L 515.095296 -138.210931 
L 514.826419 -136.298197 
L 514.537901 -134.385464 
L 514.227123 -132.47273 
L 513.892048 -130.559997 
L 513.531256 -128.647263 
L 513.143956 -126.734529 
L 512.730008 -124.821796 
L 512.289925 -122.909062 
L 511.824877 -120.996329 
L 511.336682 -119.083595 
L 510.827793 -117.170861 
L 510.301253 -115.258128 
L 509.760652 -113.345394 
L 509.210053 -111.432661 
L 508.653893 -109.519927 
L 508.096881 -107.607194 
L 507.543861 -105.69446 
L 506.999684 -103.781726 
L 506.469057 -101.868993 
L 505.956411 -99.956259 
L 505.465769 -98.043526 
L 505.000635 -96.130792 
L 504.563906 -94.218058 
L 504.157814 -92.305325 
L 503.783887 -90.392591 
L 503.442955 -88.479858 
L 503.135169 -86.567124 
L 502.860056 -84.654391 
L 502.616589 -82.741657 
L 502.40327 -80.828923 
L 502.218228 -78.91619 
L 502.059314 -77.003456 
z
" style="stroke: #3f3f3f; stroke-width: 1.25"/>
    </defs>
    <g clip-path="url(#p9fd41f3f46)">
     <use xlink:href="#m4d9f55f206" x="0" y="360" style="fill: #e1812c; stroke: #3f3f3f; stroke-width: 1.25"/>
    </g>
   </g>
   <g id="PolyCollection_7">
    <defs>
     <path id="m81e5128e37" d="M 599.352206 -113.087305 
L 597.979833 -113.087305 
L 597.831537 -115.197002 
L 597.658792 -117.306698 
L 597.459225 -119.416395 
L 597.230526 -121.526092 
L 596.970495 -123.635788 
L 596.677094 -125.745485 
L 596.348474 -127.855182 
L 595.983016 -129.964878 
L 595.579348 -132.074575 
L 595.136357 -134.184272 
L 594.653194 -136.293968 
L 594.129271 -138.403665 
L 593.564251 -140.513362 
L 592.958042 -142.623058 
L 592.310794 -144.732755 
L 591.622903 -146.842451 
L 590.895033 -148.952148 
L 590.128154 -151.061845 
L 589.323599 -153.171541 
L 588.483142 -155.281238 
L 587.609093 -157.390935 
L 586.704405 -159.500631 
L 585.772791 -161.610328 
L 584.818825 -163.720025 
L 583.848045 -165.829721 
L 582.867011 -167.939418 
L 581.883337 -170.049115 
L 580.905667 -172.158811 
L 579.943598 -174.268508 
L 579.007542 -176.378204 
L 578.108528 -178.487901 
L 577.257944 -180.597598 
L 576.467235 -182.707294 
L 575.747572 -184.816991 
L 575.10949 -186.926688 
L 574.562541 -189.036384 
L 574.114956 -191.146081 
L 573.773359 -193.255778 
L 573.542522 -195.365474 
L 573.425207 -197.475171 
L 573.42207 -199.584868 
L 573.531666 -201.694564 
L 573.750521 -203.804261 
L 574.073289 -205.913957 
L 574.492969 -208.023654 
L 575.001174 -210.133351 
L 575.588433 -212.243047 
L 576.244501 -214.352744 
L 576.958675 -216.462441 
L 577.720085 -218.572137 
L 578.517955 -220.681834 
L 579.341821 -222.791531 
L 580.181711 -224.901227 
L 581.028273 -227.010924 
L 581.872861 -229.12062 
L 582.707591 -231.230317 
L 583.52537 -233.340014 
L 584.319899 -235.44971 
L 585.085678 -237.559407 
L 585.818011 -239.669104 
L 586.513005 -241.7788 
L 587.167593 -243.888497 
L 587.779548 -245.998194 
L 588.347517 -248.10789 
L 588.871046 -250.217587 
L 589.350592 -252.327284 
L 589.787528 -254.43698 
L 590.184122 -256.546677 
L 590.543479 -258.656373 
L 590.869455 -260.76607 
L 591.166537 -262.875767 
L 591.439687 -264.985463 
L 591.694156 -267.09516 
L 591.935285 -269.204857 
L 592.168293 -271.314553 
L 592.398065 -273.42425 
L 592.628963 -275.533947 
L 592.864656 -277.643643 
L 593.107991 -279.75334 
L 593.360902 -281.863037 
L 593.624373 -283.972733 
L 593.898452 -286.08243 
L 594.182299 -288.192126 
L 594.474295 -290.301823 
L 594.772165 -292.41152 
L 595.073143 -294.521216 
L 595.374136 -296.630913 
L 595.671903 -298.74061 
L 595.963216 -300.850306 
L 596.245015 -302.960003 
L 596.514533 -305.0697 
L 596.769395 -307.179396 
L 597.007691 -309.289093 
L 597.228011 -311.39879 
L 597.429456 -313.508486 
L 597.611626 -315.618183 
L 597.774576 -317.727879 
L 597.918769 -319.837576 
L 598.045007 -321.947273 
L 599.287033 -321.947273 
L 599.287033 -321.947273 
L 599.41327 -319.837576 
L 599.557463 -317.727879 
L 599.720414 -315.618183 
L 599.902584 -313.508486 
L 600.104029 -311.39879 
L 600.324349 -309.289093 
L 600.562645 -307.179396 
L 600.817507 -305.0697 
L 601.087025 -302.960003 
L 601.368824 -300.850306 
L 601.660137 -298.74061 
L 601.957903 -296.630913 
L 602.258897 -294.521216 
L 602.559875 -292.41152 
L 602.857745 -290.301823 
L 603.14974 -288.192126 
L 603.433588 -286.08243 
L 603.707666 -283.972733 
L 603.971138 -281.863037 
L 604.224049 -279.75334 
L 604.467383 -277.643643 
L 604.703077 -275.533947 
L 604.933975 -273.42425 
L 605.163747 -271.314553 
L 605.396755 -269.204857 
L 605.637884 -267.09516 
L 605.892353 -264.985463 
L 606.165503 -262.875767 
L 606.462585 -260.76607 
L 606.788561 -258.656373 
L 607.147917 -256.546677 
L 607.544511 -254.43698 
L 607.981448 -252.327284 
L 608.460994 -250.217587 
L 608.984522 -248.10789 
L 609.552492 -245.998194 
L 610.164447 -243.888497 
L 610.819034 -241.7788 
L 611.514029 -239.669104 
L 612.246361 -237.559407 
L 613.012141 -235.44971 
L 613.80667 -233.340014 
L 614.624448 -231.230317 
L 615.459179 -229.12062 
L 616.303767 -227.010924 
L 617.150328 -224.901227 
L 617.990219 -222.791531 
L 618.814085 -220.681834 
L 619.611955 -218.572137 
L 620.373365 -216.462441 
L 621.087539 -214.352744 
L 621.743607 -212.243047 
L 622.330865 -210.133351 
L 622.839071 -208.023654 
L 623.258751 -205.913957 
L 623.581518 -203.804261 
L 623.800373 -201.694564 
L 623.909969 -199.584868 
L 623.906833 -197.475171 
L 623.789517 -195.365474 
L 623.558681 -193.255778 
L 623.217084 -191.146081 
L 622.769499 -189.036384 
L 622.22255 -186.926688 
L 621.584468 -184.816991 
L 620.864804 -182.707294 
L 620.074096 -180.597598 
L 619.223512 -178.487901 
L 618.324498 -176.378204 
L 617.388442 -174.268508 
L 616.426373 -172.158811 
L 615.448703 -170.049115 
L 614.465029 -167.939418 
L 613.483995 -165.829721 
L 612.513215 -163.720025 
L 611.559249 -161.610328 
L 610.627634 -159.500631 
L 609.722947 -157.390935 
L 608.848897 -155.281238 
L 608.00844 -153.171541 
L 607.203885 -151.061845 
L 606.437007 -148.952148 
L 605.709137 -146.842451 
L 605.021246 -144.732755 
L 604.373998 -142.623058 
L 603.767789 -140.513362 
L 603.202769 -138.403665 
L 602.678846 -136.293968 
L 602.195683 -134.184272 
L 601.752692 -132.074575 
L 601.349024 -129.964878 
L 600.983566 -127.855182 
L 600.654946 -125.745485 
L 600.361544 -123.635788 
L 600.101514 -121.526092 
L 599.872814 -119.416395 
L 599.673247 -117.306698 
L 599.500503 -115.197002 
L 599.352206 -113.087305 
z
" style="stroke: #3f3f3f; stroke-width: 1.25"/>
    </defs>
    <g clip-path="url(#p9fd41f3f46)">
     <use xlink:href="#m81e5128e37" x="0" y="360" style="fill: #3274a1; stroke: #3f3f3f; stroke-width: 1.25"/>
    </g>
   </g>
   <g id="PolyCollection_8">
    <defs>
     <path id="mb8644a82e3" d="M 664.987774 -110.189588 
L 662.109386 -110.189588 
L 661.807132 -111.365216 
L 661.456133 -112.540844 
L 661.05184 -113.716472 
L 660.589952 -114.892099 
L 660.066567 -116.067727 
L 659.478344 -117.243355 
L 658.822667 -118.418983 
L 658.097811 -119.594611 
L 657.303089 -120.770239 
L 656.43899 -121.945867 
L 655.50729 -123.121495 
L 654.511127 -124.297123 
L 653.455044 -125.47275 
L 652.344985 -126.648378 
L 651.188245 -127.824006 
L 649.993374 -128.999634 
L 648.77003 -130.175262 
L 647.528786 -131.35089 
L 646.280903 -132.526518 
L 645.038056 -133.702146 
L 643.812045 -134.877774 
L 642.614482 -136.053401 
L 641.456477 -137.229029 
L 640.348322 -138.404657 
L 639.299202 -139.580285 
L 638.316927 -140.755913 
L 637.407709 -141.931541 
L 636.575988 -143.107169 
L 635.824319 -144.282797 
L 635.153324 -145.458425 
L 634.561722 -146.634052 
L 634.046423 -147.80968 
L 633.602705 -148.985308 
L 633.224458 -150.160936 
L 632.904483 -151.336564 
L 632.634857 -152.512192 
L 632.407321 -153.68782 
L 632.213697 -154.863448 
L 632.046308 -156.039076 
L 631.898374 -157.214703 
L 631.764372 -158.390331 
L 631.640343 -159.565959 
L 631.524115 -160.741587 
L 631.41544 -161.917215 
L 631.316034 -163.092843 
L 631.229502 -164.268471 
L 631.16117 -165.444099 
L 631.117812 -166.619727 
L 631.1073 -167.795354 
L 631.138178 -168.970982 
L 631.219203 -170.14661 
L 631.358863 -171.322238 
L 631.564904 -172.497866 
L 631.843894 -173.673494 
L 632.200852 -174.849122 
L 632.638949 -176.02475 
L 633.159317 -177.200378 
L 633.760961 -178.376005 
L 634.440786 -179.551633 
L 635.193721 -180.727261 
L 636.012956 -181.902889 
L 636.890247 -183.078517 
L 637.816286 -184.254145 
L 638.781106 -185.429773 
L 639.774499 -186.605401 
L 640.786418 -187.781029 
L 641.807342 -188.956656 
L 642.828587 -190.132284 
L 643.842546 -191.307912 
L 644.842842 -192.48354 
L 645.82441 -193.659168 
L 646.783489 -194.834796 
L 647.717543 -196.010424 
L 648.62512 -197.186052 
L 649.505666 -198.36168 
L 650.359312 -199.537307 
L 651.186643 -200.712935 
L 651.988479 -201.888563 
L 652.765672 -203.064191 
L 653.518938 -204.239819 
L 654.248726 -205.415447 
L 654.955136 -206.591075 
L 655.637882 -207.766703 
L 656.296298 -208.942331 
L 656.929382 -210.117958 
L 657.535873 -211.293586 
L 658.114345 -212.469214 
L 658.663321 -213.644842 
L 659.181379 -214.82047 
L 659.667257 -215.996098 
L 660.119951 -217.171726 
L 660.538782 -218.347354 
L 660.923449 -219.522982 
L 661.27406 -220.698609 
L 661.591134 -221.874237 
L 661.875589 -223.049865 
L 662.128703 -224.225493 
L 662.352071 -225.401121 
L 662.547544 -226.576749 
L 664.549616 -226.576749 
L 664.549616 -226.576749 
L 664.745089 -225.401121 
L 664.968457 -224.225493 
L 665.221571 -223.049865 
L 665.506025 -221.874237 
L 665.8231 -220.698609 
L 666.173711 -219.522982 
L 666.558378 -218.347354 
L 666.977209 -217.171726 
L 667.429903 -215.996098 
L 667.915781 -214.82047 
L 668.433839 -213.644842 
L 668.982815 -212.469214 
L 669.561287 -211.293586 
L 670.167778 -210.117958 
L 670.800862 -208.942331 
L 671.459278 -207.766703 
L 672.142024 -206.591075 
L 672.848434 -205.415447 
L 673.578222 -204.239819 
L 674.331488 -203.064191 
L 675.108681 -201.888563 
L 675.910517 -200.712935 
L 676.737848 -199.537307 
L 677.591494 -198.36168 
L 678.47204 -197.186052 
L 679.379617 -196.010424 
L 680.31367 -194.834796 
L 681.27275 -193.659168 
L 682.254318 -192.48354 
L 683.254614 -191.307912 
L 684.268572 -190.132284 
L 685.289818 -188.956656 
L 686.310742 -187.781029 
L 687.322661 -186.605401 
L 688.316054 -185.429773 
L 689.280874 -184.254145 
L 690.206913 -183.078517 
L 691.084204 -181.902889 
L 691.903439 -180.727261 
L 692.656374 -179.551633 
L 693.336198 -178.376005 
L 693.937843 -177.200378 
L 694.458211 -176.02475 
L 694.896308 -174.849122 
L 695.253266 -173.673494 
L 695.532256 -172.497866 
L 695.738297 -171.322238 
L 695.877957 -170.14661 
L 695.958982 -168.970982 
L 695.98986 -167.795354 
L 695.979348 -166.619727 
L 695.93599 -165.444099 
L 695.867658 -164.268471 
L 695.781126 -163.092843 
L 695.68172 -161.917215 
L 695.573045 -160.741587 
L 695.456817 -159.565959 
L 695.332788 -158.390331 
L 695.198786 -157.214703 
L 695.050852 -156.039076 
L 694.883463 -154.863448 
L 694.689839 -153.68782 
L 694.462303 -152.512192 
L 694.192677 -151.336564 
L 693.872702 -150.160936 
L 693.494455 -148.985308 
L 693.050737 -147.80968 
L 692.535438 -146.634052 
L 691.943836 -145.458425 
L 691.272841 -144.282797 
L 690.521172 -143.107169 
L 689.689451 -141.931541 
L 688.780232 -140.755913 
L 687.797958 -139.580285 
L 686.748838 -138.404657 
L 685.640683 -137.229029 
L 684.482678 -136.053401 
L 683.285115 -134.877774 
L 682.059104 -133.702146 
L 680.816257 -132.526518 
L 679.568374 -131.35089 
L 678.32713 -130.175262 
L 677.103786 -128.999634 
L 675.908915 -127.824006 
L 674.752175 -126.648378 
L 673.642116 -125.47275 
L 672.586033 -124.297123 
L 671.58987 -123.121495 
L 670.65817 -121.945867 
L 669.794071 -120.770239 
L 668.999349 -119.594611 
L 668.274493 -118.418983 
L 667.618816 -117.243355 
L 667.030593 -116.067727 
L 666.507208 -114.892099 
L 666.04532 -113.716472 
L 665.641027 -112.540844 
L 665.290028 -111.365216 
L 664.987774 -110.189588 
z
" style="stroke: #3f3f3f; stroke-width: 1.25"/>
    </defs>
    <g clip-path="url(#p9fd41f3f46)">
     <use xlink:href="#mb8644a82e3" x="0" y="360" style="fill: #e1812c; stroke: #3f3f3f; stroke-width: 1.25"/>
    </g>
   </g>
   <g id="patch_6">
    <path d="M 468.9009 415.701755 
L 468.9009 415.701755 
L 468.9009 415.701755 
L 468.9009 415.701755 
z
" clip-path="url(#p9fd41f3f46)" style="fill: #3274a1; stroke: #3f3f3f; stroke-width: 1.25; stroke-linejoin: miter"/>
   </g>
   <g id="patch_7">
    <path d="M 468.9009 415.701755 
L 468.9009 415.701755 
L 468.9009 415.701755 
L 468.9009 415.701755 
z
" clip-path="url(#p9fd41f3f46)" style="fill: #e1812c; stroke: #3f3f3f; stroke-width: 1.25; stroke-linejoin: miter"/>
   </g>
   <g id="line2d_31">
    <path d="M 436.45962 212.107717 
L 436.45962 110.716455 
" clip-path="url(#p9fd41f3f46)" style="fill: none; stroke: #3f3f3f; stroke-width: 1.875; stroke-linecap: round"/>
   </g>
   <g id="line2d_32">
    <path d="M 436.45962 185.921767 
L 436.45962 150.693351 
" clip-path="url(#p9fd41f3f46)" style="fill: none; stroke: #3f3f3f; stroke-width: 5.625; stroke-linecap: round"/>
   </g>
   <g id="line2d_33">
    <path d="M 436.45962 166.345987 
" clip-path="url(#p9fd41f3f46)" style="fill: none; stroke: #3f3f3f; stroke-width: 1.5; stroke-linecap: round"/>
    <g clip-path="url(#p9fd41f3f46)">
     <use xlink:href="#mfba46f8396" x="436.45962" y="166.345987" style="fill: #ffffff; stroke: #ffffff; stroke-width: 1.125"/>
    </g>
   </g>
   <g id="line2d_34">
    <path d="M 501.34218 243.307478 
L 501.34218 133.324984 
" clip-path="url(#p9fd41f3f46)" style="fill: none; stroke: #3f3f3f; stroke-width: 1.875; stroke-linecap: round"/>
   </g>
   <g id="line2d_35">
    <path d="M 501.34218 213.279516 
L 501.34218 162.093313 
" clip-path="url(#p9fd41f3f46)" style="fill: none; stroke: #3f3f3f; stroke-width: 5.625; stroke-linecap: round"/>
   </g>
   <g id="line2d_36">
    <path d="M 501.34218 177.880729 
" clip-path="url(#p9fd41f3f46)" style="fill: none; stroke: #3f3f3f; stroke-width: 1.5; stroke-linecap: round"/>
    <g clip-path="url(#p9fd41f3f46)">
     <use xlink:href="#mfba46f8396" x="501.34218" y="177.880729" style="fill: #ffffff; stroke: #ffffff; stroke-width: 1.125"/>
    </g>
   </g>
   <g id="line2d_37">
    <path d="M 598.66602 202.05961 
L 598.66602 121.789997 
" clip-path="url(#p9fd41f3f46)" style="fill: none; stroke: #3f3f3f; stroke-width: 1.875; stroke-linecap: round"/>
   </g>
   <g id="line2d_38">
    <path d="M 598.66602 170.926944 
L 598.66602 137.308351 
" clip-path="url(#p9fd41f3f46)" style="fill: none; stroke: #3f3f3f; stroke-width: 5.625; stroke-linecap: round"/>
   </g>
   <g id="line2d_39">
    <path d="M 598.66602 158.426562 
" clip-path="url(#p9fd41f3f46)" style="fill: none; stroke: #3f3f3f; stroke-width: 1.5; stroke-linecap: round"/>
    <g clip-path="url(#p9fd41f3f46)">
     <use xlink:href="#mfba46f8396" x="598.66602" y="158.426562" style="fill: #ffffff; stroke: #ffffff; stroke-width: 1.125"/>
    </g>
   </g>
   <g id="line2d_40">
    <path d="M 663.54858 223.318916 
L 663.54858 159.914748 
" clip-path="url(#p9fd41f3f46)" style="fill: none; stroke: #3f3f3f; stroke-width: 1.875; stroke-linecap: round"/>
   </g>
   <g id="line2d_41">
    <path d="M 663.54858 207.820297 
L 663.54858 184.259739 
" clip-path="url(#p9fd41f3f46)" style="fill: none; stroke: #3f3f3f; stroke-width: 5.625; stroke-linecap: round"/>
   </g>
   <g id="line2d_42">
    <path d="M 663.54858 193.03022 
" clip-path="url(#p9fd41f3f46)" style="fill: none; stroke: #3f3f3f; stroke-width: 1.5; stroke-linecap: round"/>
    <g clip-path="url(#p9fd41f3f46)">
     <use xlink:href="#mfba46f8396" x="663.54858" y="193.03022" style="fill: #ffffff; stroke: #ffffff; stroke-width: 1.125"/>
    </g>
   </g>
   <g id="patch_8">
    <path d="M 387.7977 318.04 
L 387.7977 24.72 
" style="fill: none; stroke: #cccccc; stroke-width: 0.8; stroke-linejoin: miter; stroke-linecap: square"/>
   </g>
   <g id="patch_9">
    <path d="M 387.7977 318.04 
L 712.2105 318.04 
" style="fill: none; stroke: #cccccc; stroke-width: 0.8; stroke-linejoin: miter; stroke-linecap: square"/>
   </g>
   <g id="text_18">
    <!-- sex = m -->
    <g style="fill: #262626" transform="translate(532.36035 18.72) scale(0.1 -0.1)">
     <use xlink:href="#ArialMT-73"/>
     <use xlink:href="#ArialMT-65" x="50"/>
     <use xlink:href="#ArialMT-78" x="105.615234"/>
     <use xlink:href="#ArialMT-20" x="155.615234"/>
     <use xlink:href="#ArialMT-3d" x="183.398438"/>
     <use xlink:href="#ArialMT-20" x="241.796875"/>
     <use xlink:href="#ArialMT-6d" x="269.580078"/>
    </g>
   </g>
  </g>
  <g id="legend_1">
   <g id="text_19">
    <!-- Time -->
    <g style="fill: #262626" transform="translate(733.633594 168.439844) scale(0.1 -0.1)">
     <defs>
      <path id="ArialMT-54" d="M 1659 0 
L 1659 4041 
L 150 4041 
L 150 4581 
L 3781 4581 
L 3781 4041 
L 2266 4041 
L 2266 0 
L 1659 0 
z
" transform="scale(0.015625)"/>
     </defs>
     <use xlink:href="#ArialMT-54"/>
     <use xlink:href="#ArialMT-69" x="57.333984"/>
     <use xlink:href="#ArialMT-6d" x="79.550781"/>
     <use xlink:href="#ArialMT-65" x="162.851562"/>
    </g>
   </g>
   <g id="patch_10">
    <path d="M 719.1625 182.585156 
L 739.1625 182.585156 
L 739.1625 175.585156 
L 719.1625 175.585156 
z
" style="fill: #3274a1; stroke: #3f3f3f; stroke-width: 1.25; stroke-linejoin: miter"/>
   </g>
   <g id="text_20">
    <!-- initial -->
    <g style="fill: #262626" transform="translate(747.1625 182.585156) scale(0.1 -0.1)">
     <use xlink:href="#ArialMT-69"/>
     <use xlink:href="#ArialMT-6e" x="22.216797"/>
     <use xlink:href="#ArialMT-69" x="77.832031"/>
     <use xlink:href="#ArialMT-74" x="100.048828"/>
     <use xlink:href="#ArialMT-69" x="127.832031"/>
     <use xlink:href="#ArialMT-61" x="150.048828"/>
     <use xlink:href="#ArialMT-6c" x="205.664062"/>
    </g>
   </g>
   <g id="patch_11">
    <path d="M 719.1625 196.730469 
L 739.1625 196.730469 
L 739.1625 189.730469 
L 719.1625 189.730469 
z
" style="fill: #e1812c; stroke: #3f3f3f; stroke-width: 1.25; stroke-linejoin: miter"/>
   </g>
   <g id="text_21">
    <!-- final -->
    <g style="fill: #262626" transform="translate(747.1625 196.730469) scale(0.1 -0.1)">
     <use xlink:href="#ArialMT-66"/>
     <use xlink:href="#ArialMT-69" x="27.783203"/>
     <use xlink:href="#ArialMT-6e" x="50"/>
     <use xlink:href="#ArialMT-61" x="105.615234"/>
     <use xlink:href="#ArialMT-6c" x="161.230469"/>
    </g>
   </g>
  </g>
 </g>
 <defs>
  <clipPath id="p97123d941b">
   <rect x="52.600763" y="24.72" width="324.4128" height="293.32"/>
  </clipPath>
  <clipPath id="p9fd41f3f46">
   <rect x="387.7977" y="24.72" width="324.4128" height="293.32"/>
  </clipPath>
 </defs>
</svg>
