<?xml version="1.0" encoding="utf-8" standalone="no"?>
<!DOCTYPE svg PUBLIC "-//W3C//DTD SVG 1.1//EN"
  "http://www.w3.org/Graphics/SVG/1.1/DTD/svg11.dtd">
<svg xmlns:xlink="http://www.w3.org/1999/xlink" width="778.95pt" height="360pt" viewBox="0 0 778.95 360" xmlns="http://www.w3.org/2000/svg" version="1.1">
 <metadata>
  <rdf:RDF xmlns:dc="http://purl.org/dc/elements/1.1/" xmlns:cc="http://creativecommons.org/ns#" xmlns:rdf="http://www.w3.org/1999/02/22-rdf-syntax-ns#">
   <cc:Work>
    <dc:type rdf:resource="http://purl.org/dc/dcmitype/StillImage"/>
    <dc:date>2024-09-10T22:04:39.055078</dc:date>
    <dc:format>image/svg+xml</dc:format>
    <dc:creator>
     <cc:Agent>
      <dc:title>Matplotlib v3.8.3, https://matplotlib.org/</dc:title>
     </cc:Agent>
    </dc:creator>
   </cc:Work>
  </rdf:RDF>
 </metadata>
 <defs>
  <style type="text/css">*{stroke-linejoin: round; stroke-linecap: butt}</style>
 </defs>
 <g id="figure_1">
  <g id="patch_1">
   <path d="M 0 360 
L 778.95 360 
L 778.95 0 
L 0 0 
z
" style="fill: #ffffff"/>
  </g>
  <g id="axes_1">
   <g id="patch_2">
    <path d="M 46.5639 318.04 
L 373.991362 318.04 
L 373.991362 24.72 
L 46.5639 24.72 
z
" style="fill: #ffffff"/>
   </g>
   <g id="matplotlib.axis_1">
    <g id="xtick_1">
     <g id="text_1">
      <!-- Jurilovca -->
      <g style="fill: #262626" transform="translate(108.69264 332.197812) scale(0.1 -0.1)">
       <defs>
        <path id="ArialMT-4a" d="M 184 1300 
L 731 1375 
Q 753 850 928 656 
Q 1103 463 1413 463 
Q 1641 463 1806 567 
Q 1972 672 2034 851 
Q 2097 1031 2097 1425 
L 2097 4581 
L 2703 4581 
L 2703 1459 
Q 2703 884 2564 568 
Q 2425 253 2123 87 
Q 1822 -78 1416 -78 
Q 813 -78 492 269 
Q 172 616 184 1300 
z
" transform="scale(0.015625)"/>
        <path id="ArialMT-75" d="M 2597 0 
L 2597 488 
Q 2209 -75 1544 -75 
Q 1250 -75 995 37 
Q 741 150 617 320 
Q 494 491 444 738 
Q 409 903 409 1263 
L 409 3319 
L 972 3319 
L 972 1478 
Q 972 1038 1006 884 
Q 1059 663 1231 536 
Q 1403 409 1656 409 
Q 1909 409 2131 539 
Q 2353 669 2445 892 
Q 2538 1116 2538 1541 
L 2538 3319 
L 3100 3319 
L 3100 0 
L 2597 0 
z
" transform="scale(0.015625)"/>
        <path id="ArialMT-72" d="M 416 0 
L 416 3319 
L 922 3319 
L 922 2816 
Q 1116 3169 1280 3281 
Q 1444 3394 1641 3394 
Q 1925 3394 2219 3213 
L 2025 2691 
Q 1819 2813 1613 2813 
Q 1428 2813 1281 2702 
Q 1134 2591 1072 2394 
Q 978 2094 978 1738 
L 978 0 
L 416 0 
z
" transform="scale(0.015625)"/>
        <path id="ArialMT-69" d="M 425 3934 
L 425 4581 
L 988 4581 
L 988 3934 
L 425 3934 
z
M 425 0 
L 425 3319 
L 988 3319 
L 988 0 
L 425 0 
z
" transform="scale(0.015625)"/>
        <path id="ArialMT-6c" d="M 409 0 
L 409 4581 
L 972 4581 
L 972 0 
L 409 0 
z
" transform="scale(0.015625)"/>
        <path id="ArialMT-6f" d="M 213 1659 
Q 213 2581 725 3025 
Q 1153 3394 1769 3394 
Q 2453 3394 2887 2945 
Q 3322 2497 3322 1706 
Q 3322 1066 3130 698 
Q 2938 331 2570 128 
Q 2203 -75 1769 -75 
Q 1072 -75 642 372 
Q 213 819 213 1659 
z
M 791 1659 
Q 791 1022 1069 705 
Q 1347 388 1769 388 
Q 2188 388 2466 706 
Q 2744 1025 2744 1678 
Q 2744 2294 2464 2611 
Q 2184 2928 1769 2928 
Q 1347 2928 1069 2612 
Q 791 2297 791 1659 
z
" transform="scale(0.015625)"/>
        <path id="ArialMT-76" d="M 1344 0 
L 81 3319 
L 675 3319 
L 1388 1331 
Q 1503 1009 1600 663 
Q 1675 925 1809 1294 
L 2547 3319 
L 3125 3319 
L 1869 0 
L 1344 0 
z
" transform="scale(0.015625)"/>
        <path id="ArialMT-63" d="M 2588 1216 
L 3141 1144 
Q 3050 572 2676 248 
Q 2303 -75 1759 -75 
Q 1078 -75 664 370 
Q 250 816 250 1647 
Q 250 2184 428 2587 
Q 606 2991 970 3192 
Q 1334 3394 1763 3394 
Q 2303 3394 2647 3120 
Q 2991 2847 3088 2344 
L 2541 2259 
Q 2463 2594 2264 2762 
Q 2066 2931 1784 2931 
Q 1359 2931 1093 2626 
Q 828 2322 828 1663 
Q 828 994 1084 691 
Q 1341 388 1753 388 
Q 2084 388 2306 591 
Q 2528 794 2588 1216 
z
" transform="scale(0.015625)"/>
        <path id="ArialMT-61" d="M 2588 409 
Q 2275 144 1986 34 
Q 1697 -75 1366 -75 
Q 819 -75 525 192 
Q 231 459 231 875 
Q 231 1119 342 1320 
Q 453 1522 633 1644 
Q 813 1766 1038 1828 
Q 1203 1872 1538 1913 
Q 2219 1994 2541 2106 
Q 2544 2222 2544 2253 
Q 2544 2597 2384 2738 
Q 2169 2928 1744 2928 
Q 1347 2928 1158 2789 
Q 969 2650 878 2297 
L 328 2372 
Q 403 2725 575 2942 
Q 747 3159 1072 3276 
Q 1397 3394 1825 3394 
Q 2250 3394 2515 3294 
Q 2781 3194 2906 3042 
Q 3031 2891 3081 2659 
Q 3109 2516 3109 2141 
L 3109 1391 
Q 3109 606 3145 398 
Q 3181 191 3288 0 
L 2700 0 
Q 2613 175 2588 409 
z
M 2541 1666 
Q 2234 1541 1622 1453 
Q 1275 1403 1131 1340 
Q 988 1278 909 1158 
Q 831 1038 831 891 
Q 831 666 1001 516 
Q 1172 366 1500 366 
Q 1825 366 2078 508 
Q 2331 650 2450 897 
Q 2541 1088 2541 1459 
L 2541 1666 
z
" transform="scale(0.015625)"/>
       </defs>
       <use xlink:href="#ArialMT-4a"/>
       <use xlink:href="#ArialMT-75" x="50"/>
       <use xlink:href="#ArialMT-72" x="105.615234"/>
       <use xlink:href="#ArialMT-69" x="138.916016"/>
       <use xlink:href="#ArialMT-6c" x="161.132812"/>
       <use xlink:href="#ArialMT-6f" x="183.349609"/>
       <use xlink:href="#ArialMT-76" x="238.964844"/>
       <use xlink:href="#ArialMT-63" x="288.964844"/>
       <use xlink:href="#ArialMT-61" x="338.964844"/>
      </g>
     </g>
    </g>
    <g id="xtick_2">
     <g id="text_2">
      <!-- Baia -->
      <g style="fill: #262626" transform="translate(282.127465 332.197812) scale(0.1 -0.1)">
       <defs>
        <path id="ArialMT-42" d="M 469 0 
L 469 4581 
L 2188 4581 
Q 2713 4581 3030 4442 
Q 3347 4303 3526 4014 
Q 3706 3725 3706 3409 
Q 3706 3116 3547 2856 
Q 3388 2597 3066 2438 
Q 3481 2316 3704 2022 
Q 3928 1728 3928 1328 
Q 3928 1006 3792 729 
Q 3656 453 3456 303 
Q 3256 153 2954 76 
Q 2653 0 2216 0 
L 469 0 
z
M 1075 2656 
L 2066 2656 
Q 2469 2656 2644 2709 
Q 2875 2778 2992 2937 
Q 3109 3097 3109 3338 
Q 3109 3566 3000 3739 
Q 2891 3913 2687 3977 
Q 2484 4041 1991 4041 
L 1075 4041 
L 1075 2656 
z
M 1075 541 
L 2216 541 
Q 2509 541 2628 563 
Q 2838 600 2978 687 
Q 3119 775 3209 942 
Q 3300 1109 3300 1328 
Q 3300 1584 3169 1773 
Q 3038 1963 2805 2039 
Q 2572 2116 2134 2116 
L 1075 2116 
L 1075 541 
z
" transform="scale(0.015625)"/>
       </defs>
       <use xlink:href="#ArialMT-42"/>
       <use xlink:href="#ArialMT-61" x="66.699219"/>
       <use xlink:href="#ArialMT-69" x="122.314453"/>
       <use xlink:href="#ArialMT-61" x="144.53125"/>
      </g>
     </g>
    </g>
    <g id="text_3">
     <!-- Location -->
     <g style="fill: #262626" transform="translate(191.375287 345.343125) scale(0.1 -0.1)">
      <defs>
       <path id="ArialMT-4c" d="M 469 0 
L 469 4581 
L 1075 4581 
L 1075 541 
L 3331 541 
L 3331 0 
L 469 0 
z
" transform="scale(0.015625)"/>
       <path id="ArialMT-74" d="M 1650 503 
L 1731 6 
Q 1494 -44 1306 -44 
Q 1000 -44 831 53 
Q 663 150 594 308 
Q 525 466 525 972 
L 525 2881 
L 113 2881 
L 113 3319 
L 525 3319 
L 525 4141 
L 1084 4478 
L 1084 3319 
L 1650 3319 
L 1650 2881 
L 1084 2881 
L 1084 941 
Q 1084 700 1114 631 
Q 1144 563 1211 522 
Q 1278 481 1403 481 
Q 1497 481 1650 503 
z
" transform="scale(0.015625)"/>
       <path id="ArialMT-6e" d="M 422 0 
L 422 3319 
L 928 3319 
L 928 2847 
Q 1294 3394 1984 3394 
Q 2284 3394 2536 3286 
Q 2788 3178 2913 3003 
Q 3038 2828 3088 2588 
Q 3119 2431 3119 2041 
L 3119 0 
L 2556 0 
L 2556 2019 
Q 2556 2363 2490 2533 
Q 2425 2703 2258 2804 
Q 2091 2906 1866 2906 
Q 1506 2906 1245 2678 
Q 984 2450 984 1813 
L 984 0 
L 422 0 
z
" transform="scale(0.015625)"/>
      </defs>
      <use xlink:href="#ArialMT-4c"/>
      <use xlink:href="#ArialMT-6f" x="55.615234"/>
      <use xlink:href="#ArialMT-63" x="111.230469"/>
      <use xlink:href="#ArialMT-61" x="161.230469"/>
      <use xlink:href="#ArialMT-74" x="216.845703"/>
      <use xlink:href="#ArialMT-69" x="244.628906"/>
      <use xlink:href="#ArialMT-6f" x="266.845703"/>
      <use xlink:href="#ArialMT-6e" x="322.460938"/>
     </g>
    </g>
   </g>
   <g id="matplotlib.axis_2">
    <g id="ytick_1">
     <g id="line2d_1">
      <path d="M 46.5639 311.918561 
L 373.991362 311.918561 
" clip-path="url(#pf987f02a40)" style="fill: none; stroke: #cccccc; stroke-width: 0.8; stroke-linecap: round"/>
     </g>
     <g id="text_4">
      <!-- 0 -->
      <g style="fill: #262626" transform="translate(34.002963 315.497468) scale(0.1 -0.1)">
       <defs>
        <path id="ArialMT-30" d="M 266 2259 
Q 266 3072 433 3567 
Q 600 4063 929 4331 
Q 1259 4600 1759 4600 
Q 2128 4600 2406 4451 
Q 2684 4303 2865 4023 
Q 3047 3744 3150 3342 
Q 3253 2941 3253 2259 
Q 3253 1453 3087 958 
Q 2922 463 2592 192 
Q 2263 -78 1759 -78 
Q 1097 -78 719 397 
Q 266 969 266 2259 
z
M 844 2259 
Q 844 1131 1108 757 
Q 1372 384 1759 384 
Q 2147 384 2411 759 
Q 2675 1134 2675 2259 
Q 2675 3391 2411 3762 
Q 2147 4134 1753 4134 
Q 1366 4134 1134 3806 
Q 844 3388 844 2259 
z
" transform="scale(0.015625)"/>
       </defs>
       <use xlink:href="#ArialMT-30"/>
      </g>
     </g>
    </g>
    <g id="ytick_2">
     <g id="line2d_2">
      <path d="M 46.5639 278.407744 
L 373.991362 278.407744 
" clip-path="url(#pf987f02a40)" style="fill: none; stroke: #cccccc; stroke-width: 0.8; stroke-linecap: round"/>
     </g>
     <g id="text_5">
      <!-- 2 -->
      <g style="fill: #262626" transform="translate(34.002963 281.98665) scale(0.1 -0.1)">
       <defs>
        <path id="ArialMT-32" d="M 3222 541 
L 3222 0 
L 194 0 
Q 188 203 259 391 
Q 375 700 629 1000 
Q 884 1300 1366 1694 
Q 2113 2306 2375 2664 
Q 2638 3022 2638 3341 
Q 2638 3675 2398 3904 
Q 2159 4134 1775 4134 
Q 1369 4134 1125 3890 
Q 881 3647 878 3216 
L 300 3275 
Q 359 3922 746 4261 
Q 1134 4600 1788 4600 
Q 2447 4600 2831 4234 
Q 3216 3869 3216 3328 
Q 3216 3053 3103 2787 
Q 2991 2522 2730 2228 
Q 2469 1934 1863 1422 
Q 1356 997 1212 845 
Q 1069 694 975 541 
L 3222 541 
z
" transform="scale(0.015625)"/>
       </defs>
       <use xlink:href="#ArialMT-32"/>
      </g>
     </g>
    </g>
    <g id="ytick_3">
     <g id="line2d_3">
      <path d="M 46.5639 244.896926 
L 373.991362 244.896926 
" clip-path="url(#pf987f02a40)" style="fill: none; stroke: #cccccc; stroke-width: 0.8; stroke-linecap: round"/>
     </g>
     <g id="text_6">
      <!-- 4 -->
      <g style="fill: #262626" transform="translate(34.002963 248.475832) scale(0.1 -0.1)">
       <defs>
        <path id="ArialMT-34" d="M 2069 0 
L 2069 1097 
L 81 1097 
L 81 1613 
L 2172 4581 
L 2631 4581 
L 2631 1613 
L 3250 1613 
L 3250 1097 
L 2631 1097 
L 2631 0 
L 2069 0 
z
M 2069 1613 
L 2069 3678 
L 634 1613 
L 2069 1613 
z
" transform="scale(0.015625)"/>
       </defs>
       <use xlink:href="#ArialMT-34"/>
      </g>
     </g>
    </g>
    <g id="ytick_4">
     <g id="line2d_4">
      <path d="M 46.5639 211.386108 
L 373.991362 211.386108 
" clip-path="url(#pf987f02a40)" style="fill: none; stroke: #cccccc; stroke-width: 0.8; stroke-linecap: round"/>
     </g>
     <g id="text_7">
      <!-- 6 -->
      <g style="fill: #262626" transform="translate(34.002963 214.965015) scale(0.1 -0.1)">
       <defs>
        <path id="ArialMT-36" d="M 3184 3459 
L 2625 3416 
Q 2550 3747 2413 3897 
Q 2184 4138 1850 4138 
Q 1581 4138 1378 3988 
Q 1113 3794 959 3422 
Q 806 3050 800 2363 
Q 1003 2672 1297 2822 
Q 1591 2972 1913 2972 
Q 2475 2972 2870 2558 
Q 3266 2144 3266 1488 
Q 3266 1056 3080 686 
Q 2894 316 2569 119 
Q 2244 -78 1831 -78 
Q 1128 -78 684 439 
Q 241 956 241 2144 
Q 241 3472 731 4075 
Q 1159 4600 1884 4600 
Q 2425 4600 2770 4297 
Q 3116 3994 3184 3459 
z
M 888 1484 
Q 888 1194 1011 928 
Q 1134 663 1356 523 
Q 1578 384 1822 384 
Q 2178 384 2434 671 
Q 2691 959 2691 1453 
Q 2691 1928 2437 2201 
Q 2184 2475 1800 2475 
Q 1419 2475 1153 2201 
Q 888 1928 888 1484 
z
" transform="scale(0.015625)"/>
       </defs>
       <use xlink:href="#ArialMT-36"/>
      </g>
     </g>
    </g>
    <g id="ytick_5">
     <g id="line2d_5">
      <path d="M 46.5639 177.875291 
L 373.991362 177.875291 
" clip-path="url(#pf987f02a40)" style="fill: none; stroke: #cccccc; stroke-width: 0.8; stroke-linecap: round"/>
     </g>
     <g id="text_8">
      <!-- 8 -->
      <g style="fill: #262626" transform="translate(34.002963 181.454197) scale(0.1 -0.1)">
       <defs>
        <path id="ArialMT-38" d="M 1131 2484 
Q 781 2613 612 2850 
Q 444 3088 444 3419 
Q 444 3919 803 4259 
Q 1163 4600 1759 4600 
Q 2359 4600 2725 4251 
Q 3091 3903 3091 3403 
Q 3091 3084 2923 2848 
Q 2756 2613 2416 2484 
Q 2838 2347 3058 2040 
Q 3278 1734 3278 1309 
Q 3278 722 2862 322 
Q 2447 -78 1769 -78 
Q 1091 -78 675 323 
Q 259 725 259 1325 
Q 259 1772 486 2073 
Q 713 2375 1131 2484 
z
M 1019 3438 
Q 1019 3113 1228 2906 
Q 1438 2700 1772 2700 
Q 2097 2700 2305 2904 
Q 2513 3109 2513 3406 
Q 2513 3716 2298 3927 
Q 2084 4138 1766 4138 
Q 1444 4138 1231 3931 
Q 1019 3725 1019 3438 
z
M 838 1322 
Q 838 1081 952 856 
Q 1066 631 1291 507 
Q 1516 384 1775 384 
Q 2178 384 2440 643 
Q 2703 903 2703 1303 
Q 2703 1709 2433 1975 
Q 2163 2241 1756 2241 
Q 1359 2241 1098 1978 
Q 838 1716 838 1322 
z
" transform="scale(0.015625)"/>
       </defs>
       <use xlink:href="#ArialMT-38"/>
      </g>
     </g>
    </g>
    <g id="ytick_6">
     <g id="line2d_6">
      <path d="M 46.5639 144.364473 
L 373.991362 144.364473 
" clip-path="url(#pf987f02a40)" style="fill: none; stroke: #cccccc; stroke-width: 0.8; stroke-linecap: round"/>
     </g>
     <g id="text_9">
      <!-- 10 -->
      <g style="fill: #262626" transform="translate(28.442025 147.943379) scale(0.1 -0.1)">
       <defs>
        <path id="ArialMT-31" d="M 2384 0 
L 1822 0 
L 1822 3584 
Q 1619 3391 1289 3197 
Q 959 3003 697 2906 
L 697 3450 
Q 1169 3672 1522 3987 
Q 1875 4303 2022 4600 
L 2384 4600 
L 2384 0 
z
" transform="scale(0.015625)"/>
       </defs>
       <use xlink:href="#ArialMT-31"/>
       <use xlink:href="#ArialMT-30" x="55.615234"/>
      </g>
     </g>
    </g>
    <g id="ytick_7">
     <g id="line2d_7">
      <path d="M 46.5639 110.853655 
L 373.991362 110.853655 
" clip-path="url(#pf987f02a40)" style="fill: none; stroke: #cccccc; stroke-width: 0.8; stroke-linecap: round"/>
     </g>
     <g id="text_10">
      <!-- 12 -->
      <g style="fill: #262626" transform="translate(28.442025 114.432562) scale(0.1 -0.1)">
       <use xlink:href="#ArialMT-31"/>
       <use xlink:href="#ArialMT-32" x="55.615234"/>
      </g>
     </g>
    </g>
    <g id="ytick_8">
     <g id="line2d_8">
      <path d="M 46.5639 77.342838 
L 373.991362 77.342838 
" clip-path="url(#pf987f02a40)" style="fill: none; stroke: #cccccc; stroke-width: 0.8; stroke-linecap: round"/>
     </g>
     <g id="text_11">
      <!-- 14 -->
      <g style="fill: #262626" transform="translate(28.442025 80.921744) scale(0.1 -0.1)">
       <use xlink:href="#ArialMT-31"/>
       <use xlink:href="#ArialMT-34" x="55.615234"/>
      </g>
     </g>
    </g>
    <g id="ytick_9">
     <g id="line2d_9">
      <path d="M 46.5639 43.83202 
L 373.991362 43.83202 
" clip-path="url(#pf987f02a40)" style="fill: none; stroke: #cccccc; stroke-width: 0.8; stroke-linecap: round"/>
     </g>
     <g id="text_12">
      <!-- 16 -->
      <g style="fill: #262626" transform="translate(28.442025 47.410926) scale(0.1 -0.1)">
       <use xlink:href="#ArialMT-31"/>
       <use xlink:href="#ArialMT-36" x="55.615234"/>
      </g>
     </g>
    </g>
    <g id="text_13">
     <!-- O2 per pulse (l) -->
     <g style="fill: #262626" transform="translate(22.337337 205.835469) rotate(-90) scale(0.1 -0.1)">
      <defs>
       <path id="ArialMT-4f" d="M 309 2231 
Q 309 3372 921 4017 
Q 1534 4663 2503 4663 
Q 3138 4663 3647 4359 
Q 4156 4056 4423 3514 
Q 4691 2972 4691 2284 
Q 4691 1588 4409 1038 
Q 4128 488 3612 205 
Q 3097 -78 2500 -78 
Q 1853 -78 1343 234 
Q 834 547 571 1087 
Q 309 1628 309 2231 
z
M 934 2222 
Q 934 1394 1379 917 
Q 1825 441 2497 441 
Q 3181 441 3623 922 
Q 4066 1403 4066 2288 
Q 4066 2847 3877 3264 
Q 3688 3681 3323 3911 
Q 2959 4141 2506 4141 
Q 1863 4141 1398 3698 
Q 934 3256 934 2222 
z
" transform="scale(0.015625)"/>
       <path id="ArialMT-20" transform="scale(0.015625)"/>
       <path id="ArialMT-70" d="M 422 -1272 
L 422 3319 
L 934 3319 
L 934 2888 
Q 1116 3141 1344 3267 
Q 1572 3394 1897 3394 
Q 2322 3394 2647 3175 
Q 2972 2956 3137 2557 
Q 3303 2159 3303 1684 
Q 3303 1175 3120 767 
Q 2938 359 2589 142 
Q 2241 -75 1856 -75 
Q 1575 -75 1351 44 
Q 1128 163 984 344 
L 984 -1272 
L 422 -1272 
z
M 931 1641 
Q 931 1000 1190 694 
Q 1450 388 1819 388 
Q 2194 388 2461 705 
Q 2728 1022 2728 1688 
Q 2728 2322 2467 2637 
Q 2206 2953 1844 2953 
Q 1484 2953 1207 2617 
Q 931 2281 931 1641 
z
" transform="scale(0.015625)"/>
       <path id="ArialMT-65" d="M 2694 1069 
L 3275 997 
Q 3138 488 2766 206 
Q 2394 -75 1816 -75 
Q 1088 -75 661 373 
Q 234 822 234 1631 
Q 234 2469 665 2931 
Q 1097 3394 1784 3394 
Q 2450 3394 2872 2941 
Q 3294 2488 3294 1666 
Q 3294 1616 3291 1516 
L 816 1516 
Q 847 969 1125 678 
Q 1403 388 1819 388 
Q 2128 388 2347 550 
Q 2566 713 2694 1069 
z
M 847 1978 
L 2700 1978 
Q 2663 2397 2488 2606 
Q 2219 2931 1791 2931 
Q 1403 2931 1139 2672 
Q 875 2413 847 1978 
z
" transform="scale(0.015625)"/>
       <path id="ArialMT-73" d="M 197 991 
L 753 1078 
Q 800 744 1014 566 
Q 1228 388 1613 388 
Q 2000 388 2187 545 
Q 2375 703 2375 916 
Q 2375 1106 2209 1216 
Q 2094 1291 1634 1406 
Q 1016 1563 777 1677 
Q 538 1791 414 1992 
Q 291 2194 291 2438 
Q 291 2659 392 2848 
Q 494 3038 669 3163 
Q 800 3259 1026 3326 
Q 1253 3394 1513 3394 
Q 1903 3394 2198 3281 
Q 2494 3169 2634 2976 
Q 2775 2784 2828 2463 
L 2278 2388 
Q 2241 2644 2061 2787 
Q 1881 2931 1553 2931 
Q 1166 2931 1000 2803 
Q 834 2675 834 2503 
Q 834 2394 903 2306 
Q 972 2216 1119 2156 
Q 1203 2125 1616 2013 
Q 2213 1853 2448 1751 
Q 2684 1650 2818 1456 
Q 2953 1263 2953 975 
Q 2953 694 2789 445 
Q 2625 197 2315 61 
Q 2006 -75 1616 -75 
Q 969 -75 630 194 
Q 291 463 197 991 
z
" transform="scale(0.015625)"/>
       <path id="ArialMT-28" d="M 1497 -1347 
Q 1031 -759 709 28 
Q 388 816 388 1659 
Q 388 2403 628 3084 
Q 909 3875 1497 4659 
L 1900 4659 
Q 1522 4009 1400 3731 
Q 1209 3300 1100 2831 
Q 966 2247 966 1656 
Q 966 153 1900 -1347 
L 1497 -1347 
z
" transform="scale(0.015625)"/>
       <path id="ArialMT-29" d="M 791 -1347 
L 388 -1347 
Q 1322 153 1322 1656 
Q 1322 2244 1188 2822 
Q 1081 3291 891 3722 
Q 769 4003 388 4659 
L 791 4659 
Q 1378 3875 1659 3084 
Q 1900 2403 1900 1659 
Q 1900 816 1576 28 
Q 1253 -759 791 -1347 
z
" transform="scale(0.015625)"/>
      </defs>
      <use xlink:href="#ArialMT-4f"/>
      <use xlink:href="#ArialMT-32" x="77.783203"/>
      <use xlink:href="#ArialMT-20" x="133.398438"/>
      <use xlink:href="#ArialMT-70" x="161.181641"/>
      <use xlink:href="#ArialMT-65" x="216.796875"/>
      <use xlink:href="#ArialMT-72" x="272.412109"/>
      <use xlink:href="#ArialMT-20" x="305.712891"/>
      <use xlink:href="#ArialMT-70" x="333.496094"/>
      <use xlink:href="#ArialMT-75" x="389.111328"/>
      <use xlink:href="#ArialMT-6c" x="444.726562"/>
      <use xlink:href="#ArialMT-73" x="466.943359"/>
      <use xlink:href="#ArialMT-65" x="516.943359"/>
      <use xlink:href="#ArialMT-20" x="572.558594"/>
      <use xlink:href="#ArialMT-28" x="600.341797"/>
      <use xlink:href="#ArialMT-6c" x="633.642578"/>
      <use xlink:href="#ArialMT-29" x="655.859375"/>
     </g>
    </g>
   </g>
   <g id="PolyCollection_1">
    <defs>
     <path id="me7515ddc54" d="M 96.77751 -81.729971 
L 94.578529 -81.729971 
L 94.378909 -83.027767 
L 94.153936 -84.325562 
L 93.902653 -85.623358 
L 93.624518 -86.921154 
L 93.319481 -88.21895 
L 92.988046 -89.516745 
L 92.631323 -90.814541 
L 92.251051 -92.112337 
L 91.849608 -93.410133 
L 91.429978 -94.707928 
L 90.995695 -96.005724 
L 90.550754 -97.30352 
L 90.099478 -98.601316 
L 89.646361 -99.899111 
L 89.19588 -101.196907 
L 88.752285 -102.494703 
L 88.319371 -103.792498 
L 87.900253 -105.090294 
L 87.49714 -106.38809 
L 87.11113 -107.685886 
L 86.742037 -108.983681 
L 86.38826 -110.281477 
L 86.04671 -111.579273 
L 85.712788 -112.877069 
L 85.380451 -114.174864 
L 85.042335 -115.47266 
L 84.689963 -116.770456 
L 84.314019 -118.068252 
L 83.904689 -119.366047 
L 83.452051 -120.663843 
L 82.946514 -121.961639 
L 82.379273 -123.259435 
L 81.74277 -124.55723 
L 81.03114 -125.855026 
L 80.240625 -127.152822 
L 79.369923 -128.450617 
L 78.420469 -129.748413 
L 77.396621 -131.046209 
L 76.305744 -132.344005 
L 75.158173 -133.6418 
L 73.967068 -134.939596 
L 72.748143 -136.237392 
L 71.519287 -137.535188 
L 70.300085 -138.832983 
L 69.111256 -140.130779 
L 67.974027 -141.428575 
L 66.909471 -142.726371 
L 65.937831 -144.024166 
L 65.077864 -145.321962 
L 64.346228 -146.619758 
L 63.756941 -147.917554 
L 63.320939 -149.215349 
L 63.045746 -150.513145 
L 62.935273 -151.810941 
L 62.989757 -153.108736 
L 63.205839 -154.406532 
L 63.576774 -155.704328 
L 64.092764 -157.002124 
L 64.741399 -158.299919 
L 65.508174 -159.597715 
L 66.377067 -160.895511 
L 67.331141 -162.193307 
L 68.353147 -163.491102 
L 69.426097 -164.788898 
L 70.533785 -166.086694 
L 71.661227 -167.38449 
L 72.795018 -168.682285 
L 73.923579 -169.980081 
L 75.037307 -171.277877 
L 76.128611 -172.575673 
L 77.191864 -173.873468 
L 78.223254 -175.171264 
L 79.220586 -176.46906 
L 80.183018 -177.766855 
L 81.110775 -179.064651 
L 82.004847 -180.362447 
L 82.866705 -181.660243 
L 83.698024 -182.958038 
L 84.50046 -184.255834 
L 85.275457 -185.55363 
L 86.024118 -186.851426 
L 86.747117 -188.149221 
L 87.444672 -189.447017 
L 88.116553 -190.744813 
L 88.762138 -192.042609 
L 89.380491 -193.340404 
L 89.970465 -194.6382 
L 90.53081 -195.935996 
L 91.060291 -197.233792 
L 91.557784 -198.531587 
L 92.022378 -199.829383 
L 92.453443 -201.127179 
L 92.850686 -202.424974 
L 93.214182 -203.72277 
L 93.544383 -205.020566 
L 93.842111 -206.318362 
L 94.108527 -207.616157 
L 94.345096 -208.913953 
L 94.553533 -210.211749 
L 96.802506 -210.211749 
L 96.802506 -210.211749 
L 97.010943 -208.913953 
L 97.247512 -207.616157 
L 97.513928 -206.318362 
L 97.811655 -205.020566 
L 98.141856 -203.72277 
L 98.505352 -202.424974 
L 98.902595 -201.127179 
L 99.333661 -199.829383 
L 99.798255 -198.531587 
L 100.295748 -197.233792 
L 100.825228 -195.935996 
L 101.385574 -194.6382 
L 101.975547 -193.340404 
L 102.593901 -192.042609 
L 103.239486 -190.744813 
L 103.911367 -189.447017 
L 104.608921 -188.149221 
L 105.331921 -186.851426 
L 106.080582 -185.55363 
L 106.855579 -184.255834 
L 107.658014 -182.958038 
L 108.489334 -181.660243 
L 109.351191 -180.362447 
L 110.245264 -179.064651 
L 111.17302 -177.766855 
L 112.135452 -176.46906 
L 113.132784 -175.171264 
L 114.164175 -173.873468 
L 115.227427 -172.575673 
L 116.318732 -171.277877 
L 117.432459 -169.980081 
L 118.561021 -168.682285 
L 119.694811 -167.38449 
L 120.822254 -166.086694 
L 121.929941 -164.788898 
L 123.002892 -163.491102 
L 124.024898 -162.193307 
L 124.978971 -160.895511 
L 125.847864 -159.597715 
L 126.614639 -158.299919 
L 127.263274 -157.002124 
L 127.779265 -155.704328 
L 128.150199 -154.406532 
L 128.366281 -153.108736 
L 128.420765 -151.810941 
L 128.310292 -150.513145 
L 128.0351 -149.215349 
L 127.599098 -147.917554 
L 127.009811 -146.619758 
L 126.278174 -145.321962 
L 125.418207 -144.024166 
L 124.446567 -142.726371 
L 123.382011 -141.428575 
L 122.244783 -140.130779 
L 121.055954 -138.832983 
L 119.836751 -137.535188 
L 118.607895 -136.237392 
L 117.38897 -134.939596 
L 116.197865 -133.6418 
L 115.050295 -132.344005 
L 113.959417 -131.046209 
L 112.93557 -129.748413 
L 111.986116 -128.450617 
L 111.115413 -127.152822 
L 110.324898 -125.855026 
L 109.613269 -124.55723 
L 108.976765 -123.259435 
L 108.409524 -121.961639 
L 107.903988 -120.663843 
L 107.45135 -119.366047 
L 107.042019 -118.068252 
L 106.666075 -116.770456 
L 106.313703 -115.47266 
L 105.975588 -114.174864 
L 105.643251 -112.877069 
L 105.309329 -111.579273 
L 104.967778 -110.281477 
L 104.614002 -108.983681 
L 104.244908 -107.685886 
L 103.858898 -106.38809 
L 103.455785 -105.090294 
L 103.036668 -103.792498 
L 102.603754 -102.494703 
L 102.160158 -101.196907 
L 101.709677 -99.899111 
L 101.25656 -98.601316 
L 100.805284 -97.30352 
L 100.360343 -96.005724 
L 99.926061 -94.707928 
L 99.50643 -93.410133 
L 99.104987 -92.112337 
L 98.724716 -90.814541 
L 98.367992 -89.516745 
L 98.036558 -88.21895 
L 97.73152 -86.921154 
L 97.453385 -85.623358 
L 97.202102 -84.325562 
L 96.97713 -83.027767 
L 96.77751 -81.729971 
z
" style="stroke: #3f3f3f; stroke-width: 1.25"/>
    </defs>
    <g clip-path="url(#pf987f02a40)">
     <use xlink:href="#me7515ddc54" x="0" y="360" style="fill: #3274a1; stroke: #3f3f3f; stroke-width: 1.25"/>
    </g>
   </g>
   <g id="PolyCollection_2">
    <defs>
     <path id="m663704a3ab" d="M 162.14196 -77.052794 
L 160.185063 -77.052794 
L 159.997317 -79.010499 
L 159.781601 -80.968204 
L 159.535371 -82.925909 
L 159.256142 -84.883614 
L 158.941546 -86.841319 
L 158.589386 -88.799024 
L 158.197703 -90.756729 
L 157.764838 -92.714434 
L 157.289493 -94.672139 
L 156.770791 -96.629844 
L 156.20833 -98.587549 
L 155.602234 -100.545254 
L 154.95319 -102.502959 
L 154.262487 -104.460664 
L 153.532029 -106.418369 
L 152.764356 -108.376074 
L 151.962637 -110.333779 
L 151.130665 -112.291484 
L 150.272834 -114.249189 
L 149.394107 -116.206894 
L 148.499976 -118.164599 
L 147.596411 -120.122304 
L 146.689806 -122.080009 
L 145.786908 -124.037714 
L 144.894751 -125.995419 
L 144.020577 -127.953124 
L 143.171756 -129.910829 
L 142.355699 -131.868534 
L 141.579773 -133.826239 
L 140.851204 -135.783944 
L 140.176987 -137.741648 
L 139.563785 -139.699353 
L 139.017834 -141.657058 
L 138.544846 -143.614763 
L 138.149904 -145.572468 
L 137.837374 -147.530173 
L 137.610807 -149.487878 
L 137.472854 -151.445583 
L 137.425182 -153.403288 
L 137.468413 -155.360993 
L 137.602061 -157.318698 
L 137.824493 -159.276403 
L 138.132914 -161.234108 
L 138.523359 -163.191813 
L 138.99073 -165.149518 
L 139.528838 -167.107223 
L 140.13049 -169.064928 
L 140.787596 -171.022633 
L 141.491302 -172.980338 
L 142.232155 -174.938043 
L 143.000291 -176.895748 
L 143.78563 -178.853453 
L 144.578104 -180.811158 
L 145.367875 -182.768863 
L 146.145563 -184.726568 
L 146.902464 -186.684273 
L 147.630753 -188.641978 
L 148.323665 -190.599683 
L 148.975646 -192.557388 
L 149.582466 -194.515093 
L 150.141296 -196.472798 
L 150.650734 -198.430503 
L 151.110794 -200.388208 
L 151.522841 -202.345913 
L 151.889484 -204.303618 
L 152.214439 -206.261323 
L 152.502341 -208.219028 
L 152.758548 -210.176733 
L 152.988915 -212.134438 
L 153.199563 -214.092143 
L 153.396646 -216.049848 
L 153.586134 -218.007553 
L 153.773606 -219.965258 
L 153.964073 -221.922963 
L 154.161829 -223.880668 
L 154.370347 -225.838373 
L 154.5922 -227.796078 
L 154.829031 -229.753783 
L 155.08156 -231.711488 
L 155.349627 -233.669193 
L 155.632262 -235.626897 
L 155.927786 -237.584602 
L 156.233932 -239.542307 
L 156.547976 -241.500012 
L 156.866877 -243.457717 
L 157.187416 -245.415422 
L 157.506331 -247.373127 
L 157.820436 -249.330832 
L 158.126734 -251.288537 
L 158.4225 -253.246242 
L 158.705355 -255.203947 
L 158.973312 -257.161652 
L 159.224804 -259.119357 
L 159.458695 -261.077062 
L 159.67427 -263.034767 
L 159.871215 -264.992472 
L 160.04958 -266.950177 
L 160.209737 -268.907882 
L 160.352333 -270.865587 
L 161.97469 -270.865587 
L 161.97469 -270.865587 
L 162.117286 -268.907882 
L 162.277443 -266.950177 
L 162.455808 -264.992472 
L 162.652753 -263.034767 
L 162.868329 -261.077062 
L 163.10222 -259.119357 
L 163.353712 -257.161652 
L 163.621668 -255.203947 
L 163.904523 -253.246242 
L 164.200289 -251.288537 
L 164.506587 -249.330832 
L 164.820693 -247.373127 
L 165.139607 -245.415422 
L 165.460146 -243.457717 
L 165.779047 -241.500012 
L 166.093091 -239.542307 
L 166.399237 -237.584602 
L 166.694762 -235.626897 
L 166.977396 -233.669193 
L 167.245463 -231.711488 
L 167.497993 -229.753783 
L 167.734823 -227.796078 
L 167.956676 -225.838373 
L 168.165194 -223.880668 
L 168.362951 -221.922963 
L 168.553417 -219.965258 
L 168.740889 -218.007553 
L 168.930377 -216.049848 
L 169.127461 -214.092143 
L 169.338108 -212.134438 
L 169.568475 -210.176733 
L 169.824682 -208.219028 
L 170.112585 -206.261323 
L 170.437539 -204.303618 
L 170.804182 -202.345913 
L 171.216229 -200.388208 
L 171.676289 -198.430503 
L 172.185727 -196.472798 
L 172.744557 -194.515093 
L 173.351377 -192.557388 
L 174.003358 -190.599683 
L 174.69627 -188.641978 
L 175.42456 -186.684273 
L 176.181461 -184.726568 
L 176.959148 -182.768863 
L 177.748919 -180.811158 
L 178.541393 -178.853453 
L 179.326733 -176.895748 
L 180.094868 -174.938043 
L 180.835722 -172.980338 
L 181.539427 -171.022633 
L 182.196533 -169.064928 
L 182.798185 -167.107223 
L 183.336293 -165.149518 
L 183.803664 -163.191813 
L 184.19411 -161.234108 
L 184.50253 -159.276403 
L 184.724962 -157.318698 
L 184.85861 -155.360993 
L 184.901841 -153.403288 
L 184.85417 -151.445583 
L 184.716216 -149.487878 
L 184.489649 -147.530173 
L 184.177119 -145.572468 
L 183.782178 -143.614763 
L 183.309189 -141.657058 
L 182.763238 -139.699353 
L 182.150036 -137.741648 
L 181.475819 -135.783944 
L 180.74725 -133.826239 
L 179.971324 -131.868534 
L 179.155268 -129.910829 
L 178.306446 -127.953124 
L 177.432272 -125.995419 
L 176.540115 -124.037714 
L 175.637217 -122.080009 
L 174.730612 -120.122304 
L 173.827048 -118.164599 
L 172.932917 -116.206894 
L 172.05419 -114.249189 
L 171.196358 -112.291484 
L 170.364387 -110.333779 
L 169.562668 -108.376074 
L 168.794994 -106.418369 
L 168.064536 -104.460664 
L 167.373833 -102.502959 
L 166.72479 -100.545254 
L 166.118693 -98.587549 
L 165.556232 -96.629844 
L 165.03753 -94.672139 
L 164.562185 -92.714434 
L 164.12932 -90.756729 
L 163.737637 -88.799024 
L 163.385477 -86.841319 
L 163.070881 -84.883614 
L 162.791652 -82.925909 
L 162.545422 -80.968204 
L 162.329706 -79.010499 
L 162.14196 -77.052794 
z
" style="stroke: #3f3f3f; stroke-width: 1.25"/>
    </defs>
    <g clip-path="url(#pf987f02a40)">
     <use xlink:href="#m663704a3ab" x="0" y="360" style="fill: #e1812c; stroke: #3f3f3f; stroke-width: 1.25"/>
    </g>
   </g>
   <g id="PolyCollection_3">
    <defs>
     <path id="mfa44ee6fd5" d="M 260.302404 -112.639894 
L 258.481096 -112.639894 
L 258.309817 -113.734409 
L 258.114494 -114.828923 
L 257.893345 -115.923438 
L 257.64471 -117.017952 
L 257.367086 -118.112466 
L 257.059158 -119.206981 
L 256.719815 -120.301495 
L 256.348158 -121.39601 
L 255.943497 -122.490524 
L 255.505338 -123.585038 
L 255.033348 -124.679553 
L 254.527314 -125.774067 
L 253.987096 -126.868582 
L 253.412567 -127.963096 
L 252.803559 -129.05761 
L 252.159807 -130.152125 
L 251.480912 -131.246639 
L 250.766314 -132.341154 
L 250.015299 -133.435668 
L 249.227023 -134.530182 
L 248.400581 -135.624697 
L 247.535105 -136.719211 
L 246.629901 -137.813726 
L 245.684619 -138.90824 
L 244.699444 -140.002754 
L 243.675311 -141.097269 
L 242.614128 -142.191783 
L 241.518985 -143.286298 
L 240.394349 -144.380812 
L 239.246216 -145.475326 
L 238.082217 -146.569841 
L 236.911651 -147.664355 
L 235.745446 -148.75887 
L 234.596033 -149.853384 
L 233.477129 -150.947898 
L 232.403435 -152.042413 
L 231.390252 -153.136927 
L 230.453024 -154.231442 
L 229.606833 -155.325956 
L 228.865851 -156.42047 
L 228.242793 -157.514985 
L 227.74838 -158.609499 
L 227.390847 -159.704014 
L 227.175516 -160.798528 
L 227.104472 -161.893042 
L 227.176337 -162.987557 
L 227.386186 -164.082071 
L 227.725595 -165.176586 
L 228.182828 -166.2711 
L 228.74317 -167.365614 
L 229.389379 -168.460129 
L 230.102261 -169.554643 
L 230.861318 -170.649158 
L 231.645476 -171.743672 
L 232.433836 -172.838186 
L 233.206428 -173.932701 
L 233.94493 -175.027215 
L 234.633333 -176.12173 
L 235.258503 -177.216244 
L 235.810634 -178.310758 
L 236.283565 -179.405273 
L 236.674947 -180.499787 
L 236.986248 -181.594302 
L 237.222617 -182.688816 
L 237.392588 -183.78333 
L 237.507651 -184.877845 
L 237.58172 -185.972359 
L 237.630501 -187.066874 
L 237.670804 -188.161388 
L 237.719829 -189.255902 
L 237.794453 -190.350417 
L 237.910548 -191.444931 
L 238.082368 -192.539446 
L 238.322019 -193.63396 
L 238.639039 -194.728474 
L 239.040099 -195.822989 
L 239.528834 -196.917503 
L 240.105809 -198.012018 
L 240.768609 -199.106532 
L 241.512045 -200.201046 
L 242.32846 -201.295561 
L 243.208122 -202.390075 
L 244.139666 -203.484589 
L 245.110579 -204.579104 
L 246.107691 -205.673618 
L 247.117656 -206.768133 
L 248.127404 -207.862647 
L 249.12454 -208.957161 
L 250.097686 -210.051676 
L 251.036751 -211.14619 
L 251.933124 -212.240705 
L 252.779797 -213.335219 
L 253.571411 -214.429733 
L 254.304237 -215.524248 
L 254.976108 -216.618762 
L 255.586289 -217.713277 
L 256.135329 -218.807791 
L 256.624876 -219.902305 
L 257.057484 -220.99682 
L 261.726016 -220.99682 
L 261.726016 -220.99682 
L 262.158624 -219.902305 
L 262.648171 -218.807791 
L 263.197211 -217.713277 
L 263.807393 -216.618762 
L 264.479263 -215.524248 
L 265.21209 -214.429733 
L 266.003703 -213.335219 
L 266.850376 -212.240705 
L 267.746749 -211.14619 
L 268.685814 -210.051676 
L 269.658961 -208.957161 
L 270.656097 -207.862647 
L 271.665844 -206.768133 
L 272.675809 -205.673618 
L 273.672921 -204.579104 
L 274.643834 -203.484589 
L 275.575378 -202.390075 
L 276.45504 -201.295561 
L 277.271455 -200.201046 
L 278.014891 -199.106532 
L 278.677691 -198.012018 
L 279.254666 -196.917503 
L 279.743402 -195.822989 
L 280.144461 -194.728474 
L 280.461481 -193.63396 
L 280.701132 -192.539446 
L 280.872953 -191.444931 
L 280.989048 -190.350417 
L 281.063671 -189.255902 
L 281.112697 -188.161388 
L 281.152999 -187.066874 
L 281.20178 -185.972359 
L 281.275849 -184.877845 
L 281.390913 -183.78333 
L 281.560883 -182.688816 
L 281.797252 -181.594302 
L 282.108554 -180.499787 
L 282.499935 -179.405273 
L 282.972866 -178.310758 
L 283.524997 -177.216244 
L 284.150167 -176.12173 
L 284.83857 -175.027215 
L 285.577072 -173.932701 
L 286.349664 -172.838186 
L 287.138024 -171.743672 
L 287.922183 -170.649158 
L 288.68124 -169.554643 
L 289.394121 -168.460129 
L 290.040331 -167.365614 
L 290.600672 -166.2711 
L 291.057905 -165.176586 
L 291.397314 -164.082071 
L 291.607163 -162.987557 
L 291.679028 -161.893042 
L 291.607984 -160.798528 
L 291.392654 -159.704014 
L 291.03512 -158.609499 
L 290.540707 -157.514985 
L 289.91765 -156.42047 
L 289.176667 -155.325956 
L 288.330476 -154.231442 
L 287.393248 -153.136927 
L 286.380065 -152.042413 
L 285.306371 -150.947898 
L 284.187467 -149.853384 
L 283.038054 -148.75887 
L 281.871849 -147.664355 
L 280.701283 -146.569841 
L 279.537284 -145.475326 
L 278.389152 -144.380812 
L 277.264515 -143.286298 
L 276.169372 -142.191783 
L 275.108189 -141.097269 
L 274.084057 -140.002754 
L 273.098881 -138.90824 
L 272.153599 -137.813726 
L 271.248396 -136.719211 
L 270.38292 -135.624697 
L 269.556477 -134.530182 
L 268.768201 -133.435668 
L 268.017186 -132.341154 
L 267.302589 -131.246639 
L 266.623693 -130.152125 
L 265.979941 -129.05761 
L 265.370933 -127.963096 
L 264.796404 -126.868582 
L 264.256186 -125.774067 
L 263.750152 -124.679553 
L 263.278162 -123.585038 
L 262.840003 -122.490524 
L 262.435343 -121.39601 
L 262.063685 -120.301495 
L 261.724342 -119.206981 
L 261.416414 -118.112466 
L 261.138791 -117.017952 
L 260.890155 -115.923438 
L 260.669006 -114.828923 
L 260.473683 -113.734409 
L 260.302404 -112.639894 
z
" style="stroke: #3f3f3f; stroke-width: 1.25"/>
    </defs>
    <g clip-path="url(#pf987f02a40)">
     <use xlink:href="#mfa44ee6fd5" x="0" y="360" style="fill: #3274a1; stroke: #3f3f3f; stroke-width: 1.25"/>
    </g>
   </g>
   <g id="PolyCollection_4">
    <defs>
     <path id="m9ab1002178" d="M 326.266772 -113.228313 
L 323.487713 -113.228313 
L 323.209656 -114.354168 
L 322.88891 -115.480024 
L 322.521719 -116.60588 
L 322.104545 -117.731736 
L 321.634185 -118.857592 
L 321.1079 -119.983447 
L 320.523539 -121.109303 
L 319.879661 -122.235159 
L 319.175651 -123.361015 
L 318.411815 -124.48687 
L 317.589458 -125.612726 
L 316.710936 -126.738582 
L 315.77967 -127.864438 
L 314.800133 -128.990294 
L 313.777797 -130.116149 
L 312.719038 -131.242005 
L 311.631014 -132.367861 
L 310.5215 -133.493717 
L 309.39871 -134.619573 
L 308.271079 -135.745428 
L 307.147057 -136.871284 
L 306.034884 -137.99714 
L 304.942379 -139.122996 
L 303.876755 -140.248852 
L 302.844448 -141.374707 
L 301.850996 -142.500563 
L 300.900955 -143.626419 
L 299.997856 -144.752275 
L 299.144223 -145.878131 
L 298.341624 -147.003986 
L 297.590772 -148.129842 
L 296.891659 -149.255698 
L 296.243713 -150.381554 
L 295.645979 -151.507409 
L 295.097293 -152.633265 
L 294.596458 -153.759121 
L 294.142395 -154.884977 
L 293.734269 -156.010833 
L 293.371576 -157.136688 
L 293.054192 -158.262544 
L 292.782375 -159.3884 
L 292.556725 -160.514256 
L 292.378105 -161.640112 
L 292.24753 -162.765967 
L 292.166029 -163.891823 
L 292.134496 -165.017679 
L 292.15354 -166.143535 
L 292.223341 -167.269391 
L 292.343532 -168.395246 
L 292.513109 -169.521102 
L 292.730377 -170.646958 
L 292.992953 -171.772814 
L 293.297795 -172.89867 
L 293.641299 -174.024525 
L 294.019423 -175.150381 
L 294.427853 -176.276237 
L 294.862194 -177.402093 
L 295.318174 -178.527949 
L 295.791854 -179.653804 
L 296.279824 -180.77966 
L 296.779377 -181.905516 
L 297.288645 -183.031372 
L 297.806692 -184.157227 
L 298.333553 -185.283083 
L 298.870219 -186.408939 
L 299.418558 -187.534795 
L 299.98119 -188.660651 
L 300.561305 -189.786506 
L 301.162446 -190.912362 
L 301.788265 -192.038218 
L 302.442264 -193.164074 
L 303.127532 -194.28993 
L 303.846506 -195.415785 
L 304.600757 -196.541641 
L 305.390812 -197.667497 
L 306.216037 -198.793353 
L 307.074566 -199.919209 
L 307.963303 -201.045064 
L 308.877973 -202.17092 
L 309.813233 -203.296776 
L 310.762838 -204.422632 
L 311.719834 -205.548488 
L 312.676796 -206.674343 
L 313.626065 -207.800199 
L 314.560005 -208.926055 
L 315.471235 -210.051911 
L 316.352856 -211.177766 
L 317.198638 -212.303622 
L 318.003177 -213.429478 
L 318.762008 -214.555334 
L 319.471677 -215.68119 
L 320.129774 -216.807045 
L 320.734916 -217.932901 
L 321.286704 -219.058757 
L 321.785649 -220.184613 
L 322.233068 -221.310469 
L 322.63097 -222.436324 
L 322.981926 -223.56218 
L 323.288947 -224.688036 
L 326.465538 -224.688036 
L 326.465538 -224.688036 
L 326.772558 -223.56218 
L 327.123515 -222.436324 
L 327.521417 -221.310469 
L 327.968836 -220.184613 
L 328.467781 -219.058757 
L 329.019569 -217.932901 
L 329.624711 -216.807045 
L 330.282807 -215.68119 
L 330.992477 -214.555334 
L 331.751308 -213.429478 
L 332.555847 -212.303622 
L 333.401629 -211.177766 
L 334.28325 -210.051911 
L 335.19448 -208.926055 
L 336.12842 -207.800199 
L 337.077689 -206.674343 
L 338.034651 -205.548488 
L 338.991647 -204.422632 
L 339.941252 -203.296776 
L 340.876512 -202.17092 
L 341.791182 -201.045064 
L 342.679919 -199.919209 
L 343.538448 -198.793353 
L 344.363672 -197.667497 
L 345.153728 -196.541641 
L 345.907978 -195.415785 
L 346.626953 -194.28993 
L 347.312221 -193.164074 
L 347.96622 -192.038218 
L 348.592039 -190.912362 
L 349.19318 -189.786506 
L 349.773295 -188.660651 
L 350.335927 -187.534795 
L 350.884266 -186.408939 
L 351.420932 -185.283083 
L 351.947793 -184.157227 
L 352.46584 -183.031372 
L 352.975108 -181.905516 
L 353.474661 -180.77966 
L 353.962631 -179.653804 
L 354.436311 -178.527949 
L 354.892291 -177.402093 
L 355.326632 -176.276237 
L 355.735062 -175.150381 
L 356.113186 -174.024525 
L 356.45669 -172.89867 
L 356.761532 -171.772814 
L 357.024107 -170.646958 
L 357.241376 -169.521102 
L 357.410953 -168.395246 
L 357.531144 -167.269391 
L 357.600945 -166.143535 
L 357.619989 -165.017679 
L 357.588456 -163.891823 
L 357.506955 -162.765967 
L 357.37638 -161.640112 
L 357.19776 -160.514256 
L 356.97211 -159.3884 
L 356.700293 -158.262544 
L 356.382909 -157.136688 
L 356.020216 -156.010833 
L 355.61209 -154.884977 
L 355.158027 -153.759121 
L 354.657192 -152.633265 
L 354.108506 -151.507409 
L 353.510772 -150.381554 
L 352.862826 -149.255698 
L 352.163713 -148.129842 
L 351.412861 -147.003986 
L 350.610262 -145.878131 
L 349.756629 -144.752275 
L 348.85353 -143.626419 
L 347.903489 -142.500563 
L 346.910037 -141.374707 
L 345.87773 -140.248852 
L 344.812106 -139.122996 
L 343.719601 -137.99714 
L 342.607428 -136.871284 
L 341.483406 -135.745428 
L 340.355775 -134.619573 
L 339.232984 -133.493717 
L 338.123471 -132.367861 
L 337.035447 -131.242005 
L 335.976688 -130.116149 
L 334.954352 -128.990294 
L 333.974815 -127.864438 
L 333.043549 -126.738582 
L 332.165027 -125.612726 
L 331.34267 -124.48687 
L 330.578834 -123.361015 
L 329.874824 -122.235159 
L 329.230946 -121.109303 
L 328.646585 -119.983447 
L 328.1203 -118.857592 
L 327.64994 -117.731736 
L 327.232766 -116.60588 
L 326.865575 -115.480024 
L 326.544829 -114.354168 
L 326.266772 -113.228313 
z
" style="stroke: #3f3f3f; stroke-width: 1.25"/>
    </defs>
    <g clip-path="url(#pf987f02a40)">
     <use xlink:href="#m9ab1002178" x="0" y="360" style="fill: #e1812c; stroke: #3f3f3f; stroke-width: 1.25"/>
    </g>
   </g>
   <g id="line2d_10">
    <path d="M 95.678019 216.080925 
L 95.678019 203.758784 
" clip-path="url(#pf987f02a40)" style="fill: none; stroke: #3f3f3f; stroke-width: 1.875; stroke-linecap: round"/>
   </g>
   <g id="line2d_11">
    <path d="M 95.678019 214.699982 
L 95.678019 204.43361 
" clip-path="url(#pf987f02a40)" style="fill: none; stroke: #3f3f3f; stroke-width: 5.625; stroke-linecap: round"/>
   </g>
   <g id="line2d_12">
    <path d="M 95.678019 208.50762 
" clip-path="url(#pf987f02a40)" style="fill: none; stroke: #3f3f3f; stroke-width: 1.5; stroke-linecap: round"/>
    <defs>
     <path id="mbc43331176" d="M 2.34375 0 
L -2.34375 -0 
" style="stroke: #ffffff; stroke-width: 1.125"/>
    </defs>
    <g clip-path="url(#pf987f02a40)">
     <use xlink:href="#mbc43331176" x="95.678019" y="208.50762" style="fill: #ffffff; stroke: #ffffff; stroke-width: 1.125"/>
    </g>
   </g>
   <g id="line2d_13">
    <path d="M 161.163512 235.46221 
L 161.163512 186.178396 
" clip-path="url(#pf987f02a40)" style="fill: none; stroke: #3f3f3f; stroke-width: 1.875; stroke-linecap: round"/>
   </g>
   <g id="line2d_14">
    <path d="M 161.163512 214.243803 
L 161.163512 188.133506 
" clip-path="url(#pf987f02a40)" style="fill: none; stroke: #3f3f3f; stroke-width: 5.625; stroke-linecap: round"/>
   </g>
   <g id="line2d_15">
    <path d="M 161.163512 202.194381 
" clip-path="url(#pf987f02a40)" style="fill: none; stroke: #3f3f3f; stroke-width: 1.5; stroke-linecap: round"/>
    <g clip-path="url(#pf987f02a40)">
     <use xlink:href="#mbc43331176" x="161.163512" y="202.194381" style="fill: #ffffff; stroke: #ffffff; stroke-width: 1.125"/>
    </g>
   </g>
   <g id="line2d_16">
    <path d="M 259.39175 221.533906 
L 259.39175 164.829379 
" clip-path="url(#pf987f02a40)" style="fill: none; stroke: #3f3f3f; stroke-width: 1.875; stroke-linecap: round"/>
   </g>
   <g id="line2d_17">
    <path d="M 259.39175 198.76506 
L 259.39175 166.939318 
" clip-path="url(#pf987f02a40)" style="fill: none; stroke: #3f3f3f; stroke-width: 5.625; stroke-linecap: round"/>
   </g>
   <g id="line2d_18">
    <path d="M 259.39175 196.847439 
" clip-path="url(#pf987f02a40)" style="fill: none; stroke: #3f3f3f; stroke-width: 1.5; stroke-linecap: round"/>
    <g clip-path="url(#pf987f02a40)">
     <use xlink:href="#mbc43331176" x="259.39175" y="196.847439" style="fill: #ffffff; stroke: #ffffff; stroke-width: 1.125"/>
    </g>
   </g>
   <g id="line2d_19">
    <path d="M 324.877242 220.302742 
L 324.877242 161.780909 
" clip-path="url(#pf987f02a40)" style="fill: none; stroke: #3f3f3f; stroke-width: 1.875; stroke-linecap: round"/>
   </g>
   <g id="line2d_20">
    <path d="M 324.877242 207.301233 
L 324.877242 179.210271 
" clip-path="url(#pf987f02a40)" style="fill: none; stroke: #3f3f3f; stroke-width: 5.625; stroke-linecap: round"/>
   </g>
   <g id="line2d_21">
    <path d="M 324.877242 194.563971 
" clip-path="url(#pf987f02a40)" style="fill: none; stroke: #3f3f3f; stroke-width: 1.5; stroke-linecap: round"/>
    <g clip-path="url(#pf987f02a40)">
     <use xlink:href="#mbc43331176" x="324.877242" y="194.563971" style="fill: #ffffff; stroke: #ffffff; stroke-width: 1.125"/>
    </g>
   </g>
   <g id="patch_3">
    <path d="M 46.5639 318.04 
L 46.5639 24.72 
" style="fill: none; stroke: #cccccc; stroke-width: 0.8; stroke-linejoin: miter; stroke-linecap: square"/>
   </g>
   <g id="patch_4">
    <path d="M 46.5639 318.04 
L 373.991362 318.04 
" style="fill: none; stroke: #cccccc; stroke-width: 0.8; stroke-linejoin: miter; stroke-linecap: square"/>
   </g>
   <g id="text_14">
    <!-- sex = f -->
    <g style="fill: #262626" transform="translate(195.409662 18.72) scale(0.1 -0.1)">
     <defs>
      <path id="ArialMT-78" d="M 47 0 
L 1259 1725 
L 138 3319 
L 841 3319 
L 1350 2541 
Q 1494 2319 1581 2169 
Q 1719 2375 1834 2534 
L 2394 3319 
L 3066 3319 
L 1919 1756 
L 3153 0 
L 2463 0 
L 1781 1031 
L 1600 1309 
L 728 0 
L 47 0 
z
" transform="scale(0.015625)"/>
      <path id="ArialMT-3d" d="M 3381 2694 
L 356 2694 
L 356 3219 
L 3381 3219 
L 3381 2694 
z
M 3381 1303 
L 356 1303 
L 356 1828 
L 3381 1828 
L 3381 1303 
z
" transform="scale(0.015625)"/>
      <path id="ArialMT-66" d="M 556 0 
L 556 2881 
L 59 2881 
L 59 3319 
L 556 3319 
L 556 3672 
Q 556 4006 616 4169 
Q 697 4388 901 4523 
Q 1106 4659 1475 4659 
Q 1713 4659 2000 4603 
L 1916 4113 
Q 1741 4144 1584 4144 
Q 1328 4144 1222 4034 
Q 1116 3925 1116 3625 
L 1116 3319 
L 1763 3319 
L 1763 2881 
L 1116 2881 
L 1116 0 
L 556 0 
z
" transform="scale(0.015625)"/>
     </defs>
     <use xlink:href="#ArialMT-73"/>
     <use xlink:href="#ArialMT-65" x="50"/>
     <use xlink:href="#ArialMT-78" x="105.615234"/>
     <use xlink:href="#ArialMT-20" x="155.615234"/>
     <use xlink:href="#ArialMT-3d" x="183.398438"/>
     <use xlink:href="#ArialMT-20" x="241.796875"/>
     <use xlink:href="#ArialMT-66" x="269.580078"/>
    </g>
   </g>
  </g>
  <g id="axes_2">
   <g id="patch_5">
    <path d="M 384.783038 318.04 
L 712.2105 318.04 
L 712.2105 24.72 
L 384.783038 24.72 
z
" style="fill: #ffffff"/>
   </g>
   <g id="matplotlib.axis_3">
    <g id="xtick_3">
     <g id="text_15">
      <!-- Baia -->
      <g style="fill: #262626" transform="translate(456.632872 332.197812) scale(0.1 -0.1)">
       <use xlink:href="#ArialMT-42"/>
       <use xlink:href="#ArialMT-61" x="66.699219"/>
       <use xlink:href="#ArialMT-69" x="122.314453"/>
       <use xlink:href="#ArialMT-61" x="144.53125"/>
      </g>
     </g>
    </g>
    <g id="xtick_4">
     <g id="text_16">
      <!-- Jurilovca -->
      <g style="fill: #262626" transform="translate(610.62551 332.197812) scale(0.1 -0.1)">
       <use xlink:href="#ArialMT-4a"/>
       <use xlink:href="#ArialMT-75" x="50"/>
       <use xlink:href="#ArialMT-72" x="105.615234"/>
       <use xlink:href="#ArialMT-69" x="138.916016"/>
       <use xlink:href="#ArialMT-6c" x="161.132812"/>
       <use xlink:href="#ArialMT-6f" x="183.349609"/>
       <use xlink:href="#ArialMT-76" x="238.964844"/>
       <use xlink:href="#ArialMT-63" x="288.964844"/>
       <use xlink:href="#ArialMT-61" x="338.964844"/>
      </g>
     </g>
    </g>
    <g id="text_17">
     <!-- Location -->
     <g style="fill: #262626" transform="translate(529.594425 345.343125) scale(0.1 -0.1)">
      <use xlink:href="#ArialMT-4c"/>
      <use xlink:href="#ArialMT-6f" x="55.615234"/>
      <use xlink:href="#ArialMT-63" x="111.230469"/>
      <use xlink:href="#ArialMT-61" x="161.230469"/>
      <use xlink:href="#ArialMT-74" x="216.845703"/>
      <use xlink:href="#ArialMT-69" x="244.628906"/>
      <use xlink:href="#ArialMT-6f" x="266.845703"/>
      <use xlink:href="#ArialMT-6e" x="322.460938"/>
     </g>
    </g>
   </g>
   <g id="matplotlib.axis_4">
    <g id="ytick_10">
     <g id="line2d_22">
      <path d="M 384.783038 311.918561 
L 712.2105 311.918561 
" clip-path="url(#p9818b5c2f6)" style="fill: none; stroke: #cccccc; stroke-width: 0.8; stroke-linecap: round"/>
     </g>
    </g>
    <g id="ytick_11">
     <g id="line2d_23">
      <path d="M 384.783038 278.407744 
L 712.2105 278.407744 
" clip-path="url(#p9818b5c2f6)" style="fill: none; stroke: #cccccc; stroke-width: 0.8; stroke-linecap: round"/>
     </g>
    </g>
    <g id="ytick_12">
     <g id="line2d_24">
      <path d="M 384.783038 244.896926 
L 712.2105 244.896926 
" clip-path="url(#p9818b5c2f6)" style="fill: none; stroke: #cccccc; stroke-width: 0.8; stroke-linecap: round"/>
     </g>
    </g>
    <g id="ytick_13">
     <g id="line2d_25">
      <path d="M 384.783038 211.386108 
L 712.2105 211.386108 
" clip-path="url(#p9818b5c2f6)" style="fill: none; stroke: #cccccc; stroke-width: 0.8; stroke-linecap: round"/>
     </g>
    </g>
    <g id="ytick_14">
     <g id="line2d_26">
      <path d="M 384.783038 177.875291 
L 712.2105 177.875291 
" clip-path="url(#p9818b5c2f6)" style="fill: none; stroke: #cccccc; stroke-width: 0.8; stroke-linecap: round"/>
     </g>
    </g>
    <g id="ytick_15">
     <g id="line2d_27">
      <path d="M 384.783038 144.364473 
L 712.2105 144.364473 
" clip-path="url(#p9818b5c2f6)" style="fill: none; stroke: #cccccc; stroke-width: 0.8; stroke-linecap: round"/>
     </g>
    </g>
    <g id="ytick_16">
     <g id="line2d_28">
      <path d="M 384.783038 110.853655 
L 712.2105 110.853655 
" clip-path="url(#p9818b5c2f6)" style="fill: none; stroke: #cccccc; stroke-width: 0.8; stroke-linecap: round"/>
     </g>
    </g>
    <g id="ytick_17">
     <g id="line2d_29">
      <path d="M 384.783038 77.342838 
L 712.2105 77.342838 
" clip-path="url(#p9818b5c2f6)" style="fill: none; stroke: #cccccc; stroke-width: 0.8; stroke-linecap: round"/>
     </g>
    </g>
    <g id="ytick_18">
     <g id="line2d_30">
      <path d="M 384.783038 43.83202 
L 712.2105 43.83202 
" clip-path="url(#p9818b5c2f6)" style="fill: none; stroke: #cccccc; stroke-width: 0.8; stroke-linecap: round"/>
     </g>
    </g>
   </g>
   <g id="PolyCollection_5">
    <defs>
     <path id="mb8bf9b329d" d="M 435.119996 -124.898142 
L 432.674319 -124.898142 
L 432.321222 -126.888538 
L 431.889025 -128.878933 
L 431.36687 -130.869328 
L 430.744235 -132.859724 
L 430.011465 -134.850119 
L 429.160358 -136.840514 
L 428.184784 -138.830909 
L 427.081294 -140.821305 
L 425.849678 -142.8117 
L 424.493429 -144.802095 
L 423.02008 -146.79249 
L 421.44136 -148.782886 
L 419.773164 -150.773281 
L 418.035321 -152.763676 
L 416.251158 -154.754071 
L 414.446888 -156.744467 
L 412.650849 -158.734862 
L 410.892654 -160.725257 
L 409.202285 -162.715652 
L 407.609192 -164.706048 
L 406.14145 -166.696443 
L 404.825 -168.686838 
L 403.683017 -170.677233 
L 402.735402 -172.667629 
L 401.998409 -174.658024 
L 401.484395 -176.648419 
L 401.201665 -178.638814 
L 401.154411 -180.62921 
L 401.342709 -182.619605 
L 401.762563 -184.61 
L 402.406004 -186.600395 
L 403.261228 -188.590791 
L 404.312796 -190.581186 
L 405.541906 -192.571581 
L 406.926743 -194.561976 
L 408.442936 -196.552372 
L 410.064107 -198.542767 
L 411.762518 -200.533162 
L 413.509798 -202.523557 
L 415.277716 -204.513953 
L 417.03897 -206.504348 
L 418.767952 -208.494743 
L 420.441437 -210.485138 
L 422.039173 -212.475534 
L 423.544319 -214.465929 
L 424.943727 -216.456324 
L 426.228047 -218.446719 
L 427.391663 -220.437115 
L 428.432471 -222.42751 
L 429.351519 -224.417905 
L 430.152553 -226.4083 
L 430.841489 -228.398696 
L 431.425862 -230.389091 
L 431.914262 -232.379486 
L 432.315824 -234.369882 
L 432.639754 -236.360277 
L 432.894944 -238.350672 
L 433.089661 -240.341067 
L 433.231336 -242.331463 
L 433.326432 -244.321858 
L 433.38041 -246.312253 
L 433.397756 -248.302648 
L 433.38209 -250.293044 
L 433.336319 -252.283439 
L 433.262832 -254.273834 
L 433.163724 -256.264229 
L 433.041025 -258.254625 
L 432.89692 -260.24502 
L 432.733952 -262.235415 
L 432.555176 -264.22581 
L 432.364268 -266.216206 
L 432.165569 -268.206601 
L 431.964048 -270.196996 
L 431.765205 -272.187391 
L 431.574898 -274.177787 
L 431.399114 -276.168182 
L 431.243692 -278.158577 
L 431.114035 -280.148972 
L 431.014813 -282.139368 
L 430.949696 -284.129763 
L 430.921141 -286.120158 
L 430.930239 -288.110553 
L 430.976654 -290.100949 
L 431.058645 -292.091344 
L 431.173173 -294.081739 
L 431.316093 -296.072134 
L 431.4824 -298.06253 
L 431.666523 -300.052925 
L 431.86263 -302.04332 
L 432.064933 -304.033715 
L 432.267958 -306.024111 
L 432.466783 -308.014506 
L 432.657203 -310.004901 
L 432.835849 -311.995296 
L 433.000229 -313.985692 
L 433.148723 -315.976087 
L 433.28052 -317.966482 
L 433.395524 -319.956877 
L 433.494233 -321.947273 
L 434.300082 -321.947273 
L 434.300082 -321.947273 
L 434.398791 -319.956877 
L 434.513795 -317.966482 
L 434.645592 -315.976087 
L 434.794086 -313.985692 
L 434.958466 -311.995296 
L 435.137112 -310.004901 
L 435.327532 -308.014506 
L 435.526357 -306.024111 
L 435.729383 -304.033715 
L 435.931685 -302.04332 
L 436.127792 -300.052925 
L 436.311915 -298.06253 
L 436.478222 -296.072134 
L 436.621142 -294.081739 
L 436.73567 -292.091344 
L 436.817661 -290.100949 
L 436.864076 -288.110553 
L 436.873175 -286.120158 
L 436.844619 -284.129763 
L 436.779502 -282.139368 
L 436.68028 -280.148972 
L 436.550623 -278.158577 
L 436.395202 -276.168182 
L 436.219417 -274.177787 
L 436.02911 -272.187391 
L 435.830267 -270.196996 
L 435.628746 -268.206601 
L 435.430047 -266.216206 
L 435.23914 -264.22581 
L 435.060363 -262.235415 
L 434.897395 -260.24502 
L 434.75329 -258.254625 
L 434.630591 -256.264229 
L 434.531483 -254.273834 
L 434.457997 -252.283439 
L 434.412225 -250.293044 
L 434.396559 -248.302648 
L 434.413905 -246.312253 
L 434.467883 -244.321858 
L 434.56298 -242.331463 
L 434.704654 -240.341067 
L 434.899371 -238.350672 
L 435.154561 -236.360277 
L 435.478491 -234.369882 
L 435.880053 -232.379486 
L 436.368453 -230.389091 
L 436.952826 -228.398696 
L 437.641763 -226.4083 
L 438.442796 -224.417905 
L 439.361844 -222.42751 
L 440.402652 -220.437115 
L 441.566268 -218.446719 
L 442.850589 -216.456324 
L 444.249996 -214.465929 
L 445.755142 -212.475534 
L 447.352878 -210.485138 
L 449.026363 -208.494743 
L 450.755345 -206.504348 
L 452.516599 -204.513953 
L 454.284517 -202.523557 
L 456.031797 -200.533162 
L 457.730208 -198.542767 
L 459.351379 -196.552372 
L 460.867572 -194.561976 
L 462.252409 -192.571581 
L 463.481519 -190.581186 
L 464.533087 -188.590791 
L 465.388311 -186.600395 
L 466.031752 -184.61 
L 466.451606 -182.619605 
L 466.639904 -180.62921 
L 466.59265 -178.638814 
L 466.30992 -176.648419 
L 465.795906 -174.658024 
L 465.058913 -172.667629 
L 464.111298 -170.677233 
L 462.969315 -168.686838 
L 461.652865 -166.696443 
L 460.185123 -164.706048 
L 458.59203 -162.715652 
L 456.901661 -160.725257 
L 455.143466 -158.734862 
L 453.347427 -156.744467 
L 451.543157 -154.754071 
L 449.758994 -152.763676 
L 448.021152 -150.773281 
L 446.352956 -148.782886 
L 444.774235 -146.79249 
L 443.300886 -144.802095 
L 441.944638 -142.8117 
L 440.713021 -140.821305 
L 439.609531 -138.830909 
L 438.633957 -136.840514 
L 437.78285 -134.850119 
L 437.05008 -132.859724 
L 436.427445 -130.869328 
L 435.90529 -128.878933 
L 435.473093 -126.888538 
L 435.119996 -124.898142 
z
" style="stroke: #3f3f3f; stroke-width: 1.25"/>
    </defs>
    <g clip-path="url(#p9818b5c2f6)">
     <use xlink:href="#mb8bf9b329d" x="0" y="360" style="fill: #3274a1; stroke: #3f3f3f; stroke-width: 1.25"/>
    </g>
   </g>
   <g id="PolyCollection_6">
    <defs>
     <path id="md50fb80800" d="M 499.884312 -83.075951 
L 498.880988 -83.075951 
L 498.758529 -84.791389 
L 498.615732 -86.506828 
L 498.451823 -88.222266 
L 498.266681 -89.937705 
L 498.060962 -91.653143 
L 497.836201 -93.368582 
L 497.594849 -95.08402 
L 497.340261 -96.799459 
L 497.076606 -98.514898 
L 496.808703 -100.230336 
L 496.541778 -101.945775 
L 496.281163 -103.661213 
L 496.031934 -105.376652 
L 495.798539 -107.09209 
L 495.584413 -108.807529 
L 495.391645 -110.522967 
L 495.220694 -112.238406 
L 495.070209 -113.953844 
L 494.936957 -115.669283 
L 494.815876 -117.384722 
L 494.700252 -119.10016 
L 494.582011 -120.815599 
L 494.452098 -122.531037 
L 494.300928 -124.246476 
L 494.11886 -125.961914 
L 493.896668 -127.677353 
L 493.625971 -129.392791 
L 493.2996 -131.10823 
L 492.911868 -132.823668 
L 492.458753 -134.539107 
L 491.937968 -136.254546 
L 491.348941 -137.969984 
L 490.692714 -139.685423 
L 489.971776 -141.400861 
L 489.189842 -143.1163 
L 488.351618 -144.831738 
L 487.46254 -146.547177 
L 486.528525 -148.262615 
L 485.555728 -149.978054 
L 484.550325 -151.693492 
L 483.518327 -153.408931 
L 482.465432 -155.12437 
L 481.39693 -156.839808 
L 480.317662 -158.555247 
L 479.232064 -160.270685 
L 478.144284 -161.986124 
L 477.05839 -163.701562 
L 475.978664 -165.417001 
L 474.90997 -167.132439 
L 473.85817 -168.847878 
L 472.830557 -170.563317 
L 471.836249 -172.278755 
L 470.886497 -173.994194 
L 469.994854 -175.709632 
L 469.177137 -177.425071 
L 468.451163 -179.140509 
L 467.836228 -180.855948 
L 467.352334 -182.571386 
L 467.0192 -184.286825 
L 466.855112 -186.002263 
L 466.875702 -187.717702 
L 467.092746 -189.433141 
L 467.513103 -191.148579 
L 468.137886 -192.864018 
L 468.961962 -194.579456 
L 469.973832 -196.294895 
L 471.155939 -198.010333 
L 472.48537 -199.725772 
L 473.934923 -201.44121 
L 475.474447 -203.156649 
L 477.07235 -204.872087 
L 478.697158 -206.587526 
L 480.318996 -208.302965 
L 481.910883 -210.018403 
L 483.449748 -211.733842 
L 484.917114 -213.44928 
L 486.299413 -215.164719 
L 487.587955 -216.880157 
L 488.778579 -218.595596 
L 489.871052 -220.311034 
L 490.868311 -222.026473 
L 491.775605 -223.741911 
L 492.599655 -225.45735 
L 493.347864 -227.172789 
L 494.027668 -228.888227 
L 494.646037 -230.603666 
L 495.20914 -232.319104 
L 495.722184 -234.034543 
L 496.189392 -235.749981 
L 496.614091 -237.46542 
L 496.998876 -239.180858 
L 497.345816 -240.896297 
L 497.656663 -242.611736 
L 497.933042 -244.327174 
L 498.176608 -246.042613 
L 498.389145 -247.758051 
L 498.57263 -249.47349 
L 498.729237 -251.188928 
L 498.861317 -252.904367 
L 499.903983 -252.904367 
L 499.903983 -252.904367 
L 500.036063 -251.188928 
L 500.19267 -249.47349 
L 500.376155 -247.758051 
L 500.588692 -246.042613 
L 500.832257 -244.327174 
L 501.108637 -242.611736 
L 501.419484 -240.896297 
L 501.766424 -239.180858 
L 502.151209 -237.46542 
L 502.575908 -235.749981 
L 503.043116 -234.034543 
L 503.55616 -232.319104 
L 504.119263 -230.603666 
L 504.737631 -228.888227 
L 505.417436 -227.172789 
L 506.165645 -225.45735 
L 506.989694 -223.741911 
L 507.896989 -222.026473 
L 508.894247 -220.311034 
L 509.986721 -218.595596 
L 511.177344 -216.880157 
L 512.465887 -215.164719 
L 513.848186 -213.44928 
L 515.315552 -211.733842 
L 516.854417 -210.018403 
L 518.446303 -208.302965 
L 520.068142 -206.587526 
L 521.69295 -204.872087 
L 523.290853 -203.156649 
L 524.830377 -201.44121 
L 526.27993 -199.725772 
L 527.609361 -198.010333 
L 528.791468 -196.294895 
L 529.803338 -194.579456 
L 530.627414 -192.864018 
L 531.252197 -191.148579 
L 531.672554 -189.433141 
L 531.889598 -187.717702 
L 531.910187 -186.002263 
L 531.7461 -184.286825 
L 531.412966 -182.571386 
L 530.929072 -180.855948 
L 530.314137 -179.140509 
L 529.588163 -177.425071 
L 528.770446 -175.709632 
L 527.878802 -173.994194 
L 526.929051 -172.278755 
L 525.934743 -170.563317 
L 524.907129 -168.847878 
L 523.85533 -167.132439 
L 522.786635 -165.417001 
L 521.706909 -163.701562 
L 520.621016 -161.986124 
L 519.533236 -160.270685 
L 518.447638 -158.555247 
L 517.36837 -156.839808 
L 516.299867 -155.12437 
L 515.246973 -153.408931 
L 514.214975 -151.693492 
L 513.209572 -149.978054 
L 512.236775 -148.262615 
L 511.30276 -146.547177 
L 510.413682 -144.831738 
L 509.575458 -143.1163 
L 508.793524 -141.400861 
L 508.072585 -139.685423 
L 507.416359 -137.969984 
L 506.827332 -136.254546 
L 506.306547 -134.539107 
L 505.853432 -132.823668 
L 505.4657 -131.10823 
L 505.139329 -129.392791 
L 504.868632 -127.677353 
L 504.646439 -125.961914 
L 504.464371 -124.246476 
L 504.313201 -122.531037 
L 504.183289 -120.815599 
L 504.065047 -119.10016 
L 503.949424 -117.384722 
L 503.828343 -115.669283 
L 503.695091 -113.953844 
L 503.544606 -112.238406 
L 503.373654 -110.522967 
L 503.180886 -108.807529 
L 502.966761 -107.09209 
L 502.733366 -105.376652 
L 502.484137 -103.661213 
L 502.223522 -101.945775 
L 501.956597 -100.230336 
L 501.688694 -98.514898 
L 501.425039 -96.799459 
L 501.170451 -95.08402 
L 500.929099 -93.368582 
L 500.704338 -91.653143 
L 500.498619 -89.937705 
L 500.313476 -88.222266 
L 500.149568 -86.506828 
L 500.006771 -84.791389 
L 499.884312 -83.075951 
z
" style="stroke: #3f3f3f; stroke-width: 1.25"/>
    </defs>
    <g clip-path="url(#p9818b5c2f6)">
     <use xlink:href="#md50fb80800" x="0" y="360" style="fill: #e1812c; stroke: #3f3f3f; stroke-width: 1.25"/>
    </g>
   </g>
   <g id="PolyCollection_7">
    <defs>
     <path id="mcd525089e2" d="M 598.19948 -55.292727 
L 597.022297 -55.292727 
L 596.892092 -57.753465 
L 596.739506 -60.214203 
L 596.562179 -62.674941 
L 596.357808 -65.135679 
L 596.124213 -67.596417 
L 595.859412 -70.057154 
L 595.561698 -72.517892 
L 595.229715 -74.97863 
L 594.862533 -77.439368 
L 594.45972 -79.900106 
L 594.021395 -82.360844 
L 593.54828 -84.821582 
L 593.041733 -87.282319 
L 592.503756 -89.743057 
L 591.936996 -92.203795 
L 591.344718 -94.664533 
L 590.730755 -97.125271 
L 590.099451 -99.586009 
L 589.455567 -102.046747 
L 588.804191 -104.507484 
L 588.150621 -106.968222 
L 587.50025 -109.42896 
L 586.858439 -111.889698 
L 586.230399 -114.350436 
L 585.621072 -116.811174 
L 585.035026 -119.271912 
L 584.476366 -121.73265 
L 583.948665 -124.193387 
L 583.454915 -126.654125 
L 582.997506 -129.114863 
L 582.578233 -131.575601 
L 582.198327 -134.036339 
L 581.858516 -136.497077 
L 581.559103 -138.957815 
L 581.300068 -141.418552 
L 581.08118 -143.87929 
L 580.902115 -146.340028 
L 580.76257 -148.800766 
L 580.662366 -151.261504 
L 580.601534 -153.722242 
L 580.580371 -156.18298 
L 580.599463 -158.643717 
L 580.659672 -161.104455 
L 580.762077 -163.565193 
L 580.907888 -166.025931 
L 581.09831 -168.486669 
L 581.334393 -170.947407 
L 581.616853 -173.408145 
L 581.945894 -175.868882 
L 582.321035 -178.32962 
L 582.740955 -180.790358 
L 583.203376 -183.251096 
L 583.704986 -185.711834 
L 584.24142 -188.172572 
L 584.807302 -190.63331 
L 585.396342 -193.094048 
L 586.001496 -195.554785 
L 586.615176 -198.015523 
L 587.229502 -200.476261 
L 587.836581 -202.936999 
L 588.428799 -205.397737 
L 588.999102 -207.858475 
L 589.541269 -210.319213 
L 590.050134 -212.77995 
L 590.521768 -215.240688 
L 590.953596 -217.701426 
L 591.344455 -220.162164 
L 591.694574 -222.622902 
L 592.005503 -225.08364 
L 592.279967 -227.544378 
L 592.521686 -230.005115 
L 592.735137 -232.465853 
L 592.925315 -234.926591 
L 593.097461 -237.387329 
L 593.256812 -239.848067 
L 593.408358 -242.308805 
L 593.556632 -244.769543 
L 593.705542 -247.23028 
L 593.858239 -249.691018 
L 594.017045 -252.151756 
L 594.183419 -254.612494 
L 594.357975 -257.073232 
L 594.540543 -259.53397 
L 594.730256 -261.994708 
L 594.925671 -264.455445 
L 595.124904 -266.916183 
L 595.325774 -269.376921 
L 595.525939 -271.837659 
L 595.723039 -274.298397 
L 595.914806 -276.759135 
L 596.099166 -279.219873 
L 596.274322 -281.680611 
L 596.438797 -284.141348 
L 596.591476 -286.602086 
L 596.731604 -289.062824 
L 596.858788 -291.523562 
L 596.97296 -293.9843 
L 597.074347 -296.445038 
L 597.163426 -298.905776 
L 598.058351 -298.905776 
L 598.058351 -298.905776 
L 598.14743 -296.445038 
L 598.248817 -293.9843 
L 598.362989 -291.523562 
L 598.490172 -289.062824 
L 598.630301 -286.602086 
L 598.78298 -284.141348 
L 598.947455 -281.680611 
L 599.12261 -279.219873 
L 599.306971 -276.759135 
L 599.498738 -274.298397 
L 599.695837 -271.837659 
L 599.896003 -269.376921 
L 600.096873 -266.916183 
L 600.296106 -264.455445 
L 600.491521 -261.994708 
L 600.681234 -259.53397 
L 600.863801 -257.073232 
L 601.038358 -254.612494 
L 601.204732 -252.151756 
L 601.363538 -249.691018 
L 601.516235 -247.23028 
L 601.665145 -244.769543 
L 601.813419 -242.308805 
L 601.964965 -239.848067 
L 602.124316 -237.387329 
L 602.296462 -234.926591 
L 602.48664 -232.465853 
L 602.700091 -230.005115 
L 602.941809 -227.544378 
L 603.216274 -225.08364 
L 603.527203 -222.622902 
L 603.877322 -220.162164 
L 604.26818 -217.701426 
L 604.700009 -215.240688 
L 605.171643 -212.77995 
L 605.680508 -210.319213 
L 606.222675 -207.858475 
L 606.792978 -205.397737 
L 607.385195 -202.936999 
L 607.992275 -200.476261 
L 608.606601 -198.015523 
L 609.220281 -195.554785 
L 609.825435 -193.094048 
L 610.414474 -190.63331 
L 610.980357 -188.172572 
L 611.516791 -185.711834 
L 612.018401 -183.251096 
L 612.480821 -180.790358 
L 612.900742 -178.32962 
L 613.275883 -175.868882 
L 613.604924 -173.408145 
L 613.887384 -170.947407 
L 614.123466 -168.486669 
L 614.313889 -166.025931 
L 614.459699 -163.565193 
L 614.562105 -161.104455 
L 614.622314 -158.643717 
L 614.641406 -156.18298 
L 614.620243 -153.722242 
L 614.559411 -151.261504 
L 614.459207 -148.800766 
L 614.319662 -146.340028 
L 614.140597 -143.87929 
L 613.921709 -141.418552 
L 613.662674 -138.957815 
L 613.363261 -136.497077 
L 613.023449 -134.036339 
L 612.643544 -131.575601 
L 612.224271 -129.114863 
L 611.766862 -126.654125 
L 611.273112 -124.193387 
L 610.745411 -121.73265 
L 610.186751 -119.271912 
L 609.600705 -116.811174 
L 608.991378 -114.350436 
L 608.363338 -111.889698 
L 607.721527 -109.42896 
L 607.071156 -106.968222 
L 606.417586 -104.507484 
L 605.76621 -102.046747 
L 605.122326 -99.586009 
L 604.491021 -97.125271 
L 603.877059 -94.664533 
L 603.284781 -92.203795 
L 602.718021 -89.743057 
L 602.180044 -87.282319 
L 601.673497 -84.821582 
L 601.200382 -82.360844 
L 600.762057 -79.900106 
L 600.359244 -77.439368 
L 599.992062 -74.97863 
L 599.660079 -72.517892 
L 599.362365 -70.057154 
L 599.097564 -67.596417 
L 598.863969 -65.135679 
L 598.659598 -62.674941 
L 598.482271 -60.214203 
L 598.329685 -57.753465 
L 598.19948 -55.292727 
z
" style="stroke: #3f3f3f; stroke-width: 1.25"/>
    </defs>
    <g clip-path="url(#p9818b5c2f6)">
     <use xlink:href="#mcd525089e2" x="0" y="360" style="fill: #3274a1; stroke: #3f3f3f; stroke-width: 1.25"/>
    </g>
   </g>
   <g id="PolyCollection_8">
    <defs>
     <path id="ma345cdf237" d="M 664.955092 -112.7952 
L 661.23767 -112.7952 
L 660.892132 -113.834935 
L 660.498444 -114.87467 
L 660.053179 -115.914405 
L 659.553281 -116.95414 
L 658.996187 -117.993875 
L 658.379963 -119.03361 
L 657.703418 -120.073345 
L 656.966222 -121.11308 
L 656.169012 -122.152815 
L 655.313466 -123.19255 
L 654.402366 -124.232285 
L 653.439625 -125.27202 
L 652.430284 -126.311755 
L 651.380474 -127.35149 
L 650.29734 -128.391225 
L 649.188938 -129.43096 
L 648.064086 -130.470696 
L 646.932196 -131.510431 
L 645.80308 -132.550166 
L 644.686728 -133.589901 
L 643.593086 -134.629636 
L 642.531825 -135.669371 
L 641.512109 -136.709106 
L 640.542384 -137.748841 
L 639.630175 -138.788576 
L 638.781914 -139.828311 
L 638.002795 -140.868046 
L 637.296663 -141.907781 
L 636.665939 -142.947516 
L 636.111581 -143.987251 
L 635.633088 -145.026986 
L 635.228528 -146.066721 
L 634.894614 -147.106456 
L 634.6268 -148.146191 
L 634.419415 -149.185926 
L 634.265806 -150.225661 
L 634.158518 -151.265396 
L 634.089479 -152.305131 
L 634.050196 -153.344866 
L 634.031968 -154.384601 
L 634.026094 -155.424336 
L 634.024087 -156.464071 
L 634.017886 -157.503806 
L 634.000054 -158.543542 
L 633.963975 -159.583277 
L 633.904031 -160.623012 
L 633.815766 -161.662747 
L 633.696019 -162.702482 
L 633.543045 -163.742217 
L 633.356595 -164.781952 
L 633.137968 -165.821687 
L 632.890029 -166.861422 
L 632.617186 -167.901157 
L 632.325329 -168.940892 
L 632.021726 -169.980627 
L 631.714887 -171.020362 
L 631.414378 -172.060097 
L 631.130612 -173.099832 
L 630.874598 -174.139567 
L 630.657677 -175.179302 
L 630.491225 -176.219037 
L 630.38636 -177.258772 
L 630.353635 -178.298507 
L 630.402741 -179.338242 
L 630.54223 -180.377977 
L 630.779261 -181.417712 
L 631.119371 -182.457447 
L 631.566303 -183.497182 
L 632.121869 -184.536917 
L 632.785874 -185.576653 
L 633.55609 -186.616388 
L 634.42829 -187.656123 
L 635.396342 -188.695858 
L 636.452354 -189.735593 
L 637.586861 -190.775328 
L 638.78907 -191.815063 
L 640.04712 -192.854798 
L 641.348383 -193.894533 
L 642.679766 -194.934268 
L 644.028025 -195.974003 
L 645.380068 -197.013738 
L 646.723243 -198.053473 
L 648.045598 -199.093208 
L 649.336112 -200.132943 
L 650.584885 -201.172678 
L 651.783281 -202.212413 
L 652.924038 -203.252148 
L 654.001315 -204.291883 
L 655.010716 -205.331618 
L 655.949252 -206.371353 
L 656.815287 -207.411088 
L 657.608436 -208.450823 
L 658.329451 -209.490558 
L 658.98008 -210.530293 
L 659.562921 -211.570028 
L 660.081262 -212.609763 
L 660.538934 -213.649499 
L 660.940153 -214.689234 
L 661.289388 -215.728969 
L 664.903373 -215.728969 
L 664.903373 -215.728969 
L 665.252608 -214.689234 
L 665.653828 -213.649499 
L 666.111499 -212.609763 
L 666.629841 -211.570028 
L 667.212681 -210.530293 
L 667.86331 -209.490558 
L 668.584325 -208.450823 
L 669.377475 -207.411088 
L 670.243509 -206.371353 
L 671.182046 -205.331618 
L 672.191446 -204.291883 
L 673.268724 -203.252148 
L 674.40948 -202.212413 
L 675.607877 -201.172678 
L 676.856649 -200.132943 
L 678.147164 -199.093208 
L 679.469519 -198.053473 
L 680.812693 -197.013738 
L 682.164736 -195.974003 
L 683.512995 -194.934268 
L 684.844378 -193.894533 
L 686.145641 -192.854798 
L 687.403691 -191.815063 
L 688.6059 -190.775328 
L 689.740408 -189.735593 
L 690.796419 -188.695858 
L 691.764472 -187.656123 
L 692.636672 -186.616388 
L 693.406887 -185.576653 
L 694.070892 -184.536917 
L 694.626459 -183.497182 
L 695.073391 -182.457447 
L 695.413501 -181.417712 
L 695.650531 -180.377977 
L 695.790021 -179.338242 
L 695.839127 -178.298507 
L 695.806401 -177.258772 
L 695.701536 -176.219037 
L 695.535085 -175.179302 
L 695.318163 -174.139567 
L 695.06215 -173.099832 
L 694.778383 -172.060097 
L 694.477874 -171.020362 
L 694.171035 -169.980627 
L 693.867433 -168.940892 
L 693.575575 -167.901157 
L 693.302732 -166.861422 
L 693.054793 -165.821687 
L 692.836166 -164.781952 
L 692.649716 -163.742217 
L 692.496742 -162.702482 
L 692.376996 -161.662747 
L 692.28873 -160.623012 
L 692.228787 -159.583277 
L 692.192708 -158.543542 
L 692.174876 -157.503806 
L 692.168674 -156.464071 
L 692.166668 -155.424336 
L 692.160794 -154.384601 
L 692.142565 -153.344866 
L 692.103283 -152.305131 
L 692.034243 -151.265396 
L 691.926956 -150.225661 
L 691.773347 -149.185926 
L 691.565961 -148.146191 
L 691.298148 -147.106456 
L 690.964233 -146.066721 
L 690.559673 -145.026986 
L 690.08118 -143.987251 
L 689.526823 -142.947516 
L 688.896099 -141.907781 
L 688.189967 -140.868046 
L 687.410848 -139.828311 
L 686.562587 -138.788576 
L 685.650377 -137.748841 
L 684.680652 -136.709106 
L 683.660937 -135.669371 
L 682.599675 -134.629636 
L 681.506034 -133.589901 
L 680.389681 -132.550166 
L 679.260565 -131.510431 
L 678.128676 -130.470696 
L 677.003824 -129.43096 
L 675.895421 -128.391225 
L 674.812288 -127.35149 
L 673.762477 -126.311755 
L 672.753136 -125.27202 
L 671.790395 -124.232285 
L 670.879296 -123.19255 
L 670.02375 -122.152815 
L 669.226539 -121.11308 
L 668.489344 -120.073345 
L 667.812798 -119.03361 
L 667.196574 -117.993875 
L 666.639481 -116.95414 
L 666.139582 -115.914405 
L 665.694317 -114.87467 
L 665.30063 -113.834935 
L 664.955092 -112.7952 
z
" style="stroke: #3f3f3f; stroke-width: 1.25"/>
    </defs>
    <g clip-path="url(#p9818b5c2f6)">
     <use xlink:href="#ma345cdf237" x="0" y="360" style="fill: #e1812c; stroke: #3f3f3f; stroke-width: 1.25"/>
    </g>
   </g>
   <g id="patch_6">
    <path d="M 466.639904 311.918561 
L 466.639904 311.918561 
L 466.639904 311.918561 
L 466.639904 311.918561 
z
" clip-path="url(#p9818b5c2f6)" style="fill: #3274a1; stroke: #3f3f3f; stroke-width: 1.25; stroke-linejoin: miter"/>
   </g>
   <g id="patch_7">
    <path d="M 466.639904 311.918561 
L 466.639904 311.918561 
L 466.639904 311.918561 
L 466.639904 311.918561 
z
" clip-path="url(#p9818b5c2f6)" style="fill: #e1812c; stroke: #3f3f3f; stroke-width: 1.25; stroke-linejoin: miter"/>
   </g>
   <g id="line2d_31">
    <path d="M 433.897158 199.791852 
L 433.897158 156.574248 
" clip-path="url(#p9818b5c2f6)" style="fill: none; stroke: #3f3f3f; stroke-width: 1.875; stroke-linecap: round"/>
   </g>
   <g id="line2d_32">
    <path d="M 433.897158 190.036209 
L 433.897158 166.976483 
" clip-path="url(#p9818b5c2f6)" style="fill: none; stroke: #3f3f3f; stroke-width: 5.625; stroke-linecap: round"/>
   </g>
   <g id="line2d_33">
    <path d="M 433.897158 176.643768 
" clip-path="url(#p9818b5c2f6)" style="fill: none; stroke: #3f3f3f; stroke-width: 1.5; stroke-linecap: round"/>
    <g clip-path="url(#p9818b5c2f6)">
     <use xlink:href="#mbc43331176" x="433.897158" y="176.643768" style="fill: #ffffff; stroke: #ffffff; stroke-width: 1.125"/>
    </g>
   </g>
   <g id="line2d_34">
    <path d="M 499.38265 215.654261 
L 499.38265 137.72201 
" clip-path="url(#p9818b5c2f6)" style="fill: none; stroke: #3f3f3f; stroke-width: 1.875; stroke-linecap: round"/>
   </g>
   <g id="line2d_35">
    <path d="M 499.38265 193.965211 
L 499.38265 166.288218 
" clip-path="url(#p9818b5c2f6)" style="fill: none; stroke: #3f3f3f; stroke-width: 5.625; stroke-linecap: round"/>
   </g>
   <g id="line2d_36">
    <path d="M 499.38265 177.524931 
" clip-path="url(#p9818b5c2f6)" style="fill: none; stroke: #3f3f3f; stroke-width: 1.5; stroke-linecap: round"/>
    <g clip-path="url(#p9818b5c2f6)">
     <use xlink:href="#mbc43331176" x="499.38265" y="177.524931" style="fill: #ffffff; stroke: #ffffff; stroke-width: 1.125"/>
    </g>
   </g>
   <g id="line2d_37">
    <path d="M 597.610888 251.596966 
L 597.610888 114.204531 
" clip-path="url(#p9818b5c2f6)" style="fill: none; stroke: #3f3f3f; stroke-width: 1.875; stroke-linecap: round"/>
   </g>
   <g id="line2d_38">
    <path d="M 597.610888 225.914531 
L 597.610888 176.345882 
" clip-path="url(#p9818b5c2f6)" style="fill: none; stroke: #3f3f3f; stroke-width: 5.625; stroke-linecap: round"/>
   </g>
   <g id="line2d_39">
    <path d="M 597.610888 203.605006 
" clip-path="url(#p9818b5c2f6)" style="fill: none; stroke: #3f3f3f; stroke-width: 1.5; stroke-linecap: round"/>
    <g clip-path="url(#p9818b5c2f6)">
     <use xlink:href="#mbc43331176" x="597.610888" y="203.605006" style="fill: #ffffff; stroke: #ffffff; stroke-width: 1.125"/>
    </g>
   </g>
   <g id="line2d_40">
    <path d="M 663.096381 221.705902 
L 663.096381 169.769929 
" clip-path="url(#p9818b5c2f6)" style="fill: none; stroke: #3f3f3f; stroke-width: 1.875; stroke-linecap: round"/>
   </g>
   <g id="line2d_41">
    <path d="M 663.096381 209.74215 
L 663.096381 178.770477 
" clip-path="url(#p9818b5c2f6)" style="fill: none; stroke: #3f3f3f; stroke-width: 5.625; stroke-linecap: round"/>
   </g>
   <g id="line2d_42">
    <path d="M 663.096381 192.73718 
" clip-path="url(#p9818b5c2f6)" style="fill: none; stroke: #3f3f3f; stroke-width: 1.5; stroke-linecap: round"/>
    <g clip-path="url(#p9818b5c2f6)">
     <use xlink:href="#mbc43331176" x="663.096381" y="192.73718" style="fill: #ffffff; stroke: #ffffff; stroke-width: 1.125"/>
    </g>
   </g>
   <g id="patch_8">
    <path d="M 384.783038 318.04 
L 384.783038 24.72 
" style="fill: none; stroke: #cccccc; stroke-width: 0.8; stroke-linejoin: miter; stroke-linecap: square"/>
   </g>
   <g id="patch_9">
    <path d="M 384.783038 318.04 
L 712.2105 318.04 
" style="fill: none; stroke: #cccccc; stroke-width: 0.8; stroke-linejoin: miter; stroke-linecap: square"/>
   </g>
   <g id="text_18">
    <!-- sex = m -->
    <g style="fill: #262626" transform="translate(530.853019 18.72) scale(0.1 -0.1)">
     <defs>
      <path id="ArialMT-6d" d="M 422 0 
L 422 3319 
L 925 3319 
L 925 2853 
Q 1081 3097 1340 3245 
Q 1600 3394 1931 3394 
Q 2300 3394 2536 3241 
Q 2772 3088 2869 2813 
Q 3263 3394 3894 3394 
Q 4388 3394 4653 3120 
Q 4919 2847 4919 2278 
L 4919 0 
L 4359 0 
L 4359 2091 
Q 4359 2428 4304 2576 
Q 4250 2725 4106 2815 
Q 3963 2906 3769 2906 
Q 3419 2906 3187 2673 
Q 2956 2441 2956 1928 
L 2956 0 
L 2394 0 
L 2394 2156 
Q 2394 2531 2256 2718 
Q 2119 2906 1806 2906 
Q 1569 2906 1367 2781 
Q 1166 2656 1075 2415 
Q 984 2175 984 1722 
L 984 0 
L 422 0 
z
" transform="scale(0.015625)"/>
     </defs>
     <use xlink:href="#ArialMT-73"/>
     <use xlink:href="#ArialMT-65" x="50"/>
     <use xlink:href="#ArialMT-78" x="105.615234"/>
     <use xlink:href="#ArialMT-20" x="155.615234"/>
     <use xlink:href="#ArialMT-3d" x="183.398438"/>
     <use xlink:href="#ArialMT-20" x="241.796875"/>
     <use xlink:href="#ArialMT-6d" x="269.580078"/>
    </g>
   </g>
  </g>
  <g id="legend_1">
   <g id="text_19">
    <!-- Time -->
    <g style="fill: #262626" transform="translate(733.633594 168.439844) scale(0.1 -0.1)">
     <defs>
      <path id="ArialMT-54" d="M 1659 0 
L 1659 4041 
L 150 4041 
L 150 4581 
L 3781 4581 
L 3781 4041 
L 2266 4041 
L 2266 0 
L 1659 0 
z
" transform="scale(0.015625)"/>
     </defs>
     <use xlink:href="#ArialMT-54"/>
     <use xlink:href="#ArialMT-69" x="57.333984"/>
     <use xlink:href="#ArialMT-6d" x="79.550781"/>
     <use xlink:href="#ArialMT-65" x="162.851562"/>
    </g>
   </g>
   <g id="patch_10">
    <path d="M 719.1625 182.585156 
L 739.1625 182.585156 
L 739.1625 175.585156 
L 719.1625 175.585156 
z
" style="fill: #3274a1; stroke: #3f3f3f; stroke-width: 1.25; stroke-linejoin: miter"/>
   </g>
   <g id="text_20">
    <!-- initial -->
    <g style="fill: #262626" transform="translate(747.1625 182.585156) scale(0.1 -0.1)">
     <use xlink:href="#ArialMT-69"/>
     <use xlink:href="#ArialMT-6e" x="22.216797"/>
     <use xlink:href="#ArialMT-69" x="77.832031"/>
     <use xlink:href="#ArialMT-74" x="100.048828"/>
     <use xlink:href="#ArialMT-69" x="127.832031"/>
     <use xlink:href="#ArialMT-61" x="150.048828"/>
     <use xlink:href="#ArialMT-6c" x="205.664062"/>
    </g>
   </g>
   <g id="patch_11">
    <path d="M 719.1625 196.730469 
L 739.1625 196.730469 
L 739.1625 189.730469 
L 719.1625 189.730469 
z
" style="fill: #e1812c; stroke: #3f3f3f; stroke-width: 1.25; stroke-linejoin: miter"/>
   </g>
   <g id="text_21">
    <!-- final -->
    <g style="fill: #262626" transform="translate(747.1625 196.730469) scale(0.1 -0.1)">
     <use xlink:href="#ArialMT-66"/>
     <use xlink:href="#ArialMT-69" x="27.783203"/>
     <use xlink:href="#ArialMT-6e" x="50"/>
     <use xlink:href="#ArialMT-61" x="105.615234"/>
     <use xlink:href="#ArialMT-6c" x="161.230469"/>
    </g>
   </g>
  </g>
 </g>
 <defs>
  <clipPath id="pf987f02a40">
   <rect x="46.5639" y="24.72" width="327.427462" height="293.32"/>
  </clipPath>
  <clipPath id="p9818b5c2f6">
   <rect x="384.783038" y="24.72" width="327.427462" height="293.32"/>
  </clipPath>
 </defs>
</svg>
