<?xml version="1.0" encoding="utf-8" standalone="no"?>
<!DOCTYPE svg PUBLIC "-//W3C//DTD SVG 1.1//EN"
  "http://www.w3.org/Graphics/SVG/1.1/DTD/svg11.dtd">
<svg xmlns:xlink="http://www.w3.org/1999/xlink" width="778.95pt" height="360pt" viewBox="0 0 778.95 360" xmlns="http://www.w3.org/2000/svg" version="1.1">
 <metadata>
  <rdf:RDF xmlns:dc="http://purl.org/dc/elements/1.1/" xmlns:cc="http://creativecommons.org/ns#" xmlns:rdf="http://www.w3.org/1999/02/22-rdf-syntax-ns#">
   <cc:Work>
    <dc:type rdf:resource="http://purl.org/dc/dcmitype/StillImage"/>
    <dc:date>2024-09-10T22:04:36.951204</dc:date>
    <dc:format>image/svg+xml</dc:format>
    <dc:creator>
     <cc:Agent>
      <dc:title>Matplotlib v3.8.3, https://matplotlib.org/</dc:title>
     </cc:Agent>
    </dc:creator>
   </cc:Work>
  </rdf:RDF>
 </metadata>
 <defs>
  <style type="text/css">*{stroke-linejoin: round; stroke-linecap: butt}</style>
 </defs>
 <g id="figure_1">
  <g id="patch_1">
   <path d="M 0 360 
L 778.95 360 
L 778.95 0 
L 0 0 
z
" style="fill: #ffffff"/>
  </g>
  <g id="axes_1">
   <g id="patch_2">
    <path d="M 49.582331 318.04 
L 375.502454 318.04 
L 375.502454 24.72 
L 49.582331 24.72 
z
" style="fill: #ffffff"/>
   </g>
   <g id="matplotlib.axis_1">
    <g id="xtick_1">
     <g id="text_1">
      <!-- Jurilovca -->
      <g style="fill: #262626" transform="translate(111.334237 332.197812) scale(0.1 -0.1)">
       <defs>
        <path id="ArialMT-4a" d="M 184 1300 
L 731 1375 
Q 753 850 928 656 
Q 1103 463 1413 463 
Q 1641 463 1806 567 
Q 1972 672 2034 851 
Q 2097 1031 2097 1425 
L 2097 4581 
L 2703 4581 
L 2703 1459 
Q 2703 884 2564 568 
Q 2425 253 2123 87 
Q 1822 -78 1416 -78 
Q 813 -78 492 269 
Q 172 616 184 1300 
z
" transform="scale(0.015625)"/>
        <path id="ArialMT-75" d="M 2597 0 
L 2597 488 
Q 2209 -75 1544 -75 
Q 1250 -75 995 37 
Q 741 150 617 320 
Q 494 491 444 738 
Q 409 903 409 1263 
L 409 3319 
L 972 3319 
L 972 1478 
Q 972 1038 1006 884 
Q 1059 663 1231 536 
Q 1403 409 1656 409 
Q 1909 409 2131 539 
Q 2353 669 2445 892 
Q 2538 1116 2538 1541 
L 2538 3319 
L 3100 3319 
L 3100 0 
L 2597 0 
z
" transform="scale(0.015625)"/>
        <path id="ArialMT-72" d="M 416 0 
L 416 3319 
L 922 3319 
L 922 2816 
Q 1116 3169 1280 3281 
Q 1444 3394 1641 3394 
Q 1925 3394 2219 3213 
L 2025 2691 
Q 1819 2813 1613 2813 
Q 1428 2813 1281 2702 
Q 1134 2591 1072 2394 
Q 978 2094 978 1738 
L 978 0 
L 416 0 
z
" transform="scale(0.015625)"/>
        <path id="ArialMT-69" d="M 425 3934 
L 425 4581 
L 988 4581 
L 988 3934 
L 425 3934 
z
M 425 0 
L 425 3319 
L 988 3319 
L 988 0 
L 425 0 
z
" transform="scale(0.015625)"/>
        <path id="ArialMT-6c" d="M 409 0 
L 409 4581 
L 972 4581 
L 972 0 
L 409 0 
z
" transform="scale(0.015625)"/>
        <path id="ArialMT-6f" d="M 213 1659 
Q 213 2581 725 3025 
Q 1153 3394 1769 3394 
Q 2453 3394 2887 2945 
Q 3322 2497 3322 1706 
Q 3322 1066 3130 698 
Q 2938 331 2570 128 
Q 2203 -75 1769 -75 
Q 1072 -75 642 372 
Q 213 819 213 1659 
z
M 791 1659 
Q 791 1022 1069 705 
Q 1347 388 1769 388 
Q 2188 388 2466 706 
Q 2744 1025 2744 1678 
Q 2744 2294 2464 2611 
Q 2184 2928 1769 2928 
Q 1347 2928 1069 2612 
Q 791 2297 791 1659 
z
" transform="scale(0.015625)"/>
        <path id="ArialMT-76" d="M 1344 0 
L 81 3319 
L 675 3319 
L 1388 1331 
Q 1503 1009 1600 663 
Q 1675 925 1809 1294 
L 2547 3319 
L 3125 3319 
L 1869 0 
L 1344 0 
z
" transform="scale(0.015625)"/>
        <path id="ArialMT-63" d="M 2588 1216 
L 3141 1144 
Q 3050 572 2676 248 
Q 2303 -75 1759 -75 
Q 1078 -75 664 370 
Q 250 816 250 1647 
Q 250 2184 428 2587 
Q 606 2991 970 3192 
Q 1334 3394 1763 3394 
Q 2303 3394 2647 3120 
Q 2991 2847 3088 2344 
L 2541 2259 
Q 2463 2594 2264 2762 
Q 2066 2931 1784 2931 
Q 1359 2931 1093 2626 
Q 828 2322 828 1663 
Q 828 994 1084 691 
Q 1341 388 1753 388 
Q 2084 388 2306 591 
Q 2528 794 2588 1216 
z
" transform="scale(0.015625)"/>
        <path id="ArialMT-61" d="M 2588 409 
Q 2275 144 1986 34 
Q 1697 -75 1366 -75 
Q 819 -75 525 192 
Q 231 459 231 875 
Q 231 1119 342 1320 
Q 453 1522 633 1644 
Q 813 1766 1038 1828 
Q 1203 1872 1538 1913 
Q 2219 1994 2541 2106 
Q 2544 2222 2544 2253 
Q 2544 2597 2384 2738 
Q 2169 2928 1744 2928 
Q 1347 2928 1158 2789 
Q 969 2650 878 2297 
L 328 2372 
Q 403 2725 575 2942 
Q 747 3159 1072 3276 
Q 1397 3394 1825 3394 
Q 2250 3394 2515 3294 
Q 2781 3194 2906 3042 
Q 3031 2891 3081 2659 
Q 3109 2516 3109 2141 
L 3109 1391 
Q 3109 606 3145 398 
Q 3181 191 3288 0 
L 2700 0 
Q 2613 175 2588 409 
z
M 2541 1666 
Q 2234 1541 1622 1453 
Q 1275 1403 1131 1340 
Q 988 1278 909 1158 
Q 831 1038 831 891 
Q 831 666 1001 516 
Q 1172 366 1500 366 
Q 1825 366 2078 508 
Q 2331 650 2450 897 
Q 2541 1088 2541 1459 
L 2541 1666 
z
" transform="scale(0.015625)"/>
       </defs>
       <use xlink:href="#ArialMT-4a"/>
       <use xlink:href="#ArialMT-75" x="50"/>
       <use xlink:href="#ArialMT-72" x="105.615234"/>
       <use xlink:href="#ArialMT-69" x="138.916016"/>
       <use xlink:href="#ArialMT-6c" x="161.132812"/>
       <use xlink:href="#ArialMT-6f" x="183.349609"/>
       <use xlink:href="#ArialMT-76" x="238.964844"/>
       <use xlink:href="#ArialMT-63" x="288.964844"/>
       <use xlink:href="#ArialMT-61" x="338.964844"/>
      </g>
     </g>
    </g>
    <g id="xtick_2">
     <g id="text_2">
      <!-- Baia -->
      <g style="fill: #262626" transform="translate(284.015392 332.197812) scale(0.1 -0.1)">
       <defs>
        <path id="ArialMT-42" d="M 469 0 
L 469 4581 
L 2188 4581 
Q 2713 4581 3030 4442 
Q 3347 4303 3526 4014 
Q 3706 3725 3706 3409 
Q 3706 3116 3547 2856 
Q 3388 2597 3066 2438 
Q 3481 2316 3704 2022 
Q 3928 1728 3928 1328 
Q 3928 1006 3792 729 
Q 3656 453 3456 303 
Q 3256 153 2954 76 
Q 2653 0 2216 0 
L 469 0 
z
M 1075 2656 
L 2066 2656 
Q 2469 2656 2644 2709 
Q 2875 2778 2992 2937 
Q 3109 3097 3109 3338 
Q 3109 3566 3000 3739 
Q 2891 3913 2687 3977 
Q 2484 4041 1991 4041 
L 1075 4041 
L 1075 2656 
z
M 1075 541 
L 2216 541 
Q 2509 541 2628 563 
Q 2838 600 2978 687 
Q 3119 775 3209 942 
Q 3300 1109 3300 1328 
Q 3300 1584 3169 1773 
Q 3038 1963 2805 2039 
Q 2572 2116 2134 2116 
L 1075 2116 
L 1075 541 
z
" transform="scale(0.015625)"/>
       </defs>
       <use xlink:href="#ArialMT-42"/>
       <use xlink:href="#ArialMT-61" x="66.699219"/>
       <use xlink:href="#ArialMT-69" x="122.314453"/>
       <use xlink:href="#ArialMT-61" x="144.53125"/>
      </g>
     </g>
    </g>
    <g id="text_3">
     <!-- Location -->
     <g style="fill: #262626" transform="translate(193.640049 345.343125) scale(0.1 -0.1)">
      <defs>
       <path id="ArialMT-4c" d="M 469 0 
L 469 4581 
L 1075 4581 
L 1075 541 
L 3331 541 
L 3331 0 
L 469 0 
z
" transform="scale(0.015625)"/>
       <path id="ArialMT-74" d="M 1650 503 
L 1731 6 
Q 1494 -44 1306 -44 
Q 1000 -44 831 53 
Q 663 150 594 308 
Q 525 466 525 972 
L 525 2881 
L 113 2881 
L 113 3319 
L 525 3319 
L 525 4141 
L 1084 4478 
L 1084 3319 
L 1650 3319 
L 1650 2881 
L 1084 2881 
L 1084 941 
Q 1084 700 1114 631 
Q 1144 563 1211 522 
Q 1278 481 1403 481 
Q 1497 481 1650 503 
z
" transform="scale(0.015625)"/>
       <path id="ArialMT-6e" d="M 422 0 
L 422 3319 
L 928 3319 
L 928 2847 
Q 1294 3394 1984 3394 
Q 2284 3394 2536 3286 
Q 2788 3178 2913 3003 
Q 3038 2828 3088 2588 
Q 3119 2431 3119 2041 
L 3119 0 
L 2556 0 
L 2556 2019 
Q 2556 2363 2490 2533 
Q 2425 2703 2258 2804 
Q 2091 2906 1866 2906 
Q 1506 2906 1245 2678 
Q 984 2450 984 1813 
L 984 0 
L 422 0 
z
" transform="scale(0.015625)"/>
      </defs>
      <use xlink:href="#ArialMT-4c"/>
      <use xlink:href="#ArialMT-6f" x="55.615234"/>
      <use xlink:href="#ArialMT-63" x="111.230469"/>
      <use xlink:href="#ArialMT-61" x="161.230469"/>
      <use xlink:href="#ArialMT-74" x="216.845703"/>
      <use xlink:href="#ArialMT-69" x="244.628906"/>
      <use xlink:href="#ArialMT-6f" x="266.845703"/>
      <use xlink:href="#ArialMT-6e" x="322.460938"/>
     </g>
    </g>
   </g>
   <g id="matplotlib.axis_2">
    <g id="ytick_1">
     <g id="line2d_1">
      <path d="M 49.582331 272.882129 
L 375.502454 272.882129 
" clip-path="url(#p9e4c48fdd3)" style="fill: none; stroke: #cccccc; stroke-width: 0.8; stroke-linecap: round"/>
     </g>
     <g id="text_4">
      <!-- 0.6 -->
      <g style="fill: #262626" transform="translate(28.682331 276.461035) scale(0.1 -0.1)">
       <defs>
        <path id="ArialMT-30" d="M 266 2259 
Q 266 3072 433 3567 
Q 600 4063 929 4331 
Q 1259 4600 1759 4600 
Q 2128 4600 2406 4451 
Q 2684 4303 2865 4023 
Q 3047 3744 3150 3342 
Q 3253 2941 3253 2259 
Q 3253 1453 3087 958 
Q 2922 463 2592 192 
Q 2263 -78 1759 -78 
Q 1097 -78 719 397 
Q 266 969 266 2259 
z
M 844 2259 
Q 844 1131 1108 757 
Q 1372 384 1759 384 
Q 2147 384 2411 759 
Q 2675 1134 2675 2259 
Q 2675 3391 2411 3762 
Q 2147 4134 1753 4134 
Q 1366 4134 1134 3806 
Q 844 3388 844 2259 
z
" transform="scale(0.015625)"/>
        <path id="ArialMT-2e" d="M 581 0 
L 581 641 
L 1222 641 
L 1222 0 
L 581 0 
z
" transform="scale(0.015625)"/>
        <path id="ArialMT-36" d="M 3184 3459 
L 2625 3416 
Q 2550 3747 2413 3897 
Q 2184 4138 1850 4138 
Q 1581 4138 1378 3988 
Q 1113 3794 959 3422 
Q 806 3050 800 2363 
Q 1003 2672 1297 2822 
Q 1591 2972 1913 2972 
Q 2475 2972 2870 2558 
Q 3266 2144 3266 1488 
Q 3266 1056 3080 686 
Q 2894 316 2569 119 
Q 2244 -78 1831 -78 
Q 1128 -78 684 439 
Q 241 956 241 2144 
Q 241 3472 731 4075 
Q 1159 4600 1884 4600 
Q 2425 4600 2770 4297 
Q 3116 3994 3184 3459 
z
M 888 1484 
Q 888 1194 1011 928 
Q 1134 663 1356 523 
Q 1578 384 1822 384 
Q 2178 384 2434 671 
Q 2691 959 2691 1453 
Q 2691 1928 2437 2201 
Q 2184 2475 1800 2475 
Q 1419 2475 1153 2201 
Q 888 1928 888 1484 
z
" transform="scale(0.015625)"/>
       </defs>
       <use xlink:href="#ArialMT-30"/>
       <use xlink:href="#ArialMT-2e" x="55.615234"/>
       <use xlink:href="#ArialMT-36" x="83.398438"/>
      </g>
     </g>
    </g>
    <g id="ytick_2">
     <g id="line2d_2">
      <path d="M 49.582331 225.783737 
L 375.502454 225.783737 
" clip-path="url(#p9e4c48fdd3)" style="fill: none; stroke: #cccccc; stroke-width: 0.8; stroke-linecap: round"/>
     </g>
     <g id="text_5">
      <!-- 0.8 -->
      <g style="fill: #262626" transform="translate(28.682331 229.362643) scale(0.1 -0.1)">
       <defs>
        <path id="ArialMT-38" d="M 1131 2484 
Q 781 2613 612 2850 
Q 444 3088 444 3419 
Q 444 3919 803 4259 
Q 1163 4600 1759 4600 
Q 2359 4600 2725 4251 
Q 3091 3903 3091 3403 
Q 3091 3084 2923 2848 
Q 2756 2613 2416 2484 
Q 2838 2347 3058 2040 
Q 3278 1734 3278 1309 
Q 3278 722 2862 322 
Q 2447 -78 1769 -78 
Q 1091 -78 675 323 
Q 259 725 259 1325 
Q 259 1772 486 2073 
Q 713 2375 1131 2484 
z
M 1019 3438 
Q 1019 3113 1228 2906 
Q 1438 2700 1772 2700 
Q 2097 2700 2305 2904 
Q 2513 3109 2513 3406 
Q 2513 3716 2298 3927 
Q 2084 4138 1766 4138 
Q 1444 4138 1231 3931 
Q 1019 3725 1019 3438 
z
M 838 1322 
Q 838 1081 952 856 
Q 1066 631 1291 507 
Q 1516 384 1775 384 
Q 2178 384 2440 643 
Q 2703 903 2703 1303 
Q 2703 1709 2433 1975 
Q 2163 2241 1756 2241 
Q 1359 2241 1098 1978 
Q 838 1716 838 1322 
z
" transform="scale(0.015625)"/>
       </defs>
       <use xlink:href="#ArialMT-30"/>
       <use xlink:href="#ArialMT-2e" x="55.615234"/>
       <use xlink:href="#ArialMT-38" x="83.398438"/>
      </g>
     </g>
    </g>
    <g id="ytick_3">
     <g id="line2d_3">
      <path d="M 49.582331 178.685345 
L 375.502454 178.685345 
" clip-path="url(#p9e4c48fdd3)" style="fill: none; stroke: #cccccc; stroke-width: 0.8; stroke-linecap: round"/>
     </g>
     <g id="text_6">
      <!-- 1.0 -->
      <g style="fill: #262626" transform="translate(28.682331 182.264251) scale(0.1 -0.1)">
       <defs>
        <path id="ArialMT-31" d="M 2384 0 
L 1822 0 
L 1822 3584 
Q 1619 3391 1289 3197 
Q 959 3003 697 2906 
L 697 3450 
Q 1169 3672 1522 3987 
Q 1875 4303 2022 4600 
L 2384 4600 
L 2384 0 
z
" transform="scale(0.015625)"/>
       </defs>
       <use xlink:href="#ArialMT-31"/>
       <use xlink:href="#ArialMT-2e" x="55.615234"/>
       <use xlink:href="#ArialMT-30" x="83.398438"/>
      </g>
     </g>
    </g>
    <g id="ytick_4">
     <g id="line2d_4">
      <path d="M 49.582331 131.586953 
L 375.502454 131.586953 
" clip-path="url(#p9e4c48fdd3)" style="fill: none; stroke: #cccccc; stroke-width: 0.8; stroke-linecap: round"/>
     </g>
     <g id="text_7">
      <!-- 1.2 -->
      <g style="fill: #262626" transform="translate(28.682331 135.165859) scale(0.1 -0.1)">
       <defs>
        <path id="ArialMT-32" d="M 3222 541 
L 3222 0 
L 194 0 
Q 188 203 259 391 
Q 375 700 629 1000 
Q 884 1300 1366 1694 
Q 2113 2306 2375 2664 
Q 2638 3022 2638 3341 
Q 2638 3675 2398 3904 
Q 2159 4134 1775 4134 
Q 1369 4134 1125 3890 
Q 881 3647 878 3216 
L 300 3275 
Q 359 3922 746 4261 
Q 1134 4600 1788 4600 
Q 2447 4600 2831 4234 
Q 3216 3869 3216 3328 
Q 3216 3053 3103 2787 
Q 2991 2522 2730 2228 
Q 2469 1934 1863 1422 
Q 1356 997 1212 845 
Q 1069 694 975 541 
L 3222 541 
z
" transform="scale(0.015625)"/>
       </defs>
       <use xlink:href="#ArialMT-31"/>
       <use xlink:href="#ArialMT-2e" x="55.615234"/>
       <use xlink:href="#ArialMT-32" x="83.398438"/>
      </g>
     </g>
    </g>
    <g id="ytick_5">
     <g id="line2d_5">
      <path d="M 49.582331 84.488561 
L 375.502454 84.488561 
" clip-path="url(#p9e4c48fdd3)" style="fill: none; stroke: #cccccc; stroke-width: 0.8; stroke-linecap: round"/>
     </g>
     <g id="text_8">
      <!-- 1.4 -->
      <g style="fill: #262626" transform="translate(28.682331 88.067467) scale(0.1 -0.1)">
       <defs>
        <path id="ArialMT-34" d="M 2069 0 
L 2069 1097 
L 81 1097 
L 81 1613 
L 2172 4581 
L 2631 4581 
L 2631 1613 
L 3250 1613 
L 3250 1097 
L 2631 1097 
L 2631 0 
L 2069 0 
z
M 2069 1613 
L 2069 3678 
L 634 1613 
L 2069 1613 
z
" transform="scale(0.015625)"/>
       </defs>
       <use xlink:href="#ArialMT-31"/>
       <use xlink:href="#ArialMT-2e" x="55.615234"/>
       <use xlink:href="#ArialMT-34" x="83.398438"/>
      </g>
     </g>
    </g>
    <g id="ytick_6">
     <g id="line2d_6">
      <path d="M 49.582331 37.390169 
L 375.502454 37.390169 
" clip-path="url(#p9e4c48fdd3)" style="fill: none; stroke: #cccccc; stroke-width: 0.8; stroke-linecap: round"/>
     </g>
     <g id="text_9">
      <!-- 1.6 -->
      <g style="fill: #262626" transform="translate(28.682331 40.969075) scale(0.1 -0.1)">
       <use xlink:href="#ArialMT-31"/>
       <use xlink:href="#ArialMT-2e" x="55.615234"/>
       <use xlink:href="#ArialMT-36" x="83.398438"/>
      </g>
     </g>
    </g>
    <g id="text_10">
     <!-- Respiratory exchange ratio -->
     <g style="fill: #262626" transform="translate(22.577644 231.129219) rotate(-90) scale(0.1 -0.1)">
      <defs>
       <path id="ArialMT-52" d="M 503 0 
L 503 4581 
L 2534 4581 
Q 3147 4581 3465 4457 
Q 3784 4334 3975 4021 
Q 4166 3709 4166 3331 
Q 4166 2844 3850 2509 
Q 3534 2175 2875 2084 
Q 3116 1969 3241 1856 
Q 3506 1613 3744 1247 
L 4541 0 
L 3778 0 
L 3172 953 
Q 2906 1366 2734 1584 
Q 2563 1803 2427 1890 
Q 2291 1978 2150 2013 
Q 2047 2034 1813 2034 
L 1109 2034 
L 1109 0 
L 503 0 
z
M 1109 2559 
L 2413 2559 
Q 2828 2559 3062 2645 
Q 3297 2731 3419 2920 
Q 3541 3109 3541 3331 
Q 3541 3656 3305 3865 
Q 3069 4075 2559 4075 
L 1109 4075 
L 1109 2559 
z
" transform="scale(0.015625)"/>
       <path id="ArialMT-65" d="M 2694 1069 
L 3275 997 
Q 3138 488 2766 206 
Q 2394 -75 1816 -75 
Q 1088 -75 661 373 
Q 234 822 234 1631 
Q 234 2469 665 2931 
Q 1097 3394 1784 3394 
Q 2450 3394 2872 2941 
Q 3294 2488 3294 1666 
Q 3294 1616 3291 1516 
L 816 1516 
Q 847 969 1125 678 
Q 1403 388 1819 388 
Q 2128 388 2347 550 
Q 2566 713 2694 1069 
z
M 847 1978 
L 2700 1978 
Q 2663 2397 2488 2606 
Q 2219 2931 1791 2931 
Q 1403 2931 1139 2672 
Q 875 2413 847 1978 
z
" transform="scale(0.015625)"/>
       <path id="ArialMT-73" d="M 197 991 
L 753 1078 
Q 800 744 1014 566 
Q 1228 388 1613 388 
Q 2000 388 2187 545 
Q 2375 703 2375 916 
Q 2375 1106 2209 1216 
Q 2094 1291 1634 1406 
Q 1016 1563 777 1677 
Q 538 1791 414 1992 
Q 291 2194 291 2438 
Q 291 2659 392 2848 
Q 494 3038 669 3163 
Q 800 3259 1026 3326 
Q 1253 3394 1513 3394 
Q 1903 3394 2198 3281 
Q 2494 3169 2634 2976 
Q 2775 2784 2828 2463 
L 2278 2388 
Q 2241 2644 2061 2787 
Q 1881 2931 1553 2931 
Q 1166 2931 1000 2803 
Q 834 2675 834 2503 
Q 834 2394 903 2306 
Q 972 2216 1119 2156 
Q 1203 2125 1616 2013 
Q 2213 1853 2448 1751 
Q 2684 1650 2818 1456 
Q 2953 1263 2953 975 
Q 2953 694 2789 445 
Q 2625 197 2315 61 
Q 2006 -75 1616 -75 
Q 969 -75 630 194 
Q 291 463 197 991 
z
" transform="scale(0.015625)"/>
       <path id="ArialMT-70" d="M 422 -1272 
L 422 3319 
L 934 3319 
L 934 2888 
Q 1116 3141 1344 3267 
Q 1572 3394 1897 3394 
Q 2322 3394 2647 3175 
Q 2972 2956 3137 2557 
Q 3303 2159 3303 1684 
Q 3303 1175 3120 767 
Q 2938 359 2589 142 
Q 2241 -75 1856 -75 
Q 1575 -75 1351 44 
Q 1128 163 984 344 
L 984 -1272 
L 422 -1272 
z
M 931 1641 
Q 931 1000 1190 694 
Q 1450 388 1819 388 
Q 2194 388 2461 705 
Q 2728 1022 2728 1688 
Q 2728 2322 2467 2637 
Q 2206 2953 1844 2953 
Q 1484 2953 1207 2617 
Q 931 2281 931 1641 
z
" transform="scale(0.015625)"/>
       <path id="ArialMT-79" d="M 397 -1278 
L 334 -750 
Q 519 -800 656 -800 
Q 844 -800 956 -737 
Q 1069 -675 1141 -563 
Q 1194 -478 1313 -144 
Q 1328 -97 1363 -6 
L 103 3319 
L 709 3319 
L 1400 1397 
Q 1534 1031 1641 628 
Q 1738 1016 1872 1384 
L 2581 3319 
L 3144 3319 
L 1881 -56 
Q 1678 -603 1566 -809 
Q 1416 -1088 1222 -1217 
Q 1028 -1347 759 -1347 
Q 597 -1347 397 -1278 
z
" transform="scale(0.015625)"/>
       <path id="ArialMT-20" transform="scale(0.015625)"/>
       <path id="ArialMT-78" d="M 47 0 
L 1259 1725 
L 138 3319 
L 841 3319 
L 1350 2541 
Q 1494 2319 1581 2169 
Q 1719 2375 1834 2534 
L 2394 3319 
L 3066 3319 
L 1919 1756 
L 3153 0 
L 2463 0 
L 1781 1031 
L 1600 1309 
L 728 0 
L 47 0 
z
" transform="scale(0.015625)"/>
       <path id="ArialMT-68" d="M 422 0 
L 422 4581 
L 984 4581 
L 984 2938 
Q 1378 3394 1978 3394 
Q 2347 3394 2619 3248 
Q 2891 3103 3008 2847 
Q 3125 2591 3125 2103 
L 3125 0 
L 2563 0 
L 2563 2103 
Q 2563 2525 2380 2717 
Q 2197 2909 1863 2909 
Q 1613 2909 1392 2779 
Q 1172 2650 1078 2428 
Q 984 2206 984 1816 
L 984 0 
L 422 0 
z
" transform="scale(0.015625)"/>
       <path id="ArialMT-67" d="M 319 -275 
L 866 -356 
Q 900 -609 1056 -725 
Q 1266 -881 1628 -881 
Q 2019 -881 2231 -725 
Q 2444 -569 2519 -288 
Q 2563 -116 2559 434 
Q 2191 0 1641 0 
Q 956 0 581 494 
Q 206 988 206 1678 
Q 206 2153 378 2554 
Q 550 2956 876 3175 
Q 1203 3394 1644 3394 
Q 2231 3394 2613 2919 
L 2613 3319 
L 3131 3319 
L 3131 450 
Q 3131 -325 2973 -648 
Q 2816 -972 2473 -1159 
Q 2131 -1347 1631 -1347 
Q 1038 -1347 672 -1080 
Q 306 -813 319 -275 
z
M 784 1719 
Q 784 1066 1043 766 
Q 1303 466 1694 466 
Q 2081 466 2343 764 
Q 2606 1063 2606 1700 
Q 2606 2309 2336 2618 
Q 2066 2928 1684 2928 
Q 1309 2928 1046 2623 
Q 784 2319 784 1719 
z
" transform="scale(0.015625)"/>
      </defs>
      <use xlink:href="#ArialMT-52"/>
      <use xlink:href="#ArialMT-65" x="72.216797"/>
      <use xlink:href="#ArialMT-73" x="127.832031"/>
      <use xlink:href="#ArialMT-70" x="177.832031"/>
      <use xlink:href="#ArialMT-69" x="233.447266"/>
      <use xlink:href="#ArialMT-72" x="255.664062"/>
      <use xlink:href="#ArialMT-61" x="288.964844"/>
      <use xlink:href="#ArialMT-74" x="344.580078"/>
      <use xlink:href="#ArialMT-6f" x="372.363281"/>
      <use xlink:href="#ArialMT-72" x="427.978516"/>
      <use xlink:href="#ArialMT-79" x="461.279297"/>
      <use xlink:href="#ArialMT-20" x="511.279297"/>
      <use xlink:href="#ArialMT-65" x="539.0625"/>
      <use xlink:href="#ArialMT-78" x="594.677734"/>
      <use xlink:href="#ArialMT-63" x="644.677734"/>
      <use xlink:href="#ArialMT-68" x="694.677734"/>
      <use xlink:href="#ArialMT-61" x="750.292969"/>
      <use xlink:href="#ArialMT-6e" x="805.908203"/>
      <use xlink:href="#ArialMT-67" x="861.523438"/>
      <use xlink:href="#ArialMT-65" x="917.138672"/>
      <use xlink:href="#ArialMT-20" x="972.753906"/>
      <use xlink:href="#ArialMT-72" x="1000.537109"/>
      <use xlink:href="#ArialMT-61" x="1033.837891"/>
      <use xlink:href="#ArialMT-74" x="1089.453125"/>
      <use xlink:href="#ArialMT-69" x="1117.236328"/>
      <use xlink:href="#ArialMT-6f" x="1139.453125"/>
     </g>
    </g>
   </g>
   <g id="PolyCollection_1">
    <defs>
     <path id="m24e036b816" d="M 99.279523 -55.292727 
L 97.661177 -55.292727 
L 97.523698 -57.241018 
L 97.369871 -59.189308 
L 97.199133 -61.137599 
L 97.011171 -63.085889 
L 96.805968 -65.03418 
L 96.583837 -66.98247 
L 96.345463 -68.930761 
L 96.09192 -70.879051 
L 95.824691 -72.827342 
L 95.545666 -74.775632 
L 95.257126 -76.723923 
L 94.961716 -78.672213 
L 94.662391 -80.620504 
L 94.362359 -82.568794 
L 94.064993 -84.517085 
L 93.773739 -86.465375 
L 93.49201 -88.413666 
L 93.223066 -90.361956 
L 92.969898 -92.310247 
L 92.735109 -94.258538 
L 92.520794 -96.206828 
L 92.328436 -98.155119 
L 92.158817 -100.103409 
L 92.011944 -102.0517 
L 91.886994 -103.99999 
L 91.782294 -105.948281 
L 91.695316 -107.896571 
L 91.62271 -109.844862 
L 91.560355 -111.793152 
L 91.503439 -113.741443 
L 91.446563 -115.689733 
L 91.383865 -117.638024 
L 91.309151 -119.586314 
L 91.216049 -121.534605 
L 91.09816 -123.482895 
L 90.949215 -125.431186 
L 90.763224 -127.379476 
L 90.534629 -129.327767 
L 90.258434 -131.276057 
L 89.930331 -133.224348 
L 89.546816 -135.172638 
L 89.105278 -137.120929 
L 88.604086 -139.069219 
L 88.042656 -141.01751 
L 87.4215 -142.9658 
L 86.742268 -144.914091 
L 86.007772 -146.862381 
L 85.221997 -148.810672 
L 84.390101 -150.758962 
L 83.518393 -152.707253 
L 82.6143 -154.655543 
L 81.686311 -156.603834 
L 80.743906 -158.552124 
L 79.797456 -160.500415 
L 78.8581 -162.448705 
L 77.9376 -164.396996 
L 77.04816 -166.345286 
L 76.202234 -168.293577 
L 75.412294 -170.241867 
L 74.690596 -172.190158 
L 74.048914 -174.138449 
L 73.498286 -176.086739 
L 73.048739 -178.03503 
L 72.709043 -179.98332 
L 72.486474 -181.931611 
L 72.386601 -183.879901 
L 72.413122 -185.828192 
L 72.567735 -187.776482 
L 72.850059 -189.724773 
L 73.257625 -191.673063 
L 73.785902 -193.621354 
L 74.428403 -195.569644 
L 75.17683 -197.517935 
L 76.021278 -199.466225 
L 76.950478 -201.414516 
L 77.952076 -203.362806 
L 79.012936 -205.311097 
L 80.119453 -207.259387 
L 81.257874 -209.207678 
L 82.414607 -211.155968 
L 83.576507 -213.104259 
L 84.731143 -215.052549 
L 85.86702 -217.00084 
L 86.973771 -218.94913 
L 88.042292 -220.897421 
L 89.064846 -222.845711 
L 90.035106 -224.794002 
L 90.948171 -226.742292 
L 91.800529 -228.690583 
L 92.589994 -230.638873 
L 93.31561 -232.587164 
L 93.977533 -234.535454 
L 94.576898 -236.483745 
L 95.115673 -238.432035 
L 95.596513 -240.380326 
L 96.022612 -242.328616 
L 96.39756 -244.276907 
L 96.725215 -246.225197 
L 97.009578 -248.173488 
L 99.931121 -248.173488 
L 99.931121 -248.173488 
L 100.215484 -246.225197 
L 100.543139 -244.276907 
L 100.918088 -242.328616 
L 101.344187 -240.380326 
L 101.825027 -238.432035 
L 102.363802 -236.483745 
L 102.963166 -234.535454 
L 103.625089 -232.587164 
L 104.350705 -230.638873 
L 105.140171 -228.690583 
L 105.992529 -226.742292 
L 106.905594 -224.794002 
L 107.875854 -222.845711 
L 108.898407 -220.897421 
L 109.966929 -218.94913 
L 111.073679 -217.00084 
L 112.209557 -215.052549 
L 113.364192 -213.104259 
L 114.526093 -211.155968 
L 115.682825 -209.207678 
L 116.821247 -207.259387 
L 117.927764 -205.311097 
L 118.988623 -203.362806 
L 119.990221 -201.414516 
L 120.919422 -199.466225 
L 121.76387 -197.517935 
L 122.512297 -195.569644 
L 123.154798 -193.621354 
L 123.683075 -191.673063 
L 124.09064 -189.724773 
L 124.372965 -187.776482 
L 124.527577 -185.828192 
L 124.554098 -183.879901 
L 124.454226 -181.931611 
L 124.231656 -179.98332 
L 123.891961 -178.03503 
L 123.442414 -176.086739 
L 122.891785 -174.138449 
L 122.250104 -172.190158 
L 121.528405 -170.241867 
L 120.738466 -168.293577 
L 119.892539 -166.345286 
L 119.0031 -164.396996 
L 118.082599 -162.448705 
L 117.143244 -160.500415 
L 116.196794 -158.552124 
L 115.254389 -156.603834 
L 114.3264 -154.655543 
L 113.422306 -152.707253 
L 112.550598 -150.758962 
L 111.718702 -148.810672 
L 110.932928 -146.862381 
L 110.198432 -144.914091 
L 109.519199 -142.9658 
L 108.898043 -141.01751 
L 108.336613 -139.069219 
L 107.835422 -137.120929 
L 107.393884 -135.172638 
L 107.010368 -133.224348 
L 106.682266 -131.276057 
L 106.40607 -129.327767 
L 106.177475 -127.379476 
L 105.991485 -125.431186 
L 105.842539 -123.482895 
L 105.72465 -121.534605 
L 105.631548 -119.586314 
L 105.556835 -117.638024 
L 105.494136 -115.689733 
L 105.437261 -113.741443 
L 105.380345 -111.793152 
L 105.317989 -109.844862 
L 105.245383 -107.896571 
L 105.158406 -105.948281 
L 105.053705 -103.99999 
L 104.928756 -102.0517 
L 104.781882 -100.103409 
L 104.612264 -98.155119 
L 104.419906 -96.206828 
L 104.20559 -94.258538 
L 103.970801 -92.310247 
L 103.717634 -90.361956 
L 103.44869 -88.413666 
L 103.16696 -86.465375 
L 102.875706 -84.517085 
L 102.57834 -82.568794 
L 102.278308 -80.620504 
L 101.978984 -78.672213 
L 101.683573 -76.723923 
L 101.395033 -74.775632 
L 101.116008 -72.827342 
L 100.848779 -70.879051 
L 100.595236 -68.930761 
L 100.356862 -66.98247 
L 100.134732 -65.03418 
L 99.929528 -63.085889 
L 99.741567 -61.137599 
L 99.570829 -59.189308 
L 99.417001 -57.241018 
L 99.279523 -55.292727 
z
" style="stroke: #3f3f3f; stroke-width: 1.25"/>
    </defs>
    <g clip-path="url(#p9e4c48fdd3)">
     <use xlink:href="#m24e036b816" x="0" y="360" style="fill: #3274a1; stroke: #3f3f3f; stroke-width: 1.25"/>
    </g>
   </g>
   <g id="PolyCollection_2">
    <defs>
     <path id="mfd3c4a1e43" d="M 165.508433 -84.658831 
L 161.800315 -84.658831 
L 161.511031 -86.81253 
L 161.188889 -88.966229 
L 160.832378 -91.119928 
L 160.44031 -93.273627 
L 160.011889 -95.427326 
L 159.54678 -97.581025 
L 159.045181 -99.734724 
L 158.507876 -101.888423 
L 157.936296 -104.042122 
L 157.332553 -106.195821 
L 156.699473 -108.34952 
L 156.040606 -110.503219 
L 155.360217 -112.656918 
L 154.663261 -114.810617 
L 153.955331 -116.964316 
L 153.24259 -119.118015 
L 152.531675 -121.271714 
L 151.829587 -123.425413 
L 151.143557 -125.579112 
L 150.480896 -127.732811 
L 149.848837 -129.88651 
L 149.254365 -132.040209 
L 148.704043 -134.193908 
L 148.203844 -136.347607 
L 147.758983 -138.501306 
L 147.37377 -140.655005 
L 147.051476 -142.808704 
L 146.79422 -144.962403 
L 146.602892 -147.116102 
L 146.477097 -149.269801 
L 146.41514 -151.4235 
L 146.414041 -153.577199 
L 146.469593 -155.730898 
L 146.576445 -157.884597 
L 146.728229 -160.038296 
L 146.917709 -162.191995 
L 147.136962 -164.345694 
L 147.377573 -166.499393 
L 147.630856 -168.653092 
L 147.888075 -170.806791 
L 148.140673 -172.96049 
L 148.380495 -175.114189 
L 148.600002 -177.267888 
L 148.792468 -179.421587 
L 148.952155 -181.575286 
L 149.074461 -183.728985 
L 149.156037 -185.882684 
L 149.194866 -188.036383 
L 149.190315 -190.190082 
L 149.143136 -192.343781 
L 149.055444 -194.49748 
L 148.930645 -196.651179 
L 148.773339 -198.804878 
L 148.589192 -200.958577 
L 148.384773 -203.112276 
L 148.167381 -205.265975 
L 147.944844 -207.419674 
L 147.725312 -209.573373 
L 147.517046 -211.727072 
L 147.328207 -213.880771 
L 147.166647 -216.03447 
L 147.03972 -218.188169 
L 146.954102 -220.341868 
L 146.915643 -222.495567 
L 146.929231 -224.649266 
L 146.998699 -226.802965 
L 147.126747 -228.956664 
L 147.314909 -231.110363 
L 147.563544 -233.264062 
L 147.871855 -235.417761 
L 148.237946 -237.57146 
L 148.658891 -239.725159 
L 149.130842 -241.878858 
L 149.649141 -244.032557 
L 150.208454 -246.186256 
L 150.802917 -248.339955 
L 151.426281 -250.493654 
L 152.072065 -252.647353 
L 152.733698 -254.801052 
L 153.404663 -256.954751 
L 154.078622 -259.10845 
L 154.749536 -261.262149 
L 155.411762 -263.415848 
L 156.060135 -265.569547 
L 156.690039 -267.723246 
L 157.297446 -269.876945 
L 157.878951 -272.030644 
L 158.431779 -274.184343 
L 158.953785 -276.338042 
L 159.443431 -278.491741 
L 159.899758 -280.64544 
L 160.322344 -282.799139 
L 160.711256 -284.952838 
L 161.066993 -287.106537 
L 161.390432 -289.260236 
L 161.682764 -291.413935 
L 161.945437 -293.567634 
L 162.180098 -295.721333 
L 162.388536 -297.875032 
L 164.920213 -297.875032 
L 164.920213 -297.875032 
L 165.128651 -295.721333 
L 165.363311 -293.567634 
L 165.625985 -291.413935 
L 165.918317 -289.260236 
L 166.241756 -287.106537 
L 166.597493 -284.952838 
L 166.986405 -282.799139 
L 167.408991 -280.64544 
L 167.865317 -278.491741 
L 168.354963 -276.338042 
L 168.876969 -274.184343 
L 169.429798 -272.030644 
L 170.011303 -269.876945 
L 170.61871 -267.723246 
L 171.248613 -265.569547 
L 171.896987 -263.415848 
L 172.559212 -261.262149 
L 173.230126 -259.10845 
L 173.904086 -256.954751 
L 174.57505 -254.801052 
L 175.236684 -252.647353 
L 175.882467 -250.493654 
L 176.505832 -248.339955 
L 177.100295 -246.186256 
L 177.659608 -244.032557 
L 178.177907 -241.878858 
L 178.649857 -239.725159 
L 179.070803 -237.57146 
L 179.436893 -235.417761 
L 179.745205 -233.264062 
L 179.99384 -231.110363 
L 180.182002 -228.956664 
L 180.31005 -226.802965 
L 180.379517 -224.649266 
L 180.393106 -222.495567 
L 180.354646 -220.341868 
L 180.269029 -218.188169 
L 180.142101 -216.03447 
L 179.980541 -213.880771 
L 179.791702 -211.727072 
L 179.583437 -209.573373 
L 179.363905 -207.419674 
L 179.141367 -205.265975 
L 178.923975 -203.112276 
L 178.719557 -200.958577 
L 178.53541 -198.804878 
L 178.378104 -196.651179 
L 178.253305 -194.49748 
L 178.165612 -192.343781 
L 178.118434 -190.190082 
L 178.113883 -188.036383 
L 178.152712 -185.882684 
L 178.234287 -183.728985 
L 178.356594 -181.575286 
L 178.516281 -179.421587 
L 178.708747 -177.267888 
L 178.928254 -175.114189 
L 179.168076 -172.96049 
L 179.420674 -170.806791 
L 179.677893 -168.653092 
L 179.931176 -166.499393 
L 180.171787 -164.345694 
L 180.391039 -162.191995 
L 180.58052 -160.038296 
L 180.732304 -157.884597 
L 180.839156 -155.730898 
L 180.894708 -153.577199 
L 180.893609 -151.4235 
L 180.831651 -149.269801 
L 180.705856 -147.116102 
L 180.514528 -144.962403 
L 180.257273 -142.808704 
L 179.934978 -140.655005 
L 179.549766 -138.501306 
L 179.104905 -136.347607 
L 178.604705 -134.193908 
L 178.054384 -132.040209 
L 177.459912 -129.88651 
L 176.827853 -127.732811 
L 176.165192 -125.579112 
L 175.479161 -123.425413 
L 174.777074 -121.271714 
L 174.066159 -119.118015 
L 173.353417 -116.964316 
L 172.645487 -114.810617 
L 171.948531 -112.656918 
L 171.268143 -110.503219 
L 170.609276 -108.34952 
L 169.976196 -106.195821 
L 169.372453 -104.042122 
L 168.800872 -101.888423 
L 168.263568 -99.734724 
L 167.761968 -97.581025 
L 167.29686 -95.427326 
L 166.868438 -93.273627 
L 166.47637 -91.119928 
L 166.119859 -88.966229 
L 165.797717 -86.81253 
L 165.508433 -84.658831 
z
" style="stroke: #3f3f3f; stroke-width: 1.25"/>
    </defs>
    <g clip-path="url(#p9e4c48fdd3)">
     <use xlink:href="#mfd3c4a1e43" x="0" y="360" style="fill: #e1812c; stroke: #3f3f3f; stroke-width: 1.25"/>
    </g>
   </g>
   <g id="PolyCollection_3">
    <defs>
     <path id="m637ac22a9f" d="M 263.418218 -175.025207 
L 259.442605 -175.025207 
L 259.034332 -176.509268 
L 258.561959 -177.99333 
L 258.019869 -179.477391 
L 257.402875 -180.961452 
L 256.70644 -182.445513 
L 255.926903 -183.929575 
L 255.061717 -185.413636 
L 254.10968 -186.897697 
L 253.071145 -188.381758 
L 251.948211 -189.86582 
L 250.744874 -191.349881 
L 249.467122 -192.833942 
L 248.122984 -194.318004 
L 246.722502 -195.802065 
L 245.277641 -197.286126 
L 243.80212 -198.770187 
L 242.311183 -200.254249 
L 240.821293 -201.73831 
L 239.34978 -203.222371 
L 237.914443 -204.706432 
L 236.533122 -206.190494 
L 235.223261 -207.674555 
L 234.001476 -209.158616 
L 232.88314 -210.642678 
L 231.882017 -212.126739 
L 231.009942 -213.6108 
L 230.276564 -215.094861 
L 229.689166 -216.578923 
L 229.252554 -218.062984 
L 228.969024 -219.547045 
L 228.838399 -221.031106 
L 228.858131 -222.515168 
L 229.023457 -223.999229 
L 229.327596 -225.48329 
L 229.761983 -226.967351 
L 230.316522 -228.451413 
L 230.979847 -229.935474 
L 231.739586 -231.419535 
L 232.582621 -232.903597 
L 233.495333 -234.387658 
L 234.463837 -235.871719 
L 235.474205 -237.35578 
L 236.512664 -238.839842 
L 237.565796 -240.323903 
L 238.620713 -241.807964 
L 239.665226 -243.292025 
L 240.688008 -244.776087 
L 241.678738 -246.260148 
L 242.628241 -247.744209 
L 243.528604 -249.228271 
L 244.373281 -250.712332 
L 245.157176 -252.196393 
L 245.876693 -253.680454 
L 246.529763 -255.164516 
L 247.115837 -256.648577 
L 247.635841 -258.132638 
L 248.092102 -259.616699 
L 248.488239 -261.100761 
L 248.829019 -262.584822 
L 249.120192 -264.068883 
L 249.368302 -265.552944 
L 249.580486 -267.037006 
L 249.764258 -268.521067 
L 249.927298 -270.005128 
L 250.077243 -271.48919 
L 250.221491 -272.973251 
L 250.367015 -274.457312 
L 250.520208 -275.941373 
L 250.686746 -277.425435 
L 250.871473 -278.909496 
L 251.078325 -280.393557 
L 251.310275 -281.877618 
L 251.569306 -283.36168 
L 251.856417 -284.845741 
L 252.171647 -286.329802 
L 252.514132 -287.813864 
L 252.882173 -289.297925 
L 253.273329 -290.781986 
L 253.684528 -292.266047 
L 254.112177 -293.750109 
L 254.552295 -295.23417 
L 255.000642 -296.718231 
L 255.452845 -298.202292 
L 255.904528 -299.686354 
L 256.351431 -301.170415 
L 256.789514 -302.654476 
L 257.215055 -304.138537 
L 257.624729 -305.622599 
L 258.015663 -307.10666 
L 258.385482 -308.590721 
L 258.732334 -310.074783 
L 259.054889 -311.558844 
L 259.352331 -313.042905 
L 259.624335 -314.526966 
L 259.87102 -316.011028 
L 260.092907 -317.495089 
L 260.29086 -318.97915 
L 260.466027 -320.463211 
L 260.619777 -321.947273 
L 262.241045 -321.947273 
L 262.241045 -321.947273 
L 262.394796 -320.463211 
L 262.569962 -318.97915 
L 262.767915 -317.495089 
L 262.989802 -316.011028 
L 263.236487 -314.526966 
L 263.508491 -313.042905 
L 263.805934 -311.558844 
L 264.128489 -310.074783 
L 264.47534 -308.590721 
L 264.84516 -307.10666 
L 265.236094 -305.622599 
L 265.645767 -304.138537 
L 266.071309 -302.654476 
L 266.509392 -301.170415 
L 266.956294 -299.686354 
L 267.407977 -298.202292 
L 267.86018 -296.718231 
L 268.308527 -295.23417 
L 268.748646 -293.750109 
L 269.176295 -292.266047 
L 269.587493 -290.781986 
L 269.97865 -289.297925 
L 270.34669 -287.813864 
L 270.689175 -286.329802 
L 271.004406 -284.845741 
L 271.291517 -283.36168 
L 271.550548 -281.877618 
L 271.782498 -280.393557 
L 271.98935 -278.909496 
L 272.174077 -277.425435 
L 272.340614 -275.941373 
L 272.493808 -274.457312 
L 272.639332 -272.973251 
L 272.783579 -271.48919 
L 272.933524 -270.005128 
L 273.096564 -268.521067 
L 273.280336 -267.037006 
L 273.49252 -265.552944 
L 273.740631 -264.068883 
L 274.031804 -262.584822 
L 274.372584 -261.100761 
L 274.768721 -259.616699 
L 275.224982 -258.132638 
L 275.744986 -256.648577 
L 276.331059 -255.164516 
L 276.984129 -253.680454 
L 277.703646 -252.196393 
L 278.487541 -250.712332 
L 279.332219 -249.228271 
L 280.232581 -247.744209 
L 281.182084 -246.260148 
L 282.172815 -244.776087 
L 283.195597 -243.292025 
L 284.24011 -241.807964 
L 285.295026 -240.323903 
L 286.348158 -238.839842 
L 287.386618 -237.35578 
L 288.396985 -235.871719 
L 289.36549 -234.387658 
L 290.278202 -232.903597 
L 291.121236 -231.419535 
L 291.880976 -229.935474 
L 292.544301 -228.451413 
L 293.09884 -226.967351 
L 293.533227 -225.48329 
L 293.837366 -223.999229 
L 294.002691 -222.515168 
L 294.022424 -221.031106 
L 293.891799 -219.547045 
L 293.608269 -218.062984 
L 293.171656 -216.578923 
L 292.584258 -215.094861 
L 291.850881 -213.6108 
L 290.978805 -212.126739 
L 289.977683 -210.642678 
L 288.859347 -209.158616 
L 287.637561 -207.674555 
L 286.327701 -206.190494 
L 284.94638 -204.706432 
L 283.511042 -203.222371 
L 282.039529 -201.73831 
L 280.549639 -200.254249 
L 279.058702 -198.770187 
L 277.583182 -197.286126 
L 276.13832 -195.802065 
L 274.737838 -194.318004 
L 273.3937 -192.833942 
L 272.115949 -191.349881 
L 270.912611 -189.86582 
L 269.789678 -188.381758 
L 268.751142 -186.897697 
L 267.799105 -185.413636 
L 266.933919 -183.929575 
L 266.154382 -182.445513 
L 265.457947 -180.961452 
L 264.840953 -179.477391 
L 264.298863 -177.99333 
L 263.82649 -176.509268 
L 263.418218 -175.025207 
z
" style="stroke: #3f3f3f; stroke-width: 1.25"/>
    </defs>
    <g clip-path="url(#p9e4c48fdd3)">
     <use xlink:href="#m637ac22a9f" x="0" y="360" style="fill: #3274a1; stroke: #3f3f3f; stroke-width: 1.25"/>
    </g>
   </g>
   <g id="PolyCollection_4">
    <defs>
     <path id="mef55e67b25" d="M 327.503786 -95.162435 
L 325.725085 -95.162435 
L 325.529487 -97.06327 
L 325.301889 -98.964105 
L 325.039652 -100.864939 
L 324.74047 -102.765774 
L 324.402487 -104.666609 
L 324.024414 -106.567444 
L 323.605631 -108.468279 
L 323.146271 -110.369114 
L 322.647272 -112.269949 
L 322.110397 -114.170784 
L 321.53821 -116.071619 
L 320.934 -117.972454 
L 320.301666 -119.873289 
L 319.645545 -121.774124 
L 318.970205 -123.674958 
L 318.280203 -125.575793 
L 317.579815 -127.476628 
L 316.872775 -129.377463 
L 316.162005 -131.278298 
L 315.449393 -133.179133 
L 314.735614 -135.079968 
L 314.020014 -136.980803 
L 313.300581 -138.881638 
L 312.574015 -140.782473 
L 311.835888 -142.683308 
L 311.08091 -144.584143 
L 310.303294 -146.484977 
L 309.497195 -148.385812 
L 308.657217 -150.286647 
L 307.778949 -152.187482 
L 306.859516 -154.088317 
L 305.898098 -155.989152 
L 304.896389 -157.889987 
L 303.858962 -159.790822 
L 302.793517 -161.691657 
L 301.710971 -163.592492 
L 300.625395 -165.493327 
L 299.553771 -167.394162 
L 298.515581 -169.294996 
L 297.532238 -171.195831 
L 296.626371 -173.096666 
L 295.821011 -174.997501 
L 295.138693 -176.898336 
L 294.600537 -178.799171 
L 294.22534 -180.700006 
L 294.02873 -182.600841 
L 294.022424 -184.501676 
L 294.21363 -186.402511 
L 294.604627 -188.303346 
L 295.192541 -190.204181 
L 295.969335 -192.105015 
L 296.922011 -194.00585 
L 298.03302 -195.906685 
L 299.280858 -197.80752 
L 300.640821 -199.708355 
L 302.085876 -201.60919 
L 303.587616 -203.510025 
L 305.117259 -205.41086 
L 306.646618 -207.311695 
L 308.149041 -209.21253 
L 309.600241 -211.113365 
L 310.97901 -213.0142 
L 312.267779 -214.915034 
L 313.453009 -216.815869 
L 314.525403 -218.716704 
L 315.479939 -220.617539 
L 316.315734 -222.518374 
L 317.035751 -224.419209 
L 317.646372 -226.320044 
L 318.156867 -228.220879 
L 318.578777 -230.121714 
L 318.925263 -232.022549 
L 319.210425 -233.923384 
L 319.448651 -235.824219 
L 319.653998 -237.725053 
L 319.839648 -239.625888 
L 320.017446 -241.526723 
L 320.197545 -243.427558 
L 320.388151 -245.328393 
L 320.595389 -247.229228 
L 320.823274 -249.130063 
L 321.07378 -251.030898 
L 321.347004 -252.931733 
L 321.641392 -254.832568 
L 321.954024 -256.733403 
L 322.280931 -258.634238 
L 322.617424 -260.535072 
L 322.958416 -262.435907 
L 323.298727 -264.336742 
L 323.633353 -266.237577 
L 323.957685 -268.138412 
L 324.267686 -270.039247 
L 324.560008 -271.940082 
L 324.832064 -273.840917 
L 325.082042 -275.741752 
L 325.308891 -277.642587 
L 325.512259 -279.543422 
L 325.692418 -281.444256 
L 325.850162 -283.345091 
L 327.37871 -283.345091 
L 327.37871 -283.345091 
L 327.536454 -281.444256 
L 327.716613 -279.543422 
L 327.919981 -277.642587 
L 328.14683 -275.741752 
L 328.396808 -273.840917 
L 328.668863 -271.940082 
L 328.961186 -270.039247 
L 329.271187 -268.138412 
L 329.595519 -266.237577 
L 329.930145 -264.336742 
L 330.270456 -262.435907 
L 330.611448 -260.535072 
L 330.94794 -258.634238 
L 331.274847 -256.733403 
L 331.58748 -254.832568 
L 331.881868 -252.931733 
L 332.155091 -251.030898 
L 332.405598 -249.130063 
L 332.633483 -247.229228 
L 332.840721 -245.328393 
L 333.031326 -243.427558 
L 333.211425 -241.526723 
L 333.389224 -239.625888 
L 333.574874 -237.725053 
L 333.780221 -235.824219 
L 334.018446 -233.923384 
L 334.303609 -232.022549 
L 334.650094 -230.121714 
L 335.072005 -228.220879 
L 335.582499 -226.320044 
L 336.193121 -224.419209 
L 336.913137 -222.518374 
L 337.748932 -220.617539 
L 338.703468 -218.716704 
L 339.775862 -216.815869 
L 340.961093 -214.915034 
L 342.249862 -213.0142 
L 343.628631 -211.113365 
L 345.079831 -209.21253 
L 346.582254 -207.311695 
L 348.111613 -205.41086 
L 349.641255 -203.510025 
L 351.142996 -201.60919 
L 352.58805 -199.708355 
L 353.948013 -197.80752 
L 355.195852 -195.906685 
L 356.306861 -194.00585 
L 357.259537 -192.105015 
L 358.03633 -190.204181 
L 358.624245 -188.303346 
L 359.015242 -186.402511 
L 359.206448 -184.501676 
L 359.200142 -182.600841 
L 359.003532 -180.700006 
L 358.628335 -178.799171 
L 358.090179 -176.898336 
L 357.407861 -174.997501 
L 356.602501 -173.096666 
L 355.696634 -171.195831 
L 354.713291 -169.294996 
L 353.675101 -167.394162 
L 352.603477 -165.493327 
L 351.517901 -163.592492 
L 350.435355 -161.691657 
L 349.369909 -159.790822 
L 348.332483 -157.889987 
L 347.330773 -155.989152 
L 346.369355 -154.088317 
L 345.449923 -152.187482 
L 344.571655 -150.286647 
L 343.731676 -148.385812 
L 342.925578 -146.484977 
L 342.147962 -144.584143 
L 341.392984 -142.683308 
L 340.654856 -140.782473 
L 339.92829 -138.881638 
L 339.208858 -136.980803 
L 338.493258 -135.079968 
L 337.779479 -133.179133 
L 337.066867 -131.278298 
L 336.356097 -129.377463 
L 335.649056 -127.476628 
L 334.948669 -125.575793 
L 334.258667 -123.674958 
L 333.583327 -121.774124 
L 332.927206 -119.873289 
L 332.294871 -117.972454 
L 331.690662 -116.071619 
L 331.118474 -114.170784 
L 330.5816 -112.269949 
L 330.082601 -110.369114 
L 329.623241 -108.468279 
L 329.204458 -106.567444 
L 328.826385 -104.666609 
L 328.488402 -102.765774 
L 328.18922 -100.864939 
L 327.926983 -98.964105 
L 327.699385 -97.06327 
L 327.503786 -95.162435 
z
" style="stroke: #3f3f3f; stroke-width: 1.25"/>
    </defs>
    <g clip-path="url(#p9e4c48fdd3)">
     <use xlink:href="#mef55e67b25" x="0" y="360" style="fill: #e1812c; stroke: #3f3f3f; stroke-width: 1.25"/>
    </g>
   </g>
   <g id="line2d_7">
    <path d="M 98.47035 202.553763 
L 98.47035 160.566253 
" clip-path="url(#p9e4c48fdd3)" style="fill: none; stroke: #3f3f3f; stroke-width: 1.875; stroke-linecap: round"/>
   </g>
   <g id="line2d_8">
    <path d="M 98.47035 195.818234 
L 98.47035 173.694721 
" clip-path="url(#p9e4c48fdd3)" style="fill: none; stroke: #3f3f3f; stroke-width: 5.625; stroke-linecap: round"/>
   </g>
   <g id="line2d_9">
    <path d="M 98.47035 175.462193 
" clip-path="url(#p9e4c48fdd3)" style="fill: none; stroke: #3f3f3f; stroke-width: 1.5; stroke-linecap: round"/>
    <defs>
     <path id="mf17d8c53c0" d="M 2.34375 0 
L -2.34375 -0 
" style="stroke: #ffffff; stroke-width: 1.125"/>
    </defs>
    <g clip-path="url(#p9e4c48fdd3)">
     <use xlink:href="#mf17d8c53c0" x="98.47035" y="175.462193" style="fill: #ffffff; stroke: #ffffff; stroke-width: 1.125"/>
    </g>
   </g>
   <g id="line2d_10">
    <path d="M 163.654374 214.465448 
L 163.654374 123.00069 
" clip-path="url(#p9e4c48fdd3)" style="fill: none; stroke: #3f3f3f; stroke-width: 1.875; stroke-linecap: round"/>
   </g>
   <g id="line2d_11">
    <path d="M 163.654374 210.788057 
L 163.654374 136.091926 
" clip-path="url(#p9e4c48fdd3)" style="fill: none; stroke: #3f3f3f; stroke-width: 5.625; stroke-linecap: round"/>
   </g>
   <g id="line2d_12">
    <path d="M 163.654374 174.67816 
" clip-path="url(#p9e4c48fdd3)" style="fill: none; stroke: #3f3f3f; stroke-width: 1.5; stroke-linecap: round"/>
    <g clip-path="url(#p9e4c48fdd3)">
     <use xlink:href="#mf17d8c53c0" x="163.654374" y="174.67816" style="fill: #ffffff; stroke: #ffffff; stroke-width: 1.125"/>
    </g>
   </g>
   <g id="line2d_13">
    <path d="M 261.430411 150.283705 
L 261.430411 90.9494 
" clip-path="url(#p9e4c48fdd3)" style="fill: none; stroke: #3f3f3f; stroke-width: 1.875; stroke-linecap: round"/>
   </g>
   <g id="line2d_14">
    <path d="M 261.430411 145.39464 
L 261.430411 120.498566 
" clip-path="url(#p9e4c48fdd3)" style="fill: none; stroke: #3f3f3f; stroke-width: 5.625; stroke-linecap: round"/>
   </g>
   <g id="line2d_15">
    <path d="M 261.430411 133.351245 
" clip-path="url(#p9e4c48fdd3)" style="fill: none; stroke: #3f3f3f; stroke-width: 1.5; stroke-linecap: round"/>
    <g clip-path="url(#p9e4c48fdd3)">
     <use xlink:href="#mf17d8c53c0" x="261.430411" y="133.351245" style="fill: #ffffff; stroke: #ffffff; stroke-width: 1.125"/>
    </g>
   </g>
   <g id="line2d_16">
    <path d="M 326.614436 210.011854 
L 326.614436 165.662708 
" clip-path="url(#p9e4c48fdd3)" style="fill: none; stroke: #3f3f3f; stroke-width: 1.875; stroke-linecap: round"/>
   </g>
   <g id="line2d_17">
    <path d="M 326.614436 187.031652 
L 326.614436 166.062201 
" clip-path="url(#p9e4c48fdd3)" style="fill: none; stroke: #3f3f3f; stroke-width: 5.625; stroke-linecap: round"/>
   </g>
   <g id="line2d_18">
    <path d="M 326.614436 178.519529 
" clip-path="url(#p9e4c48fdd3)" style="fill: none; stroke: #3f3f3f; stroke-width: 1.5; stroke-linecap: round"/>
    <g clip-path="url(#p9e4c48fdd3)">
     <use xlink:href="#mf17d8c53c0" x="326.614436" y="178.519529" style="fill: #ffffff; stroke: #ffffff; stroke-width: 1.125"/>
    </g>
   </g>
   <g id="patch_3">
    <path d="M 49.582331 318.04 
L 49.582331 24.72 
" style="fill: none; stroke: #cccccc; stroke-width: 0.8; stroke-linejoin: miter; stroke-linecap: square"/>
   </g>
   <g id="patch_4">
    <path d="M 49.582331 318.04 
L 375.502454 318.04 
" style="fill: none; stroke: #cccccc; stroke-width: 0.8; stroke-linejoin: miter; stroke-linecap: square"/>
   </g>
   <g id="text_11">
    <!-- sex = f -->
    <g style="fill: #262626" transform="translate(197.674424 18.72) scale(0.1 -0.1)">
     <defs>
      <path id="ArialMT-3d" d="M 3381 2694 
L 356 2694 
L 356 3219 
L 3381 3219 
L 3381 2694 
z
M 3381 1303 
L 356 1303 
L 356 1828 
L 3381 1828 
L 3381 1303 
z
" transform="scale(0.015625)"/>
      <path id="ArialMT-66" d="M 556 0 
L 556 2881 
L 59 2881 
L 59 3319 
L 556 3319 
L 556 3672 
Q 556 4006 616 4169 
Q 697 4388 901 4523 
Q 1106 4659 1475 4659 
Q 1713 4659 2000 4603 
L 1916 4113 
Q 1741 4144 1584 4144 
Q 1328 4144 1222 4034 
Q 1116 3925 1116 3625 
L 1116 3319 
L 1763 3319 
L 1763 2881 
L 1116 2881 
L 1116 0 
L 556 0 
z
" transform="scale(0.015625)"/>
     </defs>
     <use xlink:href="#ArialMT-73"/>
     <use xlink:href="#ArialMT-65" x="50"/>
     <use xlink:href="#ArialMT-78" x="105.615234"/>
     <use xlink:href="#ArialMT-20" x="155.615234"/>
     <use xlink:href="#ArialMT-3d" x="183.398438"/>
     <use xlink:href="#ArialMT-20" x="241.796875"/>
     <use xlink:href="#ArialMT-66" x="269.580078"/>
    </g>
   </g>
  </g>
  <g id="axes_2">
   <g id="patch_5">
    <path d="M 386.290377 318.04 
L 712.2105 318.04 
L 712.2105 24.72 
L 386.290377 24.72 
z
" style="fill: #ffffff"/>
   </g>
   <g id="matplotlib.axis_3">
    <g id="xtick_3">
     <g id="text_12">
      <!-- Baia -->
      <g style="fill: #262626" transform="translate(457.763376 332.197812) scale(0.1 -0.1)">
       <use xlink:href="#ArialMT-42"/>
       <use xlink:href="#ArialMT-61" x="66.699219"/>
       <use xlink:href="#ArialMT-69" x="122.314453"/>
       <use xlink:href="#ArialMT-61" x="144.53125"/>
      </g>
     </g>
    </g>
    <g id="xtick_4">
     <g id="text_13">
      <!-- Jurilovca -->
      <g style="fill: #262626" transform="translate(611.002344 332.197812) scale(0.1 -0.1)">
       <use xlink:href="#ArialMT-4a"/>
       <use xlink:href="#ArialMT-75" x="50"/>
       <use xlink:href="#ArialMT-72" x="105.615234"/>
       <use xlink:href="#ArialMT-69" x="138.916016"/>
       <use xlink:href="#ArialMT-6c" x="161.132812"/>
       <use xlink:href="#ArialMT-6f" x="183.349609"/>
       <use xlink:href="#ArialMT-76" x="238.964844"/>
       <use xlink:href="#ArialMT-63" x="288.964844"/>
       <use xlink:href="#ArialMT-61" x="338.964844"/>
      </g>
     </g>
    </g>
    <g id="text_14">
     <!-- Location -->
     <g style="fill: #262626" transform="translate(530.348095 345.343125) scale(0.1 -0.1)">
      <use xlink:href="#ArialMT-4c"/>
      <use xlink:href="#ArialMT-6f" x="55.615234"/>
      <use xlink:href="#ArialMT-63" x="111.230469"/>
      <use xlink:href="#ArialMT-61" x="161.230469"/>
      <use xlink:href="#ArialMT-74" x="216.845703"/>
      <use xlink:href="#ArialMT-69" x="244.628906"/>
      <use xlink:href="#ArialMT-6f" x="266.845703"/>
      <use xlink:href="#ArialMT-6e" x="322.460938"/>
     </g>
    </g>
   </g>
   <g id="matplotlib.axis_4">
    <g id="ytick_7">
     <g id="line2d_19">
      <path d="M 386.290377 272.882129 
L 712.2105 272.882129 
" clip-path="url(#p8cda446b71)" style="fill: none; stroke: #cccccc; stroke-width: 0.8; stroke-linecap: round"/>
     </g>
    </g>
    <g id="ytick_8">
     <g id="line2d_20">
      <path d="M 386.290377 225.783737 
L 712.2105 225.783737 
" clip-path="url(#p8cda446b71)" style="fill: none; stroke: #cccccc; stroke-width: 0.8; stroke-linecap: round"/>
     </g>
    </g>
    <g id="ytick_9">
     <g id="line2d_21">
      <path d="M 386.290377 178.685345 
L 712.2105 178.685345 
" clip-path="url(#p8cda446b71)" style="fill: none; stroke: #cccccc; stroke-width: 0.8; stroke-linecap: round"/>
     </g>
    </g>
    <g id="ytick_10">
     <g id="line2d_22">
      <path d="M 386.290377 131.586953 
L 712.2105 131.586953 
" clip-path="url(#p8cda446b71)" style="fill: none; stroke: #cccccc; stroke-width: 0.8; stroke-linecap: round"/>
     </g>
    </g>
    <g id="ytick_11">
     <g id="line2d_23">
      <path d="M 386.290377 84.488561 
L 712.2105 84.488561 
" clip-path="url(#p8cda446b71)" style="fill: none; stroke: #cccccc; stroke-width: 0.8; stroke-linecap: round"/>
     </g>
    </g>
    <g id="ytick_12">
     <g id="line2d_24">
      <path d="M 386.290377 37.390169 
L 712.2105 37.390169 
" clip-path="url(#p8cda446b71)" style="fill: none; stroke: #cccccc; stroke-width: 0.8; stroke-linecap: round"/>
     </g>
    </g>
   </g>
   <g id="PolyCollection_5">
    <defs>
     <path id="mda4cdf0bd3" d="M 435.788205 -111.05236 
L 434.568586 -111.05236 
L 434.431324 -112.809488 
L 434.270474 -114.566617 
L 434.083724 -116.323745 
L 433.868902 -118.080874 
L 433.624067 -119.838002 
L 433.34759 -121.595131 
L 433.038245 -123.352259 
L 432.695293 -125.109388 
L 432.31855 -126.866517 
L 431.90845 -128.623645 
L 431.466078 -130.380774 
L 430.993197 -132.137902 
L 430.492233 -133.895031 
L 429.966252 -135.652159 
L 429.418897 -137.409288 
L 428.854312 -139.166417 
L 428.277043 -140.923545 
L 427.691921 -142.680674 
L 427.103935 -144.437802 
L 426.5181 -146.194931 
L 425.939325 -147.952059 
L 425.372284 -149.709188 
L 424.821299 -151.466316 
L 424.290237 -153.223445 
L 423.782418 -154.980574 
L 423.300554 -156.737702 
L 422.846694 -158.494831 
L 422.422195 -160.251959 
L 422.02772 -162.009088 
L 421.663238 -163.766216 
L 421.328063 -165.523345 
L 421.020893 -167.280473 
L 420.739878 -169.037602 
L 420.482695 -170.794731 
L 420.246647 -172.551859 
L 420.028762 -174.308988 
L 419.825915 -176.066116 
L 419.634951 -177.823245 
L 419.45281 -179.580373 
L 419.276653 -181.337502 
L 419.103986 -183.094631 
L 418.932758 -184.851759 
L 418.761457 -186.608888 
L 418.589168 -188.366016 
L 418.415616 -190.123145 
L 418.241169 -191.880273 
L 418.066817 -193.637402 
L 417.894121 -195.39453 
L 417.725135 -197.151659 
L 417.562314 -198.908788 
L 417.408405 -200.665916 
L 417.266338 -202.423045 
L 417.139117 -204.180173 
L 417.029728 -205.937302 
L 416.941058 -207.69443 
L 416.87584 -209.451559 
L 416.836617 -211.208688 
L 416.82573 -212.965816 
L 416.845319 -214.722945 
L 416.897344 -216.480073 
L 416.983607 -218.237202 
L 417.105772 -219.99433 
L 417.265383 -221.751459 
L 417.463862 -223.508587 
L 417.702496 -225.265716 
L 417.982397 -227.022845 
L 418.304448 -228.779973 
L 418.669234 -230.537102 
L 419.076954 -232.29423 
L 419.527332 -234.051359 
L 420.019535 -235.808487 
L 420.552093 -237.565616 
L 421.122837 -239.322744 
L 421.728873 -241.079873 
L 422.366569 -242.837002 
L 423.031587 -244.59413 
L 423.718939 -246.351259 
L 424.423086 -248.108387 
L 425.138055 -249.865516 
L 425.857581 -251.622644 
L 426.575275 -253.379773 
L 427.284782 -255.136902 
L 427.979958 -256.89403 
L 428.655027 -258.651159 
L 429.304725 -260.408287 
L 429.924424 -262.165416 
L 430.510229 -263.922544 
L 431.059042 -265.679673 
L 431.5686 -267.436801 
L 432.037476 -269.19393 
L 432.465052 -270.951059 
L 432.851472 -272.708187 
L 433.197567 -274.465316 
L 433.504764 -276.222444 
L 433.774986 -277.979573 
L 434.01055 -279.736701 
L 434.214056 -281.49383 
L 434.388285 -283.250958 
L 434.536108 -285.008087 
L 435.820683 -285.008087 
L 435.820683 -285.008087 
L 435.968506 -283.250958 
L 436.142735 -281.49383 
L 436.34624 -279.736701 
L 436.581804 -277.979573 
L 436.852027 -276.222444 
L 437.159223 -274.465316 
L 437.505318 -272.708187 
L 437.891739 -270.951059 
L 438.319315 -269.19393 
L 438.788191 -267.436801 
L 439.297749 -265.679673 
L 439.846562 -263.922544 
L 440.432367 -262.165416 
L 441.052066 -260.408287 
L 441.701764 -258.651159 
L 442.376832 -256.89403 
L 443.072009 -255.136902 
L 443.781516 -253.379773 
L 444.499209 -251.622644 
L 445.218736 -249.865516 
L 445.933705 -248.108387 
L 446.637852 -246.351259 
L 447.325204 -244.59413 
L 447.990221 -242.837002 
L 448.627917 -241.079873 
L 449.233953 -239.322744 
L 449.804698 -237.565616 
L 450.337255 -235.808487 
L 450.829459 -234.051359 
L 451.279837 -232.29423 
L 451.687556 -230.537102 
L 452.052342 -228.779973 
L 452.374394 -227.022845 
L 452.654295 -225.265716 
L 452.892928 -223.508587 
L 453.091408 -221.751459 
L 453.251019 -219.99433 
L 453.373184 -218.237202 
L 453.459446 -216.480073 
L 453.511472 -214.722945 
L 453.531061 -212.965816 
L 453.520174 -211.208688 
L 453.480951 -209.451559 
L 453.415733 -207.69443 
L 453.327063 -205.937302 
L 453.217673 -204.180173 
L 453.090453 -202.423045 
L 452.948385 -200.665916 
L 452.794477 -198.908788 
L 452.631656 -197.151659 
L 452.46267 -195.39453 
L 452.289974 -193.637402 
L 452.115622 -191.880273 
L 451.941175 -190.123145 
L 451.767623 -188.366016 
L 451.595334 -186.608888 
L 451.424033 -184.851759 
L 451.252805 -183.094631 
L 451.080137 -181.337502 
L 450.903981 -179.580373 
L 450.72184 -177.823245 
L 450.530875 -176.066116 
L 450.328029 -174.308988 
L 450.110144 -172.551859 
L 449.874095 -170.794731 
L 449.616913 -169.037602 
L 449.335898 -167.280473 
L 449.028728 -165.523345 
L 448.693553 -163.766216 
L 448.329071 -162.009088 
L 447.934595 -160.251959 
L 447.510097 -158.494831 
L 447.056237 -156.737702 
L 446.574373 -154.980574 
L 446.066554 -153.223445 
L 445.535491 -151.466316 
L 444.984507 -149.709188 
L 444.417466 -147.952059 
L 443.838691 -146.194931 
L 443.252856 -144.437802 
L 442.664869 -142.680674 
L 442.079747 -140.923545 
L 441.502478 -139.166417 
L 440.937894 -137.409288 
L 440.390539 -135.652159 
L 439.864558 -133.895031 
L 439.363594 -132.137902 
L 438.890713 -130.380774 
L 438.448341 -128.623645 
L 438.03824 -126.866517 
L 437.661498 -125.109388 
L 437.318546 -123.352259 
L 437.009201 -121.595131 
L 436.732724 -119.838002 
L 436.487888 -118.080874 
L 436.273067 -116.323745 
L 436.086317 -114.566617 
L 435.925467 -112.809488 
L 435.788205 -111.05236 
z
" style="stroke: #3f3f3f; stroke-width: 1.25"/>
    </defs>
    <g clip-path="url(#p8cda446b71)">
     <use xlink:href="#mda4cdf0bd3" x="0" y="360" style="fill: #3274a1; stroke: #3f3f3f; stroke-width: 1.25"/>
    </g>
   </g>
   <g id="PolyCollection_6">
    <defs>
     <path id="meba3f4f95a" d="M 501.025441 -141.247616 
L 499.699399 -141.247616 
L 499.526343 -142.000776 
L 499.319946 -142.753937 
L 499.07707 -143.507097 
L 498.795099 -144.260257 
L 498.472151 -145.013417 
L 498.107276 -145.766578 
L 497.700625 -146.519738 
L 497.253581 -147.272898 
L 496.76881 -148.026058 
L 496.250247 -148.779219 
L 495.702975 -149.532379 
L 495.133018 -150.285539 
L 494.547039 -151.038699 
L 493.951951 -151.79186 
L 493.354476 -152.54502 
L 492.760669 -153.29818 
L 492.175445 -154.05134 
L 491.602147 -154.804501 
L 491.042186 -155.557661 
L 490.494797 -156.310821 
L 489.956926 -157.063981 
L 489.423274 -157.817141 
L 488.886495 -158.570302 
L 488.337558 -159.323462 
L 487.766229 -160.076622 
L 487.161679 -160.829782 
L 486.513156 -161.582943 
L 485.810692 -162.336103 
L 485.045805 -163.089263 
L 484.212152 -163.842423 
L 483.30609 -164.595584 
L 482.32713 -165.348744 
L 481.278242 -166.101904 
L 480.166016 -166.855064 
L 479.000653 -167.608225 
L 477.795801 -168.361385 
L 476.568248 -169.114545 
L 475.337474 -169.867705 
L 474.125092 -170.620866 
L 472.954207 -171.374026 
L 471.848699 -172.127186 
L 470.832485 -172.880346 
L 469.928759 -173.633507 
L 469.159258 -174.386667 
L 468.54357 -175.139827 
L 468.098501 -175.892987 
L 467.837538 -176.646148 
L 467.770408 -177.399308 
L 467.902755 -178.152468 
L 468.235945 -178.905628 
L 468.767001 -179.658789 
L 469.488672 -180.411949 
L 470.389625 -181.165109 
L 471.454768 -181.918269 
L 472.665669 -182.67143 
L 474.001082 -183.42459 
L 475.43754 -184.17775 
L 476.950007 -184.93091 
L 478.512565 -185.684071 
L 480.099121 -186.437231 
L 481.684099 -187.190391 
L 483.243113 -187.943551 
L 484.753594 -188.696712 
L 486.195349 -189.449872 
L 487.551049 -190.203032 
L 488.806617 -190.956192 
L 489.951513 -191.709352 
L 490.978906 -192.462513 
L 491.885713 -193.215673 
L 492.672518 -193.968833 
L 493.34336 -194.721993 
L 493.905397 -195.475154 
L 494.368457 -196.228314 
L 494.744502 -196.981474 
L 495.047009 -197.734634 
L 495.290314 -198.487795 
L 495.488945 -199.240955 
L 495.65697 -199.994115 
L 495.807414 -200.747275 
L 495.951748 -201.500436 
L 496.099503 -202.253596 
L 496.25801 -203.006756 
L 496.43228 -203.759916 
L 496.625025 -204.513077 
L 496.836809 -205.266237 
L 497.066302 -206.019397 
L 497.31063 -206.772557 
L 497.565765 -207.525718 
L 497.826949 -208.278878 
L 498.089098 -209.032038 
L 498.347179 -209.785198 
L 498.596525 -210.538359 
L 498.833083 -211.291519 
L 499.053578 -212.044679 
L 499.255607 -212.797839 
L 499.437655 -213.551 
L 499.599054 -214.30416 
L 499.739891 -215.05732 
L 499.860891 -215.81048 
L 500.863949 -215.81048 
L 500.863949 -215.81048 
L 500.984949 -215.05732 
L 501.125786 -214.30416 
L 501.287185 -213.551 
L 501.469233 -212.797839 
L 501.671262 -212.044679 
L 501.891757 -211.291519 
L 502.128315 -210.538359 
L 502.377661 -209.785198 
L 502.635742 -209.032038 
L 502.897891 -208.278878 
L 503.159075 -207.525718 
L 503.41421 -206.772557 
L 503.658538 -206.019397 
L 503.888031 -205.266237 
L 504.099815 -204.513077 
L 504.29256 -203.759916 
L 504.46683 -203.006756 
L 504.625337 -202.253596 
L 504.773092 -201.500436 
L 504.917426 -200.747275 
L 505.06787 -199.994115 
L 505.235895 -199.240955 
L 505.434526 -198.487795 
L 505.677831 -197.734634 
L 505.980338 -196.981474 
L 506.356383 -196.228314 
L 506.819443 -195.475154 
L 507.38148 -194.721993 
L 508.052322 -193.968833 
L 508.839127 -193.215673 
L 509.745934 -192.462513 
L 510.773327 -191.709352 
L 511.918223 -190.956192 
L 513.173791 -190.203032 
L 514.529491 -189.449872 
L 515.971246 -188.696712 
L 517.481727 -187.943551 
L 519.040741 -187.190391 
L 520.625719 -186.437231 
L 522.212275 -185.684071 
L 523.774833 -184.93091 
L 525.2873 -184.17775 
L 526.723758 -183.42459 
L 528.059171 -182.67143 
L 529.270072 -181.918269 
L 530.335215 -181.165109 
L 531.236168 -180.411949 
L 531.957839 -179.658789 
L 532.488895 -178.905628 
L 532.822085 -178.152468 
L 532.954432 -177.399308 
L 532.887302 -176.646148 
L 532.626339 -175.892987 
L 532.18127 -175.139827 
L 531.565582 -174.386667 
L 530.796081 -173.633507 
L 529.892355 -172.880346 
L 528.876141 -172.127186 
L 527.770634 -171.374026 
L 526.599748 -170.620866 
L 525.387366 -169.867705 
L 524.156592 -169.114545 
L 522.929039 -168.361385 
L 521.724187 -167.608225 
L 520.558824 -166.855064 
L 519.446598 -166.101904 
L 518.39771 -165.348744 
L 517.41875 -164.595584 
L 516.512688 -163.842423 
L 515.679035 -163.089263 
L 514.914148 -162.336103 
L 514.211684 -161.582943 
L 513.563161 -160.829782 
L 512.958611 -160.076622 
L 512.387282 -159.323462 
L 511.838345 -158.570302 
L 511.301566 -157.817141 
L 510.767914 -157.063981 
L 510.230043 -156.310821 
L 509.682654 -155.557661 
L 509.122693 -154.804501 
L 508.549395 -154.05134 
L 507.964171 -153.29818 
L 507.370364 -152.54502 
L 506.772889 -151.79186 
L 506.177801 -151.038699 
L 505.591822 -150.285539 
L 505.021865 -149.532379 
L 504.474593 -148.779219 
L 503.95603 -148.026058 
L 503.471259 -147.272898 
L 503.024215 -146.519738 
L 502.617564 -145.766578 
L 502.252689 -145.013417 
L 501.929741 -144.260257 
L 501.64777 -143.507097 
L 501.404894 -142.753937 
L 501.198497 -142.000776 
L 501.025441 -141.247616 
z
" style="stroke: #3f3f3f; stroke-width: 1.25"/>
    </defs>
    <g clip-path="url(#p8cda446b71)">
     <use xlink:href="#meba3f4f95a" x="0" y="360" style="fill: #e1812c; stroke: #3f3f3f; stroke-width: 1.25"/>
    </g>
   </g>
   <g id="PolyCollection_7">
    <defs>
     <path id="m0bc4060327" d="M 599.102179 -117.868253 
L 597.174735 -117.868253 
L 596.980624 -119.003797 
L 596.757672 -120.13934 
L 596.503817 -121.274884 
L 596.217288 -122.410427 
L 595.896683 -123.545971 
L 595.541056 -124.681515 
L 595.149984 -125.817058 
L 594.723628 -126.952602 
L 594.262771 -128.088145 
L 593.768837 -129.223689 
L 593.24388 -130.359232 
L 592.690549 -131.494776 
L 592.112021 -132.63032 
L 591.511907 -133.765863 
L 590.894131 -134.901407 
L 590.262789 -136.03695 
L 589.621992 -137.172494 
L 588.975693 -138.308037 
L 588.327525 -139.443581 
L 587.680631 -140.579124 
L 587.037524 -141.714668 
L 586.399961 -142.850212 
L 585.76885 -143.985755 
L 585.144203 -145.121299 
L 584.52512 -146.256842 
L 583.909832 -147.392386 
L 583.295777 -148.527929 
L 582.679738 -149.663473 
L 582.058008 -150.799017 
L 581.426603 -151.93456 
L 580.781498 -153.070104 
L 580.118879 -154.205647 
L 579.43541 -155.341191 
L 578.728487 -156.476734 
L 577.996477 -157.612278 
L 577.238925 -158.747821 
L 576.456713 -159.883365 
L 575.652173 -161.018909 
L 574.829129 -162.154452 
L 573.992873 -163.289996 
L 573.150072 -164.425539 
L 572.308605 -165.561083 
L 571.477339 -166.696626 
L 570.665851 -167.83217 
L 569.884113 -168.967714 
L 569.14215 -170.103257 
L 568.449699 -171.238801 
L 567.815879 -172.374344 
L 567.248897 -173.509888 
L 566.755794 -174.645431 
L 566.342267 -175.780975 
L 566.012551 -176.916519 
L 565.769382 -178.052062 
L 565.614038 -179.187606 
L 565.546445 -180.323149 
L 565.565341 -181.458693 
L 565.668493 -182.594236 
L 565.852929 -183.72978 
L 566.115194 -184.865323 
L 566.451579 -186.000867 
L 566.858342 -187.136411 
L 567.331877 -188.271954 
L 567.868839 -189.407498 
L 568.466206 -190.543041 
L 569.121296 -191.678585 
L 569.831715 -192.814128 
L 570.595275 -193.949672 
L 571.409862 -195.085216 
L 572.27329 -196.220759 
L 573.183147 -197.356303 
L 574.136639 -198.491846 
L 575.130464 -199.62739 
L 576.160704 -200.762933 
L 577.222763 -201.898477 
L 578.311345 -203.03402 
L 579.420478 -204.169564 
L 580.543576 -205.305108 
L 581.673556 -206.440651 
L 582.802969 -207.576195 
L 583.924171 -208.711738 
L 585.0295 -209.847282 
L 586.11147 -210.982825 
L 587.162946 -212.118369 
L 588.177325 -213.253913 
L 589.148681 -214.389456 
L 590.071893 -215.525 
L 590.942738 -216.660543 
L 591.757958 -217.796087 
L 592.515281 -218.93163 
L 593.213422 -220.067174 
L 593.852045 -221.202717 
L 594.431702 -222.338261 
L 594.953749 -223.473805 
L 595.420244 -224.609348 
L 595.833838 -225.744892 
L 596.197649 -226.880435 
L 596.51515 -228.015979 
L 596.790046 -229.151522 
L 597.026169 -230.287066 
L 599.250745 -230.287066 
L 599.250745 -230.287066 
L 599.486867 -229.151522 
L 599.761764 -228.015979 
L 600.079265 -226.880435 
L 600.443076 -225.744892 
L 600.856669 -224.609348 
L 601.323165 -223.473805 
L 601.845212 -222.338261 
L 602.424869 -221.202717 
L 603.063492 -220.067174 
L 603.761633 -218.93163 
L 604.518956 -217.796087 
L 605.334176 -216.660543 
L 606.205021 -215.525 
L 607.128233 -214.389456 
L 608.099589 -213.253913 
L 609.113968 -212.118369 
L 610.165444 -210.982825 
L 611.247414 -209.847282 
L 612.352743 -208.711738 
L 613.473944 -207.576195 
L 614.603358 -206.440651 
L 615.733338 -205.305108 
L 616.856436 -204.169564 
L 617.965568 -203.03402 
L 619.054151 -201.898477 
L 620.11621 -200.762933 
L 621.14645 -199.62739 
L 622.140275 -198.491846 
L 623.093767 -197.356303 
L 624.003624 -196.220759 
L 624.867052 -195.085216 
L 625.681639 -193.949672 
L 626.445198 -192.814128 
L 627.155618 -191.678585 
L 627.810708 -190.543041 
L 628.408075 -189.407498 
L 628.945037 -188.271954 
L 629.418572 -187.136411 
L 629.825335 -186.000867 
L 630.16172 -184.865323 
L 630.423984 -183.72978 
L 630.608421 -182.594236 
L 630.711573 -181.458693 
L 630.730469 -180.323149 
L 630.662876 -179.187606 
L 630.507532 -178.052062 
L 630.264363 -176.916519 
L 629.934647 -175.780975 
L 629.521119 -174.645431 
L 629.028017 -173.509888 
L 628.461034 -172.374344 
L 627.827215 -171.238801 
L 627.134764 -170.103257 
L 626.392801 -168.967714 
L 625.611062 -167.83217 
L 624.799575 -166.696626 
L 623.968309 -165.561083 
L 623.126842 -164.425539 
L 622.284041 -163.289996 
L 621.447785 -162.154452 
L 620.624741 -161.018909 
L 619.820201 -159.883365 
L 619.037989 -158.747821 
L 618.280436 -157.612278 
L 617.548427 -156.476734 
L 616.841504 -155.341191 
L 616.158035 -154.205647 
L 615.495416 -153.070104 
L 614.850311 -151.93456 
L 614.218906 -150.799017 
L 613.597176 -149.663473 
L 612.981137 -148.527929 
L 612.367082 -147.392386 
L 611.751793 -146.256842 
L 611.132711 -145.121299 
L 610.508064 -143.985755 
L 609.876953 -142.850212 
L 609.23939 -141.714668 
L 608.596283 -140.579124 
L 607.949389 -139.443581 
L 607.301221 -138.308037 
L 606.654922 -137.172494 
L 606.014125 -136.03695 
L 605.382783 -134.901407 
L 604.765007 -133.765863 
L 604.164893 -132.63032 
L 603.586365 -131.494776 
L 603.033034 -130.359232 
L 602.508077 -129.223689 
L 602.014143 -128.088145 
L 601.553286 -126.952602 
L 601.126929 -125.817058 
L 600.735858 -124.681515 
L 600.380231 -123.545971 
L 600.059626 -122.410427 
L 599.773097 -121.274884 
L 599.519242 -120.13934 
L 599.29629 -119.003797 
L 599.102179 -117.868253 
z
" style="stroke: #3f3f3f; stroke-width: 1.25"/>
    </defs>
    <g clip-path="url(#p8cda446b71)">
     <use xlink:href="#m0bc4060327" x="0" y="360" style="fill: #3274a1; stroke: #3f3f3f; stroke-width: 1.25"/>
    </g>
   </g>
   <g id="PolyCollection_8">
    <defs>
     <path id="m38e7cc4cec" d="M 663.709563 -108.562076 
L 662.9354 -108.562076 
L 662.857595 -109.970086 
L 662.768364 -111.378097 
L 662.666953 -112.786108 
L 662.552737 -114.194118 
L 662.425263 -115.602129 
L 662.284282 -117.01014 
L 662.129774 -118.41815 
L 661.961982 -119.826161 
L 661.781417 -121.234172 
L 661.58887 -122.642182 
L 661.385406 -124.050193 
L 661.172343 -125.458204 
L 660.951226 -126.866214 
L 660.72378 -128.274225 
L 660.49186 -129.682236 
L 660.257382 -131.090246 
L 660.022257 -132.498257 
L 659.788311 -133.906267 
L 659.557205 -135.314278 
L 659.330363 -136.722289 
L 659.108896 -138.130299 
L 658.893539 -139.53831 
L 658.6846 -140.946321 
L 658.48192 -142.354331 
L 658.284857 -143.762342 
L 658.092278 -145.170353 
L 657.902584 -146.578363 
L 657.713745 -147.986374 
L 657.523365 -149.394385 
L 657.328761 -150.802395 
L 657.127059 -152.210406 
L 656.915318 -153.618416 
L 656.690648 -155.026427 
L 656.450351 -156.434438 
L 656.192058 -157.842448 
L 655.91386 -159.250459 
L 655.61444 -160.65847 
L 655.293177 -162.06648 
L 654.950237 -163.474491 
L 654.586633 -164.882502 
L 654.204257 -166.290512 
L 653.805872 -167.698523 
L 653.395072 -169.106534 
L 652.976204 -170.514544 
L 652.554261 -171.922555 
L 652.13474 -173.330566 
L 651.723479 -174.738576 
L 651.326485 -176.146587 
L 650.949741 -177.554597 
L 650.59903 -178.962608 
L 650.27976 -180.370619 
L 649.99681 -181.778629 
L 649.754403 -183.18664 
L 649.556008 -184.594651 
L 649.404277 -186.002661 
L 649.301015 -187.410672 
L 649.247188 -188.818683 
L 649.242959 -190.226693 
L 649.287754 -191.634704 
L 649.380344 -193.042715 
L 649.518948 -194.450725 
L 649.701336 -195.858736 
L 649.924944 -197.266746 
L 650.18697 -198.674757 
L 650.484468 -200.082768 
L 650.814429 -201.490778 
L 651.173837 -202.898789 
L 651.559715 -204.3068 
L 651.969147 -205.71481 
L 652.39929 -207.122821 
L 652.847368 -208.530832 
L 653.310655 -209.938842 
L 653.786459 -211.346853 
L 654.272097 -212.754864 
L 654.764874 -214.162874 
L 655.262071 -215.570885 
L 655.760935 -216.978896 
L 656.258683 -218.386906 
L 656.752517 -219.794917 
L 657.239647 -221.202927 
L 657.717322 -222.610938 
L 658.182879 -224.018949 
L 658.633782 -225.426959 
L 659.067675 -226.83497 
L 659.482431 -228.242981 
L 659.876193 -229.650991 
L 660.247415 -231.059002 
L 660.594891 -232.467013 
L 660.917772 -233.875023 
L 661.215578 -235.283034 
L 661.488187 -236.691045 
L 661.735826 -238.099055 
L 661.959045 -239.507066 
L 662.158678 -240.915077 
L 662.33581 -242.323087 
L 662.491726 -243.731098 
L 662.627869 -245.139108 
L 662.745787 -246.547119 
L 662.847092 -247.95513 
L 663.797871 -247.95513 
L 663.797871 -247.95513 
L 663.899176 -246.547119 
L 664.017094 -245.139108 
L 664.153237 -243.731098 
L 664.309153 -242.323087 
L 664.486285 -240.915077 
L 664.685919 -239.507066 
L 664.909137 -238.099055 
L 665.156776 -236.691045 
L 665.429385 -235.283034 
L 665.727191 -233.875023 
L 666.050072 -232.467013 
L 666.397548 -231.059002 
L 666.76877 -229.650991 
L 667.162532 -228.242981 
L 667.577288 -226.83497 
L 668.011181 -225.426959 
L 668.462084 -224.018949 
L 668.927641 -222.610938 
L 669.405317 -221.202927 
L 669.892446 -219.794917 
L 670.38628 -218.386906 
L 670.884028 -216.978896 
L 671.382892 -215.570885 
L 671.880089 -214.162874 
L 672.372866 -212.754864 
L 672.858504 -211.346853 
L 673.334308 -209.938842 
L 673.797595 -208.530832 
L 674.245673 -207.122821 
L 674.675816 -205.71481 
L 675.085249 -204.3068 
L 675.471126 -202.898789 
L 675.830534 -201.490778 
L 676.160495 -200.082768 
L 676.457994 -198.674757 
L 676.720019 -197.266746 
L 676.943627 -195.858736 
L 677.126015 -194.450725 
L 677.264619 -193.042715 
L 677.357209 -191.634704 
L 677.402004 -190.226693 
L 677.397775 -188.818683 
L 677.343948 -187.410672 
L 677.240686 -186.002661 
L 677.088955 -184.594651 
L 676.89056 -183.18664 
L 676.648153 -181.778629 
L 676.365203 -180.370619 
L 676.045933 -178.962608 
L 675.695222 -177.554597 
L 675.318478 -176.146587 
L 674.921484 -174.738576 
L 674.510224 -173.330566 
L 674.090702 -171.922555 
L 673.668759 -170.514544 
L 673.249892 -169.106534 
L 672.839091 -167.698523 
L 672.440706 -166.290512 
L 672.05833 -164.882502 
L 671.694726 -163.474491 
L 671.351786 -162.06648 
L 671.030523 -160.65847 
L 670.731103 -159.250459 
L 670.452905 -157.842448 
L 670.194612 -156.434438 
L 669.954315 -155.026427 
L 669.729645 -153.618416 
L 669.517904 -152.210406 
L 669.316203 -150.802395 
L 669.121598 -149.394385 
L 668.931218 -147.986374 
L 668.742379 -146.578363 
L 668.552685 -145.170353 
L 668.360107 -143.762342 
L 668.163043 -142.354331 
L 667.960364 -140.946321 
L 667.751424 -139.53831 
L 667.536067 -138.130299 
L 667.3146 -136.722289 
L 667.087758 -135.314278 
L 666.856653 -133.906267 
L 666.622706 -132.498257 
L 666.387581 -131.090246 
L 666.153103 -129.682236 
L 665.921183 -128.274225 
L 665.693737 -126.866214 
L 665.47262 -125.458204 
L 665.259557 -124.050193 
L 665.056093 -122.642182 
L 664.863546 -121.234172 
L 664.682981 -119.826161 
L 664.515189 -118.41815 
L 664.360682 -117.01014 
L 664.2197 -115.602129 
L 664.092226 -114.194118 
L 663.97801 -112.786108 
L 663.876599 -111.378097 
L 663.787368 -109.970086 
L 663.709563 -108.562076 
z
" style="stroke: #3f3f3f; stroke-width: 1.25"/>
    </defs>
    <g clip-path="url(#p8cda446b71)">
     <use xlink:href="#m38e7cc4cec" x="0" y="360" style="fill: #e1812c; stroke: #3f3f3f; stroke-width: 1.25"/>
    </g>
   </g>
   <g id="patch_6">
    <path d="M 467.770408 414.177305 
L 467.770408 414.177305 
L 467.770408 414.177305 
L 467.770408 414.177305 
z
" clip-path="url(#p8cda446b71)" style="fill: #3274a1; stroke: #3f3f3f; stroke-width: 1.25; stroke-linejoin: miter"/>
   </g>
   <g id="patch_7">
    <path d="M 467.770408 414.177305 
L 467.770408 414.177305 
L 467.770408 414.177305 
L 467.770408 414.177305 
z
" clip-path="url(#p8cda446b71)" style="fill: #e1812c; stroke: #3f3f3f; stroke-width: 1.25; stroke-linejoin: miter"/>
   </g>
   <g id="line2d_25">
    <path d="M 435.178395 211.847925 
L 435.178395 112.091628 
" clip-path="url(#p8cda446b71)" style="fill: none; stroke: #3f3f3f; stroke-width: 1.875; stroke-linecap: round"/>
   </g>
   <g id="line2d_26">
    <path d="M 435.178395 183.791393 
L 435.178395 133.69608 
" clip-path="url(#p8cda446b71)" style="fill: none; stroke: #3f3f3f; stroke-width: 5.625; stroke-linecap: round"/>
   </g>
   <g id="line2d_27">
    <path d="M 435.178395 158.068082 
" clip-path="url(#p8cda446b71)" style="fill: none; stroke: #3f3f3f; stroke-width: 1.5; stroke-linecap: round"/>
    <g clip-path="url(#p8cda446b71)">
     <use xlink:href="#mf17d8c53c0" x="435.178395" y="158.068082" style="fill: #ffffff; stroke: #ffffff; stroke-width: 1.125"/>
    </g>
   </g>
   <g id="line2d_28">
    <path d="M 500.36242 205.172481 
L 500.36242 172.304197 
" clip-path="url(#p8cda446b71)" style="fill: none; stroke: #3f3f3f; stroke-width: 1.875; stroke-linecap: round"/>
   </g>
   <g id="line2d_29">
    <path d="M 500.36242 189.325588 
L 500.36242 178.14816 
" clip-path="url(#p8cda446b71)" style="fill: none; stroke: #3f3f3f; stroke-width: 5.625; stroke-linecap: round"/>
   </g>
   <g id="line2d_30">
    <path d="M 500.36242 183.798885 
" clip-path="url(#p8cda446b71)" style="fill: none; stroke: #3f3f3f; stroke-width: 1.5; stroke-linecap: round"/>
    <g clip-path="url(#p8cda446b71)">
     <use xlink:href="#mf17d8c53c0" x="500.36242" y="183.798885" style="fill: #ffffff; stroke: #ffffff; stroke-width: 1.125"/>
    </g>
   </g>
   <g id="line2d_31">
    <path d="M 598.138457 216.90941 
L 598.138457 154.93527 
" clip-path="url(#p8cda446b71)" style="fill: none; stroke: #3f3f3f; stroke-width: 1.875; stroke-linecap: round"/>
   </g>
   <g id="line2d_32">
    <path d="M 598.138457 191.515347 
L 598.138457 166.583808 
" clip-path="url(#p8cda446b71)" style="fill: none; stroke: #3f3f3f; stroke-width: 5.625; stroke-linecap: round"/>
   </g>
   <g id="line2d_33">
    <path d="M 598.138457 183.29631 
" clip-path="url(#p8cda446b71)" style="fill: none; stroke: #3f3f3f; stroke-width: 1.5; stroke-linecap: round"/>
    <g clip-path="url(#p8cda446b71)">
     <use xlink:href="#mf17d8c53c0" x="598.138457" y="183.29631" style="fill: #ffffff; stroke: #ffffff; stroke-width: 1.125"/>
    </g>
   </g>
   <g id="line2d_34">
    <path d="M 663.322482 203.32124 
L 663.322482 143.145488 
" clip-path="url(#p8cda446b71)" style="fill: none; stroke: #3f3f3f; stroke-width: 1.875; stroke-linecap: round"/>
   </g>
   <g id="line2d_35">
    <path d="M 663.322482 182.716483 
L 663.322482 162.716425 
" clip-path="url(#p8cda446b71)" style="fill: none; stroke: #3f3f3f; stroke-width: 5.625; stroke-linecap: round"/>
   </g>
   <g id="line2d_36">
    <path d="M 663.322482 177.37305 
" clip-path="url(#p8cda446b71)" style="fill: none; stroke: #3f3f3f; stroke-width: 1.5; stroke-linecap: round"/>
    <g clip-path="url(#p8cda446b71)">
     <use xlink:href="#mf17d8c53c0" x="663.322482" y="177.37305" style="fill: #ffffff; stroke: #ffffff; stroke-width: 1.125"/>
    </g>
   </g>
   <g id="patch_8">
    <path d="M 386.290377 318.04 
L 386.290377 24.72 
" style="fill: none; stroke: #cccccc; stroke-width: 0.8; stroke-linejoin: miter; stroke-linecap: square"/>
   </g>
   <g id="patch_9">
    <path d="M 386.290377 318.04 
L 712.2105 318.04 
" style="fill: none; stroke: #cccccc; stroke-width: 0.8; stroke-linejoin: miter; stroke-linecap: square"/>
   </g>
   <g id="text_15">
    <!-- sex = m -->
    <g style="fill: #262626" transform="translate(531.606688 18.72) scale(0.1 -0.1)">
     <defs>
      <path id="ArialMT-6d" d="M 422 0 
L 422 3319 
L 925 3319 
L 925 2853 
Q 1081 3097 1340 3245 
Q 1600 3394 1931 3394 
Q 2300 3394 2536 3241 
Q 2772 3088 2869 2813 
Q 3263 3394 3894 3394 
Q 4388 3394 4653 3120 
Q 4919 2847 4919 2278 
L 4919 0 
L 4359 0 
L 4359 2091 
Q 4359 2428 4304 2576 
Q 4250 2725 4106 2815 
Q 3963 2906 3769 2906 
Q 3419 2906 3187 2673 
Q 2956 2441 2956 1928 
L 2956 0 
L 2394 0 
L 2394 2156 
Q 2394 2531 2256 2718 
Q 2119 2906 1806 2906 
Q 1569 2906 1367 2781 
Q 1166 2656 1075 2415 
Q 984 2175 984 1722 
L 984 0 
L 422 0 
z
" transform="scale(0.015625)"/>
     </defs>
     <use xlink:href="#ArialMT-73"/>
     <use xlink:href="#ArialMT-65" x="50"/>
     <use xlink:href="#ArialMT-78" x="105.615234"/>
     <use xlink:href="#ArialMT-20" x="155.615234"/>
     <use xlink:href="#ArialMT-3d" x="183.398438"/>
     <use xlink:href="#ArialMT-20" x="241.796875"/>
     <use xlink:href="#ArialMT-6d" x="269.580078"/>
    </g>
   </g>
  </g>
  <g id="legend_1">
   <g id="text_16">
    <!-- Time -->
    <g style="fill: #262626" transform="translate(733.633594 168.439844) scale(0.1 -0.1)">
     <defs>
      <path id="ArialMT-54" d="M 1659 0 
L 1659 4041 
L 150 4041 
L 150 4581 
L 3781 4581 
L 3781 4041 
L 2266 4041 
L 2266 0 
L 1659 0 
z
" transform="scale(0.015625)"/>
     </defs>
     <use xlink:href="#ArialMT-54"/>
     <use xlink:href="#ArialMT-69" x="57.333984"/>
     <use xlink:href="#ArialMT-6d" x="79.550781"/>
     <use xlink:href="#ArialMT-65" x="162.851562"/>
    </g>
   </g>
   <g id="patch_10">
    <path d="M 719.1625 182.585156 
L 739.1625 182.585156 
L 739.1625 175.585156 
L 719.1625 175.585156 
z
" style="fill: #3274a1; stroke: #3f3f3f; stroke-width: 1.25; stroke-linejoin: miter"/>
   </g>
   <g id="text_17">
    <!-- initial -->
    <g style="fill: #262626" transform="translate(747.1625 182.585156) scale(0.1 -0.1)">
     <use xlink:href="#ArialMT-69"/>
     <use xlink:href="#ArialMT-6e" x="22.216797"/>
     <use xlink:href="#ArialMT-69" x="77.832031"/>
     <use xlink:href="#ArialMT-74" x="100.048828"/>
     <use xlink:href="#ArialMT-69" x="127.832031"/>
     <use xlink:href="#ArialMT-61" x="150.048828"/>
     <use xlink:href="#ArialMT-6c" x="205.664062"/>
    </g>
   </g>
   <g id="patch_11">
    <path d="M 719.1625 196.730469 
L 739.1625 196.730469 
L 739.1625 189.730469 
L 719.1625 189.730469 
z
" style="fill: #e1812c; stroke: #3f3f3f; stroke-width: 1.25; stroke-linejoin: miter"/>
   </g>
   <g id="text_18">
    <!-- final -->
    <g style="fill: #262626" transform="translate(747.1625 196.730469) scale(0.1 -0.1)">
     <use xlink:href="#ArialMT-66"/>
     <use xlink:href="#ArialMT-69" x="27.783203"/>
     <use xlink:href="#ArialMT-6e" x="50"/>
     <use xlink:href="#ArialMT-61" x="105.615234"/>
     <use xlink:href="#ArialMT-6c" x="161.230469"/>
    </g>
   </g>
  </g>
 </g>
 <defs>
  <clipPath id="p9e4c48fdd3">
   <rect x="49.582331" y="24.72" width="325.920123" height="293.32"/>
  </clipPath>
  <clipPath id="p8cda446b71">
   <rect x="386.290377" y="24.72" width="325.920123" height="293.32"/>
  </clipPath>
 </defs>
</svg>
