<?xml version="1.0" encoding="utf-8" standalone="no"?>
<!DOCTYPE svg PUBLIC "-//W3C//DTD SVG 1.1//EN"
  "http://www.w3.org/Graphics/SVG/1.1/DTD/svg11.dtd">
<svg xmlns:xlink="http://www.w3.org/1999/xlink" width="778.95pt" height="360pt" viewBox="0 0 778.95 360" xmlns="http://www.w3.org/2000/svg" version="1.1">
 <metadata>
  <rdf:RDF xmlns:dc="http://purl.org/dc/elements/1.1/" xmlns:cc="http://creativecommons.org/ns#" xmlns:rdf="http://www.w3.org/1999/02/22-rdf-syntax-ns#">
   <cc:Work>
    <dc:type rdf:resource="http://purl.org/dc/dcmitype/StillImage"/>
    <dc:date>2024-09-10T22:04:30.238453</dc:date>
    <dc:format>image/svg+xml</dc:format>
    <dc:creator>
     <cc:Agent>
      <dc:title>Matplotlib v3.8.3, https://matplotlib.org/</dc:title>
     </cc:Agent>
    </dc:creator>
   </cc:Work>
  </rdf:RDF>
 </metadata>
 <defs>
  <style type="text/css">*{stroke-linejoin: round; stroke-linecap: butt}</style>
 </defs>
 <g id="figure_1">
  <g id="patch_1">
   <path d="M 0 360 
L 778.95 360 
L 778.95 0 
L 0 0 
z
" style="fill: #ffffff"/>
  </g>
  <g id="axes_1">
   <g id="patch_2">
    <path d="M 46.5639 318.04 
L 373.991362 318.04 
L 373.991362 24.72 
L 46.5639 24.72 
z
" style="fill: #ffffff"/>
   </g>
   <g id="matplotlib.axis_1">
    <g id="xtick_1">
     <g id="text_1">
      <!-- Jurilovca -->
      <g style="fill: #262626" transform="translate(108.69264 332.197812) scale(0.1 -0.1)">
       <defs>
        <path id="ArialMT-4a" d="M 184 1300 
L 731 1375 
Q 753 850 928 656 
Q 1103 463 1413 463 
Q 1641 463 1806 567 
Q 1972 672 2034 851 
Q 2097 1031 2097 1425 
L 2097 4581 
L 2703 4581 
L 2703 1459 
Q 2703 884 2564 568 
Q 2425 253 2123 87 
Q 1822 -78 1416 -78 
Q 813 -78 492 269 
Q 172 616 184 1300 
z
" transform="scale(0.015625)"/>
        <path id="ArialMT-75" d="M 2597 0 
L 2597 488 
Q 2209 -75 1544 -75 
Q 1250 -75 995 37 
Q 741 150 617 320 
Q 494 491 444 738 
Q 409 903 409 1263 
L 409 3319 
L 972 3319 
L 972 1478 
Q 972 1038 1006 884 
Q 1059 663 1231 536 
Q 1403 409 1656 409 
Q 1909 409 2131 539 
Q 2353 669 2445 892 
Q 2538 1116 2538 1541 
L 2538 3319 
L 3100 3319 
L 3100 0 
L 2597 0 
z
" transform="scale(0.015625)"/>
        <path id="ArialMT-72" d="M 416 0 
L 416 3319 
L 922 3319 
L 922 2816 
Q 1116 3169 1280 3281 
Q 1444 3394 1641 3394 
Q 1925 3394 2219 3213 
L 2025 2691 
Q 1819 2813 1613 2813 
Q 1428 2813 1281 2702 
Q 1134 2591 1072 2394 
Q 978 2094 978 1738 
L 978 0 
L 416 0 
z
" transform="scale(0.015625)"/>
        <path id="ArialMT-69" d="M 425 3934 
L 425 4581 
L 988 4581 
L 988 3934 
L 425 3934 
z
M 425 0 
L 425 3319 
L 988 3319 
L 988 0 
L 425 0 
z
" transform="scale(0.015625)"/>
        <path id="ArialMT-6c" d="M 409 0 
L 409 4581 
L 972 4581 
L 972 0 
L 409 0 
z
" transform="scale(0.015625)"/>
        <path id="ArialMT-6f" d="M 213 1659 
Q 213 2581 725 3025 
Q 1153 3394 1769 3394 
Q 2453 3394 2887 2945 
Q 3322 2497 3322 1706 
Q 3322 1066 3130 698 
Q 2938 331 2570 128 
Q 2203 -75 1769 -75 
Q 1072 -75 642 372 
Q 213 819 213 1659 
z
M 791 1659 
Q 791 1022 1069 705 
Q 1347 388 1769 388 
Q 2188 388 2466 706 
Q 2744 1025 2744 1678 
Q 2744 2294 2464 2611 
Q 2184 2928 1769 2928 
Q 1347 2928 1069 2612 
Q 791 2297 791 1659 
z
" transform="scale(0.015625)"/>
        <path id="ArialMT-76" d="M 1344 0 
L 81 3319 
L 675 3319 
L 1388 1331 
Q 1503 1009 1600 663 
Q 1675 925 1809 1294 
L 2547 3319 
L 3125 3319 
L 1869 0 
L 1344 0 
z
" transform="scale(0.015625)"/>
        <path id="ArialMT-63" d="M 2588 1216 
L 3141 1144 
Q 3050 572 2676 248 
Q 2303 -75 1759 -75 
Q 1078 -75 664 370 
Q 250 816 250 1647 
Q 250 2184 428 2587 
Q 606 2991 970 3192 
Q 1334 3394 1763 3394 
Q 2303 3394 2647 3120 
Q 2991 2847 3088 2344 
L 2541 2259 
Q 2463 2594 2264 2762 
Q 2066 2931 1784 2931 
Q 1359 2931 1093 2626 
Q 828 2322 828 1663 
Q 828 994 1084 691 
Q 1341 388 1753 388 
Q 2084 388 2306 591 
Q 2528 794 2588 1216 
z
" transform="scale(0.015625)"/>
        <path id="ArialMT-61" d="M 2588 409 
Q 2275 144 1986 34 
Q 1697 -75 1366 -75 
Q 819 -75 525 192 
Q 231 459 231 875 
Q 231 1119 342 1320 
Q 453 1522 633 1644 
Q 813 1766 1038 1828 
Q 1203 1872 1538 1913 
Q 2219 1994 2541 2106 
Q 2544 2222 2544 2253 
Q 2544 2597 2384 2738 
Q 2169 2928 1744 2928 
Q 1347 2928 1158 2789 
Q 969 2650 878 2297 
L 328 2372 
Q 403 2725 575 2942 
Q 747 3159 1072 3276 
Q 1397 3394 1825 3394 
Q 2250 3394 2515 3294 
Q 2781 3194 2906 3042 
Q 3031 2891 3081 2659 
Q 3109 2516 3109 2141 
L 3109 1391 
Q 3109 606 3145 398 
Q 3181 191 3288 0 
L 2700 0 
Q 2613 175 2588 409 
z
M 2541 1666 
Q 2234 1541 1622 1453 
Q 1275 1403 1131 1340 
Q 988 1278 909 1158 
Q 831 1038 831 891 
Q 831 666 1001 516 
Q 1172 366 1500 366 
Q 1825 366 2078 508 
Q 2331 650 2450 897 
Q 2541 1088 2541 1459 
L 2541 1666 
z
" transform="scale(0.015625)"/>
       </defs>
       <use xlink:href="#ArialMT-4a"/>
       <use xlink:href="#ArialMT-75" x="50"/>
       <use xlink:href="#ArialMT-72" x="105.615234"/>
       <use xlink:href="#ArialMT-69" x="138.916016"/>
       <use xlink:href="#ArialMT-6c" x="161.132812"/>
       <use xlink:href="#ArialMT-6f" x="183.349609"/>
       <use xlink:href="#ArialMT-76" x="238.964844"/>
       <use xlink:href="#ArialMT-63" x="288.964844"/>
       <use xlink:href="#ArialMT-61" x="338.964844"/>
      </g>
     </g>
    </g>
    <g id="xtick_2">
     <g id="text_2">
      <!-- Baia -->
      <g style="fill: #262626" transform="translate(282.127465 332.197812) scale(0.1 -0.1)">
       <defs>
        <path id="ArialMT-42" d="M 469 0 
L 469 4581 
L 2188 4581 
Q 2713 4581 3030 4442 
Q 3347 4303 3526 4014 
Q 3706 3725 3706 3409 
Q 3706 3116 3547 2856 
Q 3388 2597 3066 2438 
Q 3481 2316 3704 2022 
Q 3928 1728 3928 1328 
Q 3928 1006 3792 729 
Q 3656 453 3456 303 
Q 3256 153 2954 76 
Q 2653 0 2216 0 
L 469 0 
z
M 1075 2656 
L 2066 2656 
Q 2469 2656 2644 2709 
Q 2875 2778 2992 2937 
Q 3109 3097 3109 3338 
Q 3109 3566 3000 3739 
Q 2891 3913 2687 3977 
Q 2484 4041 1991 4041 
L 1075 4041 
L 1075 2656 
z
M 1075 541 
L 2216 541 
Q 2509 541 2628 563 
Q 2838 600 2978 687 
Q 3119 775 3209 942 
Q 3300 1109 3300 1328 
Q 3300 1584 3169 1773 
Q 3038 1963 2805 2039 
Q 2572 2116 2134 2116 
L 1075 2116 
L 1075 541 
z
" transform="scale(0.015625)"/>
       </defs>
       <use xlink:href="#ArialMT-42"/>
       <use xlink:href="#ArialMT-61" x="66.699219"/>
       <use xlink:href="#ArialMT-69" x="122.314453"/>
       <use xlink:href="#ArialMT-61" x="144.53125"/>
      </g>
     </g>
    </g>
    <g id="text_3">
     <!-- Location -->
     <g style="fill: #262626" transform="translate(191.375287 345.343125) scale(0.1 -0.1)">
      <defs>
       <path id="ArialMT-4c" d="M 469 0 
L 469 4581 
L 1075 4581 
L 1075 541 
L 3331 541 
L 3331 0 
L 469 0 
z
" transform="scale(0.015625)"/>
       <path id="ArialMT-74" d="M 1650 503 
L 1731 6 
Q 1494 -44 1306 -44 
Q 1000 -44 831 53 
Q 663 150 594 308 
Q 525 466 525 972 
L 525 2881 
L 113 2881 
L 113 3319 
L 525 3319 
L 525 4141 
L 1084 4478 
L 1084 3319 
L 1650 3319 
L 1650 2881 
L 1084 2881 
L 1084 941 
Q 1084 700 1114 631 
Q 1144 563 1211 522 
Q 1278 481 1403 481 
Q 1497 481 1650 503 
z
" transform="scale(0.015625)"/>
       <path id="ArialMT-6e" d="M 422 0 
L 422 3319 
L 928 3319 
L 928 2847 
Q 1294 3394 1984 3394 
Q 2284 3394 2536 3286 
Q 2788 3178 2913 3003 
Q 3038 2828 3088 2588 
Q 3119 2431 3119 2041 
L 3119 0 
L 2556 0 
L 2556 2019 
Q 2556 2363 2490 2533 
Q 2425 2703 2258 2804 
Q 2091 2906 1866 2906 
Q 1506 2906 1245 2678 
Q 984 2450 984 1813 
L 984 0 
L 422 0 
z
" transform="scale(0.015625)"/>
      </defs>
      <use xlink:href="#ArialMT-4c"/>
      <use xlink:href="#ArialMT-6f" x="55.615234"/>
      <use xlink:href="#ArialMT-63" x="111.230469"/>
      <use xlink:href="#ArialMT-61" x="161.230469"/>
      <use xlink:href="#ArialMT-74" x="216.845703"/>
      <use xlink:href="#ArialMT-69" x="244.628906"/>
      <use xlink:href="#ArialMT-6f" x="266.845703"/>
      <use xlink:href="#ArialMT-6e" x="322.460938"/>
     </g>
    </g>
   </g>
   <g id="matplotlib.axis_2">
    <g id="ytick_1">
     <g id="line2d_1">
      <path d="M 46.5639 287.271659 
L 373.991362 287.271659 
" clip-path="url(#p8e3c3713c0)" style="fill: none; stroke: #cccccc; stroke-width: 0.8; stroke-linecap: round"/>
     </g>
     <g id="text_4">
      <!-- 0 -->
      <g style="fill: #262626" transform="translate(34.002963 290.850565) scale(0.1 -0.1)">
       <defs>
        <path id="ArialMT-30" d="M 266 2259 
Q 266 3072 433 3567 
Q 600 4063 929 4331 
Q 1259 4600 1759 4600 
Q 2128 4600 2406 4451 
Q 2684 4303 2865 4023 
Q 3047 3744 3150 3342 
Q 3253 2941 3253 2259 
Q 3253 1453 3087 958 
Q 2922 463 2592 192 
Q 2263 -78 1759 -78 
Q 1097 -78 719 397 
Q 266 969 266 2259 
z
M 844 2259 
Q 844 1131 1108 757 
Q 1372 384 1759 384 
Q 2147 384 2411 759 
Q 2675 1134 2675 2259 
Q 2675 3391 2411 3762 
Q 2147 4134 1753 4134 
Q 1366 4134 1134 3806 
Q 844 3388 844 2259 
z
" transform="scale(0.015625)"/>
       </defs>
       <use xlink:href="#ArialMT-30"/>
      </g>
     </g>
    </g>
    <g id="ytick_2">
     <g id="line2d_2">
      <path d="M 46.5639 228.00468 
L 373.991362 228.00468 
" clip-path="url(#p8e3c3713c0)" style="fill: none; stroke: #cccccc; stroke-width: 0.8; stroke-linecap: round"/>
     </g>
     <g id="text_5">
      <!-- 20 -->
      <g style="fill: #262626" transform="translate(28.442025 231.583586) scale(0.1 -0.1)">
       <defs>
        <path id="ArialMT-32" d="M 3222 541 
L 3222 0 
L 194 0 
Q 188 203 259 391 
Q 375 700 629 1000 
Q 884 1300 1366 1694 
Q 2113 2306 2375 2664 
Q 2638 3022 2638 3341 
Q 2638 3675 2398 3904 
Q 2159 4134 1775 4134 
Q 1369 4134 1125 3890 
Q 881 3647 878 3216 
L 300 3275 
Q 359 3922 746 4261 
Q 1134 4600 1788 4600 
Q 2447 4600 2831 4234 
Q 3216 3869 3216 3328 
Q 3216 3053 3103 2787 
Q 2991 2522 2730 2228 
Q 2469 1934 1863 1422 
Q 1356 997 1212 845 
Q 1069 694 975 541 
L 3222 541 
z
" transform="scale(0.015625)"/>
       </defs>
       <use xlink:href="#ArialMT-32"/>
       <use xlink:href="#ArialMT-30" x="55.615234"/>
      </g>
     </g>
    </g>
    <g id="ytick_3">
     <g id="line2d_3">
      <path d="M 46.5639 168.737701 
L 373.991362 168.737701 
" clip-path="url(#p8e3c3713c0)" style="fill: none; stroke: #cccccc; stroke-width: 0.8; stroke-linecap: round"/>
     </g>
     <g id="text_6">
      <!-- 40 -->
      <g style="fill: #262626" transform="translate(28.442025 172.316607) scale(0.1 -0.1)">
       <defs>
        <path id="ArialMT-34" d="M 2069 0 
L 2069 1097 
L 81 1097 
L 81 1613 
L 2172 4581 
L 2631 4581 
L 2631 1613 
L 3250 1613 
L 3250 1097 
L 2631 1097 
L 2631 0 
L 2069 0 
z
M 2069 1613 
L 2069 3678 
L 634 1613 
L 2069 1613 
z
" transform="scale(0.015625)"/>
       </defs>
       <use xlink:href="#ArialMT-34"/>
       <use xlink:href="#ArialMT-30" x="55.615234"/>
      </g>
     </g>
    </g>
    <g id="ytick_4">
     <g id="line2d_4">
      <path d="M 46.5639 109.470722 
L 373.991362 109.470722 
" clip-path="url(#p8e3c3713c0)" style="fill: none; stroke: #cccccc; stroke-width: 0.8; stroke-linecap: round"/>
     </g>
     <g id="text_7">
      <!-- 60 -->
      <g style="fill: #262626" transform="translate(28.442025 113.049628) scale(0.1 -0.1)">
       <defs>
        <path id="ArialMT-36" d="M 3184 3459 
L 2625 3416 
Q 2550 3747 2413 3897 
Q 2184 4138 1850 4138 
Q 1581 4138 1378 3988 
Q 1113 3794 959 3422 
Q 806 3050 800 2363 
Q 1003 2672 1297 2822 
Q 1591 2972 1913 2972 
Q 2475 2972 2870 2558 
Q 3266 2144 3266 1488 
Q 3266 1056 3080 686 
Q 2894 316 2569 119 
Q 2244 -78 1831 -78 
Q 1128 -78 684 439 
Q 241 956 241 2144 
Q 241 3472 731 4075 
Q 1159 4600 1884 4600 
Q 2425 4600 2770 4297 
Q 3116 3994 3184 3459 
z
M 888 1484 
Q 888 1194 1011 928 
Q 1134 663 1356 523 
Q 1578 384 1822 384 
Q 2178 384 2434 671 
Q 2691 959 2691 1453 
Q 2691 1928 2437 2201 
Q 2184 2475 1800 2475 
Q 1419 2475 1153 2201 
Q 888 1928 888 1484 
z
" transform="scale(0.015625)"/>
       </defs>
       <use xlink:href="#ArialMT-36"/>
       <use xlink:href="#ArialMT-30" x="55.615234"/>
      </g>
     </g>
    </g>
    <g id="ytick_5">
     <g id="line2d_5">
      <path d="M 46.5639 50.203743 
L 373.991362 50.203743 
" clip-path="url(#p8e3c3713c0)" style="fill: none; stroke: #cccccc; stroke-width: 0.8; stroke-linecap: round"/>
     </g>
     <g id="text_8">
      <!-- 80 -->
      <g style="fill: #262626" transform="translate(28.442025 53.782649) scale(0.1 -0.1)">
       <defs>
        <path id="ArialMT-38" d="M 1131 2484 
Q 781 2613 612 2850 
Q 444 3088 444 3419 
Q 444 3919 803 4259 
Q 1163 4600 1759 4600 
Q 2359 4600 2725 4251 
Q 3091 3903 3091 3403 
Q 3091 3084 2923 2848 
Q 2756 2613 2416 2484 
Q 2838 2347 3058 2040 
Q 3278 1734 3278 1309 
Q 3278 722 2862 322 
Q 2447 -78 1769 -78 
Q 1091 -78 675 323 
Q 259 725 259 1325 
Q 259 1772 486 2073 
Q 713 2375 1131 2484 
z
M 1019 3438 
Q 1019 3113 1228 2906 
Q 1438 2700 1772 2700 
Q 2097 2700 2305 2904 
Q 2513 3109 2513 3406 
Q 2513 3716 2298 3927 
Q 2084 4138 1766 4138 
Q 1444 4138 1231 3931 
Q 1019 3725 1019 3438 
z
M 838 1322 
Q 838 1081 952 856 
Q 1066 631 1291 507 
Q 1516 384 1775 384 
Q 2178 384 2440 643 
Q 2703 903 2703 1303 
Q 2703 1709 2433 1975 
Q 2163 2241 1756 2241 
Q 1359 2241 1098 1978 
Q 838 1716 838 1322 
z
" transform="scale(0.015625)"/>
       </defs>
       <use xlink:href="#ArialMT-38"/>
       <use xlink:href="#ArialMT-30" x="55.615234"/>
      </g>
     </g>
    </g>
    <g id="text_9">
     <!-- Respiratory rate (breaths/min) -->
     <g style="fill: #262626" transform="translate(22.337337 237.78625) rotate(-90) scale(0.1 -0.1)">
      <defs>
       <path id="ArialMT-52" d="M 503 0 
L 503 4581 
L 2534 4581 
Q 3147 4581 3465 4457 
Q 3784 4334 3975 4021 
Q 4166 3709 4166 3331 
Q 4166 2844 3850 2509 
Q 3534 2175 2875 2084 
Q 3116 1969 3241 1856 
Q 3506 1613 3744 1247 
L 4541 0 
L 3778 0 
L 3172 953 
Q 2906 1366 2734 1584 
Q 2563 1803 2427 1890 
Q 2291 1978 2150 2013 
Q 2047 2034 1813 2034 
L 1109 2034 
L 1109 0 
L 503 0 
z
M 1109 2559 
L 2413 2559 
Q 2828 2559 3062 2645 
Q 3297 2731 3419 2920 
Q 3541 3109 3541 3331 
Q 3541 3656 3305 3865 
Q 3069 4075 2559 4075 
L 1109 4075 
L 1109 2559 
z
" transform="scale(0.015625)"/>
       <path id="ArialMT-65" d="M 2694 1069 
L 3275 997 
Q 3138 488 2766 206 
Q 2394 -75 1816 -75 
Q 1088 -75 661 373 
Q 234 822 234 1631 
Q 234 2469 665 2931 
Q 1097 3394 1784 3394 
Q 2450 3394 2872 2941 
Q 3294 2488 3294 1666 
Q 3294 1616 3291 1516 
L 816 1516 
Q 847 969 1125 678 
Q 1403 388 1819 388 
Q 2128 388 2347 550 
Q 2566 713 2694 1069 
z
M 847 1978 
L 2700 1978 
Q 2663 2397 2488 2606 
Q 2219 2931 1791 2931 
Q 1403 2931 1139 2672 
Q 875 2413 847 1978 
z
" transform="scale(0.015625)"/>
       <path id="ArialMT-73" d="M 197 991 
L 753 1078 
Q 800 744 1014 566 
Q 1228 388 1613 388 
Q 2000 388 2187 545 
Q 2375 703 2375 916 
Q 2375 1106 2209 1216 
Q 2094 1291 1634 1406 
Q 1016 1563 777 1677 
Q 538 1791 414 1992 
Q 291 2194 291 2438 
Q 291 2659 392 2848 
Q 494 3038 669 3163 
Q 800 3259 1026 3326 
Q 1253 3394 1513 3394 
Q 1903 3394 2198 3281 
Q 2494 3169 2634 2976 
Q 2775 2784 2828 2463 
L 2278 2388 
Q 2241 2644 2061 2787 
Q 1881 2931 1553 2931 
Q 1166 2931 1000 2803 
Q 834 2675 834 2503 
Q 834 2394 903 2306 
Q 972 2216 1119 2156 
Q 1203 2125 1616 2013 
Q 2213 1853 2448 1751 
Q 2684 1650 2818 1456 
Q 2953 1263 2953 975 
Q 2953 694 2789 445 
Q 2625 197 2315 61 
Q 2006 -75 1616 -75 
Q 969 -75 630 194 
Q 291 463 197 991 
z
" transform="scale(0.015625)"/>
       <path id="ArialMT-70" d="M 422 -1272 
L 422 3319 
L 934 3319 
L 934 2888 
Q 1116 3141 1344 3267 
Q 1572 3394 1897 3394 
Q 2322 3394 2647 3175 
Q 2972 2956 3137 2557 
Q 3303 2159 3303 1684 
Q 3303 1175 3120 767 
Q 2938 359 2589 142 
Q 2241 -75 1856 -75 
Q 1575 -75 1351 44 
Q 1128 163 984 344 
L 984 -1272 
L 422 -1272 
z
M 931 1641 
Q 931 1000 1190 694 
Q 1450 388 1819 388 
Q 2194 388 2461 705 
Q 2728 1022 2728 1688 
Q 2728 2322 2467 2637 
Q 2206 2953 1844 2953 
Q 1484 2953 1207 2617 
Q 931 2281 931 1641 
z
" transform="scale(0.015625)"/>
       <path id="ArialMT-79" d="M 397 -1278 
L 334 -750 
Q 519 -800 656 -800 
Q 844 -800 956 -737 
Q 1069 -675 1141 -563 
Q 1194 -478 1313 -144 
Q 1328 -97 1363 -6 
L 103 3319 
L 709 3319 
L 1400 1397 
Q 1534 1031 1641 628 
Q 1738 1016 1872 1384 
L 2581 3319 
L 3144 3319 
L 1881 -56 
Q 1678 -603 1566 -809 
Q 1416 -1088 1222 -1217 
Q 1028 -1347 759 -1347 
Q 597 -1347 397 -1278 
z
" transform="scale(0.015625)"/>
       <path id="ArialMT-20" transform="scale(0.015625)"/>
       <path id="ArialMT-28" d="M 1497 -1347 
Q 1031 -759 709 28 
Q 388 816 388 1659 
Q 388 2403 628 3084 
Q 909 3875 1497 4659 
L 1900 4659 
Q 1522 4009 1400 3731 
Q 1209 3300 1100 2831 
Q 966 2247 966 1656 
Q 966 153 1900 -1347 
L 1497 -1347 
z
" transform="scale(0.015625)"/>
       <path id="ArialMT-62" d="M 941 0 
L 419 0 
L 419 4581 
L 981 4581 
L 981 2947 
Q 1338 3394 1891 3394 
Q 2197 3394 2470 3270 
Q 2744 3147 2920 2923 
Q 3097 2700 3197 2384 
Q 3297 2069 3297 1709 
Q 3297 856 2875 390 
Q 2453 -75 1863 -75 
Q 1275 -75 941 416 
L 941 0 
z
M 934 1684 
Q 934 1088 1097 822 
Q 1363 388 1816 388 
Q 2184 388 2453 708 
Q 2722 1028 2722 1663 
Q 2722 2313 2464 2622 
Q 2206 2931 1841 2931 
Q 1472 2931 1203 2611 
Q 934 2291 934 1684 
z
" transform="scale(0.015625)"/>
       <path id="ArialMT-68" d="M 422 0 
L 422 4581 
L 984 4581 
L 984 2938 
Q 1378 3394 1978 3394 
Q 2347 3394 2619 3248 
Q 2891 3103 3008 2847 
Q 3125 2591 3125 2103 
L 3125 0 
L 2563 0 
L 2563 2103 
Q 2563 2525 2380 2717 
Q 2197 2909 1863 2909 
Q 1613 2909 1392 2779 
Q 1172 2650 1078 2428 
Q 984 2206 984 1816 
L 984 0 
L 422 0 
z
" transform="scale(0.015625)"/>
       <path id="ArialMT-2f" d="M 0 -78 
L 1328 4659 
L 1778 4659 
L 453 -78 
L 0 -78 
z
" transform="scale(0.015625)"/>
       <path id="ArialMT-6d" d="M 422 0 
L 422 3319 
L 925 3319 
L 925 2853 
Q 1081 3097 1340 3245 
Q 1600 3394 1931 3394 
Q 2300 3394 2536 3241 
Q 2772 3088 2869 2813 
Q 3263 3394 3894 3394 
Q 4388 3394 4653 3120 
Q 4919 2847 4919 2278 
L 4919 0 
L 4359 0 
L 4359 2091 
Q 4359 2428 4304 2576 
Q 4250 2725 4106 2815 
Q 3963 2906 3769 2906 
Q 3419 2906 3187 2673 
Q 2956 2441 2956 1928 
L 2956 0 
L 2394 0 
L 2394 2156 
Q 2394 2531 2256 2718 
Q 2119 2906 1806 2906 
Q 1569 2906 1367 2781 
Q 1166 2656 1075 2415 
Q 984 2175 984 1722 
L 984 0 
L 422 0 
z
" transform="scale(0.015625)"/>
       <path id="ArialMT-29" d="M 791 -1347 
L 388 -1347 
Q 1322 153 1322 1656 
Q 1322 2244 1188 2822 
Q 1081 3291 891 3722 
Q 769 4003 388 4659 
L 791 4659 
Q 1378 3875 1659 3084 
Q 1900 2403 1900 1659 
Q 1900 816 1576 28 
Q 1253 -759 791 -1347 
z
" transform="scale(0.015625)"/>
      </defs>
      <use xlink:href="#ArialMT-52"/>
      <use xlink:href="#ArialMT-65" x="72.216797"/>
      <use xlink:href="#ArialMT-73" x="127.832031"/>
      <use xlink:href="#ArialMT-70" x="177.832031"/>
      <use xlink:href="#ArialMT-69" x="233.447266"/>
      <use xlink:href="#ArialMT-72" x="255.664062"/>
      <use xlink:href="#ArialMT-61" x="288.964844"/>
      <use xlink:href="#ArialMT-74" x="344.580078"/>
      <use xlink:href="#ArialMT-6f" x="372.363281"/>
      <use xlink:href="#ArialMT-72" x="427.978516"/>
      <use xlink:href="#ArialMT-79" x="461.279297"/>
      <use xlink:href="#ArialMT-20" x="511.279297"/>
      <use xlink:href="#ArialMT-72" x="539.0625"/>
      <use xlink:href="#ArialMT-61" x="572.363281"/>
      <use xlink:href="#ArialMT-74" x="627.978516"/>
      <use xlink:href="#ArialMT-65" x="655.761719"/>
      <use xlink:href="#ArialMT-20" x="711.376953"/>
      <use xlink:href="#ArialMT-28" x="739.160156"/>
      <use xlink:href="#ArialMT-62" x="772.460938"/>
      <use xlink:href="#ArialMT-72" x="828.076172"/>
      <use xlink:href="#ArialMT-65" x="861.376953"/>
      <use xlink:href="#ArialMT-61" x="916.992188"/>
      <use xlink:href="#ArialMT-74" x="972.607422"/>
      <use xlink:href="#ArialMT-68" x="1000.390625"/>
      <use xlink:href="#ArialMT-73" x="1056.005859"/>
      <use xlink:href="#ArialMT-2f" x="1106.005859"/>
      <use xlink:href="#ArialMT-6d" x="1133.789062"/>
      <use xlink:href="#ArialMT-69" x="1217.089844"/>
      <use xlink:href="#ArialMT-6e" x="1239.306641"/>
      <use xlink:href="#ArialMT-29" x="1294.921875"/>
     </g>
    </g>
   </g>
   <g id="PolyCollection_1">
    <defs>
     <path id="m2f536d78a7" d="M 96.794031 -94.096547 
L 94.562008 -94.096547 
L 94.360818 -95.449712 
L 94.134215 -96.802876 
L 93.881224 -98.15604 
L 93.601276 -99.509204 
L 93.294283 -100.862368 
L 92.960697 -102.215533 
L 92.601561 -103.568697 
L 92.218535 -104.921861 
L 91.813904 -106.275025 
L 91.390554 -107.62819 
L 90.951919 -108.981354 
L 90.501895 -110.334518 
L 90.04472 -111.687682 
L 89.584828 -113.040846 
L 89.126667 -114.394011 
L 88.674506 -115.747175 
L 88.232222 -117.100339 
L 87.803079 -118.453503 
L 87.389519 -119.806667 
L 86.992965 -121.159832 
L 86.613655 -122.512996 
L 86.250509 -123.86616 
L 85.901054 -125.219324 
L 85.5614 -126.572489 
L 85.226278 -127.925653 
L 84.889152 -129.278817 
L 84.542392 -130.631981 
L 84.177516 -131.985145 
L 83.785487 -133.33831 
L 83.357061 -134.691474 
L 82.883174 -136.044638 
L 82.355345 -137.397802 
L 81.766093 -138.750966 
L 81.109338 -140.104131 
L 80.380771 -141.457295 
L 79.578184 -142.810459 
L 78.701731 -144.163623 
L 77.754113 -145.516787 
L 76.740684 -146.869952 
L 75.669448 -148.223116 
L 74.55097 -149.57628 
L 73.398176 -150.929444 
L 72.226071 -152.282609 
L 71.051361 -153.635773 
L 69.892003 -154.988937 
L 68.766704 -156.342101 
L 67.694376 -157.695265 
L 66.69357 -159.04843 
L 65.781925 -160.401594 
L 64.975631 -161.754758 
L 64.288951 -163.107922 
L 63.733802 -164.461086 
L 63.319425 -165.814251 
L 63.052151 -167.167415 
L 62.935273 -168.520579 
L 62.969029 -169.873743 
L 63.150687 -171.226908 
L 63.474747 -172.580072 
L 63.933213 -173.933236 
L 64.515963 -175.2864 
L 65.211162 -176.639564 
L 66.005717 -177.992729 
L 66.885749 -179.345893 
L 67.837057 -180.699057 
L 68.845554 -182.052221 
L 69.897664 -183.405385 
L 70.98065 -184.75855 
L 72.082883 -186.111714 
L 73.194023 -187.464878 
L 74.305132 -188.818042 
L 75.408704 -190.171206 
L 76.498631 -191.524371 
L 77.570103 -192.877535 
L 78.619472 -194.230699 
L 79.644072 -195.583863 
L 80.642027 -196.937028 
L 81.612059 -198.290192 
L 82.553291 -199.643356 
L 83.465086 -200.99652 
L 84.3469 -202.349684 
L 85.198178 -203.702849 
L 86.018279 -205.056013 
L 86.806439 -206.409177 
L 87.561768 -207.762341 
L 88.283273 -209.115505 
L 88.969904 -210.46867 
L 89.620617 -211.821834 
L 90.23444 -213.174998 
L 90.810549 -214.528162 
L 91.348331 -215.881327 
L 91.847441 -217.234491 
L 92.307845 -218.587655 
L 92.729852 -219.940819 
L 93.114117 -221.293983 
L 93.461645 -222.647148 
L 93.773761 -224.000312 
L 94.052086 -225.353476 
L 94.298487 -226.70664 
L 94.515031 -228.059804 
L 96.841008 -228.059804 
L 96.841008 -228.059804 
L 97.057551 -226.70664 
L 97.303952 -225.353476 
L 97.582277 -224.000312 
L 97.894394 -222.647148 
L 98.241921 -221.293983 
L 98.626187 -219.940819 
L 99.048193 -218.587655 
L 99.508598 -217.234491 
L 100.007707 -215.881327 
L 100.545489 -214.528162 
L 101.121598 -213.174998 
L 101.735422 -211.821834 
L 102.386135 -210.46867 
L 103.072766 -209.115505 
L 103.794271 -207.762341 
L 104.5496 -206.409177 
L 105.33776 -205.056013 
L 106.15786 -203.702849 
L 107.009138 -202.349684 
L 107.890953 -200.99652 
L 108.802747 -199.643356 
L 109.74398 -198.290192 
L 110.714011 -196.937028 
L 111.711967 -195.583863 
L 112.736566 -194.230699 
L 113.785935 -192.877535 
L 114.857408 -191.524371 
L 115.947334 -190.171206 
L 117.050907 -188.818042 
L 118.162016 -187.464878 
L 119.273156 -186.111714 
L 120.375388 -184.75855 
L 121.458375 -183.405385 
L 122.510484 -182.052221 
L 123.518982 -180.699057 
L 124.47029 -179.345893 
L 125.350321 -177.992729 
L 126.144876 -176.639564 
L 126.840075 -175.2864 
L 127.422825 -173.933236 
L 127.881292 -172.580072 
L 128.205351 -171.226908 
L 128.38701 -169.873743 
L 128.420765 -168.520579 
L 128.303888 -167.167415 
L 128.036614 -165.814251 
L 127.622237 -164.461086 
L 127.067088 -163.107922 
L 126.380408 -161.754758 
L 125.574114 -160.401594 
L 124.662469 -159.04843 
L 123.661663 -157.695265 
L 122.589334 -156.342101 
L 121.464036 -154.988937 
L 120.304678 -153.635773 
L 119.129967 -152.282609 
L 117.957862 -150.929444 
L 116.805069 -149.57628 
L 115.68659 -148.223116 
L 114.615355 -146.869952 
L 113.601926 -145.516787 
L 112.654308 -144.163623 
L 111.777854 -142.810459 
L 110.975267 -141.457295 
L 110.2467 -140.104131 
L 109.589945 -138.750966 
L 109.000693 -137.397802 
L 108.472865 -136.044638 
L 107.998977 -134.691474 
L 107.570552 -133.33831 
L 107.178523 -131.985145 
L 106.813647 -130.631981 
L 106.466887 -129.278817 
L 106.129761 -127.925653 
L 105.794639 -126.572489 
L 105.454984 -125.219324 
L 105.10553 -123.86616 
L 104.742384 -122.512996 
L 104.363073 -121.159832 
L 103.966519 -119.806667 
L 103.552959 -118.453503 
L 103.123816 -117.100339 
L 102.681532 -115.747175 
L 102.229372 -114.394011 
L 101.771211 -113.040846 
L 101.311318 -111.687682 
L 100.854143 -110.334518 
L 100.404119 -108.981354 
L 99.965485 -107.62819 
L 99.542135 -106.275025 
L 99.137504 -104.921861 
L 98.754478 -103.568697 
L 98.395341 -102.215533 
L 98.061755 -100.862368 
L 97.754762 -99.509204 
L 97.474815 -98.15604 
L 97.221823 -96.802876 
L 96.99522 -95.449712 
L 96.794031 -94.096547 
z
" style="stroke: #3f3f3f; stroke-width: 1.25"/>
    </defs>
    <g clip-path="url(#p8e3c3713c0)">
     <use xlink:href="#m2f536d78a7" x="0" y="360" style="fill: #3274a1; stroke: #3f3f3f; stroke-width: 1.25"/>
    </g>
   </g>
   <g id="PolyCollection_2">
    <defs>
     <path id="m27ababf7c0" d="M 162.909132 -107.391548 
L 159.417891 -107.391548 
L 159.100001 -108.372133 
L 158.737235 -109.352719 
L 158.325829 -110.333305 
L 157.862173 -111.313891 
L 157.342901 -112.294477 
L 156.765007 -113.275062 
L 156.125946 -114.255648 
L 155.423755 -115.236234 
L 154.657163 -116.21682 
L 153.825704 -117.197406 
L 152.929815 -118.177991 
L 151.970932 -119.158577 
L 150.951557 -120.139163 
L 149.875318 -121.119749 
L 148.746993 -122.100335 
L 147.572518 -123.08092 
L 146.358952 -124.061506 
L 145.11442 -125.042092 
L 143.848019 -126.022678 
L 142.569686 -127.003264 
L 141.290042 -127.983849 
L 140.0202 -128.964435 
L 138.771548 -129.945021 
L 137.555514 -130.925607 
L 136.383316 -131.906193 
L 135.2657 -132.886779 
L 134.212684 -133.867364 
L 133.233311 -134.84795 
L 132.335421 -135.828536 
L 131.525442 -136.809122 
L 130.808229 -137.789708 
L 130.186936 -138.770293 
L 129.662941 -139.750879 
L 129.235818 -140.731465 
L 128.903372 -141.712051 
L 128.661725 -142.692637 
L 128.50545 -143.673222 
L 128.427766 -144.653808 
L 128.420765 -145.634394 
L 128.475681 -146.61498 
L 128.583179 -147.595566 
L 128.733662 -148.576151 
L 128.91758 -149.556737 
L 129.125733 -150.537323 
L 129.349551 -151.517909 
L 129.581345 -152.498495 
L 129.814527 -153.47908 
L 130.043778 -154.459666 
L 130.265164 -155.440252 
L 130.476212 -156.420838 
L 130.675919 -157.401424 
L 130.864722 -158.382009 
L 131.044407 -159.362595 
L 131.21799 -160.343181 
L 131.389551 -161.323767 
L 131.56405 -162.304353 
L 131.747111 -163.284939 
L 131.944805 -164.265524 
L 132.163424 -165.24611 
L 132.409259 -166.226696 
L 132.68839 -167.207282 
L 133.006492 -168.187868 
L 133.368658 -169.168453 
L 133.77925 -170.149039 
L 134.241777 -171.129625 
L 134.758798 -172.110211 
L 135.331857 -173.090797 
L 135.961443 -174.071382 
L 136.646979 -175.051968 
L 137.38684 -176.032554 
L 138.178391 -177.01314 
L 139.018046 -177.993726 
L 139.901358 -178.974311 
L 140.82311 -179.954897 
L 141.777431 -180.935483 
L 142.757923 -181.916069 
L 143.757793 -182.896655 
L 144.769987 -183.87724 
L 145.78734 -184.857826 
L 146.802703 -185.838412 
L 147.809085 -186.818998 
L 148.799778 -187.799584 
L 149.768469 -188.780169 
L 150.709345 -189.760755 
L 151.617178 -190.741341 
L 152.487394 -191.721927 
L 153.316127 -192.702513 
L 154.100247 -193.683099 
L 154.837374 -194.663684 
L 155.525873 -195.64427 
L 156.164835 -196.624856 
L 156.754033 -197.605442 
L 157.293876 -198.586028 
L 157.785348 -199.566613 
L 158.229933 -200.547199 
L 158.629548 -201.527785 
L 158.986457 -202.508371 
L 159.303198 -203.488957 
L 159.582508 -204.469542 
L 162.744515 -204.469542 
L 162.744515 -204.469542 
L 163.023825 -203.488957 
L 163.340567 -202.508371 
L 163.697476 -201.527785 
L 164.09709 -200.547199 
L 164.541676 -199.566613 
L 165.033147 -198.586028 
L 165.57299 -197.605442 
L 166.162188 -196.624856 
L 166.80115 -195.64427 
L 167.489649 -194.663684 
L 168.226776 -193.683099 
L 169.010896 -192.702513 
L 169.839629 -191.721927 
L 170.709846 -190.741341 
L 171.617678 -189.760755 
L 172.558554 -188.780169 
L 173.527245 -187.799584 
L 174.517938 -186.818998 
L 175.524321 -185.838412 
L 176.539684 -184.857826 
L 177.557036 -183.87724 
L 178.569231 -182.896655 
L 179.5691 -181.916069 
L 180.549592 -180.935483 
L 181.503913 -179.954897 
L 182.425665 -178.974311 
L 183.308977 -177.993726 
L 184.148633 -177.01314 
L 184.940183 -176.032554 
L 185.680044 -175.051968 
L 186.36558 -174.071382 
L 186.995166 -173.090797 
L 187.568225 -172.110211 
L 188.085246 -171.129625 
L 188.547773 -170.149039 
L 188.958365 -169.168453 
L 189.320531 -168.187868 
L 189.638633 -167.207282 
L 189.917764 -166.226696 
L 190.1636 -165.24611 
L 190.382218 -164.265524 
L 190.579912 -163.284939 
L 190.762973 -162.304353 
L 190.937472 -161.323767 
L 191.109034 -160.343181 
L 191.282616 -159.362595 
L 191.462301 -158.382009 
L 191.651104 -157.401424 
L 191.850812 -156.420838 
L 192.061859 -155.440252 
L 192.283246 -154.459666 
L 192.512496 -153.47908 
L 192.745678 -152.498495 
L 192.977472 -151.517909 
L 193.20129 -150.537323 
L 193.409443 -149.556737 
L 193.593361 -148.576151 
L 193.743844 -147.595566 
L 193.851342 -146.61498 
L 193.906258 -145.634394 
L 193.899257 -144.653808 
L 193.821573 -143.673222 
L 193.665298 -142.692637 
L 193.423651 -141.712051 
L 193.091205 -140.731465 
L 192.664082 -139.750879 
L 192.140087 -138.770293 
L 191.518794 -137.789708 
L 190.801581 -136.809122 
L 189.991602 -135.828536 
L 189.093712 -134.84795 
L 188.11434 -133.867364 
L 187.061324 -132.886779 
L 185.943707 -131.906193 
L 184.771509 -130.925607 
L 183.555475 -129.945021 
L 182.306823 -128.964435 
L 181.036981 -127.983849 
L 179.757337 -127.003264 
L 178.479004 -126.022678 
L 177.212603 -125.042092 
L 175.968072 -124.061506 
L 174.754505 -123.08092 
L 173.58003 -122.100335 
L 172.451705 -121.119749 
L 171.375466 -120.139163 
L 170.356091 -119.158577 
L 169.397208 -118.177991 
L 168.50132 -117.197406 
L 167.66986 -116.21682 
L 166.903269 -115.236234 
L 166.201077 -114.255648 
L 165.562016 -113.275062 
L 164.984122 -112.294477 
L 164.464851 -111.313891 
L 164.001194 -110.333305 
L 163.589788 -109.352719 
L 163.227022 -108.372133 
L 162.909132 -107.391548 
z
" style="stroke: #3f3f3f; stroke-width: 1.25"/>
    </defs>
    <g clip-path="url(#p8e3c3713c0)">
     <use xlink:href="#m27ababf7c0" x="0" y="360" style="fill: #e1812c; stroke: #3f3f3f; stroke-width: 1.25"/>
    </g>
   </g>
   <g id="PolyCollection_3">
    <defs>
     <path id="me28b2e8688" d="M 259.899268 -55.292727 
L 258.884232 -55.292727 
L 258.772561 -57.986208 
L 258.64164 -60.679688 
L 258.48935 -63.373168 
L 258.313574 -66.066648 
L 258.112245 -68.760129 
L 257.883397 -71.453609 
L 257.625224 -74.147089 
L 257.336137 -76.840569 
L 257.014822 -79.53405 
L 256.660303 -82.22753 
L 256.271992 -84.92101 
L 255.849746 -87.61449 
L 255.393911 -90.307971 
L 254.90536 -93.001451 
L 254.385523 -95.694931 
L 253.836408 -98.388411 
L 253.260606 -101.081892 
L 252.661289 -103.775372 
L 252.042187 -106.468852 
L 251.407559 -109.162332 
L 250.762144 -111.855813 
L 250.111098 -114.549293 
L 249.459916 -117.242773 
L 248.814346 -119.936253 
L 248.180286 -122.629734 
L 247.563678 -125.323214 
L 246.970389 -128.016694 
L 246.406101 -130.710174 
L 245.876193 -133.403655 
L 245.385638 -136.097135 
L 244.938908 -138.790615 
L 244.539891 -141.484096 
L 244.191832 -144.177576 
L 243.897289 -146.871056 
L 243.658113 -149.564536 
L 243.475447 -152.258017 
L 243.349749 -154.951497 
L 243.280826 -157.644977 
L 243.267885 -160.338457 
L 243.309592 -163.031938 
L 243.40414 -165.725418 
L 243.549313 -168.418898 
L 243.742548 -171.112378 
L 243.980991 -173.805859 
L 244.261548 -176.499339 
L 244.580921 -179.192819 
L 244.935639 -181.886299 
L 245.322077 -184.57978 
L 245.736472 -187.27326 
L 246.174934 -189.96674 
L 246.633456 -192.66022 
L 247.107927 -195.353701 
L 247.594151 -198.047181 
L 248.087874 -200.740661 
L 248.584822 -203.434141 
L 249.080745 -206.127622 
L 249.57148 -208.821102 
L 250.053019 -211.514582 
L 250.521585 -214.208062 
L 250.973717 -216.901543 
L 251.406353 -219.595023 
L 251.816909 -222.288503 
L 252.203356 -224.981983 
L 252.564282 -227.675464 
L 252.898931 -230.368944 
L 253.207231 -233.062424 
L 253.489792 -235.755904 
L 253.747878 -238.449385 
L 253.983355 -241.142865 
L 254.198612 -243.836345 
L 254.396456 -246.529826 
L 254.579997 -249.223306 
L 254.75251 -251.916786 
L 254.917297 -254.610266 
L 255.077547 -257.303747 
L 255.236205 -259.997227 
L 255.395852 -262.690707 
L 255.558613 -265.384187 
L 255.72608 -268.077668 
L 255.899277 -270.771148 
L 256.078639 -273.464628 
L 256.264035 -276.158108 
L 256.454809 -278.851589 
L 256.649849 -281.545069 
L 256.84767 -284.238549 
L 257.046511 -286.932029 
L 257.244443 -289.62551 
L 257.439468 -292.31899 
L 257.62962 -295.01247 
L 257.813052 -297.70595 
L 257.988107 -300.399431 
L 258.153378 -303.092911 
L 258.307744 -305.786391 
L 258.450391 -308.479871 
L 258.580817 -311.173352 
L 258.69882 -313.866832 
L 258.804475 -316.560312 
L 258.898101 -319.253792 
L 258.98022 -321.947273 
L 259.80328 -321.947273 
L 259.80328 -321.947273 
L 259.885399 -319.253792 
L 259.979025 -316.560312 
L 260.08468 -313.866832 
L 260.202683 -311.173352 
L 260.333109 -308.479871 
L 260.475757 -305.786391 
L 260.630123 -303.092911 
L 260.795394 -300.399431 
L 260.970449 -297.70595 
L 261.15388 -295.01247 
L 261.344033 -292.31899 
L 261.539058 -289.62551 
L 261.736989 -286.932029 
L 261.93583 -284.238549 
L 262.133651 -281.545069 
L 262.328691 -278.851589 
L 262.519466 -276.158108 
L 262.704862 -273.464628 
L 262.884224 -270.771148 
L 263.05742 -268.077668 
L 263.224887 -265.384187 
L 263.387648 -262.690707 
L 263.547295 -259.997227 
L 263.705953 -257.303747 
L 263.866203 -254.610266 
L 264.03099 -251.916786 
L 264.203503 -249.223306 
L 264.387044 -246.529826 
L 264.584888 -243.836345 
L 264.800145 -241.142865 
L 265.035622 -238.449385 
L 265.293709 -235.755904 
L 265.57627 -233.062424 
L 265.88457 -230.368944 
L 266.219218 -227.675464 
L 266.580144 -224.981983 
L 266.966592 -222.288503 
L 267.377148 -219.595023 
L 267.809783 -216.901543 
L 268.261915 -214.208062 
L 268.730481 -211.514582 
L 269.21202 -208.821102 
L 269.702755 -206.127622 
L 270.198678 -203.434141 
L 270.695626 -200.740661 
L 271.189349 -198.047181 
L 271.675574 -195.353701 
L 272.150044 -192.66022 
L 272.608566 -189.96674 
L 273.047028 -187.27326 
L 273.461423 -184.57978 
L 273.847861 -181.886299 
L 274.202579 -179.192819 
L 274.521952 -176.499339 
L 274.80251 -173.805859 
L 275.040953 -171.112378 
L 275.234187 -168.418898 
L 275.37936 -165.725418 
L 275.473908 -163.031938 
L 275.515616 -160.338457 
L 275.502674 -157.644977 
L 275.433751 -154.951497 
L 275.308053 -152.258017 
L 275.125388 -149.564536 
L 274.886211 -146.871056 
L 274.591668 -144.177576 
L 274.243609 -141.484096 
L 273.844592 -138.790615 
L 273.397862 -136.097135 
L 272.907308 -133.403655 
L 272.3774 -130.710174 
L 271.813111 -128.016694 
L 271.219822 -125.323214 
L 270.603214 -122.629734 
L 269.969154 -119.936253 
L 269.323585 -117.242773 
L 268.672403 -114.549293 
L 268.021356 -111.855813 
L 267.375941 -109.162332 
L 266.741313 -106.468852 
L 266.122211 -103.775372 
L 265.522894 -101.081892 
L 264.947092 -98.388411 
L 264.397977 -95.694931 
L 263.87814 -93.001451 
L 263.389589 -90.307971 
L 262.933754 -87.61449 
L 262.511508 -84.92101 
L 262.123197 -82.22753 
L 261.768678 -79.53405 
L 261.447364 -76.840569 
L 261.158276 -74.147089 
L 260.900104 -71.453609 
L 260.671256 -68.760129 
L 260.469926 -66.066648 
L 260.29415 -63.373168 
L 260.14186 -60.679688 
L 260.010939 -57.986208 
L 259.899268 -55.292727 
z
" style="stroke: #3f3f3f; stroke-width: 1.25"/>
    </defs>
    <g clip-path="url(#p8e3c3713c0)">
     <use xlink:href="#me28b2e8688" x="0" y="360" style="fill: #3274a1; stroke: #3f3f3f; stroke-width: 1.25"/>
    </g>
   </g>
   <g id="PolyCollection_4">
    <defs>
     <path id="m86ff019479" d="M 326.074091 -81.401375 
L 323.680394 -81.401375 
L 323.428382 -83.176384 
L 323.135208 -84.951394 
L 322.796885 -86.726403 
L 322.409622 -88.501412 
L 321.96996 -90.276421 
L 321.474929 -92.05143 
L 320.922209 -93.826439 
L 320.310292 -95.601449 
L 319.638639 -97.376458 
L 318.907831 -99.151467 
L 318.11969 -100.926476 
L 317.27738 -102.701485 
L 316.385466 -104.476494 
L 315.449932 -106.251504 
L 314.478151 -108.026513 
L 313.478808 -109.801522 
L 312.461758 -111.576531 
L 311.437848 -113.35154 
L 310.418682 -115.126549 
L 309.41635 -116.901558 
L 308.443129 -118.676568 
L 307.511156 -120.451577 
L 306.632109 -122.226586 
L 305.816884 -124.001595 
L 305.0753 -125.776604 
L 304.415835 -127.551613 
L 303.845413 -129.326623 
L 303.369239 -131.101632 
L 302.990705 -132.876641 
L 302.711351 -134.65165 
L 302.530895 -136.426659 
L 302.447328 -138.201668 
L 302.45705 -139.976678 
L 302.555063 -141.751687 
L 302.735193 -143.526696 
L 302.990329 -145.301705 
L 303.312681 -147.076714 
L 303.694019 -148.851723 
L 304.125916 -150.626733 
L 304.599954 -152.401742 
L 305.107909 -154.176751 
L 305.641902 -155.95176 
L 306.19451 -157.726769 
L 306.758851 -159.501778 
L 307.328635 -161.276788 
L 307.898186 -163.051797 
L 308.462453 -164.826806 
L 309.016994 -166.601815 
L 309.557961 -168.376824 
L 310.082076 -170.151833 
L 310.586612 -171.926843 
L 311.069369 -173.701852 
L 311.528665 -175.476861 
L 311.963322 -177.25187 
L 312.372664 -179.026879 
L 312.75651 -180.801888 
L 313.115172 -182.576898 
L 313.449444 -184.351907 
L 313.760588 -186.126916 
L 314.050314 -187.901925 
L 314.320738 -189.676934 
L 314.574345 -191.451943 
L 314.813923 -193.226953 
L 315.042501 -195.001962 
L 315.263262 -196.776971 
L 315.479464 -198.55198 
L 315.694344 -200.326989 
L 315.911025 -202.101998 
L 316.132426 -203.877007 
L 316.361175 -205.652017 
L 316.599531 -207.427026 
L 316.849317 -209.202035 
L 317.111871 -210.977044 
L 317.388004 -212.752053 
L 317.677987 -214.527062 
L 317.981544 -216.302072 
L 318.297876 -218.077081 
L 318.625689 -219.85209 
L 318.963246 -221.627099 
L 319.308431 -223.402108 
L 319.658824 -225.177117 
L 320.011783 -226.952127 
L 320.364526 -228.727136 
L 320.71423 -230.502145 
L 321.058104 -232.277154 
L 321.39348 -234.052163 
L 321.71788 -235.827172 
L 322.029079 -237.602182 
L 322.325152 -239.377191 
L 322.604514 -241.1522 
L 322.86594 -242.927209 
L 323.108572 -244.702218 
L 323.331914 -246.477227 
L 323.53582 -248.252237 
L 323.720462 -250.027246 
L 323.886298 -251.802255 
L 324.034036 -253.577264 
L 324.164585 -255.352273 
L 324.279012 -257.127282 
L 325.475473 -257.127282 
L 325.475473 -257.127282 
L 325.5899 -255.352273 
L 325.720449 -253.577264 
L 325.868187 -251.802255 
L 326.034023 -250.027246 
L 326.218665 -248.252237 
L 326.422571 -246.477227 
L 326.645913 -244.702218 
L 326.888545 -242.927209 
L 327.149971 -241.1522 
L 327.429333 -239.377191 
L 327.725406 -237.602182 
L 328.036605 -235.827172 
L 328.361005 -234.052163 
L 328.696381 -232.277154 
L 329.040255 -230.502145 
L 329.389959 -228.727136 
L 329.742702 -226.952127 
L 330.09566 -225.177117 
L 330.446054 -223.402108 
L 330.791239 -221.627099 
L 331.128796 -219.85209 
L 331.456609 -218.077081 
L 331.772941 -216.302072 
L 332.076498 -214.527062 
L 332.366481 -212.752053 
L 332.642614 -210.977044 
L 332.905167 -209.202035 
L 333.154954 -207.427026 
L 333.39331 -205.652017 
L 333.622059 -203.877007 
L 333.84346 -202.101998 
L 334.060141 -200.326989 
L 334.275021 -198.55198 
L 334.491223 -196.776971 
L 334.711984 -195.001962 
L 334.940562 -193.226953 
L 335.18014 -191.451943 
L 335.433747 -189.676934 
L 335.704171 -187.901925 
L 335.993897 -186.126916 
L 336.305041 -184.351907 
L 336.639313 -182.576898 
L 336.997975 -180.801888 
L 337.381821 -179.026879 
L 337.791163 -177.25187 
L 338.22582 -175.476861 
L 338.685115 -173.701852 
L 339.167873 -171.926843 
L 339.672409 -170.151833 
L 340.196524 -168.376824 
L 340.737491 -166.601815 
L 341.292032 -164.826806 
L 341.856299 -163.051797 
L 342.42585 -161.276788 
L 342.995633 -159.501778 
L 343.559975 -157.726769 
L 344.112583 -155.95176 
L 344.646576 -154.176751 
L 345.154531 -152.401742 
L 345.628569 -150.626733 
L 346.060466 -148.851723 
L 346.441804 -147.076714 
L 346.764155 -145.301705 
L 347.019292 -143.526696 
L 347.199422 -141.751687 
L 347.297435 -139.976678 
L 347.307157 -138.201668 
L 347.223589 -136.426659 
L 347.043134 -134.65165 
L 346.76378 -132.876641 
L 346.385246 -131.101632 
L 345.909072 -129.326623 
L 345.33865 -127.551613 
L 344.679185 -125.776604 
L 343.937601 -124.001595 
L 343.122376 -122.226586 
L 342.243329 -120.451577 
L 341.311356 -118.676568 
L 340.338134 -116.901558 
L 339.335803 -115.126549 
L 338.316637 -113.35154 
L 337.292727 -111.576531 
L 336.275677 -109.801522 
L 335.276334 -108.026513 
L 334.304553 -106.251504 
L 333.369019 -104.476494 
L 332.477105 -102.701485 
L 331.634795 -100.926476 
L 330.846654 -99.151467 
L 330.115846 -97.376458 
L 329.444193 -95.601449 
L 328.832275 -93.826439 
L 328.279556 -92.05143 
L 327.784525 -90.276421 
L 327.344863 -88.501412 
L 326.9576 -86.726403 
L 326.619277 -84.951394 
L 326.326102 -83.176384 
L 326.074091 -81.401375 
z
" style="stroke: #3f3f3f; stroke-width: 1.25"/>
    </defs>
    <g clip-path="url(#p8e3c3713c0)">
     <use xlink:href="#m86ff019479" x="0" y="360" style="fill: #e1812c; stroke: #3f3f3f; stroke-width: 1.25"/>
    </g>
   </g>
   <g id="line2d_6">
    <path d="M 95.678019 201.81693 
L 95.678019 184.886147 
" clip-path="url(#p8e3c3713c0)" style="fill: none; stroke: #3f3f3f; stroke-width: 1.875; stroke-linecap: round"/>
   </g>
   <g id="line2d_7">
    <path d="M 95.678019 199.801894 
L 95.678019 186.407661 
" clip-path="url(#p8e3c3713c0)" style="fill: none; stroke: #3f3f3f; stroke-width: 5.625; stroke-linecap: round"/>
   </g>
   <g id="line2d_8">
    <path d="M 95.678019 192.364494 
" clip-path="url(#p8e3c3713c0)" style="fill: none; stroke: #3f3f3f; stroke-width: 1.5; stroke-linecap: round"/>
    <defs>
     <path id="mcb39596a93" d="M 2.34375 0 
L -2.34375 -0 
" style="stroke: #ffffff; stroke-width: 1.125"/>
    </defs>
    <g clip-path="url(#p8e3c3713c0)">
     <use xlink:href="#mcb39596a93" x="95.678019" y="192.364494" style="fill: #ffffff; stroke: #ffffff; stroke-width: 1.125"/>
    </g>
   </g>
   <g id="line2d_9">
    <path d="M 161.163512 227.485295 
L 161.163512 180.653615 
" clip-path="url(#p8e3c3713c0)" style="fill: none; stroke: #3f3f3f; stroke-width: 1.875; stroke-linecap: round"/>
   </g>
   <g id="line2d_10">
    <path d="M 161.163512 217.445014 
L 161.163512 193.120316 
" clip-path="url(#p8e3c3713c0)" style="fill: none; stroke: #3f3f3f; stroke-width: 5.625; stroke-linecap: round"/>
   </g>
   <g id="line2d_11">
    <path d="M 161.163512 207.945064 
" clip-path="url(#p8e3c3713c0)" style="fill: none; stroke: #3f3f3f; stroke-width: 1.5; stroke-linecap: round"/>
    <g clip-path="url(#p8e3c3713c0)">
     <use xlink:href="#mcb39596a93" x="161.163512" y="207.945064" style="fill: #ffffff; stroke: #ffffff; stroke-width: 1.125"/>
    </g>
   </g>
   <g id="line2d_12">
    <path d="M 259.39175 246.384911 
L 259.39175 145.488826 
" clip-path="url(#p8e3c3713c0)" style="fill: none; stroke: #3f3f3f; stroke-width: 1.875; stroke-linecap: round"/>
   </g>
   <g id="line2d_13">
    <path d="M 259.39175 216.141879 
L 259.39175 170.770552 
" clip-path="url(#p8e3c3713c0)" style="fill: none; stroke: #3f3f3f; stroke-width: 5.625; stroke-linecap: round"/>
   </g>
   <g id="line2d_14">
    <path d="M 259.39175 193.679027 
" clip-path="url(#p8e3c3713c0)" style="fill: none; stroke: #3f3f3f; stroke-width: 1.5; stroke-linecap: round"/>
    <g clip-path="url(#p8e3c3713c0)">
     <use xlink:href="#mcb39596a93" x="259.39175" y="193.679027" style="fill: #ffffff; stroke: #ffffff; stroke-width: 1.125"/>
    </g>
   </g>
   <g id="line2d_15">
    <path d="M 324.877242 237.34505 
L 324.877242 144.126292 
" clip-path="url(#p8e3c3713c0)" style="fill: none; stroke: #3f3f3f; stroke-width: 1.875; stroke-linecap: round"/>
   </g>
   <g id="line2d_16">
    <path d="M 324.877242 226.957256 
L 324.877242 190.732485 
" clip-path="url(#p8e3c3713c0)" style="fill: none; stroke: #3f3f3f; stroke-width: 5.625; stroke-linecap: round"/>
   </g>
   <g id="line2d_17">
    <path d="M 324.877242 213.972567 
" clip-path="url(#p8e3c3713c0)" style="fill: none; stroke: #3f3f3f; stroke-width: 1.5; stroke-linecap: round"/>
    <g clip-path="url(#p8e3c3713c0)">
     <use xlink:href="#mcb39596a93" x="324.877242" y="213.972567" style="fill: #ffffff; stroke: #ffffff; stroke-width: 1.125"/>
    </g>
   </g>
   <g id="patch_3">
    <path d="M 46.5639 318.04 
L 46.5639 24.72 
" style="fill: none; stroke: #cccccc; stroke-width: 0.8; stroke-linejoin: miter; stroke-linecap: square"/>
   </g>
   <g id="patch_4">
    <path d="M 46.5639 318.04 
L 373.991362 318.04 
" style="fill: none; stroke: #cccccc; stroke-width: 0.8; stroke-linejoin: miter; stroke-linecap: square"/>
   </g>
   <g id="text_10">
    <!-- sex = f -->
    <g style="fill: #262626" transform="translate(195.409662 18.72) scale(0.1 -0.1)">
     <defs>
      <path id="ArialMT-78" d="M 47 0 
L 1259 1725 
L 138 3319 
L 841 3319 
L 1350 2541 
Q 1494 2319 1581 2169 
Q 1719 2375 1834 2534 
L 2394 3319 
L 3066 3319 
L 1919 1756 
L 3153 0 
L 2463 0 
L 1781 1031 
L 1600 1309 
L 728 0 
L 47 0 
z
" transform="scale(0.015625)"/>
      <path id="ArialMT-3d" d="M 3381 2694 
L 356 2694 
L 356 3219 
L 3381 3219 
L 3381 2694 
z
M 3381 1303 
L 356 1303 
L 356 1828 
L 3381 1828 
L 3381 1303 
z
" transform="scale(0.015625)"/>
      <path id="ArialMT-66" d="M 556 0 
L 556 2881 
L 59 2881 
L 59 3319 
L 556 3319 
L 556 3672 
Q 556 4006 616 4169 
Q 697 4388 901 4523 
Q 1106 4659 1475 4659 
Q 1713 4659 2000 4603 
L 1916 4113 
Q 1741 4144 1584 4144 
Q 1328 4144 1222 4034 
Q 1116 3925 1116 3625 
L 1116 3319 
L 1763 3319 
L 1763 2881 
L 1116 2881 
L 1116 0 
L 556 0 
z
" transform="scale(0.015625)"/>
     </defs>
     <use xlink:href="#ArialMT-73"/>
     <use xlink:href="#ArialMT-65" x="50"/>
     <use xlink:href="#ArialMT-78" x="105.615234"/>
     <use xlink:href="#ArialMT-20" x="155.615234"/>
     <use xlink:href="#ArialMT-3d" x="183.398438"/>
     <use xlink:href="#ArialMT-20" x="241.796875"/>
     <use xlink:href="#ArialMT-66" x="269.580078"/>
    </g>
   </g>
  </g>
  <g id="axes_2">
   <g id="patch_5">
    <path d="M 384.783038 318.04 
L 712.2105 318.04 
L 712.2105 24.72 
L 384.783038 24.72 
z
" style="fill: #ffffff"/>
   </g>
   <g id="matplotlib.axis_3">
    <g id="xtick_3">
     <g id="text_11">
      <!-- Baia -->
      <g style="fill: #262626" transform="translate(456.632872 332.197812) scale(0.1 -0.1)">
       <use xlink:href="#ArialMT-42"/>
       <use xlink:href="#ArialMT-61" x="66.699219"/>
       <use xlink:href="#ArialMT-69" x="122.314453"/>
       <use xlink:href="#ArialMT-61" x="144.53125"/>
      </g>
     </g>
    </g>
    <g id="xtick_4">
     <g id="text_12">
      <!-- Jurilovca -->
      <g style="fill: #262626" transform="translate(610.62551 332.197812) scale(0.1 -0.1)">
       <use xlink:href="#ArialMT-4a"/>
       <use xlink:href="#ArialMT-75" x="50"/>
       <use xlink:href="#ArialMT-72" x="105.615234"/>
       <use xlink:href="#ArialMT-69" x="138.916016"/>
       <use xlink:href="#ArialMT-6c" x="161.132812"/>
       <use xlink:href="#ArialMT-6f" x="183.349609"/>
       <use xlink:href="#ArialMT-76" x="238.964844"/>
       <use xlink:href="#ArialMT-63" x="288.964844"/>
       <use xlink:href="#ArialMT-61" x="338.964844"/>
      </g>
     </g>
    </g>
    <g id="text_13">
     <!-- Location -->
     <g style="fill: #262626" transform="translate(529.594425 345.343125) scale(0.1 -0.1)">
      <use xlink:href="#ArialMT-4c"/>
      <use xlink:href="#ArialMT-6f" x="55.615234"/>
      <use xlink:href="#ArialMT-63" x="111.230469"/>
      <use xlink:href="#ArialMT-61" x="161.230469"/>
      <use xlink:href="#ArialMT-74" x="216.845703"/>
      <use xlink:href="#ArialMT-69" x="244.628906"/>
      <use xlink:href="#ArialMT-6f" x="266.845703"/>
      <use xlink:href="#ArialMT-6e" x="322.460938"/>
     </g>
    </g>
   </g>
   <g id="matplotlib.axis_4">
    <g id="ytick_6">
     <g id="line2d_18">
      <path d="M 384.783038 287.271659 
L 712.2105 287.271659 
" clip-path="url(#p9970a38861)" style="fill: none; stroke: #cccccc; stroke-width: 0.8; stroke-linecap: round"/>
     </g>
    </g>
    <g id="ytick_7">
     <g id="line2d_19">
      <path d="M 384.783038 228.00468 
L 712.2105 228.00468 
" clip-path="url(#p9970a38861)" style="fill: none; stroke: #cccccc; stroke-width: 0.8; stroke-linecap: round"/>
     </g>
    </g>
    <g id="ytick_8">
     <g id="line2d_20">
      <path d="M 384.783038 168.737701 
L 712.2105 168.737701 
" clip-path="url(#p9970a38861)" style="fill: none; stroke: #cccccc; stroke-width: 0.8; stroke-linecap: round"/>
     </g>
    </g>
    <g id="ytick_9">
     <g id="line2d_21">
      <path d="M 384.783038 109.470722 
L 712.2105 109.470722 
" clip-path="url(#p9970a38861)" style="fill: none; stroke: #cccccc; stroke-width: 0.8; stroke-linecap: round"/>
     </g>
    </g>
    <g id="ytick_10">
     <g id="line2d_22">
      <path d="M 384.783038 50.203743 
L 712.2105 50.203743 
" clip-path="url(#p9970a38861)" style="fill: none; stroke: #cccccc; stroke-width: 0.8; stroke-linecap: round"/>
     </g>
    </g>
   </g>
   <g id="PolyCollection_5">
    <defs>
     <path id="m040190fb08" d="M 435.422159 -128.495944 
L 432.372156 -128.495944 
L 432.030477 -129.385967 
L 431.631083 -130.275991 
L 431.168674 -131.166014 
L 430.638384 -132.056037 
L 430.035996 -132.94606 
L 429.358139 -133.836083 
L 428.60249 -134.726106 
L 427.767947 -135.616129 
L 426.854777 -136.506153 
L 425.864726 -137.396176 
L 424.801078 -138.286199 
L 423.668669 -139.176222 
L 422.473848 -140.066245 
L 421.224386 -140.956268 
L 419.929342 -141.846291 
L 418.598888 -142.736315 
L 417.244109 -143.626338 
L 415.876786 -144.516361 
L 414.509158 -145.406384 
L 413.153701 -146.296407 
L 411.822906 -147.18643 
L 410.529061 -148.076453 
L 409.284063 -148.966477 
L 408.099224 -149.8565 
L 406.985099 -150.746523 
L 405.951315 -151.636546 
L 405.0064 -152.526569 
L 404.157611 -153.416592 
L 403.410767 -154.306616 
L 402.770079 -155.196639 
L 402.237993 -156.086662 
L 401.815049 -156.976685 
L 401.499777 -157.866708 
L 401.288641 -158.756731 
L 401.176045 -159.646754 
L 401.154411 -160.536778 
L 401.214356 -161.426801 
L 401.344946 -162.316824 
L 401.534052 -163.206847 
L 401.768785 -164.09687 
L 402.035995 -164.986893 
L 402.322816 -165.876916 
L 402.617229 -166.76694 
L 402.908608 -167.656963 
L 403.188211 -168.546986 
L 403.449597 -169.437009 
L 403.688925 -170.327032 
L 403.905116 -171.217055 
L 404.099876 -172.107078 
L 404.277547 -172.997102 
L 404.444821 -173.887125 
L 404.610314 -174.777148 
L 404.784028 -175.667171 
L 404.976749 -176.557194 
L 405.199393 -177.447217 
L 405.462372 -178.337241 
L 405.774996 -179.227264 
L 406.14497 -180.117287 
L 406.577994 -181.00731 
L 407.077514 -181.897333 
L 407.644607 -182.787356 
L 408.278028 -183.677379 
L 408.974384 -184.567403 
L 409.728425 -185.457426 
L 410.533431 -186.347449 
L 411.381642 -187.237472 
L 412.264715 -188.127495 
L 413.174163 -189.017518 
L 414.101748 -189.907541 
L 415.039805 -190.797565 
L 415.98148 -191.687588 
L 416.920874 -192.577611 
L 417.853096 -193.467634 
L 418.774225 -194.357657 
L 419.681216 -195.24768 
L 420.571738 -196.137704 
L 421.443993 -197.027727 
L 422.296528 -197.91775 
L 423.128052 -198.807773 
L 423.937282 -199.697796 
L 424.722833 -200.587819 
L 425.483146 -201.477842 
L 426.21647 -202.367866 
L 426.920883 -203.257889 
L 427.594353 -204.147912 
L 428.234828 -205.037935 
L 428.840341 -205.927958 
L 429.409116 -206.817981 
L 429.939683 -207.708004 
L 430.430958 -208.598028 
L 430.882324 -209.488051 
L 431.293665 -210.378074 
L 431.66539 -211.268097 
L 431.998419 -212.15812 
L 432.294149 -213.048143 
L 432.554397 -213.938166 
L 432.78133 -214.82819 
L 432.977386 -215.718213 
L 433.145185 -216.608236 
L 434.64913 -216.608236 
L 434.64913 -216.608236 
L 434.816929 -215.718213 
L 435.012985 -214.82819 
L 435.239918 -213.938166 
L 435.500166 -213.048143 
L 435.795896 -212.15812 
L 436.128925 -211.268097 
L 436.50065 -210.378074 
L 436.911992 -209.488051 
L 437.363357 -208.598028 
L 437.854633 -207.708004 
L 438.385199 -206.817981 
L 438.953975 -205.927958 
L 439.559487 -205.037935 
L 440.199962 -204.147912 
L 440.873433 -203.257889 
L 441.577845 -202.367866 
L 442.311169 -201.477842 
L 443.071482 -200.587819 
L 443.857033 -199.697796 
L 444.666263 -198.807773 
L 445.497787 -197.91775 
L 446.350322 -197.027727 
L 447.222577 -196.137704 
L 448.113099 -195.24768 
L 449.02009 -194.357657 
L 449.941219 -193.467634 
L 450.873441 -192.577611 
L 451.812835 -191.687588 
L 452.75451 -190.797565 
L 453.692567 -189.907541 
L 454.620152 -189.017518 
L 455.5296 -188.127495 
L 456.412673 -187.237472 
L 457.260884 -186.347449 
L 458.06589 -185.457426 
L 458.819931 -184.567403 
L 459.516287 -183.677379 
L 460.149708 -182.787356 
L 460.716802 -181.897333 
L 461.216321 -181.00731 
L 461.649345 -180.117287 
L 462.019319 -179.227264 
L 462.331943 -178.337241 
L 462.594922 -177.447217 
L 462.817566 -176.557194 
L 463.010287 -175.667171 
L 463.184001 -174.777148 
L 463.349494 -173.887125 
L 463.516768 -172.997102 
L 463.694439 -172.107078 
L 463.889199 -171.217055 
L 464.105391 -170.327032 
L 464.344718 -169.437009 
L 464.606104 -168.546986 
L 464.885707 -167.656963 
L 465.177086 -166.76694 
L 465.471499 -165.876916 
L 465.75832 -164.986893 
L 466.02553 -164.09687 
L 466.260263 -163.206847 
L 466.449369 -162.316824 
L 466.579959 -161.426801 
L 466.639904 -160.536778 
L 466.61827 -159.646754 
L 466.505674 -158.756731 
L 466.294538 -157.866708 
L 465.979267 -156.976685 
L 465.556322 -156.086662 
L 465.024236 -155.196639 
L 464.383548 -154.306616 
L 463.636704 -153.416592 
L 462.787915 -152.526569 
L 461.843 -151.636546 
L 460.809216 -150.746523 
L 459.695091 -149.8565 
L 458.510252 -148.966477 
L 457.265254 -148.076453 
L 455.971409 -147.18643 
L 454.640614 -146.296407 
L 453.285158 -145.406384 
L 451.917529 -144.516361 
L 450.550206 -143.626338 
L 449.195428 -142.736315 
L 447.864973 -141.846291 
L 446.569929 -140.956268 
L 445.320467 -140.066245 
L 444.125646 -139.176222 
L 442.993237 -138.286199 
L 441.929589 -137.396176 
L 440.939538 -136.506153 
L 440.026368 -135.616129 
L 439.191825 -134.726106 
L 438.436176 -133.836083 
L 437.758319 -132.94606 
L 437.155931 -132.056037 
L 436.625642 -131.166014 
L 436.163232 -130.275991 
L 435.763838 -129.385967 
L 435.422159 -128.495944 
z
" style="stroke: #3f3f3f; stroke-width: 1.25"/>
    </defs>
    <g clip-path="url(#p9970a38861)">
     <use xlink:href="#m040190fb08" x="0" y="360" style="fill: #3274a1; stroke: #3f3f3f; stroke-width: 1.25"/>
    </g>
   </g>
   <g id="PolyCollection_6">
    <defs>
     <path id="m8a837c80bb" d="M 499.749486 -97.523291 
L 499.015813 -97.523291 
L 498.921881 -98.885422 
L 498.809802 -100.247553 
L 498.677657 -101.609685 
L 498.523703 -102.971816 
L 498.346469 -104.333947 
L 498.144848 -105.696079 
L 497.91819 -107.05821 
L 497.666374 -108.420341 
L 497.389865 -109.782473 
L 497.089733 -111.144604 
L 496.767648 -112.506735 
L 496.42583 -113.868867 
L 496.066965 -115.230998 
L 495.694079 -116.593129 
L 495.310389 -117.955261 
L 494.919129 -119.317392 
L 494.523367 -120.679523 
L 494.125829 -122.041654 
L 493.728742 -123.403786 
L 493.333714 -124.765917 
L 492.941651 -126.128048 
L 492.552745 -127.49018 
L 492.166507 -128.852311 
L 491.781867 -130.214442 
L 491.397328 -131.576574 
L 491.011155 -132.938705 
L 490.621598 -134.300836 
L 490.227113 -135.662968 
L 489.826584 -137.025099 
L 489.419495 -138.38723 
L 489.006075 -139.749362 
L 488.587362 -141.111493 
L 488.165225 -142.473624 
L 487.742302 -143.835755 
L 487.321895 -145.197887 
L 486.907816 -146.560018 
L 486.504211 -147.922149 
L 486.115377 -149.284281 
L 485.745592 -150.646412 
L 485.398975 -152.008543 
L 485.079395 -153.370675 
L 484.790422 -154.732806 
L 484.53533 -156.094937 
L 484.31714 -157.457069 
L 484.138695 -158.8192 
L 484.002737 -160.181331 
L 483.911984 -161.543463 
L 483.869173 -162.905594 
L 483.877063 -164.267725 
L 483.938381 -165.629856 
L 484.055715 -166.991988 
L 484.231346 -168.354119 
L 484.467041 -169.71625 
L 484.763812 -171.078382 
L 485.12168 -172.440513 
L 485.539447 -173.802644 
L 486.014517 -175.164776 
L 486.542784 -176.526907 
L 487.118596 -177.889038 
L 487.734816 -179.25117 
L 488.382987 -180.613301 
L 489.053577 -181.975432 
L 489.736317 -183.337564 
L 490.42059 -184.699695 
L 491.095862 -186.061826 
L 491.752121 -187.423957 
L 492.380292 -188.786089 
L 492.972612 -190.14822 
L 493.522917 -191.510351 
L 494.026859 -192.872483 
L 494.482001 -194.234614 
L 494.887814 -195.596745 
L 495.245571 -196.958877 
L 495.55814 -198.321008 
L 495.829705 -199.683139 
L 496.065432 -201.045271 
L 496.271105 -202.407402 
L 496.452747 -203.769533 
L 496.616277 -205.131665 
L 496.76719 -206.493796 
L 496.910308 -207.855927 
L 497.049592 -209.218059 
L 497.188031 -210.58019 
L 497.32761 -211.942321 
L 497.469341 -213.304452 
L 497.613357 -214.666584 
L 497.759048 -216.028715 
L 497.905232 -217.390846 
L 498.050336 -218.752978 
L 498.192577 -220.115109 
L 498.330131 -221.47724 
L 498.461277 -222.839372 
L 498.584512 -224.201503 
L 498.698633 -225.563634 
L 498.802778 -226.925766 
L 498.896449 -228.287897 
L 498.979493 -229.650028 
L 499.052074 -231.01216 
L 499.114624 -232.374291 
L 499.650676 -232.374291 
L 499.650676 -232.374291 
L 499.713225 -231.01216 
L 499.785807 -229.650028 
L 499.868851 -228.287897 
L 499.962522 -226.925766 
L 500.066667 -225.563634 
L 500.180787 -224.201503 
L 500.304023 -222.839372 
L 500.435169 -221.47724 
L 500.572723 -220.115109 
L 500.714964 -218.752978 
L 500.860067 -217.390846 
L 501.006252 -216.028715 
L 501.151943 -214.666584 
L 501.295958 -213.304452 
L 501.43769 -211.942321 
L 501.577269 -210.58019 
L 501.715708 -209.218059 
L 501.854992 -207.855927 
L 501.99811 -206.493796 
L 502.149023 -205.131665 
L 502.312553 -203.769533 
L 502.494195 -202.407402 
L 502.699867 -201.045271 
L 502.935595 -199.683139 
L 503.20716 -198.321008 
L 503.519728 -196.958877 
L 503.877485 -195.596745 
L 504.283299 -194.234614 
L 504.73844 -192.872483 
L 505.242382 -191.510351 
L 505.792688 -190.14822 
L 506.385007 -188.786089 
L 507.013179 -187.423957 
L 507.669438 -186.061826 
L 508.34471 -184.699695 
L 509.028983 -183.337564 
L 509.711723 -181.975432 
L 510.382313 -180.613301 
L 511.030484 -179.25117 
L 511.646704 -177.889038 
L 512.222515 -176.526907 
L 512.750782 -175.164776 
L 513.225853 -173.802644 
L 513.64362 -172.440513 
L 514.001488 -171.078382 
L 514.298259 -169.71625 
L 514.533954 -168.354119 
L 514.709585 -166.991988 
L 514.826919 -165.629856 
L 514.888237 -164.267725 
L 514.896127 -162.905594 
L 514.853315 -161.543463 
L 514.762562 -160.181331 
L 514.626605 -158.8192 
L 514.448159 -157.457069 
L 514.22997 -156.094937 
L 513.974878 -154.732806 
L 513.685905 -153.370675 
L 513.366325 -152.008543 
L 513.019708 -150.646412 
L 512.649922 -149.284281 
L 512.261088 -147.922149 
L 511.857484 -146.560018 
L 511.443405 -145.197887 
L 511.022998 -143.835755 
L 510.600074 -142.473624 
L 510.177937 -141.111493 
L 509.759225 -139.749362 
L 509.345804 -138.38723 
L 508.938716 -137.025099 
L 508.538187 -135.662968 
L 508.143702 -134.300836 
L 507.754144 -132.938705 
L 507.367972 -131.576574 
L 506.983432 -130.214442 
L 506.598793 -128.852311 
L 506.212554 -127.49018 
L 505.823648 -126.128048 
L 505.431586 -124.765917 
L 505.036557 -123.403786 
L 504.639471 -122.041654 
L 504.241933 -120.679523 
L 503.846171 -119.317392 
L 503.45491 -117.955261 
L 503.07122 -116.593129 
L 502.698335 -115.230998 
L 502.339469 -113.868867 
L 501.997652 -112.506735 
L 501.675567 -111.144604 
L 501.375435 -109.782473 
L 501.098925 -108.420341 
L 500.84711 -107.05821 
L 500.620452 -105.696079 
L 500.418831 -104.333947 
L 500.241597 -102.971816 
L 500.087643 -101.609685 
L 499.955498 -100.247553 
L 499.843419 -98.885422 
L 499.749486 -97.523291 
z
" style="stroke: #3f3f3f; stroke-width: 1.25"/>
    </defs>
    <g clip-path="url(#p9970a38861)">
     <use xlink:href="#m8a837c80bb" x="0" y="360" style="fill: #e1812c; stroke: #3f3f3f; stroke-width: 1.25"/>
    </g>
   </g>
   <g id="PolyCollection_7">
    <defs>
     <path id="m7a0c0a7aae" d="M 598.197879 -91.094348 
L 597.023898 -91.094348 
L 596.89864 -92.833063 
L 596.753099 -94.571777 
L 596.585408 -96.310492 
L 596.393801 -98.049206 
L 596.176659 -99.787921 
L 595.932564 -101.526635 
L 595.660346 -103.26535 
L 595.35913 -105.004064 
L 595.02837 -106.742779 
L 594.667879 -108.481493 
L 594.277852 -110.220208 
L 593.858872 -111.958922 
L 593.411913 -113.697637 
L 592.938331 -115.436351 
L 592.439848 -117.175066 
L 591.918525 -118.91378 
L 591.376739 -120.652495 
L 590.817148 -122.391209 
L 590.242655 -124.129924 
L 589.656369 -125.868638 
L 589.061569 -127.607353 
L 588.461649 -129.346067 
L 587.860079 -131.084782 
L 587.260344 -132.823496 
L 586.665886 -134.562211 
L 586.080036 -136.300925 
L 585.50594 -138.03964 
L 584.946488 -139.778354 
L 584.404241 -141.517069 
L 583.88136 -143.255783 
L 583.379553 -144.994498 
L 582.900043 -146.733213 
L 582.443554 -148.471927 
L 582.010334 -150.210642 
L 581.600212 -151.949356 
L 581.212696 -153.688071 
L 580.847096 -155.426785 
L 580.502685 -157.1655 
L 580.178881 -158.904214 
L 579.87543 -160.642929 
L 579.592594 -162.381643 
L 579.331308 -164.120358 
L 579.093301 -165.859072 
L 578.881171 -167.597787 
L 578.698384 -169.336501 
L 578.549211 -171.075216 
L 578.438587 -172.81393 
L 578.371898 -174.552645 
L 578.354705 -176.291359 
L 578.392429 -178.030074 
L 578.490003 -179.768788 
L 578.651522 -181.507503 
L 578.879916 -183.246217 
L 579.176668 -184.984932 
L 579.541598 -186.723646 
L 579.972729 -188.462361 
L 580.466257 -190.201075 
L 581.016614 -191.93979 
L 581.616636 -193.678504 
L 582.257821 -195.417219 
L 582.930659 -197.155933 
L 583.625021 -198.894648 
L 584.330579 -200.633362 
L 585.037227 -202.372077 
L 585.735488 -204.110791 
L 586.416868 -205.849506 
L 587.074154 -207.588221 
L 587.70163 -209.326935 
L 588.295199 -211.06565 
L 588.852421 -212.804364 
L 589.372453 -214.543079 
L 589.855919 -216.281793 
L 590.304703 -218.020508 
L 590.721695 -219.759222 
L 591.110508 -221.497937 
L 591.47518 -223.236651 
L 591.819883 -224.975366 
L 592.14866 -226.71408 
L 592.465192 -228.452795 
L 592.772624 -230.191509 
L 593.073432 -231.930224 
L 593.369358 -233.668938 
L 593.661394 -235.407653 
L 593.949817 -237.146367 
L 594.23426 -238.885082 
L 594.513823 -240.623796 
L 594.7872 -242.362511 
L 595.052817 -244.101225 
L 595.308969 -245.83994 
L 595.553951 -247.578654 
L 595.786172 -249.317369 
L 596.004247 -251.056083 
L 596.207068 -252.794798 
L 596.393846 -254.533512 
L 596.564137 -256.272227 
L 596.717836 -258.010941 
L 596.855162 -259.749656 
L 596.976621 -261.48837 
L 597.082963 -263.227085 
L 598.138813 -263.227085 
L 598.138813 -263.227085 
L 598.245156 -261.48837 
L 598.366615 -259.749656 
L 598.50394 -258.010941 
L 598.65764 -256.272227 
L 598.827931 -254.533512 
L 599.014709 -252.794798 
L 599.21753 -251.056083 
L 599.435605 -249.317369 
L 599.667826 -247.578654 
L 599.912808 -245.83994 
L 600.16896 -244.101225 
L 600.434577 -242.362511 
L 600.707954 -240.623796 
L 600.987517 -238.885082 
L 601.27196 -237.146367 
L 601.560382 -235.407653 
L 601.852419 -233.668938 
L 602.148345 -231.930224 
L 602.449153 -230.191509 
L 602.756584 -228.452795 
L 603.073117 -226.71408 
L 603.401894 -224.975366 
L 603.746597 -223.236651 
L 604.111269 -221.497937 
L 604.500082 -219.759222 
L 604.917074 -218.020508 
L 605.365857 -216.281793 
L 605.849324 -214.543079 
L 606.369356 -212.804364 
L 606.926578 -211.06565 
L 607.520147 -209.326935 
L 608.147623 -207.588221 
L 608.804909 -205.849506 
L 609.486289 -204.110791 
L 610.184549 -202.372077 
L 610.891198 -200.633362 
L 611.596756 -198.894648 
L 612.291118 -197.155933 
L 612.963956 -195.417219 
L 613.605141 -193.678504 
L 614.205163 -191.93979 
L 614.75552 -190.201075 
L 615.249048 -188.462361 
L 615.680179 -186.723646 
L 616.045108 -184.984932 
L 616.341861 -183.246217 
L 616.570255 -181.507503 
L 616.731774 -179.768788 
L 616.829347 -178.030074 
L 616.867072 -176.291359 
L 616.849879 -174.552645 
L 616.783189 -172.81393 
L 616.672566 -171.075216 
L 616.523393 -169.336501 
L 616.340606 -167.597787 
L 616.128476 -165.859072 
L 615.890469 -164.120358 
L 615.629183 -162.381643 
L 615.346347 -160.642929 
L 615.042896 -158.904214 
L 614.719092 -157.1655 
L 614.374681 -155.426785 
L 614.009081 -153.688071 
L 613.621565 -151.949356 
L 613.211443 -150.210642 
L 612.778223 -148.471927 
L 612.321733 -146.733213 
L 611.842223 -144.994498 
L 611.340417 -143.255783 
L 610.817536 -141.517069 
L 610.275289 -139.778354 
L 609.715837 -138.03964 
L 609.141741 -136.300925 
L 608.555891 -134.562211 
L 607.961433 -132.823496 
L 607.361698 -131.084782 
L 606.760128 -129.346067 
L 606.160208 -127.607353 
L 605.565407 -125.868638 
L 604.979122 -124.129924 
L 604.404629 -122.391209 
L 603.845038 -120.652495 
L 603.303252 -118.91378 
L 602.781929 -117.175066 
L 602.283445 -115.436351 
L 601.809864 -113.697637 
L 601.362905 -111.958922 
L 600.943925 -110.220208 
L 600.553898 -108.481493 
L 600.193407 -106.742779 
L 599.862647 -105.004064 
L 599.56143 -103.26535 
L 599.289213 -101.526635 
L 599.045118 -99.787921 
L 598.827976 -98.049206 
L 598.636369 -96.310492 
L 598.468678 -94.571777 
L 598.323137 -92.833063 
L 598.197879 -91.094348 
z
" style="stroke: #3f3f3f; stroke-width: 1.25"/>
    </defs>
    <g clip-path="url(#p9970a38861)">
     <use xlink:href="#m7a0c0a7aae" x="0" y="360" style="fill: #3274a1; stroke: #3f3f3f; stroke-width: 1.25"/>
    </g>
   </g>
   <g id="PolyCollection_8">
    <defs>
     <path id="mc354ebc84c" d="M 663.821592 -106.370496 
L 662.37117 -106.370496 
L 662.218141 -107.135123 
L 662.042991 -107.899751 
L 661.844983 -108.664378 
L 661.623948 -109.429006 
L 661.380395 -110.193633 
L 661.115601 -110.958261 
L 660.83168 -111.722888 
L 660.53161 -112.487515 
L 660.219223 -113.252143 
L 659.89914 -114.01677 
L 659.576654 -114.781398 
L 659.257554 -115.546025 
L 658.9479 -116.310653 
L 658.653746 -117.07528 
L 658.380826 -117.839907 
L 658.134216 -118.604535 
L 657.917991 -119.369162 
L 657.734877 -120.13379 
L 657.585945 -120.898417 
L 657.470339 -121.663045 
L 657.385073 -122.427672 
L 657.324896 -123.192299 
L 657.282254 -123.956927 
L 657.247345 -124.721554 
L 657.208271 -125.486182 
L 657.151303 -126.250809 
L 657.061237 -127.015437 
L 656.921845 -127.780064 
L 656.71641 -128.544692 
L 656.42833 -129.309319 
L 656.041775 -130.073946 
L 655.542378 -130.838574 
L 654.917931 -131.603201 
L 654.159067 -132.367829 
L 653.2599 -133.132456 
L 652.218582 -133.897084 
L 651.037754 -134.661711 
L 649.724862 -135.426338 
L 648.292298 -136.190966 
L 646.757358 -136.955593 
L 645.141982 -137.720221 
L 643.472293 -138.484848 
L 641.777907 -139.249476 
L 640.091068 -140.014103 
L 638.445603 -140.778731 
L 636.875762 -141.543358 
L 635.414985 -142.307985 
L 634.094663 -143.072613 
L 632.942944 -143.83724 
L 631.983668 -144.601868 
L 631.235473 -145.366495 
L 630.711129 -146.131123 
L 630.417141 -146.89575 
L 630.353635 -147.660377 
L 630.514527 -148.425005 
L 630.88798 -149.189632 
L 631.457094 -149.95426 
L 632.200798 -150.718887 
L 633.094884 -151.483515 
L 634.113125 -152.248142 
L 635.228408 -153.012769 
L 636.413821 -153.777397 
L 637.643649 -154.542024 
L 638.894219 -155.306652 
L 640.144576 -156.071279 
L 641.376964 -156.835907 
L 642.577101 -157.600534 
L 643.734267 -158.365162 
L 644.84121 -159.129789 
L 645.893891 -159.894416 
L 646.89112 -160.659044 
L 647.83409 -161.423671 
L 648.72586 -162.188299 
L 649.570819 -162.952926 
L 650.374155 -163.717554 
L 651.141364 -164.482181 
L 651.877815 -165.246808 
L 652.588387 -166.011436 
L 653.277192 -166.776063 
L 653.947389 -167.540691 
L 654.601078 -168.305318 
L 655.239286 -169.069946 
L 655.862022 -169.834573 
L 656.468393 -170.5992 
L 657.056766 -171.363828 
L 657.62497 -172.128455 
L 658.170499 -172.893083 
L 658.69073 -173.65771 
L 659.183117 -174.422338 
L 659.645371 -175.186965 
L 660.0756 -175.951593 
L 660.472417 -176.71622 
L 660.835009 -177.480847 
L 661.163159 -178.245475 
L 661.457242 -179.010102 
L 661.718189 -179.77473 
L 661.947414 -180.539357 
L 662.146744 -181.303985 
L 662.318317 -182.068612 
L 663.874445 -182.068612 
L 663.874445 -182.068612 
L 664.046018 -181.303985 
L 664.245347 -180.539357 
L 664.474573 -179.77473 
L 664.735519 -179.010102 
L 665.029603 -178.245475 
L 665.357753 -177.480847 
L 665.720344 -176.71622 
L 666.117162 -175.951593 
L 666.547391 -175.186965 
L 667.009644 -174.422338 
L 667.502031 -173.65771 
L 668.022262 -172.893083 
L 668.567791 -172.128455 
L 669.135995 -171.363828 
L 669.724369 -170.5992 
L 670.330739 -169.834573 
L 670.953475 -169.069946 
L 671.591683 -168.305318 
L 672.245372 -167.540691 
L 672.915569 -166.776063 
L 673.604375 -166.011436 
L 674.314947 -165.246808 
L 675.051397 -164.482181 
L 675.818607 -163.717554 
L 676.621942 -162.952926 
L 677.466901 -162.188299 
L 678.358671 -161.423671 
L 679.301641 -160.659044 
L 680.29887 -159.894416 
L 681.351552 -159.129789 
L 682.458494 -158.365162 
L 683.615661 -157.600534 
L 684.815798 -156.835907 
L 686.048185 -156.071279 
L 687.298543 -155.306652 
L 688.549113 -154.542024 
L 689.77894 -153.777397 
L 690.964354 -153.012769 
L 692.079636 -152.248142 
L 693.097878 -151.483515 
L 693.991963 -150.718887 
L 694.735667 -149.95426 
L 695.304781 -149.189632 
L 695.678235 -148.425005 
L 695.839127 -147.660377 
L 695.77562 -146.89575 
L 695.481633 -146.131123 
L 694.957289 -145.366495 
L 694.209093 -144.601868 
L 693.249817 -143.83724 
L 692.098098 -143.072613 
L 690.777776 -142.307985 
L 689.317 -141.543358 
L 687.747159 -140.778731 
L 686.101694 -140.014103 
L 684.414854 -139.249476 
L 682.720469 -138.484848 
L 681.050779 -137.720221 
L 679.435404 -136.955593 
L 677.900464 -136.190966 
L 676.4679 -135.426338 
L 675.155008 -134.661711 
L 673.97418 -133.897084 
L 672.932861 -133.132456 
L 672.033694 -132.367829 
L 671.274831 -131.603201 
L 670.650383 -130.838574 
L 670.150986 -130.073946 
L 669.764432 -129.309319 
L 669.476352 -128.544692 
L 669.270917 -127.780064 
L 669.131524 -127.015437 
L 669.041459 -126.250809 
L 668.984491 -125.486182 
L 668.945417 -124.721554 
L 668.910507 -123.956927 
L 668.867865 -123.192299 
L 668.807688 -122.427672 
L 668.722422 -121.663045 
L 668.606817 -120.898417 
L 668.457885 -120.13379 
L 668.274771 -119.369162 
L 668.058545 -118.604535 
L 667.811936 -117.839907 
L 667.539015 -117.07528 
L 667.244861 -116.310653 
L 666.935207 -115.546025 
L 666.616107 -114.781398 
L 666.293621 -114.01677 
L 665.973538 -113.252143 
L 665.661151 -112.487515 
L 665.361081 -111.722888 
L 665.07716 -110.958261 
L 664.812367 -110.193633 
L 664.568814 -109.429006 
L 664.347779 -108.664378 
L 664.149771 -107.899751 
L 663.97462 -107.135123 
L 663.821592 -106.370496 
z
" style="stroke: #3f3f3f; stroke-width: 1.25"/>
    </defs>
    <g clip-path="url(#p9970a38861)">
     <use xlink:href="#mc354ebc84c" x="0" y="360" style="fill: #e1812c; stroke: #3f3f3f; stroke-width: 1.25"/>
    </g>
   </g>
   <g id="patch_6">
    <path d="M 466.639904 287.271659 
L 466.639904 287.271659 
L 466.639904 287.271659 
L 466.639904 287.271659 
z
" clip-path="url(#p9970a38861)" style="fill: #3274a1; stroke: #3f3f3f; stroke-width: 1.25; stroke-linejoin: miter"/>
   </g>
   <g id="patch_7">
    <path d="M 466.639904 287.271659 
L 466.639904 287.271659 
L 466.639904 287.271659 
L 466.639904 287.271659 
z
" clip-path="url(#p9970a38861)" style="fill: #e1812c; stroke: #3f3f3f; stroke-width: 1.25; stroke-linejoin: miter"/>
   </g>
   <g id="line2d_23">
    <path d="M 433.897158 213.051987 
L 433.897158 161.843833 
" clip-path="url(#p9970a38861)" style="fill: none; stroke: #3f3f3f; stroke-width: 1.875; stroke-linecap: round"/>
   </g>
   <g id="line2d_24">
    <path d="M 433.897158 201.646694 
L 433.897158 179.164175 
" clip-path="url(#p9970a38861)" style="fill: none; stroke: #3f3f3f; stroke-width: 5.625; stroke-linecap: round"/>
   </g>
   <g id="line2d_25">
    <path d="M 433.897158 193.296602 
" clip-path="url(#p9970a38861)" style="fill: none; stroke: #3f3f3f; stroke-width: 1.5; stroke-linecap: round"/>
    <g clip-path="url(#p9970a38861)">
     <use xlink:href="#mcb39596a93" x="433.897158" y="193.296602" style="fill: #ffffff; stroke: #ffffff; stroke-width: 1.125"/>
    </g>
   </g>
   <g id="line2d_26">
    <path d="M 499.38265 237.081346 
L 499.38265 153.021072 
" clip-path="url(#p9970a38861)" style="fill: none; stroke: #3f3f3f; stroke-width: 1.875; stroke-linecap: round"/>
   </g>
   <g id="line2d_27">
    <path d="M 499.38265 211.338304 
L 499.38265 186.244192 
" clip-path="url(#p9970a38861)" style="fill: none; stroke: #3f3f3f; stroke-width: 5.625; stroke-linecap: round"/>
   </g>
   <g id="line2d_28">
    <path d="M 499.38265 199.63794 
" clip-path="url(#p9970a38861)" style="fill: none; stroke: #3f3f3f; stroke-width: 1.5; stroke-linecap: round"/>
    <g clip-path="url(#p9970a38861)">
     <use xlink:href="#mcb39596a93" x="499.38265" y="199.63794" style="fill: #ffffff; stroke: #ffffff; stroke-width: 1.125"/>
    </g>
   </g>
   <g id="line2d_29">
    <path d="M 597.610888 231.523177 
L 597.610888 134.15539 
" clip-path="url(#p9970a38861)" style="fill: none; stroke: #3f3f3f; stroke-width: 1.875; stroke-linecap: round"/>
   </g>
   <g id="line2d_30">
    <path d="M 597.610888 205.68043 
L 597.610888 173.830669 
" clip-path="url(#p9970a38861)" style="fill: none; stroke: #3f3f3f; stroke-width: 5.625; stroke-linecap: round"/>
   </g>
   <g id="line2d_31">
    <path d="M 597.610888 179.704201 
" clip-path="url(#p9970a38861)" style="fill: none; stroke: #3f3f3f; stroke-width: 1.5; stroke-linecap: round"/>
    <g clip-path="url(#p9970a38861)">
     <use xlink:href="#mcb39596a93" x="597.610888" y="179.704201" style="fill: #ffffff; stroke: #ffffff; stroke-width: 1.125"/>
    </g>
   </g>
   <g id="line2d_32">
    <path d="M 663.096381 216.562363 
L 663.096381 201.765644 
" clip-path="url(#p9970a38861)" style="fill: none; stroke: #3f3f3f; stroke-width: 1.875; stroke-linecap: round"/>
   </g>
   <g id="line2d_33">
    <path d="M 663.096381 215.062137 
L 663.096381 208.526334 
" clip-path="url(#p9970a38861)" style="fill: none; stroke: #3f3f3f; stroke-width: 5.625; stroke-linecap: round"/>
   </g>
   <g id="line2d_34">
    <path d="M 663.096381 213.479974 
" clip-path="url(#p9970a38861)" style="fill: none; stroke: #3f3f3f; stroke-width: 1.5; stroke-linecap: round"/>
    <g clip-path="url(#p9970a38861)">
     <use xlink:href="#mcb39596a93" x="663.096381" y="213.479974" style="fill: #ffffff; stroke: #ffffff; stroke-width: 1.125"/>
    </g>
   </g>
   <g id="patch_8">
    <path d="M 384.783038 318.04 
L 384.783038 24.72 
" style="fill: none; stroke: #cccccc; stroke-width: 0.8; stroke-linejoin: miter; stroke-linecap: square"/>
   </g>
   <g id="patch_9">
    <path d="M 384.783038 318.04 
L 712.2105 318.04 
" style="fill: none; stroke: #cccccc; stroke-width: 0.8; stroke-linejoin: miter; stroke-linecap: square"/>
   </g>
   <g id="text_14">
    <!-- sex = m -->
    <g style="fill: #262626" transform="translate(530.853019 18.72) scale(0.1 -0.1)">
     <use xlink:href="#ArialMT-73"/>
     <use xlink:href="#ArialMT-65" x="50"/>
     <use xlink:href="#ArialMT-78" x="105.615234"/>
     <use xlink:href="#ArialMT-20" x="155.615234"/>
     <use xlink:href="#ArialMT-3d" x="183.398438"/>
     <use xlink:href="#ArialMT-20" x="241.796875"/>
     <use xlink:href="#ArialMT-6d" x="269.580078"/>
    </g>
   </g>
  </g>
  <g id="legend_1">
   <g id="text_15">
    <!-- Time -->
    <g style="fill: #262626" transform="translate(733.633594 168.439844) scale(0.1 -0.1)">
     <defs>
      <path id="ArialMT-54" d="M 1659 0 
L 1659 4041 
L 150 4041 
L 150 4581 
L 3781 4581 
L 3781 4041 
L 2266 4041 
L 2266 0 
L 1659 0 
z
" transform="scale(0.015625)"/>
     </defs>
     <use xlink:href="#ArialMT-54"/>
     <use xlink:href="#ArialMT-69" x="57.333984"/>
     <use xlink:href="#ArialMT-6d" x="79.550781"/>
     <use xlink:href="#ArialMT-65" x="162.851562"/>
    </g>
   </g>
   <g id="patch_10">
    <path d="M 719.1625 182.585156 
L 739.1625 182.585156 
L 739.1625 175.585156 
L 719.1625 175.585156 
z
" style="fill: #3274a1; stroke: #3f3f3f; stroke-width: 1.25; stroke-linejoin: miter"/>
   </g>
   <g id="text_16">
    <!-- initial -->
    <g style="fill: #262626" transform="translate(747.1625 182.585156) scale(0.1 -0.1)">
     <use xlink:href="#ArialMT-69"/>
     <use xlink:href="#ArialMT-6e" x="22.216797"/>
     <use xlink:href="#ArialMT-69" x="77.832031"/>
     <use xlink:href="#ArialMT-74" x="100.048828"/>
     <use xlink:href="#ArialMT-69" x="127.832031"/>
     <use xlink:href="#ArialMT-61" x="150.048828"/>
     <use xlink:href="#ArialMT-6c" x="205.664062"/>
    </g>
   </g>
   <g id="patch_11">
    <path d="M 719.1625 196.730469 
L 739.1625 196.730469 
L 739.1625 189.730469 
L 719.1625 189.730469 
z
" style="fill: #e1812c; stroke: #3f3f3f; stroke-width: 1.25; stroke-linejoin: miter"/>
   </g>
   <g id="text_17">
    <!-- final -->
    <g style="fill: #262626" transform="translate(747.1625 196.730469) scale(0.1 -0.1)">
     <use xlink:href="#ArialMT-66"/>
     <use xlink:href="#ArialMT-69" x="27.783203"/>
     <use xlink:href="#ArialMT-6e" x="50"/>
     <use xlink:href="#ArialMT-61" x="105.615234"/>
     <use xlink:href="#ArialMT-6c" x="161.230469"/>
    </g>
   </g>
  </g>
 </g>
 <defs>
  <clipPath id="p8e3c3713c0">
   <rect x="46.5639" y="24.72" width="327.427462" height="293.32"/>
  </clipPath>
  <clipPath id="p9970a38861">
   <rect x="384.783038" y="24.72" width="327.427462" height="293.32"/>
  </clipPath>
 </defs>
</svg>
