<?xml version="1.0" encoding="utf-8" standalone="no"?>
<!DOCTYPE svg PUBLIC "-//W3C//DTD SVG 1.1//EN"
  "http://www.w3.org/Graphics/SVG/1.1/DTD/svg11.dtd">
<svg xmlns:xlink="http://www.w3.org/1999/xlink" width="778.95pt" height="360pt" viewBox="0 0 778.95 360" xmlns="http://www.w3.org/2000/svg" version="1.1">
 <metadata>
  <rdf:RDF xmlns:dc="http://purl.org/dc/elements/1.1/" xmlns:cc="http://creativecommons.org/ns#" xmlns:rdf="http://www.w3.org/1999/02/22-rdf-syntax-ns#">
   <cc:Work>
    <dc:type rdf:resource="http://purl.org/dc/dcmitype/StillImage"/>
    <dc:date>2024-09-10T22:04:32.102465</dc:date>
    <dc:format>image/svg+xml</dc:format>
    <dc:creator>
     <cc:Agent>
      <dc:title>Matplotlib v3.8.3, https://matplotlib.org/</dc:title>
     </cc:Agent>
    </dc:creator>
   </cc:Work>
  </rdf:RDF>
 </metadata>
 <defs>
  <style type="text/css">*{stroke-linejoin: round; stroke-linecap: butt}</style>
 </defs>
 <g id="figure_1">
  <g id="patch_1">
   <path d="M 0 360 
L 778.95 360 
L 778.95 0 
L 0 0 
z
" style="fill: #ffffff"/>
  </g>
  <g id="axes_1">
   <g id="patch_2">
    <path d="M 46.5639 318.04 
L 373.991362 318.04 
L 373.991362 24.72 
L 46.5639 24.72 
z
" style="fill: #ffffff"/>
   </g>
   <g id="matplotlib.axis_1">
    <g id="xtick_1">
     <g id="text_1">
      <!-- Jurilovca -->
      <g style="fill: #262626" transform="translate(108.69264 332.197812) scale(0.1 -0.1)">
       <defs>
        <path id="ArialMT-4a" d="M 184 1300 
L 731 1375 
Q 753 850 928 656 
Q 1103 463 1413 463 
Q 1641 463 1806 567 
Q 1972 672 2034 851 
Q 2097 1031 2097 1425 
L 2097 4581 
L 2703 4581 
L 2703 1459 
Q 2703 884 2564 568 
Q 2425 253 2123 87 
Q 1822 -78 1416 -78 
Q 813 -78 492 269 
Q 172 616 184 1300 
z
" transform="scale(0.015625)"/>
        <path id="ArialMT-75" d="M 2597 0 
L 2597 488 
Q 2209 -75 1544 -75 
Q 1250 -75 995 37 
Q 741 150 617 320 
Q 494 491 444 738 
Q 409 903 409 1263 
L 409 3319 
L 972 3319 
L 972 1478 
Q 972 1038 1006 884 
Q 1059 663 1231 536 
Q 1403 409 1656 409 
Q 1909 409 2131 539 
Q 2353 669 2445 892 
Q 2538 1116 2538 1541 
L 2538 3319 
L 3100 3319 
L 3100 0 
L 2597 0 
z
" transform="scale(0.015625)"/>
        <path id="ArialMT-72" d="M 416 0 
L 416 3319 
L 922 3319 
L 922 2816 
Q 1116 3169 1280 3281 
Q 1444 3394 1641 3394 
Q 1925 3394 2219 3213 
L 2025 2691 
Q 1819 2813 1613 2813 
Q 1428 2813 1281 2702 
Q 1134 2591 1072 2394 
Q 978 2094 978 1738 
L 978 0 
L 416 0 
z
" transform="scale(0.015625)"/>
        <path id="ArialMT-69" d="M 425 3934 
L 425 4581 
L 988 4581 
L 988 3934 
L 425 3934 
z
M 425 0 
L 425 3319 
L 988 3319 
L 988 0 
L 425 0 
z
" transform="scale(0.015625)"/>
        <path id="ArialMT-6c" d="M 409 0 
L 409 4581 
L 972 4581 
L 972 0 
L 409 0 
z
" transform="scale(0.015625)"/>
        <path id="ArialMT-6f" d="M 213 1659 
Q 213 2581 725 3025 
Q 1153 3394 1769 3394 
Q 2453 3394 2887 2945 
Q 3322 2497 3322 1706 
Q 3322 1066 3130 698 
Q 2938 331 2570 128 
Q 2203 -75 1769 -75 
Q 1072 -75 642 372 
Q 213 819 213 1659 
z
M 791 1659 
Q 791 1022 1069 705 
Q 1347 388 1769 388 
Q 2188 388 2466 706 
Q 2744 1025 2744 1678 
Q 2744 2294 2464 2611 
Q 2184 2928 1769 2928 
Q 1347 2928 1069 2612 
Q 791 2297 791 1659 
z
" transform="scale(0.015625)"/>
        <path id="ArialMT-76" d="M 1344 0 
L 81 3319 
L 675 3319 
L 1388 1331 
Q 1503 1009 1600 663 
Q 1675 925 1809 1294 
L 2547 3319 
L 3125 3319 
L 1869 0 
L 1344 0 
z
" transform="scale(0.015625)"/>
        <path id="ArialMT-63" d="M 2588 1216 
L 3141 1144 
Q 3050 572 2676 248 
Q 2303 -75 1759 -75 
Q 1078 -75 664 370 
Q 250 816 250 1647 
Q 250 2184 428 2587 
Q 606 2991 970 3192 
Q 1334 3394 1763 3394 
Q 2303 3394 2647 3120 
Q 2991 2847 3088 2344 
L 2541 2259 
Q 2463 2594 2264 2762 
Q 2066 2931 1784 2931 
Q 1359 2931 1093 2626 
Q 828 2322 828 1663 
Q 828 994 1084 691 
Q 1341 388 1753 388 
Q 2084 388 2306 591 
Q 2528 794 2588 1216 
z
" transform="scale(0.015625)"/>
        <path id="ArialMT-61" d="M 2588 409 
Q 2275 144 1986 34 
Q 1697 -75 1366 -75 
Q 819 -75 525 192 
Q 231 459 231 875 
Q 231 1119 342 1320 
Q 453 1522 633 1644 
Q 813 1766 1038 1828 
Q 1203 1872 1538 1913 
Q 2219 1994 2541 2106 
Q 2544 2222 2544 2253 
Q 2544 2597 2384 2738 
Q 2169 2928 1744 2928 
Q 1347 2928 1158 2789 
Q 969 2650 878 2297 
L 328 2372 
Q 403 2725 575 2942 
Q 747 3159 1072 3276 
Q 1397 3394 1825 3394 
Q 2250 3394 2515 3294 
Q 2781 3194 2906 3042 
Q 3031 2891 3081 2659 
Q 3109 2516 3109 2141 
L 3109 1391 
Q 3109 606 3145 398 
Q 3181 191 3288 0 
L 2700 0 
Q 2613 175 2588 409 
z
M 2541 1666 
Q 2234 1541 1622 1453 
Q 1275 1403 1131 1340 
Q 988 1278 909 1158 
Q 831 1038 831 891 
Q 831 666 1001 516 
Q 1172 366 1500 366 
Q 1825 366 2078 508 
Q 2331 650 2450 897 
Q 2541 1088 2541 1459 
L 2541 1666 
z
" transform="scale(0.015625)"/>
       </defs>
       <use xlink:href="#ArialMT-4a"/>
       <use xlink:href="#ArialMT-75" x="50"/>
       <use xlink:href="#ArialMT-72" x="105.615234"/>
       <use xlink:href="#ArialMT-69" x="138.916016"/>
       <use xlink:href="#ArialMT-6c" x="161.132812"/>
       <use xlink:href="#ArialMT-6f" x="183.349609"/>
       <use xlink:href="#ArialMT-76" x="238.964844"/>
       <use xlink:href="#ArialMT-63" x="288.964844"/>
       <use xlink:href="#ArialMT-61" x="338.964844"/>
      </g>
     </g>
    </g>
    <g id="xtick_2">
     <g id="text_2">
      <!-- Baia -->
      <g style="fill: #262626" transform="translate(282.127465 332.197812) scale(0.1 -0.1)">
       <defs>
        <path id="ArialMT-42" d="M 469 0 
L 469 4581 
L 2188 4581 
Q 2713 4581 3030 4442 
Q 3347 4303 3526 4014 
Q 3706 3725 3706 3409 
Q 3706 3116 3547 2856 
Q 3388 2597 3066 2438 
Q 3481 2316 3704 2022 
Q 3928 1728 3928 1328 
Q 3928 1006 3792 729 
Q 3656 453 3456 303 
Q 3256 153 2954 76 
Q 2653 0 2216 0 
L 469 0 
z
M 1075 2656 
L 2066 2656 
Q 2469 2656 2644 2709 
Q 2875 2778 2992 2937 
Q 3109 3097 3109 3338 
Q 3109 3566 3000 3739 
Q 2891 3913 2687 3977 
Q 2484 4041 1991 4041 
L 1075 4041 
L 1075 2656 
z
M 1075 541 
L 2216 541 
Q 2509 541 2628 563 
Q 2838 600 2978 687 
Q 3119 775 3209 942 
Q 3300 1109 3300 1328 
Q 3300 1584 3169 1773 
Q 3038 1963 2805 2039 
Q 2572 2116 2134 2116 
L 1075 2116 
L 1075 541 
z
" transform="scale(0.015625)"/>
       </defs>
       <use xlink:href="#ArialMT-42"/>
       <use xlink:href="#ArialMT-61" x="66.699219"/>
       <use xlink:href="#ArialMT-69" x="122.314453"/>
       <use xlink:href="#ArialMT-61" x="144.53125"/>
      </g>
     </g>
    </g>
    <g id="text_3">
     <!-- Location -->
     <g style="fill: #262626" transform="translate(191.375287 345.343125) scale(0.1 -0.1)">
      <defs>
       <path id="ArialMT-4c" d="M 469 0 
L 469 4581 
L 1075 4581 
L 1075 541 
L 3331 541 
L 3331 0 
L 469 0 
z
" transform="scale(0.015625)"/>
       <path id="ArialMT-74" d="M 1650 503 
L 1731 6 
Q 1494 -44 1306 -44 
Q 1000 -44 831 53 
Q 663 150 594 308 
Q 525 466 525 972 
L 525 2881 
L 113 2881 
L 113 3319 
L 525 3319 
L 525 4141 
L 1084 4478 
L 1084 3319 
L 1650 3319 
L 1650 2881 
L 1084 2881 
L 1084 941 
Q 1084 700 1114 631 
Q 1144 563 1211 522 
Q 1278 481 1403 481 
Q 1497 481 1650 503 
z
" transform="scale(0.015625)"/>
       <path id="ArialMT-6e" d="M 422 0 
L 422 3319 
L 928 3319 
L 928 2847 
Q 1294 3394 1984 3394 
Q 2284 3394 2536 3286 
Q 2788 3178 2913 3003 
Q 3038 2828 3088 2588 
Q 3119 2431 3119 2041 
L 3119 0 
L 2556 0 
L 2556 2019 
Q 2556 2363 2490 2533 
Q 2425 2703 2258 2804 
Q 2091 2906 1866 2906 
Q 1506 2906 1245 2678 
Q 984 2450 984 1813 
L 984 0 
L 422 0 
z
" transform="scale(0.015625)"/>
      </defs>
      <use xlink:href="#ArialMT-4c"/>
      <use xlink:href="#ArialMT-6f" x="55.615234"/>
      <use xlink:href="#ArialMT-63" x="111.230469"/>
      <use xlink:href="#ArialMT-61" x="161.230469"/>
      <use xlink:href="#ArialMT-74" x="216.845703"/>
      <use xlink:href="#ArialMT-69" x="244.628906"/>
      <use xlink:href="#ArialMT-6f" x="266.845703"/>
      <use xlink:href="#ArialMT-6e" x="322.460938"/>
     </g>
    </g>
   </g>
   <g id="matplotlib.axis_2">
    <g id="ytick_1">
     <g id="line2d_1">
      <path d="M 46.5639 287.829468 
L 373.991362 287.829468 
" clip-path="url(#p85209d4733)" style="fill: none; stroke: #cccccc; stroke-width: 0.8; stroke-linecap: round"/>
     </g>
     <g id="text_4">
      <!-- 0 -->
      <g style="fill: #262626" transform="translate(34.002963 291.408374) scale(0.1 -0.1)">
       <defs>
        <path id="ArialMT-30" d="M 266 2259 
Q 266 3072 433 3567 
Q 600 4063 929 4331 
Q 1259 4600 1759 4600 
Q 2128 4600 2406 4451 
Q 2684 4303 2865 4023 
Q 3047 3744 3150 3342 
Q 3253 2941 3253 2259 
Q 3253 1453 3087 958 
Q 2922 463 2592 192 
Q 2263 -78 1759 -78 
Q 1097 -78 719 397 
Q 266 969 266 2259 
z
M 844 2259 
Q 844 1131 1108 757 
Q 1372 384 1759 384 
Q 2147 384 2411 759 
Q 2675 1134 2675 2259 
Q 2675 3391 2411 3762 
Q 2147 4134 1753 4134 
Q 1366 4134 1134 3806 
Q 844 3388 844 2259 
z
" transform="scale(0.015625)"/>
       </defs>
       <use xlink:href="#ArialMT-30"/>
      </g>
     </g>
    </g>
    <g id="ytick_2">
     <g id="line2d_2">
      <path d="M 46.5639 252.356427 
L 373.991362 252.356427 
" clip-path="url(#p85209d4733)" style="fill: none; stroke: #cccccc; stroke-width: 0.8; stroke-linecap: round"/>
     </g>
     <g id="text_5">
      <!-- 10 -->
      <g style="fill: #262626" transform="translate(28.442025 255.935334) scale(0.1 -0.1)">
       <defs>
        <path id="ArialMT-31" d="M 2384 0 
L 1822 0 
L 1822 3584 
Q 1619 3391 1289 3197 
Q 959 3003 697 2906 
L 697 3450 
Q 1169 3672 1522 3987 
Q 1875 4303 2022 4600 
L 2384 4600 
L 2384 0 
z
" transform="scale(0.015625)"/>
       </defs>
       <use xlink:href="#ArialMT-31"/>
       <use xlink:href="#ArialMT-30" x="55.615234"/>
      </g>
     </g>
    </g>
    <g id="ytick_3">
     <g id="line2d_3">
      <path d="M 46.5639 216.883387 
L 373.991362 216.883387 
" clip-path="url(#p85209d4733)" style="fill: none; stroke: #cccccc; stroke-width: 0.8; stroke-linecap: round"/>
     </g>
     <g id="text_6">
      <!-- 20 -->
      <g style="fill: #262626" transform="translate(28.442025 220.462294) scale(0.1 -0.1)">
       <defs>
        <path id="ArialMT-32" d="M 3222 541 
L 3222 0 
L 194 0 
Q 188 203 259 391 
Q 375 700 629 1000 
Q 884 1300 1366 1694 
Q 2113 2306 2375 2664 
Q 2638 3022 2638 3341 
Q 2638 3675 2398 3904 
Q 2159 4134 1775 4134 
Q 1369 4134 1125 3890 
Q 881 3647 878 3216 
L 300 3275 
Q 359 3922 746 4261 
Q 1134 4600 1788 4600 
Q 2447 4600 2831 4234 
Q 3216 3869 3216 3328 
Q 3216 3053 3103 2787 
Q 2991 2522 2730 2228 
Q 2469 1934 1863 1422 
Q 1356 997 1212 845 
Q 1069 694 975 541 
L 3222 541 
z
" transform="scale(0.015625)"/>
       </defs>
       <use xlink:href="#ArialMT-32"/>
       <use xlink:href="#ArialMT-30" x="55.615234"/>
      </g>
     </g>
    </g>
    <g id="ytick_4">
     <g id="line2d_4">
      <path d="M 46.5639 181.410347 
L 373.991362 181.410347 
" clip-path="url(#p85209d4733)" style="fill: none; stroke: #cccccc; stroke-width: 0.8; stroke-linecap: round"/>
     </g>
     <g id="text_7">
      <!-- 30 -->
      <g style="fill: #262626" transform="translate(28.442025 184.989253) scale(0.1 -0.1)">
       <defs>
        <path id="ArialMT-33" d="M 269 1209 
L 831 1284 
Q 928 806 1161 595 
Q 1394 384 1728 384 
Q 2125 384 2398 659 
Q 2672 934 2672 1341 
Q 2672 1728 2419 1979 
Q 2166 2231 1775 2231 
Q 1616 2231 1378 2169 
L 1441 2663 
Q 1497 2656 1531 2656 
Q 1891 2656 2178 2843 
Q 2466 3031 2466 3422 
Q 2466 3731 2256 3934 
Q 2047 4138 1716 4138 
Q 1388 4138 1169 3931 
Q 950 3725 888 3313 
L 325 3413 
Q 428 3978 793 4289 
Q 1159 4600 1703 4600 
Q 2078 4600 2393 4439 
Q 2709 4278 2876 4000 
Q 3044 3722 3044 3409 
Q 3044 3113 2884 2869 
Q 2725 2625 2413 2481 
Q 2819 2388 3044 2092 
Q 3269 1797 3269 1353 
Q 3269 753 2831 336 
Q 2394 -81 1725 -81 
Q 1122 -81 723 278 
Q 325 638 269 1209 
z
" transform="scale(0.015625)"/>
       </defs>
       <use xlink:href="#ArialMT-33"/>
       <use xlink:href="#ArialMT-30" x="55.615234"/>
      </g>
     </g>
    </g>
    <g id="ytick_5">
     <g id="line2d_5">
      <path d="M 46.5639 145.937307 
L 373.991362 145.937307 
" clip-path="url(#p85209d4733)" style="fill: none; stroke: #cccccc; stroke-width: 0.8; stroke-linecap: round"/>
     </g>
     <g id="text_8">
      <!-- 40 -->
      <g style="fill: #262626" transform="translate(28.442025 149.516213) scale(0.1 -0.1)">
       <defs>
        <path id="ArialMT-34" d="M 2069 0 
L 2069 1097 
L 81 1097 
L 81 1613 
L 2172 4581 
L 2631 4581 
L 2631 1613 
L 3250 1613 
L 3250 1097 
L 2631 1097 
L 2631 0 
L 2069 0 
z
M 2069 1613 
L 2069 3678 
L 634 1613 
L 2069 1613 
z
" transform="scale(0.015625)"/>
       </defs>
       <use xlink:href="#ArialMT-34"/>
       <use xlink:href="#ArialMT-30" x="55.615234"/>
      </g>
     </g>
    </g>
    <g id="ytick_6">
     <g id="line2d_6">
      <path d="M 46.5639 110.464267 
L 373.991362 110.464267 
" clip-path="url(#p85209d4733)" style="fill: none; stroke: #cccccc; stroke-width: 0.8; stroke-linecap: round"/>
     </g>
     <g id="text_9">
      <!-- 50 -->
      <g style="fill: #262626" transform="translate(28.442025 114.043173) scale(0.1 -0.1)">
       <defs>
        <path id="ArialMT-35" d="M 266 1200 
L 856 1250 
Q 922 819 1161 601 
Q 1400 384 1738 384 
Q 2144 384 2425 690 
Q 2706 997 2706 1503 
Q 2706 1984 2436 2262 
Q 2166 2541 1728 2541 
Q 1456 2541 1237 2417 
Q 1019 2294 894 2097 
L 366 2166 
L 809 4519 
L 3088 4519 
L 3088 3981 
L 1259 3981 
L 1013 2750 
Q 1425 3038 1878 3038 
Q 2478 3038 2890 2622 
Q 3303 2206 3303 1553 
Q 3303 931 2941 478 
Q 2500 -78 1738 -78 
Q 1113 -78 717 272 
Q 322 622 266 1200 
z
" transform="scale(0.015625)"/>
       </defs>
       <use xlink:href="#ArialMT-35"/>
       <use xlink:href="#ArialMT-30" x="55.615234"/>
      </g>
     </g>
    </g>
    <g id="ytick_7">
     <g id="line2d_7">
      <path d="M 46.5639 74.991227 
L 373.991362 74.991227 
" clip-path="url(#p85209d4733)" style="fill: none; stroke: #cccccc; stroke-width: 0.8; stroke-linecap: round"/>
     </g>
     <g id="text_10">
      <!-- 60 -->
      <g style="fill: #262626" transform="translate(28.442025 78.570133) scale(0.1 -0.1)">
       <defs>
        <path id="ArialMT-36" d="M 3184 3459 
L 2625 3416 
Q 2550 3747 2413 3897 
Q 2184 4138 1850 4138 
Q 1581 4138 1378 3988 
Q 1113 3794 959 3422 
Q 806 3050 800 2363 
Q 1003 2672 1297 2822 
Q 1591 2972 1913 2972 
Q 2475 2972 2870 2558 
Q 3266 2144 3266 1488 
Q 3266 1056 3080 686 
Q 2894 316 2569 119 
Q 2244 -78 1831 -78 
Q 1128 -78 684 439 
Q 241 956 241 2144 
Q 241 3472 731 4075 
Q 1159 4600 1884 4600 
Q 2425 4600 2770 4297 
Q 3116 3994 3184 3459 
z
M 888 1484 
Q 888 1194 1011 928 
Q 1134 663 1356 523 
Q 1578 384 1822 384 
Q 2178 384 2434 671 
Q 2691 959 2691 1453 
Q 2691 1928 2437 2201 
Q 2184 2475 1800 2475 
Q 1419 2475 1153 2201 
Q 888 1928 888 1484 
z
" transform="scale(0.015625)"/>
       </defs>
       <use xlink:href="#ArialMT-36"/>
       <use xlink:href="#ArialMT-30" x="55.615234"/>
      </g>
     </g>
    </g>
    <g id="ytick_8">
     <g id="line2d_8">
      <path d="M 46.5639 39.518186 
L 373.991362 39.518186 
" clip-path="url(#p85209d4733)" style="fill: none; stroke: #cccccc; stroke-width: 0.8; stroke-linecap: round"/>
     </g>
     <g id="text_11">
      <!-- 70 -->
      <g style="fill: #262626" transform="translate(28.442025 43.097093) scale(0.1 -0.1)">
       <defs>
        <path id="ArialMT-37" d="M 303 3981 
L 303 4522 
L 3269 4522 
L 3269 4084 
Q 2831 3619 2401 2847 
Q 1972 2075 1738 1259 
Q 1569 684 1522 0 
L 944 0 
Q 953 541 1156 1306 
Q 1359 2072 1739 2783 
Q 2119 3494 2547 3981 
L 303 3981 
z
" transform="scale(0.015625)"/>
       </defs>
       <use xlink:href="#ArialMT-37"/>
       <use xlink:href="#ArialMT-30" x="55.615234"/>
      </g>
     </g>
    </g>
    <g id="text_12">
     <!-- Ventilation (l/min) -->
     <g style="fill: #262626" transform="translate(22.337337 209.728437) rotate(-90) scale(0.1 -0.1)">
      <defs>
       <path id="ArialMT-56" d="M 1803 0 
L 28 4581 
L 684 4581 
L 1875 1253 
Q 2019 853 2116 503 
Q 2222 878 2363 1253 
L 3600 4581 
L 4219 4581 
L 2425 0 
L 1803 0 
z
" transform="scale(0.015625)"/>
       <path id="ArialMT-65" d="M 2694 1069 
L 3275 997 
Q 3138 488 2766 206 
Q 2394 -75 1816 -75 
Q 1088 -75 661 373 
Q 234 822 234 1631 
Q 234 2469 665 2931 
Q 1097 3394 1784 3394 
Q 2450 3394 2872 2941 
Q 3294 2488 3294 1666 
Q 3294 1616 3291 1516 
L 816 1516 
Q 847 969 1125 678 
Q 1403 388 1819 388 
Q 2128 388 2347 550 
Q 2566 713 2694 1069 
z
M 847 1978 
L 2700 1978 
Q 2663 2397 2488 2606 
Q 2219 2931 1791 2931 
Q 1403 2931 1139 2672 
Q 875 2413 847 1978 
z
" transform="scale(0.015625)"/>
       <path id="ArialMT-20" transform="scale(0.015625)"/>
       <path id="ArialMT-28" d="M 1497 -1347 
Q 1031 -759 709 28 
Q 388 816 388 1659 
Q 388 2403 628 3084 
Q 909 3875 1497 4659 
L 1900 4659 
Q 1522 4009 1400 3731 
Q 1209 3300 1100 2831 
Q 966 2247 966 1656 
Q 966 153 1900 -1347 
L 1497 -1347 
z
" transform="scale(0.015625)"/>
       <path id="ArialMT-2f" d="M 0 -78 
L 1328 4659 
L 1778 4659 
L 453 -78 
L 0 -78 
z
" transform="scale(0.015625)"/>
       <path id="ArialMT-6d" d="M 422 0 
L 422 3319 
L 925 3319 
L 925 2853 
Q 1081 3097 1340 3245 
Q 1600 3394 1931 3394 
Q 2300 3394 2536 3241 
Q 2772 3088 2869 2813 
Q 3263 3394 3894 3394 
Q 4388 3394 4653 3120 
Q 4919 2847 4919 2278 
L 4919 0 
L 4359 0 
L 4359 2091 
Q 4359 2428 4304 2576 
Q 4250 2725 4106 2815 
Q 3963 2906 3769 2906 
Q 3419 2906 3187 2673 
Q 2956 2441 2956 1928 
L 2956 0 
L 2394 0 
L 2394 2156 
Q 2394 2531 2256 2718 
Q 2119 2906 1806 2906 
Q 1569 2906 1367 2781 
Q 1166 2656 1075 2415 
Q 984 2175 984 1722 
L 984 0 
L 422 0 
z
" transform="scale(0.015625)"/>
       <path id="ArialMT-29" d="M 791 -1347 
L 388 -1347 
Q 1322 153 1322 1656 
Q 1322 2244 1188 2822 
Q 1081 3291 891 3722 
Q 769 4003 388 4659 
L 791 4659 
Q 1378 3875 1659 3084 
Q 1900 2403 1900 1659 
Q 1900 816 1576 28 
Q 1253 -759 791 -1347 
z
" transform="scale(0.015625)"/>
      </defs>
      <use xlink:href="#ArialMT-56"/>
      <use xlink:href="#ArialMT-65" x="61.199219"/>
      <use xlink:href="#ArialMT-6e" x="116.814453"/>
      <use xlink:href="#ArialMT-74" x="172.429688"/>
      <use xlink:href="#ArialMT-69" x="200.212891"/>
      <use xlink:href="#ArialMT-6c" x="222.429688"/>
      <use xlink:href="#ArialMT-61" x="244.646484"/>
      <use xlink:href="#ArialMT-74" x="300.261719"/>
      <use xlink:href="#ArialMT-69" x="328.044922"/>
      <use xlink:href="#ArialMT-6f" x="350.261719"/>
      <use xlink:href="#ArialMT-6e" x="405.876953"/>
      <use xlink:href="#ArialMT-20" x="461.492188"/>
      <use xlink:href="#ArialMT-28" x="489.275391"/>
      <use xlink:href="#ArialMT-6c" x="522.576172"/>
      <use xlink:href="#ArialMT-2f" x="544.792969"/>
      <use xlink:href="#ArialMT-6d" x="572.576172"/>
      <use xlink:href="#ArialMT-69" x="655.876953"/>
      <use xlink:href="#ArialMT-6e" x="678.09375"/>
      <use xlink:href="#ArialMT-29" x="733.708984"/>
     </g>
    </g>
   </g>
   <g id="PolyCollection_1">
    <defs>
     <path id="m05626e039e" d="M 96.865199 -105.922287 
L 94.490839 -105.922287 
L 94.281673 -107.028131 
L 94.045895 -108.133974 
L 93.782125 -109.239818 
L 93.489278 -110.345661 
L 93.16662 -111.451505 
L 92.813834 -112.557349 
L 92.431063 -113.663192 
L 92.018949 -114.769036 
L 91.578663 -115.874879 
L 91.111912 -116.980723 
L 90.620925 -118.086566 
L 90.10843 -119.19241 
L 89.577601 -120.298253 
L 89.031992 -121.404097 
L 88.475445 -122.50994 
L 87.91199 -123.615784 
L 87.345731 -124.721628 
L 86.780713 -125.827471 
L 86.220802 -126.933315 
L 85.669551 -128.039158 
L 85.130078 -129.145002 
L 84.604953 -130.250845 
L 84.096101 -131.356689 
L 83.604722 -132.462532 
L 83.131231 -133.568376 
L 82.675225 -134.674219 
L 82.23547 -135.780063 
L 81.809921 -136.885907 
L 81.395757 -137.99175 
L 80.989447 -139.097594 
L 80.586837 -140.203437 
L 80.183259 -141.309281 
L 79.773656 -142.415124 
L 79.352724 -143.520968 
L 78.915078 -144.626811 
L 78.455417 -145.732655 
L 77.968705 -146.838498 
L 77.450363 -147.944342 
L 76.896457 -149.050185 
L 76.303887 -150.156029 
L 75.670572 -151.261873 
L 74.995618 -152.367716 
L 74.279471 -153.47356 
L 73.524043 -154.579403 
L 72.732804 -155.685247 
L 71.910833 -156.79109 
L 71.064826 -157.896934 
L 70.203044 -159.002777 
L 69.335219 -160.108621 
L 68.472389 -161.214464 
L 67.62669 -162.320308 
L 66.811088 -163.426152 
L 66.039075 -164.531995 
L 65.324325 -165.637839 
L 64.680329 -166.743682 
L 64.120026 -167.849526 
L 63.655432 -168.955369 
L 63.297299 -170.061213 
L 63.054801 -171.167056 
L 62.935273 -172.2729 
L 62.944008 -173.378743 
L 63.084119 -174.484587 
L 63.35647 -175.590431 
L 63.759686 -176.696274 
L 64.29022 -177.802118 
L 64.942496 -178.907961 
L 65.709096 -180.013805 
L 66.581004 -181.119648 
L 67.547869 -182.225492 
L 68.598302 -183.331335 
L 69.72017 -184.437179 
L 70.900897 -185.543022 
L 72.12774 -186.648866 
L 73.388056 -187.754709 
L 74.669531 -188.860553 
L 75.960379 -189.966397 
L 77.24951 -191.07224 
L 78.526661 -192.178084 
L 79.782489 -193.283927 
L 81.008638 -194.389771 
L 82.197778 -195.495614 
L 83.343612 -196.601458 
L 84.440877 -197.707301 
L 85.485308 -198.813145 
L 86.473608 -199.918988 
L 87.403397 -201.024832 
L 88.273151 -202.130676 
L 89.082144 -203.236519 
L 89.830381 -204.342363 
L 90.518521 -205.448206 
L 91.147814 -206.55405 
L 91.720019 -207.659893 
L 92.237334 -208.765737 
L 92.702321 -209.87158 
L 93.117833 -210.977424 
L 93.486943 -212.083267 
L 93.812878 -213.189111 
L 94.098953 -214.294955 
L 94.348511 -215.400798 
L 97.007527 -215.400798 
L 97.007527 -215.400798 
L 97.257086 -214.294955 
L 97.54316 -213.189111 
L 97.869095 -212.083267 
L 98.238205 -210.977424 
L 98.653717 -209.87158 
L 99.118704 -208.765737 
L 99.636019 -207.659893 
L 100.208224 -206.55405 
L 100.837517 -205.448206 
L 101.525658 -204.342363 
L 102.273894 -203.236519 
L 103.082888 -202.130676 
L 103.952642 -201.024832 
L 104.88243 -199.918988 
L 105.870731 -198.813145 
L 106.915162 -197.707301 
L 108.012426 -196.601458 
L 109.158261 -195.495614 
L 110.3474 -194.389771 
L 111.57355 -193.283927 
L 112.829377 -192.178084 
L 114.106528 -191.07224 
L 115.39566 -189.966397 
L 116.686508 -188.860553 
L 117.967982 -187.754709 
L 119.228298 -186.648866 
L 120.455142 -185.543022 
L 121.635868 -184.437179 
L 122.757737 -183.331335 
L 123.808169 -182.225492 
L 124.775035 -181.119648 
L 125.646942 -180.013805 
L 126.413543 -178.907961 
L 127.065818 -177.802118 
L 127.596352 -176.696274 
L 127.999568 -175.590431 
L 128.27192 -174.484587 
L 128.41203 -173.378743 
L 128.420765 -172.2729 
L 128.301237 -171.167056 
L 128.058739 -170.061213 
L 127.700606 -168.955369 
L 127.236013 -167.849526 
L 126.675709 -166.743682 
L 126.031714 -165.637839 
L 125.316963 -164.531995 
L 124.544951 -163.426152 
L 123.729349 -162.320308 
L 122.88365 -161.214464 
L 122.02082 -160.108621 
L 121.152995 -159.002777 
L 120.291213 -157.896934 
L 119.445205 -156.79109 
L 118.623234 -155.685247 
L 117.831995 -154.579403 
L 117.076568 -153.47356 
L 116.360421 -152.367716 
L 115.685467 -151.261873 
L 115.052152 -150.156029 
L 114.459582 -149.050185 
L 113.905676 -147.944342 
L 113.387334 -146.838498 
L 112.900622 -145.732655 
L 112.44096 -144.626811 
L 112.003314 -143.520968 
L 111.582383 -142.415124 
L 111.172779 -141.309281 
L 110.769201 -140.203437 
L 110.366592 -139.097594 
L 109.960282 -137.99175 
L 109.546117 -136.885907 
L 109.120568 -135.780063 
L 108.680814 -134.674219 
L 108.224807 -133.568376 
L 107.751316 -132.462532 
L 107.259937 -131.356689 
L 106.751086 -130.250845 
L 106.225961 -129.145002 
L 105.686487 -128.039158 
L 105.135236 -126.933315 
L 104.575325 -125.827471 
L 104.010308 -124.721628 
L 103.444048 -123.615784 
L 102.880594 -122.50994 
L 102.324047 -121.404097 
L 101.778438 -120.298253 
L 101.247609 -119.19241 
L 100.735114 -118.086566 
L 100.244127 -116.980723 
L 99.777375 -115.874879 
L 99.33709 -114.769036 
L 98.924976 -113.663192 
L 98.542204 -112.557349 
L 98.189418 -111.451505 
L 97.866761 -110.345661 
L 97.573913 -109.239818 
L 97.310144 -108.133974 
L 97.074366 -107.028131 
L 96.865199 -105.922287 
z
" style="stroke: #3f3f3f; stroke-width: 1.25"/>
    </defs>
    <g clip-path="url(#p85209d4733)">
     <use xlink:href="#m05626e039e" x="0" y="360" style="fill: #3274a1; stroke: #3f3f3f; stroke-width: 1.25"/>
    </g>
   </g>
   <g id="PolyCollection_2">
    <defs>
     <path id="m30759eb9f3" d="M 162.953037 -84.040167 
L 159.373986 -84.040167 
L 159.059681 -85.653408 
L 158.703181 -87.26665 
L 158.301328 -88.879891 
L 157.85117 -90.493132 
L 157.35005 -92.106373 
L 156.795706 -93.719615 
L 156.186359 -95.332856 
L 155.520815 -96.946097 
L 154.798552 -98.559338 
L 154.019805 -100.17258 
L 153.185641 -101.785821 
L 152.298019 -103.399062 
L 151.35983 -105.012304 
L 150.37492 -106.625545 
L 149.348091 -108.238786 
L 148.285075 -109.852027 
L 147.192484 -111.465269 
L 146.077732 -113.07851 
L 144.948933 -114.691751 
L 143.814773 -116.304992 
L 142.68436 -117.918234 
L 141.567055 -119.531475 
L 140.472286 -121.144716 
L 139.409348 -122.757957 
L 138.387204 -124.371199 
L 137.414276 -125.98444 
L 136.498246 -127.597681 
L 135.645868 -129.210922 
L 134.862788 -130.824164 
L 134.153397 -132.437405 
L 133.520703 -134.050646 
L 132.966241 -135.663888 
L 132.49001 -137.277129 
L 132.090457 -138.89037 
L 131.764502 -140.503611 
L 131.507598 -142.116853 
L 131.313847 -143.730094 
L 131.17614 -145.343335 
L 131.086357 -146.956576 
L 131.03558 -148.569818 
L 131.014357 -150.183059 
L 131.012975 -151.7963 
L 131.021756 -153.409541 
L 131.03136 -155.022783 
L 131.033085 -156.636024 
L 131.01916 -158.249265 
L 130.983015 -159.862506 
L 130.919516 -161.475748 
L 130.825172 -163.088989 
L 130.698284 -164.70223 
L 130.539043 -166.315472 
L 130.349575 -167.928713 
L 130.133916 -169.541954 
L 129.897928 -171.155195 
L 129.649151 -172.768437 
L 129.396604 -174.381678 
L 129.150523 -175.994919 
L 128.922068 -177.60816 
L 128.722988 -179.221402 
L 128.565262 -180.834643 
L 128.460738 -182.447884 
L 128.420765 -184.061125 
L 128.455849 -185.674367 
L 128.575325 -187.287608 
L 128.787072 -188.900849 
L 129.097279 -190.51409 
L 129.510257 -192.127332 
L 130.028314 -193.740573 
L 130.651693 -195.353814 
L 131.37857 -196.967056 
L 132.205117 -198.580297 
L 133.125619 -200.193538 
L 134.132642 -201.806779 
L 135.217248 -203.420021 
L 136.369239 -205.033262 
L 137.57743 -206.646503 
L 138.829939 -208.259744 
L 140.11448 -209.872986 
L 141.418647 -211.486227 
L 142.730198 -213.099468 
L 144.037302 -214.712709 
L 145.328773 -216.325951 
L 146.594264 -217.939192 
L 147.824424 -219.552433 
L 149.011025 -221.165674 
L 150.147043 -222.778916 
L 151.226704 -224.392157 
L 152.245496 -226.005398 
L 153.200148 -227.618639 
L 154.088577 -229.231881 
L 154.909815 -230.845122 
L 155.663915 -232.458363 
L 156.35184 -234.071605 
L 156.975345 -235.684846 
L 157.536855 -237.298087 
L 158.039337 -238.911328 
L 158.486178 -240.52457 
L 158.881067 -242.137811 
L 159.227888 -243.751052 
L 163.099135 -243.751052 
L 163.099135 -243.751052 
L 163.445957 -242.137811 
L 163.840845 -240.52457 
L 164.287686 -238.911328 
L 164.790168 -237.298087 
L 165.351678 -235.684846 
L 165.975184 -234.071605 
L 166.663108 -232.458363 
L 167.417208 -230.845122 
L 168.238446 -229.231881 
L 169.126875 -227.618639 
L 170.081527 -226.005398 
L 171.10032 -224.392157 
L 172.179981 -222.778916 
L 173.315998 -221.165674 
L 174.502599 -219.552433 
L 175.73276 -217.939192 
L 176.99825 -216.325951 
L 178.289721 -214.712709 
L 179.596826 -213.099468 
L 180.908376 -211.486227 
L 182.212543 -209.872986 
L 183.497084 -208.259744 
L 184.749593 -206.646503 
L 185.957784 -205.033262 
L 187.109775 -203.420021 
L 188.194381 -201.806779 
L 189.201405 -200.193538 
L 190.121907 -198.580297 
L 190.948454 -196.967056 
L 191.67533 -195.353814 
L 192.298709 -193.740573 
L 192.816766 -192.127332 
L 193.229744 -190.51409 
L 193.539951 -188.900849 
L 193.751699 -187.287608 
L 193.871174 -185.674367 
L 193.906258 -184.061125 
L 193.866286 -182.447884 
L 193.761761 -180.834643 
L 193.604035 -179.221402 
L 193.404955 -177.60816 
L 193.1765 -175.994919 
L 192.93042 -174.381678 
L 192.677872 -172.768437 
L 192.429095 -171.155195 
L 192.193107 -169.541954 
L 191.977448 -167.928713 
L 191.78798 -166.315472 
L 191.62874 -164.70223 
L 191.501851 -163.088989 
L 191.407507 -161.475748 
L 191.344008 -159.862506 
L 191.307863 -158.249265 
L 191.293938 -156.636024 
L 191.295663 -155.022783 
L 191.305267 -153.409541 
L 191.314048 -151.7963 
L 191.312666 -150.183059 
L 191.291443 -148.569818 
L 191.240667 -146.956576 
L 191.150883 -145.343335 
L 191.013177 -143.730094 
L 190.819425 -142.116853 
L 190.562522 -140.503611 
L 190.236566 -138.89037 
L 189.837013 -137.277129 
L 189.360782 -135.663888 
L 188.80632 -134.050646 
L 188.173627 -132.437405 
L 187.464236 -130.824164 
L 186.681155 -129.210922 
L 185.828777 -127.597681 
L 184.912748 -125.98444 
L 183.93982 -124.371199 
L 182.917675 -122.757957 
L 181.854737 -121.144716 
L 180.759968 -119.531475 
L 179.642663 -117.918234 
L 178.51225 -116.304992 
L 177.37809 -114.691751 
L 176.249291 -113.07851 
L 175.134539 -111.465269 
L 174.041948 -109.852027 
L 172.978932 -108.238786 
L 171.952103 -106.625545 
L 170.967193 -105.012304 
L 170.029004 -103.399062 
L 169.141382 -101.785821 
L 168.307218 -100.17258 
L 167.528472 -98.559338 
L 166.806208 -96.946097 
L 166.140664 -95.332856 
L 165.531317 -93.719615 
L 164.976973 -92.106373 
L 164.475854 -90.493132 
L 164.025695 -88.879891 
L 163.623842 -87.26665 
L 163.267342 -85.653408 
L 162.953037 -84.040167 
z
" style="stroke: #3f3f3f; stroke-width: 1.25"/>
    </defs>
    <g clip-path="url(#p85209d4733)">
     <use xlink:href="#m30759eb9f3" x="0" y="360" style="fill: #e1812c; stroke: #3f3f3f; stroke-width: 1.25"/>
    </g>
   </g>
   <g id="PolyCollection_3">
    <defs>
     <path id="m067997b7b0" d="M 260.32414 -106.382705 
L 258.45936 -106.382705 
L 258.281946 -108.560125 
L 258.079171 -110.737545 
L 257.849181 -112.914965 
L 257.590334 -115.092385 
L 257.301277 -117.269804 
L 256.981025 -119.447224 
L 256.629036 -121.624644 
L 256.245291 -123.802064 
L 255.830353 -125.979484 
L 255.385428 -128.156904 
L 254.912404 -130.334324 
L 254.413872 -132.511744 
L 253.893128 -134.689163 
L 253.354154 -136.866583 
L 252.801569 -139.044003 
L 252.240558 -141.221423 
L 251.676774 -143.398843 
L 251.116224 -145.576263 
L 250.565127 -147.753683 
L 250.029762 -149.931103 
L 249.516301 -152.108522 
L 249.030642 -154.285942 
L 248.578241 -156.463362 
L 248.163953 -158.640782 
L 247.791884 -160.818202 
L 247.465268 -162.995622 
L 247.186369 -165.173042 
L 246.956408 -167.350462 
L 246.775531 -169.527881 
L 246.642806 -171.705301 
L 246.556255 -173.882721 
L 246.512926 -176.060141 
L 246.508992 -178.237561 
L 246.539876 -180.414981 
L 246.600402 -182.592401 
L 246.684967 -184.769821 
L 246.787717 -186.94724 
L 246.90273 -189.12466 
L 247.024205 -191.30208 
L 247.146627 -193.4795 
L 247.264938 -195.65692 
L 247.374673 -197.83434 
L 247.472084 -200.01176 
L 247.554233 -202.18918 
L 247.619057 -204.366599 
L 247.665406 -206.544019 
L 247.693052 -208.721439 
L 247.702667 -210.898859 
L 247.695772 -213.076279 
L 247.67467 -215.253699 
L 247.642347 -217.431119 
L 247.602363 -219.608539 
L 247.558724 -221.785958 
L 247.515749 -223.963378 
L 247.477931 -226.140798 
L 247.449795 -228.318218 
L 247.435763 -230.495638 
L 247.440024 -232.673058 
L 247.466423 -234.850478 
L 247.518354 -237.027898 
L 247.59868 -239.205317 
L 247.709664 -241.382737 
L 247.85293 -243.560157 
L 248.029435 -245.737577 
L 248.239464 -247.914997 
L 248.482645 -250.092417 
L 248.757983 -252.269837 
L 249.063903 -254.447257 
L 249.39831 -256.624676 
L 249.758654 -258.802096 
L 250.14201 -260.979516 
L 250.54515 -263.156936 
L 250.96463 -265.334356 
L 251.396861 -267.511776 
L 251.83819 -269.689196 
L 252.284971 -271.866616 
L 252.733625 -274.044035 
L 253.180707 -276.221455 
L 253.622948 -278.398875 
L 254.057306 -280.576295 
L 254.480997 -282.753715 
L 254.891525 -284.931135 
L 255.286701 -287.108555 
L 255.664661 -289.285975 
L 256.023864 -291.463394 
L 256.363104 -293.640814 
L 256.681495 -295.818234 
L 256.978466 -297.995654 
L 257.253741 -300.173074 
L 257.507325 -302.350494 
L 257.739476 -304.527914 
L 257.950681 -306.705334 
L 258.141625 -308.882753 
L 258.313164 -311.060173 
L 258.466294 -313.237593 
L 258.602119 -315.415013 
L 258.72182 -317.592433 
L 258.826629 -319.769853 
L 258.917801 -321.947273 
L 259.865699 -321.947273 
L 259.865699 -321.947273 
L 259.956872 -319.769853 
L 260.061681 -317.592433 
L 260.181381 -315.415013 
L 260.317206 -313.237593 
L 260.470336 -311.060173 
L 260.641876 -308.882753 
L 260.83282 -306.705334 
L 261.044024 -304.527914 
L 261.276175 -302.350494 
L 261.529759 -300.173074 
L 261.805034 -297.995654 
L 262.102005 -295.818234 
L 262.420396 -293.640814 
L 262.759636 -291.463394 
L 263.11884 -289.285975 
L 263.496799 -287.108555 
L 263.891975 -284.931135 
L 264.302503 -282.753715 
L 264.726194 -280.576295 
L 265.160552 -278.398875 
L 265.602794 -276.221455 
L 266.049875 -274.044035 
L 266.498529 -271.866616 
L 266.94531 -269.689196 
L 267.386639 -267.511776 
L 267.81887 -265.334356 
L 268.23835 -263.156936 
L 268.64149 -260.979516 
L 269.024846 -258.802096 
L 269.38519 -256.624676 
L 269.719597 -254.447257 
L 270.025517 -252.269837 
L 270.300855 -250.092417 
L 270.544037 -247.914997 
L 270.754065 -245.737577 
L 270.93057 -243.560157 
L 271.073836 -241.382737 
L 271.184821 -239.205317 
L 271.265146 -237.027898 
L 271.317077 -234.850478 
L 271.343476 -232.673058 
L 271.347737 -230.495638 
L 271.333705 -228.318218 
L 271.305569 -226.140798 
L 271.267751 -223.963378 
L 271.224777 -221.785958 
L 271.181137 -219.608539 
L 271.141153 -217.431119 
L 271.10883 -215.253699 
L 271.087728 -213.076279 
L 271.080834 -210.898859 
L 271.090448 -208.721439 
L 271.118094 -206.544019 
L 271.164444 -204.366599 
L 271.229267 -202.18918 
L 271.311416 -200.01176 
L 271.408827 -197.83434 
L 271.518562 -195.65692 
L 271.636873 -193.4795 
L 271.759296 -191.30208 
L 271.88077 -189.12466 
L 271.995784 -186.94724 
L 272.098533 -184.769821 
L 272.183098 -182.592401 
L 272.243625 -180.414981 
L 272.274508 -178.237561 
L 272.270574 -176.060141 
L 272.227245 -173.882721 
L 272.140695 -171.705301 
L 272.007969 -169.527881 
L 271.827092 -167.350462 
L 271.597131 -165.173042 
L 271.318232 -162.995622 
L 270.991616 -160.818202 
L 270.619547 -158.640782 
L 270.205259 -156.463362 
L 269.752858 -154.285942 
L 269.2672 -152.108522 
L 268.753738 -149.931103 
L 268.218373 -147.753683 
L 267.667276 -145.576263 
L 267.106726 -143.398843 
L 266.542943 -141.221423 
L 265.981931 -139.044003 
L 265.429346 -136.866583 
L 264.890372 -134.689163 
L 264.369628 -132.511744 
L 263.871096 -130.334324 
L 263.398072 -128.156904 
L 262.953147 -125.979484 
L 262.538209 -123.802064 
L 262.154464 -121.624644 
L 261.802476 -119.447224 
L 261.482223 -117.269804 
L 261.193166 -115.092385 
L 260.934319 -112.914965 
L 260.704329 -110.737545 
L 260.501555 -108.560125 
L 260.32414 -106.382705 
z
" style="stroke: #3f3f3f; stroke-width: 1.25"/>
    </defs>
    <g clip-path="url(#p85209d4733)">
     <use xlink:href="#m067997b7b0" x="0" y="360" style="fill: #3274a1; stroke: #3f3f3f; stroke-width: 1.25"/>
    </g>
   </g>
   <g id="PolyCollection_4">
    <defs>
     <path id="m47eef244f8" d="M 325.712177 -61.155502 
L 324.042308 -61.155502 
L 323.86503 -63.560222 
L 323.65928 -65.964941 
L 323.422467 -68.36966 
L 323.152129 -70.77438 
L 322.845986 -73.179099 
L 322.502002 -75.583819 
L 322.118438 -77.988538 
L 321.69389 -80.393257 
L 321.227324 -82.797977 
L 320.718098 -85.202696 
L 320.165966 -87.607416 
L 319.571081 -90.012135 
L 318.93398 -92.416854 
L 318.255572 -94.821574 
L 317.537119 -97.226293 
L 316.780223 -99.631013 
L 315.986818 -102.035732 
L 315.159168 -104.440451 
L 314.299878 -106.845171 
L 313.411915 -109.24989 
L 312.498633 -111.654609 
L 311.563801 -114.059329 
L 310.611635 -116.464048 
L 309.646811 -118.868768 
L 308.674475 -121.273487 
L 307.700222 -123.678206 
L 306.730052 -126.082926 
L 305.770302 -128.487645 
L 304.827544 -130.892365 
L 303.90846 -133.297084 
L 303.019703 -135.701803 
L 302.167743 -138.106523 
L 301.358712 -140.511242 
L 300.598267 -142.915962 
L 299.891473 -145.320681 
L 299.242716 -147.7254 
L 298.655657 -150.13012 
L 298.133229 -152.534839 
L 297.677676 -154.939558 
L 297.290626 -157.344278 
L 296.973202 -159.748997 
L 296.726135 -162.153717 
L 296.549897 -164.558436 
L 296.444812 -166.963155 
L 296.411151 -169.367875 
L 296.449182 -171.772594 
L 296.559185 -174.177314 
L 296.741417 -176.582033 
L 296.996022 -178.986752 
L 297.322908 -181.391472 
L 297.721589 -183.796191 
L 298.191007 -186.20091 
L 298.72935 -188.60563 
L 299.333893 -191.010349 
L 300.000863 -193.415069 
L 300.725358 -195.819788 
L 301.501323 -198.224507 
L 302.3216 -200.629227 
L 303.178046 -203.033946 
L 304.061721 -205.438666 
L 304.963141 -207.843385 
L 305.872577 -210.248104 
L 306.780386 -212.652824 
L 307.677356 -215.057543 
L 308.555037 -217.462263 
L 309.406047 -219.866982 
L 310.22432 -222.271701 
L 311.005296 -224.676421 
L 311.746021 -227.08114 
L 312.445174 -229.485859 
L 313.103001 -231.890579 
L 313.721168 -234.295298 
L 314.30255 -236.700018 
L 314.850963 -239.104737 
L 315.370858 -241.509456 
L 315.867 -243.914176 
L 316.344156 -246.318895 
L 316.806801 -248.723615 
L 317.25887 -251.128334 
L 317.703558 -253.533053 
L 318.143191 -255.937773 
L 318.579152 -258.342492 
L 319.011882 -260.747211 
L 319.440932 -263.151931 
L 319.865076 -265.55665 
L 320.28245 -267.96137 
L 320.69073 -270.366089 
L 321.087313 -272.770808 
L 321.469502 -275.175528 
L 321.834677 -277.580247 
L 322.180447 -279.984967 
L 322.504768 -282.389686 
L 322.806037 -284.794405 
L 323.08314 -287.199125 
L 323.335483 -289.603844 
L 323.562977 -292.008564 
L 323.76601 -294.413283 
L 323.945389 -296.818002 
L 324.10228 -299.222722 
L 325.652205 -299.222722 
L 325.652205 -299.222722 
L 325.809096 -296.818002 
L 325.988475 -294.413283 
L 326.191508 -292.008564 
L 326.419002 -289.603844 
L 326.671345 -287.199125 
L 326.948448 -284.794405 
L 327.249716 -282.389686 
L 327.574038 -279.984967 
L 327.919808 -277.580247 
L 328.284983 -275.175528 
L 328.667172 -272.770808 
L 329.063755 -270.366089 
L 329.472035 -267.96137 
L 329.889409 -265.55665 
L 330.313552 -263.151931 
L 330.742603 -260.747211 
L 331.175333 -258.342492 
L 331.611294 -255.937773 
L 332.050927 -253.533053 
L 332.495615 -251.128334 
L 332.947684 -248.723615 
L 333.410329 -246.318895 
L 333.887485 -243.914176 
L 334.383627 -241.509456 
L 334.903522 -239.104737 
L 335.451935 -236.700018 
L 336.033317 -234.295298 
L 336.651484 -231.890579 
L 337.30931 -229.485859 
L 338.008464 -227.08114 
L 338.749189 -224.676421 
L 339.530165 -222.271701 
L 340.348438 -219.866982 
L 341.199448 -217.462263 
L 342.077129 -215.057543 
L 342.974099 -212.652824 
L 343.881908 -210.248104 
L 344.791344 -207.843385 
L 345.692764 -205.438666 
L 346.576439 -203.033946 
L 347.432885 -200.629227 
L 348.253162 -198.224507 
L 349.029127 -195.819788 
L 349.753622 -193.415069 
L 350.420592 -191.010349 
L 351.025135 -188.60563 
L 351.563478 -186.20091 
L 352.032896 -183.796191 
L 352.431577 -181.391472 
L 352.758463 -178.986752 
L 353.013068 -176.582033 
L 353.1953 -174.177314 
L 353.305303 -171.772594 
L 353.343334 -169.367875 
L 353.309673 -166.963155 
L 353.204588 -164.558436 
L 353.02835 -162.153717 
L 352.781283 -159.748997 
L 352.463858 -157.344278 
L 352.076809 -154.939558 
L 351.621256 -152.534839 
L 351.098828 -150.13012 
L 350.511768 -147.7254 
L 349.863011 -145.320681 
L 349.156218 -142.915962 
L 348.395773 -140.511242 
L 347.586742 -138.106523 
L 346.734782 -135.701803 
L 345.846025 -133.297084 
L 344.926941 -130.892365 
L 343.984183 -128.487645 
L 343.024433 -126.082926 
L 342.054263 -123.678206 
L 341.08001 -121.273487 
L 340.107674 -118.868768 
L 339.14285 -116.464048 
L 338.190684 -114.059329 
L 337.255852 -111.654609 
L 336.34257 -109.24989 
L 335.454607 -106.845171 
L 334.595317 -104.440451 
L 333.767667 -102.035732 
L 332.974262 -99.631013 
L 332.217366 -97.226293 
L 331.498913 -94.821574 
L 330.820505 -92.416854 
L 330.183404 -90.012135 
L 329.588519 -87.607416 
L 329.036387 -85.202696 
L 328.527161 -82.797977 
L 328.060595 -80.393257 
L 327.636047 -77.988538 
L 327.252483 -75.583819 
L 326.908499 -73.179099 
L 326.602356 -70.77438 
L 326.332018 -68.36966 
L 326.095205 -65.964941 
L 325.889454 -63.560222 
L 325.712177 -61.155502 
z
" style="stroke: #3f3f3f; stroke-width: 1.25"/>
    </defs>
    <g clip-path="url(#p85209d4733)">
     <use xlink:href="#m47eef244f8" x="0" y="360" style="fill: #e1812c; stroke: #3f3f3f; stroke-width: 1.25"/>
    </g>
   </g>
   <g id="line2d_9">
    <path d="M 95.678019 226.86279 
L 95.678019 171.814124 
" clip-path="url(#p85209d4733)" style="fill: none; stroke: #3f3f3f; stroke-width: 1.875; stroke-linecap: round"/>
   </g>
   <g id="line2d_10">
    <path d="M 95.678019 203.389457 
L 95.678019 187.097869 
" clip-path="url(#p85209d4733)" style="fill: none; stroke: #3f3f3f; stroke-width: 5.625; stroke-linecap: round"/>
   </g>
   <g id="line2d_11">
    <path d="M 95.678019 188.062322 
" clip-path="url(#p85209d4733)" style="fill: none; stroke: #3f3f3f; stroke-width: 1.5; stroke-linecap: round"/>
    <defs>
     <path id="m92cdb75670" d="M 2.34375 0 
L -2.34375 -0 
" style="stroke: #ffffff; stroke-width: 1.125"/>
    </defs>
    <g clip-path="url(#p85209d4733)">
     <use xlink:href="#m92cdb75670" x="95.678019" y="188.062322" style="fill: #ffffff; stroke: #ffffff; stroke-width: 1.125"/>
    </g>
   </g>
   <g id="line2d_12">
    <path d="M 161.163512 233.761206 
L 161.163512 158.447575 
" clip-path="url(#p85209d4733)" style="fill: none; stroke: #3f3f3f; stroke-width: 1.875; stroke-linecap: round"/>
   </g>
   <g id="line2d_13">
    <path d="M 161.163512 217.252905 
L 161.163512 172.47218 
" clip-path="url(#p85209d4733)" style="fill: none; stroke: #3f3f3f; stroke-width: 5.625; stroke-linecap: round"/>
   </g>
   <g id="line2d_14">
    <path d="M 161.163512 191.42429 
" clip-path="url(#p85209d4733)" style="fill: none; stroke: #3f3f3f; stroke-width: 1.5; stroke-linecap: round"/>
    <g clip-path="url(#p85209d4733)">
     <use xlink:href="#m92cdb75670" x="161.163512" y="191.42429" style="fill: #ffffff; stroke: #ffffff; stroke-width: 1.125"/>
    </g>
   </g>
   <g id="line2d_15">
    <path d="M 259.39175 200.997996 
L 259.39175 90.672027 
" clip-path="url(#p85209d4733)" style="fill: none; stroke: #3f3f3f; stroke-width: 1.875; stroke-linecap: round"/>
   </g>
   <g id="line2d_16">
    <path d="M 259.39175 186.663081 
L 259.39175 118.301923 
" clip-path="url(#p85209d4733)" style="fill: none; stroke: #3f3f3f; stroke-width: 5.625; stroke-linecap: round"/>
   </g>
   <g id="line2d_17">
    <path d="M 259.39175 153.934389 
" clip-path="url(#p85209d4733)" style="fill: none; stroke: #3f3f3f; stroke-width: 1.5; stroke-linecap: round"/>
    <g clip-path="url(#p85209d4733)">
     <use xlink:href="#m92cdb75670" x="259.39175" y="153.934389" style="fill: #ffffff; stroke: #ffffff; stroke-width: 1.125"/>
    </g>
   </g>
   <g id="line2d_18">
    <path d="M 324.877242 247.277807 
L 324.877242 112.343969 
" clip-path="url(#p85209d4733)" style="fill: none; stroke: #3f3f3f; stroke-width: 1.875; stroke-linecap: round"/>
   </g>
   <g id="line2d_19">
    <path d="M 324.877242 213.599689 
L 324.877242 162.686429 
" clip-path="url(#p85209d4733)" style="fill: none; stroke: #3f3f3f; stroke-width: 5.625; stroke-linecap: round"/>
   </g>
   <g id="line2d_20">
    <path d="M 324.877242 184.526429 
" clip-path="url(#p85209d4733)" style="fill: none; stroke: #3f3f3f; stroke-width: 1.5; stroke-linecap: round"/>
    <g clip-path="url(#p85209d4733)">
     <use xlink:href="#m92cdb75670" x="324.877242" y="184.526429" style="fill: #ffffff; stroke: #ffffff; stroke-width: 1.125"/>
    </g>
   </g>
   <g id="patch_3">
    <path d="M 46.5639 318.04 
L 46.5639 24.72 
" style="fill: none; stroke: #cccccc; stroke-width: 0.8; stroke-linejoin: miter; stroke-linecap: square"/>
   </g>
   <g id="patch_4">
    <path d="M 46.5639 318.04 
L 373.991362 318.04 
" style="fill: none; stroke: #cccccc; stroke-width: 0.8; stroke-linejoin: miter; stroke-linecap: square"/>
   </g>
   <g id="text_13">
    <!-- sex = f -->
    <g style="fill: #262626" transform="translate(195.409662 18.72) scale(0.1 -0.1)">
     <defs>
      <path id="ArialMT-73" d="M 197 991 
L 753 1078 
Q 800 744 1014 566 
Q 1228 388 1613 388 
Q 2000 388 2187 545 
Q 2375 703 2375 916 
Q 2375 1106 2209 1216 
Q 2094 1291 1634 1406 
Q 1016 1563 777 1677 
Q 538 1791 414 1992 
Q 291 2194 291 2438 
Q 291 2659 392 2848 
Q 494 3038 669 3163 
Q 800 3259 1026 3326 
Q 1253 3394 1513 3394 
Q 1903 3394 2198 3281 
Q 2494 3169 2634 2976 
Q 2775 2784 2828 2463 
L 2278 2388 
Q 2241 2644 2061 2787 
Q 1881 2931 1553 2931 
Q 1166 2931 1000 2803 
Q 834 2675 834 2503 
Q 834 2394 903 2306 
Q 972 2216 1119 2156 
Q 1203 2125 1616 2013 
Q 2213 1853 2448 1751 
Q 2684 1650 2818 1456 
Q 2953 1263 2953 975 
Q 2953 694 2789 445 
Q 2625 197 2315 61 
Q 2006 -75 1616 -75 
Q 969 -75 630 194 
Q 291 463 197 991 
z
" transform="scale(0.015625)"/>
      <path id="ArialMT-78" d="M 47 0 
L 1259 1725 
L 138 3319 
L 841 3319 
L 1350 2541 
Q 1494 2319 1581 2169 
Q 1719 2375 1834 2534 
L 2394 3319 
L 3066 3319 
L 1919 1756 
L 3153 0 
L 2463 0 
L 1781 1031 
L 1600 1309 
L 728 0 
L 47 0 
z
" transform="scale(0.015625)"/>
      <path id="ArialMT-3d" d="M 3381 2694 
L 356 2694 
L 356 3219 
L 3381 3219 
L 3381 2694 
z
M 3381 1303 
L 356 1303 
L 356 1828 
L 3381 1828 
L 3381 1303 
z
" transform="scale(0.015625)"/>
      <path id="ArialMT-66" d="M 556 0 
L 556 2881 
L 59 2881 
L 59 3319 
L 556 3319 
L 556 3672 
Q 556 4006 616 4169 
Q 697 4388 901 4523 
Q 1106 4659 1475 4659 
Q 1713 4659 2000 4603 
L 1916 4113 
Q 1741 4144 1584 4144 
Q 1328 4144 1222 4034 
Q 1116 3925 1116 3625 
L 1116 3319 
L 1763 3319 
L 1763 2881 
L 1116 2881 
L 1116 0 
L 556 0 
z
" transform="scale(0.015625)"/>
     </defs>
     <use xlink:href="#ArialMT-73"/>
     <use xlink:href="#ArialMT-65" x="50"/>
     <use xlink:href="#ArialMT-78" x="105.615234"/>
     <use xlink:href="#ArialMT-20" x="155.615234"/>
     <use xlink:href="#ArialMT-3d" x="183.398438"/>
     <use xlink:href="#ArialMT-20" x="241.796875"/>
     <use xlink:href="#ArialMT-66" x="269.580078"/>
    </g>
   </g>
  </g>
  <g id="axes_2">
   <g id="patch_5">
    <path d="M 384.783038 318.04 
L 712.2105 318.04 
L 712.2105 24.72 
L 384.783038 24.72 
z
" style="fill: #ffffff"/>
   </g>
   <g id="matplotlib.axis_3">
    <g id="xtick_3">
     <g id="text_14">
      <!-- Baia -->
      <g style="fill: #262626" transform="translate(456.632872 332.197812) scale(0.1 -0.1)">
       <use xlink:href="#ArialMT-42"/>
       <use xlink:href="#ArialMT-61" x="66.699219"/>
       <use xlink:href="#ArialMT-69" x="122.314453"/>
       <use xlink:href="#ArialMT-61" x="144.53125"/>
      </g>
     </g>
    </g>
    <g id="xtick_4">
     <g id="text_15">
      <!-- Jurilovca -->
      <g style="fill: #262626" transform="translate(610.62551 332.197812) scale(0.1 -0.1)">
       <use xlink:href="#ArialMT-4a"/>
       <use xlink:href="#ArialMT-75" x="50"/>
       <use xlink:href="#ArialMT-72" x="105.615234"/>
       <use xlink:href="#ArialMT-69" x="138.916016"/>
       <use xlink:href="#ArialMT-6c" x="161.132812"/>
       <use xlink:href="#ArialMT-6f" x="183.349609"/>
       <use xlink:href="#ArialMT-76" x="238.964844"/>
       <use xlink:href="#ArialMT-63" x="288.964844"/>
       <use xlink:href="#ArialMT-61" x="338.964844"/>
      </g>
     </g>
    </g>
    <g id="text_16">
     <!-- Location -->
     <g style="fill: #262626" transform="translate(529.594425 345.343125) scale(0.1 -0.1)">
      <use xlink:href="#ArialMT-4c"/>
      <use xlink:href="#ArialMT-6f" x="55.615234"/>
      <use xlink:href="#ArialMT-63" x="111.230469"/>
      <use xlink:href="#ArialMT-61" x="161.230469"/>
      <use xlink:href="#ArialMT-74" x="216.845703"/>
      <use xlink:href="#ArialMT-69" x="244.628906"/>
      <use xlink:href="#ArialMT-6f" x="266.845703"/>
      <use xlink:href="#ArialMT-6e" x="322.460938"/>
     </g>
    </g>
   </g>
   <g id="matplotlib.axis_4">
    <g id="ytick_9">
     <g id="line2d_21">
      <path d="M 384.783038 287.829468 
L 712.2105 287.829468 
" clip-path="url(#p0b8e510b58)" style="fill: none; stroke: #cccccc; stroke-width: 0.8; stroke-linecap: round"/>
     </g>
    </g>
    <g id="ytick_10">
     <g id="line2d_22">
      <path d="M 384.783038 252.356427 
L 712.2105 252.356427 
" clip-path="url(#p0b8e510b58)" style="fill: none; stroke: #cccccc; stroke-width: 0.8; stroke-linecap: round"/>
     </g>
    </g>
    <g id="ytick_11">
     <g id="line2d_23">
      <path d="M 384.783038 216.883387 
L 712.2105 216.883387 
" clip-path="url(#p0b8e510b58)" style="fill: none; stroke: #cccccc; stroke-width: 0.8; stroke-linecap: round"/>
     </g>
    </g>
    <g id="ytick_12">
     <g id="line2d_24">
      <path d="M 384.783038 181.410347 
L 712.2105 181.410347 
" clip-path="url(#p0b8e510b58)" style="fill: none; stroke: #cccccc; stroke-width: 0.8; stroke-linecap: round"/>
     </g>
    </g>
    <g id="ytick_13">
     <g id="line2d_25">
      <path d="M 384.783038 145.937307 
L 712.2105 145.937307 
" clip-path="url(#p0b8e510b58)" style="fill: none; stroke: #cccccc; stroke-width: 0.8; stroke-linecap: round"/>
     </g>
    </g>
    <g id="ytick_14">
     <g id="line2d_26">
      <path d="M 384.783038 110.464267 
L 712.2105 110.464267 
" clip-path="url(#p0b8e510b58)" style="fill: none; stroke: #cccccc; stroke-width: 0.8; stroke-linecap: round"/>
     </g>
    </g>
    <g id="ytick_15">
     <g id="line2d_27">
      <path d="M 384.783038 74.991227 
L 712.2105 74.991227 
" clip-path="url(#p0b8e510b58)" style="fill: none; stroke: #cccccc; stroke-width: 0.8; stroke-linecap: round"/>
     </g>
    </g>
    <g id="ytick_16">
     <g id="line2d_28">
      <path d="M 384.783038 39.518186 
L 712.2105 39.518186 
" clip-path="url(#p0b8e510b58)" style="fill: none; stroke: #cccccc; stroke-width: 0.8; stroke-linecap: round"/>
     </g>
    </g>
   </g>
   <g id="PolyCollection_5">
    <defs>
     <path id="m45c33c4a56" d="M 435.331715 -114.270809 
L 432.4626 -114.270809 
L 432.134045 -116.098532 
L 431.746878 -117.926254 
L 431.294733 -119.753976 
L 430.771475 -121.581698 
L 430.171425 -123.409421 
L 429.489623 -125.237143 
L 428.722094 -127.064865 
L 427.866136 -128.892587 
L 426.920581 -130.720309 
L 425.886054 -132.548032 
L 424.765178 -134.375754 
L 423.562742 -136.203476 
L 422.285793 -138.031198 
L 420.943654 -139.85892 
L 419.547855 -141.686643 
L 418.111965 -143.514365 
L 416.651339 -145.342087 
L 415.182765 -147.169809 
L 413.724034 -148.997532 
L 412.293443 -150.825254 
L 410.909247 -152.652976 
L 409.589088 -154.480698 
L 408.349413 -156.30842 
L 407.204926 -158.136143 
L 406.168084 -159.963865 
L 405.248664 -161.791587 
L 404.453424 -163.619309 
L 403.785876 -165.447032 
L 403.246175 -167.274754 
L 402.831137 -169.102476 
L 402.534381 -170.930198 
L 402.346588 -172.75792 
L 402.255874 -174.585643 
L 402.248253 -176.413365 
L 402.308167 -178.241087 
L 402.419076 -180.068809 
L 402.564071 -181.896532 
L 402.726491 -183.724254 
L 402.890518 -185.551976 
L 403.041728 -187.379698 
L 403.167583 -189.20742 
L 403.257839 -191.035143 
L 403.304853 -192.862865 
L 403.303792 -194.690587 
L 403.252724 -196.518309 
L 403.152597 -198.346032 
L 403.007105 -200.173754 
L 402.822454 -202.001476 
L 402.607035 -203.829198 
L 402.371026 -205.65692 
L 402.125932 -207.484643 
L 401.884103 -209.312365 
L 401.658232 -211.140087 
L 401.460876 -212.967809 
L 401.304007 -214.795531 
L 401.198621 -216.623254 
L 401.154411 -218.450976 
L 401.179534 -220.278698 
L 401.280449 -222.10642 
L 401.461853 -223.934143 
L 401.726693 -225.761865 
L 402.076251 -227.589587 
L 402.51029 -229.417309 
L 403.027238 -231.245031 
L 403.624395 -233.072754 
L 404.298152 -234.900476 
L 405.044199 -236.728198 
L 405.85771 -238.55592 
L 406.733493 -240.383643 
L 407.666109 -242.211365 
L 408.649944 -244.039087 
L 409.679247 -245.866809 
L 410.748137 -247.694531 
L 411.850588 -249.522254 
L 412.980399 -251.349976 
L 414.131164 -253.177698 
L 415.296251 -255.00542 
L 416.468806 -256.833143 
L 417.641768 -258.660865 
L 418.807929 -260.488587 
L 419.960012 -262.316309 
L 421.090783 -264.144031 
L 422.193178 -265.971754 
L 423.260457 -267.799476 
L 424.286347 -269.627198 
L 425.265197 -271.45492 
L 426.192106 -273.282643 
L 427.06304 -275.110365 
L 427.874912 -276.938087 
L 428.625635 -278.765809 
L 429.314134 -280.593531 
L 429.940326 -282.421254 
L 430.505065 -284.248976 
L 431.010059 -286.076698 
L 431.457762 -287.90442 
L 431.851249 -289.732142 
L 432.194082 -291.559865 
L 432.490176 -293.387587 
L 432.743661 -295.215309 
L 435.050654 -295.215309 
L 435.050654 -295.215309 
L 435.30414 -293.387587 
L 435.600233 -291.559865 
L 435.943067 -289.732142 
L 436.336553 -287.90442 
L 436.784256 -286.076698 
L 437.28925 -284.248976 
L 437.853989 -282.421254 
L 438.480181 -280.593531 
L 439.16868 -278.765809 
L 439.919403 -276.938087 
L 440.731275 -275.110365 
L 441.602209 -273.282643 
L 442.529118 -271.45492 
L 443.507968 -269.627198 
L 444.533858 -267.799476 
L 445.601137 -265.971754 
L 446.703532 -264.144031 
L 447.834303 -262.316309 
L 448.986386 -260.488587 
L 450.152547 -258.660865 
L 451.325509 -256.833143 
L 452.498064 -255.00542 
L 453.663152 -253.177698 
L 454.813916 -251.349976 
L 455.943727 -249.522254 
L 457.046178 -247.694531 
L 458.115068 -245.866809 
L 459.144371 -244.039087 
L 460.128206 -242.211365 
L 461.060822 -240.383643 
L 461.936605 -238.55592 
L 462.750116 -236.728198 
L 463.496163 -234.900476 
L 464.169921 -233.072754 
L 464.767077 -231.245031 
L 465.284025 -229.417309 
L 465.718064 -227.589587 
L 466.067623 -225.761865 
L 466.332462 -223.934143 
L 466.513866 -222.10642 
L 466.614781 -220.278698 
L 466.639904 -218.450976 
L 466.595695 -216.623254 
L 466.490308 -214.795531 
L 466.333439 -212.967809 
L 466.136083 -211.140087 
L 465.910212 -209.312365 
L 465.668383 -207.484643 
L 465.423289 -205.65692 
L 465.18728 -203.829198 
L 464.971862 -202.001476 
L 464.787211 -200.173754 
L 464.641718 -198.346032 
L 464.541591 -196.518309 
L 464.490523 -194.690587 
L 464.489462 -192.862865 
L 464.536476 -191.035143 
L 464.626732 -189.20742 
L 464.752588 -187.379698 
L 464.903797 -185.551976 
L 465.067824 -183.724254 
L 465.230244 -181.896532 
L 465.375239 -180.068809 
L 465.486148 -178.241087 
L 465.546062 -176.413365 
L 465.538441 -174.585643 
L 465.447728 -172.75792 
L 465.259935 -170.930198 
L 464.963178 -169.102476 
L 464.54814 -167.274754 
L 464.008439 -165.447032 
L 463.340891 -163.619309 
L 462.545651 -161.791587 
L 461.626231 -159.963865 
L 460.589389 -158.136143 
L 459.444902 -156.30842 
L 458.205227 -154.480698 
L 456.885068 -152.652976 
L 455.500872 -150.825254 
L 454.070281 -148.997532 
L 452.61155 -147.169809 
L 451.142976 -145.342087 
L 449.68235 -143.514365 
L 448.24646 -141.686643 
L 446.850661 -139.85892 
L 445.508522 -138.031198 
L 444.231573 -136.203476 
L 443.029137 -134.375754 
L 441.908261 -132.548032 
L 440.873734 -130.720309 
L 439.928179 -128.892587 
L 439.072221 -127.064865 
L 438.304693 -125.237143 
L 437.62289 -123.409421 
L 437.02284 -121.581698 
L 436.499582 -119.753976 
L 436.047437 -117.926254 
L 435.66027 -116.098532 
L 435.331715 -114.270809 
z
" style="stroke: #3f3f3f; stroke-width: 1.25"/>
    </defs>
    <g clip-path="url(#p0b8e510b58)">
     <use xlink:href="#m45c33c4a56" x="0" y="360" style="fill: #3274a1; stroke: #3f3f3f; stroke-width: 1.25"/>
    </g>
   </g>
   <g id="PolyCollection_6">
    <defs>
     <path id="m4ff078b6c3" d="M 500.26856 -107.800144 
L 498.49674 -107.800144 
L 498.262114 -109.344815 
L 497.977124 -110.889485 
L 497.634214 -112.434156 
L 497.22551 -113.978826 
L 496.743014 -115.523497 
L 496.178852 -117.068167 
L 495.525563 -118.612838 
L 494.776435 -120.157509 
L 493.925873 -121.702179 
L 492.969794 -123.24685 
L 491.906016 -124.79152 
L 490.734643 -126.336191 
L 489.45841 -127.880861 
L 488.082969 -129.425532 
L 486.617091 -130.970202 
L 485.072765 -132.514873 
L 483.465173 -134.059543 
L 481.812531 -135.604214 
L 480.135785 -137.148884 
L 478.458167 -138.693555 
L 476.804626 -140.238225 
L 475.201144 -141.782896 
L 473.673969 -143.327566 
L 472.248803 -144.872237 
L 470.949978 -146.416907 
L 469.799664 -147.961578 
L 468.817146 -149.506248 
L 468.018218 -151.050919 
L 467.414702 -152.59559 
L 467.014136 -154.14026 
L 466.819629 -155.684931 
L 466.829885 -157.229601 
L 467.039391 -158.774272 
L 467.438744 -160.318942 
L 468.015093 -161.863613 
L 468.752669 -163.408283 
L 469.633371 -164.952954 
L 470.637364 -166.497624 
L 471.743682 -168.042295 
L 472.930799 -169.586965 
L 474.177155 -171.131636 
L 475.461625 -172.676306 
L 476.763929 -174.220977 
L 478.064984 -175.765647 
L 479.347192 -177.310318 
L 480.594681 -178.854988 
L 481.79349 -180.399659 
L 482.931719 -181.944329 
L 483.999623 -183.489 
L 484.989674 -185.033671 
L 485.896573 -186.578341 
L 486.71722 -188.123012 
L 487.450635 -189.667682 
L 488.09783 -191.212353 
L 488.661635 -192.757023 
L 489.146486 -194.301694 
L 489.558169 -195.846364 
L 489.903548 -197.391035 
L 490.190267 -198.935705 
L 490.426463 -200.480376 
L 490.62048 -202.025046 
L 490.780609 -203.569717 
L 490.914868 -205.114387 
L 491.030813 -206.659058 
L 491.135398 -208.203728 
L 491.234885 -209.748399 
L 491.334791 -211.293069 
L 491.439872 -212.83774 
L 491.554142 -214.38241 
L 491.680902 -215.927081 
L 491.822796 -217.471752 
L 491.981852 -219.016422 
L 492.159532 -220.561093 
L 492.356767 -222.105763 
L 492.573987 -223.650434 
L 492.811133 -225.195104 
L 493.067668 -226.739775 
L 493.342581 -228.284445 
L 493.634393 -229.829116 
L 493.941174 -231.373786 
L 494.260568 -232.918457 
L 494.589834 -234.463127 
L 494.92591 -236.007798 
L 495.265488 -237.552468 
L 495.605109 -239.097139 
L 495.941268 -240.641809 
L 496.270529 -242.18648 
L 496.589628 -243.73115 
L 496.895587 -245.275821 
L 497.185795 -246.820491 
L 497.458087 -248.365162 
L 497.710791 -249.909833 
L 497.942754 -251.454503 
L 498.153346 -252.999174 
L 498.342433 -254.543844 
L 498.510344 -256.088515 
L 498.657807 -257.633185 
L 498.785885 -259.177856 
L 498.895901 -260.722526 
L 499.869399 -260.722526 
L 499.869399 -260.722526 
L 499.979414 -259.177856 
L 500.107492 -257.633185 
L 500.254956 -256.088515 
L 500.422867 -254.543844 
L 500.611954 -252.999174 
L 500.822545 -251.454503 
L 501.054509 -249.909833 
L 501.307213 -248.365162 
L 501.579505 -246.820491 
L 501.869713 -245.275821 
L 502.175671 -243.73115 
L 502.494771 -242.18648 
L 502.824032 -240.641809 
L 503.160191 -239.097139 
L 503.499812 -237.552468 
L 503.839389 -236.007798 
L 504.175465 -234.463127 
L 504.504732 -232.918457 
L 504.824126 -231.373786 
L 505.130907 -229.829116 
L 505.422719 -228.284445 
L 505.697632 -226.739775 
L 505.954167 -225.195104 
L 506.191313 -223.650434 
L 506.408533 -222.105763 
L 506.605768 -220.561093 
L 506.783448 -219.016422 
L 506.942504 -217.471752 
L 507.084397 -215.927081 
L 507.211158 -214.38241 
L 507.325427 -212.83774 
L 507.430509 -211.293069 
L 507.530415 -209.748399 
L 507.629902 -208.203728 
L 507.734487 -206.659058 
L 507.850431 -205.114387 
L 507.98469 -203.569717 
L 508.14482 -202.025046 
L 508.338837 -200.480376 
L 508.575033 -198.935705 
L 508.861752 -197.391035 
L 509.207131 -195.846364 
L 509.618814 -194.301694 
L 510.103665 -192.757023 
L 510.66747 -191.212353 
L 511.314665 -189.667682 
L 512.04808 -188.123012 
L 512.868727 -186.578341 
L 513.775626 -185.033671 
L 514.765677 -183.489 
L 515.833581 -181.944329 
L 516.971809 -180.399659 
L 518.170619 -178.854988 
L 519.418108 -177.310318 
L 520.700316 -175.765647 
L 522.001371 -174.220977 
L 523.303675 -172.676306 
L 524.588144 -171.131636 
L 525.8345 -169.586965 
L 527.021618 -168.042295 
L 528.127936 -166.497624 
L 529.131929 -164.952954 
L 530.012631 -163.408283 
L 530.750207 -161.863613 
L 531.326556 -160.318942 
L 531.725908 -158.774272 
L 531.935415 -157.229601 
L 531.945671 -155.684931 
L 531.751164 -154.14026 
L 531.350598 -152.59559 
L 530.747082 -151.050919 
L 529.948154 -149.506248 
L 528.965636 -147.961578 
L 527.815322 -146.416907 
L 526.516497 -144.872237 
L 525.091331 -143.327566 
L 523.564156 -141.782896 
L 521.960674 -140.238225 
L 520.307133 -138.693555 
L 518.629515 -137.148884 
L 516.952768 -135.604214 
L 515.300126 -134.059543 
L 513.692535 -132.514873 
L 512.148209 -130.970202 
L 510.682331 -129.425532 
L 509.30689 -127.880861 
L 508.030657 -126.336191 
L 506.859284 -124.79152 
L 505.795506 -123.24685 
L 504.839426 -121.702179 
L 503.988865 -120.157509 
L 503.239737 -118.612838 
L 502.586447 -117.068167 
L 502.022286 -115.523497 
L 501.53979 -113.978826 
L 501.131086 -112.434156 
L 500.788176 -110.889485 
L 500.503185 -109.344815 
L 500.26856 -107.800144 
z
" style="stroke: #3f3f3f; stroke-width: 1.25"/>
    </defs>
    <g clip-path="url(#p0b8e510b58)">
     <use xlink:href="#m4ff078b6c3" x="0" y="360" style="fill: #e1812c; stroke: #3f3f3f; stroke-width: 1.25"/>
    </g>
   </g>
   <g id="PolyCollection_7">
    <defs>
     <path id="md599b584e0" d="M 598.516923 -55.292727 
L 596.704854 -55.292727 
L 596.517113 -57.836173 
L 596.299448 -60.379618 
L 596.048996 -62.923064 
L 595.762962 -65.46651 
L 595.438689 -68.009955 
L 595.073713 -70.553401 
L 594.665833 -73.096846 
L 594.213169 -75.640292 
L 593.71422 -78.183737 
L 593.167909 -80.727183 
L 592.573628 -83.270629 
L 591.931273 -85.814074 
L 591.241266 -88.35752 
L 590.504577 -90.900965 
L 589.72273 -93.444411 
L 588.897812 -95.987856 
L 588.032473 -98.531302 
L 587.129918 -101.074748 
L 586.193902 -103.618193 
L 585.228719 -106.161639 
L 584.239184 -108.705084 
L 583.230609 -111.24853 
L 582.208778 -113.791975 
L 581.179903 -116.335421 
L 580.15057 -118.878866 
L 579.12768 -121.422312 
L 578.11836 -123.965758 
L 577.129877 -126.509203 
L 576.16952 -129.052649 
L 575.244492 -131.596094 
L 574.361779 -134.13954 
L 573.528023 -136.682985 
L 572.749407 -139.226431 
L 572.031538 -141.769877 
L 571.379354 -144.313322 
L 570.79705 -146.856768 
L 570.288025 -149.400213 
L 569.854855 -151.943659 
L 569.499294 -154.487104 
L 569.222284 -157.03055 
L 569.024001 -159.573996 
L 568.903891 -162.117441 
L 568.860734 -164.660887 
L 568.892687 -167.204332 
L 568.99734 -169.747778 
L 569.171751 -172.291223 
L 569.412485 -174.834669 
L 569.715633 -177.378115 
L 570.076831 -179.92156 
L 570.491285 -182.465006 
L 570.95379 -185.008451 
L 571.45877 -187.551897 
L 572.000333 -190.095342 
L 572.572349 -192.638788 
L 573.168551 -195.182234 
L 573.782661 -197.725679 
L 574.408541 -200.269125 
L 575.040354 -202.81257 
L 575.672739 -205.356016 
L 576.300976 -207.899461 
L 576.92114 -210.442907 
L 577.530232 -212.986353 
L 578.126268 -215.529798 
L 578.708327 -218.073244 
L 579.276549 -220.616689 
L 579.832076 -223.160135 
L 580.376945 -225.70358 
L 580.913933 -228.247026 
L 581.44636 -230.790472 
L 581.977869 -233.333917 
L 582.512185 -235.877363 
L 583.052872 -238.420808 
L 583.60311 -240.964254 
L 584.165483 -243.507699 
L 584.741817 -246.051145 
L 585.333053 -248.59459 
L 585.93917 -251.138036 
L 586.559169 -253.681482 
L 587.191098 -256.224927 
L 587.832135 -258.768373 
L 588.478701 -261.311818 
L 589.126619 -263.855264 
L 589.771286 -266.398709 
L 590.407864 -268.942155 
L 591.031468 -271.485601 
L 591.637353 -274.029046 
L 592.22108 -276.572492 
L 592.778659 -279.115937 
L 593.306662 -281.659383 
L 593.802312 -284.202828 
L 594.26353 -286.746274 
L 594.688955 -289.28972 
L 595.077931 -291.833165 
L 595.430471 -294.376611 
L 595.747201 -296.920056 
L 596.02928 -299.463502 
L 596.278316 -302.006947 
L 596.496276 -304.550393 
L 596.68539 -307.093839 
L 598.536387 -307.093839 
L 598.536387 -307.093839 
L 598.7255 -304.550393 
L 598.94346 -302.006947 
L 599.192497 -299.463502 
L 599.474576 -296.920056 
L 599.791306 -294.376611 
L 600.143846 -291.833165 
L 600.532822 -289.28972 
L 600.958246 -286.746274 
L 601.419465 -284.202828 
L 601.915115 -281.659383 
L 602.443118 -279.115937 
L 603.000696 -276.572492 
L 603.584423 -274.029046 
L 604.190309 -271.485601 
L 604.813913 -268.942155 
L 605.45049 -266.398709 
L 606.095157 -263.855264 
L 606.743075 -261.311818 
L 607.389642 -258.768373 
L 608.030678 -256.224927 
L 608.662608 -253.681482 
L 609.282607 -251.138036 
L 609.888724 -248.59459 
L 610.479959 -246.051145 
L 611.056294 -243.507699 
L 611.618667 -240.964254 
L 612.168904 -238.420808 
L 612.709592 -235.877363 
L 613.243908 -233.333917 
L 613.775417 -230.790472 
L 614.307844 -228.247026 
L 614.844832 -225.70358 
L 615.389701 -223.160135 
L 615.945228 -220.616689 
L 616.513449 -218.073244 
L 617.095509 -215.529798 
L 617.691545 -212.986353 
L 618.300637 -210.442907 
L 618.920801 -207.899461 
L 619.549038 -205.356016 
L 620.181423 -202.81257 
L 620.813236 -200.269125 
L 621.439116 -197.725679 
L 622.053226 -195.182234 
L 622.649427 -192.638788 
L 623.221444 -190.095342 
L 623.763007 -187.551897 
L 624.267987 -185.008451 
L 624.730492 -182.465006 
L 625.144946 -179.92156 
L 625.506144 -177.378115 
L 625.809292 -174.834669 
L 626.050026 -172.291223 
L 626.224437 -169.747778 
L 626.32909 -167.204332 
L 626.361043 -164.660887 
L 626.317885 -162.117441 
L 626.197776 -159.573996 
L 625.999493 -157.03055 
L 625.722483 -154.487104 
L 625.366921 -151.943659 
L 624.933752 -149.400213 
L 624.424727 -146.856768 
L 623.842423 -144.313322 
L 623.190239 -141.769877 
L 622.47237 -139.226431 
L 621.693754 -136.682985 
L 620.859998 -134.13954 
L 619.977284 -131.596094 
L 619.052257 -129.052649 
L 618.0919 -126.509203 
L 617.103416 -123.965758 
L 616.094097 -121.422312 
L 615.071206 -118.878866 
L 614.041874 -116.335421 
L 613.012998 -113.791975 
L 611.991168 -111.24853 
L 610.982593 -108.705084 
L 609.993058 -106.161639 
L 609.027875 -103.618193 
L 608.091859 -101.074748 
L 607.189304 -98.531302 
L 606.323964 -95.987856 
L 605.499047 -93.444411 
L 604.7172 -90.900965 
L 603.980511 -88.35752 
L 603.290504 -85.814074 
L 602.648149 -83.270629 
L 602.053868 -80.727183 
L 601.507557 -78.183737 
L 601.008607 -75.640292 
L 600.555944 -73.096846 
L 600.148064 -70.553401 
L 599.783088 -68.009955 
L 599.458814 -65.46651 
L 599.172781 -62.923064 
L 598.922328 -60.379618 
L 598.704664 -57.836173 
L 598.516923 -55.292727 
z
" style="stroke: #3f3f3f; stroke-width: 1.25"/>
    </defs>
    <g clip-path="url(#p0b8e510b58)">
     <use xlink:href="#md599b584e0" x="0" y="360" style="fill: #3274a1; stroke: #3f3f3f; stroke-width: 1.25"/>
    </g>
   </g>
   <g id="PolyCollection_8">
    <defs>
     <path id="md10cb855b1" d="M 664.880194 -108.391552 
L 661.312567 -108.391552 
L 660.965314 -109.374094 
L 660.565506 -110.356636 
L 660.108405 -111.339179 
L 659.589479 -112.321721 
L 659.00455 -113.304264 
L 658.349946 -114.286806 
L 657.622676 -115.269349 
L 656.820591 -116.251891 
L 655.94256 -117.234434 
L 654.988625 -118.216976 
L 653.960149 -119.199519 
L 652.85993 -120.182061 
L 651.692298 -121.164604 
L 650.463164 -122.147146 
L 649.180028 -123.129689 
L 647.85194 -124.112231 
L 646.489413 -125.094773 
L 645.104271 -126.077316 
L 643.709463 -127.059858 
L 642.318813 -128.042401 
L 640.946736 -129.024943 
L 639.60792 -130.007486 
L 638.316979 -130.990028 
L 637.088095 -131.972571 
L 635.93466 -132.955113 
L 634.86893 -133.937656 
L 633.901707 -134.920198 
L 633.042055 -135.902741 
L 632.297066 -136.885283 
L 631.67169 -137.867826 
L 631.168618 -138.850368 
L 630.788239 -139.83291 
L 630.528668 -140.815453 
L 630.385835 -141.797995 
L 630.353635 -142.780538 
L 630.424136 -143.76308 
L 630.587831 -144.745623 
L 630.833916 -145.728165 
L 631.150602 -146.710708 
L 631.525427 -147.69325 
L 631.945579 -148.675793 
L 632.3982 -149.658335 
L 632.870677 -150.640878 
L 633.350911 -151.62342 
L 633.827549 -152.605963 
L 634.290199 -153.588505 
L 634.729598 -154.571047 
L 635.137759 -155.55359 
L 635.508083 -156.536132 
L 635.83545 -157.518675 
L 636.116271 -158.501217 
L 636.348534 -159.48376 
L 636.531808 -160.466302 
L 636.667244 -161.448845 
L 636.757536 -162.431387 
L 636.806871 -163.41393 
L 636.820846 -164.396472 
L 636.806361 -165.379015 
L 636.771482 -166.361557 
L 636.725272 -167.344099 
L 636.677591 -168.326642 
L 636.638876 -169.309184 
L 636.61988 -170.291727 
L 636.631398 -171.274269 
L 636.683983 -172.256812 
L 636.787647 -173.239354 
L 636.951566 -174.221897 
L 637.183809 -175.204439 
L 637.491077 -176.186982 
L 637.878491 -177.169524 
L 638.349414 -178.152067 
L 638.905336 -179.134609 
L 639.545804 -180.117152 
L 640.268431 -181.099694 
L 641.068952 -182.082236 
L 641.941354 -183.064779 
L 642.878046 -184.047321 
L 643.870094 -185.029864 
L 644.907484 -186.012406 
L 645.979411 -186.994949 
L 647.074594 -187.977491 
L 648.181582 -188.960034 
L 649.28906 -189.942576 
L 650.38613 -190.925119 
L 651.462567 -191.907661 
L 652.509035 -192.890204 
L 653.51726 -193.872746 
L 654.480162 -194.855289 
L 655.391931 -195.837831 
L 656.24807 -196.820373 
L 657.04538 -197.802916 
L 657.781917 -198.785458 
L 658.456916 -199.768001 
L 659.070678 -200.750543 
L 659.62445 -201.733086 
L 660.120284 -202.715628 
L 660.560892 -203.698171 
L 660.949501 -204.680713 
L 661.289713 -205.663256 
L 664.903049 -205.663256 
L 664.903049 -205.663256 
L 665.24326 -204.680713 
L 665.631869 -203.698171 
L 666.072477 -202.715628 
L 666.568311 -201.733086 
L 667.122083 -200.750543 
L 667.735845 -199.768001 
L 668.410844 -198.785458 
L 669.147382 -197.802916 
L 669.944692 -196.820373 
L 670.80083 -195.837831 
L 671.7126 -194.855289 
L 672.675501 -193.872746 
L 673.683726 -192.890204 
L 674.730194 -191.907661 
L 675.806631 -190.925119 
L 676.903701 -189.942576 
L 678.011179 -188.960034 
L 679.118167 -187.977491 
L 680.21335 -186.994949 
L 681.285278 -186.012406 
L 682.322667 -185.029864 
L 683.314716 -184.047321 
L 684.251408 -183.064779 
L 685.123809 -182.082236 
L 685.924331 -181.099694 
L 686.646958 -180.117152 
L 687.287426 -179.134609 
L 687.843347 -178.152067 
L 688.314271 -177.169524 
L 688.701685 -176.186982 
L 689.008953 -175.204439 
L 689.241195 -174.221897 
L 689.405115 -173.239354 
L 689.508778 -172.256812 
L 689.561363 -171.274269 
L 689.572882 -170.291727 
L 689.553885 -169.309184 
L 689.51517 -168.326642 
L 689.46749 -167.344099 
L 689.421279 -166.361557 
L 689.3864 -165.379015 
L 689.371915 -164.396472 
L 689.385891 -163.41393 
L 689.435226 -162.431387 
L 689.525518 -161.448845 
L 689.660953 -160.466302 
L 689.844228 -159.48376 
L 690.07649 -158.501217 
L 690.357312 -157.518675 
L 690.684678 -156.536132 
L 691.055003 -155.55359 
L 691.463163 -154.571047 
L 691.902562 -153.588505 
L 692.365212 -152.605963 
L 692.841851 -151.62342 
L 693.322084 -150.640878 
L 693.794562 -149.658335 
L 694.247183 -148.675793 
L 694.667335 -147.69325 
L 695.04216 -146.710708 
L 695.358845 -145.728165 
L 695.60493 -144.745623 
L 695.768625 -143.76308 
L 695.839127 -142.780538 
L 695.806927 -141.797995 
L 695.664093 -140.815453 
L 695.404523 -139.83291 
L 695.024144 -138.850368 
L 694.521071 -137.867826 
L 693.895695 -136.885283 
L 693.150707 -135.902741 
L 692.291054 -134.920198 
L 691.323831 -133.937656 
L 690.258101 -132.955113 
L 689.104666 -131.972571 
L 687.875782 -130.990028 
L 686.584841 -130.007486 
L 685.246026 -129.024943 
L 683.873949 -128.042401 
L 682.483298 -127.059858 
L 681.08849 -126.077316 
L 679.703349 -125.094773 
L 678.340821 -124.112231 
L 677.012734 -123.129689 
L 675.729598 -122.147146 
L 674.500463 -121.164604 
L 673.332832 -120.182061 
L 672.232613 -119.199519 
L 671.204136 -118.216976 
L 670.250202 -117.234434 
L 669.372171 -116.251891 
L 668.570086 -115.269349 
L 667.842815 -114.286806 
L 667.188212 -113.304264 
L 666.603282 -112.321721 
L 666.084357 -111.339179 
L 665.627256 -110.356636 
L 665.227448 -109.374094 
L 664.880194 -108.391552 
z
" style="stroke: #3f3f3f; stroke-width: 1.25"/>
    </defs>
    <g clip-path="url(#p0b8e510b58)">
     <use xlink:href="#md10cb855b1" x="0" y="360" style="fill: #e1812c; stroke: #3f3f3f; stroke-width: 1.25"/>
    </g>
   </g>
   <g id="patch_6">
    <path d="M 466.639904 287.829468 
L 466.639904 287.829468 
L 466.639904 287.829468 
L 466.639904 287.829468 
z
" clip-path="url(#p0b8e510b58)" style="fill: #3274a1; stroke: #3f3f3f; stroke-width: 1.25; stroke-linejoin: miter"/>
   </g>
   <g id="patch_7">
    <path d="M 466.639904 287.829468 
L 466.639904 287.829468 
L 466.639904 287.829468 
L 466.639904 287.829468 
z
" clip-path="url(#p0b8e510b58)" style="fill: #e1812c; stroke: #3f3f3f; stroke-width: 1.25; stroke-linejoin: miter"/>
   </g>
   <g id="line2d_29">
    <path d="M 433.897158 206.32348 
L 433.897158 104.190402 
" clip-path="url(#p0b8e510b58)" style="fill: none; stroke: #3f3f3f; stroke-width: 1.875; stroke-linecap: round"/>
   </g>
   <g id="line2d_30">
    <path d="M 433.897158 190.140934 
L 433.897158 132.720486 
" clip-path="url(#p0b8e510b58)" style="fill: none; stroke: #3f3f3f; stroke-width: 5.625; stroke-linecap: round"/>
   </g>
   <g id="line2d_31">
    <path d="M 433.897158 149.155818 
" clip-path="url(#p0b8e510b58)" style="fill: none; stroke: #3f3f3f; stroke-width: 1.5; stroke-linecap: round"/>
    <g clip-path="url(#p0b8e510b58)">
     <use xlink:href="#m92cdb75670" x="433.897158" y="149.155818" style="fill: #ffffff; stroke: #ffffff; stroke-width: 1.125"/>
    </g>
   </g>
   <g id="line2d_32">
    <path d="M 499.38265 221.57292 
L 499.38265 160.59675 
" clip-path="url(#p0b8e510b58)" style="fill: none; stroke: #3f3f3f; stroke-width: 1.875; stroke-linecap: round"/>
   </g>
   <g id="line2d_33">
    <path d="M 499.38265 208.542205 
L 499.38265 183.960603 
" clip-path="url(#p0b8e510b58)" style="fill: none; stroke: #3f3f3f; stroke-width: 5.625; stroke-linecap: round"/>
   </g>
   <g id="line2d_34">
    <path d="M 499.38265 203.245694 
" clip-path="url(#p0b8e510b58)" style="fill: none; stroke: #3f3f3f; stroke-width: 1.5; stroke-linecap: round"/>
    <g clip-path="url(#p0b8e510b58)">
     <use xlink:href="#m92cdb75670" x="499.38265" y="203.245694" style="fill: #ffffff; stroke: #ffffff; stroke-width: 1.125"/>
    </g>
   </g>
   <g id="line2d_35">
    <path d="M 597.610888 247.980768 
L 597.610888 109.632667 
" clip-path="url(#p0b8e510b58)" style="fill: none; stroke: #3f3f3f; stroke-width: 1.875; stroke-linecap: round"/>
   </g>
   <g id="line2d_36">
    <path d="M 597.610888 208.484647 
L 597.610888 166.578751 
" clip-path="url(#p0b8e510b58)" style="fill: none; stroke: #3f3f3f; stroke-width: 5.625; stroke-linecap: round"/>
   </g>
   <g id="line2d_37">
    <path d="M 597.610888 184.873487 
" clip-path="url(#p0b8e510b58)" style="fill: none; stroke: #3f3f3f; stroke-width: 1.5; stroke-linecap: round"/>
    <g clip-path="url(#p0b8e510b58)">
     <use xlink:href="#m92cdb75670" x="597.610888" y="184.873487" style="fill: #ffffff; stroke: #ffffff; stroke-width: 1.125"/>
    </g>
   </g>
   <g id="line2d_38">
    <path d="M 663.096381 227.261566 
L 663.096381 178.683626 
" clip-path="url(#p0b8e510b58)" style="fill: none; stroke: #3f3f3f; stroke-width: 1.875; stroke-linecap: round"/>
   </g>
   <g id="line2d_39">
    <path d="M 663.096381 219.314258 
L 663.096381 185.045629 
" clip-path="url(#p0b8e510b58)" style="fill: none; stroke: #3f3f3f; stroke-width: 5.625; stroke-linecap: round"/>
   </g>
   <g id="line2d_40">
    <path d="M 663.096381 206.239609 
" clip-path="url(#p0b8e510b58)" style="fill: none; stroke: #3f3f3f; stroke-width: 1.5; stroke-linecap: round"/>
    <g clip-path="url(#p0b8e510b58)">
     <use xlink:href="#m92cdb75670" x="663.096381" y="206.239609" style="fill: #ffffff; stroke: #ffffff; stroke-width: 1.125"/>
    </g>
   </g>
   <g id="patch_8">
    <path d="M 384.783038 318.04 
L 384.783038 24.72 
" style="fill: none; stroke: #cccccc; stroke-width: 0.8; stroke-linejoin: miter; stroke-linecap: square"/>
   </g>
   <g id="patch_9">
    <path d="M 384.783038 318.04 
L 712.2105 318.04 
" style="fill: none; stroke: #cccccc; stroke-width: 0.8; stroke-linejoin: miter; stroke-linecap: square"/>
   </g>
   <g id="text_17">
    <!-- sex = m -->
    <g style="fill: #262626" transform="translate(530.853019 18.72) scale(0.1 -0.1)">
     <use xlink:href="#ArialMT-73"/>
     <use xlink:href="#ArialMT-65" x="50"/>
     <use xlink:href="#ArialMT-78" x="105.615234"/>
     <use xlink:href="#ArialMT-20" x="155.615234"/>
     <use xlink:href="#ArialMT-3d" x="183.398438"/>
     <use xlink:href="#ArialMT-20" x="241.796875"/>
     <use xlink:href="#ArialMT-6d" x="269.580078"/>
    </g>
   </g>
  </g>
  <g id="legend_1">
   <g id="text_18">
    <!-- Time -->
    <g style="fill: #262626" transform="translate(733.633594 168.439844) scale(0.1 -0.1)">
     <defs>
      <path id="ArialMT-54" d="M 1659 0 
L 1659 4041 
L 150 4041 
L 150 4581 
L 3781 4581 
L 3781 4041 
L 2266 4041 
L 2266 0 
L 1659 0 
z
" transform="scale(0.015625)"/>
     </defs>
     <use xlink:href="#ArialMT-54"/>
     <use xlink:href="#ArialMT-69" x="57.333984"/>
     <use xlink:href="#ArialMT-6d" x="79.550781"/>
     <use xlink:href="#ArialMT-65" x="162.851562"/>
    </g>
   </g>
   <g id="patch_10">
    <path d="M 719.1625 182.585156 
L 739.1625 182.585156 
L 739.1625 175.585156 
L 719.1625 175.585156 
z
" style="fill: #3274a1; stroke: #3f3f3f; stroke-width: 1.25; stroke-linejoin: miter"/>
   </g>
   <g id="text_19">
    <!-- initial -->
    <g style="fill: #262626" transform="translate(747.1625 182.585156) scale(0.1 -0.1)">
     <use xlink:href="#ArialMT-69"/>
     <use xlink:href="#ArialMT-6e" x="22.216797"/>
     <use xlink:href="#ArialMT-69" x="77.832031"/>
     <use xlink:href="#ArialMT-74" x="100.048828"/>
     <use xlink:href="#ArialMT-69" x="127.832031"/>
     <use xlink:href="#ArialMT-61" x="150.048828"/>
     <use xlink:href="#ArialMT-6c" x="205.664062"/>
    </g>
   </g>
   <g id="patch_11">
    <path d="M 719.1625 196.730469 
L 739.1625 196.730469 
L 739.1625 189.730469 
L 719.1625 189.730469 
z
" style="fill: #e1812c; stroke: #3f3f3f; stroke-width: 1.25; stroke-linejoin: miter"/>
   </g>
   <g id="text_20">
    <!-- final -->
    <g style="fill: #262626" transform="translate(747.1625 196.730469) scale(0.1 -0.1)">
     <use xlink:href="#ArialMT-66"/>
     <use xlink:href="#ArialMT-69" x="27.783203"/>
     <use xlink:href="#ArialMT-6e" x="50"/>
     <use xlink:href="#ArialMT-61" x="105.615234"/>
     <use xlink:href="#ArialMT-6c" x="161.230469"/>
    </g>
   </g>
  </g>
 </g>
 <defs>
  <clipPath id="p85209d4733">
   <rect x="46.5639" y="24.72" width="327.427462" height="293.32"/>
  </clipPath>
  <clipPath id="p0b8e510b58">
   <rect x="384.783038" y="24.72" width="327.427462" height="293.32"/>
  </clipPath>
 </defs>
</svg>
