<?xml version="1.0" encoding="utf-8" standalone="no"?>
<!DOCTYPE svg PUBLIC "-//W3C//DTD SVG 1.1//EN"
  "http://www.w3.org/Graphics/SVG/1.1/DTD/svg11.dtd">
<svg xmlns:xlink="http://www.w3.org/1999/xlink" width="576pt" height="432pt" viewBox="0 0 576 432" xmlns="http://www.w3.org/2000/svg" version="1.1">
 <metadata>
  <rdf:RDF xmlns:dc="http://purl.org/dc/elements/1.1/" xmlns:cc="http://creativecommons.org/ns#" xmlns:rdf="http://www.w3.org/1999/02/22-rdf-syntax-ns#">
   <cc:Work>
    <dc:type rdf:resource="http://purl.org/dc/dcmitype/StillImage"/>
    <dc:date>2024-09-09T17:20:23.939829</dc:date>
    <dc:format>image/svg+xml</dc:format>
    <dc:creator>
     <cc:Agent>
      <dc:title>Matplotlib v3.8.3, https://matplotlib.org/</dc:title>
     </cc:Agent>
    </dc:creator>
   </cc:Work>
  </rdf:RDF>
 </metadata>
 <defs>
  <style type="text/css">*{stroke-linejoin: round; stroke-linecap: butt}</style>
 </defs>
 <g id="figure_1">
  <g id="patch_1">
   <path d="M 0 432 
L 576 432 
L 576 0 
L 0 0 
z
" style="fill: #ffffff"/>
  </g>
  <g id="axes_1">
   <g id="patch_2">
    <path d="M 72 384.48 
L 518.4 384.48 
L 518.4 51.84 
L 72 51.84 
z
" style="fill: #ffffff"/>
   </g>
   <g id="matplotlib.axis_1">
    <g id="xtick_1">
     <g id="text_1">
      <!-- 1 -->
      <g style="fill: #262626" transform="translate(143.619531 398.637812) scale(0.1 -0.1)">
       <defs>
        <path id="ArialMT-31" d="M 2384 0 
L 1822 0 
L 1822 3584 
Q 1619 3391 1289 3197 
Q 959 3003 697 2906 
L 697 3450 
Q 1169 3672 1522 3987 
Q 1875 4303 2022 4600 
L 2384 4600 
L 2384 0 
z
" transform="scale(0.015625)"/>
       </defs>
       <use xlink:href="#ArialMT-31"/>
      </g>
     </g>
    </g>
    <g id="xtick_2">
     <g id="text_2">
      <!-- 2 -->
      <g style="fill: #262626" transform="translate(292.419531 398.637812) scale(0.1 -0.1)">
       <defs>
        <path id="ArialMT-32" d="M 3222 541 
L 3222 0 
L 194 0 
Q 188 203 259 391 
Q 375 700 629 1000 
Q 884 1300 1366 1694 
Q 2113 2306 2375 2664 
Q 2638 3022 2638 3341 
Q 2638 3675 2398 3904 
Q 2159 4134 1775 4134 
Q 1369 4134 1125 3890 
Q 881 3647 878 3216 
L 300 3275 
Q 359 3922 746 4261 
Q 1134 4600 1788 4600 
Q 2447 4600 2831 4234 
Q 3216 3869 3216 3328 
Q 3216 3053 3103 2787 
Q 2991 2522 2730 2228 
Q 2469 1934 1863 1422 
Q 1356 997 1212 845 
Q 1069 694 975 541 
L 3222 541 
z
" transform="scale(0.015625)"/>
       </defs>
       <use xlink:href="#ArialMT-32"/>
      </g>
     </g>
    </g>
    <g id="xtick_3">
     <g id="text_3">
      <!-- 3 -->
      <g style="fill: #262626" transform="translate(441.219531 398.637812) scale(0.1 -0.1)">
       <defs>
        <path id="ArialMT-33" d="M 269 1209 
L 831 1284 
Q 928 806 1161 595 
Q 1394 384 1728 384 
Q 2125 384 2398 659 
Q 2672 934 2672 1341 
Q 2672 1728 2419 1979 
Q 2166 2231 1775 2231 
Q 1616 2231 1378 2169 
L 1441 2663 
Q 1497 2656 1531 2656 
Q 1891 2656 2178 2843 
Q 2466 3031 2466 3422 
Q 2466 3731 2256 3934 
Q 2047 4138 1716 4138 
Q 1388 4138 1169 3931 
Q 950 3725 888 3313 
L 325 3413 
Q 428 3978 793 4289 
Q 1159 4600 1703 4600 
Q 2078 4600 2393 4439 
Q 2709 4278 2876 4000 
Q 3044 3722 3044 3409 
Q 3044 3113 2884 2869 
Q 2725 2625 2413 2481 
Q 2819 2388 3044 2092 
Q 3269 1797 3269 1353 
Q 3269 753 2831 336 
Q 2394 -81 1725 -81 
Q 1122 -81 723 278 
Q 325 638 269 1209 
z
" transform="scale(0.015625)"/>
       </defs>
       <use xlink:href="#ArialMT-33"/>
      </g>
     </g>
    </g>
    <g id="text_4">
     <!-- Effort level -->
     <g style="fill: #262626" transform="translate(271.667969 411.783125) scale(0.1 -0.1)">
      <defs>
       <path id="ArialMT-45" d="M 506 0 
L 506 4581 
L 3819 4581 
L 3819 4041 
L 1113 4041 
L 1113 2638 
L 3647 2638 
L 3647 2100 
L 1113 2100 
L 1113 541 
L 3925 541 
L 3925 0 
L 506 0 
z
" transform="scale(0.015625)"/>
       <path id="ArialMT-66" d="M 556 0 
L 556 2881 
L 59 2881 
L 59 3319 
L 556 3319 
L 556 3672 
Q 556 4006 616 4169 
Q 697 4388 901 4523 
Q 1106 4659 1475 4659 
Q 1713 4659 2000 4603 
L 1916 4113 
Q 1741 4144 1584 4144 
Q 1328 4144 1222 4034 
Q 1116 3925 1116 3625 
L 1116 3319 
L 1763 3319 
L 1763 2881 
L 1116 2881 
L 1116 0 
L 556 0 
z
" transform="scale(0.015625)"/>
       <path id="ArialMT-6f" d="M 213 1659 
Q 213 2581 725 3025 
Q 1153 3394 1769 3394 
Q 2453 3394 2887 2945 
Q 3322 2497 3322 1706 
Q 3322 1066 3130 698 
Q 2938 331 2570 128 
Q 2203 -75 1769 -75 
Q 1072 -75 642 372 
Q 213 819 213 1659 
z
M 791 1659 
Q 791 1022 1069 705 
Q 1347 388 1769 388 
Q 2188 388 2466 706 
Q 2744 1025 2744 1678 
Q 2744 2294 2464 2611 
Q 2184 2928 1769 2928 
Q 1347 2928 1069 2612 
Q 791 2297 791 1659 
z
" transform="scale(0.015625)"/>
       <path id="ArialMT-72" d="M 416 0 
L 416 3319 
L 922 3319 
L 922 2816 
Q 1116 3169 1280 3281 
Q 1444 3394 1641 3394 
Q 1925 3394 2219 3213 
L 2025 2691 
Q 1819 2813 1613 2813 
Q 1428 2813 1281 2702 
Q 1134 2591 1072 2394 
Q 978 2094 978 1738 
L 978 0 
L 416 0 
z
" transform="scale(0.015625)"/>
       <path id="ArialMT-74" d="M 1650 503 
L 1731 6 
Q 1494 -44 1306 -44 
Q 1000 -44 831 53 
Q 663 150 594 308 
Q 525 466 525 972 
L 525 2881 
L 113 2881 
L 113 3319 
L 525 3319 
L 525 4141 
L 1084 4478 
L 1084 3319 
L 1650 3319 
L 1650 2881 
L 1084 2881 
L 1084 941 
Q 1084 700 1114 631 
Q 1144 563 1211 522 
Q 1278 481 1403 481 
Q 1497 481 1650 503 
z
" transform="scale(0.015625)"/>
       <path id="ArialMT-20" transform="scale(0.015625)"/>
       <path id="ArialMT-6c" d="M 409 0 
L 409 4581 
L 972 4581 
L 972 0 
L 409 0 
z
" transform="scale(0.015625)"/>
       <path id="ArialMT-65" d="M 2694 1069 
L 3275 997 
Q 3138 488 2766 206 
Q 2394 -75 1816 -75 
Q 1088 -75 661 373 
Q 234 822 234 1631 
Q 234 2469 665 2931 
Q 1097 3394 1784 3394 
Q 2450 3394 2872 2941 
Q 3294 2488 3294 1666 
Q 3294 1616 3291 1516 
L 816 1516 
Q 847 969 1125 678 
Q 1403 388 1819 388 
Q 2128 388 2347 550 
Q 2566 713 2694 1069 
z
M 847 1978 
L 2700 1978 
Q 2663 2397 2488 2606 
Q 2219 2931 1791 2931 
Q 1403 2931 1139 2672 
Q 875 2413 847 1978 
z
" transform="scale(0.015625)"/>
       <path id="ArialMT-76" d="M 1344 0 
L 81 3319 
L 675 3319 
L 1388 1331 
Q 1503 1009 1600 663 
Q 1675 925 1809 1294 
L 2547 3319 
L 3125 3319 
L 1869 0 
L 1344 0 
z
" transform="scale(0.015625)"/>
      </defs>
      <use xlink:href="#ArialMT-45"/>
      <use xlink:href="#ArialMT-66" x="66.699219"/>
      <use xlink:href="#ArialMT-66" x="92.732422"/>
      <use xlink:href="#ArialMT-6f" x="120.515625"/>
      <use xlink:href="#ArialMT-72" x="176.130859"/>
      <use xlink:href="#ArialMT-74" x="209.431641"/>
      <use xlink:href="#ArialMT-20" x="237.214844"/>
      <use xlink:href="#ArialMT-6c" x="264.998047"/>
      <use xlink:href="#ArialMT-65" x="287.214844"/>
      <use xlink:href="#ArialMT-76" x="342.830078"/>
      <use xlink:href="#ArialMT-65" x="392.830078"/>
      <use xlink:href="#ArialMT-6c" x="448.445312"/>
     </g>
    </g>
   </g>
   <g id="matplotlib.axis_2">
    <g id="ytick_1">
     <g id="line2d_1">
      <path d="M 72 329.944989 
L 518.4 329.944989 
" clip-path="url(#p5fec634b17)" style="fill: none; stroke: #cccccc; stroke-width: 0.8; stroke-linecap: round"/>
     </g>
     <g id="text_5">
      <!-- 0 -->
      <g style="fill: #262626" transform="translate(59.439062 333.523895) scale(0.1 -0.1)">
       <defs>
        <path id="ArialMT-30" d="M 266 2259 
Q 266 3072 433 3567 
Q 600 4063 929 4331 
Q 1259 4600 1759 4600 
Q 2128 4600 2406 4451 
Q 2684 4303 2865 4023 
Q 3047 3744 3150 3342 
Q 3253 2941 3253 2259 
Q 3253 1453 3087 958 
Q 2922 463 2592 192 
Q 2263 -78 1759 -78 
Q 1097 -78 719 397 
Q 266 969 266 2259 
z
M 844 2259 
Q 844 1131 1108 757 
Q 1372 384 1759 384 
Q 2147 384 2411 759 
Q 2675 1134 2675 2259 
Q 2675 3391 2411 3762 
Q 2147 4134 1753 4134 
Q 1366 4134 1134 3806 
Q 844 3388 844 2259 
z
" transform="scale(0.015625)"/>
       </defs>
       <use xlink:href="#ArialMT-30"/>
      </g>
     </g>
    </g>
    <g id="ytick_2">
     <g id="line2d_2">
      <path d="M 72 260.187144 
L 518.4 260.187144 
" clip-path="url(#p5fec634b17)" style="fill: none; stroke: #cccccc; stroke-width: 0.8; stroke-linecap: round"/>
     </g>
     <g id="text_6">
      <!-- 200 -->
      <g style="fill: #262626" transform="translate(48.317188 263.76605) scale(0.1 -0.1)">
       <use xlink:href="#ArialMT-32"/>
       <use xlink:href="#ArialMT-30" x="55.615234"/>
       <use xlink:href="#ArialMT-30" x="111.230469"/>
      </g>
     </g>
    </g>
    <g id="ytick_3">
     <g id="line2d_3">
      <path d="M 72 190.4293 
L 518.4 190.4293 
" clip-path="url(#p5fec634b17)" style="fill: none; stroke: #cccccc; stroke-width: 0.8; stroke-linecap: round"/>
     </g>
     <g id="text_7">
      <!-- 400 -->
      <g style="fill: #262626" transform="translate(48.317188 194.008206) scale(0.1 -0.1)">
       <defs>
        <path id="ArialMT-34" d="M 2069 0 
L 2069 1097 
L 81 1097 
L 81 1613 
L 2172 4581 
L 2631 4581 
L 2631 1613 
L 3250 1613 
L 3250 1097 
L 2631 1097 
L 2631 0 
L 2069 0 
z
M 2069 1613 
L 2069 3678 
L 634 1613 
L 2069 1613 
z
" transform="scale(0.015625)"/>
       </defs>
       <use xlink:href="#ArialMT-34"/>
       <use xlink:href="#ArialMT-30" x="55.615234"/>
       <use xlink:href="#ArialMT-30" x="111.230469"/>
      </g>
     </g>
    </g>
    <g id="ytick_4">
     <g id="line2d_4">
      <path d="M 72 120.671455 
L 518.4 120.671455 
" clip-path="url(#p5fec634b17)" style="fill: none; stroke: #cccccc; stroke-width: 0.8; stroke-linecap: round"/>
     </g>
     <g id="text_8">
      <!-- 600 -->
      <g style="fill: #262626" transform="translate(48.317188 124.250362) scale(0.1 -0.1)">
       <defs>
        <path id="ArialMT-36" d="M 3184 3459 
L 2625 3416 
Q 2550 3747 2413 3897 
Q 2184 4138 1850 4138 
Q 1581 4138 1378 3988 
Q 1113 3794 959 3422 
Q 806 3050 800 2363 
Q 1003 2672 1297 2822 
Q 1591 2972 1913 2972 
Q 2475 2972 2870 2558 
Q 3266 2144 3266 1488 
Q 3266 1056 3080 686 
Q 2894 316 2569 119 
Q 2244 -78 1831 -78 
Q 1128 -78 684 439 
Q 241 956 241 2144 
Q 241 3472 731 4075 
Q 1159 4600 1884 4600 
Q 2425 4600 2770 4297 
Q 3116 3994 3184 3459 
z
M 888 1484 
Q 888 1194 1011 928 
Q 1134 663 1356 523 
Q 1578 384 1822 384 
Q 2178 384 2434 671 
Q 2691 959 2691 1453 
Q 2691 1928 2437 2201 
Q 2184 2475 1800 2475 
Q 1419 2475 1153 2201 
Q 888 1928 888 1484 
z
" transform="scale(0.015625)"/>
       </defs>
       <use xlink:href="#ArialMT-36"/>
       <use xlink:href="#ArialMT-30" x="55.615234"/>
       <use xlink:href="#ArialMT-30" x="111.230469"/>
      </g>
     </g>
    </g>
    <g id="text_9">
     <!-- Carbohydrates energy (kcal/h) -->
     <g style="fill: #262626" transform="translate(42.2125 285.408437) rotate(-90) scale(0.1 -0.1)">
      <defs>
       <path id="ArialMT-43" d="M 3763 1606 
L 4369 1453 
Q 4178 706 3683 314 
Q 3188 -78 2472 -78 
Q 1731 -78 1267 223 
Q 803 525 561 1097 
Q 319 1669 319 2325 
Q 319 3041 592 3573 
Q 866 4106 1370 4382 
Q 1875 4659 2481 4659 
Q 3169 4659 3637 4309 
Q 4106 3959 4291 3325 
L 3694 3184 
Q 3534 3684 3231 3912 
Q 2928 4141 2469 4141 
Q 1941 4141 1586 3887 
Q 1231 3634 1087 3207 
Q 944 2781 944 2328 
Q 944 1744 1114 1308 
Q 1284 872 1643 656 
Q 2003 441 2422 441 
Q 2931 441 3284 734 
Q 3638 1028 3763 1606 
z
" transform="scale(0.015625)"/>
       <path id="ArialMT-61" d="M 2588 409 
Q 2275 144 1986 34 
Q 1697 -75 1366 -75 
Q 819 -75 525 192 
Q 231 459 231 875 
Q 231 1119 342 1320 
Q 453 1522 633 1644 
Q 813 1766 1038 1828 
Q 1203 1872 1538 1913 
Q 2219 1994 2541 2106 
Q 2544 2222 2544 2253 
Q 2544 2597 2384 2738 
Q 2169 2928 1744 2928 
Q 1347 2928 1158 2789 
Q 969 2650 878 2297 
L 328 2372 
Q 403 2725 575 2942 
Q 747 3159 1072 3276 
Q 1397 3394 1825 3394 
Q 2250 3394 2515 3294 
Q 2781 3194 2906 3042 
Q 3031 2891 3081 2659 
Q 3109 2516 3109 2141 
L 3109 1391 
Q 3109 606 3145 398 
Q 3181 191 3288 0 
L 2700 0 
Q 2613 175 2588 409 
z
M 2541 1666 
Q 2234 1541 1622 1453 
Q 1275 1403 1131 1340 
Q 988 1278 909 1158 
Q 831 1038 831 891 
Q 831 666 1001 516 
Q 1172 366 1500 366 
Q 1825 366 2078 508 
Q 2331 650 2450 897 
Q 2541 1088 2541 1459 
L 2541 1666 
z
" transform="scale(0.015625)"/>
       <path id="ArialMT-62" d="M 941 0 
L 419 0 
L 419 4581 
L 981 4581 
L 981 2947 
Q 1338 3394 1891 3394 
Q 2197 3394 2470 3270 
Q 2744 3147 2920 2923 
Q 3097 2700 3197 2384 
Q 3297 2069 3297 1709 
Q 3297 856 2875 390 
Q 2453 -75 1863 -75 
Q 1275 -75 941 416 
L 941 0 
z
M 934 1684 
Q 934 1088 1097 822 
Q 1363 388 1816 388 
Q 2184 388 2453 708 
Q 2722 1028 2722 1663 
Q 2722 2313 2464 2622 
Q 2206 2931 1841 2931 
Q 1472 2931 1203 2611 
Q 934 2291 934 1684 
z
" transform="scale(0.015625)"/>
       <path id="ArialMT-68" d="M 422 0 
L 422 4581 
L 984 4581 
L 984 2938 
Q 1378 3394 1978 3394 
Q 2347 3394 2619 3248 
Q 2891 3103 3008 2847 
Q 3125 2591 3125 2103 
L 3125 0 
L 2563 0 
L 2563 2103 
Q 2563 2525 2380 2717 
Q 2197 2909 1863 2909 
Q 1613 2909 1392 2779 
Q 1172 2650 1078 2428 
Q 984 2206 984 1816 
L 984 0 
L 422 0 
z
" transform="scale(0.015625)"/>
       <path id="ArialMT-79" d="M 397 -1278 
L 334 -750 
Q 519 -800 656 -800 
Q 844 -800 956 -737 
Q 1069 -675 1141 -563 
Q 1194 -478 1313 -144 
Q 1328 -97 1363 -6 
L 103 3319 
L 709 3319 
L 1400 1397 
Q 1534 1031 1641 628 
Q 1738 1016 1872 1384 
L 2581 3319 
L 3144 3319 
L 1881 -56 
Q 1678 -603 1566 -809 
Q 1416 -1088 1222 -1217 
Q 1028 -1347 759 -1347 
Q 597 -1347 397 -1278 
z
" transform="scale(0.015625)"/>
       <path id="ArialMT-64" d="M 2575 0 
L 2575 419 
Q 2259 -75 1647 -75 
Q 1250 -75 917 144 
Q 584 363 401 755 
Q 219 1147 219 1656 
Q 219 2153 384 2558 
Q 550 2963 881 3178 
Q 1213 3394 1622 3394 
Q 1922 3394 2156 3267 
Q 2391 3141 2538 2938 
L 2538 4581 
L 3097 4581 
L 3097 0 
L 2575 0 
z
M 797 1656 
Q 797 1019 1065 703 
Q 1334 388 1700 388 
Q 2069 388 2326 689 
Q 2584 991 2584 1609 
Q 2584 2291 2321 2609 
Q 2059 2928 1675 2928 
Q 1300 2928 1048 2622 
Q 797 2316 797 1656 
z
" transform="scale(0.015625)"/>
       <path id="ArialMT-73" d="M 197 991 
L 753 1078 
Q 800 744 1014 566 
Q 1228 388 1613 388 
Q 2000 388 2187 545 
Q 2375 703 2375 916 
Q 2375 1106 2209 1216 
Q 2094 1291 1634 1406 
Q 1016 1563 777 1677 
Q 538 1791 414 1992 
Q 291 2194 291 2438 
Q 291 2659 392 2848 
Q 494 3038 669 3163 
Q 800 3259 1026 3326 
Q 1253 3394 1513 3394 
Q 1903 3394 2198 3281 
Q 2494 3169 2634 2976 
Q 2775 2784 2828 2463 
L 2278 2388 
Q 2241 2644 2061 2787 
Q 1881 2931 1553 2931 
Q 1166 2931 1000 2803 
Q 834 2675 834 2503 
Q 834 2394 903 2306 
Q 972 2216 1119 2156 
Q 1203 2125 1616 2013 
Q 2213 1853 2448 1751 
Q 2684 1650 2818 1456 
Q 2953 1263 2953 975 
Q 2953 694 2789 445 
Q 2625 197 2315 61 
Q 2006 -75 1616 -75 
Q 969 -75 630 194 
Q 291 463 197 991 
z
" transform="scale(0.015625)"/>
       <path id="ArialMT-6e" d="M 422 0 
L 422 3319 
L 928 3319 
L 928 2847 
Q 1294 3394 1984 3394 
Q 2284 3394 2536 3286 
Q 2788 3178 2913 3003 
Q 3038 2828 3088 2588 
Q 3119 2431 3119 2041 
L 3119 0 
L 2556 0 
L 2556 2019 
Q 2556 2363 2490 2533 
Q 2425 2703 2258 2804 
Q 2091 2906 1866 2906 
Q 1506 2906 1245 2678 
Q 984 2450 984 1813 
L 984 0 
L 422 0 
z
" transform="scale(0.015625)"/>
       <path id="ArialMT-67" d="M 319 -275 
L 866 -356 
Q 900 -609 1056 -725 
Q 1266 -881 1628 -881 
Q 2019 -881 2231 -725 
Q 2444 -569 2519 -288 
Q 2563 -116 2559 434 
Q 2191 0 1641 0 
Q 956 0 581 494 
Q 206 988 206 1678 
Q 206 2153 378 2554 
Q 550 2956 876 3175 
Q 1203 3394 1644 3394 
Q 2231 3394 2613 2919 
L 2613 3319 
L 3131 3319 
L 3131 450 
Q 3131 -325 2973 -648 
Q 2816 -972 2473 -1159 
Q 2131 -1347 1631 -1347 
Q 1038 -1347 672 -1080 
Q 306 -813 319 -275 
z
M 784 1719 
Q 784 1066 1043 766 
Q 1303 466 1694 466 
Q 2081 466 2343 764 
Q 2606 1063 2606 1700 
Q 2606 2309 2336 2618 
Q 2066 2928 1684 2928 
Q 1309 2928 1046 2623 
Q 784 2319 784 1719 
z
" transform="scale(0.015625)"/>
       <path id="ArialMT-28" d="M 1497 -1347 
Q 1031 -759 709 28 
Q 388 816 388 1659 
Q 388 2403 628 3084 
Q 909 3875 1497 4659 
L 1900 4659 
Q 1522 4009 1400 3731 
Q 1209 3300 1100 2831 
Q 966 2247 966 1656 
Q 966 153 1900 -1347 
L 1497 -1347 
z
" transform="scale(0.015625)"/>
       <path id="ArialMT-6b" d="M 425 0 
L 425 4581 
L 988 4581 
L 988 1969 
L 2319 3319 
L 3047 3319 
L 1778 2088 
L 3175 0 
L 2481 0 
L 1384 1697 
L 988 1316 
L 988 0 
L 425 0 
z
" transform="scale(0.015625)"/>
       <path id="ArialMT-63" d="M 2588 1216 
L 3141 1144 
Q 3050 572 2676 248 
Q 2303 -75 1759 -75 
Q 1078 -75 664 370 
Q 250 816 250 1647 
Q 250 2184 428 2587 
Q 606 2991 970 3192 
Q 1334 3394 1763 3394 
Q 2303 3394 2647 3120 
Q 2991 2847 3088 2344 
L 2541 2259 
Q 2463 2594 2264 2762 
Q 2066 2931 1784 2931 
Q 1359 2931 1093 2626 
Q 828 2322 828 1663 
Q 828 994 1084 691 
Q 1341 388 1753 388 
Q 2084 388 2306 591 
Q 2528 794 2588 1216 
z
" transform="scale(0.015625)"/>
       <path id="ArialMT-2f" d="M 0 -78 
L 1328 4659 
L 1778 4659 
L 453 -78 
L 0 -78 
z
" transform="scale(0.015625)"/>
       <path id="ArialMT-29" d="M 791 -1347 
L 388 -1347 
Q 1322 153 1322 1656 
Q 1322 2244 1188 2822 
Q 1081 3291 891 3722 
Q 769 4003 388 4659 
L 791 4659 
Q 1378 3875 1659 3084 
Q 1900 2403 1900 1659 
Q 1900 816 1576 28 
Q 1253 -759 791 -1347 
z
" transform="scale(0.015625)"/>
      </defs>
      <use xlink:href="#ArialMT-43"/>
      <use xlink:href="#ArialMT-61" x="72.216797"/>
      <use xlink:href="#ArialMT-72" x="127.832031"/>
      <use xlink:href="#ArialMT-62" x="161.132812"/>
      <use xlink:href="#ArialMT-6f" x="216.748047"/>
      <use xlink:href="#ArialMT-68" x="272.363281"/>
      <use xlink:href="#ArialMT-79" x="327.978516"/>
      <use xlink:href="#ArialMT-64" x="377.978516"/>
      <use xlink:href="#ArialMT-72" x="433.59375"/>
      <use xlink:href="#ArialMT-61" x="466.894531"/>
      <use xlink:href="#ArialMT-74" x="522.509766"/>
      <use xlink:href="#ArialMT-65" x="550.292969"/>
      <use xlink:href="#ArialMT-73" x="605.908203"/>
      <use xlink:href="#ArialMT-20" x="655.908203"/>
      <use xlink:href="#ArialMT-65" x="683.691406"/>
      <use xlink:href="#ArialMT-6e" x="739.306641"/>
      <use xlink:href="#ArialMT-65" x="794.921875"/>
      <use xlink:href="#ArialMT-72" x="850.537109"/>
      <use xlink:href="#ArialMT-67" x="883.837891"/>
      <use xlink:href="#ArialMT-79" x="939.453125"/>
      <use xlink:href="#ArialMT-20" x="989.453125"/>
      <use xlink:href="#ArialMT-28" x="1017.236328"/>
      <use xlink:href="#ArialMT-6b" x="1050.537109"/>
      <use xlink:href="#ArialMT-63" x="1100.537109"/>
      <use xlink:href="#ArialMT-61" x="1150.537109"/>
      <use xlink:href="#ArialMT-6c" x="1206.152344"/>
      <use xlink:href="#ArialMT-2f" x="1228.369141"/>
      <use xlink:href="#ArialMT-68" x="1256.152344"/>
      <use xlink:href="#ArialMT-29" x="1311.767578"/>
     </g>
    </g>
   </g>
   <g id="PolyCollection_1">
    <defs>
     <path id="mb298b74521" d="M 116.836241 -80.100201 
L 116.443759 -80.100201 
L 116.372902 -82.978381 
L 116.283452 -85.856561 
L 116.172887 -88.734741 
L 116.038943 -91.61292 
L 115.879704 -94.4911 
L 115.693649 -97.36928 
L 115.479613 -100.24746 
L 115.236689 -103.125639 
L 114.964064 -106.003819 
L 114.660816 -108.881999 
L 114.325718 -111.760179 
L 113.957074 -114.638359 
L 113.552617 -117.516538 
L 113.109492 -120.394718 
L 112.624307 -123.272898 
L 112.093251 -126.151078 
L 111.512254 -129.029258 
L 110.877159 -131.907437 
L 110.183913 -134.785617 
L 109.428781 -137.663797 
L 108.608586 -140.541977 
L 107.721009 -143.420156 
L 106.764955 -146.298336 
L 105.740972 -149.176516 
L 104.651693 -152.054696 
L 103.502254 -154.932876 
L 102.300637 -157.811055 
L 101.057877 -160.689235 
L 99.788125 -163.567415 
L 98.508558 -166.445595 
L 97.239157 -169.323775 
L 96.002388 -172.201954 
L 94.822794 -175.080134 
L 93.726507 -177.958314 
L 92.740619 -180.836494 
L 91.892373 -183.714673 
L 91.208105 -186.592853 
L 90.7119 -189.471033 
L 90.424007 -192.349213 
L 90.359099 -195.227393 
L 90.524565 -198.105572 
L 90.919068 -200.983752 
L 91.531606 -203.861932 
L 92.34131 -206.740112 
L 93.318101 -209.618292 
L 94.424256 -212.496471 
L 95.616794 -215.374651 
L 96.850475 -218.252831 
L 98.081137 -221.131011 
L 99.269032 -224.00919 
L 100.381809 -226.88737 
L 101.396827 -229.76555 
L 102.302556 -232.64373 
L 103.09889 -235.52191 
L 103.796343 -238.400089 
L 104.414179 -241.278269 
L 104.977709 -244.156449 
L 105.515027 -247.034629 
L 106.053583 -249.912809 
L 106.616987 -252.790988 
L 107.222431 -255.669168 
L 107.879004 -258.547348 
L 108.587084 -261.425528 
L 109.338795 -264.303707 
L 110.1194 -267.181887 
L 110.909376 -270.060067 
L 111.68681 -272.938247 
L 112.429804 -275.816427 
L 113.118567 -278.694606 
L 113.736978 -281.572786 
L 114.273546 -284.450966 
L 114.72174 -287.329146 
L 115.079812 -290.207326 
L 115.35024 -293.085505 
L 115.538983 -295.963685 
L 115.654656 -298.841865 
L 115.707767 -301.720045 
L 115.71004 -304.598224 
L 115.673841 -307.476404 
L 115.611679 -310.354584 
L 115.535753 -313.232764 
L 115.45749 -316.110944 
L 115.38709 -318.989123 
L 115.33308 -321.867303 
L 115.30192 -324.745483 
L 115.297721 -327.623663 
L 115.322111 -330.501843 
L 115.374312 -333.380022 
L 115.451402 -336.258202 
L 115.548772 -339.136382 
L 115.660694 -342.014562 
L 115.780959 -344.892741 
L 115.903479 -347.770921 
L 116.022805 -350.649101 
L 116.134501 -353.527281 
L 116.235353 -356.405461 
L 116.323417 -359.28364 
L 116.397924 -362.16182 
L 116.459086 -365.04 
L 116.820914 -365.04 
L 116.820914 -365.04 
L 116.882076 -362.16182 
L 116.956583 -359.28364 
L 117.044647 -356.405461 
L 117.145499 -353.527281 
L 117.257195 -350.649101 
L 117.376521 -347.770921 
L 117.499041 -344.892741 
L 117.619306 -342.014562 
L 117.731228 -339.136382 
L 117.828598 -336.258202 
L 117.905688 -333.380022 
L 117.957889 -330.501843 
L 117.982279 -327.623663 
L 117.97808 -324.745483 
L 117.94692 -321.867303 
L 117.89291 -318.989123 
L 117.82251 -316.110944 
L 117.744247 -313.232764 
L 117.668321 -310.354584 
L 117.606159 -307.476404 
L 117.56996 -304.598224 
L 117.572233 -301.720045 
L 117.625344 -298.841865 
L 117.741017 -295.963685 
L 117.92976 -293.085505 
L 118.200188 -290.207326 
L 118.55826 -287.329146 
L 119.006454 -284.450966 
L 119.543022 -281.572786 
L 120.161433 -278.694606 
L 120.850196 -275.816427 
L 121.59319 -272.938247 
L 122.370624 -270.060067 
L 123.1606 -267.181887 
L 123.941205 -264.303707 
L 124.692916 -261.425528 
L 125.400996 -258.547348 
L 126.057569 -255.669168 
L 126.663013 -252.790988 
L 127.226417 -249.912809 
L 127.764973 -247.034629 
L 128.302291 -244.156449 
L 128.865821 -241.278269 
L 129.483657 -238.400089 
L 130.18111 -235.52191 
L 130.977444 -232.64373 
L 131.883173 -229.76555 
L 132.898191 -226.88737 
L 134.010968 -224.00919 
L 135.198863 -221.131011 
L 136.429525 -218.252831 
L 137.663206 -215.374651 
L 138.855744 -212.496471 
L 139.961899 -209.618292 
L 140.93869 -206.740112 
L 141.748394 -203.861932 
L 142.360932 -200.983752 
L 142.755435 -198.105572 
L 142.920901 -195.227393 
L 142.855993 -192.349213 
L 142.5681 -189.471033 
L 142.071895 -186.592853 
L 141.387627 -183.714673 
L 140.539381 -180.836494 
L 139.553493 -177.958314 
L 138.457206 -175.080134 
L 137.277612 -172.201954 
L 136.040843 -169.323775 
L 134.771442 -166.445595 
L 133.491875 -163.567415 
L 132.222123 -160.689235 
L 130.979363 -157.811055 
L 129.777746 -154.932876 
L 128.628307 -152.054696 
L 127.539028 -149.176516 
L 126.515045 -146.298336 
L 125.558991 -143.420156 
L 124.671414 -140.541977 
L 123.851219 -137.663797 
L 123.096087 -134.785617 
L 122.402841 -131.907437 
L 121.767746 -129.029258 
L 121.186749 -126.151078 
L 120.655693 -123.272898 
L 120.170508 -120.394718 
L 119.727383 -117.516538 
L 119.322926 -114.638359 
L 118.954282 -111.760179 
L 118.619184 -108.881999 
L 118.315936 -106.003819 
L 118.043311 -103.125639 
L 117.800387 -100.24746 
L 117.586351 -97.36928 
L 117.400296 -94.4911 
L 117.241057 -91.61292 
L 117.107113 -88.734741 
L 116.996548 -85.856561 
L 116.907098 -82.978381 
L 116.836241 -80.100201 
z
" style="stroke: #3f3f3f; stroke-width: 1.25"/>
    </defs>
    <g clip-path="url(#p5fec634b17)">
     <use xlink:href="#mb298b74521" x="0" y="432" style="fill: #3274a1; stroke: #3f3f3f; stroke-width: 1.25"/>
    </g>
   </g>
   <g id="PolyCollection_2">
    <defs>
     <path id="m32d2b77b47" d="M 176.670308 -74.65471 
L 175.649692 -74.65471 
L 175.494208 -76.762915 
L 175.303085 -78.87112 
L 175.07188 -80.979324 
L 174.796656 -83.087529 
L 174.474321 -85.195734 
L 174.102975 -87.303939 
L 173.682261 -89.412144 
L 173.213667 -91.520349 
L 172.700761 -93.628554 
L 172.149325 -95.736759 
L 171.567357 -97.844964 
L 170.964912 -99.953169 
L 170.353792 -102.061374 
L 169.747063 -104.169579 
L 169.158422 -106.277784 
L 168.601454 -108.385989 
L 168.088799 -110.494194 
L 167.631306 -112.602399 
L 167.237214 -114.710604 
L 166.911443 -116.818809 
L 166.655045 -118.927014 
L 166.464866 -121.035219 
L 166.333476 -123.143424 
L 166.249374 -125.251629 
L 166.197472 -127.359834 
L 166.159836 -129.468039 
L 166.116643 -131.576243 
L 166.047281 -133.684448 
L 165.931524 -135.792653 
L 165.750684 -137.900858 
L 165.488678 -140.009063 
L 165.132914 -142.117268 
L 164.674965 -144.225473 
L 164.110976 -146.333678 
L 163.441809 -148.441883 
L 162.672927 -150.550088 
L 161.814057 -152.658293 
L 160.87867 -154.766498 
L 159.883324 -156.874703 
L 158.846939 -158.982908 
L 157.79003 -161.091113 
L 156.733949 -163.199318 
L 155.700163 -165.307523 
L 154.709581 -167.415728 
L 153.781957 -169.523933 
L 152.93536 -171.632138 
L 152.185731 -173.740343 
L 151.546528 -175.848548 
L 151.028463 -177.956753 
L 150.639345 -180.064958 
L 150.38403 -182.173162 
L 150.264482 -184.281367 
L 150.279944 -186.389572 
L 150.427196 -188.497777 
L 150.700903 -190.605982 
L 151.093992 -192.714187 
L 151.598062 -194.822392 
L 152.203762 -196.930597 
L 152.901126 -199.038802 
L 153.679833 -201.147007 
L 154.529379 -203.255212 
L 155.439166 -205.363417 
L 156.398515 -207.471622 
L 157.396639 -209.579827 
L 158.4226 -211.688032 
L 159.465287 -213.796237 
L 160.513455 -215.904442 
L 161.555846 -218.012647 
L 162.581395 -220.120852 
L 163.579534 -222.229057 
L 164.540554 -224.337262 
L 165.456003 -226.445467 
L 166.319066 -228.553672 
L 167.124884 -230.661876 
L 167.870771 -232.770081 
L 168.556284 -234.878286 
L 169.183128 -236.986491 
L 169.754914 -239.094696 
L 170.276759 -241.202901 
L 170.754796 -243.311106 
L 171.195619 -245.419311 
L 171.605736 -247.527516 
L 171.991065 -249.635721 
L 172.356546 -251.743926 
L 172.705873 -253.852131 
L 173.041378 -255.960336 
L 173.364067 -258.068541 
L 173.673778 -260.176746 
L 173.969433 -262.284951 
L 174.249353 -264.393156 
L 174.511589 -266.501361 
L 174.754233 -268.609566 
L 174.975676 -270.717771 
L 175.174804 -272.825976 
L 175.351107 -274.934181 
L 175.504722 -277.042386 
L 175.636397 -279.150591 
L 175.74741 -281.258795 
L 175.839454 -283.367 
L 176.480546 -283.367 
L 176.480546 -283.367 
L 176.57259 -281.258795 
L 176.683603 -279.150591 
L 176.815278 -277.042386 
L 176.968893 -274.934181 
L 177.145196 -272.825976 
L 177.344324 -270.717771 
L 177.565767 -268.609566 
L 177.808411 -266.501361 
L 178.070647 -264.393156 
L 178.350567 -262.284951 
L 178.646222 -260.176746 
L 178.955933 -258.068541 
L 179.278622 -255.960336 
L 179.614127 -253.852131 
L 179.963454 -251.743926 
L 180.328935 -249.635721 
L 180.714264 -247.527516 
L 181.124381 -245.419311 
L 181.565204 -243.311106 
L 182.043241 -241.202901 
L 182.565086 -239.094696 
L 183.136872 -236.986491 
L 183.763716 -234.878286 
L 184.449229 -232.770081 
L 185.195116 -230.661876 
L 186.000934 -228.553672 
L 186.863997 -226.445467 
L 187.779446 -224.337262 
L 188.740466 -222.229057 
L 189.738605 -220.120852 
L 190.764154 -218.012647 
L 191.806545 -215.904442 
L 192.854713 -213.796237 
L 193.8974 -211.688032 
L 194.923361 -209.579827 
L 195.921485 -207.471622 
L 196.880834 -205.363417 
L 197.790621 -203.255212 
L 198.640167 -201.147007 
L 199.418874 -199.038802 
L 200.116238 -196.930597 
L 200.721938 -194.822392 
L 201.226008 -192.714187 
L 201.619097 -190.605982 
L 201.892804 -188.497777 
L 202.040056 -186.389572 
L 202.055518 -184.281367 
L 201.93597 -182.173162 
L 201.680655 -180.064958 
L 201.291537 -177.956753 
L 200.773472 -175.848548 
L 200.134269 -173.740343 
L 199.38464 -171.632138 
L 198.538043 -169.523933 
L 197.610419 -167.415728 
L 196.619837 -165.307523 
L 195.586051 -163.199318 
L 194.52997 -161.091113 
L 193.473061 -158.982908 
L 192.436676 -156.874703 
L 191.44133 -154.766498 
L 190.505943 -152.658293 
L 189.647073 -150.550088 
L 188.878191 -148.441883 
L 188.209024 -146.333678 
L 187.645035 -144.225473 
L 187.187086 -142.117268 
L 186.831322 -140.009063 
L 186.569316 -137.900858 
L 186.388476 -135.792653 
L 186.272719 -133.684448 
L 186.203357 -131.576243 
L 186.160164 -129.468039 
L 186.122528 -127.359834 
L 186.070626 -125.251629 
L 185.986524 -123.143424 
L 185.855134 -121.035219 
L 185.664955 -118.927014 
L 185.408557 -116.818809 
L 185.082786 -114.710604 
L 184.688694 -112.602399 
L 184.231201 -110.494194 
L 183.718546 -108.385989 
L 183.161578 -106.277784 
L 182.572937 -104.169579 
L 181.966208 -102.061374 
L 181.355088 -99.953169 
L 180.752643 -97.844964 
L 180.170675 -95.736759 
L 179.619239 -93.628554 
L 179.106333 -91.520349 
L 178.637739 -89.412144 
L 178.217025 -87.303939 
L 177.845679 -85.195734 
L 177.523344 -83.087529 
L 177.24812 -80.979324 
L 177.016915 -78.87112 
L 176.825792 -76.762915 
L 176.670308 -74.65471 
z
" style="stroke: #3f3f3f; stroke-width: 1.25"/>
    </defs>
    <g clip-path="url(#p5fec634b17)">
     <use xlink:href="#m32d2b77b47" x="0" y="432" style="fill: #e1812c; stroke: #3f3f3f; stroke-width: 1.25"/>
    </g>
   </g>
   <g id="PolyCollection_3">
    <defs>
     <path id="m40167b74dd" d="M 265.660936 -98.137262 
L 265.219064 -98.137262 
L 265.145888 -100.449012 
L 265.055756 -102.760761 
L 264.947056 -105.072511 
L 264.818574 -107.384261 
L 264.669517 -109.69601 
L 264.499457 -112.00776 
L 264.308151 -114.319509 
L 264.095261 -116.631259 
L 263.859988 -118.943009 
L 263.600674 -121.254758 
L 263.314452 -123.566508 
L 262.99702 -125.878257 
L 262.642636 -128.190007 
L 262.244374 -130.501757 
L 261.79469 -132.813506 
L 261.286232 -135.125256 
L 260.71284 -137.437005 
L 260.070567 -139.748755 
L 259.35858 -142.060505 
L 258.57976 -144.372254 
L 257.740875 -146.684004 
L 256.852231 -148.995753 
L 255.926831 -151.307503 
L 254.979097 -153.619253 
L 254.023335 -155.931002 
L 253.072149 -158.242752 
L 252.135024 -160.554501 
L 251.21729 -162.866251 
L 250.319625 -165.178001 
L 249.438163 -167.48975 
L 248.565232 -169.8015 
L 247.690604 -172.113249 
L 246.80315 -174.424999 
L 245.892676 -176.736749 
L 244.951768 -179.048498 
L 243.97742 -181.360248 
L 242.9723 -183.671998 
L 241.9455 -185.983747 
L 240.912704 -188.295497 
L 239.895745 -190.607246 
L 238.921568 -192.918996 
L 238.020695 -195.230746 
L 237.225303 -197.542495 
L 236.567075 -199.854245 
L 236.075013 -202.165994 
L 235.773386 -204.477744 
L 235.68 -206.789494 
L 235.804931 -209.101243 
L 236.149831 -211.412993 
L 236.707854 -213.724742 
L 237.46421 -216.036492 
L 238.397267 -218.348242 
L 239.480099 -220.659991 
L 240.682313 -222.971741 
L 241.971994 -225.28349 
L 243.317574 -227.59524 
L 244.689468 -229.90699 
L 246.061362 -232.218739 
L 247.411079 -234.530489 
L 248.720991 -236.842238 
L 249.978033 -239.153988 
L 251.173372 -241.465738 
L 252.301848 -243.777487 
L 253.361277 -246.089237 
L 254.35172 -248.400986 
L 255.274792 -250.712736 
L 256.133043 -253.024486 
L 256.929464 -255.336235 
L 257.667088 -257.647985 
L 258.348708 -259.959734 
L 258.976705 -262.271484 
L 259.552971 -264.583234 
L 260.078942 -266.894983 
L 260.555738 -269.206733 
L 260.984392 -271.518482 
L 261.366151 -273.830232 
L 261.702801 -276.141982 
L 261.99697 -278.453731 
L 262.252333 -280.765481 
L 262.473682 -283.07723 
L 262.666823 -285.38898 
L 262.838281 -287.70073 
L 262.994872 -290.012479 
L 263.14316 -292.324229 
L 263.288915 -294.635978 
L 263.436633 -296.947728 
L 263.589191 -299.259478 
L 263.747707 -301.571227 
L 263.911596 -303.882977 
L 264.078823 -306.194726 
L 264.246303 -308.506476 
L 264.410374 -310.818226 
L 264.567289 -313.129975 
L 264.713646 -315.441725 
L 264.846717 -317.753475 
L 264.96465 -320.065224 
L 265.066537 -322.376974 
L 265.152364 -324.688723 
L 265.222877 -327.000473 
L 265.657123 -327.000473 
L 265.657123 -327.000473 
L 265.727636 -324.688723 
L 265.813463 -322.376974 
L 265.91535 -320.065224 
L 266.033283 -317.753475 
L 266.166354 -315.441725 
L 266.312711 -313.129975 
L 266.469626 -310.818226 
L 266.633697 -308.506476 
L 266.801177 -306.194726 
L 266.968404 -303.882977 
L 267.132293 -301.571227 
L 267.290809 -299.259478 
L 267.443367 -296.947728 
L 267.591085 -294.635978 
L 267.73684 -292.324229 
L 267.885128 -290.012479 
L 268.041719 -287.70073 
L 268.213177 -285.38898 
L 268.406318 -283.07723 
L 268.627667 -280.765481 
L 268.88303 -278.453731 
L 269.177199 -276.141982 
L 269.513849 -273.830232 
L 269.895608 -271.518482 
L 270.324262 -269.206733 
L 270.801058 -266.894983 
L 271.327029 -264.583234 
L 271.903295 -262.271484 
L 272.531292 -259.959734 
L 273.212912 -257.647985 
L 273.950536 -255.336235 
L 274.746957 -253.024486 
L 275.605208 -250.712736 
L 276.52828 -248.400986 
L 277.518723 -246.089237 
L 278.578152 -243.777487 
L 279.706628 -241.465738 
L 280.901967 -239.153988 
L 282.159009 -236.842238 
L 283.468921 -234.530489 
L 284.818638 -232.218739 
L 286.190532 -229.90699 
L 287.562426 -227.59524 
L 288.908006 -225.28349 
L 290.197687 -222.971741 
L 291.399901 -220.659991 
L 292.482733 -218.348242 
L 293.41579 -216.036492 
L 294.172146 -213.724742 
L 294.730169 -211.412993 
L 295.075069 -209.101243 
L 295.2 -206.789494 
L 295.106614 -204.477744 
L 294.804987 -202.165994 
L 294.312925 -199.854245 
L 293.654697 -197.542495 
L 292.859305 -195.230746 
L 291.958432 -192.918996 
L 290.984255 -190.607246 
L 289.967296 -188.295497 
L 288.9345 -185.983747 
L 287.9077 -183.671998 
L 286.90258 -181.360248 
L 285.928232 -179.048498 
L 284.987324 -176.736749 
L 284.07685 -174.424999 
L 283.189396 -172.113249 
L 282.314768 -169.8015 
L 281.441837 -167.48975 
L 280.560375 -165.178001 
L 279.66271 -162.866251 
L 278.744976 -160.554501 
L 277.807851 -158.242752 
L 276.856665 -155.931002 
L 275.900903 -153.619253 
L 274.953169 -151.307503 
L 274.027769 -148.995753 
L 273.139125 -146.684004 
L 272.30024 -144.372254 
L 271.52142 -142.060505 
L 270.809433 -139.748755 
L 270.16716 -137.437005 
L 269.593768 -135.125256 
L 269.08531 -132.813506 
L 268.635626 -130.501757 
L 268.237364 -128.190007 
L 267.88298 -125.878257 
L 267.565548 -123.566508 
L 267.279326 -121.254758 
L 267.020012 -118.943009 
L 266.784739 -116.631259 
L 266.571849 -114.319509 
L 266.380543 -112.00776 
L 266.210483 -109.69601 
L 266.061426 -107.384261 
L 265.932944 -105.072511 
L 265.824244 -102.760761 
L 265.734112 -100.449012 
L 265.660936 -98.137262 
z
" style="stroke: #3f3f3f; stroke-width: 1.25"/>
    </defs>
    <g clip-path="url(#p5fec634b17)">
     <use xlink:href="#m40167b74dd" x="0" y="432" style="fill: #3274a1; stroke: #3f3f3f; stroke-width: 1.25"/>
    </g>
   </g>
   <g id="PolyCollection_4">
    <defs>
     <path id="m1c9e3be140" d="M 325.16657 -83.07232 
L 324.75343 -83.07232 
L 324.682722 -85.4394 
L 324.595774 -87.806479 
L 324.491619 -90.173559 
L 324.370048 -92.540639 
L 324.231707 -94.907719 
L 324.078073 -97.274799 
L 323.91127 -99.641878 
L 323.733731 -102.008958 
L 323.547702 -104.376038 
L 323.354687 -106.743118 
L 323.154886 -109.110197 
L 322.946757 -111.477277 
L 322.726803 -113.844357 
L 322.489655 -116.211437 
L 322.228492 -118.578516 
L 321.935754 -120.945596 
L 321.604047 -123.312676 
L 321.227099 -125.679756 
L 320.800565 -128.046836 
L 320.322524 -130.413915 
L 319.79354 -132.780995 
L 319.216226 -135.148075 
L 318.594377 -137.515155 
L 317.931792 -139.882234 
L 317.230994 -142.249314 
L 316.492108 -144.616394 
L 315.712112 -146.983474 
L 314.884649 -149.350553 
L 314.000512 -151.717633 
L 313.048788 -154.084713 
L 312.018567 -156.451793 
L 310.901012 -158.818873 
L 309.691531 -161.185952 
L 308.391767 -163.553032 
L 307.011099 -165.920112 
L 305.567427 -168.287192 
L 304.087061 -170.654271 
L 302.60367 -173.021351 
L 301.15636 -175.388431 
L 299.787062 -177.755511 
L 298.537558 -180.122591 
L 297.446476 -182.48967 
L 296.546641 -184.85675 
L 295.863085 -187.22383 
L 295.4119 -189.59091 
L 295.2 -191.957989 
L 295.225691 -194.325069 
L 295.47985 -196.692149 
L 295.94744 -199.059229 
L 296.609102 -201.426308 
L 297.442614 -203.793388 
L 298.424107 -206.160468 
L 299.529019 -208.527548 
L 300.732818 -210.894628 
L 302.011608 -213.261707 
L 303.342659 -215.628787 
L 304.704897 -217.995867 
L 306.079341 -220.362947 
L 307.449404 -222.730026 
L 308.800999 -225.097106 
L 310.122406 -227.464186 
L 311.403908 -229.831266 
L 312.637262 -232.198345 
L 313.815139 -234.565425 
L 314.930666 -236.932505 
L 315.977183 -239.299585 
L 316.948291 -241.666665 
L 317.838179 -244.033744 
L 318.642133 -246.400824 
L 319.357124 -248.767904 
L 319.982297 -251.134984 
L 320.519263 -253.502063 
L 320.972114 -255.869143 
L 321.347168 -258.236223 
L 321.652495 -260.603303 
L 321.897336 -262.970383 
L 322.091516 -265.337462 
L 322.244943 -267.704542 
L 322.367236 -270.071622 
L 322.467488 -272.438702 
L 322.554115 -274.805781 
L 322.63475 -277.172861 
L 322.716113 -279.539941 
L 322.803841 -281.907021 
L 322.902277 -284.2741 
L 323.014258 -286.64118 
L 323.140959 -289.00826 
L 323.28184 -291.37534 
L 323.434756 -293.74242 
L 323.596217 -296.109499 
L 323.761794 -298.476579 
L 323.926612 -300.843659 
L 324.085858 -303.210739 
L 324.235242 -305.577818 
L 324.371351 -307.944898 
L 324.491857 -310.311978 
L 324.595579 -312.679058 
L 324.682409 -315.046137 
L 324.753137 -317.413217 
L 325.166863 -317.413217 
L 325.166863 -317.413217 
L 325.237591 -315.046137 
L 325.324421 -312.679058 
L 325.428143 -310.311978 
L 325.548649 -307.944898 
L 325.684758 -305.577818 
L 325.834142 -303.210739 
L 325.993388 -300.843659 
L 326.158206 -298.476579 
L 326.323783 -296.109499 
L 326.485244 -293.74242 
L 326.63816 -291.37534 
L 326.779041 -289.00826 
L 326.905742 -286.64118 
L 327.017723 -284.2741 
L 327.116159 -281.907021 
L 327.203887 -279.539941 
L 327.28525 -277.172861 
L 327.365885 -274.805781 
L 327.452512 -272.438702 
L 327.552764 -270.071622 
L 327.675057 -267.704542 
L 327.828484 -265.337462 
L 328.022664 -262.970383 
L 328.267505 -260.603303 
L 328.572832 -258.236223 
L 328.947886 -255.869143 
L 329.400737 -253.502063 
L 329.937703 -251.134984 
L 330.562876 -248.767904 
L 331.277867 -246.400824 
L 332.081821 -244.033744 
L 332.971709 -241.666665 
L 333.942817 -239.299585 
L 334.989334 -236.932505 
L 336.104861 -234.565425 
L 337.282738 -232.198345 
L 338.516092 -229.831266 
L 339.797594 -227.464186 
L 341.119001 -225.097106 
L 342.470596 -222.730026 
L 343.840659 -220.362947 
L 345.215103 -217.995867 
L 346.577341 -215.628787 
L 347.908392 -213.261707 
L 349.187182 -210.894628 
L 350.390981 -208.527548 
L 351.495893 -206.160468 
L 352.477386 -203.793388 
L 353.310898 -201.426308 
L 353.97256 -199.059229 
L 354.44015 -196.692149 
L 354.694309 -194.325069 
L 354.72 -191.957989 
L 354.5081 -189.59091 
L 354.056915 -187.22383 
L 353.373359 -184.85675 
L 352.473524 -182.48967 
L 351.382442 -180.122591 
L 350.132938 -177.755511 
L 348.76364 -175.388431 
L 347.31633 -173.021351 
L 345.832939 -170.654271 
L 344.352573 -168.287192 
L 342.908901 -165.920112 
L 341.528233 -163.553032 
L 340.228469 -161.185952 
L 339.018988 -158.818873 
L 337.901433 -156.451793 
L 336.871212 -154.084713 
L 335.919488 -151.717633 
L 335.035351 -149.350553 
L 334.207888 -146.983474 
L 333.427892 -144.616394 
L 332.689006 -142.249314 
L 331.988208 -139.882234 
L 331.325623 -137.515155 
L 330.703774 -135.148075 
L 330.12646 -132.780995 
L 329.597476 -130.413915 
L 329.119435 -128.046836 
L 328.692901 -125.679756 
L 328.315953 -123.312676 
L 327.984246 -120.945596 
L 327.691508 -118.578516 
L 327.430345 -116.211437 
L 327.193197 -113.844357 
L 326.973243 -111.477277 
L 326.765114 -109.110197 
L 326.565313 -106.743118 
L 326.372298 -104.376038 
L 326.186269 -102.008958 
L 326.00873 -99.641878 
L 325.841927 -97.274799 
L 325.688293 -94.907719 
L 325.549952 -92.540639 
L 325.428381 -90.173559 
L 325.324226 -87.806479 
L 325.237278 -85.4394 
L 325.16657 -83.07232 
z
" style="stroke: #3f3f3f; stroke-width: 1.25"/>
    </defs>
    <g clip-path="url(#p5fec634b17)">
     <use xlink:href="#m1c9e3be140" x="0" y="432" style="fill: #e1812c; stroke: #3f3f3f; stroke-width: 1.25"/>
    </g>
   </g>
   <g id="PolyCollection_5">
    <defs>
     <path id="m3a0d55c267" d="M 414.41864 -62.64 
L 414.06136 -62.64 
L 413.998174 -65.688211 
L 413.919969 -68.736422 
L 413.825835 -71.784633 
L 413.715678 -74.832844 
L 413.590393 -77.881055 
L 413.451957 -80.929266 
L 413.303393 -83.977477 
L 413.148604 -87.025688 
L 412.992079 -90.073899 
L 412.838502 -93.12211 
L 412.692307 -96.170321 
L 412.55724 -99.218532 
L 412.435972 -102.266743 
L 412.329803 -105.314954 
L 412.238449 -108.363165 
L 412.159915 -111.411376 
L 412.090412 -114.459587 
L 412.024291 -117.507798 
L 411.953985 -120.556009 
L 411.86998 -123.60422 
L 411.76086 -126.652431 
L 411.613499 -129.700642 
L 411.413478 -132.748853 
L 411.145765 -135.797064 
L 410.795641 -138.845275 
L 410.349818 -141.893486 
L 409.79758 -144.941697 
L 409.131777 -147.989908 
L 408.349482 -151.038119 
L 407.452162 -154.08633 
L 406.4453 -157.134541 
L 405.337542 -160.182752 
L 404.13953 -163.230963 
L 402.862703 -166.279174 
L 401.518372 -169.327385 
L 400.117351 -172.375596 
L 398.670311 -175.423807 
L 397.188873 -178.472018 
L 395.687253 -181.520229 
L 394.184129 -184.56844 
L 392.704252 -187.616651 
L 391.279339 -190.664862 
L 389.947864 -193.713073 
L 388.753531 -196.761284 
L 387.742486 -199.809495 
L 386.959555 -202.857706 
L 386.444026 -205.905917 
L 386.225589 -208.954128 
L 386.321066 -212.002339 
L 386.732427 -215.05055 
L 387.446358 -218.098761 
L 388.435403 -221.146973 
L 389.660433 -224.195184 
L 391.074015 -227.243395 
L 392.624145 -230.291606 
L 394.257865 -233.339817 
L 395.924346 -236.388028 
L 397.577239 -239.436239 
L 399.176224 -242.48445 
L 400.687883 -245.532661 
L 402.086065 -248.580872 
L 403.35195 -251.629083 
L 404.473971 -254.677294 
L 405.447654 -257.725505 
L 406.275353 -260.773716 
L 406.965793 -263.821927 
L 407.533306 -266.870138 
L 407.996679 -269.918349 
L 408.377602 -272.96656 
L 408.698805 -276.014771 
L 408.982071 -279.062982 
L 409.246357 -282.111193 
L 409.506283 -285.159404 
L 409.771219 -288.207615 
L 410.045087 -291.255826 
L 410.326891 -294.304037 
L 410.611872 -297.352248 
L 410.893059 -300.400459 
L 411.162959 -303.44867 
L 411.415088 -306.496881 
L 411.645117 -309.545092 
L 411.851477 -312.593303 
L 412.035396 -315.641514 
L 412.200414 -318.689725 
L 412.351541 -321.737936 
L 412.49425 -324.786147 
L 412.633505 -327.834358 
L 412.772995 -330.882569 
L 412.914681 -333.93078 
L 413.058693 -336.978991 
L 413.203543 -340.027202 
L 413.346569 -343.075413 
L 413.484496 -346.123624 
L 413.614007 -349.171835 
L 413.73223 -352.220046 
L 413.837065 -355.268257 
L 413.927355 -358.316468 
L 414.002889 -361.364679 
L 414.064285 -364.41289 
L 414.415715 -364.41289 
L 414.415715 -364.41289 
L 414.477111 -361.364679 
L 414.552645 -358.316468 
L 414.642935 -355.268257 
L 414.74777 -352.220046 
L 414.865993 -349.171835 
L 414.995504 -346.123624 
L 415.133431 -343.075413 
L 415.276457 -340.027202 
L 415.421307 -336.978991 
L 415.565319 -333.93078 
L 415.707005 -330.882569 
L 415.846495 -327.834358 
L 415.98575 -324.786147 
L 416.128459 -321.737936 
L 416.279586 -318.689725 
L 416.444604 -315.641514 
L 416.628523 -312.593303 
L 416.834883 -309.545092 
L 417.064912 -306.496881 
L 417.317041 -303.44867 
L 417.586941 -300.400459 
L 417.868128 -297.352248 
L 418.153109 -294.304037 
L 418.434913 -291.255826 
L 418.708781 -288.207615 
L 418.973717 -285.159404 
L 419.233643 -282.111193 
L 419.497929 -279.062982 
L 419.781195 -276.014771 
L 420.102398 -272.96656 
L 420.483321 -269.918349 
L 420.946694 -266.870138 
L 421.514207 -263.821927 
L 422.204647 -260.773716 
L 423.032346 -257.725505 
L 424.006029 -254.677294 
L 425.12805 -251.629083 
L 426.393935 -248.580872 
L 427.792117 -245.532661 
L 429.303776 -242.48445 
L 430.902761 -239.436239 
L 432.555654 -236.388028 
L 434.222135 -233.339817 
L 435.855855 -230.291606 
L 437.405985 -227.243395 
L 438.819567 -224.195184 
L 440.044597 -221.146973 
L 441.033642 -218.098761 
L 441.747573 -215.05055 
L 442.158934 -212.002339 
L 442.254411 -208.954128 
L 442.035974 -205.905917 
L 441.520445 -202.857706 
L 440.737514 -199.809495 
L 439.726469 -196.761284 
L 438.532136 -193.713073 
L 437.200661 -190.664862 
L 435.775748 -187.616651 
L 434.295871 -184.56844 
L 432.792747 -181.520229 
L 431.291127 -178.472018 
L 429.809689 -175.423807 
L 428.362649 -172.375596 
L 426.961628 -169.327385 
L 425.617297 -166.279174 
L 424.34047 -163.230963 
L 423.142458 -160.182752 
L 422.0347 -157.134541 
L 421.027838 -154.08633 
L 420.130518 -151.038119 
L 419.348223 -147.989908 
L 418.68242 -144.941697 
L 418.130182 -141.893486 
L 417.684359 -138.845275 
L 417.334235 -135.797064 
L 417.066522 -132.748853 
L 416.866501 -129.700642 
L 416.71914 -126.652431 
L 416.61002 -123.60422 
L 416.526015 -120.556009 
L 416.455709 -117.507798 
L 416.389588 -114.459587 
L 416.320085 -111.411376 
L 416.241551 -108.363165 
L 416.150197 -105.314954 
L 416.044028 -102.266743 
L 415.92276 -99.218532 
L 415.787693 -96.170321 
L 415.641498 -93.12211 
L 415.487921 -90.073899 
L 415.331396 -87.025688 
L 415.176607 -83.977477 
L 415.028043 -80.929266 
L 414.889607 -77.881055 
L 414.764322 -74.832844 
L 414.654165 -71.784633 
L 414.560031 -68.736422 
L 414.481826 -65.688211 
L 414.41864 -62.64 
z
" style="stroke: #3f3f3f; stroke-width: 1.25"/>
    </defs>
    <g clip-path="url(#p5fec634b17)">
     <use xlink:href="#m3a0d55c267" x="0" y="432" style="fill: #3274a1; stroke: #3f3f3f; stroke-width: 1.25"/>
    </g>
   </g>
   <g id="PolyCollection_6">
    <defs>
     <path id="m76d1b64b6b" d="M 473.984635 -98.454439 
L 473.535365 -98.454439 
L 473.46325 -100.528065 
L 473.374562 -102.601691 
L 473.267503 -104.675317 
L 473.140526 -106.748944 
L 472.992364 -108.82257 
L 472.82198 -110.896196 
L 472.628447 -112.969822 
L 472.410718 -115.043448 
L 472.167333 -117.117074 
L 471.896064 -119.190701 
L 471.593554 -121.264327 
L 471.255012 -123.337953 
L 470.874031 -125.411579 
L 470.442571 -127.485205 
L 469.951187 -129.558831 
L 469.389486 -131.632458 
L 468.746826 -133.706084 
L 468.013193 -135.77971 
L 467.180182 -137.853336 
L 466.241983 -139.926962 
L 465.196251 -142.000588 
L 464.04477 -144.074215 
L 462.793827 -146.147841 
L 461.454252 -148.221467 
L 460.041135 -150.295093 
L 458.573251 -152.368719 
L 457.072286 -154.442345 
L 455.561935 -156.515972 
L 454.066996 -158.589598 
L 452.612509 -160.663224 
L 451.223012 -162.73685 
L 449.921909 -164.810476 
L 448.730943 -166.884102 
L 447.669729 -168.957729 
L 446.755303 -171.031355 
L 446.001659 -173.104981 
L 445.419266 -175.178607 
L 445.014607 -177.252233 
L 444.78979 -179.325859 
L 444.742323 -181.399485 
L 444.865122 -183.473112 
L 445.146808 -185.546738 
L 445.572307 -187.620364 
L 446.123712 -189.69399 
L 446.781325 -191.767616 
L 447.524759 -193.841242 
L 448.333982 -195.914869 
L 449.190169 -197.988495 
L 450.076318 -200.062121 
L 450.977575 -202.135747 
L 451.881309 -204.209373 
L 452.777002 -206.282999 
L 453.656035 -208.356626 
L 454.511469 -210.430252 
L 455.33789 -212.503878 
L 456.131348 -214.577504 
L 456.889393 -216.65113 
L 457.611175 -218.724756 
L 458.297535 -220.798383 
L 458.951037 -222.872009 
L 459.575864 -224.945635 
L 460.177568 -227.019261 
L 460.762649 -229.092887 
L 461.338005 -231.166513 
L 461.910298 -233.24014 
L 462.485307 -235.313766 
L 463.067347 -237.387392 
L 463.658805 -239.461018 
L 464.259863 -241.534644 
L 464.868437 -243.60827 
L 465.480323 -245.681897 
L 466.089564 -247.755523 
L 466.688984 -249.829149 
L 467.270844 -251.902775 
L 467.827558 -253.976401 
L 468.352381 -256.050027 
L 468.840026 -258.123654 
L 469.287105 -260.19728 
L 469.692383 -262.270906 
L 470.05679 -264.344532 
L 470.383206 -266.418158 
L 470.676047 -268.491784 
L 470.940708 -270.565411 
L 471.182934 -272.639037 
L 471.408208 -274.712663 
L 471.621223 -276.786289 
L 471.825507 -278.859915 
L 472.023226 -280.933541 
L 472.215182 -283.007167 
L 472.400975 -285.080794 
L 472.579289 -287.15442 
L 472.74826 -289.228046 
L 472.905842 -291.301672 
L 473.050149 -293.375298 
L 473.179712 -295.448924 
L 473.293645 -297.522551 
L 473.391715 -299.596177 
L 473.474317 -301.669803 
L 473.542384 -303.743429 
L 473.977616 -303.743429 
L 473.977616 -303.743429 
L 474.045683 -301.669803 
L 474.128285 -299.596177 
L 474.226355 -297.522551 
L 474.340288 -295.448924 
L 474.469851 -293.375298 
L 474.614158 -291.301672 
L 474.77174 -289.228046 
L 474.940711 -287.15442 
L 475.119025 -285.080794 
L 475.304818 -283.007167 
L 475.496774 -280.933541 
L 475.694493 -278.859915 
L 475.898777 -276.786289 
L 476.111792 -274.712663 
L 476.337066 -272.639037 
L 476.579292 -270.565411 
L 476.843953 -268.491784 
L 477.136794 -266.418158 
L 477.46321 -264.344532 
L 477.827617 -262.270906 
L 478.232895 -260.19728 
L 478.679974 -258.123654 
L 479.167619 -256.050027 
L 479.692442 -253.976401 
L 480.249156 -251.902775 
L 480.831016 -249.829149 
L 481.430436 -247.755523 
L 482.039677 -245.681897 
L 482.651563 -243.60827 
L 483.260137 -241.534644 
L 483.861195 -239.461018 
L 484.452653 -237.387392 
L 485.034693 -235.313766 
L 485.609702 -233.24014 
L 486.181995 -231.166513 
L 486.757351 -229.092887 
L 487.342432 -227.019261 
L 487.944136 -224.945635 
L 488.568963 -222.872009 
L 489.222465 -220.798383 
L 489.908825 -218.724756 
L 490.630607 -216.65113 
L 491.388652 -214.577504 
L 492.18211 -212.503878 
L 493.008531 -210.430252 
L 493.863965 -208.356626 
L 494.742998 -206.282999 
L 495.638691 -204.209373 
L 496.542425 -202.135747 
L 497.443682 -200.062121 
L 498.329831 -197.988495 
L 499.186018 -195.914869 
L 499.995241 -193.841242 
L 500.738675 -191.767616 
L 501.396288 -189.69399 
L 501.947693 -187.620364 
L 502.373192 -185.546738 
L 502.654878 -183.473112 
L 502.777677 -181.399485 
L 502.73021 -179.325859 
L 502.505393 -177.252233 
L 502.100734 -175.178607 
L 501.518341 -173.104981 
L 500.764697 -171.031355 
L 499.850271 -168.957729 
L 498.789057 -166.884102 
L 497.598091 -164.810476 
L 496.296988 -162.73685 
L 494.907491 -160.663224 
L 493.453004 -158.589598 
L 491.958065 -156.515972 
L 490.447714 -154.442345 
L 488.946749 -152.368719 
L 487.478865 -150.295093 
L 486.065748 -148.221467 
L 484.726173 -146.147841 
L 483.47523 -144.074215 
L 482.323749 -142.000588 
L 481.278017 -139.926962 
L 480.339818 -137.853336 
L 479.506807 -135.77971 
L 478.773174 -133.706084 
L 478.130514 -131.632458 
L 477.568813 -129.558831 
L 477.077429 -127.485205 
L 476.645969 -125.411579 
L 476.264988 -123.337953 
L 475.926446 -121.264327 
L 475.623936 -119.190701 
L 475.352667 -117.117074 
L 475.109282 -115.043448 
L 474.891553 -112.969822 
L 474.69802 -110.896196 
L 474.527636 -108.82257 
L 474.379474 -106.748944 
L 474.252497 -104.675317 
L 474.145438 -102.601691 
L 474.05675 -100.528065 
L 473.984635 -98.454439 
z
" style="stroke: #3f3f3f; stroke-width: 1.25"/>
    </defs>
    <g clip-path="url(#p5fec634b17)">
     <use xlink:href="#m76d1b64b6b" x="0" y="432" style="fill: #e1812c; stroke: #3f3f3f; stroke-width: 1.25"/>
    </g>
   </g>
   <g id="patch_3">
    <path d="M 146.4 329.944989 
L 146.4 329.944989 
L 146.4 329.944989 
L 146.4 329.944989 
z
" clip-path="url(#p5fec634b17)" style="fill: #3274a1; stroke: #3f3f3f; stroke-width: 1.25; stroke-linejoin: miter"/>
   </g>
   <g id="patch_4">
    <path d="M 146.4 329.944989 
L 146.4 329.944989 
L 146.4 329.944989 
L 146.4 329.944989 
z
" clip-path="url(#p5fec634b17)" style="fill: #e1812c; stroke: #3f3f3f; stroke-width: 1.25; stroke-linejoin: miter"/>
   </g>
   <g id="line2d_5">
    <path d="M 116.64 313.864203 
L 116.64 170.64375 
" clip-path="url(#p5fec634b17)" style="fill: none; stroke: #3f3f3f; stroke-width: 1.875; stroke-linecap: round"/>
   </g>
   <g id="line2d_6">
    <path d="M 116.64 255.536369 
L 116.64 212.196513 
" clip-path="url(#p5fec634b17)" style="fill: none; stroke: #3f3f3f; stroke-width: 5.625; stroke-linecap: round"/>
   </g>
   <g id="line2d_7">
    <path d="M 116.64 232.79693 
" clip-path="url(#p5fec634b17)" style="fill: none; stroke: #3f3f3f; stroke-width: 1.5; stroke-linecap: round"/>
    <defs>
     <path id="md68b347df5" d="M 2.34375 0 
L -2.34375 -0 
" style="stroke: #ffffff; stroke-width: 1.125"/>
    </defs>
    <g clip-path="url(#p5fec634b17)">
     <use xlink:href="#md68b347df5" x="116.64" y="232.79693" style="fill: #ffffff; stroke: #ffffff; stroke-width: 1.125"/>
    </g>
   </g>
   <g id="line2d_8">
    <path d="M 176.16 323.127164 
L 176.16 182.851126 
" clip-path="url(#p5fec634b17)" style="fill: none; stroke: #3f3f3f; stroke-width: 1.875; stroke-linecap: round"/>
   </g>
   <g id="line2d_9">
    <path d="M 176.16 272.206543 
L 176.16 231.40089 
" clip-path="url(#p5fec634b17)" style="fill: none; stroke: #3f3f3f; stroke-width: 5.625; stroke-linecap: round"/>
   </g>
   <g id="line2d_10">
    <path d="M 176.16 248.939827 
" clip-path="url(#p5fec634b17)" style="fill: none; stroke: #3f3f3f; stroke-width: 1.5; stroke-linecap: round"/>
    <g clip-path="url(#p5fec634b17)">
     <use xlink:href="#md68b347df5" x="176.16" y="248.939827" style="fill: #ffffff; stroke: #ffffff; stroke-width: 1.125"/>
    </g>
   </g>
   <g id="line2d_11">
    <path d="M 265.44 301.860388 
L 265.44 163.580908 
" clip-path="url(#p5fec634b17)" style="fill: none; stroke: #3f3f3f; stroke-width: 1.875; stroke-linecap: round"/>
   </g>
   <g id="line2d_12">
    <path d="M 265.44 248.749216 
L 265.44 210.195116 
" clip-path="url(#p5fec634b17)" style="fill: none; stroke: #3f3f3f; stroke-width: 5.625; stroke-linecap: round"/>
   </g>
   <g id="line2d_13">
    <path d="M 265.44 227.44976 
" clip-path="url(#p5fec634b17)" style="fill: none; stroke: #3f3f3f; stroke-width: 1.5; stroke-linecap: round"/>
    <g clip-path="url(#p5fec634b17)">
     <use xlink:href="#md68b347df5" x="265.44" y="227.44976" style="fill: #ffffff; stroke: #ffffff; stroke-width: 1.125"/>
    </g>
   </g>
   <g id="line2d_14">
    <path d="M 324.96 289.462007 
L 324.96 196.605068 
" clip-path="url(#p5fec634b17)" style="fill: none; stroke: #3f3f3f; stroke-width: 1.875; stroke-linecap: round"/>
   </g>
   <g id="line2d_15">
    <path d="M 324.96 250.403047 
L 324.96 221.619568 
" clip-path="url(#p5fec634b17)" style="fill: none; stroke: #3f3f3f; stroke-width: 5.625; stroke-linecap: round"/>
   </g>
   <g id="line2d_16">
    <path d="M 324.96 242.218356 
" clip-path="url(#p5fec634b17)" style="fill: none; stroke: #3f3f3f; stroke-width: 1.5; stroke-linecap: round"/>
    <g clip-path="url(#p5fec634b17)">
     <use xlink:href="#md68b347df5" x="324.96" y="242.218356" style="fill: #ffffff; stroke: #ffffff; stroke-width: 1.125"/>
    </g>
   </g>
   <g id="line2d_17">
    <path d="M 414.24 265.382441 
L 414.24 148.248292 
" clip-path="url(#p5fec634b17)" style="fill: none; stroke: #3f3f3f; stroke-width: 1.875; stroke-linecap: round"/>
   </g>
   <g id="line2d_18">
    <path d="M 414.24 238.861614 
L 414.24 201.021721 
" clip-path="url(#p5fec634b17)" style="fill: none; stroke: #3f3f3f; stroke-width: 5.625; stroke-linecap: round"/>
   </g>
   <g id="line2d_19">
    <path d="M 414.24 222.097049 
" clip-path="url(#p5fec634b17)" style="fill: none; stroke: #3f3f3f; stroke-width: 1.5; stroke-linecap: round"/>
    <g clip-path="url(#p5fec634b17)">
     <use xlink:href="#md68b347df5" x="414.24" y="222.097049" style="fill: #ffffff; stroke: #ffffff; stroke-width: 1.125"/>
    </g>
   </g>
   <g id="line2d_20">
    <path d="M 473.76 303.674767 
L 473.76 182.350447 
" clip-path="url(#p5fec634b17)" style="fill: none; stroke: #3f3f3f; stroke-width: 1.875; stroke-linecap: round"/>
   </g>
   <g id="line2d_21">
    <path d="M 473.76 262.332171 
L 473.76 222.184434 
" clip-path="url(#p5fec634b17)" style="fill: none; stroke: #3f3f3f; stroke-width: 5.625; stroke-linecap: round"/>
   </g>
   <g id="line2d_22">
    <path d="M 473.76 245.849267 
" clip-path="url(#p5fec634b17)" style="fill: none; stroke: #3f3f3f; stroke-width: 1.5; stroke-linecap: round"/>
    <g clip-path="url(#p5fec634b17)">
     <use xlink:href="#md68b347df5" x="473.76" y="245.849267" style="fill: #ffffff; stroke: #ffffff; stroke-width: 1.125"/>
    </g>
   </g>
   <g id="patch_5">
    <path d="M 72 384.48 
L 72 51.84 
" style="fill: none; stroke: #cccccc; stroke-width: 0.8; stroke-linejoin: miter; stroke-linecap: square"/>
   </g>
   <g id="patch_6">
    <path d="M 518.4 384.48 
L 518.4 51.84 
" style="fill: none; stroke: #cccccc; stroke-width: 0.8; stroke-linejoin: miter; stroke-linecap: square"/>
   </g>
   <g id="patch_7">
    <path d="M 72 384.48 
L 518.4 384.48 
" style="fill: none; stroke: #cccccc; stroke-width: 0.8; stroke-linejoin: miter; stroke-linecap: square"/>
   </g>
   <g id="patch_8">
    <path d="M 72 51.84 
L 518.4 51.84 
" style="fill: none; stroke: #cccccc; stroke-width: 0.8; stroke-linejoin: miter; stroke-linecap: square"/>
   </g>
   <g id="legend_1">
    <g id="patch_9">
     <path d="M 456.6125 379.48 
L 511.4 379.48 
Q 513.4 379.48 513.4 377.48 
L 513.4 336.044062 
Q 513.4 334.044062 511.4 334.044062 
L 456.6125 334.044062 
Q 454.6125 334.044062 454.6125 336.044062 
L 454.6125 377.48 
Q 454.6125 379.48 456.6125 379.48 
z
" style="fill: #ffffff; opacity: 0.8; stroke: #cccccc; stroke-linejoin: miter"/>
    </g>
    <g id="text_10">
     <!-- Time -->
     <g style="fill: #262626" transform="translate(473.083594 345.201875) scale(0.1 -0.1)">
      <defs>
       <path id="ArialMT-54" d="M 1659 0 
L 1659 4041 
L 150 4041 
L 150 4581 
L 3781 4581 
L 3781 4041 
L 2266 4041 
L 2266 0 
L 1659 0 
z
" transform="scale(0.015625)"/>
       <path id="ArialMT-69" d="M 425 3934 
L 425 4581 
L 988 4581 
L 988 3934 
L 425 3934 
z
M 425 0 
L 425 3319 
L 988 3319 
L 988 0 
L 425 0 
z
" transform="scale(0.015625)"/>
       <path id="ArialMT-6d" d="M 422 0 
L 422 3319 
L 925 3319 
L 925 2853 
Q 1081 3097 1340 3245 
Q 1600 3394 1931 3394 
Q 2300 3394 2536 3241 
Q 2772 3088 2869 2813 
Q 3263 3394 3894 3394 
Q 4388 3394 4653 3120 
Q 4919 2847 4919 2278 
L 4919 0 
L 4359 0 
L 4359 2091 
Q 4359 2428 4304 2576 
Q 4250 2725 4106 2815 
Q 3963 2906 3769 2906 
Q 3419 2906 3187 2673 
Q 2956 2441 2956 1928 
L 2956 0 
L 2394 0 
L 2394 2156 
Q 2394 2531 2256 2718 
Q 2119 2906 1806 2906 
Q 1569 2906 1367 2781 
Q 1166 2656 1075 2415 
Q 984 2175 984 1722 
L 984 0 
L 422 0 
z
" transform="scale(0.015625)"/>
      </defs>
      <use xlink:href="#ArialMT-54"/>
      <use xlink:href="#ArialMT-69" x="57.333984"/>
      <use xlink:href="#ArialMT-6d" x="79.550781"/>
      <use xlink:href="#ArialMT-65" x="162.851562"/>
     </g>
    </g>
    <g id="patch_10">
     <path d="M 458.6125 359.347188 
L 478.6125 359.347188 
L 478.6125 352.347188 
L 458.6125 352.347188 
z
" style="fill: #3274a1; stroke: #3f3f3f; stroke-width: 1.25; stroke-linejoin: miter"/>
    </g>
    <g id="text_11">
     <!-- initial -->
     <g style="fill: #262626" transform="translate(486.6125 359.347188) scale(0.1 -0.1)">
      <use xlink:href="#ArialMT-69"/>
      <use xlink:href="#ArialMT-6e" x="22.216797"/>
      <use xlink:href="#ArialMT-69" x="77.832031"/>
      <use xlink:href="#ArialMT-74" x="100.048828"/>
      <use xlink:href="#ArialMT-69" x="127.832031"/>
      <use xlink:href="#ArialMT-61" x="150.048828"/>
      <use xlink:href="#ArialMT-6c" x="205.664062"/>
     </g>
    </g>
    <g id="patch_11">
     <path d="M 458.6125 373.4925 
L 478.6125 373.4925 
L 478.6125 366.4925 
L 458.6125 366.4925 
z
" style="fill: #e1812c; stroke: #3f3f3f; stroke-width: 1.25; stroke-linejoin: miter"/>
    </g>
    <g id="text_12">
     <!-- final -->
     <g style="fill: #262626" transform="translate(486.6125 373.4925) scale(0.1 -0.1)">
      <use xlink:href="#ArialMT-66"/>
      <use xlink:href="#ArialMT-69" x="27.783203"/>
      <use xlink:href="#ArialMT-6e" x="50"/>
      <use xlink:href="#ArialMT-61" x="105.615234"/>
      <use xlink:href="#ArialMT-6c" x="161.230469"/>
     </g>
    </g>
   </g>
  </g>
 </g>
 <defs>
  <clipPath id="p5fec634b17">
   <rect x="72" y="51.84" width="446.4" height="332.64"/>
  </clipPath>
 </defs>
</svg>
