<?xml version="1.0" encoding="utf-8" standalone="no"?>
<!DOCTYPE svg PUBLIC "-//W3C//DTD SVG 1.1//EN"
  "http://www.w3.org/Graphics/SVG/1.1/DTD/svg11.dtd">
<svg xmlns:xlink="http://www.w3.org/1999/xlink" width="576pt" height="432pt" viewBox="0 0 576 432" xmlns="http://www.w3.org/2000/svg" version="1.1">
 <metadata>
  <rdf:RDF xmlns:dc="http://purl.org/dc/elements/1.1/" xmlns:cc="http://creativecommons.org/ns#" xmlns:rdf="http://www.w3.org/1999/02/22-rdf-syntax-ns#">
   <cc:Work>
    <dc:type rdf:resource="http://purl.org/dc/dcmitype/StillImage"/>
    <dc:date>2024-09-09T17:20:23.546035</dc:date>
    <dc:format>image/svg+xml</dc:format>
    <dc:creator>
     <cc:Agent>
      <dc:title>Matplotlib v3.8.3, https://matplotlib.org/</dc:title>
     </cc:Agent>
    </dc:creator>
   </cc:Work>
  </rdf:RDF>
 </metadata>
 <defs>
  <style type="text/css">*{stroke-linejoin: round; stroke-linecap: butt}</style>
 </defs>
 <g id="figure_1">
  <g id="patch_1">
   <path d="M 0 432 
L 576 432 
L 576 0 
L 0 0 
z
" style="fill: #ffffff"/>
  </g>
  <g id="axes_1">
   <g id="patch_2">
    <path d="M 72 384.48 
L 518.4 384.48 
L 518.4 51.84 
L 72 51.84 
z
" style="fill: #ffffff"/>
   </g>
   <g id="matplotlib.axis_1">
    <g id="xtick_1">
     <g id="text_1">
      <!-- 1 -->
      <g style="fill: #262626" transform="translate(143.619531 398.637812) scale(0.1 -0.1)">
       <defs>
        <path id="ArialMT-31" d="M 2384 0 
L 1822 0 
L 1822 3584 
Q 1619 3391 1289 3197 
Q 959 3003 697 2906 
L 697 3450 
Q 1169 3672 1522 3987 
Q 1875 4303 2022 4600 
L 2384 4600 
L 2384 0 
z
" transform="scale(0.015625)"/>
       </defs>
       <use xlink:href="#ArialMT-31"/>
      </g>
     </g>
    </g>
    <g id="xtick_2">
     <g id="text_2">
      <!-- 2 -->
      <g style="fill: #262626" transform="translate(292.419531 398.637812) scale(0.1 -0.1)">
       <defs>
        <path id="ArialMT-32" d="M 3222 541 
L 3222 0 
L 194 0 
Q 188 203 259 391 
Q 375 700 629 1000 
Q 884 1300 1366 1694 
Q 2113 2306 2375 2664 
Q 2638 3022 2638 3341 
Q 2638 3675 2398 3904 
Q 2159 4134 1775 4134 
Q 1369 4134 1125 3890 
Q 881 3647 878 3216 
L 300 3275 
Q 359 3922 746 4261 
Q 1134 4600 1788 4600 
Q 2447 4600 2831 4234 
Q 3216 3869 3216 3328 
Q 3216 3053 3103 2787 
Q 2991 2522 2730 2228 
Q 2469 1934 1863 1422 
Q 1356 997 1212 845 
Q 1069 694 975 541 
L 3222 541 
z
" transform="scale(0.015625)"/>
       </defs>
       <use xlink:href="#ArialMT-32"/>
      </g>
     </g>
    </g>
    <g id="xtick_3">
     <g id="text_3">
      <!-- 3 -->
      <g style="fill: #262626" transform="translate(441.219531 398.637812) scale(0.1 -0.1)">
       <defs>
        <path id="ArialMT-33" d="M 269 1209 
L 831 1284 
Q 928 806 1161 595 
Q 1394 384 1728 384 
Q 2125 384 2398 659 
Q 2672 934 2672 1341 
Q 2672 1728 2419 1979 
Q 2166 2231 1775 2231 
Q 1616 2231 1378 2169 
L 1441 2663 
Q 1497 2656 1531 2656 
Q 1891 2656 2178 2843 
Q 2466 3031 2466 3422 
Q 2466 3731 2256 3934 
Q 2047 4138 1716 4138 
Q 1388 4138 1169 3931 
Q 950 3725 888 3313 
L 325 3413 
Q 428 3978 793 4289 
Q 1159 4600 1703 4600 
Q 2078 4600 2393 4439 
Q 2709 4278 2876 4000 
Q 3044 3722 3044 3409 
Q 3044 3113 2884 2869 
Q 2725 2625 2413 2481 
Q 2819 2388 3044 2092 
Q 3269 1797 3269 1353 
Q 3269 753 2831 336 
Q 2394 -81 1725 -81 
Q 1122 -81 723 278 
Q 325 638 269 1209 
z
" transform="scale(0.015625)"/>
       </defs>
       <use xlink:href="#ArialMT-33"/>
      </g>
     </g>
    </g>
    <g id="text_4">
     <!-- Effort level -->
     <g style="fill: #262626" transform="translate(271.667969 411.783125) scale(0.1 -0.1)">
      <defs>
       <path id="ArialMT-45" d="M 506 0 
L 506 4581 
L 3819 4581 
L 3819 4041 
L 1113 4041 
L 1113 2638 
L 3647 2638 
L 3647 2100 
L 1113 2100 
L 1113 541 
L 3925 541 
L 3925 0 
L 506 0 
z
" transform="scale(0.015625)"/>
       <path id="ArialMT-66" d="M 556 0 
L 556 2881 
L 59 2881 
L 59 3319 
L 556 3319 
L 556 3672 
Q 556 4006 616 4169 
Q 697 4388 901 4523 
Q 1106 4659 1475 4659 
Q 1713 4659 2000 4603 
L 1916 4113 
Q 1741 4144 1584 4144 
Q 1328 4144 1222 4034 
Q 1116 3925 1116 3625 
L 1116 3319 
L 1763 3319 
L 1763 2881 
L 1116 2881 
L 1116 0 
L 556 0 
z
" transform="scale(0.015625)"/>
       <path id="ArialMT-6f" d="M 213 1659 
Q 213 2581 725 3025 
Q 1153 3394 1769 3394 
Q 2453 3394 2887 2945 
Q 3322 2497 3322 1706 
Q 3322 1066 3130 698 
Q 2938 331 2570 128 
Q 2203 -75 1769 -75 
Q 1072 -75 642 372 
Q 213 819 213 1659 
z
M 791 1659 
Q 791 1022 1069 705 
Q 1347 388 1769 388 
Q 2188 388 2466 706 
Q 2744 1025 2744 1678 
Q 2744 2294 2464 2611 
Q 2184 2928 1769 2928 
Q 1347 2928 1069 2612 
Q 791 2297 791 1659 
z
" transform="scale(0.015625)"/>
       <path id="ArialMT-72" d="M 416 0 
L 416 3319 
L 922 3319 
L 922 2816 
Q 1116 3169 1280 3281 
Q 1444 3394 1641 3394 
Q 1925 3394 2219 3213 
L 2025 2691 
Q 1819 2813 1613 2813 
Q 1428 2813 1281 2702 
Q 1134 2591 1072 2394 
Q 978 2094 978 1738 
L 978 0 
L 416 0 
z
" transform="scale(0.015625)"/>
       <path id="ArialMT-74" d="M 1650 503 
L 1731 6 
Q 1494 -44 1306 -44 
Q 1000 -44 831 53 
Q 663 150 594 308 
Q 525 466 525 972 
L 525 2881 
L 113 2881 
L 113 3319 
L 525 3319 
L 525 4141 
L 1084 4478 
L 1084 3319 
L 1650 3319 
L 1650 2881 
L 1084 2881 
L 1084 941 
Q 1084 700 1114 631 
Q 1144 563 1211 522 
Q 1278 481 1403 481 
Q 1497 481 1650 503 
z
" transform="scale(0.015625)"/>
       <path id="ArialMT-20" transform="scale(0.015625)"/>
       <path id="ArialMT-6c" d="M 409 0 
L 409 4581 
L 972 4581 
L 972 0 
L 409 0 
z
" transform="scale(0.015625)"/>
       <path id="ArialMT-65" d="M 2694 1069 
L 3275 997 
Q 3138 488 2766 206 
Q 2394 -75 1816 -75 
Q 1088 -75 661 373 
Q 234 822 234 1631 
Q 234 2469 665 2931 
Q 1097 3394 1784 3394 
Q 2450 3394 2872 2941 
Q 3294 2488 3294 1666 
Q 3294 1616 3291 1516 
L 816 1516 
Q 847 969 1125 678 
Q 1403 388 1819 388 
Q 2128 388 2347 550 
Q 2566 713 2694 1069 
z
M 847 1978 
L 2700 1978 
Q 2663 2397 2488 2606 
Q 2219 2931 1791 2931 
Q 1403 2931 1139 2672 
Q 875 2413 847 1978 
z
" transform="scale(0.015625)"/>
       <path id="ArialMT-76" d="M 1344 0 
L 81 3319 
L 675 3319 
L 1388 1331 
Q 1503 1009 1600 663 
Q 1675 925 1809 1294 
L 2547 3319 
L 3125 3319 
L 1869 0 
L 1344 0 
z
" transform="scale(0.015625)"/>
      </defs>
      <use xlink:href="#ArialMT-45"/>
      <use xlink:href="#ArialMT-66" x="66.699219"/>
      <use xlink:href="#ArialMT-66" x="92.732422"/>
      <use xlink:href="#ArialMT-6f" x="120.515625"/>
      <use xlink:href="#ArialMT-72" x="176.130859"/>
      <use xlink:href="#ArialMT-74" x="209.431641"/>
      <use xlink:href="#ArialMT-20" x="237.214844"/>
      <use xlink:href="#ArialMT-6c" x="264.998047"/>
      <use xlink:href="#ArialMT-65" x="287.214844"/>
      <use xlink:href="#ArialMT-76" x="342.830078"/>
      <use xlink:href="#ArialMT-65" x="392.830078"/>
      <use xlink:href="#ArialMT-6c" x="448.445312"/>
     </g>
    </g>
   </g>
   <g id="matplotlib.axis_2">
    <g id="ytick_1">
     <g id="line2d_1">
      <path d="M 72 357.066026 
L 518.4 357.066026 
" clip-path="url(#p9715dec0fe)" style="fill: none; stroke: #cccccc; stroke-width: 0.8; stroke-linecap: round"/>
     </g>
     <g id="text_5">
      <!-- −50 -->
      <g style="fill: #262626" transform="translate(48.0375 360.644933) scale(0.1 -0.1)">
       <defs>
        <path id="ArialMT-2212" d="M 3381 1997 
L 356 1997 
L 356 2522 
L 3381 2522 
L 3381 1997 
z
" transform="scale(0.015625)"/>
        <path id="ArialMT-35" d="M 266 1200 
L 856 1250 
Q 922 819 1161 601 
Q 1400 384 1738 384 
Q 2144 384 2425 690 
Q 2706 997 2706 1503 
Q 2706 1984 2436 2262 
Q 2166 2541 1728 2541 
Q 1456 2541 1237 2417 
Q 1019 2294 894 2097 
L 366 2166 
L 809 4519 
L 3088 4519 
L 3088 3981 
L 1259 3981 
L 1013 2750 
Q 1425 3038 1878 3038 
Q 2478 3038 2890 2622 
Q 3303 2206 3303 1553 
Q 3303 931 2941 478 
Q 2500 -78 1738 -78 
Q 1113 -78 717 272 
Q 322 622 266 1200 
z
" transform="scale(0.015625)"/>
        <path id="ArialMT-30" d="M 266 2259 
Q 266 3072 433 3567 
Q 600 4063 929 4331 
Q 1259 4600 1759 4600 
Q 2128 4600 2406 4451 
Q 2684 4303 2865 4023 
Q 3047 3744 3150 3342 
Q 3253 2941 3253 2259 
Q 3253 1453 3087 958 
Q 2922 463 2592 192 
Q 2263 -78 1759 -78 
Q 1097 -78 719 397 
Q 266 969 266 2259 
z
M 844 2259 
Q 844 1131 1108 757 
Q 1372 384 1759 384 
Q 2147 384 2411 759 
Q 2675 1134 2675 2259 
Q 2675 3391 2411 3762 
Q 2147 4134 1753 4134 
Q 1366 4134 1134 3806 
Q 844 3388 844 2259 
z
" transform="scale(0.015625)"/>
       </defs>
       <use xlink:href="#ArialMT-2212"/>
       <use xlink:href="#ArialMT-35" x="58.398438"/>
       <use xlink:href="#ArialMT-30" x="114.013672"/>
      </g>
     </g>
    </g>
    <g id="ytick_2">
     <g id="line2d_2">
      <path d="M 72 313.510614 
L 518.4 313.510614 
" clip-path="url(#p9715dec0fe)" style="fill: none; stroke: #cccccc; stroke-width: 0.8; stroke-linecap: round"/>
     </g>
     <g id="text_6">
      <!-- 0 -->
      <g style="fill: #262626" transform="translate(59.439062 317.08952) scale(0.1 -0.1)">
       <use xlink:href="#ArialMT-30"/>
      </g>
     </g>
    </g>
    <g id="ytick_3">
     <g id="line2d_3">
      <path d="M 72 269.955202 
L 518.4 269.955202 
" clip-path="url(#p9715dec0fe)" style="fill: none; stroke: #cccccc; stroke-width: 0.8; stroke-linecap: round"/>
     </g>
     <g id="text_7">
      <!-- 50 -->
      <g style="fill: #262626" transform="translate(53.878125 273.534108) scale(0.1 -0.1)">
       <use xlink:href="#ArialMT-35"/>
       <use xlink:href="#ArialMT-30" x="55.615234"/>
      </g>
     </g>
    </g>
    <g id="ytick_4">
     <g id="line2d_4">
      <path d="M 72 226.39979 
L 518.4 226.39979 
" clip-path="url(#p9715dec0fe)" style="fill: none; stroke: #cccccc; stroke-width: 0.8; stroke-linecap: round"/>
     </g>
     <g id="text_8">
      <!-- 100 -->
      <g style="fill: #262626" transform="translate(48.317188 229.978696) scale(0.1 -0.1)">
       <use xlink:href="#ArialMT-31"/>
       <use xlink:href="#ArialMT-30" x="55.615234"/>
       <use xlink:href="#ArialMT-30" x="111.230469"/>
      </g>
     </g>
    </g>
    <g id="ytick_5">
     <g id="line2d_5">
      <path d="M 72 182.844378 
L 518.4 182.844378 
" clip-path="url(#p9715dec0fe)" style="fill: none; stroke: #cccccc; stroke-width: 0.8; stroke-linecap: round"/>
     </g>
     <g id="text_9">
      <!-- 150 -->
      <g style="fill: #262626" transform="translate(48.317188 186.423284) scale(0.1 -0.1)">
       <use xlink:href="#ArialMT-31"/>
       <use xlink:href="#ArialMT-35" x="55.615234"/>
       <use xlink:href="#ArialMT-30" x="111.230469"/>
      </g>
     </g>
    </g>
    <g id="ytick_6">
     <g id="line2d_6">
      <path d="M 72 139.288965 
L 518.4 139.288965 
" clip-path="url(#p9715dec0fe)" style="fill: none; stroke: #cccccc; stroke-width: 0.8; stroke-linecap: round"/>
     </g>
     <g id="text_10">
      <!-- 200 -->
      <g style="fill: #262626" transform="translate(48.317188 142.867872) scale(0.1 -0.1)">
       <use xlink:href="#ArialMT-32"/>
       <use xlink:href="#ArialMT-30" x="55.615234"/>
       <use xlink:href="#ArialMT-30" x="111.230469"/>
      </g>
     </g>
    </g>
    <g id="ytick_7">
     <g id="line2d_7">
      <path d="M 72 95.733553 
L 518.4 95.733553 
" clip-path="url(#p9715dec0fe)" style="fill: none; stroke: #cccccc; stroke-width: 0.8; stroke-linecap: round"/>
     </g>
     <g id="text_11">
      <!-- 250 -->
      <g style="fill: #262626" transform="translate(48.317188 99.31246) scale(0.1 -0.1)">
       <use xlink:href="#ArialMT-32"/>
       <use xlink:href="#ArialMT-35" x="55.615234"/>
       <use xlink:href="#ArialMT-30" x="111.230469"/>
      </g>
     </g>
    </g>
    <g id="ytick_8">
     <g id="line2d_8">
      <path d="M 72 52.178141 
L 518.4 52.178141 
" clip-path="url(#p9715dec0fe)" style="fill: none; stroke: #cccccc; stroke-width: 0.8; stroke-linecap: round"/>
     </g>
     <g id="text_12">
      <!-- 300 -->
      <g style="fill: #262626" transform="translate(48.317188 55.757047) scale(0.1 -0.1)">
       <use xlink:href="#ArialMT-33"/>
       <use xlink:href="#ArialMT-30" x="55.615234"/>
       <use xlink:href="#ArialMT-30" x="111.230469"/>
      </g>
     </g>
    </g>
    <g id="text_13">
     <!-- Fat energy (kcal/h) -->
     <g style="fill: #262626" transform="translate(41.932812 259.838906) rotate(-90) scale(0.1 -0.1)">
      <defs>
       <path id="ArialMT-46" d="M 525 0 
L 525 4581 
L 3616 4581 
L 3616 4041 
L 1131 4041 
L 1131 2622 
L 3281 2622 
L 3281 2081 
L 1131 2081 
L 1131 0 
L 525 0 
z
" transform="scale(0.015625)"/>
       <path id="ArialMT-61" d="M 2588 409 
Q 2275 144 1986 34 
Q 1697 -75 1366 -75 
Q 819 -75 525 192 
Q 231 459 231 875 
Q 231 1119 342 1320 
Q 453 1522 633 1644 
Q 813 1766 1038 1828 
Q 1203 1872 1538 1913 
Q 2219 1994 2541 2106 
Q 2544 2222 2544 2253 
Q 2544 2597 2384 2738 
Q 2169 2928 1744 2928 
Q 1347 2928 1158 2789 
Q 969 2650 878 2297 
L 328 2372 
Q 403 2725 575 2942 
Q 747 3159 1072 3276 
Q 1397 3394 1825 3394 
Q 2250 3394 2515 3294 
Q 2781 3194 2906 3042 
Q 3031 2891 3081 2659 
Q 3109 2516 3109 2141 
L 3109 1391 
Q 3109 606 3145 398 
Q 3181 191 3288 0 
L 2700 0 
Q 2613 175 2588 409 
z
M 2541 1666 
Q 2234 1541 1622 1453 
Q 1275 1403 1131 1340 
Q 988 1278 909 1158 
Q 831 1038 831 891 
Q 831 666 1001 516 
Q 1172 366 1500 366 
Q 1825 366 2078 508 
Q 2331 650 2450 897 
Q 2541 1088 2541 1459 
L 2541 1666 
z
" transform="scale(0.015625)"/>
       <path id="ArialMT-6e" d="M 422 0 
L 422 3319 
L 928 3319 
L 928 2847 
Q 1294 3394 1984 3394 
Q 2284 3394 2536 3286 
Q 2788 3178 2913 3003 
Q 3038 2828 3088 2588 
Q 3119 2431 3119 2041 
L 3119 0 
L 2556 0 
L 2556 2019 
Q 2556 2363 2490 2533 
Q 2425 2703 2258 2804 
Q 2091 2906 1866 2906 
Q 1506 2906 1245 2678 
Q 984 2450 984 1813 
L 984 0 
L 422 0 
z
" transform="scale(0.015625)"/>
       <path id="ArialMT-67" d="M 319 -275 
L 866 -356 
Q 900 -609 1056 -725 
Q 1266 -881 1628 -881 
Q 2019 -881 2231 -725 
Q 2444 -569 2519 -288 
Q 2563 -116 2559 434 
Q 2191 0 1641 0 
Q 956 0 581 494 
Q 206 988 206 1678 
Q 206 2153 378 2554 
Q 550 2956 876 3175 
Q 1203 3394 1644 3394 
Q 2231 3394 2613 2919 
L 2613 3319 
L 3131 3319 
L 3131 450 
Q 3131 -325 2973 -648 
Q 2816 -972 2473 -1159 
Q 2131 -1347 1631 -1347 
Q 1038 -1347 672 -1080 
Q 306 -813 319 -275 
z
M 784 1719 
Q 784 1066 1043 766 
Q 1303 466 1694 466 
Q 2081 466 2343 764 
Q 2606 1063 2606 1700 
Q 2606 2309 2336 2618 
Q 2066 2928 1684 2928 
Q 1309 2928 1046 2623 
Q 784 2319 784 1719 
z
" transform="scale(0.015625)"/>
       <path id="ArialMT-79" d="M 397 -1278 
L 334 -750 
Q 519 -800 656 -800 
Q 844 -800 956 -737 
Q 1069 -675 1141 -563 
Q 1194 -478 1313 -144 
Q 1328 -97 1363 -6 
L 103 3319 
L 709 3319 
L 1400 1397 
Q 1534 1031 1641 628 
Q 1738 1016 1872 1384 
L 2581 3319 
L 3144 3319 
L 1881 -56 
Q 1678 -603 1566 -809 
Q 1416 -1088 1222 -1217 
Q 1028 -1347 759 -1347 
Q 597 -1347 397 -1278 
z
" transform="scale(0.015625)"/>
       <path id="ArialMT-28" d="M 1497 -1347 
Q 1031 -759 709 28 
Q 388 816 388 1659 
Q 388 2403 628 3084 
Q 909 3875 1497 4659 
L 1900 4659 
Q 1522 4009 1400 3731 
Q 1209 3300 1100 2831 
Q 966 2247 966 1656 
Q 966 153 1900 -1347 
L 1497 -1347 
z
" transform="scale(0.015625)"/>
       <path id="ArialMT-6b" d="M 425 0 
L 425 4581 
L 988 4581 
L 988 1969 
L 2319 3319 
L 3047 3319 
L 1778 2088 
L 3175 0 
L 2481 0 
L 1384 1697 
L 988 1316 
L 988 0 
L 425 0 
z
" transform="scale(0.015625)"/>
       <path id="ArialMT-63" d="M 2588 1216 
L 3141 1144 
Q 3050 572 2676 248 
Q 2303 -75 1759 -75 
Q 1078 -75 664 370 
Q 250 816 250 1647 
Q 250 2184 428 2587 
Q 606 2991 970 3192 
Q 1334 3394 1763 3394 
Q 2303 3394 2647 3120 
Q 2991 2847 3088 2344 
L 2541 2259 
Q 2463 2594 2264 2762 
Q 2066 2931 1784 2931 
Q 1359 2931 1093 2626 
Q 828 2322 828 1663 
Q 828 994 1084 691 
Q 1341 388 1753 388 
Q 2084 388 2306 591 
Q 2528 794 2588 1216 
z
" transform="scale(0.015625)"/>
       <path id="ArialMT-2f" d="M 0 -78 
L 1328 4659 
L 1778 4659 
L 453 -78 
L 0 -78 
z
" transform="scale(0.015625)"/>
       <path id="ArialMT-68" d="M 422 0 
L 422 4581 
L 984 4581 
L 984 2938 
Q 1378 3394 1978 3394 
Q 2347 3394 2619 3248 
Q 2891 3103 3008 2847 
Q 3125 2591 3125 2103 
L 3125 0 
L 2563 0 
L 2563 2103 
Q 2563 2525 2380 2717 
Q 2197 2909 1863 2909 
Q 1613 2909 1392 2779 
Q 1172 2650 1078 2428 
Q 984 2206 984 1816 
L 984 0 
L 422 0 
z
" transform="scale(0.015625)"/>
       <path id="ArialMT-29" d="M 791 -1347 
L 388 -1347 
Q 1322 153 1322 1656 
Q 1322 2244 1188 2822 
Q 1081 3291 891 3722 
Q 769 4003 388 4659 
L 791 4659 
Q 1378 3875 1659 3084 
Q 1900 2403 1900 1659 
Q 1900 816 1576 28 
Q 1253 -759 791 -1347 
z
" transform="scale(0.015625)"/>
      </defs>
      <use xlink:href="#ArialMT-46"/>
      <use xlink:href="#ArialMT-61" x="61.083984"/>
      <use xlink:href="#ArialMT-74" x="116.699219"/>
      <use xlink:href="#ArialMT-20" x="144.482422"/>
      <use xlink:href="#ArialMT-65" x="172.265625"/>
      <use xlink:href="#ArialMT-6e" x="227.880859"/>
      <use xlink:href="#ArialMT-65" x="283.496094"/>
      <use xlink:href="#ArialMT-72" x="339.111328"/>
      <use xlink:href="#ArialMT-67" x="372.412109"/>
      <use xlink:href="#ArialMT-79" x="428.027344"/>
      <use xlink:href="#ArialMT-20" x="478.027344"/>
      <use xlink:href="#ArialMT-28" x="505.810547"/>
      <use xlink:href="#ArialMT-6b" x="539.111328"/>
      <use xlink:href="#ArialMT-63" x="589.111328"/>
      <use xlink:href="#ArialMT-61" x="639.111328"/>
      <use xlink:href="#ArialMT-6c" x="694.726562"/>
      <use xlink:href="#ArialMT-2f" x="716.943359"/>
      <use xlink:href="#ArialMT-68" x="744.726562"/>
      <use xlink:href="#ArialMT-29" x="800.341797"/>
     </g>
    </g>
   </g>
   <g id="PolyCollection_1">
    <defs>
     <path id="m6903ff1a51" d="M 118.770824 -77.148493 
L 114.509176 -77.148493 
L 113.97208 -79.51637 
L 113.342466 -81.884248 
L 112.616461 -84.252125 
L 111.793342 -86.620002 
L 110.876233 -88.987879 
L 109.872671 -91.355757 
L 108.794971 -93.723634 
L 107.660323 -96.091511 
L 106.490563 -98.459389 
L 105.311603 -100.827266 
L 104.152505 -103.195143 
L 103.044247 -105.563021 
L 102.018243 -107.930898 
L 101.104716 -110.298775 
L 100.331046 -112.666652 
L 99.720225 -115.03453 
L 99.289539 -117.402407 
L 99.0496 -119.770284 
L 99.003799 -122.138162 
L 99.148234 -124.506039 
L 99.472104 -126.873916 
L 99.958533 -129.241794 
L 100.585739 -131.609671 
L 101.328446 -133.977548 
L 102.159409 -136.345425 
L 103.050926 -138.713303 
L 103.976222 -141.08118 
L 104.910619 -143.449057 
L 105.832411 -145.816935 
L 106.723437 -148.184812 
L 107.569332 -150.552689 
L 108.359498 -152.920567 
L 109.086849 -155.288444 
L 109.74738 -157.656321 
L 110.339649 -160.024198 
L 110.864216 -162.392076 
L 111.323114 -164.759953 
L 111.719378 -167.12783 
L 112.056668 -169.495708 
L 112.338991 -171.863585 
L 112.570528 -174.231462 
L 112.755533 -176.59934 
L 112.898313 -178.967217 
L 113.003234 -181.335094 
L 113.074759 -183.702971 
L 113.117472 -186.070849 
L 113.136092 -188.438726 
L 113.135458 -190.806603 
L 113.120476 -193.174481 
L 113.096041 -195.542358 
L 113.066934 -197.910235 
L 113.0377 -200.278113 
L 113.012517 -202.64599 
L 112.995079 -205.013867 
L 112.988484 -207.381744 
L 112.995154 -209.749622 
L 113.016779 -212.117499 
L 113.054298 -214.485376 
L 113.107917 -216.853254 
L 113.177153 -219.221131 
L 113.260915 -221.589008 
L 113.357606 -223.956886 
L 113.465241 -226.324763 
L 113.581584 -228.69264 
L 113.704269 -231.060517 
L 113.830941 -233.428395 
L 113.959363 -235.796272 
L 114.087519 -238.164149 
L 114.213694 -240.532027 
L 114.336524 -242.899904 
L 114.455032 -245.267781 
L 114.568625 -247.635658 
L 114.677079 -250.003536 
L 114.780499 -252.371413 
L 114.879263 -254.73929 
L 114.973952 -257.107168 
L 115.065274 -259.475045 
L 115.153991 -261.842922 
L 115.240838 -264.2108 
L 115.326464 -266.578677 
L 115.411371 -268.946554 
L 115.495882 -271.314431 
L 115.580111 -273.682309 
L 115.663966 -276.050186 
L 115.747159 -278.418063 
L 115.82923 -280.785941 
L 115.909592 -283.153818 
L 115.987576 -285.521695 
L 116.06248 -287.889573 
L 116.133624 -290.25745 
L 116.200389 -292.625327 
L 116.262263 -294.993204 
L 116.318862 -297.361082 
L 116.369947 -299.728959 
L 116.415432 -302.096836 
L 116.455376 -304.464714 
L 116.489969 -306.832591 
L 116.51951 -309.200468 
L 116.544385 -311.568346 
L 116.735615 -311.568346 
L 116.735615 -311.568346 
L 116.76049 -309.200468 
L 116.790031 -306.832591 
L 116.824624 -304.464714 
L 116.864568 -302.096836 
L 116.910053 -299.728959 
L 116.961138 -297.361082 
L 117.017737 -294.993204 
L 117.079611 -292.625327 
L 117.146376 -290.25745 
L 117.21752 -287.889573 
L 117.292424 -285.521695 
L 117.370408 -283.153818 
L 117.45077 -280.785941 
L 117.532841 -278.418063 
L 117.616034 -276.050186 
L 117.699889 -273.682309 
L 117.784118 -271.314431 
L 117.868629 -268.946554 
L 117.953536 -266.578677 
L 118.039162 -264.2108 
L 118.126009 -261.842922 
L 118.214726 -259.475045 
L 118.306048 -257.107168 
L 118.400737 -254.73929 
L 118.499501 -252.371413 
L 118.602921 -250.003536 
L 118.711375 -247.635658 
L 118.824968 -245.267781 
L 118.943476 -242.899904 
L 119.066306 -240.532027 
L 119.192481 -238.164149 
L 119.320637 -235.796272 
L 119.449059 -233.428395 
L 119.575731 -231.060517 
L 119.698416 -228.69264 
L 119.814759 -226.324763 
L 119.922394 -223.956886 
L 120.019085 -221.589008 
L 120.102847 -219.221131 
L 120.172083 -216.853254 
L 120.225702 -214.485376 
L 120.263221 -212.117499 
L 120.284846 -209.749622 
L 120.291516 -207.381744 
L 120.284921 -205.013867 
L 120.267483 -202.64599 
L 120.2423 -200.278113 
L 120.213066 -197.910235 
L 120.183959 -195.542358 
L 120.159524 -193.174481 
L 120.144542 -190.806603 
L 120.143908 -188.438726 
L 120.162528 -186.070849 
L 120.205241 -183.702971 
L 120.276766 -181.335094 
L 120.381687 -178.967217 
L 120.524467 -176.59934 
L 120.709472 -174.231462 
L 120.941009 -171.863585 
L 121.223332 -169.495708 
L 121.560622 -167.12783 
L 121.956886 -164.759953 
L 122.415784 -162.392076 
L 122.940351 -160.024198 
L 123.53262 -157.656321 
L 124.193151 -155.288444 
L 124.920502 -152.920567 
L 125.710668 -150.552689 
L 126.556563 -148.184812 
L 127.447589 -145.816935 
L 128.369381 -143.449057 
L 129.303778 -141.08118 
L 130.229074 -138.713303 
L 131.120591 -136.345425 
L 131.951554 -133.977548 
L 132.694261 -131.609671 
L 133.321467 -129.241794 
L 133.807896 -126.873916 
L 134.131766 -124.506039 
L 134.276201 -122.138162 
L 134.2304 -119.770284 
L 133.990461 -117.402407 
L 133.559775 -115.03453 
L 132.948954 -112.666652 
L 132.175284 -110.298775 
L 131.261757 -107.930898 
L 130.235753 -105.563021 
L 129.127495 -103.195143 
L 127.968397 -100.827266 
L 126.789437 -98.459389 
L 125.619677 -96.091511 
L 124.485029 -93.723634 
L 123.407329 -91.355757 
L 122.403767 -88.987879 
L 121.486658 -86.620002 
L 120.663539 -84.252125 
L 119.937534 -81.884248 
L 119.30792 -79.51637 
L 118.770824 -77.148493 
z
" style="stroke: #3f3f3f; stroke-width: 1.25"/>
    </defs>
    <g clip-path="url(#p9715dec0fe)">
     <use xlink:href="#m6903ff1a51" x="0" y="432" style="fill: #3274a1; stroke: #3f3f3f; stroke-width: 1.25"/>
    </g>
   </g>
   <g id="PolyCollection_2">
    <defs>
     <path id="m236eba3ece" d="M 177.663923 -62.64 
L 174.656077 -62.64 
L 174.290862 -65.694545 
L 173.86378 -68.749091 
L 173.371588 -71.803636 
L 172.812738 -74.858182 
L 172.187801 -77.912727 
L 171.499812 -80.967273 
L 170.754547 -84.021818 
L 169.960658 -87.076364 
L 169.129656 -90.130909 
L 168.275716 -93.185455 
L 167.415295 -96.24 
L 166.566564 -99.294545 
L 165.748687 -102.349091 
L 164.980974 -105.403636 
L 164.281962 -108.458182 
L 163.668486 -111.512727 
L 163.154805 -114.567273 
L 162.751837 -117.621818 
L 162.466571 -120.676364 
L 162.301684 -123.730909 
L 162.255408 -126.785455 
L 162.321625 -129.84 
L 162.490212 -132.894545 
L 162.747581 -135.949091 
L 163.077389 -139.003636 
L 163.461359 -142.058182 
L 163.880156 -145.112727 
L 164.314281 -148.167273 
L 164.744911 -151.221818 
L 165.154669 -154.276364 
L 165.528274 -157.330909 
L 165.85307 -160.385455 
L 166.119404 -163.44 
L 166.320866 -166.494545 
L 166.454379 -169.549091 
L 166.520162 -172.603636 
L 166.521554 -175.658182 
L 166.464731 -178.712727 
L 166.358319 -181.767273 
L 166.212917 -184.821818 
L 166.040566 -187.876364 
L 165.854163 -190.930909 
L 165.666865 -193.985455 
L 165.491503 -197.04 
L 165.340031 -200.094545 
L 165.223047 -203.149091 
L 165.149393 -206.203636 
L 165.125872 -209.258182 
L 165.157075 -212.312727 
L 165.245331 -215.367273 
L 165.390769 -218.421818 
L 165.591482 -221.476364 
L 165.843776 -224.530909 
L 166.14247 -227.585455 
L 166.48124 -230.64 
L 166.85297 -233.694545 
L 167.250092 -236.749091 
L 167.664907 -239.803636 
L 168.089869 -242.858182 
L 168.517817 -245.912727 
L 168.942179 -248.967273 
L 169.35712 -252.021818 
L 169.757655 -255.076364 
L 170.139727 -258.130909 
L 170.500251 -261.185455 
L 170.837128 -264.24 
L 171.149234 -267.294545 
L 171.436379 -270.349091 
L 171.699241 -273.403636 
L 171.939267 -276.458182 
L 172.158563 -279.512727 
L 172.359743 -282.567273 
L 172.545776 -285.621818 
L 172.719812 -288.676364 
L 172.885008 -291.730909 
L 173.044365 -294.785455 
L 173.20057 -297.84 
L 173.355873 -300.894545 
L 173.511992 -303.949091 
L 173.670052 -307.003636 
L 173.830567 -310.058182 
L 173.993461 -313.112727 
L 174.158125 -316.167273 
L 174.323497 -319.221818 
L 174.488173 -322.276364 
L 174.650525 -325.330909 
L 174.808823 -328.385455 
L 174.961354 -331.44 
L 175.106524 -334.494545 
L 175.242949 -337.549091 
L 175.369514 -340.603636 
L 175.485414 -343.658182 
L 175.590169 -346.712727 
L 175.683621 -349.767273 
L 175.765908 -352.821818 
L 175.837426 -355.876364 
L 175.898781 -358.930909 
L 175.950743 -361.985455 
L 175.994185 -365.04 
L 176.325815 -365.04 
L 176.325815 -365.04 
L 176.369257 -361.985455 
L 176.421219 -358.930909 
L 176.482574 -355.876364 
L 176.554092 -352.821818 
L 176.636379 -349.767273 
L 176.729831 -346.712727 
L 176.834586 -343.658182 
L 176.950486 -340.603636 
L 177.077051 -337.549091 
L 177.213476 -334.494545 
L 177.358646 -331.44 
L 177.511177 -328.385455 
L 177.669475 -325.330909 
L 177.831827 -322.276364 
L 177.996503 -319.221818 
L 178.161875 -316.167273 
L 178.326539 -313.112727 
L 178.489433 -310.058182 
L 178.649948 -307.003636 
L 178.808008 -303.949091 
L 178.964127 -300.894545 
L 179.11943 -297.84 
L 179.275635 -294.785455 
L 179.434992 -291.730909 
L 179.600188 -288.676364 
L 179.774224 -285.621818 
L 179.960257 -282.567273 
L 180.161437 -279.512727 
L 180.380733 -276.458182 
L 180.620759 -273.403636 
L 180.883621 -270.349091 
L 181.170766 -267.294545 
L 181.482872 -264.24 
L 181.819749 -261.185455 
L 182.180273 -258.130909 
L 182.562345 -255.076364 
L 182.96288 -252.021818 
L 183.377821 -248.967273 
L 183.802183 -245.912727 
L 184.230131 -242.858182 
L 184.655093 -239.803636 
L 185.069908 -236.749091 
L 185.46703 -233.694545 
L 185.83876 -230.64 
L 186.17753 -227.585455 
L 186.476224 -224.530909 
L 186.728518 -221.476364 
L 186.929231 -218.421818 
L 187.074669 -215.367273 
L 187.162925 -212.312727 
L 187.194128 -209.258182 
L 187.170607 -206.203636 
L 187.096953 -203.149091 
L 186.979969 -200.094545 
L 186.828497 -197.04 
L 186.653135 -193.985455 
L 186.465837 -190.930909 
L 186.279434 -187.876364 
L 186.107083 -184.821818 
L 185.961681 -181.767273 
L 185.855269 -178.712727 
L 185.798446 -175.658182 
L 185.799838 -172.603636 
L 185.865621 -169.549091 
L 185.999134 -166.494545 
L 186.200596 -163.44 
L 186.46693 -160.385455 
L 186.791726 -157.330909 
L 187.165331 -154.276364 
L 187.575089 -151.221818 
L 188.005719 -148.167273 
L 188.439844 -145.112727 
L 188.858641 -142.058182 
L 189.242611 -139.003636 
L 189.572419 -135.949091 
L 189.829788 -132.894545 
L 189.998375 -129.84 
L 190.064592 -126.785455 
L 190.018316 -123.730909 
L 189.853429 -120.676364 
L 189.568163 -117.621818 
L 189.165195 -114.567273 
L 188.651514 -111.512727 
L 188.038038 -108.458182 
L 187.339026 -105.403636 
L 186.571313 -102.349091 
L 185.753436 -99.294545 
L 184.904705 -96.24 
L 184.044284 -93.185455 
L 183.190344 -90.130909 
L 182.359342 -87.076364 
L 181.565453 -84.021818 
L 180.820188 -80.967273 
L 180.132199 -77.912727 
L 179.507262 -74.858182 
L 178.948412 -71.803636 
L 178.45622 -68.749091 
L 178.029138 -65.694545 
L 177.663923 -62.64 
z
" style="stroke: #3f3f3f; stroke-width: 1.25"/>
    </defs>
    <g clip-path="url(#p9715dec0fe)">
     <use xlink:href="#m236eba3ece" x="0" y="432" style="fill: #e1812c; stroke: #3f3f3f; stroke-width: 1.25"/>
    </g>
   </g>
   <g id="PolyCollection_3">
    <defs>
     <path id="m032bec2f83" d="M 267.964684 -77.350422 
L 262.915316 -77.350422 
L 262.29245 -79.681571 
L 261.565811 -82.012721 
L 260.732009 -84.34387 
L 259.791389 -86.67502 
L 258.748791 -89.006169 
L 257.614157 -91.337318 
L 256.402889 -93.668468 
L 255.135905 -95.999617 
L 253.839306 -98.330767 
L 252.543656 -100.661916 
L 251.282857 -102.993066 
L 250.092669 -105.324215 
L 249.008965 -107.655364 
L 248.065814 -109.986514 
L 247.293559 -112.317663 
L 246.71702 -114.648813 
L 246.353985 -116.979962 
L 246.214116 -119.311112 
L 246.298365 -121.642261 
L 246.598958 -123.97341 
L 247.099945 -126.30456 
L 247.778275 -128.635709 
L 248.605291 -130.966859 
L 249.548526 -133.298008 
L 250.573641 -135.629158 
L 251.646356 -137.960307 
L 252.734222 -140.291456 
L 253.808116 -142.622606 
L 254.843371 -144.953755 
L 255.820493 -147.284905 
L 256.72546 -149.616054 
L 257.549628 -151.947204 
L 258.289312 -154.278353 
L 258.945107 -156.609502 
L 259.521047 -158.940652 
L 260.023691 -161.271801 
L 260.461207 -163.602951 
L 260.842521 -165.9341 
L 261.176589 -168.265249 
L 261.471808 -170.596399 
L 261.735579 -172.927548 
L 261.974038 -175.258698 
L 262.191911 -177.589847 
L 262.392507 -179.920997 
L 262.577797 -182.252146 
L 262.748576 -184.583295 
L 262.904674 -186.914445 
L 263.045199 -189.245594 
L 263.168792 -191.576744 
L 263.273887 -193.907893 
L 263.358954 -196.239043 
L 263.42272 -198.570192 
L 263.46436 -200.901341 
L 263.483643 -203.232491 
L 263.481038 -205.56364 
L 263.457772 -207.89479 
L 263.41583 -210.225939 
L 263.357909 -212.557089 
L 263.287331 -214.888238 
L 263.207902 -217.219387 
L 263.123754 -219.550537 
L 263.039154 -221.881686 
L 262.958317 -224.212836 
L 262.88521 -226.543985 
L 262.823389 -228.875135 
L 262.775848 -231.206284 
L 262.744917 -233.537433 
L 262.732196 -235.868583 
L 262.738533 -238.199732 
L 262.764049 -240.530882 
L 262.808197 -242.862031 
L 262.869855 -245.19318 
L 262.947436 -247.52433 
L 263.039015 -249.855479 
L 263.142453 -252.186629 
L 263.255518 -254.517778 
L 263.375983 -256.848928 
L 263.501713 -259.180077 
L 263.630721 -261.511226 
L 263.761209 -263.842376 
L 263.891579 -266.173525 
L 264.020439 -268.504675 
L 264.146587 -270.835824 
L 264.268994 -273.166974 
L 264.386786 -275.498123 
L 264.49922 -277.829272 
L 264.605676 -280.160422 
L 264.705645 -282.491571 
L 264.798725 -284.822721 
L 264.884624 -287.15387 
L 264.963159 -289.48502 
L 265.034264 -291.816169 
L 265.097985 -294.147318 
L 265.154484 -296.478468 
L 265.204027 -298.809617 
L 265.246975 -301.140767 
L 265.28377 -303.471916 
L 265.314913 -305.803065 
L 265.340951 -308.134215 
L 265.539049 -308.134215 
L 265.539049 -308.134215 
L 265.565087 -305.803065 
L 265.59623 -303.471916 
L 265.633025 -301.140767 
L 265.675973 -298.809617 
L 265.725516 -296.478468 
L 265.782015 -294.147318 
L 265.845736 -291.816169 
L 265.916841 -289.48502 
L 265.995376 -287.15387 
L 266.081275 -284.822721 
L 266.174355 -282.491571 
L 266.274324 -280.160422 
L 266.38078 -277.829272 
L 266.493214 -275.498123 
L 266.611006 -273.166974 
L 266.733413 -270.835824 
L 266.859561 -268.504675 
L 266.988421 -266.173525 
L 267.118791 -263.842376 
L 267.249279 -261.511226 
L 267.378287 -259.180077 
L 267.504017 -256.848928 
L 267.624482 -254.517778 
L 267.737547 -252.186629 
L 267.840985 -249.855479 
L 267.932564 -247.52433 
L 268.010145 -245.19318 
L 268.071803 -242.862031 
L 268.115951 -240.530882 
L 268.141467 -238.199732 
L 268.147804 -235.868583 
L 268.135083 -233.537433 
L 268.104152 -231.206284 
L 268.056611 -228.875135 
L 267.99479 -226.543985 
L 267.921683 -224.212836 
L 267.840846 -221.881686 
L 267.756246 -219.550537 
L 267.672098 -217.219387 
L 267.592669 -214.888238 
L 267.522091 -212.557089 
L 267.46417 -210.225939 
L 267.422228 -207.89479 
L 267.398962 -205.56364 
L 267.396357 -203.232491 
L 267.41564 -200.901341 
L 267.45728 -198.570192 
L 267.521046 -196.239043 
L 267.606113 -193.907893 
L 267.711208 -191.576744 
L 267.834801 -189.245594 
L 267.975326 -186.914445 
L 268.131424 -184.583295 
L 268.302203 -182.252146 
L 268.487493 -179.920997 
L 268.688089 -177.589847 
L 268.905962 -175.258698 
L 269.144421 -172.927548 
L 269.408192 -170.596399 
L 269.703411 -168.265249 
L 270.037479 -165.9341 
L 270.418793 -163.602951 
L 270.856309 -161.271801 
L 271.358953 -158.940652 
L 271.934893 -156.609502 
L 272.590688 -154.278353 
L 273.330372 -151.947204 
L 274.15454 -149.616054 
L 275.059507 -147.284905 
L 276.036629 -144.953755 
L 277.071884 -142.622606 
L 278.145778 -140.291456 
L 279.233644 -137.960307 
L 280.306359 -135.629158 
L 281.331474 -133.298008 
L 282.274709 -130.966859 
L 283.101725 -128.635709 
L 283.780055 -126.30456 
L 284.281042 -123.97341 
L 284.581635 -121.642261 
L 284.665884 -119.311112 
L 284.526015 -116.979962 
L 284.16298 -114.648813 
L 283.586441 -112.317663 
L 282.814186 -109.986514 
L 281.871035 -107.655364 
L 280.787331 -105.324215 
L 279.597143 -102.993066 
L 278.336344 -100.661916 
L 277.040694 -98.330767 
L 275.744095 -95.999617 
L 274.477111 -93.668468 
L 273.265843 -91.337318 
L 272.131209 -89.006169 
L 271.088611 -86.67502 
L 270.147991 -84.34387 
L 269.314189 -82.012721 
L 268.58755 -79.681571 
L 267.964684 -77.350422 
z
" style="stroke: #3f3f3f; stroke-width: 1.25"/>
    </defs>
    <g clip-path="url(#p9715dec0fe)">
     <use xlink:href="#m032bec2f83" x="0" y="432" style="fill: #3274a1; stroke: #3f3f3f; stroke-width: 1.25"/>
    </g>
   </g>
   <g id="PolyCollection_4">
    <defs>
     <path id="mc700bae0e3" d="M 328.330808 -77.882183 
L 321.589192 -77.882183 
L 320.823757 -79.987972 
L 319.937837 -82.09376 
L 318.926119 -84.199548 
L 317.786466 -86.305337 
L 316.520613 -88.411125 
L 315.134784 -90.516913 
L 313.640149 -92.622702 
L 312.053081 -94.72849 
L 310.395154 -96.834278 
L 308.692848 -98.940067 
L 306.976946 -101.045855 
L 305.281625 -103.151643 
L 303.643266 -105.257432 
L 302.099043 -107.36322 
L 300.685366 -109.469009 
L 299.436262 -111.574797 
L 298.381807 -113.680585 
L 297.546717 -115.786374 
L 296.949188 -117.892162 
L 296.600065 -119.99795 
L 296.502418 -122.103739 
L 296.651525 -124.209527 
L 297.03529 -126.315315 
L 297.635033 -128.421104 
L 298.426604 -130.526892 
L 299.381735 -132.63268 
L 300.469521 -134.738469 
L 301.657934 -136.844257 
L 302.915259 -138.950045 
L 304.211375 -141.055834 
L 305.518804 -143.161622 
L 306.813487 -145.26741 
L 308.075271 -147.373199 
L 309.288103 -149.478987 
L 310.439974 -151.584775 
L 311.522642 -153.690564 
L 312.5312 -155.796352 
L 313.463535 -157.90214 
L 314.319755 -160.007929 
L 315.101614 -162.113717 
L 315.811986 -164.219505 
L 316.45441 -166.325294 
L 317.032737 -168.431082 
L 317.550853 -170.53687 
L 318.012505 -172.642659 
L 318.421194 -174.748447 
L 318.780129 -176.854235 
L 319.092223 -178.960024 
L 319.360112 -181.065812 
L 319.586186 -183.1716 
L 319.772628 -185.277389 
L 319.92145 -187.383177 
L 320.03452 -189.488965 
L 320.113609 -191.594754 
L 320.16042 -193.700542 
L 320.176648 -195.80633 
L 320.164035 -197.912119 
L 320.124452 -200.017907 
L 320.059978 -202.123695 
L 319.972998 -204.229484 
L 319.866291 -206.335272 
L 319.743107 -208.44106 
L 319.607225 -210.546849 
L 319.462975 -212.652637 
L 319.315222 -214.758425 
L 319.169305 -216.864214 
L 319.030922 -218.970002 
L 318.905979 -221.07579 
L 318.800385 -223.181579 
L 318.719838 -225.287367 
L 318.669578 -227.393155 
L 318.654152 -229.498944 
L 318.677192 -231.604732 
L 318.741233 -233.71052 
L 318.847571 -235.816309 
L 318.996183 -237.922097 
L 319.185715 -240.027885 
L 319.413534 -242.133674 
L 319.67584 -244.239462 
L 319.967844 -246.34525 
L 320.283975 -248.451039 
L 320.618137 -250.556827 
L 320.963962 -252.662615 
L 321.315076 -254.768404 
L 321.665338 -256.874192 
L 322.00906 -258.97998 
L 322.34118 -261.085769 
L 322.657396 -263.191557 
L 322.954249 -265.297345 
L 323.229155 -267.403134 
L 323.480402 -269.508922 
L 323.707098 -271.61471 
L 323.909096 -273.720499 
L 324.086892 -275.826287 
L 324.241513 -277.932075 
L 324.374395 -280.037864 
L 324.487269 -282.143652 
L 324.582049 -284.24944 
L 324.660732 -286.355229 
L 325.259268 -286.355229 
L 325.259268 -286.355229 
L 325.337951 -284.24944 
L 325.432731 -282.143652 
L 325.545605 -280.037864 
L 325.678487 -277.932075 
L 325.833108 -275.826287 
L 326.010904 -273.720499 
L 326.212902 -271.61471 
L 326.439598 -269.508922 
L 326.690845 -267.403134 
L 326.965751 -265.297345 
L 327.262604 -263.191557 
L 327.57882 -261.085769 
L 327.91094 -258.97998 
L 328.254662 -256.874192 
L 328.604924 -254.768404 
L 328.956038 -252.662615 
L 329.301863 -250.556827 
L 329.636025 -248.451039 
L 329.952156 -246.34525 
L 330.24416 -244.239462 
L 330.506466 -242.133674 
L 330.734285 -240.027885 
L 330.923817 -237.922097 
L 331.072429 -235.816309 
L 331.178767 -233.71052 
L 331.242808 -231.604732 
L 331.265848 -229.498944 
L 331.250422 -227.393155 
L 331.200162 -225.287367 
L 331.119615 -223.181579 
L 331.014021 -221.07579 
L 330.889078 -218.970002 
L 330.750695 -216.864214 
L 330.604778 -214.758425 
L 330.457025 -212.652637 
L 330.312775 -210.546849 
L 330.176893 -208.44106 
L 330.053709 -206.335272 
L 329.947002 -204.229484 
L 329.860022 -202.123695 
L 329.795548 -200.017907 
L 329.755965 -197.912119 
L 329.743352 -195.80633 
L 329.75958 -193.700542 
L 329.806391 -191.594754 
L 329.88548 -189.488965 
L 329.99855 -187.383177 
L 330.147372 -185.277389 
L 330.333814 -183.1716 
L 330.559888 -181.065812 
L 330.827777 -178.960024 
L 331.139871 -176.854235 
L 331.498806 -174.748447 
L 331.907495 -172.642659 
L 332.369147 -170.53687 
L 332.887263 -168.431082 
L 333.46559 -166.325294 
L 334.108014 -164.219505 
L 334.818386 -162.113717 
L 335.600245 -160.007929 
L 336.456465 -157.90214 
L 337.3888 -155.796352 
L 338.397358 -153.690564 
L 339.480026 -151.584775 
L 340.631897 -149.478987 
L 341.844729 -147.373199 
L 343.106513 -145.26741 
L 344.401196 -143.161622 
L 345.708625 -141.055834 
L 347.004741 -138.950045 
L 348.262066 -136.844257 
L 349.450479 -134.738469 
L 350.538265 -132.63268 
L 351.493396 -130.526892 
L 352.284967 -128.421104 
L 352.88471 -126.315315 
L 353.268475 -124.209527 
L 353.417582 -122.103739 
L 353.319935 -119.99795 
L 352.970812 -117.892162 
L 352.373283 -115.786374 
L 351.538193 -113.680585 
L 350.483738 -111.574797 
L 349.234634 -109.469009 
L 347.820957 -107.36322 
L 346.276734 -105.257432 
L 344.638375 -103.151643 
L 342.943054 -101.045855 
L 341.227152 -98.940067 
L 339.524846 -96.834278 
L 337.866919 -94.72849 
L 336.279851 -92.622702 
L 334.785216 -90.516913 
L 333.399387 -88.411125 
L 332.133534 -86.305337 
L 330.993881 -84.199548 
L 329.982163 -82.09376 
L 329.096243 -79.987972 
L 328.330808 -77.882183 
z
" style="stroke: #3f3f3f; stroke-width: 1.25"/>
    </defs>
    <g clip-path="url(#p9715dec0fe)">
     <use xlink:href="#mc700bae0e3" x="0" y="432" style="fill: #e1812c; stroke: #3f3f3f; stroke-width: 1.25"/>
    </g>
   </g>
   <g id="PolyCollection_5">
    <defs>
     <path id="m54d74cc39c" d="M 418.249486 -90.778121 
L 410.230514 -90.778121 
L 409.202871 -92.406634 
L 407.998634 -94.035147 
L 406.612558 -95.66366 
L 405.046483 -97.292173 
L 403.310789 -98.920686 
L 401.425499 -100.549198 
L 399.420894 -102.177711 
L 397.337458 -103.806224 
L 395.225065 -105.434737 
L 393.141356 -107.06325 
L 391.149329 -108.691763 
L 389.314252 -110.320276 
L 387.700105 -111.948789 
L 386.365788 -113.577302 
L 385.361421 -115.205815 
L 384.725041 -116.834327 
L 384.48 -118.46284 
L 384.633311 -120.091353 
L 385.175096 -121.719866 
L 386.079204 -123.348379 
L 387.304937 -124.976892 
L 388.799732 -126.605405 
L 390.502566 -128.233918 
L 392.347762 -129.862431 
L 394.268894 -131.490944 
L 396.20246 -133.119456 
L 398.091062 -134.747969 
L 399.885879 -136.376482 
L 401.548319 -138.004995 
L 403.050801 -139.633508 
L 404.376722 -141.262021 
L 405.519709 -142.890534 
L 406.482315 -144.519047 
L 407.274352 -146.14756 
L 407.911025 -147.776073 
L 408.411066 -149.404585 
L 408.794995 -151.033098 
L 409.083621 -152.661611 
L 409.29685 -154.290124 
L 409.452825 -155.918637 
L 409.567391 -157.54715 
L 409.65385 -159.175663 
L 409.72295 -160.804176 
L 409.783045 -162.432689 
L 409.840365 -164.061202 
L 409.899334 -165.689714 
L 409.962889 -167.318227 
L 410.032772 -168.94674 
L 410.109769 -170.575253 
L 410.193903 -172.203766 
L 410.284567 -173.832279 
L 410.380638 -175.460792 
L 410.480566 -177.089305 
L 410.582467 -178.717818 
L 410.684226 -180.346331 
L 410.783621 -181.974844 
L 410.878473 -183.603356 
L 410.966797 -185.231869 
L 411.046961 -186.860382 
L 411.11783 -188.488895 
L 411.178873 -190.117408 
L 411.230227 -191.745921 
L 411.272706 -193.374434 
L 411.307748 -195.002947 
L 411.33731 -196.63146 
L 411.363717 -198.259973 
L 411.38948 -199.888485 
L 411.417107 -201.516998 
L 411.448923 -203.145511 
L 411.486921 -204.774024 
L 411.532645 -206.402537 
L 411.587139 -208.03105 
L 411.650932 -209.659563 
L 411.724077 -211.288076 
L 411.806222 -212.916589 
L 411.896705 -214.545102 
L 411.994653 -216.173614 
L 412.099074 -217.802127 
L 412.208931 -219.43064 
L 412.323197 -221.059153 
L 412.440875 -222.687666 
L 412.561006 -224.316179 
L 412.682649 -225.944692 
L 412.804866 -227.573205 
L 412.926699 -229.201718 
L 413.047155 -230.830231 
L 413.165209 -232.458743 
L 413.279818 -234.087256 
L 413.389949 -235.715769 
L 413.49462 -237.344282 
L 413.592942 -238.972795 
L 413.684164 -240.601308 
L 413.76771 -242.229821 
L 413.843202 -243.858334 
L 413.910481 -245.486847 
L 413.969596 -247.11536 
L 414.020793 -248.743872 
L 414.06449 -250.372385 
L 414.101238 -252.000898 
L 414.378762 -252.000898 
L 414.378762 -252.000898 
L 414.41551 -250.372385 
L 414.459207 -248.743872 
L 414.510404 -247.11536 
L 414.569519 -245.486847 
L 414.636798 -243.858334 
L 414.71229 -242.229821 
L 414.795836 -240.601308 
L 414.887058 -238.972795 
L 414.98538 -237.344282 
L 415.090051 -235.715769 
L 415.200182 -234.087256 
L 415.314791 -232.458743 
L 415.432845 -230.830231 
L 415.553301 -229.201718 
L 415.675134 -227.573205 
L 415.797351 -225.944692 
L 415.918994 -224.316179 
L 416.039125 -222.687666 
L 416.156803 -221.059153 
L 416.271069 -219.43064 
L 416.380926 -217.802127 
L 416.485347 -216.173614 
L 416.583295 -214.545102 
L 416.673778 -212.916589 
L 416.755923 -211.288076 
L 416.829068 -209.659563 
L 416.892861 -208.03105 
L 416.947355 -206.402537 
L 416.993079 -204.774024 
L 417.031077 -203.145511 
L 417.062893 -201.516998 
L 417.09052 -199.888485 
L 417.116283 -198.259973 
L 417.14269 -196.63146 
L 417.172252 -195.002947 
L 417.207294 -193.374434 
L 417.249773 -191.745921 
L 417.301127 -190.117408 
L 417.36217 -188.488895 
L 417.433039 -186.860382 
L 417.513203 -185.231869 
L 417.601527 -183.603356 
L 417.696379 -181.974844 
L 417.795774 -180.346331 
L 417.897533 -178.717818 
L 417.999434 -177.089305 
L 418.099362 -175.460792 
L 418.195433 -173.832279 
L 418.286097 -172.203766 
L 418.370231 -170.575253 
L 418.447228 -168.94674 
L 418.517111 -167.318227 
L 418.580666 -165.689714 
L 418.639635 -164.061202 
L 418.696955 -162.432689 
L 418.75705 -160.804176 
L 418.82615 -159.175663 
L 418.912609 -157.54715 
L 419.027175 -155.918637 
L 419.18315 -154.290124 
L 419.396379 -152.661611 
L 419.685005 -151.033098 
L 420.068934 -149.404585 
L 420.568975 -147.776073 
L 421.205648 -146.14756 
L 421.997685 -144.519047 
L 422.960291 -142.890534 
L 424.103278 -141.262021 
L 425.429199 -139.633508 
L 426.931681 -138.004995 
L 428.594121 -136.376482 
L 430.388938 -134.747969 
L 432.27754 -133.119456 
L 434.211106 -131.490944 
L 436.132238 -129.862431 
L 437.977434 -128.233918 
L 439.680268 -126.605405 
L 441.175063 -124.976892 
L 442.400796 -123.348379 
L 443.304904 -121.719866 
L 443.846689 -120.091353 
L 444 -118.46284 
L 443.754959 -116.834327 
L 443.118579 -115.205815 
L 442.114212 -113.577302 
L 440.779895 -111.948789 
L 439.165748 -110.320276 
L 437.330671 -108.691763 
L 435.338644 -107.06325 
L 433.254935 -105.434737 
L 431.142542 -103.806224 
L 429.059106 -102.177711 
L 427.054501 -100.549198 
L 425.169211 -98.920686 
L 423.433517 -97.292173 
L 421.867442 -95.66366 
L 420.481366 -94.035147 
L 419.277129 -92.406634 
L 418.249486 -90.778121 
z
" style="stroke: #3f3f3f; stroke-width: 1.25"/>
    </defs>
    <g clip-path="url(#p9715dec0fe)">
     <use xlink:href="#m54d74cc39c" x="0" y="432" style="fill: #3274a1; stroke: #3f3f3f; stroke-width: 1.25"/>
    </g>
   </g>
   <g id="PolyCollection_6">
    <defs>
     <path id="m3ca633bab3" d="M 477.450972 -80.689906 
L 470.069028 -80.689906 
L 469.192512 -82.747524 
L 468.173696 -84.805143 
L 467.0071 -86.862761 
L 465.691658 -88.92038 
L 464.23165 -90.977998 
L 462.637469 -93.035616 
L 460.926133 -95.093235 
L 459.121462 -97.150853 
L 457.253861 -99.208472 
L 455.359642 -101.26609 
L 453.479912 -103.323709 
L 451.659022 -105.381327 
L 449.942681 -107.438945 
L 448.375819 -109.496564 
L 447.000351 -111.554182 
L 445.853007 -113.611801 
L 444.963372 -115.669419 
L 444.352316 -117.727037 
L 444.030922 -119.784656 
L 444 -121.842274 
L 444.250243 -123.899893 
L 444.762981 -125.957511 
L 445.511492 -128.01513 
L 446.462732 -130.072748 
L 447.579356 -132.130366 
L 448.821858 -134.187985 
L 450.150654 -136.245603 
L 451.527978 -138.303222 
L 452.919448 -140.36084 
L 454.295226 -142.418459 
L 455.630736 -144.476077 
L 456.90693 -146.533695 
L 458.110155 -148.591314 
L 459.231688 -150.648932 
L 460.267024 -152.706551 
L 461.215036 -154.764169 
L 462.077079 -156.821787 
L 462.856144 -158.879406 
L 463.556125 -160.937024 
L 464.181233 -162.994643 
L 464.735592 -165.052261 
L 465.223019 -167.10988 
L 465.646951 -169.167498 
L 466.010513 -171.225116 
L 466.316669 -173.282735 
L 466.568429 -175.340353 
L 466.76906 -177.397972 
L 466.922274 -179.45559 
L 467.032366 -181.513208 
L 467.104278 -183.570827 
L 467.143588 -185.628445 
L 467.156423 -187.686064 
L 467.1493 -189.743682 
L 467.128916 -191.801301 
L 467.101901 -193.858919 
L 467.07456 -195.916537 
L 467.052626 -197.974156 
L 467.041047 -200.031774 
L 467.043815 -202.089393 
L 467.063865 -204.147011 
L 467.103045 -206.204629 
L 467.162151 -208.262248 
L 467.241034 -210.319866 
L 467.33876 -212.377485 
L 467.453811 -214.435103 
L 467.584304 -216.492722 
L 467.728209 -218.55034 
L 467.883555 -220.607958 
L 468.048587 -222.665577 
L 468.221889 -224.723195 
L 468.40244 -226.780814 
L 468.589624 -228.838432 
L 468.783174 -230.89605 
L 468.983092 -232.953669 
L 469.189524 -235.011287 
L 469.402629 -237.068906 
L 469.62245 -239.126524 
L 469.848793 -241.184143 
L 470.08114 -243.241761 
L 470.318597 -245.299379 
L 470.559876 -247.356998 
L 470.803316 -249.414616 
L 471.046946 -251.472235 
L 471.288562 -253.529853 
L 471.525837 -255.587472 
L 471.756432 -257.64509 
L 471.978107 -259.702708 
L 472.188824 -261.760327 
L 472.386833 -263.817945 
L 472.570737 -265.875564 
L 472.739533 -267.933182 
L 472.892627 -269.9908 
L 473.029827 -272.048419 
L 473.151315 -274.106037 
L 473.257604 -276.163656 
L 473.349483 -278.221274 
L 473.427954 -280.278893 
L 473.494173 -282.336511 
L 473.549385 -284.394129 
L 473.970615 -284.394129 
L 473.970615 -284.394129 
L 474.025827 -282.336511 
L 474.092046 -280.278893 
L 474.170517 -278.221274 
L 474.262396 -276.163656 
L 474.368685 -274.106037 
L 474.490173 -272.048419 
L 474.627373 -269.9908 
L 474.780467 -267.933182 
L 474.949263 -265.875564 
L 475.133167 -263.817945 
L 475.331176 -261.760327 
L 475.541893 -259.702708 
L 475.763568 -257.64509 
L 475.994163 -255.587472 
L 476.231438 -253.529853 
L 476.473054 -251.472235 
L 476.716684 -249.414616 
L 476.960124 -247.356998 
L 477.201403 -245.299379 
L 477.43886 -243.241761 
L 477.671207 -241.184143 
L 477.89755 -239.126524 
L 478.117371 -237.068906 
L 478.330476 -235.011287 
L 478.536908 -232.953669 
L 478.736826 -230.89605 
L 478.930376 -228.838432 
L 479.11756 -226.780814 
L 479.298111 -224.723195 
L 479.471413 -222.665577 
L 479.636445 -220.607958 
L 479.791791 -218.55034 
L 479.935696 -216.492722 
L 480.066189 -214.435103 
L 480.18124 -212.377485 
L 480.278966 -210.319866 
L 480.357849 -208.262248 
L 480.416955 -206.204629 
L 480.456135 -204.147011 
L 480.476185 -202.089393 
L 480.478953 -200.031774 
L 480.467374 -197.974156 
L 480.44544 -195.916537 
L 480.418099 -193.858919 
L 480.391084 -191.801301 
L 480.3707 -189.743682 
L 480.363577 -187.686064 
L 480.376412 -185.628445 
L 480.415722 -183.570827 
L 480.487634 -181.513208 
L 480.597726 -179.45559 
L 480.75094 -177.397972 
L 480.951571 -175.340353 
L 481.203331 -173.282735 
L 481.509487 -171.225116 
L 481.873049 -169.167498 
L 482.296981 -167.10988 
L 482.784408 -165.052261 
L 483.338767 -162.994643 
L 483.963875 -160.937024 
L 484.663856 -158.879406 
L 485.442921 -156.821787 
L 486.304964 -154.764169 
L 487.252976 -152.706551 
L 488.288312 -150.648932 
L 489.409845 -148.591314 
L 490.61307 -146.533695 
L 491.889264 -144.476077 
L 493.224774 -142.418459 
L 494.600552 -140.36084 
L 495.992022 -138.303222 
L 497.369346 -136.245603 
L 498.698142 -134.187985 
L 499.940644 -132.130366 
L 501.057268 -130.072748 
L 502.008508 -128.01513 
L 502.757019 -125.957511 
L 503.269757 -123.899893 
L 503.52 -121.842274 
L 503.489078 -119.784656 
L 503.167684 -117.727037 
L 502.556628 -115.669419 
L 501.666993 -113.611801 
L 500.519649 -111.554182 
L 499.144181 -109.496564 
L 497.577319 -107.438945 
L 495.860978 -105.381327 
L 494.040088 -103.323709 
L 492.160358 -101.26609 
L 490.266139 -99.208472 
L 488.398538 -97.150853 
L 486.593867 -95.093235 
L 484.882531 -93.035616 
L 483.28835 -90.977998 
L 481.828342 -88.92038 
L 480.5129 -86.862761 
L 479.346304 -84.805143 
L 478.327488 -82.747524 
L 477.450972 -80.689906 
z
" style="stroke: #3f3f3f; stroke-width: 1.25"/>
    </defs>
    <g clip-path="url(#p9715dec0fe)">
     <use xlink:href="#m3ca633bab3" x="0" y="432" style="fill: #e1812c; stroke: #3f3f3f; stroke-width: 1.25"/>
    </g>
   </g>
   <g id="patch_3">
    <path d="M 146.4 313.510614 
L 146.4 313.510614 
L 146.4 313.510614 
L 146.4 313.510614 
z
" clip-path="url(#p9715dec0fe)" style="fill: #3274a1; stroke: #3f3f3f; stroke-width: 1.25; stroke-linejoin: miter"/>
   </g>
   <g id="patch_4">
    <path d="M 146.4 313.510614 
L 146.4 313.510614 
L 146.4 313.510614 
L 146.4 313.510614 
z
" clip-path="url(#p9715dec0fe)" style="fill: #e1812c; stroke: #3f3f3f; stroke-width: 1.25; stroke-linejoin: miter"/>
   </g>
   <g id="line2d_9">
    <path d="M 116.64 313.510614 
L 116.64 212.825367 
" clip-path="url(#p9715dec0fe)" style="fill: none; stroke: #3f3f3f; stroke-width: 1.875; stroke-linecap: round"/>
   </g>
   <g id="line2d_10">
    <path d="M 116.64 313.510614 
L 116.64 272.925313 
" clip-path="url(#p9715dec0fe)" style="fill: none; stroke: #3f3f3f; stroke-width: 5.625; stroke-linecap: round"/>
   </g>
   <g id="line2d_11">
    <path d="M 116.64 313.510614 
" clip-path="url(#p9715dec0fe)" style="fill: none; stroke: #3f3f3f; stroke-width: 1.5; stroke-linecap: round"/>
    <defs>
     <path id="m68c336e005" d="M 2.34375 0 
L -2.34375 -0 
" style="stroke: #ffffff; stroke-width: 1.125"/>
    </defs>
    <g clip-path="url(#p9715dec0fe)">
     <use xlink:href="#m68c336e005" x="116.64" y="313.510614" style="fill: #ffffff; stroke: #ffffff; stroke-width: 1.125"/>
    </g>
   </g>
   <g id="line2d_12">
    <path d="M 176.16 313.510614 
L 176.16 122.809386 
" clip-path="url(#p9715dec0fe)" style="fill: none; stroke: #3f3f3f; stroke-width: 1.875; stroke-linecap: round"/>
   </g>
   <g id="line2d_13">
    <path d="M 176.16 313.510614 
L 176.16 215.370457 
" clip-path="url(#p9715dec0fe)" style="fill: none; stroke: #3f3f3f; stroke-width: 5.625; stroke-linecap: round"/>
   </g>
   <g id="line2d_14">
    <path d="M 176.16 266.536413 
" clip-path="url(#p9715dec0fe)" style="fill: none; stroke: #3f3f3f; stroke-width: 1.5; stroke-linecap: round"/>
    <g clip-path="url(#p9715dec0fe)">
     <use xlink:href="#m68c336e005" x="176.16" y="266.536413" style="fill: #ffffff; stroke: #ffffff; stroke-width: 1.125"/>
    </g>
   </g>
   <g id="line2d_15">
    <path d="M 265.44 313.510614 
L 265.44 246.287408 
" clip-path="url(#p9715dec0fe)" style="fill: none; stroke: #3f3f3f; stroke-width: 1.875; stroke-linecap: round"/>
   </g>
   <g id="line2d_16">
    <path d="M 265.44 313.510614 
L 265.44 280.806508 
" clip-path="url(#p9715dec0fe)" style="fill: none; stroke: #3f3f3f; stroke-width: 5.625; stroke-linecap: round"/>
   </g>
   <g id="line2d_17">
    <path d="M 265.44 313.510614 
" clip-path="url(#p9715dec0fe)" style="fill: none; stroke: #3f3f3f; stroke-width: 1.5; stroke-linecap: round"/>
    <g clip-path="url(#p9715dec0fe)">
     <use xlink:href="#m68c336e005" x="265.44" y="313.510614" style="fill: #ffffff; stroke: #ffffff; stroke-width: 1.125"/>
    </g>
   </g>
   <g id="line2d_18">
    <path d="M 324.96 313.510614 
L 324.96 217.083671 
" clip-path="url(#p9715dec0fe)" style="fill: none; stroke: #3f3f3f; stroke-width: 1.875; stroke-linecap: round"/>
   </g>
   <g id="line2d_19">
    <path d="M 324.96 313.510614 
L 324.96 274.834148 
" clip-path="url(#p9715dec0fe)" style="fill: none; stroke: #3f3f3f; stroke-width: 5.625; stroke-linecap: round"/>
   </g>
   <g id="line2d_20">
    <path d="M 324.96 313.510614 
" clip-path="url(#p9715dec0fe)" style="fill: none; stroke: #3f3f3f; stroke-width: 1.5; stroke-linecap: round"/>
    <g clip-path="url(#p9715dec0fe)">
     <use xlink:href="#m68c336e005" x="324.96" y="313.510614" style="fill: #ffffff; stroke: #ffffff; stroke-width: 1.125"/>
    </g>
   </g>
   <g id="line2d_21">
    <path d="M 414.24 313.510614 
L 414.24 313.510614 
" clip-path="url(#p9715dec0fe)" style="fill: none; stroke: #3f3f3f; stroke-width: 1.875; stroke-linecap: round"/>
   </g>
   <g id="line2d_22">
    <path d="M 414.24 313.510614 
L 414.24 313.510614 
" clip-path="url(#p9715dec0fe)" style="fill: none; stroke: #3f3f3f; stroke-width: 5.625; stroke-linecap: round"/>
   </g>
   <g id="line2d_23">
    <path d="M 414.24 313.510614 
" clip-path="url(#p9715dec0fe)" style="fill: none; stroke: #3f3f3f; stroke-width: 1.5; stroke-linecap: round"/>
    <g clip-path="url(#p9715dec0fe)">
     <use xlink:href="#m68c336e005" x="414.24" y="313.510614" style="fill: #ffffff; stroke: #ffffff; stroke-width: 1.125"/>
    </g>
   </g>
   <g id="line2d_24">
    <path d="M 473.76 313.510614 
L 473.76 224.314523 
" clip-path="url(#p9715dec0fe)" style="fill: none; stroke: #3f3f3f; stroke-width: 1.875; stroke-linecap: round"/>
   </g>
   <g id="line2d_25">
    <path d="M 473.76 313.510614 
L 473.76 275.367619 
" clip-path="url(#p9715dec0fe)" style="fill: none; stroke: #3f3f3f; stroke-width: 5.625; stroke-linecap: round"/>
   </g>
   <g id="line2d_26">
    <path d="M 473.76 313.510614 
" clip-path="url(#p9715dec0fe)" style="fill: none; stroke: #3f3f3f; stroke-width: 1.5; stroke-linecap: round"/>
    <g clip-path="url(#p9715dec0fe)">
     <use xlink:href="#m68c336e005" x="473.76" y="313.510614" style="fill: #ffffff; stroke: #ffffff; stroke-width: 1.125"/>
    </g>
   </g>
   <g id="patch_5">
    <path d="M 72 384.48 
L 72 51.84 
" style="fill: none; stroke: #cccccc; stroke-width: 0.8; stroke-linejoin: miter; stroke-linecap: square"/>
   </g>
   <g id="patch_6">
    <path d="M 518.4 384.48 
L 518.4 51.84 
" style="fill: none; stroke: #cccccc; stroke-width: 0.8; stroke-linejoin: miter; stroke-linecap: square"/>
   </g>
   <g id="patch_7">
    <path d="M 72 384.48 
L 518.4 384.48 
" style="fill: none; stroke: #cccccc; stroke-width: 0.8; stroke-linejoin: miter; stroke-linecap: square"/>
   </g>
   <g id="patch_8">
    <path d="M 72 51.84 
L 518.4 51.84 
" style="fill: none; stroke: #cccccc; stroke-width: 0.8; stroke-linejoin: miter; stroke-linecap: square"/>
   </g>
   <g id="legend_1">
    <g id="patch_9">
     <path d="M 456.6125 379.48 
L 511.4 379.48 
Q 513.4 379.48 513.4 377.48 
L 513.4 336.044062 
Q 513.4 334.044062 511.4 334.044062 
L 456.6125 334.044062 
Q 454.6125 334.044062 454.6125 336.044062 
L 454.6125 377.48 
Q 454.6125 379.48 456.6125 379.48 
z
" style="fill: #ffffff; opacity: 0.8; stroke: #cccccc; stroke-linejoin: miter"/>
    </g>
    <g id="text_14">
     <!-- Time -->
     <g style="fill: #262626" transform="translate(473.083594 345.201875) scale(0.1 -0.1)">
      <defs>
       <path id="ArialMT-54" d="M 1659 0 
L 1659 4041 
L 150 4041 
L 150 4581 
L 3781 4581 
L 3781 4041 
L 2266 4041 
L 2266 0 
L 1659 0 
z
" transform="scale(0.015625)"/>
       <path id="ArialMT-69" d="M 425 3934 
L 425 4581 
L 988 4581 
L 988 3934 
L 425 3934 
z
M 425 0 
L 425 3319 
L 988 3319 
L 988 0 
L 425 0 
z
" transform="scale(0.015625)"/>
       <path id="ArialMT-6d" d="M 422 0 
L 422 3319 
L 925 3319 
L 925 2853 
Q 1081 3097 1340 3245 
Q 1600 3394 1931 3394 
Q 2300 3394 2536 3241 
Q 2772 3088 2869 2813 
Q 3263 3394 3894 3394 
Q 4388 3394 4653 3120 
Q 4919 2847 4919 2278 
L 4919 0 
L 4359 0 
L 4359 2091 
Q 4359 2428 4304 2576 
Q 4250 2725 4106 2815 
Q 3963 2906 3769 2906 
Q 3419 2906 3187 2673 
Q 2956 2441 2956 1928 
L 2956 0 
L 2394 0 
L 2394 2156 
Q 2394 2531 2256 2718 
Q 2119 2906 1806 2906 
Q 1569 2906 1367 2781 
Q 1166 2656 1075 2415 
Q 984 2175 984 1722 
L 984 0 
L 422 0 
z
" transform="scale(0.015625)"/>
      </defs>
      <use xlink:href="#ArialMT-54"/>
      <use xlink:href="#ArialMT-69" x="57.333984"/>
      <use xlink:href="#ArialMT-6d" x="79.550781"/>
      <use xlink:href="#ArialMT-65" x="162.851562"/>
     </g>
    </g>
    <g id="patch_10">
     <path d="M 458.6125 359.347188 
L 478.6125 359.347188 
L 478.6125 352.347188 
L 458.6125 352.347188 
z
" style="fill: #3274a1; stroke: #3f3f3f; stroke-width: 1.25; stroke-linejoin: miter"/>
    </g>
    <g id="text_15">
     <!-- initial -->
     <g style="fill: #262626" transform="translate(486.6125 359.347188) scale(0.1 -0.1)">
      <use xlink:href="#ArialMT-69"/>
      <use xlink:href="#ArialMT-6e" x="22.216797"/>
      <use xlink:href="#ArialMT-69" x="77.832031"/>
      <use xlink:href="#ArialMT-74" x="100.048828"/>
      <use xlink:href="#ArialMT-69" x="127.832031"/>
      <use xlink:href="#ArialMT-61" x="150.048828"/>
      <use xlink:href="#ArialMT-6c" x="205.664062"/>
     </g>
    </g>
    <g id="patch_11">
     <path d="M 458.6125 373.4925 
L 478.6125 373.4925 
L 478.6125 366.4925 
L 458.6125 366.4925 
z
" style="fill: #e1812c; stroke: #3f3f3f; stroke-width: 1.25; stroke-linejoin: miter"/>
    </g>
    <g id="text_16">
     <!-- final -->
     <g style="fill: #262626" transform="translate(486.6125 373.4925) scale(0.1 -0.1)">
      <use xlink:href="#ArialMT-66"/>
      <use xlink:href="#ArialMT-69" x="27.783203"/>
      <use xlink:href="#ArialMT-6e" x="50"/>
      <use xlink:href="#ArialMT-61" x="105.615234"/>
      <use xlink:href="#ArialMT-6c" x="161.230469"/>
     </g>
    </g>
   </g>
  </g>
 </g>
 <defs>
  <clipPath id="p9715dec0fe">
   <rect x="72" y="51.84" width="446.4" height="332.64"/>
  </clipPath>
 </defs>
</svg>
