<?xml version="1.0" encoding="utf-8" standalone="no"?>
<!DOCTYPE svg PUBLIC "-//W3C//DTD SVG 1.1//EN"
  "http://www.w3.org/Graphics/SVG/1.1/DTD/svg11.dtd">
<svg xmlns:xlink="http://www.w3.org/1999/xlink" width="576pt" height="432pt" viewBox="0 0 576 432" xmlns="http://www.w3.org/2000/svg" version="1.1">
 <metadata>
  <rdf:RDF xmlns:dc="http://purl.org/dc/elements/1.1/" xmlns:cc="http://creativecommons.org/ns#" xmlns:rdf="http://www.w3.org/1999/02/22-rdf-syntax-ns#">
   <cc:Work>
    <dc:type rdf:resource="http://purl.org/dc/dcmitype/StillImage"/>
    <dc:date>2024-09-09T17:20:18.885761</dc:date>
    <dc:format>image/svg+xml</dc:format>
    <dc:creator>
     <cc:Agent>
      <dc:title>Matplotlib v3.8.3, https://matplotlib.org/</dc:title>
     </cc:Agent>
    </dc:creator>
   </cc:Work>
  </rdf:RDF>
 </metadata>
 <defs>
  <style type="text/css">*{stroke-linejoin: round; stroke-linecap: butt}</style>
 </defs>
 <g id="figure_1">
  <g id="patch_1">
   <path d="M 0 432 
L 576 432 
L 576 0 
L 0 0 
z
" style="fill: #ffffff"/>
  </g>
  <g id="axes_1">
   <g id="patch_2">
    <path d="M 72 384.48 
L 518.4 384.48 
L 518.4 51.84 
L 72 51.84 
z
" style="fill: #ffffff"/>
   </g>
   <g id="matplotlib.axis_1">
    <g id="xtick_1">
     <g id="text_1">
      <!-- 1 -->
      <g style="fill: #262626" transform="translate(143.619531 398.637812) scale(0.1 -0.1)">
       <defs>
        <path id="ArialMT-31" d="M 2384 0 
L 1822 0 
L 1822 3584 
Q 1619 3391 1289 3197 
Q 959 3003 697 2906 
L 697 3450 
Q 1169 3672 1522 3987 
Q 1875 4303 2022 4600 
L 2384 4600 
L 2384 0 
z
" transform="scale(0.015625)"/>
       </defs>
       <use xlink:href="#ArialMT-31"/>
      </g>
     </g>
    </g>
    <g id="xtick_2">
     <g id="text_2">
      <!-- 2 -->
      <g style="fill: #262626" transform="translate(292.419531 398.637812) scale(0.1 -0.1)">
       <defs>
        <path id="ArialMT-32" d="M 3222 541 
L 3222 0 
L 194 0 
Q 188 203 259 391 
Q 375 700 629 1000 
Q 884 1300 1366 1694 
Q 2113 2306 2375 2664 
Q 2638 3022 2638 3341 
Q 2638 3675 2398 3904 
Q 2159 4134 1775 4134 
Q 1369 4134 1125 3890 
Q 881 3647 878 3216 
L 300 3275 
Q 359 3922 746 4261 
Q 1134 4600 1788 4600 
Q 2447 4600 2831 4234 
Q 3216 3869 3216 3328 
Q 3216 3053 3103 2787 
Q 2991 2522 2730 2228 
Q 2469 1934 1863 1422 
Q 1356 997 1212 845 
Q 1069 694 975 541 
L 3222 541 
z
" transform="scale(0.015625)"/>
       </defs>
       <use xlink:href="#ArialMT-32"/>
      </g>
     </g>
    </g>
    <g id="xtick_3">
     <g id="text_3">
      <!-- 3 -->
      <g style="fill: #262626" transform="translate(441.219531 398.637812) scale(0.1 -0.1)">
       <defs>
        <path id="ArialMT-33" d="M 269 1209 
L 831 1284 
Q 928 806 1161 595 
Q 1394 384 1728 384 
Q 2125 384 2398 659 
Q 2672 934 2672 1341 
Q 2672 1728 2419 1979 
Q 2166 2231 1775 2231 
Q 1616 2231 1378 2169 
L 1441 2663 
Q 1497 2656 1531 2656 
Q 1891 2656 2178 2843 
Q 2466 3031 2466 3422 
Q 2466 3731 2256 3934 
Q 2047 4138 1716 4138 
Q 1388 4138 1169 3931 
Q 950 3725 888 3313 
L 325 3413 
Q 428 3978 793 4289 
Q 1159 4600 1703 4600 
Q 2078 4600 2393 4439 
Q 2709 4278 2876 4000 
Q 3044 3722 3044 3409 
Q 3044 3113 2884 2869 
Q 2725 2625 2413 2481 
Q 2819 2388 3044 2092 
Q 3269 1797 3269 1353 
Q 3269 753 2831 336 
Q 2394 -81 1725 -81 
Q 1122 -81 723 278 
Q 325 638 269 1209 
z
" transform="scale(0.015625)"/>
       </defs>
       <use xlink:href="#ArialMT-33"/>
      </g>
     </g>
    </g>
    <g id="text_4">
     <!-- Effort level -->
     <g style="fill: #262626" transform="translate(271.667969 411.783125) scale(0.1 -0.1)">
      <defs>
       <path id="ArialMT-45" d="M 506 0 
L 506 4581 
L 3819 4581 
L 3819 4041 
L 1113 4041 
L 1113 2638 
L 3647 2638 
L 3647 2100 
L 1113 2100 
L 1113 541 
L 3925 541 
L 3925 0 
L 506 0 
z
" transform="scale(0.015625)"/>
       <path id="ArialMT-66" d="M 556 0 
L 556 2881 
L 59 2881 
L 59 3319 
L 556 3319 
L 556 3672 
Q 556 4006 616 4169 
Q 697 4388 901 4523 
Q 1106 4659 1475 4659 
Q 1713 4659 2000 4603 
L 1916 4113 
Q 1741 4144 1584 4144 
Q 1328 4144 1222 4034 
Q 1116 3925 1116 3625 
L 1116 3319 
L 1763 3319 
L 1763 2881 
L 1116 2881 
L 1116 0 
L 556 0 
z
" transform="scale(0.015625)"/>
       <path id="ArialMT-6f" d="M 213 1659 
Q 213 2581 725 3025 
Q 1153 3394 1769 3394 
Q 2453 3394 2887 2945 
Q 3322 2497 3322 1706 
Q 3322 1066 3130 698 
Q 2938 331 2570 128 
Q 2203 -75 1769 -75 
Q 1072 -75 642 372 
Q 213 819 213 1659 
z
M 791 1659 
Q 791 1022 1069 705 
Q 1347 388 1769 388 
Q 2188 388 2466 706 
Q 2744 1025 2744 1678 
Q 2744 2294 2464 2611 
Q 2184 2928 1769 2928 
Q 1347 2928 1069 2612 
Q 791 2297 791 1659 
z
" transform="scale(0.015625)"/>
       <path id="ArialMT-72" d="M 416 0 
L 416 3319 
L 922 3319 
L 922 2816 
Q 1116 3169 1280 3281 
Q 1444 3394 1641 3394 
Q 1925 3394 2219 3213 
L 2025 2691 
Q 1819 2813 1613 2813 
Q 1428 2813 1281 2702 
Q 1134 2591 1072 2394 
Q 978 2094 978 1738 
L 978 0 
L 416 0 
z
" transform="scale(0.015625)"/>
       <path id="ArialMT-74" d="M 1650 503 
L 1731 6 
Q 1494 -44 1306 -44 
Q 1000 -44 831 53 
Q 663 150 594 308 
Q 525 466 525 972 
L 525 2881 
L 113 2881 
L 113 3319 
L 525 3319 
L 525 4141 
L 1084 4478 
L 1084 3319 
L 1650 3319 
L 1650 2881 
L 1084 2881 
L 1084 941 
Q 1084 700 1114 631 
Q 1144 563 1211 522 
Q 1278 481 1403 481 
Q 1497 481 1650 503 
z
" transform="scale(0.015625)"/>
       <path id="ArialMT-20" transform="scale(0.015625)"/>
       <path id="ArialMT-6c" d="M 409 0 
L 409 4581 
L 972 4581 
L 972 0 
L 409 0 
z
" transform="scale(0.015625)"/>
       <path id="ArialMT-65" d="M 2694 1069 
L 3275 997 
Q 3138 488 2766 206 
Q 2394 -75 1816 -75 
Q 1088 -75 661 373 
Q 234 822 234 1631 
Q 234 2469 665 2931 
Q 1097 3394 1784 3394 
Q 2450 3394 2872 2941 
Q 3294 2488 3294 1666 
Q 3294 1616 3291 1516 
L 816 1516 
Q 847 969 1125 678 
Q 1403 388 1819 388 
Q 2128 388 2347 550 
Q 2566 713 2694 1069 
z
M 847 1978 
L 2700 1978 
Q 2663 2397 2488 2606 
Q 2219 2931 1791 2931 
Q 1403 2931 1139 2672 
Q 875 2413 847 1978 
z
" transform="scale(0.015625)"/>
       <path id="ArialMT-76" d="M 1344 0 
L 81 3319 
L 675 3319 
L 1388 1331 
Q 1503 1009 1600 663 
Q 1675 925 1809 1294 
L 2547 3319 
L 3125 3319 
L 1869 0 
L 1344 0 
z
" transform="scale(0.015625)"/>
      </defs>
      <use xlink:href="#ArialMT-45"/>
      <use xlink:href="#ArialMT-66" x="66.699219"/>
      <use xlink:href="#ArialMT-66" x="92.732422"/>
      <use xlink:href="#ArialMT-6f" x="120.515625"/>
      <use xlink:href="#ArialMT-72" x="176.130859"/>
      <use xlink:href="#ArialMT-74" x="209.431641"/>
      <use xlink:href="#ArialMT-20" x="237.214844"/>
      <use xlink:href="#ArialMT-6c" x="264.998047"/>
      <use xlink:href="#ArialMT-65" x="287.214844"/>
      <use xlink:href="#ArialMT-76" x="342.830078"/>
      <use xlink:href="#ArialMT-65" x="392.830078"/>
      <use xlink:href="#ArialMT-6c" x="448.445312"/>
     </g>
    </g>
   </g>
   <g id="matplotlib.axis_2">
    <g id="ytick_1">
     <g id="line2d_1">
      <path d="M 72 334.152558 
L 518.4 334.152558 
" clip-path="url(#pfe80e3eea8)" style="fill: none; stroke: #cccccc; stroke-width: 0.8; stroke-linecap: round"/>
     </g>
     <g id="text_5">
      <!-- 0 -->
      <g style="fill: #262626" transform="translate(59.439062 337.731464) scale(0.1 -0.1)">
       <defs>
        <path id="ArialMT-30" d="M 266 2259 
Q 266 3072 433 3567 
Q 600 4063 929 4331 
Q 1259 4600 1759 4600 
Q 2128 4600 2406 4451 
Q 2684 4303 2865 4023 
Q 3047 3744 3150 3342 
Q 3253 2941 3253 2259 
Q 3253 1453 3087 958 
Q 2922 463 2592 192 
Q 2263 -78 1759 -78 
Q 1097 -78 719 397 
Q 266 969 266 2259 
z
M 844 2259 
Q 844 1131 1108 757 
Q 1372 384 1759 384 
Q 2147 384 2411 759 
Q 2675 1134 2675 2259 
Q 2675 3391 2411 3762 
Q 2147 4134 1753 4134 
Q 1366 4134 1134 3806 
Q 844 3388 844 2259 
z
" transform="scale(0.015625)"/>
       </defs>
       <use xlink:href="#ArialMT-30"/>
      </g>
     </g>
    </g>
    <g id="ytick_2">
     <g id="line2d_2">
      <path d="M 72 274.019519 
L 518.4 274.019519 
" clip-path="url(#pfe80e3eea8)" style="fill: none; stroke: #cccccc; stroke-width: 0.8; stroke-linecap: round"/>
     </g>
     <g id="text_6">
      <!-- 50 -->
      <g style="fill: #262626" transform="translate(53.878125 277.598425) scale(0.1 -0.1)">
       <defs>
        <path id="ArialMT-35" d="M 266 1200 
L 856 1250 
Q 922 819 1161 601 
Q 1400 384 1738 384 
Q 2144 384 2425 690 
Q 2706 997 2706 1503 
Q 2706 1984 2436 2262 
Q 2166 2541 1728 2541 
Q 1456 2541 1237 2417 
Q 1019 2294 894 2097 
L 366 2166 
L 809 4519 
L 3088 4519 
L 3088 3981 
L 1259 3981 
L 1013 2750 
Q 1425 3038 1878 3038 
Q 2478 3038 2890 2622 
Q 3303 2206 3303 1553 
Q 3303 931 2941 478 
Q 2500 -78 1738 -78 
Q 1113 -78 717 272 
Q 322 622 266 1200 
z
" transform="scale(0.015625)"/>
       </defs>
       <use xlink:href="#ArialMT-35"/>
       <use xlink:href="#ArialMT-30" x="55.615234"/>
      </g>
     </g>
    </g>
    <g id="ytick_3">
     <g id="line2d_3">
      <path d="M 72 213.88648 
L 518.4 213.88648 
" clip-path="url(#pfe80e3eea8)" style="fill: none; stroke: #cccccc; stroke-width: 0.8; stroke-linecap: round"/>
     </g>
     <g id="text_7">
      <!-- 100 -->
      <g style="fill: #262626" transform="translate(48.317188 217.465386) scale(0.1 -0.1)">
       <use xlink:href="#ArialMT-31"/>
       <use xlink:href="#ArialMT-30" x="55.615234"/>
       <use xlink:href="#ArialMT-30" x="111.230469"/>
      </g>
     </g>
    </g>
    <g id="ytick_4">
     <g id="line2d_4">
      <path d="M 72 153.753441 
L 518.4 153.753441 
" clip-path="url(#pfe80e3eea8)" style="fill: none; stroke: #cccccc; stroke-width: 0.8; stroke-linecap: round"/>
     </g>
     <g id="text_8">
      <!-- 150 -->
      <g style="fill: #262626" transform="translate(48.317188 157.332347) scale(0.1 -0.1)">
       <use xlink:href="#ArialMT-31"/>
       <use xlink:href="#ArialMT-35" x="55.615234"/>
       <use xlink:href="#ArialMT-30" x="111.230469"/>
      </g>
     </g>
    </g>
    <g id="ytick_5">
     <g id="line2d_5">
      <path d="M 72 93.620402 
L 518.4 93.620402 
" clip-path="url(#pfe80e3eea8)" style="fill: none; stroke: #cccccc; stroke-width: 0.8; stroke-linecap: round"/>
     </g>
     <g id="text_9">
      <!-- 200 -->
      <g style="fill: #262626" transform="translate(48.317188 97.199308) scale(0.1 -0.1)">
       <use xlink:href="#ArialMT-32"/>
       <use xlink:href="#ArialMT-30" x="55.615234"/>
       <use xlink:href="#ArialMT-30" x="111.230469"/>
      </g>
     </g>
    </g>
    <g id="text_10">
     <!-- Heart rate (beats/min) -->
     <g style="fill: #262626" transform="translate(42.2125 266.784219) rotate(-90) scale(0.1 -0.1)">
      <defs>
       <path id="ArialMT-48" d="M 513 0 
L 513 4581 
L 1119 4581 
L 1119 2700 
L 3500 2700 
L 3500 4581 
L 4106 4581 
L 4106 0 
L 3500 0 
L 3500 2159 
L 1119 2159 
L 1119 0 
L 513 0 
z
" transform="scale(0.015625)"/>
       <path id="ArialMT-61" d="M 2588 409 
Q 2275 144 1986 34 
Q 1697 -75 1366 -75 
Q 819 -75 525 192 
Q 231 459 231 875 
Q 231 1119 342 1320 
Q 453 1522 633 1644 
Q 813 1766 1038 1828 
Q 1203 1872 1538 1913 
Q 2219 1994 2541 2106 
Q 2544 2222 2544 2253 
Q 2544 2597 2384 2738 
Q 2169 2928 1744 2928 
Q 1347 2928 1158 2789 
Q 969 2650 878 2297 
L 328 2372 
Q 403 2725 575 2942 
Q 747 3159 1072 3276 
Q 1397 3394 1825 3394 
Q 2250 3394 2515 3294 
Q 2781 3194 2906 3042 
Q 3031 2891 3081 2659 
Q 3109 2516 3109 2141 
L 3109 1391 
Q 3109 606 3145 398 
Q 3181 191 3288 0 
L 2700 0 
Q 2613 175 2588 409 
z
M 2541 1666 
Q 2234 1541 1622 1453 
Q 1275 1403 1131 1340 
Q 988 1278 909 1158 
Q 831 1038 831 891 
Q 831 666 1001 516 
Q 1172 366 1500 366 
Q 1825 366 2078 508 
Q 2331 650 2450 897 
Q 2541 1088 2541 1459 
L 2541 1666 
z
" transform="scale(0.015625)"/>
       <path id="ArialMT-28" d="M 1497 -1347 
Q 1031 -759 709 28 
Q 388 816 388 1659 
Q 388 2403 628 3084 
Q 909 3875 1497 4659 
L 1900 4659 
Q 1522 4009 1400 3731 
Q 1209 3300 1100 2831 
Q 966 2247 966 1656 
Q 966 153 1900 -1347 
L 1497 -1347 
z
" transform="scale(0.015625)"/>
       <path id="ArialMT-62" d="M 941 0 
L 419 0 
L 419 4581 
L 981 4581 
L 981 2947 
Q 1338 3394 1891 3394 
Q 2197 3394 2470 3270 
Q 2744 3147 2920 2923 
Q 3097 2700 3197 2384 
Q 3297 2069 3297 1709 
Q 3297 856 2875 390 
Q 2453 -75 1863 -75 
Q 1275 -75 941 416 
L 941 0 
z
M 934 1684 
Q 934 1088 1097 822 
Q 1363 388 1816 388 
Q 2184 388 2453 708 
Q 2722 1028 2722 1663 
Q 2722 2313 2464 2622 
Q 2206 2931 1841 2931 
Q 1472 2931 1203 2611 
Q 934 2291 934 1684 
z
" transform="scale(0.015625)"/>
       <path id="ArialMT-73" d="M 197 991 
L 753 1078 
Q 800 744 1014 566 
Q 1228 388 1613 388 
Q 2000 388 2187 545 
Q 2375 703 2375 916 
Q 2375 1106 2209 1216 
Q 2094 1291 1634 1406 
Q 1016 1563 777 1677 
Q 538 1791 414 1992 
Q 291 2194 291 2438 
Q 291 2659 392 2848 
Q 494 3038 669 3163 
Q 800 3259 1026 3326 
Q 1253 3394 1513 3394 
Q 1903 3394 2198 3281 
Q 2494 3169 2634 2976 
Q 2775 2784 2828 2463 
L 2278 2388 
Q 2241 2644 2061 2787 
Q 1881 2931 1553 2931 
Q 1166 2931 1000 2803 
Q 834 2675 834 2503 
Q 834 2394 903 2306 
Q 972 2216 1119 2156 
Q 1203 2125 1616 2013 
Q 2213 1853 2448 1751 
Q 2684 1650 2818 1456 
Q 2953 1263 2953 975 
Q 2953 694 2789 445 
Q 2625 197 2315 61 
Q 2006 -75 1616 -75 
Q 969 -75 630 194 
Q 291 463 197 991 
z
" transform="scale(0.015625)"/>
       <path id="ArialMT-2f" d="M 0 -78 
L 1328 4659 
L 1778 4659 
L 453 -78 
L 0 -78 
z
" transform="scale(0.015625)"/>
       <path id="ArialMT-6d" d="M 422 0 
L 422 3319 
L 925 3319 
L 925 2853 
Q 1081 3097 1340 3245 
Q 1600 3394 1931 3394 
Q 2300 3394 2536 3241 
Q 2772 3088 2869 2813 
Q 3263 3394 3894 3394 
Q 4388 3394 4653 3120 
Q 4919 2847 4919 2278 
L 4919 0 
L 4359 0 
L 4359 2091 
Q 4359 2428 4304 2576 
Q 4250 2725 4106 2815 
Q 3963 2906 3769 2906 
Q 3419 2906 3187 2673 
Q 2956 2441 2956 1928 
L 2956 0 
L 2394 0 
L 2394 2156 
Q 2394 2531 2256 2718 
Q 2119 2906 1806 2906 
Q 1569 2906 1367 2781 
Q 1166 2656 1075 2415 
Q 984 2175 984 1722 
L 984 0 
L 422 0 
z
" transform="scale(0.015625)"/>
       <path id="ArialMT-69" d="M 425 3934 
L 425 4581 
L 988 4581 
L 988 3934 
L 425 3934 
z
M 425 0 
L 425 3319 
L 988 3319 
L 988 0 
L 425 0 
z
" transform="scale(0.015625)"/>
       <path id="ArialMT-6e" d="M 422 0 
L 422 3319 
L 928 3319 
L 928 2847 
Q 1294 3394 1984 3394 
Q 2284 3394 2536 3286 
Q 2788 3178 2913 3003 
Q 3038 2828 3088 2588 
Q 3119 2431 3119 2041 
L 3119 0 
L 2556 0 
L 2556 2019 
Q 2556 2363 2490 2533 
Q 2425 2703 2258 2804 
Q 2091 2906 1866 2906 
Q 1506 2906 1245 2678 
Q 984 2450 984 1813 
L 984 0 
L 422 0 
z
" transform="scale(0.015625)"/>
       <path id="ArialMT-29" d="M 791 -1347 
L 388 -1347 
Q 1322 153 1322 1656 
Q 1322 2244 1188 2822 
Q 1081 3291 891 3722 
Q 769 4003 388 4659 
L 791 4659 
Q 1378 3875 1659 3084 
Q 1900 2403 1900 1659 
Q 1900 816 1576 28 
Q 1253 -759 791 -1347 
z
" transform="scale(0.015625)"/>
      </defs>
      <use xlink:href="#ArialMT-48"/>
      <use xlink:href="#ArialMT-65" x="72.216797"/>
      <use xlink:href="#ArialMT-61" x="127.832031"/>
      <use xlink:href="#ArialMT-72" x="183.447266"/>
      <use xlink:href="#ArialMT-74" x="216.748047"/>
      <use xlink:href="#ArialMT-20" x="244.53125"/>
      <use xlink:href="#ArialMT-72" x="272.314453"/>
      <use xlink:href="#ArialMT-61" x="305.615234"/>
      <use xlink:href="#ArialMT-74" x="361.230469"/>
      <use xlink:href="#ArialMT-65" x="389.013672"/>
      <use xlink:href="#ArialMT-20" x="444.628906"/>
      <use xlink:href="#ArialMT-28" x="472.412109"/>
      <use xlink:href="#ArialMT-62" x="505.712891"/>
      <use xlink:href="#ArialMT-65" x="561.328125"/>
      <use xlink:href="#ArialMT-61" x="616.943359"/>
      <use xlink:href="#ArialMT-74" x="672.558594"/>
      <use xlink:href="#ArialMT-73" x="700.341797"/>
      <use xlink:href="#ArialMT-2f" x="750.341797"/>
      <use xlink:href="#ArialMT-6d" x="778.125"/>
      <use xlink:href="#ArialMT-69" x="861.425781"/>
      <use xlink:href="#ArialMT-6e" x="883.642578"/>
      <use xlink:href="#ArialMT-29" x="939.257812"/>
     </g>
    </g>
   </g>
   <g id="PolyCollection_1">
    <defs>
     <path id="m4fa6375b61" d="M 117.308955 -217.289285 
L 115.971045 -217.289285 
L 115.732241 -218.575845 
L 115.427407 -219.862406 
L 115.04513 -221.148966 
L 114.57414 -222.435527 
L 114.003966 -223.722088 
L 113.325697 -225.008648 
L 112.532759 -226.295209 
L 111.621659 -227.58177 
L 110.592606 -228.86833 
L 109.449955 -230.154891 
L 108.202391 -231.441451 
L 106.862813 -232.728012 
L 105.447924 -234.014573 
L 103.977519 -235.301133 
L 102.473544 -236.587694 
L 100.959008 -237.874255 
L 99.45684 -239.160815 
L 97.988813 -240.447376 
L 96.574633 -241.733936 
L 95.231263 -243.020497 
L 93.972535 -244.307058 
L 92.809042 -245.593618 
L 91.748285 -246.880179 
L 90.794987 -248.16674 
L 89.951505 -249.4533 
L 89.218235 -250.739861 
L 88.593943 -252.026421 
L 88.075975 -253.312982 
L 87.660338 -254.599543 
L 87.34168 -255.886103 
L 87.113226 -257.172664 
L 86.966741 -258.459224 
L 86.892595 -259.745785 
L 86.88 -261.032346 
L 86.917417 -262.318906 
L 86.993166 -263.605467 
L 87.09617 -264.892028 
L 87.216783 -266.178588 
L 87.3476 -267.465149 
L 87.484163 -268.751709 
L 87.625479 -270.03827 
L 87.774272 -271.324831 
L 87.936931 -272.611391 
L 88.123141 -273.897952 
L 88.345225 -275.184513 
L 88.617233 -276.471073 
L 88.953873 -277.757634 
L 89.369358 -279.044194 
L 89.876283 -280.330755 
L 90.484622 -281.617316 
L 91.20092 -282.903876 
L 92.027755 -284.190437 
L 92.963491 -285.476998 
L 94.002322 -286.763558 
L 95.134598 -288.050119 
L 96.347362 -289.336679 
L 97.62504 -290.62324 
L 98.950225 -291.909801 
L 100.304463 -293.196361 
L 101.668996 -294.482922 
L 103.025409 -295.769482 
L 104.35617 -297.056043 
L 105.645033 -298.342604 
L 106.877338 -299.629164 
L 108.040212 -300.915725 
L 109.122698 -302.202286 
L 110.115849 -303.488846 
L 111.012793 -304.775407 
L 111.808795 -306.061967 
L 112.501313 -307.348528 
L 113.090051 -308.635089 
L 113.576988 -309.921649 
L 113.966371 -311.20821 
L 114.264653 -312.494771 
L 114.480349 -313.781331 
L 114.6238 -315.067892 
L 114.706834 -316.354452 
L 114.742325 -317.641013 
L 114.743667 -318.927574 
L 114.724176 -320.214134 
L 114.696471 -321.500695 
L 114.671876 -322.787256 
L 114.65989 -324.073816 
L 114.667775 -325.360377 
L 114.700302 -326.646937 
L 114.759682 -327.933498 
L 114.845689 -329.220059 
L 114.955947 -330.506619 
L 115.086373 -331.79318 
L 115.231699 -333.079741 
L 115.386046 -334.366301 
L 115.543461 -335.652862 
L 115.698396 -336.939422 
L 115.846081 -338.225983 
L 115.982762 -339.512544 
L 116.105817 -340.799104 
L 116.213748 -342.085665 
L 116.306079 -343.372225 
L 116.383187 -344.658786 
L 116.896813 -344.658786 
L 116.896813 -344.658786 
L 116.973921 -343.372225 
L 117.066252 -342.085665 
L 117.174183 -340.799104 
L 117.297238 -339.512544 
L 117.433919 -338.225983 
L 117.581604 -336.939422 
L 117.736539 -335.652862 
L 117.893954 -334.366301 
L 118.048301 -333.079741 
L 118.193627 -331.79318 
L 118.324053 -330.506619 
L 118.434311 -329.220059 
L 118.520318 -327.933498 
L 118.579698 -326.646937 
L 118.612225 -325.360377 
L 118.62011 -324.073816 
L 118.608124 -322.787256 
L 118.583529 -321.500695 
L 118.555824 -320.214134 
L 118.536333 -318.927574 
L 118.537675 -317.641013 
L 118.573166 -316.354452 
L 118.6562 -315.067892 
L 118.799651 -313.781331 
L 119.015347 -312.494771 
L 119.313629 -311.20821 
L 119.703012 -309.921649 
L 120.189949 -308.635089 
L 120.778687 -307.348528 
L 121.471205 -306.061967 
L 122.267207 -304.775407 
L 123.164151 -303.488846 
L 124.157302 -302.202286 
L 125.239788 -300.915725 
L 126.402662 -299.629164 
L 127.634967 -298.342604 
L 128.92383 -297.056043 
L 130.254591 -295.769482 
L 131.611004 -294.482922 
L 132.975537 -293.196361 
L 134.329775 -291.909801 
L 135.65496 -290.62324 
L 136.932638 -289.336679 
L 138.145402 -288.050119 
L 139.277678 -286.763558 
L 140.316509 -285.476998 
L 141.252245 -284.190437 
L 142.07908 -282.903876 
L 142.795378 -281.617316 
L 143.403717 -280.330755 
L 143.910642 -279.044194 
L 144.326127 -277.757634 
L 144.662767 -276.471073 
L 144.934775 -275.184513 
L 145.156859 -273.897952 
L 145.343069 -272.611391 
L 145.505728 -271.324831 
L 145.654521 -270.03827 
L 145.795837 -268.751709 
L 145.9324 -267.465149 
L 146.063217 -266.178588 
L 146.18383 -264.892028 
L 146.286834 -263.605467 
L 146.362583 -262.318906 
L 146.4 -261.032346 
L 146.387405 -259.745785 
L 146.313259 -258.459224 
L 146.166774 -257.172664 
L 145.93832 -255.886103 
L 145.619662 -254.599543 
L 145.204025 -253.312982 
L 144.686057 -252.026421 
L 144.061765 -250.739861 
L 143.328495 -249.4533 
L 142.485013 -248.16674 
L 141.531715 -246.880179 
L 140.470958 -245.593618 
L 139.307465 -244.307058 
L 138.048737 -243.020497 
L 136.705367 -241.733936 
L 135.291187 -240.447376 
L 133.82316 -239.160815 
L 132.320992 -237.874255 
L 130.806456 -236.587694 
L 129.302481 -235.301133 
L 127.832076 -234.014573 
L 126.417187 -232.728012 
L 125.077609 -231.441451 
L 123.830045 -230.154891 
L 122.687394 -228.86833 
L 121.658341 -227.58177 
L 120.747241 -226.295209 
L 119.954303 -225.008648 
L 119.276034 -223.722088 
L 118.70586 -222.435527 
L 118.23487 -221.148966 
L 117.852593 -219.862406 
L 117.547759 -218.575845 
L 117.308955 -217.289285 
z
" style="stroke: #3f3f3f; stroke-width: 1.25"/>
    </defs>
    <g clip-path="url(#pfe80e3eea8)">
     <use xlink:href="#m4fa6375b61" x="0" y="432" style="fill: #3274a1; stroke: #3f3f3f; stroke-width: 1.25"/>
    </g>
   </g>
   <g id="PolyCollection_2">
    <defs>
     <path id="mce849aa285" d="M 176.430627 -189.351628 
L 175.889373 -189.351628 
L 175.806299 -190.645647 
L 175.704112 -191.939666 
L 175.580241 -193.233685 
L 175.432149 -194.527705 
L 175.257369 -195.821724 
L 175.05351 -197.115743 
L 174.818235 -198.409762 
L 174.549195 -199.703782 
L 174.243949 -200.997801 
L 173.899855 -202.29182 
L 173.513988 -203.585839 
L 173.083084 -204.879858 
L 172.603558 -206.173878 
L 172.07161 -207.467897 
L 171.483444 -208.761916 
L 170.835589 -210.055935 
L 170.125324 -211.349954 
L 169.351153 -212.643974 
L 168.513303 -213.937993 
L 167.614166 -215.232012 
L 166.658629 -216.526031 
L 165.654237 -217.82005 
L 164.611132 -219.11407 
L 163.541751 -220.408089 
L 162.460279 -221.702108 
L 161.381892 -222.996127 
L 160.321837 -224.290146 
L 159.294447 -225.584166 
L 158.312168 -226.878185 
L 157.384708 -228.172204 
L 156.518409 -229.466223 
L 155.715903 -230.760242 
L 154.976104 -232.054262 
L 154.294556 -233.348281 
L 153.664095 -234.6423 
L 153.075754 -235.936319 
L 152.519831 -237.230339 
L 151.986982 -238.524358 
L 151.469222 -239.818377 
L 150.960733 -241.112396 
L 150.458382 -242.406415 
L 149.961925 -243.700435 
L 149.473886 -244.994454 
L 148.999177 -246.288473 
L 148.544523 -247.582492 
L 148.117818 -248.876511 
L 147.727505 -250.170531 
L 147.382062 -251.46455 
L 147.089666 -252.758569 
L 146.858033 -254.052588 
L 146.694415 -255.346607 
L 146.605692 -256.640627 
L 146.598477 -257.934646 
L 146.679166 -259.228665 
L 146.85386 -260.522684 
L 147.128133 -261.816703 
L 147.506666 -263.110723 
L 147.992766 -264.404742 
L 148.587861 -265.698761 
L 149.29103 -266.99278 
L 150.098659 -268.2868 
L 151.004269 -269.580819 
L 151.998546 -270.874838 
L 153.069578 -272.168857 
L 154.203253 -273.462876 
L 155.383802 -274.756896 
L 156.5944 -276.050915 
L 157.817818 -277.344934 
L 159.037046 -278.638953 
L 160.235901 -279.932972 
L 161.399584 -281.226992 
L 162.515185 -282.521011 
L 163.572122 -283.81503 
L 164.5625 -285.109049 
L 165.481371 -286.403068 
L 166.326842 -287.697088 
L 167.10003 -288.991107 
L 167.804818 -290.285126 
L 168.447426 -291.579145 
L 169.035798 -292.873164 
L 169.57887 -294.167184 
L 170.085774 -295.461203 
L 170.565057 -296.755222 
L 171.023997 -298.049241 
L 171.468095 -299.34326 
L 171.900777 -300.63728 
L 172.323342 -301.931299 
L 172.735133 -303.225318 
L 173.133901 -304.519337 
L 173.516298 -305.813357 
L 173.878427 -307.107376 
L 174.216391 -308.401395 
L 174.526759 -309.695414 
L 174.806935 -310.989433 
L 175.055371 -312.283453 
L 175.27166 -313.577472 
L 175.456484 -314.871491 
L 175.611483 -316.16551 
L 175.739042 -317.459529 
L 176.580958 -317.459529 
L 176.580958 -317.459529 
L 176.708517 -316.16551 
L 176.863516 -314.871491 
L 177.04834 -313.577472 
L 177.264629 -312.283453 
L 177.513065 -310.989433 
L 177.793241 -309.695414 
L 178.103609 -308.401395 
L 178.441573 -307.107376 
L 178.803702 -305.813357 
L 179.186099 -304.519337 
L 179.584867 -303.225318 
L 179.996658 -301.931299 
L 180.419223 -300.63728 
L 180.851905 -299.34326 
L 181.296003 -298.049241 
L 181.754943 -296.755222 
L 182.234226 -295.461203 
L 182.74113 -294.167184 
L 183.284202 -292.873164 
L 183.872574 -291.579145 
L 184.515182 -290.285126 
L 185.21997 -288.991107 
L 185.993158 -287.697088 
L 186.838629 -286.403068 
L 187.7575 -285.109049 
L 188.747878 -283.81503 
L 189.804815 -282.521011 
L 190.920416 -281.226992 
L 192.084099 -279.932972 
L 193.282954 -278.638953 
L 194.502182 -277.344934 
L 195.7256 -276.050915 
L 196.936198 -274.756896 
L 198.116747 -273.462876 
L 199.250422 -272.168857 
L 200.321454 -270.874838 
L 201.315731 -269.580819 
L 202.221341 -268.2868 
L 203.02897 -266.99278 
L 203.732139 -265.698761 
L 204.327234 -264.404742 
L 204.813334 -263.110723 
L 205.191867 -261.816703 
L 205.46614 -260.522684 
L 205.640834 -259.228665 
L 205.721523 -257.934646 
L 205.714308 -256.640627 
L 205.625585 -255.346607 
L 205.461967 -254.052588 
L 205.230334 -252.758569 
L 204.937938 -251.46455 
L 204.592495 -250.170531 
L 204.202182 -248.876511 
L 203.775477 -247.582492 
L 203.320823 -246.288473 
L 202.846114 -244.994454 
L 202.358075 -243.700435 
L 201.861618 -242.406415 
L 201.359267 -241.112396 
L 200.850778 -239.818377 
L 200.333018 -238.524358 
L 199.800169 -237.230339 
L 199.244246 -235.936319 
L 198.655905 -234.6423 
L 198.025444 -233.348281 
L 197.343896 -232.054262 
L 196.604097 -230.760242 
L 195.801591 -229.466223 
L 194.935292 -228.172204 
L 194.007832 -226.878185 
L 193.025553 -225.584166 
L 191.998163 -224.290146 
L 190.938108 -222.996127 
L 189.859721 -221.702108 
L 188.778249 -220.408089 
L 187.708868 -219.11407 
L 186.665763 -217.82005 
L 185.661371 -216.526031 
L 184.705834 -215.232012 
L 183.806697 -213.937993 
L 182.968847 -212.643974 
L 182.194676 -211.349954 
L 181.484411 -210.055935 
L 180.836556 -208.761916 
L 180.24839 -207.467897 
L 179.716442 -206.173878 
L 179.236916 -204.879858 
L 178.806012 -203.585839 
L 178.420145 -202.29182 
L 178.076051 -200.997801 
L 177.770805 -199.703782 
L 177.501765 -198.409762 
L 177.26649 -197.115743 
L 177.062631 -195.821724 
L 176.887851 -194.527705 
L 176.739759 -193.233685 
L 176.615888 -191.939666 
L 176.513701 -190.645647 
L 176.430627 -189.351628 
z
" style="stroke: #3f3f3f; stroke-width: 1.25"/>
    </defs>
    <g clip-path="url(#pfe80e3eea8)">
     <use xlink:href="#mce849aa285" x="0" y="432" style="fill: #e1812c; stroke: #3f3f3f; stroke-width: 1.25"/>
    </g>
   </g>
   <g id="PolyCollection_3">
    <defs>
     <path id="m4a8fdbea3d" d="M 265.885861 -216.063215 
L 264.994139 -216.063215 
L 264.836522 -217.42976 
L 264.634905 -218.796304 
L 264.381144 -220.162848 
L 264.06685 -221.529392 
L 263.683753 -222.895936 
L 263.224142 -224.262481 
L 262.681332 -225.629025 
L 262.050142 -226.995569 
L 261.327335 -228.362113 
L 260.511968 -229.728658 
L 259.605617 -231.095202 
L 258.61245 -232.461746 
L 257.539121 -233.82829 
L 256.394505 -235.194834 
L 255.189302 -236.561379 
L 253.935554 -237.927923 
L 252.646142 -239.294467 
L 251.334323 -240.661011 
L 250.013366 -242.027556 
L 248.696318 -243.3941 
L 247.395897 -244.760644 
L 246.124505 -246.127188 
L 244.894274 -247.493732 
L 243.717104 -248.860277 
L 242.604613 -250.226821 
L 241.567934 -251.593365 
L 240.617361 -252.959909 
L 239.761857 -254.326454 
L 239.008489 -255.692998 
L 238.361895 -257.059542 
L 237.823889 -258.426086 
L 237.393316 -259.79263 
L 237.066219 -261.159175 
L 236.836325 -262.525719 
L 236.695827 -263.892263 
L 236.636337 -265.258807 
L 236.649874 -266.625352 
L 236.729735 -267.991896 
L 236.871088 -269.35844 
L 237.071211 -270.724984 
L 237.329309 -272.091528 
L 237.645975 -273.458073 
L 238.022372 -274.824617 
L 238.4593 -276.191161 
L 238.956313 -277.557705 
L 239.511049 -278.92425 
L 240.118891 -280.290794 
L 240.773012 -281.657338 
L 241.464812 -283.023882 
L 242.184657 -284.390426 
L 242.9228 -285.756971 
L 243.670339 -287.123515 
L 244.420069 -288.490059 
L 245.167086 -289.856603 
L 245.909092 -291.223148 
L 246.646353 -292.589692 
L 247.381346 -293.956236 
L 248.118164 -295.32278 
L 248.861753 -296.689324 
L 249.617098 -298.055869 
L 250.388449 -299.422413 
L 251.178647 -300.788957 
L 251.988624 -302.155501 
L 252.817089 -303.522046 
L 253.660413 -304.88859 
L 254.51271 -306.255134 
L 255.366096 -307.621678 
L 256.211091 -308.988222 
L 257.03716 -310.354767 
L 257.833336 -311.721311 
L 258.588905 -313.087855 
L 259.294098 -314.454399 
L 259.94075 -315.820944 
L 260.522859 -317.187488 
L 261.037015 -318.554032 
L 261.482631 -319.920576 
L 261.861969 -321.28712 
L 262.179937 -322.653665 
L 262.443677 -324.020209 
L 262.66198 -325.386753 
L 262.844579 -326.753297 
L 263.001401 -328.119842 
L 263.141836 -329.486386 
L 263.274107 -330.85293 
L 263.404792 -332.219474 
L 263.538538 -333.586018 
L 263.677971 -334.952563 
L 263.823808 -336.319107 
L 263.975123 -337.685651 
L 264.129731 -339.052195 
L 264.284633 -340.41874 
L 264.436468 -341.785284 
L 264.581918 -343.151828 
L 264.718045 -344.518372 
L 264.842519 -345.884916 
L 264.953756 -347.251461 
L 265.050942 -348.618005 
L 265.133986 -349.984549 
L 265.203417 -351.351093 
L 265.676583 -351.351093 
L 265.676583 -351.351093 
L 265.746014 -349.984549 
L 265.829058 -348.618005 
L 265.926244 -347.251461 
L 266.037481 -345.884916 
L 266.161955 -344.518372 
L 266.298082 -343.151828 
L 266.443532 -341.785284 
L 266.595367 -340.41874 
L 266.750269 -339.052195 
L 266.904877 -337.685651 
L 267.056192 -336.319107 
L 267.202029 -334.952563 
L 267.341462 -333.586018 
L 267.475208 -332.219474 
L 267.605893 -330.85293 
L 267.738164 -329.486386 
L 267.878599 -328.119842 
L 268.035421 -326.753297 
L 268.21802 -325.386753 
L 268.436323 -324.020209 
L 268.700063 -322.653665 
L 269.018031 -321.28712 
L 269.397369 -319.920576 
L 269.842985 -318.554032 
L 270.357141 -317.187488 
L 270.93925 -315.820944 
L 271.585902 -314.454399 
L 272.291095 -313.087855 
L 273.046664 -311.721311 
L 273.84284 -310.354767 
L 274.668909 -308.988222 
L 275.513904 -307.621678 
L 276.36729 -306.255134 
L 277.219587 -304.88859 
L 278.062911 -303.522046 
L 278.891376 -302.155501 
L 279.701353 -300.788957 
L 280.491551 -299.422413 
L 281.262902 -298.055869 
L 282.018247 -296.689324 
L 282.761836 -295.32278 
L 283.498654 -293.956236 
L 284.233647 -292.589692 
L 284.970908 -291.223148 
L 285.712914 -289.856603 
L 286.459931 -288.490059 
L 287.209661 -287.123515 
L 287.9572 -285.756971 
L 288.695343 -284.390426 
L 289.415188 -283.023882 
L 290.106988 -281.657338 
L 290.761109 -280.290794 
L 291.368951 -278.92425 
L 291.923687 -277.557705 
L 292.4207 -276.191161 
L 292.857628 -274.824617 
L 293.234025 -273.458073 
L 293.550691 -272.091528 
L 293.808789 -270.724984 
L 294.008912 -269.35844 
L 294.150265 -267.991896 
L 294.230126 -266.625352 
L 294.243663 -265.258807 
L 294.184173 -263.892263 
L 294.043675 -262.525719 
L 293.813781 -261.159175 
L 293.486684 -259.79263 
L 293.056111 -258.426086 
L 292.518105 -257.059542 
L 291.871511 -255.692998 
L 291.118143 -254.326454 
L 290.262639 -252.959909 
L 289.312066 -251.593365 
L 288.275387 -250.226821 
L 287.162896 -248.860277 
L 285.985726 -247.493732 
L 284.755495 -246.127188 
L 283.484103 -244.760644 
L 282.183682 -243.3941 
L 280.866634 -242.027556 
L 279.545677 -240.661011 
L 278.233858 -239.294467 
L 276.944446 -237.927923 
L 275.690698 -236.561379 
L 274.485495 -235.194834 
L 273.340879 -233.82829 
L 272.26755 -232.461746 
L 271.274383 -231.095202 
L 270.368032 -229.728658 
L 269.552665 -228.362113 
L 268.829858 -226.995569 
L 268.198668 -225.629025 
L 267.655858 -224.262481 
L 267.196247 -222.895936 
L 266.81315 -221.529392 
L 266.498856 -220.162848 
L 266.245095 -218.796304 
L 266.043478 -217.42976 
L 265.885861 -216.063215 
z
" style="stroke: #3f3f3f; stroke-width: 1.25"/>
    </defs>
    <g clip-path="url(#pfe80e3eea8)">
     <use xlink:href="#m4a8fdbea3d" x="0" y="432" style="fill: #3274a1; stroke: #3f3f3f; stroke-width: 1.25"/>
    </g>
   </g>
   <g id="PolyCollection_4">
    <defs>
     <path id="m08fe73055c" d="M 325.194504 -173.342407 
L 324.725496 -173.342407 
L 324.65219 -174.915486 
L 324.561945 -176.488565 
L 324.452702 -178.061644 
L 324.322635 -179.634722 
L 324.17027 -181.207801 
L 323.994596 -182.78088 
L 323.795156 -184.353959 
L 323.572103 -185.927038 
L 323.326225 -187.500117 
L 323.058932 -189.073196 
L 322.772198 -190.646274 
L 322.468483 -192.219353 
L 322.150625 -193.792432 
L 321.821717 -195.365511 
L 321.484972 -196.93859 
L 321.143593 -198.511669 
L 320.800624 -200.084747 
L 320.458805 -201.657826 
L 320.120412 -203.230905 
L 319.787092 -204.803984 
L 319.459691 -206.377063 
L 319.138093 -207.950142 
L 318.821077 -209.523221 
L 318.506231 -211.096299 
L 318.189927 -212.669378 
L 317.8674 -214.242457 
L 317.532932 -215.815536 
L 317.180139 -217.388615 
L 316.802348 -218.961694 
L 316.393033 -220.534773 
L 315.94625 -222.107851 
L 315.457022 -223.68093 
L 314.921616 -225.254009 
L 314.337669 -226.827088 
L 313.704136 -228.400167 
L 313.021066 -229.973246 
L 312.289258 -231.546325 
L 311.509839 -233.119403 
L 310.68388 -234.692482 
L 309.812137 -236.265561 
L 308.895006 -237.83864 
L 307.93275 -239.411719 
L 306.926034 -240.984798 
L 305.876708 -242.557876 
L 304.788777 -244.130955 
L 303.669412 -245.704034 
L 302.529834 -247.277113 
L 301.385929 -248.850192 
L 300.258428 -250.423271 
L 299.172575 -251.99635 
L 298.157238 -253.569428 
L 297.24352 -255.142507 
L 296.462964 -256.715586 
L 295.845544 -258.288665 
L 295.417607 -259.861744 
L 295.2 -261.434823 
L 295.206539 -263.007902 
L 295.442968 -264.58098 
L 295.906484 -266.154059 
L 296.585846 -267.727138 
L 297.462029 -269.300217 
L 298.509345 -270.873296 
L 299.696912 -272.446375 
L 300.990344 -274.019453 
L 302.353557 -275.592532 
L 303.750549 -277.165611 
L 305.147085 -278.73869 
L 306.512194 -280.311769 
L 307.819424 -281.884848 
L 309.047804 -283.457927 
L 310.182485 -285.031005 
L 311.215022 -286.604084 
L 312.143299 -288.177163 
L 312.971087 -289.750242 
L 313.707264 -291.323321 
L 314.364746 -292.8964 
L 314.95919 -294.469479 
L 315.507573 -296.042557 
L 316.026747 -297.615636 
L 316.532097 -299.188715 
L 317.036407 -300.761794 
L 317.549028 -302.334873 
L 318.075408 -303.907952 
L 318.617002 -305.481031 
L 319.171561 -307.054109 
L 319.733721 -308.627188 
L 320.295823 -310.200267 
L 320.848856 -311.773346 
L 321.38342 -313.346425 
L 321.890595 -314.919504 
L 322.362671 -316.492582 
L 322.793656 -318.065661 
L 323.179569 -319.63874 
L 323.518502 -321.211819 
L 323.810507 -322.784898 
L 324.057326 -324.357977 
L 324.262045 -325.931056 
L 324.428692 -327.504134 
L 324.561851 -329.077213 
L 325.358149 -329.077213 
L 325.358149 -329.077213 
L 325.491308 -327.504134 
L 325.657955 -325.931056 
L 325.862674 -324.357977 
L 326.109493 -322.784898 
L 326.401498 -321.211819 
L 326.740431 -319.63874 
L 327.126344 -318.065661 
L 327.557329 -316.492582 
L 328.029405 -314.919504 
L 328.53658 -313.346425 
L 329.071144 -311.773346 
L 329.624177 -310.200267 
L 330.186279 -308.627188 
L 330.748439 -307.054109 
L 331.302998 -305.481031 
L 331.844592 -303.907952 
L 332.370972 -302.334873 
L 332.883593 -300.761794 
L 333.387903 -299.188715 
L 333.893253 -297.615636 
L 334.412427 -296.042557 
L 334.96081 -294.469479 
L 335.555254 -292.8964 
L 336.212736 -291.323321 
L 336.948913 -289.750242 
L 337.776701 -288.177163 
L 338.704978 -286.604084 
L 339.737515 -285.031005 
L 340.872196 -283.457927 
L 342.100576 -281.884848 
L 343.407806 -280.311769 
L 344.772915 -278.73869 
L 346.169451 -277.165611 
L 347.566443 -275.592532 
L 348.929656 -274.019453 
L 350.223088 -272.446375 
L 351.410655 -270.873296 
L 352.457971 -269.300217 
L 353.334154 -267.727138 
L 354.013516 -266.154059 
L 354.477032 -264.58098 
L 354.713461 -263.007902 
L 354.72 -261.434823 
L 354.502393 -259.861744 
L 354.074456 -258.288665 
L 353.457036 -256.715586 
L 352.67648 -255.142507 
L 351.762762 -253.569428 
L 350.747425 -251.99635 
L 349.661572 -250.423271 
L 348.534071 -248.850192 
L 347.390166 -247.277113 
L 346.250588 -245.704034 
L 345.131223 -244.130955 
L 344.043292 -242.557876 
L 342.993966 -240.984798 
L 341.98725 -239.411719 
L 341.024994 -237.83864 
L 340.107863 -236.265561 
L 339.23612 -234.692482 
L 338.410161 -233.119403 
L 337.630742 -231.546325 
L 336.898934 -229.973246 
L 336.215864 -228.400167 
L 335.582331 -226.827088 
L 334.998384 -225.254009 
L 334.462978 -223.68093 
L 333.97375 -222.107851 
L 333.526967 -220.534773 
L 333.117652 -218.961694 
L 332.739861 -217.388615 
L 332.387068 -215.815536 
L 332.0526 -214.242457 
L 331.730073 -212.669378 
L 331.413769 -211.096299 
L 331.098923 -209.523221 
L 330.781907 -207.950142 
L 330.460309 -206.377063 
L 330.132908 -204.803984 
L 329.799588 -203.230905 
L 329.461195 -201.657826 
L 329.119376 -200.084747 
L 328.776407 -198.511669 
L 328.435028 -196.93859 
L 328.098283 -195.365511 
L 327.769375 -193.792432 
L 327.451517 -192.219353 
L 327.147802 -190.646274 
L 326.861068 -189.073196 
L 326.593775 -187.500117 
L 326.347897 -185.927038 
L 326.124844 -184.353959 
L 325.925404 -182.78088 
L 325.74973 -181.207801 
L 325.597365 -179.634722 
L 325.467298 -178.061644 
L 325.358055 -176.488565 
L 325.26781 -174.915486 
L 325.194504 -173.342407 
z
" style="stroke: #3f3f3f; stroke-width: 1.25"/>
    </defs>
    <g clip-path="url(#pfe80e3eea8)">
     <use xlink:href="#m08fe73055c" x="0" y="432" style="fill: #e1812c; stroke: #3f3f3f; stroke-width: 1.25"/>
    </g>
   </g>
   <g id="PolyCollection_5">
    <defs>
     <path id="m966d0fcf05" d="M 414.378129 -62.64 
L 414.101871 -62.64 
L 414.047486 -65.694545 
L 413.979647 -68.749091 
L 413.898345 -71.803636 
L 413.804951 -74.858182 
L 413.702459 -77.912727 
L 413.59552 -80.967273 
L 413.490223 -84.021818 
L 413.393595 -87.076364 
L 413.312852 -90.130909 
L 413.254529 -93.185455 
L 413.223605 -96.24 
L 413.222801 -99.294545 
L 413.25219 -102.349091 
L 413.309182 -105.403636 
L 413.3889 -108.458182 
L 413.484872 -111.512727 
L 413.589893 -114.567273 
L 413.696908 -117.621818 
L 413.799764 -120.676364 
L 413.893724 -123.730909 
L 413.975708 -126.785455 
L 414.044265 -129.84 
L 414.099338 -132.894545 
L 414.141913 -135.949091 
L 414.17363 -139.003636 
L 414.196423 -142.058182 
L 414.212236 -145.112727 
L 414.222834 -148.167273 
L 414.229697 -151.221818 
L 414.233989 -154.276364 
L 414.236573 -157.330909 
L 414.238051 -160.385455 
L 414.238808 -163.44 
L 414.239057 -166.494545 
L 414.23885 -169.549091 
L 414.238083 -172.603636 
L 414.236446 -175.658182 
L 414.233343 -178.712727 
L 414.227749 -181.767273 
L 414.218002 -184.821818 
L 414.201522 -187.876364 
L 414.174451 -190.930909 
L 414.131233 -193.985455 
L 414.064164 -197.04 
L 413.962981 -200.094545 
L 413.814567 -203.149091 
L 413.602893 -206.203636 
L 413.309303 -209.258182 
L 412.913243 -212.312727 
L 412.393489 -215.367273 
L 411.729853 -218.421818 
L 410.90524 -221.476364 
L 409.907877 -224.530909 
L 408.73342 -227.585455 
L 407.386659 -230.64 
L 405.88256 -233.694545 
L 404.24648 -236.749091 
L 402.513514 -239.803636 
L 400.727059 -242.858182 
L 398.936779 -245.912727 
L 397.196185 -248.967273 
L 395.560011 -252.021818 
L 394.081523 -255.076364 
L 392.809798 -258.130909 
L 391.787013 -261.185455 
L 391.045803 -264.24 
L 390.606854 -267.294545 
L 390.477037 -270.349091 
L 390.648448 -273.403636 
L 391.098723 -276.458182 
L 391.792852 -279.512727 
L 392.68646 -282.567273 
L 393.730192 -285.621818 
L 394.874582 -288.676364 
L 396.074614 -291.730909 
L 397.293231 -294.785455 
L 398.503265 -297.84 
L 399.687596 -300.894545 
L 400.837765 -303.949091 
L 401.951532 -307.003636 
L 403.030048 -310.058182 
L 404.075271 -313.112727 
L 405.088075 -316.167273 
L 406.067243 -319.221818 
L 407.009305 -322.276364 
L 407.908974 -325.330909 
L 408.759914 -328.385455 
L 409.555568 -331.44 
L 410.289884 -334.494545 
L 410.957875 -337.549091 
L 411.556008 -340.603636 
L 412.082456 -343.658182 
L 412.53724 -346.712727 
L 412.922264 -349.767273 
L 413.241231 -352.821818 
L 413.499423 -355.876364 
L 413.703359 -358.930909 
L 413.860346 -361.985455 
L 413.977997 -365.04 
L 414.502003 -365.04 
L 414.502003 -365.04 
L 414.619654 -361.985455 
L 414.776641 -358.930909 
L 414.980577 -355.876364 
L 415.238769 -352.821818 
L 415.557736 -349.767273 
L 415.94276 -346.712727 
L 416.397544 -343.658182 
L 416.923992 -340.603636 
L 417.522125 -337.549091 
L 418.190116 -334.494545 
L 418.924432 -331.44 
L 419.720086 -328.385455 
L 420.571026 -325.330909 
L 421.470695 -322.276364 
L 422.412757 -319.221818 
L 423.391925 -316.167273 
L 424.404729 -313.112727 
L 425.449952 -310.058182 
L 426.528468 -307.003636 
L 427.642235 -303.949091 
L 428.792404 -300.894545 
L 429.976735 -297.84 
L 431.186769 -294.785455 
L 432.405386 -291.730909 
L 433.605418 -288.676364 
L 434.749808 -285.621818 
L 435.79354 -282.567273 
L 436.687148 -279.512727 
L 437.381277 -276.458182 
L 437.831552 -273.403636 
L 438.002963 -270.349091 
L 437.873146 -267.294545 
L 437.434197 -264.24 
L 436.692987 -261.185455 
L 435.670202 -258.130909 
L 434.398477 -255.076364 
L 432.919989 -252.021818 
L 431.283815 -248.967273 
L 429.543221 -245.912727 
L 427.752941 -242.858182 
L 425.966486 -239.803636 
L 424.23352 -236.749091 
L 422.59744 -233.694545 
L 421.093341 -230.64 
L 419.74658 -227.585455 
L 418.572123 -224.530909 
L 417.57476 -221.476364 
L 416.750147 -218.421818 
L 416.086511 -215.367273 
L 415.566757 -212.312727 
L 415.170697 -209.258182 
L 414.877107 -206.203636 
L 414.665433 -203.149091 
L 414.517019 -200.094545 
L 414.415836 -197.04 
L 414.348767 -193.985455 
L 414.305549 -190.930909 
L 414.278478 -187.876364 
L 414.261998 -184.821818 
L 414.252251 -181.767273 
L 414.246657 -178.712727 
L 414.243554 -175.658182 
L 414.241917 -172.603636 
L 414.24115 -169.549091 
L 414.240943 -166.494545 
L 414.241192 -163.44 
L 414.241949 -160.385455 
L 414.243427 -157.330909 
L 414.246011 -154.276364 
L 414.250303 -151.221818 
L 414.257166 -148.167273 
L 414.267764 -145.112727 
L 414.283577 -142.058182 
L 414.30637 -139.003636 
L 414.338087 -135.949091 
L 414.380662 -132.894545 
L 414.435735 -129.84 
L 414.504292 -126.785455 
L 414.586276 -123.730909 
L 414.680236 -120.676364 
L 414.783092 -117.621818 
L 414.890107 -114.567273 
L 414.995128 -111.512727 
L 415.0911 -108.458182 
L 415.170818 -105.403636 
L 415.22781 -102.349091 
L 415.257199 -99.294545 
L 415.256395 -96.24 
L 415.225471 -93.185455 
L 415.167148 -90.130909 
L 415.086405 -87.076364 
L 414.989777 -84.021818 
L 414.88448 -80.967273 
L 414.777541 -77.912727 
L 414.675049 -74.858182 
L 414.581655 -71.803636 
L 414.500353 -68.749091 
L 414.432514 -65.694545 
L 414.378129 -62.64 
z
" style="stroke: #3f3f3f; stroke-width: 1.25"/>
    </defs>
    <g clip-path="url(#pfe80e3eea8)">
     <use xlink:href="#m966d0fcf05" x="0" y="432" style="fill: #3274a1; stroke: #3f3f3f; stroke-width: 1.25"/>
    </g>
   </g>
   <g id="PolyCollection_6">
    <defs>
     <path id="me513c3db94" d="M 473.998944 -182.125132 
L 473.521056 -182.125132 
L 473.448955 -183.595478 
L 473.360545 -185.065823 
L 473.253734 -186.536169 
L 473.126552 -188.006515 
L 472.977225 -189.47686 
L 472.804264 -190.947206 
L 472.606532 -192.417552 
L 472.383297 -193.887897 
L 472.134278 -195.358243 
L 471.859667 -196.828588 
L 471.560142 -198.298934 
L 471.236872 -199.76928 
L 470.89151 -201.239625 
L 470.526186 -202.709971 
L 470.143484 -204.180317 
L 469.746402 -205.650662 
L 469.338287 -207.121008 
L 468.922725 -208.591354 
L 468.50339 -210.061699 
L 468.083825 -211.532045 
L 467.667193 -213.002391 
L 467.255983 -214.472736 
L 466.851716 -215.943082 
L 466.454687 -217.413427 
L 466.063779 -218.883773 
L 465.676393 -220.354119 
L 465.288518 -221.824464 
L 464.894955 -223.29481 
L 464.489684 -224.765156 
L 464.066338 -226.235501 
L 463.618718 -227.705847 
L 463.141301 -229.176193 
L 462.629648 -230.646538 
L 462.080666 -232.116884 
L 461.492692 -233.587229 
L 460.865374 -235.057575 
L 460.199418 -236.527921 
L 459.496233 -237.998266 
L 458.757578 -239.468612 
L 457.9853 -240.938958 
L 457.18124 -242.409303 
L 456.347358 -243.879649 
L 455.486073 -245.349995 
L 454.600788 -246.82034 
L 453.696497 -248.290686 
L 452.780371 -249.761032 
L 451.862185 -251.231377 
L 450.954484 -252.701723 
L 450.072402 -254.172068 
L 449.233116 -255.642414 
L 448.454967 -257.11276 
L 447.756347 -258.583105 
L 447.154468 -260.053451 
L 446.664177 -261.523797 
L 446.296965 -262.994142 
L 446.060269 -264.464488 
L 445.957164 -265.934834 
L 445.986435 -267.405179 
L 446.143016 -268.875525 
L 446.418695 -270.34587 
L 446.80298 -271.816216 
L 447.28402 -273.286562 
L 447.849462 -274.756907 
L 448.487167 -276.227253 
L 449.185742 -277.697599 
L 449.934875 -279.167944 
L 450.725487 -280.63829 
L 451.549742 -282.108636 
L 452.400975 -283.578981 
L 453.273553 -285.049327 
L 454.162744 -286.519673 
L 455.064588 -287.990018 
L 455.97578 -289.460364 
L 456.893575 -290.930709 
L 457.815673 -292.401055 
L 458.740104 -293.871401 
L 459.665071 -295.341746 
L 460.588772 -296.812092 
L 461.509201 -298.282438 
L 462.423947 -299.752783 
L 463.330028 -301.223129 
L 464.22376 -302.693475 
L 465.100725 -304.16382 
L 465.955813 -305.634166 
L 466.783368 -307.104511 
L 467.577426 -308.574857 
L 468.332014 -310.045203 
L 469.041492 -311.515548 
L 469.700889 -312.985894 
L 470.306214 -314.45624 
L 470.854697 -315.926585 
L 471.344936 -317.396931 
L 471.776958 -318.867277 
L 472.152163 -320.337622 
L 472.47319 -321.807968 
L 472.743708 -323.278314 
L 472.968161 -324.748659 
L 473.151497 -326.219005 
L 473.298892 -327.68935 
L 474.221108 -327.68935 
L 474.221108 -327.68935 
L 474.368503 -326.219005 
L 474.551839 -324.748659 
L 474.776292 -323.278314 
L 475.04681 -321.807968 
L 475.367837 -320.337622 
L 475.743042 -318.867277 
L 476.175064 -317.396931 
L 476.665303 -315.926585 
L 477.213786 -314.45624 
L 477.819111 -312.985894 
L 478.478508 -311.515548 
L 479.187986 -310.045203 
L 479.942574 -308.574857 
L 480.736632 -307.104511 
L 481.564187 -305.634166 
L 482.419275 -304.16382 
L 483.29624 -302.693475 
L 484.189972 -301.223129 
L 485.096053 -299.752783 
L 486.010799 -298.282438 
L 486.931228 -296.812092 
L 487.854929 -295.341746 
L 488.779896 -293.871401 
L 489.704327 -292.401055 
L 490.626425 -290.930709 
L 491.54422 -289.460364 
L 492.455412 -287.990018 
L 493.357256 -286.519673 
L 494.246447 -285.049327 
L 495.119025 -283.578981 
L 495.970258 -282.108636 
L 496.794513 -280.63829 
L 497.585125 -279.167944 
L 498.334258 -277.697599 
L 499.032833 -276.227253 
L 499.670538 -274.756907 
L 500.23598 -273.286562 
L 500.71702 -271.816216 
L 501.101305 -270.34587 
L 501.376984 -268.875525 
L 501.533565 -267.405179 
L 501.562836 -265.934834 
L 501.459731 -264.464488 
L 501.223035 -262.994142 
L 500.855823 -261.523797 
L 500.365532 -260.053451 
L 499.763653 -258.583105 
L 499.065033 -257.11276 
L 498.286884 -255.642414 
L 497.447598 -254.172068 
L 496.565516 -252.701723 
L 495.657815 -251.231377 
L 494.739629 -249.761032 
L 493.823503 -248.290686 
L 492.919212 -246.82034 
L 492.033927 -245.349995 
L 491.172642 -243.879649 
L 490.33876 -242.409303 
L 489.5347 -240.938958 
L 488.762422 -239.468612 
L 488.023767 -237.998266 
L 487.320582 -236.527921 
L 486.654626 -235.057575 
L 486.027308 -233.587229 
L 485.439334 -232.116884 
L 484.890352 -230.646538 
L 484.378699 -229.176193 
L 483.901282 -227.705847 
L 483.453662 -226.235501 
L 483.030316 -224.765156 
L 482.625045 -223.29481 
L 482.231482 -221.824464 
L 481.843607 -220.354119 
L 481.456221 -218.883773 
L 481.065313 -217.413427 
L 480.668284 -215.943082 
L 480.264017 -214.472736 
L 479.852807 -213.002391 
L 479.436175 -211.532045 
L 479.01661 -210.061699 
L 478.597275 -208.591354 
L 478.181713 -207.121008 
L 477.773598 -205.650662 
L 477.376516 -204.180317 
L 476.993814 -202.709971 
L 476.62849 -201.239625 
L 476.283128 -199.76928 
L 475.959858 -198.298934 
L 475.660333 -196.828588 
L 475.385722 -195.358243 
L 475.136703 -193.887897 
L 474.913468 -192.417552 
L 474.715736 -190.947206 
L 474.542775 -189.47686 
L 474.393448 -188.006515 
L 474.266266 -186.536169 
L 474.159455 -185.065823 
L 474.071045 -183.595478 
L 473.998944 -182.125132 
z
" style="stroke: #3f3f3f; stroke-width: 1.25"/>
    </defs>
    <g clip-path="url(#pfe80e3eea8)">
     <use xlink:href="#me513c3db94" x="0" y="432" style="fill: #e1812c; stroke: #3f3f3f; stroke-width: 1.25"/>
    </g>
   </g>
   <g id="patch_3">
    <path d="M 146.4 334.152558 
L 146.4 334.152558 
L 146.4 334.152558 
L 146.4 334.152558 
z
" clip-path="url(#pfe80e3eea8)" style="fill: #3274a1; stroke: #3f3f3f; stroke-width: 1.25; stroke-linejoin: miter"/>
   </g>
   <g id="patch_4">
    <path d="M 146.4 334.152558 
L 146.4 334.152558 
L 146.4 334.152558 
L 146.4 334.152558 
z
" clip-path="url(#pfe80e3eea8)" style="fill: #e1812c; stroke: #3f3f3f; stroke-width: 1.25; stroke-linejoin: miter"/>
   </g>
   <g id="line2d_6">
    <path d="M 116.64 195.771589 
L 116.64 131.808135 
" clip-path="url(#pfe80e3eea8)" style="fill: none; stroke: #3f3f3f; stroke-width: 1.875; stroke-linecap: round"/>
   </g>
   <g id="line2d_7">
    <path d="M 116.64 178.225724 
L 116.64 151.406496 
" clip-path="url(#pfe80e3eea8)" style="fill: none; stroke: #3f3f3f; stroke-width: 5.625; stroke-linecap: round"/>
   </g>
   <g id="line2d_8">
    <path d="M 116.64 165.798607 
" clip-path="url(#pfe80e3eea8)" style="fill: none; stroke: #3f3f3f; stroke-width: 1.5; stroke-linecap: round"/>
    <defs>
     <path id="m071081199d" d="M 2.34375 0 
L -2.34375 -0 
" style="stroke: #ffffff; stroke-width: 1.125"/>
    </defs>
    <g clip-path="url(#pfe80e3eea8)">
     <use xlink:href="#m071081199d" x="116.64" y="165.798607" style="fill: #ffffff; stroke: #ffffff; stroke-width: 1.125"/>
    </g>
   </g>
   <g id="line2d_9">
    <path d="M 176.16 222.704049 
L 176.16 134.484794 
" clip-path="url(#pfe80e3eea8)" style="fill: none; stroke: #3f3f3f; stroke-width: 1.875; stroke-linecap: round"/>
   </g>
   <g id="line2d_10">
    <path d="M 176.16 195.028879 
L 176.16 164.535197 
" clip-path="url(#pfe80e3eea8)" style="fill: none; stroke: #3f3f3f; stroke-width: 5.625; stroke-linecap: round"/>
   </g>
   <g id="line2d_11">
    <path d="M 176.16 179.1591 
" clip-path="url(#pfe80e3eea8)" style="fill: none; stroke: #3f3f3f; stroke-width: 1.5; stroke-linecap: round"/>
    <g clip-path="url(#pfe80e3eea8)">
     <use xlink:href="#m071081199d" x="176.16" y="179.1591" style="fill: #ffffff; stroke: #ffffff; stroke-width: 1.125"/>
    </g>
   </g>
   <g id="line2d_12">
    <path d="M 265.44 195.316997 
L 265.44 122.715592 
" clip-path="url(#pfe80e3eea8)" style="fill: none; stroke: #3f3f3f; stroke-width: 1.875; stroke-linecap: round"/>
   </g>
   <g id="line2d_13">
    <path d="M 265.44 174.458428 
L 265.44 145.414533 
" clip-path="url(#pfe80e3eea8)" style="fill: none; stroke: #3f3f3f; stroke-width: 5.625; stroke-linecap: round"/>
   </g>
   <g id="line2d_14">
    <path d="M 265.44 159.926255 
" clip-path="url(#pfe80e3eea8)" style="fill: none; stroke: #3f3f3f; stroke-width: 1.5; stroke-linecap: round"/>
    <g clip-path="url(#pfe80e3eea8)">
     <use xlink:href="#m071081199d" x="265.44" y="159.926255" style="fill: #ffffff; stroke: #ffffff; stroke-width: 1.125"/>
    </g>
   </g>
   <g id="line2d_15">
    <path d="M 324.96 224.00529 
L 324.96 126.855218 
" clip-path="url(#pfe80e3eea8)" style="fill: none; stroke: #3f3f3f; stroke-width: 1.875; stroke-linecap: round"/>
   </g>
   <g id="line2d_16">
    <path d="M 324.96 189.599365 
L 324.96 160.925262 
" clip-path="url(#pfe80e3eea8)" style="fill: none; stroke: #3f3f3f; stroke-width: 5.625; stroke-linecap: round"/>
   </g>
   <g id="line2d_17">
    <path d="M 324.96 173.400556 
" clip-path="url(#pfe80e3eea8)" style="fill: none; stroke: #3f3f3f; stroke-width: 1.5; stroke-linecap: round"/>
    <g clip-path="url(#pfe80e3eea8)">
     <use xlink:href="#m071081199d" x="324.96" y="173.400556" style="fill: #ffffff; stroke: #ffffff; stroke-width: 1.125"/>
    </g>
   </g>
   <g id="line2d_18">
    <path d="M 414.24 194.155924 
L 414.24 102.167442 
" clip-path="url(#pfe80e3eea8)" style="fill: none; stroke: #3f3f3f; stroke-width: 1.875; stroke-linecap: round"/>
   </g>
   <g id="line2d_19">
    <path d="M 414.24 173.217397 
L 414.24 142.466037 
" clip-path="url(#pfe80e3eea8)" style="fill: none; stroke: #3f3f3f; stroke-width: 5.625; stroke-linecap: round"/>
   </g>
   <g id="line2d_20">
    <path d="M 414.24 157.961917 
" clip-path="url(#pfe80e3eea8)" style="fill: none; stroke: #3f3f3f; stroke-width: 1.5; stroke-linecap: round"/>
    <g clip-path="url(#pfe80e3eea8)">
     <use xlink:href="#m071081199d" x="414.24" y="157.961917" style="fill: #ffffff; stroke: #ffffff; stroke-width: 1.125"/>
    </g>
   </g>
   <g id="line2d_21">
    <path d="M 473.76 226.714017 
L 473.76 127.471501 
" clip-path="url(#pfe80e3eea8)" style="fill: none; stroke: #3f3f3f; stroke-width: 1.875; stroke-linecap: round"/>
   </g>
   <g id="line2d_22">
    <path d="M 473.76 187.506134 
L 473.76 152.788823 
" clip-path="url(#pfe80e3eea8)" style="fill: none; stroke: #3f3f3f; stroke-width: 5.625; stroke-linecap: round"/>
   </g>
   <g id="line2d_23">
    <path d="M 473.76 169.045563 
" clip-path="url(#pfe80e3eea8)" style="fill: none; stroke: #3f3f3f; stroke-width: 1.5; stroke-linecap: round"/>
    <g clip-path="url(#pfe80e3eea8)">
     <use xlink:href="#m071081199d" x="473.76" y="169.045563" style="fill: #ffffff; stroke: #ffffff; stroke-width: 1.125"/>
    </g>
   </g>
   <g id="patch_5">
    <path d="M 72 384.48 
L 72 51.84 
" style="fill: none; stroke: #cccccc; stroke-width: 0.8; stroke-linejoin: miter; stroke-linecap: square"/>
   </g>
   <g id="patch_6">
    <path d="M 518.4 384.48 
L 518.4 51.84 
" style="fill: none; stroke: #cccccc; stroke-width: 0.8; stroke-linejoin: miter; stroke-linecap: square"/>
   </g>
   <g id="patch_7">
    <path d="M 72 384.48 
L 518.4 384.48 
" style="fill: none; stroke: #cccccc; stroke-width: 0.8; stroke-linejoin: miter; stroke-linecap: square"/>
   </g>
   <g id="patch_8">
    <path d="M 72 51.84 
L 518.4 51.84 
" style="fill: none; stroke: #cccccc; stroke-width: 0.8; stroke-linejoin: miter; stroke-linecap: square"/>
   </g>
   <g id="legend_1">
    <g id="patch_9">
     <path d="M 456.6125 379.48 
L 511.4 379.48 
Q 513.4 379.48 513.4 377.48 
L 513.4 336.044062 
Q 513.4 334.044062 511.4 334.044062 
L 456.6125 334.044062 
Q 454.6125 334.044062 454.6125 336.044062 
L 454.6125 377.48 
Q 454.6125 379.48 456.6125 379.48 
z
" style="fill: #ffffff; opacity: 0.8; stroke: #cccccc; stroke-linejoin: miter"/>
    </g>
    <g id="text_11">
     <!-- Time -->
     <g style="fill: #262626" transform="translate(473.083594 345.201875) scale(0.1 -0.1)">
      <defs>
       <path id="ArialMT-54" d="M 1659 0 
L 1659 4041 
L 150 4041 
L 150 4581 
L 3781 4581 
L 3781 4041 
L 2266 4041 
L 2266 0 
L 1659 0 
z
" transform="scale(0.015625)"/>
      </defs>
      <use xlink:href="#ArialMT-54"/>
      <use xlink:href="#ArialMT-69" x="57.333984"/>
      <use xlink:href="#ArialMT-6d" x="79.550781"/>
      <use xlink:href="#ArialMT-65" x="162.851562"/>
     </g>
    </g>
    <g id="patch_10">
     <path d="M 458.6125 359.347188 
L 478.6125 359.347188 
L 478.6125 352.347188 
L 458.6125 352.347188 
z
" style="fill: #3274a1; stroke: #3f3f3f; stroke-width: 1.25; stroke-linejoin: miter"/>
    </g>
    <g id="text_12">
     <!-- initial -->
     <g style="fill: #262626" transform="translate(486.6125 359.347188) scale(0.1 -0.1)">
      <use xlink:href="#ArialMT-69"/>
      <use xlink:href="#ArialMT-6e" x="22.216797"/>
      <use xlink:href="#ArialMT-69" x="77.832031"/>
      <use xlink:href="#ArialMT-74" x="100.048828"/>
      <use xlink:href="#ArialMT-69" x="127.832031"/>
      <use xlink:href="#ArialMT-61" x="150.048828"/>
      <use xlink:href="#ArialMT-6c" x="205.664062"/>
     </g>
    </g>
    <g id="patch_11">
     <path d="M 458.6125 373.4925 
L 478.6125 373.4925 
L 478.6125 366.4925 
L 458.6125 366.4925 
z
" style="fill: #e1812c; stroke: #3f3f3f; stroke-width: 1.25; stroke-linejoin: miter"/>
    </g>
    <g id="text_13">
     <!-- final -->
     <g style="fill: #262626" transform="translate(486.6125 373.4925) scale(0.1 -0.1)">
      <use xlink:href="#ArialMT-66"/>
      <use xlink:href="#ArialMT-69" x="27.783203"/>
      <use xlink:href="#ArialMT-6e" x="50"/>
      <use xlink:href="#ArialMT-61" x="105.615234"/>
      <use xlink:href="#ArialMT-6c" x="161.230469"/>
     </g>
    </g>
   </g>
  </g>
 </g>
 <defs>
  <clipPath id="pfe80e3eea8">
   <rect x="72" y="51.84" width="446.4" height="332.64"/>
  </clipPath>
 </defs>
</svg>
