<?xml version="1.0" encoding="utf-8" standalone="no"?>
<!DOCTYPE svg PUBLIC "-//W3C//DTD SVG 1.1//EN"
  "http://www.w3.org/Graphics/SVG/1.1/DTD/svg11.dtd">
<svg xmlns:xlink="http://www.w3.org/1999/xlink" width="576pt" height="432pt" viewBox="0 0 576 432" xmlns="http://www.w3.org/2000/svg" version="1.1">
 <metadata>
  <rdf:RDF xmlns:dc="http://purl.org/dc/elements/1.1/" xmlns:cc="http://creativecommons.org/ns#" xmlns:rdf="http://www.w3.org/1999/02/22-rdf-syntax-ns#">
   <cc:Work>
    <dc:type rdf:resource="http://purl.org/dc/dcmitype/StillImage"/>
    <dc:date>2024-09-09T17:20:19.717988</dc:date>
    <dc:format>image/svg+xml</dc:format>
    <dc:creator>
     <cc:Agent>
      <dc:title>Matplotlib v3.8.3, https://matplotlib.org/</dc:title>
     </cc:Agent>
    </dc:creator>
   </cc:Work>
  </rdf:RDF>
 </metadata>
 <defs>
  <style type="text/css">*{stroke-linejoin: round; stroke-linecap: butt}</style>
 </defs>
 <g id="figure_1">
  <g id="patch_1">
   <path d="M 0 432 
L 576 432 
L 576 0 
L 0 0 
z
" style="fill: #ffffff"/>
  </g>
  <g id="axes_1">
   <g id="patch_2">
    <path d="M 72 384.48 
L 518.4 384.48 
L 518.4 51.84 
L 72 51.84 
z
" style="fill: #ffffff"/>
   </g>
   <g id="matplotlib.axis_1">
    <g id="xtick_1">
     <g id="text_1">
      <!-- 1 -->
      <g style="fill: #262626" transform="translate(143.619531 398.637812) scale(0.1 -0.1)">
       <defs>
        <path id="ArialMT-31" d="M 2384 0 
L 1822 0 
L 1822 3584 
Q 1619 3391 1289 3197 
Q 959 3003 697 2906 
L 697 3450 
Q 1169 3672 1522 3987 
Q 1875 4303 2022 4600 
L 2384 4600 
L 2384 0 
z
" transform="scale(0.015625)"/>
       </defs>
       <use xlink:href="#ArialMT-31"/>
      </g>
     </g>
    </g>
    <g id="xtick_2">
     <g id="text_2">
      <!-- 2 -->
      <g style="fill: #262626" transform="translate(292.419531 398.637812) scale(0.1 -0.1)">
       <defs>
        <path id="ArialMT-32" d="M 3222 541 
L 3222 0 
L 194 0 
Q 188 203 259 391 
Q 375 700 629 1000 
Q 884 1300 1366 1694 
Q 2113 2306 2375 2664 
Q 2638 3022 2638 3341 
Q 2638 3675 2398 3904 
Q 2159 4134 1775 4134 
Q 1369 4134 1125 3890 
Q 881 3647 878 3216 
L 300 3275 
Q 359 3922 746 4261 
Q 1134 4600 1788 4600 
Q 2447 4600 2831 4234 
Q 3216 3869 3216 3328 
Q 3216 3053 3103 2787 
Q 2991 2522 2730 2228 
Q 2469 1934 1863 1422 
Q 1356 997 1212 845 
Q 1069 694 975 541 
L 3222 541 
z
" transform="scale(0.015625)"/>
       </defs>
       <use xlink:href="#ArialMT-32"/>
      </g>
     </g>
    </g>
    <g id="xtick_3">
     <g id="text_3">
      <!-- 3 -->
      <g style="fill: #262626" transform="translate(441.219531 398.637812) scale(0.1 -0.1)">
       <defs>
        <path id="ArialMT-33" d="M 269 1209 
L 831 1284 
Q 928 806 1161 595 
Q 1394 384 1728 384 
Q 2125 384 2398 659 
Q 2672 934 2672 1341 
Q 2672 1728 2419 1979 
Q 2166 2231 1775 2231 
Q 1616 2231 1378 2169 
L 1441 2663 
Q 1497 2656 1531 2656 
Q 1891 2656 2178 2843 
Q 2466 3031 2466 3422 
Q 2466 3731 2256 3934 
Q 2047 4138 1716 4138 
Q 1388 4138 1169 3931 
Q 950 3725 888 3313 
L 325 3413 
Q 428 3978 793 4289 
Q 1159 4600 1703 4600 
Q 2078 4600 2393 4439 
Q 2709 4278 2876 4000 
Q 3044 3722 3044 3409 
Q 3044 3113 2884 2869 
Q 2725 2625 2413 2481 
Q 2819 2388 3044 2092 
Q 3269 1797 3269 1353 
Q 3269 753 2831 336 
Q 2394 -81 1725 -81 
Q 1122 -81 723 278 
Q 325 638 269 1209 
z
" transform="scale(0.015625)"/>
       </defs>
       <use xlink:href="#ArialMT-33"/>
      </g>
     </g>
    </g>
    <g id="text_4">
     <!-- Effort level -->
     <g style="fill: #262626" transform="translate(271.667969 411.783125) scale(0.1 -0.1)">
      <defs>
       <path id="ArialMT-45" d="M 506 0 
L 506 4581 
L 3819 4581 
L 3819 4041 
L 1113 4041 
L 1113 2638 
L 3647 2638 
L 3647 2100 
L 1113 2100 
L 1113 541 
L 3925 541 
L 3925 0 
L 506 0 
z
" transform="scale(0.015625)"/>
       <path id="ArialMT-66" d="M 556 0 
L 556 2881 
L 59 2881 
L 59 3319 
L 556 3319 
L 556 3672 
Q 556 4006 616 4169 
Q 697 4388 901 4523 
Q 1106 4659 1475 4659 
Q 1713 4659 2000 4603 
L 1916 4113 
Q 1741 4144 1584 4144 
Q 1328 4144 1222 4034 
Q 1116 3925 1116 3625 
L 1116 3319 
L 1763 3319 
L 1763 2881 
L 1116 2881 
L 1116 0 
L 556 0 
z
" transform="scale(0.015625)"/>
       <path id="ArialMT-6f" d="M 213 1659 
Q 213 2581 725 3025 
Q 1153 3394 1769 3394 
Q 2453 3394 2887 2945 
Q 3322 2497 3322 1706 
Q 3322 1066 3130 698 
Q 2938 331 2570 128 
Q 2203 -75 1769 -75 
Q 1072 -75 642 372 
Q 213 819 213 1659 
z
M 791 1659 
Q 791 1022 1069 705 
Q 1347 388 1769 388 
Q 2188 388 2466 706 
Q 2744 1025 2744 1678 
Q 2744 2294 2464 2611 
Q 2184 2928 1769 2928 
Q 1347 2928 1069 2612 
Q 791 2297 791 1659 
z
" transform="scale(0.015625)"/>
       <path id="ArialMT-72" d="M 416 0 
L 416 3319 
L 922 3319 
L 922 2816 
Q 1116 3169 1280 3281 
Q 1444 3394 1641 3394 
Q 1925 3394 2219 3213 
L 2025 2691 
Q 1819 2813 1613 2813 
Q 1428 2813 1281 2702 
Q 1134 2591 1072 2394 
Q 978 2094 978 1738 
L 978 0 
L 416 0 
z
" transform="scale(0.015625)"/>
       <path id="ArialMT-74" d="M 1650 503 
L 1731 6 
Q 1494 -44 1306 -44 
Q 1000 -44 831 53 
Q 663 150 594 308 
Q 525 466 525 972 
L 525 2881 
L 113 2881 
L 113 3319 
L 525 3319 
L 525 4141 
L 1084 4478 
L 1084 3319 
L 1650 3319 
L 1650 2881 
L 1084 2881 
L 1084 941 
Q 1084 700 1114 631 
Q 1144 563 1211 522 
Q 1278 481 1403 481 
Q 1497 481 1650 503 
z
" transform="scale(0.015625)"/>
       <path id="ArialMT-20" transform="scale(0.015625)"/>
       <path id="ArialMT-6c" d="M 409 0 
L 409 4581 
L 972 4581 
L 972 0 
L 409 0 
z
" transform="scale(0.015625)"/>
       <path id="ArialMT-65" d="M 2694 1069 
L 3275 997 
Q 3138 488 2766 206 
Q 2394 -75 1816 -75 
Q 1088 -75 661 373 
Q 234 822 234 1631 
Q 234 2469 665 2931 
Q 1097 3394 1784 3394 
Q 2450 3394 2872 2941 
Q 3294 2488 3294 1666 
Q 3294 1616 3291 1516 
L 816 1516 
Q 847 969 1125 678 
Q 1403 388 1819 388 
Q 2128 388 2347 550 
Q 2566 713 2694 1069 
z
M 847 1978 
L 2700 1978 
Q 2663 2397 2488 2606 
Q 2219 2931 1791 2931 
Q 1403 2931 1139 2672 
Q 875 2413 847 1978 
z
" transform="scale(0.015625)"/>
       <path id="ArialMT-76" d="M 1344 0 
L 81 3319 
L 675 3319 
L 1388 1331 
Q 1503 1009 1600 663 
Q 1675 925 1809 1294 
L 2547 3319 
L 3125 3319 
L 1869 0 
L 1344 0 
z
" transform="scale(0.015625)"/>
      </defs>
      <use xlink:href="#ArialMT-45"/>
      <use xlink:href="#ArialMT-66" x="66.699219"/>
      <use xlink:href="#ArialMT-66" x="92.732422"/>
      <use xlink:href="#ArialMT-6f" x="120.515625"/>
      <use xlink:href="#ArialMT-72" x="176.130859"/>
      <use xlink:href="#ArialMT-74" x="209.431641"/>
      <use xlink:href="#ArialMT-20" x="237.214844"/>
      <use xlink:href="#ArialMT-6c" x="264.998047"/>
      <use xlink:href="#ArialMT-65" x="287.214844"/>
      <use xlink:href="#ArialMT-76" x="342.830078"/>
      <use xlink:href="#ArialMT-65" x="392.830078"/>
      <use xlink:href="#ArialMT-6c" x="448.445312"/>
     </g>
    </g>
   </g>
   <g id="matplotlib.axis_2">
    <g id="ytick_1">
     <g id="line2d_1">
      <path d="M 72 331.727589 
L 518.4 331.727589 
" clip-path="url(#pe46e33265f)" style="fill: none; stroke: #cccccc; stroke-width: 0.8; stroke-linecap: round"/>
     </g>
     <g id="text_5">
      <!-- 0.0 -->
      <g style="fill: #262626" transform="translate(51.1 335.306496) scale(0.1 -0.1)">
       <defs>
        <path id="ArialMT-30" d="M 266 2259 
Q 266 3072 433 3567 
Q 600 4063 929 4331 
Q 1259 4600 1759 4600 
Q 2128 4600 2406 4451 
Q 2684 4303 2865 4023 
Q 3047 3744 3150 3342 
Q 3253 2941 3253 2259 
Q 3253 1453 3087 958 
Q 2922 463 2592 192 
Q 2263 -78 1759 -78 
Q 1097 -78 719 397 
Q 266 969 266 2259 
z
M 844 2259 
Q 844 1131 1108 757 
Q 1372 384 1759 384 
Q 2147 384 2411 759 
Q 2675 1134 2675 2259 
Q 2675 3391 2411 3762 
Q 2147 4134 1753 4134 
Q 1366 4134 1134 3806 
Q 844 3388 844 2259 
z
" transform="scale(0.015625)"/>
        <path id="ArialMT-2e" d="M 581 0 
L 581 641 
L 1222 641 
L 1222 0 
L 581 0 
z
" transform="scale(0.015625)"/>
       </defs>
       <use xlink:href="#ArialMT-30"/>
       <use xlink:href="#ArialMT-2e" x="55.615234"/>
       <use xlink:href="#ArialMT-30" x="83.398438"/>
      </g>
     </g>
    </g>
    <g id="ytick_2">
     <g id="line2d_2">
      <path d="M 72 277.748099 
L 518.4 277.748099 
" clip-path="url(#pe46e33265f)" style="fill: none; stroke: #cccccc; stroke-width: 0.8; stroke-linecap: round"/>
     </g>
     <g id="text_6">
      <!-- 0.5 -->
      <g style="fill: #262626" transform="translate(51.1 281.327006) scale(0.1 -0.1)">
       <defs>
        <path id="ArialMT-35" d="M 266 1200 
L 856 1250 
Q 922 819 1161 601 
Q 1400 384 1738 384 
Q 2144 384 2425 690 
Q 2706 997 2706 1503 
Q 2706 1984 2436 2262 
Q 2166 2541 1728 2541 
Q 1456 2541 1237 2417 
Q 1019 2294 894 2097 
L 366 2166 
L 809 4519 
L 3088 4519 
L 3088 3981 
L 1259 3981 
L 1013 2750 
Q 1425 3038 1878 3038 
Q 2478 3038 2890 2622 
Q 3303 2206 3303 1553 
Q 3303 931 2941 478 
Q 2500 -78 1738 -78 
Q 1113 -78 717 272 
Q 322 622 266 1200 
z
" transform="scale(0.015625)"/>
       </defs>
       <use xlink:href="#ArialMT-30"/>
       <use xlink:href="#ArialMT-2e" x="55.615234"/>
       <use xlink:href="#ArialMT-35" x="83.398438"/>
      </g>
     </g>
    </g>
    <g id="ytick_3">
     <g id="line2d_3">
      <path d="M 72 223.768609 
L 518.4 223.768609 
" clip-path="url(#pe46e33265f)" style="fill: none; stroke: #cccccc; stroke-width: 0.8; stroke-linecap: round"/>
     </g>
     <g id="text_7">
      <!-- 1.0 -->
      <g style="fill: #262626" transform="translate(51.1 227.347516) scale(0.1 -0.1)">
       <use xlink:href="#ArialMT-31"/>
       <use xlink:href="#ArialMT-2e" x="55.615234"/>
       <use xlink:href="#ArialMT-30" x="83.398438"/>
      </g>
     </g>
    </g>
    <g id="ytick_4">
     <g id="line2d_4">
      <path d="M 72 169.789119 
L 518.4 169.789119 
" clip-path="url(#pe46e33265f)" style="fill: none; stroke: #cccccc; stroke-width: 0.8; stroke-linecap: round"/>
     </g>
     <g id="text_8">
      <!-- 1.5 -->
      <g style="fill: #262626" transform="translate(51.1 173.368025) scale(0.1 -0.1)">
       <use xlink:href="#ArialMT-31"/>
       <use xlink:href="#ArialMT-2e" x="55.615234"/>
       <use xlink:href="#ArialMT-35" x="83.398438"/>
      </g>
     </g>
    </g>
    <g id="ytick_5">
     <g id="line2d_5">
      <path d="M 72 115.809629 
L 518.4 115.809629 
" clip-path="url(#pe46e33265f)" style="fill: none; stroke: #cccccc; stroke-width: 0.8; stroke-linecap: round"/>
     </g>
     <g id="text_9">
      <!-- 2.0 -->
      <g style="fill: #262626" transform="translate(51.1 119.388535) scale(0.1 -0.1)">
       <use xlink:href="#ArialMT-32"/>
       <use xlink:href="#ArialMT-2e" x="55.615234"/>
       <use xlink:href="#ArialMT-30" x="83.398438"/>
      </g>
     </g>
    </g>
    <g id="ytick_6">
     <g id="line2d_6">
      <path d="M 72 61.830139 
L 518.4 61.830139 
" clip-path="url(#pe46e33265f)" style="fill: none; stroke: #cccccc; stroke-width: 0.8; stroke-linecap: round"/>
     </g>
     <g id="text_10">
      <!-- 2.5 -->
      <g style="fill: #262626" transform="translate(51.1 65.409045) scale(0.1 -0.1)">
       <use xlink:href="#ArialMT-32"/>
       <use xlink:href="#ArialMT-2e" x="55.615234"/>
       <use xlink:href="#ArialMT-35" x="83.398438"/>
      </g>
     </g>
    </g>
    <g id="text_11">
     <!-- O2 intake (l/min) -->
     <g style="fill: #262626" transform="translate(44.995312 254.835) rotate(-90) scale(0.1 -0.1)">
      <defs>
       <path id="ArialMT-4f" d="M 309 2231 
Q 309 3372 921 4017 
Q 1534 4663 2503 4663 
Q 3138 4663 3647 4359 
Q 4156 4056 4423 3514 
Q 4691 2972 4691 2284 
Q 4691 1588 4409 1038 
Q 4128 488 3612 205 
Q 3097 -78 2500 -78 
Q 1853 -78 1343 234 
Q 834 547 571 1087 
Q 309 1628 309 2231 
z
M 934 2222 
Q 934 1394 1379 917 
Q 1825 441 2497 441 
Q 3181 441 3623 922 
Q 4066 1403 4066 2288 
Q 4066 2847 3877 3264 
Q 3688 3681 3323 3911 
Q 2959 4141 2506 4141 
Q 1863 4141 1398 3698 
Q 934 3256 934 2222 
z
" transform="scale(0.015625)"/>
       <path id="ArialMT-69" d="M 425 3934 
L 425 4581 
L 988 4581 
L 988 3934 
L 425 3934 
z
M 425 0 
L 425 3319 
L 988 3319 
L 988 0 
L 425 0 
z
" transform="scale(0.015625)"/>
       <path id="ArialMT-6e" d="M 422 0 
L 422 3319 
L 928 3319 
L 928 2847 
Q 1294 3394 1984 3394 
Q 2284 3394 2536 3286 
Q 2788 3178 2913 3003 
Q 3038 2828 3088 2588 
Q 3119 2431 3119 2041 
L 3119 0 
L 2556 0 
L 2556 2019 
Q 2556 2363 2490 2533 
Q 2425 2703 2258 2804 
Q 2091 2906 1866 2906 
Q 1506 2906 1245 2678 
Q 984 2450 984 1813 
L 984 0 
L 422 0 
z
" transform="scale(0.015625)"/>
       <path id="ArialMT-61" d="M 2588 409 
Q 2275 144 1986 34 
Q 1697 -75 1366 -75 
Q 819 -75 525 192 
Q 231 459 231 875 
Q 231 1119 342 1320 
Q 453 1522 633 1644 
Q 813 1766 1038 1828 
Q 1203 1872 1538 1913 
Q 2219 1994 2541 2106 
Q 2544 2222 2544 2253 
Q 2544 2597 2384 2738 
Q 2169 2928 1744 2928 
Q 1347 2928 1158 2789 
Q 969 2650 878 2297 
L 328 2372 
Q 403 2725 575 2942 
Q 747 3159 1072 3276 
Q 1397 3394 1825 3394 
Q 2250 3394 2515 3294 
Q 2781 3194 2906 3042 
Q 3031 2891 3081 2659 
Q 3109 2516 3109 2141 
L 3109 1391 
Q 3109 606 3145 398 
Q 3181 191 3288 0 
L 2700 0 
Q 2613 175 2588 409 
z
M 2541 1666 
Q 2234 1541 1622 1453 
Q 1275 1403 1131 1340 
Q 988 1278 909 1158 
Q 831 1038 831 891 
Q 831 666 1001 516 
Q 1172 366 1500 366 
Q 1825 366 2078 508 
Q 2331 650 2450 897 
Q 2541 1088 2541 1459 
L 2541 1666 
z
" transform="scale(0.015625)"/>
       <path id="ArialMT-6b" d="M 425 0 
L 425 4581 
L 988 4581 
L 988 1969 
L 2319 3319 
L 3047 3319 
L 1778 2088 
L 3175 0 
L 2481 0 
L 1384 1697 
L 988 1316 
L 988 0 
L 425 0 
z
" transform="scale(0.015625)"/>
       <path id="ArialMT-28" d="M 1497 -1347 
Q 1031 -759 709 28 
Q 388 816 388 1659 
Q 388 2403 628 3084 
Q 909 3875 1497 4659 
L 1900 4659 
Q 1522 4009 1400 3731 
Q 1209 3300 1100 2831 
Q 966 2247 966 1656 
Q 966 153 1900 -1347 
L 1497 -1347 
z
" transform="scale(0.015625)"/>
       <path id="ArialMT-2f" d="M 0 -78 
L 1328 4659 
L 1778 4659 
L 453 -78 
L 0 -78 
z
" transform="scale(0.015625)"/>
       <path id="ArialMT-6d" d="M 422 0 
L 422 3319 
L 925 3319 
L 925 2853 
Q 1081 3097 1340 3245 
Q 1600 3394 1931 3394 
Q 2300 3394 2536 3241 
Q 2772 3088 2869 2813 
Q 3263 3394 3894 3394 
Q 4388 3394 4653 3120 
Q 4919 2847 4919 2278 
L 4919 0 
L 4359 0 
L 4359 2091 
Q 4359 2428 4304 2576 
Q 4250 2725 4106 2815 
Q 3963 2906 3769 2906 
Q 3419 2906 3187 2673 
Q 2956 2441 2956 1928 
L 2956 0 
L 2394 0 
L 2394 2156 
Q 2394 2531 2256 2718 
Q 2119 2906 1806 2906 
Q 1569 2906 1367 2781 
Q 1166 2656 1075 2415 
Q 984 2175 984 1722 
L 984 0 
L 422 0 
z
" transform="scale(0.015625)"/>
       <path id="ArialMT-29" d="M 791 -1347 
L 388 -1347 
Q 1322 153 1322 1656 
Q 1322 2244 1188 2822 
Q 1081 3291 891 3722 
Q 769 4003 388 4659 
L 791 4659 
Q 1378 3875 1659 3084 
Q 1900 2403 1900 1659 
Q 1900 816 1576 28 
Q 1253 -759 791 -1347 
z
" transform="scale(0.015625)"/>
      </defs>
      <use xlink:href="#ArialMT-4f"/>
      <use xlink:href="#ArialMT-32" x="77.783203"/>
      <use xlink:href="#ArialMT-20" x="133.398438"/>
      <use xlink:href="#ArialMT-69" x="161.181641"/>
      <use xlink:href="#ArialMT-6e" x="183.398438"/>
      <use xlink:href="#ArialMT-74" x="239.013672"/>
      <use xlink:href="#ArialMT-61" x="266.796875"/>
      <use xlink:href="#ArialMT-6b" x="322.412109"/>
      <use xlink:href="#ArialMT-65" x="372.412109"/>
      <use xlink:href="#ArialMT-20" x="428.027344"/>
      <use xlink:href="#ArialMT-28" x="455.810547"/>
      <use xlink:href="#ArialMT-6c" x="489.111328"/>
      <use xlink:href="#ArialMT-2f" x="511.328125"/>
      <use xlink:href="#ArialMT-6d" x="539.111328"/>
      <use xlink:href="#ArialMT-69" x="622.412109"/>
      <use xlink:href="#ArialMT-6e" x="644.628906"/>
      <use xlink:href="#ArialMT-29" x="700.244141"/>
     </g>
    </g>
   </g>
   <g id="PolyCollection_1">
    <defs>
     <path id="mb0c0880804" d="M 116.826963 -123.242011 
L 116.453037 -123.242011 
L 116.383546 -125.635947 
L 116.295313 -128.029883 
L 116.18567 -130.423819 
L 116.052114 -132.817755 
L 115.892323 -135.211691 
L 115.704063 -137.605627 
L 115.484974 -139.999563 
L 115.232242 -142.393499 
L 114.942171 -144.787436 
L 114.609722 -147.181372 
L 114.228098 -149.575308 
L 113.788462 -151.969244 
L 113.279866 -154.36318 
L 112.689459 -156.757116 
L 112.003005 -159.151052 
L 111.2057 -161.544988 
L 110.283243 -163.938924 
L 109.223114 -166.33286 
L 108.015969 -168.726797 
L 106.657093 -171.120733 
L 105.147824 -173.514669 
L 103.496888 -175.908605 
L 101.721548 -178.302541 
L 99.848451 -180.696477 
L 97.91403 -183.090413 
L 95.964287 -185.484349 
L 94.053787 -187.878285 
L 92.243732 -190.272221 
L 90.599081 -192.666158 
L 89.184787 -195.060094 
L 88.061406 -197.45403 
L 87.280453 -199.847966 
L 86.88 -202.241902 
L 86.881045 -204.635838 
L 87.285128 -207.029774 
L 88.073542 -209.42371 
L 89.208296 -211.817646 
L 90.634735 -214.211583 
L 92.28556 -216.605519 
L 94.085788 -218.999455 
L 95.958133 -221.393391 
L 97.828277 -223.787327 
L 99.629572 -226.181263 
L 101.306818 -228.575199 
L 102.818877 -230.969135 
L 104.140044 -233.363071 
L 105.260153 -235.757007 
L 106.183516 -238.150944 
L 106.92686 -240.54488 
L 107.516466 -242.938816 
L 107.984807 -245.332752 
L 108.366978 -247.726688 
L 108.697274 -250.120624 
L 109.006234 -252.51456 
L 109.318418 -254.908496 
L 109.651098 -257.302432 
L 110.013926 -259.696368 
L 110.409487 -262.090305 
L 110.834565 -264.484241 
L 111.281827 -266.878177 
L 111.741636 -269.272113 
L 112.203711 -271.666049 
L 112.658419 -274.059985 
L 113.097601 -276.453921 
L 113.514905 -278.847857 
L 113.905725 -281.241793 
L 114.26686 -283.63573 
L 114.596064 -286.029666 
L 114.891607 -288.423602 
L 115.151966 -290.817538 
L 115.375677 -293.211474 
L 115.561372 -295.60541 
L 115.707957 -297.999346 
L 115.814885 -300.393282 
L 115.882474 -302.787218 
L 115.912199 -305.181154 
L 115.906928 -307.575091 
L 115.871042 -309.969027 
L 115.810427 -312.362963 
L 115.732299 -314.756899 
L 115.644869 -317.150835 
L 115.556853 -319.544771 
L 115.476865 -321.938707 
L 115.412753 -324.332643 
L 115.370956 -326.726579 
L 115.355965 -329.120515 
L 115.369972 -331.514452 
L 115.412751 -333.908388 
L 115.481804 -336.302324 
L 115.572743 -338.69626 
L 115.679852 -341.090196 
L 115.79675 -343.484132 
L 115.917058 -345.878068 
L 116.034983 -348.272004 
L 116.145757 -350.66594 
L 116.245889 -353.059877 
L 116.333239 -355.453813 
L 116.406933 -357.847749 
L 116.467153 -360.241685 
L 116.812847 -360.241685 
L 116.812847 -360.241685 
L 116.873067 -357.847749 
L 116.946761 -355.453813 
L 117.034111 -353.059877 
L 117.134243 -350.66594 
L 117.245017 -348.272004 
L 117.362942 -345.878068 
L 117.48325 -343.484132 
L 117.600148 -341.090196 
L 117.707257 -338.69626 
L 117.798196 -336.302324 
L 117.867249 -333.908388 
L 117.910028 -331.514452 
L 117.924035 -329.120515 
L 117.909044 -326.726579 
L 117.867247 -324.332643 
L 117.803135 -321.938707 
L 117.723147 -319.544771 
L 117.635131 -317.150835 
L 117.547701 -314.756899 
L 117.469573 -312.362963 
L 117.408958 -309.969027 
L 117.373072 -307.575091 
L 117.367801 -305.181154 
L 117.397526 -302.787218 
L 117.465115 -300.393282 
L 117.572043 -297.999346 
L 117.718628 -295.60541 
L 117.904323 -293.211474 
L 118.128034 -290.817538 
L 118.388393 -288.423602 
L 118.683936 -286.029666 
L 119.01314 -283.63573 
L 119.374275 -281.241793 
L 119.765095 -278.847857 
L 120.182399 -276.453921 
L 120.621581 -274.059985 
L 121.076289 -271.666049 
L 121.538364 -269.272113 
L 121.998173 -266.878177 
L 122.445435 -264.484241 
L 122.870513 -262.090305 
L 123.266074 -259.696368 
L 123.628902 -257.302432 
L 123.961582 -254.908496 
L 124.273766 -252.51456 
L 124.582726 -250.120624 
L 124.913022 -247.726688 
L 125.295193 -245.332752 
L 125.763534 -242.938816 
L 126.35314 -240.54488 
L 127.096484 -238.150944 
L 128.019847 -235.757007 
L 129.139956 -233.363071 
L 130.461123 -230.969135 
L 131.973182 -228.575199 
L 133.650428 -226.181263 
L 135.451723 -223.787327 
L 137.321867 -221.393391 
L 139.194212 -218.999455 
L 140.99444 -216.605519 
L 142.645265 -214.211583 
L 144.071704 -211.817646 
L 145.206458 -209.42371 
L 145.994872 -207.029774 
L 146.398955 -204.635838 
L 146.4 -202.241902 
L 145.999547 -199.847966 
L 145.218594 -197.45403 
L 144.095213 -195.060094 
L 142.680919 -192.666158 
L 141.036268 -190.272221 
L 139.226213 -187.878285 
L 137.315713 -185.484349 
L 135.36597 -183.090413 
L 133.431549 -180.696477 
L 131.558452 -178.302541 
L 129.783112 -175.908605 
L 128.132176 -173.514669 
L 126.622907 -171.120733 
L 125.264031 -168.726797 
L 124.056886 -166.33286 
L 122.996757 -163.938924 
L 122.0743 -161.544988 
L 121.276995 -159.151052 
L 120.590541 -156.757116 
L 120.000134 -154.36318 
L 119.491538 -151.969244 
L 119.051902 -149.575308 
L 118.670278 -147.181372 
L 118.337829 -144.787436 
L 118.047758 -142.393499 
L 117.795026 -139.999563 
L 117.575937 -137.605627 
L 117.387677 -135.211691 
L 117.227886 -132.817755 
L 117.09433 -130.423819 
L 116.984687 -128.029883 
L 116.896454 -125.635947 
L 116.826963 -123.242011 
z
" style="stroke: #3f3f3f; stroke-width: 1.25"/>
    </defs>
    <g clip-path="url(#pe46e33265f)">
     <use xlink:href="#mb0c0880804" x="0" y="432" style="fill: #3274a1; stroke: #3f3f3f; stroke-width: 1.25"/>
    </g>
   </g>
   <g id="PolyCollection_2">
    <defs>
     <path id="m212df4b7cc" d="M 176.423042 -124.645571 
L 175.896958 -124.645571 
L 175.808995 -126.386257 
L 175.698045 -128.126943 
L 175.560152 -129.867629 
L 175.391217 -131.608315 
L 175.187121 -133.349001 
L 174.94386 -135.089687 
L 174.657696 -136.830373 
L 174.325315 -138.571059 
L 173.943982 -140.311744 
L 173.511695 -142.05243 
L 173.027327 -143.793116 
L 172.490742 -145.533802 
L 171.902889 -147.274488 
L 171.265849 -149.015174 
L 170.582826 -150.75586 
L 169.858069 -152.496546 
L 169.096716 -154.237231 
L 168.304555 -155.977917 
L 167.487714 -157.718603 
L 166.652298 -159.459289 
L 165.804016 -161.199975 
L 164.947832 -162.940661 
L 164.087711 -164.681347 
L 163.226492 -166.422033 
L 162.36594 -168.162718 
L 161.506988 -169.903404 
L 160.650152 -171.64409 
L 159.796098 -173.384776 
L 158.946254 -175.125462 
L 158.103419 -176.866148 
L 157.272238 -178.606834 
L 156.459465 -180.34752 
L 155.673954 -182.088206 
L 154.926336 -183.828891 
L 154.228397 -185.569577 
L 153.592225 -187.310263 
L 153.029216 -189.050949 
L 152.549061 -190.791635 
L 152.158868 -192.532321 
L 151.862525 -194.273007 
L 151.660417 -196.013693 
L 151.549559 -197.754378 
L 151.524129 -199.495064 
L 151.576354 -201.23575 
L 151.69765 -202.976436 
L 151.879841 -204.717122 
L 152.116304 -206.457808 
L 152.402853 -208.198494 
L 152.738237 -209.93918 
L 153.12413 -211.679865 
L 153.564622 -213.420551 
L 154.065234 -215.161237 
L 154.631602 -216.901923 
L 155.268003 -218.642609 
L 155.975951 -220.383295 
L 156.753079 -222.123981 
L 157.59248 -223.864667 
L 158.482658 -225.605353 
L 159.408088 -227.346038 
L 160.350363 -229.086724 
L 161.289756 -230.82741 
L 162.207002 -232.568096 
L 163.085055 -234.308782 
L 163.91058 -236.049468 
L 164.674984 -237.790154 
L 165.374865 -239.53084 
L 166.011838 -241.271525 
L 166.591794 -243.012211 
L 167.123727 -244.752897 
L 167.618312 -246.493583 
L 168.086445 -248.234269 
L 168.537945 -249.974955 
L 168.98056 -251.715641 
L 169.419398 -253.456327 
L 169.856782 -255.197012 
L 170.292498 -256.937698 
L 170.724348 -258.678384 
L 171.148868 -260.41907 
L 171.562088 -262.159756 
L 171.960209 -263.900442 
L 172.340117 -265.641128 
L 172.699675 -267.381814 
L 173.037806 -269.1225 
L 173.354379 -270.863185 
L 173.649979 -272.603871 
L 173.925605 -274.344557 
L 174.18238 -276.085243 
L 174.421306 -277.825929 
L 174.64312 -279.566615 
L 174.848232 -281.307301 
L 175.036762 -283.047987 
L 175.208639 -284.788672 
L 175.363728 -286.529358 
L 175.501975 -288.270044 
L 175.623518 -290.01073 
L 175.72877 -291.751416 
L 175.818449 -293.492102 
L 175.893569 -295.232788 
L 175.955393 -296.973474 
L 176.364607 -296.973474 
L 176.364607 -296.973474 
L 176.426431 -295.232788 
L 176.501551 -293.492102 
L 176.59123 -291.751416 
L 176.696482 -290.01073 
L 176.818025 -288.270044 
L 176.956272 -286.529358 
L 177.111361 -284.788672 
L 177.283238 -283.047987 
L 177.471768 -281.307301 
L 177.67688 -279.566615 
L 177.898694 -277.825929 
L 178.13762 -276.085243 
L 178.394395 -274.344557 
L 178.670021 -272.603871 
L 178.965621 -270.863185 
L 179.282194 -269.1225 
L 179.620325 -267.381814 
L 179.979883 -265.641128 
L 180.359791 -263.900442 
L 180.757912 -262.159756 
L 181.171132 -260.41907 
L 181.595652 -258.678384 
L 182.027502 -256.937698 
L 182.463218 -255.197012 
L 182.900602 -253.456327 
L 183.33944 -251.715641 
L 183.782055 -249.974955 
L 184.233555 -248.234269 
L 184.701688 -246.493583 
L 185.196273 -244.752897 
L 185.728206 -243.012211 
L 186.308162 -241.271525 
L 186.945135 -239.53084 
L 187.645016 -237.790154 
L 188.40942 -236.049468 
L 189.234945 -234.308782 
L 190.112998 -232.568096 
L 191.030244 -230.82741 
L 191.969637 -229.086724 
L 192.911912 -227.346038 
L 193.837342 -225.605353 
L 194.72752 -223.864667 
L 195.566921 -222.123981 
L 196.344049 -220.383295 
L 197.051997 -218.642609 
L 197.688398 -216.901923 
L 198.254766 -215.161237 
L 198.755378 -213.420551 
L 199.19587 -211.679865 
L 199.581763 -209.93918 
L 199.917147 -208.198494 
L 200.203696 -206.457808 
L 200.440159 -204.717122 
L 200.62235 -202.976436 
L 200.743646 -201.23575 
L 200.795871 -199.495064 
L 200.770441 -197.754378 
L 200.659583 -196.013693 
L 200.457475 -194.273007 
L 200.161132 -192.532321 
L 199.770939 -190.791635 
L 199.290784 -189.050949 
L 198.727775 -187.310263 
L 198.091603 -185.569577 
L 197.393664 -183.828891 
L 196.646046 -182.088206 
L 195.860535 -180.34752 
L 195.047762 -178.606834 
L 194.216581 -176.866148 
L 193.373746 -175.125462 
L 192.523902 -173.384776 
L 191.669848 -171.64409 
L 190.813012 -169.903404 
L 189.95406 -168.162718 
L 189.093508 -166.422033 
L 188.232289 -164.681347 
L 187.372168 -162.940661 
L 186.515984 -161.199975 
L 185.667702 -159.459289 
L 184.832286 -157.718603 
L 184.015445 -155.977917 
L 183.223284 -154.237231 
L 182.461931 -152.496546 
L 181.737174 -150.75586 
L 181.054151 -149.015174 
L 180.417111 -147.274488 
L 179.829258 -145.533802 
L 179.292673 -143.793116 
L 178.808305 -142.05243 
L 178.376018 -140.311744 
L 177.994685 -138.571059 
L 177.662304 -136.830373 
L 177.37614 -135.089687 
L 177.132879 -133.349001 
L 176.928783 -131.608315 
L 176.759848 -129.867629 
L 176.621955 -128.126943 
L 176.511005 -126.386257 
L 176.423042 -124.645571 
z
" style="stroke: #3f3f3f; stroke-width: 1.25"/>
    </defs>
    <g clip-path="url(#pe46e33265f)">
     <use xlink:href="#m212df4b7cc" x="0" y="432" style="fill: #e1812c; stroke: #3f3f3f; stroke-width: 1.25"/>
    </g>
   </g>
   <g id="PolyCollection_3">
    <defs>
     <path id="m62f65589b8" d="M 265.671705 -126.807353 
L 265.208295 -126.807353 
L 265.127803 -128.807751 
L 265.026672 -130.808149 
L 264.902087 -132.808547 
L 264.751529 -134.808945 
L 264.572934 -136.809343 
L 264.364815 -138.809741 
L 264.12633 -140.81014 
L 263.857264 -142.810538 
L 263.557931 -144.810936 
L 263.228994 -146.811334 
L 262.871225 -148.811732 
L 262.485242 -150.81213 
L 262.071267 -152.812528 
L 261.628935 -154.812927 
L 261.15721 -156.813325 
L 260.654401 -158.813723 
L 260.118293 -160.814121 
L 259.546355 -162.814519 
L 258.93598 -164.814917 
L 258.284715 -166.815315 
L 257.590425 -168.815713 
L 256.851364 -170.816112 
L 256.06615 -172.81651 
L 255.233675 -174.816908 
L 254.352992 -176.817306 
L 253.423264 -178.817704 
L 252.443835 -180.818102 
L 251.414487 -182.8185 
L 250.335892 -184.818899 
L 249.210265 -186.819297 
L 248.042136 -188.819695 
L 246.839151 -190.820093 
L 245.612789 -192.820491 
L 244.378856 -194.820889 
L 243.157644 -196.821287 
L 241.973678 -198.821685 
L 240.855016 -200.822084 
L 239.83209 -202.822482 
L 238.936191 -204.82288 
L 238.197672 -206.823278 
L 237.644038 -208.823676 
L 237.298067 -210.824074 
L 237.176156 -212.824472 
L 237.287029 -214.824871 
L 237.630943 -216.825269 
L 238.199485 -218.825667 
L 238.975989 -220.826065 
L 239.936542 -222.826463 
L 241.051518 -224.826861 
L 242.287465 -226.827259 
L 243.609204 -228.827657 
L 244.981914 -230.828056 
L 246.37301 -232.828454 
L 247.75366 -234.828852 
L 249.099797 -236.82925 
L 250.392593 -238.829648 
L 251.618407 -240.830046 
L 252.768285 -242.830444 
L 253.837174 -244.830843 
L 254.822984 -246.831241 
L 255.725686 -248.831639 
L 256.546568 -250.832037 
L 257.287726 -252.832435 
L 257.951831 -254.832833 
L 258.542115 -256.833231 
L 259.062508 -258.833629 
L 259.517817 -260.834028 
L 259.913836 -262.834426 
L 260.257329 -264.834824 
L 260.555823 -266.835222 
L 260.817252 -268.83562 
L 261.049484 -270.836018 
L 261.259824 -272.836416 
L 261.454593 -274.836815 
L 261.638839 -276.837213 
L 261.816244 -278.837611 
L 261.989225 -280.838009 
L 262.159191 -282.838407 
L 262.326895 -284.838805 
L 262.492795 -286.839203 
L 262.657352 -288.839601 
L 262.821202 -290.84 
L 262.985184 -292.840398 
L 263.150233 -294.840796 
L 263.317175 -296.841194 
L 263.486486 -298.841592 
L 263.658078 -300.84199 
L 263.83116 -302.842388 
L 264.004219 -304.842787 
L 264.175112 -306.843185 
L 264.341265 -308.843583 
L 264.499937 -310.843981 
L 264.648501 -312.844379 
L 264.784705 -314.844777 
L 264.906871 -316.845175 
L 265.014008 -318.845573 
L 265.105846 -320.845972 
L 265.182776 -322.84637 
L 265.24575 -324.846768 
L 265.63425 -324.846768 
L 265.63425 -324.846768 
L 265.697224 -322.84637 
L 265.774154 -320.845972 
L 265.865992 -318.845573 
L 265.973129 -316.845175 
L 266.095295 -314.844777 
L 266.231499 -312.844379 
L 266.380063 -310.843981 
L 266.538735 -308.843583 
L 266.704888 -306.843185 
L 266.875781 -304.842787 
L 267.04884 -302.842388 
L 267.221922 -300.84199 
L 267.393514 -298.841592 
L 267.562825 -296.841194 
L 267.729767 -294.840796 
L 267.894816 -292.840398 
L 268.058798 -290.84 
L 268.222648 -288.839601 
L 268.387205 -286.839203 
L 268.553105 -284.838805 
L 268.720809 -282.838407 
L 268.890775 -280.838009 
L 269.063756 -278.837611 
L 269.241161 -276.837213 
L 269.425407 -274.836815 
L 269.620176 -272.836416 
L 269.830516 -270.836018 
L 270.062748 -268.83562 
L 270.324177 -266.835222 
L 270.622671 -264.834824 
L 270.966164 -262.834426 
L 271.362183 -260.834028 
L 271.817492 -258.833629 
L 272.337885 -256.833231 
L 272.928169 -254.832833 
L 273.592274 -252.832435 
L 274.333432 -250.832037 
L 275.154314 -248.831639 
L 276.057016 -246.831241 
L 277.042826 -244.830843 
L 278.111715 -242.830444 
L 279.261593 -240.830046 
L 280.487407 -238.829648 
L 281.780203 -236.82925 
L 283.12634 -234.828852 
L 284.50699 -232.828454 
L 285.898086 -230.828056 
L 287.270796 -228.827657 
L 288.592535 -226.827259 
L 289.828482 -224.826861 
L 290.943458 -222.826463 
L 291.904011 -220.826065 
L 292.680515 -218.825667 
L 293.249057 -216.825269 
L 293.592971 -214.824871 
L 293.703844 -212.824472 
L 293.581933 -210.824074 
L 293.235962 -208.823676 
L 292.682328 -206.823278 
L 291.943809 -204.82288 
L 291.04791 -202.822482 
L 290.024984 -200.822084 
L 288.906322 -198.821685 
L 287.722356 -196.821287 
L 286.501144 -194.820889 
L 285.267211 -192.820491 
L 284.040849 -190.820093 
L 282.837864 -188.819695 
L 281.669735 -186.819297 
L 280.544108 -184.818899 
L 279.465513 -182.8185 
L 278.436165 -180.818102 
L 277.456736 -178.817704 
L 276.527008 -176.817306 
L 275.646325 -174.816908 
L 274.81385 -172.81651 
L 274.028636 -170.816112 
L 273.289575 -168.815713 
L 272.595285 -166.815315 
L 271.94402 -164.814917 
L 271.333645 -162.814519 
L 270.761707 -160.814121 
L 270.225599 -158.813723 
L 269.72279 -156.813325 
L 269.251065 -154.812927 
L 268.808733 -152.812528 
L 268.394758 -150.81213 
L 268.008775 -148.811732 
L 267.651006 -146.811334 
L 267.322069 -144.810936 
L 267.022736 -142.810538 
L 266.75367 -140.81014 
L 266.515185 -138.809741 
L 266.307066 -136.809343 
L 266.128471 -134.808945 
L 265.977913 -132.808547 
L 265.853328 -130.808149 
L 265.752197 -128.807751 
L 265.671705 -126.807353 
z
" style="stroke: #3f3f3f; stroke-width: 1.25"/>
    </defs>
    <g clip-path="url(#pe46e33265f)">
     <use xlink:href="#m62f65589b8" x="0" y="432" style="fill: #3274a1; stroke: #3f3f3f; stroke-width: 1.25"/>
    </g>
   </g>
   <g id="PolyCollection_4">
    <defs>
     <path id="m5859617312" d="M 325.2486 -139.726158 
L 324.6714 -139.726158 
L 324.564102 -141.466069 
L 324.425207 -143.20598 
L 324.248166 -144.945892 
L 324.025772 -146.685803 
L 323.750212 -148.425714 
L 323.413122 -150.165626 
L 323.00567 -151.905537 
L 322.518661 -153.645448 
L 321.942709 -155.38536 
L 321.268483 -157.125271 
L 320.487093 -158.865182 
L 319.590607 -160.605094 
L 318.572745 -162.345005 
L 317.429712 -164.084916 
L 316.16112 -165.824828 
L 314.770928 -167.564739 
L 313.268263 -169.30465 
L 311.668008 -171.044562 
L 309.991019 -172.784473 
L 308.263872 -174.524384 
L 306.518094 -176.264296 
L 304.78889 -178.004207 
L 303.113445 -179.744118 
L 301.528951 -181.48403 
L 300.070551 -183.223941 
L 298.769399 -184.963852 
L 297.651032 -186.703764 
L 296.734204 -188.443675 
L 296.030263 -190.183586 
L 295.543079 -191.923498 
L 295.269469 -193.663409 
L 295.2 -195.403321 
L 295.320023 -197.143232 
L 295.610794 -198.883143 
L 296.05056 -200.623055 
L 296.615541 -202.362966 
L 297.280782 -204.102877 
L 298.020922 -205.842789 
L 298.810941 -207.5827 
L 299.626967 -209.322611 
L 300.447203 -211.062523 
L 301.252975 -212.802434 
L 302.029855 -214.542345 
L 302.768727 -216.282257 
L 303.466628 -218.022168 
L 304.127165 -219.762079 
L 304.760349 -221.501991 
L 305.381736 -223.241902 
L 306.010862 -224.981813 
L 306.669093 -226.721725 
L 307.37709 -228.461636 
L 308.152205 -230.201547 
L 309.006119 -231.941459 
L 309.943073 -233.68137 
L 310.958908 -235.421281 
L 312.041084 -237.161193 
L 313.169666 -238.901104 
L 314.319146 -240.641015 
L 315.460875 -242.380927 
L 316.565768 -244.120838 
L 317.606946 -245.860749 
L 318.562012 -247.600661 
L 319.414688 -249.340572 
L 320.155687 -251.080483 
L 320.782771 -252.820395 
L 321.300071 -254.560306 
L 321.716824 -256.300217 
L 322.045748 -258.040129 
L 322.301298 -259.78004 
L 322.49802 -261.519952 
L 322.64921 -263.259863 
L 322.765998 -264.999774 
L 322.856909 -266.739686 
L 322.92789 -268.479597 
L 322.982727 -270.219508 
L 323.023709 -271.95942 
L 323.052412 -273.699331 
L 323.070439 -275.439242 
L 323.079988 -277.179154 
L 323.084175 -278.919065 
L 323.087064 -280.658976 
L 323.093429 -282.398888 
L 323.108303 -284.138799 
L 323.136413 -285.87871 
L 323.181606 -287.618622 
L 323.246363 -289.358533 
L 323.331491 -291.098444 
L 323.436019 -292.838356 
L 323.557328 -294.578267 
L 323.691465 -296.318178 
L 323.833593 -298.05809 
L 323.978509 -299.798001 
L 324.121145 -301.537912 
L 324.257003 -303.277824 
L 324.382465 -305.017735 
L 324.49497 -306.757646 
L 324.593055 -308.497558 
L 324.676278 -310.237469 
L 324.745057 -311.97738 
L 325.174943 -311.97738 
L 325.174943 -311.97738 
L 325.243722 -310.237469 
L 325.326945 -308.497558 
L 325.42503 -306.757646 
L 325.537535 -305.017735 
L 325.662997 -303.277824 
L 325.798855 -301.537912 
L 325.941491 -299.798001 
L 326.086407 -298.05809 
L 326.228535 -296.318178 
L 326.362672 -294.578267 
L 326.483981 -292.838356 
L 326.588509 -291.098444 
L 326.673637 -289.358533 
L 326.738394 -287.618622 
L 326.783587 -285.87871 
L 326.811697 -284.138799 
L 326.826571 -282.398888 
L 326.832936 -280.658976 
L 326.835825 -278.919065 
L 326.840012 -277.179154 
L 326.849561 -275.439242 
L 326.867588 -273.699331 
L 326.896291 -271.95942 
L 326.937273 -270.219508 
L 326.99211 -268.479597 
L 327.063091 -266.739686 
L 327.154002 -264.999774 
L 327.27079 -263.259863 
L 327.42198 -261.519952 
L 327.618702 -259.78004 
L 327.874252 -258.040129 
L 328.203176 -256.300217 
L 328.619929 -254.560306 
L 329.137229 -252.820395 
L 329.764313 -251.080483 
L 330.505312 -249.340572 
L 331.357988 -247.600661 
L 332.313054 -245.860749 
L 333.354232 -244.120838 
L 334.459125 -242.380927 
L 335.600854 -240.641015 
L 336.750334 -238.901104 
L 337.878916 -237.161193 
L 338.961092 -235.421281 
L 339.976927 -233.68137 
L 340.913881 -231.941459 
L 341.767795 -230.201547 
L 342.54291 -228.461636 
L 343.250907 -226.721725 
L 343.909138 -224.981813 
L 344.538264 -223.241902 
L 345.159651 -221.501991 
L 345.792835 -219.762079 
L 346.453372 -218.022168 
L 347.151273 -216.282257 
L 347.890145 -214.542345 
L 348.667025 -212.802434 
L 349.472797 -211.062523 
L 350.293033 -209.322611 
L 351.109059 -207.5827 
L 351.899078 -205.842789 
L 352.639218 -204.102877 
L 353.304459 -202.362966 
L 353.86944 -200.623055 
L 354.309206 -198.883143 
L 354.599977 -197.143232 
L 354.72 -195.403321 
L 354.650531 -193.663409 
L 354.376921 -191.923498 
L 353.889737 -190.183586 
L 353.185796 -188.443675 
L 352.268968 -186.703764 
L 351.150601 -184.963852 
L 349.849449 -183.223941 
L 348.391049 -181.48403 
L 346.806555 -179.744118 
L 345.13111 -178.004207 
L 343.401906 -176.264296 
L 341.656128 -174.524384 
L 339.928981 -172.784473 
L 338.251992 -171.044562 
L 336.651737 -169.30465 
L 335.149072 -167.564739 
L 333.75888 -165.824828 
L 332.490288 -164.084916 
L 331.347255 -162.345005 
L 330.329393 -160.605094 
L 329.432907 -158.865182 
L 328.651517 -157.125271 
L 327.977291 -155.38536 
L 327.401339 -153.645448 
L 326.91433 -151.905537 
L 326.506878 -150.165626 
L 326.169788 -148.425714 
L 325.894228 -146.685803 
L 325.671834 -144.945892 
L 325.494793 -143.20598 
L 325.355898 -141.466069 
L 325.2486 -139.726158 
z
" style="stroke: #3f3f3f; stroke-width: 1.25"/>
    </defs>
    <g clip-path="url(#pe46e33265f)">
     <use xlink:href="#m5859617312" x="0" y="432" style="fill: #e1812c; stroke: #3f3f3f; stroke-width: 1.25"/>
    </g>
   </g>
   <g id="PolyCollection_5">
    <defs>
     <path id="maadb5fcde9" d="M 414.381422 -62.64 
L 414.098578 -62.64 
L 414.04689 -65.694545 
L 413.983165 -68.749091 
L 413.907291 -71.803636 
L 413.820198 -74.858182 
L 413.72406 -77.912727 
L 413.622348 -80.967273 
L 413.519724 -84.021818 
L 413.421723 -87.076364 
L 413.334256 -90.130909 
L 413.262967 -93.185455 
L 413.212536 -96.24 
L 413.186021 -99.294545 
L 413.18435 -102.349091 
L 413.206034 -105.403636 
L 413.247159 -108.458182 
L 413.301645 -111.512727 
L 413.361732 -114.567273 
L 413.418602 -117.621818 
L 413.46305 -120.676364 
L 413.486083 -123.730909 
L 413.479381 -126.785455 
L 413.435565 -129.84 
L 413.348239 -132.894545 
L 413.211847 -135.949091 
L 413.021373 -139.003636 
L 412.771963 -142.058182 
L 412.45855 -145.112727 
L 412.075557 -148.167273 
L 411.616748 -151.221818 
L 411.075278 -154.276364 
L 410.443949 -157.330909 
L 409.715666 -160.385455 
L 408.884069 -163.44 
L 407.944287 -166.494545 
L 406.893798 -169.549091 
L 405.733354 -172.603636 
L 404.467945 -175.658182 
L 403.107778 -178.712727 
L 401.66916 -181.767273 
L 400.175188 -184.821818 
L 398.65603 -187.876364 
L 397.148616 -190.930909 
L 395.695554 -193.985455 
L 394.343195 -197.04 
L 393.138902 -200.094545 
L 392.127773 -203.149091 
L 391.349182 -206.203636 
L 390.833625 -209.258182 
L 390.600307 -212.312727 
L 390.655835 -215.367273 
L 390.99415 -218.421818 
L 391.597633 -221.476364 
L 392.439119 -224.530909 
L 393.484424 -227.585455 
L 394.69496 -230.64 
L 396.030096 -233.694545 
L 397.44903 -236.749091 
L 398.912158 -239.803636 
L 400.381982 -242.858182 
L 401.823763 -245.912727 
L 403.206092 -248.967273 
L 404.501509 -252.021818 
L 405.687239 -255.076364 
L 406.745977 -258.130909 
L 407.666608 -261.185455 
L 408.444708 -264.24 
L 409.082642 -267.294545 
L 409.589194 -270.349091 
L 409.978656 -273.403636 
L 410.269469 -276.458182 
L 410.482526 -279.512727 
L 410.639331 -282.567273 
L 410.760239 -285.621818 
L 410.862953 -288.676364 
L 410.961463 -291.730909 
L 411.065513 -294.785455 
L 411.180609 -297.84 
L 411.308537 -300.894545 
L 411.448231 -303.949091 
L 411.596859 -307.003636 
L 411.750905 -310.058182 
L 411.907102 -313.112727 
L 412.06306 -316.167273 
L 412.217547 -319.221818 
L 412.370412 -322.276364 
L 412.522239 -325.330909 
L 412.673846 -328.385455 
L 412.825775 -331.44 
L 412.977886 -334.494545 
L 413.129163 -337.549091 
L 413.277729 -340.603636 
L 413.421073 -343.658182 
L 413.556405 -346.712727 
L 413.681056 -349.767273 
L 413.792843 -352.821818 
L 413.890318 -355.876364 
L 413.972895 -358.930909 
L 414.040829 -361.985455 
L 414.095091 -365.04 
L 414.384909 -365.04 
L 414.384909 -365.04 
L 414.439171 -361.985455 
L 414.507105 -358.930909 
L 414.589682 -355.876364 
L 414.687157 -352.821818 
L 414.798944 -349.767273 
L 414.923595 -346.712727 
L 415.058927 -343.658182 
L 415.202271 -340.603636 
L 415.350837 -337.549091 
L 415.502114 -334.494545 
L 415.654225 -331.44 
L 415.806154 -328.385455 
L 415.957761 -325.330909 
L 416.109588 -322.276364 
L 416.262453 -319.221818 
L 416.41694 -316.167273 
L 416.572898 -313.112727 
L 416.729095 -310.058182 
L 416.883141 -307.003636 
L 417.031769 -303.949091 
L 417.171463 -300.894545 
L 417.299391 -297.84 
L 417.414487 -294.785455 
L 417.518537 -291.730909 
L 417.617047 -288.676364 
L 417.719761 -285.621818 
L 417.840669 -282.567273 
L 417.997474 -279.512727 
L 418.210531 -276.458182 
L 418.501344 -273.403636 
L 418.890806 -270.349091 
L 419.397358 -267.294545 
L 420.035292 -264.24 
L 420.813392 -261.185455 
L 421.734023 -258.130909 
L 422.792761 -255.076364 
L 423.978491 -252.021818 
L 425.273908 -248.967273 
L 426.656237 -245.912727 
L 428.098018 -242.858182 
L 429.567842 -239.803636 
L 431.03097 -236.749091 
L 432.449904 -233.694545 
L 433.78504 -230.64 
L 434.995576 -227.585455 
L 436.040881 -224.530909 
L 436.882367 -221.476364 
L 437.48585 -218.421818 
L 437.824165 -215.367273 
L 437.879693 -212.312727 
L 437.646375 -209.258182 
L 437.130818 -206.203636 
L 436.352227 -203.149091 
L 435.341098 -200.094545 
L 434.136805 -197.04 
L 432.784446 -193.985455 
L 431.331384 -190.930909 
L 429.82397 -187.876364 
L 428.304812 -184.821818 
L 426.81084 -181.767273 
L 425.372222 -178.712727 
L 424.012055 -175.658182 
L 422.746646 -172.603636 
L 421.586202 -169.549091 
L 420.535713 -166.494545 
L 419.595931 -163.44 
L 418.764334 -160.385455 
L 418.036051 -157.330909 
L 417.404722 -154.276364 
L 416.863252 -151.221818 
L 416.404443 -148.167273 
L 416.02145 -145.112727 
L 415.708037 -142.058182 
L 415.458627 -139.003636 
L 415.268153 -135.949091 
L 415.131761 -132.894545 
L 415.044435 -129.84 
L 415.000619 -126.785455 
L 414.993917 -123.730909 
L 415.01695 -120.676364 
L 415.061398 -117.621818 
L 415.118268 -114.567273 
L 415.178355 -111.512727 
L 415.232841 -108.458182 
L 415.273966 -105.403636 
L 415.29565 -102.349091 
L 415.293979 -99.294545 
L 415.267464 -96.24 
L 415.217033 -93.185455 
L 415.145744 -90.130909 
L 415.058277 -87.076364 
L 414.960276 -84.021818 
L 414.857652 -80.967273 
L 414.75594 -77.912727 
L 414.659802 -74.858182 
L 414.572709 -71.803636 
L 414.496835 -68.749091 
L 414.43311 -65.694545 
L 414.381422 -62.64 
z
" style="stroke: #3f3f3f; stroke-width: 1.25"/>
    </defs>
    <g clip-path="url(#pe46e33265f)">
     <use xlink:href="#maadb5fcde9" x="0" y="432" style="fill: #3274a1; stroke: #3f3f3f; stroke-width: 1.25"/>
    </g>
   </g>
   <g id="PolyCollection_6">
    <defs>
     <path id="m60b64df6eb" d="M 473.978917 -121.536752 
L 473.541083 -121.536752 
L 473.467838 -123.34123 
L 473.377565 -125.145707 
L 473.268833 -126.950185 
L 473.140815 -128.754662 
L 472.993431 -130.55914 
L 472.827409 -132.363618 
L 472.644246 -134.168095 
L 472.446036 -135.972573 
L 472.235155 -137.777051 
L 472.013819 -139.581528 
L 471.783537 -141.386006 
L 471.5445 -143.190483 
L 471.294966 -144.994961 
L 471.030714 -146.799439 
L 470.744622 -148.603916 
L 470.426454 -150.408394 
L 470.062897 -152.212872 
L 469.637922 -154.017349 
L 469.133469 -155.821827 
L 468.530499 -157.626304 
L 467.810366 -159.430782 
L 466.956458 -161.23526 
L 465.956008 -163.039737 
L 464.801904 -164.844215 
L 463.494333 -166.648693 
L 462.042025 -168.45317 
L 460.462909 -170.257648 
L 458.784012 -172.062125 
L 457.040511 -173.866603 
L 455.273956 -175.671081 
L 453.529786 -177.475558 
L 451.854376 -179.280036 
L 450.291926 -181.084514 
L 448.881551 -182.888991 
L 447.654885 -184.693469 
L 446.634485 -186.497946 
L 445.833163 -188.302424 
L 445.254272 -190.106902 
L 444.892819 -191.911379 
L 444.7372 -193.715857 
L 444.771233 -195.520335 
L 444.976215 -197.324812 
L 445.332706 -199.12929 
L 445.821853 -200.933767 
L 446.426144 -202.738245 
L 447.129604 -204.542723 
L 447.917519 -206.3472 
L 448.775863 -208.151678 
L 449.690639 -209.956156 
L 450.647328 -211.760633 
L 451.630631 -213.565111 
L 452.624591 -215.369588 
L 453.613147 -217.174066 
L 454.581016 -218.978544 
L 455.514799 -220.783021 
L 456.404098 -222.587499 
L 457.242444 -224.391977 
L 458.027852 -226.196454 
L 458.762894 -228.000932 
L 459.454237 -229.805409 
L 460.111698 -231.609887 
L 460.746961 -233.414365 
L 461.37211 -235.218842 
L 461.998196 -237.02332 
L 462.63401 -238.827797 
L 463.28518 -240.632275 
L 463.953686 -242.436753 
L 464.637776 -244.24123 
L 465.332263 -246.045708 
L 466.029111 -247.850186 
L 466.718226 -249.654663 
L 467.38837 -251.459141 
L 468.028117 -253.263618 
L 468.626784 -255.068096 
L 469.175285 -256.872574 
L 469.666843 -258.677051 
L 470.097528 -260.481529 
L 470.466549 -262.286007 
L 470.776294 -264.090484 
L 471.032073 -265.894962 
L 471.2416 -267.699439 
L 471.414254 -269.503917 
L 471.560194 -271.308395 
L 471.689426 -273.112872 
L 471.810941 -274.91735 
L 471.932012 -276.721828 
L 472.057725 -278.526305 
L 472.190804 -280.330783 
L 472.331692 -282.13526 
L 472.478896 -283.939738 
L 472.629479 -285.744216 
L 472.77966 -287.548693 
L 472.925397 -289.353171 
L 473.062911 -291.157649 
L 473.189075 -292.962126 
L 473.301662 -294.766604 
L 473.399432 -296.571081 
L 473.482099 -298.375559 
L 473.550188 -300.180037 
L 473.969812 -300.180037 
L 473.969812 -300.180037 
L 474.037901 -298.375559 
L 474.120568 -296.571081 
L 474.218338 -294.766604 
L 474.330925 -292.962126 
L 474.457089 -291.157649 
L 474.594603 -289.353171 
L 474.74034 -287.548693 
L 474.890521 -285.744216 
L 475.041104 -283.939738 
L 475.188308 -282.13526 
L 475.329196 -280.330783 
L 475.462275 -278.526305 
L 475.587988 -276.721828 
L 475.709059 -274.91735 
L 475.830574 -273.112872 
L 475.959806 -271.308395 
L 476.105746 -269.503917 
L 476.2784 -267.699439 
L 476.487927 -265.894962 
L 476.743706 -264.090484 
L 477.053451 -262.286007 
L 477.422472 -260.481529 
L 477.853157 -258.677051 
L 478.344715 -256.872574 
L 478.893216 -255.068096 
L 479.491883 -253.263618 
L 480.13163 -251.459141 
L 480.801774 -249.654663 
L 481.490889 -247.850186 
L 482.187737 -246.045708 
L 482.882224 -244.24123 
L 483.566314 -242.436753 
L 484.23482 -240.632275 
L 484.88599 -238.827797 
L 485.521804 -237.02332 
L 486.14789 -235.218842 
L 486.773039 -233.414365 
L 487.408302 -231.609887 
L 488.065763 -229.805409 
L 488.757106 -228.000932 
L 489.492148 -226.196454 
L 490.277556 -224.391977 
L 491.115902 -222.587499 
L 492.005201 -220.783021 
L 492.938984 -218.978544 
L 493.906853 -217.174066 
L 494.895409 -215.369588 
L 495.889369 -213.565111 
L 496.872672 -211.760633 
L 497.829361 -209.956156 
L 498.744137 -208.151678 
L 499.602481 -206.3472 
L 500.390396 -204.542723 
L 501.093856 -202.738245 
L 501.698147 -200.933767 
L 502.187294 -199.12929 
L 502.543785 -197.324812 
L 502.748767 -195.520335 
L 502.7828 -193.715857 
L 502.627181 -191.911379 
L 502.265728 -190.106902 
L 501.686837 -188.302424 
L 500.885515 -186.497946 
L 499.865115 -184.693469 
L 498.638449 -182.888991 
L 497.228074 -181.084514 
L 495.665624 -179.280036 
L 493.990214 -177.475558 
L 492.246044 -175.671081 
L 490.479489 -173.866603 
L 488.735988 -172.062125 
L 487.057091 -170.257648 
L 485.477975 -168.45317 
L 484.025667 -166.648693 
L 482.718096 -164.844215 
L 481.563992 -163.039737 
L 480.563542 -161.23526 
L 479.709634 -159.430782 
L 478.989501 -157.626304 
L 478.386531 -155.821827 
L 477.882078 -154.017349 
L 477.457103 -152.212872 
L 477.093546 -150.408394 
L 476.775378 -148.603916 
L 476.489286 -146.799439 
L 476.225034 -144.994961 
L 475.9755 -143.190483 
L 475.736463 -141.386006 
L 475.506181 -139.581528 
L 475.284845 -137.777051 
L 475.073964 -135.972573 
L 474.875754 -134.168095 
L 474.692591 -132.363618 
L 474.526569 -130.55914 
L 474.379185 -128.754662 
L 474.251167 -126.950185 
L 474.142435 -125.145707 
L 474.052162 -123.34123 
L 473.978917 -121.536752 
z
" style="stroke: #3f3f3f; stroke-width: 1.25"/>
    </defs>
    <g clip-path="url(#pe46e33265f)">
     <use xlink:href="#m60b64df6eb" x="0" y="432" style="fill: #e1812c; stroke: #3f3f3f; stroke-width: 1.25"/>
    </g>
   </g>
   <g id="patch_3">
    <path d="M 146.4 331.727589 
L 146.4 331.727589 
L 146.4 331.727589 
L 146.4 331.727589 
z
" clip-path="url(#pe46e33265f)" style="fill: #3274a1; stroke: #3f3f3f; stroke-width: 1.25; stroke-linejoin: miter"/>
   </g>
   <g id="patch_4">
    <path d="M 146.4 331.727589 
L 146.4 331.727589 
L 146.4 331.727589 
L 146.4 331.727589 
z
" clip-path="url(#pe46e33265f)" style="fill: #e1812c; stroke: #3f3f3f; stroke-width: 1.25; stroke-linejoin: miter"/>
   </g>
   <g id="line2d_7">
    <path d="M 116.64 260.662691 
L 116.64 175.425678 
" clip-path="url(#pe46e33265f)" style="fill: none; stroke: #3f3f3f; stroke-width: 1.875; stroke-linecap: round"/>
   </g>
   <g id="line2d_8">
    <path d="M 116.64 235.103434 
L 116.64 211.230363 
" clip-path="url(#pe46e33265f)" style="fill: none; stroke: #3f3f3f; stroke-width: 5.625; stroke-linecap: round"/>
   </g>
   <g id="line2d_9">
    <path d="M 116.64 225.088693 
" clip-path="url(#pe46e33265f)" style="fill: none; stroke: #3f3f3f; stroke-width: 1.5; stroke-linecap: round"/>
    <defs>
     <path id="me6a6b8d431" d="M 2.34375 0 
L -2.34375 -0 
" style="stroke: #ffffff; stroke-width: 1.125"/>
    </defs>
    <g clip-path="url(#pe46e33265f)">
     <use xlink:href="#me6a6b8d431" x="116.64" y="225.088693" style="fill: #ffffff; stroke: #ffffff; stroke-width: 1.125"/>
    </g>
   </g>
   <g id="line2d_10">
    <path d="M 176.16 281.042023 
L 176.16 161.338932 
" clip-path="url(#pe46e33265f)" style="fill: none; stroke: #3f3f3f; stroke-width: 1.875; stroke-linecap: round"/>
   </g>
   <g id="line2d_11">
    <path d="M 176.16 245.835648 
L 176.16 210.38415 
" clip-path="url(#pe46e33265f)" style="fill: none; stroke: #3f3f3f; stroke-width: 5.625; stroke-linecap: round"/>
   </g>
   <g id="line2d_12">
    <path d="M 176.16 229.533518 
" clip-path="url(#pe46e33265f)" style="fill: none; stroke: #3f3f3f; stroke-width: 1.5; stroke-linecap: round"/>
    <g clip-path="url(#pe46e33265f)">
     <use xlink:href="#me6a6b8d431" x="176.16" y="229.533518" style="fill: #ffffff; stroke: #ffffff; stroke-width: 1.125"/>
    </g>
   </g>
   <g id="line2d_13">
    <path d="M 265.44 277.189586 
L 265.44 162.235128 
" clip-path="url(#pe46e33265f)" style="fill: none; stroke: #3f3f3f; stroke-width: 1.875; stroke-linecap: round"/>
   </g>
   <g id="line2d_14">
    <path d="M 265.44 233.929944 
L 265.44 204.956486 
" clip-path="url(#pe46e33265f)" style="fill: none; stroke: #3f3f3f; stroke-width: 5.625; stroke-linecap: round"/>
   </g>
   <g id="line2d_15">
    <path d="M 265.44 217.720011 
" clip-path="url(#pe46e33265f)" style="fill: none; stroke: #3f3f3f; stroke-width: 1.5; stroke-linecap: round"/>
    <g clip-path="url(#pe46e33265f)">
     <use xlink:href="#me6a6b8d431" x="265.44" y="217.720011" style="fill: #ffffff; stroke: #ffffff; stroke-width: 1.125"/>
    </g>
   </g>
   <g id="line2d_16">
    <path d="M 324.96 268.047753 
L 324.96 169.247907 
" clip-path="url(#pe46e33265f)" style="fill: none; stroke: #3f3f3f; stroke-width: 1.875; stroke-linecap: round"/>
   </g>
   <g id="line2d_17">
    <path d="M 324.96 244.514091 
L 324.96 208.130458 
" clip-path="url(#pe46e33265f)" style="fill: none; stroke: #3f3f3f; stroke-width: 5.625; stroke-linecap: round"/>
   </g>
   <g id="line2d_18">
    <path d="M 324.96 230.842688 
" clip-path="url(#pe46e33265f)" style="fill: none; stroke: #3f3f3f; stroke-width: 1.5; stroke-linecap: round"/>
    <g clip-path="url(#pe46e33265f)">
     <use xlink:href="#me6a6b8d431" x="324.96" y="230.842688" style="fill: #ffffff; stroke: #ffffff; stroke-width: 1.125"/>
    </g>
   </g>
   <g id="line2d_19">
    <path d="M 414.24 275.358735 
L 414.24 153.21027 
" clip-path="url(#pe46e33265f)" style="fill: none; stroke: #3f3f3f; stroke-width: 1.875; stroke-linecap: round"/>
   </g>
   <g id="line2d_20">
    <path d="M 414.24 229.579596 
L 414.24 196.03936 
" clip-path="url(#pe46e33265f)" style="fill: none; stroke: #3f3f3f; stroke-width: 5.625; stroke-linecap: round"/>
   </g>
   <g id="line2d_21">
    <path d="M 414.24 217.288551 
" clip-path="url(#pe46e33265f)" style="fill: none; stroke: #3f3f3f; stroke-width: 1.5; stroke-linecap: round"/>
    <g clip-path="url(#pe46e33265f)">
     <use xlink:href="#me6a6b8d431" x="414.24" y="217.288551" style="fill: #ffffff; stroke: #ffffff; stroke-width: 1.125"/>
    </g>
   </g>
   <g id="line2d_22">
    <path d="M 473.76 285.604176 
L 473.76 181.357618 
" clip-path="url(#pe46e33265f)" style="fill: none; stroke: #3f3f3f; stroke-width: 1.875; stroke-linecap: round"/>
   </g>
   <g id="line2d_23">
    <path d="M 473.76 246.314165 
L 473.76 215.876582 
" clip-path="url(#pe46e33265f)" style="fill: none; stroke: #3f3f3f; stroke-width: 5.625; stroke-linecap: round"/>
   </g>
   <g id="line2d_24">
    <path d="M 473.76 232.679185 
" clip-path="url(#pe46e33265f)" style="fill: none; stroke: #3f3f3f; stroke-width: 1.5; stroke-linecap: round"/>
    <g clip-path="url(#pe46e33265f)">
     <use xlink:href="#me6a6b8d431" x="473.76" y="232.679185" style="fill: #ffffff; stroke: #ffffff; stroke-width: 1.125"/>
    </g>
   </g>
   <g id="patch_5">
    <path d="M 72 384.48 
L 72 51.84 
" style="fill: none; stroke: #cccccc; stroke-width: 0.8; stroke-linejoin: miter; stroke-linecap: square"/>
   </g>
   <g id="patch_6">
    <path d="M 518.4 384.48 
L 518.4 51.84 
" style="fill: none; stroke: #cccccc; stroke-width: 0.8; stroke-linejoin: miter; stroke-linecap: square"/>
   </g>
   <g id="patch_7">
    <path d="M 72 384.48 
L 518.4 384.48 
" style="fill: none; stroke: #cccccc; stroke-width: 0.8; stroke-linejoin: miter; stroke-linecap: square"/>
   </g>
   <g id="patch_8">
    <path d="M 72 51.84 
L 518.4 51.84 
" style="fill: none; stroke: #cccccc; stroke-width: 0.8; stroke-linejoin: miter; stroke-linecap: square"/>
   </g>
   <g id="legend_1">
    <g id="patch_9">
     <path d="M 456.6125 379.48 
L 511.4 379.48 
Q 513.4 379.48 513.4 377.48 
L 513.4 336.044062 
Q 513.4 334.044062 511.4 334.044062 
L 456.6125 334.044062 
Q 454.6125 334.044062 454.6125 336.044062 
L 454.6125 377.48 
Q 454.6125 379.48 456.6125 379.48 
z
" style="fill: #ffffff; opacity: 0.8; stroke: #cccccc; stroke-linejoin: miter"/>
    </g>
    <g id="text_12">
     <!-- Time -->
     <g style="fill: #262626" transform="translate(473.083594 345.201875) scale(0.1 -0.1)">
      <defs>
       <path id="ArialMT-54" d="M 1659 0 
L 1659 4041 
L 150 4041 
L 150 4581 
L 3781 4581 
L 3781 4041 
L 2266 4041 
L 2266 0 
L 1659 0 
z
" transform="scale(0.015625)"/>
      </defs>
      <use xlink:href="#ArialMT-54"/>
      <use xlink:href="#ArialMT-69" x="57.333984"/>
      <use xlink:href="#ArialMT-6d" x="79.550781"/>
      <use xlink:href="#ArialMT-65" x="162.851562"/>
     </g>
    </g>
    <g id="patch_10">
     <path d="M 458.6125 359.347188 
L 478.6125 359.347188 
L 478.6125 352.347188 
L 458.6125 352.347188 
z
" style="fill: #3274a1; stroke: #3f3f3f; stroke-width: 1.25; stroke-linejoin: miter"/>
    </g>
    <g id="text_13">
     <!-- initial -->
     <g style="fill: #262626" transform="translate(486.6125 359.347188) scale(0.1 -0.1)">
      <use xlink:href="#ArialMT-69"/>
      <use xlink:href="#ArialMT-6e" x="22.216797"/>
      <use xlink:href="#ArialMT-69" x="77.832031"/>
      <use xlink:href="#ArialMT-74" x="100.048828"/>
      <use xlink:href="#ArialMT-69" x="127.832031"/>
      <use xlink:href="#ArialMT-61" x="150.048828"/>
      <use xlink:href="#ArialMT-6c" x="205.664062"/>
     </g>
    </g>
    <g id="patch_11">
     <path d="M 458.6125 373.4925 
L 478.6125 373.4925 
L 478.6125 366.4925 
L 458.6125 366.4925 
z
" style="fill: #e1812c; stroke: #3f3f3f; stroke-width: 1.25; stroke-linejoin: miter"/>
    </g>
    <g id="text_14">
     <!-- final -->
     <g style="fill: #262626" transform="translate(486.6125 373.4925) scale(0.1 -0.1)">
      <use xlink:href="#ArialMT-66"/>
      <use xlink:href="#ArialMT-69" x="27.783203"/>
      <use xlink:href="#ArialMT-6e" x="50"/>
      <use xlink:href="#ArialMT-61" x="105.615234"/>
      <use xlink:href="#ArialMT-6c" x="161.230469"/>
     </g>
    </g>
   </g>
  </g>
 </g>
 <defs>
  <clipPath id="pe46e33265f">
   <rect x="72" y="51.84" width="446.4" height="332.64"/>
  </clipPath>
 </defs>
</svg>
