<?xml version="1.0" encoding="utf-8" standalone="no"?>
<!DOCTYPE svg PUBLIC "-//W3C//DTD SVG 1.1//EN"
  "http://www.w3.org/Graphics/SVG/1.1/DTD/svg11.dtd">
<svg xmlns:xlink="http://www.w3.org/1999/xlink" width="576pt" height="432pt" viewBox="0 0 576 432" xmlns="http://www.w3.org/2000/svg" version="1.1">
 <metadata>
  <rdf:RDF xmlns:dc="http://purl.org/dc/elements/1.1/" xmlns:cc="http://creativecommons.org/ns#" xmlns:rdf="http://www.w3.org/1999/02/22-rdf-syntax-ns#">
   <cc:Work>
    <dc:type rdf:resource="http://purl.org/dc/dcmitype/StillImage"/>
    <dc:date>2024-09-09T17:20:23.023190</dc:date>
    <dc:format>image/svg+xml</dc:format>
    <dc:creator>
     <cc:Agent>
      <dc:title>Matplotlib v3.8.3, https://matplotlib.org/</dc:title>
     </cc:Agent>
    </dc:creator>
   </cc:Work>
  </rdf:RDF>
 </metadata>
 <defs>
  <style type="text/css">*{stroke-linejoin: round; stroke-linecap: butt}</style>
 </defs>
 <g id="figure_1">
  <g id="patch_1">
   <path d="M 0 432 
L 576 432 
L 576 0 
L 0 0 
z
" style="fill: #ffffff"/>
  </g>
  <g id="axes_1">
   <g id="patch_2">
    <path d="M 72 384.48 
L 518.4 384.48 
L 518.4 51.84 
L 72 51.84 
z
" style="fill: #ffffff"/>
   </g>
   <g id="matplotlib.axis_1">
    <g id="xtick_1">
     <g id="text_1">
      <!-- 1 -->
      <g style="fill: #262626" transform="translate(143.619531 398.637812) scale(0.1 -0.1)">
       <defs>
        <path id="ArialMT-31" d="M 2384 0 
L 1822 0 
L 1822 3584 
Q 1619 3391 1289 3197 
Q 959 3003 697 2906 
L 697 3450 
Q 1169 3672 1522 3987 
Q 1875 4303 2022 4600 
L 2384 4600 
L 2384 0 
z
" transform="scale(0.015625)"/>
       </defs>
       <use xlink:href="#ArialMT-31"/>
      </g>
     </g>
    </g>
    <g id="xtick_2">
     <g id="text_2">
      <!-- 2 -->
      <g style="fill: #262626" transform="translate(292.419531 398.637812) scale(0.1 -0.1)">
       <defs>
        <path id="ArialMT-32" d="M 3222 541 
L 3222 0 
L 194 0 
Q 188 203 259 391 
Q 375 700 629 1000 
Q 884 1300 1366 1694 
Q 2113 2306 2375 2664 
Q 2638 3022 2638 3341 
Q 2638 3675 2398 3904 
Q 2159 4134 1775 4134 
Q 1369 4134 1125 3890 
Q 881 3647 878 3216 
L 300 3275 
Q 359 3922 746 4261 
Q 1134 4600 1788 4600 
Q 2447 4600 2831 4234 
Q 3216 3869 3216 3328 
Q 3216 3053 3103 2787 
Q 2991 2522 2730 2228 
Q 2469 1934 1863 1422 
Q 1356 997 1212 845 
Q 1069 694 975 541 
L 3222 541 
z
" transform="scale(0.015625)"/>
       </defs>
       <use xlink:href="#ArialMT-32"/>
      </g>
     </g>
    </g>
    <g id="xtick_3">
     <g id="text_3">
      <!-- 3 -->
      <g style="fill: #262626" transform="translate(441.219531 398.637812) scale(0.1 -0.1)">
       <defs>
        <path id="ArialMT-33" d="M 269 1209 
L 831 1284 
Q 928 806 1161 595 
Q 1394 384 1728 384 
Q 2125 384 2398 659 
Q 2672 934 2672 1341 
Q 2672 1728 2419 1979 
Q 2166 2231 1775 2231 
Q 1616 2231 1378 2169 
L 1441 2663 
Q 1497 2656 1531 2656 
Q 1891 2656 2178 2843 
Q 2466 3031 2466 3422 
Q 2466 3731 2256 3934 
Q 2047 4138 1716 4138 
Q 1388 4138 1169 3931 
Q 950 3725 888 3313 
L 325 3413 
Q 428 3978 793 4289 
Q 1159 4600 1703 4600 
Q 2078 4600 2393 4439 
Q 2709 4278 2876 4000 
Q 3044 3722 3044 3409 
Q 3044 3113 2884 2869 
Q 2725 2625 2413 2481 
Q 2819 2388 3044 2092 
Q 3269 1797 3269 1353 
Q 3269 753 2831 336 
Q 2394 -81 1725 -81 
Q 1122 -81 723 278 
Q 325 638 269 1209 
z
" transform="scale(0.015625)"/>
       </defs>
       <use xlink:href="#ArialMT-33"/>
      </g>
     </g>
    </g>
    <g id="text_4">
     <!-- Effort level -->
     <g style="fill: #262626" transform="translate(271.667969 411.783125) scale(0.1 -0.1)">
      <defs>
       <path id="ArialMT-45" d="M 506 0 
L 506 4581 
L 3819 4581 
L 3819 4041 
L 1113 4041 
L 1113 2638 
L 3647 2638 
L 3647 2100 
L 1113 2100 
L 1113 541 
L 3925 541 
L 3925 0 
L 506 0 
z
" transform="scale(0.015625)"/>
       <path id="ArialMT-66" d="M 556 0 
L 556 2881 
L 59 2881 
L 59 3319 
L 556 3319 
L 556 3672 
Q 556 4006 616 4169 
Q 697 4388 901 4523 
Q 1106 4659 1475 4659 
Q 1713 4659 2000 4603 
L 1916 4113 
Q 1741 4144 1584 4144 
Q 1328 4144 1222 4034 
Q 1116 3925 1116 3625 
L 1116 3319 
L 1763 3319 
L 1763 2881 
L 1116 2881 
L 1116 0 
L 556 0 
z
" transform="scale(0.015625)"/>
       <path id="ArialMT-6f" d="M 213 1659 
Q 213 2581 725 3025 
Q 1153 3394 1769 3394 
Q 2453 3394 2887 2945 
Q 3322 2497 3322 1706 
Q 3322 1066 3130 698 
Q 2938 331 2570 128 
Q 2203 -75 1769 -75 
Q 1072 -75 642 372 
Q 213 819 213 1659 
z
M 791 1659 
Q 791 1022 1069 705 
Q 1347 388 1769 388 
Q 2188 388 2466 706 
Q 2744 1025 2744 1678 
Q 2744 2294 2464 2611 
Q 2184 2928 1769 2928 
Q 1347 2928 1069 2612 
Q 791 2297 791 1659 
z
" transform="scale(0.015625)"/>
       <path id="ArialMT-72" d="M 416 0 
L 416 3319 
L 922 3319 
L 922 2816 
Q 1116 3169 1280 3281 
Q 1444 3394 1641 3394 
Q 1925 3394 2219 3213 
L 2025 2691 
Q 1819 2813 1613 2813 
Q 1428 2813 1281 2702 
Q 1134 2591 1072 2394 
Q 978 2094 978 1738 
L 978 0 
L 416 0 
z
" transform="scale(0.015625)"/>
       <path id="ArialMT-74" d="M 1650 503 
L 1731 6 
Q 1494 -44 1306 -44 
Q 1000 -44 831 53 
Q 663 150 594 308 
Q 525 466 525 972 
L 525 2881 
L 113 2881 
L 113 3319 
L 525 3319 
L 525 4141 
L 1084 4478 
L 1084 3319 
L 1650 3319 
L 1650 2881 
L 1084 2881 
L 1084 941 
Q 1084 700 1114 631 
Q 1144 563 1211 522 
Q 1278 481 1403 481 
Q 1497 481 1650 503 
z
" transform="scale(0.015625)"/>
       <path id="ArialMT-20" transform="scale(0.015625)"/>
       <path id="ArialMT-6c" d="M 409 0 
L 409 4581 
L 972 4581 
L 972 0 
L 409 0 
z
" transform="scale(0.015625)"/>
       <path id="ArialMT-65" d="M 2694 1069 
L 3275 997 
Q 3138 488 2766 206 
Q 2394 -75 1816 -75 
Q 1088 -75 661 373 
Q 234 822 234 1631 
Q 234 2469 665 2931 
Q 1097 3394 1784 3394 
Q 2450 3394 2872 2941 
Q 3294 2488 3294 1666 
Q 3294 1616 3291 1516 
L 816 1516 
Q 847 969 1125 678 
Q 1403 388 1819 388 
Q 2128 388 2347 550 
Q 2566 713 2694 1069 
z
M 847 1978 
L 2700 1978 
Q 2663 2397 2488 2606 
Q 2219 2931 1791 2931 
Q 1403 2931 1139 2672 
Q 875 2413 847 1978 
z
" transform="scale(0.015625)"/>
       <path id="ArialMT-76" d="M 1344 0 
L 81 3319 
L 675 3319 
L 1388 1331 
Q 1503 1009 1600 663 
Q 1675 925 1809 1294 
L 2547 3319 
L 3125 3319 
L 1869 0 
L 1344 0 
z
" transform="scale(0.015625)"/>
      </defs>
      <use xlink:href="#ArialMT-45"/>
      <use xlink:href="#ArialMT-66" x="66.699219"/>
      <use xlink:href="#ArialMT-66" x="92.732422"/>
      <use xlink:href="#ArialMT-6f" x="120.515625"/>
      <use xlink:href="#ArialMT-72" x="176.130859"/>
      <use xlink:href="#ArialMT-74" x="209.431641"/>
      <use xlink:href="#ArialMT-20" x="237.214844"/>
      <use xlink:href="#ArialMT-6c" x="264.998047"/>
      <use xlink:href="#ArialMT-65" x="287.214844"/>
      <use xlink:href="#ArialMT-76" x="342.830078"/>
      <use xlink:href="#ArialMT-65" x="392.830078"/>
      <use xlink:href="#ArialMT-6c" x="448.445312"/>
     </g>
    </g>
   </g>
   <g id="matplotlib.axis_2">
    <g id="ytick_1">
     <g id="line2d_1">
      <path d="M 72 373.565711 
L 518.4 373.565711 
" clip-path="url(#pa3beda0b83)" style="fill: none; stroke: #cccccc; stroke-width: 0.8; stroke-linecap: round"/>
     </g>
     <g id="text_5">
      <!-- −2.5 -->
      <g style="fill: #262626" transform="translate(45.259375 377.144617) scale(0.1 -0.1)">
       <defs>
        <path id="ArialMT-2212" d="M 3381 1997 
L 356 1997 
L 356 2522 
L 3381 2522 
L 3381 1997 
z
" transform="scale(0.015625)"/>
        <path id="ArialMT-2e" d="M 581 0 
L 581 641 
L 1222 641 
L 1222 0 
L 581 0 
z
" transform="scale(0.015625)"/>
        <path id="ArialMT-35" d="M 266 1200 
L 856 1250 
Q 922 819 1161 601 
Q 1400 384 1738 384 
Q 2144 384 2425 690 
Q 2706 997 2706 1503 
Q 2706 1984 2436 2262 
Q 2166 2541 1728 2541 
Q 1456 2541 1237 2417 
Q 1019 2294 894 2097 
L 366 2166 
L 809 4519 
L 3088 4519 
L 3088 3981 
L 1259 3981 
L 1013 2750 
Q 1425 3038 1878 3038 
Q 2478 3038 2890 2622 
Q 3303 2206 3303 1553 
Q 3303 931 2941 478 
Q 2500 -78 1738 -78 
Q 1113 -78 717 272 
Q 322 622 266 1200 
z
" transform="scale(0.015625)"/>
       </defs>
       <use xlink:href="#ArialMT-2212"/>
       <use xlink:href="#ArialMT-32" x="58.398438"/>
       <use xlink:href="#ArialMT-2e" x="114.013672"/>
       <use xlink:href="#ArialMT-35" x="141.796875"/>
      </g>
     </g>
    </g>
    <g id="ytick_2">
     <g id="line2d_2">
      <path d="M 72 333.730884 
L 518.4 333.730884 
" clip-path="url(#pa3beda0b83)" style="fill: none; stroke: #cccccc; stroke-width: 0.8; stroke-linecap: round"/>
     </g>
     <g id="text_6">
      <!-- 0.0 -->
      <g style="fill: #262626" transform="translate(51.1 337.30979) scale(0.1 -0.1)">
       <defs>
        <path id="ArialMT-30" d="M 266 2259 
Q 266 3072 433 3567 
Q 600 4063 929 4331 
Q 1259 4600 1759 4600 
Q 2128 4600 2406 4451 
Q 2684 4303 2865 4023 
Q 3047 3744 3150 3342 
Q 3253 2941 3253 2259 
Q 3253 1453 3087 958 
Q 2922 463 2592 192 
Q 2263 -78 1759 -78 
Q 1097 -78 719 397 
Q 266 969 266 2259 
z
M 844 2259 
Q 844 1131 1108 757 
Q 1372 384 1759 384 
Q 2147 384 2411 759 
Q 2675 1134 2675 2259 
Q 2675 3391 2411 3762 
Q 2147 4134 1753 4134 
Q 1366 4134 1134 3806 
Q 844 3388 844 2259 
z
" transform="scale(0.015625)"/>
       </defs>
       <use xlink:href="#ArialMT-30"/>
       <use xlink:href="#ArialMT-2e" x="55.615234"/>
       <use xlink:href="#ArialMT-30" x="83.398438"/>
      </g>
     </g>
    </g>
    <g id="ytick_3">
     <g id="line2d_3">
      <path d="M 72 293.896057 
L 518.4 293.896057 
" clip-path="url(#pa3beda0b83)" style="fill: none; stroke: #cccccc; stroke-width: 0.8; stroke-linecap: round"/>
     </g>
     <g id="text_7">
      <!-- 2.5 -->
      <g style="fill: #262626" transform="translate(51.1 297.474963) scale(0.1 -0.1)">
       <use xlink:href="#ArialMT-32"/>
       <use xlink:href="#ArialMT-2e" x="55.615234"/>
       <use xlink:href="#ArialMT-35" x="83.398438"/>
      </g>
     </g>
    </g>
    <g id="ytick_4">
     <g id="line2d_4">
      <path d="M 72 254.06123 
L 518.4 254.06123 
" clip-path="url(#pa3beda0b83)" style="fill: none; stroke: #cccccc; stroke-width: 0.8; stroke-linecap: round"/>
     </g>
     <g id="text_8">
      <!-- 5.0 -->
      <g style="fill: #262626" transform="translate(51.1 257.640137) scale(0.1 -0.1)">
       <use xlink:href="#ArialMT-35"/>
       <use xlink:href="#ArialMT-2e" x="55.615234"/>
       <use xlink:href="#ArialMT-30" x="83.398438"/>
      </g>
     </g>
    </g>
    <g id="ytick_5">
     <g id="line2d_5">
      <path d="M 72 214.226404 
L 518.4 214.226404 
" clip-path="url(#pa3beda0b83)" style="fill: none; stroke: #cccccc; stroke-width: 0.8; stroke-linecap: round"/>
     </g>
     <g id="text_9">
      <!-- 7.5 -->
      <g style="fill: #262626" transform="translate(51.1 217.80531) scale(0.1 -0.1)">
       <defs>
        <path id="ArialMT-37" d="M 303 3981 
L 303 4522 
L 3269 4522 
L 3269 4084 
Q 2831 3619 2401 2847 
Q 1972 2075 1738 1259 
Q 1569 684 1522 0 
L 944 0 
Q 953 541 1156 1306 
Q 1359 2072 1739 2783 
Q 2119 3494 2547 3981 
L 303 3981 
z
" transform="scale(0.015625)"/>
       </defs>
       <use xlink:href="#ArialMT-37"/>
       <use xlink:href="#ArialMT-2e" x="55.615234"/>
       <use xlink:href="#ArialMT-35" x="83.398438"/>
      </g>
     </g>
    </g>
    <g id="ytick_6">
     <g id="line2d_6">
      <path d="M 72 174.391577 
L 518.4 174.391577 
" clip-path="url(#pa3beda0b83)" style="fill: none; stroke: #cccccc; stroke-width: 0.8; stroke-linecap: round"/>
     </g>
     <g id="text_10">
      <!-- 10.0 -->
      <g style="fill: #262626" transform="translate(45.539062 177.970483) scale(0.1 -0.1)">
       <use xlink:href="#ArialMT-31"/>
       <use xlink:href="#ArialMT-30" x="55.615234"/>
       <use xlink:href="#ArialMT-2e" x="111.230469"/>
       <use xlink:href="#ArialMT-30" x="139.013672"/>
      </g>
     </g>
    </g>
    <g id="ytick_7">
     <g id="line2d_7">
      <path d="M 72 134.55675 
L 518.4 134.55675 
" clip-path="url(#pa3beda0b83)" style="fill: none; stroke: #cccccc; stroke-width: 0.8; stroke-linecap: round"/>
     </g>
     <g id="text_11">
      <!-- 12.5 -->
      <g style="fill: #262626" transform="translate(45.539062 138.135656) scale(0.1 -0.1)">
       <use xlink:href="#ArialMT-31"/>
       <use xlink:href="#ArialMT-32" x="55.615234"/>
       <use xlink:href="#ArialMT-2e" x="111.230469"/>
       <use xlink:href="#ArialMT-35" x="139.013672"/>
      </g>
     </g>
    </g>
    <g id="ytick_8">
     <g id="line2d_8">
      <path d="M 72 94.721923 
L 518.4 94.721923 
" clip-path="url(#pa3beda0b83)" style="fill: none; stroke: #cccccc; stroke-width: 0.8; stroke-linecap: round"/>
     </g>
     <g id="text_12">
      <!-- 15.0 -->
      <g style="fill: #262626" transform="translate(45.539062 98.300829) scale(0.1 -0.1)">
       <use xlink:href="#ArialMT-31"/>
       <use xlink:href="#ArialMT-35" x="55.615234"/>
       <use xlink:href="#ArialMT-2e" x="111.230469"/>
       <use xlink:href="#ArialMT-30" x="139.013672"/>
      </g>
     </g>
    </g>
    <g id="ytick_9">
     <g id="line2d_9">
      <path d="M 72 54.887096 
L 518.4 54.887096 
" clip-path="url(#pa3beda0b83)" style="fill: none; stroke: #cccccc; stroke-width: 0.8; stroke-linecap: round"/>
     </g>
     <g id="text_13">
      <!-- 17.5 -->
      <g style="fill: #262626" transform="translate(45.539062 58.466003) scale(0.1 -0.1)">
       <use xlink:href="#ArialMT-31"/>
       <use xlink:href="#ArialMT-37" x="55.615234"/>
       <use xlink:href="#ArialMT-2e" x="111.230469"/>
       <use xlink:href="#ArialMT-35" x="139.013672"/>
      </g>
     </g>
    </g>
    <g id="text_14">
     <!-- O2 per pulse (l) -->
     <g style="fill: #262626" transform="translate(39.154687 252.615469) rotate(-90) scale(0.1 -0.1)">
      <defs>
       <path id="ArialMT-4f" d="M 309 2231 
Q 309 3372 921 4017 
Q 1534 4663 2503 4663 
Q 3138 4663 3647 4359 
Q 4156 4056 4423 3514 
Q 4691 2972 4691 2284 
Q 4691 1588 4409 1038 
Q 4128 488 3612 205 
Q 3097 -78 2500 -78 
Q 1853 -78 1343 234 
Q 834 547 571 1087 
Q 309 1628 309 2231 
z
M 934 2222 
Q 934 1394 1379 917 
Q 1825 441 2497 441 
Q 3181 441 3623 922 
Q 4066 1403 4066 2288 
Q 4066 2847 3877 3264 
Q 3688 3681 3323 3911 
Q 2959 4141 2506 4141 
Q 1863 4141 1398 3698 
Q 934 3256 934 2222 
z
" transform="scale(0.015625)"/>
       <path id="ArialMT-70" d="M 422 -1272 
L 422 3319 
L 934 3319 
L 934 2888 
Q 1116 3141 1344 3267 
Q 1572 3394 1897 3394 
Q 2322 3394 2647 3175 
Q 2972 2956 3137 2557 
Q 3303 2159 3303 1684 
Q 3303 1175 3120 767 
Q 2938 359 2589 142 
Q 2241 -75 1856 -75 
Q 1575 -75 1351 44 
Q 1128 163 984 344 
L 984 -1272 
L 422 -1272 
z
M 931 1641 
Q 931 1000 1190 694 
Q 1450 388 1819 388 
Q 2194 388 2461 705 
Q 2728 1022 2728 1688 
Q 2728 2322 2467 2637 
Q 2206 2953 1844 2953 
Q 1484 2953 1207 2617 
Q 931 2281 931 1641 
z
" transform="scale(0.015625)"/>
       <path id="ArialMT-75" d="M 2597 0 
L 2597 488 
Q 2209 -75 1544 -75 
Q 1250 -75 995 37 
Q 741 150 617 320 
Q 494 491 444 738 
Q 409 903 409 1263 
L 409 3319 
L 972 3319 
L 972 1478 
Q 972 1038 1006 884 
Q 1059 663 1231 536 
Q 1403 409 1656 409 
Q 1909 409 2131 539 
Q 2353 669 2445 892 
Q 2538 1116 2538 1541 
L 2538 3319 
L 3100 3319 
L 3100 0 
L 2597 0 
z
" transform="scale(0.015625)"/>
       <path id="ArialMT-73" d="M 197 991 
L 753 1078 
Q 800 744 1014 566 
Q 1228 388 1613 388 
Q 2000 388 2187 545 
Q 2375 703 2375 916 
Q 2375 1106 2209 1216 
Q 2094 1291 1634 1406 
Q 1016 1563 777 1677 
Q 538 1791 414 1992 
Q 291 2194 291 2438 
Q 291 2659 392 2848 
Q 494 3038 669 3163 
Q 800 3259 1026 3326 
Q 1253 3394 1513 3394 
Q 1903 3394 2198 3281 
Q 2494 3169 2634 2976 
Q 2775 2784 2828 2463 
L 2278 2388 
Q 2241 2644 2061 2787 
Q 1881 2931 1553 2931 
Q 1166 2931 1000 2803 
Q 834 2675 834 2503 
Q 834 2394 903 2306 
Q 972 2216 1119 2156 
Q 1203 2125 1616 2013 
Q 2213 1853 2448 1751 
Q 2684 1650 2818 1456 
Q 2953 1263 2953 975 
Q 2953 694 2789 445 
Q 2625 197 2315 61 
Q 2006 -75 1616 -75 
Q 969 -75 630 194 
Q 291 463 197 991 
z
" transform="scale(0.015625)"/>
       <path id="ArialMT-28" d="M 1497 -1347 
Q 1031 -759 709 28 
Q 388 816 388 1659 
Q 388 2403 628 3084 
Q 909 3875 1497 4659 
L 1900 4659 
Q 1522 4009 1400 3731 
Q 1209 3300 1100 2831 
Q 966 2247 966 1656 
Q 966 153 1900 -1347 
L 1497 -1347 
z
" transform="scale(0.015625)"/>
       <path id="ArialMT-29" d="M 791 -1347 
L 388 -1347 
Q 1322 153 1322 1656 
Q 1322 2244 1188 2822 
Q 1081 3291 891 3722 
Q 769 4003 388 4659 
L 791 4659 
Q 1378 3875 1659 3084 
Q 1900 2403 1900 1659 
Q 1900 816 1576 28 
Q 1253 -759 791 -1347 
z
" transform="scale(0.015625)"/>
      </defs>
      <use xlink:href="#ArialMT-4f"/>
      <use xlink:href="#ArialMT-32" x="77.783203"/>
      <use xlink:href="#ArialMT-20" x="133.398438"/>
      <use xlink:href="#ArialMT-70" x="161.181641"/>
      <use xlink:href="#ArialMT-65" x="216.796875"/>
      <use xlink:href="#ArialMT-72" x="272.412109"/>
      <use xlink:href="#ArialMT-20" x="305.712891"/>
      <use xlink:href="#ArialMT-70" x="333.496094"/>
      <use xlink:href="#ArialMT-75" x="389.111328"/>
      <use xlink:href="#ArialMT-6c" x="444.726562"/>
      <use xlink:href="#ArialMT-73" x="466.943359"/>
      <use xlink:href="#ArialMT-65" x="516.943359"/>
      <use xlink:href="#ArialMT-20" x="572.558594"/>
      <use xlink:href="#ArialMT-28" x="600.341797"/>
      <use xlink:href="#ArialMT-6c" x="633.642578"/>
      <use xlink:href="#ArialMT-29" x="655.859375"/>
     </g>
    </g>
   </g>
   <g id="PolyCollection_1">
    <defs>
     <path id="m996b8542a4" d="M 116.854153 -126.337739 
L 116.425847 -126.337739 
L 116.348125 -128.525894 
L 116.250443 -130.714049 
L 116.130631 -132.902205 
L 115.987163 -135.09036 
L 115.819344 -137.278515 
L 115.627406 -139.46667 
L 115.412457 -141.654825 
L 115.176247 -143.84298 
L 114.920739 -146.031135 
L 114.647482 -148.219291 
L 114.356859 -150.407446 
L 114.047252 -152.595601 
L 113.714266 -154.783756 
L 113.350117 -156.971911 
L 112.943315 -159.160066 
L 112.478753 -161.348222 
L 111.938278 -163.536377 
L 111.301766 -165.724532 
L 110.548672 -167.912687 
L 109.659942 -170.100842 
L 108.620132 -172.288997 
L 107.419536 -174.477152 
L 106.056082 -176.665308 
L 104.536788 -178.853463 
L 102.878601 -181.041618 
L 101.108477 -183.229773 
L 99.262671 -185.417928 
L 97.385252 -187.606083 
L 95.525942 -189.794238 
L 93.73743 -191.982394 
L 92.072357 -194.170549 
L 90.580191 -196.358704 
L 89.304217 -198.546859 
L 88.278874 -200.735014 
L 87.527667 -202.923169 
L 87.061843 -205.111324 
L 86.88 -207.29948 
L 86.968703 -209.487635 
L 87.304112 -211.67579 
L 87.854491 -213.863945 
L 88.583375 -216.0521 
L 89.453037 -218.240255 
L 90.427863 -220.428411 
L 91.47721 -222.616566 
L 92.577382 -224.804721 
L 93.712491 -226.992876 
L 94.874112 -229.181031 
L 96.059834 -231.369186 
L 97.270974 -233.557341 
L 98.509856 -235.745497 
L 99.777087 -237.933652 
L 101.069293 -240.121807 
L 102.377637 -242.309962 
L 103.687357 -244.498117 
L 104.978368 -246.686272 
L 106.226804 -248.874427 
L 107.407274 -251.062583 
L 108.495484 -253.250738 
L 109.470843 -255.438893 
L 110.318711 -257.627048 
L 111.031982 -259.815203 
L 111.611802 -262.003358 
L 112.067356 -264.191514 
L 112.414742 -266.379669 
L 112.675119 -268.567824 
L 112.872346 -270.755979 
L 113.030432 -272.944134 
L 113.171126 -275.132289 
L 113.311912 -277.320444 
L 113.464669 -279.5086 
L 113.635101 -281.696755 
L 113.822983 -283.88491 
L 114.023104 -286.073065 
L 114.226761 -288.26122 
L 114.423537 -290.449375 
L 114.603125 -292.63753 
L 114.756942 -294.825686 
L 114.879353 -297.013841 
L 114.968373 -299.201996 
L 115.025811 -301.390151 
L 115.056888 -303.578306 
L 115.069425 -305.766461 
L 115.072757 -307.954616 
L 115.076517 -310.142772 
L 115.089491 -312.330927 
L 115.118651 -314.519082 
L 115.168509 -316.707237 
L 115.240825 -318.895392 
L 115.334673 -321.083547 
L 115.44684 -323.271703 
L 115.572433 -325.459858 
L 115.705617 -327.648013 
L 115.84036 -329.836168 
L 115.971081 -332.024323 
L 116.093144 -334.212478 
L 116.203148 -336.400633 
L 116.29903 -338.588789 
L 116.379988 -340.776944 
L 116.446292 -342.965099 
L 116.833708 -342.965099 
L 116.833708 -342.965099 
L 116.900012 -340.776944 
L 116.98097 -338.588789 
L 117.076852 -336.400633 
L 117.186856 -334.212478 
L 117.308919 -332.024323 
L 117.43964 -329.836168 
L 117.574383 -327.648013 
L 117.707567 -325.459858 
L 117.83316 -323.271703 
L 117.945327 -321.083547 
L 118.039175 -318.895392 
L 118.111491 -316.707237 
L 118.161349 -314.519082 
L 118.190509 -312.330927 
L 118.203483 -310.142772 
L 118.207243 -307.954616 
L 118.210575 -305.766461 
L 118.223112 -303.578306 
L 118.254189 -301.390151 
L 118.311627 -299.201996 
L 118.400647 -297.013841 
L 118.523058 -294.825686 
L 118.676875 -292.63753 
L 118.856463 -290.449375 
L 119.053239 -288.26122 
L 119.256896 -286.073065 
L 119.457017 -283.88491 
L 119.644899 -281.696755 
L 119.815331 -279.5086 
L 119.968088 -277.320444 
L 120.108874 -275.132289 
L 120.249568 -272.944134 
L 120.407654 -270.755979 
L 120.604881 -268.567824 
L 120.865258 -266.379669 
L 121.212644 -264.191514 
L 121.668198 -262.003358 
L 122.248018 -259.815203 
L 122.961289 -257.627048 
L 123.809157 -255.438893 
L 124.784516 -253.250738 
L 125.872726 -251.062583 
L 127.053196 -248.874427 
L 128.301632 -246.686272 
L 129.592643 -244.498117 
L 130.902363 -242.309962 
L 132.210707 -240.121807 
L 133.502913 -237.933652 
L 134.770144 -235.745497 
L 136.009026 -233.557341 
L 137.220166 -231.369186 
L 138.405888 -229.181031 
L 139.567509 -226.992876 
L 140.702618 -224.804721 
L 141.80279 -222.616566 
L 142.852137 -220.428411 
L 143.826963 -218.240255 
L 144.696625 -216.0521 
L 145.425509 -213.863945 
L 145.975888 -211.67579 
L 146.311297 -209.487635 
L 146.4 -207.29948 
L 146.218157 -205.111324 
L 145.752333 -202.923169 
L 145.001126 -200.735014 
L 143.975783 -198.546859 
L 142.699809 -196.358704 
L 141.207643 -194.170549 
L 139.54257 -191.982394 
L 137.754058 -189.794238 
L 135.894748 -187.606083 
L 134.017329 -185.417928 
L 132.171523 -183.229773 
L 130.401399 -181.041618 
L 128.743212 -178.853463 
L 127.223918 -176.665308 
L 125.860464 -174.477152 
L 124.659868 -172.288997 
L 123.620058 -170.100842 
L 122.731328 -167.912687 
L 121.978234 -165.724532 
L 121.341722 -163.536377 
L 120.801247 -161.348222 
L 120.336685 -159.160066 
L 119.929883 -156.971911 
L 119.565734 -154.783756 
L 119.232748 -152.595601 
L 118.923141 -150.407446 
L 118.632518 -148.219291 
L 118.359261 -146.031135 
L 118.103753 -143.84298 
L 117.867543 -141.654825 
L 117.652594 -139.46667 
L 117.460656 -137.278515 
L 117.292837 -135.09036 
L 117.149369 -132.902205 
L 117.029557 -130.714049 
L 116.931875 -128.525894 
L 116.854153 -126.337739 
z
" style="stroke: #3f3f3f; stroke-width: 1.25"/>
    </defs>
    <g clip-path="url(#pa3beda0b83)">
     <use xlink:href="#m996b8542a4" x="0" y="432" style="fill: #3274a1; stroke: #3f3f3f; stroke-width: 1.25"/>
    </g>
   </g>
   <g id="PolyCollection_2">
    <defs>
     <path id="m3614557267" d="M 176.551914 -135.883426 
L 175.768086 -135.883426 
L 175.656375 -137.483845 
L 175.520405 -139.084265 
L 175.357143 -140.684684 
L 175.163749 -142.285103 
L 174.937723 -143.885523 
L 174.677055 -145.485942 
L 174.380359 -147.086362 
L 174.04698 -148.686781 
L 173.677051 -150.287201 
L 173.271505 -151.88762 
L 172.83202 -153.488039 
L 172.360895 -155.088459 
L 171.860884 -156.688878 
L 171.334972 -158.289298 
L 170.786144 -159.889717 
L 170.217156 -161.490137 
L 169.630345 -163.090556 
L 169.027508 -164.690975 
L 168.409873 -166.291395 
L 167.778167 -167.891814 
L 167.132807 -169.492234 
L 166.474167 -171.092653 
L 165.802928 -172.693073 
L 165.12045 -174.293492 
L 164.429124 -175.893912 
L 163.732665 -177.494331 
L 163.036281 -179.09475 
L 162.346692 -180.69517 
L 161.671992 -182.295589 
L 161.021314 -183.896009 
L 160.404367 -185.496428 
L 159.830833 -187.096848 
L 159.309719 -188.697267 
L 158.848698 -190.297686 
L 158.453521 -191.898106 
L 158.127553 -193.498525 
L 157.87148 -195.098945 
L 157.68322 -196.699364 
L 157.558058 -198.299784 
L 157.488966 -199.900203 
L 157.46711 -201.500623 
L 157.482477 -203.101042 
L 157.524561 -204.701461 
L 157.583071 -206.301881 
L 157.648576 -207.9023 
L 157.713047 -209.50272 
L 157.770269 -211.103139 
L 157.816077 -212.703559 
L 157.848431 -214.303978 
L 157.867324 -215.904397 
L 157.87455 -217.504817 
L 157.87337 -219.105236 
L 157.868098 -220.705656 
L 157.863669 -222.306075 
L 157.865205 -223.906495 
L 157.877643 -225.506914 
L 157.905417 -227.107334 
L 157.952252 -228.707753 
L 158.021049 -230.308172 
L 158.113871 -231.908592 
L 158.232026 -233.509011 
L 158.376221 -235.109431 
L 158.546759 -236.70985 
L 158.743767 -238.31027 
L 158.967412 -239.910689 
L 159.218081 -241.511108 
L 159.496516 -243.111528 
L 159.803869 -244.711947 
L 160.141686 -246.312367 
L 160.511811 -247.912786 
L 160.916224 -249.513206 
L 161.356822 -251.113625 
L 161.835177 -252.714044 
L 162.352271 -254.314464 
L 162.908262 -255.914883 
L 163.502275 -257.515303 
L 164.132259 -259.115722 
L 164.794908 -260.716142 
L 165.485666 -262.316561 
L 166.198808 -263.916981 
L 166.9276 -265.5174 
L 167.664521 -267.117819 
L 168.401538 -268.718239 
L 169.130408 -270.318658 
L 169.843001 -271.919078 
L 170.531605 -273.519497 
L 171.189212 -275.119917 
L 171.80976 -276.720336 
L 172.388316 -278.320755 
L 172.921199 -279.921175 
L 173.406031 -281.521594 
L 173.841732 -283.122014 
L 174.228442 -284.722433 
L 174.567403 -286.322853 
L 174.860793 -287.923272 
L 175.111547 -289.523692 
L 175.323151 -291.124111 
L 175.499449 -292.72453 
L 175.644457 -294.32495 
L 176.675543 -294.32495 
L 176.675543 -294.32495 
L 176.820551 -292.72453 
L 176.996849 -291.124111 
L 177.208453 -289.523692 
L 177.459207 -287.923272 
L 177.752597 -286.322853 
L 178.091558 -284.722433 
L 178.478268 -283.122014 
L 178.913969 -281.521594 
L 179.398801 -279.921175 
L 179.931684 -278.320755 
L 180.51024 -276.720336 
L 181.130788 -275.119917 
L 181.788395 -273.519497 
L 182.476999 -271.919078 
L 183.189592 -270.318658 
L 183.918462 -268.718239 
L 184.655479 -267.117819 
L 185.3924 -265.5174 
L 186.121192 -263.916981 
L 186.834334 -262.316561 
L 187.525092 -260.716142 
L 188.187741 -259.115722 
L 188.817725 -257.515303 
L 189.411738 -255.914883 
L 189.967729 -254.314464 
L 190.484823 -252.714044 
L 190.963178 -251.113625 
L 191.403776 -249.513206 
L 191.808189 -247.912786 
L 192.178314 -246.312367 
L 192.516131 -244.711947 
L 192.823484 -243.111528 
L 193.101919 -241.511108 
L 193.352588 -239.910689 
L 193.576233 -238.31027 
L 193.773241 -236.70985 
L 193.943779 -235.109431 
L 194.087974 -233.509011 
L 194.206129 -231.908592 
L 194.298951 -230.308172 
L 194.367748 -228.707753 
L 194.414583 -227.107334 
L 194.442357 -225.506914 
L 194.454795 -223.906495 
L 194.456331 -222.306075 
L 194.451902 -220.705656 
L 194.44663 -219.105236 
L 194.44545 -217.504817 
L 194.452676 -215.904397 
L 194.471569 -214.303978 
L 194.503923 -212.703559 
L 194.549731 -211.103139 
L 194.606953 -209.50272 
L 194.671424 -207.9023 
L 194.736929 -206.301881 
L 194.795439 -204.701461 
L 194.837523 -203.101042 
L 194.85289 -201.500623 
L 194.831034 -199.900203 
L 194.761942 -198.299784 
L 194.63678 -196.699364 
L 194.44852 -195.098945 
L 194.192447 -193.498525 
L 193.866479 -191.898106 
L 193.471302 -190.297686 
L 193.010281 -188.697267 
L 192.489167 -187.096848 
L 191.915633 -185.496428 
L 191.298686 -183.896009 
L 190.648008 -182.295589 
L 189.973308 -180.69517 
L 189.283719 -179.09475 
L 188.587335 -177.494331 
L 187.890876 -175.893912 
L 187.19955 -174.293492 
L 186.517072 -172.693073 
L 185.845833 -171.092653 
L 185.187193 -169.492234 
L 184.541833 -167.891814 
L 183.910127 -166.291395 
L 183.292492 -164.690975 
L 182.689655 -163.090556 
L 182.102844 -161.490137 
L 181.533856 -159.889717 
L 180.985028 -158.289298 
L 180.459116 -156.688878 
L 179.959105 -155.088459 
L 179.48798 -153.488039 
L 179.048495 -151.88762 
L 178.642949 -150.287201 
L 178.27302 -148.686781 
L 177.939641 -147.086362 
L 177.642945 -145.485942 
L 177.382277 -143.885523 
L 177.156251 -142.285103 
L 176.962857 -140.684684 
L 176.799595 -139.084265 
L 176.663625 -137.483845 
L 176.551914 -135.883426 
z
" style="stroke: #3f3f3f; stroke-width: 1.25"/>
    </defs>
    <g clip-path="url(#pa3beda0b83)">
     <use xlink:href="#m3614557267" x="0" y="432" style="fill: #e1812c; stroke: #3f3f3f; stroke-width: 1.25"/>
    </g>
   </g>
   <g id="PolyCollection_3">
    <defs>
     <path id="m7d601a1d19" d="M 265.678341 -115.863862 
L 265.201659 -115.863862 
L 265.10927 -118.361313 
L 264.991551 -120.858765 
L 264.845632 -123.356216 
L 264.669678 -125.853668 
L 264.463251 -128.351119 
L 264.227559 -130.848571 
L 263.965478 -133.346022 
L 263.681311 -135.843474 
L 263.380256 -138.340925 
L 263.0676 -140.838377 
L 262.747757 -143.335828 
L 262.423253 -145.83328 
L 262.093864 -148.330731 
L 261.756029 -150.828183 
L 261.402677 -153.325634 
L 261.023512 -155.823086 
L 260.605696 -158.320537 
L 260.13485 -160.817989 
L 259.596171 -163.31544 
L 258.975539 -165.812892 
L 258.260461 -168.310343 
L 257.440826 -170.807795 
L 256.509502 -173.305246 
L 255.462866 -175.802698 
L 254.301402 -178.300149 
L 253.030422 -180.797601 
L 251.6609 -183.295052 
L 250.21029 -185.792504 
L 248.703052 -188.289955 
L 247.170622 -190.787407 
L 245.650548 -193.284858 
L 244.184647 -195.78231 
L 242.816276 -198.279761 
L 241.586985 -200.777213 
L 240.533052 -203.274664 
L 239.682471 -205.772116 
L 239.052958 -208.269567 
L 238.651339 -210.767019 
L 238.474441 -213.26447 
L 238.511289 -215.761922 
L 238.746119 -218.259373 
L 239.161603 -220.756825 
L 239.741595 -223.254276 
L 240.472904 -225.751728 
L 241.345796 -228.249179 
L 242.353241 -230.746631 
L 243.489198 -233.244082 
L 244.746384 -235.741534 
L 246.114099 -238.238985 
L 247.576554 -240.736437 
L 249.112071 -243.233888 
L 250.693287 -245.73134 
L 252.288314 -248.228791 
L 253.86265 -250.726243 
L 255.381533 -253.223694 
L 256.81242 -255.721146 
L 258.12726 -258.218597 
L 259.30434 -260.716049 
L 260.32953 -263.2135 
L 261.196843 -265.710952 
L 261.908311 -268.208403 
L 262.47323 -270.705855 
L 262.906884 -273.203306 
L 263.228875 -275.700758 
L 263.461241 -278.198209 
L 263.626513 -280.695661 
L 263.745914 -283.193112 
L 263.837825 -285.690564 
L 263.916675 -288.188015 
L 263.992312 -290.685467 
L 264.069908 -293.182918 
L 264.150353 -295.68037 
L 264.231067 -298.177821 
L 264.307111 -300.675273 
L 264.372445 -303.172724 
L 264.421189 -305.670176 
L 264.44873 -308.167627 
L 264.452586 -310.665079 
L 264.432911 -313.16253 
L 264.392634 -315.659982 
L 264.337208 -318.157433 
L 264.274036 -320.654885 
L 264.21164 -323.152336 
L 264.158684 -325.649788 
L 264.122997 -328.147239 
L 264.110702 -330.644691 
L 264.125586 -333.142142 
L 264.168773 -335.639594 
L 264.238739 -338.137045 
L 264.331657 -340.634497 
L 264.441983 -343.131948 
L 264.563195 -345.6294 
L 264.688572 -348.126851 
L 264.811887 -350.624303 
L 264.92794 -353.121754 
L 265.032887 -355.619206 
L 265.12435 -358.116657 
L 265.201337 -360.614109 
L 265.264027 -363.11156 
L 265.615973 -363.11156 
L 265.615973 -363.11156 
L 265.678663 -360.614109 
L 265.75565 -358.116657 
L 265.847113 -355.619206 
L 265.95206 -353.121754 
L 266.068113 -350.624303 
L 266.191428 -348.126851 
L 266.316805 -345.6294 
L 266.438017 -343.131948 
L 266.548343 -340.634497 
L 266.641261 -338.137045 
L 266.711227 -335.639594 
L 266.754414 -333.142142 
L 266.769298 -330.644691 
L 266.757003 -328.147239 
L 266.721316 -325.649788 
L 266.66836 -323.152336 
L 266.605964 -320.654885 
L 266.542792 -318.157433 
L 266.487366 -315.659982 
L 266.447089 -313.16253 
L 266.427414 -310.665079 
L 266.43127 -308.167627 
L 266.458811 -305.670176 
L 266.507555 -303.172724 
L 266.572889 -300.675273 
L 266.648933 -298.177821 
L 266.729647 -295.68037 
L 266.810092 -293.182918 
L 266.887688 -290.685467 
L 266.963325 -288.188015 
L 267.042175 -285.690564 
L 267.134086 -283.193112 
L 267.253487 -280.695661 
L 267.418759 -278.198209 
L 267.651125 -275.700758 
L 267.973116 -273.203306 
L 268.40677 -270.705855 
L 268.971689 -268.208403 
L 269.683157 -265.710952 
L 270.55047 -263.2135 
L 271.57566 -260.716049 
L 272.75274 -258.218597 
L 274.06758 -255.721146 
L 275.498467 -253.223694 
L 277.01735 -250.726243 
L 278.591686 -248.228791 
L 280.186713 -245.73134 
L 281.767929 -243.233888 
L 283.303446 -240.736437 
L 284.765901 -238.238985 
L 286.133616 -235.741534 
L 287.390802 -233.244082 
L 288.526759 -230.746631 
L 289.534204 -228.249179 
L 290.407096 -225.751728 
L 291.138405 -223.254276 
L 291.718397 -220.756825 
L 292.133881 -218.259373 
L 292.368711 -215.761922 
L 292.405559 -213.26447 
L 292.228661 -210.767019 
L 291.827042 -208.269567 
L 291.197529 -205.772116 
L 290.346948 -203.274664 
L 289.293015 -200.777213 
L 288.063724 -198.279761 
L 286.695353 -195.78231 
L 285.229452 -193.284858 
L 283.709378 -190.787407 
L 282.176948 -188.289955 
L 280.66971 -185.792504 
L 279.2191 -183.295052 
L 277.849578 -180.797601 
L 276.578598 -178.300149 
L 275.417134 -175.802698 
L 274.370498 -173.305246 
L 273.439174 -170.807795 
L 272.619539 -168.310343 
L 271.904461 -165.812892 
L 271.283829 -163.31544 
L 270.74515 -160.817989 
L 270.274304 -158.320537 
L 269.856488 -155.823086 
L 269.477323 -153.325634 
L 269.123971 -150.828183 
L 268.786136 -148.330731 
L 268.456747 -145.83328 
L 268.132243 -143.335828 
L 267.8124 -140.838377 
L 267.499744 -138.340925 
L 267.198689 -135.843474 
L 266.914522 -133.346022 
L 266.652441 -130.848571 
L 266.416749 -128.351119 
L 266.210322 -125.853668 
L 266.034368 -123.356216 
L 265.888449 -120.858765 
L 265.77073 -118.361313 
L 265.678341 -115.863862 
z
" style="stroke: #3f3f3f; stroke-width: 1.25"/>
    </defs>
    <g clip-path="url(#pa3beda0b83)">
     <use xlink:href="#m7d601a1d19" x="0" y="432" style="fill: #3274a1; stroke: #3f3f3f; stroke-width: 1.25"/>
    </g>
   </g>
   <g id="PolyCollection_4">
    <defs>
     <path id="m8c35513fd1" d="M 325.892551 -155.327393 
L 324.027449 -155.327393 
L 323.752211 -156.739675 
L 323.417472 -158.151957 
L 323.017142 -159.564239 
L 322.546407 -160.976521 
L 322.002277 -162.388803 
L 321.384106 -163.801085 
L 320.694024 -165.213367 
L 319.937243 -166.625649 
L 319.122151 -168.037931 
L 318.260193 -169.450213 
L 317.365475 -170.862496 
L 316.454123 -172.274778 
L 315.54341 -173.68706 
L 314.650706 -175.099342 
L 313.792342 -176.511624 
L 312.982477 -177.923906 
L 312.232078 -179.336188 
L 311.54811 -180.74847 
L 310.93303 -182.160752 
L 310.384636 -183.573034 
L 309.896308 -184.985316 
L 309.457616 -186.397598 
L 309.055254 -187.80988 
L 308.674221 -189.222162 
L 308.299123 -190.634445 
L 307.915489 -192.046727 
L 307.510974 -193.459009 
L 307.076323 -194.871291 
L 306.60603 -196.283573 
L 306.098614 -197.695855 
L 305.556511 -199.108137 
L 304.985596 -200.520419 
L 304.394409 -201.932701 
L 303.793173 -203.344983 
L 303.192724 -204.757265 
L 302.603483 -206.169547 
L 302.034589 -207.581829 
L 301.493295 -208.994111 
L 300.984694 -210.406394 
L 300.511809 -211.818676 
L 300.076025 -213.230958 
L 299.677799 -214.64324 
L 299.317556 -216.055522 
L 298.996632 -217.467804 
L 298.718144 -218.880086 
L 298.48764 -220.292368 
L 298.313428 -221.70465 
L 298.20652 -223.116932 
L 298.180156 -224.529214 
L 298.248943 -225.941496 
L 298.427682 -227.353778 
L 298.730009 -228.76606 
L 299.166969 -230.178343 
L 299.745699 -231.590625 
L 300.468352 -233.002907 
L 301.331365 -234.415189 
L 302.325183 -235.827471 
L 303.434435 -237.239753 
L 304.638578 -238.652035 
L 305.912931 -240.064317 
L 307.23002 -241.476599 
L 308.5611 -242.888881 
L 309.87774 -244.301163 
L 311.153338 -245.713445 
L 312.36445 -247.125727 
L 313.491855 -248.538009 
L 314.521288 -249.950292 
L 315.443818 -251.362574 
L 316.255867 -252.774856 
L 316.958906 -254.187138 
L 317.558875 -255.59942 
L 318.065384 -257.011702 
L 318.490783 -258.423984 
L 318.849163 -259.836266 
L 319.155362 -261.248548 
L 319.42404 -262.66083 
L 319.668873 -264.073112 
L 319.901899 -265.485394 
L 320.13305 -266.897676 
L 320.369858 -268.309958 
L 320.617361 -269.722241 
L 320.878154 -271.134523 
L 321.152606 -272.546805 
L 321.439168 -273.959087 
L 321.734772 -275.371369 
L 322.035268 -276.783651 
L 322.335868 -278.195933 
L 322.63157 -279.608215 
L 322.917536 -281.020497 
L 323.189399 -282.432779 
L 323.443496 -283.845061 
L 323.67702 -285.257343 
L 323.888089 -286.669625 
L 324.075742 -288.081907 
L 324.239874 -289.49419 
L 324.381131 -290.906472 
L 324.500766 -292.318754 
L 324.600489 -293.731036 
L 324.682307 -295.143318 
L 325.237693 -295.143318 
L 325.237693 -295.143318 
L 325.319511 -293.731036 
L 325.419234 -292.318754 
L 325.538869 -290.906472 
L 325.680126 -289.49419 
L 325.844258 -288.081907 
L 326.031911 -286.669625 
L 326.24298 -285.257343 
L 326.476504 -283.845061 
L 326.730601 -282.432779 
L 327.002464 -281.020497 
L 327.28843 -279.608215 
L 327.584132 -278.195933 
L 327.884732 -276.783651 
L 328.185228 -275.371369 
L 328.480832 -273.959087 
L 328.767394 -272.546805 
L 329.041846 -271.134523 
L 329.302639 -269.722241 
L 329.550142 -268.309958 
L 329.78695 -266.897676 
L 330.018101 -265.485394 
L 330.251127 -264.073112 
L 330.49596 -262.66083 
L 330.764638 -261.248548 
L 331.070837 -259.836266 
L 331.429217 -258.423984 
L 331.854616 -257.011702 
L 332.361125 -255.59942 
L 332.961094 -254.187138 
L 333.664133 -252.774856 
L 334.476182 -251.362574 
L 335.398712 -249.950292 
L 336.428145 -248.538009 
L 337.55555 -247.125727 
L 338.766662 -245.713445 
L 340.04226 -244.301163 
L 341.3589 -242.888881 
L 342.68998 -241.476599 
L 344.007069 -240.064317 
L 345.281422 -238.652035 
L 346.485565 -237.239753 
L 347.594817 -235.827471 
L 348.588635 -234.415189 
L 349.451648 -233.002907 
L 350.174301 -231.590625 
L 350.753031 -230.178343 
L 351.189991 -228.76606 
L 351.492318 -227.353778 
L 351.671057 -225.941496 
L 351.739844 -224.529214 
L 351.71348 -223.116932 
L 351.606572 -221.70465 
L 351.43236 -220.292368 
L 351.201856 -218.880086 
L 350.923368 -217.467804 
L 350.602444 -216.055522 
L 350.242201 -214.64324 
L 349.843975 -213.230958 
L 349.408191 -211.818676 
L 348.935306 -210.406394 
L 348.426705 -208.994111 
L 347.885411 -207.581829 
L 347.316517 -206.169547 
L 346.727276 -204.757265 
L 346.126827 -203.344983 
L 345.525591 -201.932701 
L 344.934404 -200.520419 
L 344.363489 -199.108137 
L 343.821386 -197.695855 
L 343.31397 -196.283573 
L 342.843677 -194.871291 
L 342.409026 -193.459009 
L 342.004511 -192.046727 
L 341.620877 -190.634445 
L 341.245779 -189.222162 
L 340.864746 -187.80988 
L 340.462384 -186.397598 
L 340.023692 -184.985316 
L 339.535364 -183.573034 
L 338.98697 -182.160752 
L 338.37189 -180.74847 
L 337.687922 -179.336188 
L 336.937523 -177.923906 
L 336.127658 -176.511624 
L 335.269294 -175.099342 
L 334.37659 -173.68706 
L 333.465877 -172.274778 
L 332.554525 -170.862496 
L 331.659807 -169.450213 
L 330.797849 -168.037931 
L 329.982757 -166.625649 
L 329.225976 -165.213367 
L 328.535894 -163.801085 
L 327.917723 -162.388803 
L 327.373593 -160.976521 
L 326.902858 -159.564239 
L 326.502528 -158.151957 
L 326.167789 -156.739675 
L 325.892551 -155.327393 
z
" style="stroke: #3f3f3f; stroke-width: 1.25"/>
    </defs>
    <g clip-path="url(#pa3beda0b83)">
     <use xlink:href="#m8c35513fd1" x="0" y="432" style="fill: #e1812c; stroke: #3f3f3f; stroke-width: 1.25"/>
    </g>
   </g>
   <g id="PolyCollection_5">
    <defs>
     <path id="mb0764c0cd6" d="M 414.395507 -62.64 
L 414.084493 -62.64 
L 414.024077 -65.694545 
L 413.948873 -68.749091 
L 413.858847 -71.803636 
L 413.755435 -74.858182 
L 413.6418 -77.912727 
L 413.52289 -80.967273 
L 413.405198 -84.021818 
L 413.296247 -87.076364 
L 413.203796 -90.130909 
L 413.134889 -93.185455 
L 413.09488 -96.24 
L 413.086614 -99.294545 
L 413.109883 -102.349091 
L 413.161282 -105.403636 
L 413.234454 -108.458182 
L 413.320691 -111.512727 
L 413.409753 -114.567273 
L 413.490764 -117.621818 
L 413.553044 -120.676364 
L 413.586748 -123.730909 
L 413.583267 -126.785455 
L 413.535359 -129.84 
L 413.437039 -132.894545 
L 413.283273 -135.949091 
L 413.069543 -139.003636 
L 412.791339 -142.058182 
L 412.443659 -145.112727 
L 412.020611 -148.167273 
L 411.515184 -151.221818 
L 410.919309 -154.276364 
L 410.224263 -157.330909 
L 409.421454 -160.385455 
L 408.503571 -163.44 
L 407.466002 -166.494545 
L 406.308343 -169.549091 
L 405.035797 -172.603636 
L 403.660191 -175.658182 
L 402.200387 -178.712727 
L 400.681928 -181.767273 
L 399.135843 -184.821818 
L 397.596745 -187.876364 
L 396.100473 -190.930909 
L 394.681677 -193.985455 
L 393.371808 -197.04 
L 392.197906 -200.094545 
L 391.182411 -203.149091 
L 390.343977 -206.203636 
L 389.698944 -209.258182 
L 389.262936 -212.312727 
L 389.051928 -215.367273 
L 389.08221 -218.421818 
L 389.368976 -221.476364 
L 389.923593 -224.530909 
L 390.750061 -227.585455 
L 391.841445 -230.64 
L 393.177157 -233.694545 
L 394.721901 -236.749091 
L 396.426699 -239.803636 
L 398.232046 -242.858182 
L 400.072743 -245.912727 
L 401.88364 -248.967273 
L 403.605365 -252.021818 
L 405.189147 -255.076364 
L 406.600075 -258.130909 
L 407.818482 -261.185455 
L 408.839465 -264.24 
L 409.670897 -267.294545 
L 410.330411 -270.349091 
L 410.841964 -273.403636 
L 411.232462 -276.458182 
L 411.528835 -279.512727 
L 411.75578 -282.567273 
L 411.934227 -285.621818 
L 412.080509 -288.676364 
L 412.20614 -291.730909 
L 412.318107 -294.785455 
L 412.41957 -297.84 
L 412.510873 -300.894545 
L 412.590755 -303.949091 
L 412.657605 -307.003636 
L 412.71059 -310.058182 
L 412.750497 -313.112727 
L 412.780136 -316.167273 
L 412.80423 -319.221818 
L 412.828847 -322.276364 
L 412.86046 -325.330909 
L 412.904888 -328.385455 
L 412.966302 -331.44 
L 413.046541 -334.494545 
L 413.144843 -337.549091 
L 413.258044 -340.603636 
L 413.381156 -343.658182 
L 413.508196 -346.712727 
L 413.63308 -349.767273 
L 413.750408 -352.821818 
L 413.856034 -355.876364 
L 413.947344 -358.930909 
L 414.02327 -361.985455 
L 414.084079 -365.04 
L 414.395921 -365.04 
L 414.395921 -365.04 
L 414.45673 -361.985455 
L 414.532656 -358.930909 
L 414.623966 -355.876364 
L 414.729592 -352.821818 
L 414.84692 -349.767273 
L 414.971804 -346.712727 
L 415.098844 -343.658182 
L 415.221956 -340.603636 
L 415.335157 -337.549091 
L 415.433459 -334.494545 
L 415.513698 -331.44 
L 415.575112 -328.385455 
L 415.61954 -325.330909 
L 415.651153 -322.276364 
L 415.67577 -319.221818 
L 415.699864 -316.167273 
L 415.729503 -313.112727 
L 415.76941 -310.058182 
L 415.822395 -307.003636 
L 415.889245 -303.949091 
L 415.969127 -300.894545 
L 416.06043 -297.84 
L 416.161893 -294.785455 
L 416.27386 -291.730909 
L 416.399491 -288.676364 
L 416.545773 -285.621818 
L 416.72422 -282.567273 
L 416.951165 -279.512727 
L 417.247538 -276.458182 
L 417.638036 -273.403636 
L 418.149589 -270.349091 
L 418.809103 -267.294545 
L 419.640535 -264.24 
L 420.661518 -261.185455 
L 421.879925 -258.130909 
L 423.290853 -255.076364 
L 424.874635 -252.021818 
L 426.59636 -248.967273 
L 428.407257 -245.912727 
L 430.247954 -242.858182 
L 432.053301 -239.803636 
L 433.758099 -236.749091 
L 435.302843 -233.694545 
L 436.638555 -230.64 
L 437.729939 -227.585455 
L 438.556407 -224.530909 
L 439.111024 -221.476364 
L 439.39779 -218.421818 
L 439.428072 -215.367273 
L 439.217064 -212.312727 
L 438.781056 -209.258182 
L 438.136023 -206.203636 
L 437.297589 -203.149091 
L 436.282094 -200.094545 
L 435.108192 -197.04 
L 433.798323 -193.985455 
L 432.379527 -190.930909 
L 430.883255 -187.876364 
L 429.344157 -184.821818 
L 427.798072 -181.767273 
L 426.279613 -178.712727 
L 424.819809 -175.658182 
L 423.444203 -172.603636 
L 422.171657 -169.549091 
L 421.013998 -166.494545 
L 419.976429 -163.44 
L 419.058546 -160.385455 
L 418.255737 -157.330909 
L 417.560691 -154.276364 
L 416.964816 -151.221818 
L 416.459389 -148.167273 
L 416.036341 -145.112727 
L 415.688661 -142.058182 
L 415.410457 -139.003636 
L 415.196727 -135.949091 
L 415.042961 -132.894545 
L 414.944641 -129.84 
L 414.896733 -126.785455 
L 414.893252 -123.730909 
L 414.926956 -120.676364 
L 414.989236 -117.621818 
L 415.070247 -114.567273 
L 415.159309 -111.512727 
L 415.245546 -108.458182 
L 415.318718 -105.403636 
L 415.370117 -102.349091 
L 415.393386 -99.294545 
L 415.38512 -96.24 
L 415.345111 -93.185455 
L 415.276204 -90.130909 
L 415.183753 -87.076364 
L 415.074802 -84.021818 
L 414.95711 -80.967273 
L 414.8382 -77.912727 
L 414.724565 -74.858182 
L 414.621153 -71.803636 
L 414.531127 -68.749091 
L 414.455923 -65.694545 
L 414.395507 -62.64 
z
" style="stroke: #3f3f3f; stroke-width: 1.25"/>
    </defs>
    <g clip-path="url(#pa3beda0b83)">
     <use xlink:href="#mb0764c0cd6" x="0" y="432" style="fill: #3274a1; stroke: #3f3f3f; stroke-width: 1.25"/>
    </g>
   </g>
   <g id="PolyCollection_6">
    <defs>
     <path id="mcb7341d45f" d="M 473.963 -114.652448 
L 473.557 -114.652448 
L 473.48951 -116.459102 
L 473.407423 -118.265755 
L 473.3104 -120.072409 
L 473.19907 -121.879062 
L 473.075218 -123.685716 
L 472.941856 -125.492369 
L 472.803154 -127.299023 
L 472.664199 -129.105676 
L 472.530595 -130.91233 
L 472.407907 -132.718983 
L 472.301029 -134.525637 
L 472.213533 -136.33229 
L 472.147102 -138.138944 
L 472.101112 -139.945597 
L 472.072437 -141.752251 
L 472.055493 -143.558904 
L 472.042513 -145.365558 
L 472.023997 -147.172211 
L 471.989246 -148.978865 
L 471.926906 -150.785518 
L 471.825433 -152.592172 
L 471.673429 -154.398825 
L 471.459861 -156.205479 
L 471.174207 -158.012132 
L 470.806617 -159.818786 
L 470.348188 -161.625439 
L 469.791449 -163.432093 
L 469.131076 -165.238746 
L 468.36481 -167.0454 
L 467.494437 -168.852053 
L 466.526645 -170.658707 
L 465.473508 -172.46536 
L 464.352375 -174.272014 
L 463.18501 -176.078667 
L 461.995961 -177.885321 
L 460.810262 -179.691974 
L 459.650764 -181.498628 
L 458.535474 -183.305281 
L 457.475345 -185.111935 
L 456.472936 -186.918588 
L 455.522229 -188.725242 
L 454.609741 -190.531895 
L 453.71685 -192.338549 
L 452.823064 -194.145202 
L 451.909823 -195.951856 
L 450.964313 -197.758509 
L 449.98279 -199.565163 
L 448.972946 -201.371816 
L 447.954995 -203.17847 
L 446.961275 -204.985123 
L 446.034372 -206.791777 
L 445.223903 -208.59843 
L 444.582276 -210.405084 
L 444.159852 -212.211737 
L 444 -214.018391 
L 444.134603 -215.825044 
L 444.580502 -217.631698 
L 445.3373 -219.438351 
L 446.386784 -221.245005 
L 447.69406 -223.051658 
L 449.210277 -224.858311 
L 450.876621 -226.664965 
L 452.629143 -228.471618 
L 454.403855 -230.278272 
L 456.141542 -232.084925 
L 457.79179 -233.891579 
L 459.315853 -235.698232 
L 460.688158 -237.504886 
L 461.896406 -239.311539 
L 462.94043 -241.118193 
L 463.830087 -242.924846 
L 464.582548 -244.7315 
L 465.219391 -246.538153 
L 465.763853 -248.344807 
L 466.238533 -250.15146 
L 466.663709 -251.958114 
L 467.056344 -253.764767 
L 467.429708 -255.571421 
L 467.7935 -257.378074 
L 468.154286 -259.184728 
L 468.516078 -260.991381 
L 468.880903 -262.798035 
L 469.249271 -264.604688 
L 469.620504 -266.411342 
L 469.992934 -268.217995 
L 470.364031 -270.024649 
L 470.730503 -271.831302 
L 471.088452 -273.637956 
L 471.433576 -275.444609 
L 471.761462 -277.251263 
L 472.067915 -279.057916 
L 472.349291 -280.86457 
L 472.602795 -282.671223 
L 472.826685 -284.477877 
L 473.020373 -286.28453 
L 473.184405 -288.091184 
L 473.320331 -289.897837 
L 473.430504 -291.704491 
L 473.517826 -293.511144 
L 474.002174 -293.511144 
L 474.002174 -293.511144 
L 474.089496 -291.704491 
L 474.199669 -289.897837 
L 474.335595 -288.091184 
L 474.499627 -286.28453 
L 474.693315 -284.477877 
L 474.917205 -282.671223 
L 475.170709 -280.86457 
L 475.452085 -279.057916 
L 475.758538 -277.251263 
L 476.086424 -275.444609 
L 476.431548 -273.637956 
L 476.789497 -271.831302 
L 477.155969 -270.024649 
L 477.527066 -268.217995 
L 477.899496 -266.411342 
L 478.270729 -264.604688 
L 478.639097 -262.798035 
L 479.003922 -260.991381 
L 479.365714 -259.184728 
L 479.7265 -257.378074 
L 480.090292 -255.571421 
L 480.463656 -253.764767 
L 480.856291 -251.958114 
L 481.281467 -250.15146 
L 481.756147 -248.344807 
L 482.300609 -246.538153 
L 482.937452 -244.7315 
L 483.689913 -242.924846 
L 484.57957 -241.118193 
L 485.623594 -239.311539 
L 486.831842 -237.504886 
L 488.204147 -235.698232 
L 489.72821 -233.891579 
L 491.378458 -232.084925 
L 493.116145 -230.278272 
L 494.890857 -228.471618 
L 496.643379 -226.664965 
L 498.309723 -224.858311 
L 499.82594 -223.051658 
L 501.133216 -221.245005 
L 502.1827 -219.438351 
L 502.939498 -217.631698 
L 503.385397 -215.825044 
L 503.52 -214.018391 
L 503.360148 -212.211737 
L 502.937724 -210.405084 
L 502.296097 -208.59843 
L 501.485628 -206.791777 
L 500.558725 -204.985123 
L 499.565005 -203.17847 
L 498.547054 -201.371816 
L 497.53721 -199.565163 
L 496.555687 -197.758509 
L 495.610177 -195.951856 
L 494.696936 -194.145202 
L 493.80315 -192.338549 
L 492.910259 -190.531895 
L 491.997771 -188.725242 
L 491.047064 -186.918588 
L 490.044655 -185.111935 
L 488.984526 -183.305281 
L 487.869236 -181.498628 
L 486.709738 -179.691974 
L 485.524039 -177.885321 
L 484.33499 -176.078667 
L 483.167625 -174.272014 
L 482.046492 -172.46536 
L 480.993355 -170.658707 
L 480.025563 -168.852053 
L 479.15519 -167.0454 
L 478.388924 -165.238746 
L 477.728551 -163.432093 
L 477.171812 -161.625439 
L 476.713383 -159.818786 
L 476.345793 -158.012132 
L 476.060139 -156.205479 
L 475.846571 -154.398825 
L 475.694567 -152.592172 
L 475.593094 -150.785518 
L 475.530754 -148.978865 
L 475.496003 -147.172211 
L 475.477487 -145.365558 
L 475.464507 -143.558904 
L 475.447563 -141.752251 
L 475.418888 -139.945597 
L 475.372898 -138.138944 
L 475.306467 -136.33229 
L 475.218971 -134.525637 
L 475.112093 -132.718983 
L 474.989405 -130.91233 
L 474.855801 -129.105676 
L 474.716846 -127.299023 
L 474.578144 -125.492369 
L 474.444782 -123.685716 
L 474.32093 -121.879062 
L 474.2096 -120.072409 
L 474.112577 -118.265755 
L 474.03049 -116.459102 
L 473.963 -114.652448 
z
" style="stroke: #3f3f3f; stroke-width: 1.25"/>
    </defs>
    <g clip-path="url(#pa3beda0b83)">
     <use xlink:href="#mcb7341d45f" x="0" y="432" style="fill: #e1812c; stroke: #3f3f3f; stroke-width: 1.25"/>
    </g>
   </g>
   <g id="patch_3">
    <path d="M 146.4 333.730884 
L 146.4 333.730884 
L 146.4 333.730884 
L 146.4 333.730884 
z
" clip-path="url(#pa3beda0b83)" style="fill: #3274a1; stroke: #3f3f3f; stroke-width: 1.25; stroke-linejoin: miter"/>
   </g>
   <g id="patch_4">
    <path d="M 146.4 333.730884 
L 146.4 333.730884 
L 146.4 333.730884 
L 146.4 333.730884 
z
" clip-path="url(#pa3beda0b83)" style="fill: #e1812c; stroke: #3f3f3f; stroke-width: 1.25; stroke-linejoin: miter"/>
   </g>
   <g id="line2d_10">
    <path d="M 116.64 277.049726 
L 116.64 154.945648 
" clip-path="url(#pa3beda0b83)" style="fill: none; stroke: #3f3f3f; stroke-width: 1.875; stroke-linecap: round"/>
   </g>
   <g id="line2d_11">
    <path d="M 116.64 233.335057 
L 116.64 199.174837 
" clip-path="url(#pa3beda0b83)" style="fill: none; stroke: #3f3f3f; stroke-width: 5.625; stroke-linecap: round"/>
   </g>
   <g id="line2d_12">
    <path d="M 116.64 221.003993 
" clip-path="url(#pa3beda0b83)" style="fill: none; stroke: #3f3f3f; stroke-width: 1.5; stroke-linecap: round"/>
    <defs>
     <path id="m0cf53fb192" d="M 2.34375 0 
L -2.34375 -0 
" style="stroke: #ffffff; stroke-width: 1.125"/>
    </defs>
    <g clip-path="url(#pa3beda0b83)">
     <use xlink:href="#m0cf53fb192" x="116.64" y="221.003993" style="fill: #ffffff; stroke: #ffffff; stroke-width: 1.125"/>
    </g>
   </g>
   <g id="line2d_13">
    <path d="M 176.16 268.119456 
L 176.16 165.672169 
" clip-path="url(#pa3beda0b83)" style="fill: none; stroke: #3f3f3f; stroke-width: 1.875; stroke-linecap: round"/>
   </g>
   <g id="line2d_14">
    <path d="M 176.16 238.189406 
L 176.16 191.347785 
" clip-path="url(#pa3beda0b83)" style="fill: none; stroke: #3f3f3f; stroke-width: 5.625; stroke-linecap: round"/>
   </g>
   <g id="line2d_15">
    <path d="M 176.16 213.971355 
" clip-path="url(#pa3beda0b83)" style="fill: none; stroke: #3f3f3f; stroke-width: 1.5; stroke-linecap: round"/>
    <g clip-path="url(#pa3beda0b83)">
     <use xlink:href="#m0cf53fb192" x="176.16" y="213.971355" style="fill: #ffffff; stroke: #ffffff; stroke-width: 1.125"/>
    </g>
   </g>
   <g id="line2d_16">
    <path d="M 265.44 277.095072 
L 265.44 182.150041 
" clip-path="url(#pa3beda0b83)" style="fill: none; stroke: #3f3f3f; stroke-width: 1.875; stroke-linecap: round"/>
   </g>
   <g id="line2d_17">
    <path d="M 265.44 231.457793 
L 265.44 200.215982 
" clip-path="url(#pa3beda0b83)" style="fill: none; stroke: #3f3f3f; stroke-width: 5.625; stroke-linecap: round"/>
   </g>
   <g id="line2d_18">
    <path d="M 265.44 219.313699 
" clip-path="url(#pa3beda0b83)" style="fill: none; stroke: #3f3f3f; stroke-width: 1.5; stroke-linecap: round"/>
    <g clip-path="url(#pa3beda0b83)">
     <use xlink:href="#m0cf53fb192" x="265.44" y="219.313699" style="fill: #ffffff; stroke: #ffffff; stroke-width: 1.125"/>
    </g>
   </g>
   <g id="line2d_19">
    <path d="M 324.96 253.62407 
L 324.96 159.90522 
" clip-path="url(#pa3beda0b83)" style="fill: none; stroke: #3f3f3f; stroke-width: 1.875; stroke-linecap: round"/>
   </g>
   <g id="line2d_20">
    <path d="M 324.96 229.585743 
L 324.96 199.749697 
" clip-path="url(#pa3beda0b83)" style="fill: none; stroke: #3f3f3f; stroke-width: 5.625; stroke-linecap: round"/>
   </g>
   <g id="line2d_21">
    <path d="M 324.96 215.036408 
" clip-path="url(#pa3beda0b83)" style="fill: none; stroke: #3f3f3f; stroke-width: 1.5; stroke-linecap: round"/>
    <g clip-path="url(#pa3beda0b83)">
     <use xlink:href="#m0cf53fb192" x="324.96" y="215.036408" style="fill: #ffffff; stroke: #ffffff; stroke-width: 1.125"/>
    </g>
   </g>
   <g id="line2d_22">
    <path d="M 414.24 274.955344 
L 414.24 159.938163 
" clip-path="url(#pa3beda0b83)" style="fill: none; stroke: #3f3f3f; stroke-width: 1.875; stroke-linecap: round"/>
   </g>
   <g id="line2d_23">
    <path d="M 414.24 234.302733 
L 414.24 200.580169 
" clip-path="url(#pa3beda0b83)" style="fill: none; stroke: #3f3f3f; stroke-width: 5.625; stroke-linecap: round"/>
   </g>
   <g id="line2d_24">
    <path d="M 414.24 216.443135 
" clip-path="url(#pa3beda0b83)" style="fill: none; stroke: #3f3f3f; stroke-width: 1.5; stroke-linecap: round"/>
    <g clip-path="url(#pa3beda0b83)">
     <use xlink:href="#m0cf53fb192" x="414.24" y="216.443135" style="fill: #ffffff; stroke: #ffffff; stroke-width: 1.125"/>
    </g>
   </g>
   <g id="line2d_25">
    <path d="M 473.76 266.167868 
L 473.76 183.064721 
" clip-path="url(#pa3beda0b83)" style="fill: none; stroke: #3f3f3f; stroke-width: 1.875; stroke-linecap: round"/>
   </g>
   <g id="line2d_26">
    <path d="M 473.76 236.617223 
L 473.76 210.745255 
" clip-path="url(#pa3beda0b83)" style="fill: none; stroke: #3f3f3f; stroke-width: 5.625; stroke-linecap: round"/>
   </g>
   <g id="line2d_27">
    <path d="M 473.76 217.632565 
" clip-path="url(#pa3beda0b83)" style="fill: none; stroke: #3f3f3f; stroke-width: 1.5; stroke-linecap: round"/>
    <g clip-path="url(#pa3beda0b83)">
     <use xlink:href="#m0cf53fb192" x="473.76" y="217.632565" style="fill: #ffffff; stroke: #ffffff; stroke-width: 1.125"/>
    </g>
   </g>
   <g id="patch_5">
    <path d="M 72 384.48 
L 72 51.84 
" style="fill: none; stroke: #cccccc; stroke-width: 0.8; stroke-linejoin: miter; stroke-linecap: square"/>
   </g>
   <g id="patch_6">
    <path d="M 518.4 384.48 
L 518.4 51.84 
" style="fill: none; stroke: #cccccc; stroke-width: 0.8; stroke-linejoin: miter; stroke-linecap: square"/>
   </g>
   <g id="patch_7">
    <path d="M 72 384.48 
L 518.4 384.48 
" style="fill: none; stroke: #cccccc; stroke-width: 0.8; stroke-linejoin: miter; stroke-linecap: square"/>
   </g>
   <g id="patch_8">
    <path d="M 72 51.84 
L 518.4 51.84 
" style="fill: none; stroke: #cccccc; stroke-width: 0.8; stroke-linejoin: miter; stroke-linecap: square"/>
   </g>
   <g id="legend_1">
    <g id="patch_9">
     <path d="M 456.6125 379.48 
L 511.4 379.48 
Q 513.4 379.48 513.4 377.48 
L 513.4 336.044062 
Q 513.4 334.044062 511.4 334.044062 
L 456.6125 334.044062 
Q 454.6125 334.044062 454.6125 336.044062 
L 454.6125 377.48 
Q 454.6125 379.48 456.6125 379.48 
z
" style="fill: #ffffff; opacity: 0.8; stroke: #cccccc; stroke-linejoin: miter"/>
    </g>
    <g id="text_15">
     <!-- Time -->
     <g style="fill: #262626" transform="translate(473.083594 345.201875) scale(0.1 -0.1)">
      <defs>
       <path id="ArialMT-54" d="M 1659 0 
L 1659 4041 
L 150 4041 
L 150 4581 
L 3781 4581 
L 3781 4041 
L 2266 4041 
L 2266 0 
L 1659 0 
z
" transform="scale(0.015625)"/>
       <path id="ArialMT-69" d="M 425 3934 
L 425 4581 
L 988 4581 
L 988 3934 
L 425 3934 
z
M 425 0 
L 425 3319 
L 988 3319 
L 988 0 
L 425 0 
z
" transform="scale(0.015625)"/>
       <path id="ArialMT-6d" d="M 422 0 
L 422 3319 
L 925 3319 
L 925 2853 
Q 1081 3097 1340 3245 
Q 1600 3394 1931 3394 
Q 2300 3394 2536 3241 
Q 2772 3088 2869 2813 
Q 3263 3394 3894 3394 
Q 4388 3394 4653 3120 
Q 4919 2847 4919 2278 
L 4919 0 
L 4359 0 
L 4359 2091 
Q 4359 2428 4304 2576 
Q 4250 2725 4106 2815 
Q 3963 2906 3769 2906 
Q 3419 2906 3187 2673 
Q 2956 2441 2956 1928 
L 2956 0 
L 2394 0 
L 2394 2156 
Q 2394 2531 2256 2718 
Q 2119 2906 1806 2906 
Q 1569 2906 1367 2781 
Q 1166 2656 1075 2415 
Q 984 2175 984 1722 
L 984 0 
L 422 0 
z
" transform="scale(0.015625)"/>
      </defs>
      <use xlink:href="#ArialMT-54"/>
      <use xlink:href="#ArialMT-69" x="57.333984"/>
      <use xlink:href="#ArialMT-6d" x="79.550781"/>
      <use xlink:href="#ArialMT-65" x="162.851562"/>
     </g>
    </g>
    <g id="patch_10">
     <path d="M 458.6125 359.347188 
L 478.6125 359.347188 
L 478.6125 352.347188 
L 458.6125 352.347188 
z
" style="fill: #3274a1; stroke: #3f3f3f; stroke-width: 1.25; stroke-linejoin: miter"/>
    </g>
    <g id="text_16">
     <!-- initial -->
     <g style="fill: #262626" transform="translate(486.6125 359.347188) scale(0.1 -0.1)">
      <defs>
       <path id="ArialMT-6e" d="M 422 0 
L 422 3319 
L 928 3319 
L 928 2847 
Q 1294 3394 1984 3394 
Q 2284 3394 2536 3286 
Q 2788 3178 2913 3003 
Q 3038 2828 3088 2588 
Q 3119 2431 3119 2041 
L 3119 0 
L 2556 0 
L 2556 2019 
Q 2556 2363 2490 2533 
Q 2425 2703 2258 2804 
Q 2091 2906 1866 2906 
Q 1506 2906 1245 2678 
Q 984 2450 984 1813 
L 984 0 
L 422 0 
z
" transform="scale(0.015625)"/>
       <path id="ArialMT-61" d="M 2588 409 
Q 2275 144 1986 34 
Q 1697 -75 1366 -75 
Q 819 -75 525 192 
Q 231 459 231 875 
Q 231 1119 342 1320 
Q 453 1522 633 1644 
Q 813 1766 1038 1828 
Q 1203 1872 1538 1913 
Q 2219 1994 2541 2106 
Q 2544 2222 2544 2253 
Q 2544 2597 2384 2738 
Q 2169 2928 1744 2928 
Q 1347 2928 1158 2789 
Q 969 2650 878 2297 
L 328 2372 
Q 403 2725 575 2942 
Q 747 3159 1072 3276 
Q 1397 3394 1825 3394 
Q 2250 3394 2515 3294 
Q 2781 3194 2906 3042 
Q 3031 2891 3081 2659 
Q 3109 2516 3109 2141 
L 3109 1391 
Q 3109 606 3145 398 
Q 3181 191 3288 0 
L 2700 0 
Q 2613 175 2588 409 
z
M 2541 1666 
Q 2234 1541 1622 1453 
Q 1275 1403 1131 1340 
Q 988 1278 909 1158 
Q 831 1038 831 891 
Q 831 666 1001 516 
Q 1172 366 1500 366 
Q 1825 366 2078 508 
Q 2331 650 2450 897 
Q 2541 1088 2541 1459 
L 2541 1666 
z
" transform="scale(0.015625)"/>
      </defs>
      <use xlink:href="#ArialMT-69"/>
      <use xlink:href="#ArialMT-6e" x="22.216797"/>
      <use xlink:href="#ArialMT-69" x="77.832031"/>
      <use xlink:href="#ArialMT-74" x="100.048828"/>
      <use xlink:href="#ArialMT-69" x="127.832031"/>
      <use xlink:href="#ArialMT-61" x="150.048828"/>
      <use xlink:href="#ArialMT-6c" x="205.664062"/>
     </g>
    </g>
    <g id="patch_11">
     <path d="M 458.6125 373.4925 
L 478.6125 373.4925 
L 478.6125 366.4925 
L 458.6125 366.4925 
z
" style="fill: #e1812c; stroke: #3f3f3f; stroke-width: 1.25; stroke-linejoin: miter"/>
    </g>
    <g id="text_17">
     <!-- final -->
     <g style="fill: #262626" transform="translate(486.6125 373.4925) scale(0.1 -0.1)">
      <use xlink:href="#ArialMT-66"/>
      <use xlink:href="#ArialMT-69" x="27.783203"/>
      <use xlink:href="#ArialMT-6e" x="50"/>
      <use xlink:href="#ArialMT-61" x="105.615234"/>
      <use xlink:href="#ArialMT-6c" x="161.230469"/>
     </g>
    </g>
   </g>
  </g>
 </g>
 <defs>
  <clipPath id="pa3beda0b83">
   <rect x="72" y="51.84" width="446.4" height="332.64"/>
  </clipPath>
 </defs>
</svg>
