<?xml version="1.0" encoding="utf-8" standalone="no"?>
<!DOCTYPE svg PUBLIC "-//W3C//DTD SVG 1.1//EN"
  "http://www.w3.org/Graphics/SVG/1.1/DTD/svg11.dtd">
<svg xmlns:xlink="http://www.w3.org/1999/xlink" width="576pt" height="432pt" viewBox="0 0 576 432" xmlns="http://www.w3.org/2000/svg" version="1.1">
 <metadata>
  <rdf:RDF xmlns:dc="http://purl.org/dc/elements/1.1/" xmlns:cc="http://creativecommons.org/ns#" xmlns:rdf="http://www.w3.org/1999/02/22-rdf-syntax-ns#">
   <cc:Work>
    <dc:type rdf:resource="http://purl.org/dc/dcmitype/StillImage"/>
    <dc:date>2024-09-09T17:20:20.244899</dc:date>
    <dc:format>image/svg+xml</dc:format>
    <dc:creator>
     <cc:Agent>
      <dc:title>Matplotlib v3.8.3, https://matplotlib.org/</dc:title>
     </cc:Agent>
    </dc:creator>
   </cc:Work>
  </rdf:RDF>
 </metadata>
 <defs>
  <style type="text/css">*{stroke-linejoin: round; stroke-linecap: butt}</style>
 </defs>
 <g id="figure_1">
  <g id="patch_1">
   <path d="M 0 432 
L 576 432 
L 576 0 
L 0 0 
z
" style="fill: #ffffff"/>
  </g>
  <g id="axes_1">
   <g id="patch_2">
    <path d="M 72 384.48 
L 518.4 384.48 
L 518.4 51.84 
L 72 51.84 
z
" style="fill: #ffffff"/>
   </g>
   <g id="matplotlib.axis_1">
    <g id="xtick_1">
     <g id="text_1">
      <!-- 1 -->
      <g style="fill: #262626" transform="translate(143.619531 398.637812) scale(0.1 -0.1)">
       <defs>
        <path id="ArialMT-31" d="M 2384 0 
L 1822 0 
L 1822 3584 
Q 1619 3391 1289 3197 
Q 959 3003 697 2906 
L 697 3450 
Q 1169 3672 1522 3987 
Q 1875 4303 2022 4600 
L 2384 4600 
L 2384 0 
z
" transform="scale(0.015625)"/>
       </defs>
       <use xlink:href="#ArialMT-31"/>
      </g>
     </g>
    </g>
    <g id="xtick_2">
     <g id="text_2">
      <!-- 2 -->
      <g style="fill: #262626" transform="translate(292.419531 398.637812) scale(0.1 -0.1)">
       <defs>
        <path id="ArialMT-32" d="M 3222 541 
L 3222 0 
L 194 0 
Q 188 203 259 391 
Q 375 700 629 1000 
Q 884 1300 1366 1694 
Q 2113 2306 2375 2664 
Q 2638 3022 2638 3341 
Q 2638 3675 2398 3904 
Q 2159 4134 1775 4134 
Q 1369 4134 1125 3890 
Q 881 3647 878 3216 
L 300 3275 
Q 359 3922 746 4261 
Q 1134 4600 1788 4600 
Q 2447 4600 2831 4234 
Q 3216 3869 3216 3328 
Q 3216 3053 3103 2787 
Q 2991 2522 2730 2228 
Q 2469 1934 1863 1422 
Q 1356 997 1212 845 
Q 1069 694 975 541 
L 3222 541 
z
" transform="scale(0.015625)"/>
       </defs>
       <use xlink:href="#ArialMT-32"/>
      </g>
     </g>
    </g>
    <g id="xtick_3">
     <g id="text_3">
      <!-- 3 -->
      <g style="fill: #262626" transform="translate(441.219531 398.637812) scale(0.1 -0.1)">
       <defs>
        <path id="ArialMT-33" d="M 269 1209 
L 831 1284 
Q 928 806 1161 595 
Q 1394 384 1728 384 
Q 2125 384 2398 659 
Q 2672 934 2672 1341 
Q 2672 1728 2419 1979 
Q 2166 2231 1775 2231 
Q 1616 2231 1378 2169 
L 1441 2663 
Q 1497 2656 1531 2656 
Q 1891 2656 2178 2843 
Q 2466 3031 2466 3422 
Q 2466 3731 2256 3934 
Q 2047 4138 1716 4138 
Q 1388 4138 1169 3931 
Q 950 3725 888 3313 
L 325 3413 
Q 428 3978 793 4289 
Q 1159 4600 1703 4600 
Q 2078 4600 2393 4439 
Q 2709 4278 2876 4000 
Q 3044 3722 3044 3409 
Q 3044 3113 2884 2869 
Q 2725 2625 2413 2481 
Q 2819 2388 3044 2092 
Q 3269 1797 3269 1353 
Q 3269 753 2831 336 
Q 2394 -81 1725 -81 
Q 1122 -81 723 278 
Q 325 638 269 1209 
z
" transform="scale(0.015625)"/>
       </defs>
       <use xlink:href="#ArialMT-33"/>
      </g>
     </g>
    </g>
    <g id="text_4">
     <!-- Effort level -->
     <g style="fill: #262626" transform="translate(271.667969 411.783125) scale(0.1 -0.1)">
      <defs>
       <path id="ArialMT-45" d="M 506 0 
L 506 4581 
L 3819 4581 
L 3819 4041 
L 1113 4041 
L 1113 2638 
L 3647 2638 
L 3647 2100 
L 1113 2100 
L 1113 541 
L 3925 541 
L 3925 0 
L 506 0 
z
" transform="scale(0.015625)"/>
       <path id="ArialMT-66" d="M 556 0 
L 556 2881 
L 59 2881 
L 59 3319 
L 556 3319 
L 556 3672 
Q 556 4006 616 4169 
Q 697 4388 901 4523 
Q 1106 4659 1475 4659 
Q 1713 4659 2000 4603 
L 1916 4113 
Q 1741 4144 1584 4144 
Q 1328 4144 1222 4034 
Q 1116 3925 1116 3625 
L 1116 3319 
L 1763 3319 
L 1763 2881 
L 1116 2881 
L 1116 0 
L 556 0 
z
" transform="scale(0.015625)"/>
       <path id="ArialMT-6f" d="M 213 1659 
Q 213 2581 725 3025 
Q 1153 3394 1769 3394 
Q 2453 3394 2887 2945 
Q 3322 2497 3322 1706 
Q 3322 1066 3130 698 
Q 2938 331 2570 128 
Q 2203 -75 1769 -75 
Q 1072 -75 642 372 
Q 213 819 213 1659 
z
M 791 1659 
Q 791 1022 1069 705 
Q 1347 388 1769 388 
Q 2188 388 2466 706 
Q 2744 1025 2744 1678 
Q 2744 2294 2464 2611 
Q 2184 2928 1769 2928 
Q 1347 2928 1069 2612 
Q 791 2297 791 1659 
z
" transform="scale(0.015625)"/>
       <path id="ArialMT-72" d="M 416 0 
L 416 3319 
L 922 3319 
L 922 2816 
Q 1116 3169 1280 3281 
Q 1444 3394 1641 3394 
Q 1925 3394 2219 3213 
L 2025 2691 
Q 1819 2813 1613 2813 
Q 1428 2813 1281 2702 
Q 1134 2591 1072 2394 
Q 978 2094 978 1738 
L 978 0 
L 416 0 
z
" transform="scale(0.015625)"/>
       <path id="ArialMT-74" d="M 1650 503 
L 1731 6 
Q 1494 -44 1306 -44 
Q 1000 -44 831 53 
Q 663 150 594 308 
Q 525 466 525 972 
L 525 2881 
L 113 2881 
L 113 3319 
L 525 3319 
L 525 4141 
L 1084 4478 
L 1084 3319 
L 1650 3319 
L 1650 2881 
L 1084 2881 
L 1084 941 
Q 1084 700 1114 631 
Q 1144 563 1211 522 
Q 1278 481 1403 481 
Q 1497 481 1650 503 
z
" transform="scale(0.015625)"/>
       <path id="ArialMT-20" transform="scale(0.015625)"/>
       <path id="ArialMT-6c" d="M 409 0 
L 409 4581 
L 972 4581 
L 972 0 
L 409 0 
z
" transform="scale(0.015625)"/>
       <path id="ArialMT-65" d="M 2694 1069 
L 3275 997 
Q 3138 488 2766 206 
Q 2394 -75 1816 -75 
Q 1088 -75 661 373 
Q 234 822 234 1631 
Q 234 2469 665 2931 
Q 1097 3394 1784 3394 
Q 2450 3394 2872 2941 
Q 3294 2488 3294 1666 
Q 3294 1616 3291 1516 
L 816 1516 
Q 847 969 1125 678 
Q 1403 388 1819 388 
Q 2128 388 2347 550 
Q 2566 713 2694 1069 
z
M 847 1978 
L 2700 1978 
Q 2663 2397 2488 2606 
Q 2219 2931 1791 2931 
Q 1403 2931 1139 2672 
Q 875 2413 847 1978 
z
" transform="scale(0.015625)"/>
       <path id="ArialMT-76" d="M 1344 0 
L 81 3319 
L 675 3319 
L 1388 1331 
Q 1503 1009 1600 663 
Q 1675 925 1809 1294 
L 2547 3319 
L 3125 3319 
L 1869 0 
L 1344 0 
z
" transform="scale(0.015625)"/>
      </defs>
      <use xlink:href="#ArialMT-45"/>
      <use xlink:href="#ArialMT-66" x="66.699219"/>
      <use xlink:href="#ArialMT-66" x="92.732422"/>
      <use xlink:href="#ArialMT-6f" x="120.515625"/>
      <use xlink:href="#ArialMT-72" x="176.130859"/>
      <use xlink:href="#ArialMT-74" x="209.431641"/>
      <use xlink:href="#ArialMT-20" x="237.214844"/>
      <use xlink:href="#ArialMT-6c" x="264.998047"/>
      <use xlink:href="#ArialMT-65" x="287.214844"/>
      <use xlink:href="#ArialMT-76" x="342.830078"/>
      <use xlink:href="#ArialMT-65" x="392.830078"/>
      <use xlink:href="#ArialMT-6c" x="448.445312"/>
     </g>
    </g>
   </g>
   <g id="matplotlib.axis_2">
    <g id="ytick_1">
     <g id="line2d_1">
      <path d="M 72 331.447722 
L 518.4 331.447722 
" clip-path="url(#pf2ba36d7a5)" style="fill: none; stroke: #cccccc; stroke-width: 0.8; stroke-linecap: round"/>
     </g>
     <g id="text_5">
      <!-- 0 -->
      <g style="fill: #262626" transform="translate(59.439062 335.026628) scale(0.1 -0.1)">
       <defs>
        <path id="ArialMT-30" d="M 266 2259 
Q 266 3072 433 3567 
Q 600 4063 929 4331 
Q 1259 4600 1759 4600 
Q 2128 4600 2406 4451 
Q 2684 4303 2865 4023 
Q 3047 3744 3150 3342 
Q 3253 2941 3253 2259 
Q 3253 1453 3087 958 
Q 2922 463 2592 192 
Q 2263 -78 1759 -78 
Q 1097 -78 719 397 
Q 266 969 266 2259 
z
M 844 2259 
Q 844 1131 1108 757 
Q 1372 384 1759 384 
Q 2147 384 2411 759 
Q 2675 1134 2675 2259 
Q 2675 3391 2411 3762 
Q 2147 4134 1753 4134 
Q 1366 4134 1134 3806 
Q 844 3388 844 2259 
z
" transform="scale(0.015625)"/>
       </defs>
       <use xlink:href="#ArialMT-30"/>
      </g>
     </g>
    </g>
    <g id="ytick_2">
     <g id="line2d_2">
      <path d="M 72 258.216527 
L 518.4 258.216527 
" clip-path="url(#pf2ba36d7a5)" style="fill: none; stroke: #cccccc; stroke-width: 0.8; stroke-linecap: round"/>
     </g>
     <g id="text_6">
      <!-- 10 -->
      <g style="fill: #262626" transform="translate(53.878125 261.795433) scale(0.1 -0.1)">
       <use xlink:href="#ArialMT-31"/>
       <use xlink:href="#ArialMT-30" x="55.615234"/>
      </g>
     </g>
    </g>
    <g id="ytick_3">
     <g id="line2d_3">
      <path d="M 72 184.985332 
L 518.4 184.985332 
" clip-path="url(#pf2ba36d7a5)" style="fill: none; stroke: #cccccc; stroke-width: 0.8; stroke-linecap: round"/>
     </g>
     <g id="text_7">
      <!-- 20 -->
      <g style="fill: #262626" transform="translate(53.878125 188.564238) scale(0.1 -0.1)">
       <use xlink:href="#ArialMT-32"/>
       <use xlink:href="#ArialMT-30" x="55.615234"/>
      </g>
     </g>
    </g>
    <g id="ytick_4">
     <g id="line2d_4">
      <path d="M 72 111.754137 
L 518.4 111.754137 
" clip-path="url(#pf2ba36d7a5)" style="fill: none; stroke: #cccccc; stroke-width: 0.8; stroke-linecap: round"/>
     </g>
     <g id="text_8">
      <!-- 30 -->
      <g style="fill: #262626" transform="translate(53.878125 115.333043) scale(0.1 -0.1)">
       <use xlink:href="#ArialMT-33"/>
       <use xlink:href="#ArialMT-30" x="55.615234"/>
      </g>
     </g>
    </g>
    <g id="text_9">
     <!-- Relative O2 intake (ml/kg/min) -->
     <g style="fill: #262626" transform="translate(47.773437 285.121719) rotate(-90) scale(0.1 -0.1)">
      <defs>
       <path id="ArialMT-52" d="M 503 0 
L 503 4581 
L 2534 4581 
Q 3147 4581 3465 4457 
Q 3784 4334 3975 4021 
Q 4166 3709 4166 3331 
Q 4166 2844 3850 2509 
Q 3534 2175 2875 2084 
Q 3116 1969 3241 1856 
Q 3506 1613 3744 1247 
L 4541 0 
L 3778 0 
L 3172 953 
Q 2906 1366 2734 1584 
Q 2563 1803 2427 1890 
Q 2291 1978 2150 2013 
Q 2047 2034 1813 2034 
L 1109 2034 
L 1109 0 
L 503 0 
z
M 1109 2559 
L 2413 2559 
Q 2828 2559 3062 2645 
Q 3297 2731 3419 2920 
Q 3541 3109 3541 3331 
Q 3541 3656 3305 3865 
Q 3069 4075 2559 4075 
L 1109 4075 
L 1109 2559 
z
" transform="scale(0.015625)"/>
       <path id="ArialMT-61" d="M 2588 409 
Q 2275 144 1986 34 
Q 1697 -75 1366 -75 
Q 819 -75 525 192 
Q 231 459 231 875 
Q 231 1119 342 1320 
Q 453 1522 633 1644 
Q 813 1766 1038 1828 
Q 1203 1872 1538 1913 
Q 2219 1994 2541 2106 
Q 2544 2222 2544 2253 
Q 2544 2597 2384 2738 
Q 2169 2928 1744 2928 
Q 1347 2928 1158 2789 
Q 969 2650 878 2297 
L 328 2372 
Q 403 2725 575 2942 
Q 747 3159 1072 3276 
Q 1397 3394 1825 3394 
Q 2250 3394 2515 3294 
Q 2781 3194 2906 3042 
Q 3031 2891 3081 2659 
Q 3109 2516 3109 2141 
L 3109 1391 
Q 3109 606 3145 398 
Q 3181 191 3288 0 
L 2700 0 
Q 2613 175 2588 409 
z
M 2541 1666 
Q 2234 1541 1622 1453 
Q 1275 1403 1131 1340 
Q 988 1278 909 1158 
Q 831 1038 831 891 
Q 831 666 1001 516 
Q 1172 366 1500 366 
Q 1825 366 2078 508 
Q 2331 650 2450 897 
Q 2541 1088 2541 1459 
L 2541 1666 
z
" transform="scale(0.015625)"/>
       <path id="ArialMT-69" d="M 425 3934 
L 425 4581 
L 988 4581 
L 988 3934 
L 425 3934 
z
M 425 0 
L 425 3319 
L 988 3319 
L 988 0 
L 425 0 
z
" transform="scale(0.015625)"/>
       <path id="ArialMT-4f" d="M 309 2231 
Q 309 3372 921 4017 
Q 1534 4663 2503 4663 
Q 3138 4663 3647 4359 
Q 4156 4056 4423 3514 
Q 4691 2972 4691 2284 
Q 4691 1588 4409 1038 
Q 4128 488 3612 205 
Q 3097 -78 2500 -78 
Q 1853 -78 1343 234 
Q 834 547 571 1087 
Q 309 1628 309 2231 
z
M 934 2222 
Q 934 1394 1379 917 
Q 1825 441 2497 441 
Q 3181 441 3623 922 
Q 4066 1403 4066 2288 
Q 4066 2847 3877 3264 
Q 3688 3681 3323 3911 
Q 2959 4141 2506 4141 
Q 1863 4141 1398 3698 
Q 934 3256 934 2222 
z
" transform="scale(0.015625)"/>
       <path id="ArialMT-6e" d="M 422 0 
L 422 3319 
L 928 3319 
L 928 2847 
Q 1294 3394 1984 3394 
Q 2284 3394 2536 3286 
Q 2788 3178 2913 3003 
Q 3038 2828 3088 2588 
Q 3119 2431 3119 2041 
L 3119 0 
L 2556 0 
L 2556 2019 
Q 2556 2363 2490 2533 
Q 2425 2703 2258 2804 
Q 2091 2906 1866 2906 
Q 1506 2906 1245 2678 
Q 984 2450 984 1813 
L 984 0 
L 422 0 
z
" transform="scale(0.015625)"/>
       <path id="ArialMT-6b" d="M 425 0 
L 425 4581 
L 988 4581 
L 988 1969 
L 2319 3319 
L 3047 3319 
L 1778 2088 
L 3175 0 
L 2481 0 
L 1384 1697 
L 988 1316 
L 988 0 
L 425 0 
z
" transform="scale(0.015625)"/>
       <path id="ArialMT-28" d="M 1497 -1347 
Q 1031 -759 709 28 
Q 388 816 388 1659 
Q 388 2403 628 3084 
Q 909 3875 1497 4659 
L 1900 4659 
Q 1522 4009 1400 3731 
Q 1209 3300 1100 2831 
Q 966 2247 966 1656 
Q 966 153 1900 -1347 
L 1497 -1347 
z
" transform="scale(0.015625)"/>
       <path id="ArialMT-6d" d="M 422 0 
L 422 3319 
L 925 3319 
L 925 2853 
Q 1081 3097 1340 3245 
Q 1600 3394 1931 3394 
Q 2300 3394 2536 3241 
Q 2772 3088 2869 2813 
Q 3263 3394 3894 3394 
Q 4388 3394 4653 3120 
Q 4919 2847 4919 2278 
L 4919 0 
L 4359 0 
L 4359 2091 
Q 4359 2428 4304 2576 
Q 4250 2725 4106 2815 
Q 3963 2906 3769 2906 
Q 3419 2906 3187 2673 
Q 2956 2441 2956 1928 
L 2956 0 
L 2394 0 
L 2394 2156 
Q 2394 2531 2256 2718 
Q 2119 2906 1806 2906 
Q 1569 2906 1367 2781 
Q 1166 2656 1075 2415 
Q 984 2175 984 1722 
L 984 0 
L 422 0 
z
" transform="scale(0.015625)"/>
       <path id="ArialMT-2f" d="M 0 -78 
L 1328 4659 
L 1778 4659 
L 453 -78 
L 0 -78 
z
" transform="scale(0.015625)"/>
       <path id="ArialMT-67" d="M 319 -275 
L 866 -356 
Q 900 -609 1056 -725 
Q 1266 -881 1628 -881 
Q 2019 -881 2231 -725 
Q 2444 -569 2519 -288 
Q 2563 -116 2559 434 
Q 2191 0 1641 0 
Q 956 0 581 494 
Q 206 988 206 1678 
Q 206 2153 378 2554 
Q 550 2956 876 3175 
Q 1203 3394 1644 3394 
Q 2231 3394 2613 2919 
L 2613 3319 
L 3131 3319 
L 3131 450 
Q 3131 -325 2973 -648 
Q 2816 -972 2473 -1159 
Q 2131 -1347 1631 -1347 
Q 1038 -1347 672 -1080 
Q 306 -813 319 -275 
z
M 784 1719 
Q 784 1066 1043 766 
Q 1303 466 1694 466 
Q 2081 466 2343 764 
Q 2606 1063 2606 1700 
Q 2606 2309 2336 2618 
Q 2066 2928 1684 2928 
Q 1309 2928 1046 2623 
Q 784 2319 784 1719 
z
" transform="scale(0.015625)"/>
       <path id="ArialMT-29" d="M 791 -1347 
L 388 -1347 
Q 1322 153 1322 1656 
Q 1322 2244 1188 2822 
Q 1081 3291 891 3722 
Q 769 4003 388 4659 
L 791 4659 
Q 1378 3875 1659 3084 
Q 1900 2403 1900 1659 
Q 1900 816 1576 28 
Q 1253 -759 791 -1347 
z
" transform="scale(0.015625)"/>
      </defs>
      <use xlink:href="#ArialMT-52"/>
      <use xlink:href="#ArialMT-65" x="72.216797"/>
      <use xlink:href="#ArialMT-6c" x="127.832031"/>
      <use xlink:href="#ArialMT-61" x="150.048828"/>
      <use xlink:href="#ArialMT-74" x="205.664062"/>
      <use xlink:href="#ArialMT-69" x="233.447266"/>
      <use xlink:href="#ArialMT-76" x="255.664062"/>
      <use xlink:href="#ArialMT-65" x="305.664062"/>
      <use xlink:href="#ArialMT-20" x="361.279297"/>
      <use xlink:href="#ArialMT-4f" x="389.0625"/>
      <use xlink:href="#ArialMT-32" x="466.845703"/>
      <use xlink:href="#ArialMT-20" x="522.460938"/>
      <use xlink:href="#ArialMT-69" x="550.244141"/>
      <use xlink:href="#ArialMT-6e" x="572.460938"/>
      <use xlink:href="#ArialMT-74" x="628.076172"/>
      <use xlink:href="#ArialMT-61" x="655.859375"/>
      <use xlink:href="#ArialMT-6b" x="711.474609"/>
      <use xlink:href="#ArialMT-65" x="761.474609"/>
      <use xlink:href="#ArialMT-20" x="817.089844"/>
      <use xlink:href="#ArialMT-28" x="844.873047"/>
      <use xlink:href="#ArialMT-6d" x="878.173828"/>
      <use xlink:href="#ArialMT-6c" x="961.474609"/>
      <use xlink:href="#ArialMT-2f" x="983.691406"/>
      <use xlink:href="#ArialMT-6b" x="1011.474609"/>
      <use xlink:href="#ArialMT-67" x="1061.474609"/>
      <use xlink:href="#ArialMT-2f" x="1117.089844"/>
      <use xlink:href="#ArialMT-6d" x="1144.873047"/>
      <use xlink:href="#ArialMT-69" x="1228.173828"/>
      <use xlink:href="#ArialMT-6e" x="1250.390625"/>
      <use xlink:href="#ArialMT-29" x="1306.005859"/>
     </g>
    </g>
   </g>
   <g id="PolyCollection_1">
    <defs>
     <path id="m49086821fb" d="M 116.949283 -132.761998 
L 116.330717 -132.761998 
L 116.208147 -135.055616 
L 116.047177 -137.349234 
L 115.839501 -139.642852 
L 115.576132 -141.936471 
L 115.247616 -144.230089 
L 114.844311 -146.523707 
L 114.35672 -148.817326 
L 113.775877 -151.110944 
L 113.093778 -153.404562 
L 112.303863 -155.69818 
L 111.401534 -157.991799 
L 110.384698 -160.285417 
L 109.254298 -162.579035 
L 108.014792 -164.872653 
L 106.67451 -167.166272 
L 105.245819 -169.45989 
L 103.745027 -171.753508 
L 102.191981 -174.047127 
L 100.609349 -176.340745 
L 99.021622 -178.634363 
L 97.45394 -180.927981 
L 95.930878 -183.2216 
L 94.47534 -185.515218 
L 93.107742 -187.808836 
L 91.845569 -190.102454 
L 90.703354 -192.396073 
L 89.693034 -194.689691 
L 88.824551 -196.983309 
L 88.106491 -199.276927 
L 87.546577 -201.570546 
L 87.151816 -203.864164 
L 86.928203 -206.157782 
L 86.88 -208.451401 
L 87.008706 -210.745019 
L 87.311944 -213.038637 
L 87.782547 -215.332255 
L 88.408095 -217.625874 
L 89.171114 -219.919492 
L 90.049977 -222.21311 
L 91.020449 -224.506728 
L 92.057639 -226.800347 
L 93.138041 -229.093965 
L 94.241314 -231.387583 
L 95.351498 -233.681202 
L 96.457479 -235.97482 
L 97.55266 -238.268438 
L 98.633973 -240.562056 
L 99.700489 -242.855675 
L 100.751941 -245.149293 
L 101.787483 -247.442911 
L 102.804922 -249.736529 
L 103.800527 -252.030148 
L 104.769386 -254.323766 
L 105.706151 -256.617384 
L 106.605937 -258.911003 
L 107.465123 -261.204621 
L 108.281853 -263.498239 
L 109.056128 -265.791857 
L 109.78948 -268.085476 
L 110.48433 -270.379094 
L 111.143189 -272.672712 
L 111.76789 -274.96633 
L 112.359017 -277.259949 
L 112.915621 -279.553567 
L 113.435278 -281.847185 
L 113.914421 -284.140803 
L 114.348876 -286.434422 
L 114.734466 -288.72804 
L 115.067585 -291.021658 
L 115.34565 -293.315277 
L 115.567401 -295.608895 
L 115.733033 -297.902513 
L 115.844209 -300.196131 
L 115.903997 -302.48975 
L 115.91677 -304.783368 
L 115.888108 -307.076986 
L 115.824704 -309.370604 
L 115.734251 -311.664223 
L 115.625288 -313.957841 
L 115.506957 -316.251459 
L 115.388658 -318.545078 
L 115.279587 -320.838696 
L 115.188202 -323.132314 
L 115.121655 -325.425932 
L 115.08527 -327.719551 
L 115.082147 -330.013169 
L 115.112953 -332.306787 
L 115.175945 -334.600405 
L 115.267226 -336.894024 
L 115.381212 -339.187642 
L 115.511233 -341.48126 
L 115.650201 -343.774878 
L 115.791258 -346.068497 
L 115.928315 -348.362115 
L 116.056444 -350.655733 
L 116.172094 -352.949352 
L 116.273127 -355.24297 
L 116.358711 -357.536588 
L 116.429102 -359.830206 
L 116.850898 -359.830206 
L 116.850898 -359.830206 
L 116.921289 -357.536588 
L 117.006873 -355.24297 
L 117.107906 -352.949352 
L 117.223556 -350.655733 
L 117.351685 -348.362115 
L 117.488742 -346.068497 
L 117.629799 -343.774878 
L 117.768767 -341.48126 
L 117.898788 -339.187642 
L 118.012774 -336.894024 
L 118.104055 -334.600405 
L 118.167047 -332.306787 
L 118.197853 -330.013169 
L 118.19473 -327.719551 
L 118.158345 -325.425932 
L 118.091798 -323.132314 
L 118.000413 -320.838696 
L 117.891342 -318.545078 
L 117.773043 -316.251459 
L 117.654712 -313.957841 
L 117.545749 -311.664223 
L 117.455296 -309.370604 
L 117.391892 -307.076986 
L 117.36323 -304.783368 
L 117.376003 -302.48975 
L 117.435791 -300.196131 
L 117.546967 -297.902513 
L 117.712599 -295.608895 
L 117.93435 -293.315277 
L 118.212415 -291.021658 
L 118.545534 -288.72804 
L 118.931124 -286.434422 
L 119.365579 -284.140803 
L 119.844722 -281.847185 
L 120.364379 -279.553567 
L 120.920983 -277.259949 
L 121.51211 -274.96633 
L 122.136811 -272.672712 
L 122.79567 -270.379094 
L 123.49052 -268.085476 
L 124.223872 -265.791857 
L 124.998147 -263.498239 
L 125.814877 -261.204621 
L 126.674063 -258.911003 
L 127.573849 -256.617384 
L 128.510614 -254.323766 
L 129.479473 -252.030148 
L 130.475078 -249.736529 
L 131.492517 -247.442911 
L 132.528059 -245.149293 
L 133.579511 -242.855675 
L 134.646027 -240.562056 
L 135.72734 -238.268438 
L 136.822521 -235.97482 
L 137.928502 -233.681202 
L 139.038686 -231.387583 
L 140.141959 -229.093965 
L 141.222361 -226.800347 
L 142.259551 -224.506728 
L 143.230023 -222.21311 
L 144.108886 -219.919492 
L 144.871905 -217.625874 
L 145.497453 -215.332255 
L 145.968056 -213.038637 
L 146.271294 -210.745019 
L 146.4 -208.451401 
L 146.351797 -206.157782 
L 146.128184 -203.864164 
L 145.733423 -201.570546 
L 145.173509 -199.276927 
L 144.455449 -196.983309 
L 143.586966 -194.689691 
L 142.576646 -192.396073 
L 141.434431 -190.102454 
L 140.172258 -187.808836 
L 138.80466 -185.515218 
L 137.349122 -183.2216 
L 135.82606 -180.927981 
L 134.258378 -178.634363 
L 132.670651 -176.340745 
L 131.088019 -174.047127 
L 129.534973 -171.753508 
L 128.034181 -169.45989 
L 126.60549 -167.166272 
L 125.265208 -164.872653 
L 124.025702 -162.579035 
L 122.895302 -160.285417 
L 121.878466 -157.991799 
L 120.976137 -155.69818 
L 120.186222 -153.404562 
L 119.504123 -151.110944 
L 118.92328 -148.817326 
L 118.435689 -146.523707 
L 118.032384 -144.230089 
L 117.703868 -141.936471 
L 117.440499 -139.642852 
L 117.232823 -137.349234 
L 117.071853 -135.055616 
L 116.949283 -132.761998 
z
" style="stroke: #3f3f3f; stroke-width: 1.25"/>
    </defs>
    <g clip-path="url(#pf2ba36d7a5)">
     <use xlink:href="#m49086821fb" x="0" y="432" style="fill: #3274a1; stroke: #3f3f3f; stroke-width: 1.25"/>
    </g>
   </g>
   <g id="PolyCollection_2">
    <defs>
     <path id="mf4e5a74ddb" d="M 176.629158 -134.061493 
L 175.690842 -134.061493 
L 175.54372 -135.636411 
L 175.361776 -137.211329 
L 175.140341 -138.786247 
L 174.875095 -140.361164 
L 174.56233 -141.936082 
L 174.199226 -143.511 
L 173.784096 -145.085918 
L 173.316593 -146.660836 
L 172.797831 -148.235754 
L 172.230425 -149.810672 
L 171.618425 -151.38559 
L 170.967137 -152.960508 
L 170.282857 -154.535426 
L 169.572504 -156.110344 
L 168.843211 -157.685262 
L 168.101881 -159.260179 
L 167.354748 -160.835097 
L 166.606989 -162.410015 
L 165.862401 -163.984933 
L 165.123194 -165.559851 
L 164.389899 -167.134769 
L 163.661415 -168.709687 
L 162.935205 -170.284605 
L 162.207621 -171.859523 
L 161.474341 -173.434441 
L 160.730898 -175.009359 
L 159.973248 -176.584277 
L 159.198329 -178.159194 
L 158.404566 -179.734112 
L 157.592264 -181.30903 
L 156.763845 -182.883948 
L 155.923912 -184.458866 
L 155.079117 -186.033784 
L 154.237866 -187.608702 
L 153.409885 -189.18362 
L 152.605709 -190.758538 
L 151.836147 -192.333456 
L 151.111799 -193.908374 
L 150.442665 -195.483292 
L 149.837881 -197.05821 
L 149.305593 -198.633127 
L 148.852948 -200.208045 
L 148.48618 -201.782963 
L 148.210722 -203.357881 
L 148.031323 -204.932799 
L 147.952098 -206.507717 
L 147.976509 -208.082635 
L 148.107247 -209.657553 
L 148.346035 -211.232471 
L 148.693378 -212.807389 
L 149.148281 -214.382307 
L 149.708005 -215.957225 
L 150.367867 -217.532142 
L 151.121143 -219.10706 
L 151.959081 -220.681978 
L 152.871048 -222.256896 
L 153.84479 -223.831814 
L 154.866814 -225.406732 
L 155.922841 -226.98165 
L 156.998319 -228.556568 
L 158.078951 -230.131486 
L 159.151183 -231.706404 
L 160.202646 -233.281322 
L 161.222491 -234.85624 
L 162.201623 -236.431158 
L 163.132818 -238.006075 
L 164.010733 -239.580993 
L 164.83183 -241.155911 
L 165.594251 -242.730829 
L 166.297653 -244.305747 
L 166.943058 -245.880665 
L 167.5327 -247.455583 
L 168.069907 -249.030501 
L 168.558989 -250.605419 
L 169.005118 -252.180337 
L 169.414189 -253.755255 
L 169.792627 -255.330173 
L 170.147141 -256.90509 
L 170.48442 -258.480008 
L 170.810784 -260.054926 
L 171.131825 -261.629844 
L 171.452066 -263.204762 
L 171.774686 -264.77968 
L 172.101342 -266.354598 
L 172.432114 -267.929516 
L 172.765587 -269.504434 
L 173.099056 -271.079352 
L 173.428834 -272.65427 
L 173.750639 -274.229188 
L 174.059994 -275.804105 
L 174.352623 -277.379023 
L 174.624788 -278.953941 
L 174.873548 -280.528859 
L 175.096916 -282.103777 
L 175.29392 -283.678695 
L 175.464569 -285.253613 
L 175.609748 -286.828531 
L 175.731054 -288.403449 
L 175.830609 -289.978367 
L 176.489391 -289.978367 
L 176.489391 -289.978367 
L 176.588946 -288.403449 
L 176.710252 -286.828531 
L 176.855431 -285.253613 
L 177.02608 -283.678695 
L 177.223084 -282.103777 
L 177.446452 -280.528859 
L 177.695212 -278.953941 
L 177.967377 -277.379023 
L 178.260006 -275.804105 
L 178.569361 -274.229188 
L 178.891166 -272.65427 
L 179.220944 -271.079352 
L 179.554413 -269.504434 
L 179.887886 -267.929516 
L 180.218658 -266.354598 
L 180.545314 -264.77968 
L 180.867934 -263.204762 
L 181.188175 -261.629844 
L 181.509216 -260.054926 
L 181.83558 -258.480008 
L 182.172859 -256.90509 
L 182.527373 -255.330173 
L 182.905811 -253.755255 
L 183.314882 -252.180337 
L 183.761011 -250.605419 
L 184.250093 -249.030501 
L 184.7873 -247.455583 
L 185.376942 -245.880665 
L 186.022347 -244.305747 
L 186.725749 -242.730829 
L 187.48817 -241.155911 
L 188.309267 -239.580993 
L 189.187182 -238.006075 
L 190.118377 -236.431158 
L 191.097509 -234.85624 
L 192.117354 -233.281322 
L 193.168817 -231.706404 
L 194.241049 -230.131486 
L 195.321681 -228.556568 
L 196.397159 -226.98165 
L 197.453186 -225.406732 
L 198.47521 -223.831814 
L 199.448952 -222.256896 
L 200.360919 -220.681978 
L 201.198857 -219.10706 
L 201.952133 -217.532142 
L 202.611995 -215.957225 
L 203.171719 -214.382307 
L 203.626622 -212.807389 
L 203.973965 -211.232471 
L 204.212753 -209.657553 
L 204.343491 -208.082635 
L 204.367902 -206.507717 
L 204.288677 -204.932799 
L 204.109278 -203.357881 
L 203.83382 -201.782963 
L 203.467052 -200.208045 
L 203.014407 -198.633127 
L 202.482119 -197.05821 
L 201.877335 -195.483292 
L 201.208201 -193.908374 
L 200.483853 -192.333456 
L 199.714291 -190.758538 
L 198.910115 -189.18362 
L 198.082134 -187.608702 
L 197.240883 -186.033784 
L 196.396088 -184.458866 
L 195.556155 -182.883948 
L 194.727736 -181.30903 
L 193.915434 -179.734112 
L 193.121671 -178.159194 
L 192.346752 -176.584277 
L 191.589102 -175.009359 
L 190.845659 -173.434441 
L 190.112379 -171.859523 
L 189.384795 -170.284605 
L 188.658585 -168.709687 
L 187.930101 -167.134769 
L 187.196806 -165.559851 
L 186.457599 -163.984933 
L 185.713011 -162.410015 
L 184.965252 -160.835097 
L 184.218119 -159.260179 
L 183.476789 -157.685262 
L 182.747496 -156.110344 
L 182.037143 -154.535426 
L 181.352863 -152.960508 
L 180.701575 -151.38559 
L 180.089575 -149.810672 
L 179.522169 -148.235754 
L 179.003407 -146.660836 
L 178.535904 -145.085918 
L 178.120774 -143.511 
L 177.75767 -141.936082 
L 177.444905 -140.361164 
L 177.179659 -138.786247 
L 176.958224 -137.211329 
L 176.77628 -135.636411 
L 176.629158 -134.061493 
z
" style="stroke: #3f3f3f; stroke-width: 1.25"/>
    </defs>
    <g clip-path="url(#pf2ba36d7a5)">
     <use xlink:href="#mf4e5a74ddb" x="0" y="432" style="fill: #e1812c; stroke: #3f3f3f; stroke-width: 1.25"/>
    </g>
   </g>
   <g id="PolyCollection_3">
    <defs>
     <path id="m16938c663c" d="M 265.913096 -136.340384 
L 264.966904 -136.340384 
L 264.826617 -138.132308 
L 264.656241 -139.924232 
L 264.452707 -141.716156 
L 264.213426 -143.50808 
L 263.936424 -145.300004 
L 263.62041 -147.091928 
L 263.26477 -148.883853 
L 262.869458 -150.675777 
L 262.4348 -152.467701 
L 261.961214 -154.259625 
L 261.448882 -156.051549 
L 260.897424 -157.843473 
L 260.305617 -159.635397 
L 259.671234 -161.427322 
L 258.991035 -163.219246 
L 258.260954 -165.01117 
L 257.476483 -166.803094 
L 256.633231 -168.595018 
L 255.727605 -170.386942 
L 254.757539 -172.178866 
L 253.723172 -173.97079 
L 252.62738 -175.762715 
L 251.476092 -177.554639 
L 250.278328 -179.346563 
L 249.045944 -181.138487 
L 247.79312 -182.930411 
L 246.535648 -184.722335 
L 245.290122 -186.514259 
L 244.073132 -188.306184 
L 242.900575 -190.098108 
L 241.787153 -191.890032 
L 240.746111 -193.681956 
L 239.789195 -195.47388 
L 238.926797 -197.265804 
L 238.168197 -199.057728 
L 237.521791 -200.849652 
L 236.995218 -202.641577 
L 236.595301 -204.433501 
L 236.327761 -206.225425 
L 236.196726 -208.017349 
L 236.204084 -209.809273 
L 236.348793 -211.601197 
L 236.626262 -213.393121 
L 237.027925 -215.185046 
L 237.541122 -216.97697 
L 238.149343 -218.768894 
L 238.832851 -220.560818 
L 239.569642 -222.352742 
L 240.336677 -224.144666 
L 241.111246 -225.93659 
L 241.872348 -227.728515 
L 242.60196 -229.520439 
L 243.286064 -231.312363 
L 243.915364 -233.104287 
L 244.485644 -234.896211 
L 244.997735 -236.688135 
L 245.457145 -238.480059 
L 245.873371 -240.271983 
L 246.258984 -242.063908 
L 246.628558 -243.855832 
L 246.997536 -245.647756 
L 247.381115 -247.43968 
L 247.79322 -249.231604 
L 248.245634 -251.023528 
L 248.747322 -252.815452 
L 249.30399 -254.607377 
L 249.917862 -256.399301 
L 250.587707 -258.191225 
L 251.309057 -259.983149 
L 252.074623 -261.775073 
L 252.874849 -263.566997 
L 253.698564 -265.358921 
L 254.533702 -267.150846 
L 255.368022 -268.94277 
L 256.189792 -270.734694 
L 256.988396 -272.526618 
L 257.754811 -274.318542 
L 258.481949 -276.110466 
L 259.164818 -277.90239 
L 259.800521 -279.694314 
L 260.3881 -281.486239 
L 260.928249 -283.278163 
L 261.422937 -285.070087 
L 261.87499 -286.862011 
L 262.287673 -288.653935 
L 262.664326 -290.445859 
L 263.00807 -292.237783 
L 263.321618 -294.029708 
L 263.607185 -295.821632 
L 263.866492 -297.613556 
L 264.100842 -299.40548 
L 264.311248 -301.197404 
L 264.498575 -302.989328 
L 264.663677 -304.781252 
L 264.807512 -306.573176 
L 264.931213 -308.365101 
L 265.036123 -310.157025 
L 265.123788 -311.948949 
L 265.195913 -313.740873 
L 265.684087 -313.740873 
L 265.684087 -313.740873 
L 265.756212 -311.948949 
L 265.843877 -310.157025 
L 265.948787 -308.365101 
L 266.072488 -306.573176 
L 266.216323 -304.781252 
L 266.381425 -302.989328 
L 266.568752 -301.197404 
L 266.779158 -299.40548 
L 267.013508 -297.613556 
L 267.272815 -295.821632 
L 267.558382 -294.029708 
L 267.87193 -292.237783 
L 268.215674 -290.445859 
L 268.592327 -288.653935 
L 269.00501 -286.862011 
L 269.457063 -285.070087 
L 269.951751 -283.278163 
L 270.4919 -281.486239 
L 271.079479 -279.694314 
L 271.715182 -277.90239 
L 272.398051 -276.110466 
L 273.125189 -274.318542 
L 273.891604 -272.526618 
L 274.690208 -270.734694 
L 275.511978 -268.94277 
L 276.346298 -267.150846 
L 277.181436 -265.358921 
L 278.005151 -263.566997 
L 278.805377 -261.775073 
L 279.570943 -259.983149 
L 280.292293 -258.191225 
L 280.962138 -256.399301 
L 281.57601 -254.607377 
L 282.132678 -252.815452 
L 282.634366 -251.023528 
L 283.08678 -249.231604 
L 283.498885 -247.43968 
L 283.882464 -245.647756 
L 284.251442 -243.855832 
L 284.621016 -242.063908 
L 285.006629 -240.271983 
L 285.422855 -238.480059 
L 285.882265 -236.688135 
L 286.394356 -234.896211 
L 286.964636 -233.104287 
L 287.593936 -231.312363 
L 288.27804 -229.520439 
L 289.007652 -227.728515 
L 289.768754 -225.93659 
L 290.543323 -224.144666 
L 291.310358 -222.352742 
L 292.047149 -220.560818 
L 292.730657 -218.768894 
L 293.338878 -216.97697 
L 293.852075 -215.185046 
L 294.253738 -213.393121 
L 294.531207 -211.601197 
L 294.675916 -209.809273 
L 294.683274 -208.017349 
L 294.552239 -206.225425 
L 294.284699 -204.433501 
L 293.884782 -202.641577 
L 293.358209 -200.849652 
L 292.711803 -199.057728 
L 291.953203 -197.265804 
L 291.090805 -195.47388 
L 290.133889 -193.681956 
L 289.092847 -191.890032 
L 287.979425 -190.098108 
L 286.806868 -188.306184 
L 285.589878 -186.514259 
L 284.344352 -184.722335 
L 283.08688 -182.930411 
L 281.834056 -181.138487 
L 280.601672 -179.346563 
L 279.403908 -177.554639 
L 278.25262 -175.762715 
L 277.156828 -173.97079 
L 276.122461 -172.178866 
L 275.152395 -170.386942 
L 274.246769 -168.595018 
L 273.403517 -166.803094 
L 272.619046 -165.01117 
L 271.888965 -163.219246 
L 271.208766 -161.427322 
L 270.574383 -159.635397 
L 269.982576 -157.843473 
L 269.431118 -156.051549 
L 268.918786 -154.259625 
L 268.4452 -152.467701 
L 268.010542 -150.675777 
L 267.61523 -148.883853 
L 267.25959 -147.091928 
L 266.943576 -145.300004 
L 266.666574 -143.50808 
L 266.427293 -141.716156 
L 266.223759 -139.924232 
L 266.053383 -138.132308 
L 265.913096 -136.340384 
z
" style="stroke: #3f3f3f; stroke-width: 1.25"/>
    </defs>
    <g clip-path="url(#pf2ba36d7a5)">
     <use xlink:href="#m16938c663c" x="0" y="432" style="fill: #3274a1; stroke: #3f3f3f; stroke-width: 1.25"/>
    </g>
   </g>
   <g id="PolyCollection_4">
    <defs>
     <path id="mf83b5ed391" d="M 325.30398 -142.451521 
L 324.61602 -142.451521 
L 324.511213 -143.776431 
L 324.381093 -145.101342 
L 324.221533 -146.426252 
L 324.028246 -147.751163 
L 323.796905 -149.076074 
L 323.52329 -150.400984 
L 323.203457 -151.725895 
L 322.833923 -153.050805 
L 322.411857 -154.375716 
L 321.935283 -155.700627 
L 321.403255 -157.025537 
L 320.81603 -158.350448 
L 320.175182 -159.675358 
L 319.483688 -161.000269 
L 318.745927 -162.32518 
L 317.967614 -163.65009 
L 317.155641 -164.975001 
L 316.317825 -166.299911 
L 315.462568 -167.624822 
L 314.598442 -168.949733 
L 313.733712 -170.274643 
L 312.875845 -171.599554 
L 312.031022 -172.924464 
L 311.203717 -174.249375 
L 310.396384 -175.574286 
L 309.60928 -176.899196 
L 308.840479 -178.224107 
L 308.086076 -179.549017 
L 307.340599 -180.873928 
L 306.597588 -182.198839 
L 305.850321 -183.523749 
L 305.092621 -184.84866 
L 304.319673 -186.17357 
L 303.528779 -187.498481 
L 302.719978 -188.823392 
L 301.896462 -190.148302 
L 301.064758 -191.473213 
L 300.234623 -192.798123 
L 299.418686 -194.123034 
L 298.631831 -195.447945 
L 297.890381 -196.772855 
L 297.211151 -198.097766 
L 296.610423 -199.422676 
L 296.102942 -200.747587 
L 295.701 -202.072498 
L 295.41367 -203.397408 
L 295.246259 -204.722319 
L 295.2 -206.047229 
L 295.272022 -207.37214 
L 295.45558 -208.697051 
L 295.740542 -210.021961 
L 296.114076 -211.346872 
L 296.561501 -212.671782 
L 297.067221 -213.996693 
L 297.615672 -215.321604 
L 298.192214 -216.646514 
L 298.783886 -217.971425 
L 299.379976 -219.296335 
L 299.972365 -220.621246 
L 300.555635 -221.946157 
L 301.126941 -223.271067 
L 301.6857 -224.595978 
L 302.233135 -225.920888 
L 302.771754 -227.245799 
L 303.304834 -228.57071 
L 303.835958 -229.89562 
L 304.368686 -231.220531 
L 304.906346 -232.545441 
L 305.45198 -233.870352 
L 306.008389 -235.195263 
L 306.578259 -236.520173 
L 307.1643 -237.845084 
L 307.769335 -239.169994 
L 308.396317 -240.494905 
L 309.048217 -241.819816 
L 309.727804 -243.144726 
L 310.437317 -244.469637 
L 311.178083 -245.794547 
L 311.950123 -247.119458 
L 312.75182 -248.444369 
L 313.579689 -249.769279 
L 314.428302 -251.09419 
L 315.290387 -252.4191 
L 316.157101 -253.744011 
L 317.018454 -255.068922 
L 317.863844 -256.393832 
L 318.682653 -257.718743 
L 319.464841 -259.043653 
L 320.201485 -260.368564 
L 320.885223 -261.693475 
L 321.510559 -263.018385 
L 322.074023 -264.343296 
L 322.574186 -265.668206 
L 323.011533 -266.993117 
L 323.388241 -268.318028 
L 323.707874 -269.642938 
L 323.975036 -270.967849 
L 324.195018 -272.29276 
L 324.373463 -273.61767 
L 325.546537 -273.61767 
L 325.546537 -273.61767 
L 325.724982 -272.29276 
L 325.944964 -270.967849 
L 326.212126 -269.642938 
L 326.531759 -268.318028 
L 326.908467 -266.993117 
L 327.345814 -265.668206 
L 327.845977 -264.343296 
L 328.409441 -263.018385 
L 329.034777 -261.693475 
L 329.718515 -260.368564 
L 330.455159 -259.043653 
L 331.237347 -257.718743 
L 332.056156 -256.393832 
L 332.901546 -255.068922 
L 333.762899 -253.744011 
L 334.629613 -252.4191 
L 335.491698 -251.09419 
L 336.340311 -249.769279 
L 337.16818 -248.444369 
L 337.969877 -247.119458 
L 338.741917 -245.794547 
L 339.482683 -244.469637 
L 340.192196 -243.144726 
L 340.871783 -241.819816 
L 341.523683 -240.494905 
L 342.150665 -239.169994 
L 342.7557 -237.845084 
L 343.341741 -236.520173 
L 343.911611 -235.195263 
L 344.46802 -233.870352 
L 345.013654 -232.545441 
L 345.551314 -231.220531 
L 346.084042 -229.89562 
L 346.615166 -228.57071 
L 347.148246 -227.245799 
L 347.686865 -225.920888 
L 348.2343 -224.595978 
L 348.793059 -223.271067 
L 349.364365 -221.946157 
L 349.947635 -220.621246 
L 350.540024 -219.296335 
L 351.136114 -217.971425 
L 351.727786 -216.646514 
L 352.304328 -215.321604 
L 352.852779 -213.996693 
L 353.358499 -212.671782 
L 353.805924 -211.346872 
L 354.179458 -210.021961 
L 354.46442 -208.697051 
L 354.647978 -207.37214 
L 354.72 -206.047229 
L 354.673741 -204.722319 
L 354.50633 -203.397408 
L 354.219 -202.072498 
L 353.817058 -200.747587 
L 353.309577 -199.422676 
L 352.708849 -198.097766 
L 352.029619 -196.772855 
L 351.288169 -195.447945 
L 350.501314 -194.123034 
L 349.685377 -192.798123 
L 348.855242 -191.473213 
L 348.023538 -190.148302 
L 347.200022 -188.823392 
L 346.391221 -187.498481 
L 345.600327 -186.17357 
L 344.827379 -184.84866 
L 344.069679 -183.523749 
L 343.322412 -182.198839 
L 342.579401 -180.873928 
L 341.833924 -179.549017 
L 341.079521 -178.224107 
L 340.31072 -176.899196 
L 339.523616 -175.574286 
L 338.716283 -174.249375 
L 337.888978 -172.924464 
L 337.044155 -171.599554 
L 336.186288 -170.274643 
L 335.321558 -168.949733 
L 334.457432 -167.624822 
L 333.602175 -166.299911 
L 332.764359 -164.975001 
L 331.952386 -163.65009 
L 331.174073 -162.32518 
L 330.436312 -161.000269 
L 329.744818 -159.675358 
L 329.10397 -158.350448 
L 328.516745 -157.025537 
L 327.984717 -155.700627 
L 327.508143 -154.375716 
L 327.086077 -153.050805 
L 326.716543 -151.725895 
L 326.39671 -150.400984 
L 326.123095 -149.076074 
L 325.891754 -147.751163 
L 325.698467 -146.426252 
L 325.538907 -145.101342 
L 325.408787 -143.776431 
L 325.30398 -142.451521 
z
" style="stroke: #3f3f3f; stroke-width: 1.25"/>
    </defs>
    <g clip-path="url(#pf2ba36d7a5)">
     <use xlink:href="#mf83b5ed391" x="0" y="432" style="fill: #e1812c; stroke: #3f3f3f; stroke-width: 1.25"/>
    </g>
   </g>
   <g id="PolyCollection_5">
    <defs>
     <path id="m5fa12cd78e" d="M 414.410573 -62.64 
L 414.069427 -62.64 
L 414.0076 -65.694545 
L 413.931479 -68.749091 
L 413.840922 -71.803636 
L 413.737013 -74.858182 
L 413.622293 -77.912727 
L 413.500842 -80.967273 
L 413.37816 -84.021818 
L 413.260828 -87.076364 
L 413.155949 -90.130909 
L 413.070432 -93.185455 
L 413.010195 -96.24 
L 412.97942 -99.294545 
L 412.979954 -102.349091 
L 413.010944 -105.403636 
L 413.068773 -108.458182 
L 413.14726 -111.512727 
L 413.238093 -114.567273 
L 413.331384 -117.621818 
L 413.416251 -120.676364 
L 413.48133 -123.730909 
L 413.515157 -126.785455 
L 413.506402 -129.84 
L 413.443993 -132.894545 
L 413.317164 -135.949091 
L 413.115526 -139.003636 
L 412.82919 -142.058182 
L 412.449005 -145.112727 
L 411.966875 -148.167273 
L 411.376147 -151.221818 
L 410.671992 -154.276364 
L 409.851707 -157.330909 
L 408.914915 -160.385455 
L 407.86363 -163.44 
L 406.702233 -166.494545 
L 405.437429 -169.549091 
L 404.078295 -172.603636 
L 402.636479 -175.658182 
L 401.126624 -178.712727 
L 399.56695 -181.767273 
L 397.979904 -184.821818 
L 396.392663 -187.876364 
L 394.837263 -190.930909 
L 393.350149 -193.985455 
L 391.971008 -197.04 
L 390.74086 -200.094545 
L 389.699555 -203.149091 
L 388.882922 -206.203636 
L 388.319923 -209.258182 
L 388.030158 -212.312727 
L 388.02207 -215.367273 
L 388.292038 -218.421818 
L 388.824482 -221.476364 
L 389.592928 -224.530909 
L 390.561909 -227.585455 
L 391.689477 -230.64 
L 392.930075 -233.694545 
L 394.237498 -236.749091 
L 395.567702 -239.803636 
L 396.881238 -242.858182 
L 398.145165 -245.912727 
L 399.334334 -248.967273 
L 400.432008 -252.021818 
L 401.429852 -255.076364 
L 402.327353 -258.130909 
L 403.130764 -261.185455 
L 403.851697 -264.24 
L 404.505445 -267.294545 
L 405.109167 -270.349091 
L 405.680031 -273.403636 
L 406.233455 -276.458182 
L 406.781564 -279.512727 
L 407.332049 -282.567273 
L 407.887523 -285.621818 
L 408.445509 -288.676364 
L 408.999062 -291.730909 
L 409.537976 -294.785455 
L 410.050411 -297.84 
L 410.524721 -300.894545 
L 410.951198 -303.949091 
L 411.323479 -307.003636 
L 411.639409 -310.058182 
L 411.901239 -313.112727 
L 412.115165 -316.167273 
L 412.290323 -319.221818 
L 412.437423 -322.276364 
L 412.567275 -325.330909 
L 412.689447 -328.385455 
L 412.811252 -331.44 
L 412.937181 -334.494545 
L 413.068828 -337.549091 
L 413.205231 -340.603636 
L 413.343534 -343.658182 
L 413.479798 -346.712727 
L 413.609814 -349.767273 
L 413.729793 -352.821818 
L 413.836846 -355.876364 
L 413.929235 -358.930909 
L 414.006395 -361.985455 
L 414.068795 -365.04 
L 414.411205 -365.04 
L 414.411205 -365.04 
L 414.473605 -361.985455 
L 414.550765 -358.930909 
L 414.643154 -355.876364 
L 414.750207 -352.821818 
L 414.870186 -349.767273 
L 415.000202 -346.712727 
L 415.136466 -343.658182 
L 415.274769 -340.603636 
L 415.411172 -337.549091 
L 415.542819 -334.494545 
L 415.668748 -331.44 
L 415.790553 -328.385455 
L 415.912725 -325.330909 
L 416.042577 -322.276364 
L 416.189677 -319.221818 
L 416.364835 -316.167273 
L 416.578761 -313.112727 
L 416.840591 -310.058182 
L 417.156521 -307.003636 
L 417.528802 -303.949091 
L 417.955279 -300.894545 
L 418.429589 -297.84 
L 418.942024 -294.785455 
L 419.480938 -291.730909 
L 420.034491 -288.676364 
L 420.592477 -285.621818 
L 421.147951 -282.567273 
L 421.698436 -279.512727 
L 422.246545 -276.458182 
L 422.799969 -273.403636 
L 423.370833 -270.349091 
L 423.974555 -267.294545 
L 424.628303 -264.24 
L 425.349236 -261.185455 
L 426.152647 -258.130909 
L 427.050148 -255.076364 
L 428.047992 -252.021818 
L 429.145666 -248.967273 
L 430.334835 -245.912727 
L 431.598762 -242.858182 
L 432.912298 -239.803636 
L 434.242502 -236.749091 
L 435.549925 -233.694545 
L 436.790523 -230.64 
L 437.918091 -227.585455 
L 438.887072 -224.530909 
L 439.655518 -221.476364 
L 440.187962 -218.421818 
L 440.45793 -215.367273 
L 440.449842 -212.312727 
L 440.160077 -209.258182 
L 439.597078 -206.203636 
L 438.780445 -203.149091 
L 437.73914 -200.094545 
L 436.508992 -197.04 
L 435.129851 -193.985455 
L 433.642737 -190.930909 
L 432.087337 -187.876364 
L 430.500096 -184.821818 
L 428.91305 -181.767273 
L 427.353376 -178.712727 
L 425.843521 -175.658182 
L 424.401705 -172.603636 
L 423.042571 -169.549091 
L 421.777767 -166.494545 
L 420.61637 -163.44 
L 419.565085 -160.385455 
L 418.628293 -157.330909 
L 417.808008 -154.276364 
L 417.103853 -151.221818 
L 416.513125 -148.167273 
L 416.030995 -145.112727 
L 415.65081 -142.058182 
L 415.364474 -139.003636 
L 415.162836 -135.949091 
L 415.036007 -132.894545 
L 414.973598 -129.84 
L 414.964843 -126.785455 
L 414.99867 -123.730909 
L 415.063749 -120.676364 
L 415.148616 -117.621818 
L 415.241907 -114.567273 
L 415.33274 -111.512727 
L 415.411227 -108.458182 
L 415.469056 -105.403636 
L 415.500046 -102.349091 
L 415.50058 -99.294545 
L 415.469805 -96.24 
L 415.409568 -93.185455 
L 415.324051 -90.130909 
L 415.219172 -87.076364 
L 415.10184 -84.021818 
L 414.979158 -80.967273 
L 414.857707 -77.912727 
L 414.742987 -74.858182 
L 414.639078 -71.803636 
L 414.548521 -68.749091 
L 414.4724 -65.694545 
L 414.410573 -62.64 
z
" style="stroke: #3f3f3f; stroke-width: 1.25"/>
    </defs>
    <g clip-path="url(#pf2ba36d7a5)">
     <use xlink:href="#m5fa12cd78e" x="0" y="432" style="fill: #3274a1; stroke: #3f3f3f; stroke-width: 1.25"/>
    </g>
   </g>
   <g id="PolyCollection_6">
    <defs>
     <path id="m1b9eb110c4" d="M 474.304351 -140.078996 
L 473.215649 -140.078996 
L 473.040558 -141.55553 
L 472.82301 -143.032065 
L 472.557267 -144.508599 
L 472.238118 -145.985134 
L 471.861263 -147.461669 
L 471.423704 -148.938203 
L 470.924082 -150.414738 
L 470.362945 -151.891272 
L 469.742882 -153.367807 
L 469.068503 -154.844341 
L 468.346248 -156.320876 
L 467.58402 -157.79741 
L 466.790667 -159.273945 
L 465.975362 -160.75048 
L 465.146933 -162.227014 
L 464.313216 -163.703549 
L 463.480502 -165.180083 
L 462.653145 -166.656618 
L 461.833363 -168.133152 
L 461.02126 -169.609687 
L 460.215072 -171.086222 
L 459.411584 -172.562756 
L 458.606688 -174.039291 
L 457.796011 -175.515825 
L 456.975546 -176.99236 
L 456.142233 -178.468894 
L 455.294432 -179.945429 
L 454.432278 -181.421964 
L 453.557878 -182.898498 
L 452.675378 -184.375033 
L 451.790896 -185.851567 
L 450.91234 -187.328102 
L 450.049139 -188.804636 
L 449.211903 -190.281171 
L 448.412022 -191.757705 
L 447.661232 -193.23424 
L 446.971158 -194.710775 
L 446.352849 -196.187309 
L 445.816339 -197.663844 
L 445.37024 -199.140378 
L 445.021408 -200.616913 
L 444.774684 -202.093447 
L 444.632746 -203.569982 
L 444.596059 -205.046517 
L 444.662946 -206.523051 
L 444.829744 -207.999586 
L 445.091063 -209.47612 
L 445.440092 -210.952655 
L 445.868975 -212.429189 
L 446.369193 -213.905724 
L 446.931966 -215.382259 
L 447.548642 -216.858793 
L 448.211049 -218.335328 
L 448.911807 -219.811862 
L 449.64456 -221.288397 
L 450.404117 -222.764931 
L 451.18649 -224.241466 
L 451.988809 -225.718 
L 452.809134 -227.194535 
L 453.646158 -228.67107 
L 454.498853 -230.147604 
L 455.366086 -231.624139 
L 456.246259 -233.100673 
L 457.137015 -234.577208 
L 458.035049 -236.053742 
L 458.93605 -237.530277 
L 459.834776 -239.006812 
L 460.725256 -240.483346 
L 461.601083 -241.959881 
L 462.45577 -243.436415 
L 463.28312 -244.91295 
L 464.077572 -246.389484 
L 464.834498 -247.866019 
L 465.550409 -249.342554 
L 466.223087 -250.819088 
L 466.851608 -252.295623 
L 467.436291 -253.772157 
L 467.97856 -255.248692 
L 468.480751 -256.725226 
L 468.945869 -258.201761 
L 469.377322 -259.678295 
L 469.778644 -261.15483 
L 470.153241 -262.631365 
L 470.50416 -264.107899 
L 470.833918 -265.584434 
L 471.144396 -267.060968 
L 471.436799 -268.537503 
L 471.711694 -270.014037 
L 471.969107 -271.490572 
L 472.208671 -272.967107 
L 472.4298 -274.443641 
L 472.631872 -275.920176 
L 472.814389 -277.39671 
L 472.977119 -278.873245 
L 473.120178 -280.349779 
L 473.24408 -281.826314 
L 473.349725 -283.302849 
L 473.438357 -284.779383 
L 473.511495 -286.255918 
L 474.008505 -286.255918 
L 474.008505 -286.255918 
L 474.081643 -284.779383 
L 474.170275 -283.302849 
L 474.27592 -281.826314 
L 474.399822 -280.349779 
L 474.542881 -278.873245 
L 474.705611 -277.39671 
L 474.888128 -275.920176 
L 475.0902 -274.443641 
L 475.311329 -272.967107 
L 475.550893 -271.490572 
L 475.808306 -270.014037 
L 476.083201 -268.537503 
L 476.375604 -267.060968 
L 476.686082 -265.584434 
L 477.01584 -264.107899 
L 477.366759 -262.631365 
L 477.741356 -261.15483 
L 478.142678 -259.678295 
L 478.574131 -258.201761 
L 479.039249 -256.725226 
L 479.54144 -255.248692 
L 480.083709 -253.772157 
L 480.668392 -252.295623 
L 481.296913 -250.819088 
L 481.969591 -249.342554 
L 482.685502 -247.866019 
L 483.442428 -246.389484 
L 484.23688 -244.91295 
L 485.06423 -243.436415 
L 485.918917 -241.959881 
L 486.794744 -240.483346 
L 487.685224 -239.006812 
L 488.58395 -237.530277 
L 489.484951 -236.053742 
L 490.382985 -234.577208 
L 491.273741 -233.100673 
L 492.153914 -231.624139 
L 493.021147 -230.147604 
L 493.873842 -228.67107 
L 494.710866 -227.194535 
L 495.531191 -225.718 
L 496.33351 -224.241466 
L 497.115883 -222.764931 
L 497.87544 -221.288397 
L 498.608193 -219.811862 
L 499.308951 -218.335328 
L 499.971358 -216.858793 
L 500.588034 -215.382259 
L 501.150807 -213.905724 
L 501.651025 -212.429189 
L 502.079908 -210.952655 
L 502.428937 -209.47612 
L 502.690256 -207.999586 
L 502.857054 -206.523051 
L 502.923941 -205.046517 
L 502.887254 -203.569982 
L 502.745316 -202.093447 
L 502.498592 -200.616913 
L 502.14976 -199.140378 
L 501.703661 -197.663844 
L 501.167151 -196.187309 
L 500.548842 -194.710775 
L 499.858768 -193.23424 
L 499.107978 -191.757705 
L 498.308097 -190.281171 
L 497.470861 -188.804636 
L 496.60766 -187.328102 
L 495.729104 -185.851567 
L 494.844622 -184.375033 
L 493.962122 -182.898498 
L 493.087722 -181.421964 
L 492.225568 -179.945429 
L 491.377767 -178.468894 
L 490.544454 -176.99236 
L 489.723989 -175.515825 
L 488.913312 -174.039291 
L 488.108416 -172.562756 
L 487.304928 -171.086222 
L 486.49874 -169.609687 
L 485.686637 -168.133152 
L 484.866855 -166.656618 
L 484.039498 -165.180083 
L 483.206784 -163.703549 
L 482.373067 -162.227014 
L 481.544638 -160.75048 
L 480.729333 -159.273945 
L 479.93598 -157.79741 
L 479.173752 -156.320876 
L 478.451497 -154.844341 
L 477.777118 -153.367807 
L 477.157055 -151.891272 
L 476.595918 -150.414738 
L 476.096296 -148.938203 
L 475.658737 -147.461669 
L 475.281882 -145.985134 
L 474.962733 -144.508599 
L 474.69699 -143.032065 
L 474.479442 -141.55553 
L 474.304351 -140.078996 
z
" style="stroke: #3f3f3f; stroke-width: 1.25"/>
    </defs>
    <g clip-path="url(#pf2ba36d7a5)">
     <use xlink:href="#m1b9eb110c4" x="0" y="432" style="fill: #e1812c; stroke: #3f3f3f; stroke-width: 1.25"/>
    </g>
   </g>
   <g id="patch_3">
    <path d="M 146.4 331.447722 
L 146.4 331.447722 
L 146.4 331.447722 
L 146.4 331.447722 
z
" clip-path="url(#pf2ba36d7a5)" style="fill: #3274a1; stroke: #3f3f3f; stroke-width: 1.25; stroke-linejoin: miter"/>
   </g>
   <g id="patch_4">
    <path d="M 146.4 331.447722 
L 146.4 331.447722 
L 146.4 331.447722 
L 146.4 331.447722 
z
" clip-path="url(#pf2ba36d7a5)" style="fill: #e1812c; stroke: #3f3f3f; stroke-width: 1.25; stroke-linejoin: miter"/>
   </g>
   <g id="line2d_5">
    <path d="M 116.64 268.574737 
L 116.64 159.866811 
" clip-path="url(#pf2ba36d7a5)" style="fill: none; stroke: #3f3f3f; stroke-width: 1.875; stroke-linecap: round"/>
   </g>
   <g id="line2d_6">
    <path d="M 116.64 239.491235 
L 116.64 199.053904 
" clip-path="url(#pf2ba36d7a5)" style="fill: none; stroke: #3f3f3f; stroke-width: 5.625; stroke-linecap: round"/>
   </g>
   <g id="line2d_7">
    <path d="M 116.64 219.230246 
" clip-path="url(#pf2ba36d7a5)" style="fill: none; stroke: #3f3f3f; stroke-width: 1.5; stroke-linecap: round"/>
    <defs>
     <path id="m0070d6279c" d="M 2.34375 0 
L -2.34375 -0 
" style="stroke: #ffffff; stroke-width: 1.125"/>
    </defs>
    <g clip-path="url(#pf2ba36d7a5)">
     <use xlink:href="#m0070d6279c" x="116.64" y="219.230246" style="fill: #ffffff; stroke: #ffffff; stroke-width: 1.125"/>
    </g>
   </g>
   <g id="line2d_8">
    <path d="M 176.16 273.174418 
L 176.16 166.785722 
" clip-path="url(#pf2ba36d7a5)" style="fill: none; stroke: #3f3f3f; stroke-width: 1.875; stroke-linecap: round"/>
   </g>
   <g id="line2d_9">
    <path d="M 176.16 239.274653 
L 176.16 208.503312 
" clip-path="url(#pf2ba36d7a5)" style="fill: none; stroke: #3f3f3f; stroke-width: 5.625; stroke-linecap: round"/>
   </g>
   <g id="line2d_10">
    <path d="M 176.16 223.97587 
" clip-path="url(#pf2ba36d7a5)" style="fill: none; stroke: #3f3f3f; stroke-width: 1.5; stroke-linecap: round"/>
    <g clip-path="url(#pf2ba36d7a5)">
     <use xlink:href="#m0070d6279c" x="176.16" y="223.97587" style="fill: #ffffff; stroke: #ffffff; stroke-width: 1.125"/>
    </g>
   </g>
   <g id="line2d_11">
    <path d="M 265.44 267.664186 
L 265.44 146.254558 
" clip-path="url(#pf2ba36d7a5)" style="fill: none; stroke: #3f3f3f; stroke-width: 1.875; stroke-linecap: round"/>
   </g>
   <g id="line2d_12">
    <path d="M 265.44 236.678415 
L 265.44 189.858977 
" clip-path="url(#pf2ba36d7a5)" style="fill: none; stroke: #3f3f3f; stroke-width: 5.625; stroke-linecap: round"/>
   </g>
   <g id="line2d_13">
    <path d="M 265.44 217.564023 
" clip-path="url(#pf2ba36d7a5)" style="fill: none; stroke: #3f3f3f; stroke-width: 1.5; stroke-linecap: round"/>
    <g clip-path="url(#pf2ba36d7a5)">
     <use xlink:href="#m0070d6279c" x="265.44" y="217.564023" style="fill: #ffffff; stroke: #ffffff; stroke-width: 1.125"/>
    </g>
   </g>
   <g id="line2d_14">
    <path d="M 324.96 267.461046 
L 324.96 180.469763 
" clip-path="url(#pf2ba36d7a5)" style="fill: none; stroke: #3f3f3f; stroke-width: 1.875; stroke-linecap: round"/>
   </g>
   <g id="line2d_15">
    <path d="M 324.96 236.564669 
L 324.96 203.458488 
" clip-path="url(#pf2ba36d7a5)" style="fill: none; stroke: #3f3f3f; stroke-width: 5.625; stroke-linecap: round"/>
   </g>
   <g id="line2d_16">
    <path d="M 324.96 224.598976 
" clip-path="url(#pf2ba36d7a5)" style="fill: none; stroke: #3f3f3f; stroke-width: 1.5; stroke-linecap: round"/>
    <g clip-path="url(#pf2ba36d7a5)">
     <use xlink:href="#m0070d6279c" x="324.96" y="224.598976" style="fill: #ffffff; stroke: #ffffff; stroke-width: 1.125"/>
    </g>
   </g>
   <g id="line2d_17">
    <path d="M 414.24 265.522961 
L 414.24 142.517116 
" clip-path="url(#pf2ba36d7a5)" style="fill: none; stroke: #3f3f3f; stroke-width: 1.875; stroke-linecap: round"/>
   </g>
   <g id="line2d_18">
    <path d="M 414.24 228.802131 
L 414.24 193.875221 
" clip-path="url(#pf2ba36d7a5)" style="fill: none; stroke: #3f3f3f; stroke-width: 5.625; stroke-linecap: round"/>
   </g>
   <g id="line2d_19">
    <path d="M 414.24 214.757742 
" clip-path="url(#pf2ba36d7a5)" style="fill: none; stroke: #3f3f3f; stroke-width: 1.5; stroke-linecap: round"/>
    <g clip-path="url(#pf2ba36d7a5)">
     <use xlink:href="#m0070d6279c" x="414.24" y="214.757742" style="fill: #ffffff; stroke: #ffffff; stroke-width: 1.125"/>
    </g>
   </g>
   <g id="line2d_20">
    <path d="M 473.76 268.874462 
L 473.76 168.790625 
" clip-path="url(#pf2ba36d7a5)" style="fill: none; stroke: #3f3f3f; stroke-width: 1.875; stroke-linecap: round"/>
   </g>
   <g id="line2d_21">
    <path d="M 473.76 241.925361 
L 473.76 211.209169 
" clip-path="url(#pf2ba36d7a5)" style="fill: none; stroke: #3f3f3f; stroke-width: 5.625; stroke-linecap: round"/>
   </g>
   <g id="line2d_22">
    <path d="M 473.76 227.115321 
" clip-path="url(#pf2ba36d7a5)" style="fill: none; stroke: #3f3f3f; stroke-width: 1.5; stroke-linecap: round"/>
    <g clip-path="url(#pf2ba36d7a5)">
     <use xlink:href="#m0070d6279c" x="473.76" y="227.115321" style="fill: #ffffff; stroke: #ffffff; stroke-width: 1.125"/>
    </g>
   </g>
   <g id="patch_5">
    <path d="M 72 384.48 
L 72 51.84 
" style="fill: none; stroke: #cccccc; stroke-width: 0.8; stroke-linejoin: miter; stroke-linecap: square"/>
   </g>
   <g id="patch_6">
    <path d="M 518.4 384.48 
L 518.4 51.84 
" style="fill: none; stroke: #cccccc; stroke-width: 0.8; stroke-linejoin: miter; stroke-linecap: square"/>
   </g>
   <g id="patch_7">
    <path d="M 72 384.48 
L 518.4 384.48 
" style="fill: none; stroke: #cccccc; stroke-width: 0.8; stroke-linejoin: miter; stroke-linecap: square"/>
   </g>
   <g id="patch_8">
    <path d="M 72 51.84 
L 518.4 51.84 
" style="fill: none; stroke: #cccccc; stroke-width: 0.8; stroke-linejoin: miter; stroke-linecap: square"/>
   </g>
   <g id="legend_1">
    <g id="patch_9">
     <path d="M 456.6125 379.48 
L 511.4 379.48 
Q 513.4 379.48 513.4 377.48 
L 513.4 336.044062 
Q 513.4 334.044062 511.4 334.044062 
L 456.6125 334.044062 
Q 454.6125 334.044062 454.6125 336.044062 
L 454.6125 377.48 
Q 454.6125 379.48 456.6125 379.48 
z
" style="fill: #ffffff; opacity: 0.8; stroke: #cccccc; stroke-linejoin: miter"/>
    </g>
    <g id="text_10">
     <!-- Time -->
     <g style="fill: #262626" transform="translate(473.083594 345.201875) scale(0.1 -0.1)">
      <defs>
       <path id="ArialMT-54" d="M 1659 0 
L 1659 4041 
L 150 4041 
L 150 4581 
L 3781 4581 
L 3781 4041 
L 2266 4041 
L 2266 0 
L 1659 0 
z
" transform="scale(0.015625)"/>
      </defs>
      <use xlink:href="#ArialMT-54"/>
      <use xlink:href="#ArialMT-69" x="57.333984"/>
      <use xlink:href="#ArialMT-6d" x="79.550781"/>
      <use xlink:href="#ArialMT-65" x="162.851562"/>
     </g>
    </g>
    <g id="patch_10">
     <path d="M 458.6125 359.347188 
L 478.6125 359.347188 
L 478.6125 352.347188 
L 458.6125 352.347188 
z
" style="fill: #3274a1; stroke: #3f3f3f; stroke-width: 1.25; stroke-linejoin: miter"/>
    </g>
    <g id="text_11">
     <!-- initial -->
     <g style="fill: #262626" transform="translate(486.6125 359.347188) scale(0.1 -0.1)">
      <use xlink:href="#ArialMT-69"/>
      <use xlink:href="#ArialMT-6e" x="22.216797"/>
      <use xlink:href="#ArialMT-69" x="77.832031"/>
      <use xlink:href="#ArialMT-74" x="100.048828"/>
      <use xlink:href="#ArialMT-69" x="127.832031"/>
      <use xlink:href="#ArialMT-61" x="150.048828"/>
      <use xlink:href="#ArialMT-6c" x="205.664062"/>
     </g>
    </g>
    <g id="patch_11">
     <path d="M 458.6125 373.4925 
L 478.6125 373.4925 
L 478.6125 366.4925 
L 458.6125 366.4925 
z
" style="fill: #e1812c; stroke: #3f3f3f; stroke-width: 1.25; stroke-linejoin: miter"/>
    </g>
    <g id="text_12">
     <!-- final -->
     <g style="fill: #262626" transform="translate(486.6125 373.4925) scale(0.1 -0.1)">
      <use xlink:href="#ArialMT-66"/>
      <use xlink:href="#ArialMT-69" x="27.783203"/>
      <use xlink:href="#ArialMT-6e" x="50"/>
      <use xlink:href="#ArialMT-61" x="105.615234"/>
      <use xlink:href="#ArialMT-6c" x="161.230469"/>
     </g>
    </g>
   </g>
  </g>
 </g>
 <defs>
  <clipPath id="pf2ba36d7a5">
   <rect x="72" y="51.84" width="446.4" height="332.64"/>
  </clipPath>
 </defs>
</svg>
