<?xml version="1.0" encoding="utf-8" standalone="no"?>
<!DOCTYPE svg PUBLIC "-//W3C//DTD SVG 1.1//EN"
  "http://www.w3.org/Graphics/SVG/1.1/DTD/svg11.dtd">
<svg xmlns:xlink="http://www.w3.org/1999/xlink" width="576pt" height="432pt" viewBox="0 0 576 432" xmlns="http://www.w3.org/2000/svg" version="1.1">
 <metadata>
  <rdf:RDF xmlns:dc="http://purl.org/dc/elements/1.1/" xmlns:cc="http://creativecommons.org/ns#" xmlns:rdf="http://www.w3.org/1999/02/22-rdf-syntax-ns#">
   <cc:Work>
    <dc:type rdf:resource="http://purl.org/dc/dcmitype/StillImage"/>
    <dc:date>2024-09-09T17:20:22.017855</dc:date>
    <dc:format>image/svg+xml</dc:format>
    <dc:creator>
     <cc:Agent>
      <dc:title>Matplotlib v3.8.3, https://matplotlib.org/</dc:title>
     </cc:Agent>
    </dc:creator>
   </cc:Work>
  </rdf:RDF>
 </metadata>
 <defs>
  <style type="text/css">*{stroke-linejoin: round; stroke-linecap: butt}</style>
 </defs>
 <g id="figure_1">
  <g id="patch_1">
   <path d="M 0 432 
L 576 432 
L 576 0 
L 0 0 
z
" style="fill: #ffffff"/>
  </g>
  <g id="axes_1">
   <g id="patch_2">
    <path d="M 72 384.48 
L 518.4 384.48 
L 518.4 51.84 
L 72 51.84 
z
" style="fill: #ffffff"/>
   </g>
   <g id="matplotlib.axis_1">
    <g id="xtick_1">
     <g id="text_1">
      <!-- 1 -->
      <g style="fill: #262626" transform="translate(143.619531 398.637812) scale(0.1 -0.1)">
       <defs>
        <path id="ArialMT-31" d="M 2384 0 
L 1822 0 
L 1822 3584 
Q 1619 3391 1289 3197 
Q 959 3003 697 2906 
L 697 3450 
Q 1169 3672 1522 3987 
Q 1875 4303 2022 4600 
L 2384 4600 
L 2384 0 
z
" transform="scale(0.015625)"/>
       </defs>
       <use xlink:href="#ArialMT-31"/>
      </g>
     </g>
    </g>
    <g id="xtick_2">
     <g id="text_2">
      <!-- 2 -->
      <g style="fill: #262626" transform="translate(292.419531 398.637812) scale(0.1 -0.1)">
       <defs>
        <path id="ArialMT-32" d="M 3222 541 
L 3222 0 
L 194 0 
Q 188 203 259 391 
Q 375 700 629 1000 
Q 884 1300 1366 1694 
Q 2113 2306 2375 2664 
Q 2638 3022 2638 3341 
Q 2638 3675 2398 3904 
Q 2159 4134 1775 4134 
Q 1369 4134 1125 3890 
Q 881 3647 878 3216 
L 300 3275 
Q 359 3922 746 4261 
Q 1134 4600 1788 4600 
Q 2447 4600 2831 4234 
Q 3216 3869 3216 3328 
Q 3216 3053 3103 2787 
Q 2991 2522 2730 2228 
Q 2469 1934 1863 1422 
Q 1356 997 1212 845 
Q 1069 694 975 541 
L 3222 541 
z
" transform="scale(0.015625)"/>
       </defs>
       <use xlink:href="#ArialMT-32"/>
      </g>
     </g>
    </g>
    <g id="xtick_3">
     <g id="text_3">
      <!-- 3 -->
      <g style="fill: #262626" transform="translate(441.219531 398.637812) scale(0.1 -0.1)">
       <defs>
        <path id="ArialMT-33" d="M 269 1209 
L 831 1284 
Q 928 806 1161 595 
Q 1394 384 1728 384 
Q 2125 384 2398 659 
Q 2672 934 2672 1341 
Q 2672 1728 2419 1979 
Q 2166 2231 1775 2231 
Q 1616 2231 1378 2169 
L 1441 2663 
Q 1497 2656 1531 2656 
Q 1891 2656 2178 2843 
Q 2466 3031 2466 3422 
Q 2466 3731 2256 3934 
Q 2047 4138 1716 4138 
Q 1388 4138 1169 3931 
Q 950 3725 888 3313 
L 325 3413 
Q 428 3978 793 4289 
Q 1159 4600 1703 4600 
Q 2078 4600 2393 4439 
Q 2709 4278 2876 4000 
Q 3044 3722 3044 3409 
Q 3044 3113 2884 2869 
Q 2725 2625 2413 2481 
Q 2819 2388 3044 2092 
Q 3269 1797 3269 1353 
Q 3269 753 2831 336 
Q 2394 -81 1725 -81 
Q 1122 -81 723 278 
Q 325 638 269 1209 
z
" transform="scale(0.015625)"/>
       </defs>
       <use xlink:href="#ArialMT-33"/>
      </g>
     </g>
    </g>
    <g id="text_4">
     <!-- Effort level -->
     <g style="fill: #262626" transform="translate(271.667969 411.783125) scale(0.1 -0.1)">
      <defs>
       <path id="ArialMT-45" d="M 506 0 
L 506 4581 
L 3819 4581 
L 3819 4041 
L 1113 4041 
L 1113 2638 
L 3647 2638 
L 3647 2100 
L 1113 2100 
L 1113 541 
L 3925 541 
L 3925 0 
L 506 0 
z
" transform="scale(0.015625)"/>
       <path id="ArialMT-66" d="M 556 0 
L 556 2881 
L 59 2881 
L 59 3319 
L 556 3319 
L 556 3672 
Q 556 4006 616 4169 
Q 697 4388 901 4523 
Q 1106 4659 1475 4659 
Q 1713 4659 2000 4603 
L 1916 4113 
Q 1741 4144 1584 4144 
Q 1328 4144 1222 4034 
Q 1116 3925 1116 3625 
L 1116 3319 
L 1763 3319 
L 1763 2881 
L 1116 2881 
L 1116 0 
L 556 0 
z
" transform="scale(0.015625)"/>
       <path id="ArialMT-6f" d="M 213 1659 
Q 213 2581 725 3025 
Q 1153 3394 1769 3394 
Q 2453 3394 2887 2945 
Q 3322 2497 3322 1706 
Q 3322 1066 3130 698 
Q 2938 331 2570 128 
Q 2203 -75 1769 -75 
Q 1072 -75 642 372 
Q 213 819 213 1659 
z
M 791 1659 
Q 791 1022 1069 705 
Q 1347 388 1769 388 
Q 2188 388 2466 706 
Q 2744 1025 2744 1678 
Q 2744 2294 2464 2611 
Q 2184 2928 1769 2928 
Q 1347 2928 1069 2612 
Q 791 2297 791 1659 
z
" transform="scale(0.015625)"/>
       <path id="ArialMT-72" d="M 416 0 
L 416 3319 
L 922 3319 
L 922 2816 
Q 1116 3169 1280 3281 
Q 1444 3394 1641 3394 
Q 1925 3394 2219 3213 
L 2025 2691 
Q 1819 2813 1613 2813 
Q 1428 2813 1281 2702 
Q 1134 2591 1072 2394 
Q 978 2094 978 1738 
L 978 0 
L 416 0 
z
" transform="scale(0.015625)"/>
       <path id="ArialMT-74" d="M 1650 503 
L 1731 6 
Q 1494 -44 1306 -44 
Q 1000 -44 831 53 
Q 663 150 594 308 
Q 525 466 525 972 
L 525 2881 
L 113 2881 
L 113 3319 
L 525 3319 
L 525 4141 
L 1084 4478 
L 1084 3319 
L 1650 3319 
L 1650 2881 
L 1084 2881 
L 1084 941 
Q 1084 700 1114 631 
Q 1144 563 1211 522 
Q 1278 481 1403 481 
Q 1497 481 1650 503 
z
" transform="scale(0.015625)"/>
       <path id="ArialMT-20" transform="scale(0.015625)"/>
       <path id="ArialMT-6c" d="M 409 0 
L 409 4581 
L 972 4581 
L 972 0 
L 409 0 
z
" transform="scale(0.015625)"/>
       <path id="ArialMT-65" d="M 2694 1069 
L 3275 997 
Q 3138 488 2766 206 
Q 2394 -75 1816 -75 
Q 1088 -75 661 373 
Q 234 822 234 1631 
Q 234 2469 665 2931 
Q 1097 3394 1784 3394 
Q 2450 3394 2872 2941 
Q 3294 2488 3294 1666 
Q 3294 1616 3291 1516 
L 816 1516 
Q 847 969 1125 678 
Q 1403 388 1819 388 
Q 2128 388 2347 550 
Q 2566 713 2694 1069 
z
M 847 1978 
L 2700 1978 
Q 2663 2397 2488 2606 
Q 2219 2931 1791 2931 
Q 1403 2931 1139 2672 
Q 875 2413 847 1978 
z
" transform="scale(0.015625)"/>
       <path id="ArialMT-76" d="M 1344 0 
L 81 3319 
L 675 3319 
L 1388 1331 
Q 1503 1009 1600 663 
Q 1675 925 1809 1294 
L 2547 3319 
L 3125 3319 
L 1869 0 
L 1344 0 
z
" transform="scale(0.015625)"/>
      </defs>
      <use xlink:href="#ArialMT-45"/>
      <use xlink:href="#ArialMT-66" x="66.699219"/>
      <use xlink:href="#ArialMT-66" x="92.732422"/>
      <use xlink:href="#ArialMT-6f" x="120.515625"/>
      <use xlink:href="#ArialMT-72" x="176.130859"/>
      <use xlink:href="#ArialMT-74" x="209.431641"/>
      <use xlink:href="#ArialMT-20" x="237.214844"/>
      <use xlink:href="#ArialMT-6c" x="264.998047"/>
      <use xlink:href="#ArialMT-65" x="287.214844"/>
      <use xlink:href="#ArialMT-76" x="342.830078"/>
      <use xlink:href="#ArialMT-65" x="392.830078"/>
      <use xlink:href="#ArialMT-6c" x="448.445312"/>
     </g>
    </g>
   </g>
   <g id="matplotlib.axis_2">
    <g id="ytick_1">
     <g id="line2d_1">
      <path d="M 72 375.826967 
L 518.4 375.826967 
" clip-path="url(#p00c71420d3)" style="fill: none; stroke: #cccccc; stroke-width: 0.8; stroke-linecap: round"/>
     </g>
     <g id="text_5">
      <!-- −0.25 -->
      <g style="fill: #262626" transform="translate(39.698437 379.405873) scale(0.1 -0.1)">
       <defs>
        <path id="ArialMT-2212" d="M 3381 1997 
L 356 1997 
L 356 2522 
L 3381 2522 
L 3381 1997 
z
" transform="scale(0.015625)"/>
        <path id="ArialMT-30" d="M 266 2259 
Q 266 3072 433 3567 
Q 600 4063 929 4331 
Q 1259 4600 1759 4600 
Q 2128 4600 2406 4451 
Q 2684 4303 2865 4023 
Q 3047 3744 3150 3342 
Q 3253 2941 3253 2259 
Q 3253 1453 3087 958 
Q 2922 463 2592 192 
Q 2263 -78 1759 -78 
Q 1097 -78 719 397 
Q 266 969 266 2259 
z
M 844 2259 
Q 844 1131 1108 757 
Q 1372 384 1759 384 
Q 2147 384 2411 759 
Q 2675 1134 2675 2259 
Q 2675 3391 2411 3762 
Q 2147 4134 1753 4134 
Q 1366 4134 1134 3806 
Q 844 3388 844 2259 
z
" transform="scale(0.015625)"/>
        <path id="ArialMT-2e" d="M 581 0 
L 581 641 
L 1222 641 
L 1222 0 
L 581 0 
z
" transform="scale(0.015625)"/>
        <path id="ArialMT-35" d="M 266 1200 
L 856 1250 
Q 922 819 1161 601 
Q 1400 384 1738 384 
Q 2144 384 2425 690 
Q 2706 997 2706 1503 
Q 2706 1984 2436 2262 
Q 2166 2541 1728 2541 
Q 1456 2541 1237 2417 
Q 1019 2294 894 2097 
L 366 2166 
L 809 4519 
L 3088 4519 
L 3088 3981 
L 1259 3981 
L 1013 2750 
Q 1425 3038 1878 3038 
Q 2478 3038 2890 2622 
Q 3303 2206 3303 1553 
Q 3303 931 2941 478 
Q 2500 -78 1738 -78 
Q 1113 -78 717 272 
Q 322 622 266 1200 
z
" transform="scale(0.015625)"/>
       </defs>
       <use xlink:href="#ArialMT-2212"/>
       <use xlink:href="#ArialMT-30" x="58.398438"/>
       <use xlink:href="#ArialMT-2e" x="114.013672"/>
       <use xlink:href="#ArialMT-32" x="141.796875"/>
       <use xlink:href="#ArialMT-35" x="197.412109"/>
      </g>
     </g>
    </g>
    <g id="ytick_2">
     <g id="line2d_2">
      <path d="M 72 335.107231 
L 518.4 335.107231 
" clip-path="url(#p00c71420d3)" style="fill: none; stroke: #cccccc; stroke-width: 0.8; stroke-linecap: round"/>
     </g>
     <g id="text_6">
      <!-- 0.00 -->
      <g style="fill: #262626" transform="translate(45.539062 338.686137) scale(0.1 -0.1)">
       <use xlink:href="#ArialMT-30"/>
       <use xlink:href="#ArialMT-2e" x="55.615234"/>
       <use xlink:href="#ArialMT-30" x="83.398438"/>
       <use xlink:href="#ArialMT-30" x="139.013672"/>
      </g>
     </g>
    </g>
    <g id="ytick_3">
     <g id="line2d_3">
      <path d="M 72 294.387494 
L 518.4 294.387494 
" clip-path="url(#p00c71420d3)" style="fill: none; stroke: #cccccc; stroke-width: 0.8; stroke-linecap: round"/>
     </g>
     <g id="text_7">
      <!-- 0.25 -->
      <g style="fill: #262626" transform="translate(45.539062 297.966401) scale(0.1 -0.1)">
       <use xlink:href="#ArialMT-30"/>
       <use xlink:href="#ArialMT-2e" x="55.615234"/>
       <use xlink:href="#ArialMT-32" x="83.398438"/>
       <use xlink:href="#ArialMT-35" x="139.013672"/>
      </g>
     </g>
    </g>
    <g id="ytick_4">
     <g id="line2d_4">
      <path d="M 72 253.667758 
L 518.4 253.667758 
" clip-path="url(#p00c71420d3)" style="fill: none; stroke: #cccccc; stroke-width: 0.8; stroke-linecap: round"/>
     </g>
     <g id="text_8">
      <!-- 0.50 -->
      <g style="fill: #262626" transform="translate(45.539062 257.246664) scale(0.1 -0.1)">
       <use xlink:href="#ArialMT-30"/>
       <use xlink:href="#ArialMT-2e" x="55.615234"/>
       <use xlink:href="#ArialMT-35" x="83.398438"/>
       <use xlink:href="#ArialMT-30" x="139.013672"/>
      </g>
     </g>
    </g>
    <g id="ytick_5">
     <g id="line2d_5">
      <path d="M 72 212.948022 
L 518.4 212.948022 
" clip-path="url(#p00c71420d3)" style="fill: none; stroke: #cccccc; stroke-width: 0.8; stroke-linecap: round"/>
     </g>
     <g id="text_9">
      <!-- 0.75 -->
      <g style="fill: #262626" transform="translate(45.539062 216.526928) scale(0.1 -0.1)">
       <defs>
        <path id="ArialMT-37" d="M 303 3981 
L 303 4522 
L 3269 4522 
L 3269 4084 
Q 2831 3619 2401 2847 
Q 1972 2075 1738 1259 
Q 1569 684 1522 0 
L 944 0 
Q 953 541 1156 1306 
Q 1359 2072 1739 2783 
Q 2119 3494 2547 3981 
L 303 3981 
z
" transform="scale(0.015625)"/>
       </defs>
       <use xlink:href="#ArialMT-30"/>
       <use xlink:href="#ArialMT-2e" x="55.615234"/>
       <use xlink:href="#ArialMT-37" x="83.398438"/>
       <use xlink:href="#ArialMT-35" x="139.013672"/>
      </g>
     </g>
    </g>
    <g id="ytick_6">
     <g id="line2d_6">
      <path d="M 72 172.228285 
L 518.4 172.228285 
" clip-path="url(#p00c71420d3)" style="fill: none; stroke: #cccccc; stroke-width: 0.8; stroke-linecap: round"/>
     </g>
     <g id="text_10">
      <!-- 1.00 -->
      <g style="fill: #262626" transform="translate(45.539062 175.807192) scale(0.1 -0.1)">
       <use xlink:href="#ArialMT-31"/>
       <use xlink:href="#ArialMT-2e" x="55.615234"/>
       <use xlink:href="#ArialMT-30" x="83.398438"/>
       <use xlink:href="#ArialMT-30" x="139.013672"/>
      </g>
     </g>
    </g>
    <g id="ytick_7">
     <g id="line2d_7">
      <path d="M 72 131.508549 
L 518.4 131.508549 
" clip-path="url(#p00c71420d3)" style="fill: none; stroke: #cccccc; stroke-width: 0.8; stroke-linecap: round"/>
     </g>
     <g id="text_11">
      <!-- 1.25 -->
      <g style="fill: #262626" transform="translate(45.539062 135.087455) scale(0.1 -0.1)">
       <use xlink:href="#ArialMT-31"/>
       <use xlink:href="#ArialMT-2e" x="55.615234"/>
       <use xlink:href="#ArialMT-32" x="83.398438"/>
       <use xlink:href="#ArialMT-35" x="139.013672"/>
      </g>
     </g>
    </g>
    <g id="ytick_8">
     <g id="line2d_8">
      <path d="M 72 90.788813 
L 518.4 90.788813 
" clip-path="url(#p00c71420d3)" style="fill: none; stroke: #cccccc; stroke-width: 0.8; stroke-linecap: round"/>
     </g>
     <g id="text_12">
      <!-- 1.50 -->
      <g style="fill: #262626" transform="translate(45.539062 94.367719) scale(0.1 -0.1)">
       <use xlink:href="#ArialMT-31"/>
       <use xlink:href="#ArialMT-2e" x="55.615234"/>
       <use xlink:href="#ArialMT-35" x="83.398438"/>
       <use xlink:href="#ArialMT-30" x="139.013672"/>
      </g>
     </g>
    </g>
    <g id="text_13">
     <!-- Respiratory exchange ratio -->
     <g style="fill: #262626" transform="translate(33.59375 277.909219) rotate(-90) scale(0.1 -0.1)">
      <defs>
       <path id="ArialMT-52" d="M 503 0 
L 503 4581 
L 2534 4581 
Q 3147 4581 3465 4457 
Q 3784 4334 3975 4021 
Q 4166 3709 4166 3331 
Q 4166 2844 3850 2509 
Q 3534 2175 2875 2084 
Q 3116 1969 3241 1856 
Q 3506 1613 3744 1247 
L 4541 0 
L 3778 0 
L 3172 953 
Q 2906 1366 2734 1584 
Q 2563 1803 2427 1890 
Q 2291 1978 2150 2013 
Q 2047 2034 1813 2034 
L 1109 2034 
L 1109 0 
L 503 0 
z
M 1109 2559 
L 2413 2559 
Q 2828 2559 3062 2645 
Q 3297 2731 3419 2920 
Q 3541 3109 3541 3331 
Q 3541 3656 3305 3865 
Q 3069 4075 2559 4075 
L 1109 4075 
L 1109 2559 
z
" transform="scale(0.015625)"/>
       <path id="ArialMT-73" d="M 197 991 
L 753 1078 
Q 800 744 1014 566 
Q 1228 388 1613 388 
Q 2000 388 2187 545 
Q 2375 703 2375 916 
Q 2375 1106 2209 1216 
Q 2094 1291 1634 1406 
Q 1016 1563 777 1677 
Q 538 1791 414 1992 
Q 291 2194 291 2438 
Q 291 2659 392 2848 
Q 494 3038 669 3163 
Q 800 3259 1026 3326 
Q 1253 3394 1513 3394 
Q 1903 3394 2198 3281 
Q 2494 3169 2634 2976 
Q 2775 2784 2828 2463 
L 2278 2388 
Q 2241 2644 2061 2787 
Q 1881 2931 1553 2931 
Q 1166 2931 1000 2803 
Q 834 2675 834 2503 
Q 834 2394 903 2306 
Q 972 2216 1119 2156 
Q 1203 2125 1616 2013 
Q 2213 1853 2448 1751 
Q 2684 1650 2818 1456 
Q 2953 1263 2953 975 
Q 2953 694 2789 445 
Q 2625 197 2315 61 
Q 2006 -75 1616 -75 
Q 969 -75 630 194 
Q 291 463 197 991 
z
" transform="scale(0.015625)"/>
       <path id="ArialMT-70" d="M 422 -1272 
L 422 3319 
L 934 3319 
L 934 2888 
Q 1116 3141 1344 3267 
Q 1572 3394 1897 3394 
Q 2322 3394 2647 3175 
Q 2972 2956 3137 2557 
Q 3303 2159 3303 1684 
Q 3303 1175 3120 767 
Q 2938 359 2589 142 
Q 2241 -75 1856 -75 
Q 1575 -75 1351 44 
Q 1128 163 984 344 
L 984 -1272 
L 422 -1272 
z
M 931 1641 
Q 931 1000 1190 694 
Q 1450 388 1819 388 
Q 2194 388 2461 705 
Q 2728 1022 2728 1688 
Q 2728 2322 2467 2637 
Q 2206 2953 1844 2953 
Q 1484 2953 1207 2617 
Q 931 2281 931 1641 
z
" transform="scale(0.015625)"/>
       <path id="ArialMT-69" d="M 425 3934 
L 425 4581 
L 988 4581 
L 988 3934 
L 425 3934 
z
M 425 0 
L 425 3319 
L 988 3319 
L 988 0 
L 425 0 
z
" transform="scale(0.015625)"/>
       <path id="ArialMT-61" d="M 2588 409 
Q 2275 144 1986 34 
Q 1697 -75 1366 -75 
Q 819 -75 525 192 
Q 231 459 231 875 
Q 231 1119 342 1320 
Q 453 1522 633 1644 
Q 813 1766 1038 1828 
Q 1203 1872 1538 1913 
Q 2219 1994 2541 2106 
Q 2544 2222 2544 2253 
Q 2544 2597 2384 2738 
Q 2169 2928 1744 2928 
Q 1347 2928 1158 2789 
Q 969 2650 878 2297 
L 328 2372 
Q 403 2725 575 2942 
Q 747 3159 1072 3276 
Q 1397 3394 1825 3394 
Q 2250 3394 2515 3294 
Q 2781 3194 2906 3042 
Q 3031 2891 3081 2659 
Q 3109 2516 3109 2141 
L 3109 1391 
Q 3109 606 3145 398 
Q 3181 191 3288 0 
L 2700 0 
Q 2613 175 2588 409 
z
M 2541 1666 
Q 2234 1541 1622 1453 
Q 1275 1403 1131 1340 
Q 988 1278 909 1158 
Q 831 1038 831 891 
Q 831 666 1001 516 
Q 1172 366 1500 366 
Q 1825 366 2078 508 
Q 2331 650 2450 897 
Q 2541 1088 2541 1459 
L 2541 1666 
z
" transform="scale(0.015625)"/>
       <path id="ArialMT-79" d="M 397 -1278 
L 334 -750 
Q 519 -800 656 -800 
Q 844 -800 956 -737 
Q 1069 -675 1141 -563 
Q 1194 -478 1313 -144 
Q 1328 -97 1363 -6 
L 103 3319 
L 709 3319 
L 1400 1397 
Q 1534 1031 1641 628 
Q 1738 1016 1872 1384 
L 2581 3319 
L 3144 3319 
L 1881 -56 
Q 1678 -603 1566 -809 
Q 1416 -1088 1222 -1217 
Q 1028 -1347 759 -1347 
Q 597 -1347 397 -1278 
z
" transform="scale(0.015625)"/>
       <path id="ArialMT-78" d="M 47 0 
L 1259 1725 
L 138 3319 
L 841 3319 
L 1350 2541 
Q 1494 2319 1581 2169 
Q 1719 2375 1834 2534 
L 2394 3319 
L 3066 3319 
L 1919 1756 
L 3153 0 
L 2463 0 
L 1781 1031 
L 1600 1309 
L 728 0 
L 47 0 
z
" transform="scale(0.015625)"/>
       <path id="ArialMT-63" d="M 2588 1216 
L 3141 1144 
Q 3050 572 2676 248 
Q 2303 -75 1759 -75 
Q 1078 -75 664 370 
Q 250 816 250 1647 
Q 250 2184 428 2587 
Q 606 2991 970 3192 
Q 1334 3394 1763 3394 
Q 2303 3394 2647 3120 
Q 2991 2847 3088 2344 
L 2541 2259 
Q 2463 2594 2264 2762 
Q 2066 2931 1784 2931 
Q 1359 2931 1093 2626 
Q 828 2322 828 1663 
Q 828 994 1084 691 
Q 1341 388 1753 388 
Q 2084 388 2306 591 
Q 2528 794 2588 1216 
z
" transform="scale(0.015625)"/>
       <path id="ArialMT-68" d="M 422 0 
L 422 4581 
L 984 4581 
L 984 2938 
Q 1378 3394 1978 3394 
Q 2347 3394 2619 3248 
Q 2891 3103 3008 2847 
Q 3125 2591 3125 2103 
L 3125 0 
L 2563 0 
L 2563 2103 
Q 2563 2525 2380 2717 
Q 2197 2909 1863 2909 
Q 1613 2909 1392 2779 
Q 1172 2650 1078 2428 
Q 984 2206 984 1816 
L 984 0 
L 422 0 
z
" transform="scale(0.015625)"/>
       <path id="ArialMT-6e" d="M 422 0 
L 422 3319 
L 928 3319 
L 928 2847 
Q 1294 3394 1984 3394 
Q 2284 3394 2536 3286 
Q 2788 3178 2913 3003 
Q 3038 2828 3088 2588 
Q 3119 2431 3119 2041 
L 3119 0 
L 2556 0 
L 2556 2019 
Q 2556 2363 2490 2533 
Q 2425 2703 2258 2804 
Q 2091 2906 1866 2906 
Q 1506 2906 1245 2678 
Q 984 2450 984 1813 
L 984 0 
L 422 0 
z
" transform="scale(0.015625)"/>
       <path id="ArialMT-67" d="M 319 -275 
L 866 -356 
Q 900 -609 1056 -725 
Q 1266 -881 1628 -881 
Q 2019 -881 2231 -725 
Q 2444 -569 2519 -288 
Q 2563 -116 2559 434 
Q 2191 0 1641 0 
Q 956 0 581 494 
Q 206 988 206 1678 
Q 206 2153 378 2554 
Q 550 2956 876 3175 
Q 1203 3394 1644 3394 
Q 2231 3394 2613 2919 
L 2613 3319 
L 3131 3319 
L 3131 450 
Q 3131 -325 2973 -648 
Q 2816 -972 2473 -1159 
Q 2131 -1347 1631 -1347 
Q 1038 -1347 672 -1080 
Q 306 -813 319 -275 
z
M 784 1719 
Q 784 1066 1043 766 
Q 1303 466 1694 466 
Q 2081 466 2343 764 
Q 2606 1063 2606 1700 
Q 2606 2309 2336 2618 
Q 2066 2928 1684 2928 
Q 1309 2928 1046 2623 
Q 784 2319 784 1719 
z
" transform="scale(0.015625)"/>
      </defs>
      <use xlink:href="#ArialMT-52"/>
      <use xlink:href="#ArialMT-65" x="72.216797"/>
      <use xlink:href="#ArialMT-73" x="127.832031"/>
      <use xlink:href="#ArialMT-70" x="177.832031"/>
      <use xlink:href="#ArialMT-69" x="233.447266"/>
      <use xlink:href="#ArialMT-72" x="255.664062"/>
      <use xlink:href="#ArialMT-61" x="288.964844"/>
      <use xlink:href="#ArialMT-74" x="344.580078"/>
      <use xlink:href="#ArialMT-6f" x="372.363281"/>
      <use xlink:href="#ArialMT-72" x="427.978516"/>
      <use xlink:href="#ArialMT-79" x="461.279297"/>
      <use xlink:href="#ArialMT-20" x="511.279297"/>
      <use xlink:href="#ArialMT-65" x="539.0625"/>
      <use xlink:href="#ArialMT-78" x="594.677734"/>
      <use xlink:href="#ArialMT-63" x="644.677734"/>
      <use xlink:href="#ArialMT-68" x="694.677734"/>
      <use xlink:href="#ArialMT-61" x="750.292969"/>
      <use xlink:href="#ArialMT-6e" x="805.908203"/>
      <use xlink:href="#ArialMT-67" x="861.523438"/>
      <use xlink:href="#ArialMT-65" x="917.138672"/>
      <use xlink:href="#ArialMT-20" x="972.753906"/>
      <use xlink:href="#ArialMT-72" x="1000.537109"/>
      <use xlink:href="#ArialMT-61" x="1033.837891"/>
      <use xlink:href="#ArialMT-74" x="1089.453125"/>
      <use xlink:href="#ArialMT-69" x="1117.236328"/>
      <use xlink:href="#ArialMT-6f" x="1139.453125"/>
     </g>
    </g>
   </g>
   <g id="PolyCollection_1">
    <defs>
     <path id="m08e1b736f5" d="M 117.121152 -203.144325 
L 116.158848 -203.144325 
L 115.997876 -204.664226 
L 115.795375 -206.184127 
L 115.544755 -207.704028 
L 115.239556 -209.223929 
L 114.873783 -210.74383 
L 114.442258 -212.263731 
L 113.940971 -213.783632 
L 113.367368 -215.303533 
L 112.720578 -216.823434 
L 112.001515 -218.343335 
L 111.212856 -219.863236 
L 110.35888 -221.383137 
L 109.445181 -222.903038 
L 108.478287 -224.422939 
L 107.465221 -225.94284 
L 106.413062 -227.462741 
L 105.328567 -228.982642 
L 104.217897 -230.502543 
L 103.086497 -232.022444 
L 101.939147 -233.542345 
L 100.780181 -235.062246 
L 99.613855 -236.582147 
L 98.444799 -238.102048 
L 97.278501 -239.621949 
L 96.121745 -241.14185 
L 94.982917 -242.661751 
L 93.872122 -244.181652 
L 92.801086 -245.701552 
L 91.782796 -247.221453 
L 90.830932 -248.741354 
L 89.959126 -250.261255 
L 89.180125 -251.781156 
L 88.504965 -253.301057 
L 87.942239 -254.820958 
L 87.497573 -256.340859 
L 87.173349 -257.86076 
L 86.968735 -259.380661 
L 86.88 -260.900562 
L 86.901084 -262.420463 
L 87.024342 -263.940364 
L 87.241365 -265.460265 
L 87.54378 -266.980166 
L 87.923926 -268.500067 
L 88.375332 -270.019968 
L 88.892951 -271.539869 
L 89.473141 -273.05977 
L 90.113404 -274.579671 
L 90.811946 -276.099572 
L 91.567125 -277.619473 
L 92.376855 -279.139374 
L 93.238054 -280.659275 
L 94.146199 -282.179176 
L 95.095028 -283.699077 
L 96.076435 -285.218978 
L 97.080554 -286.738879 
L 98.096032 -288.25878 
L 99.11048 -289.778681 
L 100.111048 -291.298582 
L 101.085098 -292.818483 
L 102.02092 -294.338384 
L 102.908427 -295.858285 
L 103.73977 -297.378186 
L 104.509818 -298.898087 
L 105.216436 -300.417988 
L 105.860541 -301.937889 
L 106.445903 -303.457789 
L 106.978703 -304.97769 
L 107.466897 -306.497591 
L 107.919436 -308.017492 
L 108.34544 -309.537393 
L 108.753408 -311.057294 
L 109.150557 -312.577195 
L 109.54236 -314.097096 
L 109.932321 -315.616997 
L 110.322002 -317.136898 
L 110.711255 -318.656799 
L 111.098627 -320.1767 
L 111.481842 -321.696601 
L 111.858294 -323.216502 
L 112.225472 -324.736403 
L 112.581265 -326.256304 
L 112.924137 -327.776205 
L 113.25314 -329.296106 
L 113.56783 -330.816007 
L 113.868094 -332.335908 
L 114.153958 -333.855809 
L 114.425403 -335.37571 
L 114.682237 -336.895611 
L 114.924042 -338.415512 
L 115.150183 -339.935413 
L 115.359889 -341.455314 
L 115.552371 -342.975215 
L 115.726959 -344.495116 
L 115.883222 -346.015017 
L 116.021072 -347.534918 
L 116.140809 -349.054819 
L 116.243138 -350.57472 
L 116.329127 -352.094621 
L 116.400147 -353.614522 
L 116.879853 -353.614522 
L 116.879853 -353.614522 
L 116.950873 -352.094621 
L 117.036862 -350.57472 
L 117.139191 -349.054819 
L 117.258928 -347.534918 
L 117.396778 -346.015017 
L 117.553041 -344.495116 
L 117.727629 -342.975215 
L 117.920111 -341.455314 
L 118.129817 -339.935413 
L 118.355958 -338.415512 
L 118.597763 -336.895611 
L 118.854597 -335.37571 
L 119.126042 -333.855809 
L 119.411906 -332.335908 
L 119.71217 -330.816007 
L 120.02686 -329.296106 
L 120.355863 -327.776205 
L 120.698735 -326.256304 
L 121.054528 -324.736403 
L 121.421706 -323.216502 
L 121.798158 -321.696601 
L 122.181373 -320.1767 
L 122.568745 -318.656799 
L 122.957998 -317.136898 
L 123.347679 -315.616997 
L 123.73764 -314.097096 
L 124.129443 -312.577195 
L 124.526592 -311.057294 
L 124.93456 -309.537393 
L 125.360564 -308.017492 
L 125.813103 -306.497591 
L 126.301297 -304.97769 
L 126.834097 -303.457789 
L 127.419459 -301.937889 
L 128.063564 -300.417988 
L 128.770182 -298.898087 
L 129.54023 -297.378186 
L 130.371573 -295.858285 
L 131.25908 -294.338384 
L 132.194902 -292.818483 
L 133.168952 -291.298582 
L 134.16952 -289.778681 
L 135.183968 -288.25878 
L 136.199446 -286.738879 
L 137.203565 -285.218978 
L 138.184972 -283.699077 
L 139.133801 -282.179176 
L 140.041946 -280.659275 
L 140.903145 -279.139374 
L 141.712875 -277.619473 
L 142.468054 -276.099572 
L 143.166596 -274.579671 
L 143.806859 -273.05977 
L 144.387049 -271.539869 
L 144.904668 -270.019968 
L 145.356074 -268.500067 
L 145.73622 -266.980166 
L 146.038635 -265.460265 
L 146.255658 -263.940364 
L 146.378916 -262.420463 
L 146.4 -260.900562 
L 146.311265 -259.380661 
L 146.106651 -257.86076 
L 145.782427 -256.340859 
L 145.337761 -254.820958 
L 144.775035 -253.301057 
L 144.099875 -251.781156 
L 143.320874 -250.261255 
L 142.449068 -248.741354 
L 141.497204 -247.221453 
L 140.478914 -245.701552 
L 139.407878 -244.181652 
L 138.297083 -242.661751 
L 137.158255 -241.14185 
L 136.001499 -239.621949 
L 134.835201 -238.102048 
L 133.666145 -236.582147 
L 132.499819 -235.062246 
L 131.340853 -233.542345 
L 130.193503 -232.022444 
L 129.062103 -230.502543 
L 127.951433 -228.982642 
L 126.866938 -227.462741 
L 125.814779 -225.94284 
L 124.801713 -224.422939 
L 123.834819 -222.903038 
L 122.92112 -221.383137 
L 122.067144 -219.863236 
L 121.278485 -218.343335 
L 120.559422 -216.823434 
L 119.912632 -215.303533 
L 119.339029 -213.783632 
L 118.837742 -212.263731 
L 118.406217 -210.74383 
L 118.040444 -209.223929 
L 117.735245 -207.704028 
L 117.484625 -206.184127 
L 117.282124 -204.664226 
L 117.121152 -203.144325 
z
" style="stroke: #3f3f3f; stroke-width: 1.25"/>
    </defs>
    <g clip-path="url(#p00c71420d3)">
     <use xlink:href="#m08e1b736f5" x="0" y="432" style="fill: #3274a1; stroke: #3f3f3f; stroke-width: 1.25"/>
    </g>
   </g>
   <g id="PolyCollection_2">
    <defs>
     <path id="m56f6bbee0b" d="M 176.54116 -192.770581 
L 175.77884 -192.770581 
L 175.64261 -194.28401 
L 175.469149 -195.79744 
L 175.252438 -197.31087 
L 174.986801 -198.824299 
L 174.667345 -200.337729 
L 174.290428 -201.851159 
L 173.854116 -203.364588 
L 173.358554 -204.878018 
L 172.806207 -206.391448 
L 172.201912 -207.904877 
L 171.552682 -209.418307 
L 170.867276 -210.931736 
L 170.15552 -212.445166 
L 169.427442 -213.958596 
L 168.692301 -215.472025 
L 167.957611 -216.985455 
L 167.228299 -218.498885 
L 166.506101 -220.012314 
L 165.789318 -221.525744 
L 165.072996 -223.039174 
L 164.349545 -224.552603 
L 163.609781 -226.066033 
L 162.844289 -227.579463 
L 162.044969 -229.092892 
L 161.206606 -230.606322 
L 160.32826 -232.119752 
L 159.414327 -233.633181 
L 158.475097 -235.146611 
L 157.52675 -236.660041 
L 156.590736 -238.17347 
L 155.692606 -239.6869 
L 154.860378 -241.20033 
L 154.122609 -242.713759 
L 153.506362 -244.227189 
L 153.035246 -245.740619 
L 152.727738 -247.254048 
L 152.595904 -248.767478 
L 152.644636 -250.280908 
L 152.871434 -251.794337 
L 153.266733 -253.307767 
L 153.814692 -254.821197 
L 154.494368 -256.334626 
L 155.281151 -257.848056 
L 156.148329 -259.361486 
L 157.068659 -260.874915 
L 158.015841 -262.388345 
L 158.965807 -263.901775 
L 159.897746 -265.415204 
L 160.79483 -266.928634 
L 161.64463 -268.442064 
L 162.439216 -269.955493 
L 163.174971 -271.468923 
L 163.852165 -272.982352 
L 164.474347 -274.495782 
L 165.047607 -276.009212 
L 165.579787 -277.522641 
L 166.07969 -279.036071 
L 166.556343 -280.549501 
L 167.018339 -282.06293 
L 167.473308 -283.57636 
L 167.927492 -285.08979 
L 168.385455 -286.603219 
L 168.849906 -288.116649 
L 169.321635 -289.630079 
L 169.799545 -291.143508 
L 170.280785 -292.656938 
L 170.760975 -294.170368 
L 171.234506 -295.683797 
L 171.694928 -297.197227 
L 172.135393 -298.710657 
L 172.549143 -300.224086 
L 172.930006 -301.737516 
L 173.272874 -303.250946 
L 173.574114 -304.764375 
L 173.831882 -306.277805 
L 174.046305 -307.791235 
L 174.219498 -309.304664 
L 174.355428 -310.818094 
L 174.459613 -312.331524 
L 174.538697 -313.844953 
L 174.599926 -315.358383 
L 174.650592 -316.871813 
L 174.697486 -318.385242 
L 174.746427 -319.898672 
L 174.801902 -321.412102 
L 174.866846 -322.925531 
L 174.94259 -324.438961 
L 175.028955 -325.952391 
L 175.124473 -327.46582 
L 175.22671 -328.97925 
L 175.332628 -330.49268 
L 175.438959 -332.006109 
L 175.542541 -333.519539 
L 175.640592 -335.032968 
L 175.730896 -336.546398 
L 175.811905 -338.059828 
L 175.882758 -339.573257 
L 175.943224 -341.086687 
L 175.993611 -342.600117 
L 176.326389 -342.600117 
L 176.326389 -342.600117 
L 176.376776 -341.086687 
L 176.437242 -339.573257 
L 176.508095 -338.059828 
L 176.589104 -336.546398 
L 176.679408 -335.032968 
L 176.777459 -333.519539 
L 176.881041 -332.006109 
L 176.987372 -330.49268 
L 177.09329 -328.97925 
L 177.195527 -327.46582 
L 177.291045 -325.952391 
L 177.37741 -324.438961 
L 177.453154 -322.925531 
L 177.518098 -321.412102 
L 177.573573 -319.898672 
L 177.622514 -318.385242 
L 177.669408 -316.871813 
L 177.720074 -315.358383 
L 177.781303 -313.844953 
L 177.860387 -312.331524 
L 177.964572 -310.818094 
L 178.100502 -309.304664 
L 178.273695 -307.791235 
L 178.488118 -306.277805 
L 178.745886 -304.764375 
L 179.047126 -303.250946 
L 179.389994 -301.737516 
L 179.770857 -300.224086 
L 180.184607 -298.710657 
L 180.625072 -297.197227 
L 181.085494 -295.683797 
L 181.559025 -294.170368 
L 182.039215 -292.656938 
L 182.520455 -291.143508 
L 182.998365 -289.630079 
L 183.470094 -288.116649 
L 183.934545 -286.603219 
L 184.392508 -285.08979 
L 184.846692 -283.57636 
L 185.301661 -282.06293 
L 185.763657 -280.549501 
L 186.24031 -279.036071 
L 186.740213 -277.522641 
L 187.272393 -276.009212 
L 187.845653 -274.495782 
L 188.467835 -272.982352 
L 189.145029 -271.468923 
L 189.880784 -269.955493 
L 190.67537 -268.442064 
L 191.52517 -266.928634 
L 192.422254 -265.415204 
L 193.354193 -263.901775 
L 194.304159 -262.388345 
L 195.251341 -260.874915 
L 196.171671 -259.361486 
L 197.038849 -257.848056 
L 197.825632 -256.334626 
L 198.505308 -254.821197 
L 199.053267 -253.307767 
L 199.448566 -251.794337 
L 199.675364 -250.280908 
L 199.724096 -248.767478 
L 199.592262 -247.254048 
L 199.284754 -245.740619 
L 198.813638 -244.227189 
L 198.197391 -242.713759 
L 197.459622 -241.20033 
L 196.627394 -239.6869 
L 195.729264 -238.17347 
L 194.79325 -236.660041 
L 193.844903 -235.146611 
L 192.905673 -233.633181 
L 191.99174 -232.119752 
L 191.113394 -230.606322 
L 190.275031 -229.092892 
L 189.475711 -227.579463 
L 188.710219 -226.066033 
L 187.970455 -224.552603 
L 187.247004 -223.039174 
L 186.530682 -221.525744 
L 185.813899 -220.012314 
L 185.091701 -218.498885 
L 184.362389 -216.985455 
L 183.627699 -215.472025 
L 182.892558 -213.958596 
L 182.16448 -212.445166 
L 181.452724 -210.931736 
L 180.767318 -209.418307 
L 180.118088 -207.904877 
L 179.513793 -206.391448 
L 178.961446 -204.878018 
L 178.465884 -203.364588 
L 178.029572 -201.851159 
L 177.652655 -200.337729 
L 177.333199 -198.824299 
L 177.067562 -197.31087 
L 176.850851 -195.79744 
L 176.67739 -194.28401 
L 176.54116 -192.770581 
z
" style="stroke: #3f3f3f; stroke-width: 1.25"/>
    </defs>
    <g clip-path="url(#p00c71420d3)">
     <use xlink:href="#m56f6bbee0b" x="0" y="432" style="fill: #e1812c; stroke: #3f3f3f; stroke-width: 1.25"/>
    </g>
   </g>
   <g id="PolyCollection_3">
    <defs>
     <path id="m01b4cf4b2f" d="M 266.195196 -209.381055 
L 264.684804 -209.381055 
L 264.446051 -210.953368 
L 264.150152 -212.52568 
L 263.789409 -214.097993 
L 263.356805 -215.670306 
L 262.846535 -217.242618 
L 262.254557 -218.814931 
L 261.579119 -220.387243 
L 260.821195 -221.959556 
L 259.984798 -223.531868 
L 259.077095 -225.104181 
L 258.108303 -226.676494 
L 257.091346 -228.248806 
L 256.041266 -229.821119 
L 254.974429 -231.393431 
L 253.907584 -232.965744 
L 252.856837 -234.538056 
L 251.836636 -236.110369 
L 250.858874 -237.682682 
L 249.93217 -239.254994 
L 249.061423 -240.827307 
L 248.24769 -242.399619 
L 247.488383 -243.971932 
L 246.777806 -245.544244 
L 246.107964 -247.116557 
L 245.469592 -248.68887 
L 244.853302 -250.261182 
L 244.250753 -251.833495 
L 243.655733 -253.405807 
L 243.065057 -254.97812 
L 242.479198 -256.550432 
L 241.902584 -258.122745 
L 241.343524 -259.695058 
L 240.813779 -261.26737 
L 240.327775 -262.839683 
L 239.901552 -264.411995 
L 239.551512 -265.984308 
L 239.293076 -267.556621 
L 239.139365 -269.128933 
L 239.10002 -270.701246 
L 239.180255 -272.273558 
L 239.380241 -273.845871 
L 239.694873 -275.418183 
L 240.113937 -276.990496 
L 240.622694 -278.562809 
L 241.202815 -280.135121 
L 241.833608 -281.707434 
L 242.493443 -283.279746 
L 243.161248 -284.852059 
L 243.817962 -286.424371 
L 244.447828 -287.996684 
L 245.039405 -289.568997 
L 245.586229 -291.141309 
L 246.087058 -292.713622 
L 246.545699 -294.285934 
L 246.970421 -295.858247 
L 247.373034 -297.430559 
L 247.767706 -299.002872 
L 248.169638 -300.575185 
L 248.593722 -302.147497 
L 249.053275 -303.71981 
L 249.558985 -305.292122 
L 250.118112 -306.864435 
L 250.734015 -308.436747 
L 251.406007 -310.00906 
L 252.129529 -311.581373 
L 252.896593 -313.153685 
L 253.696453 -314.725998 
L 254.516413 -316.29831 
L 255.342715 -317.870623 
L 256.161428 -319.442935 
L 256.959283 -321.015248 
L 257.724395 -322.587561 
L 258.446846 -324.159873 
L 259.119087 -325.732186 
L 259.73616 -327.304498 
L 260.295736 -328.876811 
L 260.79798 -330.449123 
L 261.24526 -332.021436 
L 261.641739 -333.593749 
L 261.992889 -335.166061 
L 262.304954 -336.738374 
L 262.584432 -338.310686 
L 262.837586 -339.882999 
L 263.070053 -341.455311 
L 263.28654 -343.027624 
L 263.490659 -344.599937 
L 263.684864 -346.172249 
L 263.870512 -347.744562 
L 264.048012 -349.316874 
L 264.217032 -350.889187 
L 264.376745 -352.461499 
L 264.526073 -354.033812 
L 264.66392 -355.606125 
L 264.789348 -357.178437 
L 264.901716 -358.75075 
L 265.000753 -360.323062 
L 265.086582 -361.895375 
L 265.159697 -363.467687 
L 265.220909 -365.04 
L 265.659091 -365.04 
L 265.659091 -365.04 
L 265.720303 -363.467687 
L 265.793418 -361.895375 
L 265.879247 -360.323062 
L 265.978284 -358.75075 
L 266.090652 -357.178437 
L 266.21608 -355.606125 
L 266.353927 -354.033812 
L 266.503255 -352.461499 
L 266.662968 -350.889187 
L 266.831988 -349.316874 
L 267.009488 -347.744562 
L 267.195136 -346.172249 
L 267.389341 -344.599937 
L 267.59346 -343.027624 
L 267.809947 -341.455311 
L 268.042414 -339.882999 
L 268.295568 -338.310686 
L 268.575046 -336.738374 
L 268.887111 -335.166061 
L 269.238261 -333.593749 
L 269.63474 -332.021436 
L 270.08202 -330.449123 
L 270.584264 -328.876811 
L 271.14384 -327.304498 
L 271.760913 -325.732186 
L 272.433154 -324.159873 
L 273.155605 -322.587561 
L 273.920717 -321.015248 
L 274.718572 -319.442935 
L 275.537285 -317.870623 
L 276.363587 -316.29831 
L 277.183547 -314.725998 
L 277.983407 -313.153685 
L 278.750471 -311.581373 
L 279.473993 -310.00906 
L 280.145985 -308.436747 
L 280.761888 -306.864435 
L 281.321015 -305.292122 
L 281.826725 -303.71981 
L 282.286278 -302.147497 
L 282.710362 -300.575185 
L 283.112294 -299.002872 
L 283.506966 -297.430559 
L 283.909579 -295.858247 
L 284.334301 -294.285934 
L 284.792942 -292.713622 
L 285.293771 -291.141309 
L 285.840595 -289.568997 
L 286.432172 -287.996684 
L 287.062038 -286.424371 
L 287.718752 -284.852059 
L 288.386557 -283.279746 
L 289.046392 -281.707434 
L 289.677185 -280.135121 
L 290.257306 -278.562809 
L 290.766063 -276.990496 
L 291.185127 -275.418183 
L 291.499759 -273.845871 
L 291.699745 -272.273558 
L 291.77998 -270.701246 
L 291.740635 -269.128933 
L 291.586924 -267.556621 
L 291.328488 -265.984308 
L 290.978448 -264.411995 
L 290.552225 -262.839683 
L 290.066221 -261.26737 
L 289.536476 -259.695058 
L 288.977416 -258.122745 
L 288.400802 -256.550432 
L 287.814943 -254.97812 
L 287.224267 -253.405807 
L 286.629247 -251.833495 
L 286.026698 -250.261182 
L 285.410408 -248.68887 
L 284.772036 -247.116557 
L 284.102194 -245.544244 
L 283.391617 -243.971932 
L 282.63231 -242.399619 
L 281.818577 -240.827307 
L 280.94783 -239.254994 
L 280.021126 -237.682682 
L 279.043364 -236.110369 
L 278.023163 -234.538056 
L 276.972416 -232.965744 
L 275.905571 -231.393431 
L 274.838734 -229.821119 
L 273.788654 -228.248806 
L 272.771697 -226.676494 
L 271.802905 -225.104181 
L 270.895202 -223.531868 
L 270.058805 -221.959556 
L 269.300881 -220.387243 
L 268.625443 -218.814931 
L 268.033465 -217.242618 
L 267.523195 -215.670306 
L 267.090591 -214.097993 
L 266.729848 -212.52568 
L 266.433949 -210.953368 
L 266.195196 -209.381055 
z
" style="stroke: #3f3f3f; stroke-width: 1.25"/>
    </defs>
    <g clip-path="url(#p00c71420d3)">
     <use xlink:href="#m01b4cf4b2f" x="0" y="432" style="fill: #3274a1; stroke: #3f3f3f; stroke-width: 1.25"/>
    </g>
   </g>
   <g id="PolyCollection_4">
    <defs>
     <path id="mff53e06f66" d="M 325.176556 -203.269661 
L 324.743444 -203.269661 
L 324.675604 -204.480521 
L 324.592473 -205.691382 
L 324.492401 -206.902242 
L 324.373969 -208.113103 
L 324.236036 -209.323964 
L 324.077738 -210.534824 
L 323.898439 -211.745685 
L 323.697616 -212.956545 
L 323.474704 -214.167406 
L 323.228902 -215.378267 
L 322.958987 -216.589127 
L 322.663161 -217.799988 
L 322.338974 -219.010848 
L 321.983352 -220.221709 
L 321.592746 -221.43257 
L 321.163399 -222.64343 
L 320.691712 -223.854291 
L 320.174645 -225.065151 
L 319.61011 -226.276012 
L 318.997286 -227.486873 
L 318.336797 -228.697733 
L 317.630707 -229.908594 
L 316.882349 -231.119454 
L 316.095988 -232.330315 
L 315.27639 -233.541176 
L 314.428366 -234.752036 
L 313.556384 -235.962897 
L 312.664314 -237.173757 
L 311.75537 -238.384618 
L 310.832261 -239.595479 
L 309.897521 -240.806339 
L 308.953979 -242.0172 
L 308.005262 -243.22806 
L 307.056258 -244.438921 
L 306.113439 -245.649782 
L 305.184996 -246.860642 
L 304.280742 -248.071503 
L 303.411799 -249.282364 
L 302.590115 -250.493224 
L 301.827857 -251.704085 
L 301.136764 -252.914945 
L 300.52754 -254.125806 
L 300.009318 -255.336667 
L 299.589259 -256.547527 
L 299.272293 -257.758388 
L 299.061006 -258.969248 
L 298.955657 -260.180109 
L 298.95432 -261.39097 
L 299.053125 -262.60183 
L 299.246582 -263.812691 
L 299.527965 -265.023551 
L 299.88975 -266.234412 
L 300.324053 -267.445273 
L 300.823072 -268.656133 
L 301.379461 -269.866994 
L 301.986633 -271.077854 
L 302.638937 -272.288715 
L 303.331702 -273.499576 
L 304.061137 -274.710436 
L 304.824101 -275.921297 
L 305.617778 -277.132157 
L 306.439295 -278.343018 
L 307.285339 -279.553879 
L 308.151831 -280.764739 
L 309.0337 -281.9756 
L 309.924799 -283.18646 
L 310.817972 -284.397321 
L 311.705282 -285.608182 
L 312.578369 -286.819042 
L 313.428907 -288.029903 
L 314.249106 -289.240763 
L 315.032205 -290.451624 
L 315.7729 -291.662485 
L 316.467663 -292.873345 
L 317.114914 -294.084206 
L 317.715021 -295.295067 
L 318.270145 -296.505927 
L 318.783928 -297.716788 
L 319.261077 -298.927648 
L 319.706862 -300.138509 
L 320.126619 -301.34937 
L 320.525265 -302.56023 
L 320.906905 -303.771091 
L 321.274546 -304.981951 
L 321.629953 -306.192812 
L 321.973636 -307.403673 
L 322.304976 -308.614533 
L 322.622451 -309.825394 
L 322.923932 -311.036254 
L 323.207022 -312.247115 
L 323.469373 -313.457976 
L 323.708982 -314.668836 
L 323.924401 -315.879697 
L 324.114883 -317.090557 
L 324.280434 -318.301418 
L 324.421785 -319.512279 
L 324.540308 -320.723139 
L 324.637881 -321.934 
L 324.716728 -323.14486 
L 325.203272 -323.14486 
L 325.203272 -323.14486 
L 325.282119 -321.934 
L 325.379692 -320.723139 
L 325.498215 -319.512279 
L 325.639566 -318.301418 
L 325.805117 -317.090557 
L 325.995599 -315.879697 
L 326.211018 -314.668836 
L 326.450627 -313.457976 
L 326.712978 -312.247115 
L 326.996068 -311.036254 
L 327.297549 -309.825394 
L 327.615024 -308.614533 
L 327.946364 -307.403673 
L 328.290047 -306.192812 
L 328.645454 -304.981951 
L 329.013095 -303.771091 
L 329.394735 -302.56023 
L 329.793381 -301.34937 
L 330.213138 -300.138509 
L 330.658923 -298.927648 
L 331.136072 -297.716788 
L 331.649855 -296.505927 
L 332.204979 -295.295067 
L 332.805086 -294.084206 
L 333.452337 -292.873345 
L 334.1471 -291.662485 
L 334.887795 -290.451624 
L 335.670894 -289.240763 
L 336.491093 -288.029903 
L 337.341631 -286.819042 
L 338.214718 -285.608182 
L 339.102028 -284.397321 
L 339.995201 -283.18646 
L 340.8863 -281.9756 
L 341.768169 -280.764739 
L 342.634661 -279.553879 
L 343.480705 -278.343018 
L 344.302222 -277.132157 
L 345.095899 -275.921297 
L 345.858863 -274.710436 
L 346.588298 -273.499576 
L 347.281063 -272.288715 
L 347.933367 -271.077854 
L 348.540539 -269.866994 
L 349.096928 -268.656133 
L 349.595947 -267.445273 
L 350.03025 -266.234412 
L 350.392035 -265.023551 
L 350.673418 -263.812691 
L 350.866875 -262.60183 
L 350.96568 -261.39097 
L 350.964343 -260.180109 
L 350.858994 -258.969248 
L 350.647707 -257.758388 
L 350.330741 -256.547527 
L 349.910682 -255.336667 
L 349.39246 -254.125806 
L 348.783236 -252.914945 
L 348.092143 -251.704085 
L 347.329885 -250.493224 
L 346.508201 -249.282364 
L 345.639258 -248.071503 
L 344.735004 -246.860642 
L 343.806561 -245.649782 
L 342.863742 -244.438921 
L 341.914738 -243.22806 
L 340.966021 -242.0172 
L 340.022479 -240.806339 
L 339.087739 -239.595479 
L 338.16463 -238.384618 
L 337.255686 -237.173757 
L 336.363616 -235.962897 
L 335.491634 -234.752036 
L 334.64361 -233.541176 
L 333.824012 -232.330315 
L 333.037651 -231.119454 
L 332.289293 -229.908594 
L 331.583203 -228.697733 
L 330.922714 -227.486873 
L 330.30989 -226.276012 
L 329.745355 -225.065151 
L 329.228288 -223.854291 
L 328.756601 -222.64343 
L 328.327254 -221.43257 
L 327.936648 -220.221709 
L 327.581026 -219.010848 
L 327.256839 -217.799988 
L 326.961013 -216.589127 
L 326.691098 -215.378267 
L 326.445296 -214.167406 
L 326.222384 -212.956545 
L 326.021561 -211.745685 
L 325.842262 -210.534824 
L 325.683964 -209.323964 
L 325.546031 -208.113103 
L 325.427599 -206.902242 
L 325.327527 -205.691382 
L 325.244396 -204.480521 
L 325.176556 -203.269661 
z
" style="stroke: #3f3f3f; stroke-width: 1.25"/>
    </defs>
    <g clip-path="url(#p00c71420d3)">
     <use xlink:href="#mff53e06f66" x="0" y="432" style="fill: #e1812c; stroke: #3f3f3f; stroke-width: 1.25"/>
    </g>
   </g>
   <g id="PolyCollection_5">
    <defs>
     <path id="m23e0475905" d="M 414.397904 -62.64 
L 414.082096 -62.64 
L 414.018384 -65.677202 
L 413.938596 -68.714404 
L 413.842772 -71.751606 
L 413.732693 -74.788808 
L 413.612167 -77.826009 
L 413.487063 -80.863211 
L 413.364986 -83.900413 
L 413.254599 -86.937615 
L 413.164643 -89.974817 
L 413.102808 -93.012019 
L 413.07465 -96.049221 
L 413.082768 -99.086423 
L 413.126407 -102.123625 
L 413.201578 -105.160827 
L 413.301654 -108.198028 
L 413.418337 -111.23523 
L 413.542787 -114.272432 
L 413.666703 -117.309634 
L 413.783191 -120.346836 
L 413.887279 -123.384038 
L 413.976081 -126.42124 
L 414.04864 -129.458442 
L 414.105546 -132.495644 
L 414.148455 -135.532845 
L 414.179599 -138.570047 
L 414.201382 -141.607249 
L 414.216073 -144.644451 
L 414.225632 -147.681653 
L 414.231636 -150.718855 
L 414.235271 -153.756057 
L 414.237386 -156.793259 
L 414.238546 -159.830461 
L 414.239097 -162.867662 
L 414.239213 -165.904864 
L 414.238911 -168.942066 
L 414.238046 -171.979268 
L 414.236257 -175.01647 
L 414.232868 -178.053672 
L 414.226722 -181.090874 
L 414.215951 -184.128076 
L 414.197654 -187.165278 
L 414.167507 -190.20248 
L 414.119322 -193.239681 
L 414.044593 -196.276883 
L 413.93213 -199.314085 
L 413.76786 -202.351287 
L 413.53495 -205.388489 
L 413.214333 -208.425691 
L 412.785735 -211.462893 
L 412.2292 -214.500095 
L 411.527006 -217.537297 
L 410.665764 -220.574498 
L 409.638399 -223.6117 
L 408.445653 -226.648902 
L 407.096789 -229.686104 
L 405.609302 -232.723306 
L 404.007589 -235.760508 
L 402.320824 -238.79771 
L 400.580398 -241.834912 
L 398.817511 -244.872114 
L 397.061419 -247.909316 
L 395.338772 -250.946517 
L 393.674199 -253.983719 
L 392.091985 -257.020921 
L 390.618379 -260.058123 
L 389.283882 -263.095325 
L 388.124728 -266.132527 
L 387.182936 -269.169729 
L 386.504484 -272.206931 
L 386.135591 -275.244133 
L 386.11742 -278.281334 
L 386.479977 -281.318536 
L 387.236182 -284.355738 
L 388.377243 -287.39294 
L 389.870309 -290.430142 
L 391.6591 -293.467344 
L 393.667694 -296.504546 
L 395.807123 -299.541748 
L 397.983866 -302.57895 
L 400.108997 -305.616152 
L 402.106555 -308.653353 
L 403.919892 -311.690555 
L 405.515081 -314.727757 
L 406.881067 -317.764959 
L 408.026798 -320.802161 
L 408.976119 -323.839363 
L 409.761516 -326.876565 
L 410.41788 -329.913767 
L 410.977319 -332.950969 
L 411.465667 -335.98817 
L 411.900943 -339.025372 
L 412.293563 -342.062574 
L 412.647846 -345.099776 
L 412.964171 -348.136978 
L 413.241196 -351.17418 
L 413.477683 -354.211382 
L 413.673668 -357.248584 
L 413.830952 -360.285786 
L 413.953007 -363.322987 
L 414.526993 -363.322987 
L 414.526993 -363.322987 
L 414.649048 -360.285786 
L 414.806332 -357.248584 
L 415.002317 -354.211382 
L 415.238804 -351.17418 
L 415.515829 -348.136978 
L 415.832154 -345.099776 
L 416.186437 -342.062574 
L 416.579057 -339.025372 
L 417.014333 -335.98817 
L 417.502681 -332.950969 
L 418.06212 -329.913767 
L 418.718484 -326.876565 
L 419.503881 -323.839363 
L 420.453202 -320.802161 
L 421.598933 -317.764959 
L 422.964919 -314.727757 
L 424.560108 -311.690555 
L 426.373445 -308.653353 
L 428.371003 -305.616152 
L 430.496134 -302.57895 
L 432.672877 -299.541748 
L 434.812306 -296.504546 
L 436.8209 -293.467344 
L 438.609691 -290.430142 
L 440.102757 -287.39294 
L 441.243818 -284.355738 
L 442.000023 -281.318536 
L 442.36258 -278.281334 
L 442.344409 -275.244133 
L 441.975516 -272.206931 
L 441.297064 -269.169729 
L 440.355272 -266.132527 
L 439.196118 -263.095325 
L 437.861621 -260.058123 
L 436.388015 -257.020921 
L 434.805801 -253.983719 
L 433.141228 -250.946517 
L 431.418581 -247.909316 
L 429.662489 -244.872114 
L 427.899602 -241.834912 
L 426.159176 -238.79771 
L 424.472411 -235.760508 
L 422.870698 -232.723306 
L 421.383211 -229.686104 
L 420.034347 -226.648902 
L 418.841601 -223.6117 
L 417.814236 -220.574498 
L 416.952994 -217.537297 
L 416.2508 -214.500095 
L 415.694265 -211.462893 
L 415.265667 -208.425691 
L 414.94505 -205.388489 
L 414.71214 -202.351287 
L 414.54787 -199.314085 
L 414.435407 -196.276883 
L 414.360678 -193.239681 
L 414.312493 -190.20248 
L 414.282346 -187.165278 
L 414.264049 -184.128076 
L 414.253278 -181.090874 
L 414.247132 -178.053672 
L 414.243743 -175.01647 
L 414.241954 -171.979268 
L 414.241089 -168.942066 
L 414.240787 -165.904864 
L 414.240903 -162.867662 
L 414.241454 -159.830461 
L 414.242614 -156.793259 
L 414.244729 -153.756057 
L 414.248364 -150.718855 
L 414.254368 -147.681653 
L 414.263927 -144.644451 
L 414.278618 -141.607249 
L 414.300401 -138.570047 
L 414.331545 -135.532845 
L 414.374454 -132.495644 
L 414.43136 -129.458442 
L 414.503919 -126.42124 
L 414.592721 -123.384038 
L 414.696809 -120.346836 
L 414.813297 -117.309634 
L 414.937213 -114.272432 
L 415.061663 -111.23523 
L 415.178346 -108.198028 
L 415.278422 -105.160827 
L 415.353593 -102.123625 
L 415.397232 -99.086423 
L 415.40535 -96.049221 
L 415.377192 -93.012019 
L 415.315357 -89.974817 
L 415.225401 -86.937615 
L 415.115014 -83.900413 
L 414.992937 -80.863211 
L 414.867833 -77.826009 
L 414.747307 -74.788808 
L 414.637228 -71.751606 
L 414.541404 -68.714404 
L 414.461616 -65.677202 
L 414.397904 -62.64 
z
" style="stroke: #3f3f3f; stroke-width: 1.25"/>
    </defs>
    <g clip-path="url(#p00c71420d3)">
     <use xlink:href="#m23e0475905" x="0" y="432" style="fill: #3274a1; stroke: #3f3f3f; stroke-width: 1.25"/>
    </g>
   </g>
   <g id="PolyCollection_6">
    <defs>
     <path id="m7fb0752cb2" d="M 474.171868 -216.113454 
L 473.348132 -216.113454 
L 473.209471 -217.191677 
L 473.033404 -218.2699 
L 472.812968 -219.348122 
L 472.540831 -220.426345 
L 472.209549 -221.504568 
L 471.811889 -222.58279 
L 471.341219 -223.661013 
L 470.791945 -224.739235 
L 470.159982 -225.817458 
L 469.443218 -226.895681 
L 468.641942 -227.973903 
L 467.759196 -229.052126 
L 466.801007 -230.130349 
L 465.776456 -231.208571 
L 464.697566 -232.286794 
L 463.578968 -233.365017 
L 462.437375 -234.443239 
L 461.290842 -235.521462 
L 460.157884 -236.599685 
L 459.056487 -237.677907 
L 458.003085 -238.75613 
L 457.011595 -239.834352 
L 456.09256 -240.912575 
L 455.252508 -241.990798 
L 454.493553 -243.06902 
L 453.813293 -244.147243 
L 453.205018 -245.225466 
L 452.658209 -246.303688 
L 452.15931 -247.381911 
L 451.692725 -248.460134 
L 451.241962 -249.538356 
L 450.79088 -250.616579 
L 450.324948 -251.694802 
L 449.83244 -252.773024 
L 449.305511 -253.851247 
L 448.741062 -254.929469 
L 448.141361 -256.007692 
L 447.514344 -257.085915 
L 446.873582 -258.164137 
L 446.2379 -259.24236 
L 445.63063 -260.320583 
L 445.078565 -261.398805 
L 444.610623 -262.477028 
L 444.256332 -263.555251 
L 444.044186 -264.633473 
L 444 -265.711696 
L 444.145332 -266.789919 
L 444.49609 -267.868141 
L 445.061404 -268.946364 
L 445.842824 -270.024586 
L 446.833917 -271.102809 
L 448.020286 -272.181032 
L 449.380021 -273.259254 
L 450.884576 -274.337477 
L 452.500009 -275.4157 
L 454.188541 -276.493922 
L 455.910318 -277.572145 
L 457.625276 -278.650368 
L 459.294991 -279.72859 
L 460.884375 -280.806813 
L 462.363131 -281.885036 
L 463.706863 -282.963258 
L 464.897783 -284.041481 
L 465.925006 -285.119703 
L 466.784434 -286.197926 
L 467.478283 -287.276149 
L 468.01433 -288.354371 
L 468.404959 -289.432594 
L 468.666108 -290.510817 
L 468.816203 -291.589039 
L 468.875145 -292.667262 
L 468.863401 -293.745485 
L 468.801241 -294.823707 
L 468.708099 -295.90193 
L 468.602078 -296.980153 
L 468.499557 -298.058375 
L 468.414886 -299.136598 
L 468.360144 -300.21482 
L 468.344958 -301.293043 
L 468.376356 -302.371266 
L 468.458693 -303.449488 
L 468.593637 -304.527711 
L 468.780245 -305.605934 
L 469.015138 -306.684156 
L 469.292783 -307.762379 
L 469.605878 -308.840602 
L 469.945819 -309.918824 
L 470.30323 -310.997047 
L 470.66851 -312.07527 
L 471.032366 -313.153492 
L 471.386285 -314.231715 
L 471.722923 -315.309937 
L 472.036371 -316.38816 
L 472.322308 -317.466383 
L 472.578022 -318.544605 
L 472.80233 -319.622828 
L 472.995403 -320.701051 
L 473.158532 -321.779273 
L 473.293864 -322.857496 
L 474.226136 -322.857496 
L 474.226136 -322.857496 
L 474.361468 -321.779273 
L 474.524597 -320.701051 
L 474.71767 -319.622828 
L 474.941978 -318.544605 
L 475.197692 -317.466383 
L 475.483629 -316.38816 
L 475.797077 -315.309937 
L 476.133715 -314.231715 
L 476.487634 -313.153492 
L 476.85149 -312.07527 
L 477.21677 -310.997047 
L 477.574181 -309.918824 
L 477.914122 -308.840602 
L 478.227217 -307.762379 
L 478.504862 -306.684156 
L 478.739755 -305.605934 
L 478.926363 -304.527711 
L 479.061307 -303.449488 
L 479.143644 -302.371266 
L 479.175042 -301.293043 
L 479.159856 -300.21482 
L 479.105114 -299.136598 
L 479.020443 -298.058375 
L 478.917922 -296.980153 
L 478.811901 -295.90193 
L 478.718759 -294.823707 
L 478.656599 -293.745485 
L 478.644855 -292.667262 
L 478.703797 -291.589039 
L 478.853892 -290.510817 
L 479.115041 -289.432594 
L 479.50567 -288.354371 
L 480.041717 -287.276149 
L 480.735566 -286.197926 
L 481.594994 -285.119703 
L 482.622217 -284.041481 
L 483.813137 -282.963258 
L 485.156869 -281.885036 
L 486.635625 -280.806813 
L 488.225009 -279.72859 
L 489.894724 -278.650368 
L 491.609682 -277.572145 
L 493.331459 -276.493922 
L 495.019991 -275.4157 
L 496.635424 -274.337477 
L 498.139979 -273.259254 
L 499.499714 -272.181032 
L 500.686083 -271.102809 
L 501.677176 -270.024586 
L 502.458596 -268.946364 
L 503.02391 -267.868141 
L 503.374668 -266.789919 
L 503.52 -265.711696 
L 503.475814 -264.633473 
L 503.263668 -263.555251 
L 502.909377 -262.477028 
L 502.441435 -261.398805 
L 501.88937 -260.320583 
L 501.2821 -259.24236 
L 500.646418 -258.164137 
L 500.005656 -257.085915 
L 499.378639 -256.007692 
L 498.778938 -254.929469 
L 498.214489 -253.851247 
L 497.68756 -252.773024 
L 497.195052 -251.694802 
L 496.72912 -250.616579 
L 496.278038 -249.538356 
L 495.827275 -248.460134 
L 495.36069 -247.381911 
L 494.861791 -246.303688 
L 494.314982 -245.225466 
L 493.706707 -244.147243 
L 493.026447 -243.06902 
L 492.267492 -241.990798 
L 491.42744 -240.912575 
L 490.508405 -239.834352 
L 489.516915 -238.75613 
L 488.463513 -237.677907 
L 487.362116 -236.599685 
L 486.229158 -235.521462 
L 485.082625 -234.443239 
L 483.941032 -233.365017 
L 482.822434 -232.286794 
L 481.743544 -231.208571 
L 480.718993 -230.130349 
L 479.760804 -229.052126 
L 478.878058 -227.973903 
L 478.076782 -226.895681 
L 477.360018 -225.817458 
L 476.728055 -224.739235 
L 476.178781 -223.661013 
L 475.708111 -222.58279 
L 475.310451 -221.504568 
L 474.979169 -220.426345 
L 474.707032 -219.348122 
L 474.486596 -218.2699 
L 474.310529 -217.191677 
L 474.171868 -216.113454 
z
" style="stroke: #3f3f3f; stroke-width: 1.25"/>
    </defs>
    <g clip-path="url(#p00c71420d3)">
     <use xlink:href="#m7fb0752cb2" x="0" y="432" style="fill: #e1812c; stroke: #3f3f3f; stroke-width: 1.25"/>
    </g>
   </g>
   <g id="patch_3">
    <path d="M 146.4 335.107231 
L 146.4 335.107231 
L 146.4 335.107231 
L 146.4 335.107231 
z
" clip-path="url(#p00c71420d3)" style="fill: #3274a1; stroke: #3f3f3f; stroke-width: 1.25; stroke-linejoin: miter"/>
   </g>
   <g id="patch_4">
    <path d="M 146.4 335.107231 
L 146.4 335.107231 
L 146.4 335.107231 
L 146.4 335.107231 
z
" clip-path="url(#p00c71420d3)" style="fill: #e1812c; stroke: #3f3f3f; stroke-width: 1.25; stroke-linejoin: miter"/>
   </g>
   <g id="line2d_9">
    <path d="M 116.64 205.448271 
L 116.64 118.650299 
" clip-path="url(#p00c71420d3)" style="fill: none; stroke: #3f3f3f; stroke-width: 1.875; stroke-linecap: round"/>
   </g>
   <g id="line2d_10">
    <path d="M 116.64 178.643761 
L 116.64 150.482204 
" clip-path="url(#p00c71420d3)" style="fill: none; stroke: #3f3f3f; stroke-width: 5.625; stroke-linecap: round"/>
   </g>
   <g id="line2d_11">
    <path d="M 116.64 166.917099 
" clip-path="url(#p00c71420d3)" style="fill: none; stroke: #3f3f3f; stroke-width: 1.5; stroke-linecap: round"/>
    <defs>
     <path id="m37d96975c1" d="M 2.34375 0 
L -2.34375 -0 
" style="stroke: #ffffff; stroke-width: 1.125"/>
    </defs>
    <g clip-path="url(#p00c71420d3)">
     <use xlink:href="#m37d96975c1" x="116.64" y="166.917099" style="fill: #ffffff; stroke: #ffffff; stroke-width: 1.125"/>
    </g>
   </g>
   <g id="line2d_12">
    <path d="M 176.16 217.086584 
L 176.16 135.668788 
" clip-path="url(#p00c71420d3)" style="fill: none; stroke: #3f3f3f; stroke-width: 1.875; stroke-linecap: round"/>
   </g>
   <g id="line2d_13">
    <path d="M 176.16 191.58976 
L 176.16 167.904387 
" clip-path="url(#p00c71420d3)" style="fill: none; stroke: #3f3f3f; stroke-width: 5.625; stroke-linecap: round"/>
   </g>
   <g id="line2d_14">
    <path d="M 176.16 181.7216 
" clip-path="url(#p00c71420d3)" style="fill: none; stroke: #3f3f3f; stroke-width: 1.5; stroke-linecap: round"/>
    <g clip-path="url(#p00c71420d3)">
     <use xlink:href="#m37d96975c1" x="176.16" y="181.7216" style="fill: #ffffff; stroke: #ffffff; stroke-width: 1.125"/>
    </g>
   </g>
   <g id="line2d_15">
    <path d="M 265.44 197.441385 
L 265.44 92.13756 
" clip-path="url(#p00c71420d3)" style="fill: none; stroke: #3f3f3f; stroke-width: 1.875; stroke-linecap: round"/>
   </g>
   <g id="line2d_16">
    <path d="M 265.44 176.875826 
L 265.44 134.692699 
" clip-path="url(#p00c71420d3)" style="fill: none; stroke: #3f3f3f; stroke-width: 5.625; stroke-linecap: round"/>
   </g>
   <g id="line2d_17">
    <path d="M 265.44 157.819922 
" clip-path="url(#p00c71420d3)" style="fill: none; stroke: #3f3f3f; stroke-width: 1.5; stroke-linecap: round"/>
    <g clip-path="url(#p00c71420d3)">
     <use xlink:href="#m37d96975c1" x="265.44" y="157.819922" style="fill: #ffffff; stroke: #ffffff; stroke-width: 1.125"/>
    </g>
   </g>
   <g id="line2d_18">
    <path d="M 324.96 210.859336 
L 324.96 126.726143 
" clip-path="url(#p00c71420d3)" style="fill: none; stroke: #3f3f3f; stroke-width: 1.875; stroke-linecap: round"/>
   </g>
   <g id="line2d_19">
    <path d="M 324.96 180.812105 
L 324.96 156.862827 
" clip-path="url(#p00c71420d3)" style="fill: none; stroke: #3f3f3f; stroke-width: 5.625; stroke-linecap: round"/>
   </g>
   <g id="line2d_20">
    <path d="M 324.96 169.887872 
" clip-path="url(#p00c71420d3)" style="fill: none; stroke: #3f3f3f; stroke-width: 1.5; stroke-linecap: round"/>
    <g clip-path="url(#p00c71420d3)">
     <use xlink:href="#m37d96975c1" x="324.96" y="169.887872" style="fill: #ffffff; stroke: #ffffff; stroke-width: 1.125"/>
    </g>
   </g>
   <g id="line2d_21">
    <path d="M 414.24 195.952022 
L 414.24 102.929782 
" clip-path="url(#p00c71420d3)" style="fill: none; stroke: #3f3f3f; stroke-width: 1.875; stroke-linecap: round"/>
   </g>
   <g id="line2d_22">
    <path d="M 414.24 173.879212 
L 414.24 144.142787 
" clip-path="url(#p00c71420d3)" style="fill: none; stroke: #3f3f3f; stroke-width: 5.625; stroke-linecap: round"/>
   </g>
   <g id="line2d_23">
    <path d="M 414.24 159.015772 
" clip-path="url(#p00c71420d3)" style="fill: none; stroke: #3f3f3f; stroke-width: 1.5; stroke-linecap: round"/>
    <g clip-path="url(#p00c71420d3)">
     <use xlink:href="#m37d96975c1" x="414.24" y="159.015772" style="fill: #ffffff; stroke: #ffffff; stroke-width: 1.125"/>
    </g>
   </g>
   <g id="line2d_24">
    <path d="M 473.76 198.767054 
L 473.76 126.440441 
" clip-path="url(#p00c71420d3)" style="fill: none; stroke: #3f3f3f; stroke-width: 1.875; stroke-linecap: round"/>
   </g>
   <g id="line2d_25">
    <path d="M 473.76 182.216874 
L 473.76 159.864312 
" clip-path="url(#p00c71420d3)" style="fill: none; stroke: #3f3f3f; stroke-width: 5.625; stroke-linecap: round"/>
   </g>
   <g id="line2d_26">
    <path d="M 473.76 168.19992 
" clip-path="url(#p00c71420d3)" style="fill: none; stroke: #3f3f3f; stroke-width: 1.5; stroke-linecap: round"/>
    <g clip-path="url(#p00c71420d3)">
     <use xlink:href="#m37d96975c1" x="473.76" y="168.19992" style="fill: #ffffff; stroke: #ffffff; stroke-width: 1.125"/>
    </g>
   </g>
   <g id="patch_5">
    <path d="M 72 384.48 
L 72 51.84 
" style="fill: none; stroke: #cccccc; stroke-width: 0.8; stroke-linejoin: miter; stroke-linecap: square"/>
   </g>
   <g id="patch_6">
    <path d="M 518.4 384.48 
L 518.4 51.84 
" style="fill: none; stroke: #cccccc; stroke-width: 0.8; stroke-linejoin: miter; stroke-linecap: square"/>
   </g>
   <g id="patch_7">
    <path d="M 72 384.48 
L 518.4 384.48 
" style="fill: none; stroke: #cccccc; stroke-width: 0.8; stroke-linejoin: miter; stroke-linecap: square"/>
   </g>
   <g id="patch_8">
    <path d="M 72 51.84 
L 518.4 51.84 
" style="fill: none; stroke: #cccccc; stroke-width: 0.8; stroke-linejoin: miter; stroke-linecap: square"/>
   </g>
   <g id="legend_1">
    <g id="patch_9">
     <path d="M 456.6125 379.48 
L 511.4 379.48 
Q 513.4 379.48 513.4 377.48 
L 513.4 336.044062 
Q 513.4 334.044062 511.4 334.044062 
L 456.6125 334.044062 
Q 454.6125 334.044062 454.6125 336.044062 
L 454.6125 377.48 
Q 454.6125 379.48 456.6125 379.48 
z
" style="fill: #ffffff; opacity: 0.8; stroke: #cccccc; stroke-linejoin: miter"/>
    </g>
    <g id="text_14">
     <!-- Time -->
     <g style="fill: #262626" transform="translate(473.083594 345.201875) scale(0.1 -0.1)">
      <defs>
       <path id="ArialMT-54" d="M 1659 0 
L 1659 4041 
L 150 4041 
L 150 4581 
L 3781 4581 
L 3781 4041 
L 2266 4041 
L 2266 0 
L 1659 0 
z
" transform="scale(0.015625)"/>
       <path id="ArialMT-6d" d="M 422 0 
L 422 3319 
L 925 3319 
L 925 2853 
Q 1081 3097 1340 3245 
Q 1600 3394 1931 3394 
Q 2300 3394 2536 3241 
Q 2772 3088 2869 2813 
Q 3263 3394 3894 3394 
Q 4388 3394 4653 3120 
Q 4919 2847 4919 2278 
L 4919 0 
L 4359 0 
L 4359 2091 
Q 4359 2428 4304 2576 
Q 4250 2725 4106 2815 
Q 3963 2906 3769 2906 
Q 3419 2906 3187 2673 
Q 2956 2441 2956 1928 
L 2956 0 
L 2394 0 
L 2394 2156 
Q 2394 2531 2256 2718 
Q 2119 2906 1806 2906 
Q 1569 2906 1367 2781 
Q 1166 2656 1075 2415 
Q 984 2175 984 1722 
L 984 0 
L 422 0 
z
" transform="scale(0.015625)"/>
      </defs>
      <use xlink:href="#ArialMT-54"/>
      <use xlink:href="#ArialMT-69" x="57.333984"/>
      <use xlink:href="#ArialMT-6d" x="79.550781"/>
      <use xlink:href="#ArialMT-65" x="162.851562"/>
     </g>
    </g>
    <g id="patch_10">
     <path d="M 458.6125 359.347188 
L 478.6125 359.347188 
L 478.6125 352.347188 
L 458.6125 352.347188 
z
" style="fill: #3274a1; stroke: #3f3f3f; stroke-width: 1.25; stroke-linejoin: miter"/>
    </g>
    <g id="text_15">
     <!-- initial -->
     <g style="fill: #262626" transform="translate(486.6125 359.347188) scale(0.1 -0.1)">
      <use xlink:href="#ArialMT-69"/>
      <use xlink:href="#ArialMT-6e" x="22.216797"/>
      <use xlink:href="#ArialMT-69" x="77.832031"/>
      <use xlink:href="#ArialMT-74" x="100.048828"/>
      <use xlink:href="#ArialMT-69" x="127.832031"/>
      <use xlink:href="#ArialMT-61" x="150.048828"/>
      <use xlink:href="#ArialMT-6c" x="205.664062"/>
     </g>
    </g>
    <g id="patch_11">
     <path d="M 458.6125 373.4925 
L 478.6125 373.4925 
L 478.6125 366.4925 
L 458.6125 366.4925 
z
" style="fill: #e1812c; stroke: #3f3f3f; stroke-width: 1.25; stroke-linejoin: miter"/>
    </g>
    <g id="text_16">
     <!-- final -->
     <g style="fill: #262626" transform="translate(486.6125 373.4925) scale(0.1 -0.1)">
      <use xlink:href="#ArialMT-66"/>
      <use xlink:href="#ArialMT-69" x="27.783203"/>
      <use xlink:href="#ArialMT-6e" x="50"/>
      <use xlink:href="#ArialMT-61" x="105.615234"/>
      <use xlink:href="#ArialMT-6c" x="161.230469"/>
     </g>
    </g>
   </g>
  </g>
 </g>
 <defs>
  <clipPath id="p00c71420d3">
   <rect x="72" y="51.84" width="446.4" height="332.64"/>
  </clipPath>
 </defs>
</svg>
