<?xml version="1.0" encoding="utf-8" standalone="no"?>
<!DOCTYPE svg PUBLIC "-//W3C//DTD SVG 1.1//EN"
  "http://www.w3.org/Graphics/SVG/1.1/DTD/svg11.dtd">
<svg xmlns:xlink="http://www.w3.org/1999/xlink" width="576pt" height="432pt" viewBox="0 0 576 432" xmlns="http://www.w3.org/2000/svg" version="1.1">
 <metadata>
  <rdf:RDF xmlns:dc="http://purl.org/dc/elements/1.1/" xmlns:cc="http://creativecommons.org/ns#" xmlns:rdf="http://www.w3.org/1999/02/22-rdf-syntax-ns#">
   <cc:Work>
    <dc:type rdf:resource="http://purl.org/dc/dcmitype/StillImage"/>
    <dc:date>2024-09-09T17:20:25.224049</dc:date>
    <dc:format>image/svg+xml</dc:format>
    <dc:creator>
     <cc:Agent>
      <dc:title>Matplotlib v3.8.3, https://matplotlib.org/</dc:title>
     </cc:Agent>
    </dc:creator>
   </cc:Work>
  </rdf:RDF>
 </metadata>
 <defs>
  <style type="text/css">*{stroke-linejoin: round; stroke-linecap: butt}</style>
 </defs>
 <g id="figure_1">
  <g id="patch_1">
   <path d="M 0 432 
L 576 432 
L 576 0 
L 0 0 
z
" style="fill: #ffffff"/>
  </g>
  <g id="axes_1">
   <g id="patch_2">
    <path d="M 72 384.48 
L 518.4 384.48 
L 518.4 51.84 
L 72 51.84 
z
" style="fill: #ffffff"/>
   </g>
   <g id="matplotlib.axis_1">
    <g id="xtick_1">
     <g id="text_1">
      <!-- 1 -->
      <g style="fill: #262626" transform="translate(143.619531 398.637812) scale(0.1 -0.1)">
       <defs>
        <path id="ArialMT-31" d="M 2384 0 
L 1822 0 
L 1822 3584 
Q 1619 3391 1289 3197 
Q 959 3003 697 2906 
L 697 3450 
Q 1169 3672 1522 3987 
Q 1875 4303 2022 4600 
L 2384 4600 
L 2384 0 
z
" transform="scale(0.015625)"/>
       </defs>
       <use xlink:href="#ArialMT-31"/>
      </g>
     </g>
    </g>
    <g id="xtick_2">
     <g id="text_2">
      <!-- 2 -->
      <g style="fill: #262626" transform="translate(292.419531 398.637812) scale(0.1 -0.1)">
       <defs>
        <path id="ArialMT-32" d="M 3222 541 
L 3222 0 
L 194 0 
Q 188 203 259 391 
Q 375 700 629 1000 
Q 884 1300 1366 1694 
Q 2113 2306 2375 2664 
Q 2638 3022 2638 3341 
Q 2638 3675 2398 3904 
Q 2159 4134 1775 4134 
Q 1369 4134 1125 3890 
Q 881 3647 878 3216 
L 300 3275 
Q 359 3922 746 4261 
Q 1134 4600 1788 4600 
Q 2447 4600 2831 4234 
Q 3216 3869 3216 3328 
Q 3216 3053 3103 2787 
Q 2991 2522 2730 2228 
Q 2469 1934 1863 1422 
Q 1356 997 1212 845 
Q 1069 694 975 541 
L 3222 541 
z
" transform="scale(0.015625)"/>
       </defs>
       <use xlink:href="#ArialMT-32"/>
      </g>
     </g>
    </g>
    <g id="xtick_3">
     <g id="text_3">
      <!-- 3 -->
      <g style="fill: #262626" transform="translate(441.219531 398.637812) scale(0.1 -0.1)">
       <defs>
        <path id="ArialMT-33" d="M 269 1209 
L 831 1284 
Q 928 806 1161 595 
Q 1394 384 1728 384 
Q 2125 384 2398 659 
Q 2672 934 2672 1341 
Q 2672 1728 2419 1979 
Q 2166 2231 1775 2231 
Q 1616 2231 1378 2169 
L 1441 2663 
Q 1497 2656 1531 2656 
Q 1891 2656 2178 2843 
Q 2466 3031 2466 3422 
Q 2466 3731 2256 3934 
Q 2047 4138 1716 4138 
Q 1388 4138 1169 3931 
Q 950 3725 888 3313 
L 325 3413 
Q 428 3978 793 4289 
Q 1159 4600 1703 4600 
Q 2078 4600 2393 4439 
Q 2709 4278 2876 4000 
Q 3044 3722 3044 3409 
Q 3044 3113 2884 2869 
Q 2725 2625 2413 2481 
Q 2819 2388 3044 2092 
Q 3269 1797 3269 1353 
Q 3269 753 2831 336 
Q 2394 -81 1725 -81 
Q 1122 -81 723 278 
Q 325 638 269 1209 
z
" transform="scale(0.015625)"/>
       </defs>
       <use xlink:href="#ArialMT-33"/>
      </g>
     </g>
    </g>
    <g id="text_4">
     <!-- Effort level -->
     <g style="fill: #262626" transform="translate(271.667969 411.783125) scale(0.1 -0.1)">
      <defs>
       <path id="ArialMT-45" d="M 506 0 
L 506 4581 
L 3819 4581 
L 3819 4041 
L 1113 4041 
L 1113 2638 
L 3647 2638 
L 3647 2100 
L 1113 2100 
L 1113 541 
L 3925 541 
L 3925 0 
L 506 0 
z
" transform="scale(0.015625)"/>
       <path id="ArialMT-66" d="M 556 0 
L 556 2881 
L 59 2881 
L 59 3319 
L 556 3319 
L 556 3672 
Q 556 4006 616 4169 
Q 697 4388 901 4523 
Q 1106 4659 1475 4659 
Q 1713 4659 2000 4603 
L 1916 4113 
Q 1741 4144 1584 4144 
Q 1328 4144 1222 4034 
Q 1116 3925 1116 3625 
L 1116 3319 
L 1763 3319 
L 1763 2881 
L 1116 2881 
L 1116 0 
L 556 0 
z
" transform="scale(0.015625)"/>
       <path id="ArialMT-6f" d="M 213 1659 
Q 213 2581 725 3025 
Q 1153 3394 1769 3394 
Q 2453 3394 2887 2945 
Q 3322 2497 3322 1706 
Q 3322 1066 3130 698 
Q 2938 331 2570 128 
Q 2203 -75 1769 -75 
Q 1072 -75 642 372 
Q 213 819 213 1659 
z
M 791 1659 
Q 791 1022 1069 705 
Q 1347 388 1769 388 
Q 2188 388 2466 706 
Q 2744 1025 2744 1678 
Q 2744 2294 2464 2611 
Q 2184 2928 1769 2928 
Q 1347 2928 1069 2612 
Q 791 2297 791 1659 
z
" transform="scale(0.015625)"/>
       <path id="ArialMT-72" d="M 416 0 
L 416 3319 
L 922 3319 
L 922 2816 
Q 1116 3169 1280 3281 
Q 1444 3394 1641 3394 
Q 1925 3394 2219 3213 
L 2025 2691 
Q 1819 2813 1613 2813 
Q 1428 2813 1281 2702 
Q 1134 2591 1072 2394 
Q 978 2094 978 1738 
L 978 0 
L 416 0 
z
" transform="scale(0.015625)"/>
       <path id="ArialMT-74" d="M 1650 503 
L 1731 6 
Q 1494 -44 1306 -44 
Q 1000 -44 831 53 
Q 663 150 594 308 
Q 525 466 525 972 
L 525 2881 
L 113 2881 
L 113 3319 
L 525 3319 
L 525 4141 
L 1084 4478 
L 1084 3319 
L 1650 3319 
L 1650 2881 
L 1084 2881 
L 1084 941 
Q 1084 700 1114 631 
Q 1144 563 1211 522 
Q 1278 481 1403 481 
Q 1497 481 1650 503 
z
" transform="scale(0.015625)"/>
       <path id="ArialMT-20" transform="scale(0.015625)"/>
       <path id="ArialMT-6c" d="M 409 0 
L 409 4581 
L 972 4581 
L 972 0 
L 409 0 
z
" transform="scale(0.015625)"/>
       <path id="ArialMT-65" d="M 2694 1069 
L 3275 997 
Q 3138 488 2766 206 
Q 2394 -75 1816 -75 
Q 1088 -75 661 373 
Q 234 822 234 1631 
Q 234 2469 665 2931 
Q 1097 3394 1784 3394 
Q 2450 3394 2872 2941 
Q 3294 2488 3294 1666 
Q 3294 1616 3291 1516 
L 816 1516 
Q 847 969 1125 678 
Q 1403 388 1819 388 
Q 2128 388 2347 550 
Q 2566 713 2694 1069 
z
M 847 1978 
L 2700 1978 
Q 2663 2397 2488 2606 
Q 2219 2931 1791 2931 
Q 1403 2931 1139 2672 
Q 875 2413 847 1978 
z
" transform="scale(0.015625)"/>
       <path id="ArialMT-76" d="M 1344 0 
L 81 3319 
L 675 3319 
L 1388 1331 
Q 1503 1009 1600 663 
Q 1675 925 1809 1294 
L 2547 3319 
L 3125 3319 
L 1869 0 
L 1344 0 
z
" transform="scale(0.015625)"/>
      </defs>
      <use xlink:href="#ArialMT-45"/>
      <use xlink:href="#ArialMT-66" x="66.699219"/>
      <use xlink:href="#ArialMT-66" x="92.732422"/>
      <use xlink:href="#ArialMT-6f" x="120.515625"/>
      <use xlink:href="#ArialMT-72" x="176.130859"/>
      <use xlink:href="#ArialMT-74" x="209.431641"/>
      <use xlink:href="#ArialMT-20" x="237.214844"/>
      <use xlink:href="#ArialMT-6c" x="264.998047"/>
      <use xlink:href="#ArialMT-65" x="287.214844"/>
      <use xlink:href="#ArialMT-76" x="342.830078"/>
      <use xlink:href="#ArialMT-65" x="392.830078"/>
      <use xlink:href="#ArialMT-6c" x="448.445312"/>
     </g>
    </g>
   </g>
   <g id="matplotlib.axis_2">
    <g id="ytick_1">
     <g id="line2d_1">
      <path d="M 72 331.686306 
L 518.4 331.686306 
" clip-path="url(#p578f269d78)" style="fill: none; stroke: #cccccc; stroke-width: 0.8; stroke-linecap: round"/>
     </g>
     <g id="text_5">
      <!-- 0 -->
      <g style="fill: #262626" transform="translate(59.439062 335.265212) scale(0.1 -0.1)">
       <defs>
        <path id="ArialMT-30" d="M 266 2259 
Q 266 3072 433 3567 
Q 600 4063 929 4331 
Q 1259 4600 1759 4600 
Q 2128 4600 2406 4451 
Q 2684 4303 2865 4023 
Q 3047 3744 3150 3342 
Q 3253 2941 3253 2259 
Q 3253 1453 3087 958 
Q 2922 463 2592 192 
Q 2263 -78 1759 -78 
Q 1097 -78 719 397 
Q 266 969 266 2259 
z
M 844 2259 
Q 844 1131 1108 757 
Q 1372 384 1759 384 
Q 2147 384 2411 759 
Q 2675 1134 2675 2259 
Q 2675 3391 2411 3762 
Q 2147 4134 1753 4134 
Q 1366 4134 1134 3806 
Q 844 3388 844 2259 
z
" transform="scale(0.015625)"/>
       </defs>
       <use xlink:href="#ArialMT-30"/>
      </g>
     </g>
    </g>
    <g id="ytick_2">
     <g id="line2d_2">
      <path d="M 72 260.64254 
L 518.4 260.64254 
" clip-path="url(#p578f269d78)" style="fill: none; stroke: #cccccc; stroke-width: 0.8; stroke-linecap: round"/>
     </g>
     <g id="text_6">
      <!-- 200 -->
      <g style="fill: #262626" transform="translate(48.317188 264.221447) scale(0.1 -0.1)">
       <use xlink:href="#ArialMT-32"/>
       <use xlink:href="#ArialMT-30" x="55.615234"/>
       <use xlink:href="#ArialMT-30" x="111.230469"/>
      </g>
     </g>
    </g>
    <g id="ytick_3">
     <g id="line2d_3">
      <path d="M 72 189.598775 
L 518.4 189.598775 
" clip-path="url(#p578f269d78)" style="fill: none; stroke: #cccccc; stroke-width: 0.8; stroke-linecap: round"/>
     </g>
     <g id="text_7">
      <!-- 400 -->
      <g style="fill: #262626" transform="translate(48.317188 193.177681) scale(0.1 -0.1)">
       <defs>
        <path id="ArialMT-34" d="M 2069 0 
L 2069 1097 
L 81 1097 
L 81 1613 
L 2172 4581 
L 2631 4581 
L 2631 1613 
L 3250 1613 
L 3250 1097 
L 2631 1097 
L 2631 0 
L 2069 0 
z
M 2069 1613 
L 2069 3678 
L 634 1613 
L 2069 1613 
z
" transform="scale(0.015625)"/>
       </defs>
       <use xlink:href="#ArialMT-34"/>
       <use xlink:href="#ArialMT-30" x="55.615234"/>
       <use xlink:href="#ArialMT-30" x="111.230469"/>
      </g>
     </g>
    </g>
    <g id="ytick_4">
     <g id="line2d_4">
      <path d="M 72 118.55501 
L 518.4 118.55501 
" clip-path="url(#p578f269d78)" style="fill: none; stroke: #cccccc; stroke-width: 0.8; stroke-linecap: round"/>
     </g>
     <g id="text_8">
      <!-- 600 -->
      <g style="fill: #262626" transform="translate(48.317188 122.133916) scale(0.1 -0.1)">
       <defs>
        <path id="ArialMT-36" d="M 3184 3459 
L 2625 3416 
Q 2550 3747 2413 3897 
Q 2184 4138 1850 4138 
Q 1581 4138 1378 3988 
Q 1113 3794 959 3422 
Q 806 3050 800 2363 
Q 1003 2672 1297 2822 
Q 1591 2972 1913 2972 
Q 2475 2972 2870 2558 
Q 3266 2144 3266 1488 
Q 3266 1056 3080 686 
Q 2894 316 2569 119 
Q 2244 -78 1831 -78 
Q 1128 -78 684 439 
Q 241 956 241 2144 
Q 241 3472 731 4075 
Q 1159 4600 1884 4600 
Q 2425 4600 2770 4297 
Q 3116 3994 3184 3459 
z
M 888 1484 
Q 888 1194 1011 928 
Q 1134 663 1356 523 
Q 1578 384 1822 384 
Q 2178 384 2434 671 
Q 2691 959 2691 1453 
Q 2691 1928 2437 2201 
Q 2184 2475 1800 2475 
Q 1419 2475 1153 2201 
Q 888 1928 888 1484 
z
" transform="scale(0.015625)"/>
       </defs>
       <use xlink:href="#ArialMT-36"/>
       <use xlink:href="#ArialMT-30" x="55.615234"/>
       <use xlink:href="#ArialMT-30" x="111.230469"/>
      </g>
     </g>
    </g>
    <g id="text_9">
     <!-- Total energy (kcal/h) -->
     <g style="fill: #262626" transform="translate(42.2125 263.174062) rotate(-90) scale(0.1 -0.1)">
      <defs>
       <path id="ArialMT-54" d="M 1659 0 
L 1659 4041 
L 150 4041 
L 150 4581 
L 3781 4581 
L 3781 4041 
L 2266 4041 
L 2266 0 
L 1659 0 
z
" transform="scale(0.015625)"/>
       <path id="ArialMT-61" d="M 2588 409 
Q 2275 144 1986 34 
Q 1697 -75 1366 -75 
Q 819 -75 525 192 
Q 231 459 231 875 
Q 231 1119 342 1320 
Q 453 1522 633 1644 
Q 813 1766 1038 1828 
Q 1203 1872 1538 1913 
Q 2219 1994 2541 2106 
Q 2544 2222 2544 2253 
Q 2544 2597 2384 2738 
Q 2169 2928 1744 2928 
Q 1347 2928 1158 2789 
Q 969 2650 878 2297 
L 328 2372 
Q 403 2725 575 2942 
Q 747 3159 1072 3276 
Q 1397 3394 1825 3394 
Q 2250 3394 2515 3294 
Q 2781 3194 2906 3042 
Q 3031 2891 3081 2659 
Q 3109 2516 3109 2141 
L 3109 1391 
Q 3109 606 3145 398 
Q 3181 191 3288 0 
L 2700 0 
Q 2613 175 2588 409 
z
M 2541 1666 
Q 2234 1541 1622 1453 
Q 1275 1403 1131 1340 
Q 988 1278 909 1158 
Q 831 1038 831 891 
Q 831 666 1001 516 
Q 1172 366 1500 366 
Q 1825 366 2078 508 
Q 2331 650 2450 897 
Q 2541 1088 2541 1459 
L 2541 1666 
z
" transform="scale(0.015625)"/>
       <path id="ArialMT-6e" d="M 422 0 
L 422 3319 
L 928 3319 
L 928 2847 
Q 1294 3394 1984 3394 
Q 2284 3394 2536 3286 
Q 2788 3178 2913 3003 
Q 3038 2828 3088 2588 
Q 3119 2431 3119 2041 
L 3119 0 
L 2556 0 
L 2556 2019 
Q 2556 2363 2490 2533 
Q 2425 2703 2258 2804 
Q 2091 2906 1866 2906 
Q 1506 2906 1245 2678 
Q 984 2450 984 1813 
L 984 0 
L 422 0 
z
" transform="scale(0.015625)"/>
       <path id="ArialMT-67" d="M 319 -275 
L 866 -356 
Q 900 -609 1056 -725 
Q 1266 -881 1628 -881 
Q 2019 -881 2231 -725 
Q 2444 -569 2519 -288 
Q 2563 -116 2559 434 
Q 2191 0 1641 0 
Q 956 0 581 494 
Q 206 988 206 1678 
Q 206 2153 378 2554 
Q 550 2956 876 3175 
Q 1203 3394 1644 3394 
Q 2231 3394 2613 2919 
L 2613 3319 
L 3131 3319 
L 3131 450 
Q 3131 -325 2973 -648 
Q 2816 -972 2473 -1159 
Q 2131 -1347 1631 -1347 
Q 1038 -1347 672 -1080 
Q 306 -813 319 -275 
z
M 784 1719 
Q 784 1066 1043 766 
Q 1303 466 1694 466 
Q 2081 466 2343 764 
Q 2606 1063 2606 1700 
Q 2606 2309 2336 2618 
Q 2066 2928 1684 2928 
Q 1309 2928 1046 2623 
Q 784 2319 784 1719 
z
" transform="scale(0.015625)"/>
       <path id="ArialMT-79" d="M 397 -1278 
L 334 -750 
Q 519 -800 656 -800 
Q 844 -800 956 -737 
Q 1069 -675 1141 -563 
Q 1194 -478 1313 -144 
Q 1328 -97 1363 -6 
L 103 3319 
L 709 3319 
L 1400 1397 
Q 1534 1031 1641 628 
Q 1738 1016 1872 1384 
L 2581 3319 
L 3144 3319 
L 1881 -56 
Q 1678 -603 1566 -809 
Q 1416 -1088 1222 -1217 
Q 1028 -1347 759 -1347 
Q 597 -1347 397 -1278 
z
" transform="scale(0.015625)"/>
       <path id="ArialMT-28" d="M 1497 -1347 
Q 1031 -759 709 28 
Q 388 816 388 1659 
Q 388 2403 628 3084 
Q 909 3875 1497 4659 
L 1900 4659 
Q 1522 4009 1400 3731 
Q 1209 3300 1100 2831 
Q 966 2247 966 1656 
Q 966 153 1900 -1347 
L 1497 -1347 
z
" transform="scale(0.015625)"/>
       <path id="ArialMT-6b" d="M 425 0 
L 425 4581 
L 988 4581 
L 988 1969 
L 2319 3319 
L 3047 3319 
L 1778 2088 
L 3175 0 
L 2481 0 
L 1384 1697 
L 988 1316 
L 988 0 
L 425 0 
z
" transform="scale(0.015625)"/>
       <path id="ArialMT-63" d="M 2588 1216 
L 3141 1144 
Q 3050 572 2676 248 
Q 2303 -75 1759 -75 
Q 1078 -75 664 370 
Q 250 816 250 1647 
Q 250 2184 428 2587 
Q 606 2991 970 3192 
Q 1334 3394 1763 3394 
Q 2303 3394 2647 3120 
Q 2991 2847 3088 2344 
L 2541 2259 
Q 2463 2594 2264 2762 
Q 2066 2931 1784 2931 
Q 1359 2931 1093 2626 
Q 828 2322 828 1663 
Q 828 994 1084 691 
Q 1341 388 1753 388 
Q 2084 388 2306 591 
Q 2528 794 2588 1216 
z
" transform="scale(0.015625)"/>
       <path id="ArialMT-2f" d="M 0 -78 
L 1328 4659 
L 1778 4659 
L 453 -78 
L 0 -78 
z
" transform="scale(0.015625)"/>
       <path id="ArialMT-68" d="M 422 0 
L 422 4581 
L 984 4581 
L 984 2938 
Q 1378 3394 1978 3394 
Q 2347 3394 2619 3248 
Q 2891 3103 3008 2847 
Q 3125 2591 3125 2103 
L 3125 0 
L 2563 0 
L 2563 2103 
Q 2563 2525 2380 2717 
Q 2197 2909 1863 2909 
Q 1613 2909 1392 2779 
Q 1172 2650 1078 2428 
Q 984 2206 984 1816 
L 984 0 
L 422 0 
z
" transform="scale(0.015625)"/>
       <path id="ArialMT-29" d="M 791 -1347 
L 388 -1347 
Q 1322 153 1322 1656 
Q 1322 2244 1188 2822 
Q 1081 3291 891 3722 
Q 769 4003 388 4659 
L 791 4659 
Q 1378 3875 1659 3084 
Q 1900 2403 1900 1659 
Q 1900 816 1576 28 
Q 1253 -759 791 -1347 
z
" transform="scale(0.015625)"/>
      </defs>
      <use xlink:href="#ArialMT-54"/>
      <use xlink:href="#ArialMT-6f" x="49.958984"/>
      <use xlink:href="#ArialMT-74" x="105.574219"/>
      <use xlink:href="#ArialMT-61" x="133.357422"/>
      <use xlink:href="#ArialMT-6c" x="188.972656"/>
      <use xlink:href="#ArialMT-20" x="211.189453"/>
      <use xlink:href="#ArialMT-65" x="238.972656"/>
      <use xlink:href="#ArialMT-6e" x="294.587891"/>
      <use xlink:href="#ArialMT-65" x="350.203125"/>
      <use xlink:href="#ArialMT-72" x="405.818359"/>
      <use xlink:href="#ArialMT-67" x="439.119141"/>
      <use xlink:href="#ArialMT-79" x="494.734375"/>
      <use xlink:href="#ArialMT-20" x="544.734375"/>
      <use xlink:href="#ArialMT-28" x="572.517578"/>
      <use xlink:href="#ArialMT-6b" x="605.818359"/>
      <use xlink:href="#ArialMT-63" x="655.818359"/>
      <use xlink:href="#ArialMT-61" x="705.818359"/>
      <use xlink:href="#ArialMT-6c" x="761.433594"/>
      <use xlink:href="#ArialMT-2f" x="783.650391"/>
      <use xlink:href="#ArialMT-68" x="811.433594"/>
      <use xlink:href="#ArialMT-29" x="867.048828"/>
     </g>
    </g>
   </g>
   <g id="PolyCollection_1">
    <defs>
     <path id="m8d60245221" d="M 116.821231 -120.41384 
L 116.458769 -120.41384 
L 116.392196 -122.838594 
L 116.30828 -125.263349 
L 116.20492 -127.688103 
L 116.080329 -130.112858 
L 115.933047 -132.537612 
L 115.761822 -134.962367 
L 115.565341 -137.387122 
L 115.341814 -139.811876 
L 115.088425 -142.236631 
L 114.800727 -144.661385 
L 114.472081 -147.08614 
L 114.093218 -149.510894 
L 113.652065 -151.935649 
L 113.133898 -154.360404 
L 112.521881 -156.785158 
L 111.797988 -159.209913 
L 110.944282 -161.634667 
L 109.944448 -164.059422 
L 108.785519 -166.484176 
L 107.459637 -168.908931 
L 105.965784 -171.333685 
L 104.311334 -173.75844 
L 102.513332 -176.183195 
L 100.599358 -178.607949 
L 98.607839 -181.032704 
L 96.587646 -183.457458 
L 94.596837 -185.882213 
L 92.700439 -188.306967 
L 90.967269 -190.731722 
L 89.465894 -193.156476 
L 88.259993 -195.581231 
L 87.403532 -198.005986 
L 86.936251 -200.43074 
L 86.88 -202.855495 
L 87.236425 -205.280249 
L 87.986323 -207.705004 
L 89.090811 -210.129758 
L 90.494197 -212.554513 
L 92.128223 -214.979268 
L 93.917186 -217.404022 
L 95.783385 -219.828777 
L 97.652333 -222.253531 
L 99.457296 -224.678286 
L 101.142842 -227.10304 
L 102.667232 -229.527795 
L 104.003629 -231.952549 
L 105.140164 -234.377304 
L 106.078997 -236.802059 
L 106.834503 -239.226813 
L 107.430771 -241.651568 
L 107.898606 -244.076322 
L 108.272294 -246.501077 
L 108.586363 -248.925831 
L 108.872664 -251.350586 
L 109.157992 -253.77534 
L 109.462491 -256.200095 
L 109.798929 -258.62485 
L 110.172839 -261.049604 
L 110.583414 -263.474359 
L 111.024917 -265.899113 
L 111.488355 -268.323868 
L 111.963131 -270.748622 
L 112.438457 -273.173377 
L 112.904384 -275.598132 
L 113.352402 -278.022886 
L 113.775649 -280.447641 
L 114.168815 -282.872395 
L 114.527886 -285.29715 
L 114.849825 -287.721904 
L 115.132311 -290.146659 
L 115.373578 -292.571413 
L 115.572373 -294.996168 
L 115.728032 -297.420923 
L 115.840635 -299.845677 
L 115.911202 -302.270432 
L 115.941894 -304.695186 
L 115.936179 -307.119941 
L 115.898916 -309.544695 
L 115.83634 -311.96945 
L 115.755901 -314.394204 
L 115.665959 -316.818959 
L 115.575325 -319.243714 
L 115.492686 -321.668468 
L 115.425958 -324.093223 
L 115.381654 -326.517977 
L 115.364345 -328.942732 
L 115.376297 -331.367486 
L 115.417343 -333.792241 
L 115.485021 -336.216996 
L 115.574945 -338.64175 
L 115.681372 -341.066505 
L 115.797869 -343.491259 
L 115.917989 -345.916014 
L 116.035868 -348.340768 
L 116.14667 -350.765523 
L 116.24685 -353.190277 
L 116.334232 -355.615032 
L 116.407921 -358.039787 
L 116.468094 -360.464541 
L 116.811906 -360.464541 
L 116.811906 -360.464541 
L 116.872079 -358.039787 
L 116.945768 -355.615032 
L 117.03315 -353.190277 
L 117.13333 -350.765523 
L 117.244132 -348.340768 
L 117.362011 -345.916014 
L 117.482131 -343.491259 
L 117.598628 -341.066505 
L 117.705055 -338.64175 
L 117.794979 -336.216996 
L 117.862657 -333.792241 
L 117.903703 -331.367486 
L 117.915655 -328.942732 
L 117.898346 -326.517977 
L 117.854042 -324.093223 
L 117.787314 -321.668468 
L 117.704675 -319.243714 
L 117.614041 -316.818959 
L 117.524099 -314.394204 
L 117.44366 -311.96945 
L 117.381084 -309.544695 
L 117.343821 -307.119941 
L 117.338106 -304.695186 
L 117.368798 -302.270432 
L 117.439365 -299.845677 
L 117.551968 -297.420923 
L 117.707627 -294.996168 
L 117.906422 -292.571413 
L 118.147689 -290.146659 
L 118.430175 -287.721904 
L 118.752114 -285.29715 
L 119.111185 -282.872395 
L 119.504351 -280.447641 
L 119.927598 -278.022886 
L 120.375616 -275.598132 
L 120.841543 -273.173377 
L 121.316869 -270.748622 
L 121.791645 -268.323868 
L 122.255083 -265.899113 
L 122.696586 -263.474359 
L 123.107161 -261.049604 
L 123.481071 -258.62485 
L 123.817509 -256.200095 
L 124.122008 -253.77534 
L 124.407336 -251.350586 
L 124.693637 -248.925831 
L 125.007706 -246.501077 
L 125.381394 -244.076322 
L 125.849229 -241.651568 
L 126.445497 -239.226813 
L 127.201003 -236.802059 
L 128.139836 -234.377304 
L 129.276371 -231.952549 
L 130.612768 -229.527795 
L 132.137158 -227.10304 
L 133.822704 -224.678286 
L 135.627667 -222.253531 
L 137.496615 -219.828777 
L 139.362814 -217.404022 
L 141.151777 -214.979268 
L 142.785803 -212.554513 
L 144.189189 -210.129758 
L 145.293677 -207.705004 
L 146.043575 -205.280249 
L 146.4 -202.855495 
L 146.343749 -200.43074 
L 145.876468 -198.005986 
L 145.020007 -195.581231 
L 143.814106 -193.156476 
L 142.312731 -190.731722 
L 140.579561 -188.306967 
L 138.683163 -185.882213 
L 136.692354 -183.457458 
L 134.672161 -181.032704 
L 132.680642 -178.607949 
L 130.766668 -176.183195 
L 128.968666 -173.75844 
L 127.314216 -171.333685 
L 125.820363 -168.908931 
L 124.494481 -166.484176 
L 123.335552 -164.059422 
L 122.335718 -161.634667 
L 121.482012 -159.209913 
L 120.758119 -156.785158 
L 120.146102 -154.360404 
L 119.627935 -151.935649 
L 119.186782 -149.510894 
L 118.807919 -147.08614 
L 118.479273 -144.661385 
L 118.191575 -142.236631 
L 117.938186 -139.811876 
L 117.714659 -137.387122 
L 117.518178 -134.962367 
L 117.346953 -132.537612 
L 117.199671 -130.112858 
L 117.07508 -127.688103 
L 116.97172 -125.263349 
L 116.887804 -122.838594 
L 116.821231 -120.41384 
z
" style="stroke: #3f3f3f; stroke-width: 1.25"/>
    </defs>
    <g clip-path="url(#p578f269d78)">
     <use xlink:href="#m8d60245221" x="0" y="432" style="fill: #3274a1; stroke: #3f3f3f; stroke-width: 1.25"/>
    </g>
   </g>
   <g id="PolyCollection_2">
    <defs>
     <path id="ma0914b4549" d="M 176.486554 -124.702361 
L 175.833446 -124.702361 
L 175.723503 -126.428122 
L 175.584845 -128.153882 
L 175.412742 -129.879642 
L 175.20248 -131.605402 
L 174.949588 -133.331162 
L 174.650092 -135.056922 
L 174.300779 -136.782683 
L 173.899447 -138.508443 
L 173.445124 -140.234203 
L 172.938221 -141.959963 
L 172.380604 -143.685723 
L 171.775569 -145.411483 
L 171.127693 -147.137244 
L 170.442584 -148.863004 
L 169.726517 -150.588764 
L 168.985986 -152.314524 
L 168.227221 -154.040284 
L 167.45569 -155.766044 
L 166.675671 -157.491804 
L 165.889925 -159.217565 
L 165.099542 -160.943325 
L 164.30399 -162.669085 
L 163.501402 -164.394845 
L 162.689068 -166.120605 
L 161.864133 -167.846365 
L 161.0244 -169.572126 
L 160.16917 -171.297886 
L 159.300006 -173.023646 
L 158.421301 -174.749406 
L 157.540582 -176.475166 
L 156.668455 -178.200926 
L 155.818183 -179.926687 
L 155.00491 -181.652447 
L 154.2446 -183.378207 
L 153.552793 -185.103967 
L 152.943332 -186.829727 
L 152.427191 -188.555487 
L 152.011563 -190.281248 
L 151.699322 -192.007008 
L 151.488937 -193.732768 
L 151.37487 -195.458528 
L 151.348416 -197.184288 
L 151.398907 -198.910048 
L 151.515131 -200.635809 
L 151.686791 -202.361569 
L 151.905825 -204.087329 
L 152.167395 -205.813089 
L 152.470413 -207.538849 
L 152.817498 -209.264609 
L 153.214367 -210.990369 
L 153.668708 -212.71613 
L 154.18868 -214.44189 
L 154.781242 -216.16765 
L 155.45053 -217.89341 
L 156.196531 -219.61917 
L 157.014248 -221.34493 
L 157.893482 -223.070691 
L 158.819293 -224.796451 
L 159.773096 -226.522211 
L 160.734231 -228.247971 
L 161.681833 -229.973731 
L 162.596727 -231.699491 
L 163.463118 -233.425252 
L 164.269844 -235.151012 
L 165.011065 -236.876772 
L 165.6863 -238.602532 
L 166.29986 -240.328292 
L 166.859781 -242.054052 
L 167.376429 -243.779813 
L 167.860994 -245.505573 
L 168.324063 -247.231333 
L 168.774469 -248.957093 
L 169.218527 -250.682853 
L 169.659703 -252.408613 
L 170.098718 -254.134374 
L 170.534001 -255.860134 
L 170.962381 -257.585894 
L 171.37987 -259.311654 
L 171.782422 -261.037414 
L 172.166559 -262.763174 
L 172.529778 -264.488934 
L 172.870739 -266.214695 
L 173.189228 -267.940455 
L 173.485951 -269.666215 
L 173.762227 -271.391975 
L 174.019643 -273.117735 
L 174.259743 -274.843495 
L 174.483791 -276.569256 
L 174.692639 -278.295016 
L 174.886696 -280.020776 
L 175.065997 -281.746536 
L 175.230321 -283.472296 
L 175.379358 -285.198056 
L 175.512857 -286.923817 
L 175.630762 -288.649577 
L 175.733299 -290.375337 
L 175.821014 -292.101097 
L 175.894768 -293.826857 
L 175.955688 -295.552617 
L 176.364312 -295.552617 
L 176.364312 -295.552617 
L 176.425232 -293.826857 
L 176.498986 -292.101097 
L 176.586701 -290.375337 
L 176.689238 -288.649577 
L 176.807143 -286.923817 
L 176.940642 -285.198056 
L 177.089679 -283.472296 
L 177.254003 -281.746536 
L 177.433304 -280.020776 
L 177.627361 -278.295016 
L 177.836209 -276.569256 
L 178.060257 -274.843495 
L 178.300357 -273.117735 
L 178.557773 -271.391975 
L 178.834049 -269.666215 
L 179.130772 -267.940455 
L 179.449261 -266.214695 
L 179.790222 -264.488934 
L 180.153441 -262.763174 
L 180.537578 -261.037414 
L 180.94013 -259.311654 
L 181.357619 -257.585894 
L 181.785999 -255.860134 
L 182.221282 -254.134374 
L 182.660297 -252.408613 
L 183.101473 -250.682853 
L 183.545531 -248.957093 
L 183.995937 -247.231333 
L 184.459006 -245.505573 
L 184.943571 -243.779813 
L 185.460219 -242.054052 
L 186.02014 -240.328292 
L 186.6337 -238.602532 
L 187.308935 -236.876772 
L 188.050156 -235.151012 
L 188.856882 -233.425252 
L 189.723273 -231.699491 
L 190.638167 -229.973731 
L 191.585769 -228.247971 
L 192.546904 -226.522211 
L 193.500707 -224.796451 
L 194.426518 -223.070691 
L 195.305752 -221.34493 
L 196.123469 -219.61917 
L 196.86947 -217.89341 
L 197.538758 -216.16765 
L 198.13132 -214.44189 
L 198.651292 -212.71613 
L 199.105633 -210.990369 
L 199.502502 -209.264609 
L 199.849587 -207.538849 
L 200.152605 -205.813089 
L 200.414175 -204.087329 
L 200.633209 -202.361569 
L 200.804869 -200.635809 
L 200.921093 -198.910048 
L 200.971584 -197.184288 
L 200.94513 -195.458528 
L 200.831063 -193.732768 
L 200.620678 -192.007008 
L 200.308437 -190.281248 
L 199.892809 -188.555487 
L 199.376668 -186.829727 
L 198.767207 -185.103967 
L 198.0754 -183.378207 
L 197.31509 -181.652447 
L 196.501817 -179.926687 
L 195.651545 -178.200926 
L 194.779418 -176.475166 
L 193.898699 -174.749406 
L 193.019994 -173.023646 
L 192.15083 -171.297886 
L 191.2956 -169.572126 
L 190.455867 -167.846365 
L 189.630932 -166.120605 
L 188.818598 -164.394845 
L 188.01601 -162.669085 
L 187.220458 -160.943325 
L 186.430075 -159.217565 
L 185.644329 -157.491804 
L 184.86431 -155.766044 
L 184.092779 -154.040284 
L 183.334014 -152.314524 
L 182.593483 -150.588764 
L 181.877416 -148.863004 
L 181.192307 -147.137244 
L 180.544431 -145.411483 
L 179.939396 -143.685723 
L 179.381779 -141.959963 
L 178.874876 -140.234203 
L 178.420553 -138.508443 
L 178.019221 -136.782683 
L 177.669908 -135.056922 
L 177.370412 -133.331162 
L 177.11752 -131.605402 
L 176.907258 -129.879642 
L 176.735155 -128.153882 
L 176.596497 -126.428122 
L 176.486554 -124.702361 
z
" style="stroke: #3f3f3f; stroke-width: 1.25"/>
    </defs>
    <g clip-path="url(#p578f269d78)">
     <use xlink:href="#ma0914b4549" x="0" y="432" style="fill: #e1812c; stroke: #3f3f3f; stroke-width: 1.25"/>
    </g>
   </g>
   <g id="PolyCollection_3">
    <defs>
     <path id="me7bf964aa8" d="M 265.660458 -125.099477 
L 265.219542 -125.099477 
L 265.143064 -127.116452 
L 265.047167 -129.133427 
L 264.929313 -131.150402 
L 264.787282 -133.167377 
L 264.619311 -135.184352 
L 264.424199 -137.201327 
L 264.201344 -139.218302 
L 263.950697 -141.235277 
L 263.672641 -143.252252 
L 263.367782 -145.269227 
L 263.036703 -147.286202 
L 262.679694 -149.303177 
L 262.296515 -151.320152 
L 261.886231 -153.337128 
L 261.44714 -155.354103 
L 260.976815 -157.371078 
L 260.472253 -159.388053 
L 259.930086 -161.405028 
L 259.346829 -163.422003 
L 258.719091 -165.438978 
L 258.043733 -167.455953 
L 257.317929 -169.472928 
L 256.539142 -171.489903 
L 255.705057 -173.506878 
L 254.813523 -175.523853 
L 253.862581 -177.540828 
L 252.850651 -179.557803 
L 251.776919 -181.574778 
L 250.64195 -183.591753 
L 249.448481 -185.608728 
L 248.202311 -187.625703 
L 246.913185 -189.642678 
L 245.595511 -191.659653 
L 244.268776 -193.676628 
L 242.957537 -195.693603 
L 241.690911 -197.710578 
L 240.501534 -199.727553 
L 239.424025 -201.744528 
L 238.493071 -203.761503 
L 237.741267 -205.778478 
L 237.196913 -207.795453 
L 236.881967 -209.812428 
L 236.810357 -211.829404 
L 236.98683 -213.846379 
L 237.406456 -215.863354 
L 238.054859 -217.880329 
L 238.909174 -219.897304 
L 239.939631 -221.914279 
L 241.111635 -223.931254 
L 242.388136 -225.948229 
L 243.732043 -227.965204 
L 245.108453 -229.982179 
L 246.486482 -231.999154 
L 247.840518 -234.016129 
L 249.150829 -236.033104 
L 250.403511 -238.050079 
L 251.589867 -240.067054 
L 252.705363 -242.084029 
L 253.748385 -244.101004 
L 254.718999 -246.117979 
L 255.61791 -248.134954 
L 256.445775 -250.151929 
L 257.202918 -252.168904 
L 257.889446 -254.185879 
L 258.505652 -256.202854 
L 259.052576 -258.219829 
L 259.532547 -260.236804 
L 259.949557 -262.253779 
L 260.309362 -264.270754 
L 260.619266 -266.287729 
L 260.887631 -268.304704 
L 261.123192 -270.32168 
L 261.33432 -272.338655 
L 261.528363 -274.35563 
L 261.711187 -276.372605 
L 261.886983 -278.38958 
L 262.058341 -280.406555 
L 262.226571 -282.42353 
L 262.392148 -284.440505 
L 262.555202 -286.45748 
L 262.715921 -288.474455 
L 262.874813 -290.49143 
L 263.032769 -292.508405 
L 263.190955 -294.52538 
L 263.350561 -296.542355 
L 263.512501 -298.55933 
L 263.67712 -300.576305 
L 263.844 -302.59328 
L 264.01189 -304.610255 
L 264.178777 -306.62723 
L 264.342091 -308.644205 
L 264.498984 -310.66118 
L 264.646651 -312.678155 
L 264.782622 -314.69513 
L 264.904997 -316.712105 
L 265.012589 -318.72908 
L 265.104968 -320.746055 
L 265.182415 -322.76303 
L 265.245813 -324.780005 
L 265.634187 -324.780005 
L 265.634187 -324.780005 
L 265.697585 -322.76303 
L 265.775032 -320.746055 
L 265.867411 -318.72908 
L 265.975003 -316.712105 
L 266.097378 -314.69513 
L 266.233349 -312.678155 
L 266.381016 -310.66118 
L 266.537909 -308.644205 
L 266.701223 -306.62723 
L 266.86811 -304.610255 
L 267.036 -302.59328 
L 267.20288 -300.576305 
L 267.367499 -298.55933 
L 267.529439 -296.542355 
L 267.689045 -294.52538 
L 267.847231 -292.508405 
L 268.005187 -290.49143 
L 268.164079 -288.474455 
L 268.324798 -286.45748 
L 268.487852 -284.440505 
L 268.653429 -282.42353 
L 268.821659 -280.406555 
L 268.993017 -278.38958 
L 269.168813 -276.372605 
L 269.351637 -274.35563 
L 269.54568 -272.338655 
L 269.756808 -270.32168 
L 269.992369 -268.304704 
L 270.260734 -266.287729 
L 270.570638 -264.270754 
L 270.930443 -262.253779 
L 271.347453 -260.236804 
L 271.827424 -258.219829 
L 272.374348 -256.202854 
L 272.990554 -254.185879 
L 273.677082 -252.168904 
L 274.434225 -250.151929 
L 275.26209 -248.134954 
L 276.161001 -246.117979 
L 277.131615 -244.101004 
L 278.174637 -242.084029 
L 279.290133 -240.067054 
L 280.476489 -238.050079 
L 281.729171 -236.033104 
L 283.039482 -234.016129 
L 284.393518 -231.999154 
L 285.771547 -229.982179 
L 287.147957 -227.965204 
L 288.491864 -225.948229 
L 289.768365 -223.931254 
L 290.940369 -221.914279 
L 291.970826 -219.897304 
L 292.825141 -217.880329 
L 293.473544 -215.863354 
L 293.89317 -213.846379 
L 294.069643 -211.829404 
L 293.998033 -209.812428 
L 293.683087 -207.795453 
L 293.138733 -205.778478 
L 292.386929 -203.761503 
L 291.455975 -201.744528 
L 290.378466 -199.727553 
L 289.189089 -197.710578 
L 287.922463 -195.693603 
L 286.611224 -193.676628 
L 285.284489 -191.659653 
L 283.966815 -189.642678 
L 282.677689 -187.625703 
L 281.431519 -185.608728 
L 280.23805 -183.591753 
L 279.103081 -181.574778 
L 278.029349 -179.557803 
L 277.017419 -177.540828 
L 276.066477 -175.523853 
L 275.174943 -173.506878 
L 274.340858 -171.489903 
L 273.562071 -169.472928 
L 272.836267 -167.455953 
L 272.160909 -165.438978 
L 271.533171 -163.422003 
L 270.949914 -161.405028 
L 270.407747 -159.388053 
L 269.903185 -157.371078 
L 269.43286 -155.354103 
L 268.993769 -153.337128 
L 268.583485 -151.320152 
L 268.200306 -149.303177 
L 267.843297 -147.286202 
L 267.512218 -145.269227 
L 267.207359 -143.252252 
L 266.929303 -141.235277 
L 266.678656 -139.218302 
L 266.455801 -137.201327 
L 266.260689 -135.184352 
L 266.092718 -133.167377 
L 265.950687 -131.150402 
L 265.832833 -129.133427 
L 265.736936 -127.116452 
L 265.660458 -125.099477 
z
" style="stroke: #3f3f3f; stroke-width: 1.25"/>
    </defs>
    <g clip-path="url(#p578f269d78)">
     <use xlink:href="#me7bf964aa8" x="0" y="432" style="fill: #3274a1; stroke: #3f3f3f; stroke-width: 1.25"/>
    </g>
   </g>
   <g id="PolyCollection_4">
    <defs>
     <path id="mb6fe3bc393" d="M 325.213947 -135.994994 
L 324.706053 -135.994994 
L 324.613918 -137.774226 
L 324.496044 -139.553459 
L 324.347695 -141.332691 
L 324.163797 -143.111923 
L 323.938941 -144.891156 
L 323.667329 -146.670388 
L 323.342674 -148.44962 
L 322.958066 -150.228853 
L 322.505815 -152.008085 
L 321.977341 -153.787317 
L 321.363166 -155.566549 
L 320.653079 -157.345782 
L 319.836548 -159.125014 
L 318.903418 -160.904246 
L 317.844906 -162.683479 
L 316.654851 -164.462711 
L 315.331115 -166.241943 
L 313.876997 -168.021176 
L 312.302464 -169.800408 
L 310.624998 -171.57964 
L 308.869879 -173.358873 
L 307.069772 -175.138105 
L 305.263547 -176.917337 
L 303.494382 -178.69657 
L 301.807294 -180.475802 
L 300.246306 -182.255034 
L 298.851557 -184.034267 
L 297.656666 -185.813499 
L 296.686616 -187.592731 
L 295.956393 -189.371963 
L 295.470485 -191.151196 
L 295.223243 -192.930428 
L 295.2 -194.70966 
L 295.378751 -196.488893 
L 295.732157 -198.268125 
L 296.229636 -200.047357 
L 296.839354 -201.82659 
L 297.529965 -203.605822 
L 298.272076 -205.385054 
L 299.039415 -207.164287 
L 299.80979 -208.943519 
L 300.565863 -210.722751 
L 301.295786 -212.501984 
L 301.99367 -214.281216 
L 302.659824 -216.060448 
L 303.300642 -217.839681 
L 303.928054 -219.618913 
L 304.558443 -221.398145 
L 305.211036 -223.177377 
L 305.905865 -224.95661 
L 306.661455 -226.735842 
L 307.492509 -228.515074 
L 308.407871 -230.294307 
L 309.409042 -232.073539 
L 310.489452 -233.852771 
L 311.634623 -235.632004 
L 312.8232 -237.411236 
L 314.028746 -239.190468 
L 315.222067 -240.969701 
L 316.373791 -242.748933 
L 317.456884 -244.528165 
L 318.448825 -246.307398 
L 319.333202 -248.08663 
L 320.10059 -249.865862 
L 320.748664 -251.645095 
L 321.281595 -253.424327 
L 321.708863 -255.203559 
L 322.04368 -256.982791 
L 322.301249 -258.762024 
L 322.49707 -260.541256 
L 322.645508 -262.320488 
L 322.758754 -264.099721 
L 322.846265 -265.878953 
L 322.91468 -267.658185 
L 322.968175 -269.437418 
L 323.009114 -271.21665 
L 323.038867 -272.995882 
L 323.058632 -274.775115 
L 323.070108 -276.554347 
L 323.07593 -278.333579 
L 323.07979 -280.112812 
L 323.086264 -281.892044 
L 323.100379 -283.671276 
L 323.127035 -285.450509 
L 323.170377 -287.229741 
L 323.233248 -289.008973 
L 323.316805 -290.788206 
L 323.420359 -292.567438 
L 323.541459 -294.34667 
L 323.676196 -296.125902 
L 323.819658 -297.905135 
L 323.966478 -299.684367 
L 324.111369 -301.463599 
L 324.249603 -303.242832 
L 324.377352 -305.022064 
L 324.491893 -306.801296 
L 324.591658 -308.580529 
L 324.676158 -310.359761 
L 324.745818 -312.138993 
L 325.174182 -312.138993 
L 325.174182 -312.138993 
L 325.243842 -310.359761 
L 325.328342 -308.580529 
L 325.428107 -306.801296 
L 325.542648 -305.022064 
L 325.670397 -303.242832 
L 325.808631 -301.463599 
L 325.953522 -299.684367 
L 326.100342 -297.905135 
L 326.243804 -296.125902 
L 326.378541 -294.34667 
L 326.499641 -292.567438 
L 326.603195 -290.788206 
L 326.686752 -289.008973 
L 326.749623 -287.229741 
L 326.792965 -285.450509 
L 326.819621 -283.671276 
L 326.833736 -281.892044 
L 326.84021 -280.112812 
L 326.84407 -278.333579 
L 326.849892 -276.554347 
L 326.861368 -274.775115 
L 326.881133 -272.995882 
L 326.910886 -271.21665 
L 326.951825 -269.437418 
L 327.00532 -267.658185 
L 327.073735 -265.878953 
L 327.161246 -264.099721 
L 327.274492 -262.320488 
L 327.42293 -260.541256 
L 327.618751 -258.762024 
L 327.87632 -256.982791 
L 328.211137 -255.203559 
L 328.638405 -253.424327 
L 329.171336 -251.645095 
L 329.81941 -249.865862 
L 330.586798 -248.08663 
L 331.471175 -246.307398 
L 332.463116 -244.528165 
L 333.546209 -242.748933 
L 334.697933 -240.969701 
L 335.891254 -239.190468 
L 337.0968 -237.411236 
L 338.285377 -235.632004 
L 339.430548 -233.852771 
L 340.510958 -232.073539 
L 341.512129 -230.294307 
L 342.427491 -228.515074 
L 343.258545 -226.735842 
L 344.014135 -224.95661 
L 344.708964 -223.177377 
L 345.361557 -221.398145 
L 345.991946 -219.618913 
L 346.619358 -217.839681 
L 347.260176 -216.060448 
L 347.92633 -214.281216 
L 348.624214 -212.501984 
L 349.354137 -210.722751 
L 350.11021 -208.943519 
L 350.880585 -207.164287 
L 351.647924 -205.385054 
L 352.390035 -203.605822 
L 353.080646 -201.82659 
L 353.690364 -200.047357 
L 354.187843 -198.268125 
L 354.541249 -196.488893 
L 354.72 -194.70966 
L 354.696757 -192.930428 
L 354.449515 -191.151196 
L 353.963607 -189.371963 
L 353.233384 -187.592731 
L 352.263334 -185.813499 
L 351.068443 -184.034267 
L 349.673694 -182.255034 
L 348.112706 -180.475802 
L 346.425618 -178.69657 
L 344.656453 -176.917337 
L 342.850228 -175.138105 
L 341.050121 -173.358873 
L 339.295002 -171.57964 
L 337.617536 -169.800408 
L 336.043003 -168.021176 
L 334.588885 -166.241943 
L 333.265149 -164.462711 
L 332.075094 -162.683479 
L 331.016582 -160.904246 
L 330.083452 -159.125014 
L 329.266921 -157.345782 
L 328.556834 -155.566549 
L 327.942659 -153.787317 
L 327.414185 -152.008085 
L 326.961934 -150.228853 
L 326.577326 -148.44962 
L 326.252671 -146.670388 
L 325.981059 -144.891156 
L 325.756203 -143.111923 
L 325.572305 -141.332691 
L 325.423956 -139.553459 
L 325.306082 -137.774226 
L 325.213947 -135.994994 
z
" style="stroke: #3f3f3f; stroke-width: 1.25"/>
    </defs>
    <g clip-path="url(#p578f269d78)">
     <use xlink:href="#mb6fe3bc393" x="0" y="432" style="fill: #e1812c; stroke: #3f3f3f; stroke-width: 1.25"/>
    </g>
   </g>
   <g id="PolyCollection_5">
    <defs>
     <path id="m3e2fe13c4f" d="M 414.381709 -62.64 
L 414.098291 -62.64 
L 414.046558 -65.694545 
L 413.98279 -68.749091 
L 413.906866 -71.803636 
L 413.81971 -74.858182 
L 413.723477 -77.912727 
L 413.621614 -80.967273 
L 413.518747 -84.021818 
L 413.420364 -87.076364 
L 413.332313 -90.130909 
L 413.260162 -93.185455 
L 413.208498 -96.24 
L 413.180267 -99.294545 
L 413.176269 -102.349091 
L 413.194878 -105.403636 
L 413.232042 -108.458182 
L 413.281567 -111.512727 
L 413.335629 -114.567273 
L 413.385428 -117.621818 
L 413.421894 -120.676364 
L 413.436305 -123.730909 
L 413.420759 -126.785455 
L 413.36841 -129.84 
L 413.273463 -132.894545 
L 413.130942 -135.949091 
L 412.936289 -139.003636 
L 412.684875 -142.058182 
L 412.371537 -145.112727 
L 411.990233 -148.167273 
L 411.533904 -151.221818 
L 410.994595 -154.276364 
L 410.363844 -157.330909 
L 409.633312 -160.385455 
L 408.7956 -163.44 
L 407.845182 -166.494545 
L 406.779392 -169.549091 
L 405.599421 -172.603636 
L 404.311288 -175.658182 
L 402.926732 -178.712727 
L 401.463968 -181.767273 
L 399.948183 -184.821818 
L 398.411614 -187.876364 
L 396.893025 -190.930909 
L 395.436447 -193.985455 
L 394.089108 -197.04 
L 392.89864 -200.094545 
L 391.909806 -203.149091 
L 391.161119 -206.203636 
L 390.681795 -209.258182 
L 390.489487 -212.312727 
L 390.589103 -215.367273 
L 390.972843 -218.421818 
L 391.621378 -221.476364 
L 392.505912 -224.530909 
L 393.590729 -227.585455 
L 394.835847 -230.64 
L 396.199418 -233.694545 
L 397.639673 -236.749091 
L 399.11636 -239.803636 
L 400.591724 -242.858182 
L 402.031204 -245.912727 
L 403.404006 -248.967273 
L 404.683675 -252.021818 
L 405.848741 -255.076364 
L 406.883387 -258.130909 
L 407.778043 -261.185455 
L 408.529764 -264.24 
L 409.142248 -267.294545 
L 409.625397 -270.349091 
L 409.994388 -273.403636 
L 410.268305 -276.458182 
L 410.468447 -279.512727 
L 410.6165 -282.567273 
L 410.732778 -285.621818 
L 410.83473 -288.676364 
L 410.935886 -291.730909 
L 411.045345 -294.785455 
L 411.167826 -297.84 
L 411.304243 -300.894545 
L 411.452655 -303.949091 
L 411.609422 -307.003636 
L 411.770374 -310.058182 
L 411.931788 -313.112727 
L 412.09105 -316.167273 
L 412.246925 -319.221818 
L 412.39945 -322.276364 
L 412.549531 -325.330909 
L 412.698384 -328.385455 
L 412.846958 -331.44 
L 412.995489 -334.494545 
L 413.143262 -337.549091 
L 413.288618 -340.603636 
L 413.42918 -343.658182 
L 413.562215 -346.712727 
L 413.685053 -349.767273 
L 413.795468 -352.821818 
L 413.891949 -355.876364 
L 413.973839 -358.930909 
L 414.041322 -361.985455 
L 414.095303 -365.04 
L 414.384697 -365.04 
L 414.384697 -365.04 
L 414.438678 -361.985455 
L 414.506161 -358.930909 
L 414.588051 -355.876364 
L 414.684532 -352.821818 
L 414.794947 -349.767273 
L 414.917785 -346.712727 
L 415.05082 -343.658182 
L 415.191382 -340.603636 
L 415.336738 -337.549091 
L 415.484511 -334.494545 
L 415.633042 -331.44 
L 415.781616 -328.385455 
L 415.930469 -325.330909 
L 416.08055 -322.276364 
L 416.233075 -319.221818 
L 416.38895 -316.167273 
L 416.548212 -313.112727 
L 416.709626 -310.058182 
L 416.870578 -307.003636 
L 417.027345 -303.949091 
L 417.175757 -300.894545 
L 417.312174 -297.84 
L 417.434655 -294.785455 
L 417.544114 -291.730909 
L 417.64527 -288.676364 
L 417.747222 -285.621818 
L 417.8635 -282.567273 
L 418.011553 -279.512727 
L 418.211695 -276.458182 
L 418.485612 -273.403636 
L 418.854603 -270.349091 
L 419.337752 -267.294545 
L 419.950236 -264.24 
L 420.701957 -261.185455 
L 421.596613 -258.130909 
L 422.631259 -255.076364 
L 423.796325 -252.021818 
L 425.075994 -248.967273 
L 426.448796 -245.912727 
L 427.888276 -242.858182 
L 429.36364 -239.803636 
L 430.840327 -236.749091 
L 432.280582 -233.694545 
L 433.644153 -230.64 
L 434.889271 -227.585455 
L 435.974088 -224.530909 
L 436.858622 -221.476364 
L 437.507157 -218.421818 
L 437.890897 -215.367273 
L 437.990513 -212.312727 
L 437.798205 -209.258182 
L 437.318881 -206.203636 
L 436.570194 -203.149091 
L 435.58136 -200.094545 
L 434.390892 -197.04 
L 433.043553 -193.985455 
L 431.586975 -190.930909 
L 430.068386 -187.876364 
L 428.531817 -184.821818 
L 427.016032 -181.767273 
L 425.553268 -178.712727 
L 424.168712 -175.658182 
L 422.880579 -172.603636 
L 421.700608 -169.549091 
L 420.634818 -166.494545 
L 419.6844 -163.44 
L 418.846688 -160.385455 
L 418.116156 -157.330909 
L 417.485405 -154.276364 
L 416.946096 -151.221818 
L 416.489767 -148.167273 
L 416.108463 -145.112727 
L 415.795125 -142.058182 
L 415.543711 -139.003636 
L 415.349058 -135.949091 
L 415.206537 -132.894545 
L 415.11159 -129.84 
L 415.059241 -126.785455 
L 415.043695 -123.730909 
L 415.058106 -120.676364 
L 415.094572 -117.621818 
L 415.144371 -114.567273 
L 415.198433 -111.512727 
L 415.247958 -108.458182 
L 415.285122 -105.403636 
L 415.303731 -102.349091 
L 415.299733 -99.294545 
L 415.271502 -96.24 
L 415.219838 -93.185455 
L 415.147687 -90.130909 
L 415.059636 -87.076364 
L 414.961253 -84.021818 
L 414.858386 -80.967273 
L 414.756523 -77.912727 
L 414.66029 -74.858182 
L 414.573134 -71.803636 
L 414.49721 -68.749091 
L 414.433442 -65.694545 
L 414.381709 -62.64 
z
" style="stroke: #3f3f3f; stroke-width: 1.25"/>
    </defs>
    <g clip-path="url(#p578f269d78)">
     <use xlink:href="#m3e2fe13c4f" x="0" y="432" style="fill: #3274a1; stroke: #3f3f3f; stroke-width: 1.25"/>
    </g>
   </g>
   <g id="PolyCollection_6">
    <defs>
     <path id="m79a370c484" d="M 473.987097 -121.498053 
L 473.532903 -121.498053 
L 473.455945 -123.303334 
L 473.360577 -125.108615 
L 473.245016 -126.913897 
L 473.108071 -128.719178 
L 472.949316 -130.524459 
L 472.769202 -132.329741 
L 472.569064 -134.135022 
L 472.351004 -135.940303 
L 472.117619 -137.745585 
L 471.871587 -139.550866 
L 471.615111 -141.356147 
L 471.349269 -143.161428 
L 471.073321 -144.96671 
L 470.784048 -146.771991 
L 470.475206 -148.577272 
L 470.137177 -150.382554 
L 469.756911 -152.187835 
L 469.318218 -153.993116 
L 468.80247 -155.798398 
L 468.18972 -157.603679 
L 467.460206 -159.40896 
L 466.59617 -161.214242 
L 465.583839 -163.019523 
L 464.415407 -164.824804 
L 463.090774 -166.630086 
L 461.618823 -168.435367 
L 460.018035 -170.240648 
L 458.316269 -172.04593 
L 456.549663 -173.851211 
L 454.760691 -175.656492 
L 452.995539 -177.461774 
L 451.301069 -179.267055 
L 449.721703 -181.072336 
L 448.296576 -182.877618 
L 447.057292 -184.682899 
L 446.0265 -186.48818 
L 445.217416 -188.293462 
L 444.634265 -190.098743 
L 444.273477 -191.904024 
L 444.1254 -193.709306 
L 444.176204 -195.514587 
L 444.409694 -197.319868 
L 444.808766 -199.12515 
L 445.356364 -200.930431 
L 446.035876 -202.735712 
L 446.831047 -204.540994 
L 447.725544 -206.346275 
L 448.702386 -208.151556 
L 449.743459 -209.956838 
L 450.829294 -211.762119 
L 451.939246 -213.5674 
L 453.052111 -215.372681 
L 454.147137 -217.177963 
L 455.2053 -218.983244 
L 456.21065 -220.788525 
L 457.151531 -222.593807 
L 458.021449 -224.399088 
L 458.819463 -226.204369 
L 459.549995 -228.009651 
L 460.222086 -229.814932 
L 460.848185 -231.620213 
L 461.44263 -233.425495 
L 462.020022 -235.230776 
L 462.593684 -237.036057 
L 463.174386 -238.841339 
L 463.769438 -240.64662 
L 464.38222 -242.451901 
L 465.012129 -244.257183 
L 465.654902 -246.062464 
L 466.303229 -247.867745 
L 466.947567 -249.673027 
L 467.577065 -251.478308 
L 468.180534 -253.283589 
L 468.747391 -255.088871 
L 469.268519 -256.894152 
L 469.737006 -258.699433 
L 470.148682 -260.504715 
L 470.502442 -262.309996 
L 470.800296 -264.115277 
L 471.047132 -265.920559 
L 471.25022 -267.72584 
L 471.418491 -269.531121 
L 471.561669 -271.336403 
L 471.689356 -273.141684 
L 471.810185 -274.946965 
L 471.931122 -276.752247 
L 472.057011 -278.557528 
L 472.19039 -280.362809 
L 472.331583 -282.168091 
L 472.479021 -283.973372 
L 472.629738 -285.778653 
L 472.779951 -287.583935 
L 472.925639 -289.389216 
L 473.063049 -291.194497 
L 473.189086 -292.999778 
L 473.301547 -294.80506 
L 473.399212 -296.610341 
L 473.481803 -298.415622 
L 473.549851 -300.220904 
L 473.970149 -300.220904 
L 473.970149 -300.220904 
L 474.038197 -298.415622 
L 474.120788 -296.610341 
L 474.218453 -294.80506 
L 474.330914 -292.999778 
L 474.456951 -291.194497 
L 474.594361 -289.389216 
L 474.740049 -287.583935 
L 474.890262 -285.778653 
L 475.040979 -283.973372 
L 475.188417 -282.168091 
L 475.32961 -280.362809 
L 475.462989 -278.557528 
L 475.588878 -276.752247 
L 475.709815 -274.946965 
L 475.830644 -273.141684 
L 475.958331 -271.336403 
L 476.101509 -269.531121 
L 476.26978 -267.72584 
L 476.472868 -265.920559 
L 476.719704 -264.115277 
L 477.017558 -262.309996 
L 477.371318 -260.504715 
L 477.782994 -258.699433 
L 478.251481 -256.894152 
L 478.772609 -255.088871 
L 479.339466 -253.283589 
L 479.942935 -251.478308 
L 480.572433 -249.673027 
L 481.216771 -247.867745 
L 481.865098 -246.062464 
L 482.507871 -244.257183 
L 483.13778 -242.451901 
L 483.750562 -240.64662 
L 484.345614 -238.841339 
L 484.926316 -237.036057 
L 485.499978 -235.230776 
L 486.07737 -233.425495 
L 486.671815 -231.620213 
L 487.297914 -229.814932 
L 487.970005 -228.009651 
L 488.700537 -226.204369 
L 489.498551 -224.399088 
L 490.368469 -222.593807 
L 491.30935 -220.788525 
L 492.3147 -218.983244 
L 493.372863 -217.177963 
L 494.467889 -215.372681 
L 495.580754 -213.5674 
L 496.690706 -211.762119 
L 497.776541 -209.956838 
L 498.817614 -208.151556 
L 499.794456 -206.346275 
L 500.688953 -204.540994 
L 501.484124 -202.735712 
L 502.163636 -200.930431 
L 502.711234 -199.12515 
L 503.110306 -197.319868 
L 503.343796 -195.514587 
L 503.3946 -193.709306 
L 503.246523 -191.904024 
L 502.885735 -190.098743 
L 502.302584 -188.293462 
L 501.4935 -186.48818 
L 500.462708 -184.682899 
L 499.223424 -182.877618 
L 497.798297 -181.072336 
L 496.218931 -179.267055 
L 494.524461 -177.461774 
L 492.759309 -175.656492 
L 490.970337 -173.851211 
L 489.203731 -172.04593 
L 487.501965 -170.240648 
L 485.901177 -168.435367 
L 484.429226 -166.630086 
L 483.104593 -164.824804 
L 481.936161 -163.019523 
L 480.92383 -161.214242 
L 480.059794 -159.40896 
L 479.33028 -157.603679 
L 478.71753 -155.798398 
L 478.201782 -153.993116 
L 477.763089 -152.187835 
L 477.382823 -150.382554 
L 477.044794 -148.577272 
L 476.735952 -146.771991 
L 476.446679 -144.96671 
L 476.170731 -143.161428 
L 475.904889 -141.356147 
L 475.648413 -139.550866 
L 475.402381 -137.745585 
L 475.168996 -135.940303 
L 474.950936 -134.135022 
L 474.750798 -132.329741 
L 474.570684 -130.524459 
L 474.411929 -128.719178 
L 474.274984 -126.913897 
L 474.159423 -125.108615 
L 474.064055 -123.303334 
L 473.987097 -121.498053 
z
" style="stroke: #3f3f3f; stroke-width: 1.25"/>
    </defs>
    <g clip-path="url(#p578f269d78)">
     <use xlink:href="#m79a370c484" x="0" y="432" style="fill: #e1812c; stroke: #3f3f3f; stroke-width: 1.25"/>
    </g>
   </g>
   <g id="patch_3">
    <path d="M 146.4 331.686306 
L 146.4 331.686306 
L 146.4 331.686306 
L 146.4 331.686306 
z
" clip-path="url(#p578f269d78)" style="fill: #3274a1; stroke: #3f3f3f; stroke-width: 1.25; stroke-linejoin: miter"/>
   </g>
   <g id="patch_4">
    <path d="M 146.4 331.686306 
L 146.4 331.686306 
L 146.4 331.686306 
L 146.4 331.686306 
z
" clip-path="url(#p578f269d78)" style="fill: #e1812c; stroke: #3f3f3f; stroke-width: 1.25; stroke-linejoin: miter"/>
   </g>
   <g id="line2d_5">
    <path d="M 116.64 261.345961 
L 116.64 175.441213 
" clip-path="url(#p578f269d78)" style="fill: none; stroke: #3f3f3f; stroke-width: 1.875; stroke-linecap: round"/>
   </g>
   <g id="line2d_6">
    <path d="M 116.64 237.332116 
L 116.64 211.7395 
" clip-path="url(#p578f269d78)" style="fill: none; stroke: #3f3f3f; stroke-width: 5.625; stroke-linecap: round"/>
   </g>
   <g id="line2d_7">
    <path d="M 116.64 226.722419 
" clip-path="url(#p578f269d78)" style="fill: none; stroke: #3f3f3f; stroke-width: 1.5; stroke-linecap: round"/>
    <defs>
     <path id="m72c9210e16" d="M 2.34375 0 
L -2.34375 -0 
" style="stroke: #ffffff; stroke-width: 1.125"/>
    </defs>
    <g clip-path="url(#p578f269d78)">
     <use xlink:href="#m72c9210e16" x="116.64" y="226.722419" style="fill: #ffffff; stroke: #ffffff; stroke-width: 1.125"/>
    </g>
   </g>
   <g id="line2d_8">
    <path d="M 176.16 281.019165 
L 176.16 162.725856 
" clip-path="url(#p578f269d78)" style="fill: none; stroke: #3f3f3f; stroke-width: 1.875; stroke-linecap: round"/>
   </g>
   <g id="line2d_9">
    <path d="M 176.16 247.194343 
L 176.16 212.866129 
" clip-path="url(#p578f269d78)" style="fill: none; stroke: #3f3f3f; stroke-width: 5.625; stroke-linecap: round"/>
   </g>
   <g id="line2d_10">
    <path d="M 176.16 232.413521 
" clip-path="url(#p578f269d78)" style="fill: none; stroke: #3f3f3f; stroke-width: 1.5; stroke-linecap: round"/>
    <g clip-path="url(#p578f269d78)">
     <use xlink:href="#m72c9210e16" x="176.16" y="232.413521" style="fill: #ffffff; stroke: #ffffff; stroke-width: 1.125"/>
    </g>
   </g>
   <g id="line2d_11">
    <path d="M 265.44 267.313855 
L 265.44 182.22741 
" clip-path="url(#p578f269d78)" style="fill: none; stroke: #3f3f3f; stroke-width: 1.875; stroke-linecap: round"/>
   </g>
   <g id="line2d_12">
    <path d="M 265.44 233.924212 
L 265.44 205.554463 
" clip-path="url(#p578f269d78)" style="fill: none; stroke: #3f3f3f; stroke-width: 5.625; stroke-linecap: round"/>
   </g>
   <g id="line2d_13">
    <path d="M 265.44 218.371528 
" clip-path="url(#p578f269d78)" style="fill: none; stroke: #3f3f3f; stroke-width: 1.5; stroke-linecap: round"/>
    <g clip-path="url(#p578f269d78)">
     <use xlink:href="#m72c9210e16" x="265.44" y="218.371528" style="fill: #ffffff; stroke: #ffffff; stroke-width: 1.125"/>
    </g>
   </g>
   <g id="line2d_14">
    <path d="M 324.96 271.590436 
L 324.96 169.265688 
" clip-path="url(#p578f269d78)" style="fill: none; stroke: #3f3f3f; stroke-width: 1.875; stroke-linecap: round"/>
   </g>
   <g id="line2d_15">
    <path d="M 324.96 244.504511 
L 324.96 208.267633 
" clip-path="url(#p578f269d78)" style="fill: none; stroke: #3f3f3f; stroke-width: 5.625; stroke-linecap: round"/>
   </g>
   <g id="line2d_16">
    <path d="M 324.96 230.838078 
" clip-path="url(#p578f269d78)" style="fill: none; stroke: #3f3f3f; stroke-width: 1.5; stroke-linecap: round"/>
    <g clip-path="url(#p578f269d78)">
     <use xlink:href="#m72c9210e16" x="324.96" y="230.838078" style="fill: #ffffff; stroke: #ffffff; stroke-width: 1.125"/>
    </g>
   </g>
   <g id="line2d_17">
    <path d="M 414.24 277.273623 
L 414.24 153.233881 
" clip-path="url(#p578f269d78)" style="fill: none; stroke: #3f3f3f; stroke-width: 1.875; stroke-linecap: round"/>
   </g>
   <g id="line2d_18">
    <path d="M 414.24 229.752599 
L 414.24 196.047402 
" clip-path="url(#p578f269d78)" style="fill: none; stroke: #3f3f3f; stroke-width: 5.625; stroke-linecap: round"/>
   </g>
   <g id="line2d_19">
    <path d="M 414.24 217.288868 
" clip-path="url(#p578f269d78)" style="fill: none; stroke: #3f3f3f; stroke-width: 1.5; stroke-linecap: round"/>
    <g clip-path="url(#p578f269d78)">
     <use xlink:href="#m72c9210e16" x="414.24" y="217.288868" style="fill: #ffffff; stroke: #ffffff; stroke-width: 1.125"/>
    </g>
   </g>
   <g id="line2d_20">
    <path d="M 473.76 285.579659 
L 473.76 181.370997 
" clip-path="url(#p578f269d78)" style="fill: none; stroke: #3f3f3f; stroke-width: 1.875; stroke-linecap: round"/>
   </g>
   <g id="line2d_21">
    <path d="M 473.76 246.429282 
L 473.76 217.095558 
" clip-path="url(#p578f269d78)" style="fill: none; stroke: #3f3f3f; stroke-width: 5.625; stroke-linecap: round"/>
   </g>
   <g id="line2d_22">
    <path d="M 473.76 232.673908 
" clip-path="url(#p578f269d78)" style="fill: none; stroke: #3f3f3f; stroke-width: 1.5; stroke-linecap: round"/>
    <g clip-path="url(#p578f269d78)">
     <use xlink:href="#m72c9210e16" x="473.76" y="232.673908" style="fill: #ffffff; stroke: #ffffff; stroke-width: 1.125"/>
    </g>
   </g>
   <g id="patch_5">
    <path d="M 72 384.48 
L 72 51.84 
" style="fill: none; stroke: #cccccc; stroke-width: 0.8; stroke-linejoin: miter; stroke-linecap: square"/>
   </g>
   <g id="patch_6">
    <path d="M 518.4 384.48 
L 518.4 51.84 
" style="fill: none; stroke: #cccccc; stroke-width: 0.8; stroke-linejoin: miter; stroke-linecap: square"/>
   </g>
   <g id="patch_7">
    <path d="M 72 384.48 
L 518.4 384.48 
" style="fill: none; stroke: #cccccc; stroke-width: 0.8; stroke-linejoin: miter; stroke-linecap: square"/>
   </g>
   <g id="patch_8">
    <path d="M 72 51.84 
L 518.4 51.84 
" style="fill: none; stroke: #cccccc; stroke-width: 0.8; stroke-linejoin: miter; stroke-linecap: square"/>
   </g>
   <g id="legend_1">
    <g id="patch_9">
     <path d="M 456.6125 379.48 
L 511.4 379.48 
Q 513.4 379.48 513.4 377.48 
L 513.4 336.044062 
Q 513.4 334.044062 511.4 334.044062 
L 456.6125 334.044062 
Q 454.6125 334.044062 454.6125 336.044062 
L 454.6125 377.48 
Q 454.6125 379.48 456.6125 379.48 
z
" style="fill: #ffffff; opacity: 0.8; stroke: #cccccc; stroke-linejoin: miter"/>
    </g>
    <g id="text_10">
     <!-- Time -->
     <g style="fill: #262626" transform="translate(473.083594 345.201875) scale(0.1 -0.1)">
      <defs>
       <path id="ArialMT-69" d="M 425 3934 
L 425 4581 
L 988 4581 
L 988 3934 
L 425 3934 
z
M 425 0 
L 425 3319 
L 988 3319 
L 988 0 
L 425 0 
z
" transform="scale(0.015625)"/>
       <path id="ArialMT-6d" d="M 422 0 
L 422 3319 
L 925 3319 
L 925 2853 
Q 1081 3097 1340 3245 
Q 1600 3394 1931 3394 
Q 2300 3394 2536 3241 
Q 2772 3088 2869 2813 
Q 3263 3394 3894 3394 
Q 4388 3394 4653 3120 
Q 4919 2847 4919 2278 
L 4919 0 
L 4359 0 
L 4359 2091 
Q 4359 2428 4304 2576 
Q 4250 2725 4106 2815 
Q 3963 2906 3769 2906 
Q 3419 2906 3187 2673 
Q 2956 2441 2956 1928 
L 2956 0 
L 2394 0 
L 2394 2156 
Q 2394 2531 2256 2718 
Q 2119 2906 1806 2906 
Q 1569 2906 1367 2781 
Q 1166 2656 1075 2415 
Q 984 2175 984 1722 
L 984 0 
L 422 0 
z
" transform="scale(0.015625)"/>
      </defs>
      <use xlink:href="#ArialMT-54"/>
      <use xlink:href="#ArialMT-69" x="57.333984"/>
      <use xlink:href="#ArialMT-6d" x="79.550781"/>
      <use xlink:href="#ArialMT-65" x="162.851562"/>
     </g>
    </g>
    <g id="patch_10">
     <path d="M 458.6125 359.347188 
L 478.6125 359.347188 
L 478.6125 352.347188 
L 458.6125 352.347188 
z
" style="fill: #3274a1; stroke: #3f3f3f; stroke-width: 1.25; stroke-linejoin: miter"/>
    </g>
    <g id="text_11">
     <!-- initial -->
     <g style="fill: #262626" transform="translate(486.6125 359.347188) scale(0.1 -0.1)">
      <use xlink:href="#ArialMT-69"/>
      <use xlink:href="#ArialMT-6e" x="22.216797"/>
      <use xlink:href="#ArialMT-69" x="77.832031"/>
      <use xlink:href="#ArialMT-74" x="100.048828"/>
      <use xlink:href="#ArialMT-69" x="127.832031"/>
      <use xlink:href="#ArialMT-61" x="150.048828"/>
      <use xlink:href="#ArialMT-6c" x="205.664062"/>
     </g>
    </g>
    <g id="patch_11">
     <path d="M 458.6125 373.4925 
L 478.6125 373.4925 
L 478.6125 366.4925 
L 458.6125 366.4925 
z
" style="fill: #e1812c; stroke: #3f3f3f; stroke-width: 1.25; stroke-linejoin: miter"/>
    </g>
    <g id="text_12">
     <!-- final -->
     <g style="fill: #262626" transform="translate(486.6125 373.4925) scale(0.1 -0.1)">
      <use xlink:href="#ArialMT-66"/>
      <use xlink:href="#ArialMT-69" x="27.783203"/>
      <use xlink:href="#ArialMT-6e" x="50"/>
      <use xlink:href="#ArialMT-61" x="105.615234"/>
      <use xlink:href="#ArialMT-6c" x="161.230469"/>
     </g>
    </g>
   </g>
  </g>
 </g>
 <defs>
  <clipPath id="p578f269d78">
   <rect x="72" y="51.84" width="446.4" height="332.64"/>
  </clipPath>
 </defs>
</svg>
