<?xml version="1.0" encoding="utf-8" standalone="no"?>
<!DOCTYPE svg PUBLIC "-//W3C//DTD SVG 1.1//EN"
  "http://www.w3.org/Graphics/SVG/1.1/DTD/svg11.dtd">
<svg xmlns:xlink="http://www.w3.org/1999/xlink" width="576pt" height="432pt" viewBox="0 0 576 432" xmlns="http://www.w3.org/2000/svg" version="1.1">
 <metadata>
  <rdf:RDF xmlns:dc="http://purl.org/dc/elements/1.1/" xmlns:cc="http://creativecommons.org/ns#" xmlns:rdf="http://www.w3.org/1999/02/22-rdf-syntax-ns#">
   <cc:Work>
    <dc:type rdf:resource="http://purl.org/dc/dcmitype/StillImage"/>
    <dc:date>2024-09-09T17:20:22.534252</dc:date>
    <dc:format>image/svg+xml</dc:format>
    <dc:creator>
     <cc:Agent>
      <dc:title>Matplotlib v3.8.3, https://matplotlib.org/</dc:title>
     </cc:Agent>
    </dc:creator>
   </cc:Work>
  </rdf:RDF>
 </metadata>
 <defs>
  <style type="text/css">*{stroke-linejoin: round; stroke-linecap: butt}</style>
 </defs>
 <g id="figure_1">
  <g id="patch_1">
   <path d="M 0 432 
L 576 432 
L 576 0 
L 0 0 
z
" style="fill: #ffffff"/>
  </g>
  <g id="axes_1">
   <g id="patch_2">
    <path d="M 72 384.48 
L 518.4 384.48 
L 518.4 51.84 
L 72 51.84 
z
" style="fill: #ffffff"/>
   </g>
   <g id="matplotlib.axis_1">
    <g id="xtick_1">
     <g id="text_1">
      <!-- 1 -->
      <g style="fill: #262626" transform="translate(143.619531 398.637812) scale(0.1 -0.1)">
       <defs>
        <path id="ArialMT-31" d="M 2384 0 
L 1822 0 
L 1822 3584 
Q 1619 3391 1289 3197 
Q 959 3003 697 2906 
L 697 3450 
Q 1169 3672 1522 3987 
Q 1875 4303 2022 4600 
L 2384 4600 
L 2384 0 
z
" transform="scale(0.015625)"/>
       </defs>
       <use xlink:href="#ArialMT-31"/>
      </g>
     </g>
    </g>
    <g id="xtick_2">
     <g id="text_2">
      <!-- 2 -->
      <g style="fill: #262626" transform="translate(292.419531 398.637812) scale(0.1 -0.1)">
       <defs>
        <path id="ArialMT-32" d="M 3222 541 
L 3222 0 
L 194 0 
Q 188 203 259 391 
Q 375 700 629 1000 
Q 884 1300 1366 1694 
Q 2113 2306 2375 2664 
Q 2638 3022 2638 3341 
Q 2638 3675 2398 3904 
Q 2159 4134 1775 4134 
Q 1369 4134 1125 3890 
Q 881 3647 878 3216 
L 300 3275 
Q 359 3922 746 4261 
Q 1134 4600 1788 4600 
Q 2447 4600 2831 4234 
Q 3216 3869 3216 3328 
Q 3216 3053 3103 2787 
Q 2991 2522 2730 2228 
Q 2469 1934 1863 1422 
Q 1356 997 1212 845 
Q 1069 694 975 541 
L 3222 541 
z
" transform="scale(0.015625)"/>
       </defs>
       <use xlink:href="#ArialMT-32"/>
      </g>
     </g>
    </g>
    <g id="xtick_3">
     <g id="text_3">
      <!-- 3 -->
      <g style="fill: #262626" transform="translate(441.219531 398.637812) scale(0.1 -0.1)">
       <defs>
        <path id="ArialMT-33" d="M 269 1209 
L 831 1284 
Q 928 806 1161 595 
Q 1394 384 1728 384 
Q 2125 384 2398 659 
Q 2672 934 2672 1341 
Q 2672 1728 2419 1979 
Q 2166 2231 1775 2231 
Q 1616 2231 1378 2169 
L 1441 2663 
Q 1497 2656 1531 2656 
Q 1891 2656 2178 2843 
Q 2466 3031 2466 3422 
Q 2466 3731 2256 3934 
Q 2047 4138 1716 4138 
Q 1388 4138 1169 3931 
Q 950 3725 888 3313 
L 325 3413 
Q 428 3978 793 4289 
Q 1159 4600 1703 4600 
Q 2078 4600 2393 4439 
Q 2709 4278 2876 4000 
Q 3044 3722 3044 3409 
Q 3044 3113 2884 2869 
Q 2725 2625 2413 2481 
Q 2819 2388 3044 2092 
Q 3269 1797 3269 1353 
Q 3269 753 2831 336 
Q 2394 -81 1725 -81 
Q 1122 -81 723 278 
Q 325 638 269 1209 
z
" transform="scale(0.015625)"/>
       </defs>
       <use xlink:href="#ArialMT-33"/>
      </g>
     </g>
    </g>
    <g id="text_4">
     <!-- Effort level -->
     <g style="fill: #262626" transform="translate(271.667969 411.783125) scale(0.1 -0.1)">
      <defs>
       <path id="ArialMT-45" d="M 506 0 
L 506 4581 
L 3819 4581 
L 3819 4041 
L 1113 4041 
L 1113 2638 
L 3647 2638 
L 3647 2100 
L 1113 2100 
L 1113 541 
L 3925 541 
L 3925 0 
L 506 0 
z
" transform="scale(0.015625)"/>
       <path id="ArialMT-66" d="M 556 0 
L 556 2881 
L 59 2881 
L 59 3319 
L 556 3319 
L 556 3672 
Q 556 4006 616 4169 
Q 697 4388 901 4523 
Q 1106 4659 1475 4659 
Q 1713 4659 2000 4603 
L 1916 4113 
Q 1741 4144 1584 4144 
Q 1328 4144 1222 4034 
Q 1116 3925 1116 3625 
L 1116 3319 
L 1763 3319 
L 1763 2881 
L 1116 2881 
L 1116 0 
L 556 0 
z
" transform="scale(0.015625)"/>
       <path id="ArialMT-6f" d="M 213 1659 
Q 213 2581 725 3025 
Q 1153 3394 1769 3394 
Q 2453 3394 2887 2945 
Q 3322 2497 3322 1706 
Q 3322 1066 3130 698 
Q 2938 331 2570 128 
Q 2203 -75 1769 -75 
Q 1072 -75 642 372 
Q 213 819 213 1659 
z
M 791 1659 
Q 791 1022 1069 705 
Q 1347 388 1769 388 
Q 2188 388 2466 706 
Q 2744 1025 2744 1678 
Q 2744 2294 2464 2611 
Q 2184 2928 1769 2928 
Q 1347 2928 1069 2612 
Q 791 2297 791 1659 
z
" transform="scale(0.015625)"/>
       <path id="ArialMT-72" d="M 416 0 
L 416 3319 
L 922 3319 
L 922 2816 
Q 1116 3169 1280 3281 
Q 1444 3394 1641 3394 
Q 1925 3394 2219 3213 
L 2025 2691 
Q 1819 2813 1613 2813 
Q 1428 2813 1281 2702 
Q 1134 2591 1072 2394 
Q 978 2094 978 1738 
L 978 0 
L 416 0 
z
" transform="scale(0.015625)"/>
       <path id="ArialMT-74" d="M 1650 503 
L 1731 6 
Q 1494 -44 1306 -44 
Q 1000 -44 831 53 
Q 663 150 594 308 
Q 525 466 525 972 
L 525 2881 
L 113 2881 
L 113 3319 
L 525 3319 
L 525 4141 
L 1084 4478 
L 1084 3319 
L 1650 3319 
L 1650 2881 
L 1084 2881 
L 1084 941 
Q 1084 700 1114 631 
Q 1144 563 1211 522 
Q 1278 481 1403 481 
Q 1497 481 1650 503 
z
" transform="scale(0.015625)"/>
       <path id="ArialMT-20" transform="scale(0.015625)"/>
       <path id="ArialMT-6c" d="M 409 0 
L 409 4581 
L 972 4581 
L 972 0 
L 409 0 
z
" transform="scale(0.015625)"/>
       <path id="ArialMT-65" d="M 2694 1069 
L 3275 997 
Q 3138 488 2766 206 
Q 2394 -75 1816 -75 
Q 1088 -75 661 373 
Q 234 822 234 1631 
Q 234 2469 665 2931 
Q 1097 3394 1784 3394 
Q 2450 3394 2872 2941 
Q 3294 2488 3294 1666 
Q 3294 1616 3291 1516 
L 816 1516 
Q 847 969 1125 678 
Q 1403 388 1819 388 
Q 2128 388 2347 550 
Q 2566 713 2694 1069 
z
M 847 1978 
L 2700 1978 
Q 2663 2397 2488 2606 
Q 2219 2931 1791 2931 
Q 1403 2931 1139 2672 
Q 875 2413 847 1978 
z
" transform="scale(0.015625)"/>
       <path id="ArialMT-76" d="M 1344 0 
L 81 3319 
L 675 3319 
L 1388 1331 
Q 1503 1009 1600 663 
Q 1675 925 1809 1294 
L 2547 3319 
L 3125 3319 
L 1869 0 
L 1344 0 
z
" transform="scale(0.015625)"/>
      </defs>
      <use xlink:href="#ArialMT-45"/>
      <use xlink:href="#ArialMT-66" x="66.699219"/>
      <use xlink:href="#ArialMT-66" x="92.732422"/>
      <use xlink:href="#ArialMT-6f" x="120.515625"/>
      <use xlink:href="#ArialMT-72" x="176.130859"/>
      <use xlink:href="#ArialMT-74" x="209.431641"/>
      <use xlink:href="#ArialMT-20" x="237.214844"/>
      <use xlink:href="#ArialMT-6c" x="264.998047"/>
      <use xlink:href="#ArialMT-65" x="287.214844"/>
      <use xlink:href="#ArialMT-76" x="342.830078"/>
      <use xlink:href="#ArialMT-65" x="392.830078"/>
      <use xlink:href="#ArialMT-6c" x="448.445312"/>
     </g>
    </g>
   </g>
   <g id="matplotlib.axis_2">
    <g id="ytick_1">
     <g id="line2d_1">
      <path d="M 72 376.582412 
L 518.4 376.582412 
" clip-path="url(#pfdf022d57d)" style="fill: none; stroke: #cccccc; stroke-width: 0.8; stroke-linecap: round"/>
     </g>
     <g id="text_5">
      <!-- −10 -->
      <g style="fill: #262626" transform="translate(48.0375 380.161318) scale(0.1 -0.1)">
       <defs>
        <path id="ArialMT-2212" d="M 3381 1997 
L 356 1997 
L 356 2522 
L 3381 2522 
L 3381 1997 
z
" transform="scale(0.015625)"/>
        <path id="ArialMT-30" d="M 266 2259 
Q 266 3072 433 3567 
Q 600 4063 929 4331 
Q 1259 4600 1759 4600 
Q 2128 4600 2406 4451 
Q 2684 4303 2865 4023 
Q 3047 3744 3150 3342 
Q 3253 2941 3253 2259 
Q 3253 1453 3087 958 
Q 2922 463 2592 192 
Q 2263 -78 1759 -78 
Q 1097 -78 719 397 
Q 266 969 266 2259 
z
M 844 2259 
Q 844 1131 1108 757 
Q 1372 384 1759 384 
Q 2147 384 2411 759 
Q 2675 1134 2675 2259 
Q 2675 3391 2411 3762 
Q 2147 4134 1753 4134 
Q 1366 4134 1134 3806 
Q 844 3388 844 2259 
z
" transform="scale(0.015625)"/>
       </defs>
       <use xlink:href="#ArialMT-2212"/>
       <use xlink:href="#ArialMT-31" x="58.398438"/>
       <use xlink:href="#ArialMT-30" x="114.013672"/>
      </g>
     </g>
    </g>
    <g id="ytick_2">
     <g id="line2d_2">
      <path d="M 72 333.579602 
L 518.4 333.579602 
" clip-path="url(#pfdf022d57d)" style="fill: none; stroke: #cccccc; stroke-width: 0.8; stroke-linecap: round"/>
     </g>
     <g id="text_6">
      <!-- 0 -->
      <g style="fill: #262626" transform="translate(59.439062 337.158508) scale(0.1 -0.1)">
       <use xlink:href="#ArialMT-30"/>
      </g>
     </g>
    </g>
    <g id="ytick_3">
     <g id="line2d_3">
      <path d="M 72 290.576791 
L 518.4 290.576791 
" clip-path="url(#pfdf022d57d)" style="fill: none; stroke: #cccccc; stroke-width: 0.8; stroke-linecap: round"/>
     </g>
     <g id="text_7">
      <!-- 10 -->
      <g style="fill: #262626" transform="translate(53.878125 294.155698) scale(0.1 -0.1)">
       <use xlink:href="#ArialMT-31"/>
       <use xlink:href="#ArialMT-30" x="55.615234"/>
      </g>
     </g>
    </g>
    <g id="ytick_4">
     <g id="line2d_4">
      <path d="M 72 247.573981 
L 518.4 247.573981 
" clip-path="url(#pfdf022d57d)" style="fill: none; stroke: #cccccc; stroke-width: 0.8; stroke-linecap: round"/>
     </g>
     <g id="text_8">
      <!-- 20 -->
      <g style="fill: #262626" transform="translate(53.878125 251.152887) scale(0.1 -0.1)">
       <use xlink:href="#ArialMT-32"/>
       <use xlink:href="#ArialMT-30" x="55.615234"/>
      </g>
     </g>
    </g>
    <g id="ytick_5">
     <g id="line2d_5">
      <path d="M 72 204.571171 
L 518.4 204.571171 
" clip-path="url(#pfdf022d57d)" style="fill: none; stroke: #cccccc; stroke-width: 0.8; stroke-linecap: round"/>
     </g>
     <g id="text_9">
      <!-- 30 -->
      <g style="fill: #262626" transform="translate(53.878125 208.150077) scale(0.1 -0.1)">
       <use xlink:href="#ArialMT-33"/>
       <use xlink:href="#ArialMT-30" x="55.615234"/>
      </g>
     </g>
    </g>
    <g id="ytick_6">
     <g id="line2d_6">
      <path d="M 72 161.56836 
L 518.4 161.56836 
" clip-path="url(#pfdf022d57d)" style="fill: none; stroke: #cccccc; stroke-width: 0.8; stroke-linecap: round"/>
     </g>
     <g id="text_10">
      <!-- 40 -->
      <g style="fill: #262626" transform="translate(53.878125 165.147267) scale(0.1 -0.1)">
       <defs>
        <path id="ArialMT-34" d="M 2069 0 
L 2069 1097 
L 81 1097 
L 81 1613 
L 2172 4581 
L 2631 4581 
L 2631 1613 
L 3250 1613 
L 3250 1097 
L 2631 1097 
L 2631 0 
L 2069 0 
z
M 2069 1613 
L 2069 3678 
L 634 1613 
L 2069 1613 
z
" transform="scale(0.015625)"/>
       </defs>
       <use xlink:href="#ArialMT-34"/>
       <use xlink:href="#ArialMT-30" x="55.615234"/>
      </g>
     </g>
    </g>
    <g id="ytick_7">
     <g id="line2d_7">
      <path d="M 72 118.56555 
L 518.4 118.56555 
" clip-path="url(#pfdf022d57d)" style="fill: none; stroke: #cccccc; stroke-width: 0.8; stroke-linecap: round"/>
     </g>
     <g id="text_11">
      <!-- 50 -->
      <g style="fill: #262626" transform="translate(53.878125 122.144456) scale(0.1 -0.1)">
       <defs>
        <path id="ArialMT-35" d="M 266 1200 
L 856 1250 
Q 922 819 1161 601 
Q 1400 384 1738 384 
Q 2144 384 2425 690 
Q 2706 997 2706 1503 
Q 2706 1984 2436 2262 
Q 2166 2541 1728 2541 
Q 1456 2541 1237 2417 
Q 1019 2294 894 2097 
L 366 2166 
L 809 4519 
L 3088 4519 
L 3088 3981 
L 1259 3981 
L 1013 2750 
Q 1425 3038 1878 3038 
Q 2478 3038 2890 2622 
Q 3303 2206 3303 1553 
Q 3303 931 2941 478 
Q 2500 -78 1738 -78 
Q 1113 -78 717 272 
Q 322 622 266 1200 
z
" transform="scale(0.015625)"/>
       </defs>
       <use xlink:href="#ArialMT-35"/>
       <use xlink:href="#ArialMT-30" x="55.615234"/>
      </g>
     </g>
    </g>
    <g id="ytick_8">
     <g id="line2d_8">
      <path d="M 72 75.56274 
L 518.4 75.56274 
" clip-path="url(#pfdf022d57d)" style="fill: none; stroke: #cccccc; stroke-width: 0.8; stroke-linecap: round"/>
     </g>
     <g id="text_12">
      <!-- 60 -->
      <g style="fill: #262626" transform="translate(53.878125 79.141646) scale(0.1 -0.1)">
       <defs>
        <path id="ArialMT-36" d="M 3184 3459 
L 2625 3416 
Q 2550 3747 2413 3897 
Q 2184 4138 1850 4138 
Q 1581 4138 1378 3988 
Q 1113 3794 959 3422 
Q 806 3050 800 2363 
Q 1003 2672 1297 2822 
Q 1591 2972 1913 2972 
Q 2475 2972 2870 2558 
Q 3266 2144 3266 1488 
Q 3266 1056 3080 686 
Q 2894 316 2569 119 
Q 2244 -78 1831 -78 
Q 1128 -78 684 439 
Q 241 956 241 2144 
Q 241 3472 731 4075 
Q 1159 4600 1884 4600 
Q 2425 4600 2770 4297 
Q 3116 3994 3184 3459 
z
M 888 1484 
Q 888 1194 1011 928 
Q 1134 663 1356 523 
Q 1578 384 1822 384 
Q 2178 384 2434 671 
Q 2691 959 2691 1453 
Q 2691 1928 2437 2201 
Q 2184 2475 1800 2475 
Q 1419 2475 1153 2201 
Q 888 1928 888 1484 
z
" transform="scale(0.015625)"/>
       </defs>
       <use xlink:href="#ArialMT-36"/>
       <use xlink:href="#ArialMT-30" x="55.615234"/>
      </g>
     </g>
    </g>
    <g id="text_13">
     <!-- Ventilation oxygen equivalent (l) -->
     <g style="fill: #262626" transform="translate(41.932812 288.756875) rotate(-90) scale(0.1 -0.1)">
      <defs>
       <path id="ArialMT-56" d="M 1803 0 
L 28 4581 
L 684 4581 
L 1875 1253 
Q 2019 853 2116 503 
Q 2222 878 2363 1253 
L 3600 4581 
L 4219 4581 
L 2425 0 
L 1803 0 
z
" transform="scale(0.015625)"/>
       <path id="ArialMT-6e" d="M 422 0 
L 422 3319 
L 928 3319 
L 928 2847 
Q 1294 3394 1984 3394 
Q 2284 3394 2536 3286 
Q 2788 3178 2913 3003 
Q 3038 2828 3088 2588 
Q 3119 2431 3119 2041 
L 3119 0 
L 2556 0 
L 2556 2019 
Q 2556 2363 2490 2533 
Q 2425 2703 2258 2804 
Q 2091 2906 1866 2906 
Q 1506 2906 1245 2678 
Q 984 2450 984 1813 
L 984 0 
L 422 0 
z
" transform="scale(0.015625)"/>
       <path id="ArialMT-69" d="M 425 3934 
L 425 4581 
L 988 4581 
L 988 3934 
L 425 3934 
z
M 425 0 
L 425 3319 
L 988 3319 
L 988 0 
L 425 0 
z
" transform="scale(0.015625)"/>
       <path id="ArialMT-61" d="M 2588 409 
Q 2275 144 1986 34 
Q 1697 -75 1366 -75 
Q 819 -75 525 192 
Q 231 459 231 875 
Q 231 1119 342 1320 
Q 453 1522 633 1644 
Q 813 1766 1038 1828 
Q 1203 1872 1538 1913 
Q 2219 1994 2541 2106 
Q 2544 2222 2544 2253 
Q 2544 2597 2384 2738 
Q 2169 2928 1744 2928 
Q 1347 2928 1158 2789 
Q 969 2650 878 2297 
L 328 2372 
Q 403 2725 575 2942 
Q 747 3159 1072 3276 
Q 1397 3394 1825 3394 
Q 2250 3394 2515 3294 
Q 2781 3194 2906 3042 
Q 3031 2891 3081 2659 
Q 3109 2516 3109 2141 
L 3109 1391 
Q 3109 606 3145 398 
Q 3181 191 3288 0 
L 2700 0 
Q 2613 175 2588 409 
z
M 2541 1666 
Q 2234 1541 1622 1453 
Q 1275 1403 1131 1340 
Q 988 1278 909 1158 
Q 831 1038 831 891 
Q 831 666 1001 516 
Q 1172 366 1500 366 
Q 1825 366 2078 508 
Q 2331 650 2450 897 
Q 2541 1088 2541 1459 
L 2541 1666 
z
" transform="scale(0.015625)"/>
       <path id="ArialMT-78" d="M 47 0 
L 1259 1725 
L 138 3319 
L 841 3319 
L 1350 2541 
Q 1494 2319 1581 2169 
Q 1719 2375 1834 2534 
L 2394 3319 
L 3066 3319 
L 1919 1756 
L 3153 0 
L 2463 0 
L 1781 1031 
L 1600 1309 
L 728 0 
L 47 0 
z
" transform="scale(0.015625)"/>
       <path id="ArialMT-79" d="M 397 -1278 
L 334 -750 
Q 519 -800 656 -800 
Q 844 -800 956 -737 
Q 1069 -675 1141 -563 
Q 1194 -478 1313 -144 
Q 1328 -97 1363 -6 
L 103 3319 
L 709 3319 
L 1400 1397 
Q 1534 1031 1641 628 
Q 1738 1016 1872 1384 
L 2581 3319 
L 3144 3319 
L 1881 -56 
Q 1678 -603 1566 -809 
Q 1416 -1088 1222 -1217 
Q 1028 -1347 759 -1347 
Q 597 -1347 397 -1278 
z
" transform="scale(0.015625)"/>
       <path id="ArialMT-67" d="M 319 -275 
L 866 -356 
Q 900 -609 1056 -725 
Q 1266 -881 1628 -881 
Q 2019 -881 2231 -725 
Q 2444 -569 2519 -288 
Q 2563 -116 2559 434 
Q 2191 0 1641 0 
Q 956 0 581 494 
Q 206 988 206 1678 
Q 206 2153 378 2554 
Q 550 2956 876 3175 
Q 1203 3394 1644 3394 
Q 2231 3394 2613 2919 
L 2613 3319 
L 3131 3319 
L 3131 450 
Q 3131 -325 2973 -648 
Q 2816 -972 2473 -1159 
Q 2131 -1347 1631 -1347 
Q 1038 -1347 672 -1080 
Q 306 -813 319 -275 
z
M 784 1719 
Q 784 1066 1043 766 
Q 1303 466 1694 466 
Q 2081 466 2343 764 
Q 2606 1063 2606 1700 
Q 2606 2309 2336 2618 
Q 2066 2928 1684 2928 
Q 1309 2928 1046 2623 
Q 784 2319 784 1719 
z
" transform="scale(0.015625)"/>
       <path id="ArialMT-71" d="M 2538 -1272 
L 2538 353 
Q 2406 169 2170 47 
Q 1934 -75 1669 -75 
Q 1078 -75 651 397 
Q 225 869 225 1691 
Q 225 2191 398 2587 
Q 572 2984 901 3189 
Q 1231 3394 1625 3394 
Q 2241 3394 2594 2875 
L 2594 3319 
L 3100 3319 
L 3100 -1272 
L 2538 -1272 
z
M 803 1669 
Q 803 1028 1072 708 
Q 1341 388 1716 388 
Q 2075 388 2334 692 
Q 2594 997 2594 1619 
Q 2594 2281 2320 2615 
Q 2047 2950 1678 2950 
Q 1313 2950 1058 2639 
Q 803 2328 803 1669 
z
" transform="scale(0.015625)"/>
       <path id="ArialMT-75" d="M 2597 0 
L 2597 488 
Q 2209 -75 1544 -75 
Q 1250 -75 995 37 
Q 741 150 617 320 
Q 494 491 444 738 
Q 409 903 409 1263 
L 409 3319 
L 972 3319 
L 972 1478 
Q 972 1038 1006 884 
Q 1059 663 1231 536 
Q 1403 409 1656 409 
Q 1909 409 2131 539 
Q 2353 669 2445 892 
Q 2538 1116 2538 1541 
L 2538 3319 
L 3100 3319 
L 3100 0 
L 2597 0 
z
" transform="scale(0.015625)"/>
       <path id="ArialMT-28" d="M 1497 -1347 
Q 1031 -759 709 28 
Q 388 816 388 1659 
Q 388 2403 628 3084 
Q 909 3875 1497 4659 
L 1900 4659 
Q 1522 4009 1400 3731 
Q 1209 3300 1100 2831 
Q 966 2247 966 1656 
Q 966 153 1900 -1347 
L 1497 -1347 
z
" transform="scale(0.015625)"/>
       <path id="ArialMT-29" d="M 791 -1347 
L 388 -1347 
Q 1322 153 1322 1656 
Q 1322 2244 1188 2822 
Q 1081 3291 891 3722 
Q 769 4003 388 4659 
L 791 4659 
Q 1378 3875 1659 3084 
Q 1900 2403 1900 1659 
Q 1900 816 1576 28 
Q 1253 -759 791 -1347 
z
" transform="scale(0.015625)"/>
      </defs>
      <use xlink:href="#ArialMT-56"/>
      <use xlink:href="#ArialMT-65" x="61.199219"/>
      <use xlink:href="#ArialMT-6e" x="116.814453"/>
      <use xlink:href="#ArialMT-74" x="172.429688"/>
      <use xlink:href="#ArialMT-69" x="200.212891"/>
      <use xlink:href="#ArialMT-6c" x="222.429688"/>
      <use xlink:href="#ArialMT-61" x="244.646484"/>
      <use xlink:href="#ArialMT-74" x="300.261719"/>
      <use xlink:href="#ArialMT-69" x="328.044922"/>
      <use xlink:href="#ArialMT-6f" x="350.261719"/>
      <use xlink:href="#ArialMT-6e" x="405.876953"/>
      <use xlink:href="#ArialMT-20" x="461.492188"/>
      <use xlink:href="#ArialMT-6f" x="489.275391"/>
      <use xlink:href="#ArialMT-78" x="544.890625"/>
      <use xlink:href="#ArialMT-79" x="594.890625"/>
      <use xlink:href="#ArialMT-67" x="644.890625"/>
      <use xlink:href="#ArialMT-65" x="700.505859"/>
      <use xlink:href="#ArialMT-6e" x="756.121094"/>
      <use xlink:href="#ArialMT-20" x="811.736328"/>
      <use xlink:href="#ArialMT-65" x="839.519531"/>
      <use xlink:href="#ArialMT-71" x="895.134766"/>
      <use xlink:href="#ArialMT-75" x="950.75"/>
      <use xlink:href="#ArialMT-69" x="1006.365234"/>
      <use xlink:href="#ArialMT-76" x="1028.582031"/>
      <use xlink:href="#ArialMT-61" x="1078.582031"/>
      <use xlink:href="#ArialMT-6c" x="1134.197266"/>
      <use xlink:href="#ArialMT-65" x="1156.414062"/>
      <use xlink:href="#ArialMT-6e" x="1212.029297"/>
      <use xlink:href="#ArialMT-74" x="1267.644531"/>
      <use xlink:href="#ArialMT-20" x="1295.427734"/>
      <use xlink:href="#ArialMT-28" x="1323.210938"/>
      <use xlink:href="#ArialMT-6c" x="1356.511719"/>
      <use xlink:href="#ArialMT-29" x="1378.728516"/>
     </g>
    </g>
   </g>
   <g id="PolyCollection_1">
    <defs>
     <path id="mabd7e1a9b0" d="M 117.152403 -159.368075 
L 116.127597 -159.368075 
L 115.960377 -161.077306 
L 115.750859 -162.786537 
L 115.492416 -164.495768 
L 115.178552 -166.204999 
L 114.803245 -167.91423 
L 114.361316 -169.623461 
L 113.848794 -171.332692 
L 113.263236 -173.041923 
L 112.603963 -174.751154 
L 111.872181 -176.460385 
L 111.070939 -178.169616 
L 110.204931 -179.878847 
L 109.280134 -181.588078 
L 108.303315 -183.297309 
L 107.281461 -185.00654 
L 106.221193 -186.715771 
L 105.128269 -188.425002 
L 104.007232 -190.134233 
L 102.861297 -191.843464 
L 101.692525 -193.552695 
L 100.502278 -195.261926 
L 99.291958 -196.971157 
L 98.063927 -198.680388 
L 96.822523 -200.38962 
L 95.575025 -202.098851 
L 94.332432 -203.808082 
L 93.109922 -205.517313 
L 91.926894 -207.226544 
L 90.806536 -208.935775 
L 89.774929 -210.645006 
L 88.859745 -212.354237 
L 88.088649 -214.063468 
L 87.48755 -215.772699 
L 87.078872 -217.48193 
L 86.88 -219.191161 
L 86.902032 -220.900392 
L 87.148948 -222.609623 
L 87.617248 -224.318854 
L 88.296051 -226.028085 
L 89.167658 -227.737316 
L 90.208472 -229.446547 
L 91.390235 -231.155778 
L 92.681449 -232.865009 
L 94.048916 -234.57424 
L 95.459283 -236.283471 
L 96.880518 -237.992702 
L 98.283234 -239.701933 
L 99.641804 -241.411164 
L 100.935194 -243.120395 
L 102.147486 -244.829626 
L 103.268059 -246.538857 
L 104.291438 -248.248088 
L 105.216812 -249.957319 
L 106.047304 -251.66655 
L 106.789031 -253.375781 
L 107.450071 -255.085012 
L 108.039426 -256.794243 
L 108.566069 -258.503474 
L 109.038175 -260.212705 
L 109.46257 -261.921936 
L 109.844452 -263.631168 
L 110.187361 -265.340399 
L 110.493374 -267.04963 
L 110.763475 -268.758861 
L 110.998023 -270.468092 
L 111.197251 -272.177323 
L 111.361732 -273.886554 
L 111.492762 -275.595785 
L 111.592617 -277.305016 
L 111.664682 -279.014247 
L 111.713449 -280.723478 
L 111.744395 -282.432709 
L 111.763777 -284.14194 
L 111.778351 -285.851171 
L 111.795066 -287.560402 
L 111.820736 -289.269633 
L 111.861714 -290.978864 
L 111.923592 -292.688095 
L 112.01093 -294.397326 
L 112.127031 -296.106557 
L 112.273776 -297.815788 
L 112.451521 -299.525019 
L 112.659085 -301.23425 
L 112.893812 -302.943481 
L 113.15173 -304.652712 
L 113.427777 -306.361943 
L 113.716109 -308.071174 
L 114.010437 -309.780405 
L 114.304396 -311.489636 
L 114.591894 -313.198867 
L 114.86743 -314.908098 
L 115.126341 -316.617329 
L 115.364988 -318.32656 
L 115.580834 -320.035791 
L 115.772462 -321.745022 
L 115.939496 -323.454253 
L 116.082481 -325.163484 
L 116.202703 -326.872715 
L 116.302008 -328.581947 
L 116.977992 -328.581947 
L 116.977992 -328.581947 
L 117.077297 -326.872715 
L 117.197519 -325.163484 
L 117.340504 -323.454253 
L 117.507538 -321.745022 
L 117.699166 -320.035791 
L 117.915012 -318.32656 
L 118.153659 -316.617329 
L 118.41257 -314.908098 
L 118.688106 -313.198867 
L 118.975604 -311.489636 
L 119.269563 -309.780405 
L 119.563891 -308.071174 
L 119.852223 -306.361943 
L 120.12827 -304.652712 
L 120.386188 -302.943481 
L 120.620915 -301.23425 
L 120.828479 -299.525019 
L 121.006224 -297.815788 
L 121.152969 -296.106557 
L 121.26907 -294.397326 
L 121.356408 -292.688095 
L 121.418286 -290.978864 
L 121.459264 -289.269633 
L 121.484934 -287.560402 
L 121.501649 -285.851171 
L 121.516223 -284.14194 
L 121.535605 -282.432709 
L 121.566551 -280.723478 
L 121.615318 -279.014247 
L 121.687383 -277.305016 
L 121.787238 -275.595785 
L 121.918268 -273.886554 
L 122.082749 -272.177323 
L 122.281977 -270.468092 
L 122.516525 -268.758861 
L 122.786626 -267.04963 
L 123.092639 -265.340399 
L 123.435548 -263.631168 
L 123.81743 -261.921936 
L 124.241825 -260.212705 
L 124.713931 -258.503474 
L 125.240574 -256.794243 
L 125.829929 -255.085012 
L 126.490969 -253.375781 
L 127.232696 -251.66655 
L 128.063188 -249.957319 
L 128.988562 -248.248088 
L 130.011941 -246.538857 
L 131.132514 -244.829626 
L 132.344806 -243.120395 
L 133.638196 -241.411164 
L 134.996766 -239.701933 
L 136.399482 -237.992702 
L 137.820717 -236.283471 
L 139.231084 -234.57424 
L 140.598551 -232.865009 
L 141.889765 -231.155778 
L 143.071528 -229.446547 
L 144.112342 -227.737316 
L 144.983949 -226.028085 
L 145.662752 -224.318854 
L 146.131052 -222.609623 
L 146.377968 -220.900392 
L 146.4 -219.191161 
L 146.201128 -217.48193 
L 145.79245 -215.772699 
L 145.191351 -214.063468 
L 144.420255 -212.354237 
L 143.505071 -210.645006 
L 142.473464 -208.935775 
L 141.353106 -207.226544 
L 140.170078 -205.517313 
L 138.947568 -203.808082 
L 137.704975 -202.098851 
L 136.457477 -200.38962 
L 135.216073 -198.680388 
L 133.988042 -196.971157 
L 132.777722 -195.261926 
L 131.587475 -193.552695 
L 130.418703 -191.843464 
L 129.272768 -190.134233 
L 128.151731 -188.425002 
L 127.058807 -186.715771 
L 125.998539 -185.00654 
L 124.976685 -183.297309 
L 123.999866 -181.588078 
L 123.075069 -179.878847 
L 122.209061 -178.169616 
L 121.407819 -176.460385 
L 120.676037 -174.751154 
L 120.016764 -173.041923 
L 119.431206 -171.332692 
L 118.918684 -169.623461 
L 118.476755 -167.91423 
L 118.101448 -166.204999 
L 117.787584 -164.495768 
L 117.529141 -162.786537 
L 117.319623 -161.077306 
L 117.152403 -159.368075 
z
" style="stroke: #3f3f3f; stroke-width: 1.25"/>
    </defs>
    <g clip-path="url(#pfdf022d57d)">
     <use xlink:href="#mabd7e1a9b0" x="0" y="432" style="fill: #3274a1; stroke: #3f3f3f; stroke-width: 1.25"/>
    </g>
   </g>
   <g id="PolyCollection_2">
    <defs>
     <path id="m37170439aa" d="M 176.42387 -147.421196 
L 175.89613 -147.421196 
L 175.799046 -149.017711 
L 175.67453 -150.614226 
L 175.517693 -152.210741 
L 175.32356 -153.807257 
L 175.087225 -155.403772 
L 174.804014 -157.000287 
L 174.469601 -158.596803 
L 174.080083 -160.193318 
L 173.631995 -161.789833 
L 173.122272 -163.386348 
L 172.548167 -164.982864 
L 171.907155 -166.579379 
L 171.196855 -168.175894 
L 170.415011 -169.77241 
L 169.559553 -171.368925 
L 168.628779 -172.96544 
L 167.621639 -174.561956 
L 166.538133 -176.158471 
L 165.379767 -177.754986 
L 164.150047 -179.351501 
L 162.854922 -180.948017 
L 161.503144 -182.544532 
L 160.106477 -184.141047 
L 158.679701 -185.737563 
L 157.24041 -187.334078 
L 155.808571 -188.930593 
L 154.405885 -190.527109 
L 153.054993 -192.123624 
L 151.778578 -193.720139 
L 150.598472 -195.316654 
L 149.534833 -196.91317 
L 148.605491 -198.509685 
L 147.825515 -200.1062 
L 147.207033 -201.702716 
L 146.759285 -203.299231 
L 146.488857 -204.895746 
L 146.4 -206.492262 
L 146.494912 -208.088777 
L 146.773883 -209.685292 
L 147.235222 -211.281807 
L 147.874935 -212.878323 
L 148.686203 -214.474838 
L 149.658754 -216.071353 
L 150.778296 -217.667869 
L 152.026168 -219.264384 
L 153.379374 -220.860899 
L 154.811109 -222.457414 
L 156.291787 -224.05393 
L 157.790522 -225.650445 
L 159.276903 -227.24696 
L 160.722862 -228.843476 
L 162.104386 -230.439991 
L 163.40286 -232.036506 
L 164.605865 -233.633022 
L 165.707325 -235.229537 
L 166.707019 -236.826052 
L 167.609533 -238.422567 
L 168.422829 -240.019083 
L 169.156627 -241.615598 
L 169.820846 -243.212113 
L 170.424288 -244.808629 
L 170.97373 -246.405144 
L 171.473498 -248.001659 
L 171.925528 -249.598175 
L 172.329839 -251.19469 
L 172.6853 -252.791205 
L 172.990517 -254.38772 
L 173.244691 -255.984236 
L 173.4483 -257.580751 
L 173.603517 -259.177266 
L 173.714317 -260.773782 
L 173.786304 -262.370297 
L 173.826312 -263.966812 
L 173.841877 -265.563328 
L 173.840694 -267.159843 
L 173.83013 -268.756358 
L 173.816871 -270.352873 
L 173.806714 -271.949389 
L 173.804503 -273.545904 
L 173.814157 -275.142419 
L 173.83875 -276.738935 
L 173.880576 -278.33545 
L 173.941176 -279.931965 
L 174.021312 -281.52848 
L 174.120902 -283.124996 
L 174.238943 -284.721511 
L 174.373477 -286.318026 
L 174.521618 -287.914542 
L 174.679675 -289.511057 
L 174.843379 -291.107572 
L 175.00817 -292.704088 
L 175.169537 -294.300603 
L 175.323347 -295.897118 
L 175.466127 -297.493633 
L 175.595265 -299.090149 
L 175.709108 -300.686664 
L 175.806962 -302.283179 
L 175.888997 -303.879695 
L 175.956094 -305.47621 
L 176.363906 -305.47621 
L 176.363906 -305.47621 
L 176.431003 -303.879695 
L 176.513038 -302.283179 
L 176.610892 -300.686664 
L 176.724735 -299.090149 
L 176.853873 -297.493633 
L 176.996653 -295.897118 
L 177.150463 -294.300603 
L 177.31183 -292.704088 
L 177.476621 -291.107572 
L 177.640325 -289.511057 
L 177.798382 -287.914542 
L 177.946523 -286.318026 
L 178.081057 -284.721511 
L 178.199098 -283.124996 
L 178.298688 -281.52848 
L 178.378824 -279.931965 
L 178.439424 -278.33545 
L 178.48125 -276.738935 
L 178.505843 -275.142419 
L 178.515497 -273.545904 
L 178.513286 -271.949389 
L 178.503129 -270.352873 
L 178.48987 -268.756358 
L 178.479306 -267.159843 
L 178.478123 -265.563328 
L 178.493688 -263.966812 
L 178.533696 -262.370297 
L 178.605683 -260.773782 
L 178.716483 -259.177266 
L 178.8717 -257.580751 
L 179.075309 -255.984236 
L 179.329483 -254.38772 
L 179.6347 -252.791205 
L 179.990161 -251.19469 
L 180.394472 -249.598175 
L 180.846502 -248.001659 
L 181.34627 -246.405144 
L 181.895712 -244.808629 
L 182.499154 -243.212113 
L 183.163373 -241.615598 
L 183.897171 -240.019083 
L 184.710467 -238.422567 
L 185.612981 -236.826052 
L 186.612675 -235.229537 
L 187.714135 -233.633022 
L 188.91714 -232.036506 
L 190.215614 -230.439991 
L 191.597138 -228.843476 
L 193.043097 -227.24696 
L 194.529478 -225.650445 
L 196.028213 -224.05393 
L 197.508891 -222.457414 
L 198.940626 -220.860899 
L 200.293832 -219.264384 
L 201.541704 -217.667869 
L 202.661246 -216.071353 
L 203.633797 -214.474838 
L 204.445065 -212.878323 
L 205.084778 -211.281807 
L 205.546117 -209.685292 
L 205.825088 -208.088777 
L 205.92 -206.492262 
L 205.831143 -204.895746 
L 205.560715 -203.299231 
L 205.112967 -201.702716 
L 204.494485 -200.1062 
L 203.714509 -198.509685 
L 202.785167 -196.91317 
L 201.721528 -195.316654 
L 200.541422 -193.720139 
L 199.265007 -192.123624 
L 197.914115 -190.527109 
L 196.511429 -188.930593 
L 195.07959 -187.334078 
L 193.640299 -185.737563 
L 192.213523 -184.141047 
L 190.816856 -182.544532 
L 189.465078 -180.948017 
L 188.169953 -179.351501 
L 186.940233 -177.754986 
L 185.781867 -176.158471 
L 184.698361 -174.561956 
L 183.691221 -172.96544 
L 182.760447 -171.368925 
L 181.904989 -169.77241 
L 181.123145 -168.175894 
L 180.412845 -166.579379 
L 179.771833 -164.982864 
L 179.197728 -163.386348 
L 178.688005 -161.789833 
L 178.239917 -160.193318 
L 177.850399 -158.596803 
L 177.515986 -157.000287 
L 177.232775 -155.403772 
L 176.99644 -153.807257 
L 176.802307 -152.210741 
L 176.64547 -150.614226 
L 176.520954 -149.017711 
L 176.42387 -147.421196 
z
" style="stroke: #3f3f3f; stroke-width: 1.25"/>
    </defs>
    <g clip-path="url(#pfdf022d57d)">
     <use xlink:href="#m37170439aa" x="0" y="432" style="fill: #e1812c; stroke: #3f3f3f; stroke-width: 1.25"/>
    </g>
   </g>
   <g id="PolyCollection_3">
    <defs>
     <path id="m0e2b0b8010" d="M 265.987469 -160.216225 
L 264.892531 -160.216225 
L 264.712896 -162.240475 
L 264.487533 -164.264726 
L 264.209141 -166.288977 
L 263.870475 -168.313227 
L 263.464685 -170.337478 
L 262.985687 -172.361729 
L 262.428544 -174.38598 
L 261.789815 -176.41023 
L 261.067848 -178.434481 
L 260.262994 -180.458732 
L 259.377708 -182.482982 
L 258.416552 -184.507233 
L 257.386083 -186.531484 
L 256.29466 -188.555734 
L 255.152203 -190.579985 
L 253.969926 -192.604236 
L 252.760105 -194.628487 
L 251.535889 -196.652737 
L 250.311188 -198.676988 
L 249.100625 -200.701239 
L 247.919535 -202.725489 
L 246.783972 -204.74974 
L 245.710663 -206.773991 
L 244.716866 -208.798242 
L 243.82007 -210.822492 
L 243.037516 -212.846743 
L 242.385539 -214.870994 
L 241.878751 -216.895244 
L 241.529137 -218.919495 
L 241.345147 -220.943746 
L 241.330889 -222.967996 
L 241.485527 -224.992247 
L 241.802977 -227.016498 
L 242.27195 -229.040749 
L 242.876382 -231.064999 
L 243.596204 -233.08925 
L 244.408415 -235.113501 
L 245.288329 -237.137751 
L 246.210909 -239.162002 
L 247.152031 -241.186253 
L 248.089604 -243.210504 
L 249.004435 -245.234754 
L 249.880803 -247.259005 
L 250.706732 -249.283256 
L 251.47399 -251.307506 
L 252.177865 -253.331757 
L 252.816792 -255.356008 
L 253.391895 -257.380259 
L 253.906516 -259.404509 
L 254.365772 -261.42876 
L 254.776163 -263.453011 
L 255.14523 -265.477261 
L 255.481256 -267.501512 
L 255.792976 -269.525763 
L 256.089267 -271.550013 
L 256.378808 -273.574264 
L 256.669701 -275.598515 
L 256.969054 -277.622766 
L 257.282567 -279.647016 
L 257.614153 -281.671267 
L 257.965644 -283.695518 
L 258.336625 -285.719768 
L 258.724428 -287.744019 
L 259.124319 -289.76827 
L 259.52986 -291.792521 
L 259.933424 -293.816771 
L 260.326829 -295.841022 
L 260.702026 -297.865273 
L 261.051766 -299.889523 
L 261.3702 -301.913774 
L 261.653331 -303.938025 
L 261.899296 -305.962275 
L 262.108455 -307.986526 
L 262.283271 -310.010777 
L 262.428024 -312.035028 
L 262.548382 -314.059278 
L 262.650882 -316.083529 
L 262.742378 -318.10778 
L 262.829499 -320.13203 
L 262.918173 -322.156281 
L 263.013255 -324.180532 
L 263.118264 -326.204783 
L 263.23526 -328.229033 
L 263.364849 -330.253284 
L 263.506293 -332.277535 
L 263.657725 -334.301785 
L 263.81641 -336.326036 
L 263.979056 -338.350287 
L 264.142116 -340.374538 
L 264.302078 -342.398788 
L 264.45571 -344.423039 
L 264.600248 -346.44729 
L 264.733523 -348.47154 
L 264.854024 -350.495791 
L 264.960904 -352.520042 
L 265.053934 -354.544292 
L 265.133425 -356.568543 
L 265.200119 -358.592794 
L 265.255077 -360.617045 
L 265.624923 -360.617045 
L 265.624923 -360.617045 
L 265.679881 -358.592794 
L 265.746575 -356.568543 
L 265.826066 -354.544292 
L 265.919096 -352.520042 
L 266.025976 -350.495791 
L 266.146477 -348.47154 
L 266.279752 -346.44729 
L 266.42429 -344.423039 
L 266.577922 -342.398788 
L 266.737884 -340.374538 
L 266.900944 -338.350287 
L 267.06359 -336.326036 
L 267.222275 -334.301785 
L 267.373707 -332.277535 
L 267.515151 -330.253284 
L 267.64474 -328.229033 
L 267.761736 -326.204783 
L 267.866745 -324.180532 
L 267.961827 -322.156281 
L 268.050501 -320.13203 
L 268.137622 -318.10778 
L 268.229118 -316.083529 
L 268.331618 -314.059278 
L 268.451976 -312.035028 
L 268.596729 -310.010777 
L 268.771545 -307.986526 
L 268.980704 -305.962275 
L 269.226669 -303.938025 
L 269.5098 -301.913774 
L 269.828234 -299.889523 
L 270.177974 -297.865273 
L 270.553171 -295.841022 
L 270.946576 -293.816771 
L 271.35014 -291.792521 
L 271.755681 -289.76827 
L 272.155572 -287.744019 
L 272.543375 -285.719768 
L 272.914356 -283.695518 
L 273.265847 -281.671267 
L 273.597433 -279.647016 
L 273.910946 -277.622766 
L 274.210299 -275.598515 
L 274.501192 -273.574264 
L 274.790733 -271.550013 
L 275.087024 -269.525763 
L 275.398744 -267.501512 
L 275.73477 -265.477261 
L 276.103837 -263.453011 
L 276.514228 -261.42876 
L 276.973484 -259.404509 
L 277.488105 -257.380259 
L 278.063208 -255.356008 
L 278.702135 -253.331757 
L 279.40601 -251.307506 
L 280.173268 -249.283256 
L 280.999197 -247.259005 
L 281.875565 -245.234754 
L 282.790396 -243.210504 
L 283.727969 -241.186253 
L 284.669091 -239.162002 
L 285.591671 -237.137751 
L 286.471585 -235.113501 
L 287.283796 -233.08925 
L 288.003618 -231.064999 
L 288.60805 -229.040749 
L 289.077023 -227.016498 
L 289.394473 -224.992247 
L 289.549111 -222.967996 
L 289.534853 -220.943746 
L 289.350863 -218.919495 
L 289.001249 -216.895244 
L 288.494461 -214.870994 
L 287.842484 -212.846743 
L 287.05993 -210.822492 
L 286.163134 -208.798242 
L 285.169337 -206.773991 
L 284.096028 -204.74974 
L 282.960465 -202.725489 
L 281.779375 -200.701239 
L 280.568812 -198.676988 
L 279.344111 -196.652737 
L 278.119895 -194.628487 
L 276.910074 -192.604236 
L 275.727797 -190.579985 
L 274.58534 -188.555734 
L 273.493917 -186.531484 
L 272.463448 -184.507233 
L 271.502292 -182.482982 
L 270.617006 -180.458732 
L 269.812152 -178.434481 
L 269.090185 -176.41023 
L 268.451456 -174.38598 
L 267.894313 -172.361729 
L 267.415315 -170.337478 
L 267.009525 -168.313227 
L 266.670859 -166.288977 
L 266.392467 -164.264726 
L 266.167104 -162.240475 
L 265.987469 -160.216225 
z
" style="stroke: #3f3f3f; stroke-width: 1.25"/>
    </defs>
    <g clip-path="url(#pfdf022d57d)">
     <use xlink:href="#m0e2b0b8010" x="0" y="432" style="fill: #3274a1; stroke: #3f3f3f; stroke-width: 1.25"/>
    </g>
   </g>
   <g id="PolyCollection_4">
    <defs>
     <path id="ma0b5d22c8b" d="M 325.228106 -151.605891 
L 324.691894 -151.605891 
L 324.608156 -152.919855 
L 324.504941 -154.233819 
L 324.379794 -155.547783 
L 324.230493 -156.861746 
L 324.055174 -158.17571 
L 323.85245 -159.489674 
L 323.621502 -160.803638 
L 323.362121 -162.117602 
L 323.074711 -163.431566 
L 322.760236 -164.74553 
L 322.420117 -166.059494 
L 322.056101 -167.373457 
L 321.670107 -168.687421 
L 321.264069 -170.001385 
L 320.839809 -171.315349 
L 320.398926 -172.629313 
L 319.942731 -173.943277 
L 319.472207 -175.257241 
L 318.987988 -176.571205 
L 318.490328 -177.885169 
L 317.979053 -179.199132 
L 317.453478 -180.513096 
L 316.912286 -181.82706 
L 316.353397 -183.141024 
L 315.773849 -184.454988 
L 315.169759 -185.768952 
L 314.536399 -187.082916 
L 313.868448 -188.39688 
L 313.160446 -189.710843 
L 312.407436 -191.024807 
L 311.605774 -192.338771 
L 310.754 -193.652735 
L 309.853687 -194.966699 
L 308.910119 -196.280663 
L 307.932686 -197.594627 
L 306.934891 -198.908591 
L 305.933911 -200.222554 
L 304.949724 -201.536518 
L 304.003848 -202.850482 
L 303.117817 -204.164446 
L 302.311555 -205.47841 
L 301.601824 -206.792374 
L 301.000919 -208.106338 
L 300.51576 -209.420302 
L 300.147475 -210.734266 
L 299.891519 -212.048229 
L 299.738304 -213.362193 
L 299.674266 -214.676157 
L 299.683241 -215.990121 
L 299.747994 -217.304085 
L 299.851755 -218.618049 
L 299.979602 -219.932013 
L 300.11957 -221.245977 
L 300.263406 -222.55994 
L 300.406924 -223.873904 
L 300.549979 -225.187868 
L 300.696085 -226.501832 
L 300.851782 -227.815796 
L 301.025819 -229.12976 
L 301.228281 -230.443724 
L 301.469723 -231.757688 
L 301.760402 -233.071652 
L 302.109637 -234.385615 
L 302.52532 -235.699579 
L 303.013567 -237.013543 
L 303.578486 -238.327507 
L 304.222029 -239.641471 
L 304.943912 -240.955435 
L 305.741566 -242.269399 
L 306.610138 -243.583363 
L 307.542544 -244.897326 
L 308.529591 -246.21129 
L 309.560208 -247.525254 
L 310.621776 -248.839218 
L 311.70059 -250.153182 
L 312.782404 -251.467146 
L 313.853053 -252.78111 
L 314.899077 -254.095074 
L 315.908313 -255.409037 
L 316.87038 -256.723001 
L 317.777018 -258.036965 
L 318.622265 -259.350929 
L 319.402452 -260.664893 
L 320.116043 -261.978857 
L 320.763346 -263.292821 
L 321.346155 -264.606785 
L 321.867355 -265.920749 
L 322.33055 -267.234712 
L 322.739739 -268.548676 
L 323.09906 -269.86264 
L 323.412622 -271.176604 
L 323.684399 -272.490568 
L 323.918191 -273.804532 
L 324.117617 -275.118496 
L 324.28613 -276.43246 
L 324.427043 -277.746423 
L 324.543534 -279.060387 
L 324.638648 -280.374351 
L 324.715285 -281.688315 
L 325.204715 -281.688315 
L 325.204715 -281.688315 
L 325.281352 -280.374351 
L 325.376466 -279.060387 
L 325.492957 -277.746423 
L 325.63387 -276.43246 
L 325.802383 -275.118496 
L 326.001809 -273.804532 
L 326.235601 -272.490568 
L 326.507378 -271.176604 
L 326.82094 -269.86264 
L 327.180261 -268.548676 
L 327.58945 -267.234712 
L 328.052645 -265.920749 
L 328.573845 -264.606785 
L 329.156654 -263.292821 
L 329.803957 -261.978857 
L 330.517548 -260.664893 
L 331.297735 -259.350929 
L 332.142982 -258.036965 
L 333.04962 -256.723001 
L 334.011687 -255.409037 
L 335.020923 -254.095074 
L 336.066947 -252.78111 
L 337.137596 -251.467146 
L 338.21941 -250.153182 
L 339.298224 -248.839218 
L 340.359792 -247.525254 
L 341.390409 -246.21129 
L 342.377456 -244.897326 
L 343.309862 -243.583363 
L 344.178434 -242.269399 
L 344.976088 -240.955435 
L 345.697971 -239.641471 
L 346.341514 -238.327507 
L 346.906433 -237.013543 
L 347.39468 -235.699579 
L 347.810363 -234.385615 
L 348.159598 -233.071652 
L 348.450277 -231.757688 
L 348.691719 -230.443724 
L 348.894181 -229.12976 
L 349.068218 -227.815796 
L 349.223915 -226.501832 
L 349.370021 -225.187868 
L 349.513076 -223.873904 
L 349.656594 -222.55994 
L 349.80043 -221.245977 
L 349.940398 -219.932013 
L 350.068245 -218.618049 
L 350.172006 -217.304085 
L 350.236759 -215.990121 
L 350.245734 -214.676157 
L 350.181696 -213.362193 
L 350.028481 -212.048229 
L 349.772525 -210.734266 
L 349.40424 -209.420302 
L 348.919081 -208.106338 
L 348.318176 -206.792374 
L 347.608445 -205.47841 
L 346.802183 -204.164446 
L 345.916152 -202.850482 
L 344.970276 -201.536518 
L 343.986089 -200.222554 
L 342.985109 -198.908591 
L 341.987314 -197.594627 
L 341.009881 -196.280663 
L 340.066313 -194.966699 
L 339.166 -193.652735 
L 338.314226 -192.338771 
L 337.512564 -191.024807 
L 336.759554 -189.710843 
L 336.051552 -188.39688 
L 335.383601 -187.082916 
L 334.750241 -185.768952 
L 334.146151 -184.454988 
L 333.566603 -183.141024 
L 333.007714 -181.82706 
L 332.466522 -180.513096 
L 331.940947 -179.199132 
L 331.429672 -177.885169 
L 330.932012 -176.571205 
L 330.447793 -175.257241 
L 329.977269 -173.943277 
L 329.521074 -172.629313 
L 329.080191 -171.315349 
L 328.655931 -170.001385 
L 328.249893 -168.687421 
L 327.863899 -167.373457 
L 327.499883 -166.059494 
L 327.159764 -164.74553 
L 326.845289 -163.431566 
L 326.557879 -162.117602 
L 326.298498 -160.803638 
L 326.06755 -159.489674 
L 325.864826 -158.17571 
L 325.689507 -156.861746 
L 325.540206 -155.547783 
L 325.415059 -154.233819 
L 325.311844 -152.919855 
L 325.228106 -151.605891 
z
" style="stroke: #3f3f3f; stroke-width: 1.25"/>
    </defs>
    <g clip-path="url(#pfdf022d57d)">
     <use xlink:href="#ma0b5d22c8b" x="0" y="432" style="fill: #e1812c; stroke: #3f3f3f; stroke-width: 1.25"/>
    </g>
   </g>
   <g id="PolyCollection_5">
    <defs>
     <path id="m480f0d5cb1" d="M 414.382912 -62.64 
L 414.097088 -62.64 
L 414.041829 -65.694545 
L 413.973099 -68.749091 
L 413.890858 -71.803636 
L 413.7964 -74.858182 
L 413.692579 -77.912727 
L 413.583868 -80.967273 
L 413.476164 -84.021818 
L 413.376329 -87.076364 
L 413.291501 -90.130909 
L 413.22827 -93.185455 
L 413.191828 -96.24 
L 413.185273 -99.294545 
L 413.209168 -102.349091 
L 413.261464 -105.403636 
L 413.337784 -108.458182 
L 413.43203 -111.512727 
L 413.53717 -114.567273 
L 413.646087 -117.621818 
L 413.75232 -120.676364 
L 413.850597 -123.730909 
L 413.937089 -126.785455 
L 414.009375 -129.84 
L 414.066151 -132.894545 
L 414.106743 -135.949091 
L 414.1305 -139.003636 
L 414.136117 -142.058182 
L 414.120986 -145.112727 
L 414.080594 -148.167273 
L 414.008061 -151.221818 
L 413.893888 -154.276364 
L 413.725988 -157.330909 
L 413.490115 -160.385455 
L 413.170716 -163.44 
L 412.752237 -166.494545 
L 412.220783 -169.549091 
L 411.565941 -172.603636 
L 410.782474 -175.658182 
L 409.871565 -178.712727 
L 408.841273 -181.767273 
L 407.706016 -184.821818 
L 406.485089 -187.876364 
L 405.200439 -190.930909 
L 403.874176 -193.985455 
L 402.526393 -197.04 
L 401.173872 -200.094545 
L 399.830051 -203.149091 
L 398.506317 -206.203636 
L 397.21432 -209.258182 
L 395.968677 -212.312727 
L 394.789276 -215.367273 
L 393.702432 -218.421818 
L 392.740399 -221.476364 
L 391.939154 -224.530909 
L 391.334794 -227.585455 
L 390.959259 -230.64 
L 390.836236 -233.694545 
L 390.978075 -236.749091 
L 391.384255 -239.803636 
L 392.041601 -242.858182 
L 392.92606 -245.912727 
L 394.005525 -248.967273 
L 395.243101 -252.021818 
L 396.60019 -255.076364 
L 398.038955 -258.130909 
L 399.523929 -261.185455 
L 401.022798 -264.24 
L 402.506513 -267.294545 
L 403.94903 -270.349091 
L 405.326951 -273.403636 
L 406.619293 -276.458182 
L 407.807503 -279.512727 
L 408.87576 -282.567273 
L 409.811489 -285.621818 
L 410.605982 -288.676364 
L 411.255003 -291.730909 
L 411.759254 -294.785455 
L 412.12463 -297.84 
L 412.362188 -300.894545 
L 412.487798 -303.949091 
L 412.521462 -307.003636 
L 412.486283 -310.058182 
L 412.407112 -313.112727 
L 412.308934 -316.167273 
L 412.215118 -319.221818 
L 412.145689 -322.276364 
L 412.115857 -325.330909 
L 412.134996 -328.385455 
L 412.206252 -331.44 
L 412.326848 -334.494545 
L 412.489046 -337.549091 
L 412.681615 -340.603636 
L 412.891557 -343.658182 
L 413.105828 -346.712727 
L 413.312804 -349.767273 
L 413.50331 -352.821818 
L 413.671143 -355.876364 
L 413.813111 -358.930909 
L 413.928675 -361.985455 
L 414.019356 -365.04 
L 414.460644 -365.04 
L 414.460644 -365.04 
L 414.551325 -361.985455 
L 414.666889 -358.930909 
L 414.808857 -355.876364 
L 414.97669 -352.821818 
L 415.167196 -349.767273 
L 415.374172 -346.712727 
L 415.588443 -343.658182 
L 415.798385 -340.603636 
L 415.990954 -337.549091 
L 416.153152 -334.494545 
L 416.273748 -331.44 
L 416.345004 -328.385455 
L 416.364143 -325.330909 
L 416.334311 -322.276364 
L 416.264882 -319.221818 
L 416.171066 -316.167273 
L 416.072888 -313.112727 
L 415.993717 -310.058182 
L 415.958538 -307.003636 
L 415.992202 -303.949091 
L 416.117812 -300.894545 
L 416.35537 -297.84 
L 416.720746 -294.785455 
L 417.224997 -291.730909 
L 417.874018 -288.676364 
L 418.668511 -285.621818 
L 419.60424 -282.567273 
L 420.672497 -279.512727 
L 421.860707 -276.458182 
L 423.153049 -273.403636 
L 424.53097 -270.349091 
L 425.973487 -267.294545 
L 427.457202 -264.24 
L 428.956071 -261.185455 
L 430.441045 -258.130909 
L 431.87981 -255.076364 
L 433.236899 -252.021818 
L 434.474475 -248.967273 
L 435.55394 -245.912727 
L 436.438399 -242.858182 
L 437.095745 -239.803636 
L 437.501925 -236.749091 
L 437.643764 -233.694545 
L 437.520741 -230.64 
L 437.145206 -227.585455 
L 436.540846 -224.530909 
L 435.739601 -221.476364 
L 434.777568 -218.421818 
L 433.690724 -215.367273 
L 432.511323 -212.312727 
L 431.26568 -209.258182 
L 429.973683 -206.203636 
L 428.649949 -203.149091 
L 427.306128 -200.094545 
L 425.953607 -197.04 
L 424.605824 -193.985455 
L 423.279561 -190.930909 
L 421.994911 -187.876364 
L 420.773984 -184.821818 
L 419.638727 -181.767273 
L 418.608435 -178.712727 
L 417.697526 -175.658182 
L 416.914059 -172.603636 
L 416.259217 -169.549091 
L 415.727763 -166.494545 
L 415.309284 -163.44 
L 414.989885 -160.385455 
L 414.754012 -157.330909 
L 414.586112 -154.276364 
L 414.471939 -151.221818 
L 414.399406 -148.167273 
L 414.359014 -145.112727 
L 414.343883 -142.058182 
L 414.3495 -139.003636 
L 414.373257 -135.949091 
L 414.413849 -132.894545 
L 414.470625 -129.84 
L 414.542911 -126.785455 
L 414.629403 -123.730909 
L 414.72768 -120.676364 
L 414.833913 -117.621818 
L 414.94283 -114.567273 
L 415.04797 -111.512727 
L 415.142216 -108.458182 
L 415.218536 -105.403636 
L 415.270832 -102.349091 
L 415.294727 -99.294545 
L 415.288172 -96.24 
L 415.25173 -93.185455 
L 415.188499 -90.130909 
L 415.103671 -87.076364 
L 415.003836 -84.021818 
L 414.896132 -80.967273 
L 414.787421 -77.912727 
L 414.6836 -74.858182 
L 414.589142 -71.803636 
L 414.506901 -68.749091 
L 414.438171 -65.694545 
L 414.382912 -62.64 
z
" style="stroke: #3f3f3f; stroke-width: 1.25"/>
    </defs>
    <g clip-path="url(#pfdf022d57d)">
     <use xlink:href="#m480f0d5cb1" x="0" y="432" style="fill: #3274a1; stroke: #3f3f3f; stroke-width: 1.25"/>
    </g>
   </g>
   <g id="PolyCollection_6">
    <defs>
     <path id="md08353d3c2" d="M 474.24892 -164.239568 
L 473.27108 -164.239568 
L 473.109425 -165.478819 
L 472.905793 -166.71807 
L 472.653081 -167.957322 
L 472.344074 -169.196573 
L 471.97176 -170.435825 
L 471.529685 -171.675076 
L 471.012364 -172.914328 
L 470.41569 -174.153579 
L 469.737342 -175.392831 
L 468.97715 -176.632082 
L 468.137393 -177.871334 
L 467.223001 -179.110585 
L 466.241633 -180.349837 
L 465.203619 -181.589088 
L 464.121741 -182.82834 
L 463.010859 -184.067591 
L 461.887366 -185.306842 
L 460.768499 -186.546094 
L 459.671523 -187.785345 
L 458.612812 -189.024597 
L 457.606907 -190.263848 
L 456.665577 -191.5031 
L 455.797002 -192.742351 
L 455.005132 -193.981603 
L 454.289326 -195.220854 
L 453.644329 -196.460106 
L 453.060653 -197.699357 
L 452.525355 -198.938609 
L 452.023197 -200.17786 
L 451.538099 -201.417112 
L 451.054758 -202.656363 
L 450.560288 -203.895614 
L 450.045692 -205.134866 
L 449.507012 -206.374117 
L 448.946004 -207.613369 
L 448.370274 -208.85262 
L 447.792837 -210.091872 
L 447.23115 -211.331123 
L 446.705738 -212.570375 
L 446.238561 -213.809626 
L 445.851317 -215.048878 
L 445.563849 -216.288129 
L 445.392811 -217.527381 
L 445.350705 -218.766632 
L 445.445325 -220.005884 
L 445.679614 -221.245135 
L 446.051861 -222.484386 
L 446.556168 -223.723638 
L 447.183071 -224.962889 
L 447.920232 -226.202141 
L 448.753128 -227.441392 
L 449.665697 -228.680644 
L 450.640919 -229.919895 
L 451.661341 -231.159147 
L 452.709573 -232.398398 
L 453.768764 -233.63765 
L 454.823072 -234.876901 
L 455.858123 -236.116153 
L 456.861436 -237.355404 
L 457.822784 -238.594656 
L 458.734449 -239.833907 
L 459.591346 -241.073158 
L 460.390997 -242.31241 
L 461.133341 -243.551661 
L 461.820423 -244.790913 
L 462.455965 -246.030164 
L 463.044901 -247.269416 
L 463.592883 -248.508667 
L 464.105841 -249.747919 
L 464.589607 -250.98717 
L 465.049625 -252.226422 
L 465.490764 -253.465673 
L 465.917212 -254.704925 
L 466.332444 -255.944176 
L 466.739242 -257.183428 
L 467.139737 -258.422679 
L 467.535459 -259.66193 
L 467.927394 -260.901182 
L 468.316016 -262.140433 
L 468.701316 -263.379685 
L 469.08282 -264.618936 
L 469.459611 -265.858188 
L 469.830352 -267.097439 
L 470.193339 -268.336691 
L 470.546554 -269.575942 
L 470.887766 -270.815194 
L 471.214631 -272.054445 
L 471.524822 -273.293697 
L 471.816163 -274.532948 
L 472.08675 -275.7722 
L 472.335072 -277.011451 
L 472.560095 -278.250702 
L 472.761319 -279.489954 
L 472.938797 -280.729205 
L 473.093117 -281.968457 
L 473.225349 -283.207708 
L 473.33697 -284.44696 
L 473.429765 -285.686211 
L 473.505721 -286.925463 
L 474.014279 -286.925463 
L 474.014279 -286.925463 
L 474.090235 -285.686211 
L 474.18303 -284.44696 
L 474.294651 -283.207708 
L 474.426883 -281.968457 
L 474.581203 -280.729205 
L 474.758681 -279.489954 
L 474.959905 -278.250702 
L 475.184928 -277.011451 
L 475.43325 -275.7722 
L 475.703837 -274.532948 
L 475.995178 -273.293697 
L 476.305369 -272.054445 
L 476.632234 -270.815194 
L 476.973446 -269.575942 
L 477.326661 -268.336691 
L 477.689648 -267.097439 
L 478.060389 -265.858188 
L 478.43718 -264.618936 
L 478.818684 -263.379685 
L 479.203984 -262.140433 
L 479.592606 -260.901182 
L 479.984541 -259.66193 
L 480.380263 -258.422679 
L 480.780758 -257.183428 
L 481.187556 -255.944176 
L 481.602788 -254.704925 
L 482.029236 -253.465673 
L 482.470375 -252.226422 
L 482.930393 -250.98717 
L 483.414159 -249.747919 
L 483.927117 -248.508667 
L 484.475099 -247.269416 
L 485.064035 -246.030164 
L 485.699577 -244.790913 
L 486.386659 -243.551661 
L 487.129003 -242.31241 
L 487.928654 -241.073158 
L 488.785551 -239.833907 
L 489.697216 -238.594656 
L 490.658564 -237.355404 
L 491.661877 -236.116153 
L 492.696928 -234.876901 
L 493.751236 -233.63765 
L 494.810427 -232.398398 
L 495.858659 -231.159147 
L 496.879081 -229.919895 
L 497.854303 -228.680644 
L 498.766872 -227.441392 
L 499.599768 -226.202141 
L 500.336929 -224.962889 
L 500.963832 -223.723638 
L 501.468139 -222.484386 
L 501.840386 -221.245135 
L 502.074675 -220.005884 
L 502.169295 -218.766632 
L 502.127189 -217.527381 
L 501.956151 -216.288129 
L 501.668683 -215.048878 
L 501.281439 -213.809626 
L 500.814262 -212.570375 
L 500.28885 -211.331123 
L 499.727163 -210.091872 
L 499.149726 -208.85262 
L 498.573996 -207.613369 
L 498.012988 -206.374117 
L 497.474308 -205.134866 
L 496.959712 -203.895614 
L 496.465242 -202.656363 
L 495.981901 -201.417112 
L 495.496803 -200.17786 
L 494.994645 -198.938609 
L 494.459347 -197.699357 
L 493.875671 -196.460106 
L 493.230674 -195.220854 
L 492.514868 -193.981603 
L 491.722998 -192.742351 
L 490.854423 -191.5031 
L 489.913093 -190.263848 
L 488.907188 -189.024597 
L 487.848477 -187.785345 
L 486.751501 -186.546094 
L 485.632634 -185.306842 
L 484.509141 -184.067591 
L 483.398259 -182.82834 
L 482.316381 -181.589088 
L 481.278367 -180.349837 
L 480.296999 -179.110585 
L 479.382607 -177.871334 
L 478.54285 -176.632082 
L 477.782658 -175.392831 
L 477.10431 -174.153579 
L 476.507636 -172.914328 
L 475.990315 -171.675076 
L 475.54824 -170.435825 
L 475.175926 -169.196573 
L 474.866919 -167.957322 
L 474.614207 -166.71807 
L 474.410575 -165.478819 
L 474.24892 -164.239568 
z
" style="stroke: #3f3f3f; stroke-width: 1.25"/>
    </defs>
    <g clip-path="url(#pfdf022d57d)">
     <use xlink:href="#md08353d3c2" x="0" y="432" style="fill: #e1812c; stroke: #3f3f3f; stroke-width: 1.25"/>
    </g>
   </g>
   <g id="patch_3">
    <path d="M 146.4 333.579602 
L 146.4 333.579602 
L 146.4 333.579602 
L 146.4 333.579602 
z
" clip-path="url(#pfdf022d57d)" style="fill: #3274a1; stroke: #3f3f3f; stroke-width: 1.25; stroke-linejoin: miter"/>
   </g>
   <g id="patch_4">
    <path d="M 146.4 333.579602 
L 146.4 333.579602 
L 146.4 333.579602 
L 146.4 333.579602 
z
" clip-path="url(#pfdf022d57d)" style="fill: #e1812c; stroke: #3f3f3f; stroke-width: 1.25; stroke-linejoin: miter"/>
   </g>
   <g id="line2d_9">
    <path d="M 116.64 245.34984 
L 116.64 170.38294 
" clip-path="url(#pfdf022d57d)" style="fill: none; stroke: #3f3f3f; stroke-width: 1.875; stroke-linecap: round"/>
   </g>
   <g id="line2d_10">
    <path d="M 116.64 218.618055 
L 116.64 197.077625 
" clip-path="url(#pfdf022d57d)" style="fill: none; stroke: #3f3f3f; stroke-width: 5.625; stroke-linecap: round"/>
   </g>
   <g id="line2d_11">
    <path d="M 116.64 212.165024 
" clip-path="url(#pfdf022d57d)" style="fill: none; stroke: #3f3f3f; stroke-width: 1.5; stroke-linecap: round"/>
    <defs>
     <path id="m295abc267c" d="M 2.34375 0 
L -2.34375 -0 
" style="stroke: #ffffff; stroke-width: 1.125"/>
    </defs>
    <g clip-path="url(#pfdf022d57d)">
     <use xlink:href="#m295abc267c" x="116.64" y="212.165024" style="fill: #ffffff; stroke: #ffffff; stroke-width: 1.125"/>
    </g>
   </g>
   <g id="line2d_12">
    <path d="M 176.16 262.582112 
L 176.16 186.606957 
" clip-path="url(#pfdf022d57d)" style="fill: none; stroke: #3f3f3f; stroke-width: 1.875; stroke-linecap: round"/>
   </g>
   <g id="line2d_13">
    <path d="M 176.16 235.395438 
L 176.16 213.556271 
" clip-path="url(#pfdf022d57d)" style="fill: none; stroke: #3f3f3f; stroke-width: 5.625; stroke-linecap: round"/>
   </g>
   <g id="line2d_14">
    <path d="M 176.16 224.909356 
" clip-path="url(#pfdf022d57d)" style="fill: none; stroke: #3f3f3f; stroke-width: 1.5; stroke-linecap: round"/>
    <g clip-path="url(#pfdf022d57d)">
     <use xlink:href="#m295abc267c" x="176.16" y="224.909356" style="fill: #ffffff; stroke: #ffffff; stroke-width: 1.125"/>
    </g>
   </g>
   <g id="line2d_15">
    <path d="M 265.44 239.955092 
L 265.44 143.986865 
" clip-path="url(#pfdf022d57d)" style="fill: none; stroke: #3f3f3f; stroke-width: 1.875; stroke-linecap: round"/>
   </g>
   <g id="line2d_16">
    <path d="M 265.44 216.632289 
L 265.44 179.166653 
" clip-path="url(#pfdf022d57d)" style="fill: none; stroke: #3f3f3f; stroke-width: 5.625; stroke-linecap: round"/>
   </g>
   <g id="line2d_17">
    <path d="M 265.44 203.10654 
" clip-path="url(#pfdf022d57d)" style="fill: none; stroke: #3f3f3f; stroke-width: 1.5; stroke-linecap: round"/>
    <g clip-path="url(#pfdf022d57d)">
     <use xlink:href="#m295abc267c" x="265.44" y="203.10654" style="fill: #ffffff; stroke: #ffffff; stroke-width: 1.125"/>
    </g>
   </g>
   <g id="line2d_18">
    <path d="M 324.96 260.131908 
L 324.96 170.573886 
" clip-path="url(#pfdf022d57d)" style="fill: none; stroke: #3f3f3f; stroke-width: 1.875; stroke-linecap: round"/>
   </g>
   <g id="line2d_19">
    <path d="M 324.96 225.492931 
L 324.96 197.415557 
" clip-path="url(#pfdf022d57d)" style="fill: none; stroke: #3f3f3f; stroke-width: 5.625; stroke-linecap: round"/>
   </g>
   <g id="line2d_20">
    <path d="M 324.96 213.644089 
" clip-path="url(#pfdf022d57d)" style="fill: none; stroke: #3f3f3f; stroke-width: 1.5; stroke-linecap: round"/>
    <g clip-path="url(#pfdf022d57d)">
     <use xlink:href="#m295abc267c" x="324.96" y="213.644089" style="fill: #ffffff; stroke: #ffffff; stroke-width: 1.125"/>
    </g>
   </g>
   <g id="line2d_21">
    <path d="M 414.24 236.461524 
L 414.24 157.830349 
" clip-path="url(#pfdf022d57d)" style="fill: none; stroke: #3f3f3f; stroke-width: 1.875; stroke-linecap: round"/>
   </g>
   <g id="line2d_22">
    <path d="M 414.24 215.670521 
L 414.24 181.302641 
" clip-path="url(#pfdf022d57d)" style="fill: none; stroke: #3f3f3f; stroke-width: 5.625; stroke-linecap: round"/>
   </g>
   <g id="line2d_23">
    <path d="M 414.24 199.595772 
" clip-path="url(#pfdf022d57d)" style="fill: none; stroke: #3f3f3f; stroke-width: 1.5; stroke-linecap: round"/>
    <g clip-path="url(#pfdf022d57d)">
     <use xlink:href="#m295abc267c" x="414.24" y="199.595772" style="fill: #ffffff; stroke: #ffffff; stroke-width: 1.125"/>
    </g>
   </g>
   <g id="line2d_24">
    <path d="M 473.76 248.122599 
L 473.76 164.712371 
" clip-path="url(#pfdf022d57d)" style="fill: none; stroke: #3f3f3f; stroke-width: 1.875; stroke-linecap: round"/>
   </g>
   <g id="line2d_25">
    <path d="M 473.76 231.156942 
L 473.76 201.365829 
" clip-path="url(#pfdf022d57d)" style="fill: none; stroke: #3f3f3f; stroke-width: 5.625; stroke-linecap: round"/>
   </g>
   <g id="line2d_26">
    <path d="M 473.76 215.88121 
" clip-path="url(#pfdf022d57d)" style="fill: none; stroke: #3f3f3f; stroke-width: 1.5; stroke-linecap: round"/>
    <g clip-path="url(#pfdf022d57d)">
     <use xlink:href="#m295abc267c" x="473.76" y="215.88121" style="fill: #ffffff; stroke: #ffffff; stroke-width: 1.125"/>
    </g>
   </g>
   <g id="patch_5">
    <path d="M 72 384.48 
L 72 51.84 
" style="fill: none; stroke: #cccccc; stroke-width: 0.8; stroke-linejoin: miter; stroke-linecap: square"/>
   </g>
   <g id="patch_6">
    <path d="M 518.4 384.48 
L 518.4 51.84 
" style="fill: none; stroke: #cccccc; stroke-width: 0.8; stroke-linejoin: miter; stroke-linecap: square"/>
   </g>
   <g id="patch_7">
    <path d="M 72 384.48 
L 518.4 384.48 
" style="fill: none; stroke: #cccccc; stroke-width: 0.8; stroke-linejoin: miter; stroke-linecap: square"/>
   </g>
   <g id="patch_8">
    <path d="M 72 51.84 
L 518.4 51.84 
" style="fill: none; stroke: #cccccc; stroke-width: 0.8; stroke-linejoin: miter; stroke-linecap: square"/>
   </g>
   <g id="legend_1">
    <g id="patch_9">
     <path d="M 456.6125 379.48 
L 511.4 379.48 
Q 513.4 379.48 513.4 377.48 
L 513.4 336.044062 
Q 513.4 334.044062 511.4 334.044062 
L 456.6125 334.044062 
Q 454.6125 334.044062 454.6125 336.044062 
L 454.6125 377.48 
Q 454.6125 379.48 456.6125 379.48 
z
" style="fill: #ffffff; opacity: 0.8; stroke: #cccccc; stroke-linejoin: miter"/>
    </g>
    <g id="text_14">
     <!-- Time -->
     <g style="fill: #262626" transform="translate(473.083594 345.201875) scale(0.1 -0.1)">
      <defs>
       <path id="ArialMT-54" d="M 1659 0 
L 1659 4041 
L 150 4041 
L 150 4581 
L 3781 4581 
L 3781 4041 
L 2266 4041 
L 2266 0 
L 1659 0 
z
" transform="scale(0.015625)"/>
       <path id="ArialMT-6d" d="M 422 0 
L 422 3319 
L 925 3319 
L 925 2853 
Q 1081 3097 1340 3245 
Q 1600 3394 1931 3394 
Q 2300 3394 2536 3241 
Q 2772 3088 2869 2813 
Q 3263 3394 3894 3394 
Q 4388 3394 4653 3120 
Q 4919 2847 4919 2278 
L 4919 0 
L 4359 0 
L 4359 2091 
Q 4359 2428 4304 2576 
Q 4250 2725 4106 2815 
Q 3963 2906 3769 2906 
Q 3419 2906 3187 2673 
Q 2956 2441 2956 1928 
L 2956 0 
L 2394 0 
L 2394 2156 
Q 2394 2531 2256 2718 
Q 2119 2906 1806 2906 
Q 1569 2906 1367 2781 
Q 1166 2656 1075 2415 
Q 984 2175 984 1722 
L 984 0 
L 422 0 
z
" transform="scale(0.015625)"/>
      </defs>
      <use xlink:href="#ArialMT-54"/>
      <use xlink:href="#ArialMT-69" x="57.333984"/>
      <use xlink:href="#ArialMT-6d" x="79.550781"/>
      <use xlink:href="#ArialMT-65" x="162.851562"/>
     </g>
    </g>
    <g id="patch_10">
     <path d="M 458.6125 359.347188 
L 478.6125 359.347188 
L 478.6125 352.347188 
L 458.6125 352.347188 
z
" style="fill: #3274a1; stroke: #3f3f3f; stroke-width: 1.25; stroke-linejoin: miter"/>
    </g>
    <g id="text_15">
     <!-- initial -->
     <g style="fill: #262626" transform="translate(486.6125 359.347188) scale(0.1 -0.1)">
      <use xlink:href="#ArialMT-69"/>
      <use xlink:href="#ArialMT-6e" x="22.216797"/>
      <use xlink:href="#ArialMT-69" x="77.832031"/>
      <use xlink:href="#ArialMT-74" x="100.048828"/>
      <use xlink:href="#ArialMT-69" x="127.832031"/>
      <use xlink:href="#ArialMT-61" x="150.048828"/>
      <use xlink:href="#ArialMT-6c" x="205.664062"/>
     </g>
    </g>
    <g id="patch_11">
     <path d="M 458.6125 373.4925 
L 478.6125 373.4925 
L 478.6125 366.4925 
L 458.6125 366.4925 
z
" style="fill: #e1812c; stroke: #3f3f3f; stroke-width: 1.25; stroke-linejoin: miter"/>
    </g>
    <g id="text_16">
     <!-- final -->
     <g style="fill: #262626" transform="translate(486.6125 373.4925) scale(0.1 -0.1)">
      <use xlink:href="#ArialMT-66"/>
      <use xlink:href="#ArialMT-69" x="27.783203"/>
      <use xlink:href="#ArialMT-6e" x="50"/>
      <use xlink:href="#ArialMT-61" x="105.615234"/>
      <use xlink:href="#ArialMT-6c" x="161.230469"/>
     </g>
    </g>
   </g>
  </g>
 </g>
 <defs>
  <clipPath id="pfdf022d57d">
   <rect x="72" y="51.84" width="446.4" height="332.64"/>
  </clipPath>
 </defs>
</svg>
