<?xml version="1.0" encoding="utf-8" standalone="no"?>
<!DOCTYPE svg PUBLIC "-//W3C//DTD SVG 1.1//EN"
  "http://www.w3.org/Graphics/SVG/1.1/DTD/svg11.dtd">
<svg xmlns:xlink="http://www.w3.org/1999/xlink" width="576pt" height="432pt" viewBox="0 0 576 432" xmlns="http://www.w3.org/2000/svg" version="1.1">
 <metadata>
  <rdf:RDF xmlns:dc="http://purl.org/dc/elements/1.1/" xmlns:cc="http://creativecommons.org/ns#" xmlns:rdf="http://www.w3.org/1999/02/22-rdf-syntax-ns#">
   <cc:Work>
    <dc:type rdf:resource="http://purl.org/dc/dcmitype/StillImage"/>
    <dc:date>2024-09-09T17:20:19.293076</dc:date>
    <dc:format>image/svg+xml</dc:format>
    <dc:creator>
     <cc:Agent>
      <dc:title>Matplotlib v3.8.3, https://matplotlib.org/</dc:title>
     </cc:Agent>
    </dc:creator>
   </cc:Work>
  </rdf:RDF>
 </metadata>
 <defs>
  <style type="text/css">*{stroke-linejoin: round; stroke-linecap: butt}</style>
 </defs>
 <g id="figure_1">
  <g id="patch_1">
   <path d="M 0 432 
L 576 432 
L 576 0 
L 0 0 
z
" style="fill: #ffffff"/>
  </g>
  <g id="axes_1">
   <g id="patch_2">
    <path d="M 72 384.48 
L 518.4 384.48 
L 518.4 51.84 
L 72 51.84 
z
" style="fill: #ffffff"/>
   </g>
   <g id="matplotlib.axis_1">
    <g id="xtick_1">
     <g id="text_1">
      <!-- 1 -->
      <g style="fill: #262626" transform="translate(143.619531 398.637812) scale(0.1 -0.1)">
       <defs>
        <path id="ArialMT-31" d="M 2384 0 
L 1822 0 
L 1822 3584 
Q 1619 3391 1289 3197 
Q 959 3003 697 2906 
L 697 3450 
Q 1169 3672 1522 3987 
Q 1875 4303 2022 4600 
L 2384 4600 
L 2384 0 
z
" transform="scale(0.015625)"/>
       </defs>
       <use xlink:href="#ArialMT-31"/>
      </g>
     </g>
    </g>
    <g id="xtick_2">
     <g id="text_2">
      <!-- 2 -->
      <g style="fill: #262626" transform="translate(292.419531 398.637812) scale(0.1 -0.1)">
       <defs>
        <path id="ArialMT-32" d="M 3222 541 
L 3222 0 
L 194 0 
Q 188 203 259 391 
Q 375 700 629 1000 
Q 884 1300 1366 1694 
Q 2113 2306 2375 2664 
Q 2638 3022 2638 3341 
Q 2638 3675 2398 3904 
Q 2159 4134 1775 4134 
Q 1369 4134 1125 3890 
Q 881 3647 878 3216 
L 300 3275 
Q 359 3922 746 4261 
Q 1134 4600 1788 4600 
Q 2447 4600 2831 4234 
Q 3216 3869 3216 3328 
Q 3216 3053 3103 2787 
Q 2991 2522 2730 2228 
Q 2469 1934 1863 1422 
Q 1356 997 1212 845 
Q 1069 694 975 541 
L 3222 541 
z
" transform="scale(0.015625)"/>
       </defs>
       <use xlink:href="#ArialMT-32"/>
      </g>
     </g>
    </g>
    <g id="xtick_3">
     <g id="text_3">
      <!-- 3 -->
      <g style="fill: #262626" transform="translate(441.219531 398.637812) scale(0.1 -0.1)">
       <defs>
        <path id="ArialMT-33" d="M 269 1209 
L 831 1284 
Q 928 806 1161 595 
Q 1394 384 1728 384 
Q 2125 384 2398 659 
Q 2672 934 2672 1341 
Q 2672 1728 2419 1979 
Q 2166 2231 1775 2231 
Q 1616 2231 1378 2169 
L 1441 2663 
Q 1497 2656 1531 2656 
Q 1891 2656 2178 2843 
Q 2466 3031 2466 3422 
Q 2466 3731 2256 3934 
Q 2047 4138 1716 4138 
Q 1388 4138 1169 3931 
Q 950 3725 888 3313 
L 325 3413 
Q 428 3978 793 4289 
Q 1159 4600 1703 4600 
Q 2078 4600 2393 4439 
Q 2709 4278 2876 4000 
Q 3044 3722 3044 3409 
Q 3044 3113 2884 2869 
Q 2725 2625 2413 2481 
Q 2819 2388 3044 2092 
Q 3269 1797 3269 1353 
Q 3269 753 2831 336 
Q 2394 -81 1725 -81 
Q 1122 -81 723 278 
Q 325 638 269 1209 
z
" transform="scale(0.015625)"/>
       </defs>
       <use xlink:href="#ArialMT-33"/>
      </g>
     </g>
    </g>
    <g id="text_4">
     <!-- Effort level -->
     <g style="fill: #262626" transform="translate(271.667969 411.783125) scale(0.1 -0.1)">
      <defs>
       <path id="ArialMT-45" d="M 506 0 
L 506 4581 
L 3819 4581 
L 3819 4041 
L 1113 4041 
L 1113 2638 
L 3647 2638 
L 3647 2100 
L 1113 2100 
L 1113 541 
L 3925 541 
L 3925 0 
L 506 0 
z
" transform="scale(0.015625)"/>
       <path id="ArialMT-66" d="M 556 0 
L 556 2881 
L 59 2881 
L 59 3319 
L 556 3319 
L 556 3672 
Q 556 4006 616 4169 
Q 697 4388 901 4523 
Q 1106 4659 1475 4659 
Q 1713 4659 2000 4603 
L 1916 4113 
Q 1741 4144 1584 4144 
Q 1328 4144 1222 4034 
Q 1116 3925 1116 3625 
L 1116 3319 
L 1763 3319 
L 1763 2881 
L 1116 2881 
L 1116 0 
L 556 0 
z
" transform="scale(0.015625)"/>
       <path id="ArialMT-6f" d="M 213 1659 
Q 213 2581 725 3025 
Q 1153 3394 1769 3394 
Q 2453 3394 2887 2945 
Q 3322 2497 3322 1706 
Q 3322 1066 3130 698 
Q 2938 331 2570 128 
Q 2203 -75 1769 -75 
Q 1072 -75 642 372 
Q 213 819 213 1659 
z
M 791 1659 
Q 791 1022 1069 705 
Q 1347 388 1769 388 
Q 2188 388 2466 706 
Q 2744 1025 2744 1678 
Q 2744 2294 2464 2611 
Q 2184 2928 1769 2928 
Q 1347 2928 1069 2612 
Q 791 2297 791 1659 
z
" transform="scale(0.015625)"/>
       <path id="ArialMT-72" d="M 416 0 
L 416 3319 
L 922 3319 
L 922 2816 
Q 1116 3169 1280 3281 
Q 1444 3394 1641 3394 
Q 1925 3394 2219 3213 
L 2025 2691 
Q 1819 2813 1613 2813 
Q 1428 2813 1281 2702 
Q 1134 2591 1072 2394 
Q 978 2094 978 1738 
L 978 0 
L 416 0 
z
" transform="scale(0.015625)"/>
       <path id="ArialMT-74" d="M 1650 503 
L 1731 6 
Q 1494 -44 1306 -44 
Q 1000 -44 831 53 
Q 663 150 594 308 
Q 525 466 525 972 
L 525 2881 
L 113 2881 
L 113 3319 
L 525 3319 
L 525 4141 
L 1084 4478 
L 1084 3319 
L 1650 3319 
L 1650 2881 
L 1084 2881 
L 1084 941 
Q 1084 700 1114 631 
Q 1144 563 1211 522 
Q 1278 481 1403 481 
Q 1497 481 1650 503 
z
" transform="scale(0.015625)"/>
       <path id="ArialMT-20" transform="scale(0.015625)"/>
       <path id="ArialMT-6c" d="M 409 0 
L 409 4581 
L 972 4581 
L 972 0 
L 409 0 
z
" transform="scale(0.015625)"/>
       <path id="ArialMT-65" d="M 2694 1069 
L 3275 997 
Q 3138 488 2766 206 
Q 2394 -75 1816 -75 
Q 1088 -75 661 373 
Q 234 822 234 1631 
Q 234 2469 665 2931 
Q 1097 3394 1784 3394 
Q 2450 3394 2872 2941 
Q 3294 2488 3294 1666 
Q 3294 1616 3291 1516 
L 816 1516 
Q 847 969 1125 678 
Q 1403 388 1819 388 
Q 2128 388 2347 550 
Q 2566 713 2694 1069 
z
M 847 1978 
L 2700 1978 
Q 2663 2397 2488 2606 
Q 2219 2931 1791 2931 
Q 1403 2931 1139 2672 
Q 875 2413 847 1978 
z
" transform="scale(0.015625)"/>
       <path id="ArialMT-76" d="M 1344 0 
L 81 3319 
L 675 3319 
L 1388 1331 
Q 1503 1009 1600 663 
Q 1675 925 1809 1294 
L 2547 3319 
L 3125 3319 
L 1869 0 
L 1344 0 
z
" transform="scale(0.015625)"/>
      </defs>
      <use xlink:href="#ArialMT-45"/>
      <use xlink:href="#ArialMT-66" x="66.699219"/>
      <use xlink:href="#ArialMT-66" x="92.732422"/>
      <use xlink:href="#ArialMT-6f" x="120.515625"/>
      <use xlink:href="#ArialMT-72" x="176.130859"/>
      <use xlink:href="#ArialMT-74" x="209.431641"/>
      <use xlink:href="#ArialMT-20" x="237.214844"/>
      <use xlink:href="#ArialMT-6c" x="264.998047"/>
      <use xlink:href="#ArialMT-65" x="287.214844"/>
      <use xlink:href="#ArialMT-76" x="342.830078"/>
      <use xlink:href="#ArialMT-65" x="392.830078"/>
      <use xlink:href="#ArialMT-6c" x="448.445312"/>
     </g>
    </g>
   </g>
   <g id="matplotlib.axis_2">
    <g id="ytick_1">
     <g id="line2d_1">
      <path d="M 72 327.86529 
L 518.4 327.86529 
" clip-path="url(#p815cfb0819)" style="fill: none; stroke: #cccccc; stroke-width: 0.8; stroke-linecap: round"/>
     </g>
     <g id="text_5">
      <!-- 0 -->
      <g style="fill: #262626" transform="translate(59.439062 331.444196) scale(0.1 -0.1)">
       <defs>
        <path id="ArialMT-30" d="M 266 2259 
Q 266 3072 433 3567 
Q 600 4063 929 4331 
Q 1259 4600 1759 4600 
Q 2128 4600 2406 4451 
Q 2684 4303 2865 4023 
Q 3047 3744 3150 3342 
Q 3253 2941 3253 2259 
Q 3253 1453 3087 958 
Q 2922 463 2592 192 
Q 2263 -78 1759 -78 
Q 1097 -78 719 397 
Q 266 969 266 2259 
z
M 844 2259 
Q 844 1131 1108 757 
Q 1372 384 1759 384 
Q 2147 384 2411 759 
Q 2675 1134 2675 2259 
Q 2675 3391 2411 3762 
Q 2147 4134 1753 4134 
Q 1366 4134 1134 3806 
Q 844 3388 844 2259 
z
" transform="scale(0.015625)"/>
       </defs>
       <use xlink:href="#ArialMT-30"/>
      </g>
     </g>
    </g>
    <g id="ytick_2">
     <g id="line2d_2">
      <path d="M 72 260.922103 
L 518.4 260.922103 
" clip-path="url(#p815cfb0819)" style="fill: none; stroke: #cccccc; stroke-width: 0.8; stroke-linecap: round"/>
     </g>
     <g id="text_6">
      <!-- 20 -->
      <g style="fill: #262626" transform="translate(53.878125 264.501009) scale(0.1 -0.1)">
       <use xlink:href="#ArialMT-32"/>
       <use xlink:href="#ArialMT-30" x="55.615234"/>
      </g>
     </g>
    </g>
    <g id="ytick_3">
     <g id="line2d_3">
      <path d="M 72 193.978916 
L 518.4 193.978916 
" clip-path="url(#p815cfb0819)" style="fill: none; stroke: #cccccc; stroke-width: 0.8; stroke-linecap: round"/>
     </g>
     <g id="text_7">
      <!-- 40 -->
      <g style="fill: #262626" transform="translate(53.878125 197.557823) scale(0.1 -0.1)">
       <defs>
        <path id="ArialMT-34" d="M 2069 0 
L 2069 1097 
L 81 1097 
L 81 1613 
L 2172 4581 
L 2631 4581 
L 2631 1613 
L 3250 1613 
L 3250 1097 
L 2631 1097 
L 2631 0 
L 2069 0 
z
M 2069 1613 
L 2069 3678 
L 634 1613 
L 2069 1613 
z
" transform="scale(0.015625)"/>
       </defs>
       <use xlink:href="#ArialMT-34"/>
       <use xlink:href="#ArialMT-30" x="55.615234"/>
      </g>
     </g>
    </g>
    <g id="ytick_4">
     <g id="line2d_4">
      <path d="M 72 127.03573 
L 518.4 127.03573 
" clip-path="url(#p815cfb0819)" style="fill: none; stroke: #cccccc; stroke-width: 0.8; stroke-linecap: round"/>
     </g>
     <g id="text_8">
      <!-- 60 -->
      <g style="fill: #262626" transform="translate(53.878125 130.614636) scale(0.1 -0.1)">
       <defs>
        <path id="ArialMT-36" d="M 3184 3459 
L 2625 3416 
Q 2550 3747 2413 3897 
Q 2184 4138 1850 4138 
Q 1581 4138 1378 3988 
Q 1113 3794 959 3422 
Q 806 3050 800 2363 
Q 1003 2672 1297 2822 
Q 1591 2972 1913 2972 
Q 2475 2972 2870 2558 
Q 3266 2144 3266 1488 
Q 3266 1056 3080 686 
Q 2894 316 2569 119 
Q 2244 -78 1831 -78 
Q 1128 -78 684 439 
Q 241 956 241 2144 
Q 241 3472 731 4075 
Q 1159 4600 1884 4600 
Q 2425 4600 2770 4297 
Q 3116 3994 3184 3459 
z
M 888 1484 
Q 888 1194 1011 928 
Q 1134 663 1356 523 
Q 1578 384 1822 384 
Q 2178 384 2434 671 
Q 2691 959 2691 1453 
Q 2691 1928 2437 2201 
Q 2184 2475 1800 2475 
Q 1419 2475 1153 2201 
Q 888 1928 888 1484 
z
" transform="scale(0.015625)"/>
       </defs>
       <use xlink:href="#ArialMT-36"/>
       <use xlink:href="#ArialMT-30" x="55.615234"/>
      </g>
     </g>
    </g>
    <g id="ytick_5">
     <g id="line2d_5">
      <path d="M 72 60.092543 
L 518.4 60.092543 
" clip-path="url(#p815cfb0819)" style="fill: none; stroke: #cccccc; stroke-width: 0.8; stroke-linecap: round"/>
     </g>
     <g id="text_9">
      <!-- 80 -->
      <g style="fill: #262626" transform="translate(53.878125 63.671449) scale(0.1 -0.1)">
       <defs>
        <path id="ArialMT-38" d="M 1131 2484 
Q 781 2613 612 2850 
Q 444 3088 444 3419 
Q 444 3919 803 4259 
Q 1163 4600 1759 4600 
Q 2359 4600 2725 4251 
Q 3091 3903 3091 3403 
Q 3091 3084 2923 2848 
Q 2756 2613 2416 2484 
Q 2838 2347 3058 2040 
Q 3278 1734 3278 1309 
Q 3278 722 2862 322 
Q 2447 -78 1769 -78 
Q 1091 -78 675 323 
Q 259 725 259 1325 
Q 259 1772 486 2073 
Q 713 2375 1131 2484 
z
M 1019 3438 
Q 1019 3113 1228 2906 
Q 1438 2700 1772 2700 
Q 2097 2700 2305 2904 
Q 2513 3109 2513 3406 
Q 2513 3716 2298 3927 
Q 2084 4138 1766 4138 
Q 1444 4138 1231 3931 
Q 1019 3725 1019 3438 
z
M 838 1322 
Q 838 1081 952 856 
Q 1066 631 1291 507 
Q 1516 384 1775 384 
Q 2178 384 2440 643 
Q 2703 903 2703 1303 
Q 2703 1709 2433 1975 
Q 2163 2241 1756 2241 
Q 1359 2241 1098 1978 
Q 838 1716 838 1322 
z
" transform="scale(0.015625)"/>
       </defs>
       <use xlink:href="#ArialMT-38"/>
       <use xlink:href="#ArialMT-30" x="55.615234"/>
      </g>
     </g>
    </g>
    <g id="text_10">
     <!-- Ventilation (l/min) -->
     <g style="fill: #262626" transform="translate(47.773437 256.508437) rotate(-90) scale(0.1 -0.1)">
      <defs>
       <path id="ArialMT-56" d="M 1803 0 
L 28 4581 
L 684 4581 
L 1875 1253 
Q 2019 853 2116 503 
Q 2222 878 2363 1253 
L 3600 4581 
L 4219 4581 
L 2425 0 
L 1803 0 
z
" transform="scale(0.015625)"/>
       <path id="ArialMT-6e" d="M 422 0 
L 422 3319 
L 928 3319 
L 928 2847 
Q 1294 3394 1984 3394 
Q 2284 3394 2536 3286 
Q 2788 3178 2913 3003 
Q 3038 2828 3088 2588 
Q 3119 2431 3119 2041 
L 3119 0 
L 2556 0 
L 2556 2019 
Q 2556 2363 2490 2533 
Q 2425 2703 2258 2804 
Q 2091 2906 1866 2906 
Q 1506 2906 1245 2678 
Q 984 2450 984 1813 
L 984 0 
L 422 0 
z
" transform="scale(0.015625)"/>
       <path id="ArialMT-69" d="M 425 3934 
L 425 4581 
L 988 4581 
L 988 3934 
L 425 3934 
z
M 425 0 
L 425 3319 
L 988 3319 
L 988 0 
L 425 0 
z
" transform="scale(0.015625)"/>
       <path id="ArialMT-61" d="M 2588 409 
Q 2275 144 1986 34 
Q 1697 -75 1366 -75 
Q 819 -75 525 192 
Q 231 459 231 875 
Q 231 1119 342 1320 
Q 453 1522 633 1644 
Q 813 1766 1038 1828 
Q 1203 1872 1538 1913 
Q 2219 1994 2541 2106 
Q 2544 2222 2544 2253 
Q 2544 2597 2384 2738 
Q 2169 2928 1744 2928 
Q 1347 2928 1158 2789 
Q 969 2650 878 2297 
L 328 2372 
Q 403 2725 575 2942 
Q 747 3159 1072 3276 
Q 1397 3394 1825 3394 
Q 2250 3394 2515 3294 
Q 2781 3194 2906 3042 
Q 3031 2891 3081 2659 
Q 3109 2516 3109 2141 
L 3109 1391 
Q 3109 606 3145 398 
Q 3181 191 3288 0 
L 2700 0 
Q 2613 175 2588 409 
z
M 2541 1666 
Q 2234 1541 1622 1453 
Q 1275 1403 1131 1340 
Q 988 1278 909 1158 
Q 831 1038 831 891 
Q 831 666 1001 516 
Q 1172 366 1500 366 
Q 1825 366 2078 508 
Q 2331 650 2450 897 
Q 2541 1088 2541 1459 
L 2541 1666 
z
" transform="scale(0.015625)"/>
       <path id="ArialMT-28" d="M 1497 -1347 
Q 1031 -759 709 28 
Q 388 816 388 1659 
Q 388 2403 628 3084 
Q 909 3875 1497 4659 
L 1900 4659 
Q 1522 4009 1400 3731 
Q 1209 3300 1100 2831 
Q 966 2247 966 1656 
Q 966 153 1900 -1347 
L 1497 -1347 
z
" transform="scale(0.015625)"/>
       <path id="ArialMT-2f" d="M 0 -78 
L 1328 4659 
L 1778 4659 
L 453 -78 
L 0 -78 
z
" transform="scale(0.015625)"/>
       <path id="ArialMT-6d" d="M 422 0 
L 422 3319 
L 925 3319 
L 925 2853 
Q 1081 3097 1340 3245 
Q 1600 3394 1931 3394 
Q 2300 3394 2536 3241 
Q 2772 3088 2869 2813 
Q 3263 3394 3894 3394 
Q 4388 3394 4653 3120 
Q 4919 2847 4919 2278 
L 4919 0 
L 4359 0 
L 4359 2091 
Q 4359 2428 4304 2576 
Q 4250 2725 4106 2815 
Q 3963 2906 3769 2906 
Q 3419 2906 3187 2673 
Q 2956 2441 2956 1928 
L 2956 0 
L 2394 0 
L 2394 2156 
Q 2394 2531 2256 2718 
Q 2119 2906 1806 2906 
Q 1569 2906 1367 2781 
Q 1166 2656 1075 2415 
Q 984 2175 984 1722 
L 984 0 
L 422 0 
z
" transform="scale(0.015625)"/>
       <path id="ArialMT-29" d="M 791 -1347 
L 388 -1347 
Q 1322 153 1322 1656 
Q 1322 2244 1188 2822 
Q 1081 3291 891 3722 
Q 769 4003 388 4659 
L 791 4659 
Q 1378 3875 1659 3084 
Q 1900 2403 1900 1659 
Q 1900 816 1576 28 
Q 1253 -759 791 -1347 
z
" transform="scale(0.015625)"/>
      </defs>
      <use xlink:href="#ArialMT-56"/>
      <use xlink:href="#ArialMT-65" x="61.199219"/>
      <use xlink:href="#ArialMT-6e" x="116.814453"/>
      <use xlink:href="#ArialMT-74" x="172.429688"/>
      <use xlink:href="#ArialMT-69" x="200.212891"/>
      <use xlink:href="#ArialMT-6c" x="222.429688"/>
      <use xlink:href="#ArialMT-61" x="244.646484"/>
      <use xlink:href="#ArialMT-74" x="300.261719"/>
      <use xlink:href="#ArialMT-69" x="328.044922"/>
      <use xlink:href="#ArialMT-6f" x="350.261719"/>
      <use xlink:href="#ArialMT-6e" x="405.876953"/>
      <use xlink:href="#ArialMT-20" x="461.492188"/>
      <use xlink:href="#ArialMT-28" x="489.275391"/>
      <use xlink:href="#ArialMT-6c" x="522.576172"/>
      <use xlink:href="#ArialMT-2f" x="544.792969"/>
      <use xlink:href="#ArialMT-6d" x="572.576172"/>
      <use xlink:href="#ArialMT-69" x="655.876953"/>
      <use xlink:href="#ArialMT-6e" x="678.09375"/>
      <use xlink:href="#ArialMT-29" x="733.708984"/>
     </g>
    </g>
   </g>
   <g id="PolyCollection_1">
    <defs>
     <path id="m2c793fa925" d="M 116.857253 -101.103833 
L 116.422747 -101.103833 
L 116.350402 -103.72752 
L 116.260216 -106.351207 
L 116.149626 -108.974894 
L 116.016019 -111.598581 
L 115.856675 -114.222268 
L 115.668639 -116.845955 
L 115.448498 -119.469642 
L 115.192084 -122.09333 
L 114.894119 -124.717017 
L 114.547858 -127.340704 
L 114.144792 -129.964391 
L 113.674488 -132.588078 
L 113.124665 -135.211765 
L 112.481554 -137.835452 
L 111.730608 -140.459139 
L 110.857545 -143.082826 
L 109.849708 -145.706513 
L 108.697616 -148.3302 
L 107.396597 -150.953888 
L 105.948322 -153.577575 
L 104.362055 -156.201262 
L 102.655465 -158.824949 
L 100.854857 -161.448636 
L 98.994727 -164.072323 
L 97.116644 -166.69601 
L 95.267479 -169.319697 
L 93.497107 -171.943384 
L 91.855727 -174.567071 
L 90.391012 -177.190758 
L 89.145281 -179.814445 
L 88.152915 -182.438133 
L 87.438213 -185.06182 
L 87.01384 -187.685507 
L 86.88 -190.309194 
L 87.024409 -192.932881 
L 87.42309 -195.556568 
L 88.041967 -198.180255 
L 88.839151 -200.803942 
L 89.767793 -203.427629 
L 90.779269 -206.051316 
L 91.826492 -208.675003 
L 92.867046 -211.298691 
L 93.86589 -213.922378 
L 94.797386 -216.546065 
L 95.646458 -219.169752 
L 96.408777 -221.793439 
L 97.089962 -224.417126 
L 97.703898 -227.040813 
L 98.27036 -229.6645 
L 98.812214 -232.288187 
L 99.352525 -234.911874 
L 99.911885 -237.535561 
L 100.506241 -240.159249 
L 101.145456 -242.782936 
L 101.832702 -245.406623 
L 102.564687 -248.03031 
L 103.332617 -250.653997 
L 104.123708 -253.277684 
L 104.922979 -255.901371 
L 105.715098 -258.525058 
L 106.48601 -261.148745 
L 107.224195 -263.772432 
L 107.921418 -266.396119 
L 108.572962 -269.019807 
L 109.17739 -271.643494 
L 109.735935 -274.267181 
L 110.251665 -276.890868 
L 110.728578 -279.514555 
L 111.170762 -282.138242 
L 111.581729 -284.761929 
L 111.963995 -287.385616 
L 112.318925 -290.009303 
L 112.646843 -292.63299 
L 112.947335 -295.256677 
L 113.219703 -297.880365 
L 113.46345 -300.504052 
L 113.678752 -303.127739 
L 113.866811 -305.751426 
L 114.030042 -308.375113 
L 114.172079 -310.9988 
L 114.297568 -313.622487 
L 114.411815 -316.246174 
L 114.520301 -318.869861 
L 114.628165 -321.493548 
L 114.739711 -324.117235 
L 114.858021 -326.740922 
L 114.984706 -329.36461 
L 115.119849 -331.988297 
L 115.262114 -334.611984 
L 115.409018 -337.235671 
L 115.557291 -339.859358 
L 115.703306 -342.483045 
L 115.843482 -345.106732 
L 115.974642 -347.730419 
L 116.094263 -350.354106 
L 116.200635 -352.977793 
L 116.292894 -355.60148 
L 116.37097 -358.225168 
L 116.435465 -360.848855 
L 116.844535 -360.848855 
L 116.844535 -360.848855 
L 116.90903 -358.225168 
L 116.987106 -355.60148 
L 117.079365 -352.977793 
L 117.185737 -350.354106 
L 117.305358 -347.730419 
L 117.436518 -345.106732 
L 117.576694 -342.483045 
L 117.722709 -339.859358 
L 117.870982 -337.235671 
L 118.017886 -334.611984 
L 118.160151 -331.988297 
L 118.295294 -329.36461 
L 118.421979 -326.740922 
L 118.540289 -324.117235 
L 118.651835 -321.493548 
L 118.759699 -318.869861 
L 118.868185 -316.246174 
L 118.982432 -313.622487 
L 119.107921 -310.9988 
L 119.249958 -308.375113 
L 119.413189 -305.751426 
L 119.601248 -303.127739 
L 119.81655 -300.504052 
L 120.060297 -297.880365 
L 120.332665 -295.256677 
L 120.633157 -292.63299 
L 120.961075 -290.009303 
L 121.316005 -287.385616 
L 121.698271 -284.761929 
L 122.109238 -282.138242 
L 122.551422 -279.514555 
L 123.028335 -276.890868 
L 123.544065 -274.267181 
L 124.10261 -271.643494 
L 124.707038 -269.019807 
L 125.358582 -266.396119 
L 126.055805 -263.772432 
L 126.79399 -261.148745 
L 127.564902 -258.525058 
L 128.357021 -255.901371 
L 129.156292 -253.277684 
L 129.947383 -250.653997 
L 130.715313 -248.03031 
L 131.447298 -245.406623 
L 132.134544 -242.782936 
L 132.773759 -240.159249 
L 133.368115 -237.535561 
L 133.927475 -234.911874 
L 134.467786 -232.288187 
L 135.00964 -229.6645 
L 135.576102 -227.040813 
L 136.190038 -224.417126 
L 136.871223 -221.793439 
L 137.633542 -219.169752 
L 138.482614 -216.546065 
L 139.41411 -213.922378 
L 140.412954 -211.298691 
L 141.453508 -208.675003 
L 142.500731 -206.051316 
L 143.512207 -203.427629 
L 144.440849 -200.803942 
L 145.238033 -198.180255 
L 145.85691 -195.556568 
L 146.255591 -192.932881 
L 146.4 -190.309194 
L 146.26616 -187.685507 
L 145.841787 -185.06182 
L 145.127085 -182.438133 
L 144.134719 -179.814445 
L 142.888988 -177.190758 
L 141.424273 -174.567071 
L 139.782893 -171.943384 
L 138.012521 -169.319697 
L 136.163356 -166.69601 
L 134.285273 -164.072323 
L 132.425143 -161.448636 
L 130.624535 -158.824949 
L 128.917945 -156.201262 
L 127.331678 -153.577575 
L 125.883403 -150.953888 
L 124.582384 -148.3302 
L 123.430292 -145.706513 
L 122.422455 -143.082826 
L 121.549392 -140.459139 
L 120.798446 -137.835452 
L 120.155335 -135.211765 
L 119.605512 -132.588078 
L 119.135208 -129.964391 
L 118.732142 -127.340704 
L 118.385881 -124.717017 
L 118.087916 -122.09333 
L 117.831502 -119.469642 
L 117.611361 -116.845955 
L 117.423325 -114.222268 
L 117.263981 -111.598581 
L 117.130374 -108.974894 
L 117.019784 -106.351207 
L 116.929598 -103.72752 
L 116.857253 -101.103833 
z
" style="stroke: #3f3f3f; stroke-width: 1.25"/>
    </defs>
    <g clip-path="url(#p815cfb0819)">
     <use xlink:href="#m2c793fa925" x="0" y="432" style="fill: #3274a1; stroke: #3f3f3f; stroke-width: 1.25"/>
    </g>
   </g>
   <g id="PolyCollection_2">
    <defs>
     <path id="m2a28681cbc" d="M 176.907654 -116.783059 
L 175.412346 -116.783059 
L 175.183923 -118.455529 
L 174.903789 -120.127999 
L 174.565987 -121.800469 
L 174.165483 -123.472939 
L 173.698628 -125.145409 
L 173.163587 -126.817879 
L 172.5607 -128.490349 
L 171.892702 -130.162818 
L 171.164781 -131.835288 
L 170.384412 -133.507758 
L 169.560983 -135.180228 
L 168.7052 -136.852698 
L 167.828329 -138.525168 
L 166.941343 -140.197638 
L 166.054057 -141.870108 
L 165.174359 -143.542578 
L 164.307636 -145.215047 
L 163.456477 -146.887517 
L 162.6207 -148.559987 
L 161.797731 -150.232457 
L 160.983288 -151.904927 
L 160.172306 -153.577397 
L 159.359984 -155.249867 
L 158.542835 -156.922337 
L 157.719597 -158.594806 
L 156.891887 -160.267276 
L 156.064516 -161.939746 
L 155.245421 -163.612216 
L 154.44523 -165.284686 
L 153.676498 -166.957156 
L 152.952743 -168.629626 
L 152.287372 -170.302096 
L 151.692653 -171.974565 
L 151.178832 -173.647035 
L 150.75351 -175.319505 
L 150.421308 -176.991975 
L 150.183856 -178.664445 
L 150.04007 -180.336915 
L 149.986641 -182.009385 
L 150.018668 -183.681855 
L 150.130336 -185.354324 
L 150.315536 -187.026794 
L 150.568382 -188.699264 
L 150.883552 -190.371734 
L 151.256451 -192.044204 
L 151.68321 -193.716674 
L 152.160539 -195.389144 
L 152.685503 -197.061614 
L 153.255261 -198.734083 
L 153.866832 -200.406553 
L 154.516917 -202.079023 
L 155.201822 -203.751493 
L 155.917465 -205.423963 
L 156.659472 -207.096433 
L 157.423331 -208.768903 
L 158.204563 -210.441373 
L 158.998882 -212.113843 
L 159.802289 -213.786312 
L 160.611108 -215.458782 
L 161.421923 -217.131252 
L 162.231437 -218.803722 
L 163.036283 -220.476192 
L 163.832805 -222.148662 
L 164.616873 -223.821132 
L 165.383753 -225.493602 
L 166.128087 -227.166071 
L 166.844002 -228.838541 
L 167.52534 -230.511011 
L 168.166025 -232.183481 
L 168.760499 -233.855951 
L 169.304213 -235.528421 
L 169.794089 -237.200891 
L 170.228907 -238.873361 
L 170.609563 -240.54583 
L 170.939152 -242.2183 
L 171.222861 -243.89077 
L 171.467665 -245.56324 
L 171.681858 -247.23571 
L 171.874463 -248.90818 
L 172.054568 -250.58065 
L 172.230671 -252.25312 
L 172.410086 -253.925589 
L 172.598472 -255.598059 
L 172.799532 -257.270529 
L 173.014888 -258.942999 
L 173.244151 -260.615469 
L 173.485151 -262.287939 
L 173.734302 -263.960409 
L 173.987048 -265.632879 
L 174.238345 -267.305348 
L 174.483123 -268.977818 
L 174.716689 -270.650288 
L 174.935051 -272.322758 
L 175.135127 -273.995228 
L 175.314851 -275.667698 
L 175.473182 -277.340168 
L 175.610024 -279.012638 
L 175.726091 -280.685108 
L 175.822732 -282.357577 
L 176.497268 -282.357577 
L 176.497268 -282.357577 
L 176.593909 -280.685108 
L 176.709976 -279.012638 
L 176.846818 -277.340168 
L 177.005149 -275.667698 
L 177.184873 -273.995228 
L 177.384949 -272.322758 
L 177.603311 -270.650288 
L 177.836877 -268.977818 
L 178.081655 -267.305348 
L 178.332952 -265.632879 
L 178.585698 -263.960409 
L 178.834849 -262.287939 
L 179.075849 -260.615469 
L 179.305112 -258.942999 
L 179.520468 -257.270529 
L 179.721528 -255.598059 
L 179.909914 -253.925589 
L 180.089329 -252.25312 
L 180.265432 -250.58065 
L 180.445537 -248.90818 
L 180.638142 -247.23571 
L 180.852335 -245.56324 
L 181.097139 -243.89077 
L 181.380848 -242.2183 
L 181.710437 -240.54583 
L 182.091093 -238.873361 
L 182.525911 -237.200891 
L 183.015787 -235.528421 
L 183.559501 -233.855951 
L 184.153975 -232.183481 
L 184.79466 -230.511011 
L 185.475998 -228.838541 
L 186.191913 -227.166071 
L 186.936247 -225.493602 
L 187.703127 -223.821132 
L 188.487195 -222.148662 
L 189.283717 -220.476192 
L 190.088563 -218.803722 
L 190.898077 -217.131252 
L 191.708892 -215.458782 
L 192.517711 -213.786312 
L 193.321118 -212.113843 
L 194.115437 -210.441373 
L 194.896669 -208.768903 
L 195.660528 -207.096433 
L 196.402535 -205.423963 
L 197.118178 -203.751493 
L 197.803083 -202.079023 
L 198.453168 -200.406553 
L 199.064739 -198.734083 
L 199.634497 -197.061614 
L 200.159461 -195.389144 
L 200.63679 -193.716674 
L 201.063549 -192.044204 
L 201.436448 -190.371734 
L 201.751618 -188.699264 
L 202.004464 -187.026794 
L 202.189664 -185.354324 
L 202.301332 -183.681855 
L 202.333359 -182.009385 
L 202.27993 -180.336915 
L 202.136144 -178.664445 
L 201.898692 -176.991975 
L 201.56649 -175.319505 
L 201.141168 -173.647035 
L 200.627347 -171.974565 
L 200.032628 -170.302096 
L 199.367257 -168.629626 
L 198.643502 -166.957156 
L 197.87477 -165.284686 
L 197.074579 -163.612216 
L 196.255484 -161.939746 
L 195.428113 -160.267276 
L 194.600403 -158.594806 
L 193.777165 -156.922337 
L 192.960016 -155.249867 
L 192.147694 -153.577397 
L 191.336712 -151.904927 
L 190.522269 -150.232457 
L 189.6993 -148.559987 
L 188.863523 -146.887517 
L 188.012364 -145.215047 
L 187.145641 -143.542578 
L 186.265943 -141.870108 
L 185.378657 -140.197638 
L 184.491671 -138.525168 
L 183.6148 -136.852698 
L 182.759017 -135.180228 
L 181.935588 -133.507758 
L 181.155219 -131.835288 
L 180.427298 -130.162818 
L 179.7593 -128.490349 
L 179.156413 -126.817879 
L 178.621372 -125.145409 
L 178.154517 -123.472939 
L 177.754013 -121.800469 
L 177.416211 -120.127999 
L 177.136077 -118.455529 
L 176.907654 -116.783059 
z
" style="stroke: #3f3f3f; stroke-width: 1.25"/>
    </defs>
    <g clip-path="url(#p815cfb0819)">
     <use xlink:href="#m2a28681cbc" x="0" y="432" style="fill: #e1812c; stroke: #3f3f3f; stroke-width: 1.25"/>
    </g>
   </g>
   <g id="PolyCollection_3">
    <defs>
     <path id="mbcbb8153f1" d="M 265.663227 -107.021911 
L 265.216773 -107.021911 
L 265.154369 -109.210842 
L 265.079009 -111.399772 
L 264.989189 -113.588703 
L 264.883454 -115.777633 
L 264.760405 -117.966564 
L 264.618683 -120.155494 
L 264.456926 -122.344425 
L 264.273683 -124.533355 
L 264.067303 -126.722286 
L 263.835784 -128.911217 
L 263.576615 -131.100147 
L 263.286607 -133.289078 
L 262.961754 -135.478008 
L 262.597133 -137.666939 
L 262.186875 -139.855869 
L 261.724238 -142.0448 
L 261.201788 -144.233731 
L 260.611705 -146.422661 
L 259.946222 -148.611592 
L 259.198167 -150.800522 
L 258.361606 -152.989453 
L 257.432532 -155.178383 
L 256.409556 -157.367314 
L 255.294554 -159.556244 
L 254.093188 -161.745175 
L 252.815263 -163.934106 
L 251.474851 -166.123036 
L 250.09015 -168.311967 
L 248.683053 -170.500897 
L 247.278431 -172.689828 
L 245.903155 -174.878758 
L 244.584918 -177.067689 
L 243.35093 -179.256619 
L 242.226584 -181.44555 
L 241.234195 -183.634481 
L 240.391918 -185.823411 
L 239.712923 -188.012342 
L 239.204905 -190.201272 
L 238.869938 -192.390203 
L 238.704685 -194.579133 
L 238.70092 -196.768064 
L 238.846281 -198.956995 
L 239.125182 -201.145925 
L 239.519782 -203.334856 
L 240.010923 -205.523786 
L 240.578965 -207.712717 
L 241.204481 -209.901647 
L 241.868786 -212.090578 
L 242.554309 -214.279508 
L 243.244845 -216.468439 
L 243.925715 -218.65737 
L 244.58389 -220.8463 
L 245.208096 -223.035231 
L 245.788931 -225.224161 
L 246.318998 -227.413092 
L 246.793025 -229.602022 
L 247.207976 -231.790953 
L 247.563097 -233.979883 
L 247.85989 -236.168814 
L 248.101991 -238.357745 
L 248.294959 -240.546675 
L 248.445975 -242.735606 
L 248.563485 -244.924536 
L 248.656818 -247.113467 
L 248.735814 -249.302397 
L 248.810483 -251.491328 
L 248.890727 -253.680259 
L 248.986121 -255.869189 
L 249.105757 -258.05812 
L 249.258125 -260.24705 
L 249.451009 -262.435981 
L 249.691388 -264.624911 
L 249.985294 -266.813842 
L 250.337646 -269.002772 
L 250.752042 -271.191703 
L 251.230529 -273.380634 
L 251.773378 -275.569564 
L 252.37889 -277.758495 
L 253.043272 -279.947425 
L 253.760611 -282.136356 
L 254.522965 -284.325286 
L 255.320588 -286.514217 
L 256.142276 -288.703147 
L 256.97582 -290.892078 
L 257.808537 -293.081009 
L 258.627837 -295.269939 
L 259.42178 -297.45887 
L 260.179587 -299.6478 
L 260.892067 -301.836731 
L 261.551922 -304.025661 
L 262.153935 -306.214592 
L 262.695015 -308.403523 
L 263.174118 -310.592453 
L 263.592068 -312.781384 
L 263.951288 -314.970314 
L 264.255479 -317.159245 
L 264.509282 -319.348175 
L 264.717932 -321.537106 
L 264.886943 -323.726036 
L 265.993057 -323.726036 
L 265.993057 -323.726036 
L 266.162068 -321.537106 
L 266.370718 -319.348175 
L 266.624521 -317.159245 
L 266.928712 -314.970314 
L 267.287932 -312.781384 
L 267.705882 -310.592453 
L 268.184985 -308.403523 
L 268.726065 -306.214592 
L 269.328078 -304.025661 
L 269.987933 -301.836731 
L 270.700413 -299.6478 
L 271.45822 -297.45887 
L 272.252163 -295.269939 
L 273.071463 -293.081009 
L 273.90418 -290.892078 
L 274.737724 -288.703147 
L 275.559412 -286.514217 
L 276.357035 -284.325286 
L 277.119389 -282.136356 
L 277.836728 -279.947425 
L 278.50111 -277.758495 
L 279.106622 -275.569564 
L 279.649471 -273.380634 
L 280.127958 -271.191703 
L 280.542354 -269.002772 
L 280.894706 -266.813842 
L 281.188612 -264.624911 
L 281.428991 -262.435981 
L 281.621875 -260.24705 
L 281.774243 -258.05812 
L 281.893879 -255.869189 
L 281.989273 -253.680259 
L 282.069517 -251.491328 
L 282.144186 -249.302397 
L 282.223182 -247.113467 
L 282.316515 -244.924536 
L 282.434025 -242.735606 
L 282.585041 -240.546675 
L 282.778009 -238.357745 
L 283.02011 -236.168814 
L 283.316903 -233.979883 
L 283.672024 -231.790953 
L 284.086975 -229.602022 
L 284.561002 -227.413092 
L 285.091069 -225.224161 
L 285.671904 -223.035231 
L 286.29611 -220.8463 
L 286.954285 -218.65737 
L 287.635155 -216.468439 
L 288.325691 -214.279508 
L 289.011214 -212.090578 
L 289.675519 -209.901647 
L 290.301035 -207.712717 
L 290.869077 -205.523786 
L 291.360218 -203.334856 
L 291.754818 -201.145925 
L 292.033719 -198.956995 
L 292.17908 -196.768064 
L 292.175315 -194.579133 
L 292.010062 -192.390203 
L 291.675095 -190.201272 
L 291.167077 -188.012342 
L 290.488082 -185.823411 
L 289.645805 -183.634481 
L 288.653416 -181.44555 
L 287.52907 -179.256619 
L 286.295082 -177.067689 
L 284.976845 -174.878758 
L 283.601569 -172.689828 
L 282.196947 -170.500897 
L 280.78985 -168.311967 
L 279.405149 -166.123036 
L 278.064737 -163.934106 
L 276.786812 -161.745175 
L 275.585446 -159.556244 
L 274.470444 -157.367314 
L 273.447468 -155.178383 
L 272.518394 -152.989453 
L 271.681833 -150.800522 
L 270.933778 -148.611592 
L 270.268295 -146.422661 
L 269.678212 -144.233731 
L 269.155762 -142.0448 
L 268.693125 -139.855869 
L 268.282867 -137.666939 
L 267.918246 -135.478008 
L 267.593393 -133.289078 
L 267.303385 -131.100147 
L 267.044216 -128.911217 
L 266.812697 -126.722286 
L 266.606317 -124.533355 
L 266.423074 -122.344425 
L 266.261317 -120.155494 
L 266.119595 -117.966564 
L 265.996546 -115.777633 
L 265.890811 -113.588703 
L 265.800991 -111.399772 
L 265.725631 -109.210842 
L 265.663227 -107.021911 
z
" style="stroke: #3f3f3f; stroke-width: 1.25"/>
    </defs>
    <g clip-path="url(#p815cfb0819)">
     <use xlink:href="#mbcbb8153f1" x="0" y="432" style="fill: #3274a1; stroke: #3f3f3f; stroke-width: 1.25"/>
    </g>
   </g>
   <g id="PolyCollection_4">
    <defs>
     <path id="mf1578df896" d="M 325.169585 -108.516495 
L 324.750415 -108.516495 
L 324.671064 -110.814319 
L 324.569718 -113.112143 
L 324.443053 -115.409967 
L 324.287916 -117.707791 
L 324.101395 -120.005615 
L 323.880788 -122.303439 
L 323.623476 -124.601263 
L 323.326676 -126.899087 
L 322.987115 -129.196912 
L 322.600678 -131.494736 
L 322.162085 -133.79256 
L 321.664686 -136.090384 
L 321.100435 -138.388208 
L 320.460095 -140.686032 
L 319.733692 -142.983856 
L 318.911223 -145.28168 
L 317.98358 -147.579504 
L 316.943666 -149.877328 
L 315.787634 -152.175152 
L 314.516209 -154.472976 
L 313.135977 -156.7708 
L 311.660547 -159.068624 
L 310.111392 -161.366448 
L 308.518167 -163.664272 
L 306.918278 -165.962096 
L 305.355511 -168.25992 
L 303.877603 -170.557744 
L 302.53284 -172.855568 
L 301.365908 -175.153393 
L 300.413477 -177.451217 
L 299.700135 -179.749041 
L 299.235333 -182.046865 
L 299.011974 -184.344689 
L 299.00705 -186.642513 
L 299.184402 -188.940337 
L 299.499346 -191.238161 
L 299.904516 -193.535985 
L 300.356046 -195.833809 
L 300.819103 -198.131633 
L 301.271882 -200.429457 
L 301.707442 -202.727281 
L 302.133133 -205.025105 
L 302.567807 -207.322929 
L 303.037399 -209.620753 
L 303.569705 -211.918577 
L 304.189302 -214.216401 
L 304.913441 -216.514225 
L 305.749511 -218.812049 
L 306.694329 -221.109873 
L 307.735154 -223.407698 
L 308.852014 -225.705522 
L 310.020763 -228.003346 
L 311.216221 -230.30117 
L 312.414844 -232.598994 
L 313.596553 -234.896818 
L 314.745583 -237.194642 
L 315.850419 -239.492466 
L 316.903088 -241.79029 
L 317.898099 -244.088114 
L 318.831394 -246.385938 
L 319.699529 -248.683762 
L 320.499246 -250.981586 
L 321.227421 -253.27941 
L 321.881336 -255.577234 
L 322.459097 -257.875058 
L 322.960053 -260.172882 
L 323.385077 -262.470706 
L 323.736638 -264.76853 
L 324.018646 -267.066354 
L 324.236108 -269.364178 
L 324.39469 -271.662003 
L 324.500271 -273.959827 
L 324.558595 -276.257651 
L 324.575067 -278.555475 
L 324.554736 -280.853299 
L 324.502451 -283.151123 
L 324.423126 -285.448947 
L 324.322063 -287.746771 
L 324.205217 -290.044595 
L 324.07934 -292.342419 
L 323.951932 -294.640243 
L 323.83097 -296.938067 
L 323.724438 -299.235891 
L 323.639711 -301.533715 
L 323.582889 -303.831539 
L 323.558189 -306.129363 
L 323.56751 -308.427187 
L 323.610234 -310.725011 
L 323.68333 -313.022835 
L 323.781721 -315.320659 
L 323.89888 -317.618483 
L 324.027548 -319.916308 
L 324.160473 -322.214132 
L 324.291064 -324.511956 
L 324.413889 -326.80978 
L 324.524968 -329.107604 
L 324.621853 -331.405428 
L 324.703531 -333.703252 
L 324.770194 -336.001076 
L 325.149806 -336.001076 
L 325.149806 -336.001076 
L 325.216469 -333.703252 
L 325.298147 -331.405428 
L 325.395032 -329.107604 
L 325.506111 -326.80978 
L 325.628936 -324.511956 
L 325.759527 -322.214132 
L 325.892452 -319.916308 
L 326.02112 -317.618483 
L 326.138279 -315.320659 
L 326.23667 -313.022835 
L 326.309766 -310.725011 
L 326.35249 -308.427187 
L 326.361811 -306.129363 
L 326.337111 -303.831539 
L 326.280289 -301.533715 
L 326.195562 -299.235891 
L 326.08903 -296.938067 
L 325.968068 -294.640243 
L 325.84066 -292.342419 
L 325.714783 -290.044595 
L 325.597937 -287.746771 
L 325.496874 -285.448947 
L 325.417549 -283.151123 
L 325.365264 -280.853299 
L 325.344933 -278.555475 
L 325.361405 -276.257651 
L 325.419729 -273.959827 
L 325.52531 -271.662003 
L 325.683892 -269.364178 
L 325.901354 -267.066354 
L 326.183362 -264.76853 
L 326.534923 -262.470706 
L 326.959947 -260.172882 
L 327.460903 -257.875058 
L 328.038664 -255.577234 
L 328.692579 -253.27941 
L 329.420754 -250.981586 
L 330.220471 -248.683762 
L 331.088606 -246.385938 
L 332.021901 -244.088114 
L 333.016912 -241.79029 
L 334.069581 -239.492466 
L 335.174417 -237.194642 
L 336.323447 -234.896818 
L 337.505156 -232.598994 
L 338.703779 -230.30117 
L 339.899237 -228.003346 
L 341.067986 -225.705522 
L 342.184846 -223.407698 
L 343.225671 -221.109873 
L 344.170489 -218.812049 
L 345.006559 -216.514225 
L 345.730698 -214.216401 
L 346.350295 -211.918577 
L 346.882601 -209.620753 
L 347.352193 -207.322929 
L 347.786867 -205.025105 
L 348.212558 -202.727281 
L 348.648118 -200.429457 
L 349.100897 -198.131633 
L 349.563954 -195.833809 
L 350.015484 -193.535985 
L 350.420654 -191.238161 
L 350.735598 -188.940337 
L 350.91295 -186.642513 
L 350.908026 -184.344689 
L 350.684667 -182.046865 
L 350.219865 -179.749041 
L 349.506523 -177.451217 
L 348.554092 -175.153393 
L 347.38716 -172.855568 
L 346.042397 -170.557744 
L 344.564489 -168.25992 
L 343.001722 -165.962096 
L 341.401833 -163.664272 
L 339.808608 -161.366448 
L 338.259453 -159.068624 
L 336.784023 -156.7708 
L 335.403791 -154.472976 
L 334.132366 -152.175152 
L 332.976334 -149.877328 
L 331.93642 -147.579504 
L 331.008777 -145.28168 
L 330.186308 -142.983856 
L 329.459905 -140.686032 
L 328.819565 -138.388208 
L 328.255314 -136.090384 
L 327.757915 -133.79256 
L 327.319322 -131.494736 
L 326.932885 -129.196912 
L 326.593324 -126.899087 
L 326.296524 -124.601263 
L 326.039212 -122.303439 
L 325.818605 -120.005615 
L 325.632084 -117.707791 
L 325.476947 -115.409967 
L 325.350282 -113.112143 
L 325.248936 -110.814319 
L 325.169585 -108.516495 
z
" style="stroke: #3f3f3f; stroke-width: 1.25"/>
    </defs>
    <g clip-path="url(#p815cfb0819)">
     <use xlink:href="#mf1578df896" x="0" y="432" style="fill: #e1812c; stroke: #3f3f3f; stroke-width: 1.25"/>
    </g>
   </g>
   <g id="PolyCollection_5">
    <defs>
     <path id="ma738e73ee3" d="M 414.422784 -62.64 
L 414.057216 -62.64 
L 413.99699 -65.694545 
L 413.923727 -68.749091 
L 413.836998 -71.803636 
L 413.737159 -74.858182 
L 413.625494 -77.912727 
L 413.504269 -80.967273 
L 413.376676 -84.021818 
L 413.246639 -87.076364 
L 413.118486 -90.130909 
L 412.996521 -93.185455 
L 412.884519 -96.24 
L 412.785229 -99.294545 
L 412.699939 -102.349091 
L 412.628163 -105.403636 
L 412.567501 -108.458182 
L 412.513672 -111.512727 
L 412.46071 -114.567273 
L 412.401275 -117.621818 
L 412.327004 -120.676364 
L 412.228855 -123.730909 
L 412.097374 -126.785455 
L 411.922881 -129.84 
L 411.695574 -132.894545 
L 411.405617 -135.949091 
L 411.043263 -139.003636 
L 410.599088 -142.058182 
L 410.064384 -145.112727 
L 409.431711 -148.167273 
L 408.695576 -151.221818 
L 407.85317 -154.276364 
L 406.905021 -157.330909 
L 405.8555 -160.385455 
L 404.71305 -163.44 
L 403.490127 -166.494545 
L 402.202852 -169.549091 
L 400.870442 -172.603636 
L 399.514523 -175.658182 
L 398.158417 -178.712727 
L 396.826492 -181.767273 
L 395.543608 -184.821818 
L 394.334636 -187.876364 
L 393.223984 -190.930909 
L 392.235037 -193.985455 
L 391.389436 -197.04 
L 390.706136 -200.094545 
L 390.200271 -203.149091 
L 389.881918 -206.203636 
L 389.754898 -209.258182 
L 389.815836 -212.312727 
L 390.053642 -215.367273 
L 390.449613 -218.421818 
L 390.978221 -221.476364 
L 391.608601 -224.530909 
L 392.306659 -227.585455 
L 393.037585 -230.64 
L 393.768564 -233.694545 
L 394.471373 -236.749091 
L 395.1246 -239.803636 
L 395.715249 -242.858182 
L 396.239545 -245.912727 
L 396.702857 -248.967273 
L 397.118742 -252.021818 
L 397.507199 -255.076364 
L 397.892339 -258.130909 
L 398.299675 -261.185455 
L 398.753352 -264.24 
L 399.273573 -267.294545 
L 399.874498 -270.349091 
L 400.562819 -273.403636 
L 401.337133 -276.458182 
L 402.188167 -279.512727 
L 403.099782 -282.567273 
L 404.050635 -285.621818 
L 405.016267 -288.676364 
L 405.971389 -291.730909 
L 406.892102 -294.785455 
L 407.757824 -297.84 
L 408.552726 -300.894545 
L 409.266585 -303.949091 
L 409.894995 -307.003636 
L 410.438989 -310.058182 
L 410.90417 -313.112727 
L 411.299502 -316.167273 
L 411.635933 -319.221818 
L 411.925039 -322.276364 
L 412.177817 -325.330909 
L 412.403775 -328.385455 
L 412.610344 -331.44 
L 412.802663 -334.494545 
L 412.983671 -337.549091 
L 413.154443 -340.603636 
L 413.314692 -343.658182 
L 413.463311 -346.712727 
L 413.598902 -349.767273 
L 413.720201 -352.821818 
L 413.826379 -355.876364 
L 413.917199 -358.930909 
L 413.993053 -361.985455 
L 414.054886 -365.04 
L 414.425114 -365.04 
L 414.425114 -365.04 
L 414.486947 -361.985455 
L 414.562801 -358.930909 
L 414.653621 -355.876364 
L 414.759799 -352.821818 
L 414.881098 -349.767273 
L 415.016689 -346.712727 
L 415.165308 -343.658182 
L 415.325557 -340.603636 
L 415.496329 -337.549091 
L 415.677337 -334.494545 
L 415.869656 -331.44 
L 416.076225 -328.385455 
L 416.302183 -325.330909 
L 416.554961 -322.276364 
L 416.844067 -319.221818 
L 417.180498 -316.167273 
L 417.57583 -313.112727 
L 418.041011 -310.058182 
L 418.585005 -307.003636 
L 419.213415 -303.949091 
L 419.927274 -300.894545 
L 420.722176 -297.84 
L 421.587898 -294.785455 
L 422.508611 -291.730909 
L 423.463733 -288.676364 
L 424.429365 -285.621818 
L 425.380218 -282.567273 
L 426.291833 -279.512727 
L 427.142867 -276.458182 
L 427.917181 -273.403636 
L 428.605502 -270.349091 
L 429.206427 -267.294545 
L 429.726648 -264.24 
L 430.180325 -261.185455 
L 430.587661 -258.130909 
L 430.972801 -255.076364 
L 431.361258 -252.021818 
L 431.777143 -248.967273 
L 432.240455 -245.912727 
L 432.764751 -242.858182 
L 433.3554 -239.803636 
L 434.008627 -236.749091 
L 434.711436 -233.694545 
L 435.442415 -230.64 
L 436.173341 -227.585455 
L 436.871399 -224.530909 
L 437.501779 -221.476364 
L 438.030387 -218.421818 
L 438.426358 -215.367273 
L 438.664164 -212.312727 
L 438.725102 -209.258182 
L 438.598082 -206.203636 
L 438.279729 -203.149091 
L 437.773864 -200.094545 
L 437.090564 -197.04 
L 436.244963 -193.985455 
L 435.256016 -190.930909 
L 434.145364 -187.876364 
L 432.936392 -184.821818 
L 431.653508 -181.767273 
L 430.321583 -178.712727 
L 428.965477 -175.658182 
L 427.609558 -172.603636 
L 426.277148 -169.549091 
L 424.989873 -166.494545 
L 423.76695 -163.44 
L 422.6245 -160.385455 
L 421.574979 -157.330909 
L 420.62683 -154.276364 
L 419.784424 -151.221818 
L 419.048289 -148.167273 
L 418.415616 -145.112727 
L 417.880912 -142.058182 
L 417.436737 -139.003636 
L 417.074383 -135.949091 
L 416.784426 -132.894545 
L 416.557119 -129.84 
L 416.382626 -126.785455 
L 416.251145 -123.730909 
L 416.152996 -120.676364 
L 416.078725 -117.621818 
L 416.01929 -114.567273 
L 415.966328 -111.512727 
L 415.912499 -108.458182 
L 415.851837 -105.403636 
L 415.780061 -102.349091 
L 415.694771 -99.294545 
L 415.595481 -96.24 
L 415.483479 -93.185455 
L 415.361514 -90.130909 
L 415.233361 -87.076364 
L 415.103324 -84.021818 
L 414.975731 -80.967273 
L 414.854506 -77.912727 
L 414.742841 -74.858182 
L 414.643002 -71.803636 
L 414.556273 -68.749091 
L 414.48301 -65.694545 
L 414.422784 -62.64 
z
" style="stroke: #3f3f3f; stroke-width: 1.25"/>
    </defs>
    <g clip-path="url(#p815cfb0819)">
     <use xlink:href="#ma738e73ee3" x="0" y="432" style="fill: #3274a1; stroke: #3f3f3f; stroke-width: 1.25"/>
    </g>
   </g>
   <g id="PolyCollection_6">
    <defs>
     <path id="md974a87062" d="M 474.016956 -114.644575 
L 473.503044 -114.644575 
L 473.421512 -116.439375 
L 473.319685 -118.234174 
L 473.194161 -120.028974 
L 473.041345 -121.823773 
L 472.857493 -123.618573 
L 472.63875 -125.413373 
L 472.381181 -127.208172 
L 472.080779 -129.002972 
L 471.733467 -130.797771 
L 471.33507 -132.592571 
L 470.881301 -134.387371 
L 470.367728 -136.18217 
L 469.789773 -137.97697 
L 469.142744 -139.771769 
L 468.421921 -141.566569 
L 467.622709 -143.361369 
L 466.740878 -145.156168 
L 465.772896 -146.950968 
L 464.716344 -148.745767 
L 463.570412 -150.540567 
L 462.336442 -152.335367 
L 461.018498 -154.130166 
L 459.623902 -155.924966 
L 458.16369 -157.719765 
L 456.65293 -159.514565 
L 455.110848 -161.309365 
L 453.560699 -163.104164 
L 452.029364 -164.898964 
L 450.546635 -166.693763 
L 449.144215 -168.488563 
L 447.854452 -170.283363 
L 446.708892 -172.078162 
L 445.736712 -173.872962 
L 444.963177 -175.667761 
L 444.408201 -177.462561 
L 444.085156 -179.257361 
L 444 -181.05216 
L 444.150826 -182.84696 
L 444.527845 -184.641759 
L 445.113839 -186.436559 
L 445.885022 -188.231359 
L 446.812283 -190.026158 
L 447.862696 -191.820958 
L 449.001212 -193.615757 
L 450.192413 -195.410557 
L 451.402219 -197.205357 
L 452.599453 -199.000156 
L 453.757149 -200.794956 
L 454.853568 -202.589755 
L 455.872829 -204.384555 
L 456.805162 -206.179355 
L 457.646762 -207.974154 
L 458.399276 -209.768954 
L 459.068968 -211.563753 
L 459.66564 -213.358553 
L 460.20139 -215.153353 
L 460.689324 -216.948152 
L 461.142308 -218.742952 
L 461.571878 -220.537751 
L 461.987381 -222.332551 
L 462.395415 -224.127351 
L 462.799603 -225.92215 
L 463.200686 -227.71695 
L 463.596929 -229.511749 
L 463.98475 -231.306549 
L 464.359509 -233.101349 
L 464.716359 -234.896148 
L 465.051058 -236.690948 
L 465.360664 -238.485748 
L 465.644034 -240.280547 
L 465.902107 -242.075347 
L 466.137919 -243.870146 
L 466.356402 -245.664946 
L 466.56397 -247.459746 
L 466.767966 -249.254545 
L 466.976021 -251.049345 
L 467.195402 -252.844144 
L 467.432407 -254.638944 
L 467.691866 -256.433744 
L 467.976776 -258.228543 
L 468.288111 -260.023343 
L 468.624792 -261.818142 
L 468.983824 -263.612942 
L 469.360571 -265.407742 
L 469.749134 -267.202541 
L 470.142797 -268.997341 
L 470.534494 -270.79214 
L 470.917272 -272.58694 
L 471.284692 -274.38174 
L 471.63117 -276.176539 
L 471.952216 -277.971339 
L 472.244575 -279.766138 
L 472.506271 -281.560938 
L 472.736561 -283.355738 
L 472.935816 -285.150537 
L 473.105344 -286.945337 
L 473.24719 -288.740136 
L 473.363915 -290.534936 
L 473.45839 -292.329736 
L 474.06161 -292.329736 
L 474.06161 -292.329736 
L 474.156085 -290.534936 
L 474.27281 -288.740136 
L 474.414656 -286.945337 
L 474.584184 -285.150537 
L 474.783439 -283.355738 
L 475.013729 -281.560938 
L 475.275425 -279.766138 
L 475.567784 -277.971339 
L 475.88883 -276.176539 
L 476.235308 -274.38174 
L 476.602728 -272.58694 
L 476.985506 -270.79214 
L 477.377203 -268.997341 
L 477.770866 -267.202541 
L 478.159429 -265.407742 
L 478.536176 -263.612942 
L 478.895208 -261.818142 
L 479.231889 -260.023343 
L 479.543224 -258.228543 
L 479.828134 -256.433744 
L 480.087593 -254.638944 
L 480.324598 -252.844144 
L 480.543979 -251.049345 
L 480.752034 -249.254545 
L 480.95603 -247.459746 
L 481.163598 -245.664946 
L 481.382081 -243.870146 
L 481.617893 -242.075347 
L 481.875966 -240.280547 
L 482.159336 -238.485748 
L 482.468942 -236.690948 
L 482.803641 -234.896148 
L 483.160491 -233.101349 
L 483.53525 -231.306549 
L 483.923071 -229.511749 
L 484.319314 -227.71695 
L 484.720397 -225.92215 
L 485.124585 -224.127351 
L 485.532619 -222.332551 
L 485.948122 -220.537751 
L 486.377692 -218.742952 
L 486.830676 -216.948152 
L 487.31861 -215.153353 
L 487.85436 -213.358553 
L 488.451032 -211.563753 
L 489.120724 -209.768954 
L 489.873238 -207.974154 
L 490.714838 -206.179355 
L 491.647171 -204.384555 
L 492.666432 -202.589755 
L 493.762851 -200.794956 
L 494.920547 -199.000156 
L 496.117781 -197.205357 
L 497.327587 -195.410557 
L 498.518788 -193.615757 
L 499.657304 -191.820958 
L 500.707717 -190.026158 
L 501.634978 -188.231359 
L 502.406161 -186.436559 
L 502.992155 -184.641759 
L 503.369174 -182.84696 
L 503.52 -181.05216 
L 503.434844 -179.257361 
L 503.111799 -177.462561 
L 502.556823 -175.667761 
L 501.783288 -173.872962 
L 500.811108 -172.078162 
L 499.665548 -170.283363 
L 498.375785 -168.488563 
L 496.973365 -166.693763 
L 495.490636 -164.898964 
L 493.959301 -163.104164 
L 492.409152 -161.309365 
L 490.86707 -159.514565 
L 489.35631 -157.719765 
L 487.896098 -155.924966 
L 486.501502 -154.130166 
L 485.183558 -152.335367 
L 483.949588 -150.540567 
L 482.803656 -148.745767 
L 481.747104 -146.950968 
L 480.779122 -145.156168 
L 479.897291 -143.361369 
L 479.098079 -141.566569 
L 478.377256 -139.771769 
L 477.730227 -137.97697 
L 477.152272 -136.18217 
L 476.638699 -134.387371 
L 476.18493 -132.592571 
L 475.786533 -130.797771 
L 475.439221 -129.002972 
L 475.138819 -127.208172 
L 474.88125 -125.413373 
L 474.662507 -123.618573 
L 474.478655 -121.823773 
L 474.325839 -120.028974 
L 474.200315 -118.234174 
L 474.098488 -116.439375 
L 474.016956 -114.644575 
z
" style="stroke: #3f3f3f; stroke-width: 1.25"/>
    </defs>
    <g clip-path="url(#p815cfb0819)">
     <use xlink:href="#md974a87062" x="0" y="432" style="fill: #e1812c; stroke: #3f3f3f; stroke-width: 1.25"/>
    </g>
   </g>
   <g id="patch_3">
    <path d="M 146.4 327.86529 
L 146.4 327.86529 
L 146.4 327.86529 
L 146.4 327.86529 
z
" clip-path="url(#p815cfb0819)" style="fill: #3274a1; stroke: #3f3f3f; stroke-width: 1.25; stroke-linejoin: miter"/>
   </g>
   <g id="patch_4">
    <path d="M 146.4 327.86529 
L 146.4 327.86529 
L 146.4 327.86529 
L 146.4 327.86529 
z
" clip-path="url(#p815cfb0819)" style="fill: #e1812c; stroke: #3f3f3f; stroke-width: 1.25; stroke-linejoin: miter"/>
   </g>
   <g id="line2d_6">
    <path d="M 116.64 293.668085 
L 116.64 140.350627 
" clip-path="url(#p815cfb0819)" style="fill: none; stroke: #3f3f3f; stroke-width: 1.875; stroke-linecap: round"/>
   </g>
   <g id="line2d_7">
    <path d="M 116.64 249.787378 
L 116.64 196.129974 
" clip-path="url(#p815cfb0819)" style="fill: none; stroke: #3f3f3f; stroke-width: 5.625; stroke-linecap: round"/>
   </g>
   <g id="line2d_8">
    <path d="M 116.64 233.202072 
" clip-path="url(#p815cfb0819)" style="fill: none; stroke: #3f3f3f; stroke-width: 1.5; stroke-linecap: round"/>
    <defs>
     <path id="mcfbde00ab6" d="M 2.34375 0 
L -2.34375 -0 
" style="stroke: #ffffff; stroke-width: 1.125"/>
    </defs>
    <g clip-path="url(#p815cfb0819)">
     <use xlink:href="#mcfbde00ab6" x="116.64" y="233.202072" style="fill: #ffffff; stroke: #ffffff; stroke-width: 1.125"/>
    </g>
   </g>
   <g id="line2d_9">
    <path d="M 176.16 288.237744 
L 176.16 176.621619 
" clip-path="url(#p815cfb0819)" style="fill: none; stroke: #3f3f3f; stroke-width: 1.875; stroke-linecap: round"/>
   </g>
   <g id="line2d_10">
    <path d="M 176.16 262.591625 
L 176.16 226.004124 
" clip-path="url(#p815cfb0819)" style="fill: none; stroke: #3f3f3f; stroke-width: 5.625; stroke-linecap: round"/>
   </g>
   <g id="line2d_11">
    <path d="M 176.16 248.170872 
" clip-path="url(#p815cfb0819)" style="fill: none; stroke: #3f3f3f; stroke-width: 1.5; stroke-linecap: round"/>
    <g clip-path="url(#p815cfb0819)">
     <use xlink:href="#mcfbde00ab6" x="176.16" y="248.170872" style="fill: #ffffff; stroke: #ffffff; stroke-width: 1.125"/>
    </g>
   </g>
   <g id="line2d_12">
    <path d="M 265.44 288.730738 
L 265.44 144.521315 
" clip-path="url(#p815cfb0819)" style="fill: none; stroke: #3f3f3f; stroke-width: 1.875; stroke-linecap: round"/>
   </g>
   <g id="line2d_13">
    <path d="M 265.44 243.572502 
L 265.44 182.330824 
" clip-path="url(#p815cfb0819)" style="fill: none; stroke: #3f3f3f; stroke-width: 5.625; stroke-linecap: round"/>
   </g>
   <g id="line2d_14">
    <path d="M 265.44 220.122329 
" clip-path="url(#p815cfb0819)" style="fill: none; stroke: #3f3f3f; stroke-width: 1.5; stroke-linecap: round"/>
    <g clip-path="url(#p815cfb0819)">
     <use xlink:href="#mcfbde00ab6" x="265.44" y="220.122329" style="fill: #ffffff; stroke: #ffffff; stroke-width: 1.125"/>
    </g>
   </g>
   <g id="line2d_15">
    <path d="M 324.96 294.144256 
L 324.96 188.98133 
" clip-path="url(#p815cfb0819)" style="fill: none; stroke: #3f3f3f; stroke-width: 1.875; stroke-linecap: round"/>
   </g>
   <g id="line2d_16">
    <path d="M 324.96 252.705999 
L 324.96 216.610835 
" clip-path="url(#p815cfb0819)" style="fill: none; stroke: #3f3f3f; stroke-width: 5.625; stroke-linecap: round"/>
   </g>
   <g id="line2d_17">
    <path d="M 324.96 242.945587 
" clip-path="url(#p815cfb0819)" style="fill: none; stroke: #3f3f3f; stroke-width: 1.5; stroke-linecap: round"/>
    <g clip-path="url(#p815cfb0819)">
     <use xlink:href="#mcfbde00ab6" x="324.96" y="242.945587" style="fill: #ffffff; stroke: #ffffff; stroke-width: 1.125"/>
    </g>
   </g>
   <g id="line2d_18">
    <path d="M 414.24 288.395932 
L 414.24 108.45471 
" clip-path="url(#p815cfb0819)" style="fill: none; stroke: #3f3f3f; stroke-width: 1.875; stroke-linecap: round"/>
   </g>
   <g id="line2d_19">
    <path d="M 414.24 235.090017 
L 414.24 177.086383 
" clip-path="url(#p815cfb0819)" style="fill: none; stroke: #3f3f3f; stroke-width: 5.625; stroke-linecap: round"/>
   </g>
   <g id="line2d_20">
    <path d="M 414.24 214.471698 
" clip-path="url(#p815cfb0819)" style="fill: none; stroke: #3f3f3f; stroke-width: 1.5; stroke-linecap: round"/>
    <g clip-path="url(#p815cfb0819)">
     <use xlink:href="#mcfbde00ab6" x="414.24" y="214.471698" style="fill: #ffffff; stroke: #ffffff; stroke-width: 1.125"/>
    </g>
   </g>
   <g id="line2d_21">
    <path d="M 473.76 289.055421 
L 473.76 167.970268 
" clip-path="url(#p815cfb0819)" style="fill: none; stroke: #3f3f3f; stroke-width: 1.875; stroke-linecap: round"/>
   </g>
   <g id="line2d_22">
    <path d="M 473.76 256.828006 
L 473.76 219.376953 
" clip-path="url(#p815cfb0819)" style="fill: none; stroke: #3f3f3f; stroke-width: 5.625; stroke-linecap: round"/>
   </g>
   <g id="line2d_23">
    <path d="M 473.76 245.501994 
" clip-path="url(#p815cfb0819)" style="fill: none; stroke: #3f3f3f; stroke-width: 1.5; stroke-linecap: round"/>
    <g clip-path="url(#p815cfb0819)">
     <use xlink:href="#mcfbde00ab6" x="473.76" y="245.501994" style="fill: #ffffff; stroke: #ffffff; stroke-width: 1.125"/>
    </g>
   </g>
   <g id="patch_5">
    <path d="M 72 384.48 
L 72 51.84 
" style="fill: none; stroke: #cccccc; stroke-width: 0.8; stroke-linejoin: miter; stroke-linecap: square"/>
   </g>
   <g id="patch_6">
    <path d="M 518.4 384.48 
L 518.4 51.84 
" style="fill: none; stroke: #cccccc; stroke-width: 0.8; stroke-linejoin: miter; stroke-linecap: square"/>
   </g>
   <g id="patch_7">
    <path d="M 72 384.48 
L 518.4 384.48 
" style="fill: none; stroke: #cccccc; stroke-width: 0.8; stroke-linejoin: miter; stroke-linecap: square"/>
   </g>
   <g id="patch_8">
    <path d="M 72 51.84 
L 518.4 51.84 
" style="fill: none; stroke: #cccccc; stroke-width: 0.8; stroke-linejoin: miter; stroke-linecap: square"/>
   </g>
   <g id="legend_1">
    <g id="patch_9">
     <path d="M 456.6125 379.48 
L 511.4 379.48 
Q 513.4 379.48 513.4 377.48 
L 513.4 336.044062 
Q 513.4 334.044062 511.4 334.044062 
L 456.6125 334.044062 
Q 454.6125 334.044062 454.6125 336.044062 
L 454.6125 377.48 
Q 454.6125 379.48 456.6125 379.48 
z
" style="fill: #ffffff; opacity: 0.8; stroke: #cccccc; stroke-linejoin: miter"/>
    </g>
    <g id="text_11">
     <!-- Time -->
     <g style="fill: #262626" transform="translate(473.083594 345.201875) scale(0.1 -0.1)">
      <defs>
       <path id="ArialMT-54" d="M 1659 0 
L 1659 4041 
L 150 4041 
L 150 4581 
L 3781 4581 
L 3781 4041 
L 2266 4041 
L 2266 0 
L 1659 0 
z
" transform="scale(0.015625)"/>
      </defs>
      <use xlink:href="#ArialMT-54"/>
      <use xlink:href="#ArialMT-69" x="57.333984"/>
      <use xlink:href="#ArialMT-6d" x="79.550781"/>
      <use xlink:href="#ArialMT-65" x="162.851562"/>
     </g>
    </g>
    <g id="patch_10">
     <path d="M 458.6125 359.347188 
L 478.6125 359.347188 
L 478.6125 352.347188 
L 458.6125 352.347188 
z
" style="fill: #3274a1; stroke: #3f3f3f; stroke-width: 1.25; stroke-linejoin: miter"/>
    </g>
    <g id="text_12">
     <!-- initial -->
     <g style="fill: #262626" transform="translate(486.6125 359.347188) scale(0.1 -0.1)">
      <use xlink:href="#ArialMT-69"/>
      <use xlink:href="#ArialMT-6e" x="22.216797"/>
      <use xlink:href="#ArialMT-69" x="77.832031"/>
      <use xlink:href="#ArialMT-74" x="100.048828"/>
      <use xlink:href="#ArialMT-69" x="127.832031"/>
      <use xlink:href="#ArialMT-61" x="150.048828"/>
      <use xlink:href="#ArialMT-6c" x="205.664062"/>
     </g>
    </g>
    <g id="patch_11">
     <path d="M 458.6125 373.4925 
L 478.6125 373.4925 
L 478.6125 366.4925 
L 458.6125 366.4925 
z
" style="fill: #e1812c; stroke: #3f3f3f; stroke-width: 1.25; stroke-linejoin: miter"/>
    </g>
    <g id="text_13">
     <!-- final -->
     <g style="fill: #262626" transform="translate(486.6125 373.4925) scale(0.1 -0.1)">
      <use xlink:href="#ArialMT-66"/>
      <use xlink:href="#ArialMT-69" x="27.783203"/>
      <use xlink:href="#ArialMT-6e" x="50"/>
      <use xlink:href="#ArialMT-61" x="105.615234"/>
      <use xlink:href="#ArialMT-6c" x="161.230469"/>
     </g>
    </g>
   </g>
  </g>
 </g>
 <defs>
  <clipPath id="p815cfb0819">
   <rect x="72" y="51.84" width="446.4" height="332.64"/>
  </clipPath>
 </defs>
</svg>
