<?xml version="1.0" encoding="utf-8" standalone="no"?>
<!DOCTYPE svg PUBLIC "-//W3C//DTD SVG 1.1//EN"
  "http://www.w3.org/Graphics/SVG/1.1/DTD/svg11.dtd">
<svg xmlns:xlink="http://www.w3.org/1999/xlink" width="797.85pt" height="360pt" viewBox="0 0 797.85 360" xmlns="http://www.w3.org/2000/svg" version="1.1">
 <metadata>
  <rdf:RDF xmlns:dc="http://purl.org/dc/elements/1.1/" xmlns:cc="http://creativecommons.org/ns#" xmlns:rdf="http://www.w3.org/1999/02/22-rdf-syntax-ns#">
   <cc:Work>
    <dc:type rdf:resource="http://purl.org/dc/dcmitype/StillImage"/>
    <dc:date>2024-09-11T05:52:16.156063</dc:date>
    <dc:format>image/svg+xml</dc:format>
    <dc:creator>
     <cc:Agent>
      <dc:title>Matplotlib v3.8.3, https://matplotlib.org/</dc:title>
     </cc:Agent>
    </dc:creator>
   </cc:Work>
  </rdf:RDF>
 </metadata>
 <defs>
  <style type="text/css">*{stroke-linejoin: round; stroke-linecap: butt}</style>
 </defs>
 <g id="figure_1">
  <g id="patch_1">
   <path d="M 0 360 
L 797.85 360 
L 797.85 0 
L 0 0 
z
" style="fill: #ffffff"/>
  </g>
  <g id="axes_1">
   <g id="patch_2">
    <path d="M 53.877038 318.04 
L 377.569178 318.04 
L 377.569178 24.72 
L 53.877038 24.72 
z
" style="fill: #ffffff"/>
   </g>
   <g id="matplotlib.axis_1">
    <g id="xtick_1">
     <g id="text_1">
      <!-- Control -->
      <g style="fill: #262626" transform="translate(118.682885 332.197812) scale(0.1 -0.1)">
       <defs>
        <path id="ArialMT-43" d="M 3763 1606 
L 4369 1453 
Q 4178 706 3683 314 
Q 3188 -78 2472 -78 
Q 1731 -78 1267 223 
Q 803 525 561 1097 
Q 319 1669 319 2325 
Q 319 3041 592 3573 
Q 866 4106 1370 4382 
Q 1875 4659 2481 4659 
Q 3169 4659 3637 4309 
Q 4106 3959 4291 3325 
L 3694 3184 
Q 3534 3684 3231 3912 
Q 2928 4141 2469 4141 
Q 1941 4141 1586 3887 
Q 1231 3634 1087 3207 
Q 944 2781 944 2328 
Q 944 1744 1114 1308 
Q 1284 872 1643 656 
Q 2003 441 2422 441 
Q 2931 441 3284 734 
Q 3638 1028 3763 1606 
z
" transform="scale(0.015625)"/>
        <path id="ArialMT-6f" d="M 213 1659 
Q 213 2581 725 3025 
Q 1153 3394 1769 3394 
Q 2453 3394 2887 2945 
Q 3322 2497 3322 1706 
Q 3322 1066 3130 698 
Q 2938 331 2570 128 
Q 2203 -75 1769 -75 
Q 1072 -75 642 372 
Q 213 819 213 1659 
z
M 791 1659 
Q 791 1022 1069 705 
Q 1347 388 1769 388 
Q 2188 388 2466 706 
Q 2744 1025 2744 1678 
Q 2744 2294 2464 2611 
Q 2184 2928 1769 2928 
Q 1347 2928 1069 2612 
Q 791 2297 791 1659 
z
" transform="scale(0.015625)"/>
        <path id="ArialMT-6e" d="M 422 0 
L 422 3319 
L 928 3319 
L 928 2847 
Q 1294 3394 1984 3394 
Q 2284 3394 2536 3286 
Q 2788 3178 2913 3003 
Q 3038 2828 3088 2588 
Q 3119 2431 3119 2041 
L 3119 0 
L 2556 0 
L 2556 2019 
Q 2556 2363 2490 2533 
Q 2425 2703 2258 2804 
Q 2091 2906 1866 2906 
Q 1506 2906 1245 2678 
Q 984 2450 984 1813 
L 984 0 
L 422 0 
z
" transform="scale(0.015625)"/>
        <path id="ArialMT-74" d="M 1650 503 
L 1731 6 
Q 1494 -44 1306 -44 
Q 1000 -44 831 53 
Q 663 150 594 308 
Q 525 466 525 972 
L 525 2881 
L 113 2881 
L 113 3319 
L 525 3319 
L 525 4141 
L 1084 4478 
L 1084 3319 
L 1650 3319 
L 1650 2881 
L 1084 2881 
L 1084 941 
Q 1084 700 1114 631 
Q 1144 563 1211 522 
Q 1278 481 1403 481 
Q 1497 481 1650 503 
z
" transform="scale(0.015625)"/>
        <path id="ArialMT-72" d="M 416 0 
L 416 3319 
L 922 3319 
L 922 2816 
Q 1116 3169 1280 3281 
Q 1444 3394 1641 3394 
Q 1925 3394 2219 3213 
L 2025 2691 
Q 1819 2813 1613 2813 
Q 1428 2813 1281 2702 
Q 1134 2591 1072 2394 
Q 978 2094 978 1738 
L 978 0 
L 416 0 
z
" transform="scale(0.015625)"/>
        <path id="ArialMT-6c" d="M 409 0 
L 409 4581 
L 972 4581 
L 972 0 
L 409 0 
z
" transform="scale(0.015625)"/>
       </defs>
       <use xlink:href="#ArialMT-43"/>
       <use xlink:href="#ArialMT-6f" x="72.216797"/>
       <use xlink:href="#ArialMT-6e" x="127.832031"/>
       <use xlink:href="#ArialMT-74" x="183.447266"/>
       <use xlink:href="#ArialMT-72" x="211.230469"/>
       <use xlink:href="#ArialMT-6f" x="244.53125"/>
       <use xlink:href="#ArialMT-6c" x="300.146484"/>
      </g>
     </g>
    </g>
    <g id="xtick_2">
     <g id="text_2">
      <!-- Test -->
      <g style="fill: #262626" transform="translate(287.478956 332.197812) scale(0.1 -0.1)">
       <defs>
        <path id="ArialMT-54" d="M 1659 0 
L 1659 4041 
L 150 4041 
L 150 4581 
L 3781 4581 
L 3781 4041 
L 2266 4041 
L 2266 0 
L 1659 0 
z
" transform="scale(0.015625)"/>
        <path id="ArialMT-65" d="M 2694 1069 
L 3275 997 
Q 3138 488 2766 206 
Q 2394 -75 1816 -75 
Q 1088 -75 661 373 
Q 234 822 234 1631 
Q 234 2469 665 2931 
Q 1097 3394 1784 3394 
Q 2450 3394 2872 2941 
Q 3294 2488 3294 1666 
Q 3294 1616 3291 1516 
L 816 1516 
Q 847 969 1125 678 
Q 1403 388 1819 388 
Q 2128 388 2347 550 
Q 2566 713 2694 1069 
z
M 847 1978 
L 2700 1978 
Q 2663 2397 2488 2606 
Q 2219 2931 1791 2931 
Q 1403 2931 1139 2672 
Q 875 2413 847 1978 
z
" transform="scale(0.015625)"/>
        <path id="ArialMT-73" d="M 197 991 
L 753 1078 
Q 800 744 1014 566 
Q 1228 388 1613 388 
Q 2000 388 2187 545 
Q 2375 703 2375 916 
Q 2375 1106 2209 1216 
Q 2094 1291 1634 1406 
Q 1016 1563 777 1677 
Q 538 1791 414 1992 
Q 291 2194 291 2438 
Q 291 2659 392 2848 
Q 494 3038 669 3163 
Q 800 3259 1026 3326 
Q 1253 3394 1513 3394 
Q 1903 3394 2198 3281 
Q 2494 3169 2634 2976 
Q 2775 2784 2828 2463 
L 2278 2388 
Q 2241 2644 2061 2787 
Q 1881 2931 1553 2931 
Q 1166 2931 1000 2803 
Q 834 2675 834 2503 
Q 834 2394 903 2306 
Q 972 2216 1119 2156 
Q 1203 2125 1616 2013 
Q 2213 1853 2448 1751 
Q 2684 1650 2818 1456 
Q 2953 1263 2953 975 
Q 2953 694 2789 445 
Q 2625 197 2315 61 
Q 2006 -75 1616 -75 
Q 969 -75 630 194 
Q 291 463 197 991 
z
" transform="scale(0.015625)"/>
       </defs>
       <use xlink:href="#ArialMT-54"/>
       <use xlink:href="#ArialMT-65" x="49.958984"/>
       <use xlink:href="#ArialMT-73" x="105.574219"/>
       <use xlink:href="#ArialMT-74" x="155.574219"/>
      </g>
     </g>
    </g>
    <g id="text_3">
     <!-- group -->
     <g style="fill: #262626" transform="translate(202.936389 345.225938) scale(0.1 -0.1)">
      <defs>
       <path id="ArialMT-67" d="M 319 -275 
L 866 -356 
Q 900 -609 1056 -725 
Q 1266 -881 1628 -881 
Q 2019 -881 2231 -725 
Q 2444 -569 2519 -288 
Q 2563 -116 2559 434 
Q 2191 0 1641 0 
Q 956 0 581 494 
Q 206 988 206 1678 
Q 206 2153 378 2554 
Q 550 2956 876 3175 
Q 1203 3394 1644 3394 
Q 2231 3394 2613 2919 
L 2613 3319 
L 3131 3319 
L 3131 450 
Q 3131 -325 2973 -648 
Q 2816 -972 2473 -1159 
Q 2131 -1347 1631 -1347 
Q 1038 -1347 672 -1080 
Q 306 -813 319 -275 
z
M 784 1719 
Q 784 1066 1043 766 
Q 1303 466 1694 466 
Q 2081 466 2343 764 
Q 2606 1063 2606 1700 
Q 2606 2309 2336 2618 
Q 2066 2928 1684 2928 
Q 1309 2928 1046 2623 
Q 784 2319 784 1719 
z
" transform="scale(0.015625)"/>
       <path id="ArialMT-75" d="M 2597 0 
L 2597 488 
Q 2209 -75 1544 -75 
Q 1250 -75 995 37 
Q 741 150 617 320 
Q 494 491 444 738 
Q 409 903 409 1263 
L 409 3319 
L 972 3319 
L 972 1478 
Q 972 1038 1006 884 
Q 1059 663 1231 536 
Q 1403 409 1656 409 
Q 1909 409 2131 539 
Q 2353 669 2445 892 
Q 2538 1116 2538 1541 
L 2538 3319 
L 3100 3319 
L 3100 0 
L 2597 0 
z
" transform="scale(0.015625)"/>
       <path id="ArialMT-70" d="M 422 -1272 
L 422 3319 
L 934 3319 
L 934 2888 
Q 1116 3141 1344 3267 
Q 1572 3394 1897 3394 
Q 2322 3394 2647 3175 
Q 2972 2956 3137 2557 
Q 3303 2159 3303 1684 
Q 3303 1175 3120 767 
Q 2938 359 2589 142 
Q 2241 -75 1856 -75 
Q 1575 -75 1351 44 
Q 1128 163 984 344 
L 984 -1272 
L 422 -1272 
z
M 931 1641 
Q 931 1000 1190 694 
Q 1450 388 1819 388 
Q 2194 388 2461 705 
Q 2728 1022 2728 1688 
Q 2728 2322 2467 2637 
Q 2206 2953 1844 2953 
Q 1484 2953 1207 2617 
Q 931 2281 931 1641 
z
" transform="scale(0.015625)"/>
      </defs>
      <use xlink:href="#ArialMT-67"/>
      <use xlink:href="#ArialMT-72" x="55.615234"/>
      <use xlink:href="#ArialMT-6f" x="88.916016"/>
      <use xlink:href="#ArialMT-75" x="144.53125"/>
      <use xlink:href="#ArialMT-70" x="200.146484"/>
     </g>
    </g>
   </g>
   <g id="matplotlib.axis_2">
    <g id="ytick_1">
     <g id="line2d_1">
      <path d="M 53.877038 292.895375 
L 377.569178 292.895375 
" clip-path="url(#p25c06b6b73)" style="fill: none; stroke: #cccccc; stroke-width: 0.8; stroke-linecap: round"/>
     </g>
     <g id="text_4">
      <!-- 50 -->
      <g style="fill: #262626" transform="translate(35.755163 296.474282) scale(0.1 -0.1)">
       <defs>
        <path id="ArialMT-35" d="M 266 1200 
L 856 1250 
Q 922 819 1161 601 
Q 1400 384 1738 384 
Q 2144 384 2425 690 
Q 2706 997 2706 1503 
Q 2706 1984 2436 2262 
Q 2166 2541 1728 2541 
Q 1456 2541 1237 2417 
Q 1019 2294 894 2097 
L 366 2166 
L 809 4519 
L 3088 4519 
L 3088 3981 
L 1259 3981 
L 1013 2750 
Q 1425 3038 1878 3038 
Q 2478 3038 2890 2622 
Q 3303 2206 3303 1553 
Q 3303 931 2941 478 
Q 2500 -78 1738 -78 
Q 1113 -78 717 272 
Q 322 622 266 1200 
z
" transform="scale(0.015625)"/>
        <path id="ArialMT-30" d="M 266 2259 
Q 266 3072 433 3567 
Q 600 4063 929 4331 
Q 1259 4600 1759 4600 
Q 2128 4600 2406 4451 
Q 2684 4303 2865 4023 
Q 3047 3744 3150 3342 
Q 3253 2941 3253 2259 
Q 3253 1453 3087 958 
Q 2922 463 2592 192 
Q 2263 -78 1759 -78 
Q 1097 -78 719 397 
Q 266 969 266 2259 
z
M 844 2259 
Q 844 1131 1108 757 
Q 1372 384 1759 384 
Q 2147 384 2411 759 
Q 2675 1134 2675 2259 
Q 2675 3391 2411 3762 
Q 2147 4134 1753 4134 
Q 1366 4134 1134 3806 
Q 844 3388 844 2259 
z
" transform="scale(0.015625)"/>
       </defs>
       <use xlink:href="#ArialMT-35"/>
       <use xlink:href="#ArialMT-30" x="55.615234"/>
      </g>
     </g>
    </g>
    <g id="ytick_2">
     <g id="line2d_2">
      <path d="M 53.877038 259.421471 
L 377.569178 259.421471 
" clip-path="url(#p25c06b6b73)" style="fill: none; stroke: #cccccc; stroke-width: 0.8; stroke-linecap: round"/>
     </g>
     <g id="text_5">
      <!-- 60 -->
      <g style="fill: #262626" transform="translate(35.755163 263.000377) scale(0.1 -0.1)">
       <defs>
        <path id="ArialMT-36" d="M 3184 3459 
L 2625 3416 
Q 2550 3747 2413 3897 
Q 2184 4138 1850 4138 
Q 1581 4138 1378 3988 
Q 1113 3794 959 3422 
Q 806 3050 800 2363 
Q 1003 2672 1297 2822 
Q 1591 2972 1913 2972 
Q 2475 2972 2870 2558 
Q 3266 2144 3266 1488 
Q 3266 1056 3080 686 
Q 2894 316 2569 119 
Q 2244 -78 1831 -78 
Q 1128 -78 684 439 
Q 241 956 241 2144 
Q 241 3472 731 4075 
Q 1159 4600 1884 4600 
Q 2425 4600 2770 4297 
Q 3116 3994 3184 3459 
z
M 888 1484 
Q 888 1194 1011 928 
Q 1134 663 1356 523 
Q 1578 384 1822 384 
Q 2178 384 2434 671 
Q 2691 959 2691 1453 
Q 2691 1928 2437 2201 
Q 2184 2475 1800 2475 
Q 1419 2475 1153 2201 
Q 888 1928 888 1484 
z
" transform="scale(0.015625)"/>
       </defs>
       <use xlink:href="#ArialMT-36"/>
       <use xlink:href="#ArialMT-30" x="55.615234"/>
      </g>
     </g>
    </g>
    <g id="ytick_3">
     <g id="line2d_3">
      <path d="M 53.877038 225.947567 
L 377.569178 225.947567 
" clip-path="url(#p25c06b6b73)" style="fill: none; stroke: #cccccc; stroke-width: 0.8; stroke-linecap: round"/>
     </g>
     <g id="text_6">
      <!-- 70 -->
      <g style="fill: #262626" transform="translate(35.755163 229.526473) scale(0.1 -0.1)">
       <defs>
        <path id="ArialMT-37" d="M 303 3981 
L 303 4522 
L 3269 4522 
L 3269 4084 
Q 2831 3619 2401 2847 
Q 1972 2075 1738 1259 
Q 1569 684 1522 0 
L 944 0 
Q 953 541 1156 1306 
Q 1359 2072 1739 2783 
Q 2119 3494 2547 3981 
L 303 3981 
z
" transform="scale(0.015625)"/>
       </defs>
       <use xlink:href="#ArialMT-37"/>
       <use xlink:href="#ArialMT-30" x="55.615234"/>
      </g>
     </g>
    </g>
    <g id="ytick_4">
     <g id="line2d_4">
      <path d="M 53.877038 192.473662 
L 377.569178 192.473662 
" clip-path="url(#p25c06b6b73)" style="fill: none; stroke: #cccccc; stroke-width: 0.8; stroke-linecap: round"/>
     </g>
     <g id="text_7">
      <!-- 80 -->
      <g style="fill: #262626" transform="translate(35.755163 196.052568) scale(0.1 -0.1)">
       <defs>
        <path id="ArialMT-38" d="M 1131 2484 
Q 781 2613 612 2850 
Q 444 3088 444 3419 
Q 444 3919 803 4259 
Q 1163 4600 1759 4600 
Q 2359 4600 2725 4251 
Q 3091 3903 3091 3403 
Q 3091 3084 2923 2848 
Q 2756 2613 2416 2484 
Q 2838 2347 3058 2040 
Q 3278 1734 3278 1309 
Q 3278 722 2862 322 
Q 2447 -78 1769 -78 
Q 1091 -78 675 323 
Q 259 725 259 1325 
Q 259 1772 486 2073 
Q 713 2375 1131 2484 
z
M 1019 3438 
Q 1019 3113 1228 2906 
Q 1438 2700 1772 2700 
Q 2097 2700 2305 2904 
Q 2513 3109 2513 3406 
Q 2513 3716 2298 3927 
Q 2084 4138 1766 4138 
Q 1444 4138 1231 3931 
Q 1019 3725 1019 3438 
z
M 838 1322 
Q 838 1081 952 856 
Q 1066 631 1291 507 
Q 1516 384 1775 384 
Q 2178 384 2440 643 
Q 2703 903 2703 1303 
Q 2703 1709 2433 1975 
Q 2163 2241 1756 2241 
Q 1359 2241 1098 1978 
Q 838 1716 838 1322 
z
" transform="scale(0.015625)"/>
       </defs>
       <use xlink:href="#ArialMT-38"/>
       <use xlink:href="#ArialMT-30" x="55.615234"/>
      </g>
     </g>
    </g>
    <g id="ytick_5">
     <g id="line2d_5">
      <path d="M 53.877038 158.999758 
L 377.569178 158.999758 
" clip-path="url(#p25c06b6b73)" style="fill: none; stroke: #cccccc; stroke-width: 0.8; stroke-linecap: round"/>
     </g>
     <g id="text_8">
      <!-- 90 -->
      <g style="fill: #262626" transform="translate(35.755163 162.578664) scale(0.1 -0.1)">
       <defs>
        <path id="ArialMT-39" d="M 350 1059 
L 891 1109 
Q 959 728 1153 556 
Q 1347 384 1650 384 
Q 1909 384 2104 503 
Q 2300 622 2425 820 
Q 2550 1019 2634 1356 
Q 2719 1694 2719 2044 
Q 2719 2081 2716 2156 
Q 2547 1888 2255 1720 
Q 1963 1553 1622 1553 
Q 1053 1553 659 1965 
Q 266 2378 266 3053 
Q 266 3750 677 4175 
Q 1088 4600 1706 4600 
Q 2153 4600 2523 4359 
Q 2894 4119 3086 3673 
Q 3278 3228 3278 2384 
Q 3278 1506 3087 986 
Q 2897 466 2520 194 
Q 2144 -78 1638 -78 
Q 1100 -78 759 220 
Q 419 519 350 1059 
z
M 2653 3081 
Q 2653 3566 2395 3850 
Q 2138 4134 1775 4134 
Q 1400 4134 1122 3828 
Q 844 3522 844 3034 
Q 844 2597 1108 2323 
Q 1372 2050 1759 2050 
Q 2150 2050 2401 2323 
Q 2653 2597 2653 3081 
z
" transform="scale(0.015625)"/>
       </defs>
       <use xlink:href="#ArialMT-39"/>
       <use xlink:href="#ArialMT-30" x="55.615234"/>
      </g>
     </g>
    </g>
    <g id="ytick_6">
     <g id="line2d_6">
      <path d="M 53.877038 125.525853 
L 377.569178 125.525853 
" clip-path="url(#p25c06b6b73)" style="fill: none; stroke: #cccccc; stroke-width: 0.8; stroke-linecap: round"/>
     </g>
     <g id="text_9">
      <!-- 100 -->
      <g style="fill: #262626" transform="translate(30.194225 129.104759) scale(0.1 -0.1)">
       <defs>
        <path id="ArialMT-31" d="M 2384 0 
L 1822 0 
L 1822 3584 
Q 1619 3391 1289 3197 
Q 959 3003 697 2906 
L 697 3450 
Q 1169 3672 1522 3987 
Q 1875 4303 2022 4600 
L 2384 4600 
L 2384 0 
z
" transform="scale(0.015625)"/>
       </defs>
       <use xlink:href="#ArialMT-31"/>
       <use xlink:href="#ArialMT-30" x="55.615234"/>
       <use xlink:href="#ArialMT-30" x="111.230469"/>
      </g>
     </g>
    </g>
    <g id="ytick_7">
     <g id="line2d_7">
      <path d="M 53.877038 92.051949 
L 377.569178 92.051949 
" clip-path="url(#p25c06b6b73)" style="fill: none; stroke: #cccccc; stroke-width: 0.8; stroke-linecap: round"/>
     </g>
     <g id="text_10">
      <!-- 110 -->
      <g style="fill: #262626" transform="translate(30.931725 95.630855) scale(0.1 -0.1)">
       <use xlink:href="#ArialMT-31"/>
       <use xlink:href="#ArialMT-31" x="48.240234"/>
       <use xlink:href="#ArialMT-30" x="103.855469"/>
      </g>
     </g>
    </g>
    <g id="ytick_8">
     <g id="line2d_8">
      <path d="M 53.877038 58.578044 
L 377.569178 58.578044 
" clip-path="url(#p25c06b6b73)" style="fill: none; stroke: #cccccc; stroke-width: 0.8; stroke-linecap: round"/>
     </g>
     <g id="text_11">
      <!-- 120 -->
      <g style="fill: #262626" transform="translate(30.194225 62.156951) scale(0.1 -0.1)">
       <defs>
        <path id="ArialMT-32" d="M 3222 541 
L 3222 0 
L 194 0 
Q 188 203 259 391 
Q 375 700 629 1000 
Q 884 1300 1366 1694 
Q 2113 2306 2375 2664 
Q 2638 3022 2638 3341 
Q 2638 3675 2398 3904 
Q 2159 4134 1775 4134 
Q 1369 4134 1125 3890 
Q 881 3647 878 3216 
L 300 3275 
Q 359 3922 746 4261 
Q 1134 4600 1788 4600 
Q 2447 4600 2831 4234 
Q 3216 3869 3216 3328 
Q 3216 3053 3103 2787 
Q 2991 2522 2730 2228 
Q 2469 1934 1863 1422 
Q 1356 997 1212 845 
Q 1069 694 975 541 
L 3222 541 
z
" transform="scale(0.015625)"/>
       </defs>
       <use xlink:href="#ArialMT-31"/>
       <use xlink:href="#ArialMT-32" x="55.615234"/>
       <use xlink:href="#ArialMT-30" x="111.230469"/>
      </g>
     </g>
    </g>
    <g id="ytick_9">
     <g id="line2d_9">
      <path d="M 53.877038 25.10414 
L 377.569178 25.10414 
" clip-path="url(#p25c06b6b73)" style="fill: none; stroke: #cccccc; stroke-width: 0.8; stroke-linecap: round"/>
     </g>
     <g id="text_12">
      <!-- 130 -->
      <g style="fill: #262626" transform="translate(30.194225 28.683046) scale(0.1 -0.1)">
       <defs>
        <path id="ArialMT-33" d="M 269 1209 
L 831 1284 
Q 928 806 1161 595 
Q 1394 384 1728 384 
Q 2125 384 2398 659 
Q 2672 934 2672 1341 
Q 2672 1728 2419 1979 
Q 2166 2231 1775 2231 
Q 1616 2231 1378 2169 
L 1441 2663 
Q 1497 2656 1531 2656 
Q 1891 2656 2178 2843 
Q 2466 3031 2466 3422 
Q 2466 3731 2256 3934 
Q 2047 4138 1716 4138 
Q 1388 4138 1169 3931 
Q 950 3725 888 3313 
L 325 3413 
Q 428 3978 793 4289 
Q 1159 4600 1703 4600 
Q 2078 4600 2393 4439 
Q 2709 4278 2876 4000 
Q 3044 3722 3044 3409 
Q 3044 3113 2884 2869 
Q 2725 2625 2413 2481 
Q 2819 2388 3044 2092 
Q 3269 1797 3269 1353 
Q 3269 753 2831 336 
Q 2394 -81 1725 -81 
Q 1122 -81 723 278 
Q 325 638 269 1209 
z
" transform="scale(0.015625)"/>
       </defs>
       <use xlink:href="#ArialMT-31"/>
       <use xlink:href="#ArialMT-33" x="55.615234"/>
       <use xlink:href="#ArialMT-30" x="111.230469"/>
      </g>
     </g>
    </g>
    <g id="text_13">
     <!-- Abdominal perimeter (cm) -->
     <g style="fill: #262626" transform="translate(24.089538 228.893281) rotate(-90) scale(0.1 -0.1)">
      <defs>
       <path id="ArialMT-41" d="M -9 0 
L 1750 4581 
L 2403 4581 
L 4278 0 
L 3588 0 
L 3053 1388 
L 1138 1388 
L 634 0 
L -9 0 
z
M 1313 1881 
L 2866 1881 
L 2388 3150 
Q 2169 3728 2063 4100 
Q 1975 3659 1816 3225 
L 1313 1881 
z
" transform="scale(0.015625)"/>
       <path id="ArialMT-62" d="M 941 0 
L 419 0 
L 419 4581 
L 981 4581 
L 981 2947 
Q 1338 3394 1891 3394 
Q 2197 3394 2470 3270 
Q 2744 3147 2920 2923 
Q 3097 2700 3197 2384 
Q 3297 2069 3297 1709 
Q 3297 856 2875 390 
Q 2453 -75 1863 -75 
Q 1275 -75 941 416 
L 941 0 
z
M 934 1684 
Q 934 1088 1097 822 
Q 1363 388 1816 388 
Q 2184 388 2453 708 
Q 2722 1028 2722 1663 
Q 2722 2313 2464 2622 
Q 2206 2931 1841 2931 
Q 1472 2931 1203 2611 
Q 934 2291 934 1684 
z
" transform="scale(0.015625)"/>
       <path id="ArialMT-64" d="M 2575 0 
L 2575 419 
Q 2259 -75 1647 -75 
Q 1250 -75 917 144 
Q 584 363 401 755 
Q 219 1147 219 1656 
Q 219 2153 384 2558 
Q 550 2963 881 3178 
Q 1213 3394 1622 3394 
Q 1922 3394 2156 3267 
Q 2391 3141 2538 2938 
L 2538 4581 
L 3097 4581 
L 3097 0 
L 2575 0 
z
M 797 1656 
Q 797 1019 1065 703 
Q 1334 388 1700 388 
Q 2069 388 2326 689 
Q 2584 991 2584 1609 
Q 2584 2291 2321 2609 
Q 2059 2928 1675 2928 
Q 1300 2928 1048 2622 
Q 797 2316 797 1656 
z
" transform="scale(0.015625)"/>
       <path id="ArialMT-6d" d="M 422 0 
L 422 3319 
L 925 3319 
L 925 2853 
Q 1081 3097 1340 3245 
Q 1600 3394 1931 3394 
Q 2300 3394 2536 3241 
Q 2772 3088 2869 2813 
Q 3263 3394 3894 3394 
Q 4388 3394 4653 3120 
Q 4919 2847 4919 2278 
L 4919 0 
L 4359 0 
L 4359 2091 
Q 4359 2428 4304 2576 
Q 4250 2725 4106 2815 
Q 3963 2906 3769 2906 
Q 3419 2906 3187 2673 
Q 2956 2441 2956 1928 
L 2956 0 
L 2394 0 
L 2394 2156 
Q 2394 2531 2256 2718 
Q 2119 2906 1806 2906 
Q 1569 2906 1367 2781 
Q 1166 2656 1075 2415 
Q 984 2175 984 1722 
L 984 0 
L 422 0 
z
" transform="scale(0.015625)"/>
       <path id="ArialMT-69" d="M 425 3934 
L 425 4581 
L 988 4581 
L 988 3934 
L 425 3934 
z
M 425 0 
L 425 3319 
L 988 3319 
L 988 0 
L 425 0 
z
" transform="scale(0.015625)"/>
       <path id="ArialMT-61" d="M 2588 409 
Q 2275 144 1986 34 
Q 1697 -75 1366 -75 
Q 819 -75 525 192 
Q 231 459 231 875 
Q 231 1119 342 1320 
Q 453 1522 633 1644 
Q 813 1766 1038 1828 
Q 1203 1872 1538 1913 
Q 2219 1994 2541 2106 
Q 2544 2222 2544 2253 
Q 2544 2597 2384 2738 
Q 2169 2928 1744 2928 
Q 1347 2928 1158 2789 
Q 969 2650 878 2297 
L 328 2372 
Q 403 2725 575 2942 
Q 747 3159 1072 3276 
Q 1397 3394 1825 3394 
Q 2250 3394 2515 3294 
Q 2781 3194 2906 3042 
Q 3031 2891 3081 2659 
Q 3109 2516 3109 2141 
L 3109 1391 
Q 3109 606 3145 398 
Q 3181 191 3288 0 
L 2700 0 
Q 2613 175 2588 409 
z
M 2541 1666 
Q 2234 1541 1622 1453 
Q 1275 1403 1131 1340 
Q 988 1278 909 1158 
Q 831 1038 831 891 
Q 831 666 1001 516 
Q 1172 366 1500 366 
Q 1825 366 2078 508 
Q 2331 650 2450 897 
Q 2541 1088 2541 1459 
L 2541 1666 
z
" transform="scale(0.015625)"/>
       <path id="ArialMT-20" transform="scale(0.015625)"/>
       <path id="ArialMT-28" d="M 1497 -1347 
Q 1031 -759 709 28 
Q 388 816 388 1659 
Q 388 2403 628 3084 
Q 909 3875 1497 4659 
L 1900 4659 
Q 1522 4009 1400 3731 
Q 1209 3300 1100 2831 
Q 966 2247 966 1656 
Q 966 153 1900 -1347 
L 1497 -1347 
z
" transform="scale(0.015625)"/>
       <path id="ArialMT-63" d="M 2588 1216 
L 3141 1144 
Q 3050 572 2676 248 
Q 2303 -75 1759 -75 
Q 1078 -75 664 370 
Q 250 816 250 1647 
Q 250 2184 428 2587 
Q 606 2991 970 3192 
Q 1334 3394 1763 3394 
Q 2303 3394 2647 3120 
Q 2991 2847 3088 2344 
L 2541 2259 
Q 2463 2594 2264 2762 
Q 2066 2931 1784 2931 
Q 1359 2931 1093 2626 
Q 828 2322 828 1663 
Q 828 994 1084 691 
Q 1341 388 1753 388 
Q 2084 388 2306 591 
Q 2528 794 2588 1216 
z
" transform="scale(0.015625)"/>
       <path id="ArialMT-29" d="M 791 -1347 
L 388 -1347 
Q 1322 153 1322 1656 
Q 1322 2244 1188 2822 
Q 1081 3291 891 3722 
Q 769 4003 388 4659 
L 791 4659 
Q 1378 3875 1659 3084 
Q 1900 2403 1900 1659 
Q 1900 816 1576 28 
Q 1253 -759 791 -1347 
z
" transform="scale(0.015625)"/>
      </defs>
      <use xlink:href="#ArialMT-41"/>
      <use xlink:href="#ArialMT-62" x="66.699219"/>
      <use xlink:href="#ArialMT-64" x="122.314453"/>
      <use xlink:href="#ArialMT-6f" x="177.929688"/>
      <use xlink:href="#ArialMT-6d" x="233.544922"/>
      <use xlink:href="#ArialMT-69" x="316.845703"/>
      <use xlink:href="#ArialMT-6e" x="339.0625"/>
      <use xlink:href="#ArialMT-61" x="394.677734"/>
      <use xlink:href="#ArialMT-6c" x="450.292969"/>
      <use xlink:href="#ArialMT-20" x="472.509766"/>
      <use xlink:href="#ArialMT-70" x="500.292969"/>
      <use xlink:href="#ArialMT-65" x="555.908203"/>
      <use xlink:href="#ArialMT-72" x="611.523438"/>
      <use xlink:href="#ArialMT-69" x="644.824219"/>
      <use xlink:href="#ArialMT-6d" x="667.041016"/>
      <use xlink:href="#ArialMT-65" x="750.341797"/>
      <use xlink:href="#ArialMT-74" x="805.957031"/>
      <use xlink:href="#ArialMT-65" x="833.740234"/>
      <use xlink:href="#ArialMT-72" x="889.355469"/>
      <use xlink:href="#ArialMT-20" x="922.65625"/>
      <use xlink:href="#ArialMT-28" x="950.439453"/>
      <use xlink:href="#ArialMT-63" x="983.740234"/>
      <use xlink:href="#ArialMT-6d" x="1033.740234"/>
      <use xlink:href="#ArialMT-29" x="1117.041016"/>
     </g>
    </g>
   </g>
   <g id="PolyCollection_1">
    <defs>
     <path id="maacaf499cb" d="M 102.828463 -89.182627 
L 102.033255 -89.182627 
L 101.933758 -90.765328 
L 101.81658 -92.34803 
L 101.680446 -93.930731 
L 101.524385 -95.513432 
L 101.347793 -97.096133 
L 101.150453 -98.678834 
L 100.932527 -100.261536 
L 100.694496 -101.844237 
L 100.437064 -103.426938 
L 100.161002 -105.009639 
L 99.86697 -106.592341 
L 99.555311 -108.175042 
L 99.225844 -109.757743 
L 98.877678 -111.340444 
L 98.509075 -112.923146 
L 98.117383 -114.505847 
L 97.699055 -116.088548 
L 97.249771 -117.671249 
L 96.764655 -119.25395 
L 96.238582 -120.836652 
L 95.666552 -122.419353 
L 95.044104 -124.002054 
L 94.367717 -125.584755 
L 93.635183 -127.167457 
L 92.845894 -128.750158 
L 92.001034 -130.332859 
L 91.103644 -131.91556 
L 90.158569 -133.498262 
L 89.17229 -135.080963 
L 88.152671 -136.663664 
L 87.108657 -138.246365 
L 86.049941 -139.829066 
L 84.986662 -141.411768 
L 83.929132 -142.994469 
L 82.887623 -144.57717 
L 81.872214 -146.159871 
L 80.892675 -147.742573 
L 79.958364 -149.325274 
L 79.078122 -150.907975 
L 78.260111 -152.490676 
L 77.511586 -154.073377 
L 76.838594 -155.656079 
L 76.245593 -157.23878 
L 75.735034 -158.821481 
L 75.306939 -160.404182 
L 74.958537 -161.986884 
L 74.684033 -163.569585 
L 74.474547 -165.152286 
L 74.318297 -166.734987 
L 74.201037 -168.317689 
L 74.106754 -169.90039 
L 74.018596 -171.483091 
L 73.919973 -173.065792 
L 73.795737 -174.648493 
L 73.633358 -176.231195 
L 73.423978 -177.813896 
L 73.163251 -179.396597 
L 72.851889 -180.979298 
L 72.495854 -182.562 
L 72.106181 -184.144701 
L 71.698441 -185.727402 
L 71.291885 -187.310103 
L 70.908357 -188.892805 
L 70.571042 -190.475506 
L 70.303175 -192.058207 
L 70.126797 -193.640908 
L 70.061645 -195.223609 
L 70.124246 -196.806311 
L 70.32727 -198.389012 
L 70.679139 -199.971713 
L 71.183905 -201.554414 
L 71.841358 -203.137116 
L 72.647321 -204.719817 
L 73.594087 -206.302518 
L 74.670927 -207.885219 
L 75.864646 -209.46792 
L 77.160116 -211.050622 
L 78.540783 -212.633323 
L 79.989124 -214.216024 
L 81.487056 -215.798725 
L 83.016292 -217.381427 
L 84.558672 -218.964128 
L 86.096478 -220.546829 
L 87.612732 -222.12953 
L 89.091497 -223.712232 
L 90.518173 -225.294933 
L 91.879776 -226.877634 
L 93.1652 -228.460335 
L 94.365422 -230.043036 
L 95.473658 -231.625738 
L 96.48544 -233.208439 
L 97.398607 -234.79114 
L 98.213213 -236.373841 
L 98.93135 -237.956543 
L 99.556898 -239.539244 
L 100.095225 -241.121945 
L 100.552847 -242.704646 
L 100.937075 -244.287348 
L 101.25568 -245.870049 
L 103.606037 -245.870049 
L 103.606037 -245.870049 
L 103.924642 -244.287348 
L 104.308871 -242.704646 
L 104.766492 -241.121945 
L 105.304819 -239.539244 
L 105.930367 -237.956543 
L 106.648504 -236.373841 
L 107.46311 -234.79114 
L 108.376277 -233.208439 
L 109.388059 -231.625738 
L 110.496295 -230.043036 
L 111.696517 -228.460335 
L 112.981941 -226.877634 
L 114.343545 -225.294933 
L 115.77022 -223.712232 
L 117.248985 -222.12953 
L 118.765239 -220.546829 
L 120.303045 -218.964128 
L 121.845425 -217.381427 
L 123.374661 -215.798725 
L 124.872593 -214.216024 
L 126.320935 -212.633323 
L 127.701601 -211.050622 
L 128.997071 -209.46792 
L 130.19079 -207.885219 
L 131.267631 -206.302518 
L 132.214396 -204.719817 
L 133.020359 -203.137116 
L 133.677812 -201.554414 
L 134.182578 -199.971713 
L 134.534447 -198.389012 
L 134.737471 -196.806311 
L 134.800073 -195.223609 
L 134.73492 -193.640908 
L 134.558542 -192.058207 
L 134.290675 -190.475506 
L 133.95336 -188.892805 
L 133.569832 -187.310103 
L 133.163277 -185.727402 
L 132.755536 -184.144701 
L 132.365863 -182.562 
L 132.009828 -180.979298 
L 131.698466 -179.396597 
L 131.43774 -177.813896 
L 131.228359 -176.231195 
L 131.06598 -174.648493 
L 130.941744 -173.065792 
L 130.843121 -171.483091 
L 130.754963 -169.90039 
L 130.66068 -168.317689 
L 130.54342 -166.734987 
L 130.38717 -165.152286 
L 130.177684 -163.569585 
L 129.90318 -161.986884 
L 129.554779 -160.404182 
L 129.126683 -158.821481 
L 128.616124 -157.23878 
L 128.023123 -155.656079 
L 127.350131 -154.073377 
L 126.601607 -152.490676 
L 125.783595 -150.907975 
L 124.903353 -149.325274 
L 123.969043 -147.742573 
L 122.989503 -146.159871 
L 121.974094 -144.57717 
L 120.932586 -142.994469 
L 119.875055 -141.411768 
L 118.811776 -139.829066 
L 117.753061 -138.246365 
L 116.709046 -136.663664 
L 115.689427 -135.080963 
L 114.703148 -133.498262 
L 113.758073 -131.91556 
L 112.860683 -130.332859 
L 112.015824 -128.750158 
L 111.226534 -127.167457 
L 110.494 -125.584755 
L 109.817613 -124.002054 
L 109.195165 -122.419353 
L 108.623136 -120.836652 
L 108.097062 -119.25395 
L 107.611946 -117.671249 
L 107.162662 -116.088548 
L 106.744335 -114.505847 
L 106.352643 -112.923146 
L 105.984039 -111.340444 
L 105.635873 -109.757743 
L 105.306406 -108.175042 
L 104.994747 -106.592341 
L 104.700716 -105.009639 
L 104.424654 -103.426938 
L 104.167221 -101.844237 
L 103.929191 -100.261536 
L 103.711264 -98.678834 
L 103.513924 -97.096133 
L 103.337332 -95.513432 
L 103.181272 -93.930731 
L 103.045137 -92.34803 
L 102.92796 -90.765328 
L 102.828463 -89.182627 
z
" style="stroke: #3f3f3f; stroke-width: 1.25"/>
    </defs>
    <g clip-path="url(#p25c06b6b73)">
     <use xlink:href="#maacaf499cb" x="0" y="360" style="fill: #3274a1; stroke: #3f3f3f; stroke-width: 1.25"/>
    </g>
   </g>
   <g id="PolyCollection_2">
    <defs>
     <path id="md193b61357" d="M 167.76409 -114.67677 
L 166.574484 -114.67677 
L 166.403176 -116.353054 
L 166.193092 -118.029339 
L 165.938536 -119.705623 
L 165.633761 -121.381908 
L 165.273176 -123.058192 
L 164.851583 -124.734477 
L 164.36444 -126.410761 
L 163.808134 -128.087046 
L 163.180258 -129.76333 
L 162.47987 -131.439615 
L 161.707717 -133.115899 
L 160.86642 -134.792184 
L 159.96058 -136.468468 
L 158.996813 -138.144753 
L 157.983689 -139.821037 
L 156.931573 -141.497322 
L 155.852365 -143.173606 
L 154.759137 -144.849891 
L 153.665693 -146.526175 
L 152.586056 -148.20246 
L 151.533912 -149.878744 
L 150.522042 -151.555029 
L 149.561785 -153.231313 
L 148.662547 -154.907598 
L 147.831408 -156.583882 
L 147.072849 -158.260166 
L 146.388616 -159.936451 
L 145.777718 -161.612735 
L 145.236582 -163.28902 
L 144.759317 -164.965304 
L 144.338079 -166.641589 
L 143.963502 -168.317873 
L 143.625153 -169.994158 
L 143.311987 -171.670442 
L 143.01278 -173.346727 
L 142.716512 -175.023011 
L 142.412718 -176.699296 
L 142.091806 -178.37558 
L 141.745352 -180.051865 
L 141.366413 -181.728149 
L 140.949847 -183.404434 
L 140.492668 -185.080718 
L 139.994424 -186.757003 
L 139.457562 -188.433287 
L 138.887762 -190.109572 
L 138.29418 -191.785856 
L 137.689533 -193.462141 
L 137.089999 -195.138425 
L 136.514863 -196.81471 
L 135.985904 -198.490994 
L 135.526524 -200.167279 
L 135.160648 -201.843563 
L 134.911461 -203.519848 
L 134.800073 -205.196132 
L 134.844201 -206.872417 
L 135.056995 -208.548701 
L 135.446092 -210.224986 
L 136.012997 -211.90127 
L 136.752844 -213.577555 
L 137.654565 -215.253839 
L 138.70145 -216.930124 
L 139.872071 -218.606408 
L 141.141472 -220.282693 
L 142.482549 -221.958977 
L 143.867504 -223.635261 
L 145.269264 -225.311546 
L 146.662761 -226.98783 
L 148.026004 -228.664115 
L 149.340858 -230.340399 
L 150.593529 -232.016684 
L 151.774717 -233.692968 
L 152.879479 -235.369253 
L 153.906834 -237.045537 
L 154.859164 -238.721822 
L 155.74148 -240.398106 
L 156.560615 -242.074391 
L 157.324422 -243.750675 
L 158.041015 -245.42696 
L 158.718115 -247.103244 
L 159.362531 -248.779529 
L 159.979791 -250.455813 
L 160.573929 -252.132098 
L 161.147426 -253.808382 
L 161.701287 -255.484667 
L 162.235222 -257.160951 
L 162.747909 -258.837236 
L 163.237304 -260.51352 
L 163.700971 -262.189805 
L 164.136394 -263.866089 
L 164.541258 -265.542374 
L 164.91368 -267.218658 
L 165.252371 -268.894943 
L 165.556735 -270.571227 
L 165.826908 -272.247512 
L 166.063728 -273.923796 
L 166.26867 -275.600081 
L 166.443738 -277.276365 
L 166.591341 -278.95265 
L 166.714156 -280.628934 
L 167.624418 -280.628934 
L 167.624418 -280.628934 
L 167.747233 -278.95265 
L 167.894835 -277.276365 
L 168.069904 -275.600081 
L 168.274846 -273.923796 
L 168.511666 -272.247512 
L 168.781839 -270.571227 
L 169.086203 -268.894943 
L 169.424893 -267.218658 
L 169.797315 -265.542374 
L 170.20218 -263.866089 
L 170.637603 -262.189805 
L 171.10127 -260.51352 
L 171.590665 -258.837236 
L 172.103351 -257.160951 
L 172.637286 -255.484667 
L 173.191148 -253.808382 
L 173.764645 -252.132098 
L 174.358783 -250.455813 
L 174.976042 -248.779529 
L 175.620459 -247.103244 
L 176.297559 -245.42696 
L 177.014151 -243.750675 
L 177.777958 -242.074391 
L 178.597094 -240.398106 
L 179.479409 -238.721822 
L 180.431739 -237.045537 
L 181.459094 -235.369253 
L 182.563857 -233.692968 
L 183.745044 -232.016684 
L 184.997715 -230.340399 
L 186.31257 -228.664115 
L 187.675812 -226.98783 
L 189.06931 -225.311546 
L 190.47107 -223.635261 
L 191.856025 -221.958977 
L 193.197102 -220.282693 
L 194.466502 -218.606408 
L 195.637123 -216.930124 
L 196.684009 -215.253839 
L 197.58573 -213.577555 
L 198.325577 -211.90127 
L 198.892482 -210.224986 
L 199.281579 -208.548701 
L 199.494373 -206.872417 
L 199.538501 -205.196132 
L 199.427112 -203.519848 
L 199.177926 -201.843563 
L 198.812049 -200.167279 
L 198.352669 -198.490994 
L 197.823711 -196.81471 
L 197.248575 -195.138425 
L 196.649041 -193.462141 
L 196.044394 -191.785856 
L 195.450811 -190.109572 
L 194.881012 -188.433287 
L 194.344149 -186.757003 
L 193.845905 -185.080718 
L 193.388727 -183.404434 
L 192.972161 -181.728149 
L 192.593222 -180.051865 
L 192.246768 -178.37558 
L 191.925856 -176.699296 
L 191.622062 -175.023011 
L 191.325794 -173.346727 
L 191.026587 -171.670442 
L 190.713421 -169.994158 
L 190.375072 -168.317873 
L 190.000494 -166.641589 
L 189.579256 -164.965304 
L 189.101991 -163.28902 
L 188.560856 -161.612735 
L 187.949958 -159.936451 
L 187.265724 -158.260166 
L 186.507166 -156.583882 
L 185.676027 -154.907598 
L 184.776788 -153.231313 
L 183.816531 -151.555029 
L 182.804662 -149.878744 
L 181.752517 -148.20246 
L 180.67288 -146.526175 
L 179.579437 -144.849891 
L 178.486209 -143.173606 
L 177.407 -141.497322 
L 176.354885 -139.821037 
L 175.341761 -138.144753 
L 174.377994 -136.468468 
L 173.472154 -134.792184 
L 172.630857 -133.115899 
L 171.858704 -131.439615 
L 171.158315 -129.76333 
L 170.530439 -128.087046 
L 169.974134 -126.410761 
L 169.486991 -124.734477 
L 169.065398 -123.058192 
L 168.704813 -121.381908 
L 168.400038 -119.705623 
L 168.145481 -118.029339 
L 167.935397 -116.353054 
L 167.76409 -114.67677 
z
" style="stroke: #3f3f3f; stroke-width: 1.25"/>
    </defs>
    <g clip-path="url(#p25c06b6b73)">
     <use xlink:href="#md193b61357" x="0" y="360" style="fill: #e1812c; stroke: #3f3f3f; stroke-width: 1.25"/>
    </g>
   </g>
   <g id="PolyCollection_3">
    <defs>
     <path id="m2c867c8c85" d="M 264.692906 -55.292727 
L 263.860952 -55.292727 
L 263.750304 -57.526261 
L 263.616477 -59.759795 
L 263.456324 -61.993328 
L 263.266689 -64.226862 
L 263.044507 -66.460395 
L 262.786929 -68.693929 
L 262.491457 -70.927463 
L 262.156082 -73.160996 
L 261.779428 -75.39453 
L 261.360883 -77.628064 
L 260.900724 -79.861597 
L 260.400209 -82.095131 
L 259.86164 -84.328665 
L 259.288384 -86.562198 
L 258.684857 -88.795732 
L 258.056441 -91.029266 
L 257.40937 -93.262799 
L 256.750549 -95.496333 
L 256.087342 -97.729867 
L 255.427322 -99.9634 
L 254.777993 -102.196934 
L 254.146512 -104.430467 
L 253.539413 -106.664001 
L 252.962353 -108.897535 
L 252.419902 -111.131068 
L 251.915381 -113.364602 
L 251.45076 -115.598136 
L 251.026624 -117.831669 
L 250.642202 -120.065203 
L 250.295462 -122.298737 
L 249.983252 -124.53227 
L 249.70149 -126.765804 
L 249.445371 -128.999338 
L 249.209587 -131.232871 
L 248.988551 -133.466405 
L 248.776594 -135.699938 
L 248.568154 -137.933472 
L 248.357926 -140.167006 
L 248.141001 -142.400539 
L 247.912967 -144.634073 
L 247.670012 -146.867607 
L 247.409005 -149.10114 
L 247.127584 -151.334674 
L 246.82424 -153.568208 
L 246.498408 -155.801741 
L 246.150554 -158.035275 
L 245.782259 -160.268809 
L 245.396279 -162.502342 
L 244.99658 -164.735876 
L 244.588326 -166.96941 
L 244.177815 -169.202943 
L 243.772355 -171.436477 
L 243.38007 -173.67001 
L 243.009658 -175.903544 
L 242.670091 -178.137078 
L 242.370286 -180.370611 
L 242.118774 -182.604145 
L 241.923371 -184.837679 
L 241.7909 -187.071212 
L 241.726959 -189.304746 
L 241.735778 -191.53828 
L 241.820144 -193.771813 
L 241.981426 -196.005347 
L 242.219657 -198.238881 
L 242.533688 -200.472414 
L 242.921374 -202.705948 
L 243.379772 -204.939481 
L 243.905336 -207.173015 
L 244.494071 -209.406549 
L 245.141653 -211.640082 
L 245.843494 -213.873616 
L 246.594752 -216.10715 
L 247.390302 -218.340683 
L 248.224682 -220.574217 
L 249.092025 -222.807751 
L 249.986 -225.041284 
L 250.89979 -227.274818 
L 251.826098 -229.508352 
L 252.757218 -231.741885 
L 253.68515 -233.975419 
L 254.601767 -236.208953 
L 255.499018 -238.442486 
L 256.369157 -240.67602 
L 257.204976 -242.909553 
L 258.000022 -245.143087 
L 258.748796 -247.376621 
L 259.446895 -249.610154 
L 260.091117 -251.843688 
L 260.679496 -254.077222 
L 261.211293 -256.310755 
L 261.686924 -258.544289 
L 262.107854 -260.777823 
L 262.476444 -263.011356 
L 262.795789 -265.24489 
L 263.069537 -267.478424 
L 263.301707 -269.711957 
L 263.496521 -271.945491 
L 263.65825 -274.179024 
L 263.791084 -276.412558 
L 264.762774 -276.412558 
L 264.762774 -276.412558 
L 264.895608 -274.179024 
L 265.057337 -271.945491 
L 265.252151 -269.711957 
L 265.484321 -267.478424 
L 265.758069 -265.24489 
L 266.077414 -263.011356 
L 266.446004 -260.777823 
L 266.866934 -258.544289 
L 267.342565 -256.310755 
L 267.874362 -254.077222 
L 268.462741 -251.843688 
L 269.106963 -249.610154 
L 269.805062 -247.376621 
L 270.553836 -245.143087 
L 271.348882 -242.909553 
L 272.184701 -240.67602 
L 273.05484 -238.442486 
L 273.952091 -236.208953 
L 274.868708 -233.975419 
L 275.79664 -231.741885 
L 276.72776 -229.508352 
L 277.654068 -227.274818 
L 278.567858 -225.041284 
L 279.461834 -222.807751 
L 280.329176 -220.574217 
L 281.163556 -218.340683 
L 281.959107 -216.10715 
L 282.710364 -213.873616 
L 283.412205 -211.640082 
L 284.059788 -209.406549 
L 284.648522 -207.173015 
L 285.174086 -204.939481 
L 285.632484 -202.705948 
L 286.02017 -200.472414 
L 286.334201 -198.238881 
L 286.572432 -196.005347 
L 286.733714 -193.771813 
L 286.818081 -191.53828 
L 286.826899 -189.304746 
L 286.762958 -187.071212 
L 286.630487 -184.837679 
L 286.435084 -182.604145 
L 286.183572 -180.370611 
L 285.883768 -178.137078 
L 285.5442 -175.903544 
L 285.173788 -173.67001 
L 284.781503 -171.436477 
L 284.376043 -169.202943 
L 283.965532 -166.96941 
L 283.557278 -164.735876 
L 283.157579 -162.502342 
L 282.771599 -160.268809 
L 282.403304 -158.035275 
L 282.05545 -155.801741 
L 281.729618 -153.568208 
L 281.426274 -151.334674 
L 281.144853 -149.10114 
L 280.883846 -146.867607 
L 280.640891 -144.634073 
L 280.412857 -142.400539 
L 280.195932 -140.167006 
L 279.985704 -137.933472 
L 279.777264 -135.699938 
L 279.565307 -133.466405 
L 279.344271 -131.232871 
L 279.108487 -128.999338 
L 278.852368 -126.765804 
L 278.570606 -124.53227 
L 278.258397 -122.298737 
L 277.911656 -120.065203 
L 277.527234 -117.831669 
L 277.103098 -115.598136 
L 276.638477 -113.364602 
L 276.133956 -111.131068 
L 275.591506 -108.897535 
L 275.014445 -106.664001 
L 274.407346 -104.430467 
L 273.775865 -102.196934 
L 273.126536 -99.9634 
L 272.466516 -97.729867 
L 271.80331 -95.496333 
L 271.144488 -93.262799 
L 270.497417 -91.029266 
L 269.869001 -88.795732 
L 269.265474 -86.562198 
L 268.692218 -84.328665 
L 268.153649 -82.095131 
L 267.653134 -79.861597 
L 267.192975 -77.628064 
L 266.774431 -75.39453 
L 266.397776 -73.160996 
L 266.062401 -70.927463 
L 265.766929 -68.693929 
L 265.509351 -66.460395 
L 265.287169 -64.226862 
L 265.097534 -61.993328 
L 264.937381 -59.759795 
L 264.803554 -57.526261 
L 264.692906 -55.292727 
z
" style="stroke: #3f3f3f; stroke-width: 1.25"/>
    </defs>
    <g clip-path="url(#p25c06b6b73)">
     <use xlink:href="#m2c867c8c85" x="0" y="360" style="fill: #3274a1; stroke: #3f3f3f; stroke-width: 1.25"/>
    </g>
   </g>
   <g id="PolyCollection_4">
    <defs>
     <path id="m31ced377e3" d="M 329.346202 -56.621479 
L 328.684512 -56.621479 
L 328.591372 -59.301537 
L 328.477514 -61.981596 
L 328.339846 -64.661654 
L 328.175168 -67.341713 
L 327.980246 -70.021772 
L 327.7519 -72.70183 
L 327.487103 -75.381889 
L 327.183092 -78.061947 
L 326.83749 -80.742006 
L 326.448437 -83.422064 
L 326.014728 -86.102123 
L 325.535951 -88.782181 
L 325.012636 -91.46224 
L 324.446388 -94.142298 
L 323.84001 -96.822357 
L 323.197608 -99.502415 
L 322.524649 -102.182474 
L 321.827974 -104.862532 
L 321.115743 -107.542591 
L 320.397295 -110.222649 
L 319.68292 -112.902708 
L 318.983531 -115.582766 
L 318.310238 -118.262825 
L 317.673848 -120.942883 
L 317.084293 -123.622942 
L 316.550036 -126.303001 
L 316.07749 -128.983059 
L 315.670493 -131.663118 
L 315.329898 -134.343176 
L 315.053313 -137.023235 
L 314.835038 -139.703293 
L 314.666221 -142.383352 
L 314.535241 -145.06341 
L 314.428311 -147.743469 
L 314.330271 -150.423527 
L 314.225517 -153.103586 
L 314.099012 -155.783644 
L 313.937306 -158.463703 
L 313.729476 -161.143761 
L 313.467936 -163.82382 
L 313.149033 -166.503878 
L 312.773398 -169.183937 
L 312.346021 -171.863995 
L 311.876037 -174.544054 
L 311.376259 -177.224112 
L 310.862467 -179.904171 
L 310.352537 -182.58423 
L 309.865442 -185.264288 
L 309.420224 -187.944347 
L 309.034978 -190.624405 
L 308.725935 -193.304464 
L 308.506681 -195.984522 
L 308.387563 -198.664581 
L 308.37531 -201.344639 
L 308.472876 -204.024698 
L 308.6795 -206.704756 
L 308.990973 -209.384815 
L 309.400075 -212.064873 
L 309.897142 -214.744932 
L 310.470722 -217.42499 
L 311.10826 -220.105049 
L 311.796779 -222.785107 
L 312.52349 -225.465166 
L 313.276321 -228.145224 
L 314.044318 -230.825283 
L 314.817919 -233.505341 
L 315.589086 -236.1854 
L 316.351329 -238.865459 
L 317.099612 -241.545517 
L 317.830199 -244.225576 
L 318.540439 -246.905634 
L 319.228552 -249.585693 
L 319.8934 -252.265751 
L 320.534307 -254.94581 
L 321.150894 -257.625868 
L 321.742965 -260.305927 
L 322.310429 -262.985985 
L 322.853254 -265.666044 
L 323.371434 -268.346102 
L 323.86498 -271.026161 
L 324.333917 -273.706219 
L 324.778272 -276.386278 
L 325.198076 -279.066336 
L 325.593358 -281.746395 
L 325.964143 -284.426453 
L 326.310464 -287.106512 
L 326.632365 -289.78657 
L 326.929932 -292.466629 
L 327.203315 -295.146687 
L 327.452761 -297.826746 
L 327.678651 -300.506805 
L 327.881528 -303.186863 
L 328.062119 -305.866922 
L 328.221346 -308.54698 
L 328.360324 -311.227039 
L 328.480346 -313.907097 
L 328.582855 -316.587156 
L 328.669406 -319.267214 
L 328.741622 -321.947273 
L 329.289092 -321.947273 
L 329.289092 -321.947273 
L 329.361309 -319.267214 
L 329.447859 -316.587156 
L 329.550368 -313.907097 
L 329.67039 -311.227039 
L 329.809369 -308.54698 
L 329.968596 -305.866922 
L 330.149187 -303.186863 
L 330.352064 -300.506805 
L 330.577954 -297.826746 
L 330.8274 -295.146687 
L 331.100782 -292.466629 
L 331.398349 -289.78657 
L 331.720251 -287.106512 
L 332.066571 -284.426453 
L 332.437357 -281.746395 
L 332.832638 -279.066336 
L 333.252442 -276.386278 
L 333.696797 -273.706219 
L 334.165734 -271.026161 
L 334.659281 -268.346102 
L 335.17746 -265.666044 
L 335.720285 -262.985985 
L 336.28775 -260.305927 
L 336.879821 -257.625868 
L 337.496407 -254.94581 
L 338.137314 -252.265751 
L 338.802163 -249.585693 
L 339.490275 -246.905634 
L 340.200516 -244.225576 
L 340.931102 -241.545517 
L 341.679386 -238.865459 
L 342.441628 -236.1854 
L 343.212796 -233.505341 
L 343.986396 -230.825283 
L 344.754394 -228.145224 
L 345.507225 -225.465166 
L 346.233936 -222.785107 
L 346.922454 -220.105049 
L 347.559993 -217.42499 
L 348.133572 -214.744932 
L 348.630639 -212.064873 
L 349.039741 -209.384815 
L 349.351214 -206.704756 
L 349.557838 -204.024698 
L 349.655404 -201.344639 
L 349.643152 -198.664581 
L 349.524034 -195.984522 
L 349.304779 -193.304464 
L 348.995736 -190.624405 
L 348.610491 -187.944347 
L 348.165272 -185.264288 
L 347.678178 -182.58423 
L 347.168247 -179.904171 
L 346.654455 -177.224112 
L 346.154677 -174.544054 
L 345.684694 -171.863995 
L 345.257316 -169.183937 
L 344.881681 -166.503878 
L 344.562778 -163.82382 
L 344.301238 -161.143761 
L 344.093409 -158.463703 
L 343.931702 -155.783644 
L 343.805198 -153.103586 
L 343.700443 -150.423527 
L 343.602403 -147.743469 
L 343.495473 -145.06341 
L 343.364493 -142.383352 
L 343.195676 -139.703293 
L 342.977401 -137.023235 
L 342.700816 -134.343176 
L 342.360221 -131.663118 
L 341.953225 -128.983059 
L 341.480678 -126.303001 
L 340.946422 -123.622942 
L 340.356867 -120.942883 
L 339.720477 -118.262825 
L 339.047184 -115.582766 
L 338.347794 -112.902708 
L 337.633419 -110.222649 
L 336.914971 -107.542591 
L 336.20274 -104.862532 
L 335.506066 -102.182474 
L 334.833107 -99.502415 
L 334.190705 -96.822357 
L 333.584327 -94.142298 
L 333.018078 -91.46224 
L 332.494763 -88.782181 
L 332.015987 -86.102123 
L 331.582277 -83.422064 
L 331.193224 -80.742006 
L 330.847623 -78.061947 
L 330.543612 -75.381889 
L 330.278814 -72.70183 
L 330.050468 -70.021772 
L 329.855547 -67.341713 
L 329.690869 -64.661654 
L 329.553201 -61.981596 
L 329.439342 -59.301537 
L 329.346202 -56.621479 
z
" style="stroke: #3f3f3f; stroke-width: 1.25"/>
    </defs>
    <g clip-path="url(#p25c06b6b73)">
     <use xlink:href="#m31ced377e3" x="0" y="360" style="fill: #e1812c; stroke: #3f3f3f; stroke-width: 1.25"/>
    </g>
   </g>
   <g id="line2d_10">
    <path d="M 102.430859 242.684519 
L 102.430859 142.262805 
" clip-path="url(#p25c06b6b73)" style="fill: none; stroke: #3f3f3f; stroke-width: 1.875; stroke-linecap: round"/>
   </g>
   <g id="line2d_11">
    <path d="M 102.430859 200.842138 
L 102.430859 159.836605 
" clip-path="url(#p25c06b6b73)" style="fill: none; stroke: #3f3f3f; stroke-width: 5.625; stroke-linecap: round"/>
   </g>
   <g id="line2d_12">
    <path d="M 102.430859 175.73671 
" clip-path="url(#p25c06b6b73)" style="fill: none; stroke: #3f3f3f; stroke-width: 1.5; stroke-linecap: round"/>
    <defs>
     <path id="m8374a9ebc0" d="M 2.34375 0 
L -2.34375 -0 
" style="stroke: #ffffff; stroke-width: 1.125"/>
    </defs>
    <g clip-path="url(#p25c06b6b73)">
     <use xlink:href="#m8374a9ebc0" x="102.430859" y="175.73671" style="fill: #ffffff; stroke: #ffffff; stroke-width: 1.125"/>
    </g>
   </g>
   <g id="line2d_13">
    <path d="M 167.169287 215.905395 
L 167.169287 108.788901 
" clip-path="url(#p25c06b6b73)" style="fill: none; stroke: #3f3f3f; stroke-width: 1.875; stroke-linecap: round"/>
   </g>
   <g id="line2d_14">
    <path d="M 167.169287 187.452576 
L 167.169287 148.957586 
" clip-path="url(#p25c06b6b73)" style="fill: none; stroke: #3f3f3f; stroke-width: 5.625; stroke-linecap: round"/>
   </g>
   <g id="line2d_15">
    <path d="M 167.169287 158.999758 
" clip-path="url(#p25c06b6b73)" style="fill: none; stroke: #3f3f3f; stroke-width: 1.5; stroke-linecap: round"/>
    <g clip-path="url(#p25c06b6b73)">
     <use xlink:href="#m8374a9ebc0" x="167.169287" y="158.999758" style="fill: #ffffff; stroke: #ffffff; stroke-width: 1.125"/>
    </g>
   </g>
   <g id="line2d_16">
    <path d="M 264.276929 262.768861 
L 264.276929 125.525853 
" clip-path="url(#p25c06b6b73)" style="fill: none; stroke: #3f3f3f; stroke-width: 1.875; stroke-linecap: round"/>
   </g>
   <g id="line2d_17">
    <path d="M 264.276929 217.57909 
L 264.276929 164.020843 
" clip-path="url(#p25c06b6b73)" style="fill: none; stroke: #3f3f3f; stroke-width: 5.625; stroke-linecap: round"/>
   </g>
   <g id="line2d_18">
    <path d="M 264.276929 182.431491 
" clip-path="url(#p25c06b6b73)" style="fill: none; stroke: #3f3f3f; stroke-width: 1.5; stroke-linecap: round"/>
    <g clip-path="url(#p25c06b6b73)">
     <use xlink:href="#m8374a9ebc0" x="264.276929" y="182.431491" style="fill: #ffffff; stroke: #ffffff; stroke-width: 1.125"/>
    </g>
   </g>
   <g id="line2d_19">
    <path d="M 329.015357 256.074081 
L 329.015357 85.357168 
" clip-path="url(#p25c06b6b73)" style="fill: none; stroke: #3f3f3f; stroke-width: 1.875; stroke-linecap: round"/>
   </g>
   <g id="line2d_20">
    <path d="M 329.015357 213.394852 
L 329.015357 147.283891 
" clip-path="url(#p25c06b6b73)" style="fill: none; stroke: #3f3f3f; stroke-width: 5.625; stroke-linecap: round"/>
   </g>
   <g id="line2d_21">
    <path d="M 329.015357 170.715624 
" clip-path="url(#p25c06b6b73)" style="fill: none; stroke: #3f3f3f; stroke-width: 1.5; stroke-linecap: round"/>
    <g clip-path="url(#p25c06b6b73)">
     <use xlink:href="#m8374a9ebc0" x="329.015357" y="170.715624" style="fill: #ffffff; stroke: #ffffff; stroke-width: 1.125"/>
    </g>
   </g>
   <g id="patch_3">
    <path d="M 53.877038 318.04 
L 53.877038 24.72 
" style="fill: none; stroke: #cccccc; stroke-width: 0.8; stroke-linejoin: miter; stroke-linecap: square"/>
   </g>
   <g id="patch_4">
    <path d="M 53.877038 318.04 
L 377.569178 318.04 
" style="fill: none; stroke: #cccccc; stroke-width: 0.8; stroke-linejoin: miter; stroke-linecap: square"/>
   </g>
   <g id="text_14">
    <!-- sex = m -->
    <g style="fill: #262626" transform="translate(198.079358 18.72) scale(0.1 -0.1)">
     <defs>
      <path id="ArialMT-78" d="M 47 0 
L 1259 1725 
L 138 3319 
L 841 3319 
L 1350 2541 
Q 1494 2319 1581 2169 
Q 1719 2375 1834 2534 
L 2394 3319 
L 3066 3319 
L 1919 1756 
L 3153 0 
L 2463 0 
L 1781 1031 
L 1600 1309 
L 728 0 
L 47 0 
z
" transform="scale(0.015625)"/>
      <path id="ArialMT-3d" d="M 3381 2694 
L 356 2694 
L 356 3219 
L 3381 3219 
L 3381 2694 
z
M 3381 1303 
L 356 1303 
L 356 1828 
L 3381 1828 
L 3381 1303 
z
" transform="scale(0.015625)"/>
     </defs>
     <use xlink:href="#ArialMT-73"/>
     <use xlink:href="#ArialMT-65" x="50"/>
     <use xlink:href="#ArialMT-78" x="105.615234"/>
     <use xlink:href="#ArialMT-20" x="155.615234"/>
     <use xlink:href="#ArialMT-3d" x="183.398438"/>
     <use xlink:href="#ArialMT-20" x="241.796875"/>
     <use xlink:href="#ArialMT-6d" x="269.580078"/>
    </g>
   </g>
  </g>
  <g id="axes_2">
   <g id="patch_5">
    <path d="M 388.329359 318.04 
L 712.0215 318.04 
L 712.0215 24.72 
L 388.329359 24.72 
z
" style="fill: #ffffff"/>
   </g>
   <g id="matplotlib.axis_3">
    <g id="xtick_3">
     <g id="text_15">
      <!-- Control -->
      <g style="fill: #262626" transform="translate(453.135207 332.197812) scale(0.1 -0.1)">
       <use xlink:href="#ArialMT-43"/>
       <use xlink:href="#ArialMT-6f" x="72.216797"/>
       <use xlink:href="#ArialMT-6e" x="127.832031"/>
       <use xlink:href="#ArialMT-74" x="183.447266"/>
       <use xlink:href="#ArialMT-72" x="211.230469"/>
       <use xlink:href="#ArialMT-6f" x="244.53125"/>
       <use xlink:href="#ArialMT-6c" x="300.146484"/>
      </g>
     </g>
    </g>
    <g id="xtick_4">
     <g id="text_16">
      <!-- Test -->
      <g style="fill: #262626" transform="translate(621.931277 332.197812) scale(0.1 -0.1)">
       <use xlink:href="#ArialMT-54"/>
       <use xlink:href="#ArialMT-65" x="49.958984"/>
       <use xlink:href="#ArialMT-73" x="105.574219"/>
       <use xlink:href="#ArialMT-74" x="155.574219"/>
      </g>
     </g>
    </g>
    <g id="text_17">
     <!-- group -->
     <g style="fill: #262626" transform="translate(537.388711 345.225938) scale(0.1 -0.1)">
      <use xlink:href="#ArialMT-67"/>
      <use xlink:href="#ArialMT-72" x="55.615234"/>
      <use xlink:href="#ArialMT-6f" x="88.916016"/>
      <use xlink:href="#ArialMT-75" x="144.53125"/>
      <use xlink:href="#ArialMT-70" x="200.146484"/>
     </g>
    </g>
   </g>
   <g id="matplotlib.axis_4">
    <g id="ytick_10">
     <g id="line2d_22">
      <path d="M 388.329359 292.895375 
L 712.0215 292.895375 
" clip-path="url(#paa680991c4)" style="fill: none; stroke: #cccccc; stroke-width: 0.8; stroke-linecap: round"/>
     </g>
    </g>
    <g id="ytick_11">
     <g id="line2d_23">
      <path d="M 388.329359 259.421471 
L 712.0215 259.421471 
" clip-path="url(#paa680991c4)" style="fill: none; stroke: #cccccc; stroke-width: 0.8; stroke-linecap: round"/>
     </g>
    </g>
    <g id="ytick_12">
     <g id="line2d_24">
      <path d="M 388.329359 225.947567 
L 712.0215 225.947567 
" clip-path="url(#paa680991c4)" style="fill: none; stroke: #cccccc; stroke-width: 0.8; stroke-linecap: round"/>
     </g>
    </g>
    <g id="ytick_13">
     <g id="line2d_25">
      <path d="M 388.329359 192.473662 
L 712.0215 192.473662 
" clip-path="url(#paa680991c4)" style="fill: none; stroke: #cccccc; stroke-width: 0.8; stroke-linecap: round"/>
     </g>
    </g>
    <g id="ytick_14">
     <g id="line2d_26">
      <path d="M 388.329359 158.999758 
L 712.0215 158.999758 
" clip-path="url(#paa680991c4)" style="fill: none; stroke: #cccccc; stroke-width: 0.8; stroke-linecap: round"/>
     </g>
    </g>
    <g id="ytick_15">
     <g id="line2d_27">
      <path d="M 388.329359 125.525853 
L 712.0215 125.525853 
" clip-path="url(#paa680991c4)" style="fill: none; stroke: #cccccc; stroke-width: 0.8; stroke-linecap: round"/>
     </g>
    </g>
    <g id="ytick_16">
     <g id="line2d_28">
      <path d="M 388.329359 92.051949 
L 712.0215 92.051949 
" clip-path="url(#paa680991c4)" style="fill: none; stroke: #cccccc; stroke-width: 0.8; stroke-linecap: round"/>
     </g>
    </g>
    <g id="ytick_17">
     <g id="line2d_29">
      <path d="M 388.329359 58.578044 
L 712.0215 58.578044 
" clip-path="url(#paa680991c4)" style="fill: none; stroke: #cccccc; stroke-width: 0.8; stroke-linecap: round"/>
     </g>
    </g>
    <g id="ytick_18">
     <g id="line2d_30">
      <path d="M 388.329359 25.10414 
L 712.0215 25.10414 
" clip-path="url(#paa680991c4)" style="fill: none; stroke: #cccccc; stroke-width: 0.8; stroke-linecap: round"/>
     </g>
    </g>
   </g>
   <g id="PolyCollection_5">
    <defs>
     <path id="m98658bc5ec" d="M 437.589725 -120.550128 
L 436.176635 -120.550128 
L 436.01917 -121.786545 
L 435.83523 -123.022961 
L 435.622252 -124.259378 
L 435.377739 -125.495794 
L 435.099294 -126.732211 
L 434.784639 -127.968628 
L 434.431621 -129.205044 
L 434.038191 -130.441461 
L 433.602378 -131.677877 
L 433.122235 -132.914294 
L 432.595782 -134.15071 
L 432.020944 -135.387127 
L 431.395498 -136.623543 
L 430.717043 -137.85996 
L 429.983008 -139.096376 
L 429.190699 -140.332793 
L 428.337422 -141.56921 
L 427.420663 -142.805626 
L 426.438343 -144.042043 
L 425.389131 -145.278459 
L 424.272824 -146.514876 
L 423.090741 -147.751292 
L 421.846132 -148.987709 
L 420.54455 -150.224125 
L 419.194156 -151.460542 
L 417.805915 -152.696958 
L 416.393647 -153.933375 
L 414.973915 -155.169792 
L 413.565709 -156.406208 
L 412.189949 -157.642625 
L 410.868792 -158.879041 
L 409.62479 -160.115458 
L 408.479916 -161.351874 
L 407.454547 -162.588291 
L 406.566424 -163.824707 
L 405.8297 -165.061124 
L 405.254112 -166.29754 
L 404.844358 -167.533957 
L 404.59972 -168.770374 
L 404.513966 -170.00679 
L 404.575563 -171.243207 
L 404.768165 -172.479623 
L 405.071384 -173.71604 
L 405.461773 -174.952456 
L 405.913976 -176.188873 
L 406.401969 -177.425289 
L 406.900317 -178.661706 
L 407.385377 -179.898122 
L 407.836371 -181.134539 
L 408.236271 -182.370956 
L 408.572466 -183.607372 
L 408.837168 -184.843789 
L 409.027548 -186.080205 
L 409.145624 -187.316622 
L 409.197907 -188.553038 
L 409.19485 -189.789455 
L 409.150138 -191.025871 
L 409.079866 -192.262288 
L 409.001671 -193.498705 
L 408.933845 -194.735121 
L 408.894493 -195.971538 
L 408.900765 -197.207954 
L 408.968192 -198.444371 
L 409.110155 -199.680787 
L 409.337491 -200.917204 
L 409.658238 -202.15362 
L 410.077525 -203.390037 
L 410.597582 -204.626453 
L 411.217866 -205.86287 
L 411.935267 -207.099287 
L 412.744392 -208.335703 
L 413.637886 -209.57212 
L 414.606785 -210.808536 
L 415.640868 -212.044953 
L 416.729013 -213.281369 
L 417.859517 -214.517786 
L 419.02041 -215.754202 
L 420.199717 -216.990619 
L 421.385706 -218.227035 
L 422.567094 -219.463452 
L 423.733226 -220.699869 
L 424.874226 -221.936285 
L 425.981129 -223.172702 
L 427.045977 -224.409118 
L 428.061907 -225.645535 
L 429.023208 -226.881951 
L 429.925354 -228.118368 
L 430.765017 -229.354784 
L 431.540052 -230.591201 
L 432.249459 -231.827617 
L 432.89332 -233.064034 
L 433.47271 -234.300451 
L 433.989589 -235.536867 
L 434.446684 -236.773284 
L 434.847346 -238.0097 
L 435.195416 -239.246117 
L 435.495077 -240.482533 
L 435.750721 -241.71895 
L 435.966816 -242.955366 
L 437.799545 -242.955366 
L 437.799545 -242.955366 
L 438.01564 -241.71895 
L 438.271283 -240.482533 
L 438.570945 -239.246117 
L 438.919015 -238.0097 
L 439.319677 -236.773284 
L 439.776771 -235.536867 
L 440.293651 -234.300451 
L 440.87304 -233.064034 
L 441.516901 -231.827617 
L 442.226309 -230.591201 
L 443.001343 -229.354784 
L 443.841006 -228.118368 
L 444.743152 -226.881951 
L 445.704453 -225.645535 
L 446.720384 -224.409118 
L 447.785232 -223.172702 
L 448.892134 -221.936285 
L 450.033134 -220.699869 
L 451.199266 -219.463452 
L 452.380654 -218.227035 
L 453.566644 -216.990619 
L 454.745951 -215.754202 
L 455.906843 -214.517786 
L 457.037348 -213.281369 
L 458.125492 -212.044953 
L 459.159576 -210.808536 
L 460.128474 -209.57212 
L 461.021969 -208.335703 
L 461.831093 -207.099287 
L 462.548495 -205.86287 
L 463.168778 -204.626453 
L 463.688836 -203.390037 
L 464.108123 -202.15362 
L 464.42887 -200.917204 
L 464.656205 -199.680787 
L 464.798169 -198.444371 
L 464.865596 -197.207954 
L 464.871868 -195.971538 
L 464.832516 -194.735121 
L 464.76469 -193.498705 
L 464.686495 -192.262288 
L 464.616223 -191.025871 
L 464.57151 -189.789455 
L 464.568453 -188.553038 
L 464.620737 -187.316622 
L 464.738812 -186.080205 
L 464.929192 -184.843789 
L 465.193894 -183.607372 
L 465.53009 -182.370956 
L 465.92999 -181.134539 
L 466.380983 -179.898122 
L 466.866043 -178.661706 
L 467.364392 -177.425289 
L 467.852384 -176.188873 
L 468.304587 -174.952456 
L 468.694976 -173.71604 
L 468.998196 -172.479623 
L 469.190798 -171.243207 
L 469.252394 -170.00679 
L 469.166641 -168.770374 
L 468.922002 -167.533957 
L 468.512248 -166.29754 
L 467.936661 -165.061124 
L 467.199937 -163.824707 
L 466.311814 -162.588291 
L 465.286444 -161.351874 
L 464.141571 -160.115458 
L 462.897568 -158.879041 
L 461.576412 -157.642625 
L 460.200652 -156.406208 
L 458.792446 -155.169792 
L 457.372713 -153.933375 
L 455.960446 -152.696958 
L 454.572204 -151.460542 
L 453.22181 -150.224125 
L 451.920228 -148.987709 
L 450.67562 -147.751292 
L 449.493537 -146.514876 
L 448.37723 -145.278459 
L 447.328018 -144.042043 
L 446.345697 -142.805626 
L 445.428938 -141.56921 
L 444.575662 -140.332793 
L 443.783353 -139.096376 
L 443.049317 -137.85996 
L 442.370863 -136.623543 
L 441.745417 -135.387127 
L 441.170579 -134.15071 
L 440.644125 -132.914294 
L 440.163982 -131.677877 
L 439.728169 -130.441461 
L 439.33474 -129.205044 
L 438.981721 -127.968628 
L 438.667067 -126.732211 
L 438.388622 -125.495794 
L 438.144109 -124.259378 
L 437.931131 -123.022961 
L 437.747191 -121.786545 
L 437.589725 -120.550128 
z
" style="stroke: #3f3f3f; stroke-width: 1.25"/>
    </defs>
    <g clip-path="url(#paa680991c4)">
     <use xlink:href="#m98658bc5ec" x="0" y="360" style="fill: #3274a1; stroke: #3f3f3f; stroke-width: 1.25"/>
    </g>
   </g>
   <g id="PolyCollection_6">
    <defs>
     <path id="mc9f975a719" d="M 502.728452 -143.850948 
L 500.514765 -143.850948 
L 500.258658 -145.005479 
L 499.957337 -146.16001 
L 499.606198 -147.314542 
L 499.200876 -148.469073 
L 498.737397 -149.623604 
L 498.212338 -150.778135 
L 497.622975 -151.932666 
L 496.967428 -153.087198 
L 496.244779 -154.241729 
L 495.455165 -155.39626 
L 494.599845 -156.550791 
L 493.681229 -157.705322 
L 492.702879 -158.859854 
L 491.669475 -160.014385 
L 490.58676 -161.168916 
L 489.461462 -162.323447 
L 488.30121 -163.477978 
L 487.114433 -164.63251 
L 485.910271 -165.787041 
L 484.698479 -166.941572 
L 483.489336 -168.096103 
L 482.293548 -169.250634 
L 481.122148 -170.405166 
L 479.986368 -171.559697 
L 478.897491 -172.714228 
L 477.866653 -173.868759 
L 476.904607 -175.02329 
L 476.021432 -176.177822 
L 475.226188 -177.332353 
L 474.52654 -178.486884 
L 473.928349 -179.641415 
L 473.43527 -180.795946 
L 473.048372 -181.950478 
L 472.765822 -183.105009 
L 472.582667 -184.25954 
L 472.490739 -185.414071 
L 472.478721 -186.568602 
L 472.532383 -187.723134 
L 472.635012 -188.877665 
L 472.768012 -190.032196 
L 472.911672 -191.186727 
L 473.046069 -192.341258 
L 473.152056 -193.49579 
L 473.212287 -194.650321 
L 473.212223 -195.804852 
L 473.141039 -196.959383 
L 472.992393 -198.113914 
L 472.764986 -199.268446 
L 472.462864 -200.422977 
L 472.095451 -201.577508 
L 471.677273 -202.732039 
L 471.227396 -203.88657 
L 470.768594 -205.041102 
L 470.326291 -206.195633 
L 469.927331 -207.350164 
L 469.598654 -208.504695 
L 469.365955 -209.659226 
L 469.252394 -210.813758 
L 469.277456 -211.968289 
L 469.45601 -213.12282 
L 469.797631 -214.277351 
L 470.306224 -215.431882 
L 470.97995 -216.586414 
L 471.811471 -217.740945 
L 472.788473 -218.895476 
L 473.894422 -220.050007 
L 475.109509 -221.204538 
L 476.411696 -222.35907 
L 477.777814 -223.513601 
L 479.184619 -224.668132 
L 480.609765 -225.822663 
L 482.032629 -226.977194 
L 483.43495 -228.131726 
L 484.801274 -229.286257 
L 486.119184 -230.440788 
L 487.379335 -231.595319 
L 488.575316 -232.74985 
L 489.703373 -233.904382 
L 490.762031 -235.058913 
L 491.751652 -236.213444 
L 492.673981 -237.367975 
L 493.531703 -238.522506 
L 494.328047 -239.677038 
L 495.066454 -240.831569 
L 495.75032 -241.9861 
L 496.382826 -243.140631 
L 496.966834 -244.295162 
L 497.504856 -245.449694 
L 497.999076 -246.604225 
L 498.451407 -247.758756 
L 498.863571 -248.913287 
L 499.23719 -250.067818 
L 499.573866 -251.22235 
L 499.875253 -252.376881 
L 500.14311 -253.531412 
L 500.379329 -254.685943 
L 500.585941 -255.840474 
L 500.765107 -256.995006 
L 500.91909 -258.149537 
L 502.324127 -258.149537 
L 502.324127 -258.149537 
L 502.47811 -256.995006 
L 502.657276 -255.840474 
L 502.863888 -254.685943 
L 503.100106 -253.531412 
L 503.367964 -252.376881 
L 503.669351 -251.22235 
L 504.006027 -250.067818 
L 504.379646 -248.913287 
L 504.79181 -247.758756 
L 505.244141 -246.604225 
L 505.738361 -245.449694 
L 506.276383 -244.295162 
L 506.86039 -243.140631 
L 507.492897 -241.9861 
L 508.176763 -240.831569 
L 508.91517 -239.677038 
L 509.711514 -238.522506 
L 510.569236 -237.367975 
L 511.491565 -236.213444 
L 512.481186 -235.058913 
L 513.539843 -233.904382 
L 514.667901 -232.74985 
L 515.863882 -231.595319 
L 517.124033 -230.440788 
L 518.441943 -229.286257 
L 519.808267 -228.131726 
L 521.210588 -226.977194 
L 522.633452 -225.822663 
L 524.058598 -224.668132 
L 525.465403 -223.513601 
L 526.831521 -222.35907 
L 528.133708 -221.204538 
L 529.348795 -220.050007 
L 530.454744 -218.895476 
L 531.431746 -217.740945 
L 532.263267 -216.586414 
L 532.936993 -215.431882 
L 533.445586 -214.277351 
L 533.787207 -213.12282 
L 533.965761 -211.968289 
L 533.990823 -210.813758 
L 533.877262 -209.659226 
L 533.644562 -208.504695 
L 533.315886 -207.350164 
L 532.916926 -206.195633 
L 532.474623 -205.041102 
L 532.015821 -203.88657 
L 531.565944 -202.732039 
L 531.147766 -201.577508 
L 530.780353 -200.422977 
L 530.478231 -199.268446 
L 530.250823 -198.113914 
L 530.102178 -196.959383 
L 530.030994 -195.804852 
L 530.03093 -194.650321 
L 530.091161 -193.49579 
L 530.197148 -192.341258 
L 530.331545 -191.186727 
L 530.475205 -190.032196 
L 530.608204 -188.877665 
L 530.710834 -187.723134 
L 530.764496 -186.568602 
L 530.752477 -185.414071 
L 530.660549 -184.25954 
L 530.477395 -183.105009 
L 530.194845 -181.950478 
L 529.807947 -180.795946 
L 529.314868 -179.641415 
L 528.716677 -178.486884 
L 528.017029 -177.332353 
L 527.221785 -176.177822 
L 526.338609 -175.02329 
L 525.376564 -173.868759 
L 524.345726 -172.714228 
L 523.256848 -171.559697 
L 522.121069 -170.405166 
L 520.949669 -169.250634 
L 519.753881 -168.096103 
L 518.544738 -166.941572 
L 517.332946 -165.787041 
L 516.128784 -164.63251 
L 514.942007 -163.477978 
L 513.781754 -162.323447 
L 512.656457 -161.168916 
L 511.573742 -160.014385 
L 510.540338 -158.859854 
L 509.561988 -157.705322 
L 508.643372 -156.550791 
L 507.788052 -155.39626 
L 506.998438 -154.241729 
L 506.275788 -153.087198 
L 505.620242 -151.932666 
L 505.030879 -150.778135 
L 504.50582 -149.623604 
L 504.042341 -148.469073 
L 503.637018 -147.314542 
L 503.285879 -146.16001 
L 502.984558 -145.005479 
L 502.728452 -143.850948 
z
" style="stroke: #3f3f3f; stroke-width: 1.25"/>
    </defs>
    <g clip-path="url(#paa680991c4)">
     <use xlink:href="#mc9f975a719" x="0" y="360" style="fill: #e1812c; stroke: #3f3f3f; stroke-width: 1.25"/>
    </g>
   </g>
   <g id="PolyCollection_7">
    <defs>
     <path id="m2161d55495" d="M 599.282725 -76.310197 
L 598.175777 -76.310197 
L 598.031495 -78.69394 
L 597.858404 -81.077683 
L 597.653093 -83.461426 
L 597.412286 -85.845168 
L 597.132959 -88.228911 
L 596.812469 -90.612654 
L 596.448669 -92.996396 
L 596.040019 -95.380139 
L 595.585668 -97.763882 
L 595.085512 -100.147625 
L 594.540218 -102.531367 
L 593.951226 -104.91511 
L 593.320713 -107.298853 
L 592.651537 -109.682595 
L 591.947166 -112.066338 
L 591.211609 -114.450081 
L 590.449338 -116.833823 
L 589.66524 -119.217566 
L 588.864578 -121.601309 
L 588.052981 -123.985052 
L 587.236449 -126.368794 
L 586.421377 -128.752537 
L 585.614566 -131.13628 
L 584.823234 -133.520022 
L 584.054982 -135.903765 
L 583.317719 -138.287508 
L 582.619529 -140.671251 
L 581.968466 -143.054993 
L 581.372299 -145.438736 
L 580.838191 -147.822479 
L 580.372362 -150.206221 
L 579.979731 -152.589964 
L 579.6636 -154.973707 
L 579.425383 -157.35745 
L 579.264443 -159.741192 
L 579.178037 -162.124935 
L 579.161404 -164.508678 
L 579.207992 -166.89242 
L 579.30983 -169.276163 
L 579.458009 -171.659906 
L 579.643252 -174.043648 
L 579.856527 -176.427391 
L 580.089653 -178.811134 
L 580.335856 -181.194877 
L 580.590215 -183.578619 
L 580.849973 -185.962362 
L 581.114673 -188.346105 
L 581.386111 -190.729847 
L 581.668103 -193.11359 
L 581.966085 -195.497333 
L 582.286577 -197.881076 
L 582.636552 -200.264818 
L 583.022761 -202.648561 
L 583.451072 -205.032304 
L 583.92586 -207.416046 
L 584.449523 -209.799789 
L 585.022127 -212.183532 
L 585.641233 -214.567275 
L 586.301898 -216.951017 
L 586.996855 -219.33476 
L 587.716857 -221.718503 
L 588.451148 -224.102245 
L 589.188028 -226.485988 
L 589.915479 -228.869731 
L 590.621789 -231.253473 
L 591.296152 -233.637216 
L 591.929194 -236.020959 
L 592.513391 -238.404702 
L 593.043374 -240.788444 
L 593.516091 -243.172187 
L 593.930827 -245.55593 
L 594.289097 -247.939672 
L 594.594417 -250.323415 
L 594.851975 -252.707158 
L 595.068234 -255.090901 
L 595.25049 -257.474643 
L 595.406418 -259.858386 
L 595.543631 -262.242129 
L 595.669282 -264.625871 
L 595.789733 -267.009614 
L 595.910295 -269.393357 
L 596.035058 -271.777099 
L 596.166819 -274.160842 
L 596.307081 -276.544585 
L 596.45615 -278.928328 
L 596.613276 -281.31207 
L 596.776858 -283.695813 
L 596.944662 -286.079556 
L 597.114061 -288.463298 
L 597.282264 -290.847041 
L 597.446515 -293.230784 
L 597.604275 -295.614527 
L 597.75335 -297.998269 
L 597.891981 -300.382012 
L 598.018897 -302.765755 
L 598.133319 -305.149497 
L 598.234936 -307.53324 
L 598.32386 -309.916983 
L 598.40056 -312.300726 
L 599.057942 -312.300726 
L 599.057942 -312.300726 
L 599.134641 -309.916983 
L 599.223566 -307.53324 
L 599.325183 -305.149497 
L 599.439604 -302.765755 
L 599.56652 -300.382012 
L 599.705152 -297.998269 
L 599.854226 -295.614527 
L 600.011986 -293.230784 
L 600.176238 -290.847041 
L 600.34444 -288.463298 
L 600.51384 -286.079556 
L 600.681644 -283.695813 
L 600.845225 -281.31207 
L 601.002352 -278.928328 
L 601.15142 -276.544585 
L 601.291683 -274.160842 
L 601.423443 -271.777099 
L 601.548207 -269.393357 
L 601.668768 -267.009614 
L 601.789219 -264.625871 
L 601.914871 -262.242129 
L 602.052083 -259.858386 
L 602.208011 -257.474643 
L 602.390267 -255.090901 
L 602.606527 -252.707158 
L 602.864085 -250.323415 
L 603.169405 -247.939672 
L 603.527675 -245.55593 
L 603.94241 -243.172187 
L 604.415127 -240.788444 
L 604.94511 -238.404702 
L 605.529308 -236.020959 
L 606.162349 -233.637216 
L 606.836713 -231.253473 
L 607.543023 -228.869731 
L 608.270473 -226.485988 
L 609.007354 -224.102245 
L 609.741644 -221.718503 
L 610.461646 -219.33476 
L 611.156604 -216.951017 
L 611.817268 -214.567275 
L 612.436374 -212.183532 
L 613.008979 -209.799789 
L 613.532641 -207.416046 
L 614.00743 -205.032304 
L 614.43574 -202.648561 
L 614.82195 -200.264818 
L 615.171925 -197.881076 
L 615.492417 -195.497333 
L 615.790398 -193.11359 
L 616.07239 -190.729847 
L 616.343828 -188.346105 
L 616.608528 -185.962362 
L 616.868286 -183.578619 
L 617.122645 -181.194877 
L 617.368848 -178.811134 
L 617.601975 -176.427391 
L 617.815249 -174.043648 
L 618.000492 -171.659906 
L 618.148671 -169.276163 
L 618.250509 -166.89242 
L 618.297098 -164.508678 
L 618.280464 -162.124935 
L 618.194058 -159.741192 
L 618.033119 -157.35745 
L 617.794902 -154.973707 
L 617.47877 -152.589964 
L 617.08614 -150.206221 
L 616.62031 -147.822479 
L 616.086203 -145.438736 
L 615.490035 -143.054993 
L 614.838973 -140.671251 
L 614.140782 -138.287508 
L 613.403519 -135.903765 
L 612.635267 -133.520022 
L 611.843935 -131.13628 
L 611.037124 -128.752537 
L 610.222052 -126.368794 
L 609.405521 -123.985052 
L 608.593924 -121.601309 
L 607.793262 -119.217566 
L 607.009163 -116.833823 
L 606.246893 -114.450081 
L 605.511335 -112.066338 
L 604.806965 -109.682595 
L 604.137788 -107.298853 
L 603.507275 -104.91511 
L 602.918284 -102.531367 
L 602.37299 -100.147625 
L 601.872833 -97.763882 
L 601.418482 -95.380139 
L 601.009833 -92.996396 
L 600.646033 -90.612654 
L 600.325542 -88.228911 
L 600.046215 -85.845168 
L 599.805408 -83.461426 
L 599.600098 -81.077683 
L 599.427006 -78.69394 
L 599.282725 -76.310197 
z
" style="stroke: #3f3f3f; stroke-width: 1.25"/>
    </defs>
    <g clip-path="url(#paa680991c4)">
     <use xlink:href="#m2161d55495" x="0" y="360" style="fill: #3274a1; stroke: #3f3f3f; stroke-width: 1.25"/>
    </g>
   </g>
   <g id="PolyCollection_8">
    <defs>
     <path id="md499f78b23" d="M 664.040581 -89.267803 
L 662.894777 -89.267803 
L 662.740134 -91.525024 
L 662.552897 -93.782245 
L 662.32868 -96.039466 
L 662.063087 -98.296687 
L 661.751842 -100.553908 
L 661.390943 -102.811129 
L 660.976812 -105.06835 
L 660.506464 -107.325571 
L 659.977657 -109.582792 
L 659.389048 -111.840013 
L 658.740324 -114.097234 
L 658.032328 -116.354455 
L 657.267151 -118.611676 
L 656.448211 -120.868897 
L 655.580299 -123.126118 
L 654.669599 -125.383339 
L 653.723671 -127.64056 
L 652.751399 -129.897781 
L 651.762897 -132.155002 
L 650.769355 -134.412223 
L 649.782844 -136.669444 
L 648.816047 -138.926665 
L 647.88194 -141.183886 
L 646.993417 -143.441107 
L 646.162867 -145.698328 
L 645.401725 -147.955549 
L 644.720026 -150.21277 
L 644.125976 -152.469991 
L 643.625585 -154.727212 
L 643.222389 -156.984433 
L 642.917288 -159.241654 
L 642.708519 -161.498875 
L 642.591789 -163.756096 
L 642.56055 -166.013317 
L 642.606416 -168.270538 
L 642.719691 -170.527759 
L 642.889975 -172.78498 
L 643.106805 -175.042201 
L 643.360286 -177.299422 
L 643.641653 -179.556643 
L 643.943747 -181.813864 
L 644.261349 -184.071085 
L 644.591359 -186.328306 
L 644.932813 -188.585527 
L 645.286747 -190.842748 
L 645.655901 -193.099969 
L 646.044321 -195.35719 
L 646.456869 -197.614411 
L 646.898685 -199.871632 
L 647.374642 -202.128853 
L 647.888835 -204.386074 
L 648.444122 -206.643295 
L 649.041766 -208.900516 
L 649.681172 -211.157737 
L 650.359759 -213.414958 
L 651.072946 -215.672179 
L 651.814267 -217.9294 
L 652.575594 -220.186621 
L 653.347458 -222.443842 
L 654.119444 -224.701063 
L 654.880642 -226.958284 
L 655.620124 -229.215505 
L 656.327417 -231.472726 
L 656.992961 -233.729947 
L 657.608514 -235.987168 
L 658.167491 -238.244389 
L 658.665217 -240.50161 
L 659.099096 -242.758831 
L 659.46866 -245.016052 
L 659.775538 -247.273273 
L 660.023307 -249.530494 
L 660.217269 -251.787715 
L 660.364146 -254.044936 
L 660.471719 -256.302157 
L 660.54843 -258.559378 
L 660.602969 -260.816599 
L 660.643867 -263.07382 
L 660.679119 -265.331041 
L 660.715852 -267.588262 
L 660.760067 -269.845483 
L 660.816445 -272.102704 
L 660.888242 -274.359925 
L 660.977275 -276.617146 
L 661.083978 -278.874367 
L 661.207535 -281.131588 
L 661.34607 -283.388809 
L 661.496875 -285.64603 
L 661.656668 -287.90325 
L 661.821847 -290.160471 
L 661.988734 -292.417692 
L 662.153796 -294.674913 
L 662.313825 -296.932134 
L 662.466067 -299.189355 
L 662.60832 -301.446576 
L 662.738967 -303.703797 
L 662.856978 -305.961018 
L 662.961876 -308.218239 
L 663.053674 -310.47546 
L 663.132795 -312.732681 
L 663.802562 -312.732681 
L 663.802562 -312.732681 
L 663.881683 -310.47546 
L 663.973482 -308.218239 
L 664.07838 -305.961018 
L 664.196391 -303.703797 
L 664.327037 -301.446576 
L 664.46929 -299.189355 
L 664.621533 -296.932134 
L 664.781561 -294.674913 
L 664.946624 -292.417692 
L 665.113511 -290.160471 
L 665.27869 -287.90325 
L 665.438483 -285.64603 
L 665.589288 -283.388809 
L 665.727822 -281.131588 
L 665.851379 -278.874367 
L 665.958082 -276.617146 
L 666.047116 -274.359925 
L 666.118913 -272.102704 
L 666.17529 -269.845483 
L 666.219506 -267.588262 
L 666.256239 -265.331041 
L 666.29149 -263.07382 
L 666.332388 -260.816599 
L 666.386927 -258.559378 
L 666.463639 -256.302157 
L 666.571212 -254.044936 
L 666.718089 -251.787715 
L 666.912051 -249.530494 
L 667.15982 -247.273273 
L 667.466697 -245.016052 
L 667.836262 -242.758831 
L 668.27014 -240.50161 
L 668.767867 -238.244389 
L 669.326844 -235.987168 
L 669.942397 -233.729947 
L 670.607941 -231.472726 
L 671.315234 -229.215505 
L 672.054716 -226.958284 
L 672.815914 -224.701063 
L 673.5879 -222.443842 
L 674.359764 -220.186621 
L 675.121091 -217.9294 
L 675.862412 -215.672179 
L 676.575599 -213.414958 
L 677.254186 -211.157737 
L 677.893592 -208.900516 
L 678.491235 -206.643295 
L 679.046523 -204.386074 
L 679.560716 -202.128853 
L 680.036673 -199.871632 
L 680.478489 -197.614411 
L 680.891037 -195.35719 
L 681.279457 -193.099969 
L 681.648611 -190.842748 
L 682.002545 -188.585527 
L 682.343999 -186.328306 
L 682.674008 -184.071085 
L 682.99161 -181.813864 
L 683.293705 -179.556643 
L 683.575072 -177.299422 
L 683.828552 -175.042201 
L 684.045383 -172.78498 
L 684.215667 -170.527759 
L 684.328941 -168.270538 
L 684.374807 -166.013317 
L 684.343569 -163.756096 
L 684.226839 -161.498875 
L 684.01807 -159.241654 
L 683.712968 -156.984433 
L 683.309773 -154.727212 
L 682.809382 -152.469991 
L 682.215332 -150.21277 
L 681.533633 -147.955549 
L 680.772491 -145.698328 
L 679.94194 -143.441107 
L 679.053417 -141.183886 
L 678.119311 -138.926665 
L 677.152514 -136.669444 
L 676.166002 -134.412223 
L 675.172461 -132.155002 
L 674.183959 -129.897781 
L 673.211687 -127.64056 
L 672.265759 -125.383339 
L 671.355058 -123.126118 
L 670.487147 -120.868897 
L 669.668207 -118.611676 
L 668.90303 -116.354455 
L 668.195034 -114.097234 
L 667.54631 -111.840013 
L 666.9577 -109.582792 
L 666.428893 -107.325571 
L 665.958545 -105.06835 
L 665.544415 -102.811129 
L 665.183516 -100.553908 
L 664.872271 -98.296687 
L 664.606677 -96.039466 
L 664.38246 -93.782245 
L 664.195223 -91.525024 
L 664.040581 -89.267803 
z
" style="stroke: #3f3f3f; stroke-width: 1.25"/>
    </defs>
    <g clip-path="url(#paa680991c4)">
     <use xlink:href="#md499f78b23" x="0" y="360" style="fill: #e1812c; stroke: #3f3f3f; stroke-width: 1.25"/>
    </g>
   </g>
   <g id="patch_6">
    <path d="M 469.252394 460.264898 
L 469.252394 460.264898 
L 469.252394 460.264898 
L 469.252394 460.264898 
z
" clip-path="url(#paa680991c4)" style="fill: #3274a1; stroke: #3f3f3f; stroke-width: 1.25; stroke-linejoin: miter"/>
   </g>
   <g id="patch_7">
    <path d="M 469.252394 460.264898 
L 469.252394 460.264898 
L 469.252394 460.264898 
L 469.252394 460.264898 
z
" clip-path="url(#paa680991c4)" style="fill: #e1812c; stroke: #3f3f3f; stroke-width: 1.25; stroke-linejoin: miter"/>
   </g>
   <g id="line2d_31">
    <path d="M 436.88318 214.2317 
L 436.88318 142.262805 
" clip-path="url(#paa680991c4)" style="fill: none; stroke: #3f3f3f; stroke-width: 1.875; stroke-linecap: round"/>
   </g>
   <g id="line2d_32">
    <path d="M 436.88318 192.473662 
L 436.88318 158.999758 
" clip-path="url(#paa680991c4)" style="fill: none; stroke: #3f3f3f; stroke-width: 5.625; stroke-linecap: round"/>
   </g>
   <g id="line2d_33">
    <path d="M 436.88318 180.757796 
" clip-path="url(#paa680991c4)" style="fill: none; stroke: #3f3f3f; stroke-width: 1.5; stroke-linecap: round"/>
    <g clip-path="url(#paa680991c4)">
     <use xlink:href="#m8374a9ebc0" x="436.88318" y="180.757796" style="fill: #ffffff; stroke: #ffffff; stroke-width: 1.125"/>
    </g>
   </g>
   <g id="line2d_34">
    <path d="M 501.621608 192.473662 
L 501.621608 125.525853 
" clip-path="url(#paa680991c4)" style="fill: none; stroke: #3f3f3f; stroke-width: 1.875; stroke-linecap: round"/>
   </g>
   <g id="line2d_35">
    <path d="M 501.621608 175.73671 
L 501.621608 145.610196 
" clip-path="url(#paa680991c4)" style="fill: none; stroke: #3f3f3f; stroke-width: 5.625; stroke-linecap: round"/>
   </g>
   <g id="line2d_36">
    <path d="M 501.621608 158.999758 
" clip-path="url(#paa680991c4)" style="fill: none; stroke: #3f3f3f; stroke-width: 1.5; stroke-linecap: round"/>
    <g clip-path="url(#paa680991c4)">
     <use xlink:href="#m8374a9ebc0" x="501.621608" y="158.999758" style="fill: #ffffff; stroke: #ffffff; stroke-width: 1.125"/>
    </g>
   </g>
   <g id="line2d_37">
    <path d="M 598.729251 239.337128 
L 598.729251 92.051949 
" clip-path="url(#paa680991c4)" style="fill: none; stroke: #3f3f3f; stroke-width: 1.875; stroke-linecap: round"/>
   </g>
   <g id="line2d_38">
    <path d="M 598.729251 206.700071 
L 598.729251 154.81552 
" clip-path="url(#paa680991c4)" style="fill: none; stroke: #3f3f3f; stroke-width: 5.625; stroke-linecap: round"/>
   </g>
   <g id="line2d_39">
    <path d="M 598.729251 190.799967 
" clip-path="url(#paa680991c4)" style="fill: none; stroke: #3f3f3f; stroke-width: 1.5; stroke-linecap: round"/>
    <g clip-path="url(#paa680991c4)">
     <use xlink:href="#m8374a9ebc0" x="598.729251" y="190.799967" style="fill: #ffffff; stroke: #ffffff; stroke-width: 1.125"/>
    </g>
   </g>
   <g id="line2d_40">
    <path d="M 663.467679 229.294957 
L 663.467679 142.262805 
" clip-path="url(#paa680991c4)" style="fill: none; stroke: #3f3f3f; stroke-width: 1.875; stroke-linecap: round"/>
   </g>
   <g id="line2d_41">
    <path d="M 663.467679 203.352681 
L 663.467679 158.16291 
" clip-path="url(#paa680991c4)" style="fill: none; stroke: #3f3f3f; stroke-width: 5.625; stroke-linecap: round"/>
   </g>
   <g id="line2d_42">
    <path d="M 663.467679 187.452576 
" clip-path="url(#paa680991c4)" style="fill: none; stroke: #3f3f3f; stroke-width: 1.5; stroke-linecap: round"/>
    <g clip-path="url(#paa680991c4)">
     <use xlink:href="#m8374a9ebc0" x="663.467679" y="187.452576" style="fill: #ffffff; stroke: #ffffff; stroke-width: 1.125"/>
    </g>
   </g>
   <g id="patch_8">
    <path d="M 388.329359 318.04 
L 388.329359 24.72 
" style="fill: none; stroke: #cccccc; stroke-width: 0.8; stroke-linejoin: miter; stroke-linecap: square"/>
   </g>
   <g id="patch_9">
    <path d="M 388.329359 318.04 
L 712.0215 318.04 
" style="fill: none; stroke: #cccccc; stroke-width: 0.8; stroke-linejoin: miter; stroke-linecap: square"/>
   </g>
   <g id="text_18">
    <!-- sex = f -->
    <g style="fill: #262626" transform="translate(535.307461 18.72) scale(0.1 -0.1)">
     <defs>
      <path id="ArialMT-66" d="M 556 0 
L 556 2881 
L 59 2881 
L 59 3319 
L 556 3319 
L 556 3672 
Q 556 4006 616 4169 
Q 697 4388 901 4523 
Q 1106 4659 1475 4659 
Q 1713 4659 2000 4603 
L 1916 4113 
Q 1741 4144 1584 4144 
Q 1328 4144 1222 4034 
Q 1116 3925 1116 3625 
L 1116 3319 
L 1763 3319 
L 1763 2881 
L 1116 2881 
L 1116 0 
L 556 0 
z
" transform="scale(0.015625)"/>
     </defs>
     <use xlink:href="#ArialMT-73"/>
     <use xlink:href="#ArialMT-65" x="50"/>
     <use xlink:href="#ArialMT-78" x="105.615234"/>
     <use xlink:href="#ArialMT-20" x="155.615234"/>
     <use xlink:href="#ArialMT-3d" x="183.398438"/>
     <use xlink:href="#ArialMT-20" x="241.796875"/>
     <use xlink:href="#ArialMT-66" x="269.580078"/>
    </g>
   </g>
  </g>
  <g id="legend_1">
   <g id="text_19">
    <!-- time -->
    <g style="fill: #262626" transform="translate(744.563281 168.439844) scale(0.1 -0.1)">
     <use xlink:href="#ArialMT-74"/>
     <use xlink:href="#ArialMT-69" x="27.783203"/>
     <use xlink:href="#ArialMT-6d" x="50"/>
     <use xlink:href="#ArialMT-65" x="133.300781"/>
    </g>
   </g>
   <g id="patch_10">
    <path d="M 719.167187 182.585156 
L 739.167187 182.585156 
L 739.167187 175.585156 
L 719.167187 175.585156 
z
" style="fill: #3274a1; stroke: #3f3f3f; stroke-width: 1.25; stroke-linejoin: miter"/>
   </g>
   <g id="text_20">
    <!-- initial test -->
    <g style="fill: #262626" transform="translate(747.167187 182.585156) scale(0.1 -0.1)">
     <use xlink:href="#ArialMT-69"/>
     <use xlink:href="#ArialMT-6e" x="22.216797"/>
     <use xlink:href="#ArialMT-69" x="77.832031"/>
     <use xlink:href="#ArialMT-74" x="100.048828"/>
     <use xlink:href="#ArialMT-69" x="127.832031"/>
     <use xlink:href="#ArialMT-61" x="150.048828"/>
     <use xlink:href="#ArialMT-6c" x="205.664062"/>
     <use xlink:href="#ArialMT-20" x="227.880859"/>
     <use xlink:href="#ArialMT-74" x="255.664062"/>
     <use xlink:href="#ArialMT-65" x="283.447266"/>
     <use xlink:href="#ArialMT-73" x="339.0625"/>
     <use xlink:href="#ArialMT-74" x="389.0625"/>
    </g>
   </g>
   <g id="patch_11">
    <path d="M 719.167187 196.730469 
L 739.167187 196.730469 
L 739.167187 189.730469 
L 719.167187 189.730469 
z
" style="fill: #e1812c; stroke: #3f3f3f; stroke-width: 1.25; stroke-linejoin: miter"/>
   </g>
   <g id="text_21">
    <!-- final test -->
    <g style="fill: #262626" transform="translate(747.167187 196.730469) scale(0.1 -0.1)">
     <use xlink:href="#ArialMT-66"/>
     <use xlink:href="#ArialMT-69" x="27.783203"/>
     <use xlink:href="#ArialMT-6e" x="50"/>
     <use xlink:href="#ArialMT-61" x="105.615234"/>
     <use xlink:href="#ArialMT-6c" x="161.230469"/>
     <use xlink:href="#ArialMT-20" x="183.447266"/>
     <use xlink:href="#ArialMT-74" x="211.230469"/>
     <use xlink:href="#ArialMT-65" x="239.013672"/>
     <use xlink:href="#ArialMT-73" x="294.628906"/>
     <use xlink:href="#ArialMT-74" x="344.628906"/>
    </g>
   </g>
  </g>
 </g>
 <defs>
  <clipPath id="p25c06b6b73">
   <rect x="53.877038" y="24.72" width="323.692141" height="293.32"/>
  </clipPath>
  <clipPath id="paa680991c4">
   <rect x="388.329359" y="24.72" width="323.692141" height="293.32"/>
  </clipPath>
 </defs>
</svg>
