<?xml version="1.0" encoding="utf-8" standalone="no"?>
<!DOCTYPE svg PUBLIC "-//W3C//DTD SVG 1.1//EN"
  "http://www.w3.org/Graphics/SVG/1.1/DTD/svg11.dtd">
<svg xmlns:xlink="http://www.w3.org/1999/xlink" width="797.85pt" height="360pt" viewBox="0 0 797.85 360" xmlns="http://www.w3.org/2000/svg" version="1.1">
 <metadata>
  <rdf:RDF xmlns:dc="http://purl.org/dc/elements/1.1/" xmlns:cc="http://creativecommons.org/ns#" xmlns:rdf="http://www.w3.org/1999/02/22-rdf-syntax-ns#">
   <cc:Work>
    <dc:type rdf:resource="http://purl.org/dc/dcmitype/StillImage"/>
    <dc:date>2024-09-11T05:52:13.928644</dc:date>
    <dc:format>image/svg+xml</dc:format>
    <dc:creator>
     <cc:Agent>
      <dc:title>Matplotlib v3.8.3, https://matplotlib.org/</dc:title>
     </cc:Agent>
    </dc:creator>
   </cc:Work>
  </rdf:RDF>
 </metadata>
 <defs>
  <style type="text/css">*{stroke-linejoin: round; stroke-linecap: butt}</style>
 </defs>
 <g id="figure_1">
  <g id="patch_1">
   <path d="M 0 360 
L 797.85 360 
L 797.85 0 
L 0 0 
z
" style="fill: #ffffff"/>
  </g>
  <g id="axes_1">
   <g id="patch_2">
    <path d="M 47.6937 318.04 
L 374.472452 318.04 
L 374.472452 24.72 
L 47.6937 24.72 
z
" style="fill: #ffffff"/>
   </g>
   <g id="matplotlib.axis_1">
    <g id="xtick_1">
     <g id="text_1">
      <!-- Control -->
      <g style="fill: #262626" transform="translate(113.271201 332.197812) scale(0.1 -0.1)">
       <defs>
        <path id="ArialMT-43" d="M 3763 1606 
L 4369 1453 
Q 4178 706 3683 314 
Q 3188 -78 2472 -78 
Q 1731 -78 1267 223 
Q 803 525 561 1097 
Q 319 1669 319 2325 
Q 319 3041 592 3573 
Q 866 4106 1370 4382 
Q 1875 4659 2481 4659 
Q 3169 4659 3637 4309 
Q 4106 3959 4291 3325 
L 3694 3184 
Q 3534 3684 3231 3912 
Q 2928 4141 2469 4141 
Q 1941 4141 1586 3887 
Q 1231 3634 1087 3207 
Q 944 2781 944 2328 
Q 944 1744 1114 1308 
Q 1284 872 1643 656 
Q 2003 441 2422 441 
Q 2931 441 3284 734 
Q 3638 1028 3763 1606 
z
" transform="scale(0.015625)"/>
        <path id="ArialMT-6f" d="M 213 1659 
Q 213 2581 725 3025 
Q 1153 3394 1769 3394 
Q 2453 3394 2887 2945 
Q 3322 2497 3322 1706 
Q 3322 1066 3130 698 
Q 2938 331 2570 128 
Q 2203 -75 1769 -75 
Q 1072 -75 642 372 
Q 213 819 213 1659 
z
M 791 1659 
Q 791 1022 1069 705 
Q 1347 388 1769 388 
Q 2188 388 2466 706 
Q 2744 1025 2744 1678 
Q 2744 2294 2464 2611 
Q 2184 2928 1769 2928 
Q 1347 2928 1069 2612 
Q 791 2297 791 1659 
z
" transform="scale(0.015625)"/>
        <path id="ArialMT-6e" d="M 422 0 
L 422 3319 
L 928 3319 
L 928 2847 
Q 1294 3394 1984 3394 
Q 2284 3394 2536 3286 
Q 2788 3178 2913 3003 
Q 3038 2828 3088 2588 
Q 3119 2431 3119 2041 
L 3119 0 
L 2556 0 
L 2556 2019 
Q 2556 2363 2490 2533 
Q 2425 2703 2258 2804 
Q 2091 2906 1866 2906 
Q 1506 2906 1245 2678 
Q 984 2450 984 1813 
L 984 0 
L 422 0 
z
" transform="scale(0.015625)"/>
        <path id="ArialMT-74" d="M 1650 503 
L 1731 6 
Q 1494 -44 1306 -44 
Q 1000 -44 831 53 
Q 663 150 594 308 
Q 525 466 525 972 
L 525 2881 
L 113 2881 
L 113 3319 
L 525 3319 
L 525 4141 
L 1084 4478 
L 1084 3319 
L 1650 3319 
L 1650 2881 
L 1084 2881 
L 1084 941 
Q 1084 700 1114 631 
Q 1144 563 1211 522 
Q 1278 481 1403 481 
Q 1497 481 1650 503 
z
" transform="scale(0.015625)"/>
        <path id="ArialMT-72" d="M 416 0 
L 416 3319 
L 922 3319 
L 922 2816 
Q 1116 3169 1280 3281 
Q 1444 3394 1641 3394 
Q 1925 3394 2219 3213 
L 2025 2691 
Q 1819 2813 1613 2813 
Q 1428 2813 1281 2702 
Q 1134 2591 1072 2394 
Q 978 2094 978 1738 
L 978 0 
L 416 0 
z
" transform="scale(0.015625)"/>
        <path id="ArialMT-6c" d="M 409 0 
L 409 4581 
L 972 4581 
L 972 0 
L 409 0 
z
" transform="scale(0.015625)"/>
       </defs>
       <use xlink:href="#ArialMT-43"/>
       <use xlink:href="#ArialMT-6f" x="72.216797"/>
       <use xlink:href="#ArialMT-6e" x="127.832031"/>
       <use xlink:href="#ArialMT-74" x="183.447266"/>
       <use xlink:href="#ArialMT-72" x="211.230469"/>
       <use xlink:href="#ArialMT-6f" x="244.53125"/>
       <use xlink:href="#ArialMT-6c" x="300.146484"/>
      </g>
     </g>
    </g>
    <g id="xtick_2">
     <g id="text_2">
      <!-- Test -->
      <g style="fill: #262626" transform="translate(283.610577 332.197812) scale(0.1 -0.1)">
       <defs>
        <path id="ArialMT-54" d="M 1659 0 
L 1659 4041 
L 150 4041 
L 150 4581 
L 3781 4581 
L 3781 4041 
L 2266 4041 
L 2266 0 
L 1659 0 
z
" transform="scale(0.015625)"/>
        <path id="ArialMT-65" d="M 2694 1069 
L 3275 997 
Q 3138 488 2766 206 
Q 2394 -75 1816 -75 
Q 1088 -75 661 373 
Q 234 822 234 1631 
Q 234 2469 665 2931 
Q 1097 3394 1784 3394 
Q 2450 3394 2872 2941 
Q 3294 2488 3294 1666 
Q 3294 1616 3291 1516 
L 816 1516 
Q 847 969 1125 678 
Q 1403 388 1819 388 
Q 2128 388 2347 550 
Q 2566 713 2694 1069 
z
M 847 1978 
L 2700 1978 
Q 2663 2397 2488 2606 
Q 2219 2931 1791 2931 
Q 1403 2931 1139 2672 
Q 875 2413 847 1978 
z
" transform="scale(0.015625)"/>
        <path id="ArialMT-73" d="M 197 991 
L 753 1078 
Q 800 744 1014 566 
Q 1228 388 1613 388 
Q 2000 388 2187 545 
Q 2375 703 2375 916 
Q 2375 1106 2209 1216 
Q 2094 1291 1634 1406 
Q 1016 1563 777 1677 
Q 538 1791 414 1992 
Q 291 2194 291 2438 
Q 291 2659 392 2848 
Q 494 3038 669 3163 
Q 800 3259 1026 3326 
Q 1253 3394 1513 3394 
Q 1903 3394 2198 3281 
Q 2494 3169 2634 2976 
Q 2775 2784 2828 2463 
L 2278 2388 
Q 2241 2644 2061 2787 
Q 1881 2931 1553 2931 
Q 1166 2931 1000 2803 
Q 834 2675 834 2503 
Q 834 2394 903 2306 
Q 972 2216 1119 2156 
Q 1203 2125 1616 2013 
Q 2213 1853 2448 1751 
Q 2684 1650 2818 1456 
Q 2953 1263 2953 975 
Q 2953 694 2789 445 
Q 2625 197 2315 61 
Q 2006 -75 1616 -75 
Q 969 -75 630 194 
Q 291 463 197 991 
z
" transform="scale(0.015625)"/>
       </defs>
       <use xlink:href="#ArialMT-54"/>
       <use xlink:href="#ArialMT-65" x="49.958984"/>
       <use xlink:href="#ArialMT-73" x="105.574219"/>
       <use xlink:href="#ArialMT-74" x="155.574219"/>
      </g>
     </g>
    </g>
    <g id="text_3">
     <!-- group -->
     <g style="fill: #262626" transform="translate(198.296357 345.225938) scale(0.1 -0.1)">
      <defs>
       <path id="ArialMT-67" d="M 319 -275 
L 866 -356 
Q 900 -609 1056 -725 
Q 1266 -881 1628 -881 
Q 2019 -881 2231 -725 
Q 2444 -569 2519 -288 
Q 2563 -116 2559 434 
Q 2191 0 1641 0 
Q 956 0 581 494 
Q 206 988 206 1678 
Q 206 2153 378 2554 
Q 550 2956 876 3175 
Q 1203 3394 1644 3394 
Q 2231 3394 2613 2919 
L 2613 3319 
L 3131 3319 
L 3131 450 
Q 3131 -325 2973 -648 
Q 2816 -972 2473 -1159 
Q 2131 -1347 1631 -1347 
Q 1038 -1347 672 -1080 
Q 306 -813 319 -275 
z
M 784 1719 
Q 784 1066 1043 766 
Q 1303 466 1694 466 
Q 2081 466 2343 764 
Q 2606 1063 2606 1700 
Q 2606 2309 2336 2618 
Q 2066 2928 1684 2928 
Q 1309 2928 1046 2623 
Q 784 2319 784 1719 
z
" transform="scale(0.015625)"/>
       <path id="ArialMT-75" d="M 2597 0 
L 2597 488 
Q 2209 -75 1544 -75 
Q 1250 -75 995 37 
Q 741 150 617 320 
Q 494 491 444 738 
Q 409 903 409 1263 
L 409 3319 
L 972 3319 
L 972 1478 
Q 972 1038 1006 884 
Q 1059 663 1231 536 
Q 1403 409 1656 409 
Q 1909 409 2131 539 
Q 2353 669 2445 892 
Q 2538 1116 2538 1541 
L 2538 3319 
L 3100 3319 
L 3100 0 
L 2597 0 
z
" transform="scale(0.015625)"/>
       <path id="ArialMT-70" d="M 422 -1272 
L 422 3319 
L 934 3319 
L 934 2888 
Q 1116 3141 1344 3267 
Q 1572 3394 1897 3394 
Q 2322 3394 2647 3175 
Q 2972 2956 3137 2557 
Q 3303 2159 3303 1684 
Q 3303 1175 3120 767 
Q 2938 359 2589 142 
Q 2241 -75 1856 -75 
Q 1575 -75 1351 44 
Q 1128 163 984 344 
L 984 -1272 
L 422 -1272 
z
M 931 1641 
Q 931 1000 1190 694 
Q 1450 388 1819 388 
Q 2194 388 2461 705 
Q 2728 1022 2728 1688 
Q 2728 2322 2467 2637 
Q 2206 2953 1844 2953 
Q 1484 2953 1207 2617 
Q 931 2281 931 1641 
z
" transform="scale(0.015625)"/>
      </defs>
      <use xlink:href="#ArialMT-67"/>
      <use xlink:href="#ArialMT-72" x="55.615234"/>
      <use xlink:href="#ArialMT-6f" x="88.916016"/>
      <use xlink:href="#ArialMT-75" x="144.53125"/>
      <use xlink:href="#ArialMT-70" x="200.146484"/>
     </g>
    </g>
   </g>
   <g id="matplotlib.axis_2">
    <g id="ytick_1">
     <g id="line2d_1">
      <path d="M 47.6937 313.21088 
L 374.472452 313.21088 
" clip-path="url(#pef7e6895c7)" style="fill: none; stroke: #cccccc; stroke-width: 0.8; stroke-linecap: round"/>
     </g>
     <g id="text_4">
      <!-- 15 -->
      <g style="fill: #262626" transform="translate(29.571825 316.789787) scale(0.1 -0.1)">
       <defs>
        <path id="ArialMT-31" d="M 2384 0 
L 1822 0 
L 1822 3584 
Q 1619 3391 1289 3197 
Q 959 3003 697 2906 
L 697 3450 
Q 1169 3672 1522 3987 
Q 1875 4303 2022 4600 
L 2384 4600 
L 2384 0 
z
" transform="scale(0.015625)"/>
        <path id="ArialMT-35" d="M 266 1200 
L 856 1250 
Q 922 819 1161 601 
Q 1400 384 1738 384 
Q 2144 384 2425 690 
Q 2706 997 2706 1503 
Q 2706 1984 2436 2262 
Q 2166 2541 1728 2541 
Q 1456 2541 1237 2417 
Q 1019 2294 894 2097 
L 366 2166 
L 809 4519 
L 3088 4519 
L 3088 3981 
L 1259 3981 
L 1013 2750 
Q 1425 3038 1878 3038 
Q 2478 3038 2890 2622 
Q 3303 2206 3303 1553 
Q 3303 931 2941 478 
Q 2500 -78 1738 -78 
Q 1113 -78 717 272 
Q 322 622 266 1200 
z
" transform="scale(0.015625)"/>
       </defs>
       <use xlink:href="#ArialMT-31"/>
       <use xlink:href="#ArialMT-35" x="55.615234"/>
      </g>
     </g>
    </g>
    <g id="ytick_2">
     <g id="line2d_2">
      <path d="M 47.6937 256.819685 
L 374.472452 256.819685 
" clip-path="url(#pef7e6895c7)" style="fill: none; stroke: #cccccc; stroke-width: 0.8; stroke-linecap: round"/>
     </g>
     <g id="text_5">
      <!-- 20 -->
      <g style="fill: #262626" transform="translate(29.571825 260.398591) scale(0.1 -0.1)">
       <defs>
        <path id="ArialMT-32" d="M 3222 541 
L 3222 0 
L 194 0 
Q 188 203 259 391 
Q 375 700 629 1000 
Q 884 1300 1366 1694 
Q 2113 2306 2375 2664 
Q 2638 3022 2638 3341 
Q 2638 3675 2398 3904 
Q 2159 4134 1775 4134 
Q 1369 4134 1125 3890 
Q 881 3647 878 3216 
L 300 3275 
Q 359 3922 746 4261 
Q 1134 4600 1788 4600 
Q 2447 4600 2831 4234 
Q 3216 3869 3216 3328 
Q 3216 3053 3103 2787 
Q 2991 2522 2730 2228 
Q 2469 1934 1863 1422 
Q 1356 997 1212 845 
Q 1069 694 975 541 
L 3222 541 
z
" transform="scale(0.015625)"/>
        <path id="ArialMT-30" d="M 266 2259 
Q 266 3072 433 3567 
Q 600 4063 929 4331 
Q 1259 4600 1759 4600 
Q 2128 4600 2406 4451 
Q 2684 4303 2865 4023 
Q 3047 3744 3150 3342 
Q 3253 2941 3253 2259 
Q 3253 1453 3087 958 
Q 2922 463 2592 192 
Q 2263 -78 1759 -78 
Q 1097 -78 719 397 
Q 266 969 266 2259 
z
M 844 2259 
Q 844 1131 1108 757 
Q 1372 384 1759 384 
Q 2147 384 2411 759 
Q 2675 1134 2675 2259 
Q 2675 3391 2411 3762 
Q 2147 4134 1753 4134 
Q 1366 4134 1134 3806 
Q 844 3388 844 2259 
z
" transform="scale(0.015625)"/>
       </defs>
       <use xlink:href="#ArialMT-32"/>
       <use xlink:href="#ArialMT-30" x="55.615234"/>
      </g>
     </g>
    </g>
    <g id="ytick_3">
     <g id="line2d_3">
      <path d="M 47.6937 200.42849 
L 374.472452 200.42849 
" clip-path="url(#pef7e6895c7)" style="fill: none; stroke: #cccccc; stroke-width: 0.8; stroke-linecap: round"/>
     </g>
     <g id="text_6">
      <!-- 25 -->
      <g style="fill: #262626" transform="translate(29.571825 204.007396) scale(0.1 -0.1)">
       <use xlink:href="#ArialMT-32"/>
       <use xlink:href="#ArialMT-35" x="55.615234"/>
      </g>
     </g>
    </g>
    <g id="ytick_4">
     <g id="line2d_4">
      <path d="M 47.6937 144.037294 
L 374.472452 144.037294 
" clip-path="url(#pef7e6895c7)" style="fill: none; stroke: #cccccc; stroke-width: 0.8; stroke-linecap: round"/>
     </g>
     <g id="text_7">
      <!-- 30 -->
      <g style="fill: #262626" transform="translate(29.571825 147.616201) scale(0.1 -0.1)">
       <defs>
        <path id="ArialMT-33" d="M 269 1209 
L 831 1284 
Q 928 806 1161 595 
Q 1394 384 1728 384 
Q 2125 384 2398 659 
Q 2672 934 2672 1341 
Q 2672 1728 2419 1979 
Q 2166 2231 1775 2231 
Q 1616 2231 1378 2169 
L 1441 2663 
Q 1497 2656 1531 2656 
Q 1891 2656 2178 2843 
Q 2466 3031 2466 3422 
Q 2466 3731 2256 3934 
Q 2047 4138 1716 4138 
Q 1388 4138 1169 3931 
Q 950 3725 888 3313 
L 325 3413 
Q 428 3978 793 4289 
Q 1159 4600 1703 4600 
Q 2078 4600 2393 4439 
Q 2709 4278 2876 4000 
Q 3044 3722 3044 3409 
Q 3044 3113 2884 2869 
Q 2725 2625 2413 2481 
Q 2819 2388 3044 2092 
Q 3269 1797 3269 1353 
Q 3269 753 2831 336 
Q 2394 -81 1725 -81 
Q 1122 -81 723 278 
Q 325 638 269 1209 
z
" transform="scale(0.015625)"/>
       </defs>
       <use xlink:href="#ArialMT-33"/>
       <use xlink:href="#ArialMT-30" x="55.615234"/>
      </g>
     </g>
    </g>
    <g id="ytick_5">
     <g id="line2d_5">
      <path d="M 47.6937 87.646099 
L 374.472452 87.646099 
" clip-path="url(#pef7e6895c7)" style="fill: none; stroke: #cccccc; stroke-width: 0.8; stroke-linecap: round"/>
     </g>
     <g id="text_8">
      <!-- 35 -->
      <g style="fill: #262626" transform="translate(29.571825 91.225005) scale(0.1 -0.1)">
       <use xlink:href="#ArialMT-33"/>
       <use xlink:href="#ArialMT-35" x="55.615234"/>
      </g>
     </g>
    </g>
    <g id="ytick_6">
     <g id="line2d_6">
      <path d="M 47.6937 31.254904 
L 374.472452 31.254904 
" clip-path="url(#pef7e6895c7)" style="fill: none; stroke: #cccccc; stroke-width: 0.8; stroke-linecap: round"/>
     </g>
     <g id="text_9">
      <!-- 40 -->
      <g style="fill: #262626" transform="translate(29.571825 34.83381) scale(0.1 -0.1)">
       <defs>
        <path id="ArialMT-34" d="M 2069 0 
L 2069 1097 
L 81 1097 
L 81 1613 
L 2172 4581 
L 2631 4581 
L 2631 1613 
L 3250 1613 
L 3250 1097 
L 2631 1097 
L 2631 0 
L 2069 0 
z
M 2069 1613 
L 2069 3678 
L 634 1613 
L 2069 1613 
z
" transform="scale(0.015625)"/>
       </defs>
       <use xlink:href="#ArialMT-34"/>
       <use xlink:href="#ArialMT-30" x="55.615234"/>
      </g>
     </g>
    </g>
    <g id="text_10">
     <!-- Arm perimeter (cm) -->
     <g style="fill: #262626" transform="translate(23.467138 214.433906) rotate(-90) scale(0.1 -0.1)">
      <defs>
       <path id="ArialMT-41" d="M -9 0 
L 1750 4581 
L 2403 4581 
L 4278 0 
L 3588 0 
L 3053 1388 
L 1138 1388 
L 634 0 
L -9 0 
z
M 1313 1881 
L 2866 1881 
L 2388 3150 
Q 2169 3728 2063 4100 
Q 1975 3659 1816 3225 
L 1313 1881 
z
" transform="scale(0.015625)"/>
       <path id="ArialMT-6d" d="M 422 0 
L 422 3319 
L 925 3319 
L 925 2853 
Q 1081 3097 1340 3245 
Q 1600 3394 1931 3394 
Q 2300 3394 2536 3241 
Q 2772 3088 2869 2813 
Q 3263 3394 3894 3394 
Q 4388 3394 4653 3120 
Q 4919 2847 4919 2278 
L 4919 0 
L 4359 0 
L 4359 2091 
Q 4359 2428 4304 2576 
Q 4250 2725 4106 2815 
Q 3963 2906 3769 2906 
Q 3419 2906 3187 2673 
Q 2956 2441 2956 1928 
L 2956 0 
L 2394 0 
L 2394 2156 
Q 2394 2531 2256 2718 
Q 2119 2906 1806 2906 
Q 1569 2906 1367 2781 
Q 1166 2656 1075 2415 
Q 984 2175 984 1722 
L 984 0 
L 422 0 
z
" transform="scale(0.015625)"/>
       <path id="ArialMT-20" transform="scale(0.015625)"/>
       <path id="ArialMT-69" d="M 425 3934 
L 425 4581 
L 988 4581 
L 988 3934 
L 425 3934 
z
M 425 0 
L 425 3319 
L 988 3319 
L 988 0 
L 425 0 
z
" transform="scale(0.015625)"/>
       <path id="ArialMT-28" d="M 1497 -1347 
Q 1031 -759 709 28 
Q 388 816 388 1659 
Q 388 2403 628 3084 
Q 909 3875 1497 4659 
L 1900 4659 
Q 1522 4009 1400 3731 
Q 1209 3300 1100 2831 
Q 966 2247 966 1656 
Q 966 153 1900 -1347 
L 1497 -1347 
z
" transform="scale(0.015625)"/>
       <path id="ArialMT-63" d="M 2588 1216 
L 3141 1144 
Q 3050 572 2676 248 
Q 2303 -75 1759 -75 
Q 1078 -75 664 370 
Q 250 816 250 1647 
Q 250 2184 428 2587 
Q 606 2991 970 3192 
Q 1334 3394 1763 3394 
Q 2303 3394 2647 3120 
Q 2991 2847 3088 2344 
L 2541 2259 
Q 2463 2594 2264 2762 
Q 2066 2931 1784 2931 
Q 1359 2931 1093 2626 
Q 828 2322 828 1663 
Q 828 994 1084 691 
Q 1341 388 1753 388 
Q 2084 388 2306 591 
Q 2528 794 2588 1216 
z
" transform="scale(0.015625)"/>
       <path id="ArialMT-29" d="M 791 -1347 
L 388 -1347 
Q 1322 153 1322 1656 
Q 1322 2244 1188 2822 
Q 1081 3291 891 3722 
Q 769 4003 388 4659 
L 791 4659 
Q 1378 3875 1659 3084 
Q 1900 2403 1900 1659 
Q 1900 816 1576 28 
Q 1253 -759 791 -1347 
z
" transform="scale(0.015625)"/>
      </defs>
      <use xlink:href="#ArialMT-41"/>
      <use xlink:href="#ArialMT-72" x="66.699219"/>
      <use xlink:href="#ArialMT-6d" x="100"/>
      <use xlink:href="#ArialMT-20" x="183.300781"/>
      <use xlink:href="#ArialMT-70" x="211.083984"/>
      <use xlink:href="#ArialMT-65" x="266.699219"/>
      <use xlink:href="#ArialMT-72" x="322.314453"/>
      <use xlink:href="#ArialMT-69" x="355.615234"/>
      <use xlink:href="#ArialMT-6d" x="377.832031"/>
      <use xlink:href="#ArialMT-65" x="461.132812"/>
      <use xlink:href="#ArialMT-74" x="516.748047"/>
      <use xlink:href="#ArialMT-65" x="544.53125"/>
      <use xlink:href="#ArialMT-72" x="600.146484"/>
      <use xlink:href="#ArialMT-20" x="633.447266"/>
      <use xlink:href="#ArialMT-28" x="661.230469"/>
      <use xlink:href="#ArialMT-63" x="694.53125"/>
      <use xlink:href="#ArialMT-6d" x="744.53125"/>
      <use xlink:href="#ArialMT-29" x="827.832031"/>
     </g>
    </g>
   </g>
   <g id="PolyCollection_1">
    <defs>
     <path id="mfee5864541" d="M 97.004109 -67.28051 
L 96.416916 -67.28051 
L 96.337762 -69.48674 
L 96.244288 -71.692969 
L 96.13599 -73.899199 
L 96.012939 -76.105428 
L 95.875885 -78.311658 
L 95.726315 -80.517887 
L 95.566446 -82.724116 
L 95.399142 -84.930346 
L 95.227735 -87.136575 
L 95.055746 -89.342805 
L 94.886521 -91.549034 
L 94.722787 -93.755264 
L 94.56616 -95.961493 
L 94.416633 -98.167723 
L 94.272109 -100.373952 
L 94.127992 -102.580182 
L 93.976915 -104.786411 
L 93.808633 -106.992641 
L 93.610105 -109.19887 
L 93.365813 -111.4051 
L 93.05829 -113.611329 
L 92.668879 -115.817558 
L 92.178665 -118.023788 
L 91.56956 -120.230017 
L 90.825463 -122.436247 
L 89.933436 -124.642476 
L 88.88481 -126.848706 
L 87.676157 -129.054935 
L 86.310036 -131.261165 
L 84.795466 -133.467394 
L 83.148078 -135.673624 
L 81.389913 -137.879853 
L 79.548882 -140.086083 
L 77.657897 -142.292312 
L 75.753731 -144.498542 
L 73.875674 -146.704771 
L 72.064056 -148.911 
L 70.35873 -151.11723 
L 68.797599 -153.323459 
L 67.415247 -155.529689 
L 66.241753 -157.735918 
L 65.301718 -159.942148 
L 64.613534 -162.148377 
L 64.188908 -164.354607 
L 64.032638 -166.560836 
L 64.142626 -168.767066 
L 64.51012 -170.973295 
L 65.120152 -173.179525 
L 65.952166 -175.385754 
L 66.980803 -177.591984 
L 68.176817 -179.798213 
L 69.508096 -182.004442 
L 70.94075 -184.210672 
L 72.440222 -186.416901 
L 73.972375 -188.623131 
L 75.504511 -190.82936 
L 77.006277 -193.03559 
L 78.450414 -195.241819 
L 79.813336 -197.448049 
L 81.075518 -199.654278 
L 82.22171 -201.860508 
L 83.240989 -204.066737 
L 84.126688 -206.272967 
L 84.876238 -208.479196 
L 85.490952 -210.685426 
L 85.97579 -212.891655 
L 86.339104 -215.097884 
L 86.59237 -217.304114 
L 86.749886 -219.510343 
L 86.828416 -221.716573 
L 86.846744 -223.922802 
L 86.82511 -226.129032 
L 86.784539 -228.335261 
L 86.746037 -230.541491 
L 86.729711 -232.74772 
L 86.753854 -234.95395 
L 86.834057 -237.160179 
L 86.982431 -239.366409 
L 87.207008 -241.572638 
L 87.511381 -243.778868 
L 87.894628 -245.985097 
L 88.351526 -248.191326 
L 88.873051 -250.397556 
L 89.447095 -252.603785 
L 90.059375 -254.810015 
L 90.694405 -257.016244 
L 91.336495 -259.222474 
L 91.970659 -261.428703 
L 92.583392 -263.634933 
L 93.163262 -265.841162 
L 93.701283 -268.047392 
L 94.191091 -270.253621 
L 94.628909 -272.459851 
L 95.013362 -274.66608 
L 95.345158 -276.87231 
L 95.626704 -279.078539 
L 95.861679 -281.284768 
L 96.054612 -283.490998 
L 96.2105 -285.697227 
L 97.210526 -285.697227 
L 97.210526 -285.697227 
L 97.366414 -283.490998 
L 97.559347 -281.284768 
L 97.794322 -279.078539 
L 98.075868 -276.87231 
L 98.407664 -274.66608 
L 98.792116 -272.459851 
L 99.229935 -270.253621 
L 99.719742 -268.047392 
L 100.257764 -265.841162 
L 100.837633 -263.634933 
L 101.450367 -261.428703 
L 102.084531 -259.222474 
L 102.726621 -257.016244 
L 103.361651 -254.810015 
L 103.97393 -252.603785 
L 104.547975 -250.397556 
L 105.069499 -248.191326 
L 105.526398 -245.985097 
L 105.909645 -243.778868 
L 106.214018 -241.572638 
L 106.438595 -239.366409 
L 106.586969 -237.160179 
L 106.667172 -234.95395 
L 106.691315 -232.74772 
L 106.674989 -230.541491 
L 106.636486 -228.335261 
L 106.595915 -226.129032 
L 106.574282 -223.922802 
L 106.592609 -221.716573 
L 106.67114 -219.510343 
L 106.828656 -217.304114 
L 107.081922 -215.097884 
L 107.445236 -212.891655 
L 107.930074 -210.685426 
L 108.544788 -208.479196 
L 109.294337 -206.272967 
L 110.180036 -204.066737 
L 111.199316 -201.860508 
L 112.345508 -199.654278 
L 113.60769 -197.448049 
L 114.970612 -195.241819 
L 116.414748 -193.03559 
L 117.916514 -190.82936 
L 119.448651 -188.623131 
L 120.980804 -186.416901 
L 122.480276 -184.210672 
L 123.91293 -182.004442 
L 125.244209 -179.798213 
L 126.440222 -177.591984 
L 127.468859 -175.385754 
L 128.300873 -173.179525 
L 128.910906 -170.973295 
L 129.278399 -168.767066 
L 129.388388 -166.560836 
L 129.232118 -164.354607 
L 128.807492 -162.148377 
L 128.119308 -159.942148 
L 127.179272 -157.735918 
L 126.005779 -155.529689 
L 124.623427 -153.323459 
L 123.062295 -151.11723 
L 121.35697 -148.911 
L 119.545352 -146.704771 
L 117.667295 -144.498542 
L 115.763129 -142.292312 
L 113.872144 -140.086083 
L 112.031113 -137.879853 
L 110.272948 -135.673624 
L 108.625559 -133.467394 
L 107.110989 -131.261165 
L 105.744868 -129.054935 
L 104.536216 -126.848706 
L 103.48759 -124.642476 
L 102.595563 -122.436247 
L 101.851466 -120.230017 
L 101.242361 -118.023788 
L 100.752147 -115.817558 
L 100.362735 -113.611329 
L 100.055213 -111.4051 
L 99.81092 -109.19887 
L 99.612393 -106.992641 
L 99.44411 -104.786411 
L 99.293034 -102.580182 
L 99.148917 -100.373952 
L 99.004392 -98.167723 
L 98.854866 -95.961493 
L 98.698238 -93.755264 
L 98.534505 -91.549034 
L 98.36528 -89.342805 
L 98.193291 -87.136575 
L 98.021883 -84.930346 
L 97.85458 -82.724116 
L 97.694711 -80.517887 
L 97.54514 -78.311658 
L 97.408086 -76.105428 
L 97.285036 -73.899199 
L 97.176738 -71.692969 
L 97.083264 -69.48674 
L 97.004109 -67.28051 
z
" style="stroke: #3f3f3f; stroke-width: 1.25"/>
    </defs>
    <g clip-path="url(#pef7e6895c7)">
     <use xlink:href="#mfee5864541" x="0" y="360" style="fill: #3274a1; stroke: #3f3f3f; stroke-width: 1.25"/>
    </g>
   </g>
   <g id="PolyCollection_2">
    <defs>
     <path id="m0a828dd04f" d="M 162.459348 -109.978138 
L 161.673179 -109.978138 
L 161.566151 -112.119241 
L 161.436486 -114.260343 
L 161.281114 -116.401445 
L 161.09691 -118.542548 
L 160.880746 -120.68365 
L 160.629535 -122.824753 
L 160.340264 -124.965855 
L 160.010007 -127.106957 
L 159.63592 -129.24806 
L 159.215207 -131.389162 
L 158.745071 -133.530264 
L 158.222656 -135.671367 
L 157.644983 -137.812469 
L 157.008905 -139.953571 
L 156.311094 -142.094674 
L 155.548077 -144.235776 
L 154.716336 -146.376879 
L 153.812497 -148.517981 
L 152.833587 -150.659083 
L 151.777382 -152.800186 
L 150.642822 -154.941288 
L 149.430456 -157.08239 
L 148.142915 -159.223493 
L 146.785343 -161.364595 
L 145.365759 -163.505698 
L 143.895311 -165.6468 
L 142.388375 -167.787902 
L 140.862477 -169.929005 
L 139.338024 -172.070107 
L 137.837848 -174.211209 
L 136.386566 -176.352312 
L 135.00981 -178.493414 
L 133.73334 -180.634516 
L 132.582123 -182.775619 
L 131.579406 -184.916721 
L 130.74586 -187.057824 
L 130.098816 -189.198926 
L 129.651662 -191.340028 
L 129.413399 -193.481131 
L 129.388388 -195.622233 
L 129.576275 -197.763335 
L 129.972092 -199.904438 
L 130.566507 -202.04554 
L 131.346208 -204.186643 
L 132.294374 -206.327745 
L 133.39123 -208.468847 
L 134.614639 -210.60995 
L 135.940723 -212.751052 
L 137.344485 -214.892154 
L 138.800423 -217.033257 
L 140.283123 -219.174359 
L 141.767815 -221.315461 
L 143.230893 -223.456564 
L 144.65038 -225.597666 
L 146.006336 -227.738769 
L 147.281201 -229.879871 
L 148.460072 -232.020973 
L 149.530896 -234.162076 
L 150.484602 -236.303178 
L 151.315156 -238.44428 
L 152.019548 -240.585383 
L 152.597726 -242.726485 
L 153.05248 -244.867588 
L 153.389281 -247.00869 
L 153.616088 -249.149792 
L 153.743121 -251.290895 
L 153.782602 -253.431997 
L 153.748463 -255.573099 
L 153.656016 -257.714202 
L 153.521576 -259.855304 
L 153.362048 -261.996406 
L 153.194457 -264.137509 
L 153.035454 -266.278611 
L 152.900791 -268.419714 
L 152.804796 -270.560816 
L 152.759874 -272.701918 
L 152.776057 -274.843021 
L 152.860644 -276.984123 
L 153.017947 -279.125225 
L 153.249178 -281.266328 
L 153.552476 -283.40743 
L 153.923098 -285.548532 
L 154.353737 -287.689635 
L 154.834972 -289.830737 
L 155.35581 -291.97184 
L 155.904278 -294.112942 
L 156.468039 -296.254044 
L 157.034982 -298.395147 
L 157.59375 -300.536249 
L 158.134187 -302.677351 
L 158.647667 -304.818454 
L 159.127315 -306.959556 
L 159.568099 -309.100659 
L 159.966817 -311.241761 
L 160.321986 -313.382863 
L 160.633652 -315.523966 
L 160.903155 -317.665068 
L 161.132861 -319.80617 
L 161.325884 -321.947273 
L 162.806643 -321.947273 
L 162.806643 -321.947273 
L 162.999665 -319.80617 
L 163.229371 -317.665068 
L 163.498875 -315.523966 
L 163.810541 -313.382863 
L 164.165709 -311.241761 
L 164.564428 -309.100659 
L 165.005212 -306.959556 
L 165.48486 -304.818454 
L 165.99834 -302.677351 
L 166.538776 -300.536249 
L 167.097545 -298.395147 
L 167.664488 -296.254044 
L 168.228249 -294.112942 
L 168.776717 -291.97184 
L 169.297554 -289.830737 
L 169.778789 -287.689635 
L 170.209428 -285.548532 
L 170.58005 -283.40743 
L 170.883349 -281.266328 
L 171.114579 -279.125225 
L 171.271882 -276.984123 
L 171.356469 -274.843021 
L 171.372653 -272.701918 
L 171.327731 -270.560816 
L 171.231736 -268.419714 
L 171.097072 -266.278611 
L 170.938069 -264.137509 
L 170.770478 -261.996406 
L 170.61095 -259.855304 
L 170.476511 -257.714202 
L 170.384063 -255.573099 
L 170.349924 -253.431997 
L 170.389405 -251.290895 
L 170.516438 -249.149792 
L 170.743245 -247.00869 
L 171.080046 -244.867588 
L 171.5348 -242.726485 
L 172.112978 -240.585383 
L 172.81737 -238.44428 
L 173.647924 -236.303178 
L 174.601631 -234.162076 
L 175.672455 -232.020973 
L 176.851325 -229.879871 
L 178.126191 -227.738769 
L 179.482146 -225.597666 
L 180.901633 -223.456564 
L 182.364711 -221.315461 
L 183.849404 -219.174359 
L 185.332103 -217.033257 
L 186.788041 -214.892154 
L 188.191803 -212.751052 
L 189.517887 -210.60995 
L 190.741297 -208.468847 
L 191.838152 -206.327745 
L 192.786319 -204.186643 
L 193.566019 -202.04554 
L 194.160435 -199.904438 
L 194.556251 -197.763335 
L 194.744138 -195.622233 
L 194.719128 -193.481131 
L 194.480865 -191.340028 
L 194.033711 -189.198926 
L 193.386667 -187.057824 
L 192.55312 -184.916721 
L 191.550404 -182.775619 
L 190.399186 -180.634516 
L 189.122716 -178.493414 
L 187.74596 -176.352312 
L 186.294679 -174.211209 
L 184.794502 -172.070107 
L 183.27005 -169.929005 
L 181.744151 -167.787902 
L 180.237215 -165.6468 
L 178.766768 -163.505698 
L 177.347184 -161.364595 
L 175.989611 -159.223493 
L 174.70207 -157.08239 
L 173.489705 -154.941288 
L 172.355144 -152.800186 
L 171.29894 -150.659083 
L 170.320029 -148.517981 
L 169.41619 -146.376879 
L 168.58445 -144.235776 
L 167.821432 -142.094674 
L 167.123621 -139.953571 
L 166.487544 -137.812469 
L 165.909871 -135.671367 
L 165.387456 -133.530264 
L 164.91732 -131.389162 
L 164.496606 -129.24806 
L 164.122519 -127.106957 
L 163.792263 -124.965855 
L 163.502991 -122.824753 
L 163.25178 -120.68365 
L 163.035616 -118.542548 
L 162.851412 -116.401445 
L 162.69604 -114.260343 
L 162.566375 -112.119241 
L 162.459348 -109.978138 
z
" style="stroke: #3f3f3f; stroke-width: 1.25"/>
    </defs>
    <g clip-path="url(#pef7e6895c7)">
     <use xlink:href="#m0a828dd04f" x="0" y="360" style="fill: #e1812c; stroke: #3f3f3f; stroke-width: 1.25"/>
    </g>
   </g>
   <g id="PolyCollection_3">
    <defs>
     <path id="m699b4717b8" d="M 260.412824 -55.292727 
L 259.786953 -55.292727 
L 259.69882 -57.627213 
L 259.593997 -59.961698 
L 259.47182 -62.296183 
L 259.332324 -64.630668 
L 259.176383 -66.965154 
L 259.005794 -69.299639 
L 258.823291 -71.634124 
L 258.632468 -73.96861 
L 258.43761 -76.303095 
L 258.243428 -78.63758 
L 258.054718 -80.972065 
L 257.87597 -83.306551 
L 257.710962 -85.641036 
L 257.562386 -87.975521 
L 257.431547 -90.310007 
L 257.318156 -92.644492 
L 257.220266 -94.978977 
L 257.13432 -97.313463 
L 257.055333 -99.647948 
L 256.977149 -101.982433 
L 256.892741 -104.316918 
L 256.794512 -106.651404 
L 256.674538 -108.985889 
L 256.524731 -111.320374 
L 256.336907 -113.65486 
L 256.102762 -115.989345 
L 255.813795 -118.32383 
L 255.461215 -120.658315 
L 255.035908 -122.992801 
L 254.528507 -125.327286 
L 253.929626 -127.661771 
L 253.230279 -129.996257 
L 252.422492 -132.330742 
L 251.500068 -134.665227 
L 250.459459 -136.999713 
L 249.300653 -139.334198 
L 248.027973 -141.668683 
L 246.650706 -144.003168 
L 245.183453 -146.337654 
L 243.646142 -148.672139 
L 242.063661 -151.006624 
L 240.465114 -153.34111 
L 238.88273 -155.675595 
L 237.350494 -158.01008 
L 235.902606 -160.344565 
L 234.571862 -162.679051 
L 233.388093 -165.013536 
L 232.376762 -167.348021 
L 231.557813 -169.682507 
L 230.944856 -172.016992 
L 230.544713 -174.351477 
L 230.357354 -176.685963 
L 230.376211 -179.020448 
L 230.588825 -181.354933 
L 230.977785 -183.689418 
L 231.521886 -186.023904 
L 232.197428 -188.358389 
L 232.979576 -190.692874 
L 233.843687 -193.02736 
L 234.766525 -195.361845 
L 235.727276 -197.69633 
L 236.708293 -200.030815 
L 237.695534 -202.365301 
L 238.678656 -204.699786 
L 239.650793 -207.034271 
L 240.60805 -209.368757 
L 241.54881 -211.703242 
L 242.472923 -214.037727 
L 243.380922 -216.372212 
L 244.273338 -218.706698 
L 245.150208 -221.041183 
L 246.010814 -223.375668 
L 246.853667 -225.710154 
L 247.676694 -228.044639 
L 248.477561 -230.379124 
L 249.254054 -232.71361 
L 250.004435 -235.048095 
L 250.727689 -237.38258 
L 251.423627 -239.717065 
L 252.092828 -242.051551 
L 252.736427 -244.386036 
L 253.355818 -246.720521 
L 253.952298 -249.055007 
L 254.526749 -251.389492 
L 255.079389 -253.723977 
L 255.609645 -256.058462 
L 256.116154 -258.392948 
L 256.596899 -260.727433 
L 257.049439 -263.061918 
L 257.471204 -265.396404 
L 257.859803 -267.730889 
L 258.213314 -270.065374 
L 258.530507 -272.39986 
L 258.81099 -274.734345 
L 259.055258 -277.06883 
L 259.264668 -279.403315 
L 259.441324 -281.737801 
L 259.587928 -284.072286 
L 259.707593 -286.406771 
L 260.492184 -286.406771 
L 260.492184 -286.406771 
L 260.611849 -284.072286 
L 260.758454 -281.737801 
L 260.93511 -279.403315 
L 261.144519 -277.06883 
L 261.388788 -274.734345 
L 261.66927 -272.39986 
L 261.986464 -270.065374 
L 262.339975 -267.730889 
L 262.728574 -265.396404 
L 263.150339 -263.061918 
L 263.602879 -260.727433 
L 264.083624 -258.392948 
L 264.590133 -256.058462 
L 265.120388 -253.723977 
L 265.673028 -251.389492 
L 266.24748 -249.055007 
L 266.84396 -246.720521 
L 267.46335 -244.386036 
L 268.10695 -242.051551 
L 268.776151 -239.717065 
L 269.472089 -237.38258 
L 270.195343 -235.048095 
L 270.945724 -232.71361 
L 271.722217 -230.379124 
L 272.523083 -228.044639 
L 273.346111 -225.710154 
L 274.188964 -223.375668 
L 275.04957 -221.041183 
L 275.92644 -218.706698 
L 276.818856 -216.372212 
L 277.726855 -214.037727 
L 278.650968 -211.703242 
L 279.591727 -209.368757 
L 280.548985 -207.034271 
L 281.521122 -204.699786 
L 282.504243 -202.365301 
L 283.491484 -200.030815 
L 284.472502 -197.69633 
L 285.433252 -195.361845 
L 286.356091 -193.02736 
L 287.220202 -190.692874 
L 288.002349 -188.358389 
L 288.677891 -186.023904 
L 289.221992 -183.689418 
L 289.610953 -181.354933 
L 289.823567 -179.020448 
L 289.842424 -176.685963 
L 289.655065 -174.351477 
L 289.254921 -172.016992 
L 288.641964 -169.682507 
L 287.823016 -167.348021 
L 286.811684 -165.013536 
L 285.627915 -162.679051 
L 284.297171 -160.344565 
L 282.849283 -158.01008 
L 281.317048 -155.675595 
L 279.734664 -153.34111 
L 278.136117 -151.006624 
L 276.553636 -148.672139 
L 275.016325 -146.337654 
L 273.549072 -144.003168 
L 272.171805 -141.668683 
L 270.899125 -139.334198 
L 269.740318 -136.999713 
L 268.69971 -134.665227 
L 267.777286 -132.330742 
L 266.969499 -129.996257 
L 266.270152 -127.661771 
L 265.671271 -125.327286 
L 265.16387 -122.992801 
L 264.738563 -120.658315 
L 264.385983 -118.32383 
L 264.097016 -115.989345 
L 263.862871 -113.65486 
L 263.675047 -111.320374 
L 263.52524 -108.985889 
L 263.405266 -106.651404 
L 263.307037 -104.316918 
L 263.222629 -101.982433 
L 263.144445 -99.647948 
L 263.065458 -97.313463 
L 262.979512 -94.978977 
L 262.881621 -92.644492 
L 262.768231 -90.310007 
L 262.637391 -87.975521 
L 262.488816 -85.641036 
L 262.323808 -83.306551 
L 262.145059 -80.972065 
L 261.956349 -78.63758 
L 261.762168 -76.303095 
L 261.56731 -73.96861 
L 261.376487 -71.634124 
L 261.193984 -69.299639 
L 261.023395 -66.965154 
L 260.867454 -64.630668 
L 260.727958 -62.296183 
L 260.60578 -59.961698 
L 260.500958 -57.627213 
L 260.412824 -55.292727 
z
" style="stroke: #3f3f3f; stroke-width: 1.25"/>
    </defs>
    <g clip-path="url(#pef7e6895c7)">
     <use xlink:href="#m699b4717b8" x="0" y="360" style="fill: #3274a1; stroke: #3f3f3f; stroke-width: 1.25"/>
    </g>
   </g>
   <g id="PolyCollection_4">
    <defs>
     <path id="mea806b9b6f" d="M 325.809036 -91.281143 
L 325.102242 -91.281143 
L 325.004211 -93.458198 
L 324.888106 -95.635253 
L 324.753415 -97.812307 
L 324.600475 -99.989362 
L 324.430644 -102.166416 
L 324.246417 -104.343471 
L 324.051462 -106.520526 
L 323.850562 -108.69758 
L 323.649438 -110.874635 
L 323.454463 -113.051689 
L 323.272264 -115.228744 
L 323.109249 -117.405799 
L 322.971089 -119.582853 
L 322.862195 -121.759908 
L 322.78525 -123.936963 
L 322.740835 -126.114017 
L 322.727194 -128.291072 
L 322.740165 -130.468126 
L 322.773286 -132.645181 
L 322.818079 -134.822236 
L 322.86447 -136.99929 
L 322.901331 -139.176345 
L 322.917073 -141.3534 
L 322.900247 -143.530454 
L 322.840101 -145.707509 
L 322.727028 -147.884563 
L 322.552887 -150.061618 
L 322.311165 -152.238673 
L 321.996965 -154.415727 
L 321.606853 -156.592782 
L 321.138575 -158.769836 
L 320.590705 -160.946891 
L 319.962272 -163.123946 
L 319.252448 -165.301 
L 318.460357 -167.478055 
L 317.58505 -169.65511 
L 316.625711 -171.832164 
L 315.582078 -174.009219 
L 314.455072 -176.186273 
L 313.247572 -178.363328 
L 311.965229 -180.540383 
L 310.617219 -182.717437 
L 309.216782 -184.894492 
L 307.781433 -187.071547 
L 306.33274 -189.248601 
L 304.895616 -191.425656 
L 303.497123 -193.60271 
L 302.164876 -195.779765 
L 300.925166 -197.95682 
L 299.801008 -200.133874 
L 298.810331 -202.310929 
L 297.96453 -204.487983 
L 297.267576 -206.665038 
L 296.715826 -208.842093 
L 296.298586 -211.019147 
L 295.999389 -213.196202 
L 295.797883 -215.373257 
L 295.672107 -217.550311 
L 295.600931 -219.727366 
L 295.566367 -221.90442 
L 295.555521 -224.081475 
L 295.561957 -226.25853 
L 295.586337 -228.435584 
L 295.636296 -230.612639 
L 295.725563 -232.789694 
L 295.872452 -234.966748 
L 296.097908 -237.143803 
L 296.423305 -239.320857 
L 296.868251 -241.497912 
L 297.448604 -243.674967 
L 298.174884 -245.852021 
L 299.051216 -248.029076 
L 300.074867 -250.206131 
L 301.236378 -252.383185 
L 302.520225 -254.56024 
L 303.905922 -256.737294 
L 305.369394 -258.914349 
L 306.884504 -261.091404 
L 308.424559 -263.268458 
L 309.963683 -265.445513 
L 311.47796 -267.622567 
L 312.946288 -269.799622 
L 314.35093 -271.976677 
L 315.677766 -274.153731 
L 316.9163 -276.330786 
L 318.059469 -278.507841 
L 319.10332 -280.684895 
L 320.046606 -282.86195 
L 320.89036 -285.039004 
L 321.637474 -287.216059 
L 322.29231 -289.393114 
L 322.860351 -291.570168 
L 323.347897 -293.747223 
L 323.761797 -295.924278 
L 324.109214 -298.101332 
L 324.397418 -300.278387 
L 324.633606 -302.455441 
L 324.824738 -304.632496 
L 324.977407 -306.809551 
L 325.933872 -306.809551 
L 325.933872 -306.809551 
L 326.08654 -304.632496 
L 326.277672 -302.455441 
L 326.51386 -300.278387 
L 326.802065 -298.101332 
L 327.149482 -295.924278 
L 327.563382 -293.747223 
L 328.050928 -291.570168 
L 328.618969 -289.393114 
L 329.273804 -287.216059 
L 330.020918 -285.039004 
L 330.864672 -282.86195 
L 331.807959 -280.684895 
L 332.85181 -278.507841 
L 333.994979 -276.330786 
L 335.233513 -274.153731 
L 336.560348 -271.976677 
L 337.96499 -269.799622 
L 339.433319 -267.622567 
L 340.947596 -265.445513 
L 342.48672 -263.268458 
L 344.026775 -261.091404 
L 345.541885 -258.914349 
L 347.005357 -256.737294 
L 348.391053 -254.56024 
L 349.674901 -252.383185 
L 350.836411 -250.206131 
L 351.860062 -248.029076 
L 352.736394 -245.852021 
L 353.462674 -243.674967 
L 354.043028 -241.497912 
L 354.487974 -239.320857 
L 354.813371 -237.143803 
L 355.038826 -234.966748 
L 355.185716 -232.789694 
L 355.274982 -230.612639 
L 355.324942 -228.435584 
L 355.349322 -226.25853 
L 355.355757 -224.081475 
L 355.344911 -221.90442 
L 355.310348 -219.727366 
L 355.239171 -217.550311 
L 355.113396 -215.373257 
L 354.91189 -213.196202 
L 354.612693 -211.019147 
L 354.195452 -208.842093 
L 353.643703 -206.665038 
L 352.946749 -204.487983 
L 352.100948 -202.310929 
L 351.110271 -200.133874 
L 349.986113 -197.95682 
L 348.746402 -195.779765 
L 347.414155 -193.60271 
L 346.015663 -191.425656 
L 344.578539 -189.248601 
L 343.129846 -187.071547 
L 341.694497 -184.894492 
L 340.29406 -182.717437 
L 338.94605 -180.540383 
L 337.663707 -178.363328 
L 336.456207 -176.186273 
L 335.329201 -174.009219 
L 334.285568 -171.832164 
L 333.326228 -169.65511 
L 332.450922 -167.478055 
L 331.65883 -165.301 
L 330.949007 -163.123946 
L 330.320574 -160.946891 
L 329.772703 -158.769836 
L 329.304426 -156.592782 
L 328.914314 -154.415727 
L 328.600114 -152.238673 
L 328.358391 -150.061618 
L 328.18425 -147.884563 
L 328.071177 -145.707509 
L 328.011031 -143.530454 
L 327.994206 -141.3534 
L 328.009947 -139.176345 
L 328.046808 -136.99929 
L 328.093199 -134.822236 
L 328.137992 -132.645181 
L 328.171114 -130.468126 
L 328.184085 -128.291072 
L 328.170444 -126.114017 
L 328.126028 -123.936963 
L 328.049083 -121.759908 
L 327.940189 -119.582853 
L 327.802029 -117.405799 
L 327.639015 -115.228744 
L 327.456816 -113.051689 
L 327.261841 -110.874635 
L 327.060717 -108.69758 
L 326.859817 -106.520526 
L 326.664862 -104.343471 
L 326.480634 -102.166416 
L 326.310804 -99.989362 
L 326.157864 -97.812307 
L 326.023173 -95.635253 
L 325.907067 -93.458198 
L 325.809036 -91.281143 
z
" style="stroke: #3f3f3f; stroke-width: 1.25"/>
    </defs>
    <g clip-path="url(#pef7e6895c7)">
     <use xlink:href="#mea806b9b6f" x="0" y="360" style="fill: #e1812c; stroke: #3f3f3f; stroke-width: 1.25"/>
    </g>
   </g>
   <g id="line2d_7">
    <path d="M 96.710513 211.706729 
L 96.710513 144.037294 
" clip-path="url(#pef7e6895c7)" style="fill: none; stroke: #3f3f3f; stroke-width: 1.875; stroke-linecap: round"/>
   </g>
   <g id="line2d_8">
    <path d="M 96.710513 200.42849 
L 96.710513 169.413332 
" clip-path="url(#pef7e6895c7)" style="fill: none; stroke: #3f3f3f; stroke-width: 5.625; stroke-linecap: round"/>
   </g>
   <g id="line2d_9">
    <path d="M 96.710513 189.150251 
" clip-path="url(#pef7e6895c7)" style="fill: none; stroke: #3f3f3f; stroke-width: 1.5; stroke-linecap: round"/>
    <defs>
     <path id="mc7b82ee2d1" d="M 2.34375 0 
L -2.34375 -0 
" style="stroke: #ffffff; stroke-width: 1.125"/>
    </defs>
    <g clip-path="url(#pef7e6895c7)">
     <use xlink:href="#mc7b82ee2d1" x="96.710513" y="189.150251" style="fill: #ffffff; stroke: #ffffff; stroke-width: 1.125"/>
    </g>
   </g>
   <g id="line2d_10">
    <path d="M 162.066263 211.706729 
L 162.066263 110.202577 
" clip-path="url(#pef7e6895c7)" style="fill: none; stroke: #3f3f3f; stroke-width: 1.875; stroke-linecap: round"/>
   </g>
   <g id="line2d_11">
    <path d="M 162.066263 177.872012 
L 162.066263 144.037294 
" clip-path="url(#pef7e6895c7)" style="fill: none; stroke: #3f3f3f; stroke-width: 5.625; stroke-linecap: round"/>
   </g>
   <g id="line2d_12">
    <path d="M 162.066263 160.954653 
" clip-path="url(#pef7e6895c7)" style="fill: none; stroke: #3f3f3f; stroke-width: 1.5; stroke-linecap: round"/>
    <g clip-path="url(#pef7e6895c7)">
     <use xlink:href="#mc7b82ee2d1" x="162.066263" y="160.954653" style="fill: #ffffff; stroke: #ffffff; stroke-width: 1.125"/>
    </g>
   </g>
   <g id="line2d_13">
    <path d="M 260.099889 234.263207 
L 260.099889 121.480816 
" clip-path="url(#pef7e6895c7)" style="fill: none; stroke: #3f3f3f; stroke-width: 1.875; stroke-linecap: round"/>
   </g>
   <g id="line2d_14">
    <path d="M 260.099889 191.96981 
L 260.099889 160.954653 
" clip-path="url(#pef7e6895c7)" style="fill: none; stroke: #3f3f3f; stroke-width: 5.625; stroke-linecap: round"/>
   </g>
   <g id="line2d_15">
    <path d="M 260.099889 177.872012 
" clip-path="url(#pef7e6895c7)" style="fill: none; stroke: #3f3f3f; stroke-width: 1.5; stroke-linecap: round"/>
    <g clip-path="url(#pef7e6895c7)">
     <use xlink:href="#mc7b82ee2d1" x="260.099889" y="177.872012" style="fill: #ffffff; stroke: #ffffff; stroke-width: 1.125"/>
    </g>
   </g>
   <g id="line2d_16">
    <path d="M 325.455639 189.150251 
L 325.455639 87.646099 
" clip-path="url(#pef7e6895c7)" style="fill: none; stroke: #3f3f3f; stroke-width: 1.875; stroke-linecap: round"/>
   </g>
   <g id="line2d_17">
    <path d="M 325.455639 155.315534 
L 325.455639 118.661257 
" clip-path="url(#pef7e6895c7)" style="fill: none; stroke: #3f3f3f; stroke-width: 5.625; stroke-linecap: round"/>
   </g>
   <g id="line2d_18">
    <path d="M 325.455639 138.398175 
" clip-path="url(#pef7e6895c7)" style="fill: none; stroke: #3f3f3f; stroke-width: 1.5; stroke-linecap: round"/>
    <g clip-path="url(#pef7e6895c7)">
     <use xlink:href="#mc7b82ee2d1" x="325.455639" y="138.398175" style="fill: #ffffff; stroke: #ffffff; stroke-width: 1.125"/>
    </g>
   </g>
   <g id="patch_3">
    <path d="M 47.6937 318.04 
L 47.6937 24.72 
" style="fill: none; stroke: #cccccc; stroke-width: 0.8; stroke-linejoin: miter; stroke-linecap: square"/>
   </g>
   <g id="patch_4">
    <path d="M 47.6937 318.04 
L 374.472452 318.04 
" style="fill: none; stroke: #cccccc; stroke-width: 0.8; stroke-linejoin: miter; stroke-linecap: square"/>
   </g>
   <g id="text_11">
    <!-- sex = m -->
    <g style="fill: #262626" transform="translate(193.439326 18.72) scale(0.1 -0.1)">
     <defs>
      <path id="ArialMT-78" d="M 47 0 
L 1259 1725 
L 138 3319 
L 841 3319 
L 1350 2541 
Q 1494 2319 1581 2169 
Q 1719 2375 1834 2534 
L 2394 3319 
L 3066 3319 
L 1919 1756 
L 3153 0 
L 2463 0 
L 1781 1031 
L 1600 1309 
L 728 0 
L 47 0 
z
" transform="scale(0.015625)"/>
      <path id="ArialMT-3d" d="M 3381 2694 
L 356 2694 
L 356 3219 
L 3381 3219 
L 3381 2694 
z
M 3381 1303 
L 356 1303 
L 356 1828 
L 3381 1828 
L 3381 1303 
z
" transform="scale(0.015625)"/>
     </defs>
     <use xlink:href="#ArialMT-73"/>
     <use xlink:href="#ArialMT-65" x="50"/>
     <use xlink:href="#ArialMT-78" x="105.615234"/>
     <use xlink:href="#ArialMT-20" x="155.615234"/>
     <use xlink:href="#ArialMT-3d" x="183.398438"/>
     <use xlink:href="#ArialMT-20" x="241.796875"/>
     <use xlink:href="#ArialMT-6d" x="269.580078"/>
    </g>
   </g>
  </g>
  <g id="axes_2">
   <g id="patch_5">
    <path d="M 385.242748 318.04 
L 712.0215 318.04 
L 712.0215 24.72 
L 385.242748 24.72 
z
" style="fill: #ffffff"/>
   </g>
   <g id="matplotlib.axis_3">
    <g id="xtick_3">
     <g id="text_12">
      <!-- Control -->
      <g style="fill: #262626" transform="translate(450.820248 332.197812) scale(0.1 -0.1)">
       <use xlink:href="#ArialMT-43"/>
       <use xlink:href="#ArialMT-6f" x="72.216797"/>
       <use xlink:href="#ArialMT-6e" x="127.832031"/>
       <use xlink:href="#ArialMT-74" x="183.447266"/>
       <use xlink:href="#ArialMT-72" x="211.230469"/>
       <use xlink:href="#ArialMT-6f" x="244.53125"/>
       <use xlink:href="#ArialMT-6c" x="300.146484"/>
      </g>
     </g>
    </g>
    <g id="xtick_4">
     <g id="text_13">
      <!-- Test -->
      <g style="fill: #262626" transform="translate(621.159624 332.197812) scale(0.1 -0.1)">
       <use xlink:href="#ArialMT-54"/>
       <use xlink:href="#ArialMT-65" x="49.958984"/>
       <use xlink:href="#ArialMT-73" x="105.574219"/>
       <use xlink:href="#ArialMT-74" x="155.574219"/>
      </g>
     </g>
    </g>
    <g id="text_14">
     <!-- group -->
     <g style="fill: #262626" transform="translate(535.845405 345.225938) scale(0.1 -0.1)">
      <use xlink:href="#ArialMT-67"/>
      <use xlink:href="#ArialMT-72" x="55.615234"/>
      <use xlink:href="#ArialMT-6f" x="88.916016"/>
      <use xlink:href="#ArialMT-75" x="144.53125"/>
      <use xlink:href="#ArialMT-70" x="200.146484"/>
     </g>
    </g>
   </g>
   <g id="matplotlib.axis_4">
    <g id="ytick_7">
     <g id="line2d_19">
      <path d="M 385.242748 313.21088 
L 712.0215 313.21088 
" clip-path="url(#pbb1bb3e0c8)" style="fill: none; stroke: #cccccc; stroke-width: 0.8; stroke-linecap: round"/>
     </g>
    </g>
    <g id="ytick_8">
     <g id="line2d_20">
      <path d="M 385.242748 256.819685 
L 712.0215 256.819685 
" clip-path="url(#pbb1bb3e0c8)" style="fill: none; stroke: #cccccc; stroke-width: 0.8; stroke-linecap: round"/>
     </g>
    </g>
    <g id="ytick_9">
     <g id="line2d_21">
      <path d="M 385.242748 200.42849 
L 712.0215 200.42849 
" clip-path="url(#pbb1bb3e0c8)" style="fill: none; stroke: #cccccc; stroke-width: 0.8; stroke-linecap: round"/>
     </g>
    </g>
    <g id="ytick_10">
     <g id="line2d_22">
      <path d="M 385.242748 144.037294 
L 712.0215 144.037294 
" clip-path="url(#pbb1bb3e0c8)" style="fill: none; stroke: #cccccc; stroke-width: 0.8; stroke-linecap: round"/>
     </g>
    </g>
    <g id="ytick_11">
     <g id="line2d_23">
      <path d="M 385.242748 87.646099 
L 712.0215 87.646099 
" clip-path="url(#pbb1bb3e0c8)" style="fill: none; stroke: #cccccc; stroke-width: 0.8; stroke-linecap: round"/>
     </g>
    </g>
    <g id="ytick_12">
     <g id="line2d_24">
      <path d="M 385.242748 31.254904 
L 712.0215 31.254904 
" clip-path="url(#pbb1bb3e0c8)" style="fill: none; stroke: #cccccc; stroke-width: 0.8; stroke-linecap: round"/>
     </g>
    </g>
   </g>
   <g id="PolyCollection_5">
    <defs>
     <path id="mf965523b07" d="M 434.834005 -78.787671 
L 433.685116 -78.787671 
L 433.563493 -80.533589 
L 433.423965 -82.279507 
L 433.265744 -84.025426 
L 433.088417 -85.771344 
L 432.892008 -87.517263 
L 432.67703 -89.263181 
L 432.44451 -91.009099 
L 432.195985 -92.755018 
L 431.933457 -94.500936 
L 431.65931 -96.246854 
L 431.376187 -97.992773 
L 431.086818 -99.738691 
L 430.793817 -101.484609 
L 430.499447 -103.230528 
L 430.205369 -104.976446 
L 429.912386 -106.722365 
L 429.620205 -108.468283 
L 429.327226 -110.214201 
L 429.030394 -111.96012 
L 428.725106 -113.706038 
L 428.405219 -115.451956 
L 428.063141 -117.197875 
L 427.690037 -118.943793 
L 427.276131 -120.689711 
L 426.811111 -122.43563 
L 426.284622 -124.181548 
L 425.686816 -125.927467 
L 425.008958 -127.673385 
L 424.244027 -129.419303 
L 423.387312 -131.165222 
L 422.436936 -132.91114 
L 421.394299 -134.657058 
L 420.264389 -136.402977 
L 419.055944 -138.148895 
L 417.781444 -139.894813 
L 416.456912 -141.640732 
L 415.10153 -143.38665 
L 413.737071 -145.132569 
L 412.387175 -146.878487 
L 411.076486 -148.624405 
L 409.829699 -150.370324 
L 408.670564 -152.116242 
L 407.620886 -153.86216 
L 406.699589 -155.608079 
L 405.921888 -157.353997 
L 405.298618 -159.099915 
L 404.835761 -160.845834 
L 404.534198 -162.591752 
L 404.3897 -164.337671 
L 404.393166 -166.083589 
L 404.53109 -167.829507 
L 404.786229 -169.575426 
L 405.138446 -171.321344 
L 405.565666 -173.067262 
L 406.044907 -174.813181 
L 406.553313 -176.559099 
L 407.069162 -178.305017 
L 407.57277 -180.050936 
L 408.047278 -181.796854 
L 408.47926 -183.542773 
L 408.859167 -185.288691 
L 409.181562 -187.034609 
L 409.445165 -188.780528 
L 409.652719 -190.526446 
L 409.810685 -192.272364 
L 409.928795 -194.018283 
L 410.019487 -195.764201 
L 410.097261 -197.510119 
L 410.177968 -199.256038 
L 410.278082 -201.001956 
L 410.413966 -202.747875 
L 410.601171 -204.493793 
L 410.853786 -206.239711 
L 411.183861 -207.98563 
L 411.600928 -209.731548 
L 412.11162 -211.477466 
L 412.71943 -213.223385 
L 413.424585 -214.969303 
L 414.224062 -216.715221 
L 415.11173 -218.46114 
L 416.078627 -220.207058 
L 417.113332 -221.952977 
L 418.202442 -223.698895 
L 419.331112 -225.444813 
L 420.483632 -227.190732 
L 421.644023 -228.93665 
L 422.796611 -230.682568 
L 423.926559 -232.428487 
L 425.020325 -234.174405 
L 426.066048 -235.920323 
L 427.053814 -237.666242 
L 427.975838 -239.41216 
L 428.826522 -241.158079 
L 429.60243 -242.903997 
L 430.302167 -244.649915 
L 430.926188 -246.395834 
L 431.476559 -248.141752 
L 431.95668 -249.88767 
L 432.370987 -251.633589 
L 436.148134 -251.633589 
L 436.148134 -251.633589 
L 436.562441 -249.88767 
L 437.042562 -248.141752 
L 437.592934 -246.395834 
L 438.216955 -244.649915 
L 438.916691 -242.903997 
L 439.692599 -241.158079 
L 440.543283 -239.41216 
L 441.465307 -237.666242 
L 442.453074 -235.920323 
L 443.498796 -234.174405 
L 444.592563 -232.428487 
L 445.72251 -230.682568 
L 446.875098 -228.93665 
L 448.03549 -227.190732 
L 449.18801 -225.444813 
L 450.316679 -223.698895 
L 451.40579 -221.952977 
L 452.440494 -220.207058 
L 453.407391 -218.46114 
L 454.29506 -216.715221 
L 455.094536 -214.969303 
L 455.799691 -213.223385 
L 456.407502 -211.477466 
L 456.918194 -209.731548 
L 457.33526 -207.98563 
L 457.665336 -206.239711 
L 457.917951 -204.493793 
L 458.105156 -202.747875 
L 458.24104 -201.001956 
L 458.341153 -199.256038 
L 458.42186 -197.510119 
L 458.499634 -195.764201 
L 458.590327 -194.018283 
L 458.708436 -192.272364 
L 458.866402 -190.526446 
L 459.073956 -188.780528 
L 459.337559 -187.034609 
L 459.659954 -185.288691 
L 460.039861 -183.542773 
L 460.471844 -181.796854 
L 460.946351 -180.050936 
L 461.44996 -178.305017 
L 461.965808 -176.559099 
L 462.474215 -174.813181 
L 462.953455 -173.067262 
L 463.380676 -171.321344 
L 463.732893 -169.575426 
L 463.988032 -167.829507 
L 464.125955 -166.083589 
L 464.129422 -164.337671 
L 463.984924 -162.591752 
L 463.683361 -160.845834 
L 463.220504 -159.099915 
L 462.597234 -157.353997 
L 461.819532 -155.608079 
L 460.898235 -153.86216 
L 459.848557 -152.116242 
L 458.689422 -150.370324 
L 457.442636 -148.624405 
L 456.131946 -146.878487 
L 454.78205 -145.132569 
L 453.417591 -143.38665 
L 452.062209 -141.640732 
L 450.737678 -139.894813 
L 449.463178 -138.148895 
L 448.254733 -136.402977 
L 447.124822 -134.657058 
L 446.082185 -132.91114 
L 445.13181 -131.165222 
L 444.275094 -129.419303 
L 443.510164 -127.673385 
L 442.832305 -125.927467 
L 442.234499 -124.181548 
L 441.70801 -122.43563 
L 441.242991 -120.689711 
L 440.829085 -118.943793 
L 440.45598 -117.197875 
L 440.113903 -115.451956 
L 439.794015 -113.706038 
L 439.488728 -111.96012 
L 439.191895 -110.214201 
L 438.898917 -108.468283 
L 438.606735 -106.722365 
L 438.313752 -104.976446 
L 438.019674 -103.230528 
L 437.725305 -101.484609 
L 437.432304 -99.738691 
L 437.142935 -97.992773 
L 436.859812 -96.246854 
L 436.585665 -94.500936 
L 436.323136 -92.755018 
L 436.074611 -91.009099 
L 435.842092 -89.263181 
L 435.627113 -87.517263 
L 435.430704 -85.771344 
L 435.253377 -84.025426 
L 435.095157 -82.279507 
L 434.955628 -80.533589 
L 434.834005 -78.787671 
z
" style="stroke: #3f3f3f; stroke-width: 1.25"/>
    </defs>
    <g clip-path="url(#pbb1bb3e0c8)">
     <use xlink:href="#mf965523b07" x="0" y="360" style="fill: #3274a1; stroke: #3f3f3f; stroke-width: 1.25"/>
    </g>
   </g>
   <g id="PolyCollection_6">
    <defs>
     <path id="mcbb0b62c7c" d="M 500.281093 -97.024158 
L 498.94953 -97.024158 
L 498.802863 -98.97127 
L 498.632086 -100.918383 
L 498.435071 -102.865495 
L 498.209844 -104.812608 
L 497.954634 -106.759721 
L 497.667914 -108.706833 
L 497.348435 -110.653946 
L 496.995232 -112.601058 
L 496.607625 -114.548171 
L 496.185184 -116.495283 
L 495.727689 -118.442396 
L 495.235061 -120.389508 
L 494.707295 -122.336621 
L 494.144383 -124.283733 
L 493.546239 -126.230846 
L 492.912653 -128.177958 
L 492.24325 -130.125071 
L 491.5375 -132.072183 
L 490.794754 -134.019296 
L 490.014325 -135.966408 
L 489.195612 -137.913521 
L 488.338253 -139.860633 
L 487.442312 -141.807746 
L 486.50847 -143.754858 
L 485.538222 -145.701971 
L 484.534052 -147.649083 
L 483.499571 -149.596196 
L 482.439601 -151.543308 
L 481.360204 -153.490421 
L 480.268624 -155.437533 
L 479.173174 -157.384646 
L 478.083029 -159.331758 
L 477.007977 -161.278871 
L 475.958114 -163.225983 
L 474.943512 -165.173096 
L 473.973881 -167.120208 
L 473.05825 -169.067321 
L 472.20469 -171.014433 
L 471.420084 -172.961546 
L 470.709981 -174.908659 
L 470.078522 -176.855771 
L 469.528444 -178.802884 
L 469.061164 -180.749996 
L 468.676921 -182.697109 
L 468.374965 -184.644221 
L 468.15376 -186.591334 
L 468.011205 -188.538446 
L 467.944818 -190.485559 
L 467.951891 -192.432671 
L 468.029594 -194.379784 
L 468.175017 -196.326896 
L 468.385158 -198.274009 
L 468.656862 -200.221121 
L 468.98672 -202.168234 
L 469.37096 -204.115346 
L 469.805336 -206.062459 
L 470.285048 -208.009571 
L 470.804711 -209.956684 
L 471.35839 -211.903796 
L 471.939698 -213.850909 
L 472.541985 -215.798021 
L 473.158574 -217.745134 
L 473.783065 -219.692246 
L 474.409658 -221.639359 
L 475.033479 -223.586471 
L 475.650877 -225.533584 
L 476.259668 -227.480696 
L 476.859284 -229.427809 
L 477.450829 -231.374921 
L 478.037012 -233.322034 
L 478.621964 -235.269146 
L 479.210952 -237.216259 
L 479.80999 -239.163371 
L 480.425395 -241.110484 
L 481.063306 -243.057597 
L 481.729199 -245.004709 
L 482.427447 -246.951822 
L 483.160944 -248.898934 
L 483.930821 -250.846047 
L 484.736284 -252.793159 
L 485.574567 -254.740272 
L 486.441018 -256.687384 
L 487.329286 -258.634497 
L 488.231623 -260.581609 
L 489.139249 -262.528722 
L 490.042762 -264.475834 
L 490.932577 -266.422947 
L 491.799344 -268.370059 
L 492.634337 -270.317172 
L 493.429779 -272.264284 
L 494.179104 -274.211397 
L 494.877129 -276.158509 
L 495.520155 -278.105622 
L 496.105974 -280.052734 
L 496.633813 -281.999847 
L 497.10422 -283.946959 
L 497.518896 -285.894072 
L 497.880505 -287.841184 
L 498.192463 -289.788297 
L 501.038159 -289.788297 
L 501.038159 -289.788297 
L 501.350117 -287.841184 
L 501.711726 -285.894072 
L 502.126403 -283.946959 
L 502.596809 -281.999847 
L 503.124649 -280.052734 
L 503.710467 -278.105622 
L 504.353493 -276.158509 
L 505.051519 -274.211397 
L 505.800843 -272.264284 
L 506.596285 -270.317172 
L 507.431278 -268.370059 
L 508.298045 -266.422947 
L 509.187861 -264.475834 
L 510.091374 -262.528722 
L 510.998999 -260.581609 
L 511.901336 -258.634497 
L 512.789605 -256.687384 
L 513.656055 -254.740272 
L 514.494339 -252.793159 
L 515.299802 -250.846047 
L 516.069679 -248.898934 
L 516.803175 -246.951822 
L 517.501423 -245.004709 
L 518.167316 -243.057597 
L 518.805227 -241.110484 
L 519.420633 -239.163371 
L 520.019671 -237.216259 
L 520.608658 -235.269146 
L 521.193611 -233.322034 
L 521.779793 -231.374921 
L 522.371338 -229.427809 
L 522.970954 -227.480696 
L 523.579745 -225.533584 
L 524.197143 -223.586471 
L 524.820964 -221.639359 
L 525.447557 -219.692246 
L 526.072048 -217.745134 
L 526.688637 -215.798021 
L 527.290924 -213.850909 
L 527.872233 -211.903796 
L 528.425911 -209.956684 
L 528.945574 -208.009571 
L 529.425286 -206.062459 
L 529.859662 -204.115346 
L 530.243902 -202.168234 
L 530.57376 -200.221121 
L 530.845464 -198.274009 
L 531.055605 -196.326896 
L 531.201028 -194.379784 
L 531.278731 -192.432671 
L 531.285804 -190.485559 
L 531.219417 -188.538446 
L 531.076862 -186.591334 
L 530.855658 -184.644221 
L 530.553701 -182.697109 
L 530.169458 -180.749996 
L 529.702179 -178.802884 
L 529.1521 -176.855771 
L 528.520641 -174.908659 
L 527.810538 -172.961546 
L 527.025932 -171.014433 
L 526.172372 -169.067321 
L 525.256741 -167.120208 
L 524.28711 -165.173096 
L 523.272508 -163.225983 
L 522.222645 -161.278871 
L 521.147594 -159.331758 
L 520.057449 -157.384646 
L 518.961998 -155.437533 
L 517.870419 -153.490421 
L 516.791021 -151.543308 
L 515.731052 -149.596196 
L 514.69657 -147.649083 
L 513.6924 -145.701971 
L 512.722153 -143.754858 
L 511.78831 -141.807746 
L 510.892369 -139.860633 
L 510.03501 -137.913521 
L 509.216297 -135.966408 
L 508.435868 -134.019296 
L 507.693122 -132.072183 
L 506.987372 -130.125071 
L 506.31797 -128.177958 
L 505.684383 -126.230846 
L 505.08624 -124.283733 
L 504.523327 -122.336621 
L 503.995561 -120.389508 
L 503.502934 -118.442396 
L 503.045438 -116.495283 
L 502.622997 -114.548171 
L 502.23539 -112.601058 
L 501.882188 -110.653946 
L 501.562708 -108.706833 
L 501.275988 -106.759721 
L 501.020778 -104.812608 
L 500.795551 -102.865495 
L 500.598537 -100.918383 
L 500.427759 -98.97127 
L 500.281093 -97.024158 
z
" style="stroke: #3f3f3f; stroke-width: 1.25"/>
    </defs>
    <g clip-path="url(#pbb1bb3e0c8)">
     <use xlink:href="#mcbb0b62c7c" x="0" y="360" style="fill: #e1812c; stroke: #3f3f3f; stroke-width: 1.25"/>
    </g>
   </g>
   <g id="PolyCollection_7">
    <defs>
     <path id="m820a489166" d="M 600.209889 -117.73827 
L 595.087984 -117.73827 
L 594.558935 -119.152994 
L 593.95043 -120.567718 
L 593.257317 -121.982442 
L 592.475546 -123.397166 
L 591.602464 -124.81189 
L 590.637107 -126.226614 
L 589.580456 -127.641338 
L 588.435643 -129.056062 
L 587.208099 -130.470786 
L 585.90561 -131.88551 
L 584.538292 -133.300234 
L 583.118454 -134.714958 
L 581.66037 -136.129682 
L 580.179937 -137.544406 
L 578.694254 -138.95913 
L 577.221123 -140.373854 
L 575.778494 -141.788578 
L 574.383887 -143.203302 
L 573.053808 -144.618026 
L 571.803202 -146.03275 
L 570.644957 -147.447474 
L 569.589497 -148.862198 
L 568.644472 -150.276922 
L 567.814581 -151.691646 
L 567.101508 -153.10637 
L 566.504 -154.521094 
L 566.018062 -155.935818 
L 565.637268 -157.350542 
L 565.353162 -158.765266 
L 565.15573 -160.17999 
L 565.033926 -161.594714 
L 564.976205 -163.009438 
L 564.971062 -164.424162 
L 565.007531 -165.838886 
L 565.075644 -167.25361 
L 565.166811 -168.668334 
L 565.274122 -170.083058 
L 565.392555 -171.497782 
L 565.519091 -172.912506 
L 565.65273 -174.32723 
L 565.79441 -175.741954 
L 565.94684 -177.156678 
L 566.114256 -178.571402 
L 566.302112 -179.986126 
L 566.516707 -181.40085 
L 566.764795 -182.815574 
L 567.053157 -184.230298 
L 567.388184 -185.645022 
L 567.77547 -187.059746 
L 568.219449 -188.47447 
L 568.723074 -189.889194 
L 569.287572 -191.303918 
L 569.91228 -192.718642 
L 570.594569 -194.133366 
L 571.329868 -195.54809 
L 572.111781 -196.962814 
L 572.932307 -198.377538 
L 573.782136 -199.792262 
L 574.651022 -201.206986 
L 575.52821 -202.62171 
L 576.402891 -204.036434 
L 577.264671 -205.451158 
L 578.10402 -206.865882 
L 578.912678 -208.280606 
L 579.684002 -209.69533 
L 580.413225 -211.110054 
L 581.097622 -212.524778 
L 581.736561 -213.939502 
L 582.331458 -215.354226 
L 582.885608 -216.76895 
L 583.403938 -218.183674 
L 583.892664 -219.598398 
L 584.358904 -221.013122 
L 584.810244 -222.427846 
L 585.254298 -223.84257 
L 585.698285 -225.257294 
L 586.148642 -226.672018 
L 586.610703 -228.086742 
L 587.088449 -229.501466 
L 587.58435 -230.91619 
L 588.099293 -232.330914 
L 588.632604 -233.745638 
L 589.182159 -235.160362 
L 589.744557 -236.575086 
L 590.315359 -237.98981 
L 590.88936 -239.404534 
L 591.460885 -240.819258 
L 592.024085 -242.233982 
L 592.573218 -243.648706 
L 593.102898 -245.06343 
L 593.608308 -246.478154 
L 594.08536 -247.892878 
L 594.530808 -249.307602 
L 594.9423 -250.722326 
L 595.318394 -252.13705 
L 595.65852 -253.551774 
L 595.962912 -254.966498 
L 596.232508 -256.381222 
L 596.468843 -257.795946 
L 598.82903 -257.795946 
L 598.82903 -257.795946 
L 599.065365 -256.381222 
L 599.334962 -254.966498 
L 599.639353 -253.551774 
L 599.979479 -252.13705 
L 600.355573 -250.722326 
L 600.767066 -249.307602 
L 601.212513 -247.892878 
L 601.689566 -246.478154 
L 602.194976 -245.06343 
L 602.724656 -243.648706 
L 603.273788 -242.233982 
L 603.836988 -240.819258 
L 604.408514 -239.404534 
L 604.982515 -237.98981 
L 605.553317 -236.575086 
L 606.115715 -235.160362 
L 606.66527 -233.745638 
L 607.198581 -232.330914 
L 607.713523 -230.91619 
L 608.209424 -229.501466 
L 608.687171 -228.086742 
L 609.149232 -226.672018 
L 609.599589 -225.257294 
L 610.043575 -223.84257 
L 610.487629 -222.427846 
L 610.938969 -221.013122 
L 611.40521 -219.598398 
L 611.893936 -218.183674 
L 612.412265 -216.76895 
L 612.966415 -215.354226 
L 613.561312 -213.939502 
L 614.200252 -212.524778 
L 614.884648 -211.110054 
L 615.613871 -209.69533 
L 616.385195 -208.280606 
L 617.193853 -206.865882 
L 618.033202 -205.451158 
L 618.894983 -204.036434 
L 619.769664 -202.62171 
L 620.646851 -201.206986 
L 621.515737 -199.792262 
L 622.365566 -198.377538 
L 623.186092 -196.962814 
L 623.968006 -195.54809 
L 624.703304 -194.133366 
L 625.385594 -192.718642 
L 626.010302 -191.303918 
L 626.5748 -189.889194 
L 627.078424 -188.47447 
L 627.522403 -187.059746 
L 627.90969 -185.645022 
L 628.244717 -184.230298 
L 628.533079 -182.815574 
L 628.781166 -181.40085 
L 628.995762 -179.986126 
L 629.183617 -178.571402 
L 629.351034 -177.156678 
L 629.503464 -175.741954 
L 629.645143 -174.32723 
L 629.778782 -172.912506 
L 629.905319 -171.497782 
L 630.023752 -170.083058 
L 630.131062 -168.668334 
L 630.222229 -167.25361 
L 630.290343 -165.838886 
L 630.326812 -164.424162 
L 630.321668 -163.009438 
L 630.263947 -161.594714 
L 630.142143 -160.17999 
L 629.944712 -158.765266 
L 629.660605 -157.350542 
L 629.279812 -155.935818 
L 628.793874 -154.521094 
L 628.196366 -153.10637 
L 627.483293 -151.691646 
L 626.653401 -150.276922 
L 625.708377 -148.862198 
L 624.652916 -147.447474 
L 623.494671 -146.03275 
L 622.244065 -144.618026 
L 620.913987 -143.203302 
L 619.519379 -141.788578 
L 618.076751 -140.373854 
L 616.60362 -138.95913 
L 615.117937 -137.544406 
L 613.637503 -136.129682 
L 612.179419 -134.714958 
L 610.759582 -133.300234 
L 609.392264 -131.88551 
L 608.089775 -130.470786 
L 606.86223 -129.056062 
L 605.717418 -127.641338 
L 604.660766 -126.226614 
L 603.695409 -124.81189 
L 602.822327 -123.397166 
L 602.040556 -121.982442 
L 601.347444 -120.567718 
L 600.738938 -119.152994 
L 600.209889 -117.73827 
z
" style="stroke: #3f3f3f; stroke-width: 1.25"/>
    </defs>
    <g clip-path="url(#pbb1bb3e0c8)">
     <use xlink:href="#m820a489166" x="0" y="360" style="fill: #3274a1; stroke: #3f3f3f; stroke-width: 1.25"/>
    </g>
   </g>
   <g id="PolyCollection_8">
    <defs>
     <path id="mdd914cc1f8" d="M 664.5066 -131.876054 
L 661.502774 -131.876054 
L 661.170714 -133.688696 
L 660.78205 -135.501338 
L 660.331062 -137.31398 
L 659.81227 -139.126621 
L 659.22063 -140.939263 
L 658.551733 -142.751905 
L 657.802024 -144.564547 
L 656.969009 -146.377189 
L 656.05146 -148.189831 
L 655.0496 -150.002472 
L 653.965262 -151.815114 
L 652.802008 -153.627756 
L 651.565213 -155.440398 
L 650.262095 -157.25304 
L 648.901686 -159.065682 
L 647.494759 -160.878323 
L 646.053691 -162.690965 
L 644.592272 -164.503607 
L 643.125463 -166.316249 
L 641.66911 -168.128891 
L 640.239625 -169.941533 
L 638.853621 -171.754175 
L 637.527548 -173.566816 
L 636.277298 -175.379458 
L 635.117827 -177.1921 
L 634.062775 -179.004742 
L 633.124117 -180.817384 
L 632.311839 -182.630026 
L 631.633667 -184.442667 
L 631.094843 -186.255309 
L 630.697968 -188.067951 
L 630.442913 -189.880593 
L 630.326812 -191.693235 
L 630.344133 -193.505877 
L 630.486832 -195.318518 
L 630.744589 -197.13116 
L 631.105109 -198.943802 
L 631.554503 -200.756444 
L 632.077702 -202.569086 
L 632.658916 -204.381728 
L 633.282107 -206.194369 
L 633.93146 -208.007011 
L 634.591825 -209.819653 
L 635.249126 -211.632295 
L 635.890707 -213.444937 
L 636.50561 -215.257579 
L 637.084773 -217.07022 
L 637.621152 -218.882862 
L 638.109761 -220.695504 
L 638.547632 -222.508146 
L 638.933726 -224.320788 
L 639.268779 -226.13343 
L 639.555123 -227.946072 
L 639.796477 -229.758713 
L 639.997737 -231.571355 
L 640.164765 -233.383997 
L 640.30419 -235.196639 
L 640.42323 -237.009281 
L 640.529528 -238.821923 
L 640.631003 -240.634564 
L 640.735723 -242.447206 
L 640.851772 -244.259848 
L 640.987128 -246.07249 
L 641.14953 -247.885132 
L 641.346339 -249.697774 
L 641.584388 -251.510415 
L 641.869822 -253.323057 
L 642.207931 -255.135699 
L 642.602983 -256.948341 
L 643.058072 -258.760983 
L 643.574978 -260.573625 
L 644.154059 -262.386266 
L 644.794184 -264.198908 
L 645.492707 -266.01155 
L 646.245502 -267.824192 
L 647.04704 -269.636834 
L 647.890538 -271.449476 
L 648.768134 -273.262117 
L 649.671126 -275.074759 
L 650.590229 -276.887401 
L 651.515852 -278.700043 
L 652.438392 -280.512685 
L 653.348508 -282.325327 
L 654.237382 -284.137969 
L 655.096952 -285.95061 
L 655.9201 -287.763252 
L 656.700797 -289.575894 
L 657.434202 -291.388536 
L 658.116704 -293.201178 
L 658.745923 -295.01382 
L 659.320667 -296.826461 
L 659.840844 -298.639103 
L 660.307357 -300.451745 
L 660.721962 -302.264387 
L 661.087127 -304.077029 
L 661.405876 -305.889671 
L 661.681636 -307.702312 
L 661.918095 -309.514954 
L 662.119065 -311.327596 
L 663.890309 -311.327596 
L 663.890309 -311.327596 
L 664.09128 -309.514954 
L 664.327738 -307.702312 
L 664.603498 -305.889671 
L 664.922247 -304.077029 
L 665.287413 -302.264387 
L 665.702018 -300.451745 
L 666.16853 -298.639103 
L 666.688707 -296.826461 
L 667.263451 -295.01382 
L 667.892671 -293.201178 
L 668.575173 -291.388536 
L 669.308577 -289.575894 
L 670.089275 -287.763252 
L 670.912422 -285.95061 
L 671.771992 -284.137969 
L 672.660866 -282.325327 
L 673.570982 -280.512685 
L 674.493522 -278.700043 
L 675.419146 -276.887401 
L 676.338248 -275.074759 
L 677.24124 -273.262117 
L 678.118837 -271.449476 
L 678.962334 -269.636834 
L 679.763873 -267.824192 
L 680.516667 -266.01155 
L 681.21519 -264.198908 
L 681.855315 -262.386266 
L 682.434396 -260.573625 
L 682.951302 -258.760983 
L 683.406392 -256.948341 
L 683.801444 -255.135699 
L 684.139552 -253.323057 
L 684.424986 -251.510415 
L 684.663035 -249.697774 
L 684.859845 -247.885132 
L 685.022246 -246.07249 
L 685.157602 -244.259848 
L 685.273651 -242.447206 
L 685.378371 -240.634564 
L 685.479847 -238.821923 
L 685.586144 -237.009281 
L 685.705184 -235.196639 
L 685.84461 -233.383997 
L 686.011637 -231.571355 
L 686.212897 -229.758713 
L 686.454251 -227.946072 
L 686.740595 -226.13343 
L 687.075649 -224.320788 
L 687.461743 -222.508146 
L 687.899614 -220.695504 
L 688.388222 -218.882862 
L 688.924602 -217.07022 
L 689.503765 -215.257579 
L 690.118667 -213.444937 
L 690.760248 -211.632295 
L 691.41755 -209.819653 
L 692.077915 -208.007011 
L 692.727267 -206.194369 
L 693.350459 -204.381728 
L 693.931672 -202.569086 
L 694.454871 -200.756444 
L 694.904265 -198.943802 
L 695.264786 -197.13116 
L 695.522542 -195.318518 
L 695.665241 -193.505877 
L 695.682562 -191.693235 
L 695.566461 -189.880593 
L 695.311406 -188.067951 
L 694.914531 -186.255309 
L 694.375708 -184.442667 
L 693.697536 -182.630026 
L 692.885258 -180.817384 
L 691.946599 -179.004742 
L 690.891547 -177.1921 
L 689.732076 -175.379458 
L 688.481827 -173.566816 
L 687.155753 -171.754175 
L 685.76975 -169.941533 
L 684.340264 -168.128891 
L 682.883912 -166.316249 
L 681.417102 -164.503607 
L 679.955683 -162.690965 
L 678.514615 -160.878323 
L 677.107689 -159.065682 
L 675.74728 -157.25304 
L 674.444161 -155.440398 
L 673.207367 -153.627756 
L 672.044113 -151.815114 
L 670.959774 -150.002472 
L 669.957914 -148.189831 
L 669.040365 -146.377189 
L 668.20735 -144.564547 
L 667.457641 -142.751905 
L 666.788744 -140.939263 
L 666.197104 -139.126621 
L 665.678312 -137.31398 
L 665.227324 -135.501338 
L 664.838661 -133.688696 
L 664.5066 -131.876054 
z
" style="stroke: #3f3f3f; stroke-width: 1.25"/>
    </defs>
    <g clip-path="url(#pbb1bb3e0c8)">
     <use xlink:href="#mdd914cc1f8" x="0" y="360" style="fill: #e1812c; stroke: #3f3f3f; stroke-width: 1.25"/>
    </g>
   </g>
   <g id="patch_6">
    <path d="M 466.937436 482.384466 
L 466.937436 482.384466 
L 466.937436 482.384466 
L 466.937436 482.384466 
z
" clip-path="url(#pbb1bb3e0c8)" style="fill: #3274a1; stroke: #3f3f3f; stroke-width: 1.25; stroke-linejoin: miter"/>
   </g>
   <g id="patch_7">
    <path d="M 466.937436 482.384466 
L 466.937436 482.384466 
L 466.937436 482.384466 
L 466.937436 482.384466 
z
" clip-path="url(#pbb1bb3e0c8)" style="fill: #e1812c; stroke: #3f3f3f; stroke-width: 1.25; stroke-linejoin: miter"/>
   </g>
   <g id="line2d_25">
    <path d="M 434.259561 245.541446 
L 434.259561 144.037294 
" clip-path="url(#pbb1bb3e0c8)" style="fill: none; stroke: #3f3f3f; stroke-width: 1.875; stroke-linecap: round"/>
   </g>
   <g id="line2d_26">
    <path d="M 434.259561 200.42849 
L 434.259561 158.135093 
" clip-path="url(#pbb1bb3e0c8)" style="fill: none; stroke: #3f3f3f; stroke-width: 5.625; stroke-linecap: round"/>
   </g>
   <g id="line2d_27">
    <path d="M 434.259561 189.150251 
" clip-path="url(#pbb1bb3e0c8)" style="fill: none; stroke: #3f3f3f; stroke-width: 1.5; stroke-linecap: round"/>
    <g clip-path="url(#pbb1bb3e0c8)">
     <use xlink:href="#mc7b82ee2d1" x="434.259561" y="189.150251" style="fill: #ffffff; stroke: #ffffff; stroke-width: 1.125"/>
    </g>
   </g>
   <g id="line2d_28">
    <path d="M 499.615311 222.984968 
L 499.615311 110.202577 
" clip-path="url(#pbb1bb3e0c8)" style="fill: none; stroke: #3f3f3f; stroke-width: 1.875; stroke-linecap: round"/>
   </g>
   <g id="line2d_29">
    <path d="M 499.615311 186.330691 
L 499.615311 144.037294 
" clip-path="url(#pbb1bb3e0c8)" style="fill: none; stroke: #3f3f3f; stroke-width: 5.625; stroke-linecap: round"/>
   </g>
   <g id="line2d_30">
    <path d="M 499.615311 160.954653 
" clip-path="url(#pbb1bb3e0c8)" style="fill: none; stroke: #3f3f3f; stroke-width: 1.5; stroke-linecap: round"/>
    <g clip-path="url(#pbb1bb3e0c8)">
     <use xlink:href="#mc7b82ee2d1" x="499.615311" y="160.954653" style="fill: #ffffff; stroke: #ffffff; stroke-width: 1.125"/>
    </g>
   </g>
   <g id="line2d_31">
    <path d="M 597.648937 211.706729 
L 597.648937 132.759055 
" clip-path="url(#pbb1bb3e0c8)" style="fill: none; stroke: #3f3f3f; stroke-width: 1.875; stroke-linecap: round"/>
   </g>
   <g id="line2d_32">
    <path d="M 597.648937 203.24805 
L 597.648937 166.593773 
" clip-path="url(#pbb1bb3e0c8)" style="fill: none; stroke: #3f3f3f; stroke-width: 5.625; stroke-linecap: round"/>
   </g>
   <g id="line2d_33">
    <path d="M 597.648937 183.511131 
" clip-path="url(#pbb1bb3e0c8)" style="fill: none; stroke: #3f3f3f; stroke-width: 1.5; stroke-linecap: round"/>
    <g clip-path="url(#pbb1bb3e0c8)">
     <use xlink:href="#mc7b82ee2d1" x="597.648937" y="183.511131" style="fill: #ffffff; stroke: #ffffff; stroke-width: 1.125"/>
    </g>
   </g>
   <g id="line2d_34">
    <path d="M 663.004687 189.150251 
L 663.004687 87.646099 
" clip-path="url(#pbb1bb3e0c8)" style="fill: none; stroke: #3f3f3f; stroke-width: 1.875; stroke-linecap: round"/>
   </g>
   <g id="line2d_35">
    <path d="M 663.004687 169.413332 
L 663.004687 118.661257 
" clip-path="url(#pbb1bb3e0c8)" style="fill: none; stroke: #3f3f3f; stroke-width: 5.625; stroke-linecap: round"/>
   </g>
   <g id="line2d_36">
    <path d="M 663.004687 155.315534 
" clip-path="url(#pbb1bb3e0c8)" style="fill: none; stroke: #3f3f3f; stroke-width: 1.5; stroke-linecap: round"/>
    <g clip-path="url(#pbb1bb3e0c8)">
     <use xlink:href="#mc7b82ee2d1" x="663.004687" y="155.315534" style="fill: #ffffff; stroke: #ffffff; stroke-width: 1.125"/>
    </g>
   </g>
   <g id="patch_8">
    <path d="M 385.242748 318.04 
L 385.242748 24.72 
" style="fill: none; stroke: #cccccc; stroke-width: 0.8; stroke-linejoin: miter; stroke-linecap: square"/>
   </g>
   <g id="patch_9">
    <path d="M 385.242748 318.04 
L 712.0215 318.04 
" style="fill: none; stroke: #cccccc; stroke-width: 0.8; stroke-linejoin: miter; stroke-linecap: square"/>
   </g>
   <g id="text_15">
    <!-- sex = f -->
    <g style="fill: #262626" transform="translate(533.764155 18.72) scale(0.1 -0.1)">
     <defs>
      <path id="ArialMT-66" d="M 556 0 
L 556 2881 
L 59 2881 
L 59 3319 
L 556 3319 
L 556 3672 
Q 556 4006 616 4169 
Q 697 4388 901 4523 
Q 1106 4659 1475 4659 
Q 1713 4659 2000 4603 
L 1916 4113 
Q 1741 4144 1584 4144 
Q 1328 4144 1222 4034 
Q 1116 3925 1116 3625 
L 1116 3319 
L 1763 3319 
L 1763 2881 
L 1116 2881 
L 1116 0 
L 556 0 
z
" transform="scale(0.015625)"/>
     </defs>
     <use xlink:href="#ArialMT-73"/>
     <use xlink:href="#ArialMT-65" x="50"/>
     <use xlink:href="#ArialMT-78" x="105.615234"/>
     <use xlink:href="#ArialMT-20" x="155.615234"/>
     <use xlink:href="#ArialMT-3d" x="183.398438"/>
     <use xlink:href="#ArialMT-20" x="241.796875"/>
     <use xlink:href="#ArialMT-66" x="269.580078"/>
    </g>
   </g>
  </g>
  <g id="legend_1">
   <g id="text_16">
    <!-- time -->
    <g style="fill: #262626" transform="translate(744.563281 168.439844) scale(0.1 -0.1)">
     <use xlink:href="#ArialMT-74"/>
     <use xlink:href="#ArialMT-69" x="27.783203"/>
     <use xlink:href="#ArialMT-6d" x="50"/>
     <use xlink:href="#ArialMT-65" x="133.300781"/>
    </g>
   </g>
   <g id="patch_10">
    <path d="M 719.167187 182.585156 
L 739.167187 182.585156 
L 739.167187 175.585156 
L 719.167187 175.585156 
z
" style="fill: #3274a1; stroke: #3f3f3f; stroke-width: 1.25; stroke-linejoin: miter"/>
   </g>
   <g id="text_17">
    <!-- initial test -->
    <g style="fill: #262626" transform="translate(747.167187 182.585156) scale(0.1 -0.1)">
     <defs>
      <path id="ArialMT-61" d="M 2588 409 
Q 2275 144 1986 34 
Q 1697 -75 1366 -75 
Q 819 -75 525 192 
Q 231 459 231 875 
Q 231 1119 342 1320 
Q 453 1522 633 1644 
Q 813 1766 1038 1828 
Q 1203 1872 1538 1913 
Q 2219 1994 2541 2106 
Q 2544 2222 2544 2253 
Q 2544 2597 2384 2738 
Q 2169 2928 1744 2928 
Q 1347 2928 1158 2789 
Q 969 2650 878 2297 
L 328 2372 
Q 403 2725 575 2942 
Q 747 3159 1072 3276 
Q 1397 3394 1825 3394 
Q 2250 3394 2515 3294 
Q 2781 3194 2906 3042 
Q 3031 2891 3081 2659 
Q 3109 2516 3109 2141 
L 3109 1391 
Q 3109 606 3145 398 
Q 3181 191 3288 0 
L 2700 0 
Q 2613 175 2588 409 
z
M 2541 1666 
Q 2234 1541 1622 1453 
Q 1275 1403 1131 1340 
Q 988 1278 909 1158 
Q 831 1038 831 891 
Q 831 666 1001 516 
Q 1172 366 1500 366 
Q 1825 366 2078 508 
Q 2331 650 2450 897 
Q 2541 1088 2541 1459 
L 2541 1666 
z
" transform="scale(0.015625)"/>
     </defs>
     <use xlink:href="#ArialMT-69"/>
     <use xlink:href="#ArialMT-6e" x="22.216797"/>
     <use xlink:href="#ArialMT-69" x="77.832031"/>
     <use xlink:href="#ArialMT-74" x="100.048828"/>
     <use xlink:href="#ArialMT-69" x="127.832031"/>
     <use xlink:href="#ArialMT-61" x="150.048828"/>
     <use xlink:href="#ArialMT-6c" x="205.664062"/>
     <use xlink:href="#ArialMT-20" x="227.880859"/>
     <use xlink:href="#ArialMT-74" x="255.664062"/>
     <use xlink:href="#ArialMT-65" x="283.447266"/>
     <use xlink:href="#ArialMT-73" x="339.0625"/>
     <use xlink:href="#ArialMT-74" x="389.0625"/>
    </g>
   </g>
   <g id="patch_11">
    <path d="M 719.167187 196.730469 
L 739.167187 196.730469 
L 739.167187 189.730469 
L 719.167187 189.730469 
z
" style="fill: #e1812c; stroke: #3f3f3f; stroke-width: 1.25; stroke-linejoin: miter"/>
   </g>
   <g id="text_18">
    <!-- final test -->
    <g style="fill: #262626" transform="translate(747.167187 196.730469) scale(0.1 -0.1)">
     <use xlink:href="#ArialMT-66"/>
     <use xlink:href="#ArialMT-69" x="27.783203"/>
     <use xlink:href="#ArialMT-6e" x="50"/>
     <use xlink:href="#ArialMT-61" x="105.615234"/>
     <use xlink:href="#ArialMT-6c" x="161.230469"/>
     <use xlink:href="#ArialMT-20" x="183.447266"/>
     <use xlink:href="#ArialMT-74" x="211.230469"/>
     <use xlink:href="#ArialMT-65" x="239.013672"/>
     <use xlink:href="#ArialMT-73" x="294.628906"/>
     <use xlink:href="#ArialMT-74" x="344.628906"/>
    </g>
   </g>
  </g>
 </g>
 <defs>
  <clipPath id="pef7e6895c7">
   <rect x="47.6937" y="24.72" width="326.778752" height="293.32"/>
  </clipPath>
  <clipPath id="pbb1bb3e0c8">
   <rect x="385.242748" y="24.72" width="326.778752" height="293.32"/>
  </clipPath>
 </defs>
</svg>
