<?xml version="1.0" encoding="utf-8" standalone="no"?>
<!DOCTYPE svg PUBLIC "-//W3C//DTD SVG 1.1//EN"
  "http://www.w3.org/Graphics/SVG/1.1/DTD/svg11.dtd">
<svg xmlns:xlink="http://www.w3.org/1999/xlink" width="797.85pt" height="360pt" viewBox="0 0 797.85 360" xmlns="http://www.w3.org/2000/svg" version="1.1">
 <metadata>
  <rdf:RDF xmlns:dc="http://purl.org/dc/elements/1.1/" xmlns:cc="http://creativecommons.org/ns#" xmlns:rdf="http://www.w3.org/1999/02/22-rdf-syntax-ns#">
   <cc:Work>
    <dc:type rdf:resource="http://purl.org/dc/dcmitype/StillImage"/>
    <dc:date>2024-09-11T05:52:10.821965</dc:date>
    <dc:format>image/svg+xml</dc:format>
    <dc:creator>
     <cc:Agent>
      <dc:title>Matplotlib v3.8.3, https://matplotlib.org/</dc:title>
     </cc:Agent>
    </dc:creator>
   </cc:Work>
  </rdf:RDF>
 </metadata>
 <defs>
  <style type="text/css">*{stroke-linejoin: round; stroke-linecap: butt}</style>
 </defs>
 <g id="figure_1">
  <g id="patch_1">
   <path d="M 0 360 
L 797.85 360 
L 797.85 0 
L 0 0 
z
" style="fill: #ffffff"/>
  </g>
  <g id="axes_1">
   <g id="patch_2">
    <path d="M 47.6937 318.04 
L 374.472452 318.04 
L 374.472452 24.72 
L 47.6937 24.72 
z
" style="fill: #ffffff"/>
   </g>
   <g id="matplotlib.axis_1">
    <g id="xtick_1">
     <g id="text_1">
      <!-- Control -->
      <g style="fill: #262626" transform="translate(113.271201 332.197812) scale(0.1 -0.1)">
       <defs>
        <path id="ArialMT-43" d="M 3763 1606 
L 4369 1453 
Q 4178 706 3683 314 
Q 3188 -78 2472 -78 
Q 1731 -78 1267 223 
Q 803 525 561 1097 
Q 319 1669 319 2325 
Q 319 3041 592 3573 
Q 866 4106 1370 4382 
Q 1875 4659 2481 4659 
Q 3169 4659 3637 4309 
Q 4106 3959 4291 3325 
L 3694 3184 
Q 3534 3684 3231 3912 
Q 2928 4141 2469 4141 
Q 1941 4141 1586 3887 
Q 1231 3634 1087 3207 
Q 944 2781 944 2328 
Q 944 1744 1114 1308 
Q 1284 872 1643 656 
Q 2003 441 2422 441 
Q 2931 441 3284 734 
Q 3638 1028 3763 1606 
z
" transform="scale(0.015625)"/>
        <path id="ArialMT-6f" d="M 213 1659 
Q 213 2581 725 3025 
Q 1153 3394 1769 3394 
Q 2453 3394 2887 2945 
Q 3322 2497 3322 1706 
Q 3322 1066 3130 698 
Q 2938 331 2570 128 
Q 2203 -75 1769 -75 
Q 1072 -75 642 372 
Q 213 819 213 1659 
z
M 791 1659 
Q 791 1022 1069 705 
Q 1347 388 1769 388 
Q 2188 388 2466 706 
Q 2744 1025 2744 1678 
Q 2744 2294 2464 2611 
Q 2184 2928 1769 2928 
Q 1347 2928 1069 2612 
Q 791 2297 791 1659 
z
" transform="scale(0.015625)"/>
        <path id="ArialMT-6e" d="M 422 0 
L 422 3319 
L 928 3319 
L 928 2847 
Q 1294 3394 1984 3394 
Q 2284 3394 2536 3286 
Q 2788 3178 2913 3003 
Q 3038 2828 3088 2588 
Q 3119 2431 3119 2041 
L 3119 0 
L 2556 0 
L 2556 2019 
Q 2556 2363 2490 2533 
Q 2425 2703 2258 2804 
Q 2091 2906 1866 2906 
Q 1506 2906 1245 2678 
Q 984 2450 984 1813 
L 984 0 
L 422 0 
z
" transform="scale(0.015625)"/>
        <path id="ArialMT-74" d="M 1650 503 
L 1731 6 
Q 1494 -44 1306 -44 
Q 1000 -44 831 53 
Q 663 150 594 308 
Q 525 466 525 972 
L 525 2881 
L 113 2881 
L 113 3319 
L 525 3319 
L 525 4141 
L 1084 4478 
L 1084 3319 
L 1650 3319 
L 1650 2881 
L 1084 2881 
L 1084 941 
Q 1084 700 1114 631 
Q 1144 563 1211 522 
Q 1278 481 1403 481 
Q 1497 481 1650 503 
z
" transform="scale(0.015625)"/>
        <path id="ArialMT-72" d="M 416 0 
L 416 3319 
L 922 3319 
L 922 2816 
Q 1116 3169 1280 3281 
Q 1444 3394 1641 3394 
Q 1925 3394 2219 3213 
L 2025 2691 
Q 1819 2813 1613 2813 
Q 1428 2813 1281 2702 
Q 1134 2591 1072 2394 
Q 978 2094 978 1738 
L 978 0 
L 416 0 
z
" transform="scale(0.015625)"/>
        <path id="ArialMT-6c" d="M 409 0 
L 409 4581 
L 972 4581 
L 972 0 
L 409 0 
z
" transform="scale(0.015625)"/>
       </defs>
       <use xlink:href="#ArialMT-43"/>
       <use xlink:href="#ArialMT-6f" x="72.216797"/>
       <use xlink:href="#ArialMT-6e" x="127.832031"/>
       <use xlink:href="#ArialMT-74" x="183.447266"/>
       <use xlink:href="#ArialMT-72" x="211.230469"/>
       <use xlink:href="#ArialMT-6f" x="244.53125"/>
       <use xlink:href="#ArialMT-6c" x="300.146484"/>
      </g>
     </g>
    </g>
    <g id="xtick_2">
     <g id="text_2">
      <!-- Test -->
      <g style="fill: #262626" transform="translate(283.610577 332.197812) scale(0.1 -0.1)">
       <defs>
        <path id="ArialMT-54" d="M 1659 0 
L 1659 4041 
L 150 4041 
L 150 4581 
L 3781 4581 
L 3781 4041 
L 2266 4041 
L 2266 0 
L 1659 0 
z
" transform="scale(0.015625)"/>
        <path id="ArialMT-65" d="M 2694 1069 
L 3275 997 
Q 3138 488 2766 206 
Q 2394 -75 1816 -75 
Q 1088 -75 661 373 
Q 234 822 234 1631 
Q 234 2469 665 2931 
Q 1097 3394 1784 3394 
Q 2450 3394 2872 2941 
Q 3294 2488 3294 1666 
Q 3294 1616 3291 1516 
L 816 1516 
Q 847 969 1125 678 
Q 1403 388 1819 388 
Q 2128 388 2347 550 
Q 2566 713 2694 1069 
z
M 847 1978 
L 2700 1978 
Q 2663 2397 2488 2606 
Q 2219 2931 1791 2931 
Q 1403 2931 1139 2672 
Q 875 2413 847 1978 
z
" transform="scale(0.015625)"/>
        <path id="ArialMT-73" d="M 197 991 
L 753 1078 
Q 800 744 1014 566 
Q 1228 388 1613 388 
Q 2000 388 2187 545 
Q 2375 703 2375 916 
Q 2375 1106 2209 1216 
Q 2094 1291 1634 1406 
Q 1016 1563 777 1677 
Q 538 1791 414 1992 
Q 291 2194 291 2438 
Q 291 2659 392 2848 
Q 494 3038 669 3163 
Q 800 3259 1026 3326 
Q 1253 3394 1513 3394 
Q 1903 3394 2198 3281 
Q 2494 3169 2634 2976 
Q 2775 2784 2828 2463 
L 2278 2388 
Q 2241 2644 2061 2787 
Q 1881 2931 1553 2931 
Q 1166 2931 1000 2803 
Q 834 2675 834 2503 
Q 834 2394 903 2306 
Q 972 2216 1119 2156 
Q 1203 2125 1616 2013 
Q 2213 1853 2448 1751 
Q 2684 1650 2818 1456 
Q 2953 1263 2953 975 
Q 2953 694 2789 445 
Q 2625 197 2315 61 
Q 2006 -75 1616 -75 
Q 969 -75 630 194 
Q 291 463 197 991 
z
" transform="scale(0.015625)"/>
       </defs>
       <use xlink:href="#ArialMT-54"/>
       <use xlink:href="#ArialMT-65" x="49.958984"/>
       <use xlink:href="#ArialMT-73" x="105.574219"/>
       <use xlink:href="#ArialMT-74" x="155.574219"/>
      </g>
     </g>
    </g>
    <g id="text_3">
     <!-- group -->
     <g style="fill: #262626" transform="translate(198.296357 345.225938) scale(0.1 -0.1)">
      <defs>
       <path id="ArialMT-67" d="M 319 -275 
L 866 -356 
Q 900 -609 1056 -725 
Q 1266 -881 1628 -881 
Q 2019 -881 2231 -725 
Q 2444 -569 2519 -288 
Q 2563 -116 2559 434 
Q 2191 0 1641 0 
Q 956 0 581 494 
Q 206 988 206 1678 
Q 206 2153 378 2554 
Q 550 2956 876 3175 
Q 1203 3394 1644 3394 
Q 2231 3394 2613 2919 
L 2613 3319 
L 3131 3319 
L 3131 450 
Q 3131 -325 2973 -648 
Q 2816 -972 2473 -1159 
Q 2131 -1347 1631 -1347 
Q 1038 -1347 672 -1080 
Q 306 -813 319 -275 
z
M 784 1719 
Q 784 1066 1043 766 
Q 1303 466 1694 466 
Q 2081 466 2343 764 
Q 2606 1063 2606 1700 
Q 2606 2309 2336 2618 
Q 2066 2928 1684 2928 
Q 1309 2928 1046 2623 
Q 784 2319 784 1719 
z
" transform="scale(0.015625)"/>
       <path id="ArialMT-75" d="M 2597 0 
L 2597 488 
Q 2209 -75 1544 -75 
Q 1250 -75 995 37 
Q 741 150 617 320 
Q 494 491 444 738 
Q 409 903 409 1263 
L 409 3319 
L 972 3319 
L 972 1478 
Q 972 1038 1006 884 
Q 1059 663 1231 536 
Q 1403 409 1656 409 
Q 1909 409 2131 539 
Q 2353 669 2445 892 
Q 2538 1116 2538 1541 
L 2538 3319 
L 3100 3319 
L 3100 0 
L 2597 0 
z
" transform="scale(0.015625)"/>
       <path id="ArialMT-70" d="M 422 -1272 
L 422 3319 
L 934 3319 
L 934 2888 
Q 1116 3141 1344 3267 
Q 1572 3394 1897 3394 
Q 2322 3394 2647 3175 
Q 2972 2956 3137 2557 
Q 3303 2159 3303 1684 
Q 3303 1175 3120 767 
Q 2938 359 2589 142 
Q 2241 -75 1856 -75 
Q 1575 -75 1351 44 
Q 1128 163 984 344 
L 984 -1272 
L 422 -1272 
z
M 931 1641 
Q 931 1000 1190 694 
Q 1450 388 1819 388 
Q 2194 388 2461 705 
Q 2728 1022 2728 1688 
Q 2728 2322 2467 2637 
Q 2206 2953 1844 2953 
Q 1484 2953 1207 2617 
Q 931 2281 931 1641 
z
" transform="scale(0.015625)"/>
      </defs>
      <use xlink:href="#ArialMT-67"/>
      <use xlink:href="#ArialMT-72" x="55.615234"/>
      <use xlink:href="#ArialMT-6f" x="88.916016"/>
      <use xlink:href="#ArialMT-75" x="144.53125"/>
      <use xlink:href="#ArialMT-70" x="200.146484"/>
     </g>
    </g>
   </g>
   <g id="matplotlib.axis_2">
    <g id="ytick_1">
     <g id="line2d_1">
      <path d="M 47.6937 278.191284 
L 374.472452 278.191284 
" clip-path="url(#pac4e3a9e33)" style="fill: none; stroke: #cccccc; stroke-width: 0.8; stroke-linecap: round"/>
     </g>
     <g id="text_4">
      <!-- 20 -->
      <g style="fill: #262626" transform="translate(29.571825 281.77019) scale(0.1 -0.1)">
       <defs>
        <path id="ArialMT-32" d="M 3222 541 
L 3222 0 
L 194 0 
Q 188 203 259 391 
Q 375 700 629 1000 
Q 884 1300 1366 1694 
Q 2113 2306 2375 2664 
Q 2638 3022 2638 3341 
Q 2638 3675 2398 3904 
Q 2159 4134 1775 4134 
Q 1369 4134 1125 3890 
Q 881 3647 878 3216 
L 300 3275 
Q 359 3922 746 4261 
Q 1134 4600 1788 4600 
Q 2447 4600 2831 4234 
Q 3216 3869 3216 3328 
Q 3216 3053 3103 2787 
Q 2991 2522 2730 2228 
Q 2469 1934 1863 1422 
Q 1356 997 1212 845 
Q 1069 694 975 541 
L 3222 541 
z
" transform="scale(0.015625)"/>
        <path id="ArialMT-30" d="M 266 2259 
Q 266 3072 433 3567 
Q 600 4063 929 4331 
Q 1259 4600 1759 4600 
Q 2128 4600 2406 4451 
Q 2684 4303 2865 4023 
Q 3047 3744 3150 3342 
Q 3253 2941 3253 2259 
Q 3253 1453 3087 958 
Q 2922 463 2592 192 
Q 2263 -78 1759 -78 
Q 1097 -78 719 397 
Q 266 969 266 2259 
z
M 844 2259 
Q 844 1131 1108 757 
Q 1372 384 1759 384 
Q 2147 384 2411 759 
Q 2675 1134 2675 2259 
Q 2675 3391 2411 3762 
Q 2147 4134 1753 4134 
Q 1366 4134 1134 3806 
Q 844 3388 844 2259 
z
" transform="scale(0.015625)"/>
       </defs>
       <use xlink:href="#ArialMT-32"/>
       <use xlink:href="#ArialMT-30" x="55.615234"/>
      </g>
     </g>
    </g>
    <g id="ytick_2">
     <g id="line2d_2">
      <path d="M 47.6937 220.208875 
L 374.472452 220.208875 
" clip-path="url(#pac4e3a9e33)" style="fill: none; stroke: #cccccc; stroke-width: 0.8; stroke-linecap: round"/>
     </g>
     <g id="text_5">
      <!-- 25 -->
      <g style="fill: #262626" transform="translate(29.571825 223.787782) scale(0.1 -0.1)">
       <defs>
        <path id="ArialMT-35" d="M 266 1200 
L 856 1250 
Q 922 819 1161 601 
Q 1400 384 1738 384 
Q 2144 384 2425 690 
Q 2706 997 2706 1503 
Q 2706 1984 2436 2262 
Q 2166 2541 1728 2541 
Q 1456 2541 1237 2417 
Q 1019 2294 894 2097 
L 366 2166 
L 809 4519 
L 3088 4519 
L 3088 3981 
L 1259 3981 
L 1013 2750 
Q 1425 3038 1878 3038 
Q 2478 3038 2890 2622 
Q 3303 2206 3303 1553 
Q 3303 931 2941 478 
Q 2500 -78 1738 -78 
Q 1113 -78 717 272 
Q 322 622 266 1200 
z
" transform="scale(0.015625)"/>
       </defs>
       <use xlink:href="#ArialMT-32"/>
       <use xlink:href="#ArialMT-35" x="55.615234"/>
      </g>
     </g>
    </g>
    <g id="ytick_3">
     <g id="line2d_3">
      <path d="M 47.6937 162.226467 
L 374.472452 162.226467 
" clip-path="url(#pac4e3a9e33)" style="fill: none; stroke: #cccccc; stroke-width: 0.8; stroke-linecap: round"/>
     </g>
     <g id="text_6">
      <!-- 30 -->
      <g style="fill: #262626" transform="translate(29.571825 165.805373) scale(0.1 -0.1)">
       <defs>
        <path id="ArialMT-33" d="M 269 1209 
L 831 1284 
Q 928 806 1161 595 
Q 1394 384 1728 384 
Q 2125 384 2398 659 
Q 2672 934 2672 1341 
Q 2672 1728 2419 1979 
Q 2166 2231 1775 2231 
Q 1616 2231 1378 2169 
L 1441 2663 
Q 1497 2656 1531 2656 
Q 1891 2656 2178 2843 
Q 2466 3031 2466 3422 
Q 2466 3731 2256 3934 
Q 2047 4138 1716 4138 
Q 1388 4138 1169 3931 
Q 950 3725 888 3313 
L 325 3413 
Q 428 3978 793 4289 
Q 1159 4600 1703 4600 
Q 2078 4600 2393 4439 
Q 2709 4278 2876 4000 
Q 3044 3722 3044 3409 
Q 3044 3113 2884 2869 
Q 2725 2625 2413 2481 
Q 2819 2388 3044 2092 
Q 3269 1797 3269 1353 
Q 3269 753 2831 336 
Q 2394 -81 1725 -81 
Q 1122 -81 723 278 
Q 325 638 269 1209 
z
" transform="scale(0.015625)"/>
       </defs>
       <use xlink:href="#ArialMT-33"/>
       <use xlink:href="#ArialMT-30" x="55.615234"/>
      </g>
     </g>
    </g>
    <g id="ytick_4">
     <g id="line2d_4">
      <path d="M 47.6937 104.244059 
L 374.472452 104.244059 
" clip-path="url(#pac4e3a9e33)" style="fill: none; stroke: #cccccc; stroke-width: 0.8; stroke-linecap: round"/>
     </g>
     <g id="text_7">
      <!-- 35 -->
      <g style="fill: #262626" transform="translate(29.571825 107.822965) scale(0.1 -0.1)">
       <use xlink:href="#ArialMT-33"/>
       <use xlink:href="#ArialMT-35" x="55.615234"/>
      </g>
     </g>
    </g>
    <g id="ytick_5">
     <g id="line2d_5">
      <path d="M 47.6937 46.26165 
L 374.472452 46.26165 
" clip-path="url(#pac4e3a9e33)" style="fill: none; stroke: #cccccc; stroke-width: 0.8; stroke-linecap: round"/>
     </g>
     <g id="text_8">
      <!-- 40 -->
      <g style="fill: #262626" transform="translate(29.571825 49.840557) scale(0.1 -0.1)">
       <defs>
        <path id="ArialMT-34" d="M 2069 0 
L 2069 1097 
L 81 1097 
L 81 1613 
L 2172 4581 
L 2631 4581 
L 2631 1613 
L 3250 1613 
L 3250 1097 
L 2631 1097 
L 2631 0 
L 2069 0 
z
M 2069 1613 
L 2069 3678 
L 634 1613 
L 2069 1613 
z
" transform="scale(0.015625)"/>
       </defs>
       <use xlink:href="#ArialMT-34"/>
       <use xlink:href="#ArialMT-30" x="55.615234"/>
      </g>
     </g>
    </g>
    <g id="text_9">
     <!-- BMI -->
     <g style="fill: #262626" transform="translate(23.584325 180.269062) rotate(-90) scale(0.1 -0.1)">
      <defs>
       <path id="ArialMT-42" d="M 469 0 
L 469 4581 
L 2188 4581 
Q 2713 4581 3030 4442 
Q 3347 4303 3526 4014 
Q 3706 3725 3706 3409 
Q 3706 3116 3547 2856 
Q 3388 2597 3066 2438 
Q 3481 2316 3704 2022 
Q 3928 1728 3928 1328 
Q 3928 1006 3792 729 
Q 3656 453 3456 303 
Q 3256 153 2954 76 
Q 2653 0 2216 0 
L 469 0 
z
M 1075 2656 
L 2066 2656 
Q 2469 2656 2644 2709 
Q 2875 2778 2992 2937 
Q 3109 3097 3109 3338 
Q 3109 3566 3000 3739 
Q 2891 3913 2687 3977 
Q 2484 4041 1991 4041 
L 1075 4041 
L 1075 2656 
z
M 1075 541 
L 2216 541 
Q 2509 541 2628 563 
Q 2838 600 2978 687 
Q 3119 775 3209 942 
Q 3300 1109 3300 1328 
Q 3300 1584 3169 1773 
Q 3038 1963 2805 2039 
Q 2572 2116 2134 2116 
L 1075 2116 
L 1075 541 
z
" transform="scale(0.015625)"/>
       <path id="ArialMT-4d" d="M 475 0 
L 475 4581 
L 1388 4581 
L 2472 1338 
Q 2622 884 2691 659 
Q 2769 909 2934 1394 
L 4031 4581 
L 4847 4581 
L 4847 0 
L 4263 0 
L 4263 3834 
L 2931 0 
L 2384 0 
L 1059 3900 
L 1059 0 
L 475 0 
z
" transform="scale(0.015625)"/>
       <path id="ArialMT-49" d="M 597 0 
L 597 4581 
L 1203 4581 
L 1203 0 
L 597 0 
z
" transform="scale(0.015625)"/>
      </defs>
      <use xlink:href="#ArialMT-42"/>
      <use xlink:href="#ArialMT-4d" x="66.699219"/>
      <use xlink:href="#ArialMT-49" x="150"/>
     </g>
    </g>
   </g>
   <g id="PolyCollection_1">
    <defs>
     <path id="m8cf1c99201" d="M 97.113726 -74.45935 
L 96.3073 -74.45935 
L 96.184207 -76.338388 
L 96.03218 -78.217427 
L 95.84702 -80.096466 
L 95.624573 -81.975505 
L 95.360889 -83.854543 
L 95.052381 -85.733582 
L 94.695975 -87.612621 
L 94.289234 -89.491659 
L 93.830439 -91.370698 
L 93.318623 -93.249737 
L 92.753528 -95.128775 
L 92.135507 -97.007814 
L 91.465348 -98.886853 
L 90.744058 -100.765892 
L 89.972595 -102.64493 
L 89.151619 -104.523969 
L 88.281257 -106.403008 
L 87.360956 -108.282046 
L 86.389451 -110.161085 
L 85.364888 -112.040124 
L 84.285134 -113.919162 
L 83.14828 -115.798201 
L 81.953324 -117.67724 
L 80.700994 -119.556279 
L 79.394648 -121.435317 
L 78.041145 -123.314356 
L 76.651591 -125.193395 
L 75.241825 -127.072433 
L 73.83254 -128.951472 
L 72.448951 -130.830511 
L 71.119963 -132.709549 
L 69.876836 -134.588588 
L 68.751414 -136.467627 
L 67.774055 -138.346665 
L 66.971422 -140.225704 
L 66.36436 -142.104743 
L 65.966091 -143.983782 
L 65.780929 -145.86282 
L 65.803692 -147.741859 
L 66.019927 -149.620898 
L 66.406942 -151.499936 
L 66.935607 -153.378975 
L 67.572743 -155.258014 
L 68.283879 -157.137052 
L 69.036105 -159.016091 
L 69.800721 -160.89513 
L 70.555425 -162.774169 
L 71.285799 -164.653207 
L 71.985977 -166.532246 
L 72.658411 -168.411285 
L 73.312814 -170.290323 
L 73.964385 -172.169362 
L 74.63155 -174.048401 
L 75.33345 -175.927439 
L 76.087467 -177.806478 
L 76.907026 -179.685517 
L 77.799906 -181.564555 
L 78.767188 -183.443594 
L 79.802936 -185.322633 
L 80.894585 -187.201672 
L 82.023971 -189.08071 
L 83.16885 -190.959749 
L 84.304732 -192.838788 
L 85.40683 -194.717826 
L 86.45193 -196.596865 
L 87.420008 -198.475904 
L 88.295487 -200.354942 
L 89.068024 -202.233981 
L 89.732839 -204.11302 
L 90.290582 -205.992059 
L 90.746817 -207.871097 
L 91.111199 -209.750136 
L 91.396472 -211.629175 
L 91.617368 -213.508213 
L 91.789518 -215.387252 
L 91.928454 -217.266291 
L 92.048752 -219.145329 
L 92.163352 -221.024368 
L 92.283077 -222.903407 
L 92.416337 -224.782445 
L 92.569009 -226.661484 
L 92.744478 -228.540523 
L 92.943793 -230.419562 
L 93.165933 -232.2986 
L 93.408148 -234.177639 
L 93.666335 -236.056678 
L 93.935459 -237.935716 
L 94.209955 -239.814755 
L 94.484125 -241.693794 
L 94.752486 -243.572832 
L 95.010071 -245.451871 
L 95.252655 -247.33091 
L 95.476913 -249.209949 
L 95.680496 -251.088987 
L 95.862039 -252.968026 
L 96.021102 -254.847065 
L 96.158066 -256.726103 
L 96.273987 -258.605142 
L 96.370436 -260.484181 
L 97.050589 -260.484181 
L 97.050589 -260.484181 
L 97.147039 -258.605142 
L 97.26296 -256.726103 
L 97.399924 -254.847065 
L 97.558987 -252.968026 
L 97.740529 -251.088987 
L 97.944112 -249.209949 
L 98.16837 -247.33091 
L 98.410955 -245.451871 
L 98.66854 -243.572832 
L 98.936901 -241.693794 
L 99.211071 -239.814755 
L 99.485567 -237.935716 
L 99.75469 -236.056678 
L 100.012878 -234.177639 
L 100.255092 -232.2986 
L 100.477233 -230.419562 
L 100.676548 -228.540523 
L 100.852016 -226.661484 
L 101.004689 -224.782445 
L 101.137948 -222.903407 
L 101.257673 -221.024368 
L 101.372274 -219.145329 
L 101.492571 -217.266291 
L 101.631508 -215.387252 
L 101.803658 -213.508213 
L 102.024553 -211.629175 
L 102.309827 -209.750136 
L 102.674209 -207.871097 
L 103.130443 -205.992059 
L 103.688187 -204.11302 
L 104.353002 -202.233981 
L 105.125539 -200.354942 
L 106.001017 -198.475904 
L 106.969096 -196.596865 
L 108.014196 -194.717826 
L 109.116294 -192.838788 
L 110.252176 -190.959749 
L 111.397054 -189.08071 
L 112.52644 -187.201672 
L 113.618089 -185.322633 
L 114.653837 -183.443594 
L 115.62112 -181.564555 
L 116.514 -179.685517 
L 117.333559 -177.806478 
L 118.087576 -175.927439 
L 118.789476 -174.048401 
L 119.456641 -172.169362 
L 120.108212 -170.290323 
L 120.762615 -168.411285 
L 121.435049 -166.532246 
L 122.135226 -164.653207 
L 122.865601 -162.774169 
L 123.620304 -160.89513 
L 124.384921 -159.016091 
L 125.137147 -157.137052 
L 125.848283 -155.258014 
L 126.485419 -153.378975 
L 127.014084 -151.499936 
L 127.401099 -149.620898 
L 127.617334 -147.741859 
L 127.640097 -145.86282 
L 127.454934 -143.983782 
L 127.056665 -142.104743 
L 126.449604 -140.225704 
L 125.64697 -138.346665 
L 124.669612 -136.467627 
L 123.54419 -134.588588 
L 122.301062 -132.709549 
L 120.972075 -130.830511 
L 119.588486 -128.951472 
L 118.1792 -127.072433 
L 116.769434 -125.193395 
L 115.379881 -123.314356 
L 114.026378 -121.435317 
L 112.720032 -119.556279 
L 111.467702 -117.67724 
L 110.272745 -115.798201 
L 109.135892 -113.919162 
L 108.056138 -112.040124 
L 107.031575 -110.161085 
L 106.06007 -108.282046 
L 105.139769 -106.403008 
L 104.269407 -104.523969 
L 103.448431 -102.64493 
L 102.676968 -100.765892 
L 101.955677 -98.886853 
L 101.285519 -97.007814 
L 100.667498 -95.128775 
L 100.102403 -93.249737 
L 99.590586 -91.370698 
L 99.131792 -89.491659 
L 98.725051 -87.612621 
L 98.368645 -85.733582 
L 98.060137 -83.854543 
L 97.796453 -81.975505 
L 97.574006 -80.096466 
L 97.388845 -78.217427 
L 97.236819 -76.338388 
L 97.113726 -74.45935 
z
" style="stroke: #3f3f3f; stroke-width: 1.25"/>
    </defs>
    <g clip-path="url(#pac4e3a9e33)">
     <use xlink:href="#m8cf1c99201" x="0" y="360" style="fill: #3274a1; stroke: #3f3f3f; stroke-width: 1.25"/>
    </g>
   </g>
   <g id="PolyCollection_2">
    <defs>
     <path id="ma4cd2fe997" d="M 162.572976 -69.660722 
L 161.55955 -69.660722 
L 161.411222 -71.564756 
L 161.232913 -73.46879 
L 161.022795 -75.372824 
L 160.78016 -77.276858 
L 160.505679 -79.180892 
L 160.201576 -81.084926 
L 159.871672 -82.98896 
L 159.521242 -84.892994 
L 159.156684 -86.797028 
L 158.784964 -88.701062 
L 158.412877 -90.605096 
L 158.046162 -92.50913 
L 157.688539 -94.413164 
L 157.340782 -96.317198 
L 156.999931 -98.221232 
L 156.658751 -100.125265 
L 156.305549 -102.029299 
L 155.924424 -103.933333 
L 155.49597 -105.837367 
L 154.998438 -107.741401 
L 154.409277 -109.645435 
L 153.706961 -111.549469 
L 152.872939 -113.453503 
L 151.893555 -115.357537 
L 150.761742 -117.261571 
L 149.478357 -119.165605 
L 148.052993 -121.069639 
L 146.504205 -122.973673 
L 144.85911 -124.877707 
L 143.152363 -126.781741 
L 141.424613 -128.685775 
L 139.720512 -130.589809 
L 138.086457 -132.493843 
L 136.568186 -134.397877 
L 135.208422 -136.301911 
L 134.044679 -138.205945 
L 133.107387 -140.109979 
L 132.418416 -142.014013 
L 131.990086 -143.918047 
L 131.824709 -145.82208 
L 131.914668 -147.726114 
L 132.243032 -149.630148 
L 132.784667 -151.534182 
L 133.507779 -153.438216 
L 134.375803 -155.34225 
L 135.349527 -157.246284 
L 136.389328 -159.150318 
L 137.457376 -161.054352 
L 138.519674 -162.958386 
L 139.547784 -164.86242 
L 140.520141 -166.766454 
L 141.422851 -168.670488 
L 142.249926 -170.574522 
L 143.002956 -172.478556 
L 143.690238 -174.38259 
L 144.325458 -176.286624 
L 144.926035 -178.190658 
L 145.511265 -180.094692 
L 146.100427 -181.998726 
L 146.710998 -183.90276 
L 147.357125 -185.806794 
L 148.048452 -187.710828 
L 148.789392 -189.614861 
L 149.578872 -191.518895 
L 150.410552 -193.422929 
L 151.273466 -195.326963 
L 152.153013 -197.230997 
L 153.032192 -199.135031 
L 153.892977 -201.039065 
L 154.717697 -202.943099 
L 155.490327 -204.847133 
L 156.197579 -206.751167 
L 156.829723 -208.655201 
L 157.381099 -210.559235 
L 157.850279 -212.463269 
L 158.239912 -214.367303 
L 158.556268 -216.271337 
L 158.808537 -218.175371 
L 159.007973 -220.079405 
L 159.16694 -221.983439 
L 159.29796 -223.887473 
L 159.412831 -225.791507 
L 159.521895 -227.695541 
L 159.633481 -229.599575 
L 159.753585 -231.503609 
L 159.885757 -233.407642 
L 160.031211 -235.311676 
L 160.18911 -237.21571 
L 160.356973 -239.119744 
L 160.53117 -241.023778 
L 160.707434 -242.927812 
L 160.881341 -244.831846 
L 161.048728 -246.73588 
L 161.20601 -248.639914 
L 161.350394 -250.543948 
L 161.47998 -252.447982 
L 161.593763 -254.352016 
L 161.691565 -256.25605 
L 161.7739 -258.160084 
L 162.358627 -258.160084 
L 162.358627 -258.160084 
L 162.440962 -256.25605 
L 162.538763 -254.352016 
L 162.652547 -252.447982 
L 162.782132 -250.543948 
L 162.926517 -248.639914 
L 163.083799 -246.73588 
L 163.251185 -244.831846 
L 163.425092 -242.927812 
L 163.601356 -241.023778 
L 163.775554 -239.119744 
L 163.943417 -237.21571 
L 164.101315 -235.311676 
L 164.24677 -233.407642 
L 164.378942 -231.503609 
L 164.499045 -229.599575 
L 164.610632 -227.695541 
L 164.719695 -225.791507 
L 164.834567 -223.887473 
L 164.965586 -221.983439 
L 165.124553 -220.079405 
L 165.323989 -218.175371 
L 165.576259 -216.271337 
L 165.892614 -214.367303 
L 166.282248 -212.463269 
L 166.751428 -210.559235 
L 167.302803 -208.655201 
L 167.934947 -206.751167 
L 168.642199 -204.847133 
L 169.414829 -202.943099 
L 170.23955 -201.039065 
L 171.100335 -199.135031 
L 171.979514 -197.230997 
L 172.85906 -195.326963 
L 173.721975 -193.422929 
L 174.553655 -191.518895 
L 175.343135 -189.614861 
L 176.084074 -187.710828 
L 176.775401 -185.806794 
L 177.421528 -183.90276 
L 178.0321 -181.998726 
L 178.621262 -180.094692 
L 179.206491 -178.190658 
L 179.807068 -176.286624 
L 180.442289 -174.38259 
L 181.12957 -172.478556 
L 181.8826 -170.574522 
L 182.709676 -168.670488 
L 183.612386 -166.766454 
L 184.584743 -164.86242 
L 185.612853 -162.958386 
L 186.67515 -161.054352 
L 187.743199 -159.150318 
L 188.782999 -157.246284 
L 189.756724 -155.34225 
L 190.624747 -153.438216 
L 191.347859 -151.534182 
L 191.889494 -149.630148 
L 192.217858 -147.726114 
L 192.307817 -145.82208 
L 192.142441 -143.918047 
L 191.714111 -142.014013 
L 191.025139 -140.109979 
L 190.087847 -138.205945 
L 188.924105 -136.301911 
L 187.56434 -134.397877 
L 186.04607 -132.493843 
L 184.412014 -130.589809 
L 182.707914 -128.685775 
L 180.980163 -126.781741 
L 179.273417 -124.877707 
L 177.628321 -122.973673 
L 176.079534 -121.069639 
L 174.654169 -119.165605 
L 173.370784 -117.261571 
L 172.238972 -115.357537 
L 171.259587 -113.453503 
L 170.425566 -111.549469 
L 169.723249 -109.645435 
L 169.134089 -107.741401 
L 168.636556 -105.837367 
L 168.208103 -103.933333 
L 167.826978 -102.029299 
L 167.473776 -100.125265 
L 167.132595 -98.221232 
L 166.791744 -96.317198 
L 166.443988 -94.413164 
L 166.086365 -92.50913 
L 165.719649 -90.605096 
L 165.347563 -88.701062 
L 164.975842 -86.797028 
L 164.611284 -84.892994 
L 164.260854 -82.98896 
L 163.93095 -81.084926 
L 163.626848 -79.180892 
L 163.352367 -77.276858 
L 163.109731 -75.372824 
L 162.899614 -73.46879 
L 162.721304 -71.564756 
L 162.572976 -69.660722 
z
" style="stroke: #3f3f3f; stroke-width: 1.25"/>
    </defs>
    <g clip-path="url(#pac4e3a9e33)">
     <use xlink:href="#ma4cd2fe997" x="0" y="360" style="fill: #e1812c; stroke: #3f3f3f; stroke-width: 1.25"/>
    </g>
   </g>
   <g id="PolyCollection_3">
    <defs>
     <path id="m69f0124842" d="M 260.481531 -102.370561 
L 259.718247 -102.370561 
L 259.600459 -104.328709 
L 259.455788 -106.286858 
L 259.280927 -108.245006 
L 259.072833 -110.203154 
L 258.828856 -112.161302 
L 258.546834 -114.11945 
L 258.225148 -116.077598 
L 257.862732 -118.035746 
L 257.459017 -119.993894 
L 257.013849 -121.952043 
L 256.527367 -123.910191 
L 255.99989 -125.868339 
L 255.431811 -127.826487 
L 254.82355 -129.784635 
L 254.175555 -131.742783 
L 253.488369 -133.700931 
L 252.762746 -135.65908 
L 251.999808 -137.617228 
L 251.20119 -139.575376 
L 250.369167 -141.533524 
L 249.506703 -143.491672 
L 248.617418 -145.44982 
L 247.705458 -147.407968 
L 246.77526 -149.366116 
L 245.831254 -151.324265 
L 244.877519 -153.282413 
L 243.917448 -155.240561 
L 242.953472 -157.198709 
L 241.986877 -159.156857 
L 241.017773 -161.115005 
L 240.045236 -163.073153 
L 239.067627 -165.031302 
L 238.083095 -166.98945 
L 237.090236 -168.947598 
L 236.088856 -170.905746 
L 235.080784 -172.863894 
L 234.070659 -174.822042 
L 233.066603 -176.78019 
L 232.080695 -178.738338 
L 231.129161 -180.696487 
L 230.232225 -182.654635 
L 229.413571 -184.612783 
L 228.699416 -186.570931 
L 228.117225 -188.529079 
L 227.694149 -190.487227 
L 227.455302 -192.445375 
L 227.422014 -194.403524 
L 227.610231 -196.361672 
L 228.029212 -198.31982 
L 228.680655 -200.277968 
L 229.558344 -202.236116 
L 230.648358 -204.194264 
L 231.92981 -206.152412 
L 233.376039 -208.11056 
L 234.956125 -210.068709 
L 236.636578 -212.026857 
L 238.383023 -213.985005 
L 240.161759 -215.943153 
L 241.941055 -217.901301 
L 243.692117 -219.859449 
L 245.38972 -221.817597 
L 247.012498 -223.775746 
L 248.542969 -225.733894 
L 249.967362 -227.692042 
L 251.275318 -229.65019 
L 252.459566 -231.608338 
L 253.515598 -233.566486 
L 254.441418 -235.524634 
L 255.237353 -237.482782 
L 255.90594 -239.440931 
L 256.451857 -241.399079 
L 256.881882 -243.357227 
L 257.204827 -245.315375 
L 257.431433 -247.273523 
L 257.57417 -249.231671 
L 257.646953 -251.189819 
L 257.664737 -253.147968 
L 257.643019 -255.106116 
L 257.597246 -257.064264 
L 257.542184 -259.022412 
L 257.491282 -260.98056 
L 257.456078 -262.938708 
L 257.445715 -264.896856 
L 257.466597 -266.855004 
L 257.522236 -268.813153 
L 257.613286 -270.771301 
L 257.737786 -272.729449 
L 257.891562 -274.687597 
L 258.068764 -276.645745 
L 258.262477 -278.603893 
L 258.465345 -280.562041 
L 258.67016 -282.52019 
L 258.870349 -284.478338 
L 259.060357 -286.436486 
L 259.23587 -288.394634 
L 259.393919 -290.352782 
L 259.532841 -292.31093 
L 259.652158 -294.269078 
L 259.752372 -296.227227 
L 260.447405 -296.227227 
L 260.447405 -296.227227 
L 260.54762 -294.269078 
L 260.666936 -292.31093 
L 260.805859 -290.352782 
L 260.963907 -288.394634 
L 261.139421 -286.436486 
L 261.329429 -284.478338 
L 261.529618 -282.52019 
L 261.734432 -280.562041 
L 261.937301 -278.603893 
L 262.131014 -276.645745 
L 262.308216 -274.687597 
L 262.461992 -272.729449 
L 262.586492 -270.771301 
L 262.677542 -268.813153 
L 262.733181 -266.855004 
L 262.754063 -264.896856 
L 262.743699 -262.938708 
L 262.708496 -260.98056 
L 262.657594 -259.022412 
L 262.602532 -257.064264 
L 262.556759 -255.106116 
L 262.535041 -253.147968 
L 262.552825 -251.189819 
L 262.625608 -249.231671 
L 262.768345 -247.273523 
L 262.99495 -245.315375 
L 263.317896 -243.357227 
L 263.747921 -241.399079 
L 264.293838 -239.440931 
L 264.962424 -237.482782 
L 265.75836 -235.524634 
L 266.68418 -233.566486 
L 267.740212 -231.608338 
L 268.92446 -229.65019 
L 270.232416 -227.692042 
L 271.656808 -225.733894 
L 273.18728 -223.775746 
L 274.810058 -221.817597 
L 276.50766 -219.859449 
L 278.258723 -217.901301 
L 280.038018 -215.943153 
L 281.816755 -213.985005 
L 283.5632 -212.026857 
L 285.243652 -210.068709 
L 286.823739 -208.11056 
L 288.269968 -206.152412 
L 289.55142 -204.194264 
L 290.641434 -202.236116 
L 291.519123 -200.277968 
L 292.170565 -198.31982 
L 292.589547 -196.361672 
L 292.777764 -194.403524 
L 292.744476 -192.445375 
L 292.505629 -190.487227 
L 292.082553 -188.529079 
L 291.500361 -186.570931 
L 290.786206 -184.612783 
L 289.967553 -182.654635 
L 289.070617 -180.696487 
L 288.119083 -178.738338 
L 287.133174 -176.78019 
L 286.129119 -174.822042 
L 285.118994 -172.863894 
L 284.110922 -170.905746 
L 283.109541 -168.947598 
L 282.116683 -166.98945 
L 281.132151 -165.031302 
L 280.154542 -163.073153 
L 279.182005 -161.115005 
L 278.212901 -159.156857 
L 277.246306 -157.198709 
L 276.282329 -155.240561 
L 275.322259 -153.282413 
L 274.368524 -151.324265 
L 273.424518 -149.366116 
L 272.49432 -147.407968 
L 271.582359 -145.44982 
L 270.693075 -143.491672 
L 269.830611 -141.533524 
L 268.998587 -139.575376 
L 268.19997 -137.617228 
L 267.437031 -135.65908 
L 266.711409 -133.700931 
L 266.024222 -131.742783 
L 265.376228 -129.784635 
L 264.767967 -127.826487 
L 264.199888 -125.868339 
L 263.67241 -123.910191 
L 263.185929 -121.952043 
L 262.740761 -119.993894 
L 262.337046 -118.035746 
L 261.97463 -116.077598 
L 261.652944 -114.11945 
L 261.370921 -112.161302 
L 261.126944 -110.203154 
L 260.918851 -108.245006 
L 260.74399 -106.286858 
L 260.599319 -104.328709 
L 260.481531 -102.370561 
z
" style="stroke: #3f3f3f; stroke-width: 1.25"/>
    </defs>
    <g clip-path="url(#pac4e3a9e33)">
     <use xlink:href="#m69f0124842" x="0" y="360" style="fill: #3274a1; stroke: #3f3f3f; stroke-width: 1.25"/>
    </g>
   </g>
   <g id="PolyCollection_4">
    <defs>
     <path id="mb8eeceaee7" d="M 325.832979 -69.716096 
L 325.078299 -69.716096 
L 324.980683 -71.195055 
L 324.865647 -72.674013 
L 324.732262 -74.152972 
L 324.5801 -75.63193 
L 324.409331 -77.110889 
L 324.22079 -78.589847 
L 324.015988 -80.068806 
L 323.797074 -81.547765 
L 323.566733 -83.026723 
L 323.328018 -84.505682 
L 323.084135 -85.98464 
L 322.838182 -87.463599 
L 322.592885 -88.942557 
L 322.350336 -90.421516 
L 322.111785 -91.900475 
L 321.877498 -93.379433 
L 321.646702 -94.858392 
L 321.417644 -96.33735 
L 321.187744 -97.816309 
L 320.953839 -99.295267 
L 320.712488 -100.774226 
L 320.460299 -102.253185 
L 320.194237 -103.732143 
L 319.911861 -105.211102 
L 319.611465 -106.69006 
L 319.292082 -108.169019 
L 318.953349 -109.647977 
L 318.595234 -111.126936 
L 318.217658 -112.605895 
L 317.820045 -114.084853 
L 317.400866 -115.563812 
L 316.957238 -117.04277 
L 316.484633 -118.521729 
L 315.976757 -120.000687 
L 315.425646 -121.479646 
L 314.821978 -122.958605 
L 314.155631 -124.437563 
L 313.416426 -125.916522 
L 312.595039 -127.39548 
L 311.683984 -128.874439 
L 310.678618 -130.353398 
L 309.578043 -131.832356 
L 308.385855 -133.311315 
L 307.110624 -134.790273 
L 305.766074 -136.269232 
L 304.370895 -137.74819 
L 302.948187 -139.227149 
L 301.524544 -140.706108 
L 300.128838 -142.185066 
L 298.790757 -143.664025 
L 297.539224 -145.142983 
L 296.40079 -146.621942 
L 295.398142 -148.1009 
L 294.548841 -149.579859 
L 293.864394 -151.058818 
L 293.349741 -152.537776 
L 293.003212 -154.016735 
L 292.816948 -155.495693 
L 292.777764 -156.974652 
L 292.868372 -158.45361 
L 293.068876 -159.932569 
L 293.358395 -161.411528 
L 293.716691 -162.890486 
L 294.125667 -164.369445 
L 294.570608 -165.848403 
L 295.041085 -167.327362 
L 295.531449 -168.80632 
L 296.040897 -170.285279 
L 296.573129 -171.764238 
L 297.135627 -173.243196 
L 297.738647 -174.722155 
L 298.394013 -176.201113 
L 299.113809 -177.680072 
L 299.909098 -179.15903 
L 300.78874 -180.637989 
L 301.758414 -182.116948 
L 302.819908 -183.595906 
L 303.970705 -185.074865 
L 305.203895 -186.553823 
L 306.508406 -188.032782 
L 307.869511 -189.51174 
L 309.269568 -190.990699 
L 310.688935 -192.469658 
L 312.106974 -193.948616 
L 313.503079 -195.427575 
L 314.857649 -196.906533 
L 316.152946 -198.385492 
L 317.373794 -199.86445 
L 318.508068 -201.343409 
L 319.546985 -202.822368 
L 320.485168 -204.301326 
L 321.32053 -205.780285 
L 322.053986 -207.259243 
L 322.689047 -208.738202 
L 323.231326 -210.21716 
L 323.688015 -211.696119 
L 324.067353 -213.175078 
L 324.378137 -214.654036 
L 324.629286 -216.132995 
L 326.281993 -216.132995 
L 326.281993 -216.132995 
L 326.533141 -214.654036 
L 326.843925 -213.175078 
L 327.223264 -211.696119 
L 327.679952 -210.21716 
L 328.222232 -208.738202 
L 328.857293 -207.259243 
L 329.590749 -205.780285 
L 330.426111 -204.301326 
L 331.364294 -202.822368 
L 332.40321 -201.343409 
L 333.537485 -199.86445 
L 334.758332 -198.385492 
L 336.05363 -196.906533 
L 337.408199 -195.427575 
L 338.804304 -193.948616 
L 340.222343 -192.469658 
L 341.64171 -190.990699 
L 343.041768 -189.51174 
L 344.402872 -188.032782 
L 345.707384 -186.553823 
L 346.940574 -185.074865 
L 348.09137 -183.595906 
L 349.152864 -182.116948 
L 350.122539 -180.637989 
L 351.00218 -179.15903 
L 351.797469 -177.680072 
L 352.517266 -176.201113 
L 353.172631 -174.722155 
L 353.775652 -173.243196 
L 354.33815 -171.764238 
L 354.870382 -170.285279 
L 355.37983 -168.80632 
L 355.870193 -167.327362 
L 356.34067 -165.848403 
L 356.785612 -164.369445 
L 357.194587 -162.890486 
L 357.552884 -161.411528 
L 357.842402 -159.932569 
L 358.042906 -158.45361 
L 358.133515 -156.974652 
L 358.09433 -155.495693 
L 357.908067 -154.016735 
L 357.561538 -152.537776 
L 357.046885 -151.058818 
L 356.362437 -149.579859 
L 355.513137 -148.1009 
L 354.510489 -146.621942 
L 353.372055 -145.142983 
L 352.120522 -143.664025 
L 350.782441 -142.185066 
L 349.386734 -140.706108 
L 347.963092 -139.227149 
L 346.540383 -137.74819 
L 345.145204 -136.269232 
L 343.800655 -134.790273 
L 342.525424 -133.311315 
L 341.333235 -131.832356 
L 340.232661 -130.353398 
L 339.227294 -128.874439 
L 338.31624 -127.39548 
L 337.494852 -125.916522 
L 336.755648 -124.437563 
L 336.0893 -122.958605 
L 335.485633 -121.479646 
L 334.934521 -120.000687 
L 334.426646 -118.521729 
L 333.954041 -117.04277 
L 333.510413 -115.563812 
L 333.091234 -114.084853 
L 332.69362 -112.605895 
L 332.316044 -111.126936 
L 331.95793 -109.647977 
L 331.619196 -108.169019 
L 331.299813 -106.69006 
L 330.999417 -105.211102 
L 330.717041 -103.732143 
L 330.450979 -102.253185 
L 330.198791 -100.774226 
L 329.95744 -99.295267 
L 329.723535 -97.816309 
L 329.493635 -96.33735 
L 329.264577 -94.858392 
L 329.033781 -93.379433 
L 328.799493 -91.900475 
L 328.560943 -90.421516 
L 328.318394 -88.942557 
L 328.073096 -87.463599 
L 327.827143 -85.98464 
L 327.58326 -84.505682 
L 327.344546 -83.026723 
L 327.114205 -81.547765 
L 326.895291 -80.068806 
L 326.690489 -78.589847 
L 326.501947 -77.110889 
L 326.331179 -75.63193 
L 326.179017 -74.152972 
L 326.045632 -72.674013 
L 325.930596 -71.195055 
L 325.832979 -69.716096 
z
" style="stroke: #3f3f3f; stroke-width: 1.25"/>
    </defs>
    <g clip-path="url(#pac4e3a9e33)">
     <use xlink:href="#mb8eeceaee7" x="0" y="360" style="fill: #e1812c; stroke: #3f3f3f; stroke-width: 1.25"/>
    </g>
   </g>
   <g id="line2d_6">
    <path d="M 96.710513 255.218748 
L 96.710513 129.837721 
" clip-path="url(#pac4e3a9e33)" style="fill: none; stroke: #3f3f3f; stroke-width: 1.875; stroke-linecap: round"/>
   </g>
   <g id="line2d_7">
    <path d="M 96.710513 219.964538 
L 96.710513 182.961925 
" clip-path="url(#pac4e3a9e33)" style="fill: none; stroke: #3f3f3f; stroke-width: 5.625; stroke-linecap: round"/>
   </g>
   <g id="line2d_8">
    <path d="M 96.710513 209.306945 
" clip-path="url(#pac4e3a9e33)" style="fill: none; stroke: #3f3f3f; stroke-width: 1.5; stroke-linecap: round"/>
    <defs>
     <path id="mde91b78656" d="M 2.34375 0 
L -2.34375 -0 
" style="stroke: #ffffff; stroke-width: 1.125"/>
    </defs>
    <g clip-path="url(#pac4e3a9e33)">
     <use xlink:href="#mde91b78656" x="96.710513" y="209.306945" style="fill: #ffffff; stroke: #ffffff; stroke-width: 1.125"/>
    </g>
   </g>
   <g id="line2d_9">
    <path d="M 162.066263 260.57332 
L 162.066263 131.605874 
" clip-path="url(#pac4e3a9e33)" style="fill: none; stroke: #3f3f3f; stroke-width: 1.875; stroke-linecap: round"/>
   </g>
   <g id="line2d_10">
    <path d="M 162.066263 223.823895 
L 162.066263 184.438338 
" clip-path="url(#pac4e3a9e33)" style="fill: none; stroke: #3f3f3f; stroke-width: 5.625; stroke-linecap: round"/>
   </g>
   <g id="line2d_11">
    <path d="M 162.066263 210.810913 
" clip-path="url(#pac4e3a9e33)" style="fill: none; stroke: #3f3f3f; stroke-width: 1.5; stroke-linecap: round"/>
    <g clip-path="url(#pac4e3a9e33)">
     <use xlink:href="#mde91b78656" x="162.066263" y="210.810913" style="fill: #ffffff; stroke: #ffffff; stroke-width: 1.125"/>
    </g>
   </g>
   <g id="line2d_12">
    <path d="M 260.099889 227.723837 
L 260.099889 134.760001 
" clip-path="url(#pac4e3a9e33)" style="fill: none; stroke: #3f3f3f; stroke-width: 1.875; stroke-linecap: round"/>
   </g>
   <g id="line2d_13">
    <path d="M 260.099889 190.162001 
L 260.099889 157.410069 
" clip-path="url(#pac4e3a9e33)" style="fill: none; stroke: #3f3f3f; stroke-width: 5.625; stroke-linecap: round"/>
   </g>
   <g id="line2d_14">
    <path d="M 260.099889 166.897156 
" clip-path="url(#pac4e3a9e33)" style="fill: none; stroke: #3f3f3f; stroke-width: 1.5; stroke-linecap: round"/>
    <g clip-path="url(#pac4e3a9e33)">
     <use xlink:href="#mde91b78656" x="260.099889" y="166.897156" style="fill: #ffffff; stroke: #ffffff; stroke-width: 1.125"/>
    </g>
   </g>
   <g id="line2d_15">
    <path d="M 325.455639 244.072922 
L 325.455639 169.096265 
" clip-path="url(#pac4e3a9e33)" style="fill: none; stroke: #3f3f3f; stroke-width: 1.875; stroke-linecap: round"/>
   </g>
   <g id="line2d_16">
    <path d="M 325.455639 214.074682 
L 325.455639 185.78574 
" clip-path="url(#pac4e3a9e33)" style="fill: none; stroke: #3f3f3f; stroke-width: 5.625; stroke-linecap: round"/>
   </g>
   <g id="line2d_17">
    <path d="M 325.455639 204.661055 
" clip-path="url(#pac4e3a9e33)" style="fill: none; stroke: #3f3f3f; stroke-width: 1.5; stroke-linecap: round"/>
    <g clip-path="url(#pac4e3a9e33)">
     <use xlink:href="#mde91b78656" x="325.455639" y="204.661055" style="fill: #ffffff; stroke: #ffffff; stroke-width: 1.125"/>
    </g>
   </g>
   <g id="patch_3">
    <path d="M 47.6937 318.04 
L 47.6937 24.72 
" style="fill: none; stroke: #cccccc; stroke-width: 0.8; stroke-linejoin: miter; stroke-linecap: square"/>
   </g>
   <g id="patch_4">
    <path d="M 47.6937 318.04 
L 374.472452 318.04 
" style="fill: none; stroke: #cccccc; stroke-width: 0.8; stroke-linejoin: miter; stroke-linecap: square"/>
   </g>
   <g id="text_10">
    <!-- sex = m -->
    <g style="fill: #262626" transform="translate(193.439326 18.72) scale(0.1 -0.1)">
     <defs>
      <path id="ArialMT-78" d="M 47 0 
L 1259 1725 
L 138 3319 
L 841 3319 
L 1350 2541 
Q 1494 2319 1581 2169 
Q 1719 2375 1834 2534 
L 2394 3319 
L 3066 3319 
L 1919 1756 
L 3153 0 
L 2463 0 
L 1781 1031 
L 1600 1309 
L 728 0 
L 47 0 
z
" transform="scale(0.015625)"/>
      <path id="ArialMT-20" transform="scale(0.015625)"/>
      <path id="ArialMT-3d" d="M 3381 2694 
L 356 2694 
L 356 3219 
L 3381 3219 
L 3381 2694 
z
M 3381 1303 
L 356 1303 
L 356 1828 
L 3381 1828 
L 3381 1303 
z
" transform="scale(0.015625)"/>
      <path id="ArialMT-6d" d="M 422 0 
L 422 3319 
L 925 3319 
L 925 2853 
Q 1081 3097 1340 3245 
Q 1600 3394 1931 3394 
Q 2300 3394 2536 3241 
Q 2772 3088 2869 2813 
Q 3263 3394 3894 3394 
Q 4388 3394 4653 3120 
Q 4919 2847 4919 2278 
L 4919 0 
L 4359 0 
L 4359 2091 
Q 4359 2428 4304 2576 
Q 4250 2725 4106 2815 
Q 3963 2906 3769 2906 
Q 3419 2906 3187 2673 
Q 2956 2441 2956 1928 
L 2956 0 
L 2394 0 
L 2394 2156 
Q 2394 2531 2256 2718 
Q 2119 2906 1806 2906 
Q 1569 2906 1367 2781 
Q 1166 2656 1075 2415 
Q 984 2175 984 1722 
L 984 0 
L 422 0 
z
" transform="scale(0.015625)"/>
     </defs>
     <use xlink:href="#ArialMT-73"/>
     <use xlink:href="#ArialMT-65" x="50"/>
     <use xlink:href="#ArialMT-78" x="105.615234"/>
     <use xlink:href="#ArialMT-20" x="155.615234"/>
     <use xlink:href="#ArialMT-3d" x="183.398438"/>
     <use xlink:href="#ArialMT-20" x="241.796875"/>
     <use xlink:href="#ArialMT-6d" x="269.580078"/>
    </g>
   </g>
  </g>
  <g id="axes_2">
   <g id="patch_5">
    <path d="M 385.242748 318.04 
L 712.0215 318.04 
L 712.0215 24.72 
L 385.242748 24.72 
z
" style="fill: #ffffff"/>
   </g>
   <g id="matplotlib.axis_3">
    <g id="xtick_3">
     <g id="text_11">
      <!-- Control -->
      <g style="fill: #262626" transform="translate(450.820248 332.197812) scale(0.1 -0.1)">
       <use xlink:href="#ArialMT-43"/>
       <use xlink:href="#ArialMT-6f" x="72.216797"/>
       <use xlink:href="#ArialMT-6e" x="127.832031"/>
       <use xlink:href="#ArialMT-74" x="183.447266"/>
       <use xlink:href="#ArialMT-72" x="211.230469"/>
       <use xlink:href="#ArialMT-6f" x="244.53125"/>
       <use xlink:href="#ArialMT-6c" x="300.146484"/>
      </g>
     </g>
    </g>
    <g id="xtick_4">
     <g id="text_12">
      <!-- Test -->
      <g style="fill: #262626" transform="translate(621.159624 332.197812) scale(0.1 -0.1)">
       <use xlink:href="#ArialMT-54"/>
       <use xlink:href="#ArialMT-65" x="49.958984"/>
       <use xlink:href="#ArialMT-73" x="105.574219"/>
       <use xlink:href="#ArialMT-74" x="155.574219"/>
      </g>
     </g>
    </g>
    <g id="text_13">
     <!-- group -->
     <g style="fill: #262626" transform="translate(535.845405 345.225938) scale(0.1 -0.1)">
      <use xlink:href="#ArialMT-67"/>
      <use xlink:href="#ArialMT-72" x="55.615234"/>
      <use xlink:href="#ArialMT-6f" x="88.916016"/>
      <use xlink:href="#ArialMT-75" x="144.53125"/>
      <use xlink:href="#ArialMT-70" x="200.146484"/>
     </g>
    </g>
   </g>
   <g id="matplotlib.axis_4">
    <g id="ytick_6">
     <g id="line2d_18">
      <path d="M 385.242748 278.191284 
L 712.0215 278.191284 
" clip-path="url(#pde885c2ec0)" style="fill: none; stroke: #cccccc; stroke-width: 0.8; stroke-linecap: round"/>
     </g>
    </g>
    <g id="ytick_7">
     <g id="line2d_19">
      <path d="M 385.242748 220.208875 
L 712.0215 220.208875 
" clip-path="url(#pde885c2ec0)" style="fill: none; stroke: #cccccc; stroke-width: 0.8; stroke-linecap: round"/>
     </g>
    </g>
    <g id="ytick_8">
     <g id="line2d_20">
      <path d="M 385.242748 162.226467 
L 712.0215 162.226467 
" clip-path="url(#pde885c2ec0)" style="fill: none; stroke: #cccccc; stroke-width: 0.8; stroke-linecap: round"/>
     </g>
    </g>
    <g id="ytick_9">
     <g id="line2d_21">
      <path d="M 385.242748 104.244059 
L 712.0215 104.244059 
" clip-path="url(#pde885c2ec0)" style="fill: none; stroke: #cccccc; stroke-width: 0.8; stroke-linecap: round"/>
     </g>
    </g>
    <g id="ytick_10">
     <g id="line2d_22">
      <path d="M 385.242748 46.26165 
L 712.0215 46.26165 
" clip-path="url(#pde885c2ec0)" style="fill: none; stroke: #cccccc; stroke-width: 0.8; stroke-linecap: round"/>
     </g>
    </g>
   </g>
   <g id="PolyCollection_5">
    <defs>
     <path id="m7d993debd7" d="M 434.896131 -62.984064 
L 433.62299 -62.984064 
L 433.467711 -64.874054 
L 433.284058 -66.764044 
L 433.069263 -68.654033 
L 432.820833 -70.544023 
L 432.536663 -72.434013 
L 432.215167 -74.324003 
L 431.855379 -76.213992 
L 431.457046 -78.103982 
L 431.020687 -79.993972 
L 430.547615 -81.883962 
L 430.039926 -83.773952 
L 429.500434 -85.663941 
L 428.932571 -87.553931 
L 428.340246 -89.443921 
L 427.727669 -91.333911 
L 427.099155 -93.223901 
L 426.45892 -95.11389 
L 425.810871 -97.00388 
L 425.158419 -98.89387 
L 424.504313 -100.78386 
L 423.85052 -102.673849 
L 423.19814 -104.563839 
L 422.547376 -106.453829 
L 421.89756 -108.343819 
L 421.247217 -110.233809 
L 420.594185 -112.123798 
L 419.935769 -114.013788 
L 419.268928 -115.903778 
L 418.590478 -117.793768 
L 417.897322 -119.683757 
L 417.186668 -121.573747 
L 416.456264 -123.463737 
L 415.704605 -125.353727 
L 414.931138 -127.243717 
L 414.136438 -129.133706 
L 413.322361 -131.023696 
L 412.492158 -132.913686 
L 411.650557 -134.803676 
L 410.803795 -136.693665 
L 409.959605 -138.583655 
L 409.12715 -140.473645 
L 408.316892 -142.363635 
L 407.540417 -144.253625 
L 406.810185 -146.143614 
L 406.139242 -148.033604 
L 405.540867 -149.923594 
L 405.028186 -151.813584 
L 404.613755 -153.703573 
L 404.30912 -155.593563 
L 404.124391 -157.483553 
L 404.067813 -159.373543 
L 404.1454 -161.263533 
L 404.360604 -163.153522 
L 404.714079 -165.043512 
L 405.203529 -166.933502 
L 405.823668 -168.823492 
L 406.566294 -170.713482 
L 407.420487 -172.603471 
L 408.37292 -174.493461 
L 409.40828 -176.383451 
L 410.509771 -178.273441 
L 411.65969 -180.16343 
L 412.840039 -182.05342 
L 414.033142 -183.94341 
L 415.222238 -185.8334 
L 416.392026 -187.72339 
L 417.529118 -189.613379 
L 418.622397 -191.503369 
L 419.663248 -193.393359 
L 420.64567 -195.283349 
L 421.56625 -197.173338 
L 422.424024 -199.063328 
L 423.220227 -200.953318 
L 423.957954 -202.843308 
L 424.64176 -204.733298 
L 425.277221 -206.623287 
L 425.870484 -208.513277 
L 426.427834 -210.403267 
L 426.955299 -212.293257 
L 427.458322 -214.183246 
L 427.941496 -216.073236 
L 428.408398 -217.963226 
L 428.861496 -219.853216 
L 429.30215 -221.743206 
L 429.73069 -223.633195 
L 430.146544 -225.523185 
L 430.548431 -227.413175 
L 430.934568 -229.303165 
L 431.302899 -231.193154 
L 431.651305 -233.083144 
L 431.977803 -234.973134 
L 432.280712 -236.863124 
L 432.558769 -238.753114 
L 432.811212 -240.643103 
L 433.037815 -242.533093 
L 433.23888 -244.423083 
L 433.415202 -246.313073 
L 433.568004 -248.203063 
L 433.698852 -250.093052 
L 434.820269 -250.093052 
L 434.820269 -250.093052 
L 434.951117 -248.203063 
L 435.103919 -246.313073 
L 435.280242 -244.423083 
L 435.481307 -242.533093 
L 435.707909 -240.643103 
L 435.960352 -238.753114 
L 436.238409 -236.863124 
L 436.541318 -234.973134 
L 436.867817 -233.083144 
L 437.216222 -231.193154 
L 437.584553 -229.303165 
L 437.970691 -227.413175 
L 438.372578 -225.523185 
L 438.788432 -223.633195 
L 439.216971 -221.743206 
L 439.657626 -219.853216 
L 440.110724 -217.963226 
L 440.577625 -216.073236 
L 441.0608 -214.183246 
L 441.563822 -212.293257 
L 442.091288 -210.403267 
L 442.648637 -208.513277 
L 443.2419 -206.623287 
L 443.877361 -204.733298 
L 444.561168 -202.843308 
L 445.298895 -200.953318 
L 446.095097 -199.063328 
L 446.952871 -197.173338 
L 447.873451 -195.283349 
L 448.855873 -193.393359 
L 449.896725 -191.503369 
L 450.990003 -189.613379 
L 452.127096 -187.72339 
L 453.296884 -185.8334 
L 454.48598 -183.94341 
L 455.679082 -182.05342 
L 456.859431 -180.16343 
L 458.00935 -178.273441 
L 459.110841 -176.383451 
L 460.146201 -174.493461 
L 461.098635 -172.603471 
L 461.952828 -170.713482 
L 462.695453 -168.823492 
L 463.315592 -166.933502 
L 463.805042 -165.043512 
L 464.158518 -163.153522 
L 464.373722 -161.263533 
L 464.451308 -159.373543 
L 464.394731 -157.483553 
L 464.210001 -155.593563 
L 463.905367 -153.703573 
L 463.490935 -151.813584 
L 462.978254 -149.923594 
L 462.379879 -148.033604 
L 461.708936 -146.143614 
L 460.978705 -144.253625 
L 460.202229 -142.363635 
L 459.391972 -140.473645 
L 458.559516 -138.583655 
L 457.715327 -136.693665 
L 456.868565 -134.803676 
L 456.026963 -132.913686 
L 455.19676 -131.023696 
L 454.382683 -129.133706 
L 453.587983 -127.243717 
L 452.814516 -125.353727 
L 452.062857 -123.463737 
L 451.332453 -121.573747 
L 450.6218 -119.683757 
L 449.928643 -117.793768 
L 449.250194 -115.903778 
L 448.583352 -114.013788 
L 447.924936 -112.123798 
L 447.271905 -110.233809 
L 446.621561 -108.343819 
L 445.971745 -106.453829 
L 445.320982 -104.563839 
L 444.668601 -102.673849 
L 444.014808 -100.78386 
L 443.360703 -98.89387 
L 442.70825 -97.00388 
L 442.060201 -95.11389 
L 441.419966 -93.223901 
L 440.791453 -91.333911 
L 440.178876 -89.443921 
L 439.58655 -87.553931 
L 439.018688 -85.663941 
L 438.479195 -83.773952 
L 437.971506 -81.883962 
L 437.498435 -79.993972 
L 437.062075 -78.103982 
L 436.663742 -76.213992 
L 436.303954 -74.324003 
L 435.982458 -72.434013 
L 435.698289 -70.544023 
L 435.449858 -68.654033 
L 435.235064 -66.764044 
L 435.05141 -64.874054 
L 434.896131 -62.984064 
z
" style="stroke: #3f3f3f; stroke-width: 1.25"/>
    </defs>
    <g clip-path="url(#pde885c2ec0)">
     <use xlink:href="#m7d993debd7" x="0" y="360" style="fill: #3274a1; stroke: #3f3f3f; stroke-width: 1.25"/>
    </g>
   </g>
   <g id="PolyCollection_6">
    <defs>
     <path id="m0380aaae6b" d="M 500.567213 -66.662749 
L 498.66341 -66.662749 
L 498.448024 -68.216776 
L 498.19787 -69.770802 
L 497.910826 -71.324829 
L 497.585466 -72.878855 
L 497.221226 -74.432882 
L 496.818573 -75.986908 
L 496.379125 -77.540935 
L 495.90574 -79.094961 
L 495.402538 -80.648988 
L 494.874859 -82.203015 
L 494.329147 -83.757041 
L 493.772756 -85.311068 
L 493.213686 -86.865094 
L 492.660254 -88.419121 
L 492.120724 -89.973147 
L 491.602904 -91.527174 
L 491.11374 -93.0812 
L 490.658938 -94.635227 
L 490.242628 -96.189253 
L 489.867093 -97.74328 
L 489.532593 -99.297306 
L 489.237285 -100.851333 
L 488.977241 -102.405359 
L 488.746582 -103.959386 
L 488.537688 -105.513412 
L 488.341503 -107.067439 
L 488.14789 -108.621466 
L 487.946027 -110.175492 
L 487.724817 -111.729519 
L 487.473296 -113.283545 
L 487.181015 -114.837572 
L 486.838384 -116.391598 
L 486.43697 -117.945625 
L 485.969743 -119.499651 
L 485.431269 -121.053678 
L 484.81785 -122.607704 
L 484.127632 -124.161731 
L 483.360659 -125.715757 
L 482.518914 -127.269784 
L 481.606324 -128.82381 
L 480.628756 -130.377837 
L 479.593987 -131.931863 
L 478.511662 -133.48589 
L 477.393231 -135.039917 
L 476.251854 -136.593943 
L 475.102279 -138.14797 
L 473.960671 -139.701996 
L 472.844392 -141.256023 
L 471.771728 -142.810049 
L 470.761547 -144.364076 
L 469.832894 -145.918102 
L 469.004532 -147.472129 
L 468.294432 -149.026155 
L 467.71922 -150.580182 
L 467.293623 -152.134208 
L 467.02992 -153.688235 
L 466.937436 -155.242261 
L 467.022108 -156.796288 
L 467.286159 -158.350314 
L 467.727892 -159.904341 
L 468.341648 -161.458367 
L 469.117914 -163.012394 
L 470.043607 -164.566421 
L 471.102511 -166.120447 
L 472.275852 -167.674474 
L 473.542985 -169.2285 
L 474.882152 -170.782527 
L 476.271264 -172.336553 
L 477.688682 -173.89058 
L 479.113919 -175.444606 
L 480.528265 -176.998633 
L 481.915272 -178.552659 
L 483.261096 -180.106686 
L 484.55468 -181.660712 
L 485.78778 -183.214739 
L 486.954854 -184.768765 
L 488.052821 -186.322792 
L 489.080735 -187.876818 
L 490.039396 -189.430845 
L 490.930932 -190.984872 
L 491.758386 -192.538898 
L 492.525337 -194.092925 
L 493.235568 -195.646951 
L 493.892809 -197.200978 
L 494.50054 -198.755004 
L 495.061886 -200.309031 
L 495.579557 -201.863057 
L 496.055867 -203.417084 
L 496.492775 -204.97111 
L 496.891974 -206.525137 
L 497.254979 -208.079163 
L 497.583223 -209.63319 
L 497.87814 -211.187216 
L 498.141236 -212.741243 
L 498.374135 -214.295269 
L 498.578598 -215.849296 
L 498.75653 -217.403323 
L 498.909961 -218.957349 
L 499.041014 -220.511376 
L 500.189608 -220.511376 
L 500.189608 -220.511376 
L 500.320661 -218.957349 
L 500.474092 -217.403323 
L 500.652025 -215.849296 
L 500.856488 -214.295269 
L 501.089386 -212.741243 
L 501.352482 -211.187216 
L 501.6474 -209.63319 
L 501.975643 -208.079163 
L 502.338648 -206.525137 
L 502.737847 -204.97111 
L 503.174756 -203.417084 
L 503.651065 -201.863057 
L 504.168736 -200.309031 
L 504.730082 -198.755004 
L 505.337814 -197.200978 
L 505.995054 -195.646951 
L 506.705285 -194.092925 
L 507.472236 -192.538898 
L 508.29969 -190.984872 
L 509.191226 -189.430845 
L 510.149887 -187.876818 
L 511.177802 -186.322792 
L 512.275768 -184.768765 
L 513.442842 -183.214739 
L 514.675942 -181.660712 
L 515.969526 -180.106686 
L 517.31535 -178.552659 
L 518.702357 -176.998633 
L 520.116704 -175.444606 
L 521.541941 -173.89058 
L 522.959358 -172.336553 
L 524.348471 -170.782527 
L 525.687637 -169.2285 
L 526.95477 -167.674474 
L 528.128111 -166.120447 
L 529.187015 -164.566421 
L 530.112709 -163.012394 
L 530.888975 -161.458367 
L 531.50273 -159.904341 
L 531.944464 -158.350314 
L 532.208514 -156.796288 
L 532.293186 -155.242261 
L 532.200702 -153.688235 
L 531.936999 -152.134208 
L 531.511402 -150.580182 
L 530.93619 -149.026155 
L 530.22609 -147.472129 
L 529.397729 -145.918102 
L 528.469076 -144.364076 
L 527.458894 -142.810049 
L 526.38623 -141.256023 
L 525.269952 -139.701996 
L 524.128343 -138.14797 
L 522.978768 -136.593943 
L 521.837391 -135.039917 
L 520.71896 -133.48589 
L 519.636635 -131.931863 
L 518.601866 -130.377837 
L 517.624298 -128.82381 
L 516.711708 -127.269784 
L 515.869963 -125.715757 
L 515.10299 -124.161731 
L 514.412772 -122.607704 
L 513.799354 -121.053678 
L 513.260879 -119.499651 
L 512.793652 -117.945625 
L 512.392239 -116.391598 
L 512.049608 -114.837572 
L 511.757327 -113.283545 
L 511.505806 -111.729519 
L 511.284595 -110.175492 
L 511.082732 -108.621466 
L 510.889119 -107.067439 
L 510.692934 -105.513412 
L 510.48404 -103.959386 
L 510.253381 -102.405359 
L 509.993338 -100.851333 
L 509.698029 -99.297306 
L 509.36353 -97.74328 
L 508.987994 -96.189253 
L 508.571684 -94.635227 
L 508.116883 -93.0812 
L 507.627719 -91.527174 
L 507.109898 -89.973147 
L 506.570368 -88.419121 
L 506.016936 -86.865094 
L 505.457866 -85.311068 
L 504.901475 -83.757041 
L 504.355763 -82.203015 
L 503.828085 -80.648988 
L 503.324883 -79.094961 
L 502.851498 -77.540935 
L 502.41205 -75.986908 
L 502.009396 -74.432882 
L 501.645156 -72.878855 
L 501.319796 -71.324829 
L 501.032753 -69.770802 
L 500.782598 -68.216776 
L 500.567213 -66.662749 
z
" style="stroke: #3f3f3f; stroke-width: 1.25"/>
    </defs>
    <g clip-path="url(#pde885c2ec0)">
     <use xlink:href="#m0380aaae6b" x="0" y="360" style="fill: #e1812c; stroke: #3f3f3f; stroke-width: 1.25"/>
    </g>
   </g>
   <g id="PolyCollection_7">
    <defs>
     <path id="mc8272e660f" d="M 599.237772 -117.618754 
L 596.060101 -117.618754 
L 595.684169 -119.380536 
L 595.238395 -121.142318 
L 594.714695 -122.9041 
L 594.105196 -124.665881 
L 593.402547 -126.427663 
L 592.600276 -128.189445 
L 591.693168 -129.951227 
L 590.677675 -131.713008 
L 589.552321 -133.47479 
L 588.318093 -135.236572 
L 586.978791 -136.998354 
L 585.541316 -138.760136 
L 584.015868 -140.521917 
L 582.416043 -142.283699 
L 580.758785 -144.045481 
L 579.064211 -145.807263 
L 577.355275 -147.569044 
L 575.65728 -149.330826 
L 573.997248 -151.092608 
L 572.403166 -152.85439 
L 570.903122 -154.616171 
L 569.524382 -156.377953 
L 568.292438 -158.139735 
L 567.230074 -159.901517 
L 566.356496 -161.663298 
L 565.686574 -163.42508 
L 565.230239 -165.186862 
L 564.992063 -166.948644 
L 564.971062 -168.710425 
L 565.160716 -170.472207 
L 565.549233 -172.233989 
L 566.120023 -173.995771 
L 566.852376 -175.757553 
L 567.722297 -177.519334 
L 568.703464 -179.281116 
L 569.768253 -181.042898 
L 570.888782 -182.80468 
L 572.037917 -184.566461 
L 573.190194 -186.328243 
L 574.322616 -188.090025 
L 575.415286 -189.851807 
L 576.451865 -191.613588 
L 577.419826 -193.37537 
L 578.310528 -195.137152 
L 579.119098 -196.898934 
L 579.844161 -198.660715 
L 580.487433 -200.422497 
L 581.05322 -202.184279 
L 581.547852 -203.946061 
L 581.979096 -205.707842 
L 582.355577 -207.469624 
L 582.686231 -209.231406 
L 582.979837 -210.993188 
L 583.244617 -212.75497 
L 583.487946 -214.516751 
L 583.716146 -216.278533 
L 583.934396 -218.040315 
L 584.146718 -219.802097 
L 584.356059 -221.563878 
L 584.564422 -223.32566 
L 584.773059 -225.087442 
L 584.98268 -226.849224 
L 585.193681 -228.611005 
L 585.406357 -230.372787 
L 585.621093 -232.134569 
L 585.838518 -233.896351 
L 586.05961 -235.658132 
L 586.285749 -237.419914 
L 586.518718 -239.181696 
L 586.760645 -240.943478 
L 587.013902 -242.705259 
L 587.280972 -244.467041 
L 587.564282 -246.228823 
L 587.866027 -247.990605 
L 588.187996 -249.752387 
L 588.531416 -251.514168 
L 588.896818 -253.27595 
L 589.283943 -255.037732 
L 589.69169 -256.799514 
L 590.118117 -258.561295 
L 590.560485 -260.323077 
L 591.015342 -262.084859 
L 591.478659 -263.846641 
L 591.945981 -265.608422 
L 592.412606 -267.370204 
L 592.873765 -269.131986 
L 593.324807 -270.893768 
L 593.761365 -272.655549 
L 594.179501 -274.417331 
L 594.575823 -276.179113 
L 594.947573 -277.940895 
L 595.29267 -279.702676 
L 595.609737 -281.464458 
L 595.898074 -283.22624 
L 596.157627 -284.988022 
L 596.388913 -286.749804 
L 596.59295 -288.511585 
L 596.771158 -290.273367 
L 596.925271 -292.035149 
L 598.372603 -292.035149 
L 598.372603 -292.035149 
L 598.526715 -290.273367 
L 598.704923 -288.511585 
L 598.90896 -286.749804 
L 599.140247 -284.988022 
L 599.399799 -283.22624 
L 599.688137 -281.464458 
L 600.005203 -279.702676 
L 600.350301 -277.940895 
L 600.72205 -276.179113 
L 601.118373 -274.417331 
L 601.536508 -272.655549 
L 601.973066 -270.893768 
L 602.424109 -269.131986 
L 602.885268 -267.370204 
L 603.351892 -265.608422 
L 603.819214 -263.846641 
L 604.282532 -262.084859 
L 604.737389 -260.323077 
L 605.179756 -258.561295 
L 605.606184 -256.799514 
L 606.013931 -255.037732 
L 606.401055 -253.27595 
L 606.766457 -251.514168 
L 607.109878 -249.752387 
L 607.431847 -247.990605 
L 607.733591 -246.228823 
L 608.016901 -244.467041 
L 608.283972 -242.705259 
L 608.537229 -240.943478 
L 608.779155 -239.181696 
L 609.012124 -237.419914 
L 609.238264 -235.658132 
L 609.459356 -233.896351 
L 609.676781 -232.134569 
L 609.891517 -230.372787 
L 610.104193 -228.611005 
L 610.315194 -226.849224 
L 610.524815 -225.087442 
L 610.733452 -223.32566 
L 610.941815 -221.563878 
L 611.151156 -219.802097 
L 611.363478 -218.040315 
L 611.581727 -216.278533 
L 611.809928 -214.516751 
L 612.053256 -212.75497 
L 612.318037 -210.993188 
L 612.611643 -209.231406 
L 612.942297 -207.469624 
L 613.318777 -205.707842 
L 613.750022 -203.946061 
L 614.244654 -202.184279 
L 614.81044 -200.422497 
L 615.453712 -198.660715 
L 616.178775 -196.898934 
L 616.987345 -195.137152 
L 617.878047 -193.37537 
L 618.846009 -191.613588 
L 619.882587 -189.851807 
L 620.975258 -188.090025 
L 622.107679 -186.328243 
L 623.259956 -184.566461 
L 624.409091 -182.80468 
L 625.529621 -181.042898 
L 626.59441 -179.281116 
L 627.575576 -177.519334 
L 628.445497 -175.757553 
L 629.17785 -173.995771 
L 629.748641 -172.233989 
L 630.137158 -170.472207 
L 630.326812 -168.710425 
L 630.30581 -166.948644 
L 630.067635 -165.186862 
L 629.611299 -163.42508 
L 628.941377 -161.663298 
L 628.067799 -159.901517 
L 627.005436 -158.139735 
L 625.773492 -156.377953 
L 624.394752 -154.616171 
L 622.894707 -152.85439 
L 621.300625 -151.092608 
L 619.640594 -149.330826 
L 617.942599 -147.569044 
L 616.233662 -145.807263 
L 614.539089 -144.045481 
L 612.881831 -142.283699 
L 611.282005 -140.521917 
L 609.756558 -138.760136 
L 608.319082 -136.998354 
L 606.97978 -135.236572 
L 605.745552 -133.47479 
L 604.620199 -131.713008 
L 603.604706 -129.951227 
L 602.697598 -128.189445 
L 601.895326 -126.427663 
L 601.192678 -124.665881 
L 600.583178 -122.9041 
L 600.059478 -121.142318 
L 599.613705 -119.380536 
L 599.237772 -117.618754 
z
" style="stroke: #3f3f3f; stroke-width: 1.25"/>
    </defs>
    <g clip-path="url(#pde885c2ec0)">
     <use xlink:href="#mc8272e660f" x="0" y="360" style="fill: #3274a1; stroke: #3f3f3f; stroke-width: 1.25"/>
    </g>
   </g>
   <g id="PolyCollection_8">
    <defs>
     <path id="mf8bee52528" d="M 663.686097 -55.292727 
L 662.323277 -55.292727 
L 662.148786 -57.986208 
L 661.939874 -60.679688 
L 661.692522 -63.373168 
L 661.40291 -66.066648 
L 661.067592 -68.760129 
L 660.683688 -71.453609 
L 660.249075 -74.147089 
L 659.762574 -76.840569 
L 659.224113 -79.53405 
L 658.63486 -82.22753 
L 657.997304 -84.92101 
L 657.315292 -87.61449 
L 656.593991 -90.307971 
L 655.839791 -93.001451 
L 655.060146 -95.694931 
L 654.263353 -98.388411 
L 653.458286 -101.081892 
L 652.654105 -103.775372 
L 651.85995 -106.468852 
L 651.084644 -109.162332 
L 650.33643 -111.855813 
L 649.622755 -114.549293 
L 648.950109 -117.242773 
L 648.323945 -119.936253 
L 647.748664 -122.629734 
L 647.227668 -125.323214 
L 646.763476 -128.016694 
L 646.357874 -130.710174 
L 646.012086 -133.403655 
L 645.72694 -136.097135 
L 645.503019 -138.790615 
L 645.340758 -141.484096 
L 645.240494 -144.177576 
L 645.202447 -146.871056 
L 645.226642 -149.564536 
L 645.312783 -152.258017 
L 645.460082 -154.951497 
L 645.667079 -157.644977 
L 645.931466 -160.338457 
L 646.249951 -163.031938 
L 646.618172 -165.725418 
L 647.030692 -168.418898 
L 647.481073 -171.112378 
L 647.962043 -173.805859 
L 648.465741 -176.499339 
L 648.984027 -179.192819 
L 649.50884 -181.886299 
L 650.032558 -184.57978 
L 650.548358 -187.27326 
L 651.050514 -189.96674 
L 651.534635 -192.66022 
L 651.9978 -195.353701 
L 652.438599 -198.047181 
L 652.857051 -200.740661 
L 653.254442 -203.434141 
L 653.633061 -206.127622 
L 653.995888 -208.821102 
L 654.346244 -211.514582 
L 654.687441 -214.208062 
L 655.022463 -216.901543 
L 655.3537 -219.595023 
L 655.682758 -222.288503 
L 656.010352 -224.981983 
L 656.336303 -227.675464 
L 656.659608 -230.368944 
L 656.978594 -233.062424 
L 657.291128 -235.755904 
L 657.594859 -238.449385 
L 657.887467 -241.142865 
L 658.1669 -243.836345 
L 658.431578 -246.529826 
L 658.680531 -249.223306 
L 658.913492 -251.916786 
L 659.130904 -254.610266 
L 659.333875 -257.303747 
L 659.524071 -259.997227 
L 659.703562 -262.690707 
L 659.874646 -265.384187 
L 660.039663 -268.077668 
L 660.200808 -270.771148 
L 660.359979 -273.464628 
L 660.518649 -276.158108 
L 660.677788 -278.851589 
L 660.83782 -281.545069 
L 660.99864 -284.238549 
L 661.159658 -286.932029 
L 661.319881 -289.62551 
L 661.478018 -292.31899 
L 661.632598 -295.01247 
L 661.782083 -297.70595 
L 661.924982 -300.399431 
L 662.059947 -303.092911 
L 662.185844 -305.786391 
L 662.301808 -308.479871 
L 662.407272 -311.173352 
L 662.501967 -313.866832 
L 662.585915 -316.560312 
L 662.659393 -319.253792 
L 662.722898 -321.947273 
L 663.286476 -321.947273 
L 663.286476 -321.947273 
L 663.349981 -319.253792 
L 663.42346 -316.560312 
L 663.507407 -313.866832 
L 663.602102 -311.173352 
L 663.707566 -308.479871 
L 663.823531 -305.786391 
L 663.949428 -303.092911 
L 664.084392 -300.399431 
L 664.227292 -297.70595 
L 664.376777 -295.01247 
L 664.531356 -292.31899 
L 664.689494 -289.62551 
L 664.849717 -286.932029 
L 665.010734 -284.238549 
L 665.171554 -281.545069 
L 665.331587 -278.851589 
L 665.490725 -276.158108 
L 665.649396 -273.464628 
L 665.808567 -270.771148 
L 665.969712 -268.077668 
L 666.134728 -265.384187 
L 666.305812 -262.690707 
L 666.485303 -259.997227 
L 666.675499 -257.303747 
L 666.878471 -254.610266 
L 667.095883 -251.916786 
L 667.328843 -249.223306 
L 667.577797 -246.529826 
L 667.842474 -243.836345 
L 668.121908 -241.142865 
L 668.414516 -238.449385 
L 668.718246 -235.755904 
L 669.030781 -233.062424 
L 669.349767 -230.368944 
L 669.673071 -227.675464 
L 669.999022 -224.981983 
L 670.326617 -222.288503 
L 670.655674 -219.595023 
L 670.986912 -216.901543 
L 671.321934 -214.208062 
L 671.663131 -211.514582 
L 672.013486 -208.821102 
L 672.376313 -206.127622 
L 672.754932 -203.434141 
L 673.152323 -200.740661 
L 673.570776 -198.047181 
L 674.011574 -195.353701 
L 674.47474 -192.66022 
L 674.95886 -189.96674 
L 675.461017 -187.27326 
L 675.976816 -184.57978 
L 676.500534 -181.886299 
L 677.025347 -179.192819 
L 677.543634 -176.499339 
L 678.047331 -173.805859 
L 678.528301 -171.112378 
L 678.978682 -168.418898 
L 679.391202 -165.725418 
L 679.759424 -163.031938 
L 680.077909 -160.338457 
L 680.342296 -157.644977 
L 680.549292 -154.951497 
L 680.696591 -152.258017 
L 680.782732 -149.564536 
L 680.806927 -146.871056 
L 680.76888 -144.177576 
L 680.668616 -141.484096 
L 680.506356 -138.790615 
L 680.282435 -136.097135 
L 679.997289 -133.403655 
L 679.6515 -130.710174 
L 679.245898 -128.016694 
L 678.781707 -125.323214 
L 678.260711 -122.629734 
L 677.685429 -119.936253 
L 677.059265 -117.242773 
L 676.386619 -114.549293 
L 675.672944 -111.855813 
L 674.924731 -109.162332 
L 674.149425 -106.468852 
L 673.355269 -103.775372 
L 672.551088 -101.081892 
L 671.746021 -98.388411 
L 670.949228 -95.694931 
L 670.169583 -93.001451 
L 669.415384 -90.307971 
L 668.694082 -87.61449 
L 668.01207 -84.92101 
L 667.374515 -82.22753 
L 666.785261 -79.53405 
L 666.2468 -76.840569 
L 665.760299 -74.147089 
L 665.325687 -71.453609 
L 664.941782 -68.760129 
L 664.606464 -66.066648 
L 664.316852 -63.373168 
L 664.069501 -60.679688 
L 663.860588 -57.986208 
L 663.686097 -55.292727 
z
" style="stroke: #3f3f3f; stroke-width: 1.25"/>
    </defs>
    <g clip-path="url(#pde885c2ec0)">
     <use xlink:href="#mf8bee52528" x="0" y="360" style="fill: #e1812c; stroke: #3f3f3f; stroke-width: 1.25"/>
    </g>
   </g>
   <g id="patch_6">
    <path d="M 466.937436 510.120917 
L 466.937436 510.120917 
L 466.937436 510.120917 
L 466.937436 510.120917 
z
" clip-path="url(#pde885c2ec0)" style="fill: #3274a1; stroke: #3f3f3f; stroke-width: 1.25; stroke-linejoin: miter"/>
   </g>
   <g id="patch_7">
    <path d="M 466.937436 510.120917 
L 466.937436 510.120917 
L 466.937436 510.120917 
L 466.937436 510.120917 
z
" clip-path="url(#pde885c2ec0)" style="fill: #e1812c; stroke: #3f3f3f; stroke-width: 1.25; stroke-linejoin: miter"/>
   </g>
   <g id="line2d_23">
    <path d="M 434.259561 260.910388 
L 434.259561 146.012496 
" clip-path="url(#pde885c2ec0)" style="fill: none; stroke: #3f3f3f; stroke-width: 1.875; stroke-linecap: round"/>
   </g>
   <g id="line2d_24">
    <path d="M 434.259561 223.529659 
L 434.259561 187.500502 
" clip-path="url(#pde885c2ec0)" style="fill: none; stroke: #3f3f3f; stroke-width: 5.625; stroke-linecap: round"/>
   </g>
   <g id="line2d_25">
    <path d="M 434.259561 204.746495 
" clip-path="url(#pde885c2ec0)" style="fill: none; stroke: #3f3f3f; stroke-width: 1.5; stroke-linecap: round"/>
    <g clip-path="url(#pde885c2ec0)">
     <use xlink:href="#mde91b78656" x="434.259561" y="204.746495" style="fill: #ffffff; stroke: #ffffff; stroke-width: 1.125"/>
    </g>
   </g>
   <g id="line2d_26">
    <path d="M 499.615311 260.273667 
L 499.615311 170.380243 
" clip-path="url(#pde885c2ec0)" style="fill: none; stroke: #3f3f3f; stroke-width: 1.875; stroke-linecap: round"/>
   </g>
   <g id="line2d_27">
    <path d="M 499.615311 224.212878 
L 499.615311 198.816344 
" clip-path="url(#pde885c2ec0)" style="fill: none; stroke: #3f3f3f; stroke-width: 5.625; stroke-linecap: round"/>
   </g>
   <g id="line2d_28">
    <path d="M 499.615311 206.867584 
" clip-path="url(#pde885c2ec0)" style="fill: none; stroke: #3f3f3f; stroke-width: 1.5; stroke-linecap: round"/>
    <g clip-path="url(#pde885c2ec0)">
     <use xlink:href="#mde91b78656" x="499.615311" y="206.867584" style="fill: #ffffff; stroke: #ffffff; stroke-width: 1.125"/>
    </g>
   </g>
   <g id="line2d_29">
    <path d="M 597.648937 204.558451 
L 597.648937 105.787646 
" clip-path="url(#pde885c2ec0)" style="fill: none; stroke: #3f3f3f; stroke-width: 1.875; stroke-linecap: round"/>
   </g>
   <g id="line2d_30">
    <path d="M 597.648937 193.572313 
L 597.648937 151.09591 
" clip-path="url(#pde885c2ec0)" style="fill: none; stroke: #3f3f3f; stroke-width: 5.625; stroke-linecap: round"/>
   </g>
   <g id="line2d_31">
    <path d="M 597.648937 188.150526 
" clip-path="url(#pde885c2ec0)" style="fill: none; stroke: #3f3f3f; stroke-width: 1.5; stroke-linecap: round"/>
    <g clip-path="url(#pde885c2ec0)">
     <use xlink:href="#mde91b78656" x="597.648937" y="188.150526" style="fill: #ffffff; stroke: #ffffff; stroke-width: 1.125"/>
    </g>
   </g>
   <g id="line2d_32">
    <path d="M 663.004687 252.60561 
L 663.004687 136.874138 
" clip-path="url(#pde885c2ec0)" style="fill: none; stroke: #3f3f3f; stroke-width: 1.875; stroke-linecap: round"/>
   </g>
   <g id="line2d_33">
    <path d="M 663.004687 230.888562 
L 663.004687 177.335162 
" clip-path="url(#pde885c2ec0)" style="fill: none; stroke: #3f3f3f; stroke-width: 5.625; stroke-linecap: round"/>
   </g>
   <g id="line2d_34">
    <path d="M 663.004687 201.298648 
" clip-path="url(#pde885c2ec0)" style="fill: none; stroke: #3f3f3f; stroke-width: 1.5; stroke-linecap: round"/>
    <g clip-path="url(#pde885c2ec0)">
     <use xlink:href="#mde91b78656" x="663.004687" y="201.298648" style="fill: #ffffff; stroke: #ffffff; stroke-width: 1.125"/>
    </g>
   </g>
   <g id="patch_8">
    <path d="M 385.242748 318.04 
L 385.242748 24.72 
" style="fill: none; stroke: #cccccc; stroke-width: 0.8; stroke-linejoin: miter; stroke-linecap: square"/>
   </g>
   <g id="patch_9">
    <path d="M 385.242748 318.04 
L 712.0215 318.04 
" style="fill: none; stroke: #cccccc; stroke-width: 0.8; stroke-linejoin: miter; stroke-linecap: square"/>
   </g>
   <g id="text_14">
    <!-- sex = f -->
    <g style="fill: #262626" transform="translate(533.764155 18.72) scale(0.1 -0.1)">
     <defs>
      <path id="ArialMT-66" d="M 556 0 
L 556 2881 
L 59 2881 
L 59 3319 
L 556 3319 
L 556 3672 
Q 556 4006 616 4169 
Q 697 4388 901 4523 
Q 1106 4659 1475 4659 
Q 1713 4659 2000 4603 
L 1916 4113 
Q 1741 4144 1584 4144 
Q 1328 4144 1222 4034 
Q 1116 3925 1116 3625 
L 1116 3319 
L 1763 3319 
L 1763 2881 
L 1116 2881 
L 1116 0 
L 556 0 
z
" transform="scale(0.015625)"/>
     </defs>
     <use xlink:href="#ArialMT-73"/>
     <use xlink:href="#ArialMT-65" x="50"/>
     <use xlink:href="#ArialMT-78" x="105.615234"/>
     <use xlink:href="#ArialMT-20" x="155.615234"/>
     <use xlink:href="#ArialMT-3d" x="183.398438"/>
     <use xlink:href="#ArialMT-20" x="241.796875"/>
     <use xlink:href="#ArialMT-66" x="269.580078"/>
    </g>
   </g>
  </g>
  <g id="legend_1">
   <g id="text_15">
    <!-- time -->
    <g style="fill: #262626" transform="translate(744.563281 168.439844) scale(0.1 -0.1)">
     <defs>
      <path id="ArialMT-69" d="M 425 3934 
L 425 4581 
L 988 4581 
L 988 3934 
L 425 3934 
z
M 425 0 
L 425 3319 
L 988 3319 
L 988 0 
L 425 0 
z
" transform="scale(0.015625)"/>
     </defs>
     <use xlink:href="#ArialMT-74"/>
     <use xlink:href="#ArialMT-69" x="27.783203"/>
     <use xlink:href="#ArialMT-6d" x="50"/>
     <use xlink:href="#ArialMT-65" x="133.300781"/>
    </g>
   </g>
   <g id="patch_10">
    <path d="M 719.167187 182.585156 
L 739.167187 182.585156 
L 739.167187 175.585156 
L 719.167187 175.585156 
z
" style="fill: #3274a1; stroke: #3f3f3f; stroke-width: 1.25; stroke-linejoin: miter"/>
   </g>
   <g id="text_16">
    <!-- initial test -->
    <g style="fill: #262626" transform="translate(747.167187 182.585156) scale(0.1 -0.1)">
     <defs>
      <path id="ArialMT-61" d="M 2588 409 
Q 2275 144 1986 34 
Q 1697 -75 1366 -75 
Q 819 -75 525 192 
Q 231 459 231 875 
Q 231 1119 342 1320 
Q 453 1522 633 1644 
Q 813 1766 1038 1828 
Q 1203 1872 1538 1913 
Q 2219 1994 2541 2106 
Q 2544 2222 2544 2253 
Q 2544 2597 2384 2738 
Q 2169 2928 1744 2928 
Q 1347 2928 1158 2789 
Q 969 2650 878 2297 
L 328 2372 
Q 403 2725 575 2942 
Q 747 3159 1072 3276 
Q 1397 3394 1825 3394 
Q 2250 3394 2515 3294 
Q 2781 3194 2906 3042 
Q 3031 2891 3081 2659 
Q 3109 2516 3109 2141 
L 3109 1391 
Q 3109 606 3145 398 
Q 3181 191 3288 0 
L 2700 0 
Q 2613 175 2588 409 
z
M 2541 1666 
Q 2234 1541 1622 1453 
Q 1275 1403 1131 1340 
Q 988 1278 909 1158 
Q 831 1038 831 891 
Q 831 666 1001 516 
Q 1172 366 1500 366 
Q 1825 366 2078 508 
Q 2331 650 2450 897 
Q 2541 1088 2541 1459 
L 2541 1666 
z
" transform="scale(0.015625)"/>
     </defs>
     <use xlink:href="#ArialMT-69"/>
     <use xlink:href="#ArialMT-6e" x="22.216797"/>
     <use xlink:href="#ArialMT-69" x="77.832031"/>
     <use xlink:href="#ArialMT-74" x="100.048828"/>
     <use xlink:href="#ArialMT-69" x="127.832031"/>
     <use xlink:href="#ArialMT-61" x="150.048828"/>
     <use xlink:href="#ArialMT-6c" x="205.664062"/>
     <use xlink:href="#ArialMT-20" x="227.880859"/>
     <use xlink:href="#ArialMT-74" x="255.664062"/>
     <use xlink:href="#ArialMT-65" x="283.447266"/>
     <use xlink:href="#ArialMT-73" x="339.0625"/>
     <use xlink:href="#ArialMT-74" x="389.0625"/>
    </g>
   </g>
   <g id="patch_11">
    <path d="M 719.167187 196.730469 
L 739.167187 196.730469 
L 739.167187 189.730469 
L 719.167187 189.730469 
z
" style="fill: #e1812c; stroke: #3f3f3f; stroke-width: 1.25; stroke-linejoin: miter"/>
   </g>
   <g id="text_17">
    <!-- final test -->
    <g style="fill: #262626" transform="translate(747.167187 196.730469) scale(0.1 -0.1)">
     <use xlink:href="#ArialMT-66"/>
     <use xlink:href="#ArialMT-69" x="27.783203"/>
     <use xlink:href="#ArialMT-6e" x="50"/>
     <use xlink:href="#ArialMT-61" x="105.615234"/>
     <use xlink:href="#ArialMT-6c" x="161.230469"/>
     <use xlink:href="#ArialMT-20" x="183.447266"/>
     <use xlink:href="#ArialMT-74" x="211.230469"/>
     <use xlink:href="#ArialMT-65" x="239.013672"/>
     <use xlink:href="#ArialMT-73" x="294.628906"/>
     <use xlink:href="#ArialMT-74" x="344.628906"/>
    </g>
   </g>
  </g>
 </g>
 <defs>
  <clipPath id="pac4e3a9e33">
   <rect x="47.6937" y="24.72" width="326.778752" height="293.32"/>
  </clipPath>
  <clipPath id="pde885c2ec0">
   <rect x="385.242748" y="24.72" width="326.778752" height="293.32"/>
  </clipPath>
 </defs>
</svg>
