<?xml version="1.0" encoding="utf-8" standalone="no"?>
<!DOCTYPE svg PUBLIC "-//W3C//DTD SVG 1.1//EN"
  "http://www.w3.org/Graphics/SVG/1.1/DTD/svg11.dtd">
<svg xmlns:xlink="http://www.w3.org/1999/xlink" width="797.85pt" height="360pt" viewBox="0 0 797.85 360" xmlns="http://www.w3.org/2000/svg" version="1.1">
 <metadata>
  <rdf:RDF xmlns:dc="http://purl.org/dc/elements/1.1/" xmlns:cc="http://creativecommons.org/ns#" xmlns:rdf="http://www.w3.org/1999/02/22-rdf-syntax-ns#">
   <cc:Work>
    <dc:type rdf:resource="http://purl.org/dc/dcmitype/StillImage"/>
    <dc:date>2024-09-11T05:52:11.644449</dc:date>
    <dc:format>image/svg+xml</dc:format>
    <dc:creator>
     <cc:Agent>
      <dc:title>Matplotlib v3.8.3, https://matplotlib.org/</dc:title>
     </cc:Agent>
    </dc:creator>
   </cc:Work>
  </rdf:RDF>
 </metadata>
 <defs>
  <style type="text/css">*{stroke-linejoin: round; stroke-linecap: butt}</style>
 </defs>
 <g id="figure_1">
  <g id="patch_1">
   <path d="M 0 360 
L 797.85 360 
L 797.85 0 
L 0 0 
z
" style="fill: #ffffff"/>
  </g>
  <g id="axes_1">
   <g id="patch_2">
    <path d="M 53.877038 318.04 
L 377.569178 318.04 
L 377.569178 24.72 
L 53.877038 24.72 
z
" style="fill: #ffffff"/>
   </g>
   <g id="matplotlib.axis_1">
    <g id="xtick_1">
     <g id="text_1">
      <!-- Test -->
      <g style="fill: #262626" transform="translate(206.55592 332.197812) scale(0.1 -0.1)">
       <defs>
        <path id="ArialMT-54" d="M 1659 0 
L 1659 4041 
L 150 4041 
L 150 4581 
L 3781 4581 
L 3781 4041 
L 2266 4041 
L 2266 0 
L 1659 0 
z
" transform="scale(0.015625)"/>
        <path id="ArialMT-65" d="M 2694 1069 
L 3275 997 
Q 3138 488 2766 206 
Q 2394 -75 1816 -75 
Q 1088 -75 661 373 
Q 234 822 234 1631 
Q 234 2469 665 2931 
Q 1097 3394 1784 3394 
Q 2450 3394 2872 2941 
Q 3294 2488 3294 1666 
Q 3294 1616 3291 1516 
L 816 1516 
Q 847 969 1125 678 
Q 1403 388 1819 388 
Q 2128 388 2347 550 
Q 2566 713 2694 1069 
z
M 847 1978 
L 2700 1978 
Q 2663 2397 2488 2606 
Q 2219 2931 1791 2931 
Q 1403 2931 1139 2672 
Q 875 2413 847 1978 
z
" transform="scale(0.015625)"/>
        <path id="ArialMT-73" d="M 197 991 
L 753 1078 
Q 800 744 1014 566 
Q 1228 388 1613 388 
Q 2000 388 2187 545 
Q 2375 703 2375 916 
Q 2375 1106 2209 1216 
Q 2094 1291 1634 1406 
Q 1016 1563 777 1677 
Q 538 1791 414 1992 
Q 291 2194 291 2438 
Q 291 2659 392 2848 
Q 494 3038 669 3163 
Q 800 3259 1026 3326 
Q 1253 3394 1513 3394 
Q 1903 3394 2198 3281 
Q 2494 3169 2634 2976 
Q 2775 2784 2828 2463 
L 2278 2388 
Q 2241 2644 2061 2787 
Q 1881 2931 1553 2931 
Q 1166 2931 1000 2803 
Q 834 2675 834 2503 
Q 834 2394 903 2306 
Q 972 2216 1119 2156 
Q 1203 2125 1616 2013 
Q 2213 1853 2448 1751 
Q 2684 1650 2818 1456 
Q 2953 1263 2953 975 
Q 2953 694 2789 445 
Q 2625 197 2315 61 
Q 2006 -75 1616 -75 
Q 969 -75 630 194 
Q 291 463 197 991 
z
" transform="scale(0.015625)"/>
        <path id="ArialMT-74" d="M 1650 503 
L 1731 6 
Q 1494 -44 1306 -44 
Q 1000 -44 831 53 
Q 663 150 594 308 
Q 525 466 525 972 
L 525 2881 
L 113 2881 
L 113 3319 
L 525 3319 
L 525 4141 
L 1084 4478 
L 1084 3319 
L 1650 3319 
L 1650 2881 
L 1084 2881 
L 1084 941 
Q 1084 700 1114 631 
Q 1144 563 1211 522 
Q 1278 481 1403 481 
Q 1497 481 1650 503 
z
" transform="scale(0.015625)"/>
       </defs>
       <use xlink:href="#ArialMT-54"/>
       <use xlink:href="#ArialMT-65" x="49.958984"/>
       <use xlink:href="#ArialMT-73" x="105.574219"/>
       <use xlink:href="#ArialMT-74" x="155.574219"/>
      </g>
     </g>
    </g>
    <g id="text_2">
     <!-- group -->
     <g style="fill: #262626" transform="translate(202.936389 345.225938) scale(0.1 -0.1)">
      <defs>
       <path id="ArialMT-67" d="M 319 -275 
L 866 -356 
Q 900 -609 1056 -725 
Q 1266 -881 1628 -881 
Q 2019 -881 2231 -725 
Q 2444 -569 2519 -288 
Q 2563 -116 2559 434 
Q 2191 0 1641 0 
Q 956 0 581 494 
Q 206 988 206 1678 
Q 206 2153 378 2554 
Q 550 2956 876 3175 
Q 1203 3394 1644 3394 
Q 2231 3394 2613 2919 
L 2613 3319 
L 3131 3319 
L 3131 450 
Q 3131 -325 2973 -648 
Q 2816 -972 2473 -1159 
Q 2131 -1347 1631 -1347 
Q 1038 -1347 672 -1080 
Q 306 -813 319 -275 
z
M 784 1719 
Q 784 1066 1043 766 
Q 1303 466 1694 466 
Q 2081 466 2343 764 
Q 2606 1063 2606 1700 
Q 2606 2309 2336 2618 
Q 2066 2928 1684 2928 
Q 1309 2928 1046 2623 
Q 784 2319 784 1719 
z
" transform="scale(0.015625)"/>
       <path id="ArialMT-72" d="M 416 0 
L 416 3319 
L 922 3319 
L 922 2816 
Q 1116 3169 1280 3281 
Q 1444 3394 1641 3394 
Q 1925 3394 2219 3213 
L 2025 2691 
Q 1819 2813 1613 2813 
Q 1428 2813 1281 2702 
Q 1134 2591 1072 2394 
Q 978 2094 978 1738 
L 978 0 
L 416 0 
z
" transform="scale(0.015625)"/>
       <path id="ArialMT-6f" d="M 213 1659 
Q 213 2581 725 3025 
Q 1153 3394 1769 3394 
Q 2453 3394 2887 2945 
Q 3322 2497 3322 1706 
Q 3322 1066 3130 698 
Q 2938 331 2570 128 
Q 2203 -75 1769 -75 
Q 1072 -75 642 372 
Q 213 819 213 1659 
z
M 791 1659 
Q 791 1022 1069 705 
Q 1347 388 1769 388 
Q 2188 388 2466 706 
Q 2744 1025 2744 1678 
Q 2744 2294 2464 2611 
Q 2184 2928 1769 2928 
Q 1347 2928 1069 2612 
Q 791 2297 791 1659 
z
" transform="scale(0.015625)"/>
       <path id="ArialMT-75" d="M 2597 0 
L 2597 488 
Q 2209 -75 1544 -75 
Q 1250 -75 995 37 
Q 741 150 617 320 
Q 494 491 444 738 
Q 409 903 409 1263 
L 409 3319 
L 972 3319 
L 972 1478 
Q 972 1038 1006 884 
Q 1059 663 1231 536 
Q 1403 409 1656 409 
Q 1909 409 2131 539 
Q 2353 669 2445 892 
Q 2538 1116 2538 1541 
L 2538 3319 
L 3100 3319 
L 3100 0 
L 2597 0 
z
" transform="scale(0.015625)"/>
       <path id="ArialMT-70" d="M 422 -1272 
L 422 3319 
L 934 3319 
L 934 2888 
Q 1116 3141 1344 3267 
Q 1572 3394 1897 3394 
Q 2322 3394 2647 3175 
Q 2972 2956 3137 2557 
Q 3303 2159 3303 1684 
Q 3303 1175 3120 767 
Q 2938 359 2589 142 
Q 2241 -75 1856 -75 
Q 1575 -75 1351 44 
Q 1128 163 984 344 
L 984 -1272 
L 422 -1272 
z
M 931 1641 
Q 931 1000 1190 694 
Q 1450 388 1819 388 
Q 2194 388 2461 705 
Q 2728 1022 2728 1688 
Q 2728 2322 2467 2637 
Q 2206 2953 1844 2953 
Q 1484 2953 1207 2617 
Q 931 2281 931 1641 
z
" transform="scale(0.015625)"/>
      </defs>
      <use xlink:href="#ArialMT-67"/>
      <use xlink:href="#ArialMT-72" x="55.615234"/>
      <use xlink:href="#ArialMT-6f" x="88.916016"/>
      <use xlink:href="#ArialMT-75" x="144.53125"/>
      <use xlink:href="#ArialMT-70" x="200.146484"/>
     </g>
    </g>
   </g>
   <g id="matplotlib.axis_2">
    <g id="ytick_1">
     <g id="line2d_1">
      <path d="M 53.877038 291.091961 
L 377.569178 291.091961 
" clip-path="url(#p94a1e809ff)" style="fill: none; stroke: #cccccc; stroke-width: 0.8; stroke-linecap: round"/>
     </g>
     <g id="text_3">
      <!-- 150 -->
      <g style="fill: #262626" transform="translate(30.194225 294.670867) scale(0.1 -0.1)">
       <defs>
        <path id="ArialMT-31" d="M 2384 0 
L 1822 0 
L 1822 3584 
Q 1619 3391 1289 3197 
Q 959 3003 697 2906 
L 697 3450 
Q 1169 3672 1522 3987 
Q 1875 4303 2022 4600 
L 2384 4600 
L 2384 0 
z
" transform="scale(0.015625)"/>
        <path id="ArialMT-35" d="M 266 1200 
L 856 1250 
Q 922 819 1161 601 
Q 1400 384 1738 384 
Q 2144 384 2425 690 
Q 2706 997 2706 1503 
Q 2706 1984 2436 2262 
Q 2166 2541 1728 2541 
Q 1456 2541 1237 2417 
Q 1019 2294 894 2097 
L 366 2166 
L 809 4519 
L 3088 4519 
L 3088 3981 
L 1259 3981 
L 1013 2750 
Q 1425 3038 1878 3038 
Q 2478 3038 2890 2622 
Q 3303 2206 3303 1553 
Q 3303 931 2941 478 
Q 2500 -78 1738 -78 
Q 1113 -78 717 272 
Q 322 622 266 1200 
z
" transform="scale(0.015625)"/>
        <path id="ArialMT-30" d="M 266 2259 
Q 266 3072 433 3567 
Q 600 4063 929 4331 
Q 1259 4600 1759 4600 
Q 2128 4600 2406 4451 
Q 2684 4303 2865 4023 
Q 3047 3744 3150 3342 
Q 3253 2941 3253 2259 
Q 3253 1453 3087 958 
Q 2922 463 2592 192 
Q 2263 -78 1759 -78 
Q 1097 -78 719 397 
Q 266 969 266 2259 
z
M 844 2259 
Q 844 1131 1108 757 
Q 1372 384 1759 384 
Q 2147 384 2411 759 
Q 2675 1134 2675 2259 
Q 2675 3391 2411 3762 
Q 2147 4134 1753 4134 
Q 1366 4134 1134 3806 
Q 844 3388 844 2259 
z
" transform="scale(0.015625)"/>
       </defs>
       <use xlink:href="#ArialMT-31"/>
       <use xlink:href="#ArialMT-35" x="55.615234"/>
       <use xlink:href="#ArialMT-30" x="111.230469"/>
      </g>
     </g>
    </g>
    <g id="ytick_2">
     <g id="line2d_2">
      <path d="M 53.877038 238.548145 
L 377.569178 238.548145 
" clip-path="url(#p94a1e809ff)" style="fill: none; stroke: #cccccc; stroke-width: 0.8; stroke-linecap: round"/>
     </g>
     <g id="text_4">
      <!-- 160 -->
      <g style="fill: #262626" transform="translate(30.194225 242.127051) scale(0.1 -0.1)">
       <defs>
        <path id="ArialMT-36" d="M 3184 3459 
L 2625 3416 
Q 2550 3747 2413 3897 
Q 2184 4138 1850 4138 
Q 1581 4138 1378 3988 
Q 1113 3794 959 3422 
Q 806 3050 800 2363 
Q 1003 2672 1297 2822 
Q 1591 2972 1913 2972 
Q 2475 2972 2870 2558 
Q 3266 2144 3266 1488 
Q 3266 1056 3080 686 
Q 2894 316 2569 119 
Q 2244 -78 1831 -78 
Q 1128 -78 684 439 
Q 241 956 241 2144 
Q 241 3472 731 4075 
Q 1159 4600 1884 4600 
Q 2425 4600 2770 4297 
Q 3116 3994 3184 3459 
z
M 888 1484 
Q 888 1194 1011 928 
Q 1134 663 1356 523 
Q 1578 384 1822 384 
Q 2178 384 2434 671 
Q 2691 959 2691 1453 
Q 2691 1928 2437 2201 
Q 2184 2475 1800 2475 
Q 1419 2475 1153 2201 
Q 888 1928 888 1484 
z
" transform="scale(0.015625)"/>
       </defs>
       <use xlink:href="#ArialMT-31"/>
       <use xlink:href="#ArialMT-36" x="55.615234"/>
       <use xlink:href="#ArialMT-30" x="111.230469"/>
      </g>
     </g>
    </g>
    <g id="ytick_3">
     <g id="line2d_3">
      <path d="M 53.877038 186.004328 
L 377.569178 186.004328 
" clip-path="url(#p94a1e809ff)" style="fill: none; stroke: #cccccc; stroke-width: 0.8; stroke-linecap: round"/>
     </g>
     <g id="text_5">
      <!-- 170 -->
      <g style="fill: #262626" transform="translate(30.194225 189.583234) scale(0.1 -0.1)">
       <defs>
        <path id="ArialMT-37" d="M 303 3981 
L 303 4522 
L 3269 4522 
L 3269 4084 
Q 2831 3619 2401 2847 
Q 1972 2075 1738 1259 
Q 1569 684 1522 0 
L 944 0 
Q 953 541 1156 1306 
Q 1359 2072 1739 2783 
Q 2119 3494 2547 3981 
L 303 3981 
z
" transform="scale(0.015625)"/>
       </defs>
       <use xlink:href="#ArialMT-31"/>
       <use xlink:href="#ArialMT-37" x="55.615234"/>
       <use xlink:href="#ArialMT-30" x="111.230469"/>
      </g>
     </g>
    </g>
    <g id="ytick_4">
     <g id="line2d_4">
      <path d="M 53.877038 133.460511 
L 377.569178 133.460511 
" clip-path="url(#p94a1e809ff)" style="fill: none; stroke: #cccccc; stroke-width: 0.8; stroke-linecap: round"/>
     </g>
     <g id="text_6">
      <!-- 180 -->
      <g style="fill: #262626" transform="translate(30.194225 137.039417) scale(0.1 -0.1)">
       <defs>
        <path id="ArialMT-38" d="M 1131 2484 
Q 781 2613 612 2850 
Q 444 3088 444 3419 
Q 444 3919 803 4259 
Q 1163 4600 1759 4600 
Q 2359 4600 2725 4251 
Q 3091 3903 3091 3403 
Q 3091 3084 2923 2848 
Q 2756 2613 2416 2484 
Q 2838 2347 3058 2040 
Q 3278 1734 3278 1309 
Q 3278 722 2862 322 
Q 2447 -78 1769 -78 
Q 1091 -78 675 323 
Q 259 725 259 1325 
Q 259 1772 486 2073 
Q 713 2375 1131 2484 
z
M 1019 3438 
Q 1019 3113 1228 2906 
Q 1438 2700 1772 2700 
Q 2097 2700 2305 2904 
Q 2513 3109 2513 3406 
Q 2513 3716 2298 3927 
Q 2084 4138 1766 4138 
Q 1444 4138 1231 3931 
Q 1019 3725 1019 3438 
z
M 838 1322 
Q 838 1081 952 856 
Q 1066 631 1291 507 
Q 1516 384 1775 384 
Q 2178 384 2440 643 
Q 2703 903 2703 1303 
Q 2703 1709 2433 1975 
Q 2163 2241 1756 2241 
Q 1359 2241 1098 1978 
Q 838 1716 838 1322 
z
" transform="scale(0.015625)"/>
       </defs>
       <use xlink:href="#ArialMT-31"/>
       <use xlink:href="#ArialMT-38" x="55.615234"/>
       <use xlink:href="#ArialMT-30" x="111.230469"/>
      </g>
     </g>
    </g>
    <g id="ytick_5">
     <g id="line2d_5">
      <path d="M 53.877038 80.916694 
L 377.569178 80.916694 
" clip-path="url(#p94a1e809ff)" style="fill: none; stroke: #cccccc; stroke-width: 0.8; stroke-linecap: round"/>
     </g>
     <g id="text_7">
      <!-- 190 -->
      <g style="fill: #262626" transform="translate(30.194225 84.495601) scale(0.1 -0.1)">
       <defs>
        <path id="ArialMT-39" d="M 350 1059 
L 891 1109 
Q 959 728 1153 556 
Q 1347 384 1650 384 
Q 1909 384 2104 503 
Q 2300 622 2425 820 
Q 2550 1019 2634 1356 
Q 2719 1694 2719 2044 
Q 2719 2081 2716 2156 
Q 2547 1888 2255 1720 
Q 1963 1553 1622 1553 
Q 1053 1553 659 1965 
Q 266 2378 266 3053 
Q 266 3750 677 4175 
Q 1088 4600 1706 4600 
Q 2153 4600 2523 4359 
Q 2894 4119 3086 3673 
Q 3278 3228 3278 2384 
Q 3278 1506 3087 986 
Q 2897 466 2520 194 
Q 2144 -78 1638 -78 
Q 1100 -78 759 220 
Q 419 519 350 1059 
z
M 2653 3081 
Q 2653 3566 2395 3850 
Q 2138 4134 1775 4134 
Q 1400 4134 1122 3828 
Q 844 3522 844 3034 
Q 844 2597 1108 2323 
Q 1372 2050 1759 2050 
Q 2150 2050 2401 2323 
Q 2653 2597 2653 3081 
z
" transform="scale(0.015625)"/>
       </defs>
       <use xlink:href="#ArialMT-31"/>
       <use xlink:href="#ArialMT-39" x="55.615234"/>
       <use xlink:href="#ArialMT-30" x="111.230469"/>
      </g>
     </g>
    </g>
    <g id="ytick_6">
     <g id="line2d_6">
      <path d="M 53.877038 28.372878 
L 377.569178 28.372878 
" clip-path="url(#p94a1e809ff)" style="fill: none; stroke: #cccccc; stroke-width: 0.8; stroke-linecap: round"/>
     </g>
     <g id="text_8">
      <!-- 200 -->
      <g style="fill: #262626" transform="translate(30.194225 31.951784) scale(0.1 -0.1)">
       <defs>
        <path id="ArialMT-32" d="M 3222 541 
L 3222 0 
L 194 0 
Q 188 203 259 391 
Q 375 700 629 1000 
Q 884 1300 1366 1694 
Q 2113 2306 2375 2664 
Q 2638 3022 2638 3341 
Q 2638 3675 2398 3904 
Q 2159 4134 1775 4134 
Q 1369 4134 1125 3890 
Q 881 3647 878 3216 
L 300 3275 
Q 359 3922 746 4261 
Q 1134 4600 1788 4600 
Q 2447 4600 2831 4234 
Q 3216 3869 3216 3328 
Q 3216 3053 3103 2787 
Q 2991 2522 2730 2228 
Q 2469 1934 1863 1422 
Q 1356 997 1212 845 
Q 1069 694 975 541 
L 3222 541 
z
" transform="scale(0.015625)"/>
       </defs>
       <use xlink:href="#ArialMT-32"/>
       <use xlink:href="#ArialMT-30" x="55.615234"/>
       <use xlink:href="#ArialMT-30" x="111.230469"/>
      </g>
     </g>
    </g>
    <g id="text_9">
     <!-- Cholesterol (mg/dL) -->
     <g style="fill: #262626" transform="translate(24.089538 215.283125) rotate(-90) scale(0.1 -0.1)">
      <defs>
       <path id="ArialMT-43" d="M 3763 1606 
L 4369 1453 
Q 4178 706 3683 314 
Q 3188 -78 2472 -78 
Q 1731 -78 1267 223 
Q 803 525 561 1097 
Q 319 1669 319 2325 
Q 319 3041 592 3573 
Q 866 4106 1370 4382 
Q 1875 4659 2481 4659 
Q 3169 4659 3637 4309 
Q 4106 3959 4291 3325 
L 3694 3184 
Q 3534 3684 3231 3912 
Q 2928 4141 2469 4141 
Q 1941 4141 1586 3887 
Q 1231 3634 1087 3207 
Q 944 2781 944 2328 
Q 944 1744 1114 1308 
Q 1284 872 1643 656 
Q 2003 441 2422 441 
Q 2931 441 3284 734 
Q 3638 1028 3763 1606 
z
" transform="scale(0.015625)"/>
       <path id="ArialMT-68" d="M 422 0 
L 422 4581 
L 984 4581 
L 984 2938 
Q 1378 3394 1978 3394 
Q 2347 3394 2619 3248 
Q 2891 3103 3008 2847 
Q 3125 2591 3125 2103 
L 3125 0 
L 2563 0 
L 2563 2103 
Q 2563 2525 2380 2717 
Q 2197 2909 1863 2909 
Q 1613 2909 1392 2779 
Q 1172 2650 1078 2428 
Q 984 2206 984 1816 
L 984 0 
L 422 0 
z
" transform="scale(0.015625)"/>
       <path id="ArialMT-6c" d="M 409 0 
L 409 4581 
L 972 4581 
L 972 0 
L 409 0 
z
" transform="scale(0.015625)"/>
       <path id="ArialMT-20" transform="scale(0.015625)"/>
       <path id="ArialMT-28" d="M 1497 -1347 
Q 1031 -759 709 28 
Q 388 816 388 1659 
Q 388 2403 628 3084 
Q 909 3875 1497 4659 
L 1900 4659 
Q 1522 4009 1400 3731 
Q 1209 3300 1100 2831 
Q 966 2247 966 1656 
Q 966 153 1900 -1347 
L 1497 -1347 
z
" transform="scale(0.015625)"/>
       <path id="ArialMT-6d" d="M 422 0 
L 422 3319 
L 925 3319 
L 925 2853 
Q 1081 3097 1340 3245 
Q 1600 3394 1931 3394 
Q 2300 3394 2536 3241 
Q 2772 3088 2869 2813 
Q 3263 3394 3894 3394 
Q 4388 3394 4653 3120 
Q 4919 2847 4919 2278 
L 4919 0 
L 4359 0 
L 4359 2091 
Q 4359 2428 4304 2576 
Q 4250 2725 4106 2815 
Q 3963 2906 3769 2906 
Q 3419 2906 3187 2673 
Q 2956 2441 2956 1928 
L 2956 0 
L 2394 0 
L 2394 2156 
Q 2394 2531 2256 2718 
Q 2119 2906 1806 2906 
Q 1569 2906 1367 2781 
Q 1166 2656 1075 2415 
Q 984 2175 984 1722 
L 984 0 
L 422 0 
z
" transform="scale(0.015625)"/>
       <path id="ArialMT-2f" d="M 0 -78 
L 1328 4659 
L 1778 4659 
L 453 -78 
L 0 -78 
z
" transform="scale(0.015625)"/>
       <path id="ArialMT-64" d="M 2575 0 
L 2575 419 
Q 2259 -75 1647 -75 
Q 1250 -75 917 144 
Q 584 363 401 755 
Q 219 1147 219 1656 
Q 219 2153 384 2558 
Q 550 2963 881 3178 
Q 1213 3394 1622 3394 
Q 1922 3394 2156 3267 
Q 2391 3141 2538 2938 
L 2538 4581 
L 3097 4581 
L 3097 0 
L 2575 0 
z
M 797 1656 
Q 797 1019 1065 703 
Q 1334 388 1700 388 
Q 2069 388 2326 689 
Q 2584 991 2584 1609 
Q 2584 2291 2321 2609 
Q 2059 2928 1675 2928 
Q 1300 2928 1048 2622 
Q 797 2316 797 1656 
z
" transform="scale(0.015625)"/>
       <path id="ArialMT-4c" d="M 469 0 
L 469 4581 
L 1075 4581 
L 1075 541 
L 3331 541 
L 3331 0 
L 469 0 
z
" transform="scale(0.015625)"/>
       <path id="ArialMT-29" d="M 791 -1347 
L 388 -1347 
Q 1322 153 1322 1656 
Q 1322 2244 1188 2822 
Q 1081 3291 891 3722 
Q 769 4003 388 4659 
L 791 4659 
Q 1378 3875 1659 3084 
Q 1900 2403 1900 1659 
Q 1900 816 1576 28 
Q 1253 -759 791 -1347 
z
" transform="scale(0.015625)"/>
      </defs>
      <use xlink:href="#ArialMT-43"/>
      <use xlink:href="#ArialMT-68" x="72.216797"/>
      <use xlink:href="#ArialMT-6f" x="127.832031"/>
      <use xlink:href="#ArialMT-6c" x="183.447266"/>
      <use xlink:href="#ArialMT-65" x="205.664062"/>
      <use xlink:href="#ArialMT-73" x="261.279297"/>
      <use xlink:href="#ArialMT-74" x="311.279297"/>
      <use xlink:href="#ArialMT-65" x="339.0625"/>
      <use xlink:href="#ArialMT-72" x="394.677734"/>
      <use xlink:href="#ArialMT-6f" x="427.978516"/>
      <use xlink:href="#ArialMT-6c" x="483.59375"/>
      <use xlink:href="#ArialMT-20" x="505.810547"/>
      <use xlink:href="#ArialMT-28" x="533.59375"/>
      <use xlink:href="#ArialMT-6d" x="566.894531"/>
      <use xlink:href="#ArialMT-67" x="650.195312"/>
      <use xlink:href="#ArialMT-2f" x="705.810547"/>
      <use xlink:href="#ArialMT-64" x="733.59375"/>
      <use xlink:href="#ArialMT-4c" x="789.208984"/>
      <use xlink:href="#ArialMT-29" x="844.824219"/>
     </g>
    </g>
   </g>
   <g id="PolyCollection_1">
    <defs>
     <path id="m9dd187d49c" d="M 151.843344 -99.792973 
L 150.126015 -99.792973 
L 149.915939 -101.875838 
L 149.670157 -103.958702 
L 149.386742 -106.041567 
L 149.064649 -108.124431 
L 148.703888 -110.207296 
L 148.305627 -112.290161 
L 147.872234 -114.373025 
L 147.407208 -116.45589 
L 146.915008 -118.538755 
L 146.400766 -120.621619 
L 145.869897 -122.704484 
L 145.32762 -124.787348 
L 144.778417 -126.870213 
L 144.225488 -128.953078 
L 143.670214 -131.035942 
L 143.111715 -133.118807 
L 142.546508 -135.201671 
L 141.968331 -137.284536 
L 141.368139 -139.367401 
L 140.734278 -141.450265 
L 140.052848 -143.53313 
L 139.308207 -145.615995 
L 138.483611 -147.698859 
L 137.561922 -149.781724 
L 136.526374 -151.864588 
L 135.361339 -153.947453 
L 134.053075 -156.030318 
L 132.590442 -158.113182 
L 130.96557 -160.196047 
L 129.174475 -162.278911 
L 127.217626 -164.361776 
L 125.100443 -166.444641 
L 122.833713 -168.527505 
L 120.433883 -170.61037 
L 117.923179 -172.693234 
L 115.329498 -174.776099 
L 112.685999 -176.858964 
L 110.030343 -178.941828 
L 107.403558 -181.024693 
L 104.848506 -183.107558 
L 102.408022 -185.190422 
L 100.122785 -187.273287 
L 98.029084 -189.356151 
L 96.156629 -191.439016 
L 94.5266 -193.521881 
L 93.150149 -195.604745 
L 92.027494 -197.68761 
L 91.147761 -199.770474 
L 90.489627 -201.853339 
L 90.022762 -203.936204 
L 89.709979 -206.019068 
L 89.509939 -208.101933 
L 89.380189 -210.184798 
L 89.280281 -212.267662 
L 89.174706 -214.350527 
L 89.035382 -216.433391 
L 88.843504 -218.516256 
L 88.590594 -220.599121 
L 88.278696 -222.681985 
L 87.919735 -224.76485 
L 87.534126 -226.847714 
L 87.148813 -228.930579 
L 86.794947 -231.013444 
L 86.505438 -233.096308 
L 86.312624 -235.179173 
L 86.246252 -237.262037 
L 86.331932 -239.344902 
L 86.590165 -241.427767 
L 87.035941 -243.510631 
L 87.678883 -245.593496 
L 88.523805 -247.676361 
L 89.571557 -249.759225 
L 90.819974 -251.84209 
L 92.264769 -253.924954 
L 93.900232 -256.007819 
L 95.719648 -258.090684 
L 97.71538 -260.173548 
L 99.87865 -262.256413 
L 102.19906 -264.339277 
L 104.663992 -266.422142 
L 107.257985 -268.505007 
L 109.962236 -270.587871 
L 112.754333 -272.670736 
L 115.608306 -274.753601 
L 118.495034 -276.836465 
L 121.382991 -278.91933 
L 124.239304 -281.002194 
L 127.031004 -283.085059 
L 129.726387 -285.167924 
L 132.296342 -287.250788 
L 134.715542 -289.333653 
L 136.963408 -291.416517 
L 139.024754 -293.499382 
L 140.890104 -295.582247 
L 142.555666 -297.665111 
L 144.022987 -299.747976 
L 145.298359 -301.83084 
L 146.39203 -303.913705 
L 147.317309 -305.99657 
L 154.65205 -305.99657 
L 154.65205 -305.99657 
L 155.577329 -303.913705 
L 156.671001 -301.83084 
L 157.946373 -299.747976 
L 159.413693 -297.665111 
L 161.079255 -295.582247 
L 162.944606 -293.499382 
L 165.005952 -291.416517 
L 167.253817 -289.333653 
L 169.673018 -287.250788 
L 172.242972 -285.167924 
L 174.938355 -283.085059 
L 177.730056 -281.002194 
L 180.586369 -278.91933 
L 183.474326 -276.836465 
L 186.361053 -274.753601 
L 189.215027 -272.670736 
L 192.007124 -270.587871 
L 194.711374 -268.505007 
L 197.305367 -266.422142 
L 199.770299 -264.339277 
L 202.09071 -262.256413 
L 204.253979 -260.173548 
L 206.249712 -258.090684 
L 208.069128 -256.007819 
L 209.704591 -253.924954 
L 211.149385 -251.84209 
L 212.397802 -249.759225 
L 213.445555 -247.676361 
L 214.290477 -245.593496 
L 214.933418 -243.510631 
L 215.379195 -241.427767 
L 215.637428 -239.344902 
L 215.723108 -237.262037 
L 215.656735 -235.179173 
L 215.463921 -233.096308 
L 215.174413 -231.013444 
L 214.820547 -228.930579 
L 214.435233 -226.847714 
L 214.049624 -224.76485 
L 213.690663 -222.681985 
L 213.378766 -220.599121 
L 213.125855 -218.516256 
L 212.933977 -216.433391 
L 212.794654 -214.350527 
L 212.689078 -212.267662 
L 212.589171 -210.184798 
L 212.45942 -208.101933 
L 212.25938 -206.019068 
L 211.946597 -203.936204 
L 211.479733 -201.853339 
L 210.821599 -199.770474 
L 209.941866 -197.68761 
L 208.81921 -195.604745 
L 207.442759 -193.521881 
L 205.812731 -191.439016 
L 203.940275 -189.356151 
L 201.846575 -187.273287 
L 199.561338 -185.190422 
L 197.120853 -183.107558 
L 194.565802 -181.024693 
L 191.939016 -178.941828 
L 189.283361 -176.858964 
L 186.639861 -174.776099 
L 184.04618 -172.693234 
L 181.535477 -170.61037 
L 179.135647 -168.527505 
L 176.868917 -166.444641 
L 174.751734 -164.361776 
L 172.794885 -162.278911 
L 171.00379 -160.196047 
L 169.378918 -158.113182 
L 167.916285 -156.030318 
L 166.608021 -153.947453 
L 165.442985 -151.864588 
L 164.407438 -149.781724 
L 163.485749 -147.698859 
L 162.661152 -145.615995 
L 161.916512 -143.53313 
L 161.235081 -141.450265 
L 160.601221 -139.367401 
L 160.001028 -137.284536 
L 159.422852 -135.201671 
L 158.857645 -133.118807 
L 158.299146 -131.035942 
L 157.743872 -128.953078 
L 157.190942 -126.870213 
L 156.64174 -124.787348 
L 156.099462 -122.704484 
L 155.568593 -120.621619 
L 155.054352 -118.538755 
L 154.562151 -116.45589 
L 154.097125 -114.373025 
L 153.663732 -112.290161 
L 153.265472 -110.207296 
L 152.90471 -108.124431 
L 152.582618 -106.041567 
L 152.299203 -103.958702 
L 152.053421 -101.875838 
L 151.843344 -99.792973 
z
" style="stroke: #3f3f3f; stroke-width: 1.25"/>
    </defs>
    <g clip-path="url(#p94a1e809ff)">
     <use xlink:href="#m9dd187d49c" x="0" y="360" style="fill: #3274a1; stroke: #3f3f3f; stroke-width: 1.25"/>
    </g>
   </g>
   <g id="PolyCollection_2">
    <defs>
     <path id="me081257b02" d="M 281.535297 -94.257146 
L 279.387775 -94.257146 
L 279.105769 -96.080324 
L 278.769293 -97.903501 
L 278.373262 -99.726679 
L 277.913444 -101.549856 
L 277.386787 -103.373034 
L 276.791695 -105.196211 
L 276.128245 -107.019389 
L 275.398305 -108.842567 
L 274.6055 -110.665744 
L 273.755032 -112.488922 
L 272.853307 -114.312099 
L 271.907389 -116.135277 
L 270.924288 -117.958454 
L 269.910131 -119.781632 
L 268.869259 -121.60481 
L 267.803347 -123.427987 
L 266.710619 -125.251165 
L 265.585268 -127.074342 
L 264.417169 -128.89752 
L 263.191969 -130.720697 
L 261.891605 -132.543875 
L 260.495285 -134.367052 
L 258.980901 -136.19023 
L 257.326828 -138.013408 
L 255.513977 -139.836585 
L 253.527982 -141.659763 
L 251.361313 -143.48294 
L 249.015142 -145.306118 
L 246.500746 -147.129295 
L 243.840287 -148.952473 
L 241.066826 -150.775651 
L 238.223498 -152.598828 
L 235.361836 -154.422006 
L 232.53932 -156.245183 
L 229.81629 -158.068361 
L 227.252439 -159.891538 
L 224.90314 -161.714716 
L 222.815907 -163.537894 
L 221.027268 -165.361071 
L 219.560328 -167.184249 
L 218.423213 -169.007426 
L 217.608564 -170.830604 
L 217.094111 -172.653781 
L 216.8443 -174.476959 
L 216.812846 -176.300136 
L 216.946011 -178.123314 
L 217.186352 -179.946492 
L 217.476631 -181.769669 
L 217.763621 -183.592847 
L 218.00149 -185.416024 
L 218.154572 -187.239202 
L 218.199307 -189.062379 
L 218.125292 -190.885557 
L 217.935377 -192.708735 
L 217.644887 -194.531912 
L 217.280067 -196.35509 
L 216.87591 -198.178267 
L 216.473575 -200.001445 
L 216.117595 -201.824622 
L 215.85308 -203.6478 
L 215.723108 -205.470978 
L 215.766446 -207.294155 
L 216.015726 -209.117333 
L 216.496136 -210.94051 
L 217.224659 -212.763688 
L 218.209834 -214.586865 
L 219.452003 -216.410043 
L 220.943957 -218.23322 
L 222.671893 -220.056398 
L 224.616578 -221.879576 
L 226.754614 -223.702753 
L 229.059719 -225.525931 
L 231.503921 -227.349108 
L 234.058627 -229.172286 
L 236.695496 -230.995463 
L 239.387118 -232.818641 
L 242.107478 -234.641819 
L 244.832238 -236.464996 
L 247.538862 -238.288174 
L 250.206633 -240.111351 
L 252.816594 -241.934529 
L 255.351479 -243.757706 
L 257.795656 -245.580884 
L 260.135105 -247.404062 
L 262.357464 -249.227239 
L 264.452117 -251.050417 
L 266.41033 -252.873594 
L 268.225402 -254.696772 
L 269.892807 -256.519949 
L 271.410307 -258.343127 
L 272.777988 -260.166304 
L 273.998233 -261.989482 
L 275.075598 -263.81266 
L 276.016599 -265.635837 
L 276.829436 -267.459015 
L 277.523638 -269.282192 
L 278.109691 -271.10537 
L 278.598644 -272.928547 
L 279.001731 -274.751725 
L 281.921341 -274.751725 
L 281.921341 -274.751725 
L 282.324428 -272.928547 
L 282.813381 -271.10537 
L 283.399434 -269.282192 
L 284.093636 -267.459015 
L 284.906473 -265.635837 
L 285.847475 -263.81266 
L 286.924839 -261.989482 
L 288.145084 -260.166304 
L 289.512765 -258.343127 
L 291.030265 -256.519949 
L 292.697671 -254.696772 
L 294.512742 -252.873594 
L 296.470955 -251.050417 
L 298.565608 -249.227239 
L 300.787967 -247.404062 
L 303.127417 -245.580884 
L 305.571593 -243.757706 
L 308.106478 -241.934529 
L 310.716439 -240.111351 
L 313.38421 -238.288174 
L 316.090835 -236.464996 
L 318.815595 -234.641819 
L 321.535954 -232.818641 
L 324.227576 -230.995463 
L 326.864446 -229.172286 
L 329.419151 -227.349108 
L 331.863353 -225.525931 
L 334.168458 -223.702753 
L 336.306494 -221.879576 
L 338.251179 -220.056398 
L 339.979116 -218.23322 
L 341.47107 -216.410043 
L 342.713239 -214.586865 
L 343.698414 -212.763688 
L 344.426936 -210.94051 
L 344.907347 -209.117333 
L 345.156626 -207.294155 
L 345.199964 -205.470978 
L 345.069992 -203.6478 
L 344.805477 -201.824622 
L 344.449497 -200.001445 
L 344.047163 -198.178267 
L 343.643005 -196.35509 
L 343.278185 -194.531912 
L 342.987695 -192.708735 
L 342.79778 -190.885557 
L 342.723765 -189.062379 
L 342.7685 -187.239202 
L 342.921582 -185.416024 
L 343.159451 -183.592847 
L 343.446441 -181.769669 
L 343.736721 -179.946492 
L 343.977061 -178.123314 
L 344.110227 -176.300136 
L 344.078772 -174.476959 
L 343.828961 -172.653781 
L 343.314508 -170.830604 
L 342.49986 -169.007426 
L 341.362745 -167.184249 
L 339.895804 -165.361071 
L 338.107166 -163.537894 
L 336.019932 -161.714716 
L 333.670633 -159.891538 
L 331.106782 -158.068361 
L 328.383753 -156.245183 
L 325.561237 -154.422006 
L 322.699574 -152.598828 
L 319.856246 -150.775651 
L 317.082785 -148.952473 
L 314.422326 -147.129295 
L 311.90793 -145.306118 
L 309.561759 -143.48294 
L 307.395091 -141.659763 
L 305.409095 -139.836585 
L 303.596244 -138.013408 
L 301.942171 -136.19023 
L 300.427788 -134.367052 
L 299.031467 -132.543875 
L 297.731103 -130.720697 
L 296.505903 -128.89752 
L 295.337804 -127.074342 
L 294.212453 -125.251165 
L 293.119725 -123.427987 
L 292.053813 -121.60481 
L 291.012942 -119.781632 
L 289.998784 -117.958454 
L 289.015684 -116.135277 
L 288.069765 -114.312099 
L 287.16804 -112.488922 
L 286.317572 -110.665744 
L 285.524767 -108.842567 
L 284.794827 -107.019389 
L 284.131378 -105.196211 
L 283.536285 -103.373034 
L 283.009628 -101.549856 
L 282.549811 -99.726679 
L 282.153779 -97.903501 
L 281.817303 -96.080324 
L 281.535297 -94.257146 
z
" style="stroke: #3f3f3f; stroke-width: 1.25"/>
    </defs>
    <g clip-path="url(#p94a1e809ff)">
     <use xlink:href="#me081257b02" x="0" y="360" style="fill: #e1812c; stroke: #3f3f3f; stroke-width: 1.25"/>
    </g>
   </g>
   <g id="line2d_7">
    <path d="M 150.98468 222.785 
L 150.98468 91.425458 
" clip-path="url(#p94a1e809ff)" style="fill: none; stroke: #3f3f3f; stroke-width: 1.875; stroke-linecap: round"/>
   </g>
   <g id="line2d_8">
    <path d="M 150.98468 164.986801 
L 150.98468 115.070175 
" clip-path="url(#p94a1e809ff)" style="fill: none; stroke: #3f3f3f; stroke-width: 5.625; stroke-linecap: round"/>
   </g>
   <g id="line2d_9">
    <path d="M 150.98468 133.460511 
" clip-path="url(#p94a1e809ff)" style="fill: none; stroke: #3f3f3f; stroke-width: 1.5; stroke-linecap: round"/>
    <defs>
     <path id="m0b9dfdb9be" d="M 2.34375 0 
L -2.34375 -0 
" style="stroke: #ffffff; stroke-width: 1.125"/>
    </defs>
    <g clip-path="url(#p94a1e809ff)">
     <use xlink:href="#m0b9dfdb9be" x="150.98468" y="133.460511" style="fill: #ffffff; stroke: #ffffff; stroke-width: 1.125"/>
    </g>
   </g>
   <g id="line2d_10">
    <path d="M 280.461536 233.293763 
L 280.461536 117.697366 
" clip-path="url(#p94a1e809ff)" style="fill: none; stroke: #3f3f3f; stroke-width: 1.875; stroke-linecap: round"/>
   </g>
   <g id="line2d_11">
    <path d="M 280.461536 191.258709 
L 280.461536 147.910061 
" clip-path="url(#p94a1e809ff)" style="fill: none; stroke: #3f3f3f; stroke-width: 5.625; stroke-linecap: round"/>
   </g>
   <g id="line2d_12">
    <path d="M 280.461536 164.986801 
" clip-path="url(#p94a1e809ff)" style="fill: none; stroke: #3f3f3f; stroke-width: 1.5; stroke-linecap: round"/>
    <g clip-path="url(#p94a1e809ff)">
     <use xlink:href="#m0b9dfdb9be" x="280.461536" y="164.986801" style="fill: #ffffff; stroke: #ffffff; stroke-width: 1.125"/>
    </g>
   </g>
   <g id="patch_3">
    <path d="M 53.877038 318.04 
L 53.877038 24.72 
" style="fill: none; stroke: #cccccc; stroke-width: 0.8; stroke-linejoin: miter; stroke-linecap: square"/>
   </g>
   <g id="patch_4">
    <path d="M 53.877038 318.04 
L 377.569178 318.04 
" style="fill: none; stroke: #cccccc; stroke-width: 0.8; stroke-linejoin: miter; stroke-linecap: square"/>
   </g>
   <g id="text_10">
    <!-- sex = m -->
    <g style="fill: #262626" transform="translate(198.079358 18.72) scale(0.1 -0.1)">
     <defs>
      <path id="ArialMT-78" d="M 47 0 
L 1259 1725 
L 138 3319 
L 841 3319 
L 1350 2541 
Q 1494 2319 1581 2169 
Q 1719 2375 1834 2534 
L 2394 3319 
L 3066 3319 
L 1919 1756 
L 3153 0 
L 2463 0 
L 1781 1031 
L 1600 1309 
L 728 0 
L 47 0 
z
" transform="scale(0.015625)"/>
      <path id="ArialMT-3d" d="M 3381 2694 
L 356 2694 
L 356 3219 
L 3381 3219 
L 3381 2694 
z
M 3381 1303 
L 356 1303 
L 356 1828 
L 3381 1828 
L 3381 1303 
z
" transform="scale(0.015625)"/>
     </defs>
     <use xlink:href="#ArialMT-73"/>
     <use xlink:href="#ArialMT-65" x="50"/>
     <use xlink:href="#ArialMT-78" x="105.615234"/>
     <use xlink:href="#ArialMT-20" x="155.615234"/>
     <use xlink:href="#ArialMT-3d" x="183.398438"/>
     <use xlink:href="#ArialMT-20" x="241.796875"/>
     <use xlink:href="#ArialMT-6d" x="269.580078"/>
    </g>
   </g>
  </g>
  <g id="axes_2">
   <g id="patch_5">
    <path d="M 388.329359 318.04 
L 712.0215 318.04 
L 712.0215 24.72 
L 388.329359 24.72 
z
" style="fill: #ffffff"/>
   </g>
   <g id="matplotlib.axis_3">
    <g id="xtick_2">
     <g id="text_11">
      <!-- Test -->
      <g style="fill: #262626" transform="translate(541.008242 332.197812) scale(0.1 -0.1)">
       <use xlink:href="#ArialMT-54"/>
       <use xlink:href="#ArialMT-65" x="49.958984"/>
       <use xlink:href="#ArialMT-73" x="105.574219"/>
       <use xlink:href="#ArialMT-74" x="155.574219"/>
      </g>
     </g>
    </g>
    <g id="text_12">
     <!-- group -->
     <g style="fill: #262626" transform="translate(537.388711 345.225938) scale(0.1 -0.1)">
      <use xlink:href="#ArialMT-67"/>
      <use xlink:href="#ArialMT-72" x="55.615234"/>
      <use xlink:href="#ArialMT-6f" x="88.916016"/>
      <use xlink:href="#ArialMT-75" x="144.53125"/>
      <use xlink:href="#ArialMT-70" x="200.146484"/>
     </g>
    </g>
   </g>
   <g id="matplotlib.axis_4">
    <g id="ytick_7">
     <g id="line2d_13">
      <path d="M 388.329359 291.091961 
L 712.0215 291.091961 
" clip-path="url(#pb3ca73201d)" style="fill: none; stroke: #cccccc; stroke-width: 0.8; stroke-linecap: round"/>
     </g>
    </g>
    <g id="ytick_8">
     <g id="line2d_14">
      <path d="M 388.329359 238.548145 
L 712.0215 238.548145 
" clip-path="url(#pb3ca73201d)" style="fill: none; stroke: #cccccc; stroke-width: 0.8; stroke-linecap: round"/>
     </g>
    </g>
    <g id="ytick_9">
     <g id="line2d_15">
      <path d="M 388.329359 186.004328 
L 712.0215 186.004328 
" clip-path="url(#pb3ca73201d)" style="fill: none; stroke: #cccccc; stroke-width: 0.8; stroke-linecap: round"/>
     </g>
    </g>
    <g id="ytick_10">
     <g id="line2d_16">
      <path d="M 388.329359 133.460511 
L 712.0215 133.460511 
" clip-path="url(#pb3ca73201d)" style="fill: none; stroke: #cccccc; stroke-width: 0.8; stroke-linecap: round"/>
     </g>
    </g>
    <g id="ytick_11">
     <g id="line2d_17">
      <path d="M 388.329359 80.916694 
L 712.0215 80.916694 
" clip-path="url(#pb3ca73201d)" style="fill: none; stroke: #cccccc; stroke-width: 0.8; stroke-linecap: round"/>
     </g>
    </g>
    <g id="ytick_12">
     <g id="line2d_18">
      <path d="M 388.329359 28.372878 
L 712.0215 28.372878 
" clip-path="url(#pb3ca73201d)" style="fill: none; stroke: #cccccc; stroke-width: 0.8; stroke-linecap: round"/>
     </g>
    </g>
   </g>
   <g id="PolyCollection_3">
    <defs>
     <path id="md082b0aa6b" d="M 488.132017 -83.84227 
L 482.741985 -83.84227 
L 482.222431 -86.247371 
L 481.633647 -88.652472 
L 480.973298 -91.057573 
L 480.240498 -93.462674 
L 479.436079 -95.867775 
L 478.562837 -98.272876 
L 477.625721 -100.677977 
L 476.631961 -103.083078 
L 475.591103 -105.488179 
L 474.514949 -107.89328 
L 473.41739 -110.298381 
L 472.314122 -112.703482 
L 471.222244 -115.108583 
L 470.159756 -117.513685 
L 469.144966 -119.918786 
L 468.195825 -122.323887 
L 467.329225 -124.728988 
L 466.560282 -127.134089 
L 465.901647 -129.53919 
L 465.362883 -131.944291 
L 464.94993 -134.349392 
L 464.664702 -136.754493 
L 464.504824 -139.159594 
L 464.463553 -141.564695 
L 464.529856 -143.969796 
L 464.688675 -146.374897 
L 464.921352 -148.779998 
L 465.206203 -151.185099 
L 465.519204 -153.5902 
L 465.834772 -155.995301 
L 466.126595 -158.400402 
L 466.368477 -160.805503 
L 466.535157 -163.210604 
L 466.603076 -165.615705 
L 466.551056 -168.020806 
L 466.360865 -170.425907 
L 466.01766 -172.831008 
L 465.510286 -175.236109 
L 464.831431 -177.64121 
L 463.977655 -180.046312 
L 462.949272 -182.451413 
L 461.750138 -184.856514 
L 460.387333 -187.261615 
L 458.870781 -189.666716 
L 457.21282 -192.071817 
L 455.427758 -194.476918 
L 453.531432 -196.882019 
L 451.540794 -199.28712 
L 449.473551 -201.692221 
L 447.347869 -204.097322 
L 445.182144 -206.502423 
L 442.994871 -208.907524 
L 440.80457 -211.312625 
L 438.629805 -213.717726 
L 436.489241 -216.122827 
L 434.401757 -218.527928 
L 432.386558 -220.933029 
L 430.46329 -223.33813 
L 428.652102 -225.743231 
L 426.973656 -228.148332 
L 425.449049 -230.553433 
L 424.099623 -232.958534 
L 422.946679 -235.363635 
L 422.011062 -237.768736 
L 421.312656 -240.173837 
L 420.869789 -242.578938 
L 420.698573 -244.98404 
L 420.812234 -247.389141 
L 421.22044 -249.794242 
L 421.928701 -252.199343 
L 422.93785 -254.604444 
L 424.243671 -257.009545 
L 425.836684 -259.414646 
L 427.702112 -261.819747 
L 429.820061 -264.224848 
L 432.16588 -266.629949 
L 434.710722 -269.03505 
L 437.422259 -271.440151 
L 440.265534 -273.845252 
L 443.20391 -276.250353 
L 446.20006 -278.655454 
L 449.216969 -281.060555 
L 452.218895 -283.465656 
L 455.172248 -285.870757 
L 458.046357 -288.275858 
L 460.814091 -290.680959 
L 463.452326 -293.08606 
L 465.942238 -295.491161 
L 468.269435 -297.896262 
L 470.423921 -300.301363 
L 472.399924 -302.706464 
L 474.195597 -305.111565 
L 475.812625 -307.516667 
L 477.255756 -309.921768 
L 478.532298 -312.326869 
L 479.651585 -314.73197 
L 480.624466 -317.137071 
L 481.4628 -319.542172 
L 482.179012 -321.947273 
L 488.694991 -321.947273 
L 488.694991 -321.947273 
L 489.411203 -319.542172 
L 490.249537 -317.137071 
L 491.222417 -314.73197 
L 492.341705 -312.326869 
L 493.618246 -309.921768 
L 495.061378 -307.516667 
L 496.678406 -305.111565 
L 498.474079 -302.706464 
L 500.450082 -300.301363 
L 502.604568 -297.896262 
L 504.931765 -295.491161 
L 507.421677 -293.08606 
L 510.059911 -290.680959 
L 512.827646 -288.275858 
L 515.701754 -285.870757 
L 518.655108 -283.465656 
L 521.657034 -281.060555 
L 524.673943 -278.655454 
L 527.670092 -276.250353 
L 530.608468 -273.845252 
L 533.451744 -271.440151 
L 536.163281 -269.03505 
L 538.708123 -266.629949 
L 541.053942 -264.224848 
L 543.171891 -261.819747 
L 545.037319 -259.414646 
L 546.630331 -257.009545 
L 547.936153 -254.604444 
L 548.945302 -252.199343 
L 549.653563 -249.794242 
L 550.061769 -247.389141 
L 550.17543 -244.98404 
L 550.004214 -242.578938 
L 549.561346 -240.173837 
L 548.862941 -237.768736 
L 547.927324 -235.363635 
L 546.77438 -232.958534 
L 545.424954 -230.553433 
L 543.900347 -228.148332 
L 542.221901 -225.743231 
L 540.410713 -223.33813 
L 538.487444 -220.933029 
L 536.472246 -218.527928 
L 534.384762 -216.122827 
L 532.244198 -213.717726 
L 530.069432 -211.312625 
L 527.879132 -208.907524 
L 525.691858 -206.502423 
L 523.526134 -204.097322 
L 521.400452 -201.692221 
L 519.333209 -199.28712 
L 517.342571 -196.882019 
L 515.446245 -194.476918 
L 513.661183 -192.071817 
L 512.003222 -189.666716 
L 510.48667 -187.261615 
L 509.123865 -184.856514 
L 507.924731 -182.451413 
L 506.896348 -180.046312 
L 506.042571 -177.64121 
L 505.363717 -175.236109 
L 504.856342 -172.831008 
L 504.513138 -170.425907 
L 504.322947 -168.020806 
L 504.270926 -165.615705 
L 504.338845 -163.210604 
L 504.505525 -160.805503 
L 504.747407 -158.400402 
L 505.039231 -155.995301 
L 505.354799 -153.5902 
L 505.6678 -151.185099 
L 505.952651 -148.779998 
L 506.185328 -146.374897 
L 506.344147 -143.969796 
L 506.41045 -141.564695 
L 506.369178 -139.159594 
L 506.209301 -136.754493 
L 505.924072 -134.349392 
L 505.51112 -131.944291 
L 504.972356 -129.53919 
L 504.313721 -127.134089 
L 503.544777 -124.728988 
L 502.678177 -122.323887 
L 501.729037 -119.918786 
L 500.714247 -117.513685 
L 499.651759 -115.108583 
L 498.559881 -112.703482 
L 497.456612 -110.298381 
L 496.359054 -107.89328 
L 495.2829 -105.488179 
L 494.242041 -103.083078 
L 493.248281 -100.677977 
L 492.311166 -98.272876 
L 491.437924 -95.867775 
L 490.633505 -93.462674 
L 489.900705 -91.057573 
L 489.240356 -88.652472 
L 488.651571 -86.247371 
L 488.132017 -83.84227 
z
" style="stroke: #3f3f3f; stroke-width: 1.25"/>
    </defs>
    <g clip-path="url(#pb3ca73201d)">
     <use xlink:href="#md082b0aa6b" x="0" y="360" style="fill: #3274a1; stroke: #3f3f3f; stroke-width: 1.25"/>
    </g>
   </g>
   <g id="PolyCollection_4">
    <defs>
     <path id="mbb6ae6a24c" d="M 616.561465 -55.292727 
L 613.26625 -55.292727 
L 612.894014 -57.690767 
L 612.458991 -60.088806 
L 611.955933 -62.486845 
L 611.380411 -64.884884 
L 610.729141 -67.282924 
L 610.000323 -69.680963 
L 609.193968 -72.079002 
L 608.312193 -74.477042 
L 607.359474 -76.875081 
L 606.342808 -79.27312 
L 605.271794 -81.671159 
L 604.158589 -84.069199 
L 603.01773 -86.467238 
L 601.865824 -88.865277 
L 600.721098 -91.263317 
L 599.602816 -93.661356 
L 598.530585 -96.059395 
L 597.52358 -98.457435 
L 596.599714 -100.855474 
L 595.774804 -103.253513 
L 595.061771 -105.651552 
L 594.469927 -108.049592 
L 594.004379 -110.447631 
L 593.665608 -112.84567 
L 593.449233 -115.24371 
L 593.345991 -117.641749 
L 593.341942 -120.039788 
L 593.418876 -122.437827 
L 593.554926 -124.835867 
L 593.72534 -127.233906 
L 593.903379 -129.631945 
L 594.061289 -132.029985 
L 594.171309 -134.428024 
L 594.206643 -136.826063 
L 594.142372 -139.224102 
L 593.956248 -141.622142 
L 593.629342 -144.020181 
L 593.146528 -146.41822 
L 592.496788 -148.81626 
L 591.673329 -151.214299 
L 590.673552 -153.612338 
L 589.498854 -156.010377 
L 588.154328 -158.408417 
L 586.648369 -160.806456 
L 584.992237 -163.204495 
L 583.199604 -165.602535 
L 581.286121 -168.000574 
L 579.269033 -170.398613 
L 577.166861 -172.796653 
L 574.999159 -175.194692 
L 572.786362 -177.592731 
L 570.549697 -179.99077 
L 568.31116 -182.38881 
L 566.093536 -184.786849 
L 563.92042 -187.184888 
L 561.816229 -189.582928 
L 559.806159 -191.980967 
L 557.916077 -194.379006 
L 556.172306 -196.777045 
L 554.601315 -199.175085 
L 553.229286 -201.573124 
L 552.081576 -203.971163 
L 551.18209 -206.369203 
L 550.552584 -208.767242 
L 550.211938 -211.165281 
L 550.17543 -213.56332 
L 550.454058 -215.96136 
L 551.053952 -218.359399 
L 551.975909 -220.757438 
L 553.215084 -223.155478 
L 554.760875 -225.553517 
L 556.596993 -227.951556 
L 558.701745 -230.349596 
L 561.048507 -232.747635 
L 563.606374 -235.145674 
L 566.340966 -237.543713 
L 569.215344 -239.941753 
L 572.191005 -242.339792 
L 575.228915 -244.737831 
L 578.290521 -247.135871 
L 581.338721 -249.53391 
L 584.33874 -251.931949 
L 587.258889 -254.329988 
L 590.071175 -256.728028 
L 592.751759 -259.126067 
L 595.281235 -261.524106 
L 597.644756 -263.922146 
L 599.831989 -266.320185 
L 601.83694 -268.718224 
L 603.657648 -271.116263 
L 605.295785 -273.514303 
L 606.756184 -275.912342 
L 608.046319 -278.310381 
L 609.175768 -280.708421 
L 610.155681 -283.10646 
L 610.998269 -285.504499 
L 611.716332 -287.902538 
L 612.322846 -290.300578 
L 612.830608 -292.698617 
L 616.997108 -292.698617 
L 616.997108 -292.698617 
L 617.504869 -290.300578 
L 618.111384 -287.902538 
L 618.829447 -285.504499 
L 619.672034 -283.10646 
L 620.651947 -280.708421 
L 621.781397 -278.310381 
L 623.071531 -275.912342 
L 624.53193 -273.514303 
L 626.170068 -271.116263 
L 627.990776 -268.718224 
L 629.995727 -266.320185 
L 632.18296 -263.922146 
L 634.54648 -261.524106 
L 637.075957 -259.126067 
L 639.75654 -256.728028 
L 642.568827 -254.329988 
L 645.488976 -251.931949 
L 648.488994 -249.53391 
L 651.537194 -247.135871 
L 654.5988 -244.737831 
L 657.63671 -242.339792 
L 660.612372 -239.941753 
L 663.486749 -237.543713 
L 666.221341 -235.145674 
L 668.779208 -232.747635 
L 671.12597 -230.349596 
L 673.230722 -227.951556 
L 675.066841 -225.553517 
L 676.612631 -223.155478 
L 677.851807 -220.757438 
L 678.773763 -218.359399 
L 679.373658 -215.96136 
L 679.652286 -213.56332 
L 679.615778 -211.165281 
L 679.275131 -208.767242 
L 678.645626 -206.369203 
L 677.746139 -203.971163 
L 676.598429 -201.573124 
L 675.2264 -199.175085 
L 673.65541 -196.777045 
L 671.911639 -194.379006 
L 670.021556 -191.980967 
L 668.011487 -189.582928 
L 665.907295 -187.184888 
L 663.73418 -184.786849 
L 661.516556 -182.38881 
L 659.278019 -179.99077 
L 657.041353 -177.592731 
L 654.828556 -175.194692 
L 652.660855 -172.796653 
L 650.558683 -170.398613 
L 648.541595 -168.000574 
L 646.628112 -165.602535 
L 644.835479 -163.204495 
L 643.179347 -160.806456 
L 641.673388 -158.408417 
L 640.328862 -156.010377 
L 639.154164 -153.612338 
L 638.154386 -151.214299 
L 637.330928 -148.81626 
L 636.681187 -146.41822 
L 636.198374 -144.020181 
L 635.871468 -141.622142 
L 635.685343 -139.224102 
L 635.621073 -136.826063 
L 635.656407 -134.428024 
L 635.766426 -132.029985 
L 635.924337 -129.631945 
L 636.102375 -127.233906 
L 636.27279 -124.835867 
L 636.40884 -122.437827 
L 636.485773 -120.039788 
L 636.481724 -117.641749 
L 636.378483 -115.24371 
L 636.162107 -112.84567 
L 635.823336 -110.447631 
L 635.357789 -108.049592 
L 634.765944 -105.651552 
L 634.052912 -103.253513 
L 633.228002 -100.855474 
L 632.304135 -98.457435 
L 631.29713 -96.059395 
L 630.2249 -93.661356 
L 629.106617 -91.263317 
L 627.961892 -88.865277 
L 626.809986 -86.467238 
L 625.669126 -84.069199 
L 624.555921 -81.671159 
L 623.484908 -79.27312 
L 622.468242 -76.875081 
L 621.515522 -74.477042 
L 620.633747 -72.079002 
L 619.827392 -69.680963 
L 619.098575 -67.282924 
L 618.447305 -64.884884 
L 617.871783 -62.486845 
L 617.368725 -60.088806 
L 616.933702 -57.690767 
L 616.561465 -55.292727 
z
" style="stroke: #3f3f3f; stroke-width: 1.25"/>
    </defs>
    <g clip-path="url(#pb3ca73201d)">
     <use xlink:href="#mbb6ae6a24c" x="0" y="360" style="fill: #e1812c; stroke: #3f3f3f; stroke-width: 1.25"/>
    </g>
   </g>
   <g id="patch_6">
    <path d="M 550.17543 1079.249212 
L 550.17543 1079.249212 
L 550.17543 1079.249212 
L 550.17543 1079.249212 
z
" clip-path="url(#pb3ca73201d)" style="fill: #3274a1; stroke: #3f3f3f; stroke-width: 1.25; stroke-linejoin: miter"/>
   </g>
   <g id="patch_7">
    <path d="M 550.17543 1079.249212 
L 550.17543 1079.249212 
L 550.17543 1079.249212 
L 550.17543 1079.249212 
z
" clip-path="url(#pb3ca73201d)" style="fill: #e1812c; stroke: #3f3f3f; stroke-width: 1.25; stroke-linejoin: miter"/>
   </g>
   <g id="line2d_19">
    <path d="M 485.437001 164.986801 
L 485.437001 91.425458 
" clip-path="url(#pb3ca73201d)" style="fill: none; stroke: #3f3f3f; stroke-width: 1.875; stroke-linecap: round"/>
   </g>
   <g id="line2d_20">
    <path d="M 485.437001 149.223656 
L 485.437001 105.875007 
" clip-path="url(#pb3ca73201d)" style="fill: none; stroke: #3f3f3f; stroke-width: 5.625; stroke-linecap: round"/>
   </g>
   <g id="line2d_21">
    <path d="M 485.437001 122.951748 
" clip-path="url(#pb3ca73201d)" style="fill: none; stroke: #3f3f3f; stroke-width: 1.5; stroke-linecap: round"/>
    <g clip-path="url(#pb3ca73201d)">
     <use xlink:href="#m0b9dfdb9be" x="485.437001" y="122.951748" style="fill: #ffffff; stroke: #ffffff; stroke-width: 1.125"/>
    </g>
   </g>
   <g id="line2d_22">
    <path d="M 614.913858 243.802526 
L 614.913858 117.697366 
" clip-path="url(#pb3ca73201d)" style="fill: none; stroke: #3f3f3f; stroke-width: 1.875; stroke-linecap: round"/>
   </g>
   <g id="line2d_23">
    <path d="M 614.913858 184.690732 
L 614.913858 141.342084 
" clip-path="url(#pb3ca73201d)" style="fill: none; stroke: #3f3f3f; stroke-width: 5.625; stroke-linecap: round"/>
   </g>
   <g id="line2d_24">
    <path d="M 614.913858 151.850847 
" clip-path="url(#pb3ca73201d)" style="fill: none; stroke: #3f3f3f; stroke-width: 1.5; stroke-linecap: round"/>
    <g clip-path="url(#pb3ca73201d)">
     <use xlink:href="#m0b9dfdb9be" x="614.913858" y="151.850847" style="fill: #ffffff; stroke: #ffffff; stroke-width: 1.125"/>
    </g>
   </g>
   <g id="patch_8">
    <path d="M 388.329359 318.04 
L 388.329359 24.72 
" style="fill: none; stroke: #cccccc; stroke-width: 0.8; stroke-linejoin: miter; stroke-linecap: square"/>
   </g>
   <g id="patch_9">
    <path d="M 388.329359 318.04 
L 712.0215 318.04 
" style="fill: none; stroke: #cccccc; stroke-width: 0.8; stroke-linejoin: miter; stroke-linecap: square"/>
   </g>
   <g id="text_13">
    <!-- sex = f -->
    <g style="fill: #262626" transform="translate(535.307461 18.72) scale(0.1 -0.1)">
     <defs>
      <path id="ArialMT-66" d="M 556 0 
L 556 2881 
L 59 2881 
L 59 3319 
L 556 3319 
L 556 3672 
Q 556 4006 616 4169 
Q 697 4388 901 4523 
Q 1106 4659 1475 4659 
Q 1713 4659 2000 4603 
L 1916 4113 
Q 1741 4144 1584 4144 
Q 1328 4144 1222 4034 
Q 1116 3925 1116 3625 
L 1116 3319 
L 1763 3319 
L 1763 2881 
L 1116 2881 
L 1116 0 
L 556 0 
z
" transform="scale(0.015625)"/>
     </defs>
     <use xlink:href="#ArialMT-73"/>
     <use xlink:href="#ArialMT-65" x="50"/>
     <use xlink:href="#ArialMT-78" x="105.615234"/>
     <use xlink:href="#ArialMT-20" x="155.615234"/>
     <use xlink:href="#ArialMT-3d" x="183.398438"/>
     <use xlink:href="#ArialMT-20" x="241.796875"/>
     <use xlink:href="#ArialMT-66" x="269.580078"/>
    </g>
   </g>
  </g>
  <g id="legend_1">
   <g id="text_14">
    <!-- time -->
    <g style="fill: #262626" transform="translate(744.563281 168.439844) scale(0.1 -0.1)">
     <defs>
      <path id="ArialMT-69" d="M 425 3934 
L 425 4581 
L 988 4581 
L 988 3934 
L 425 3934 
z
M 425 0 
L 425 3319 
L 988 3319 
L 988 0 
L 425 0 
z
" transform="scale(0.015625)"/>
     </defs>
     <use xlink:href="#ArialMT-74"/>
     <use xlink:href="#ArialMT-69" x="27.783203"/>
     <use xlink:href="#ArialMT-6d" x="50"/>
     <use xlink:href="#ArialMT-65" x="133.300781"/>
    </g>
   </g>
   <g id="patch_10">
    <path d="M 719.167187 182.585156 
L 739.167187 182.585156 
L 739.167187 175.585156 
L 719.167187 175.585156 
z
" style="fill: #3274a1; stroke: #3f3f3f; stroke-width: 1.25; stroke-linejoin: miter"/>
   </g>
   <g id="text_15">
    <!-- initial test -->
    <g style="fill: #262626" transform="translate(747.167187 182.585156) scale(0.1 -0.1)">
     <defs>
      <path id="ArialMT-6e" d="M 422 0 
L 422 3319 
L 928 3319 
L 928 2847 
Q 1294 3394 1984 3394 
Q 2284 3394 2536 3286 
Q 2788 3178 2913 3003 
Q 3038 2828 3088 2588 
Q 3119 2431 3119 2041 
L 3119 0 
L 2556 0 
L 2556 2019 
Q 2556 2363 2490 2533 
Q 2425 2703 2258 2804 
Q 2091 2906 1866 2906 
Q 1506 2906 1245 2678 
Q 984 2450 984 1813 
L 984 0 
L 422 0 
z
" transform="scale(0.015625)"/>
      <path id="ArialMT-61" d="M 2588 409 
Q 2275 144 1986 34 
Q 1697 -75 1366 -75 
Q 819 -75 525 192 
Q 231 459 231 875 
Q 231 1119 342 1320 
Q 453 1522 633 1644 
Q 813 1766 1038 1828 
Q 1203 1872 1538 1913 
Q 2219 1994 2541 2106 
Q 2544 2222 2544 2253 
Q 2544 2597 2384 2738 
Q 2169 2928 1744 2928 
Q 1347 2928 1158 2789 
Q 969 2650 878 2297 
L 328 2372 
Q 403 2725 575 2942 
Q 747 3159 1072 3276 
Q 1397 3394 1825 3394 
Q 2250 3394 2515 3294 
Q 2781 3194 2906 3042 
Q 3031 2891 3081 2659 
Q 3109 2516 3109 2141 
L 3109 1391 
Q 3109 606 3145 398 
Q 3181 191 3288 0 
L 2700 0 
Q 2613 175 2588 409 
z
M 2541 1666 
Q 2234 1541 1622 1453 
Q 1275 1403 1131 1340 
Q 988 1278 909 1158 
Q 831 1038 831 891 
Q 831 666 1001 516 
Q 1172 366 1500 366 
Q 1825 366 2078 508 
Q 2331 650 2450 897 
Q 2541 1088 2541 1459 
L 2541 1666 
z
" transform="scale(0.015625)"/>
     </defs>
     <use xlink:href="#ArialMT-69"/>
     <use xlink:href="#ArialMT-6e" x="22.216797"/>
     <use xlink:href="#ArialMT-69" x="77.832031"/>
     <use xlink:href="#ArialMT-74" x="100.048828"/>
     <use xlink:href="#ArialMT-69" x="127.832031"/>
     <use xlink:href="#ArialMT-61" x="150.048828"/>
     <use xlink:href="#ArialMT-6c" x="205.664062"/>
     <use xlink:href="#ArialMT-20" x="227.880859"/>
     <use xlink:href="#ArialMT-74" x="255.664062"/>
     <use xlink:href="#ArialMT-65" x="283.447266"/>
     <use xlink:href="#ArialMT-73" x="339.0625"/>
     <use xlink:href="#ArialMT-74" x="389.0625"/>
    </g>
   </g>
   <g id="patch_11">
    <path d="M 719.167187 196.730469 
L 739.167187 196.730469 
L 739.167187 189.730469 
L 719.167187 189.730469 
z
" style="fill: #e1812c; stroke: #3f3f3f; stroke-width: 1.25; stroke-linejoin: miter"/>
   </g>
   <g id="text_16">
    <!-- final test -->
    <g style="fill: #262626" transform="translate(747.167187 196.730469) scale(0.1 -0.1)">
     <use xlink:href="#ArialMT-66"/>
     <use xlink:href="#ArialMT-69" x="27.783203"/>
     <use xlink:href="#ArialMT-6e" x="50"/>
     <use xlink:href="#ArialMT-61" x="105.615234"/>
     <use xlink:href="#ArialMT-6c" x="161.230469"/>
     <use xlink:href="#ArialMT-20" x="183.447266"/>
     <use xlink:href="#ArialMT-74" x="211.230469"/>
     <use xlink:href="#ArialMT-65" x="239.013672"/>
     <use xlink:href="#ArialMT-73" x="294.628906"/>
     <use xlink:href="#ArialMT-74" x="344.628906"/>
    </g>
   </g>
  </g>
 </g>
 <defs>
  <clipPath id="p94a1e809ff">
   <rect x="53.877038" y="24.72" width="323.692141" height="293.32"/>
  </clipPath>
  <clipPath id="pb3ca73201d">
   <rect x="388.329359" y="24.72" width="323.692141" height="293.32"/>
  </clipPath>
 </defs>
</svg>
