<?xml version="1.0" encoding="utf-8" standalone="no"?>
<!DOCTYPE svg PUBLIC "-//W3C//DTD SVG 1.1//EN"
  "http://www.w3.org/Graphics/SVG/1.1/DTD/svg11.dtd">
<svg xmlns:xlink="http://www.w3.org/1999/xlink" width="797.85pt" height="360pt" viewBox="0 0 797.85 360" xmlns="http://www.w3.org/2000/svg" version="1.1">
 <metadata>
  <rdf:RDF xmlns:dc="http://purl.org/dc/elements/1.1/" xmlns:cc="http://creativecommons.org/ns#" xmlns:rdf="http://www.w3.org/1999/02/22-rdf-syntax-ns#">
   <cc:Work>
    <dc:type rdf:resource="http://purl.org/dc/dcmitype/StillImage"/>
    <dc:date>2024-09-11T05:52:17.361177</dc:date>
    <dc:format>image/svg+xml</dc:format>
    <dc:creator>
     <cc:Agent>
      <dc:title>Matplotlib v3.8.3, https://matplotlib.org/</dc:title>
     </cc:Agent>
    </dc:creator>
   </cc:Work>
  </rdf:RDF>
 </metadata>
 <defs>
  <style type="text/css">*{stroke-linejoin: round; stroke-linecap: butt}</style>
 </defs>
 <g id="figure_1">
  <g id="patch_1">
   <path d="M 0 360 
L 797.85 360 
L 797.85 0 
L 0 0 
z
" style="fill: #ffffff"/>
  </g>
  <g id="axes_1">
   <g id="patch_2">
    <path d="M 53.877038 318.04 
L 377.569178 318.04 
L 377.569178 24.72 
L 53.877038 24.72 
z
" style="fill: #ffffff"/>
   </g>
   <g id="matplotlib.axis_1">
    <g id="xtick_1">
     <g id="text_1">
      <!-- Control -->
      <g style="fill: #262626" transform="translate(118.682885 332.197812) scale(0.1 -0.1)">
       <defs>
        <path id="ArialMT-43" d="M 3763 1606 
L 4369 1453 
Q 4178 706 3683 314 
Q 3188 -78 2472 -78 
Q 1731 -78 1267 223 
Q 803 525 561 1097 
Q 319 1669 319 2325 
Q 319 3041 592 3573 
Q 866 4106 1370 4382 
Q 1875 4659 2481 4659 
Q 3169 4659 3637 4309 
Q 4106 3959 4291 3325 
L 3694 3184 
Q 3534 3684 3231 3912 
Q 2928 4141 2469 4141 
Q 1941 4141 1586 3887 
Q 1231 3634 1087 3207 
Q 944 2781 944 2328 
Q 944 1744 1114 1308 
Q 1284 872 1643 656 
Q 2003 441 2422 441 
Q 2931 441 3284 734 
Q 3638 1028 3763 1606 
z
" transform="scale(0.015625)"/>
        <path id="ArialMT-6f" d="M 213 1659 
Q 213 2581 725 3025 
Q 1153 3394 1769 3394 
Q 2453 3394 2887 2945 
Q 3322 2497 3322 1706 
Q 3322 1066 3130 698 
Q 2938 331 2570 128 
Q 2203 -75 1769 -75 
Q 1072 -75 642 372 
Q 213 819 213 1659 
z
M 791 1659 
Q 791 1022 1069 705 
Q 1347 388 1769 388 
Q 2188 388 2466 706 
Q 2744 1025 2744 1678 
Q 2744 2294 2464 2611 
Q 2184 2928 1769 2928 
Q 1347 2928 1069 2612 
Q 791 2297 791 1659 
z
" transform="scale(0.015625)"/>
        <path id="ArialMT-6e" d="M 422 0 
L 422 3319 
L 928 3319 
L 928 2847 
Q 1294 3394 1984 3394 
Q 2284 3394 2536 3286 
Q 2788 3178 2913 3003 
Q 3038 2828 3088 2588 
Q 3119 2431 3119 2041 
L 3119 0 
L 2556 0 
L 2556 2019 
Q 2556 2363 2490 2533 
Q 2425 2703 2258 2804 
Q 2091 2906 1866 2906 
Q 1506 2906 1245 2678 
Q 984 2450 984 1813 
L 984 0 
L 422 0 
z
" transform="scale(0.015625)"/>
        <path id="ArialMT-74" d="M 1650 503 
L 1731 6 
Q 1494 -44 1306 -44 
Q 1000 -44 831 53 
Q 663 150 594 308 
Q 525 466 525 972 
L 525 2881 
L 113 2881 
L 113 3319 
L 525 3319 
L 525 4141 
L 1084 4478 
L 1084 3319 
L 1650 3319 
L 1650 2881 
L 1084 2881 
L 1084 941 
Q 1084 700 1114 631 
Q 1144 563 1211 522 
Q 1278 481 1403 481 
Q 1497 481 1650 503 
z
" transform="scale(0.015625)"/>
        <path id="ArialMT-72" d="M 416 0 
L 416 3319 
L 922 3319 
L 922 2816 
Q 1116 3169 1280 3281 
Q 1444 3394 1641 3394 
Q 1925 3394 2219 3213 
L 2025 2691 
Q 1819 2813 1613 2813 
Q 1428 2813 1281 2702 
Q 1134 2591 1072 2394 
Q 978 2094 978 1738 
L 978 0 
L 416 0 
z
" transform="scale(0.015625)"/>
        <path id="ArialMT-6c" d="M 409 0 
L 409 4581 
L 972 4581 
L 972 0 
L 409 0 
z
" transform="scale(0.015625)"/>
       </defs>
       <use xlink:href="#ArialMT-43"/>
       <use xlink:href="#ArialMT-6f" x="72.216797"/>
       <use xlink:href="#ArialMT-6e" x="127.832031"/>
       <use xlink:href="#ArialMT-74" x="183.447266"/>
       <use xlink:href="#ArialMT-72" x="211.230469"/>
       <use xlink:href="#ArialMT-6f" x="244.53125"/>
       <use xlink:href="#ArialMT-6c" x="300.146484"/>
      </g>
     </g>
    </g>
    <g id="xtick_2">
     <g id="text_2">
      <!-- Test -->
      <g style="fill: #262626" transform="translate(287.478956 332.197812) scale(0.1 -0.1)">
       <defs>
        <path id="ArialMT-54" d="M 1659 0 
L 1659 4041 
L 150 4041 
L 150 4581 
L 3781 4581 
L 3781 4041 
L 2266 4041 
L 2266 0 
L 1659 0 
z
" transform="scale(0.015625)"/>
        <path id="ArialMT-65" d="M 2694 1069 
L 3275 997 
Q 3138 488 2766 206 
Q 2394 -75 1816 -75 
Q 1088 -75 661 373 
Q 234 822 234 1631 
Q 234 2469 665 2931 
Q 1097 3394 1784 3394 
Q 2450 3394 2872 2941 
Q 3294 2488 3294 1666 
Q 3294 1616 3291 1516 
L 816 1516 
Q 847 969 1125 678 
Q 1403 388 1819 388 
Q 2128 388 2347 550 
Q 2566 713 2694 1069 
z
M 847 1978 
L 2700 1978 
Q 2663 2397 2488 2606 
Q 2219 2931 1791 2931 
Q 1403 2931 1139 2672 
Q 875 2413 847 1978 
z
" transform="scale(0.015625)"/>
        <path id="ArialMT-73" d="M 197 991 
L 753 1078 
Q 800 744 1014 566 
Q 1228 388 1613 388 
Q 2000 388 2187 545 
Q 2375 703 2375 916 
Q 2375 1106 2209 1216 
Q 2094 1291 1634 1406 
Q 1016 1563 777 1677 
Q 538 1791 414 1992 
Q 291 2194 291 2438 
Q 291 2659 392 2848 
Q 494 3038 669 3163 
Q 800 3259 1026 3326 
Q 1253 3394 1513 3394 
Q 1903 3394 2198 3281 
Q 2494 3169 2634 2976 
Q 2775 2784 2828 2463 
L 2278 2388 
Q 2241 2644 2061 2787 
Q 1881 2931 1553 2931 
Q 1166 2931 1000 2803 
Q 834 2675 834 2503 
Q 834 2394 903 2306 
Q 972 2216 1119 2156 
Q 1203 2125 1616 2013 
Q 2213 1853 2448 1751 
Q 2684 1650 2818 1456 
Q 2953 1263 2953 975 
Q 2953 694 2789 445 
Q 2625 197 2315 61 
Q 2006 -75 1616 -75 
Q 969 -75 630 194 
Q 291 463 197 991 
z
" transform="scale(0.015625)"/>
       </defs>
       <use xlink:href="#ArialMT-54"/>
       <use xlink:href="#ArialMT-65" x="49.958984"/>
       <use xlink:href="#ArialMT-73" x="105.574219"/>
       <use xlink:href="#ArialMT-74" x="155.574219"/>
      </g>
     </g>
    </g>
    <g id="text_3">
     <!-- group -->
     <g style="fill: #262626" transform="translate(202.936389 345.225938) scale(0.1 -0.1)">
      <defs>
       <path id="ArialMT-67" d="M 319 -275 
L 866 -356 
Q 900 -609 1056 -725 
Q 1266 -881 1628 -881 
Q 2019 -881 2231 -725 
Q 2444 -569 2519 -288 
Q 2563 -116 2559 434 
Q 2191 0 1641 0 
Q 956 0 581 494 
Q 206 988 206 1678 
Q 206 2153 378 2554 
Q 550 2956 876 3175 
Q 1203 3394 1644 3394 
Q 2231 3394 2613 2919 
L 2613 3319 
L 3131 3319 
L 3131 450 
Q 3131 -325 2973 -648 
Q 2816 -972 2473 -1159 
Q 2131 -1347 1631 -1347 
Q 1038 -1347 672 -1080 
Q 306 -813 319 -275 
z
M 784 1719 
Q 784 1066 1043 766 
Q 1303 466 1694 466 
Q 2081 466 2343 764 
Q 2606 1063 2606 1700 
Q 2606 2309 2336 2618 
Q 2066 2928 1684 2928 
Q 1309 2928 1046 2623 
Q 784 2319 784 1719 
z
" transform="scale(0.015625)"/>
       <path id="ArialMT-75" d="M 2597 0 
L 2597 488 
Q 2209 -75 1544 -75 
Q 1250 -75 995 37 
Q 741 150 617 320 
Q 494 491 444 738 
Q 409 903 409 1263 
L 409 3319 
L 972 3319 
L 972 1478 
Q 972 1038 1006 884 
Q 1059 663 1231 536 
Q 1403 409 1656 409 
Q 1909 409 2131 539 
Q 2353 669 2445 892 
Q 2538 1116 2538 1541 
L 2538 3319 
L 3100 3319 
L 3100 0 
L 2597 0 
z
" transform="scale(0.015625)"/>
       <path id="ArialMT-70" d="M 422 -1272 
L 422 3319 
L 934 3319 
L 934 2888 
Q 1116 3141 1344 3267 
Q 1572 3394 1897 3394 
Q 2322 3394 2647 3175 
Q 2972 2956 3137 2557 
Q 3303 2159 3303 1684 
Q 3303 1175 3120 767 
Q 2938 359 2589 142 
Q 2241 -75 1856 -75 
Q 1575 -75 1351 44 
Q 1128 163 984 344 
L 984 -1272 
L 422 -1272 
z
M 931 1641 
Q 931 1000 1190 694 
Q 1450 388 1819 388 
Q 2194 388 2461 705 
Q 2728 1022 2728 1688 
Q 2728 2322 2467 2637 
Q 2206 2953 1844 2953 
Q 1484 2953 1207 2617 
Q 931 2281 931 1641 
z
" transform="scale(0.015625)"/>
      </defs>
      <use xlink:href="#ArialMT-67"/>
      <use xlink:href="#ArialMT-72" x="55.615234"/>
      <use xlink:href="#ArialMT-6f" x="88.916016"/>
      <use xlink:href="#ArialMT-75" x="144.53125"/>
      <use xlink:href="#ArialMT-70" x="200.146484"/>
     </g>
    </g>
   </g>
   <g id="matplotlib.axis_2">
    <g id="ytick_1">
     <g id="line2d_1">
      <path d="M 53.877038 280.790663 
L 377.569178 280.790663 
" clip-path="url(#p7776d448a6)" style="fill: none; stroke: #cccccc; stroke-width: 0.8; stroke-linecap: round"/>
     </g>
     <g id="text_4">
      <!-- 60 -->
      <g style="fill: #262626" transform="translate(35.755163 284.369569) scale(0.1 -0.1)">
       <defs>
        <path id="ArialMT-36" d="M 3184 3459 
L 2625 3416 
Q 2550 3747 2413 3897 
Q 2184 4138 1850 4138 
Q 1581 4138 1378 3988 
Q 1113 3794 959 3422 
Q 806 3050 800 2363 
Q 1003 2672 1297 2822 
Q 1591 2972 1913 2972 
Q 2475 2972 2870 2558 
Q 3266 2144 3266 1488 
Q 3266 1056 3080 686 
Q 2894 316 2569 119 
Q 2244 -78 1831 -78 
Q 1128 -78 684 439 
Q 241 956 241 2144 
Q 241 3472 731 4075 
Q 1159 4600 1884 4600 
Q 2425 4600 2770 4297 
Q 3116 3994 3184 3459 
z
M 888 1484 
Q 888 1194 1011 928 
Q 1134 663 1356 523 
Q 1578 384 1822 384 
Q 2178 384 2434 671 
Q 2691 959 2691 1453 
Q 2691 1928 2437 2201 
Q 2184 2475 1800 2475 
Q 1419 2475 1153 2201 
Q 888 1928 888 1484 
z
" transform="scale(0.015625)"/>
        <path id="ArialMT-30" d="M 266 2259 
Q 266 3072 433 3567 
Q 600 4063 929 4331 
Q 1259 4600 1759 4600 
Q 2128 4600 2406 4451 
Q 2684 4303 2865 4023 
Q 3047 3744 3150 3342 
Q 3253 2941 3253 2259 
Q 3253 1453 3087 958 
Q 2922 463 2592 192 
Q 2263 -78 1759 -78 
Q 1097 -78 719 397 
Q 266 969 266 2259 
z
M 844 2259 
Q 844 1131 1108 757 
Q 1372 384 1759 384 
Q 2147 384 2411 759 
Q 2675 1134 2675 2259 
Q 2675 3391 2411 3762 
Q 2147 4134 1753 4134 
Q 1366 4134 1134 3806 
Q 844 3388 844 2259 
z
" transform="scale(0.015625)"/>
       </defs>
       <use xlink:href="#ArialMT-36"/>
       <use xlink:href="#ArialMT-30" x="55.615234"/>
      </g>
     </g>
    </g>
    <g id="ytick_2">
     <g id="line2d_2">
      <path d="M 53.877038 220.495434 
L 377.569178 220.495434 
" clip-path="url(#p7776d448a6)" style="fill: none; stroke: #cccccc; stroke-width: 0.8; stroke-linecap: round"/>
     </g>
     <g id="text_5">
      <!-- 80 -->
      <g style="fill: #262626" transform="translate(35.755163 224.07434) scale(0.1 -0.1)">
       <defs>
        <path id="ArialMT-38" d="M 1131 2484 
Q 781 2613 612 2850 
Q 444 3088 444 3419 
Q 444 3919 803 4259 
Q 1163 4600 1759 4600 
Q 2359 4600 2725 4251 
Q 3091 3903 3091 3403 
Q 3091 3084 2923 2848 
Q 2756 2613 2416 2484 
Q 2838 2347 3058 2040 
Q 3278 1734 3278 1309 
Q 3278 722 2862 322 
Q 2447 -78 1769 -78 
Q 1091 -78 675 323 
Q 259 725 259 1325 
Q 259 1772 486 2073 
Q 713 2375 1131 2484 
z
M 1019 3438 
Q 1019 3113 1228 2906 
Q 1438 2700 1772 2700 
Q 2097 2700 2305 2904 
Q 2513 3109 2513 3406 
Q 2513 3716 2298 3927 
Q 2084 4138 1766 4138 
Q 1444 4138 1231 3931 
Q 1019 3725 1019 3438 
z
M 838 1322 
Q 838 1081 952 856 
Q 1066 631 1291 507 
Q 1516 384 1775 384 
Q 2178 384 2440 643 
Q 2703 903 2703 1303 
Q 2703 1709 2433 1975 
Q 2163 2241 1756 2241 
Q 1359 2241 1098 1978 
Q 838 1716 838 1322 
z
" transform="scale(0.015625)"/>
       </defs>
       <use xlink:href="#ArialMT-38"/>
       <use xlink:href="#ArialMT-30" x="55.615234"/>
      </g>
     </g>
    </g>
    <g id="ytick_3">
     <g id="line2d_3">
      <path d="M 53.877038 160.200206 
L 377.569178 160.200206 
" clip-path="url(#p7776d448a6)" style="fill: none; stroke: #cccccc; stroke-width: 0.8; stroke-linecap: round"/>
     </g>
     <g id="text_6">
      <!-- 100 -->
      <g style="fill: #262626" transform="translate(30.194225 163.779112) scale(0.1 -0.1)">
       <defs>
        <path id="ArialMT-31" d="M 2384 0 
L 1822 0 
L 1822 3584 
Q 1619 3391 1289 3197 
Q 959 3003 697 2906 
L 697 3450 
Q 1169 3672 1522 3987 
Q 1875 4303 2022 4600 
L 2384 4600 
L 2384 0 
z
" transform="scale(0.015625)"/>
       </defs>
       <use xlink:href="#ArialMT-31"/>
       <use xlink:href="#ArialMT-30" x="55.615234"/>
       <use xlink:href="#ArialMT-30" x="111.230469"/>
      </g>
     </g>
    </g>
    <g id="ytick_4">
     <g id="line2d_4">
      <path d="M 53.877038 99.904977 
L 377.569178 99.904977 
" clip-path="url(#p7776d448a6)" style="fill: none; stroke: #cccccc; stroke-width: 0.8; stroke-linecap: round"/>
     </g>
     <g id="text_7">
      <!-- 120 -->
      <g style="fill: #262626" transform="translate(30.194225 103.483883) scale(0.1 -0.1)">
       <defs>
        <path id="ArialMT-32" d="M 3222 541 
L 3222 0 
L 194 0 
Q 188 203 259 391 
Q 375 700 629 1000 
Q 884 1300 1366 1694 
Q 2113 2306 2375 2664 
Q 2638 3022 2638 3341 
Q 2638 3675 2398 3904 
Q 2159 4134 1775 4134 
Q 1369 4134 1125 3890 
Q 881 3647 878 3216 
L 300 3275 
Q 359 3922 746 4261 
Q 1134 4600 1788 4600 
Q 2447 4600 2831 4234 
Q 3216 3869 3216 3328 
Q 3216 3053 3103 2787 
Q 2991 2522 2730 2228 
Q 2469 1934 1863 1422 
Q 1356 997 1212 845 
Q 1069 694 975 541 
L 3222 541 
z
" transform="scale(0.015625)"/>
       </defs>
       <use xlink:href="#ArialMT-31"/>
       <use xlink:href="#ArialMT-32" x="55.615234"/>
       <use xlink:href="#ArialMT-30" x="111.230469"/>
      </g>
     </g>
    </g>
    <g id="ytick_5">
     <g id="line2d_5">
      <path d="M 53.877038 39.609749 
L 377.569178 39.609749 
" clip-path="url(#p7776d448a6)" style="fill: none; stroke: #cccccc; stroke-width: 0.8; stroke-linecap: round"/>
     </g>
     <g id="text_8">
      <!-- 140 -->
      <g style="fill: #262626" transform="translate(30.194225 43.188655) scale(0.1 -0.1)">
       <defs>
        <path id="ArialMT-34" d="M 2069 0 
L 2069 1097 
L 81 1097 
L 81 1613 
L 2172 4581 
L 2631 4581 
L 2631 1613 
L 3250 1613 
L 3250 1097 
L 2631 1097 
L 2631 0 
L 2069 0 
z
M 2069 1613 
L 2069 3678 
L 634 1613 
L 2069 1613 
z
" transform="scale(0.015625)"/>
       </defs>
       <use xlink:href="#ArialMT-31"/>
       <use xlink:href="#ArialMT-34" x="55.615234"/>
       <use xlink:href="#ArialMT-30" x="111.230469"/>
      </g>
     </g>
    </g>
    <g id="text_9">
     <!-- Hip perimeter (cm) -->
     <g style="fill: #262626" transform="translate(24.089538 212.771406) rotate(-90) scale(0.1 -0.1)">
      <defs>
       <path id="ArialMT-48" d="M 513 0 
L 513 4581 
L 1119 4581 
L 1119 2700 
L 3500 2700 
L 3500 4581 
L 4106 4581 
L 4106 0 
L 3500 0 
L 3500 2159 
L 1119 2159 
L 1119 0 
L 513 0 
z
" transform="scale(0.015625)"/>
       <path id="ArialMT-69" d="M 425 3934 
L 425 4581 
L 988 4581 
L 988 3934 
L 425 3934 
z
M 425 0 
L 425 3319 
L 988 3319 
L 988 0 
L 425 0 
z
" transform="scale(0.015625)"/>
       <path id="ArialMT-20" transform="scale(0.015625)"/>
       <path id="ArialMT-6d" d="M 422 0 
L 422 3319 
L 925 3319 
L 925 2853 
Q 1081 3097 1340 3245 
Q 1600 3394 1931 3394 
Q 2300 3394 2536 3241 
Q 2772 3088 2869 2813 
Q 3263 3394 3894 3394 
Q 4388 3394 4653 3120 
Q 4919 2847 4919 2278 
L 4919 0 
L 4359 0 
L 4359 2091 
Q 4359 2428 4304 2576 
Q 4250 2725 4106 2815 
Q 3963 2906 3769 2906 
Q 3419 2906 3187 2673 
Q 2956 2441 2956 1928 
L 2956 0 
L 2394 0 
L 2394 2156 
Q 2394 2531 2256 2718 
Q 2119 2906 1806 2906 
Q 1569 2906 1367 2781 
Q 1166 2656 1075 2415 
Q 984 2175 984 1722 
L 984 0 
L 422 0 
z
" transform="scale(0.015625)"/>
       <path id="ArialMT-28" d="M 1497 -1347 
Q 1031 -759 709 28 
Q 388 816 388 1659 
Q 388 2403 628 3084 
Q 909 3875 1497 4659 
L 1900 4659 
Q 1522 4009 1400 3731 
Q 1209 3300 1100 2831 
Q 966 2247 966 1656 
Q 966 153 1900 -1347 
L 1497 -1347 
z
" transform="scale(0.015625)"/>
       <path id="ArialMT-63" d="M 2588 1216 
L 3141 1144 
Q 3050 572 2676 248 
Q 2303 -75 1759 -75 
Q 1078 -75 664 370 
Q 250 816 250 1647 
Q 250 2184 428 2587 
Q 606 2991 970 3192 
Q 1334 3394 1763 3394 
Q 2303 3394 2647 3120 
Q 2991 2847 3088 2344 
L 2541 2259 
Q 2463 2594 2264 2762 
Q 2066 2931 1784 2931 
Q 1359 2931 1093 2626 
Q 828 2322 828 1663 
Q 828 994 1084 691 
Q 1341 388 1753 388 
Q 2084 388 2306 591 
Q 2528 794 2588 1216 
z
" transform="scale(0.015625)"/>
       <path id="ArialMT-29" d="M 791 -1347 
L 388 -1347 
Q 1322 153 1322 1656 
Q 1322 2244 1188 2822 
Q 1081 3291 891 3722 
Q 769 4003 388 4659 
L 791 4659 
Q 1378 3875 1659 3084 
Q 1900 2403 1900 1659 
Q 1900 816 1576 28 
Q 1253 -759 791 -1347 
z
" transform="scale(0.015625)"/>
      </defs>
      <use xlink:href="#ArialMT-48"/>
      <use xlink:href="#ArialMT-69" x="72.216797"/>
      <use xlink:href="#ArialMT-70" x="94.433594"/>
      <use xlink:href="#ArialMT-20" x="150.048828"/>
      <use xlink:href="#ArialMT-70" x="177.832031"/>
      <use xlink:href="#ArialMT-65" x="233.447266"/>
      <use xlink:href="#ArialMT-72" x="289.0625"/>
      <use xlink:href="#ArialMT-69" x="322.363281"/>
      <use xlink:href="#ArialMT-6d" x="344.580078"/>
      <use xlink:href="#ArialMT-65" x="427.880859"/>
      <use xlink:href="#ArialMT-74" x="483.496094"/>
      <use xlink:href="#ArialMT-65" x="511.279297"/>
      <use xlink:href="#ArialMT-72" x="566.894531"/>
      <use xlink:href="#ArialMT-20" x="600.195312"/>
      <use xlink:href="#ArialMT-28" x="627.978516"/>
      <use xlink:href="#ArialMT-63" x="661.279297"/>
      <use xlink:href="#ArialMT-6d" x="711.279297"/>
      <use xlink:href="#ArialMT-29" x="794.580078"/>
     </g>
    </g>
   </g>
   <g id="PolyCollection_1">
    <defs>
     <path id="m73e15c29a2" d="M 103.134602 -122.18776 
L 101.727115 -122.18776 
L 101.533784 -123.725227 
L 101.297583 -125.262695 
L 101.011871 -126.800163 
L 100.669684 -128.337631 
L 100.263886 -129.875098 
L 99.787361 -131.412566 
L 99.233238 -132.950034 
L 98.595144 -134.487502 
L 97.867485 -136.024969 
L 97.04574 -137.562437 
L 96.126757 -139.099905 
L 95.109052 -140.637373 
L 93.993079 -142.17484 
L 92.781475 -143.712308 
L 91.479252 -145.249776 
L 90.09394 -146.787244 
L 88.635647 -148.324711 
L 87.117052 -149.862179 
L 85.553294 -151.399647 
L 83.961782 -152.937115 
L 82.361896 -154.474583 
L 80.774599 -156.01205 
L 79.221969 -157.549518 
L 77.72664 -159.086986 
L 76.311202 -160.624454 
L 74.99755 -162.161921 
L 73.806234 -163.699389 
L 72.75582 -165.236857 
L 71.8623 -166.774325 
L 71.138586 -168.311792 
L 70.594107 -169.84926 
L 70.234532 -171.386728 
L 70.061645 -172.924196 
L 70.073361 -174.461663 
L 70.263902 -175.999131 
L 70.6241 -177.536599 
L 71.14182 -179.074067 
L 71.802465 -180.611534 
L 72.58954 -182.149002 
L 73.48523 -183.68647 
L 74.470954 -185.223938 
L 75.527882 -186.761406 
L 76.637374 -188.298873 
L 77.781335 -189.836341 
L 78.942477 -191.373809 
L 80.104493 -192.911277 
L 81.252164 -194.448744 
L 82.371399 -195.986212 
L 83.449255 -197.52368 
L 84.473935 -199.061148 
L 85.434817 -200.598615 
L 86.322494 -202.136083 
L 87.128872 -203.673551 
L 87.847296 -205.211019 
L 88.472725 -206.748486 
L 89.001925 -208.285954 
L 89.433662 -209.823422 
L 89.768885 -211.36089 
L 90.010849 -212.898357 
L 90.165185 -214.435825 
L 90.23987 -215.973293 
L 90.245098 -217.510761 
L 90.193042 -219.048228 
L 90.097513 -220.585696 
L 89.973527 -222.123164 
L 89.836792 -223.660632 
L 89.703153 -225.1981 
L 89.588019 -226.735567 
L 89.505794 -228.273035 
L 89.469364 -229.810503 
L 89.48965 -231.347971 
L 89.575247 -232.885438 
L 89.732184 -234.422906 
L 89.963795 -235.960374 
L 90.270707 -237.497842 
L 90.650948 -239.035309 
L 91.100149 -240.572777 
L 91.611841 -242.110245 
L 92.177805 -243.647713 
L 92.788483 -245.18518 
L 93.433398 -246.722648 
L 94.101587 -248.260116 
L 94.782015 -249.797584 
L 95.463955 -251.335051 
L 96.137325 -252.872519 
L 96.792968 -254.409987 
L 97.422872 -255.947455 
L 98.020321 -257.484923 
L 98.579987 -259.02239 
L 99.097953 -260.559858 
L 99.571684 -262.097326 
L 99.999944 -263.634794 
L 100.382682 -265.172261 
L 100.720874 -266.709729 
L 101.016359 -268.247197 
L 101.271657 -269.784665 
L 101.489791 -271.322132 
L 101.674112 -272.8596 
L 101.828146 -274.397068 
L 103.033572 -274.397068 
L 103.033572 -274.397068 
L 103.187605 -272.8596 
L 103.371926 -271.322132 
L 103.59006 -269.784665 
L 103.845359 -268.247197 
L 104.140844 -266.709729 
L 104.479036 -265.172261 
L 104.861773 -263.634794 
L 105.290033 -262.097326 
L 105.763764 -260.559858 
L 106.28173 -259.02239 
L 106.841396 -257.484923 
L 107.438846 -255.947455 
L 108.068749 -254.409987 
L 108.724392 -252.872519 
L 109.397762 -251.335051 
L 110.079702 -249.797584 
L 110.76013 -248.260116 
L 111.42832 -246.722648 
L 112.073235 -245.18518 
L 112.683912 -243.647713 
L 113.249877 -242.110245 
L 113.761568 -240.572777 
L 114.21077 -239.035309 
L 114.59101 -237.497842 
L 114.897922 -235.960374 
L 115.129533 -234.422906 
L 115.28647 -232.885438 
L 115.372067 -231.347971 
L 115.392353 -229.810503 
L 115.355924 -228.273035 
L 115.273699 -226.735567 
L 115.158564 -225.1981 
L 115.024926 -223.660632 
L 114.888191 -222.123164 
L 114.764204 -220.585696 
L 114.668676 -219.048228 
L 114.616619 -217.510761 
L 114.621847 -215.973293 
L 114.696532 -214.435825 
L 114.850869 -212.898357 
L 115.092833 -211.36089 
L 115.428055 -209.823422 
L 115.859792 -208.285954 
L 116.388992 -206.748486 
L 117.014422 -205.211019 
L 117.732846 -203.673551 
L 118.539223 -202.136083 
L 119.426901 -200.598615 
L 120.387782 -199.061148 
L 121.412463 -197.52368 
L 122.490318 -195.986212 
L 123.609553 -194.448744 
L 124.757224 -192.911277 
L 125.919241 -191.373809 
L 127.080382 -189.836341 
L 128.224343 -188.298873 
L 129.333836 -186.761406 
L 130.390764 -185.223938 
L 131.376487 -183.68647 
L 132.272177 -182.149002 
L 133.059253 -180.611534 
L 133.719898 -179.074067 
L 134.237617 -177.536599 
L 134.597815 -175.999131 
L 134.788356 -174.461663 
L 134.800073 -172.924196 
L 134.627185 -171.386728 
L 134.267611 -169.84926 
L 133.723131 -168.311792 
L 132.999417 -166.774325 
L 132.105897 -165.236857 
L 131.055483 -163.699389 
L 129.864167 -162.161921 
L 128.550515 -160.624454 
L 127.135077 -159.086986 
L 125.639748 -157.549518 
L 124.087118 -156.01205 
L 122.499822 -154.474583 
L 120.899935 -152.937115 
L 119.308423 -151.399647 
L 117.744666 -149.862179 
L 116.22607 -148.324711 
L 114.767777 -146.787244 
L 113.382465 -145.249776 
L 112.080242 -143.712308 
L 110.868638 -142.17484 
L 109.752665 -140.637373 
L 108.73496 -139.099905 
L 107.815977 -137.562437 
L 106.994232 -136.024969 
L 106.266573 -134.487502 
L 105.62848 -132.950034 
L 105.074357 -131.412566 
L 104.597832 -129.875098 
L 104.192033 -128.337631 
L 103.849846 -126.800163 
L 103.564134 -125.262695 
L 103.327934 -123.725227 
L 103.134602 -122.18776 
z
" style="stroke: #3f3f3f; stroke-width: 1.25"/>
    </defs>
    <g clip-path="url(#p7776d448a6)">
     <use xlink:href="#m73e15c29a2" x="0" y="360" style="fill: #3274a1; stroke: #3f3f3f; stroke-width: 1.25"/>
    </g>
   </g>
   <g id="PolyCollection_2">
    <defs>
     <path id="m1b21e153b0" d="M 167.799372 -111.158163 
L 166.539202 -111.158163 
L 166.360049 -113.070712 
L 166.140677 -114.98326 
L 165.875148 -116.895809 
L 165.557413 -118.808358 
L 165.181499 -120.720906 
L 164.741713 -122.633455 
L 164.232868 -124.546003 
L 163.650505 -126.458552 
L 162.991107 -128.3711 
L 162.252295 -130.283649 
L 161.432984 -132.196198 
L 160.533492 -134.108746 
L 159.55561 -136.021295 
L 158.502605 -137.933843 
L 157.379185 -139.846392 
L 156.191417 -141.75894 
L 154.946612 -143.671489 
L 153.653193 -145.584037 
L 152.320559 -147.496586 
L 150.958944 -149.409135 
L 149.579296 -151.321683 
L 148.193164 -153.234232 
L 146.812601 -155.14678 
L 145.450067 -157.059329 
L 144.118327 -158.971877 
L 142.830331 -160.884426 
L 141.599061 -162.796975 
L 140.43734 -164.709523 
L 139.357599 -166.622072 
L 138.371596 -168.53462 
L 137.490114 -170.447169 
L 136.722639 -172.359717 
L 136.077039 -174.272266 
L 135.559286 -176.184815 
L 135.173222 -178.097363 
L 134.920411 -180.009912 
L 134.800073 -181.92246 
L 134.809128 -183.835009 
L 134.942339 -185.747557 
L 135.192541 -187.660106 
L 135.550947 -189.572654 
L 136.007504 -191.485203 
L 136.55127 -193.397752 
L 137.170782 -195.3103 
L 137.854396 -197.222849 
L 138.590573 -199.135397 
L 139.368093 -201.047946 
L 140.176206 -202.960494 
L 141.004708 -204.873043 
L 141.843972 -206.785592 
L 142.684931 -208.69814 
L 143.519058 -210.610689 
L 144.338352 -212.523237 
L 145.135359 -214.435786 
L 145.903237 -216.348334 
L 146.635877 -218.260883 
L 147.328078 -220.173432 
L 147.975758 -222.08598 
L 148.576186 -223.998529 
L 149.128208 -225.911077 
L 149.632422 -227.823626 
L 150.091292 -229.736174 
L 150.509162 -231.648723 
L 150.892154 -233.561271 
L 151.247942 -235.47382 
L 151.585422 -237.386369 
L 151.914278 -239.298917 
L 152.244479 -241.211466 
L 152.585753 -243.124014 
L 152.947064 -245.036563 
L 153.336138 -246.949111 
L 153.759075 -248.86166 
L 154.220061 -250.774209 
L 154.721209 -252.686757 
L 155.262527 -254.599306 
L 155.841999 -256.511854 
L 156.455784 -258.424403 
L 157.098484 -260.336951 
L 157.763478 -262.2495 
L 158.443285 -264.162049 
L 159.129932 -266.074597 
L 159.815308 -267.987146 
L 160.491483 -269.899694 
L 161.15099 -271.812243 
L 161.787049 -273.724791 
L 162.393746 -275.63734 
L 162.966153 -277.549888 
L 163.500397 -279.462437 
L 163.993692 -281.374986 
L 164.444317 -283.287534 
L 164.851567 -285.200083 
L 165.215674 -287.112631 
L 165.537699 -289.02518 
L 165.819413 -290.937728 
L 166.06316 -292.850277 
L 166.271723 -294.762826 
L 166.448184 -296.675374 
L 166.595799 -298.587923 
L 166.717871 -300.500471 
L 167.620702 -300.500471 
L 167.620702 -300.500471 
L 167.742775 -298.587923 
L 167.890389 -296.675374 
L 168.066851 -294.762826 
L 168.275414 -292.850277 
L 168.519161 -290.937728 
L 168.800874 -289.02518 
L 169.1229 -287.112631 
L 169.487007 -285.200083 
L 169.894257 -283.287534 
L 170.344881 -281.374986 
L 170.838176 -279.462437 
L 171.372421 -277.549888 
L 171.944827 -275.63734 
L 172.551524 -273.724791 
L 173.187584 -271.812243 
L 173.84709 -269.899694 
L 174.523266 -267.987146 
L 175.208641 -266.074597 
L 175.895289 -264.162049 
L 176.575096 -262.2495 
L 177.24009 -260.336951 
L 177.882789 -258.424403 
L 178.496574 -256.511854 
L 179.076047 -254.599306 
L 179.617364 -252.686757 
L 180.118513 -250.774209 
L 180.579499 -248.86166 
L 181.002435 -246.949111 
L 181.39151 -245.036563 
L 181.752821 -243.124014 
L 182.094094 -241.211466 
L 182.424295 -239.298917 
L 182.753151 -237.386369 
L 183.090632 -235.47382 
L 183.44642 -233.561271 
L 183.829411 -231.648723 
L 184.247282 -229.736174 
L 184.706152 -227.823626 
L 185.210366 -225.911077 
L 185.762387 -223.998529 
L 186.362816 -222.08598 
L 187.010496 -220.173432 
L 187.702696 -218.260883 
L 188.435337 -216.348334 
L 189.203214 -214.435786 
L 190.000222 -212.523237 
L 190.819516 -210.610689 
L 191.653642 -208.69814 
L 192.494601 -206.785592 
L 193.333865 -204.873043 
L 194.162368 -202.960494 
L 194.970481 -201.047946 
L 195.748001 -199.135397 
L 196.484177 -197.222849 
L 197.167792 -195.3103 
L 197.787304 -193.397752 
L 198.33107 -191.485203 
L 198.787627 -189.572654 
L 199.146033 -187.660106 
L 199.396234 -185.747557 
L 199.529445 -183.835009 
L 199.538501 -181.92246 
L 199.418163 -180.009912 
L 199.165351 -178.097363 
L 198.779288 -176.184815 
L 198.261535 -174.272266 
L 197.615935 -172.359717 
L 196.848459 -170.447169 
L 195.966978 -168.53462 
L 194.980975 -166.622072 
L 193.901233 -164.709523 
L 192.739513 -162.796975 
L 191.508243 -160.884426 
L 190.220247 -158.971877 
L 188.888507 -157.059329 
L 187.525973 -155.14678 
L 186.14541 -153.234232 
L 184.759278 -151.321683 
L 183.379629 -149.409135 
L 182.018014 -147.496586 
L 180.68538 -145.584037 
L 179.391962 -143.671489 
L 178.147157 -141.75894 
L 176.959388 -139.846392 
L 175.835969 -137.933843 
L 174.782964 -136.021295 
L 173.805082 -134.108746 
L 172.90559 -132.196198 
L 172.086278 -130.283649 
L 171.347467 -128.3711 
L 170.688069 -126.458552 
L 170.105705 -124.546003 
L 169.596861 -122.633455 
L 169.157075 -120.720906 
L 168.781161 -118.808358 
L 168.463426 -116.895809 
L 168.197896 -114.98326 
L 167.978525 -113.070712 
L 167.799372 -111.158163 
z
" style="stroke: #3f3f3f; stroke-width: 1.25"/>
    </defs>
    <g clip-path="url(#p7776d448a6)">
     <use xlink:href="#m1b21e153b0" x="0" y="360" style="fill: #e1812c; stroke: #3f3f3f; stroke-width: 1.25"/>
    </g>
   </g>
   <g id="PolyCollection_3">
    <defs>
     <path id="m8cbbe2d66a" d="M 264.571094 -55.292727 
L 263.982764 -55.292727 
L 263.9022 -57.572567 
L 263.80539 -59.852407 
L 263.690723 -62.132247 
L 263.556858 -64.412087 
L 263.402828 -66.691926 
L 263.228155 -68.971766 
L 263.03294 -71.251606 
L 262.817938 -73.531446 
L 262.584594 -75.811286 
L 262.335053 -78.091126 
L 262.072108 -80.370966 
L 261.799116 -82.650805 
L 261.51986 -84.930645 
L 261.238378 -87.210485 
L 260.958748 -89.490325 
L 260.684856 -91.770165 
L 260.420158 -94.050005 
L 260.167436 -96.329844 
L 259.928579 -98.609684 
L 259.704394 -100.889524 
L 259.494463 -103.169364 
L 259.29706 -105.449204 
L 259.10913 -107.729044 
L 258.926351 -110.008883 
L 258.743266 -112.288723 
L 258.5535 -114.568563 
L 258.350041 -116.848403 
L 258.125585 -119.128243 
L 257.872914 -121.408083 
L 257.585295 -123.687923 
L 257.256861 -125.967762 
L 256.882951 -128.247602 
L 256.460372 -130.527442 
L 255.987567 -132.807282 
L 255.464663 -135.087122 
L 254.893401 -137.366962 
L 254.276953 -139.646801 
L 253.619654 -141.926641 
L 252.926671 -144.206481 
L 252.203666 -146.486321 
L 251.456486 -148.766161 
L 250.69093 -151.046001 
L 249.91262 -153.32584 
L 249.126996 -155.60568 
L 248.33943 -157.88552 
L 247.555443 -160.16536 
L 246.780983 -162.4452 
L 246.022716 -164.72504 
L 245.288275 -167.00488 
L 244.586405 -169.284719 
L 243.92697 -171.564559 
L 243.32079 -173.844399 
L 242.779304 -176.124239 
L 242.31407 -178.404079 
L 241.936158 -180.683919 
L 241.655477 -182.963758 
L 241.480116 -185.243598 
L 241.415767 -187.523438 
L 241.465283 -189.803278 
L 241.628447 -192.083118 
L 241.901945 -194.362958 
L 242.279575 -196.642797 
L 242.752656 -198.922637 
L 243.310599 -201.202477 
L 243.941577 -203.482317 
L 244.633237 -205.762157 
L 245.37337 -208.041997 
L 246.150499 -210.321837 
L 246.954317 -212.601676 
L 247.775977 -214.881516 
L 248.608195 -217.161356 
L 249.445204 -219.441196 
L 250.282578 -221.721036 
L 251.116955 -224.000876 
L 251.945718 -226.280715 
L 252.766668 -228.560555 
L 253.577725 -230.840395 
L 254.376687 -233.120235 
L 255.16107 -235.400075 
L 255.928028 -237.679915 
L 256.674354 -239.959754 
L 257.396553 -242.239594 
L 258.090967 -244.519434 
L 258.753938 -246.799274 
L 259.381983 -249.079114 
L 259.97197 -251.358954 
L 260.521276 -253.638794 
L 261.027914 -255.918633 
L 261.490623 -258.198473 
L 261.908918 -260.478313 
L 262.283091 -262.758153 
L 262.614182 -265.037993 
L 262.90391 -267.317833 
L 263.154571 -269.597672 
L 263.368931 -271.877512 
L 263.550091 -274.157352 
L 263.701363 -276.437192 
L 263.826147 -278.717032 
L 263.927814 -280.996872 
L 264.626045 -280.996872 
L 264.626045 -280.996872 
L 264.727712 -278.717032 
L 264.852495 -276.437192 
L 265.003767 -274.157352 
L 265.184927 -271.877512 
L 265.399287 -269.597672 
L 265.649948 -267.317833 
L 265.939676 -265.037993 
L 266.270767 -262.758153 
L 266.64494 -260.478313 
L 267.063235 -258.198473 
L 267.525944 -255.918633 
L 268.032582 -253.638794 
L 268.581888 -251.358954 
L 269.171875 -249.079114 
L 269.79992 -246.799274 
L 270.462891 -244.519434 
L 271.157305 -242.239594 
L 271.879504 -239.959754 
L 272.62583 -237.679915 
L 273.392788 -235.400075 
L 274.177171 -233.120235 
L 274.976133 -230.840395 
L 275.78719 -228.560555 
L 276.60814 -226.280715 
L 277.436904 -224.000876 
L 278.27128 -221.721036 
L 279.108654 -219.441196 
L 279.945664 -217.161356 
L 280.777881 -214.881516 
L 281.599541 -212.601676 
L 282.403359 -210.321837 
L 283.180488 -208.041997 
L 283.920622 -205.762157 
L 284.612281 -203.482317 
L 285.24326 -201.202477 
L 285.801202 -198.922637 
L 286.274283 -196.642797 
L 286.651913 -194.362958 
L 286.925411 -192.083118 
L 287.088575 -189.803278 
L 287.138091 -187.523438 
L 287.073742 -185.243598 
L 286.898381 -182.963758 
L 286.6177 -180.683919 
L 286.239788 -178.404079 
L 285.774554 -176.124239 
L 285.233068 -173.844399 
L 284.626888 -171.564559 
L 283.967453 -169.284719 
L 283.265583 -167.00488 
L 282.531142 -164.72504 
L 281.772876 -162.4452 
L 280.998415 -160.16536 
L 280.214428 -157.88552 
L 279.426862 -155.60568 
L 278.641238 -153.32584 
L 277.862928 -151.046001 
L 277.097372 -148.766161 
L 276.350192 -146.486321 
L 275.627187 -144.206481 
L 274.934204 -141.926641 
L 274.276905 -139.646801 
L 273.660458 -137.366962 
L 273.089195 -135.087122 
L 272.566291 -132.807282 
L 272.093486 -130.527442 
L 271.670907 -128.247602 
L 271.296997 -125.967762 
L 270.968563 -123.687923 
L 270.680944 -121.408083 
L 270.428273 -119.128243 
L 270.203817 -116.848403 
L 270.000359 -114.568563 
L 269.810592 -112.288723 
L 269.627507 -110.008883 
L 269.444728 -107.729044 
L 269.256798 -105.449204 
L 269.059395 -103.169364 
L 268.849464 -100.889524 
L 268.62528 -98.609684 
L 268.386422 -96.329844 
L 268.1337 -94.050005 
L 267.869002 -91.770165 
L 267.595111 -89.490325 
L 267.31548 -87.210485 
L 267.033998 -84.930645 
L 266.754743 -82.650805 
L 266.48175 -80.370966 
L 266.218805 -78.091126 
L 265.969264 -75.811286 
L 265.735921 -73.531446 
L 265.520918 -71.251606 
L 265.325703 -68.971766 
L 265.15103 -66.691926 
L 264.997 -64.412087 
L 264.863135 -62.132247 
L 264.748469 -59.852407 
L 264.651658 -57.572567 
L 264.571094 -55.292727 
z
" style="stroke: #3f3f3f; stroke-width: 1.25"/>
    </defs>
    <g clip-path="url(#p7776d448a6)">
     <use xlink:href="#m8cbbe2d66a" x="0" y="360" style="fill: #3274a1; stroke: #3f3f3f; stroke-width: 1.25"/>
    </g>
   </g>
   <g id="PolyCollection_4">
    <defs>
     <path id="mcb1293b3ce" d="M 329.702654 -66.125697 
L 328.328061 -66.125697 
L 328.142377 -68.430306 
L 327.920324 -70.734916 
L 327.658792 -73.039525 
L 327.355484 -75.344134 
L 327.009186 -77.648743 
L 326.620036 -79.953352 
L 326.189733 -82.257961 
L 325.721671 -84.56257 
L 325.220979 -86.867179 
L 324.694431 -89.171788 
L 324.15023 -91.476397 
L 323.597663 -93.781006 
L 323.046639 -96.085615 
L 322.507139 -98.390224 
L 321.988624 -100.694833 
L 321.499441 -102.999442 
L 321.046279 -105.304051 
L 320.633734 -107.60866 
L 320.264012 -109.913269 
L 319.936797 -112.217878 
L 319.649308 -114.522487 
L 319.396518 -116.827096 
L 319.17151 -119.131705 
L 318.965942 -121.436315 
L 318.770545 -123.740924 
L 318.575619 -126.045533 
L 318.371462 -128.350142 
L 318.148709 -130.654751 
L 317.898543 -132.95936 
L 317.612793 -135.263969 
L 317.283934 -137.568578 
L 316.905015 -139.873187 
L 316.469575 -142.177796 
L 315.971595 -144.482405 
L 315.405526 -146.787014 
L 314.766428 -149.091623 
L 314.050253 -151.396232 
L 313.254235 -153.700841 
L 312.377397 -156.00545 
L 311.421095 -158.310059 
L 310.389564 -160.614668 
L 309.29038 -162.919277 
L 308.134786 -165.223886 
L 306.937816 -167.528495 
L 305.718172 -169.833104 
L 304.497855 -172.137714 
L 303.30153 -174.442323 
L 302.155675 -176.746932 
L 301.087553 -179.051541 
L 300.124077 -181.35615 
L 299.29065 -183.660759 
L 298.610049 -185.965368 
L 298.101438 -188.269977 
L 297.779557 -190.574586 
L 297.654155 -192.879195 
L 297.729672 -195.183804 
L 298.005185 -197.488413 
L 298.474612 -199.793022 
L 299.127137 -202.097631 
L 299.947812 -204.40224 
L 300.918298 -206.706849 
L 302.017691 -209.011458 
L 303.223374 -211.316067 
L 304.511862 -213.620676 
L 305.859606 -215.925285 
L 307.243706 -218.229894 
L 308.642548 -220.534503 
L 310.036315 -222.839112 
L 311.407398 -225.143722 
L 312.740687 -227.448331 
L 314.02375 -229.75294 
L 315.246907 -232.057549 
L 316.403201 -234.362158 
L 317.488273 -236.666767 
L 318.500157 -238.971376 
L 319.439001 -241.275985 
L 320.306729 -243.580594 
L 321.106669 -245.885203 
L 321.843149 -248.189812 
L 322.521112 -250.494421 
L 323.145735 -252.79903 
L 323.722109 -255.103639 
L 324.254964 -257.408248 
L 324.748475 -259.712857 
L 325.206139 -262.017466 
L 325.630737 -264.322075 
L 326.024353 -266.626684 
L 326.388466 -268.931293 
L 326.724071 -271.235902 
L 327.031832 -273.540511 
L 327.312238 -275.845121 
L 327.565749 -278.14973 
L 327.792921 -280.454339 
L 327.994497 -282.758948 
L 328.171465 -285.063557 
L 328.325076 -287.368166 
L 328.456836 -289.672775 
L 328.568466 -291.977384 
L 328.661847 -294.281993 
L 329.368868 -294.281993 
L 329.368868 -294.281993 
L 329.462249 -291.977384 
L 329.573879 -289.672775 
L 329.705639 -287.368166 
L 329.85925 -285.063557 
L 330.036217 -282.758948 
L 330.237793 -280.454339 
L 330.464965 -278.14973 
L 330.718476 -275.845121 
L 330.998882 -273.540511 
L 331.306644 -271.235902 
L 331.642249 -268.931293 
L 332.006362 -266.626684 
L 332.399978 -264.322075 
L 332.824575 -262.017466 
L 333.28224 -259.712857 
L 333.77575 -257.408248 
L 334.308605 -255.103639 
L 334.884979 -252.79903 
L 335.509603 -250.494421 
L 336.187565 -248.189812 
L 336.924046 -245.885203 
L 337.723985 -243.580594 
L 338.591714 -241.275985 
L 339.530558 -238.971376 
L 340.542442 -236.666767 
L 341.627513 -234.362158 
L 342.783807 -232.057549 
L 344.006965 -229.75294 
L 345.290028 -227.448331 
L 346.623316 -225.143722 
L 347.994399 -222.839112 
L 349.388166 -220.534503 
L 350.787008 -218.229894 
L 352.171109 -215.925285 
L 353.518852 -213.620676 
L 354.807341 -211.316067 
L 356.013023 -209.011458 
L 357.112416 -206.706849 
L 358.082903 -204.40224 
L 358.903578 -202.097631 
L 359.556102 -199.793022 
L 360.02553 -197.488413 
L 360.301043 -195.183804 
L 360.376559 -192.879195 
L 360.251158 -190.574586 
L 359.929277 -188.269977 
L 359.420665 -185.965368 
L 358.740065 -183.660759 
L 357.906638 -181.35615 
L 356.943162 -179.051541 
L 355.875039 -176.746932 
L 354.729184 -174.442323 
L 353.53286 -172.137714 
L 352.312542 -169.833104 
L 351.092899 -167.528495 
L 349.895928 -165.223886 
L 348.740335 -162.919277 
L 347.641151 -160.614668 
L 346.609619 -158.310059 
L 345.653318 -156.00545 
L 344.776479 -153.700841 
L 343.980462 -151.396232 
L 343.264286 -149.091623 
L 342.625189 -146.787014 
L 342.059119 -144.482405 
L 341.561139 -142.177796 
L 341.1257 -139.873187 
L 340.74678 -137.568578 
L 340.417921 -135.263969 
L 340.132172 -132.95936 
L 339.882005 -130.654751 
L 339.659252 -128.350142 
L 339.455096 -126.045533 
L 339.26017 -123.740924 
L 339.064773 -121.436315 
L 338.859205 -119.131705 
L 338.634197 -116.827096 
L 338.381406 -114.522487 
L 338.093918 -112.217878 
L 337.766703 -109.913269 
L 337.39698 -107.60866 
L 336.984436 -105.304051 
L 336.531274 -102.999442 
L 336.04209 -100.694833 
L 335.523576 -98.390224 
L 334.984076 -96.085615 
L 334.433052 -93.781006 
L 333.880485 -91.476397 
L 333.336284 -89.171788 
L 332.809736 -86.867179 
L 332.309043 -84.56257 
L 331.840982 -82.257961 
L 331.410678 -79.953352 
L 331.021528 -77.648743 
L 330.675231 -75.344134 
L 330.371922 -73.039525 
L 330.110391 -70.734916 
L 329.888337 -68.430306 
L 329.702654 -66.125697 
z
" style="stroke: #3f3f3f; stroke-width: 1.25"/>
    </defs>
    <g clip-path="url(#p7776d448a6)">
     <use xlink:href="#mcb1293b3ce" x="0" y="360" style="fill: #e1812c; stroke: #3f3f3f; stroke-width: 1.25"/>
    </g>
   </g>
   <g id="line2d_6">
    <path d="M 102.430859 208.436388 
L 102.430859 114.978784 
" clip-path="url(#p7776d448a6)" style="fill: none; stroke: #3f3f3f; stroke-width: 1.875; stroke-linecap: round"/>
   </g>
   <g id="line2d_7">
    <path d="M 102.430859 190.34782 
L 102.430859 155.678063 
" clip-path="url(#p7776d448a6)" style="fill: none; stroke: #3f3f3f; stroke-width: 5.625; stroke-linecap: round"/>
   </g>
   <g id="line2d_8">
    <path d="M 102.430859 181.303536 
" clip-path="url(#p7776d448a6)" style="fill: none; stroke: #3f3f3f; stroke-width: 1.5; stroke-linecap: round"/>
    <defs>
     <path id="m893ad60627" d="M 2.34375 0 
L -2.34375 -0 
" style="stroke: #ffffff; stroke-width: 1.125"/>
    </defs>
    <g clip-path="url(#p7776d448a6)">
     <use xlink:href="#m893ad60627" x="102.430859" y="181.303536" style="fill: #ffffff; stroke: #ffffff; stroke-width: 1.125"/>
    </g>
   </g>
   <g id="line2d_9">
    <path d="M 167.169287 214.465911 
L 167.169287 93.875454 
" clip-path="url(#p7776d448a6)" style="fill: none; stroke: #3f3f3f; stroke-width: 1.875; stroke-linecap: round"/>
   </g>
   <g id="line2d_10">
    <path d="M 167.169287 187.333058 
L 167.169287 140.604256 
" clip-path="url(#p7776d448a6)" style="fill: none; stroke: #3f3f3f; stroke-width: 5.625; stroke-linecap: round"/>
   </g>
   <g id="line2d_11">
    <path d="M 167.169287 170.751871 
" clip-path="url(#p7776d448a6)" style="fill: none; stroke: #3f3f3f; stroke-width: 1.5; stroke-linecap: round"/>
    <g clip-path="url(#p7776d448a6)">
     <use xlink:href="#m893ad60627" x="167.169287" y="170.751871" style="fill: #ffffff; stroke: #ffffff; stroke-width: 1.125"/>
    </g>
   </g>
   <g id="line2d_12">
    <path d="M 264.276929 265.716855 
L 264.276929 117.993546 
" clip-path="url(#p7776d448a6)" style="fill: none; stroke: #3f3f3f; stroke-width: 1.875; stroke-linecap: round"/>
   </g>
   <g id="line2d_13">
    <path d="M 264.276929 206.175317 
L 264.276929 160.200206 
" clip-path="url(#p7776d448a6)" style="fill: none; stroke: #3f3f3f; stroke-width: 5.625; stroke-linecap: round"/>
   </g>
   <g id="line2d_14">
    <path d="M 264.276929 170.751871 
" clip-path="url(#p7776d448a6)" style="fill: none; stroke: #3f3f3f; stroke-width: 1.5; stroke-linecap: round"/>
    <g clip-path="url(#p7776d448a6)">
     <use xlink:href="#m893ad60627" x="264.276929" y="170.751871" style="fill: #ffffff; stroke: #ffffff; stroke-width: 1.125"/>
    </g>
   </g>
   <g id="line2d_15">
    <path d="M 329.015357 253.65781 
L 329.015357 105.9345 
" clip-path="url(#p7776d448a6)" style="fill: none; stroke: #3f3f3f; stroke-width: 1.875; stroke-linecap: round"/>
   </g>
   <g id="line2d_16">
    <path d="M 329.015357 197.131033 
L 329.015357 156.431754 
" clip-path="url(#p7776d448a6)" style="fill: none; stroke: #3f3f3f; stroke-width: 5.625; stroke-linecap: round"/>
   </g>
   <g id="line2d_17">
    <path d="M 329.015357 172.259251 
" clip-path="url(#p7776d448a6)" style="fill: none; stroke: #3f3f3f; stroke-width: 1.5; stroke-linecap: round"/>
    <g clip-path="url(#p7776d448a6)">
     <use xlink:href="#m893ad60627" x="329.015357" y="172.259251" style="fill: #ffffff; stroke: #ffffff; stroke-width: 1.125"/>
    </g>
   </g>
   <g id="patch_3">
    <path d="M 53.877038 318.04 
L 53.877038 24.72 
" style="fill: none; stroke: #cccccc; stroke-width: 0.8; stroke-linejoin: miter; stroke-linecap: square"/>
   </g>
   <g id="patch_4">
    <path d="M 53.877038 318.04 
L 377.569178 318.04 
" style="fill: none; stroke: #cccccc; stroke-width: 0.8; stroke-linejoin: miter; stroke-linecap: square"/>
   </g>
   <g id="text_10">
    <!-- sex = m -->
    <g style="fill: #262626" transform="translate(198.079358 18.72) scale(0.1 -0.1)">
     <defs>
      <path id="ArialMT-78" d="M 47 0 
L 1259 1725 
L 138 3319 
L 841 3319 
L 1350 2541 
Q 1494 2319 1581 2169 
Q 1719 2375 1834 2534 
L 2394 3319 
L 3066 3319 
L 1919 1756 
L 3153 0 
L 2463 0 
L 1781 1031 
L 1600 1309 
L 728 0 
L 47 0 
z
" transform="scale(0.015625)"/>
      <path id="ArialMT-3d" d="M 3381 2694 
L 356 2694 
L 356 3219 
L 3381 3219 
L 3381 2694 
z
M 3381 1303 
L 356 1303 
L 356 1828 
L 3381 1828 
L 3381 1303 
z
" transform="scale(0.015625)"/>
     </defs>
     <use xlink:href="#ArialMT-73"/>
     <use xlink:href="#ArialMT-65" x="50"/>
     <use xlink:href="#ArialMT-78" x="105.615234"/>
     <use xlink:href="#ArialMT-20" x="155.615234"/>
     <use xlink:href="#ArialMT-3d" x="183.398438"/>
     <use xlink:href="#ArialMT-20" x="241.796875"/>
     <use xlink:href="#ArialMT-6d" x="269.580078"/>
    </g>
   </g>
  </g>
  <g id="axes_2">
   <g id="patch_5">
    <path d="M 388.329359 318.04 
L 712.0215 318.04 
L 712.0215 24.72 
L 388.329359 24.72 
z
" style="fill: #ffffff"/>
   </g>
   <g id="matplotlib.axis_3">
    <g id="xtick_3">
     <g id="text_11">
      <!-- Control -->
      <g style="fill: #262626" transform="translate(453.135207 332.197812) scale(0.1 -0.1)">
       <use xlink:href="#ArialMT-43"/>
       <use xlink:href="#ArialMT-6f" x="72.216797"/>
       <use xlink:href="#ArialMT-6e" x="127.832031"/>
       <use xlink:href="#ArialMT-74" x="183.447266"/>
       <use xlink:href="#ArialMT-72" x="211.230469"/>
       <use xlink:href="#ArialMT-6f" x="244.53125"/>
       <use xlink:href="#ArialMT-6c" x="300.146484"/>
      </g>
     </g>
    </g>
    <g id="xtick_4">
     <g id="text_12">
      <!-- Test -->
      <g style="fill: #262626" transform="translate(621.931277 332.197812) scale(0.1 -0.1)">
       <use xlink:href="#ArialMT-54"/>
       <use xlink:href="#ArialMT-65" x="49.958984"/>
       <use xlink:href="#ArialMT-73" x="105.574219"/>
       <use xlink:href="#ArialMT-74" x="155.574219"/>
      </g>
     </g>
    </g>
    <g id="text_13">
     <!-- group -->
     <g style="fill: #262626" transform="translate(537.388711 345.225938) scale(0.1 -0.1)">
      <use xlink:href="#ArialMT-67"/>
      <use xlink:href="#ArialMT-72" x="55.615234"/>
      <use xlink:href="#ArialMT-6f" x="88.916016"/>
      <use xlink:href="#ArialMT-75" x="144.53125"/>
      <use xlink:href="#ArialMT-70" x="200.146484"/>
     </g>
    </g>
   </g>
   <g id="matplotlib.axis_4">
    <g id="ytick_6">
     <g id="line2d_18">
      <path d="M 388.329359 280.790663 
L 712.0215 280.790663 
" clip-path="url(#pc50c247648)" style="fill: none; stroke: #cccccc; stroke-width: 0.8; stroke-linecap: round"/>
     </g>
    </g>
    <g id="ytick_7">
     <g id="line2d_19">
      <path d="M 388.329359 220.495434 
L 712.0215 220.495434 
" clip-path="url(#pc50c247648)" style="fill: none; stroke: #cccccc; stroke-width: 0.8; stroke-linecap: round"/>
     </g>
    </g>
    <g id="ytick_8">
     <g id="line2d_20">
      <path d="M 388.329359 160.200206 
L 712.0215 160.200206 
" clip-path="url(#pc50c247648)" style="fill: none; stroke: #cccccc; stroke-width: 0.8; stroke-linecap: round"/>
     </g>
    </g>
    <g id="ytick_9">
     <g id="line2d_21">
      <path d="M 388.329359 99.904977 
L 712.0215 99.904977 
" clip-path="url(#pc50c247648)" style="fill: none; stroke: #cccccc; stroke-width: 0.8; stroke-linecap: round"/>
     </g>
    </g>
    <g id="ytick_10">
     <g id="line2d_22">
      <path d="M 388.329359 39.609749 
L 712.0215 39.609749 
" clip-path="url(#pc50c247648)" style="fill: none; stroke: #cccccc; stroke-width: 0.8; stroke-linecap: round"/>
     </g>
    </g>
   </g>
   <g id="PolyCollection_5">
    <defs>
     <path id="m024a7ae7ec" d="M 437.639883 -124.568987 
L 436.126478 -124.568987 
L 435.962532 -125.93654 
L 435.771217 -127.304094 
L 435.549824 -128.671648 
L 435.295748 -130.039201 
L 435.006575 -131.406755 
L 434.680165 -132.774308 
L 434.314737 -134.141862 
L 433.908954 -135.509416 
L 433.461999 -136.876969 
L 432.973642 -138.244523 
L 432.44429 -139.612077 
L 431.875021 -140.97963 
L 431.267601 -142.347184 
L 430.62447 -143.714737 
L 429.948717 -145.082291 
L 429.244022 -146.449845 
L 428.514589 -147.817398 
L 427.765055 -149.184952 
L 427.000381 -150.552506 
L 426.225744 -151.920059 
L 425.446415 -153.287613 
L 424.667638 -154.655166 
L 423.894519 -156.02272 
L 423.131915 -157.390274 
L 422.384343 -158.757827 
L 421.655906 -160.125381 
L 420.950231 -161.492934 
L 420.270435 -162.860488 
L 419.619115 -164.228042 
L 418.998353 -165.595595 
L 418.409751 -166.963149 
L 417.85448 -168.330703 
L 417.333346 -169.698256 
L 416.846872 -171.06581 
L 416.39538 -172.433363 
L 415.97908 -173.800917 
L 415.598144 -175.168471 
L 415.252774 -176.536024 
L 414.943244 -177.903578 
L 414.669914 -179.271131 
L 414.433219 -180.638685 
L 414.233619 -182.006239 
L 414.071521 -183.373792 
L 413.947175 -184.741346 
L 413.860538 -186.1089 
L 413.811144 -187.476453 
L 413.797965 -188.844007 
L 413.819292 -190.21156 
L 413.872644 -191.579114 
L 413.95473 -192.946668 
L 414.061457 -194.314221 
L 414.18801 -195.681775 
L 414.328995 -197.049329 
L 414.478654 -198.416882 
L 414.631127 -199.784436 
L 414.78077 -201.151989 
L 414.922493 -202.519543 
L 415.0521 -203.887097 
L 415.166616 -205.25465 
L 415.264563 -206.622204 
L 415.346174 -207.989757 
L 415.413518 -209.357311 
L 415.470532 -210.724865 
L 415.522932 -212.092418 
L 415.578033 -213.459972 
L 415.64446 -214.827526 
L 415.731771 -216.195079 
L 415.85002 -217.562633 
L 416.009273 -218.930186 
L 416.219115 -220.29774 
L 416.488166 -221.665294 
L 416.82364 -223.032847 
L 417.230973 -224.400401 
L 417.713533 -225.767955 
L 418.272433 -227.135508 
L 418.906448 -228.503062 
L 419.61205 -229.870615 
L 420.383536 -231.238169 
L 421.213261 -232.605723 
L 422.091942 -233.973276 
L 423.009025 -235.34083 
L 423.953087 -236.708383 
L 424.912257 -238.075937 
L 425.874631 -239.443491 
L 426.828657 -240.811044 
L 427.763494 -242.178598 
L 428.669295 -243.546152 
L 429.537448 -244.913705 
L 430.360737 -246.281259 
L 431.13344 -247.648812 
L 431.851354 -249.016366 
L 432.511774 -250.38392 
L 433.113406 -251.751473 
L 433.656244 -253.119027 
L 434.141419 -254.48658 
L 434.571024 -255.854134 
L 434.947922 -257.221688 
L 435.275571 -258.589241 
L 435.557836 -259.956795 
L 438.208525 -259.956795 
L 438.208525 -259.956795 
L 438.490789 -258.589241 
L 438.818438 -257.221688 
L 439.195337 -255.854134 
L 439.624941 -254.48658 
L 440.110117 -253.119027 
L 440.652955 -251.751473 
L 441.254586 -250.38392 
L 441.915006 -249.016366 
L 442.632921 -247.648812 
L 443.405623 -246.281259 
L 444.228913 -244.913705 
L 445.097066 -243.546152 
L 446.002867 -242.178598 
L 446.937703 -240.811044 
L 447.89173 -239.443491 
L 448.854103 -238.075937 
L 449.813273 -236.708383 
L 450.757335 -235.34083 
L 451.674418 -233.973276 
L 452.553099 -232.605723 
L 453.382824 -231.238169 
L 454.15431 -229.870615 
L 454.859912 -228.503062 
L 455.493928 -227.135508 
L 456.052827 -225.767955 
L 456.535388 -224.400401 
L 456.942721 -223.032847 
L 457.278195 -221.665294 
L 457.547245 -220.29774 
L 457.757087 -218.930186 
L 457.916341 -217.562633 
L 458.03459 -216.195079 
L 458.121901 -214.827526 
L 458.188327 -213.459972 
L 458.243429 -212.092418 
L 458.295829 -210.724865 
L 458.352842 -209.357311 
L 458.420187 -207.989757 
L 458.501798 -206.622204 
L 458.599744 -205.25465 
L 458.71426 -203.887097 
L 458.843867 -202.519543 
L 458.98559 -201.151989 
L 459.135234 -199.784436 
L 459.287707 -198.416882 
L 459.437365 -197.049329 
L 459.578351 -195.681775 
L 459.704903 -194.314221 
L 459.81163 -192.946668 
L 459.893716 -191.579114 
L 459.947069 -190.21156 
L 459.968395 -188.844007 
L 459.955217 -187.476453 
L 459.905823 -186.1089 
L 459.819186 -184.741346 
L 459.694839 -183.373792 
L 459.532742 -182.006239 
L 459.333142 -180.638685 
L 459.096447 -179.271131 
L 458.823116 -177.903578 
L 458.513586 -176.536024 
L 458.168217 -175.168471 
L 457.787281 -173.800917 
L 457.37098 -172.433363 
L 456.919489 -171.06581 
L 456.433014 -169.698256 
L 455.91188 -168.330703 
L 455.356609 -166.963149 
L 454.768007 -165.595595 
L 454.147246 -164.228042 
L 453.495926 -162.860488 
L 452.81613 -161.492934 
L 452.110454 -160.125381 
L 451.382017 -158.757827 
L 450.634446 -157.390274 
L 449.871842 -156.02272 
L 449.098722 -154.655166 
L 448.319946 -153.287613 
L 447.540616 -151.920059 
L 446.765979 -150.552506 
L 446.001306 -149.184952 
L 445.251771 -147.817398 
L 444.522339 -146.449845 
L 443.817644 -145.082291 
L 443.14189 -143.714737 
L 442.498759 -142.347184 
L 441.891339 -140.97963 
L 441.322071 -139.612077 
L 440.792719 -138.244523 
L 440.304361 -136.876969 
L 439.857406 -135.509416 
L 439.451623 -134.141862 
L 439.086195 -132.774308 
L 438.759785 -131.406755 
L 438.470613 -130.039201 
L 438.216537 -128.671648 
L 437.995143 -127.304094 
L 437.803828 -125.93654 
L 437.639883 -124.568987 
z
" style="stroke: #3f3f3f; stroke-width: 1.25"/>
    </defs>
    <g clip-path="url(#pc50c247648)">
     <use xlink:href="#m024a7ae7ec" x="0" y="360" style="fill: #3274a1; stroke: #3f3f3f; stroke-width: 1.25"/>
    </g>
   </g>
   <g id="PolyCollection_6">
    <defs>
     <path id="m7d2679cfde" d="M 502.868643 -122.455695 
L 500.374574 -122.455695 
L 500.09689 -123.957298 
L 499.772539 -125.458901 
L 499.397346 -126.960503 
L 498.967573 -128.462106 
L 498.480112 -129.963709 
L 497.932687 -131.465312 
L 497.324044 -132.966914 
L 496.654125 -134.468517 
L 495.924217 -135.97012 
L 495.137048 -137.471723 
L 494.296837 -138.973326 
L 493.409278 -140.474928 
L 492.481455 -141.976531 
L 491.521693 -143.478134 
L 490.539327 -144.979737 
L 489.544431 -146.48134 
L 488.547479 -147.982942 
L 487.558987 -149.484545 
L 486.589138 -150.986148 
L 485.647414 -152.487751 
L 484.742258 -153.989354 
L 483.880782 -155.490956 
L 483.068549 -156.992559 
L 482.309423 -158.494162 
L 481.605503 -159.995765 
L 480.957153 -161.497367 
L 480.363098 -162.99897 
L 479.820599 -164.500573 
L 479.325675 -166.002176 
L 478.873365 -167.503779 
L 478.458007 -169.005381 
L 478.073515 -170.506984 
L 477.713639 -172.008587 
L 477.372196 -173.51019 
L 477.043265 -175.011793 
L 476.72134 -176.513395 
L 476.401449 -178.014998 
L 476.079229 -179.516601 
L 475.750989 -181.018204 
L 475.413744 -182.519807 
L 475.065248 -184.021409 
L 474.704023 -185.523012 
L 474.329386 -187.024615 
L 473.941489 -188.526218 
L 473.541355 -190.02782 
L 473.130914 -191.529423 
L 472.713027 -193.031026 
L 472.291503 -194.532629 
L 471.871077 -196.034232 
L 471.457375 -197.535834 
L 471.056832 -199.037437 
L 470.676584 -200.53904 
L 470.324322 -202.040643 
L 470.008122 -203.542246 
L 469.736248 -205.043848 
L 469.51695 -206.545451 
L 469.358251 -208.047054 
L 469.267742 -209.548657 
L 469.252394 -211.050259 
L 469.318382 -212.551862 
L 469.470938 -214.053465 
L 469.714227 -215.555068 
L 470.051253 -217.056671 
L 470.483787 -218.558273 
L 471.012323 -220.059876 
L 471.636052 -221.561479 
L 472.352861 -223.063082 
L 473.159352 -224.564685 
L 474.050873 -226.066287 
L 475.021578 -227.56789 
L 476.064504 -229.069493 
L 477.17166 -230.571096 
L 478.334156 -232.072699 
L 479.542334 -233.574301 
L 480.785933 -235.075904 
L 482.054268 -236.577507 
L 483.336421 -238.07911 
L 484.621451 -239.580712 
L 485.898598 -241.082315 
L 487.15749 -242.583918 
L 488.388344 -244.085521 
L 489.582144 -245.587124 
L 490.7308 -247.088726 
L 491.827279 -248.590329 
L 492.865702 -250.091932 
L 493.84141 -251.593535 
L 494.750984 -253.095138 
L 495.592242 -254.59674 
L 496.364193 -256.098343 
L 497.066964 -257.599946 
L 497.701699 -259.101549 
L 498.270444 -260.603152 
L 498.77601 -262.104754 
L 499.221832 -263.606357 
L 499.611824 -265.10796 
L 499.950236 -266.609563 
L 500.241522 -268.111165 
L 500.490213 -269.612768 
L 500.700811 -271.114371 
L 502.542406 -271.114371 
L 502.542406 -271.114371 
L 502.753004 -269.612768 
L 503.001695 -268.111165 
L 503.292981 -266.609563 
L 503.631393 -265.10796 
L 504.021385 -263.606357 
L 504.467207 -262.104754 
L 504.972773 -260.603152 
L 505.541518 -259.101549 
L 506.176253 -257.599946 
L 506.879024 -256.098343 
L 507.650975 -254.59674 
L 508.492233 -253.095138 
L 509.401807 -251.593535 
L 510.377514 -250.091932 
L 511.415938 -248.590329 
L 512.512417 -247.088726 
L 513.661073 -245.587124 
L 514.854873 -244.085521 
L 516.085727 -242.583918 
L 517.344619 -241.082315 
L 518.621766 -239.580712 
L 519.906796 -238.07911 
L 521.188949 -236.577507 
L 522.457284 -235.075904 
L 523.700883 -233.574301 
L 524.909061 -232.072699 
L 526.071556 -230.571096 
L 527.178713 -229.069493 
L 528.221638 -227.56789 
L 529.192344 -226.066287 
L 530.083865 -224.564685 
L 530.890356 -223.063082 
L 531.607165 -221.561479 
L 532.230894 -220.059876 
L 532.75943 -218.558273 
L 533.191964 -217.056671 
L 533.52899 -215.555068 
L 533.772279 -214.053465 
L 533.924834 -212.551862 
L 533.990823 -211.050259 
L 533.975475 -209.548657 
L 533.884966 -208.047054 
L 533.726267 -206.545451 
L 533.506969 -205.043848 
L 533.235095 -203.542246 
L 532.918895 -202.040643 
L 532.566633 -200.53904 
L 532.186385 -199.037437 
L 531.785842 -197.535834 
L 531.37214 -196.034232 
L 530.951714 -194.532629 
L 530.530189 -193.031026 
L 530.112303 -191.529423 
L 529.701862 -190.02782 
L 529.301728 -188.526218 
L 528.913831 -187.024615 
L 528.539194 -185.523012 
L 528.177969 -184.021409 
L 527.829473 -182.519807 
L 527.492228 -181.018204 
L 527.163988 -179.516601 
L 526.841768 -178.014998 
L 526.521876 -176.513395 
L 526.199952 -175.011793 
L 525.871021 -173.51019 
L 525.529578 -172.008587 
L 525.169702 -170.506984 
L 524.78521 -169.005381 
L 524.369852 -167.503779 
L 523.917542 -166.002176 
L 523.422617 -164.500573 
L 522.880118 -162.99897 
L 522.286064 -161.497367 
L 521.637714 -159.995765 
L 520.933794 -158.494162 
L 520.174667 -156.992559 
L 519.362435 -155.490956 
L 518.500959 -153.989354 
L 517.595802 -152.487751 
L 516.654078 -150.986148 
L 515.68423 -149.484545 
L 514.695738 -147.982942 
L 513.698786 -146.48134 
L 512.70389 -144.979737 
L 511.721524 -143.478134 
L 510.761761 -141.976531 
L 509.833939 -140.474928 
L 508.94638 -138.973326 
L 508.106169 -137.471723 
L 507.319 -135.97012 
L 506.589092 -134.468517 
L 505.919173 -132.966914 
L 505.31053 -131.465312 
L 504.763105 -129.963709 
L 504.275644 -128.462106 
L 503.845871 -126.960503 
L 503.470678 -125.458901 
L 503.146327 -123.957298 
L 502.868643 -122.455695 
z
" style="stroke: #3f3f3f; stroke-width: 1.25"/>
    </defs>
    <g clip-path="url(#pc50c247648)">
     <use xlink:href="#m7d2679cfde" x="0" y="360" style="fill: #e1812c; stroke: #3f3f3f; stroke-width: 1.25"/>
    </g>
   </g>
   <g id="PolyCollection_7">
    <defs>
     <path id="m6587d31b7b" d="M 599.455731 -115.066118 
L 598.00277 -115.066118 
L 597.82354 -116.35158 
L 597.611488 -117.637041 
L 597.363601 -118.922503 
L 597.0773 -120.207964 
L 596.75061 -121.493426 
L 596.382326 -122.778887 
L 595.972162 -124.064349 
L 595.520866 -125.34981 
L 595.030281 -126.635272 
L 594.50336 -127.920733 
L 593.944104 -129.206195 
L 593.357425 -130.491657 
L 592.748951 -131.777118 
L 592.124751 -133.06258 
L 591.491019 -134.348041 
L 590.853724 -135.633503 
L 590.218244 -136.918964 
L 589.589023 -138.204426 
L 588.969266 -139.489887 
L 588.360706 -140.775349 
L 587.763451 -142.06081 
L 587.175936 -143.346272 
L 586.594992 -144.631734 
L 586.016012 -145.917195 
L 585.433227 -147.202657 
L 584.840061 -148.488118 
L 584.22955 -149.77358 
L 583.594797 -151.059041 
L 582.929437 -152.344503 
L 582.22807 -153.629964 
L 581.486668 -154.915426 
L 580.702892 -156.200887 
L 579.876335 -157.486349 
L 579.008672 -158.771811 
L 578.103696 -160.057272 
L 577.167268 -161.342734 
L 576.207159 -162.628195 
L 575.232819 -163.913657 
L 574.255068 -165.199118 
L 573.285736 -166.48458 
L 572.337275 -167.770041 
L 571.422341 -169.055503 
L 570.553397 -170.340964 
L 569.742326 -171.626426 
L 569.000092 -172.911887 
L 568.336455 -174.197349 
L 567.759749 -175.482811 
L 567.276737 -176.768272 
L 566.89254 -178.053734 
L 566.610647 -179.339195 
L 566.432982 -180.624657 
L 566.360037 -181.910118 
L 566.391042 -183.19558 
L 566.524163 -184.481041 
L 566.756697 -185.766503 
L 567.085273 -187.051964 
L 567.506007 -188.337426 
L 568.014637 -189.622888 
L 568.606606 -190.908349 
L 569.277096 -192.193811 
L 570.021035 -193.479272 
L 570.833056 -194.764734 
L 571.707454 -196.050195 
L 572.638129 -197.335657 
L 573.618542 -198.621118 
L 574.641707 -199.90658 
L 575.700209 -201.192041 
L 576.786274 -202.477503 
L 577.891876 -203.762965 
L 579.00889 -205.048426 
L 580.129266 -206.333888 
L 581.245222 -207.619349 
L 582.349434 -208.904811 
L 583.435204 -210.190272 
L 584.496599 -211.475734 
L 585.528541 -212.761195 
L 586.52685 -214.046657 
L 587.488228 -215.332118 
L 588.410204 -216.61758 
L 589.291036 -217.903042 
L 590.129587 -219.188503 
L 590.925193 -220.473965 
L 591.677536 -221.759426 
L 592.386527 -223.044888 
L 593.052224 -224.330349 
L 593.67477 -225.615811 
L 594.254376 -226.901272 
L 594.791324 -228.186734 
L 595.285994 -229.472195 
L 595.738915 -230.757657 
L 596.150808 -232.043119 
L 596.522637 -233.32858 
L 596.855643 -234.614042 
L 597.151365 -235.899503 
L 597.411639 -237.184965 
L 597.638576 -238.470426 
L 597.834526 -239.755888 
L 598.002022 -241.041349 
L 598.14372 -242.326811 
L 599.314781 -242.326811 
L 599.314781 -242.326811 
L 599.45648 -241.041349 
L 599.623976 -239.755888 
L 599.819925 -238.470426 
L 600.046862 -237.184965 
L 600.307136 -235.899503 
L 600.602859 -234.614042 
L 600.935865 -233.32858 
L 601.307694 -232.043119 
L 601.719586 -230.757657 
L 602.172507 -229.472195 
L 602.667178 -228.186734 
L 603.204125 -226.901272 
L 603.783732 -225.615811 
L 604.406278 -224.330349 
L 605.071974 -223.044888 
L 605.780965 -221.759426 
L 606.533308 -220.473965 
L 607.328914 -219.188503 
L 608.167465 -217.903042 
L 609.048297 -216.61758 
L 609.970273 -215.332118 
L 610.931652 -214.046657 
L 611.92996 -212.761195 
L 612.961903 -211.475734 
L 614.023297 -210.190272 
L 615.109067 -208.904811 
L 616.213279 -207.619349 
L 617.329235 -206.333888 
L 618.449611 -205.048426 
L 619.566625 -203.762965 
L 620.672228 -202.477503 
L 621.758292 -201.192041 
L 622.816795 -199.90658 
L 623.839959 -198.621118 
L 624.820373 -197.335657 
L 625.751047 -196.050195 
L 626.625445 -194.764734 
L 627.437467 -193.479272 
L 628.181405 -192.193811 
L 628.851896 -190.908349 
L 629.443864 -189.622888 
L 629.952495 -188.337426 
L 630.373229 -187.051964 
L 630.701804 -185.766503 
L 630.934339 -184.481041 
L 631.067459 -183.19558 
L 631.098465 -181.910118 
L 631.02552 -180.624657 
L 630.847854 -179.339195 
L 630.565961 -178.053734 
L 630.181764 -176.768272 
L 629.698752 -175.482811 
L 629.122046 -174.197349 
L 628.458409 -172.911887 
L 627.716176 -171.626426 
L 626.905105 -170.340964 
L 626.03616 -169.055503 
L 625.121226 -167.770041 
L 624.172765 -166.48458 
L 623.203434 -165.199118 
L 622.225682 -163.913657 
L 621.251342 -162.628195 
L 620.291233 -161.342734 
L 619.354805 -160.057272 
L 618.44983 -158.771811 
L 617.582166 -157.486349 
L 616.75561 -156.200887 
L 615.971833 -154.915426 
L 615.230431 -153.629964 
L 614.529065 -152.344503 
L 613.863704 -151.059041 
L 613.228951 -149.77358 
L 612.61844 -148.488118 
L 612.025274 -147.202657 
L 611.442489 -145.917195 
L 610.863509 -144.631734 
L 610.282565 -143.346272 
L 609.695051 -142.06081 
L 609.097795 -140.775349 
L 608.489235 -139.489887 
L 607.869479 -138.204426 
L 607.240257 -136.918964 
L 606.604777 -135.633503 
L 605.967482 -134.348041 
L 605.333751 -133.06258 
L 604.709551 -131.777118 
L 604.101077 -130.491657 
L 603.514398 -129.206195 
L 602.955141 -127.920733 
L 602.428221 -126.635272 
L 601.937636 -125.34981 
L 601.486339 -124.064349 
L 601.076176 -122.778887 
L 600.707892 -121.493426 
L 600.381201 -120.207964 
L 600.0949 -118.922503 
L 599.847013 -117.637041 
L 599.634961 -116.35158 
L 599.455731 -115.066118 
z
" style="stroke: #3f3f3f; stroke-width: 1.25"/>
    </defs>
    <g clip-path="url(#pc50c247648)">
     <use xlink:href="#m6587d31b7b" x="0" y="360" style="fill: #3274a1; stroke: #3f3f3f; stroke-width: 1.25"/>
    </g>
   </g>
   <g id="PolyCollection_8">
    <defs>
     <path id="m0f0d79efb0" d="M 664.128044 -95.740885 
L 662.807314 -95.740885 
L 662.649305 -98.025798 
L 662.461961 -100.310711 
L 662.241963 -102.595624 
L 661.986089 -104.880537 
L 661.691327 -107.16545 
L 661.354992 -109.450363 
L 660.97485 -111.735276 
L 660.549235 -114.020189 
L 660.077157 -116.305102 
L 659.558393 -118.590015 
L 658.993551 -120.874928 
L 658.384113 -123.159841 
L 657.732436 -125.444754 
L 657.041729 -127.729667 
L 656.315995 -130.01458 
L 655.55994 -132.299493 
L 654.778871 -134.584406 
L 653.978565 -136.869319 
L 653.165146 -139.154232 
L 652.344952 -141.439145 
L 651.524423 -143.724058 
L 650.710002 -146.008971 
L 649.908051 -148.293884 
L 649.124796 -150.578797 
L 648.366286 -152.86371 
L 647.638365 -155.148623 
L 646.946645 -157.433536 
L 646.296473 -159.718449 
L 645.69289 -162.003362 
L 645.140554 -164.288275 
L 644.643643 -166.573188 
L 644.205726 -168.858101 
L 643.829604 -171.143014 
L 643.51714 -173.427927 
L 643.26908 -175.71284 
L 643.084889 -177.997753 
L 642.962624 -180.282666 
L 642.898855 -182.567579 
L 642.888663 -184.852492 
L 642.925717 -187.137405 
L 643.002447 -189.422318 
L 643.110307 -191.707231 
L 643.240126 -193.992144 
L 643.382523 -196.277057 
L 643.528368 -198.56197 
L 643.669258 -200.846883 
L 643.797976 -203.131796 
L 643.908901 -205.416709 
L 643.998334 -207.701622 
L 644.064718 -209.986535 
L 644.108737 -212.271448 
L 644.133274 -214.556361 
L 644.14324 -216.841274 
L 644.145276 -219.126187 
L 644.147357 -221.4111 
L 644.158314 -223.696013 
L 644.187324 -225.980926 
L 644.243384 -228.265839 
L 644.334821 -230.550752 
L 644.468861 -232.835665 
L 644.651288 -235.120578 
L 644.886207 -237.405491 
L 645.175927 -239.690404 
L 645.520953 -241.975317 
L 645.920093 -244.26023 
L 646.370651 -246.545143 
L 646.868687 -248.830056 
L 647.409322 -251.114969 
L 647.98705 -253.399882 
L 648.596053 -255.684795 
L 649.230466 -257.969708 
L 649.884605 -260.254621 
L 650.553127 -262.539534 
L 651.231135 -264.824447 
L 651.91421 -267.10936 
L 652.598407 -269.394273 
L 653.280191 -271.679186 
L 653.95637 -273.9641 
L 654.623993 -276.249013 
L 655.280276 -278.533926 
L 655.922523 -280.818839 
L 656.548088 -283.103752 
L 657.15435 -285.388665 
L 657.738731 -287.673578 
L 658.298732 -289.958491 
L 658.831993 -292.243404 
L 659.336364 -294.528317 
L 659.809983 -296.81323 
L 660.251348 -299.098143 
L 660.659381 -301.383056 
L 661.033471 -303.667969 
L 661.373496 -305.952882 
L 661.679825 -308.237795 
L 661.953301 -310.522708 
L 662.195191 -312.807621 
L 662.407135 -315.092534 
L 662.591074 -317.377447 
L 662.749175 -319.66236 
L 662.883749 -321.947273 
L 664.051608 -321.947273 
L 664.051608 -321.947273 
L 664.186183 -319.66236 
L 664.344284 -317.377447 
L 664.528223 -315.092534 
L 664.740167 -312.807621 
L 664.982057 -310.522708 
L 665.255532 -308.237795 
L 665.561862 -305.952882 
L 665.901887 -303.667969 
L 666.275976 -301.383056 
L 666.68401 -299.098143 
L 667.125375 -296.81323 
L 667.598994 -294.528317 
L 668.103364 -292.243404 
L 668.636625 -289.958491 
L 669.196627 -287.673578 
L 669.781008 -285.388665 
L 670.38727 -283.103752 
L 671.012834 -280.818839 
L 671.655082 -278.533926 
L 672.311365 -276.249013 
L 672.978988 -273.9641 
L 673.655166 -271.679186 
L 674.336951 -269.394273 
L 675.021147 -267.10936 
L 675.704223 -264.824447 
L 676.38223 -262.539534 
L 677.050753 -260.254621 
L 677.704891 -257.969708 
L 678.339305 -255.684795 
L 678.948308 -253.399882 
L 679.526036 -251.114969 
L 680.06667 -248.830056 
L 680.564706 -246.545143 
L 681.015264 -244.26023 
L 681.414405 -241.975317 
L 681.759431 -239.690404 
L 682.04915 -237.405491 
L 682.28407 -235.120578 
L 682.466497 -232.835665 
L 682.600537 -230.550752 
L 682.691973 -228.265839 
L 682.748033 -225.980926 
L 682.777044 -223.696013 
L 682.788001 -221.4111 
L 682.790082 -219.126187 
L 682.792118 -216.841274 
L 682.802084 -214.556361 
L 682.826621 -212.271448 
L 682.87064 -209.986535 
L 682.937024 -207.701622 
L 683.026456 -205.416709 
L 683.137382 -203.131796 
L 683.2661 -200.846883 
L 683.40699 -198.56197 
L 683.552835 -196.277057 
L 683.695232 -193.992144 
L 683.825051 -191.707231 
L 683.932911 -189.422318 
L 684.00964 -187.137405 
L 684.046694 -184.852492 
L 684.036503 -182.567579 
L 683.972734 -180.282666 
L 683.850469 -177.997753 
L 683.666278 -175.71284 
L 683.418217 -173.427927 
L 683.105754 -171.143014 
L 682.729632 -168.858101 
L 682.291715 -166.573188 
L 681.794804 -164.288275 
L 681.242468 -162.003362 
L 680.638884 -159.718449 
L 679.988713 -157.433536 
L 679.296992 -155.148623 
L 678.569071 -152.86371 
L 677.810562 -150.578797 
L 677.027307 -148.293884 
L 676.225356 -146.008971 
L 675.410934 -143.724058 
L 674.590406 -141.439145 
L 673.770212 -139.154232 
L 672.956792 -136.869319 
L 672.156487 -134.584406 
L 671.375417 -132.299493 
L 670.619363 -130.01458 
L 669.893629 -127.729667 
L 669.202922 -125.444754 
L 668.551245 -123.159841 
L 667.941807 -120.874928 
L 667.376965 -118.590015 
L 666.858201 -116.305102 
L 666.386123 -114.020189 
L 665.960508 -111.735276 
L 665.580366 -109.450363 
L 665.244031 -107.16545 
L 664.949269 -104.880537 
L 664.693395 -102.595624 
L 664.473397 -100.310711 
L 664.286052 -98.025798 
L 664.128044 -95.740885 
z
" style="stroke: #3f3f3f; stroke-width: 1.25"/>
    </defs>
    <g clip-path="url(#pc50c247648)">
     <use xlink:href="#m0f0d79efb0" x="0" y="360" style="fill: #e1812c; stroke: #3f3f3f; stroke-width: 1.25"/>
    </g>
   </g>
   <g id="patch_6">
    <path d="M 469.252394 461.676348 
L 469.252394 461.676348 
L 469.252394 461.676348 
L 469.252394 461.676348 
z
" clip-path="url(#pc50c247648)" style="fill: #3274a1; stroke: #3f3f3f; stroke-width: 1.25; stroke-linejoin: miter"/>
   </g>
   <g id="patch_7">
    <path d="M 469.252394 461.676348 
L 469.252394 461.676348 
L 469.252394 461.676348 
L 469.252394 461.676348 
z
" clip-path="url(#pc50c247648)" style="fill: #e1812c; stroke: #3f3f3f; stroke-width: 1.25; stroke-linejoin: miter"/>
   </g>
   <g id="line2d_23">
    <path d="M 436.88318 205.421627 
L 436.88318 130.052591 
" clip-path="url(#pc50c247648)" style="fill: none; stroke: #3f3f3f; stroke-width: 1.875; stroke-linecap: round"/>
   </g>
   <g id="line2d_24">
    <path d="M 436.88318 185.825678 
L 436.88318 139.850566 
" clip-path="url(#pc50c247648)" style="fill: none; stroke: #3f3f3f; stroke-width: 5.625; stroke-linecap: round"/>
   </g>
   <g id="line2d_25">
    <path d="M 436.88318 164.722348 
" clip-path="url(#pc50c247648)" style="fill: none; stroke: #3f3f3f; stroke-width: 1.5; stroke-linecap: round"/>
    <g clip-path="url(#pc50c247648)">
     <use xlink:href="#m893ad60627" x="436.88318" y="164.722348" style="fill: #ffffff; stroke: #ffffff; stroke-width: 1.125"/>
    </g>
   </g>
   <g id="line2d_26">
    <path d="M 501.621608 205.421627 
L 501.621608 121.008307 
" clip-path="url(#pc50c247648)" style="fill: none; stroke: #3f3f3f; stroke-width: 1.875; stroke-linecap: round"/>
   </g>
   <g id="line2d_27">
    <path d="M 501.621608 179.796155 
L 501.621608 141.357947 
" clip-path="url(#pc50c247648)" style="fill: none; stroke: #3f3f3f; stroke-width: 5.625; stroke-linecap: round"/>
   </g>
   <g id="line2d_28">
    <path d="M 501.621608 157.185444 
" clip-path="url(#pc50c247648)" style="fill: none; stroke: #3f3f3f; stroke-width: 1.5; stroke-linecap: round"/>
    <g clip-path="url(#pc50c247648)">
     <use xlink:href="#m893ad60627" x="501.621608" y="157.185444" style="fill: #ffffff; stroke: #ffffff; stroke-width: 1.125"/>
    </g>
   </g>
   <g id="line2d_29">
    <path d="M 598.729251 220.495434 
L 598.729251 142.111637 
" clip-path="url(#pc50c247648)" style="fill: none; stroke: #3f3f3f; stroke-width: 1.875; stroke-linecap: round"/>
   </g>
   <g id="line2d_30">
    <path d="M 598.729251 191.855201 
L 598.729251 167.737109 
" clip-path="url(#pc50c247648)" style="fill: none; stroke: #3f3f3f; stroke-width: 5.625; stroke-linecap: round"/>
   </g>
   <g id="line2d_31">
    <path d="M 598.729251 179.796155 
" clip-path="url(#pc50c247648)" style="fill: none; stroke: #3f3f3f; stroke-width: 1.5; stroke-linecap: round"/>
    <g clip-path="url(#pc50c247648)">
     <use xlink:href="#m893ad60627" x="598.729251" y="179.796155" style="fill: #ffffff; stroke: #ffffff; stroke-width: 1.125"/>
    </g>
   </g>
   <g id="line2d_32">
    <path d="M 663.467679 217.480673 
L 663.467679 84.83117 
" clip-path="url(#pc50c247648)" style="fill: none; stroke: #3f3f3f; stroke-width: 1.875; stroke-linecap: round"/>
   </g>
   <g id="line2d_33">
    <path d="M 663.467679 180.549845 
L 663.467679 124.023068 
" clip-path="url(#pc50c247648)" style="fill: none; stroke: #3f3f3f; stroke-width: 5.625; stroke-linecap: round"/>
   </g>
   <g id="line2d_34">
    <path d="M 663.467679 161.707586 
" clip-path="url(#pc50c247648)" style="fill: none; stroke: #3f3f3f; stroke-width: 1.5; stroke-linecap: round"/>
    <g clip-path="url(#pc50c247648)">
     <use xlink:href="#m893ad60627" x="663.467679" y="161.707586" style="fill: #ffffff; stroke: #ffffff; stroke-width: 1.125"/>
    </g>
   </g>
   <g id="patch_8">
    <path d="M 388.329359 318.04 
L 388.329359 24.72 
" style="fill: none; stroke: #cccccc; stroke-width: 0.8; stroke-linejoin: miter; stroke-linecap: square"/>
   </g>
   <g id="patch_9">
    <path d="M 388.329359 318.04 
L 712.0215 318.04 
" style="fill: none; stroke: #cccccc; stroke-width: 0.8; stroke-linejoin: miter; stroke-linecap: square"/>
   </g>
   <g id="text_14">
    <!-- sex = f -->
    <g style="fill: #262626" transform="translate(535.307461 18.72) scale(0.1 -0.1)">
     <defs>
      <path id="ArialMT-66" d="M 556 0 
L 556 2881 
L 59 2881 
L 59 3319 
L 556 3319 
L 556 3672 
Q 556 4006 616 4169 
Q 697 4388 901 4523 
Q 1106 4659 1475 4659 
Q 1713 4659 2000 4603 
L 1916 4113 
Q 1741 4144 1584 4144 
Q 1328 4144 1222 4034 
Q 1116 3925 1116 3625 
L 1116 3319 
L 1763 3319 
L 1763 2881 
L 1116 2881 
L 1116 0 
L 556 0 
z
" transform="scale(0.015625)"/>
     </defs>
     <use xlink:href="#ArialMT-73"/>
     <use xlink:href="#ArialMT-65" x="50"/>
     <use xlink:href="#ArialMT-78" x="105.615234"/>
     <use xlink:href="#ArialMT-20" x="155.615234"/>
     <use xlink:href="#ArialMT-3d" x="183.398438"/>
     <use xlink:href="#ArialMT-20" x="241.796875"/>
     <use xlink:href="#ArialMT-66" x="269.580078"/>
    </g>
   </g>
  </g>
  <g id="legend_1">
   <g id="text_15">
    <!-- time -->
    <g style="fill: #262626" transform="translate(744.563281 168.439844) scale(0.1 -0.1)">
     <use xlink:href="#ArialMT-74"/>
     <use xlink:href="#ArialMT-69" x="27.783203"/>
     <use xlink:href="#ArialMT-6d" x="50"/>
     <use xlink:href="#ArialMT-65" x="133.300781"/>
    </g>
   </g>
   <g id="patch_10">
    <path d="M 719.167187 182.585156 
L 739.167187 182.585156 
L 739.167187 175.585156 
L 719.167187 175.585156 
z
" style="fill: #3274a1; stroke: #3f3f3f; stroke-width: 1.25; stroke-linejoin: miter"/>
   </g>
   <g id="text_16">
    <!-- initial test -->
    <g style="fill: #262626" transform="translate(747.167187 182.585156) scale(0.1 -0.1)">
     <defs>
      <path id="ArialMT-61" d="M 2588 409 
Q 2275 144 1986 34 
Q 1697 -75 1366 -75 
Q 819 -75 525 192 
Q 231 459 231 875 
Q 231 1119 342 1320 
Q 453 1522 633 1644 
Q 813 1766 1038 1828 
Q 1203 1872 1538 1913 
Q 2219 1994 2541 2106 
Q 2544 2222 2544 2253 
Q 2544 2597 2384 2738 
Q 2169 2928 1744 2928 
Q 1347 2928 1158 2789 
Q 969 2650 878 2297 
L 328 2372 
Q 403 2725 575 2942 
Q 747 3159 1072 3276 
Q 1397 3394 1825 3394 
Q 2250 3394 2515 3294 
Q 2781 3194 2906 3042 
Q 3031 2891 3081 2659 
Q 3109 2516 3109 2141 
L 3109 1391 
Q 3109 606 3145 398 
Q 3181 191 3288 0 
L 2700 0 
Q 2613 175 2588 409 
z
M 2541 1666 
Q 2234 1541 1622 1453 
Q 1275 1403 1131 1340 
Q 988 1278 909 1158 
Q 831 1038 831 891 
Q 831 666 1001 516 
Q 1172 366 1500 366 
Q 1825 366 2078 508 
Q 2331 650 2450 897 
Q 2541 1088 2541 1459 
L 2541 1666 
z
" transform="scale(0.015625)"/>
     </defs>
     <use xlink:href="#ArialMT-69"/>
     <use xlink:href="#ArialMT-6e" x="22.216797"/>
     <use xlink:href="#ArialMT-69" x="77.832031"/>
     <use xlink:href="#ArialMT-74" x="100.048828"/>
     <use xlink:href="#ArialMT-69" x="127.832031"/>
     <use xlink:href="#ArialMT-61" x="150.048828"/>
     <use xlink:href="#ArialMT-6c" x="205.664062"/>
     <use xlink:href="#ArialMT-20" x="227.880859"/>
     <use xlink:href="#ArialMT-74" x="255.664062"/>
     <use xlink:href="#ArialMT-65" x="283.447266"/>
     <use xlink:href="#ArialMT-73" x="339.0625"/>
     <use xlink:href="#ArialMT-74" x="389.0625"/>
    </g>
   </g>
   <g id="patch_11">
    <path d="M 719.167187 196.730469 
L 739.167187 196.730469 
L 739.167187 189.730469 
L 719.167187 189.730469 
z
" style="fill: #e1812c; stroke: #3f3f3f; stroke-width: 1.25; stroke-linejoin: miter"/>
   </g>
   <g id="text_17">
    <!-- final test -->
    <g style="fill: #262626" transform="translate(747.167187 196.730469) scale(0.1 -0.1)">
     <use xlink:href="#ArialMT-66"/>
     <use xlink:href="#ArialMT-69" x="27.783203"/>
     <use xlink:href="#ArialMT-6e" x="50"/>
     <use xlink:href="#ArialMT-61" x="105.615234"/>
     <use xlink:href="#ArialMT-6c" x="161.230469"/>
     <use xlink:href="#ArialMT-20" x="183.447266"/>
     <use xlink:href="#ArialMT-74" x="211.230469"/>
     <use xlink:href="#ArialMT-65" x="239.013672"/>
     <use xlink:href="#ArialMT-73" x="294.628906"/>
     <use xlink:href="#ArialMT-74" x="344.628906"/>
    </g>
   </g>
  </g>
 </g>
 <defs>
  <clipPath id="p7776d448a6">
   <rect x="53.877038" y="24.72" width="323.692141" height="293.32"/>
  </clipPath>
  <clipPath id="pc50c247648">
   <rect x="388.329359" y="24.72" width="323.692141" height="293.32"/>
  </clipPath>
 </defs>
</svg>
