<?xml version="1.0" encoding="utf-8" standalone="no"?>
<!DOCTYPE svg PUBLIC "-//W3C//DTD SVG 1.1//EN"
  "http://www.w3.org/Graphics/SVG/1.1/DTD/svg11.dtd">
<svg xmlns:xlink="http://www.w3.org/1999/xlink" width="797.85pt" height="360pt" viewBox="0 0 797.85 360" xmlns="http://www.w3.org/2000/svg" version="1.1">
 <metadata>
  <rdf:RDF xmlns:dc="http://purl.org/dc/elements/1.1/" xmlns:cc="http://creativecommons.org/ns#" xmlns:rdf="http://www.w3.org/1999/02/22-rdf-syntax-ns#">
   <cc:Work>
    <dc:type rdf:resource="http://purl.org/dc/dcmitype/StillImage"/>
    <dc:date>2024-09-11T05:52:12.502715</dc:date>
    <dc:format>image/svg+xml</dc:format>
    <dc:creator>
     <cc:Agent>
      <dc:title>Matplotlib v3.8.3, https://matplotlib.org/</dc:title>
     </cc:Agent>
    </dc:creator>
   </cc:Work>
  </rdf:RDF>
 </metadata>
 <defs>
  <style type="text/css">*{stroke-linejoin: round; stroke-linecap: butt}</style>
 </defs>
 <g id="figure_1">
  <g id="patch_1">
   <path d="M 0 360 
L 797.85 360 
L 797.85 0 
L 0 0 
z
" style="fill: #ffffff"/>
  </g>
  <g id="axes_1">
   <g id="patch_2">
    <path d="M 53.877038 318.04 
L 377.569178 318.04 
L 377.569178 24.72 
L 53.877038 24.72 
z
" style="fill: #ffffff"/>
   </g>
   <g id="matplotlib.axis_1">
    <g id="xtick_1">
     <g id="text_1">
      <!-- Test -->
      <g style="fill: #262626" transform="translate(206.55592 332.197812) scale(0.1 -0.1)">
       <defs>
        <path id="ArialMT-54" d="M 1659 0 
L 1659 4041 
L 150 4041 
L 150 4581 
L 3781 4581 
L 3781 4041 
L 2266 4041 
L 2266 0 
L 1659 0 
z
" transform="scale(0.015625)"/>
        <path id="ArialMT-65" d="M 2694 1069 
L 3275 997 
Q 3138 488 2766 206 
Q 2394 -75 1816 -75 
Q 1088 -75 661 373 
Q 234 822 234 1631 
Q 234 2469 665 2931 
Q 1097 3394 1784 3394 
Q 2450 3394 2872 2941 
Q 3294 2488 3294 1666 
Q 3294 1616 3291 1516 
L 816 1516 
Q 847 969 1125 678 
Q 1403 388 1819 388 
Q 2128 388 2347 550 
Q 2566 713 2694 1069 
z
M 847 1978 
L 2700 1978 
Q 2663 2397 2488 2606 
Q 2219 2931 1791 2931 
Q 1403 2931 1139 2672 
Q 875 2413 847 1978 
z
" transform="scale(0.015625)"/>
        <path id="ArialMT-73" d="M 197 991 
L 753 1078 
Q 800 744 1014 566 
Q 1228 388 1613 388 
Q 2000 388 2187 545 
Q 2375 703 2375 916 
Q 2375 1106 2209 1216 
Q 2094 1291 1634 1406 
Q 1016 1563 777 1677 
Q 538 1791 414 1992 
Q 291 2194 291 2438 
Q 291 2659 392 2848 
Q 494 3038 669 3163 
Q 800 3259 1026 3326 
Q 1253 3394 1513 3394 
Q 1903 3394 2198 3281 
Q 2494 3169 2634 2976 
Q 2775 2784 2828 2463 
L 2278 2388 
Q 2241 2644 2061 2787 
Q 1881 2931 1553 2931 
Q 1166 2931 1000 2803 
Q 834 2675 834 2503 
Q 834 2394 903 2306 
Q 972 2216 1119 2156 
Q 1203 2125 1616 2013 
Q 2213 1853 2448 1751 
Q 2684 1650 2818 1456 
Q 2953 1263 2953 975 
Q 2953 694 2789 445 
Q 2625 197 2315 61 
Q 2006 -75 1616 -75 
Q 969 -75 630 194 
Q 291 463 197 991 
z
" transform="scale(0.015625)"/>
        <path id="ArialMT-74" d="M 1650 503 
L 1731 6 
Q 1494 -44 1306 -44 
Q 1000 -44 831 53 
Q 663 150 594 308 
Q 525 466 525 972 
L 525 2881 
L 113 2881 
L 113 3319 
L 525 3319 
L 525 4141 
L 1084 4478 
L 1084 3319 
L 1650 3319 
L 1650 2881 
L 1084 2881 
L 1084 941 
Q 1084 700 1114 631 
Q 1144 563 1211 522 
Q 1278 481 1403 481 
Q 1497 481 1650 503 
z
" transform="scale(0.015625)"/>
       </defs>
       <use xlink:href="#ArialMT-54"/>
       <use xlink:href="#ArialMT-65" x="49.958984"/>
       <use xlink:href="#ArialMT-73" x="105.574219"/>
       <use xlink:href="#ArialMT-74" x="155.574219"/>
      </g>
     </g>
    </g>
    <g id="text_2">
     <!-- group -->
     <g style="fill: #262626" transform="translate(202.936389 345.225938) scale(0.1 -0.1)">
      <defs>
       <path id="ArialMT-67" d="M 319 -275 
L 866 -356 
Q 900 -609 1056 -725 
Q 1266 -881 1628 -881 
Q 2019 -881 2231 -725 
Q 2444 -569 2519 -288 
Q 2563 -116 2559 434 
Q 2191 0 1641 0 
Q 956 0 581 494 
Q 206 988 206 1678 
Q 206 2153 378 2554 
Q 550 2956 876 3175 
Q 1203 3394 1644 3394 
Q 2231 3394 2613 2919 
L 2613 3319 
L 3131 3319 
L 3131 450 
Q 3131 -325 2973 -648 
Q 2816 -972 2473 -1159 
Q 2131 -1347 1631 -1347 
Q 1038 -1347 672 -1080 
Q 306 -813 319 -275 
z
M 784 1719 
Q 784 1066 1043 766 
Q 1303 466 1694 466 
Q 2081 466 2343 764 
Q 2606 1063 2606 1700 
Q 2606 2309 2336 2618 
Q 2066 2928 1684 2928 
Q 1309 2928 1046 2623 
Q 784 2319 784 1719 
z
" transform="scale(0.015625)"/>
       <path id="ArialMT-72" d="M 416 0 
L 416 3319 
L 922 3319 
L 922 2816 
Q 1116 3169 1280 3281 
Q 1444 3394 1641 3394 
Q 1925 3394 2219 3213 
L 2025 2691 
Q 1819 2813 1613 2813 
Q 1428 2813 1281 2702 
Q 1134 2591 1072 2394 
Q 978 2094 978 1738 
L 978 0 
L 416 0 
z
" transform="scale(0.015625)"/>
       <path id="ArialMT-6f" d="M 213 1659 
Q 213 2581 725 3025 
Q 1153 3394 1769 3394 
Q 2453 3394 2887 2945 
Q 3322 2497 3322 1706 
Q 3322 1066 3130 698 
Q 2938 331 2570 128 
Q 2203 -75 1769 -75 
Q 1072 -75 642 372 
Q 213 819 213 1659 
z
M 791 1659 
Q 791 1022 1069 705 
Q 1347 388 1769 388 
Q 2188 388 2466 706 
Q 2744 1025 2744 1678 
Q 2744 2294 2464 2611 
Q 2184 2928 1769 2928 
Q 1347 2928 1069 2612 
Q 791 2297 791 1659 
z
" transform="scale(0.015625)"/>
       <path id="ArialMT-75" d="M 2597 0 
L 2597 488 
Q 2209 -75 1544 -75 
Q 1250 -75 995 37 
Q 741 150 617 320 
Q 494 491 444 738 
Q 409 903 409 1263 
L 409 3319 
L 972 3319 
L 972 1478 
Q 972 1038 1006 884 
Q 1059 663 1231 536 
Q 1403 409 1656 409 
Q 1909 409 2131 539 
Q 2353 669 2445 892 
Q 2538 1116 2538 1541 
L 2538 3319 
L 3100 3319 
L 3100 0 
L 2597 0 
z
" transform="scale(0.015625)"/>
       <path id="ArialMT-70" d="M 422 -1272 
L 422 3319 
L 934 3319 
L 934 2888 
Q 1116 3141 1344 3267 
Q 1572 3394 1897 3394 
Q 2322 3394 2647 3175 
Q 2972 2956 3137 2557 
Q 3303 2159 3303 1684 
Q 3303 1175 3120 767 
Q 2938 359 2589 142 
Q 2241 -75 1856 -75 
Q 1575 -75 1351 44 
Q 1128 163 984 344 
L 984 -1272 
L 422 -1272 
z
M 931 1641 
Q 931 1000 1190 694 
Q 1450 388 1819 388 
Q 2194 388 2461 705 
Q 2728 1022 2728 1688 
Q 2728 2322 2467 2637 
Q 2206 2953 1844 2953 
Q 1484 2953 1207 2617 
Q 931 2281 931 1641 
z
" transform="scale(0.015625)"/>
      </defs>
      <use xlink:href="#ArialMT-67"/>
      <use xlink:href="#ArialMT-72" x="55.615234"/>
      <use xlink:href="#ArialMT-6f" x="88.916016"/>
      <use xlink:href="#ArialMT-75" x="144.53125"/>
      <use xlink:href="#ArialMT-70" x="200.146484"/>
     </g>
    </g>
   </g>
   <g id="matplotlib.axis_2">
    <g id="ytick_1">
     <g id="line2d_1">
      <path d="M 53.877038 276.949965 
L 377.569178 276.949965 
" clip-path="url(#p04489bc446)" style="fill: none; stroke: #cccccc; stroke-width: 0.8; stroke-linecap: round"/>
     </g>
     <g id="text_3">
      <!-- 60 -->
      <g style="fill: #262626" transform="translate(35.755163 280.528871) scale(0.1 -0.1)">
       <defs>
        <path id="ArialMT-36" d="M 3184 3459 
L 2625 3416 
Q 2550 3747 2413 3897 
Q 2184 4138 1850 4138 
Q 1581 4138 1378 3988 
Q 1113 3794 959 3422 
Q 806 3050 800 2363 
Q 1003 2672 1297 2822 
Q 1591 2972 1913 2972 
Q 2475 2972 2870 2558 
Q 3266 2144 3266 1488 
Q 3266 1056 3080 686 
Q 2894 316 2569 119 
Q 2244 -78 1831 -78 
Q 1128 -78 684 439 
Q 241 956 241 2144 
Q 241 3472 731 4075 
Q 1159 4600 1884 4600 
Q 2425 4600 2770 4297 
Q 3116 3994 3184 3459 
z
M 888 1484 
Q 888 1194 1011 928 
Q 1134 663 1356 523 
Q 1578 384 1822 384 
Q 2178 384 2434 671 
Q 2691 959 2691 1453 
Q 2691 1928 2437 2201 
Q 2184 2475 1800 2475 
Q 1419 2475 1153 2201 
Q 888 1928 888 1484 
z
" transform="scale(0.015625)"/>
        <path id="ArialMT-30" d="M 266 2259 
Q 266 3072 433 3567 
Q 600 4063 929 4331 
Q 1259 4600 1759 4600 
Q 2128 4600 2406 4451 
Q 2684 4303 2865 4023 
Q 3047 3744 3150 3342 
Q 3253 2941 3253 2259 
Q 3253 1453 3087 958 
Q 2922 463 2592 192 
Q 2263 -78 1759 -78 
Q 1097 -78 719 397 
Q 266 969 266 2259 
z
M 844 2259 
Q 844 1131 1108 757 
Q 1372 384 1759 384 
Q 2147 384 2411 759 
Q 2675 1134 2675 2259 
Q 2675 3391 2411 3762 
Q 2147 4134 1753 4134 
Q 1366 4134 1134 3806 
Q 844 3388 844 2259 
z
" transform="scale(0.015625)"/>
       </defs>
       <use xlink:href="#ArialMT-36"/>
       <use xlink:href="#ArialMT-30" x="55.615234"/>
      </g>
     </g>
    </g>
    <g id="ytick_2">
     <g id="line2d_2">
      <path d="M 53.877038 232.96248 
L 377.569178 232.96248 
" clip-path="url(#p04489bc446)" style="fill: none; stroke: #cccccc; stroke-width: 0.8; stroke-linecap: round"/>
     </g>
     <g id="text_4">
      <!-- 70 -->
      <g style="fill: #262626" transform="translate(35.755163 236.541386) scale(0.1 -0.1)">
       <defs>
        <path id="ArialMT-37" d="M 303 3981 
L 303 4522 
L 3269 4522 
L 3269 4084 
Q 2831 3619 2401 2847 
Q 1972 2075 1738 1259 
Q 1569 684 1522 0 
L 944 0 
Q 953 541 1156 1306 
Q 1359 2072 1739 2783 
Q 2119 3494 2547 3981 
L 303 3981 
z
" transform="scale(0.015625)"/>
       </defs>
       <use xlink:href="#ArialMT-37"/>
       <use xlink:href="#ArialMT-30" x="55.615234"/>
      </g>
     </g>
    </g>
    <g id="ytick_3">
     <g id="line2d_3">
      <path d="M 53.877038 188.974994 
L 377.569178 188.974994 
" clip-path="url(#p04489bc446)" style="fill: none; stroke: #cccccc; stroke-width: 0.8; stroke-linecap: round"/>
     </g>
     <g id="text_5">
      <!-- 80 -->
      <g style="fill: #262626" transform="translate(35.755163 192.5539) scale(0.1 -0.1)">
       <defs>
        <path id="ArialMT-38" d="M 1131 2484 
Q 781 2613 612 2850 
Q 444 3088 444 3419 
Q 444 3919 803 4259 
Q 1163 4600 1759 4600 
Q 2359 4600 2725 4251 
Q 3091 3903 3091 3403 
Q 3091 3084 2923 2848 
Q 2756 2613 2416 2484 
Q 2838 2347 3058 2040 
Q 3278 1734 3278 1309 
Q 3278 722 2862 322 
Q 2447 -78 1769 -78 
Q 1091 -78 675 323 
Q 259 725 259 1325 
Q 259 1772 486 2073 
Q 713 2375 1131 2484 
z
M 1019 3438 
Q 1019 3113 1228 2906 
Q 1438 2700 1772 2700 
Q 2097 2700 2305 2904 
Q 2513 3109 2513 3406 
Q 2513 3716 2298 3927 
Q 2084 4138 1766 4138 
Q 1444 4138 1231 3931 
Q 1019 3725 1019 3438 
z
M 838 1322 
Q 838 1081 952 856 
Q 1066 631 1291 507 
Q 1516 384 1775 384 
Q 2178 384 2440 643 
Q 2703 903 2703 1303 
Q 2703 1709 2433 1975 
Q 2163 2241 1756 2241 
Q 1359 2241 1098 1978 
Q 838 1716 838 1322 
z
" transform="scale(0.015625)"/>
       </defs>
       <use xlink:href="#ArialMT-38"/>
       <use xlink:href="#ArialMT-30" x="55.615234"/>
      </g>
     </g>
    </g>
    <g id="ytick_4">
     <g id="line2d_4">
      <path d="M 53.877038 144.987509 
L 377.569178 144.987509 
" clip-path="url(#p04489bc446)" style="fill: none; stroke: #cccccc; stroke-width: 0.8; stroke-linecap: round"/>
     </g>
     <g id="text_6">
      <!-- 90 -->
      <g style="fill: #262626" transform="translate(35.755163 148.566415) scale(0.1 -0.1)">
       <defs>
        <path id="ArialMT-39" d="M 350 1059 
L 891 1109 
Q 959 728 1153 556 
Q 1347 384 1650 384 
Q 1909 384 2104 503 
Q 2300 622 2425 820 
Q 2550 1019 2634 1356 
Q 2719 1694 2719 2044 
Q 2719 2081 2716 2156 
Q 2547 1888 2255 1720 
Q 1963 1553 1622 1553 
Q 1053 1553 659 1965 
Q 266 2378 266 3053 
Q 266 3750 677 4175 
Q 1088 4600 1706 4600 
Q 2153 4600 2523 4359 
Q 2894 4119 3086 3673 
Q 3278 3228 3278 2384 
Q 3278 1506 3087 986 
Q 2897 466 2520 194 
Q 2144 -78 1638 -78 
Q 1100 -78 759 220 
Q 419 519 350 1059 
z
M 2653 3081 
Q 2653 3566 2395 3850 
Q 2138 4134 1775 4134 
Q 1400 4134 1122 3828 
Q 844 3522 844 3034 
Q 844 2597 1108 2323 
Q 1372 2050 1759 2050 
Q 2150 2050 2401 2323 
Q 2653 2597 2653 3081 
z
" transform="scale(0.015625)"/>
       </defs>
       <use xlink:href="#ArialMT-39"/>
       <use xlink:href="#ArialMT-30" x="55.615234"/>
      </g>
     </g>
    </g>
    <g id="ytick_5">
     <g id="line2d_5">
      <path d="M 53.877038 101.000023 
L 377.569178 101.000023 
" clip-path="url(#p04489bc446)" style="fill: none; stroke: #cccccc; stroke-width: 0.8; stroke-linecap: round"/>
     </g>
     <g id="text_7">
      <!-- 100 -->
      <g style="fill: #262626" transform="translate(30.194225 104.578929) scale(0.1 -0.1)">
       <defs>
        <path id="ArialMT-31" d="M 2384 0 
L 1822 0 
L 1822 3584 
Q 1619 3391 1289 3197 
Q 959 3003 697 2906 
L 697 3450 
Q 1169 3672 1522 3987 
Q 1875 4303 2022 4600 
L 2384 4600 
L 2384 0 
z
" transform="scale(0.015625)"/>
       </defs>
       <use xlink:href="#ArialMT-31"/>
       <use xlink:href="#ArialMT-30" x="55.615234"/>
       <use xlink:href="#ArialMT-30" x="111.230469"/>
      </g>
     </g>
    </g>
    <g id="ytick_6">
     <g id="line2d_6">
      <path d="M 53.877038 57.012538 
L 377.569178 57.012538 
" clip-path="url(#p04489bc446)" style="fill: none; stroke: #cccccc; stroke-width: 0.8; stroke-linecap: round"/>
     </g>
     <g id="text_8">
      <!-- 110 -->
      <g style="fill: #262626" transform="translate(30.931725 60.591444) scale(0.1 -0.1)">
       <use xlink:href="#ArialMT-31"/>
       <use xlink:href="#ArialMT-31" x="48.240234"/>
       <use xlink:href="#ArialMT-30" x="103.855469"/>
      </g>
     </g>
    </g>
    <g id="text_9">
     <!-- Triglycerides (mg/dL) -->
     <g style="fill: #262626" transform="translate(24.089538 218.144844) rotate(-90) scale(0.1 -0.1)">
      <defs>
       <path id="ArialMT-69" d="M 425 3934 
L 425 4581 
L 988 4581 
L 988 3934 
L 425 3934 
z
M 425 0 
L 425 3319 
L 988 3319 
L 988 0 
L 425 0 
z
" transform="scale(0.015625)"/>
       <path id="ArialMT-6c" d="M 409 0 
L 409 4581 
L 972 4581 
L 972 0 
L 409 0 
z
" transform="scale(0.015625)"/>
       <path id="ArialMT-79" d="M 397 -1278 
L 334 -750 
Q 519 -800 656 -800 
Q 844 -800 956 -737 
Q 1069 -675 1141 -563 
Q 1194 -478 1313 -144 
Q 1328 -97 1363 -6 
L 103 3319 
L 709 3319 
L 1400 1397 
Q 1534 1031 1641 628 
Q 1738 1016 1872 1384 
L 2581 3319 
L 3144 3319 
L 1881 -56 
Q 1678 -603 1566 -809 
Q 1416 -1088 1222 -1217 
Q 1028 -1347 759 -1347 
Q 597 -1347 397 -1278 
z
" transform="scale(0.015625)"/>
       <path id="ArialMT-63" d="M 2588 1216 
L 3141 1144 
Q 3050 572 2676 248 
Q 2303 -75 1759 -75 
Q 1078 -75 664 370 
Q 250 816 250 1647 
Q 250 2184 428 2587 
Q 606 2991 970 3192 
Q 1334 3394 1763 3394 
Q 2303 3394 2647 3120 
Q 2991 2847 3088 2344 
L 2541 2259 
Q 2463 2594 2264 2762 
Q 2066 2931 1784 2931 
Q 1359 2931 1093 2626 
Q 828 2322 828 1663 
Q 828 994 1084 691 
Q 1341 388 1753 388 
Q 2084 388 2306 591 
Q 2528 794 2588 1216 
z
" transform="scale(0.015625)"/>
       <path id="ArialMT-64" d="M 2575 0 
L 2575 419 
Q 2259 -75 1647 -75 
Q 1250 -75 917 144 
Q 584 363 401 755 
Q 219 1147 219 1656 
Q 219 2153 384 2558 
Q 550 2963 881 3178 
Q 1213 3394 1622 3394 
Q 1922 3394 2156 3267 
Q 2391 3141 2538 2938 
L 2538 4581 
L 3097 4581 
L 3097 0 
L 2575 0 
z
M 797 1656 
Q 797 1019 1065 703 
Q 1334 388 1700 388 
Q 2069 388 2326 689 
Q 2584 991 2584 1609 
Q 2584 2291 2321 2609 
Q 2059 2928 1675 2928 
Q 1300 2928 1048 2622 
Q 797 2316 797 1656 
z
" transform="scale(0.015625)"/>
       <path id="ArialMT-20" transform="scale(0.015625)"/>
       <path id="ArialMT-28" d="M 1497 -1347 
Q 1031 -759 709 28 
Q 388 816 388 1659 
Q 388 2403 628 3084 
Q 909 3875 1497 4659 
L 1900 4659 
Q 1522 4009 1400 3731 
Q 1209 3300 1100 2831 
Q 966 2247 966 1656 
Q 966 153 1900 -1347 
L 1497 -1347 
z
" transform="scale(0.015625)"/>
       <path id="ArialMT-6d" d="M 422 0 
L 422 3319 
L 925 3319 
L 925 2853 
Q 1081 3097 1340 3245 
Q 1600 3394 1931 3394 
Q 2300 3394 2536 3241 
Q 2772 3088 2869 2813 
Q 3263 3394 3894 3394 
Q 4388 3394 4653 3120 
Q 4919 2847 4919 2278 
L 4919 0 
L 4359 0 
L 4359 2091 
Q 4359 2428 4304 2576 
Q 4250 2725 4106 2815 
Q 3963 2906 3769 2906 
Q 3419 2906 3187 2673 
Q 2956 2441 2956 1928 
L 2956 0 
L 2394 0 
L 2394 2156 
Q 2394 2531 2256 2718 
Q 2119 2906 1806 2906 
Q 1569 2906 1367 2781 
Q 1166 2656 1075 2415 
Q 984 2175 984 1722 
L 984 0 
L 422 0 
z
" transform="scale(0.015625)"/>
       <path id="ArialMT-2f" d="M 0 -78 
L 1328 4659 
L 1778 4659 
L 453 -78 
L 0 -78 
z
" transform="scale(0.015625)"/>
       <path id="ArialMT-4c" d="M 469 0 
L 469 4581 
L 1075 4581 
L 1075 541 
L 3331 541 
L 3331 0 
L 469 0 
z
" transform="scale(0.015625)"/>
       <path id="ArialMT-29" d="M 791 -1347 
L 388 -1347 
Q 1322 153 1322 1656 
Q 1322 2244 1188 2822 
Q 1081 3291 891 3722 
Q 769 4003 388 4659 
L 791 4659 
Q 1378 3875 1659 3084 
Q 1900 2403 1900 1659 
Q 1900 816 1576 28 
Q 1253 -759 791 -1347 
z
" transform="scale(0.015625)"/>
      </defs>
      <use xlink:href="#ArialMT-54"/>
      <use xlink:href="#ArialMT-72" x="57.333984"/>
      <use xlink:href="#ArialMT-69" x="90.634766"/>
      <use xlink:href="#ArialMT-67" x="112.851562"/>
      <use xlink:href="#ArialMT-6c" x="168.466797"/>
      <use xlink:href="#ArialMT-79" x="190.683594"/>
      <use xlink:href="#ArialMT-63" x="240.683594"/>
      <use xlink:href="#ArialMT-65" x="290.683594"/>
      <use xlink:href="#ArialMT-72" x="346.298828"/>
      <use xlink:href="#ArialMT-69" x="379.599609"/>
      <use xlink:href="#ArialMT-64" x="401.816406"/>
      <use xlink:href="#ArialMT-65" x="457.431641"/>
      <use xlink:href="#ArialMT-73" x="513.046875"/>
      <use xlink:href="#ArialMT-20" x="563.046875"/>
      <use xlink:href="#ArialMT-28" x="590.830078"/>
      <use xlink:href="#ArialMT-6d" x="624.130859"/>
      <use xlink:href="#ArialMT-67" x="707.431641"/>
      <use xlink:href="#ArialMT-2f" x="763.046875"/>
      <use xlink:href="#ArialMT-64" x="790.830078"/>
      <use xlink:href="#ArialMT-4c" x="846.445312"/>
      <use xlink:href="#ArialMT-29" x="902.060547"/>
     </g>
    </g>
   </g>
   <g id="PolyCollection_1">
    <defs>
     <path id="m77e02fa4e8" d="M 151.679606 -55.292727 
L 150.289753 -55.292727 
L 150.084984 -57.986208 
L 149.838852 -60.679688 
L 149.548865 -63.373168 
L 149.213991 -66.066648 
L 148.834944 -68.760129 
L 148.414327 -71.453609 
L 147.956595 -74.147089 
L 147.467792 -76.840569 
L 146.955056 -79.53405 
L 146.42591 -82.22753 
L 145.887403 -84.92101 
L 145.345162 -87.61449 
L 144.802486 -90.307971 
L 144.259582 -93.001451 
L 143.713044 -95.694931 
L 143.155666 -98.388411 
L 142.576621 -101.081892 
L 141.962003 -103.775372 
L 141.29569 -106.468852 
L 140.560417 -109.162332 
L 139.738961 -111.855813 
L 138.8153 -114.549293 
L 137.775639 -117.242773 
L 136.609208 -119.936253 
L 135.308786 -122.629734 
L 133.870928 -125.323214 
L 132.295938 -128.016694 
L 130.587613 -130.710174 
L 128.752848 -133.403655 
L 126.80114 -136.097135 
L 124.74407 -138.790615 
L 122.59478 -141.484096 
L 120.367492 -144.177576 
L 118.077068 -146.871056 
L 115.738627 -149.564536 
L 113.367249 -152.258017 
L 110.977789 -154.951497 
L 108.584839 -157.644977 
L 106.202882 -160.338457 
L 103.846681 -163.031938 
L 101.531897 -165.725418 
L 99.275907 -168.418898 
L 97.098752 -171.112378 
L 95.024071 -173.805859 
L 93.079864 -176.499339 
L 91.298882 -179.192819 
L 89.71849 -181.886299 
L 88.379854 -184.57978 
L 87.326405 -187.27326 
L 86.601618 -189.96674 
L 86.246252 -192.66022 
L 86.295277 -195.353701 
L 86.774817 -198.047181 
L 87.699422 -200.740661 
L 89.070004 -203.434141 
L 90.8727 -206.127622 
L 93.078813 -208.821102 
L 95.645869 -211.514582 
L 98.519696 -214.208062 
L 101.637313 -216.901543 
L 104.930326 -219.595023 
L 108.32849 -222.288503 
L 111.763101 -224.981983 
L 115.169933 -227.675464 
L 118.491512 -230.368944 
L 121.678634 -233.062424 
L 124.691132 -235.755904 
L 127.497994 -238.449385 
L 130.076983 -241.142865 
L 132.413962 -243.836345 
L 134.502082 -246.529826 
L 136.340997 -249.223306 
L 137.936159 -251.916786 
L 139.298239 -254.610266 
L 140.442619 -257.303747 
L 141.388894 -259.997227 
L 142.160275 -262.690707 
L 142.782844 -265.384187 
L 143.284595 -268.077668 
L 143.694275 -270.771148 
L 144.040075 -273.464628 
L 144.348278 -276.158108 
L 144.641971 -278.851589 
L 144.939975 -281.545069 
L 145.25608 -284.238549 
L 145.598703 -286.932029 
L 145.97096 -289.62551 
L 146.371169 -292.31899 
L 146.793688 -295.01247 
L 147.229996 -297.70595 
L 147.669885 -300.399431 
L 148.10264 -303.092911 
L 148.518082 -305.786391 
L 148.907402 -308.479871 
L 149.263729 -311.173352 
L 149.582423 -313.866832 
L 149.861105 -316.560312 
L 150.099486 -319.253792 
L 150.299042 -321.947273 
L 151.670317 -321.947273 
L 151.670317 -321.947273 
L 151.869873 -319.253792 
L 152.108255 -316.560312 
L 152.386937 -313.866832 
L 152.70563 -311.173352 
L 153.061958 -308.479871 
L 153.451278 -305.786391 
L 153.86672 -303.092911 
L 154.299474 -300.399431 
L 154.739364 -297.70595 
L 155.175671 -295.01247 
L 155.59819 -292.31899 
L 155.998399 -289.62551 
L 156.370657 -286.932029 
L 156.713279 -284.238549 
L 157.029385 -281.545069 
L 157.327388 -278.851589 
L 157.621082 -276.158108 
L 157.929285 -273.464628 
L 158.275085 -270.771148 
L 158.684764 -268.077668 
L 159.186515 -265.384187 
L 159.809085 -262.690707 
L 160.580466 -259.997227 
L 161.52674 -257.303747 
L 162.671121 -254.610266 
L 164.0332 -251.916786 
L 165.628362 -249.223306 
L 167.467277 -246.529826 
L 169.555398 -243.836345 
L 171.892376 -241.142865 
L 174.471365 -238.449385 
L 177.278227 -235.755904 
L 180.290726 -233.062424 
L 183.477848 -230.368944 
L 186.799427 -227.675464 
L 190.206259 -224.981983 
L 193.64087 -222.288503 
L 197.039033 -219.595023 
L 200.332046 -216.901543 
L 203.449663 -214.208062 
L 206.323491 -211.514582 
L 208.890546 -208.821102 
L 211.096659 -206.127622 
L 212.899356 -203.434141 
L 214.269938 -200.740661 
L 215.194542 -198.047181 
L 215.674083 -195.353701 
L 215.723108 -192.66022 
L 215.367741 -189.96674 
L 214.642955 -187.27326 
L 213.589505 -184.57978 
L 212.250869 -181.886299 
L 210.670477 -179.192819 
L 208.889495 -176.499339 
L 206.945288 -173.805859 
L 204.870608 -171.112378 
L 202.693453 -168.418898 
L 200.437463 -165.725418 
L 198.122678 -163.031938 
L 195.766478 -160.338457 
L 193.384521 -157.644977 
L 190.99157 -154.951497 
L 188.602111 -152.258017 
L 186.230733 -149.564536 
L 183.892291 -146.871056 
L 181.601867 -144.177576 
L 179.37458 -141.484096 
L 177.22529 -138.790615 
L 175.168219 -136.097135 
L 173.216511 -133.403655 
L 171.381746 -130.710174 
L 169.673422 -128.016694 
L 168.098431 -125.323214 
L 166.660574 -122.629734 
L 165.360151 -119.936253 
L 164.193721 -117.242773 
L 163.15406 -114.549293 
L 162.230399 -111.855813 
L 161.408942 -109.162332 
L 160.67367 -106.468852 
L 160.007357 -103.775372 
L 159.392739 -101.081892 
L 158.813693 -98.388411 
L 158.256315 -95.694931 
L 157.709778 -93.001451 
L 157.166874 -90.307971 
L 156.624198 -87.61449 
L 156.081956 -84.92101 
L 155.543449 -82.22753 
L 155.014304 -79.53405 
L 154.501567 -76.840569 
L 154.012764 -74.147089 
L 153.555032 -71.453609 
L 153.134415 -68.760129 
L 152.755368 -66.066648 
L 152.420495 -63.373168 
L 152.130508 -60.679688 
L 151.884376 -57.986208 
L 151.679606 -55.292727 
z
" style="stroke: #3f3f3f; stroke-width: 1.25"/>
    </defs>
    <g clip-path="url(#p04489bc446)">
     <use xlink:href="#m77e02fa4e8" x="0" y="360" style="fill: #3274a1; stroke: #3f3f3f; stroke-width: 1.25"/>
    </g>
   </g>
   <g id="PolyCollection_2">
    <defs>
     <path id="mf5477d7526" d="M 282.286252 -86.155862 
L 278.636821 -86.155862 
L 278.113793 -88.092549 
L 277.478173 -90.029236 
L 276.71644 -91.965924 
L 275.816059 -93.902611 
L 274.766124 -95.839298 
L 273.557993 -97.775985 
L 272.185871 -99.712672 
L 270.647306 -101.649359 
L 268.94356 -103.586047 
L 267.079825 -105.522734 
L 265.065276 -107.459421 
L 262.912959 -109.396108 
L 260.639521 -111.332795 
L 258.264792 -113.269482 
L 255.811251 -115.20617 
L 253.303391 -117.142857 
L 250.767008 -119.079544 
L 248.228428 -121.016231 
L 245.713708 -122.952918 
L 243.247819 -124.889606 
L 240.853858 -126.826293 
L 238.552306 -128.76298 
L 236.360394 -130.699667 
L 234.2916 -132.636354 
L 232.355326 -134.573041 
L 230.556795 -136.509729 
L 228.897158 -138.446416 
L 227.373833 -140.383103 
L 225.981039 -142.31979 
L 224.710479 -144.256477 
L 223.55213 -146.193164 
L 222.495083 -148.129852 
L 221.528381 -150.066539 
L 220.641814 -152.003226 
L 219.826663 -153.939913 
L 219.076368 -155.8766 
L 218.387125 -157.813287 
L 217.758413 -159.749975 
L 217.193432 -161.686662 
L 216.69943 -163.623349 
L 216.287874 -165.560036 
L 215.97441 -167.496723 
L 215.778562 -169.433411 
L 215.723108 -171.370098 
L 215.833122 -173.306785 
L 216.134689 -175.243472 
L 216.653352 -177.180159 
L 217.412387 -179.116846 
L 218.431035 -181.053534 
L 219.722856 -182.990221 
L 221.294336 -184.926908 
L 223.143902 -186.863595 
L 225.261423 -188.800282 
L 227.628245 -190.736969 
L 230.217753 -192.673657 
L 232.996391 -194.610344 
L 235.925039 -196.547031 
L 238.960616 -198.483718 
L 242.05778 -200.420405 
L 245.170595 -202.357093 
L 248.254069 -204.29378 
L 251.265496 -206.230467 
L 254.165572 -208.167154 
L 256.919279 -210.103841 
L 259.496563 -212.040528 
L 261.872831 -213.977216 
L 264.029308 -215.913903 
L 265.953263 -217.85059 
L 267.638136 -219.787277 
L 269.083542 -221.723964 
L 270.295148 -223.660651 
L 271.284389 -225.597339 
L 272.068013 -227.534026 
L 272.667421 -229.470713 
L 273.107809 -231.4074 
L 273.417127 -233.344087 
L 273.624885 -235.280775 
L 273.76087 -237.217462 
L 273.853846 -239.154149 
L 273.930305 -241.090836 
L 274.013374 -243.027523 
L 274.121938 -244.96421 
L 274.270043 -246.900898 
L 274.466626 -248.837585 
L 274.715564 -250.774272 
L 275.016047 -252.710959 
L 275.363209 -254.647646 
L 275.74897 -256.584333 
L 276.163 -258.521021 
L 276.593717 -260.457708 
L 277.02925 -262.394395 
L 277.458284 -264.331082 
L 277.87075 -266.267769 
L 278.258306 -268.204456 
L 278.61463 -270.141144 
L 278.935505 -272.077831 
L 279.218743 -274.014518 
L 279.463977 -275.951205 
L 279.672361 -277.887892 
L 281.250711 -277.887892 
L 281.250711 -277.887892 
L 281.459095 -275.951205 
L 281.704329 -274.014518 
L 281.987567 -272.077831 
L 282.308442 -270.141144 
L 282.664766 -268.204456 
L 283.052323 -266.267769 
L 283.464788 -264.331082 
L 283.893823 -262.394395 
L 284.329355 -260.457708 
L 284.760072 -258.521021 
L 285.174102 -256.584333 
L 285.559863 -254.647646 
L 285.907025 -252.710959 
L 286.207508 -250.774272 
L 286.456446 -248.837585 
L 286.653029 -246.900898 
L 286.801135 -244.96421 
L 286.909698 -243.027523 
L 286.992767 -241.090836 
L 287.069226 -239.154149 
L 287.162202 -237.217462 
L 287.298188 -235.280775 
L 287.505945 -233.344087 
L 287.815263 -231.4074 
L 288.255651 -229.470713 
L 288.855059 -227.534026 
L 289.638684 -225.597339 
L 290.627925 -223.660651 
L 291.83953 -221.723964 
L 293.284936 -219.787277 
L 294.969809 -217.85059 
L 296.893764 -215.913903 
L 299.050241 -213.977216 
L 301.42651 -212.040528 
L 304.003793 -210.103841 
L 306.7575 -208.167154 
L 309.657576 -206.230467 
L 312.669003 -204.29378 
L 315.752477 -202.357093 
L 318.865292 -200.420405 
L 321.962456 -198.483718 
L 324.998033 -196.547031 
L 327.926681 -194.610344 
L 330.705319 -192.673657 
L 333.294828 -190.736969 
L 335.661649 -188.800282 
L 337.77917 -186.863595 
L 339.628736 -184.926908 
L 341.200216 -182.990221 
L 342.492037 -181.053534 
L 343.510685 -179.116846 
L 344.26972 -177.180159 
L 344.788383 -175.243472 
L 345.08995 -173.306785 
L 345.199964 -171.370098 
L 345.14451 -169.433411 
L 344.948663 -167.496723 
L 344.635199 -165.560036 
L 344.223642 -163.623349 
L 343.72964 -161.686662 
L 343.164659 -159.749975 
L 342.535948 -157.813287 
L 341.846705 -155.8766 
L 341.096409 -153.939913 
L 340.281258 -152.003226 
L 339.394691 -150.066539 
L 338.427989 -148.129852 
L 337.370942 -146.193164 
L 336.212593 -144.256477 
L 334.942033 -142.31979 
L 333.549239 -140.383103 
L 332.025915 -138.446416 
L 330.366277 -136.509729 
L 328.567746 -134.573041 
L 326.631472 -132.636354 
L 324.562678 -130.699667 
L 322.370766 -128.76298 
L 320.069215 -126.826293 
L 317.675253 -124.889606 
L 315.209364 -122.952918 
L 312.694644 -121.016231 
L 310.156064 -119.079544 
L 307.619681 -117.142857 
L 305.111822 -115.20617 
L 302.658281 -113.269482 
L 300.283551 -111.332795 
L 298.010113 -109.396108 
L 295.857797 -107.459421 
L 293.843247 -105.522734 
L 291.979512 -103.586047 
L 290.275766 -101.649359 
L 288.737201 -99.712672 
L 287.365079 -97.775985 
L 286.156948 -95.839298 
L 285.107014 -93.902611 
L 284.206633 -91.965924 
L 283.444899 -90.029236 
L 282.809279 -88.092549 
L 282.286252 -86.155862 
z
" style="stroke: #3f3f3f; stroke-width: 1.25"/>
    </defs>
    <g clip-path="url(#p04489bc446)">
     <use xlink:href="#mf5477d7526" x="0" y="360" style="fill: #e1812c; stroke: #3f3f3f; stroke-width: 1.25"/>
    </g>
   </g>
   <g id="line2d_7">
    <path d="M 150.98468 232.96248 
L 150.98468 118.595017 
" clip-path="url(#p04489bc446)" style="fill: none; stroke: #3f3f3f; stroke-width: 1.875; stroke-linecap: round"/>
   </g>
   <g id="line2d_8">
    <path d="M 150.98468 194.47343 
L 150.98468 153.785006 
" clip-path="url(#p04489bc446)" style="fill: none; stroke: #3f3f3f; stroke-width: 5.625; stroke-linecap: round"/>
   </g>
   <g id="line2d_9">
    <path d="M 150.98468 166.981251 
" clip-path="url(#p04489bc446)" style="fill: none; stroke: #3f3f3f; stroke-width: 1.5; stroke-linecap: round"/>
    <defs>
     <path id="mfa0ae3e771" d="M 2.34375 0 
L -2.34375 -0 
" style="stroke: #ffffff; stroke-width: 1.125"/>
    </defs>
    <g clip-path="url(#p04489bc446)">
     <use xlink:href="#mfa0ae3e771" x="150.98468" y="166.981251" style="fill: #ffffff; stroke: #ffffff; stroke-width: 1.125"/>
    </g>
   </g>
   <g id="line2d_10">
    <path d="M 280.461536 241.759977 
L 280.461536 114.196269 
" clip-path="url(#p04489bc446)" style="fill: none; stroke: #3f3f3f; stroke-width: 1.875; stroke-linecap: round"/>
   </g>
   <g id="line2d_11">
    <path d="M 280.461536 219.766234 
L 280.461536 174.679061 
" clip-path="url(#p04489bc446)" style="fill: none; stroke: #3f3f3f; stroke-width: 5.625; stroke-linecap: round"/>
   </g>
   <g id="line2d_12">
    <path d="M 280.461536 195.573117 
" clip-path="url(#p04489bc446)" style="fill: none; stroke: #3f3f3f; stroke-width: 1.5; stroke-linecap: round"/>
    <g clip-path="url(#p04489bc446)">
     <use xlink:href="#mfa0ae3e771" x="280.461536" y="195.573117" style="fill: #ffffff; stroke: #ffffff; stroke-width: 1.125"/>
    </g>
   </g>
   <g id="patch_3">
    <path d="M 53.877038 318.04 
L 53.877038 24.72 
" style="fill: none; stroke: #cccccc; stroke-width: 0.8; stroke-linejoin: miter; stroke-linecap: square"/>
   </g>
   <g id="patch_4">
    <path d="M 53.877038 318.04 
L 377.569178 318.04 
" style="fill: none; stroke: #cccccc; stroke-width: 0.8; stroke-linejoin: miter; stroke-linecap: square"/>
   </g>
   <g id="text_10">
    <!-- sex = m -->
    <g style="fill: #262626" transform="translate(198.079358 18.72) scale(0.1 -0.1)">
     <defs>
      <path id="ArialMT-78" d="M 47 0 
L 1259 1725 
L 138 3319 
L 841 3319 
L 1350 2541 
Q 1494 2319 1581 2169 
Q 1719 2375 1834 2534 
L 2394 3319 
L 3066 3319 
L 1919 1756 
L 3153 0 
L 2463 0 
L 1781 1031 
L 1600 1309 
L 728 0 
L 47 0 
z
" transform="scale(0.015625)"/>
      <path id="ArialMT-3d" d="M 3381 2694 
L 356 2694 
L 356 3219 
L 3381 3219 
L 3381 2694 
z
M 3381 1303 
L 356 1303 
L 356 1828 
L 3381 1828 
L 3381 1303 
z
" transform="scale(0.015625)"/>
     </defs>
     <use xlink:href="#ArialMT-73"/>
     <use xlink:href="#ArialMT-65" x="50"/>
     <use xlink:href="#ArialMT-78" x="105.615234"/>
     <use xlink:href="#ArialMT-20" x="155.615234"/>
     <use xlink:href="#ArialMT-3d" x="183.398438"/>
     <use xlink:href="#ArialMT-20" x="241.796875"/>
     <use xlink:href="#ArialMT-6d" x="269.580078"/>
    </g>
   </g>
  </g>
  <g id="axes_2">
   <g id="patch_5">
    <path d="M 388.329359 318.04 
L 712.0215 318.04 
L 712.0215 24.72 
L 388.329359 24.72 
z
" style="fill: #ffffff"/>
   </g>
   <g id="matplotlib.axis_3">
    <g id="xtick_2">
     <g id="text_11">
      <!-- Test -->
      <g style="fill: #262626" transform="translate(541.008242 332.197812) scale(0.1 -0.1)">
       <use xlink:href="#ArialMT-54"/>
       <use xlink:href="#ArialMT-65" x="49.958984"/>
       <use xlink:href="#ArialMT-73" x="105.574219"/>
       <use xlink:href="#ArialMT-74" x="155.574219"/>
      </g>
     </g>
    </g>
    <g id="text_12">
     <!-- group -->
     <g style="fill: #262626" transform="translate(537.388711 345.225938) scale(0.1 -0.1)">
      <use xlink:href="#ArialMT-67"/>
      <use xlink:href="#ArialMT-72" x="55.615234"/>
      <use xlink:href="#ArialMT-6f" x="88.916016"/>
      <use xlink:href="#ArialMT-75" x="144.53125"/>
      <use xlink:href="#ArialMT-70" x="200.146484"/>
     </g>
    </g>
   </g>
   <g id="matplotlib.axis_4">
    <g id="ytick_7">
     <g id="line2d_13">
      <path d="M 388.329359 276.949965 
L 712.0215 276.949965 
" clip-path="url(#pd42d990b43)" style="fill: none; stroke: #cccccc; stroke-width: 0.8; stroke-linecap: round"/>
     </g>
    </g>
    <g id="ytick_8">
     <g id="line2d_14">
      <path d="M 388.329359 232.96248 
L 712.0215 232.96248 
" clip-path="url(#pd42d990b43)" style="fill: none; stroke: #cccccc; stroke-width: 0.8; stroke-linecap: round"/>
     </g>
    </g>
    <g id="ytick_9">
     <g id="line2d_15">
      <path d="M 388.329359 188.974994 
L 712.0215 188.974994 
" clip-path="url(#pd42d990b43)" style="fill: none; stroke: #cccccc; stroke-width: 0.8; stroke-linecap: round"/>
     </g>
    </g>
    <g id="ytick_10">
     <g id="line2d_16">
      <path d="M 388.329359 144.987509 
L 712.0215 144.987509 
" clip-path="url(#pd42d990b43)" style="fill: none; stroke: #cccccc; stroke-width: 0.8; stroke-linecap: round"/>
     </g>
    </g>
    <g id="ytick_11">
     <g id="line2d_17">
      <path d="M 388.329359 101.000023 
L 712.0215 101.000023 
" clip-path="url(#pd42d990b43)" style="fill: none; stroke: #cccccc; stroke-width: 0.8; stroke-linecap: round"/>
     </g>
    </g>
    <g id="ytick_12">
     <g id="line2d_18">
      <path d="M 388.329359 57.012538 
L 712.0215 57.012538 
" clip-path="url(#pd42d990b43)" style="fill: none; stroke: #cccccc; stroke-width: 0.8; stroke-linecap: round"/>
     </g>
    </g>
   </g>
   <g id="PolyCollection_3">
    <defs>
     <path id="m89f5de1849" d="M 491.04338 -105.109351 
L 479.830623 -105.109351 
L 478.682907 -106.885298 
L 477.362332 -108.661246 
L 475.857031 -110.437193 
L 474.157373 -112.21314 
L 472.256657 -113.989088 
L 470.151812 -115.765035 
L 467.844057 -117.540983 
L 465.339488 -119.31693 
L 462.649562 -121.092878 
L 459.791417 -122.868825 
L 456.788018 -124.644772 
L 453.668081 -126.42072 
L 450.465761 -128.196667 
L 447.220094 -129.972615 
L 443.97419 -131.748562 
L 440.774196 -133.52451 
L 437.668058 -135.300457 
L 434.704119 -137.076404 
L 431.929609 -138.852352 
L 429.389096 -140.628299 
L 427.122949 -142.404247 
L 425.165904 -144.180194 
L 423.545789 -145.956142 
L 422.282467 -147.732089 
L 421.387072 -149.508036 
L 420.861554 -151.283984 
L 420.698573 -153.059931 
L 420.881754 -154.835879 
L 421.386284 -156.611826 
L 422.179839 -158.387774 
L 423.223799 -160.163721 
L 424.474685 -161.939668 
L 425.885776 -163.715616 
L 427.408825 -165.491563 
L 428.995791 -167.267511 
L 430.600533 -169.043458 
L 432.18038 -170.819406 
L 433.697518 -172.595353 
L 435.120141 -174.371301 
L 436.423319 -176.147248 
L 437.589564 -177.923195 
L 438.609058 -179.699143 
L 439.479567 -181.47509 
L 440.206036 -183.251038 
L 440.799897 -185.026985 
L 441.278137 -186.802933 
L 441.662163 -188.57888 
L 441.976532 -190.354827 
L 442.247603 -192.130775 
L 442.502175 -193.906722 
L 442.766179 -195.68267 
L 443.063486 -197.458617 
L 443.414875 -199.234565 
L 443.837216 -201.010512 
L 444.342895 -202.786459 
L 444.9395 -204.562407 
L 445.629775 -206.338354 
L 446.411832 -208.114302 
L 447.279601 -209.890249 
L 448.223467 -211.666197 
L 449.231081 -213.442144 
L 450.288253 -215.218091 
L 451.379897 -216.994039 
L 452.490968 -218.769986 
L 453.607319 -220.545934 
L 454.716453 -222.321881 
L 455.808113 -224.097829 
L 456.874689 -225.873776 
L 457.911437 -227.649723 
L 458.916482 -229.425671 
L 459.890649 -231.201618 
L 460.83712 -232.977566 
L 461.760956 -234.753513 
L 462.668537 -236.529461 
L 463.566938 -238.305408 
L 464.463305 -240.081355 
L 465.36427 -241.857303 
L 466.27543 -243.63325 
L 467.200929 -245.409198 
L 468.143168 -247.185145 
L 469.102636 -248.961093 
L 470.077878 -250.73704 
L 471.065599 -252.512988 
L 472.060855 -254.288935 
L 473.057357 -256.064882 
L 474.047819 -257.84083 
L 475.024352 -259.616777 
L 475.97886 -261.392725 
L 476.903426 -263.168672 
L 477.790657 -264.94462 
L 478.633976 -266.720567 
L 479.427847 -268.496514 
L 480.167934 -270.272462 
L 480.851182 -272.048409 
L 481.475834 -273.824357 
L 482.041385 -275.600304 
L 482.548492 -277.376252 
L 482.998831 -279.152199 
L 483.394943 -280.928146 
L 487.47906 -280.928146 
L 487.47906 -280.928146 
L 487.875172 -279.152199 
L 488.325511 -277.376252 
L 488.832617 -275.600304 
L 489.398169 -273.824357 
L 490.022821 -272.048409 
L 490.706068 -270.272462 
L 491.446155 -268.496514 
L 492.240027 -266.720567 
L 493.083346 -264.94462 
L 493.970577 -263.168672 
L 494.895143 -261.392725 
L 495.849651 -259.616777 
L 496.826183 -257.84083 
L 497.816646 -256.064882 
L 498.813148 -254.288935 
L 499.808404 -252.512988 
L 500.796124 -250.73704 
L 501.771367 -248.961093 
L 502.730834 -247.185145 
L 503.673073 -245.409198 
L 504.598573 -243.63325 
L 505.509733 -241.857303 
L 506.410698 -240.081355 
L 507.307065 -238.305408 
L 508.205465 -236.529461 
L 509.113046 -234.753513 
L 510.036883 -232.977566 
L 510.983353 -231.201618 
L 511.957521 -229.425671 
L 512.962566 -227.649723 
L 513.999313 -225.873776 
L 515.06589 -224.097829 
L 516.157549 -222.321881 
L 517.266684 -220.545934 
L 518.383035 -218.769986 
L 519.494106 -216.994039 
L 520.58575 -215.218091 
L 521.642921 -213.442144 
L 522.650535 -211.666197 
L 523.594402 -209.890249 
L 524.46217 -208.114302 
L 525.244228 -206.338354 
L 525.934503 -204.562407 
L 526.531108 -202.786459 
L 527.036787 -201.010512 
L 527.459128 -199.234565 
L 527.810517 -197.458617 
L 528.107824 -195.68267 
L 528.371828 -193.906722 
L 528.6264 -192.130775 
L 528.897471 -190.354827 
L 529.21184 -188.57888 
L 529.595866 -186.802933 
L 530.074106 -185.026985 
L 530.667967 -183.251038 
L 531.394435 -181.47509 
L 532.264945 -179.699143 
L 533.284439 -177.923195 
L 534.450684 -176.147248 
L 535.753862 -174.371301 
L 537.176484 -172.595353 
L 538.693622 -170.819406 
L 540.27347 -169.043458 
L 541.878212 -167.267511 
L 543.465178 -165.491563 
L 544.988227 -163.715616 
L 546.399318 -161.939668 
L 547.650204 -160.163721 
L 548.694163 -158.387774 
L 549.487719 -156.611826 
L 549.992249 -154.835879 
L 550.17543 -153.059931 
L 550.012449 -151.283984 
L 549.486931 -149.508036 
L 548.591536 -147.732089 
L 547.328214 -145.956142 
L 545.708098 -144.180194 
L 543.751054 -142.404247 
L 541.484907 -140.628299 
L 538.944394 -138.852352 
L 536.169884 -137.076404 
L 533.205945 -135.300457 
L 530.099807 -133.52451 
L 526.899813 -131.748562 
L 523.653909 -129.972615 
L 520.408241 -128.196667 
L 517.205922 -126.42072 
L 514.085985 -124.644772 
L 511.082586 -122.868825 
L 508.224441 -121.092878 
L 505.534515 -119.31693 
L 503.029946 -117.540983 
L 500.72219 -115.765035 
L 498.617345 -113.989088 
L 496.71663 -112.21314 
L 495.016971 -110.437193 
L 493.511671 -108.661246 
L 492.191096 -106.885298 
L 491.04338 -105.109351 
z
" style="stroke: #3f3f3f; stroke-width: 1.25"/>
    </defs>
    <g clip-path="url(#pd42d990b43)">
     <use xlink:href="#m89f5de1849" x="0" y="360" style="fill: #3274a1; stroke: #3f3f3f; stroke-width: 1.25"/>
    </g>
   </g>
   <g id="PolyCollection_4">
    <defs>
     <path id="m0873182d8e" d="M 619.475922 -79.869514 
L 610.351794 -79.869514 
L 609.363956 -81.666608 
L 608.216984 -83.463701 
L 606.898167 -85.260794 
L 605.396583 -87.057887 
L 603.703763 -88.854981 
L 601.814351 -90.652074 
L 599.726739 -92.449167 
L 597.443637 -94.24626 
L 594.972546 -96.043354 
L 592.326088 -97.840447 
L 589.52217 -99.63754 
L 586.583957 -101.434634 
L 583.539628 -103.231727 
L 580.421925 -105.02882 
L 577.267484 -106.825913 
L 574.11598 -108.623007 
L 571.00911 -110.4201 
L 567.989452 -112.217193 
L 565.099256 -114.014287 
L 562.379212 -115.81138 
L 559.867251 -117.608473 
L 557.597436 -119.405566 
L 555.598988 -121.20266 
L 553.89548 -122.999753 
L 552.504243 -124.796846 
L 551.435987 -126.59394 
L 550.69466 -128.391033 
L 550.27752 -130.188126 
L 550.17543 -131.985219 
L 550.373334 -133.782313 
L 550.850903 -135.579406 
L 551.583303 -137.376499 
L 552.542062 -139.173592 
L 553.696007 -140.970686 
L 555.012225 -142.767779 
L 556.457029 -144.564872 
L 557.996896 -146.361966 
L 559.59936 -148.159059 
L 561.233823 -149.956152 
L 562.87228 -151.753245 
L 564.489928 -153.550339 
L 566.065646 -155.347432 
L 567.58234 -157.144525 
L 569.027133 -158.941619 
L 570.391399 -160.738712 
L 571.670644 -162.535805 
L 572.864236 -164.332898 
L 573.974996 -166.129992 
L 575.00867 -167.927085 
L 575.97331 -169.724178 
L 576.878599 -171.521271 
L 577.735138 -173.318365 
L 578.553762 -175.115458 
L 579.344893 -176.912551 
L 580.117992 -178.709645 
L 580.881119 -180.506738 
L 581.640633 -182.303831 
L 582.401045 -184.100924 
L 583.165023 -185.898018 
L 583.933543 -187.695111 
L 584.706155 -189.492204 
L 585.481356 -191.289298 
L 586.257019 -193.086391 
L 587.030837 -194.883484 
L 587.80076 -196.680577 
L 588.565366 -198.477671 
L 589.324154 -200.274764 
L 590.077724 -202.071857 
L 590.827833 -203.86895 
L 591.577332 -205.666044 
L 592.329979 -207.463137 
L 593.090164 -209.26023 
L 593.862551 -211.057324 
L 594.651686 -212.854417 
L 595.461593 -214.65151 
L 596.295402 -216.448603 
L 597.155023 -218.245697 
L 598.040904 -220.04279 
L 598.951893 -221.839883 
L 599.885189 -223.636977 
L 600.836416 -225.43407 
L 601.799782 -227.231163 
L 602.76833 -229.028256 
L 603.734247 -230.82535 
L 604.689215 -232.622443 
L 605.624782 -234.419536 
L 606.532712 -236.216629 
L 607.405326 -238.013723 
L 608.235777 -239.810816 
L 609.018275 -241.607909 
L 609.74825 -243.405003 
L 610.422429 -245.202096 
L 611.038864 -246.999189 
L 611.596889 -248.796282 
L 612.097023 -250.593376 
L 612.540842 -252.390469 
L 612.930811 -254.187562 
L 613.27011 -255.984656 
L 613.562449 -257.781749 
L 616.265267 -257.781749 
L 616.265267 -257.781749 
L 616.557606 -255.984656 
L 616.896905 -254.187562 
L 617.286874 -252.390469 
L 617.730692 -250.593376 
L 618.230827 -248.796282 
L 618.788851 -246.999189 
L 619.405287 -245.202096 
L 620.079466 -243.405003 
L 620.80944 -241.607909 
L 621.591939 -239.810816 
L 622.422389 -238.013723 
L 623.295003 -236.216629 
L 624.202934 -234.419536 
L 625.1385 -232.622443 
L 626.093469 -230.82535 
L 627.059386 -229.028256 
L 628.027934 -227.231163 
L 628.9913 -225.43407 
L 629.942526 -223.636977 
L 630.875823 -221.839883 
L 631.786811 -220.04279 
L 632.672693 -218.245697 
L 633.532313 -216.448603 
L 634.366122 -214.65151 
L 635.17603 -212.854417 
L 635.965164 -211.057324 
L 636.737551 -209.26023 
L 637.497736 -207.463137 
L 638.250384 -205.666044 
L 638.999883 -203.86895 
L 639.749992 -202.071857 
L 640.503562 -200.274764 
L 641.26235 -198.477671 
L 642.026956 -196.680577 
L 642.796878 -194.883484 
L 643.570696 -193.086391 
L 644.346359 -191.289298 
L 645.121561 -189.492204 
L 645.894173 -187.695111 
L 646.662692 -185.898018 
L 647.426671 -184.100924 
L 648.187083 -182.303831 
L 648.946596 -180.506738 
L 649.709723 -178.709645 
L 650.482822 -176.912551 
L 651.273954 -175.115458 
L 652.092577 -173.318365 
L 652.949116 -171.521271 
L 653.854405 -169.724178 
L 654.819046 -167.927085 
L 655.852719 -166.129992 
L 656.963479 -164.332898 
L 658.157072 -162.535805 
L 659.436317 -160.738712 
L 660.800583 -158.941619 
L 662.245376 -157.144525 
L 663.76207 -155.347432 
L 665.337788 -153.550339 
L 666.955435 -151.753245 
L 668.593892 -149.956152 
L 670.228356 -148.159059 
L 671.830819 -146.361966 
L 673.370687 -144.564872 
L 674.81549 -142.767779 
L 676.131708 -140.970686 
L 677.285654 -139.173592 
L 678.244413 -137.376499 
L 678.976812 -135.579406 
L 679.454381 -133.782313 
L 679.652286 -131.985219 
L 679.550195 -130.188126 
L 679.133055 -128.391033 
L 678.391728 -126.59394 
L 677.323473 -124.796846 
L 675.932236 -122.999753 
L 674.228727 -121.20266 
L 672.230279 -119.405566 
L 669.960465 -117.608473 
L 667.448504 -115.81138 
L 664.72846 -114.014287 
L 661.838264 -112.217193 
L 658.818606 -110.4201 
L 655.711735 -108.623007 
L 652.560231 -106.825913 
L 649.40579 -105.02882 
L 646.288087 -103.231727 
L 643.243759 -101.434634 
L 640.305545 -99.63754 
L 637.501627 -97.840447 
L 634.855169 -96.043354 
L 632.384078 -94.24626 
L 630.100977 -92.449167 
L 628.013364 -90.652074 
L 626.123952 -88.854981 
L 624.431133 -87.057887 
L 622.929549 -85.260794 
L 621.610731 -83.463701 
L 620.463759 -81.666608 
L 619.475922 -79.869514 
z
" style="stroke: #3f3f3f; stroke-width: 1.25"/>
    </defs>
    <g clip-path="url(#pd42d990b43)">
     <use xlink:href="#m0873182d8e" x="0" y="360" style="fill: #e1812c; stroke: #3f3f3f; stroke-width: 1.25"/>
    </g>
   </g>
   <g id="patch_6">
    <path d="M 550.17543 540.874878 
L 550.17543 540.874878 
L 550.17543 540.874878 
L 550.17543 540.874878 
z
" clip-path="url(#pd42d990b43)" style="fill: #3274a1; stroke: #3f3f3f; stroke-width: 1.25; stroke-linejoin: miter"/>
   </g>
   <g id="patch_7">
    <path d="M 550.17543 540.874878 
L 550.17543 540.874878 
L 550.17543 540.874878 
L 550.17543 540.874878 
z
" clip-path="url(#pd42d990b43)" style="fill: #e1812c; stroke: #3f3f3f; stroke-width: 1.25; stroke-linejoin: miter"/>
   </g>
   <g id="line2d_19">
    <path d="M 485.437001 215.367485 
L 485.437001 118.595017 
" clip-path="url(#pd42d990b43)" style="fill: none; stroke: #3f3f3f; stroke-width: 1.875; stroke-linecap: round"/>
   </g>
   <g id="line2d_20">
    <path d="M 485.437001 212.068424 
L 485.437001 153.785006 
" clip-path="url(#pd42d990b43)" style="fill: none; stroke: #3f3f3f; stroke-width: 5.625; stroke-linecap: round"/>
   </g>
   <g id="line2d_21">
    <path d="M 485.437001 195.573117 
" clip-path="url(#pd42d990b43)" style="fill: none; stroke: #3f3f3f; stroke-width: 1.5; stroke-linecap: round"/>
    <g clip-path="url(#pd42d990b43)">
     <use xlink:href="#mfa0ae3e771" x="485.437001" y="195.573117" style="fill: #ffffff; stroke: #ffffff; stroke-width: 1.125"/>
    </g>
   </g>
   <g id="line2d_22">
    <path d="M 614.913858 241.759977 
L 614.913858 140.58876 
" clip-path="url(#pd42d990b43)" style="fill: none; stroke: #3f3f3f; stroke-width: 1.875; stroke-linecap: round"/>
   </g>
   <g id="line2d_23">
    <path d="M 614.913858 237.361228 
L 614.913858 182.376871 
" clip-path="url(#pd42d990b43)" style="fill: none; stroke: #3f3f3f; stroke-width: 5.625; stroke-linecap: round"/>
   </g>
   <g id="line2d_24">
    <path d="M 614.913858 217.56686 
" clip-path="url(#pd42d990b43)" style="fill: none; stroke: #3f3f3f; stroke-width: 1.5; stroke-linecap: round"/>
    <g clip-path="url(#pd42d990b43)">
     <use xlink:href="#mfa0ae3e771" x="614.913858" y="217.56686" style="fill: #ffffff; stroke: #ffffff; stroke-width: 1.125"/>
    </g>
   </g>
   <g id="patch_8">
    <path d="M 388.329359 318.04 
L 388.329359 24.72 
" style="fill: none; stroke: #cccccc; stroke-width: 0.8; stroke-linejoin: miter; stroke-linecap: square"/>
   </g>
   <g id="patch_9">
    <path d="M 388.329359 318.04 
L 712.0215 318.04 
" style="fill: none; stroke: #cccccc; stroke-width: 0.8; stroke-linejoin: miter; stroke-linecap: square"/>
   </g>
   <g id="text_13">
    <!-- sex = f -->
    <g style="fill: #262626" transform="translate(535.307461 18.72) scale(0.1 -0.1)">
     <defs>
      <path id="ArialMT-66" d="M 556 0 
L 556 2881 
L 59 2881 
L 59 3319 
L 556 3319 
L 556 3672 
Q 556 4006 616 4169 
Q 697 4388 901 4523 
Q 1106 4659 1475 4659 
Q 1713 4659 2000 4603 
L 1916 4113 
Q 1741 4144 1584 4144 
Q 1328 4144 1222 4034 
Q 1116 3925 1116 3625 
L 1116 3319 
L 1763 3319 
L 1763 2881 
L 1116 2881 
L 1116 0 
L 556 0 
z
" transform="scale(0.015625)"/>
     </defs>
     <use xlink:href="#ArialMT-73"/>
     <use xlink:href="#ArialMT-65" x="50"/>
     <use xlink:href="#ArialMT-78" x="105.615234"/>
     <use xlink:href="#ArialMT-20" x="155.615234"/>
     <use xlink:href="#ArialMT-3d" x="183.398438"/>
     <use xlink:href="#ArialMT-20" x="241.796875"/>
     <use xlink:href="#ArialMT-66" x="269.580078"/>
    </g>
   </g>
  </g>
  <g id="legend_1">
   <g id="text_14">
    <!-- time -->
    <g style="fill: #262626" transform="translate(744.563281 168.439844) scale(0.1 -0.1)">
     <use xlink:href="#ArialMT-74"/>
     <use xlink:href="#ArialMT-69" x="27.783203"/>
     <use xlink:href="#ArialMT-6d" x="50"/>
     <use xlink:href="#ArialMT-65" x="133.300781"/>
    </g>
   </g>
   <g id="patch_10">
    <path d="M 719.167187 182.585156 
L 739.167187 182.585156 
L 739.167187 175.585156 
L 719.167187 175.585156 
z
" style="fill: #3274a1; stroke: #3f3f3f; stroke-width: 1.25; stroke-linejoin: miter"/>
   </g>
   <g id="text_15">
    <!-- initial test -->
    <g style="fill: #262626" transform="translate(747.167187 182.585156) scale(0.1 -0.1)">
     <defs>
      <path id="ArialMT-6e" d="M 422 0 
L 422 3319 
L 928 3319 
L 928 2847 
Q 1294 3394 1984 3394 
Q 2284 3394 2536 3286 
Q 2788 3178 2913 3003 
Q 3038 2828 3088 2588 
Q 3119 2431 3119 2041 
L 3119 0 
L 2556 0 
L 2556 2019 
Q 2556 2363 2490 2533 
Q 2425 2703 2258 2804 
Q 2091 2906 1866 2906 
Q 1506 2906 1245 2678 
Q 984 2450 984 1813 
L 984 0 
L 422 0 
z
" transform="scale(0.015625)"/>
      <path id="ArialMT-61" d="M 2588 409 
Q 2275 144 1986 34 
Q 1697 -75 1366 -75 
Q 819 -75 525 192 
Q 231 459 231 875 
Q 231 1119 342 1320 
Q 453 1522 633 1644 
Q 813 1766 1038 1828 
Q 1203 1872 1538 1913 
Q 2219 1994 2541 2106 
Q 2544 2222 2544 2253 
Q 2544 2597 2384 2738 
Q 2169 2928 1744 2928 
Q 1347 2928 1158 2789 
Q 969 2650 878 2297 
L 328 2372 
Q 403 2725 575 2942 
Q 747 3159 1072 3276 
Q 1397 3394 1825 3394 
Q 2250 3394 2515 3294 
Q 2781 3194 2906 3042 
Q 3031 2891 3081 2659 
Q 3109 2516 3109 2141 
L 3109 1391 
Q 3109 606 3145 398 
Q 3181 191 3288 0 
L 2700 0 
Q 2613 175 2588 409 
z
M 2541 1666 
Q 2234 1541 1622 1453 
Q 1275 1403 1131 1340 
Q 988 1278 909 1158 
Q 831 1038 831 891 
Q 831 666 1001 516 
Q 1172 366 1500 366 
Q 1825 366 2078 508 
Q 2331 650 2450 897 
Q 2541 1088 2541 1459 
L 2541 1666 
z
" transform="scale(0.015625)"/>
     </defs>
     <use xlink:href="#ArialMT-69"/>
     <use xlink:href="#ArialMT-6e" x="22.216797"/>
     <use xlink:href="#ArialMT-69" x="77.832031"/>
     <use xlink:href="#ArialMT-74" x="100.048828"/>
     <use xlink:href="#ArialMT-69" x="127.832031"/>
     <use xlink:href="#ArialMT-61" x="150.048828"/>
     <use xlink:href="#ArialMT-6c" x="205.664062"/>
     <use xlink:href="#ArialMT-20" x="227.880859"/>
     <use xlink:href="#ArialMT-74" x="255.664062"/>
     <use xlink:href="#ArialMT-65" x="283.447266"/>
     <use xlink:href="#ArialMT-73" x="339.0625"/>
     <use xlink:href="#ArialMT-74" x="389.0625"/>
    </g>
   </g>
   <g id="patch_11">
    <path d="M 719.167187 196.730469 
L 739.167187 196.730469 
L 739.167187 189.730469 
L 719.167187 189.730469 
z
" style="fill: #e1812c; stroke: #3f3f3f; stroke-width: 1.25; stroke-linejoin: miter"/>
   </g>
   <g id="text_16">
    <!-- final test -->
    <g style="fill: #262626" transform="translate(747.167187 196.730469) scale(0.1 -0.1)">
     <use xlink:href="#ArialMT-66"/>
     <use xlink:href="#ArialMT-69" x="27.783203"/>
     <use xlink:href="#ArialMT-6e" x="50"/>
     <use xlink:href="#ArialMT-61" x="105.615234"/>
     <use xlink:href="#ArialMT-6c" x="161.230469"/>
     <use xlink:href="#ArialMT-20" x="183.447266"/>
     <use xlink:href="#ArialMT-74" x="211.230469"/>
     <use xlink:href="#ArialMT-65" x="239.013672"/>
     <use xlink:href="#ArialMT-73" x="294.628906"/>
     <use xlink:href="#ArialMT-74" x="344.628906"/>
    </g>
   </g>
  </g>
 </g>
 <defs>
  <clipPath id="p04489bc446">
   <rect x="53.877038" y="24.72" width="323.692141" height="293.32"/>
  </clipPath>
  <clipPath id="pd42d990b43">
   <rect x="388.329359" y="24.72" width="323.692141" height="293.32"/>
  </clipPath>
 </defs>
</svg>
