<?xml version="1.0" encoding="utf-8" standalone="no"?>
<!DOCTYPE svg PUBLIC "-//W3C//DTD SVG 1.1//EN"
  "http://www.w3.org/Graphics/SVG/1.1/DTD/svg11.dtd">
<svg xmlns:xlink="http://www.w3.org/1999/xlink" width="758.88pt" height="360pt" viewBox="0 0 758.88 360" xmlns="http://www.w3.org/2000/svg" version="1.1">
 <metadata>
  <rdf:RDF xmlns:dc="http://purl.org/dc/elements/1.1/" xmlns:cc="http://creativecommons.org/ns#" xmlns:rdf="http://www.w3.org/1999/02/22-rdf-syntax-ns#">
   <cc:Work>
    <dc:type rdf:resource="http://purl.org/dc/dcmitype/StillImage"/>
    <dc:date>2024-09-11T03:22:45.095036</dc:date>
    <dc:format>image/svg+xml</dc:format>
    <dc:creator>
     <cc:Agent>
      <dc:title>Matplotlib v3.8.3, https://matplotlib.org/</dc:title>
     </cc:Agent>
    </dc:creator>
   </cc:Work>
  </rdf:RDF>
 </metadata>
 <defs>
  <style type="text/css">*{stroke-linejoin: round; stroke-linecap: butt}</style>
 </defs>
 <g id="figure_1">
  <g id="patch_1">
   <path d="M 0 360 
L 758.88 360 
L 758.88 0 
L 0 0 
z
" style="fill: #ffffff"/>
  </g>
  <g id="axes_1">
   <g id="patch_2">
    <path d="M 57.518097 318.04 
L 379.562468 318.04 
L 379.562468 24.72 
L 57.518097 24.72 
z
" style="fill: #ffffff"/>
   </g>
   <g id="matplotlib.axis_1">
    <g id="xtick_1">
     <g id="text_1">
      <!-- Jurilovca -->
      <g style="fill: #262626" transform="translate(118.301065 332.197812) scale(0.1 -0.1)">
       <defs>
        <path id="ArialMT-4a" d="M 184 1300 
L 731 1375 
Q 753 850 928 656 
Q 1103 463 1413 463 
Q 1641 463 1806 567 
Q 1972 672 2034 851 
Q 2097 1031 2097 1425 
L 2097 4581 
L 2703 4581 
L 2703 1459 
Q 2703 884 2564 568 
Q 2425 253 2123 87 
Q 1822 -78 1416 -78 
Q 813 -78 492 269 
Q 172 616 184 1300 
z
" transform="scale(0.015625)"/>
        <path id="ArialMT-75" d="M 2597 0 
L 2597 488 
Q 2209 -75 1544 -75 
Q 1250 -75 995 37 
Q 741 150 617 320 
Q 494 491 444 738 
Q 409 903 409 1263 
L 409 3319 
L 972 3319 
L 972 1478 
Q 972 1038 1006 884 
Q 1059 663 1231 536 
Q 1403 409 1656 409 
Q 1909 409 2131 539 
Q 2353 669 2445 892 
Q 2538 1116 2538 1541 
L 2538 3319 
L 3100 3319 
L 3100 0 
L 2597 0 
z
" transform="scale(0.015625)"/>
        <path id="ArialMT-72" d="M 416 0 
L 416 3319 
L 922 3319 
L 922 2816 
Q 1116 3169 1280 3281 
Q 1444 3394 1641 3394 
Q 1925 3394 2219 3213 
L 2025 2691 
Q 1819 2813 1613 2813 
Q 1428 2813 1281 2702 
Q 1134 2591 1072 2394 
Q 978 2094 978 1738 
L 978 0 
L 416 0 
z
" transform="scale(0.015625)"/>
        <path id="ArialMT-69" d="M 425 3934 
L 425 4581 
L 988 4581 
L 988 3934 
L 425 3934 
z
M 425 0 
L 425 3319 
L 988 3319 
L 988 0 
L 425 0 
z
" transform="scale(0.015625)"/>
        <path id="ArialMT-6c" d="M 409 0 
L 409 4581 
L 972 4581 
L 972 0 
L 409 0 
z
" transform="scale(0.015625)"/>
        <path id="ArialMT-6f" d="M 213 1659 
Q 213 2581 725 3025 
Q 1153 3394 1769 3394 
Q 2453 3394 2887 2945 
Q 3322 2497 3322 1706 
Q 3322 1066 3130 698 
Q 2938 331 2570 128 
Q 2203 -75 1769 -75 
Q 1072 -75 642 372 
Q 213 819 213 1659 
z
M 791 1659 
Q 791 1022 1069 705 
Q 1347 388 1769 388 
Q 2188 388 2466 706 
Q 2744 1025 2744 1678 
Q 2744 2294 2464 2611 
Q 2184 2928 1769 2928 
Q 1347 2928 1069 2612 
Q 791 2297 791 1659 
z
" transform="scale(0.015625)"/>
        <path id="ArialMT-76" d="M 1344 0 
L 81 3319 
L 675 3319 
L 1388 1331 
Q 1503 1009 1600 663 
Q 1675 925 1809 1294 
L 2547 3319 
L 3125 3319 
L 1869 0 
L 1344 0 
z
" transform="scale(0.015625)"/>
        <path id="ArialMT-63" d="M 2588 1216 
L 3141 1144 
Q 3050 572 2676 248 
Q 2303 -75 1759 -75 
Q 1078 -75 664 370 
Q 250 816 250 1647 
Q 250 2184 428 2587 
Q 606 2991 970 3192 
Q 1334 3394 1763 3394 
Q 2303 3394 2647 3120 
Q 2991 2847 3088 2344 
L 2541 2259 
Q 2463 2594 2264 2762 
Q 2066 2931 1784 2931 
Q 1359 2931 1093 2626 
Q 828 2322 828 1663 
Q 828 994 1084 691 
Q 1341 388 1753 388 
Q 2084 388 2306 591 
Q 2528 794 2588 1216 
z
" transform="scale(0.015625)"/>
        <path id="ArialMT-61" d="M 2588 409 
Q 2275 144 1986 34 
Q 1697 -75 1366 -75 
Q 819 -75 525 192 
Q 231 459 231 875 
Q 231 1119 342 1320 
Q 453 1522 633 1644 
Q 813 1766 1038 1828 
Q 1203 1872 1538 1913 
Q 2219 1994 2541 2106 
Q 2544 2222 2544 2253 
Q 2544 2597 2384 2738 
Q 2169 2928 1744 2928 
Q 1347 2928 1158 2789 
Q 969 2650 878 2297 
L 328 2372 
Q 403 2725 575 2942 
Q 747 3159 1072 3276 
Q 1397 3394 1825 3394 
Q 2250 3394 2515 3294 
Q 2781 3194 2906 3042 
Q 3031 2891 3081 2659 
Q 3109 2516 3109 2141 
L 3109 1391 
Q 3109 606 3145 398 
Q 3181 191 3288 0 
L 2700 0 
Q 2613 175 2588 409 
z
M 2541 1666 
Q 2234 1541 1622 1453 
Q 1275 1403 1131 1340 
Q 988 1278 909 1158 
Q 831 1038 831 891 
Q 831 666 1001 516 
Q 1172 366 1500 366 
Q 1825 366 2078 508 
Q 2331 650 2450 897 
Q 2541 1088 2541 1459 
L 2541 1666 
z
" transform="scale(0.015625)"/>
       </defs>
       <use xlink:href="#ArialMT-4a"/>
       <use xlink:href="#ArialMT-75" x="50"/>
       <use xlink:href="#ArialMT-72" x="105.615234"/>
       <use xlink:href="#ArialMT-69" x="138.916016"/>
       <use xlink:href="#ArialMT-6c" x="161.132812"/>
       <use xlink:href="#ArialMT-6f" x="183.349609"/>
       <use xlink:href="#ArialMT-76" x="238.964844"/>
       <use xlink:href="#ArialMT-63" x="288.964844"/>
       <use xlink:href="#ArialMT-61" x="338.964844"/>
      </g>
     </g>
    </g>
    <g id="xtick_2">
     <g id="text_2">
      <!-- Baia -->
      <g style="fill: #262626" transform="translate(289.044344 332.197812) scale(0.1 -0.1)">
       <defs>
        <path id="ArialMT-42" d="M 469 0 
L 469 4581 
L 2188 4581 
Q 2713 4581 3030 4442 
Q 3347 4303 3526 4014 
Q 3706 3725 3706 3409 
Q 3706 3116 3547 2856 
Q 3388 2597 3066 2438 
Q 3481 2316 3704 2022 
Q 3928 1728 3928 1328 
Q 3928 1006 3792 729 
Q 3656 453 3456 303 
Q 3256 153 2954 76 
Q 2653 0 2216 0 
L 469 0 
z
M 1075 2656 
L 2066 2656 
Q 2469 2656 2644 2709 
Q 2875 2778 2992 2937 
Q 3109 3097 3109 3338 
Q 3109 3566 3000 3739 
Q 2891 3913 2687 3977 
Q 2484 4041 1991 4041 
L 1075 4041 
L 1075 2656 
z
M 1075 541 
L 2216 541 
Q 2509 541 2628 563 
Q 2838 600 2978 687 
Q 3119 775 3209 942 
Q 3300 1109 3300 1328 
Q 3300 1584 3169 1773 
Q 3038 1963 2805 2039 
Q 2572 2116 2134 2116 
L 1075 2116 
L 1075 541 
z
" transform="scale(0.015625)"/>
       </defs>
       <use xlink:href="#ArialMT-42"/>
       <use xlink:href="#ArialMT-61" x="66.699219"/>
       <use xlink:href="#ArialMT-69" x="122.314453"/>
       <use xlink:href="#ArialMT-61" x="144.53125"/>
      </g>
     </g>
    </g>
    <g id="text_3">
     <!-- location -->
     <g style="fill: #262626" transform="translate(201.30747 345.343125) scale(0.1 -0.1)">
      <defs>
       <path id="ArialMT-74" d="M 1650 503 
L 1731 6 
Q 1494 -44 1306 -44 
Q 1000 -44 831 53 
Q 663 150 594 308 
Q 525 466 525 972 
L 525 2881 
L 113 2881 
L 113 3319 
L 525 3319 
L 525 4141 
L 1084 4478 
L 1084 3319 
L 1650 3319 
L 1650 2881 
L 1084 2881 
L 1084 941 
Q 1084 700 1114 631 
Q 1144 563 1211 522 
Q 1278 481 1403 481 
Q 1497 481 1650 503 
z
" transform="scale(0.015625)"/>
       <path id="ArialMT-6e" d="M 422 0 
L 422 3319 
L 928 3319 
L 928 2847 
Q 1294 3394 1984 3394 
Q 2284 3394 2536 3286 
Q 2788 3178 2913 3003 
Q 3038 2828 3088 2588 
Q 3119 2431 3119 2041 
L 3119 0 
L 2556 0 
L 2556 2019 
Q 2556 2363 2490 2533 
Q 2425 2703 2258 2804 
Q 2091 2906 1866 2906 
Q 1506 2906 1245 2678 
Q 984 2450 984 1813 
L 984 0 
L 422 0 
z
" transform="scale(0.015625)"/>
      </defs>
      <use xlink:href="#ArialMT-6c"/>
      <use xlink:href="#ArialMT-6f" x="22.216797"/>
      <use xlink:href="#ArialMT-63" x="77.832031"/>
      <use xlink:href="#ArialMT-61" x="127.832031"/>
      <use xlink:href="#ArialMT-74" x="183.447266"/>
      <use xlink:href="#ArialMT-69" x="211.230469"/>
      <use xlink:href="#ArialMT-6f" x="233.447266"/>
      <use xlink:href="#ArialMT-6e" x="289.0625"/>
     </g>
    </g>
   </g>
   <g id="matplotlib.axis_2">
    <g id="ytick_1">
     <g id="line2d_1">
      <path d="M 57.518097 301.686132 
L 379.562468 301.686132 
" clip-path="url(#pb0a8af1b8d)" style="fill: none; stroke: #cccccc; stroke-width: 0.8; stroke-linecap: round"/>
     </g>
     <g id="text_4">
      <!-- −100 -->
      <g style="fill: #262626" transform="translate(27.99466 305.265038) scale(0.1 -0.1)">
       <defs>
        <path id="ArialMT-2212" d="M 3381 1997 
L 356 1997 
L 356 2522 
L 3381 2522 
L 3381 1997 
z
" transform="scale(0.015625)"/>
        <path id="ArialMT-31" d="M 2384 0 
L 1822 0 
L 1822 3584 
Q 1619 3391 1289 3197 
Q 959 3003 697 2906 
L 697 3450 
Q 1169 3672 1522 3987 
Q 1875 4303 2022 4600 
L 2384 4600 
L 2384 0 
z
" transform="scale(0.015625)"/>
        <path id="ArialMT-30" d="M 266 2259 
Q 266 3072 433 3567 
Q 600 4063 929 4331 
Q 1259 4600 1759 4600 
Q 2128 4600 2406 4451 
Q 2684 4303 2865 4023 
Q 3047 3744 3150 3342 
Q 3253 2941 3253 2259 
Q 3253 1453 3087 958 
Q 2922 463 2592 192 
Q 2263 -78 1759 -78 
Q 1097 -78 719 397 
Q 266 969 266 2259 
z
M 844 2259 
Q 844 1131 1108 757 
Q 1372 384 1759 384 
Q 2147 384 2411 759 
Q 2675 1134 2675 2259 
Q 2675 3391 2411 3762 
Q 2147 4134 1753 4134 
Q 1366 4134 1134 3806 
Q 844 3388 844 2259 
z
" transform="scale(0.015625)"/>
       </defs>
       <use xlink:href="#ArialMT-2212"/>
       <use xlink:href="#ArialMT-31" x="58.398438"/>
       <use xlink:href="#ArialMT-30" x="114.013672"/>
       <use xlink:href="#ArialMT-30" x="169.628906"/>
      </g>
     </g>
    </g>
    <g id="ytick_2">
     <g id="line2d_2">
      <path d="M 57.518097 267.255944 
L 379.562468 267.255944 
" clip-path="url(#pb0a8af1b8d)" style="fill: none; stroke: #cccccc; stroke-width: 0.8; stroke-linecap: round"/>
     </g>
     <g id="text_5">
      <!-- 0 -->
      <g style="fill: #262626" transform="translate(44.95716 270.834851) scale(0.1 -0.1)">
       <use xlink:href="#ArialMT-30"/>
      </g>
     </g>
    </g>
    <g id="ytick_3">
     <g id="line2d_3">
      <path d="M 57.518097 232.825757 
L 379.562468 232.825757 
" clip-path="url(#pb0a8af1b8d)" style="fill: none; stroke: #cccccc; stroke-width: 0.8; stroke-linecap: round"/>
     </g>
     <g id="text_6">
      <!-- 100 -->
      <g style="fill: #262626" transform="translate(33.835285 236.404663) scale(0.1 -0.1)">
       <use xlink:href="#ArialMT-31"/>
       <use xlink:href="#ArialMT-30" x="55.615234"/>
       <use xlink:href="#ArialMT-30" x="111.230469"/>
      </g>
     </g>
    </g>
    <g id="ytick_4">
     <g id="line2d_4">
      <path d="M 57.518097 198.395569 
L 379.562468 198.395569 
" clip-path="url(#pb0a8af1b8d)" style="fill: none; stroke: #cccccc; stroke-width: 0.8; stroke-linecap: round"/>
     </g>
     <g id="text_7">
      <!-- 200 -->
      <g style="fill: #262626" transform="translate(33.835285 201.974475) scale(0.1 -0.1)">
       <defs>
        <path id="ArialMT-32" d="M 3222 541 
L 3222 0 
L 194 0 
Q 188 203 259 391 
Q 375 700 629 1000 
Q 884 1300 1366 1694 
Q 2113 2306 2375 2664 
Q 2638 3022 2638 3341 
Q 2638 3675 2398 3904 
Q 2159 4134 1775 4134 
Q 1369 4134 1125 3890 
Q 881 3647 878 3216 
L 300 3275 
Q 359 3922 746 4261 
Q 1134 4600 1788 4600 
Q 2447 4600 2831 4234 
Q 3216 3869 3216 3328 
Q 3216 3053 3103 2787 
Q 2991 2522 2730 2228 
Q 2469 1934 1863 1422 
Q 1356 997 1212 845 
Q 1069 694 975 541 
L 3222 541 
z
" transform="scale(0.015625)"/>
       </defs>
       <use xlink:href="#ArialMT-32"/>
       <use xlink:href="#ArialMT-30" x="55.615234"/>
       <use xlink:href="#ArialMT-30" x="111.230469"/>
      </g>
     </g>
    </g>
    <g id="ytick_5">
     <g id="line2d_5">
      <path d="M 57.518097 163.965381 
L 379.562468 163.965381 
" clip-path="url(#pb0a8af1b8d)" style="fill: none; stroke: #cccccc; stroke-width: 0.8; stroke-linecap: round"/>
     </g>
     <g id="text_8">
      <!-- 300 -->
      <g style="fill: #262626" transform="translate(33.835285 167.544287) scale(0.1 -0.1)">
       <defs>
        <path id="ArialMT-33" d="M 269 1209 
L 831 1284 
Q 928 806 1161 595 
Q 1394 384 1728 384 
Q 2125 384 2398 659 
Q 2672 934 2672 1341 
Q 2672 1728 2419 1979 
Q 2166 2231 1775 2231 
Q 1616 2231 1378 2169 
L 1441 2663 
Q 1497 2656 1531 2656 
Q 1891 2656 2178 2843 
Q 2466 3031 2466 3422 
Q 2466 3731 2256 3934 
Q 2047 4138 1716 4138 
Q 1388 4138 1169 3931 
Q 950 3725 888 3313 
L 325 3413 
Q 428 3978 793 4289 
Q 1159 4600 1703 4600 
Q 2078 4600 2393 4439 
Q 2709 4278 2876 4000 
Q 3044 3722 3044 3409 
Q 3044 3113 2884 2869 
Q 2725 2625 2413 2481 
Q 2819 2388 3044 2092 
Q 3269 1797 3269 1353 
Q 3269 753 2831 336 
Q 2394 -81 1725 -81 
Q 1122 -81 723 278 
Q 325 638 269 1209 
z
" transform="scale(0.015625)"/>
       </defs>
       <use xlink:href="#ArialMT-33"/>
       <use xlink:href="#ArialMT-30" x="55.615234"/>
       <use xlink:href="#ArialMT-30" x="111.230469"/>
      </g>
     </g>
    </g>
    <g id="ytick_6">
     <g id="line2d_6">
      <path d="M 57.518097 129.535194 
L 379.562468 129.535194 
" clip-path="url(#pb0a8af1b8d)" style="fill: none; stroke: #cccccc; stroke-width: 0.8; stroke-linecap: round"/>
     </g>
     <g id="text_9">
      <!-- 400 -->
      <g style="fill: #262626" transform="translate(33.835285 133.1141) scale(0.1 -0.1)">
       <defs>
        <path id="ArialMT-34" d="M 2069 0 
L 2069 1097 
L 81 1097 
L 81 1613 
L 2172 4581 
L 2631 4581 
L 2631 1613 
L 3250 1613 
L 3250 1097 
L 2631 1097 
L 2631 0 
L 2069 0 
z
M 2069 1613 
L 2069 3678 
L 634 1613 
L 2069 1613 
z
" transform="scale(0.015625)"/>
       </defs>
       <use xlink:href="#ArialMT-34"/>
       <use xlink:href="#ArialMT-30" x="55.615234"/>
       <use xlink:href="#ArialMT-30" x="111.230469"/>
      </g>
     </g>
    </g>
    <g id="ytick_7">
     <g id="line2d_7">
      <path d="M 57.518097 95.105006 
L 379.562468 95.105006 
" clip-path="url(#pb0a8af1b8d)" style="fill: none; stroke: #cccccc; stroke-width: 0.8; stroke-linecap: round"/>
     </g>
     <g id="text_10">
      <!-- 500 -->
      <g style="fill: #262626" transform="translate(33.835285 98.683912) scale(0.1 -0.1)">
       <defs>
        <path id="ArialMT-35" d="M 266 1200 
L 856 1250 
Q 922 819 1161 601 
Q 1400 384 1738 384 
Q 2144 384 2425 690 
Q 2706 997 2706 1503 
Q 2706 1984 2436 2262 
Q 2166 2541 1728 2541 
Q 1456 2541 1237 2417 
Q 1019 2294 894 2097 
L 366 2166 
L 809 4519 
L 3088 4519 
L 3088 3981 
L 1259 3981 
L 1013 2750 
Q 1425 3038 1878 3038 
Q 2478 3038 2890 2622 
Q 3303 2206 3303 1553 
Q 3303 931 2941 478 
Q 2500 -78 1738 -78 
Q 1113 -78 717 272 
Q 322 622 266 1200 
z
" transform="scale(0.015625)"/>
       </defs>
       <use xlink:href="#ArialMT-35"/>
       <use xlink:href="#ArialMT-30" x="55.615234"/>
       <use xlink:href="#ArialMT-30" x="111.230469"/>
      </g>
     </g>
    </g>
    <g id="ytick_8">
     <g id="line2d_8">
      <path d="M 57.518097 60.674818 
L 379.562468 60.674818 
" clip-path="url(#pb0a8af1b8d)" style="fill: none; stroke: #cccccc; stroke-width: 0.8; stroke-linecap: round"/>
     </g>
     <g id="text_11">
      <!-- 600 -->
      <g style="fill: #262626" transform="translate(33.835285 64.253724) scale(0.1 -0.1)">
       <defs>
        <path id="ArialMT-36" d="M 3184 3459 
L 2625 3416 
Q 2550 3747 2413 3897 
Q 2184 4138 1850 4138 
Q 1581 4138 1378 3988 
Q 1113 3794 959 3422 
Q 806 3050 800 2363 
Q 1003 2672 1297 2822 
Q 1591 2972 1913 2972 
Q 2475 2972 2870 2558 
Q 3266 2144 3266 1488 
Q 3266 1056 3080 686 
Q 2894 316 2569 119 
Q 2244 -78 1831 -78 
Q 1128 -78 684 439 
Q 241 956 241 2144 
Q 241 3472 731 4075 
Q 1159 4600 1884 4600 
Q 2425 4600 2770 4297 
Q 3116 3994 3184 3459 
z
M 888 1484 
Q 888 1194 1011 928 
Q 1134 663 1356 523 
Q 1578 384 1822 384 
Q 2178 384 2434 671 
Q 2691 959 2691 1453 
Q 2691 1928 2437 2201 
Q 2184 2475 1800 2475 
Q 1419 2475 1153 2201 
Q 888 1928 888 1484 
z
" transform="scale(0.015625)"/>
       </defs>
       <use xlink:href="#ArialMT-36"/>
       <use xlink:href="#ArialMT-30" x="55.615234"/>
       <use xlink:href="#ArialMT-30" x="111.230469"/>
      </g>
     </g>
    </g>
    <g id="ytick_9">
     <g id="line2d_9">
      <path d="M 57.518097 26.244631 
L 379.562468 26.244631 
" clip-path="url(#pb0a8af1b8d)" style="fill: none; stroke: #cccccc; stroke-width: 0.8; stroke-linecap: round"/>
     </g>
     <g id="text_12">
      <!-- 700 -->
      <g style="fill: #262626" transform="translate(33.835285 29.823537) scale(0.1 -0.1)">
       <defs>
        <path id="ArialMT-37" d="M 303 3981 
L 303 4522 
L 3269 4522 
L 3269 4084 
Q 2831 3619 2401 2847 
Q 1972 2075 1738 1259 
Q 1569 684 1522 0 
L 944 0 
Q 953 541 1156 1306 
Q 1359 2072 1739 2783 
Q 2119 3494 2547 3981 
L 303 3981 
z
" transform="scale(0.015625)"/>
       </defs>
       <use xlink:href="#ArialMT-37"/>
       <use xlink:href="#ArialMT-30" x="55.615234"/>
       <use xlink:href="#ArialMT-30" x="111.230469"/>
      </g>
     </g>
    </g>
    <g id="text_13">
     <!-- carb -->
     <g style="fill: #262626" transform="translate(22.00716 181.105781) rotate(-90) scale(0.1 -0.1)">
      <defs>
       <path id="ArialMT-62" d="M 941 0 
L 419 0 
L 419 4581 
L 981 4581 
L 981 2947 
Q 1338 3394 1891 3394 
Q 2197 3394 2470 3270 
Q 2744 3147 2920 2923 
Q 3097 2700 3197 2384 
Q 3297 2069 3297 1709 
Q 3297 856 2875 390 
Q 2453 -75 1863 -75 
Q 1275 -75 941 416 
L 941 0 
z
M 934 1684 
Q 934 1088 1097 822 
Q 1363 388 1816 388 
Q 2184 388 2453 708 
Q 2722 1028 2722 1663 
Q 2722 2313 2464 2622 
Q 2206 2931 1841 2931 
Q 1472 2931 1203 2611 
Q 934 2291 934 1684 
z
" transform="scale(0.015625)"/>
      </defs>
      <use xlink:href="#ArialMT-63"/>
      <use xlink:href="#ArialMT-61" x="50"/>
      <use xlink:href="#ArialMT-72" x="105.615234"/>
      <use xlink:href="#ArialMT-62" x="138.916016"/>
     </g>
    </g>
   </g>
   <g id="PolyCollection_1">
    <defs>
     <path id="m375755188a" d="M 107.143757 -120.997421 
L 104.505749 -120.997421 
L 104.286323 -122.069025 
L 104.039927 -123.14063 
L 103.764977 -124.212234 
L 103.46008 -125.283839 
L 103.12408 -126.355444 
L 102.756101 -127.427048 
L 102.355588 -128.498653 
L 101.922341 -129.570257 
L 101.456541 -130.641862 
L 100.958769 -131.713466 
L 100.430011 -132.785071 
L 99.871656 -133.856676 
L 99.285481 -134.92828 
L 98.673623 -135.999885 
L 98.038545 -137.071489 
L 97.382983 -138.143094 
L 96.709898 -139.214699 
L 96.022412 -140.286303 
L 95.323747 -141.357908 
L 94.617157 -142.429512 
L 93.905873 -143.501117 
L 93.193039 -144.572722 
L 92.481667 -145.644326 
L 91.774591 -146.715931 
L 91.074435 -147.787535 
L 90.383592 -148.85914 
L 89.704209 -149.930745 
L 89.038181 -151.002349 
L 88.387156 -152.073954 
L 87.752543 -153.145558 
L 87.135516 -154.217163 
L 86.53703 -155.288768 
L 85.957828 -156.360372 
L 85.398441 -157.431977 
L 84.859193 -158.503581 
L 84.340186 -159.575186 
L 83.841294 -160.646791 
L 83.36214 -161.718395 
L 82.902079 -162.79 
L 82.46018 -163.861604 
L 82.035208 -164.933209 
L 81.62562 -166.004814 
L 81.229568 -167.076418 
L 80.844925 -168.148023 
L 80.469325 -169.219627 
L 80.100223 -170.291232 
L 79.734987 -171.362837 
L 79.371003 -172.434441 
L 79.005803 -173.506046 
L 78.637215 -174.57765 
L 78.263515 -175.649255 
L 77.88359 -176.72086 
L 77.497097 -177.792464 
L 77.104607 -178.864069 
L 76.707731 -179.935673 
L 76.309215 -181.007278 
L 75.912995 -182.078883 
L 75.524212 -183.150487 
L 75.149174 -184.222092 
L 74.79527 -185.293696 
L 74.470827 -186.365301 
L 74.184923 -187.436906 
L 73.947147 -188.50851 
L 73.767332 -189.580115 
L 73.655255 -190.651719 
L 73.620316 -191.723324 
L 73.671222 -192.794929 
L 73.815675 -193.866533 
L 74.060083 -194.938138 
L 74.409306 -196.009742 
L 74.866449 -197.081347 
L 75.432705 -198.152952 
L 76.107262 -199.224556 
L 76.887279 -200.296161 
L 77.767917 -201.367765 
L 78.742446 -202.43937 
L 79.802406 -203.510975 
L 80.937818 -204.582579 
L 82.137445 -205.654184 
L 83.389081 -206.725788 
L 84.679866 -207.797393 
L 85.996603 -208.868998 
L 87.326079 -209.940602 
L 88.655371 -211.012207 
L 89.972128 -212.083811 
L 91.264814 -213.155416 
L 92.522927 -214.227021 
L 93.737161 -215.298625 
L 94.899528 -216.37023 
L 96.003432 -217.441834 
L 97.043702 -218.513439 
L 98.016576 -219.585044 
L 98.919656 -220.656648 
L 99.75182 -221.728253 
L 100.51312 -222.799857 
L 101.204651 -223.871462 
L 101.828409 -224.943067 
L 102.387146 -226.014671 
L 102.884216 -227.086276 
L 108.76529 -227.086276 
L 108.76529 -227.086276 
L 109.26236 -226.014671 
L 109.821097 -224.943067 
L 110.444855 -223.871462 
L 111.136386 -222.799857 
L 111.897686 -221.728253 
L 112.72985 -220.656648 
L 113.63293 -219.585044 
L 114.605804 -218.513439 
L 115.646074 -217.441834 
L 116.749978 -216.37023 
L 117.912345 -215.298625 
L 119.126579 -214.227021 
L 120.384692 -213.155416 
L 121.677379 -212.083811 
L 122.994135 -211.012207 
L 124.323427 -209.940602 
L 125.652904 -208.868998 
L 126.96964 -207.797393 
L 128.260425 -206.725788 
L 129.512062 -205.654184 
L 130.711688 -204.582579 
L 131.8471 -203.510975 
L 132.90706 -202.43937 
L 133.881589 -201.367765 
L 134.762227 -200.296161 
L 135.542244 -199.224556 
L 136.216802 -198.152952 
L 136.783057 -197.081347 
L 137.2402 -196.009742 
L 137.589424 -194.938138 
L 137.833832 -193.866533 
L 137.978284 -192.794929 
L 138.02919 -191.723324 
L 137.994251 -190.651719 
L 137.882174 -189.580115 
L 137.70236 -188.50851 
L 137.464584 -187.436906 
L 137.178679 -186.365301 
L 136.854236 -185.293696 
L 136.500332 -184.222092 
L 136.125294 -183.150487 
L 135.736511 -182.078883 
L 135.340291 -181.007278 
L 134.941775 -179.935673 
L 134.544899 -178.864069 
L 134.152409 -177.792464 
L 133.765916 -176.72086 
L 133.385991 -175.649255 
L 133.012291 -174.57765 
L 132.643703 -173.506046 
L 132.278503 -172.434441 
L 131.914519 -171.362837 
L 131.549283 -170.291232 
L 131.180182 -169.219627 
L 130.804581 -168.148023 
L 130.419938 -167.076418 
L 130.023886 -166.004814 
L 129.614298 -164.933209 
L 129.189326 -163.861604 
L 128.747427 -162.79 
L 128.287367 -161.718395 
L 127.808212 -160.646791 
L 127.30932 -159.575186 
L 126.790313 -158.503581 
L 126.251065 -157.431977 
L 125.691678 -156.360372 
L 125.112476 -155.288768 
L 124.513991 -154.217163 
L 123.896964 -153.145558 
L 123.26235 -152.073954 
L 122.611325 -151.002349 
L 121.945297 -149.930745 
L 121.265914 -148.85914 
L 120.575071 -147.787535 
L 119.874915 -146.715931 
L 119.167839 -145.644326 
L 118.456467 -144.572722 
L 117.743634 -143.501117 
L 117.032349 -142.429512 
L 116.32576 -141.357908 
L 115.627094 -140.286303 
L 114.939608 -139.214699 
L 114.266523 -138.143094 
L 113.610961 -137.071489 
L 112.975883 -135.999885 
L 112.364026 -134.92828 
L 111.777851 -133.856676 
L 111.219496 -132.785071 
L 110.690737 -131.713466 
L 110.192965 -130.641862 
L 109.727165 -129.570257 
L 109.293918 -128.498653 
L 108.893406 -127.427048 
L 108.525427 -126.355444 
L 108.189426 -125.283839 
L 107.884529 -124.212234 
L 107.609579 -123.14063 
L 107.363183 -122.069025 
L 107.143757 -120.997421 
z
" style="stroke: #3f3f3f; stroke-width: 1.25"/>
    </defs>
    <g clip-path="url(#pb0a8af1b8d)">
     <use xlink:href="#m375755188a" x="0" y="360" style="fill: #3274a1; stroke: #3f3f3f; stroke-width: 1.25"/>
    </g>
   </g>
   <g id="PolyCollection_2">
    <defs>
     <path id="mfe73684251" d="M 172.581991 -79.04148 
L 167.885263 -79.04148 
L 167.507613 -80.786663 
L 167.084193 -82.531846 
L 166.612201 -84.277029 
L 166.089145 -86.022212 
L 165.512939 -87.767395 
L 164.882001 -89.512578 
L 164.195354 -91.257761 
L 163.452722 -93.002945 
L 162.654628 -94.748128 
L 161.802472 -96.493311 
L 160.898608 -98.238494 
L 159.946396 -99.983677 
L 158.950239 -101.72886 
L 157.915594 -103.474043 
L 156.84896 -105.219226 
L 155.757834 -106.964409 
L 154.650639 -108.709593 
L 153.53662 -110.454776 
L 152.425715 -112.199959 
L 151.328388 -113.945142 
L 150.255444 -115.690325 
L 149.217814 -117.435508 
L 148.226332 -119.180691 
L 147.291487 -120.925874 
L 146.423179 -122.671057 
L 145.63047 -124.41624 
L 144.921347 -126.161424 
L 144.302502 -127.906607 
L 143.779124 -129.65179 
L 143.354742 -131.396973 
L 143.031082 -133.142156 
L 142.807983 -134.887339 
L 142.683351 -136.632522 
L 142.653166 -138.377705 
L 142.711536 -140.122888 
L 142.850805 -141.868072 
L 143.06171 -143.613255 
L 143.333584 -145.358438 
L 143.654598 -147.103621 
L 144.012039 -148.848804 
L 144.392624 -150.593987 
L 144.78282 -152.33917 
L 145.169187 -154.084353 
L 145.538719 -155.829536 
L 145.879175 -157.574719 
L 146.1794 -159.319903 
L 146.429614 -161.065086 
L 146.62167 -162.810269 
L 146.74927 -164.555452 
L 146.808135 -166.300635 
L 146.796122 -168.045818 
L 146.713283 -169.791001 
L 146.561871 -171.536184 
L 146.346283 -173.281367 
L 146.072953 -175.026551 
L 145.750182 -176.771734 
L 145.387927 -178.516917 
L 144.997546 -180.2621 
L 144.591504 -182.007283 
L 144.183051 -183.752466 
L 143.785885 -185.497649 
L 143.413802 -187.242832 
L 143.080352 -188.988015 
L 142.798496 -190.733198 
L 142.580291 -192.478382 
L 142.436602 -194.223565 
L 142.376845 -195.968748 
L 142.408779 -197.713931 
L 142.538337 -199.459114 
L 142.769522 -201.204297 
L 143.104338 -202.94948 
L 143.542793 -204.694663 
L 144.082938 -206.439846 
L 144.720965 -208.18503 
L 145.451349 -209.930213 
L 146.267017 -211.675396 
L 147.159569 -213.420579 
L 148.119503 -215.165762 
L 149.136473 -216.910945 
L 150.199541 -218.656128 
L 151.297445 -220.401311 
L 152.418847 -222.146494 
L 153.552573 -223.891677 
L 154.687835 -225.636861 
L 155.814424 -227.382044 
L 156.922876 -229.127227 
L 158.004612 -230.87241 
L 159.052037 -232.617593 
L 160.058611 -234.362776 
L 161.018894 -236.107959 
L 161.928546 -237.853142 
L 162.784317 -239.598325 
L 163.584001 -241.343509 
L 164.326372 -243.088692 
L 165.01111 -244.833875 
L 165.638702 -246.579058 
L 166.210346 -248.324241 
L 166.727849 -250.069424 
L 167.193514 -251.814607 
L 173.273741 -251.814607 
L 173.273741 -251.814607 
L 173.739405 -250.069424 
L 174.256908 -248.324241 
L 174.828553 -246.579058 
L 175.456145 -244.833875 
L 176.140882 -243.088692 
L 176.883254 -241.343509 
L 177.682937 -239.598325 
L 178.538709 -237.853142 
L 179.448361 -236.107959 
L 180.408643 -234.362776 
L 181.415218 -232.617593 
L 182.462642 -230.87241 
L 183.544378 -229.127227 
L 184.65283 -227.382044 
L 185.779419 -225.636861 
L 186.914681 -223.891677 
L 188.048408 -222.146494 
L 189.16981 -220.401311 
L 190.267714 -218.656128 
L 191.330782 -216.910945 
L 192.347751 -215.165762 
L 193.307685 -213.420579 
L 194.200237 -211.675396 
L 195.015906 -209.930213 
L 195.746289 -208.18503 
L 196.384317 -206.439846 
L 196.924462 -204.694663 
L 197.362917 -202.94948 
L 197.697733 -201.204297 
L 197.928917 -199.459114 
L 198.058476 -197.713931 
L 198.090409 -195.968748 
L 198.030652 -194.223565 
L 197.886964 -192.478382 
L 197.668759 -190.733198 
L 197.386902 -188.988015 
L 197.053452 -187.242832 
L 196.68137 -185.497649 
L 196.284203 -183.752466 
L 195.87575 -182.007283 
L 195.469708 -180.2621 
L 195.079328 -178.516917 
L 194.717073 -176.771734 
L 194.394301 -175.026551 
L 194.120971 -173.281367 
L 193.905384 -171.536184 
L 193.753972 -169.791001 
L 193.671133 -168.045818 
L 193.659119 -166.300635 
L 193.717984 -164.555452 
L 193.845584 -162.810269 
L 194.03764 -161.065086 
L 194.287854 -159.319903 
L 194.588079 -157.574719 
L 194.928536 -155.829536 
L 195.298067 -154.084353 
L 195.684434 -152.33917 
L 196.07463 -150.593987 
L 196.455215 -148.848804 
L 196.812657 -147.103621 
L 197.13367 -145.358438 
L 197.405544 -143.613255 
L 197.61645 -141.868072 
L 197.755719 -140.122888 
L 197.814088 -138.377705 
L 197.783903 -136.632522 
L 197.659272 -134.887339 
L 197.436173 -133.142156 
L 197.112513 -131.396973 
L 196.68813 -129.65179 
L 196.164753 -127.906607 
L 195.545907 -126.161424 
L 194.836785 -124.41624 
L 194.044076 -122.671057 
L 193.175767 -120.925874 
L 192.240922 -119.180691 
L 191.24944 -117.435508 
L 190.211811 -115.690325 
L 189.138866 -113.945142 
L 188.041539 -112.199959 
L 186.930634 -110.454776 
L 185.816616 -108.709593 
L 184.70942 -106.964409 
L 183.618294 -105.219226 
L 182.55166 -103.474043 
L 181.517016 -101.72886 
L 180.520859 -99.983677 
L 179.568647 -98.238494 
L 178.664783 -96.493311 
L 177.812627 -94.748128 
L 177.014532 -93.002945 
L 176.271901 -91.257761 
L 175.585253 -89.512578 
L 174.954315 -87.767395 
L 174.378109 -86.022212 
L 173.855054 -84.277029 
L 173.383062 -82.531846 
L 172.959641 -80.786663 
L 172.581991 -79.04148 
z
" style="stroke: #3f3f3f; stroke-width: 1.25"/>
    </defs>
    <g clip-path="url(#pb0a8af1b8d)">
     <use xlink:href="#mfe73684251" x="0" y="360" style="fill: #e1812c; stroke: #3f3f3f; stroke-width: 1.25"/>
    </g>
   </g>
   <g id="PolyCollection_3">
    <defs>
     <path id="m73b1dcee73" d="M 268.46721 -139.661794 
L 265.226667 -139.661794 
L 264.887223 -140.99438 
L 264.494263 -142.326966 
L 264.04337 -143.659552 
L 263.530605 -144.992137 
L 262.952693 -146.324723 
L 262.307222 -147.657309 
L 261.592822 -148.989895 
L 260.809341 -150.322481 
L 259.957985 -151.655067 
L 259.041421 -152.987653 
L 258.063833 -154.320239 
L 257.030921 -155.652825 
L 255.949842 -156.985411 
L 254.829086 -158.317997 
L 253.678292 -159.650583 
L 252.508003 -160.983168 
L 251.329384 -162.315754 
L 250.153899 -163.64834 
L 248.992968 -164.980926 
L 247.857634 -166.313512 
L 246.758232 -167.646098 
L 245.704106 -168.978684 
L 244.70337 -170.31127 
L 243.762734 -171.643856 
L 242.887397 -172.976442 
L 242.081028 -174.309028 
L 241.34581 -175.641614 
L 240.68256 -176.974199 
L 240.090905 -178.306785 
L 239.56951 -179.639371 
L 239.116325 -180.971957 
L 238.728858 -182.304543 
L 238.404429 -183.637129 
L 238.140411 -184.969715 
L 237.934436 -186.302301 
L 237.784557 -187.634887 
L 237.689351 -188.967473 
L 237.647978 -190.300059 
L 237.660178 -191.632645 
L 237.726225 -192.96523 
L 237.84683 -194.297816 
L 238.023016 -195.630402 
L 238.255961 -196.962988 
L 238.546828 -198.295574 
L 238.896587 -199.62816 
L 239.305838 -200.960746 
L 239.774647 -202.293332 
L 240.302394 -203.625918 
L 240.88765 -204.958504 
L 241.528076 -206.29109 
L 242.220365 -207.623676 
L 242.960212 -208.956262 
L 243.742331 -210.288847 
L 244.560509 -211.621433 
L 245.407708 -212.954019 
L 246.276202 -214.286605 
L 247.157763 -215.619191 
L 248.043865 -216.951777 
L 248.925931 -218.284363 
L 249.795583 -219.616949 
L 250.644909 -220.949535 
L 251.466712 -222.282121 
L 252.25475 -223.614707 
L 253.003935 -224.947293 
L 253.710494 -226.279878 
L 254.372074 -227.612464 
L 254.987782 -228.94505 
L 255.558167 -230.277636 
L 256.085137 -231.610222 
L 256.571808 -232.942808 
L 257.022312 -234.275394 
L 257.441553 -235.60798 
L 257.834943 -236.940566 
L 258.208117 -238.273152 
L 258.566657 -239.605738 
L 258.915826 -240.938324 
L 259.260339 -242.270909 
L 259.60417 -243.603495 
L 259.950413 -244.936081 
L 260.301198 -246.268667 
L 260.657655 -247.601253 
L 261.019943 -248.933839 
L 261.387317 -250.266425 
L 261.758246 -251.599011 
L 262.130553 -252.931597 
L 262.501578 -254.264183 
L 262.868356 -255.596769 
L 263.227787 -256.929355 
L 263.5768 -258.26194 
L 263.9125 -259.594526 
L 264.232286 -260.927112 
L 264.533947 -262.259698 
L 264.815729 -263.592284 
L 265.076366 -264.92487 
L 265.315092 -266.257456 
L 265.531628 -267.590042 
L 265.726139 -268.922628 
L 265.899192 -270.255214 
L 266.05169 -271.5878 
L 267.642187 -271.5878 
L 267.642187 -271.5878 
L 267.794685 -270.255214 
L 267.967738 -268.922628 
L 268.162249 -267.590042 
L 268.378784 -266.257456 
L 268.617511 -264.92487 
L 268.878148 -263.592284 
L 269.15993 -262.259698 
L 269.461591 -260.927112 
L 269.781377 -259.594526 
L 270.117077 -258.26194 
L 270.46609 -256.929355 
L 270.825521 -255.596769 
L 271.192299 -254.264183 
L 271.563324 -252.931597 
L 271.93563 -251.599011 
L 272.30656 -250.266425 
L 272.673934 -248.933839 
L 273.036222 -247.601253 
L 273.392679 -246.268667 
L 273.743464 -244.936081 
L 274.089707 -243.603495 
L 274.433538 -242.270909 
L 274.778051 -240.938324 
L 275.12722 -239.605738 
L 275.485759 -238.273152 
L 275.858934 -236.940566 
L 276.252324 -235.60798 
L 276.671565 -234.275394 
L 277.122069 -232.942808 
L 277.60874 -231.610222 
L 278.135709 -230.277636 
L 278.706095 -228.94505 
L 279.321803 -227.612464 
L 279.983382 -226.279878 
L 280.689942 -224.947293 
L 281.439127 -223.614707 
L 282.227165 -222.282121 
L 283.048968 -220.949535 
L 283.898293 -219.616949 
L 284.767946 -218.284363 
L 285.650012 -216.951777 
L 286.536114 -215.619191 
L 287.417674 -214.286605 
L 288.286169 -212.954019 
L 289.133368 -211.621433 
L 289.951546 -210.288847 
L 290.733665 -208.956262 
L 291.473512 -207.623676 
L 292.165801 -206.29109 
L 292.806227 -204.958504 
L 293.391482 -203.625918 
L 293.91923 -202.293332 
L 294.388039 -200.960746 
L 294.79729 -199.62816 
L 295.147049 -198.295574 
L 295.437916 -196.962988 
L 295.670861 -195.630402 
L 295.847047 -194.297816 
L 295.967652 -192.96523 
L 296.033699 -191.632645 
L 296.045899 -190.300059 
L 296.004526 -188.967473 
L 295.90932 -187.634887 
L 295.75944 -186.302301 
L 295.553466 -184.969715 
L 295.289448 -183.637129 
L 294.965018 -182.304543 
L 294.577552 -180.971957 
L 294.124367 -179.639371 
L 293.602972 -178.306785 
L 293.011317 -176.974199 
L 292.348067 -175.641614 
L 291.612849 -174.309028 
L 290.80648 -172.976442 
L 289.931143 -171.643856 
L 288.990506 -170.31127 
L 287.989771 -168.978684 
L 286.935645 -167.646098 
L 285.836243 -166.313512 
L 284.700909 -164.980926 
L 283.539978 -163.64834 
L 282.364492 -162.315754 
L 281.185874 -160.983168 
L 280.015585 -159.650583 
L 278.86479 -158.317997 
L 277.744035 -156.985411 
L 276.662956 -155.652825 
L 275.630044 -154.320239 
L 274.652455 -152.987653 
L 273.735892 -151.655067 
L 272.884536 -150.322481 
L 272.101055 -148.989895 
L 271.386655 -147.657309 
L 270.741183 -146.324723 
L 270.163272 -144.992137 
L 269.650507 -143.659552 
L 269.199614 -142.326966 
L 268.806654 -140.99438 
L 268.46721 -139.661794 
z
" style="stroke: #3f3f3f; stroke-width: 1.25"/>
    </defs>
    <g clip-path="url(#pb0a8af1b8d)">
     <use xlink:href="#m73b1dcee73" x="0" y="360" style="fill: #3274a1; stroke: #3f3f3f; stroke-width: 1.25"/>
    </g>
   </g>
   <g id="PolyCollection_4">
    <defs>
     <path id="mbd227cffdc" d="M 332.070804 -62.199968 
L 330.440821 -62.199968 
L 330.274543 -64.56035 
L 330.084145 -66.920732 
L 329.868324 -69.281114 
L 329.626157 -71.641496 
L 329.357182 -74.001878 
L 329.061462 -76.36226 
L 328.739635 -78.722642 
L 328.392934 -81.083024 
L 328.023185 -83.443406 
L 327.632769 -85.803788 
L 327.224543 -88.16417 
L 326.801736 -90.524552 
L 326.367807 -92.884934 
L 325.926273 -95.245316 
L 325.480521 -97.605698 
L 325.033608 -99.96608 
L 324.588058 -102.326462 
L 324.145669 -104.686844 
L 323.707352 -107.047226 
L 323.272988 -109.407608 
L 322.841341 -111.76799 
L 322.41002 -114.128372 
L 321.975483 -116.488754 
L 321.533121 -118.849136 
L 321.077378 -121.209518 
L 320.601936 -123.5699 
L 320.099949 -125.930282 
L 319.564311 -128.290664 
L 318.987961 -130.651046 
L 318.364209 -133.011428 
L 317.687075 -135.37181 
L 316.951631 -137.732192 
L 316.154325 -140.092574 
L 315.293294 -142.452956 
L 314.368637 -144.813338 
L 313.382645 -147.17372 
L 312.339977 -149.534102 
L 311.247758 -151.894484 
L 310.115607 -154.254866 
L 308.955565 -156.615248 
L 307.781929 -158.97563 
L 306.610982 -161.336012 
L 305.460617 -163.696394 
L 304.349868 -166.056776 
L 303.298347 -168.417158 
L 302.325624 -170.77754 
L 301.450549 -173.137922 
L 300.69057 -175.498304 
L 300.061066 -177.858686 
L 299.574734 -180.219068 
L 299.241063 -182.57945 
L 299.065936 -184.939831 
L 299.051375 -187.300213 
L 299.195456 -189.660595 
L 299.492397 -192.020977 
L 299.932828 -194.381359 
L 300.504219 -196.741741 
L 301.191454 -199.102123 
L 301.977505 -201.462505 
L 302.844186 -203.822887 
L 303.772928 -206.183269 
L 304.74554 -208.543651 
L 305.74491 -210.904033 
L 306.755604 -213.264415 
L 307.76435 -215.624797 
L 308.760361 -217.985179 
L 309.735511 -220.345561 
L 310.684345 -222.705943 
L 311.603943 -225.066325 
L 312.49366 -227.426707 
L 313.354757 -229.787089 
L 314.189961 -232.147471 
L 315.002989 -234.507853 
L 315.798064 -236.868235 
L 316.579452 -239.228617 
L 317.351058 -241.588999 
L 318.116089 -243.949381 
L 318.8768 -246.309763 
L 319.634338 -248.670145 
L 320.388678 -251.030527 
L 321.138648 -253.390909 
L 321.882029 -255.751291 
L 322.615719 -258.111673 
L 323.335943 -260.472055 
L 324.038492 -262.832437 
L 324.718965 -265.192819 
L 325.373019 -267.553201 
L 325.996577 -269.913583 
L 326.586028 -272.273965 
L 327.138367 -274.634347 
L 327.651303 -276.994729 
L 328.123321 -279.355111 
L 328.553693 -281.715493 
L 328.942462 -284.075875 
L 329.290385 -286.436257 
L 329.598849 -288.796639 
L 329.869776 -291.157021 
L 330.105514 -293.517403 
L 330.308718 -295.877785 
L 332.202907 -295.877785 
L 332.202907 -295.877785 
L 332.406111 -293.517403 
L 332.641849 -291.157021 
L 332.912776 -288.796639 
L 333.22124 -286.436257 
L 333.569163 -284.075875 
L 333.957932 -281.715493 
L 334.388304 -279.355111 
L 334.860322 -276.994729 
L 335.373258 -274.634347 
L 335.925597 -272.273965 
L 336.515048 -269.913583 
L 337.138606 -267.553201 
L 337.79266 -265.192819 
L 338.473133 -262.832437 
L 339.175682 -260.472055 
L 339.895906 -258.111673 
L 340.629596 -255.751291 
L 341.372977 -253.390909 
L 342.122947 -251.030527 
L 342.877287 -248.670145 
L 343.634825 -246.309763 
L 344.395536 -243.949381 
L 345.160567 -241.588999 
L 345.932173 -239.228617 
L 346.713561 -236.868235 
L 347.508636 -234.507853 
L 348.321664 -232.147471 
L 349.156868 -229.787089 
L 350.017965 -227.426707 
L 350.907682 -225.066325 
L 351.827281 -222.705943 
L 352.776114 -220.345561 
L 353.751264 -217.985179 
L 354.747275 -215.624797 
L 355.756021 -213.264415 
L 356.766715 -210.904033 
L 357.766085 -208.543651 
L 358.738697 -206.183269 
L 359.66744 -203.822887 
L 360.53412 -201.462505 
L 361.320171 -199.102123 
L 362.007406 -196.741741 
L 362.578797 -194.381359 
L 363.019228 -192.020977 
L 363.316169 -189.660595 
L 363.46025 -187.300213 
L 363.445689 -184.939831 
L 363.270562 -182.57945 
L 362.936891 -180.219068 
L 362.450559 -177.858686 
L 361.821055 -175.498304 
L 361.061076 -173.137922 
L 360.186001 -170.77754 
L 359.213278 -168.417158 
L 358.161757 -166.056776 
L 357.051008 -163.696394 
L 355.900643 -161.336012 
L 354.729696 -158.97563 
L 353.55606 -156.615248 
L 352.396018 -154.254866 
L 351.263867 -151.894484 
L 350.171648 -149.534102 
L 349.12898 -147.17372 
L 348.142989 -144.813338 
L 347.218331 -142.452956 
L 346.3573 -140.092574 
L 345.559994 -137.732192 
L 344.82455 -135.37181 
L 344.147417 -133.011428 
L 343.523664 -130.651046 
L 342.947314 -128.290664 
L 342.411676 -125.930282 
L 341.909689 -123.5699 
L 341.434247 -121.209518 
L 340.978504 -118.849136 
L 340.536142 -116.488754 
L 340.101605 -114.128372 
L 339.670284 -111.76799 
L 339.238638 -109.407608 
L 338.804273 -107.047226 
L 338.365956 -104.686844 
L 337.923567 -102.326462 
L 337.478017 -99.96608 
L 337.031104 -97.605698 
L 336.585352 -95.245316 
L 336.143818 -92.884934 
L 335.709889 -90.524552 
L 335.287082 -88.16417 
L 334.878856 -85.803788 
L 334.48844 -83.443406 
L 334.118691 -81.083024 
L 333.77199 -78.722642 
L 333.450163 -76.36226 
L 333.154443 -74.001878 
L 332.885468 -71.641496 
L 332.643302 -69.281114 
L 332.42748 -66.920732 
L 332.237082 -64.56035 
L 332.070804 -62.199968 
z
" style="stroke: #3f3f3f; stroke-width: 1.25"/>
    </defs>
    <g clip-path="url(#pb0a8af1b8d)">
     <use xlink:href="#mbd227cffdc" x="0" y="360" style="fill: #e1812c; stroke: #3f3f3f; stroke-width: 1.25"/>
    </g>
   </g>
   <g id="line2d_10">
    <path d="M 105.824753 210.825761 
L 105.824753 161.090542 
" clip-path="url(#pb0a8af1b8d)" style="fill: none; stroke: #3f3f3f; stroke-width: 1.875; stroke-linecap: round"/>
   </g>
   <g id="line2d_11">
    <path d="M 105.824753 191.635219 
L 105.824753 162.922873 
" clip-path="url(#pb0a8af1b8d)" style="fill: none; stroke: #3f3f3f; stroke-width: 5.625; stroke-linecap: round"/>
   </g>
   <g id="line2d_12">
    <path d="M 105.824753 176.04552 
" clip-path="url(#pb0a8af1b8d)" style="fill: none; stroke: #3f3f3f; stroke-width: 1.5; stroke-linecap: round"/>
    <defs>
     <path id="mc031154c03" d="M 2.34375 0 
L -2.34375 -0 
" style="stroke: #ffffff; stroke-width: 1.125"/>
    </defs>
    <g clip-path="url(#pb0a8af1b8d)">
     <use xlink:href="#mc031154c03" x="105.824753" y="176.04552" style="fill: #ffffff; stroke: #ffffff; stroke-width: 1.125"/>
    </g>
   </g>
   <g id="line2d_13">
    <path d="M 170.233627 231.120776 
L 170.233627 158.023137 
" clip-path="url(#pb0a8af1b8d)" style="fill: none; stroke: #3f3f3f; stroke-width: 1.875; stroke-linecap: round"/>
   </g>
   <g id="line2d_14">
    <path d="M 170.233627 223.390041 
L 170.233627 160.15218 
" clip-path="url(#pb0a8af1b8d)" style="fill: none; stroke: #3f3f3f; stroke-width: 5.625; stroke-linecap: round"/>
   </g>
   <g id="line2d_15">
    <path d="M 170.233627 192.469846 
" clip-path="url(#pb0a8af1b8d)" style="fill: none; stroke: #3f3f3f; stroke-width: 1.5; stroke-linecap: round"/>
    <g clip-path="url(#pb0a8af1b8d)">
     <use xlink:href="#mc031154c03" x="170.233627" y="192.469846" style="fill: #ffffff; stroke: #ffffff; stroke-width: 1.125"/>
    </g>
   </g>
   <g id="line2d_16">
    <path d="M 266.846938 190.433163 
L 266.846938 118.317243 
" clip-path="url(#pb0a8af1b8d)" style="fill: none; stroke: #3f3f3f; stroke-width: 1.875; stroke-linecap: round"/>
   </g>
   <g id="line2d_17">
    <path d="M 266.846938 184.425145 
L 266.846938 147.824433 
" clip-path="url(#pb0a8af1b8d)" style="fill: none; stroke: #3f3f3f; stroke-width: 5.625; stroke-linecap: round"/>
   </g>
   <g id="line2d_18">
    <path d="M 266.846938 167.423175 
" clip-path="url(#pb0a8af1b8d)" style="fill: none; stroke: #3f3f3f; stroke-width: 1.5; stroke-linecap: round"/>
    <g clip-path="url(#pb0a8af1b8d)">
     <use xlink:href="#mc031154c03" x="266.846938" y="167.423175" style="fill: #ffffff; stroke: #ffffff; stroke-width: 1.125"/>
    </g>
   </g>
   <g id="line2d_19">
    <path d="M 331.255813 210.653384 
L 331.255813 132.896541 
" clip-path="url(#pb0a8af1b8d)" style="fill: none; stroke: #3f3f3f; stroke-width: 1.875; stroke-linecap: round"/>
   </g>
   <g id="line2d_20">
    <path d="M 331.255813 187.357667 
L 331.255813 163.228158 
" clip-path="url(#pb0a8af1b8d)" style="fill: none; stroke: #3f3f3f; stroke-width: 5.625; stroke-linecap: round"/>
   </g>
   <g id="line2d_21">
    <path d="M 331.255813 173.645235 
" clip-path="url(#pb0a8af1b8d)" style="fill: none; stroke: #3f3f3f; stroke-width: 1.5; stroke-linecap: round"/>
    <g clip-path="url(#pb0a8af1b8d)">
     <use xlink:href="#mc031154c03" x="331.255813" y="173.645235" style="fill: #ffffff; stroke: #ffffff; stroke-width: 1.125"/>
    </g>
   </g>
   <g id="patch_3">
    <path d="M 57.518097 318.04 
L 57.518097 24.72 
" style="fill: none; stroke: #cccccc; stroke-width: 0.8; stroke-linejoin: miter; stroke-linecap: square"/>
   </g>
   <g id="patch_4">
    <path d="M 57.518097 318.04 
L 379.562468 318.04 
" style="fill: none; stroke: #cccccc; stroke-width: 0.8; stroke-linejoin: miter; stroke-linecap: square"/>
   </g>
   <g id="text_14">
    <!-- sex = f -->
    <g style="fill: #262626" transform="translate(203.672314 18.72) scale(0.1 -0.1)">
     <defs>
      <path id="ArialMT-73" d="M 197 991 
L 753 1078 
Q 800 744 1014 566 
Q 1228 388 1613 388 
Q 2000 388 2187 545 
Q 2375 703 2375 916 
Q 2375 1106 2209 1216 
Q 2094 1291 1634 1406 
Q 1016 1563 777 1677 
Q 538 1791 414 1992 
Q 291 2194 291 2438 
Q 291 2659 392 2848 
Q 494 3038 669 3163 
Q 800 3259 1026 3326 
Q 1253 3394 1513 3394 
Q 1903 3394 2198 3281 
Q 2494 3169 2634 2976 
Q 2775 2784 2828 2463 
L 2278 2388 
Q 2241 2644 2061 2787 
Q 1881 2931 1553 2931 
Q 1166 2931 1000 2803 
Q 834 2675 834 2503 
Q 834 2394 903 2306 
Q 972 2216 1119 2156 
Q 1203 2125 1616 2013 
Q 2213 1853 2448 1751 
Q 2684 1650 2818 1456 
Q 2953 1263 2953 975 
Q 2953 694 2789 445 
Q 2625 197 2315 61 
Q 2006 -75 1616 -75 
Q 969 -75 630 194 
Q 291 463 197 991 
z
" transform="scale(0.015625)"/>
      <path id="ArialMT-65" d="M 2694 1069 
L 3275 997 
Q 3138 488 2766 206 
Q 2394 -75 1816 -75 
Q 1088 -75 661 373 
Q 234 822 234 1631 
Q 234 2469 665 2931 
Q 1097 3394 1784 3394 
Q 2450 3394 2872 2941 
Q 3294 2488 3294 1666 
Q 3294 1616 3291 1516 
L 816 1516 
Q 847 969 1125 678 
Q 1403 388 1819 388 
Q 2128 388 2347 550 
Q 2566 713 2694 1069 
z
M 847 1978 
L 2700 1978 
Q 2663 2397 2488 2606 
Q 2219 2931 1791 2931 
Q 1403 2931 1139 2672 
Q 875 2413 847 1978 
z
" transform="scale(0.015625)"/>
      <path id="ArialMT-78" d="M 47 0 
L 1259 1725 
L 138 3319 
L 841 3319 
L 1350 2541 
Q 1494 2319 1581 2169 
Q 1719 2375 1834 2534 
L 2394 3319 
L 3066 3319 
L 1919 1756 
L 3153 0 
L 2463 0 
L 1781 1031 
L 1600 1309 
L 728 0 
L 47 0 
z
" transform="scale(0.015625)"/>
      <path id="ArialMT-20" transform="scale(0.015625)"/>
      <path id="ArialMT-3d" d="M 3381 2694 
L 356 2694 
L 356 3219 
L 3381 3219 
L 3381 2694 
z
M 3381 1303 
L 356 1303 
L 356 1828 
L 3381 1828 
L 3381 1303 
z
" transform="scale(0.015625)"/>
      <path id="ArialMT-66" d="M 556 0 
L 556 2881 
L 59 2881 
L 59 3319 
L 556 3319 
L 556 3672 
Q 556 4006 616 4169 
Q 697 4388 901 4523 
Q 1106 4659 1475 4659 
Q 1713 4659 2000 4603 
L 1916 4113 
Q 1741 4144 1584 4144 
Q 1328 4144 1222 4034 
Q 1116 3925 1116 3625 
L 1116 3319 
L 1763 3319 
L 1763 2881 
L 1116 2881 
L 1116 0 
L 556 0 
z
" transform="scale(0.015625)"/>
     </defs>
     <use xlink:href="#ArialMT-73"/>
     <use xlink:href="#ArialMT-65" x="50"/>
     <use xlink:href="#ArialMT-78" x="105.615234"/>
     <use xlink:href="#ArialMT-20" x="155.615234"/>
     <use xlink:href="#ArialMT-3d" x="183.398438"/>
     <use xlink:href="#ArialMT-20" x="241.796875"/>
     <use xlink:href="#ArialMT-66" x="269.580078"/>
    </g>
   </g>
  </g>
  <g id="axes_2">
   <g id="patch_5">
    <path d="M 390.366829 318.04 
L 712.4112 318.04 
L 712.4112 24.72 
L 390.366829 24.72 
z
" style="fill: #ffffff"/>
   </g>
   <g id="matplotlib.axis_3">
    <g id="xtick_3">
     <g id="text_15">
      <!-- Baia -->
      <g style="fill: #262626" transform="translate(460.870891 332.197812) scale(0.1 -0.1)">
       <use xlink:href="#ArialMT-42"/>
       <use xlink:href="#ArialMT-61" x="66.699219"/>
       <use xlink:href="#ArialMT-69" x="122.314453"/>
       <use xlink:href="#ArialMT-61" x="144.53125"/>
      </g>
     </g>
    </g>
    <g id="xtick_4">
     <g id="text_16">
      <!-- Jurilovca -->
      <g style="fill: #262626" transform="translate(612.171982 332.197812) scale(0.1 -0.1)">
       <use xlink:href="#ArialMT-4a"/>
       <use xlink:href="#ArialMT-75" x="50"/>
       <use xlink:href="#ArialMT-72" x="105.615234"/>
       <use xlink:href="#ArialMT-69" x="138.916016"/>
       <use xlink:href="#ArialMT-6c" x="161.132812"/>
       <use xlink:href="#ArialMT-6f" x="183.349609"/>
       <use xlink:href="#ArialMT-76" x="238.964844"/>
       <use xlink:href="#ArialMT-63" x="288.964844"/>
       <use xlink:href="#ArialMT-61" x="338.964844"/>
      </g>
     </g>
    </g>
    <g id="text_17">
     <!-- location -->
     <g style="fill: #262626" transform="translate(534.156202 345.343125) scale(0.1 -0.1)">
      <use xlink:href="#ArialMT-6c"/>
      <use xlink:href="#ArialMT-6f" x="22.216797"/>
      <use xlink:href="#ArialMT-63" x="77.832031"/>
      <use xlink:href="#ArialMT-61" x="127.832031"/>
      <use xlink:href="#ArialMT-74" x="183.447266"/>
      <use xlink:href="#ArialMT-69" x="211.230469"/>
      <use xlink:href="#ArialMT-6f" x="233.447266"/>
      <use xlink:href="#ArialMT-6e" x="289.0625"/>
     </g>
    </g>
   </g>
   <g id="matplotlib.axis_4">
    <g id="ytick_10">
     <g id="line2d_22">
      <path d="M 390.366829 301.686132 
L 712.4112 301.686132 
" clip-path="url(#pd10f8baf82)" style="fill: none; stroke: #cccccc; stroke-width: 0.8; stroke-linecap: round"/>
     </g>
    </g>
    <g id="ytick_11">
     <g id="line2d_23">
      <path d="M 390.366829 267.255944 
L 712.4112 267.255944 
" clip-path="url(#pd10f8baf82)" style="fill: none; stroke: #cccccc; stroke-width: 0.8; stroke-linecap: round"/>
     </g>
    </g>
    <g id="ytick_12">
     <g id="line2d_24">
      <path d="M 390.366829 232.825757 
L 712.4112 232.825757 
" clip-path="url(#pd10f8baf82)" style="fill: none; stroke: #cccccc; stroke-width: 0.8; stroke-linecap: round"/>
     </g>
    </g>
    <g id="ytick_13">
     <g id="line2d_25">
      <path d="M 390.366829 198.395569 
L 712.4112 198.395569 
" clip-path="url(#pd10f8baf82)" style="fill: none; stroke: #cccccc; stroke-width: 0.8; stroke-linecap: round"/>
     </g>
    </g>
    <g id="ytick_14">
     <g id="line2d_26">
      <path d="M 390.366829 163.965381 
L 712.4112 163.965381 
" clip-path="url(#pd10f8baf82)" style="fill: none; stroke: #cccccc; stroke-width: 0.8; stroke-linecap: round"/>
     </g>
    </g>
    <g id="ytick_15">
     <g id="line2d_27">
      <path d="M 390.366829 129.535194 
L 712.4112 129.535194 
" clip-path="url(#pd10f8baf82)" style="fill: none; stroke: #cccccc; stroke-width: 0.8; stroke-linecap: round"/>
     </g>
    </g>
    <g id="ytick_16">
     <g id="line2d_28">
      <path d="M 390.366829 95.105006 
L 712.4112 95.105006 
" clip-path="url(#pd10f8baf82)" style="fill: none; stroke: #cccccc; stroke-width: 0.8; stroke-linecap: round"/>
     </g>
    </g>
    <g id="ytick_17">
     <g id="line2d_29">
      <path d="M 390.366829 60.674818 
L 712.4112 60.674818 
" clip-path="url(#pd10f8baf82)" style="fill: none; stroke: #cccccc; stroke-width: 0.8; stroke-linecap: round"/>
     </g>
    </g>
    <g id="ytick_18">
     <g id="line2d_30">
      <path d="M 390.366829 26.244631 
L 712.4112 26.244631 
" clip-path="url(#pd10f8baf82)" style="fill: none; stroke: #cccccc; stroke-width: 0.8; stroke-linecap: round"/>
     </g>
    </g>
   </g>
   <g id="PolyCollection_5">
    <defs>
     <path id="m4ef6ce356b" d="M 439.374185 -109.24774 
L 437.972785 -109.24774 
L 437.802712 -111.229893 
L 437.601208 -113.212045 
L 437.364924 -115.194197 
L 437.090677 -117.17635 
L 436.775569 -119.158502 
L 436.417094 -121.140655 
L 436.013248 -123.122807 
L 435.562612 -125.10496 
L 435.064419 -127.087112 
L 434.518588 -129.069264 
L 433.925729 -131.051417 
L 433.287105 -133.033569 
L 432.604569 -135.015722 
L 431.88046 -136.997874 
L 431.117483 -138.980027 
L 430.318574 -140.962179 
L 429.486757 -142.944331 
L 428.625017 -144.926484 
L 427.736191 -146.908636 
L 426.822888 -148.890789 
L 425.887459 -150.872941 
L 424.932003 -152.855094 
L 423.958425 -154.837246 
L 422.968534 -156.819398 
L 421.96418 -158.801551 
L 420.947415 -160.783703 
L 419.920664 -162.765856 
L 418.8869 -164.748008 
L 417.849792 -166.73016 
L 416.813829 -168.712313 
L 415.784399 -170.694465 
L 414.76781 -172.676618 
L 413.771265 -174.65877 
L 412.802769 -176.640923 
L 411.870985 -178.623075 
L 410.985038 -180.605227 
L 410.154277 -182.58738 
L 409.388016 -184.569532 
L 408.695246 -186.551685 
L 408.084352 -188.533837 
L 407.562839 -190.51599 
L 407.137084 -192.498142 
L 406.812119 -194.480294 
L 406.591468 -196.462447 
L 406.477034 -198.444599 
L 406.469048 -200.426752 
L 406.566081 -202.408904 
L 406.765115 -204.391056 
L 407.061673 -206.373209 
L 407.449988 -208.355361 
L 407.923219 -210.337514 
L 408.47368 -212.319666 
L 409.093079 -214.301819 
L 409.772754 -216.283971 
L 410.503891 -218.266123 
L 411.277715 -220.248276 
L 412.085652 -222.230428 
L 412.919463 -224.212581 
L 413.77134 -226.194733 
L 414.633995 -228.176886 
L 415.50072 -230.159038 
L 416.365447 -232.14119 
L 417.222805 -234.123343 
L 418.068179 -236.105495 
L 418.89777 -238.087648 
L 419.708652 -240.0698 
L 420.498821 -242.051953 
L 421.267224 -244.034105 
L 422.013754 -246.016257 
L 422.739213 -247.99841 
L 423.445224 -249.980562 
L 424.134097 -251.962715 
L 424.808648 -253.944867 
L 425.47198 -255.927019 
L 426.127236 -257.909172 
L 426.777352 -259.891324 
L 427.424808 -261.873477 
L 428.071413 -263.855629 
L 428.718137 -265.837782 
L 429.364999 -267.819934 
L 430.011021 -269.802086 
L 430.654258 -271.784239 
L 431.291888 -273.766391 
L 431.92037 -275.748544 
L 432.535639 -277.730696 
L 433.133336 -279.712849 
L 433.709051 -281.695001 
L 434.258555 -283.677153 
L 434.778018 -285.659306 
L 435.264187 -287.641458 
L 435.71452 -289.623611 
L 436.127275 -291.605763 
L 436.501546 -293.587915 
L 436.837249 -295.570068 
L 437.135074 -297.55222 
L 437.396393 -299.534373 
L 437.623153 -301.516525 
L 437.817749 -303.498678 
L 437.982895 -305.48083 
L 439.364075 -305.48083 
L 439.364075 -305.48083 
L 439.529221 -303.498678 
L 439.723817 -301.516525 
L 439.950577 -299.534373 
L 440.211896 -297.55222 
L 440.509721 -295.570068 
L 440.845424 -293.587915 
L 441.219695 -291.605763 
L 441.63245 -289.623611 
L 442.082783 -287.641458 
L 442.568952 -285.659306 
L 443.088415 -283.677153 
L 443.637919 -281.695001 
L 444.213634 -279.712849 
L 444.811331 -277.730696 
L 445.4266 -275.748544 
L 446.055082 -273.766391 
L 446.692712 -271.784239 
L 447.335949 -269.802086 
L 447.981971 -267.819934 
L 448.628833 -265.837782 
L 449.275557 -263.855629 
L 449.922162 -261.873477 
L 450.569618 -259.891324 
L 451.219734 -257.909172 
L 451.87499 -255.927019 
L 452.538322 -253.944867 
L 453.212873 -251.962715 
L 453.901746 -249.980562 
L 454.607757 -247.99841 
L 455.333216 -246.016257 
L 456.079746 -244.034105 
L 456.848148 -242.051953 
L 457.638318 -240.0698 
L 458.4492 -238.087648 
L 459.278791 -236.105495 
L 460.124165 -234.123343 
L 460.981523 -232.14119 
L 461.84625 -230.159038 
L 462.712974 -228.176886 
L 463.57563 -226.194733 
L 464.427507 -224.212581 
L 465.261318 -222.230428 
L 466.069255 -220.248276 
L 466.843079 -218.266123 
L 467.574216 -216.283971 
L 468.253891 -214.301819 
L 468.87329 -212.319666 
L 469.423751 -210.337514 
L 469.896982 -208.355361 
L 470.285297 -206.373209 
L 470.581855 -204.391056 
L 470.780889 -202.408904 
L 470.877922 -200.426752 
L 470.869936 -198.444599 
L 470.755502 -196.462447 
L 470.534851 -194.480294 
L 470.209886 -192.498142 
L 469.784131 -190.51599 
L 469.262618 -188.533837 
L 468.651724 -186.551685 
L 467.958954 -184.569532 
L 467.192693 -182.58738 
L 466.361932 -180.605227 
L 465.475985 -178.623075 
L 464.544201 -176.640923 
L 463.575705 -174.65877 
L 462.57916 -172.676618 
L 461.562571 -170.694465 
L 460.533141 -168.712313 
L 459.497178 -166.73016 
L 458.46007 -164.748008 
L 457.426306 -162.765856 
L 456.399555 -160.783703 
L 455.38279 -158.801551 
L 454.378436 -156.819398 
L 453.388545 -154.837246 
L 452.414967 -152.855094 
L 451.459511 -150.872941 
L 450.524082 -148.890789 
L 449.610779 -146.908636 
L 448.721953 -144.926484 
L 447.860213 -142.944331 
L 447.028396 -140.962179 
L 446.229487 -138.980027 
L 445.46651 -136.997874 
L 444.742401 -135.015722 
L 444.059864 -133.033569 
L 443.421241 -131.051417 
L 442.828382 -129.069264 
L 442.282551 -127.087112 
L 441.784358 -125.10496 
L 441.333722 -123.122807 
L 440.929876 -121.140655 
L 440.571401 -119.158502 
L 440.256293 -117.17635 
L 439.982046 -115.194197 
L 439.745762 -113.212045 
L 439.544258 -111.229893 
L 439.374185 -109.24774 
z
" style="stroke: #3f3f3f; stroke-width: 1.25"/>
    </defs>
    <g clip-path="url(#pd10f8baf82)">
     <use xlink:href="#m4ef6ce356b" x="0" y="360" style="fill: #3274a1; stroke: #3f3f3f; stroke-width: 1.25"/>
    </g>
   </g>
   <g id="PolyCollection_6">
    <defs>
     <path id="mbce39c03bc" d="M 504.482008 -126.932447 
L 501.68271 -126.932447 
L 501.347988 -128.348542 
L 500.951638 -129.764638 
L 500.486937 -131.180734 
L 499.947463 -132.59683 
L 499.327345 -134.012925 
L 498.621531 -135.429021 
L 497.82607 -136.845117 
L 496.938378 -138.261212 
L 495.957496 -139.677308 
L 494.884303 -141.093404 
L 493.721697 -142.5095 
L 492.47471 -143.925595 
L 491.150564 -145.341691 
L 489.758654 -146.757787 
L 488.310465 -148.173882 
L 486.819419 -149.589978 
L 485.300652 -151.006074 
L 483.770748 -152.42217 
L 482.247421 -153.838265 
L 480.749165 -155.254361 
L 479.294885 -156.670457 
L 477.903514 -158.086552 
L 476.593632 -159.502648 
L 475.383088 -160.918744 
L 474.288635 -162.33484 
L 473.325588 -163.750935 
L 472.507495 -165.167031 
L 471.845839 -166.583127 
L 471.349766 -167.999222 
L 471.025855 -169.415318 
L 470.877922 -170.831414 
L 470.906877 -172.24751 
L 471.110641 -173.663605 
L 471.484126 -175.079701 
L 472.01929 -176.495797 
L 472.705279 -177.911892 
L 473.528642 -179.327988 
L 474.473633 -180.744084 
L 475.522589 -182.16018 
L 476.656374 -183.576275 
L 477.854873 -184.992371 
L 479.097521 -186.408467 
L 480.363841 -187.824562 
L 481.633977 -189.240658 
L 482.889196 -190.656754 
L 484.11233 -192.07285 
L 485.288158 -193.488945 
L 486.403706 -194.905041 
L 487.448447 -196.321137 
L 488.414417 -197.737232 
L 489.296231 -199.153328 
L 490.091009 -200.569424 
L 490.798237 -201.98552 
L 491.419543 -203.401615 
L 491.95844 -204.817711 
L 492.420022 -206.233807 
L 492.810648 -207.649903 
L 493.137616 -209.065998 
L 493.408858 -210.482094 
L 493.632638 -211.89819 
L 493.817298 -213.314285 
L 493.971033 -214.730381 
L 494.101702 -216.146477 
L 494.216687 -217.562573 
L 494.322786 -218.978668 
L 494.426145 -220.394764 
L 494.532218 -221.81086 
L 494.64575 -223.226955 
L 494.770782 -224.643051 
L 494.910661 -226.059147 
L 495.068067 -227.475243 
L 495.245027 -228.891338 
L 495.442938 -230.307434 
L 495.662588 -231.72353 
L 495.904168 -233.139625 
L 496.167289 -234.555721 
L 496.451001 -235.971817 
L 496.753812 -237.387913 
L 497.073725 -238.804008 
L 497.408276 -240.220104 
L 497.754594 -241.6362 
L 498.10947 -243.052295 
L 498.469447 -244.468391 
L 498.830907 -245.884487 
L 499.190187 -247.300583 
L 499.543677 -248.716678 
L 499.887935 -250.132774 
L 500.219783 -251.54887 
L 500.536395 -252.964965 
L 500.835374 -254.381061 
L 501.114796 -255.797157 
L 501.37325 -257.213253 
L 501.609839 -258.629348 
L 501.824173 -260.045444 
L 502.016334 -261.46154 
L 502.18683 -262.877635 
L 502.336535 -264.293731 
L 502.466621 -265.709827 
L 502.578487 -267.125923 
L 503.586232 -267.125923 
L 503.586232 -267.125923 
L 503.698097 -265.709827 
L 503.828183 -264.293731 
L 503.977888 -262.877635 
L 504.148384 -261.46154 
L 504.340545 -260.045444 
L 504.554879 -258.629348 
L 504.791468 -257.213253 
L 505.049922 -255.797157 
L 505.329344 -254.381061 
L 505.628323 -252.964965 
L 505.944935 -251.54887 
L 506.276783 -250.132774 
L 506.621041 -248.716678 
L 506.974531 -247.300583 
L 507.333811 -245.884487 
L 507.695272 -244.468391 
L 508.055248 -243.052295 
L 508.410125 -241.6362 
L 508.756442 -240.220104 
L 509.090993 -238.804008 
L 509.410906 -237.387913 
L 509.713717 -235.971817 
L 509.997429 -234.555721 
L 510.260551 -233.139625 
L 510.502131 -231.72353 
L 510.72178 -230.307434 
L 510.919692 -228.891338 
L 511.096651 -227.475243 
L 511.254057 -226.059147 
L 511.393937 -224.643051 
L 511.518968 -223.226955 
L 511.6325 -221.81086 
L 511.738573 -220.394764 
L 511.841932 -218.978668 
L 511.948031 -217.562573 
L 512.063016 -216.146477 
L 512.193685 -214.730381 
L 512.34742 -213.314285 
L 512.532081 -211.89819 
L 512.75586 -210.482094 
L 513.027102 -209.065998 
L 513.354071 -207.649903 
L 513.744696 -206.233807 
L 514.206278 -204.817711 
L 514.745175 -203.401615 
L 515.366481 -201.98552 
L 516.073709 -200.569424 
L 516.868488 -199.153328 
L 517.750301 -197.737232 
L 518.716271 -196.321137 
L 519.761012 -194.905041 
L 520.87656 -193.488945 
L 522.052389 -192.07285 
L 523.275522 -190.656754 
L 524.530741 -189.240658 
L 525.800877 -187.824562 
L 527.067197 -186.408467 
L 528.309845 -184.992371 
L 529.508344 -183.576275 
L 530.642129 -182.16018 
L 531.691085 -180.744084 
L 532.636076 -179.327988 
L 533.459439 -177.911892 
L 534.145428 -176.495797 
L 534.680593 -175.079701 
L 535.054077 -173.663605 
L 535.257841 -172.24751 
L 535.286796 -170.831414 
L 535.138863 -169.415318 
L 534.814952 -167.999222 
L 534.31888 -166.583127 
L 533.657223 -165.167031 
L 532.83913 -163.750935 
L 531.876083 -162.33484 
L 530.781631 -160.918744 
L 529.571086 -159.502648 
L 528.261204 -158.086552 
L 526.869833 -156.670457 
L 525.415553 -155.254361 
L 523.917297 -153.838265 
L 522.39397 -152.42217 
L 520.864066 -151.006074 
L 519.345299 -149.589978 
L 517.854253 -148.173882 
L 516.406065 -146.757787 
L 515.014155 -145.341691 
L 513.690008 -143.925595 
L 512.443021 -142.5095 
L 511.280415 -141.093404 
L 510.207222 -139.677308 
L 509.22634 -138.261212 
L 508.338648 -136.845117 
L 507.543187 -135.429021 
L 506.837373 -134.012925 
L 506.217255 -132.59683 
L 505.677781 -131.180734 
L 505.21308 -129.764638 
L 504.81673 -128.348542 
L 504.482008 -126.932447 
z
" style="stroke: #3f3f3f; stroke-width: 1.25"/>
    </defs>
    <g clip-path="url(#pd10f8baf82)">
     <use xlink:href="#mbce39c03bc" x="0" y="360" style="fill: #e1812c; stroke: #3f3f3f; stroke-width: 1.25"/>
    </g>
   </g>
   <g id="PolyCollection_7">
    <defs>
     <path id="m7c073292c0" d="M 600.346699 -55.292727 
L 599.044642 -55.292727 
L 598.914601 -57.986208 
L 598.764882 -60.679688 
L 598.593798 -63.373168 
L 598.399737 -66.066648 
L 598.181201 -68.760129 
L 597.936839 -71.453609 
L 597.665472 -74.147089 
L 597.366121 -76.840569 
L 597.038025 -79.53405 
L 596.680646 -82.22753 
L 596.293675 -84.92101 
L 595.877025 -87.61449 
L 595.430818 -90.307971 
L 594.955369 -93.001451 
L 594.451171 -95.694931 
L 593.918868 -98.388411 
L 593.359244 -101.081892 
L 592.773215 -103.775372 
L 592.161818 -106.468852 
L 591.526223 -109.162332 
L 590.867749 -111.855813 
L 590.187889 -114.549293 
L 589.488347 -117.242773 
L 588.77108 -119.936253 
L 588.038345 -122.629734 
L 587.292748 -125.323214 
L 586.53729 -128.016694 
L 585.775402 -130.710174 
L 585.01097 -133.403655 
L 584.248356 -136.097135 
L 583.492385 -138.790615 
L 582.748329 -141.484096 
L 582.021862 -144.177576 
L 581.319003 -146.871056 
L 580.646035 -149.564536 
L 580.009409 -152.258017 
L 579.415637 -154.951497 
L 578.871164 -157.644977 
L 578.382238 -160.338457 
L 577.954768 -163.031938 
L 577.594178 -165.725418 
L 577.305256 -168.418898 
L 577.092011 -171.112378 
L 576.957529 -173.805859 
L 576.903838 -176.499339 
L 576.931797 -179.192819 
L 577.040989 -181.886299 
L 577.229656 -184.57978 
L 577.494656 -187.27326 
L 577.831466 -189.96674 
L 578.234219 -192.66022 
L 578.695801 -195.353701 
L 579.20799 -198.047181 
L 579.761644 -200.740661 
L 580.346943 -203.434141 
L 580.953664 -206.127622 
L 581.571489 -208.821102 
L 582.19034 -211.514582 
L 582.800707 -214.208062 
L 583.39398 -216.901543 
L 583.962741 -219.595023 
L 584.501023 -222.288503 
L 585.00451 -224.981983 
L 585.470665 -227.675464 
L 585.898787 -230.368944 
L 586.289978 -233.062424 
L 586.647036 -235.755904 
L 586.974266 -238.449385 
L 587.277225 -241.142865 
L 587.562413 -243.836345 
L 587.836926 -246.529826 
L 588.108085 -249.223306 
L 588.383073 -251.916786 
L 588.668581 -254.610266 
L 588.970498 -257.303747 
L 589.29365 -259.997227 
L 589.641599 -262.690707 
L 590.016517 -265.384187 
L 590.419134 -268.077668 
L 590.848756 -270.771148 
L 591.303353 -273.464628 
L 591.779704 -276.158108 
L 592.273595 -278.851589 
L 592.780042 -281.545069 
L 593.293546 -284.238549 
L 593.808338 -286.932029 
L 594.318635 -289.62551 
L 594.818858 -292.31899 
L 595.303833 -295.01247 
L 595.768955 -297.70595 
L 596.210302 -300.399431 
L 596.624721 -303.092911 
L 597.009861 -305.786391 
L 597.364179 -308.479871 
L 597.686902 -311.173352 
L 597.977968 -313.866832 
L 598.23795 -316.560312 
L 598.467954 -319.253792 
L 598.669522 -321.947273 
L 600.721819 -321.947273 
L 600.721819 -321.947273 
L 600.923387 -319.253792 
L 601.153391 -316.560312 
L 601.413372 -313.866832 
L 601.704439 -311.173352 
L 602.027161 -308.479871 
L 602.381479 -305.786391 
L 602.76662 -303.092911 
L 603.181039 -300.399431 
L 603.622386 -297.70595 
L 604.087507 -295.01247 
L 604.572483 -292.31899 
L 605.072706 -289.62551 
L 605.583002 -286.932029 
L 606.097795 -284.238549 
L 606.611298 -281.545069 
L 607.117746 -278.851589 
L 607.611636 -276.158108 
L 608.087988 -273.464628 
L 608.542584 -270.771148 
L 608.972206 -268.077668 
L 609.374823 -265.384187 
L 609.749742 -262.690707 
L 610.09769 -259.997227 
L 610.420842 -257.303747 
L 610.72276 -254.610266 
L 611.008268 -251.916786 
L 611.283256 -249.223306 
L 611.554415 -246.529826 
L 611.828928 -243.836345 
L 612.114116 -241.142865 
L 612.417075 -238.449385 
L 612.744305 -235.755904 
L 613.101363 -233.062424 
L 613.492554 -230.368944 
L 613.920676 -227.675464 
L 614.386831 -224.981983 
L 614.890318 -222.288503 
L 615.4286 -219.595023 
L 615.99736 -216.901543 
L 616.590633 -214.208062 
L 617.201001 -211.514582 
L 617.819852 -208.821102 
L 618.437677 -206.127622 
L 619.044397 -203.434141 
L 619.629696 -200.740661 
L 620.183351 -198.047181 
L 620.695539 -195.353701 
L 621.157122 -192.66022 
L 621.559875 -189.96674 
L 621.896684 -187.27326 
L 622.161685 -184.57978 
L 622.350352 -181.886299 
L 622.459544 -179.192819 
L 622.487502 -176.499339 
L 622.433812 -173.805859 
L 622.299329 -171.112378 
L 622.086084 -168.418898 
L 621.797163 -165.725418 
L 621.436572 -163.031938 
L 621.009103 -160.338457 
L 620.520177 -157.644977 
L 619.975704 -154.951497 
L 619.381931 -152.258017 
L 618.745306 -149.564536 
L 618.072337 -146.871056 
L 617.369478 -144.177576 
L 616.643012 -141.484096 
L 615.898955 -138.790615 
L 615.142984 -136.097135 
L 614.38037 -133.403655 
L 613.615939 -130.710174 
L 612.85405 -128.016694 
L 612.098592 -125.323214 
L 611.352996 -122.629734 
L 610.620261 -119.936253 
L 609.902993 -117.242773 
L 609.203451 -114.549293 
L 608.523591 -111.855813 
L 607.865117 -109.162332 
L 607.229523 -106.468852 
L 606.618126 -103.775372 
L 606.032096 -101.081892 
L 605.472473 -98.388411 
L 604.94017 -95.694931 
L 604.435971 -93.001451 
L 603.960523 -90.307971 
L 603.514316 -87.61449 
L 603.097665 -84.92101 
L 602.710694 -82.22753 
L 602.353315 -79.53405 
L 602.025219 -76.840569 
L 601.725869 -74.147089 
L 601.454502 -71.453609 
L 601.210139 -68.760129 
L 600.991604 -66.066648 
L 600.797543 -63.373168 
L 600.626458 -60.679688 
L 600.476739 -57.986208 
L 600.346699 -55.292727 
z
" style="stroke: #3f3f3f; stroke-width: 1.25"/>
    </defs>
    <g clip-path="url(#pd10f8baf82)">
     <use xlink:href="#m7c073292c0" x="0" y="360" style="fill: #3274a1; stroke: #3f3f3f; stroke-width: 1.25"/>
    </g>
   </g>
   <g id="PolyCollection_8">
    <defs>
     <path id="m46e811dee5" d="M 664.967421 -106.264202 
L 663.241667 -106.264202 
L 663.071166 -107.475028 
L 662.876075 -108.685853 
L 662.654789 -109.896679 
L 662.405961 -111.107505 
L 662.128576 -112.31833 
L 661.822005 -113.529156 
L 661.486052 -114.739981 
L 661.120989 -115.950807 
L 660.727571 -117.161632 
L 660.307027 -118.372458 
L 659.861029 -119.583283 
L 659.39164 -120.794109 
L 658.901231 -122.004934 
L 658.392389 -123.21576 
L 657.867796 -124.426586 
L 657.3301 -125.637411 
L 656.781785 -126.848237 
L 656.225042 -128.059062 
L 655.661642 -129.269888 
L 655.092838 -130.480713 
L 654.519287 -131.691539 
L 653.941001 -132.902364 
L 653.35734 -134.11319 
L 652.767037 -135.324016 
L 652.16827 -136.534841 
L 651.558765 -137.745667 
L 650.935941 -138.956492 
L 650.297074 -140.167318 
L 649.639498 -141.378143 
L 648.960802 -142.588969 
L 648.259042 -143.799794 
L 647.532941 -145.01062 
L 646.782073 -146.221445 
L 646.007022 -147.432271 
L 645.209496 -148.643097 
L 644.392409 -149.853922 
L 643.559908 -151.064748 
L 642.717347 -152.275573 
L 641.871206 -153.486399 
L 641.028962 -154.697224 
L 640.198903 -155.90805 
L 639.389912 -157.118875 
L 638.611201 -158.329701 
L 637.872032 -159.540526 
L 637.181428 -160.751352 
L 636.547874 -161.962178 
L 635.979049 -163.173003 
L 635.481569 -164.383829 
L 635.060789 -165.594654 
L 634.720637 -166.80548 
L 634.463526 -168.016305 
L 634.290313 -169.227131 
L 634.200337 -170.437956 
L 634.191514 -171.648782 
L 634.260498 -172.859607 
L 634.402888 -174.070433 
L 634.613481 -175.281259 
L 634.886545 -176.492084 
L 635.216112 -177.70291 
L 635.596262 -178.913735 
L 636.02139 -180.124561 
L 636.486438 -181.335386 
L 636.987078 -182.546212 
L 637.519849 -183.757037 
L 638.082216 -184.967863 
L 638.672575 -186.178689 
L 639.290191 -187.389514 
L 639.935072 -188.60034 
L 640.607796 -189.811165 
L 641.309303 -191.021991 
L 642.04065 -192.232816 
L 642.802768 -193.443642 
L 643.59622 -194.654467 
L 644.420981 -195.865293 
L 645.276252 -197.076118 
L 646.160325 -198.286944 
L 647.070498 -199.49777 
L 648.003054 -200.708595 
L 648.953294 -201.919421 
L 649.915635 -203.130246 
L 650.883754 -204.341072 
L 651.850773 -205.551897 
L 652.809478 -206.762723 
L 653.752552 -207.973548 
L 654.672809 -209.184374 
L 655.563427 -210.395199 
L 656.418155 -211.606025 
L 657.231485 -212.816851 
L 657.998797 -214.027676 
L 658.716453 -215.238502 
L 659.381851 -216.449327 
L 659.993435 -217.660153 
L 660.550664 -218.870978 
L 661.053949 -220.081804 
L 661.504553 -221.292629 
L 661.904483 -222.503455 
L 662.256354 -223.71428 
L 662.563258 -224.925106 
L 662.828628 -226.135932 
L 665.380461 -226.135932 
L 665.380461 -226.135932 
L 665.64583 -224.925106 
L 665.952735 -223.71428 
L 666.304606 -222.503455 
L 666.704536 -221.292629 
L 667.15514 -220.081804 
L 667.658424 -218.870978 
L 668.215654 -217.660153 
L 668.827238 -216.449327 
L 669.492636 -215.238502 
L 670.210292 -214.027676 
L 670.977604 -212.816851 
L 671.790934 -211.606025 
L 672.645661 -210.395199 
L 673.53628 -209.184374 
L 674.456537 -207.973548 
L 675.399611 -206.762723 
L 676.358316 -205.551897 
L 677.325335 -204.341072 
L 678.293454 -203.130246 
L 679.255795 -201.919421 
L 680.206035 -200.708595 
L 681.138591 -199.49777 
L 682.048764 -198.286944 
L 682.932837 -197.076118 
L 683.788108 -195.865293 
L 684.612868 -194.654467 
L 685.406321 -193.443642 
L 686.168439 -192.232816 
L 686.899786 -191.021991 
L 687.601292 -189.811165 
L 688.274017 -188.60034 
L 688.918898 -187.389514 
L 689.536514 -186.178689 
L 690.126873 -184.967863 
L 690.68924 -183.757037 
L 691.22201 -182.546212 
L 691.722651 -181.335386 
L 692.187698 -180.124561 
L 692.612827 -178.913735 
L 692.992977 -177.70291 
L 693.322544 -176.492084 
L 693.595608 -175.281259 
L 693.8062 -174.070433 
L 693.948591 -172.859607 
L 694.017575 -171.648782 
L 694.008752 -170.437956 
L 693.918775 -169.227131 
L 693.745563 -168.016305 
L 693.488451 -166.80548 
L 693.1483 -165.594654 
L 692.72752 -164.383829 
L 692.23004 -163.173003 
L 691.661214 -161.962178 
L 691.027661 -160.751352 
L 690.337057 -159.540526 
L 689.597888 -158.329701 
L 688.819177 -157.118875 
L 688.010185 -155.90805 
L 687.180127 -154.697224 
L 686.337882 -153.486399 
L 685.491741 -152.275573 
L 684.64918 -151.064748 
L 683.81668 -149.853922 
L 682.999593 -148.643097 
L 682.202067 -147.432271 
L 681.427015 -146.221445 
L 680.676148 -145.01062 
L 679.950047 -143.799794 
L 679.248287 -142.588969 
L 678.569591 -141.378143 
L 677.912014 -140.167318 
L 677.273148 -138.956492 
L 676.650324 -137.745667 
L 676.040819 -136.534841 
L 675.442052 -135.324016 
L 674.851749 -134.11319 
L 674.268088 -132.902364 
L 673.689802 -131.691539 
L 673.116251 -130.480713 
L 672.547447 -129.269888 
L 671.984047 -128.059062 
L 671.427303 -126.848237 
L 670.878989 -125.637411 
L 670.341293 -124.426586 
L 669.816699 -123.21576 
L 669.307858 -122.004934 
L 668.817449 -120.794109 
L 668.348059 -119.583283 
L 667.902061 -118.372458 
L 667.481517 -117.161632 
L 667.0881 -115.950807 
L 666.723037 -114.739981 
L 666.387084 -113.529156 
L 666.080513 -112.31833 
L 665.803128 -111.107505 
L 665.5543 -109.896679 
L 665.333014 -108.685853 
L 665.137923 -107.475028 
L 664.967421 -106.264202 
z
" style="stroke: #3f3f3f; stroke-width: 1.25"/>
    </defs>
    <g clip-path="url(#pd10f8baf82)">
     <use xlink:href="#m46e811dee5" x="0" y="360" style="fill: #e1812c; stroke: #3f3f3f; stroke-width: 1.25"/>
    </g>
   </g>
   <g id="patch_6">
    <path d="M 470.877922 267.255944 
L 470.877922 267.255944 
L 470.877922 267.255944 
L 470.877922 267.255944 
z
" clip-path="url(#pd10f8baf82)" style="fill: #3274a1; stroke: #3f3f3f; stroke-width: 1.25; stroke-linejoin: miter"/>
   </g>
   <g id="patch_7">
    <path d="M 470.877922 267.255944 
L 470.877922 267.255944 
L 470.877922 267.255944 
L 470.877922 267.255944 
z
" clip-path="url(#pd10f8baf82)" style="fill: #e1812c; stroke: #3f3f3f; stroke-width: 1.25; stroke-linejoin: miter"/>
   </g>
   <g id="line2d_31">
    <path d="M 438.673485 212.212279 
L 438.673485 93.059151 
" clip-path="url(#pd10f8baf82)" style="fill: none; stroke: #3f3f3f; stroke-width: 1.875; stroke-linecap: round"/>
   </g>
   <g id="line2d_32">
    <path d="M 438.673485 175.640783 
L 438.673485 132.910592 
" clip-path="url(#pd10f8baf82)" style="fill: none; stroke: #3f3f3f; stroke-width: 5.625; stroke-linecap: round"/>
   </g>
   <g id="line2d_33">
    <path d="M 438.673485 155.507718 
" clip-path="url(#pd10f8baf82)" style="fill: none; stroke: #3f3f3f; stroke-width: 1.5; stroke-linecap: round"/>
    <g clip-path="url(#pd10f8baf82)">
     <use xlink:href="#mc031154c03" x="438.673485" y="155.507718" style="fill: #ffffff; stroke: #ffffff; stroke-width: 1.125"/>
    </g>
   </g>
   <g id="line2d_34">
    <path d="M 503.082359 204.307764 
L 503.082359 148.843979 
" clip-path="url(#pd10f8baf82)" style="fill: none; stroke: #3f3f3f; stroke-width: 1.875; stroke-linecap: round"/>
   </g>
   <g id="line2d_35">
    <path d="M 503.082359 193.828719 
L 503.082359 171.610193 
" clip-path="url(#pd10f8baf82)" style="fill: none; stroke: #3f3f3f; stroke-width: 5.625; stroke-linecap: round"/>
   </g>
   <g id="line2d_36">
    <path d="M 503.082359 185.42257 
" clip-path="url(#pd10f8baf82)" style="fill: none; stroke: #3f3f3f; stroke-width: 1.5; stroke-linecap: round"/>
    <g clip-path="url(#pd10f8baf82)">
     <use xlink:href="#mc031154c03" x="503.082359" y="185.42257" style="fill: #ffffff; stroke: #ffffff; stroke-width: 1.125"/>
    </g>
   </g>
   <g id="line2d_37">
    <path d="M 599.69567 243.678721 
L 599.69567 99.081279 
" clip-path="url(#pd10f8baf82)" style="fill: none; stroke: #3f3f3f; stroke-width: 1.875; stroke-linecap: round"/>
   </g>
   <g id="line2d_38">
    <path d="M 599.69567 204.254641 
L 599.69567 156.802121 
" clip-path="url(#pd10f8baf82)" style="fill: none; stroke: #3f3f3f; stroke-width: 5.625; stroke-linecap: round"/>
   </g>
   <g id="line2d_39">
    <path d="M 599.69567 170.119351 
" clip-path="url(#pd10f8baf82)" style="fill: none; stroke: #3f3f3f; stroke-width: 1.5; stroke-linecap: round"/>
    <g clip-path="url(#pd10f8baf82)">
     <use xlink:href="#mc031154c03" x="599.69567" y="170.119351" style="fill: #ffffff; stroke: #ffffff; stroke-width: 1.125"/>
    </g>
   </g>
   <g id="line2d_40">
    <path d="M 664.104544 226.669898 
L 664.104544 160.929968 
" clip-path="url(#pd10f8baf82)" style="fill: none; stroke: #3f3f3f; stroke-width: 1.875; stroke-linecap: round"/>
   </g>
   <g id="line2d_41">
    <path d="M 664.104544 198.505749 
L 664.104544 176.507623 
" clip-path="url(#pd10f8baf82)" style="fill: none; stroke: #3f3f3f; stroke-width: 5.625; stroke-linecap: round"/>
   </g>
   <g id="line2d_42">
    <path d="M 664.104544 190.325944 
" clip-path="url(#pd10f8baf82)" style="fill: none; stroke: #3f3f3f; stroke-width: 1.5; stroke-linecap: round"/>
    <g clip-path="url(#pd10f8baf82)">
     <use xlink:href="#mc031154c03" x="664.104544" y="190.325944" style="fill: #ffffff; stroke: #ffffff; stroke-width: 1.125"/>
    </g>
   </g>
   <g id="patch_8">
    <path d="M 390.366829 318.04 
L 390.366829 24.72 
" style="fill: none; stroke: #cccccc; stroke-width: 0.8; stroke-linejoin: miter; stroke-linecap: square"/>
   </g>
   <g id="patch_9">
    <path d="M 390.366829 318.04 
L 712.4112 318.04 
" style="fill: none; stroke: #cccccc; stroke-width: 0.8; stroke-linejoin: miter; stroke-linecap: square"/>
   </g>
   <g id="text_18">
    <!-- sex = m -->
    <g style="fill: #262626" transform="translate(533.745265 18.72) scale(0.1 -0.1)">
     <defs>
      <path id="ArialMT-6d" d="M 422 0 
L 422 3319 
L 925 3319 
L 925 2853 
Q 1081 3097 1340 3245 
Q 1600 3394 1931 3394 
Q 2300 3394 2536 3241 
Q 2772 3088 2869 2813 
Q 3263 3394 3894 3394 
Q 4388 3394 4653 3120 
Q 4919 2847 4919 2278 
L 4919 0 
L 4359 0 
L 4359 2091 
Q 4359 2428 4304 2576 
Q 4250 2725 4106 2815 
Q 3963 2906 3769 2906 
Q 3419 2906 3187 2673 
Q 2956 2441 2956 1928 
L 2956 0 
L 2394 0 
L 2394 2156 
Q 2394 2531 2256 2718 
Q 2119 2906 1806 2906 
Q 1569 2906 1367 2781 
Q 1166 2656 1075 2415 
Q 984 2175 984 1722 
L 984 0 
L 422 0 
z
" transform="scale(0.015625)"/>
     </defs>
     <use xlink:href="#ArialMT-73"/>
     <use xlink:href="#ArialMT-65" x="50"/>
     <use xlink:href="#ArialMT-78" x="105.615234"/>
     <use xlink:href="#ArialMT-20" x="155.615234"/>
     <use xlink:href="#ArialMT-3d" x="183.398438"/>
     <use xlink:href="#ArialMT-20" x="241.796875"/>
     <use xlink:href="#ArialMT-6d" x="269.580078"/>
    </g>
   </g>
  </g>
  <g id="legend_1">
   <g id="text_19">
    <!-- time -->
    <g style="fill: #262626" transform="translate(725.045625 168.439844) scale(0.1 -0.1)">
     <use xlink:href="#ArialMT-74"/>
     <use xlink:href="#ArialMT-69" x="27.783203"/>
     <use xlink:href="#ArialMT-6d" x="50"/>
     <use xlink:href="#ArialMT-65" x="133.300781"/>
    </g>
   </g>
   <g id="patch_10">
    <path d="M 719.101875 182.585156 
L 739.101875 182.585156 
L 739.101875 175.585156 
L 719.101875 175.585156 
z
" style="fill: #3274a1; stroke: #3f3f3f; stroke-width: 1.25; stroke-linejoin: miter"/>
   </g>
   <g id="text_20">
    <!-- i -->
    <g style="fill: #262626" transform="translate(747.101875 182.585156) scale(0.1 -0.1)">
     <use xlink:href="#ArialMT-69"/>
    </g>
   </g>
   <g id="patch_11">
    <path d="M 719.101875 196.730469 
L 739.101875 196.730469 
L 739.101875 189.730469 
L 719.101875 189.730469 
z
" style="fill: #e1812c; stroke: #3f3f3f; stroke-width: 1.25; stroke-linejoin: miter"/>
   </g>
   <g id="text_21">
    <!-- f -->
    <g style="fill: #262626" transform="translate(747.101875 196.730469) scale(0.1 -0.1)">
     <use xlink:href="#ArialMT-66"/>
    </g>
   </g>
  </g>
 </g>
 <defs>
  <clipPath id="pb0a8af1b8d">
   <rect x="57.518097" y="24.72" width="322.044371" height="293.32"/>
  </clipPath>
  <clipPath id="pd10f8baf82">
   <rect x="390.366829" y="24.72" width="322.044371" height="293.32"/>
  </clipPath>
 </defs>
</svg>
