<?xml version="1.0" encoding="utf-8" standalone="no"?>
<!DOCTYPE svg PUBLIC "-//W3C//DTD SVG 1.1//EN"
  "http://www.w3.org/Graphics/SVG/1.1/DTD/svg11.dtd">
<svg xmlns:xlink="http://www.w3.org/1999/xlink" width="758.88pt" height="360pt" viewBox="0 0 758.88 360" xmlns="http://www.w3.org/2000/svg" version="1.1">
 <metadata>
  <rdf:RDF xmlns:dc="http://purl.org/dc/elements/1.1/" xmlns:cc="http://creativecommons.org/ns#" xmlns:rdf="http://www.w3.org/1999/02/22-rdf-syntax-ns#">
   <cc:Work>
    <dc:type rdf:resource="http://purl.org/dc/dcmitype/StillImage"/>
    <dc:date>2024-09-11T03:22:47.316679</dc:date>
    <dc:format>image/svg+xml</dc:format>
    <dc:creator>
     <cc:Agent>
      <dc:title>Matplotlib v3.8.3, https://matplotlib.org/</dc:title>
     </cc:Agent>
    </dc:creator>
   </cc:Work>
  </rdf:RDF>
 </metadata>
 <defs>
  <style type="text/css">*{stroke-linejoin: round; stroke-linecap: butt}</style>
 </defs>
 <g id="figure_1">
  <g id="patch_1">
   <path d="M 0 360 
L 758.88 360 
L 758.88 0 
L 0 0 
z
" style="fill: #ffffff"/>
  </g>
  <g id="axes_1">
   <g id="patch_2">
    <path d="M 51.352198 318.04 
L 376.476955 318.04 
L 376.476955 24.72 
L 51.352198 24.72 
z
" style="fill: #ffffff"/>
   </g>
   <g id="matplotlib.axis_1">
    <g id="xtick_1">
     <g id="text_1">
      <!-- Jurilovca -->
      <g style="fill: #262626" transform="translate(112.905262 332.197812) scale(0.1 -0.1)">
       <defs>
        <path id="ArialMT-4a" d="M 184 1300 
L 731 1375 
Q 753 850 928 656 
Q 1103 463 1413 463 
Q 1641 463 1806 567 
Q 1972 672 2034 851 
Q 2097 1031 2097 1425 
L 2097 4581 
L 2703 4581 
L 2703 1459 
Q 2703 884 2564 568 
Q 2425 253 2123 87 
Q 1822 -78 1416 -78 
Q 813 -78 492 269 
Q 172 616 184 1300 
z
" transform="scale(0.015625)"/>
        <path id="ArialMT-75" d="M 2597 0 
L 2597 488 
Q 2209 -75 1544 -75 
Q 1250 -75 995 37 
Q 741 150 617 320 
Q 494 491 444 738 
Q 409 903 409 1263 
L 409 3319 
L 972 3319 
L 972 1478 
Q 972 1038 1006 884 
Q 1059 663 1231 536 
Q 1403 409 1656 409 
Q 1909 409 2131 539 
Q 2353 669 2445 892 
Q 2538 1116 2538 1541 
L 2538 3319 
L 3100 3319 
L 3100 0 
L 2597 0 
z
" transform="scale(0.015625)"/>
        <path id="ArialMT-72" d="M 416 0 
L 416 3319 
L 922 3319 
L 922 2816 
Q 1116 3169 1280 3281 
Q 1444 3394 1641 3394 
Q 1925 3394 2219 3213 
L 2025 2691 
Q 1819 2813 1613 2813 
Q 1428 2813 1281 2702 
Q 1134 2591 1072 2394 
Q 978 2094 978 1738 
L 978 0 
L 416 0 
z
" transform="scale(0.015625)"/>
        <path id="ArialMT-69" d="M 425 3934 
L 425 4581 
L 988 4581 
L 988 3934 
L 425 3934 
z
M 425 0 
L 425 3319 
L 988 3319 
L 988 0 
L 425 0 
z
" transform="scale(0.015625)"/>
        <path id="ArialMT-6c" d="M 409 0 
L 409 4581 
L 972 4581 
L 972 0 
L 409 0 
z
" transform="scale(0.015625)"/>
        <path id="ArialMT-6f" d="M 213 1659 
Q 213 2581 725 3025 
Q 1153 3394 1769 3394 
Q 2453 3394 2887 2945 
Q 3322 2497 3322 1706 
Q 3322 1066 3130 698 
Q 2938 331 2570 128 
Q 2203 -75 1769 -75 
Q 1072 -75 642 372 
Q 213 819 213 1659 
z
M 791 1659 
Q 791 1022 1069 705 
Q 1347 388 1769 388 
Q 2188 388 2466 706 
Q 2744 1025 2744 1678 
Q 2744 2294 2464 2611 
Q 2184 2928 1769 2928 
Q 1347 2928 1069 2612 
Q 791 2297 791 1659 
z
" transform="scale(0.015625)"/>
        <path id="ArialMT-76" d="M 1344 0 
L 81 3319 
L 675 3319 
L 1388 1331 
Q 1503 1009 1600 663 
Q 1675 925 1809 1294 
L 2547 3319 
L 3125 3319 
L 1869 0 
L 1344 0 
z
" transform="scale(0.015625)"/>
        <path id="ArialMT-63" d="M 2588 1216 
L 3141 1144 
Q 3050 572 2676 248 
Q 2303 -75 1759 -75 
Q 1078 -75 664 370 
Q 250 816 250 1647 
Q 250 2184 428 2587 
Q 606 2991 970 3192 
Q 1334 3394 1763 3394 
Q 2303 3394 2647 3120 
Q 2991 2847 3088 2344 
L 2541 2259 
Q 2463 2594 2264 2762 
Q 2066 2931 1784 2931 
Q 1359 2931 1093 2626 
Q 828 2322 828 1663 
Q 828 994 1084 691 
Q 1341 388 1753 388 
Q 2084 388 2306 591 
Q 2528 794 2588 1216 
z
" transform="scale(0.015625)"/>
        <path id="ArialMT-61" d="M 2588 409 
Q 2275 144 1986 34 
Q 1697 -75 1366 -75 
Q 819 -75 525 192 
Q 231 459 231 875 
Q 231 1119 342 1320 
Q 453 1522 633 1644 
Q 813 1766 1038 1828 
Q 1203 1872 1538 1913 
Q 2219 1994 2541 2106 
Q 2544 2222 2544 2253 
Q 2544 2597 2384 2738 
Q 2169 2928 1744 2928 
Q 1347 2928 1158 2789 
Q 969 2650 878 2297 
L 328 2372 
Q 403 2725 575 2942 
Q 747 3159 1072 3276 
Q 1397 3394 1825 3394 
Q 2250 3394 2515 3294 
Q 2781 3194 2906 3042 
Q 3031 2891 3081 2659 
Q 3109 2516 3109 2141 
L 3109 1391 
Q 3109 606 3145 398 
Q 3181 191 3288 0 
L 2700 0 
Q 2613 175 2588 409 
z
M 2541 1666 
Q 2234 1541 1622 1453 
Q 1275 1403 1131 1340 
Q 988 1278 909 1158 
Q 831 1038 831 891 
Q 831 666 1001 516 
Q 1172 366 1500 366 
Q 1825 366 2078 508 
Q 2331 650 2450 897 
Q 2541 1088 2541 1459 
L 2541 1666 
z
" transform="scale(0.015625)"/>
       </defs>
       <use xlink:href="#ArialMT-4a"/>
       <use xlink:href="#ArialMT-75" x="50"/>
       <use xlink:href="#ArialMT-72" x="105.615234"/>
       <use xlink:href="#ArialMT-69" x="138.916016"/>
       <use xlink:href="#ArialMT-6c" x="161.132812"/>
       <use xlink:href="#ArialMT-6f" x="183.349609"/>
       <use xlink:href="#ArialMT-76" x="238.964844"/>
       <use xlink:href="#ArialMT-63" x="288.964844"/>
       <use xlink:href="#ArialMT-61" x="338.964844"/>
      </g>
     </g>
    </g>
    <g id="xtick_2">
     <g id="text_2">
      <!-- Baia -->
      <g style="fill: #262626" transform="translate(285.188734 332.197812) scale(0.1 -0.1)">
       <defs>
        <path id="ArialMT-42" d="M 469 0 
L 469 4581 
L 2188 4581 
Q 2713 4581 3030 4442 
Q 3347 4303 3526 4014 
Q 3706 3725 3706 3409 
Q 3706 3116 3547 2856 
Q 3388 2597 3066 2438 
Q 3481 2316 3704 2022 
Q 3928 1728 3928 1328 
Q 3928 1006 3792 729 
Q 3656 453 3456 303 
Q 3256 153 2954 76 
Q 2653 0 2216 0 
L 469 0 
z
M 1075 2656 
L 2066 2656 
Q 2469 2656 2644 2709 
Q 2875 2778 2992 2937 
Q 3109 3097 3109 3338 
Q 3109 3566 3000 3739 
Q 2891 3913 2687 3977 
Q 2484 4041 1991 4041 
L 1075 4041 
L 1075 2656 
z
M 1075 541 
L 2216 541 
Q 2509 541 2628 563 
Q 2838 600 2978 687 
Q 3119 775 3209 942 
Q 3300 1109 3300 1328 
Q 3300 1584 3169 1773 
Q 3038 1963 2805 2039 
Q 2572 2116 2134 2116 
L 1075 2116 
L 1075 541 
z
" transform="scale(0.015625)"/>
       </defs>
       <use xlink:href="#ArialMT-42"/>
       <use xlink:href="#ArialMT-61" x="66.699219"/>
       <use xlink:href="#ArialMT-69" x="122.314453"/>
       <use xlink:href="#ArialMT-61" x="144.53125"/>
      </g>
     </g>
    </g>
    <g id="text_3">
     <!-- location -->
     <g style="fill: #262626" transform="translate(196.681764 345.343125) scale(0.1 -0.1)">
      <defs>
       <path id="ArialMT-74" d="M 1650 503 
L 1731 6 
Q 1494 -44 1306 -44 
Q 1000 -44 831 53 
Q 663 150 594 308 
Q 525 466 525 972 
L 525 2881 
L 113 2881 
L 113 3319 
L 525 3319 
L 525 4141 
L 1084 4478 
L 1084 3319 
L 1650 3319 
L 1650 2881 
L 1084 2881 
L 1084 941 
Q 1084 700 1114 631 
Q 1144 563 1211 522 
Q 1278 481 1403 481 
Q 1497 481 1650 503 
z
" transform="scale(0.015625)"/>
       <path id="ArialMT-6e" d="M 422 0 
L 422 3319 
L 928 3319 
L 928 2847 
Q 1294 3394 1984 3394 
Q 2284 3394 2536 3286 
Q 2788 3178 2913 3003 
Q 3038 2828 3088 2588 
Q 3119 2431 3119 2041 
L 3119 0 
L 2556 0 
L 2556 2019 
Q 2556 2363 2490 2533 
Q 2425 2703 2258 2804 
Q 2091 2906 1866 2906 
Q 1506 2906 1245 2678 
Q 984 2450 984 1813 
L 984 0 
L 422 0 
z
" transform="scale(0.015625)"/>
      </defs>
      <use xlink:href="#ArialMT-6c"/>
      <use xlink:href="#ArialMT-6f" x="22.216797"/>
      <use xlink:href="#ArialMT-63" x="77.832031"/>
      <use xlink:href="#ArialMT-61" x="127.832031"/>
      <use xlink:href="#ArialMT-74" x="183.447266"/>
      <use xlink:href="#ArialMT-69" x="211.230469"/>
      <use xlink:href="#ArialMT-6f" x="233.447266"/>
      <use xlink:href="#ArialMT-6e" x="289.0625"/>
     </g>
    </g>
   </g>
   <g id="matplotlib.axis_2">
    <g id="ytick_1">
     <g id="line2d_1">
      <path d="M 51.352198 313.083316 
L 376.476955 313.083316 
" clip-path="url(#p42ffde0fd1)" style="fill: none; stroke: #cccccc; stroke-width: 0.8; stroke-linecap: round"/>
     </g>
     <g id="text_4">
      <!-- 0 -->
      <g style="fill: #262626" transform="translate(38.79126 316.662222) scale(0.1 -0.1)">
       <defs>
        <path id="ArialMT-30" d="M 266 2259 
Q 266 3072 433 3567 
Q 600 4063 929 4331 
Q 1259 4600 1759 4600 
Q 2128 4600 2406 4451 
Q 2684 4303 2865 4023 
Q 3047 3744 3150 3342 
Q 3253 2941 3253 2259 
Q 3253 1453 3087 958 
Q 2922 463 2592 192 
Q 2263 -78 1759 -78 
Q 1097 -78 719 397 
Q 266 969 266 2259 
z
M 844 2259 
Q 844 1131 1108 757 
Q 1372 384 1759 384 
Q 2147 384 2411 759 
Q 2675 1134 2675 2259 
Q 2675 3391 2411 3762 
Q 2147 4134 1753 4134 
Q 1366 4134 1134 3806 
Q 844 3388 844 2259 
z
" transform="scale(0.015625)"/>
       </defs>
       <use xlink:href="#ArialMT-30"/>
      </g>
     </g>
    </g>
    <g id="ytick_2">
     <g id="line2d_2">
      <path d="M 51.352198 272.571268 
L 376.476955 272.571268 
" clip-path="url(#p42ffde0fd1)" style="fill: none; stroke: #cccccc; stroke-width: 0.8; stroke-linecap: round"/>
     </g>
     <g id="text_5">
      <!-- 20 -->
      <g style="fill: #262626" transform="translate(33.230322 276.150175) scale(0.1 -0.1)">
       <defs>
        <path id="ArialMT-32" d="M 3222 541 
L 3222 0 
L 194 0 
Q 188 203 259 391 
Q 375 700 629 1000 
Q 884 1300 1366 1694 
Q 2113 2306 2375 2664 
Q 2638 3022 2638 3341 
Q 2638 3675 2398 3904 
Q 2159 4134 1775 4134 
Q 1369 4134 1125 3890 
Q 881 3647 878 3216 
L 300 3275 
Q 359 3922 746 4261 
Q 1134 4600 1788 4600 
Q 2447 4600 2831 4234 
Q 3216 3869 3216 3328 
Q 3216 3053 3103 2787 
Q 2991 2522 2730 2228 
Q 2469 1934 1863 1422 
Q 1356 997 1212 845 
Q 1069 694 975 541 
L 3222 541 
z
" transform="scale(0.015625)"/>
       </defs>
       <use xlink:href="#ArialMT-32"/>
       <use xlink:href="#ArialMT-30" x="55.615234"/>
      </g>
     </g>
    </g>
    <g id="ytick_3">
     <g id="line2d_3">
      <path d="M 51.352198 232.059221 
L 376.476955 232.059221 
" clip-path="url(#p42ffde0fd1)" style="fill: none; stroke: #cccccc; stroke-width: 0.8; stroke-linecap: round"/>
     </g>
     <g id="text_6">
      <!-- 40 -->
      <g style="fill: #262626" transform="translate(33.230322 235.638127) scale(0.1 -0.1)">
       <defs>
        <path id="ArialMT-34" d="M 2069 0 
L 2069 1097 
L 81 1097 
L 81 1613 
L 2172 4581 
L 2631 4581 
L 2631 1613 
L 3250 1613 
L 3250 1097 
L 2631 1097 
L 2631 0 
L 2069 0 
z
M 2069 1613 
L 2069 3678 
L 634 1613 
L 2069 1613 
z
" transform="scale(0.015625)"/>
       </defs>
       <use xlink:href="#ArialMT-34"/>
       <use xlink:href="#ArialMT-30" x="55.615234"/>
      </g>
     </g>
    </g>
    <g id="ytick_4">
     <g id="line2d_4">
      <path d="M 51.352198 191.547173 
L 376.476955 191.547173 
" clip-path="url(#p42ffde0fd1)" style="fill: none; stroke: #cccccc; stroke-width: 0.8; stroke-linecap: round"/>
     </g>
     <g id="text_7">
      <!-- 60 -->
      <g style="fill: #262626" transform="translate(33.230322 195.12608) scale(0.1 -0.1)">
       <defs>
        <path id="ArialMT-36" d="M 3184 3459 
L 2625 3416 
Q 2550 3747 2413 3897 
Q 2184 4138 1850 4138 
Q 1581 4138 1378 3988 
Q 1113 3794 959 3422 
Q 806 3050 800 2363 
Q 1003 2672 1297 2822 
Q 1591 2972 1913 2972 
Q 2475 2972 2870 2558 
Q 3266 2144 3266 1488 
Q 3266 1056 3080 686 
Q 2894 316 2569 119 
Q 2244 -78 1831 -78 
Q 1128 -78 684 439 
Q 241 956 241 2144 
Q 241 3472 731 4075 
Q 1159 4600 1884 4600 
Q 2425 4600 2770 4297 
Q 3116 3994 3184 3459 
z
M 888 1484 
Q 888 1194 1011 928 
Q 1134 663 1356 523 
Q 1578 384 1822 384 
Q 2178 384 2434 671 
Q 2691 959 2691 1453 
Q 2691 1928 2437 2201 
Q 2184 2475 1800 2475 
Q 1419 2475 1153 2201 
Q 888 1928 888 1484 
z
" transform="scale(0.015625)"/>
       </defs>
       <use xlink:href="#ArialMT-36"/>
       <use xlink:href="#ArialMT-30" x="55.615234"/>
      </g>
     </g>
    </g>
    <g id="ytick_5">
     <g id="line2d_5">
      <path d="M 51.352198 151.035126 
L 376.476955 151.035126 
" clip-path="url(#p42ffde0fd1)" style="fill: none; stroke: #cccccc; stroke-width: 0.8; stroke-linecap: round"/>
     </g>
     <g id="text_8">
      <!-- 80 -->
      <g style="fill: #262626" transform="translate(33.230322 154.614032) scale(0.1 -0.1)">
       <defs>
        <path id="ArialMT-38" d="M 1131 2484 
Q 781 2613 612 2850 
Q 444 3088 444 3419 
Q 444 3919 803 4259 
Q 1163 4600 1759 4600 
Q 2359 4600 2725 4251 
Q 3091 3903 3091 3403 
Q 3091 3084 2923 2848 
Q 2756 2613 2416 2484 
Q 2838 2347 3058 2040 
Q 3278 1734 3278 1309 
Q 3278 722 2862 322 
Q 2447 -78 1769 -78 
Q 1091 -78 675 323 
Q 259 725 259 1325 
Q 259 1772 486 2073 
Q 713 2375 1131 2484 
z
M 1019 3438 
Q 1019 3113 1228 2906 
Q 1438 2700 1772 2700 
Q 2097 2700 2305 2904 
Q 2513 3109 2513 3406 
Q 2513 3716 2298 3927 
Q 2084 4138 1766 4138 
Q 1444 4138 1231 3931 
Q 1019 3725 1019 3438 
z
M 838 1322 
Q 838 1081 952 856 
Q 1066 631 1291 507 
Q 1516 384 1775 384 
Q 2178 384 2440 643 
Q 2703 903 2703 1303 
Q 2703 1709 2433 1975 
Q 2163 2241 1756 2241 
Q 1359 2241 1098 1978 
Q 838 1716 838 1322 
z
" transform="scale(0.015625)"/>
       </defs>
       <use xlink:href="#ArialMT-38"/>
       <use xlink:href="#ArialMT-30" x="55.615234"/>
      </g>
     </g>
    </g>
    <g id="ytick_6">
     <g id="line2d_6">
      <path d="M 51.352198 110.523079 
L 376.476955 110.523079 
" clip-path="url(#p42ffde0fd1)" style="fill: none; stroke: #cccccc; stroke-width: 0.8; stroke-linecap: round"/>
     </g>
     <g id="text_9">
      <!-- 100 -->
      <g style="fill: #262626" transform="translate(27.669385 114.101985) scale(0.1 -0.1)">
       <defs>
        <path id="ArialMT-31" d="M 2384 0 
L 1822 0 
L 1822 3584 
Q 1619 3391 1289 3197 
Q 959 3003 697 2906 
L 697 3450 
Q 1169 3672 1522 3987 
Q 1875 4303 2022 4600 
L 2384 4600 
L 2384 0 
z
" transform="scale(0.015625)"/>
       </defs>
       <use xlink:href="#ArialMT-31"/>
       <use xlink:href="#ArialMT-30" x="55.615234"/>
       <use xlink:href="#ArialMT-30" x="111.230469"/>
      </g>
     </g>
    </g>
    <g id="ytick_7">
     <g id="line2d_7">
      <path d="M 51.352198 70.011031 
L 376.476955 70.011031 
" clip-path="url(#p42ffde0fd1)" style="fill: none; stroke: #cccccc; stroke-width: 0.8; stroke-linecap: round"/>
     </g>
     <g id="text_10">
      <!-- 120 -->
      <g style="fill: #262626" transform="translate(27.669385 73.589938) scale(0.1 -0.1)">
       <use xlink:href="#ArialMT-31"/>
       <use xlink:href="#ArialMT-32" x="55.615234"/>
       <use xlink:href="#ArialMT-30" x="111.230469"/>
      </g>
     </g>
    </g>
    <g id="ytick_8">
     <g id="line2d_8">
      <path d="M 51.352198 29.498984 
L 376.476955 29.498984 
" clip-path="url(#p42ffde0fd1)" style="fill: none; stroke: #cccccc; stroke-width: 0.8; stroke-linecap: round"/>
     </g>
     <g id="text_11">
      <!-- 140 -->
      <g style="fill: #262626" transform="translate(27.669385 33.07789) scale(0.1 -0.1)">
       <use xlink:href="#ArialMT-31"/>
       <use xlink:href="#ArialMT-34" x="55.615234"/>
       <use xlink:href="#ArialMT-30" x="111.230469"/>
      </g>
     </g>
    </g>
    <g id="text_12">
     <!-- carb100 -->
     <g style="fill: #262626" transform="translate(21.681885 189.447187) rotate(-90) scale(0.1 -0.1)">
      <defs>
       <path id="ArialMT-62" d="M 941 0 
L 419 0 
L 419 4581 
L 981 4581 
L 981 2947 
Q 1338 3394 1891 3394 
Q 2197 3394 2470 3270 
Q 2744 3147 2920 2923 
Q 3097 2700 3197 2384 
Q 3297 2069 3297 1709 
Q 3297 856 2875 390 
Q 2453 -75 1863 -75 
Q 1275 -75 941 416 
L 941 0 
z
M 934 1684 
Q 934 1088 1097 822 
Q 1363 388 1816 388 
Q 2184 388 2453 708 
Q 2722 1028 2722 1663 
Q 2722 2313 2464 2622 
Q 2206 2931 1841 2931 
Q 1472 2931 1203 2611 
Q 934 2291 934 1684 
z
" transform="scale(0.015625)"/>
      </defs>
      <use xlink:href="#ArialMT-63"/>
      <use xlink:href="#ArialMT-61" x="50"/>
      <use xlink:href="#ArialMT-72" x="105.615234"/>
      <use xlink:href="#ArialMT-62" x="138.916016"/>
      <use xlink:href="#ArialMT-31" x="194.53125"/>
      <use xlink:href="#ArialMT-30" x="250.146484"/>
      <use xlink:href="#ArialMT-30" x="305.761719"/>
     </g>
    </g>
   </g>
   <g id="PolyCollection_1">
    <defs>
     <path id="m578e53daae" d="M 100.283093 -123.845298 
L 99.958729 -123.845298 
L 99.932993 -125.617009 
L 99.904251 -127.38872 
L 99.872348 -129.16043 
L 99.837156 -130.932141 
L 99.798582 -132.703852 
L 99.756571 -134.475562 
L 99.711116 -136.247273 
L 99.66226 -138.018984 
L 99.610106 -139.790694 
L 99.554818 -141.562405 
L 99.496625 -143.334116 
L 99.435823 -145.105826 
L 99.372773 -146.877537 
L 99.307903 -148.649248 
L 99.241703 -150.420959 
L 99.174716 -152.192669 
L 99.107533 -153.96438 
L 99.040782 -155.736091 
L 98.975116 -157.507801 
L 98.9112 -159.279512 
L 98.849693 -161.051223 
L 98.791235 -162.822933 
L 98.736429 -164.594644 
L 98.685822 -166.366355 
L 98.63989 -168.138065 
L 98.599021 -169.909776 
L 98.563503 -171.681487 
L 98.533507 -173.453197 
L 98.509077 -175.224908 
L 98.490129 -176.996619 
L 98.476438 -178.76833 
L 98.467644 -180.54004 
L 98.463249 -182.311751 
L 98.462631 -184.083462 
L 98.465046 -185.855172 
L 98.46965 -187.626883 
L 98.475512 -189.398594 
L 98.481634 -191.170304 
L 98.486975 -192.942015 
L 98.490479 -194.713726 
L 98.491096 -196.485436 
L 98.487815 -198.257147 
L 98.479686 -200.028858 
L 98.465852 -201.800568 
L 98.445571 -203.572279 
L 98.418241 -205.34399 
L 98.38342 -207.115701 
L 98.340844 -208.887411 
L 98.290444 -210.659122 
L 98.232348 -212.430833 
L 98.166893 -214.202543 
L 98.09462 -215.974254 
L 98.016271 -217.745965 
L 97.932777 -219.517675 
L 97.845243 -221.289386 
L 97.75493 -223.061097 
L 97.663226 -224.832807 
L 97.57162 -226.604518 
L 97.481673 -228.376229 
L 97.394978 -230.147939 
L 97.313133 -231.91965 
L 97.237697 -233.691361 
L 97.17016 -235.463071 
L 97.111908 -237.234782 
L 97.064191 -239.006493 
L 97.028094 -240.778204 
L 97.004514 -242.549914 
L 96.994139 -244.321625 
L 96.997435 -246.093336 
L 97.014639 -247.865046 
L 97.04575 -249.636757 
L 97.090542 -251.408468 
L 97.148561 -253.180178 
L 97.219148 -254.951889 
L 97.301455 -256.7236 
L 97.394467 -258.49531 
L 97.497027 -260.267021 
L 97.607868 -262.038732 
L 97.725642 -263.810442 
L 97.84895 -265.582153 
L 97.976371 -267.353864 
L 98.106496 -269.125575 
L 98.237951 -270.897285 
L 98.369423 -272.668996 
L 98.499685 -274.440707 
L 98.627608 -276.212417 
L 98.752181 -277.984128 
L 98.87252 -279.755839 
L 98.987872 -281.527549 
L 99.097622 -283.29926 
L 99.201288 -285.070971 
L 99.298521 -286.842681 
L 99.389097 -288.614392 
L 99.472908 -290.386103 
L 99.54995 -292.157813 
L 99.620315 -293.929524 
L 99.684175 -295.701235 
L 99.741772 -297.472946 
L 99.793398 -299.244656 
L 100.448424 -299.244656 
L 100.448424 -299.244656 
L 100.500051 -297.472946 
L 100.557647 -295.701235 
L 100.621507 -293.929524 
L 100.691872 -292.157813 
L 100.768915 -290.386103 
L 100.852725 -288.614392 
L 100.943301 -286.842681 
L 101.040534 -285.070971 
L 101.1442 -283.29926 
L 101.25395 -281.527549 
L 101.369302 -279.755839 
L 101.489641 -277.984128 
L 101.614214 -276.212417 
L 101.742138 -274.440707 
L 101.872399 -272.668996 
L 102.003872 -270.897285 
L 102.135326 -269.125575 
L 102.265451 -267.353864 
L 102.392872 -265.582153 
L 102.51618 -263.810442 
L 102.633954 -262.038732 
L 102.744796 -260.267021 
L 102.847356 -258.49531 
L 102.940367 -256.7236 
L 103.022674 -254.951889 
L 103.093261 -253.180178 
L 103.151281 -251.408468 
L 103.196072 -249.636757 
L 103.227184 -247.865046 
L 103.244387 -246.093336 
L 103.247684 -244.321625 
L 103.237308 -242.549914 
L 103.213728 -240.778204 
L 103.177631 -239.006493 
L 103.129914 -237.234782 
L 103.071662 -235.463071 
L 103.004125 -233.691361 
L 102.928689 -231.91965 
L 102.846844 -230.147939 
L 102.76015 -228.376229 
L 102.670202 -226.604518 
L 102.578597 -224.832807 
L 102.486892 -223.061097 
L 102.396579 -221.289386 
L 102.309046 -219.517675 
L 102.225551 -217.745965 
L 102.147202 -215.974254 
L 102.074929 -214.202543 
L 102.009474 -212.430833 
L 101.951378 -210.659122 
L 101.900978 -208.887411 
L 101.858403 -207.115701 
L 101.823581 -205.34399 
L 101.796251 -203.572279 
L 101.77597 -201.800568 
L 101.762136 -200.028858 
L 101.754007 -198.257147 
L 101.750726 -196.485436 
L 101.751343 -194.713726 
L 101.754847 -192.942015 
L 101.760189 -191.170304 
L 101.76631 -189.398594 
L 101.772172 -187.626883 
L 101.776776 -185.855172 
L 101.779192 -184.083462 
L 101.778573 -182.311751 
L 101.774178 -180.54004 
L 101.765384 -178.76833 
L 101.751693 -176.996619 
L 101.732745 -175.224908 
L 101.708316 -173.453197 
L 101.678319 -171.681487 
L 101.642801 -169.909776 
L 101.601933 -168.138065 
L 101.556001 -166.366355 
L 101.505393 -164.594644 
L 101.450587 -162.822933 
L 101.392129 -161.051223 
L 101.330622 -159.279512 
L 101.266706 -157.507801 
L 101.20104 -155.736091 
L 101.134289 -153.96438 
L 101.067106 -152.192669 
L 101.000119 -150.420959 
L 100.933919 -148.649248 
L 100.869049 -146.877537 
L 100.806 -145.105826 
L 100.745197 -143.334116 
L 100.687004 -141.562405 
L 100.631716 -139.790694 
L 100.579562 -138.018984 
L 100.530706 -136.247273 
L 100.485251 -134.475562 
L 100.44324 -132.703852 
L 100.404666 -130.932141 
L 100.369474 -129.16043 
L 100.337571 -127.38872 
L 100.308829 -125.617009 
L 100.283093 -123.845298 
z
" style="stroke: #3f3f3f; stroke-width: 1.25"/>
    </defs>
    <g clip-path="url(#p42ffde0fd1)">
     <use xlink:href="#m578e53daae" x="0" y="360" style="fill: #3274a1; stroke: #3f3f3f; stroke-width: 1.25"/>
    </g>
   </g>
   <g id="PolyCollection_2">
    <defs>
     <path id="me723b7faf1" d="M 166.843249 -74.418126 
L 163.448476 -74.418126 
L 163.180669 -76.918421 
L 162.881066 -79.418715 
L 162.547779 -81.919009 
L 162.179133 -84.419304 
L 161.77373 -86.919598 
L 161.330514 -89.419893 
L 160.848837 -91.920187 
L 160.328527 -94.420481 
L 159.769945 -96.920776 
L 159.174044 -99.42107 
L 158.542414 -101.921365 
L 157.877321 -104.421659 
L 157.18173 -106.921953 
L 156.459314 -109.422248 
L 155.714449 -111.922542 
L 154.952181 -114.422837 
L 154.178186 -116.923131 
L 153.398705 -119.423426 
L 152.620453 -121.92372 
L 151.85052 -124.424014 
L 151.096246 -126.924309 
L 150.365085 -129.424603 
L 149.664455 -131.924898 
L 149.001579 -134.425192 
L 148.383321 -136.925486 
L 147.816025 -139.425781 
L 147.305349 -141.926075 
L 146.856121 -144.42637 
L 146.472195 -146.926664 
L 146.156336 -149.426958 
L 145.910121 -151.927253 
L 145.733873 -154.427547 
L 145.626614 -156.927842 
L 145.586058 -159.428136 
L 145.608637 -161.92843 
L 145.689554 -164.428725 
L 145.822875 -166.929019 
L 146.001647 -169.429314 
L 146.218052 -171.929608 
L 146.463577 -174.429903 
L 146.729212 -176.930197 
L 147.005664 -179.430491 
L 147.283576 -181.930786 
L 147.553761 -184.43108 
L 147.807422 -186.931375 
L 148.036378 -189.431669 
L 148.23327 -191.931963 
L 148.391747 -194.432258 
L 148.506633 -196.932552 
L 148.574061 -199.432847 
L 148.591582 -201.933141 
L 148.558227 -204.433435 
L 148.474541 -206.93373 
L 148.342576 -209.434024 
L 148.165843 -211.934319 
L 147.949233 -214.434613 
L 147.698891 -216.934908 
L 147.422072 -219.435202 
L 147.126955 -221.935496 
L 146.822444 -224.435791 
L 146.517947 -226.936085 
L 146.22314 -229.43638 
L 145.947729 -231.936674 
L 145.701215 -234.436968 
L 145.492661 -236.937263 
L 145.330475 -239.437557 
L 145.222215 -241.937852 
L 145.174415 -244.438146 
L 145.192442 -246.93844 
L 145.280386 -249.438735 
L 145.440983 -251.939029 
L 145.675579 -254.439324 
L 145.98412 -256.939618 
L 146.365194 -259.439912 
L 146.816089 -261.940207 
L 147.332894 -264.440501 
L 147.91062 -266.940796 
L 148.543348 -269.44109 
L 149.224388 -271.941385 
L 149.946453 -274.441679 
L 150.70184 -276.941973 
L 151.482611 -279.442268 
L 152.280764 -281.942562 
L 153.088408 -284.442857 
L 153.897907 -286.943151 
L 154.702025 -289.443445 
L 155.494037 -291.94374 
L 156.267827 -294.444034 
L 157.017966 -296.944329 
L 157.739755 -299.444623 
L 158.429263 -301.944917 
L 159.08333 -304.445212 
L 159.699559 -306.945506 
L 160.276288 -309.445801 
L 160.812548 -311.946095 
L 161.308012 -314.446389 
L 161.762927 -316.946684 
L 162.178052 -319.446978 
L 162.55458 -321.947273 
L 167.737145 -321.947273 
L 167.737145 -321.947273 
L 168.113673 -319.446978 
L 168.528798 -316.946684 
L 168.983713 -314.446389 
L 169.479177 -311.946095 
L 170.015437 -309.445801 
L 170.592166 -306.945506 
L 171.208395 -304.445212 
L 171.862462 -301.944917 
L 172.55197 -299.444623 
L 173.273759 -296.944329 
L 174.023898 -294.444034 
L 174.797688 -291.94374 
L 175.5897 -289.443445 
L 176.393818 -286.943151 
L 177.203317 -284.442857 
L 178.010961 -281.942562 
L 178.809114 -279.442268 
L 179.589885 -276.941973 
L 180.345272 -274.441679 
L 181.067337 -271.941385 
L 181.748377 -269.44109 
L 182.381105 -266.940796 
L 182.958831 -264.440501 
L 183.475636 -261.940207 
L 183.926531 -259.439912 
L 184.307605 -256.939618 
L 184.616146 -254.439324 
L 184.850742 -251.939029 
L 185.011339 -249.438735 
L 185.099283 -246.93844 
L 185.11731 -244.438146 
L 185.06951 -241.937852 
L 184.96125 -239.437557 
L 184.799064 -236.937263 
L 184.59051 -234.436968 
L 184.343996 -231.936674 
L 184.068585 -229.43638 
L 183.773778 -226.936085 
L 183.469281 -224.435791 
L 183.16477 -221.935496 
L 182.869653 -219.435202 
L 182.592834 -216.934908 
L 182.342492 -214.434613 
L 182.125882 -211.934319 
L 181.949149 -209.434024 
L 181.817184 -206.93373 
L 181.733498 -204.433435 
L 181.700143 -201.933141 
L 181.717664 -199.432847 
L 181.785092 -196.932552 
L 181.899978 -194.432258 
L 182.058455 -191.931963 
L 182.255347 -189.431669 
L 182.484303 -186.931375 
L 182.737964 -184.43108 
L 183.008149 -181.930786 
L 183.286061 -179.430491 
L 183.562513 -176.930197 
L 183.828148 -174.429903 
L 184.073673 -171.929608 
L 184.290078 -169.429314 
L 184.468851 -166.929019 
L 184.602171 -164.428725 
L 184.683088 -161.92843 
L 184.705667 -159.428136 
L 184.665111 -156.927842 
L 184.557852 -154.427547 
L 184.381604 -151.927253 
L 184.135389 -149.426958 
L 183.81953 -146.926664 
L 183.435604 -144.42637 
L 182.986376 -141.926075 
L 182.4757 -139.425781 
L 181.908404 -136.925486 
L 181.290146 -134.425192 
L 180.62727 -131.924898 
L 179.92664 -129.424603 
L 179.195479 -126.924309 
L 178.441205 -124.424014 
L 177.671272 -121.92372 
L 176.89302 -119.423426 
L 176.113539 -116.923131 
L 175.339544 -114.422837 
L 174.577276 -111.922542 
L 173.832411 -109.422248 
L 173.109995 -106.921953 
L 172.414404 -104.421659 
L 171.749311 -101.921365 
L 171.117681 -99.42107 
L 170.52178 -96.920776 
L 169.963198 -94.420481 
L 169.442888 -91.920187 
L 168.961211 -89.419893 
L 168.517995 -86.919598 
L 168.112592 -84.419304 
L 167.743946 -81.919009 
L 167.410659 -79.418715 
L 167.111056 -76.918421 
L 166.843249 -74.418126 
z
" style="stroke: #3f3f3f; stroke-width: 1.25"/>
    </defs>
    <g clip-path="url(#p42ffde0fd1)">
     <use xlink:href="#me723b7faf1" x="0" y="360" style="fill: #e1812c; stroke: #3f3f3f; stroke-width: 1.25"/>
    </g>
   </g>
   <g id="PolyCollection_3">
    <defs>
     <path id="m4ea0d8992c" d="M 263.233331 -228.153493 
L 262.133248 -228.153493 
L 262.030646 -228.433606 
L 261.914802 -228.713718 
L 261.785286 -228.993831 
L 261.641933 -229.273944 
L 261.484891 -229.554056 
L 261.314668 -229.834169 
L 261.132169 -230.114282 
L 260.93872 -230.394394 
L 260.736087 -230.674507 
L 260.526468 -230.95462 
L 260.312474 -231.234732 
L 260.097092 -231.514845 
L 259.883625 -231.794958 
L 259.675615 -232.07507 
L 259.476753 -232.355183 
L 259.290771 -232.635296 
L 259.121327 -232.915408 
L 258.971889 -233.195521 
L 258.845616 -233.475634 
L 258.745242 -233.755746 
L 258.672982 -234.035859 
L 258.630444 -234.315972 
L 258.618568 -234.596084 
L 258.637589 -234.876197 
L 258.687016 -235.15631 
L 258.765653 -235.436422 
L 258.871629 -235.716535 
L 259.002458 -235.996648 
L 259.155115 -236.27676 
L 259.326125 -236.556873 
L 259.511657 -236.836986 
L 259.707627 -237.117098 
L 259.909784 -237.397211 
L 260.113795 -237.677324 
L 260.315315 -237.957436 
L 260.510027 -238.237549 
L 260.693675 -238.517662 
L 260.862063 -238.797774 
L 261.01103 -239.077887 
L 261.136417 -239.358 
L 261.234 -239.638112 
L 261.29942 -239.918225 
L 261.328111 -240.198338 
L 261.315213 -240.47845 
L 261.255518 -240.758563 
L 261.14341 -241.038676 
L 260.972855 -241.318788 
L 260.737409 -241.598901 
L 260.430281 -241.879014 
L 260.044446 -242.159126 
L 259.572803 -242.439239 
L 259.008401 -242.719352 
L 258.344713 -242.999465 
L 257.575964 -243.279577 
L 256.697501 -243.55969 
L 255.706187 -243.839803 
L 254.600815 -244.119915 
L 253.382511 -244.400028 
L 252.05511 -244.680141 
L 250.625477 -244.960253 
L 249.103752 -245.240366 
L 247.50349 -245.520479 
L 245.841681 -245.800591 
L 244.138633 -246.080704 
L 242.417702 -246.360817 
L 240.70487 -246.640929 
L 239.028175 -246.921042 
L 237.417011 -247.201155 
L 235.901311 -247.481267 
L 234.510647 -247.76138 
L 233.273294 -248.041493 
L 232.215283 -248.321605 
L 231.359495 -248.601718 
L 230.724848 -248.881831 
L 230.325597 -249.161943 
L 230.170814 -249.442056 
L 230.264037 -249.722169 
L 230.603141 -250.002281 
L 231.180421 -250.282394 
L 231.982881 -250.562507 
L 232.99272 -250.842619 
L 234.187992 -251.122732 
L 235.543394 -251.402845 
L 237.03116 -251.682957 
L 238.621997 -251.96307 
L 240.286036 -252.243183 
L 241.993748 -252.523295 
L 243.716787 -252.803408 
L 245.428729 -253.083521 
L 247.105679 -253.363633 
L 248.726741 -253.643746 
L 250.274325 -253.923859 
L 251.734319 -254.203971 
L 253.0961 -254.484084 
L 254.352433 -254.764197 
L 255.499258 -255.044309 
L 256.535385 -255.324422 
L 257.462139 -255.604535 
L 258.282955 -255.884647 
L 267.083624 -255.884647 
L 267.083624 -255.884647 
L 267.904441 -255.604535 
L 268.831194 -255.324422 
L 269.867321 -255.044309 
L 271.014146 -254.764197 
L 272.27048 -254.484084 
L 273.63226 -254.203971 
L 275.092254 -253.923859 
L 276.639839 -253.643746 
L 278.2609 -253.363633 
L 279.93785 -253.083521 
L 281.649792 -252.803408 
L 283.372832 -252.523295 
L 285.080544 -252.243183 
L 286.744583 -251.96307 
L 288.335419 -251.682957 
L 289.823185 -251.402845 
L 291.178588 -251.122732 
L 292.373859 -250.842619 
L 293.383698 -250.562507 
L 294.186158 -250.282394 
L 294.763438 -250.002281 
L 295.102543 -249.722169 
L 295.195765 -249.442056 
L 295.040982 -249.161943 
L 294.641732 -248.881831 
L 294.007084 -248.601718 
L 293.151296 -248.321605 
L 292.093285 -248.041493 
L 290.855932 -247.76138 
L 289.465269 -247.481267 
L 287.949568 -247.201155 
L 286.338405 -246.921042 
L 284.66171 -246.640929 
L 282.948877 -246.360817 
L 281.227946 -246.080704 
L 279.524898 -245.800591 
L 277.86309 -245.520479 
L 276.262827 -245.240366 
L 274.741102 -244.960253 
L 273.31147 -244.680141 
L 271.984069 -244.400028 
L 270.765764 -244.119915 
L 269.660392 -243.839803 
L 268.669078 -243.55969 
L 267.790615 -243.279577 
L 267.021867 -242.999465 
L 266.358179 -242.719352 
L 265.793776 -242.439239 
L 265.322133 -242.159126 
L 264.936298 -241.879014 
L 264.629171 -241.598901 
L 264.393724 -241.318788 
L 264.223169 -241.038676 
L 264.111062 -240.758563 
L 264.051366 -240.47845 
L 264.038469 -240.198338 
L 264.067159 -239.918225 
L 264.13258 -239.638112 
L 264.230162 -239.358 
L 264.355549 -239.077887 
L 264.504517 -238.797774 
L 264.672904 -238.517662 
L 264.856552 -238.237549 
L 265.051265 -237.957436 
L 265.252784 -237.677324 
L 265.456796 -237.397211 
L 265.658952 -237.117098 
L 265.854922 -236.836986 
L 266.040455 -236.556873 
L 266.211464 -236.27676 
L 266.364121 -235.996648 
L 266.49495 -235.716535 
L 266.600926 -235.436422 
L 266.679563 -235.15631 
L 266.728991 -234.876197 
L 266.748011 -234.596084 
L 266.736136 -234.315972 
L 266.693598 -234.035859 
L 266.621337 -233.755746 
L 266.520963 -233.475634 
L 266.39469 -233.195521 
L 266.245252 -232.915408 
L 266.075809 -232.635296 
L 265.889826 -232.355183 
L 265.690964 -232.07507 
L 265.482954 -231.794958 
L 265.269487 -231.514845 
L 265.054105 -231.234732 
L 264.840112 -230.95462 
L 264.630492 -230.674507 
L 264.427859 -230.394394 
L 264.234411 -230.114282 
L 264.051911 -229.834169 
L 263.881689 -229.554056 
L 263.724647 -229.273944 
L 263.581294 -228.993831 
L 263.451778 -228.713718 
L 263.335934 -228.433606 
L 263.233331 -228.153493 
z
" style="stroke: #3f3f3f; stroke-width: 1.25"/>
    </defs>
    <g clip-path="url(#p42ffde0fd1)">
     <use xlink:href="#m4ea0d8992c" x="0" y="360" style="fill: #3274a1; stroke: #3f3f3f; stroke-width: 1.25"/>
    </g>
   </g>
   <g id="PolyCollection_4">
    <defs>
     <path id="mc05a40a291" d="M 328.409401 -55.292727 
L 327.007082 -55.292727 
L 326.878296 -57.867219 
L 326.732586 -60.44171 
L 326.569107 -63.016202 
L 326.387234 -65.590693 
L 326.186613 -68.165184 
L 325.967198 -70.739676 
L 325.729291 -73.314167 
L 325.473563 -75.888659 
L 325.201077 -78.46315 
L 324.913281 -81.037641 
L 324.612007 -83.612133 
L 324.299433 -86.186624 
L 323.97805 -88.761116 
L 323.650604 -91.335607 
L 323.320026 -93.910099 
L 322.989357 -96.48459 
L 322.661668 -99.059081 
L 322.339966 -101.633573 
L 322.02712 -104.208064 
L 321.725773 -106.782556 
L 321.438273 -109.357047 
L 321.166614 -111.931538 
L 320.912387 -114.50603 
L 320.676745 -117.080521 
L 320.460385 -119.655013 
L 320.263538 -122.229504 
L 320.085976 -124.803995 
L 319.927014 -127.378487 
L 319.785534 -129.952978 
L 319.659995 -132.52747 
L 319.548446 -135.101961 
L 319.448541 -137.676453 
L 319.357539 -140.250944 
L 319.2723 -142.825435 
L 319.189283 -145.399927 
L 319.10453 -147.974418 
L 319.013663 -150.54891 
L 318.911869 -153.123401 
L 318.793917 -155.697892 
L 318.654165 -158.272384 
L 318.486611 -160.846875 
L 318.284951 -163.421367 
L 318.04267 -165.995858 
L 317.753171 -168.57035 
L 317.409918 -171.144841 
L 317.006628 -173.719332 
L 316.537468 -176.293824 
L 315.997288 -178.868315 
L 315.381859 -181.442807 
L 314.688122 -184.017298 
L 313.914425 -186.591789 
L 313.060756 -189.166281 
L 312.12894 -191.740772 
L 311.122811 -194.315264 
L 310.048331 -196.889755 
L 308.913661 -199.464247 
L 307.729164 -202.038738 
L 306.507347 -204.613229 
L 305.262729 -207.187721 
L 304.011634 -209.762212 
L 302.771919 -212.336704 
L 301.562625 -214.911195 
L 300.403581 -217.485686 
L 299.314943 -220.060178 
L 298.316706 -222.634669 
L 297.428186 -225.209161 
L 296.667499 -227.783652 
L 296.051051 -230.358144 
L 295.593052 -232.932635 
L 295.305091 -235.507126 
L 295.195765 -238.081618 
L 295.270398 -240.656109 
L 295.530849 -243.230601 
L 295.97543 -245.805092 
L 296.598925 -248.379583 
L 297.392728 -250.954075 
L 298.345078 -253.528566 
L 299.441398 -256.103058 
L 300.664706 -258.677549 
L 301.996111 -261.252041 
L 303.415335 -263.826532 
L 304.901281 -266.401023 
L 306.432593 -268.975515 
L 307.988202 -271.550006 
L 309.54784 -274.124498 
L 311.092492 -276.698989 
L 312.604791 -279.27348 
L 314.069319 -281.847972 
L 315.472842 -284.422463 
L 316.804443 -286.996955 
L 318.05558 -289.571446 
L 319.220062 -292.145938 
L 320.29395 -294.720429 
L 321.275411 -297.29492 
L 322.164507 -299.869412 
L 322.962965 -302.443903 
L 323.673917 -305.018395 
L 324.301633 -307.592886 
L 324.851256 -310.167377 
L 330.565226 -310.167377 
L 330.565226 -310.167377 
L 331.114849 -307.592886 
L 331.742566 -305.018395 
L 332.453518 -302.443903 
L 333.251976 -299.869412 
L 334.141072 -297.29492 
L 335.122532 -294.720429 
L 336.196421 -292.145938 
L 337.360902 -289.571446 
L 338.612039 -286.996955 
L 339.943641 -284.422463 
L 341.347163 -281.847972 
L 342.811692 -279.27348 
L 344.32399 -276.698989 
L 345.868642 -274.124498 
L 347.42828 -271.550006 
L 348.983889 -268.975515 
L 350.515201 -266.401023 
L 352.001147 -263.826532 
L 353.420372 -261.252041 
L 354.751776 -258.677549 
L 355.975085 -256.103058 
L 357.071404 -253.528566 
L 358.023755 -250.954075 
L 358.817558 -248.379583 
L 359.441053 -245.805092 
L 359.885633 -243.230601 
L 360.146084 -240.656109 
L 360.220717 -238.081618 
L 360.111391 -235.507126 
L 359.82343 -232.932635 
L 359.365431 -230.358144 
L 358.748983 -227.783652 
L 357.988296 -225.209161 
L 357.099776 -222.634669 
L 356.101539 -220.060178 
L 355.012901 -217.485686 
L 353.853857 -214.911195 
L 352.644563 -212.336704 
L 351.404848 -209.762212 
L 350.153753 -207.187721 
L 348.909135 -204.613229 
L 347.687318 -202.038738 
L 346.502821 -199.464247 
L 345.368151 -196.889755 
L 344.293671 -194.315264 
L 343.287542 -191.740772 
L 342.355726 -189.166281 
L 341.502057 -186.591789 
L 340.728361 -184.017298 
L 340.034623 -181.442807 
L 339.419194 -178.868315 
L 338.879014 -176.293824 
L 338.409854 -173.719332 
L 338.006564 -171.144841 
L 337.663312 -168.57035 
L 337.373812 -165.995858 
L 337.131531 -163.421367 
L 336.929871 -160.846875 
L 336.762317 -158.272384 
L 336.622566 -155.697892 
L 336.504613 -153.123401 
L 336.40282 -150.54891 
L 336.311952 -147.974418 
L 336.2272 -145.399927 
L 336.144182 -142.825435 
L 336.058944 -140.250944 
L 335.967941 -137.676453 
L 335.868036 -135.101961 
L 335.756488 -132.52747 
L 335.630948 -129.952978 
L 335.489468 -127.378487 
L 335.330507 -124.803995 
L 335.152944 -122.229504 
L 334.956098 -119.655013 
L 334.739737 -117.080521 
L 334.504095 -114.50603 
L 334.249868 -111.931538 
L 333.978209 -109.357047 
L 333.690709 -106.782556 
L 333.389362 -104.208064 
L 333.076516 -101.633573 
L 332.754815 -99.059081 
L 332.427125 -96.48459 
L 332.096456 -93.910099 
L 331.765878 -91.335607 
L 331.438432 -88.761116 
L 331.117049 -86.186624 
L 330.804476 -83.612133 
L 330.503201 -81.037641 
L 330.215406 -78.46315 
L 329.942919 -75.888659 
L 329.687192 -73.314167 
L 329.449284 -70.739676 
L 329.22987 -68.165184 
L 329.029248 -65.590693 
L 328.847376 -63.016202 
L 328.683896 -60.44171 
L 328.538186 -57.867219 
L 328.409401 -55.292727 
z
" style="stroke: #3f3f3f; stroke-width: 1.25"/>
    </defs>
    <g clip-path="url(#p42ffde0fd1)">
     <use xlink:href="#mc05a40a291" x="0" y="360" style="fill: #e1812c; stroke: #3f3f3f; stroke-width: 1.25"/>
    </g>
   </g>
   <g id="line2d_9">
    <path d="M 100.120911 186.386967 
L 100.120911 110.523079 
" clip-path="url(#p42ffde0fd1)" style="fill: none; stroke: #3f3f3f; stroke-width: 1.875; stroke-linecap: round"/>
   </g>
   <g id="line2d_10">
    <path d="M 100.120911 164.672184 
L 100.120911 111.510522 
" clip-path="url(#p42ffde0fd1)" style="fill: none; stroke: #3f3f3f; stroke-width: 5.625; stroke-linecap: round"/>
   </g>
   <g id="line2d_11">
    <path d="M 100.120911 118.143149 
" clip-path="url(#p42ffde0fd1)" style="fill: none; stroke: #3f3f3f; stroke-width: 1.5; stroke-linecap: round"/>
    <defs>
     <path id="m1598b3655f" d="M 2.34375 0 
L -2.34375 -0 
" style="stroke: #ffffff; stroke-width: 1.125"/>
    </defs>
    <g clip-path="url(#p42ffde0fd1)">
     <use xlink:href="#m1598b3655f" x="100.120911" y="118.143149" style="fill: #ffffff; stroke: #ffffff; stroke-width: 1.125"/>
    </g>
   </g>
   <g id="line2d_12">
    <path d="M 165.145863 213.111522 
L 165.145863 110.523079 
" clip-path="url(#p42ffde0fd1)" style="fill: none; stroke: #3f3f3f; stroke-width: 1.875; stroke-linecap: round"/>
   </g>
   <g id="line2d_13">
    <path d="M 165.145863 202.567734 
L 165.145863 110.523079 
" clip-path="url(#p42ffde0fd1)" style="fill: none; stroke: #3f3f3f; stroke-width: 5.625; stroke-linecap: round"/>
   </g>
   <g id="line2d_14">
    <path d="M 165.145863 153.417612 
" clip-path="url(#p42ffde0fd1)" style="fill: none; stroke: #3f3f3f; stroke-width: 1.5; stroke-linecap: round"/>
    <g clip-path="url(#p42ffde0fd1)">
     <use xlink:href="#m1598b3655f" x="165.145863" y="153.417612" style="fill: #ffffff; stroke: #ffffff; stroke-width: 1.125"/>
    </g>
   </g>
   <g id="line2d_15">
    <path d="M 262.68329 110.523079 
L 262.68329 110.523079 
" clip-path="url(#p42ffde0fd1)" style="fill: none; stroke: #3f3f3f; stroke-width: 1.875; stroke-linecap: round"/>
   </g>
   <g id="line2d_16">
    <path d="M 262.68329 110.523079 
L 262.68329 110.523079 
" clip-path="url(#p42ffde0fd1)" style="fill: none; stroke: #3f3f3f; stroke-width: 5.625; stroke-linecap: round"/>
   </g>
   <g id="line2d_17">
    <path d="M 262.68329 110.523079 
" clip-path="url(#p42ffde0fd1)" style="fill: none; stroke: #3f3f3f; stroke-width: 1.5; stroke-linecap: round"/>
    <g clip-path="url(#p42ffde0fd1)">
     <use xlink:href="#m1598b3655f" x="262.68329" y="110.523079" style="fill: #ffffff; stroke: #ffffff; stroke-width: 1.125"/>
    </g>
   </g>
   <g id="line2d_18">
    <path d="M 327.708241 200.34221 
L 327.708241 110.523079 
" clip-path="url(#p42ffde0fd1)" style="fill: none; stroke: #3f3f3f; stroke-width: 1.875; stroke-linecap: round"/>
   </g>
   <g id="line2d_19">
    <path d="M 327.708241 149.401309 
L 327.708241 110.523079 
" clip-path="url(#p42ffde0fd1)" style="fill: none; stroke: #3f3f3f; stroke-width: 5.625; stroke-linecap: round"/>
   </g>
   <g id="line2d_20">
    <path d="M 327.708241 123.440636 
" clip-path="url(#p42ffde0fd1)" style="fill: none; stroke: #3f3f3f; stroke-width: 1.5; stroke-linecap: round"/>
    <g clip-path="url(#p42ffde0fd1)">
     <use xlink:href="#m1598b3655f" x="327.708241" y="123.440636" style="fill: #ffffff; stroke: #ffffff; stroke-width: 1.125"/>
    </g>
   </g>
   <g id="patch_3">
    <path d="M 51.352198 318.04 
L 51.352198 24.72 
" style="fill: none; stroke: #cccccc; stroke-width: 0.8; stroke-linejoin: miter; stroke-linecap: square"/>
   </g>
   <g id="patch_4">
    <path d="M 51.352198 318.04 
L 376.476955 318.04 
" style="fill: none; stroke: #cccccc; stroke-width: 0.8; stroke-linejoin: miter; stroke-linecap: square"/>
   </g>
   <g id="text_13">
    <!-- sex = f -->
    <g style="fill: #262626" transform="translate(199.046607 18.72) scale(0.1 -0.1)">
     <defs>
      <path id="ArialMT-73" d="M 197 991 
L 753 1078 
Q 800 744 1014 566 
Q 1228 388 1613 388 
Q 2000 388 2187 545 
Q 2375 703 2375 916 
Q 2375 1106 2209 1216 
Q 2094 1291 1634 1406 
Q 1016 1563 777 1677 
Q 538 1791 414 1992 
Q 291 2194 291 2438 
Q 291 2659 392 2848 
Q 494 3038 669 3163 
Q 800 3259 1026 3326 
Q 1253 3394 1513 3394 
Q 1903 3394 2198 3281 
Q 2494 3169 2634 2976 
Q 2775 2784 2828 2463 
L 2278 2388 
Q 2241 2644 2061 2787 
Q 1881 2931 1553 2931 
Q 1166 2931 1000 2803 
Q 834 2675 834 2503 
Q 834 2394 903 2306 
Q 972 2216 1119 2156 
Q 1203 2125 1616 2013 
Q 2213 1853 2448 1751 
Q 2684 1650 2818 1456 
Q 2953 1263 2953 975 
Q 2953 694 2789 445 
Q 2625 197 2315 61 
Q 2006 -75 1616 -75 
Q 969 -75 630 194 
Q 291 463 197 991 
z
" transform="scale(0.015625)"/>
      <path id="ArialMT-65" d="M 2694 1069 
L 3275 997 
Q 3138 488 2766 206 
Q 2394 -75 1816 -75 
Q 1088 -75 661 373 
Q 234 822 234 1631 
Q 234 2469 665 2931 
Q 1097 3394 1784 3394 
Q 2450 3394 2872 2941 
Q 3294 2488 3294 1666 
Q 3294 1616 3291 1516 
L 816 1516 
Q 847 969 1125 678 
Q 1403 388 1819 388 
Q 2128 388 2347 550 
Q 2566 713 2694 1069 
z
M 847 1978 
L 2700 1978 
Q 2663 2397 2488 2606 
Q 2219 2931 1791 2931 
Q 1403 2931 1139 2672 
Q 875 2413 847 1978 
z
" transform="scale(0.015625)"/>
      <path id="ArialMT-78" d="M 47 0 
L 1259 1725 
L 138 3319 
L 841 3319 
L 1350 2541 
Q 1494 2319 1581 2169 
Q 1719 2375 1834 2534 
L 2394 3319 
L 3066 3319 
L 1919 1756 
L 3153 0 
L 2463 0 
L 1781 1031 
L 1600 1309 
L 728 0 
L 47 0 
z
" transform="scale(0.015625)"/>
      <path id="ArialMT-20" transform="scale(0.015625)"/>
      <path id="ArialMT-3d" d="M 3381 2694 
L 356 2694 
L 356 3219 
L 3381 3219 
L 3381 2694 
z
M 3381 1303 
L 356 1303 
L 356 1828 
L 3381 1828 
L 3381 1303 
z
" transform="scale(0.015625)"/>
      <path id="ArialMT-66" d="M 556 0 
L 556 2881 
L 59 2881 
L 59 3319 
L 556 3319 
L 556 3672 
Q 556 4006 616 4169 
Q 697 4388 901 4523 
Q 1106 4659 1475 4659 
Q 1713 4659 2000 4603 
L 1916 4113 
Q 1741 4144 1584 4144 
Q 1328 4144 1222 4034 
Q 1116 3925 1116 3625 
L 1116 3319 
L 1763 3319 
L 1763 2881 
L 1116 2881 
L 1116 0 
L 556 0 
z
" transform="scale(0.015625)"/>
     </defs>
     <use xlink:href="#ArialMT-73"/>
     <use xlink:href="#ArialMT-65" x="50"/>
     <use xlink:href="#ArialMT-78" x="105.615234"/>
     <use xlink:href="#ArialMT-20" x="155.615234"/>
     <use xlink:href="#ArialMT-3d" x="183.398438"/>
     <use xlink:href="#ArialMT-20" x="241.796875"/>
     <use xlink:href="#ArialMT-66" x="269.580078"/>
    </g>
   </g>
  </g>
  <g id="axes_2">
   <g id="patch_5">
    <path d="M 387.286443 318.04 
L 712.4112 318.04 
L 712.4112 24.72 
L 387.286443 24.72 
z
" style="fill: #ffffff"/>
   </g>
   <g id="matplotlib.axis_3">
    <g id="xtick_3">
     <g id="text_14">
      <!-- Baia -->
      <g style="fill: #262626" transform="translate(458.560601 332.197812) scale(0.1 -0.1)">
       <use xlink:href="#ArialMT-42"/>
       <use xlink:href="#ArialMT-61" x="66.699219"/>
       <use xlink:href="#ArialMT-69" x="122.314453"/>
       <use xlink:href="#ArialMT-61" x="144.53125"/>
      </g>
     </g>
    </g>
    <g id="xtick_4">
     <g id="text_15">
      <!-- Jurilovca -->
      <g style="fill: #262626" transform="translate(611.401886 332.197812) scale(0.1 -0.1)">
       <use xlink:href="#ArialMT-4a"/>
       <use xlink:href="#ArialMT-75" x="50"/>
       <use xlink:href="#ArialMT-72" x="105.615234"/>
       <use xlink:href="#ArialMT-69" x="138.916016"/>
       <use xlink:href="#ArialMT-6c" x="161.132812"/>
       <use xlink:href="#ArialMT-6f" x="183.349609"/>
       <use xlink:href="#ArialMT-76" x="238.964844"/>
       <use xlink:href="#ArialMT-63" x="288.964844"/>
       <use xlink:href="#ArialMT-61" x="338.964844"/>
      </g>
     </g>
    </g>
    <g id="text_16">
     <!-- location -->
     <g style="fill: #262626" transform="translate(532.616009 345.343125) scale(0.1 -0.1)">
      <use xlink:href="#ArialMT-6c"/>
      <use xlink:href="#ArialMT-6f" x="22.216797"/>
      <use xlink:href="#ArialMT-63" x="77.832031"/>
      <use xlink:href="#ArialMT-61" x="127.832031"/>
      <use xlink:href="#ArialMT-74" x="183.447266"/>
      <use xlink:href="#ArialMT-69" x="211.230469"/>
      <use xlink:href="#ArialMT-6f" x="233.447266"/>
      <use xlink:href="#ArialMT-6e" x="289.0625"/>
     </g>
    </g>
   </g>
   <g id="matplotlib.axis_4">
    <g id="ytick_9">
     <g id="line2d_21">
      <path d="M 387.286443 313.083316 
L 712.4112 313.083316 
" clip-path="url(#p9781983250)" style="fill: none; stroke: #cccccc; stroke-width: 0.8; stroke-linecap: round"/>
     </g>
    </g>
    <g id="ytick_10">
     <g id="line2d_22">
      <path d="M 387.286443 272.571268 
L 712.4112 272.571268 
" clip-path="url(#p9781983250)" style="fill: none; stroke: #cccccc; stroke-width: 0.8; stroke-linecap: round"/>
     </g>
    </g>
    <g id="ytick_11">
     <g id="line2d_23">
      <path d="M 387.286443 232.059221 
L 712.4112 232.059221 
" clip-path="url(#p9781983250)" style="fill: none; stroke: #cccccc; stroke-width: 0.8; stroke-linecap: round"/>
     </g>
    </g>
    <g id="ytick_12">
     <g id="line2d_24">
      <path d="M 387.286443 191.547173 
L 712.4112 191.547173 
" clip-path="url(#p9781983250)" style="fill: none; stroke: #cccccc; stroke-width: 0.8; stroke-linecap: round"/>
     </g>
    </g>
    <g id="ytick_13">
     <g id="line2d_25">
      <path d="M 387.286443 151.035126 
L 712.4112 151.035126 
" clip-path="url(#p9781983250)" style="fill: none; stroke: #cccccc; stroke-width: 0.8; stroke-linecap: round"/>
     </g>
    </g>
    <g id="ytick_14">
     <g id="line2d_26">
      <path d="M 387.286443 110.523079 
L 712.4112 110.523079 
" clip-path="url(#p9781983250)" style="fill: none; stroke: #cccccc; stroke-width: 0.8; stroke-linecap: round"/>
     </g>
    </g>
    <g id="ytick_15">
     <g id="line2d_27">
      <path d="M 387.286443 70.011031 
L 712.4112 70.011031 
" clip-path="url(#p9781983250)" style="fill: none; stroke: #cccccc; stroke-width: 0.8; stroke-linecap: round"/>
     </g>
    </g>
    <g id="ytick_16">
     <g id="line2d_28">
      <path d="M 387.286443 29.498984 
L 712.4112 29.498984 
" clip-path="url(#p9781983250)" style="fill: none; stroke: #cccccc; stroke-width: 0.8; stroke-linecap: round"/>
     </g>
    </g>
   </g>
   <g id="PolyCollection_5">
    <defs>
     <path id="md66c4b852d" d="M 436.526415 -117.751757 
L 435.583897 -117.751757 
L 435.484878 -119.452432 
L 435.370512 -121.153107 
L 435.239674 -122.853782 
L 435.091428 -124.554457 
L 434.925083 -126.255132 
L 434.740255 -127.955807 
L 434.536928 -129.656482 
L 434.315497 -131.357157 
L 434.076817 -133.057832 
L 433.822227 -134.758507 
L 433.553558 -136.459182 
L 433.273131 -138.159857 
L 432.983723 -139.860532 
L 432.688516 -141.561207 
L 432.391028 -143.261882 
L 432.095017 -144.962557 
L 431.804368 -146.663232 
L 431.522969 -148.363907 
L 431.254573 -150.064582 
L 431.002658 -151.765257 
L 430.770287 -153.465932 
L 430.559976 -155.166607 
L 430.373579 -156.867282 
L 430.212192 -158.567957 
L 430.076084 -160.268632 
L 429.964658 -161.969307 
L 429.876455 -163.669982 
L 429.809183 -165.370657 
L 429.759793 -167.071332 
L 429.724583 -168.772007 
L 429.699337 -170.472682 
L 429.679488 -172.173357 
L 429.66029 -173.874032 
L 429.637006 -175.574707 
L 429.605087 -177.275382 
L 429.560331 -178.976057 
L 429.499022 -180.676732 
L 429.418026 -182.377407 
L 429.314842 -184.078082 
L 429.187607 -185.778757 
L 429.035038 -187.479432 
L 428.85633 -189.180107 
L 428.651 -190.880782 
L 428.418698 -192.581457 
L 428.158992 -194.282132 
L 427.871138 -195.982807 
L 427.553872 -197.683482 
L 427.205219 -199.384157 
L 426.822358 -201.084832 
L 426.401551 -202.785507 
L 425.938153 -204.486182 
L 425.426715 -206.186857 
L 424.86118 -207.887532 
L 424.235183 -209.588207 
L 423.542434 -211.288882 
L 422.777174 -212.989557 
L 421.934691 -214.690232 
L 421.011857 -216.390907 
L 420.007669 -218.091582 
L 418.923754 -219.792257 
L 417.764798 -221.492933 
L 416.538878 -223.193608 
L 415.257666 -224.894283 
L 413.936464 -226.594958 
L 412.59408 -228.295633 
L 411.252507 -229.996308 
L 409.936433 -231.696983 
L 408.672571 -233.397658 
L 407.48885 -235.098333 
L 406.413484 -236.799008 
L 405.473972 -238.499683 
L 404.696065 -240.200358 
L 404.102759 -241.901033 
L 403.713361 -243.601708 
L 403.542681 -245.302383 
L 403.600388 -247.003058 
L 403.890571 -248.703733 
L 404.41153 -250.404408 
L 405.1558 -252.105083 
L 406.110419 -253.805758 
L 407.257418 -255.506433 
L 408.574507 -257.207108 
L 410.035918 -258.907783 
L 411.613363 -260.608458 
L 413.277059 -262.309133 
L 414.996753 -264.009808 
L 416.742721 -265.710483 
L 418.486674 -267.411158 
L 420.202548 -269.111833 
L 421.867137 -270.812508 
L 423.460573 -272.513183 
L 424.966612 -274.213858 
L 426.372765 -275.914533 
L 427.670259 -277.615208 
L 428.853868 -279.315883 
L 429.921616 -281.016558 
L 430.874408 -282.717233 
L 431.715589 -284.417908 
L 432.450482 -286.118583 
L 439.659831 -286.118583 
L 439.659831 -286.118583 
L 440.394724 -284.417908 
L 441.235905 -282.717233 
L 442.188697 -281.016558 
L 443.256445 -279.315883 
L 444.440054 -277.615208 
L 445.737548 -275.914533 
L 447.143701 -274.213858 
L 448.64974 -272.513183 
L 450.243175 -270.812508 
L 451.907765 -269.111833 
L 453.623639 -267.411158 
L 455.367592 -265.710483 
L 457.11356 -264.009808 
L 458.833254 -262.309133 
L 460.496949 -260.608458 
L 462.074395 -258.907783 
L 463.535806 -257.207108 
L 464.852894 -255.506433 
L 465.999894 -253.805758 
L 466.954513 -252.105083 
L 467.698783 -250.404408 
L 468.219742 -248.703733 
L 468.509925 -247.003058 
L 468.567632 -245.302383 
L 468.396952 -243.601708 
L 468.007554 -241.901033 
L 467.414248 -240.200358 
L 466.636341 -238.499683 
L 465.696829 -236.799008 
L 464.621463 -235.098333 
L 463.437742 -233.397658 
L 462.17388 -231.696983 
L 460.857805 -229.996308 
L 459.516233 -228.295633 
L 458.173848 -226.594958 
L 456.852647 -224.894283 
L 455.571435 -223.193608 
L 454.345515 -221.492933 
L 453.186559 -219.792257 
L 452.102643 -218.091582 
L 451.098456 -216.390907 
L 450.175622 -214.690232 
L 449.333138 -212.989557 
L 448.567879 -211.288882 
L 447.87513 -209.588207 
L 447.249133 -207.887532 
L 446.683598 -206.186857 
L 446.172159 -204.486182 
L 445.708762 -202.785507 
L 445.287955 -201.084832 
L 444.905094 -199.384157 
L 444.556441 -197.683482 
L 444.239175 -195.982807 
L 443.951321 -194.282132 
L 443.691614 -192.581457 
L 443.459313 -190.880782 
L 443.253983 -189.180107 
L 443.075275 -187.479432 
L 442.922706 -185.778757 
L 442.795471 -184.078082 
L 442.692287 -182.377407 
L 442.61129 -180.676732 
L 442.549981 -178.976057 
L 442.505226 -177.275382 
L 442.473307 -175.574707 
L 442.450023 -173.874032 
L 442.430825 -172.173357 
L 442.410976 -170.472682 
L 442.38573 -168.772007 
L 442.35052 -167.071332 
L 442.30113 -165.370657 
L 442.233858 -163.669982 
L 442.145655 -161.969307 
L 442.034229 -160.268632 
L 441.898121 -158.567957 
L 441.736733 -156.867282 
L 441.550337 -155.166607 
L 441.340026 -153.465932 
L 441.107655 -151.765257 
L 440.855739 -150.064582 
L 440.587343 -148.363907 
L 440.305944 -146.663232 
L 440.015295 -144.962557 
L 439.719284 -143.261882 
L 439.421797 -141.561207 
L 439.12659 -139.860532 
L 438.837182 -138.159857 
L 438.556755 -136.459182 
L 438.288086 -134.758507 
L 438.033495 -133.057832 
L 437.794816 -131.357157 
L 437.573385 -129.656482 
L 437.370057 -127.955807 
L 437.18523 -126.255132 
L 437.018885 -124.554457 
L 436.870639 -122.853782 
L 436.739801 -121.153107 
L 436.625434 -119.452432 
L 436.526415 -117.751757 
z
" style="stroke: #3f3f3f; stroke-width: 1.25"/>
    </defs>
    <g clip-path="url(#p9781983250)">
     <use xlink:href="#md66c4b852d" x="0" y="360" style="fill: #3274a1; stroke: #3f3f3f; stroke-width: 1.25"/>
    </g>
   </g>
   <g id="PolyCollection_6">
    <defs>
     <path id="m03d54165fd" d="M 501.685191 -148.656698 
L 500.475024 -148.656698 
L 500.333856 -149.926362 
L 500.168527 -151.196025 
L 499.977119 -152.465689 
L 499.758076 -153.735353 
L 499.51033 -155.005017 
L 499.233422 -156.274681 
L 498.927609 -157.544345 
L 498.593958 -158.814009 
L 498.234404 -160.083673 
L 497.851774 -161.353337 
L 497.449767 -162.623001 
L 497.03288 -163.892665 
L 496.60629 -165.162329 
L 496.175674 -166.431992 
L 495.746987 -167.701656 
L 495.326199 -168.97132 
L 494.918999 -170.240984 
L 494.530486 -171.510648 
L 494.164851 -172.780312 
L 493.825086 -174.049976 
L 493.512716 -175.31964 
L 493.227593 -176.589304 
L 492.967747 -177.858968 
L 492.729324 -179.128632 
L 492.506606 -180.398296 
L 492.292137 -181.66796 
L 492.076925 -182.937623 
L 491.850747 -184.207287 
L 491.602521 -185.476951 
L 491.320745 -186.746615 
L 490.993968 -188.016279 
L 490.611291 -189.285943 
L 490.16285 -190.555607 
L 489.640276 -191.825271 
L 489.037098 -193.094935 
L 488.349077 -194.364599 
L 487.574446 -195.634263 
L 486.714063 -196.903927 
L 485.771449 -198.17359 
L 484.752741 -199.443254 
L 483.666538 -200.712918 
L 482.523679 -201.982582 
L 481.336946 -203.252246 
L 480.120717 -204.52191 
L 478.890586 -205.791574 
L 477.662966 -207.061238 
L 476.454681 -208.330902 
L 475.282569 -209.600566 
L 474.163093 -210.87023 
L 473.111979 -212.139894 
L 472.143872 -213.409557 
L 471.272024 -214.679221 
L 470.50802 -215.948885 
L 469.861528 -217.218549 
L 469.34011 -218.488213 
L 468.949073 -219.757877 
L 468.691379 -221.027541 
L 468.567632 -222.297205 
L 468.576128 -223.566869 
L 468.71299 -224.836533 
L 468.972377 -226.106197 
L 469.34677 -227.375861 
L 469.827315 -228.645524 
L 470.404223 -229.915188 
L 471.067181 -231.184852 
L 471.805777 -232.454516 
L 472.609894 -233.72418 
L 473.470049 -234.993844 
L 474.377666 -236.263508 
L 475.325248 -237.533172 
L 476.306456 -238.802836 
L 477.316073 -240.0725 
L 478.349883 -241.342164 
L 479.404456 -242.611828 
L 480.476882 -243.881491 
L 481.564471 -245.151155 
L 482.664449 -246.420819 
L 483.773682 -247.690483 
L 484.888459 -248.960147 
L 486.004337 -250.229811 
L 487.116088 -251.499475 
L 488.217726 -252.769139 
L 489.302623 -254.038803 
L 490.363706 -255.308467 
L 491.393707 -256.578131 
L 492.385446 -257.847795 
L 493.33213 -259.117459 
L 494.227633 -260.387122 
L 495.066746 -261.656786 
L 495.845371 -262.92645 
L 496.560653 -264.196114 
L 497.211048 -265.465778 
L 497.796314 -266.735442 
L 498.317448 -268.005106 
L 498.776559 -269.27477 
L 499.17671 -270.544434 
L 499.521729 -271.814098 
L 499.816005 -273.083762 
L 500.064287 -274.353426 
L 502.095929 -274.353426 
L 502.095929 -274.353426 
L 502.344211 -273.083762 
L 502.638486 -271.814098 
L 502.983505 -270.544434 
L 503.383657 -269.27477 
L 503.842768 -268.005106 
L 504.363901 -266.735442 
L 504.949168 -265.465778 
L 505.599563 -264.196114 
L 506.314845 -262.92645 
L 507.093469 -261.656786 
L 507.932582 -260.387122 
L 508.828086 -259.117459 
L 509.77477 -257.847795 
L 510.766509 -256.578131 
L 511.79651 -255.308467 
L 512.857593 -254.038803 
L 513.94249 -252.769139 
L 515.044127 -251.499475 
L 516.155879 -250.229811 
L 517.271757 -248.960147 
L 518.386533 -247.690483 
L 519.495767 -246.420819 
L 520.595744 -245.151155 
L 521.683333 -243.881491 
L 522.75576 -242.611828 
L 523.810332 -241.342164 
L 524.844142 -240.0725 
L 525.85376 -238.802836 
L 526.834967 -237.533172 
L 527.78255 -236.263508 
L 528.690166 -234.993844 
L 529.550322 -233.72418 
L 530.354438 -232.454516 
L 531.093035 -231.184852 
L 531.755993 -229.915188 
L 532.3329 -228.645524 
L 532.813446 -227.375861 
L 533.187838 -226.106197 
L 533.447225 -224.836533 
L 533.584087 -223.566869 
L 533.592584 -222.297205 
L 533.468837 -221.027541 
L 533.211143 -219.757877 
L 532.820105 -218.488213 
L 532.298688 -217.218549 
L 531.652196 -215.948885 
L 530.888191 -214.679221 
L 530.016344 -213.409557 
L 529.048237 -212.139894 
L 527.997123 -210.87023 
L 526.877647 -209.600566 
L 525.705535 -208.330902 
L 524.49725 -207.061238 
L 523.26963 -205.791574 
L 522.039499 -204.52191 
L 520.823269 -203.252246 
L 519.636536 -201.982582 
L 518.493678 -200.712918 
L 517.407475 -199.443254 
L 516.388767 -198.17359 
L 515.446153 -196.903927 
L 514.585769 -195.634263 
L 513.811139 -194.364599 
L 513.123117 -193.094935 
L 512.51994 -191.825271 
L 511.997365 -190.555607 
L 511.548924 -189.285943 
L 511.166247 -188.016279 
L 510.839471 -186.746615 
L 510.557694 -185.476951 
L 510.309469 -184.207287 
L 510.083291 -182.937623 
L 509.868079 -181.66796 
L 509.653609 -180.398296 
L 509.430892 -179.128632 
L 509.192468 -177.858968 
L 508.932623 -176.589304 
L 508.6475 -175.31964 
L 508.33513 -174.049976 
L 507.995365 -172.780312 
L 507.62973 -171.510648 
L 507.241216 -170.240984 
L 506.834017 -168.97132 
L 506.413229 -167.701656 
L 505.984542 -166.431992 
L 505.553925 -165.162329 
L 505.127335 -163.892665 
L 504.710449 -162.623001 
L 504.308442 -161.353337 
L 503.925812 -160.083673 
L 503.566258 -158.814009 
L 503.232607 -157.544345 
L 502.926794 -156.274681 
L 502.649885 -155.005017 
L 502.40214 -153.735353 
L 502.183097 -152.465689 
L 501.991689 -151.196025 
L 501.82636 -149.926362 
L 501.685191 -148.656698 
z
" style="stroke: #3f3f3f; stroke-width: 1.25"/>
    </defs>
    <g clip-path="url(#p9781983250)">
     <use xlink:href="#m03d54165fd" x="0" y="360" style="fill: #e1812c; stroke: #3f3f3f; stroke-width: 1.25"/>
    </g>
   </g>
   <g id="PolyCollection_7">
    <defs>
     <path id="m2071b5c52c" d="M 599.148229 -91.118674 
L 598.086841 -91.118674 
L 597.988423 -93.210803 
L 597.877005 -95.302932 
L 597.751958 -97.39506 
L 597.612835 -99.487189 
L 597.459407 -101.579318 
L 597.291694 -103.671446 
L 597.109996 -105.763575 
L 596.91491 -107.855704 
L 596.707337 -109.947832 
L 596.488485 -112.039961 
L 596.259851 -114.13209 
L 596.023196 -116.224218 
L 595.780502 -118.316347 
L 595.533926 -120.408476 
L 595.285734 -122.500604 
L 595.038231 -124.592733 
L 594.793694 -126.684862 
L 594.554288 -128.77699 
L 594.321999 -130.869119 
L 594.098564 -132.961248 
L 593.885411 -135.053376 
L 593.683613 -137.145505 
L 593.49385 -139.237634 
L 593.316388 -141.329762 
L 593.151071 -143.421891 
L 592.997329 -145.51402 
L 592.85419 -147.606149 
L 592.720307 -149.698277 
L 592.593994 -151.790406 
L 592.473255 -153.882535 
L 592.355824 -155.974663 
L 592.239205 -158.066792 
L 592.120696 -160.158921 
L 591.997428 -162.251049 
L 591.866386 -164.343178 
L 591.72444 -166.435307 
L 591.568364 -168.527435 
L 591.394868 -170.619564 
L 591.200629 -172.711693 
L 590.982329 -174.803821 
L 590.736704 -176.89595 
L 590.460604 -178.988079 
L 590.151062 -181.080207 
L 589.805375 -183.172336 
L 589.421198 -185.264465 
L 588.996637 -187.356593 
L 588.530354 -189.448722 
L 588.021667 -191.540851 
L 587.470644 -193.632979 
L 586.878197 -195.725108 
L 586.24615 -197.817237 
L 585.577299 -199.909365 
L 584.875451 -202.001494 
L 584.145436 -204.093623 
L 583.393095 -206.185751 
L 582.62525 -208.27788 
L 581.849639 -210.370009 
L 581.074831 -212.462137 
L 580.310112 -214.554266 
L 579.565354 -216.646395 
L 578.850853 -218.738524 
L 578.177158 -220.830652 
L 577.554873 -222.922781 
L 576.994449 -225.01491 
L 576.505963 -227.107038 
L 576.098891 -229.199167 
L 575.781878 -231.291296 
L 575.562516 -233.383424 
L 575.447125 -235.475553 
L 575.440562 -237.567682 
L 575.54605 -239.65981 
L 575.765043 -241.751939 
L 576.097129 -243.844068 
L 576.539987 -245.936196 
L 577.089388 -248.028325 
L 577.73926 -250.120454 
L 578.481799 -252.212582 
L 579.307641 -254.304711 
L 580.20608 -256.39684 
L 581.16533 -258.488968 
L 582.172814 -260.581097 
L 583.215484 -262.673226 
L 584.280143 -264.765354 
L 585.35377 -266.857483 
L 586.423823 -268.949612 
L 587.478523 -271.04174 
L 588.507097 -273.133869 
L 589.499978 -275.225998 
L 590.448954 -277.318126 
L 591.34727 -279.410255 
L 592.189669 -281.502384 
L 592.972386 -283.594513 
L 593.6931 -285.686641 
L 594.350841 -287.77877 
L 594.945865 -289.870899 
L 595.479505 -291.963027 
L 595.954008 -294.055156 
L 596.37236 -296.147285 
L 596.738116 -298.239413 
L 600.496954 -298.239413 
L 600.496954 -298.239413 
L 600.86271 -296.147285 
L 601.281062 -294.055156 
L 601.755565 -291.963027 
L 602.289205 -289.870899 
L 602.884229 -287.77877 
L 603.54197 -285.686641 
L 604.262684 -283.594513 
L 605.045401 -281.502384 
L 605.8878 -279.410255 
L 606.786116 -277.318126 
L 607.735092 -275.225998 
L 608.727973 -273.133869 
L 609.756547 -271.04174 
L 610.811247 -268.949612 
L 611.8813 -266.857483 
L 612.954927 -264.765354 
L 614.019586 -262.673226 
L 615.062256 -260.581097 
L 616.06974 -258.488968 
L 617.02899 -256.39684 
L 617.927429 -254.304711 
L 618.753271 -252.212582 
L 619.49581 -250.120454 
L 620.145682 -248.028325 
L 620.695083 -245.936196 
L 621.137941 -243.844068 
L 621.470027 -241.751939 
L 621.68902 -239.65981 
L 621.794508 -237.567682 
L 621.787945 -235.475553 
L 621.672554 -233.383424 
L 621.453192 -231.291296 
L 621.136179 -229.199167 
L 620.729107 -227.107038 
L 620.240621 -225.01491 
L 619.680197 -222.922781 
L 619.057912 -220.830652 
L 618.384217 -218.738524 
L 617.669716 -216.646395 
L 616.924957 -214.554266 
L 616.160239 -212.462137 
L 615.38543 -210.370009 
L 614.60982 -208.27788 
L 613.841975 -206.185751 
L 613.089634 -204.093623 
L 612.359618 -202.001494 
L 611.657771 -199.909365 
L 610.98892 -197.817237 
L 610.356873 -195.725108 
L 609.764426 -193.632979 
L 609.213403 -191.540851 
L 608.704716 -189.448722 
L 608.238433 -187.356593 
L 607.813872 -185.264465 
L 607.429695 -183.172336 
L 607.084008 -181.080207 
L 606.774466 -178.988079 
L 606.498366 -176.89595 
L 606.252741 -174.803821 
L 606.034441 -172.711693 
L 605.840202 -170.619564 
L 605.666706 -168.527435 
L 605.51063 -166.435307 
L 605.368684 -164.343178 
L 605.237642 -162.251049 
L 605.114374 -160.158921 
L 604.995865 -158.066792 
L 604.879246 -155.974663 
L 604.761815 -153.882535 
L 604.641076 -151.790406 
L 604.514763 -149.698277 
L 604.38088 -147.606149 
L 604.237741 -145.51402 
L 604.083999 -143.421891 
L 603.918682 -141.329762 
L 603.74122 -139.237634 
L 603.551457 -137.145505 
L 603.349659 -135.053376 
L 603.136506 -132.961248 
L 602.913071 -130.869119 
L 602.680782 -128.77699 
L 602.441376 -126.684862 
L 602.196839 -124.592733 
L 601.949336 -122.500604 
L 601.701144 -120.408476 
L 601.454568 -118.316347 
L 601.211874 -116.224218 
L 600.975219 -114.13209 
L 600.746585 -112.039961 
L 600.527733 -109.947832 
L 600.32016 -107.855704 
L 600.125074 -105.763575 
L 599.943376 -103.671446 
L 599.775663 -101.579318 
L 599.622235 -99.487189 
L 599.483112 -97.39506 
L 599.358065 -95.302932 
L 599.246647 -93.210803 
L 599.148229 -91.118674 
z
" style="stroke: #3f3f3f; stroke-width: 1.25"/>
    </defs>
    <g clip-path="url(#p9781983250)">
     <use xlink:href="#m2071b5c52c" x="0" y="360" style="fill: #3274a1; stroke: #3f3f3f; stroke-width: 1.25"/>
    </g>
   </g>
   <g id="PolyCollection_8">
    <defs>
     <path id="m65fac0929f" d="M 664.068334 -78.164681 
L 663.216639 -78.164681 
L 663.13736 -80.419229 
L 663.047756 -82.673777 
L 662.947424 -84.928326 
L 662.836139 -87.182874 
L 662.713886 -89.437422 
L 662.580892 -91.691971 
L 662.437645 -93.946519 
L 662.284915 -96.201068 
L 662.123749 -98.455616 
L 661.955476 -100.710164 
L 661.781677 -102.964713 
L 661.604161 -105.219261 
L 661.42491 -107.473809 
L 661.246032 -109.728358 
L 661.069686 -111.982906 
L 660.89801 -114.237454 
L 660.733044 -116.492003 
L 660.576649 -118.746551 
L 660.430437 -121.001099 
L 660.295698 -123.255648 
L 660.173356 -125.510196 
L 660.063923 -127.764744 
L 659.967481 -130.019293 
L 659.883679 -132.273841 
L 659.811752 -134.52839 
L 659.750555 -136.782938 
L 659.698612 -139.037486 
L 659.654178 -141.292035 
L 659.615305 -143.546583 
L 659.579917 -145.801131 
L 659.545868 -148.05568 
L 659.511003 -150.310228 
L 659.473202 -152.564776 
L 659.430402 -154.819325 
L 659.380604 -157.073873 
L 659.321863 -159.328421 
L 659.252253 -161.58297 
L 659.169823 -163.837518 
L 659.072539 -166.092067 
L 658.958224 -168.346615 
L 658.824497 -170.601163 
L 658.66873 -172.855712 
L 658.48802 -175.11026 
L 658.27918 -177.364808 
L 658.038775 -179.619357 
L 657.76318 -181.873905 
L 657.448685 -184.128453 
L 657.091634 -186.383002 
L 656.688595 -188.63755 
L 656.236563 -190.892098 
L 655.733182 -193.146647 
L 655.176975 -195.401195 
L 654.567574 -197.655743 
L 653.905937 -199.910292 
L 653.194529 -202.16484 
L 652.437476 -204.419389 
L 651.64065 -206.673937 
L 650.811704 -208.928485 
L 649.960031 -211.183034 
L 649.096652 -213.437582 
L 648.23403 -215.69213 
L 647.385806 -217.946679 
L 646.566483 -220.201227 
L 645.791039 -222.455775 
L 645.074518 -224.710324 
L 644.431578 -226.964872 
L 643.876044 -229.21942 
L 643.420464 -231.473969 
L 643.075706 -233.728517 
L 642.850587 -235.983065 
L 642.75158 -238.237614 
L 642.782591 -240.492162 
L 642.944822 -242.746711 
L 643.236728 -245.001259 
L 643.65407 -247.255807 
L 644.19005 -249.510356 
L 644.835547 -251.764904 
L 645.579404 -254.019452 
L 646.4088 -256.274001 
L 647.309643 -258.528549 
L 648.267005 -260.783097 
L 649.265559 -263.037646 
L 650.290007 -265.292194 
L 651.325483 -267.546742 
L 652.35792 -269.801291 
L 653.374358 -272.055839 
L 654.363196 -274.310388 
L 655.314385 -276.564936 
L 656.219545 -278.819484 
L 657.072018 -281.074033 
L 657.866868 -283.328581 
L 658.600817 -285.583129 
L 659.272139 -287.837678 
L 659.880513 -290.092226 
L 660.426857 -292.346774 
L 660.913135 -294.601323 
L 661.342162 -296.855871 
L 661.71741 -299.110419 
L 662.042821 -301.364968 
L 665.242152 -301.364968 
L 665.242152 -301.364968 
L 665.567563 -299.110419 
L 665.942811 -296.855871 
L 666.371838 -294.601323 
L 666.858116 -292.346774 
L 667.40446 -290.092226 
L 668.012834 -287.837678 
L 668.684156 -285.583129 
L 669.418105 -283.328581 
L 670.212955 -281.074033 
L 671.065428 -278.819484 
L 671.970587 -276.564936 
L 672.921777 -274.310388 
L 673.910615 -272.055839 
L 674.927052 -269.801291 
L 675.959489 -267.546742 
L 676.994966 -265.292194 
L 678.019414 -263.037646 
L 679.017968 -260.783097 
L 679.97533 -258.528549 
L 680.876173 -256.274001 
L 681.705568 -254.019452 
L 682.449426 -251.764904 
L 683.094922 -249.510356 
L 683.630903 -247.255807 
L 684.048245 -245.001259 
L 684.340151 -242.746711 
L 684.502382 -240.492162 
L 684.533393 -238.237614 
L 684.434386 -235.983065 
L 684.209267 -233.728517 
L 683.864508 -231.473969 
L 683.408929 -229.21942 
L 682.853394 -226.964872 
L 682.210454 -224.710324 
L 681.493934 -222.455775 
L 680.71849 -220.201227 
L 679.899167 -217.946679 
L 679.050943 -215.69213 
L 678.188321 -213.437582 
L 677.324942 -211.183034 
L 676.473269 -208.928485 
L 675.644323 -206.673937 
L 674.847497 -204.419389 
L 674.090443 -202.16484 
L 673.379036 -199.910292 
L 672.717399 -197.655743 
L 672.107998 -195.401195 
L 671.551791 -193.146647 
L 671.04841 -190.892098 
L 670.596378 -188.63755 
L 670.193338 -186.383002 
L 669.836287 -184.128453 
L 669.521793 -181.873905 
L 669.246198 -179.619357 
L 669.005793 -177.364808 
L 668.796953 -175.11026 
L 668.616243 -172.855712 
L 668.460476 -170.601163 
L 668.326749 -168.346615 
L 668.212433 -166.092067 
L 668.11515 -163.837518 
L 668.03272 -161.58297 
L 667.96311 -159.328421 
L 667.904369 -157.073873 
L 667.854571 -154.819325 
L 667.81177 -152.564776 
L 667.773969 -150.310228 
L 667.739105 -148.05568 
L 667.705056 -145.801131 
L 667.669668 -143.546583 
L 667.630795 -141.292035 
L 667.586361 -139.037486 
L 667.534417 -136.782938 
L 667.473221 -134.52839 
L 667.401294 -132.273841 
L 667.317492 -130.019293 
L 667.221049 -127.764744 
L 667.111616 -125.510196 
L 666.989275 -123.255648 
L 666.854536 -121.001099 
L 666.708323 -118.746551 
L 666.551929 -116.492003 
L 666.386963 -114.237454 
L 666.215287 -111.982906 
L 666.038941 -109.728358 
L 665.860063 -107.473809 
L 665.680812 -105.219261 
L 665.503295 -102.964713 
L 665.329497 -100.710164 
L 665.161224 -98.455616 
L 665.000058 -96.201068 
L 664.847327 -93.946519 
L 664.704081 -91.691971 
L 664.571087 -89.437422 
L 664.448834 -87.182874 
L 664.337549 -84.928326 
L 664.237217 -82.673777 
L 664.147613 -80.419229 
L 664.068334 -78.164681 
z
" style="stroke: #3f3f3f; stroke-width: 1.25"/>
    </defs>
    <g clip-path="url(#p9781983250)">
     <use xlink:href="#m65fac0929f" x="0" y="360" style="fill: #e1812c; stroke: #3f3f3f; stroke-width: 1.25"/>
    </g>
   </g>
   <g id="patch_6">
    <path d="M 468.567632 313.083316 
L 468.567632 313.083316 
L 468.567632 313.083316 
L 468.567632 313.083316 
z
" clip-path="url(#p9781983250)" style="fill: #3274a1; stroke: #3f3f3f; stroke-width: 1.25; stroke-linejoin: miter"/>
   </g>
   <g id="patch_7">
    <path d="M 468.567632 313.083316 
L 468.567632 313.083316 
L 468.567632 313.083316 
L 468.567632 313.083316 
z
" clip-path="url(#p9781983250)" style="fill: #e1812c; stroke: #3f3f3f; stroke-width: 1.25; stroke-linejoin: miter"/>
   </g>
   <g id="line2d_29">
    <path d="M 436.055156 157.849287 
L 436.055156 110.523079 
" clip-path="url(#p9781983250)" style="fill: none; stroke: #3f3f3f; stroke-width: 1.875; stroke-linecap: round"/>
   </g>
   <g id="line2d_30">
    <path d="M 436.055156 141.81579 
L 436.055156 110.523079 
" clip-path="url(#p9781983250)" style="fill: none; stroke: #3f3f3f; stroke-width: 5.625; stroke-linecap: round"/>
   </g>
   <g id="line2d_31">
    <path d="M 436.055156 110.523079 
" clip-path="url(#p9781983250)" style="fill: none; stroke: #3f3f3f; stroke-width: 1.5; stroke-linecap: round"/>
    <g clip-path="url(#p9781983250)">
     <use xlink:href="#m1598b3655f" x="436.055156" y="110.523079" style="fill: #ffffff; stroke: #ffffff; stroke-width: 1.125"/>
    </g>
   </g>
   <g id="line2d_32">
    <path d="M 501.080108 176.285864 
L 501.080108 110.523079 
" clip-path="url(#p9781983250)" style="fill: none; stroke: #3f3f3f; stroke-width: 1.875; stroke-linecap: round"/>
   </g>
   <g id="line2d_33">
    <path d="M 501.080108 150.528964 
L 501.080108 128.465023 
" clip-path="url(#p9781983250)" style="fill: none; stroke: #3f3f3f; stroke-width: 5.625; stroke-linecap: round"/>
   </g>
   <g id="line2d_34">
    <path d="M 501.080108 139.806629 
" clip-path="url(#p9781983250)" style="fill: none; stroke: #3f3f3f; stroke-width: 1.5; stroke-linecap: round"/>
    <g clip-path="url(#p9781983250)">
     <use xlink:href="#m1598b3655f" x="501.080108" y="139.806629" style="fill: #ffffff; stroke: #ffffff; stroke-width: 1.125"/>
    </g>
   </g>
   <g id="line2d_35">
    <path d="M 598.617535 183.520162 
L 598.617535 110.523079 
" clip-path="url(#p9781983250)" style="fill: none; stroke: #3f3f3f; stroke-width: 1.875; stroke-linecap: round"/>
   </g>
   <g id="line2d_36">
    <path d="M 598.617535 147.309166 
L 598.617535 112.721945 
" clip-path="url(#p9781983250)" style="fill: none; stroke: #3f3f3f; stroke-width: 5.625; stroke-linecap: round"/>
   </g>
   <g id="line2d_37">
    <path d="M 598.617535 130.885987 
" clip-path="url(#p9781983250)" style="fill: none; stroke: #3f3f3f; stroke-width: 1.5; stroke-linecap: round"/>
    <g clip-path="url(#p9781983250)">
     <use xlink:href="#m1598b3655f" x="598.617535" y="130.885987" style="fill: #ffffff; stroke: #ffffff; stroke-width: 1.125"/>
    </g>
   </g>
   <g id="line2d_38">
    <path d="M 663.642486 133.405629 
L 663.642486 110.523079 
" clip-path="url(#p9781983250)" style="fill: none; stroke: #3f3f3f; stroke-width: 1.875; stroke-linecap: round"/>
   </g>
   <g id="line2d_39">
    <path d="M 663.642486 133.405629 
L 663.642486 114.364707 
" clip-path="url(#p9781983250)" style="fill: none; stroke: #3f3f3f; stroke-width: 5.625; stroke-linecap: round"/>
   </g>
   <g id="line2d_40">
    <path d="M 663.642486 121.808968 
" clip-path="url(#p9781983250)" style="fill: none; stroke: #3f3f3f; stroke-width: 1.5; stroke-linecap: round"/>
    <g clip-path="url(#p9781983250)">
     <use xlink:href="#m1598b3655f" x="663.642486" y="121.808968" style="fill: #ffffff; stroke: #ffffff; stroke-width: 1.125"/>
    </g>
   </g>
   <g id="patch_8">
    <path d="M 387.286443 318.04 
L 387.286443 24.72 
" style="fill: none; stroke: #cccccc; stroke-width: 0.8; stroke-linejoin: miter; stroke-linecap: square"/>
   </g>
   <g id="patch_9">
    <path d="M 387.286443 318.04 
L 712.4112 318.04 
" style="fill: none; stroke: #cccccc; stroke-width: 0.8; stroke-linejoin: miter; stroke-linecap: square"/>
   </g>
   <g id="text_17">
    <!-- sex = m -->
    <g style="fill: #262626" transform="translate(532.205071 18.72) scale(0.1 -0.1)">
     <defs>
      <path id="ArialMT-6d" d="M 422 0 
L 422 3319 
L 925 3319 
L 925 2853 
Q 1081 3097 1340 3245 
Q 1600 3394 1931 3394 
Q 2300 3394 2536 3241 
Q 2772 3088 2869 2813 
Q 3263 3394 3894 3394 
Q 4388 3394 4653 3120 
Q 4919 2847 4919 2278 
L 4919 0 
L 4359 0 
L 4359 2091 
Q 4359 2428 4304 2576 
Q 4250 2725 4106 2815 
Q 3963 2906 3769 2906 
Q 3419 2906 3187 2673 
Q 2956 2441 2956 1928 
L 2956 0 
L 2394 0 
L 2394 2156 
Q 2394 2531 2256 2718 
Q 2119 2906 1806 2906 
Q 1569 2906 1367 2781 
Q 1166 2656 1075 2415 
Q 984 2175 984 1722 
L 984 0 
L 422 0 
z
" transform="scale(0.015625)"/>
     </defs>
     <use xlink:href="#ArialMT-73"/>
     <use xlink:href="#ArialMT-65" x="50"/>
     <use xlink:href="#ArialMT-78" x="105.615234"/>
     <use xlink:href="#ArialMT-20" x="155.615234"/>
     <use xlink:href="#ArialMT-3d" x="183.398438"/>
     <use xlink:href="#ArialMT-20" x="241.796875"/>
     <use xlink:href="#ArialMT-6d" x="269.580078"/>
    </g>
   </g>
  </g>
  <g id="legend_1">
   <g id="text_18">
    <!-- time -->
    <g style="fill: #262626" transform="translate(725.045625 168.439844) scale(0.1 -0.1)">
     <use xlink:href="#ArialMT-74"/>
     <use xlink:href="#ArialMT-69" x="27.783203"/>
     <use xlink:href="#ArialMT-6d" x="50"/>
     <use xlink:href="#ArialMT-65" x="133.300781"/>
    </g>
   </g>
   <g id="patch_10">
    <path d="M 719.101875 182.585156 
L 739.101875 182.585156 
L 739.101875 175.585156 
L 719.101875 175.585156 
z
" style="fill: #3274a1; stroke: #3f3f3f; stroke-width: 1.25; stroke-linejoin: miter"/>
   </g>
   <g id="text_19">
    <!-- i -->
    <g style="fill: #262626" transform="translate(747.101875 182.585156) scale(0.1 -0.1)">
     <use xlink:href="#ArialMT-69"/>
    </g>
   </g>
   <g id="patch_11">
    <path d="M 719.101875 196.730469 
L 739.101875 196.730469 
L 739.101875 189.730469 
L 719.101875 189.730469 
z
" style="fill: #e1812c; stroke: #3f3f3f; stroke-width: 1.25; stroke-linejoin: miter"/>
   </g>
   <g id="text_20">
    <!-- f -->
    <g style="fill: #262626" transform="translate(747.101875 196.730469) scale(0.1 -0.1)">
     <use xlink:href="#ArialMT-66"/>
    </g>
   </g>
  </g>
 </g>
 <defs>
  <clipPath id="p42ffde0fd1">
   <rect x="51.352198" y="24.72" width="325.124757" height="293.32"/>
  </clipPath>
  <clipPath id="p9781983250">
   <rect x="387.286443" y="24.72" width="325.124757" height="293.32"/>
  </clipPath>
 </defs>
</svg>
