<?xml version="1.0" encoding="utf-8" standalone="no"?>
<!DOCTYPE svg PUBLIC "-//W3C//DTD SVG 1.1//EN"
  "http://www.w3.org/Graphics/SVG/1.1/DTD/svg11.dtd">
<svg xmlns:xlink="http://www.w3.org/1999/xlink" width="758.88pt" height="360pt" viewBox="0 0 758.88 360" xmlns="http://www.w3.org/2000/svg" version="1.1">
 <metadata>
  <rdf:RDF xmlns:dc="http://purl.org/dc/elements/1.1/" xmlns:cc="http://creativecommons.org/ns#" xmlns:rdf="http://www.w3.org/1999/02/22-rdf-syntax-ns#">
   <cc:Work>
    <dc:type rdf:resource="http://purl.org/dc/dcmitype/StillImage"/>
    <dc:date>2024-09-11T03:22:35.333414</dc:date>
    <dc:format>image/svg+xml</dc:format>
    <dc:creator>
     <cc:Agent>
      <dc:title>Matplotlib v3.8.3, https://matplotlib.org/</dc:title>
     </cc:Agent>
    </dc:creator>
   </cc:Work>
  </rdf:RDF>
 </metadata>
 <defs>
  <style type="text/css">*{stroke-linejoin: round; stroke-linecap: butt}</style>
 </defs>
 <g id="figure_1">
  <g id="patch_1">
   <path d="M 0 360 
L 758.88 360 
L 758.88 0 
L 0 0 
z
" style="fill: #ffffff"/>
  </g>
  <g id="axes_1">
   <g id="patch_2">
    <path d="M 51.352198 318.04 
L 376.476955 318.04 
L 376.476955 24.72 
L 51.352198 24.72 
z
" style="fill: #ffffff"/>
   </g>
   <g id="matplotlib.axis_1">
    <g id="xtick_1">
     <g id="text_1">
      <!-- Jurilovca -->
      <g style="fill: #262626" transform="translate(112.905262 332.197812) scale(0.1 -0.1)">
       <defs>
        <path id="ArialMT-4a" d="M 184 1300 
L 731 1375 
Q 753 850 928 656 
Q 1103 463 1413 463 
Q 1641 463 1806 567 
Q 1972 672 2034 851 
Q 2097 1031 2097 1425 
L 2097 4581 
L 2703 4581 
L 2703 1459 
Q 2703 884 2564 568 
Q 2425 253 2123 87 
Q 1822 -78 1416 -78 
Q 813 -78 492 269 
Q 172 616 184 1300 
z
" transform="scale(0.015625)"/>
        <path id="ArialMT-75" d="M 2597 0 
L 2597 488 
Q 2209 -75 1544 -75 
Q 1250 -75 995 37 
Q 741 150 617 320 
Q 494 491 444 738 
Q 409 903 409 1263 
L 409 3319 
L 972 3319 
L 972 1478 
Q 972 1038 1006 884 
Q 1059 663 1231 536 
Q 1403 409 1656 409 
Q 1909 409 2131 539 
Q 2353 669 2445 892 
Q 2538 1116 2538 1541 
L 2538 3319 
L 3100 3319 
L 3100 0 
L 2597 0 
z
" transform="scale(0.015625)"/>
        <path id="ArialMT-72" d="M 416 0 
L 416 3319 
L 922 3319 
L 922 2816 
Q 1116 3169 1280 3281 
Q 1444 3394 1641 3394 
Q 1925 3394 2219 3213 
L 2025 2691 
Q 1819 2813 1613 2813 
Q 1428 2813 1281 2702 
Q 1134 2591 1072 2394 
Q 978 2094 978 1738 
L 978 0 
L 416 0 
z
" transform="scale(0.015625)"/>
        <path id="ArialMT-69" d="M 425 3934 
L 425 4581 
L 988 4581 
L 988 3934 
L 425 3934 
z
M 425 0 
L 425 3319 
L 988 3319 
L 988 0 
L 425 0 
z
" transform="scale(0.015625)"/>
        <path id="ArialMT-6c" d="M 409 0 
L 409 4581 
L 972 4581 
L 972 0 
L 409 0 
z
" transform="scale(0.015625)"/>
        <path id="ArialMT-6f" d="M 213 1659 
Q 213 2581 725 3025 
Q 1153 3394 1769 3394 
Q 2453 3394 2887 2945 
Q 3322 2497 3322 1706 
Q 3322 1066 3130 698 
Q 2938 331 2570 128 
Q 2203 -75 1769 -75 
Q 1072 -75 642 372 
Q 213 819 213 1659 
z
M 791 1659 
Q 791 1022 1069 705 
Q 1347 388 1769 388 
Q 2188 388 2466 706 
Q 2744 1025 2744 1678 
Q 2744 2294 2464 2611 
Q 2184 2928 1769 2928 
Q 1347 2928 1069 2612 
Q 791 2297 791 1659 
z
" transform="scale(0.015625)"/>
        <path id="ArialMT-76" d="M 1344 0 
L 81 3319 
L 675 3319 
L 1388 1331 
Q 1503 1009 1600 663 
Q 1675 925 1809 1294 
L 2547 3319 
L 3125 3319 
L 1869 0 
L 1344 0 
z
" transform="scale(0.015625)"/>
        <path id="ArialMT-63" d="M 2588 1216 
L 3141 1144 
Q 3050 572 2676 248 
Q 2303 -75 1759 -75 
Q 1078 -75 664 370 
Q 250 816 250 1647 
Q 250 2184 428 2587 
Q 606 2991 970 3192 
Q 1334 3394 1763 3394 
Q 2303 3394 2647 3120 
Q 2991 2847 3088 2344 
L 2541 2259 
Q 2463 2594 2264 2762 
Q 2066 2931 1784 2931 
Q 1359 2931 1093 2626 
Q 828 2322 828 1663 
Q 828 994 1084 691 
Q 1341 388 1753 388 
Q 2084 388 2306 591 
Q 2528 794 2588 1216 
z
" transform="scale(0.015625)"/>
        <path id="ArialMT-61" d="M 2588 409 
Q 2275 144 1986 34 
Q 1697 -75 1366 -75 
Q 819 -75 525 192 
Q 231 459 231 875 
Q 231 1119 342 1320 
Q 453 1522 633 1644 
Q 813 1766 1038 1828 
Q 1203 1872 1538 1913 
Q 2219 1994 2541 2106 
Q 2544 2222 2544 2253 
Q 2544 2597 2384 2738 
Q 2169 2928 1744 2928 
Q 1347 2928 1158 2789 
Q 969 2650 878 2297 
L 328 2372 
Q 403 2725 575 2942 
Q 747 3159 1072 3276 
Q 1397 3394 1825 3394 
Q 2250 3394 2515 3294 
Q 2781 3194 2906 3042 
Q 3031 2891 3081 2659 
Q 3109 2516 3109 2141 
L 3109 1391 
Q 3109 606 3145 398 
Q 3181 191 3288 0 
L 2700 0 
Q 2613 175 2588 409 
z
M 2541 1666 
Q 2234 1541 1622 1453 
Q 1275 1403 1131 1340 
Q 988 1278 909 1158 
Q 831 1038 831 891 
Q 831 666 1001 516 
Q 1172 366 1500 366 
Q 1825 366 2078 508 
Q 2331 650 2450 897 
Q 2541 1088 2541 1459 
L 2541 1666 
z
" transform="scale(0.015625)"/>
       </defs>
       <use xlink:href="#ArialMT-4a"/>
       <use xlink:href="#ArialMT-75" x="50"/>
       <use xlink:href="#ArialMT-72" x="105.615234"/>
       <use xlink:href="#ArialMT-69" x="138.916016"/>
       <use xlink:href="#ArialMT-6c" x="161.132812"/>
       <use xlink:href="#ArialMT-6f" x="183.349609"/>
       <use xlink:href="#ArialMT-76" x="238.964844"/>
       <use xlink:href="#ArialMT-63" x="288.964844"/>
       <use xlink:href="#ArialMT-61" x="338.964844"/>
      </g>
     </g>
    </g>
    <g id="xtick_2">
     <g id="text_2">
      <!-- Baia -->
      <g style="fill: #262626" transform="translate(285.188734 332.197812) scale(0.1 -0.1)">
       <defs>
        <path id="ArialMT-42" d="M 469 0 
L 469 4581 
L 2188 4581 
Q 2713 4581 3030 4442 
Q 3347 4303 3526 4014 
Q 3706 3725 3706 3409 
Q 3706 3116 3547 2856 
Q 3388 2597 3066 2438 
Q 3481 2316 3704 2022 
Q 3928 1728 3928 1328 
Q 3928 1006 3792 729 
Q 3656 453 3456 303 
Q 3256 153 2954 76 
Q 2653 0 2216 0 
L 469 0 
z
M 1075 2656 
L 2066 2656 
Q 2469 2656 2644 2709 
Q 2875 2778 2992 2937 
Q 3109 3097 3109 3338 
Q 3109 3566 3000 3739 
Q 2891 3913 2687 3977 
Q 2484 4041 1991 4041 
L 1075 4041 
L 1075 2656 
z
M 1075 541 
L 2216 541 
Q 2509 541 2628 563 
Q 2838 600 2978 687 
Q 3119 775 3209 942 
Q 3300 1109 3300 1328 
Q 3300 1584 3169 1773 
Q 3038 1963 2805 2039 
Q 2572 2116 2134 2116 
L 1075 2116 
L 1075 541 
z
" transform="scale(0.015625)"/>
       </defs>
       <use xlink:href="#ArialMT-42"/>
       <use xlink:href="#ArialMT-61" x="66.699219"/>
       <use xlink:href="#ArialMT-69" x="122.314453"/>
       <use xlink:href="#ArialMT-61" x="144.53125"/>
      </g>
     </g>
    </g>
    <g id="text_3">
     <!-- location -->
     <g style="fill: #262626" transform="translate(196.681764 345.343125) scale(0.1 -0.1)">
      <defs>
       <path id="ArialMT-74" d="M 1650 503 
L 1731 6 
Q 1494 -44 1306 -44 
Q 1000 -44 831 53 
Q 663 150 594 308 
Q 525 466 525 972 
L 525 2881 
L 113 2881 
L 113 3319 
L 525 3319 
L 525 4141 
L 1084 4478 
L 1084 3319 
L 1650 3319 
L 1650 2881 
L 1084 2881 
L 1084 941 
Q 1084 700 1114 631 
Q 1144 563 1211 522 
Q 1278 481 1403 481 
Q 1497 481 1650 503 
z
" transform="scale(0.015625)"/>
       <path id="ArialMT-6e" d="M 422 0 
L 422 3319 
L 928 3319 
L 928 2847 
Q 1294 3394 1984 3394 
Q 2284 3394 2536 3286 
Q 2788 3178 2913 3003 
Q 3038 2828 3088 2588 
Q 3119 2431 3119 2041 
L 3119 0 
L 2556 0 
L 2556 2019 
Q 2556 2363 2490 2533 
Q 2425 2703 2258 2804 
Q 2091 2906 1866 2906 
Q 1506 2906 1245 2678 
Q 984 2450 984 1813 
L 984 0 
L 422 0 
z
" transform="scale(0.015625)"/>
      </defs>
      <use xlink:href="#ArialMT-6c"/>
      <use xlink:href="#ArialMT-6f" x="22.216797"/>
      <use xlink:href="#ArialMT-63" x="77.832031"/>
      <use xlink:href="#ArialMT-61" x="127.832031"/>
      <use xlink:href="#ArialMT-74" x="183.447266"/>
      <use xlink:href="#ArialMT-69" x="211.230469"/>
      <use xlink:href="#ArialMT-6f" x="233.447266"/>
      <use xlink:href="#ArialMT-6e" x="289.0625"/>
     </g>
    </g>
   </g>
   <g id="matplotlib.axis_2">
    <g id="ytick_1">
     <g id="line2d_1">
      <path d="M 51.352198 311.704312 
L 376.476955 311.704312 
" clip-path="url(#p2106d225b7)" style="fill: none; stroke: #cccccc; stroke-width: 0.8; stroke-linecap: round"/>
     </g>
     <g id="text_4">
      <!-- 60 -->
      <g style="fill: #262626" transform="translate(33.230322 315.283218) scale(0.1 -0.1)">
       <defs>
        <path id="ArialMT-36" d="M 3184 3459 
L 2625 3416 
Q 2550 3747 2413 3897 
Q 2184 4138 1850 4138 
Q 1581 4138 1378 3988 
Q 1113 3794 959 3422 
Q 806 3050 800 2363 
Q 1003 2672 1297 2822 
Q 1591 2972 1913 2972 
Q 2475 2972 2870 2558 
Q 3266 2144 3266 1488 
Q 3266 1056 3080 686 
Q 2894 316 2569 119 
Q 2244 -78 1831 -78 
Q 1128 -78 684 439 
Q 241 956 241 2144 
Q 241 3472 731 4075 
Q 1159 4600 1884 4600 
Q 2425 4600 2770 4297 
Q 3116 3994 3184 3459 
z
M 888 1484 
Q 888 1194 1011 928 
Q 1134 663 1356 523 
Q 1578 384 1822 384 
Q 2178 384 2434 671 
Q 2691 959 2691 1453 
Q 2691 1928 2437 2201 
Q 2184 2475 1800 2475 
Q 1419 2475 1153 2201 
Q 888 1928 888 1484 
z
" transform="scale(0.015625)"/>
        <path id="ArialMT-30" d="M 266 2259 
Q 266 3072 433 3567 
Q 600 4063 929 4331 
Q 1259 4600 1759 4600 
Q 2128 4600 2406 4451 
Q 2684 4303 2865 4023 
Q 3047 3744 3150 3342 
Q 3253 2941 3253 2259 
Q 3253 1453 3087 958 
Q 2922 463 2592 192 
Q 2263 -78 1759 -78 
Q 1097 -78 719 397 
Q 266 969 266 2259 
z
M 844 2259 
Q 844 1131 1108 757 
Q 1372 384 1759 384 
Q 2147 384 2411 759 
Q 2675 1134 2675 2259 
Q 2675 3391 2411 3762 
Q 2147 4134 1753 4134 
Q 1366 4134 1134 3806 
Q 844 3388 844 2259 
z
" transform="scale(0.015625)"/>
       </defs>
       <use xlink:href="#ArialMT-36"/>
       <use xlink:href="#ArialMT-30" x="55.615234"/>
      </g>
     </g>
    </g>
    <g id="ytick_2">
     <g id="line2d_2">
      <path d="M 51.352198 277.038498 
L 376.476955 277.038498 
" clip-path="url(#p2106d225b7)" style="fill: none; stroke: #cccccc; stroke-width: 0.8; stroke-linecap: round"/>
     </g>
     <g id="text_5">
      <!-- 80 -->
      <g style="fill: #262626" transform="translate(33.230322 280.617404) scale(0.1 -0.1)">
       <defs>
        <path id="ArialMT-38" d="M 1131 2484 
Q 781 2613 612 2850 
Q 444 3088 444 3419 
Q 444 3919 803 4259 
Q 1163 4600 1759 4600 
Q 2359 4600 2725 4251 
Q 3091 3903 3091 3403 
Q 3091 3084 2923 2848 
Q 2756 2613 2416 2484 
Q 2838 2347 3058 2040 
Q 3278 1734 3278 1309 
Q 3278 722 2862 322 
Q 2447 -78 1769 -78 
Q 1091 -78 675 323 
Q 259 725 259 1325 
Q 259 1772 486 2073 
Q 713 2375 1131 2484 
z
M 1019 3438 
Q 1019 3113 1228 2906 
Q 1438 2700 1772 2700 
Q 2097 2700 2305 2904 
Q 2513 3109 2513 3406 
Q 2513 3716 2298 3927 
Q 2084 4138 1766 4138 
Q 1444 4138 1231 3931 
Q 1019 3725 1019 3438 
z
M 838 1322 
Q 838 1081 952 856 
Q 1066 631 1291 507 
Q 1516 384 1775 384 
Q 2178 384 2440 643 
Q 2703 903 2703 1303 
Q 2703 1709 2433 1975 
Q 2163 2241 1756 2241 
Q 1359 2241 1098 1978 
Q 838 1716 838 1322 
z
" transform="scale(0.015625)"/>
       </defs>
       <use xlink:href="#ArialMT-38"/>
       <use xlink:href="#ArialMT-30" x="55.615234"/>
      </g>
     </g>
    </g>
    <g id="ytick_3">
     <g id="line2d_3">
      <path d="M 51.352198 242.372684 
L 376.476955 242.372684 
" clip-path="url(#p2106d225b7)" style="fill: none; stroke: #cccccc; stroke-width: 0.8; stroke-linecap: round"/>
     </g>
     <g id="text_6">
      <!-- 100 -->
      <g style="fill: #262626" transform="translate(27.669385 245.95159) scale(0.1 -0.1)">
       <defs>
        <path id="ArialMT-31" d="M 2384 0 
L 1822 0 
L 1822 3584 
Q 1619 3391 1289 3197 
Q 959 3003 697 2906 
L 697 3450 
Q 1169 3672 1522 3987 
Q 1875 4303 2022 4600 
L 2384 4600 
L 2384 0 
z
" transform="scale(0.015625)"/>
       </defs>
       <use xlink:href="#ArialMT-31"/>
       <use xlink:href="#ArialMT-30" x="55.615234"/>
       <use xlink:href="#ArialMT-30" x="111.230469"/>
      </g>
     </g>
    </g>
    <g id="ytick_4">
     <g id="line2d_4">
      <path d="M 51.352198 207.706869 
L 376.476955 207.706869 
" clip-path="url(#p2106d225b7)" style="fill: none; stroke: #cccccc; stroke-width: 0.8; stroke-linecap: round"/>
     </g>
     <g id="text_7">
      <!-- 120 -->
      <g style="fill: #262626" transform="translate(27.669385 211.285775) scale(0.1 -0.1)">
       <defs>
        <path id="ArialMT-32" d="M 3222 541 
L 3222 0 
L 194 0 
Q 188 203 259 391 
Q 375 700 629 1000 
Q 884 1300 1366 1694 
Q 2113 2306 2375 2664 
Q 2638 3022 2638 3341 
Q 2638 3675 2398 3904 
Q 2159 4134 1775 4134 
Q 1369 4134 1125 3890 
Q 881 3647 878 3216 
L 300 3275 
Q 359 3922 746 4261 
Q 1134 4600 1788 4600 
Q 2447 4600 2831 4234 
Q 3216 3869 3216 3328 
Q 3216 3053 3103 2787 
Q 2991 2522 2730 2228 
Q 2469 1934 1863 1422 
Q 1356 997 1212 845 
Q 1069 694 975 541 
L 3222 541 
z
" transform="scale(0.015625)"/>
       </defs>
       <use xlink:href="#ArialMT-31"/>
       <use xlink:href="#ArialMT-32" x="55.615234"/>
       <use xlink:href="#ArialMT-30" x="111.230469"/>
      </g>
     </g>
    </g>
    <g id="ytick_5">
     <g id="line2d_5">
      <path d="M 51.352198 173.041055 
L 376.476955 173.041055 
" clip-path="url(#p2106d225b7)" style="fill: none; stroke: #cccccc; stroke-width: 0.8; stroke-linecap: round"/>
     </g>
     <g id="text_8">
      <!-- 140 -->
      <g style="fill: #262626" transform="translate(27.669385 176.619961) scale(0.1 -0.1)">
       <defs>
        <path id="ArialMT-34" d="M 2069 0 
L 2069 1097 
L 81 1097 
L 81 1613 
L 2172 4581 
L 2631 4581 
L 2631 1613 
L 3250 1613 
L 3250 1097 
L 2631 1097 
L 2631 0 
L 2069 0 
z
M 2069 1613 
L 2069 3678 
L 634 1613 
L 2069 1613 
z
" transform="scale(0.015625)"/>
       </defs>
       <use xlink:href="#ArialMT-31"/>
       <use xlink:href="#ArialMT-34" x="55.615234"/>
       <use xlink:href="#ArialMT-30" x="111.230469"/>
      </g>
     </g>
    </g>
    <g id="ytick_6">
     <g id="line2d_6">
      <path d="M 51.352198 138.37524 
L 376.476955 138.37524 
" clip-path="url(#p2106d225b7)" style="fill: none; stroke: #cccccc; stroke-width: 0.8; stroke-linecap: round"/>
     </g>
     <g id="text_9">
      <!-- 160 -->
      <g style="fill: #262626" transform="translate(27.669385 141.954147) scale(0.1 -0.1)">
       <use xlink:href="#ArialMT-31"/>
       <use xlink:href="#ArialMT-36" x="55.615234"/>
       <use xlink:href="#ArialMT-30" x="111.230469"/>
      </g>
     </g>
    </g>
    <g id="ytick_7">
     <g id="line2d_7">
      <path d="M 51.352198 103.709426 
L 376.476955 103.709426 
" clip-path="url(#p2106d225b7)" style="fill: none; stroke: #cccccc; stroke-width: 0.8; stroke-linecap: round"/>
     </g>
     <g id="text_10">
      <!-- 180 -->
      <g style="fill: #262626" transform="translate(27.669385 107.288332) scale(0.1 -0.1)">
       <use xlink:href="#ArialMT-31"/>
       <use xlink:href="#ArialMT-38" x="55.615234"/>
       <use xlink:href="#ArialMT-30" x="111.230469"/>
      </g>
     </g>
    </g>
    <g id="ytick_8">
     <g id="line2d_8">
      <path d="M 51.352198 69.043612 
L 376.476955 69.043612 
" clip-path="url(#p2106d225b7)" style="fill: none; stroke: #cccccc; stroke-width: 0.8; stroke-linecap: round"/>
     </g>
     <g id="text_11">
      <!-- 200 -->
      <g style="fill: #262626" transform="translate(27.669385 72.622518) scale(0.1 -0.1)">
       <use xlink:href="#ArialMT-32"/>
       <use xlink:href="#ArialMT-30" x="55.615234"/>
       <use xlink:href="#ArialMT-30" x="111.230469"/>
      </g>
     </g>
    </g>
    <g id="ytick_9">
     <g id="line2d_9">
      <path d="M 51.352198 34.377797 
L 376.476955 34.377797 
" clip-path="url(#p2106d225b7)" style="fill: none; stroke: #cccccc; stroke-width: 0.8; stroke-linecap: round"/>
     </g>
     <g id="text_12">
      <!-- 220 -->
      <g style="fill: #262626" transform="translate(27.669385 37.956704) scale(0.1 -0.1)">
       <use xlink:href="#ArialMT-32"/>
       <use xlink:href="#ArialMT-32" x="55.615234"/>
       <use xlink:href="#ArialMT-30" x="111.230469"/>
      </g>
     </g>
    </g>
    <g id="text_13">
     <!-- hrate -->
     <g style="fill: #262626" transform="translate(21.681885 182.775312) rotate(-90) scale(0.1 -0.1)">
      <defs>
       <path id="ArialMT-68" d="M 422 0 
L 422 4581 
L 984 4581 
L 984 2938 
Q 1378 3394 1978 3394 
Q 2347 3394 2619 3248 
Q 2891 3103 3008 2847 
Q 3125 2591 3125 2103 
L 3125 0 
L 2563 0 
L 2563 2103 
Q 2563 2525 2380 2717 
Q 2197 2909 1863 2909 
Q 1613 2909 1392 2779 
Q 1172 2650 1078 2428 
Q 984 2206 984 1816 
L 984 0 
L 422 0 
z
" transform="scale(0.015625)"/>
       <path id="ArialMT-65" d="M 2694 1069 
L 3275 997 
Q 3138 488 2766 206 
Q 2394 -75 1816 -75 
Q 1088 -75 661 373 
Q 234 822 234 1631 
Q 234 2469 665 2931 
Q 1097 3394 1784 3394 
Q 2450 3394 2872 2941 
Q 3294 2488 3294 1666 
Q 3294 1616 3291 1516 
L 816 1516 
Q 847 969 1125 678 
Q 1403 388 1819 388 
Q 2128 388 2347 550 
Q 2566 713 2694 1069 
z
M 847 1978 
L 2700 1978 
Q 2663 2397 2488 2606 
Q 2219 2931 1791 2931 
Q 1403 2931 1139 2672 
Q 875 2413 847 1978 
z
" transform="scale(0.015625)"/>
      </defs>
      <use xlink:href="#ArialMT-68"/>
      <use xlink:href="#ArialMT-72" x="55.615234"/>
      <use xlink:href="#ArialMT-61" x="88.916016"/>
      <use xlink:href="#ArialMT-74" x="144.53125"/>
      <use xlink:href="#ArialMT-65" x="172.314453"/>
     </g>
    </g>
   </g>
   <g id="PolyCollection_1">
    <defs>
     <path id="m96816b070b" d="M 100.842222 -55.292727 
L 99.3996 -55.292727 
L 99.280118 -57.744346 
L 99.1465 -60.195964 
L 98.998128 -62.647583 
L 98.834542 -65.099201 
L 98.655468 -67.55082 
L 98.460839 -70.002438 
L 98.25082 -72.454057 
L 98.025818 -74.905675 
L 97.786492 -77.357294 
L 97.533745 -79.808912 
L 97.268719 -82.260531 
L 96.992766 -84.712149 
L 96.707419 -87.163768 
L 96.41435 -89.615387 
L 96.115314 -92.067005 
L 95.812098 -94.518624 
L 95.506451 -96.970242 
L 95.200021 -99.421861 
L 94.894291 -101.873479 
L 94.590515 -104.325098 
L 94.289667 -106.776716 
L 93.992393 -109.228335 
L 93.698983 -111.679953 
L 93.409358 -114.131572 
L 93.123067 -116.58319 
L 92.839309 -119.034809 
L 92.556971 -121.486427 
L 92.274681 -123.938046 
L 91.990874 -126.389664 
L 91.703878 -128.841283 
L 91.411992 -131.292901 
L 91.113581 -133.74452 
L 90.807164 -136.196138 
L 90.491491 -138.647757 
L 90.165619 -141.099375 
L 89.82896 -143.550994 
L 89.481324 -146.002612 
L 89.122932 -148.454231 
L 88.75441 -150.905849 
L 88.376767 -153.357468 
L 87.99135 -155.809087 
L 87.599784 -158.260705 
L 87.203902 -160.712324 
L 86.805669 -163.163942 
L 86.407103 -165.615561 
L 86.010204 -168.067179 
L 85.61689 -170.518798 
L 85.228954 -172.970416 
L 84.84803 -175.422035 
L 84.47559 -177.873653 
L 84.112956 -180.325272 
L 83.761335 -182.77689 
L 83.421874 -185.228509 
L 83.095727 -187.680127 
L 82.784135 -190.131746 
L 82.488502 -192.583364 
L 82.210475 -195.034983 
L 81.952012 -197.486601 
L 81.715425 -199.93822 
L 81.503418 -202.389838 
L 81.319078 -204.841457 
L 81.16585 -207.293075 
L 81.047478 -209.744694 
L 80.967917 -212.196312 
L 80.931215 -214.647931 
L 80.941379 -217.099549 
L 81.002219 -219.551168 
L 81.117192 -222.002787 
L 81.289235 -224.454405 
L 81.520613 -226.906024 
L 81.812786 -229.357642 
L 82.166289 -231.809261 
L 82.580649 -234.260879 
L 83.054338 -236.712498 
L 83.584754 -239.164116 
L 84.168253 -241.615735 
L 84.800206 -244.067353 
L 85.475097 -246.518972 
L 86.186653 -248.97059 
L 86.927997 -251.422209 
L 87.691816 -253.873827 
L 88.470543 -256.325446 
L 89.256547 -258.777064 
L 90.04231 -261.228683 
L 90.820598 -263.680301 
L 91.584621 -266.13192 
L 92.328159 -268.583538 
L 93.045677 -271.035157 
L 93.732401 -273.486775 
L 94.384378 -275.938394 
L 94.998493 -278.390012 
L 95.572476 -280.841631 
L 96.104873 -283.293249 
L 96.595001 -285.744868 
L 97.042886 -288.196487 
L 97.449189 -290.648105 
L 97.815116 -293.099724 
L 98.142334 -295.551342 
L 98.432877 -298.002961 
L 101.808945 -298.002961 
L 101.808945 -298.002961 
L 102.099488 -295.551342 
L 102.426706 -293.099724 
L 102.792634 -290.648105 
L 103.198936 -288.196487 
L 103.646822 -285.744868 
L 104.136949 -283.293249 
L 104.669346 -280.841631 
L 105.243329 -278.390012 
L 105.857444 -275.938394 
L 106.509421 -273.486775 
L 107.196145 -271.035157 
L 107.913663 -268.583538 
L 108.657201 -266.13192 
L 109.421224 -263.680301 
L 110.199512 -261.228683 
L 110.985275 -258.777064 
L 111.771279 -256.325446 
L 112.550007 -253.873827 
L 113.313825 -251.422209 
L 114.055169 -248.97059 
L 114.766725 -246.518972 
L 115.441616 -244.067353 
L 116.073569 -241.615735 
L 116.657068 -239.164116 
L 117.187485 -236.712498 
L 117.661173 -234.260879 
L 118.075533 -231.809261 
L 118.429036 -229.357642 
L 118.721209 -226.906024 
L 118.952588 -224.454405 
L 119.12463 -222.002787 
L 119.239603 -219.551168 
L 119.300443 -217.099549 
L 119.310607 -214.647931 
L 119.273905 -212.196312 
L 119.194344 -209.744694 
L 119.075972 -207.293075 
L 118.922744 -204.841457 
L 118.738404 -202.389838 
L 118.526397 -199.93822 
L 118.289811 -197.486601 
L 118.031347 -195.034983 
L 117.75332 -192.583364 
L 117.457687 -190.131746 
L 117.146095 -187.680127 
L 116.819948 -185.228509 
L 116.480488 -182.77689 
L 116.128866 -180.325272 
L 115.766232 -177.873653 
L 115.393792 -175.422035 
L 115.012868 -172.970416 
L 114.624932 -170.518798 
L 114.231618 -168.067179 
L 113.834719 -165.615561 
L 113.436153 -163.163942 
L 113.03792 -160.712324 
L 112.642038 -158.260705 
L 112.250472 -155.809087 
L 111.865055 -153.357468 
L 111.487413 -150.905849 
L 111.11889 -148.454231 
L 110.760498 -146.002612 
L 110.412862 -143.550994 
L 110.076204 -141.099375 
L 109.750331 -138.647757 
L 109.434659 -136.196138 
L 109.128241 -133.74452 
L 108.82983 -131.292901 
L 108.537944 -128.841283 
L 108.250948 -126.389664 
L 107.967141 -123.938046 
L 107.684851 -121.486427 
L 107.402513 -119.034809 
L 107.118755 -116.58319 
L 106.832464 -114.131572 
L 106.542839 -111.679953 
L 106.24943 -109.228335 
L 105.952155 -106.776716 
L 105.651307 -104.325098 
L 105.347531 -101.873479 
L 105.041801 -99.421861 
L 104.735372 -96.970242 
L 104.429724 -94.518624 
L 104.126508 -92.067005 
L 103.827473 -89.615387 
L 103.534403 -87.163768 
L 103.249056 -84.712149 
L 102.973103 -82.260531 
L 102.708077 -79.808912 
L 102.45533 -77.357294 
L 102.216004 -74.905675 
L 101.991002 -72.454057 
L 101.780983 -70.002438 
L 101.586354 -67.55082 
L 101.40728 -65.099201 
L 101.243694 -62.647583 
L 101.095323 -60.195964 
L 100.961704 -57.744346 
L 100.842222 -55.292727 
z
" style="stroke: #3f3f3f; stroke-width: 1.25"/>
    </defs>
    <g clip-path="url(#p2106d225b7)">
     <use xlink:href="#m96816b070b" x="0" y="360" style="fill: #3274a1; stroke: #3f3f3f; stroke-width: 1.25"/>
    </g>
   </g>
   <g id="PolyCollection_2">
    <defs>
     <path id="mbbe9870e42" d="M 166.109613 -57.037221 
L 164.182112 -57.037221 
L 164.022026 -58.992064 
L 163.843352 -60.946907 
L 163.645487 -62.90175 
L 163.428111 -64.856593 
L 163.191233 -66.811436 
L 162.93524 -68.766279 
L 162.660938 -70.721122 
L 162.36958 -72.675965 
L 162.062885 -74.630808 
L 161.743048 -76.585651 
L 161.412728 -78.540494 
L 161.075019 -80.495337 
L 160.733408 -82.45018 
L 160.391709 -84.405024 
L 160.053983 -86.359867 
L 159.724438 -88.31471 
L 159.407315 -90.269553 
L 159.106766 -92.224396 
L 158.826716 -94.179239 
L 158.57073 -96.134082 
L 158.341873 -98.088925 
L 158.142581 -100.043768 
L 157.974536 -101.998611 
L 157.838563 -103.953454 
L 157.734544 -105.908297 
L 157.661349 -107.86314 
L 157.616801 -109.817983 
L 157.597668 -111.772826 
L 157.599676 -113.727669 
L 157.61756 -115.682512 
L 157.645141 -117.637355 
L 157.67543 -119.592198 
L 157.700752 -121.547041 
L 157.712897 -123.501884 
L 157.703283 -125.456727 
L 157.663141 -127.41157 
L 157.583699 -129.366413 
L 157.456376 -131.321256 
L 157.272979 -133.276099 
L 157.025897 -135.230942 
L 156.708282 -137.185785 
L 156.314231 -139.140628 
L 155.838946 -141.095471 
L 155.278886 -143.050314 
L 154.631897 -145.005157 
L 153.897323 -146.960001 
L 153.076096 -148.914844 
L 152.1708 -150.869687 
L 151.185714 -152.82453 
L 150.126817 -154.779373 
L 149.001776 -156.734216 
L 147.819895 -158.689059 
L 146.592033 -160.643902 
L 145.330488 -162.598745 
L 144.048851 -164.553588 
L 142.761822 -166.508431 
L 141.484996 -168.463274 
L 140.234619 -170.418117 
L 139.027315 -172.37296 
L 137.879791 -174.327803 
L 136.808526 -176.282646 
L 135.82945 -178.237489 
L 134.957612 -180.192332 
L 134.206865 -182.147175 
L 133.589554 -184.102018 
L 133.116235 -186.056861 
L 132.795425 -188.011704 
L 132.633387 -189.966547 
L 132.633973 -191.92139 
L 132.798518 -193.876233 
L 133.125787 -195.831076 
L 133.612002 -197.785919 
L 134.250912 -199.740762 
L 135.033944 -201.695605 
L 135.950399 -203.650448 
L 136.987703 -205.605291 
L 138.131711 -207.560134 
L 139.367032 -209.514978 
L 140.67739 -211.469821 
L 142.045991 -213.424664 
L 143.45589 -215.379507 
L 144.890355 -217.33435 
L 146.333199 -219.289193 
L 147.76909 -221.244036 
L 149.183811 -223.198879 
L 150.564491 -225.153722 
L 151.899766 -227.108565 
L 153.179908 -229.063408 
L 154.396884 -231.018251 
L 155.544381 -232.973094 
L 156.617776 -234.927937 
L 157.614063 -236.88278 
L 158.531749 -238.837623 
L 159.370726 -240.792466 
L 160.132106 -242.747309 
L 160.818062 -244.702152 
L 161.431643 -246.656995 
L 161.976606 -248.611838 
L 162.457235 -250.566681 
L 167.83449 -250.566681 
L 167.83449 -250.566681 
L 168.315119 -248.611838 
L 168.860082 -246.656995 
L 169.473663 -244.702152 
L 170.159619 -242.747309 
L 170.920999 -240.792466 
L 171.759976 -238.837623 
L 172.677662 -236.88278 
L 173.673949 -234.927937 
L 174.747344 -232.973094 
L 175.894841 -231.018251 
L 177.111817 -229.063408 
L 178.391959 -227.108565 
L 179.727234 -225.153722 
L 181.107914 -223.198879 
L 182.522635 -221.244036 
L 183.958526 -219.289193 
L 185.40137 -217.33435 
L 186.835835 -215.379507 
L 188.245734 -213.424664 
L 189.614335 -211.469821 
L 190.924693 -209.514978 
L 192.160014 -207.560134 
L 193.304022 -205.605291 
L 194.341326 -203.650448 
L 195.257781 -201.695605 
L 196.040813 -199.740762 
L 196.679723 -197.785919 
L 197.165938 -195.831076 
L 197.493207 -193.876233 
L 197.657752 -191.92139 
L 197.658338 -189.966547 
L 197.4963 -188.011704 
L 197.17549 -186.056861 
L 196.702171 -184.102018 
L 196.08486 -182.147175 
L 195.334113 -180.192332 
L 194.462275 -178.237489 
L 193.483199 -176.282646 
L 192.411934 -174.327803 
L 191.26441 -172.37296 
L 190.057106 -170.418117 
L 188.806729 -168.463274 
L 187.529903 -166.508431 
L 186.242874 -164.553588 
L 184.961237 -162.598745 
L 183.699692 -160.643902 
L 182.47183 -158.689059 
L 181.289949 -156.734216 
L 180.164908 -154.779373 
L 179.106011 -152.82453 
L 178.120925 -150.869687 
L 177.215629 -148.914844 
L 176.394402 -146.960001 
L 175.659828 -145.005157 
L 175.012839 -143.050314 
L 174.45278 -141.095471 
L 173.977495 -139.140628 
L 173.583443 -137.185785 
L 173.265828 -135.230942 
L 173.018746 -133.276099 
L 172.835349 -131.321256 
L 172.708026 -129.366413 
L 172.628584 -127.41157 
L 172.588442 -125.456727 
L 172.578828 -123.501884 
L 172.590973 -121.547041 
L 172.616295 -119.592198 
L 172.646584 -117.637355 
L 172.674165 -115.682512 
L 172.69205 -113.727669 
L 172.694057 -111.772826 
L 172.674924 -109.817983 
L 172.630376 -107.86314 
L 172.557181 -105.908297 
L 172.453162 -103.953454 
L 172.317189 -101.998611 
L 172.149144 -100.043768 
L 171.949852 -98.088925 
L 171.720995 -96.134082 
L 171.465009 -94.179239 
L 171.18496 -92.224396 
L 170.88441 -90.269553 
L 170.567287 -88.31471 
L 170.237742 -86.359867 
L 169.900016 -84.405024 
L 169.558317 -82.45018 
L 169.216706 -80.495337 
L 168.878997 -78.540494 
L 168.548677 -76.585651 
L 168.22884 -74.630808 
L 167.922145 -72.675965 
L 167.630787 -70.721122 
L 167.356485 -68.766279 
L 167.100492 -66.811436 
L 166.863614 -64.856593 
L 166.646238 -62.90175 
L 166.448373 -60.946907 
L 166.269699 -58.992064 
L 166.109613 -57.037221 
z
" style="stroke: #3f3f3f; stroke-width: 1.25"/>
    </defs>
    <g clip-path="url(#p2106d225b7)">
     <use xlink:href="#mbbe9870e42" x="0" y="360" style="fill: #e1812c; stroke: #3f3f3f; stroke-width: 1.25"/>
    </g>
   </g>
   <g id="PolyCollection_3">
    <defs>
     <path id="m27388ef615" d="M 264.077575 -108.198795 
L 261.289004 -108.198795 
L 260.998844 -109.919245 
L 260.661584 -111.639694 
L 260.272518 -113.360144 
L 259.827049 -115.080594 
L 259.320822 -116.801043 
L 258.749858 -118.521493 
L 258.110701 -120.241943 
L 257.400569 -121.962392 
L 256.617501 -123.682842 
L 255.760495 -125.403292 
L 254.829638 -127.123741 
L 253.826217 -128.844191 
L 252.752803 -130.564641 
L 251.613316 -132.28509 
L 250.41305 -134.00554 
L 249.158677 -135.725989 
L 247.858209 -137.446439 
L 246.520932 -139.166889 
L 245.157305 -140.887338 
L 243.778837 -142.607788 
L 242.397931 -144.328238 
L 241.02771 -146.048687 
L 239.681823 -147.769137 
L 238.374241 -149.489587 
L 237.119038 -151.210036 
L 235.930171 -152.930486 
L 234.821251 -154.650936 
L 233.805315 -156.371385 
L 232.894605 -158.091835 
L 232.100342 -159.812285 
L 231.43251 -161.532734 
L 230.899656 -163.253184 
L 230.508687 -164.973634 
L 230.264699 -166.694083 
L 230.170814 -168.414533 
L 230.228053 -170.134982 
L 230.435233 -171.855432 
L 230.788907 -173.575882 
L 231.283346 -175.296331 
L 231.910573 -177.016781 
L 232.660446 -178.737231 
L 233.520802 -180.45768 
L 234.477659 -182.17813 
L 235.51547 -183.89858 
L 236.617438 -185.619029 
L 237.765867 -187.339479 
L 238.942555 -189.059929 
L 240.129217 -190.780378 
L 241.307915 -192.500828 
L 242.461489 -194.221278 
L 243.573974 -195.941727 
L 244.630985 -197.662177 
L 245.620061 -199.382627 
L 246.530949 -201.103076 
L 247.355823 -202.823526 
L 248.089433 -204.543975 
L 248.729164 -206.264425 
L 249.275028 -207.984875 
L 249.729564 -209.705324 
L 250.09767 -211.425774 
L 250.386366 -213.146224 
L 250.60449 -214.866673 
L 250.762358 -216.587123 
L 250.871384 -218.307573 
L 250.943677 -220.028022 
L 250.991636 -221.748472 
L 251.027553 -223.468922 
L 251.063231 -225.189371 
L 251.109648 -226.909821 
L 251.176651 -228.630271 
L 251.27271 -230.35072 
L 251.404732 -232.07117 
L 251.577933 -233.791619 
L 251.795775 -235.512069 
L 252.05997 -237.232519 
L 252.370531 -238.952968 
L 252.725896 -240.673418 
L 253.123073 -242.393868 
L 253.557848 -244.114317 
L 254.024999 -245.834767 
L 254.51854 -247.555217 
L 255.031969 -249.275666 
L 255.558512 -250.996116 
L 256.091355 -252.716566 
L 256.623861 -254.437015 
L 257.149756 -256.157465 
L 257.663289 -257.877915 
L 258.159354 -259.598364 
L 258.633581 -261.318814 
L 259.082392 -263.039264 
L 259.50302 -264.759713 
L 259.893504 -266.480163 
L 260.252654 -268.200612 
L 260.579995 -269.921062 
L 260.875693 -271.641512 
L 261.140472 -273.361961 
L 261.375525 -275.082411 
L 261.582415 -276.802861 
L 261.762987 -278.52331 
L 263.603592 -278.52331 
L 263.603592 -278.52331 
L 263.784164 -276.802861 
L 263.991054 -275.082411 
L 264.226107 -273.361961 
L 264.490887 -271.641512 
L 264.786585 -269.921062 
L 265.113925 -268.200612 
L 265.473075 -266.480163 
L 265.86356 -264.759713 
L 266.284188 -263.039264 
L 266.732998 -261.318814 
L 267.207225 -259.598364 
L 267.70329 -257.877915 
L 268.216823 -256.157465 
L 268.742718 -254.437015 
L 269.275224 -252.716566 
L 269.808067 -250.996116 
L 270.33461 -249.275666 
L 270.848039 -247.555217 
L 271.34158 -245.834767 
L 271.808731 -244.114317 
L 272.243506 -242.393868 
L 272.640684 -240.673418 
L 272.996048 -238.952968 
L 273.30661 -237.232519 
L 273.570804 -235.512069 
L 273.788646 -233.791619 
L 273.961847 -232.07117 
L 274.093869 -230.35072 
L 274.189928 -228.630271 
L 274.256931 -226.909821 
L 274.303348 -225.189371 
L 274.339027 -223.468922 
L 274.374943 -221.748472 
L 274.422902 -220.028022 
L 274.495195 -218.307573 
L 274.604221 -216.587123 
L 274.76209 -214.866673 
L 274.980213 -213.146224 
L 275.268909 -211.425774 
L 275.637016 -209.705324 
L 276.091552 -207.984875 
L 276.637415 -206.264425 
L 277.277147 -204.543975 
L 278.010756 -202.823526 
L 278.835631 -201.103076 
L 279.746519 -199.382627 
L 280.735595 -197.662177 
L 281.792606 -195.941727 
L 282.90509 -194.221278 
L 284.058664 -192.500828 
L 285.237362 -190.780378 
L 286.424025 -189.059929 
L 287.600713 -187.339479 
L 288.749141 -185.619029 
L 289.851109 -183.89858 
L 290.888921 -182.17813 
L 291.845777 -180.45768 
L 292.706133 -178.737231 
L 293.456006 -177.016781 
L 294.083233 -175.296331 
L 294.577673 -173.575882 
L 294.931347 -171.855432 
L 295.138527 -170.134982 
L 295.195765 -168.414533 
L 295.101881 -166.694083 
L 294.857892 -164.973634 
L 294.466923 -163.253184 
L 293.934069 -161.532734 
L 293.266238 -159.812285 
L 292.471974 -158.091835 
L 291.561264 -156.371385 
L 290.545328 -154.650936 
L 289.436408 -152.930486 
L 288.247541 -151.210036 
L 286.992339 -149.489587 
L 285.684756 -147.769137 
L 284.338869 -146.048687 
L 282.968648 -144.328238 
L 281.587742 -142.607788 
L 280.209275 -140.887338 
L 278.845648 -139.166889 
L 277.50837 -137.446439 
L 276.207902 -135.725989 
L 274.953529 -134.00554 
L 273.753263 -132.28509 
L 272.613776 -130.564641 
L 271.540362 -128.844191 
L 270.536941 -127.123741 
L 269.606084 -125.403292 
L 268.749078 -123.682842 
L 267.96601 -121.962392 
L 267.255878 -120.241943 
L 266.616721 -118.521493 
L 266.045757 -116.801043 
L 265.53953 -115.080594 
L 265.094062 -113.360144 
L 264.704995 -111.639694 
L 264.367735 -109.919245 
L 264.077575 -108.198795 
z
" style="stroke: #3f3f3f; stroke-width: 1.25"/>
    </defs>
    <g clip-path="url(#p2106d225b7)">
     <use xlink:href="#m27388ef615" x="0" y="360" style="fill: #3274a1; stroke: #3f3f3f; stroke-width: 1.25"/>
    </g>
   </g>
   <g id="PolyCollection_4">
    <defs>
     <path id="mca6a5480a5" d="M 328.469998 -84.164608 
L 326.946484 -84.164608 
L 326.794192 -86.1944 
L 326.618838 -88.224192 
L 326.418458 -90.253984 
L 326.191185 -92.283776 
L 325.9353 -94.313568 
L 325.649276 -96.34336 
L 325.331815 -98.373152 
L 324.981888 -100.402944 
L 324.598759 -102.432735 
L 324.182008 -104.462527 
L 323.731538 -106.492319 
L 323.24758 -108.522111 
L 322.730683 -110.551903 
L 322.181702 -112.581695 
L 321.601778 -114.611487 
L 320.992316 -116.641279 
L 320.35496 -118.671071 
L 319.691578 -120.700863 
L 319.004241 -122.730655 
L 318.295212 -124.760447 
L 317.566948 -126.790239 
L 316.822096 -128.820031 
L 316.063508 -130.849822 
L 315.294248 -132.879614 
L 314.517615 -134.909406 
L 313.737151 -136.939198 
L 312.956651 -138.96899 
L 312.180165 -140.998782 
L 311.411987 -143.028574 
L 310.656633 -145.058366 
L 309.918801 -147.088158 
L 309.203317 -149.11795 
L 308.515068 -151.147742 
L 307.858916 -153.177534 
L 307.239606 -155.207326 
L 306.661665 -157.237117 
L 306.129293 -159.266909 
L 305.646259 -161.296701 
L 305.215796 -163.326493 
L 304.840511 -165.356285 
L 304.522301 -167.386077 
L 304.262284 -169.415869 
L 304.060758 -171.445661 
L 303.917173 -173.475453 
L 303.830128 -175.505245 
L 303.797401 -177.535037 
L 303.815995 -179.564829 
L 303.882218 -181.594621 
L 303.991792 -183.624412 
L 304.139975 -185.654204 
L 304.321715 -187.683996 
L 304.531816 -189.713788 
L 304.76512 -191.74358 
L 305.01669 -193.773372 
L 305.281994 -195.803164 
L 305.557077 -197.832956 
L 305.838716 -199.862748 
L 306.124546 -201.89254 
L 306.413152 -203.922332 
L 306.704124 -205.952124 
L 306.998061 -207.981916 
L 307.296529 -210.011707 
L 307.601973 -212.041499 
L 307.917585 -214.071291 
L 308.247129 -216.101083 
L 308.594735 -218.130875 
L 308.964676 -220.160667 
L 309.361126 -222.190459 
L 309.787924 -224.220251 
L 310.248349 -226.250043 
L 310.744921 -228.279835 
L 311.27923 -230.309627 
L 311.851815 -232.339419 
L 312.462084 -234.369211 
L 313.108288 -236.399003 
L 313.787546 -238.428794 
L 314.495918 -240.458586 
L 315.228525 -242.488378 
L 315.979701 -244.51817 
L 316.743179 -246.547962 
L 317.512293 -248.577754 
L 318.280193 -250.607546 
L 319.040054 -252.637338 
L 319.785281 -254.66713 
L 320.509691 -256.696922 
L 321.20767 -258.726714 
L 321.874306 -260.756506 
L 322.50548 -262.786298 
L 323.097928 -264.816089 
L 323.649266 -266.845881 
L 324.157986 -268.875673 
L 324.623417 -270.905465 
L 325.04567 -272.935257 
L 325.425554 -274.965049 
L 325.764482 -276.994841 
L 326.064374 -279.024633 
L 326.327543 -281.054425 
L 326.556596 -283.084217 
L 326.754329 -285.114009 
L 328.662153 -285.114009 
L 328.662153 -285.114009 
L 328.859886 -283.084217 
L 329.088939 -281.054425 
L 329.352108 -279.024633 
L 329.652 -276.994841 
L 329.990929 -274.965049 
L 330.370812 -272.935257 
L 330.793065 -270.905465 
L 331.258497 -268.875673 
L 331.767216 -266.845881 
L 332.318554 -264.816089 
L 332.911002 -262.786298 
L 333.542176 -260.756506 
L 334.208812 -258.726714 
L 334.906791 -256.696922 
L 335.631201 -254.66713 
L 336.376428 -252.637338 
L 337.13629 -250.607546 
L 337.904189 -248.577754 
L 338.673304 -246.547962 
L 339.436781 -244.51817 
L 340.187957 -242.488378 
L 340.920564 -240.458586 
L 341.628937 -238.428794 
L 342.308194 -236.399003 
L 342.954398 -234.369211 
L 343.564667 -232.339419 
L 344.137252 -230.309627 
L 344.671561 -228.279835 
L 345.168133 -226.250043 
L 345.628559 -224.220251 
L 346.055356 -222.190459 
L 346.451806 -220.160667 
L 346.821747 -218.130875 
L 347.169353 -216.101083 
L 347.498897 -214.071291 
L 347.814509 -212.041499 
L 348.119953 -210.011707 
L 348.418421 -207.981916 
L 348.712358 -205.952124 
L 349.00333 -203.922332 
L 349.291937 -201.89254 
L 349.577766 -199.862748 
L 349.859405 -197.832956 
L 350.134488 -195.803164 
L 350.399792 -193.773372 
L 350.651362 -191.74358 
L 350.884667 -189.713788 
L 351.094768 -187.683996 
L 351.276507 -185.654204 
L 351.42469 -183.624412 
L 351.534264 -181.594621 
L 351.600488 -179.564829 
L 351.619081 -177.535037 
L 351.586354 -175.505245 
L 351.499309 -173.475453 
L 351.355724 -171.445661 
L 351.154198 -169.415869 
L 350.894182 -167.386077 
L 350.575971 -165.356285 
L 350.200686 -163.326493 
L 349.770223 -161.296701 
L 349.287189 -159.266909 
L 348.754817 -157.237117 
L 348.176876 -155.207326 
L 347.557567 -153.177534 
L 346.901415 -151.147742 
L 346.213165 -149.11795 
L 345.497682 -147.088158 
L 344.759849 -145.058366 
L 344.004495 -143.028574 
L 343.236317 -140.998782 
L 342.459831 -138.96899 
L 341.679331 -136.939198 
L 340.898867 -134.909406 
L 340.122234 -132.879614 
L 339.352975 -130.849822 
L 338.594386 -128.820031 
L 337.849534 -126.790239 
L 337.12127 -124.760447 
L 336.412242 -122.730655 
L 335.724904 -120.700863 
L 335.061522 -118.671071 
L 334.424167 -116.641279 
L 333.814704 -114.611487 
L 333.23478 -112.581695 
L 332.685799 -110.551903 
L 332.168902 -108.522111 
L 331.684944 -106.492319 
L 331.234474 -104.462527 
L 330.817723 -102.432735 
L 330.434594 -100.402944 
L 330.084667 -98.373152 
L 329.767206 -96.34336 
L 329.481182 -94.313568 
L 329.225298 -92.283776 
L 328.998025 -90.253984 
L 328.797644 -88.224192 
L 328.62229 -86.1944 
L 328.469998 -84.164608 
z
" style="stroke: #3f3f3f; stroke-width: 1.25"/>
    </defs>
    <g clip-path="url(#p2106d225b7)">
     <use xlink:href="#mca6a5480a5" x="0" y="360" style="fill: #e1812c; stroke: #3f3f3f; stroke-width: 1.25"/>
    </g>
   </g>
   <g id="line2d_10">
    <path d="M 100.120911 241.392173 
L 100.120911 125.31214 
" clip-path="url(#p2106d225b7)" style="fill: none; stroke: #3f3f3f; stroke-width: 1.875; stroke-linecap: round"/>
   </g>
   <g id="line2d_11">
    <path d="M 100.120911 183.96453 
L 100.120911 129.180185 
" clip-path="url(#p2106d225b7)" style="fill: none; stroke: #3f3f3f; stroke-width: 5.625; stroke-linecap: round"/>
   </g>
   <g id="line2d_12">
    <path d="M 100.120911 159.384598 
" clip-path="url(#p2106d225b7)" style="fill: none; stroke: #3f3f3f; stroke-width: 1.5; stroke-linecap: round"/>
    <defs>
     <path id="m0f17085d46" d="M 2.34375 0 
L -2.34375 -0 
" style="stroke: #ffffff; stroke-width: 1.125"/>
    </defs>
    <g clip-path="url(#p2106d225b7)">
     <use xlink:href="#m0f17085d46" x="100.120911" y="159.384598" style="fill: #ffffff; stroke: #ffffff; stroke-width: 1.125"/>
    </g>
   </g>
   <g id="line2d_13">
    <path d="M 165.145863 188.545086 
L 165.145863 159.336586 
" clip-path="url(#p2106d225b7)" style="fill: none; stroke: #3f3f3f; stroke-width: 1.875; stroke-linecap: round"/>
   </g>
   <g id="line2d_14">
    <path d="M 165.145863 185.136941 
L 165.145863 161.515166 
" clip-path="url(#p2106d225b7)" style="fill: none; stroke: #3f3f3f; stroke-width: 5.625; stroke-linecap: round"/>
   </g>
   <g id="line2d_15">
    <path d="M 165.145863 170.58008 
" clip-path="url(#p2106d225b7)" style="fill: none; stroke: #3f3f3f; stroke-width: 1.5; stroke-linecap: round"/>
    <g clip-path="url(#p2106d225b7)">
     <use xlink:href="#m0f17085d46" x="165.145863" y="170.58008" style="fill: #ffffff; stroke: #ffffff; stroke-width: 1.125"/>
    </g>
   </g>
   <g id="line2d_16">
    <path d="M 262.68329 211.909347 
L 262.68329 174.831392 
" clip-path="url(#p2106d225b7)" style="fill: none; stroke: #3f3f3f; stroke-width: 1.875; stroke-linecap: round"/>
   </g>
   <g id="line2d_17">
    <path d="M 262.68329 198.476626 
L 262.68329 174.831392 
" clip-path="url(#p2106d225b7)" style="fill: none; stroke: #3f3f3f; stroke-width: 5.625; stroke-linecap: round"/>
   </g>
   <g id="line2d_18">
    <path d="M 262.68329 186.207005 
" clip-path="url(#p2106d225b7)" style="fill: none; stroke: #3f3f3f; stroke-width: 1.5; stroke-linecap: round"/>
    <g clip-path="url(#p2106d225b7)">
     <use xlink:href="#m0f17085d46" x="262.68329" y="186.207005" style="fill: #ffffff; stroke: #ffffff; stroke-width: 1.125"/>
    </g>
   </g>
   <g id="line2d_19">
    <path d="M 327.708241 229.817966 
L 327.708241 120.903418 
" clip-path="url(#p2106d225b7)" style="fill: none; stroke: #3f3f3f; stroke-width: 1.875; stroke-linecap: round"/>
   </g>
   <g id="line2d_20">
    <path d="M 327.708241 200.661082 
L 327.708241 144.905468 
" clip-path="url(#p2106d225b7)" style="fill: none; stroke: #3f3f3f; stroke-width: 5.625; stroke-linecap: round"/>
   </g>
   <g id="line2d_21">
    <path d="M 327.708241 173.502453 
" clip-path="url(#p2106d225b7)" style="fill: none; stroke: #3f3f3f; stroke-width: 1.5; stroke-linecap: round"/>
    <g clip-path="url(#p2106d225b7)">
     <use xlink:href="#m0f17085d46" x="327.708241" y="173.502453" style="fill: #ffffff; stroke: #ffffff; stroke-width: 1.125"/>
    </g>
   </g>
   <g id="patch_3">
    <path d="M 51.352198 318.04 
L 51.352198 24.72 
" style="fill: none; stroke: #cccccc; stroke-width: 0.8; stroke-linejoin: miter; stroke-linecap: square"/>
   </g>
   <g id="patch_4">
    <path d="M 51.352198 318.04 
L 376.476955 318.04 
" style="fill: none; stroke: #cccccc; stroke-width: 0.8; stroke-linejoin: miter; stroke-linecap: square"/>
   </g>
   <g id="text_14">
    <!-- sex = f -->
    <g style="fill: #262626" transform="translate(199.046607 18.72) scale(0.1 -0.1)">
     <defs>
      <path id="ArialMT-73" d="M 197 991 
L 753 1078 
Q 800 744 1014 566 
Q 1228 388 1613 388 
Q 2000 388 2187 545 
Q 2375 703 2375 916 
Q 2375 1106 2209 1216 
Q 2094 1291 1634 1406 
Q 1016 1563 777 1677 
Q 538 1791 414 1992 
Q 291 2194 291 2438 
Q 291 2659 392 2848 
Q 494 3038 669 3163 
Q 800 3259 1026 3326 
Q 1253 3394 1513 3394 
Q 1903 3394 2198 3281 
Q 2494 3169 2634 2976 
Q 2775 2784 2828 2463 
L 2278 2388 
Q 2241 2644 2061 2787 
Q 1881 2931 1553 2931 
Q 1166 2931 1000 2803 
Q 834 2675 834 2503 
Q 834 2394 903 2306 
Q 972 2216 1119 2156 
Q 1203 2125 1616 2013 
Q 2213 1853 2448 1751 
Q 2684 1650 2818 1456 
Q 2953 1263 2953 975 
Q 2953 694 2789 445 
Q 2625 197 2315 61 
Q 2006 -75 1616 -75 
Q 969 -75 630 194 
Q 291 463 197 991 
z
" transform="scale(0.015625)"/>
      <path id="ArialMT-78" d="M 47 0 
L 1259 1725 
L 138 3319 
L 841 3319 
L 1350 2541 
Q 1494 2319 1581 2169 
Q 1719 2375 1834 2534 
L 2394 3319 
L 3066 3319 
L 1919 1756 
L 3153 0 
L 2463 0 
L 1781 1031 
L 1600 1309 
L 728 0 
L 47 0 
z
" transform="scale(0.015625)"/>
      <path id="ArialMT-20" transform="scale(0.015625)"/>
      <path id="ArialMT-3d" d="M 3381 2694 
L 356 2694 
L 356 3219 
L 3381 3219 
L 3381 2694 
z
M 3381 1303 
L 356 1303 
L 356 1828 
L 3381 1828 
L 3381 1303 
z
" transform="scale(0.015625)"/>
      <path id="ArialMT-66" d="M 556 0 
L 556 2881 
L 59 2881 
L 59 3319 
L 556 3319 
L 556 3672 
Q 556 4006 616 4169 
Q 697 4388 901 4523 
Q 1106 4659 1475 4659 
Q 1713 4659 2000 4603 
L 1916 4113 
Q 1741 4144 1584 4144 
Q 1328 4144 1222 4034 
Q 1116 3925 1116 3625 
L 1116 3319 
L 1763 3319 
L 1763 2881 
L 1116 2881 
L 1116 0 
L 556 0 
z
" transform="scale(0.015625)"/>
     </defs>
     <use xlink:href="#ArialMT-73"/>
     <use xlink:href="#ArialMT-65" x="50"/>
     <use xlink:href="#ArialMT-78" x="105.615234"/>
     <use xlink:href="#ArialMT-20" x="155.615234"/>
     <use xlink:href="#ArialMT-3d" x="183.398438"/>
     <use xlink:href="#ArialMT-20" x="241.796875"/>
     <use xlink:href="#ArialMT-66" x="269.580078"/>
    </g>
   </g>
  </g>
  <g id="axes_2">
   <g id="patch_5">
    <path d="M 387.286443 318.04 
L 712.4112 318.04 
L 712.4112 24.72 
L 387.286443 24.72 
z
" style="fill: #ffffff"/>
   </g>
   <g id="matplotlib.axis_3">
    <g id="xtick_3">
     <g id="text_15">
      <!-- Baia -->
      <g style="fill: #262626" transform="translate(458.560601 332.197812) scale(0.1 -0.1)">
       <use xlink:href="#ArialMT-42"/>
       <use xlink:href="#ArialMT-61" x="66.699219"/>
       <use xlink:href="#ArialMT-69" x="122.314453"/>
       <use xlink:href="#ArialMT-61" x="144.53125"/>
      </g>
     </g>
    </g>
    <g id="xtick_4">
     <g id="text_16">
      <!-- Jurilovca -->
      <g style="fill: #262626" transform="translate(611.401886 332.197812) scale(0.1 -0.1)">
       <use xlink:href="#ArialMT-4a"/>
       <use xlink:href="#ArialMT-75" x="50"/>
       <use xlink:href="#ArialMT-72" x="105.615234"/>
       <use xlink:href="#ArialMT-69" x="138.916016"/>
       <use xlink:href="#ArialMT-6c" x="161.132812"/>
       <use xlink:href="#ArialMT-6f" x="183.349609"/>
       <use xlink:href="#ArialMT-76" x="238.964844"/>
       <use xlink:href="#ArialMT-63" x="288.964844"/>
       <use xlink:href="#ArialMT-61" x="338.964844"/>
      </g>
     </g>
    </g>
    <g id="text_17">
     <!-- location -->
     <g style="fill: #262626" transform="translate(532.616009 345.343125) scale(0.1 -0.1)">
      <use xlink:href="#ArialMT-6c"/>
      <use xlink:href="#ArialMT-6f" x="22.216797"/>
      <use xlink:href="#ArialMT-63" x="77.832031"/>
      <use xlink:href="#ArialMT-61" x="127.832031"/>
      <use xlink:href="#ArialMT-74" x="183.447266"/>
      <use xlink:href="#ArialMT-69" x="211.230469"/>
      <use xlink:href="#ArialMT-6f" x="233.447266"/>
      <use xlink:href="#ArialMT-6e" x="289.0625"/>
     </g>
    </g>
   </g>
   <g id="matplotlib.axis_4">
    <g id="ytick_10">
     <g id="line2d_22">
      <path d="M 387.286443 311.704312 
L 712.4112 311.704312 
" clip-path="url(#p0388acfc3f)" style="fill: none; stroke: #cccccc; stroke-width: 0.8; stroke-linecap: round"/>
     </g>
    </g>
    <g id="ytick_11">
     <g id="line2d_23">
      <path d="M 387.286443 277.038498 
L 712.4112 277.038498 
" clip-path="url(#p0388acfc3f)" style="fill: none; stroke: #cccccc; stroke-width: 0.8; stroke-linecap: round"/>
     </g>
    </g>
    <g id="ytick_12">
     <g id="line2d_24">
      <path d="M 387.286443 242.372684 
L 712.4112 242.372684 
" clip-path="url(#p0388acfc3f)" style="fill: none; stroke: #cccccc; stroke-width: 0.8; stroke-linecap: round"/>
     </g>
    </g>
    <g id="ytick_13">
     <g id="line2d_25">
      <path d="M 387.286443 207.706869 
L 712.4112 207.706869 
" clip-path="url(#p0388acfc3f)" style="fill: none; stroke: #cccccc; stroke-width: 0.8; stroke-linecap: round"/>
     </g>
    </g>
    <g id="ytick_14">
     <g id="line2d_26">
      <path d="M 387.286443 173.041055 
L 712.4112 173.041055 
" clip-path="url(#p0388acfc3f)" style="fill: none; stroke: #cccccc; stroke-width: 0.8; stroke-linecap: round"/>
     </g>
    </g>
    <g id="ytick_15">
     <g id="line2d_27">
      <path d="M 387.286443 138.37524 
L 712.4112 138.37524 
" clip-path="url(#p0388acfc3f)" style="fill: none; stroke: #cccccc; stroke-width: 0.8; stroke-linecap: round"/>
     </g>
    </g>
    <g id="ytick_16">
     <g id="line2d_28">
      <path d="M 387.286443 103.709426 
L 712.4112 103.709426 
" clip-path="url(#p0388acfc3f)" style="fill: none; stroke: #cccccc; stroke-width: 0.8; stroke-linecap: round"/>
     </g>
    </g>
    <g id="ytick_17">
     <g id="line2d_29">
      <path d="M 387.286443 69.043612 
L 712.4112 69.043612 
" clip-path="url(#p0388acfc3f)" style="fill: none; stroke: #cccccc; stroke-width: 0.8; stroke-linecap: round"/>
     </g>
    </g>
    <g id="ytick_18">
     <g id="line2d_30">
      <path d="M 387.286443 34.377797 
L 712.4112 34.377797 
" clip-path="url(#p0388acfc3f)" style="fill: none; stroke: #cccccc; stroke-width: 0.8; stroke-linecap: round"/>
     </g>
    </g>
   </g>
   <g id="PolyCollection_5">
    <defs>
     <path id="m382f211ac4" d="M 436.74751 -117.724223 
L 435.362803 -117.724223 
L 435.182136 -119.357833 
L 434.965163 -120.991443 
L 434.70748 -122.625053 
L 434.404817 -124.258663 
L 434.053206 -125.892273 
L 433.649157 -127.525883 
L 433.189841 -129.159493 
L 432.673262 -130.793103 
L 432.098416 -132.426713 
L 431.465428 -134.060323 
L 430.775643 -135.693932 
L 430.031683 -137.327542 
L 429.237443 -138.961152 
L 428.398043 -140.594762 
L 427.51971 -142.228372 
L 426.609613 -143.861982 
L 425.675642 -145.495592 
L 424.726139 -147.129202 
L 423.769603 -148.762812 
L 422.814362 -150.396422 
L 421.868247 -152.030032 
L 420.938265 -153.663642 
L 420.030311 -155.297251 
L 419.148913 -156.930861 
L 418.297046 -158.564471 
L 417.476018 -160.198081 
L 416.685454 -161.831691 
L 415.92337 -163.465301 
L 415.186352 -165.098911 
L 414.469833 -166.732521 
L 413.768457 -168.366131 
L 413.076521 -169.999741 
L 412.388459 -171.633351 
L 411.699351 -173.266961 
L 411.005432 -174.90057 
L 410.304547 -176.53418 
L 409.596548 -178.16779 
L 408.88359 -179.8014 
L 408.170312 -181.43501 
L 407.463886 -183.06862 
L 406.773931 -184.70223 
L 406.112302 -186.33584 
L 405.492748 -187.96945 
L 404.930477 -189.60306 
L 404.441629 -191.23667 
L 404.0427 -192.87028 
L 403.749924 -194.503889 
L 403.578641 -196.137499 
L 403.542681 -197.771109 
L 403.653768 -199.404719 
L 403.920978 -201.038329 
L 404.350249 -202.671939 
L 404.943989 -204.305549 
L 405.700765 -205.939159 
L 406.615126 -207.572769 
L 407.677549 -209.206379 
L 408.874545 -210.839989 
L 410.188919 -212.473598 
L 411.6002 -214.107208 
L 413.085231 -215.740818 
L 414.618901 -217.374428 
L 416.174992 -219.008038 
L 417.727119 -220.641648 
L 419.249686 -222.275258 
L 420.718846 -223.908868 
L 422.113373 -225.542478 
L 423.415426 -227.176088 
L 424.611145 -228.809698 
L 425.691043 -230.443308 
L 426.65018 -232.076917 
L 427.488112 -233.710527 
L 428.208611 -235.344137 
L 428.819193 -236.977747 
L 429.330476 -238.611357 
L 429.755423 -240.244967 
L 430.108512 -241.878577 
L 430.404884 -243.512187 
L 430.659529 -245.145797 
L 430.886549 -246.779407 
L 431.09854 -248.413017 
L 431.306119 -250.046627 
L 431.517611 -251.680236 
L 431.738906 -253.313846 
L 431.973476 -254.947456 
L 432.222532 -256.581066 
L 432.485299 -258.214676 
L 432.759379 -259.848286 
L 433.04116 -261.481896 
L 433.32625 -263.115506 
L 433.609894 -264.749116 
L 433.887347 -266.382726 
L 434.154199 -268.016336 
L 434.406616 -269.649946 
L 434.641508 -271.283555 
L 434.856624 -272.917165 
L 435.050567 -274.550775 
L 435.222763 -276.184385 
L 435.373369 -277.817995 
L 435.503165 -279.451605 
L 436.607148 -279.451605 
L 436.607148 -279.451605 
L 436.736944 -277.817995 
L 436.88755 -276.184385 
L 437.059745 -274.550775 
L 437.253689 -272.917165 
L 437.468805 -271.283555 
L 437.703697 -269.649946 
L 437.956114 -268.016336 
L 438.222966 -266.382726 
L 438.500419 -264.749116 
L 438.784062 -263.115506 
L 439.069153 -261.481896 
L 439.350934 -259.848286 
L 439.625014 -258.214676 
L 439.887781 -256.581066 
L 440.136837 -254.947456 
L 440.371407 -253.313846 
L 440.592702 -251.680236 
L 440.804194 -250.046627 
L 441.011773 -248.413017 
L 441.223764 -246.779407 
L 441.450784 -245.145797 
L 441.705429 -243.512187 
L 442.0018 -241.878577 
L 442.35489 -240.244967 
L 442.779837 -238.611357 
L 443.29112 -236.977747 
L 443.901702 -235.344137 
L 444.622201 -233.710527 
L 445.460133 -232.076917 
L 446.41927 -230.443308 
L 447.499168 -228.809698 
L 448.694887 -227.176088 
L 449.99694 -225.542478 
L 451.391467 -223.908868 
L 452.860627 -222.275258 
L 454.383194 -220.641648 
L 455.935321 -219.008038 
L 457.491412 -217.374428 
L 459.025081 -215.740818 
L 460.510113 -214.107208 
L 461.921394 -212.473598 
L 463.235768 -210.839989 
L 464.432764 -209.206379 
L 465.495187 -207.572769 
L 466.409548 -205.939159 
L 467.166324 -204.305549 
L 467.760064 -202.671939 
L 468.189335 -201.038329 
L 468.456545 -199.404719 
L 468.567632 -197.771109 
L 468.531672 -196.137499 
L 468.360389 -194.503889 
L 468.067613 -192.87028 
L 467.668684 -191.23667 
L 467.179836 -189.60306 
L 466.617564 -187.96945 
L 465.998011 -186.33584 
L 465.336382 -184.70223 
L 464.646427 -183.06862 
L 463.940001 -181.43501 
L 463.226723 -179.8014 
L 462.513765 -178.16779 
L 461.805766 -176.53418 
L 461.104881 -174.90057 
L 460.410961 -173.266961 
L 459.721854 -171.633351 
L 459.033792 -169.999741 
L 458.341856 -168.366131 
L 457.64048 -166.732521 
L 456.923961 -165.098911 
L 456.186943 -163.465301 
L 455.424859 -161.831691 
L 454.634295 -160.198081 
L 453.813267 -158.564471 
L 452.961399 -156.930861 
L 452.080001 -155.297251 
L 451.172048 -153.663642 
L 450.242066 -152.030032 
L 449.295951 -150.396422 
L 448.34071 -148.762812 
L 447.384174 -147.129202 
L 446.434671 -145.495592 
L 445.5007 -143.861982 
L 444.590603 -142.228372 
L 443.71227 -140.594762 
L 442.87287 -138.961152 
L 442.07863 -137.327542 
L 441.334669 -135.693932 
L 440.644884 -134.060323 
L 440.011896 -132.426713 
L 439.437051 -130.793103 
L 438.920472 -129.159493 
L 438.461156 -127.525883 
L 438.057107 -125.892273 
L 437.705496 -124.258663 
L 437.402833 -122.625053 
L 437.145149 -120.991443 
L 436.928177 -119.357833 
L 436.74751 -117.724223 
z
" style="stroke: #3f3f3f; stroke-width: 1.25"/>
    </defs>
    <g clip-path="url(#p0388acfc3f)">
     <use xlink:href="#m382f211ac4" x="0" y="360" style="fill: #3274a1; stroke: #3f3f3f; stroke-width: 1.25"/>
    </g>
   </g>
   <g id="PolyCollection_6">
    <defs>
     <path id="ma3da740ed6" d="M 501.798816 -77.003456 
L 500.3614 -77.003456 
L 500.202137 -78.91619 
L 500.016689 -80.828923 
L 499.802902 -82.741657 
L 499.5589 -84.654391 
L 499.283184 -86.567124 
L 498.974722 -88.479858 
L 498.633042 -90.392591 
L 498.258295 -92.305325 
L 497.851311 -94.218058 
L 497.413624 -96.130792 
L 496.947469 -98.043526 
L 496.45575 -99.956259 
L 495.941979 -101.868993 
L 495.410188 -103.781726 
L 494.864816 -105.69446 
L 494.310583 -107.607194 
L 493.752348 -109.519927 
L 493.194968 -111.432661 
L 492.64316 -113.345394 
L 492.101373 -115.258128 
L 491.573678 -117.170861 
L 491.063671 -119.083595 
L 490.574406 -120.996329 
L 490.108337 -122.909062 
L 489.667288 -124.821796 
L 489.252431 -126.734529 
L 488.864282 -128.647263 
L 488.502697 -130.559997 
L 488.166888 -132.47273 
L 487.855427 -134.385464 
L 487.566276 -136.298197 
L 487.296809 -138.210931 
L 487.043858 -140.123665 
L 486.803768 -142.036398 
L 486.572478 -143.949132 
L 486.34562 -145.861865 
L 486.118654 -147.774599 
L 485.887019 -149.687332 
L 485.646311 -151.600066 
L 485.392479 -153.5128 
L 485.12203 -155.425533 
L 484.832231 -157.338267 
L 484.5213 -159.251 
L 484.188572 -161.163734 
L 483.834627 -163.076468 
L 483.461372 -164.989201 
L 483.072074 -166.901935 
L 482.671325 -168.814668 
L 482.264957 -170.727402 
L 481.859891 -172.640135 
L 481.46394 -174.552869 
L 481.085567 -176.465603 
L 480.733611 -178.378336 
L 480.416994 -180.29107 
L 480.144423 -182.203803 
L 479.924098 -184.116537 
L 479.763446 -186.029271 
L 479.668886 -187.942004 
L 479.645632 -189.854738 
L 479.697554 -191.767471 
L 479.827085 -193.680205 
L 480.035187 -195.592938 
L 480.32137 -197.505672 
L 480.68376 -199.418406 
L 481.119207 -201.331139 
L 481.623435 -203.243873 
L 482.191205 -205.156606 
L 482.816505 -207.06934 
L 483.492739 -208.982074 
L 484.212912 -210.894807 
L 484.9698 -212.807541 
L 485.756114 -214.720274 
L 486.564625 -216.633008 
L 487.38828 -218.545742 
L 488.220287 -220.458475 
L 489.054178 -222.371209 
L 489.883855 -224.283942 
L 490.703625 -226.196676 
L 491.508219 -228.109409 
L 492.292805 -230.022143 
L 493.053005 -231.934877 
L 493.784907 -233.84761 
L 494.485078 -235.760344 
L 495.150578 -237.673077 
L 495.778978 -239.585811 
L 496.368375 -241.498545 
L 496.917399 -243.411278 
L 497.425219 -245.324012 
L 497.891537 -247.236745 
L 498.316579 -249.149479 
L 498.701059 -251.062212 
L 499.046151 -252.974946 
L 499.353435 -254.88768 
L 499.624841 -256.800413 
L 499.862584 -258.713147 
L 500.069097 -260.62588 
L 500.24696 -262.538614 
L 500.398828 -264.451348 
L 500.527372 -266.364081 
L 501.632844 -266.364081 
L 501.632844 -266.364081 
L 501.761388 -264.451348 
L 501.913256 -262.538614 
L 502.091118 -260.62588 
L 502.297632 -258.713147 
L 502.535375 -256.800413 
L 502.806781 -254.88768 
L 503.114064 -252.974946 
L 503.459156 -251.062212 
L 503.843637 -249.149479 
L 504.268678 -247.236745 
L 504.734997 -245.324012 
L 505.242817 -243.411278 
L 505.79184 -241.498545 
L 506.381237 -239.585811 
L 507.009638 -237.673077 
L 507.675138 -235.760344 
L 508.375309 -233.84761 
L 509.107211 -231.934877 
L 509.867411 -230.022143 
L 510.651997 -228.109409 
L 511.45659 -226.196676 
L 512.276361 -224.283942 
L 513.106038 -222.371209 
L 513.939929 -220.458475 
L 514.771936 -218.545742 
L 515.595591 -216.633008 
L 516.404102 -214.720274 
L 517.190415 -212.807541 
L 517.947304 -210.894807 
L 518.667476 -208.982074 
L 519.343711 -207.06934 
L 519.969011 -205.156606 
L 520.536781 -203.243873 
L 521.041008 -201.331139 
L 521.476456 -199.418406 
L 521.838845 -197.505672 
L 522.125029 -195.592938 
L 522.333131 -193.680205 
L 522.462661 -191.767471 
L 522.514583 -189.854738 
L 522.49133 -187.942004 
L 522.396769 -186.029271 
L 522.236118 -184.116537 
L 522.015793 -182.203803 
L 521.743221 -180.29107 
L 521.426604 -178.378336 
L 521.074649 -176.465603 
L 520.696276 -174.552869 
L 520.300325 -172.640135 
L 519.895258 -170.727402 
L 519.48889 -168.814668 
L 519.088142 -166.901935 
L 518.698843 -164.989201 
L 518.325589 -163.076468 
L 517.971643 -161.163734 
L 517.638915 -159.251 
L 517.327985 -157.338267 
L 517.038186 -155.425533 
L 516.767737 -153.5128 
L 516.513905 -151.600066 
L 516.273197 -149.687332 
L 516.041561 -147.774599 
L 515.814596 -145.861865 
L 515.587738 -143.949132 
L 515.356447 -142.036398 
L 515.116358 -140.123665 
L 514.863407 -138.210931 
L 514.59394 -136.298197 
L 514.304789 -134.385464 
L 513.993328 -132.47273 
L 513.657518 -130.559997 
L 513.295934 -128.647263 
L 512.907785 -126.734529 
L 512.492928 -124.821796 
L 512.051879 -122.909062 
L 511.58581 -120.996329 
L 511.096544 -119.083595 
L 510.586538 -117.170861 
L 510.058842 -115.258128 
L 509.517056 -113.345394 
L 508.965248 -111.432661 
L 508.407868 -109.519927 
L 507.849632 -107.607194 
L 507.2954 -105.69446 
L 506.750028 -103.781726 
L 506.218237 -101.868993 
L 505.704466 -99.956259 
L 505.212747 -98.043526 
L 504.746592 -96.130792 
L 504.308905 -94.218058 
L 503.901921 -92.305325 
L 503.527174 -90.392591 
L 503.185493 -88.479858 
L 502.877032 -86.567124 
L 502.601316 -84.654391 
L 502.357314 -82.741657 
L 502.143527 -80.828923 
L 501.958079 -78.91619 
L 501.798816 -77.003456 
z
" style="stroke: #3f3f3f; stroke-width: 1.25"/>
    </defs>
    <g clip-path="url(#p0388acfc3f)">
     <use xlink:href="#ma3da740ed6" x="0" y="360" style="fill: #e1812c; stroke: #3f3f3f; stroke-width: 1.25"/>
    </g>
   </g>
   <g id="PolyCollection_7">
    <defs>
     <path id="md47badab1e" d="M 599.305227 -113.087305 
L 597.929843 -113.087305 
L 597.78122 -115.197002 
L 597.608097 -117.306698 
L 597.408092 -119.416395 
L 597.17889 -121.526092 
L 596.91829 -123.635788 
L 596.624244 -125.745485 
L 596.294903 -127.855182 
L 595.928643 -129.964878 
L 595.524089 -132.074575 
L 595.080126 -134.184272 
L 594.595902 -136.293968 
L 594.070829 -138.403665 
L 593.504569 -140.513362 
L 592.89703 -142.623058 
L 592.248362 -144.732755 
L 591.558961 -146.842451 
L 590.829494 -148.952148 
L 590.060932 -151.061845 
L 589.254612 -153.171541 
L 588.41231 -155.281238 
L 587.536343 -157.390935 
L 586.62967 -159.500631 
L 585.69601 -161.610328 
L 584.739951 -163.720025 
L 583.76704 -165.829721 
L 582.783854 -167.939418 
L 581.798021 -170.049115 
L 580.818205 -172.158811 
L 579.854025 -174.268508 
L 578.915915 -176.378204 
L 578.014928 -178.487901 
L 577.162476 -180.597598 
L 576.370033 -182.707294 
L 575.64879 -184.816991 
L 575.009308 -186.926688 
L 574.461158 -189.036384 
L 574.012591 -191.146081 
L 573.670244 -193.255778 
L 573.438901 -195.365474 
L 573.321328 -197.475171 
L 573.318185 -199.584868 
L 573.428022 -201.694564 
L 573.647357 -203.804261 
L 573.970833 -205.913957 
L 574.391434 -208.023654 
L 574.900754 -210.133351 
L 575.489302 -212.243047 
L 576.14681 -214.352744 
L 576.862551 -216.462441 
L 577.625632 -218.572137 
L 578.425253 -220.681834 
L 579.250927 -222.791531 
L 580.092661 -224.901227 
L 580.94108 -227.010924 
L 581.787521 -229.12062 
L 582.624084 -231.230317 
L 583.443657 -233.340014 
L 584.23993 -235.44971 
L 585.00739 -237.559407 
L 585.74133 -239.669104 
L 586.43785 -241.7788 
L 587.093873 -243.888497 
L 587.707171 -245.998194 
L 588.276387 -248.10789 
L 588.801065 -250.217587 
L 589.281663 -252.327284 
L 589.719559 -254.43698 
L 590.117023 -256.546677 
L 590.477168 -258.656373 
L 590.80386 -260.76607 
L 591.101594 -262.875767 
L 591.375343 -264.985463 
L 591.630371 -267.09516 
L 591.872029 -269.204857 
L 592.105548 -271.314553 
L 592.335824 -273.42425 
L 592.567229 -275.533947 
L 592.80344 -277.643643 
L 593.047308 -279.75334 
L 593.300774 -281.863037 
L 593.564824 -283.972733 
L 593.839504 -286.08243 
L 594.123974 -288.192126 
L 594.416611 -290.301823 
L 594.715135 -292.41152 
L 595.016773 -294.521216 
L 595.318427 -296.630913 
L 595.616847 -298.74061 
L 595.9088 -300.850306 
L 596.191217 -302.960003 
L 596.461326 -305.0697 
L 596.716748 -307.179396 
L 596.955567 -309.289093 
L 597.17637 -311.39879 
L 597.378258 -313.508486 
L 597.560827 -315.618183 
L 597.724135 -317.727879 
L 597.868645 -319.837576 
L 597.995159 -321.947273 
L 599.239911 -321.947273 
L 599.239911 -321.947273 
L 599.366425 -319.837576 
L 599.510935 -317.727879 
L 599.674243 -315.618183 
L 599.856812 -313.508486 
L 600.0587 -311.39879 
L 600.279503 -309.289093 
L 600.518322 -307.179396 
L 600.773744 -305.0697 
L 601.043853 -302.960003 
L 601.32627 -300.850306 
L 601.618223 -298.74061 
L 601.916643 -296.630913 
L 602.218297 -294.521216 
L 602.519935 -292.41152 
L 602.818459 -290.301823 
L 603.111095 -288.192126 
L 603.395566 -286.08243 
L 603.670246 -283.972733 
L 603.934296 -281.863037 
L 604.187762 -279.75334 
L 604.43163 -277.643643 
L 604.667841 -275.533947 
L 604.899246 -273.42425 
L 605.129522 -271.314553 
L 605.363041 -269.204857 
L 605.604699 -267.09516 
L 605.859727 -264.985463 
L 606.133476 -262.875767 
L 606.43121 -260.76607 
L 606.757902 -258.656373 
L 607.118047 -256.546677 
L 607.515511 -254.43698 
L 607.953407 -252.327284 
L 608.434005 -250.217587 
L 608.958683 -248.10789 
L 609.527899 -245.998194 
L 610.141197 -243.888497 
L 610.79722 -241.7788 
L 611.49374 -239.669104 
L 612.22768 -237.559407 
L 612.99514 -235.44971 
L 613.791413 -233.340014 
L 614.610986 -231.230317 
L 615.447549 -229.12062 
L 616.29399 -227.010924 
L 617.142409 -224.901227 
L 617.984143 -222.791531 
L 618.809817 -220.681834 
L 619.609438 -218.572137 
L 620.372519 -216.462441 
L 621.08826 -214.352744 
L 621.745768 -212.243047 
L 622.334316 -210.133351 
L 622.843636 -208.023654 
L 623.264237 -205.913957 
L 623.587713 -203.804261 
L 623.807048 -201.694564 
L 623.916885 -199.584868 
L 623.913742 -197.475171 
L 623.796169 -195.365474 
L 623.564826 -193.255778 
L 623.222479 -191.146081 
L 622.773912 -189.036384 
L 622.225762 -186.926688 
L 621.58628 -184.816991 
L 620.865037 -182.707294 
L 620.072594 -180.597598 
L 619.220142 -178.487901 
L 618.319155 -176.378204 
L 617.381045 -174.268508 
L 616.416865 -172.158811 
L 615.437049 -170.049115 
L 614.451216 -167.939418 
L 613.46803 -165.829721 
L 612.495119 -163.720025 
L 611.53906 -161.610328 
L 610.6054 -159.500631 
L 609.698727 -157.390935 
L 608.82276 -155.281238 
L 607.980458 -153.171541 
L 607.174138 -151.061845 
L 606.405576 -148.952148 
L 605.676109 -146.842451 
L 604.986708 -144.732755 
L 604.338039 -142.623058 
L 603.7305 -140.513362 
L 603.164241 -138.403665 
L 602.639168 -136.293968 
L 602.154944 -134.184272 
L 601.710981 -132.074575 
L 601.306427 -129.964878 
L 600.940167 -127.855182 
L 600.610826 -125.745485 
L 600.31678 -123.635788 
L 600.05618 -121.526092 
L 599.826978 -119.416395 
L 599.626973 -117.306698 
L 599.45385 -115.197002 
L 599.305227 -113.087305 
z
" style="stroke: #3f3f3f; stroke-width: 1.25"/>
    </defs>
    <g clip-path="url(#p0388acfc3f)">
     <use xlink:href="#md47badab1e" x="0" y="360" style="fill: #3274a1; stroke: #3f3f3f; stroke-width: 1.25"/>
    </g>
   </g>
   <g id="PolyCollection_8">
    <defs>
     <path id="mdd5a1375ca" d="M 665.084839 -110.189588 
L 662.200134 -110.189588 
L 661.897216 -111.365216 
L 661.545447 -112.540844 
L 661.140267 -113.716472 
L 660.677366 -114.892099 
L 660.152832 -116.067727 
L 659.563317 -117.243355 
L 658.906202 -118.418983 
L 658.179755 -119.594611 
L 657.383289 -120.770239 
L 656.517294 -121.945867 
L 655.583549 -123.121495 
L 654.5852 -124.297123 
L 653.526799 -125.47275 
L 652.414304 -126.648378 
L 651.255025 -127.824006 
L 650.057532 -128.999634 
L 648.831503 -130.175262 
L 647.587536 -131.35089 
L 646.336914 -132.526518 
L 645.091339 -133.702146 
L 643.862638 -134.877774 
L 642.662447 -136.053401 
L 641.5019 -137.229029 
L 640.391313 -138.404657 
L 639.339891 -139.580285 
L 638.355461 -140.755913 
L 637.444247 -141.931541 
L 636.6107 -143.107169 
L 635.857381 -144.282797 
L 635.184914 -145.458425 
L 634.592014 -146.634052 
L 634.075584 -147.80968 
L 633.630893 -148.985308 
L 633.251815 -150.160936 
L 632.931138 -151.336564 
L 632.66092 -152.512192 
L 632.432884 -153.68782 
L 632.238836 -154.863448 
L 632.07108 -156.039076 
L 631.922821 -157.214703 
L 631.788525 -158.390331 
L 631.664223 -159.565959 
L 631.54774 -160.741587 
L 631.438827 -161.917215 
L 631.339203 -163.092843 
L 631.252481 -164.268471 
L 631.183999 -165.444099 
L 631.140546 -166.619727 
L 631.130011 -167.795354 
L 631.160956 -168.970982 
L 631.242159 -170.14661 
L 631.382126 -171.322238 
L 631.588619 -172.497866 
L 631.868222 -173.673494 
L 632.225963 -174.849122 
L 632.665021 -176.02475 
L 633.186531 -177.200378 
L 633.789496 -178.376005 
L 634.470812 -179.551633 
L 635.2254 -180.727261 
L 636.046433 -181.902889 
L 636.925649 -183.078517 
L 637.85372 -184.254145 
L 638.820658 -185.429773 
L 639.816231 -186.605401 
L 640.83037 -187.781029 
L 641.853535 -188.956656 
L 642.877022 -190.132284 
L 643.893205 -191.307912 
L 644.895697 -192.48354 
L 645.879419 -193.659168 
L 646.840603 -194.834796 
L 647.776707 -196.010424 
L 648.686275 -197.186052 
L 649.568754 -198.36168 
L 650.424273 -199.537307 
L 651.25342 -200.712935 
L 652.057016 -201.888563 
L 652.835915 -203.064191 
L 653.590834 -204.239819 
L 654.322223 -205.415447 
L 655.030184 -206.591075 
L 655.714428 -207.766703 
L 656.374289 -208.942331 
L 657.008762 -210.117958 
L 657.616584 -211.293586 
L 658.196326 -212.469214 
L 658.746506 -213.644842 
L 659.265701 -214.82047 
L 659.752646 -215.996098 
L 660.206333 -217.171726 
L 660.626083 -218.347354 
L 661.011594 -219.522982 
L 661.362975 -220.698609 
L 661.680745 -221.874237 
L 661.965824 -223.049865 
L 662.219493 -224.225493 
L 662.443351 -225.401121 
L 662.639254 -226.576749 
L 664.645719 -226.576749 
L 664.645719 -226.576749 
L 664.841621 -225.401121 
L 665.06548 -224.225493 
L 665.319149 -223.049865 
L 665.604228 -221.874237 
L 665.921998 -220.698609 
L 666.273379 -219.522982 
L 666.65889 -218.347354 
L 667.07864 -217.171726 
L 667.532327 -215.996098 
L 668.019272 -214.82047 
L 668.538466 -213.644842 
L 669.088647 -212.469214 
L 669.668389 -211.293586 
L 670.276211 -210.117958 
L 670.910684 -208.942331 
L 671.570545 -207.766703 
L 672.254789 -206.591075 
L 672.96275 -205.415447 
L 673.694139 -204.239819 
L 674.449058 -203.064191 
L 675.227957 -201.888563 
L 676.031553 -200.712935 
L 676.8607 -199.537307 
L 677.716219 -198.36168 
L 678.598698 -197.186052 
L 679.508266 -196.010424 
L 680.44437 -194.834796 
L 681.405554 -193.659168 
L 682.389276 -192.48354 
L 683.391768 -191.307912 
L 684.407951 -190.132284 
L 685.431438 -188.956656 
L 686.454603 -187.781029 
L 687.468742 -186.605401 
L 688.464315 -185.429773 
L 689.431252 -184.254145 
L 690.359323 -183.078517 
L 691.23854 -181.902889 
L 692.059573 -180.727261 
L 692.814161 -179.551633 
L 693.495477 -178.376005 
L 694.098442 -177.200378 
L 694.619952 -176.02475 
L 695.05901 -174.849122 
L 695.416751 -173.673494 
L 695.696354 -172.497866 
L 695.902847 -171.322238 
L 696.042814 -170.14661 
L 696.124017 -168.970982 
L 696.154962 -167.795354 
L 696.144427 -166.619727 
L 696.100974 -165.444099 
L 696.032492 -164.268471 
L 695.94577 -163.092843 
L 695.846146 -161.917215 
L 695.737233 -160.741587 
L 695.62075 -159.565959 
L 695.496448 -158.390331 
L 695.362152 -157.214703 
L 695.213893 -156.039076 
L 695.046137 -154.863448 
L 694.852088 -153.68782 
L 694.624053 -152.512192 
L 694.353835 -151.336564 
L 694.033158 -150.160936 
L 693.65408 -148.985308 
L 693.209389 -147.80968 
L 692.692959 -146.634052 
L 692.100059 -145.458425 
L 691.427592 -144.282797 
L 690.674272 -143.107169 
L 689.840726 -141.931541 
L 688.929512 -140.755913 
L 687.945082 -139.580285 
L 686.893659 -138.404657 
L 685.783073 -137.229029 
L 684.622526 -136.053401 
L 683.422335 -134.877774 
L 682.193634 -133.702146 
L 680.948059 -132.526518 
L 679.697437 -131.35089 
L 678.45347 -130.175262 
L 677.227441 -128.999634 
L 676.029947 -127.824006 
L 674.870669 -126.648378 
L 673.758173 -125.47275 
L 672.699773 -124.297123 
L 671.701424 -123.121495 
L 670.767679 -121.945867 
L 669.901684 -120.770239 
L 669.105218 -119.594611 
L 668.378771 -118.418983 
L 667.721655 -117.243355 
L 667.132141 -116.067727 
L 666.607607 -114.892099 
L 666.144706 -113.716472 
L 665.739526 -112.540844 
L 665.387756 -111.365216 
L 665.084839 -110.189588 
z
" style="stroke: #3f3f3f; stroke-width: 1.25"/>
    </defs>
    <g clip-path="url(#p0388acfc3f)">
     <use xlink:href="#mdd5a1375ca" x="0" y="360" style="fill: #e1812c; stroke: #3f3f3f; stroke-width: 1.25"/>
    </g>
   </g>
   <g id="patch_6">
    <path d="M 468.567632 415.701755 
L 468.567632 415.701755 
L 468.567632 415.701755 
L 468.567632 415.701755 
z
" clip-path="url(#p0388acfc3f)" style="fill: #3274a1; stroke: #3f3f3f; stroke-width: 1.25; stroke-linejoin: miter"/>
   </g>
   <g id="patch_7">
    <path d="M 468.567632 415.701755 
L 468.567632 415.701755 
L 468.567632 415.701755 
L 468.567632 415.701755 
z
" clip-path="url(#p0388acfc3f)" style="fill: #e1812c; stroke: #3f3f3f; stroke-width: 1.25; stroke-linejoin: miter"/>
   </g>
   <g id="line2d_31">
    <path d="M 436.055156 212.107717 
L 436.055156 110.716455 
" clip-path="url(#p0388acfc3f)" style="fill: none; stroke: #3f3f3f; stroke-width: 1.875; stroke-linecap: round"/>
   </g>
   <g id="line2d_32">
    <path d="M 436.055156 185.921767 
L 436.055156 150.693351 
" clip-path="url(#p0388acfc3f)" style="fill: none; stroke: #3f3f3f; stroke-width: 5.625; stroke-linecap: round"/>
   </g>
   <g id="line2d_33">
    <path d="M 436.055156 166.345987 
" clip-path="url(#p0388acfc3f)" style="fill: none; stroke: #3f3f3f; stroke-width: 1.5; stroke-linecap: round"/>
    <g clip-path="url(#p0388acfc3f)">
     <use xlink:href="#m0f17085d46" x="436.055156" y="166.345987" style="fill: #ffffff; stroke: #ffffff; stroke-width: 1.125"/>
    </g>
   </g>
   <g id="line2d_34">
    <path d="M 501.080108 243.307478 
L 501.080108 133.324984 
" clip-path="url(#p0388acfc3f)" style="fill: none; stroke: #3f3f3f; stroke-width: 1.875; stroke-linecap: round"/>
   </g>
   <g id="line2d_35">
    <path d="M 501.080108 213.279516 
L 501.080108 162.093313 
" clip-path="url(#p0388acfc3f)" style="fill: none; stroke: #3f3f3f; stroke-width: 5.625; stroke-linecap: round"/>
   </g>
   <g id="line2d_36">
    <path d="M 501.080108 177.880729 
" clip-path="url(#p0388acfc3f)" style="fill: none; stroke: #3f3f3f; stroke-width: 1.5; stroke-linecap: round"/>
    <g clip-path="url(#p0388acfc3f)">
     <use xlink:href="#m0f17085d46" x="501.080108" y="177.880729" style="fill: #ffffff; stroke: #ffffff; stroke-width: 1.125"/>
    </g>
   </g>
   <g id="line2d_37">
    <path d="M 598.617535 202.05961 
L 598.617535 121.789997 
" clip-path="url(#p0388acfc3f)" style="fill: none; stroke: #3f3f3f; stroke-width: 1.875; stroke-linecap: round"/>
   </g>
   <g id="line2d_38">
    <path d="M 598.617535 170.926944 
L 598.617535 137.308351 
" clip-path="url(#p0388acfc3f)" style="fill: none; stroke: #3f3f3f; stroke-width: 5.625; stroke-linecap: round"/>
   </g>
   <g id="line2d_39">
    <path d="M 598.617535 158.426562 
" clip-path="url(#p0388acfc3f)" style="fill: none; stroke: #3f3f3f; stroke-width: 1.5; stroke-linecap: round"/>
    <g clip-path="url(#p0388acfc3f)">
     <use xlink:href="#m0f17085d46" x="598.617535" y="158.426562" style="fill: #ffffff; stroke: #ffffff; stroke-width: 1.125"/>
    </g>
   </g>
   <g id="line2d_40">
    <path d="M 663.642486 223.318916 
L 663.642486 159.914748 
" clip-path="url(#p0388acfc3f)" style="fill: none; stroke: #3f3f3f; stroke-width: 1.875; stroke-linecap: round"/>
   </g>
   <g id="line2d_41">
    <path d="M 663.642486 207.820297 
L 663.642486 184.259739 
" clip-path="url(#p0388acfc3f)" style="fill: none; stroke: #3f3f3f; stroke-width: 5.625; stroke-linecap: round"/>
   </g>
   <g id="line2d_42">
    <path d="M 663.642486 193.03022 
" clip-path="url(#p0388acfc3f)" style="fill: none; stroke: #3f3f3f; stroke-width: 1.5; stroke-linecap: round"/>
    <g clip-path="url(#p0388acfc3f)">
     <use xlink:href="#m0f17085d46" x="663.642486" y="193.03022" style="fill: #ffffff; stroke: #ffffff; stroke-width: 1.125"/>
    </g>
   </g>
   <g id="patch_8">
    <path d="M 387.286443 318.04 
L 387.286443 24.72 
" style="fill: none; stroke: #cccccc; stroke-width: 0.8; stroke-linejoin: miter; stroke-linecap: square"/>
   </g>
   <g id="patch_9">
    <path d="M 387.286443 318.04 
L 712.4112 318.04 
" style="fill: none; stroke: #cccccc; stroke-width: 0.8; stroke-linejoin: miter; stroke-linecap: square"/>
   </g>
   <g id="text_18">
    <!-- sex = m -->
    <g style="fill: #262626" transform="translate(532.205071 18.72) scale(0.1 -0.1)">
     <defs>
      <path id="ArialMT-6d" d="M 422 0 
L 422 3319 
L 925 3319 
L 925 2853 
Q 1081 3097 1340 3245 
Q 1600 3394 1931 3394 
Q 2300 3394 2536 3241 
Q 2772 3088 2869 2813 
Q 3263 3394 3894 3394 
Q 4388 3394 4653 3120 
Q 4919 2847 4919 2278 
L 4919 0 
L 4359 0 
L 4359 2091 
Q 4359 2428 4304 2576 
Q 4250 2725 4106 2815 
Q 3963 2906 3769 2906 
Q 3419 2906 3187 2673 
Q 2956 2441 2956 1928 
L 2956 0 
L 2394 0 
L 2394 2156 
Q 2394 2531 2256 2718 
Q 2119 2906 1806 2906 
Q 1569 2906 1367 2781 
Q 1166 2656 1075 2415 
Q 984 2175 984 1722 
L 984 0 
L 422 0 
z
" transform="scale(0.015625)"/>
     </defs>
     <use xlink:href="#ArialMT-73"/>
     <use xlink:href="#ArialMT-65" x="50"/>
     <use xlink:href="#ArialMT-78" x="105.615234"/>
     <use xlink:href="#ArialMT-20" x="155.615234"/>
     <use xlink:href="#ArialMT-3d" x="183.398438"/>
     <use xlink:href="#ArialMT-20" x="241.796875"/>
     <use xlink:href="#ArialMT-6d" x="269.580078"/>
    </g>
   </g>
  </g>
  <g id="legend_1">
   <g id="text_19">
    <!-- time -->
    <g style="fill: #262626" transform="translate(725.045625 168.439844) scale(0.1 -0.1)">
     <use xlink:href="#ArialMT-74"/>
     <use xlink:href="#ArialMT-69" x="27.783203"/>
     <use xlink:href="#ArialMT-6d" x="50"/>
     <use xlink:href="#ArialMT-65" x="133.300781"/>
    </g>
   </g>
   <g id="patch_10">
    <path d="M 719.101875 182.585156 
L 739.101875 182.585156 
L 739.101875 175.585156 
L 719.101875 175.585156 
z
" style="fill: #3274a1; stroke: #3f3f3f; stroke-width: 1.25; stroke-linejoin: miter"/>
   </g>
   <g id="text_20">
    <!-- i -->
    <g style="fill: #262626" transform="translate(747.101875 182.585156) scale(0.1 -0.1)">
     <use xlink:href="#ArialMT-69"/>
    </g>
   </g>
   <g id="patch_11">
    <path d="M 719.101875 196.730469 
L 739.101875 196.730469 
L 739.101875 189.730469 
L 719.101875 189.730469 
z
" style="fill: #e1812c; stroke: #3f3f3f; stroke-width: 1.25; stroke-linejoin: miter"/>
   </g>
   <g id="text_21">
    <!-- f -->
    <g style="fill: #262626" transform="translate(747.101875 196.730469) scale(0.1 -0.1)">
     <use xlink:href="#ArialMT-66"/>
    </g>
   </g>
  </g>
 </g>
 <defs>
  <clipPath id="p2106d225b7">
   <rect x="51.352198" y="24.72" width="325.124757" height="293.32"/>
  </clipPath>
  <clipPath id="p0388acfc3f">
   <rect x="387.286443" y="24.72" width="325.124757" height="293.32"/>
  </clipPath>
 </defs>
</svg>
