<?xml version="1.0" encoding="utf-8" standalone="no"?>
<!DOCTYPE svg PUBLIC "-//W3C//DTD SVG 1.1//EN"
  "http://www.w3.org/Graphics/SVG/1.1/DTD/svg11.dtd">
<svg xmlns:xlink="http://www.w3.org/1999/xlink" width="758.88pt" height="360pt" viewBox="0 0 758.88 360" xmlns="http://www.w3.org/2000/svg" version="1.1">
 <metadata>
  <rdf:RDF xmlns:dc="http://purl.org/dc/elements/1.1/" xmlns:cc="http://creativecommons.org/ns#" xmlns:rdf="http://www.w3.org/1999/02/22-rdf-syntax-ns#">
   <cc:Work>
    <dc:type rdf:resource="http://purl.org/dc/dcmitype/StillImage"/>
    <dc:date>2024-09-11T03:22:41.268871</dc:date>
    <dc:format>image/svg+xml</dc:format>
    <dc:creator>
     <cc:Agent>
      <dc:title>Matplotlib v3.8.3, https://matplotlib.org/</dc:title>
     </cc:Agent>
    </dc:creator>
   </cc:Work>
  </rdf:RDF>
 </metadata>
 <defs>
  <style type="text/css">*{stroke-linejoin: round; stroke-linecap: butt}</style>
 </defs>
 <g id="figure_1">
  <g id="patch_1">
   <path d="M 0 360 
L 758.88 360 
L 758.88 0 
L 0 0 
z
" style="fill: #ffffff"/>
  </g>
  <g id="axes_1">
   <g id="patch_2">
    <path d="M 48.411538 318.04 
L 375.005418 318.04 
L 375.005418 24.72 
L 48.411538 24.72 
z
" style="fill: #ffffff"/>
   </g>
   <g id="matplotlib.axis_1">
    <g id="xtick_1">
     <g id="text_1">
      <!-- Jurilovca -->
      <g style="fill: #262626" transform="translate(110.331883 332.197812) scale(0.1 -0.1)">
       <defs>
        <path id="ArialMT-4a" d="M 184 1300 
L 731 1375 
Q 753 850 928 656 
Q 1103 463 1413 463 
Q 1641 463 1806 567 
Q 1972 672 2034 851 
Q 2097 1031 2097 1425 
L 2097 4581 
L 2703 4581 
L 2703 1459 
Q 2703 884 2564 568 
Q 2425 253 2123 87 
Q 1822 -78 1416 -78 
Q 813 -78 492 269 
Q 172 616 184 1300 
z
" transform="scale(0.015625)"/>
        <path id="ArialMT-75" d="M 2597 0 
L 2597 488 
Q 2209 -75 1544 -75 
Q 1250 -75 995 37 
Q 741 150 617 320 
Q 494 491 444 738 
Q 409 903 409 1263 
L 409 3319 
L 972 3319 
L 972 1478 
Q 972 1038 1006 884 
Q 1059 663 1231 536 
Q 1403 409 1656 409 
Q 1909 409 2131 539 
Q 2353 669 2445 892 
Q 2538 1116 2538 1541 
L 2538 3319 
L 3100 3319 
L 3100 0 
L 2597 0 
z
" transform="scale(0.015625)"/>
        <path id="ArialMT-72" d="M 416 0 
L 416 3319 
L 922 3319 
L 922 2816 
Q 1116 3169 1280 3281 
Q 1444 3394 1641 3394 
Q 1925 3394 2219 3213 
L 2025 2691 
Q 1819 2813 1613 2813 
Q 1428 2813 1281 2702 
Q 1134 2591 1072 2394 
Q 978 2094 978 1738 
L 978 0 
L 416 0 
z
" transform="scale(0.015625)"/>
        <path id="ArialMT-69" d="M 425 3934 
L 425 4581 
L 988 4581 
L 988 3934 
L 425 3934 
z
M 425 0 
L 425 3319 
L 988 3319 
L 988 0 
L 425 0 
z
" transform="scale(0.015625)"/>
        <path id="ArialMT-6c" d="M 409 0 
L 409 4581 
L 972 4581 
L 972 0 
L 409 0 
z
" transform="scale(0.015625)"/>
        <path id="ArialMT-6f" d="M 213 1659 
Q 213 2581 725 3025 
Q 1153 3394 1769 3394 
Q 2453 3394 2887 2945 
Q 3322 2497 3322 1706 
Q 3322 1066 3130 698 
Q 2938 331 2570 128 
Q 2203 -75 1769 -75 
Q 1072 -75 642 372 
Q 213 819 213 1659 
z
M 791 1659 
Q 791 1022 1069 705 
Q 1347 388 1769 388 
Q 2188 388 2466 706 
Q 2744 1025 2744 1678 
Q 2744 2294 2464 2611 
Q 2184 2928 1769 2928 
Q 1347 2928 1069 2612 
Q 791 2297 791 1659 
z
" transform="scale(0.015625)"/>
        <path id="ArialMT-76" d="M 1344 0 
L 81 3319 
L 675 3319 
L 1388 1331 
Q 1503 1009 1600 663 
Q 1675 925 1809 1294 
L 2547 3319 
L 3125 3319 
L 1869 0 
L 1344 0 
z
" transform="scale(0.015625)"/>
        <path id="ArialMT-63" d="M 2588 1216 
L 3141 1144 
Q 3050 572 2676 248 
Q 2303 -75 1759 -75 
Q 1078 -75 664 370 
Q 250 816 250 1647 
Q 250 2184 428 2587 
Q 606 2991 970 3192 
Q 1334 3394 1763 3394 
Q 2303 3394 2647 3120 
Q 2991 2847 3088 2344 
L 2541 2259 
Q 2463 2594 2264 2762 
Q 2066 2931 1784 2931 
Q 1359 2931 1093 2626 
Q 828 2322 828 1663 
Q 828 994 1084 691 
Q 1341 388 1753 388 
Q 2084 388 2306 591 
Q 2528 794 2588 1216 
z
" transform="scale(0.015625)"/>
        <path id="ArialMT-61" d="M 2588 409 
Q 2275 144 1986 34 
Q 1697 -75 1366 -75 
Q 819 -75 525 192 
Q 231 459 231 875 
Q 231 1119 342 1320 
Q 453 1522 633 1644 
Q 813 1766 1038 1828 
Q 1203 1872 1538 1913 
Q 2219 1994 2541 2106 
Q 2544 2222 2544 2253 
Q 2544 2597 2384 2738 
Q 2169 2928 1744 2928 
Q 1347 2928 1158 2789 
Q 969 2650 878 2297 
L 328 2372 
Q 403 2725 575 2942 
Q 747 3159 1072 3276 
Q 1397 3394 1825 3394 
Q 2250 3394 2515 3294 
Q 2781 3194 2906 3042 
Q 3031 2891 3081 2659 
Q 3109 2516 3109 2141 
L 3109 1391 
Q 3109 606 3145 398 
Q 3181 191 3288 0 
L 2700 0 
Q 2613 175 2588 409 
z
M 2541 1666 
Q 2234 1541 1622 1453 
Q 1275 1403 1131 1340 
Q 988 1278 909 1158 
Q 831 1038 831 891 
Q 831 666 1001 516 
Q 1172 366 1500 366 
Q 1825 366 2078 508 
Q 2331 650 2450 897 
Q 2541 1088 2541 1459 
L 2541 1666 
z
" transform="scale(0.015625)"/>
       </defs>
       <use xlink:href="#ArialMT-4a"/>
       <use xlink:href="#ArialMT-75" x="50"/>
       <use xlink:href="#ArialMT-72" x="105.615234"/>
       <use xlink:href="#ArialMT-69" x="138.916016"/>
       <use xlink:href="#ArialMT-6c" x="161.132812"/>
       <use xlink:href="#ArialMT-6f" x="183.349609"/>
       <use xlink:href="#ArialMT-76" x="238.964844"/>
       <use xlink:href="#ArialMT-63" x="288.964844"/>
       <use xlink:href="#ArialMT-61" x="338.964844"/>
      </g>
     </g>
    </g>
    <g id="xtick_2">
     <g id="text_2">
      <!-- Baia -->
      <g style="fill: #262626" transform="translate(283.349917 332.197812) scale(0.1 -0.1)">
       <defs>
        <path id="ArialMT-42" d="M 469 0 
L 469 4581 
L 2188 4581 
Q 2713 4581 3030 4442 
Q 3347 4303 3526 4014 
Q 3706 3725 3706 3409 
Q 3706 3116 3547 2856 
Q 3388 2597 3066 2438 
Q 3481 2316 3704 2022 
Q 3928 1728 3928 1328 
Q 3928 1006 3792 729 
Q 3656 453 3456 303 
Q 3256 153 2954 76 
Q 2653 0 2216 0 
L 469 0 
z
M 1075 2656 
L 2066 2656 
Q 2469 2656 2644 2709 
Q 2875 2778 2992 2937 
Q 3109 3097 3109 3338 
Q 3109 3566 3000 3739 
Q 2891 3913 2687 3977 
Q 2484 4041 1991 4041 
L 1075 4041 
L 1075 2656 
z
M 1075 541 
L 2216 541 
Q 2509 541 2628 563 
Q 2838 600 2978 687 
Q 3119 775 3209 942 
Q 3300 1109 3300 1328 
Q 3300 1584 3169 1773 
Q 3038 1963 2805 2039 
Q 2572 2116 2134 2116 
L 1075 2116 
L 1075 541 
z
" transform="scale(0.015625)"/>
       </defs>
       <use xlink:href="#ArialMT-42"/>
       <use xlink:href="#ArialMT-61" x="66.699219"/>
       <use xlink:href="#ArialMT-69" x="122.314453"/>
       <use xlink:href="#ArialMT-61" x="144.53125"/>
      </g>
     </g>
    </g>
    <g id="text_3">
     <!-- location -->
     <g style="fill: #262626" transform="translate(194.475665 345.343125) scale(0.1 -0.1)">
      <defs>
       <path id="ArialMT-74" d="M 1650 503 
L 1731 6 
Q 1494 -44 1306 -44 
Q 1000 -44 831 53 
Q 663 150 594 308 
Q 525 466 525 972 
L 525 2881 
L 113 2881 
L 113 3319 
L 525 3319 
L 525 4141 
L 1084 4478 
L 1084 3319 
L 1650 3319 
L 1650 2881 
L 1084 2881 
L 1084 941 
Q 1084 700 1114 631 
Q 1144 563 1211 522 
Q 1278 481 1403 481 
Q 1497 481 1650 503 
z
" transform="scale(0.015625)"/>
       <path id="ArialMT-6e" d="M 422 0 
L 422 3319 
L 928 3319 
L 928 2847 
Q 1294 3394 1984 3394 
Q 2284 3394 2536 3286 
Q 2788 3178 2913 3003 
Q 3038 2828 3088 2588 
Q 3119 2431 3119 2041 
L 3119 0 
L 2556 0 
L 2556 2019 
Q 2556 2363 2490 2533 
Q 2425 2703 2258 2804 
Q 2091 2906 1866 2906 
Q 1506 2906 1245 2678 
Q 984 2450 984 1813 
L 984 0 
L 422 0 
z
" transform="scale(0.015625)"/>
      </defs>
      <use xlink:href="#ArialMT-6c"/>
      <use xlink:href="#ArialMT-6f" x="22.216797"/>
      <use xlink:href="#ArialMT-63" x="77.832031"/>
      <use xlink:href="#ArialMT-61" x="127.832031"/>
      <use xlink:href="#ArialMT-74" x="183.447266"/>
      <use xlink:href="#ArialMT-69" x="211.230469"/>
      <use xlink:href="#ArialMT-6f" x="233.447266"/>
      <use xlink:href="#ArialMT-6e" x="289.0625"/>
     </g>
    </g>
   </g>
   <g id="matplotlib.axis_2">
    <g id="ytick_1">
     <g id="line2d_1">
      <path d="M 48.411538 272.882129 
L 375.005418 272.882129 
" clip-path="url(#p049a2526e3)" style="fill: none; stroke: #cccccc; stroke-width: 0.8; stroke-linecap: round"/>
     </g>
     <g id="text_4">
      <!-- 0.6 -->
      <g style="fill: #262626" transform="translate(27.511538 276.461035) scale(0.1 -0.1)">
       <defs>
        <path id="ArialMT-30" d="M 266 2259 
Q 266 3072 433 3567 
Q 600 4063 929 4331 
Q 1259 4600 1759 4600 
Q 2128 4600 2406 4451 
Q 2684 4303 2865 4023 
Q 3047 3744 3150 3342 
Q 3253 2941 3253 2259 
Q 3253 1453 3087 958 
Q 2922 463 2592 192 
Q 2263 -78 1759 -78 
Q 1097 -78 719 397 
Q 266 969 266 2259 
z
M 844 2259 
Q 844 1131 1108 757 
Q 1372 384 1759 384 
Q 2147 384 2411 759 
Q 2675 1134 2675 2259 
Q 2675 3391 2411 3762 
Q 2147 4134 1753 4134 
Q 1366 4134 1134 3806 
Q 844 3388 844 2259 
z
" transform="scale(0.015625)"/>
        <path id="ArialMT-2e" d="M 581 0 
L 581 641 
L 1222 641 
L 1222 0 
L 581 0 
z
" transform="scale(0.015625)"/>
        <path id="ArialMT-36" d="M 3184 3459 
L 2625 3416 
Q 2550 3747 2413 3897 
Q 2184 4138 1850 4138 
Q 1581 4138 1378 3988 
Q 1113 3794 959 3422 
Q 806 3050 800 2363 
Q 1003 2672 1297 2822 
Q 1591 2972 1913 2972 
Q 2475 2972 2870 2558 
Q 3266 2144 3266 1488 
Q 3266 1056 3080 686 
Q 2894 316 2569 119 
Q 2244 -78 1831 -78 
Q 1128 -78 684 439 
Q 241 956 241 2144 
Q 241 3472 731 4075 
Q 1159 4600 1884 4600 
Q 2425 4600 2770 4297 
Q 3116 3994 3184 3459 
z
M 888 1484 
Q 888 1194 1011 928 
Q 1134 663 1356 523 
Q 1578 384 1822 384 
Q 2178 384 2434 671 
Q 2691 959 2691 1453 
Q 2691 1928 2437 2201 
Q 2184 2475 1800 2475 
Q 1419 2475 1153 2201 
Q 888 1928 888 1484 
z
" transform="scale(0.015625)"/>
       </defs>
       <use xlink:href="#ArialMT-30"/>
       <use xlink:href="#ArialMT-2e" x="55.615234"/>
       <use xlink:href="#ArialMT-36" x="83.398438"/>
      </g>
     </g>
    </g>
    <g id="ytick_2">
     <g id="line2d_2">
      <path d="M 48.411538 225.783737 
L 375.005418 225.783737 
" clip-path="url(#p049a2526e3)" style="fill: none; stroke: #cccccc; stroke-width: 0.8; stroke-linecap: round"/>
     </g>
     <g id="text_5">
      <!-- 0.8 -->
      <g style="fill: #262626" transform="translate(27.511538 229.362643) scale(0.1 -0.1)">
       <defs>
        <path id="ArialMT-38" d="M 1131 2484 
Q 781 2613 612 2850 
Q 444 3088 444 3419 
Q 444 3919 803 4259 
Q 1163 4600 1759 4600 
Q 2359 4600 2725 4251 
Q 3091 3903 3091 3403 
Q 3091 3084 2923 2848 
Q 2756 2613 2416 2484 
Q 2838 2347 3058 2040 
Q 3278 1734 3278 1309 
Q 3278 722 2862 322 
Q 2447 -78 1769 -78 
Q 1091 -78 675 323 
Q 259 725 259 1325 
Q 259 1772 486 2073 
Q 713 2375 1131 2484 
z
M 1019 3438 
Q 1019 3113 1228 2906 
Q 1438 2700 1772 2700 
Q 2097 2700 2305 2904 
Q 2513 3109 2513 3406 
Q 2513 3716 2298 3927 
Q 2084 4138 1766 4138 
Q 1444 4138 1231 3931 
Q 1019 3725 1019 3438 
z
M 838 1322 
Q 838 1081 952 856 
Q 1066 631 1291 507 
Q 1516 384 1775 384 
Q 2178 384 2440 643 
Q 2703 903 2703 1303 
Q 2703 1709 2433 1975 
Q 2163 2241 1756 2241 
Q 1359 2241 1098 1978 
Q 838 1716 838 1322 
z
" transform="scale(0.015625)"/>
       </defs>
       <use xlink:href="#ArialMT-30"/>
       <use xlink:href="#ArialMT-2e" x="55.615234"/>
       <use xlink:href="#ArialMT-38" x="83.398438"/>
      </g>
     </g>
    </g>
    <g id="ytick_3">
     <g id="line2d_3">
      <path d="M 48.411538 178.685345 
L 375.005418 178.685345 
" clip-path="url(#p049a2526e3)" style="fill: none; stroke: #cccccc; stroke-width: 0.8; stroke-linecap: round"/>
     </g>
     <g id="text_6">
      <!-- 1.0 -->
      <g style="fill: #262626" transform="translate(27.511538 182.264251) scale(0.1 -0.1)">
       <defs>
        <path id="ArialMT-31" d="M 2384 0 
L 1822 0 
L 1822 3584 
Q 1619 3391 1289 3197 
Q 959 3003 697 2906 
L 697 3450 
Q 1169 3672 1522 3987 
Q 1875 4303 2022 4600 
L 2384 4600 
L 2384 0 
z
" transform="scale(0.015625)"/>
       </defs>
       <use xlink:href="#ArialMT-31"/>
       <use xlink:href="#ArialMT-2e" x="55.615234"/>
       <use xlink:href="#ArialMT-30" x="83.398438"/>
      </g>
     </g>
    </g>
    <g id="ytick_4">
     <g id="line2d_4">
      <path d="M 48.411538 131.586953 
L 375.005418 131.586953 
" clip-path="url(#p049a2526e3)" style="fill: none; stroke: #cccccc; stroke-width: 0.8; stroke-linecap: round"/>
     </g>
     <g id="text_7">
      <!-- 1.2 -->
      <g style="fill: #262626" transform="translate(27.511538 135.165859) scale(0.1 -0.1)">
       <defs>
        <path id="ArialMT-32" d="M 3222 541 
L 3222 0 
L 194 0 
Q 188 203 259 391 
Q 375 700 629 1000 
Q 884 1300 1366 1694 
Q 2113 2306 2375 2664 
Q 2638 3022 2638 3341 
Q 2638 3675 2398 3904 
Q 2159 4134 1775 4134 
Q 1369 4134 1125 3890 
Q 881 3647 878 3216 
L 300 3275 
Q 359 3922 746 4261 
Q 1134 4600 1788 4600 
Q 2447 4600 2831 4234 
Q 3216 3869 3216 3328 
Q 3216 3053 3103 2787 
Q 2991 2522 2730 2228 
Q 2469 1934 1863 1422 
Q 1356 997 1212 845 
Q 1069 694 975 541 
L 3222 541 
z
" transform="scale(0.015625)"/>
       </defs>
       <use xlink:href="#ArialMT-31"/>
       <use xlink:href="#ArialMT-2e" x="55.615234"/>
       <use xlink:href="#ArialMT-32" x="83.398438"/>
      </g>
     </g>
    </g>
    <g id="ytick_5">
     <g id="line2d_5">
      <path d="M 48.411538 84.488561 
L 375.005418 84.488561 
" clip-path="url(#p049a2526e3)" style="fill: none; stroke: #cccccc; stroke-width: 0.8; stroke-linecap: round"/>
     </g>
     <g id="text_8">
      <!-- 1.4 -->
      <g style="fill: #262626" transform="translate(27.511538 88.067467) scale(0.1 -0.1)">
       <defs>
        <path id="ArialMT-34" d="M 2069 0 
L 2069 1097 
L 81 1097 
L 81 1613 
L 2172 4581 
L 2631 4581 
L 2631 1613 
L 3250 1613 
L 3250 1097 
L 2631 1097 
L 2631 0 
L 2069 0 
z
M 2069 1613 
L 2069 3678 
L 634 1613 
L 2069 1613 
z
" transform="scale(0.015625)"/>
       </defs>
       <use xlink:href="#ArialMT-31"/>
       <use xlink:href="#ArialMT-2e" x="55.615234"/>
       <use xlink:href="#ArialMT-34" x="83.398438"/>
      </g>
     </g>
    </g>
    <g id="ytick_6">
     <g id="line2d_6">
      <path d="M 48.411538 37.390169 
L 375.005418 37.390169 
" clip-path="url(#p049a2526e3)" style="fill: none; stroke: #cccccc; stroke-width: 0.8; stroke-linecap: round"/>
     </g>
     <g id="text_9">
      <!-- 1.6 -->
      <g style="fill: #262626" transform="translate(27.511538 40.969075) scale(0.1 -0.1)">
       <use xlink:href="#ArialMT-31"/>
       <use xlink:href="#ArialMT-2e" x="55.615234"/>
       <use xlink:href="#ArialMT-36" x="83.398438"/>
      </g>
     </g>
    </g>
    <g id="text_10">
     <!-- rer -->
     <g style="fill: #262626" transform="translate(21.524038 177.490156) rotate(-90) scale(0.1 -0.1)">
      <defs>
       <path id="ArialMT-65" d="M 2694 1069 
L 3275 997 
Q 3138 488 2766 206 
Q 2394 -75 1816 -75 
Q 1088 -75 661 373 
Q 234 822 234 1631 
Q 234 2469 665 2931 
Q 1097 3394 1784 3394 
Q 2450 3394 2872 2941 
Q 3294 2488 3294 1666 
Q 3294 1616 3291 1516 
L 816 1516 
Q 847 969 1125 678 
Q 1403 388 1819 388 
Q 2128 388 2347 550 
Q 2566 713 2694 1069 
z
M 847 1978 
L 2700 1978 
Q 2663 2397 2488 2606 
Q 2219 2931 1791 2931 
Q 1403 2931 1139 2672 
Q 875 2413 847 1978 
z
" transform="scale(0.015625)"/>
      </defs>
      <use xlink:href="#ArialMT-72"/>
      <use xlink:href="#ArialMT-65" x="33.300781"/>
      <use xlink:href="#ArialMT-72" x="88.916016"/>
     </g>
    </g>
   </g>
   <g id="PolyCollection_1">
    <defs>
     <path id="m68edb48f14" d="M 98.211465 -55.292727 
L 96.589774 -55.292727 
L 96.452011 -57.241018 
L 96.297866 -59.189308 
L 96.126775 -61.137599 
L 95.938425 -63.085889 
L 95.732797 -65.03418 
L 95.510207 -66.98247 
L 95.27134 -68.930761 
L 95.017273 -70.879051 
L 94.749492 -72.827342 
L 94.46989 -74.775632 
L 94.180754 -76.723923 
L 93.884732 -78.672213 
L 93.584789 -80.620504 
L 93.284137 -82.568794 
L 92.986156 -84.517085 
L 92.6943 -86.465375 
L 92.411988 -88.413666 
L 92.142488 -90.361956 
L 91.888798 -92.310247 
L 91.653523 -94.258538 
L 91.438764 -96.206828 
L 91.246009 -98.155119 
L 91.07604 -100.103409 
L 90.928863 -102.0517 
L 90.803654 -103.99999 
L 90.698738 -105.948281 
L 90.61158 -107.896571 
L 90.538824 -109.844862 
L 90.47634 -111.793152 
L 90.419306 -113.741443 
L 90.362313 -115.689733 
L 90.299485 -117.638024 
L 90.224617 -119.586314 
L 90.131322 -121.534605 
L 90.01319 -123.482895 
L 89.863937 -125.431186 
L 89.677562 -127.379476 
L 89.448494 -129.327767 
L 89.171727 -131.276057 
L 88.842947 -133.224348 
L 88.458638 -135.172638 
L 88.016188 -137.120929 
L 87.51396 -139.069219 
L 86.95137 -141.01751 
L 86.328929 -142.9658 
L 85.648293 -144.914091 
L 84.912278 -146.862381 
L 84.124879 -148.810672 
L 83.291264 -150.758962 
L 82.417754 -152.707253 
L 81.511791 -154.655543 
L 80.581884 -156.603834 
L 79.637531 -158.552124 
L 78.689124 -160.500415 
L 77.747827 -162.448705 
L 76.825423 -164.396996 
L 75.934145 -166.345286 
L 75.08647 -168.293577 
L 74.294897 -170.241867 
L 73.571707 -172.190158 
L 72.928699 -174.138449 
L 72.376932 -176.086739 
L 71.926456 -178.03503 
L 71.586058 -179.98332 
L 71.363029 -181.931611 
L 71.262949 -183.879901 
L 71.289526 -185.828192 
L 71.444457 -187.776482 
L 71.727366 -189.724773 
L 72.135774 -191.673063 
L 72.665143 -193.621354 
L 73.308972 -195.569644 
L 74.058946 -197.517935 
L 74.90514 -199.466225 
L 75.836261 -201.414516 
L 76.83993 -203.362806 
L 77.902982 -205.311097 
L 79.011787 -207.259387 
L 80.152562 -209.207678 
L 81.311685 -211.155968 
L 82.475988 -213.104259 
L 83.63301 -215.052549 
L 84.771236 -217.00084 
L 85.880275 -218.94913 
L 86.951005 -220.897421 
L 87.975672 -222.845711 
L 88.947938 -224.794002 
L 89.86289 -226.742292 
L 90.71701 -228.690583 
L 91.508108 -230.638873 
L 92.235224 -232.587164 
L 92.898515 -234.535454 
L 93.499119 -236.483745 
L 94.039008 -238.432035 
L 94.520842 -240.380326 
L 94.947822 -242.328616 
L 95.323545 -244.276907 
L 95.651878 -246.225197 
L 95.936828 -248.173488 
L 98.864411 -248.173488 
L 98.864411 -248.173488 
L 99.149362 -246.225197 
L 99.477694 -244.276907 
L 99.853418 -242.328616 
L 100.280397 -240.380326 
L 100.762231 -238.432035 
L 101.30212 -236.483745 
L 101.902724 -234.535454 
L 102.566015 -232.587164 
L 103.293131 -230.638873 
L 104.084229 -228.690583 
L 104.938349 -226.742292 
L 105.853301 -224.794002 
L 106.825567 -222.845711 
L 107.850234 -220.897421 
L 108.920965 -218.94913 
L 110.030003 -217.00084 
L 111.168229 -215.052549 
L 112.325252 -213.104259 
L 113.489554 -211.155968 
L 114.648678 -209.207678 
L 115.789452 -207.259387 
L 116.898257 -205.311097 
L 117.961309 -203.362806 
L 118.964978 -201.414516 
L 119.896099 -199.466225 
L 120.742293 -197.517935 
L 121.492267 -195.569644 
L 122.136096 -193.621354 
L 122.665466 -191.673063 
L 123.073873 -189.724773 
L 123.356782 -187.776482 
L 123.511714 -185.828192 
L 123.53829 -183.879901 
L 123.438211 -181.931611 
L 123.215181 -179.98332 
L 122.874783 -178.03503 
L 122.424307 -176.086739 
L 121.87254 -174.138449 
L 121.229532 -172.190158 
L 120.506342 -170.241867 
L 119.714769 -168.293577 
L 118.867094 -166.345286 
L 117.975816 -164.396996 
L 117.053412 -162.448705 
L 116.112115 -160.500415 
L 115.163708 -158.552124 
L 114.219355 -156.603834 
L 113.289448 -154.655543 
L 112.383485 -152.707253 
L 111.509975 -150.758962 
L 110.67636 -148.810672 
L 109.888961 -146.862381 
L 109.152946 -144.914091 
L 108.47231 -142.9658 
L 107.84987 -141.01751 
L 107.287279 -139.069219 
L 106.785051 -137.120929 
L 106.342601 -135.172638 
L 105.958293 -133.224348 
L 105.629512 -131.276057 
L 105.352745 -129.327767 
L 105.123677 -127.379476 
L 104.937303 -125.431186 
L 104.788049 -123.482895 
L 104.669917 -121.534605 
L 104.576622 -119.586314 
L 104.501754 -117.638024 
L 104.438926 -115.689733 
L 104.381933 -113.741443 
L 104.324899 -111.793152 
L 104.262415 -109.844862 
L 104.189659 -107.896571 
L 104.102502 -105.948281 
L 103.997585 -103.99999 
L 103.872377 -102.0517 
L 103.725199 -100.103409 
L 103.55523 -98.155119 
L 103.362475 -96.206828 
L 103.147716 -94.258538 
L 102.912442 -92.310247 
L 102.658751 -90.361956 
L 102.389251 -88.413666 
L 102.106939 -86.465375 
L 101.815083 -84.517085 
L 101.517102 -82.568794 
L 101.21645 -80.620504 
L 100.916507 -78.672213 
L 100.620485 -76.723923 
L 100.331349 -74.775632 
L 100.051747 -72.827342 
L 99.783966 -70.879051 
L 99.529899 -68.930761 
L 99.291032 -66.98247 
L 99.068442 -65.03418 
L 98.862814 -63.085889 
L 98.674464 -61.137599 
L 98.503373 -59.189308 
L 98.349228 -57.241018 
L 98.211465 -55.292727 
z
" style="stroke: #3f3f3f; stroke-width: 1.25"/>
    </defs>
    <g clip-path="url(#p049a2526e3)">
     <use xlink:href="#m68edb48f14" x="0" y="360" style="fill: #3274a1; stroke: #3f3f3f; stroke-width: 1.25"/>
    </g>
   </g>
   <g id="PolyCollection_2">
    <defs>
     <path id="m899315346d" d="M 164.577288 -84.658831 
L 160.861504 -84.658831 
L 160.571622 -86.81253 
L 160.248814 -88.966229 
L 159.891566 -91.119928 
L 159.498687 -93.273627 
L 159.06938 -95.427326 
L 158.60331 -97.581025 
L 158.100674 -99.734724 
L 157.562259 -101.888423 
L 156.989496 -104.042122 
L 156.384505 -106.195821 
L 155.750117 -108.34952 
L 155.089888 -110.503219 
L 154.408093 -112.656918 
L 153.709696 -114.810617 
L 153.000302 -116.964316 
L 152.286087 -119.118015 
L 151.573703 -121.271714 
L 150.870164 -123.425413 
L 150.182715 -125.579112 
L 149.518684 -127.732811 
L 148.885319 -129.88651 
L 148.289618 -132.040209 
L 147.738159 -134.193908 
L 147.236925 -136.347607 
L 146.791145 -138.501306 
L 146.405136 -140.655005 
L 146.082175 -142.808704 
L 145.824388 -144.962403 
L 145.632664 -147.116102 
L 145.506609 -149.269801 
L 145.444523 -151.4235 
L 145.443422 -153.577199 
L 145.499089 -155.730898 
L 145.606162 -157.884597 
L 145.75826 -160.038296 
L 145.948132 -162.191995 
L 146.167837 -164.345694 
L 146.408946 -166.499393 
L 146.662752 -168.653092 
L 146.920503 -170.806791 
L 147.173623 -172.96049 
L 147.413941 -175.114189 
L 147.633902 -177.267888 
L 147.826766 -179.421587 
L 147.986783 -181.575286 
L 148.109342 -183.728985 
L 148.191086 -185.882684 
L 148.229996 -188.036383 
L 148.225435 -190.190082 
L 148.178159 -192.343781 
L 148.090286 -194.49748 
L 147.965228 -196.651179 
L 147.807598 -198.804878 
L 147.623069 -200.958577 
L 147.418228 -203.112276 
L 147.200387 -205.265975 
L 146.97739 -207.419674 
L 146.757404 -209.573373 
L 146.548708 -211.727072 
L 146.359478 -213.880771 
L 146.197584 -216.03447 
L 146.070394 -218.188169 
L 145.9846 -220.341868 
L 145.946061 -222.495567 
L 145.959678 -224.649266 
L 146.029289 -226.802965 
L 146.157601 -228.956664 
L 146.346153 -231.110363 
L 146.595301 -233.264062 
L 146.90425 -235.417761 
L 147.271098 -237.57146 
L 147.692913 -239.725159 
L 148.16584 -241.878858 
L 148.68521 -244.032557 
L 149.245679 -246.186256 
L 149.841371 -248.339955 
L 150.466024 -250.493654 
L 151.113143 -252.647353 
L 151.776144 -254.801052 
L 152.448496 -256.954751 
L 153.123848 -259.10845 
L 153.796149 -261.262149 
L 154.459744 -263.415848 
L 155.109457 -265.569547 
L 155.740663 -267.723246 
L 156.349326 -269.876945 
L 156.932033 -272.030644 
L 157.486004 -274.184343 
L 158.009089 -276.338042 
L 158.499747 -278.491741 
L 158.957018 -280.64544 
L 159.380477 -282.799139 
L 159.770193 -284.952838 
L 160.126666 -287.106537 
L 160.450773 -289.260236 
L 160.74371 -291.413935 
L 161.006926 -293.567634 
L 161.242071 -295.721333 
L 161.45094 -297.875032 
L 163.987851 -297.875032 
L 163.987851 -297.875032 
L 164.19672 -295.721333 
L 164.431866 -293.567634 
L 164.695082 -291.413935 
L 164.988018 -289.260236 
L 165.312126 -287.106537 
L 165.668599 -284.952838 
L 166.058314 -282.799139 
L 166.481774 -280.64544 
L 166.939044 -278.491741 
L 167.429702 -276.338042 
L 167.952787 -274.184343 
L 168.506758 -272.030644 
L 169.089465 -269.876945 
L 169.698128 -267.723246 
L 170.329334 -265.569547 
L 170.979048 -263.415848 
L 171.642642 -261.262149 
L 172.314943 -259.10845 
L 172.990296 -256.954751 
L 173.662647 -254.801052 
L 174.325648 -252.647353 
L 174.972767 -250.493654 
L 175.59742 -248.339955 
L 176.193112 -246.186256 
L 176.753582 -244.032557 
L 177.272952 -241.878858 
L 177.745878 -239.725159 
L 178.167694 -237.57146 
L 178.534541 -235.417761 
L 178.84349 -233.264062 
L 179.092639 -231.110363 
L 179.28119 -228.956664 
L 179.409503 -226.802965 
L 179.479114 -224.649266 
L 179.49273 -222.495567 
L 179.454191 -220.341868 
L 179.368397 -218.188169 
L 179.241207 -216.03447 
L 179.079313 -213.880771 
L 178.890083 -211.727072 
L 178.681387 -209.573373 
L 178.461402 -207.419674 
L 178.238404 -205.265975 
L 178.020563 -203.112276 
L 177.815722 -200.958577 
L 177.631194 -198.804878 
L 177.473563 -196.651179 
L 177.348506 -194.49748 
L 177.260632 -192.343781 
L 177.213356 -190.190082 
L 177.208795 -188.036383 
L 177.247705 -185.882684 
L 177.329449 -183.728985 
L 177.452008 -181.575286 
L 177.612026 -179.421587 
L 177.80489 -177.267888 
L 178.02485 -175.114189 
L 178.265168 -172.96049 
L 178.518288 -170.806791 
L 178.776039 -168.653092 
L 179.029846 -166.499393 
L 179.270954 -164.345694 
L 179.49066 -162.191995 
L 179.680532 -160.038296 
L 179.83263 -157.884597 
L 179.939703 -155.730898 
L 179.995369 -153.577199 
L 179.994268 -151.4235 
L 179.932182 -149.269801 
L 179.806127 -147.116102 
L 179.614404 -144.962403 
L 179.356616 -142.808704 
L 179.033656 -140.655005 
L 178.647647 -138.501306 
L 178.201866 -136.347607 
L 177.700633 -134.193908 
L 177.149174 -132.040209 
L 176.553473 -129.88651 
L 175.920107 -127.732811 
L 175.256076 -125.579112 
L 174.568628 -123.425413 
L 173.865088 -121.271714 
L 173.152704 -119.118015 
L 172.438489 -116.964316 
L 171.729096 -114.810617 
L 171.030699 -112.656918 
L 170.348903 -110.503219 
L 169.688674 -108.34952 
L 169.054286 -106.195821 
L 168.449295 -104.042122 
L 167.876533 -101.888423 
L 167.338117 -99.734724 
L 166.835481 -97.581025 
L 166.369411 -95.427326 
L 165.940104 -93.273627 
L 165.547225 -91.119928 
L 165.189978 -88.966229 
L 164.86717 -86.81253 
L 164.577288 -84.658831 
z
" style="stroke: #3f3f3f; stroke-width: 1.25"/>
    </defs>
    <g clip-path="url(#p049a2526e3)">
     <use xlink:href="#m899315346d" x="0" y="360" style="fill: #e1812c; stroke: #3f3f3f; stroke-width: 1.25"/>
    </g>
   </g>
   <g id="PolyCollection_3">
    <defs>
     <path id="m4043cc85ea" d="M 262.689475 -175.025207 
L 258.705644 -175.025207 
L 258.296528 -176.509268 
L 257.823178 -177.99333 
L 257.279967 -179.477391 
L 256.661698 -180.961452 
L 255.963823 -182.445513 
L 255.182674 -183.929575 
L 254.3157 -185.413636 
L 253.361695 -186.897697 
L 252.321013 -188.381758 
L 251.195758 -189.86582 
L 249.989933 -191.349881 
L 248.70954 -192.833942 
L 247.362623 -194.318004 
L 245.959246 -195.802065 
L 244.511398 -197.286126 
L 243.032827 -198.770187 
L 241.538808 -200.254249 
L 240.045838 -201.73831 
L 238.571282 -203.222371 
L 237.132978 -204.706432 
L 235.748802 -206.190494 
L 234.436233 -207.674555 
L 233.211922 -209.158616 
L 232.091274 -210.642678 
L 231.088082 -212.126739 
L 230.214204 -213.6108 
L 229.47931 -215.094861 
L 228.890698 -216.578923 
L 228.453183 -218.062984 
L 228.169067 -219.547045 
L 228.038172 -221.031106 
L 228.057945 -222.515168 
L 228.223612 -223.999229 
L 228.52838 -225.48329 
L 228.963665 -226.967351 
L 229.51935 -228.451413 
L 230.184047 -229.935474 
L 230.945356 -231.419535 
L 231.790134 -232.903597 
L 232.704733 -234.387658 
L 233.675239 -235.871719 
L 234.687696 -237.35578 
L 235.728302 -238.839842 
L 236.783611 -240.323903 
L 237.840708 -241.807964 
L 238.88738 -243.292025 
L 239.912277 -244.776087 
L 240.905055 -246.260148 
L 241.856521 -247.744209 
L 242.758745 -249.228271 
L 243.605169 -250.712332 
L 244.390684 -252.196393 
L 245.111689 -253.680454 
L 245.766109 -255.164516 
L 246.353394 -256.648577 
L 246.874472 -258.132638 
L 247.331677 -259.616699 
L 247.728633 -261.100761 
L 248.070117 -262.584822 
L 248.361892 -264.068883 
L 248.610516 -265.552944 
L 248.823138 -267.037006 
L 249.00729 -268.521067 
L 249.170667 -270.005128 
L 249.320922 -271.48919 
L 249.465468 -272.973251 
L 249.611292 -274.457312 
L 249.764803 -275.941373 
L 249.931684 -277.425435 
L 250.116793 -278.909496 
L 250.324073 -280.393557 
L 250.556502 -281.877618 
L 250.816069 -283.36168 
L 251.103774 -284.845741 
L 251.419656 -286.329802 
L 251.762849 -287.813864 
L 252.13165 -289.297925 
L 252.523615 -290.781986 
L 252.935664 -292.266047 
L 253.364197 -293.750109 
L 253.805225 -295.23417 
L 254.254499 -296.718231 
L 254.707637 -298.202292 
L 255.160254 -299.686354 
L 255.60808 -301.170415 
L 256.047068 -302.654476 
L 256.47349 -304.138537 
L 256.88401 -305.622599 
L 257.275752 -307.10666 
L 257.646336 -308.590721 
L 257.993905 -310.074783 
L 258.317126 -311.558844 
L 258.615184 -313.042905 
L 258.88775 -314.526966 
L 259.134945 -316.011028 
L 259.357291 -317.495089 
L 259.555653 -318.97915 
L 259.731182 -320.463211 
L 259.88525 -321.947273 
L 261.50987 -321.947273 
L 261.50987 -321.947273 
L 261.663938 -320.463211 
L 261.839467 -318.97915 
L 262.037829 -317.495089 
L 262.260174 -316.011028 
L 262.50737 -314.526966 
L 262.779936 -313.042905 
L 263.077993 -311.558844 
L 263.401215 -310.074783 
L 263.748783 -308.590721 
L 264.119368 -307.10666 
L 264.51111 -305.622599 
L 264.92163 -304.138537 
L 265.348051 -302.654476 
L 265.78704 -301.170415 
L 266.234866 -299.686354 
L 266.687483 -298.202292 
L 267.140621 -296.718231 
L 267.589894 -295.23417 
L 268.030923 -293.750109 
L 268.459456 -292.266047 
L 268.871504 -290.781986 
L 269.26347 -289.297925 
L 269.632271 -287.813864 
L 269.975464 -286.329802 
L 270.291346 -284.845741 
L 270.579051 -283.36168 
L 270.838617 -281.877618 
L 271.071047 -280.393557 
L 271.278327 -278.909496 
L 271.463435 -277.425435 
L 271.630317 -275.941373 
L 271.783827 -274.457312 
L 271.929652 -272.973251 
L 272.074198 -271.48919 
L 272.224453 -270.005128 
L 272.38783 -268.521067 
L 272.571982 -267.037006 
L 272.784604 -265.552944 
L 273.033228 -264.068883 
L 273.325003 -262.584822 
L 273.666487 -261.100761 
L 274.063443 -259.616699 
L 274.520647 -258.132638 
L 275.041726 -256.648577 
L 275.629011 -255.164516 
L 276.283431 -253.680454 
L 277.004435 -252.196393 
L 277.789951 -250.712332 
L 278.636375 -249.228271 
L 279.538599 -247.744209 
L 280.490064 -246.260148 
L 281.482843 -244.776087 
L 282.507739 -243.292025 
L 283.554412 -241.807964 
L 284.611509 -240.323903 
L 285.666818 -238.839842 
L 286.707424 -237.35578 
L 287.71988 -235.871719 
L 288.690387 -234.387658 
L 289.604986 -232.903597 
L 290.449763 -231.419535 
L 291.211073 -229.935474 
L 291.875769 -228.451413 
L 292.431455 -226.967351 
L 292.86674 -225.48329 
L 293.171507 -223.999229 
L 293.337175 -222.515168 
L 293.356948 -221.031106 
L 293.226053 -219.547045 
L 292.941937 -218.062984 
L 292.504422 -216.578923 
L 291.91581 -215.094861 
L 291.180916 -213.6108 
L 290.307038 -212.126739 
L 289.303846 -210.642678 
L 288.183198 -209.158616 
L 286.958886 -207.674555 
L 285.646318 -206.190494 
L 284.262142 -204.706432 
L 282.823837 -203.222371 
L 281.349282 -201.73831 
L 279.856312 -200.254249 
L 278.362293 -198.770187 
L 276.883722 -197.286126 
L 275.435874 -195.802065 
L 274.032497 -194.318004 
L 272.68558 -192.833942 
L 271.405187 -191.349881 
L 270.199362 -189.86582 
L 269.074107 -188.381758 
L 268.033425 -186.897697 
L 267.079419 -185.413636 
L 266.212445 -183.929575 
L 265.431297 -182.445513 
L 264.733422 -180.961452 
L 264.115152 -179.477391 
L 263.571942 -177.99333 
L 263.098592 -176.509268 
L 262.689475 -175.025207 
z
" style="stroke: #3f3f3f; stroke-width: 1.25"/>
    </defs>
    <g clip-path="url(#p049a2526e3)">
     <use xlink:href="#m4043cc85ea" x="0" y="360" style="fill: #3274a1; stroke: #3f3f3f; stroke-width: 1.25"/>
    </g>
   </g>
   <g id="PolyCollection_4">
    <defs>
     <path id="mc7c5235236" d="M 326.907525 -95.162435 
L 325.125147 -95.162435 
L 324.929144 -97.06327 
L 324.701076 -98.964105 
L 324.438297 -100.864939 
L 324.138496 -102.765774 
L 323.799814 -104.666609 
L 323.42096 -106.567444 
L 323.001311 -108.468279 
L 322.541001 -110.369114 
L 322.040971 -112.269949 
L 321.502987 -114.170784 
L 320.929616 -116.071619 
L 320.324158 -117.972454 
L 319.690516 -119.873289 
L 319.033038 -121.774124 
L 318.356303 -123.674958 
L 317.664874 -125.575793 
L 316.963039 -127.476628 
L 316.254536 -129.377463 
L 315.542297 -131.278298 
L 314.828212 -133.179133 
L 314.112958 -135.079968 
L 313.395878 -136.980803 
L 312.674958 -138.881638 
L 311.946891 -140.782473 
L 311.207237 -142.683308 
L 310.450698 -144.584143 
L 309.671475 -146.484977 
L 308.86371 -148.385812 
L 308.021995 -150.286647 
L 307.141911 -152.187482 
L 306.220578 -154.088317 
L 305.257173 -155.989152 
L 304.253392 -157.889987 
L 303.213821 -159.790822 
L 302.146174 -161.691657 
L 301.06139 -163.592492 
L 299.973569 -165.493327 
L 298.89973 -167.394162 
L 297.859394 -169.294996 
L 296.874018 -171.195831 
L 295.966279 -173.096666 
L 295.159254 -174.997501 
L 294.475525 -176.898336 
L 293.936257 -178.799171 
L 293.560284 -180.700006 
L 293.363267 -182.600841 
L 293.356948 -184.501676 
L 293.548549 -186.402511 
L 293.940355 -188.303346 
L 294.529485 -190.204181 
L 295.307884 -192.105015 
L 296.262529 -194.00585 
L 297.375835 -195.906685 
L 298.626253 -197.80752 
L 299.989028 -199.708355 
L 301.437069 -201.60919 
L 302.941914 -203.510025 
L 304.474719 -205.41086 
L 306.00724 -207.311695 
L 307.512769 -209.21253 
L 308.966968 -211.113365 
L 310.348588 -213.0142 
L 311.640021 -214.915034 
L 312.827701 -216.815869 
L 313.902312 -218.716704 
L 314.858822 -220.617539 
L 315.696344 -222.518374 
L 316.41785 -224.419209 
L 317.029733 -226.320044 
L 317.541283 -228.220879 
L 317.964066 -230.121714 
L 318.311268 -232.022549 
L 318.59702 -233.923384 
L 318.835738 -235.824219 
L 319.041509 -237.725053 
L 319.227543 -239.625888 
L 319.405709 -241.526723 
L 319.58618 -243.427558 
L 319.77718 -245.328393 
L 319.984846 -247.229228 
L 320.213202 -249.130063 
L 320.464226 -251.030898 
L 320.738015 -252.931733 
L 321.033012 -254.832568 
L 321.34629 -256.733403 
L 321.673873 -258.634238 
L 322.011061 -260.535072 
L 322.352758 -262.435907 
L 322.693773 -264.336742 
L 323.02909 -266.237577 
L 323.354093 -268.138412 
L 323.664735 -270.039247 
L 323.957662 -271.940082 
L 324.230279 -273.840917 
L 324.480774 -275.741752 
L 324.708092 -277.642587 
L 324.911881 -279.543422 
L 325.092412 -281.444256 
L 325.250482 -283.345091 
L 326.78219 -283.345091 
L 326.78219 -283.345091 
L 326.94026 -281.444256 
L 327.120791 -279.543422 
L 327.32458 -277.642587 
L 327.551897 -275.741752 
L 327.802393 -273.840917 
L 328.07501 -271.940082 
L 328.367937 -270.039247 
L 328.678579 -268.138412 
L 329.003582 -266.237577 
L 329.338899 -264.336742 
L 329.679914 -262.435907 
L 330.021611 -260.535072 
L 330.358799 -258.634238 
L 330.686382 -256.733403 
L 330.99966 -254.832568 
L 331.294657 -252.931733 
L 331.568445 -251.030898 
L 331.81947 -249.130063 
L 332.047825 -247.229228 
L 332.255492 -245.328393 
L 332.446492 -243.427558 
L 332.626963 -241.526723 
L 332.805129 -239.625888 
L 332.991163 -237.725053 
L 333.196934 -235.824219 
L 333.435652 -233.923384 
L 333.721404 -232.022549 
L 334.068606 -230.121714 
L 334.491389 -228.220879 
L 335.002939 -226.320044 
L 335.614822 -224.419209 
L 336.336327 -222.518374 
L 337.17385 -220.617539 
L 338.130359 -218.716704 
L 339.20497 -216.815869 
L 340.392651 -214.915034 
L 341.684084 -213.0142 
L 343.065704 -211.113365 
L 344.519903 -209.21253 
L 346.025432 -207.311695 
L 347.557953 -205.41086 
L 349.090757 -203.510025 
L 350.595603 -201.60919 
L 352.043644 -199.708355 
L 353.406419 -197.80752 
L 354.656837 -195.906685 
L 355.770143 -194.00585 
L 356.724788 -192.105015 
L 357.503187 -190.204181 
L 358.092317 -188.303346 
L 358.484123 -186.402511 
L 358.675724 -184.501676 
L 358.669405 -182.600841 
L 358.472388 -180.700006 
L 358.096415 -178.799171 
L 357.557147 -176.898336 
L 356.873418 -174.997501 
L 356.066393 -173.096666 
L 355.158654 -171.195831 
L 354.173278 -169.294996 
L 353.132942 -167.394162 
L 352.059103 -165.493327 
L 350.971282 -163.592492 
L 349.886498 -161.691657 
L 348.818851 -159.790822 
L 347.779279 -157.889987 
L 346.775499 -155.989152 
L 345.812094 -154.088317 
L 344.89076 -152.187482 
L 344.010677 -150.286647 
L 343.168962 -148.385812 
L 342.361197 -146.484977 
L 341.581974 -144.584143 
L 340.825435 -142.683308 
L 340.085781 -140.782473 
L 339.357714 -138.881638 
L 338.636794 -136.980803 
L 337.919714 -135.079968 
L 337.20446 -133.179133 
L 336.490375 -131.278298 
L 335.778135 -129.377463 
L 335.069633 -127.476628 
L 334.367798 -125.575793 
L 333.676369 -123.674958 
L 332.999633 -121.774124 
L 332.342156 -119.873289 
L 331.708514 -117.972454 
L 331.103055 -116.071619 
L 330.529685 -114.170784 
L 329.991701 -112.269949 
L 329.491671 -110.369114 
L 329.031361 -108.468279 
L 328.611712 -106.567444 
L 328.232858 -104.666609 
L 327.894176 -102.765774 
L 327.594375 -100.864939 
L 327.331596 -98.964105 
L 327.103527 -97.06327 
L 326.907525 -95.162435 
z
" style="stroke: #3f3f3f; stroke-width: 1.25"/>
    </defs>
    <g clip-path="url(#p049a2526e3)">
     <use xlink:href="#mc7c5235236" x="0" y="360" style="fill: #e1812c; stroke: #3f3f3f; stroke-width: 1.25"/>
    </g>
   </g>
   <g id="line2d_7">
    <path d="M 97.40062 202.553763 
L 97.40062 160.566253 
" clip-path="url(#p049a2526e3)" style="fill: none; stroke: #3f3f3f; stroke-width: 1.875; stroke-linecap: round"/>
   </g>
   <g id="line2d_8">
    <path d="M 97.40062 195.818234 
L 97.40062 173.694721 
" clip-path="url(#p049a2526e3)" style="fill: none; stroke: #3f3f3f; stroke-width: 5.625; stroke-linecap: round"/>
   </g>
   <g id="line2d_9">
    <path d="M 97.40062 175.462193 
" clip-path="url(#p049a2526e3)" style="fill: none; stroke: #3f3f3f; stroke-width: 1.5; stroke-linecap: round"/>
    <defs>
     <path id="mc258f5e073" d="M 2.34375 0 
L -2.34375 -0 
" style="stroke: #ffffff; stroke-width: 1.125"/>
    </defs>
    <g clip-path="url(#p049a2526e3)">
     <use xlink:href="#mc258f5e073" x="97.40062" y="175.462193" style="fill: #ffffff; stroke: #ffffff; stroke-width: 1.125"/>
    </g>
   </g>
   <g id="line2d_10">
    <path d="M 162.719396 214.465448 
L 162.719396 123.00069 
" clip-path="url(#p049a2526e3)" style="fill: none; stroke: #3f3f3f; stroke-width: 1.875; stroke-linecap: round"/>
   </g>
   <g id="line2d_11">
    <path d="M 162.719396 210.788057 
L 162.719396 136.091926 
" clip-path="url(#p049a2526e3)" style="fill: none; stroke: #3f3f3f; stroke-width: 5.625; stroke-linecap: round"/>
   </g>
   <g id="line2d_12">
    <path d="M 162.719396 174.67816 
" clip-path="url(#p049a2526e3)" style="fill: none; stroke: #3f3f3f; stroke-width: 1.5; stroke-linecap: round"/>
    <g clip-path="url(#p049a2526e3)">
     <use xlink:href="#mc258f5e073" x="162.719396" y="174.67816" style="fill: #ffffff; stroke: #ffffff; stroke-width: 1.125"/>
    </g>
   </g>
   <g id="line2d_13">
    <path d="M 260.69756 150.283705 
L 260.69756 90.9494 
" clip-path="url(#p049a2526e3)" style="fill: none; stroke: #3f3f3f; stroke-width: 1.875; stroke-linecap: round"/>
   </g>
   <g id="line2d_14">
    <path d="M 260.69756 145.39464 
L 260.69756 120.498566 
" clip-path="url(#p049a2526e3)" style="fill: none; stroke: #3f3f3f; stroke-width: 5.625; stroke-linecap: round"/>
   </g>
   <g id="line2d_15">
    <path d="M 260.69756 133.351245 
" clip-path="url(#p049a2526e3)" style="fill: none; stroke: #3f3f3f; stroke-width: 1.5; stroke-linecap: round"/>
    <g clip-path="url(#p049a2526e3)">
     <use xlink:href="#mc258f5e073" x="260.69756" y="133.351245" style="fill: #ffffff; stroke: #ffffff; stroke-width: 1.125"/>
    </g>
   </g>
   <g id="line2d_16">
    <path d="M 326.016336 210.011854 
L 326.016336 165.662708 
" clip-path="url(#p049a2526e3)" style="fill: none; stroke: #3f3f3f; stroke-width: 1.875; stroke-linecap: round"/>
   </g>
   <g id="line2d_17">
    <path d="M 326.016336 187.031652 
L 326.016336 166.062201 
" clip-path="url(#p049a2526e3)" style="fill: none; stroke: #3f3f3f; stroke-width: 5.625; stroke-linecap: round"/>
   </g>
   <g id="line2d_18">
    <path d="M 326.016336 178.519529 
" clip-path="url(#p049a2526e3)" style="fill: none; stroke: #3f3f3f; stroke-width: 1.5; stroke-linecap: round"/>
    <g clip-path="url(#p049a2526e3)">
     <use xlink:href="#mc258f5e073" x="326.016336" y="178.519529" style="fill: #ffffff; stroke: #ffffff; stroke-width: 1.125"/>
    </g>
   </g>
   <g id="patch_3">
    <path d="M 48.411538 318.04 
L 48.411538 24.72 
" style="fill: none; stroke: #cccccc; stroke-width: 0.8; stroke-linejoin: miter; stroke-linecap: square"/>
   </g>
   <g id="patch_4">
    <path d="M 48.411538 318.04 
L 375.005418 318.04 
" style="fill: none; stroke: #cccccc; stroke-width: 0.8; stroke-linejoin: miter; stroke-linecap: square"/>
   </g>
   <g id="text_11">
    <!-- sex = f -->
    <g style="fill: #262626" transform="translate(196.840509 18.72) scale(0.1 -0.1)">
     <defs>
      <path id="ArialMT-73" d="M 197 991 
L 753 1078 
Q 800 744 1014 566 
Q 1228 388 1613 388 
Q 2000 388 2187 545 
Q 2375 703 2375 916 
Q 2375 1106 2209 1216 
Q 2094 1291 1634 1406 
Q 1016 1563 777 1677 
Q 538 1791 414 1992 
Q 291 2194 291 2438 
Q 291 2659 392 2848 
Q 494 3038 669 3163 
Q 800 3259 1026 3326 
Q 1253 3394 1513 3394 
Q 1903 3394 2198 3281 
Q 2494 3169 2634 2976 
Q 2775 2784 2828 2463 
L 2278 2388 
Q 2241 2644 2061 2787 
Q 1881 2931 1553 2931 
Q 1166 2931 1000 2803 
Q 834 2675 834 2503 
Q 834 2394 903 2306 
Q 972 2216 1119 2156 
Q 1203 2125 1616 2013 
Q 2213 1853 2448 1751 
Q 2684 1650 2818 1456 
Q 2953 1263 2953 975 
Q 2953 694 2789 445 
Q 2625 197 2315 61 
Q 2006 -75 1616 -75 
Q 969 -75 630 194 
Q 291 463 197 991 
z
" transform="scale(0.015625)"/>
      <path id="ArialMT-78" d="M 47 0 
L 1259 1725 
L 138 3319 
L 841 3319 
L 1350 2541 
Q 1494 2319 1581 2169 
Q 1719 2375 1834 2534 
L 2394 3319 
L 3066 3319 
L 1919 1756 
L 3153 0 
L 2463 0 
L 1781 1031 
L 1600 1309 
L 728 0 
L 47 0 
z
" transform="scale(0.015625)"/>
      <path id="ArialMT-20" transform="scale(0.015625)"/>
      <path id="ArialMT-3d" d="M 3381 2694 
L 356 2694 
L 356 3219 
L 3381 3219 
L 3381 2694 
z
M 3381 1303 
L 356 1303 
L 356 1828 
L 3381 1828 
L 3381 1303 
z
" transform="scale(0.015625)"/>
      <path id="ArialMT-66" d="M 556 0 
L 556 2881 
L 59 2881 
L 59 3319 
L 556 3319 
L 556 3672 
Q 556 4006 616 4169 
Q 697 4388 901 4523 
Q 1106 4659 1475 4659 
Q 1713 4659 2000 4603 
L 1916 4113 
Q 1741 4144 1584 4144 
Q 1328 4144 1222 4034 
Q 1116 3925 1116 3625 
L 1116 3319 
L 1763 3319 
L 1763 2881 
L 1116 2881 
L 1116 0 
L 556 0 
z
" transform="scale(0.015625)"/>
     </defs>
     <use xlink:href="#ArialMT-73"/>
     <use xlink:href="#ArialMT-65" x="50"/>
     <use xlink:href="#ArialMT-78" x="105.615234"/>
     <use xlink:href="#ArialMT-20" x="155.615234"/>
     <use xlink:href="#ArialMT-3d" x="183.398438"/>
     <use xlink:href="#ArialMT-20" x="241.796875"/>
     <use xlink:href="#ArialMT-66" x="269.580078"/>
    </g>
   </g>
  </g>
  <g id="axes_2">
   <g id="patch_5">
    <path d="M 385.817319 318.04 
L 712.4112 318.04 
L 712.4112 24.72 
L 385.817319 24.72 
z
" style="fill: #ffffff"/>
   </g>
   <g id="matplotlib.axis_3">
    <g id="xtick_3">
     <g id="text_12">
      <!-- Baia -->
      <g style="fill: #262626" transform="translate(457.458758 332.197812) scale(0.1 -0.1)">
       <use xlink:href="#ArialMT-42"/>
       <use xlink:href="#ArialMT-61" x="66.699219"/>
       <use xlink:href="#ArialMT-69" x="122.314453"/>
       <use xlink:href="#ArialMT-61" x="144.53125"/>
      </g>
     </g>
    </g>
    <g id="xtick_4">
     <g id="text_13">
      <!-- Jurilovca -->
      <g style="fill: #262626" transform="translate(611.034605 332.197812) scale(0.1 -0.1)">
       <use xlink:href="#ArialMT-4a"/>
       <use xlink:href="#ArialMT-75" x="50"/>
       <use xlink:href="#ArialMT-72" x="105.615234"/>
       <use xlink:href="#ArialMT-69" x="138.916016"/>
       <use xlink:href="#ArialMT-6c" x="161.132812"/>
       <use xlink:href="#ArialMT-6f" x="183.349609"/>
       <use xlink:href="#ArialMT-76" x="238.964844"/>
       <use xlink:href="#ArialMT-63" x="288.964844"/>
       <use xlink:href="#ArialMT-61" x="338.964844"/>
      </g>
     </g>
    </g>
    <g id="text_14">
     <!-- location -->
     <g style="fill: #262626" transform="translate(531.881447 345.343125) scale(0.1 -0.1)">
      <use xlink:href="#ArialMT-6c"/>
      <use xlink:href="#ArialMT-6f" x="22.216797"/>
      <use xlink:href="#ArialMT-63" x="77.832031"/>
      <use xlink:href="#ArialMT-61" x="127.832031"/>
      <use xlink:href="#ArialMT-74" x="183.447266"/>
      <use xlink:href="#ArialMT-69" x="211.230469"/>
      <use xlink:href="#ArialMT-6f" x="233.447266"/>
      <use xlink:href="#ArialMT-6e" x="289.0625"/>
     </g>
    </g>
   </g>
   <g id="matplotlib.axis_4">
    <g id="ytick_7">
     <g id="line2d_19">
      <path d="M 385.817319 272.882129 
L 712.4112 272.882129 
" clip-path="url(#p897cf62288)" style="fill: none; stroke: #cccccc; stroke-width: 0.8; stroke-linecap: round"/>
     </g>
    </g>
    <g id="ytick_8">
     <g id="line2d_20">
      <path d="M 385.817319 225.783737 
L 712.4112 225.783737 
" clip-path="url(#p897cf62288)" style="fill: none; stroke: #cccccc; stroke-width: 0.8; stroke-linecap: round"/>
     </g>
    </g>
    <g id="ytick_9">
     <g id="line2d_21">
      <path d="M 385.817319 178.685345 
L 712.4112 178.685345 
" clip-path="url(#p897cf62288)" style="fill: none; stroke: #cccccc; stroke-width: 0.8; stroke-linecap: round"/>
     </g>
    </g>
    <g id="ytick_10">
     <g id="line2d_22">
      <path d="M 385.817319 131.586953 
L 712.4112 131.586953 
" clip-path="url(#p897cf62288)" style="fill: none; stroke: #cccccc; stroke-width: 0.8; stroke-linecap: round"/>
     </g>
    </g>
    <g id="ytick_11">
     <g id="line2d_23">
      <path d="M 385.817319 84.488561 
L 712.4112 84.488561 
" clip-path="url(#p897cf62288)" style="fill: none; stroke: #cccccc; stroke-width: 0.8; stroke-linecap: round"/>
     </g>
    </g>
    <g id="ytick_12">
     <g id="line2d_24">
      <path d="M 385.817319 37.390169 
L 712.4112 37.390169 
" clip-path="url(#p897cf62288)" style="fill: none; stroke: #cccccc; stroke-width: 0.8; stroke-linecap: round"/>
     </g>
    </g>
   </g>
   <g id="PolyCollection_5">
    <defs>
     <path id="m603db679c4" d="M 435.417472 -111.05236 
L 434.195331 -111.05236 
L 434.057786 -112.809488 
L 433.896604 -114.566617 
L 433.709467 -116.323745 
L 433.494202 -118.080874 
L 433.24886 -119.838002 
L 432.971811 -121.595131 
L 432.661827 -123.352259 
L 432.318166 -125.109388 
L 431.940645 -126.866517 
L 431.529696 -128.623645 
L 431.08641 -130.380774 
L 430.612551 -132.137902 
L 430.110552 -133.895031 
L 429.583483 -135.652159 
L 429.034997 -137.409288 
L 428.469245 -139.166417 
L 427.890783 -140.923545 
L 427.304451 -142.680674 
L 426.715249 -144.437802 
L 426.128203 -146.194931 
L 425.548232 -147.952059 
L 424.980019 -149.709188 
L 424.427895 -151.466316 
L 423.895734 -153.223445 
L 423.386866 -154.980574 
L 422.904006 -156.737702 
L 422.449207 -158.494831 
L 422.023831 -160.251959 
L 421.62854 -162.009088 
L 421.263305 -163.766216 
L 420.927437 -165.523345 
L 420.619632 -167.280473 
L 420.338036 -169.037602 
L 420.080322 -170.794731 
L 419.843785 -172.551859 
L 419.62545 -174.308988 
L 419.422184 -176.066116 
L 419.230825 -177.823245 
L 419.048307 -179.580373 
L 418.871787 -181.337502 
L 418.698762 -183.094631 
L 418.52718 -184.851759 
L 418.355525 -186.608888 
L 418.18288 -188.366016 
L 418.008969 -190.123145 
L 417.834162 -191.880273 
L 417.659449 -193.637402 
L 417.486396 -195.39453 
L 417.317061 -197.151659 
L 417.153903 -198.908788 
L 416.999677 -200.665916 
L 416.857316 -202.423045 
L 416.729832 -204.180173 
L 416.620216 -205.937302 
L 416.531363 -207.69443 
L 416.46601 -209.451559 
L 416.426706 -211.208688 
L 416.415796 -212.965816 
L 416.435426 -214.722945 
L 416.487559 -216.480073 
L 416.574 -218.237202 
L 416.696418 -219.99433 
L 416.856359 -221.751459 
L 417.055248 -223.508587 
L 417.294375 -225.265716 
L 417.574855 -227.022845 
L 417.897572 -228.779973 
L 418.263112 -230.537102 
L 418.671674 -232.29423 
L 419.122984 -234.051359 
L 419.616205 -235.808487 
L 420.149863 -237.565616 
L 420.721787 -239.322744 
L 421.329076 -241.079873 
L 421.96809 -242.837002 
L 422.634482 -244.59413 
L 423.323256 -246.351259 
L 424.028858 -248.108387 
L 424.745305 -249.865516 
L 425.466319 -251.622644 
L 426.185496 -253.379773 
L 426.89647 -255.136902 
L 427.593084 -256.89403 
L 428.269548 -258.651159 
L 428.920589 -260.408287 
L 429.541569 -262.165416 
L 430.128584 -263.922544 
L 430.678532 -265.679673 
L 431.189144 -267.436801 
L 431.658989 -269.19393 
L 432.087449 -270.951059 
L 432.474668 -272.708187 
L 432.821479 -274.465316 
L 433.12931 -276.222444 
L 433.400091 -277.979573 
L 433.636142 -279.736701 
L 433.840069 -281.49383 
L 434.014658 -283.250958 
L 434.162786 -285.008087 
L 435.450017 -285.008087 
L 435.450017 -285.008087 
L 435.598145 -283.250958 
L 435.772735 -281.49383 
L 435.976661 -279.736701 
L 436.212712 -277.979573 
L 436.483493 -276.222444 
L 436.791324 -274.465316 
L 437.138135 -272.708187 
L 437.525354 -270.951059 
L 437.953814 -269.19393 
L 438.423659 -267.436801 
L 438.934271 -265.679673 
L 439.484219 -263.922544 
L 440.071234 -262.165416 
L 440.692214 -260.408287 
L 441.343255 -258.651159 
L 442.019719 -256.89403 
L 442.716333 -255.136902 
L 443.427307 -253.379773 
L 444.146484 -251.622644 
L 444.867498 -249.865516 
L 445.583945 -248.108387 
L 446.289548 -246.351259 
L 446.978321 -244.59413 
L 447.644713 -242.837002 
L 448.283727 -241.079873 
L 448.891016 -239.322744 
L 449.46294 -237.565616 
L 449.996599 -235.808487 
L 450.489819 -234.051359 
L 450.941129 -232.29423 
L 451.349691 -230.537102 
L 451.715231 -228.779973 
L 452.037949 -227.022845 
L 452.318428 -225.265716 
L 452.557555 -223.508587 
L 452.756445 -221.751459 
L 452.916385 -219.99433 
L 453.038803 -218.237202 
L 453.125244 -216.480073 
L 453.177377 -214.722945 
L 453.197007 -212.965816 
L 453.186097 -211.208688 
L 453.146793 -209.451559 
L 453.08144 -207.69443 
L 452.992587 -205.937302 
L 452.882971 -204.180173 
L 452.755487 -202.423045 
L 452.613126 -200.665916 
L 452.4589 -198.908788 
L 452.295742 -197.151659 
L 452.126407 -195.39453 
L 451.953354 -193.637402 
L 451.778641 -191.880273 
L 451.603834 -190.123145 
L 451.429923 -188.366016 
L 451.257278 -186.608888 
L 451.085623 -184.851759 
L 450.914041 -183.094631 
L 450.741016 -181.337502 
L 450.564496 -179.580373 
L 450.381978 -177.823245 
L 450.190619 -176.066116 
L 449.987353 -174.308988 
L 449.769018 -172.551859 
L 449.532481 -170.794731 
L 449.274767 -169.037602 
L 448.993171 -167.280473 
L 448.685366 -165.523345 
L 448.349498 -163.766216 
L 447.984263 -162.009088 
L 447.588972 -160.251959 
L 447.163596 -158.494831 
L 446.708797 -156.737702 
L 446.225937 -154.980574 
L 445.717069 -153.223445 
L 445.184908 -151.466316 
L 444.632784 -149.709188 
L 444.064571 -147.952059 
L 443.4846 -146.194931 
L 442.897554 -144.437802 
L 442.308352 -142.680674 
L 441.72202 -140.923545 
L 441.143558 -139.166417 
L 440.577806 -137.409288 
L 440.02932 -135.652159 
L 439.502251 -133.895031 
L 439.000252 -132.137902 
L 438.526393 -130.380774 
L 438.083107 -128.623645 
L 437.672159 -126.866517 
L 437.294637 -125.109388 
L 436.950976 -123.352259 
L 436.640992 -121.595131 
L 436.363943 -119.838002 
L 436.118602 -118.080874 
L 435.903336 -116.323745 
L 435.7162 -114.566617 
L 435.555017 -112.809488 
L 435.417472 -111.05236 
z
" style="stroke: #3f3f3f; stroke-width: 1.25"/>
    </defs>
    <g clip-path="url(#p897cf62288)">
     <use xlink:href="#m603db679c4" x="0" y="360" style="fill: #3274a1; stroke: #3f3f3f; stroke-width: 1.25"/>
    </g>
   </g>
   <g id="PolyCollection_6">
    <defs>
     <path id="m67cba91031" d="M 500.789569 -141.247616 
L 499.460786 -141.247616 
L 499.287372 -142.000776 
L 499.080549 -142.753937 
L 498.83717 -143.507097 
L 498.554617 -144.260257 
L 498.231001 -145.013417 
L 497.865371 -145.766578 
L 497.45788 -146.519738 
L 497.009912 -147.272898 
L 496.524139 -148.026058 
L 496.004504 -148.779219 
L 495.4561 -149.532379 
L 494.884966 -150.285539 
L 494.297775 -151.038699 
L 493.701456 -151.79186 
L 493.102746 -152.54502 
L 492.507712 -153.29818 
L 491.921279 -154.05134 
L 491.346795 -154.804501 
L 490.785677 -155.557661 
L 490.237156 -156.310821 
L 489.698173 -157.063981 
L 489.163417 -157.817141 
L 488.62553 -158.570302 
L 488.075457 -159.323462 
L 487.502947 -160.076622 
L 486.897148 -160.829782 
L 486.247284 -161.582943 
L 485.543367 -162.336103 
L 484.7769 -163.089263 
L 483.941523 -163.842423 
L 483.033588 -164.595584 
L 482.052604 -165.348744 
L 481.001548 -166.101904 
L 479.887023 -166.855064 
L 478.719251 -167.608225 
L 477.511908 -168.361385 
L 476.281818 -169.114545 
L 475.048499 -169.867705 
L 473.833611 -170.620866 
L 472.660305 -171.374026 
L 471.552512 -172.127186 
L 470.534197 -172.880346 
L 469.628602 -173.633507 
L 468.857511 -174.386667 
L 468.24055 -175.139827 
L 467.794561 -175.892987 
L 467.533059 -176.646148 
L 467.46579 -177.399308 
L 467.59841 -178.152468 
L 467.932289 -178.905628 
L 468.464444 -179.658789 
L 469.187606 -180.411949 
L 470.090422 -181.165109 
L 471.157766 -181.918269 
L 472.371171 -182.67143 
L 473.709345 -183.42459 
L 475.148772 -184.17775 
L 476.664365 -184.93091 
L 478.230153 -185.684071 
L 479.819989 -186.437231 
L 481.408244 -187.190391 
L 482.970481 -187.943551 
L 484.484085 -188.696712 
L 485.92882 -189.449872 
L 487.287322 -190.203032 
L 488.545486 -190.956192 
L 489.692749 -191.709352 
L 490.722266 -192.462513 
L 491.630947 -193.215673 
L 492.419379 -193.968833 
L 493.091608 -194.721993 
L 493.654806 -195.475154 
L 494.118824 -196.228314 
L 494.495646 -196.981474 
L 494.798778 -197.734634 
L 495.042587 -198.487795 
L 495.241628 -199.240955 
L 495.410001 -199.994115 
L 495.560755 -200.747275 
L 495.705388 -201.500436 
L 495.853448 -202.253596 
L 496.012283 -203.006756 
L 496.186913 -203.759916 
L 496.380057 -204.513077 
L 496.592278 -205.266237 
L 496.822246 -206.019397 
L 497.067079 -206.772557 
L 497.322742 -207.525718 
L 497.584465 -208.278878 
L 497.847156 -209.032038 
L 498.10577 -209.785198 
L 498.355632 -210.538359 
L 498.592679 -211.291519 
L 498.81363 -212.044679 
L 499.016077 -212.797839 
L 499.198501 -213.551 
L 499.360233 -214.30416 
L 499.501361 -215.05732 
L 499.622611 -215.81048 
L 500.627744 -215.81048 
L 500.627744 -215.81048 
L 500.748994 -215.05732 
L 500.890122 -214.30416 
L 501.051854 -213.551 
L 501.234278 -212.797839 
L 501.436725 -212.044679 
L 501.657676 -211.291519 
L 501.894723 -210.538359 
L 502.144585 -209.785198 
L 502.403199 -209.032038 
L 502.66589 -208.278878 
L 502.927614 -207.525718 
L 503.183277 -206.772557 
L 503.428109 -206.019397 
L 503.658077 -205.266237 
L 503.870298 -204.513077 
L 504.063442 -203.759916 
L 504.238073 -203.006756 
L 504.396907 -202.253596 
L 504.544968 -201.500436 
L 504.6896 -200.747275 
L 504.840355 -199.994115 
L 505.008728 -199.240955 
L 505.207769 -198.487795 
L 505.451577 -197.734634 
L 505.754709 -196.981474 
L 506.131531 -196.228314 
L 506.595549 -195.475154 
L 507.158747 -194.721993 
L 507.830976 -193.968833 
L 508.619408 -193.215673 
L 509.52809 -192.462513 
L 510.557606 -191.709352 
L 511.70487 -190.956192 
L 512.963033 -190.203032 
L 514.321535 -189.449872 
L 515.766271 -188.696712 
L 517.279874 -187.943551 
L 518.842112 -187.190391 
L 520.430366 -186.437231 
L 522.020202 -185.684071 
L 523.58599 -184.93091 
L 525.101583 -184.17775 
L 526.541011 -183.42459 
L 527.879185 -182.67143 
L 529.092589 -181.918269 
L 530.159933 -181.165109 
L 531.062749 -180.411949 
L 531.785912 -179.658789 
L 532.318066 -178.905628 
L 532.651945 -178.152468 
L 532.784566 -177.399308 
L 532.717297 -176.646148 
L 532.455794 -175.892987 
L 532.009805 -175.139827 
L 531.392844 -174.386667 
L 530.621753 -173.633507 
L 529.716159 -172.880346 
L 528.697844 -172.127186 
L 527.590051 -171.374026 
L 526.416745 -170.620866 
L 525.201857 -169.867705 
L 523.968538 -169.114545 
L 522.738447 -168.361385 
L 521.531105 -167.608225 
L 520.363332 -166.855064 
L 519.248807 -166.101904 
L 518.197751 -165.348744 
L 517.216767 -164.595584 
L 516.308832 -163.842423 
L 515.473455 -163.089263 
L 514.706988 -162.336103 
L 514.003072 -161.582943 
L 513.353208 -160.829782 
L 512.747408 -160.076622 
L 512.174898 -159.323462 
L 511.624826 -158.570302 
L 511.086938 -157.817141 
L 510.552182 -157.063981 
L 510.013199 -156.310821 
L 509.464679 -155.557661 
L 508.90356 -154.804501 
L 508.329077 -154.05134 
L 507.742644 -153.29818 
L 507.147609 -152.54502 
L 506.548899 -151.79186 
L 505.95258 -151.038699 
L 505.36539 -150.285539 
L 504.794255 -149.532379 
L 504.245851 -148.779219 
L 503.726216 -148.026058 
L 503.240444 -147.272898 
L 502.792475 -146.519738 
L 502.384984 -145.766578 
L 502.019354 -145.013417 
L 501.695738 -144.260257 
L 501.413185 -143.507097 
L 501.169807 -142.753937 
L 500.962983 -142.000776 
L 500.789569 -141.247616 
z
" style="stroke: #3f3f3f; stroke-width: 1.25"/>
    </defs>
    <g clip-path="url(#p897cf62288)">
     <use xlink:href="#m67cba91031" x="0" y="360" style="fill: #e1812c; stroke: #3f3f3f; stroke-width: 1.25"/>
    </g>
   </g>
   <g id="PolyCollection_7">
    <defs>
     <path id="mc07b3112a1" d="M 599.069056 -117.868253 
L 597.137627 -117.868253 
L 596.943116 -119.003797 
L 596.719702 -120.13934 
L 596.465323 -121.274884 
L 596.178201 -122.410427 
L 595.856934 -123.545971 
L 595.500572 -124.681515 
L 595.108691 -125.817058 
L 594.681454 -126.952602 
L 594.219644 -128.088145 
L 593.724689 -129.223689 
L 593.198647 -130.359232 
L 592.644172 -131.494776 
L 592.064448 -132.63032 
L 591.463093 -133.765863 
L 590.84404 -134.901407 
L 590.211393 -136.03695 
L 589.569271 -137.172494 
L 588.921636 -138.308037 
L 588.272128 -139.443581 
L 587.623897 -140.579124 
L 586.979461 -141.714668 
L 586.340579 -142.850212 
L 585.708164 -143.985755 
L 585.082225 -145.121299 
L 584.461863 -146.256842 
L 583.845303 -147.392386 
L 583.229978 -148.527929 
L 582.612666 -149.663473 
L 581.989651 -150.799017 
L 581.356941 -151.93456 
L 580.710502 -153.070104 
L 580.046513 -154.205647 
L 579.361631 -155.341191 
L 578.653247 -156.476734 
L 577.919724 -157.612278 
L 577.160605 -158.747821 
L 576.376776 -159.883365 
L 575.570573 -161.018909 
L 574.745828 -162.154452 
L 573.907843 -163.289996 
L 573.063299 -164.425539 
L 572.220093 -165.561083 
L 571.387109 -166.696626 
L 570.573944 -167.83217 
L 569.790589 -168.967714 
L 569.047092 -170.103257 
L 568.353209 -171.238801 
L 567.71808 -172.374344 
L 567.149926 -173.509888 
L 566.655804 -174.645431 
L 566.241422 -175.780975 
L 565.911023 -176.916519 
L 565.667352 -178.052062 
L 565.511687 -179.187606 
L 565.443954 -180.323149 
L 565.462889 -181.458693 
L 565.566254 -182.594236 
L 565.751072 -183.72978 
L 566.013878 -184.865323 
L 566.350959 -186.000867 
L 566.758563 -187.136411 
L 567.233077 -188.271954 
L 567.771149 -189.407498 
L 568.369751 -190.543041 
L 569.026195 -191.678585 
L 569.738083 -192.814128 
L 570.503222 -193.949672 
L 571.319492 -195.085216 
L 572.184705 -196.220759 
L 573.096443 -197.356303 
L 574.051906 -198.491846 
L 575.047786 -199.62739 
L 576.080155 -200.762933 
L 577.14441 -201.898477 
L 578.235243 -203.03402 
L 579.346668 -204.169564 
L 580.472088 -205.305108 
L 581.604404 -206.440651 
L 582.736152 -207.576195 
L 583.859671 -208.711738 
L 584.967286 -209.847282 
L 586.051492 -210.982825 
L 587.105142 -212.118369 
L 588.121618 -213.253913 
L 589.094982 -214.389456 
L 590.020102 -215.525 
L 590.892748 -216.660543 
L 591.709653 -217.796087 
L 592.468542 -218.93163 
L 593.168126 -220.067174 
L 593.808069 -221.202717 
L 594.388924 -222.338261 
L 594.91205 -223.473805 
L 595.37951 -224.609348 
L 595.793959 -225.744892 
L 596.158522 -226.880435 
L 596.476679 -228.015979 
L 596.752144 -229.151522 
L 596.988755 -230.287066 
L 599.217929 -230.287066 
L 599.217929 -230.287066 
L 599.45454 -229.151522 
L 599.730004 -228.015979 
L 600.048162 -226.880435 
L 600.412725 -225.744892 
L 600.827174 -224.609348 
L 601.294633 -223.473805 
L 601.81776 -222.338261 
L 602.398615 -221.202717 
L 603.038558 -220.067174 
L 603.738142 -218.93163 
L 604.497031 -217.796087 
L 605.313936 -216.660543 
L 606.186582 -215.525 
L 607.111702 -214.389456 
L 608.085066 -213.253913 
L 609.101542 -212.118369 
L 610.155192 -210.982825 
L 611.239398 -209.847282 
L 612.347012 -208.711738 
L 613.470532 -207.576195 
L 614.602279 -206.440651 
L 615.734595 -205.305108 
L 616.860016 -204.169564 
L 617.971441 -203.03402 
L 619.062273 -201.898477 
L 620.126528 -200.762933 
L 621.158898 -199.62739 
L 622.154777 -198.491846 
L 623.110241 -197.356303 
L 624.021978 -196.220759 
L 624.887191 -195.085216 
L 625.703462 -193.949672 
L 626.4686 -192.814128 
L 627.180489 -191.678585 
L 627.836932 -190.543041 
L 628.435535 -189.407498 
L 628.973606 -188.271954 
L 629.448121 -187.136411 
L 629.855725 -186.000867 
L 630.192805 -184.865323 
L 630.455612 -183.72978 
L 630.64043 -182.594236 
L 630.743794 -181.458693 
L 630.76273 -180.323149 
L 630.694997 -179.187606 
L 630.539332 -178.052062 
L 630.29566 -176.916519 
L 629.965262 -175.780975 
L 629.55088 -174.645431 
L 629.056758 -173.509888 
L 628.488604 -172.374344 
L 627.853474 -171.238801 
L 627.159592 -170.103257 
L 626.416095 -168.967714 
L 625.63274 -167.83217 
L 624.819575 -166.696626 
L 623.986591 -165.561083 
L 623.143384 -164.425539 
L 622.298841 -163.289996 
L 621.460856 -162.154452 
L 620.63611 -161.018909 
L 619.829907 -159.883365 
L 619.046079 -158.747821 
L 618.28696 -157.612278 
L 617.553437 -156.476734 
L 616.845053 -155.341191 
L 616.160171 -154.205647 
L 615.496182 -153.070104 
L 614.849743 -151.93456 
L 614.217033 -150.799017 
L 613.594018 -149.663473 
L 612.976705 -148.527929 
L 612.361381 -147.392386 
L 611.744821 -146.256842 
L 611.124458 -145.121299 
L 610.49852 -143.985755 
L 609.866105 -142.850212 
L 609.227223 -141.714668 
L 608.582787 -140.579124 
L 607.934556 -139.443581 
L 607.285047 -138.308037 
L 606.637413 -137.172494 
L 605.99529 -136.03695 
L 605.362644 -134.901407 
L 604.743591 -133.765863 
L 604.142236 -132.63032 
L 603.562512 -131.494776 
L 603.008037 -130.359232 
L 602.481995 -129.223689 
L 601.987039 -128.088145 
L 601.52523 -126.952602 
L 601.097992 -125.817058 
L 600.706112 -124.681515 
L 600.34975 -123.545971 
L 600.028483 -122.410427 
L 599.741361 -121.274884 
L 599.486982 -120.13934 
L 599.263568 -119.003797 
L 599.069056 -117.868253 
z
" style="stroke: #3f3f3f; stroke-width: 1.25"/>
    </defs>
    <g clip-path="url(#p897cf62288)">
     <use xlink:href="#mc07b3112a1" x="0" y="360" style="fill: #3274a1; stroke: #3f3f3f; stroke-width: 1.25"/>
    </g>
   </g>
   <g id="PolyCollection_8">
    <defs>
     <path id="me184f72df5" d="M 663.809999 -108.562076 
L 663.034237 -108.562076 
L 662.95627 -109.970086 
L 662.866855 -111.378097 
L 662.765234 -112.786108 
L 662.650782 -114.194118 
L 662.523045 -115.602129 
L 662.381772 -117.01014 
L 662.226945 -118.41815 
L 662.058806 -119.826161 
L 661.877867 -121.234172 
L 661.684923 -122.642182 
L 661.481038 -124.050193 
L 661.267535 -125.458204 
L 661.045961 -126.866214 
L 660.818045 -128.274225 
L 660.585645 -129.682236 
L 660.350682 -131.090246 
L 660.115071 -132.498257 
L 659.880641 -133.906267 
L 659.649057 -135.314278 
L 659.421747 -136.722289 
L 659.199822 -138.130299 
L 658.98402 -139.53831 
L 658.774648 -140.946321 
L 658.57155 -142.354331 
L 658.374079 -143.762342 
L 658.181102 -145.170353 
L 657.991016 -146.578363 
L 657.801787 -147.986374 
L 657.611014 -149.394385 
L 657.416006 -150.802395 
L 657.213888 -152.210406 
L 657.001709 -153.618416 
L 656.776575 -155.026427 
L 656.535781 -156.434438 
L 656.276954 -157.842448 
L 655.998181 -159.250459 
L 655.698142 -160.65847 
L 655.376215 -162.06648 
L 655.032566 -163.474491 
L 654.66821 -164.882502 
L 654.285044 -166.290512 
L 653.885835 -167.698523 
L 653.474185 -169.106534 
L 653.054452 -170.514544 
L 652.631637 -171.922555 
L 652.211248 -173.330566 
L 651.799138 -174.738576 
L 651.401323 -176.146587 
L 651.0238 -177.554597 
L 650.672364 -178.962608 
L 650.352434 -180.370619 
L 650.068899 -181.778629 
L 649.825991 -183.18664 
L 649.627186 -184.594651 
L 649.475141 -186.002661 
L 649.371665 -187.410672 
L 649.317727 -188.818683 
L 649.31349 -190.226693 
L 649.358377 -191.634704 
L 649.451159 -193.042715 
L 649.590049 -194.450725 
L 649.772814 -195.858736 
L 649.996884 -197.266746 
L 650.259452 -198.674757 
L 650.557565 -200.082768 
L 650.888208 -201.490778 
L 651.248359 -202.898789 
L 651.635034 -204.3068 
L 652.045313 -205.71481 
L 652.476346 -207.122821 
L 652.92535 -208.530832 
L 653.389595 -209.938842 
L 653.866382 -211.346853 
L 654.353024 -212.754864 
L 654.84682 -214.162874 
L 655.345045 -215.570885 
L 655.84494 -216.978896 
L 656.343717 -218.386906 
L 656.838572 -219.794917 
L 657.326708 -221.202927 
L 657.805371 -222.610938 
L 658.27189 -224.018949 
L 658.723725 -225.426959 
L 659.158516 -226.83497 
L 659.574129 -228.242981 
L 659.968705 -229.650991 
L 660.340694 -231.059002 
L 660.688889 -232.467013 
L 661.012438 -233.875023 
L 661.310859 -235.283034 
L 661.584031 -236.691045 
L 661.832183 -238.099055 
L 662.055862 -239.507066 
L 662.255908 -240.915077 
L 662.433406 -242.323087 
L 662.589645 -243.731098 
L 662.726069 -245.139108 
L 662.844231 -246.547119 
L 662.945746 -247.95513 
L 663.89849 -247.95513 
L 663.89849 -247.95513 
L 664.000005 -246.547119 
L 664.118166 -245.139108 
L 664.25459 -243.731098 
L 664.410829 -242.323087 
L 664.588327 -240.915077 
L 664.788373 -239.507066 
L 665.012053 -238.099055 
L 665.260205 -236.691045 
L 665.533377 -235.283034 
L 665.831798 -233.875023 
L 666.155347 -232.467013 
L 666.503542 -231.059002 
L 666.875531 -229.650991 
L 667.270107 -228.242981 
L 667.68572 -226.83497 
L 668.12051 -225.426959 
L 668.572345 -224.018949 
L 669.038865 -222.610938 
L 669.517528 -221.202927 
L 670.005664 -219.794917 
L 670.500519 -218.386906 
L 670.999296 -216.978896 
L 671.499191 -215.570885 
L 671.997416 -214.162874 
L 672.491212 -212.754864 
L 672.977853 -211.346853 
L 673.454641 -209.938842 
L 673.918886 -208.530832 
L 674.36789 -207.122821 
L 674.798923 -205.71481 
L 675.209201 -204.3068 
L 675.595877 -202.898789 
L 675.956028 -201.490778 
L 676.286671 -200.082768 
L 676.584784 -198.674757 
L 676.847351 -197.266746 
L 677.071421 -195.858736 
L 677.254187 -194.450725 
L 677.393077 -193.042715 
L 677.485858 -191.634704 
L 677.530746 -190.226693 
L 677.526509 -188.818683 
L 677.472571 -187.410672 
L 677.369095 -186.002661 
L 677.21705 -184.594651 
L 677.018245 -183.18664 
L 676.775337 -181.778629 
L 676.491802 -180.370619 
L 676.171872 -178.962608 
L 675.820436 -177.554597 
L 675.442913 -176.146587 
L 675.045098 -174.738576 
L 674.632988 -173.330566 
L 674.212599 -171.922555 
L 673.789784 -170.514544 
L 673.37005 -169.106534 
L 672.958401 -167.698523 
L 672.559192 -166.290512 
L 672.176025 -164.882502 
L 671.81167 -163.474491 
L 671.468021 -162.06648 
L 671.146094 -160.65847 
L 670.846055 -159.250459 
L 670.567282 -157.842448 
L 670.308455 -156.434438 
L 670.067661 -155.026427 
L 669.842527 -153.618416 
L 669.630348 -152.210406 
L 669.428229 -150.802395 
L 669.233222 -149.394385 
L 669.042449 -147.986374 
L 668.85322 -146.578363 
L 668.663134 -145.170353 
L 668.470157 -143.762342 
L 668.272686 -142.354331 
L 668.069588 -140.946321 
L 667.860216 -139.53831 
L 667.644414 -138.130299 
L 667.422489 -136.722289 
L 667.195178 -135.314278 
L 666.963595 -133.906267 
L 666.729165 -132.498257 
L 666.493554 -131.090246 
L 666.258591 -129.682236 
L 666.026191 -128.274225 
L 665.798275 -126.866214 
L 665.576701 -125.458204 
L 665.363198 -124.050193 
L 665.159313 -122.642182 
L 664.966368 -121.234172 
L 664.78543 -119.826161 
L 664.617291 -118.41815 
L 664.462464 -117.01014 
L 664.321191 -115.602129 
L 664.193454 -114.194118 
L 664.079002 -112.786108 
L 663.977381 -111.378097 
L 663.887966 -109.970086 
L 663.809999 -108.562076 
z
" style="stroke: #3f3f3f; stroke-width: 1.25"/>
    </defs>
    <g clip-path="url(#p897cf62288)">
     <use xlink:href="#me184f72df5" x="0" y="360" style="fill: #e1812c; stroke: #3f3f3f; stroke-width: 1.25"/>
    </g>
   </g>
   <g id="patch_6">
    <path d="M 467.46579 414.177305 
L 467.46579 414.177305 
L 467.46579 414.177305 
L 467.46579 414.177305 
z
" clip-path="url(#p897cf62288)" style="fill: #3274a1; stroke: #3f3f3f; stroke-width: 1.25; stroke-linejoin: miter"/>
   </g>
   <g id="patch_7">
    <path d="M 467.46579 414.177305 
L 467.46579 414.177305 
L 467.46579 414.177305 
L 467.46579 414.177305 
z
" clip-path="url(#p897cf62288)" style="fill: #e1812c; stroke: #3f3f3f; stroke-width: 1.25; stroke-linejoin: miter"/>
   </g>
   <g id="line2d_25">
    <path d="M 434.806402 211.847925 
L 434.806402 112.091628 
" clip-path="url(#p897cf62288)" style="fill: none; stroke: #3f3f3f; stroke-width: 1.875; stroke-linecap: round"/>
   </g>
   <g id="line2d_26">
    <path d="M 434.806402 183.791393 
L 434.806402 133.69608 
" clip-path="url(#p897cf62288)" style="fill: none; stroke: #3f3f3f; stroke-width: 5.625; stroke-linecap: round"/>
   </g>
   <g id="line2d_27">
    <path d="M 434.806402 158.068082 
" clip-path="url(#p897cf62288)" style="fill: none; stroke: #3f3f3f; stroke-width: 1.5; stroke-linecap: round"/>
    <g clip-path="url(#p897cf62288)">
     <use xlink:href="#mc258f5e073" x="434.806402" y="158.068082" style="fill: #ffffff; stroke: #ffffff; stroke-width: 1.125"/>
    </g>
   </g>
   <g id="line2d_28">
    <path d="M 500.125178 205.172481 
L 500.125178 172.304197 
" clip-path="url(#p897cf62288)" style="fill: none; stroke: #3f3f3f; stroke-width: 1.875; stroke-linecap: round"/>
   </g>
   <g id="line2d_29">
    <path d="M 500.125178 189.325588 
L 500.125178 178.14816 
" clip-path="url(#p897cf62288)" style="fill: none; stroke: #3f3f3f; stroke-width: 5.625; stroke-linecap: round"/>
   </g>
   <g id="line2d_30">
    <path d="M 500.125178 183.798885 
" clip-path="url(#p897cf62288)" style="fill: none; stroke: #3f3f3f; stroke-width: 1.5; stroke-linecap: round"/>
    <g clip-path="url(#p897cf62288)">
     <use xlink:href="#mc258f5e073" x="500.125178" y="183.798885" style="fill: #ffffff; stroke: #ffffff; stroke-width: 1.125"/>
    </g>
   </g>
   <g id="line2d_31">
    <path d="M 598.103342 216.90941 
L 598.103342 154.93527 
" clip-path="url(#p897cf62288)" style="fill: none; stroke: #3f3f3f; stroke-width: 1.875; stroke-linecap: round"/>
   </g>
   <g id="line2d_32">
    <path d="M 598.103342 191.515347 
L 598.103342 166.583808 
" clip-path="url(#p897cf62288)" style="fill: none; stroke: #3f3f3f; stroke-width: 5.625; stroke-linecap: round"/>
   </g>
   <g id="line2d_33">
    <path d="M 598.103342 183.29631 
" clip-path="url(#p897cf62288)" style="fill: none; stroke: #3f3f3f; stroke-width: 1.5; stroke-linecap: round"/>
    <g clip-path="url(#p897cf62288)">
     <use xlink:href="#mc258f5e073" x="598.103342" y="183.29631" style="fill: #ffffff; stroke: #ffffff; stroke-width: 1.125"/>
    </g>
   </g>
   <g id="line2d_34">
    <path d="M 663.422118 203.32124 
L 663.422118 143.145488 
" clip-path="url(#p897cf62288)" style="fill: none; stroke: #3f3f3f; stroke-width: 1.875; stroke-linecap: round"/>
   </g>
   <g id="line2d_35">
    <path d="M 663.422118 182.716483 
L 663.422118 162.716425 
" clip-path="url(#p897cf62288)" style="fill: none; stroke: #3f3f3f; stroke-width: 5.625; stroke-linecap: round"/>
   </g>
   <g id="line2d_36">
    <path d="M 663.422118 177.37305 
" clip-path="url(#p897cf62288)" style="fill: none; stroke: #3f3f3f; stroke-width: 1.5; stroke-linecap: round"/>
    <g clip-path="url(#p897cf62288)">
     <use xlink:href="#mc258f5e073" x="663.422118" y="177.37305" style="fill: #ffffff; stroke: #ffffff; stroke-width: 1.125"/>
    </g>
   </g>
   <g id="patch_8">
    <path d="M 385.817319 318.04 
L 385.817319 24.72 
" style="fill: none; stroke: #cccccc; stroke-width: 0.8; stroke-linejoin: miter; stroke-linecap: square"/>
   </g>
   <g id="patch_9">
    <path d="M 385.817319 318.04 
L 712.4112 318.04 
" style="fill: none; stroke: #cccccc; stroke-width: 0.8; stroke-linejoin: miter; stroke-linecap: square"/>
   </g>
   <g id="text_15">
    <!-- sex = m -->
    <g style="fill: #262626" transform="translate(531.47051 18.72) scale(0.1 -0.1)">
     <defs>
      <path id="ArialMT-6d" d="M 422 0 
L 422 3319 
L 925 3319 
L 925 2853 
Q 1081 3097 1340 3245 
Q 1600 3394 1931 3394 
Q 2300 3394 2536 3241 
Q 2772 3088 2869 2813 
Q 3263 3394 3894 3394 
Q 4388 3394 4653 3120 
Q 4919 2847 4919 2278 
L 4919 0 
L 4359 0 
L 4359 2091 
Q 4359 2428 4304 2576 
Q 4250 2725 4106 2815 
Q 3963 2906 3769 2906 
Q 3419 2906 3187 2673 
Q 2956 2441 2956 1928 
L 2956 0 
L 2394 0 
L 2394 2156 
Q 2394 2531 2256 2718 
Q 2119 2906 1806 2906 
Q 1569 2906 1367 2781 
Q 1166 2656 1075 2415 
Q 984 2175 984 1722 
L 984 0 
L 422 0 
z
" transform="scale(0.015625)"/>
     </defs>
     <use xlink:href="#ArialMT-73"/>
     <use xlink:href="#ArialMT-65" x="50"/>
     <use xlink:href="#ArialMT-78" x="105.615234"/>
     <use xlink:href="#ArialMT-20" x="155.615234"/>
     <use xlink:href="#ArialMT-3d" x="183.398438"/>
     <use xlink:href="#ArialMT-20" x="241.796875"/>
     <use xlink:href="#ArialMT-6d" x="269.580078"/>
    </g>
   </g>
  </g>
  <g id="legend_1">
   <g id="text_16">
    <!-- time -->
    <g style="fill: #262626" transform="translate(725.045625 168.439844) scale(0.1 -0.1)">
     <use xlink:href="#ArialMT-74"/>
     <use xlink:href="#ArialMT-69" x="27.783203"/>
     <use xlink:href="#ArialMT-6d" x="50"/>
     <use xlink:href="#ArialMT-65" x="133.300781"/>
    </g>
   </g>
   <g id="patch_10">
    <path d="M 719.101875 182.585156 
L 739.101875 182.585156 
L 739.101875 175.585156 
L 719.101875 175.585156 
z
" style="fill: #3274a1; stroke: #3f3f3f; stroke-width: 1.25; stroke-linejoin: miter"/>
   </g>
   <g id="text_17">
    <!-- i -->
    <g style="fill: #262626" transform="translate(747.101875 182.585156) scale(0.1 -0.1)">
     <use xlink:href="#ArialMT-69"/>
    </g>
   </g>
   <g id="patch_11">
    <path d="M 719.101875 196.730469 
L 739.101875 196.730469 
L 739.101875 189.730469 
L 719.101875 189.730469 
z
" style="fill: #e1812c; stroke: #3f3f3f; stroke-width: 1.25; stroke-linejoin: miter"/>
   </g>
   <g id="text_18">
    <!-- f -->
    <g style="fill: #262626" transform="translate(747.101875 196.730469) scale(0.1 -0.1)">
     <use xlink:href="#ArialMT-66"/>
    </g>
   </g>
  </g>
 </g>
 <defs>
  <clipPath id="p049a2526e3">
   <rect x="48.411538" y="24.72" width="326.593881" height="293.32"/>
  </clipPath>
  <clipPath id="p897cf62288">
   <rect x="385.817319" y="24.72" width="326.593881" height="293.32"/>
  </clipPath>
 </defs>
</svg>
