<?xml version="1.0" encoding="utf-8" standalone="no"?>
<!DOCTYPE svg PUBLIC "-//W3C//DTD SVG 1.1//EN"
  "http://www.w3.org/Graphics/SVG/1.1/DTD/svg11.dtd">
<svg xmlns:xlink="http://www.w3.org/1999/xlink" width="758.88pt" height="360pt" viewBox="0 0 758.88 360" xmlns="http://www.w3.org/2000/svg" version="1.1">
 <metadata>
  <rdf:RDF xmlns:dc="http://purl.org/dc/elements/1.1/" xmlns:cc="http://creativecommons.org/ns#" xmlns:rdf="http://www.w3.org/1999/02/22-rdf-syntax-ns#">
   <cc:Work>
    <dc:type rdf:resource="http://purl.org/dc/dcmitype/StillImage"/>
    <dc:date>2024-09-11T03:22:34.043761</dc:date>
    <dc:format>image/svg+xml</dc:format>
    <dc:creator>
     <cc:Agent>
      <dc:title>Matplotlib v3.8.3, https://matplotlib.org/</dc:title>
     </cc:Agent>
    </dc:creator>
   </cc:Work>
  </rdf:RDF>
 </metadata>
 <defs>
  <style type="text/css">*{stroke-linejoin: round; stroke-linecap: butt}</style>
 </defs>
 <g id="figure_1">
  <g id="patch_1">
   <path d="M 0 360 
L 758.88 360 
L 758.88 0 
L 0 0 
z
" style="fill: #ffffff"/>
  </g>
  <g id="axes_1">
   <g id="patch_2">
    <path d="M 45.470877 318.04 
L 373.533891 318.04 
L 373.533891 24.72 
L 45.470877 24.72 
z
" style="fill: #ffffff"/>
   </g>
   <g id="matplotlib.axis_1">
    <g id="xtick_1">
     <g id="text_1">
      <!-- Jurilovca -->
      <g style="fill: #262626" transform="translate(107.758506 332.197812) scale(0.1 -0.1)">
       <defs>
        <path id="ArialMT-4a" d="M 184 1300 
L 731 1375 
Q 753 850 928 656 
Q 1103 463 1413 463 
Q 1641 463 1806 567 
Q 1972 672 2034 851 
Q 2097 1031 2097 1425 
L 2097 4581 
L 2703 4581 
L 2703 1459 
Q 2703 884 2564 568 
Q 2425 253 2123 87 
Q 1822 -78 1416 -78 
Q 813 -78 492 269 
Q 172 616 184 1300 
z
" transform="scale(0.015625)"/>
        <path id="ArialMT-75" d="M 2597 0 
L 2597 488 
Q 2209 -75 1544 -75 
Q 1250 -75 995 37 
Q 741 150 617 320 
Q 494 491 444 738 
Q 409 903 409 1263 
L 409 3319 
L 972 3319 
L 972 1478 
Q 972 1038 1006 884 
Q 1059 663 1231 536 
Q 1403 409 1656 409 
Q 1909 409 2131 539 
Q 2353 669 2445 892 
Q 2538 1116 2538 1541 
L 2538 3319 
L 3100 3319 
L 3100 0 
L 2597 0 
z
" transform="scale(0.015625)"/>
        <path id="ArialMT-72" d="M 416 0 
L 416 3319 
L 922 3319 
L 922 2816 
Q 1116 3169 1280 3281 
Q 1444 3394 1641 3394 
Q 1925 3394 2219 3213 
L 2025 2691 
Q 1819 2813 1613 2813 
Q 1428 2813 1281 2702 
Q 1134 2591 1072 2394 
Q 978 2094 978 1738 
L 978 0 
L 416 0 
z
" transform="scale(0.015625)"/>
        <path id="ArialMT-69" d="M 425 3934 
L 425 4581 
L 988 4581 
L 988 3934 
L 425 3934 
z
M 425 0 
L 425 3319 
L 988 3319 
L 988 0 
L 425 0 
z
" transform="scale(0.015625)"/>
        <path id="ArialMT-6c" d="M 409 0 
L 409 4581 
L 972 4581 
L 972 0 
L 409 0 
z
" transform="scale(0.015625)"/>
        <path id="ArialMT-6f" d="M 213 1659 
Q 213 2581 725 3025 
Q 1153 3394 1769 3394 
Q 2453 3394 2887 2945 
Q 3322 2497 3322 1706 
Q 3322 1066 3130 698 
Q 2938 331 2570 128 
Q 2203 -75 1769 -75 
Q 1072 -75 642 372 
Q 213 819 213 1659 
z
M 791 1659 
Q 791 1022 1069 705 
Q 1347 388 1769 388 
Q 2188 388 2466 706 
Q 2744 1025 2744 1678 
Q 2744 2294 2464 2611 
Q 2184 2928 1769 2928 
Q 1347 2928 1069 2612 
Q 791 2297 791 1659 
z
" transform="scale(0.015625)"/>
        <path id="ArialMT-76" d="M 1344 0 
L 81 3319 
L 675 3319 
L 1388 1331 
Q 1503 1009 1600 663 
Q 1675 925 1809 1294 
L 2547 3319 
L 3125 3319 
L 1869 0 
L 1344 0 
z
" transform="scale(0.015625)"/>
        <path id="ArialMT-63" d="M 2588 1216 
L 3141 1144 
Q 3050 572 2676 248 
Q 2303 -75 1759 -75 
Q 1078 -75 664 370 
Q 250 816 250 1647 
Q 250 2184 428 2587 
Q 606 2991 970 3192 
Q 1334 3394 1763 3394 
Q 2303 3394 2647 3120 
Q 2991 2847 3088 2344 
L 2541 2259 
Q 2463 2594 2264 2762 
Q 2066 2931 1784 2931 
Q 1359 2931 1093 2626 
Q 828 2322 828 1663 
Q 828 994 1084 691 
Q 1341 388 1753 388 
Q 2084 388 2306 591 
Q 2528 794 2588 1216 
z
" transform="scale(0.015625)"/>
        <path id="ArialMT-61" d="M 2588 409 
Q 2275 144 1986 34 
Q 1697 -75 1366 -75 
Q 819 -75 525 192 
Q 231 459 231 875 
Q 231 1119 342 1320 
Q 453 1522 633 1644 
Q 813 1766 1038 1828 
Q 1203 1872 1538 1913 
Q 2219 1994 2541 2106 
Q 2544 2222 2544 2253 
Q 2544 2597 2384 2738 
Q 2169 2928 1744 2928 
Q 1347 2928 1158 2789 
Q 969 2650 878 2297 
L 328 2372 
Q 403 2725 575 2942 
Q 747 3159 1072 3276 
Q 1397 3394 1825 3394 
Q 2250 3394 2515 3294 
Q 2781 3194 2906 3042 
Q 3031 2891 3081 2659 
Q 3109 2516 3109 2141 
L 3109 1391 
Q 3109 606 3145 398 
Q 3181 191 3288 0 
L 2700 0 
Q 2613 175 2588 409 
z
M 2541 1666 
Q 2234 1541 1622 1453 
Q 1275 1403 1131 1340 
Q 988 1278 909 1158 
Q 831 1038 831 891 
Q 831 666 1001 516 
Q 1172 366 1500 366 
Q 1825 366 2078 508 
Q 2331 650 2450 897 
Q 2541 1088 2541 1459 
L 2541 1666 
z
" transform="scale(0.015625)"/>
       </defs>
       <use xlink:href="#ArialMT-4a"/>
       <use xlink:href="#ArialMT-75" x="50"/>
       <use xlink:href="#ArialMT-72" x="105.615234"/>
       <use xlink:href="#ArialMT-69" x="138.916016"/>
       <use xlink:href="#ArialMT-6c" x="161.132812"/>
       <use xlink:href="#ArialMT-6f" x="183.349609"/>
       <use xlink:href="#ArialMT-76" x="238.964844"/>
       <use xlink:href="#ArialMT-63" x="288.964844"/>
       <use xlink:href="#ArialMT-61" x="338.964844"/>
      </g>
     </g>
    </g>
    <g id="xtick_2">
     <g id="text_2">
      <!-- Baia -->
      <g style="fill: #262626" transform="translate(281.511107 332.197812) scale(0.1 -0.1)">
       <defs>
        <path id="ArialMT-42" d="M 469 0 
L 469 4581 
L 2188 4581 
Q 2713 4581 3030 4442 
Q 3347 4303 3526 4014 
Q 3706 3725 3706 3409 
Q 3706 3116 3547 2856 
Q 3388 2597 3066 2438 
Q 3481 2316 3704 2022 
Q 3928 1728 3928 1328 
Q 3928 1006 3792 729 
Q 3656 453 3456 303 
Q 3256 153 2954 76 
Q 2653 0 2216 0 
L 469 0 
z
M 1075 2656 
L 2066 2656 
Q 2469 2656 2644 2709 
Q 2875 2778 2992 2937 
Q 3109 3097 3109 3338 
Q 3109 3566 3000 3739 
Q 2891 3913 2687 3977 
Q 2484 4041 1991 4041 
L 1075 4041 
L 1075 2656 
z
M 1075 541 
L 2216 541 
Q 2509 541 2628 563 
Q 2838 600 2978 687 
Q 3119 775 3209 942 
Q 3300 1109 3300 1328 
Q 3300 1584 3169 1773 
Q 3038 1963 2805 2039 
Q 2572 2116 2134 2116 
L 1075 2116 
L 1075 541 
z
" transform="scale(0.015625)"/>
       </defs>
       <use xlink:href="#ArialMT-42"/>
       <use xlink:href="#ArialMT-61" x="66.699219"/>
       <use xlink:href="#ArialMT-69" x="122.314453"/>
       <use xlink:href="#ArialMT-61" x="144.53125"/>
      </g>
     </g>
    </g>
    <g id="text_3">
     <!-- location -->
     <g style="fill: #262626" transform="translate(192.269572 345.343125) scale(0.1 -0.1)">
      <defs>
       <path id="ArialMT-74" d="M 1650 503 
L 1731 6 
Q 1494 -44 1306 -44 
Q 1000 -44 831 53 
Q 663 150 594 308 
Q 525 466 525 972 
L 525 2881 
L 113 2881 
L 113 3319 
L 525 3319 
L 525 4141 
L 1084 4478 
L 1084 3319 
L 1650 3319 
L 1650 2881 
L 1084 2881 
L 1084 941 
Q 1084 700 1114 631 
Q 1144 563 1211 522 
Q 1278 481 1403 481 
Q 1497 481 1650 503 
z
" transform="scale(0.015625)"/>
       <path id="ArialMT-6e" d="M 422 0 
L 422 3319 
L 928 3319 
L 928 2847 
Q 1294 3394 1984 3394 
Q 2284 3394 2536 3286 
Q 2788 3178 2913 3003 
Q 3038 2828 3088 2588 
Q 3119 2431 3119 2041 
L 3119 0 
L 2556 0 
L 2556 2019 
Q 2556 2363 2490 2533 
Q 2425 2703 2258 2804 
Q 2091 2906 1866 2906 
Q 1506 2906 1245 2678 
Q 984 2450 984 1813 
L 984 0 
L 422 0 
z
" transform="scale(0.015625)"/>
      </defs>
      <use xlink:href="#ArialMT-6c"/>
      <use xlink:href="#ArialMT-6f" x="22.216797"/>
      <use xlink:href="#ArialMT-63" x="77.832031"/>
      <use xlink:href="#ArialMT-61" x="127.832031"/>
      <use xlink:href="#ArialMT-74" x="183.447266"/>
      <use xlink:href="#ArialMT-69" x="211.230469"/>
      <use xlink:href="#ArialMT-6f" x="233.447266"/>
      <use xlink:href="#ArialMT-6e" x="289.0625"/>
     </g>
    </g>
   </g>
   <g id="matplotlib.axis_2">
    <g id="ytick_1">
     <g id="line2d_1">
      <path d="M 45.470877 287.271659 
L 373.533891 287.271659 
" clip-path="url(#p3000b97e16)" style="fill: none; stroke: #cccccc; stroke-width: 0.8; stroke-linecap: round"/>
     </g>
     <g id="text_4">
      <!-- 0 -->
      <g style="fill: #262626" transform="translate(32.90994 290.850565) scale(0.1 -0.1)">
       <defs>
        <path id="ArialMT-30" d="M 266 2259 
Q 266 3072 433 3567 
Q 600 4063 929 4331 
Q 1259 4600 1759 4600 
Q 2128 4600 2406 4451 
Q 2684 4303 2865 4023 
Q 3047 3744 3150 3342 
Q 3253 2941 3253 2259 
Q 3253 1453 3087 958 
Q 2922 463 2592 192 
Q 2263 -78 1759 -78 
Q 1097 -78 719 397 
Q 266 969 266 2259 
z
M 844 2259 
Q 844 1131 1108 757 
Q 1372 384 1759 384 
Q 2147 384 2411 759 
Q 2675 1134 2675 2259 
Q 2675 3391 2411 3762 
Q 2147 4134 1753 4134 
Q 1366 4134 1134 3806 
Q 844 3388 844 2259 
z
" transform="scale(0.015625)"/>
       </defs>
       <use xlink:href="#ArialMT-30"/>
      </g>
     </g>
    </g>
    <g id="ytick_2">
     <g id="line2d_2">
      <path d="M 45.470877 228.00468 
L 373.533891 228.00468 
" clip-path="url(#p3000b97e16)" style="fill: none; stroke: #cccccc; stroke-width: 0.8; stroke-linecap: round"/>
     </g>
     <g id="text_5">
      <!-- 20 -->
      <g style="fill: #262626" transform="translate(27.349002 231.583586) scale(0.1 -0.1)">
       <defs>
        <path id="ArialMT-32" d="M 3222 541 
L 3222 0 
L 194 0 
Q 188 203 259 391 
Q 375 700 629 1000 
Q 884 1300 1366 1694 
Q 2113 2306 2375 2664 
Q 2638 3022 2638 3341 
Q 2638 3675 2398 3904 
Q 2159 4134 1775 4134 
Q 1369 4134 1125 3890 
Q 881 3647 878 3216 
L 300 3275 
Q 359 3922 746 4261 
Q 1134 4600 1788 4600 
Q 2447 4600 2831 4234 
Q 3216 3869 3216 3328 
Q 3216 3053 3103 2787 
Q 2991 2522 2730 2228 
Q 2469 1934 1863 1422 
Q 1356 997 1212 845 
Q 1069 694 975 541 
L 3222 541 
z
" transform="scale(0.015625)"/>
       </defs>
       <use xlink:href="#ArialMT-32"/>
       <use xlink:href="#ArialMT-30" x="55.615234"/>
      </g>
     </g>
    </g>
    <g id="ytick_3">
     <g id="line2d_3">
      <path d="M 45.470877 168.737701 
L 373.533891 168.737701 
" clip-path="url(#p3000b97e16)" style="fill: none; stroke: #cccccc; stroke-width: 0.8; stroke-linecap: round"/>
     </g>
     <g id="text_6">
      <!-- 40 -->
      <g style="fill: #262626" transform="translate(27.349002 172.316607) scale(0.1 -0.1)">
       <defs>
        <path id="ArialMT-34" d="M 2069 0 
L 2069 1097 
L 81 1097 
L 81 1613 
L 2172 4581 
L 2631 4581 
L 2631 1613 
L 3250 1613 
L 3250 1097 
L 2631 1097 
L 2631 0 
L 2069 0 
z
M 2069 1613 
L 2069 3678 
L 634 1613 
L 2069 1613 
z
" transform="scale(0.015625)"/>
       </defs>
       <use xlink:href="#ArialMT-34"/>
       <use xlink:href="#ArialMT-30" x="55.615234"/>
      </g>
     </g>
    </g>
    <g id="ytick_4">
     <g id="line2d_4">
      <path d="M 45.470877 109.470722 
L 373.533891 109.470722 
" clip-path="url(#p3000b97e16)" style="fill: none; stroke: #cccccc; stroke-width: 0.8; stroke-linecap: round"/>
     </g>
     <g id="text_7">
      <!-- 60 -->
      <g style="fill: #262626" transform="translate(27.349002 113.049628) scale(0.1 -0.1)">
       <defs>
        <path id="ArialMT-36" d="M 3184 3459 
L 2625 3416 
Q 2550 3747 2413 3897 
Q 2184 4138 1850 4138 
Q 1581 4138 1378 3988 
Q 1113 3794 959 3422 
Q 806 3050 800 2363 
Q 1003 2672 1297 2822 
Q 1591 2972 1913 2972 
Q 2475 2972 2870 2558 
Q 3266 2144 3266 1488 
Q 3266 1056 3080 686 
Q 2894 316 2569 119 
Q 2244 -78 1831 -78 
Q 1128 -78 684 439 
Q 241 956 241 2144 
Q 241 3472 731 4075 
Q 1159 4600 1884 4600 
Q 2425 4600 2770 4297 
Q 3116 3994 3184 3459 
z
M 888 1484 
Q 888 1194 1011 928 
Q 1134 663 1356 523 
Q 1578 384 1822 384 
Q 2178 384 2434 671 
Q 2691 959 2691 1453 
Q 2691 1928 2437 2201 
Q 2184 2475 1800 2475 
Q 1419 2475 1153 2201 
Q 888 1928 888 1484 
z
" transform="scale(0.015625)"/>
       </defs>
       <use xlink:href="#ArialMT-36"/>
       <use xlink:href="#ArialMT-30" x="55.615234"/>
      </g>
     </g>
    </g>
    <g id="ytick_5">
     <g id="line2d_5">
      <path d="M 45.470877 50.203743 
L 373.533891 50.203743 
" clip-path="url(#p3000b97e16)" style="fill: none; stroke: #cccccc; stroke-width: 0.8; stroke-linecap: round"/>
     </g>
     <g id="text_8">
      <!-- 80 -->
      <g style="fill: #262626" transform="translate(27.349002 53.782649) scale(0.1 -0.1)">
       <defs>
        <path id="ArialMT-38" d="M 1131 2484 
Q 781 2613 612 2850 
Q 444 3088 444 3419 
Q 444 3919 803 4259 
Q 1163 4600 1759 4600 
Q 2359 4600 2725 4251 
Q 3091 3903 3091 3403 
Q 3091 3084 2923 2848 
Q 2756 2613 2416 2484 
Q 2838 2347 3058 2040 
Q 3278 1734 3278 1309 
Q 3278 722 2862 322 
Q 2447 -78 1769 -78 
Q 1091 -78 675 323 
Q 259 725 259 1325 
Q 259 1772 486 2073 
Q 713 2375 1131 2484 
z
M 1019 3438 
Q 1019 3113 1228 2906 
Q 1438 2700 1772 2700 
Q 2097 2700 2305 2904 
Q 2513 3109 2513 3406 
Q 2513 3716 2298 3927 
Q 2084 4138 1766 4138 
Q 1444 4138 1231 3931 
Q 1019 3725 1019 3438 
z
M 838 1322 
Q 838 1081 952 856 
Q 1066 631 1291 507 
Q 1516 384 1775 384 
Q 2178 384 2440 643 
Q 2703 903 2703 1303 
Q 2703 1709 2433 1975 
Q 2163 2241 1756 2241 
Q 1359 2241 1098 1978 
Q 838 1716 838 1322 
z
" transform="scale(0.015625)"/>
       </defs>
       <use xlink:href="#ArialMT-38"/>
       <use xlink:href="#ArialMT-30" x="55.615234"/>
      </g>
     </g>
    </g>
    <g id="text_9">
     <!-- rrate -->
     <g style="fill: #262626" transform="translate(21.361502 181.659687) rotate(-90) scale(0.1 -0.1)">
      <defs>
       <path id="ArialMT-65" d="M 2694 1069 
L 3275 997 
Q 3138 488 2766 206 
Q 2394 -75 1816 -75 
Q 1088 -75 661 373 
Q 234 822 234 1631 
Q 234 2469 665 2931 
Q 1097 3394 1784 3394 
Q 2450 3394 2872 2941 
Q 3294 2488 3294 1666 
Q 3294 1616 3291 1516 
L 816 1516 
Q 847 969 1125 678 
Q 1403 388 1819 388 
Q 2128 388 2347 550 
Q 2566 713 2694 1069 
z
M 847 1978 
L 2700 1978 
Q 2663 2397 2488 2606 
Q 2219 2931 1791 2931 
Q 1403 2931 1139 2672 
Q 875 2413 847 1978 
z
" transform="scale(0.015625)"/>
      </defs>
      <use xlink:href="#ArialMT-72"/>
      <use xlink:href="#ArialMT-72" x="33.300781"/>
      <use xlink:href="#ArialMT-61" x="66.601562"/>
      <use xlink:href="#ArialMT-74" x="122.216797"/>
      <use xlink:href="#ArialMT-65" x="150"/>
     </g>
    </g>
   </g>
   <g id="PolyCollection_1">
    <defs>
     <path id="m36749df6b0" d="M 95.798508 -94.096547 
L 93.562152 -94.096547 
L 93.360572 -95.449712 
L 93.133529 -96.802876 
L 92.880047 -98.15604 
L 92.599555 -99.509204 
L 92.291967 -100.862368 
L 91.957733 -102.215533 
L 91.5979 -103.568697 
L 91.21413 -104.921861 
L 90.808713 -106.275025 
L 90.384542 -107.62819 
L 89.945056 -108.981354 
L 89.494158 -110.334518 
L 89.036096 -111.687682 
L 88.575311 -113.040846 
L 88.11626 -114.394011 
L 87.663223 -115.747175 
L 87.22008 -117.100339 
L 86.790104 -118.453503 
L 86.375741 -119.806667 
L 85.978418 -121.159832 
L 85.598371 -122.512996 
L 85.23452 -123.86616 
L 84.884387 -125.219324 
L 84.544073 -126.572489 
L 84.208301 -127.925653 
L 83.87052 -129.278817 
L 83.523087 -130.631981 
L 83.157503 -131.985145 
L 82.764713 -133.33831 
L 82.335456 -134.691474 
L 81.860649 -136.044638 
L 81.331795 -137.397802 
L 80.7414 -138.750966 
L 80.08337 -140.104131 
L 79.353389 -141.457295 
L 78.549244 -142.810459 
L 77.671089 -144.163623 
L 76.721632 -145.516787 
L 75.706236 -146.869952 
L 74.632921 -148.223116 
L 73.512271 -149.57628 
L 72.35724 -150.929444 
L 71.18286 -152.282609 
L 70.00587 -153.635773 
L 68.844261 -154.988937 
L 67.716778 -156.342101 
L 66.642368 -157.695265 
L 65.63962 -159.04843 
L 64.726205 -160.401594 
L 63.918346 -161.754758 
L 63.230334 -163.107922 
L 62.674107 -164.461086 
L 62.258925 -165.814251 
L 61.991133 -167.167415 
L 61.874028 -168.520579 
L 61.907849 -169.873743 
L 62.089861 -171.226908 
L 62.414549 -172.580072 
L 62.873905 -173.933236 
L 63.457787 -175.2864 
L 64.154335 -176.639564 
L 64.950432 -177.992729 
L 65.832172 -179.345893 
L 66.785326 -180.699057 
L 67.795781 -182.052221 
L 68.849933 -183.405385 
L 69.935022 -184.75855 
L 71.039394 -186.111714 
L 72.152691 -187.464878 
L 73.265957 -188.818042 
L 74.371671 -190.171206 
L 75.463713 -191.524371 
L 76.537265 -192.877535 
L 77.588671 -194.230699 
L 78.615259 -195.583863 
L 79.615152 -196.937028 
L 80.587066 -198.290192 
L 81.530126 -199.643356 
L 82.44369 -200.99652 
L 83.327216 -202.349684 
L 84.180147 -203.702849 
L 85.001839 -205.056013 
L 85.791529 -206.409177 
L 86.548324 -207.762341 
L 87.271229 -209.115505 
L 87.959193 -210.46867 
L 88.611169 -211.821834 
L 89.226184 -213.174998 
L 89.803412 -214.528162 
L 90.342237 -215.881327 
L 90.842316 -217.234491 
L 91.303614 -218.587655 
L 91.72644 -219.940819 
L 92.111451 -221.293983 
L 92.459653 -222.647148 
L 92.772376 -224.000312 
L 93.051241 -225.353476 
L 93.29812 -226.70664 
L 93.515084 -228.059804 
L 95.845575 -228.059804 
L 95.845575 -228.059804 
L 96.062539 -226.70664 
L 96.309419 -225.353476 
L 96.588284 -224.000312 
L 96.901006 -222.647148 
L 97.249208 -221.293983 
L 97.63422 -219.940819 
L 98.057045 -218.587655 
L 98.518344 -217.234491 
L 99.018422 -215.881327 
L 99.557248 -214.528162 
L 100.134475 -213.174998 
L 100.74949 -211.821834 
L 101.401466 -210.46867 
L 102.08943 -209.115505 
L 102.812335 -207.762341 
L 103.56913 -206.409177 
L 104.35882 -205.056013 
L 105.180513 -203.702849 
L 106.033443 -202.349684 
L 106.916969 -200.99652 
L 107.830534 -199.643356 
L 108.773593 -198.290192 
L 109.745507 -196.937028 
L 110.7454 -195.583863 
L 111.771988 -194.230699 
L 112.823394 -192.877535 
L 113.896946 -191.524371 
L 114.988988 -190.171206 
L 116.094703 -188.818042 
L 117.207968 -187.464878 
L 118.321265 -186.111714 
L 119.425637 -184.75855 
L 120.510726 -183.405385 
L 121.564878 -182.052221 
L 122.575333 -180.699057 
L 123.528487 -179.345893 
L 124.410227 -177.992729 
L 125.206324 -176.639564 
L 125.902873 -175.2864 
L 126.486754 -173.933236 
L 126.94611 -172.580072 
L 127.270798 -171.226908 
L 127.45281 -169.873743 
L 127.486631 -168.520579 
L 127.369527 -167.167415 
L 127.101734 -165.814251 
L 126.686552 -164.461086 
L 126.130326 -163.107922 
L 125.442313 -161.754758 
L 124.634454 -160.401594 
L 123.721039 -159.04843 
L 122.718291 -157.695265 
L 121.643881 -156.342101 
L 120.516398 -154.988937 
L 119.35479 -153.635773 
L 118.177799 -152.282609 
L 117.003419 -150.929444 
L 115.848388 -149.57628 
L 114.727738 -148.223116 
L 113.654423 -146.869952 
L 112.639027 -145.516787 
L 111.68957 -144.163623 
L 110.811415 -142.810459 
L 110.00727 -141.457295 
L 109.277289 -140.104131 
L 108.619259 -138.750966 
L 108.028864 -137.397802 
L 107.50001 -136.044638 
L 107.025203 -134.691474 
L 106.595946 -133.33831 
L 106.203156 -131.985145 
L 105.837572 -130.631981 
L 105.490139 -129.278817 
L 105.152358 -127.925653 
L 104.816586 -126.572489 
L 104.476272 -125.219324 
L 104.126139 -123.86616 
L 103.762289 -122.512996 
L 103.382242 -121.159832 
L 102.984918 -119.806667 
L 102.570555 -118.453503 
L 102.140579 -117.100339 
L 101.697437 -115.747175 
L 101.244399 -114.394011 
L 100.785348 -113.040846 
L 100.324563 -111.687682 
L 99.866501 -110.334518 
L 99.415603 -108.981354 
L 98.976117 -107.62819 
L 98.551946 -106.275025 
L 98.146529 -104.921861 
L 97.76276 -103.568697 
L 97.402926 -102.215533 
L 97.068693 -100.862368 
L 96.761104 -99.509204 
L 96.480613 -98.15604 
L 96.22713 -96.802876 
L 96.000087 -95.449712 
L 95.798508 -94.096547 
z
" style="stroke: #3f3f3f; stroke-width: 1.25"/>
    </defs>
    <g clip-path="url(#p3000b97e16)">
     <use xlink:href="#m36749df6b0" x="0" y="360" style="fill: #3274a1; stroke: #3f3f3f; stroke-width: 1.25"/>
    </g>
   </g>
   <g id="PolyCollection_2">
    <defs>
     <path id="mf93f4c7f20" d="M 162.041942 -107.391548 
L 158.543923 -107.391548 
L 158.225417 -108.372133 
L 157.861946 -109.352719 
L 157.449742 -110.333305 
L 156.985185 -111.313891 
L 156.464906 -112.294477 
L 155.88589 -113.275062 
L 155.245588 -114.255648 
L 154.542034 -115.236234 
L 153.773955 -116.21682 
L 152.940881 -117.197406 
L 152.043254 -118.177991 
L 151.08251 -119.158577 
L 150.061156 -120.139163 
L 148.982828 -121.119749 
L 147.852313 -122.100335 
L 146.675558 -123.08092 
L 145.459636 -124.061506 
L 144.212689 -125.042092 
L 142.943829 -126.022678 
L 141.663015 -127.003264 
L 140.380888 -127.983849 
L 139.108581 -128.964435 
L 137.857505 -129.945021 
L 136.639111 -130.925607 
L 135.464637 -131.906193 
L 134.344851 -132.886779 
L 133.289792 -133.867364 
L 132.308518 -134.84795 
L 131.408885 -135.828536 
L 130.597334 -136.809122 
L 129.878729 -137.789708 
L 129.25623 -138.770293 
L 128.731218 -139.750879 
L 128.303266 -140.731465 
L 127.970175 -141.712051 
L 127.728058 -142.692637 
L 127.57148 -143.673222 
L 127.493645 -144.653808 
L 127.486631 -145.634394 
L 127.541654 -146.61498 
L 127.64936 -147.595566 
L 127.800135 -148.576151 
L 127.98441 -149.556737 
L 128.192967 -150.537323 
L 128.417219 -151.517909 
L 128.649463 -152.498495 
L 128.883098 -153.47908 
L 129.112793 -154.459666 
L 129.334609 -155.440252 
L 129.546067 -156.420838 
L 129.746162 -157.401424 
L 129.935331 -158.382009 
L 130.115365 -159.362595 
L 130.289285 -160.343181 
L 130.461179 -161.323767 
L 130.636017 -162.304353 
L 130.819433 -163.284939 
L 131.017511 -164.265524 
L 131.236554 -165.24611 
L 131.482866 -166.226696 
L 131.76254 -167.207282 
L 132.081259 -168.187868 
L 132.444128 -169.168453 
L 132.855517 -170.149039 
L 133.318941 -171.129625 
L 133.836966 -172.110211 
L 134.411138 -173.090797 
L 135.041946 -174.071382 
L 135.728812 -175.051968 
L 136.47011 -176.032554 
L 137.263196 -177.01314 
L 138.104482 -177.993726 
L 138.989508 -178.974311 
L 139.913049 -179.954897 
L 140.869223 -180.935483 
L 141.851618 -181.916069 
L 142.853428 -182.896655 
L 143.867588 -183.87724 
L 144.886915 -184.857826 
L 145.904248 -185.838412 
L 146.912584 -186.818998 
L 147.9052 -187.799584 
L 148.875772 -188.780169 
L 149.818474 -189.760755 
L 150.728069 -190.741341 
L 151.599974 -191.721927 
L 152.430316 -192.702513 
L 153.215958 -193.683099 
L 153.954515 -194.663684 
L 154.644351 -195.64427 
L 155.284553 -196.624856 
L 155.874895 -197.605442 
L 156.415786 -198.586028 
L 156.908211 -199.566613 
L 157.35366 -200.547199 
L 157.75405 -201.527785 
L 158.111652 -202.508371 
L 158.429008 -203.488957 
L 158.70886 -204.469542 
L 161.877005 -204.469542 
L 161.877005 -204.469542 
L 162.156857 -203.488957 
L 162.474213 -202.508371 
L 162.831815 -201.527785 
L 163.232205 -200.547199 
L 163.677654 -199.566613 
L 164.170079 -198.586028 
L 164.71097 -197.605442 
L 165.301312 -196.624856 
L 165.941513 -195.64427 
L 166.63135 -194.663684 
L 167.369907 -193.683099 
L 168.155549 -192.702513 
L 168.98589 -191.721927 
L 169.857796 -190.741341 
L 170.767391 -189.760755 
L 171.710093 -188.780169 
L 172.680664 -187.799584 
L 173.67328 -186.818998 
L 174.681616 -185.838412 
L 175.69895 -184.857826 
L 176.718277 -183.87724 
L 177.732437 -182.896655 
L 178.734247 -181.916069 
L 179.716642 -180.935483 
L 180.672816 -179.954897 
L 181.596357 -178.974311 
L 182.481383 -177.993726 
L 183.322669 -177.01314 
L 184.115755 -176.032554 
L 184.857052 -175.051968 
L 185.543919 -174.071382 
L 186.174727 -173.090797 
L 186.748898 -172.110211 
L 187.266923 -171.129625 
L 187.730348 -170.149039 
L 188.141737 -169.168453 
L 188.504606 -168.187868 
L 188.823325 -167.207282 
L 189.102999 -166.226696 
L 189.349311 -165.24611 
L 189.568354 -164.265524 
L 189.766432 -163.284939 
L 189.949848 -162.304353 
L 190.124685 -161.323767 
L 190.29658 -160.343181 
L 190.4705 -159.362595 
L 190.650533 -158.382009 
L 190.839702 -157.401424 
L 191.039798 -156.420838 
L 191.251255 -155.440252 
L 191.473071 -154.459666 
L 191.702766 -153.47908 
L 191.936401 -152.498495 
L 192.168646 -151.517909 
L 192.392897 -150.537323 
L 192.601454 -149.556737 
L 192.78573 -148.576151 
L 192.936505 -147.595566 
L 193.044211 -146.61498 
L 193.099234 -145.634394 
L 193.09222 -144.653808 
L 193.014385 -143.673222 
L 192.857807 -142.692637 
L 192.61569 -141.712051 
L 192.282599 -140.731465 
L 191.854647 -139.750879 
L 191.329635 -138.770293 
L 190.707136 -137.789708 
L 189.988531 -136.809122 
L 189.17698 -135.828536 
L 188.277347 -134.84795 
L 187.296073 -133.867364 
L 186.241013 -132.886779 
L 185.121227 -131.906193 
L 183.946754 -130.925607 
L 182.72836 -129.945021 
L 181.477284 -128.964435 
L 180.204977 -127.983849 
L 178.92285 -127.003264 
L 177.642035 -126.022678 
L 176.373176 -125.042092 
L 175.126229 -124.061506 
L 173.910307 -123.08092 
L 172.733552 -122.100335 
L 171.603037 -121.119749 
L 170.524709 -120.139163 
L 169.503355 -119.158577 
L 168.542611 -118.177991 
L 167.644983 -117.197406 
L 166.81191 -116.21682 
L 166.043831 -115.236234 
L 165.340276 -114.255648 
L 164.699975 -113.275062 
L 164.120959 -112.294477 
L 163.600679 -111.313891 
L 163.136123 -110.333305 
L 162.723919 -109.352719 
L 162.360448 -108.372133 
L 162.041942 -107.391548 
z
" style="stroke: #3f3f3f; stroke-width: 1.25"/>
    </defs>
    <g clip-path="url(#p3000b97e16)">
     <use xlink:href="#mf93f4c7f20" x="0" y="360" style="fill: #e1812c; stroke: #3f3f3f; stroke-width: 1.25"/>
    </g>
   </g>
   <g id="PolyCollection_3">
    <defs>
     <path id="m8dc006349c" d="M 259.22034 -55.292727 
L 258.203334 -55.292727 
L 258.091446 -57.986208 
L 257.960271 -60.679688 
L 257.807685 -63.373168 
L 257.631568 -66.066648 
L 257.429848 -68.760129 
L 257.200555 -71.453609 
L 256.941881 -74.147089 
L 256.652233 -76.840569 
L 256.330295 -79.53405 
L 255.975087 -82.22753 
L 255.586023 -84.92101 
L 255.162958 -87.61449 
L 254.706238 -90.307971 
L 254.216738 -93.001451 
L 253.695892 -95.694931 
L 253.145711 -98.388411 
L 252.568792 -101.081892 
L 251.968311 -103.775372 
L 251.348007 -106.468852 
L 250.712148 -109.162332 
L 250.06548 -111.855813 
L 249.41317 -114.549293 
L 248.760724 -117.242773 
L 248.113901 -119.936253 
L 247.478611 -122.629734 
L 246.860806 -125.323214 
L 246.266365 -128.016694 
L 245.700981 -130.710174 
L 245.170045 -133.403655 
L 244.678538 -136.097135 
L 244.230941 -138.790615 
L 243.831149 -141.484096 
L 243.482415 -144.177576 
L 243.1873 -146.871056 
L 242.947659 -149.564536 
L 242.764639 -152.258017 
L 242.638698 -154.951497 
L 242.569641 -157.644977 
L 242.556674 -160.338457 
L 242.598462 -163.031938 
L 242.693194 -165.725418 
L 242.838649 -168.418898 
L 243.032258 -171.112378 
L 243.271164 -173.805859 
L 243.552266 -176.499339 
L 243.872259 -179.192819 
L 244.227666 -181.886299 
L 244.614854 -184.57978 
L 245.030053 -187.27326 
L 245.469366 -189.96674 
L 245.928778 -192.66022 
L 246.40417 -195.353701 
L 246.891338 -198.047181 
L 247.386019 -200.740661 
L 247.883932 -203.434141 
L 248.380817 -206.127622 
L 248.872505 -208.821102 
L 249.354978 -211.514582 
L 249.824454 -214.208062 
L 250.277464 -216.901543 
L 250.710939 -219.595023 
L 251.122292 -222.288503 
L 251.50949 -224.981983 
L 251.871116 -227.675464 
L 252.206414 -230.368944 
L 252.515313 -233.062424 
L 252.798422 -235.755904 
L 253.057009 -238.449385 
L 253.292944 -241.142865 
L 253.508618 -243.836345 
L 253.706846 -246.529826 
L 253.890744 -249.223306 
L 254.063591 -251.916786 
L 254.228698 -254.610266 
L 254.38926 -257.303747 
L 254.548226 -259.997227 
L 254.708183 -262.690707 
L 254.871259 -265.384187 
L 255.039052 -268.077668 
L 255.212584 -270.771148 
L 255.392294 -273.464628 
L 255.57805 -276.158108 
L 255.769195 -278.851589 
L 255.964614 -281.545069 
L 256.162818 -284.238549 
L 256.362045 -286.932029 
L 256.560361 -289.62551 
L 256.755765 -292.31899 
L 256.946286 -295.01247 
L 257.130074 -297.70595 
L 257.305469 -300.399431 
L 257.47106 -303.092911 
L 257.625726 -305.786391 
L 257.76865 -308.479871 
L 257.899329 -311.173352 
L 258.017562 -313.866832 
L 258.123422 -316.560312 
L 258.217229 -319.253792 
L 258.299508 -321.947273 
L 259.124165 -321.947273 
L 259.124165 -321.947273 
L 259.206444 -319.253792 
L 259.300251 -316.560312 
L 259.406111 -313.866832 
L 259.524344 -311.173352 
L 259.655023 -308.479871 
L 259.797947 -305.786391 
L 259.952613 -303.092911 
L 260.118205 -300.399431 
L 260.2936 -297.70595 
L 260.477387 -295.01247 
L 260.667909 -292.31899 
L 260.863312 -289.62551 
L 261.061628 -286.932029 
L 261.260855 -284.238549 
L 261.459059 -281.545069 
L 261.654478 -278.851589 
L 261.845623 -276.158108 
L 262.031379 -273.464628 
L 262.211089 -270.771148 
L 262.384622 -268.077668 
L 262.552414 -265.384187 
L 262.71549 -262.690707 
L 262.875448 -259.997227 
L 263.034413 -257.303747 
L 263.194975 -254.610266 
L 263.360082 -251.916786 
L 263.53293 -249.223306 
L 263.716827 -246.529826 
L 263.915055 -243.836345 
L 264.130729 -241.142865 
L 264.366664 -238.449385 
L 264.625251 -235.755904 
L 264.908361 -233.062424 
L 265.217259 -230.368944 
L 265.552557 -227.675464 
L 265.914183 -224.981983 
L 266.301381 -222.288503 
L 266.712734 -219.595023 
L 267.146209 -216.901543 
L 267.599219 -214.208062 
L 268.068695 -211.514582 
L 268.551168 -208.821102 
L 269.042856 -206.127622 
L 269.539741 -203.434141 
L 270.037654 -200.740661 
L 270.532336 -198.047181 
L 271.019504 -195.353701 
L 271.494895 -192.66022 
L 271.954307 -189.96674 
L 272.39362 -187.27326 
L 272.808819 -184.57978 
L 273.196007 -181.886299 
L 273.551414 -179.192819 
L 273.871407 -176.499339 
L 274.152509 -173.805859 
L 274.391415 -171.112378 
L 274.585025 -168.418898 
L 274.730479 -165.725418 
L 274.825211 -163.031938 
L 274.866999 -160.338457 
L 274.854033 -157.644977 
L 274.784976 -154.951497 
L 274.659034 -152.258017 
L 274.476014 -149.564536 
L 274.236373 -146.871056 
L 273.941258 -144.177576 
L 273.592524 -141.484096 
L 273.192733 -138.790615 
L 272.745135 -136.097135 
L 272.253628 -133.403655 
L 271.722692 -130.710174 
L 271.157308 -128.016694 
L 270.562868 -125.323214 
L 269.945062 -122.629734 
L 269.309772 -119.936253 
L 268.662949 -117.242773 
L 268.010503 -114.549293 
L 267.358193 -111.855813 
L 266.711525 -109.162332 
L 266.075666 -106.468852 
L 265.455362 -103.775372 
L 264.854881 -101.081892 
L 264.277962 -98.388411 
L 263.727781 -95.694931 
L 263.206935 -93.001451 
L 262.717436 -90.307971 
L 262.260716 -87.61449 
L 261.83765 -84.92101 
L 261.448586 -82.22753 
L 261.093378 -79.53405 
L 260.77144 -76.840569 
L 260.481792 -74.147089 
L 260.223118 -71.453609 
L 259.993826 -68.760129 
L 259.792105 -66.066648 
L 259.615988 -63.373168 
L 259.463402 -60.679688 
L 259.332227 -57.986208 
L 259.22034 -55.292727 
z
" style="stroke: #3f3f3f; stroke-width: 1.25"/>
    </defs>
    <g clip-path="url(#p3000b97e16)">
     <use xlink:href="#m8dc006349c" x="0" y="360" style="fill: #3274a1; stroke: #3f3f3f; stroke-width: 1.25"/>
    </g>
   </g>
   <g id="PolyCollection_4">
    <defs>
     <path id="m60c215cde6" d="M 325.523611 -81.401375 
L 323.125268 -81.401375 
L 322.872767 -83.176384 
L 322.579024 -84.951394 
L 322.240044 -86.726403 
L 321.852029 -88.501412 
L 321.411513 -90.276421 
L 320.915522 -92.05143 
L 320.36173 -93.826439 
L 319.748624 -95.601449 
L 319.075668 -97.376458 
L 318.343441 -99.151467 
L 317.55377 -100.926476 
L 316.709826 -102.701485 
L 315.81618 -104.476494 
L 314.87883 -106.251504 
L 313.905163 -108.026513 
L 312.90388 -109.801522 
L 311.884856 -111.576531 
L 310.858958 -113.35154 
L 309.837814 -115.126549 
L 308.833537 -116.901558 
L 307.858426 -118.676568 
L 306.924644 -120.451577 
L 306.043891 -122.226586 
L 305.227084 -124.001595 
L 304.484061 -125.776604 
L 303.823316 -127.551613 
L 303.251786 -129.326623 
L 302.774688 -131.101632 
L 302.395419 -132.876641 
L 302.115523 -134.65165 
L 301.934717 -136.426659 
L 301.850987 -138.201668 
L 301.860728 -139.976678 
L 301.958931 -141.751687 
L 302.139411 -143.526696 
L 302.395043 -145.301705 
L 302.71802 -147.076714 
L 303.100098 -148.851723 
L 303.532833 -150.626733 
L 304.007791 -152.401742 
L 304.516733 -154.176751 
L 305.051762 -155.95176 
L 305.605443 -157.726769 
L 306.17088 -159.501778 
L 306.741769 -161.276788 
L 307.312426 -163.051797 
L 307.877788 -164.826806 
L 308.433405 -166.601815 
L 308.975422 -168.376824 
L 309.500555 -170.151833 
L 310.00607 -171.926843 
L 310.489765 -173.701852 
L 310.949952 -175.476861 
L 311.385453 -177.25187 
L 311.795589 -179.026879 
L 312.18018 -180.801888 
L 312.539538 -182.576898 
L 312.874459 -184.351907 
L 313.186207 -186.126916 
L 313.476495 -187.901925 
L 313.747444 -189.676934 
L 314.001543 -191.451943 
L 314.241587 -193.226953 
L 314.470608 -195.001962 
L 314.691798 -196.776971 
L 314.90842 -198.55198 
L 315.123717 -200.326989 
L 315.340818 -202.101998 
L 315.562649 -203.877007 
L 315.791842 -205.652017 
L 316.030661 -207.427026 
L 316.280932 -209.202035 
L 316.543995 -210.977044 
L 316.820664 -212.752053 
L 317.11121 -214.527062 
L 317.415356 -216.302072 
L 317.732302 -218.077081 
L 318.060751 -219.85209 
L 318.398963 -221.627099 
L 318.744819 -223.402108 
L 319.095892 -225.177117 
L 319.449535 -226.952127 
L 319.802964 -228.727136 
L 320.153346 -230.502145 
L 320.497888 -232.277154 
L 320.833915 -234.052163 
L 321.158945 -235.827172 
L 321.470747 -237.602182 
L 321.767395 -239.377191 
L 322.0473 -241.1522 
L 322.309233 -242.927209 
L 322.552336 -244.702218 
L 322.776112 -246.477227 
L 322.980413 -248.252237 
L 323.165413 -250.027246 
L 323.331572 -251.802255 
L 323.479597 -253.577264 
L 323.610399 -255.352273 
L 323.725048 -257.127282 
L 324.923831 -257.127282 
L 324.923831 -257.127282 
L 325.03848 -255.352273 
L 325.169282 -253.577264 
L 325.317307 -251.802255 
L 325.483466 -250.027246 
L 325.668466 -248.252237 
L 325.872767 -246.477227 
L 326.096543 -244.702218 
L 326.339646 -242.927209 
L 326.601579 -241.1522 
L 326.881484 -239.377191 
L 327.178132 -237.602182 
L 327.489934 -235.827172 
L 327.814964 -234.052163 
L 328.150991 -232.277154 
L 328.495533 -230.502145 
L 328.845915 -228.727136 
L 329.199343 -226.952127 
L 329.552987 -225.177117 
L 329.90406 -223.402108 
L 330.249916 -221.627099 
L 330.588128 -219.85209 
L 330.916577 -218.077081 
L 331.233522 -216.302072 
L 331.537669 -214.527062 
L 331.828215 -212.752053 
L 332.104884 -210.977044 
L 332.367947 -209.202035 
L 332.618218 -207.427026 
L 332.857037 -205.652017 
L 333.08623 -203.877007 
L 333.308061 -202.101998 
L 333.525162 -200.326989 
L 333.740459 -198.55198 
L 333.957081 -196.776971 
L 334.178271 -195.001962 
L 334.407292 -193.226953 
L 334.647335 -191.451943 
L 334.901434 -189.676934 
L 335.172384 -187.901925 
L 335.462672 -186.126916 
L 335.77442 -184.351907 
L 336.109341 -182.576898 
L 336.468699 -180.801888 
L 336.85329 -179.026879 
L 337.263426 -177.25187 
L 337.698927 -175.476861 
L 338.159114 -173.701852 
L 338.642808 -171.926843 
L 339.148324 -170.151833 
L 339.673457 -168.376824 
L 340.215474 -166.601815 
L 340.771091 -164.826806 
L 341.336453 -163.051797 
L 341.90711 -161.276788 
L 342.477999 -159.501778 
L 343.043436 -157.726769 
L 343.597116 -155.95176 
L 344.132146 -154.176751 
L 344.641087 -152.401742 
L 345.116046 -150.626733 
L 345.548781 -148.851723 
L 345.930859 -147.076714 
L 346.253836 -145.301705 
L 346.509468 -143.526696 
L 346.689947 -141.751687 
L 346.788151 -139.976678 
L 346.797891 -138.201668 
L 346.714162 -136.426659 
L 346.533356 -134.65165 
L 346.25346 -132.876641 
L 345.874191 -131.101632 
L 345.397093 -129.326623 
L 344.825563 -127.551613 
L 344.164818 -125.776604 
L 343.421795 -124.001595 
L 342.604988 -122.226586 
L 341.724234 -120.451577 
L 340.790453 -118.676568 
L 339.815342 -116.901558 
L 338.811065 -115.126549 
L 337.78992 -113.35154 
L 336.764023 -111.576531 
L 335.744999 -109.801522 
L 334.743716 -108.026513 
L 333.770049 -106.251504 
L 332.832699 -104.476494 
L 331.939053 -102.701485 
L 331.095108 -100.926476 
L 330.305438 -99.151467 
L 329.573211 -97.376458 
L 328.900255 -95.601449 
L 328.287149 -93.826439 
L 327.733357 -92.05143 
L 327.237365 -90.276421 
L 326.79685 -88.501412 
L 326.408835 -86.726403 
L 326.069855 -84.951394 
L 325.776112 -83.176384 
L 325.523611 -81.401375 
z
" style="stroke: #3f3f3f; stroke-width: 1.25"/>
    </defs>
    <g clip-path="url(#p3000b97e16)">
     <use xlink:href="#m60c215cde6" x="0" y="360" style="fill: #e1812c; stroke: #3f3f3f; stroke-width: 1.25"/>
    </g>
   </g>
   <g id="line2d_6">
    <path d="M 94.68033 201.81693 
L 94.68033 184.886147 
" clip-path="url(#p3000b97e16)" style="fill: none; stroke: #3f3f3f; stroke-width: 1.875; stroke-linecap: round"/>
   </g>
   <g id="line2d_7">
    <path d="M 94.68033 199.801894 
L 94.68033 186.407661 
" clip-path="url(#p3000b97e16)" style="fill: none; stroke: #3f3f3f; stroke-width: 5.625; stroke-linecap: round"/>
   </g>
   <g id="line2d_8">
    <path d="M 94.68033 192.364494 
" clip-path="url(#p3000b97e16)" style="fill: none; stroke: #3f3f3f; stroke-width: 1.5; stroke-linecap: round"/>
    <defs>
     <path id="m6c8353bad0" d="M 2.34375 0 
L -2.34375 -0 
" style="stroke: #ffffff; stroke-width: 1.125"/>
    </defs>
    <g clip-path="url(#p3000b97e16)">
     <use xlink:href="#m6c8353bad0" x="94.68033" y="192.364494" style="fill: #ffffff; stroke: #ffffff; stroke-width: 1.125"/>
    </g>
   </g>
   <g id="line2d_9">
    <path d="M 160.292932 227.485295 
L 160.292932 180.653615 
" clip-path="url(#p3000b97e16)" style="fill: none; stroke: #3f3f3f; stroke-width: 1.875; stroke-linecap: round"/>
   </g>
   <g id="line2d_10">
    <path d="M 160.292932 217.445014 
L 160.292932 193.120316 
" clip-path="url(#p3000b97e16)" style="fill: none; stroke: #3f3f3f; stroke-width: 5.625; stroke-linecap: round"/>
   </g>
   <g id="line2d_11">
    <path d="M 160.292932 207.945064 
" clip-path="url(#p3000b97e16)" style="fill: none; stroke: #3f3f3f; stroke-width: 1.5; stroke-linecap: round"/>
    <g clip-path="url(#p3000b97e16)">
     <use xlink:href="#m6c8353bad0" x="160.292932" y="207.945064" style="fill: #ffffff; stroke: #ffffff; stroke-width: 1.125"/>
    </g>
   </g>
   <g id="line2d_12">
    <path d="M 258.711837 246.384911 
L 258.711837 145.488826 
" clip-path="url(#p3000b97e16)" style="fill: none; stroke: #3f3f3f; stroke-width: 1.875; stroke-linecap: round"/>
   </g>
   <g id="line2d_13">
    <path d="M 258.711837 216.141879 
L 258.711837 170.770552 
" clip-path="url(#p3000b97e16)" style="fill: none; stroke: #3f3f3f; stroke-width: 5.625; stroke-linecap: round"/>
   </g>
   <g id="line2d_14">
    <path d="M 258.711837 193.679027 
" clip-path="url(#p3000b97e16)" style="fill: none; stroke: #3f3f3f; stroke-width: 1.5; stroke-linecap: round"/>
    <g clip-path="url(#p3000b97e16)">
     <use xlink:href="#m6c8353bad0" x="258.711837" y="193.679027" style="fill: #ffffff; stroke: #ffffff; stroke-width: 1.125"/>
    </g>
   </g>
   <g id="line2d_15">
    <path d="M 324.324439 237.34505 
L 324.324439 144.126292 
" clip-path="url(#p3000b97e16)" style="fill: none; stroke: #3f3f3f; stroke-width: 1.875; stroke-linecap: round"/>
   </g>
   <g id="line2d_16">
    <path d="M 324.324439 226.957256 
L 324.324439 190.732485 
" clip-path="url(#p3000b97e16)" style="fill: none; stroke: #3f3f3f; stroke-width: 5.625; stroke-linecap: round"/>
   </g>
   <g id="line2d_17">
    <path d="M 324.324439 213.972567 
" clip-path="url(#p3000b97e16)" style="fill: none; stroke: #3f3f3f; stroke-width: 1.5; stroke-linecap: round"/>
    <g clip-path="url(#p3000b97e16)">
     <use xlink:href="#m6c8353bad0" x="324.324439" y="213.972567" style="fill: #ffffff; stroke: #ffffff; stroke-width: 1.125"/>
    </g>
   </g>
   <g id="patch_3">
    <path d="M 45.470877 318.04 
L 45.470877 24.72 
" style="fill: none; stroke: #cccccc; stroke-width: 0.8; stroke-linejoin: miter; stroke-linecap: square"/>
   </g>
   <g id="patch_4">
    <path d="M 45.470878 318.04 
L 373.533891 318.04 
" style="fill: none; stroke: #cccccc; stroke-width: 0.8; stroke-linejoin: miter; stroke-linecap: square"/>
   </g>
   <g id="text_10">
    <!-- sex = f -->
    <g style="fill: #262626" transform="translate(194.634416 18.72) scale(0.1 -0.1)">
     <defs>
      <path id="ArialMT-73" d="M 197 991 
L 753 1078 
Q 800 744 1014 566 
Q 1228 388 1613 388 
Q 2000 388 2187 545 
Q 2375 703 2375 916 
Q 2375 1106 2209 1216 
Q 2094 1291 1634 1406 
Q 1016 1563 777 1677 
Q 538 1791 414 1992 
Q 291 2194 291 2438 
Q 291 2659 392 2848 
Q 494 3038 669 3163 
Q 800 3259 1026 3326 
Q 1253 3394 1513 3394 
Q 1903 3394 2198 3281 
Q 2494 3169 2634 2976 
Q 2775 2784 2828 2463 
L 2278 2388 
Q 2241 2644 2061 2787 
Q 1881 2931 1553 2931 
Q 1166 2931 1000 2803 
Q 834 2675 834 2503 
Q 834 2394 903 2306 
Q 972 2216 1119 2156 
Q 1203 2125 1616 2013 
Q 2213 1853 2448 1751 
Q 2684 1650 2818 1456 
Q 2953 1263 2953 975 
Q 2953 694 2789 445 
Q 2625 197 2315 61 
Q 2006 -75 1616 -75 
Q 969 -75 630 194 
Q 291 463 197 991 
z
" transform="scale(0.015625)"/>
      <path id="ArialMT-78" d="M 47 0 
L 1259 1725 
L 138 3319 
L 841 3319 
L 1350 2541 
Q 1494 2319 1581 2169 
Q 1719 2375 1834 2534 
L 2394 3319 
L 3066 3319 
L 1919 1756 
L 3153 0 
L 2463 0 
L 1781 1031 
L 1600 1309 
L 728 0 
L 47 0 
z
" transform="scale(0.015625)"/>
      <path id="ArialMT-20" transform="scale(0.015625)"/>
      <path id="ArialMT-3d" d="M 3381 2694 
L 356 2694 
L 356 3219 
L 3381 3219 
L 3381 2694 
z
M 3381 1303 
L 356 1303 
L 356 1828 
L 3381 1828 
L 3381 1303 
z
" transform="scale(0.015625)"/>
      <path id="ArialMT-66" d="M 556 0 
L 556 2881 
L 59 2881 
L 59 3319 
L 556 3319 
L 556 3672 
Q 556 4006 616 4169 
Q 697 4388 901 4523 
Q 1106 4659 1475 4659 
Q 1713 4659 2000 4603 
L 1916 4113 
Q 1741 4144 1584 4144 
Q 1328 4144 1222 4034 
Q 1116 3925 1116 3625 
L 1116 3319 
L 1763 3319 
L 1763 2881 
L 1116 2881 
L 1116 0 
L 556 0 
z
" transform="scale(0.015625)"/>
     </defs>
     <use xlink:href="#ArialMT-73"/>
     <use xlink:href="#ArialMT-65" x="50"/>
     <use xlink:href="#ArialMT-78" x="105.615234"/>
     <use xlink:href="#ArialMT-20" x="155.615234"/>
     <use xlink:href="#ArialMT-3d" x="183.398438"/>
     <use xlink:href="#ArialMT-20" x="241.796875"/>
     <use xlink:href="#ArialMT-66" x="269.580078"/>
    </g>
   </g>
  </g>
  <g id="axes_2">
   <g id="patch_5">
    <path d="M 384.348186 318.04 
L 712.4112 318.04 
L 712.4112 24.72 
L 384.348186 24.72 
z
" style="fill: #ffffff"/>
   </g>
   <g id="matplotlib.axis_3">
    <g id="xtick_3">
     <g id="text_11">
      <!-- Baia -->
      <g style="fill: #262626" transform="translate(456.356908 332.197812) scale(0.1 -0.1)">
       <use xlink:href="#ArialMT-42"/>
       <use xlink:href="#ArialMT-61" x="66.699219"/>
       <use xlink:href="#ArialMT-69" x="122.314453"/>
       <use xlink:href="#ArialMT-61" x="144.53125"/>
      </g>
     </g>
    </g>
    <g id="xtick_4">
     <g id="text_12">
      <!-- Jurilovca -->
      <g style="fill: #262626" transform="translate(610.667322 332.197812) scale(0.1 -0.1)">
       <use xlink:href="#ArialMT-4a"/>
       <use xlink:href="#ArialMT-75" x="50"/>
       <use xlink:href="#ArialMT-72" x="105.615234"/>
       <use xlink:href="#ArialMT-69" x="138.916016"/>
       <use xlink:href="#ArialMT-6c" x="161.132812"/>
       <use xlink:href="#ArialMT-6f" x="183.349609"/>
       <use xlink:href="#ArialMT-76" x="238.964844"/>
       <use xlink:href="#ArialMT-63" x="288.964844"/>
       <use xlink:href="#ArialMT-61" x="338.964844"/>
      </g>
     </g>
    </g>
    <g id="text_13">
     <!-- location -->
     <g style="fill: #262626" transform="translate(531.146881 345.343125) scale(0.1 -0.1)">
      <use xlink:href="#ArialMT-6c"/>
      <use xlink:href="#ArialMT-6f" x="22.216797"/>
      <use xlink:href="#ArialMT-63" x="77.832031"/>
      <use xlink:href="#ArialMT-61" x="127.832031"/>
      <use xlink:href="#ArialMT-74" x="183.447266"/>
      <use xlink:href="#ArialMT-69" x="211.230469"/>
      <use xlink:href="#ArialMT-6f" x="233.447266"/>
      <use xlink:href="#ArialMT-6e" x="289.0625"/>
     </g>
    </g>
   </g>
   <g id="matplotlib.axis_4">
    <g id="ytick_6">
     <g id="line2d_18">
      <path d="M 384.348186 287.271659 
L 712.4112 287.271659 
" clip-path="url(#p19cf0ec3ce)" style="fill: none; stroke: #cccccc; stroke-width: 0.8; stroke-linecap: round"/>
     </g>
    </g>
    <g id="ytick_7">
     <g id="line2d_19">
      <path d="M 384.348186 228.00468 
L 712.4112 228.00468 
" clip-path="url(#p19cf0ec3ce)" style="fill: none; stroke: #cccccc; stroke-width: 0.8; stroke-linecap: round"/>
     </g>
    </g>
    <g id="ytick_8">
     <g id="line2d_20">
      <path d="M 384.348186 168.737701 
L 712.4112 168.737701 
" clip-path="url(#p19cf0ec3ce)" style="fill: none; stroke: #cccccc; stroke-width: 0.8; stroke-linecap: round"/>
     </g>
    </g>
    <g id="ytick_9">
     <g id="line2d_21">
      <path d="M 384.348186 109.470722 
L 712.4112 109.470722 
" clip-path="url(#p19cf0ec3ce)" style="fill: none; stroke: #cccccc; stroke-width: 0.8; stroke-linecap: round"/>
     </g>
    </g>
    <g id="ytick_10">
     <g id="line2d_22">
      <path d="M 384.348186 50.203743 
L 712.4112 50.203743 
" clip-path="url(#p19cf0ec3ce)" style="fill: none; stroke: #cccccc; stroke-width: 0.8; stroke-linecap: round"/>
     </g>
    </g>
   </g>
   <g id="PolyCollection_5">
    <defs>
     <path id="mfb46e695ae" d="M 435.0856 -128.495944 
L 432.029676 -128.495944 
L 431.687334 -129.385967 
L 431.287165 -130.275991 
L 430.823858 -131.166014 
L 430.292539 -132.056037 
L 429.688982 -132.94606 
L 429.009809 -133.836083 
L 428.252693 -134.726106 
L 427.41653 -135.616129 
L 426.501588 -136.506153 
L 425.509615 -137.396176 
L 424.443902 -138.286199 
L 423.309295 -139.176222 
L 422.112155 -140.066245 
L 420.860268 -140.956268 
L 419.56271 -141.846291 
L 418.229673 -142.736315 
L 416.872266 -143.626338 
L 415.502288 -144.516361 
L 414.132005 -145.406384 
L 412.773918 -146.296407 
L 411.440539 -147.18643 
L 410.144183 -148.076453 
L 408.896768 -148.966477 
L 407.709629 -149.8565 
L 406.593342 -150.746523 
L 405.557552 -151.636546 
L 404.610802 -152.526569 
L 403.760365 -153.416592 
L 403.012072 -154.306616 
L 402.370141 -155.196639 
L 401.837022 -156.086662 
L 401.413256 -156.976685 
L 401.097372 -157.866708 
L 400.885827 -158.756731 
L 400.773012 -159.646754 
L 400.751337 -160.536778 
L 400.811398 -161.426801 
L 400.942241 -162.316824 
L 401.131715 -163.206847 
L 401.366903 -164.09687 
L 401.634632 -164.986893 
L 401.922009 -165.876916 
L 402.216994 -166.76694 
L 402.508938 -167.656963 
L 402.789084 -168.546986 
L 403.050978 -169.437009 
L 403.29077 -170.327032 
L 403.507381 -171.217055 
L 403.702519 -172.107078 
L 403.880535 -172.997102 
L 404.048134 -173.887125 
L 404.213947 -174.777148 
L 404.387999 -175.667171 
L 404.581094 -176.557194 
L 404.80417 -177.447217 
L 405.067659 -178.337241 
L 405.380891 -179.227264 
L 405.751582 -180.117287 
L 406.185447 -181.00731 
L 406.685936 -181.897333 
L 407.25413 -182.787356 
L 407.888781 -183.677379 
L 408.586488 -184.567403 
L 409.341993 -185.457426 
L 410.148561 -186.347449 
L 410.998419 -187.237472 
L 411.883206 -188.127495 
L 412.794419 -189.017518 
L 413.723805 -189.907541 
L 414.663683 -190.797565 
L 415.607186 -191.687588 
L 416.548403 -192.577611 
L 417.482434 -193.467634 
L 418.405352 -194.357657 
L 419.314103 -195.24768 
L 420.206353 -196.137704 
L 421.080301 -197.027727 
L 421.934491 -197.91775 
L 422.767629 -198.807773 
L 423.57843 -199.697796 
L 424.365506 -200.587819 
L 425.127294 -201.477842 
L 425.862042 -202.367866 
L 426.567822 -203.257889 
L 427.242599 -204.147912 
L 427.884318 -205.037935 
L 428.491006 -205.927958 
L 429.060885 -206.817981 
L 429.592481 -207.708004 
L 430.084711 -208.598028 
L 430.536952 -209.488051 
L 430.949092 -210.378074 
L 431.321539 -211.268097 
L 431.655214 -212.15812 
L 431.951518 -213.048143 
L 432.212271 -213.938166 
L 432.439645 -214.82819 
L 432.636081 -215.718213 
L 432.804206 -216.608236 
L 434.31107 -216.608236 
L 434.31107 -216.608236 
L 434.479195 -215.718213 
L 434.675631 -214.82819 
L 434.903005 -213.938166 
L 435.163758 -213.048143 
L 435.460062 -212.15812 
L 435.793738 -211.268097 
L 436.166184 -210.378074 
L 436.578324 -209.488051 
L 437.030566 -208.598028 
L 437.522795 -207.708004 
L 438.054391 -206.817981 
L 438.624271 -205.927958 
L 439.230958 -205.037935 
L 439.872677 -204.147912 
L 440.547454 -203.257889 
L 441.253234 -202.367866 
L 441.987982 -201.477842 
L 442.749771 -200.587819 
L 443.536846 -199.697796 
L 444.347647 -198.807773 
L 445.180785 -197.91775 
L 446.034975 -197.027727 
L 446.908923 -196.137704 
L 447.801173 -195.24768 
L 448.709925 -194.357657 
L 449.632842 -193.467634 
L 450.566873 -192.577611 
L 451.50809 -191.687588 
L 452.451593 -190.797565 
L 453.391471 -189.907541 
L 454.320857 -189.017518 
L 455.23207 -188.127495 
L 456.116858 -187.237472 
L 456.966715 -186.347449 
L 457.773283 -185.457426 
L 458.528788 -184.567403 
L 459.226495 -183.677379 
L 459.861146 -182.787356 
L 460.42934 -181.897333 
L 460.929829 -181.00731 
L 461.363694 -180.117287 
L 461.734386 -179.227264 
L 462.047617 -178.337241 
L 462.311106 -177.447217 
L 462.534183 -176.557194 
L 462.727277 -175.667171 
L 462.901329 -174.777148 
L 463.067143 -173.887125 
L 463.234741 -172.997102 
L 463.412757 -172.107078 
L 463.607895 -171.217055 
L 463.824507 -170.327032 
L 464.064299 -169.437009 
L 464.326192 -168.546986 
L 464.606338 -167.656963 
L 464.898282 -166.76694 
L 465.193267 -165.876916 
L 465.480645 -164.986893 
L 465.748373 -164.09687 
L 465.983562 -163.206847 
L 466.173035 -162.316824 
L 466.303878 -161.426801 
L 466.36394 -160.536778 
L 466.342264 -159.646754 
L 466.229449 -158.756731 
L 466.017904 -157.866708 
L 465.70202 -156.976685 
L 465.278255 -156.086662 
L 464.745136 -155.196639 
L 464.103204 -154.306616 
L 463.354911 -153.416592 
L 462.504474 -152.526569 
L 461.557725 -151.636546 
L 460.521934 -150.746523 
L 459.405647 -149.8565 
L 458.218508 -148.966477 
L 456.971093 -148.076453 
L 455.674737 -147.18643 
L 454.341358 -146.296407 
L 452.983271 -145.406384 
L 451.612988 -144.516361 
L 450.243011 -143.626338 
L 448.885603 -142.736315 
L 447.552566 -141.846291 
L 446.255008 -140.956268 
L 445.003121 -140.066245 
L 443.805981 -139.176222 
L 442.671374 -138.286199 
L 441.605661 -137.396176 
L 440.613688 -136.506153 
L 439.698746 -135.616129 
L 438.862583 -134.726106 
L 438.105467 -133.836083 
L 437.426295 -132.94606 
L 436.822737 -132.056037 
L 436.291418 -131.166014 
L 435.828111 -130.275991 
L 435.427942 -129.385967 
L 435.0856 -128.495944 
z
" style="stroke: #3f3f3f; stroke-width: 1.25"/>
    </defs>
    <g clip-path="url(#p19cf0ec3ce)">
     <use xlink:href="#mfb46e695ae" x="0" y="360" style="fill: #3274a1; stroke: #3f3f3f; stroke-width: 1.25"/>
    </g>
   </g>
   <g id="PolyCollection_6">
    <defs>
     <path id="med3b005cf3" d="M 499.53779 -97.523291 
L 498.802692 -97.523291 
L 498.708578 -98.885422 
L 498.596281 -100.247553 
L 498.463879 -101.609685 
L 498.309627 -102.971816 
L 498.132049 -104.333947 
L 497.930036 -105.696079 
L 497.702938 -107.05821 
L 497.450634 -108.420341 
L 497.173588 -109.782473 
L 496.872873 -111.144604 
L 496.550163 -112.506735 
L 496.207682 -113.868867 
L 495.84812 -115.230998 
L 495.474511 -116.593129 
L 495.090076 -117.955261 
L 494.698056 -119.317392 
L 494.301526 -120.679523 
L 493.903216 -122.041654 
L 493.505359 -123.403786 
L 493.109564 -124.765917 
L 492.71674 -126.128048 
L 492.327079 -127.49018 
L 491.940091 -128.852311 
L 491.554705 -130.214442 
L 491.169419 -131.576574 
L 490.782497 -132.938705 
L 490.392183 -134.300836 
L 489.996933 -135.662968 
L 489.595626 -137.025099 
L 489.187748 -138.38723 
L 488.773524 -139.749362 
L 488.353999 -141.111493 
L 487.931043 -142.473624 
L 487.507299 -143.835755 
L 487.086075 -145.197887 
L 486.671193 -146.560018 
L 486.266805 -147.922149 
L 485.877216 -149.284281 
L 485.506713 -150.646412 
L 485.159423 -152.008543 
L 484.839223 -153.370675 
L 484.549689 -154.732806 
L 484.294101 -156.094937 
L 484.075488 -157.457069 
L 483.896697 -158.8192 
L 483.760475 -160.181331 
L 483.669546 -161.543463 
L 483.626652 -162.905594 
L 483.634556 -164.267725 
L 483.695994 -165.629856 
L 483.813555 -166.991988 
L 483.989528 -168.354119 
L 484.22568 -169.71625 
L 484.523027 -171.078382 
L 484.881589 -172.440513 
L 485.300167 -173.802644 
L 485.77616 -175.164776 
L 486.305453 -176.526907 
L 486.882382 -177.889038 
L 487.499798 -179.25117 
L 488.149227 -180.613301 
L 488.821119 -181.975432 
L 489.505184 -183.337564 
L 490.190785 -184.699695 
L 490.867368 -186.061826 
L 491.5249 -187.423957 
L 492.154292 -188.786089 
L 492.747761 -190.14822 
L 493.299134 -191.510351 
L 493.804055 -192.872483 
L 494.26008 -194.234614 
L 494.666681 -195.596745 
L 495.025132 -196.958877 
L 495.338307 -198.321008 
L 495.610399 -199.683139 
L 495.846585 -201.045271 
L 496.052656 -202.407402 
L 496.234651 -203.769533 
L 496.398498 -205.131665 
L 496.549704 -206.493796 
L 496.6931 -207.855927 
L 496.832654 -209.218059 
L 496.971362 -210.58019 
L 497.111212 -211.942321 
L 497.253219 -213.304452 
L 497.397514 -214.666584 
L 497.543488 -216.028715 
L 497.689956 -217.390846 
L 497.835341 -218.752978 
L 497.977858 -220.115109 
L 498.115679 -221.47724 
L 498.247079 -222.839372 
L 498.370554 -224.201503 
L 498.484896 -225.563634 
L 498.589243 -226.925766 
L 498.683096 -228.287897 
L 498.766301 -229.650028 
L 498.839024 -231.01216 
L 498.901694 -232.374291 
L 499.438787 -232.374291 
L 499.438787 -232.374291 
L 499.501458 -231.01216 
L 499.57418 -229.650028 
L 499.657386 -228.287897 
L 499.751238 -226.925766 
L 499.855586 -225.563634 
L 499.969928 -224.201503 
L 500.093402 -222.839372 
L 500.224803 -221.47724 
L 500.362624 -220.115109 
L 500.505141 -218.752978 
L 500.650526 -217.390846 
L 500.796994 -216.028715 
L 500.942968 -214.666584 
L 501.087263 -213.304452 
L 501.229269 -211.942321 
L 501.36912 -210.58019 
L 501.507828 -209.218059 
L 501.647382 -207.855927 
L 501.790777 -206.493796 
L 501.941984 -205.131665 
L 502.105831 -203.769533 
L 502.287826 -202.407402 
L 502.493897 -201.045271 
L 502.730083 -199.683139 
L 503.002175 -198.321008 
L 503.31535 -196.958877 
L 503.673801 -195.596745 
L 504.080402 -194.234614 
L 504.536427 -192.872483 
L 505.041347 -191.510351 
L 505.592721 -190.14822 
L 506.18619 -188.786089 
L 506.815582 -187.423957 
L 507.473114 -186.061826 
L 508.149697 -184.699695 
L 508.835298 -183.337564 
L 509.519363 -181.975432 
L 510.191255 -180.613301 
L 510.840684 -179.25117 
L 511.4581 -177.889038 
L 512.035029 -176.526907 
L 512.564322 -175.164776 
L 513.040315 -173.802644 
L 513.458892 -172.440513 
L 513.817455 -171.078382 
L 514.114802 -169.71625 
L 514.350954 -168.354119 
L 514.526926 -166.991988 
L 514.644488 -165.629856 
L 514.705925 -164.267725 
L 514.71383 -162.905594 
L 514.670936 -161.543463 
L 514.580006 -160.181331 
L 514.443785 -158.8192 
L 514.264993 -157.457069 
L 514.04638 -156.094937 
L 513.790793 -154.732806 
L 513.501259 -153.370675 
L 513.181059 -152.008543 
L 512.833769 -150.646412 
L 512.463266 -149.284281 
L 512.073677 -147.922149 
L 511.669289 -146.560018 
L 511.254406 -145.197887 
L 510.833183 -143.835755 
L 510.409439 -142.473624 
L 509.986482 -141.111493 
L 509.566958 -139.749362 
L 509.152734 -138.38723 
L 508.744856 -137.025099 
L 508.343549 -135.662968 
L 507.948299 -134.300836 
L 507.557985 -132.938705 
L 507.171062 -131.576574 
L 506.785777 -130.214442 
L 506.400391 -128.852311 
L 506.013403 -127.49018 
L 505.623742 -126.128048 
L 505.230918 -124.765917 
L 504.835123 -123.403786 
L 504.437266 -122.041654 
L 504.038956 -120.679523 
L 503.642425 -119.317392 
L 503.250406 -117.955261 
L 502.865971 -116.593129 
L 502.492361 -115.230998 
L 502.1328 -113.868867 
L 501.790319 -112.506735 
L 501.467609 -111.144604 
L 501.166894 -109.782473 
L 500.889848 -108.420341 
L 500.637543 -107.05821 
L 500.410445 -105.696079 
L 500.208433 -104.333947 
L 500.030855 -102.971816 
L 499.876603 -101.609685 
L 499.744201 -100.247553 
L 499.631904 -98.885422 
L 499.53779 -97.523291 
z
" style="stroke: #3f3f3f; stroke-width: 1.25"/>
    </defs>
    <g clip-path="url(#p19cf0ec3ce)">
     <use xlink:href="#med3b005cf3" x="0" y="360" style="fill: #e1812c; stroke: #3f3f3f; stroke-width: 1.25"/>
    </g>
   </g>
   <g id="PolyCollection_7">
    <defs>
     <path id="mebd2cab117" d="M 598.177275 -91.094348 
L 597.001015 -91.094348 
L 596.875514 -92.833063 
L 596.72969 -94.571777 
L 596.561674 -96.310492 
L 596.369695 -98.049206 
L 596.152132 -99.787921 
L 595.907563 -101.526635 
L 595.634817 -103.26535 
L 595.333016 -105.004064 
L 595.001614 -106.742779 
L 594.640423 -108.481493 
L 594.249639 -110.220208 
L 593.829846 -111.958922 
L 593.38202 -113.697637 
L 592.907519 -115.436351 
L 592.408067 -117.175066 
L 591.885732 -118.91378 
L 591.342895 -120.652495 
L 590.782217 -122.391209 
L 590.206609 -124.129924 
L 589.619186 -125.868638 
L 589.023231 -127.607353 
L 588.422146 -129.346067 
L 587.819409 -131.084782 
L 587.21851 -132.823496 
L 586.622898 -134.562211 
L 586.03591 -136.300925 
L 585.4607 -138.03964 
L 584.900163 -139.778354 
L 584.356863 -141.517069 
L 583.832967 -143.255783 
L 583.330186 -144.994498 
L 582.849746 -146.733213 
L 582.39237 -148.471927 
L 581.958309 -150.210642 
L 581.547392 -151.949356 
L 581.159123 -153.688071 
L 580.792813 -155.426785 
L 580.447734 -157.1655 
L 580.123301 -158.904214 
L 579.819261 -160.642929 
L 579.535877 -162.381643 
L 579.274083 -164.120358 
L 579.035614 -165.859072 
L 578.823072 -167.597787 
L 578.63993 -169.336501 
L 578.490468 -171.075216 
L 578.37963 -172.81393 
L 578.312811 -174.552645 
L 578.295585 -176.291359 
L 578.333382 -178.030074 
L 578.431145 -179.768788 
L 578.592978 -181.507503 
L 578.821815 -183.246217 
L 579.119143 -184.984932 
L 579.484781 -186.723646 
L 579.916749 -188.462361 
L 580.411235 -190.201075 
L 580.96266 -191.93979 
L 581.563847 -193.678504 
L 582.206277 -195.417219 
L 582.880421 -197.155933 
L 583.576131 -198.894648 
L 584.283058 -200.633362 
L 584.991078 -202.372077 
L 585.690694 -204.110791 
L 586.373396 -205.849506 
L 587.031959 -207.588221 
L 587.660652 -209.326935 
L 588.255374 -211.06565 
L 588.813677 -212.804364 
L 589.334719 -214.543079 
L 589.819123 -216.281793 
L 590.268778 -218.020508 
L 590.68658 -219.759222 
L 591.076147 -221.497937 
L 591.441527 -223.236651 
L 591.786899 -224.975366 
L 592.116314 -226.71408 
L 592.433461 -228.452795 
L 592.741489 -230.191509 
L 593.042881 -231.930224 
L 593.339382 -233.668938 
L 593.631985 -235.407653 
L 593.920967 -237.146367 
L 594.205962 -238.885082 
L 594.486068 -240.623796 
L 594.759976 -242.362511 
L 595.026108 -244.101225 
L 595.282757 -245.83994 
L 595.528215 -247.578654 
L 595.760887 -249.317369 
L 595.979385 -251.056083 
L 596.182599 -252.794798 
L 596.36974 -254.533512 
L 596.540362 -256.272227 
L 596.69436 -258.010941 
L 596.831952 -259.749656 
L 596.953646 -261.48837 
L 597.060195 -263.227085 
L 598.118095 -263.227085 
L 598.118095 -263.227085 
L 598.224644 -261.48837 
L 598.346338 -259.749656 
L 598.483931 -258.010941 
L 598.637928 -256.272227 
L 598.80855 -254.533512 
L 598.995691 -252.794798 
L 599.198905 -251.056083 
L 599.417403 -249.317369 
L 599.650075 -247.578654 
L 599.895533 -245.83994 
L 600.152182 -244.101225 
L 600.418315 -242.362511 
L 600.692222 -240.623796 
L 600.972328 -238.885082 
L 601.257323 -237.146367 
L 601.546305 -235.407653 
L 601.838909 -233.668938 
L 602.135409 -231.930224 
L 602.436801 -230.191509 
L 602.744829 -228.452795 
L 603.061976 -226.71408 
L 603.391391 -224.975366 
L 603.736764 -223.236651 
L 604.102143 -221.497937 
L 604.491711 -219.759222 
L 604.909512 -218.020508 
L 605.359167 -216.281793 
L 605.843572 -214.543079 
L 606.364613 -212.804364 
L 606.922916 -211.06565 
L 607.517638 -209.326935 
L 608.146332 -207.588221 
L 608.804894 -205.849506 
L 609.487596 -204.110791 
L 610.187212 -202.372077 
L 610.895232 -200.633362 
L 611.60216 -198.894648 
L 612.29787 -197.155933 
L 612.972013 -195.417219 
L 613.614443 -193.678504 
L 614.21563 -191.93979 
L 614.767056 -190.201075 
L 615.261541 -188.462361 
L 615.693509 -186.723646 
L 616.059147 -184.984932 
L 616.356475 -183.246217 
L 616.585313 -181.507503 
L 616.747145 -179.768788 
L 616.844908 -178.030074 
L 616.882706 -176.291359 
L 616.865479 -174.552645 
L 616.79866 -172.81393 
L 616.687822 -171.075216 
L 616.53836 -169.336501 
L 616.355218 -167.597787 
L 616.142676 -165.859072 
L 615.904207 -164.120358 
L 615.642414 -162.381643 
L 615.359029 -160.642929 
L 615.054989 -158.904214 
L 614.730556 -157.1655 
L 614.385477 -155.426785 
L 614.019167 -153.688071 
L 613.630899 -151.949356 
L 613.219981 -150.210642 
L 612.78592 -148.471927 
L 612.328544 -146.733213 
L 611.848104 -144.994498 
L 611.345323 -143.255783 
L 610.821427 -141.517069 
L 610.278127 -139.778354 
L 609.71759 -138.03964 
L 609.14238 -136.300925 
L 608.555392 -134.562211 
L 607.95978 -132.823496 
L 607.358882 -131.084782 
L 606.756144 -129.346067 
L 606.15506 -127.607353 
L 605.559104 -125.868638 
L 604.971681 -124.129924 
L 604.396073 -122.391209 
L 603.835396 -120.652495 
L 603.292558 -118.91378 
L 602.770223 -117.175066 
L 602.270772 -115.436351 
L 601.796271 -113.697637 
L 601.348444 -111.958922 
L 600.928651 -110.220208 
L 600.537867 -108.481493 
L 600.176677 -106.742779 
L 599.845274 -105.004064 
L 599.543473 -103.26535 
L 599.270727 -101.526635 
L 599.026158 -99.787921 
L 598.808595 -98.049206 
L 598.616616 -96.310492 
L 598.4486 -94.571777 
L 598.302776 -92.833063 
L 598.177275 -91.094348 
z
" style="stroke: #3f3f3f; stroke-width: 1.25"/>
    </defs>
    <g clip-path="url(#p19cf0ec3ce)">
     <use xlink:href="#mebd2cab117" x="0" y="360" style="fill: #3274a1; stroke: #3f3f3f; stroke-width: 1.25"/>
    </g>
   </g>
   <g id="PolyCollection_8">
    <defs>
     <path id="m2c2911d8aa" d="M 663.928366 -106.370496 
L 662.475129 -106.370496 
L 662.321804 -107.135123 
L 662.146313 -107.899751 
L 661.947921 -108.664378 
L 661.726457 -109.429006 
L 661.482431 -110.193633 
L 661.217124 -110.958261 
L 660.932651 -111.722888 
L 660.631999 -112.487515 
L 660.319006 -113.252143 
L 659.998301 -114.01677 
L 659.675189 -114.781398 
L 659.35547 -115.546025 
L 659.045215 -116.310653 
L 658.75049 -117.07528 
L 658.47704 -117.839907 
L 658.229952 -118.604535 
L 658.013307 -119.369162 
L 657.829837 -120.13379 
L 657.680616 -120.898417 
L 657.564786 -121.663045 
L 657.479354 -122.427672 
L 657.419061 -123.192299 
L 657.376336 -123.956927 
L 657.341358 -124.721554 
L 657.302209 -125.486182 
L 657.24513 -126.250809 
L 657.15489 -127.015437 
L 657.015227 -127.780064 
L 656.809393 -128.544692 
L 656.520754 -129.309319 
L 656.133449 -130.073946 
L 655.633083 -130.838574 
L 655.007423 -131.603201 
L 654.247087 -132.367829 
L 653.346174 -133.132456 
L 652.302834 -133.897084 
L 651.119715 -134.661711 
L 649.804274 -135.426338 
L 648.36893 -136.190966 
L 646.83101 -136.955593 
L 645.212499 -137.720221 
L 643.539569 -138.484848 
L 641.841894 -139.249476 
L 640.151781 -140.014103 
L 638.503122 -140.778731 
L 636.930233 -141.543358 
L 635.466622 -142.307985 
L 634.143737 -143.072613 
L 632.989782 -143.83724 
L 632.028644 -144.601868 
L 631.278996 -145.366495 
L 630.753635 -146.131123 
L 630.459077 -146.89575 
L 630.395447 -147.660377 
L 630.556651 -148.425005 
L 630.930829 -149.189632 
L 631.501048 -149.95426 
L 632.246195 -150.718887 
L 633.142017 -151.483515 
L 634.162234 -152.248142 
L 635.279682 -153.012769 
L 636.467396 -153.777397 
L 637.699611 -154.542024 
L 638.952608 -155.306652 
L 640.205393 -156.071279 
L 641.440172 -156.835907 
L 642.642639 -157.600534 
L 643.802052 -158.365162 
L 644.911143 -159.129789 
L 645.965867 -159.894416 
L 646.965032 -160.659044 
L 647.909833 -161.423671 
L 648.803334 -162.188299 
L 649.649932 -162.952926 
L 650.454828 -163.717554 
L 651.223526 -164.482181 
L 651.961406 -165.246808 
L 652.673357 -166.011436 
L 653.3635 -166.776063 
L 654.034998 -167.540691 
L 654.689955 -168.305318 
L 655.329403 -169.069946 
L 655.953347 -169.834573 
L 656.560895 -170.5992 
L 657.15041 -171.363828 
L 657.719717 -172.128455 
L 658.266305 -172.893083 
L 658.787546 -173.65771 
L 659.280888 -174.422338 
L 659.744039 -175.186965 
L 660.175103 -175.951593 
L 660.572691 -176.71622 
L 660.935987 -177.480847 
L 661.264773 -178.245475 
L 661.559428 -179.010102 
L 661.820881 -179.77473 
L 662.050551 -180.539357 
L 662.250268 -181.303985 
L 662.422174 -182.068612 
L 663.981322 -182.068612 
L 663.981322 -182.068612 
L 664.153228 -181.303985 
L 664.352944 -180.539357 
L 664.582615 -179.77473 
L 664.844068 -179.010102 
L 665.138723 -178.245475 
L 665.467509 -177.480847 
L 665.830804 -176.71622 
L 666.228392 -175.951593 
L 666.659456 -175.186965 
L 667.122607 -174.422338 
L 667.61595 -173.65771 
L 668.137191 -172.893083 
L 668.683779 -172.128455 
L 669.253086 -171.363828 
L 669.842601 -170.5992 
L 670.450149 -169.834573 
L 671.074093 -169.069946 
L 671.71354 -168.305318 
L 672.368498 -167.540691 
L 673.039996 -166.776063 
L 673.730138 -166.011436 
L 674.44209 -165.246808 
L 675.17997 -164.482181 
L 675.948668 -163.717554 
L 676.753563 -162.952926 
L 677.600162 -162.188299 
L 678.493663 -161.423671 
L 679.438463 -160.659044 
L 680.437628 -159.894416 
L 681.492353 -159.129789 
L 682.601444 -158.365162 
L 683.760857 -157.600534 
L 684.963323 -156.835907 
L 686.198103 -156.071279 
L 687.450887 -155.306652 
L 688.703885 -154.542024 
L 689.9361 -153.777397 
L 691.123814 -153.012769 
L 692.241261 -152.248142 
L 693.261479 -151.483515 
L 694.1573 -150.718887 
L 694.902448 -149.95426 
L 695.472667 -149.189632 
L 695.846845 -148.425005 
L 696.008049 -147.660377 
L 695.944419 -146.89575 
L 695.649861 -146.131123 
L 695.124499 -145.366495 
L 694.374852 -144.601868 
L 693.413714 -143.83724 
L 692.259759 -143.072613 
L 690.936874 -142.307985 
L 689.473263 -141.543358 
L 687.900374 -140.778731 
L 686.251715 -140.014103 
L 684.561602 -139.249476 
L 682.863927 -138.484848 
L 681.190997 -137.720221 
L 679.572486 -136.955593 
L 678.034566 -136.190966 
L 676.599222 -135.426338 
L 675.283781 -134.661711 
L 674.100661 -133.897084 
L 673.057322 -133.132456 
L 672.156409 -132.367829 
L 671.396072 -131.603201 
L 670.770413 -130.838574 
L 670.270047 -130.073946 
L 669.882742 -129.309319 
L 669.594103 -128.544692 
L 669.388269 -127.780064 
L 669.248606 -127.015437 
L 669.158365 -126.250809 
L 669.101287 -125.486182 
L 669.062137 -124.721554 
L 669.02716 -123.956927 
L 668.984435 -123.192299 
L 668.924141 -122.427672 
L 668.83871 -121.663045 
L 668.72288 -120.898417 
L 668.573659 -120.13379 
L 668.390189 -119.369162 
L 668.173544 -118.604535 
L 667.926456 -117.839907 
L 667.653006 -117.07528 
L 667.358281 -116.310653 
L 667.048026 -115.546025 
L 666.728307 -114.781398 
L 666.405194 -114.01677 
L 666.08449 -113.252143 
L 665.771497 -112.487515 
L 665.470844 -111.722888 
L 665.186372 -110.958261 
L 664.921065 -110.193633 
L 664.677039 -109.429006 
L 664.455575 -108.664378 
L 664.257182 -107.899751 
L 664.081692 -107.135123 
L 663.928366 -106.370496 
z
" style="stroke: #3f3f3f; stroke-width: 1.25"/>
    </defs>
    <g clip-path="url(#p19cf0ec3ce)">
     <use xlink:href="#m2c2911d8aa" x="0" y="360" style="fill: #e1812c; stroke: #3f3f3f; stroke-width: 1.25"/>
    </g>
   </g>
   <g id="patch_6">
    <path d="M 466.36394 287.271659 
L 466.36394 287.271659 
L 466.36394 287.271659 
L 466.36394 287.271659 
z
" clip-path="url(#p19cf0ec3ce)" style="fill: #3274a1; stroke: #3f3f3f; stroke-width: 1.25; stroke-linejoin: miter"/>
   </g>
   <g id="patch_7">
    <path d="M 466.36394 287.271659 
L 466.36394 287.271659 
L 466.36394 287.271659 
L 466.36394 287.271659 
z
" clip-path="url(#p19cf0ec3ce)" style="fill: #e1812c; stroke: #3f3f3f; stroke-width: 1.25; stroke-linejoin: miter"/>
   </g>
   <g id="line2d_23">
    <path d="M 433.557638 213.051987 
L 433.557638 161.843833 
" clip-path="url(#p19cf0ec3ce)" style="fill: none; stroke: #3f3f3f; stroke-width: 1.875; stroke-linecap: round"/>
   </g>
   <g id="line2d_24">
    <path d="M 433.557638 201.646694 
L 433.557638 179.164175 
" clip-path="url(#p19cf0ec3ce)" style="fill: none; stroke: #3f3f3f; stroke-width: 5.625; stroke-linecap: round"/>
   </g>
   <g id="line2d_25">
    <path d="M 433.557638 193.296602 
" clip-path="url(#p19cf0ec3ce)" style="fill: none; stroke: #3f3f3f; stroke-width: 1.5; stroke-linecap: round"/>
    <g clip-path="url(#p19cf0ec3ce)">
     <use xlink:href="#m6c8353bad0" x="433.557638" y="193.296602" style="fill: #ffffff; stroke: #ffffff; stroke-width: 1.125"/>
    </g>
   </g>
   <g id="line2d_26">
    <path d="M 499.170241 237.081346 
L 499.170241 153.021072 
" clip-path="url(#p19cf0ec3ce)" style="fill: none; stroke: #3f3f3f; stroke-width: 1.875; stroke-linecap: round"/>
   </g>
   <g id="line2d_27">
    <path d="M 499.170241 211.338304 
L 499.170241 186.244192 
" clip-path="url(#p19cf0ec3ce)" style="fill: none; stroke: #3f3f3f; stroke-width: 5.625; stroke-linecap: round"/>
   </g>
   <g id="line2d_28">
    <path d="M 499.170241 199.63794 
" clip-path="url(#p19cf0ec3ce)" style="fill: none; stroke: #3f3f3f; stroke-width: 1.5; stroke-linecap: round"/>
    <g clip-path="url(#p19cf0ec3ce)">
     <use xlink:href="#m6c8353bad0" x="499.170241" y="199.63794" style="fill: #ffffff; stroke: #ffffff; stroke-width: 1.125"/>
    </g>
   </g>
   <g id="line2d_29">
    <path d="M 597.589145 231.523177 
L 597.589145 134.15539 
" clip-path="url(#p19cf0ec3ce)" style="fill: none; stroke: #3f3f3f; stroke-width: 1.875; stroke-linecap: round"/>
   </g>
   <g id="line2d_30">
    <path d="M 597.589145 205.68043 
L 597.589145 173.830669 
" clip-path="url(#p19cf0ec3ce)" style="fill: none; stroke: #3f3f3f; stroke-width: 5.625; stroke-linecap: round"/>
   </g>
   <g id="line2d_31">
    <path d="M 597.589145 179.704201 
" clip-path="url(#p19cf0ec3ce)" style="fill: none; stroke: #3f3f3f; stroke-width: 1.5; stroke-linecap: round"/>
    <g clip-path="url(#p19cf0ec3ce)">
     <use xlink:href="#m6c8353bad0" x="597.589145" y="179.704201" style="fill: #ffffff; stroke: #ffffff; stroke-width: 1.125"/>
    </g>
   </g>
   <g id="line2d_32">
    <path d="M 663.201748 216.562363 
L 663.201748 201.765644 
" clip-path="url(#p19cf0ec3ce)" style="fill: none; stroke: #3f3f3f; stroke-width: 1.875; stroke-linecap: round"/>
   </g>
   <g id="line2d_33">
    <path d="M 663.201748 215.062137 
L 663.201748 208.526334 
" clip-path="url(#p19cf0ec3ce)" style="fill: none; stroke: #3f3f3f; stroke-width: 5.625; stroke-linecap: round"/>
   </g>
   <g id="line2d_34">
    <path d="M 663.201748 213.479974 
" clip-path="url(#p19cf0ec3ce)" style="fill: none; stroke: #3f3f3f; stroke-width: 1.5; stroke-linecap: round"/>
    <g clip-path="url(#p19cf0ec3ce)">
     <use xlink:href="#m6c8353bad0" x="663.201748" y="213.479974" style="fill: #ffffff; stroke: #ffffff; stroke-width: 1.125"/>
    </g>
   </g>
   <g id="patch_8">
    <path d="M 384.348186 318.04 
L 384.348186 24.72 
" style="fill: none; stroke: #cccccc; stroke-width: 0.8; stroke-linejoin: miter; stroke-linecap: square"/>
   </g>
   <g id="patch_9">
    <path d="M 384.348186 318.04 
L 712.4112 318.04 
" style="fill: none; stroke: #cccccc; stroke-width: 0.8; stroke-linejoin: miter; stroke-linecap: square"/>
   </g>
   <g id="text_14">
    <!-- sex = m -->
    <g style="fill: #262626" transform="translate(530.735943 18.72) scale(0.1 -0.1)">
     <defs>
      <path id="ArialMT-6d" d="M 422 0 
L 422 3319 
L 925 3319 
L 925 2853 
Q 1081 3097 1340 3245 
Q 1600 3394 1931 3394 
Q 2300 3394 2536 3241 
Q 2772 3088 2869 2813 
Q 3263 3394 3894 3394 
Q 4388 3394 4653 3120 
Q 4919 2847 4919 2278 
L 4919 0 
L 4359 0 
L 4359 2091 
Q 4359 2428 4304 2576 
Q 4250 2725 4106 2815 
Q 3963 2906 3769 2906 
Q 3419 2906 3187 2673 
Q 2956 2441 2956 1928 
L 2956 0 
L 2394 0 
L 2394 2156 
Q 2394 2531 2256 2718 
Q 2119 2906 1806 2906 
Q 1569 2906 1367 2781 
Q 1166 2656 1075 2415 
Q 984 2175 984 1722 
L 984 0 
L 422 0 
z
" transform="scale(0.015625)"/>
     </defs>
     <use xlink:href="#ArialMT-73"/>
     <use xlink:href="#ArialMT-65" x="50"/>
     <use xlink:href="#ArialMT-78" x="105.615234"/>
     <use xlink:href="#ArialMT-20" x="155.615234"/>
     <use xlink:href="#ArialMT-3d" x="183.398438"/>
     <use xlink:href="#ArialMT-20" x="241.796875"/>
     <use xlink:href="#ArialMT-6d" x="269.580078"/>
    </g>
   </g>
  </g>
  <g id="legend_1">
   <g id="text_15">
    <!-- time -->
    <g style="fill: #262626" transform="translate(725.045625 168.439844) scale(0.1 -0.1)">
     <use xlink:href="#ArialMT-74"/>
     <use xlink:href="#ArialMT-69" x="27.783203"/>
     <use xlink:href="#ArialMT-6d" x="50"/>
     <use xlink:href="#ArialMT-65" x="133.300781"/>
    </g>
   </g>
   <g id="patch_10">
    <path d="M 719.101875 182.585156 
L 739.101875 182.585156 
L 739.101875 175.585156 
L 719.101875 175.585156 
z
" style="fill: #3274a1; stroke: #3f3f3f; stroke-width: 1.25; stroke-linejoin: miter"/>
   </g>
   <g id="text_16">
    <!-- i -->
    <g style="fill: #262626" transform="translate(747.101875 182.585156) scale(0.1 -0.1)">
     <use xlink:href="#ArialMT-69"/>
    </g>
   </g>
   <g id="patch_11">
    <path d="M 719.101875 196.730469 
L 739.101875 196.730469 
L 739.101875 189.730469 
L 719.101875 189.730469 
z
" style="fill: #e1812c; stroke: #3f3f3f; stroke-width: 1.25; stroke-linejoin: miter"/>
   </g>
   <g id="text_17">
    <!-- f -->
    <g style="fill: #262626" transform="translate(747.101875 196.730469) scale(0.1 -0.1)">
     <use xlink:href="#ArialMT-66"/>
    </g>
   </g>
  </g>
 </g>
 <defs>
  <clipPath id="p3000b97e16">
   <rect x="45.470877" y="24.72" width="328.063014" height="293.32"/>
  </clipPath>
  <clipPath id="p19cf0ec3ce">
   <rect x="384.348186" y="24.72" width="328.063014" height="293.32"/>
  </clipPath>
 </defs>
</svg>
