<?xml version="1.0" encoding="utf-8" standalone="no"?>
<!DOCTYPE svg PUBLIC "-//W3C//DTD SVG 1.1//EN"
  "http://www.w3.org/Graphics/SVG/1.1/DTD/svg11.dtd">
<svg xmlns:xlink="http://www.w3.org/1999/xlink" width="758.88pt" height="360pt" viewBox="0 0 758.88 360" xmlns="http://www.w3.org/2000/svg" version="1.1">
 <metadata>
  <rdf:RDF xmlns:dc="http://purl.org/dc/elements/1.1/" xmlns:cc="http://creativecommons.org/ns#" xmlns:rdf="http://www.w3.org/1999/02/22-rdf-syntax-ns#">
   <cc:Work>
    <dc:type rdf:resource="http://purl.org/dc/dcmitype/StillImage"/>
    <dc:date>2024-09-11T03:22:38.989248</dc:date>
    <dc:format>image/svg+xml</dc:format>
    <dc:creator>
     <cc:Agent>
      <dc:title>Matplotlib v3.8.3, https://matplotlib.org/</dc:title>
     </cc:Agent>
    </dc:creator>
   </cc:Work>
  </rdf:RDF>
 </metadata>
 <defs>
  <style type="text/css">*{stroke-linejoin: round; stroke-linecap: butt}</style>
 </defs>
 <g id="figure_1">
  <g id="patch_1">
   <path d="M 0 360 
L 758.88 360 
L 758.88 0 
L 0 0 
z
" style="fill: #ffffff"/>
  </g>
  <g id="axes_1">
   <g id="patch_2">
    <path d="M 48.411538 318.04 
L 375.005418 318.04 
L 375.005418 24.72 
L 48.411538 24.72 
z
" style="fill: #ffffff"/>
   </g>
   <g id="matplotlib.axis_1">
    <g id="xtick_1">
     <g id="text_1">
      <!-- Jurilovca -->
      <g style="fill: #262626" transform="translate(110.331883 332.197812) scale(0.1 -0.1)">
       <defs>
        <path id="ArialMT-4a" d="M 184 1300 
L 731 1375 
Q 753 850 928 656 
Q 1103 463 1413 463 
Q 1641 463 1806 567 
Q 1972 672 2034 851 
Q 2097 1031 2097 1425 
L 2097 4581 
L 2703 4581 
L 2703 1459 
Q 2703 884 2564 568 
Q 2425 253 2123 87 
Q 1822 -78 1416 -78 
Q 813 -78 492 269 
Q 172 616 184 1300 
z
" transform="scale(0.015625)"/>
        <path id="ArialMT-75" d="M 2597 0 
L 2597 488 
Q 2209 -75 1544 -75 
Q 1250 -75 995 37 
Q 741 150 617 320 
Q 494 491 444 738 
Q 409 903 409 1263 
L 409 3319 
L 972 3319 
L 972 1478 
Q 972 1038 1006 884 
Q 1059 663 1231 536 
Q 1403 409 1656 409 
Q 1909 409 2131 539 
Q 2353 669 2445 892 
Q 2538 1116 2538 1541 
L 2538 3319 
L 3100 3319 
L 3100 0 
L 2597 0 
z
" transform="scale(0.015625)"/>
        <path id="ArialMT-72" d="M 416 0 
L 416 3319 
L 922 3319 
L 922 2816 
Q 1116 3169 1280 3281 
Q 1444 3394 1641 3394 
Q 1925 3394 2219 3213 
L 2025 2691 
Q 1819 2813 1613 2813 
Q 1428 2813 1281 2702 
Q 1134 2591 1072 2394 
Q 978 2094 978 1738 
L 978 0 
L 416 0 
z
" transform="scale(0.015625)"/>
        <path id="ArialMT-69" d="M 425 3934 
L 425 4581 
L 988 4581 
L 988 3934 
L 425 3934 
z
M 425 0 
L 425 3319 
L 988 3319 
L 988 0 
L 425 0 
z
" transform="scale(0.015625)"/>
        <path id="ArialMT-6c" d="M 409 0 
L 409 4581 
L 972 4581 
L 972 0 
L 409 0 
z
" transform="scale(0.015625)"/>
        <path id="ArialMT-6f" d="M 213 1659 
Q 213 2581 725 3025 
Q 1153 3394 1769 3394 
Q 2453 3394 2887 2945 
Q 3322 2497 3322 1706 
Q 3322 1066 3130 698 
Q 2938 331 2570 128 
Q 2203 -75 1769 -75 
Q 1072 -75 642 372 
Q 213 819 213 1659 
z
M 791 1659 
Q 791 1022 1069 705 
Q 1347 388 1769 388 
Q 2188 388 2466 706 
Q 2744 1025 2744 1678 
Q 2744 2294 2464 2611 
Q 2184 2928 1769 2928 
Q 1347 2928 1069 2612 
Q 791 2297 791 1659 
z
" transform="scale(0.015625)"/>
        <path id="ArialMT-76" d="M 1344 0 
L 81 3319 
L 675 3319 
L 1388 1331 
Q 1503 1009 1600 663 
Q 1675 925 1809 1294 
L 2547 3319 
L 3125 3319 
L 1869 0 
L 1344 0 
z
" transform="scale(0.015625)"/>
        <path id="ArialMT-63" d="M 2588 1216 
L 3141 1144 
Q 3050 572 2676 248 
Q 2303 -75 1759 -75 
Q 1078 -75 664 370 
Q 250 816 250 1647 
Q 250 2184 428 2587 
Q 606 2991 970 3192 
Q 1334 3394 1763 3394 
Q 2303 3394 2647 3120 
Q 2991 2847 3088 2344 
L 2541 2259 
Q 2463 2594 2264 2762 
Q 2066 2931 1784 2931 
Q 1359 2931 1093 2626 
Q 828 2322 828 1663 
Q 828 994 1084 691 
Q 1341 388 1753 388 
Q 2084 388 2306 591 
Q 2528 794 2588 1216 
z
" transform="scale(0.015625)"/>
        <path id="ArialMT-61" d="M 2588 409 
Q 2275 144 1986 34 
Q 1697 -75 1366 -75 
Q 819 -75 525 192 
Q 231 459 231 875 
Q 231 1119 342 1320 
Q 453 1522 633 1644 
Q 813 1766 1038 1828 
Q 1203 1872 1538 1913 
Q 2219 1994 2541 2106 
Q 2544 2222 2544 2253 
Q 2544 2597 2384 2738 
Q 2169 2928 1744 2928 
Q 1347 2928 1158 2789 
Q 969 2650 878 2297 
L 328 2372 
Q 403 2725 575 2942 
Q 747 3159 1072 3276 
Q 1397 3394 1825 3394 
Q 2250 3394 2515 3294 
Q 2781 3194 2906 3042 
Q 3031 2891 3081 2659 
Q 3109 2516 3109 2141 
L 3109 1391 
Q 3109 606 3145 398 
Q 3181 191 3288 0 
L 2700 0 
Q 2613 175 2588 409 
z
M 2541 1666 
Q 2234 1541 1622 1453 
Q 1275 1403 1131 1340 
Q 988 1278 909 1158 
Q 831 1038 831 891 
Q 831 666 1001 516 
Q 1172 366 1500 366 
Q 1825 366 2078 508 
Q 2331 650 2450 897 
Q 2541 1088 2541 1459 
L 2541 1666 
z
" transform="scale(0.015625)"/>
       </defs>
       <use xlink:href="#ArialMT-4a"/>
       <use xlink:href="#ArialMT-75" x="50"/>
       <use xlink:href="#ArialMT-72" x="105.615234"/>
       <use xlink:href="#ArialMT-69" x="138.916016"/>
       <use xlink:href="#ArialMT-6c" x="161.132812"/>
       <use xlink:href="#ArialMT-6f" x="183.349609"/>
       <use xlink:href="#ArialMT-76" x="238.964844"/>
       <use xlink:href="#ArialMT-63" x="288.964844"/>
       <use xlink:href="#ArialMT-61" x="338.964844"/>
      </g>
     </g>
    </g>
    <g id="xtick_2">
     <g id="text_2">
      <!-- Baia -->
      <g style="fill: #262626" transform="translate(283.349917 332.197812) scale(0.1 -0.1)">
       <defs>
        <path id="ArialMT-42" d="M 469 0 
L 469 4581 
L 2188 4581 
Q 2713 4581 3030 4442 
Q 3347 4303 3526 4014 
Q 3706 3725 3706 3409 
Q 3706 3116 3547 2856 
Q 3388 2597 3066 2438 
Q 3481 2316 3704 2022 
Q 3928 1728 3928 1328 
Q 3928 1006 3792 729 
Q 3656 453 3456 303 
Q 3256 153 2954 76 
Q 2653 0 2216 0 
L 469 0 
z
M 1075 2656 
L 2066 2656 
Q 2469 2656 2644 2709 
Q 2875 2778 2992 2937 
Q 3109 3097 3109 3338 
Q 3109 3566 3000 3739 
Q 2891 3913 2687 3977 
Q 2484 4041 1991 4041 
L 1075 4041 
L 1075 2656 
z
M 1075 541 
L 2216 541 
Q 2509 541 2628 563 
Q 2838 600 2978 687 
Q 3119 775 3209 942 
Q 3300 1109 3300 1328 
Q 3300 1584 3169 1773 
Q 3038 1963 2805 2039 
Q 2572 2116 2134 2116 
L 1075 2116 
L 1075 541 
z
" transform="scale(0.015625)"/>
       </defs>
       <use xlink:href="#ArialMT-42"/>
       <use xlink:href="#ArialMT-61" x="66.699219"/>
       <use xlink:href="#ArialMT-69" x="122.314453"/>
       <use xlink:href="#ArialMT-61" x="144.53125"/>
      </g>
     </g>
    </g>
    <g id="text_3">
     <!-- location -->
     <g style="fill: #262626" transform="translate(194.475665 345.343125) scale(0.1 -0.1)">
      <defs>
       <path id="ArialMT-74" d="M 1650 503 
L 1731 6 
Q 1494 -44 1306 -44 
Q 1000 -44 831 53 
Q 663 150 594 308 
Q 525 466 525 972 
L 525 2881 
L 113 2881 
L 113 3319 
L 525 3319 
L 525 4141 
L 1084 4478 
L 1084 3319 
L 1650 3319 
L 1650 2881 
L 1084 2881 
L 1084 941 
Q 1084 700 1114 631 
Q 1144 563 1211 522 
Q 1278 481 1403 481 
Q 1497 481 1650 503 
z
" transform="scale(0.015625)"/>
       <path id="ArialMT-6e" d="M 422 0 
L 422 3319 
L 928 3319 
L 928 2847 
Q 1294 3394 1984 3394 
Q 2284 3394 2536 3286 
Q 2788 3178 2913 3003 
Q 3038 2828 3088 2588 
Q 3119 2431 3119 2041 
L 3119 0 
L 2556 0 
L 2556 2019 
Q 2556 2363 2490 2533 
Q 2425 2703 2258 2804 
Q 2091 2906 1866 2906 
Q 1506 2906 1245 2678 
Q 984 2450 984 1813 
L 984 0 
L 422 0 
z
" transform="scale(0.015625)"/>
      </defs>
      <use xlink:href="#ArialMT-6c"/>
      <use xlink:href="#ArialMT-6f" x="22.216797"/>
      <use xlink:href="#ArialMT-63" x="77.832031"/>
      <use xlink:href="#ArialMT-61" x="127.832031"/>
      <use xlink:href="#ArialMT-74" x="183.447266"/>
      <use xlink:href="#ArialMT-69" x="211.230469"/>
      <use xlink:href="#ArialMT-6f" x="233.447266"/>
      <use xlink:href="#ArialMT-6e" x="289.0625"/>
     </g>
    </g>
   </g>
   <g id="matplotlib.axis_2">
    <g id="ytick_1">
     <g id="line2d_1">
      <path d="M 48.411538 291.967618 
L 375.005418 291.967618 
" clip-path="url(#pc812d2dba4)" style="fill: none; stroke: #cccccc; stroke-width: 0.8; stroke-linecap: round"/>
     </g>
     <g id="text_4">
      <!-- 0.0 -->
      <g style="fill: #262626" transform="translate(27.511538 295.546524) scale(0.1 -0.1)">
       <defs>
        <path id="ArialMT-30" d="M 266 2259 
Q 266 3072 433 3567 
Q 600 4063 929 4331 
Q 1259 4600 1759 4600 
Q 2128 4600 2406 4451 
Q 2684 4303 2865 4023 
Q 3047 3744 3150 3342 
Q 3253 2941 3253 2259 
Q 3253 1453 3087 958 
Q 2922 463 2592 192 
Q 2263 -78 1759 -78 
Q 1097 -78 719 397 
Q 266 969 266 2259 
z
M 844 2259 
Q 844 1131 1108 757 
Q 1372 384 1759 384 
Q 2147 384 2411 759 
Q 2675 1134 2675 2259 
Q 2675 3391 2411 3762 
Q 2147 4134 1753 4134 
Q 1366 4134 1134 3806 
Q 844 3388 844 2259 
z
" transform="scale(0.015625)"/>
        <path id="ArialMT-2e" d="M 581 0 
L 581 641 
L 1222 641 
L 1222 0 
L 581 0 
z
" transform="scale(0.015625)"/>
       </defs>
       <use xlink:href="#ArialMT-30"/>
       <use xlink:href="#ArialMT-2e" x="55.615234"/>
       <use xlink:href="#ArialMT-30" x="83.398438"/>
      </g>
     </g>
    </g>
    <g id="ytick_2">
     <g id="line2d_2">
      <path d="M 48.411538 235.570456 
L 375.005418 235.570456 
" clip-path="url(#pc812d2dba4)" style="fill: none; stroke: #cccccc; stroke-width: 0.8; stroke-linecap: round"/>
     </g>
     <g id="text_5">
      <!-- 0.5 -->
      <g style="fill: #262626" transform="translate(27.511538 239.149363) scale(0.1 -0.1)">
       <defs>
        <path id="ArialMT-35" d="M 266 1200 
L 856 1250 
Q 922 819 1161 601 
Q 1400 384 1738 384 
Q 2144 384 2425 690 
Q 2706 997 2706 1503 
Q 2706 1984 2436 2262 
Q 2166 2541 1728 2541 
Q 1456 2541 1237 2417 
Q 1019 2294 894 2097 
L 366 2166 
L 809 4519 
L 3088 4519 
L 3088 3981 
L 1259 3981 
L 1013 2750 
Q 1425 3038 1878 3038 
Q 2478 3038 2890 2622 
Q 3303 2206 3303 1553 
Q 3303 931 2941 478 
Q 2500 -78 1738 -78 
Q 1113 -78 717 272 
Q 322 622 266 1200 
z
" transform="scale(0.015625)"/>
       </defs>
       <use xlink:href="#ArialMT-30"/>
       <use xlink:href="#ArialMT-2e" x="55.615234"/>
       <use xlink:href="#ArialMT-35" x="83.398438"/>
      </g>
     </g>
    </g>
    <g id="ytick_3">
     <g id="line2d_3">
      <path d="M 48.411538 179.173295 
L 375.005418 179.173295 
" clip-path="url(#pc812d2dba4)" style="fill: none; stroke: #cccccc; stroke-width: 0.8; stroke-linecap: round"/>
     </g>
     <g id="text_6">
      <!-- 1.0 -->
      <g style="fill: #262626" transform="translate(27.511538 182.752201) scale(0.1 -0.1)">
       <defs>
        <path id="ArialMT-31" d="M 2384 0 
L 1822 0 
L 1822 3584 
Q 1619 3391 1289 3197 
Q 959 3003 697 2906 
L 697 3450 
Q 1169 3672 1522 3987 
Q 1875 4303 2022 4600 
L 2384 4600 
L 2384 0 
z
" transform="scale(0.015625)"/>
       </defs>
       <use xlink:href="#ArialMT-31"/>
       <use xlink:href="#ArialMT-2e" x="55.615234"/>
       <use xlink:href="#ArialMT-30" x="83.398438"/>
      </g>
     </g>
    </g>
    <g id="ytick_4">
     <g id="line2d_4">
      <path d="M 48.411538 122.776133 
L 375.005418 122.776133 
" clip-path="url(#pc812d2dba4)" style="fill: none; stroke: #cccccc; stroke-width: 0.8; stroke-linecap: round"/>
     </g>
     <g id="text_7">
      <!-- 1.5 -->
      <g style="fill: #262626" transform="translate(27.511538 126.35504) scale(0.1 -0.1)">
       <use xlink:href="#ArialMT-31"/>
       <use xlink:href="#ArialMT-2e" x="55.615234"/>
       <use xlink:href="#ArialMT-35" x="83.398438"/>
      </g>
     </g>
    </g>
    <g id="ytick_5">
     <g id="line2d_5">
      <path d="M 48.411538 66.378972 
L 375.005418 66.378972 
" clip-path="url(#pc812d2dba4)" style="fill: none; stroke: #cccccc; stroke-width: 0.8; stroke-linecap: round"/>
     </g>
     <g id="text_8">
      <!-- 2.0 -->
      <g style="fill: #262626" transform="translate(27.511538 69.957878) scale(0.1 -0.1)">
       <defs>
        <path id="ArialMT-32" d="M 3222 541 
L 3222 0 
L 194 0 
Q 188 203 259 391 
Q 375 700 629 1000 
Q 884 1300 1366 1694 
Q 2113 2306 2375 2664 
Q 2638 3022 2638 3341 
Q 2638 3675 2398 3904 
Q 2159 4134 1775 4134 
Q 1369 4134 1125 3890 
Q 881 3647 878 3216 
L 300 3275 
Q 359 3922 746 4261 
Q 1134 4600 1788 4600 
Q 2447 4600 2831 4234 
Q 3216 3869 3216 3328 
Q 3216 3053 3103 2787 
Q 2991 2522 2730 2228 
Q 2469 1934 1863 1422 
Q 1356 997 1212 845 
Q 1069 694 975 541 
L 3222 541 
z
" transform="scale(0.015625)"/>
       </defs>
       <use xlink:href="#ArialMT-32"/>
       <use xlink:href="#ArialMT-2e" x="55.615234"/>
       <use xlink:href="#ArialMT-30" x="83.398438"/>
      </g>
     </g>
    </g>
    <g id="text_9">
     <!-- vco2 -->
     <g style="fill: #262626" transform="translate(21.524038 181.940937) rotate(-90) scale(0.1 -0.1)">
      <use xlink:href="#ArialMT-76"/>
      <use xlink:href="#ArialMT-63" x="50"/>
      <use xlink:href="#ArialMT-6f" x="100"/>
      <use xlink:href="#ArialMT-32" x="155.615234"/>
     </g>
    </g>
   </g>
   <g id="PolyCollection_1">
    <defs>
     <path id="ma6390ef8f5" d="M 98.428731 -105.156844 
L 96.372508 -105.156844 
L 96.202767 -106.266 
L 96.013342 -107.375156 
L 95.803551 -108.484312 
L 95.572985 -109.593467 
L 95.321563 -110.702623 
L 95.049571 -111.811779 
L 94.757704 -112.920935 
L 94.447094 -114.030091 
L 94.119322 -115.139247 
L 93.776427 -116.248402 
L 93.420889 -117.357558 
L 93.055602 -118.466714 
L 92.683822 -119.57587 
L 92.309104 -120.685026 
L 91.935219 -121.794181 
L 91.566051 -122.903337 
L 91.205488 -124.012493 
L 90.857298 -125.121649 
L 90.525002 -126.230805 
L 90.211743 -127.339961 
L 89.920156 -128.449116 
L 89.652258 -129.558272 
L 89.409337 -130.667428 
L 89.191866 -131.776584 
L 88.999444 -132.88574 
L 88.830749 -133.994896 
L 88.683536 -135.104051 
L 88.554649 -136.213207 
L 88.440071 -137.322363 
L 88.334998 -138.431519 
L 88.233938 -139.540675 
L 88.130837 -140.64983 
L 88.019212 -141.758986 
L 87.892314 -142.868142 
L 87.743278 -143.977298 
L 87.565296 -145.086454 
L 87.351771 -146.19561 
L 87.096476 -147.304765 
L 86.793693 -148.413921 
L 86.438349 -149.523077 
L 86.026126 -150.632233 
L 85.553558 -151.741389 
L 85.018116 -152.850545 
L 84.418269 -153.9597 
L 83.753534 -155.068856 
L 83.024514 -156.178012 
L 82.23292 -157.287168 
L 81.381585 -158.396324 
L 80.474472 -159.50548 
L 79.51667 -160.614635 
L 78.51438 -161.723791 
L 77.474895 -162.832947 
L 76.406569 -163.942103 
L 75.318771 -165.051259 
L 74.221821 -166.160414 
L 73.126907 -167.26957 
L 72.045983 -168.378726 
L 70.991636 -169.487882 
L 69.976931 -170.597038 
L 69.015221 -171.706194 
L 68.11994 -172.815349 
L 67.304363 -173.924505 
L 66.581351 -175.033661 
L 65.963074 -176.142817 
L 65.460739 -177.251973 
L 65.084309 -178.361129 
L 64.842238 -179.470284 
L 64.741232 -180.57944 
L 64.786029 -181.688596 
L 64.979241 -182.797752 
L 65.321223 -183.906908 
L 65.81002 -185.016063 
L 66.44136 -186.125219 
L 67.208715 -187.234375 
L 68.103432 -188.343531 
L 69.11491 -189.452687 
L 70.230843 -190.561843 
L 71.437505 -191.670998 
L 72.720068 -192.780154 
L 74.062946 -193.88931 
L 75.450158 -194.998466 
L 76.865682 -196.107622 
L 78.293802 -197.216778 
L 79.719431 -198.325933 
L 81.1284 -199.435089 
L 82.507708 -200.544245 
L 83.845725 -201.653401 
L 85.132339 -202.762557 
L 86.359061 -203.871713 
L 87.519065 -204.980868 
L 88.607194 -206.090024 
L 89.619906 -207.19918 
L 90.555194 -208.308336 
L 91.412464 -209.417492 
L 92.192397 -210.526647 
L 92.896781 -211.635803 
L 93.528343 -212.744959 
L 94.090574 -213.854115 
L 94.587552 -214.963271 
L 100.213687 -214.963271 
L 100.213687 -214.963271 
L 100.710666 -213.854115 
L 101.272896 -212.744959 
L 101.904458 -211.635803 
L 102.608842 -210.526647 
L 103.388775 -209.417492 
L 104.246046 -208.308336 
L 105.181333 -207.19918 
L 106.194045 -206.090024 
L 107.282174 -204.980868 
L 108.442178 -203.871713 
L 109.6689 -202.762557 
L 110.955514 -201.653401 
L 112.293531 -200.544245 
L 113.67284 -199.435089 
L 115.081809 -198.325933 
L 116.507437 -197.216778 
L 117.935557 -196.107622 
L 119.351081 -194.998466 
L 120.738293 -193.88931 
L 122.081172 -192.780154 
L 123.363734 -191.670998 
L 124.570396 -190.561843 
L 125.686329 -189.452687 
L 126.697807 -188.343531 
L 127.592524 -187.234375 
L 128.359879 -186.125219 
L 128.991219 -185.016063 
L 129.480016 -183.906908 
L 129.821999 -182.797752 
L 130.01521 -181.688596 
L 130.060008 -180.57944 
L 129.959001 -179.470284 
L 129.716931 -178.361129 
L 129.3405 -177.251973 
L 128.838165 -176.142817 
L 128.219888 -175.033661 
L 127.496876 -173.924505 
L 126.681299 -172.815349 
L 125.786018 -171.706194 
L 124.824309 -170.597038 
L 123.809603 -169.487882 
L 122.755256 -168.378726 
L 121.674332 -167.26957 
L 120.579418 -166.160414 
L 119.482468 -165.051259 
L 118.39467 -163.942103 
L 117.326344 -162.832947 
L 116.286859 -161.723791 
L 115.284569 -160.614635 
L 114.326767 -159.50548 
L 113.419654 -158.396324 
L 112.56832 -157.287168 
L 111.776725 -156.178012 
L 111.047705 -155.068856 
L 110.38297 -153.9597 
L 109.783123 -152.850545 
L 109.247681 -151.741389 
L 108.775113 -150.632233 
L 108.36289 -149.523077 
L 108.007546 -148.413921 
L 107.704763 -147.304765 
L 107.449468 -146.19561 
L 107.235943 -145.086454 
L 107.057961 -143.977298 
L 106.908925 -142.868142 
L 106.782027 -141.758986 
L 106.670403 -140.64983 
L 106.567301 -139.540675 
L 106.466241 -138.431519 
L 106.361168 -137.322363 
L 106.24659 -136.213207 
L 106.117703 -135.104051 
L 105.97049 -133.994896 
L 105.801796 -132.88574 
L 105.609373 -131.776584 
L 105.391902 -130.667428 
L 105.148981 -129.558272 
L 104.881083 -128.449116 
L 104.589497 -127.339961 
L 104.276237 -126.230805 
L 103.943941 -125.121649 
L 103.595751 -124.012493 
L 103.235188 -122.903337 
L 102.86602 -121.794181 
L 102.492135 -120.685026 
L 102.117417 -119.57587 
L 101.745637 -118.466714 
L 101.38035 -117.357558 
L 101.024812 -116.248402 
L 100.681917 -115.139247 
L 100.354145 -114.030091 
L 100.043535 -112.920935 
L 99.751668 -111.811779 
L 99.479677 -110.702623 
L 99.228254 -109.593467 
L 98.997688 -108.484312 
L 98.787897 -107.375156 
L 98.598472 -106.266 
L 98.428731 -105.156844 
z
" style="stroke: #3f3f3f; stroke-width: 1.25"/>
    </defs>
    <g clip-path="url(#pc812d2dba4)">
     <use xlink:href="#ma6390ef8f5" x="0" y="360" style="fill: #3274a1; stroke: #3f3f3f; stroke-width: 1.25"/>
    </g>
   </g>
   <g id="PolyCollection_2">
    <defs>
     <path id="m0b9b831878" d="M 165.21395 -85.889236 
L 160.224841 -85.889236 
L 159.81444 -87.684072 
L 159.353515 -89.478908 
L 158.839014 -91.273743 
L 158.268267 -93.068579 
L 157.63909 -94.863415 
L 156.949903 -96.65825 
L 156.19984 -98.453086 
L 155.388864 -100.247922 
L 154.517862 -102.042757 
L 153.588734 -103.837593 
L 152.604471 -105.632429 
L 151.569195 -107.427264 
L 150.488194 -109.2221 
L 149.367912 -111.016936 
L 148.215914 -112.811771 
L 147.04082 -114.606607 
L 145.8522 -116.401443 
L 144.660434 -118.196278 
L 143.476543 -119.991114 
L 142.311986 -121.78595 
L 141.178432 -123.580785 
L 140.08751 -125.375621 
L 139.050548 -127.170457 
L 138.078293 -128.965292 
L 137.18065 -130.760128 
L 136.366408 -132.554964 
L 135.643003 -134.349799 
L 135.01629 -136.144635 
L 134.490365 -137.939471 
L 134.067411 -139.734306 
L 133.747606 -141.529142 
L 133.529072 -143.323978 
L 133.407886 -145.118813 
L 133.378147 -146.913649 
L 133.432093 -148.708485 
L 133.56028 -150.50332 
L 133.751813 -152.298156 
L 133.99461 -154.092992 
L 134.275721 -155.887827 
L 134.581661 -157.682663 
L 134.898775 -159.477499 
L 135.213603 -161.272334 
L 135.513255 -163.06717 
L 135.78576 -164.862006 
L 136.020405 -166.656841 
L 136.208037 -168.451677 
L 136.341318 -170.246513 
L 136.414941 -172.041348 
L 136.425776 -173.836184 
L 136.372971 -175.63102 
L 136.257971 -177.425855 
L 136.084488 -179.220691 
L 135.858395 -181.015527 
L 135.587566 -182.810362 
L 135.281656 -184.605198 
L 134.951834 -186.400034 
L 134.610467 -188.19487 
L 134.270785 -189.989705 
L 133.94651 -191.784541 
L 133.651484 -193.579377 
L 133.399293 -195.374212 
L 133.202902 -197.169048 
L 133.074318 -198.963884 
L 133.024275 -200.758719 
L 133.061968 -202.553555 
L 133.194835 -204.348391 
L 133.428382 -206.143226 
L 133.766081 -207.938062 
L 134.20931 -209.732898 
L 134.757363 -211.527733 
L 135.407511 -213.322569 
L 136.155118 -215.117405 
L 136.993799 -216.91224 
L 137.915621 -218.707076 
L 138.91134 -220.501912 
L 139.970652 -222.296747 
L 141.082471 -224.091583 
L 142.235201 -225.886419 
L 143.417014 -227.681254 
L 144.616112 -229.47609 
L 145.820979 -231.270926 
L 147.020598 -233.065761 
L 148.204653 -234.860597 
L 149.363685 -236.655433 
L 150.489227 -238.450268 
L 151.573892 -240.245104 
L 152.611441 -242.03994 
L 153.596797 -243.834775 
L 154.526053 -245.629611 
L 155.396428 -247.424447 
L 156.206217 -249.219282 
L 156.954713 -251.014118 
L 157.642113 -252.808954 
L 158.269419 -254.603789 
L 158.838322 -256.398625 
L 159.351092 -258.193461 
L 159.810467 -259.988296 
L 160.219541 -261.783132 
L 160.581659 -263.577968 
L 164.857132 -263.577968 
L 164.857132 -263.577968 
L 165.219251 -261.783132 
L 165.628324 -259.988296 
L 166.087699 -258.193461 
L 166.60047 -256.398625 
L 167.169372 -254.603789 
L 167.796678 -252.808954 
L 168.484079 -251.014118 
L 169.232575 -249.219282 
L 170.042364 -247.424447 
L 170.912738 -245.629611 
L 171.841994 -243.834775 
L 172.827351 -242.03994 
L 173.864899 -240.245104 
L 174.949565 -238.450268 
L 176.075106 -236.655433 
L 177.234138 -234.860597 
L 178.418193 -233.065761 
L 179.617813 -231.270926 
L 180.822679 -229.47609 
L 182.021778 -227.681254 
L 183.20359 -225.886419 
L 184.35632 -224.091583 
L 185.468139 -222.296747 
L 186.527452 -220.501912 
L 187.52317 -218.707076 
L 188.444993 -216.91224 
L 189.283673 -215.117405 
L 190.03128 -213.322569 
L 190.681429 -211.527733 
L 191.229482 -209.732898 
L 191.672711 -207.938062 
L 192.010409 -206.143226 
L 192.243957 -204.348391 
L 192.376823 -202.553555 
L 192.414516 -200.758719 
L 192.364473 -198.963884 
L 192.235889 -197.169048 
L 192.039499 -195.374212 
L 191.787307 -193.579377 
L 191.492282 -191.784541 
L 191.168007 -189.989705 
L 190.828324 -188.19487 
L 190.486958 -186.400034 
L 190.157135 -184.605198 
L 189.851225 -182.810362 
L 189.580397 -181.015527 
L 189.354304 -179.220691 
L 189.18082 -177.425855 
L 189.06582 -175.63102 
L 189.013015 -173.836184 
L 189.023851 -172.041348 
L 189.097473 -170.246513 
L 189.230755 -168.451677 
L 189.418386 -166.656841 
L 189.653031 -164.862006 
L 189.925536 -163.06717 
L 190.225188 -161.272334 
L 190.540017 -159.477499 
L 190.857131 -157.682663 
L 191.163071 -155.887827 
L 191.444182 -154.092992 
L 191.686979 -152.298156 
L 191.878511 -150.50332 
L 192.006699 -148.708485 
L 192.060644 -146.913649 
L 192.030905 -145.118813 
L 191.90972 -143.323978 
L 191.691186 -141.529142 
L 191.37138 -139.734306 
L 190.948426 -137.939471 
L 190.422501 -136.144635 
L 189.795789 -134.349799 
L 189.072383 -132.554964 
L 188.258142 -130.760128 
L 187.360498 -128.965292 
L 186.388244 -127.170457 
L 185.351281 -125.375621 
L 184.26036 -123.580785 
L 183.126805 -121.78595 
L 181.962248 -119.991114 
L 180.778357 -118.196278 
L 179.586591 -116.401443 
L 178.397971 -114.606607 
L 177.222878 -112.811771 
L 176.07088 -111.016936 
L 174.950597 -109.2221 
L 173.869596 -107.427264 
L 172.834321 -105.632429 
L 171.850057 -103.837593 
L 170.92093 -102.042757 
L 170.049927 -100.247922 
L 169.238951 -98.453086 
L 168.488889 -96.65825 
L 167.799701 -94.863415 
L 167.170524 -93.068579 
L 166.599777 -91.273743 
L 166.085277 -89.478908 
L 165.624351 -87.684072 
L 165.21395 -85.889236 
z
" style="stroke: #3f3f3f; stroke-width: 1.25"/>
    </defs>
    <g clip-path="url(#pc812d2dba4)">
     <use xlink:href="#m0b9b831878" x="0" y="360" style="fill: #e1812c; stroke: #3f3f3f; stroke-width: 1.25"/>
    </g>
   </g>
   <g id="PolyCollection_3">
    <defs>
     <path id="madbc4fa54a" d="M 261.436629 -117.281966 
L 259.958491 -117.281966 
L 259.803252 -119.231544 
L 259.623373 -121.181122 
L 259.416771 -123.130699 
L 259.181574 -125.080277 
L 258.91621 -127.029855 
L 258.619503 -128.979433 
L 258.290761 -130.92901 
L 257.929869 -132.878588 
L 257.537356 -134.828166 
L 257.114463 -136.777743 
L 256.663172 -138.727321 
L 256.186223 -140.676899 
L 255.687096 -142.626477 
L 255.169955 -144.576054 
L 254.639571 -146.525632 
L 254.101199 -148.47521 
L 253.560437 -150.424787 
L 253.02305 -152.374365 
L 252.494782 -154.323943 
L 251.981151 -156.273521 
L 251.487251 -158.223098 
L 251.017549 -160.172676 
L 250.575712 -162.122254 
L 250.164457 -164.071831 
L 249.785435 -166.021409 
L 249.439167 -167.970987 
L 249.125025 -169.920565 
L 248.841263 -171.870142 
L 248.585111 -173.81972 
L 248.352909 -175.769298 
L 248.1403 -177.718876 
L 247.942449 -179.668453 
L 247.754304 -181.618031 
L 247.570865 -183.567609 
L 247.387465 -185.517186 
L 247.20004 -187.466764 
L 247.005378 -189.416342 
L 246.801334 -191.36592 
L 246.587 -193.315497 
L 246.362818 -195.265075 
L 246.130632 -197.214653 
L 245.893671 -199.16423 
L 245.656467 -201.113808 
L 245.424703 -203.063386 
L 245.204999 -205.012964 
L 245.004652 -206.962541 
L 244.83133 -208.912119 
L 244.692739 -210.861697 
L 244.596278 -212.811274 
L 244.548704 -214.760852 
L 244.555818 -216.71043 
L 244.622182 -218.660008 
L 244.750899 -220.609585 
L 244.943453 -222.559163 
L 245.19962 -224.508741 
L 245.517462 -226.458318 
L 245.893395 -228.407896 
L 246.32233 -230.357474 
L 246.797891 -232.307052 
L 247.31267 -234.256629 
L 247.858541 -236.206207 
L 248.426982 -238.155785 
L 249.009415 -240.105362 
L 249.597523 -242.05494 
L 250.18355 -244.004518 
L 250.76055 -245.954096 
L 251.322586 -247.903673 
L 251.864868 -249.853251 
L 252.383822 -251.802829 
L 252.877103 -253.752406 
L 253.343536 -255.701984 
L 253.783013 -257.651562 
L 254.19634 -259.60114 
L 254.585061 -261.550717 
L 254.951256 -263.500295 
L 255.297338 -265.449873 
L 255.625856 -267.399451 
L 255.939317 -269.349028 
L 256.240033 -271.298606 
L 256.530001 -273.248184 
L 256.81082 -275.197761 
L 257.083642 -277.147339 
L 257.349161 -279.096917 
L 257.607634 -281.046495 
L 257.858926 -282.996072 
L 258.102575 -284.94565 
L 258.337872 -286.895228 
L 258.563948 -288.844805 
L 258.779859 -290.794383 
L 258.984668 -292.743961 
L 259.177514 -294.693539 
L 259.357671 -296.643116 
L 259.524593 -298.592694 
L 259.677939 -300.542272 
L 259.817591 -302.491849 
L 259.943648 -304.441427 
L 260.056418 -306.391005 
L 260.156392 -308.340583 
L 260.244224 -310.29016 
L 261.150896 -310.29016 
L 261.150896 -310.29016 
L 261.238727 -308.340583 
L 261.338702 -306.391005 
L 261.451471 -304.441427 
L 261.577528 -302.491849 
L 261.71718 -300.542272 
L 261.870527 -298.592694 
L 262.037449 -296.643116 
L 262.217606 -294.693539 
L 262.410452 -292.743961 
L 262.615261 -290.794383 
L 262.831172 -288.844805 
L 263.057248 -286.895228 
L 263.292545 -284.94565 
L 263.536193 -282.996072 
L 263.787485 -281.046495 
L 264.045959 -279.096917 
L 264.311478 -277.147339 
L 264.5843 -275.197761 
L 264.865118 -273.248184 
L 265.155087 -271.298606 
L 265.455803 -269.349028 
L 265.769264 -267.399451 
L 266.097782 -265.449873 
L 266.443864 -263.500295 
L 266.810059 -261.550717 
L 267.19878 -259.60114 
L 267.612107 -257.651562 
L 268.051583 -255.701984 
L 268.518016 -253.752406 
L 269.011297 -251.802829 
L 269.530252 -249.853251 
L 270.072533 -247.903673 
L 270.634569 -245.954096 
L 271.211569 -244.004518 
L 271.797597 -242.05494 
L 272.385705 -240.105362 
L 272.968137 -238.155785 
L 273.536579 -236.206207 
L 274.082449 -234.256629 
L 274.597229 -232.307052 
L 275.072789 -230.357474 
L 275.501725 -228.407896 
L 275.877657 -226.458318 
L 276.195499 -224.508741 
L 276.451667 -222.559163 
L 276.644221 -220.609585 
L 276.772938 -218.660008 
L 276.839302 -216.71043 
L 276.846415 -214.760852 
L 276.798842 -212.811274 
L 276.702381 -210.861697 
L 276.563789 -208.912119 
L 276.390467 -206.962541 
L 276.190121 -205.012964 
L 275.970417 -203.063386 
L 275.738652 -201.113808 
L 275.501449 -199.16423 
L 275.264488 -197.214653 
L 275.032302 -195.265075 
L 274.80812 -193.315497 
L 274.593786 -191.36592 
L 274.389742 -189.416342 
L 274.19508 -187.466764 
L 274.007655 -185.517186 
L 273.824255 -183.567609 
L 273.640816 -181.618031 
L 273.452671 -179.668453 
L 273.25482 -177.718876 
L 273.042211 -175.769298 
L 272.810009 -173.81972 
L 272.553856 -171.870142 
L 272.270095 -169.920565 
L 271.955952 -167.970987 
L 271.609685 -166.021409 
L 271.230663 -164.071831 
L 270.819407 -162.122254 
L 270.37757 -160.172676 
L 269.907869 -158.223098 
L 269.413968 -156.273521 
L 268.900338 -154.323943 
L 268.37207 -152.374365 
L 267.834682 -150.424787 
L 267.29392 -148.47521 
L 266.755549 -146.525632 
L 266.225164 -144.576054 
L 265.708024 -142.626477 
L 265.208896 -140.676899 
L 264.731948 -138.727321 
L 264.280657 -136.777743 
L 263.857763 -134.828166 
L 263.465251 -132.878588 
L 263.104358 -130.92901 
L 262.775617 -128.979433 
L 262.47891 -127.029855 
L 262.213546 -125.080277 
L 261.978349 -123.130699 
L 261.771747 -121.181122 
L 261.591868 -119.231544 
L 261.436629 -117.281966 
z
" style="stroke: #3f3f3f; stroke-width: 1.25"/>
    </defs>
    <g clip-path="url(#pc812d2dba4)">
     <use xlink:href="#madbc4fa54a" x="0" y="360" style="fill: #3274a1; stroke: #3f3f3f; stroke-width: 1.25"/>
    </g>
   </g>
   <g id="PolyCollection_4">
    <defs>
     <path id="m1f2bf159e0" d="M 326.922917 -72.068985 
L 325.109755 -72.068985 
L 324.92349 -74.354092 
L 324.709409 -76.639199 
L 324.465622 -78.924306 
L 324.19053 -81.209413 
L 323.882885 -83.49452 
L 323.541842 -85.779627 
L 323.166986 -88.064734 
L 322.758337 -90.349841 
L 322.316333 -92.634948 
L 321.841772 -94.920055 
L 321.335739 -97.205162 
L 320.799499 -99.490269 
L 320.234373 -101.775376 
L 319.641606 -104.060483 
L 319.022235 -106.345589 
L 318.376963 -108.630696 
L 317.706066 -110.915803 
L 317.009333 -113.20091 
L 316.286053 -115.486017 
L 315.535055 -117.771124 
L 314.754812 -120.056231 
L 313.943594 -122.341338 
L 313.099675 -124.626445 
L 312.221584 -126.911552 
L 311.308368 -129.196659 
L 310.359871 -131.481766 
L 309.376991 -133.766873 
L 308.3619 -136.05198 
L 307.318208 -138.337087 
L 306.251055 -140.622194 
L 305.167112 -142.907301 
L 304.074501 -145.192408 
L 302.982621 -147.477515 
L 301.901893 -149.762622 
L 300.843446 -152.047729 
L 299.818748 -154.332836 
L 298.839226 -156.617943 
L 297.915877 -158.90305 
L 297.058913 -161.188157 
L 296.277455 -163.473263 
L 295.579285 -165.75837 
L 294.970681 -168.043477 
L 294.456339 -170.328584 
L 294.03936 -172.613691 
L 293.721328 -174.898798 
L 293.502436 -177.183905 
L 293.381658 -179.469012 
L 293.356948 -181.754119 
L 293.42544 -184.039226 
L 293.583641 -186.324333 
L 293.827598 -188.60944 
L 294.153028 -190.894547 
L 294.555406 -193.179654 
L 295.030026 -195.464761 
L 295.572011 -197.749868 
L 296.176313 -200.034975 
L 296.837687 -202.320082 
L 297.550674 -204.605189 
L 298.309585 -206.890296 
L 299.108511 -209.175403 
L 299.941358 -211.46051 
L 300.801909 -213.745617 
L 301.683926 -216.030724 
L 302.581264 -218.315831 
L 303.488011 -220.600937 
L 304.398633 -222.886044 
L 305.30811 -225.171151 
L 306.212053 -227.456258 
L 307.106802 -229.741365 
L 307.989471 -232.026472 
L 308.857962 -234.311579 
L 309.710923 -236.596686 
L 310.547673 -238.881793 
L 311.368081 -241.1669 
L 312.172415 -243.452007 
L 312.961181 -245.737114 
L 313.734949 -248.022221 
L 314.494195 -250.307328 
L 315.239152 -252.592435 
L 315.969702 -254.877542 
L 316.685301 -257.162649 
L 317.384943 -259.447756 
L 318.067172 -261.732863 
L 318.730129 -264.01797 
L 319.371633 -266.303077 
L 319.989297 -268.588184 
L 320.580647 -270.873291 
L 321.14326 -273.158398 
L 321.67489 -275.443504 
L 322.173593 -277.728611 
L 322.637817 -280.013718 
L 323.066486 -282.298825 
L 323.459039 -284.583932 
L 323.815456 -286.869039 
L 324.136241 -289.154146 
L 324.422397 -291.439253 
L 324.675366 -293.72436 
L 324.896965 -296.009467 
L 325.089304 -298.294574 
L 326.943368 -298.294574 
L 326.943368 -298.294574 
L 327.135707 -296.009467 
L 327.357306 -293.72436 
L 327.610275 -291.439253 
L 327.896431 -289.154146 
L 328.217216 -286.869039 
L 328.573633 -284.583932 
L 328.966186 -282.298825 
L 329.394855 -280.013718 
L 329.859079 -277.728611 
L 330.357781 -275.443504 
L 330.889412 -273.158398 
L 331.452024 -270.873291 
L 332.043375 -268.588184 
L 332.661038 -266.303077 
L 333.302543 -264.01797 
L 333.9655 -261.732863 
L 334.647729 -259.447756 
L 335.347371 -257.162649 
L 336.06297 -254.877542 
L 336.79352 -252.592435 
L 337.538477 -250.307328 
L 338.297723 -248.022221 
L 339.071491 -245.737114 
L 339.860257 -243.452007 
L 340.664591 -241.1669 
L 341.484998 -238.881793 
L 342.321749 -236.596686 
L 343.17471 -234.311579 
L 344.043201 -232.026472 
L 344.92587 -229.741365 
L 345.820618 -227.456258 
L 346.724562 -225.171151 
L 347.634038 -222.886044 
L 348.544661 -220.600937 
L 349.451408 -218.315831 
L 350.348746 -216.030724 
L 351.230763 -213.745617 
L 352.091314 -211.46051 
L 352.92416 -209.175403 
L 353.723087 -206.890296 
L 354.481998 -204.605189 
L 355.194985 -202.320082 
L 355.856359 -200.034975 
L 356.460661 -197.749868 
L 357.002646 -195.464761 
L 357.477266 -193.179654 
L 357.879644 -190.894547 
L 358.205073 -188.60944 
L 358.449031 -186.324333 
L 358.607232 -184.039226 
L 358.675724 -181.754119 
L 358.651014 -179.469012 
L 358.530236 -177.183905 
L 358.311344 -174.898798 
L 357.993312 -172.613691 
L 357.576333 -170.328584 
L 357.061991 -168.043477 
L 356.453387 -165.75837 
L 355.755217 -163.473263 
L 354.973758 -161.188157 
L 354.116795 -158.90305 
L 353.193446 -156.617943 
L 352.213924 -154.332836 
L 351.189226 -152.047729 
L 350.130778 -149.762622 
L 349.050051 -147.477515 
L 347.95817 -145.192408 
L 346.86556 -142.907301 
L 345.781617 -140.622194 
L 344.714463 -138.337087 
L 343.670772 -136.05198 
L 342.655681 -133.766873 
L 341.672801 -131.481766 
L 340.724304 -129.196659 
L 339.811088 -126.911552 
L 338.932997 -124.626445 
L 338.089078 -122.341338 
L 337.27786 -120.056231 
L 336.497617 -117.771124 
L 335.746619 -115.486017 
L 335.023339 -113.20091 
L 334.326606 -110.915803 
L 333.655709 -108.630696 
L 333.010437 -106.345589 
L 332.391066 -104.060483 
L 331.798299 -101.775376 
L 331.233173 -99.490269 
L 330.696933 -97.205162 
L 330.1909 -94.920055 
L 329.716339 -92.634948 
L 329.274335 -90.349841 
L 328.865686 -88.064734 
L 328.49083 -85.779627 
L 328.149786 -83.49452 
L 327.842142 -81.209413 
L 327.56705 -78.924306 
L 327.323263 -76.639199 
L 327.109182 -74.354092 
L 326.922917 -72.068985 
z
" style="stroke: #3f3f3f; stroke-width: 1.25"/>
    </defs>
    <g clip-path="url(#pc812d2dba4)">
     <use xlink:href="#m1f2bf159e0" x="0" y="360" style="fill: #e1812c; stroke: #3f3f3f; stroke-width: 1.25"/>
    </g>
   </g>
   <g id="line2d_6">
    <path d="M 97.40062 196.274287 
L 97.40062 173.561218 
" clip-path="url(#pc812d2dba4)" style="fill: none; stroke: #3f3f3f; stroke-width: 1.875; stroke-linecap: round"/>
   </g>
   <g id="line2d_7">
    <path d="M 97.40062 193.046542 
L 97.40062 175.351096 
" clip-path="url(#pc812d2dba4)" style="fill: none; stroke: #3f3f3f; stroke-width: 5.625; stroke-linecap: round"/>
   </g>
   <g id="line2d_8">
    <path d="M 97.40062 179.454186 
" clip-path="url(#pc812d2dba4)" style="fill: none; stroke: #3f3f3f; stroke-width: 1.5; stroke-linecap: round"/>
    <defs>
     <path id="mc041a32a6f" d="M 2.34375 0 
L -2.34375 -0 
" style="stroke: #ffffff; stroke-width: 1.125"/>
    </defs>
    <g clip-path="url(#pc812d2dba4)">
     <use xlink:href="#mc041a32a6f" x="97.40062" y="179.454186" style="fill: #ffffff; stroke: #ffffff; stroke-width: 1.125"/>
    </g>
   </g>
   <g id="line2d_9">
    <path d="M 162.719396 224.670385 
L 162.719396 145.862411 
" clip-path="url(#pc812d2dba4)" style="fill: none; stroke: #3f3f3f; stroke-width: 1.875; stroke-linecap: round"/>
   </g>
   <g id="line2d_10">
    <path d="M 162.719396 217.340124 
L 162.719396 157.29715 
" clip-path="url(#pc812d2dba4)" style="fill: none; stroke: #3f3f3f; stroke-width: 5.625; stroke-linecap: round"/>
   </g>
   <g id="line2d_11">
    <path d="M 162.719396 184.749663 
" clip-path="url(#pc812d2dba4)" style="fill: none; stroke: #3f3f3f; stroke-width: 1.5; stroke-linecap: round"/>
    <g clip-path="url(#pc812d2dba4)">
     <use xlink:href="#mc041a32a6f" x="162.719396" y="184.749663" style="fill: #ffffff; stroke: #ffffff; stroke-width: 1.125"/>
    </g>
   </g>
   <g id="line2d_12">
    <path d="M 260.69756 199.092417 
L 260.69756 93.335457 
" clip-path="url(#pc812d2dba4)" style="fill: none; stroke: #3f3f3f; stroke-width: 1.875; stroke-linecap: round"/>
   </g>
   <g id="line2d_13">
    <path d="M 260.69756 181.40549 
L 260.69756 135.871045 
" clip-path="url(#pc812d2dba4)" style="fill: none; stroke: #3f3f3f; stroke-width: 5.625; stroke-linecap: round"/>
   </g>
   <g id="line2d_14">
    <path d="M 260.69756 145.027106 
" clip-path="url(#pc812d2dba4)" style="fill: none; stroke: #3f3f3f; stroke-width: 1.5; stroke-linecap: round"/>
    <g clip-path="url(#pc812d2dba4)">
     <use xlink:href="#mc041a32a6f" x="260.69756" y="145.027106" style="fill: #ffffff; stroke: #ffffff; stroke-width: 1.125"/>
    </g>
   </g>
   <g id="line2d_15">
    <path d="M 326.016336 238.922915 
L 326.016336 110.713526 
" clip-path="url(#pc812d2dba4)" style="fill: none; stroke: #3f3f3f; stroke-width: 1.875; stroke-linecap: round"/>
   </g>
   <g id="line2d_16">
    <path d="M 326.016336 200.306656 
L 326.016336 157.68121 
" clip-path="url(#pc812d2dba4)" style="fill: none; stroke: #3f3f3f; stroke-width: 5.625; stroke-linecap: round"/>
   </g>
   <g id="line2d_17">
    <path d="M 326.016336 178.403418 
" clip-path="url(#pc812d2dba4)" style="fill: none; stroke: #3f3f3f; stroke-width: 1.5; stroke-linecap: round"/>
    <g clip-path="url(#pc812d2dba4)">
     <use xlink:href="#mc041a32a6f" x="326.016336" y="178.403418" style="fill: #ffffff; stroke: #ffffff; stroke-width: 1.125"/>
    </g>
   </g>
   <g id="patch_3">
    <path d="M 48.411538 318.04 
L 48.411538 24.72 
" style="fill: none; stroke: #cccccc; stroke-width: 0.8; stroke-linejoin: miter; stroke-linecap: square"/>
   </g>
   <g id="patch_4">
    <path d="M 48.411538 318.04 
L 375.005418 318.04 
" style="fill: none; stroke: #cccccc; stroke-width: 0.8; stroke-linejoin: miter; stroke-linecap: square"/>
   </g>
   <g id="text_10">
    <!-- sex = f -->
    <g style="fill: #262626" transform="translate(196.840509 18.72) scale(0.1 -0.1)">
     <defs>
      <path id="ArialMT-73" d="M 197 991 
L 753 1078 
Q 800 744 1014 566 
Q 1228 388 1613 388 
Q 2000 388 2187 545 
Q 2375 703 2375 916 
Q 2375 1106 2209 1216 
Q 2094 1291 1634 1406 
Q 1016 1563 777 1677 
Q 538 1791 414 1992 
Q 291 2194 291 2438 
Q 291 2659 392 2848 
Q 494 3038 669 3163 
Q 800 3259 1026 3326 
Q 1253 3394 1513 3394 
Q 1903 3394 2198 3281 
Q 2494 3169 2634 2976 
Q 2775 2784 2828 2463 
L 2278 2388 
Q 2241 2644 2061 2787 
Q 1881 2931 1553 2931 
Q 1166 2931 1000 2803 
Q 834 2675 834 2503 
Q 834 2394 903 2306 
Q 972 2216 1119 2156 
Q 1203 2125 1616 2013 
Q 2213 1853 2448 1751 
Q 2684 1650 2818 1456 
Q 2953 1263 2953 975 
Q 2953 694 2789 445 
Q 2625 197 2315 61 
Q 2006 -75 1616 -75 
Q 969 -75 630 194 
Q 291 463 197 991 
z
" transform="scale(0.015625)"/>
      <path id="ArialMT-65" d="M 2694 1069 
L 3275 997 
Q 3138 488 2766 206 
Q 2394 -75 1816 -75 
Q 1088 -75 661 373 
Q 234 822 234 1631 
Q 234 2469 665 2931 
Q 1097 3394 1784 3394 
Q 2450 3394 2872 2941 
Q 3294 2488 3294 1666 
Q 3294 1616 3291 1516 
L 816 1516 
Q 847 969 1125 678 
Q 1403 388 1819 388 
Q 2128 388 2347 550 
Q 2566 713 2694 1069 
z
M 847 1978 
L 2700 1978 
Q 2663 2397 2488 2606 
Q 2219 2931 1791 2931 
Q 1403 2931 1139 2672 
Q 875 2413 847 1978 
z
" transform="scale(0.015625)"/>
      <path id="ArialMT-78" d="M 47 0 
L 1259 1725 
L 138 3319 
L 841 3319 
L 1350 2541 
Q 1494 2319 1581 2169 
Q 1719 2375 1834 2534 
L 2394 3319 
L 3066 3319 
L 1919 1756 
L 3153 0 
L 2463 0 
L 1781 1031 
L 1600 1309 
L 728 0 
L 47 0 
z
" transform="scale(0.015625)"/>
      <path id="ArialMT-20" transform="scale(0.015625)"/>
      <path id="ArialMT-3d" d="M 3381 2694 
L 356 2694 
L 356 3219 
L 3381 3219 
L 3381 2694 
z
M 3381 1303 
L 356 1303 
L 356 1828 
L 3381 1828 
L 3381 1303 
z
" transform="scale(0.015625)"/>
      <path id="ArialMT-66" d="M 556 0 
L 556 2881 
L 59 2881 
L 59 3319 
L 556 3319 
L 556 3672 
Q 556 4006 616 4169 
Q 697 4388 901 4523 
Q 1106 4659 1475 4659 
Q 1713 4659 2000 4603 
L 1916 4113 
Q 1741 4144 1584 4144 
Q 1328 4144 1222 4034 
Q 1116 3925 1116 3625 
L 1116 3319 
L 1763 3319 
L 1763 2881 
L 1116 2881 
L 1116 0 
L 556 0 
z
" transform="scale(0.015625)"/>
     </defs>
     <use xlink:href="#ArialMT-73"/>
     <use xlink:href="#ArialMT-65" x="50"/>
     <use xlink:href="#ArialMT-78" x="105.615234"/>
     <use xlink:href="#ArialMT-20" x="155.615234"/>
     <use xlink:href="#ArialMT-3d" x="183.398438"/>
     <use xlink:href="#ArialMT-20" x="241.796875"/>
     <use xlink:href="#ArialMT-66" x="269.580078"/>
    </g>
   </g>
  </g>
  <g id="axes_2">
   <g id="patch_5">
    <path d="M 385.817319 318.04 
L 712.4112 318.04 
L 712.4112 24.72 
L 385.817319 24.72 
z
" style="fill: #ffffff"/>
   </g>
   <g id="matplotlib.axis_3">
    <g id="xtick_3">
     <g id="text_11">
      <!-- Baia -->
      <g style="fill: #262626" transform="translate(457.458758 332.197812) scale(0.1 -0.1)">
       <use xlink:href="#ArialMT-42"/>
       <use xlink:href="#ArialMT-61" x="66.699219"/>
       <use xlink:href="#ArialMT-69" x="122.314453"/>
       <use xlink:href="#ArialMT-61" x="144.53125"/>
      </g>
     </g>
    </g>
    <g id="xtick_4">
     <g id="text_12">
      <!-- Jurilovca -->
      <g style="fill: #262626" transform="translate(611.034605 332.197812) scale(0.1 -0.1)">
       <use xlink:href="#ArialMT-4a"/>
       <use xlink:href="#ArialMT-75" x="50"/>
       <use xlink:href="#ArialMT-72" x="105.615234"/>
       <use xlink:href="#ArialMT-69" x="138.916016"/>
       <use xlink:href="#ArialMT-6c" x="161.132812"/>
       <use xlink:href="#ArialMT-6f" x="183.349609"/>
       <use xlink:href="#ArialMT-76" x="238.964844"/>
       <use xlink:href="#ArialMT-63" x="288.964844"/>
       <use xlink:href="#ArialMT-61" x="338.964844"/>
      </g>
     </g>
    </g>
    <g id="text_13">
     <!-- location -->
     <g style="fill: #262626" transform="translate(531.881447 345.343125) scale(0.1 -0.1)">
      <use xlink:href="#ArialMT-6c"/>
      <use xlink:href="#ArialMT-6f" x="22.216797"/>
      <use xlink:href="#ArialMT-63" x="77.832031"/>
      <use xlink:href="#ArialMT-61" x="127.832031"/>
      <use xlink:href="#ArialMT-74" x="183.447266"/>
      <use xlink:href="#ArialMT-69" x="211.230469"/>
      <use xlink:href="#ArialMT-6f" x="233.447266"/>
      <use xlink:href="#ArialMT-6e" x="289.0625"/>
     </g>
    </g>
   </g>
   <g id="matplotlib.axis_4">
    <g id="ytick_6">
     <g id="line2d_18">
      <path d="M 385.817319 291.967618 
L 712.4112 291.967618 
" clip-path="url(#p1b21dc3152)" style="fill: none; stroke: #cccccc; stroke-width: 0.8; stroke-linecap: round"/>
     </g>
    </g>
    <g id="ytick_7">
     <g id="line2d_19">
      <path d="M 385.817319 235.570456 
L 712.4112 235.570456 
" clip-path="url(#p1b21dc3152)" style="fill: none; stroke: #cccccc; stroke-width: 0.8; stroke-linecap: round"/>
     </g>
    </g>
    <g id="ytick_8">
     <g id="line2d_20">
      <path d="M 385.817319 179.173295 
L 712.4112 179.173295 
" clip-path="url(#p1b21dc3152)" style="fill: none; stroke: #cccccc; stroke-width: 0.8; stroke-linecap: round"/>
     </g>
    </g>
    <g id="ytick_9">
     <g id="line2d_21">
      <path d="M 385.817319 122.776133 
L 712.4112 122.776133 
" clip-path="url(#p1b21dc3152)" style="fill: none; stroke: #cccccc; stroke-width: 0.8; stroke-linecap: round"/>
     </g>
    </g>
    <g id="ytick_10">
     <g id="line2d_22">
      <path d="M 385.817319 66.378972 
L 712.4112 66.378972 
" clip-path="url(#p1b21dc3152)" style="fill: none; stroke: #cccccc; stroke-width: 0.8; stroke-linecap: round"/>
     </g>
    </g>
   </g>
   <g id="PolyCollection_5">
    <defs>
     <path id="m4b4850c9da" d="M 435.992014 -128.199108 
L 433.620789 -128.199108 
L 433.338187 -130.013701 
L 433.002374 -131.828295 
L 432.606931 -133.642889 
L 432.145492 -135.457483 
L 431.61196 -137.272077 
L 431.000741 -139.086671 
L 430.307014 -140.901265 
L 429.527003 -142.715859 
L 428.658259 -144.530453 
L 427.699923 -146.345047 
L 426.652971 -148.15964 
L 425.520406 -149.974234 
L 424.307401 -151.788828 
L 423.021356 -153.603422 
L 421.671888 -155.418016 
L 420.270708 -157.23261 
L 418.831416 -159.047204 
L 417.369194 -160.861798 
L 415.900411 -162.676392 
L 414.442164 -164.490986 
L 413.011752 -166.305579 
L 411.626135 -168.120173 
L 410.301379 -169.934767 
L 409.052136 -171.749361 
L 407.891181 -173.563955 
L 406.829025 -175.378549 
L 405.87364 -177.193143 
L 405.030303 -179.007737 
L 404.301569 -180.822331 
L 403.687369 -182.636925 
L 403.18523 -184.451518 
L 402.790603 -186.266112 
L 402.497259 -188.080706 
L 402.297741 -189.8953 
L 402.183834 -191.709894 
L 402.147013 -193.524488 
L 402.178859 -195.339082 
L 402.271392 -197.153676 
L 402.41733 -198.96827 
L 402.61024 -200.782864 
L 402.844599 -202.597457 
L 403.115756 -204.412051 
L 403.419826 -206.226645 
L 403.75352 -208.041239 
L 404.113949 -209.855833 
L 404.498415 -211.670427 
L 404.90423 -213.485021 
L 405.328565 -215.299615 
L 405.768353 -217.114209 
L 406.220268 -218.928803 
L 406.680752 -220.743396 
L 407.146116 -222.55799 
L 407.61269 -224.372584 
L 408.077 -226.187178 
L 408.535975 -228.001772 
L 408.987139 -229.816366 
L 409.428791 -231.63096 
L 409.860148 -233.445554 
L 410.281437 -235.260148 
L 410.693931 -237.074742 
L 411.099927 -238.889335 
L 411.502667 -240.703929 
L 411.906204 -242.518523 
L 412.315228 -244.333117 
L 412.734852 -246.147711 
L 413.170386 -247.962305 
L 413.627093 -249.776899 
L 414.109954 -251.591493 
L 414.623439 -253.406087 
L 415.171306 -255.220681 
L 415.756422 -257.035274 
L 416.380623 -258.849868 
L 417.044612 -260.664462 
L 417.747893 -262.479056 
L 418.488758 -264.29365 
L 419.264304 -266.108244 
L 420.070503 -267.922838 
L 420.902303 -269.737432 
L 421.753775 -271.552026 
L 422.61828 -273.36662 
L 423.488665 -275.181213 
L 424.35748 -276.995807 
L 425.217199 -278.810401 
L 426.060441 -280.624995 
L 426.880181 -282.439589 
L 427.669947 -284.254183 
L 428.423984 -286.068777 
L 429.137392 -287.883371 
L 429.806224 -289.697965 
L 430.427542 -291.512559 
L 430.999435 -293.327152 
L 431.521003 -295.141746 
L 431.992295 -296.95634 
L 432.414233 -298.770934 
L 432.788495 -300.585528 
L 433.117401 -302.400122 
L 433.403772 -304.214716 
L 433.6508 -306.02931 
L 433.861917 -307.843904 
L 435.750886 -307.843904 
L 435.750886 -307.843904 
L 435.962003 -306.02931 
L 436.209031 -304.214716 
L 436.495402 -302.400122 
L 436.824308 -300.585528 
L 437.198571 -298.770934 
L 437.620508 -296.95634 
L 438.0918 -295.141746 
L 438.613368 -293.327152 
L 439.185261 -291.512559 
L 439.806579 -289.697965 
L 440.475411 -287.883371 
L 441.188819 -286.068777 
L 441.942857 -284.254183 
L 442.732622 -282.439589 
L 443.552362 -280.624995 
L 444.395604 -278.810401 
L 445.255323 -276.995807 
L 446.124139 -275.181213 
L 446.994524 -273.36662 
L 447.859028 -271.552026 
L 448.7105 -269.737432 
L 449.542301 -267.922838 
L 450.348499 -266.108244 
L 451.124045 -264.29365 
L 451.86491 -262.479056 
L 452.568191 -260.664462 
L 453.23218 -258.849868 
L 453.856381 -257.035274 
L 454.441497 -255.220681 
L 454.989364 -253.406087 
L 455.502849 -251.591493 
L 455.98571 -249.776899 
L 456.442417 -247.962305 
L 456.877951 -246.147711 
L 457.297575 -244.333117 
L 457.706599 -242.518523 
L 458.110136 -240.703929 
L 458.512876 -238.889335 
L 458.918872 -237.074742 
L 459.331366 -235.260148 
L 459.752655 -233.445554 
L 460.184012 -231.63096 
L 460.625665 -229.816366 
L 461.076828 -228.001772 
L 461.535803 -226.187178 
L 462.000114 -224.372584 
L 462.466687 -222.55799 
L 462.932052 -220.743396 
L 463.392535 -218.928803 
L 463.84445 -217.114209 
L 464.284238 -215.299615 
L 464.708573 -213.485021 
L 465.114388 -211.670427 
L 465.498854 -209.855833 
L 465.859283 -208.041239 
L 466.192977 -206.226645 
L 466.497047 -204.412051 
L 466.768204 -202.597457 
L 467.002563 -200.782864 
L 467.195473 -198.96827 
L 467.341411 -197.153676 
L 467.433944 -195.339082 
L 467.46579 -193.524488 
L 467.428969 -191.709894 
L 467.315062 -189.8953 
L 467.115544 -188.080706 
L 466.8222 -186.266112 
L 466.427573 -184.451518 
L 465.925435 -182.636925 
L 465.311234 -180.822331 
L 464.5825 -179.007737 
L 463.739163 -177.193143 
L 462.783779 -175.378549 
L 461.721622 -173.563955 
L 460.560667 -171.749361 
L 459.311424 -169.934767 
L 457.986668 -168.120173 
L 456.601051 -166.305579 
L 455.17064 -164.490986 
L 453.712392 -162.676392 
L 452.243609 -160.861798 
L 450.781387 -159.047204 
L 449.342095 -157.23261 
L 447.940915 -155.418016 
L 446.591447 -153.603422 
L 445.305403 -151.788828 
L 444.092397 -149.974234 
L 442.959832 -148.15964 
L 441.91288 -146.345047 
L 440.954544 -144.530453 
L 440.0858 -142.715859 
L 439.305789 -140.901265 
L 438.612062 -139.086671 
L 438.000843 -137.272077 
L 437.467311 -135.457483 
L 437.005872 -133.642889 
L 436.610429 -131.828295 
L 436.274616 -130.013701 
L 435.992014 -128.199108 
z
" style="stroke: #3f3f3f; stroke-width: 1.25"/>
    </defs>
    <g clip-path="url(#p1b21dc3152)">
     <use xlink:href="#m4b4850c9da" x="0" y="360" style="fill: #3274a1; stroke: #3f3f3f; stroke-width: 1.25"/>
    </g>
   </g>
   <g id="PolyCollection_6">
    <defs>
     <path id="mc7879fb76d" d="M 500.640981 -110.274951 
L 499.609374 -110.274951 
L 499.481019 -111.860789 
L 499.327632 -113.446627 
L 499.146013 -115.032465 
L 498.932886 -116.618304 
L 498.684949 -118.204142 
L 498.398925 -119.78998 
L 498.07161 -121.375819 
L 497.699924 -122.961657 
L 497.280947 -124.547495 
L 496.811961 -126.133333 
L 496.290489 -127.719172 
L 495.714329 -129.30501 
L 495.081609 -130.890848 
L 494.390847 -132.476687 
L 493.641036 -134.062525 
L 492.831757 -135.648363 
L 491.963319 -137.234201 
L 491.036935 -138.82004 
L 490.054917 -140.405878 
L 489.020895 -141.991716 
L 487.940034 -143.577555 
L 486.819232 -145.163393 
L 485.667281 -146.749231 
L 484.49496 -148.335069 
L 483.315036 -149.920908 
L 482.142158 -151.506746 
L 480.99262 -153.092584 
L 479.883997 -154.678423 
L 478.83465 -156.264261 
L 477.863122 -157.850099 
L 476.987446 -159.435937 
L 476.224418 -161.021776 
L 475.588854 -162.607614 
L 475.092905 -164.193452 
L 474.745467 -165.77929 
L 474.551728 -167.365129 
L 474.512889 -168.950967 
L 474.626087 -170.536805 
L 474.884518 -172.122644 
L 475.277761 -173.708482 
L 475.792276 -175.29432 
L 476.41204 -176.880158 
L 477.119289 -178.465997 
L 477.895292 -180.051835 
L 478.721136 -181.637673 
L 479.578447 -183.223512 
L 480.450027 -184.80935 
L 481.320365 -186.395188 
L 482.176012 -187.981026 
L 483.005804 -189.566865 
L 483.800947 -191.152703 
L 484.554978 -192.738541 
L 485.263615 -194.32438 
L 485.92454 -195.910218 
L 486.53712 -197.496056 
L 487.102114 -199.081894 
L 487.621382 -200.667733 
L 488.097602 -202.253571 
L 488.534037 -203.839409 
L 488.934322 -205.425248 
L 489.302312 -207.011086 
L 489.641953 -208.596924 
L 489.957202 -210.182762 
L 490.251966 -211.768601 
L 490.530064 -213.354439 
L 490.795202 -214.940277 
L 491.050951 -216.526116 
L 491.30073 -218.111954 
L 491.547778 -219.697792 
L 491.795125 -221.28363 
L 492.045552 -222.869469 
L 492.301549 -224.455307 
L 492.565262 -226.041145 
L 492.838441 -227.626984 
L 493.122387 -229.212822 
L 493.417911 -230.79866 
L 493.725289 -232.384498 
L 494.044246 -233.970337 
L 494.373945 -235.556175 
L 494.713004 -237.142013 
L 495.059531 -238.727852 
L 495.411184 -240.31369 
L 495.765247 -241.899528 
L 496.118732 -243.485366 
L 496.468483 -245.071205 
L 496.811306 -246.657043 
L 497.144078 -248.242881 
L 497.46387 -249.82872 
L 497.768051 -251.414558 
L 498.054371 -253.000396 
L 498.321032 -254.586234 
L 498.566729 -256.172073 
L 498.790665 -257.757911 
L 498.992545 -259.343749 
L 499.172546 -260.929588 
L 499.331274 -262.515426 
L 499.469693 -264.101264 
L 499.589064 -265.687102 
L 499.690864 -267.272941 
L 500.559492 -267.272941 
L 500.559492 -267.272941 
L 500.661291 -265.687102 
L 500.780662 -264.101264 
L 500.919081 -262.515426 
L 501.077809 -260.929588 
L 501.257811 -259.343749 
L 501.45969 -257.757911 
L 501.683626 -256.172073 
L 501.929323 -254.586234 
L 502.195984 -253.000396 
L 502.482305 -251.414558 
L 502.786485 -249.82872 
L 503.106278 -248.242881 
L 503.439049 -246.657043 
L 503.781872 -245.071205 
L 504.131624 -243.485366 
L 504.485108 -241.899528 
L 504.839171 -240.31369 
L 505.190824 -238.727852 
L 505.537351 -237.142013 
L 505.87641 -235.556175 
L 506.206109 -233.970337 
L 506.525066 -232.384498 
L 506.832444 -230.79866 
L 507.127968 -229.212822 
L 507.411915 -227.626984 
L 507.685093 -226.041145 
L 507.948806 -224.455307 
L 508.204803 -222.869469 
L 508.455231 -221.28363 
L 508.702577 -219.697792 
L 508.949625 -218.111954 
L 509.199404 -216.526116 
L 509.455153 -214.940277 
L 509.720291 -213.354439 
L 509.998389 -211.768601 
L 510.293153 -210.182762 
L 510.608402 -208.596924 
L 510.948043 -207.011086 
L 511.316033 -205.425248 
L 511.716318 -203.839409 
L 512.152753 -202.253571 
L 512.628974 -200.667733 
L 513.148241 -199.081894 
L 513.713235 -197.496056 
L 514.325815 -195.910218 
L 514.98674 -194.32438 
L 515.695378 -192.738541 
L 516.449408 -191.152703 
L 517.244552 -189.566865 
L 518.074343 -187.981026 
L 518.92999 -186.395188 
L 519.800328 -184.80935 
L 520.671908 -183.223512 
L 521.529219 -181.637673 
L 522.355063 -180.051835 
L 523.131066 -178.465997 
L 523.838315 -176.880158 
L 524.458079 -175.29432 
L 524.972594 -173.708482 
L 525.365837 -172.122644 
L 525.624269 -170.536805 
L 525.737467 -168.950967 
L 525.698628 -167.365129 
L 525.504888 -165.77929 
L 525.15745 -164.193452 
L 524.661502 -162.607614 
L 524.025937 -161.021776 
L 523.262909 -159.435937 
L 522.387234 -157.850099 
L 521.415705 -156.264261 
L 520.366358 -154.678423 
L 519.257735 -153.092584 
L 518.108197 -151.506746 
L 516.935319 -149.920908 
L 515.755395 -148.335069 
L 514.583074 -146.749231 
L 513.431124 -145.163393 
L 512.310322 -143.577555 
L 511.22946 -141.991716 
L 510.195439 -140.405878 
L 509.213421 -138.82004 
L 508.287036 -137.234201 
L 507.418598 -135.648363 
L 506.609319 -134.062525 
L 505.859508 -132.476687 
L 505.168746 -130.890848 
L 504.536027 -129.30501 
L 503.959867 -127.719172 
L 503.438394 -126.133333 
L 502.969409 -124.547495 
L 502.550431 -122.961657 
L 502.178745 -121.375819 
L 501.85143 -119.78998 
L 501.565406 -118.204142 
L 501.317469 -116.618304 
L 501.104342 -115.032465 
L 500.922723 -113.446627 
L 500.769336 -111.860789 
L 500.640981 -110.274951 
z
" style="stroke: #3f3f3f; stroke-width: 1.25"/>
    </defs>
    <g clip-path="url(#p1b21dc3152)">
     <use xlink:href="#mc7879fb76d" x="0" y="360" style="fill: #e1812c; stroke: #3f3f3f; stroke-width: 1.25"/>
    </g>
   </g>
   <g id="PolyCollection_7">
    <defs>
     <path id="m54b2ade23f" d="M 598.848526 -55.292727 
L 597.358158 -55.292727 
L 597.206403 -57.986208 
L 597.03101 -60.679688 
L 596.829826 -63.373168 
L 596.600775 -66.066648 
L 596.341906 -68.760129 
L 596.051443 -71.453609 
L 595.727832 -74.147089 
L 595.36978 -76.840569 
L 594.976286 -79.53405 
L 594.546674 -82.22753 
L 594.080605 -84.92101 
L 593.578084 -87.61449 
L 593.03946 -90.307971 
L 592.465409 -93.001451 
L 591.856922 -95.694931 
L 591.215275 -98.388411 
L 590.542011 -101.081892 
L 589.838907 -103.775372 
L 589.10796 -106.468852 
L 588.35137 -109.162332 
L 587.571538 -111.855813 
L 586.771065 -114.549293 
L 585.952772 -117.242773 
L 585.119725 -119.936253 
L 584.275268 -122.629734 
L 583.423061 -125.323214 
L 582.567123 -128.016694 
L 581.711872 -130.710174 
L 580.862155 -133.403655 
L 580.023269 -136.097135 
L 579.20097 -138.790615 
L 578.40145 -141.484096 
L 577.631308 -144.177576 
L 576.897477 -146.871056 
L 576.207141 -149.564536 
L 575.567612 -152.258017 
L 574.986189 -154.951497 
L 574.469998 -157.644977 
L 574.025801 -160.338457 
L 573.659808 -163.031938 
L 573.377468 -165.725418 
L 573.183271 -168.418898 
L 573.080554 -171.112378 
L 573.071327 -173.805859 
L 573.156118 -176.499339 
L 573.333863 -179.192819 
L 573.601831 -181.886299 
L 573.955602 -184.57978 
L 574.389099 -187.27326 
L 574.894678 -189.96674 
L 575.463283 -192.66022 
L 576.084654 -195.353701 
L 576.74759 -198.047181 
L 577.440269 -200.740661 
L 578.150587 -203.434141 
L 578.866543 -206.127622 
L 579.576612 -208.821102 
L 580.270128 -211.514582 
L 580.937632 -214.208062 
L 581.571183 -216.901543 
L 582.16461 -219.595023 
L 582.713698 -222.288503 
L 583.216288 -224.981983 
L 583.672297 -227.675464 
L 584.083644 -230.368944 
L 584.454094 -233.062424 
L 584.789024 -235.755904 
L 585.095119 -238.449385 
L 585.380021 -241.142865 
L 585.651942 -243.836345 
L 585.919261 -246.529826 
L 586.19013 -249.223306 
L 586.472106 -251.916786 
L 586.771822 -254.610266 
L 587.094714 -257.303747 
L 587.444825 -259.997227 
L 587.824675 -262.690707 
L 588.235213 -265.384187 
L 588.675843 -268.077668 
L 589.144525 -270.771148 
L 589.637931 -273.464628 
L 590.151651 -276.158108 
L 590.680438 -278.851589 
L 591.218469 -281.545069 
L 591.75961 -284.238549 
L 592.297683 -286.932029 
L 592.826699 -289.62551 
L 593.341073 -292.31899 
L 593.835794 -295.01247 
L 594.306557 -297.70595 
L 594.749853 -300.399431 
L 595.163012 -303.092911 
L 595.544214 -305.786391 
L 595.892453 -308.479871 
L 596.207485 -311.173352 
L 596.489745 -313.866832 
L 596.740252 -316.560312 
L 596.960506 -319.253792 
L 597.152374 -321.947273 
L 599.054309 -321.947273 
L 599.054309 -321.947273 
L 599.246178 -319.253792 
L 599.466431 -316.560312 
L 599.716939 -313.866832 
L 599.999199 -311.173352 
L 600.314231 -308.479871 
L 600.66247 -305.786391 
L 601.043671 -303.092911 
L 601.456831 -300.399431 
L 601.900127 -297.70595 
L 602.37089 -295.01247 
L 602.865611 -292.31899 
L 603.379985 -289.62551 
L 603.909001 -286.932029 
L 604.447074 -284.238549 
L 604.988215 -281.545069 
L 605.526245 -278.851589 
L 606.055032 -276.158108 
L 606.568752 -273.464628 
L 607.062158 -270.771148 
L 607.530841 -268.077668 
L 607.971471 -265.384187 
L 608.382008 -262.690707 
L 608.761858 -259.997227 
L 609.11197 -257.303747 
L 609.434862 -254.610266 
L 609.734577 -251.916786 
L 610.016554 -249.223306 
L 610.287423 -246.529826 
L 610.554742 -243.836345 
L 610.826662 -241.142865 
L 611.111565 -238.449385 
L 611.41766 -235.755904 
L 611.75259 -233.062424 
L 612.12304 -230.368944 
L 612.534387 -227.675464 
L 612.990396 -224.981983 
L 613.492986 -222.288503 
L 614.042074 -219.595023 
L 614.635501 -216.901543 
L 615.269052 -214.208062 
L 615.936556 -211.514582 
L 616.630072 -208.821102 
L 617.340141 -206.127622 
L 618.056096 -203.434141 
L 618.766415 -200.740661 
L 619.459093 -198.047181 
L 620.12203 -195.353701 
L 620.7434 -192.66022 
L 621.312005 -189.96674 
L 621.817585 -187.27326 
L 622.251081 -184.57978 
L 622.604853 -181.886299 
L 622.872821 -179.192819 
L 623.050566 -176.499339 
L 623.135357 -173.805859 
L 623.126129 -171.112378 
L 623.023413 -168.418898 
L 622.829216 -165.725418 
L 622.546876 -163.031938 
L 622.180882 -160.338457 
L 621.736686 -157.644977 
L 621.220494 -154.951497 
L 620.639072 -152.258017 
L 619.999543 -149.564536 
L 619.309206 -146.871056 
L 618.575376 -144.177576 
L 617.805234 -141.484096 
L 617.005714 -138.790615 
L 616.183414 -136.097135 
L 615.344529 -133.403655 
L 614.494812 -130.710174 
L 613.639561 -128.016694 
L 612.783623 -125.323214 
L 611.931416 -122.629734 
L 611.086959 -119.936253 
L 610.253912 -117.242773 
L 609.435619 -114.549293 
L 608.635146 -111.855813 
L 607.855313 -109.162332 
L 607.098724 -106.468852 
L 606.367777 -103.775372 
L 605.664673 -101.081892 
L 604.991408 -98.388411 
L 604.349762 -95.694931 
L 603.741275 -93.001451 
L 603.167224 -90.307971 
L 602.628599 -87.61449 
L 602.126079 -84.92101 
L 601.66001 -82.22753 
L 601.230398 -79.53405 
L 600.836904 -76.840569 
L 600.478851 -74.147089 
L 600.15524 -71.453609 
L 599.864778 -68.760129 
L 599.605909 -66.066648 
L 599.376857 -63.373168 
L 599.175673 -60.679688 
L 599.000281 -57.986208 
L 598.848526 -55.292727 
z
" style="stroke: #3f3f3f; stroke-width: 1.25"/>
    </defs>
    <g clip-path="url(#p1b21dc3152)">
     <use xlink:href="#m54b2ade23f" x="0" y="360" style="fill: #3274a1; stroke: #3f3f3f; stroke-width: 1.25"/>
    </g>
   </g>
   <g id="PolyCollection_8">
    <defs>
     <path id="m1c936b52f2" d="M 665.088803 -123.891455 
L 661.755433 -123.891455 
L 661.423129 -124.851243 
L 661.03901 -125.811031 
L 660.598123 -126.770819 
L 660.095665 -127.730607 
L 659.527124 -128.690395 
L 658.888434 -129.650183 
L 658.17615 -130.609971 
L 657.387615 -131.569759 
L 656.521146 -132.529547 
L 655.576198 -133.489335 
L 654.553532 -134.449123 
L 653.455352 -135.408911 
L 652.285425 -136.368699 
L 651.049159 -137.328487 
L 649.75365 -138.288275 
L 648.407675 -139.248063 
L 647.021642 -140.207851 
L 645.607479 -141.167639 
L 644.178476 -142.127427 
L 642.749071 -143.087215 
L 641.334586 -144.047003 
L 639.950925 -145.006791 
L 638.614226 -145.966579 
L 637.340497 -146.926367 
L 636.145231 -147.886155 
L 635.043019 -148.845943 
L 634.047176 -149.805731 
L 633.16939 -150.765519 
L 632.419403 -151.725307 
L 631.804747 -152.685095 
L 631.330529 -153.644883 
L 630.999292 -154.604671 
L 630.810938 -155.564459 
L 630.76273 -156.524247 
L 630.849365 -157.484035 
L 631.063126 -158.443823 
L 631.394086 -159.403611 
L 631.830386 -160.363399 
L 632.358555 -161.323187 
L 632.963862 -162.282975 
L 633.630709 -163.242763 
L 634.343023 -164.202551 
L 635.084662 -165.16234 
L 635.839802 -166.122128 
L 636.59331 -167.081916 
L 637.331087 -168.041704 
L 638.040367 -169.001492 
L 638.709985 -169.96128 
L 639.33058 -170.921068 
L 639.894764 -171.880856 
L 640.397227 -172.840644 
L 640.83479 -173.800432 
L 641.20641 -174.76022 
L 641.513128 -175.720008 
L 641.757975 -176.679796 
L 641.945829 -177.639584 
L 642.08323 -178.599372 
L 642.178167 -179.55916 
L 642.23982 -180.518948 
L 642.278294 -181.478736 
L 642.304319 -182.438524 
L 642.328949 -183.398312 
L 642.363253 -184.3581 
L 642.418008 -185.317888 
L 642.50341 -186.277676 
L 642.628796 -187.237464 
L 642.802402 -188.197252 
L 643.03115 -189.15704 
L 643.320476 -190.116828 
L 643.674206 -191.076616 
L 644.09448 -192.036404 
L 644.581725 -192.996192 
L 645.13468 -193.95598 
L 645.750472 -194.915768 
L 646.424735 -195.875556 
L 647.151773 -196.835344 
L 647.924752 -197.795132 
L 648.735924 -198.75492 
L 649.576868 -199.714708 
L 650.438734 -200.674496 
L 651.312494 -201.634284 
L 652.189185 -202.594072 
L 653.060127 -203.55386 
L 653.917132 -204.513648 
L 654.752667 -205.473436 
L 655.560004 -206.433224 
L 656.333321 -207.393012 
L 657.067771 -208.3528 
L 657.75952 -209.312588 
L 658.405748 -210.272376 
L 659.004621 -211.232164 
L 659.555239 -212.191952 
L 660.057556 -213.15174 
L 660.512295 -214.111528 
L 660.920837 -215.071316 
L 661.28512 -216.031104 
L 661.607521 -216.990892 
L 661.890748 -217.95068 
L 662.137737 -218.910468 
L 664.706499 -218.910468 
L 664.706499 -218.910468 
L 664.953488 -217.95068 
L 665.236715 -216.990892 
L 665.559115 -216.031104 
L 665.923399 -215.071316 
L 666.331941 -214.111528 
L 666.786679 -213.15174 
L 667.288997 -212.191952 
L 667.839614 -211.232164 
L 668.438488 -210.272376 
L 669.084716 -209.312588 
L 669.776465 -208.3528 
L 670.510915 -207.393012 
L 671.284232 -206.433224 
L 672.091569 -205.473436 
L 672.927104 -204.513648 
L 673.784108 -203.55386 
L 674.655051 -202.594072 
L 675.531742 -201.634284 
L 676.405502 -200.674496 
L 677.267368 -199.714708 
L 678.108311 -198.75492 
L 678.919484 -197.795132 
L 679.692463 -196.835344 
L 680.419501 -195.875556 
L 681.093764 -194.915768 
L 681.709556 -193.95598 
L 682.262511 -192.996192 
L 682.749756 -192.036404 
L 683.17003 -191.076616 
L 683.52376 -190.116828 
L 683.813086 -189.15704 
L 684.041834 -188.197252 
L 684.21544 -187.237464 
L 684.340826 -186.277676 
L 684.426227 -185.317888 
L 684.480983 -184.3581 
L 684.515287 -183.398312 
L 684.539917 -182.438524 
L 684.565942 -181.478736 
L 684.604416 -180.518948 
L 684.666069 -179.55916 
L 684.761005 -178.599372 
L 684.898407 -177.639584 
L 685.08626 -176.679796 
L 685.331108 -175.720008 
L 685.637826 -174.76022 
L 686.009446 -173.800432 
L 686.447009 -172.840644 
L 686.949472 -171.880856 
L 687.513656 -170.921068 
L 688.134251 -169.96128 
L 688.803868 -169.001492 
L 689.513149 -168.041704 
L 690.250926 -167.081916 
L 691.004434 -166.122128 
L 691.759574 -165.16234 
L 692.501213 -164.202551 
L 693.213527 -163.242763 
L 693.880374 -162.282975 
L 694.485681 -161.323187 
L 695.013849 -160.363399 
L 695.45015 -159.403611 
L 695.78111 -158.443823 
L 695.99487 -157.484035 
L 696.081506 -156.524247 
L 696.033298 -155.564459 
L 695.844944 -154.604671 
L 695.513707 -153.644883 
L 695.039489 -152.685095 
L 694.424833 -151.725307 
L 693.674846 -150.765519 
L 692.79706 -149.805731 
L 691.801217 -148.845943 
L 690.699005 -147.886155 
L 689.503739 -146.926367 
L 688.23001 -145.966579 
L 686.893311 -145.006791 
L 685.50965 -144.047003 
L 684.095165 -143.087215 
L 682.66576 -142.127427 
L 681.236756 -141.167639 
L 679.822593 -140.207851 
L 678.43656 -139.248063 
L 677.090586 -138.288275 
L 675.795077 -137.328487 
L 674.558811 -136.368699 
L 673.388883 -135.408911 
L 672.290704 -134.449123 
L 671.268037 -133.489335 
L 670.32309 -132.529547 
L 669.456621 -131.569759 
L 668.668086 -130.609971 
L 667.955802 -129.650183 
L 667.317112 -128.690395 
L 666.74857 -127.730607 
L 666.246112 -126.770819 
L 665.805226 -125.811031 
L 665.421107 -124.851243 
L 665.088803 -123.891455 
z
" style="stroke: #3f3f3f; stroke-width: 1.25"/>
    </defs>
    <g clip-path="url(#p1b21dc3152)">
     <use xlink:href="#m1c936b52f2" x="0" y="360" style="fill: #e1812c; stroke: #3f3f3f; stroke-width: 1.25"/>
    </g>
   </g>
   <g id="patch_6">
    <path d="M 467.46579 291.967618 
L 467.46579 291.967618 
L 467.46579 291.967618 
L 467.46579 291.967618 
z
" clip-path="url(#p1b21dc3152)" style="fill: #3274a1; stroke: #3f3f3f; stroke-width: 1.25; stroke-linejoin: miter"/>
   </g>
   <g id="patch_7">
    <path d="M 467.46579 291.967618 
L 467.46579 291.967618 
L 467.46579 291.967618 
L 467.46579 291.967618 
z
" clip-path="url(#p1b21dc3152)" style="fill: #e1812c; stroke: #3f3f3f; stroke-width: 1.25; stroke-linejoin: miter"/>
   </g>
   <g id="line2d_23">
    <path d="M 434.806402 193.406528 
L 434.806402 90.550461 
" clip-path="url(#p1b21dc3152)" style="fill: none; stroke: #3f3f3f; stroke-width: 1.875; stroke-linecap: round"/>
   </g>
   <g id="line2d_24">
    <path d="M 434.806402 177.112794 
L 434.806402 121.782311 
" clip-path="url(#p1b21dc3152)" style="fill: none; stroke: #3f3f3f; stroke-width: 5.625; stroke-linecap: round"/>
   </g>
   <g id="line2d_25">
    <path d="M 434.806402 149.337545 
" clip-path="url(#p1b21dc3152)" style="fill: none; stroke: #3f3f3f; stroke-width: 1.5; stroke-linecap: round"/>
    <g clip-path="url(#p1b21dc3152)">
     <use xlink:href="#mc041a32a6f" x="434.806402" y="149.337545" style="fill: #ffffff; stroke: #ffffff; stroke-width: 1.125"/>
    </g>
   </g>
   <g id="line2d_26">
    <path d="M 500.125178 218.913608 
L 500.125178 123.538501 
" clip-path="url(#p1b21dc3152)" style="fill: none; stroke: #3f3f3f; stroke-width: 1.875; stroke-linecap: round"/>
   </g>
   <g id="line2d_27">
    <path d="M 500.125178 195.2097 
L 500.125178 165.893227 
" clip-path="url(#p1b21dc3152)" style="fill: none; stroke: #3f3f3f; stroke-width: 5.625; stroke-linecap: round"/>
   </g>
   <g id="line2d_28">
    <path d="M 500.125178 190.0222 
" clip-path="url(#p1b21dc3152)" style="fill: none; stroke: #3f3f3f; stroke-width: 1.5; stroke-linecap: round"/>
    <g clip-path="url(#p1b21dc3152)">
     <use xlink:href="#mc041a32a6f" x="500.125178" y="190.0222" style="fill: #ffffff; stroke: #ffffff; stroke-width: 1.125"/>
    </g>
   </g>
   <g id="line2d_29">
    <path d="M 598.103342 243.906891 
L 598.103342 109.756406 
" clip-path="url(#p1b21dc3152)" style="fill: none; stroke: #3f3f3f; stroke-width: 1.875; stroke-linecap: round"/>
   </g>
   <g id="line2d_30">
    <path d="M 598.103342 199.338802 
L 598.103342 159.939924 
" clip-path="url(#p1b21dc3152)" style="fill: none; stroke: #3f3f3f; stroke-width: 5.625; stroke-linecap: round"/>
   </g>
   <g id="line2d_31">
    <path d="M 598.103342 176.121652 
" clip-path="url(#p1b21dc3152)" style="fill: none; stroke: #3f3f3f; stroke-width: 1.5; stroke-linecap: round"/>
    <g clip-path="url(#p1b21dc3152)">
     <use xlink:href="#mc041a32a6f" x="598.103342" y="176.121652" style="fill: #ffffff; stroke: #ffffff; stroke-width: 1.125"/>
    </g>
   </g>
   <g id="line2d_32">
    <path d="M 663.422118 212.762292 
L 663.422118 164.435785 
" clip-path="url(#p1b21dc3152)" style="fill: none; stroke: #3f3f3f; stroke-width: 1.875; stroke-linecap: round"/>
   </g>
   <g id="line2d_33">
    <path d="M 663.422118 205.274251 
L 663.422118 175.427763 
" clip-path="url(#p1b21dc3152)" style="fill: none; stroke: #3f3f3f; stroke-width: 5.625; stroke-linecap: round"/>
   </g>
   <g id="line2d_34">
    <path d="M 663.422118 201.150528 
" clip-path="url(#p1b21dc3152)" style="fill: none; stroke: #3f3f3f; stroke-width: 1.5; stroke-linecap: round"/>
    <g clip-path="url(#p1b21dc3152)">
     <use xlink:href="#mc041a32a6f" x="663.422118" y="201.150528" style="fill: #ffffff; stroke: #ffffff; stroke-width: 1.125"/>
    </g>
   </g>
   <g id="patch_8">
    <path d="M 385.817319 318.04 
L 385.817319 24.72 
" style="fill: none; stroke: #cccccc; stroke-width: 0.8; stroke-linejoin: miter; stroke-linecap: square"/>
   </g>
   <g id="patch_9">
    <path d="M 385.817319 318.04 
L 712.4112 318.04 
" style="fill: none; stroke: #cccccc; stroke-width: 0.8; stroke-linejoin: miter; stroke-linecap: square"/>
   </g>
   <g id="text_14">
    <!-- sex = m -->
    <g style="fill: #262626" transform="translate(531.47051 18.72) scale(0.1 -0.1)">
     <defs>
      <path id="ArialMT-6d" d="M 422 0 
L 422 3319 
L 925 3319 
L 925 2853 
Q 1081 3097 1340 3245 
Q 1600 3394 1931 3394 
Q 2300 3394 2536 3241 
Q 2772 3088 2869 2813 
Q 3263 3394 3894 3394 
Q 4388 3394 4653 3120 
Q 4919 2847 4919 2278 
L 4919 0 
L 4359 0 
L 4359 2091 
Q 4359 2428 4304 2576 
Q 4250 2725 4106 2815 
Q 3963 2906 3769 2906 
Q 3419 2906 3187 2673 
Q 2956 2441 2956 1928 
L 2956 0 
L 2394 0 
L 2394 2156 
Q 2394 2531 2256 2718 
Q 2119 2906 1806 2906 
Q 1569 2906 1367 2781 
Q 1166 2656 1075 2415 
Q 984 2175 984 1722 
L 984 0 
L 422 0 
z
" transform="scale(0.015625)"/>
     </defs>
     <use xlink:href="#ArialMT-73"/>
     <use xlink:href="#ArialMT-65" x="50"/>
     <use xlink:href="#ArialMT-78" x="105.615234"/>
     <use xlink:href="#ArialMT-20" x="155.615234"/>
     <use xlink:href="#ArialMT-3d" x="183.398438"/>
     <use xlink:href="#ArialMT-20" x="241.796875"/>
     <use xlink:href="#ArialMT-6d" x="269.580078"/>
    </g>
   </g>
  </g>
  <g id="legend_1">
   <g id="text_15">
    <!-- time -->
    <g style="fill: #262626" transform="translate(725.045625 168.439844) scale(0.1 -0.1)">
     <use xlink:href="#ArialMT-74"/>
     <use xlink:href="#ArialMT-69" x="27.783203"/>
     <use xlink:href="#ArialMT-6d" x="50"/>
     <use xlink:href="#ArialMT-65" x="133.300781"/>
    </g>
   </g>
   <g id="patch_10">
    <path d="M 719.101875 182.585156 
L 739.101875 182.585156 
L 739.101875 175.585156 
L 719.101875 175.585156 
z
" style="fill: #3274a1; stroke: #3f3f3f; stroke-width: 1.25; stroke-linejoin: miter"/>
   </g>
   <g id="text_16">
    <!-- i -->
    <g style="fill: #262626" transform="translate(747.101875 182.585156) scale(0.1 -0.1)">
     <use xlink:href="#ArialMT-69"/>
    </g>
   </g>
   <g id="patch_11">
    <path d="M 719.101875 196.730469 
L 739.101875 196.730469 
L 739.101875 189.730469 
L 719.101875 189.730469 
z
" style="fill: #e1812c; stroke: #3f3f3f; stroke-width: 1.25; stroke-linejoin: miter"/>
   </g>
   <g id="text_17">
    <!-- f -->
    <g style="fill: #262626" transform="translate(747.101875 196.730469) scale(0.1 -0.1)">
     <use xlink:href="#ArialMT-66"/>
    </g>
   </g>
  </g>
 </g>
 <defs>
  <clipPath id="pc812d2dba4">
   <rect x="48.411538" y="24.72" width="326.593881" height="293.32"/>
  </clipPath>
  <clipPath id="p1b21dc3152">
   <rect x="385.817319" y="24.72" width="326.593881" height="293.32"/>
  </clipPath>
 </defs>
</svg>
