<?xml version="1.0" encoding="utf-8" standalone="no"?>
<!DOCTYPE svg PUBLIC "-//W3C//DTD SVG 1.1//EN"
  "http://www.w3.org/Graphics/SVG/1.1/DTD/svg11.dtd">
<svg xmlns:xlink="http://www.w3.org/1999/xlink" width="758.88pt" height="360pt" viewBox="0 0 758.88 360" xmlns="http://www.w3.org/2000/svg" version="1.1">
 <metadata>
  <rdf:RDF xmlns:dc="http://purl.org/dc/elements/1.1/" xmlns:cc="http://creativecommons.org/ns#" xmlns:rdf="http://www.w3.org/1999/02/22-rdf-syntax-ns#">
   <cc:Work>
    <dc:type rdf:resource="http://purl.org/dc/dcmitype/StillImage"/>
    <dc:date>2024-09-11T03:22:36.292594</dc:date>
    <dc:format>image/svg+xml</dc:format>
    <dc:creator>
     <cc:Agent>
      <dc:title>Matplotlib v3.8.3, https://matplotlib.org/</dc:title>
     </cc:Agent>
    </dc:creator>
   </cc:Work>
  </rdf:RDF>
 </metadata>
 <defs>
  <style type="text/css">*{stroke-linejoin: round; stroke-linecap: butt}</style>
 </defs>
 <g id="figure_1">
  <g id="patch_1">
   <path d="M 0 360 
L 758.88 360 
L 758.88 0 
L 0 0 
z
" style="fill: #ffffff"/>
  </g>
  <g id="axes_1">
   <g id="patch_2">
    <path d="M 45.470877 318.04 
L 373.533891 318.04 
L 373.533891 24.72 
L 45.470877 24.72 
z
" style="fill: #ffffff"/>
   </g>
   <g id="matplotlib.axis_1">
    <g id="xtick_1">
     <g id="text_1">
      <!-- Jurilovca -->
      <g style="fill: #262626" transform="translate(107.758506 332.197812) scale(0.1 -0.1)">
       <defs>
        <path id="ArialMT-4a" d="M 184 1300 
L 731 1375 
Q 753 850 928 656 
Q 1103 463 1413 463 
Q 1641 463 1806 567 
Q 1972 672 2034 851 
Q 2097 1031 2097 1425 
L 2097 4581 
L 2703 4581 
L 2703 1459 
Q 2703 884 2564 568 
Q 2425 253 2123 87 
Q 1822 -78 1416 -78 
Q 813 -78 492 269 
Q 172 616 184 1300 
z
" transform="scale(0.015625)"/>
        <path id="ArialMT-75" d="M 2597 0 
L 2597 488 
Q 2209 -75 1544 -75 
Q 1250 -75 995 37 
Q 741 150 617 320 
Q 494 491 444 738 
Q 409 903 409 1263 
L 409 3319 
L 972 3319 
L 972 1478 
Q 972 1038 1006 884 
Q 1059 663 1231 536 
Q 1403 409 1656 409 
Q 1909 409 2131 539 
Q 2353 669 2445 892 
Q 2538 1116 2538 1541 
L 2538 3319 
L 3100 3319 
L 3100 0 
L 2597 0 
z
" transform="scale(0.015625)"/>
        <path id="ArialMT-72" d="M 416 0 
L 416 3319 
L 922 3319 
L 922 2816 
Q 1116 3169 1280 3281 
Q 1444 3394 1641 3394 
Q 1925 3394 2219 3213 
L 2025 2691 
Q 1819 2813 1613 2813 
Q 1428 2813 1281 2702 
Q 1134 2591 1072 2394 
Q 978 2094 978 1738 
L 978 0 
L 416 0 
z
" transform="scale(0.015625)"/>
        <path id="ArialMT-69" d="M 425 3934 
L 425 4581 
L 988 4581 
L 988 3934 
L 425 3934 
z
M 425 0 
L 425 3319 
L 988 3319 
L 988 0 
L 425 0 
z
" transform="scale(0.015625)"/>
        <path id="ArialMT-6c" d="M 409 0 
L 409 4581 
L 972 4581 
L 972 0 
L 409 0 
z
" transform="scale(0.015625)"/>
        <path id="ArialMT-6f" d="M 213 1659 
Q 213 2581 725 3025 
Q 1153 3394 1769 3394 
Q 2453 3394 2887 2945 
Q 3322 2497 3322 1706 
Q 3322 1066 3130 698 
Q 2938 331 2570 128 
Q 2203 -75 1769 -75 
Q 1072 -75 642 372 
Q 213 819 213 1659 
z
M 791 1659 
Q 791 1022 1069 705 
Q 1347 388 1769 388 
Q 2188 388 2466 706 
Q 2744 1025 2744 1678 
Q 2744 2294 2464 2611 
Q 2184 2928 1769 2928 
Q 1347 2928 1069 2612 
Q 791 2297 791 1659 
z
" transform="scale(0.015625)"/>
        <path id="ArialMT-76" d="M 1344 0 
L 81 3319 
L 675 3319 
L 1388 1331 
Q 1503 1009 1600 663 
Q 1675 925 1809 1294 
L 2547 3319 
L 3125 3319 
L 1869 0 
L 1344 0 
z
" transform="scale(0.015625)"/>
        <path id="ArialMT-63" d="M 2588 1216 
L 3141 1144 
Q 3050 572 2676 248 
Q 2303 -75 1759 -75 
Q 1078 -75 664 370 
Q 250 816 250 1647 
Q 250 2184 428 2587 
Q 606 2991 970 3192 
Q 1334 3394 1763 3394 
Q 2303 3394 2647 3120 
Q 2991 2847 3088 2344 
L 2541 2259 
Q 2463 2594 2264 2762 
Q 2066 2931 1784 2931 
Q 1359 2931 1093 2626 
Q 828 2322 828 1663 
Q 828 994 1084 691 
Q 1341 388 1753 388 
Q 2084 388 2306 591 
Q 2528 794 2588 1216 
z
" transform="scale(0.015625)"/>
        <path id="ArialMT-61" d="M 2588 409 
Q 2275 144 1986 34 
Q 1697 -75 1366 -75 
Q 819 -75 525 192 
Q 231 459 231 875 
Q 231 1119 342 1320 
Q 453 1522 633 1644 
Q 813 1766 1038 1828 
Q 1203 1872 1538 1913 
Q 2219 1994 2541 2106 
Q 2544 2222 2544 2253 
Q 2544 2597 2384 2738 
Q 2169 2928 1744 2928 
Q 1347 2928 1158 2789 
Q 969 2650 878 2297 
L 328 2372 
Q 403 2725 575 2942 
Q 747 3159 1072 3276 
Q 1397 3394 1825 3394 
Q 2250 3394 2515 3294 
Q 2781 3194 2906 3042 
Q 3031 2891 3081 2659 
Q 3109 2516 3109 2141 
L 3109 1391 
Q 3109 606 3145 398 
Q 3181 191 3288 0 
L 2700 0 
Q 2613 175 2588 409 
z
M 2541 1666 
Q 2234 1541 1622 1453 
Q 1275 1403 1131 1340 
Q 988 1278 909 1158 
Q 831 1038 831 891 
Q 831 666 1001 516 
Q 1172 366 1500 366 
Q 1825 366 2078 508 
Q 2331 650 2450 897 
Q 2541 1088 2541 1459 
L 2541 1666 
z
" transform="scale(0.015625)"/>
       </defs>
       <use xlink:href="#ArialMT-4a"/>
       <use xlink:href="#ArialMT-75" x="50"/>
       <use xlink:href="#ArialMT-72" x="105.615234"/>
       <use xlink:href="#ArialMT-69" x="138.916016"/>
       <use xlink:href="#ArialMT-6c" x="161.132812"/>
       <use xlink:href="#ArialMT-6f" x="183.349609"/>
       <use xlink:href="#ArialMT-76" x="238.964844"/>
       <use xlink:href="#ArialMT-63" x="288.964844"/>
       <use xlink:href="#ArialMT-61" x="338.964844"/>
      </g>
     </g>
    </g>
    <g id="xtick_2">
     <g id="text_2">
      <!-- Baia -->
      <g style="fill: #262626" transform="translate(281.511107 332.197812) scale(0.1 -0.1)">
       <defs>
        <path id="ArialMT-42" d="M 469 0 
L 469 4581 
L 2188 4581 
Q 2713 4581 3030 4442 
Q 3347 4303 3526 4014 
Q 3706 3725 3706 3409 
Q 3706 3116 3547 2856 
Q 3388 2597 3066 2438 
Q 3481 2316 3704 2022 
Q 3928 1728 3928 1328 
Q 3928 1006 3792 729 
Q 3656 453 3456 303 
Q 3256 153 2954 76 
Q 2653 0 2216 0 
L 469 0 
z
M 1075 2656 
L 2066 2656 
Q 2469 2656 2644 2709 
Q 2875 2778 2992 2937 
Q 3109 3097 3109 3338 
Q 3109 3566 3000 3739 
Q 2891 3913 2687 3977 
Q 2484 4041 1991 4041 
L 1075 4041 
L 1075 2656 
z
M 1075 541 
L 2216 541 
Q 2509 541 2628 563 
Q 2838 600 2978 687 
Q 3119 775 3209 942 
Q 3300 1109 3300 1328 
Q 3300 1584 3169 1773 
Q 3038 1963 2805 2039 
Q 2572 2116 2134 2116 
L 1075 2116 
L 1075 541 
z
" transform="scale(0.015625)"/>
       </defs>
       <use xlink:href="#ArialMT-42"/>
       <use xlink:href="#ArialMT-61" x="66.699219"/>
       <use xlink:href="#ArialMT-69" x="122.314453"/>
       <use xlink:href="#ArialMT-61" x="144.53125"/>
      </g>
     </g>
    </g>
    <g id="text_3">
     <!-- location -->
     <g style="fill: #262626" transform="translate(192.269572 345.343125) scale(0.1 -0.1)">
      <defs>
       <path id="ArialMT-74" d="M 1650 503 
L 1731 6 
Q 1494 -44 1306 -44 
Q 1000 -44 831 53 
Q 663 150 594 308 
Q 525 466 525 972 
L 525 2881 
L 113 2881 
L 113 3319 
L 525 3319 
L 525 4141 
L 1084 4478 
L 1084 3319 
L 1650 3319 
L 1650 2881 
L 1084 2881 
L 1084 941 
Q 1084 700 1114 631 
Q 1144 563 1211 522 
Q 1278 481 1403 481 
Q 1497 481 1650 503 
z
" transform="scale(0.015625)"/>
       <path id="ArialMT-6e" d="M 422 0 
L 422 3319 
L 928 3319 
L 928 2847 
Q 1294 3394 1984 3394 
Q 2284 3394 2536 3286 
Q 2788 3178 2913 3003 
Q 3038 2828 3088 2588 
Q 3119 2431 3119 2041 
L 3119 0 
L 2556 0 
L 2556 2019 
Q 2556 2363 2490 2533 
Q 2425 2703 2258 2804 
Q 2091 2906 1866 2906 
Q 1506 2906 1245 2678 
Q 984 2450 984 1813 
L 984 0 
L 422 0 
z
" transform="scale(0.015625)"/>
      </defs>
      <use xlink:href="#ArialMT-6c"/>
      <use xlink:href="#ArialMT-6f" x="22.216797"/>
      <use xlink:href="#ArialMT-63" x="77.832031"/>
      <use xlink:href="#ArialMT-61" x="127.832031"/>
      <use xlink:href="#ArialMT-74" x="183.447266"/>
      <use xlink:href="#ArialMT-69" x="211.230469"/>
      <use xlink:href="#ArialMT-6f" x="233.447266"/>
      <use xlink:href="#ArialMT-6e" x="289.0625"/>
     </g>
    </g>
   </g>
   <g id="matplotlib.axis_2">
    <g id="ytick_1">
     <g id="line2d_1">
      <path d="M 45.470877 287.829468 
L 373.533891 287.829468 
" clip-path="url(#p4986d826e9)" style="fill: none; stroke: #cccccc; stroke-width: 0.8; stroke-linecap: round"/>
     </g>
     <g id="text_4">
      <!-- 0 -->
      <g style="fill: #262626" transform="translate(32.90994 291.408374) scale(0.1 -0.1)">
       <defs>
        <path id="ArialMT-30" d="M 266 2259 
Q 266 3072 433 3567 
Q 600 4063 929 4331 
Q 1259 4600 1759 4600 
Q 2128 4600 2406 4451 
Q 2684 4303 2865 4023 
Q 3047 3744 3150 3342 
Q 3253 2941 3253 2259 
Q 3253 1453 3087 958 
Q 2922 463 2592 192 
Q 2263 -78 1759 -78 
Q 1097 -78 719 397 
Q 266 969 266 2259 
z
M 844 2259 
Q 844 1131 1108 757 
Q 1372 384 1759 384 
Q 2147 384 2411 759 
Q 2675 1134 2675 2259 
Q 2675 3391 2411 3762 
Q 2147 4134 1753 4134 
Q 1366 4134 1134 3806 
Q 844 3388 844 2259 
z
" transform="scale(0.015625)"/>
       </defs>
       <use xlink:href="#ArialMT-30"/>
      </g>
     </g>
    </g>
    <g id="ytick_2">
     <g id="line2d_2">
      <path d="M 45.470877 252.356427 
L 373.533891 252.356427 
" clip-path="url(#p4986d826e9)" style="fill: none; stroke: #cccccc; stroke-width: 0.8; stroke-linecap: round"/>
     </g>
     <g id="text_5">
      <!-- 10 -->
      <g style="fill: #262626" transform="translate(27.349002 255.935334) scale(0.1 -0.1)">
       <defs>
        <path id="ArialMT-31" d="M 2384 0 
L 1822 0 
L 1822 3584 
Q 1619 3391 1289 3197 
Q 959 3003 697 2906 
L 697 3450 
Q 1169 3672 1522 3987 
Q 1875 4303 2022 4600 
L 2384 4600 
L 2384 0 
z
" transform="scale(0.015625)"/>
       </defs>
       <use xlink:href="#ArialMT-31"/>
       <use xlink:href="#ArialMT-30" x="55.615234"/>
      </g>
     </g>
    </g>
    <g id="ytick_3">
     <g id="line2d_3">
      <path d="M 45.470877 216.883387 
L 373.533891 216.883387 
" clip-path="url(#p4986d826e9)" style="fill: none; stroke: #cccccc; stroke-width: 0.8; stroke-linecap: round"/>
     </g>
     <g id="text_6">
      <!-- 20 -->
      <g style="fill: #262626" transform="translate(27.349002 220.462294) scale(0.1 -0.1)">
       <defs>
        <path id="ArialMT-32" d="M 3222 541 
L 3222 0 
L 194 0 
Q 188 203 259 391 
Q 375 700 629 1000 
Q 884 1300 1366 1694 
Q 2113 2306 2375 2664 
Q 2638 3022 2638 3341 
Q 2638 3675 2398 3904 
Q 2159 4134 1775 4134 
Q 1369 4134 1125 3890 
Q 881 3647 878 3216 
L 300 3275 
Q 359 3922 746 4261 
Q 1134 4600 1788 4600 
Q 2447 4600 2831 4234 
Q 3216 3869 3216 3328 
Q 3216 3053 3103 2787 
Q 2991 2522 2730 2228 
Q 2469 1934 1863 1422 
Q 1356 997 1212 845 
Q 1069 694 975 541 
L 3222 541 
z
" transform="scale(0.015625)"/>
       </defs>
       <use xlink:href="#ArialMT-32"/>
       <use xlink:href="#ArialMT-30" x="55.615234"/>
      </g>
     </g>
    </g>
    <g id="ytick_4">
     <g id="line2d_4">
      <path d="M 45.470877 181.410347 
L 373.533891 181.410347 
" clip-path="url(#p4986d826e9)" style="fill: none; stroke: #cccccc; stroke-width: 0.8; stroke-linecap: round"/>
     </g>
     <g id="text_7">
      <!-- 30 -->
      <g style="fill: #262626" transform="translate(27.349002 184.989253) scale(0.1 -0.1)">
       <defs>
        <path id="ArialMT-33" d="M 269 1209 
L 831 1284 
Q 928 806 1161 595 
Q 1394 384 1728 384 
Q 2125 384 2398 659 
Q 2672 934 2672 1341 
Q 2672 1728 2419 1979 
Q 2166 2231 1775 2231 
Q 1616 2231 1378 2169 
L 1441 2663 
Q 1497 2656 1531 2656 
Q 1891 2656 2178 2843 
Q 2466 3031 2466 3422 
Q 2466 3731 2256 3934 
Q 2047 4138 1716 4138 
Q 1388 4138 1169 3931 
Q 950 3725 888 3313 
L 325 3413 
Q 428 3978 793 4289 
Q 1159 4600 1703 4600 
Q 2078 4600 2393 4439 
Q 2709 4278 2876 4000 
Q 3044 3722 3044 3409 
Q 3044 3113 2884 2869 
Q 2725 2625 2413 2481 
Q 2819 2388 3044 2092 
Q 3269 1797 3269 1353 
Q 3269 753 2831 336 
Q 2394 -81 1725 -81 
Q 1122 -81 723 278 
Q 325 638 269 1209 
z
" transform="scale(0.015625)"/>
       </defs>
       <use xlink:href="#ArialMT-33"/>
       <use xlink:href="#ArialMT-30" x="55.615234"/>
      </g>
     </g>
    </g>
    <g id="ytick_5">
     <g id="line2d_5">
      <path d="M 45.470877 145.937307 
L 373.533891 145.937307 
" clip-path="url(#p4986d826e9)" style="fill: none; stroke: #cccccc; stroke-width: 0.8; stroke-linecap: round"/>
     </g>
     <g id="text_8">
      <!-- 40 -->
      <g style="fill: #262626" transform="translate(27.349002 149.516213) scale(0.1 -0.1)">
       <defs>
        <path id="ArialMT-34" d="M 2069 0 
L 2069 1097 
L 81 1097 
L 81 1613 
L 2172 4581 
L 2631 4581 
L 2631 1613 
L 3250 1613 
L 3250 1097 
L 2631 1097 
L 2631 0 
L 2069 0 
z
M 2069 1613 
L 2069 3678 
L 634 1613 
L 2069 1613 
z
" transform="scale(0.015625)"/>
       </defs>
       <use xlink:href="#ArialMT-34"/>
       <use xlink:href="#ArialMT-30" x="55.615234"/>
      </g>
     </g>
    </g>
    <g id="ytick_6">
     <g id="line2d_6">
      <path d="M 45.470877 110.464267 
L 373.533891 110.464267 
" clip-path="url(#p4986d826e9)" style="fill: none; stroke: #cccccc; stroke-width: 0.8; stroke-linecap: round"/>
     </g>
     <g id="text_9">
      <!-- 50 -->
      <g style="fill: #262626" transform="translate(27.349002 114.043173) scale(0.1 -0.1)">
       <defs>
        <path id="ArialMT-35" d="M 266 1200 
L 856 1250 
Q 922 819 1161 601 
Q 1400 384 1738 384 
Q 2144 384 2425 690 
Q 2706 997 2706 1503 
Q 2706 1984 2436 2262 
Q 2166 2541 1728 2541 
Q 1456 2541 1237 2417 
Q 1019 2294 894 2097 
L 366 2166 
L 809 4519 
L 3088 4519 
L 3088 3981 
L 1259 3981 
L 1013 2750 
Q 1425 3038 1878 3038 
Q 2478 3038 2890 2622 
Q 3303 2206 3303 1553 
Q 3303 931 2941 478 
Q 2500 -78 1738 -78 
Q 1113 -78 717 272 
Q 322 622 266 1200 
z
" transform="scale(0.015625)"/>
       </defs>
       <use xlink:href="#ArialMT-35"/>
       <use xlink:href="#ArialMT-30" x="55.615234"/>
      </g>
     </g>
    </g>
    <g id="ytick_7">
     <g id="line2d_7">
      <path d="M 45.470877 74.991227 
L 373.533891 74.991227 
" clip-path="url(#p4986d826e9)" style="fill: none; stroke: #cccccc; stroke-width: 0.8; stroke-linecap: round"/>
     </g>
     <g id="text_10">
      <!-- 60 -->
      <g style="fill: #262626" transform="translate(27.349002 78.570133) scale(0.1 -0.1)">
       <defs>
        <path id="ArialMT-36" d="M 3184 3459 
L 2625 3416 
Q 2550 3747 2413 3897 
Q 2184 4138 1850 4138 
Q 1581 4138 1378 3988 
Q 1113 3794 959 3422 
Q 806 3050 800 2363 
Q 1003 2672 1297 2822 
Q 1591 2972 1913 2972 
Q 2475 2972 2870 2558 
Q 3266 2144 3266 1488 
Q 3266 1056 3080 686 
Q 2894 316 2569 119 
Q 2244 -78 1831 -78 
Q 1128 -78 684 439 
Q 241 956 241 2144 
Q 241 3472 731 4075 
Q 1159 4600 1884 4600 
Q 2425 4600 2770 4297 
Q 3116 3994 3184 3459 
z
M 888 1484 
Q 888 1194 1011 928 
Q 1134 663 1356 523 
Q 1578 384 1822 384 
Q 2178 384 2434 671 
Q 2691 959 2691 1453 
Q 2691 1928 2437 2201 
Q 2184 2475 1800 2475 
Q 1419 2475 1153 2201 
Q 888 1928 888 1484 
z
" transform="scale(0.015625)"/>
       </defs>
       <use xlink:href="#ArialMT-36"/>
       <use xlink:href="#ArialMT-30" x="55.615234"/>
      </g>
     </g>
    </g>
    <g id="ytick_8">
     <g id="line2d_8">
      <path d="M 45.470877 39.518186 
L 373.533891 39.518186 
" clip-path="url(#p4986d826e9)" style="fill: none; stroke: #cccccc; stroke-width: 0.8; stroke-linecap: round"/>
     </g>
     <g id="text_11">
      <!-- 70 -->
      <g style="fill: #262626" transform="translate(27.349002 43.097093) scale(0.1 -0.1)">
       <defs>
        <path id="ArialMT-37" d="M 303 3981 
L 303 4522 
L 3269 4522 
L 3269 4084 
Q 2831 3619 2401 2847 
Q 1972 2075 1738 1259 
Q 1569 684 1522 0 
L 944 0 
Q 953 541 1156 1306 
Q 1359 2072 1739 2783 
Q 2119 3494 2547 3981 
L 303 3981 
z
" transform="scale(0.015625)"/>
       </defs>
       <use xlink:href="#ArialMT-37"/>
       <use xlink:href="#ArialMT-30" x="55.615234"/>
      </g>
     </g>
    </g>
    <g id="text_12">
     <!-- ventilation -->
     <g style="fill: #262626" transform="translate(21.361502 193.893281) rotate(-90) scale(0.1 -0.1)">
      <defs>
       <path id="ArialMT-65" d="M 2694 1069 
L 3275 997 
Q 3138 488 2766 206 
Q 2394 -75 1816 -75 
Q 1088 -75 661 373 
Q 234 822 234 1631 
Q 234 2469 665 2931 
Q 1097 3394 1784 3394 
Q 2450 3394 2872 2941 
Q 3294 2488 3294 1666 
Q 3294 1616 3291 1516 
L 816 1516 
Q 847 969 1125 678 
Q 1403 388 1819 388 
Q 2128 388 2347 550 
Q 2566 713 2694 1069 
z
M 847 1978 
L 2700 1978 
Q 2663 2397 2488 2606 
Q 2219 2931 1791 2931 
Q 1403 2931 1139 2672 
Q 875 2413 847 1978 
z
" transform="scale(0.015625)"/>
      </defs>
      <use xlink:href="#ArialMT-76"/>
      <use xlink:href="#ArialMT-65" x="50"/>
      <use xlink:href="#ArialMT-6e" x="105.615234"/>
      <use xlink:href="#ArialMT-74" x="161.230469"/>
      <use xlink:href="#ArialMT-69" x="189.013672"/>
      <use xlink:href="#ArialMT-6c" x="211.230469"/>
      <use xlink:href="#ArialMT-61" x="233.447266"/>
      <use xlink:href="#ArialMT-74" x="289.0625"/>
      <use xlink:href="#ArialMT-69" x="316.845703"/>
      <use xlink:href="#ArialMT-6f" x="339.0625"/>
      <use xlink:href="#ArialMT-6e" x="394.677734"/>
     </g>
    </g>
   </g>
   <g id="PolyCollection_1">
    <defs>
     <path id="mbc37451bec" d="M 95.869814 -105.922287 
L 93.490845 -105.922287 
L 93.281273 -107.028131 
L 93.045037 -108.133974 
L 92.780755 -109.239818 
L 92.487339 -110.345661 
L 92.164056 -111.451505 
L 91.810585 -112.557349 
L 91.42707 -113.663192 
L 91.014157 -114.769036 
L 90.573017 -115.874879 
L 90.105359 -116.980723 
L 89.613419 -118.086566 
L 89.099929 -119.19241 
L 88.56807 -120.298253 
L 88.021402 -121.404097 
L 87.463774 -122.50994 
L 86.899227 -123.615784 
L 86.331868 -124.721628 
L 85.765754 -125.827471 
L 85.204756 -126.933315 
L 84.652435 -128.039158 
L 84.111914 -129.145002 
L 83.58577 -130.250845 
L 83.07593 -131.356689 
L 82.583598 -132.462532 
L 82.109187 -133.568376 
L 81.652296 -134.674219 
L 81.211688 -135.780063 
L 80.785313 -136.885907 
L 80.370345 -137.99175 
L 79.963246 -139.097594 
L 79.559855 -140.203437 
L 79.155494 -141.309281 
L 78.745095 -142.415124 
L 78.323346 -143.520968 
L 77.884851 -144.626811 
L 77.424297 -145.732655 
L 76.93664 -146.838498 
L 76.417292 -147.944342 
L 75.862311 -149.050185 
L 75.268591 -150.156029 
L 74.634047 -151.261873 
L 73.957782 -152.367716 
L 73.240245 -153.47356 
L 72.483351 -154.579403 
L 71.690577 -155.685247 
L 70.86701 -156.79109 
L 70.01936 -157.896934 
L 69.155906 -159.002777 
L 68.286396 -160.108621 
L 67.421892 -161.214464 
L 66.574551 -162.320308 
L 65.757366 -163.426152 
L 64.983855 -164.531995 
L 64.267717 -165.637839 
L 63.622471 -166.743682 
L 63.061081 -167.849526 
L 62.595585 -168.955369 
L 62.236757 -170.061213 
L 61.993788 -171.167056 
L 61.874028 -172.2729 
L 61.88278 -173.378743 
L 62.023163 -174.484587 
L 62.296043 -175.590431 
L 62.700042 -176.696274 
L 63.231606 -177.802118 
L 63.885147 -178.907961 
L 64.653236 -180.013805 
L 65.526836 -181.119648 
L 66.495578 -182.225492 
L 67.548049 -183.331335 
L 68.672095 -184.437179 
L 69.855114 -185.543022 
L 71.084338 -186.648866 
L 72.347101 -187.754709 
L 73.631063 -188.860553 
L 74.924416 -189.966397 
L 76.21605 -191.07224 
L 77.49568 -192.178084 
L 78.753945 -193.283927 
L 79.982475 -194.389771 
L 81.173922 -195.495614 
L 82.321981 -196.601458 
L 83.421375 -197.707301 
L 84.467834 -198.813145 
L 85.458053 -199.918988 
L 86.389646 -201.024832 
L 87.261088 -202.130676 
L 88.071652 -203.236519 
L 88.82134 -204.342363 
L 89.510817 -205.448206 
L 90.141331 -206.55405 
L 90.714647 -207.659893 
L 91.232966 -208.765737 
L 91.698856 -209.87158 
L 92.115174 -210.977424 
L 92.485001 -212.083267 
L 92.811568 -213.189111 
L 93.098198 -214.294955 
L 93.348241 -215.400798 
L 96.012418 -215.400798 
L 96.012418 -215.400798 
L 96.262461 -214.294955 
L 96.549091 -213.189111 
L 96.875659 -212.083267 
L 97.245485 -210.977424 
L 97.661803 -209.87158 
L 98.127693 -208.765737 
L 98.646012 -207.659893 
L 99.219328 -206.55405 
L 99.849842 -205.448206 
L 100.539319 -204.342363 
L 101.289008 -203.236519 
L 102.099571 -202.130676 
L 102.971014 -201.024832 
L 103.902607 -199.918988 
L 104.892825 -198.813145 
L 105.939284 -197.707301 
L 107.038678 -196.601458 
L 108.186737 -195.495614 
L 109.378185 -194.389771 
L 110.606714 -193.283927 
L 111.864979 -192.178084 
L 113.144609 -191.07224 
L 114.436243 -189.966397 
L 115.729597 -188.860553 
L 117.013558 -187.754709 
L 118.276321 -186.648866 
L 119.505546 -185.543022 
L 120.688564 -184.437179 
L 121.81261 -183.331335 
L 122.865082 -182.225492 
L 123.833824 -181.119648 
L 124.707424 -180.013805 
L 125.475512 -178.907961 
L 126.129054 -177.802118 
L 126.660618 -176.696274 
L 127.064616 -175.590431 
L 127.337497 -174.484587 
L 127.477879 -173.378743 
L 127.486631 -172.2729 
L 127.366871 -171.167056 
L 127.123902 -170.061213 
L 126.765074 -168.955369 
L 126.299579 -167.849526 
L 125.738188 -166.743682 
L 125.092942 -165.637839 
L 124.376804 -164.531995 
L 123.603293 -163.426152 
L 122.786108 -162.320308 
L 121.938767 -161.214464 
L 121.074263 -160.108621 
L 120.204753 -159.002777 
L 119.341299 -157.896934 
L 118.493649 -156.79109 
L 117.670083 -155.685247 
L 116.877308 -154.579403 
L 116.120414 -153.47356 
L 115.402877 -152.367716 
L 114.726613 -151.261873 
L 114.092068 -150.156029 
L 113.498348 -149.050185 
L 112.943367 -147.944342 
L 112.424019 -146.838498 
L 111.936362 -145.732655 
L 111.475808 -144.626811 
L 111.037313 -143.520968 
L 110.615564 -142.415124 
L 110.205166 -141.309281 
L 109.800804 -140.203437 
L 109.397413 -139.097594 
L 108.990315 -137.99175 
L 108.575346 -136.885907 
L 108.148971 -135.780063 
L 107.708363 -134.674219 
L 107.251472 -133.568376 
L 106.777062 -132.462532 
L 106.284729 -131.356689 
L 105.774889 -130.250845 
L 105.248745 -129.145002 
L 104.708224 -128.039158 
L 104.155903 -126.933315 
L 103.594906 -125.827471 
L 103.028791 -124.721628 
L 102.461433 -123.615784 
L 101.896885 -122.50994 
L 101.339258 -121.404097 
L 100.792589 -120.298253 
L 100.26073 -119.19241 
L 99.74724 -118.086566 
L 99.2553 -116.980723 
L 98.787643 -115.874879 
L 98.346503 -114.769036 
L 97.933589 -113.663192 
L 97.550074 -112.557349 
L 97.196603 -111.451505 
L 96.87332 -110.345661 
L 96.579904 -109.239818 
L 96.315622 -108.133974 
L 96.079386 -107.028131 
L 95.869814 -105.922287 
z
" style="stroke: #3f3f3f; stroke-width: 1.25"/>
    </defs>
    <g clip-path="url(#p4986d826e9)">
     <use xlink:href="#mbc37451bec" x="0" y="360" style="fill: #3274a1; stroke: #3f3f3f; stroke-width: 1.25"/>
    </g>
   </g>
   <g id="PolyCollection_2">
    <defs>
     <path id="m814a641470" d="M 162.085932 -84.040167 
L 158.499933 -84.040167 
L 158.185018 -85.653408 
L 157.827826 -87.26665 
L 157.425193 -88.879891 
L 156.974161 -90.493132 
L 156.472069 -92.106373 
L 155.916649 -93.719615 
L 155.306119 -95.332856 
L 154.639283 -96.946097 
L 153.915618 -98.559338 
L 153.135359 -100.17258 
L 152.299577 -101.785821 
L 151.410232 -103.399062 
L 150.470222 -105.012304 
L 149.4834 -106.625545 
L 148.454578 -108.238786 
L 147.389499 -109.852027 
L 146.294787 -111.465269 
L 145.177871 -113.07851 
L 144.046881 -114.691751 
L 142.910519 -116.304992 
L 141.777912 -117.918234 
L 140.658439 -119.531475 
L 139.561544 -121.144716 
L 138.496543 -122.757957 
L 137.472414 -124.371199 
L 136.497598 -125.98444 
L 135.579791 -127.597681 
L 134.725758 -129.210922 
L 133.941158 -130.824164 
L 133.230389 -132.437405 
L 132.596468 -134.050646 
L 132.04093 -135.663888 
L 131.563774 -137.277129 
L 131.163446 -138.89037 
L 130.836857 -140.503611 
L 130.579455 -142.116853 
L 130.385328 -143.730094 
L 130.247354 -145.343335 
L 130.157396 -146.956576 
L 130.106521 -148.569818 
L 130.085257 -150.183059 
L 130.083873 -151.7963 
L 130.092671 -153.409541 
L 130.102293 -155.022783 
L 130.104021 -156.636024 
L 130.09007 -158.249265 
L 130.053854 -159.862506 
L 129.990232 -161.475748 
L 129.895705 -163.088989 
L 129.76857 -164.70223 
L 129.60902 -166.315472 
L 129.419185 -167.928713 
L 129.203107 -169.541954 
L 128.966661 -171.155195 
L 128.717401 -172.768437 
L 128.464363 -174.381678 
L 128.217805 -175.994919 
L 127.988907 -177.60816 
L 127.78944 -179.221402 
L 127.631408 -180.834643 
L 127.526681 -182.447884 
L 127.486631 -184.061125 
L 127.521783 -185.674367 
L 127.64149 -187.287608 
L 127.853648 -188.900849 
L 128.164458 -190.51409 
L 128.578238 -192.127332 
L 129.0973 -193.740573 
L 129.721889 -195.353814 
L 130.450176 -196.967056 
L 131.278328 -198.580297 
L 132.200617 -200.193538 
L 133.209595 -201.806779 
L 134.296306 -203.420021 
L 135.450533 -205.033262 
L 136.661069 -206.646503 
L 137.91601 -208.259744 
L 139.203043 -209.872986 
L 140.509742 -211.486227 
L 141.823839 -213.099468 
L 143.13348 -214.712709 
L 144.427458 -216.325951 
L 145.695405 -217.939192 
L 146.927953 -219.552433 
L 148.116857 -221.165674 
L 149.25508 -222.778916 
L 150.336837 -224.392157 
L 151.357607 -226.005398 
L 152.314112 -227.618639 
L 153.204265 -229.231881 
L 154.027098 -230.845122 
L 154.782661 -232.458363 
L 155.471921 -234.071605 
L 156.096636 -235.684846 
L 156.659237 -237.298087 
L 157.162694 -238.911328 
L 157.610402 -240.52457 
L 158.006057 -242.137811 
L 158.353552 -243.751052 
L 162.232313 -243.751052 
L 162.232313 -243.751052 
L 162.579808 -242.137811 
L 162.975463 -240.52457 
L 163.423171 -238.911328 
L 163.926628 -237.298087 
L 164.489228 -235.684846 
L 165.113944 -234.071605 
L 165.803204 -232.458363 
L 166.558767 -230.845122 
L 167.381599 -229.231881 
L 168.271753 -227.618639 
L 169.228258 -226.005398 
L 170.249028 -224.392157 
L 171.330785 -222.778916 
L 172.469008 -221.165674 
L 173.657912 -219.552433 
L 174.89046 -217.939192 
L 176.158407 -216.325951 
L 177.452385 -214.712709 
L 178.762026 -213.099468 
L 180.076123 -211.486227 
L 181.382821 -209.872986 
L 182.669855 -208.259744 
L 183.924796 -206.646503 
L 185.135332 -205.033262 
L 186.289559 -203.420021 
L 187.37627 -201.806779 
L 188.385248 -200.193538 
L 189.307537 -198.580297 
L 190.135688 -196.967056 
L 190.863976 -195.353814 
L 191.488564 -193.740573 
L 192.007627 -192.127332 
L 192.421407 -190.51409 
L 192.732216 -188.900849 
L 192.944375 -187.287608 
L 193.064082 -185.674367 
L 193.099234 -184.061125 
L 193.059184 -182.447884 
L 192.954457 -180.834643 
L 192.796425 -179.221402 
L 192.596958 -177.60816 
L 192.36806 -175.994919 
L 192.121502 -174.381678 
L 191.868464 -172.768437 
L 191.619204 -171.155195 
L 191.382758 -169.541954 
L 191.16668 -167.928713 
L 190.976845 -166.315472 
L 190.817295 -164.70223 
L 190.69016 -163.088989 
L 190.595633 -161.475748 
L 190.532011 -159.862506 
L 190.495795 -158.249265 
L 190.481844 -156.636024 
L 190.483572 -155.022783 
L 190.493194 -153.409541 
L 190.501992 -151.7963 
L 190.500607 -150.183059 
L 190.479344 -148.569818 
L 190.428469 -146.956576 
L 190.338511 -145.343335 
L 190.200537 -143.730094 
L 190.006409 -142.116853 
L 189.749007 -140.503611 
L 189.422419 -138.89037 
L 189.022091 -137.277129 
L 188.544935 -135.663888 
L 187.989397 -134.050646 
L 187.355475 -132.437405 
L 186.644707 -130.824164 
L 185.860107 -129.210922 
L 185.006074 -127.597681 
L 184.088267 -125.98444 
L 183.11345 -124.371199 
L 182.089322 -122.757957 
L 181.024321 -121.144716 
L 179.927426 -119.531475 
L 178.807953 -117.918234 
L 177.675346 -116.304992 
L 176.538984 -114.691751 
L 175.407994 -113.07851 
L 174.291078 -111.465269 
L 173.196366 -109.852027 
L 172.131287 -108.238786 
L 171.102465 -106.625545 
L 170.115643 -105.012304 
L 169.175633 -103.399062 
L 168.286288 -101.785821 
L 167.450506 -100.17258 
L 166.670247 -98.559338 
L 165.946582 -96.946097 
L 165.279746 -95.332856 
L 164.669216 -93.719615 
L 164.113796 -92.106373 
L 163.611704 -90.493132 
L 163.160671 -88.879891 
L 162.758038 -87.26665 
L 162.400847 -85.653408 
L 162.085932 -84.040167 
z
" style="stroke: #3f3f3f; stroke-width: 1.25"/>
    </defs>
    <g clip-path="url(#p4986d826e9)">
     <use xlink:href="#m814a641470" x="0" y="360" style="fill: #e1812c; stroke: #3f3f3f; stroke-width: 1.25"/>
    </g>
   </g>
   <g id="PolyCollection_3">
    <defs>
     <path id="mccb764f2c7" d="M 259.646037 -106.382705 
L 257.777636 -106.382705 
L 257.599878 -108.560125 
L 257.39671 -110.737545 
L 257.166273 -112.914965 
L 256.906924 -115.092385 
L 256.617306 -117.269804 
L 256.296432 -119.447224 
L 255.94376 -121.624644 
L 255.55927 -123.802064 
L 255.143527 -125.979484 
L 254.697738 -128.156904 
L 254.223796 -130.334324 
L 253.724296 -132.511744 
L 253.202542 -134.689163 
L 252.662522 -136.866583 
L 252.108864 -139.044003 
L 251.546763 -141.221423 
L 250.981885 -143.398843 
L 250.420247 -145.576263 
L 249.868081 -147.753683 
L 249.331676 -149.931103 
L 248.817218 -152.108522 
L 248.330617 -154.285942 
L 247.877338 -156.463362 
L 247.462246 -158.640782 
L 247.089455 -160.818202 
L 246.762205 -162.995622 
L 246.482764 -165.173042 
L 246.252357 -167.350462 
L 246.071129 -169.527881 
L 245.938146 -171.705301 
L 245.851427 -173.882721 
L 245.808015 -176.060141 
L 245.804073 -178.237561 
L 245.835016 -180.414981 
L 245.89566 -182.592401 
L 245.980389 -184.769821 
L 246.083338 -186.94724 
L 246.198575 -189.12466 
L 246.320285 -191.30208 
L 246.442945 -193.4795 
L 246.561486 -195.65692 
L 246.671434 -197.83434 
L 246.769034 -200.01176 
L 246.851342 -202.18918 
L 246.916292 -204.366599 
L 246.962731 -206.544019 
L 246.990431 -208.721439 
L 247.000064 -210.898859 
L 246.993156 -213.076279 
L 246.972013 -215.253699 
L 246.939628 -217.431119 
L 246.899566 -219.608539 
L 246.855842 -221.785958 
L 246.812784 -223.963378 
L 246.774893 -226.140798 
L 246.746702 -228.318218 
L 246.732642 -230.495638 
L 246.736912 -232.673058 
L 246.763362 -234.850478 
L 246.815394 -237.027898 
L 246.895875 -239.205317 
L 247.007075 -241.382737 
L 247.150619 -243.560157 
L 247.327467 -245.737577 
L 247.537903 -247.914997 
L 247.781556 -250.092417 
L 248.057429 -252.269837 
L 248.363943 -254.447257 
L 248.698999 -256.624676 
L 249.060042 -258.802096 
L 249.444142 -260.979516 
L 249.848065 -263.156936 
L 250.268359 -265.334356 
L 250.701429 -267.511776 
L 251.143615 -269.689196 
L 251.591263 -271.866616 
L 252.040788 -274.044035 
L 252.488737 -276.221455 
L 252.931837 -278.398875 
L 253.367038 -280.576295 
L 253.791552 -282.753715 
L 254.202876 -284.931135 
L 254.59882 -287.108555 
L 254.977513 -289.285975 
L 255.337414 -291.463394 
L 255.677312 -293.640814 
L 255.996321 -295.818234 
L 256.293868 -297.995654 
L 256.569678 -300.173074 
L 256.823754 -302.350494 
L 257.056356 -304.527914 
L 257.26797 -306.705334 
L 257.459284 -308.882753 
L 257.631157 -311.060173 
L 257.784584 -313.237593 
L 257.920673 -315.415013 
L 258.040606 -317.592433 
L 258.145618 -319.769853 
L 258.236968 -321.947273 
L 259.186705 -321.947273 
L 259.186705 -321.947273 
L 259.278055 -319.769853 
L 259.383067 -317.592433 
L 259.503001 -315.415013 
L 259.639089 -313.237593 
L 259.792516 -311.060173 
L 259.964389 -308.882753 
L 260.155703 -306.705334 
L 260.367318 -304.527914 
L 260.599919 -302.350494 
L 260.853995 -300.173074 
L 261.129805 -297.995654 
L 261.427352 -295.818234 
L 261.746361 -293.640814 
L 262.08626 -291.463394 
L 262.446161 -289.285975 
L 262.824853 -287.108555 
L 263.220797 -284.931135 
L 263.632122 -282.753715 
L 264.056635 -280.576295 
L 264.491836 -278.398875 
L 264.934936 -276.221455 
L 265.382885 -274.044035 
L 265.832411 -271.866616 
L 266.280058 -269.689196 
L 266.722244 -267.511776 
L 267.155314 -265.334356 
L 267.575608 -263.156936 
L 267.979531 -260.979516 
L 268.363631 -258.802096 
L 268.724675 -256.624676 
L 269.05973 -254.447257 
L 269.366244 -252.269837 
L 269.642117 -250.092417 
L 269.88577 -247.914997 
L 270.096206 -245.737577 
L 270.273054 -243.560157 
L 270.416598 -241.382737 
L 270.527798 -239.205317 
L 270.608279 -237.027898 
L 270.660311 -234.850478 
L 270.686761 -232.673058 
L 270.691031 -230.495638 
L 270.676971 -228.318218 
L 270.648781 -226.140798 
L 270.610889 -223.963378 
L 270.567832 -221.785958 
L 270.524108 -219.608539 
L 270.484046 -217.431119 
L 270.45166 -215.253699 
L 270.430517 -213.076279 
L 270.423609 -210.898859 
L 270.433242 -208.721439 
L 270.460942 -206.544019 
L 270.507382 -204.366599 
L 270.572331 -202.18918 
L 270.654639 -200.01176 
L 270.752239 -197.83434 
L 270.862188 -195.65692 
L 270.980728 -193.4795 
L 271.103388 -191.30208 
L 271.225098 -189.12466 
L 271.340335 -186.94724 
L 271.443284 -184.769821 
L 271.528013 -182.592401 
L 271.588657 -180.414981 
L 271.6196 -178.237561 
L 271.615659 -176.060141 
L 271.572246 -173.882721 
L 271.485527 -171.705301 
L 271.352544 -169.527881 
L 271.171316 -167.350462 
L 270.940909 -165.173042 
L 270.661468 -162.995622 
L 270.334218 -160.818202 
L 269.961427 -158.640782 
L 269.546335 -156.463362 
L 269.093056 -154.285942 
L 268.606455 -152.108522 
L 268.091997 -149.931103 
L 267.555592 -147.753683 
L 267.003426 -145.576263 
L 266.441788 -143.398843 
L 265.87691 -141.221423 
L 265.314809 -139.044003 
L 264.761151 -136.866583 
L 264.221132 -134.689163 
L 263.699377 -132.511744 
L 263.199877 -130.334324 
L 262.725935 -128.156904 
L 262.280147 -125.979484 
L 261.864403 -123.802064 
L 261.479913 -121.624644 
L 261.127241 -119.447224 
L 260.806367 -117.269804 
L 260.516749 -115.092385 
L 260.2574 -112.914965 
L 260.026964 -110.737545 
L 259.823795 -108.560125 
L 259.646037 -106.382705 
z
" style="stroke: #3f3f3f; stroke-width: 1.25"/>
    </defs>
    <g clip-path="url(#p4986d826e9)">
     <use xlink:href="#mccb764f2c7" x="0" y="360" style="fill: #3274a1; stroke: #3f3f3f; stroke-width: 1.25"/>
    </g>
   </g>
   <g id="PolyCollection_4">
    <defs>
     <path id="mdf366b0b5c" d="M 325.160995 -61.155502 
L 323.487884 -61.155502 
L 323.310263 -63.560222 
L 323.104112 -65.964941 
L 322.86684 -68.36966 
L 322.595977 -70.77438 
L 322.28924 -73.179099 
L 321.944589 -75.583819 
L 321.56028 -77.988538 
L 321.134908 -80.393257 
L 320.667436 -82.797977 
L 320.157222 -85.202696 
L 319.604018 -87.607416 
L 319.007979 -90.012135 
L 318.369641 -92.416854 
L 317.689916 -94.821574 
L 316.970068 -97.226293 
L 316.211703 -99.631013 
L 315.416758 -102.035732 
L 314.587501 -104.440451 
L 313.726544 -106.845171 
L 312.836858 -109.24989 
L 311.921803 -111.654609 
L 310.985156 -114.059329 
L 310.031141 -116.464048 
L 309.064445 -118.868768 
L 308.090222 -121.273487 
L 307.114078 -123.678206 
L 306.142025 -126.082926 
L 305.180412 -128.487645 
L 304.235823 -130.892365 
L 303.314955 -133.297084 
L 302.424474 -135.701803 
L 301.570859 -138.106523 
L 300.760258 -140.511242 
L 299.998337 -142.915962 
L 299.290172 -145.320681 
L 298.640156 -147.7254 
L 298.051957 -150.13012 
L 297.528515 -152.534839 
L 297.072077 -154.939558 
L 296.684276 -157.344278 
L 296.366236 -159.748997 
L 296.118689 -162.153717 
L 295.942109 -164.558436 
L 295.83682 -166.963155 
L 295.803094 -169.367875 
L 295.841198 -171.772594 
L 295.951416 -174.177314 
L 296.134001 -176.582033 
L 296.3891 -178.986752 
L 296.716621 -181.391472 
L 297.116076 -183.796191 
L 297.586404 -186.20091 
L 298.125793 -188.60563 
L 298.731509 -191.010349 
L 299.399774 -193.415069 
L 300.125675 -195.819788 
L 300.903146 -198.224507 
L 301.725015 -200.629227 
L 302.583124 -203.033946 
L 303.468514 -205.438666 
L 304.371684 -207.843385 
L 305.282885 -210.248104 
L 306.192456 -212.652824 
L 307.091167 -215.057543 
L 307.970552 -217.462263 
L 308.823213 -219.866982 
L 309.643075 -222.271701 
L 310.425567 -224.676421 
L 311.16773 -227.08114 
L 311.86824 -229.485859 
L 312.527343 -231.890579 
L 313.14671 -234.295298 
L 313.729221 -236.700018 
L 314.278699 -239.104737 
L 314.799602 -241.509456 
L 315.296707 -243.914176 
L 315.77479 -246.318895 
L 316.238333 -248.723615 
L 316.691279 -251.128334 
L 317.136831 -253.533053 
L 317.577317 -255.937773 
L 318.014124 -258.342492 
L 318.447694 -260.747211 
L 318.877577 -263.151931 
L 319.302544 -265.55665 
L 319.720728 -267.96137 
L 320.129801 -270.366089 
L 320.527153 -272.770808 
L 320.910084 -275.175528 
L 321.275968 -277.580247 
L 321.622409 -279.984967 
L 321.94736 -282.389686 
L 322.249213 -284.794405 
L 322.526855 -287.199125 
L 322.779688 -289.603844 
L 323.007623 -292.008564 
L 323.21105 -294.413283 
L 323.390777 -296.818002 
L 323.547973 -299.222722 
L 325.100906 -299.222722 
L 325.100906 -299.222722 
L 325.258102 -296.818002 
L 325.437829 -294.413283 
L 325.641256 -292.008564 
L 325.869191 -289.603844 
L 326.122024 -287.199125 
L 326.399665 -284.794405 
L 326.701518 -282.389686 
L 327.026469 -279.984967 
L 327.37291 -277.580247 
L 327.738795 -275.175528 
L 328.121725 -272.770808 
L 328.519078 -270.366089 
L 328.92815 -267.96137 
L 329.346335 -265.55665 
L 329.771302 -263.151931 
L 330.201185 -260.747211 
L 330.634754 -258.342492 
L 331.071562 -255.937773 
L 331.512048 -253.533053 
L 331.9576 -251.128334 
L 332.410546 -248.723615 
L 332.874089 -246.318895 
L 333.352171 -243.914176 
L 333.849276 -241.509456 
L 334.37018 -239.104737 
L 334.919658 -236.700018 
L 335.502169 -234.295298 
L 336.121535 -231.890579 
L 336.780639 -229.485859 
L 337.481149 -227.08114 
L 338.223312 -224.676421 
L 339.005804 -222.271701 
L 339.825665 -219.866982 
L 340.678327 -217.462263 
L 341.557712 -215.057543 
L 342.456423 -212.652824 
L 343.365994 -210.248104 
L 344.277195 -207.843385 
L 345.180365 -205.438666 
L 346.065755 -203.033946 
L 346.923863 -200.629227 
L 347.745733 -198.224507 
L 348.523204 -195.819788 
L 349.249105 -193.415069 
L 349.91737 -191.010349 
L 350.523086 -188.60563 
L 351.062474 -186.20091 
L 351.532803 -183.796191 
L 351.932258 -181.391472 
L 352.259779 -178.986752 
L 352.514878 -176.582033 
L 352.697463 -174.177314 
L 352.807681 -171.772594 
L 352.845785 -169.367875 
L 352.812058 -166.963155 
L 352.70677 -164.558436 
L 352.53019 -162.153717 
L 352.282643 -159.748997 
L 351.964602 -157.344278 
L 351.576802 -154.939558 
L 351.120364 -152.534839 
L 350.596922 -150.13012 
L 350.008723 -147.7254 
L 349.358707 -145.320681 
L 348.650541 -142.915962 
L 347.888621 -140.511242 
L 347.078019 -138.106523 
L 346.224405 -135.701803 
L 345.333923 -133.297084 
L 344.413056 -130.892365 
L 343.468467 -128.487645 
L 342.506854 -126.082926 
L 341.534801 -123.678206 
L 340.558657 -121.273487 
L 339.584434 -118.868768 
L 338.617737 -116.464048 
L 337.663723 -114.059329 
L 336.727076 -111.654609 
L 335.812021 -109.24989 
L 334.922335 -106.845171 
L 334.061378 -104.440451 
L 333.232121 -102.035732 
L 332.437176 -99.631013 
L 331.678811 -97.226293 
L 330.958963 -94.821574 
L 330.279238 -92.416854 
L 329.6409 -90.012135 
L 329.04486 -87.607416 
L 328.491657 -85.202696 
L 327.981442 -82.797977 
L 327.513971 -80.393257 
L 327.088599 -77.988538 
L 326.70429 -75.583819 
L 326.359639 -73.179099 
L 326.052902 -70.77438 
L 325.782039 -68.36966 
L 325.544766 -65.964941 
L 325.338616 -63.560222 
L 325.160995 -61.155502 
z
" style="stroke: #3f3f3f; stroke-width: 1.25"/>
    </defs>
    <g clip-path="url(#p4986d826e9)">
     <use xlink:href="#mdf366b0b5c" x="0" y="360" style="fill: #e1812c; stroke: #3f3f3f; stroke-width: 1.25"/>
    </g>
   </g>
   <g id="line2d_9">
    <path d="M 94.68033 226.86279 
L 94.68033 171.814124 
" clip-path="url(#p4986d826e9)" style="fill: none; stroke: #3f3f3f; stroke-width: 1.875; stroke-linecap: round"/>
   </g>
   <g id="line2d_10">
    <path d="M 94.68033 203.389457 
L 94.68033 187.097869 
" clip-path="url(#p4986d826e9)" style="fill: none; stroke: #3f3f3f; stroke-width: 5.625; stroke-linecap: round"/>
   </g>
   <g id="line2d_11">
    <path d="M 94.68033 188.062322 
" clip-path="url(#p4986d826e9)" style="fill: none; stroke: #3f3f3f; stroke-width: 1.5; stroke-linecap: round"/>
    <defs>
     <path id="m4af3268cd6" d="M 2.34375 0 
L -2.34375 -0 
" style="stroke: #ffffff; stroke-width: 1.125"/>
    </defs>
    <g clip-path="url(#p4986d826e9)">
     <use xlink:href="#m4af3268cd6" x="94.68033" y="188.062322" style="fill: #ffffff; stroke: #ffffff; stroke-width: 1.125"/>
    </g>
   </g>
   <g id="line2d_12">
    <path d="M 160.292932 233.761206 
L 160.292932 158.447575 
" clip-path="url(#p4986d826e9)" style="fill: none; stroke: #3f3f3f; stroke-width: 1.875; stroke-linecap: round"/>
   </g>
   <g id="line2d_13">
    <path d="M 160.292932 217.252905 
L 160.292932 172.47218 
" clip-path="url(#p4986d826e9)" style="fill: none; stroke: #3f3f3f; stroke-width: 5.625; stroke-linecap: round"/>
   </g>
   <g id="line2d_14">
    <path d="M 160.292932 191.42429 
" clip-path="url(#p4986d826e9)" style="fill: none; stroke: #3f3f3f; stroke-width: 1.5; stroke-linecap: round"/>
    <g clip-path="url(#p4986d826e9)">
     <use xlink:href="#m4af3268cd6" x="160.292932" y="191.42429" style="fill: #ffffff; stroke: #ffffff; stroke-width: 1.125"/>
    </g>
   </g>
   <g id="line2d_15">
    <path d="M 258.711837 200.997996 
L 258.711837 90.672027 
" clip-path="url(#p4986d826e9)" style="fill: none; stroke: #3f3f3f; stroke-width: 1.875; stroke-linecap: round"/>
   </g>
   <g id="line2d_16">
    <path d="M 258.711837 186.663081 
L 258.711837 118.301923 
" clip-path="url(#p4986d826e9)" style="fill: none; stroke: #3f3f3f; stroke-width: 5.625; stroke-linecap: round"/>
   </g>
   <g id="line2d_17">
    <path d="M 258.711837 153.934389 
" clip-path="url(#p4986d826e9)" style="fill: none; stroke: #3f3f3f; stroke-width: 1.5; stroke-linecap: round"/>
    <g clip-path="url(#p4986d826e9)">
     <use xlink:href="#m4af3268cd6" x="258.711837" y="153.934389" style="fill: #ffffff; stroke: #ffffff; stroke-width: 1.125"/>
    </g>
   </g>
   <g id="line2d_18">
    <path d="M 324.324439 247.277807 
L 324.324439 112.343969 
" clip-path="url(#p4986d826e9)" style="fill: none; stroke: #3f3f3f; stroke-width: 1.875; stroke-linecap: round"/>
   </g>
   <g id="line2d_19">
    <path d="M 324.324439 213.599689 
L 324.324439 162.686429 
" clip-path="url(#p4986d826e9)" style="fill: none; stroke: #3f3f3f; stroke-width: 5.625; stroke-linecap: round"/>
   </g>
   <g id="line2d_20">
    <path d="M 324.324439 184.526429 
" clip-path="url(#p4986d826e9)" style="fill: none; stroke: #3f3f3f; stroke-width: 1.5; stroke-linecap: round"/>
    <g clip-path="url(#p4986d826e9)">
     <use xlink:href="#m4af3268cd6" x="324.324439" y="184.526429" style="fill: #ffffff; stroke: #ffffff; stroke-width: 1.125"/>
    </g>
   </g>
   <g id="patch_3">
    <path d="M 45.470877 318.04 
L 45.470877 24.72 
" style="fill: none; stroke: #cccccc; stroke-width: 0.8; stroke-linejoin: miter; stroke-linecap: square"/>
   </g>
   <g id="patch_4">
    <path d="M 45.470878 318.04 
L 373.533891 318.04 
" style="fill: none; stroke: #cccccc; stroke-width: 0.8; stroke-linejoin: miter; stroke-linecap: square"/>
   </g>
   <g id="text_13">
    <!-- sex = f -->
    <g style="fill: #262626" transform="translate(194.634416 18.72) scale(0.1 -0.1)">
     <defs>
      <path id="ArialMT-73" d="M 197 991 
L 753 1078 
Q 800 744 1014 566 
Q 1228 388 1613 388 
Q 2000 388 2187 545 
Q 2375 703 2375 916 
Q 2375 1106 2209 1216 
Q 2094 1291 1634 1406 
Q 1016 1563 777 1677 
Q 538 1791 414 1992 
Q 291 2194 291 2438 
Q 291 2659 392 2848 
Q 494 3038 669 3163 
Q 800 3259 1026 3326 
Q 1253 3394 1513 3394 
Q 1903 3394 2198 3281 
Q 2494 3169 2634 2976 
Q 2775 2784 2828 2463 
L 2278 2388 
Q 2241 2644 2061 2787 
Q 1881 2931 1553 2931 
Q 1166 2931 1000 2803 
Q 834 2675 834 2503 
Q 834 2394 903 2306 
Q 972 2216 1119 2156 
Q 1203 2125 1616 2013 
Q 2213 1853 2448 1751 
Q 2684 1650 2818 1456 
Q 2953 1263 2953 975 
Q 2953 694 2789 445 
Q 2625 197 2315 61 
Q 2006 -75 1616 -75 
Q 969 -75 630 194 
Q 291 463 197 991 
z
" transform="scale(0.015625)"/>
      <path id="ArialMT-78" d="M 47 0 
L 1259 1725 
L 138 3319 
L 841 3319 
L 1350 2541 
Q 1494 2319 1581 2169 
Q 1719 2375 1834 2534 
L 2394 3319 
L 3066 3319 
L 1919 1756 
L 3153 0 
L 2463 0 
L 1781 1031 
L 1600 1309 
L 728 0 
L 47 0 
z
" transform="scale(0.015625)"/>
      <path id="ArialMT-20" transform="scale(0.015625)"/>
      <path id="ArialMT-3d" d="M 3381 2694 
L 356 2694 
L 356 3219 
L 3381 3219 
L 3381 2694 
z
M 3381 1303 
L 356 1303 
L 356 1828 
L 3381 1828 
L 3381 1303 
z
" transform="scale(0.015625)"/>
      <path id="ArialMT-66" d="M 556 0 
L 556 2881 
L 59 2881 
L 59 3319 
L 556 3319 
L 556 3672 
Q 556 4006 616 4169 
Q 697 4388 901 4523 
Q 1106 4659 1475 4659 
Q 1713 4659 2000 4603 
L 1916 4113 
Q 1741 4144 1584 4144 
Q 1328 4144 1222 4034 
Q 1116 3925 1116 3625 
L 1116 3319 
L 1763 3319 
L 1763 2881 
L 1116 2881 
L 1116 0 
L 556 0 
z
" transform="scale(0.015625)"/>
     </defs>
     <use xlink:href="#ArialMT-73"/>
     <use xlink:href="#ArialMT-65" x="50"/>
     <use xlink:href="#ArialMT-78" x="105.615234"/>
     <use xlink:href="#ArialMT-20" x="155.615234"/>
     <use xlink:href="#ArialMT-3d" x="183.398438"/>
     <use xlink:href="#ArialMT-20" x="241.796875"/>
     <use xlink:href="#ArialMT-66" x="269.580078"/>
    </g>
   </g>
  </g>
  <g id="axes_2">
   <g id="patch_5">
    <path d="M 384.348186 318.04 
L 712.4112 318.04 
L 712.4112 24.72 
L 384.348186 24.72 
z
" style="fill: #ffffff"/>
   </g>
   <g id="matplotlib.axis_3">
    <g id="xtick_3">
     <g id="text_14">
      <!-- Baia -->
      <g style="fill: #262626" transform="translate(456.356908 332.197812) scale(0.1 -0.1)">
       <use xlink:href="#ArialMT-42"/>
       <use xlink:href="#ArialMT-61" x="66.699219"/>
       <use xlink:href="#ArialMT-69" x="122.314453"/>
       <use xlink:href="#ArialMT-61" x="144.53125"/>
      </g>
     </g>
    </g>
    <g id="xtick_4">
     <g id="text_15">
      <!-- Jurilovca -->
      <g style="fill: #262626" transform="translate(610.667322 332.197812) scale(0.1 -0.1)">
       <use xlink:href="#ArialMT-4a"/>
       <use xlink:href="#ArialMT-75" x="50"/>
       <use xlink:href="#ArialMT-72" x="105.615234"/>
       <use xlink:href="#ArialMT-69" x="138.916016"/>
       <use xlink:href="#ArialMT-6c" x="161.132812"/>
       <use xlink:href="#ArialMT-6f" x="183.349609"/>
       <use xlink:href="#ArialMT-76" x="238.964844"/>
       <use xlink:href="#ArialMT-63" x="288.964844"/>
       <use xlink:href="#ArialMT-61" x="338.964844"/>
      </g>
     </g>
    </g>
    <g id="text_16">
     <!-- location -->
     <g style="fill: #262626" transform="translate(531.146881 345.343125) scale(0.1 -0.1)">
      <use xlink:href="#ArialMT-6c"/>
      <use xlink:href="#ArialMT-6f" x="22.216797"/>
      <use xlink:href="#ArialMT-63" x="77.832031"/>
      <use xlink:href="#ArialMT-61" x="127.832031"/>
      <use xlink:href="#ArialMT-74" x="183.447266"/>
      <use xlink:href="#ArialMT-69" x="211.230469"/>
      <use xlink:href="#ArialMT-6f" x="233.447266"/>
      <use xlink:href="#ArialMT-6e" x="289.0625"/>
     </g>
    </g>
   </g>
   <g id="matplotlib.axis_4">
    <g id="ytick_9">
     <g id="line2d_21">
      <path d="M 384.348186 287.829468 
L 712.4112 287.829468 
" clip-path="url(#p6e0dfeac57)" style="fill: none; stroke: #cccccc; stroke-width: 0.8; stroke-linecap: round"/>
     </g>
    </g>
    <g id="ytick_10">
     <g id="line2d_22">
      <path d="M 384.348186 252.356427 
L 712.4112 252.356427 
" clip-path="url(#p6e0dfeac57)" style="fill: none; stroke: #cccccc; stroke-width: 0.8; stroke-linecap: round"/>
     </g>
    </g>
    <g id="ytick_11">
     <g id="line2d_23">
      <path d="M 384.348186 216.883387 
L 712.4112 216.883387 
" clip-path="url(#p6e0dfeac57)" style="fill: none; stroke: #cccccc; stroke-width: 0.8; stroke-linecap: round"/>
     </g>
    </g>
    <g id="ytick_12">
     <g id="line2d_24">
      <path d="M 384.348186 181.410347 
L 712.4112 181.410347 
" clip-path="url(#p6e0dfeac57)" style="fill: none; stroke: #cccccc; stroke-width: 0.8; stroke-linecap: round"/>
     </g>
    </g>
    <g id="ytick_13">
     <g id="line2d_25">
      <path d="M 384.348186 145.937307 
L 712.4112 145.937307 
" clip-path="url(#p6e0dfeac57)" style="fill: none; stroke: #cccccc; stroke-width: 0.8; stroke-linecap: round"/>
     </g>
    </g>
    <g id="ytick_14">
     <g id="line2d_26">
      <path d="M 384.348186 110.464267 
L 712.4112 110.464267 
" clip-path="url(#p6e0dfeac57)" style="fill: none; stroke: #cccccc; stroke-width: 0.8; stroke-linecap: round"/>
     </g>
    </g>
    <g id="ytick_15">
     <g id="line2d_27">
      <path d="M 384.348186 74.991227 
L 712.4112 74.991227 
" clip-path="url(#p6e0dfeac57)" style="fill: none; stroke: #cccccc; stroke-width: 0.8; stroke-linecap: round"/>
     </g>
    </g>
    <g id="ytick_16">
     <g id="line2d_28">
      <path d="M 384.348186 39.518186 
L 712.4112 39.518186 
" clip-path="url(#p6e0dfeac57)" style="fill: none; stroke: #cccccc; stroke-width: 0.8; stroke-linecap: round"/>
     </g>
    </g>
   </g>
   <g id="PolyCollection_5">
    <defs>
     <path id="m6211c8d1f6" d="M 434.994981 -114.270809 
L 432.120296 -114.270809 
L 431.791104 -116.098532 
L 431.403184 -117.926254 
L 430.950162 -119.753976 
L 430.425888 -121.581698 
L 429.824674 -123.409421 
L 429.141548 -125.237143 
L 428.37253 -127.064865 
L 427.51491 -128.892587 
L 426.56752 -130.720309 
L 425.530984 -132.548032 
L 424.407933 -134.375754 
L 423.203163 -136.203476 
L 421.923735 -138.031198 
L 420.578992 -139.85892 
L 419.180483 -141.686643 
L 417.741806 -143.514365 
L 416.278345 -145.342087 
L 414.80692 -147.169809 
L 413.345357 -148.997532 
L 411.911989 -150.825254 
L 410.525107 -152.652976 
L 409.202385 -154.480698 
L 407.960304 -156.30842 
L 406.813596 -158.136143 
L 405.774741 -159.963865 
L 404.853536 -161.791587 
L 404.056753 -163.619309 
L 403.387909 -165.447032 
L 402.847161 -167.274754 
L 402.431317 -169.102476 
L 402.133985 -170.930198 
L 401.945827 -172.75792 
L 401.854938 -174.585643 
L 401.847302 -176.413365 
L 401.907332 -178.241087 
L 402.018456 -180.068809 
L 402.163733 -181.896532 
L 402.326468 -183.724254 
L 402.490813 -185.551976 
L 402.642316 -187.379698 
L 402.768416 -189.20742 
L 402.858847 -191.035143 
L 402.905953 -192.862865 
L 402.90489 -194.690587 
L 402.853723 -196.518309 
L 402.753401 -198.346032 
L 402.607626 -200.173754 
L 402.422617 -202.001476 
L 402.20678 -203.829198 
L 401.970313 -205.65692 
L 401.724744 -207.484643 
L 401.482445 -209.312365 
L 401.256135 -211.140087 
L 401.058396 -212.967809 
L 400.901223 -214.795531 
L 400.795632 -216.623254 
L 400.751337 -218.450976 
L 400.776509 -220.278698 
L 400.877619 -222.10642 
L 401.059375 -223.934143 
L 401.324729 -225.761865 
L 401.674965 -227.589587 
L 402.109847 -229.417309 
L 402.627798 -231.245031 
L 403.226114 -233.072754 
L 403.901179 -234.900476 
L 404.648675 -236.728198 
L 405.463765 -238.55592 
L 406.341248 -240.383643 
L 407.275674 -242.211365 
L 408.261418 -244.039087 
L 409.292719 -245.866809 
L 410.363684 -247.694531 
L 411.468276 -249.522254 
L 412.600279 -251.349976 
L 413.753277 -253.177698 
L 414.920626 -255.00542 
L 416.095457 -256.833143 
L 417.270696 -258.660865 
L 418.439121 -260.488587 
L 419.59344 -262.316309 
L 420.726406 -264.144031 
L 421.830941 -265.971754 
L 422.900291 -267.799476 
L 423.928173 -269.627198 
L 424.908923 -271.45492 
L 425.837631 -273.282643 
L 426.710255 -275.110365 
L 427.523703 -276.938087 
L 428.275883 -278.765809 
L 428.965718 -280.593531 
L 429.593126 -282.421254 
L 430.158961 -284.248976 
L 430.664936 -286.076698 
L 431.113508 -287.90442 
L 431.507758 -289.732142 
L 431.851257 -291.559865 
L 432.147925 -293.387587 
L 432.401902 -295.215309 
L 434.713374 -295.215309 
L 434.713374 -295.215309 
L 434.967351 -293.387587 
L 435.26402 -291.559865 
L 435.607518 -289.732142 
L 436.001768 -287.90442 
L 436.45034 -286.076698 
L 436.956315 -284.248976 
L 437.52215 -282.421254 
L 438.149558 -280.593531 
L 438.839393 -278.765809 
L 439.591573 -276.938087 
L 440.405021 -275.110365 
L 441.277645 -273.282643 
L 442.206354 -271.45492 
L 443.187103 -269.627198 
L 444.214985 -267.799476 
L 445.284335 -265.971754 
L 446.388871 -264.144031 
L 447.521836 -262.316309 
L 448.676155 -260.488587 
L 449.84458 -258.660865 
L 451.019819 -256.833143 
L 452.19465 -255.00542 
L 453.361999 -253.177698 
L 454.514997 -251.349976 
L 455.647001 -249.522254 
L 456.751592 -247.694531 
L 457.822557 -245.866809 
L 458.853858 -244.039087 
L 459.839602 -242.211365 
L 460.774028 -240.383643 
L 461.651511 -238.55592 
L 462.466601 -236.728198 
L 463.214097 -234.900476 
L 463.889162 -233.072754 
L 464.487478 -231.245031 
L 465.005429 -229.417309 
L 465.440311 -227.589587 
L 465.790548 -225.761865 
L 466.055901 -223.934143 
L 466.237657 -222.10642 
L 466.338768 -220.278698 
L 466.36394 -218.450976 
L 466.319645 -216.623254 
L 466.214053 -214.795531 
L 466.05688 -212.967809 
L 465.859141 -211.140087 
L 465.632832 -209.312365 
L 465.390533 -207.484643 
L 465.144963 -205.65692 
L 464.908496 -203.829198 
L 464.69266 -202.001476 
L 464.50765 -200.173754 
L 464.361875 -198.346032 
L 464.261554 -196.518309 
L 464.210387 -194.690587 
L 464.209324 -192.862865 
L 464.256429 -191.035143 
L 464.34686 -189.20742 
L 464.47296 -187.379698 
L 464.624463 -185.551976 
L 464.788808 -183.724254 
L 464.951543 -181.896532 
L 465.09682 -180.068809 
L 465.207945 -178.241087 
L 465.267975 -176.413365 
L 465.260339 -174.585643 
L 465.169449 -172.75792 
L 464.981292 -170.930198 
L 464.683959 -169.102476 
L 464.268116 -167.274754 
L 463.727367 -165.447032 
L 463.058524 -163.619309 
L 462.26174 -161.791587 
L 461.340535 -159.963865 
L 460.301681 -158.136143 
L 459.154972 -156.30842 
L 457.912891 -154.480698 
L 456.590169 -152.652976 
L 455.203287 -150.825254 
L 453.769919 -148.997532 
L 452.308356 -147.169809 
L 450.836931 -145.342087 
L 449.37347 -143.514365 
L 447.934793 -141.686643 
L 446.536285 -139.85892 
L 445.191541 -138.031198 
L 443.912113 -136.203476 
L 442.707343 -134.375754 
L 441.584292 -132.548032 
L 440.547756 -130.720309 
L 439.600366 -128.892587 
L 438.742746 -127.064865 
L 437.973728 -125.237143 
L 437.290602 -123.409421 
L 436.689388 -121.581698 
L 436.165114 -119.753976 
L 435.712092 -117.926254 
L 435.324172 -116.098532 
L 434.994981 -114.270809 
z
" style="stroke: #3f3f3f; stroke-width: 1.25"/>
    </defs>
    <g clip-path="url(#p6e0dfeac57)">
     <use xlink:href="#m6211c8d1f6" x="0" y="360" style="fill: #3274a1; stroke: #3f3f3f; stroke-width: 1.25"/>
    </g>
   </g>
   <g id="PolyCollection_6">
    <defs>
     <path id="md4c02ba8d5" d="M 500.05787 -107.800144 
L 498.282611 -107.800144 
L 498.04753 -109.344815 
L 497.761987 -110.889485 
L 497.418411 -112.434156 
L 497.008914 -113.978826 
L 496.525482 -115.523497 
L 495.960225 -117.068167 
L 495.305667 -118.612838 
L 494.555085 -120.157509 
L 493.702873 -121.702179 
L 492.744937 -123.24685 
L 491.679094 -124.79152 
L 490.505447 -126.336191 
L 489.226737 -127.880861 
L 487.848626 -129.425532 
L 486.379903 -130.970202 
L 484.83258 -132.514873 
L 483.221868 -134.059543 
L 481.566018 -135.604214 
L 479.886017 -137.148884 
L 478.205142 -138.693555 
L 476.548392 -140.238225 
L 474.941797 -141.782896 
L 473.411658 -143.327566 
L 471.983726 -144.872237 
L 470.68238 -146.416907 
L 469.529833 -147.961578 
L 468.545408 -149.506248 
L 467.744929 -151.050919 
L 467.140241 -152.59559 
L 466.738898 -154.14026 
L 466.544013 -155.684931 
L 466.55429 -157.229601 
L 466.764203 -158.774272 
L 467.16433 -160.318942 
L 467.741798 -161.863613 
L 468.480806 -163.408283 
L 469.363217 -164.952954 
L 470.369159 -166.497624 
L 471.477624 -168.042295 
L 472.667046 -169.586965 
L 473.915821 -171.131636 
L 475.202784 -172.676306 
L 476.507616 -174.220977 
L 477.811196 -175.765647 
L 479.095893 -177.310318 
L 480.345803 -178.854988 
L 481.54694 -180.399659 
L 482.687378 -181.944329 
L 483.757355 -183.489 
L 484.749327 -185.033671 
L 485.657987 -186.578341 
L 486.480227 -188.123012 
L 487.215066 -189.667682 
L 487.863516 -191.212353 
L 488.428416 -192.757023 
L 488.914208 -194.301694 
L 489.326691 -195.846364 
L 489.672739 -197.391035 
L 489.960015 -198.935705 
L 490.19667 -200.480376 
L 490.391063 -202.025046 
L 490.551503 -203.569717 
L 490.686023 -205.114387 
L 490.802192 -206.659058 
L 490.90698 -208.203728 
L 491.006661 -209.748399 
L 491.106761 -211.293069 
L 491.212046 -212.83774 
L 491.326537 -214.38241 
L 491.453544 -215.927081 
L 491.595713 -217.471752 
L 491.755078 -219.016422 
L 491.933102 -220.561093 
L 492.130721 -222.105763 
L 492.348362 -223.650434 
L 492.585969 -225.195104 
L 492.843001 -226.739775 
L 493.118447 -228.284445 
L 493.410826 -229.829116 
L 493.718203 -231.373786 
L 494.038217 -232.918457 
L 494.368122 -234.463127 
L 494.704851 -236.007798 
L 495.045087 -237.552468 
L 495.385367 -239.097139 
L 495.722179 -240.641809 
L 496.052079 -242.18648 
L 496.371798 -243.73115 
L 496.67835 -245.275821 
L 496.969122 -246.820491 
L 497.241942 -248.365162 
L 497.495137 -249.909833 
L 497.72755 -251.454503 
L 497.938551 -252.999174 
L 498.128005 -254.543844 
L 498.296242 -256.088515 
L 498.443992 -257.633185 
L 498.572318 -259.177856 
L 498.682547 -260.722526 
L 499.657935 -260.722526 
L 499.657935 -260.722526 
L 499.768164 -259.177856 
L 499.89649 -257.633185 
L 500.04424 -256.088515 
L 500.212477 -254.543844 
L 500.401931 -252.999174 
L 500.612931 -251.454503 
L 500.845345 -249.909833 
L 501.098539 -248.365162 
L 501.37136 -246.820491 
L 501.662131 -245.275821 
L 501.968684 -243.73115 
L 502.288403 -242.18648 
L 502.618302 -240.641809 
L 502.955115 -239.097139 
L 503.295394 -237.552468 
L 503.635631 -236.007798 
L 503.972359 -234.463127 
L 504.302265 -232.918457 
L 504.622279 -231.373786 
L 504.929656 -229.829116 
L 505.222034 -228.284445 
L 505.49748 -226.739775 
L 505.754513 -225.195104 
L 505.99212 -223.650434 
L 506.209761 -222.105763 
L 506.40738 -220.561093 
L 506.585404 -219.016422 
L 506.744769 -217.471752 
L 506.886938 -215.927081 
L 507.013945 -214.38241 
L 507.128436 -212.83774 
L 507.233721 -211.293069 
L 507.333821 -209.748399 
L 507.433501 -208.203728 
L 507.538289 -206.659058 
L 507.654459 -205.114387 
L 507.788978 -203.569717 
L 507.949419 -202.025046 
L 508.143812 -200.480376 
L 508.380467 -198.935705 
L 508.667742 -197.391035 
L 509.013791 -195.846364 
L 509.426274 -194.301694 
L 509.912066 -192.757023 
L 510.476965 -191.212353 
L 511.125416 -189.667682 
L 511.860255 -188.123012 
L 512.682495 -186.578341 
L 513.591155 -185.033671 
L 514.583127 -183.489 
L 515.653104 -181.944329 
L 516.793542 -180.399659 
L 517.994679 -178.854988 
L 519.244589 -177.310318 
L 520.529286 -175.765647 
L 521.832866 -174.220977 
L 523.137698 -172.676306 
L 524.42466 -171.131636 
L 525.673436 -169.586965 
L 526.862858 -168.042295 
L 527.971323 -166.497624 
L 528.977265 -164.952954 
L 529.859676 -163.408283 
L 530.598684 -161.863613 
L 531.176151 -160.318942 
L 531.576279 -158.774272 
L 531.786192 -157.229601 
L 531.796468 -155.684931 
L 531.601584 -154.14026 
L 531.20024 -152.59559 
L 530.595553 -151.050919 
L 529.795074 -149.506248 
L 528.810649 -147.961578 
L 527.658102 -146.416907 
L 526.356756 -144.872237 
L 524.928824 -143.327566 
L 523.398685 -141.782896 
L 521.79209 -140.238225 
L 520.13534 -138.693555 
L 518.454465 -137.148884 
L 516.774464 -135.604214 
L 515.118614 -134.059543 
L 513.507902 -132.514873 
L 511.960579 -130.970202 
L 510.491855 -129.425532 
L 509.113745 -127.880861 
L 507.835034 -126.336191 
L 506.661388 -124.79152 
L 505.595544 -123.24685 
L 504.637609 -121.702179 
L 503.785397 -120.157509 
L 503.034815 -118.612838 
L 502.380257 -117.068167 
L 501.815 -115.523497 
L 501.331568 -113.978826 
L 500.922071 -112.434156 
L 500.578495 -110.889485 
L 500.292951 -109.344815 
L 500.05787 -107.800144 
z
" style="stroke: #3f3f3f; stroke-width: 1.25"/>
    </defs>
    <g clip-path="url(#p6e0dfeac57)">
     <use xlink:href="#md4c02ba8d5" x="0" y="360" style="fill: #e1812c; stroke: #3f3f3f; stroke-width: 1.25"/>
    </g>
   </g>
   <g id="PolyCollection_7">
    <defs>
     <path id="mc8ad597019" d="M 598.496938 -55.292727 
L 596.681352 -55.292727 
L 596.493247 -57.836173 
L 596.275159 -60.379618 
L 596.024221 -62.923064 
L 595.737632 -65.46651 
L 595.412729 -68.009955 
L 595.047044 -70.553401 
L 594.638373 -73.096846 
L 594.184831 -75.640292 
L 593.684913 -78.183737 
L 593.137541 -80.727183 
L 592.542107 -83.270629 
L 591.898505 -85.814074 
L 591.207159 -88.35752 
L 590.46904 -90.900965 
L 589.685675 -93.444411 
L 588.859157 -95.987856 
L 587.992138 -98.531302 
L 587.087831 -101.074748 
L 586.149998 -103.618193 
L 585.182942 -106.161639 
L 584.191485 -108.705084 
L 583.180953 -111.24853 
L 582.157139 -113.791975 
L 581.126266 -116.335421 
L 580.094936 -118.878866 
L 579.07006 -121.422312 
L 578.058781 -123.965758 
L 577.068379 -126.509203 
L 576.106158 -129.052649 
L 575.179335 -131.596094 
L 574.294908 -134.13954 
L 573.459534 -136.682985 
L 572.679407 -139.226431 
L 571.960144 -141.769877 
L 571.306694 -144.313322 
L 570.72326 -146.856768 
L 570.213247 -149.400213 
L 569.779236 -151.943659 
L 569.422984 -154.487104 
L 569.145437 -157.03055 
L 568.946769 -159.573996 
L 568.826427 -162.117441 
L 568.783185 -164.660887 
L 568.8152 -167.204332 
L 568.920056 -169.747778 
L 569.094806 -172.291223 
L 569.336007 -174.834669 
L 569.639743 -177.378115 
L 570.001643 -179.92156 
L 570.416901 -182.465006 
L 570.880304 -185.008451 
L 571.386264 -187.551897 
L 571.928879 -190.095342 
L 572.502005 -192.638788 
L 573.099364 -195.182234 
L 573.714666 -197.725679 
L 574.341761 -200.269125 
L 574.9748 -202.81257 
L 575.608413 -205.356016 
L 576.237869 -207.899461 
L 576.859237 -210.442907 
L 577.469511 -212.986353 
L 578.066704 -215.529798 
L 578.649893 -218.073244 
L 579.219218 -220.616689 
L 579.775823 -223.160135 
L 580.32175 -225.70358 
L 580.85978 -228.247026 
L 581.393241 -230.790472 
L 581.925782 -233.333917 
L 582.461134 -235.877363 
L 583.002871 -238.420808 
L 583.554177 -240.964254 
L 584.117642 -243.507699 
L 584.695095 -246.051145 
L 585.287478 -248.59459 
L 585.894771 -251.138036 
L 586.515974 -253.681482 
L 587.14913 -256.224927 
L 587.791411 -258.768373 
L 588.439232 -261.311818 
L 589.088408 -263.855264 
L 589.734326 -266.398709 
L 590.372139 -268.942155 
L 590.996954 -271.485601 
L 591.604015 -274.029046 
L 592.188875 -276.572492 
L 592.747536 -279.115937 
L 593.276564 -281.659383 
L 593.773176 -284.202828 
L 594.23529 -286.746274 
L 594.66154 -289.28972 
L 595.051271 -291.833165 
L 595.404496 -294.376611 
L 595.72184 -296.920056 
L 596.004467 -299.463502 
L 596.253986 -302.006947 
L 596.47237 -304.550393 
L 596.66185 -307.093839 
L 598.51644 -307.093839 
L 598.51644 -307.093839 
L 598.705921 -304.550393 
L 598.924304 -302.006947 
L 599.173824 -299.463502 
L 599.45645 -296.920056 
L 599.773795 -294.376611 
L 600.127019 -291.833165 
L 600.51675 -289.28972 
L 600.943 -286.746274 
L 601.405114 -284.202828 
L 601.901726 -281.659383 
L 602.430754 -279.115937 
L 602.989415 -276.572492 
L 603.574275 -274.029046 
L 604.181337 -271.485601 
L 604.806151 -268.942155 
L 605.443964 -266.398709 
L 606.089883 -263.855264 
L 606.739058 -261.311818 
L 607.386879 -258.768373 
L 608.02916 -256.224927 
L 608.662317 -253.681482 
L 609.283519 -251.138036 
L 609.890813 -248.59459 
L 610.483196 -246.051145 
L 611.060648 -243.507699 
L 611.624113 -240.964254 
L 612.175419 -238.420808 
L 612.717156 -235.877363 
L 613.252509 -233.333917 
L 613.78505 -230.790472 
L 614.318511 -228.247026 
L 614.856541 -225.70358 
L 615.402467 -223.160135 
L 615.959072 -220.616689 
L 616.528397 -218.073244 
L 617.111586 -215.529798 
L 617.708779 -212.986353 
L 618.319053 -210.442907 
L 618.940421 -207.899461 
L 619.569877 -205.356016 
L 620.20349 -202.81257 
L 620.83653 -200.269125 
L 621.463624 -197.725679 
L 622.078926 -195.182234 
L 622.676285 -192.638788 
L 623.249412 -190.095342 
L 623.792026 -187.551897 
L 624.297987 -185.008451 
L 624.761389 -182.465006 
L 625.176647 -179.92156 
L 625.538547 -177.378115 
L 625.842283 -174.834669 
L 626.083484 -172.291223 
L 626.258234 -169.747778 
L 626.36309 -167.204332 
L 626.395105 -164.660887 
L 626.351864 -162.117441 
L 626.231521 -159.573996 
L 626.032853 -157.03055 
L 625.755306 -154.487104 
L 625.399054 -151.943659 
L 624.965044 -149.400213 
L 624.45503 -146.856768 
L 623.871596 -144.313322 
L 623.218146 -141.769877 
L 622.498884 -139.226431 
L 621.718756 -136.682985 
L 620.883382 -134.13954 
L 619.998955 -131.596094 
L 619.072132 -129.052649 
L 618.109912 -126.509203 
L 617.119509 -123.965758 
L 616.10823 -121.422312 
L 615.083354 -118.878866 
L 614.052024 -116.335421 
L 613.021151 -113.791975 
L 611.997337 -111.24853 
L 610.986805 -108.705084 
L 609.995349 -106.161639 
L 609.028292 -103.618193 
L 608.09046 -101.074748 
L 607.186153 -98.531302 
L 606.319134 -95.987856 
L 605.492615 -93.444411 
L 604.709251 -90.900965 
L 603.971131 -88.35752 
L 603.279785 -85.814074 
L 602.636183 -83.270629 
L 602.040749 -80.727183 
L 601.493377 -78.183737 
L 600.993459 -75.640292 
L 600.539917 -73.096846 
L 600.131246 -70.553401 
L 599.765561 -68.009955 
L 599.440658 -65.46651 
L 599.154069 -62.923064 
L 598.903131 -60.379618 
L 598.685044 -57.836173 
L 598.496938 -55.292727 
z
" style="stroke: #3f3f3f; stroke-width: 1.25"/>
    </defs>
    <g clip-path="url(#p6e0dfeac57)">
     <use xlink:href="#mc8ad597019" x="0" y="360" style="fill: #3274a1; stroke: #3f3f3f; stroke-width: 1.25"/>
    </g>
   </g>
   <g id="PolyCollection_8">
    <defs>
     <path id="mfef130c98a" d="M 664.989024 -108.391552 
L 661.414472 -108.391552 
L 661.066544 -109.374094 
L 660.66596 -110.356636 
L 660.207972 -111.339179 
L 659.68804 -112.321721 
L 659.101975 -113.304264 
L 658.4461 -114.286806 
L 657.717418 -115.269349 
L 656.913776 -116.251891 
L 656.034041 -117.234434 
L 655.078255 -118.216976 
L 654.047782 -119.199519 
L 652.945427 -120.182061 
L 651.775529 -121.164604 
L 650.544009 -122.147146 
L 649.258382 -123.129689 
L 647.927717 -124.112231 
L 646.562545 -125.094773 
L 645.174715 -126.077316 
L 643.777199 -127.059858 
L 642.383849 -128.042401 
L 641.00911 -129.024943 
L 639.667695 -130.007486 
L 638.374249 -130.990028 
L 637.142979 -131.972571 
L 635.987305 -132.955113 
L 634.919507 -133.937656 
L 633.950406 -134.920198 
L 633.089085 -135.902741 
L 632.342651 -136.885283 
L 631.716061 -137.867826 
L 631.212012 -138.850368 
L 630.830894 -139.83291 
L 630.57082 -140.815453 
L 630.427709 -141.797995 
L 630.395447 -142.780538 
L 630.466085 -143.76308 
L 630.630098 -144.745623 
L 630.876661 -145.728165 
L 631.193961 -146.710708 
L 631.569513 -147.69325 
L 631.990481 -148.675793 
L 632.44398 -149.658335 
L 632.917375 -150.640878 
L 633.39854 -151.62342 
L 633.876104 -152.605963 
L 634.339652 -153.588505 
L 634.779904 -154.571047 
L 635.188857 -155.55359 
L 635.5599 -156.536132 
L 635.887902 -157.518675 
L 636.169269 -158.501217 
L 636.401982 -159.48376 
L 636.585612 -160.466302 
L 636.721311 -161.448845 
L 636.811778 -162.431387 
L 636.861209 -163.41393 
L 636.875211 -164.396472 
L 636.860698 -165.379015 
L 636.825752 -166.361557 
L 636.779451 -167.344099 
L 636.731678 -168.326642 
L 636.692888 -169.309184 
L 636.673855 -170.291727 
L 636.685395 -171.274269 
L 636.738083 -172.256812 
L 636.841947 -173.239354 
L 637.006185 -174.221897 
L 637.238878 -175.204439 
L 637.546743 -176.186982 
L 637.934909 -177.169524 
L 638.406747 -178.152067 
L 638.963747 -179.134609 
L 639.605458 -180.117152 
L 640.329488 -181.099694 
L 641.131563 -182.082236 
L 642.005658 -183.064779 
L 642.944168 -184.047321 
L 643.938142 -185.029864 
L 644.977545 -186.012406 
L 646.051554 -186.994949 
L 647.148862 -187.977491 
L 648.257999 -188.960034 
L 649.367627 -189.942576 
L 650.466826 -190.925119 
L 651.545353 -191.907661 
L 652.593852 -192.890204 
L 653.604034 -193.872746 
L 654.568804 -194.855289 
L 655.482344 -195.837831 
L 656.340144 -196.820373 
L 657.139001 -197.802916 
L 657.876969 -198.785458 
L 658.553278 -199.768001 
L 659.168231 -200.750543 
L 659.723078 -201.733086 
L 660.219874 -202.715628 
L 660.661338 -203.698171 
L 661.050701 -204.680713 
L 661.391573 -205.663256 
L 665.011923 -205.663256 
L 665.011923 -205.663256 
L 665.352794 -204.680713 
L 665.742158 -203.698171 
L 666.183621 -202.715628 
L 666.680418 -201.733086 
L 667.235265 -200.750543 
L 667.850218 -199.768001 
L 668.526527 -198.785458 
L 669.264494 -197.802916 
L 670.063352 -196.820373 
L 670.921152 -195.837831 
L 671.834691 -194.855289 
L 672.799462 -193.872746 
L 673.809644 -192.890204 
L 674.858143 -191.907661 
L 675.93667 -190.925119 
L 677.035869 -189.942576 
L 678.145496 -188.960034 
L 679.254633 -187.977491 
L 680.351942 -186.994949 
L 681.42595 -186.012406 
L 682.465354 -185.029864 
L 683.459328 -184.047321 
L 684.397838 -183.064779 
L 685.271932 -182.082236 
L 686.074008 -181.099694 
L 686.798037 -180.117152 
L 687.439749 -179.134609 
L 687.996749 -178.152067 
L 688.468587 -177.169524 
L 688.856753 -176.186982 
L 689.164617 -175.204439 
L 689.397311 -174.221897 
L 689.561548 -173.239354 
L 689.665413 -172.256812 
L 689.7181 -171.274269 
L 689.729641 -170.291727 
L 689.710607 -169.309184 
L 689.671817 -168.326642 
L 689.624045 -167.344099 
L 689.577744 -166.361557 
L 689.542797 -165.379015 
L 689.528285 -164.396472 
L 689.542287 -163.41393 
L 689.591718 -162.431387 
L 689.682185 -161.448845 
L 689.817884 -160.466302 
L 690.001514 -159.48376 
L 690.234227 -158.501217 
L 690.515594 -157.518675 
L 690.843596 -156.536132 
L 691.214639 -155.55359 
L 691.623592 -154.571047 
L 692.063844 -153.588505 
L 692.527392 -152.605963 
L 693.004956 -151.62342 
L 693.486121 -150.640878 
L 693.959516 -149.658335 
L 694.413015 -148.675793 
L 694.833982 -147.69325 
L 695.209535 -146.710708 
L 695.526835 -145.728165 
L 695.773398 -144.745623 
L 695.937411 -143.76308 
L 696.008049 -142.780538 
L 695.975787 -141.797995 
L 695.832676 -140.815453 
L 695.572601 -139.83291 
L 695.191484 -138.850368 
L 694.687435 -137.867826 
L 694.060845 -136.885283 
L 693.314411 -135.902741 
L 692.45309 -134.920198 
L 691.483989 -133.937656 
L 690.416191 -132.955113 
L 689.260517 -131.972571 
L 688.029247 -130.990028 
L 686.735801 -130.007486 
L 685.394386 -129.024943 
L 684.019646 -128.042401 
L 682.626296 -127.059858 
L 681.228781 -126.077316 
L 679.840951 -125.094773 
L 678.475778 -124.112231 
L 677.145113 -123.129689 
L 675.859487 -122.147146 
L 674.627966 -121.164604 
L 673.458068 -120.182061 
L 672.355714 -119.199519 
L 671.325241 -118.216976 
L 670.369455 -117.234434 
L 669.48972 -116.251891 
L 668.686078 -115.269349 
L 667.957395 -114.286806 
L 667.301521 -113.304264 
L 666.715456 -112.321721 
L 666.195524 -111.339179 
L 665.737535 -110.356636 
L 665.336952 -109.374094 
L 664.989024 -108.391552 
z
" style="stroke: #3f3f3f; stroke-width: 1.25"/>
    </defs>
    <g clip-path="url(#p6e0dfeac57)">
     <use xlink:href="#mfef130c98a" x="0" y="360" style="fill: #e1812c; stroke: #3f3f3f; stroke-width: 1.25"/>
    </g>
   </g>
   <g id="patch_6">
    <path d="M 466.36394 287.829468 
L 466.36394 287.829468 
L 466.36394 287.829468 
L 466.36394 287.829468 
z
" clip-path="url(#p6e0dfeac57)" style="fill: #3274a1; stroke: #3f3f3f; stroke-width: 1.25; stroke-linejoin: miter"/>
   </g>
   <g id="patch_7">
    <path d="M 466.36394 287.829468 
L 466.36394 287.829468 
L 466.36394 287.829468 
L 466.36394 287.829468 
z
" clip-path="url(#p6e0dfeac57)" style="fill: #e1812c; stroke: #3f3f3f; stroke-width: 1.25; stroke-linejoin: miter"/>
   </g>
   <g id="line2d_29">
    <path d="M 433.557638 206.32348 
L 433.557638 104.190402 
" clip-path="url(#p6e0dfeac57)" style="fill: none; stroke: #3f3f3f; stroke-width: 1.875; stroke-linecap: round"/>
   </g>
   <g id="line2d_30">
    <path d="M 433.557638 190.140934 
L 433.557638 132.720486 
" clip-path="url(#p6e0dfeac57)" style="fill: none; stroke: #3f3f3f; stroke-width: 5.625; stroke-linecap: round"/>
   </g>
   <g id="line2d_31">
    <path d="M 433.557638 149.155818 
" clip-path="url(#p6e0dfeac57)" style="fill: none; stroke: #3f3f3f; stroke-width: 1.5; stroke-linecap: round"/>
    <g clip-path="url(#p6e0dfeac57)">
     <use xlink:href="#m4af3268cd6" x="433.557638" y="149.155818" style="fill: #ffffff; stroke: #ffffff; stroke-width: 1.125"/>
    </g>
   </g>
   <g id="line2d_32">
    <path d="M 499.170241 221.57292 
L 499.170241 160.59675 
" clip-path="url(#p6e0dfeac57)" style="fill: none; stroke: #3f3f3f; stroke-width: 1.875; stroke-linecap: round"/>
   </g>
   <g id="line2d_33">
    <path d="M 499.170241 208.542205 
L 499.170241 183.960603 
" clip-path="url(#p6e0dfeac57)" style="fill: none; stroke: #3f3f3f; stroke-width: 5.625; stroke-linecap: round"/>
   </g>
   <g id="line2d_34">
    <path d="M 499.170241 203.245694 
" clip-path="url(#p6e0dfeac57)" style="fill: none; stroke: #3f3f3f; stroke-width: 1.5; stroke-linecap: round"/>
    <g clip-path="url(#p6e0dfeac57)">
     <use xlink:href="#m4af3268cd6" x="499.170241" y="203.245694" style="fill: #ffffff; stroke: #ffffff; stroke-width: 1.125"/>
    </g>
   </g>
   <g id="line2d_35">
    <path d="M 597.589145 247.980768 
L 597.589145 109.632667 
" clip-path="url(#p6e0dfeac57)" style="fill: none; stroke: #3f3f3f; stroke-width: 1.875; stroke-linecap: round"/>
   </g>
   <g id="line2d_36">
    <path d="M 597.589145 208.484647 
L 597.589145 166.578751 
" clip-path="url(#p6e0dfeac57)" style="fill: none; stroke: #3f3f3f; stroke-width: 5.625; stroke-linecap: round"/>
   </g>
   <g id="line2d_37">
    <path d="M 597.589145 184.873487 
" clip-path="url(#p6e0dfeac57)" style="fill: none; stroke: #3f3f3f; stroke-width: 1.5; stroke-linecap: round"/>
    <g clip-path="url(#p6e0dfeac57)">
     <use xlink:href="#m4af3268cd6" x="597.589145" y="184.873487" style="fill: #ffffff; stroke: #ffffff; stroke-width: 1.125"/>
    </g>
   </g>
   <g id="line2d_38">
    <path d="M 663.201748 227.261566 
L 663.201748 178.683626 
" clip-path="url(#p6e0dfeac57)" style="fill: none; stroke: #3f3f3f; stroke-width: 1.875; stroke-linecap: round"/>
   </g>
   <g id="line2d_39">
    <path d="M 663.201748 219.314258 
L 663.201748 185.045629 
" clip-path="url(#p6e0dfeac57)" style="fill: none; stroke: #3f3f3f; stroke-width: 5.625; stroke-linecap: round"/>
   </g>
   <g id="line2d_40">
    <path d="M 663.201748 206.239609 
" clip-path="url(#p6e0dfeac57)" style="fill: none; stroke: #3f3f3f; stroke-width: 1.5; stroke-linecap: round"/>
    <g clip-path="url(#p6e0dfeac57)">
     <use xlink:href="#m4af3268cd6" x="663.201748" y="206.239609" style="fill: #ffffff; stroke: #ffffff; stroke-width: 1.125"/>
    </g>
   </g>
   <g id="patch_8">
    <path d="M 384.348186 318.04 
L 384.348186 24.72 
" style="fill: none; stroke: #cccccc; stroke-width: 0.8; stroke-linejoin: miter; stroke-linecap: square"/>
   </g>
   <g id="patch_9">
    <path d="M 384.348186 318.04 
L 712.4112 318.04 
" style="fill: none; stroke: #cccccc; stroke-width: 0.8; stroke-linejoin: miter; stroke-linecap: square"/>
   </g>
   <g id="text_17">
    <!-- sex = m -->
    <g style="fill: #262626" transform="translate(530.735943 18.72) scale(0.1 -0.1)">
     <defs>
      <path id="ArialMT-6d" d="M 422 0 
L 422 3319 
L 925 3319 
L 925 2853 
Q 1081 3097 1340 3245 
Q 1600 3394 1931 3394 
Q 2300 3394 2536 3241 
Q 2772 3088 2869 2813 
Q 3263 3394 3894 3394 
Q 4388 3394 4653 3120 
Q 4919 2847 4919 2278 
L 4919 0 
L 4359 0 
L 4359 2091 
Q 4359 2428 4304 2576 
Q 4250 2725 4106 2815 
Q 3963 2906 3769 2906 
Q 3419 2906 3187 2673 
Q 2956 2441 2956 1928 
L 2956 0 
L 2394 0 
L 2394 2156 
Q 2394 2531 2256 2718 
Q 2119 2906 1806 2906 
Q 1569 2906 1367 2781 
Q 1166 2656 1075 2415 
Q 984 2175 984 1722 
L 984 0 
L 422 0 
z
" transform="scale(0.015625)"/>
     </defs>
     <use xlink:href="#ArialMT-73"/>
     <use xlink:href="#ArialMT-65" x="50"/>
     <use xlink:href="#ArialMT-78" x="105.615234"/>
     <use xlink:href="#ArialMT-20" x="155.615234"/>
     <use xlink:href="#ArialMT-3d" x="183.398438"/>
     <use xlink:href="#ArialMT-20" x="241.796875"/>
     <use xlink:href="#ArialMT-6d" x="269.580078"/>
    </g>
   </g>
  </g>
  <g id="legend_1">
   <g id="text_18">
    <!-- time -->
    <g style="fill: #262626" transform="translate(725.045625 168.439844) scale(0.1 -0.1)">
     <use xlink:href="#ArialMT-74"/>
     <use xlink:href="#ArialMT-69" x="27.783203"/>
     <use xlink:href="#ArialMT-6d" x="50"/>
     <use xlink:href="#ArialMT-65" x="133.300781"/>
    </g>
   </g>
   <g id="patch_10">
    <path d="M 719.101875 182.585156 
L 739.101875 182.585156 
L 739.101875 175.585156 
L 719.101875 175.585156 
z
" style="fill: #3274a1; stroke: #3f3f3f; stroke-width: 1.25; stroke-linejoin: miter"/>
   </g>
   <g id="text_19">
    <!-- i -->
    <g style="fill: #262626" transform="translate(747.101875 182.585156) scale(0.1 -0.1)">
     <use xlink:href="#ArialMT-69"/>
    </g>
   </g>
   <g id="patch_11">
    <path d="M 719.101875 196.730469 
L 739.101875 196.730469 
L 739.101875 189.730469 
L 719.101875 189.730469 
z
" style="fill: #e1812c; stroke: #3f3f3f; stroke-width: 1.25; stroke-linejoin: miter"/>
   </g>
   <g id="text_20">
    <!-- f -->
    <g style="fill: #262626" transform="translate(747.101875 196.730469) scale(0.1 -0.1)">
     <use xlink:href="#ArialMT-66"/>
    </g>
   </g>
  </g>
 </g>
 <defs>
  <clipPath id="p4986d826e9">
   <rect x="45.470877" y="24.72" width="328.063014" height="293.32"/>
  </clipPath>
  <clipPath id="p6e0dfeac57">
   <rect x="384.348186" y="24.72" width="328.063014" height="293.32"/>
  </clipPath>
 </defs>
</svg>
