<?xml version="1.0" encoding="utf-8" standalone="no"?>
<!DOCTYPE svg PUBLIC "-//W3C//DTD SVG 1.1//EN"
  "http://www.w3.org/Graphics/SVG/1.1/DTD/svg11.dtd">
<svg xmlns:xlink="http://www.w3.org/1999/xlink" width="758.88pt" height="360pt" viewBox="0 0 758.88 360" xmlns="http://www.w3.org/2000/svg" version="1.1">
 <metadata>
  <rdf:RDF xmlns:dc="http://purl.org/dc/elements/1.1/" xmlns:cc="http://creativecommons.org/ns#" xmlns:rdf="http://www.w3.org/1999/02/22-rdf-syntax-ns#">
   <cc:Work>
    <dc:type rdf:resource="http://purl.org/dc/dcmitype/StillImage"/>
    <dc:date>2024-09-11T03:22:37.194249</dc:date>
    <dc:format>image/svg+xml</dc:format>
    <dc:creator>
     <cc:Agent>
      <dc:title>Matplotlib v3.8.3, https://matplotlib.org/</dc:title>
     </cc:Agent>
    </dc:creator>
   </cc:Work>
  </rdf:RDF>
 </metadata>
 <defs>
  <style type="text/css">*{stroke-linejoin: round; stroke-linecap: butt}</style>
 </defs>
 <g id="figure_1">
  <g id="patch_1">
   <path d="M 0 360 
L 758.88 360 
L 758.88 0 
L 0 0 
z
" style="fill: #ffffff"/>
  </g>
  <g id="axes_1">
   <g id="patch_2">
    <path d="M 48.411538 318.04 
L 375.005418 318.04 
L 375.005418 24.72 
L 48.411538 24.72 
z
" style="fill: #ffffff"/>
   </g>
   <g id="matplotlib.axis_1">
    <g id="xtick_1">
     <g id="text_1">
      <!-- Jurilovca -->
      <g style="fill: #262626" transform="translate(110.331883 332.197812) scale(0.1 -0.1)">
       <defs>
        <path id="ArialMT-4a" d="M 184 1300 
L 731 1375 
Q 753 850 928 656 
Q 1103 463 1413 463 
Q 1641 463 1806 567 
Q 1972 672 2034 851 
Q 2097 1031 2097 1425 
L 2097 4581 
L 2703 4581 
L 2703 1459 
Q 2703 884 2564 568 
Q 2425 253 2123 87 
Q 1822 -78 1416 -78 
Q 813 -78 492 269 
Q 172 616 184 1300 
z
" transform="scale(0.015625)"/>
        <path id="ArialMT-75" d="M 2597 0 
L 2597 488 
Q 2209 -75 1544 -75 
Q 1250 -75 995 37 
Q 741 150 617 320 
Q 494 491 444 738 
Q 409 903 409 1263 
L 409 3319 
L 972 3319 
L 972 1478 
Q 972 1038 1006 884 
Q 1059 663 1231 536 
Q 1403 409 1656 409 
Q 1909 409 2131 539 
Q 2353 669 2445 892 
Q 2538 1116 2538 1541 
L 2538 3319 
L 3100 3319 
L 3100 0 
L 2597 0 
z
" transform="scale(0.015625)"/>
        <path id="ArialMT-72" d="M 416 0 
L 416 3319 
L 922 3319 
L 922 2816 
Q 1116 3169 1280 3281 
Q 1444 3394 1641 3394 
Q 1925 3394 2219 3213 
L 2025 2691 
Q 1819 2813 1613 2813 
Q 1428 2813 1281 2702 
Q 1134 2591 1072 2394 
Q 978 2094 978 1738 
L 978 0 
L 416 0 
z
" transform="scale(0.015625)"/>
        <path id="ArialMT-69" d="M 425 3934 
L 425 4581 
L 988 4581 
L 988 3934 
L 425 3934 
z
M 425 0 
L 425 3319 
L 988 3319 
L 988 0 
L 425 0 
z
" transform="scale(0.015625)"/>
        <path id="ArialMT-6c" d="M 409 0 
L 409 4581 
L 972 4581 
L 972 0 
L 409 0 
z
" transform="scale(0.015625)"/>
        <path id="ArialMT-6f" d="M 213 1659 
Q 213 2581 725 3025 
Q 1153 3394 1769 3394 
Q 2453 3394 2887 2945 
Q 3322 2497 3322 1706 
Q 3322 1066 3130 698 
Q 2938 331 2570 128 
Q 2203 -75 1769 -75 
Q 1072 -75 642 372 
Q 213 819 213 1659 
z
M 791 1659 
Q 791 1022 1069 705 
Q 1347 388 1769 388 
Q 2188 388 2466 706 
Q 2744 1025 2744 1678 
Q 2744 2294 2464 2611 
Q 2184 2928 1769 2928 
Q 1347 2928 1069 2612 
Q 791 2297 791 1659 
z
" transform="scale(0.015625)"/>
        <path id="ArialMT-76" d="M 1344 0 
L 81 3319 
L 675 3319 
L 1388 1331 
Q 1503 1009 1600 663 
Q 1675 925 1809 1294 
L 2547 3319 
L 3125 3319 
L 1869 0 
L 1344 0 
z
" transform="scale(0.015625)"/>
        <path id="ArialMT-63" d="M 2588 1216 
L 3141 1144 
Q 3050 572 2676 248 
Q 2303 -75 1759 -75 
Q 1078 -75 664 370 
Q 250 816 250 1647 
Q 250 2184 428 2587 
Q 606 2991 970 3192 
Q 1334 3394 1763 3394 
Q 2303 3394 2647 3120 
Q 2991 2847 3088 2344 
L 2541 2259 
Q 2463 2594 2264 2762 
Q 2066 2931 1784 2931 
Q 1359 2931 1093 2626 
Q 828 2322 828 1663 
Q 828 994 1084 691 
Q 1341 388 1753 388 
Q 2084 388 2306 591 
Q 2528 794 2588 1216 
z
" transform="scale(0.015625)"/>
        <path id="ArialMT-61" d="M 2588 409 
Q 2275 144 1986 34 
Q 1697 -75 1366 -75 
Q 819 -75 525 192 
Q 231 459 231 875 
Q 231 1119 342 1320 
Q 453 1522 633 1644 
Q 813 1766 1038 1828 
Q 1203 1872 1538 1913 
Q 2219 1994 2541 2106 
Q 2544 2222 2544 2253 
Q 2544 2597 2384 2738 
Q 2169 2928 1744 2928 
Q 1347 2928 1158 2789 
Q 969 2650 878 2297 
L 328 2372 
Q 403 2725 575 2942 
Q 747 3159 1072 3276 
Q 1397 3394 1825 3394 
Q 2250 3394 2515 3294 
Q 2781 3194 2906 3042 
Q 3031 2891 3081 2659 
Q 3109 2516 3109 2141 
L 3109 1391 
Q 3109 606 3145 398 
Q 3181 191 3288 0 
L 2700 0 
Q 2613 175 2588 409 
z
M 2541 1666 
Q 2234 1541 1622 1453 
Q 1275 1403 1131 1340 
Q 988 1278 909 1158 
Q 831 1038 831 891 
Q 831 666 1001 516 
Q 1172 366 1500 366 
Q 1825 366 2078 508 
Q 2331 650 2450 897 
Q 2541 1088 2541 1459 
L 2541 1666 
z
" transform="scale(0.015625)"/>
       </defs>
       <use xlink:href="#ArialMT-4a"/>
       <use xlink:href="#ArialMT-75" x="50"/>
       <use xlink:href="#ArialMT-72" x="105.615234"/>
       <use xlink:href="#ArialMT-69" x="138.916016"/>
       <use xlink:href="#ArialMT-6c" x="161.132812"/>
       <use xlink:href="#ArialMT-6f" x="183.349609"/>
       <use xlink:href="#ArialMT-76" x="238.964844"/>
       <use xlink:href="#ArialMT-63" x="288.964844"/>
       <use xlink:href="#ArialMT-61" x="338.964844"/>
      </g>
     </g>
    </g>
    <g id="xtick_2">
     <g id="text_2">
      <!-- Baia -->
      <g style="fill: #262626" transform="translate(283.349917 332.197812) scale(0.1 -0.1)">
       <defs>
        <path id="ArialMT-42" d="M 469 0 
L 469 4581 
L 2188 4581 
Q 2713 4581 3030 4442 
Q 3347 4303 3526 4014 
Q 3706 3725 3706 3409 
Q 3706 3116 3547 2856 
Q 3388 2597 3066 2438 
Q 3481 2316 3704 2022 
Q 3928 1728 3928 1328 
Q 3928 1006 3792 729 
Q 3656 453 3456 303 
Q 3256 153 2954 76 
Q 2653 0 2216 0 
L 469 0 
z
M 1075 2656 
L 2066 2656 
Q 2469 2656 2644 2709 
Q 2875 2778 2992 2937 
Q 3109 3097 3109 3338 
Q 3109 3566 3000 3739 
Q 2891 3913 2687 3977 
Q 2484 4041 1991 4041 
L 1075 4041 
L 1075 2656 
z
M 1075 541 
L 2216 541 
Q 2509 541 2628 563 
Q 2838 600 2978 687 
Q 3119 775 3209 942 
Q 3300 1109 3300 1328 
Q 3300 1584 3169 1773 
Q 3038 1963 2805 2039 
Q 2572 2116 2134 2116 
L 1075 2116 
L 1075 541 
z
" transform="scale(0.015625)"/>
       </defs>
       <use xlink:href="#ArialMT-42"/>
       <use xlink:href="#ArialMT-61" x="66.699219"/>
       <use xlink:href="#ArialMT-69" x="122.314453"/>
       <use xlink:href="#ArialMT-61" x="144.53125"/>
      </g>
     </g>
    </g>
    <g id="text_3">
     <!-- location -->
     <g style="fill: #262626" transform="translate(194.475665 345.343125) scale(0.1 -0.1)">
      <defs>
       <path id="ArialMT-74" d="M 1650 503 
L 1731 6 
Q 1494 -44 1306 -44 
Q 1000 -44 831 53 
Q 663 150 594 308 
Q 525 466 525 972 
L 525 2881 
L 113 2881 
L 113 3319 
L 525 3319 
L 525 4141 
L 1084 4478 
L 1084 3319 
L 1650 3319 
L 1650 2881 
L 1084 2881 
L 1084 941 
Q 1084 700 1114 631 
Q 1144 563 1211 522 
Q 1278 481 1403 481 
Q 1497 481 1650 503 
z
" transform="scale(0.015625)"/>
       <path id="ArialMT-6e" d="M 422 0 
L 422 3319 
L 928 3319 
L 928 2847 
Q 1294 3394 1984 3394 
Q 2284 3394 2536 3286 
Q 2788 3178 2913 3003 
Q 3038 2828 3088 2588 
Q 3119 2431 3119 2041 
L 3119 0 
L 2556 0 
L 2556 2019 
Q 2556 2363 2490 2533 
Q 2425 2703 2258 2804 
Q 2091 2906 1866 2906 
Q 1506 2906 1245 2678 
Q 984 2450 984 1813 
L 984 0 
L 422 0 
z
" transform="scale(0.015625)"/>
      </defs>
      <use xlink:href="#ArialMT-6c"/>
      <use xlink:href="#ArialMT-6f" x="22.216797"/>
      <use xlink:href="#ArialMT-63" x="77.832031"/>
      <use xlink:href="#ArialMT-61" x="127.832031"/>
      <use xlink:href="#ArialMT-74" x="183.447266"/>
      <use xlink:href="#ArialMT-69" x="211.230469"/>
      <use xlink:href="#ArialMT-6f" x="233.447266"/>
      <use xlink:href="#ArialMT-6e" x="289.0625"/>
     </g>
    </g>
   </g>
   <g id="matplotlib.axis_2">
    <g id="ytick_1">
     <g id="line2d_1">
      <path d="M 48.411538 306.594788 
L 375.005418 306.594788 
" clip-path="url(#pb0c714a3a5)" style="fill: none; stroke: #cccccc; stroke-width: 0.8; stroke-linecap: round"/>
     </g>
     <g id="text_4">
      <!-- 0.0 -->
      <g style="fill: #262626" transform="translate(27.511538 310.173694) scale(0.1 -0.1)">
       <defs>
        <path id="ArialMT-30" d="M 266 2259 
Q 266 3072 433 3567 
Q 600 4063 929 4331 
Q 1259 4600 1759 4600 
Q 2128 4600 2406 4451 
Q 2684 4303 2865 4023 
Q 3047 3744 3150 3342 
Q 3253 2941 3253 2259 
Q 3253 1453 3087 958 
Q 2922 463 2592 192 
Q 2263 -78 1759 -78 
Q 1097 -78 719 397 
Q 266 969 266 2259 
z
M 844 2259 
Q 844 1131 1108 757 
Q 1372 384 1759 384 
Q 2147 384 2411 759 
Q 2675 1134 2675 2259 
Q 2675 3391 2411 3762 
Q 2147 4134 1753 4134 
Q 1366 4134 1134 3806 
Q 844 3388 844 2259 
z
" transform="scale(0.015625)"/>
        <path id="ArialMT-2e" d="M 581 0 
L 581 641 
L 1222 641 
L 1222 0 
L 581 0 
z
" transform="scale(0.015625)"/>
       </defs>
       <use xlink:href="#ArialMT-30"/>
       <use xlink:href="#ArialMT-2e" x="55.615234"/>
       <use xlink:href="#ArialMT-30" x="83.398438"/>
      </g>
     </g>
    </g>
    <g id="ytick_2">
     <g id="line2d_2">
      <path d="M 48.411538 242.85345 
L 375.005418 242.85345 
" clip-path="url(#pb0c714a3a5)" style="fill: none; stroke: #cccccc; stroke-width: 0.8; stroke-linecap: round"/>
     </g>
     <g id="text_5">
      <!-- 0.5 -->
      <g style="fill: #262626" transform="translate(27.511538 246.432356) scale(0.1 -0.1)">
       <defs>
        <path id="ArialMT-35" d="M 266 1200 
L 856 1250 
Q 922 819 1161 601 
Q 1400 384 1738 384 
Q 2144 384 2425 690 
Q 2706 997 2706 1503 
Q 2706 1984 2436 2262 
Q 2166 2541 1728 2541 
Q 1456 2541 1237 2417 
Q 1019 2294 894 2097 
L 366 2166 
L 809 4519 
L 3088 4519 
L 3088 3981 
L 1259 3981 
L 1013 2750 
Q 1425 3038 1878 3038 
Q 2478 3038 2890 2622 
Q 3303 2206 3303 1553 
Q 3303 931 2941 478 
Q 2500 -78 1738 -78 
Q 1113 -78 717 272 
Q 322 622 266 1200 
z
" transform="scale(0.015625)"/>
       </defs>
       <use xlink:href="#ArialMT-30"/>
       <use xlink:href="#ArialMT-2e" x="55.615234"/>
       <use xlink:href="#ArialMT-35" x="83.398438"/>
      </g>
     </g>
    </g>
    <g id="ytick_3">
     <g id="line2d_3">
      <path d="M 48.411538 179.112112 
L 375.005418 179.112112 
" clip-path="url(#pb0c714a3a5)" style="fill: none; stroke: #cccccc; stroke-width: 0.8; stroke-linecap: round"/>
     </g>
     <g id="text_6">
      <!-- 1.0 -->
      <g style="fill: #262626" transform="translate(27.511538 182.691018) scale(0.1 -0.1)">
       <defs>
        <path id="ArialMT-31" d="M 2384 0 
L 1822 0 
L 1822 3584 
Q 1619 3391 1289 3197 
Q 959 3003 697 2906 
L 697 3450 
Q 1169 3672 1522 3987 
Q 1875 4303 2022 4600 
L 2384 4600 
L 2384 0 
z
" transform="scale(0.015625)"/>
       </defs>
       <use xlink:href="#ArialMT-31"/>
       <use xlink:href="#ArialMT-2e" x="55.615234"/>
       <use xlink:href="#ArialMT-30" x="83.398438"/>
      </g>
     </g>
    </g>
    <g id="ytick_4">
     <g id="line2d_4">
      <path d="M 48.411538 115.370774 
L 375.005418 115.370774 
" clip-path="url(#pb0c714a3a5)" style="fill: none; stroke: #cccccc; stroke-width: 0.8; stroke-linecap: round"/>
     </g>
     <g id="text_7">
      <!-- 1.5 -->
      <g style="fill: #262626" transform="translate(27.511538 118.94968) scale(0.1 -0.1)">
       <use xlink:href="#ArialMT-31"/>
       <use xlink:href="#ArialMT-2e" x="55.615234"/>
       <use xlink:href="#ArialMT-35" x="83.398438"/>
      </g>
     </g>
    </g>
    <g id="ytick_5">
     <g id="line2d_5">
      <path d="M 48.411538 51.629436 
L 375.005418 51.629436 
" clip-path="url(#pb0c714a3a5)" style="fill: none; stroke: #cccccc; stroke-width: 0.8; stroke-linecap: round"/>
     </g>
     <g id="text_8">
      <!-- 2.0 -->
      <g style="fill: #262626" transform="translate(27.511538 55.208342) scale(0.1 -0.1)">
       <defs>
        <path id="ArialMT-32" d="M 3222 541 
L 3222 0 
L 194 0 
Q 188 203 259 391 
Q 375 700 629 1000 
Q 884 1300 1366 1694 
Q 2113 2306 2375 2664 
Q 2638 3022 2638 3341 
Q 2638 3675 2398 3904 
Q 2159 4134 1775 4134 
Q 1369 4134 1125 3890 
Q 881 3647 878 3216 
L 300 3275 
Q 359 3922 746 4261 
Q 1134 4600 1788 4600 
Q 2447 4600 2831 4234 
Q 3216 3869 3216 3328 
Q 3216 3053 3103 2787 
Q 2991 2522 2730 2228 
Q 2469 1934 1863 1422 
Q 1356 997 1212 845 
Q 1069 694 975 541 
L 3222 541 
z
" transform="scale(0.015625)"/>
       </defs>
       <use xlink:href="#ArialMT-32"/>
       <use xlink:href="#ArialMT-2e" x="55.615234"/>
       <use xlink:href="#ArialMT-30" x="83.398438"/>
      </g>
     </g>
    </g>
    <g id="text_9">
     <!-- vo2 -->
     <g style="fill: #262626" transform="translate(21.524038 179.440937) rotate(-90) scale(0.1 -0.1)">
      <use xlink:href="#ArialMT-76"/>
      <use xlink:href="#ArialMT-6f" x="50"/>
      <use xlink:href="#ArialMT-32" x="105.615234"/>
     </g>
    </g>
   </g>
   <g id="PolyCollection_1">
    <defs>
     <path id="m3ef6f3d23d" d="M 98.448619 -94.388507 
L 96.35262 -94.388507 
L 96.176506 -95.680129 
L 95.979598 -96.971751 
L 95.761149 -98.263373 
L 95.52071 -99.554995 
L 95.258184 -100.846617 
L 94.973869 -102.138239 
L 94.668502 -103.429861 
L 94.343285 -104.721483 
L 93.999906 -106.013104 
L 93.640534 -107.304726 
L 93.267806 -108.596348 
L 92.884786 -109.88797 
L 92.494911 -111.179592 
L 92.101917 -112.471214 
L 91.709738 -113.762836 
L 91.322397 -115.054458 
L 90.943884 -116.34608 
L 90.578017 -117.637702 
L 90.228303 -118.929324 
L 89.897802 -120.220946 
L 89.58899 -121.512568 
L 89.303644 -122.80419 
L 89.042731 -124.095812 
L 88.806335 -125.387434 
L 88.593595 -126.679056 
L 88.402687 -127.970677 
L 88.230825 -129.262299 
L 88.074303 -130.553921 
L 87.928564 -131.845543 
L 87.7883 -133.137165 
L 87.647576 -134.428787 
L 87.499974 -135.720409 
L 87.338757 -137.012031 
L 87.157039 -138.303653 
L 86.947964 -139.595275 
L 86.704873 -140.886897 
L 86.421481 -142.178519 
L 86.092025 -143.470141 
L 85.711408 -144.761763 
L 85.275326 -146.053385 
L 84.780368 -147.345007 
L 84.224106 -148.636629 
L 83.60516 -149.92825 
L 82.923252 -151.219872 
L 82.179235 -152.511494 
L 81.37512 -153.803116 
L 80.514083 -155.094738 
L 79.600464 -156.38636 
L 78.639756 -157.677982 
L 77.638584 -158.969604 
L 76.604674 -160.261226 
L 75.546809 -161.552848 
L 74.47477 -162.84447 
L 73.39926 -164.136092 
L 72.331804 -165.427714 
L 71.284632 -166.719336 
L 70.27053 -168.010958 
L 69.302668 -169.30258 
L 68.394397 -170.594202 
L 67.559027 -171.885823 
L 66.809574 -173.177445 
L 66.158497 -174.469067 
L 65.617424 -175.760689 
L 65.196869 -177.052311 
L 64.905964 -178.343933 
L 64.752207 -179.635555 
L 64.741232 -180.927177 
L 64.876619 -182.218799 
L 65.159758 -183.510421 
L 65.589753 -184.802043 
L 66.163397 -186.093665 
L 66.875202 -187.385287 
L 67.7175 -188.676909 
L 68.680594 -189.968531 
L 69.752981 -191.260153 
L 70.921607 -192.551775 
L 72.172179 -193.843396 
L 73.489494 -195.135018 
L 74.857793 -196.42664 
L 76.261121 -197.718262 
L 77.683672 -199.009884 
L 79.110127 -200.301506 
L 80.525957 -201.593128 
L 81.917686 -202.88475 
L 83.273118 -204.176372 
L 84.581508 -205.467994 
L 85.833681 -206.759616 
L 87.022106 -208.051238 
L 88.140914 -209.34286 
L 89.18587 -210.634482 
L 90.154308 -211.926104 
L 91.045023 -213.217726 
L 91.858142 -214.509348 
L 92.594971 -215.800969 
L 93.257828 -217.092591 
L 93.849868 -218.384213 
L 94.374911 -219.675835 
L 94.837273 -220.967457 
L 95.241608 -222.259079 
L 99.559631 -222.259079 
L 99.559631 -222.259079 
L 99.963966 -220.967457 
L 100.426328 -219.675835 
L 100.951371 -218.384213 
L 101.543411 -217.092591 
L 102.206268 -215.800969 
L 102.943097 -214.509348 
L 103.756216 -213.217726 
L 104.646931 -211.926104 
L 105.615369 -210.634482 
L 106.660325 -209.34286 
L 107.779133 -208.051238 
L 108.967559 -206.759616 
L 110.219731 -205.467994 
L 111.528121 -204.176372 
L 112.883553 -202.88475 
L 114.275282 -201.593128 
L 115.691112 -200.301506 
L 117.117567 -199.009884 
L 118.540118 -197.718262 
L 119.943446 -196.42664 
L 121.311746 -195.135018 
L 122.62906 -193.843396 
L 123.879632 -192.551775 
L 125.048259 -191.260153 
L 126.120645 -189.968531 
L 127.08374 -188.676909 
L 127.926037 -187.385287 
L 128.637842 -186.093665 
L 129.211486 -184.802043 
L 129.641481 -183.510421 
L 129.92462 -182.218799 
L 130.060008 -180.927177 
L 130.049032 -179.635555 
L 129.895275 -178.343933 
L 129.60437 -177.052311 
L 129.183815 -175.760689 
L 128.642742 -174.469067 
L 127.991665 -173.177445 
L 127.242212 -171.885823 
L 126.406842 -170.594202 
L 125.498572 -169.30258 
L 124.530709 -168.010958 
L 123.516608 -166.719336 
L 122.469435 -165.427714 
L 121.401979 -164.136092 
L 120.326469 -162.84447 
L 119.25443 -161.552848 
L 118.196565 -160.261226 
L 117.162655 -158.969604 
L 116.161483 -157.677982 
L 115.200775 -156.38636 
L 114.287156 -155.094738 
L 113.426119 -153.803116 
L 112.622004 -152.511494 
L 111.877987 -151.219872 
L 111.196079 -149.92825 
L 110.577133 -148.636629 
L 110.020871 -147.345007 
L 109.525913 -146.053385 
L 109.089831 -144.761763 
L 108.709215 -143.470141 
L 108.379758 -142.178519 
L 108.096366 -140.886897 
L 107.853276 -139.595275 
L 107.6442 -138.303653 
L 107.462482 -137.012031 
L 107.301265 -135.720409 
L 107.153663 -134.428787 
L 107.012939 -133.137165 
L 106.872675 -131.845543 
L 106.726937 -130.553921 
L 106.570415 -129.262299 
L 106.398552 -127.970677 
L 106.207644 -126.679056 
L 105.994904 -125.387434 
L 105.758508 -124.095812 
L 105.497595 -122.80419 
L 105.212249 -121.512568 
L 104.903438 -120.220946 
L 104.572936 -118.929324 
L 104.223222 -117.637702 
L 103.857355 -116.34608 
L 103.478842 -115.054458 
L 103.091502 -113.762836 
L 102.699322 -112.471214 
L 102.306328 -111.179592 
L 101.916454 -109.88797 
L 101.533433 -108.596348 
L 101.160705 -107.304726 
L 100.801333 -106.013104 
L 100.457954 -104.721483 
L 100.132738 -103.429861 
L 99.82737 -102.138239 
L 99.543055 -100.846617 
L 99.280529 -99.554995 
L 99.04009 -98.263373 
L 98.821642 -96.971751 
L 98.624733 -95.680129 
L 98.448619 -94.388507 
z
" style="stroke: #3f3f3f; stroke-width: 1.25"/>
    </defs>
    <g clip-path="url(#pb0c714a3a5)">
     <use xlink:href="#m3ef6f3d23d" x="0" y="360" style="fill: #3274a1; stroke: #3f3f3f; stroke-width: 1.25"/>
    </g>
   </g>
   <g id="PolyCollection_2">
    <defs>
     <path id="mfc39a89e3f" d="M 164.254954 -111.831899 
L 161.183837 -111.831899 
L 160.924052 -112.864679 
L 160.631097 -113.897459 
L 160.302754 -114.930239 
L 159.937007 -115.963019 
L 159.532107 -116.995799 
L 159.086642 -118.02858 
L 158.599606 -119.06136 
L 158.070463 -120.09414 
L 157.499208 -121.12692 
L 156.88642 -122.1597 
L 156.233302 -123.19248 
L 155.541712 -124.22526 
L 154.814177 -125.258041 
L 154.05389 -126.290821 
L 153.264689 -127.323601 
L 152.451018 -128.356381 
L 151.617864 -129.389161 
L 150.770686 -130.421941 
L 149.915313 -131.454721 
L 149.057836 -132.487501 
L 148.204485 -133.520282 
L 147.361493 -134.553062 
L 146.534959 -135.585842 
L 145.730707 -136.618622 
L 144.954146 -137.651402 
L 144.210137 -138.684182 
L 143.502877 -139.716962 
L 142.835791 -140.749743 
L 142.211447 -141.782523 
L 141.631487 -142.815303 
L 141.096594 -143.848083 
L 140.606467 -144.880863 
L 140.159841 -145.913643 
L 139.754516 -146.946423 
L 139.387423 -147.979203 
L 139.054709 -149.011984 
L 138.75184 -150.044764 
L 138.473732 -151.077544 
L 138.214884 -152.110324 
L 137.969536 -153.143104 
L 137.731824 -154.175884 
L 137.495951 -155.208664 
L 137.256346 -156.241445 
L 137.007828 -157.274225 
L 136.745765 -158.307005 
L 136.466221 -159.339785 
L 136.166084 -160.372565 
L 135.843192 -161.405345 
L 135.496429 -162.438125 
L 135.125806 -163.470905 
L 134.732513 -164.503686 
L 134.318957 -165.536466 
L 133.888756 -166.569246 
L 133.446723 -167.602026 
L 132.998803 -168.634806 
L 132.55199 -169.667586 
L 132.114215 -170.700366 
L 131.694194 -171.733147 
L 131.301264 -172.765927 
L 130.945182 -173.798707 
L 130.635907 -174.831487 
L 130.383374 -175.864267 
L 130.197243 -176.897047 
L 130.086659 -177.929827 
L 130.060008 -178.962607 
L 130.12468 -179.995388 
L 130.286864 -181.028168 
L 130.551351 -182.060948 
L 130.921382 -183.093728 
L 131.398531 -184.126508 
L 131.982626 -185.159288 
L 132.671723 -186.192068 
L 133.462121 -187.224849 
L 134.348428 -188.257629 
L 135.323673 -189.290409 
L 136.379457 -190.323189 
L 137.506144 -191.355969 
L 138.693082 -192.388749 
L 139.928846 -193.421529 
L 141.201494 -194.454309 
L 142.498837 -195.48709 
L 143.808697 -196.51987 
L 145.119161 -197.55265 
L 146.418815 -198.58543 
L 147.696956 -199.61821 
L 148.943766 -200.65099 
L 150.150467 -201.68377 
L 151.309423 -202.716551 
L 152.414221 -203.749331 
L 153.459702 -204.782111 
L 154.441965 -205.814891 
L 155.358339 -206.847671 
L 156.207318 -207.880451 
L 156.988488 -208.913231 
L 157.702417 -209.946011 
L 158.350545 -210.978792 
L 158.935055 -212.011572 
L 159.458751 -213.044352 
L 159.924923 -214.077132 
L 165.513868 -214.077132 
L 165.513868 -214.077132 
L 165.98004 -213.044352 
L 166.503736 -212.011572 
L 167.088247 -210.978792 
L 167.736374 -209.946011 
L 168.450303 -208.913231 
L 169.231473 -207.880451 
L 170.080453 -206.847671 
L 170.996826 -205.814891 
L 171.979089 -204.782111 
L 173.02457 -203.749331 
L 174.129368 -202.716551 
L 175.288325 -201.68377 
L 176.495025 -200.65099 
L 177.741836 -199.61821 
L 179.019976 -198.58543 
L 180.319631 -197.55265 
L 181.630095 -196.51987 
L 182.939955 -195.48709 
L 184.237297 -194.454309 
L 185.509946 -193.421529 
L 186.745709 -192.388749 
L 187.932647 -191.355969 
L 189.059335 -190.323189 
L 190.115119 -189.290409 
L 191.090363 -188.257629 
L 191.97667 -187.224849 
L 192.767068 -186.192068 
L 193.456165 -185.159288 
L 194.040261 -184.126508 
L 194.51741 -183.093728 
L 194.887441 -182.060948 
L 195.151927 -181.028168 
L 195.314111 -179.995388 
L 195.378784 -178.962607 
L 195.352132 -177.929827 
L 195.241549 -176.897047 
L 195.055418 -175.864267 
L 194.802884 -174.831487 
L 194.49361 -173.798707 
L 194.137527 -172.765927 
L 193.744597 -171.733147 
L 193.324577 -170.700366 
L 192.886801 -169.667586 
L 192.439989 -168.634806 
L 191.992068 -167.602026 
L 191.550035 -166.569246 
L 191.119835 -165.536466 
L 190.706278 -164.503686 
L 190.312986 -163.470905 
L 189.942362 -162.438125 
L 189.595599 -161.405345 
L 189.272708 -160.372565 
L 188.972571 -159.339785 
L 188.693026 -158.307005 
L 188.430964 -157.274225 
L 188.182446 -156.241445 
L 187.94284 -155.208664 
L 187.706967 -154.175884 
L 187.469256 -153.143104 
L 187.223907 -152.110324 
L 186.96506 -151.077544 
L 186.686951 -150.044764 
L 186.384083 -149.011984 
L 186.051368 -147.979203 
L 185.684275 -146.946423 
L 185.27895 -145.913643 
L 184.832324 -144.880863 
L 184.342198 -143.848083 
L 183.807304 -142.815303 
L 183.227345 -141.782523 
L 182.603 -140.749743 
L 181.935915 -139.716962 
L 181.228655 -138.684182 
L 180.484646 -137.651402 
L 179.708084 -136.618622 
L 178.903832 -135.585842 
L 178.077299 -134.553062 
L 177.234307 -133.520282 
L 176.380956 -132.487501 
L 175.523479 -131.454721 
L 174.668105 -130.421941 
L 173.820927 -129.389161 
L 172.987774 -128.356381 
L 172.174102 -127.323601 
L 171.384901 -126.290821 
L 170.624614 -125.258041 
L 169.897079 -124.22526 
L 169.20549 -123.19248 
L 168.552371 -122.1597 
L 167.939583 -121.12692 
L 167.368328 -120.09414 
L 166.839185 -119.06136 
L 166.352149 -118.02858 
L 165.906685 -116.995799 
L 165.501784 -115.963019 
L 165.136037 -114.930239 
L 164.807694 -113.897459 
L 164.514739 -112.864679 
L 164.254954 -111.831899 
z
" style="stroke: #3f3f3f; stroke-width: 1.25"/>
    </defs>
    <g clip-path="url(#pb0c714a3a5)">
     <use xlink:href="#mfc39a89e3f" x="0" y="360" style="fill: #e1812c; stroke: #3f3f3f; stroke-width: 1.25"/>
    </g>
   </g>
   <g id="PolyCollection_3">
    <defs>
     <path id="m3802edc1f7" d="M 261.819937 -111.598997 
L 259.575183 -111.598997 
L 259.33671 -113.202576 
L 259.059795 -114.806156 
L 258.741023 -116.409735 
L 258.37724 -118.013314 
L 257.965681 -119.616893 
L 257.504097 -121.220472 
L 256.99088 -122.824051 
L 256.425173 -124.42763 
L 255.806977 -126.031209 
L 255.137221 -127.634788 
L 254.417813 -129.238367 
L 253.651655 -130.841946 
L 252.842628 -132.445526 
L 251.995532 -134.049105 
L 251.116001 -135.652684 
L 250.210379 -137.256263 
L 249.285571 -138.859842 
L 248.348882 -140.463421 
L 247.407833 -142.067 
L 246.469987 -143.670579 
L 245.542774 -145.274158 
L 244.633338 -146.877737 
L 243.7484 -148.481316 
L 242.89416 -150.084896 
L 242.076214 -151.688475 
L 241.299525 -153.292054 
L 240.568404 -154.895633 
L 239.88653 -156.499212 
L 239.256991 -158.102791 
L 238.682336 -159.70637 
L 238.164642 -161.309949 
L 237.705578 -162.913528 
L 237.306467 -164.517107 
L 236.968344 -166.120686 
L 236.691999 -167.724266 
L 236.478006 -169.327845 
L 236.326747 -170.931424 
L 236.238409 -172.535003 
L 236.212992 -174.138582 
L 236.250289 -175.742161 
L 236.349871 -177.34574 
L 236.511069 -178.949319 
L 236.732945 -180.552898 
L 237.014269 -182.156477 
L 237.353492 -183.760056 
L 237.748713 -185.363635 
L 238.19765 -186.967215 
L 238.697607 -188.570794 
L 239.245441 -190.174373 
L 239.83753 -191.777952 
L 240.469752 -193.381531 
L 241.137465 -194.98511 
L 241.835512 -196.588689 
L 242.558237 -198.192268 
L 243.29953 -199.795847 
L 244.052901 -201.399426 
L 244.81158 -203.003005 
L 245.568651 -204.606585 
L 246.31721 -206.210164 
L 247.050548 -207.813743 
L 247.762341 -209.417322 
L 248.446854 -211.020901 
L 249.099127 -212.62448 
L 249.71515 -214.228059 
L 250.292001 -215.831638 
L 250.827943 -217.435217 
L 251.322479 -219.038796 
L 251.77634 -220.642375 
L 252.19143 -222.245955 
L 252.570706 -223.849534 
L 252.918016 -225.453113 
L 253.237894 -227.056692 
L 253.53533 -228.660271 
L 253.815519 -230.26385 
L 254.083614 -231.867429 
L 254.344488 -233.471008 
L 254.602528 -235.074587 
L 254.861452 -236.678166 
L 255.124183 -238.281745 
L 255.392765 -239.885325 
L 255.668332 -241.488904 
L 255.951122 -243.092483 
L 256.240544 -244.696062 
L 256.535274 -246.299641 
L 256.833385 -247.90322 
L 257.132497 -249.506799 
L 257.429932 -251.110378 
L 257.722875 -252.713957 
L 258.008523 -254.317536 
L 258.284218 -255.921115 
L 258.54756 -257.524695 
L 258.796491 -259.128274 
L 259.029359 -260.731853 
L 259.24495 -262.335432 
L 259.442498 -263.939011 
L 259.621668 -265.54259 
L 259.78253 -267.146169 
L 259.925511 -268.749748 
L 260.05134 -270.353327 
L 261.34378 -270.353327 
L 261.34378 -270.353327 
L 261.469609 -268.749748 
L 261.61259 -267.146169 
L 261.773452 -265.54259 
L 261.952622 -263.939011 
L 262.150169 -262.335432 
L 262.36576 -260.731853 
L 262.598629 -259.128274 
L 262.84756 -257.524695 
L 263.110901 -255.921115 
L 263.386597 -254.317536 
L 263.672245 -252.713957 
L 263.965188 -251.110378 
L 264.262623 -249.506799 
L 264.561734 -247.90322 
L 264.859846 -246.299641 
L 265.154576 -244.696062 
L 265.443998 -243.092483 
L 265.726788 -241.488904 
L 266.002354 -239.885325 
L 266.270936 -238.281745 
L 266.533667 -236.678166 
L 266.792591 -235.074587 
L 267.050631 -233.471008 
L 267.311506 -231.867429 
L 267.579601 -230.26385 
L 267.859789 -228.660271 
L 268.157225 -227.056692 
L 268.477104 -225.453113 
L 268.824414 -223.849534 
L 269.20369 -222.245955 
L 269.61878 -220.642375 
L 270.072641 -219.038796 
L 270.567176 -217.435217 
L 271.103119 -215.831638 
L 271.679969 -214.228059 
L 272.295993 -212.62448 
L 272.948266 -211.020901 
L 273.632779 -209.417322 
L 274.344572 -207.813743 
L 275.077909 -206.210164 
L 275.826468 -204.606585 
L 276.583539 -203.003005 
L 277.342218 -201.399426 
L 278.095589 -199.795847 
L 278.836882 -198.192268 
L 279.559607 -196.588689 
L 280.257655 -194.98511 
L 280.925368 -193.381531 
L 281.55759 -191.777952 
L 282.149679 -190.174373 
L 282.697513 -188.570794 
L 283.19747 -186.967215 
L 283.646407 -185.363635 
L 284.041628 -183.760056 
L 284.38085 -182.156477 
L 284.662175 -180.552898 
L 284.884051 -178.949319 
L 285.045248 -177.34574 
L 285.144831 -175.742161 
L 285.182127 -174.138582 
L 285.15671 -172.535003 
L 285.068373 -170.931424 
L 284.917113 -169.327845 
L 284.703121 -167.724266 
L 284.426776 -166.120686 
L 284.088653 -164.517107 
L 283.689542 -162.913528 
L 283.230477 -161.309949 
L 282.712784 -159.70637 
L 282.138129 -158.102791 
L 281.50859 -156.499212 
L 280.826716 -154.895633 
L 280.095594 -153.292054 
L 279.318905 -151.688475 
L 278.50096 -150.084896 
L 277.646719 -148.481316 
L 276.761782 -146.877737 
L 275.852346 -145.274158 
L 274.925133 -143.670579 
L 273.987287 -142.067 
L 273.046238 -140.463421 
L 272.109548 -138.859842 
L 271.184741 -137.256263 
L 270.279118 -135.652684 
L 269.399587 -134.049105 
L 268.552492 -132.445526 
L 267.743465 -130.841946 
L 266.977307 -129.238367 
L 266.257899 -127.634788 
L 265.588142 -126.031209 
L 264.969946 -124.42763 
L 264.40424 -122.824051 
L 263.891022 -121.220472 
L 263.429439 -119.616893 
L 263.01788 -118.013314 
L 262.654097 -116.409735 
L 262.335324 -114.806156 
L 262.05841 -113.202576 
L 261.819937 -111.598997 
z
" style="stroke: #3f3f3f; stroke-width: 1.25"/>
    </defs>
    <g clip-path="url(#pb0c714a3a5)">
     <use xlink:href="#m3802edc1f7" x="0" y="360" style="fill: #3274a1; stroke: #3f3f3f; stroke-width: 1.25"/>
    </g>
   </g>
   <g id="PolyCollection_4">
    <defs>
     <path id="m59f0c879c4" d="M 326.577085 -81.487268 
L 325.455587 -81.487268 
L 325.338357 -83.636557 
L 325.202694 -85.785846 
L 325.04701 -87.935135 
L 324.869824 -90.084423 
L 324.669794 -92.233712 
L 324.445762 -94.383001 
L 324.196778 -96.53229 
L 323.922125 -98.681579 
L 323.621329 -100.830868 
L 323.294158 -102.980157 
L 322.940609 -105.129446 
L 322.560881 -107.278734 
L 322.155342 -109.428023 
L 321.724484 -111.577312 
L 321.268878 -113.726601 
L 320.789133 -115.87589 
L 320.285857 -118.025179 
L 319.759638 -120.174468 
L 319.211036 -122.323757 
L 318.640608 -124.473045 
L 318.048947 -126.622334 
L 317.436752 -128.771623 
L 316.80493 -130.920912 
L 316.154704 -133.070201 
L 315.487745 -135.21949 
L 314.806301 -137.368779 
L 314.113329 -139.518068 
L 313.412595 -141.667356 
L 312.708754 -143.816645 
L 312.007378 -145.965934 
L 311.314944 -148.115223 
L 310.638747 -150.264512 
L 309.986765 -152.413801 
L 309.367453 -154.56309 
L 308.789494 -156.712379 
L 308.261494 -158.861667 
L 307.791657 -161.010956 
L 307.387447 -163.160245 
L 307.055259 -165.309534 
L 306.800121 -167.458823 
L 306.62545 -169.608112 
L 306.532873 -171.757401 
L 306.522129 -173.90669 
L 306.591067 -176.055978 
L 306.735728 -178.205267 
L 306.950524 -180.354556 
L 307.228486 -182.503845 
L 307.561581 -184.653134 
L 307.94107 -186.802423 
L 308.357884 -188.951712 
L 308.802998 -191.101001 
L 309.267783 -193.250289 
L 309.744304 -195.399578 
L 310.22557 -197.548867 
L 310.705701 -199.698156 
L 311.180024 -201.847445 
L 311.6451 -203.996734 
L 312.098668 -206.146023 
L 312.539551 -208.295312 
L 312.967499 -210.4446 
L 313.383019 -212.593889 
L 313.787186 -214.743178 
L 314.181455 -216.892467 
L 314.567493 -219.041756 
L 314.947029 -221.191045 
L 315.321744 -223.340334 
L 315.693177 -225.489623 
L 316.062676 -227.638911 
L 316.431368 -229.7882 
L 316.800151 -231.937489 
L 317.169698 -234.086778 
L 317.540474 -236.236067 
L 317.912747 -238.385356 
L 318.286605 -240.534645 
L 318.661956 -242.683934 
L 319.038535 -244.833222 
L 319.415895 -246.982511 
L 319.793401 -249.1318 
L 320.170222 -251.281089 
L 320.545331 -253.430378 
L 320.917501 -255.579667 
L 321.285329 -257.728956 
L 321.647251 -259.878245 
L 322.001584 -262.027533 
L 322.346571 -264.176822 
L 322.680435 -266.326111 
L 323.001439 -268.4754 
L 323.307949 -270.624689 
L 323.598489 -272.773978 
L 323.871797 -274.923267 
L 324.126865 -277.072556 
L 324.362972 -279.221844 
L 324.579705 -281.371133 
L 324.776956 -283.520422 
L 324.95492 -285.669711 
L 325.114072 -287.819 
L 325.255134 -289.968289 
L 325.379043 -292.117578 
L 325.486903 -294.266867 
L 326.545769 -294.266867 
L 326.545769 -294.266867 
L 326.653628 -292.117578 
L 326.777538 -289.968289 
L 326.9186 -287.819 
L 327.077752 -285.669711 
L 327.255716 -283.520422 
L 327.452967 -281.371133 
L 327.669699 -279.221844 
L 327.905807 -277.072556 
L 328.160875 -274.923267 
L 328.434183 -272.773978 
L 328.724723 -270.624689 
L 329.031233 -268.4754 
L 329.352237 -266.326111 
L 329.686101 -264.176822 
L 330.031088 -262.027533 
L 330.385421 -259.878245 
L 330.747343 -257.728956 
L 331.115171 -255.579667 
L 331.487341 -253.430378 
L 331.86245 -251.281089 
L 332.239271 -249.1318 
L 332.616777 -246.982511 
L 332.994137 -244.833222 
L 333.370716 -242.683934 
L 333.746067 -240.534645 
L 334.119925 -238.385356 
L 334.492198 -236.236067 
L 334.862974 -234.086778 
L 335.232521 -231.937489 
L 335.601303 -229.7882 
L 335.969996 -227.638911 
L 336.339495 -225.489623 
L 336.710928 -223.340334 
L 337.085642 -221.191045 
L 337.465179 -219.041756 
L 337.851217 -216.892467 
L 338.245486 -214.743178 
L 338.649653 -212.593889 
L 339.065173 -210.4446 
L 339.493121 -208.295312 
L 339.934004 -206.146023 
L 340.387572 -203.996734 
L 340.852647 -201.847445 
L 341.326971 -199.698156 
L 341.807102 -197.548867 
L 342.288368 -195.399578 
L 342.764889 -193.250289 
L 343.229673 -191.101001 
L 343.674788 -188.951712 
L 344.091602 -186.802423 
L 344.471091 -184.653134 
L 344.804186 -182.503845 
L 345.082148 -180.354556 
L 345.296944 -178.205267 
L 345.441605 -176.055978 
L 345.510543 -173.90669 
L 345.499799 -171.757401 
L 345.407222 -169.608112 
L 345.232551 -167.458823 
L 344.977413 -165.309534 
L 344.645224 -163.160245 
L 344.241014 -161.010956 
L 343.771178 -158.861667 
L 343.243178 -156.712379 
L 342.665219 -154.56309 
L 342.045907 -152.413801 
L 341.393924 -150.264512 
L 340.717727 -148.115223 
L 340.025293 -145.965934 
L 339.323918 -143.816645 
L 338.620077 -141.667356 
L 337.919343 -139.518068 
L 337.226371 -137.368779 
L 336.544927 -135.21949 
L 335.877967 -133.070201 
L 335.227742 -130.920912 
L 334.59592 -128.771623 
L 333.983725 -126.622334 
L 333.392063 -124.473045 
L 332.821635 -122.323757 
L 332.273034 -120.174468 
L 331.746815 -118.025179 
L 331.243539 -115.87589 
L 330.763794 -113.726601 
L 330.308188 -111.577312 
L 329.87733 -109.428023 
L 329.47179 -107.278734 
L 329.092063 -105.129446 
L 328.738514 -102.980157 
L 328.411343 -100.830868 
L 328.110547 -98.681579 
L 327.835894 -96.53229 
L 327.58691 -94.383001 
L 327.362878 -92.233712 
L 327.162848 -90.084423 
L 326.985662 -87.935135 
L 326.829978 -85.785846 
L 326.694315 -83.636557 
L 326.577085 -81.487268 
z
" style="stroke: #3f3f3f; stroke-width: 1.25"/>
    </defs>
    <g clip-path="url(#pb0c714a3a5)">
     <use xlink:href="#m59f0c879c4" x="0" y="360" style="fill: #e1812c; stroke: #3f3f3f; stroke-width: 1.25"/>
    </g>
   </g>
   <g id="line2d_6">
    <path d="M 97.40062 199.881187 
L 97.40062 170.429215 
" clip-path="url(#pb0c714a3a5)" style="fill: none; stroke: #3f3f3f; stroke-width: 1.875; stroke-linecap: round"/>
   </g>
   <g id="line2d_7">
    <path d="M 97.40062 196.040727 
L 97.40062 175.518259 
" clip-path="url(#pb0c714a3a5)" style="fill: none; stroke: #3f3f3f; stroke-width: 5.625; stroke-linecap: round"/>
   </g>
   <g id="line2d_8">
    <path d="M 97.40062 181.133865 
" clip-path="url(#pb0c714a3a5)" style="fill: none; stroke: #3f3f3f; stroke-width: 1.5; stroke-linecap: round"/>
    <defs>
     <path id="m8e20790965" d="M 2.34375 0 
L -2.34375 -0 
" style="stroke: #ffffff; stroke-width: 1.125"/>
    </defs>
    <g clip-path="url(#pb0c714a3a5)">
     <use xlink:href="#m8e20790965" x="97.40062" y="181.133865" style="fill: #ffffff; stroke: #ffffff; stroke-width: 1.125"/>
    </g>
   </g>
   <g id="line2d_9">
    <path d="M 162.719396 220.621291 
L 162.719396 173.469678 
" clip-path="url(#pb0c714a3a5)" style="fill: none; stroke: #3f3f3f; stroke-width: 1.875; stroke-linecap: round"/>
   </g>
   <g id="line2d_10">
    <path d="M 162.719396 206.941076 
L 162.719396 176.064403 
" clip-path="url(#pb0c714a3a5)" style="fill: none; stroke: #3f3f3f; stroke-width: 5.625; stroke-linecap: round"/>
   </g>
   <g id="line2d_11">
    <path d="M 162.719396 188.863381 
" clip-path="url(#pb0c714a3a5)" style="fill: none; stroke: #3f3f3f; stroke-width: 1.5; stroke-linecap: round"/>
    <g clip-path="url(#pb0c714a3a5)">
     <use xlink:href="#m8e20790965" x="162.719396" y="188.863381" style="fill: #ffffff; stroke: #ffffff; stroke-width: 1.125"/>
    </g>
   </g>
   <g id="line2d_12">
    <path d="M 260.69756 212.968693 
L 260.69756 125.078982 
" clip-path="url(#pb0c714a3a5)" style="fill: none; stroke: #3f3f3f; stroke-width: 1.875; stroke-linecap: round"/>
   </g>
   <g id="line2d_13">
    <path d="M 260.69756 197.668695 
L 260.69756 161.040229 
" clip-path="url(#pb0c714a3a5)" style="fill: none; stroke: #3f3f3f; stroke-width: 5.625; stroke-linecap: round"/>
   </g>
   <g id="line2d_14">
    <path d="M 260.69756 184.925769 
" clip-path="url(#pb0c714a3a5)" style="fill: none; stroke: #3f3f3f; stroke-width: 1.5; stroke-linecap: round"/>
    <g clip-path="url(#pb0c714a3a5)">
     <use xlink:href="#m8e20790965" x="260.69756" y="184.925769" style="fill: #ffffff; stroke: #ffffff; stroke-width: 1.125"/>
    </g>
   </g>
   <g id="line2d_15">
    <path d="M 326.016336 231.825124 
L 326.016336 112.420742 
" clip-path="url(#pb0c714a3a5)" style="fill: none; stroke: #3f3f3f; stroke-width: 1.875; stroke-linecap: round"/>
   </g>
   <g id="line2d_16">
    <path d="M 326.016336 188.803267 
L 326.016336 150.122583 
" clip-path="url(#pb0c714a3a5)" style="fill: none; stroke: #3f3f3f; stroke-width: 5.625; stroke-linecap: round"/>
   </g>
   <g id="line2d_17">
    <path d="M 326.016336 187.982488 
" clip-path="url(#pb0c714a3a5)" style="fill: none; stroke: #3f3f3f; stroke-width: 1.5; stroke-linecap: round"/>
    <g clip-path="url(#pb0c714a3a5)">
     <use xlink:href="#m8e20790965" x="326.016336" y="187.982488" style="fill: #ffffff; stroke: #ffffff; stroke-width: 1.125"/>
    </g>
   </g>
   <g id="patch_3">
    <path d="M 48.411538 318.04 
L 48.411538 24.72 
" style="fill: none; stroke: #cccccc; stroke-width: 0.8; stroke-linejoin: miter; stroke-linecap: square"/>
   </g>
   <g id="patch_4">
    <path d="M 48.411538 318.04 
L 375.005418 318.04 
" style="fill: none; stroke: #cccccc; stroke-width: 0.8; stroke-linejoin: miter; stroke-linecap: square"/>
   </g>
   <g id="text_10">
    <!-- sex = f -->
    <g style="fill: #262626" transform="translate(196.840509 18.72) scale(0.1 -0.1)">
     <defs>
      <path id="ArialMT-73" d="M 197 991 
L 753 1078 
Q 800 744 1014 566 
Q 1228 388 1613 388 
Q 2000 388 2187 545 
Q 2375 703 2375 916 
Q 2375 1106 2209 1216 
Q 2094 1291 1634 1406 
Q 1016 1563 777 1677 
Q 538 1791 414 1992 
Q 291 2194 291 2438 
Q 291 2659 392 2848 
Q 494 3038 669 3163 
Q 800 3259 1026 3326 
Q 1253 3394 1513 3394 
Q 1903 3394 2198 3281 
Q 2494 3169 2634 2976 
Q 2775 2784 2828 2463 
L 2278 2388 
Q 2241 2644 2061 2787 
Q 1881 2931 1553 2931 
Q 1166 2931 1000 2803 
Q 834 2675 834 2503 
Q 834 2394 903 2306 
Q 972 2216 1119 2156 
Q 1203 2125 1616 2013 
Q 2213 1853 2448 1751 
Q 2684 1650 2818 1456 
Q 2953 1263 2953 975 
Q 2953 694 2789 445 
Q 2625 197 2315 61 
Q 2006 -75 1616 -75 
Q 969 -75 630 194 
Q 291 463 197 991 
z
" transform="scale(0.015625)"/>
      <path id="ArialMT-65" d="M 2694 1069 
L 3275 997 
Q 3138 488 2766 206 
Q 2394 -75 1816 -75 
Q 1088 -75 661 373 
Q 234 822 234 1631 
Q 234 2469 665 2931 
Q 1097 3394 1784 3394 
Q 2450 3394 2872 2941 
Q 3294 2488 3294 1666 
Q 3294 1616 3291 1516 
L 816 1516 
Q 847 969 1125 678 
Q 1403 388 1819 388 
Q 2128 388 2347 550 
Q 2566 713 2694 1069 
z
M 847 1978 
L 2700 1978 
Q 2663 2397 2488 2606 
Q 2219 2931 1791 2931 
Q 1403 2931 1139 2672 
Q 875 2413 847 1978 
z
" transform="scale(0.015625)"/>
      <path id="ArialMT-78" d="M 47 0 
L 1259 1725 
L 138 3319 
L 841 3319 
L 1350 2541 
Q 1494 2319 1581 2169 
Q 1719 2375 1834 2534 
L 2394 3319 
L 3066 3319 
L 1919 1756 
L 3153 0 
L 2463 0 
L 1781 1031 
L 1600 1309 
L 728 0 
L 47 0 
z
" transform="scale(0.015625)"/>
      <path id="ArialMT-20" transform="scale(0.015625)"/>
      <path id="ArialMT-3d" d="M 3381 2694 
L 356 2694 
L 356 3219 
L 3381 3219 
L 3381 2694 
z
M 3381 1303 
L 356 1303 
L 356 1828 
L 3381 1828 
L 3381 1303 
z
" transform="scale(0.015625)"/>
      <path id="ArialMT-66" d="M 556 0 
L 556 2881 
L 59 2881 
L 59 3319 
L 556 3319 
L 556 3672 
Q 556 4006 616 4169 
Q 697 4388 901 4523 
Q 1106 4659 1475 4659 
Q 1713 4659 2000 4603 
L 1916 4113 
Q 1741 4144 1584 4144 
Q 1328 4144 1222 4034 
Q 1116 3925 1116 3625 
L 1116 3319 
L 1763 3319 
L 1763 2881 
L 1116 2881 
L 1116 0 
L 556 0 
z
" transform="scale(0.015625)"/>
     </defs>
     <use xlink:href="#ArialMT-73"/>
     <use xlink:href="#ArialMT-65" x="50"/>
     <use xlink:href="#ArialMT-78" x="105.615234"/>
     <use xlink:href="#ArialMT-20" x="155.615234"/>
     <use xlink:href="#ArialMT-3d" x="183.398438"/>
     <use xlink:href="#ArialMT-20" x="241.796875"/>
     <use xlink:href="#ArialMT-66" x="269.580078"/>
    </g>
   </g>
  </g>
  <g id="axes_2">
   <g id="patch_5">
    <path d="M 385.817319 318.04 
L 712.4112 318.04 
L 712.4112 24.72 
L 385.817319 24.72 
z
" style="fill: #ffffff"/>
   </g>
   <g id="matplotlib.axis_3">
    <g id="xtick_3">
     <g id="text_11">
      <!-- Baia -->
      <g style="fill: #262626" transform="translate(457.458758 332.197812) scale(0.1 -0.1)">
       <use xlink:href="#ArialMT-42"/>
       <use xlink:href="#ArialMT-61" x="66.699219"/>
       <use xlink:href="#ArialMT-69" x="122.314453"/>
       <use xlink:href="#ArialMT-61" x="144.53125"/>
      </g>
     </g>
    </g>
    <g id="xtick_4">
     <g id="text_12">
      <!-- Jurilovca -->
      <g style="fill: #262626" transform="translate(611.034605 332.197812) scale(0.1 -0.1)">
       <use xlink:href="#ArialMT-4a"/>
       <use xlink:href="#ArialMT-75" x="50"/>
       <use xlink:href="#ArialMT-72" x="105.615234"/>
       <use xlink:href="#ArialMT-69" x="138.916016"/>
       <use xlink:href="#ArialMT-6c" x="161.132812"/>
       <use xlink:href="#ArialMT-6f" x="183.349609"/>
       <use xlink:href="#ArialMT-76" x="238.964844"/>
       <use xlink:href="#ArialMT-63" x="288.964844"/>
       <use xlink:href="#ArialMT-61" x="338.964844"/>
      </g>
     </g>
    </g>
    <g id="text_13">
     <!-- location -->
     <g style="fill: #262626" transform="translate(531.881447 345.343125) scale(0.1 -0.1)">
      <use xlink:href="#ArialMT-6c"/>
      <use xlink:href="#ArialMT-6f" x="22.216797"/>
      <use xlink:href="#ArialMT-63" x="77.832031"/>
      <use xlink:href="#ArialMT-61" x="127.832031"/>
      <use xlink:href="#ArialMT-74" x="183.447266"/>
      <use xlink:href="#ArialMT-69" x="211.230469"/>
      <use xlink:href="#ArialMT-6f" x="233.447266"/>
      <use xlink:href="#ArialMT-6e" x="289.0625"/>
     </g>
    </g>
   </g>
   <g id="matplotlib.axis_4">
    <g id="ytick_6">
     <g id="line2d_18">
      <path d="M 385.817319 306.594788 
L 712.4112 306.594788 
" clip-path="url(#p9ca201fd2b)" style="fill: none; stroke: #cccccc; stroke-width: 0.8; stroke-linecap: round"/>
     </g>
    </g>
    <g id="ytick_7">
     <g id="line2d_19">
      <path d="M 385.817319 242.85345 
L 712.4112 242.85345 
" clip-path="url(#p9ca201fd2b)" style="fill: none; stroke: #cccccc; stroke-width: 0.8; stroke-linecap: round"/>
     </g>
    </g>
    <g id="ytick_8">
     <g id="line2d_20">
      <path d="M 385.817319 179.112112 
L 712.4112 179.112112 
" clip-path="url(#p9ca201fd2b)" style="fill: none; stroke: #cccccc; stroke-width: 0.8; stroke-linecap: round"/>
     </g>
    </g>
    <g id="ytick_9">
     <g id="line2d_21">
      <path d="M 385.817319 115.370774 
L 712.4112 115.370774 
" clip-path="url(#p9ca201fd2b)" style="fill: none; stroke: #cccccc; stroke-width: 0.8; stroke-linecap: round"/>
     </g>
    </g>
    <g id="ytick_10">
     <g id="line2d_22">
      <path d="M 385.817319 51.629436 
L 712.4112 51.629436 
" clip-path="url(#p9ca201fd2b)" style="fill: none; stroke: #cccccc; stroke-width: 0.8; stroke-linecap: round"/>
     </g>
    </g>
   </g>
   <g id="PolyCollection_5">
    <defs>
     <path id="m25f8430c91" d="M 435.853371 -136.590154 
L 433.759433 -136.590154 
L 433.475933 -138.390249 
L 433.131264 -140.190344 
L 432.716644 -141.99044 
L 432.22315 -143.790535 
L 431.642022 -145.59063 
L 430.965014 -147.390725 
L 430.184802 -149.19082 
L 429.295422 -150.990915 
L 428.292734 -152.79101 
L 427.174872 -154.591105 
L 425.942679 -156.3912 
L 424.600075 -158.191295 
L 423.154349 -159.99139 
L 421.616333 -161.791485 
L 420.000449 -163.59158 
L 418.324604 -165.391675 
L 416.609912 -167.19177 
L 414.880267 -168.991865 
L 413.161748 -170.79196 
L 411.481888 -172.592055 
L 409.86883 -174.39215 
L 408.350412 -176.192245 
L 406.953213 -177.99234 
L 405.701618 -179.792435 
L 404.616946 -181.59253 
L 403.716688 -183.392625 
L 403.013898 -185.19272 
L 402.516775 -186.992815 
L 402.228452 -188.79291 
L 402.147013 -190.593005 
L 402.265728 -192.3931 
L 402.573492 -194.193195 
L 403.055448 -195.99329 
L 403.693739 -197.793385 
L 404.468354 -199.59348 
L 405.358012 -201.393575 
L 406.341031 -203.19367 
L 407.39613 -204.993765 
L 408.503125 -206.79386 
L 409.643486 -208.593955 
L 410.800732 -210.39405 
L 411.960658 -212.194145 
L 413.111403 -213.99424 
L 414.243377 -215.794335 
L 415.349068 -217.59443 
L 416.422773 -219.394525 
L 417.460281 -221.19462 
L 418.458552 -222.994715 
L 419.415414 -224.79481 
L 420.329301 -226.594905 
L 421.199063 -228.395 
L 422.023828 -230.195095 
L 422.802934 -231.99519 
L 423.535908 -233.795285 
L 424.222485 -235.59538 
L 424.86264 -237.395475 
L 425.456633 -239.19557 
L 426.005029 -240.995665 
L 426.508718 -242.79576 
L 426.968897 -244.595855 
L 427.387044 -246.39595 
L 427.764871 -248.196045 
L 428.104286 -249.99614 
L 428.407346 -251.796235 
L 428.676237 -253.59633 
L 428.913269 -255.396425 
L 429.120893 -257.19652 
L 429.301732 -258.996615 
L 429.458634 -260.79671 
L 429.594704 -262.596805 
L 429.713347 -264.3969 
L 429.818264 -266.196995 
L 429.913429 -267.99709 
L 430.003024 -269.797185 
L 430.091324 -271.59728 
L 430.182559 -273.397375 
L 430.280743 -275.19747 
L 430.389489 -276.997565 
L 430.511835 -278.79766 
L 430.650077 -280.597755 
L 430.805651 -282.39785 
L 430.979055 -284.197945 
L 431.169823 -285.99804 
L 431.376565 -287.798135 
L 431.597057 -289.59823 
L 431.828379 -291.398325 
L 432.067095 -293.19842 
L 432.309446 -294.998515 
L 432.551561 -296.79861 
L 432.789655 -298.598706 
L 433.020205 -300.398801 
L 433.240101 -302.198896 
L 433.446754 -303.998991 
L 433.638167 -305.799086 
L 433.81296 -307.599181 
L 433.970363 -309.399276 
L 434.110174 -311.199371 
L 434.232694 -312.999466 
L 434.33864 -314.799561 
L 435.274163 -314.799561 
L 435.274163 -314.799561 
L 435.38011 -312.999466 
L 435.502629 -311.199371 
L 435.64244 -309.399276 
L 435.799843 -307.599181 
L 435.974636 -305.799086 
L 436.166049 -303.998991 
L 436.372702 -302.198896 
L 436.592598 -300.398801 
L 436.823148 -298.598706 
L 437.061242 -296.79861 
L 437.303358 -294.998515 
L 437.545709 -293.19842 
L 437.784424 -291.398325 
L 438.015747 -289.59823 
L 438.236238 -287.798135 
L 438.44298 -285.99804 
L 438.633748 -284.197945 
L 438.807152 -282.39785 
L 438.962726 -280.597755 
L 439.100968 -278.79766 
L 439.223314 -276.997565 
L 439.33206 -275.19747 
L 439.430244 -273.397375 
L 439.52148 -271.59728 
L 439.609779 -269.797185 
L 439.699374 -267.99709 
L 439.79454 -266.196995 
L 439.899456 -264.3969 
L 440.018099 -262.596805 
L 440.154169 -260.79671 
L 440.311071 -258.996615 
L 440.491911 -257.19652 
L 440.699534 -255.396425 
L 440.936566 -253.59633 
L 441.205457 -251.796235 
L 441.508517 -249.99614 
L 441.847932 -248.196045 
L 442.225759 -246.39595 
L 442.643906 -244.595855 
L 443.104085 -242.79576 
L 443.607774 -240.995665 
L 444.15617 -239.19557 
L 444.750163 -237.395475 
L 445.390318 -235.59538 
L 446.076895 -233.795285 
L 446.809869 -231.99519 
L 447.588975 -230.195095 
L 448.41374 -228.395 
L 449.283502 -226.594905 
L 450.197389 -224.79481 
L 451.154251 -222.994715 
L 452.152522 -221.19462 
L 453.190031 -219.394525 
L 454.263735 -217.59443 
L 455.369426 -215.794335 
L 456.5014 -213.99424 
L 457.652145 -212.194145 
L 458.812071 -210.39405 
L 459.969317 -208.593955 
L 461.109678 -206.79386 
L 462.216674 -204.993765 
L 463.271773 -203.19367 
L 464.254792 -201.393575 
L 465.14445 -199.59348 
L 465.919064 -197.793385 
L 466.557355 -195.99329 
L 467.039311 -194.193195 
L 467.347075 -192.3931 
L 467.46579 -190.593005 
L 467.384351 -188.79291 
L 467.096028 -186.992815 
L 466.598905 -185.19272 
L 465.896115 -183.392625 
L 464.995857 -181.59253 
L 463.911185 -179.792435 
L 462.65959 -177.99234 
L 461.262391 -176.192245 
L 459.743973 -174.39215 
L 458.130915 -172.592055 
L 456.451055 -170.79196 
L 454.732536 -168.991865 
L 453.002891 -167.19177 
L 451.2882 -165.391675 
L 449.612354 -163.59158 
L 447.99647 -161.791485 
L 446.458454 -159.99139 
L 445.012728 -158.191295 
L 443.670124 -156.3912 
L 442.437931 -154.591105 
L 441.320069 -152.79101 
L 440.317381 -150.990915 
L 439.428001 -149.19082 
L 438.647789 -147.390725 
L 437.970781 -145.59063 
L 437.389653 -143.790535 
L 436.89616 -141.99044 
L 436.481539 -140.190344 
L 436.13687 -138.390249 
L 435.853371 -136.590154 
z
" style="stroke: #3f3f3f; stroke-width: 1.25"/>
    </defs>
    <g clip-path="url(#p9ca201fd2b)">
     <use xlink:href="#m25f8430c91" x="0" y="360" style="fill: #3274a1; stroke: #3f3f3f; stroke-width: 1.25"/>
    </g>
   </g>
   <g id="PolyCollection_6">
    <defs>
     <path id="m94e0eee801" d="M 500.624744 -100.554305 
L 499.625611 -100.554305 
L 499.501047 -102.363961 
L 499.352988 -104.173617 
L 499.178918 -105.983273 
L 498.976452 -107.792929 
L 498.743419 -109.602585 
L 498.477929 -111.412241 
L 498.178429 -113.221898 
L 497.843737 -115.031554 
L 497.473049 -116.84121 
L 497.065916 -118.650866 
L 496.622192 -120.460522 
L 496.14195 -122.270178 
L 495.625382 -124.079834 
L 495.072683 -125.88949 
L 494.483946 -127.699146 
L 493.859064 -129.508803 
L 493.197676 -131.318459 
L 492.499163 -133.128115 
L 491.762698 -134.937771 
L 490.987375 -136.747427 
L 490.172401 -138.557083 
L 489.317365 -140.366739 
L 488.422541 -142.176395 
L 487.489236 -143.986051 
L 486.520132 -145.795707 
L 485.519605 -147.605364 
L 484.493979 -149.41502 
L 483.451694 -151.224676 
L 482.403349 -153.034332 
L 481.361615 -154.843988 
L 480.341002 -156.653644 
L 479.357472 -158.4633 
L 478.427932 -160.272956 
L 477.569609 -162.082612 
L 476.799349 -163.892269 
L 476.132879 -165.701925 
L 475.584076 -167.511581 
L 475.164277 -169.321237 
L 474.881696 -171.130893 
L 474.740956 -172.940549 
L 474.742795 -174.750205 
L 474.88395 -176.559861 
L 475.15724 -178.369517 
L 475.551842 -180.179173 
L 476.05376 -181.98883 
L 476.646449 -183.798486 
L 477.311577 -185.608142 
L 478.029878 -187.417798 
L 478.782044 -189.227454 
L 479.549611 -191.03711 
L 480.315778 -192.846766 
L 481.066125 -194.656422 
L 481.789157 -196.466078 
L 482.476669 -198.275735 
L 483.12389 -200.085391 
L 483.72941 -201.895047 
L 484.294888 -203.704703 
L 484.824582 -205.514359 
L 485.324722 -207.324015 
L 485.802797 -209.133671 
L 486.266802 -210.943327 
L 486.724503 -212.752983 
L 487.182792 -214.562639 
L 487.647169 -216.372296 
L 488.121381 -218.181952 
L 488.607258 -219.991608 
L 489.104724 -221.801264 
L 489.611981 -223.61092 
L 490.125833 -225.420576 
L 490.642106 -227.230232 
L 491.156114 -229.039888 
L 491.663131 -230.849544 
L 492.158812 -232.659201 
L 492.639532 -234.468857 
L 493.102614 -236.278513 
L 493.546447 -238.088169 
L 493.97047 -239.897825 
L 494.375064 -241.707481 
L 494.761357 -243.517137 
L 495.130973 -245.326793 
L 495.485768 -247.136449 
L 495.827567 -248.946106 
L 496.157945 -250.755762 
L 496.478055 -252.565418 
L 496.788524 -254.375074 
L 497.089424 -256.18473 
L 497.380298 -257.994386 
L 497.660244 -259.804042 
L 497.928042 -261.613698 
L 498.182292 -263.423354 
L 498.421569 -265.23301 
L 498.644562 -267.042667 
L 498.85019 -268.852323 
L 499.037692 -270.661979 
L 499.206684 -272.471635 
L 499.357173 -274.281291 
L 499.489552 -276.090947 
L 499.604564 -277.900603 
L 499.703242 -279.710259 
L 500.547113 -279.710259 
L 500.547113 -279.710259 
L 500.645791 -277.900603 
L 500.760803 -276.090947 
L 500.893183 -274.281291 
L 501.043672 -272.471635 
L 501.212663 -270.661979 
L 501.400166 -268.852323 
L 501.605794 -267.042667 
L 501.828787 -265.23301 
L 502.068064 -263.423354 
L 502.322314 -261.613698 
L 502.590111 -259.804042 
L 502.870058 -257.994386 
L 503.160931 -256.18473 
L 503.461831 -254.375074 
L 503.772301 -252.565418 
L 504.09241 -250.755762 
L 504.422788 -248.946106 
L 504.764588 -247.136449 
L 505.119383 -245.326793 
L 505.488999 -243.517137 
L 505.875291 -241.707481 
L 506.279886 -239.897825 
L 506.703909 -238.088169 
L 507.147741 -236.278513 
L 507.610824 -234.468857 
L 508.091543 -232.659201 
L 508.587224 -230.849544 
L 509.094242 -229.039888 
L 509.60825 -227.230232 
L 510.124522 -225.420576 
L 510.638374 -223.61092 
L 511.145631 -221.801264 
L 511.643097 -219.991608 
L 512.128974 -218.181952 
L 512.603187 -216.372296 
L 513.067563 -214.562639 
L 513.525853 -212.752983 
L 513.983553 -210.943327 
L 514.447558 -209.133671 
L 514.925634 -207.324015 
L 515.425774 -205.514359 
L 515.955467 -203.704703 
L 516.520946 -201.895047 
L 517.126465 -200.085391 
L 517.773687 -198.275735 
L 518.461198 -196.466078 
L 519.18423 -194.656422 
L 519.934577 -192.846766 
L 520.700745 -191.03711 
L 521.468311 -189.227454 
L 522.220477 -187.417798 
L 522.938778 -185.608142 
L 523.603907 -183.798486 
L 524.196595 -181.98883 
L 524.698513 -180.179173 
L 525.093115 -178.369517 
L 525.366405 -176.559861 
L 525.50756 -174.750205 
L 525.509399 -172.940549 
L 525.368659 -171.130893 
L 525.086078 -169.321237 
L 524.66628 -167.511581 
L 524.117476 -165.701925 
L 523.451006 -163.892269 
L 522.680746 -162.082612 
L 521.822423 -160.272956 
L 520.892884 -158.4633 
L 519.909354 -156.653644 
L 518.88874 -154.843988 
L 517.847007 -153.034332 
L 516.798661 -151.224676 
L 515.756376 -149.41502 
L 514.730751 -147.605364 
L 513.730224 -145.795707 
L 512.76112 -143.986051 
L 511.827814 -142.176395 
L 510.93299 -140.366739 
L 510.077954 -138.557083 
L 509.262981 -136.747427 
L 508.487657 -134.937771 
L 507.751192 -133.128115 
L 507.052679 -131.318459 
L 506.391292 -129.508803 
L 505.766409 -127.699146 
L 505.177672 -125.88949 
L 504.624973 -124.079834 
L 504.108405 -122.270178 
L 503.628163 -120.460522 
L 503.184439 -118.650866 
L 502.777307 -116.84121 
L 502.406618 -115.031554 
L 502.071926 -113.221898 
L 501.772426 -111.412241 
L 501.506936 -109.602585 
L 501.273903 -107.792929 
L 501.071438 -105.983273 
L 500.897367 -104.173617 
L 500.749309 -102.363961 
L 500.624744 -100.554305 
z
" style="stroke: #3f3f3f; stroke-width: 1.25"/>
    </defs>
    <g clip-path="url(#p9ca201fd2b)">
     <use xlink:href="#m94e0eee801" x="0" y="360" style="fill: #e1812c; stroke: #3f3f3f; stroke-width: 1.25"/>
    </g>
   </g>
   <g id="PolyCollection_7">
    <defs>
     <path id="md0cbb39b18" d="M 598.635624 -55.292727 
L 597.571059 -55.292727 
L 597.463885 -57.986208 
L 597.339923 -60.679688 
L 597.197556 -63.373168 
L 597.035201 -66.066648 
L 596.851345 -68.760129 
L 596.644588 -71.453609 
L 596.413684 -74.147089 
L 596.157584 -76.840569 
L 595.875477 -79.53405 
L 595.566825 -82.22753 
L 595.231403 -84.92101 
L 594.86932 -87.61449 
L 594.481045 -90.307971 
L 594.067414 -93.001451 
L 593.629637 -95.694931 
L 593.169292 -98.388411 
L 592.688304 -101.081892 
L 592.188927 -103.775372 
L 591.673703 -106.468852 
L 591.145431 -109.162332 
L 590.607114 -111.855813 
L 590.061913 -114.549293 
L 589.513098 -117.242773 
L 588.963999 -119.936253 
L 588.417957 -122.629734 
L 587.878284 -125.323214 
L 587.348229 -128.016694 
L 586.830946 -130.710174 
L 586.329478 -133.403655 
L 585.846741 -136.097135 
L 585.38552 -138.790615 
L 584.94847 -141.484096 
L 584.538119 -144.177576 
L 584.156874 -146.871056 
L 583.807029 -149.564536 
L 583.490764 -152.258017 
L 583.210143 -154.951497 
L 582.967102 -157.644977 
L 582.763429 -160.338457 
L 582.600729 -163.031938 
L 582.480387 -165.725418 
L 582.403509 -168.418898 
L 582.370867 -171.112378 
L 582.382836 -173.805859 
L 582.439323 -176.499339 
L 582.539708 -179.192819 
L 582.682794 -181.886299 
L 582.86676 -184.57978 
L 583.089142 -187.27326 
L 583.346832 -189.96674 
L 583.636105 -192.66022 
L 583.952669 -195.353701 
L 584.291749 -198.047181 
L 584.64819 -200.740661 
L 585.016594 -203.434141 
L 585.391473 -206.127622 
L 585.76741 -208.821102 
L 586.139239 -211.514582 
L 586.502215 -214.208062 
L 586.85218 -216.901543 
L 587.185709 -219.595023 
L 587.500228 -222.288503 
L 587.794109 -224.981983 
L 588.066715 -227.675464 
L 588.31841 -230.368944 
L 588.550528 -233.062424 
L 588.765294 -235.755904 
L 588.965706 -238.449385 
L 589.15539 -241.142865 
L 589.338419 -243.836345 
L 589.519116 -246.529826 
L 589.701854 -249.223306 
L 589.890849 -251.916786 
L 590.08997 -254.610266 
L 590.302563 -257.303747 
L 590.531315 -259.997227 
L 590.778137 -262.690707 
L 591.0441 -265.384187 
L 591.329406 -268.077668 
L 591.633396 -270.771148 
L 591.954604 -273.464628 
L 592.290841 -276.158108 
L 592.639305 -278.851589 
L 592.996716 -281.545069 
L 593.359459 -284.238549 
L 593.723738 -286.932029 
L 594.085726 -289.62551 
L 594.441698 -292.31899 
L 594.78816 -295.01247 
L 595.121955 -297.70595 
L 595.440338 -300.399431 
L 595.741039 -303.092911 
L 596.022293 -305.786391 
L 596.282852 -308.479871 
L 596.521973 -311.173352 
L 596.739387 -313.866832 
L 596.935259 -316.560312 
L 597.110131 -319.253792 
L 597.264861 -321.947273 
L 598.941822 -321.947273 
L 598.941822 -321.947273 
L 599.096553 -319.253792 
L 599.271425 -316.560312 
L 599.467297 -313.866832 
L 599.684711 -311.173352 
L 599.923832 -308.479871 
L 600.184391 -305.786391 
L 600.465645 -303.092911 
L 600.766346 -300.399431 
L 601.084729 -297.70595 
L 601.418523 -295.01247 
L 601.764986 -292.31899 
L 602.120958 -289.62551 
L 602.482945 -286.932029 
L 602.847225 -284.238549 
L 603.209968 -281.545069 
L 603.567378 -278.851589 
L 603.915842 -276.158108 
L 604.25208 -273.464628 
L 604.573288 -270.771148 
L 604.877278 -268.077668 
L 605.162584 -265.384187 
L 605.428547 -262.690707 
L 605.675369 -259.997227 
L 605.90412 -257.303747 
L 606.116714 -254.610266 
L 606.315834 -251.916786 
L 606.50483 -249.223306 
L 606.687568 -246.529826 
L 606.868265 -243.836345 
L 607.051293 -241.142865 
L 607.240977 -238.449385 
L 607.44139 -235.755904 
L 607.656155 -233.062424 
L 607.888274 -230.368944 
L 608.139969 -227.675464 
L 608.412575 -224.981983 
L 608.706455 -222.288503 
L 609.020975 -219.595023 
L 609.354503 -216.901543 
L 609.704468 -214.208062 
L 610.067445 -211.514582 
L 610.439274 -208.821102 
L 610.815211 -206.127622 
L 611.190089 -203.434141 
L 611.558494 -200.740661 
L 611.914935 -198.047181 
L 612.254014 -195.353701 
L 612.570579 -192.66022 
L 612.859852 -189.96674 
L 613.117542 -187.27326 
L 613.339924 -184.57978 
L 613.523889 -181.886299 
L 613.666975 -179.192819 
L 613.767361 -176.499339 
L 613.823848 -173.805859 
L 613.835816 -171.112378 
L 613.803175 -168.418898 
L 613.726297 -165.725418 
L 613.605954 -163.031938 
L 613.443255 -160.338457 
L 613.239582 -157.644977 
L 612.996541 -154.951497 
L 612.71592 -152.258017 
L 612.399655 -149.564536 
L 612.049809 -146.871056 
L 611.668565 -144.177576 
L 611.258213 -141.484096 
L 610.821163 -138.790615 
L 610.359943 -136.097135 
L 609.877206 -133.403655 
L 609.375738 -130.710174 
L 608.858455 -128.016694 
L 608.328399 -125.323214 
L 607.788727 -122.629734 
L 607.242685 -119.936253 
L 606.693585 -117.242773 
L 606.144771 -114.549293 
L 605.59957 -111.855813 
L 605.061252 -109.162332 
L 604.53298 -106.468852 
L 604.017757 -103.775372 
L 603.518379 -101.081892 
L 603.037392 -98.388411 
L 602.577046 -95.694931 
L 602.13927 -93.001451 
L 601.725639 -90.307971 
L 601.337363 -87.61449 
L 600.975281 -84.92101 
L 600.639858 -82.22753 
L 600.331207 -79.53405 
L 600.049099 -76.840569 
L 599.793 -74.147089 
L 599.562096 -71.453609 
L 599.355339 -68.760129 
L 599.171483 -66.066648 
L 599.009127 -63.373168 
L 598.86676 -60.679688 
L 598.742798 -57.986208 
L 598.635624 -55.292727 
z
" style="stroke: #3f3f3f; stroke-width: 1.25"/>
    </defs>
    <g clip-path="url(#p9ca201fd2b)">
     <use xlink:href="#md0cbb39b18" x="0" y="360" style="fill: #3274a1; stroke: #3f3f3f; stroke-width: 1.25"/>
    </g>
   </g>
   <g id="PolyCollection_8">
    <defs>
     <path id="m2f5e00c24c" d="M 665.433321 -119.57156 
L 661.410915 -119.57156 
L 661.011409 -120.564455 
L 660.551223 -121.55735 
L 660.025217 -122.550245 
L 659.428638 -123.54314 
L 658.757311 -124.536035 
L 658.007839 -125.52893 
L 657.177807 -126.521825 
L 656.26599 -127.51472 
L 655.272535 -128.507615 
L 654.199141 -129.50051 
L 653.04919 -130.493405 
L 651.827851 -131.486299 
L 650.542126 -132.479194 
L 649.20085 -133.472089 
L 647.81462 -134.464984 
L 646.395665 -135.457879 
L 644.957652 -136.450774 
L 643.515425 -137.443669 
L 642.084691 -138.436564 
L 640.681659 -139.429459 
L 639.322636 -140.422354 
L 638.023603 -141.415249 
L 636.799781 -142.408144 
L 635.665201 -143.401038 
L 634.632301 -144.393933 
L 633.711559 -145.386828 
L 632.911176 -146.379723 
L 632.236827 -147.372618 
L 631.691493 -148.365513 
L 631.275361 -149.358408 
L 630.985825 -150.351303 
L 630.817569 -151.344198 
L 630.76273 -152.337093 
L 630.811146 -153.329988 
L 630.950675 -154.322883 
L 631.167572 -155.315777 
L 631.446911 -156.308672 
L 631.773049 -157.301567 
L 632.130101 -158.294462 
L 632.502425 -159.287357 
L 632.875087 -160.280252 
L 633.234312 -161.273147 
L 633.567884 -162.266042 
L 633.8655 -163.258937 
L 634.119055 -164.251832 
L 634.322859 -165.244727 
L 634.473772 -166.237622 
L 634.571253 -167.230517 
L 634.617327 -168.223411 
L 634.616468 -169.216306 
L 634.575397 -170.209201 
L 634.502812 -171.202096 
L 634.409055 -172.194991 
L 634.305732 -173.187886 
L 634.205289 -174.180781 
L 634.120576 -175.173676 
L 634.06441 -176.166571 
L 634.049143 -177.159466 
L 634.086271 -178.152361 
L 634.186077 -179.145256 
L 634.357335 -180.13815 
L 634.60708 -181.131045 
L 634.940441 -182.12394 
L 635.360557 -183.116835 
L 635.868556 -184.10973 
L 636.463607 -185.102625 
L 637.143028 -186.09552 
L 637.902449 -187.088415 
L 638.736015 -188.08131 
L 639.636613 -189.074205 
L 640.596123 -190.0671 
L 641.605673 -191.059995 
L 642.65589 -192.052889 
L 643.737135 -193.045784 
L 644.83973 -194.038679 
L 645.954151 -195.031574 
L 647.0712 -196.024469 
L 648.182149 -197.017364 
L 649.278854 -198.010259 
L 650.35385 -199.003154 
L 651.400413 -199.996049 
L 652.412604 -200.988944 
L 653.3853 -201.981839 
L 654.314199 -202.974734 
L 655.195816 -203.967629 
L 656.027467 -204.960523 
L 656.807244 -205.953418 
L 657.533973 -206.946313 
L 658.207179 -207.939208 
L 658.827028 -208.932103 
L 659.394273 -209.924998 
L 659.910194 -210.917893 
L 660.37653 -211.910788 
L 660.795413 -212.903683 
L 661.169295 -213.896578 
L 661.500882 -214.889473 
L 661.793064 -215.882368 
L 662.048846 -216.875262 
L 662.271291 -217.868157 
L 664.572944 -217.868157 
L 664.572944 -217.868157 
L 664.79539 -216.875262 
L 665.051172 -215.882368 
L 665.343354 -214.889473 
L 665.674941 -213.896578 
L 666.048823 -212.903683 
L 666.467705 -211.910788 
L 666.934042 -210.917893 
L 667.449963 -209.924998 
L 668.017208 -208.932103 
L 668.637057 -207.939208 
L 669.310263 -206.946313 
L 670.036992 -205.953418 
L 670.816769 -204.960523 
L 671.64842 -203.967629 
L 672.530037 -202.974734 
L 673.458935 -201.981839 
L 674.431632 -200.988944 
L 675.443823 -199.996049 
L 676.490386 -199.003154 
L 677.565382 -198.010259 
L 678.662087 -197.017364 
L 679.773036 -196.024469 
L 680.890084 -195.031574 
L 682.004506 -194.038679 
L 683.107101 -193.045784 
L 684.188346 -192.052889 
L 685.238562 -191.059995 
L 686.248113 -190.0671 
L 687.207623 -189.074205 
L 688.108221 -188.08131 
L 688.941787 -187.088415 
L 689.701208 -186.09552 
L 690.380629 -185.102625 
L 690.97568 -184.10973 
L 691.483679 -183.116835 
L 691.903795 -182.12394 
L 692.237156 -181.131045 
L 692.486901 -180.13815 
L 692.658159 -179.145256 
L 692.757965 -178.152361 
L 692.795093 -177.159466 
L 692.779826 -176.166571 
L 692.72366 -175.173676 
L 692.638947 -174.180781 
L 692.538503 -173.187886 
L 692.43518 -172.194991 
L 692.341424 -171.202096 
L 692.268839 -170.209201 
L 692.227767 -169.216306 
L 692.226908 -168.223411 
L 692.272983 -167.230517 
L 692.370464 -166.237622 
L 692.521377 -165.244727 
L 692.725181 -164.251832 
L 692.978736 -163.258937 
L 693.276352 -162.266042 
L 693.609924 -161.273147 
L 693.969149 -160.280252 
L 694.341811 -159.287357 
L 694.714134 -158.294462 
L 695.071187 -157.301567 
L 695.397325 -156.308672 
L 695.676664 -155.315777 
L 695.89356 -154.322883 
L 696.03309 -153.329988 
L 696.081506 -152.337093 
L 696.026667 -151.344198 
L 695.85841 -150.351303 
L 695.568875 -149.358408 
L 695.152743 -148.365513 
L 694.607409 -147.372618 
L 693.93306 -146.379723 
L 693.132677 -145.386828 
L 692.211935 -144.393933 
L 691.179035 -143.401038 
L 690.044455 -142.408144 
L 688.820633 -141.415249 
L 687.5216 -140.422354 
L 686.162577 -139.429459 
L 684.759545 -138.436564 
L 683.328811 -137.443669 
L 681.886584 -136.450774 
L 680.44857 -135.457879 
L 679.029616 -134.464984 
L 677.643386 -133.472089 
L 676.30211 -132.479194 
L 675.016385 -131.486299 
L 673.795046 -130.493405 
L 672.645095 -129.50051 
L 671.571701 -128.507615 
L 670.578246 -127.51472 
L 669.666429 -126.521825 
L 668.836397 -125.52893 
L 668.086925 -124.536035 
L 667.415598 -123.54314 
L 666.819019 -122.550245 
L 666.293013 -121.55735 
L 665.832827 -120.564455 
L 665.433321 -119.57156 
z
" style="stroke: #3f3f3f; stroke-width: 1.25"/>
    </defs>
    <g clip-path="url(#p9ca201fd2b)">
     <use xlink:href="#m2f5e00c24c" x="0" y="360" style="fill: #e1812c; stroke: #3f3f3f; stroke-width: 1.25"/>
    </g>
   </g>
   <g id="patch_6">
    <path d="M 467.46579 306.594788 
L 467.46579 306.594788 
L 467.46579 306.594788 
L 467.46579 306.594788 
z
" clip-path="url(#p9ca201fd2b)" style="fill: #3274a1; stroke: #3f3f3f; stroke-width: 1.25; stroke-linejoin: miter"/>
   </g>
   <g id="patch_7">
    <path d="M 467.46579 306.594788 
L 467.46579 306.594788 
L 467.46579 306.594788 
L 467.46579 306.594788 
z
" clip-path="url(#p9ca201fd2b)" style="fill: #e1812c; stroke: #3f3f3f; stroke-width: 1.25; stroke-linejoin: miter"/>
   </g>
   <g id="line2d_23">
    <path d="M 434.806402 188.853278 
L 434.806402 110.334016 
" clip-path="url(#p9ca201fd2b)" style="fill: none; stroke: #3f3f3f; stroke-width: 1.875; stroke-linecap: round"/>
   </g>
   <g id="line2d_24">
    <path d="M 434.806402 176.352439 
L 434.806402 142.864309 
" clip-path="url(#p9ca201fd2b)" style="fill: none; stroke: #3f3f3f; stroke-width: 5.625; stroke-linecap: round"/>
   </g>
   <g id="line2d_25">
    <path d="M 434.806402 165.463119 
" clip-path="url(#p9ca201fd2b)" style="fill: none; stroke: #3f3f3f; stroke-width: 1.5; stroke-linecap: round"/>
    <g clip-path="url(#p9ca201fd2b)">
     <use xlink:href="#m8e20790965" x="434.806402" y="165.463119" style="fill: #ffffff; stroke: #ffffff; stroke-width: 1.125"/>
    </g>
   </g>
   <g id="line2d_26">
    <path d="M 500.125178 225.344854 
L 500.125178 114.390582 
" clip-path="url(#p9ca201fd2b)" style="fill: none; stroke: #3f3f3f; stroke-width: 1.875; stroke-linecap: round"/>
   </g>
   <g id="line2d_27">
    <path d="M 500.125178 195.069968 
L 500.125178 157.13444 
" clip-path="url(#p9ca201fd2b)" style="fill: none; stroke: #3f3f3f; stroke-width: 5.625; stroke-linecap: round"/>
   </g>
   <g id="line2d_28">
    <path d="M 500.125178 180.598301 
" clip-path="url(#p9ca201fd2b)" style="fill: none; stroke: #3f3f3f; stroke-width: 1.5; stroke-linecap: round"/>
    <g clip-path="url(#p9ca201fd2b)">
     <use xlink:href="#m8e20790965" x="500.125178" y="180.598301" style="fill: #ffffff; stroke: #ffffff; stroke-width: 1.125"/>
    </g>
   </g>
   <g id="line2d_29">
    <path d="M 598.103342 241.779738 
L 598.103342 100.980262 
" clip-path="url(#p9ca201fd2b)" style="fill: none; stroke: #3f3f3f; stroke-width: 1.875; stroke-linecap: round"/>
   </g>
   <g id="line2d_30">
    <path d="M 598.103342 211.557411 
L 598.103342 152.950093 
" clip-path="url(#p9ca201fd2b)" style="fill: none; stroke: #3f3f3f; stroke-width: 5.625; stroke-linecap: round"/>
   </g>
   <g id="line2d_31">
    <path d="M 598.103342 182.589234 
" clip-path="url(#p9ca201fd2b)" style="fill: none; stroke: #3f3f3f; stroke-width: 1.5; stroke-linecap: round"/>
    <g clip-path="url(#p9ca201fd2b)">
     <use xlink:href="#m8e20790965" x="598.103342" y="182.589234" style="fill: #ffffff; stroke: #ffffff; stroke-width: 1.125"/>
    </g>
   </g>
   <g id="line2d_32">
    <path d="M 663.422118 216.682396 
L 663.422118 165.877887 
" clip-path="url(#p9ca201fd2b)" style="fill: none; stroke: #3f3f3f; stroke-width: 1.875; stroke-linecap: round"/>
   </g>
   <g id="line2d_33">
    <path d="M 663.422118 211.009079 
L 663.422118 181.037786 
" clip-path="url(#p9ca201fd2b)" style="fill: none; stroke: #3f3f3f; stroke-width: 5.625; stroke-linecap: round"/>
   </g>
   <g id="line2d_34">
    <path d="M 663.422118 196.959652 
" clip-path="url(#p9ca201fd2b)" style="fill: none; stroke: #3f3f3f; stroke-width: 1.5; stroke-linecap: round"/>
    <g clip-path="url(#p9ca201fd2b)">
     <use xlink:href="#m8e20790965" x="663.422118" y="196.959652" style="fill: #ffffff; stroke: #ffffff; stroke-width: 1.125"/>
    </g>
   </g>
   <g id="patch_8">
    <path d="M 385.817319 318.04 
L 385.817319 24.72 
" style="fill: none; stroke: #cccccc; stroke-width: 0.8; stroke-linejoin: miter; stroke-linecap: square"/>
   </g>
   <g id="patch_9">
    <path d="M 385.817319 318.04 
L 712.4112 318.04 
" style="fill: none; stroke: #cccccc; stroke-width: 0.8; stroke-linejoin: miter; stroke-linecap: square"/>
   </g>
   <g id="text_14">
    <!-- sex = m -->
    <g style="fill: #262626" transform="translate(531.47051 18.72) scale(0.1 -0.1)">
     <defs>
      <path id="ArialMT-6d" d="M 422 0 
L 422 3319 
L 925 3319 
L 925 2853 
Q 1081 3097 1340 3245 
Q 1600 3394 1931 3394 
Q 2300 3394 2536 3241 
Q 2772 3088 2869 2813 
Q 3263 3394 3894 3394 
Q 4388 3394 4653 3120 
Q 4919 2847 4919 2278 
L 4919 0 
L 4359 0 
L 4359 2091 
Q 4359 2428 4304 2576 
Q 4250 2725 4106 2815 
Q 3963 2906 3769 2906 
Q 3419 2906 3187 2673 
Q 2956 2441 2956 1928 
L 2956 0 
L 2394 0 
L 2394 2156 
Q 2394 2531 2256 2718 
Q 2119 2906 1806 2906 
Q 1569 2906 1367 2781 
Q 1166 2656 1075 2415 
Q 984 2175 984 1722 
L 984 0 
L 422 0 
z
" transform="scale(0.015625)"/>
     </defs>
     <use xlink:href="#ArialMT-73"/>
     <use xlink:href="#ArialMT-65" x="50"/>
     <use xlink:href="#ArialMT-78" x="105.615234"/>
     <use xlink:href="#ArialMT-20" x="155.615234"/>
     <use xlink:href="#ArialMT-3d" x="183.398438"/>
     <use xlink:href="#ArialMT-20" x="241.796875"/>
     <use xlink:href="#ArialMT-6d" x="269.580078"/>
    </g>
   </g>
  </g>
  <g id="legend_1">
   <g id="text_15">
    <!-- time -->
    <g style="fill: #262626" transform="translate(725.045625 168.439844) scale(0.1 -0.1)">
     <use xlink:href="#ArialMT-74"/>
     <use xlink:href="#ArialMT-69" x="27.783203"/>
     <use xlink:href="#ArialMT-6d" x="50"/>
     <use xlink:href="#ArialMT-65" x="133.300781"/>
    </g>
   </g>
   <g id="patch_10">
    <path d="M 719.101875 182.585156 
L 739.101875 182.585156 
L 739.101875 175.585156 
L 719.101875 175.585156 
z
" style="fill: #3274a1; stroke: #3f3f3f; stroke-width: 1.25; stroke-linejoin: miter"/>
   </g>
   <g id="text_16">
    <!-- i -->
    <g style="fill: #262626" transform="translate(747.101875 182.585156) scale(0.1 -0.1)">
     <use xlink:href="#ArialMT-69"/>
    </g>
   </g>
   <g id="patch_11">
    <path d="M 719.101875 196.730469 
L 739.101875 196.730469 
L 739.101875 189.730469 
L 719.101875 189.730469 
z
" style="fill: #e1812c; stroke: #3f3f3f; stroke-width: 1.25; stroke-linejoin: miter"/>
   </g>
   <g id="text_17">
    <!-- f -->
    <g style="fill: #262626" transform="translate(747.101875 196.730469) scale(0.1 -0.1)">
     <use xlink:href="#ArialMT-66"/>
    </g>
   </g>
  </g>
 </g>
 <defs>
  <clipPath id="pb0c714a3a5">
   <rect x="48.411538" y="24.72" width="326.593881" height="293.32"/>
  </clipPath>
  <clipPath id="p9ca201fd2b">
   <rect x="385.817319" y="24.72" width="326.593881" height="293.32"/>
  </clipPath>
 </defs>
</svg>
