<?xml version="1.0" encoding="utf-8" standalone="no"?>
<!DOCTYPE svg PUBLIC "-//W3C//DTD SVG 1.1//EN"
  "http://www.w3.org/Graphics/SVG/1.1/DTD/svg11.dtd">
<svg xmlns:xlink="http://www.w3.org/1999/xlink" width="758.88pt" height="360pt" viewBox="0 0 758.88 360" xmlns="http://www.w3.org/2000/svg" version="1.1">
 <metadata>
  <rdf:RDF xmlns:dc="http://purl.org/dc/elements/1.1/" xmlns:cc="http://creativecommons.org/ns#" xmlns:rdf="http://www.w3.org/1999/02/22-rdf-syntax-ns#">
   <cc:Work>
    <dc:type rdf:resource="http://purl.org/dc/dcmitype/StillImage"/>
    <dc:date>2024-09-11T03:22:42.269216</dc:date>
    <dc:format>image/svg+xml</dc:format>
    <dc:creator>
     <cc:Agent>
      <dc:title>Matplotlib v3.8.3, https://matplotlib.org/</dc:title>
     </cc:Agent>
    </dc:creator>
   </cc:Work>
  </rdf:RDF>
 </metadata>
 <defs>
  <style type="text/css">*{stroke-linejoin: round; stroke-linecap: butt}</style>
 </defs>
 <g id="figure_1">
  <g id="patch_1">
   <path d="M 0 360 
L 758.88 360 
L 758.88 0 
L 0 0 
z
" style="fill: #ffffff"/>
  </g>
  <g id="axes_1">
   <g id="patch_2">
    <path d="M 45.470877 318.04 
L 373.533891 318.04 
L 373.533891 24.72 
L 45.470877 24.72 
z
" style="fill: #ffffff"/>
   </g>
   <g id="matplotlib.axis_1">
    <g id="xtick_1">
     <g id="text_1">
      <!-- Jurilovca -->
      <g style="fill: #262626" transform="translate(107.758506 332.197812) scale(0.1 -0.1)">
       <defs>
        <path id="ArialMT-4a" d="M 184 1300 
L 731 1375 
Q 753 850 928 656 
Q 1103 463 1413 463 
Q 1641 463 1806 567 
Q 1972 672 2034 851 
Q 2097 1031 2097 1425 
L 2097 4581 
L 2703 4581 
L 2703 1459 
Q 2703 884 2564 568 
Q 2425 253 2123 87 
Q 1822 -78 1416 -78 
Q 813 -78 492 269 
Q 172 616 184 1300 
z
" transform="scale(0.015625)"/>
        <path id="ArialMT-75" d="M 2597 0 
L 2597 488 
Q 2209 -75 1544 -75 
Q 1250 -75 995 37 
Q 741 150 617 320 
Q 494 491 444 738 
Q 409 903 409 1263 
L 409 3319 
L 972 3319 
L 972 1478 
Q 972 1038 1006 884 
Q 1059 663 1231 536 
Q 1403 409 1656 409 
Q 1909 409 2131 539 
Q 2353 669 2445 892 
Q 2538 1116 2538 1541 
L 2538 3319 
L 3100 3319 
L 3100 0 
L 2597 0 
z
" transform="scale(0.015625)"/>
        <path id="ArialMT-72" d="M 416 0 
L 416 3319 
L 922 3319 
L 922 2816 
Q 1116 3169 1280 3281 
Q 1444 3394 1641 3394 
Q 1925 3394 2219 3213 
L 2025 2691 
Q 1819 2813 1613 2813 
Q 1428 2813 1281 2702 
Q 1134 2591 1072 2394 
Q 978 2094 978 1738 
L 978 0 
L 416 0 
z
" transform="scale(0.015625)"/>
        <path id="ArialMT-69" d="M 425 3934 
L 425 4581 
L 988 4581 
L 988 3934 
L 425 3934 
z
M 425 0 
L 425 3319 
L 988 3319 
L 988 0 
L 425 0 
z
" transform="scale(0.015625)"/>
        <path id="ArialMT-6c" d="M 409 0 
L 409 4581 
L 972 4581 
L 972 0 
L 409 0 
z
" transform="scale(0.015625)"/>
        <path id="ArialMT-6f" d="M 213 1659 
Q 213 2581 725 3025 
Q 1153 3394 1769 3394 
Q 2453 3394 2887 2945 
Q 3322 2497 3322 1706 
Q 3322 1066 3130 698 
Q 2938 331 2570 128 
Q 2203 -75 1769 -75 
Q 1072 -75 642 372 
Q 213 819 213 1659 
z
M 791 1659 
Q 791 1022 1069 705 
Q 1347 388 1769 388 
Q 2188 388 2466 706 
Q 2744 1025 2744 1678 
Q 2744 2294 2464 2611 
Q 2184 2928 1769 2928 
Q 1347 2928 1069 2612 
Q 791 2297 791 1659 
z
" transform="scale(0.015625)"/>
        <path id="ArialMT-76" d="M 1344 0 
L 81 3319 
L 675 3319 
L 1388 1331 
Q 1503 1009 1600 663 
Q 1675 925 1809 1294 
L 2547 3319 
L 3125 3319 
L 1869 0 
L 1344 0 
z
" transform="scale(0.015625)"/>
        <path id="ArialMT-63" d="M 2588 1216 
L 3141 1144 
Q 3050 572 2676 248 
Q 2303 -75 1759 -75 
Q 1078 -75 664 370 
Q 250 816 250 1647 
Q 250 2184 428 2587 
Q 606 2991 970 3192 
Q 1334 3394 1763 3394 
Q 2303 3394 2647 3120 
Q 2991 2847 3088 2344 
L 2541 2259 
Q 2463 2594 2264 2762 
Q 2066 2931 1784 2931 
Q 1359 2931 1093 2626 
Q 828 2322 828 1663 
Q 828 994 1084 691 
Q 1341 388 1753 388 
Q 2084 388 2306 591 
Q 2528 794 2588 1216 
z
" transform="scale(0.015625)"/>
        <path id="ArialMT-61" d="M 2588 409 
Q 2275 144 1986 34 
Q 1697 -75 1366 -75 
Q 819 -75 525 192 
Q 231 459 231 875 
Q 231 1119 342 1320 
Q 453 1522 633 1644 
Q 813 1766 1038 1828 
Q 1203 1872 1538 1913 
Q 2219 1994 2541 2106 
Q 2544 2222 2544 2253 
Q 2544 2597 2384 2738 
Q 2169 2928 1744 2928 
Q 1347 2928 1158 2789 
Q 969 2650 878 2297 
L 328 2372 
Q 403 2725 575 2942 
Q 747 3159 1072 3276 
Q 1397 3394 1825 3394 
Q 2250 3394 2515 3294 
Q 2781 3194 2906 3042 
Q 3031 2891 3081 2659 
Q 3109 2516 3109 2141 
L 3109 1391 
Q 3109 606 3145 398 
Q 3181 191 3288 0 
L 2700 0 
Q 2613 175 2588 409 
z
M 2541 1666 
Q 2234 1541 1622 1453 
Q 1275 1403 1131 1340 
Q 988 1278 909 1158 
Q 831 1038 831 891 
Q 831 666 1001 516 
Q 1172 366 1500 366 
Q 1825 366 2078 508 
Q 2331 650 2450 897 
Q 2541 1088 2541 1459 
L 2541 1666 
z
" transform="scale(0.015625)"/>
       </defs>
       <use xlink:href="#ArialMT-4a"/>
       <use xlink:href="#ArialMT-75" x="50"/>
       <use xlink:href="#ArialMT-72" x="105.615234"/>
       <use xlink:href="#ArialMT-69" x="138.916016"/>
       <use xlink:href="#ArialMT-6c" x="161.132812"/>
       <use xlink:href="#ArialMT-6f" x="183.349609"/>
       <use xlink:href="#ArialMT-76" x="238.964844"/>
       <use xlink:href="#ArialMT-63" x="288.964844"/>
       <use xlink:href="#ArialMT-61" x="338.964844"/>
      </g>
     </g>
    </g>
    <g id="xtick_2">
     <g id="text_2">
      <!-- Baia -->
      <g style="fill: #262626" transform="translate(281.511107 332.197812) scale(0.1 -0.1)">
       <defs>
        <path id="ArialMT-42" d="M 469 0 
L 469 4581 
L 2188 4581 
Q 2713 4581 3030 4442 
Q 3347 4303 3526 4014 
Q 3706 3725 3706 3409 
Q 3706 3116 3547 2856 
Q 3388 2597 3066 2438 
Q 3481 2316 3704 2022 
Q 3928 1728 3928 1328 
Q 3928 1006 3792 729 
Q 3656 453 3456 303 
Q 3256 153 2954 76 
Q 2653 0 2216 0 
L 469 0 
z
M 1075 2656 
L 2066 2656 
Q 2469 2656 2644 2709 
Q 2875 2778 2992 2937 
Q 3109 3097 3109 3338 
Q 3109 3566 3000 3739 
Q 2891 3913 2687 3977 
Q 2484 4041 1991 4041 
L 1075 4041 
L 1075 2656 
z
M 1075 541 
L 2216 541 
Q 2509 541 2628 563 
Q 2838 600 2978 687 
Q 3119 775 3209 942 
Q 3300 1109 3300 1328 
Q 3300 1584 3169 1773 
Q 3038 1963 2805 2039 
Q 2572 2116 2134 2116 
L 1075 2116 
L 1075 541 
z
" transform="scale(0.015625)"/>
       </defs>
       <use xlink:href="#ArialMT-42"/>
       <use xlink:href="#ArialMT-61" x="66.699219"/>
       <use xlink:href="#ArialMT-69" x="122.314453"/>
       <use xlink:href="#ArialMT-61" x="144.53125"/>
      </g>
     </g>
    </g>
    <g id="text_3">
     <!-- location -->
     <g style="fill: #262626" transform="translate(192.269572 345.343125) scale(0.1 -0.1)">
      <defs>
       <path id="ArialMT-74" d="M 1650 503 
L 1731 6 
Q 1494 -44 1306 -44 
Q 1000 -44 831 53 
Q 663 150 594 308 
Q 525 466 525 972 
L 525 2881 
L 113 2881 
L 113 3319 
L 525 3319 
L 525 4141 
L 1084 4478 
L 1084 3319 
L 1650 3319 
L 1650 2881 
L 1084 2881 
L 1084 941 
Q 1084 700 1114 631 
Q 1144 563 1211 522 
Q 1278 481 1403 481 
Q 1497 481 1650 503 
z
" transform="scale(0.015625)"/>
       <path id="ArialMT-6e" d="M 422 0 
L 422 3319 
L 928 3319 
L 928 2847 
Q 1294 3394 1984 3394 
Q 2284 3394 2536 3286 
Q 2788 3178 2913 3003 
Q 3038 2828 3088 2588 
Q 3119 2431 3119 2041 
L 3119 0 
L 2556 0 
L 2556 2019 
Q 2556 2363 2490 2533 
Q 2425 2703 2258 2804 
Q 2091 2906 1866 2906 
Q 1506 2906 1245 2678 
Q 984 2450 984 1813 
L 984 0 
L 422 0 
z
" transform="scale(0.015625)"/>
      </defs>
      <use xlink:href="#ArialMT-6c"/>
      <use xlink:href="#ArialMT-6f" x="22.216797"/>
      <use xlink:href="#ArialMT-63" x="77.832031"/>
      <use xlink:href="#ArialMT-61" x="127.832031"/>
      <use xlink:href="#ArialMT-74" x="183.447266"/>
      <use xlink:href="#ArialMT-69" x="211.230469"/>
      <use xlink:href="#ArialMT-6f" x="233.447266"/>
      <use xlink:href="#ArialMT-6e" x="289.0625"/>
     </g>
    </g>
   </g>
   <g id="matplotlib.axis_2">
    <g id="ytick_1">
     <g id="line2d_1">
      <path d="M 45.470877 316.446918 
L 373.533891 316.446918 
" clip-path="url(#p61e6c3cb38)" style="fill: none; stroke: #cccccc; stroke-width: 0.8; stroke-linecap: round"/>
     </g>
     <g id="text_4">
      <!-- 10 -->
      <g style="fill: #262626" transform="translate(27.349002 320.025825) scale(0.1 -0.1)">
       <defs>
        <path id="ArialMT-31" d="M 2384 0 
L 1822 0 
L 1822 3584 
Q 1619 3391 1289 3197 
Q 959 3003 697 2906 
L 697 3450 
Q 1169 3672 1522 3987 
Q 1875 4303 2022 4600 
L 2384 4600 
L 2384 0 
z
" transform="scale(0.015625)"/>
        <path id="ArialMT-30" d="M 266 2259 
Q 266 3072 433 3567 
Q 600 4063 929 4331 
Q 1259 4600 1759 4600 
Q 2128 4600 2406 4451 
Q 2684 4303 2865 4023 
Q 3047 3744 3150 3342 
Q 3253 2941 3253 2259 
Q 3253 1453 3087 958 
Q 2922 463 2592 192 
Q 2263 -78 1759 -78 
Q 1097 -78 719 397 
Q 266 969 266 2259 
z
M 844 2259 
Q 844 1131 1108 757 
Q 1372 384 1759 384 
Q 2147 384 2411 759 
Q 2675 1134 2675 2259 
Q 2675 3391 2411 3762 
Q 2147 4134 1753 4134 
Q 1366 4134 1134 3806 
Q 844 3388 844 2259 
z
" transform="scale(0.015625)"/>
       </defs>
       <use xlink:href="#ArialMT-31"/>
       <use xlink:href="#ArialMT-30" x="55.615234"/>
      </g>
     </g>
    </g>
    <g id="ytick_2">
     <g id="line2d_2">
      <path d="M 45.470877 262.069089 
L 373.533891 262.069089 
" clip-path="url(#p61e6c3cb38)" style="fill: none; stroke: #cccccc; stroke-width: 0.8; stroke-linecap: round"/>
     </g>
     <g id="text_5">
      <!-- 20 -->
      <g style="fill: #262626" transform="translate(27.349002 265.647995) scale(0.1 -0.1)">
       <defs>
        <path id="ArialMT-32" d="M 3222 541 
L 3222 0 
L 194 0 
Q 188 203 259 391 
Q 375 700 629 1000 
Q 884 1300 1366 1694 
Q 2113 2306 2375 2664 
Q 2638 3022 2638 3341 
Q 2638 3675 2398 3904 
Q 2159 4134 1775 4134 
Q 1369 4134 1125 3890 
Q 881 3647 878 3216 
L 300 3275 
Q 359 3922 746 4261 
Q 1134 4600 1788 4600 
Q 2447 4600 2831 4234 
Q 3216 3869 3216 3328 
Q 3216 3053 3103 2787 
Q 2991 2522 2730 2228 
Q 2469 1934 1863 1422 
Q 1356 997 1212 845 
Q 1069 694 975 541 
L 3222 541 
z
" transform="scale(0.015625)"/>
       </defs>
       <use xlink:href="#ArialMT-32"/>
       <use xlink:href="#ArialMT-30" x="55.615234"/>
      </g>
     </g>
    </g>
    <g id="ytick_3">
     <g id="line2d_3">
      <path d="M 45.470877 207.69126 
L 373.533891 207.69126 
" clip-path="url(#p61e6c3cb38)" style="fill: none; stroke: #cccccc; stroke-width: 0.8; stroke-linecap: round"/>
     </g>
     <g id="text_6">
      <!-- 30 -->
      <g style="fill: #262626" transform="translate(27.349002 211.270166) scale(0.1 -0.1)">
       <defs>
        <path id="ArialMT-33" d="M 269 1209 
L 831 1284 
Q 928 806 1161 595 
Q 1394 384 1728 384 
Q 2125 384 2398 659 
Q 2672 934 2672 1341 
Q 2672 1728 2419 1979 
Q 2166 2231 1775 2231 
Q 1616 2231 1378 2169 
L 1441 2663 
Q 1497 2656 1531 2656 
Q 1891 2656 2178 2843 
Q 2466 3031 2466 3422 
Q 2466 3731 2256 3934 
Q 2047 4138 1716 4138 
Q 1388 4138 1169 3931 
Q 950 3725 888 3313 
L 325 3413 
Q 428 3978 793 4289 
Q 1159 4600 1703 4600 
Q 2078 4600 2393 4439 
Q 2709 4278 2876 4000 
Q 3044 3722 3044 3409 
Q 3044 3113 2884 2869 
Q 2725 2625 2413 2481 
Q 2819 2388 3044 2092 
Q 3269 1797 3269 1353 
Q 3269 753 2831 336 
Q 2394 -81 1725 -81 
Q 1122 -81 723 278 
Q 325 638 269 1209 
z
" transform="scale(0.015625)"/>
       </defs>
       <use xlink:href="#ArialMT-33"/>
       <use xlink:href="#ArialMT-30" x="55.615234"/>
      </g>
     </g>
    </g>
    <g id="ytick_4">
     <g id="line2d_4">
      <path d="M 45.470877 153.313431 
L 373.533891 153.313431 
" clip-path="url(#p61e6c3cb38)" style="fill: none; stroke: #cccccc; stroke-width: 0.8; stroke-linecap: round"/>
     </g>
     <g id="text_7">
      <!-- 40 -->
      <g style="fill: #262626" transform="translate(27.349002 156.892337) scale(0.1 -0.1)">
       <defs>
        <path id="ArialMT-34" d="M 2069 0 
L 2069 1097 
L 81 1097 
L 81 1613 
L 2172 4581 
L 2631 4581 
L 2631 1613 
L 3250 1613 
L 3250 1097 
L 2631 1097 
L 2631 0 
L 2069 0 
z
M 2069 1613 
L 2069 3678 
L 634 1613 
L 2069 1613 
z
" transform="scale(0.015625)"/>
       </defs>
       <use xlink:href="#ArialMT-34"/>
       <use xlink:href="#ArialMT-30" x="55.615234"/>
      </g>
     </g>
    </g>
    <g id="ytick_5">
     <g id="line2d_5">
      <path d="M 45.470877 98.935602 
L 373.533891 98.935602 
" clip-path="url(#p61e6c3cb38)" style="fill: none; stroke: #cccccc; stroke-width: 0.8; stroke-linecap: round"/>
     </g>
     <g id="text_8">
      <!-- 50 -->
      <g style="fill: #262626" transform="translate(27.349002 102.514508) scale(0.1 -0.1)">
       <defs>
        <path id="ArialMT-35" d="M 266 1200 
L 856 1250 
Q 922 819 1161 601 
Q 1400 384 1738 384 
Q 2144 384 2425 690 
Q 2706 997 2706 1503 
Q 2706 1984 2436 2262 
Q 2166 2541 1728 2541 
Q 1456 2541 1237 2417 
Q 1019 2294 894 2097 
L 366 2166 
L 809 4519 
L 3088 4519 
L 3088 3981 
L 1259 3981 
L 1013 2750 
Q 1425 3038 1878 3038 
Q 2478 3038 2890 2622 
Q 3303 2206 3303 1553 
Q 3303 931 2941 478 
Q 2500 -78 1738 -78 
Q 1113 -78 717 272 
Q 322 622 266 1200 
z
" transform="scale(0.015625)"/>
       </defs>
       <use xlink:href="#ArialMT-35"/>
       <use xlink:href="#ArialMT-30" x="55.615234"/>
      </g>
     </g>
    </g>
    <g id="ytick_6">
     <g id="line2d_6">
      <path d="M 45.470877 44.557773 
L 373.533891 44.557773 
" clip-path="url(#p61e6c3cb38)" style="fill: none; stroke: #cccccc; stroke-width: 0.8; stroke-linecap: round"/>
     </g>
     <g id="text_9">
      <!-- 60 -->
      <g style="fill: #262626" transform="translate(27.349002 48.136679) scale(0.1 -0.1)">
       <defs>
        <path id="ArialMT-36" d="M 3184 3459 
L 2625 3416 
Q 2550 3747 2413 3897 
Q 2184 4138 1850 4138 
Q 1581 4138 1378 3988 
Q 1113 3794 959 3422 
Q 806 3050 800 2363 
Q 1003 2672 1297 2822 
Q 1591 2972 1913 2972 
Q 2475 2972 2870 2558 
Q 3266 2144 3266 1488 
Q 3266 1056 3080 686 
Q 2894 316 2569 119 
Q 2244 -78 1831 -78 
Q 1128 -78 684 439 
Q 241 956 241 2144 
Q 241 3472 731 4075 
Q 1159 4600 1884 4600 
Q 2425 4600 2770 4297 
Q 3116 3994 3184 3459 
z
M 888 1484 
Q 888 1194 1011 928 
Q 1134 663 1356 523 
Q 1578 384 1822 384 
Q 2178 384 2434 671 
Q 2691 959 2691 1453 
Q 2691 1928 2437 2201 
Q 2184 2475 1800 2475 
Q 1419 2475 1153 2201 
Q 888 1928 888 1484 
z
" transform="scale(0.015625)"/>
       </defs>
       <use xlink:href="#ArialMT-36"/>
       <use xlink:href="#ArialMT-30" x="55.615234"/>
      </g>
     </g>
    </g>
    <g id="text_10">
     <!-- vo2eq -->
     <g style="fill: #262626" transform="translate(21.361502 185.001875) rotate(-90) scale(0.1 -0.1)">
      <defs>
       <path id="ArialMT-65" d="M 2694 1069 
L 3275 997 
Q 3138 488 2766 206 
Q 2394 -75 1816 -75 
Q 1088 -75 661 373 
Q 234 822 234 1631 
Q 234 2469 665 2931 
Q 1097 3394 1784 3394 
Q 2450 3394 2872 2941 
Q 3294 2488 3294 1666 
Q 3294 1616 3291 1516 
L 816 1516 
Q 847 969 1125 678 
Q 1403 388 1819 388 
Q 2128 388 2347 550 
Q 2566 713 2694 1069 
z
M 847 1978 
L 2700 1978 
Q 2663 2397 2488 2606 
Q 2219 2931 1791 2931 
Q 1403 2931 1139 2672 
Q 875 2413 847 1978 
z
" transform="scale(0.015625)"/>
       <path id="ArialMT-71" d="M 2538 -1272 
L 2538 353 
Q 2406 169 2170 47 
Q 1934 -75 1669 -75 
Q 1078 -75 651 397 
Q 225 869 225 1691 
Q 225 2191 398 2587 
Q 572 2984 901 3189 
Q 1231 3394 1625 3394 
Q 2241 3394 2594 2875 
L 2594 3319 
L 3100 3319 
L 3100 -1272 
L 2538 -1272 
z
M 803 1669 
Q 803 1028 1072 708 
Q 1341 388 1716 388 
Q 2075 388 2334 692 
Q 2594 997 2594 1619 
Q 2594 2281 2320 2615 
Q 2047 2950 1678 2950 
Q 1313 2950 1058 2639 
Q 803 2328 803 1669 
z
" transform="scale(0.015625)"/>
      </defs>
      <use xlink:href="#ArialMT-76"/>
      <use xlink:href="#ArialMT-6f" x="50"/>
      <use xlink:href="#ArialMT-32" x="105.615234"/>
      <use xlink:href="#ArialMT-65" x="161.230469"/>
      <use xlink:href="#ArialMT-71" x="216.845703"/>
     </g>
    </g>
   </g>
   <g id="PolyCollection_1">
    <defs>
     <path id="mc5c88cca1a" d="M 95.776433 -66.602215 
L 93.584226 -66.602215 
L 93.390778 -67.864152 
L 93.173486 -69.126089 
L 92.931511 -70.388027 
L 92.664402 -71.649964 
L 92.372169 -72.911902 
L 92.055339 -74.173839 
L 91.715014 -75.435776 
L 91.352896 -76.697714 
L 90.971303 -77.959651 
L 90.573159 -79.221588 
L 90.161952 -80.483526 
L 89.741669 -81.745463 
L 89.316697 -83.0074 
L 88.891696 -84.269338 
L 88.471445 -85.531275 
L 88.060666 -86.793212 
L 87.663831 -88.05515 
L 87.284957 -89.317087 
L 86.927399 -90.579024 
L 86.593651 -91.840962 
L 86.285168 -93.102899 
L 86.002204 -94.364836 
L 85.743696 -95.626774 
L 85.507188 -96.888711 
L 85.288804 -98.150648 
L 85.083279 -99.412586 
L 84.884047 -100.674523 
L 84.683389 -101.93646 
L 84.472635 -103.198398 
L 84.242418 -104.460335 
L 83.98297 -105.722272 
L 83.684457 -106.98421 
L 83.337327 -108.246147 
L 82.932679 -109.508084 
L 82.462617 -110.770022 
L 81.920592 -112.031959 
L 81.301709 -113.293896 
L 80.602993 -114.555834 
L 79.823594 -115.817771 
L 78.964928 -117.079708 
L 78.030753 -118.341646 
L 77.027161 -119.603583 
L 75.962498 -120.86552 
L 74.847209 -122.127458 
L 73.693613 -123.389395 
L 72.51562 -124.651332 
L 71.328393 -125.91327 
L 70.147974 -127.175207 
L 68.990883 -128.437144 
L 67.873709 -129.699082 
L 66.812703 -130.961019 
L 65.823386 -132.222956 
L 64.920199 -133.484894 
L 64.116177 -134.746831 
L 63.422696 -136.008768 
L 62.849254 -137.270706 
L 62.403337 -138.532643 
L 62.09033 -139.79458 
L 61.913499 -141.056518 
L 61.874028 -142.318455 
L 61.971106 -143.580393 
L 62.202059 -144.84233 
L 62.562519 -146.104267 
L 63.046618 -147.366205 
L 63.647192 -148.628142 
L 64.356005 -149.890079 
L 65.163961 -151.152017 
L 66.061315 -152.413954 
L 67.037868 -153.675891 
L 68.083145 -154.937829 
L 69.18656 -156.199766 
L 70.33755 -157.461703 
L 71.525698 -158.723641 
L 72.740837 -159.985578 
L 73.973135 -161.247515 
L 75.213166 -162.509453 
L 76.451973 -163.77139 
L 77.681123 -165.033327 
L 78.892748 -166.295265 
L 80.079593 -167.557202 
L 81.235047 -168.819139 
L 82.35318 -170.081077 
L 83.428769 -171.343014 
L 84.457323 -172.604951 
L 85.435096 -173.866889 
L 86.359101 -175.128826 
L 87.227106 -176.390763 
L 88.037624 -177.652701 
L 88.789894 -178.914638 
L 89.483845 -180.176575 
L 90.120057 -181.438513 
L 90.699705 -182.70045 
L 91.2245 -183.962387 
L 91.696616 -185.224325 
L 92.118618 -186.486262 
L 92.493387 -187.748199 
L 92.824038 -189.010137 
L 93.113846 -190.272074 
L 93.366172 -191.534011 
L 95.994487 -191.534011 
L 95.994487 -191.534011 
L 96.246814 -190.272074 
L 96.536621 -189.010137 
L 96.867272 -187.748199 
L 97.242041 -186.486262 
L 97.664043 -185.224325 
L 98.136159 -183.962387 
L 98.660954 -182.70045 
L 99.240603 -181.438513 
L 99.876815 -180.176575 
L 100.570765 -178.914638 
L 101.323035 -177.652701 
L 102.133553 -176.390763 
L 103.001558 -175.128826 
L 103.925563 -173.866889 
L 104.903336 -172.604951 
L 105.93189 -171.343014 
L 107.007479 -170.081077 
L 108.125612 -168.819139 
L 109.281066 -167.557202 
L 110.467911 -166.295265 
L 111.679537 -165.033327 
L 112.908686 -163.77139 
L 114.147494 -162.509453 
L 115.387524 -161.247515 
L 116.619822 -159.985578 
L 117.834962 -158.723641 
L 119.02311 -157.461703 
L 120.174099 -156.199766 
L 121.277514 -154.937829 
L 122.322792 -153.675891 
L 123.299344 -152.413954 
L 124.196698 -151.152017 
L 125.004655 -149.890079 
L 125.713468 -148.628142 
L 126.314042 -147.366205 
L 126.79814 -146.104267 
L 127.1586 -144.84233 
L 127.389553 -143.580393 
L 127.486631 -142.318455 
L 127.44716 -141.056518 
L 127.270329 -139.79458 
L 126.957322 -138.532643 
L 126.511405 -137.270706 
L 125.937964 -136.008768 
L 125.244482 -134.746831 
L 124.440461 -133.484894 
L 123.537273 -132.222956 
L 122.547957 -130.961019 
L 121.48695 -129.699082 
L 120.369776 -128.437144 
L 119.212685 -127.175207 
L 118.032266 -125.91327 
L 116.845039 -124.651332 
L 115.667046 -123.389395 
L 114.51345 -122.127458 
L 113.398161 -120.86552 
L 112.333498 -119.603583 
L 111.329906 -118.341646 
L 110.395732 -117.079708 
L 109.537066 -115.817771 
L 108.757666 -114.555834 
L 108.05895 -113.293896 
L 107.440067 -112.031959 
L 106.898042 -110.770022 
L 106.42798 -109.508084 
L 106.023332 -108.246147 
L 105.676202 -106.98421 
L 105.377689 -105.722272 
L 105.118241 -104.460335 
L 104.888024 -103.198398 
L 104.67727 -101.93646 
L 104.476612 -100.674523 
L 104.277381 -99.412586 
L 104.071856 -98.150648 
L 103.853471 -96.888711 
L 103.616963 -95.626774 
L 103.358456 -94.364836 
L 103.075491 -93.102899 
L 102.767008 -91.840962 
L 102.43326 -90.579024 
L 102.075702 -89.317087 
L 101.696828 -88.05515 
L 101.299993 -86.793212 
L 100.889215 -85.531275 
L 100.468964 -84.269338 
L 100.043962 -83.0074 
L 99.61899 -81.745463 
L 99.198707 -80.483526 
L 98.787501 -79.221588 
L 98.389356 -77.959651 
L 98.007763 -76.697714 
L 97.645645 -75.435776 
L 97.30532 -74.173839 
L 96.988491 -72.911902 
L 96.696257 -71.649964 
L 96.429148 -70.388027 
L 96.187173 -69.126089 
L 95.969882 -67.864152 
L 95.776433 -66.602215 
z
" style="stroke: #3f3f3f; stroke-width: 1.25"/>
    </defs>
    <g clip-path="url(#p61e6c3cb38)">
     <use xlink:href="#mc5c88cca1a" x="0" y="360" style="fill: #3274a1; stroke: #3f3f3f; stroke-width: 1.25"/>
    </g>
   </g>
   <g id="PolyCollection_2">
    <defs>
     <path id="m283fa375d4" d="M 161.570715 -60.270061 
L 159.01515 -60.270061 
L 158.797283 -61.866546 
L 158.552624 -63.463032 
L 158.279831 -65.059517 
L 157.977833 -66.656002 
L 157.645878 -68.252488 
L 157.283581 -69.848973 
L 156.890956 -71.445459 
L 156.468444 -73.041944 
L 156.016925 -74.638429 
L 155.537706 -76.234915 
L 155.032503 -77.8314 
L 154.503396 -79.427885 
L 153.952771 -81.024371 
L 153.383242 -82.620856 
L 152.797558 -84.217341 
L 152.198505 -85.813827 
L 151.588794 -87.410312 
L 150.970954 -89.006798 
L 150.347227 -90.603283 
L 149.719473 -92.199768 
L 149.089097 -93.796254 
L 148.456988 -95.392739 
L 147.823496 -96.989224 
L 147.188434 -98.58571 
L 146.551109 -100.182195 
L 145.91039 -101.77868 
L 145.264801 -103.375166 
L 144.612644 -104.971651 
L 143.952142 -106.568137 
L 143.281592 -108.164622 
L 142.599527 -109.761107 
L 141.904873 -111.357593 
L 141.19709 -112.954078 
L 140.4763 -114.550563 
L 139.743378 -116.147049 
L 139.000008 -117.743534 
L 138.248707 -119.340019 
L 137.492796 -120.936505 
L 136.73634 -122.53299 
L 135.98404 -124.129476 
L 135.241099 -125.725961 
L 134.513061 -127.322446 
L 133.805621 -128.918932 
L 133.124449 -130.515417 
L 132.474992 -132.111902 
L 131.862314 -133.708388 
L 131.290937 -135.304873 
L 130.76473 -136.901358 
L 130.286827 -138.497844 
L 129.859592 -140.094329 
L 129.48462 -141.690815 
L 129.162789 -143.2873 
L 128.894348 -144.883785 
L 128.679032 -146.480271 
L 128.516208 -148.076756 
L 128.405033 -149.673241 
L 128.344616 -151.269727 
L 128.334173 -152.866212 
L 128.373165 -154.462697 
L 128.461411 -156.059183 
L 128.59916 -157.655668 
L 128.787135 -159.252154 
L 129.02652 -160.848639 
L 129.318909 -162.445124 
L 129.66622 -164.04161 
L 130.070558 -165.638095 
L 130.53406 -167.23458 
L 131.058712 -168.831066 
L 131.646159 -170.427551 
L 132.297512 -172.024036 
L 133.013168 -173.620522 
L 133.792655 -175.217007 
L 134.634498 -176.813493 
L 135.536133 -178.409978 
L 136.493863 -180.006463 
L 137.502859 -181.602949 
L 138.557205 -183.199434 
L 139.650001 -184.795919 
L 140.773491 -186.392405 
L 141.919239 -187.98889 
L 143.078324 -189.585375 
L 144.241561 -191.181861 
L 145.399717 -192.778346 
L 146.543743 -194.374832 
L 147.66498 -195.971317 
L 148.755355 -197.567802 
L 149.807552 -199.164288 
L 150.815144 -200.760773 
L 151.772699 -202.357258 
L 152.675849 -203.953744 
L 153.521313 -205.550229 
L 154.3069 -207.146714 
L 155.031469 -208.7432 
L 155.694863 -210.339685 
L 156.29783 -211.936171 
L 156.841911 -213.532656 
L 157.32933 -215.129141 
L 157.762868 -216.725627 
L 158.145743 -218.322112 
L 162.440121 -218.322112 
L 162.440121 -218.322112 
L 162.822997 -216.725627 
L 163.256535 -215.129141 
L 163.743954 -213.532656 
L 164.288035 -211.936171 
L 164.891002 -210.339685 
L 165.554396 -208.7432 
L 166.278964 -207.146714 
L 167.064551 -205.550229 
L 167.910016 -203.953744 
L 168.813165 -202.357258 
L 169.770721 -200.760773 
L 170.778313 -199.164288 
L 171.83051 -197.567802 
L 172.920885 -195.971317 
L 174.042122 -194.374832 
L 175.186147 -192.778346 
L 176.344304 -191.181861 
L 177.50754 -189.585375 
L 178.666626 -187.98889 
L 179.812374 -186.392405 
L 180.935864 -184.795919 
L 182.028659 -183.199434 
L 183.083006 -181.602949 
L 184.092001 -180.006463 
L 185.049732 -178.409978 
L 185.951367 -176.813493 
L 186.79321 -175.217007 
L 187.572696 -173.620522 
L 188.288353 -172.024036 
L 188.939706 -170.427551 
L 189.527153 -168.831066 
L 190.051805 -167.23458 
L 190.515307 -165.638095 
L 190.919645 -164.04161 
L 191.266956 -162.445124 
L 191.559345 -160.848639 
L 191.798729 -159.252154 
L 191.986704 -157.655668 
L 192.124454 -156.059183 
L 192.2127 -154.462697 
L 192.251692 -152.866212 
L 192.241249 -151.269727 
L 192.180832 -149.673241 
L 192.069657 -148.076756 
L 191.906833 -146.480271 
L 191.691516 -144.883785 
L 191.423075 -143.2873 
L 191.101245 -141.690815 
L 190.726273 -140.094329 
L 190.299037 -138.497844 
L 189.821135 -136.901358 
L 189.294928 -135.304873 
L 188.723551 -133.708388 
L 188.110872 -132.111902 
L 187.461416 -130.515417 
L 186.780243 -128.918932 
L 186.072804 -127.322446 
L 185.344765 -125.725961 
L 184.601825 -124.129476 
L 183.849525 -122.53299 
L 183.093068 -120.936505 
L 182.337158 -119.340019 
L 181.585857 -117.743534 
L 180.842487 -116.147049 
L 180.109565 -114.550563 
L 179.388775 -112.954078 
L 178.680992 -111.357593 
L 177.986337 -109.761107 
L 177.304272 -108.164622 
L 176.633723 -106.568137 
L 175.973221 -104.971651 
L 175.321064 -103.375166 
L 174.675475 -101.77868 
L 174.034755 -100.182195 
L 173.39743 -98.58571 
L 172.762369 -96.989224 
L 172.128877 -95.392739 
L 171.496768 -93.796254 
L 170.866391 -92.199768 
L 170.238638 -90.603283 
L 169.614911 -89.006798 
L 168.997071 -87.410312 
L 168.38736 -85.813827 
L 167.788307 -84.217341 
L 167.202623 -82.620856 
L 166.633094 -81.024371 
L 166.082469 -79.427885 
L 165.553362 -77.8314 
L 165.048159 -76.234915 
L 164.56894 -74.638429 
L 164.11742 -73.041944 
L 163.694909 -71.445459 
L 163.302284 -69.848973 
L 162.939987 -68.252488 
L 162.608032 -66.656002 
L 162.306034 -65.059517 
L 162.033241 -63.463032 
L 161.788582 -61.866546 
L 161.570715 -60.270061 
z
" style="stroke: #3f3f3f; stroke-width: 1.25"/>
    </defs>
    <g clip-path="url(#p61e6c3cb38)">
     <use xlink:href="#m283fa375d4" x="0" y="360" style="fill: #e1812c; stroke: #3f3f3f; stroke-width: 1.25"/>
    </g>
   </g>
   <g id="PolyCollection_3">
    <defs>
     <path id="m2b56f6a917" d="M 259.52286 -96.595837 
L 257.900813 -96.595837 
L 257.733153 -98.872114 
L 257.538039 -101.148391 
L 257.312602 -103.424668 
L 257.054008 -105.700945 
L 256.759541 -107.977222 
L 256.42669 -110.2535 
L 256.053249 -112.529777 
L 255.637422 -114.806054 
L 255.177927 -117.082331 
L 254.674109 -119.358608 
L 254.126038 -121.634885 
L 253.534602 -123.911162 
L 252.901588 -126.18744 
L 252.229736 -128.463717 
L 251.522779 -130.739994 
L 250.785451 -133.016271 
L 250.023461 -135.292548 
L 249.24344 -137.568825 
L 248.452854 -139.845102 
L 247.65988 -142.121379 
L 246.873262 -144.397657 
L 246.102129 -146.673934 
L 245.355802 -148.950211 
L 244.643582 -151.226488 
L 243.974531 -153.502765 
L 243.357261 -155.779042 
L 242.799717 -158.055319 
L 242.308995 -160.331596 
L 241.891169 -162.607874 
L 241.551154 -164.884151 
L 241.292604 -167.160428 
L 241.117844 -169.436705 
L 241.027837 -171.712982 
L 241.022194 -173.989259 
L 241.099217 -176.265536 
L 241.255967 -178.541814 
L 241.488369 -180.818091 
L 241.79133 -183.094368 
L 242.15887 -185.370645 
L 242.584271 -187.646922 
L 243.060226 -189.923199 
L 243.578982 -192.199476 
L 244.132489 -194.475753 
L 244.712535 -196.752031 
L 245.310875 -199.028308 
L 245.919354 -201.304585 
L 246.530016 -203.580862 
L 247.135212 -205.857139 
L 247.727694 -208.133416 
L 248.300712 -210.409693 
L 248.848096 -212.68597 
L 249.364343 -214.962248 
L 249.844692 -217.238525 
L 250.285196 -219.514802 
L 250.682786 -221.791079 
L 251.035324 -224.067356 
L 251.341642 -226.343633 
L 251.601568 -228.61991 
L 251.815928 -230.896188 
L 251.986533 -233.172465 
L 252.116133 -235.448742 
L 252.208358 -237.725019 
L 252.267618 -240.001296 
L 252.298997 -242.277573 
L 252.30811 -244.55385 
L 252.300951 -246.830127 
L 252.283723 -249.106405 
L 252.262662 -251.382682 
L 252.243857 -253.658959 
L 252.233081 -255.935236 
L 252.23562 -258.211513 
L 252.256137 -260.48779 
L 252.298543 -262.764067 
L 252.36591 -265.040344 
L 252.460397 -267.316622 
L 252.58323 -269.592899 
L 252.734698 -271.869176 
L 252.914189 -274.145453 
L 253.120256 -276.42173 
L 253.350704 -278.698007 
L 253.602705 -280.974284 
L 253.872922 -283.250562 
L 254.157647 -285.526839 
L 254.452941 -287.803116 
L 254.754773 -290.079393 
L 255.05915 -292.35567 
L 255.362235 -294.631947 
L 255.660451 -296.908224 
L 255.950562 -299.184501 
L 256.229741 -301.460779 
L 256.495613 -303.737056 
L 256.746275 -306.013333 
L 256.980302 -308.28961 
L 257.196736 -310.565887 
L 257.395058 -312.842164 
L 257.575147 -315.118441 
L 257.737239 -317.394718 
L 257.88187 -319.670996 
L 258.009823 -321.947273 
L 259.41385 -321.947273 
L 259.41385 -321.947273 
L 259.541803 -319.670996 
L 259.686434 -317.394718 
L 259.848526 -315.118441 
L 260.028615 -312.842164 
L 260.226937 -310.565887 
L 260.443371 -308.28961 
L 260.677398 -306.013333 
L 260.92806 -303.737056 
L 261.193932 -301.460779 
L 261.473112 -299.184501 
L 261.763223 -296.908224 
L 262.061438 -294.631947 
L 262.364523 -292.35567 
L 262.6689 -290.079393 
L 262.970732 -287.803116 
L 263.266027 -285.526839 
L 263.550751 -283.250562 
L 263.820968 -280.974284 
L 264.072969 -278.698007 
L 264.303417 -276.42173 
L 264.509484 -274.145453 
L 264.688975 -271.869176 
L 264.840443 -269.592899 
L 264.963276 -267.316622 
L 265.057764 -265.040344 
L 265.12513 -262.764067 
L 265.167537 -260.48779 
L 265.188053 -258.211513 
L 265.190593 -255.935236 
L 265.179816 -253.658959 
L 265.161011 -251.382682 
L 265.13995 -249.106405 
L 265.122722 -246.830127 
L 265.115563 -244.55385 
L 265.124676 -242.277573 
L 265.156055 -240.001296 
L 265.215315 -237.725019 
L 265.30754 -235.448742 
L 265.437141 -233.172465 
L 265.607745 -230.896188 
L 265.822106 -228.61991 
L 266.082031 -226.343633 
L 266.388349 -224.067356 
L 266.740887 -221.791079 
L 267.138477 -219.514802 
L 267.578981 -217.238525 
L 268.05933 -214.962248 
L 268.575577 -212.68597 
L 269.122961 -210.409693 
L 269.695979 -208.133416 
L 270.288461 -205.857139 
L 270.893657 -203.580862 
L 271.504319 -201.304585 
L 272.112798 -199.028308 
L 272.711138 -196.752031 
L 273.291184 -194.475753 
L 273.844691 -192.199476 
L 274.363447 -189.923199 
L 274.839402 -187.646922 
L 275.264804 -185.370645 
L 275.632343 -183.094368 
L 275.935304 -180.818091 
L 276.167706 -178.541814 
L 276.324457 -176.265536 
L 276.401479 -173.989259 
L 276.395836 -171.712982 
L 276.305829 -169.436705 
L 276.131069 -167.160428 
L 275.872519 -164.884151 
L 275.532505 -162.607874 
L 275.114678 -160.331596 
L 274.623956 -158.055319 
L 274.066412 -155.779042 
L 273.449142 -153.502765 
L 272.780092 -151.226488 
L 272.067871 -148.950211 
L 271.321544 -146.673934 
L 270.550411 -144.397657 
L 269.763793 -142.121379 
L 268.970819 -139.845102 
L 268.180233 -137.568825 
L 267.400212 -135.292548 
L 266.638222 -133.016271 
L 265.900894 -130.739994 
L 265.193938 -128.463717 
L 264.522086 -126.18744 
L 263.889071 -123.911162 
L 263.297635 -121.634885 
L 262.749564 -119.358608 
L 262.245746 -117.082331 
L 261.786252 -114.806054 
L 261.370424 -112.529777 
L 260.996983 -110.2535 
L 260.664132 -107.977222 
L 260.369665 -105.700945 
L 260.111072 -103.424668 
L 259.885634 -101.148391 
L 259.690521 -98.872114 
L 259.52286 -96.595837 
z
" style="stroke: #3f3f3f; stroke-width: 1.25"/>
    </defs>
    <g clip-path="url(#p61e6c3cb38)">
     <use xlink:href="#m2b56f6a917" x="0" y="360" style="fill: #3274a1; stroke: #3f3f3f; stroke-width: 1.25"/>
    </g>
   </g>
   <g id="PolyCollection_4">
    <defs>
     <path id="m6081114927" d="M 325.499196 -55.292727 
L 323.149683 -55.292727 
L 322.898313 -57.128801 
L 322.606494 -58.964876 
L 322.27078 -60.80095 
L 321.888059 -62.637024 
L 321.455685 -64.473098 
L 320.971618 -66.309172 
L 320.43454 -68.145246 
L 319.843963 -69.981321 
L 319.200308 -71.817395 
L 318.504949 -73.653469 
L 317.760219 -75.489543 
L 316.96937 -77.325617 
L 316.136491 -79.161691 
L 315.266375 -80.997765 
L 314.364355 -82.83384 
L 313.436099 -84.669914 
L 312.487395 -86.505988 
L 311.523922 -88.342062 
L 310.551031 -90.178136 
L 309.573552 -92.01421 
L 308.595638 -93.850285 
L 307.620666 -95.686359 
L 306.651191 -97.522433 
L 305.68898 -99.358507 
L 304.735108 -101.194581 
L 303.790119 -103.030655 
L 302.854245 -104.866729 
L 301.927671 -106.702804 
L 301.010815 -108.538878 
L 300.10462 -110.374952 
L 299.210824 -112.211026 
L 298.332195 -114.0471 
L 297.472705 -115.883174 
L 296.637638 -117.719249 
L 295.833603 -119.555323 
L 295.06847 -121.391397 
L 294.351211 -123.227471 
L 293.691662 -125.063545 
L 293.10021 -126.899619 
L 292.587427 -128.735693 
L 292.163667 -130.571768 
L 291.838654 -132.407842 
L 291.621061 -134.243916 
L 291.518138 -136.07999 
L 291.535367 -137.916064 
L 291.676192 -139.752138 
L 291.94182 -141.588213 
L 292.331105 -143.424287 
L 292.840518 -145.260361 
L 293.464208 -147.096435 
L 294.194137 -148.932509 
L 295.020303 -150.768583 
L 295.93101 -152.604657 
L 296.913206 -154.440732 
L 297.952848 -156.276806 
L 299.035298 -158.11288 
L 300.145722 -159.948954 
L 301.269495 -161.785028 
L 302.392579 -163.621102 
L 303.501881 -165.457177 
L 304.585563 -167.293251 
L 305.633313 -169.129325 
L 306.636558 -170.965399 
L 307.588608 -172.801473 
L 308.484751 -174.637547 
L 309.322262 -176.473621 
L 310.10036 -178.309696 
L 310.820093 -180.14577 
L 311.484161 -181.981844 
L 312.096693 -183.817918 
L 312.662972 -185.653992 
L 313.189137 -187.490066 
L 313.681852 -189.326141 
L 314.147984 -191.162215 
L 314.594283 -192.998289 
L 315.02708 -194.834363 
L 315.452039 -196.670437 
L 315.873931 -198.506511 
L 316.296491 -200.342585 
L 316.722312 -202.17866 
L 317.152817 -204.014734 
L 317.588287 -205.850808 
L 318.027942 -207.686882 
L 318.470072 -209.522956 
L 318.912205 -211.35903 
L 319.351301 -213.195105 
L 319.783953 -215.031179 
L 320.206598 -216.867253 
L 320.615706 -218.703327 
L 321.007958 -220.539401 
L 321.380389 -222.375475 
L 321.730504 -224.211549 
L 322.056353 -226.047624 
L 322.356577 -227.883698 
L 322.630412 -229.719772 
L 322.877672 -231.555846 
L 323.098704 -233.39192 
L 323.294324 -235.227994 
L 323.465737 -237.064069 
L 325.183142 -237.064069 
L 325.183142 -237.064069 
L 325.354555 -235.227994 
L 325.550174 -233.39192 
L 325.771207 -231.555846 
L 326.018467 -229.719772 
L 326.292302 -227.883698 
L 326.592526 -226.047624 
L 326.918375 -224.211549 
L 327.26849 -222.375475 
L 327.640921 -220.539401 
L 328.033173 -218.703327 
L 328.442281 -216.867253 
L 328.864925 -215.031179 
L 329.297578 -213.195105 
L 329.736674 -211.35903 
L 330.178807 -209.522956 
L 330.620937 -207.686882 
L 331.060592 -205.850808 
L 331.496062 -204.014734 
L 331.926567 -202.17866 
L 332.352388 -200.342585 
L 332.774947 -198.506511 
L 333.19684 -196.670437 
L 333.621798 -194.834363 
L 334.054596 -192.998289 
L 334.500894 -191.162215 
L 334.967027 -189.326141 
L 335.459742 -187.490066 
L 335.985906 -185.653992 
L 336.552186 -183.817918 
L 337.164718 -181.981844 
L 337.828786 -180.14577 
L 338.548518 -178.309696 
L 339.326617 -176.473621 
L 340.164128 -174.637547 
L 341.06027 -172.801473 
L 342.012321 -170.965399 
L 343.015566 -169.129325 
L 344.063316 -167.293251 
L 345.146998 -165.457177 
L 346.2563 -163.621102 
L 347.379384 -161.785028 
L 348.503157 -159.948954 
L 349.613581 -158.11288 
L 350.69603 -156.276806 
L 351.735672 -154.440732 
L 352.717868 -152.604657 
L 353.628576 -150.768583 
L 354.454741 -148.932509 
L 355.184671 -147.096435 
L 355.80836 -145.260361 
L 356.317774 -143.424287 
L 356.707058 -141.588213 
L 356.972687 -139.752138 
L 357.113512 -137.916064 
L 357.130741 -136.07999 
L 357.027818 -134.243916 
L 356.810225 -132.407842 
L 356.485211 -130.571768 
L 356.061452 -128.735693 
L 355.548669 -126.899619 
L 354.957217 -125.063545 
L 354.297668 -123.227471 
L 353.580409 -121.391397 
L 352.815276 -119.555323 
L 352.011241 -117.719249 
L 351.176173 -115.883174 
L 350.316684 -114.0471 
L 349.438055 -112.211026 
L 348.544259 -110.374952 
L 347.638064 -108.538878 
L 346.721208 -106.702804 
L 345.794634 -104.866729 
L 344.85876 -103.030655 
L 343.913771 -101.194581 
L 342.959898 -99.358507 
L 341.997688 -97.522433 
L 341.028213 -95.686359 
L 340.053241 -93.850285 
L 339.075327 -92.01421 
L 338.097848 -90.178136 
L 337.124957 -88.342062 
L 336.161484 -86.505988 
L 335.21278 -84.669914 
L 334.284524 -82.83384 
L 333.382504 -80.997765 
L 332.512388 -79.161691 
L 331.679509 -77.325617 
L 330.88866 -75.489543 
L 330.14393 -73.653469 
L 329.44857 -71.817395 
L 328.804915 -69.981321 
L 328.214338 -68.145246 
L 327.67726 -66.309172 
L 327.193193 -64.473098 
L 326.76082 -62.637024 
L 326.378099 -60.80095 
L 326.042385 -58.964876 
L 325.750566 -57.128801 
L 325.499196 -55.292727 
z
" style="stroke: #3f3f3f; stroke-width: 1.25"/>
    </defs>
    <g clip-path="url(#p61e6c3cb38)">
     <use xlink:href="#m6081114927" x="0" y="360" style="fill: #e1812c; stroke: #3f3f3f; stroke-width: 1.25"/>
    </g>
   </g>
   <g id="line2d_7">
    <path d="M 94.68033 228.361296 
L 94.68033 198.926762 
" clip-path="url(#p61e6c3cb38)" style="fill: none; stroke: #3f3f3f; stroke-width: 1.875; stroke-linecap: round"/>
   </g>
   <g id="line2d_8">
    <path d="M 94.68033 227.579101 
L 94.68033 212.656965 
" clip-path="url(#p61e6c3cb38)" style="fill: none; stroke: #3f3f3f; stroke-width: 5.625; stroke-linecap: round"/>
   </g>
   <g id="line2d_9">
    <path d="M 94.68033 221.425638 
" clip-path="url(#p61e6c3cb38)" style="fill: none; stroke: #3f3f3f; stroke-width: 1.5; stroke-linecap: round"/>
    <defs>
     <path id="m45c241a56c" d="M 2.34375 0 
L -2.34375 -0 
" style="stroke: #ffffff; stroke-width: 1.125"/>
    </defs>
    <g clip-path="url(#p61e6c3cb38)">
     <use xlink:href="#m45c241a56c" x="94.68033" y="221.425638" style="fill: #ffffff; stroke: #ffffff; stroke-width: 1.125"/>
    </g>
   </g>
   <g id="line2d_10">
    <path d="M 160.292932 259.363453 
L 160.292932 182.044374 
" clip-path="url(#p61e6c3cb38)" style="fill: none; stroke: #3f3f3f; stroke-width: 1.875; stroke-linecap: round"/>
   </g>
   <g id="line2d_11">
    <path d="M 160.292932 226.319683 
L 160.292932 191.072487 
" clip-path="url(#p61e6c3cb38)" style="fill: none; stroke: #3f3f3f; stroke-width: 5.625; stroke-linecap: round"/>
   </g>
   <g id="line2d_12">
    <path d="M 160.292932 213.723839 
" clip-path="url(#p61e6c3cb38)" style="fill: none; stroke: #3f3f3f; stroke-width: 1.5; stroke-linecap: round"/>
    <g clip-path="url(#p61e6c3cb38)">
     <use xlink:href="#m45c241a56c" x="160.292932" y="213.723839" style="fill: #ffffff; stroke: #ffffff; stroke-width: 1.125"/>
    </g>
   </g>
   <g id="line2d_13">
    <path d="M 258.711837 208.404786 
L 258.711837 158.256216 
" clip-path="url(#p61e6c3cb38)" style="fill: none; stroke: #3f3f3f; stroke-width: 1.875; stroke-linecap: round"/>
   </g>
   <g id="line2d_14">
    <path d="M 258.711837 191.045959 
L 258.711837 158.256216 
" clip-path="url(#p61e6c3cb38)" style="fill: none; stroke: #3f3f3f; stroke-width: 5.625; stroke-linecap: round"/>
   </g>
   <g id="line2d_15">
    <path d="M 258.711837 189.73174 
" clip-path="url(#p61e6c3cb38)" style="fill: none; stroke: #3f3f3f; stroke-width: 1.5; stroke-linecap: round"/>
    <g clip-path="url(#p61e6c3cb38)">
     <use xlink:href="#m45c241a56c" x="258.711837" y="189.73174" style="fill: #ffffff; stroke: #ffffff; stroke-width: 1.125"/>
    </g>
   </g>
   <g id="line2d_16">
    <path d="M 324.324439 264.818632 
L 324.324439 194.056894 
" clip-path="url(#p61e6c3cb38)" style="fill: none; stroke: #3f3f3f; stroke-width: 1.875; stroke-linecap: round"/>
   </g>
   <g id="line2d_17">
    <path d="M 324.324439 234.255987 
L 324.324439 212.33032 
" clip-path="url(#p61e6c3cb38)" style="fill: none; stroke: #3f3f3f; stroke-width: 5.625; stroke-linecap: round"/>
   </g>
   <g id="line2d_18">
    <path d="M 324.324439 221.776288 
" clip-path="url(#p61e6c3cb38)" style="fill: none; stroke: #3f3f3f; stroke-width: 1.5; stroke-linecap: round"/>
    <g clip-path="url(#p61e6c3cb38)">
     <use xlink:href="#m45c241a56c" x="324.324439" y="221.776288" style="fill: #ffffff; stroke: #ffffff; stroke-width: 1.125"/>
    </g>
   </g>
   <g id="patch_3">
    <path d="M 45.470877 318.04 
L 45.470877 24.72 
" style="fill: none; stroke: #cccccc; stroke-width: 0.8; stroke-linejoin: miter; stroke-linecap: square"/>
   </g>
   <g id="patch_4">
    <path d="M 45.470878 318.04 
L 373.533891 318.04 
" style="fill: none; stroke: #cccccc; stroke-width: 0.8; stroke-linejoin: miter; stroke-linecap: square"/>
   </g>
   <g id="text_11">
    <!-- sex = f -->
    <g style="fill: #262626" transform="translate(194.634416 18.72) scale(0.1 -0.1)">
     <defs>
      <path id="ArialMT-73" d="M 197 991 
L 753 1078 
Q 800 744 1014 566 
Q 1228 388 1613 388 
Q 2000 388 2187 545 
Q 2375 703 2375 916 
Q 2375 1106 2209 1216 
Q 2094 1291 1634 1406 
Q 1016 1563 777 1677 
Q 538 1791 414 1992 
Q 291 2194 291 2438 
Q 291 2659 392 2848 
Q 494 3038 669 3163 
Q 800 3259 1026 3326 
Q 1253 3394 1513 3394 
Q 1903 3394 2198 3281 
Q 2494 3169 2634 2976 
Q 2775 2784 2828 2463 
L 2278 2388 
Q 2241 2644 2061 2787 
Q 1881 2931 1553 2931 
Q 1166 2931 1000 2803 
Q 834 2675 834 2503 
Q 834 2394 903 2306 
Q 972 2216 1119 2156 
Q 1203 2125 1616 2013 
Q 2213 1853 2448 1751 
Q 2684 1650 2818 1456 
Q 2953 1263 2953 975 
Q 2953 694 2789 445 
Q 2625 197 2315 61 
Q 2006 -75 1616 -75 
Q 969 -75 630 194 
Q 291 463 197 991 
z
" transform="scale(0.015625)"/>
      <path id="ArialMT-78" d="M 47 0 
L 1259 1725 
L 138 3319 
L 841 3319 
L 1350 2541 
Q 1494 2319 1581 2169 
Q 1719 2375 1834 2534 
L 2394 3319 
L 3066 3319 
L 1919 1756 
L 3153 0 
L 2463 0 
L 1781 1031 
L 1600 1309 
L 728 0 
L 47 0 
z
" transform="scale(0.015625)"/>
      <path id="ArialMT-20" transform="scale(0.015625)"/>
      <path id="ArialMT-3d" d="M 3381 2694 
L 356 2694 
L 356 3219 
L 3381 3219 
L 3381 2694 
z
M 3381 1303 
L 356 1303 
L 356 1828 
L 3381 1828 
L 3381 1303 
z
" transform="scale(0.015625)"/>
      <path id="ArialMT-66" d="M 556 0 
L 556 2881 
L 59 2881 
L 59 3319 
L 556 3319 
L 556 3672 
Q 556 4006 616 4169 
Q 697 4388 901 4523 
Q 1106 4659 1475 4659 
Q 1713 4659 2000 4603 
L 1916 4113 
Q 1741 4144 1584 4144 
Q 1328 4144 1222 4034 
Q 1116 3925 1116 3625 
L 1116 3319 
L 1763 3319 
L 1763 2881 
L 1116 2881 
L 1116 0 
L 556 0 
z
" transform="scale(0.015625)"/>
     </defs>
     <use xlink:href="#ArialMT-73"/>
     <use xlink:href="#ArialMT-65" x="50"/>
     <use xlink:href="#ArialMT-78" x="105.615234"/>
     <use xlink:href="#ArialMT-20" x="155.615234"/>
     <use xlink:href="#ArialMT-3d" x="183.398438"/>
     <use xlink:href="#ArialMT-20" x="241.796875"/>
     <use xlink:href="#ArialMT-66" x="269.580078"/>
    </g>
   </g>
  </g>
  <g id="axes_2">
   <g id="patch_5">
    <path d="M 384.348186 318.04 
L 712.4112 318.04 
L 712.4112 24.72 
L 384.348186 24.72 
z
" style="fill: #ffffff"/>
   </g>
   <g id="matplotlib.axis_3">
    <g id="xtick_3">
     <g id="text_12">
      <!-- Baia -->
      <g style="fill: #262626" transform="translate(456.356908 332.197812) scale(0.1 -0.1)">
       <use xlink:href="#ArialMT-42"/>
       <use xlink:href="#ArialMT-61" x="66.699219"/>
       <use xlink:href="#ArialMT-69" x="122.314453"/>
       <use xlink:href="#ArialMT-61" x="144.53125"/>
      </g>
     </g>
    </g>
    <g id="xtick_4">
     <g id="text_13">
      <!-- Jurilovca -->
      <g style="fill: #262626" transform="translate(610.667322 332.197812) scale(0.1 -0.1)">
       <use xlink:href="#ArialMT-4a"/>
       <use xlink:href="#ArialMT-75" x="50"/>
       <use xlink:href="#ArialMT-72" x="105.615234"/>
       <use xlink:href="#ArialMT-69" x="138.916016"/>
       <use xlink:href="#ArialMT-6c" x="161.132812"/>
       <use xlink:href="#ArialMT-6f" x="183.349609"/>
       <use xlink:href="#ArialMT-76" x="238.964844"/>
       <use xlink:href="#ArialMT-63" x="288.964844"/>
       <use xlink:href="#ArialMT-61" x="338.964844"/>
      </g>
     </g>
    </g>
    <g id="text_14">
     <!-- location -->
     <g style="fill: #262626" transform="translate(531.146881 345.343125) scale(0.1 -0.1)">
      <use xlink:href="#ArialMT-6c"/>
      <use xlink:href="#ArialMT-6f" x="22.216797"/>
      <use xlink:href="#ArialMT-63" x="77.832031"/>
      <use xlink:href="#ArialMT-61" x="127.832031"/>
      <use xlink:href="#ArialMT-74" x="183.447266"/>
      <use xlink:href="#ArialMT-69" x="211.230469"/>
      <use xlink:href="#ArialMT-6f" x="233.447266"/>
      <use xlink:href="#ArialMT-6e" x="289.0625"/>
     </g>
    </g>
   </g>
   <g id="matplotlib.axis_4">
    <g id="ytick_7">
     <g id="line2d_19">
      <path d="M 384.348186 316.446918 
L 712.4112 316.446918 
" clip-path="url(#p20a29e3648)" style="fill: none; stroke: #cccccc; stroke-width: 0.8; stroke-linecap: round"/>
     </g>
    </g>
    <g id="ytick_8">
     <g id="line2d_20">
      <path d="M 384.348186 262.069089 
L 712.4112 262.069089 
" clip-path="url(#p20a29e3648)" style="fill: none; stroke: #cccccc; stroke-width: 0.8; stroke-linecap: round"/>
     </g>
    </g>
    <g id="ytick_9">
     <g id="line2d_21">
      <path d="M 384.348186 207.69126 
L 712.4112 207.69126 
" clip-path="url(#p20a29e3648)" style="fill: none; stroke: #cccccc; stroke-width: 0.8; stroke-linecap: round"/>
     </g>
    </g>
    <g id="ytick_10">
     <g id="line2d_22">
      <path d="M 384.348186 153.313431 
L 712.4112 153.313431 
" clip-path="url(#p20a29e3648)" style="fill: none; stroke: #cccccc; stroke-width: 0.8; stroke-linecap: round"/>
     </g>
    </g>
    <g id="ytick_11">
     <g id="line2d_23">
      <path d="M 384.348186 98.935602 
L 712.4112 98.935602 
" clip-path="url(#p20a29e3648)" style="fill: none; stroke: #cccccc; stroke-width: 0.8; stroke-linecap: round"/>
     </g>
    </g>
    <g id="ytick_12">
     <g id="line2d_24">
      <path d="M 384.348186 44.557773 
L 712.4112 44.557773 
" clip-path="url(#p20a29e3648)" style="fill: none; stroke: #cccccc; stroke-width: 0.8; stroke-linecap: round"/>
     </g>
    </g>
   </g>
   <g id="PolyCollection_5">
    <defs>
     <path id="m73df2a876a" d="M 434.17481 -68.427765 
L 432.940466 -68.427765 
L 432.802883 -70.344103 
L 432.641548 -72.260441 
L 432.453973 -74.176779 
L 432.237739 -76.093116 
L 431.990573 -78.009454 
L 431.710421 -79.925792 
L 431.395532 -81.84213 
L 431.04454 -83.758467 
L 430.656534 -85.674805 
L 430.231135 -87.591143 
L 429.768551 -89.507481 
L 429.269621 -91.423819 
L 428.735851 -93.340156 
L 428.169422 -95.256494 
L 427.573193 -97.172832 
L 426.950671 -99.08917 
L 426.30598 -101.005507 
L 425.643803 -102.921845 
L 424.969315 -104.838183 
L 424.288107 -106.754521 
L 423.606094 -108.670858 
L 422.929421 -110.587196 
L 422.26437 -112.503534 
L 421.617252 -114.419872 
L 420.994308 -116.33621 
L 420.401607 -118.252547 
L 419.844945 -120.168885 
L 419.329745 -122.085223 
L 418.860961 -124.001561 
L 418.442986 -125.917898 
L 418.079563 -127.834236 
L 417.773704 -129.750574 
L 417.527617 -131.666912 
L 417.342645 -133.58325 
L 417.219217 -135.499587 
L 417.156819 -137.415925 
L 417.15398 -139.332263 
L 417.208285 -141.248601 
L 417.31641 -143.164938 
L 417.47418 -145.081276 
L 417.676652 -146.997614 
L 417.918223 -148.913952 
L 418.192757 -150.830289 
L 418.493733 -152.746627 
L 418.814396 -154.662965 
L 419.14793 -156.579303 
L 419.48762 -158.495641 
L 419.827018 -160.411978 
L 420.160099 -162.328316 
L 420.481405 -164.244654 
L 420.786169 -166.160992 
L 421.070422 -168.077329 
L 421.331076 -169.993667 
L 421.565985 -171.910005 
L 421.773978 -173.826343 
L 421.954873 -175.742681 
L 422.10946 -177.659018 
L 422.239471 -179.575356 
L 422.34751 -181.491694 
L 422.436983 -183.408032 
L 422.511989 -185.324369 
L 422.577201 -187.240707 
L 422.637729 -189.157045 
L 422.698966 -191.073383 
L 422.766427 -192.98972 
L 422.845572 -194.906058 
L 422.94164 -196.822396 
L 423.05947 -198.738734 
L 423.203346 -200.655072 
L 423.376843 -202.571409 
L 423.582707 -204.487747 
L 423.822753 -206.404085 
L 424.097801 -208.320423 
L 424.40764 -210.23676 
L 424.751039 -212.153098 
L 425.125789 -214.069436 
L 425.528782 -215.985774 
L 425.956123 -217.902112 
L 426.403269 -219.818449 
L 426.865193 -221.734787 
L 427.336552 -223.651125 
L 427.811867 -225.567463 
L 428.285703 -227.4838 
L 428.752829 -229.400138 
L 429.208369 -231.316476 
L 429.647925 -233.232814 
L 430.067682 -235.149151 
L 430.464471 -237.065489 
L 430.835814 -238.981827 
L 431.179936 -240.898165 
L 431.495745 -242.814503 
L 431.782803 -244.73084 
L 432.04126 -246.647178 
L 432.271788 -248.563516 
L 432.475495 -250.479854 
L 432.653845 -252.396191 
L 432.808565 -254.312529 
L 432.941567 -256.228867 
L 433.054866 -258.145205 
L 434.06041 -258.145205 
L 434.06041 -258.145205 
L 434.173709 -256.228867 
L 434.306711 -254.312529 
L 434.461432 -252.396191 
L 434.639781 -250.479854 
L 434.843489 -248.563516 
L 435.074016 -246.647178 
L 435.332473 -244.73084 
L 435.619531 -242.814503 
L 435.935341 -240.898165 
L 436.279462 -238.981827 
L 436.650805 -237.065489 
L 437.047594 -235.149151 
L 437.467351 -233.232814 
L 437.906907 -231.316476 
L 438.362447 -229.400138 
L 438.829573 -227.4838 
L 439.303409 -225.567463 
L 439.778725 -223.651125 
L 440.250083 -221.734787 
L 440.712007 -219.818449 
L 441.159153 -217.902112 
L 441.586494 -215.985774 
L 441.989487 -214.069436 
L 442.364237 -212.153098 
L 442.707636 -210.23676 
L 443.017476 -208.320423 
L 443.292523 -206.404085 
L 443.532569 -204.487747 
L 443.738433 -202.571409 
L 443.911931 -200.655072 
L 444.055806 -198.738734 
L 444.173637 -196.822396 
L 444.269704 -194.906058 
L 444.34885 -192.98972 
L 444.41631 -191.073383 
L 444.477547 -189.157045 
L 444.538075 -187.240707 
L 444.603287 -185.324369 
L 444.678293 -183.408032 
L 444.767766 -181.491694 
L 444.875806 -179.575356 
L 445.005816 -177.659018 
L 445.160404 -175.742681 
L 445.341298 -173.826343 
L 445.549291 -171.910005 
L 445.7842 -169.993667 
L 446.044854 -168.077329 
L 446.329107 -166.160992 
L 446.633871 -164.244654 
L 446.955177 -162.328316 
L 447.288258 -160.411978 
L 447.627656 -158.495641 
L 447.967346 -156.579303 
L 448.30088 -154.662965 
L 448.621543 -152.746627 
L 448.922519 -150.830289 
L 449.197054 -148.913952 
L 449.438624 -146.997614 
L 449.641096 -145.081276 
L 449.798866 -143.164938 
L 449.906991 -141.248601 
L 449.961297 -139.332263 
L 449.958457 -137.415925 
L 449.896059 -135.499587 
L 449.772631 -133.58325 
L 449.587659 -131.666912 
L 449.341572 -129.750574 
L 449.035713 -127.834236 
L 448.67229 -125.917898 
L 448.254315 -124.001561 
L 447.785531 -122.085223 
L 447.270331 -120.168885 
L 446.713669 -118.252547 
L 446.120968 -116.33621 
L 445.498024 -114.419872 
L 444.850906 -112.503534 
L 444.185855 -110.587196 
L 443.509183 -108.670858 
L 442.827169 -106.754521 
L 442.145961 -104.838183 
L 441.471474 -102.921845 
L 440.809297 -101.005507 
L 440.164605 -99.08917 
L 439.542083 -97.172832 
L 438.945854 -95.256494 
L 438.379425 -93.340156 
L 437.845655 -91.423819 
L 437.346725 -89.507481 
L 436.884141 -87.591143 
L 436.458742 -85.674805 
L 436.070737 -83.758467 
L 435.719744 -81.84213 
L 435.404855 -79.925792 
L 435.124703 -78.009454 
L 434.877537 -76.093116 
L 434.661304 -74.176779 
L 434.473729 -72.260441 
L 434.312393 -70.344103 
L 434.17481 -68.427765 
z
" style="stroke: #3f3f3f; stroke-width: 1.25"/>
    </defs>
    <g clip-path="url(#p20a29e3648)">
     <use xlink:href="#m73df2a876a" x="0" y="360" style="fill: #3274a1; stroke: #3f3f3f; stroke-width: 1.25"/>
    </g>
   </g>
   <g id="PolyCollection_6">
    <defs>
     <path id="m09f2b9833e" d="M 499.67238 -81.255795 
L 498.668102 -81.255795 
L 498.5347 -82.501294 
L 498.375547 -83.746792 
L 498.188251 -84.992291 
L 497.970752 -86.23779 
L 497.721407 -87.483289 
L 497.439049 -88.728787 
L 497.122997 -89.974286 
L 496.773015 -91.219785 
L 496.389229 -92.465284 
L 495.971984 -93.710782 
L 495.521673 -94.956281 
L 495.038549 -96.20178 
L 494.522539 -97.447279 
L 493.973089 -98.692778 
L 493.389069 -99.938276 
L 492.768738 -101.183775 
L 492.109803 -102.429274 
L 491.409556 -103.674773 
L 490.665073 -104.920271 
L 489.873473 -106.16577 
L 489.032199 -107.411269 
L 488.13928 -108.656768 
L 487.19357 -109.902266 
L 486.19493 -111.147765 
L 485.144342 -112.393264 
L 484.043969 -113.638763 
L 482.89717 -114.884261 
L 481.708494 -116.12976 
L 480.483688 -117.375259 
L 479.229733 -118.620758 
L 477.954938 -119.866256 
L 476.669092 -121.111755 
L 475.383654 -122.357254 
L 474.111959 -123.602753 
L 472.86939 -124.848251 
L 471.673465 -126.09375 
L 470.543787 -127.339249 
L 469.5018 -128.584748 
L 468.570329 -129.830247 
L 467.772896 -131.075745 
L 467.132816 -132.321244 
L 466.672142 -133.566743 
L 466.410503 -134.812242 
L 466.36394 -136.05774 
L 466.543825 -137.303239 
L 466.955975 -138.548738 
L 467.600011 -139.794237 
L 468.469063 -141.039735 
L 469.549824 -142.285234 
L 470.822963 -143.530733 
L 472.263877 -144.776232 
L 473.843709 -146.02173 
L 475.530564 -147.267229 
L 477.290831 -148.512728 
L 479.090509 -149.758227 
L 480.896466 -151.003725 
L 482.677538 -152.249224 
L 484.405441 -153.494723 
L 486.055436 -154.740222 
L 487.606765 -155.98572 
L 489.042857 -157.231219 
L 490.351337 -158.476718 
L 491.523874 -159.722217 
L 492.55592 -160.967716 
L 493.446372 -162.213214 
L 494.197203 -163.458713 
L 494.813097 -164.704212 
L 495.301093 -165.949711 
L 495.670256 -167.195209 
L 495.931379 -168.440708 
L 496.096695 -169.686207 
L 496.179592 -170.931706 
L 496.194323 -172.177204 
L 496.155684 -173.422703 
L 496.078659 -174.668202 
L 495.978036 -175.913701 
L 495.867992 -177.159199 
L 495.761666 -178.404698 
L 495.670748 -179.650197 
L 495.605104 -180.895696 
L 495.572462 -182.141194 
L 495.578209 -183.386693 
L 495.625285 -184.632192 
L 495.714213 -185.877691 
L 495.843257 -187.123189 
L 496.008698 -188.368688 
L 496.205202 -189.614187 
L 496.426266 -190.859686 
L 496.66469 -192.105185 
L 496.913049 -193.350683 
L 497.164136 -194.596182 
L 497.411331 -195.841681 
L 497.648898 -197.08718 
L 497.872174 -198.332678 
L 498.077674 -199.578177 
L 498.263098 -200.823676 
L 498.427259 -202.069175 
L 498.569962 -203.314673 
L 498.691832 -204.560172 
L 499.64865 -204.560172 
L 499.64865 -204.560172 
L 499.77052 -203.314673 
L 499.913223 -202.069175 
L 500.077384 -200.823676 
L 500.262807 -199.578177 
L 500.468308 -198.332678 
L 500.691584 -197.08718 
L 500.929151 -195.841681 
L 501.176346 -194.596182 
L 501.427433 -193.350683 
L 501.675792 -192.105185 
L 501.914215 -190.859686 
L 502.13528 -189.614187 
L 502.331784 -188.368688 
L 502.497225 -187.123189 
L 502.626269 -185.877691 
L 502.715197 -184.632192 
L 502.762272 -183.386693 
L 502.76802 -182.141194 
L 502.735378 -180.895696 
L 502.669733 -179.650197 
L 502.578816 -178.404698 
L 502.47249 -177.159199 
L 502.362446 -175.913701 
L 502.261823 -174.668202 
L 502.184798 -173.422703 
L 502.146158 -172.177204 
L 502.16089 -170.931706 
L 502.243787 -169.686207 
L 502.409102 -168.440708 
L 502.670225 -167.195209 
L 503.039389 -165.949711 
L 503.527384 -164.704212 
L 504.143279 -163.458713 
L 504.89411 -162.213214 
L 505.784561 -160.967716 
L 506.816608 -159.722217 
L 507.989145 -158.476718 
L 509.297625 -157.231219 
L 510.733717 -155.98572 
L 512.285046 -154.740222 
L 513.935041 -153.494723 
L 515.662944 -152.249224 
L 517.444016 -151.003725 
L 519.249973 -149.758227 
L 521.049651 -148.512728 
L 522.809918 -147.267229 
L 524.496773 -146.02173 
L 526.076605 -144.776232 
L 527.517518 -143.530733 
L 528.790658 -142.285234 
L 529.871418 -141.039735 
L 530.740471 -139.794237 
L 531.384507 -138.548738 
L 531.796657 -137.303239 
L 531.976542 -136.05774 
L 531.929978 -134.812242 
L 531.668339 -133.566743 
L 531.207666 -132.321244 
L 530.567586 -131.075745 
L 529.770153 -129.830247 
L 528.838682 -128.584748 
L 527.796695 -127.339249 
L 526.667017 -126.09375 
L 525.471092 -124.848251 
L 524.228523 -123.602753 
L 522.956828 -122.357254 
L 521.67139 -121.111755 
L 520.385544 -119.866256 
L 519.110749 -118.620758 
L 517.856794 -117.375259 
L 516.631987 -116.12976 
L 515.443312 -114.884261 
L 514.296513 -113.638763 
L 513.19614 -112.393264 
L 512.145552 -111.147765 
L 511.146912 -109.902266 
L 510.201202 -108.656768 
L 509.308283 -107.411269 
L 508.467008 -106.16577 
L 507.675409 -104.920271 
L 506.930926 -103.674773 
L 506.230678 -102.429274 
L 505.571744 -101.183775 
L 504.951413 -99.938276 
L 504.367392 -98.692778 
L 503.817943 -97.447279 
L 503.301933 -96.20178 
L 502.818809 -94.956281 
L 502.368498 -93.710782 
L 501.951253 -92.465284 
L 501.567467 -91.219785 
L 501.217485 -89.974286 
L 500.901432 -88.728787 
L 500.619075 -87.483289 
L 500.36973 -86.23779 
L 500.152231 -84.992291 
L 499.964935 -83.746792 
L 499.805782 -82.501294 
L 499.67238 -81.255795 
z
" style="stroke: #3f3f3f; stroke-width: 1.25"/>
    </defs>
    <g clip-path="url(#p20a29e3648)">
     <use xlink:href="#m09f2b9833e" x="0" y="360" style="fill: #e1812c; stroke: #3f3f3f; stroke-width: 1.25"/>
    </g>
   </g>
   <g id="PolyCollection_7">
    <defs>
     <path id="mbc4096b262" d="M 598.700282 -85.722864 
L 596.478008 -85.722864 
L 596.262574 -86.722266 
L 596.016047 -87.721667 
L 595.736241 -88.721069 
L 595.42128 -89.72047 
L 595.0697 -90.719872 
L 594.680548 -91.719273 
L 594.253479 -92.718675 
L 593.788847 -93.718077 
L 593.287773 -94.717478 
L 592.752203 -95.71688 
L 592.184931 -96.716281 
L 591.589594 -97.715683 
L 590.970636 -98.715084 
L 590.333235 -99.714486 
L 589.683183 -100.713887 
L 589.026746 -101.713289 
L 588.370472 -102.71269 
L 587.720991 -103.712092 
L 587.084773 -104.711494 
L 586.467893 -105.710895 
L 585.87578 -106.710297 
L 585.312989 -107.709698 
L 584.782986 -108.7091 
L 584.287967 -109.708501 
L 583.828729 -110.707903 
L 583.404589 -111.707304 
L 583.013363 -112.706706 
L 582.651411 -113.706107 
L 582.313745 -114.705509 
L 581.994206 -115.704911 
L 581.685689 -116.704312 
L 581.380419 -117.703714 
L 581.070267 -118.703115 
L 580.747076 -119.702517 
L 580.403004 -120.701918 
L 580.030849 -121.70132 
L 579.624352 -122.700721 
L 579.178455 -123.700123 
L 578.689507 -124.699524 
L 578.155413 -125.698926 
L 577.575708 -126.698328 
L 576.951565 -127.697729 
L 576.285738 -128.697131 
L 575.582441 -129.696532 
L 574.847176 -130.695934 
L 574.086524 -131.695335 
L 573.307909 -132.694737 
L 572.519354 -133.694138 
L 571.729237 -134.69354 
L 570.946071 -135.692941 
L 570.178308 -136.692343 
L 569.434181 -137.691745 
L 568.721591 -138.691146 
L 568.048038 -139.690548 
L 567.420581 -140.689949 
L 566.845852 -141.689351 
L 566.33008 -142.688752 
L 565.87914 -143.688154 
L 565.498598 -144.687555 
L 565.193758 -145.686957 
L 564.969685 -146.686358 
L 564.831199 -147.68576 
L 564.782844 -148.685162 
L 564.828814 -149.684563 
L 564.972851 -150.683965 
L 565.218109 -151.683366 
L 565.566995 -152.682768 
L 566.021 -153.682169 
L 566.580525 -154.681571 
L 567.244724 -155.680972 
L 568.011369 -156.680374 
L 568.876747 -157.679776 
L 569.83561 -158.679177 
L 570.881174 -159.678579 
L 572.005174 -160.67798 
L 573.197983 -161.677382 
L 574.448779 -162.676783 
L 575.745764 -163.676185 
L 577.076425 -164.675586 
L 578.427821 -165.674988 
L 579.786888 -166.674389 
L 581.140746 -167.673791 
L 582.477002 -168.673193 
L 583.784019 -169.672594 
L 585.051166 -170.671996 
L 586.269019 -171.671397 
L 587.429514 -172.670799 
L 588.526051 -173.6702 
L 589.55355 -174.669602 
L 590.508451 -175.669003 
L 591.388667 -176.668405 
L 592.193503 -177.667806 
L 592.923536 -178.667208 
L 593.580468 -179.66661 
L 594.166964 -180.666011 
L 594.68648 -181.665413 
L 595.143086 -182.664814 
L 595.541296 -183.664216 
L 595.885903 -184.663617 
L 599.292387 -184.663617 
L 599.292387 -184.663617 
L 599.636995 -183.664216 
L 600.035204 -182.664814 
L 600.49181 -181.665413 
L 601.011326 -180.666011 
L 601.597823 -179.66661 
L 602.254754 -178.667208 
L 602.984787 -177.667806 
L 603.789623 -176.668405 
L 604.669839 -175.669003 
L 605.62474 -174.669602 
L 606.652239 -173.6702 
L 607.748777 -172.670799 
L 608.909271 -171.671397 
L 610.127124 -170.671996 
L 611.394272 -169.672594 
L 612.701289 -168.673193 
L 614.037544 -167.673791 
L 615.391403 -166.674389 
L 616.750469 -165.674988 
L 618.101865 -164.675586 
L 619.432526 -163.676185 
L 620.729512 -162.676783 
L 621.980307 -161.677382 
L 623.173117 -160.67798 
L 624.297117 -159.678579 
L 625.34268 -158.679177 
L 626.301543 -157.679776 
L 627.166921 -156.680374 
L 627.933566 -155.680972 
L 628.597766 -154.681571 
L 629.157291 -153.682169 
L 629.611295 -152.682768 
L 629.960181 -151.683366 
L 630.205439 -150.683965 
L 630.349476 -149.684563 
L 630.395447 -148.685162 
L 630.347091 -147.68576 
L 630.208605 -146.686358 
L 629.984532 -145.686957 
L 629.679693 -144.687555 
L 629.299151 -143.688154 
L 628.84821 -142.688752 
L 628.332438 -141.689351 
L 627.75771 -140.689949 
L 627.130253 -139.690548 
L 626.456699 -138.691146 
L 625.74411 -137.691745 
L 624.999983 -136.692343 
L 624.232219 -135.692941 
L 623.449053 -134.69354 
L 622.658936 -133.694138 
L 621.870381 -132.694737 
L 621.091766 -131.695335 
L 620.331114 -130.695934 
L 619.595849 -129.696532 
L 618.892552 -128.697131 
L 618.226725 -127.697729 
L 617.602583 -126.698328 
L 617.022877 -125.698926 
L 616.488783 -124.699524 
L 615.999835 -123.700123 
L 615.553938 -122.700721 
L 615.147441 -121.70132 
L 614.775286 -120.701918 
L 614.431214 -119.702517 
L 614.108023 -118.703115 
L 613.797871 -117.703714 
L 613.492601 -116.704312 
L 613.184084 -115.704911 
L 612.864545 -114.705509 
L 612.526879 -113.706107 
L 612.164927 -112.706706 
L 611.773701 -111.707304 
L 611.349561 -110.707903 
L 610.890324 -109.708501 
L 610.395305 -108.7091 
L 609.865301 -107.709698 
L 609.30251 -106.710297 
L 608.710398 -105.710895 
L 608.093517 -104.711494 
L 607.457299 -103.712092 
L 606.807818 -102.71269 
L 606.151545 -101.713289 
L 605.495107 -100.713887 
L 604.845055 -99.714486 
L 604.207654 -98.715084 
L 603.588696 -97.715683 
L 602.993359 -96.716281 
L 602.426087 -95.71688 
L 601.890517 -94.717478 
L 601.389444 -93.718077 
L 600.924811 -92.718675 
L 600.497742 -91.719273 
L 600.10859 -90.719872 
L 599.75701 -89.72047 
L 599.44205 -88.721069 
L 599.162244 -87.721667 
L 598.915716 -86.722266 
L 598.700282 -85.722864 
z
" style="stroke: #3f3f3f; stroke-width: 1.25"/>
    </defs>
    <g clip-path="url(#p20a29e3648)">
     <use xlink:href="#mbc4096b262" x="0" y="360" style="fill: #3274a1; stroke: #3f3f3f; stroke-width: 1.25"/>
    </g>
   </g>
   <g id="PolyCollection_8">
    <defs>
     <path id="m5b6ed21b1d" d="M 663.918912 -66.126595 
L 662.484584 -66.126595 
L 662.34669 -67.392819 
L 662.188926 -68.659042 
L 662.009834 -69.925266 
L 661.808127 -71.19149 
L 661.582741 -72.457713 
L 661.332898 -73.723937 
L 661.058161 -74.990161 
L 660.758486 -76.256384 
L 660.434265 -77.522608 
L 660.086358 -78.788832 
L 659.716116 -80.055055 
L 659.325377 -81.321279 
L 658.916456 -82.587503 
L 658.492104 -83.853727 
L 658.05546 -85.11995 
L 657.609969 -86.386174 
L 657.159295 -87.652398 
L 656.707214 -88.918621 
L 656.257495 -90.184845 
L 655.813775 -91.451069 
L 655.379441 -92.717292 
L 654.957506 -93.983516 
L 654.550502 -95.24974 
L 654.160392 -96.515963 
L 653.788497 -97.782187 
L 653.435459 -99.048411 
L 653.10122 -100.314634 
L 652.785044 -101.580858 
L 652.485561 -102.847082 
L 652.200841 -104.113305 
L 651.928497 -105.379529 
L 651.665795 -106.645753 
L 651.409794 -107.911976 
L 651.15748 -109.1782 
L 650.905898 -110.444424 
L 650.652286 -111.710647 
L 650.39418 -112.976871 
L 650.129508 -114.243095 
L 649.856654 -115.509318 
L 649.57449 -116.775542 
L 649.282389 -118.041766 
L 648.980204 -119.30799 
L 648.668227 -120.574213 
L 648.347124 -121.840437 
L 648.017868 -123.106661 
L 647.681661 -124.372884 
L 647.339861 -125.639108 
L 646.993922 -126.905332 
L 646.645347 -128.171555 
L 646.295667 -129.437779 
L 645.946443 -130.704003 
L 645.59929 -131.970226 
L 645.255934 -133.23645 
L 644.918276 -134.502674 
L 644.588474 -135.768897 
L 644.269033 -137.035121 
L 643.962884 -138.301345 
L 643.673449 -139.567568 
L 643.40469 -140.833792 
L 643.161111 -142.100016 
L 642.947739 -143.366239 
L 642.770048 -144.632463 
L 642.633849 -145.898687 
L 642.545137 -147.16491 
L 642.509898 -148.431134 
L 642.533896 -149.697358 
L 642.622435 -150.963582 
L 642.780119 -152.229805 
L 643.010626 -153.496029 
L 643.316493 -154.762253 
L 643.698945 -156.028476 
L 644.157757 -157.2947 
L 644.691183 -158.560924 
L 645.295932 -159.827147 
L 645.967209 -161.093371 
L 646.698814 -162.359595 
L 647.483298 -163.625818 
L 648.312164 -164.892042 
L 649.176103 -166.158266 
L 650.065265 -167.424489 
L 650.969532 -168.690713 
L 651.878802 -169.956937 
L 652.783256 -171.22316 
L 653.673604 -172.489384 
L 654.5413 -173.755608 
L 655.378723 -175.021831 
L 656.179305 -176.288055 
L 656.937625 -177.554279 
L 657.649452 -178.820502 
L 658.311744 -180.086726 
L 658.922616 -181.35295 
L 659.481263 -182.619173 
L 659.987869 -183.885397 
L 660.443484 -185.151621 
L 660.849897 -186.417845 
L 661.2095 -187.684068 
L 661.525146 -188.950292 
L 661.800021 -190.216516 
L 662.037521 -191.482739 
L 664.365975 -191.482739 
L 664.365975 -191.482739 
L 664.603474 -190.216516 
L 664.87835 -188.950292 
L 665.193996 -187.684068 
L 665.553599 -186.417845 
L 665.960012 -185.151621 
L 666.415627 -183.885397 
L 666.922233 -182.619173 
L 667.48088 -181.35295 
L 668.091752 -180.086726 
L 668.754044 -178.820502 
L 669.465871 -177.554279 
L 670.224191 -176.288055 
L 671.024773 -175.021831 
L 671.862195 -173.755608 
L 672.729892 -172.489384 
L 673.62024 -171.22316 
L 674.524693 -169.956937 
L 675.433964 -168.690713 
L 676.338231 -167.424489 
L 677.227393 -166.158266 
L 678.091332 -164.892042 
L 678.920197 -163.625818 
L 679.704682 -162.359595 
L 680.436287 -161.093371 
L 681.107564 -159.827147 
L 681.712313 -158.560924 
L 682.245739 -157.2947 
L 682.704551 -156.028476 
L 683.087002 -154.762253 
L 683.39287 -153.496029 
L 683.623377 -152.229805 
L 683.781061 -150.963582 
L 683.869599 -149.697358 
L 683.893597 -148.431134 
L 683.858359 -147.16491 
L 683.769647 -145.898687 
L 683.633448 -144.632463 
L 683.455757 -143.366239 
L 683.242384 -142.100016 
L 682.998806 -140.833792 
L 682.730046 -139.567568 
L 682.440612 -138.301345 
L 682.134463 -137.035121 
L 681.815022 -135.768897 
L 681.48522 -134.502674 
L 681.147562 -133.23645 
L 680.804206 -131.970226 
L 680.457053 -130.704003 
L 680.107828 -129.437779 
L 679.758148 -128.171555 
L 679.409574 -126.905332 
L 679.063635 -125.639108 
L 678.721835 -124.372884 
L 678.385628 -123.106661 
L 678.056372 -121.840437 
L 677.735269 -120.574213 
L 677.423291 -119.30799 
L 677.121107 -118.041766 
L 676.829006 -116.775542 
L 676.546842 -115.509318 
L 676.273987 -114.243095 
L 676.009316 -112.976871 
L 675.75121 -111.710647 
L 675.497598 -110.444424 
L 675.246016 -109.1782 
L 674.993701 -107.911976 
L 674.737701 -106.645753 
L 674.474999 -105.379529 
L 674.202654 -104.113305 
L 673.917935 -102.847082 
L 673.618452 -101.580858 
L 673.302276 -100.314634 
L 672.968037 -99.048411 
L 672.614998 -97.782187 
L 672.243104 -96.515963 
L 671.852994 -95.24974 
L 671.44599 -93.983516 
L 671.024055 -92.717292 
L 670.589721 -91.451069 
L 670.146001 -90.184845 
L 669.696281 -88.918621 
L 669.244201 -87.652398 
L 668.793527 -86.386174 
L 668.348036 -85.11995 
L 667.911392 -83.853727 
L 667.48704 -82.587503 
L 667.078118 -81.321279 
L 666.68738 -80.055055 
L 666.317137 -78.788832 
L 665.969231 -77.522608 
L 665.64501 -76.256384 
L 665.345335 -74.990161 
L 665.070598 -73.723937 
L 664.820755 -72.457713 
L 664.595369 -71.19149 
L 664.393661 -69.925266 
L 664.21457 -68.659042 
L 664.056806 -67.392819 
L 663.918912 -66.126595 
z
" style="stroke: #3f3f3f; stroke-width: 1.25"/>
    </defs>
    <g clip-path="url(#p20a29e3648)">
     <use xlink:href="#m5b6ed21b1d" x="0" y="360" style="fill: #e1812c; stroke: #3f3f3f; stroke-width: 1.25"/>
    </g>
   </g>
   <g id="patch_6">
    <path d="M 466.36394 370.824747 
L 466.36394 370.824747 
L 466.36394 370.824747 
L 466.36394 370.824747 
z
" clip-path="url(#p20a29e3648)" style="fill: #3274a1; stroke: #3f3f3f; stroke-width: 1.25; stroke-linejoin: miter"/>
   </g>
   <g id="patch_7">
    <path d="M 466.36394 370.824747 
L 466.36394 370.824747 
L 466.36394 370.824747 
L 466.36394 370.824747 
z
" clip-path="url(#p20a29e3648)" style="fill: #e1812c; stroke: #3f3f3f; stroke-width: 1.25; stroke-linejoin: miter"/>
   </g>
   <g id="line2d_25">
    <path d="M 433.557638 250.374131 
L 433.557638 143.052899 
" clip-path="url(#p20a29e3648)" style="fill: none; stroke: #3f3f3f; stroke-width: 1.875; stroke-linecap: round"/>
   </g>
   <g id="line2d_26">
    <path d="M 433.557638 228.73913 
L 433.557638 172.806185 
" clip-path="url(#p20a29e3648)" style="fill: none; stroke: #3f3f3f; stroke-width: 5.625; stroke-linecap: round"/>
   </g>
   <g id="line2d_27">
    <path d="M 433.557638 210.567953 
" clip-path="url(#p20a29e3648)" style="fill: none; stroke: #3f3f3f; stroke-width: 1.5; stroke-linecap: round"/>
    <g clip-path="url(#p20a29e3648)">
     <use xlink:href="#m45c241a56c" x="433.557638" y="210.567953" style="fill: #ffffff; stroke: #ffffff; stroke-width: 1.125"/>
    </g>
   </g>
   <g id="line2d_28">
    <path d="M 499.170241 257.429919 
L 499.170241 207.837499 
" clip-path="url(#p20a29e3648)" style="fill: none; stroke: #3f3f3f; stroke-width: 1.875; stroke-linecap: round"/>
   </g>
   <g id="line2d_29">
    <path d="M 499.170241 234.387658 
L 499.170241 217.675427 
" clip-path="url(#p20a29e3648)" style="fill: none; stroke: #3f3f3f; stroke-width: 5.625; stroke-linecap: round"/>
   </g>
   <g id="line2d_30">
    <path d="M 499.170241 223.434535 
" clip-path="url(#p20a29e3648)" style="fill: none; stroke: #3f3f3f; stroke-width: 1.5; stroke-linecap: round"/>
    <g clip-path="url(#p20a29e3648)">
     <use xlink:href="#m45c241a56c" x="499.170241" y="223.434535" style="fill: #ffffff; stroke: #ffffff; stroke-width: 1.125"/>
    </g>
   </g>
   <g id="line2d_31">
    <path d="M 597.589145 250.748345 
L 597.589145 198.865174 
" clip-path="url(#p20a29e3648)" style="fill: none; stroke: #3f3f3f; stroke-width: 1.875; stroke-linecap: round"/>
   </g>
   <g id="line2d_32">
    <path d="M 597.589145 226.362204 
L 597.589145 206.448953 
" clip-path="url(#p20a29e3648)" style="fill: none; stroke: #3f3f3f; stroke-width: 5.625; stroke-linecap: round"/>
   </g>
   <g id="line2d_33">
    <path d="M 597.589145 218.829689 
" clip-path="url(#p20a29e3648)" style="fill: none; stroke: #3f3f3f; stroke-width: 1.5; stroke-linecap: round"/>
    <g clip-path="url(#p20a29e3648)">
     <use xlink:href="#m45c241a56c" x="597.589145" y="218.829689" style="fill: #ffffff; stroke: #ffffff; stroke-width: 1.125"/>
    </g>
   </g>
   <g id="line2d_34">
    <path d="M 663.201748 263.755304 
L 663.201748 198.635361 
" clip-path="url(#p20a29e3648)" style="fill: none; stroke: #3f3f3f; stroke-width: 1.875; stroke-linecap: round"/>
   </g>
   <g id="line2d_35">
    <path d="M 663.201748 237.044628 
L 663.201748 205.796303 
" clip-path="url(#p20a29e3648)" style="fill: none; stroke: #3f3f3f; stroke-width: 5.625; stroke-linecap: round"/>
   </g>
   <g id="line2d_36">
    <path d="M 663.201748 224.604149 
" clip-path="url(#p20a29e3648)" style="fill: none; stroke: #3f3f3f; stroke-width: 1.5; stroke-linecap: round"/>
    <g clip-path="url(#p20a29e3648)">
     <use xlink:href="#m45c241a56c" x="663.201748" y="224.604149" style="fill: #ffffff; stroke: #ffffff; stroke-width: 1.125"/>
    </g>
   </g>
   <g id="patch_8">
    <path d="M 384.348186 318.04 
L 384.348186 24.72 
" style="fill: none; stroke: #cccccc; stroke-width: 0.8; stroke-linejoin: miter; stroke-linecap: square"/>
   </g>
   <g id="patch_9">
    <path d="M 384.348186 318.04 
L 712.4112 318.04 
" style="fill: none; stroke: #cccccc; stroke-width: 0.8; stroke-linejoin: miter; stroke-linecap: square"/>
   </g>
   <g id="text_15">
    <!-- sex = m -->
    <g style="fill: #262626" transform="translate(530.735943 18.72) scale(0.1 -0.1)">
     <defs>
      <path id="ArialMT-6d" d="M 422 0 
L 422 3319 
L 925 3319 
L 925 2853 
Q 1081 3097 1340 3245 
Q 1600 3394 1931 3394 
Q 2300 3394 2536 3241 
Q 2772 3088 2869 2813 
Q 3263 3394 3894 3394 
Q 4388 3394 4653 3120 
Q 4919 2847 4919 2278 
L 4919 0 
L 4359 0 
L 4359 2091 
Q 4359 2428 4304 2576 
Q 4250 2725 4106 2815 
Q 3963 2906 3769 2906 
Q 3419 2906 3187 2673 
Q 2956 2441 2956 1928 
L 2956 0 
L 2394 0 
L 2394 2156 
Q 2394 2531 2256 2718 
Q 2119 2906 1806 2906 
Q 1569 2906 1367 2781 
Q 1166 2656 1075 2415 
Q 984 2175 984 1722 
L 984 0 
L 422 0 
z
" transform="scale(0.015625)"/>
     </defs>
     <use xlink:href="#ArialMT-73"/>
     <use xlink:href="#ArialMT-65" x="50"/>
     <use xlink:href="#ArialMT-78" x="105.615234"/>
     <use xlink:href="#ArialMT-20" x="155.615234"/>
     <use xlink:href="#ArialMT-3d" x="183.398438"/>
     <use xlink:href="#ArialMT-20" x="241.796875"/>
     <use xlink:href="#ArialMT-6d" x="269.580078"/>
    </g>
   </g>
  </g>
  <g id="legend_1">
   <g id="text_16">
    <!-- time -->
    <g style="fill: #262626" transform="translate(725.045625 168.439844) scale(0.1 -0.1)">
     <use xlink:href="#ArialMT-74"/>
     <use xlink:href="#ArialMT-69" x="27.783203"/>
     <use xlink:href="#ArialMT-6d" x="50"/>
     <use xlink:href="#ArialMT-65" x="133.300781"/>
    </g>
   </g>
   <g id="patch_10">
    <path d="M 719.101875 182.585156 
L 739.101875 182.585156 
L 739.101875 175.585156 
L 719.101875 175.585156 
z
" style="fill: #3274a1; stroke: #3f3f3f; stroke-width: 1.25; stroke-linejoin: miter"/>
   </g>
   <g id="text_17">
    <!-- i -->
    <g style="fill: #262626" transform="translate(747.101875 182.585156) scale(0.1 -0.1)">
     <use xlink:href="#ArialMT-69"/>
    </g>
   </g>
   <g id="patch_11">
    <path d="M 719.101875 196.730469 
L 739.101875 196.730469 
L 739.101875 189.730469 
L 719.101875 189.730469 
z
" style="fill: #e1812c; stroke: #3f3f3f; stroke-width: 1.25; stroke-linejoin: miter"/>
   </g>
   <g id="text_18">
    <!-- f -->
    <g style="fill: #262626" transform="translate(747.101875 196.730469) scale(0.1 -0.1)">
     <use xlink:href="#ArialMT-66"/>
    </g>
   </g>
  </g>
 </g>
 <defs>
  <clipPath id="p61e6c3cb38">
   <rect x="45.470877" y="24.72" width="328.063014" height="293.32"/>
  </clipPath>
  <clipPath id="p20a29e3648">
   <rect x="384.348186" y="24.72" width="328.063014" height="293.32"/>
  </clipPath>
 </defs>
</svg>
