<?xml version="1.0" encoding="utf-8" standalone="no"?>
<!DOCTYPE svg PUBLIC "-//W3C//DTD SVG 1.1//EN"
  "http://www.w3.org/Graphics/SVG/1.1/DTD/svg11.dtd">
<svg xmlns:xlink="http://www.w3.org/1999/xlink" width="758.88pt" height="360pt" viewBox="0 0 758.88 360" xmlns="http://www.w3.org/2000/svg" version="1.1">
 <metadata>
  <rdf:RDF xmlns:dc="http://purl.org/dc/elements/1.1/" xmlns:cc="http://creativecommons.org/ns#" xmlns:rdf="http://www.w3.org/1999/02/22-rdf-syntax-ns#">
   <cc:Work>
    <dc:type rdf:resource="http://purl.org/dc/dcmitype/StillImage"/>
    <dc:date>2024-09-11T03:22:43.212784</dc:date>
    <dc:format>image/svg+xml</dc:format>
    <dc:creator>
     <cc:Agent>
      <dc:title>Matplotlib v3.8.3, https://matplotlib.org/</dc:title>
     </cc:Agent>
    </dc:creator>
   </cc:Work>
  </rdf:RDF>
 </metadata>
 <defs>
  <style type="text/css">*{stroke-linejoin: round; stroke-linecap: butt}</style>
 </defs>
 <g id="figure_1">
  <g id="patch_1">
   <path d="M 0 360 
L 758.88 360 
L 758.88 0 
L 0 0 
z
" style="fill: #ffffff"/>
  </g>
  <g id="axes_1">
   <g id="patch_2">
    <path d="M 45.470877 318.04 
L 373.533891 318.04 
L 373.533891 24.72 
L 45.470877 24.72 
z
" style="fill: #ffffff"/>
   </g>
   <g id="matplotlib.axis_1">
    <g id="xtick_1">
     <g id="text_1">
      <!-- Jurilovca -->
      <g style="fill: #262626" transform="translate(107.758506 332.197812) scale(0.1 -0.1)">
       <defs>
        <path id="ArialMT-4a" d="M 184 1300 
L 731 1375 
Q 753 850 928 656 
Q 1103 463 1413 463 
Q 1641 463 1806 567 
Q 1972 672 2034 851 
Q 2097 1031 2097 1425 
L 2097 4581 
L 2703 4581 
L 2703 1459 
Q 2703 884 2564 568 
Q 2425 253 2123 87 
Q 1822 -78 1416 -78 
Q 813 -78 492 269 
Q 172 616 184 1300 
z
" transform="scale(0.015625)"/>
        <path id="ArialMT-75" d="M 2597 0 
L 2597 488 
Q 2209 -75 1544 -75 
Q 1250 -75 995 37 
Q 741 150 617 320 
Q 494 491 444 738 
Q 409 903 409 1263 
L 409 3319 
L 972 3319 
L 972 1478 
Q 972 1038 1006 884 
Q 1059 663 1231 536 
Q 1403 409 1656 409 
Q 1909 409 2131 539 
Q 2353 669 2445 892 
Q 2538 1116 2538 1541 
L 2538 3319 
L 3100 3319 
L 3100 0 
L 2597 0 
z
" transform="scale(0.015625)"/>
        <path id="ArialMT-72" d="M 416 0 
L 416 3319 
L 922 3319 
L 922 2816 
Q 1116 3169 1280 3281 
Q 1444 3394 1641 3394 
Q 1925 3394 2219 3213 
L 2025 2691 
Q 1819 2813 1613 2813 
Q 1428 2813 1281 2702 
Q 1134 2591 1072 2394 
Q 978 2094 978 1738 
L 978 0 
L 416 0 
z
" transform="scale(0.015625)"/>
        <path id="ArialMT-69" d="M 425 3934 
L 425 4581 
L 988 4581 
L 988 3934 
L 425 3934 
z
M 425 0 
L 425 3319 
L 988 3319 
L 988 0 
L 425 0 
z
" transform="scale(0.015625)"/>
        <path id="ArialMT-6c" d="M 409 0 
L 409 4581 
L 972 4581 
L 972 0 
L 409 0 
z
" transform="scale(0.015625)"/>
        <path id="ArialMT-6f" d="M 213 1659 
Q 213 2581 725 3025 
Q 1153 3394 1769 3394 
Q 2453 3394 2887 2945 
Q 3322 2497 3322 1706 
Q 3322 1066 3130 698 
Q 2938 331 2570 128 
Q 2203 -75 1769 -75 
Q 1072 -75 642 372 
Q 213 819 213 1659 
z
M 791 1659 
Q 791 1022 1069 705 
Q 1347 388 1769 388 
Q 2188 388 2466 706 
Q 2744 1025 2744 1678 
Q 2744 2294 2464 2611 
Q 2184 2928 1769 2928 
Q 1347 2928 1069 2612 
Q 791 2297 791 1659 
z
" transform="scale(0.015625)"/>
        <path id="ArialMT-76" d="M 1344 0 
L 81 3319 
L 675 3319 
L 1388 1331 
Q 1503 1009 1600 663 
Q 1675 925 1809 1294 
L 2547 3319 
L 3125 3319 
L 1869 0 
L 1344 0 
z
" transform="scale(0.015625)"/>
        <path id="ArialMT-63" d="M 2588 1216 
L 3141 1144 
Q 3050 572 2676 248 
Q 2303 -75 1759 -75 
Q 1078 -75 664 370 
Q 250 816 250 1647 
Q 250 2184 428 2587 
Q 606 2991 970 3192 
Q 1334 3394 1763 3394 
Q 2303 3394 2647 3120 
Q 2991 2847 3088 2344 
L 2541 2259 
Q 2463 2594 2264 2762 
Q 2066 2931 1784 2931 
Q 1359 2931 1093 2626 
Q 828 2322 828 1663 
Q 828 994 1084 691 
Q 1341 388 1753 388 
Q 2084 388 2306 591 
Q 2528 794 2588 1216 
z
" transform="scale(0.015625)"/>
        <path id="ArialMT-61" d="M 2588 409 
Q 2275 144 1986 34 
Q 1697 -75 1366 -75 
Q 819 -75 525 192 
Q 231 459 231 875 
Q 231 1119 342 1320 
Q 453 1522 633 1644 
Q 813 1766 1038 1828 
Q 1203 1872 1538 1913 
Q 2219 1994 2541 2106 
Q 2544 2222 2544 2253 
Q 2544 2597 2384 2738 
Q 2169 2928 1744 2928 
Q 1347 2928 1158 2789 
Q 969 2650 878 2297 
L 328 2372 
Q 403 2725 575 2942 
Q 747 3159 1072 3276 
Q 1397 3394 1825 3394 
Q 2250 3394 2515 3294 
Q 2781 3194 2906 3042 
Q 3031 2891 3081 2659 
Q 3109 2516 3109 2141 
L 3109 1391 
Q 3109 606 3145 398 
Q 3181 191 3288 0 
L 2700 0 
Q 2613 175 2588 409 
z
M 2541 1666 
Q 2234 1541 1622 1453 
Q 1275 1403 1131 1340 
Q 988 1278 909 1158 
Q 831 1038 831 891 
Q 831 666 1001 516 
Q 1172 366 1500 366 
Q 1825 366 2078 508 
Q 2331 650 2450 897 
Q 2541 1088 2541 1459 
L 2541 1666 
z
" transform="scale(0.015625)"/>
       </defs>
       <use xlink:href="#ArialMT-4a"/>
       <use xlink:href="#ArialMT-75" x="50"/>
       <use xlink:href="#ArialMT-72" x="105.615234"/>
       <use xlink:href="#ArialMT-69" x="138.916016"/>
       <use xlink:href="#ArialMT-6c" x="161.132812"/>
       <use xlink:href="#ArialMT-6f" x="183.349609"/>
       <use xlink:href="#ArialMT-76" x="238.964844"/>
       <use xlink:href="#ArialMT-63" x="288.964844"/>
       <use xlink:href="#ArialMT-61" x="338.964844"/>
      </g>
     </g>
    </g>
    <g id="xtick_2">
     <g id="text_2">
      <!-- Baia -->
      <g style="fill: #262626" transform="translate(281.511107 332.197812) scale(0.1 -0.1)">
       <defs>
        <path id="ArialMT-42" d="M 469 0 
L 469 4581 
L 2188 4581 
Q 2713 4581 3030 4442 
Q 3347 4303 3526 4014 
Q 3706 3725 3706 3409 
Q 3706 3116 3547 2856 
Q 3388 2597 3066 2438 
Q 3481 2316 3704 2022 
Q 3928 1728 3928 1328 
Q 3928 1006 3792 729 
Q 3656 453 3456 303 
Q 3256 153 2954 76 
Q 2653 0 2216 0 
L 469 0 
z
M 1075 2656 
L 2066 2656 
Q 2469 2656 2644 2709 
Q 2875 2778 2992 2937 
Q 3109 3097 3109 3338 
Q 3109 3566 3000 3739 
Q 2891 3913 2687 3977 
Q 2484 4041 1991 4041 
L 1075 4041 
L 1075 2656 
z
M 1075 541 
L 2216 541 
Q 2509 541 2628 563 
Q 2838 600 2978 687 
Q 3119 775 3209 942 
Q 3300 1109 3300 1328 
Q 3300 1584 3169 1773 
Q 3038 1963 2805 2039 
Q 2572 2116 2134 2116 
L 1075 2116 
L 1075 541 
z
" transform="scale(0.015625)"/>
       </defs>
       <use xlink:href="#ArialMT-42"/>
       <use xlink:href="#ArialMT-61" x="66.699219"/>
       <use xlink:href="#ArialMT-69" x="122.314453"/>
       <use xlink:href="#ArialMT-61" x="144.53125"/>
      </g>
     </g>
    </g>
    <g id="text_3">
     <!-- location -->
     <g style="fill: #262626" transform="translate(192.269572 345.343125) scale(0.1 -0.1)">
      <defs>
       <path id="ArialMT-74" d="M 1650 503 
L 1731 6 
Q 1494 -44 1306 -44 
Q 1000 -44 831 53 
Q 663 150 594 308 
Q 525 466 525 972 
L 525 2881 
L 113 2881 
L 113 3319 
L 525 3319 
L 525 4141 
L 1084 4478 
L 1084 3319 
L 1650 3319 
L 1650 2881 
L 1084 2881 
L 1084 941 
Q 1084 700 1114 631 
Q 1144 563 1211 522 
Q 1278 481 1403 481 
Q 1497 481 1650 503 
z
" transform="scale(0.015625)"/>
       <path id="ArialMT-6e" d="M 422 0 
L 422 3319 
L 928 3319 
L 928 2847 
Q 1294 3394 1984 3394 
Q 2284 3394 2536 3286 
Q 2788 3178 2913 3003 
Q 3038 2828 3088 2588 
Q 3119 2431 3119 2041 
L 3119 0 
L 2556 0 
L 2556 2019 
Q 2556 2363 2490 2533 
Q 2425 2703 2258 2804 
Q 2091 2906 1866 2906 
Q 1506 2906 1245 2678 
Q 984 2450 984 1813 
L 984 0 
L 422 0 
z
" transform="scale(0.015625)"/>
      </defs>
      <use xlink:href="#ArialMT-6c"/>
      <use xlink:href="#ArialMT-6f" x="22.216797"/>
      <use xlink:href="#ArialMT-63" x="77.832031"/>
      <use xlink:href="#ArialMT-61" x="127.832031"/>
      <use xlink:href="#ArialMT-74" x="183.447266"/>
      <use xlink:href="#ArialMT-69" x="211.230469"/>
      <use xlink:href="#ArialMT-6f" x="233.447266"/>
      <use xlink:href="#ArialMT-6e" x="289.0625"/>
     </g>
    </g>
   </g>
   <g id="matplotlib.axis_2">
    <g id="ytick_1">
     <g id="line2d_1">
      <path d="M 45.470877 311.918561 
L 373.533891 311.918561 
" clip-path="url(#p3dfdb6c9c9)" style="fill: none; stroke: #cccccc; stroke-width: 0.8; stroke-linecap: round"/>
     </g>
     <g id="text_4">
      <!-- 0 -->
      <g style="fill: #262626" transform="translate(32.90994 315.497468) scale(0.1 -0.1)">
       <defs>
        <path id="ArialMT-30" d="M 266 2259 
Q 266 3072 433 3567 
Q 600 4063 929 4331 
Q 1259 4600 1759 4600 
Q 2128 4600 2406 4451 
Q 2684 4303 2865 4023 
Q 3047 3744 3150 3342 
Q 3253 2941 3253 2259 
Q 3253 1453 3087 958 
Q 2922 463 2592 192 
Q 2263 -78 1759 -78 
Q 1097 -78 719 397 
Q 266 969 266 2259 
z
M 844 2259 
Q 844 1131 1108 757 
Q 1372 384 1759 384 
Q 2147 384 2411 759 
Q 2675 1134 2675 2259 
Q 2675 3391 2411 3762 
Q 2147 4134 1753 4134 
Q 1366 4134 1134 3806 
Q 844 3388 844 2259 
z
" transform="scale(0.015625)"/>
       </defs>
       <use xlink:href="#ArialMT-30"/>
      </g>
     </g>
    </g>
    <g id="ytick_2">
     <g id="line2d_2">
      <path d="M 45.470877 278.407744 
L 373.533891 278.407744 
" clip-path="url(#p3dfdb6c9c9)" style="fill: none; stroke: #cccccc; stroke-width: 0.8; stroke-linecap: round"/>
     </g>
     <g id="text_5">
      <!-- 2 -->
      <g style="fill: #262626" transform="translate(32.90994 281.98665) scale(0.1 -0.1)">
       <defs>
        <path id="ArialMT-32" d="M 3222 541 
L 3222 0 
L 194 0 
Q 188 203 259 391 
Q 375 700 629 1000 
Q 884 1300 1366 1694 
Q 2113 2306 2375 2664 
Q 2638 3022 2638 3341 
Q 2638 3675 2398 3904 
Q 2159 4134 1775 4134 
Q 1369 4134 1125 3890 
Q 881 3647 878 3216 
L 300 3275 
Q 359 3922 746 4261 
Q 1134 4600 1788 4600 
Q 2447 4600 2831 4234 
Q 3216 3869 3216 3328 
Q 3216 3053 3103 2787 
Q 2991 2522 2730 2228 
Q 2469 1934 1863 1422 
Q 1356 997 1212 845 
Q 1069 694 975 541 
L 3222 541 
z
" transform="scale(0.015625)"/>
       </defs>
       <use xlink:href="#ArialMT-32"/>
      </g>
     </g>
    </g>
    <g id="ytick_3">
     <g id="line2d_3">
      <path d="M 45.470877 244.896926 
L 373.533891 244.896926 
" clip-path="url(#p3dfdb6c9c9)" style="fill: none; stroke: #cccccc; stroke-width: 0.8; stroke-linecap: round"/>
     </g>
     <g id="text_6">
      <!-- 4 -->
      <g style="fill: #262626" transform="translate(32.90994 248.475832) scale(0.1 -0.1)">
       <defs>
        <path id="ArialMT-34" d="M 2069 0 
L 2069 1097 
L 81 1097 
L 81 1613 
L 2172 4581 
L 2631 4581 
L 2631 1613 
L 3250 1613 
L 3250 1097 
L 2631 1097 
L 2631 0 
L 2069 0 
z
M 2069 1613 
L 2069 3678 
L 634 1613 
L 2069 1613 
z
" transform="scale(0.015625)"/>
       </defs>
       <use xlink:href="#ArialMT-34"/>
      </g>
     </g>
    </g>
    <g id="ytick_4">
     <g id="line2d_4">
      <path d="M 45.470877 211.386108 
L 373.533891 211.386108 
" clip-path="url(#p3dfdb6c9c9)" style="fill: none; stroke: #cccccc; stroke-width: 0.8; stroke-linecap: round"/>
     </g>
     <g id="text_7">
      <!-- 6 -->
      <g style="fill: #262626" transform="translate(32.90994 214.965015) scale(0.1 -0.1)">
       <defs>
        <path id="ArialMT-36" d="M 3184 3459 
L 2625 3416 
Q 2550 3747 2413 3897 
Q 2184 4138 1850 4138 
Q 1581 4138 1378 3988 
Q 1113 3794 959 3422 
Q 806 3050 800 2363 
Q 1003 2672 1297 2822 
Q 1591 2972 1913 2972 
Q 2475 2972 2870 2558 
Q 3266 2144 3266 1488 
Q 3266 1056 3080 686 
Q 2894 316 2569 119 
Q 2244 -78 1831 -78 
Q 1128 -78 684 439 
Q 241 956 241 2144 
Q 241 3472 731 4075 
Q 1159 4600 1884 4600 
Q 2425 4600 2770 4297 
Q 3116 3994 3184 3459 
z
M 888 1484 
Q 888 1194 1011 928 
Q 1134 663 1356 523 
Q 1578 384 1822 384 
Q 2178 384 2434 671 
Q 2691 959 2691 1453 
Q 2691 1928 2437 2201 
Q 2184 2475 1800 2475 
Q 1419 2475 1153 2201 
Q 888 1928 888 1484 
z
" transform="scale(0.015625)"/>
       </defs>
       <use xlink:href="#ArialMT-36"/>
      </g>
     </g>
    </g>
    <g id="ytick_5">
     <g id="line2d_5">
      <path d="M 45.470877 177.875291 
L 373.533891 177.875291 
" clip-path="url(#p3dfdb6c9c9)" style="fill: none; stroke: #cccccc; stroke-width: 0.8; stroke-linecap: round"/>
     </g>
     <g id="text_8">
      <!-- 8 -->
      <g style="fill: #262626" transform="translate(32.90994 181.454197) scale(0.1 -0.1)">
       <defs>
        <path id="ArialMT-38" d="M 1131 2484 
Q 781 2613 612 2850 
Q 444 3088 444 3419 
Q 444 3919 803 4259 
Q 1163 4600 1759 4600 
Q 2359 4600 2725 4251 
Q 3091 3903 3091 3403 
Q 3091 3084 2923 2848 
Q 2756 2613 2416 2484 
Q 2838 2347 3058 2040 
Q 3278 1734 3278 1309 
Q 3278 722 2862 322 
Q 2447 -78 1769 -78 
Q 1091 -78 675 323 
Q 259 725 259 1325 
Q 259 1772 486 2073 
Q 713 2375 1131 2484 
z
M 1019 3438 
Q 1019 3113 1228 2906 
Q 1438 2700 1772 2700 
Q 2097 2700 2305 2904 
Q 2513 3109 2513 3406 
Q 2513 3716 2298 3927 
Q 2084 4138 1766 4138 
Q 1444 4138 1231 3931 
Q 1019 3725 1019 3438 
z
M 838 1322 
Q 838 1081 952 856 
Q 1066 631 1291 507 
Q 1516 384 1775 384 
Q 2178 384 2440 643 
Q 2703 903 2703 1303 
Q 2703 1709 2433 1975 
Q 2163 2241 1756 2241 
Q 1359 2241 1098 1978 
Q 838 1716 838 1322 
z
" transform="scale(0.015625)"/>
       </defs>
       <use xlink:href="#ArialMT-38"/>
      </g>
     </g>
    </g>
    <g id="ytick_6">
     <g id="line2d_6">
      <path d="M 45.470877 144.364473 
L 373.533891 144.364473 
" clip-path="url(#p3dfdb6c9c9)" style="fill: none; stroke: #cccccc; stroke-width: 0.8; stroke-linecap: round"/>
     </g>
     <g id="text_9">
      <!-- 10 -->
      <g style="fill: #262626" transform="translate(27.349002 147.943379) scale(0.1 -0.1)">
       <defs>
        <path id="ArialMT-31" d="M 2384 0 
L 1822 0 
L 1822 3584 
Q 1619 3391 1289 3197 
Q 959 3003 697 2906 
L 697 3450 
Q 1169 3672 1522 3987 
Q 1875 4303 2022 4600 
L 2384 4600 
L 2384 0 
z
" transform="scale(0.015625)"/>
       </defs>
       <use xlink:href="#ArialMT-31"/>
       <use xlink:href="#ArialMT-30" x="55.615234"/>
      </g>
     </g>
    </g>
    <g id="ytick_7">
     <g id="line2d_7">
      <path d="M 45.470877 110.853655 
L 373.533891 110.853655 
" clip-path="url(#p3dfdb6c9c9)" style="fill: none; stroke: #cccccc; stroke-width: 0.8; stroke-linecap: round"/>
     </g>
     <g id="text_10">
      <!-- 12 -->
      <g style="fill: #262626" transform="translate(27.349002 114.432562) scale(0.1 -0.1)">
       <use xlink:href="#ArialMT-31"/>
       <use xlink:href="#ArialMT-32" x="55.615234"/>
      </g>
     </g>
    </g>
    <g id="ytick_8">
     <g id="line2d_8">
      <path d="M 45.470877 77.342838 
L 373.533891 77.342838 
" clip-path="url(#p3dfdb6c9c9)" style="fill: none; stroke: #cccccc; stroke-width: 0.8; stroke-linecap: round"/>
     </g>
     <g id="text_11">
      <!-- 14 -->
      <g style="fill: #262626" transform="translate(27.349002 80.921744) scale(0.1 -0.1)">
       <use xlink:href="#ArialMT-31"/>
       <use xlink:href="#ArialMT-34" x="55.615234"/>
      </g>
     </g>
    </g>
    <g id="ytick_9">
     <g id="line2d_9">
      <path d="M 45.470877 43.83202 
L 373.533891 43.83202 
" clip-path="url(#p3dfdb6c9c9)" style="fill: none; stroke: #cccccc; stroke-width: 0.8; stroke-linecap: round"/>
     </g>
     <g id="text_12">
      <!-- 16 -->
      <g style="fill: #262626" transform="translate(27.349002 47.410926) scale(0.1 -0.1)">
       <use xlink:href="#ArialMT-31"/>
       <use xlink:href="#ArialMT-36" x="55.615234"/>
      </g>
     </g>
    </g>
    <g id="text_13">
     <!-- vo2pulse -->
     <g style="fill: #262626" transform="translate(21.361502 191.393281) rotate(-90) scale(0.1 -0.1)">
      <defs>
       <path id="ArialMT-70" d="M 422 -1272 
L 422 3319 
L 934 3319 
L 934 2888 
Q 1116 3141 1344 3267 
Q 1572 3394 1897 3394 
Q 2322 3394 2647 3175 
Q 2972 2956 3137 2557 
Q 3303 2159 3303 1684 
Q 3303 1175 3120 767 
Q 2938 359 2589 142 
Q 2241 -75 1856 -75 
Q 1575 -75 1351 44 
Q 1128 163 984 344 
L 984 -1272 
L 422 -1272 
z
M 931 1641 
Q 931 1000 1190 694 
Q 1450 388 1819 388 
Q 2194 388 2461 705 
Q 2728 1022 2728 1688 
Q 2728 2322 2467 2637 
Q 2206 2953 1844 2953 
Q 1484 2953 1207 2617 
Q 931 2281 931 1641 
z
" transform="scale(0.015625)"/>
       <path id="ArialMT-73" d="M 197 991 
L 753 1078 
Q 800 744 1014 566 
Q 1228 388 1613 388 
Q 2000 388 2187 545 
Q 2375 703 2375 916 
Q 2375 1106 2209 1216 
Q 2094 1291 1634 1406 
Q 1016 1563 777 1677 
Q 538 1791 414 1992 
Q 291 2194 291 2438 
Q 291 2659 392 2848 
Q 494 3038 669 3163 
Q 800 3259 1026 3326 
Q 1253 3394 1513 3394 
Q 1903 3394 2198 3281 
Q 2494 3169 2634 2976 
Q 2775 2784 2828 2463 
L 2278 2388 
Q 2241 2644 2061 2787 
Q 1881 2931 1553 2931 
Q 1166 2931 1000 2803 
Q 834 2675 834 2503 
Q 834 2394 903 2306 
Q 972 2216 1119 2156 
Q 1203 2125 1616 2013 
Q 2213 1853 2448 1751 
Q 2684 1650 2818 1456 
Q 2953 1263 2953 975 
Q 2953 694 2789 445 
Q 2625 197 2315 61 
Q 2006 -75 1616 -75 
Q 969 -75 630 194 
Q 291 463 197 991 
z
" transform="scale(0.015625)"/>
       <path id="ArialMT-65" d="M 2694 1069 
L 3275 997 
Q 3138 488 2766 206 
Q 2394 -75 1816 -75 
Q 1088 -75 661 373 
Q 234 822 234 1631 
Q 234 2469 665 2931 
Q 1097 3394 1784 3394 
Q 2450 3394 2872 2941 
Q 3294 2488 3294 1666 
Q 3294 1616 3291 1516 
L 816 1516 
Q 847 969 1125 678 
Q 1403 388 1819 388 
Q 2128 388 2347 550 
Q 2566 713 2694 1069 
z
M 847 1978 
L 2700 1978 
Q 2663 2397 2488 2606 
Q 2219 2931 1791 2931 
Q 1403 2931 1139 2672 
Q 875 2413 847 1978 
z
" transform="scale(0.015625)"/>
      </defs>
      <use xlink:href="#ArialMT-76"/>
      <use xlink:href="#ArialMT-6f" x="50"/>
      <use xlink:href="#ArialMT-32" x="105.615234"/>
      <use xlink:href="#ArialMT-70" x="161.230469"/>
      <use xlink:href="#ArialMT-75" x="216.845703"/>
      <use xlink:href="#ArialMT-6c" x="272.460938"/>
      <use xlink:href="#ArialMT-73" x="294.677734"/>
      <use xlink:href="#ArialMT-65" x="344.677734"/>
     </g>
    </g>
   </g>
   <g id="PolyCollection_1">
    <defs>
     <path id="m8d9cfcb3e2" d="M 95.781954 -81.729971 
L 93.578705 -81.729971 
L 93.378697 -83.027767 
L 93.153288 -84.325562 
L 92.901517 -85.623358 
L 92.622842 -86.921154 
L 92.317213 -88.21895 
L 91.985135 -89.516745 
L 91.627719 -90.814541 
L 91.24671 -92.112337 
L 90.844487 -93.410133 
L 90.424042 -94.707928 
L 89.988917 -96.005724 
L 89.543113 -97.30352 
L 89.09096 -98.601316 
L 88.636964 -99.899111 
L 88.185608 -101.196907 
L 87.741152 -102.494703 
L 87.307398 -103.792498 
L 86.887467 -105.090294 
L 86.483571 -106.38809 
L 86.096812 -107.685886 
L 85.727002 -108.983681 
L 85.372539 -110.281477 
L 85.030325 -111.579273 
L 84.695755 -112.877069 
L 84.362773 -114.174864 
L 84.024001 -115.47266 
L 83.670945 -116.770456 
L 83.294272 -118.068252 
L 82.884146 -119.366047 
L 82.43063 -120.663843 
L 81.924112 -121.961639 
L 81.35577 -123.259435 
L 80.718031 -124.55723 
L 80.005021 -125.855026 
L 79.212971 -127.152822 
L 78.340578 -128.450617 
L 77.389281 -129.748413 
L 76.363446 -131.046209 
L 75.270452 -132.344005 
L 74.120654 -133.6418 
L 72.927237 -134.939596 
L 71.705946 -136.237392 
L 70.474704 -137.535188 
L 69.253136 -138.832983 
L 68.061999 -140.130779 
L 66.922563 -141.428575 
L 65.85594 -142.726371 
L 64.882415 -144.024166 
L 64.020778 -145.321962 
L 63.287721 -146.619758 
L 62.697291 -147.917554 
L 62.260443 -149.215349 
L 61.984716 -150.513145 
L 61.874028 -151.810941 
L 61.928618 -153.108736 
L 62.14512 -154.406532 
L 62.516774 -155.704328 
L 63.033766 -157.002124 
L 63.68366 -158.299919 
L 64.451924 -159.597715 
L 65.322503 -160.895511 
L 66.278428 -162.193307 
L 67.302418 -163.491102 
L 68.377451 -164.788898 
L 69.487289 -166.086694 
L 70.61692 -167.38449 
L 71.752911 -168.682285 
L 72.883663 -169.980081 
L 73.999552 -171.277877 
L 75.092975 -172.575673 
L 76.158291 -173.873468 
L 77.191684 -175.171264 
L 78.190952 -176.46906 
L 79.155252 -177.766855 
L 80.084809 -179.064651 
L 80.980617 -180.362447 
L 81.844148 -181.660243 
L 82.677081 -182.958038 
L 83.481074 -184.255834 
L 84.257575 -185.55363 
L 85.007689 -186.851426 
L 85.732092 -188.149221 
L 86.431001 -189.447017 
L 87.104186 -190.744813 
L 87.751024 -192.042609 
L 88.370578 -193.340404 
L 88.961696 -194.6382 
L 89.52313 -195.935996 
L 90.053638 -197.233792 
L 90.552097 -198.531587 
L 91.017593 -199.829383 
L 91.449495 -201.127179 
L 91.847509 -202.424974 
L 92.21171 -203.72277 
L 92.542552 -205.020566 
L 92.840857 -206.318362 
L 93.107791 -207.616157 
L 93.344819 -208.913953 
L 93.55366 -210.211749 
L 95.806999 -210.211749 
L 95.806999 -210.211749 
L 96.015841 -208.913953 
L 96.252869 -207.616157 
L 96.519802 -206.318362 
L 96.818107 -205.020566 
L 97.148949 -203.72277 
L 97.51315 -202.424974 
L 97.911165 -201.127179 
L 98.343067 -199.829383 
L 98.808563 -198.531587 
L 99.307022 -197.233792 
L 99.837529 -195.935996 
L 100.398963 -194.6382 
L 100.990082 -193.340404 
L 101.609635 -192.042609 
L 102.256473 -190.744813 
L 102.929658 -189.447017 
L 103.628567 -188.149221 
L 104.35297 -186.851426 
L 105.103084 -185.55363 
L 105.879585 -184.255834 
L 106.683579 -182.958038 
L 107.516512 -181.660243 
L 108.380042 -180.362447 
L 109.27585 -179.064651 
L 110.205407 -177.766855 
L 111.169707 -176.46906 
L 112.168975 -175.171264 
L 113.202368 -173.873468 
L 114.267684 -172.575673 
L 115.361107 -171.277877 
L 116.476996 -169.980081 
L 117.607748 -168.682285 
L 118.74374 -167.38449 
L 119.87337 -166.086694 
L 120.983208 -164.788898 
L 122.058241 -163.491102 
L 123.082231 -162.193307 
L 124.038156 -160.895511 
L 124.908736 -159.597715 
L 125.676999 -158.299919 
L 126.326893 -157.002124 
L 126.843885 -155.704328 
L 127.21554 -154.406532 
L 127.432041 -153.108736 
L 127.486631 -151.810941 
L 127.375944 -150.513145 
L 127.100217 -149.215349 
L 126.663369 -147.917554 
L 126.072938 -146.619758 
L 125.339881 -145.321962 
L 124.478245 -144.024166 
L 123.504719 -142.726371 
L 122.438097 -141.428575 
L 121.29866 -140.130779 
L 120.107524 -138.832983 
L 118.885955 -137.535188 
L 117.654713 -136.237392 
L 116.433422 -134.939596 
L 115.240006 -133.6418 
L 114.090208 -132.344005 
L 112.997213 -131.046209 
L 111.971378 -129.748413 
L 111.020081 -128.450617 
L 110.147688 -127.152822 
L 109.355639 -125.855026 
L 108.642628 -124.55723 
L 108.004889 -123.259435 
L 107.436547 -121.961639 
L 106.930029 -120.663843 
L 106.476513 -119.366047 
L 106.066387 -118.068252 
L 105.689714 -116.770456 
L 105.336658 -115.47266 
L 104.997886 -114.174864 
L 104.664904 -112.877069 
L 104.330334 -111.579273 
L 103.98812 -110.281477 
L 103.633657 -108.983681 
L 103.263847 -107.685886 
L 102.877088 -106.38809 
L 102.473192 -105.090294 
L 102.053261 -103.792498 
L 101.619508 -102.494703 
L 101.175051 -101.196907 
L 100.723695 -99.899111 
L 100.269699 -98.601316 
L 99.817547 -97.30352 
L 99.371742 -96.005724 
L 98.936617 -94.707928 
L 98.516172 -93.410133 
L 98.113949 -92.112337 
L 97.73294 -90.814541 
L 97.375524 -89.516745 
L 97.043446 -88.21895 
L 96.737817 -86.921154 
L 96.459142 -85.623358 
L 96.207371 -84.325562 
L 95.981962 -83.027767 
L 95.781954 -81.729971 
z
" style="stroke: #3f3f3f; stroke-width: 1.25"/>
    </defs>
    <g clip-path="url(#p3dfdb6c9c9)">
     <use xlink:href="#m8d9cfcb3e2" x="0" y="360" style="fill: #3274a1; stroke: #3f3f3f; stroke-width: 1.25"/>
    </g>
   </g>
   <g id="PolyCollection_2">
    <defs>
     <path id="m73dd85a622" d="M 161.27328 -77.052794 
L 159.312584 -77.052794 
L 159.124474 -79.010499 
L 158.908339 -80.968204 
L 158.661631 -82.925909 
L 158.381861 -84.883614 
L 158.066654 -86.841319 
L 157.71381 -88.799024 
L 157.321367 -90.756729 
L 156.887662 -92.714434 
L 156.411394 -94.672139 
L 155.891685 -96.629844 
L 155.328132 -98.587549 
L 154.72086 -100.545254 
L 154.070557 -102.502959 
L 153.378512 -104.460664 
L 152.646637 -106.418369 
L 151.877473 -108.376074 
L 151.074198 -110.333779 
L 150.240611 -112.291484 
L 149.381115 -114.249189 
L 148.500682 -116.206894 
L 147.604816 -118.164599 
L 146.699498 -120.122304 
L 145.791133 -122.080009 
L 144.886482 -124.037714 
L 143.992594 -125.995419 
L 143.116722 -127.953124 
L 142.266253 -129.910829 
L 141.448613 -131.868534 
L 140.671181 -133.826239 
L 139.941198 -135.783944 
L 139.265672 -137.741648 
L 138.651279 -139.699353 
L 138.104269 -141.657058 
L 137.630363 -143.614763 
L 137.234654 -145.572468 
L 136.921518 -147.530173 
L 136.694511 -149.487878 
L 136.55629 -151.445583 
L 136.508526 -153.403288 
L 136.551841 -155.360993 
L 136.685748 -157.318698 
L 136.908612 -159.276403 
L 137.217631 -161.234108 
L 137.608835 -163.191813 
L 138.077112 -165.149518 
L 138.616265 -167.107223 
L 139.219085 -169.064928 
L 139.877466 -171.022633 
L 140.582538 -172.980338 
L 141.324829 -174.938043 
L 142.094456 -176.895748 
L 142.88132 -178.853453 
L 143.675332 -180.811158 
L 144.466636 -182.768863 
L 145.245833 -184.726568 
L 146.004203 -186.684273 
L 146.733906 -188.641978 
L 147.428163 -190.599683 
L 148.08141 -192.557388 
L 148.689408 -194.515093 
L 149.249322 -196.472798 
L 149.759749 -198.430503 
L 150.220702 -200.388208 
L 150.633549 -202.345913 
L 151.000904 -204.303618 
L 151.326489 -206.261323 
L 151.61495 -208.219028 
L 151.871654 -210.176733 
L 152.102469 -212.134438 
L 152.313525 -214.092143 
L 152.510991 -216.049848 
L 152.700847 -218.007553 
L 152.888683 -219.965258 
L 153.079519 -221.922963 
L 153.27766 -223.880668 
L 153.486582 -225.838373 
L 153.708865 -227.796078 
L 153.946156 -229.753783 
L 154.199175 -231.711488 
L 154.467763 -233.669193 
L 154.750946 -235.626897 
L 155.047044 -237.584602 
L 155.353784 -239.542307 
L 155.668438 -241.500012 
L 155.987958 -243.457717 
L 156.309119 -245.415422 
L 156.628653 -247.373127 
L 156.943368 -249.330832 
L 157.25026 -251.288537 
L 157.5466 -253.246242 
L 157.830004 -255.203947 
L 158.098481 -257.161652 
L 158.350461 -259.119357 
L 158.584806 -261.077062 
L 158.8008 -263.034767 
L 158.998127 -264.992472 
L 159.176838 -266.950177 
L 159.337306 -268.907882 
L 159.480179 -270.865587 
L 161.105686 -270.865587 
L 161.105686 -270.865587 
L 161.248558 -268.907882 
L 161.409026 -266.950177 
L 161.587737 -264.992472 
L 161.785065 -263.034767 
L 162.001059 -261.077062 
L 162.235404 -259.119357 
L 162.487384 -257.161652 
L 162.75586 -255.203947 
L 163.039264 -253.246242 
L 163.335605 -251.288537 
L 163.642497 -249.330832 
L 163.957212 -247.373127 
L 164.276746 -245.415422 
L 164.597907 -243.457717 
L 164.917427 -241.500012 
L 165.232081 -239.542307 
L 165.538821 -237.584602 
L 165.834919 -235.626897 
L 166.118102 -233.669193 
L 166.386689 -231.711488 
L 166.639709 -229.753783 
L 166.876999 -227.796078 
L 167.099282 -225.838373 
L 167.308205 -223.880668 
L 167.506346 -221.922963 
L 167.697182 -219.965258 
L 167.885018 -218.007553 
L 168.074874 -216.049848 
L 168.27234 -214.092143 
L 168.483396 -212.134438 
L 168.71421 -210.176733 
L 168.970915 -208.219028 
L 169.259376 -206.261323 
L 169.584961 -204.303618 
L 169.952316 -202.345913 
L 170.365162 -200.388208 
L 170.826115 -198.430503 
L 171.336543 -196.472798 
L 171.896457 -194.515093 
L 172.504455 -192.557388 
L 173.157701 -190.599683 
L 173.851959 -188.641978 
L 174.581662 -186.684273 
L 175.340032 -184.726568 
L 176.119229 -182.768863 
L 176.910533 -180.811158 
L 177.704545 -178.853453 
L 178.491409 -176.895748 
L 179.261035 -174.938043 
L 180.003327 -172.980338 
L 180.708399 -171.022633 
L 181.36678 -169.064928 
L 181.9696 -167.107223 
L 182.508752 -165.149518 
L 182.97703 -163.191813 
L 183.368234 -161.234108 
L 183.677253 -159.276403 
L 183.900117 -157.318698 
L 184.034024 -155.360993 
L 184.077339 -153.403288 
L 184.029575 -151.445583 
L 183.891353 -149.487878 
L 183.664347 -147.530173 
L 183.35121 -145.572468 
L 182.955502 -143.614763 
L 182.481595 -141.657058 
L 181.934585 -139.699353 
L 181.320193 -137.741648 
L 180.644667 -135.783944 
L 179.914684 -133.826239 
L 179.137252 -131.868534 
L 178.319611 -129.910829 
L 177.469142 -127.953124 
L 176.593271 -125.995419 
L 175.699382 -124.037714 
L 174.794732 -122.080009 
L 173.886367 -120.122304 
L 172.981049 -118.164599 
L 172.085182 -116.206894 
L 171.20475 -114.249189 
L 170.345253 -112.291484 
L 169.511667 -110.333779 
L 168.708392 -108.376074 
L 167.939228 -106.418369 
L 167.207352 -104.460664 
L 166.515308 -102.502959 
L 165.865005 -100.545254 
L 165.257732 -98.587549 
L 164.69418 -96.629844 
L 164.17447 -94.672139 
L 163.698203 -92.714434 
L 163.264498 -90.756729 
L 162.872055 -88.799024 
L 162.519211 -86.841319 
L 162.204004 -84.883614 
L 161.924234 -82.925909 
L 161.677525 -80.968204 
L 161.46139 -79.010499 
L 161.27328 -77.052794 
z
" style="stroke: #3f3f3f; stroke-width: 1.25"/>
    </defs>
    <g clip-path="url(#p3dfdb6c9c9)">
     <use xlink:href="#m73dd85a622" x="0" y="360" style="fill: #e1812c; stroke: #3f3f3f; stroke-width: 1.25"/>
    </g>
   </g>
   <g id="PolyCollection_3">
    <defs>
     <path id="me3518f4100" d="M 259.624259 -112.639894 
L 257.799415 -112.639894 
L 257.627803 -113.734409 
L 257.432102 -114.828923 
L 257.210523 -115.923438 
L 256.961405 -117.017952 
L 256.683243 -118.112466 
L 256.374717 -119.206981 
L 256.034715 -120.301495 
L 255.662336 -121.39601 
L 255.256891 -122.490524 
L 254.817881 -123.585038 
L 254.344974 -124.679553 
L 253.837958 -125.774067 
L 253.296692 -126.868582 
L 252.721048 -127.963096 
L 252.110857 -129.05761 
L 251.465856 -130.152125 
L 250.785643 -131.246639 
L 250.069659 -132.341154 
L 249.317186 -133.435668 
L 248.527379 -134.530182 
L 247.699333 -135.624697 
L 246.832177 -136.719211 
L 245.925216 -137.813726 
L 244.978099 -138.90824 
L 243.991012 -140.002754 
L 242.964891 -141.097269 
L 241.901648 -142.191783 
L 240.80438 -143.286298 
L 239.67756 -144.380812 
L 238.527199 -145.475326 
L 237.360941 -146.569841 
L 236.188103 -147.664355 
L 235.019634 -148.75887 
L 233.86799 -149.853384 
L 232.746914 -150.947898 
L 231.671136 -152.042413 
L 230.655986 -153.136927 
L 229.716939 -154.231442 
L 228.869105 -155.325956 
L 228.126685 -156.42047 
L 227.502418 -157.514985 
L 227.007045 -158.609499 
L 226.648818 -159.704014 
L 226.43307 -160.798528 
L 226.361887 -161.893042 
L 226.433892 -162.987557 
L 226.644148 -164.082071 
L 226.984216 -165.176586 
L 227.442336 -166.2711 
L 228.003766 -167.365614 
L 228.65123 -168.460129 
L 229.365495 -169.554643 
L 230.126025 -170.649158 
L 230.911706 -171.743672 
L 231.701596 -172.838186 
L 232.475688 -173.932701 
L 233.215624 -175.027215 
L 233.905362 -176.12173 
L 234.531745 -177.216244 
L 235.084948 -178.310758 
L 235.558798 -179.405273 
L 235.950939 -180.499787 
L 236.262844 -181.594302 
L 236.499673 -182.688816 
L 236.669973 -183.78333 
L 236.785259 -184.877845 
L 236.859472 -185.972359 
L 236.908348 -187.066874 
L 236.948729 -188.161388 
L 236.997849 -189.255902 
L 237.072618 -190.350417 
L 237.188938 -191.444931 
L 237.361092 -192.539446 
L 237.601208 -193.63396 
L 237.918844 -194.728474 
L 238.320682 -195.822989 
L 238.810365 -196.917503 
L 239.388461 -198.012018 
L 240.052547 -199.106532 
L 240.797426 -200.201046 
L 241.615426 -201.295561 
L 242.496795 -202.390075 
L 243.430148 -203.484589 
L 244.402945 -204.579104 
L 245.401993 -205.673618 
L 246.413918 -206.768133 
L 247.425625 -207.862647 
L 248.424697 -208.957161 
L 249.399732 -210.051676 
L 250.34062 -211.14619 
L 251.238733 -212.240705 
L 252.08705 -213.335219 
L 252.880199 -214.429733 
L 253.614449 -215.524248 
L 254.287623 -216.618762 
L 254.898989 -217.713277 
L 255.449095 -218.807791 
L 255.939592 -219.902305 
L 256.37304 -220.99682 
L 261.050633 -220.99682 
L 261.050633 -220.99682 
L 261.484081 -219.902305 
L 261.974578 -218.807791 
L 262.524684 -217.713277 
L 263.13605 -216.618762 
L 263.809225 -215.524248 
L 264.543474 -214.429733 
L 265.336624 -213.335219 
L 266.18494 -212.240705 
L 267.083053 -211.14619 
L 268.023941 -210.051676 
L 268.998976 -208.957161 
L 269.998048 -207.862647 
L 271.009755 -206.768133 
L 272.021681 -205.673618 
L 273.020728 -204.579104 
L 273.993525 -203.484589 
L 274.926878 -202.390075 
L 275.808247 -201.295561 
L 276.626247 -200.201046 
L 277.371126 -199.106532 
L 278.035212 -198.012018 
L 278.613308 -196.917503 
L 279.102992 -195.822989 
L 279.50483 -194.728474 
L 279.822465 -193.63396 
L 280.062581 -192.539446 
L 280.234735 -191.444931 
L 280.351055 -190.350417 
L 280.425824 -189.255902 
L 280.474944 -188.161388 
L 280.515326 -187.066874 
L 280.564201 -185.972359 
L 280.638414 -184.877845 
L 280.753701 -183.78333 
L 280.924001 -182.688816 
L 281.160829 -181.594302 
L 281.472735 -180.499787 
L 281.864875 -179.405273 
L 282.338725 -178.310758 
L 282.891928 -177.216244 
L 283.518311 -176.12173 
L 284.20805 -175.027215 
L 284.947986 -173.932701 
L 285.722077 -172.838186 
L 286.511968 -171.743672 
L 287.297648 -170.649158 
L 288.058178 -169.554643 
L 288.772443 -168.460129 
L 289.419907 -167.365614 
L 289.981337 -166.2711 
L 290.439457 -165.176586 
L 290.779525 -164.082071 
L 290.989781 -162.987557 
L 291.061786 -161.893042 
L 290.990604 -160.798528 
L 290.774855 -159.704014 
L 290.416628 -158.609499 
L 289.921255 -157.514985 
L 289.296988 -156.42047 
L 288.554568 -155.325956 
L 287.706734 -154.231442 
L 286.767687 -153.136927 
L 285.752537 -152.042413 
L 284.676759 -150.947898 
L 283.555683 -149.853384 
L 282.404039 -148.75887 
L 281.235571 -147.664355 
L 280.062732 -146.569841 
L 278.896474 -145.475326 
L 277.746113 -144.380812 
L 276.619294 -143.286298 
L 275.522025 -142.191783 
L 274.458782 -141.097269 
L 273.432662 -140.002754 
L 272.445574 -138.90824 
L 271.498457 -137.813726 
L 270.591496 -136.719211 
L 269.724341 -135.624697 
L 268.896294 -134.530182 
L 268.106488 -133.435668 
L 267.354015 -132.341154 
L 266.63803 -131.246639 
L 265.957817 -130.152125 
L 265.312816 -129.05761 
L 264.702625 -127.963096 
L 264.126982 -126.868582 
L 263.585715 -125.774067 
L 263.078699 -124.679553 
L 262.605792 -123.585038 
L 262.166783 -122.490524 
L 261.761337 -121.39601 
L 261.388958 -120.301495 
L 261.048956 -119.206981 
L 260.740431 -118.112466 
L 260.462268 -117.017952 
L 260.21315 -115.923438 
L 259.991572 -114.828923 
L 259.79587 -113.734409 
L 259.624259 -112.639894 
z
" style="stroke: #3f3f3f; stroke-width: 1.25"/>
    </defs>
    <g clip-path="url(#p3dfdb6c9c9)">
     <use xlink:href="#me3518f4100" x="0" y="360" style="fill: #3274a1; stroke: #3f3f3f; stroke-width: 1.25"/>
    </g>
   </g>
   <g id="PolyCollection_4">
    <defs>
     <path id="m1d3d6db328" d="M 325.716666 -113.228313 
L 322.932213 -113.228313 
L 322.653616 -114.354168 
L 322.332248 -115.480024 
L 321.964344 -116.60588 
L 321.54636 -117.731736 
L 321.075087 -118.857592 
L 320.547781 -119.983447 
L 319.962285 -121.109303 
L 319.317158 -122.235159 
L 318.611781 -123.361015 
L 317.846462 -124.48687 
L 317.022509 -125.612726 
L 316.142281 -126.738582 
L 315.209208 -127.864438 
L 314.22777 -128.990294 
L 313.203449 -130.116149 
L 312.142635 -131.242005 
L 311.052499 -132.367861 
L 309.940832 -133.493717 
L 308.815862 -134.619573 
L 307.686043 -135.745428 
L 306.559839 -136.871284 
L 305.445507 -137.99714 
L 304.350882 -139.122996 
L 303.283189 -140.248852 
L 302.248878 -141.374707 
L 301.253498 -142.500563 
L 300.301612 -143.626419 
L 299.396761 -144.752275 
L 298.541471 -145.878131 
L 297.737314 -147.003986 
L 296.985005 -148.129842 
L 296.284534 -149.255698 
L 295.635331 -150.381554 
L 295.036436 -151.507409 
L 294.486685 -152.633265 
L 293.984878 -153.759121 
L 293.529934 -154.884977 
L 293.121016 -156.010833 
L 292.757619 -157.136688 
L 292.439619 -158.262544 
L 292.167274 -159.3884 
L 291.941186 -160.514256 
L 291.76222 -161.640112 
L 291.631391 -162.765967 
L 291.549732 -163.891823 
L 291.518138 -165.017679 
L 291.537219 -166.143535 
L 291.607155 -167.269391 
L 291.72758 -168.395246 
L 291.897485 -169.521102 
L 292.115176 -170.646958 
L 292.378261 -171.772814 
L 292.683695 -172.89867 
L 293.027866 -174.024525 
L 293.406724 -175.150381 
L 293.815947 -176.276237 
L 294.25113 -177.402093 
L 294.707995 -178.527949 
L 295.182594 -179.653804 
L 295.671512 -180.77966 
L 296.172035 -181.905516 
L 296.682291 -183.031372 
L 297.201344 -184.157227 
L 297.729228 -185.283083 
L 298.266935 -186.408939 
L 298.816339 -187.534795 
L 299.380063 -188.660651 
L 299.961303 -189.786506 
L 300.563611 -190.912362 
L 301.190645 -192.038218 
L 301.845913 -193.164074 
L 302.532511 -194.28993 
L 303.252882 -195.415785 
L 304.008597 -196.541641 
L 304.800185 -197.667497 
L 305.627011 -198.793353 
L 306.487207 -199.919209 
L 307.377669 -201.045064 
L 308.294114 -202.17092 
L 309.23119 -203.296776 
L 310.182638 -204.422632 
L 311.141492 -205.548488 
L 312.100311 -206.674343 
L 313.051423 -207.800199 
L 313.987175 -208.926055 
L 314.900174 -210.051911 
L 315.783507 -211.177766 
L 316.630931 -212.303622 
L 317.437031 -213.429478 
L 318.197335 -214.555334 
L 318.908382 -215.68119 
L 319.567756 -216.807045 
L 320.174072 -217.932901 
L 320.726932 -219.058757 
L 321.226845 -220.184613 
L 321.675133 -221.310469 
L 322.073806 -222.436324 
L 322.425445 -223.56218 
L 322.733061 -224.688036 
L 325.915818 -224.688036 
L 325.915818 -224.688036 
L 326.223434 -223.56218 
L 326.575072 -222.436324 
L 326.973746 -221.310469 
L 327.422034 -220.184613 
L 327.921947 -219.058757 
L 328.474807 -217.932901 
L 329.081123 -216.807045 
L 329.740497 -215.68119 
L 330.451544 -214.555334 
L 331.211848 -213.429478 
L 332.017948 -212.303622 
L 332.865372 -211.177766 
L 333.748704 -210.051911 
L 334.661704 -208.926055 
L 335.597456 -207.800199 
L 336.548568 -206.674343 
L 337.507387 -205.548488 
L 338.466241 -204.422632 
L 339.417689 -203.296776 
L 340.354765 -202.17092 
L 341.27121 -201.045064 
L 342.161672 -199.919209 
L 343.021867 -198.793353 
L 343.848693 -197.667497 
L 344.640282 -196.541641 
L 345.395997 -195.415785 
L 346.116367 -194.28993 
L 346.802966 -193.164074 
L 347.458234 -192.038218 
L 348.085268 -190.912362 
L 348.687576 -189.786506 
L 349.268816 -188.660651 
L 349.83254 -187.534795 
L 350.381944 -186.408939 
L 350.919651 -185.283083 
L 351.447535 -184.157227 
L 351.966588 -183.031372 
L 352.476844 -181.905516 
L 352.977367 -180.77966 
L 353.466284 -179.653804 
L 353.940884 -178.527949 
L 354.397749 -177.402093 
L 354.832932 -176.276237 
L 355.242155 -175.150381 
L 355.621013 -174.024525 
L 355.965184 -172.89867 
L 356.270618 -171.772814 
L 356.533703 -170.646958 
L 356.751394 -169.521102 
L 356.921299 -168.395246 
L 357.041723 -167.269391 
L 357.11166 -166.143535 
L 357.130741 -165.017679 
L 357.099147 -163.891823 
L 357.017487 -162.765967 
L 356.886659 -161.640112 
L 356.707693 -160.514256 
L 356.481605 -159.3884 
L 356.20926 -158.262544 
L 355.89126 -157.136688 
L 355.527863 -156.010833 
L 355.118945 -154.884977 
L 354.664 -153.759121 
L 354.162193 -152.633265 
L 353.612442 -151.507409 
L 353.013548 -150.381554 
L 352.364345 -149.255698 
L 351.663874 -148.129842 
L 350.911565 -147.003986 
L 350.107408 -145.878131 
L 349.252118 -144.752275 
L 348.347266 -143.626419 
L 347.395381 -142.500563 
L 346.400001 -141.374707 
L 345.36569 -140.248852 
L 344.297997 -139.122996 
L 343.203372 -137.99714 
L 342.08904 -136.871284 
L 340.962836 -135.745428 
L 339.833017 -134.619573 
L 338.708047 -133.493717 
L 337.59638 -132.367861 
L 336.506244 -131.242005 
L 335.44543 -130.116149 
L 334.421109 -128.990294 
L 333.439671 -127.864438 
L 332.506597 -126.738582 
L 331.62637 -125.612726 
L 330.802417 -124.48687 
L 330.037098 -123.361015 
L 329.331721 -122.235159 
L 328.686593 -121.109303 
L 328.101098 -119.983447 
L 327.573792 -118.857592 
L 327.102519 -117.731736 
L 326.684535 -116.60588 
L 326.316631 -115.480024 
L 325.995262 -114.354168 
L 325.716666 -113.228313 
z
" style="stroke: #3f3f3f; stroke-width: 1.25"/>
    </defs>
    <g clip-path="url(#p3dfdb6c9c9)">
     <use xlink:href="#m1d3d6db328" x="0" y="360" style="fill: #e1812c; stroke: #3f3f3f; stroke-width: 1.25"/>
    </g>
   </g>
   <g id="line2d_10">
    <path d="M 94.68033 216.080925 
L 94.68033 203.758784 
" clip-path="url(#p3dfdb6c9c9)" style="fill: none; stroke: #3f3f3f; stroke-width: 1.875; stroke-linecap: round"/>
   </g>
   <g id="line2d_11">
    <path d="M 94.68033 214.699982 
L 94.68033 204.43361 
" clip-path="url(#p3dfdb6c9c9)" style="fill: none; stroke: #3f3f3f; stroke-width: 5.625; stroke-linecap: round"/>
   </g>
   <g id="line2d_12">
    <path d="M 94.68033 208.50762 
" clip-path="url(#p3dfdb6c9c9)" style="fill: none; stroke: #3f3f3f; stroke-width: 1.5; stroke-linecap: round"/>
    <defs>
     <path id="m0791572cf4" d="M 2.34375 0 
L -2.34375 -0 
" style="stroke: #ffffff; stroke-width: 1.125"/>
    </defs>
    <g clip-path="url(#p3dfdb6c9c9)">
     <use xlink:href="#m0791572cf4" x="94.68033" y="208.50762" style="fill: #ffffff; stroke: #ffffff; stroke-width: 1.125"/>
    </g>
   </g>
   <g id="line2d_13">
    <path d="M 160.292932 235.46221 
L 160.292932 186.178396 
" clip-path="url(#p3dfdb6c9c9)" style="fill: none; stroke: #3f3f3f; stroke-width: 1.875; stroke-linecap: round"/>
   </g>
   <g id="line2d_14">
    <path d="M 160.292932 214.243803 
L 160.292932 188.133506 
" clip-path="url(#p3dfdb6c9c9)" style="fill: none; stroke: #3f3f3f; stroke-width: 5.625; stroke-linecap: round"/>
   </g>
   <g id="line2d_15">
    <path d="M 160.292932 202.194381 
" clip-path="url(#p3dfdb6c9c9)" style="fill: none; stroke: #3f3f3f; stroke-width: 1.5; stroke-linecap: round"/>
    <g clip-path="url(#p3dfdb6c9c9)">
     <use xlink:href="#m0791572cf4" x="160.292932" y="202.194381" style="fill: #ffffff; stroke: #ffffff; stroke-width: 1.125"/>
    </g>
   </g>
   <g id="line2d_16">
    <path d="M 258.711837 221.533906 
L 258.711837 164.829379 
" clip-path="url(#p3dfdb6c9c9)" style="fill: none; stroke: #3f3f3f; stroke-width: 1.875; stroke-linecap: round"/>
   </g>
   <g id="line2d_17">
    <path d="M 258.711837 198.76506 
L 258.711837 166.939318 
" clip-path="url(#p3dfdb6c9c9)" style="fill: none; stroke: #3f3f3f; stroke-width: 5.625; stroke-linecap: round"/>
   </g>
   <g id="line2d_18">
    <path d="M 258.711837 196.847439 
" clip-path="url(#p3dfdb6c9c9)" style="fill: none; stroke: #3f3f3f; stroke-width: 1.5; stroke-linecap: round"/>
    <g clip-path="url(#p3dfdb6c9c9)">
     <use xlink:href="#m0791572cf4" x="258.711837" y="196.847439" style="fill: #ffffff; stroke: #ffffff; stroke-width: 1.125"/>
    </g>
   </g>
   <g id="line2d_19">
    <path d="M 324.324439 220.302742 
L 324.324439 161.780909 
" clip-path="url(#p3dfdb6c9c9)" style="fill: none; stroke: #3f3f3f; stroke-width: 1.875; stroke-linecap: round"/>
   </g>
   <g id="line2d_20">
    <path d="M 324.324439 207.301233 
L 324.324439 179.210271 
" clip-path="url(#p3dfdb6c9c9)" style="fill: none; stroke: #3f3f3f; stroke-width: 5.625; stroke-linecap: round"/>
   </g>
   <g id="line2d_21">
    <path d="M 324.324439 194.563971 
" clip-path="url(#p3dfdb6c9c9)" style="fill: none; stroke: #3f3f3f; stroke-width: 1.5; stroke-linecap: round"/>
    <g clip-path="url(#p3dfdb6c9c9)">
     <use xlink:href="#m0791572cf4" x="324.324439" y="194.563971" style="fill: #ffffff; stroke: #ffffff; stroke-width: 1.125"/>
    </g>
   </g>
   <g id="patch_3">
    <path d="M 45.470877 318.04 
L 45.470877 24.72 
" style="fill: none; stroke: #cccccc; stroke-width: 0.8; stroke-linejoin: miter; stroke-linecap: square"/>
   </g>
   <g id="patch_4">
    <path d="M 45.470878 318.04 
L 373.533891 318.04 
" style="fill: none; stroke: #cccccc; stroke-width: 0.8; stroke-linejoin: miter; stroke-linecap: square"/>
   </g>
   <g id="text_14">
    <!-- sex = f -->
    <g style="fill: #262626" transform="translate(194.634416 18.72) scale(0.1 -0.1)">
     <defs>
      <path id="ArialMT-78" d="M 47 0 
L 1259 1725 
L 138 3319 
L 841 3319 
L 1350 2541 
Q 1494 2319 1581 2169 
Q 1719 2375 1834 2534 
L 2394 3319 
L 3066 3319 
L 1919 1756 
L 3153 0 
L 2463 0 
L 1781 1031 
L 1600 1309 
L 728 0 
L 47 0 
z
" transform="scale(0.015625)"/>
      <path id="ArialMT-20" transform="scale(0.015625)"/>
      <path id="ArialMT-3d" d="M 3381 2694 
L 356 2694 
L 356 3219 
L 3381 3219 
L 3381 2694 
z
M 3381 1303 
L 356 1303 
L 356 1828 
L 3381 1828 
L 3381 1303 
z
" transform="scale(0.015625)"/>
      <path id="ArialMT-66" d="M 556 0 
L 556 2881 
L 59 2881 
L 59 3319 
L 556 3319 
L 556 3672 
Q 556 4006 616 4169 
Q 697 4388 901 4523 
Q 1106 4659 1475 4659 
Q 1713 4659 2000 4603 
L 1916 4113 
Q 1741 4144 1584 4144 
Q 1328 4144 1222 4034 
Q 1116 3925 1116 3625 
L 1116 3319 
L 1763 3319 
L 1763 2881 
L 1116 2881 
L 1116 0 
L 556 0 
z
" transform="scale(0.015625)"/>
     </defs>
     <use xlink:href="#ArialMT-73"/>
     <use xlink:href="#ArialMT-65" x="50"/>
     <use xlink:href="#ArialMT-78" x="105.615234"/>
     <use xlink:href="#ArialMT-20" x="155.615234"/>
     <use xlink:href="#ArialMT-3d" x="183.398438"/>
     <use xlink:href="#ArialMT-20" x="241.796875"/>
     <use xlink:href="#ArialMT-66" x="269.580078"/>
    </g>
   </g>
  </g>
  <g id="axes_2">
   <g id="patch_5">
    <path d="M 384.348186 318.04 
L 712.4112 318.04 
L 712.4112 24.72 
L 384.348186 24.72 
z
" style="fill: #ffffff"/>
   </g>
   <g id="matplotlib.axis_3">
    <g id="xtick_3">
     <g id="text_15">
      <!-- Baia -->
      <g style="fill: #262626" transform="translate(456.356908 332.197812) scale(0.1 -0.1)">
       <use xlink:href="#ArialMT-42"/>
       <use xlink:href="#ArialMT-61" x="66.699219"/>
       <use xlink:href="#ArialMT-69" x="122.314453"/>
       <use xlink:href="#ArialMT-61" x="144.53125"/>
      </g>
     </g>
    </g>
    <g id="xtick_4">
     <g id="text_16">
      <!-- Jurilovca -->
      <g style="fill: #262626" transform="translate(610.667322 332.197812) scale(0.1 -0.1)">
       <use xlink:href="#ArialMT-4a"/>
       <use xlink:href="#ArialMT-75" x="50"/>
       <use xlink:href="#ArialMT-72" x="105.615234"/>
       <use xlink:href="#ArialMT-69" x="138.916016"/>
       <use xlink:href="#ArialMT-6c" x="161.132812"/>
       <use xlink:href="#ArialMT-6f" x="183.349609"/>
       <use xlink:href="#ArialMT-76" x="238.964844"/>
       <use xlink:href="#ArialMT-63" x="288.964844"/>
       <use xlink:href="#ArialMT-61" x="338.964844"/>
      </g>
     </g>
    </g>
    <g id="text_17">
     <!-- location -->
     <g style="fill: #262626" transform="translate(531.146881 345.343125) scale(0.1 -0.1)">
      <use xlink:href="#ArialMT-6c"/>
      <use xlink:href="#ArialMT-6f" x="22.216797"/>
      <use xlink:href="#ArialMT-63" x="77.832031"/>
      <use xlink:href="#ArialMT-61" x="127.832031"/>
      <use xlink:href="#ArialMT-74" x="183.447266"/>
      <use xlink:href="#ArialMT-69" x="211.230469"/>
      <use xlink:href="#ArialMT-6f" x="233.447266"/>
      <use xlink:href="#ArialMT-6e" x="289.0625"/>
     </g>
    </g>
   </g>
   <g id="matplotlib.axis_4">
    <g id="ytick_10">
     <g id="line2d_22">
      <path d="M 384.348186 311.918561 
L 712.4112 311.918561 
" clip-path="url(#p3eaeb6de57)" style="fill: none; stroke: #cccccc; stroke-width: 0.8; stroke-linecap: round"/>
     </g>
    </g>
    <g id="ytick_11">
     <g id="line2d_23">
      <path d="M 384.348186 278.407744 
L 712.4112 278.407744 
" clip-path="url(#p3eaeb6de57)" style="fill: none; stroke: #cccccc; stroke-width: 0.8; stroke-linecap: round"/>
     </g>
    </g>
    <g id="ytick_12">
     <g id="line2d_24">
      <path d="M 384.348186 244.896926 
L 712.4112 244.896926 
" clip-path="url(#p3eaeb6de57)" style="fill: none; stroke: #cccccc; stroke-width: 0.8; stroke-linecap: round"/>
     </g>
    </g>
    <g id="ytick_13">
     <g id="line2d_25">
      <path d="M 384.348186 211.386108 
L 712.4112 211.386108 
" clip-path="url(#p3eaeb6de57)" style="fill: none; stroke: #cccccc; stroke-width: 0.8; stroke-linecap: round"/>
     </g>
    </g>
    <g id="ytick_14">
     <g id="line2d_26">
      <path d="M 384.348186 177.875291 
L 712.4112 177.875291 
" clip-path="url(#p3eaeb6de57)" style="fill: none; stroke: #cccccc; stroke-width: 0.8; stroke-linecap: round"/>
     </g>
    </g>
    <g id="ytick_15">
     <g id="line2d_27">
      <path d="M 384.348186 144.364473 
L 712.4112 144.364473 
" clip-path="url(#p3eaeb6de57)" style="fill: none; stroke: #cccccc; stroke-width: 0.8; stroke-linecap: round"/>
     </g>
    </g>
    <g id="ytick_16">
     <g id="line2d_28">
      <path d="M 384.348186 110.853655 
L 712.4112 110.853655 
" clip-path="url(#p3eaeb6de57)" style="fill: none; stroke: #cccccc; stroke-width: 0.8; stroke-linecap: round"/>
     </g>
    </g>
    <g id="ytick_17">
     <g id="line2d_29">
      <path d="M 384.348186 77.342838 
L 712.4112 77.342838 
" clip-path="url(#p3eaeb6de57)" style="fill: none; stroke: #cccccc; stroke-width: 0.8; stroke-linecap: round"/>
     </g>
    </g>
    <g id="ytick_18">
     <g id="line2d_30">
      <path d="M 384.348186 43.83202 
L 712.4112 43.83202 
" clip-path="url(#p3eaeb6de57)" style="fill: none; stroke: #cccccc; stroke-width: 0.8; stroke-linecap: round"/>
     </g>
    </g>
   </g>
   <g id="PolyCollection_5">
    <defs>
     <path id="mc77ad8d728" d="M 434.78285 -124.898142 
L 432.332426 -124.898142 
L 431.978643 -126.888538 
L 431.545608 -128.878933 
L 431.022439 -130.869328 
L 430.398596 -132.859724 
L 429.664403 -134.850119 
L 428.811644 -136.840514 
L 427.834177 -138.830909 
L 426.728545 -140.821305 
L 425.494538 -142.8117 
L 424.135657 -144.802095 
L 422.659448 -146.79249 
L 421.077663 -148.782886 
L 419.406229 -150.773281 
L 417.665013 -152.763676 
L 415.877387 -154.754071 
L 414.069614 -156.744467 
L 412.270089 -158.734862 
L 410.508482 -160.725257 
L 408.814832 -162.715652 
L 407.218647 -164.706048 
L 405.748055 -166.696443 
L 404.42905 -168.686838 
L 403.28485 -170.677233 
L 402.335396 -172.667629 
L 401.596973 -174.658024 
L 401.08196 -176.648419 
L 400.798682 -178.638814 
L 400.751337 -180.62921 
L 400.94 -182.619605 
L 401.360669 -184.61 
L 402.005358 -186.600395 
L 402.862242 -188.590791 
L 403.915852 -190.581186 
L 405.147348 -192.571581 
L 406.534873 -194.561976 
L 408.054009 -196.552372 
L 409.678326 -198.542767 
L 411.380034 -200.533162 
L 413.130706 -202.523557 
L 414.902055 -204.513953 
L 416.666728 -206.504348 
L 418.399066 -208.494743 
L 420.0758 -210.485138 
L 421.676637 -212.475534 
L 423.184704 -214.465929 
L 424.586828 -216.456324 
L 425.873641 -218.446719 
L 427.039517 -220.437115 
L 428.082344 -222.42751 
L 429.003176 -224.417905 
L 429.805765 -226.4083 
L 430.496039 -228.398696 
L 431.081545 -230.389091 
L 431.570894 -232.379486 
L 431.973235 -234.369882 
L 432.297794 -236.360277 
L 432.553479 -238.350672 
L 432.748574 -240.341067 
L 432.890524 -242.331463 
L 432.985805 -244.321858 
L 433.039887 -246.312253 
L 433.057267 -248.302648 
L 433.041571 -250.293044 
L 432.995711 -252.283439 
L 432.922081 -254.273834 
L 432.822781 -256.264229 
L 432.699844 -258.254625 
L 432.555459 -260.24502 
L 432.392174 -262.235415 
L 432.213051 -264.22581 
L 432.021774 -266.216206 
L 431.822689 -268.206601 
L 431.620776 -270.196996 
L 431.421547 -272.187391 
L 431.230871 -274.177787 
L 431.054745 -276.168182 
L 430.899022 -278.158577 
L 430.769113 -280.148972 
L 430.669698 -282.139368 
L 430.604455 -284.129763 
L 430.575844 -286.120158 
L 430.58496 -288.110553 
L 430.631466 -290.100949 
L 430.713616 -292.091344 
L 430.828366 -294.081739 
L 430.971563 -296.072134 
L 431.138193 -298.06253 
L 431.322674 -300.052925 
L 431.519162 -302.04332 
L 431.721857 -304.033715 
L 431.925276 -306.024111 
L 432.124487 -308.014506 
L 432.315277 -310.004901 
L 432.49427 -311.995296 
L 432.658969 -313.985692 
L 432.807751 -315.976087 
L 432.939803 -317.966482 
L 433.055031 -319.956877 
L 433.153932 -321.947273 
L 433.961344 -321.947273 
L 433.961344 -321.947273 
L 434.060246 -319.956877 
L 434.175473 -317.966482 
L 434.307525 -315.976087 
L 434.456307 -313.985692 
L 434.621006 -311.995296 
L 434.799999 -310.004901 
L 434.990789 -308.014506 
L 435.19 -306.024111 
L 435.39342 -304.033715 
L 435.596115 -302.04332 
L 435.792602 -300.052925 
L 435.977083 -298.06253 
L 436.143713 -296.072134 
L 436.28691 -294.081739 
L 436.40166 -292.091344 
L 436.48381 -290.100949 
L 436.530316 -288.110553 
L 436.539432 -286.120158 
L 436.510821 -284.129763 
L 436.445578 -282.139368 
L 436.346163 -280.148972 
L 436.216254 -278.158577 
L 436.060531 -276.168182 
L 435.884405 -274.177787 
L 435.693729 -272.187391 
L 435.4945 -270.196996 
L 435.292588 -268.206601 
L 435.093503 -266.216206 
L 434.902225 -264.22581 
L 434.723102 -262.235415 
L 434.559817 -260.24502 
L 434.415432 -258.254625 
L 434.292495 -256.264229 
L 434.193195 -254.273834 
L 434.119566 -252.283439 
L 434.073705 -250.293044 
L 434.058009 -248.302648 
L 434.075389 -246.312253 
L 434.129471 -244.321858 
L 434.224752 -242.331463 
L 434.366702 -240.341067 
L 434.561797 -238.350672 
L 434.817482 -236.360277 
L 435.142041 -234.369882 
L 435.544382 -232.379486 
L 436.033731 -230.389091 
L 436.619237 -228.398696 
L 437.309512 -226.4083 
L 438.1121 -224.417905 
L 439.032932 -222.42751 
L 440.07576 -220.437115 
L 441.241635 -218.446719 
L 442.528448 -216.456324 
L 443.930572 -214.465929 
L 445.438639 -212.475534 
L 447.039476 -210.485138 
L 448.71621 -208.494743 
L 450.448548 -206.504348 
L 452.213221 -204.513953 
L 453.98457 -202.523557 
L 455.735242 -200.533162 
L 457.43695 -198.542767 
L 459.061267 -196.552372 
L 460.580403 -194.561976 
L 461.967928 -192.571581 
L 463.199424 -190.581186 
L 464.253034 -188.590791 
L 465.109918 -186.600395 
L 465.754607 -184.61 
L 466.175276 -182.619605 
L 466.36394 -180.62921 
L 466.316594 -178.638814 
L 466.033316 -176.648419 
L 465.518303 -174.658024 
L 464.77988 -172.667629 
L 463.830426 -170.677233 
L 462.686226 -168.686838 
L 461.367221 -166.696443 
L 459.89663 -164.706048 
L 458.300444 -162.715652 
L 456.606794 -160.725257 
L 454.845187 -158.734862 
L 453.045662 -156.744467 
L 451.237889 -154.754071 
L 449.450263 -152.763676 
L 447.709047 -150.773281 
L 446.037613 -148.782886 
L 444.455828 -146.79249 
L 442.979619 -144.802095 
L 441.620739 -142.8117 
L 440.386731 -140.821305 
L 439.2811 -138.830909 
L 438.303632 -136.840514 
L 437.450873 -134.850119 
L 436.71668 -132.859724 
L 436.092837 -130.869328 
L 435.569669 -128.878933 
L 435.136633 -126.888538 
L 434.78285 -124.898142 
z
" style="stroke: #3f3f3f; stroke-width: 1.25"/>
    </defs>
    <g clip-path="url(#p3eaeb6de57)">
     <use xlink:href="#mc77ad8d728" x="0" y="360" style="fill: #3274a1; stroke: #3f3f3f; stroke-width: 1.25"/>
    </g>
   </g>
   <g id="PolyCollection_6">
    <defs>
     <path id="mfa4816caba" d="M 499.672877 -83.075951 
L 498.667605 -83.075951 
L 498.544908 -84.791389 
L 498.401835 -86.506828 
L 498.237608 -88.222266 
L 498.052105 -89.937705 
L 497.845988 -91.653143 
L 497.62079 -93.368582 
L 497.378969 -95.08402 
L 497.123887 -96.799459 
L 496.859721 -98.514898 
L 496.591297 -100.230336 
L 496.323855 -101.945775 
L 496.062733 -103.661213 
L 495.813021 -105.376652 
L 495.579173 -107.09209 
L 495.364632 -108.807529 
L 495.17149 -110.522967 
L 495.000207 -112.238406 
L 494.849429 -113.953844 
L 494.715918 -115.669283 
L 494.594602 -117.384722 
L 494.478755 -119.10016 
L 494.360284 -120.815599 
L 494.230119 -122.531037 
L 494.078656 -124.246476 
L 493.896234 -125.961914 
L 493.67361 -127.677353 
L 493.402388 -129.392791 
L 493.075383 -131.10823 
L 492.686899 -132.823668 
L 492.232905 -134.539107 
L 491.711108 -136.254546 
L 491.120938 -137.969984 
L 490.463438 -139.685423 
L 489.7411 -141.400861 
L 488.957648 -143.1163 
L 488.117797 -144.831738 
L 487.226994 -146.547177 
L 486.291166 -148.262615 
L 485.31648 -149.978054 
L 484.309126 -151.693492 
L 483.275125 -153.408931 
L 482.220186 -155.12437 
L 481.149609 -156.839808 
L 480.068246 -158.555247 
L 478.980542 -160.270685 
L 477.890651 -161.986124 
L 476.802649 -163.701562 
L 475.720827 -165.417001 
L 474.650059 -167.132439 
L 473.596217 -168.847878 
L 472.566609 -170.563317 
L 471.570371 -172.278755 
L 470.618776 -173.994194 
L 469.725402 -175.709632 
L 468.906098 -177.425071 
L 468.178714 -179.140509 
L 467.562586 -180.855948 
L 467.077753 -182.571386 
L 466.743972 -184.286825 
L 466.579566 -186.002263 
L 466.600195 -187.717702 
L 466.81766 -189.433141 
L 467.238833 -191.148579 
L 467.86483 -192.864018 
L 468.690505 -194.579456 
L 469.704339 -196.294895 
L 470.888741 -198.010333 
L 472.220752 -199.725772 
L 473.673119 -201.44121 
L 475.215631 -203.156649 
L 476.816636 -204.872087 
L 478.444598 -206.587526 
L 480.069584 -208.302965 
L 481.664561 -210.018403 
L 483.206413 -211.733842 
L 484.676626 -213.44928 
L 486.061609 -215.164719 
L 487.352652 -216.880157 
L 488.545587 -218.595596 
L 489.640181 -220.311034 
L 490.639375 -222.026473 
L 491.548431 -223.741911 
L 492.374079 -225.45735 
L 493.123741 -227.172789 
L 493.804865 -228.888227 
L 494.424434 -230.603666 
L 494.98863 -232.319104 
L 495.50267 -234.034543 
L 495.970785 -235.749981 
L 496.396308 -237.46542 
L 496.78184 -239.180858 
L 497.129454 -240.896297 
L 497.440904 -242.611736 
L 497.71782 -244.327174 
L 497.961858 -246.042613 
L 498.174808 -247.758051 
L 498.358648 -249.47349 
L 498.51556 -251.188928 
L 498.647896 -252.904367 
L 499.692586 -252.904367 
L 499.692586 -252.904367 
L 499.824922 -251.188928 
L 499.981833 -249.47349 
L 500.165674 -247.758051 
L 500.378624 -246.042613 
L 500.622662 -244.327174 
L 500.899578 -242.611736 
L 501.211028 -240.896297 
L 501.558642 -239.180858 
L 501.944174 -237.46542 
L 502.369697 -235.749981 
L 502.837812 -234.034543 
L 503.351852 -232.319104 
L 503.916048 -230.603666 
L 504.535617 -228.888227 
L 505.216741 -227.172789 
L 505.966402 -225.45735 
L 506.792051 -223.741911 
L 507.701107 -222.026473 
L 508.700301 -220.311034 
L 509.794895 -218.595596 
L 510.987829 -216.880157 
L 512.278873 -215.164719 
L 513.663855 -213.44928 
L 515.134069 -211.733842 
L 516.675921 -210.018403 
L 518.270898 -208.302965 
L 519.895884 -206.587526 
L 521.523846 -204.872087 
L 523.124851 -203.156649 
L 524.667363 -201.44121 
L 526.11973 -199.725772 
L 527.451741 -198.010333 
L 528.636143 -196.294895 
L 529.649977 -194.579456 
L 530.475652 -192.864018 
L 531.101648 -191.148579 
L 531.522821 -189.433141 
L 531.740286 -187.717702 
L 531.760916 -186.002263 
L 531.59651 -184.286825 
L 531.262729 -182.571386 
L 530.777896 -180.855948 
L 530.161767 -179.140509 
L 529.434384 -177.425071 
L 528.61508 -175.709632 
L 527.721706 -173.994194 
L 526.770111 -172.278755 
L 525.773873 -170.563317 
L 524.744265 -168.847878 
L 523.690423 -167.132439 
L 522.619655 -165.417001 
L 521.537833 -163.701562 
L 520.449831 -161.986124 
L 519.35994 -160.270685 
L 518.272235 -158.555247 
L 517.190872 -156.839808 
L 516.120296 -155.12437 
L 515.065357 -153.408931 
L 514.031356 -151.693492 
L 513.024002 -149.978054 
L 512.049316 -148.262615 
L 511.113488 -146.547177 
L 510.222685 -144.831738 
L 509.382834 -143.1163 
L 508.599382 -141.400861 
L 507.877044 -139.685423 
L 507.219544 -137.969984 
L 506.629373 -136.254546 
L 506.107577 -134.539107 
L 505.653583 -132.823668 
L 505.265099 -131.10823 
L 504.938094 -129.392791 
L 504.666871 -127.677353 
L 504.444248 -125.961914 
L 504.261826 -124.246476 
L 504.110363 -122.531037 
L 503.980198 -120.815599 
L 503.861727 -119.10016 
L 503.745879 -117.384722 
L 503.624563 -115.669283 
L 503.491053 -113.953844 
L 503.340275 -112.238406 
L 503.168992 -110.522967 
L 502.97585 -108.807529 
L 502.761309 -107.09209 
L 502.527461 -105.376652 
L 502.277748 -103.661213 
L 502.016627 -101.945775 
L 501.749184 -100.230336 
L 501.480761 -98.514898 
L 501.216595 -96.799459 
L 500.961512 -95.08402 
L 500.719692 -93.368582 
L 500.494494 -91.653143 
L 500.288376 -89.937705 
L 500.102874 -88.222266 
L 499.938647 -86.506828 
L 499.795574 -84.791389 
L 499.672877 -83.075951 
z
" style="stroke: #3f3f3f; stroke-width: 1.25"/>
    </defs>
    <g clip-path="url(#p3eaeb6de57)">
     <use xlink:href="#mfa4816caba" x="0" y="360" style="fill: #e1812c; stroke: #3f3f3f; stroke-width: 1.25"/>
    </g>
   </g>
   <g id="PolyCollection_7">
    <defs>
     <path id="mc6985cbf11" d="M 598.178879 -55.292727 
L 596.999411 -55.292727 
L 596.868953 -57.753465 
L 596.716071 -60.214203 
L 596.5384 -62.674941 
L 596.333632 -65.135679 
L 596.099584 -67.596417 
L 595.834269 -70.057154 
L 595.535977 -72.517892 
L 595.203349 -74.97863 
L 594.835455 -77.439368 
L 594.43186 -79.900106 
L 593.992684 -82.360844 
L 593.518651 -84.821582 
L 593.01112 -87.282319 
L 592.472099 -89.743057 
L 591.904239 -92.203795 
L 591.310811 -94.664533 
L 590.695658 -97.125271 
L 590.063127 -99.586009 
L 589.417994 -102.046747 
L 588.765353 -104.507484 
L 588.110515 -106.968222 
L 587.458881 -109.42896 
L 586.815825 -111.889698 
L 586.186566 -114.350436 
L 585.576056 -116.811174 
L 584.988872 -119.271912 
L 584.429128 -121.73265 
L 583.900403 -124.193387 
L 583.405694 -126.654125 
L 582.947397 -129.114863 
L 582.527311 -131.575601 
L 582.146668 -134.036339 
L 581.806197 -136.497077 
L 581.506202 -138.957815 
L 581.246664 -141.418552 
L 581.027352 -143.87929 
L 580.847939 -146.340028 
L 580.708123 -148.800766 
L 580.607724 -151.261504 
L 580.546775 -153.722242 
L 580.525571 -156.18298 
L 580.5447 -158.643717 
L 580.605025 -161.104455 
L 580.70763 -163.565193 
L 580.853724 -166.025931 
L 581.044515 -168.486669 
L 581.281056 -170.947407 
L 581.564064 -173.408145 
L 581.893744 -175.868882 
L 582.269613 -178.32962 
L 582.690349 -180.790358 
L 583.153667 -183.251096 
L 583.65625 -185.711834 
L 584.193726 -188.172572 
L 584.760707 -190.63331 
L 585.35089 -193.094048 
L 585.957218 -195.554785 
L 586.572089 -198.015523 
L 587.187608 -200.476261 
L 587.795866 -202.936999 
L 588.389232 -205.397737 
L 588.960643 -207.858475 
L 589.503862 -210.319213 
L 590.013715 -212.77995 
L 590.486264 -215.240688 
L 590.918931 -217.701426 
L 591.310548 -220.162164 
L 591.661347 -222.622902 
L 591.972879 -225.08364 
L 592.247877 -227.544378 
L 592.490064 -230.005115 
L 592.70393 -232.465853 
L 592.894477 -234.926591 
L 593.066957 -237.387329 
L 593.226617 -239.848067 
L 593.378457 -242.308805 
L 593.527019 -244.769543 
L 593.676218 -247.23028 
L 593.829212 -249.691018 
L 593.988326 -252.151756 
L 594.155023 -254.612494 
L 594.329918 -257.073232 
L 594.51284 -259.53397 
L 594.702921 -261.994708 
L 594.898715 -264.455445 
L 595.098335 -266.916183 
L 595.299595 -269.376921 
L 595.500149 -271.837659 
L 595.697632 -274.298397 
L 595.88977 -276.759135 
L 596.074489 -279.219873 
L 596.249984 -281.680611 
L 596.414779 -284.141348 
L 596.567753 -286.602086 
L 596.708154 -289.062824 
L 596.835585 -291.523562 
L 596.949978 -293.9843 
L 597.051563 -296.445038 
L 597.140814 -298.905776 
L 598.037476 -298.905776 
L 598.037476 -298.905776 
L 598.126728 -296.445038 
L 598.228312 -293.9843 
L 598.342705 -291.523562 
L 598.470136 -289.062824 
L 598.610537 -286.602086 
L 598.763511 -284.141348 
L 598.928306 -281.680611 
L 599.103801 -279.219873 
L 599.28852 -276.759135 
L 599.480659 -274.298397 
L 599.678141 -271.837659 
L 599.878695 -269.376921 
L 600.079955 -266.916183 
L 600.279575 -264.455445 
L 600.475369 -261.994708 
L 600.66545 -259.53397 
L 600.848372 -257.073232 
L 601.023268 -254.612494 
L 601.189964 -252.151756 
L 601.349079 -249.691018 
L 601.502072 -247.23028 
L 601.651271 -244.769543 
L 601.799833 -242.308805 
L 601.951673 -239.848067 
L 602.111333 -237.387329 
L 602.283814 -234.926591 
L 602.47436 -232.465853 
L 602.688226 -230.005115 
L 602.930414 -227.544378 
L 603.205411 -225.08364 
L 603.516943 -222.622902 
L 603.867742 -220.162164 
L 604.259359 -217.701426 
L 604.692026 -215.240688 
L 605.164575 -212.77995 
L 605.674428 -210.319213 
L 606.217647 -207.858475 
L 606.789058 -205.397737 
L 607.382424 -202.936999 
L 607.990682 -200.476261 
L 608.606201 -198.015523 
L 609.221072 -195.554785 
L 609.8274 -193.094048 
L 610.417584 -190.63331 
L 610.984564 -188.172572 
L 611.52204 -185.711834 
L 612.024623 -183.251096 
L 612.487941 -180.790358 
L 612.908677 -178.32962 
L 613.284546 -175.868882 
L 613.614226 -173.408145 
L 613.897234 -170.947407 
L 614.133775 -168.486669 
L 614.324567 -166.025931 
L 614.47066 -163.565193 
L 614.573265 -161.104455 
L 614.63359 -158.643717 
L 614.65272 -156.18298 
L 614.631516 -153.722242 
L 614.570566 -151.261504 
L 614.470167 -148.800766 
L 614.330351 -146.340028 
L 614.150939 -143.87929 
L 613.931626 -141.418552 
L 613.672088 -138.957815 
L 613.372094 -136.497077 
L 613.031623 -134.036339 
L 612.65098 -131.575601 
L 612.230893 -129.114863 
L 611.772596 -126.654125 
L 611.277887 -124.193387 
L 610.749162 -121.73265 
L 610.189418 -119.271912 
L 609.602234 -116.811174 
L 608.991724 -114.350436 
L 608.362465 -111.889698 
L 607.719409 -109.42896 
L 607.067776 -106.968222 
L 606.412937 -104.507484 
L 605.760296 -102.046747 
L 605.115163 -99.586009 
L 604.482633 -97.125271 
L 603.867479 -94.664533 
L 603.274051 -92.203795 
L 602.706191 -89.743057 
L 602.16717 -87.282319 
L 601.659639 -84.821582 
L 601.185606 -82.360844 
L 600.74643 -79.900106 
L 600.342835 -77.439368 
L 599.974941 -74.97863 
L 599.642313 -72.517892 
L 599.344021 -70.057154 
L 599.078706 -67.596417 
L 598.844658 -65.135679 
L 598.63989 -62.674941 
L 598.462219 -60.214203 
L 598.309337 -57.753465 
L 598.178879 -55.292727 
z
" style="stroke: #3f3f3f; stroke-width: 1.25"/>
    </defs>
    <g clip-path="url(#p3eaeb6de57)">
     <use xlink:href="#mc6985cbf11" x="0" y="360" style="fill: #3274a1; stroke: #3f3f3f; stroke-width: 1.25"/>
    </g>
   </g>
   <g id="PolyCollection_8">
    <defs>
     <path id="m1df8be1da7" d="M 665.064067 -112.7952 
L 661.339429 -112.7952 
L 660.99322 -113.834935 
L 660.598769 -114.87467 
L 660.15264 -115.914405 
L 659.65177 -116.95414 
L 659.093596 -117.993875 
L 658.476176 -119.03361 
L 657.798317 -120.073345 
L 657.05969 -121.11308 
L 656.260933 -122.152815 
L 655.403726 -123.19255 
L 654.490858 -124.232285 
L 653.526248 -125.27202 
L 652.514948 -126.311755 
L 651.4631 -127.35149 
L 650.377864 -128.391225 
L 649.26731 -129.43096 
L 648.140274 -130.470696 
L 647.006188 -131.510431 
L 645.87488 -132.550166 
L 644.756361 -133.589901 
L 643.660596 -134.629636 
L 642.597275 -135.669371 
L 641.57558 -136.709106 
L 640.603973 -137.748841 
L 639.689993 -138.788576 
L 638.840085 -139.828311 
L 638.059454 -140.868046 
L 637.351951 -141.907781 
L 636.720003 -142.947516 
L 636.16457 -143.987251 
L 635.685148 -145.026986 
L 635.279802 -146.066721 
L 634.94524 -147.106456 
L 634.676907 -148.146191 
L 634.469118 -149.185926 
L 634.315211 -150.225661 
L 634.207716 -151.265396 
L 634.138542 -152.305131 
L 634.099183 -153.344866 
L 634.08092 -154.384601 
L 634.075034 -155.424336 
L 634.073024 -156.464071 
L 634.06681 -157.503806 
L 634.048944 -158.543542 
L 634.012794 -159.583277 
L 633.952735 -160.623012 
L 633.864298 -161.662747 
L 633.744319 -162.702482 
L 633.591048 -163.742217 
L 633.404236 -164.781952 
L 633.185185 -165.821687 
L 632.936764 -166.861422 
L 632.663392 -167.901157 
L 632.370968 -168.940892 
L 632.066776 -169.980627 
L 631.759341 -171.020362 
L 631.458249 -172.060097 
L 631.173932 -173.099832 
L 630.917421 -174.139567 
L 630.700079 -175.179302 
L 630.533304 -176.219037 
L 630.428236 -177.258772 
L 630.395447 -178.298507 
L 630.444648 -179.338242 
L 630.584408 -180.377977 
L 630.821899 -181.417712 
L 631.162669 -182.457447 
L 631.610468 -183.497182 
L 632.167113 -184.536917 
L 632.832407 -185.576653 
L 633.604118 -186.616388 
L 634.478011 -187.656123 
L 635.447943 -188.695858 
L 636.506004 -189.735593 
L 637.642713 -190.775328 
L 638.847256 -191.815063 
L 640.107748 -192.854798 
L 641.411537 -193.894533 
L 642.745504 -194.934268 
L 644.09638 -195.974003 
L 645.451047 -197.013738 
L 646.796829 -198.053473 
L 648.121751 -199.093208 
L 649.41477 -200.132943 
L 650.665966 -201.172678 
L 651.866689 -202.212413 
L 653.00966 -203.252148 
L 654.089028 -204.291883 
L 655.100388 -205.331618 
L 656.040746 -206.371353 
L 656.908462 -207.411088 
L 657.703151 -208.450823 
L 658.425565 -209.490558 
L 659.077458 -210.530293 
L 659.661429 -211.570028 
L 660.180777 -212.609763 
L 660.639337 -213.649499 
L 661.041335 -214.689234 
L 661.391248 -215.728969 
L 665.012248 -215.728969 
L 665.012248 -215.728969 
L 665.362161 -214.689234 
L 665.764159 -213.649499 
L 666.222719 -212.609763 
L 666.742067 -211.570028 
L 667.326038 -210.530293 
L 667.97793 -209.490558 
L 668.700345 -208.450823 
L 669.495034 -207.411088 
L 670.36275 -206.371353 
L 671.303108 -205.331618 
L 672.314467 -204.291883 
L 673.393836 -203.252148 
L 674.536807 -202.212413 
L 675.737529 -201.172678 
L 676.988726 -200.132943 
L 678.281745 -199.093208 
L 679.606667 -198.053473 
L 680.952449 -197.013738 
L 682.307116 -195.974003 
L 683.657992 -194.934268 
L 684.991959 -193.894533 
L 686.295748 -192.854798 
L 687.55624 -191.815063 
L 688.760782 -190.775328 
L 689.897492 -189.735593 
L 690.955553 -188.695858 
L 691.925485 -187.656123 
L 692.799378 -186.616388 
L 693.571088 -185.576653 
L 694.236382 -184.536917 
L 694.793027 -183.497182 
L 695.240827 -182.457447 
L 695.581597 -181.417712 
L 695.819087 -180.377977 
L 695.958848 -179.338242 
L 696.008049 -178.298507 
L 695.97526 -177.258772 
L 695.870192 -176.219037 
L 695.703417 -175.179302 
L 695.486074 -174.139567 
L 695.229564 -173.099832 
L 694.945247 -172.060097 
L 694.644155 -171.020362 
L 694.33672 -169.980627 
L 694.032528 -168.940892 
L 693.740104 -167.901157 
L 693.466731 -166.861422 
L 693.218311 -165.821687 
L 692.99926 -164.781952 
L 692.812448 -163.742217 
L 692.659177 -162.702482 
L 692.539198 -161.662747 
L 692.450761 -160.623012 
L 692.390701 -159.583277 
L 692.354552 -158.543542 
L 692.336685 -157.503806 
L 692.330472 -156.464071 
L 692.328462 -155.424336 
L 692.322576 -154.384601 
L 692.304313 -153.344866 
L 692.264953 -152.305131 
L 692.19578 -151.265396 
L 692.088284 -150.225661 
L 691.934377 -149.185926 
L 691.726589 -148.146191 
L 691.458256 -147.106456 
L 691.123693 -146.066721 
L 690.718348 -145.026986 
L 690.238926 -143.987251 
L 689.683493 -142.947516 
L 689.051545 -141.907781 
L 688.344042 -140.868046 
L 687.56341 -139.828311 
L 686.713503 -138.788576 
L 685.799523 -137.748841 
L 684.827916 -136.709106 
L 683.806221 -135.669371 
L 682.742899 -134.629636 
L 681.647135 -133.589901 
L 680.528616 -132.550166 
L 679.397308 -131.510431 
L 678.263221 -130.470696 
L 677.136186 -129.43096 
L 676.025632 -128.391225 
L 674.940396 -127.35149 
L 673.888548 -126.311755 
L 672.877248 -125.27202 
L 671.912638 -124.232285 
L 670.99977 -123.19255 
L 670.142563 -122.152815 
L 669.343805 -121.11308 
L 668.605179 -120.073345 
L 667.92732 -119.03361 
L 667.3099 -117.993875 
L 666.751725 -116.95414 
L 666.250856 -115.914405 
L 665.804727 -114.87467 
L 665.410275 -113.834935 
L 665.064067 -112.7952 
z
" style="stroke: #3f3f3f; stroke-width: 1.25"/>
    </defs>
    <g clip-path="url(#p3eaeb6de57)">
     <use xlink:href="#m1df8be1da7" x="0" y="360" style="fill: #e1812c; stroke: #3f3f3f; stroke-width: 1.25"/>
    </g>
   </g>
   <g id="patch_6">
    <path d="M 466.36394 311.918561 
L 466.36394 311.918561 
L 466.36394 311.918561 
L 466.36394 311.918561 
z
" clip-path="url(#p3eaeb6de57)" style="fill: #3274a1; stroke: #3f3f3f; stroke-width: 1.25; stroke-linejoin: miter"/>
   </g>
   <g id="patch_7">
    <path d="M 466.36394 311.918561 
L 466.36394 311.918561 
L 466.36394 311.918561 
L 466.36394 311.918561 
z
" clip-path="url(#p3eaeb6de57)" style="fill: #e1812c; stroke: #3f3f3f; stroke-width: 1.25; stroke-linejoin: miter"/>
   </g>
   <g id="line2d_31">
    <path d="M 433.557638 199.791852 
L 433.557638 156.574248 
" clip-path="url(#p3eaeb6de57)" style="fill: none; stroke: #3f3f3f; stroke-width: 1.875; stroke-linecap: round"/>
   </g>
   <g id="line2d_32">
    <path d="M 433.557638 190.036209 
L 433.557638 166.976483 
" clip-path="url(#p3eaeb6de57)" style="fill: none; stroke: #3f3f3f; stroke-width: 5.625; stroke-linecap: round"/>
   </g>
   <g id="line2d_33">
    <path d="M 433.557638 176.643768 
" clip-path="url(#p3eaeb6de57)" style="fill: none; stroke: #3f3f3f; stroke-width: 1.5; stroke-linecap: round"/>
    <g clip-path="url(#p3eaeb6de57)">
     <use xlink:href="#m0791572cf4" x="433.557638" y="176.643768" style="fill: #ffffff; stroke: #ffffff; stroke-width: 1.125"/>
    </g>
   </g>
   <g id="line2d_34">
    <path d="M 499.170241 215.654261 
L 499.170241 137.72201 
" clip-path="url(#p3eaeb6de57)" style="fill: none; stroke: #3f3f3f; stroke-width: 1.875; stroke-linecap: round"/>
   </g>
   <g id="line2d_35">
    <path d="M 499.170241 193.965211 
L 499.170241 166.288218 
" clip-path="url(#p3eaeb6de57)" style="fill: none; stroke: #3f3f3f; stroke-width: 5.625; stroke-linecap: round"/>
   </g>
   <g id="line2d_36">
    <path d="M 499.170241 177.524931 
" clip-path="url(#p3eaeb6de57)" style="fill: none; stroke: #3f3f3f; stroke-width: 1.5; stroke-linecap: round"/>
    <g clip-path="url(#p3eaeb6de57)">
     <use xlink:href="#m0791572cf4" x="499.170241" y="177.524931" style="fill: #ffffff; stroke: #ffffff; stroke-width: 1.125"/>
    </g>
   </g>
   <g id="line2d_37">
    <path d="M 597.589145 251.596966 
L 597.589145 114.204531 
" clip-path="url(#p3eaeb6de57)" style="fill: none; stroke: #3f3f3f; stroke-width: 1.875; stroke-linecap: round"/>
   </g>
   <g id="line2d_38">
    <path d="M 597.589145 225.914531 
L 597.589145 176.345882 
" clip-path="url(#p3eaeb6de57)" style="fill: none; stroke: #3f3f3f; stroke-width: 5.625; stroke-linecap: round"/>
   </g>
   <g id="line2d_39">
    <path d="M 597.589145 203.605006 
" clip-path="url(#p3eaeb6de57)" style="fill: none; stroke: #3f3f3f; stroke-width: 1.5; stroke-linecap: round"/>
    <g clip-path="url(#p3eaeb6de57)">
     <use xlink:href="#m0791572cf4" x="597.589145" y="203.605006" style="fill: #ffffff; stroke: #ffffff; stroke-width: 1.125"/>
    </g>
   </g>
   <g id="line2d_40">
    <path d="M 663.201748 221.705902 
L 663.201748 169.769929 
" clip-path="url(#p3eaeb6de57)" style="fill: none; stroke: #3f3f3f; stroke-width: 1.875; stroke-linecap: round"/>
   </g>
   <g id="line2d_41">
    <path d="M 663.201748 209.74215 
L 663.201748 178.770477 
" clip-path="url(#p3eaeb6de57)" style="fill: none; stroke: #3f3f3f; stroke-width: 5.625; stroke-linecap: round"/>
   </g>
   <g id="line2d_42">
    <path d="M 663.201748 192.73718 
" clip-path="url(#p3eaeb6de57)" style="fill: none; stroke: #3f3f3f; stroke-width: 1.5; stroke-linecap: round"/>
    <g clip-path="url(#p3eaeb6de57)">
     <use xlink:href="#m0791572cf4" x="663.201748" y="192.73718" style="fill: #ffffff; stroke: #ffffff; stroke-width: 1.125"/>
    </g>
   </g>
   <g id="patch_8">
    <path d="M 384.348186 318.04 
L 384.348186 24.72 
" style="fill: none; stroke: #cccccc; stroke-width: 0.8; stroke-linejoin: miter; stroke-linecap: square"/>
   </g>
   <g id="patch_9">
    <path d="M 384.348186 318.04 
L 712.4112 318.04 
" style="fill: none; stroke: #cccccc; stroke-width: 0.8; stroke-linejoin: miter; stroke-linecap: square"/>
   </g>
   <g id="text_18">
    <!-- sex = m -->
    <g style="fill: #262626" transform="translate(530.735943 18.72) scale(0.1 -0.1)">
     <defs>
      <path id="ArialMT-6d" d="M 422 0 
L 422 3319 
L 925 3319 
L 925 2853 
Q 1081 3097 1340 3245 
Q 1600 3394 1931 3394 
Q 2300 3394 2536 3241 
Q 2772 3088 2869 2813 
Q 3263 3394 3894 3394 
Q 4388 3394 4653 3120 
Q 4919 2847 4919 2278 
L 4919 0 
L 4359 0 
L 4359 2091 
Q 4359 2428 4304 2576 
Q 4250 2725 4106 2815 
Q 3963 2906 3769 2906 
Q 3419 2906 3187 2673 
Q 2956 2441 2956 1928 
L 2956 0 
L 2394 0 
L 2394 2156 
Q 2394 2531 2256 2718 
Q 2119 2906 1806 2906 
Q 1569 2906 1367 2781 
Q 1166 2656 1075 2415 
Q 984 2175 984 1722 
L 984 0 
L 422 0 
z
" transform="scale(0.015625)"/>
     </defs>
     <use xlink:href="#ArialMT-73"/>
     <use xlink:href="#ArialMT-65" x="50"/>
     <use xlink:href="#ArialMT-78" x="105.615234"/>
     <use xlink:href="#ArialMT-20" x="155.615234"/>
     <use xlink:href="#ArialMT-3d" x="183.398438"/>
     <use xlink:href="#ArialMT-20" x="241.796875"/>
     <use xlink:href="#ArialMT-6d" x="269.580078"/>
    </g>
   </g>
  </g>
  <g id="legend_1">
   <g id="text_19">
    <!-- time -->
    <g style="fill: #262626" transform="translate(725.045625 168.439844) scale(0.1 -0.1)">
     <use xlink:href="#ArialMT-74"/>
     <use xlink:href="#ArialMT-69" x="27.783203"/>
     <use xlink:href="#ArialMT-6d" x="50"/>
     <use xlink:href="#ArialMT-65" x="133.300781"/>
    </g>
   </g>
   <g id="patch_10">
    <path d="M 719.101875 182.585156 
L 739.101875 182.585156 
L 739.101875 175.585156 
L 719.101875 175.585156 
z
" style="fill: #3274a1; stroke: #3f3f3f; stroke-width: 1.25; stroke-linejoin: miter"/>
   </g>
   <g id="text_20">
    <!-- i -->
    <g style="fill: #262626" transform="translate(747.101875 182.585156) scale(0.1 -0.1)">
     <use xlink:href="#ArialMT-69"/>
    </g>
   </g>
   <g id="patch_11">
    <path d="M 719.101875 196.730469 
L 739.101875 196.730469 
L 739.101875 189.730469 
L 719.101875 189.730469 
z
" style="fill: #e1812c; stroke: #3f3f3f; stroke-width: 1.25; stroke-linejoin: miter"/>
   </g>
   <g id="text_21">
    <!-- f -->
    <g style="fill: #262626" transform="translate(747.101875 196.730469) scale(0.1 -0.1)">
     <use xlink:href="#ArialMT-66"/>
    </g>
   </g>
  </g>
 </g>
 <defs>
  <clipPath id="p3dfdb6c9c9">
   <rect x="45.470877" y="24.72" width="328.063014" height="293.32"/>
  </clipPath>
  <clipPath id="p3eaeb6de57">
   <rect x="384.348186" y="24.72" width="328.063014" height="293.32"/>
  </clipPath>
 </defs>
</svg>
