<?xml version="1.0" encoding="utf-8" standalone="no"?>
<!DOCTYPE svg PUBLIC "-//W3C//DTD SVG 1.1//EN"
  "http://www.w3.org/Graphics/SVG/1.1/DTD/svg11.dtd">
<svg xmlns:xlink="http://www.w3.org/1999/xlink" width="758.88pt" height="360pt" viewBox="0 0 758.88 360" xmlns="http://www.w3.org/2000/svg" version="1.1">
 <metadata>
  <rdf:RDF xmlns:dc="http://purl.org/dc/elements/1.1/" xmlns:cc="http://creativecommons.org/ns#" xmlns:rdf="http://www.w3.org/1999/02/22-rdf-syntax-ns#">
   <cc:Work>
    <dc:type rdf:resource="http://purl.org/dc/dcmitype/StillImage"/>
    <dc:date>2024-09-11T03:22:38.094660</dc:date>
    <dc:format>image/svg+xml</dc:format>
    <dc:creator>
     <cc:Agent>
      <dc:title>Matplotlib v3.8.3, https://matplotlib.org/</dc:title>
     </cc:Agent>
    </dc:creator>
   </cc:Work>
  </rdf:RDF>
 </metadata>
 <defs>
  <style type="text/css">*{stroke-linejoin: round; stroke-linecap: butt}</style>
 </defs>
 <g id="figure_1">
  <g id="patch_1">
   <path d="M 0 360 
L 758.88 360 
L 758.88 0 
L 0 0 
z
" style="fill: #ffffff"/>
  </g>
  <g id="axes_1">
   <g id="patch_2">
    <path d="M 45.470877 318.04 
L 373.533891 318.04 
L 373.533891 24.72 
L 45.470877 24.72 
z
" style="fill: #ffffff"/>
   </g>
   <g id="matplotlib.axis_1">
    <g id="xtick_1">
     <g id="text_1">
      <!-- Jurilovca -->
      <g style="fill: #262626" transform="translate(107.758506 332.197812) scale(0.1 -0.1)">
       <defs>
        <path id="ArialMT-4a" d="M 184 1300 
L 731 1375 
Q 753 850 928 656 
Q 1103 463 1413 463 
Q 1641 463 1806 567 
Q 1972 672 2034 851 
Q 2097 1031 2097 1425 
L 2097 4581 
L 2703 4581 
L 2703 1459 
Q 2703 884 2564 568 
Q 2425 253 2123 87 
Q 1822 -78 1416 -78 
Q 813 -78 492 269 
Q 172 616 184 1300 
z
" transform="scale(0.015625)"/>
        <path id="ArialMT-75" d="M 2597 0 
L 2597 488 
Q 2209 -75 1544 -75 
Q 1250 -75 995 37 
Q 741 150 617 320 
Q 494 491 444 738 
Q 409 903 409 1263 
L 409 3319 
L 972 3319 
L 972 1478 
Q 972 1038 1006 884 
Q 1059 663 1231 536 
Q 1403 409 1656 409 
Q 1909 409 2131 539 
Q 2353 669 2445 892 
Q 2538 1116 2538 1541 
L 2538 3319 
L 3100 3319 
L 3100 0 
L 2597 0 
z
" transform="scale(0.015625)"/>
        <path id="ArialMT-72" d="M 416 0 
L 416 3319 
L 922 3319 
L 922 2816 
Q 1116 3169 1280 3281 
Q 1444 3394 1641 3394 
Q 1925 3394 2219 3213 
L 2025 2691 
Q 1819 2813 1613 2813 
Q 1428 2813 1281 2702 
Q 1134 2591 1072 2394 
Q 978 2094 978 1738 
L 978 0 
L 416 0 
z
" transform="scale(0.015625)"/>
        <path id="ArialMT-69" d="M 425 3934 
L 425 4581 
L 988 4581 
L 988 3934 
L 425 3934 
z
M 425 0 
L 425 3319 
L 988 3319 
L 988 0 
L 425 0 
z
" transform="scale(0.015625)"/>
        <path id="ArialMT-6c" d="M 409 0 
L 409 4581 
L 972 4581 
L 972 0 
L 409 0 
z
" transform="scale(0.015625)"/>
        <path id="ArialMT-6f" d="M 213 1659 
Q 213 2581 725 3025 
Q 1153 3394 1769 3394 
Q 2453 3394 2887 2945 
Q 3322 2497 3322 1706 
Q 3322 1066 3130 698 
Q 2938 331 2570 128 
Q 2203 -75 1769 -75 
Q 1072 -75 642 372 
Q 213 819 213 1659 
z
M 791 1659 
Q 791 1022 1069 705 
Q 1347 388 1769 388 
Q 2188 388 2466 706 
Q 2744 1025 2744 1678 
Q 2744 2294 2464 2611 
Q 2184 2928 1769 2928 
Q 1347 2928 1069 2612 
Q 791 2297 791 1659 
z
" transform="scale(0.015625)"/>
        <path id="ArialMT-76" d="M 1344 0 
L 81 3319 
L 675 3319 
L 1388 1331 
Q 1503 1009 1600 663 
Q 1675 925 1809 1294 
L 2547 3319 
L 3125 3319 
L 1869 0 
L 1344 0 
z
" transform="scale(0.015625)"/>
        <path id="ArialMT-63" d="M 2588 1216 
L 3141 1144 
Q 3050 572 2676 248 
Q 2303 -75 1759 -75 
Q 1078 -75 664 370 
Q 250 816 250 1647 
Q 250 2184 428 2587 
Q 606 2991 970 3192 
Q 1334 3394 1763 3394 
Q 2303 3394 2647 3120 
Q 2991 2847 3088 2344 
L 2541 2259 
Q 2463 2594 2264 2762 
Q 2066 2931 1784 2931 
Q 1359 2931 1093 2626 
Q 828 2322 828 1663 
Q 828 994 1084 691 
Q 1341 388 1753 388 
Q 2084 388 2306 591 
Q 2528 794 2588 1216 
z
" transform="scale(0.015625)"/>
        <path id="ArialMT-61" d="M 2588 409 
Q 2275 144 1986 34 
Q 1697 -75 1366 -75 
Q 819 -75 525 192 
Q 231 459 231 875 
Q 231 1119 342 1320 
Q 453 1522 633 1644 
Q 813 1766 1038 1828 
Q 1203 1872 1538 1913 
Q 2219 1994 2541 2106 
Q 2544 2222 2544 2253 
Q 2544 2597 2384 2738 
Q 2169 2928 1744 2928 
Q 1347 2928 1158 2789 
Q 969 2650 878 2297 
L 328 2372 
Q 403 2725 575 2942 
Q 747 3159 1072 3276 
Q 1397 3394 1825 3394 
Q 2250 3394 2515 3294 
Q 2781 3194 2906 3042 
Q 3031 2891 3081 2659 
Q 3109 2516 3109 2141 
L 3109 1391 
Q 3109 606 3145 398 
Q 3181 191 3288 0 
L 2700 0 
Q 2613 175 2588 409 
z
M 2541 1666 
Q 2234 1541 1622 1453 
Q 1275 1403 1131 1340 
Q 988 1278 909 1158 
Q 831 1038 831 891 
Q 831 666 1001 516 
Q 1172 366 1500 366 
Q 1825 366 2078 508 
Q 2331 650 2450 897 
Q 2541 1088 2541 1459 
L 2541 1666 
z
" transform="scale(0.015625)"/>
       </defs>
       <use xlink:href="#ArialMT-4a"/>
       <use xlink:href="#ArialMT-75" x="50"/>
       <use xlink:href="#ArialMT-72" x="105.615234"/>
       <use xlink:href="#ArialMT-69" x="138.916016"/>
       <use xlink:href="#ArialMT-6c" x="161.132812"/>
       <use xlink:href="#ArialMT-6f" x="183.349609"/>
       <use xlink:href="#ArialMT-76" x="238.964844"/>
       <use xlink:href="#ArialMT-63" x="288.964844"/>
       <use xlink:href="#ArialMT-61" x="338.964844"/>
      </g>
     </g>
    </g>
    <g id="xtick_2">
     <g id="text_2">
      <!-- Baia -->
      <g style="fill: #262626" transform="translate(281.511107 332.197812) scale(0.1 -0.1)">
       <defs>
        <path id="ArialMT-42" d="M 469 0 
L 469 4581 
L 2188 4581 
Q 2713 4581 3030 4442 
Q 3347 4303 3526 4014 
Q 3706 3725 3706 3409 
Q 3706 3116 3547 2856 
Q 3388 2597 3066 2438 
Q 3481 2316 3704 2022 
Q 3928 1728 3928 1328 
Q 3928 1006 3792 729 
Q 3656 453 3456 303 
Q 3256 153 2954 76 
Q 2653 0 2216 0 
L 469 0 
z
M 1075 2656 
L 2066 2656 
Q 2469 2656 2644 2709 
Q 2875 2778 2992 2937 
Q 3109 3097 3109 3338 
Q 3109 3566 3000 3739 
Q 2891 3913 2687 3977 
Q 2484 4041 1991 4041 
L 1075 4041 
L 1075 2656 
z
M 1075 541 
L 2216 541 
Q 2509 541 2628 563 
Q 2838 600 2978 687 
Q 3119 775 3209 942 
Q 3300 1109 3300 1328 
Q 3300 1584 3169 1773 
Q 3038 1963 2805 2039 
Q 2572 2116 2134 2116 
L 1075 2116 
L 1075 541 
z
" transform="scale(0.015625)"/>
       </defs>
       <use xlink:href="#ArialMT-42"/>
       <use xlink:href="#ArialMT-61" x="66.699219"/>
       <use xlink:href="#ArialMT-69" x="122.314453"/>
       <use xlink:href="#ArialMT-61" x="144.53125"/>
      </g>
     </g>
    </g>
    <g id="text_3">
     <!-- location -->
     <g style="fill: #262626" transform="translate(192.269572 345.343125) scale(0.1 -0.1)">
      <defs>
       <path id="ArialMT-74" d="M 1650 503 
L 1731 6 
Q 1494 -44 1306 -44 
Q 1000 -44 831 53 
Q 663 150 594 308 
Q 525 466 525 972 
L 525 2881 
L 113 2881 
L 113 3319 
L 525 3319 
L 525 4141 
L 1084 4478 
L 1084 3319 
L 1650 3319 
L 1650 2881 
L 1084 2881 
L 1084 941 
Q 1084 700 1114 631 
Q 1144 563 1211 522 
Q 1278 481 1403 481 
Q 1497 481 1650 503 
z
" transform="scale(0.015625)"/>
       <path id="ArialMT-6e" d="M 422 0 
L 422 3319 
L 928 3319 
L 928 2847 
Q 1294 3394 1984 3394 
Q 2284 3394 2536 3286 
Q 2788 3178 2913 3003 
Q 3038 2828 3088 2588 
Q 3119 2431 3119 2041 
L 3119 0 
L 2556 0 
L 2556 2019 
Q 2556 2363 2490 2533 
Q 2425 2703 2258 2804 
Q 2091 2906 1866 2906 
Q 1506 2906 1245 2678 
Q 984 2450 984 1813 
L 984 0 
L 422 0 
z
" transform="scale(0.015625)"/>
      </defs>
      <use xlink:href="#ArialMT-6c"/>
      <use xlink:href="#ArialMT-6f" x="22.216797"/>
      <use xlink:href="#ArialMT-63" x="77.832031"/>
      <use xlink:href="#ArialMT-61" x="127.832031"/>
      <use xlink:href="#ArialMT-74" x="183.447266"/>
      <use xlink:href="#ArialMT-69" x="211.230469"/>
      <use xlink:href="#ArialMT-6f" x="233.447266"/>
      <use xlink:href="#ArialMT-6e" x="289.0625"/>
     </g>
    </g>
   </g>
   <g id="matplotlib.axis_2">
    <g id="ytick_1">
     <g id="line2d_1">
      <path d="M 45.470877 278.762723 
L 373.533891 278.762723 
" clip-path="url(#p659a03aedf)" style="fill: none; stroke: #cccccc; stroke-width: 0.8; stroke-linecap: round"/>
     </g>
     <g id="text_4">
      <!-- 5 -->
      <g style="fill: #262626" transform="translate(32.90994 282.341629) scale(0.1 -0.1)">
       <defs>
        <path id="ArialMT-35" d="M 266 1200 
L 856 1250 
Q 922 819 1161 601 
Q 1400 384 1738 384 
Q 2144 384 2425 690 
Q 2706 997 2706 1503 
Q 2706 1984 2436 2262 
Q 2166 2541 1728 2541 
Q 1456 2541 1237 2417 
Q 1019 2294 894 2097 
L 366 2166 
L 809 4519 
L 3088 4519 
L 3088 3981 
L 1259 3981 
L 1013 2750 
Q 1425 3038 1878 3038 
Q 2478 3038 2890 2622 
Q 3303 2206 3303 1553 
Q 3303 931 2941 478 
Q 2500 -78 1738 -78 
Q 1113 -78 717 272 
Q 322 622 266 1200 
z
" transform="scale(0.015625)"/>
       </defs>
       <use xlink:href="#ArialMT-35"/>
      </g>
     </g>
    </g>
    <g id="ytick_2">
     <g id="line2d_2">
      <path d="M 45.470877 230.843612 
L 373.533891 230.843612 
" clip-path="url(#p659a03aedf)" style="fill: none; stroke: #cccccc; stroke-width: 0.8; stroke-linecap: round"/>
     </g>
     <g id="text_5">
      <!-- 10 -->
      <g style="fill: #262626" transform="translate(27.349002 234.422519) scale(0.1 -0.1)">
       <defs>
        <path id="ArialMT-31" d="M 2384 0 
L 1822 0 
L 1822 3584 
Q 1619 3391 1289 3197 
Q 959 3003 697 2906 
L 697 3450 
Q 1169 3672 1522 3987 
Q 1875 4303 2022 4600 
L 2384 4600 
L 2384 0 
z
" transform="scale(0.015625)"/>
        <path id="ArialMT-30" d="M 266 2259 
Q 266 3072 433 3567 
Q 600 4063 929 4331 
Q 1259 4600 1759 4600 
Q 2128 4600 2406 4451 
Q 2684 4303 2865 4023 
Q 3047 3744 3150 3342 
Q 3253 2941 3253 2259 
Q 3253 1453 3087 958 
Q 2922 463 2592 192 
Q 2263 -78 1759 -78 
Q 1097 -78 719 397 
Q 266 969 266 2259 
z
M 844 2259 
Q 844 1131 1108 757 
Q 1372 384 1759 384 
Q 2147 384 2411 759 
Q 2675 1134 2675 2259 
Q 2675 3391 2411 3762 
Q 2147 4134 1753 4134 
Q 1366 4134 1134 3806 
Q 844 3388 844 2259 
z
" transform="scale(0.015625)"/>
       </defs>
       <use xlink:href="#ArialMT-31"/>
       <use xlink:href="#ArialMT-30" x="55.615234"/>
      </g>
     </g>
    </g>
    <g id="ytick_3">
     <g id="line2d_3">
      <path d="M 45.470877 182.924502 
L 373.533891 182.924502 
" clip-path="url(#p659a03aedf)" style="fill: none; stroke: #cccccc; stroke-width: 0.8; stroke-linecap: round"/>
     </g>
     <g id="text_6">
      <!-- 15 -->
      <g style="fill: #262626" transform="translate(27.349002 186.503408) scale(0.1 -0.1)">
       <use xlink:href="#ArialMT-31"/>
       <use xlink:href="#ArialMT-35" x="55.615234"/>
      </g>
     </g>
    </g>
    <g id="ytick_4">
     <g id="line2d_4">
      <path d="M 45.470877 135.005392 
L 373.533891 135.005392 
" clip-path="url(#p659a03aedf)" style="fill: none; stroke: #cccccc; stroke-width: 0.8; stroke-linecap: round"/>
     </g>
     <g id="text_7">
      <!-- 20 -->
      <g style="fill: #262626" transform="translate(27.349002 138.584298) scale(0.1 -0.1)">
       <defs>
        <path id="ArialMT-32" d="M 3222 541 
L 3222 0 
L 194 0 
Q 188 203 259 391 
Q 375 700 629 1000 
Q 884 1300 1366 1694 
Q 2113 2306 2375 2664 
Q 2638 3022 2638 3341 
Q 2638 3675 2398 3904 
Q 2159 4134 1775 4134 
Q 1369 4134 1125 3890 
Q 881 3647 878 3216 
L 300 3275 
Q 359 3922 746 4261 
Q 1134 4600 1788 4600 
Q 2447 4600 2831 4234 
Q 3216 3869 3216 3328 
Q 3216 3053 3103 2787 
Q 2991 2522 2730 2228 
Q 2469 1934 1863 1422 
Q 1356 997 1212 845 
Q 1069 694 975 541 
L 3222 541 
z
" transform="scale(0.015625)"/>
       </defs>
       <use xlink:href="#ArialMT-32"/>
       <use xlink:href="#ArialMT-30" x="55.615234"/>
      </g>
     </g>
    </g>
    <g id="ytick_5">
     <g id="line2d_5">
      <path d="M 45.470877 87.086282 
L 373.533891 87.086282 
" clip-path="url(#p659a03aedf)" style="fill: none; stroke: #cccccc; stroke-width: 0.8; stroke-linecap: round"/>
     </g>
     <g id="text_8">
      <!-- 25 -->
      <g style="fill: #262626" transform="translate(27.349002 90.665188) scale(0.1 -0.1)">
       <use xlink:href="#ArialMT-32"/>
       <use xlink:href="#ArialMT-35" x="55.615234"/>
      </g>
     </g>
    </g>
    <g id="ytick_6">
     <g id="line2d_6">
      <path d="M 45.470877 39.167171 
L 373.533891 39.167171 
" clip-path="url(#p659a03aedf)" style="fill: none; stroke: #cccccc; stroke-width: 0.8; stroke-linecap: round"/>
     </g>
     <g id="text_9">
      <!-- 30 -->
      <g style="fill: #262626" transform="translate(27.349002 42.746078) scale(0.1 -0.1)">
       <defs>
        <path id="ArialMT-33" d="M 269 1209 
L 831 1284 
Q 928 806 1161 595 
Q 1394 384 1728 384 
Q 2125 384 2398 659 
Q 2672 934 2672 1341 
Q 2672 1728 2419 1979 
Q 2166 2231 1775 2231 
Q 1616 2231 1378 2169 
L 1441 2663 
Q 1497 2656 1531 2656 
Q 1891 2656 2178 2843 
Q 2466 3031 2466 3422 
Q 2466 3731 2256 3934 
Q 2047 4138 1716 4138 
Q 1388 4138 1169 3931 
Q 950 3725 888 3313 
L 325 3413 
Q 428 3978 793 4289 
Q 1159 4600 1703 4600 
Q 2078 4600 2393 4439 
Q 2709 4278 2876 4000 
Q 3044 3722 3044 3409 
Q 3044 3113 2884 2869 
Q 2725 2625 2413 2481 
Q 2819 2388 3044 2092 
Q 3269 1797 3269 1353 
Q 3269 753 2831 336 
Q 2394 -81 1725 -81 
Q 1122 -81 723 278 
Q 325 638 269 1209 
z
" transform="scale(0.015625)"/>
       </defs>
       <use xlink:href="#ArialMT-33"/>
       <use xlink:href="#ArialMT-30" x="55.615234"/>
      </g>
     </g>
    </g>
    <g id="text_10">
     <!-- vo2rel -->
     <g style="fill: #262626" transform="translate(21.361502 184.997187) rotate(-90) scale(0.1 -0.1)">
      <defs>
       <path id="ArialMT-65" d="M 2694 1069 
L 3275 997 
Q 3138 488 2766 206 
Q 2394 -75 1816 -75 
Q 1088 -75 661 373 
Q 234 822 234 1631 
Q 234 2469 665 2931 
Q 1097 3394 1784 3394 
Q 2450 3394 2872 2941 
Q 3294 2488 3294 1666 
Q 3294 1616 3291 1516 
L 816 1516 
Q 847 969 1125 678 
Q 1403 388 1819 388 
Q 2128 388 2347 550 
Q 2566 713 2694 1069 
z
M 847 1978 
L 2700 1978 
Q 2663 2397 2488 2606 
Q 2219 2931 1791 2931 
Q 1403 2931 1139 2672 
Q 875 2413 847 1978 
z
" transform="scale(0.015625)"/>
      </defs>
      <use xlink:href="#ArialMT-76"/>
      <use xlink:href="#ArialMT-6f" x="50"/>
      <use xlink:href="#ArialMT-32" x="105.615234"/>
      <use xlink:href="#ArialMT-72" x="161.230469"/>
      <use xlink:href="#ArialMT-65" x="194.53125"/>
      <use xlink:href="#ArialMT-6c" x="250.146484"/>
     </g>
    </g>
   </g>
   <g id="PolyCollection_1">
    <defs>
     <path id="macd75a6fd2" d="M 95.895847 -101.916311 
L 93.464812 -101.916311 
L 93.250893 -103.23458 
L 93.010284 -104.552848 
L 92.741827 -105.871117 
L 92.444715 -107.189385 
L 92.118561 -108.507654 
L 91.763445 -109.825922 
L 91.37996 -111.144191 
L 90.969237 -112.462459 
L 90.532949 -113.780728 
L 90.073293 -115.098996 
L 89.592943 -116.417265 
L 89.094986 -117.735533 
L 88.582822 -119.053802 
L 88.060045 -120.37207 
L 87.5303 -121.690339 
L 86.997132 -123.008607 
L 86.463821 -124.326876 
L 85.933213 -125.645144 
L 85.407569 -126.963413 
L 84.888424 -128.281681 
L 84.376471 -129.59995 
L 83.871485 -130.918218 
L 83.372285 -132.236487 
L 82.87674 -133.554755 
L 82.381832 -134.873024 
L 81.883757 -136.191292 
L 81.378083 -137.509561 
L 80.859946 -138.827829 
L 80.324275 -140.146098 
L 79.76605 -141.464366 
L 79.180559 -142.782635 
L 78.563666 -144.100903 
L 77.912053 -145.419172 
L 77.223444 -146.73744 
L 76.49678 -148.055709 
L 75.732357 -149.373977 
L 74.931896 -150.692246 
L 74.098567 -152.010514 
L 73.236943 -153.328783 
L 72.352905 -154.647051 
L 71.453492 -155.96532 
L 70.54671 -157.283588 
L 69.64131 -158.601857 
L 68.746547 -159.920125 
L 67.871925 -161.238394 
L 67.026959 -162.556662 
L 66.220935 -163.874931 
L 65.46271 -165.193199 
L 64.760532 -166.511468 
L 64.121906 -167.829736 
L 63.553487 -169.148005 
L 63.06102 -170.466273 
L 62.649311 -171.784542 
L 62.322227 -173.10281 
L 62.082725 -174.421079 
L 61.932898 -175.739347 
L 61.874028 -177.057616 
L 61.906655 -178.375884 
L 62.030632 -179.694153 
L 62.245188 -181.012421 
L 62.548976 -182.33069 
L 62.940109 -183.648958 
L 63.416194 -184.967227 
L 63.97435 -186.285495 
L 64.611216 -187.603764 
L 65.322963 -188.922032 
L 66.105291 -190.240301 
L 66.953437 -191.558569 
L 67.862182 -192.876838 
L 68.825861 -194.195106 
L 69.838394 -195.513375 
L 70.893311 -196.831643 
L 71.983801 -198.149912 
L 73.102768 -199.46818 
L 74.242898 -200.786449 
L 75.396742 -202.104717 
L 76.556797 -203.422986 
L 77.715605 -204.741254 
L 78.865851 -206.059523 
L 80.000462 -207.377791 
L 81.112706 -208.69606 
L 82.196287 -210.014328 
L 83.24543 -211.332597 
L 84.254961 -212.650865 
L 85.220364 -213.969134 
L 86.137839 -215.287402 
L 87.004329 -216.605671 
L 87.817539 -217.923939 
L 88.575936 -219.242208 
L 89.278733 -220.560476 
L 89.925852 -221.878745 
L 90.51788 -223.197013 
L 91.056013 -224.515282 
L 91.541978 -225.83355 
L 91.977967 -227.151819 
L 92.36655 -228.470087 
L 92.710595 -229.788356 
L 93.013183 -231.106624 
L 93.277537 -232.424893 
L 96.083123 -232.424893 
L 96.083123 -232.424893 
L 96.347476 -231.106624 
L 96.650065 -229.788356 
L 96.994109 -228.470087 
L 97.382692 -227.151819 
L 97.818681 -225.83355 
L 98.304647 -224.515282 
L 98.842779 -223.197013 
L 99.434807 -221.878745 
L 100.081926 -220.560476 
L 100.784723 -219.242208 
L 101.54312 -217.923939 
L 102.356331 -216.605671 
L 103.22282 -215.287402 
L 104.140295 -213.969134 
L 105.105698 -212.650865 
L 106.115229 -211.332597 
L 107.164372 -210.014328 
L 108.247953 -208.69606 
L 109.360198 -207.377791 
L 110.494808 -206.059523 
L 111.645054 -204.741254 
L 112.803862 -203.422986 
L 113.963917 -202.104717 
L 115.117761 -200.786449 
L 116.257892 -199.46818 
L 117.376858 -198.149912 
L 118.467348 -196.831643 
L 119.522265 -195.513375 
L 120.534798 -194.195106 
L 121.498478 -192.876838 
L 122.407222 -191.558569 
L 123.255368 -190.240301 
L 124.037696 -188.922032 
L 124.749443 -187.603764 
L 125.386309 -186.285495 
L 125.944465 -184.967227 
L 126.42055 -183.648958 
L 126.811683 -182.33069 
L 127.115471 -181.012421 
L 127.330027 -179.694153 
L 127.454004 -178.375884 
L 127.486631 -177.057616 
L 127.427762 -175.739347 
L 127.277934 -174.421079 
L 127.038432 -173.10281 
L 126.711348 -171.784542 
L 126.299639 -170.466273 
L 125.807172 -169.148005 
L 125.238753 -167.829736 
L 124.600127 -166.511468 
L 123.89795 -165.193199 
L 123.139724 -163.874931 
L 122.3337 -162.556662 
L 121.488734 -161.238394 
L 120.614113 -159.920125 
L 119.719349 -158.601857 
L 118.813949 -157.283588 
L 117.907167 -155.96532 
L 117.007754 -154.647051 
L 116.123716 -153.328783 
L 115.262092 -152.010514 
L 114.428763 -150.692246 
L 113.628302 -149.373977 
L 112.863879 -148.055709 
L 112.137215 -146.73744 
L 111.448606 -145.419172 
L 110.796993 -144.100903 
L 110.1801 -142.782635 
L 109.594609 -141.464366 
L 109.036384 -140.146098 
L 108.500713 -138.827829 
L 107.982576 -137.509561 
L 107.476902 -136.191292 
L 106.978827 -134.873024 
L 106.483919 -133.554755 
L 105.988375 -132.236487 
L 105.489174 -130.918218 
L 104.984188 -129.59995 
L 104.472235 -128.281681 
L 103.95309 -126.963413 
L 103.427446 -125.645144 
L 102.896839 -124.326876 
L 102.363527 -123.008607 
L 101.830359 -121.690339 
L 101.300614 -120.37207 
L 100.777837 -119.053802 
L 100.265673 -117.735533 
L 99.767716 -116.417265 
L 99.287367 -115.098996 
L 98.82771 -113.780728 
L 98.391422 -112.462459 
L 97.980699 -111.144191 
L 97.597215 -109.825922 
L 97.242098 -108.507654 
L 96.915944 -107.189385 
L 96.618832 -105.871117 
L 96.350375 -104.552848 
L 96.109766 -103.23458 
L 95.895847 -101.916311 
z
" style="stroke: #3f3f3f; stroke-width: 1.25"/>
    </defs>
    <g clip-path="url(#p659a03aedf)">
     <use xlink:href="#macd75a6fd2" x="0" y="360" style="fill: #3274a1; stroke: #3f3f3f; stroke-width: 1.25"/>
    </g>
   </g>
   <g id="PolyCollection_2">
    <defs>
     <path id="m6a7e6a4624" d="M 161.694201 -122.43175 
L 158.891664 -122.43175 
L 158.650498 -123.305868 
L 158.378598 -124.179986 
L 158.074056 -125.054104 
L 157.735183 -125.928222 
L 157.360562 -126.80234 
L 156.949103 -127.676458 
L 156.500088 -128.550575 
L 156.013217 -129.424693 
L 155.488631 -130.298811 
L 154.926942 -131.172929 
L 154.329232 -132.047047 
L 153.697052 -132.921165 
L 153.032398 -133.795282 
L 152.337682 -134.6694 
L 151.615679 -135.543518 
L 150.869476 -136.417636 
L 150.102401 -137.291754 
L 149.317956 -138.165872 
L 148.519744 -139.039989 
L 147.711392 -139.914107 
L 146.896486 -140.788225 
L 146.07851 -141.662343 
L 145.260792 -142.536461 
L 144.446465 -143.410579 
L 143.638439 -144.284697 
L 142.839381 -145.158814 
L 142.051717 -146.032932 
L 141.277627 -146.90705 
L 140.519065 -147.781168 
L 139.77777 -148.655286 
L 139.055286 -149.529404 
L 138.35298 -150.403521 
L 137.67205 -151.277639 
L 137.013535 -152.151757 
L 136.378316 -153.025875 
L 135.767104 -153.899993 
L 135.18043 -154.774111 
L 134.618625 -155.648229 
L 134.081797 -156.522346 
L 133.569819 -157.396464 
L 133.082308 -158.270582 
L 132.618628 -159.1447 
L 132.177894 -160.018818 
L 131.759003 -160.892936 
L 131.360674 -161.767053 
L 130.981518 -162.641171 
L 130.620114 -163.515289 
L 130.275116 -164.389407 
L 129.945364 -165.263525 
L 129.630006 -166.137643 
L 129.328626 -167.01176 
L 129.041362 -167.885878 
L 128.769019 -168.759996 
L 128.513158 -169.634114 
L 128.276157 -170.508232 
L 128.061247 -171.38235 
L 127.872505 -172.256468 
L 127.714807 -173.130585 
L 127.593742 -174.004703 
L 127.515485 -174.878821 
L 127.486631 -175.752939 
L 127.513999 -176.627057 
L 127.604405 -177.501175 
L 127.76443 -178.375292 
L 128.000163 -179.24941 
L 128.316964 -180.123528 
L 128.71923 -180.997646 
L 129.210187 -181.871764 
L 129.791714 -182.745882 
L 130.464208 -183.619999 
L 131.226497 -184.494117 
L 132.075796 -185.368235 
L 133.007727 -186.242353 
L 134.016378 -187.116471 
L 135.094423 -187.990589 
L 136.233281 -188.864707 
L 137.42331 -189.738824 
L 138.654039 -190.612942 
L 139.914418 -191.48706 
L 141.19308 -192.361178 
L 142.478601 -193.235296 
L 143.759766 -194.109414 
L 145.0258 -194.983531 
L 146.266596 -195.857649 
L 147.472897 -196.731767 
L 148.636454 -197.605885 
L 149.750139 -198.480003 
L 150.808029 -199.354121 
L 151.805439 -200.228239 
L 152.738929 -201.102356 
L 153.606271 -201.976474 
L 154.40639 -202.850592 
L 155.139273 -203.72471 
L 155.805871 -204.598828 
L 156.40797 -205.472946 
L 156.948069 -206.347063 
L 157.429243 -207.221181 
L 157.855015 -208.095299 
L 158.229224 -208.969417 
L 162.356641 -208.969417 
L 162.356641 -208.969417 
L 162.73085 -208.095299 
L 163.156622 -207.221181 
L 163.637796 -206.347063 
L 164.177895 -205.472946 
L 164.779994 -204.598828 
L 165.446591 -203.72471 
L 166.179475 -202.850592 
L 166.979594 -201.976474 
L 167.846936 -201.102356 
L 168.780426 -200.228239 
L 169.777836 -199.354121 
L 170.835726 -198.480003 
L 171.949411 -197.605885 
L 173.112968 -196.731767 
L 174.319269 -195.857649 
L 175.560065 -194.983531 
L 176.826099 -194.109414 
L 178.107263 -193.235296 
L 179.392785 -192.361178 
L 180.671446 -191.48706 
L 181.931826 -190.612942 
L 183.162555 -189.738824 
L 184.352584 -188.864707 
L 185.491441 -187.990589 
L 186.569487 -187.116471 
L 187.578138 -186.242353 
L 188.510069 -185.368235 
L 189.359368 -184.494117 
L 190.121657 -183.619999 
L 190.794151 -182.745882 
L 191.375678 -181.871764 
L 191.866635 -180.997646 
L 192.268901 -180.123528 
L 192.585702 -179.24941 
L 192.821435 -178.375292 
L 192.981459 -177.501175 
L 193.071866 -176.627057 
L 193.099234 -175.752939 
L 193.07038 -174.878821 
L 192.992123 -174.004703 
L 192.871058 -173.130585 
L 192.71336 -172.256468 
L 192.524617 -171.38235 
L 192.309708 -170.508232 
L 192.072707 -169.634114 
L 191.816846 -168.759996 
L 191.544503 -167.885878 
L 191.257239 -167.01176 
L 190.955859 -166.137643 
L 190.640501 -165.263525 
L 190.310748 -164.389407 
L 189.965751 -163.515289 
L 189.604347 -162.641171 
L 189.225191 -161.767053 
L 188.826862 -160.892936 
L 188.407971 -160.018818 
L 187.967237 -159.1447 
L 187.503556 -158.270582 
L 187.016046 -157.396464 
L 186.504067 -156.522346 
L 185.96724 -155.648229 
L 185.405434 -154.774111 
L 184.818761 -153.899993 
L 184.207549 -153.025875 
L 183.57233 -152.151757 
L 182.913815 -151.277639 
L 182.232885 -150.403521 
L 181.530578 -149.529404 
L 180.808095 -148.655286 
L 180.0668 -147.781168 
L 179.308238 -146.90705 
L 178.534148 -146.032932 
L 177.746483 -145.158814 
L 176.947426 -144.284697 
L 176.1394 -143.410579 
L 175.325073 -142.536461 
L 174.507355 -141.662343 
L 173.689378 -140.788225 
L 172.874473 -139.914107 
L 172.06612 -139.039989 
L 171.267908 -138.165872 
L 170.483464 -137.291754 
L 169.716389 -136.417636 
L 168.970186 -135.543518 
L 168.248183 -134.6694 
L 167.553466 -133.795282 
L 166.888813 -132.921165 
L 166.256633 -132.047047 
L 165.658923 -131.172929 
L 165.097234 -130.298811 
L 164.572648 -129.424693 
L 164.085776 -128.550575 
L 163.636762 -127.676458 
L 163.225303 -126.80234 
L 162.850682 -125.928222 
L 162.511809 -125.054104 
L 162.207267 -124.179986 
L 161.935367 -123.305868 
L 161.694201 -122.43175 
z
" style="stroke: #3f3f3f; stroke-width: 1.25"/>
    </defs>
    <g clip-path="url(#p659a03aedf)">
     <use xlink:href="#m6a7e6a4624" x="0" y="360" style="fill: #e1812c; stroke: #3f3f3f; stroke-width: 1.25"/>
    </g>
   </g>
   <g id="PolyCollection_3">
    <defs>
     <path id="m1d0d6c7039" d="M 260.516717 -105.790003 
L 256.906956 -105.790003 
L 256.539496 -107.169108 
L 256.114627 -108.548213 
L 255.627277 -109.927318 
L 255.072727 -111.306423 
L 254.446816 -112.685528 
L 253.746136 -114.064633 
L 252.968258 -115.443739 
L 252.111936 -116.822844 
L 251.17732 -118.201949 
L 250.166135 -119.581054 
L 249.081839 -120.960159 
L 247.929738 -122.339264 
L 246.717049 -123.718369 
L 245.452907 -125.097474 
L 244.148302 -126.476579 
L 242.815952 -127.855684 
L 241.4701 -129.234789 
L 240.126238 -130.613895 
L 238.80077 -131.993 
L 237.510617 -133.372105 
L 236.272772 -134.75121 
L 235.103831 -136.130315 
L 234.019504 -137.50942 
L 233.034135 -138.888525 
L 232.16024 -140.26763 
L 231.408103 -141.646735 
L 230.785418 -143.02584 
L 230.297021 -144.404945 
L 229.944713 -145.78405 
L 229.72719 -147.163156 
L 229.640069 -148.542261 
L 229.676045 -149.921366 
L 229.825137 -151.300471 
L 230.07504 -152.679576 
L 230.411564 -154.058681 
L 230.819134 -155.437786 
L 231.281344 -156.816891 
L 231.781534 -158.195996 
L 232.303367 -159.575101 
L 232.831381 -160.954206 
L 233.351505 -162.333311 
L 233.851493 -163.712417 
L 234.321285 -165.091522 
L 234.753265 -166.470627 
L 235.142412 -167.849732 
L 235.486343 -169.228837 
L 235.785238 -170.607942 
L 236.041673 -171.987047 
L 236.260353 -173.366152 
L 236.447769 -174.745257 
L 236.611805 -176.124362 
L 236.761296 -177.503467 
L 236.905585 -178.882572 
L 237.054075 -180.261678 
L 237.215815 -181.640783 
L 237.399136 -183.019888 
L 237.611335 -184.398993 
L 237.858444 -185.778098 
L 238.145066 -187.157203 
L 238.474301 -188.536308 
L 238.847736 -189.915413 
L 239.265519 -191.294518 
L 239.72648 -192.673623 
L 240.228308 -194.052728 
L 240.767756 -195.431834 
L 241.340864 -196.810939 
L 241.943187 -198.190044 
L 242.570012 -199.569149 
L 243.216551 -200.948254 
L 243.878111 -202.327359 
L 244.550216 -203.706464 
L 245.228709 -205.085569 
L 245.909797 -206.464674 
L 246.590078 -207.843779 
L 247.266527 -209.222884 
L 247.936466 -210.601989 
L 248.597516 -211.981095 
L 249.247542 -213.3602 
L 249.884596 -214.739305 
L 250.506865 -216.11841 
L 251.112631 -217.497515 
L 251.700245 -218.87662 
L 252.268111 -220.255725 
L 252.81469 -221.63483 
L 253.338512 -223.013935 
L 253.838205 -224.39304 
L 254.312527 -225.772145 
L 254.760399 -227.15125 
L 255.180948 -228.530356 
L 255.573534 -229.909461 
L 255.93778 -231.288566 
L 256.273588 -232.667671 
L 256.581149 -234.046776 
L 256.860939 -235.425881 
L 257.113708 -236.804986 
L 257.340453 -238.184091 
L 257.542394 -239.563196 
L 257.720935 -240.942301 
L 257.877624 -242.321406 
L 259.546049 -242.321406 
L 259.546049 -242.321406 
L 259.702738 -240.942301 
L 259.881279 -239.563196 
L 260.083221 -238.184091 
L 260.309966 -236.804986 
L 260.562734 -235.425881 
L 260.842524 -234.046776 
L 261.150086 -232.667671 
L 261.485894 -231.288566 
L 261.850139 -229.909461 
L 262.242725 -228.530356 
L 262.663274 -227.15125 
L 263.111146 -225.772145 
L 263.585468 -224.39304 
L 264.085161 -223.013935 
L 264.608983 -221.63483 
L 265.155562 -220.255725 
L 265.723428 -218.87662 
L 266.311042 -217.497515 
L 266.916808 -216.11841 
L 267.539077 -214.739305 
L 268.176131 -213.3602 
L 268.826157 -211.981095 
L 269.487208 -210.601989 
L 270.157147 -209.222884 
L 270.833595 -207.843779 
L 271.513876 -206.464674 
L 272.194964 -205.085569 
L 272.873457 -203.706464 
L 273.545563 -202.327359 
L 274.207122 -200.948254 
L 274.853662 -199.569149 
L 275.480486 -198.190044 
L 276.082809 -196.810939 
L 276.655917 -195.431834 
L 277.195365 -194.052728 
L 277.697193 -192.673623 
L 278.158154 -191.294518 
L 278.575937 -189.915413 
L 278.949373 -188.536308 
L 279.278607 -187.157203 
L 279.565229 -185.778098 
L 279.812338 -184.398993 
L 280.024537 -183.019888 
L 280.207858 -181.640783 
L 280.369599 -180.261678 
L 280.518088 -178.882572 
L 280.662377 -177.503467 
L 280.811868 -176.124362 
L 280.975904 -174.745257 
L 281.163321 -173.366152 
L 281.382 -171.987047 
L 281.638435 -170.607942 
L 281.937331 -169.228837 
L 282.281261 -167.849732 
L 282.670408 -166.470627 
L 283.102388 -165.091522 
L 283.57218 -163.712417 
L 284.072168 -162.333311 
L 284.592292 -160.954206 
L 285.120307 -159.575101 
L 285.642139 -158.195996 
L 286.142329 -156.816891 
L 286.604539 -155.437786 
L 287.012109 -154.058681 
L 287.348633 -152.679576 
L 287.598536 -151.300471 
L 287.747628 -149.921366 
L 287.783604 -148.542261 
L 287.696484 -147.163156 
L 287.47896 -145.78405 
L 287.126653 -144.404945 
L 286.638255 -143.02584 
L 286.01557 -141.646735 
L 285.263433 -140.26763 
L 284.389539 -138.888525 
L 283.404169 -137.50942 
L 282.319842 -136.130315 
L 281.150901 -134.75121 
L 279.913056 -133.372105 
L 278.622903 -131.993 
L 277.297435 -130.613895 
L 275.953573 -129.234789 
L 274.607721 -127.855684 
L 273.275372 -126.476579 
L 271.970767 -125.097474 
L 270.706624 -123.718369 
L 269.493935 -122.339264 
L 268.341834 -120.960159 
L 267.257538 -119.581054 
L 266.246353 -118.201949 
L 265.311737 -116.822844 
L 264.455415 -115.443739 
L 263.677537 -114.064633 
L 262.976857 -112.685528 
L 262.350946 -111.306423 
L 261.796397 -109.927318 
L 261.309046 -108.548213 
L 260.884178 -107.169108 
L 260.516717 -105.790003 
z
" style="stroke: #3f3f3f; stroke-width: 1.25"/>
    </defs>
    <g clip-path="url(#p659a03aedf)">
     <use xlink:href="#m1d0d6c7039" x="0" y="360" style="fill: #3274a1; stroke: #3f3f3f; stroke-width: 1.25"/>
    </g>
   </g>
   <g id="PolyCollection_4">
    <defs>
     <path id="mb081909b72" d="M 324.903716 -69.187947 
L 323.745163 -69.187947 
L 323.622616 -71.299685 
L 323.480561 -73.411422 
L 323.317359 -75.523159 
L 323.131537 -77.634897 
L 322.921853 -79.746634 
L 322.687367 -81.858371 
L 322.427502 -83.970109 
L 322.1421 -86.081846 
L 321.831473 -88.193584 
L 321.496426 -90.305321 
L 321.138276 -92.417058 
L 320.758838 -94.528796 
L 320.360395 -96.640533 
L 319.945642 -98.75227 
L 319.517607 -100.864008 
L 319.079554 -102.975745 
L 318.634867 -105.087482 
L 318.186925 -107.19922 
L 317.738974 -109.310957 
L 317.294 -111.422695 
L 316.854609 -113.534432 
L 316.422935 -115.646169 
L 316.00056 -117.757907 
L 315.588474 -119.869644 
L 315.187067 -121.981381 
L 314.796153 -124.093119 
L 314.415033 -126.204856 
L 314.042593 -128.316593 
L 313.677431 -130.428331 
L 313.317998 -132.540068 
L 312.962769 -134.651806 
L 312.610401 -136.763543 
L 312.259903 -138.87528 
L 311.910776 -140.987018 
L 311.563142 -143.098755 
L 311.217834 -145.210492 
L 310.876452 -147.32223 
L 310.541379 -149.433967 
L 310.215748 -151.545704 
L 309.903376 -153.657442 
L 309.60865 -155.769179 
L 309.336387 -157.880917 
L 309.091662 -159.992654 
L 308.879617 -162.104391 
L 308.705267 -164.216129 
L 308.573295 -166.327866 
L 308.487867 -168.439603 
L 308.452458 -170.551341 
L 308.469704 -172.663078 
L 308.541289 -174.774815 
L 308.66786 -176.886553 
L 308.848994 -178.99829 
L 309.083189 -181.110028 
L 309.367906 -183.221765 
L 309.699645 -185.333502 
L 310.074051 -187.44524 
L 310.486056 -189.556977 
L 310.930031 -191.668714 
L 311.399974 -193.780452 
L 311.889686 -195.892189 
L 312.392965 -198.003926 
L 312.903783 -200.115664 
L 313.416462 -202.227401 
L 313.925823 -204.339139 
L 314.427309 -206.450876 
L 314.917087 -208.562613 
L 315.39211 -210.674351 
L 315.850146 -212.786088 
L 316.289774 -214.897825 
L 316.710343 -217.009563 
L 317.111902 -219.1213 
L 317.495105 -221.233037 
L 317.861091 -223.344775 
L 318.211357 -225.456512 
L 318.547615 -227.56825 
L 318.871661 -229.679987 
L 319.185243 -231.791724 
L 319.489954 -233.903462 
L 319.78713 -236.015199 
L 320.077792 -238.126936 
L 320.362598 -240.238674 
L 320.641825 -242.350411 
L 320.915388 -244.462148 
L 321.182862 -246.573886 
L 321.443544 -248.685623 
L 321.69651 -250.797361 
L 321.940695 -252.909098 
L 322.174967 -255.020835 
L 322.398204 -257.132573 
L 322.609363 -259.24431 
L 322.80754 -261.356047 
L 322.992013 -263.467785 
L 323.162279 -265.579522 
L 323.318068 -267.691259 
L 323.459353 -269.802997 
L 323.586333 -271.914734 
L 323.699426 -274.026472 
L 323.799231 -276.138209 
L 323.886503 -278.249946 
L 324.762376 -278.249946 
L 324.762376 -278.249946 
L 324.849648 -276.138209 
L 324.949453 -274.026472 
L 325.062545 -271.914734 
L 325.189526 -269.802997 
L 325.33081 -267.691259 
L 325.4866 -265.579522 
L 325.656866 -263.467785 
L 325.841339 -261.356047 
L 326.039516 -259.24431 
L 326.250675 -257.132573 
L 326.473912 -255.020835 
L 326.708184 -252.909098 
L 326.952369 -250.797361 
L 327.205335 -248.685623 
L 327.466016 -246.573886 
L 327.733491 -244.462148 
L 328.007053 -242.350411 
L 328.286281 -240.238674 
L 328.571086 -238.126936 
L 328.861749 -236.015199 
L 329.158925 -233.903462 
L 329.463635 -231.791724 
L 329.777218 -229.679987 
L 330.101264 -227.56825 
L 330.437522 -225.456512 
L 330.787787 -223.344775 
L 331.153774 -221.233037 
L 331.536977 -219.1213 
L 331.938536 -217.009563 
L 332.359105 -214.897825 
L 332.798732 -212.786088 
L 333.256768 -210.674351 
L 333.731791 -208.562613 
L 334.22157 -206.450876 
L 334.723056 -204.339139 
L 335.232416 -202.227401 
L 335.745096 -200.115664 
L 336.255914 -198.003926 
L 336.759192 -195.892189 
L 337.248904 -193.780452 
L 337.718847 -191.668714 
L 338.162823 -189.556977 
L 338.574827 -187.44524 
L 338.949234 -185.333502 
L 339.280973 -183.221765 
L 339.56569 -181.110028 
L 339.799885 -178.99829 
L 339.981019 -176.886553 
L 340.10759 -174.774815 
L 340.179175 -172.663078 
L 340.196421 -170.551341 
L 340.161012 -168.439603 
L 340.075584 -166.327866 
L 339.943612 -164.216129 
L 339.769262 -162.104391 
L 339.557217 -159.992654 
L 339.312492 -157.880917 
L 339.040229 -155.769179 
L 338.745503 -153.657442 
L 338.43313 -151.545704 
L 338.1075 -149.433967 
L 337.772426 -147.32223 
L 337.431045 -145.210492 
L 337.085737 -143.098755 
L 336.738103 -140.987018 
L 336.388976 -138.87528 
L 336.038478 -136.763543 
L 335.68611 -134.651806 
L 335.330881 -132.540068 
L 334.971448 -130.428331 
L 334.606285 -128.316593 
L 334.233846 -126.204856 
L 333.852726 -124.093119 
L 333.461811 -121.981381 
L 333.060405 -119.869644 
L 332.648319 -117.757907 
L 332.225944 -115.646169 
L 331.794269 -113.534432 
L 331.354879 -111.422695 
L 330.909904 -109.310957 
L 330.461954 -107.19922 
L 330.014012 -105.087482 
L 329.569325 -102.975745 
L 329.131271 -100.864008 
L 328.703236 -98.75227 
L 328.288483 -96.640533 
L 327.890041 -94.528796 
L 327.510603 -92.417058 
L 327.152453 -90.305321 
L 326.817406 -88.193584 
L 326.506779 -86.081846 
L 326.221377 -83.970109 
L 325.961512 -81.858371 
L 325.727026 -79.746634 
L 325.517342 -77.634897 
L 325.331519 -75.523159 
L 325.168318 -73.411422 
L 325.026263 -71.299685 
L 324.903716 -69.187947 
z
" style="stroke: #3f3f3f; stroke-width: 1.25"/>
    </defs>
    <g clip-path="url(#p659a03aedf)">
     <use xlink:href="#mb081909b72" x="0" y="360" style="fill: #e1812c; stroke: #3f3f3f; stroke-width: 1.25"/>
    </g>
   </g>
   <g id="line2d_7">
    <path d="M 94.68033 225.982888 
L 94.68033 159.675908 
" clip-path="url(#p659a03aedf)" style="fill: none; stroke: #3f3f3f; stroke-width: 1.875; stroke-linecap: round"/>
   </g>
   <g id="line2d_8">
    <path d="M 94.68033 195.474486 
L 94.68033 175.116072 
" clip-path="url(#p659a03aedf)" style="fill: none; stroke: #3f3f3f; stroke-width: 5.625; stroke-linecap: round"/>
   </g>
   <g id="line2d_9">
    <path d="M 94.68033 186.969641 
" clip-path="url(#p659a03aedf)" style="fill: none; stroke: #3f3f3f; stroke-width: 1.5; stroke-linecap: round"/>
    <defs>
     <path id="m1c4919a608" d="M 2.34375 0 
L -2.34375 -0 
" style="stroke: #ffffff; stroke-width: 1.125"/>
    </defs>
    <g clip-path="url(#p659a03aedf)">
     <use xlink:href="#m1c4919a608" x="94.68033" y="186.969641" style="fill: #ffffff; stroke: #ffffff; stroke-width: 1.125"/>
    </g>
   </g>
   <g id="line2d_10">
    <path d="M 160.292932 215.246179 
L 160.292932 173.352654 
" clip-path="url(#p659a03aedf)" style="fill: none; stroke: #3f3f3f; stroke-width: 1.875; stroke-linecap: round"/>
   </g>
   <g id="line2d_11">
    <path d="M 160.292932 200.474245 
L 160.292932 179.058245 
" clip-path="url(#p659a03aedf)" style="fill: none; stroke: #3f3f3f; stroke-width: 5.625; stroke-linecap: round"/>
   </g>
   <g id="line2d_12">
    <path d="M 160.292932 189.984086 
" clip-path="url(#p659a03aedf)" style="fill: none; stroke: #3f3f3f; stroke-width: 1.5; stroke-linecap: round"/>
    <g clip-path="url(#p659a03aedf)">
     <use xlink:href="#m1c4919a608" x="160.292932" y="189.984086" style="fill: #ffffff; stroke: #ffffff; stroke-width: 1.125"/>
    </g>
   </g>
   <g id="line2d_13">
    <path d="M 258.711837 221.697403 
L 258.711837 150.191187 
" clip-path="url(#p659a03aedf)" style="fill: none; stroke: #3f3f3f; stroke-width: 1.875; stroke-linecap: round"/>
   </g>
   <g id="line2d_14">
    <path d="M 258.711837 216.704165 
L 258.711837 174.235731 
" clip-path="url(#p659a03aedf)" style="fill: none; stroke: #3f3f3f; stroke-width: 5.625; stroke-linecap: round"/>
   </g>
   <g id="line2d_15">
    <path d="M 258.711837 205.75647 
" clip-path="url(#p659a03aedf)" style="fill: none; stroke: #3f3f3f; stroke-width: 1.5; stroke-linecap: round"/>
    <g clip-path="url(#p659a03aedf)">
     <use xlink:href="#m1c4919a608" x="258.711837" y="205.75647" style="fill: #ffffff; stroke: #ffffff; stroke-width: 1.125"/>
    </g>
   </g>
   <g id="line2d_16">
    <path d="M 324.324439 244.430704 
L 324.324439 128.131402 
" clip-path="url(#p659a03aedf)" style="fill: none; stroke: #3f3f3f; stroke-width: 1.875; stroke-linecap: round"/>
   </g>
   <g id="line2d_17">
    <path d="M 324.324439 212.361707 
L 324.324439 172.333982 
" clip-path="url(#p659a03aedf)" style="fill: none; stroke: #3f3f3f; stroke-width: 5.625; stroke-linecap: round"/>
   </g>
   <g id="line2d_18">
    <path d="M 324.324439 187.875679 
" clip-path="url(#p659a03aedf)" style="fill: none; stroke: #3f3f3f; stroke-width: 1.5; stroke-linecap: round"/>
    <g clip-path="url(#p659a03aedf)">
     <use xlink:href="#m1c4919a608" x="324.324439" y="187.875679" style="fill: #ffffff; stroke: #ffffff; stroke-width: 1.125"/>
    </g>
   </g>
   <g id="patch_3">
    <path d="M 45.470877 318.04 
L 45.470877 24.72 
" style="fill: none; stroke: #cccccc; stroke-width: 0.8; stroke-linejoin: miter; stroke-linecap: square"/>
   </g>
   <g id="patch_4">
    <path d="M 45.470878 318.04 
L 373.533891 318.04 
" style="fill: none; stroke: #cccccc; stroke-width: 0.8; stroke-linejoin: miter; stroke-linecap: square"/>
   </g>
   <g id="text_11">
    <!-- sex = f -->
    <g style="fill: #262626" transform="translate(194.634416 18.72) scale(0.1 -0.1)">
     <defs>
      <path id="ArialMT-73" d="M 197 991 
L 753 1078 
Q 800 744 1014 566 
Q 1228 388 1613 388 
Q 2000 388 2187 545 
Q 2375 703 2375 916 
Q 2375 1106 2209 1216 
Q 2094 1291 1634 1406 
Q 1016 1563 777 1677 
Q 538 1791 414 1992 
Q 291 2194 291 2438 
Q 291 2659 392 2848 
Q 494 3038 669 3163 
Q 800 3259 1026 3326 
Q 1253 3394 1513 3394 
Q 1903 3394 2198 3281 
Q 2494 3169 2634 2976 
Q 2775 2784 2828 2463 
L 2278 2388 
Q 2241 2644 2061 2787 
Q 1881 2931 1553 2931 
Q 1166 2931 1000 2803 
Q 834 2675 834 2503 
Q 834 2394 903 2306 
Q 972 2216 1119 2156 
Q 1203 2125 1616 2013 
Q 2213 1853 2448 1751 
Q 2684 1650 2818 1456 
Q 2953 1263 2953 975 
Q 2953 694 2789 445 
Q 2625 197 2315 61 
Q 2006 -75 1616 -75 
Q 969 -75 630 194 
Q 291 463 197 991 
z
" transform="scale(0.015625)"/>
      <path id="ArialMT-78" d="M 47 0 
L 1259 1725 
L 138 3319 
L 841 3319 
L 1350 2541 
Q 1494 2319 1581 2169 
Q 1719 2375 1834 2534 
L 2394 3319 
L 3066 3319 
L 1919 1756 
L 3153 0 
L 2463 0 
L 1781 1031 
L 1600 1309 
L 728 0 
L 47 0 
z
" transform="scale(0.015625)"/>
      <path id="ArialMT-20" transform="scale(0.015625)"/>
      <path id="ArialMT-3d" d="M 3381 2694 
L 356 2694 
L 356 3219 
L 3381 3219 
L 3381 2694 
z
M 3381 1303 
L 356 1303 
L 356 1828 
L 3381 1828 
L 3381 1303 
z
" transform="scale(0.015625)"/>
      <path id="ArialMT-66" d="M 556 0 
L 556 2881 
L 59 2881 
L 59 3319 
L 556 3319 
L 556 3672 
Q 556 4006 616 4169 
Q 697 4388 901 4523 
Q 1106 4659 1475 4659 
Q 1713 4659 2000 4603 
L 1916 4113 
Q 1741 4144 1584 4144 
Q 1328 4144 1222 4034 
Q 1116 3925 1116 3625 
L 1116 3319 
L 1763 3319 
L 1763 2881 
L 1116 2881 
L 1116 0 
L 556 0 
z
" transform="scale(0.015625)"/>
     </defs>
     <use xlink:href="#ArialMT-73"/>
     <use xlink:href="#ArialMT-65" x="50"/>
     <use xlink:href="#ArialMT-78" x="105.615234"/>
     <use xlink:href="#ArialMT-20" x="155.615234"/>
     <use xlink:href="#ArialMT-3d" x="183.398438"/>
     <use xlink:href="#ArialMT-20" x="241.796875"/>
     <use xlink:href="#ArialMT-66" x="269.580078"/>
    </g>
   </g>
  </g>
  <g id="axes_2">
   <g id="patch_5">
    <path d="M 384.348186 318.04 
L 712.4112 318.04 
L 712.4112 24.72 
L 384.348186 24.72 
z
" style="fill: #ffffff"/>
   </g>
   <g id="matplotlib.axis_3">
    <g id="xtick_3">
     <g id="text_12">
      <!-- Baia -->
      <g style="fill: #262626" transform="translate(456.356908 332.197812) scale(0.1 -0.1)">
       <use xlink:href="#ArialMT-42"/>
       <use xlink:href="#ArialMT-61" x="66.699219"/>
       <use xlink:href="#ArialMT-69" x="122.314453"/>
       <use xlink:href="#ArialMT-61" x="144.53125"/>
      </g>
     </g>
    </g>
    <g id="xtick_4">
     <g id="text_13">
      <!-- Jurilovca -->
      <g style="fill: #262626" transform="translate(610.667322 332.197812) scale(0.1 -0.1)">
       <use xlink:href="#ArialMT-4a"/>
       <use xlink:href="#ArialMT-75" x="50"/>
       <use xlink:href="#ArialMT-72" x="105.615234"/>
       <use xlink:href="#ArialMT-69" x="138.916016"/>
       <use xlink:href="#ArialMT-6c" x="161.132812"/>
       <use xlink:href="#ArialMT-6f" x="183.349609"/>
       <use xlink:href="#ArialMT-76" x="238.964844"/>
       <use xlink:href="#ArialMT-63" x="288.964844"/>
       <use xlink:href="#ArialMT-61" x="338.964844"/>
      </g>
     </g>
    </g>
    <g id="text_14">
     <!-- location -->
     <g style="fill: #262626" transform="translate(531.146881 345.343125) scale(0.1 -0.1)">
      <use xlink:href="#ArialMT-6c"/>
      <use xlink:href="#ArialMT-6f" x="22.216797"/>
      <use xlink:href="#ArialMT-63" x="77.832031"/>
      <use xlink:href="#ArialMT-61" x="127.832031"/>
      <use xlink:href="#ArialMT-74" x="183.447266"/>
      <use xlink:href="#ArialMT-69" x="211.230469"/>
      <use xlink:href="#ArialMT-6f" x="233.447266"/>
      <use xlink:href="#ArialMT-6e" x="289.0625"/>
     </g>
    </g>
   </g>
   <g id="matplotlib.axis_4">
    <g id="ytick_7">
     <g id="line2d_19">
      <path d="M 384.348186 278.762723 
L 712.4112 278.762723 
" clip-path="url(#p668976aebc)" style="fill: none; stroke: #cccccc; stroke-width: 0.8; stroke-linecap: round"/>
     </g>
    </g>
    <g id="ytick_8">
     <g id="line2d_20">
      <path d="M 384.348186 230.843612 
L 712.4112 230.843612 
" clip-path="url(#p668976aebc)" style="fill: none; stroke: #cccccc; stroke-width: 0.8; stroke-linecap: round"/>
     </g>
    </g>
    <g id="ytick_9">
     <g id="line2d_21">
      <path d="M 384.348186 182.924502 
L 712.4112 182.924502 
" clip-path="url(#p668976aebc)" style="fill: none; stroke: #cccccc; stroke-width: 0.8; stroke-linecap: round"/>
     </g>
    </g>
    <g id="ytick_10">
     <g id="line2d_22">
      <path d="M 384.348186 135.005392 
L 712.4112 135.005392 
" clip-path="url(#p668976aebc)" style="fill: none; stroke: #cccccc; stroke-width: 0.8; stroke-linecap: round"/>
     </g>
    </g>
    <g id="ytick_11">
     <g id="line2d_23">
      <path d="M 384.348186 87.086282 
L 712.4112 87.086282 
" clip-path="url(#p668976aebc)" style="fill: none; stroke: #cccccc; stroke-width: 0.8; stroke-linecap: round"/>
     </g>
    </g>
    <g id="ytick_12">
     <g id="line2d_24">
      <path d="M 384.348186 39.167171 
L 712.4112 39.167171 
" clip-path="url(#p668976aebc)" style="fill: none; stroke: #cccccc; stroke-width: 0.8; stroke-linecap: round"/>
     </g>
    </g>
   </g>
   <g id="PolyCollection_5">
    <defs>
     <path id="m8d111a1a22" d="M 435.358286 -117.41474 
L 431.756991 -117.41474 
L 431.348799 -119.385501 
L 430.869771 -121.356262 
L 430.312932 -123.327023 
L 429.671818 -125.297784 
L 428.940767 -127.268545 
L 428.115249 -129.239306 
L 427.192189 -131.210067 
L 426.170287 -133.180828 
L 425.050313 -135.15159 
L 423.835351 -137.122351 
L 422.530987 -139.093112 
L 421.145413 -141.063873 
L 419.68944 -143.034634 
L 418.176404 -145.005395 
L 416.621971 -146.976156 
L 415.043824 -148.946917 
L 413.46126 -150.917678 
L 411.894693 -152.888439 
L 410.365085 -154.8592 
L 408.893343 -156.829961 
L 407.499681 -158.800722 
L 406.203002 -160.771483 
L 405.02031 -162.742244 
L 403.966188 -164.713005 
L 403.052357 -166.683767 
L 402.287339 -168.654528 
L 401.676242 -170.625289 
L 401.220653 -172.59605 
L 400.918666 -174.566811 
L 400.765019 -176.537572 
L 400.751337 -178.508333 
L 400.866469 -180.479094 
L 401.096894 -182.449855 
L 401.427188 -184.420616 
L 401.840518 -186.391377 
L 402.319164 -188.362138 
L 402.845029 -190.332899 
L 403.400148 -192.30366 
L 403.967155 -194.274421 
L 404.529721 -196.245183 
L 405.072943 -198.215944 
L 405.58368 -200.186705 
L 406.050833 -202.157466 
L 406.465561 -204.128227 
L 406.821444 -206.098988 
L 407.11457 -208.069749 
L 407.343573 -210.04051 
L 407.509596 -212.011271 
L 407.616195 -213.982032 
L 407.669192 -215.952793 
L 407.676454 -217.923554 
L 407.647629 -219.894315 
L 407.593835 -221.865076 
L 407.5273 -223.835837 
L 407.460973 -225.806598 
L 407.408117 -227.77736 
L 407.381884 -229.748121 
L 407.394902 -231.718882 
L 407.458872 -233.689643 
L 407.584206 -235.660404 
L 407.779707 -237.631165 
L 408.052312 -239.601926 
L 408.406897 -241.572687 
L 408.846172 -243.543448 
L 409.370651 -245.514209 
L 409.978695 -247.48497 
L 410.66665 -249.455731 
L 411.429033 -251.426492 
L 412.258787 -253.397253 
L 413.147573 -255.368014 
L 414.086087 -257.338775 
L 415.064389 -259.309537 
L 416.072222 -261.280298 
L 417.099313 -263.251059 
L 418.13564 -265.22182 
L 419.17166 -267.192581 
L 420.198491 -269.163342 
L 421.208048 -271.134103 
L 422.193132 -273.104864 
L 423.147478 -275.075625 
L 424.065769 -277.046386 
L 424.943619 -279.017147 
L 425.777537 -280.987908 
L 426.564874 -282.958669 
L 427.303761 -284.92943 
L 427.993049 -286.900191 
L 428.632237 -288.870953 
L 429.221416 -290.841714 
L 429.761201 -292.812475 
L 430.252679 -294.783236 
L 430.697348 -296.753997 
L 431.097066 -298.724758 
L 431.453995 -300.695519 
L 431.770546 -302.66628 
L 432.049328 -304.637041 
L 432.293088 -306.607802 
L 432.504664 -308.578563 
L 432.686929 -310.549324 
L 432.842742 -312.520085 
L 434.272534 -312.520085 
L 434.272534 -312.520085 
L 434.428347 -310.549324 
L 434.610612 -308.578563 
L 434.822188 -306.607802 
L 435.065949 -304.637041 
L 435.34473 -302.66628 
L 435.661281 -300.695519 
L 436.01821 -298.724758 
L 436.417928 -296.753997 
L 436.862597 -294.783236 
L 437.354075 -292.812475 
L 437.89386 -290.841714 
L 438.483039 -288.870953 
L 439.122227 -286.900191 
L 439.811515 -284.92943 
L 440.550403 -282.958669 
L 441.337739 -280.987908 
L 442.171657 -279.017147 
L 443.049507 -277.046386 
L 443.967798 -275.075625 
L 444.922144 -273.104864 
L 445.907228 -271.134103 
L 446.916785 -269.163342 
L 447.943616 -267.192581 
L 448.979636 -265.22182 
L 450.015963 -263.251059 
L 451.043054 -261.280298 
L 452.050887 -259.309537 
L 453.029189 -257.338775 
L 453.967703 -255.368014 
L 454.856489 -253.397253 
L 455.686243 -251.426492 
L 456.448626 -249.455731 
L 457.136581 -247.48497 
L 457.744626 -245.514209 
L 458.269104 -243.543448 
L 458.70838 -241.572687 
L 459.062965 -239.601926 
L 459.335569 -237.631165 
L 459.53107 -235.660404 
L 459.656405 -233.689643 
L 459.720374 -231.718882 
L 459.733392 -229.748121 
L 459.707159 -227.77736 
L 459.654303 -225.806598 
L 459.587977 -223.835837 
L 459.521441 -221.865076 
L 459.467647 -219.894315 
L 459.438823 -217.923554 
L 459.446084 -215.952793 
L 459.499081 -213.982032 
L 459.605681 -212.011271 
L 459.771703 -210.04051 
L 460.000706 -208.069749 
L 460.293832 -206.098988 
L 460.649715 -204.128227 
L 461.064443 -202.157466 
L 461.531596 -200.186705 
L 462.042333 -198.215944 
L 462.585555 -196.245183 
L 463.148121 -194.274421 
L 463.715128 -192.30366 
L 464.270247 -190.332899 
L 464.796112 -188.362138 
L 465.274758 -186.391377 
L 465.688088 -184.420616 
L 466.018382 -182.449855 
L 466.248807 -180.479094 
L 466.36394 -178.508333 
L 466.350258 -176.537572 
L 466.19661 -174.566811 
L 465.894623 -172.59605 
L 465.439034 -170.625289 
L 464.827937 -168.654528 
L 464.06292 -166.683767 
L 463.149088 -164.713005 
L 462.094966 -162.742244 
L 460.912275 -160.771483 
L 459.615596 -158.800722 
L 458.221933 -156.829961 
L 456.750191 -154.8592 
L 455.220584 -152.888439 
L 453.654016 -150.917678 
L 452.071452 -148.946917 
L 450.493306 -146.976156 
L 448.938872 -145.005395 
L 447.425836 -143.034634 
L 445.969863 -141.063873 
L 444.584289 -139.093112 
L 443.279925 -137.122351 
L 442.064963 -135.15159 
L 440.944989 -133.180828 
L 439.923088 -131.210067 
L 439.000027 -129.239306 
L 438.174509 -127.268545 
L 437.443459 -125.297784 
L 436.802344 -123.327023 
L 436.245506 -121.356262 
L 435.766477 -119.385501 
L 435.358286 -117.41474 
z
" style="stroke: #3f3f3f; stroke-width: 1.25"/>
    </defs>
    <g clip-path="url(#p668976aebc)">
     <use xlink:href="#m8d111a1a22" x="0" y="360" style="fill: #3274a1; stroke: #3f3f3f; stroke-width: 1.25"/>
    </g>
   </g>
   <g id="PolyCollection_6">
    <defs>
     <path id="mc50b320434" d="M 500.204836 -100.042013 
L 498.135645 -100.042013 
L 497.900254 -101.708773 
L 497.625089 -103.375533 
L 497.306764 -105.042293 
L 496.94233 -106.709053 
L 496.529428 -108.375813 
L 496.066445 -110.042573 
L 495.552656 -111.709333 
L 494.988338 -113.376093 
L 494.374847 -115.042853 
L 493.714656 -116.709613 
L 493.011342 -118.376373 
L 492.269523 -120.043133 
L 491.494742 -121.709894 
L 490.693304 -123.376654 
L 489.872078 -125.043414 
L 489.038266 -126.710174 
L 488.19916 -128.376934 
L 487.361903 -130.043694 
L 486.533262 -131.710454 
L 485.719432 -133.377214 
L 484.92588 -135.043974 
L 484.157235 -136.710734 
L 483.417235 -138.377494 
L 482.70872 -140.044254 
L 482.033665 -141.711014 
L 481.393259 -143.377775 
L 480.787997 -145.044535 
L 480.217789 -146.711295 
L 479.682064 -148.378055 
L 479.179864 -150.044815 
L 478.709913 -151.711575 
L 478.270666 -153.378335 
L 477.86033 -155.045095 
L 477.476867 -156.711855 
L 477.117982 -158.378615 
L 476.781114 -160.045375 
L 476.463435 -161.712135 
L 476.161873 -163.378895 
L 475.87317 -165.045656 
L 475.593974 -166.712416 
L 475.320978 -168.379176 
L 475.051105 -170.045936 
L 474.781711 -171.712696 
L 474.510826 -173.379456 
L 474.237385 -175.046216 
L 473.961458 -176.712976 
L 473.684435 -178.379736 
L 473.409169 -180.046496 
L 473.14004 -181.713256 
L 472.882946 -183.380016 
L 472.645195 -185.046776 
L 472.435316 -186.713537 
L 472.262776 -188.380297 
L 472.137622 -190.047057 
L 472.070068 -191.713817 
L 472.070044 -193.380577 
L 472.146726 -195.047337 
L 472.308088 -196.714097 
L 472.560488 -198.380857 
L 472.908325 -200.047617 
L 473.353771 -201.714377 
L 473.896618 -203.381137 
L 474.534225 -205.047897 
L 475.261592 -206.714657 
L 476.07153 -208.381418 
L 476.954946 -210.048178 
L 477.901201 -211.714938 
L 478.898531 -213.381698 
L 479.934503 -215.048458 
L 480.996476 -216.715218 
L 482.072048 -218.381978 
L 483.149453 -220.048738 
L 484.217893 -221.715498 
L 485.267802 -223.382258 
L 486.291008 -225.049018 
L 487.280821 -226.715778 
L 488.232025 -228.382538 
L 489.140807 -230.049299 
L 490.004623 -231.716059 
L 490.822022 -233.382819 
L 491.592452 -235.049579 
L 492.316058 -236.716339 
L 492.993492 -238.383099 
L 493.625744 -240.049859 
L 494.214009 -241.716619 
L 494.759581 -243.383379 
L 495.263792 -245.050139 
L 495.727978 -246.716899 
L 496.153474 -248.383659 
L 496.541623 -250.050419 
L 496.893809 -251.71718 
L 497.211479 -253.38394 
L 497.496176 -255.0507 
L 497.749553 -256.71746 
L 497.973389 -258.38422 
L 498.16958 -260.05098 
L 498.340131 -261.71774 
L 498.487126 -263.3845 
L 498.612699 -265.05126 
L 499.727782 -265.05126 
L 499.727782 -265.05126 
L 499.853356 -263.3845 
L 500.000351 -261.71774 
L 500.170901 -260.05098 
L 500.367093 -258.38422 
L 500.590929 -256.71746 
L 500.844306 -255.0507 
L 501.129002 -253.38394 
L 501.446673 -251.71718 
L 501.798859 -250.050419 
L 502.187008 -248.383659 
L 502.612504 -246.716899 
L 503.07669 -245.050139 
L 503.580901 -243.383379 
L 504.126473 -241.716619 
L 504.714737 -240.049859 
L 505.34699 -238.383099 
L 506.024424 -236.716339 
L 506.74803 -235.049579 
L 507.51846 -233.382819 
L 508.335859 -231.716059 
L 509.199675 -230.049299 
L 510.108457 -228.382538 
L 511.059661 -226.715778 
L 512.049474 -225.049018 
L 513.07268 -223.382258 
L 514.122589 -221.715498 
L 515.191029 -220.048738 
L 516.268433 -218.381978 
L 517.344006 -216.715218 
L 518.405979 -215.048458 
L 519.44195 -213.381698 
L 520.43928 -211.714938 
L 521.385535 -210.048178 
L 522.268952 -208.381418 
L 523.07889 -206.714657 
L 523.806256 -205.047897 
L 524.443864 -203.381137 
L 524.986711 -201.714377 
L 525.432157 -200.047617 
L 525.779994 -198.380857 
L 526.032394 -196.714097 
L 526.193756 -195.047337 
L 526.270438 -193.380577 
L 526.270414 -191.713817 
L 526.20286 -190.047057 
L 526.077706 -188.380297 
L 525.905166 -186.713537 
L 525.695287 -185.046776 
L 525.457536 -183.380016 
L 525.200442 -181.713256 
L 524.931313 -180.046496 
L 524.656047 -178.379736 
L 524.379024 -176.712976 
L 524.103097 -175.046216 
L 523.829656 -173.379456 
L 523.558771 -171.712696 
L 523.289377 -170.045936 
L 523.019504 -168.379176 
L 522.746508 -166.712416 
L 522.467312 -165.045656 
L 522.178608 -163.378895 
L 521.877047 -161.712135 
L 521.559368 -160.045375 
L 521.2225 -158.378615 
L 520.863615 -156.711855 
L 520.480151 -155.045095 
L 520.069816 -153.378335 
L 519.630569 -151.711575 
L 519.160618 -150.044815 
L 518.658418 -148.378055 
L 518.122693 -146.711295 
L 517.552485 -145.044535 
L 516.947223 -143.377775 
L 516.306817 -141.711014 
L 515.631762 -140.044254 
L 514.923247 -138.377494 
L 514.183247 -136.710734 
L 513.414602 -135.043974 
L 512.621049 -133.377214 
L 511.80722 -131.710454 
L 510.978579 -130.043694 
L 510.141322 -128.376934 
L 509.302216 -126.710174 
L 508.468404 -125.043414 
L 507.647178 -123.376654 
L 506.84574 -121.709894 
L 506.070959 -120.043133 
L 505.32914 -118.376373 
L 504.625826 -116.709613 
L 503.965635 -115.042853 
L 503.352144 -113.376093 
L 502.787826 -111.709333 
L 502.274037 -110.042573 
L 501.811054 -108.375813 
L 501.398151 -106.709053 
L 501.033717 -105.042293 
L 500.715393 -103.375533 
L 500.440228 -101.708773 
L 500.204836 -100.042013 
z
" style="stroke: #3f3f3f; stroke-width: 1.25"/>
    </defs>
    <g clip-path="url(#p668976aebc)">
     <use xlink:href="#mc50b320434" x="0" y="360" style="fill: #e1812c; stroke: #3f3f3f; stroke-width: 1.25"/>
    </g>
   </g>
   <g id="PolyCollection_7">
    <defs>
     <path id="m2fd213211e" d="M 598.501637 -55.292727 
L 596.676653 -55.292727 
L 596.492724 -57.986208 
L 596.280651 -60.679688 
L 596.038078 -63.373168 
L 595.762844 -66.066648 
L 595.453063 -68.760129 
L 595.107222 -71.453609 
L 594.724264 -74.147089 
L 594.303675 -76.840569 
L 593.845565 -79.53405 
L 593.350728 -82.22753 
L 592.820693 -84.92101 
L 592.257746 -87.61449 
L 591.664939 -90.307971 
L 591.046058 -93.001451 
L 590.405573 -95.694931 
L 589.748549 -98.388411 
L 589.080542 -101.081892 
L 588.407453 -103.775372 
L 587.735373 -106.468852 
L 587.070399 -109.162332 
L 586.418449 -111.855813 
L 585.785068 -114.549293 
L 585.175234 -117.242773 
L 584.593186 -119.936253 
L 584.042261 -122.629734 
L 583.524765 -125.323214 
L 583.041878 -128.016694 
L 582.5936 -130.710174 
L 582.178739 -133.403655 
L 581.794951 -136.097135 
L 581.438822 -138.790615 
L 581.106004 -141.484096 
L 580.791387 -144.177576 
L 580.489317 -146.871056 
L 580.193832 -149.564536 
L 579.898926 -152.258017 
L 579.598825 -154.951497 
L 579.288251 -157.644977 
L 578.962678 -160.338457 
L 578.618566 -163.031938 
L 578.253547 -165.725418 
L 577.866578 -168.418898 
L 577.458029 -171.112378 
L 577.029723 -173.805859 
L 576.584907 -176.499339 
L 576.128172 -179.192819 
L 575.665311 -181.886299 
L 575.203134 -184.57978 
L 574.74924 -187.27326 
L 574.311762 -189.96674 
L 573.8991 -192.66022 
L 573.519645 -195.353701 
L 573.181519 -198.047181 
L 572.892329 -200.740661 
L 572.65896 -203.434141 
L 572.487404 -206.127622 
L 572.382629 -208.821102 
L 572.348495 -211.514582 
L 572.387722 -214.208062 
L 572.501892 -216.901543 
L 572.691488 -219.595023 
L 572.95597 -222.288503 
L 573.293864 -224.981983 
L 573.70287 -227.675464 
L 574.179975 -230.368944 
L 574.72156 -233.062424 
L 575.323509 -235.755904 
L 575.981295 -238.449385 
L 576.690062 -241.142865 
L 577.444683 -243.836345 
L 578.239817 -246.529826 
L 579.06994 -249.223306 
L 579.929383 -251.916786 
L 580.812355 -254.610266 
L 581.712972 -257.303747 
L 582.625287 -259.997227 
L 583.543329 -262.690707 
L 584.461149 -265.384187 
L 585.372877 -268.077668 
L 586.272784 -270.771148 
L 587.155356 -273.464628 
L 588.015369 -276.158108 
L 588.84797 -278.851589 
L 589.64875 -281.545069 
L 590.413814 -284.238549 
L 591.139843 -286.932029 
L 591.824138 -289.62551 
L 592.464652 -292.31899 
L 593.060005 -295.01247 
L 593.60948 -297.70595 
L 594.113 -300.399431 
L 594.571092 -303.092911 
L 594.984833 -305.786391 
L 595.355788 -308.479871 
L 595.685936 -311.173352 
L 595.977594 -313.866832 
L 596.233332 -316.560312 
L 596.455899 -319.253792 
L 596.648146 -321.947273 
L 598.530144 -321.947273 
L 598.530144 -321.947273 
L 598.722391 -319.253792 
L 598.944959 -316.560312 
L 599.200697 -313.866832 
L 599.492354 -311.173352 
L 599.822502 -308.479871 
L 600.193457 -305.786391 
L 600.607198 -303.092911 
L 601.06529 -300.399431 
L 601.56881 -297.70595 
L 602.118285 -295.01247 
L 602.713638 -292.31899 
L 603.354152 -289.62551 
L 604.038447 -286.932029 
L 604.764476 -284.238549 
L 605.52954 -281.545069 
L 606.33032 -278.851589 
L 607.162921 -276.158108 
L 608.022935 -273.464628 
L 608.905506 -270.771148 
L 609.805413 -268.077668 
L 610.717141 -265.384187 
L 611.634961 -262.690707 
L 612.553003 -259.997227 
L 613.465318 -257.303747 
L 614.365935 -254.610266 
L 615.248907 -251.916786 
L 616.10835 -249.223306 
L 616.938474 -246.529826 
L 617.733607 -243.836345 
L 618.488228 -241.142865 
L 619.196995 -238.449385 
L 619.854781 -235.755904 
L 620.45673 -233.062424 
L 620.998316 -230.368944 
L 621.47542 -227.675464 
L 621.884426 -224.981983 
L 622.22232 -222.288503 
L 622.486802 -219.595023 
L 622.676398 -216.901543 
L 622.790568 -214.208062 
L 622.829795 -211.514582 
L 622.795662 -208.821102 
L 622.690886 -206.127622 
L 622.51933 -203.434141 
L 622.285962 -200.740661 
L 621.996771 -198.047181 
L 621.658645 -195.353701 
L 621.27919 -192.66022 
L 620.866528 -189.96674 
L 620.42905 -187.27326 
L 619.975156 -184.57978 
L 619.512979 -181.886299 
L 619.050118 -179.192819 
L 618.593383 -176.499339 
L 618.148567 -173.805859 
L 617.720261 -171.112378 
L 617.311712 -168.418898 
L 616.924743 -165.725418 
L 616.559724 -163.031938 
L 616.215612 -160.338457 
L 615.89004 -157.644977 
L 615.579465 -154.951497 
L 615.279364 -152.258017 
L 614.984459 -149.564536 
L 614.688973 -146.871056 
L 614.386903 -144.177576 
L 614.072287 -141.484096 
L 613.739468 -138.790615 
L 613.383339 -136.097135 
L 612.999551 -133.403655 
L 612.58469 -130.710174 
L 612.136412 -128.016694 
L 611.653526 -125.323214 
L 611.136029 -122.629734 
L 610.585104 -119.936253 
L 610.003056 -117.242773 
L 609.393223 -114.549293 
L 608.759841 -111.855813 
L 608.107892 -109.162332 
L 607.442918 -106.468852 
L 606.770837 -103.775372 
L 606.097748 -101.081892 
L 605.429741 -98.388411 
L 604.772718 -95.694931 
L 604.132232 -93.001451 
L 603.513351 -90.307971 
L 602.920544 -87.61449 
L 602.357598 -84.92101 
L 601.827562 -82.22753 
L 601.332725 -79.53405 
L 600.874615 -76.840569 
L 600.454026 -74.147089 
L 600.071068 -71.453609 
L 599.725227 -68.760129 
L 599.415447 -66.066648 
L 599.140212 -63.373168 
L 598.89764 -60.679688 
L 598.685566 -57.986208 
L 598.501637 -55.292727 
z
" style="stroke: #3f3f3f; stroke-width: 1.25"/>
    </defs>
    <g clip-path="url(#p668976aebc)">
     <use xlink:href="#m2fd213211e" x="0" y="360" style="fill: #3274a1; stroke: #3f3f3f; stroke-width: 1.25"/>
    </g>
   </g>
   <g id="PolyCollection_8">
    <defs>
     <path id="m1124c4a05e" d="M 664.821383 -107.128985 
L 661.582113 -107.128985 
L 661.241237 -108.549525 
L 660.845848 -109.970064 
L 660.391184 -111.390604 
L 659.872897 -112.811144 
L 659.287248 -114.231684 
L 658.631303 -115.652223 
L 657.903135 -117.072763 
L 657.102008 -118.493303 
L 656.228537 -119.913843 
L 655.284819 -121.334382 
L 654.27451 -122.754922 
L 653.202856 -124.175462 
L 652.076656 -125.596002 
L 650.904157 -127.016541 
L 649.694893 -128.437081 
L 648.459441 -129.857621 
L 647.209139 -131.278161 
L 645.955748 -132.6987 
L 644.711086 -134.11924 
L 643.486651 -135.53978 
L 642.293256 -136.96032 
L 641.140686 -138.380859 
L 640.037413 -139.801399 
L 638.990369 -141.221939 
L 638.004811 -142.642479 
L 637.084264 -144.063018 
L 636.23057 -145.483558 
L 635.444018 -146.904098 
L 634.723563 -148.324638 
L 634.067114 -149.745177 
L 633.471864 -151.165717 
L 632.934653 -152.586257 
L 632.452325 -154.006797 
L 632.022076 -155.427336 
L 631.641738 -156.847876 
L 631.31001 -158.268416 
L 631.026607 -159.688956 
L 630.792317 -161.109495 
L 630.608971 -162.530035 
L 630.479318 -163.950575 
L 630.406832 -165.371115 
L 630.395447 -166.791654 
L 630.449253 -168.212194 
L 630.572171 -169.632734 
L 630.767619 -171.053274 
L 631.038207 -172.473813 
L 631.38547 -173.894353 
L 631.809652 -175.314893 
L 632.309563 -176.735433 
L 632.88251 -178.155972 
L 633.524303 -179.576512 
L 634.229337 -180.997052 
L 634.990741 -182.417592 
L 635.800587 -183.838131 
L 636.650144 -185.258671 
L 637.53016 -186.679211 
L 638.431167 -188.099751 
L 639.343781 -189.52029 
L 640.258996 -190.94083 
L 641.168447 -192.36137 
L 642.064648 -193.78191 
L 642.941176 -195.202449 
L 643.792811 -196.622989 
L 644.615629 -198.043529 
L 645.407029 -199.464069 
L 646.165717 -200.884608 
L 646.891637 -202.305148 
L 647.585853 -203.725688 
L 648.250401 -205.146228 
L 648.888098 -206.566767 
L 649.502337 -207.987307 
L 650.096866 -209.407847 
L 650.675567 -210.828387 
L 651.242236 -212.248926 
L 651.800386 -213.669466 
L 652.353068 -215.090006 
L 652.902732 -216.510546 
L 653.451117 -217.931085 
L 653.999191 -219.351625 
L 654.547126 -220.772165 
L 655.094318 -222.192705 
L 655.639444 -223.613244 
L 656.180557 -225.033784 
L 656.715197 -226.454324 
L 657.240538 -227.874864 
L 657.753528 -229.295404 
L 658.251041 -230.715943 
L 658.730027 -232.136483 
L 659.187638 -233.557023 
L 659.621345 -234.977563 
L 660.029027 -236.398102 
L 660.409039 -237.818642 
L 660.760247 -239.239182 
L 661.082045 -240.659722 
L 661.374341 -242.080261 
L 661.637528 -243.500801 
L 661.872435 -244.921341 
L 662.080267 -246.341881 
L 662.262536 -247.76242 
L 664.14096 -247.76242 
L 664.14096 -247.76242 
L 664.323228 -246.341881 
L 664.53106 -244.921341 
L 664.765968 -243.500801 
L 665.029155 -242.080261 
L 665.321451 -240.659722 
L 665.643249 -239.239182 
L 665.994457 -237.818642 
L 666.374469 -236.398102 
L 666.782151 -234.977563 
L 667.215857 -233.557023 
L 667.673468 -232.136483 
L 668.152454 -230.715943 
L 668.649968 -229.295404 
L 669.162957 -227.874864 
L 669.688298 -226.454324 
L 670.222939 -225.033784 
L 670.764052 -223.613244 
L 671.309178 -222.192705 
L 671.85637 -220.772165 
L 672.404305 -219.351625 
L 672.952379 -217.931085 
L 673.500764 -216.510546 
L 674.050428 -215.090006 
L 674.60311 -213.669466 
L 675.161259 -212.248926 
L 675.727929 -210.828387 
L 676.30663 -209.407847 
L 676.901159 -207.987307 
L 677.515398 -206.566767 
L 678.153094 -205.146228 
L 678.817642 -203.725688 
L 679.511859 -202.305148 
L 680.237779 -200.884608 
L 680.996467 -199.464069 
L 681.787867 -198.043529 
L 682.610685 -196.622989 
L 683.46232 -195.202449 
L 684.338848 -193.78191 
L 685.235049 -192.36137 
L 686.1445 -190.94083 
L 687.059715 -189.52029 
L 687.972329 -188.099751 
L 688.873335 -186.679211 
L 689.753352 -185.258671 
L 690.602908 -183.838131 
L 691.412755 -182.417592 
L 692.174159 -180.997052 
L 692.879192 -179.576512 
L 693.520985 -178.155972 
L 694.093932 -176.735433 
L 694.593844 -175.314893 
L 695.018025 -173.894353 
L 695.365288 -172.473813 
L 695.635877 -171.053274 
L 695.831325 -169.632734 
L 695.954243 -168.212194 
L 696.008049 -166.791654 
L 695.996664 -165.371115 
L 695.924177 -163.950575 
L 695.794525 -162.530035 
L 695.611178 -161.109495 
L 695.376889 -159.688956 
L 695.093486 -158.268416 
L 694.761758 -156.847876 
L 694.38142 -155.427336 
L 693.95117 -154.006797 
L 693.468843 -152.586257 
L 692.931631 -151.165717 
L 692.336381 -149.745177 
L 691.679933 -148.324638 
L 690.959478 -146.904098 
L 690.172926 -145.483558 
L 689.319231 -144.063018 
L 688.398685 -142.642479 
L 687.413126 -141.221939 
L 686.366083 -139.801399 
L 685.26281 -138.380859 
L 684.11024 -136.96032 
L 682.916844 -135.53978 
L 681.69241 -134.11924 
L 680.447747 -132.6987 
L 679.194356 -131.278161 
L 677.944055 -129.857621 
L 676.708603 -128.437081 
L 675.499338 -127.016541 
L 674.32684 -125.596002 
L 673.200639 -124.175462 
L 672.128986 -122.754922 
L 671.118677 -121.334382 
L 670.174959 -119.913843 
L 669.301488 -118.493303 
L 668.500361 -117.072763 
L 667.772193 -115.652223 
L 667.116248 -114.231684 
L 666.530599 -112.811144 
L 666.012312 -111.390604 
L 665.557648 -109.970064 
L 665.162259 -108.549525 
L 664.821383 -107.128985 
z
" style="stroke: #3f3f3f; stroke-width: 1.25"/>
    </defs>
    <g clip-path="url(#p668976aebc)">
     <use xlink:href="#m1124c4a05e" x="0" y="360" style="fill: #e1812c; stroke: #3f3f3f; stroke-width: 1.25"/>
    </g>
   </g>
   <g id="patch_6">
    <path d="M 466.36394 326.681833 
L 466.36394 326.681833 
L 466.36394 326.681833 
L 466.36394 326.681833 
z
" clip-path="url(#p668976aebc)" style="fill: #3274a1; stroke: #3f3f3f; stroke-width: 1.25; stroke-linejoin: miter"/>
   </g>
   <g id="patch_7">
    <path d="M 466.36394 326.681833 
L 466.36394 326.681833 
L 466.36394 326.681833 
L 466.36394 326.681833 
z
" clip-path="url(#p668976aebc)" style="fill: #e1812c; stroke: #3f3f3f; stroke-width: 1.25; stroke-linejoin: miter"/>
   </g>
   <g id="line2d_25">
    <path d="M 433.557638 200.231746 
L 433.557638 89.833429 
" clip-path="url(#p668976aebc)" style="fill: none; stroke: #3f3f3f; stroke-width: 1.875; stroke-linecap: round"/>
   </g>
   <g id="line2d_26">
    <path d="M 433.557638 189.291129 
L 433.557638 122.578656 
" clip-path="url(#p668976aebc)" style="fill: none; stroke: #3f3f3f; stroke-width: 5.625; stroke-linecap: round"/>
   </g>
   <g id="line2d_27">
    <path d="M 433.557638 165.50897 
" clip-path="url(#p668976aebc)" style="fill: none; stroke: #3f3f3f; stroke-width: 1.5; stroke-linecap: round"/>
    <g clip-path="url(#p668976aebc)">
     <use xlink:href="#m1c4919a608" x="433.557638" y="165.50897" style="fill: #ffffff; stroke: #ffffff; stroke-width: 1.125"/>
    </g>
   </g>
   <g id="line2d_28">
    <path d="M 499.170241 226.162173 
L 499.170241 128.744554 
" clip-path="url(#p668976aebc)" style="fill: none; stroke: #3f3f3f; stroke-width: 1.875; stroke-linecap: round"/>
   </g>
   <g id="line2d_29">
    <path d="M 499.170241 200.643144 
L 499.170241 157.938414 
" clip-path="url(#p668976aebc)" style="fill: none; stroke: #3f3f3f; stroke-width: 5.625; stroke-linecap: round"/>
   </g>
   <g id="line2d_30">
    <path d="M 499.170241 175.09902 
" clip-path="url(#p668976aebc)" style="fill: none; stroke: #3f3f3f; stroke-width: 1.5; stroke-linecap: round"/>
    <g clip-path="url(#p668976aebc)">
     <use xlink:href="#m1c4919a608" x="499.170241" y="175.09902" style="fill: #ffffff; stroke: #ffffff; stroke-width: 1.125"/>
    </g>
   </g>
   <g id="line2d_31">
    <path d="M 597.589145 242.670971 
L 597.589145 100.089029 
" clip-path="url(#p668976aebc)" style="fill: none; stroke: #3f3f3f; stroke-width: 1.875; stroke-linecap: round"/>
   </g>
   <g id="line2d_32">
    <path d="M 597.589145 203.497913 
L 597.589145 136.428346 
" clip-path="url(#p668976aebc)" style="fill: none; stroke: #3f3f3f; stroke-width: 5.625; stroke-linecap: round"/>
   </g>
   <g id="line2d_33">
    <path d="M 597.589145 163.997103 
" clip-path="url(#p668976aebc)" style="fill: none; stroke: #3f3f3f; stroke-width: 1.5; stroke-linecap: round"/>
    <g clip-path="url(#p668976aebc)">
     <use xlink:href="#m1c4919a608" x="597.589145" y="163.997103" style="fill: #ffffff; stroke: #ffffff; stroke-width: 1.125"/>
    </g>
   </g>
   <g id="line2d_34">
    <path d="M 663.201748 220.818785 
L 663.201748 144.28981 
" clip-path="url(#p668976aebc)" style="fill: none; stroke: #3f3f3f; stroke-width: 1.875; stroke-linecap: round"/>
   </g>
   <g id="line2d_35">
    <path d="M 663.201748 212.116001 
L 663.201748 180.031027 
" clip-path="url(#p668976aebc)" style="fill: none; stroke: #3f3f3f; stroke-width: 5.625; stroke-linecap: round"/>
   </g>
   <g id="line2d_36">
    <path d="M 663.201748 193.077944 
" clip-path="url(#p668976aebc)" style="fill: none; stroke: #3f3f3f; stroke-width: 1.5; stroke-linecap: round"/>
    <g clip-path="url(#p668976aebc)">
     <use xlink:href="#m1c4919a608" x="663.201748" y="193.077944" style="fill: #ffffff; stroke: #ffffff; stroke-width: 1.125"/>
    </g>
   </g>
   <g id="patch_8">
    <path d="M 384.348186 318.04 
L 384.348186 24.72 
" style="fill: none; stroke: #cccccc; stroke-width: 0.8; stroke-linejoin: miter; stroke-linecap: square"/>
   </g>
   <g id="patch_9">
    <path d="M 384.348186 318.04 
L 712.4112 318.04 
" style="fill: none; stroke: #cccccc; stroke-width: 0.8; stroke-linejoin: miter; stroke-linecap: square"/>
   </g>
   <g id="text_15">
    <!-- sex = m -->
    <g style="fill: #262626" transform="translate(530.735943 18.72) scale(0.1 -0.1)">
     <defs>
      <path id="ArialMT-6d" d="M 422 0 
L 422 3319 
L 925 3319 
L 925 2853 
Q 1081 3097 1340 3245 
Q 1600 3394 1931 3394 
Q 2300 3394 2536 3241 
Q 2772 3088 2869 2813 
Q 3263 3394 3894 3394 
Q 4388 3394 4653 3120 
Q 4919 2847 4919 2278 
L 4919 0 
L 4359 0 
L 4359 2091 
Q 4359 2428 4304 2576 
Q 4250 2725 4106 2815 
Q 3963 2906 3769 2906 
Q 3419 2906 3187 2673 
Q 2956 2441 2956 1928 
L 2956 0 
L 2394 0 
L 2394 2156 
Q 2394 2531 2256 2718 
Q 2119 2906 1806 2906 
Q 1569 2906 1367 2781 
Q 1166 2656 1075 2415 
Q 984 2175 984 1722 
L 984 0 
L 422 0 
z
" transform="scale(0.015625)"/>
     </defs>
     <use xlink:href="#ArialMT-73"/>
     <use xlink:href="#ArialMT-65" x="50"/>
     <use xlink:href="#ArialMT-78" x="105.615234"/>
     <use xlink:href="#ArialMT-20" x="155.615234"/>
     <use xlink:href="#ArialMT-3d" x="183.398438"/>
     <use xlink:href="#ArialMT-20" x="241.796875"/>
     <use xlink:href="#ArialMT-6d" x="269.580078"/>
    </g>
   </g>
  </g>
  <g id="legend_1">
   <g id="text_16">
    <!-- time -->
    <g style="fill: #262626" transform="translate(725.045625 168.439844) scale(0.1 -0.1)">
     <use xlink:href="#ArialMT-74"/>
     <use xlink:href="#ArialMT-69" x="27.783203"/>
     <use xlink:href="#ArialMT-6d" x="50"/>
     <use xlink:href="#ArialMT-65" x="133.300781"/>
    </g>
   </g>
   <g id="patch_10">
    <path d="M 719.101875 182.585156 
L 739.101875 182.585156 
L 739.101875 175.585156 
L 719.101875 175.585156 
z
" style="fill: #3274a1; stroke: #3f3f3f; stroke-width: 1.25; stroke-linejoin: miter"/>
   </g>
   <g id="text_17">
    <!-- i -->
    <g style="fill: #262626" transform="translate(747.101875 182.585156) scale(0.1 -0.1)">
     <use xlink:href="#ArialMT-69"/>
    </g>
   </g>
   <g id="patch_11">
    <path d="M 719.101875 196.730469 
L 739.101875 196.730469 
L 739.101875 189.730469 
L 719.101875 189.730469 
z
" style="fill: #e1812c; stroke: #3f3f3f; stroke-width: 1.25; stroke-linejoin: miter"/>
   </g>
   <g id="text_18">
    <!-- f -->
    <g style="fill: #262626" transform="translate(747.101875 196.730469) scale(0.1 -0.1)">
     <use xlink:href="#ArialMT-66"/>
    </g>
   </g>
  </g>
 </g>
 <defs>
  <clipPath id="p659a03aedf">
   <rect x="45.470877" y="24.72" width="328.063014" height="293.32"/>
  </clipPath>
  <clipPath id="p668976aebc">
   <rect x="384.348186" y="24.72" width="328.063014" height="293.32"/>
  </clipPath>
 </defs>
</svg>
